<?xml version="1.0" encoding="utf-8"?><!DOCTYPE svg PUBLIC "-//W3C//DTD SVG 1.1//EN" "http://www.w3.org/Graphics/SVG/1.1/DTD/svg11.dtd"><svg x="0" y="0" width="340px" height="340px" viewBox="0, 0, 340, 340" preserveAspectRatio="xMidYMid" font-size="0" id="a" enable-background="new 0 0 340 340" xmlns="http://www.w3.org/2000/svg" xmlns:xlink="http://www.w3.org/1999/xlink" xmlns:xml="http://www.w3.org/XML/1998/namespace" version="1.1"><g id="b" fill="#000"><g transform="translate(210.1952, 245.501)" id="c"><ellipse cx="32.5" cy="17.5" rx="37.3" ry="13.2" opacity="0.15" id="d" /><use xlink:href="#e" x="0.86" y="0" /><use xlink:href="#e" x="-1.89" y="-10.7" /><use xlink:href="#e" x="1.2" y="-21.4" /><use xlink:href="#e" x="-1.35" y="-32.1" /><use xlink:href="#e" x="1.86" y="-42.8" /></g><g transform="translate(64.99519, 245.001)" id="f"><ellipse cx="32.5" cy="17.5" rx="37.3" ry="13.2" opacity="0.15" id="g" /><use xlink:href="#e" x="0.97" y="0" /><use xlink:href="#e" x="-0.73" y="-10.7" /><use xlink:href="#e" x="1.68" y="-21.4" /></g></g><g id="h" fill="#000"><g id="i"><g transform="translate(0, 0) translate(0, 224)" id="j"><ellipse cx="168.6" cy="53.1" rx="57.8" ry="12.8" fill-opacity="0.25" id="k" /></g><g id="l"><g transform="translate(129.3, 239.5) scale(0.8) translate(-129.3, -239.5) translate(79.8, 86.19998) translate(32.5, 177.5) scale(-1, 1) translate(-32.5, -177.5) translate(0, 152)" id="m"><path d="M29.6 27.4 C51.4 29 52.4 37.4 52 41.3 C51.9 42.7 50.9 42.4 48.4 43.4 C46.1 44.4 45.7 45.2 43.7 45.6 C41.5 46 39.1 46 38.3 47.2 C37.5 48.4 34.2 51 37 50.7 C37.5 50.6 40.4 50.7 41.6 50.7 C42.8 50.7 45.7 48.5 46.2 48.5 C46.4 48.5 44 50.8 44.2 50.7 C45.2 50.5 48.9 47.9 49.9 47.7 C51.5 47.3 51 49.2 52.6 48.7 C53.9 48.2 57.3 45.3 58.4 44.7 C59.3 44.2 58.8 46.1 59.5 45.6 C60.2 45 62.1 41.1 62.5 40.4 C62.9 39.7 63.2 39.8 63.4 39.1 C63.6 38.3 63 35.1 63 34.3 C63 33.1 64.7 34.8 64.2 33.6 C63.8 32.7 62.7 29.4 62.1 28.5 C61.3 27.4 60.2 26 59 25 C58.3 24.4 60.7 25.7 62.1 26.6 C63.5 27.5 62 24 60.3 22.2 C59.2 21.1 56.3 19.1 55.2 18.9 C53.4 18.5 50.6 17.6 48 17.3 C46.6 17.1 44.6 17.4 44.4 17.3 C43.1 16.9 50 17 51.1 16.6 C51.7 16.4 50.5 15.9 49.2 15.4 C48.6 15.2 47 14.9 46.3 14.8 C45 14.7 42.4 14.3 39.8 14.4 C37.9 14.4 35.6 14.9 35.4 14.8 C33.8 14.4 40.2 13.9 38.5 13.5 C37.2 13.2 29.5 13.3 28.1 13 C21.3 12 16.4 15.5 10.1 17 C3.4 18.6 -3.8 23.7 3.9 27.4 C7.9 29.4 17.9 26.5 29.6 27.4 z" id="n" fill="#F4DFA9" /><path d="M26.9 29.4 C29.4 29.6 33.4 29.1 35.3 29.4 C35.7 29.5 38.9 30.1 40 30.7 C41.6 31.6 43.1 33.8 44.1 33.8 C45 33.8 43.5 30.7 44.1 31 C45.6 31.7 45.5 34 46.3 34.2 C47.1 34.5 47 32.8 48 34.2 C48.9 35.4 49.1 37.7 49.6 38 C50.5 38.5 50.5 35.7 51 36.3 C51.6 36.9 50.8 38.4 51 38.9 C51.6 40.2 51.9 39.6 51.7 40.9 C51.6 41.7 51.1 42.8 50.1 43.4 C50.2 43.4 50.6 43.1 50.6 43.1 C54.8 40 56 37.6 55 35.2 C54.4 33.8 56.2 33.7 55 32.2 C54.3 31.3 51.2 28.9 49.6 28.1 C48.4 27.5 51.3 27.4 49.6 26.7 C48.6 26.3 42.2 25.7 41.1 25.5 C39.5 25.1 42.2 24.7 40.2 24.3 C35.7 23.4 25.8 22.3 19.5 21 C15.1 20.8 11.3 21.5 8.1 23.2 C4.9 24.9 4 26.5 5.3 28.1 C5.3 28.4 13.3 28.3 14.8 29.1 C19.6 29.4 21.3 28.9 26.9 29.4 z" id="o" fill="#C08A3F" /><path d="M5.1 27.8 C4.7 27.7 4.3 27.6 3.9 27.4 C-3.8 23.7 3.4 18.6 10.1 17 C16.4 15.5 21.3 12 28.1 13 C29.5 13.3 37.2 13.2 38.5 13.5 C40.2 13.9 33.8 14.4 35.4 14.8 C35.6 14.9 37.9 14.4 39.8 14.4 C42.4 14.3 45 14.7 46.3 14.8 C47 14.9 48.6 15.2 49.2 15.4 C50.5 15.9 51.7 16.4 51.1 16.6 C50 17 43.1 16.9 44.4 17.3 C44.6 17.4 46.6 17.1 48 17.3 C50.6 17.6 53.4 18.5 55.2 18.9 C56.3 19.1 59.2 21.1 60.3 22.2 C62 24 63.5 27.5 62.1 26.6 C60.7 25.7 58.3 24.4 59 25 C60.2 26 61.3 27.4 62.1 28.5 C62.7 29.4 63.8 32.7 64.2 33.6 C64.7 34.8 63 33.1 63 34.3 C63 35.1 63.6 38.3 63.4 39.1 C63.2 39.8 62.9 39.7 62.5 40.4 C62.1 41.1 60.2 45 59.5 45.6 C58.8 46.1 59.3 44.2 58.4 44.7 C57.3 45.3 53.9 48.2 52.6 48.7 C51 49.2 51.5 47.3 49.9 47.7 C48.9 47.9 45.2 50.5 44.2 50.7 C44 50.8 46.4 48.5 46.2 48.5 C45.7 48.5 42.8 50.7 41.6 50.7 C40.4 50.7 37.5 50.6 37 50.7 C34.2 51 37.5 48.4 38.3 47.2 C39.1 46 41.5 46 43.7 45.6 C45.7 45.2 46.1 44.4 48.4 43.4 C49.6 42.9 50.5 42.7 51 42.5 C51.4 42 51.6 41.4 51.7 40.9 C51.9 39.6 51.6 40.2 51 38.9 C50.8 38.4 51.6 36.9 51 36.3 C50.5 35.7 50.5 38.5 49.6 38 C49.1 37.7 48.9 35.4 48 34.2 C47 32.8 47.1 34.5 46.3 34.2 C45.5 34 45.6 31.7 44.1 31 C43.5 30.7 45 33.8 44.1 33.8 C43.1 33.8 41.6 31.6 40 30.7 C38.9 30.1 35.7 29.5 35.3 29.4 C33.4 29.1 29.4 29.6 26.9 29.4 C21.3 28.9 19.6 29.4 14.8 29.1 C13.3 28.3 5.3 28.4 5.3 28.1 C5.2 28 5.2 27.9 5.1 27.8 z M10.2 26.9 C10.5 27.1 10.9 27.2 11.3 27.3 C11.3 27.4 11.4 27.4 11.5 27.5 C11.5 27.8 18.5 27.7 19.9 28.4 C24.1 28.7 25.6 28.2 30.5 28.7 C32.8 28.9 34.5 27.6 36.2 27.9 C36.6 28 39.3 29 40.2 29.6 C41.6 30.4 42.6 32.4 43.5 32.4 C44.3 32.4 42.6 29.3 43.2 29.6 C44.5 30.2 45.9 32.5 46.6 32.7 C47.3 32.9 48.3 31.7 49.2 32.9 C50 34 49.4 35.6 49.8 35.9 C50.6 36.3 50.9 33.9 51.3 34.4 C51.9 34.9 51.7 36.6 51.8 37.1 C52.4 38.2 52.6 37.7 52.5 38.8 C52.4 39.3 52.6 40.9 52.2 41.4 C51.7 41.6 51.2 43.1 50.1 43.5 C48.1 44.4 48.9 44.5 47.2 44.8 C44.9 46.1 40 46.7 39.3 47.8 C38.6 48.8 36.1 50.2 38.6 50 C39 49.9 42.1 48.4 43.2 48.4 C44.2 48.4 46.7 46.1 47.2 46.1 C47.3 46.1 47.9 47.6 48 47.5 C48.9 47.3 50 45 50.9 44.8 C52.3 44.5 51.8 46.2 53.3 45.7 C54.4 45.3 57.4 42.7 58.4 42.2 C59.2 41.8 59.7 42.9 60.3 42.5 C60.9 42 61.6 39 62 38.4 C62.4 37.8 62.2 37.7 62.4 37.1 C62.6 36.4 61.6 34.1 61.6 33.4 C61.6 32.3 63.2 34 62.8 32.9 C62.4 32.1 61.4 28.9 60.8 28.1 C60.1 27.2 58.8 25.3 57.7 24.4 C57.1 23.9 58.9 24 60.1 24.8 C61.3 25.6 60.4 23.8 58.9 22.2 C57.9 21.2 54.8 19.7 53.8 19.6 C52.2 19.2 46.2 18.4 43.9 18.1 C42.6 17.9 39.6 17.8 39.5 17.7 C38.3 17.4 41 17 41.9 16.6 C42.5 16.4 50 16.4 48.9 16 C48.3 15.8 46.4 15.5 45.8 15.4 C44.7 15.3 44.2 15.3 41.9 15.4 C40.3 15.4 33.1 15.1 32.9 15 C31.5 14.7 37.7 14.2 36.2 13.8 C35.1 13.6 30 14.1 28.8 13.8 C22.8 12.9 21.3 16.4 15.7 17.7 C9.8 19.1 3.4 23.6 10.2 26.9 z" opacity="0.15" id="p" /></g><g transform="translate(131.1, 273.6799) scale(0.945612) translate(-127.58, -273.6799) translate(128.7, 274.8) scale(0.7) translate(-124.7, -274.8) translate(93.7, 77.69997) translate(21, 121)" id="q"><path d="M22 77.1 C31.1 76.2 36.7 76.5 39.5 72.9 C42.3 69.3 41 56.7 45 46.4 C49 36.1 47.8 3.1 33.3 0.7 C19.9 -1.6 5.4 1.5 1.2 17.1 C-3.8 35.6 8.3 46.8 11.6 50.5 C13.8 53 14.6 54.9 13.9 56.4 C8 57.7 4.2 60.7 2.5 65.1 C0 71.8 2 77.1 4 78.2 C6 79.3 12.9 78.1 22 77.1 z" id="r" fill="#C08A3F" /><g id="s"><path d="M22 77.1 C12.9 78.1 6 79.3 4 78.2 C2 77.1 0 71.8 2.5 65.1 C4.2 60.7 8 57.7 13.9 56.4 C14.6 54.9 13.8 53 11.6 50.5 C8.3 46.8 -3.8 35.6 1.2 17.1 C5.4 1.5 19.9 -1.6 33.3 0.7 C47.8 3.1 49 36.1 45 46.4 C41 56.7 42.3 69.3 39.5 72.9 C36.7 76.5 31.1 76.2 22 77.1 z M25.5 74.9 C34.6 74 34.4 74.1 37.2 70.5 C40 66.9 39.1 55.6 43.1 45.3 C47.1 35 47.8 4 33.3 1.6 C19.9 -0.6 8.7 1.3 4.5 16.9 C-0.5 35.4 10.3 47.8 13.6 51.5 C15.8 54 17.1 55.2 17.1 56.9 C11.2 58.2 6.2 59.9 4.5 64.3 C2 70.9 4 74.5 5.2 76.1 C6.4 77.7 16.4 75.9 25.5 74.9 z" fill-opacity="0.221" id="t" /></g></g><g transform="translate(207.3999, 273.7799) scale(0.945612) translate(-210.92, -273.7799) translate(209.8, 274.9) scale(0.7) translate(-213.8, -274.9) translate(81.00002, 77.79997) translate(117.5, 160.5) scale(-1, 1) translate(-117.5, -160.5) translate(94, 121)" id="u"><path d="M22 77.1 C31.1 76.2 36.7 76.5 39.5 72.9 C42.3 69.3 41 56.7 45 46.4 C49 36.1 47.8 3.1 33.3 0.7 C19.9 -1.6 5.4 1.5 1.2 17.1 C-3.8 35.6 8.3 46.8 11.6 50.5 C13.8 53 14.6 54.9 13.9 56.4 C8 57.7 4.2 60.7 2.5 65.1 C0 71.8 2 77.1 4 78.2 C6 79.3 12.9 78.1 22 77.1 z" id="v" fill="#C08A3F" /><g id="w"><path d="M22 77.1 C12.9 78.1 6 79.3 4 78.2 C2 77.1 0 71.8 2.5 65.1 C4.2 60.7 8 57.7 13.9 56.4 C14.6 54.9 13.8 53 11.6 50.5 C8.3 46.8 -3.8 35.6 1.2 17.1 C5.4 1.5 19.9 -1.6 33.3 0.7 C47.8 3.1 49 36.1 45 46.4 C41 56.7 42.3 69.3 39.5 72.9 C36.7 76.5 31.1 76.2 22 77.1 z M22.3 75.3 C31 74.4 36.1 76 38.8 72.6 C41.5 69.2 40.2 57.1 44.1 47.3 C48 37.5 46.8 5.9 32.9 3.6 C20.1 1.5 7.8 4.1 3.8 18.9 C-1 36.5 9.8 47.1 12.9 50.7 C15 53.1 16.9 56.5 16.2 57.9 C10.5 59.1 5.4 60.6 3.7 64.8 C1.3 71.2 3.1 75.3 5 76.3 C6.9 77.3 13.6 76.2 22.3 75.3 z" fill-opacity="0.221" id="x" /></g></g><g transform="translate(96.90001, 90.79997) translate(24, 65)" id="y"><g transform="translate(4, 0)" id="z"><path d="M71 19.7 C73.2 28.5 78.4 30.1 83 37.6 C89.4 45.5 87.3 61.5 83.3 73 C82 76.7 78.7 86.3 76.6 97.4 C74.6 108.4 76.2 117.3 72.2 120.7 C70.8 122.2 64.9 123.5 55.5 123.5 C52.1 123.5 51 122.5 44.7 122.5 C38.4 122.5 36.3 123.6 33.3 123.5 C24.6 123.1 21 123.2 18.1 120.7 C13.8 116.2 15.5 106.2 12.9 95.6 C10.6 86.1 6.5 78.3 5.5 74 C3.5 64.9 0.2 50.2 6.3 39.2 C9.2 32.9 15.3 26.1 16.9 17.6 C18.6 8.1 34.9 5 43.7 4.4 C55 3.6 68.6 10.1 71 19.7 z" id="a1" fill="#F4DFA9" /><path d="M84.2 39.3 C71.9 51.2 58.6 57.1 44.5 57.1 C30.5 57.1 17.9 51 6.6 38.7 C9.6 32.5 15.4 25.9 17 17.6 C18.6 8.1 34.9 5 43.7 4.4 C55 3.6 68.6 10.1 71 19.7 C73.2 28.5 78.4 30.1 83 37.6 C83.4 38.1 83.8 38.7 84.2 39.3 z" id="b1" fill="#FCF6CA" /><path d="M71 19.7 C73.2 28.5 78.4 30.1 83 37.6 C89.4 45.5 87.3 61.5 83.3 73 C82 76.7 78.7 86.3 76.6 97.4 C74.6 108.4 76.2 117.3 72.2 120.7 C70.8 122.2 64.9 123.5 55.5 123.5 C52.1 123.5 51 122.5 44.7 122.5 C38.4 122.5 36.3 123.6 33.3 123.5 C24.6 123.1 21 123.2 18.1 120.7 C13.8 116.2 15.5 106.2 12.9 95.6 C10.6 86.1 6.5 78.3 5.5 74 C3.5 64.9 0.2 50.2 6.3 39.2 C9.2 32.9 15.3 26.1 16.9 17.6 C18.6 8.1 34.9 5 43.7 4.4 C55 3.6 68.6 10.1 71 19.7 z M69.6 20.3 C67.4 11 54.5 4.8 43.8 5.5 C35.4 6.1 20 9.1 18.4 18.3 C16.9 26.5 11.1 33 8.4 39.1 C2.6 49.7 5.7 63.8 7.6 72.6 C8.5 76.7 12.4 84.3 14.6 93.4 C17.1 103.6 15.5 113.3 19.5 117.6 C22.2 120 25.7 119.9 33.9 120.3 C36.7 120.4 38.7 119.3 44.7 119.3 C50.7 119.3 51.7 120.3 54.9 120.3 C63.8 120.3 69.4 119 70.7 117.6 C74.5 114.3 73 105.7 74.9 95.1 C76.9 84.4 80 75.1 81.2 71.6 C85 60.5 87 45.1 80.9 37.5 C76.6 30.3 71.7 28.8 69.6 20.3 z" opacity="0.15" id="c1" /></g></g><g transform="translate(121.151, 178.85) scale(1.46, 1.291872) translate(-136.4, -185.5) translate(110.1, 102.2) translate(59.5, 123.5) scale(-1, 1) translate(-59.5, -123.5) translate(26, 83)" id="d1"><path d="M59.8 75 C59.6 72.5 57.7 69.2 56.7 67.2 L42 70.6 C39.4 72.9 39.2 76.8 40.3 78.2 C40.9 78.8 44.7 81.5 51.2 80.8 C58.5 80.1 60 77.9 59.8 75 z" id="e1" fill="#E2DFD9" /><path d="M7.2 75 C7.4 72.5 9.3 69.2 10.3 67.2 L25 70.6 C27.6 72.9 27.8 76.8 26.7 78.2 C26.1 78.8 22.3 81.5 15.8 80.8 C8.5 80.1 7 77.9 7.2 75 z" id="f1" fill="#E2DFD9" /><path d="M10.6 11.9 C13.2 8.3 20.8 0.3 33.5 0.3 C46.2 0.3 53.8 8.3 56.4 11.9 C56.5 12.9 56.5 13.8 56.4 14.8 C56.4 14.3 55.7 14.2 55.4 14.5 C55.1 14.8 55.1 15.3 55 15.8 C54.9 17.7 53.8 19.6 52.2 20.6 C52.1 19.6 52.1 18.7 52 17.7 C51.8 19.6 50.4 21.3 48.7 21.8 C48.7 21.2 48.8 20.6 48.8 20 C46.5 21.2 44.8 23.3 43.9 25.7 C42.9 24.5 42.5 22.7 42.9 21.2 C41.1 23.5 38.5 25.3 35.7 26.2 C35.5 25.6 35.3 25 35 24.3 C34.8 25.4 34.5 26.5 34.2 27.6 C33.2 26.6 32.5 25.4 31.9 24.1 C31.7 24.8 31.4 25.5 31.2 26.2 C28.4 25.3 25.9 23.5 24 21.2 C24.4 22.7 24 24.5 23 25.7 C22.2 23.3 20.4 21.2 18.1 20 C18.1 20.6 18.2 21.2 18.2 21.8 C16.4 21.2 15.1 19.5 14.9 17.7 C14.8 18.7 14.8 19.6 14.7 20.6 C13.1 19.5 12 17.7 11.9 15.8 C11.9 15.3 11.9 14.8 11.5 14.5 C11.2 14.2 10.4 14.3 10.5 14.8 C10.5 13.8 10.5 12.8 10.6 11.9 z" id="g1" fill="#F0B756" /><path d="M0.4 47 C1.7 47 3.2 45.4 3.6 41.9 C3.6 41.8 3.6 41.7 3.7 41.7 C3.1 42.2 2.5 42.6 1.9 43.1 C2.8 39.4 3.7 35.6 4.6 31.9 C5.2 28.5 6.1 25 7.5 21.4 C7.6 21.2 7.9 21.2 8.2 21.6 C8.2 22.4 8.3 23.2 8.3 24.2 C9.3 23.3 10.3 23.4 11.2 22.5 C11.2 23.5 11.1 24.5 11.1 25.5 C12.3 25 13.3 24.2 13.9 23.1 C14 23.1 14 23.1 14.1 23.1 C14.3 26.2 17.3 28.8 20.4 28.6 C20.2 27.3 19.8 26.1 19.7 25.7 C21.2 27.3 22.5 29.9 23.9 31.5 C24.3 30.6 24.3 29.3 24.7 28.4 C25.3 29.2 27.4 29.8 28 30.7 C28.3 30.3 27.7 28 27.9 27.5 C28.2 28.2 28.5 28.8 29 29.3 C29.4 29.7 30 29.9 30.5 30 C31.7 30.8 32 30.2 33.5 31.2 C34.1 31.6 35.3 32.3 35.3 33.1 C35.8 32.3 36 31.2 35.9 30.1 C36.7 30.1 37.5 30 38.1 29.4 C38.6 28.9 38.9 28.3 39.2 27.6 C39.4 28.1 38.8 30.3 39.1 30.8 C39.7 30 41.8 29.4 42.4 28.5 C42.8 29.4 42.8 30.7 43.2 31.6 C44.7 30 46 27.5 47.4 25.8 C47.2 26.2 46.9 27.4 46.7 28.7 C49.8 28.9 52.8 26.3 53 23.2 C53.1 23.2 53.1 23.2 53.2 23.2 C53.8 24.3 54.8 25.1 56 25.6 C56 24.6 55.9 23.6 55.9 22.6 C56.9 23.5 57.9 23.4 58.8 24.3 C58.8 23.3 58.9 22.5 58.9 21.7 C59 21.3 59.3 21.2 59.6 21.5 C61 25.1 61.9 28.6 62.5 32 C63.4 35.7 64.3 39.5 65.2 43.2 C64.6 42.7 64 42.3 63.4 41.8 C63.4 41.9 63.5 41.9 63.5 42 C64 45.5 65.4 47.1 66.7 47.1 C66.5 48.3 64.3 50.2 63 49.9 C64.6 53.8 63.8 58.6 61.2 61.8 C61.8 63.1 61.3 64.8 60 65.5 C60.1 66.5 60.3 67.6 60.4 68.6 C60.1 68.4 59.9 68.2 59.6 68 C59.6 68.5 59.5 69.1 59.6 69.5 C59.8 69.7 60 69.9 60.1 70.1 C60.3 70.5 60.5 71 60.7 71.4 C60.3 71.1 60 70.8 59.6 70.5 L59.5 70.6 C59.3 70.9 59.1 71.2 58.9 71.5 C58.9 71.4 58.8 71.4 58.8 71.3 C58.4 71.9 58.1 72.6 58 73.4 C57.4 73.1 56.9 72.9 56.3 72.6 C55.9 73.8 55.4 74.9 55 76.1 C54.4 75.2 53.9 74.4 53.3 73.5 C53.1 73.6 52.9 73.6 52.7 73.7 C52.4 74.7 52 75.7 51.7 76.7 C51.4 75.7 51.1 74.6 50.1 74.2 C50 74.2 50 74.2 49.9 74.1 C49.5 74.1 49.1 74.1 48.7 74.1 C48.5 74.1 48.3 74.2 48.1 74.2 C47.8 74.3 47.5 74.3 47.2 74.4 C46.6 74.8 46 75.2 45.4 75.6 C45.2 75.7 45 75.8 44.8 75.8 C44.6 75.7 44.5 75.4 44.6 75.2 C44.7 75 44.8 74.9 45 74.8 C44.9 74.8 44.8 74.8 44.8 74.8 C44.2 74.8 43.6 74.7 43.2 74.4 C42.8 74.1 42.6 73.5 42.8 73.1 C42.7 73.1 41.6 73.4 41.5 73.3 C41.6 73.1 41.9 72 42.1 70.8 C41.9 71.1 41.8 71.4 41.6 71.7 C41.5 70 41.2 68.3 42 67.3 C42.2 67 42.3 66.8 42.4 66.5 C42.3 65.5 42.2 64.5 42.2 63.7 C41.7 62.5 41.1 61.3 41.2 60.3 C41.3 58.8 41.7 57.3 42.1 55.8 C41.3 56.5 40.5 57.2 39.8 57.9 C40.7 56 41.6 54.1 42.6 52.2 C42.3 51.1 41.9 50.1 41.6 49 C40.6 49.7 39.7 50.6 39.2 51.7 C38.8 49.4 38.3 46.5 39.5 44.6 C37.8 47 35.1 48 33.6 52.6 C32.1 48.1 29.4 47 27.7 44.6 C28.9 46.5 28.5 49.4 28 51.7 C27.5 50.6 26.6 49.7 25.6 49 C25.3 50.1 24.9 51.1 24.6 52.2 C25.5 54.1 26.4 56 27.4 57.9 C26.6 57.2 25.8 56.5 25.1 55.8 C25.5 57.3 25.8 58.8 26 60.3 C26.1 61.4 25.5 62.6 25 63.7 C25 64.5 24.9 65.5 24.8 66.5 C24.9 66.8 25 67.1 25.2 67.3 C26 68.4 25.7 70 25.6 71.7 C25.4 71.4 25.3 71.1 25.1 70.8 C25.4 72 25.6 73.1 25.7 73.3 C25.6 73.3 24.5 73.1 24.4 73.1 C24.6 73.5 24.4 74.1 24 74.4 C23.5 74.7 22.9 74.8 22.4 74.8 C22.3 74.8 22.2 74.8 22.2 74.8 C22.4 74.9 22.5 75 22.6 75.2 C22.7 75.4 22.7 75.8 22.4 75.8 C22.2 75.9 22 75.8 21.8 75.6 C21.2 75.2 20.6 74.8 20 74.4 C19.7 74.3 19.4 74.3 19.1 74.2 C18.9 74.2 18.7 74.1 18.5 74.1 C18.1 74.1 17.7 74.1 17.3 74.1 C17.2 74.1 17.2 74.1 17.1 74.2 C16.2 74.6 15.8 75.7 15.5 76.7 C15.2 75.7 14.8 74.7 14.5 73.7 C14.3 73.6 14.1 73.6 13.9 73.5 C13.3 74.4 12.8 75.2 12.2 76.1 C11.8 74.9 11.3 73.8 10.9 72.6 C10.3 72.9 9.8 73.1 9.2 73.4 C9.1 72.7 8.8 71.9 8.4 71.3 C8.4 71.4 8.3 71.4 8.3 71.5 C8.1 71.2 7.9 70.9 7.7 70.6 L7.6 70.5 C7.2 70.8 6.9 71.1 6.5 71.4 C6.7 71 6.9 70.5 7.1 70.1 C7.3 69.9 7.5 69.7 7.6 69.5 C7.6 69 7.6 68.5 7.6 68 C7.3 68.2 7.1 68.4 6.8 68.6 C6.9 67.6 7.1 66.5 7.2 65.5 C6 64.8 5.4 63.1 6 61.8 C3.3 58.5 2.6 53.8 4.2 49.9 C2.8 50.1 0.6 48.2 0.4 47 z" id="h1" fill="#FCF6CA" /><path d="M27.8 44.8 C27.8 44.8 27.8 44.8 27.8 44.8 C28.8 46.8 28.4 49.5 28 51.7 C27.5 50.6 26.6 49.7 25.6 49 C25.3 50.1 24.9 51.1 24.6 52.2 C25.5 54.1 26.4 56 27.4 57.9 C26.6 57.2 25.8 56.5 25.1 55.8 C25.5 57.3 25.8 58.8 26 60.3 C26.1 61.4 25.5 62.6 25 63.7 C25 64.5 24.9 65.5 24.8 66.5 C24.9 66.8 25 67.1 25.2 67.3 C25.9 68.3 25.7 69.7 25.6 71.2 C27.6 73.5 27.7 76.9 26.7 78.2 C26.1 78.8 22.3 81.5 15.8 80.8 C8.5 80.1 7 77.9 7.2 75 C7.3 73.9 7.7 72.6 8.2 71.4 L7.7 70.6 C7.2 70.8 6.9 71.1 6.5 71.4 C6.7 71 6.9 70.5 7.1 70.1 C7.3 69.9 7.5 69.7 7.6 69.5 L7.6 68 C7.3 68.2 7.1 68.4 6.8 68.6 C6.9 67.6 7.1 66.5 7.2 65.5 C6 64.8 5.4 63.1 6 61.8 C3.3 58.5 2.6 53.8 4.2 49.9 C2.8 50.1 0.6 48.2 0.4 47 C1.7 47 3.2 45.4 3.6 41.9 C3.6 41.8 3.6 41.7 3.7 41.7 C3.1 42.2 2.5 42.6 1.9 43.1 C2.8 39.4 3.7 35.6 4.6 31.9 C5.2 28.5 6.1 25 7.5 21.4 C7.6 21.2 7.9 21.2 8.2 21.6 C8.2 22.4 8.3 23.2 8.3 24.2 C9.3 23.3 10.3 23.4 11.2 22.5 C11.2 23.5 11.1 24.5 11.1 25.5 C12.3 25 13.3 24.2 13.9 23.1 L14.1 23.1 C14.3 26.2 17.3 28.8 20.4 28.6 C20.2 27.3 19.8 26.1 19.7 25.7 C21.2 27.3 22.5 29.9 23.9 31.5 C24.3 30.6 24.3 29.3 24.7 28.4 C25.3 29.2 27.4 29.8 28 30.7 C28.3 30.3 27.7 28 27.9 27.5 C28.2 28.2 28.5 28.8 29 29.3 C29.4 29.7 30 29.9 30.5 30 C31.7 30.8 32 30.2 33.5 31.2 C34.1 31.6 35.3 32.3 35.3 33.1 C35.8 32.3 36 31.2 35.9 30.1 C36.7 30.1 37.5 30 38.1 29.4 C38.6 28.9 38.9 28.3 39.2 27.6 C39.4 28.1 38.8 30.3 39.1 30.8 C39.7 30 41.8 29.4 42.4 28.5 C42.8 29.4 42.8 30.7 43.2 31.6 C44.7 30 46 27.5 47.4 25.8 C47.2 26.2 46.9 27.4 46.7 28.7 C49.8 28.9 52.8 26.3 53 23.2 L53.2 23.2 C53.8 24.3 54.8 25.1 56 25.6 C56 24.6 55.9 23.6 55.9 22.6 C56.9 23.5 57.9 23.4 58.8 24.3 C58.8 23.3 58.9 22.5 58.9 21.7 C59 21.3 59.3 21.2 59.6 21.5 C61 25.1 61.9 28.6 62.5 32 C63.4 35.7 64.3 39.5 65.2 43.2 C64.6 42.7 64 42.3 63.4 41.8 C63.4 41.9 63.5 41.9 63.5 42 C64 45.5 65.4 47.1 66.7 47.1 C66.5 48.3 64.3 50.2 63 49.9 C64.6 53.8 63.8 58.6 61.2 61.8 C61.8 63.1 61.3 64.8 60 65.5 C60.1 66.5 60.3 67.6 60.4 68.6 C60.1 68.4 59.9 68.2 59.6 68 C59.6 68.5 59.5 69.1 59.6 69.5 C59.8 69.7 60 69.9 60.1 70.1 C60.3 70.5 60.5 71 60.7 71.4 C60.3 71.1 60 70.8 59.6 70.5 L58.9 71.5 C58.9 71.4 58.8 71.4 58.8 71.3 C59.3 72.6 59.7 73.9 59.8 75 C60 77.9 58.5 80.1 51.2 80.8 C44.7 81.5 40.9 78.8 40.3 78.2 C39.3 76.9 39.4 73.4 41.6 71 C41.5 69.5 41.4 68.1 42 67.3 C42.2 67 42.3 66.8 42.4 66.5 C42.3 65.5 42.2 64.5 42.2 63.7 C41.7 62.5 41.1 61.3 41.2 60.3 C41.3 58.8 41.7 57.3 42.1 55.8 C41.3 56.5 40.5 57.2 39.8 57.9 C40.7 56 41.6 54.1 42.6 52.2 C42.3 51.1 41.9 50.1 41.6 49 C40.6 49.7 39.7 50.6 39.2 51.7 C38.8 49.4 38.3 46.5 39.5 44.6 C37.8 47 35.1 48 33.6 52.6 C32.1 48.2 29.5 47.1 27.8 44.8 z M27.8 44.8 C27.7 43.9 27.5 43 27.1 42.3 C28.7 44.6 32.1 44.8 33.5 49.1 C34.9 44.8 39.5 45.3 41.1 43 C40 44.8 39.5 47.3 39.9 49.5 C40.4 48.5 41.7 47.9 42.6 47.2 C42.9 48.2 43.6 51.3 43.9 52.3 C43 54.1 42.7 53 41.8 54.8 C42.5 54.1 43.3 54.7 43.2 56.1 C43.1 57 42.1 60.2 42.5 61.3 C42.5 62.1 43.1 63 43.2 63.9 C43.1 64.2 44 66.4 43.8 66.7 C43.1 67.5 42.4 70 42.5 71.4 C40.5 73.6 40 74.7 41 76 C41.3 76.3 41.5 77.6 42.9 78.2 C43.9 78.6 45.7 78.3 47.4 78.5 C48.3 78.6 49.8 79.1 50.9 79 C51.9 78.9 52.1 77.2 53 77.5 C53.9 77.8 54.5 78.6 55.1 78.5 C56 78.4 56.4 76.8 56.9 76.4 C58.2 75.4 58.2 73.4 58.1 72 C58 71 57.6 69.8 57.2 68.5 C57.2 68.6 57.3 68.6 57.3 68.7 L58 67.8 C58.4 68.1 58.7 68.4 59 68.6 C58.8 68.2 58.6 67.8 58.4 67.4 C58.3 67.2 58.1 67 57.9 66.8 C57.8 66.4 57.9 65.9 57.9 65.4 C58.2 65.6 58.4 65.8 58.7 66 C58.6 65.1 58.4 64 58.3 63.1 C59.5 62.4 60 60.8 59.4 59.6 C61.8 56.6 62.6 52.1 61.1 48.4 C62.3 48.7 64.8 48.4 64.9 47.2 C64.2 47.2 63.6 46.9 62.9 44.8 C62.4 43.4 60.9 38.2 61.4 39.1 C62 39.6 62.3 39.8 62.9 40.3 C62.1 36.8 61.9 34.7 61.1 31.2 C60.5 28 60.7 27.1 59.4 23.7 C59.1 23.4 58.7 25.1 58.6 25.5 C58.6 26.3 57.1 23.4 57.1 24.4 C56.3 23.6 57.2 27.7 56.3 26.9 C56.3 27.8 54.1 26.2 53.5 25.1 C52.2 27.4 51.1 28.7 50.4 29.1 C48.7 29.9 47.5 30.5 46.4 30.4 C46.6 29.2 45.9 28.6 46.1 28.2 C44.8 29.8 44.6 31.1 43.2 32.6 C42.8 31.8 42.5 30.6 42.1 29.8 C41.5 30.6 39.1 31.5 38.5 32.2 C38.2 31.7 38.7 29.6 38.5 29.1 C38.2 29.8 38.2 30.3 37.7 30.8 C37.1 31.4 37.1 31.1 36.4 31.1 C36.5 32.1 35.7 33.8 35.2 34.5 C35.2 33.7 33.5 32.3 32.9 31.9 C31.5 31 31.6 31.9 30.5 31.1 C30 31 28.8 29.7 28.6 30.1 C28.4 29.8 28.9 31.4 28.3 31.5 C27.4 31.6 25.3 30.3 24.9 29.8 C24.5 30.6 24.2 31.4 23.8 32.2 C22.5 30.7 22.1 29.3 20.7 27.8 C20.8 28.2 21.1 29.6 20.6 29.9 C17.7 30.1 14.2 27.6 13.8 24.6 C13.2 25.6 12 26.3 10.9 26.7 C10.9 25.8 10.5 24.5 10.5 23.6 C9.7 24.5 10 24.5 9 25.4 C8.4 25 7.6 24.8 7.6 24 C7.3 23.6 7.1 23.4 7 23.6 C5.7 27 6 28.2 5.4 31.4 C4.6 34.9 4 37.7 3.1 41.2 C3.7 40.7 4.6 40.2 4.6 40.3 C4.2 43.6 3 47.2 1.8 47.2 C2 48.3 3.7 48.6 5 48.4 C3.5 52.1 5 56.5 7.5 59.6 C6.9 60.8 7.5 62.4 8.6 63.1 C8.6 64 8.5 65 8.4 66 C8.7 65.8 8.9 65.6 9.2 65.4 L9.2 66.8 C9 67 8.8 67.2 8.6 67.4 C8.4 67.8 8.2 68.2 8 68.6 C8.4 68.3 8.7 68 9.1 67.8 L9.6 68.6 C9.1 69.8 8.7 70.9 8.6 72 C8.5 72.8 8.2 74.5 9 74.5 C9.8 74.5 9.2 77.2 10.8 77.9 C11.2 78.1 12.7 77.3 13.2 77.4 C13.8 77.6 14.1 78.8 15 78.9 C15.5 79 17.4 77.3 17.9 77.4 C19.6 77.6 21.1 78.6 22.5 78.4 C23.9 78.2 24 76.7 25.2 76.7 C27.5 76.7 25.9 75.4 26.2 75.2 C26.8 72.7 25.7 72.6 23.8 70.4 C23.9 69 24.5 67.7 23.8 66.7 C23.6 66.5 23.9 64.4 23.8 64.1 C23.9 63.2 24.5 62 24.5 61.2 C25 60.2 24.6 58.7 24.5 57.7 C24.3 56.3 23.6 55.2 23.2 53.8 C23.9 54.5 24.9 54 25.7 54.7 C24.8 52.9 24.7 52.6 23.8 50.8 C24.1 49.8 24.9 47.7 25.2 46.7 C26.1 47.4 27 47.9 27.4 49 C27.7 47.8 27.9 46.2 27.8 44.8 C27.8 44.8 27.7 44.7 27.7 44.6 C27.7 44.7 27.8 44.7 27.8 44.8 z" opacity="0.15" id="i1" /><path d="M10.6 11.9 C13.2 8.3 20.8 0.3 33.5 0.3 C46.2 0.3 53.8 8.3 56.4 11.9 C56.5 12.9 56.5 13.8 56.4 14.8 C56.4 14.3 55.7 14.2 55.4 14.5 C55.1 14.8 55.1 15.3 55 15.8 C54.9 17.7 53.8 19.6 52.2 20.6 C52.1 19.6 52.1 18.7 52 17.7 C51.8 19.6 50.4 21.3 48.7 21.8 C48.7 21.2 48.8 20.6 48.8 20 C46.5 21.2 44.8 23.3 43.9 25.7 C42.9 24.5 42.5 22.7 42.9 21.2 C41.1 23.5 38.5 25.3 35.7 26.2 C35.5 25.6 35.3 25 35 24.3 C34.8 25.4 34.5 26.5 34.2 27.6 C33.2 26.6 32.5 25.4 31.9 24.1 C31.7 24.8 31.4 25.5 31.2 26.2 C28.4 25.3 25.9 23.5 24 21.2 C24.4 22.7 24 24.5 23 25.7 C22.2 23.3 20.4 21.2 18.1 20 C18.1 20.6 18.2 21.2 18.2 21.8 C16.4 21.2 15.1 19.5 14.9 17.7 C14.8 18.7 14.8 19.6 14.7 20.6 C13.1 19.5 12 17.7 11.9 15.8 C11.9 15.3 11.9 14.8 11.5 14.5 C11.2 14.2 10.4 14.3 10.5 14.8 C10.5 13.8 10.5 12.8 10.6 11.9 z M11.9 11.3 C11.8 12.1 11.8 13.1 11.8 14 C11.7 13.5 12.5 13.4 12.7 13.7 C13.1 14 13.1 14.5 13.1 14.9 C13.2 16.7 12.2 17.2 13.7 18.2 C13.8 17.3 14.9 16.3 15 15.4 C15.2 17.1 15.7 20 17.4 20.6 C17.4 20 17.9 18.8 17.9 18.3 C20.1 19.4 22.4 21.7 23.2 24 C24.1 22.9 23.6 20.9 23.2 19.5 C25 21.7 28.7 23.9 31.3 24.8 C31.5 24.1 31.8 23.5 32 22.8 C32.6 24 33.2 25.2 34.2 26.1 C34.5 25.1 34.8 24 35 23 C35.3 23.7 35.5 24.2 35.7 24.8 C38.3 24 42.5 21.7 44.2 19.5 C43.8 20.9 43.3 22.8 44.2 24 C45 21.7 46.6 19.1 48.8 17.9 C48.8 18.5 49.6 20.1 49.6 20.6 C51.2 20.1 52.3 16.7 52.5 14.9 C52.6 15.8 53.1 17.8 53.2 18.8 C54.7 17.9 54.3 16.7 54.4 14.9 C54.5 14.4 54.1 14 54.4 13.7 C54.7 13.4 55.8 12.7 55.8 13.2 C55.9 12.3 55.4 12.2 55.3 11.3 C52.6 7.9 45.5 0.4 33.5 0.4 C21.5 0.4 14.4 7.9 11.9 11.3 z" opacity="0.15" id="j1" /></g></g><g transform="translate(170, 196.9) scale(0.9762982) translate(-170, -196.9)" id="k1"><g transform="translate(111, 102.1) translate(20, 9)" id="l1"><path d="M74.7 44.7 C74.7 30.9 75.3 23.9 72.1 17.8 C67.3 8.7 61.8 4.3 55.8 2.2 C49.8 0 42.4 1.2 39.1 1.2 C35.8 1.2 28.4 0.1 22.4 2.2 C16.4 4.4 10.9 8.8 6.1 17.8 C2.9 23.9 3.5 30.9 3.5 44.7 C-0.3 52.8 -0.7 59.7 2.5 66.7 C9.1 80.8 24.2 87.8 39.1 87.9 C54 87.8 69.2 80.8 75.7 66.7 C78.9 59.7 78.4 52.8 74.7 44.7 z" id="m1" fill="#FCF6CA" /><path d="M2.9 45.5 C5.3 47 8.4 48.4 9.6 48.5 C21.9 50 30.5 47.9 33.8 37.4 C35.8 30.7 31.9 20.5 34.6 10.7 C35.2 8.6 35.2 3.9 33.4 1 C30 0.9 25.9 1 22.2 2.3 C16.2 4.5 10.7 8.9 5.9 17.9 C2.8 24 3.3 31 3.3 44.8 C3.2 45 3.1 45.2 2.9 45.5 z" id="n1" fill="#F0B756" /><path d="M3.1 45.6 C3 45.6 3 45.5 2.9 45.5 C3.1 45.2 3.2 45 3.3 44.8 C3.3 31 2.8 24 5.9 17.9 C10 10.2 14.6 5.9 19.6 3.4 C20.5 2.9 21.5 2.5 22.4 2.2 C28.4 0.1 35.8 1.2 39.1 1.2 C42.4 1.2 49.8 0 55.8 2.2 C61.8 4.3 67.3 8.7 72.1 17.8 C75.3 23.9 74.7 30.9 74.7 44.7 C78.4 52.8 78.9 59.7 75.7 66.7 C69.2 80.8 54 87.8 39.1 87.9 C24.2 87.8 9.1 80.8 2.5 66.7 C-0.6 60 -0.3 53.3 3.1 45.6 z M5.6 43.7 C5.6 43.8 3 48.1 2.3 51.4 C1.2 56 1.6 61.4 3.4 65.2 C9.8 78.8 24.6 85.5 39.1 85.6 C53.6 85.5 68.5 78.8 74.8 65.2 C77.9 58.5 76.8 51.9 73.2 44.1 C73.2 30.8 74.4 24 71.3 18.1 C66.6 9.3 61.2 5.1 55.4 3.1 C49.5 1 42.3 2.1 39.1 2.1 C35.9 2.1 28.7 1.1 22.8 3.1 C21.9 3.4 21 3.8 20.1 4.2 C15.2 6.6 10.7 10.8 6.7 18.2 C3.7 24.1 5.6 30.4 5.6 43.7 z" opacity="0.15" id="o1" /></g><g transform="translate(103.4, 85.19995) translate(21, 2)" id="p1"><g transform="translate(18.02073, 23.28844) scale(-1, 1) rotate(-6, 0, 0) translate(-18.02073, -23.28844) translate(2.520727, 1.788439)" id="q1"><path d="M1.7 25.8 C-1.9 23.8 -2.7 23.7 -1.4 20.5 C-0.1 17.3 2.4 17.8 5 15.3 C7.6 12.8 13.5 8.6 17.4 6.7 C21.3 4.8 23.7 2.5 25.7 4.7 C27.7 6.9 29.1 12.8 28 18.9 C26.9 25 23.5 30.4 23.1 33.3 C22.7 36.2 21.9 40.6 20.2 42.9 C19.7 43.6 18.2 45.3 17.3 45.8 C15.4 46.7 14 44.9 12.6 41.3 C12.3 40.4 10.5 34.3 8.6 32.4 C6.3 29.9 5.4 27.8 1.7 25.8 z" id="r1" fill="#C08A3F" /><path d="M1.7 25.8 C-1.9 23.8 -2.7 23.7 -1.4 20.5 C-0.1 17.3 2.4 17.8 5 15.3 C7.6 12.8 13.5 8.6 17.4 6.7 C21.3 4.8 23.7 2.5 25.7 4.7 C27.7 6.9 29.1 12.8 28 18.9 C26.9 25 23.5 30.4 23.1 33.3 C22.7 36.2 21.9 40.6 20.2 42.9 C19.7 43.6 18.2 45.3 17.3 45.8 C15.4 46.7 14 44.9 12.6 41.3 C12.3 40.4 10.5 34.3 8.6 32.4 C6.3 29.9 5.4 27.8 1.7 25.8 z M3.9 24.6 C7.2 26.4 8 28.3 10 30.5 C11.7 32.2 13.3 37.7 13.6 38.5 C14.8 41.7 16.1 43.4 17.8 42.5 C18.6 42.1 19.9 40.5 20.4 39.9 C21.9 37.8 22.6 33.9 23 31.3 C23.4 28.7 26.4 23.8 27.4 18.3 C28.4 12.8 27.1 7.5 25.4 5.5 C23.6 3.5 21.5 5.6 18 7.3 C14.5 9 9.3 12.8 6.9 15 C4.5 17.2 2.4 16.8 1.2 19.7 C0 22.6 0.7 22.8 3.9 24.6 z" opacity="0.15" id="s1" /><path d="M5.7 24.6 C3.7 23.6 2.3 23 3.3 20.4 C3.9 18.9 7.5 16.8 10.9 14.2 C13.3 12.3 16.2 10.3 18 9.3 C20.6 7.8 21.8 6.3 23.5 7.6 C25.1 8.9 26.5 14.5 25.7 19.2 C24.9 24 20 35.8 18.7 37.6 C17.4 39.4 16.1 42.4 14.5 38.2 C12.9 34 12.6 31.4 10.9 29.6 C9.2 27.8 7.7 25.6 5.7 24.6 z" id="t1" fill="#FCF6CA" /><path d="M8.2 26.4 C8.3 25.4 9.1 23.7 9.3 23.3 C9.6 22.7 12.3 21.1 14.6 19.7 C15.6 19 18.6 17.4 18.6 17.4 C20.2 16.5 20.1 19.9 18.6 22.6 C17.7 24.2 15.1 29.9 13.3 31.6 C12.7 32.2 12.2 31.1 11 29.5 C9.9 28.1 8.1 26.8 8.2 26.4 z" opacity="0.5" id="u1" fill="#C08A3F" /></g></g><g transform="translate(91.59997, 85.19995) translate(100.9, 24.5) scale(-1, 1) translate(-100.9, -24.5) translate(82.40002, 0)" id="v1"><g transform="translate(18.19189, 24.4854) scale(-1, 1) rotate(-7, 0, 0) translate(-18.19189, -24.4854) translate(2.691893, 2.485396)" id="w1"><path d="M5.4 26.9 C1.8 24.9 1 24.8 2.3 21.6 C3.6 18.4 6.1 18.9 8.7 16.4 C11.3 13.9 17.2 9.7 21.1 7.8 C25 5.9 27.4 3.6 29.4 5.8 C31.4 8 32.8 14 31.7 20.1 C30.7 26.2 27.1 31.6 26.8 34.5 C26.4 37.4 25.6 41.8 23.9 44.1 C23.4 44.8 21.9 46.5 21 47 C19.1 47.9 18.5 47.3 17.1 43.7 C16.8 42.8 17 42 16.7 41.2 C15.3 37.5 14.2 35.4 12.3 33.5 C9.9 31.1 9 29 5.4 26.9 z" id="x1" fill="#C08A3F" /><path d="M5.4 26.9 C1.8 24.9 1 24.8 2.3 21.6 C3.6 18.4 6.1 18.9 8.7 16.4 C11.3 13.9 17.2 9.7 21.1 7.8 C25 5.9 27.4 3.6 29.4 5.8 C31.4 8 32.8 14 31.7 20.1 C30.7 26.2 27.1 31.6 26.8 34.5 C26.4 37.4 25.6 41.8 23.9 44.1 C23.4 44.8 21.9 46.5 21 47 C19.1 47.9 18.5 47.3 17.1 43.7 C16.8 42.8 17 42 16.7 41.2 C15.3 37.5 14.2 35.4 12.3 33.5 C9.9 31.1 9 29 5.4 26.9 z M7.1 25.9 C10.4 27.8 11.2 29.8 13.4 32 C15.1 33.8 16.2 35.7 17.4 39.1 C17.7 39.8 17.5 40.6 17.8 41.4 C19.1 44.7 19.6 45.3 21.4 44.4 C22.2 43.9 23.6 42.4 24.1 41.7 C25.7 39.6 26.4 35.5 26.8 32.8 C27.1 30.1 30.4 25.1 31.3 19.5 C32.3 13.9 31 8.3 29.2 6.3 C27.4 4.3 25.2 6.4 21.6 8.1 C18 9.8 12.6 13.7 10.2 16 C7.8 18.3 5.5 17.8 4.3 20.8 C3.1 23.8 3.8 24.1 7.1 25.9 z" opacity="0.15" id="y1" /><path d="M9.4 25.7 C7.4 24.7 6 24.1 7 21.5 C7.6 20 11.2 17.9 14.6 15.3 C17 13.4 19.9 11.4 21.7 10.4 C24.3 8.9 25.5 7.4 27.2 8.7 C28.8 10 30.2 15.6 29.4 20.3 C28.6 25.1 23.7 36.9 22.4 38.7 C21.1 40.5 19.8 43.5 18.2 39.3 C16.6 35.1 16.3 32.5 14.6 30.7 C12.9 29 11.4 26.8 9.4 25.7 z" id="z1" fill="#FCF6CA" /><path d="M11.5 26.9 C11.6 25.9 12.8 24.9 13 24.5 C13.3 23.9 16 22.3 18.3 20.9 C19.3 20.2 22.3 18.6 22.3 18.6 C23.9 17.7 23.8 21.1 22.3 23.8 C21.4 25.4 18.8 31.1 17 32.8 C15.8 33.9 14.9 30.4 14.4 30.5 C13.3 28.9 11.4 27.8 11.5 26.9 z" opacity="0.5" id="a2" fill="#C08A3F" /></g></g><g transform="translate(170, 162.5999) scale(0.96, 0.85) translate(-170, -155.5999)" id="b2"><g transform="translate(108.4, 75.49996) translate(22, 30)" id="c2"><g id="d2"><path d="M76.7 63.3 C75.1 55.9 72.5 52.3 66.1 47.7 C58.4 42.2 52.2 40.3 47.5 33.1 C46 30.8 44.9 28.2 43.9 20.7 C43.3 16.2 42.8 12.9 42.4 9.2 C42 5.5 41.1 0.8 37.7 0.7 C34.3 0.6 33.6 4.7 33.5 9.9 C33.4 15.2 33 16.9 32.3 22.2 C31.2 29.7 29.2 32.1 27.7 34.5 C23 41.8 17.4 43 9.9 49 C2.7 54.8 1.9 56.9 1 66.1 C1 66 1 66 1 65.9 C-0.2 70.9 3.1 77 3.1 77.1 C9.7 87.7 16.4 91.1 27.6 91.1 C32.7 91.1 38 91.1 50.2 91.1 C60.4 91 73.7 80.8 76 74.2 C76.2 73.7 76.3 73.2 76.5 72.8 C77.2 70.9 77.6 69 77.4 67.2 C77.4 65.8 77.1 64.6 76.7 63.3 z" id="e2" fill="#E0E0E0" /><path d="M76 74.2 C73.7 80.8 60.4 91 50.2 91.1 C38.4 91.1 33 91.1 27.6 91.1 C16.4 91.1 9.7 87.7 3.1 77.1 C3.1 77 -0.2 70.9 1 65.9 C1.9 71 6.8 77.1 12 81.4 C16.7 85.3 27.9 87.3 39.4 87.6 C50.9 87.9 64.7 82.4 70.4 76.3 C73 73.5 76 65.7 76.3 61.9 C77.3 65.5 78.3 67.5 76 74.2 z" fill-opacity="0.1" id="f2" fill="#010101" /><path d="M76.7 63.3 C77.1 64.6 77.4 65.8 77.4 67.2 C77.6 69 77.2 70.9 76.5 72.8 C76.3 73.2 76.2 73.7 76 74.2 C73.7 80.8 60.4 91 50.2 91.1 L27.6 91.1 C16.4 91.1 9.7 87.7 3.1 77.1 C3.1 77.1 2.3 75.5 1.6 73.3 C0.9 71.1 0.4 68.4 1 65.9 C1 65.9 1 65.9 1 66 C1.9 56.9 2.7 54.8 9.9 49 C17.4 43 23 41.8 27.7 34.5 C29.2 32.1 31.2 29.7 32.3 22.2 C33 16.9 33.4 15.2 33.5 9.9 C33.6 4.7 34.3 0.6 37.7 0.7 C41.1 0.8 42 5.5 42.4 9.2 C42.8 12.9 43.3 16.2 43.9 20.7 C44.9 28.2 46 30.8 47.5 33.1 C52.2 40.3 58.4 42.2 66.1 47.7 C72.5 52.3 75.1 55.9 76.7 63.3 L76.7 63.3 z M74.7 66.3 C74.7 65 74.4 63.9 74 62.6 C72.5 55.7 70.1 52.3 64.2 48 C57 42.8 51.3 41.1 46.9 34.3 C45.5 32.1 44.5 29.7 43.6 22.7 C43 18.5 42.6 15.4 42.2 11.9 C41.8 8.4 40.9 1.8 37.7 1.7 C34.5 1.6 33.9 7.6 33.9 12.5 C33.8 17.5 33.4 19.1 32.8 24 C31.8 31 29.9 33.3 28.5 35.5 C24.1 42.3 18.9 43.5 12 49.1 C5.3 54.5 4.6 56.5 3.7 64.9 C3.1 67.2 3.6 69.8 4.3 71.9 C4.9 73.9 5.7 75.4 5.7 75.4 C11.8 85.3 18.1 88.5 28.5 88.5 L49.5 88.5 C59 88.4 71.3 78.8 73.5 72.7 C73.7 72.2 73.8 71.8 74 71.4 C74.5 69.8 74.9 68 74.7 66.3 z" fill-opacity="0.1" id="g2" fill="#010101" /></g></g><g transform="translate(169.1, 174.9) scale(1.2) translate(-169.1, -176.9) translate(108, 96.49997) translate(51, 68)" id="h2"><g id="i2"><path d="M19.3 10.7 C18.9 10.3 18.2 10.4 17.8 10.8 C16.9 11.8 15.3 13 13.7 13.1 C12.8 13.1 11.9 12.7 11.1 11.9 L11.1 1.5 C11.1 0.9 10.6 0.4 10 0.4 C9.4 0.4 8.9 0.9 8.9 1.5 L8.9 11.9 C8.1 12.7 7.3 13.1 6.3 13.1 C4.7 13.1 3.1 11.9 2.2 10.8 C1.8 10.4 1.2 10.3 0.7 10.7 C0.3 11.1 0.2 11.7 0.6 12.2 C1.8 13.6 4 15.2 6.3 15.2 C7.5 15.2 8.7 14.8 9.8 13.9 C9.9 13.9 9.9 13.9 10 13.9 C10.1 13.9 10.1 13.9 10.2 13.9 C11.2 14.7 12.4 15.2 13.7 15.2 C16 15.2 18.2 13.6 19.4 12.2 C19.9 11.7 19.8 11.1 19.3 10.7 z" id="j2" fill="#282421" /></g></g><g transform="translate(98.49999, 61.39996) translate(60, 89)" id="k2"><g id="l2"><path d="M3.1 13.1 C0.3 8.7 -5.5 -0.7 11.3 -0.7 C28.1 -0.7 20.8 10.4 18.4 13.4 C16 16.4 6 17.5 3.1 13.1 z" id="m2" /><path d="M17.1 4.6 C19.1 6.2 20.3 4.7 20.3 3.9 C20.3 3.1 18.6 1.7 16.9 1.7 C15.2 1.7 12.6 1.1 12.9 2.5 C13.2 3.9 15 3 17.1 4.6 z" id="n2" fill="#FFF" /></g></g><g transform="translate(150.4999, 135.4999) scale(1.2) translate(-150.4999, -135.4999) translate(-288.6, 57.09996) translate(43, 64)" id="o2"><path d="M402.1 16.9 C403.3 14.6 402.9 13.9 402.9 12.1 C402.9 10.3 402.7 8.4 400.1 7 C396.5 5.3 392.3 5.2 389.8 6.5 C386.4 8.3 383.6 10 384.3 11.5 C385.1 13.2 388 17.1 389.4 17.9 C392.1 19.5 396.1 20.2 398.2 19.7 C399.8 19.3 401.2 18.7 402.1 16.9 z" id="p2" fill="#CAC3C0" /><path d="M401.2 18.1 C402 17.4 401.6 14.8 401.2 13.6 C400.7 12.5 399.2 10.9 397 10.3 C394.1 9.6 393.6 9.7 391.1 10 C389.8 10.1 388.6 9.9 388.2 10.6 C387.6 11.3 387.5 12.5 387.9 13.6 C388.3 14.7 388.4 15.3 389.1 16.1 C389.8 17 390.7 17.7 391.3 18.1 C393.5 19.3 396.8 19.9 398.5 19.5 C399.7 19.2 400.4 18.8 401.2 18.1 z" id="q2" fill="#1F2123" /><path d="M396 16.2 C394.9 16.2 393.9 15.3 393.9 14.2 C393.8 13.1 394 12.5 395 12.7 C395.9 12.8 396.6 12.9 396.9 13.1 C397.8 13.5 397.8 13.2 397.9 14.1 C398 14.5 397.9 14.8 397.8 15 C397.5 15 397 14.7 396.3 14.4 C396.5 15.2 396.6 15.7 396.7 16.1 C396.3 16.3 396.4 16.2 396 16.2 z" id="r2" fill="#FFF" /></g><g transform="translate(187.9999, 135.4999) scale(1.2) translate(-187.9999, -135.4999) translate(-284.9, 57.09996) translate(82, 64)" id="s2"><path d="M384.3 16.9 C383.1 14.6 383.5 13.9 383.5 12.1 C383.5 10.3 383.7 8.4 386.3 7 C389 5.6 392.8 5.6 396.6 6.5 C400.4 7.4 402.8 10 402.1 11.5 C401.3 13.2 398.4 17.1 397 17.9 C394.3 19.5 390.3 20.2 388.2 19.7 C386.6 19.3 385.2 18.7 384.3 16.9 z" id="t2" fill="#CAC3C0" /><path d="M385.2 18.1 C384.4 17.4 384.8 14.8 385.2 13.6 C385.7 12.5 387.2 10.9 389.4 10.3 C392.3 9.6 392.8 9.7 395.3 10 C396.6 10.1 397.8 9.9 398.2 10.6 C398.8 11.3 398.9 12.5 398.5 13.6 C398.1 14.7 398 15.3 397.3 16.1 C396.6 17 395.7 17.7 395.1 18.1 C392.9 19.3 389.6 19.9 387.9 19.5 C386.7 19.2 386 18.8 385.2 18.1 z" id="u2" fill="#1F2123" /><path d="M390.4 16.2 C391.5 16.2 392.5 15.3 392.5 14.2 C392.6 13.1 392.4 12.5 391.4 12.7 C390.5 12.8 389.8 12.9 389.5 13.1 C388.6 13.5 388.6 13.2 388.5 14.1 C388.4 14.5 388.5 14.8 388.6 15 C388.9 15 389.4 14.7 390.1 14.4 C389.9 15.2 389.8 15.7 389.7 16.1 C390.1 16.3 390 16.2 390.4 16.2 z" id="v2" fill="#FFF" /></g></g></g></g><g id="w2"><g transform="matrix(1, 0, 0, 1, 1.525879E-05, -0.02002716)"><g transform="translate(115.2008, 77.54227) scale(1.067057, 1.089327)"><g transform="translate(45, 309) translate(-2218.8, -364.7)" id="x2"><g id="y2"><path d="M2264.9 81 C2261.4 78.3 2257.1 78.6 2254.1 81.8 C2252.6 83.5 2251.2 85.2 2249.6 87 C2248.9 87.8 2248.5 88.9 2247.8 87.6 C2247.1 86.4 2246.5 85.2 2246 83.9 C2243.9 79.4 2242.3 74.7 2240.5 70.2 C2238.8 66.3 2237.2 62.2 2234.1 59.2 C2230.8 55.9 2226.7 57.4 2222.7 57.7 C2219 57.9 2214.4 55.7 2211.3 58.3 C2208.1 60.9 2206.2 64.9 2204.7 68.6 C2202.7 73.2 2201.2 78 2199 82.6 C2198.2 84.5 2197.3 86.8 2195.9 88.1 C2194.2 86.2 2192.7 84.2 2191.1 82.3 C2188.3 79.1 2184.4 77.7 2180.5 80.1 C2173.8 84.1 2173.8 94.7 2179.7 99.4 C2184.4 103.1 2191.4 103.9 2197 102.5 C2197.5 102.4 2197.9 102.3 2198.5 102 C2199.2 101.8 2199.3 102 2200 102.5 C2201.3 103.6 2202.7 104.5 2204.1 105.4 C2207.3 107.4 2210.7 108.7 2214.4 109.5 C2221.7 111 2230 110.4 2236.8 107.3 C2239.5 106 2242 104.4 2244.2 102.6 C2244.7 102.2 2244.9 101.8 2245.5 102 C2246 102.2 2246.4 102.4 2246.9 102.5 C2248 102.7 2249.1 103 2250.2 103.1 C2255.6 103.6 2261.8 102.4 2265.8 98.5 C2270.5 94 2270.1 85.1 2264.9 81 C2261.8 78.6 2268.1 83.5 2264.9 81 z" id="z2" fill="#DBD8C8" /><path d="M2236.9 72.9 C2235.5 68.7 2233.4 63.4 2228.6 61.8 C2223.4 60.1 2217.9 63.1 2214.1 66.4 C2210.9 69.1 2208.2 72.3 2206 75.7 C2205.5 76.4 2201.8 81.2 2203.1 82.3 C2204.8 80.4 2206.5 78.5 2208.2 76.8 C2211 73.9 2214.2 69.8 2218.1 68.3 C2223.6 66.1 2228.5 69.1 2231.8 73.4 C2234.9 77.5 2238.2 83.4 2244.1 83.7 C2240.1 81.6 2238.3 77 2236.9 72.9 z" id="a3" fill="#302923" /><path d="M2210.3 77.3 C2208.1 80.2 2206.2 84.5 2201.9 84.7 C2203.6 86.1 2206.1 89.4 2208.4 87.1 C2209.9 85.4 2209.8 82.5 2210.5 80.4 C2211.4 77.8 2212.9 75.6 2214.6 73.6 C2212.9 74.3 2211.5 75.8 2210.3 77.3 z" id="b3" fill="#302923" /><path d="M2205.9 86.2 C2209.9 86.6 2213.6 84.4 2217.6 84.5 C2220.7 84.6 2224.8 87 2223.8 90.6" id="c3" fill="#302923" /><path d="M2235 83.2 C2231.9 79.3 2227.7 75.1 2222.4 74.7 C2220 74.5 2217.2 75.2 2215.8 77.3 C2215 78.6 2215.1 80.2 2214.5 81.5 C2218.3 78.3 2223.8 80.6 2227.4 82.9 C2231.5 85.6 2235.8 89.9 2241.2 89.1 C2238.7 87.7 2236.8 85.5 2235 83.2 z" id="d3" fill="#302923" /><path d="M2245.3 101.9 C2250.6 104.5 2258.7 103.4 2263.6 100.4 C2267.3 98 2269.1 94.3 2268.8 90 C2268.6 86.3 2266.1 83.5 2262.4 82.8 C2253.6 80.9 2252 95.1 2245.1 102.4 C2245.2 102 2245.3 102 2245.3 101.9 C2249.6 104 2245.3 102 2245.3 101.9 z" id="e3" fill="#A09C8D" /><path d="M2199.6 101.9 C2194.3 104.5 2186.2 103.4 2181.3 100.4 C2177.6 98 2175.8 94.3 2176.1 90 C2176.3 86.3 2178.8 83.5 2182.5 82.8 C2191.3 80.9 2192.9 95.1 2199.8 102.4 C2199.8 102 2199.7 102 2199.6 101.9 C2195.3 104 2199.7 102 2199.6 101.9 z" id="f3" fill="#A09C8D" /><path d="M2222.4 93.4 C2213.6 94.5 2204.7 94.2 2196.8 90.1 C2201.3 100.2 2211.5 106.3 2222.4 107 C2233.2 106.3 2243.5 100.2 2248 90.1 C2240.1 94.2 2231.4 94.4 2222.4 93.4 C2213.6 94.4 2231.4 94.4 2222.4 93.4 z" id="g3" fill="#A09C8D" /><path d="M2238.1 95 C2233.6 95.1 2229.1 96.1 2224.9 97.9 C2222.9 98.8 2220.9 99.9 2219 101.2 C2217.1 102.5 2215.5 104.1 2213.5 105.2 C2216.3 106.1 2220.1 104.7 2222.8 103.9 C2226.2 102.8 2229.4 101.5 2232.9 100.7 C2234.4 100.3 2236.1 100.1 2237.6 100 C2238.4 100 2239.1 100 2240 100.1 C2240.9 100.2 2241.5 99.4 2242.2 98.7 C2242.7 98.2 2243.1 97.6 2243.6 97.2 C2244.2 96.5 2243.2 96.1 2242.5 95.8 C2241.3 95.1 2239.6 95 2238.1 95 C2230.9 95.1 2240 95 2238.1 95 z" id="h3" fill="#302923" /><path d="M2203.9 97.2 C2202.8 97 2201.7 96.6 2200.6 96.3 C2201.4 97.2 2202.3 98.2 2203.2 99.1 C2203.8 99.7 2204.1 100.2 2205 100.2 C2205.7 100.2 2206.4 100.1 2207.2 100 C2209.9 99.5 2212.6 98.6 2214.9 96.9 C2211.4 98 2207.6 98 2203.9 97.2 C2202.9 96.9 2207.6 98 2203.9 97.2 z" id="i3" fill="#302923" /><path d="M2209.9 67.6 C2214.3 64.5 2218.5 61.4 2222.9 58.3 C2221.6 58.3 2220.2 58.1 2218.9 57.9 C2217.6 57.7 2216.1 59.3 2215.1 60.3 C2212.9 62.3 2211.1 64.7 2209.9 67.6 C2214.3 64.5 2211.6 63.4 2209.9 67.6 z" id="j3" fill="#302923" /><path d="M2246.8 102.3 C2252.9 99.5 2254.1 89.4 2261.4 88.7 C2258.2 91.2 2260 95.9 2258.6 99.1 C2257.5 102.3 2253.9 104.2 2250.7 103.6" id="k3" fill="#302923" /><path d="M2268.8 89.8 C2268.7 87.4 2267.7 85.7 2266.2 84.4 C2264.3 86.6 2262.9 89.2 2261.7 91.9 C2261 93.7 2259.5 97.3 2261.5 98.9 C2263.3 95.5 2265.8 92.4 2268.8 89.8 C2268.6 87.5 2265.8 92.4 2268.8 89.8 z" id="l3" fill="#302923" /><path d="M2249.2 96.3 C2253.2 92.1 2257.1 87.8 2261.1 83.6 C2259.7 83.6 2258.2 84 2256.9 84.7 C2255.4 85.4 2254.7 86.6 2253.7 88 C2252 90.6 2250.8 93.6 2249.2 96.3 C2253.2 92.1 2251.4 92.4 2249.2 96.3 z" id="m3" fill="#302923" /><path d="M2198.1 102.3 C2192 99.5 2190.8 89.4 2183.5 88.7 C2186.7 91.2 2184.9 95.9 2186.3 99.1 C2187.4 102.3 2191 104.2 2194.2 103.6" id="n3" fill="#302923" /><path d="M2176.3 89.8 C2176.4 87.4 2177.4 85.7 2178.9 84.4 C2180.8 86.6 2182.2 89.2 2183.4 91.9 C2184.1 93.7 2185.6 97.3 2183.6 98.9 C2181.8 95.5 2179.3 92.4 2176.3 89.8 C2176.5 87.5 2179.3 92.4 2176.3 89.8 z" id="o3" fill="#302923" /><path d="M2195.9 96.3 C2191.9 92.1 2188 87.8 2184 83.6 C2185.4 83.6 2186.9 84 2188.2 84.7 C2189.6 85.4 2190.3 86.4 2191 87.6 C2192.8 90.3 2194.3 93.5 2195.9 96.3 C2191.9 92.1 2193.7 92.4 2195.9 96.3 z" id="p3" fill="#302923" /><path d="M2229.3 57.5 C2233 57.5 2235.2 60.2 2237 63.2 C2239 66.5 2240.4 70 2241.7 73.6 C2243.2 77.5 2244.6 81.4 2246.4 85 C2246.8 85.8 2247.2 86.8 2247.7 87.6 C2247.9 88.1 2248.1 88.3 2248.4 88.5 C2249 88.9 2249.2 88 2249.6 87.7 C2251.1 85.8 2252.7 83.9 2254.2 82.2 C2259.5 76.3 2267.5 80.9 2268.7 87.7 C2269.4 91.8 2268.3 96.3 2265 99 C2262.1 101.5 2258.2 102.5 2254.4 102.9 C2252.4 103 2250.3 102.9 2248.3 102.5 C2247.5 102.4 2246.6 102.1 2245.8 101.8 C2245.2 101.6 2243.9 102.9 2243.3 103.3 C2240.4 105.5 2237.2 107.3 2233.6 108.5 C2225.8 111.1 2216.4 110.7 2208.8 107.6 C2205.4 106.2 2202.4 104.1 2199.6 101.7 C2196.1 103.4 2191.5 103.4 2187.7 102.5 C2183.9 101.8 2180.3 100 2178 97 C2175.6 93.9 2175.5 88.7 2177.1 85.3 C2179.3 79.9 2186.2 77.2 2190.7 81.8 C2191.9 83.1 2192.9 84.4 2194 85.8 C2194.7 86.6 2195.3 87.5 2196 88.2 C2196.8 89.1 2197.2 87.8 2197.7 87.1 C2199.4 83.9 2200.8 80.5 2202.1 77.2 C2204.3 71.4 2206.2 64.7 2210.5 60 C2211.2 59.2 2212.2 58.1 2213.3 57.8 C2215.1 57.2 2217.3 57.6 2219.1 57.8 C2220.6 58 2222.2 58.4 2223.7 58.2 C2225.5 57.9 2227.4 57.5 2229.3 57.5 z M2229.3 56.4 L2229.3 57.6 C2229.3 57.2 2229.3 56.7 2229.3 56.4 C2227.2 56.4 2225.1 57 2222.9 57.1 C2220.9 57.2 2218.9 56.6 2216.9 56.4 C2212.7 56.2 2210.1 58.2 2207.8 61.5 C2202.6 69.3 2200.8 78.8 2196.5 87 C2193.8 83.7 2191 79 2186.4 78.4 C2182.2 77.8 2178.1 80.6 2176.3 84.4 C2175.4 86.3 2175 88.4 2175 90.5 C2175 91.3 2175.6 96.9 2176.4 96.9 C2178.3 100 2181.4 102 2184.8 103.1 C2187.4 103.9 2190.2 104.3 2192.9 104.2 C2195 104.2 2197.3 104 2199.4 103.1 C2200.7 104.2 2202 105.2 2203.4 106 C2210.4 110.6 2218.8 112 2227.1 111.2 C2233.9 110.5 2240.1 107.7 2245.3 103.3 C2245.8 102.8 2246.8 103.4 2247.4 103.7 C2248.5 103.9 2249.6 104.1 2250.8 104.2 C2252.2 104.3 2253.6 104.3 2254.9 104.2 C2257.7 104 2260.6 103.3 2263 102 C2266.1 100.3 2268.4 97.9 2269.4 94.6 C2270.6 90.5 2270.1 86.2 2267.6 82.7 C2265.4 79.5 2261.4 77.6 2257.6 78.7 C2253.2 79.9 2251.5 84.2 2248.5 87.2 C2245.2 81.1 2243.3 74.5 2240.5 68.1 C2238.3 63.2 2235.3 56.4 2229.3 56.4 z" id="q3" fill="#9B998E" /></g><path d="M2244.7 81.6 C2238.9 84.5 2232 85.8 2225.6 86 C2221.4 86.1 2217.1 85.8 2213 85.2 C2208.6 84.6 2204.2 83.7 2200.4 81.4 C2200.3 81.6 2199.5 83.2 2199.6 83.2 C2200 83.4 2200.4 83.6 2200.8 83.8 C2202.7 84.7 2204.6 85.7 2206.3 86.6 C2210.9 89 2215.5 91.3 2220.2 93.3 C2221 93.7 2222.1 94.2 2223 94 C2224.7 93.4 2226.3 92.6 2228 91.8 C2232.7 89.4 2237.3 87 2242 84.6 C2243.2 84 2244.2 83.4 2245.4 82.7 C2245.2 82.3 2245 81.9 2244.7 81.6 z" id="r3" fill="#A09C8D" /><path d="M2245.1 82.4 C2240.9 84.9 2235.6 85.8 2230.7 86.4 C2226.5 86.9 2222.2 87.1 2218 86.8 C2213 86.4 2208 85.7 2203.3 84 C2202.2 83.6 2201.3 83.2 2200.4 82.6 C2199.6 82.1 2198.4 84.4 2198 85 C2197.1 86.4 2196.3 87.8 2195.6 89.4 C2203.4 94.2 2213.8 95.3 2222.7 95.3 C2231.7 95.3 2242 94.2 2249.8 89.4 C2249.7 89.4 2247.2 84.4 2245.1 82.4 C2239.1 86 2247.2 84.4 2245.1 82.4 z" id="s3" fill="#302923" /><g transform="translate(37, 26)" id="t3"><path d="M2184.7 66.1 L2182.8 64.3 C2183.4 64.2 2184.9 64.2 2185.4 63.8 C2185.9 63.4 2186.2 62 2186.5 61.4 C2186.7 62 2187.2 63.4 2187.7 63.8 C2188.2 64.2 2189.7 64 2190.3 64 C2189.8 64.5 2188.8 65.3 2188.5 65.9 C2188.2 66.5 2188.9 67.8 2189 68.5 C2188.4 68.3 2187.2 67.3 2186.6 67.3 C2186 67.3 2184.9 68.2 2184.4 68.6 L2184.7 66.1 z" id="u3" fill="#BCBCBB" /><path d="M2186.5 62.2 C2186.7 62.7 2187.1 63.9 2187.4 64.1 C2187.8 64.3 2189.1 64.3 2189.5 64.3 C2189.1 64.7 2188.1 65.4 2188 65.8 C2187.9 66.3 2188.4 67.5 2188.5 67.9 C2188 67.7 2187.1 67 2186.6 67 C2186.1 67 2185.2 67.8 2184.7 68.1 C2184.8 67.6 2185.2 66.4 2185.1 66 C2185 65.6 2183.9 64.9 2183.6 64.6 C2184.1 64.5 2185.4 64.6 2185.7 64.2 C2186 63.8 2186.3 62.7 2186.5 62.2 z M2186.5 60.8 C2186.3 61.5 2185.8 63 2185.2 63.5 C2184.6 63.9 2183 64 2182.3 64.1 C2182.8 64.6 2184.3 65.6 2184.4 66.2 C2184.6 66.9 2184.2 68.4 2184 69.3 C2184.7 68.9 2186 67.8 2186.7 67.8 C2187.3 67.8 2188.8 68.9 2189.4 69.2 C2189.3 68.5 2188.6 66.8 2188.8 66.3 C2189 65.8 2190.5 64.6 2190.9 64.2 C2190.2 64.1 2188.4 64.2 2187.8 63.8 C2187.3 63.4 2186.7 61.4 2186.5 60.8 z" id="v3" fill="#70706E" /><path d="M2183.4 64.4 L2186.5 65.6 L2186.5 62.2 C2186.1 62.7 2185.9 63.5 2185.4 63.9 C2185 64.2 2184 64.3 2183.4 64.4 z" id="w3" fill="#FFF" /></g><g transform="translate(48, 25)" id="x3"><path d="M2186.7 66.3 L2184.5 64.9 C2185.1 64.7 2186.6 64.5 2187 64.1 C2187.5 63.6 2187.5 62.1 2187.6 61.5 C2188.2 62.2 2188.7 62.9 2189.3 63.6 C2189.5 63.8 2191.5 63.5 2191.9 63.4 C2191.4 64.1 2191 64.8 2190.5 65.6 C2190.3 66 2191.3 67.6 2191.4 68 C2190.8 67.9 2189.5 67.2 2188.9 67.3 C2188.3 67.4 2187.4 68.6 2186.9 69 L2186.7 66.3 z" id="y3" fill="#BCBCBB" /><path d="M2187.6 62.1 C2188 62.5 2188.4 63.5 2188.9 63.8 C2189.4 64.1 2190.6 63.7 2191 63.7 C2190.8 64.2 2189.8 65 2189.8 65.5 C2189.8 66 2190.4 67 2190.6 67.5 C2189.9 67.3 2189.2 67.1 2188.5 66.9 C2188.1 66.8 2187.1 68.1 2186.8 68.3 C2186.8 67.8 2186.9 66.6 2186.7 66.2 C2186.5 65.7 2185.3 65.4 2184.8 65 C2185.3 64.9 2186.5 64.6 2186.8 64.3 C2187.3 63.9 2187.4 62.7 2187.6 62.1 z M2187.4 60.8 C2187.3 61.5 2187.2 63.3 2186.7 63.7 C2186.2 64.2 2184.5 64.5 2183.8 64.8 C2184.4 65.2 2186 65.7 2186.4 66.3 C2186.8 66.9 2186.5 68.7 2186.5 69.4 C2187.1 68.9 2188.3 67.6 2188.9 67.5 C2189.6 67.4 2191.1 68.1 2191.8 68.3 C2191.4 67.6 2190.6 66.2 2190.6 65.5 C2190.6 64.9 2192 63.5 2192.4 63 C2191.7 63.1 2189.9 63.5 2189.3 63.2 C2188.6 63 2187.8 61.4 2187.4 60.8 z" id="z3" fill="#70706E" /><path d="M2185.2 65 L2188.5 65.6 L2187.7 62.2 C2187.6 62.7 2187.6 64 2187.2 64.3 C2186.8 64.6 2185.6 64.8 2185.2 65 z" id="a4" fill="#FFF" /></g><g transform="translate(25, 25)" id="b4"><path d="M2183.1 67.3 L2180.6 68.1 C2180.8 67.5 2181.5 66.2 2181.4 65.6 C2181.3 65 2180.3 64.1 2180 63.5 C2180.6 63.5 2182 63.9 2182.6 63.6 C2183.2 63.4 2183.8 61.9 2184.1 61.5 C2184.2 62.1 2184.3 63.5 2184.8 64 C2185.3 64.5 2186.7 64.6 2187.3 64.8 C2186.7 65.2 2185.5 65.7 2185.2 66.3 C2184.8 66.9 2185.1 68.2 2185.1 68.9 L2183.1 67.3 z" id="c4" fill="#BCBCBB" /><path d="M2184 62.3 C2184.2 63 2184.4 63.7 2184.6 64.4 C2184.7 64.8 2186.3 65 2186.6 65.1 C2186.1 65.3 2185.1 65.8 2184.8 66.3 C2184.5 66.8 2184.8 68 2184.8 68.4 C2184.4 68 2183.6 67.2 2183.1 67.1 C2182.6 67 2181.6 67.7 2181.1 67.8 C2181.2 67.3 2181.9 66.3 2181.8 65.8 C2181.7 65.3 2180.9 64.5 2180.5 64 C2181 64 2182.2 64.4 2182.6 64.1 C2183.2 63.9 2183.6 62.7 2184 62.3 z M2184.2 60.8 C2183.8 61.4 2183 63 2182.4 63.3 C2181.8 63.5 2180 63.2 2179.3 63.2 C2179.8 63.8 2181 65 2181.1 65.7 C2181.2 66.4 2180.4 67.9 2180.2 68.6 C2180.9 68.4 2182.6 67.5 2183.1 67.7 C2183.7 67.8 2184.9 69.2 2185.5 69.6 C2185.5 68.9 2185.1 67.1 2185.5 66.5 C2185.9 65.9 2187.4 65.2 2188 64.7 C2187.3 64.5 2185.5 64.2 2185.1 63.8 C2184.6 63.3 2184.5 61.5 2184.2 60.8 z" id="d4" fill="#70706E" /><path d="M2180.6 63.9 L2183.4 65.7 L2184 62.3 C2183.6 62.8 2183.2 63.7 2182.7 64 C2182.2 64.1 2181.2 63.9 2180.6 63.9 z" id="e4" fill="#FFF" /></g><path d="M2250.6 86.4 C2249.4 87.8 2248.8 89.1 2247.5 91.4 C2248.3 91.9 2250.6 91.2 2250.6 90.1 C2250.6 88.9 2250.6 87.6 2250.6 86.4 z" id="f4" fill="#DBD8C8" /><path d="M2194.5 86.7 C2195.9 88.4 2196.5 89.8 2197.6 91.7 C2196.7 92.4 2195.5 92.3 2194.5 91.7 C2194.3 91.6 2194.1 90.3 2194 89.9 C2193.8 88.7 2194.3 87.8 2194.5 86.7 z" id="g4" fill="#DBD8C8" /></g></g></g></g><g transform="translate(39.29518, 265.301)" id="h4"><ellipse cx="32.5" cy="17.5" rx="37.3" ry="13.2" opacity="0.15" id="i4" /><use xlink:href="#e" x="1.51" y="0" /><use xlink:href="#e" x="0" y="-10.7" /></g><g transform="translate(235.8952, 266.9009)" id="j4"><ellipse cx="32.5" cy="17.5" rx="37.3" ry="13.2" fill-opacity="0.15" id="k4" /><use xlink:href="#e" x="0.08" y="0" /><use xlink:href="#e" x="-1.38" y="-10.7" /><use xlink:href="#e" x="1.69" y="-21.4" /></g><g transform="translate(201.5952, 286.701)" id="l4"><ellipse cx="32.5" cy="17.5" rx="37.3" ry="13.2" fill-opacity="0.15" id="m4" /><use xlink:href="#e" x="0.12" y="0" /></g><g transform="translate(70.39518, 285.5009)" id="n4"><ellipse cx="32.5" cy="17.5" rx="37.3" ry="13.2" opacity="0.15" id="o4" /><use xlink:href="#e" x="1.63" y="0" /></g><g transform="translate(135.2952, 293.601)" id="p4"><ellipse cx="32.5" cy="17.5" rx="37.3" ry="13.2" fill-opacity="0.15" id="q4" /><use xlink:href="#e" x="0.71" y="0" /></g></g><defs><g transform="translate(17.09519, 0.800995) translate(-135.2952, -293.601)" id="e" fill="#000"><path d="M118.2 302.7 C118.4 307.4 132.5 311.2 149.8 311.2 C167.1 311.2 181.2 307.4 181.4 302.7 C181.4 307.5 181.4 310.1 181.4 310.5 C181.4 315.3 167.3 319.1 149.8 319.1 C132.3 319.1 118.2 315.2 118.2 310.5 L118.2 302.7 L118.2 302.7 z" fill-opacity="0.4528" id="r4" fill="#593001" /><path d="M118.7 301.7 C118.9 306.4 133 310.2 150.3 310.2 C167.6 310.2 181.7 306.4 181.9 301.7 C181.9 306.5 181.9 309.1 181.9 309.5 C181.9 314.3 167.8 318.1 150.3 318.1 C132.8 318.1 118.7 314.2 118.7 309.5 L118.7 301.7 L118.7 301.7 z" id="s4" fill="#DA8113" /><linearGradient x1="46.0545" y1="-118.6926" x2="45.4656" y2="-118.6926" gradientUnits="userSpaceOnUse" gradientTransform="matrix(117.135, 0, 0, 28.4634, -5208.417, 3687.795)" id="t4"><stop offset="0%" stop-color="#D9952A" stop-opacity="1" /><stop offset="6.438854%" stop-color="#CA7519" stop-opacity="1" /><stop offset="30.54%" stop-color="#E3AD3A" stop-opacity="1" /><stop offset="51.05%" stop-color="#FFEC91" stop-opacity="1" /><stop offset="68.8%" stop-color="#E9BD44" stop-opacity="1" /><stop offset="86.24%" stop-color="#FFED6C" stop-opacity="1" /><stop offset="93.87%" stop-color="#F2D353" stop-opacity="1" /><stop offset="100%" stop-color="#F2B947" stop-opacity="1" /></linearGradient><path d="M118.2 301.6 C118.4 306.1 132.7 309.7 150.3 309.7 C167.9 309.7 182.2 306.1 182.4 301.6 C182.4 306.2 182.4 308.7 182.4 309 C182.4 313.5 168 317.2 150.3 317.2 C132.6 317.2 118.2 313.5 118.2 309 L118.2 301.6 L118.2 301.6 z" id="u4" style="fill:url(#t4)" /><linearGradient x1="45.4914" y1="-117.9547" x2="45.9407" y2="-117.5895" gradientUnits="userSpaceOnUse" gradientTransform="matrix(115.425, 0, 0, 29.925, -5125.077, 3826.124)" id="v4"><stop offset="0%" stop-color="#F4E072" stop-opacity="1" /><stop offset="100%" stop-color="#DB9427" stop-opacity="1" /></linearGradient><ellipse cx="150.3" cy="301.5" rx="31.6" ry="8.2" id="w4" style="fill:url(#v4)" /><linearGradient x1="45.4656" y1="-126.0065" x2="46.0545" y2="-126.0065" gradientUnits="userSpaceOnUse" gradientTransform="matrix(117.135, 0, 0, 18.6219, -5208.417, 2651.479)" id="x4"><stop offset="0%" stop-color="#D9952A" stop-opacity="1" /><stop offset="6.438854%" stop-color="#CA7519" stop-opacity="1" /><stop offset="30.54%" stop-color="#E3AD3A" stop-opacity="1" /><stop offset="51.05%" stop-color="#FFEC91" stop-opacity="1" /><stop offset="68.8%" stop-color="#E9BD44" stop-opacity="1" /><stop offset="86.24%" stop-color="#FFED6C" stop-opacity="1" /><stop offset="93.87%" stop-color="#F2D353" stop-opacity="1" /><stop offset="100%" stop-color="#F2B947" stop-opacity="1" /></linearGradient><path d="M119.2 299.9 C119 300.2 118.9 300.6 118.9 301 C118.9 305.5 132.9 309.2 150.3 309.2 C167.7 309.2 181.7 305.5 181.7 301 C181.7 300.6 181.6 300.3 181.4 299.9 C182 300.5 182.4 301.2 182.4 301.9 C182.4 306.4 168 310.1 150.3 310.1 C132.6 310.1 118.2 306.4 118.2 301.9 C118.2 301.3 118.6 300.6 119.2 299.9 z" id="y4" style="fill:url(#x4)" /><linearGradient x1="45.196" y1="-121.5895" x2="45.3746" y2="-120.6758" gradientUnits="userSpaceOnUse" gradientTransform="matrix(101.745, 0, 0, 23.94, -4458.332, 3199.41)" id="z4"><stop offset="0%" stop-color="#F8DD61" stop-opacity="1" /><stop offset="100%" stop-color="#EAA330" stop-opacity="1" /></linearGradient><ellipse cx="150.3" cy="300.8" rx="27.8" ry="6.6" id="a5" style="fill:url(#z4)" /><linearGradient x1="45.5694" y1="-134.267" x2="45.0221" y2="-134.267" gradientUnits="userSpaceOnUse" gradientTransform="matrix(101.745, 0, 0, 13.2525, -4458.332, 2077.223)" id="b5"><stop offset="0%" stop-color="#F4CA2F" stop-opacity="1" /><stop offset="51.38%" stop-color="#BF7737" stop-opacity="1" /><stop offset="100%" stop-color="#E4A929" stop-opacity="1" /></linearGradient><path d="M122.6 301.5 C122.5 301.3 122.4 301 122.4 300.8 C122.4 297.2 134.9 294.2 150.2 294.2 C165.5 294.2 178 297.1 178 300.8 C178 301 177.9 301.3 177.8 301.5 C176.3 298.2 164.5 295.6 150.1 295.6 C135.7 295.6 124.1 298.2 122.6 301.5 z" id="c5" style="fill:url(#b5)" /></g></defs><desc>E8BKNEOA74E,7yBHdVUxiOlELlSIOg3/eRLX/5R2qkyvaclSQJlN1tHnKvi9oIx+1nMcz5y3Pj+mNE4Il71eihd56CBaDG9xTutaoGAIea08xQ7nmNmTokCsuGd2iKAfP8gNT7VDIAJ6SouB+q7P13rS+gqUTc2EBXDtKSsvuoN5hUHA/30qYkRk1ksLIjm+EiXd+E5DFWsnnoxoeY0IEEQZoTi1HiidIDNq4VQU7cG+xoLdS0iYLnDdR34xPBDYcEYYnBQNME/K</desc></svg>