<?xml version="1.0" encoding="utf-8"?><!DOCTYPE svg PUBLIC "-//W3C//DTD SVG 1.1//EN" "http://www.w3.org/Graphics/SVG/1.1/DTD/svg11.dtd"><svg x="0" y="0" width="340px" height="340px" viewBox="0, 0, 340, 340" preserveAspectRatio="xMidYMid" font-size="0" id="a" enable-background="new 0 0 340 340" xmlns="http://www.w3.org/2000/svg" xmlns:xlink="http://www.w3.org/1999/xlink" xmlns:xml="http://www.w3.org/XML/1998/namespace" version="1.1"><g id="b" fill="#000"><g id="c"><g transform="translate(0, 0) translate(0, 224)" id="d"><ellipse cx="168.6" cy="53.1" rx="57.8" ry="12.8" fill-opacity="0.25" id="e" /></g><g id="f"><g transform="translate(105.9, 101.1) translate(20.5, 139.5) scale(-1, 1) translate(-20.5, -139.5) translate(0, 122)" id="g"><g id="h"><path d="M28.3 1.5 C38.6 0.6 40.4 9.4 40.6 11.6 C39.9 11.2 39.2 10.8 38.5 10.4 C39.3 12.6 39.7 15.1 39.7 17.8 C38.6 16.4 36.7 14.8 34.9 13.9 C35.7 15.2 36.5 16.5 37.4 17 C35.4 17.6 34.6 18.2 31 17.7 C28.6 17.4 27.5 17.8 24.4 18.3 C23.8 18.4 19.5 10.8 21.8 5.7 C23.2 3.5 27.3 1.5 28.3 1.5 z" id="i" fill="#AA602E" /><path d="M6 15 C9.4 15.8 13.3 15.1 15.9 12.7 C16.5 12.2 17 11.5 17.6 10.9 C19.7 7.6 21.8 4.2 23.8 0.9 C23.8 1.7 23.7 2.5 23.6 3.2 C25 2.2 26.5 1.5 28.3 1.3 C25.8 4 23.8 7.1 22.4 10.5 C22.8 10.5 23.3 10.4 23.8 10.3 C24.8 10 26.6 9.5 27.4 8.4 C27.4 10.5 26.9 11.4 26.2 12.1 C28.3 11.9 30.4 12.2 32.4 13 C29.6 13.4 27.8 16.2 25.4 17.6 C25.5 17.6 28.8 17 30.9 17.9 C31 18.1 31.1 18.4 31.2 18.6 C32.2 21 32.3 23.7 31.5 26.1 C30.7 24.4 29.5 22.8 28.1 21.5 C28.6 25.5 27.5 29.7 25.6 32.8 C25.4 29.1 25.6 25.3 21.5 23.8 C23.2 26.6 21.3 31.3 20.7 34.1 C20.5 31.6 20.2 29.1 19.1 26.8 C16.2 20.4 14.9 21 9.6 21.6 C6.3 21.9 1.1 21 1 18.4 C0.9 15.8 4.2 14.6 6 15 z" id="j" fill="#32363A" /><path d="M30 17.6 C30.3 17.7 30.6 17.8 30.9 17.9 C31 18.1 31.1 18.4 31.2 18.6 C32.2 21 32.3 23.7 31.5 26.1 C30.7 24.4 29.5 22.8 28.1 21.5 C28.6 25.5 27.5 29.7 25.6 32.8 C25.4 29.1 25.6 25.3 21.5 23.8 C23.2 26.6 21.3 31.3 20.7 34.1 C20.5 31.6 20.2 29.1 19.1 26.8 C16.2 20.4 14.9 21 9.6 21.6 C6.3 21.9 1.1 21 1 18.4 C0.9 15.8 4.2 14.6 6 15 C9.4 15.8 13.3 15.1 15.9 12.7 C16.5 12.2 17 11.5 17.6 10.9 C19.7 7.6 21.8 4.2 23.8 0.9 C23.8 1.7 23.7 2.5 23.6 3.2 C25 2.2 26.5 1.5 28.3 1.3 C28.2 1.4 28.2 1.4 28.1 1.5 C28.2 1.5 28.2 1.5 28.3 1.5 C38.6 0.6 40.4 9.4 40.6 11.6 L38.5 10.4 C39.3 12.6 39.7 15.1 39.7 17.8 C38.6 16.4 36.7 14.8 34.9 13.9 C35.7 15.2 36.5 16.5 37.4 17 C35.4 17.6 34.6 18.2 31 17.7 C30.6 17.7 30.3 17.6 30 17.6 z M29.8 16.1 C29.5 16 33.3 16.9 35.1 16.4 C34.3 15.9 34.1 13.3 33.3 12.1 C35 12.9 37.9 14.3 38.9 15.6 C38.9 13.2 38.2 10.6 37.5 8.7 L39.8 10 C39.7 8.1 37 1.6 27.7 2.4 C27.6 2.4 28.5 2 28.4 2 C28.5 1.9 28.5 1.9 28.6 1.8 C27 2 24.4 4.3 23.2 5.2 C23.2 4.6 23.2 3.4 23.2 2.7 C21.3 5.6 20.8 7.4 18.9 10.3 C18.4 10.9 17.9 11.5 17.4 11.9 C15 14.1 11 16.9 7.9 16.2 C6.2 15.8 2.7 15.8 2.8 18.1 C2.9 20.4 8.7 20.1 11.6 19.8 C16.5 19.3 16.6 18.2 19.2 23.9 C20.2 25.9 20.7 26.4 20.8 28.6 C21.4 26.1 21.2 24.2 19.7 21.7 C23.4 23 25.9 24.9 26.1 28.2 C27.8 25.5 26.9 22.7 26.5 19.2 C27.8 20.3 30.3 21.7 31.1 23.2 C31.8 21.1 30 19.5 29.1 17.3 C29 17.2 29.8 16.3 29.8 16.1 z" opacity="0.15" id="k" /></g></g><g transform="translate(133.18, 276.4) scale(0.758209) translate(-129.8, -276.4) translate(98.7, 77.49997) translate(20, 136)" id="l"><path d="M50.8 23.7 C50.8 21.1 45 17.3 43.1 14.9 C40.9 12.1 42.4 10.8 38.7 8.5 C29 2.5 15.7 -0.9 9.6 1.7 C8.4 2.3 7.1 3.1 6 4.1 C3.5 6.3 1.1 11.7 0.7 14.8 C0.5 16.3 3.5 12 3.5 13.6 C3.6 15.4 1.8 22.9 2.2 24.5 C2.4 25.7 3.2 23.4 3.5 24.5 C3.6 24.7 4.3 23.4 4.4 23.7 C4.8 25.4 4.3 27.8 4.7 30.7 C5.1 33.6 5.7 35.6 6 36 C6.4 36.6 6.3 34.6 7.6 34.5 C7.8 34.8 7.5 35.5 7.6 36.5 C7.9 38.7 8.4 41.2 8.8 41.9 C9.2 42.6 12.2 48.4 12.6 49.1 C13.3 50.4 13.3 45.9 14.1 47.3 C14.8 48.6 14.1 50 14.8 51.5 C10.6 53 6.5 53.6 4.7 55.8 C3.1 57.9 3.2 60.6 3.2 62.2 C3.2 63.9 3.3 63.2 4.4 64.1 C4.6 64.2 4.3 64.1 5.5 64.1 C6.1 64.1 5.7 65 6.6 65 C7.9 65 6.9 65.7 8.6 65.6 C9.4 65.6 14 65.6 14.9 65.6 C25 65.1 40.5 63.5 41.4 61.8 C43.3 56.8 37.8 55 43.4 46.5 C44.6 44.6 44.8 37.3 46.2 39.7 C47.6 42.1 46.3 35.3 47.3 33.8 C48.2 32.6 50.6 34 51 32.1 C51.2 30.7 50.8 25.4 50.8 23.7 z" id="m" fill="#AA602E" /><path d="M50.8 23.7 C50.8 25.4 51.2 30.7 51 32.1 C50.6 34 48.2 32.6 47.3 33.8 C46.3 35.3 47.6 42.1 46.2 39.7 C44.8 37.3 44.6 44.6 43.4 46.5 C37.8 55 43.3 56.8 41.4 61.8 C40.5 63.5 25 65.1 14.9 65.6 C14 65.6 9.4 65.6 8.6 65.6 C6.9 65.7 7.9 65 6.6 65 C5.7 65 6.1 64.1 5.5 64.1 C4.3 64.1 4.6 64.2 4.4 64.1 C3.3 63.2 3.2 63.9 3.2 62.2 C3.2 60.6 3.1 57.9 4.7 55.8 C6.5 53.6 10.6 53 14.8 51.5 C14.1 50 14.8 48.6 14.1 47.3 C13.3 45.9 13.3 50.4 12.6 49.1 C12.2 48.4 9.2 42.6 8.8 41.9 C8.4 41.2 7.9 38.7 7.6 36.5 C7.5 35.5 7.8 34.8 7.6 34.5 C6.3 34.6 6.4 36.6 6 36 C5.7 35.6 5.1 33.6 4.7 30.7 C4.3 27.8 4.8 25.4 4.4 23.7 C4.3 23.4 3.6 24.7 3.5 24.5 C3.2 23.4 2.4 25.7 2.2 24.5 C1.8 22.9 3.6 15.4 3.5 13.6 C3.5 12 0.5 16.3 0.7 14.8 C1.1 11.7 3.5 6.3 6 4.1 C7.1 3.1 8.4 2.3 9.6 1.7 C15.7 -0.9 29 2.5 38.7 8.5 C42.4 10.8 40.9 12.1 43.1 14.9 C45 17.3 50.8 21.1 50.8 23.7 z M49.2 23.3 C49.2 20.9 43.8 17.3 42 15.1 C39.9 12.5 41.3 11.3 37.9 9.1 C28.8 3.5 20.3 1.2 13.6 1.7 C12.2 1.7 8.3 2.7 7.3 3.6 C5 5.7 2.3 9.4 2 12.3 C1.8 13.7 4.7 10.5 4.7 11.9 C4.8 13.6 2.4 20.8 2.7 22.2 C2.9 23.3 4.7 21 4.9 22 C5 22.2 5.3 25.7 5.6 28.4 C5.9 31.1 6 33.3 6.3 33.7 C6.7 34.3 7.5 31.2 8.7 31.1 C8.9 31.4 8.6 34.3 8.7 35.2 C9 37.3 9.4 39.6 9.8 40.3 C10.2 41 12.2 45.4 12.5 46.1 C13.2 47.3 13.5 42.6 14.2 43.9 C14.9 45.1 16 51.2 16.6 52.7 C12.7 54.1 8.3 54.2 6.7 56.2 C5.2 58.2 4.5 57.8 4.5 59.3 C4.5 60.9 4.6 60.2 5.6 61.1 C5.8 61.2 5.5 61.1 6.6 61.1 C7.2 61.1 6.8 61.9 7.6 61.9 C8.8 61.9 7.9 62.6 9.5 62.5 C10.2 62.5 14.6 62.5 15.4 62.5 C24.8 62 39.3 60.5 40.2 58.9 C42 54.2 36.8 52.5 42.1 44.6 C43.2 42.8 43.4 36 44.7 38.2 C46 40.4 44.8 34.1 45.7 32.7 C46.5 31.6 48.8 32.9 49.2 31.1 C49.6 29.9 49.2 24.9 49.2 23.3 z" opacity="0.15" id="n" /></g><g transform="translate(203.82, 276.4) scale(0.758209) translate(-207.2, -276.4) translate(84.59999, 77.49997) translate(107.5, 169) scale(-1, 1) translate(-107.5, -169) translate(82, 136)" id="o"><path d="M50.2 23.7 C50.2 21.1 44.4 17.3 42.5 14.9 C40.3 12.1 41.8 10.8 38.1 8.5 C28.3 2.5 15 -0.8 8.9 1.8 C7.7 2.4 6.4 3.2 5.3 4.2 C3.9 5.4 1 8.7 0.3 10.3 C-0.3 11.6 2.9 9.8 2.7 11.2 C2.6 11.8 0.5 13.5 1.1 19.9 C1.4 23.1 2.5 26.1 2.7 26.7 C2.8 26.9 3.5 23.4 3.6 23.7 C4 25.4 3.5 30.2 3.9 31.3 C3.9 33.3 4.6 35.1 5.7 38.3 C6.1 38.9 8.2 36 9.5 36 C9.7 36.4 9.1 37.3 8.9 38.3 C8.7 39.5 8.9 41 8.9 42.4 C8.9 44.4 11.4 48.5 11.8 49.1 C12.5 50.4 12.5 45.9 13.3 47.3 C14 48.6 13.3 50 14 51.5 C9.8 53 5.7 53.6 3.9 55.8 C2.3 57.9 2.4 60.6 2.4 62.2 C2.4 63.9 2.5 63.2 3.6 64.1 C3.8 64.2 3.5 64.1 4.7 64.1 C5.3 64.1 4.9 65 5.8 65 C7.1 65 6.1 65.7 7.8 65.6 C8.6 65.6 13.2 65.6 14.1 65.6 C24.2 65.1 39.7 63.5 40.6 61.8 C42.5 56.8 37 55 42.6 46.5 C43.8 44.6 44 37.3 45.4 39.7 C46.8 42.1 45.5 35.3 46.5 33.8 C47.4 32.6 49.8 34 50.2 32.1 C50.5 30.7 50.2 25.4 50.2 23.7 z" id="p" fill="#AA602E" /><path d="M50.2 23.7 C50.2 25.4 50.5 30.7 50.2 32.1 C49.8 34 47.4 32.6 46.5 33.8 C45.5 35.3 46.8 42.1 45.4 39.7 C44 37.3 43.8 44.6 42.6 46.5 C37 55 42.5 56.8 40.6 61.8 C39.7 63.5 24.2 65.1 14.1 65.6 C13.2 65.6 8.6 65.6 7.8 65.6 C6.1 65.7 7.1 65 5.8 65 C4.9 65 5.3 64.1 4.7 64.1 C3.5 64.1 3.8 64.2 3.6 64.1 C2.5 63.2 2.4 63.9 2.4 62.2 C2.4 60.6 2.3 57.9 3.9 55.8 C5.7 53.6 9.8 53 14 51.5 C13.3 50 14 48.6 13.3 47.3 C12.5 45.9 12.5 50.4 11.8 49.1 C11.4 48.5 8.9 44.4 8.9 42.4 C8.9 41 8.7 39.5 8.9 38.3 C9.1 37.3 9.7 36.4 9.5 36 C8.2 36 6.1 38.9 5.7 38.3 C4.6 35.1 3.9 33.3 3.9 31.3 C3.5 30.2 4 25.4 3.6 23.7 C3.5 23.4 2.8 26.9 2.7 26.7 C2.5 26.1 1.4 23.1 1.1 19.9 C0.5 13.5 2.6 11.8 2.7 11.2 C2.9 9.8 -0.3 11.6 0.3 10.3 C1 8.7 3.9 5.4 5.3 4.2 C6.4 3.2 7.7 2.4 8.9 1.8 C15 -0.8 28.3 2.5 38.1 8.5 C41.8 10.8 40.3 12.1 42.5 14.9 C44.4 17.3 50.2 21.1 50.2 23.7 z M48.6 23.3 C48.6 20.9 43.2 17.3 41.4 15.1 C39.3 12.5 40.7 11.3 37.3 9.1 C28.1 3.5 16.3 -0.4 10.5 2.1 C9.4 2.6 7.8 3.3 6.8 4.3 C5.5 5.4 2.3 7.8 1.7 9.3 C1.1 10.5 4.4 8 4.2 9.3 C4.1 9.9 1.3 11.3 1.8 17.3 C2.1 20.3 2.3 23.6 2.5 24.1 C2.6 24.3 4.9 21 4.9 21.3 C5.3 22.9 4.5 29.9 4.9 31 C4.9 32.9 5.5 32.8 6.6 35.8 C6.9 36.3 8.3 34.2 9.6 33.8 C9.8 33.7 10.2 36.1 10 37 C9.8 38.1 10 39.5 10 40.8 C10 42.7 11.6 45.8 12 46.3 C12.7 47.5 13.4 44.1 14.2 45.4 C14.9 46.6 15.2 51.3 15.9 52.7 C12 54.1 7.6 54 5.9 56.1 C4.4 58.1 4 57.9 4 59.4 C4 61 4.1 60.3 5.1 61.2 C5.3 61.3 5 61.2 6.1 61.2 C6.7 61.2 6.3 62 7.1 62 C8.3 62 7.4 62.7 9 62.6 C9.7 62.6 14.1 62.6 14.9 62.6 C24.4 62.1 38.9 60.6 39.7 59 C41.5 54.3 36.3 52.6 41.6 44.7 C42.7 42.9 42.9 36.1 44.2 38.3 C45.5 40.5 44.3 34.2 45.2 32.8 C46 31.7 48.3 33 48.7 31.2 C48.9 29.9 48.6 24.9 48.6 23.3 z" opacity="0.15" id="q" /></g><g transform="translate(107.7, 108.5) translate(22, 32)" id="r"><path d="M61.9 68.1 C53.3 52.7 58.4 25 58.2 11.6 C58 -1.6 44.3 0.3 39.1 0.3 C33.9 0.3 20.2 -1.7 20 11.6 C19.8 25 24.9 52.7 16.3 68.1 C7.8 83.3 3.9 87 9.4 105.4 C21.2 129.9 14.9 138.1 39.1 138.1 C63.3 138.1 57 129.9 68.8 105.4 C74.3 87 70.4 83.3 61.9 68.1 z" id="s" fill="#D07331" /><path d="M61.9 68.1 C70.4 83.3 74.3 87 68.8 105.4 C57 129.9 63.3 138.1 39.1 138.1 C14.9 138.1 21.2 129.9 9.4 105.4 C3.9 87 7.8 83.3 16.3 68.1 C24.9 52.7 19.8 25 20 11.6 C20.2 -1.7 33.9 0.3 39.1 0.3 C44.3 0.3 58 -1.6 58.2 11.6 C58.4 25 53.3 52.7 61.9 68.1 z M59.5 65.9 C53 52.8 56.9 23.9 56.7 10.7 C56.5 -2.2 44.1 2.9 39 2.9 C33.9 2.9 21.9 -1.9 21.7 11.1 C21.5 24.2 26.7 51.8 18.3 66.9 C10 81.9 6.1 85.5 11.5 103.5 C23.1 127.5 15.4 134.7 39.1 134.7 C62.8 134.7 55.7 126.6 67.3 102.6 C72.6 84.6 65.9 79.1 59.5 65.9 z" opacity="0.15" id="t" /></g><g fill-rule="evenOdd" transform="translate(137.3076, 185.6) scale(0.7883672, 0.7864584) translate(-128.8, -174.3) translate(102, 88.09997) translate(67, 148) scale(-1, 1) translate(-67, -148) translate(27, 86)" id="u"><g id="v"><path d="M4.2 48.6 C1.9 35.9 3.3 31.3 7.6 21.8 C17.6 33.1 28.5 36.5 40.5 38.4 C50 37 61.7 33.9 72.4 21.8 C76.7 31.3 78.1 35.9 75.8 48.6 C71.9 70.1 71.8 67 68.8 80.9 C68.1 84 66.7 88.9 65.5 94.1 C64.1 100.2 51.8 95.1 52.8 79.4 C53.1 74.8 53.2 71 52.9 69 C52.1 62.5 47.9 60.6 39.8 56.8 C31.8 60.6 27.6 62.5 26.7 69 C26.4 71 26.5 74.8 26.8 79.4 C27.8 95.1 15.5 100.2 14.1 94.1 C12.9 88.9 11.5 84 10.8 80.9 C8.2 67.1 8 70.1 4.2 48.6 z" id="w" fill="#FFF" /><path d="M16.1 111.4 C16.7 107.8 16.1 103.2 15.3 98.5 C15 97 14.7 95.6 14.4 94.1 C14.4 94 14.4 94 14.4 93.9 C14.4 91.2 15 88.4 16 85.9 C16.2 85.5 16.7 85.3 17.1 85.5 C17.8 85.8 19.2 86.6 19.9 85.7 C20.7 84.8 21.6 79.4 22.2 76.1 C22.3 75.5 22.9 75.3 23.4 75.6 C24.3 76.2 26.4 76.8 26.9 78.2 C28.5 86.7 33.3 93.3 32.9 101.2 C32 100.2 31.4 99.1 30.4 98.2 C31.4 101.1 31.9 104.3 33 107.2 C31.8 107.2 30.3 106.3 29.3 104.3 C29.3 104.6 29.4 104.9 29.4 105.3 C30.5 108.9 31.7 111.2 31.1 115.1 C30.9 114.9 30.7 114.8 30.5 114.6 C30.9 118.6 31.2 121.2 31.1 121.4 C29.4 124.7 12.6 123.2 10.6 121.5 C10.9 117.7 11.2 114.5 16.1 111.4 z" id="x" fill="#FDA75C" /><path d="M50.6 104.4 C49.6 106.3 48.1 107.3 46.9 107.3 C48 104.5 48.5 101.2 49.5 98.3 C48.5 99.2 47.9 100.3 47 101.3 C46.6 93.4 51.4 86.8 53 78.4 C53.5 76.9 55.6 76.3 56.5 75.7 C57 75.4 57.6 75.7 57.7 76.2 C58.4 79.5 59.3 84.9 60 85.8 C60.7 86.7 62.2 85.9 62.8 85.6 C63.2 85.4 63.7 85.6 63.9 86 C64.9 88.6 65.4 91.3 65.5 94 C65.5 94.1 65.5 94.1 65.5 94.2 C65.2 95.7 64.9 97.1 64.6 98.6 C63.7 103.3 63.2 107.9 63.8 111.5 C68.7 114.6 69 117.8 69.2 121.9 C67.2 123.5 50.4 125 48.7 121.8 C48.6 121.5 48.9 118.9 49.3 115 C49.1 115.2 48.9 115.3 48.7 115.5 C48 111.6 49.3 109.3 50.4 105.7 C50.5 105.1 50.5 104.8 50.6 104.4 z" id="y" fill="#FDA75C" /><path d="M14.1 94.1 C12.9 88.9 11.5 84 10.8 80.9 C8.2 67.1 8 70.1 4.2 48.6 C1.9 35.9 3.3 31.3 7.6 21.8 C17.6 33.1 28.5 36.5 40.5 38.4 C50 37 61.7 33.9 72.4 21.8 C76.7 31.3 78.1 35.9 75.8 48.6 C71.9 70.1 71.8 67 68.8 80.9 C68.1 84 66.7 88.9 65.5 94.1 C65.2 95.7 64.9 97.1 64.6 98.6 C63.7 103.3 63.2 107.9 63.8 111.5 C68.7 114.6 69 117.8 69.2 121.9 C67.2 123.5 50.4 125 48.7 121.8 C48.6 121.5 48.9 118.9 49.3 115 C49.1 115.2 48.9 115.3 48.7 115.5 C48 111.6 49.3 109.3 50.4 105.7 C50.5 105.1 50.5 104.8 50.6 104.4 C49.6 106.3 48.1 107.3 46.9 107.3 C48 104.5 48.5 101.2 49.5 98.3 C48.5 99.2 47.9 100.3 47 101.3 C46.6 93.7 51 87.3 52.8 79.4 C53.1 74.8 53.2 71 52.9 69 C52.1 62.5 47.9 60.6 39.8 56.8 C31.8 60.6 27.6 62.5 26.7 69 C26.4 70.8 26.5 73.9 26.7 77.8 C26.8 77.9 26.8 78.1 26.9 78.2 C28.5 86.7 33.3 93.3 32.9 101.2 C32 100.2 31.4 99.1 30.4 98.2 C31.4 101.1 31.9 104.3 33 107.2 C31.8 107.2 30.3 106.3 29.3 104.3 C29.3 104.6 29.4 104.9 29.4 105.3 C30.5 108.9 31.7 111.2 31.1 115.1 C30.9 114.9 30.7 114.8 30.5 114.6 C30.9 118.6 31.2 121.2 31.1 121.4 C29.4 124.7 12.6 123.2 10.6 121.5 C10.9 117.7 11.2 114.5 16.1 111.4 C16.7 107.8 16.1 103.2 15.3 98.5 C15.1 97.4 14.9 96.4 14.7 95.4 C14.4 95 14.2 94.6 14.1 94.1 z M15.9 92.6 C16 93.1 16.2 93.5 16.5 93.8 C16.7 94.8 16.8 95.7 17 96.7 C17.8 101 17.6 109.1 17 112.5 C12.5 115.4 13.1 115.4 12.8 119 C14.7 120.6 27.9 121.5 29.5 118.4 C29.6 118.2 29.5 116.7 29.1 112.9 C29.3 113.1 30.3 113.2 30.5 113.4 C31 109.8 28.8 106.3 27.8 103 C27.8 102.6 29.1 102.4 29.1 102.2 C30.1 104 30.4 105.4 31.5 105.4 C30.4 102.7 30.1 99.2 29.1 96.5 C30.1 97.3 30.5 97.2 31.4 98.1 C31.8 90.8 27.8 87.5 26.3 79.7 C25.2 72.1 24.7 67.8 24.9 66.7 C25.7 60.7 33.1 57.4 40.5 53.9 C48.1 57.4 53.5 62.5 54.2 68.5 C54.5 70.4 54.2 76.8 53.9 81.1 C52.3 88.5 48.1 90.5 48.5 97.6 C49.3 96.6 50.2 97.3 51.1 96.5 C50.2 99.2 49.4 102.4 48.3 105 C49.5 105 50.7 103.3 51.6 101.6 C51.5 101.9 51.5 104.9 51.4 105.4 C50.4 108.8 48.9 109.5 49.5 113.1 C49.7 112.9 50.5 113.6 50.7 113.4 C50.3 117 50.2 119.6 50.3 119.9 C51.9 122.8 64.8 121.2 66.6 119.7 C66.5 115.9 66.6 115.5 62 112.6 C61.5 109.3 62.3 103.9 63.1 99.5 C63.4 98.1 64.3 93.5 64.5 92 C65.7 87.2 66.1 83.2 66.8 80.3 C69.6 67.4 69.6 70.3 73.3 50.3 C75.4 38.5 76.3 33 72.3 24.2 C62.3 35.4 49.3 39.5 40.5 40.8 C29.3 39.1 17.3 34.7 8 24.2 C4 33 4.6 38.5 6.7 50.3 C10.3 70.3 10.4 67.5 12.9 80.3 C13.5 83.2 14.8 87.8 15.9 92.6 z" opacity="0.15" id="z" /><path d="M2.4 21.6 C3.5 17.3 6.2 13.6 8.9 9.2 C13.9 1.1 34.4 0.4 40 0.4 C45.6 0.4 66.1 1.1 71.1 9.2 C73.8 13.6 76.5 17.3 77.6 21.6 C80.2 28.1 80 35.8 76.9 42.1 C76.2 40.2 75.5 38.3 74.9 36.4 C74.7 36.7 74.5 37 74.3 37.4 C73.7 39.8 72.4 42 71.2 44.2 C69.9 46.6 68.6 49.2 68.7 51.9 C67.9 49.3 67.3 49.4 66.5 46.8 C64.5 54.7 60.5 57.5 57.6 64.1 C57 60.6 56.9 60.3 56.4 57.3 C56.1 57.6 55.9 57.8 55.6 58.1 C53.5 63.5 51.7 67.1 46.9 72.6 C47 71.1 46.7 69.5 46.4 68 C42.8 72.1 40.3 75.6 40.1 77.9 C39.8 75.8 37.6 72.6 34.5 68.8 C34.4 70 34.4 71.2 34.5 72.4 C29.7 66.9 26.8 63.4 24.6 58.1 C24.3 57.8 24 57.5 23.8 57.2 C23.2 60.5 22.9 62.8 22.3 66.3 C19.4 59.7 15.8 54.6 13.8 46.7 C13 49.3 12.4 49.2 11.6 51.8 C11.7 49.1 10.4 46.5 9.1 44.1 C7.9 41.9 6.6 39.7 6 37.3 C5.8 37 5.6 36.6 5.4 36.3 C4.7 38.2 4 40.1 3.4 42 C-0.1 35.8 -0.2 28.1 2.4 21.6 z" id="a1" fill="#FDA75C" /><path d="M23.2 1.7 C30 0.2 37 0.4 40 0.4 C43 0.4 50 0.2 56.8 1.7 C62.7 4.6 60.2 19.3 59 23 C58.9 23.5 58.7 23.9 58.6 24.3 C57.3 32.5 53.1 40 52.4 39.8 C51.5 39.5 50.6 36.3 50.4 34 C50.5 38.8 46.3 46.6 45.8 46.5 C45.4 46.4 44.3 45.8 43.6 44.8 C43.3 45.9 43.1 46.8 42.8 47.7 C41.2 52.2 41.7 55.5 41.7 55.5 C41.7 55.5 38.9 54 37.2 47.7 C37 46.8 36.6 45.9 36.4 44.8 C35.6 45.7 34.5 46.4 34.2 46.5 C33.6 46.6 29.4 38.8 29.6 34 C29.4 36.3 28.5 39.6 27.6 39.8 C26.9 40 22.7 32.4 21.4 24.3 C21.3 23.9 21.1 23.5 21 23 C19.8 19.3 17.3 4.5 23.2 1.7 z" id="b1" fill="#D8D8D8" /><path d="M22.5 2.1 C22.7 1.9 23 1.8 23.2 1.7 C30 0.2 37 0.4 40 0.4 C43 0.4 50 0.2 56.8 1.7 C57 1.8 57.3 1.9 57.5 2.1 C63.3 3.3 68.8 5.5 71.1 9.2 C73.8 13.6 76.5 17.3 77.6 21.6 C80.2 28.1 80 35.8 76.9 42.1 C76.2 40.2 75.5 38.3 74.9 36.4 C74.7 36.7 74.5 37 74.3 37.4 C73.7 39.8 72.4 42 71.2 44.2 C69.9 46.6 68.6 49.2 68.7 51.9 C67.9 49.3 67.3 49.4 66.5 46.8 C64.5 54.7 60.5 57.5 57.6 64.1 C57 60.6 56.9 60.3 56.4 57.3 L55.6 58.1 C53.5 63.5 51.7 67.1 46.9 72.6 C47 71.1 46.7 69.5 46.4 68 C42.8 72.1 40.3 75.6 40.1 77.9 C39.8 75.8 37.6 72.6 34.5 68.8 C34.4 70 34.4 71.2 34.5 72.4 C29.7 66.9 26.8 63.4 24.6 58.1 C24.3 57.8 24 57.5 23.8 57.2 C23.2 60.5 22.9 62.8 22.3 66.3 C19.4 59.7 15.8 54.6 13.8 46.7 C13 49.3 12.4 49.2 11.6 51.8 C11.7 49.1 10.4 46.5 9.1 44.1 C7.9 41.9 6.6 39.7 6 37.3 C5.8 37 5.6 36.6 5.4 36.3 C4.7 38.2 4 40.1 3.4 42 C-0.1 35.8 -0.2 28.1 2.4 21.6 C3.5 17.3 6.2 13.6 8.9 9.2 C11.2 5.5 16.7 3.4 22.5 2.1 z M23.6 2.9 C18.1 4.1 12.9 6.1 10.7 9.6 C8.2 13.7 5 16.5 3.9 20.5 C1.5 26.7 -0.2 32.4 3.1 38.2 C3.7 36.4 5.9 34.1 6.6 32.3 C6.8 32.5 7.8 35.7 8 36 C8.6 38.3 9.6 39.8 10.7 41.8 C12 44.1 12 44.9 11.9 47.5 C12.6 45 13.5 44.9 14.3 42.5 C16.2 49.9 19 56 21.7 62.2 C22.3 58.9 22 55.1 22.6 52 C22.8 52.2 25.2 55.3 25.5 55.6 C27.6 60.6 28.7 63.4 33.2 68.6 C33.1 67.5 33.7 65.8 33.8 64.7 C36.7 68.3 39.8 72.2 40.1 74.2 C40.3 72 43.1 67.1 46.5 63.2 C46.8 64.7 48.3 67.2 48.2 68.6 C52.7 63.4 52.7 60.7 54.7 55.6 L57 53.1 C57.5 55.9 57.6 56.7 58.2 60 C60.9 53.8 64.5 50.6 66.4 43.2 C67.1 45.7 67.7 45.6 68.5 48.1 C68.4 45.5 68.6 43.8 69.9 41.6 C71 39.5 71.7 38.4 72.3 36.1 C72.4 35.7 74.6 32.1 74.8 31.8 C75.4 33.6 76.2 36.4 76.9 38.2 C79.8 32.3 77.7 25.3 75.3 19.2 C74.3 15.2 71.8 13.7 69.3 9.6 C67.1 6.1 61.9 4.1 56.4 2.9 C56.2 2.8 56 2.6 55.8 2.5 C49.4 1.1 42.7 1 39.9 1 C37.1 1 30.6 1.1 24.2 2.5 C24 2.6 23.8 2.8 23.6 2.9 z" opacity="0.15" id="c1" /></g></g></g><g transform="translate(168.9, 190.8) scale(0.9379653) translate(-168.9, -190.8)" id="d1"><g transform="translate(101.9, 84.09996) translate(23, 25)" id="e1"><g id="f1"><g id="g1"><path d="M87.2 74.6 C85.9 71 84.6 66.6 82.2 61.8 C83.8 62.4 85.3 63 86.1 64.5 C84.9 58.9 83.6 52.1 80.2 47.3 C80.2 46.9 80.2 46.5 80.2 46.1 C80 31.9 77.9 25.5 76.4 19.1 C74 9 65.6 3.7 57.8 1.1 C52.1 -0.8 46.6 1.3 43.9 1.3 C41.2 1.3 35.7 -0.8 30 1.1 C22.1 3.8 13.7 9 11.4 19.1 C9.9 25.5 7.8 31.9 7.6 46.1 C7.6 46.5 7.6 46.9 7.6 47.3 C4.2 52 2.9 58.9 1.7 64.5 C2.5 63 4 62.4 5.6 61.8 C3.3 66.6 1.9 71.1 0.6 74.6 C2.1 72.7 6 72.5 7.5 70.5 C6.5 74.9 5.8 87.6 12.8 92.5 C13.7 88.4 15.2 84.6 17.2 81.1 C17.5 82.6 18.1 84.3 18.9 86.1 C19.9 80.8 20.9 78.7 22.5 77.6 C21.8 84 20.9 88 23.7 89.6 C23.6 86.7 26 83.3 28.4 80.2 C32.3 83 36.8 84 43.9 84 C51.1 83.9 55.5 83 59.4 80.2 C61.8 83.4 64.2 86.8 64.1 89.6 C66.8 88 66 84 65.3 77.6 C66.9 78.8 67.9 80.8 68.9 86.1 C69.7 84.3 70.2 82.6 70.6 81.1 C72.6 84.6 74.2 88.5 75 92.5 C82 87.5 81.2 74.9 80.3 70.5 C81.8 72.4 85.6 72.7 87.2 74.6 z" id="h1" fill="#FDA75C" /><path d="M87.2 74.6 C85.6 72.7 81.8 72.4 80.3 70.5 C81.2 74.9 82 87.5 75 92.5 C74.2 88.5 72.6 84.6 70.6 81.1 C70.2 82.6 69.7 84.3 68.9 86.1 C67.9 80.8 66.9 78.8 65.3 77.6 C66 84 66.8 88 64.1 89.6 C64.2 86.8 61.8 83.4 59.4 80.2 C55.5 83 51.1 83.9 43.9 84 C36.8 84 32.3 83 28.4 80.2 C26 83.3 23.6 86.7 23.7 89.6 C20.9 88 21.8 84 22.5 77.6 C20.9 78.7 19.9 80.8 18.9 86.1 C18.1 84.3 17.5 82.6 17.2 81.1 C15.2 84.6 13.7 88.4 12.8 92.5 C5.8 87.6 6.5 74.9 7.5 70.5 C6 72.5 2.1 72.7 0.6 74.6 C1.9 71.1 3.3 66.6 5.6 61.8 C4 62.4 2.5 63 1.7 64.5 C2.9 58.9 4.2 52 7.6 47.3 C7.6 46.9 7.6 46.5 7.6 46.1 C7.8 31.9 9.9 25.5 11.4 19.1 C13.7 9 22.1 3.8 30 1.1 C35.7 -0.8 41.2 1.3 43.9 1.3 C46.6 1.3 52.1 -0.8 57.8 1.1 C65.6 3.7 74 9 76.4 19.1 C77.9 25.5 80 31.9 80.2 46.1 C80.2 46.5 80.2 46.9 80.2 47.3 C83.6 52.1 84.9 58.9 86.1 64.5 C85.3 63 83.8 62.4 82.2 61.8 C84.6 66.6 85.9 71 87.2 74.6 z M84.1 70.6 C82.8 67.2 81.6 63.1 79.4 58.7 C80.9 59.2 82.3 59.8 83 61.2 C81.9 56 80.7 49.7 77.6 45.2 C77.6 44.9 77.6 44.5 77.6 44.1 C77.4 31 75.4 25 74 19.1 C71.8 9.7 64 4.8 56.8 2.4 C51.5 0.6 46.4 2.1 43.9 2.1 C41.4 2.1 36.3 0.6 31 2.4 C23.7 4.9 15.9 9.7 13.8 19.1 C12.4 25 10.4 31 10.2 44.1 C10.2 44.5 10.2 44.9 10.2 45.2 C7.1 49.6 5.9 56 4.8 61.2 C5.5 59.8 6.9 59.2 8.4 58.7 C6.2 63.1 5 67.3 3.7 70.6 C5.1 68.8 8.8 68.6 10.1 66.7 C9.2 70.8 6 82.6 12.5 87.2 C13.3 83.3 15.9 79.8 17.7 76.6 C18 78 18.4 79 19.1 80.7 C20.1 75.8 22.6 74.4 24.1 73.3 C23.4 79.3 22.4 82 24.2 83.6 C24.8 81.2 27.3 78.6 29.5 75.7 C33.1 78.3 37.3 80 43.9 80 C50.6 79.9 54.7 78.3 58.3 75.7 C60.5 78.7 63.8 81 63.7 83.6 C66.2 82.1 64.4 79.3 63.7 73.3 C65.2 74.4 67.7 75.1 68.7 80 C69.4 78.3 71.8 78 72.2 76.6 C74 79.8 74.7 83.4 75.4 87.2 C81.9 82.5 78.5 70.8 77.7 66.7 C79 68.5 82.6 68.8 84.1 70.6 z" opacity="0.15" id="i1" /></g></g></g><g transform="translate(122.6, 95.79996) translate(3, 2)" id="j1"><path d="M33.9 21.7 C35.1 19.6 35.4 14.7 32.2 12.1 C29.1 9.6 18.9 1.4 16 0.8 C13.1 0.2 11.9 0 9.8 0.8 C8 1.5 6.7 3.9 6.3 4.9 C5.4 7 1.1 13.6 1.1 21.6 C1.1 29.6 0.5 36.5 1.1 39.7 C1.7 42.8 3.2 42.8 4.7 42.8 C5.5 42.8 11.7 35.5 18.8 30.6 C26 25.6 32.8 23.8 33.9 21.7 z" id="k1" fill="#AA602E" /><path d="M33.9 21.7 C32.8 23.8 26 25.6 18.8 30.6 C11.7 35.5 5.5 42.8 4.7 42.8 C3.2 42.8 1.7 42.8 1.1 39.7 C0.5 36.5 1.1 29.6 1.1 21.6 C1.1 13.6 5.4 7 6.3 4.9 C6.7 3.9 8 1.5 9.8 0.8 C11.9 0 13.1 0.2 16 0.8 C18.9 1.4 29.1 9.6 32.2 12.1 C35.4 14.7 35.1 19.6 33.9 21.7 z M32.1 20.3 C33.2 18.4 33.4 14.1 30.6 11.8 C27.9 9.6 18.9 2.3 16.3 1.8 C13.7 1.3 12.7 1.1 10.8 1.8 C9.2 2.4 8.1 4.5 7.7 5.4 C6.9 7.3 3.1 13.1 3.1 20.2 C3.1 27.3 2.6 33.4 3.1 36.3 C3.7 39 5 39 6.3 39 C7 39 12.5 32.5 18.7 28.2 C25.1 23.7 31.1 22.1 32.1 20.3 z" opacity="0.15" id="l1" /></g><g transform="translate(84.29999, 98.99995) translate(110, 21.5) scale(-1, 1) translate(-110, -21.5) translate(92, 0)" id="m1"><path d="M33.6 22.2 C34.4 20.7 35.3 19.4 35.3 18.1 C35.5 15.9 34.2 13.7 32.2 12.1 C29 9.6 20.6 2.3 15.9 0.8 C14.9 0.5 12.5 0.3 10.8 0.8 C8.4 1.6 6.8 3.7 6.2 4.9 C5.3 7 2.3 12.3 1 21.7 C-0.3 31 0.4 36.6 1 39.7 C1.6 42.8 3.1 42.8 4.6 42.8 C5.4 42.8 12.2 36.3 19.6 31.3 C26.6 26.5 32.8 23.6 33.6 22.2 z" id="n1" fill="#AA602E" /><path d="M33.6 22.2 C32.8 23.6 26.6 26.5 19.6 31.3 C12.2 36.3 5.4 42.8 4.6 42.8 C3.1 42.8 1.6 42.8 1 39.7 C0.4 36.6 -0.3 31 1 21.7 C2.3 12.3 5.3 7 6.2 4.9 C6.8 3.7 8.4 1.6 10.8 0.8 C12.5 0.3 14.9 0.5 15.9 0.8 C20.6 2.3 29 9.6 32.2 12.1 C34.2 13.7 35.5 15.9 35.3 18.1 C35.3 19.4 34.4 20.7 33.6 22.2 z M31.9 20.5 C32.6 19.2 33.4 18 33.4 16.9 C33.6 15 32.4 13 30.6 11.6 C27.7 9.4 20.2 3 16 1.7 C15.1 1.4 13 1.3 11.4 1.7 C9.4 2.5 8 4.3 7.4 5.4 C6.6 7.2 3.9 11.9 2.8 20.1 C1.6 28.2 2.3 33.2 2.8 35.9 C3.3 38.6 4.7 38.6 6 38.6 C6.7 38.6 12.8 32.9 19.4 28.5 C25.7 24.3 31.2 21.7 31.9 20.5 z" opacity="0.15" id="o1" /></g><g id="p1"><g transform="translate(101.7, 80.19996) translate(51, 30)" id="q1"><g id="r1"><path d="M30.4 60.8 C26.6 54.2 23.9 51.2 20.9 43.5 C19 34.9 16.9 19.5 18.5 15 C20.3 9.9 23.1 3.4 21.3 1.4 C19.3 -0.9 15.9 0.6 15.9 0.6 C15.9 0.6 12.5 -0.9 10.5 1.4 C8.7 3.4 11.6 9.9 13.3 15 C14.9 19.6 12.9 34.9 10.9 43.5 C7.9 51.2 5.3 54.3 1.4 60.8 C-0.9 64.8 -0.8 75.4 6.3 78 C9.1 79 14.5 79.3 15.9 79.3 C17.2 79.3 22.6 79 25.5 78 C32.6 75.4 32.8 64.8 30.4 60.8 z" id="s1" fill="#FBD291" /><path d="M30.4 60.8 C32.8 64.8 32.6 75.4 25.5 78 C22.6 79 17.2 79.3 15.9 79.3 C14.5 79.3 9.1 79 6.3 78 C-0.8 75.4 -0.9 64.8 1.4 60.8 C5.3 54.3 7.9 51.2 10.9 43.5 C12.9 34.9 14.9 19.6 13.3 15 C11.6 9.9 8.7 3.4 10.5 1.4 C12.5 -0.9 15.9 0.6 15.9 0.6 C15.9 0.6 19.3 -0.9 21.3 1.4 C23.1 3.4 20.3 9.9 18.5 15 C16.9 19.5 19 34.9 20.9 43.5 C23.9 51.2 26.6 54.2 30.4 60.8 z M27.6 59.1 C23.9 52.8 22.5 49.6 19.7 42.3 C17.9 34.1 16.8 17.6 18.3 13.3 C20 8.5 22.2 3.9 20.4 2 C18.5 -0.2 15.9 1.5 15.9 1.5 C15.9 1.5 13.3 0.1 11.4 2.3 C9.7 4.2 12.3 9.1 13.9 13.9 C15.4 18.3 14.3 34.1 12.4 42.3 C9.5 49.6 7.5 53.2 3.8 59.4 C1.6 63.2 0 72.7 6.8 75.1 C9.4 76.1 14.6 76.4 15.9 76.4 C17.1 76.4 22.3 76.1 25 75.1 C31.8 72.7 29.8 62.9 27.6 59.1 z" opacity="0.15" id="t1" /></g></g><g transform="translate(108.4, 82.29996) translate(39, 80)" id="u1"><path d="M0.8 2.5 C0.9 3.5 1.7 5.7 2.3 7 C3.9 10.9 6.6 13.2 7.4 13.8 C11 16.7 14.3 16.6 21.5 16.6 C30.5 16.7 31.2 15.6 35.8 13.1 C41.7 9.9 42.9 1.6 42.9 0.8 C42.8 0 41.9 0 41.8 0.5 C41.6 1.1 41.7 2.5 41.5 3.1 C41.1 5 40.6 6 39.9 6.7 C38.1 8.6 35 10.2 32.4 10.3 C28.3 10.4 25.9 7.6 23.6 4.2 C23.3 3.7 22.6 3.4 21.4 3.1 C20.3 3.4 19.6 3.8 19.2 4.2 C16 7.9 13.7 10.6 11 10.6 C8.1 10.6 5.1 9 3.8 6.5 C3.2 5.2 2.5 3.9 1.9 1.6 C1.9 1.1 0.7 1.4 0.8 2.5 z" fill-opacity="0.1" id="v1" fill="#010101" /><g transform="translate(5, 7)" id="w1"><path d="M0.6 5.8 C5.2 7.6 9 7.6 11.9 5.8 C13.9 4.6 15.2 3.4 15.7 2.2 C15.9 1.8 16.1 1.5 16.3 1.2 C16.8 2.5 18.2 4 20.5 5.8 C22.8 7.6 26.5 7.6 31.6 5.8 C26.6 12.8 21.3 16.3 15.8 16.3 C10.3 16.3 5.3 12.8 0.6 5.8 z" id="x1" fill="#424242" /><path d="M8.8 13.5 L8.8 6.9 C10.6 6.3 11.7 5.9 12.2 5.6 C13.3 4.9 14.7 3.2 16.2 0.6 C18 3.2 19.7 4.9 21 5.8 C21.5 6.1 22.4 6.5 23.9 7 L23.9 13.5 C27.1 22.1 24.6 26.2 16.4 26 C8.4 25.7 5.8 21.6 8.8 13.5 z" id="y1" fill="#FFB8B3" /></g></g><g transform="translate(168.7, 170.0999) scale(0.75) translate(-168.7, -170.0999) translate(102.2, 75.39996) translate(57, 86)" id="z1"><g id="a2"><path d="M9.5 0.7 C3.4 0.7 0.3 2.6 0.2 6.7 C0.1 13.3 4.8 15.1 9.5 16.6 C14.1 15 18.9 13.2 18.8 6.7 C18.7 2.7 15.6 0.7 9.5 0.7 z" id="b2" fill="#332320" /><path d="M10.4 2.1 C8.3 2 6.2 2.3 4.3 2.9 C3.6 3.1 2.5 3.6 2.7 4.4 C3 5.8 11.1 4.3 13.8 3.7 C14 3.6 14.3 3.6 14.4 3.4 C15.5 2.5 10.9 2.1 10.4 2.1 z" id="c2" fill="#FFF" /></g></g><g transform="translate(114.7, 100.1) translate(31, 38)" id="d2"><g id="e2"><path d="M16.2 9 C14.2 11.9 10.5 13.5 7.1 12.8 C3.7 12.1 0.8 9.3 0 5.9 C1.5 3.8 3.6 2.1 6 1.2 C8.4 0.4 11.2 0.5 13.4 1.8 C15.6 3.1 17.1 5.7 16.9 8.2" id="f2" fill="#EAA9A7" /><path d="M11.4 2.2 C8.8 0.5 4.2 3.4 1.5 6.3 C1.3 6.7 2.8 9.2 5.1 10.4 C7 11.4 9.2 11.4 10.8 10.6 C12.3 9.9 13.9 8.8 14.7 7 C14.8 5 12.9 3.2 11.4 2.2 z" id="g2" fill="#282421" /><path d="M9.1 2.8 C8.3 2.6 7.4 2.8 6.6 3.2 C6.6 3.2 4.7 4.6 5.1 5.4 C5.5 6.2 6.8 5.9 8.2 5.2 C9.6 4.5 9.9 3.6 9.8 3.4 C9.8 3 9.4 2.9 9.1 2.8 z" id="h2" fill="#F4F3F2" /></g></g><g transform="translate(104.7, 100.1) translate(70, 38)" id="i2"><g id="j2"><path d="M0.8 9 C2.8 11.9 6.5 13.5 9.9 12.8 C13.3 12.1 16.2 9.3 17 5.9 C15.5 3.8 13.4 2.1 11 1.2 C8.6 0.4 5.8 0.5 3.6 1.8 C1.4 3.1 -0.1 5.7 0.1 8.2" id="k2" fill="#EAA9A7" /><path d="M5.4 2.2 C8 0.5 12.6 3.4 15.3 6.3 C15.5 6.7 14 9.2 11.7 10.4 C9.8 11.4 7.6 11.4 6 10.6 C4.5 9.9 2.9 8.8 2.1 7 C2.2 5 3.9 3.2 5.4 2.2 z" id="l2" fill="#282421" /><path d="M8.3 2.8 C7.5 2.6 6.6 2.8 5.8 3.2 C5.8 3.2 3.9 4.6 4.3 5.4 C4.7 6.2 6 5.9 7.4 5.2 C8.7 4.5 9.1 3.6 9 3.4 C8.9 3 8.6 2.9 8.3 2.8 z" id="m2" fill="#F4F3F2" /></g></g></g></g></g></g><defs><g transform="translate(17.09519, 0.800995) translate(-135.2952, -293.601)" id="n2" fill="#000"><path d="M118.2 302.7 C118.4 307.4 132.5 311.2 149.8 311.2 C167.1 311.2 181.2 307.4 181.4 302.7 C181.4 307.5 181.4 310.1 181.4 310.5 C181.4 315.3 167.3 319.1 149.8 319.1 C132.3 319.1 118.2 315.2 118.2 310.5 L118.2 302.7 L118.2 302.7 z" fill-opacity="0.4528" id="o2" fill="#593001" /><path d="M118.7 301.7 C118.9 306.4 133 310.2 150.3 310.2 C167.6 310.2 181.7 306.4 181.9 301.7 C181.9 306.5 181.9 309.1 181.9 309.5 C181.9 314.3 167.8 318.1 150.3 318.1 C132.8 318.1 118.7 314.2 118.7 309.5 L118.7 301.7 L118.7 301.7 z" id="p2" fill="#DA8113" /><linearGradient x1="46.0545" y1="-118.6926" x2="45.4656" y2="-118.6926" gradientUnits="userSpaceOnUse" gradientTransform="matrix(117.135, 0, 0, 28.4634, -5208.417, 3687.795)" id="q2"><stop offset="0%" stop-color="#D9952A" stop-opacity="1" /><stop offset="6.438854%" stop-color="#CA7519" stop-opacity="1" /><stop offset="30.54%" stop-color="#E3AD3A" stop-opacity="1" /><stop offset="51.05%" stop-color="#FFEC91" stop-opacity="1" /><stop offset="68.8%" stop-color="#E9BD44" stop-opacity="1" /><stop offset="86.24%" stop-color="#FFED6C" stop-opacity="1" /><stop offset="93.87%" stop-color="#F2D353" stop-opacity="1" /><stop offset="100%" stop-color="#F2B947" stop-opacity="1" /></linearGradient><path d="M118.2 301.6 C118.4 306.1 132.7 309.7 150.3 309.7 C167.9 309.7 182.2 306.1 182.4 301.6 C182.4 306.2 182.4 308.7 182.4 309 C182.4 313.5 168 317.2 150.3 317.2 C132.6 317.2 118.2 313.5 118.2 309 L118.2 301.6 L118.2 301.6 z" id="r2" style="fill:url(#q2)" /><linearGradient x1="45.4914" y1="-117.9547" x2="45.9407" y2="-117.5895" gradientUnits="userSpaceOnUse" gradientTransform="matrix(115.425, 0, 0, 29.925, -5125.077, 3826.124)" id="s2"><stop offset="0%" stop-color="#F4E072" stop-opacity="1" /><stop offset="100%" stop-color="#DB9427" stop-opacity="1" /></linearGradient><ellipse cx="150.3" cy="301.5" rx="31.6" ry="8.2" id="t2" style="fill:url(#s2)" /><linearGradient x1="45.4656" y1="-126.0065" x2="46.0545" y2="-126.0065" gradientUnits="userSpaceOnUse" gradientTransform="matrix(117.135, 0, 0, 18.6219, -5208.417, 2651.479)" id="u2"><stop offset="0%" stop-color="#D9952A" stop-opacity="1" /><stop offset="6.438854%" stop-color="#CA7519" stop-opacity="1" /><stop offset="30.54%" stop-color="#E3AD3A" stop-opacity="1" /><stop offset="51.05%" stop-color="#FFEC91" stop-opacity="1" /><stop offset="68.8%" stop-color="#E9BD44" stop-opacity="1" /><stop offset="86.24%" stop-color="#FFED6C" stop-opacity="1" /><stop offset="93.87%" stop-color="#F2D353" stop-opacity="1" /><stop offset="100%" stop-color="#F2B947" stop-opacity="1" /></linearGradient><path d="M119.2 299.9 C119 300.2 118.9 300.6 118.9 301 C118.9 305.5 132.9 309.2 150.3 309.2 C167.7 309.2 181.7 305.5 181.7 301 C181.7 300.6 181.6 300.3 181.4 299.9 C182 300.5 182.4 301.2 182.4 301.9 C182.4 306.4 168 310.1 150.3 310.1 C132.6 310.1 118.2 306.4 118.2 301.9 C118.2 301.3 118.6 300.6 119.2 299.9 z" id="v2" style="fill:url(#u2)" /><linearGradient x1="45.196" y1="-121.5895" x2="45.3746" y2="-120.6758" gradientUnits="userSpaceOnUse" gradientTransform="matrix(101.745, 0, 0, 23.94, -4458.332, 3199.41)" id="w2"><stop offset="0%" stop-color="#F8DD61" stop-opacity="1" /><stop offset="100%" stop-color="#EAA330" stop-opacity="1" /></linearGradient><ellipse cx="150.3" cy="300.8" rx="27.8" ry="6.6" id="x2" style="fill:url(#w2)" /><linearGradient x1="45.5694" y1="-134.267" x2="45.0221" y2="-134.267" gradientUnits="userSpaceOnUse" gradientTransform="matrix(101.745, 0, 0, 13.2525, -4458.332, 2077.223)" id="y2"><stop offset="0%" stop-color="#F4CA2F" stop-opacity="1" /><stop offset="51.38%" stop-color="#BF7737" stop-opacity="1" /><stop offset="100%" stop-color="#E4A929" stop-opacity="1" /></linearGradient><path d="M122.6 301.5 C122.5 301.3 122.4 301 122.4 300.8 C122.4 297.2 134.9 294.2 150.2 294.2 C165.5 294.2 178 297.1 178 300.8 C178 301 177.9 301.3 177.8 301.5 C176.3 298.2 164.5 295.6 150.1 295.6 C135.7 295.6 124.1 298.2 122.6 301.5 z" id="z2" style="fill:url(#y2)" /></g></defs><desc>AJLJJ2JOFN8,fvxK7vYoQwhQAgS9pL6p6YoohGHf2x6yib40GYXZc+LFEi7lvpzVOXjpOwtrNw84JoyYlAJuc4txb1SBtqCx+7UlSQFKm7s8o6yHOIWt1EmTsIdsKvVOeNErwaJ8CAZNG/h0ceHPfWbG1iOAbj3+K6rX4zyCtSRkfA5ZArEHiyu6IVI/wTQijeU+k+ITP+sx</desc></svg>