<?xml version="1.0" encoding="utf-8"?><!DOCTYPE svg PUBLIC "-//W3C//DTD SVG 1.1//EN" "http://www.w3.org/Graphics/SVG/1.1/DTD/svg11.dtd"><svg x="0" y="0" width="340px" height="340px" viewBox="0, 0, 340, 340" preserveAspectRatio="xMidYMid" font-size="0" id="a" enable-background="new 0 0 340 340" xmlns="http://www.w3.org/2000/svg" xmlns:xlink="http://www.w3.org/1999/xlink" xmlns:xml="http://www.w3.org/XML/1998/namespace" version="1.1"><g id="b" fill="#000"><g id="c"><g transform="translate(0, 0) translate(0, 224)" id="d"><ellipse cx="168.6" cy="53.1" rx="57.8" ry="12.8" fill-opacity="0.25" id="e" /></g><g id="f"><g transform="translate(103.8, 98.89998) translate(20.5, 139.5) scale(-1, 1) translate(-20.5, -139.5) translate(0, 122)" id="g"><g id="h"><path d="M28.3 1.5 C38.6 0.6 40.4 9.4 40.6 11.6 C39.9 11.2 39.2 10.8 38.5 10.4 C39.3 12.6 39.7 15.1 39.7 17.8 C38.6 16.4 36.7 14.8 34.9 13.9 C35.7 15.2 36.5 16.5 37.4 17 C35.4 17.6 34.6 18.2 31 17.7 C28.6 17.4 27.5 17.8 24.4 18.3 C23.8 18.4 19.5 10.8 21.8 5.7 C23.2 3.5 27.3 1.5 28.3 1.5 z" id="i" fill="#2C2F32" /><path d="M6 15 C9.4 15.8 13.3 15.1 15.9 12.7 C16.5 12.2 17 11.5 17.6 10.9 C19.7 7.6 21.8 4.2 23.8 0.9 C23.8 1.7 23.7 2.5 23.6 3.2 C25 2.2 26.5 1.5 28.3 1.3 C25.8 4 23.8 7.1 22.4 10.5 C22.8 10.5 23.3 10.4 23.8 10.3 C24.8 10 26.6 9.5 27.4 8.4 C27.4 10.5 26.9 11.4 26.2 12.1 C28.3 11.9 30.4 12.2 32.4 13 C29.6 13.4 27.8 16.2 25.4 17.6 C25.5 17.6 28.8 17 30.9 17.9 C31 18.1 31.1 18.4 31.2 18.6 C32.2 21 32.3 23.7 31.5 26.1 C30.7 24.4 29.5 22.8 28.1 21.5 C28.6 25.5 27.5 29.7 25.6 32.8 C25.4 29.1 25.6 25.3 21.5 23.8 C23.2 26.6 21.3 31.3 20.7 34.1 C20.5 31.6 20.2 29.1 19.1 26.8 C16.2 20.4 14.9 21 9.6 21.6 C6.3 21.9 1.1 21 1 18.4 C0.9 15.8 4.2 14.6 6 15 z" id="j" fill="#32363A" /><path d="M30 17.6 C30.3 17.7 30.6 17.8 30.9 17.9 C31 18.1 31.1 18.4 31.2 18.6 C32.2 21 32.3 23.7 31.5 26.1 C30.7 24.4 29.5 22.8 28.1 21.5 C28.6 25.5 27.5 29.7 25.6 32.8 C25.4 29.1 25.6 25.3 21.5 23.8 C23.2 26.6 21.3 31.3 20.7 34.1 C20.5 31.6 20.2 29.1 19.1 26.8 C16.2 20.4 14.9 21 9.6 21.6 C6.3 21.9 1.1 21 1 18.4 C0.9 15.8 4.2 14.6 6 15 C9.4 15.8 13.3 15.1 15.9 12.7 C16.5 12.2 17 11.5 17.6 10.9 C19.7 7.6 21.8 4.2 23.8 0.9 C23.8 1.7 23.7 2.5 23.6 3.2 C25 2.2 26.5 1.5 28.3 1.3 C28.2 1.4 28.2 1.4 28.1 1.5 C28.2 1.5 28.2 1.5 28.3 1.5 C38.6 0.6 40.4 9.4 40.6 11.6 L38.5 10.4 C39.3 12.6 39.7 15.1 39.7 17.8 C38.6 16.4 36.7 14.8 34.9 13.9 C35.7 15.2 36.5 16.5 37.4 17 C35.4 17.6 34.6 18.2 31 17.7 C30.6 17.7 30.3 17.6 30 17.6 z M29.8 16.1 C29.5 16 33.3 16.9 35.1 16.4 C34.3 15.9 34.1 13.3 33.3 12.1 C35 12.9 37.9 14.3 38.9 15.6 C38.9 13.2 38.2 10.6 37.5 8.7 L39.8 10 C39.7 8.1 37 1.6 27.7 2.4 C27.6 2.4 28.5 2 28.4 2 C28.5 1.9 28.5 1.9 28.6 1.8 C27 2 24.4 4.3 23.2 5.2 C23.2 4.6 23.2 3.4 23.2 2.7 C21.3 5.6 20.8 7.4 18.9 10.3 C18.4 10.9 17.9 11.5 17.4 11.9 C15 14.1 11 16.9 7.9 16.2 C6.2 15.8 2.7 15.8 2.8 18.1 C2.9 20.4 8.7 20.1 11.6 19.8 C16.5 19.3 16.6 18.2 19.2 23.9 C20.2 25.9 20.7 26.4 20.8 28.6 C21.4 26.1 21.2 24.2 19.7 21.7 C23.4 23 25.9 24.9 26.1 28.2 C27.8 25.5 26.9 22.7 26.5 19.2 C27.8 20.3 30.3 21.7 31.1 23.2 C31.8 21.1 30 19.5 29.1 17.3 C29 17.2 29.8 16.3 29.8 16.1 z" opacity="0.15" id="k" /></g></g><g transform="translate(127.1067, 274.8) scale(0.823611) translate(-123.6, -274.8) translate(99.90001, 60.09996) translate(15, 148)" id="l"><g id="m"><path d="M7.5 67.2 C7.3 61.1 10.4 57.2 16.8 55.3 C9.2 42.9 0.5 25.2 0.1 19.1 C-0.5 9 3.8 3.3 7.7 0.8 C10.3 -0.9 22 -1.6 27.5 0.1 C33.1 1.6 35.6 7.3 37.4 8.7 C42.7 12.6 47.5 20.2 49.1 25.6 C52.1 35.9 50.3 51.1 49.5 64.3 C44.4 65.8 27.6 69.8 23.9 70.1 C20.7 70.4 16.2 70.4 10.6 70.2 C8.8 70.1 7.5 68.8 7.5 67.2 z" id="n" fill="#CAC3C0" /><path d="M10.4 44.1 C5 33.9 0.4 23.5 0.1 19.1 C-0.5 9 3.8 3.3 7.7 0.8 C8 0.5 8.5 0.3 8.9 0.1 C8.6 1.4 8.2 2.8 7.7 4.4 C4.1 16.1 12.3 23.6 12.7 28.2 C13.3 35.2 12.2 41.2 10.4 44.1 z" id="o" fill="#AAA5A3" /><path d="M7.5 67.2 C7.3 61.1 10.4 57.2 16.8 55.3 C9.2 42.9 0.5 25.2 0.1 19.1 C-0.5 9 3.8 3.3 7.7 0.8 C10.3 -0.9 22 -1.6 27.5 0.1 C33.1 1.6 35.6 7.3 37.4 8.7 C42.7 12.6 47.5 20.2 49.1 25.6 C52.1 35.9 50.3 51.1 49.5 64.3 C44.4 65.8 27.6 69.8 23.9 70.1 C20.7 70.4 16.2 70.4 10.6 70.2 C8.8 70.1 7.5 68.8 7.5 67.2 z M9.3 65.4 C9.3 66.9 9.8 68 11.4 68 C16.9 68.2 21.2 68.2 24.2 67.9 C27.7 67.6 42.8 64 47.7 62.6 C48.5 50 51.2 35.2 48.4 25.3 C46.9 20 42.3 12.8 37.2 9.1 C35.5 7.8 33.1 2.3 27.7 0.9 C22.3 -0.7 11.2 -0.1 8.7 1.6 C5 4.1 0.8 9.5 1.4 19.2 C1.8 25 11.4 44.2 18.6 56.2 C12.7 57.9 9.1 59.6 9.3 65.4 z" opacity="0.15" id="p" /></g></g><g transform="translate(211.4933, 274.8) scale(0.823611) translate(-215, -274.8) translate(94.7, 60.09996) translate(105.5, 184.5) scale(-1, 1) translate(-105.5, -184.5) translate(80, 148)" id="q"><g id="r"><path d="M9.7 67.2 C9.5 61.1 12.6 57.2 19 55.3 C11.4 42.9 2.7 25.2 2.3 19.1 C1.7 9 6 3.3 9.9 0.8 C12.4 -0.9 22 -1.6 27.6 0.1 C33.8 1.8 39.5 5.7 43.8 9.6 C46.8 12.2 48.4 18 50 23.4 C53 33.7 50.8 52.1 50 65.2 C44.9 66.7 29.7 69.7 26 70 C22.8 70.3 18.3 70.3 12.7 70.1 C11 70.1 9.7 68.8 9.7 67.2 z" id="s" fill="#CAC3C0" /><path d="M12.5 44.1 C7.1 33.9 2.5 23.5 2.2 19.1 C1.7 9 6 3.3 9.9 0.8 C10.2 0.5 10.7 0.3 11.1 0.1 C10.8 1.4 10.4 2.8 9.9 4.4 C6.3 16.1 14.5 23.6 14.9 28.2 C15.4 35.2 14.3 41.2 12.5 44.1 z" id="t" fill="#AAA5A3" /><path d="M9.7 67.2 C9.5 61.1 12.6 57.2 19 55.3 C11.4 42.9 2.7 25.2 2.3 19.1 C1.7 9 6 3.3 9.9 0.8 C12.4 -0.9 22 -1.6 27.6 0.1 C33.8 1.8 39.5 5.7 43.8 9.6 C46.8 12.2 48.4 18 50 23.4 C53 33.7 50.8 52.1 50 65.2 C44.9 66.7 29.7 69.7 26 70 C22.8 70.3 18.3 70.3 12.7 70.1 C11 70.1 9.7 68.8 9.7 67.2 z M12.4 64.8 C12.4 66.3 11.6 67.6 13.2 67.6 C18.7 67.8 23 67.8 26 67.5 C29.5 67.2 42.9 64.4 47.8 63 C48.6 50.3 51.8 32.6 49 22.8 C47.5 17.5 45.9 12 43.1 9.6 C38.9 5.9 33.4 2.2 27.6 0.5 C22.2 -1.1 13.1 -0.4 10.6 1.2 C6.9 3.6 2.7 9.2 3.3 18.7 C3.7 24.5 14.2 43.6 21.4 55.6 C15.3 57.3 12.2 59 12.4 64.8 z" opacity="0.15" id="u" /></g></g><g transform="translate(-285.9, 63.59998) translate(26, 89)" id="v"><path d="M397 32.1 C391 38.3 389.6 53.9 391.7 73.6 C393.8 93.4 398.5 110.6 404.4 118.6 C410.3 126.6 419.1 128.3 429.1 128.3 C439.1 128.3 444.7 128.5 451.9 120.5 C459 112.6 463.7 84.2 465.1 74.4 C466.5 64.7 469.4 41 460.1 32.9 C455.5 28.8 444.8 7 431.3 6.5 C417.8 6 403 26 397 32.1 z" id="w" fill="#CAC3C0" /><path d="M397 32.1 C391 38.3 389.6 53.9 391.7 73.6 C392.6 81.9 396.1 90.6 397.8 97.5 C400.1 107.1 401 114.1 404.4 118.7 C410.3 126.7 419.1 128.4 429.1 128.4 C439.1 128.4 444.7 128.6 451.9 120.6 C459 112.7 463.7 84.3 465.1 74.5 C466.5 64.8 469.4 41.1 460.1 33 C455.5 28.9 444.8 7.3 431.3 6.8 C417.8 6.2 403 26 397 32.1 z" id="x" fill="#CAC3C0" /><path d="M397 32.1 C403 26 417.8 6.2 431.1 6.6 C444.7 7.1 455.4 28.8 459.9 32.8 C469.2 40.9 466.3 64.6 464.9 74.3 C463.5 84.1 458.8 112.5 451.7 120.4 C444.5 128.4 438.9 128.2 428.9 128.2 C418.9 128.2 410.1 126.5 404.2 118.5 C398.3 110.5 393.6 93.2 391.5 73.5 C389.6 53.9 391 38.3 397 32.1 z M398.3 32.4 C392.5 38.4 391.2 53.3 393.2 72.3 C395.2 91.4 399.7 107.8 405.4 115.5 C411.1 123.2 419.5 124.8 429.1 124.8 C438.7 124.8 444.1 125 451 117.3 C457.8 109.7 462.3 82.4 463.7 73 C465 63.7 467.8 40.9 458.9 33.1 C454.3 29.2 444.1 8.5 431 8 C418.2 7.5 404 26.5 398.3 32.4 z" opacity="0.15" id="y" /></g><g transform="translate(127.7475, 183.25) scale(1.05, 0.9499054) translate(-129.7, -177.5) translate(90.60001, 85.09997) translate(39, 92)" id="z"><path d="M10.5 2.2 C12.9 5 20.7 22.6 38.2 23.5 C56.8 24.2 64.9 4.9 67.6 0.4 C71.2 8.2 77 13.2 77.6 26 C78.2 38.8 73.7 45.8 71.4 52 C69.1 58.3 63.4 71.4 63.1 83.3 C62.8 95.2 60.6 90.7 64.9 93.1 C69.2 95.6 72.9 100.5 71.4 103.3 C69.9 106.2 51 103.5 50 102.3 C49.5 101.7 48.8 94.2 49 73 C49.1 67.4 49.6 57.6 50.6 43.7 C46.6 46.2 43.1 47.4 40.2 47.3 C37.4 47.4 33.6 46.2 29.1 43.7 C30.5 57.6 31.2 67.4 31.3 73 C31.6 93.4 31.3 101.1 30.5 102.3 C29.3 104 21.8 104.9 7.8 104.8 C6.1 102 6.1 99.6 7.8 97.6 C9.5 95.6 12.4 93.5 16.4 91.2 C14.4 75.7 12.2 65 9.9 59.2 C6.4 50.6 0.3 39.8 0.2 28 C0.1 16.2 6.2 7.4 10.5 2.2 z" id="a1" fill="#FEFEFE" /><path d="M10.5 2.2 C12.9 5 20.7 22.6 38.2 23.5 C56.8 24.2 64.9 4.9 67.6 0.4 C71.2 8.2 77 13.2 77.6 26 C78.2 38.8 73.7 45.8 71.4 52 C69.1 58.3 63.4 71.4 63.1 83.3 C62.8 95.2 60.6 90.7 64.9 93.1 C69.2 95.6 72.9 100.5 71.4 103.3 C69.9 106.2 51 103.5 50 102.3 C49.5 101.7 48.8 94.2 49 73 C49.1 67.4 49.6 57.6 50.6 43.7 C46.6 46.2 43.1 47.4 40.2 47.3 C37.4 47.4 33.6 46.2 29.1 43.7 C30.5 57.6 31.2 67.4 31.3 73 C31.6 93.4 31.3 101.1 30.5 102.3 C29.3 104 21.8 104.9 7.8 104.8 C6.1 102 6.1 99.6 7.8 97.6 C9.5 95.6 12.4 93.5 16.4 91.2 C14.4 75.7 12.2 65 9.9 59.2 C6.4 50.6 0.3 39.8 0.2 28 C0.1 16.2 6.2 7.4 10.5 2.2 z M10 3.3 C5.9 8.4 2.7 17 2.8 28.3 C2.9 39.5 8.6 50 12 58.3 C14.1 63.8 16.5 77.4 18.3 92.3 C14.6 94.5 12 94.8 10.5 96.7 C9 98.6 8.9 100.3 10.5 103 C23.5 103.1 28.2 101.8 29.3 100.1 C30 99 30.2 91.3 29.9 71.7 C29.8 66.2 26.9 52.4 25.6 39.1 C29.9 41.5 36.2 46.9 40 46.6 C44.9 46.6 50.9 41.5 54.7 39.1 C53.8 52.4 50.8 66.2 50.8 71.5 C50.6 91.9 50.8 100 51.3 100.6 C52.2 101.7 68.3 105.3 69.7 101.5 C70.6 98.6 68.1 96.6 64.3 94.4 C60.3 92 61.5 92.7 61.8 81.3 C62.1 69.9 67.4 57.3 69.5 51.4 C71.6 45.5 75.8 38.7 75.3 26.4 C74.8 14.1 70.8 9.3 67.5 1.9 C65 6.2 56.4 26.4 39 25.7 C22.7 24.9 12.2 6.1 10 3.3 z" opacity="0.15" id="b1" /></g></g><g id="c1"><g transform="translate(86.10002, 95.99997) translate(44, 0)" id="d1"><path d="M45.1 1.4 C55.8 2.8 63.2 5.8 66.5 8.6 C69.8 11.4 74.2 15 76.3 20.8 C78.4 26.6 79.7 33.1 78.8 39.4 C78.2 43 76.1 49.2 74.9 52 C72.5 57.5 70.1 60 69 63.4 C67.8 67 66.4 72 65.1 77.1 C63.8 82.2 59.8 86.5 57.1 88.8 C54.8 90.7 50.1 90.1 49.3 90.8 C46.3 93.7 45.4 95 39 94.9 C32.6 94.9 29.6 91.2 29 90.8 C28.3 90.2 25.3 91.1 22.3 88.9 C19.2 86.6 15 84.1 12.5 77.3 C10 70.5 9.4 67.2 8.9 63.3 C8.1 57 2.9 49.8 1.9 46.5 C0.9 43.2 -1.9 29.5 2.2 20.7 C6.3 11.9 7.2 10.3 14.1 6.6 C18 4.6 25.3 1.9 30.3 1.4 C34.1 1 40.8 0.8 45.1 1.4 z" id="e1" fill="#EFE9E6" /><path d="M18.7 4.7 C20.9 4.5 22.8 4.3 24.3 4.2 C27.3 3.9 31.9 3.1 33.3 3.8 C36.7 5.8 37.9 6.8 39.9 6.9 C41.9 7.1 44.8 3.8 47 3.8 C48 3.8 51.4 4.2 54.6 4.3 C55.5 4.3 56.6 4.3 58 4.1 C50.9 1.9 44.7 0.8 39.5 0.8 C36.4 0.8 31.9 1.1 27.6 2 C25.5 2.4 22.6 3.3 18.7 4.7 z" id="f1" fill="#D07331" /><path d="M57 4.6 C57.1 4.6 57.2 4.6 57.4 4.6 C50.5 2.5 44.5 1.4 39.5 1.4 C37.7 1.4 35.3 1.5 32.8 1.8 C32 1.8 31.3 1.9 30.6 2 C25.8 2.5 18.7 5 15 7 C8.3 10.5 7.4 12 3.5 20.5 C-0.5 28.9 2.2 42 3.2 45.2 C4.1 48.3 9.2 55.2 9.9 61.2 C10.4 65 11 68.1 13.4 74.7 C15.8 81.2 19.9 83.6 22.9 85.8 C25.8 87.9 28.7 87 29.4 87.6 C29.9 88 32.8 91.5 39 91.5 C45.2 91.6 46.1 90.4 49 87.6 C49.7 86.9 54.3 87.5 56.5 85.7 C59.1 83.5 63 79.3 64.2 74.5 C65.5 69.6 66.8 64.8 68 61.3 C69.1 58.1 71.4 55.7 73.7 50.4 C74.9 47.7 76.9 41.8 77.5 38.4 C78.3 32.3 77.1 26.1 75.1 20.6 C73 15 68.8 11.5 65.6 8.9 C63.9 7.4 61 5.9 57 4.6 z M57.6 4.1 C61.7 5.5 64.7 7.1 66.5 8.6 C69.8 11.4 74.2 15 76.3 20.8 C78.4 26.6 79.7 33.1 78.8 39.4 C78.2 43 76.1 49.2 74.9 52 C72.5 57.5 70.1 60 69 63.4 C67.8 67 66.4 72 65.1 77.1 C63.8 82.2 59.8 86.5 57.1 88.8 C54.8 90.7 50.1 90.1 49.3 90.8 C46.3 93.7 45.4 95 39 94.9 C32.6 94.9 29.6 91.2 29 90.8 C28.3 90.2 25.3 91.1 22.3 88.9 C19.2 86.6 15 84.1 12.5 77.3 C10 70.5 9.4 67.2 8.9 63.3 C8.1 57 2.9 49.8 1.9 46.5 C0.9 43.2 -1.9 29.5 2.2 20.7 C6.3 11.9 7.2 10.3 14.1 6.6 C18 4.6 25.3 1.9 30.3 1.4 C31 1.3 31.7 1.3 32.6 1.2 C35.2 0.9 37.6 0.8 39.5 0.8 C44.7 0.8 50.9 1.9 58 4.1 C57.9 4.1 57.7 4.1 57.6 4.1 z" opacity="0.45" id="g1" /></g><g transform="translate(93.30001, 76.99997) translate(21, 2)" id="h1"><g transform="translate(18.02073, 23.28844) scale(-1, 1) rotate(-6, 0, 0) translate(-18.02073, -23.28844) translate(2.520727, 1.788439)" id="i1"><path d="M1.7 25.8 C-1.9 23.8 -2.7 23.7 -1.4 20.5 C-0.1 17.3 2.4 17.8 5 15.3 C7.6 12.8 13.5 8.6 17.4 6.7 C21.3 4.8 23.7 2.5 25.7 4.7 C27.7 6.9 29.1 12.8 28 18.9 C26.9 25 23.5 30.4 23.1 33.3 C22.7 36.2 21.9 40.6 20.2 42.9 C19.7 43.6 18.2 45.3 17.3 45.8 C15.4 46.7 14 44.9 12.6 41.3 C12.3 40.4 10.5 34.3 8.6 32.4 C6.3 29.9 5.4 27.8 1.7 25.8 z" id="j1" fill="#46494D" /><path d="M1.7 25.8 C-1.9 23.8 -2.7 23.7 -1.4 20.5 C-0.1 17.3 2.4 17.8 5 15.3 C7.6 12.8 13.5 8.6 17.4 6.7 C21.3 4.8 23.7 2.5 25.7 4.7 C27.7 6.9 29.1 12.8 28 18.9 C26.9 25 23.5 30.4 23.1 33.3 C22.7 36.2 21.9 40.6 20.2 42.9 C19.7 43.6 18.2 45.3 17.3 45.8 C15.4 46.7 14 44.9 12.6 41.3 C12.3 40.4 10.5 34.3 8.6 32.4 C6.3 29.9 5.4 27.8 1.7 25.8 z M3.9 24.6 C7.2 26.4 8 28.3 10 30.5 C11.7 32.2 13.3 37.7 13.6 38.5 C14.8 41.7 16.1 43.4 17.8 42.5 C18.6 42.1 19.9 40.5 20.4 39.9 C21.9 37.8 22.6 33.9 23 31.3 C23.4 28.7 26.4 23.8 27.4 18.3 C28.4 12.8 27.1 7.5 25.4 5.5 C23.6 3.5 21.5 5.6 18 7.3 C14.5 9 9.3 12.8 6.9 15 C4.5 17.2 2.4 16.8 1.2 19.7 C0 22.6 0.7 22.8 3.9 24.6 z" opacity="0.15" id="k1" /><path d="M5.7 24.6 C3.7 23.6 2.3 23 3.3 20.4 C3.9 18.9 7.5 16.8 10.9 14.2 C13.3 12.3 16.2 10.3 18 9.3 C20.6 7.8 21.8 6.3 23.5 7.6 C25.1 8.9 26.5 14.5 25.7 19.2 C24.9 24 20 35.8 18.7 37.6 C17.4 39.4 16.1 42.4 14.5 38.2 C12.9 34 12.6 31.4 10.9 29.6 C9.2 27.8 7.7 25.6 5.7 24.6 z" id="l1" fill="#EFE9E6" /><path d="M8.2 26.4 C8.3 25.4 9.1 23.7 9.3 23.3 C9.6 22.7 12.3 21.1 14.6 19.7 C15.6 19 18.6 17.4 18.6 17.4 C20.2 16.5 20.1 19.9 18.6 22.6 C17.7 24.2 15.1 29.9 13.3 31.6 C12.7 32.2 12.2 31.1 11 29.5 C9.9 28.1 8.1 26.8 8.2 26.4 z" opacity="0.5" id="m1" fill="#46494D" /></g></g><g transform="translate(98.49999, 76.49997) translate(100.9, 24.5) scale(-1, 1) translate(-100.9, -24.5) translate(82.40002, 0)" id="n1"><g transform="translate(18.19189, 24.4854) scale(-1, 1) rotate(-7, 0, 0) translate(-18.19189, -24.4854) translate(2.691893, 2.485396)" id="o1"><path d="M5.4 26.9 C1.8 24.9 1 24.8 2.3 21.6 C3.6 18.4 6.1 18.9 8.7 16.4 C11.3 13.9 17.2 9.7 21.1 7.8 C25 5.9 27.4 3.6 29.4 5.8 C31.4 8 32.8 14 31.7 20.1 C30.7 26.2 27.1 31.6 26.8 34.5 C26.4 37.4 25.6 41.8 23.9 44.1 C23.4 44.8 21.9 46.5 21 47 C19.1 47.9 18.5 47.3 17.1 43.7 C16.8 42.8 17 42 16.7 41.2 C15.3 37.5 14.2 35.4 12.3 33.5 C9.9 31.1 9 29 5.4 26.9 z" id="p1" fill="#46494D" /><path d="M5.4 26.9 C1.8 24.9 1 24.8 2.3 21.6 C3.6 18.4 6.1 18.9 8.7 16.4 C11.3 13.9 17.2 9.7 21.1 7.8 C25 5.9 27.4 3.6 29.4 5.8 C31.4 8 32.8 14 31.7 20.1 C30.7 26.2 27.1 31.6 26.8 34.5 C26.4 37.4 25.6 41.8 23.9 44.1 C23.4 44.8 21.9 46.5 21 47 C19.1 47.9 18.5 47.3 17.1 43.7 C16.8 42.8 17 42 16.7 41.2 C15.3 37.5 14.2 35.4 12.3 33.5 C9.9 31.1 9 29 5.4 26.9 z M7.1 25.9 C10.4 27.8 11.2 29.8 13.4 32 C15.1 33.8 16.2 35.7 17.4 39.1 C17.7 39.8 17.5 40.6 17.8 41.4 C19.1 44.7 19.6 45.3 21.4 44.4 C22.2 43.9 23.6 42.4 24.1 41.7 C25.7 39.6 26.4 35.5 26.8 32.8 C27.1 30.1 30.4 25.1 31.3 19.5 C32.3 13.9 31 8.3 29.2 6.3 C27.4 4.3 25.2 6.4 21.6 8.1 C18 9.8 12.6 13.7 10.2 16 C7.8 18.3 5.5 17.8 4.3 20.8 C3.1 23.8 3.8 24.1 7.1 25.9 z" opacity="0.15" id="q1" /><path d="M9.4 25.7 C7.4 24.7 6 24.1 7 21.5 C7.6 20 11.2 17.9 14.6 15.3 C17 13.4 19.9 11.4 21.7 10.4 C24.3 8.9 25.5 7.4 27.2 8.7 C28.8 10 30.2 15.6 29.4 20.3 C28.6 25.1 23.7 36.9 22.4 38.7 C21.1 40.5 19.8 43.5 18.2 39.3 C16.6 35.1 16.3 32.5 14.6 30.7 C12.9 29 11.4 26.8 9.4 25.7 z" id="r1" fill="#EFE9E6" /><path d="M11.5 26.9 C11.6 25.9 12.8 24.9 13 24.5 C13.3 23.9 16 22.3 18.3 20.9 C19.3 20.2 22.3 18.6 22.3 18.6 C23.9 17.7 23.8 21.1 22.3 23.8 C21.4 25.4 18.8 31.1 17 32.8 C15.8 33.9 14.9 30.4 14.4 30.5 C13.3 28.9 11.4 27.8 11.5 26.9 z" opacity="0.5" id="s1" fill="#46494D" /></g></g><g id="t1"><g transform="translate(107.3, 88.99996) translate(35, 23)" id="u1"><g id="v1"><path d="M37.5 66.1 C35.6 63 34.6 61.1 27.5 61.1 C20.4 61.1 20.5 63 18.5 66.1 C17.8 67.2 15.4 69 14.6 70.5 C19.1 72.1 21.5 73.3 27.3 73.2 C32.7 73.1 36.4 72 41.2 70.1 C40.1 68.4 38.1 67.1 37.5 66.1 z" id="w1" fill="#FFF" /><path d="M50.6 46 C45.1 33.7 39 30 27.5 30 C16 30 9.9 33.8 4.4 46 C0.2 55.4 -0.9 65.6 0.8 68.7 C4 74.4 13 76.5 15.7 71.9 C16.6 70.4 17.2 68.7 17.7 67.1 C18.1 66.7 18.4 66.3 18.5 66.1 C20.4 63 20.4 61.1 27.5 61.1 C33.2 61.1 34.9 62.3 36.4 64.4 C37.3 66.8 37.9 69.5 39.3 71.9 C42 76.5 50.9 74.4 54.2 68.7 C55.9 65.6 54.8 55.4 50.6 46 z" id="x1" fill="#FFF" /><path d="M15.4 26.9 C20.4 24.7 22.2 21.1 24.1 16.1 C24.7 19.5 25.4 23.5 24.7 25.3 C22.9 29.9 18.8 29.5 16 31.5 C13.3 33.5 11.4 36.2 9.8 39.2 C9.7 38.7 8.8 39 8.3 39.6 C7.9 34.7 10.9 28.9 15.4 26.9 z" id="y1" fill="#FFF" /><path d="M39.6 26.9 C34.6 24.7 32.8 21.1 30.9 16.1 C30.3 19.5 29.6 23.5 30.3 25.3 C32.1 29.9 36.2 29.5 39 31.5 C41.7 33.5 43.6 36.2 45.2 39.2 C45.3 38.7 46.2 39 46.7 39.6 C47.1 34.7 44.1 28.9 39.6 26.9 z" id="z1" fill="#FFF" /><path d="M38 30 C34.3 27.5 31.9 27.9 30.9 25 C30.1 22.7 31.4 10.7 31.5 8.9 C32.3 0 27.5 0.5 27.5 0.5 C27.5 0.5 22.7 0 23.5 8.9 C23.7 10.7 24.9 22.8 24.1 25 C23.1 27.9 20.7 27.4 17 30 C13.8 32.2 10.7 34.8 9.6 37.9 C12.1 36.9 13.1 35.2 16.4 33.5 C19.3 32 21.6 30.6 27.6 30.6 C33.6 30.6 35.9 32 38.8 33.5 C42.1 35.2 43.1 36.9 45.6 37.9 C44.4 34.8 41.3 32.2 38 30 z" id="a2" fill="#FFF" /><path d="M15.4 26.9 C20.4 24.7 22.2 21.1 24.1 16.1 C24.1 16.2 24.1 16.3 24.1 16.4 C23.9 13 23.6 9.8 23.5 8.9 C22.7 0 27.5 0.5 27.5 0.5 C27.5 0.5 32.3 0 31.5 8.9 C31.5 9.7 31.1 12.8 30.9 16.1 C32.8 21.1 34.6 24.7 39.6 26.9 C43.9 28.8 46.8 34.2 46.7 38.9 C48.1 40.9 49.4 43.2 50.6 46 C54.8 55.4 55.9 65.6 54.2 68.7 C50.9 74.4 42 76.5 39.3 71.9 C39.1 71.6 39 71.3 38.8 71 C35.1 72.3 31.8 73.1 27.3 73.2 C22.2 73.3 19.7 72.4 16.2 71.1 C16 71.3 15.9 71.6 15.7 71.9 C13 76.5 4 74.4 0.8 68.7 C-0.9 65.6 0.2 55.4 4.4 46 C5.6 43.2 6.9 40.9 8.3 39 C8.2 34.2 11.1 28.8 15.4 26.9 z M16 27.3 C12 29.1 9.2 34.3 9.3 38.9 C8 40.8 6.8 43 5.6 45.7 C1.7 54.8 0.6 64.6 2.2 67.6 C5.3 73.1 13.8 75.1 16.3 70.7 C16.5 70.4 16.7 70.1 16.8 69.8 C20.2 71.1 22.5 72 27.3 71.9 C31.5 71.8 34.7 71.1 38.2 69.8 C38.4 70.1 38.5 70.4 38.7 70.7 C41.2 75.1 49.6 73.1 52.8 67.6 C54.4 64.6 53.3 54.8 49.4 45.7 C48.2 43 47 40.8 45.7 38.9 C45.8 34.3 43 29.1 39 27.3 C34.2 25.2 32.1 21.4 30.3 16.6 C30.5 13.4 31.1 10.4 31.1 9.6 C31.9 1 27.4 1.1 27.4 1.1 C27.4 1.1 23.2 0.9 24 9.4 C24.1 10.3 24.5 12.7 24.7 16 C24.7 15.9 24 17.8 23.9 17.8 C22.1 22.6 20.8 25.2 16 27.3 z" opacity="0.15" id="b2" /><g transform="translate(8, 44)" id="c2" fill="#282421"><path d="M10.1 5.3 C9.4 4.9 8.4 5.5 8.3 6.4 C8.3 7.2 9.3 7.9 10 7.5 C10.7 7.1 10.9 6 10.2 5.5" id="d2" /><path d="M5.6 0.9 C4.9 0.5 3.9 1.1 3.8 2 C3.8 2.8 4.8 3.5 5.5 3.1 C6.2 2.7 6.4 1.6 5.7 1.1" id="e2" /><path d="M2.7 7.5 C2 7.1 1 7.7 0.9 8.6 C0.9 9.4 1.9 10.1 2.6 9.7 C3.3 9.3 3.5 8.2 2.8 7.7" id="f2" /><path d="M28.9 5.3 C29.6 4.9 30.6 5.5 30.7 6.4 C30.7 7.2 29.7 7.9 29 7.5 C28.3 7.1 28.1 6 28.8 5.5" id="g2" /><path d="M33.4 0.9 C34.1 0.5 35.1 1.1 35.2 2 C35.2 2.8 34.2 3.5 33.5 3.1 C32.8 2.7 32.6 1.6 33.3 1.1" id="h2" /><path d="M36.3 7.5 C37 7.1 38 7.7 38.1 8.6 C38.1 9.4 37.1 10.1 36.4 9.7 C35.7 9.3 35.5 8.2 36.2 7.7" id="i2" /></g></g></g><g transform="translate(169.8, 176.4) scale(1.2) translate(-169.8, -169.4) translate(109.4, 70.39996) translate(39, 80)" id="j2"><path d="M0.8 2.5 C0.9 3.5 1.7 5.7 2.3 7 C3.9 10.9 6.6 13.2 7.4 13.8 C11 16.7 14.3 16.6 21.5 16.6 C30.5 16.7 31.2 15.6 35.8 13.1 C41.7 9.9 42.9 1.6 42.9 0.8 C42.8 0 41.9 0 41.8 0.5 C41.6 1.1 41.7 2.5 41.5 3.1 C41.1 5 40.6 6 39.9 6.7 C38.1 8.6 35 10.2 32.4 10.3 C28.3 10.4 25.9 7.6 23.6 4.2 C23.3 3.7 22.6 3.4 21.4 3.1 C20.3 3.4 19.6 3.8 19.2 4.2 C16 7.9 13.7 10.6 11 10.6 C8.1 10.6 5.1 9 3.8 6.5 C3.2 5.2 2.5 3.9 1.9 1.6 C1.9 1.1 0.7 1.4 0.8 2.5 z" fill-opacity="0.1" id="k2" fill="#010101" /><g transform="translate(5, 7)" id="l2"><path d="M0.6 5.8 C5.2 7.6 9 7.6 11.9 5.8 C13.9 4.6 15.2 3.4 15.7 2.2 C15.9 1.8 16.1 1.5 16.3 1.2 C16.8 2.5 18.2 4 20.5 5.8 C22.8 7.6 26.5 7.6 31.6 5.8 C26.6 12.8 21.3 16.3 15.8 16.3 C10.3 16.3 5.3 12.8 0.6 5.8 z" id="m2" fill="#424242" /><path d="M8.8 13.5 L8.8 6.9 C10.6 6.3 11.7 5.9 12.2 5.6 C13.3 4.9 14.7 3.2 16.2 0.6 C18 3.2 19.7 4.9 21 5.8 C21.5 6.1 22.4 6.5 23.9 7 L23.9 13.5 C27.1 22.1 24.6 26.2 16.4 26 C8.4 25.7 5.8 21.6 8.8 13.5 z" id="n2" fill="#FFB8B3" /></g></g><g transform="translate(102.7, 77.59997) translate(56, 65)" id="o2"><g id="p2"><path d="M20.3 1.6 C18.3 -0.6 14.7 0.3 11.1 0.3 C7.5 0.3 3.9 -0.6 1.9 1.6 C-0.1 3.8 -0.1 7.6 1.9 9.8 C3.3 11.3 4.7 12.2 6.6 13.2 C8.2 14.1 9.3 16.2 11 16.4 C12.8 16.2 13.8 14 15.4 13.2 C17.4 12.2 18.8 11.3 20.1 9.8 C22.3 7.6 22.3 3.9 20.3 1.6 z" id="q2" fill="#282523" /><path d="M16.8 3.2 C16.6 2.6 15.3 2.5 14.4 2.3 C12.8 2 10.5 2.2 7.8 2.2 C7.1 2.2 6.4 2.2 5.7 2.5 C5 2.8 4.6 3.5 4.7 4.2 C4.9 5.4 6.4 5.6 7.6 5.6 C9.5 5.6 11.5 5.6 13.4 5.5 C14.2 5.5 15 5.5 15.8 5.1 C16.6 4.7 17.1 4 16.8 3.2 z" id="r2" fill="#FEFEFE" /></g></g><g transform="translate(107.3, 88.99995) translate(28, 31)" id="s2"><g id="t2"><path d="M27.4 14.8 C22.7 14.2 24.5 5.1 19.1 1.5 C15.1 -1.3 8.2 2.3 5.5 4.5 C1.9 7.3 -0.5 10.3 0.1 14.8 C0.7 19.3 4 23.4 8.3 24.9 C11.9 26.1 15.9 25.6 19.5 24.1 C22 23 30.4 15.1 27.4 14.8 z" id="u2" fill="#FFFCFA" /><path d="M5.1 12.4 C5.1 10.8 7.5 10 9.7 8.3 C10.5 7.7 12 6.6 13.8 6.6 C16.3 6.6 18.1 8.3 19.3 10.3 C20.6 12.5 22.2 14.7 21.7 15.7 C21.2 16.9 18.6 17.2 16 18.1 C14.8 18.5 11.4 18.4 9.5 16.8 C7.5 15 5.1 13.3 5.1 12.4 z" id="v2" fill="#D1CDCB" /><path d="M18.6 10.5 C18.4 10.1 18.2 9.8 17.9 9.5 C17.1 8.6 15.9 8.1 14.6 8.1 C13.9 8.1 13.3 8.3 12.7 8.5 C12.6 8.5 12.6 8.6 12.5 8.6 C12.3 8.7 12.1 8.8 11.9 8.9 C10.1 9.9 8.2 10.7 7.9 12.1 C7.7 13.1 9.8 14.7 11.6 16.1 C11.8 16.2 11.9 16.4 12.1 16.5 C12.1 16.5 12.2 16.5 12.2 16.6 C12.9 17 13.7 17.2 14.5 17.2 C14.7 17.2 14.9 17.2 15.1 17.1 L15.2 17.1 C15.5 17.1 15.7 17 16 16.9 C17.9 16.5 20.2 16.2 20.6 15 C21.1 14.2 19.9 12.3 18.6 10.5 z" id="w2" fill="#282421" /><path d="M11.5 12.4 C12 12.8 12.7 12.5 13.3 12.2 C14.5 11.6 17.1 10.9 17 10.4 C16.9 9.9 15.4 9.5 15.2 9.4 C14.5 9.2 13.5 9.2 12.9 9.5 C12.1 10 10.4 11.5 11.5 12.4 z" id="x2" fill="#FFFAF8" /></g></g><g transform="translate(107.3, 88.99995) translate(68, 31)" id="y2"><g id="z2"><path d="M1.6 14.8 C6.3 14.2 5.3 5.1 10.6 1.5 C14.6 -1.3 20.8 2.3 23.5 4.5 C27.1 7.3 29.5 10.3 28.9 14.8 C28.3 19.3 25 23.4 20.7 24.9 C17.1 26.1 13.1 25.6 9.5 24.1 C6.9 23 -1.4 15.1 1.6 14.8 z" id="a3" fill="#FFFCFA" /><path d="M23.9 12.4 C23.9 10.8 21.5 10 19.3 8.3 C18.5 7.7 17 6.6 15.2 6.6 C12.7 6.6 10.9 8.3 9.7 10.3 C8.4 12.5 6.8 14.7 7.3 15.7 C7.8 16.9 10.4 17.2 13 18.1 C14.2 18.5 17.6 18.4 19.5 16.8 C21.5 15 23.9 13.3 23.9 12.4 z" id="b3" fill="#D1CDCB" /><path d="M17.1 9 C16.9 8.9 16.7 8.8 16.5 8.7 C16.4 8.7 16.4 8.6 16.3 8.6 C15.7 8.3 15.1 8.2 14.4 8.2 C13.1 8.2 12 8.7 11.1 9.6 C10.8 9.9 10.5 10.3 10.3 10.7 C9.1 12.4 7.8 14.4 8.2 15.3 C8.7 16.5 10.9 16.8 12.8 17.2 C13.1 17.3 13.3 17.4 13.6 17.4 L13.7 17.4 C13.9 17.4 14.1 17.4 14.3 17.4 C15.2 17.4 15.9 17.2 16.6 16.7 C16.6 16.7 16.7 16.7 16.7 16.6 C16.9 16.5 17.1 16.3 17.2 16.2 C19.1 14.8 21.1 13.2 20.9 12.2 C20.8 10.8 18.9 10.1 17.1 9 z" id="c3" fill="#282421" /><path d="M11.1 12 C11.6 12.4 12.3 12.1 12.9 11.8 C14.1 11.2 16.7 10.5 16.6 10 C16.5 9.5 15 9.1 14.8 9 C14.1 8.8 13.1 8.8 12.5 9.1 C11.6 9.5 9.9 11.1 11.1 12 z" id="d3" fill="#FFFAF8" /></g></g></g></g></g></g><defs><g transform="translate(17.09519, 0.800995) translate(-135.2952, -293.601)" id="e3" fill="#000"><path d="M118.2 302.7 C118.4 307.4 132.5 311.2 149.8 311.2 C167.1 311.2 181.2 307.4 181.4 302.7 C181.4 307.5 181.4 310.1 181.4 310.5 C181.4 315.3 167.3 319.1 149.8 319.1 C132.3 319.1 118.2 315.2 118.2 310.5 L118.2 302.7 L118.2 302.7 z" fill-opacity="0.4528" id="f3" fill="#593001" /><path d="M118.7 301.7 C118.9 306.4 133 310.2 150.3 310.2 C167.6 310.2 181.7 306.4 181.9 301.7 C181.9 306.5 181.9 309.1 181.9 309.5 C181.9 314.3 167.8 318.1 150.3 318.1 C132.8 318.1 118.7 314.2 118.7 309.5 L118.7 301.7 L118.7 301.7 z" id="g3" fill="#DA8113" /><linearGradient x1="46.0545" y1="-118.6926" x2="45.4656" y2="-118.6926" gradientUnits="userSpaceOnUse" gradientTransform="matrix(117.135, 0, 0, 28.4634, -5208.417, 3687.795)" id="h3"><stop offset="0%" stop-color="#D9952A" stop-opacity="1" /><stop offset="6.438854%" stop-color="#CA7519" stop-opacity="1" /><stop offset="30.54%" stop-color="#E3AD3A" stop-opacity="1" /><stop offset="51.05%" stop-color="#FFEC91" stop-opacity="1" /><stop offset="68.8%" stop-color="#E9BD44" stop-opacity="1" /><stop offset="86.24%" stop-color="#FFED6C" stop-opacity="1" /><stop offset="93.87%" stop-color="#F2D353" stop-opacity="1" /><stop offset="100%" stop-color="#F2B947" stop-opacity="1" /></linearGradient><path d="M118.2 301.6 C118.4 306.1 132.7 309.7 150.3 309.7 C167.9 309.7 182.2 306.1 182.4 301.6 C182.4 306.2 182.4 308.7 182.4 309 C182.4 313.5 168 317.2 150.3 317.2 C132.6 317.2 118.2 313.5 118.2 309 L118.2 301.6 L118.2 301.6 z" id="i3" style="fill:url(#h3)" /><linearGradient x1="45.4914" y1="-117.9547" x2="45.9407" y2="-117.5895" gradientUnits="userSpaceOnUse" gradientTransform="matrix(115.425, 0, 0, 29.925, -5125.077, 3826.124)" id="j3"><stop offset="0%" stop-color="#F4E072" stop-opacity="1" /><stop offset="100%" stop-color="#DB9427" stop-opacity="1" /></linearGradient><ellipse cx="150.3" cy="301.5" rx="31.6" ry="8.2" id="k3" style="fill:url(#j3)" /><linearGradient x1="45.4656" y1="-126.0065" x2="46.0545" y2="-126.0065" gradientUnits="userSpaceOnUse" gradientTransform="matrix(117.135, 0, 0, 18.6219, -5208.417, 2651.479)" id="l3"><stop offset="0%" stop-color="#D9952A" stop-opacity="1" /><stop offset="6.438854%" stop-color="#CA7519" stop-opacity="1" /><stop offset="30.54%" stop-color="#E3AD3A" stop-opacity="1" /><stop offset="51.05%" stop-color="#FFEC91" stop-opacity="1" /><stop offset="68.8%" stop-color="#E9BD44" stop-opacity="1" /><stop offset="86.24%" stop-color="#FFED6C" stop-opacity="1" /><stop offset="93.87%" stop-color="#F2D353" stop-opacity="1" /><stop offset="100%" stop-color="#F2B947" stop-opacity="1" /></linearGradient><path d="M119.2 299.9 C119 300.2 118.9 300.6 118.9 301 C118.9 305.5 132.9 309.2 150.3 309.2 C167.7 309.2 181.7 305.5 181.7 301 C181.7 300.6 181.6 300.3 181.4 299.9 C182 300.5 182.4 301.2 182.4 301.9 C182.4 306.4 168 310.1 150.3 310.1 C132.6 310.1 118.2 306.4 118.2 301.9 C118.2 301.3 118.6 300.6 119.2 299.9 z" id="m3" style="fill:url(#l3)" /><linearGradient x1="45.196" y1="-121.5895" x2="45.3746" y2="-120.6758" gradientUnits="userSpaceOnUse" gradientTransform="matrix(101.745, 0, 0, 23.94, -4458.332, 3199.41)" id="n3"><stop offset="0%" stop-color="#F8DD61" stop-opacity="1" /><stop offset="100%" stop-color="#EAA330" stop-opacity="1" /></linearGradient><ellipse cx="150.3" cy="300.8" rx="27.8" ry="6.6" id="o3" style="fill:url(#n3)" /><linearGradient x1="45.5694" y1="-134.267" x2="45.0221" y2="-134.267" gradientUnits="userSpaceOnUse" gradientTransform="matrix(101.745, 0, 0, 13.2525, -4458.332, 2077.223)" id="p3"><stop offset="0%" stop-color="#F4CA2F" stop-opacity="1" /><stop offset="51.38%" stop-color="#BF7737" stop-opacity="1" /><stop offset="100%" stop-color="#E4A929" stop-opacity="1" /></linearGradient><path d="M122.6 301.5 C122.5 301.3 122.4 301 122.4 300.8 C122.4 297.2 134.9 294.2 150.2 294.2 C165.5 294.2 178 297.1 178 300.8 C178 301 177.9 301.3 177.8 301.5 C176.3 298.2 164.5 295.6 150.1 295.6 C135.7 295.6 124.1 298.2 122.6 301.5 z" id="q3" style="fill:url(#p3)" /></g></defs><desc>4J768EGODG4,2fF1Z+dl6YCzCpsMlMp2AdT97ePHdzEFvRQ01SO88V9E9S3ax+QL8j4oWzRTAiDLmKecFgnk6StqKsQu2tnjL9bdBZA0yIE5T1vRGwIoCftCuk1lj3TbW/1X2Nn9zLRZ</desc></svg>