<?xml version="1.0" encoding="utf-8"?><!DOCTYPE svg PUBLIC "-//W3C//DTD SVG 1.1//EN" "http://www.w3.org/Graphics/SVG/1.1/DTD/svg11.dtd"><svg x="0" y="0" width="340px" height="340px" viewBox="0, 0, 340, 340" preserveAspectRatio="xMidYMid" font-size="0" id="a" enable-background="new 0 0 340 340" xmlns="http://www.w3.org/2000/svg" xmlns:xlink="http://www.w3.org/1999/xlink" xmlns:xml="http://www.w3.org/XML/1998/namespace" version="1.1"><g id="b" fill="#000"><g id="c"><g transform="translate(0, 0) translate(0, 224)" id="d"><ellipse cx="168.6" cy="53.1" rx="57.8" ry="12.8" fill-opacity="0.25" id="e" /></g><g id="f"><g transform="translate(84.7, 88.19998) translate(32.5, 177.5) scale(-1, 1) translate(-32.5, -177.5) translate(0, 152)" id="g"><path d="M29.6 27.4 C51.4 29 52.4 37.4 52 41.3 C51.9 42.7 50.9 42.4 48.4 43.4 C46.1 44.4 45.7 45.2 43.7 45.6 C41.5 46 39.1 46 38.3 47.2 C37.5 48.4 34.2 51 37 50.7 C37.5 50.6 40.4 50.7 41.6 50.7 C42.8 50.7 45.7 48.5 46.2 48.5 C46.4 48.5 44 50.8 44.2 50.7 C45.2 50.5 48.9 47.9 49.9 47.7 C51.5 47.3 51 49.2 52.6 48.7 C53.9 48.2 57.3 45.3 58.4 44.7 C59.3 44.2 58.8 46.1 59.5 45.6 C60.2 45 62.1 41.1 62.5 40.4 C62.9 39.7 63.2 39.8 63.4 39.1 C63.6 38.3 63 35.1 63 34.3 C63 33.1 64.7 34.8 64.2 33.6 C63.8 32.7 62.7 29.4 62.1 28.5 C61.3 27.4 60.2 26 59 25 C58.3 24.4 60.7 25.7 62.1 26.6 C63.5 27.5 62 24 60.3 22.2 C59.2 21.1 56.3 19.1 55.2 18.9 C53.4 18.5 50.6 17.6 48 17.3 C46.6 17.1 44.6 17.4 44.4 17.3 C43.1 16.9 50 17 51.1 16.6 C51.7 16.4 50.5 15.9 49.2 15.4 C48.6 15.2 47 14.9 46.3 14.8 C45 14.7 42.4 14.3 39.8 14.4 C37.9 14.4 35.6 14.9 35.4 14.8 C33.8 14.4 40.2 13.9 38.5 13.5 C37.2 13.2 29.5 13.3 28.1 13 C21.3 12 16.4 15.5 10.1 17 C3.4 18.6 -3.8 23.7 3.9 27.4 C7.9 29.4 17.9 26.5 29.6 27.4 z" id="h" fill="#232733" /><path d="M26.9 29.4 C29.4 29.6 33.4 29.1 35.3 29.4 C35.7 29.5 38.9 30.1 40 30.7 C41.6 31.6 43.1 33.8 44.1 33.8 C45 33.8 43.5 30.7 44.1 31 C45.6 31.7 45.5 34 46.3 34.2 C47.1 34.5 47 32.8 48 34.2 C48.9 35.4 49.1 37.7 49.6 38 C50.5 38.5 50.5 35.7 51 36.3 C51.6 36.9 50.8 38.4 51 38.9 C51.6 40.2 51.9 39.6 51.7 40.9 C51.6 41.7 51.1 42.8 50.1 43.4 C50.2 43.4 50.6 43.1 50.6 43.1 C54.8 40 56 37.6 55 35.2 C54.4 33.8 56.2 33.7 55 32.2 C54.3 31.3 51.2 28.9 49.6 28.1 C48.4 27.5 51.3 27.4 49.6 26.7 C48.6 26.3 42.2 25.7 41.1 25.5 C39.5 25.1 42.2 24.7 40.2 24.3 C35.7 23.4 25.8 22.3 19.5 21 C15.1 20.8 11.3 21.5 8.1 23.2 C4.9 24.9 4 26.5 5.3 28.1 C5.3 28.4 13.3 28.3 14.8 29.1 C19.6 29.4 21.3 28.9 26.9 29.4 z" id="i" fill="#171B24" /><path d="M5.1 27.8 C4.7 27.7 4.3 27.6 3.9 27.4 C-3.8 23.7 3.4 18.6 10.1 17 C16.4 15.5 21.3 12 28.1 13 C29.5 13.3 37.2 13.2 38.5 13.5 C40.2 13.9 33.8 14.4 35.4 14.8 C35.6 14.9 37.9 14.4 39.8 14.4 C42.4 14.3 45 14.7 46.3 14.8 C47 14.9 48.6 15.2 49.2 15.4 C50.5 15.9 51.7 16.4 51.1 16.6 C50 17 43.1 16.9 44.4 17.3 C44.6 17.4 46.6 17.1 48 17.3 C50.6 17.6 53.4 18.5 55.2 18.9 C56.3 19.1 59.2 21.1 60.3 22.2 C62 24 63.5 27.5 62.1 26.6 C60.7 25.7 58.3 24.4 59 25 C60.2 26 61.3 27.4 62.1 28.5 C62.7 29.4 63.8 32.7 64.2 33.6 C64.7 34.8 63 33.1 63 34.3 C63 35.1 63.6 38.3 63.4 39.1 C63.2 39.8 62.9 39.7 62.5 40.4 C62.1 41.1 60.2 45 59.5 45.6 C58.8 46.1 59.3 44.2 58.4 44.7 C57.3 45.3 53.9 48.2 52.6 48.7 C51 49.2 51.5 47.3 49.9 47.7 C48.9 47.9 45.2 50.5 44.2 50.7 C44 50.8 46.4 48.5 46.2 48.5 C45.7 48.5 42.8 50.7 41.6 50.7 C40.4 50.7 37.5 50.6 37 50.7 C34.2 51 37.5 48.4 38.3 47.2 C39.1 46 41.5 46 43.7 45.6 C45.7 45.2 46.1 44.4 48.4 43.4 C49.6 42.9 50.5 42.7 51 42.5 C51.4 42 51.6 41.4 51.7 40.9 C51.9 39.6 51.6 40.2 51 38.9 C50.8 38.4 51.6 36.9 51 36.3 C50.5 35.7 50.5 38.5 49.6 38 C49.1 37.7 48.9 35.4 48 34.2 C47 32.8 47.1 34.5 46.3 34.2 C45.5 34 45.6 31.7 44.1 31 C43.5 30.7 45 33.8 44.1 33.8 C43.1 33.8 41.6 31.6 40 30.7 C38.9 30.1 35.7 29.5 35.3 29.4 C33.4 29.1 29.4 29.6 26.9 29.4 C21.3 28.9 19.6 29.4 14.8 29.1 C13.3 28.3 5.3 28.4 5.3 28.1 C5.2 28 5.2 27.9 5.1 27.8 z M10.2 26.9 C10.5 27.1 10.9 27.2 11.3 27.3 C11.3 27.4 11.4 27.4 11.5 27.5 C11.5 27.8 18.5 27.7 19.9 28.4 C24.1 28.7 25.6 28.2 30.5 28.7 C32.8 28.9 34.5 27.6 36.2 27.9 C36.6 28 39.3 29 40.2 29.6 C41.6 30.4 42.6 32.4 43.5 32.4 C44.3 32.4 42.6 29.3 43.2 29.6 C44.5 30.2 45.9 32.5 46.6 32.7 C47.3 32.9 48.3 31.7 49.2 32.9 C50 34 49.4 35.6 49.8 35.9 C50.6 36.3 50.9 33.9 51.3 34.4 C51.9 34.9 51.7 36.6 51.8 37.1 C52.4 38.2 52.6 37.7 52.5 38.8 C52.4 39.3 52.6 40.9 52.2 41.4 C51.7 41.6 51.2 43.1 50.1 43.5 C48.1 44.4 48.9 44.5 47.2 44.8 C44.9 46.1 40 46.7 39.3 47.8 C38.6 48.8 36.1 50.2 38.6 50 C39 49.9 42.1 48.4 43.2 48.4 C44.2 48.4 46.7 46.1 47.2 46.1 C47.3 46.1 47.9 47.6 48 47.5 C48.9 47.3 50 45 50.9 44.8 C52.3 44.5 51.8 46.2 53.3 45.7 C54.4 45.3 57.4 42.7 58.4 42.2 C59.2 41.8 59.7 42.9 60.3 42.5 C60.9 42 61.6 39 62 38.4 C62.4 37.8 62.2 37.7 62.4 37.1 C62.6 36.4 61.6 34.1 61.6 33.4 C61.6 32.3 63.2 34 62.8 32.9 C62.4 32.1 61.4 28.9 60.8 28.1 C60.1 27.2 58.8 25.3 57.7 24.4 C57.1 23.9 58.9 24 60.1 24.8 C61.3 25.6 60.4 23.8 58.9 22.2 C57.9 21.2 54.8 19.7 53.8 19.6 C52.2 19.2 46.2 18.4 43.9 18.1 C42.6 17.9 39.6 17.8 39.5 17.7 C38.3 17.4 41 17 41.9 16.6 C42.5 16.4 50 16.4 48.9 16 C48.3 15.8 46.4 15.5 45.8 15.4 C44.7 15.3 44.2 15.3 41.9 15.4 C40.3 15.4 33.1 15.1 32.9 15 C31.5 14.7 37.7 14.2 36.2 13.8 C35.1 13.6 30 14.1 28.8 13.8 C22.8 12.9 21.3 16.4 15.7 17.7 C9.8 19.1 3.4 23.6 10.2 26.9 z" opacity="0.15" id="j" /></g><g transform="translate(128.9733, 273.9) scale(0.5101488) translate(-125.7, -273.9) translate(89.10001, 85.39998) translate(29, 123)" id="k"><g transform="translate(22.5, 34.5) scale(-1, 1) translate(-22.5, -34.5)" id="l"><path d="M0.5 21.2 C0.5 5.6 29.7 -5.2 40.3 4.4 C49.4 12.7 41.6 31.9 40.3 33.7 C39.4 34.9 36.1 41.1 30.4 52.5 C37.7 55.2 41.3 58.4 41.3 62.1 C41.3 63.8 41.3 66.1 39.6 67.4 C38.3 68.4 19.6 68.3 15.4 67.4 C11.2 66.5 0.3 66.2 0.5 57.8 C0.7 48.8 0.5 29.2 0.5 21.2 z" id="m" fill="#171B24" /><path d="M0.5 21.2 C0.5 5.6 29.7 -5.2 40.3 4.4 C49.4 12.7 41.6 31.9 40.3 33.7 C39.4 34.9 36.1 41.1 30.4 52.5 C37.7 55.2 41.3 58.4 41.3 62.1 C41.3 63.8 41.3 66.1 39.6 67.4 C38.3 68.4 19.6 68.3 15.4 67.4 C11.2 66.5 0.3 66.2 0.5 57.8 C0.7 48.8 0.5 29.2 0.5 21.2 z M2 21.6 C2 25.7 2.6 32.8 2.5 39.9 C2.4 45.8 1.6 51.8 1.6 55.7 C1.4 63.7 11.3 64.4 15.3 65.3 C19.3 66.2 36.4 66.9 37.7 65.9 C39.3 64.7 39.3 63 39.3 61.4 C39.3 57.9 34.4 55.6 27.4 53 C32.8 42.1 37.7 34 38.5 32.9 C40.9 28.4 47 12.6 38.4 4.6 C28.3 -4.5 2 6.8 2 21.6 z" opacity="0.15" id="n" /></g></g><g transform="translate(211.4267, 273.9) scale(0.5101488) translate(-214.7, -273.9) translate(93.20001, 85.39998) translate(107, 157.5) scale(-1, 1) translate(-107, -157.5) translate(85, 123)" id="o"><g id="p"><path d="M42.8 20.7 C42.8 5.1 15.8 -5.2 5.2 4.4 C-3.9 12.7 3.9 31.9 5.2 33.7 C6.1 34.9 9.4 41.1 15.1 52.5 C7.8 55.2 4.2 58.4 4.2 62.1 C4.2 63.8 4.2 66.1 5.9 67.4 C7.2 68.4 24.3 69 30.1 67.4 C30.3 67.3 33.1 66.7 34 66.4 C37.5 65.2 42.4 63.3 42.7 59.9 C44.2 44.3 42.8 29.9 42.8 20.7 z" id="q" fill="#171B24" /><path d="M42.8 20.7 C42.8 29.9 44.2 44.3 42.7 59.9 C42.4 63.3 37.5 65.2 34 66.4 C33.1 66.7 30.3 67.3 30.1 67.4 C24.2 69 7.2 68.4 5.9 67.4 C4.2 66.1 4.2 63.8 4.2 62.1 C4.2 58.4 7.8 55.2 15.1 52.5 C9.4 41.1 6.1 34.9 5.2 33.7 C3.9 31.9 -3.9 12.7 5.2 4.4 C15.8 -5.2 42.8 5.1 42.8 20.7 z M41.8 20.4 C41.8 5.6 16.2 -4.4 6.1 4.8 C-2.5 12.6 6 30.7 7.3 32.4 C8.2 33.5 12.3 42.3 17.7 53.2 C10.8 55.8 5.6 58.3 5.6 61.8 C5.6 63.4 5.7 64.3 7.4 65.6 C8.6 66.5 24.1 67 29.7 65.5 C29.9 65.4 34.8 64.5 35.7 64.2 C39 63.1 41.6 60.9 41.9 57.7 C43.1 42.8 41.8 29.1 41.8 20.4 z" opacity="0.15" id="r" /></g></g><g transform="translate(105.2, 117.8) translate(21, 73)" id="s"><path d="M10.5 29 C2.2 36.2 3.6 47.2 4 51.8 C4.7 60 6.7 69.2 8.3 74.5 C9.9 79.9 11.9 86.2 19.8 86.7 C27.8 87.2 59 87.2 66.6 86.1 C74.2 84.9 75 84 77.5 78 C81 69.8 88.1 42.5 80.2 33.2 C78.3 31 77 29.6 75.1 28.2 C70.8 25.2 65.8 23.2 62.9 20.8 C60.2 18.6 55.6 14.7 54.8 14 C53 12.4 49.5 11.4 43.9 11.5 C40.1 11.6 36.6 13.5 35.1 14.5 C33.6 15.5 32.2 17.8 26.6 20.7 C21.7 23.6 14.9 25.5 10.5 29 z" id="t" fill="#232733" /><path d="M68.1 85.4 C56.4 86.5 47.8 87 42.1 87 C35.6 87 22 86.9 15.8 85.4 C13.5 84.8 12.8 82.9 12.9 82.3 C13.1 80.9 14.4 79.5 16.9 78.3 L26.7 74.4 L26.7 74.6 C32.5 72.5 37.4 71.5 41.3 71.5 C47.1 71.5 54.2 70.8 55.5 71.4 L66.8 74.6 C70.6 76 71.7 77.7 72.3 78.3 C73.4 79.3 74 79.4 74 81.4 C74 83.4 73 83.7 71.8 84.5 C71 84.8 69.8 85.2 68.1 85.4 z" id="u" fill="#665F57" /><path d="M10.5 29 C14.9 25.5 21.7 23.6 26.6 20.7 C32.2 17.8 33.6 15.5 35.1 14.5 C36.6 13.5 40.1 11.6 43.9 11.5 C49.5 11.4 53 12.4 54.8 14 C55.6 14.7 60.2 18.6 62.9 20.8 C65.8 23.2 70.8 25.2 75.1 28.2 C77 29.6 78.3 31 80.2 33.2 C88.1 42.5 81 69.8 77.5 78 C75 84 74.2 84.9 66.6 86.1 C59 87.2 27.8 87.2 19.8 86.7 C11.9 86.2 9.9 79.9 8.3 74.5 C6.7 69.2 4.7 60 4 51.8 C3.6 47.2 2.2 36.2 10.5 29 z M12 28.9 C4.1 35.8 5.4 46.2 5.8 50.6 C6.5 58.4 8.4 67.2 9.9 72.2 C11.4 77.3 13.3 83.4 20.9 83.8 C28.5 84.3 58.3 84.3 65.5 83.2 C72.7 82.1 73.5 81.2 75.9 75.5 C79.2 67.7 86 41.7 78.5 32.8 C76.7 30.7 75.4 29.4 73.6 28 C69.5 25.1 64.7 23.2 62 20.9 C59.4 18.8 55 15.1 54.3 14.4 C52.6 12.9 49.2 11.9 43.9 12 C40.3 12.1 36.9 13.9 35.5 14.9 C34.1 15.9 32.7 18 27.4 20.8 C22.7 23.8 16.2 25.6 12 28.9 z" opacity="0.15" id="v" /><path d="M41 46.4 C51.1 48.7 74.9 44.4 76 27.8 C69.6 20.2 62.8 20.2 60.1 15 C57.5 9.8 57 7.3 55.6 2.9 C54.8 0.1 35.4 -1.1 31.8 1.3 C29.7 1.5 28.2 7.5 24.6 15 C22.1 20.9 20 18.3 11 28.6 C12 43.4 31.4 46 41 46.4 z" id="w" fill="#665F57" /></g><g transform="translate(140.1797, 236.65) scale(0.7461423, 0.4686567) translate(-130, -215.6) translate(-284.9, 93.89998) translate(31, 116)" id="x"><path d="M440.7 20.9 C437.4 27 435.6 30.6 435.4 31.9 C434.9 33.7 434.1 60.9 434.6 71.5 C435.1 82.1 433.5 90 435 93.6 C436.5 97.2 433.3 102.1 437.6 103.8 C441.9 105.5 455.8 106.2 460 105.5 C464.1 104.8 462.3 98.7 461.6 96.7 C460.9 94.8 452.9 96 452.2 91.1 C451.5 86.1 454 75.1 456.7 66.9 C458.5 61.5 459.7 55.4 460.4 48.8 L452.6 16.6 L440.7 20.9 z" id="y" fill="#464854" /><path d="M435 35.9 C435.7 29.7 436.4 25.7 437.3 24.1 C440.6 17.9 445.3 14 446.6 12.5 C449.5 9.5 455.1 6.3 455.9 6 C456.7 5.7 461.5 16.2 462.4 21.9 C463.3 27.6 463.4 43.4 461.5 51.1 C460.2 56.5 459 60.4 457.7 63.6 C456.5 66.7 454.9 70.4 454.3 70.9 C453.8 71.3 453.7 67.4 453.3 68.2 C452 70.2 450.6 71.6 449 72.5 C451.4 67.5 452.9 62.9 453.6 58.7 C454.3 54.6 454.4 48.2 453.9 39.6 C453.3 32.4 452.1 28.3 450.2 27.3 C449 26.7 445.1 27.5 441 30.2 C439.7 31.2 437.7 33 435 35.9 z" id="z" fill="#F2E5D3" /><path d="M457.7 63.6 C457.4 64.7 457.1 65.8 456.7 66.9 C454 75.1 451.5 86.1 452.2 91.1 C452.9 96 460.9 94.8 461.6 96.7 C462.3 98.7 464.1 104.8 460 105.5 C455.8 106.2 441.9 105.5 437.6 103.8 C433.3 102.1 436.5 97.2 435 93.6 C433.5 90 435.1 82.1 434.6 71.5 C434.2 63.1 434.6 44.1 435.1 35.8 C435.1 35.8 435.1 35.9 435 35.9 C435 35.5 435.1 35.1 435.1 34.8 C435.2 33.3 435.3 32.2 435.4 31.9 C435.4 31.7 435.5 31.5 435.6 31.1 C436.1 27.6 436.7 25.2 437.3 24.1 C440.6 17.9 445.3 14 446.6 12.5 C449.5 9.5 455.1 6.3 455.9 6 C456.7 5.7 461.5 16.2 462.4 21.9 C463.3 27.6 463.4 43.4 461.5 51.1 C460.2 56.5 459 60.4 457.7 63.6 z M455.9 65.1 C456.2 64.1 456.5 63 456.8 62 C458 59 459.1 55.3 460.3 50.3 C462 43 461.9 28.1 461.1 22.9 C460.3 17.7 455.9 7.6 455.2 7.9 C454.5 8.2 449.3 11.2 446.7 14 C445.5 15.4 441.2 19.1 438.2 24.9 C437.6 26 437.1 28.2 436.7 31.5 C436.6 31.8 436.5 32 436.5 32.2 C436.4 32.5 436.3 33.5 436.3 34.9 C436.3 35.2 436.2 35.6 436.2 35.9 C435.8 43.7 436.3 61.6 436.7 69.6 C437.2 79.6 434.8 86.8 436.2 90.2 C437.6 93.6 434.6 98.2 438.6 99.8 C442.6 101.4 454.7 102.9 458.5 102.2 C462.2 101.5 461 99.6 460.4 97.7 C459.8 95.9 451.1 97.1 450.5 92.5 C449.7 87.8 453.4 72.8 455.9 65.1 z" opacity="0.15" id="a1" /><path d="M406.6 20.9 C409.9 27 411.7 30.6 411.9 31.9 C412.4 33.7 413.2 60.9 412.7 71.5 C412.2 82.1 413.8 90 412.3 93.6 C411.4 95.8 412.8 102.1 411.3 103.6 C408.2 105.8 391.5 105.5 387.8 105.8 C384.1 106.1 384 101.2 384.7 99.3 C385.1 98.2 385.8 97 388.4 95.3 C390.4 94 394.4 94.4 394.8 92.2 C395.5 87.2 393.4 75.1 390.7 66.9 C388.9 61.5 387.7 55.4 387 48.8 L394.7 16.6 L406.6 20.9 z" id="b1" fill="#464854" /><path d="M412.3 35.8 C411.6 29.6 410.9 25.6 410 24 C406.7 17.9 402 14 400.7 12.5 C397.8 9.5 392.2 6.3 391.4 6 C390.6 5.7 385.8 16.2 384.9 21.9 C384 27.6 383.9 43.4 385.8 51.1 C387.1 56.5 388.3 60.4 389.6 63.6 C390.8 66.7 392.4 70.4 393 70.9 C393.5 71.3 393.6 67.4 394 68.2 C395.3 70.2 396.7 72.3 398.3 74.4 C395.9 68.1 394.4 62.9 393.7 58.7 C393 54.6 392.9 48.2 393.4 39.6 C394 32.4 395.2 28.3 397.1 27.3 C398.3 26.7 402.2 27.5 406.3 30.2 C407.6 31.1 409.6 33 412.3 35.8 z" id="c1" fill="#F2E5D3" /><path d="M411.7 31.2 C411.8 31.5 411.8 31.7 411.9 31.9 C412 32.2 412.1 33.1 412.2 34.6 C412.2 35 412.3 35.4 412.3 35.8 L412.2 35.7 C412.6 44 413.1 63 412.7 71.5 C412.2 82.1 413.8 90 412.3 93.6 C411.4 95.8 412.8 102.1 411.3 103.6 C408.2 105.8 391.5 105.5 387.8 105.8 C384.1 106.1 384 101.2 384.7 99.3 C385.1 98.2 385.8 97 388.4 95.3 C390.4 94 394.4 94.4 394.8 92.2 C395.5 87.2 393.4 75.1 390.7 66.9 C390.4 66.1 390.2 65.3 390 64.5 C389.9 64.2 389.8 63.9 389.6 63.6 C388.3 60.4 387.1 56.5 385.8 51.1 C383.9 43.3 384 27.5 384.9 21.9 C385.8 16.2 390.6 5.7 391.4 6 C392.2 6.3 397.8 9.5 400.7 12.5 C402 14 406.7 17.9 410 24 C410.7 25.2 411.2 27.6 411.7 31.2 z M410.3 31.1 C409.8 27.7 409.3 25.4 408.7 24.3 C405.7 18.6 401.5 14.9 400.3 13.5 C397.7 10.7 392.6 7.7 391.9 7.4 C391.2 7.1 386.9 17 386 22.3 C385.1 27.6 385.2 42.6 386.9 49.8 C388.1 54.9 391.7 65 391.9 65.7 C394.3 73.4 396.8 89.1 396.2 93.7 C395.8 95.8 393 94.5 390.6 95.5 C388.2 96.5 387.2 97.9 386.9 98.9 C386.3 100.7 385.9 102.5 389.2 102.2 C392.5 101.9 406.8 102.5 409.6 100.4 C411 99 409.9 91.6 410.7 89.5 C412.1 86.1 410.6 78.7 411.1 68.8 C411.5 60.8 411.1 43 410.7 35.3 C410.7 34.9 410.6 34.5 410.6 34.1 C410.5 32.8 410.4 31.9 410.4 31.6 C410.4 31.6 410.3 31.4 410.3 31.1 z" opacity="0.15" id="d1" /></g></g><g id="e1"><g transform="translate(-286, 93.79997) translate(18, 27)" id="f1"><g id="g1"><path d="M395.9 33 C395.5 43 395.1 49.9 394.5 53.9 C392.6 68.8 389.8 77.4 388.2 79.4 C386 82.2 384.5 84.4 383.6 85.8 L390.6 84.8 L388.2 91.5 L393 88 C405.9 96.6 414.5 102 419 104.2 C424.2 106.7 430 107.6 432.1 107.8 C436.9 108.3 440.6 108.3 443.1 107.8 C454.1 104.1 461.6 101.1 465.8 99 C470 96.8 474.9 92.8 480.4 87 L486.6 88 L485.3 83.4 C484 80.4 483.4 78.7 483.6 78.2 C483.7 77.7 486.1 77.7 490.8 78.2 L483.6 67.4 C481.3 59.8 480 54.4 479.7 51.2 C479.4 48 479.2 42.6 478.9 35 C478.1 31.4 476.5 29 474.3 27.9 C472 26.7 470.5 28.1 469.8 31.9 L474.3 80.3 L449.4 98.8 L431.4 98.8 C415.7 92.4 407.4 89.2 406.5 89.2 C405.6 89.2 403.5 85.1 400 76.9 L405 27.8 C402.5 26.5 400.8 26.2 399.7 26.8 C398.6 27.6 397.3 29.6 395.9 33 z" id="h1" fill="#6E7079" /><path d="M425.8 7.7 L398.5 28.5 C399.7 37.8 399.7 47 398.5 56.1 C397.3 65.3 395.9 72.4 394.3 77.4 L392.5 80.6 L397.1 78.7 L394.4 82.3 L398.6 82.3 C407.9 91.9 413.9 97.4 416.6 98.8 C420.6 100.9 425.4 104.7 431.2 106 C437 107.3 444.5 107.4 457.8 98.8 C466.7 93.1 473.3 86.6 477.5 79.4 L481.9 82.3 L479.2 72.9 L483.8 75.9 L479.2 68.3 C478 60.9 477.4 55.9 477.2 53.3 C476.6 42.9 476.2 38.6 476.2 36.4 C476.2 33.5 467.9 23.9 451.2 7.9 L425.8 7.9 L425.8 7.7 z" id="i1" fill="#464854" /><path d="M477 36.3 C477 30.4 478.2 31.3 473.5 26.1 C466.5 18.5 452.3 8.8 451.1 7.7 C449 5.8 427.2 6.4 425.6 7.1 C423.9 7.9 398.9 25.7 397.9 28.7 C396.9 31.7 399.5 43.2 398.9 50.5 C400.9 50.9 403 51.1 404.9 49.8 C406.8 48.5 409 44.9 411 45.8 C413.9 47.1 413.8 66.8 422.1 68.1 C425.2 68.6 432.7 56.3 437.5 56.2 C441 56 448.4 68.7 451 68 C461 65.2 465.3 45.6 468.4 48.3 C471.9 51.3 473.4 52 476.5 48.3 C477 47.8 477 42.1 477 36.3 z" id="j1" fill="#6E7079" /><path d="M405.7 49.1 C405.8 50.4 416.2 71.4 418.3 80.1 C420.4 88.8 420 101.4 436.2 100.8 C452.4 100.2 453 99.1 456.8 80.1 C460.6 61.1 468.6 50.2 468.5 48.7 C468.4 47.2 467 46.4 463.2 42.7 C459.5 39.1 456.4 31.4 450.2 31.3 C445.7 31 436.5 40.9 447.9 54.4 C448.6 55.1 454 65.1 452.2 65.9 C450.4 65.9 448.9 63.2 446.5 60.8 C445.3 59.6 442.6 58.1 441.6 56.7 C438.4 52.1 439.4 26.8 438 26.8 C436.5 26.7 435.1 52.6 433.7 56.7 C433 58.9 431.1 59.2 429.4 60.8 C426.8 63.2 424.2 66.2 423 65.9 C421.5 65.7 423.9 57.6 426.6 55.7 C434.5 48.9 431.5 31.4 426.6 31.4 C421 29.9 417.4 36.5 414.1 40.2 C410.7 43.9 405.5 47.8 405.7 49.1 z" id="k1" fill="#464854" /><path d="M397.6 29.4 C397.6 29.1 397.7 28.9 397.8 28.7 C398.8 25.7 423.8 7.9 425.5 7.1 C427.2 6.4 449 5.8 451 7.7 C452.2 8.8 466.4 18.5 473.4 26.1 C475.2 28.1 476.1 29.2 476.6 30.1 C477.6 31.4 478.3 33.1 478.8 35.2 C479.1 42.8 479.3 48.2 479.6 51.4 C479.9 54.6 481.2 60 483.5 67.6 L490.7 78.4 C486 77.9 483.6 77.9 483.5 78.4 C483.3 78.9 483.9 80.6 485.2 83.6 L486.5 88.2 L480.3 87.2 C474.8 93 469.9 97 465.7 99.2 C461.5 101.3 454 104.3 443 108 C440.5 108.5 436.8 108.5 432 108 C429.9 107.8 424.1 106.9 418.9 104.4 C414.3 102.2 405.7 96.8 392.9 88.2 L388.1 91.5 L390.5 84.8 L383.5 85.8 C384.4 84.4 385.9 82.2 388.1 79.4 C389.7 77.4 392.5 68.8 394.4 53.9 C395 49.9 395.4 43 395.8 33 C396.5 31.5 397.1 30.3 397.6 29.4 z M399.8 28.6 C399.7 28.8 399.7 29 399.7 29.3 C399.2 30.2 398.6 31.3 398 32.7 C397.6 42.2 397.2 48.7 396.7 52.5 C394.9 66.6 393.5 74.7 392 76.6 C389.9 79.3 387.7 82.4 386.9 83.7 L393 81.8 L390.7 88.2 L396.1 86.4 C408.3 94.6 415.7 98.4 420.1 100.4 C425 102.8 430.5 103.6 432.5 103.8 C437.1 104.3 440.6 104.3 442.9 103.8 C453.3 100.3 460.5 97.4 464.4 95.4 C468.4 93.3 473 89.5 478.3 84 L484.2 84.9 L483 80.5 C481.8 77.7 481.1 77 481.3 76.6 C481.4 76.1 482.5 75.5 486.9 76 L481.3 65.3 C479.1 58.1 477.9 53 477.6 49.9 C477.3 46.9 477.1 41.7 476.8 34.5 C476.4 32.5 475.6 30.9 474.7 29.7 C474.3 28.8 473.4 27.8 471.7 25.9 C465.1 18.9 451.6 9.7 450.5 8.6 C448.5 6.8 427.8 7.4 426.2 8 C424.6 8.8 400.8 25.7 399.8 28.6 z" opacity="0.15" id="l1" /></g></g><g transform="translate(139.6, 150.5) scale(1.1) translate(-139.6, -150.5) translate(95.00001, 112.3) translate(21, 2)" id="m1"><g transform="translate(18.02073, 23.28844) scale(-1, 1) rotate(-6, 0, 0) translate(-18.02073, -23.28844) translate(2.520727, 1.788439)" id="n1"><path d="M1.7 25.8 C-1.9 23.8 -2.7 23.7 -1.4 20.5 C-0.1 17.3 2.4 17.8 5 15.3 C7.6 12.8 13.5 8.6 17.4 6.7 C21.3 4.8 23.7 2.5 25.7 4.7 C27.7 6.9 29.1 12.8 28 18.9 C26.9 25 23.5 30.4 23.1 33.3 C22.7 36.2 21.9 40.6 20.2 42.9 C19.7 43.6 18.2 45.3 17.3 45.8 C15.4 46.7 14 44.9 12.6 41.3 C12.3 40.4 10.5 34.3 8.6 32.4 C6.3 29.9 5.4 27.8 1.7 25.8 z" id="o1" fill="#171B24" /><path d="M1.7 25.8 C-1.9 23.8 -2.7 23.7 -1.4 20.5 C-0.1 17.3 2.4 17.8 5 15.3 C7.6 12.8 13.5 8.6 17.4 6.7 C21.3 4.8 23.7 2.5 25.7 4.7 C27.7 6.9 29.1 12.8 28 18.9 C26.9 25 23.5 30.4 23.1 33.3 C22.7 36.2 21.9 40.6 20.2 42.9 C19.7 43.6 18.2 45.3 17.3 45.8 C15.4 46.7 14 44.9 12.6 41.3 C12.3 40.4 10.5 34.3 8.6 32.4 C6.3 29.9 5.4 27.8 1.7 25.8 z M3.9 24.6 C7.2 26.4 8 28.3 10 30.5 C11.7 32.2 13.3 37.7 13.6 38.5 C14.8 41.7 16.1 43.4 17.8 42.5 C18.6 42.1 19.9 40.5 20.4 39.9 C21.9 37.8 22.6 33.9 23 31.3 C23.4 28.7 26.4 23.8 27.4 18.3 C28.4 12.8 27.1 7.5 25.4 5.5 C23.6 3.5 21.5 5.6 18 7.3 C14.5 9 9.3 12.8 6.9 15 C4.5 17.2 2.4 16.8 1.2 19.7 C0 22.6 0.7 22.8 3.9 24.6 z" opacity="0.15" id="p1" /><path d="M5.7 24.6 C3.7 23.6 2.3 23 3.3 20.4 C3.9 18.9 7.5 16.8 10.9 14.2 C13.3 12.3 16.2 10.3 18 9.3 C20.6 7.8 21.8 6.3 23.5 7.6 C25.1 8.9 26.5 14.5 25.7 19.2 C24.9 24 20 35.8 18.7 37.6 C17.4 39.4 16.1 42.4 14.5 38.2 C12.9 34 12.6 31.4 10.9 29.6 C9.2 27.8 7.7 25.6 5.7 24.6 z" id="q1" fill="#F2E5D3" /><path d="M8.2 26.4 C8.3 25.4 9.1 23.7 9.3 23.3 C9.6 22.7 12.3 21.1 14.6 19.7 C15.6 19 18.6 17.4 18.6 17.4 C20.2 16.5 20.1 19.9 18.6 22.6 C17.7 24.2 15.1 29.9 13.3 31.6 C12.7 32.2 12.2 31.1 11 29.5 C9.9 28.1 8.1 26.8 8.2 26.4 z" opacity="0.5" id="r1" fill="#171B24" /></g></g><g transform="translate(197.9, 149.5) scale(1.1) translate(-197.9, -149.5) translate(97.69997, 111.3) translate(100.9, 24.5) scale(-1, 1) translate(-100.9, -24.5) translate(82.40002, 0)" id="s1"><g transform="translate(18.19189, 24.4854) scale(-1, 1) rotate(-7, 0, 0) translate(-18.19189, -24.4854) translate(2.691893, 2.485396)" id="t1"><path d="M5.4 26.9 C1.8 24.9 1 24.8 2.3 21.6 C3.6 18.4 6.1 18.9 8.7 16.4 C11.3 13.9 17.2 9.7 21.1 7.8 C25 5.9 27.4 3.6 29.4 5.8 C31.4 8 32.8 14 31.7 20.1 C30.7 26.2 27.1 31.6 26.8 34.5 C26.4 37.4 25.6 41.8 23.9 44.1 C23.4 44.8 21.9 46.5 21 47 C19.1 47.9 18.5 47.3 17.1 43.7 C16.8 42.8 17 42 16.7 41.2 C15.3 37.5 14.2 35.4 12.3 33.5 C9.9 31.1 9 29 5.4 26.9 z" id="u1" fill="#171B24" /><path d="M5.4 26.9 C1.8 24.9 1 24.8 2.3 21.6 C3.6 18.4 6.1 18.9 8.7 16.4 C11.3 13.9 17.2 9.7 21.1 7.8 C25 5.9 27.4 3.6 29.4 5.8 C31.4 8 32.8 14 31.7 20.1 C30.7 26.2 27.1 31.6 26.8 34.5 C26.4 37.4 25.6 41.8 23.9 44.1 C23.4 44.8 21.9 46.5 21 47 C19.1 47.9 18.5 47.3 17.1 43.7 C16.8 42.8 17 42 16.7 41.2 C15.3 37.5 14.2 35.4 12.3 33.5 C9.9 31.1 9 29 5.4 26.9 z M7.1 25.9 C10.4 27.8 11.2 29.8 13.4 32 C15.1 33.8 16.2 35.7 17.4 39.1 C17.7 39.8 17.5 40.6 17.8 41.4 C19.1 44.7 19.6 45.3 21.4 44.4 C22.2 43.9 23.6 42.4 24.1 41.7 C25.7 39.6 26.4 35.5 26.8 32.8 C27.1 30.1 30.4 25.1 31.3 19.5 C32.3 13.9 31 8.3 29.2 6.3 C27.4 4.3 25.2 6.4 21.6 8.1 C18 9.8 12.6 13.7 10.2 16 C7.8 18.3 5.5 17.8 4.3 20.8 C3.1 23.8 3.8 24.1 7.1 25.9 z" opacity="0.15" id="v1" /><path d="M9.4 25.7 C7.4 24.7 6 24.1 7 21.5 C7.6 20 11.2 17.9 14.6 15.3 C17 13.4 19.9 11.4 21.7 10.4 C24.3 8.9 25.5 7.4 27.2 8.7 C28.8 10 30.2 15.6 29.4 20.3 C28.6 25.1 23.7 36.9 22.4 38.7 C21.1 40.5 19.8 43.5 18.2 39.3 C16.6 35.1 16.3 32.5 14.6 30.7 C12.9 29 11.4 26.8 9.4 25.7 z" id="w1" fill="#F2E5D3" /><path d="M11.5 26.9 C11.6 25.9 12.8 24.9 13 24.5 C13.3 23.9 16 22.3 18.3 20.9 C19.3 20.2 22.3 18.6 22.3 18.6 C23.9 17.7 23.8 21.1 22.3 23.8 C21.4 25.4 18.8 31.1 17 32.8 C15.8 33.9 14.9 30.4 14.4 30.5 C13.3 28.9 11.4 27.8 11.5 26.9 z" opacity="0.5" id="x1" fill="#171B24" /></g></g><g transform="translate(169.7, 180.9) scale(0.9) translate(-169.7, -186.9)" id="y1"><g transform="translate(106, 114) translate(27, 70)" id="z1"><g id="a2"><g transform="translate(0, 0.699997)" id="b2"><path d="M1.2 22.9 C2.9 16.8 7.9 15 14.1 11.1 C20.3 7.2 28.3 0.1 37 0.1 C45.7 0.1 49.8 4.7 56.8 9.6 C60.1 11.9 65.7 13.7 68.5 16.7 C72.3 20.8 73.1 29.1 71.8 35.6 C70.5 42.1 65.9 45.6 58 45.6 C55.5 45.6 52.8 43.3 50.3 40.6 C46.6 36.5 42.8 31.5 36.9 31.5 C29.3 31.5 28.7 36.9 22 42.1 C20.2 43.5 16 45.6 13.4 45.6 C10.8 45.6 7 44.8 3.8 41.5 C1.4 38.9 -0.6 29 1.2 22.9 z" id="c2" fill="#FFF" /><path d="M1.2 22.9 C2.9 16.8 7.9 15 14.1 11.1 C20.3 7.2 28.3 0.1 37 0.1 C45.7 0.1 49.8 4.7 56.8 9.6 C60.1 11.9 65.7 13.7 68.5 16.7 C72.3 20.8 73.1 29.1 71.8 35.6 C70.5 42.1 65.9 45.6 58 45.6 C55.5 45.6 52.8 43.3 50.3 40.6 C46.6 36.5 42.8 31.5 36.9 31.5 C29.3 31.5 28.7 36.9 22 42.1 C20.2 43.5 16 45.6 13.4 45.6 C10.8 45.6 7 44.8 3.8 41.5 C1.4 38.9 -0.6 29 1.2 22.9 z M3.4 21.9 C1.8 27.6 3.6 36.9 5.9 39.3 C8.9 42.4 12.4 43.2 14.9 43.2 C17.3 43.2 21.2 41.2 22.9 39.9 C29.2 35 29.8 29.9 36.9 29.9 C42.4 29.9 46 34.6 49.4 38.5 C51.8 41 54.3 43.2 56.6 43.2 C64 43.2 68.3 39.9 69.5 33.8 C70.8 27.7 70 19.9 66.5 16.1 C63.8 13.3 58.6 11.6 55.5 9.4 C48.9 4.9 45.1 0.6 37 0.6 C28.8 0.6 21.3 7.2 15.5 10.8 C9.7 14.5 5 16.2 3.4 21.9 z" opacity="0.15" id="d2" /><path d="M19.8 23.4 C20 23.5 20.4 23.1 20.6 23.1 C21 23.1 21.3 23.5 21.5 23.2 C21.8 22.6 21.7 22 21.1 21.7 C20.5 21.4 19.8 21.5 19.4 22.1 C19.2 22.6 19.3 23 19.8 23.4 z" id="e2" fill="#010101" /><path d="M14.8 30.4 C15 30.5 15.4 30.1 15.6 30.1 C16 30.1 16.3 30.5 16.5 30.2 C16.8 29.6 16.7 29 16.1 28.7 C15.5 28.4 14.8 28.5 14.4 29.1 C14.2 29.6 14.3 30 14.8 30.4 z" id="f2" fill="#010101" /><path d="M22.8 26.4 C23 26.5 23.4 26.1 23.6 26.1 C24 26.1 24.3 26.5 24.5 26.2 C24.8 25.6 24.7 25 24.1 24.7 C23.5 24.4 22.8 24.5 22.4 25.1 C22.2 25.6 22.3 26 22.8 26.4 z" id="g2" fill="#010101" /><path d="M51.1 24.1 C51.3 24.2 51.7 23.8 51.9 23.8 C52.3 23.8 52.6 24.2 52.8 23.9 C53.1 23.3 53 22.7 52.4 22.4 C51.8 22.1 51.1 22.2 50.7 22.8 C50.4 23.3 50.5 23.8 51.1 24.1 z" id="h2" fill="#010101" /><path d="M47.8 28.4 C48 28.5 48.4 28.1 48.6 28.1 C49 28.1 49.3 28.5 49.5 28.2 C49.8 27.6 49.7 27 49.1 26.7 C48.5 26.4 47.8 26.5 47.4 27.1 C47 27.7 47.3 28 47.8 28.4 z" id="i2" fill="#010101" /><path d="M56.8 30.4 C57 30.5 57.4 30.1 57.6 30.1 C58 30.1 58.3 30.5 58.5 30.2 C58.8 29.6 58.7 29 58.1 28.7 C57.5 28.4 56.8 28.5 56.4 29.1 C56.2 29.6 56.3 30 56.8 30.4 z" id="j2" fill="#010101" /></g></g></g><g fill-rule="evenOdd" transform="translate(86.30001, 137.6) translate(65, 60)" id="k2"><g transform="translate(0.410034, 0.940678)" id="l2"><path d="M0.3 16.6 C1.8 18.6 3.2 19.7 4.4 20 C5.6 20.3 6.9 20.3 8.3 20 C10.7 23.4 12.9 25.3 14.9 25.6 C17.8 26.1 18.5 26.1 22.2 25.5 C23 25.4 23.6 25.3 25.3 23.6 C25.8 23.1 26.3 22.2 27 20.7 C28.6 20.8 29.9 20.7 30.8 20.3 C32.2 19.7 33.5 19.3 34.9 17.4 C35.8 16.1 34.6 17 32.6 17.1 C31.4 17.2 29.8 16.5 28.7 16.3 C26.8 16 23.7 13.7 19.3 9.6 C19 7.7 18.8 6.5 18.8 5.9 C18.8 4.1 19.4 3.3 19.3 2.7 C19.1 1.5 18 0.9 17.7 0.9 C17.4 0.9 16.4 1.3 16.2 2.3 C16.1 2.9 16.5 4.1 16.4 6 C16.4 6.7 16.1 7.9 15.6 9.6 C14 11.6 12.4 13.1 11 14.2 C10.4 14.6 8.8 15.8 7.4 16.4 C6.8 16.7 5.1 17.2 3.9 17.2 C3.4 17.2 2.1 17 0.3 16.6 z" id="m2" /><path d="M10 17.7 C9.9 21.3 12.1 23.9 15.3 24.7 C17.6 25.3 19.2 25.3 21.2 24.7 C24 24.7 25.6 20.9 25.7 17.7 C25.1 17.3 24.1 16.5 23.2 15.7 C22.9 15.5 21.4 14.1 20.7 13.5 C19.7 13.8 18.2 14 17.6 14 C15.9 14 16.3 13.9 14.8 13.6 C14.3 14.1 13.1 15.6 12.6 16 C11.6 16.8 10.8 17.2 10 17.7 z" id="n2" fill="#FFB8B3" /></g></g><g transform="translate(106, 114.4) translate(53, 75)" id="o2"><g id="p2"><path d="M0.8 8.1 C0.8 4.5 0.5 3.4 3 2.3 C5.5 1.2 7.8 1 10.7 1 C13.6 1 18.5 0.8 19.9 3.1 C21.3 5.4 20.8 7 20.8 9.2 C20.8 11.4 18 11.5 16.7 12.8 C15.3 14.2 15.2 15.1 13.4 15.2 C11.4 15.3 9.4 15.4 8.1 15.2 C7 15.1 5.5 13.7 4.8 12.8 C3.1 10.8 0.8 11.7 0.8 8.1 z" id="q2" /><path d="M15 6.7 C12 5.3 11.4 4.3 11.4 3.5 C11.4 2.7 13.2 2 15.4 2 C17.6 2 19 3.1 19.4 4.4 C19.5 4.8 19.9 6.3 19.4 6.7 C18.7 7.2 16.6 7.4 15 6.7 z" id="r2" fill="#FFF" /></g></g><g transform="translate(96.60001, 112.5) translate(45, 45)" id="s2"><path d="M-0.7 21.6 C0.6 15.5 4.2 10.3 6.1 8.6 C7.4 7.5 10.9 6.6 13.8 5.6 C14.5 5.3 10.6 5.7 10.1 4.6 C9.3 2.8 11.3 1.8 12.3 1 C13.1 0.4 14.3 -0.2 16.4 -0.2 C18.5 -0.2 19.6 0.1 20.3 2 C21 3.9 18.5 7.9 18.5 10.2 C18.5 12.5 18.5 19 18.5 20.4 C18.5 21.8 15.7 31.3 13.8 33.1 C11.9 34.9 12.1 21.6 7 21.6 C1.9 21.6 -2 27.7 -0.7 21.6 z" id="t2" fill="#6E7079" /><g transform="translate(6, 10)" id="u2"><ellipse cx="5.3" cy="4.9" rx="5.6" ry="5.5" id="v2" /><path d="M7.6 4.4 C7.8 3.4 7.1 2.4 6.1 2.3 C5.1 2.2 4.2 2.7 4 3.7 C3.8 4.7 4.5 5.7 5.5 5.8 C5.6 5.8 5.6 5.8 5.7 5.8 C5.7 5.6 5.7 5.5 5.7 5.3 C5.8 4.6 6.5 4.1 7.2 4.3 C7.3 4.3 7.5 4.4 7.6 4.4 C7.6 4.5 7.6 4.4 7.6 4.4 z" id="w2" fill="#FFFFFE" /><circle cx="5" cy="5.7" r="1" id="x2" fill="#FFFFFE" /></g></g><g transform="translate(100.3, 112.6) translate(78, 46)" id="y2"><path d="M21.1 20.6 C19.8 14.5 16.2 9.3 14.3 7.6 C13 6.5 9.5 5.6 6.6 4.6 C6 4.3 9 4.5 9.5 3.4 C10.5 1.7 8.5 0.1 6.8 -0.5 C5.1 -1.1 0.9 -2.1 0 1.3 C-0.9 4.7 2 6.9 2 9.2 C2 11.5 2 18 2 19.4 C2 20.8 4.8 30.3 6.7 32.1 C8.6 33.9 8.3 20.8 13.5 20.8 C18.7 20.8 22.4 26.7 21.1 20.6 z" id="z2" fill="#6E7079" /><g transform="translate(4, 9)" id="a3"><ellipse cx="5.2" cy="4.9" rx="5.6" ry="5.5" id="b3" /><path d="M7.5 4.4 C7.7 3.4 7 2.4 6 2.3 C5 2.1 4.1 2.8 3.9 3.8 C3.7 4.8 4.4 5.8 5.4 5.9 C5.5 5.9 5.5 5.9 5.6 5.9 C5.6 5.7 5.6 5.6 5.6 5.4 C5.7 4.7 6.4 4.2 7.1 4.4 C7.2 4.4 7.4 4.5 7.5 4.4 C7.5 4.5 7.5 4.4 7.5 4.4 z" id="c3" fill="#FFFFFE" /><circle cx="4.9" cy="5.7" r="1" id="d3" fill="#FFF" /></g></g></g></g></g></g><defs><g transform="translate(17.09519, 0.800995) translate(-135.2952, -293.601)" id="e3" fill="#000"><path d="M118.2 302.7 C118.4 307.4 132.5 311.2 149.8 311.2 C167.1 311.2 181.2 307.4 181.4 302.7 C181.4 307.5 181.4 310.1 181.4 310.5 C181.4 315.3 167.3 319.1 149.8 319.1 C132.3 319.1 118.2 315.2 118.2 310.5 L118.2 302.7 L118.2 302.7 z" fill-opacity="0.4528" id="f3" fill="#593001" /><path d="M118.7 301.7 C118.9 306.4 133 310.2 150.3 310.2 C167.6 310.2 181.7 306.4 181.9 301.7 C181.9 306.5 181.9 309.1 181.9 309.5 C181.9 314.3 167.8 318.1 150.3 318.1 C132.8 318.1 118.7 314.2 118.7 309.5 L118.7 301.7 L118.7 301.7 z" id="g3" fill="#DA8113" /><linearGradient x1="46.0545" y1="-118.6926" x2="45.4656" y2="-118.6926" gradientUnits="userSpaceOnUse" gradientTransform="matrix(117.135, 0, 0, 28.4634, -5208.417, 3687.795)" id="h3"><stop offset="0%" stop-color="#D9952A" stop-opacity="1" /><stop offset="6.438854%" stop-color="#CA7519" stop-opacity="1" /><stop offset="30.54%" stop-color="#E3AD3A" stop-opacity="1" /><stop offset="51.05%" stop-color="#FFEC91" stop-opacity="1" /><stop offset="68.8%" stop-color="#E9BD44" stop-opacity="1" /><stop offset="86.24%" stop-color="#FFED6C" stop-opacity="1" /><stop offset="93.87%" stop-color="#F2D353" stop-opacity="1" /><stop offset="100%" stop-color="#F2B947" stop-opacity="1" /></linearGradient><path d="M118.2 301.6 C118.4 306.1 132.7 309.7 150.3 309.7 C167.9 309.7 182.2 306.1 182.4 301.6 C182.4 306.2 182.4 308.7 182.4 309 C182.4 313.5 168 317.2 150.3 317.2 C132.6 317.2 118.2 313.5 118.2 309 L118.2 301.6 L118.2 301.6 z" id="i3" style="fill:url(#h3)" /><linearGradient x1="45.4914" y1="-117.9547" x2="45.9407" y2="-117.5895" gradientUnits="userSpaceOnUse" gradientTransform="matrix(115.425, 0, 0, 29.925, -5125.077, 3826.124)" id="j3"><stop offset="0%" stop-color="#F4E072" stop-opacity="1" /><stop offset="100%" stop-color="#DB9427" stop-opacity="1" /></linearGradient><ellipse cx="150.3" cy="301.5" rx="31.6" ry="8.2" id="k3" style="fill:url(#j3)" /><linearGradient x1="45.4656" y1="-126.0065" x2="46.0545" y2="-126.0065" gradientUnits="userSpaceOnUse" gradientTransform="matrix(117.135, 0, 0, 18.6219, -5208.417, 2651.479)" id="l3"><stop offset="0%" stop-color="#D9952A" stop-opacity="1" /><stop offset="6.438854%" stop-color="#CA7519" stop-opacity="1" /><stop offset="30.54%" stop-color="#E3AD3A" stop-opacity="1" /><stop offset="51.05%" stop-color="#FFEC91" stop-opacity="1" /><stop offset="68.8%" stop-color="#E9BD44" stop-opacity="1" /><stop offset="86.24%" stop-color="#FFED6C" stop-opacity="1" /><stop offset="93.87%" stop-color="#F2D353" stop-opacity="1" /><stop offset="100%" stop-color="#F2B947" stop-opacity="1" /></linearGradient><path d="M119.2 299.9 C119 300.2 118.9 300.6 118.9 301 C118.9 305.5 132.9 309.2 150.3 309.2 C167.7 309.2 181.7 305.5 181.7 301 C181.7 300.6 181.6 300.3 181.4 299.9 C182 300.5 182.4 301.2 182.4 301.9 C182.4 306.4 168 310.1 150.3 310.1 C132.6 310.1 118.2 306.4 118.2 301.9 C118.2 301.3 118.6 300.6 119.2 299.9 z" id="m3" style="fill:url(#l3)" /><linearGradient x1="45.196" y1="-121.5895" x2="45.3746" y2="-120.6758" gradientUnits="userSpaceOnUse" gradientTransform="matrix(101.745, 0, 0, 23.94, -4458.332, 3199.41)" id="n3"><stop offset="0%" stop-color="#F8DD61" stop-opacity="1" /><stop offset="100%" stop-color="#EAA330" stop-opacity="1" /></linearGradient><ellipse cx="150.3" cy="300.8" rx="27.8" ry="6.6" id="o3" style="fill:url(#n3)" /><linearGradient x1="45.5694" y1="-134.267" x2="45.0221" y2="-134.267" gradientUnits="userSpaceOnUse" gradientTransform="matrix(101.745, 0, 0, 13.2525, -4458.332, 2077.223)" id="p3"><stop offset="0%" stop-color="#F4CA2F" stop-opacity="1" /><stop offset="51.38%" stop-color="#BF7737" stop-opacity="1" /><stop offset="100%" stop-color="#E4A929" stop-opacity="1" /></linearGradient><path d="M122.6 301.5 C122.5 301.3 122.4 301 122.4 300.8 C122.4 297.2 134.9 294.2 150.2 294.2 C165.5 294.2 178 297.1 178 300.8 C178 301 177.9 301.3 177.8 301.5 C176.3 298.2 164.5 295.6 150.1 295.6 C135.7 295.6 124.1 298.2 122.6 301.5 z" id="q3" style="fill:url(#p3)" /></g></defs><desc>28544E98979,FduG9wPycVg4DuKUJ9hlApQYUGMt2374tEO/w4ZUFrOdgoCjPBc/sME4piBFTspcPOWxD7zH3GBU3d721G1eRr8QhnHoHHFBWPZJ7iUJqdM=</desc></svg>