<?xml version="1.0" encoding="utf-8"?><!DOCTYPE svg PUBLIC "-//W3C//DTD SVG 1.1//EN" "http://www.w3.org/Graphics/SVG/1.1/DTD/svg11.dtd"><svg x="0" y="0" width="340px" height="340px" viewBox="0, 0, 340, 340" preserveAspectRatio="xMidYMid" font-size="0" id="a" enable-background="new 0 0 340 340" xmlns="http://www.w3.org/2000/svg" xmlns:xlink="http://www.w3.org/1999/xlink" xmlns:xml="http://www.w3.org/XML/1998/namespace" version="1.1"><g id="b" fill="#000"><g id="c"><g transform="translate(0, 0) translate(0, 224)" id="d"><ellipse cx="168.6" cy="53.1" rx="57.8" ry="12.8" fill-opacity="0.25" id="e" /></g><g id="f"><g transform="translate(107.1, 87.89998) translate(22, 133)" id="g" /><g transform="translate(124.5, 269.5) scale(1) translate(-124.5, -269.5) translate(104.3, 92.09998) translate(12, 123)" id="h"><path d="M14 38.2 C12.5 33.4 7.1 32.2 3.1 27.7 C-2 21.9 -0.8 7.2 7.5 2.9 C14.4 -0.7 26.3 -1.7 33.5 4.7 C45.7 15.7 37.5 29.3 34.6 36.2 C32 42.3 15 41.8 14 38.2 z" id="i" fill="#2C2F31" /><path d="M14.1 45.6 C14.8 42 14.5 39.5 13.7 37.6 C17.2 39.4 22 38.9 25.5 36.9 C29.8 34.5 36.9 28.7 37.3 29.9 C36.3 32.3 35.2 34.5 34.5 36.2 C32 42.2 35.1 50.4 30.5 55 C26.3 59.3 11.8 57.6 5.5 56.7 C4.2 52.1 6.2 48.4 14.1 45.6 z" id="j" fill="#965622" /><path d="M13.8 37.7 C12.1 33.3 6.9 32 3.1 27.7 C-2 21.9 -0.8 7.2 7.5 2.9 C14.4 -0.7 26.3 -1.7 33.5 4.7 C45.7 15.7 37.5 29.3 34.6 36.2 C34.5 36.4 34.4 36.6 34.3 36.9 C32.2 42.8 34.9 50.6 30.5 55 C26.3 59.3 11.8 57.6 5.5 56.7 C4.2 52.1 6.2 48.4 14.1 45.6 C14.8 42 14.5 39.5 13.7 37.6 C13.7 37.6 13.8 37.6 13.8 37.7 z M3.9 26.8 C7.6 30.9 12.2 34.6 14 36.2 C14.8 38 15.9 42.7 15.2 46.1 C7.7 48.8 6.2 50.5 6.2 54.3 C12.2 55.2 26 56.8 30 52.7 C34.2 48.5 31.6 41.1 33.5 35.5 C33.7 35.3 33.8 35.1 33.9 34.8 C36.6 28.3 44.4 15.4 32.8 4.9 C26 -1.2 14.7 -0.2 8.1 3.2 C0.2 7.3 -0.9 21.3 3.9 26.8 z" opacity="0.15" id="k" /></g><g transform="translate(215.4, 269.5) scale(1) translate(-215.4, -269.5) translate(104.3, 92.09998) translate(99, 152) scale(-1, 1) translate(-99, -152) translate(79, 123)" id="l"><path d="M14 38.2 C12.5 33.4 7.1 32.2 3.1 27.7 C-2 21.9 -0.8 7.2 7.5 2.9 C14.4 -0.7 26.3 -1.7 33.5 4.7 C45.7 15.7 37.5 29.3 34.6 36.2 C32 42.3 15 41.8 14 38.2 z" id="m" fill="#2C2F31" /><path d="M14.1 45.6 C14.8 42 14.5 39.5 13.7 37.6 C17.2 39.4 22 38.9 25.5 36.9 C29.8 34.5 36.9 28.7 37.3 29.9 C36.3 32.3 35.2 34.5 34.5 36.2 C32 42.2 35.1 50.4 30.5 55 C26.3 59.3 11.8 57.6 5.5 56.7 C4.2 52.1 6.2 48.4 14.1 45.6 z" id="n" fill="#965622" /><path d="M13.8 37.7 C12.1 33.3 6.9 32 3.1 27.7 C-2 21.9 -0.8 7.2 7.5 2.9 C14.4 -0.7 26.3 -1.7 33.5 4.7 C45.7 15.7 37.5 29.3 34.6 36.2 C34.5 36.4 34.4 36.6 34.3 36.9 C32.2 42.8 34.9 50.6 30.5 55 C26.3 59.3 11.8 57.6 5.5 56.7 C4.2 52.1 6.2 48.4 14.1 45.6 C14.8 42 14.5 39.5 13.7 37.6 C13.7 37.6 13.8 37.6 13.8 37.7 z M3.9 26.8 C7.6 30.9 12.5 32.1 14 36.2 C14.8 38 16.6 42.3 16 45.7 C8.5 48.3 6.3 50 7.5 54.4 C13.5 55.2 25.2 56.8 29.2 52.8 C33.4 48.5 31.6 41.1 33.6 35.5 C33.7 35.3 33.8 35.1 33.9 34.8 C36.6 28.3 44.4 15.3 32.8 4.9 C26 -1.2 14.7 -0.3 8.1 3.2 C0.2 7.3 -0.9 21.2 3.9 26.8 z" opacity="0.15" id="o" /></g><g transform="translate(104.3, 92.09998) translate(20, 65)" id="p"><path d="M85.6 52.6 C84.9 39.4 82.9 36.4 79.1 28 C77.8 25 76.2 22.2 74.6 19.6 C71.9 15.2 68.7 13.4 67.3 10 C64.8 4 60.4 3.2 45.5 3.2 C30.7 3.2 27.2 3.2 24.7 9.2 C23.4 12.4 19.3 14.8 16.7 19.1 C15 21.8 13.4 24.8 11.9 28 C8.1 36.5 6.1 39.5 5.4 52.6 C4.4 70.2 10.5 94.3 17.7 109.3 C20.2 114.5 25.5 118.2 29.1 119 C35.7 120.4 41.6 120.8 45.4 120.7 C49.3 120.8 55.2 120.4 61.7 119 C65.3 118.2 70.6 114.5 73.1 109.3 C80.4 94.2 86.5 70.2 85.6 52.6 z" id="q" fill="#2C2F31" /><path d="M67.9 7.9 C65.4 1.9 60.3 0.1 45.5 0.1 C30.7 0.1 25.5 1.9 23.1 7.9 C21.8 11.1 19.3 14.8 16.7 19 C18.9 25 34.4 33.5 45.5 35.4 C56.6 33.5 72.1 25 74.3 19 C71.7 14.8 69.3 11.1 67.9 7.9 z" id="r" fill="#965622" /><path d="M67.9 7.9 C65.4 1.9 60.3 0.1 45.5 0.1 C30.7 0.1 25.5 1.9 23.1 7.9 C21.8 11.1 19.3 14.8 16.7 19 C18.9 25 34.4 33.5 45.5 35.4 C56.6 33.5 72.1 25 74.3 19 C71.7 14.8 69.3 11.1 67.9 7.9 z" opacity="0.15" id="s" fill="#965622" /><path d="M16.7 19.1 C16.7 19 16.7 19 16.7 19 C19.3 14.8 21.8 11.1 23.1 7.9 C25.5 1.9 30.7 0.1 45.5 0.1 C60.3 0.1 65.4 1.9 67.9 7.9 C69.3 11.1 71.7 14.8 74.3 19 C74.3 19 74.3 19.1 74.3 19.1 C74.4 19.2 74.5 19.4 74.6 19.6 C76.2 22.2 77.8 25 79.1 28 C82.9 36.4 84.9 39.4 85.6 52.6 C86.5 70.2 80.4 94.2 73.1 109.3 C70.6 114.5 65.3 118.2 61.7 119 C55.2 120.4 49.3 120.8 45.4 120.7 C41.6 120.8 35.7 120.4 29.1 119 C25.5 118.2 20.2 114.5 17.7 109.3 C10.5 94.3 4.4 70.2 5.4 52.6 C6.1 39.5 8.1 36.5 11.9 28 C13.4 24.8 15 21.8 16.7 19.1 C16.7 19.1 16.7 19.1 16.7 19.1 z M17.9 19.7 C17.9 19.8 17.9 19.8 17.9 19.8 C16.2 22.4 14.7 25.2 13.3 28.3 C9.6 36.5 7.7 39.3 7 51.9 C6.1 68.8 11.9 91.9 18.8 106.3 C21.2 111.3 26.3 114.9 29.8 115.6 C36.1 117 41.8 117.3 45.4 117.3 C49.1 117.3 54.8 117 61 115.6 C64.5 114.9 69.6 111.3 72 106.3 C79 91.8 84.8 68.8 84 51.9 C83.3 39.3 81.4 36.4 77.7 28.3 C76.5 25.4 75 22.8 73.4 20.3 C73.3 20.1 73.2 19.9 73.1 19.8 C73.1 19.7 73.1 19.7 73.1 19.7 C70.6 15.7 68.3 12.1 67 9 C64.6 3.3 59.7 1.6 45.5 1.6 C31.3 1.6 26.3 3.3 24 9 C22.8 12.1 20.4 15.7 17.9 19.7 C17.9 19.7 17.9 19.7 17.9 19.7 z" opacity="0.15" id="t" /></g><g transform="translate(131.6805, 174.464) scale(0.97, 1.02616) translate(-130.5, -168.9) translate(91.10001, 75.99998) translate(78.5, 145.5) scale(-1, 1) translate(-78.5, -145.5) translate(39, 92)" id="u"><path d="M68.1 2.7 C65.6 5.6 57.8 23.3 40.2 24.2 C21.5 24.9 13.3 5.5 10.6 0.9 C7 8.7 1.1 13.8 0.5 26.6 C-0.1 39.4 4.4 46.5 6.7 52.8 C8.4 57.4 10.7 64.5 12.6 73.4 C13.3 76.6 15 81.2 15 84.3 C15.3 96.3 17.5 91.7 13.2 94.2 C8.9 96.7 5.2 101.6 6.7 104.5 C8.2 107.4 29.2 104.1 30.2 102.9 C30.7 102.3 30.9 95.4 30.7 74 C30.6 70.2 29.5 64.3 29.2 57 C29.1 53.6 30 50.6 29.7 46.2 C33.7 48.7 35.2 49.7 38.2 49.6 C41 49.7 42.2 48 46.8 45.5 C46.8 49.8 47.8 53.2 47.9 56.9 C48 63.8 47.3 70.3 47.2 74 C46.9 94.5 47.2 102.3 48 103.5 C49.2 105.2 56.8 106.1 70.8 106 C72.5 103.2 72.5 100.8 70.8 98.8 C69.1 96.8 66.2 94.7 62.2 92.4 C63.3 83.7 63.9 81.2 65.2 75.5 C66.2 71 67.7 62.7 68.7 60.2 C72.3 51.4 78.4 40.6 78.5 28.7 C78.6 16.8 72.4 8 68.1 2.7 z" id="v" fill="#46494D" /><path d="M68.1 2.7 C72.4 8 78.5 16.8 78.4 28.7 C78.3 40.6 72.2 51.4 68.6 60.2 C67.6 62.8 66 71 65.1 75.5 C63.9 81.2 63.2 83.7 62.1 92.4 C66.1 94.7 69 96.8 70.7 98.8 C72.4 100.8 72.4 103.2 70.7 106 C56.7 106.1 49.1 105.2 47.9 103.5 C47.1 102.3 46.8 94.5 47.1 74 C47.2 70.3 47.9 63.8 47.8 56.9 C47.7 53.1 46.7 49.8 46.7 45.5 C42.1 48 40.9 49.7 38.1 49.6 C35.1 49.7 33.6 48.7 29.6 46.2 C30 50.6 29 53.6 29.2 57 C29.5 64.3 30.6 70.2 30.7 74 C30.9 95.4 30.7 102.3 30.2 102.9 C29.2 104.1 8.2 107.4 6.7 104.5 C5.2 101.6 8.9 96.7 13.2 94.2 C17.5 91.7 15.3 96.3 15 84.3 C14.9 81.1 13.2 76.6 12.6 73.4 C10.7 64.5 8.4 57.5 6.7 52.8 C4.4 46.5 -0.1 39.4 0.5 26.6 C1.1 13.8 7 8.7 10.6 0.9 C13.3 5.5 21.5 24.9 40.2 24.2 C57.8 23.3 65.6 5.6 68.1 2.7 z M68.1 3.9 C66.9 6.2 63.6 12.3 57.5 17.9 C52.5 22.5 44.3 27.3 38.5 27.3 C34.8 27.5 26 22.6 22.4 19.5 C17.8 15.6 11.8 5.2 10.6 1.4 C7.1 8.9 2.7 15.8 2.1 28 C1.5 40.2 5.9 45.5 8.1 51.5 C9.7 55.9 12.8 63.9 14.6 72.4 C15.2 75.4 16.9 80.5 17 83.5 C17.3 94.9 18.7 92.8 14.6 95.2 C10.5 97.6 7.6 99.2 9 101.9 C10.4 104.6 27 101.6 28 100.4 C28.5 99.8 28.8 95.8 28.6 75.4 C28.5 71.7 27.6 64.9 27.3 57.9 C27.2 54.7 26.9 46.1 26.6 41.9 C30.4 44.3 35 48 37.9 47.9 C40.6 48 45.9 43.8 50.3 41.4 C50.3 45.5 50.1 52.2 50.1 55.8 C50.2 62.3 49.2 68.8 49.2 72.3 C48.9 91.8 49.3 99.6 50 100.8 C51.1 102.4 55.2 104 68.5 103.9 C70.1 101.2 70.8 100.5 69.2 98.6 C67.6 96.7 64.2 95 60.4 92.8 C61.5 84.5 62.1 79.7 63.3 74.3 C64.2 70 65.8 62 66.8 59.5 C70.2 51.1 76.5 41.1 76.6 29.8 C76.6 18.6 72.2 8.9 68.1 3.9 z" opacity="0.15" id="w" /></g></g><g id="x"><g transform="translate(146.1, 122.3) scale(0.8) translate(-140.1, -122.3) translate(92.50001, 81.19997) translate(23, 0)" id="y"><g transform="translate(18.79612, 27.5) scale(-1, 1) translate(-18.79612, -27.5) translate(0.796117, 0)" id="z"><path d="M6.1 38.9 C10.1 42.5 15.4 46.7 17.9 49.8 C20.7 53.3 26 54.1 28.3 51.3 C30.6 48.5 32.3 48.1 32.7 42.7 C33.1 37.3 36.2 20.2 36 15.4 C35.8 10.6 34.5 0.6 32.8 0.1 C31.1 -0.4 26.4 0.6 25.4 1.5 C24.4 2.4 2.2 26.3 1.3 28.2 C0.3 30.1 2.1 35.2 6.1 38.9 z" id="a1" fill="#2C2F31" /><path d="M6.1 38.9 C2.1 35.2 0.3 30.1 1.3 28.2 C2.2 26.3 24.4 2.4 25.4 1.5 C26.4 0.6 31.1 -0.4 32.8 0.1 C34.5 0.6 35.7 10.6 35.9 15.3 C36.1 20 33 37.3 32.6 42.7 C32.2 48.1 30.5 48.5 28.2 51.3 C25.9 54.1 20.6 53.3 17.8 49.8 C15.4 46.7 10.1 42.5 6.1 38.9 z M7.7 37.7 C11.4 41.1 16.3 45.1 18.6 48 C21.2 51.3 26.1 52.1 28.2 49.4 C30.3 46.7 31.9 46.4 32.3 41.3 C32.7 36.2 35.5 20.1 35.4 15.6 C35.3 11.1 33.9 1.6 32.4 1.1 C30.8 0.6 26.5 1.6 25.6 2.4 C24.7 3.2 4.1 25.8 3.3 27.6 C2.3 29.4 4 34.2 7.7 37.7 z" opacity="0.15" id="b1" /><path d="M8.1 28.2 C7.5 24.8 23.1 7.3 24.9 5.4 C26.7 3.5 28.4 3 30.8 2.9 C33.2 2.8 34.6 13 33.6 18.7 C32.6 24.4 30.3 45.7 27.5 46.9 C24.7 48.1 23.9 45.6 16.5 36.4 C13.2 32.2 8.8 31.5 8.1 28.2 z" id="c1" fill="#46494D" /><path d="M12.2 34 C17.3 30.7 20.4 27.8 21.5 25.3 C22.1 24 23.6 27.6 23.7 32.2 C23.8 34.2 22.7 37.6 20.4 42.4 L12.2 34 z" id="d1" fill="#2C2F31" /></g></g><g transform="translate(192.7, 122.3) scale(0.8) translate(-198.7, -122.3) translate(103.8, 81.19997) translate(102.4, 27) scale(-1, 1) translate(-102.4, -27) translate(83.40002, 0)" id="e1"><g transform="translate(18.70388, 27) scale(-1, 1) translate(-18.70388, -27) translate(0.203883, 0)" id="f1"><path d="M4.4 39.1 C8.4 42.7 13.1 47.2 16.8 49.8 C20.4 52.4 24.9 54.1 27.2 51.3 C29.5 48.5 31.2 48.1 31.6 42.7 C32 37.3 35.1 20.2 34.9 15.4 C34.7 10.6 33.4 0.6 31.7 0.1 C30 -0.4 25.3 0.6 24.3 1.5 C23.3 2.4 1.1 26.3 0.2 28.2 C-0.8 30.1 0.4 35.4 4.4 39.1 z" id="g1" fill="#2C2F31" /><path d="M4.4 39.1 C0.4 35.4 -0.8 30.1 0.2 28.2 C1.1 26.3 23.3 2.4 24.3 1.5 C25.3 0.6 30 -0.4 31.7 0.1 C33.4 0.6 34.6 10.6 34.8 15.3 C35 20 31.9 37.2 31.5 42.6 C31.1 48 29.4 48.4 27.1 51.2 C24.8 54 20.3 52.3 16.7 49.7 C13 47.2 8.4 42.7 4.4 39.1 z M6.1 37.9 C9.8 41.3 14.1 45.5 17.5 48 C20.8 50.5 25 52.1 27.1 49.4 C29.2 46.7 30.8 46.4 31.2 41.3 C31.6 36.2 34.4 20.1 34.2 15.6 C33.9 11 32.8 1.6 31.3 1.1 C29.7 0.6 25.4 1.6 24.5 2.4 C23.5 3.3 3 25.8 2.2 27.6 C1.3 29.4 2.4 34.4 6.1 37.9 z" opacity="0.15" id="h1" /><path d="M7 28.2 C6.4 24.8 22 7.3 23.8 5.4 C25.6 3.5 27.3 3 29.7 2.9 C32.1 2.8 33.5 13 32.5 18.7 C31.5 24.4 29.2 45.7 26.4 46.9 C23.6 48.1 22.8 45.6 15.4 36.4 C12 32.2 7.7 31.5 7 28.2 z" id="i1" fill="#46494D" /><path d="M11 34 C16.1 30.7 19.2 27.8 20.3 25.3 C20.9 24 22.4 27.6 22.5 32.2 C22.6 34.2 21.5 37.6 19.2 42.4 L11 34 z" id="j1" fill="#2C2F31" /></g></g><g transform="translate(108.4, 105.7) translate(26, 0)" id="k1"><path d="M35.2 0.9 C35.2 0.9 35.1 0.9 35.2 0.9 C35.1 0.9 35 0.9 35 0.9 C20.8 0.9 0.5 4.6 0.5 30.1 C0.5 43.2 5.9 44 10.2 52.1 C12.9 57.1 14.2 61.2 15.4 72.3 C16.5 83.1 22.6 86 35.1 86 C47.6 86 53.7 83 54.8 72.3 C55.9 61.1 57.3 57.1 60 52.1 C64.3 44 69.7 43.3 69.7 30.1 C69.7 4.6 49.4 0.9 35.2 0.9 z" id="l1" fill="#46494D" /><path d="M35.2 0.9 C49.4 0.9 69.7 4.6 69.7 30.1 C69.7 43.3 64.3 44 60 52.1 C57.3 57.1 55.9 61.1 54.8 72.3 C53.7 83 47.6 86 35.1 86 C22.6 86 16.5 83.1 15.4 72.3 C14.2 61.2 12.9 57.1 10.2 52.1 C5.9 44 0.5 43.2 0.5 30.1 C0.5 4.6 20.8 0.9 35 0.9 C35 0.9 35.1 0.9 35.2 0.9 C35.1 0.9 35.2 0.9 35.2 0.9 z M35.2 1.5 C35.2 1.5 35.1 1.5 35.2 1.5 C35.1 1.5 35 1.5 35 1.5 C21.3 1.5 1.8 5 1.8 29.6 C1.8 42.2 7 43 11.1 50.8 C13.7 55.6 15 59.6 16.1 70.3 C17.2 80.7 23 83.5 35.1 83.5 C47.2 83.5 53 80.6 54.1 70.3 C55.2 59.5 56.5 55.7 59.1 50.8 C63.2 43 68.4 42.3 68.4 29.6 C68.4 5 48.9 1.5 35.2 1.5 z" opacity="0.15" id="m1" /></g><g id="n1"><g transform="translate(96.4, 68.39996) translate(49, 49)" id="o1"><path d="M4.9 47.3 C3.6 44.4 4 38.4 6.2 35.6 C7.4 34.1 9.4 31.1 12.6 29.9 C15.5 28.7 19.3 29.2 23.6 29.2 C27.7 29.2 29.8 28.7 32.4 29.6 C35.4 30.7 38.4 33.2 39.9 35.6 C42.6 39.9 42.1 45.1 40.5 47.3 C39.8 48.3 37.6 51.5 35.2 51.8 C32.2 52.2 28.5 50.1 24.2 50.1 C20.6 50.1 16.7 51.9 13.2 51.8 C9 51.6 5.6 48.9 4.9 47.3 z" id="p1" fill="#B76930" /><path d="M14.9 29.3 C14.4 29.4 13.9 29.5 13.5 29.7 C10.6 30.9 8.7 33.6 7.6 35 C5.5 37.6 5.2 43.1 6.4 45.8 C7 47.3 10.2 49.8 14 49.9 C17.2 50 20.9 48.4 24.1 48.4 C28.1 48.4 31.5 50.3 34.3 49.9 C36.5 49.6 38.5 46.7 39.1 45.8 C40.5 43.7 41 39 38.5 35 C37.2 32.9 34.4 30.5 31.6 29.5 C31.3 29.4 30.9 29.3 30.6 29.2 C31.2 29.3 31.8 29.4 32.4 29.6 C35.4 30.7 38.4 33.2 39.9 35.6 C42.6 39.9 42.1 45.1 40.5 47.3 C39.8 48.3 37.6 51.5 35.2 51.8 C32.2 52.2 28.5 50.1 24.2 50.1 C20.6 50.1 16.7 51.9 13.2 51.8 C9 51.7 5.6 48.9 4.9 47.3 C3.6 44.4 4 38.4 6.2 35.6 C7.4 34.1 9.4 31.1 12.6 29.9 C13.3 29.6 14.1 29.4 14.9 29.3 z" opacity="0.15" id="q1" /><g opacity="0.4" transform="translate(6, 34)" id="r1"><circle cx="29.5" cy="11.5" r="1" opacity="0.4" id="s1" /><circle cx="24.5" cy="12.5" r="1" opacity="0.4" id="t1" /><circle cx="5.5" cy="11.5" r="1" opacity="0.4" id="u1" /><circle cx="10.5" cy="11.5" r="1" opacity="0.4" id="v1" /><circle cx="4.5" cy="4.5" r="1" opacity="0.4" id="w1" /><circle cx="32.5" cy="7.5" r="1" opacity="0.4" id="x1" /><circle cx="27.5" cy="8.5" r="1" opacity="0.4" id="y1" /><circle cx="6.5" cy="7.5" r="1" opacity="0.4" id="z1" /><circle cx="2.5" cy="8.5" r="1" opacity="0.4" id="a2" /><circle cx="30.5" cy="4.5" r="1" opacity="0.4" id="b2" /></g><path d="M16.9 41.4 C18.5 43.3 19.1 45.2 18.8 47.1 C18.5 49 17.2 50.4 15.1 51.4 C16.4 51.1 17.3 50.8 17.9 50.7 C19 50.4 19.9 50 20.8 49.9 C21.7 49.7 22.6 49.7 23.3 49.7 C24.2 49.7 25 49.8 26.1 50 C26.7 50.1 27.3 50.4 28.4 50.7 C28.9 50.8 29.8 51 31 51.3 C28.9 50.1 27.7 48.7 27.5 47.2 C27.3 45.7 27.9 43.8 29.4 41.4 C26.7 42.9 24.7 43.7 23.4 43.7 C22.1 43.7 19.8 42.9 16.9 41.4 z" opacity="0.15" id="c2" /></g><g transform="translate(91.09999, 85.89996) translate(65, 74)" id="d2"><path d="M4.2 17 C7.4 16.4 9.1 15 10.5 13.9 C11.4 13.2 12.4 12.3 13.4 11.1 C14.7 12.7 15.6 13.7 16.2 14.1 C17 14.8 19.4 16.3 20.9 16.9 C22.4 17.5 26.3 17.8 26.3 17.2 C26.3 16.6 21.8 15.9 20.2 14.7 C18.6 13.5 17 12.5 15.9 11 C14.9 9.6 15.3 8.6 15.2 7 C15.1 5 15.4 2.8 15.5 1.3 C15.6 -0.7 12.3 -0.1 12.3 1.3 C12.3 2.7 12.3 4.8 12.3 6.6 C12.3 8.4 11.6 10.6 10.2 11.8 C8.8 13 6.9 14.5 4.8 15.3 C3.5 15.8 0.8 16.4 0.9 17 C0.8 17.4 2.9 17.3 4.2 17 z" id="e2" fill="#282421" /></g><g transform="translate(169.5, 155.5) scale(0.9) translate(-169.5, -155.5) translate(107, 93.59996) translate(51, 56)" id="f2"><g id="g2"><path d="M21.7 7 C20.6 1.1 14.2 0.3 11.5 0.3 C8.8 0.3 2.4 1.1 1.3 7 C0.5 11.1 1.3 11.5 1.3 11.5 L11.5 11.5 L21.7 11.5 C21.7 11.5 22.4 11.2 21.7 7 z" id="h2" fill="#282421" /><path d="M18.3 4.3 C18.4 3.8 17.8 3.1 17.5 2.8 C17 2.4 15.4 1.2 11.5 1.1 C7.6 1 6 2.3 5.5 2.8 C5.2 3.1 4.6 3.9 4.7 4.3 C6.2 3.5 9.8 2.8 11.5 6.6 C12.9 3.1 16.8 3.4 18.3 4.3 z" id="i2" fill="#FEFEFE" /></g></g><g transform="translate(152.9, 131.2999) scale(1.1) translate(-152.9, -131.2999) translate(95.39999, 70.39995) translate(53, 56)" id="j2"><g id="k2"><path d="M11 8.3 C11 7.7 11 4.9 9.8 3 C8.6 1.1 7.4 0.6 5.8 0.2 C4.2 -0.2 2.3 0 1.3 0.9 C0.3 1.8 0 4 0 5.5 C0 7 0.8 8.8 2.8 9.4 C4.1 9.8 6 9.8 8.6 9.4 C10.2 9.1 11 8.8 11 8.3 z" id="l2" /><path d="M5 4.4 C5.6 4.4 6.4 3.6 6.4 3 C6.4 2.4 5.6 2 5 2 C4.4 2 4 2.4 4 3 C4 3.6 4.4 4.4 5 4.4 z" id="m2" fill="#FFFFFE" /></g></g><g transform="translate(184.1, 131.2999) scale(1.1) translate(-184.1, -131.2999) translate(95.39999, 70.39995) translate(82, 56)" id="n2"><g id="o2"><path d="M0 8.3 C0 7.7 0 4.9 1.2 3 C2.4 1.1 3.6 0.6 5.2 0.2 C6.8 -0.2 8.7 0 9.7 0.9 C10.7 1.8 11 4 11 5.5 C11 7 10.2 8.8 8.2 9.3 C6.9 9.7 5 9.7 2.4 9.3 C0.8 9.1 0 8.8 0 8.3 z" id="p2" /><path d="M6 4.4 C6.6 4.4 7.4 3.6 7.4 3 C7.4 2.4 6.6 2 6 2 C5.4 2 5 2.4 5 3 C5 3.6 5.4 4.4 6 4.4 z" id="q2" fill="#FFFFFE" /></g></g></g></g></g></g><defs><g transform="translate(17.09519, 0.800995) translate(-135.2952, -293.601)" id="r2" fill="#000"><path d="M118.2 302.7 C118.4 307.4 132.5 311.2 149.8 311.2 C167.1 311.2 181.2 307.4 181.4 302.7 C181.4 307.5 181.4 310.1 181.4 310.5 C181.4 315.3 167.3 319.1 149.8 319.1 C132.3 319.1 118.2 315.2 118.2 310.5 L118.2 302.7 L118.2 302.7 z" fill-opacity="0.4528" id="s2" fill="#593001" /><path d="M118.7 301.7 C118.9 306.4 133 310.2 150.3 310.2 C167.6 310.2 181.7 306.4 181.9 301.7 C181.9 306.5 181.9 309.1 181.9 309.5 C181.9 314.3 167.8 318.1 150.3 318.1 C132.8 318.1 118.7 314.2 118.7 309.5 L118.7 301.7 L118.7 301.7 z" id="t2" fill="#DA8113" /><linearGradient x1="46.0545" y1="-118.6926" x2="45.4656" y2="-118.6926" gradientUnits="userSpaceOnUse" gradientTransform="matrix(117.135, 0, 0, 28.4634, -5208.417, 3687.795)" id="u2"><stop offset="0%" stop-color="#D9952A" stop-opacity="1" /><stop offset="6.438854%" stop-color="#CA7519" stop-opacity="1" /><stop offset="30.54%" stop-color="#E3AD3A" stop-opacity="1" /><stop offset="51.05%" stop-color="#FFEC91" stop-opacity="1" /><stop offset="68.8%" stop-color="#E9BD44" stop-opacity="1" /><stop offset="86.24%" stop-color="#FFED6C" stop-opacity="1" /><stop offset="93.87%" stop-color="#F2D353" stop-opacity="1" /><stop offset="100%" stop-color="#F2B947" stop-opacity="1" /></linearGradient><path d="M118.2 301.6 C118.4 306.1 132.7 309.7 150.3 309.7 C167.9 309.7 182.2 306.1 182.4 301.6 C182.4 306.2 182.4 308.7 182.4 309 C182.4 313.5 168 317.2 150.3 317.2 C132.6 317.2 118.2 313.5 118.2 309 L118.2 301.6 L118.2 301.6 z" id="v2" style="fill:url(#u2)" /><linearGradient x1="45.4914" y1="-117.9547" x2="45.9407" y2="-117.5895" gradientUnits="userSpaceOnUse" gradientTransform="matrix(115.425, 0, 0, 29.925, -5125.077, 3826.124)" id="w2"><stop offset="0%" stop-color="#F4E072" stop-opacity="1" /><stop offset="100%" stop-color="#DB9427" stop-opacity="1" /></linearGradient><ellipse cx="150.3" cy="301.5" rx="31.6" ry="8.2" id="x2" style="fill:url(#w2)" /><linearGradient x1="45.4656" y1="-126.0065" x2="46.0545" y2="-126.0065" gradientUnits="userSpaceOnUse" gradientTransform="matrix(117.135, 0, 0, 18.6219, -5208.417, 2651.479)" id="y2"><stop offset="0%" stop-color="#D9952A" stop-opacity="1" /><stop offset="6.438854%" stop-color="#CA7519" stop-opacity="1" /><stop offset="30.54%" stop-color="#E3AD3A" stop-opacity="1" /><stop offset="51.05%" stop-color="#FFEC91" stop-opacity="1" /><stop offset="68.8%" stop-color="#E9BD44" stop-opacity="1" /><stop offset="86.24%" stop-color="#FFED6C" stop-opacity="1" /><stop offset="93.87%" stop-color="#F2D353" stop-opacity="1" /><stop offset="100%" stop-color="#F2B947" stop-opacity="1" /></linearGradient><path d="M119.2 299.9 C119 300.2 118.9 300.6 118.9 301 C118.9 305.5 132.9 309.2 150.3 309.2 C167.7 309.2 181.7 305.5 181.7 301 C181.7 300.6 181.6 300.3 181.4 299.9 C182 300.5 182.4 301.2 182.4 301.9 C182.4 306.4 168 310.1 150.3 310.1 C132.6 310.1 118.2 306.4 118.2 301.9 C118.2 301.3 118.6 300.6 119.2 299.9 z" id="z2" style="fill:url(#y2)" /><linearGradient x1="45.196" y1="-121.5895" x2="45.3746" y2="-120.6758" gradientUnits="userSpaceOnUse" gradientTransform="matrix(101.745, 0, 0, 23.94, -4458.332, 3199.41)" id="a3"><stop offset="0%" stop-color="#F8DD61" stop-opacity="1" /><stop offset="100%" stop-color="#EAA330" stop-opacity="1" /></linearGradient><ellipse cx="150.3" cy="300.8" rx="27.8" ry="6.6" id="b3" style="fill:url(#a3)" /><linearGradient x1="45.5694" y1="-134.267" x2="45.0221" y2="-134.267" gradientUnits="userSpaceOnUse" gradientTransform="matrix(101.745, 0, 0, 13.2525, -4458.332, 2077.223)" id="c3"><stop offset="0%" stop-color="#F4CA2F" stop-opacity="1" /><stop offset="51.38%" stop-color="#BF7737" stop-opacity="1" /><stop offset="100%" stop-color="#E4A929" stop-opacity="1" /></linearGradient><path d="M122.6 301.5 C122.5 301.3 122.4 301 122.4 300.8 C122.4 297.2 134.9 294.2 150.2 294.2 C165.5 294.2 178 297.1 178 300.8 C178 301 177.9 301.3 177.8 301.5 C176.3 298.2 164.5 295.6 150.1 295.6 C135.7 295.6 124.1 298.2 122.6 301.5 z" id="d3" style="fill:url(#c3)" /></g></defs><desc>HOH5A7E5GIH,jPYZtwpSE7eHbRWW52LLN0A0a+YXrcetauxdZCTDmeP9A+6hif++IV/JmTsro7t2TKC+XCgESzTGrdwW+Hy7hLHR+diFhTdjUfrtbijuTu3hEOtXCANKAP59h/o5ylEN</desc></svg>