<?xml version="1.0" encoding="utf-8"?><!DOCTYPE svg PUBLIC "-//W3C//DTD SVG 1.1//EN" "http://www.w3.org/Graphics/SVG/1.1/DTD/svg11.dtd"><svg x="0" y="0" width="340px" height="340px" viewBox="0, 0, 340, 340" preserveAspectRatio="xMidYMid" font-size="0" id="a" enable-background="new 0 0 340 340" xmlns="http://www.w3.org/2000/svg" xmlns:xlink="http://www.w3.org/1999/xlink" xmlns:xml="http://www.w3.org/XML/1998/namespace" version="1.1"><g id="b" fill="#000"><g id="c"><g transform="translate(0, 0) translate(0, 224)" id="d"><ellipse cx="168.6" cy="53.1" rx="57.8" ry="12.8" fill-opacity="0.25" id="e" /></g><g id="f"><g transform="translate(-285.9, 63.99997) translate(25.5, 156.5) scale(-1, 1) translate(-25.5, -156.5) translate(0, 130)" id="g"><g transform="translate(25.5, 26.5) scale(-1, 1) translate(-25.5, -26.5)" id="h"><path d="M428.3 48.7 C419.3 55.3 412.6 58.4 408.1 58 C401.4 57.4 391.1 53 387.3 45.9 C383.6 38.7 383.3 27.3 384.9 22.4 C386.5 17.4 390.2 9.9 396.1 7.1 C402 4.3 407.1 6 409.7 7.9 C412.3 9.8 415.3 14.8 414.1 19.2 C413.3 22.2 412.7 23.8 412.2 24.2 C412 21.9 410.9 20.9 408.8 21.3 C405.6 21.9 400.6 27.2 401.5 30.9 C402.4 34.5 405.6 38.2 408.8 38.5 C412 38.8 417 35.6 418.7 34.2 C419.8 33.3 421.8 31 424.8 27.3 C430.1 24.3 433 26.2 433.5 33.1 C434.1 40 432.3 45.2 428.3 48.7 z" id="i" fill="#EFE9E6" /><path d="M412.5 23.9 C412.4 24.1 412.3 24.2 412.2 24.3 C411.6 22.7 410.3 22.1 408.2 22.5 C405 23.1 401.7 27.2 402.5 30.8 C403.4 34.4 405 36.5 408.2 36.8 C411.4 37.1 415.2 34.5 416.8 33.2 C417.9 32.3 420.6 30 425 26.3 C430 24.1 432.8 26.3 433.4 32.6 C430.3 35.5 416.5 45.4 415.2 45.9 C413.8 46.4 409.3 48.1 404.5 48 C399.7 47.9 395.3 43.8 393.8 41.3 C392.2 38.9 391 35 391 30.8 C391 26.6 392.7 20.6 395.1 17.9 C397.5 15.3 399.2 13.9 402.5 13.9 C404.7 13.9 407.4 14.3 410.2 17.2 C411.2 18.2 411.8 20.4 412.5 23.9 z" id="j" fill="#2C2F32" /><path d="M412.2 24.3 C411.6 22.7 410.3 22.1 408.2 22.5 C405 23.1 401.7 27.2 402.5 30.8 C403.4 34.4 405 36.5 408.2 36.8 C411.4 37.1 415.2 34.5 416.8 33.2 C417.9 32.3 420.6 30 425 26.3 C428.7 24.7 431.1 25.4 432.4 28.4 C433 29.6 433.3 31.2 433.5 33.2 C434.1 40.1 432.3 45.3 428.3 48.8 C419.3 55.4 412.6 58.5 408.1 58.1 C401.4 57.5 391.1 53.1 387.3 46 C383.6 38.8 383.3 27.4 384.9 22.5 C386.5 17.5 390.2 10 396.1 7.2 C402 4.4 407.1 6.1 409.7 8 C412.3 9.9 415.3 14.9 414.1 19.3 C413.3 22.3 412.7 23.9 412.2 24.3 z M408.3 21.3 C410.2 20.9 411.4 21.5 411.9 22.9 C412.4 22.5 412.9 21.1 413.6 18.3 C414.7 14.4 411.7 10.4 409.4 8.6 C407.1 6.8 402.6 4.9 397.2 7.4 C391.8 9.9 388.5 16.8 387 21.3 C385.5 25.8 385.8 36.1 389.2 42.7 C392.7 49.2 402 53.2 408.1 53.7 C412.2 54.1 418.3 51.2 426.5 45.2 C430.1 42 432.1 37.5 431.6 31.2 C431.5 29.4 431.2 29.3 430.7 28.3 C429.5 25.6 428.1 26.8 424.8 28.3 C420.8 31.7 416.2 35 415.2 35.8 C413.7 37 409.2 37.9 406.3 37.6 C403.4 37.3 401.9 34.4 401.5 29.4 C401.5 26 405.3 21.9 408.3 21.3 z" opacity="0.15" id="k" /></g></g><g transform="translate(123.6, 274.8) scale(1) translate(-123.6, -274.8) translate(-285.9, 63.59998) translate(20, 150)" id="l"><path d="M418 16.4 C418 16.4 415.5 9 413.5 8.1 C411.5 7.2 409.1 5.1 402.7 6.1 C396.3 7.1 391.2 9.7 388.3 13.1 C385.4 16.4 382.6 26.3 385.4 31.7 C387.3 35.3 390.5 40 395.1 45.6 C389.5 45.6 386.3 46.1 385.4 47 C384.1 48.4 382.7 53.9 384.1 57 C385.4 60 387.5 64.2 393.6 63.9 C399.7 63.7 414.1 60.2 416.6 59.1 C419.1 58 417.8 40.7 417.8 39.4 C417.7 13 418 16.4 418 16.4 z" id="m" fill="#CAC3C0" /><path d="M418 16.4 C418 16.4 417.7 12.9 417.8 39.4 C417.8 40.7 419.1 58 416.6 59.1 C414.1 60.2 399.7 63.7 393.6 63.9 C387.5 64.2 385.4 60 384.1 57 C382.7 53.9 384.1 48.4 385.4 47 C386.3 46.1 389.5 45.6 395.1 45.6 C390.5 40 387.3 35.3 385.4 31.7 C382.6 26.3 385.4 16.4 388.3 13.1 C391.2 9.7 396.3 7.1 402.7 6.1 C409.1 5.1 411.5 7.2 413.5 8.1 C415.5 9.1 418 16.4 418 16.4 z M416.7 16.6 C416.7 16.6 414.4 9.8 412.5 8.9 C410.6 8 408.4 6.1 402.5 7.1 C396.6 8.1 391.9 10.4 389.3 13.6 C386.6 16.6 384 25.8 386.6 30.8 C388.4 34.1 393.9 41.7 398.2 46.8 C393 46.8 387.9 47.2 387.1 48 C385.9 49.3 384.1 51.2 385.4 54.1 C386.6 56.9 388.5 60.7 394.2 60.5 C399.8 60.3 413.1 57.1 415.4 56.1 C417.7 55.1 416.5 39.1 416.5 37.9 C416.4 13.5 416.7 16.6 416.7 16.6 z" opacity="0.15" id="n" /></g><g transform="translate(215, 274.8) scale(1) translate(-215, -274.8) translate(-285.9, 63.59998) translate(106.5, 179.5) scale(-1, 1) translate(-106.5, -179.5) translate(89, 150)" id="o"><path d="M-348.6 16.4 C-348.6 16.4 -351.1 9 -353.1 8.1 C-355.1 7.2 -357.5 5.1 -363.9 6.1 C-370.3 7.1 -375.4 9.7 -378.3 13.1 C-381.2 16.4 -384 26.3 -381.2 31.7 C-379.3 35.3 -376.1 40 -371.5 45.6 C-377.1 45.6 -380.3 46.1 -381.2 47 C-382.5 48.4 -383.9 53.9 -382.5 57 C-381.2 60 -379.1 64.2 -373 63.9 C-366.9 63.7 -352.5 60.2 -350 59.1 C-347.5 58 -348.8 40.6 -348.8 39.3 C-348.8 13 -348.6 16.4 -348.6 16.4 z" id="p" fill="#CAC3C0" /><path d="M-348.6 16.4 C-348.6 16.4 -348.8 12.9 -348.8 39.3 C-348.8 40.6 -347.5 58 -350 59.1 C-352.5 60.2 -366.9 63.7 -373 63.9 C-379.1 64.2 -381.2 60 -382.5 57 C-383.9 53.9 -382.5 48.4 -381.2 47 C-380.3 46.1 -377.1 45.6 -371.5 45.6 C-376.1 40 -379.3 35.3 -381.2 31.7 C-384 26.3 -381.2 16.4 -378.3 13.1 C-375.4 9.7 -370.3 7.1 -363.9 6.1 C-357.5 5.1 -355.1 7.2 -353.1 8.1 C-351.1 9.1 -348.6 16.4 -348.6 16.4 z M-350 16.5 C-350 16.5 -352.3 9.7 -354.1 8.9 C-355.9 8.1 -358.1 6.1 -364 7.1 C-369.9 8.1 -374.6 10.3 -377.3 13.5 C-380 16.5 -382.5 25.6 -380 30.6 C-378.2 33.9 -373.6 41.1 -369.3 46.3 C-374.4 46.3 -379 47.1 -379.8 48 C-381 49.3 -382.4 51 -381.1 53.9 C-379.9 56.7 -378 60.5 -372.4 60.2 C-366.8 60 -353.5 56.8 -351.2 55.8 C-348.9 54.8 -350.1 38.8 -350.1 37.6 C-350.2 13.4 -350 16.5 -350 16.5 z" opacity="0.15" id="q" /></g><g transform="translate(-285.9, 63.59998) translate(26, 89)" id="r"><path d="M397 32.1 C391 38.3 389.6 53.9 391.7 73.6 C393.8 93.4 398.5 110.6 404.4 118.6 C410.3 126.6 419.1 128.3 429.1 128.3 C439.1 128.3 444.7 128.5 451.9 120.5 C459 112.6 463.7 84.2 465.1 74.4 C466.5 64.7 469.4 41 460.1 32.9 C455.5 28.8 444.8 7 431.3 6.5 C417.8 6 403 26 397 32.1 z" id="s" fill="#CAC3C0" /><path d="M397 32.1 C391 38.3 389.6 53.9 391.7 73.6 C392.6 81.9 396.1 90.6 397.8 97.5 C400.1 107.1 401 114.1 404.4 118.7 C410.3 126.7 419.1 128.4 429.1 128.4 C439.1 128.4 444.7 128.6 451.9 120.6 C459 112.7 463.7 84.3 465.1 74.5 C466.5 64.8 469.4 41.1 460.1 33 C455.5 28.9 444.8 7.3 431.3 6.8 C417.8 6.2 403 26 397 32.1 z" id="t" fill="#CAC3C0" /><path d="M397 32.1 C403 26 417.8 6.2 431.1 6.6 C444.7 7.1 455.4 28.8 459.9 32.8 C469.2 40.9 466.3 64.6 464.9 74.3 C463.5 84.1 458.8 112.5 451.7 120.4 C444.5 128.4 438.9 128.2 428.9 128.2 C418.9 128.2 410.1 126.5 404.2 118.5 C398.3 110.5 393.6 93.2 391.5 73.5 C389.6 53.9 391 38.3 397 32.1 z M398.3 32.4 C392.5 38.4 391.2 53.3 393.2 72.3 C395.2 91.4 399.7 107.8 405.4 115.5 C411.1 123.2 419.5 124.8 429.1 124.8 C438.7 124.8 444.1 125 451 117.3 C457.8 109.7 462.3 82.4 463.7 73 C465 63.7 467.8 40.9 458.9 33.1 C454.3 29.2 444.1 8.5 431 8 C418.2 7.5 404 26.5 398.3 32.4 z" opacity="0.15" id="u" /></g><g transform="translate(-285.9, 63.59998) translate(31, 116)" id="v"><path d="M440.7 20.9 C437.4 27 435.6 30.6 435.4 31.9 C434.9 33.7 434.1 60.9 434.6 71.5 C435.1 82.1 433.5 90 435 93.6 C436.5 97.2 433.3 102.1 437.6 103.8 C441.9 105.5 455.8 106.2 460 105.5 C464.1 104.8 462.3 98.7 461.6 96.7 C460.9 94.8 452.9 96 452.2 91.1 C451.5 86.1 454 75.1 456.7 66.9 C458.5 61.5 459.7 55.4 460.4 48.8 L452.6 16.6 L440.7 20.9 z" id="w" fill="#FEFEFE" /><path d="M435 35.9 C435.7 29.7 436.4 25.7 437.3 24.1 C440.6 17.9 445.3 14 446.6 12.5 C449.5 9.5 455.1 6.3 455.9 6 C456.7 5.7 461.5 16.2 462.4 21.9 C463.3 27.6 463.4 43.4 461.5 51.1 C460.2 56.5 459 60.4 457.7 63.6 C456.5 66.7 454.9 70.4 454.3 70.9 C453.8 71.3 453.7 67.4 453.3 68.2 C452 70.2 450.6 71.6 449 72.5 C451.4 67.5 452.9 62.9 453.6 58.7 C454.3 54.6 454.4 48.2 453.9 39.6 C453.3 32.4 452.1 28.3 450.2 27.3 C449 26.7 445.1 27.5 441 30.2 C439.7 31.2 437.7 33 435 35.9 z" id="x" fill="#46494D" /><path d="M457.7 63.6 C457.4 64.7 457.1 65.8 456.7 66.9 C454 75.1 451.5 86.1 452.2 91.1 C452.9 96 460.9 94.8 461.6 96.7 C462.3 98.7 464.1 104.8 460 105.5 C455.8 106.2 441.9 105.5 437.6 103.8 C433.3 102.1 436.5 97.2 435 93.6 C433.5 90 435.1 82.1 434.6 71.5 C434.2 63.1 434.6 44.1 435.1 35.8 C435.1 35.8 435.1 35.9 435 35.9 C435 35.5 435.1 35.1 435.1 34.8 C435.2 33.3 435.3 32.2 435.4 31.9 C435.4 31.7 435.5 31.5 435.6 31.1 C436.1 27.6 436.7 25.2 437.3 24.1 C440.6 17.9 445.3 14 446.6 12.5 C449.5 9.5 455.1 6.3 455.9 6 C456.7 5.7 461.5 16.2 462.4 21.9 C463.3 27.6 463.4 43.4 461.5 51.1 C460.2 56.5 459 60.4 457.7 63.6 z M455.9 65.1 C456.2 64.1 456.5 63 456.8 62 C458 59 459.1 55.3 460.3 50.3 C462 43 461.9 28.1 461.1 22.9 C460.3 17.7 455.9 7.6 455.2 7.9 C454.5 8.2 449.3 11.2 446.7 14 C445.5 15.4 441.2 19.1 438.2 24.9 C437.6 26 437.1 28.2 436.7 31.5 C436.6 31.8 436.5 32 436.5 32.2 C436.4 32.5 436.3 33.5 436.3 34.9 C436.3 35.2 436.2 35.6 436.2 35.9 C435.8 43.7 436.3 61.6 436.7 69.6 C437.2 79.6 434.8 86.8 436.2 90.2 C437.6 93.6 434.6 98.2 438.6 99.8 C442.6 101.4 454.7 102.9 458.5 102.2 C462.2 101.5 461 99.6 460.4 97.7 C459.8 95.9 451.1 97.1 450.5 92.5 C449.7 87.8 453.4 72.8 455.9 65.1 z" opacity="0.15" id="y" /><path d="M406.6 20.9 C409.9 27 411.7 30.6 411.9 31.9 C412.4 33.7 413.2 60.9 412.7 71.5 C412.2 82.1 413.8 90 412.3 93.6 C411.4 95.8 412.8 102.1 411.3 103.6 C408.2 105.8 391.5 105.5 387.8 105.8 C384.1 106.1 384 101.2 384.7 99.3 C385.1 98.2 385.8 97 388.4 95.3 C390.4 94 394.4 94.4 394.8 92.2 C395.5 87.2 393.4 75.1 390.7 66.9 C388.9 61.5 387.7 55.4 387 48.8 L394.7 16.6 L406.6 20.9 z" id="z" fill="#FEFEFE" /><path d="M412.3 35.8 C411.6 29.6 410.9 25.6 410 24 C406.7 17.9 402 14 400.7 12.5 C397.8 9.5 392.2 6.3 391.4 6 C390.6 5.7 385.8 16.2 384.9 21.9 C384 27.6 383.9 43.4 385.8 51.1 C387.1 56.5 388.3 60.4 389.6 63.6 C390.8 66.7 392.4 70.4 393 70.9 C393.5 71.3 393.6 67.4 394 68.2 C395.3 70.2 396.7 72.3 398.3 74.4 C395.9 68.1 394.4 62.9 393.7 58.7 C393 54.6 392.9 48.2 393.4 39.6 C394 32.4 395.2 28.3 397.1 27.3 C398.3 26.7 402.2 27.5 406.3 30.2 C407.6 31.1 409.6 33 412.3 35.8 z" id="a1" fill="#46494D" /><path d="M411.7 31.2 C411.8 31.5 411.8 31.7 411.9 31.9 C412 32.2 412.1 33.1 412.2 34.6 C412.2 35 412.3 35.4 412.3 35.8 L412.2 35.7 C412.6 44 413.1 63 412.7 71.5 C412.2 82.1 413.8 90 412.3 93.6 C411.4 95.8 412.8 102.1 411.3 103.6 C408.2 105.8 391.5 105.5 387.8 105.8 C384.1 106.1 384 101.2 384.7 99.3 C385.1 98.2 385.8 97 388.4 95.3 C390.4 94 394.4 94.4 394.8 92.2 C395.5 87.2 393.4 75.1 390.7 66.9 C390.4 66.1 390.2 65.3 390 64.5 C389.9 64.2 389.8 63.9 389.6 63.6 C388.3 60.4 387.1 56.5 385.8 51.1 C383.9 43.3 384 27.5 384.9 21.9 C385.8 16.2 390.6 5.7 391.4 6 C392.2 6.3 397.8 9.5 400.7 12.5 C402 14 406.7 17.9 410 24 C410.7 25.2 411.2 27.6 411.7 31.2 z M410.3 31.1 C409.8 27.7 409.3 25.4 408.7 24.3 C405.7 18.6 401.5 14.9 400.3 13.5 C397.7 10.7 392.6 7.7 391.9 7.4 C391.2 7.1 386.9 17 386 22.3 C385.1 27.6 385.2 42.6 386.9 49.8 C388.1 54.9 391.7 65 391.9 65.7 C394.3 73.4 396.8 89.1 396.2 93.7 C395.8 95.8 393 94.5 390.6 95.5 C388.2 96.5 387.2 97.9 386.9 98.9 C386.3 100.7 385.9 102.5 389.2 102.2 C392.5 101.9 406.8 102.5 409.6 100.4 C411 99 409.9 91.6 410.7 89.5 C412.1 86.1 410.6 78.7 411.1 68.8 C411.5 60.8 411.1 43 410.7 35.3 C410.7 34.9 410.6 34.5 410.6 34.1 C410.5 32.8 410.4 31.9 410.4 31.6 C410.4 31.6 410.3 31.4 410.3 31.1 z" opacity="0.15" id="b1" /></g></g><g transform="translate(169.8, 187.5) scale(0.9081964) translate(-169.8, -187.5)" id="c1"><g transform="translate(139.9, 120.5) scale(0.8) translate(-139.9, -120.5) translate(-285.8, 64.09997) translate(26, 0)" id="d1"><g transform="translate(0.775704, 0)" id="e1"><path d="M383.5 49.2 C383.4 40.7 383.4 33.7 385.1 25.4 C386.8 17.1 393.9 9 395.1 7.3 C396.3 5.6 399 5.5 400 7.3 C400.5 8.3 401.7 10.6 403.4 14.4 C404.8 17.5 406.2 22 406.9 23.5 C410.4 31.4 413.3 35.7 414.2 40 C414.1 46.4 409 50.5 399.9 60.6 C398.3 62.5 395.1 63.8 391.5 63.2 C387.9 62.6 383.6 57.7 383.5 49.2 z" id="f1" fill="#46494D" /><path d="M383.5 49.2 C383.4 40.7 383.4 33.7 385.1 25.4 C386.8 17.1 393.9 9 395.1 7.3 C396.3 5.6 399 5.5 400 7.3 C400.5 8.3 401.7 10.6 403.4 14.4 C404.8 17.5 406.2 22 406.9 23.5 C410.4 31.4 413.3 35.7 414.2 40 C414.1 46.4 409 50.5 399.9 60.6 C398.3 62.5 395.1 63.8 391.5 63.2 C387.9 62.6 383.6 57.7 383.5 49.2 z M385.6 46.7 C385.7 54.4 389.3 58.9 392.4 59.4 C395.4 59.9 398.1 58.8 399.5 57 C407.2 47.8 411.5 44.1 411.6 38.3 C410.8 34.4 408.4 30.5 405.4 23.3 C404.8 21.9 403.6 17.9 402.4 15 C401 11.5 400 9.5 399.5 8.6 C398.7 7 396.4 7.1 395.4 8.6 C394.4 10.1 388.4 17.6 386.9 25.1 C385.4 32.6 385.5 39 385.6 46.7 z" opacity="0.15" id="g1" /><path d="M389.4 55.7 C386 50.7 386.8 36.3 388 27.6 C389.1 18.8 394.3 14.6 395.6 13.2 C396.8 12.4 397.6 13.8 399.3 18 C400.2 20.3 401.4 25 402.7 27.6 C406.5 34.8 409.5 38.3 409.3 41.9 C409.1 46.8 405.3 47.1 401.3 53.4 C398.6 57.6 392.8 60.7 389.4 55.7 z" id="h1" fill="#EFE9E6" /></g></g><g transform="translate(199.9001, 120.5) scale(0.8) translate(-199.9001, -120.5) translate(-283.8, 65.29997) translate(101, 29) scale(-1, 1) translate(-101, -29) translate(85, 0)" id="i1"><g transform="translate(0.224296, 0)" id="j1"><path d="M-383.2 49.2 C-383.3 40.7 -383.3 33.7 -381.6 25.4 C-379.9 17.1 -372.8 9 -371.6 7.3 C-370.4 5.6 -367.7 5.5 -366.7 7.3 C-366.2 8.3 -365 10.6 -363.3 14.4 C-361.9 17.5 -360.5 22 -359.8 23.5 C-356.3 31.4 -353.4 35.7 -352.5 40 C-352.6 46.4 -357.7 50.5 -366.8 60.6 C-368.4 62.5 -371.6 63.8 -375.2 63.2 C-378.8 62.6 -383.1 57.7 -383.2 49.2 z" id="k1" fill="#46494D" /><path d="M-383.2 49.2 C-383.3 40.7 -383.3 33.7 -381.6 25.4 C-379.9 17.1 -372.8 9 -371.6 7.3 C-370.4 5.6 -367.7 5.5 -366.7 7.3 C-366.2 8.3 -365 10.6 -363.3 14.4 C-361.9 17.5 -360.5 22 -359.8 23.5 C-356.3 31.4 -353.4 35.7 -352.5 40 C-352.6 46.4 -357.7 50.5 -366.8 60.6 C-368.4 62.5 -371.6 63.8 -375.2 63.2 C-378.8 62.6 -383.1 57.7 -383.2 49.2 z M-381.9 47 C-381.8 54.8 -378 59.2 -374.8 59.8 C-371.6 60.4 -368.8 59.2 -367.3 57.4 C-359.2 48.2 -354.7 44.4 -354.6 38.6 C-355.4 34.7 -358 30.7 -361.1 23.5 C-361.7 22.1 -363 18 -364.2 15.2 C-365.7 11.7 -366.8 9.6 -367.2 8.7 C-368.1 7.1 -370.5 7.1 -371.6 8.7 C-372.7 10.3 -379 17.6 -380.5 25.2 C-382 32.8 -382 39.2 -381.9 47 z" opacity="0.15" id="l1" /><path d="M-377.3 55.7 C-380.7 50.7 -379.9 36.3 -378.7 27.6 C-377.6 18.8 -372.4 14.6 -371.1 13.2 C-369.9 12.4 -369.1 13.8 -367.4 18 C-366.5 20.3 -365.3 25 -364 27.6 C-360.2 34.8 -357.2 38.3 -357.4 41.9 C-357.6 46.8 -361.4 47.1 -365.4 53.4 C-368.1 57.6 -373.9 60.7 -377.3 55.7 z" id="m1" fill="#EFE9E6" /></g></g><g transform="translate(92.80002, 75.39997) translate(22, 25)" id="n1"><path d="M55.1 6.6 C55.8 6.6 60 3.9 60.8 3.9 C59.5 4.8 61.3 6 62.6 6 C65.7 6.2 71.2 2.5 74.2 3 C75.6 3.2 80.1 3.2 80.1 3.9 C77.3 5 78 5 78.7 5.5 C81.4 7.1 86.3 9.4 89.9 12 C91.3 13 96.4 13.1 97.4 8 C98.7 10.4 98.6 14.3 98.6 17.8 C98.6 19.5 97.6 20.2 101.5 17.8 C101.6 18.2 102 20.2 101.5 21.4 C100.8 23.2 99.3 24.5 99.5 24.8 C101 26.4 102.3 28.7 103.4 32 C102.9 31.5 101.9 30.8 100.3 30 C98 28.7 100.5 31.6 103.4 34.7 C106.3 37.8 108.7 41.3 111.5 42.1 C108.7 42.2 107.5 41.5 107.3 41.3 C107.1 41 110 43.2 110.6 45.7 C109.6 45 108.2 44.1 106.5 43.2 C109.3 45.5 110.6 47.6 110.6 49.3 C109.2 49.1 108.8 49.5 109.6 50.3 C112.1 53.2 113.6 55.9 113.9 58.6 C112.3 57.5 111.5 57.8 111.5 59.9 C111.5 62 114.9 61.9 113.9 68 C112.2 65.5 112.6 69.2 113.2 71.6 C113.8 74 112.7 73.7 111.5 75.6 C113.1 75.2 113.7 75.2 113.2 75.6 C110.6 78.1 108.8 80.6 107.8 82.9 C107.8 81.4 107.2 80.3 105.9 79.8 C105.5 82 105.3 83.6 105.3 84.6 C105.3 86 100.3 87.2 100.3 90.1 C100.3 92 99.3 93.6 97.3 94.8 L95.8 91.2 C94.4 92 93.5 93.2 93.2 94.8 C92.7 97.2 91 100.7 89.8 100.7 C89.6 99.4 89.2 98.1 88.5 96.8 C88.6 99.4 88.4 101.2 87.8 102.2 C87.2 103.2 86.4 104.3 85.3 105.5 L85.3 102.2 C84.6 104.4 83.4 106.1 81.7 107.3 C79.2 109.1 80.7 110.5 78.5 112.8 C77.3 110.4 77.5 113.7 76.6 115.9 C75.7 118.1 73 120.9 71.8 121.5 C71.3 120.4 71 119.5 71 118.7 C70 120 69.3 123.2 67.1 124.8 C65.6 125.8 64.4 126.4 63.3 126.4 C61.4 129.8 60.2 131.9 59.6 132.5 C59 133.1 58.7 131.7 58.7 128.1 C57 132.5 56.3 135 56.7 135.8 C57.2 136.9 52.7 133.6 52 129.2 C50.8 130.1 50.6 130.2 50.5 131.7 C50.4 133.2 47.3 125.2 47.1 122.3 C46.5 123.4 46.1 124.6 46.1 125.8 C44.4 124 43.4 122.6 42.9 121.7 C42.2 120.4 42.8 118.4 42.1 117.5 C41.1 116 40.2 114 39.3 111.4 C40.5 113.9 40.5 115.7 39.3 116.9 C37.8 114.6 35.1 114.4 35.1 110 C34.7 110.8 34.7 112 35.1 113.5 C34.4 112.8 31.8 110 30.9 107.5 C30 105 30.3 101.5 29.8 100.8 C29.1 102 28.6 101.3 29 104.9 C28.2 104.9 26.9 104.6 25.9 103.1 C25.1 101.9 24.3 98.6 23.7 98.2 C22.7 97.5 20.9 99.6 20.3 98.2 C19.9 97.3 21.3 92.7 21 92.6 C18.2 92.9 19.5 93.4 17.7 95 C14.3 93.1 16.2 92.4 14.6 90.3 C13.5 88.9 13.1 86.8 13.5 84 C12.4 85 12.1 86.2 12.7 87.6 C10.8 87.4 9.6 84.1 9.6 82.2 C8.5 83.3 7.9 84.2 7.7 84.9 C5.7 82.8 4.7 79.5 4.5 75.1 C4.4 70.7 4.7 68 5.5 67.1 C3.7 67.4 2.6 69 2.1 71.9 C0.7 69.8 -0.3 66.5 0.2 62.2 C0.5 59.4 1.3 56.7 2.6 54.1 L0.6 56.7 C-0.2 55 -0.2 53.1 0.6 51.1 C1.8 48.1 5.7 44.1 7.3 40.1 C8.3 37.4 9.3 35.7 10.2 34.9 C9.1 35.8 8.3 36.6 7.8 37 C7.4 37.5 6.3 37.9 4.6 38.3 C6.1 37 7 36 7.2 35.4 C7.9 33.9 8.1 32.8 8.2 32.6 C8.3 32.3 7.1 33 4.6 34.8 C5.7 31.7 6.5 29.7 7.2 28.6 C8.3 26.9 10.9 25.5 10.9 25 C10.9 23.5 11.2 22.7 9.7 21.6 C8.7 20.8 7.9 18.2 7.2 13.8 L10.1 15.6 C9.2 8.8 8.8 5.6 8.8 6 C8.8 6.4 10.2 8.4 12.8 12 C15.7 14.1 17.8 14.9 19.1 14.1 C21 13 23.5 8.5 26.4 8 C27.1 7.9 28.2 6.8 29.2 6.5 C32 5.7 35.3 5.4 37 4.5 C37.7 4.2 40 4.3 40.9 3.8 C41.4 3.5 35.6 1.2 37 1 C37.5 0.9 41.6 1.9 44.1 3 C44.5 3.2 45.4 3.9 45.7 3.4 C46 3 45.7 1.4 46.2 1.7 C47.4 2.3 49.2 5.4 49.4 5.5 C50.3 5.8 52.9 4.5 53.6 4.6 C54.6 4.9 53.6 6.6 55.1 6.6 z" id="o1" fill="#171B24" /><path d="M55.1 6.6 C55.8 6.6 60 3.9 60.8 3.9 C59.5 4.8 61.3 6 62.6 6 C65.7 6.2 71.2 2.5 74.2 3 C75.6 3.2 80.1 3.2 80.1 3.9 C77.3 5 78 5 78.7 5.5 C81.4 7.1 86.3 9.4 89.9 12 C91.3 13 96.4 13.1 97.4 8 C98.7 10.4 98.6 14.3 98.6 17.8 C98.6 19.5 97.6 20.2 101.5 17.8 C101.6 18.2 102 20.2 101.5 21.4 C100.8 23.2 99.3 24.5 99.5 24.8 C101 26.4 102.3 28.7 103.4 32 C102.9 31.5 101.9 30.8 100.3 30 C98 28.7 100.5 31.6 103.4 34.7 C106.3 37.8 108.7 41.3 111.5 42.1 C108.7 42.2 107.5 41.5 107.3 41.3 C107.1 41 110 43.2 110.6 45.7 C109.6 45 108.2 44.1 106.5 43.2 C109.3 45.5 110.6 47.6 110.6 49.3 C109.2 49.1 108.8 49.5 109.6 50.3 C112.1 53.2 113.6 55.9 113.9 58.6 C112.3 57.5 111.5 57.8 111.5 59.9 C111.5 62 114.9 61.9 113.9 68 C112.2 65.5 112.6 69.2 113.2 71.6 C113.8 74 112.7 73.7 111.5 75.6 C113.1 75.2 113.7 75.2 113.2 75.6 C110.6 78.1 108.8 80.6 107.8 82.9 C107.8 81.4 107.2 80.3 105.9 79.8 C105.5 82 105.3 83.6 105.3 84.6 C105.3 86 100.3 87.2 100.3 90.1 C100.3 92 99.3 93.6 97.3 94.8 L95.8 91.2 C94.4 92 93.5 93.2 93.2 94.8 C92.7 97.2 91 100.7 89.8 100.7 C89.6 99.4 89.2 98.1 88.5 96.8 C88.6 99.4 88.4 101.2 87.8 102.2 C87.2 103.2 86.4 104.3 85.3 105.5 L85.3 102.2 C84.6 104.4 83.4 106.1 81.7 107.3 C79.2 109.1 80.7 110.5 78.5 112.8 C77.3 110.4 77.5 113.7 76.6 115.9 C75.7 118.1 73 120.9 71.8 121.5 C71.3 120.4 71 119.5 71 118.7 C70 120 69.3 123.2 67.1 124.8 C65.6 125.8 64.4 126.4 63.3 126.4 C61.4 129.8 60.2 131.9 59.6 132.5 C59 133.1 58.7 131.7 58.7 128.1 C57 132.5 56.3 135 56.7 135.8 C57.2 136.9 52.7 133.6 52 129.2 C50.8 130.1 50.6 130.2 50.5 131.7 C50.4 133.2 47.3 125.2 47.1 122.3 C46.5 123.4 46.1 124.6 46.1 125.8 C44.4 124 43.4 122.6 42.9 121.7 C42.2 120.4 42.8 118.4 42.1 117.5 C41.1 116 40.2 114 39.3 111.4 C40.5 113.9 40.5 115.7 39.3 116.9 C37.8 114.6 35.1 114.4 35.1 110 C34.7 110.8 34.7 112 35.1 113.5 C34.4 112.8 31.8 110 30.9 107.5 C30 105 30.3 101.5 29.8 100.8 C29.1 102 28.6 101.3 29 104.9 C28.2 104.9 26.9 104.6 25.9 103.1 C25.1 101.9 24.3 98.6 23.7 98.2 C22.7 97.5 20.9 99.6 20.3 98.2 C19.9 97.3 21.3 92.7 21 92.6 C18.2 92.9 19.5 93.4 17.7 95 C14.3 93.1 16.2 92.4 14.6 90.3 C13.5 88.9 13.1 86.8 13.5 84 C12.4 85 12.1 86.2 12.7 87.6 C10.8 87.4 9.6 84.1 9.6 82.2 C8.5 83.3 7.9 84.2 7.7 84.9 C5.7 82.8 4.7 79.5 4.5 75.1 C4.4 70.7 4.7 68 5.5 67.1 C3.7 67.4 2.6 69 2.1 71.9 C0.7 69.8 -0.3 66.5 0.2 62.2 C0.5 59.4 1.3 56.7 2.6 54.1 L0.6 56.7 C-0.2 55 -0.2 53.1 0.6 51.1 C1.8 48.1 5.7 44.1 7.3 40.1 C8.3 37.4 9.3 35.7 10.2 34.9 C9.1 35.8 8.3 36.6 7.8 37 C7.4 37.5 6.3 37.9 4.6 38.3 C6.1 37 7 36 7.2 35.4 C7.9 33.9 8.1 32.8 8.2 32.6 C8.3 32.3 7.1 33 4.6 34.8 C5.7 31.7 6.5 29.7 7.2 28.6 C8.3 26.9 10.9 25.5 10.9 25 C10.9 23.5 11.2 22.7 9.7 21.6 C8.7 20.8 7.9 18.2 7.2 13.8 L10.1 15.6 C9.2 8.8 8.8 5.6 8.8 6 C8.8 6.4 10.2 8.4 12.8 12 C15.7 14.1 17.8 14.9 19.1 14.1 C21 13 23.5 8.5 26.4 8 C27.1 7.9 28.2 6.8 29.2 6.5 C32 5.7 35.3 5.4 37 4.5 C37.7 4.2 40 4.3 40.9 3.8 C41.4 3.5 35.6 1.2 37 1 C37.5 0.9 41.6 1.9 44.1 3 C44.5 3.2 45.4 3.9 45.7 3.4 C46 3 45.7 1.4 46.2 1.7 C47.4 2.3 49.2 5.4 49.4 5.5 C50.3 5.8 52.9 4.5 53.6 4.6 C54.6 4.9 53.6 6.6 55.1 6.6 z" opacity="0.15" id="p1" /><path d="M55.1 6.6 C55.8 6.6 60 3.9 60.8 3.9 C59.5 4.8 61.3 6 62.6 6 C65.7 6.2 71.2 2.5 74.2 3 C75.6 3.2 80.1 3.2 80.1 3.9 C77.3 5 78 5 78.7 5.5 C81.4 7.1 86.3 9.4 89.9 12 C91.3 13 96.4 13.1 97.4 8 C98.7 10.4 98.6 14.3 98.6 17.8 C98.6 19.5 97.6 20.2 101.5 17.8 C101.6 18.2 102 20.2 101.5 21.4 C100.8 23.2 99.3 24.5 99.5 24.8 C101 26.4 102.3 28.7 103.4 32 C102.9 31.5 101.9 30.8 100.3 30 C98 28.7 100.5 31.6 103.4 34.7 C106.3 37.8 108.7 41.3 111.5 42.1 C108.7 42.2 107.5 41.5 107.3 41.3 C107.1 41 110 43.2 110.6 45.7 C109.6 45 108.2 44.1 106.5 43.2 C109.3 45.5 110.6 47.6 110.6 49.3 C109.2 49.1 108.8 49.5 109.6 50.3 C112.1 53.2 113.6 55.9 113.9 58.6 C112.3 57.5 111.5 57.8 111.5 59.9 C111.5 62 114.9 61.9 113.9 68 C112.2 65.5 112.6 69.2 113.2 71.6 C113.8 74 112.7 73.7 111.5 75.6 C113.1 75.2 113.7 75.2 113.2 75.6 C110.6 78.1 108.8 80.6 107.8 82.9 C107.8 81.4 107.2 80.3 105.9 79.8 C105.5 82 105.3 83.6 105.3 84.6 C105.3 86 100.3 87.2 100.3 90.1 C100.3 92 99.3 93.6 97.3 94.8 L95.8 91.2 C94.4 92 93.5 93.2 93.2 94.8 C92.7 97.2 91 100.7 89.8 100.7 C89.6 99.4 89.2 98.1 88.5 96.8 C88.6 99.4 88.4 101.2 87.8 102.2 C87.2 103.2 86.4 104.3 85.3 105.5 L85.3 102.2 C84.6 104.4 83.4 106.1 81.7 107.3 C79.2 109.1 80.7 110.5 78.5 112.8 C77.3 110.4 77.5 113.7 76.6 115.9 C75.7 118.1 73 120.9 71.8 121.5 C71.3 120.4 71 119.5 71 118.7 C70 120 69.3 123.2 67.1 124.8 C65.6 125.8 64.4 126.4 63.3 126.4 C61.4 129.8 60.2 131.9 59.6 132.5 C59 133.1 58.7 131.7 58.7 128.1 C57 132.5 56.3 135 56.7 135.8 C57.2 136.9 52.7 133.6 52 129.2 C50.8 130.1 50.6 130.2 50.5 131.7 C50.4 133.2 47.3 125.2 47.1 122.3 C46.5 123.4 46.1 124.6 46.1 125.8 C44.4 124 43.4 122.6 42.9 121.7 C42.2 120.4 42.8 118.4 42.1 117.5 C41.1 116 40.2 114 39.3 111.4 C40.5 113.9 40.5 115.7 39.3 116.9 C37.8 114.6 35.1 114.4 35.1 110 C34.7 110.8 34.7 112 35.1 113.5 C34.4 112.8 31.8 110 30.9 107.5 C30 105 30.3 101.5 29.8 100.8 C29.1 102 28.6 101.3 29 104.9 C28.2 104.9 26.9 104.6 25.9 103.1 C25.1 101.9 24.3 98.6 23.7 98.2 C22.7 97.5 20.9 99.6 20.3 98.2 C19.9 97.3 21.3 92.7 21 92.6 C18.2 92.9 19.5 93.4 17.7 95 C14.3 93.1 16.2 92.4 14.6 90.3 C13.5 88.9 13.1 86.8 13.5 84 C12.4 85 12.1 86.2 12.7 87.6 C10.8 87.4 9.6 84.1 9.6 82.2 C8.5 83.3 7.9 84.2 7.7 84.9 C5.7 82.8 4.7 79.5 4.5 75.1 C4.4 70.7 4.7 68 5.5 67.1 C3.7 67.4 2.6 69 2.1 71.9 C0.7 69.8 -0.3 66.5 0.2 62.2 C0.5 59.4 1.3 56.7 2.6 54.1 L0.6 56.7 C-0.2 55 -0.2 53.1 0.6 51.1 C1.8 48.1 5.7 44.1 7.3 40.1 C8.3 37.4 9.3 35.7 10.2 34.9 C9.1 35.8 8.3 36.6 7.8 37 C7.4 37.5 6.3 37.9 4.6 38.3 C6.1 37 7 36 7.2 35.4 C7.9 33.9 8.1 32.8 8.2 32.6 C8.3 32.3 7.1 33 4.6 34.8 C5.7 31.7 6.5 29.7 7.2 28.6 C8.3 26.9 10.9 25.5 10.9 25 C10.9 23.5 11.2 22.7 9.7 21.6 C8.7 20.8 7.9 18.2 7.2 13.8 L10.1 15.6 C9.2 8.8 8.8 5.6 8.8 6 C8.8 6.4 10.2 8.4 12.8 12 C15.7 14.1 17.8 14.9 19.1 14.1 C21 13 23.5 8.5 26.4 8 C27.1 7.9 28.2 6.8 29.2 6.5 C32 5.7 35.3 5.4 37 4.5 C37.7 4.2 40 4.3 40.9 3.8 C41.4 3.5 35.6 1.2 37 1 C37.5 0.9 41.6 1.9 44.1 3 C44.5 3.2 45.4 3.9 45.7 3.4 C46 3 45.7 1.4 46.2 1.7 C47.4 2.3 49.2 5.4 49.4 5.5 C50.3 5.8 52.9 4.5 53.6 4.6 C54.6 4.9 53.6 6.6 55.1 6.6 z" opacity="0.1" id="q1" /><path d="M59.5 9 C60 10.2 61.7 8.2 62.4 8.2 C63.7 8.3 64.2 10.1 65.5 10.3 C67.1 10.5 69.4 9.1 70.9 9.3 C72.3 9.6 78.6 9 78.6 9.7 C76 10.8 76.7 10.8 77.3 11.2 C79.8 12.7 84.4 14.9 87.7 17.2 C89 18.1 93.7 18.3 94.7 13.5 C96 15.7 95.9 19.3 95.8 22.6 C95.8 24.2 94.8 24.9 98.5 22.6 C98.5 23 98.9 24.8 98.5 26 C97.9 27.7 96.4 28.9 96.7 29.2 C98.1 30.6 99.3 32.9 100.4 35.8 C98.6 35.5 98.6 36.3 100.4 38.3 C103.1 41.2 105.3 44.4 107.9 45.2 C105.3 45.3 104.2 44.7 104 44.4 C103.8 44.2 106.5 46.2 107.1 48.5 C106.1 47.8 104.9 47 103.2 46.2 C105.8 48.4 107.1 50.2 107.1 51.8 C105.8 51.6 105.5 52 106.2 52.8 C108 53.8 109.2 55.2 109.6 56.9 C107.7 56.9 108.3 56.9 108 58.5 C107.9 59.2 110.4 61.5 110.6 62.8 C108.6 62.2 108.4 64.3 108.6 64.8 C109.7 67.1 110.1 66.8 110.6 69 C110.9 70.5 110.6 72.2 109.6 74.3 C109 77.9 108.5 78.5 107.9 75.9 C107.1 72 105.7 78.1 105.3 78.6 C103.2 81 102.7 84.2 102.1 85.7 C102.1 84.3 101.2 81.9 99.4 78.6 C98.9 79.6 98.7 80.6 98.7 81.5 C98.7 82.8 98.7 85.9 96.1 89.2 C94.4 91.4 93.1 92.7 92.4 93.1 L90.9 89 C89.9 90.6 89.3 92.2 89 93.6 C88.5 95.8 88.2 94.3 87.7 96.1 C87.4 97.3 86.7 96.4 85.7 93.6 C85.7 95.3 85.5 96.8 85.1 98.2 C84.7 99.6 84.1 100.6 83.4 101.2 C83.6 99.8 83.6 98.8 83.4 98.2 C83.2 97.6 82.6 96.6 81.7 95.2 C81.3 99.7 80.7 102.3 80 103.2 C79.3 104.1 78.6 105.4 78.1 107.2 C77.7 105 77.4 103.4 77.4 102.4 C76.2 103.3 75.1 106.2 74.3 108.3 C73.5 110.4 73.4 110.9 72.1 112.7 C70.9 114.6 69.5 118.6 69.5 118.6 C69 115.1 68.7 113 68.6 112.2 C67.6 113.4 66.9 120 65.6 120.5 C65.1 118.9 64.1 117.8 62.5 117.3 C63.1 123.4 63.1 126.8 62.5 127.4 C61.9 128 61 126.9 59.6 124.1 C57.4 128.7 56.5 131.3 56.8 132 C57.1 132.6 54.9 128.4 54 124.9 C53.5 122.7 54.3 121.4 54 119.8 C52.9 120.7 51.8 122.7 51.7 124.1 C51.6 125.5 49.6 117.1 49.4 114.4 C48.8 115.4 48.3 117.2 47.8 119.8 C44.7 117.3 43 115 42.6 113 C42.2 111 42 109.7 42 109.1 C40.6 110.3 39.5 109.6 38.8 107 C37.7 103.2 38.3 103.2 38.3 103.2 C36.7 104.3 36.1 105.6 36.4 107 C35.7 106.3 35.9 104.9 35.1 101.9 C34.3 98.9 34.7 95.8 34.2 95.2 C33 96.3 32.4 99 32.5 103.2 C31.4 99.2 29.9 96.9 27.8 96.1 C24.8 95 23.9 90.3 25.7 87.4 C24.2 89.2 23.1 90.9 22.5 92.9 C22.5 91.3 20.3 89.4 18.7 87.4 C17.7 86.1 17.1 84.3 17.2 82 C15.5 84.1 15 85.7 15.5 87 C13.7 86.8 13 82 13 80.2 C12 81.2 11.3 79.2 10.8 74.1 C10 79.3 9.4 81.2 8.7 79.7 C7.8 77.7 6.9 78.2 6.8 75.3 C7 71.3 7.6 68.8 9 68 C8.1 68.6 7.3 69.1 6.6 69.6 C5.3 67.7 4.4 66.6 4.9 62.7 C5.2 60.1 5.6 57.9 6.2 56 L4.3 58.4 C3.6 56.8 3.6 55.1 4.3 53.2 C5.4 50.4 9.1 46.7 10.5 43 C11.5 40.5 12.4 38.9 13.2 38.2 C12.1 39.1 11.4 39.7 11 40.2 C10.6 40.6 9.6 41 8 41.4 C9.4 40.2 10.2 39.3 10.5 38.7 C11.1 37.3 11.3 36.3 11.4 36.1 C11.5 35.8 10.4 36.5 8 38.2 C9 35.4 9.8 33.4 10.5 32.4 C11.5 30.8 19 26.4 19 25.9 C19 24.5 14.2 27 12.8 25.9 C11.9 25.2 11.1 22.8 10.5 18.7 L13.2 20.3 C12.4 14.1 12 11.2 12 11.5 C12 11.8 13.3 13.7 15.8 17.1 C18.5 19.1 20.5 19.7 21.7 19.1 C23.5 18.1 25.8 13.9 28.5 13.4 C29.2 13.3 30.2 12.3 31.1 12 C33.7 11.3 36.8 11 38.4 10.2 C38.9 10 37.9 9.5 38.8 9 C39.3 8.7 41.8 9.1 43.1 9 C43.6 9 44.4 9.3 45.8 9.7 C46.8 9.9 47.4 7.4 47.8 7.5 C48.7 7.8 49.8 9.2 50.3 9.3 C50.9 9.5 53.2 7 54 9 C54.8 10.8 56.5 10.5 59.5 9 z" id="r1" fill="#46494D" /><path d="M66.4 61.3 C65.1 59.8 63.9 58.6 62.9 57.6 C61.9 56.6 60.3 55.4 58.2 53.8 C58.7 53.9 59.4 54 60.3 54.2 C61.2 54.4 62.4 55 63.8 55.5 C62.6 54.2 61.5 52.9 60.7 52.1 C59.9 51.3 58.9 50.4 57.7 49.4 C58.4 49.5 59 49.7 59.3 49.8 C59.6 49.9 60.5 50.4 61.7 50.8 C60.8 49.8 60.1 48.9 59.7 48.5 C59 47.8 58.3 47 57.9 46.5 C57.2 45.5 56.9 44.4 56.8 43.1 C56.9 41.6 57.1 40.2 57.2 38.9 C57.4 37 58.3 32.8 58.8 31.5 C59.8 28.7 61.4 27.4 63.4 25.6 C66.3 23 68.3 18.8 71.2 18.9 C74.1 19 76.6 21.3 79 23.5 C81.4 25.7 85 29.9 85.9 33.3 C86.8 36.7 85.9 41 85.9 44.5 C87.5 42.9 90.3 41.7 92.9 43.1 C95.6 44.5 98.1 46.1 99.3 47.9 C96.9 47.3 95.5 47.1 95.2 47.5 C98 48.4 99.6 50.2 100.1 52.8 C97.8 51.3 96.5 50.6 96 50.6 C98.5 53 99.9 55.5 100.1 58.3 C100.3 61 100.2 63.1 99.7 64.5 C98.4 62.1 97.2 60 96 58.3 C97.6 65 97.5 67.1 96.4 69.4 C95.3 71.7 95.3 72.3 95.3 72.3 C94.2 70.5 93.5 69 93.1 67.8 C93.5 72 94.3 75.3 93.1 76.9 C92.8 75.3 92.1 74.1 91.1 73.4 C91.2 77.1 90.7 79.8 89.5 81.6 C87.8 84.3 86.3 85.9 84.9 86.5 C85.2 85.3 85.2 84 84.9 82.6 C83.4 84.2 82.1 85.9 80.9 87.6 C79.7 89.3 78.6 90.4 77.6 91 C78.1 88.3 78.8 86.6 79.7 85.8 C77.1 87.3 72.8 93.5 70.8 94.6 C67.9 96.5 67.7 96.5 66.1 98.8 C65.8 99.2 67.4 96 67 96.2 C66.5 96.5 62.3 99.3 62.3 102 C61 102.7 61.6 96.8 60.8 97.9 C58.4 101.2 58.3 106.7 58.1 108.5 C57.6 108.1 55.6 107 54.1 104.6 C53 102.8 52.3 99.8 51.6 98.8 C50.5 101.2 52.9 103.2 50.2 101.4 C47.5 99.6 47 97.3 46.4 96.8 C45.8 96.2 43.4 95.3 42.7 94.7 C42 94.2 44.8 95.2 44.1 94.7 C42.7 93.6 41.2 92.6 40.1 91.5 C38.6 90.1 37.6 88.7 37.2 87.3 C36.7 88.8 36.7 89.8 37.2 90.5 C33.6 88 34.3 87.3 34 85.9 C33.3 87.7 32.7 87.4 33.3 88.7 C31.8 87.7 31.9 84.8 30.9 84.4 C30.1 85.8 30.2 85.5 29.7 86.6 C28 82.1 27.8 83.8 27.8 81.7 C27.6 82.8 27.3 83.7 26.8 84.4 C25.2 81.9 24.4 79.9 24.4 78.6 C24.4 77.3 24.4 76.4 24.4 75.9 C23.4 76.6 22.9 77.6 22.8 78.6 C22.8 80.2 18.7 75 18.5 71.5 C18.3 69.2 18.4 67.3 18.8 65.8 C17.4 67.4 16.8 68.8 16.9 70 C14.8 68.7 14.9 65.4 14.8 63.8 C14.7 62.2 13.9 62.1 14.2 61.2 C14.5 60.3 15.7 57.8 15.7 57.8 C13.7 59 12.7 60.3 12.6 61.6 C10.9 59.3 14 54.2 14.9 53 C14 53 13.2 53.4 12.6 54.2 C11.6 52.7 11.7 51.1 13 49.4 C13.8 46.5 14.4 44.4 15 43.1 C15.9 41.2 17 40.4 17.8 39.9 C18.6 39.4 22 38.4 23.6 44 C25.5 39.6 28.3 30.8 29.8 28.4 C31.3 26 35 20.7 37.8 19.9 C40.7 19.1 41.6 20 43.1 21.1 C44 21.7 44.8 23.2 46.4 24.7 C47.6 25.9 49.5 27 50.2 28.4 C51.1 30.2 52.3 31.3 53 33.7 C53.5 35.7 53.6 36.8 53.8 39.1 C54 41.4 54 41.2 54 43.1 C54 45 53.8 45.4 52.9 46.6 C52.6 47.1 51.5 47.8 50.7 48.6 C50.4 48.9 49.5 49.3 48.7 50.3 C50 49.9 51.2 50 51.7 49.8 C52.2 49.6 52.6 49.6 53 49.5 L50.5 51.6 L45.4 56.3 C47.5 55.4 49.7 54.4 50.2 54.2 C50.7 54 51.4 54 52.4 54 C50 55.3 48 56.2 47.5 56.7 C44.6 59.3 44.7 59.5 44.4 59.9 C45.4 59.4 49.3 57.6 55.1 57.6 C58.6 57.3 62.4 58.7 66.4 61.3 z" id="s1" fill="#EFE9E6" /><path d="M63.6 58.3 C63.4 58.1 63.1 57.8 62.9 57.6 C61.9 56.6 60.3 55.4 58.2 53.8 C58.7 53.9 59.3 54 60.1 54.2 C61.1 54.9 61.8 55.6 62.4 56.1 C63.3 57 64.4 58.1 65.6 59.5 C64.9 59.1 64.3 58.7 63.6 58.3 z M62.1 53.5 C61.6 53 61.1 52.5 60.7 52.1 C59.9 51.3 58.9 50.4 57.7 49.4 C58.2 49.5 58.6 49.6 58.9 49.7 C59.4 50.2 59.9 50.6 60.3 51 C61 51.7 62 52.7 63.1 53.9 C62.8 53.8 62.4 53.6 62.1 53.5 z M60.6 49.4 C60.2 49 60 48.7 59.7 48.5 C59 47.8 58.3 47 57.9 46.5 C57.2 45.5 56.9 44.4 56.8 43.1 C56.9 41.6 57.1 40.2 57.2 38.9 C57.4 37 58.3 32.8 58.8 31.5 C59.8 28.7 61.4 27.4 63.4 25.6 C66.3 23 68.3 18.8 71.2 18.9 C74.1 19 76.6 21.3 79 23.5 C81.4 25.7 85 29.9 85.9 33.3 C86.8 36.7 85.9 41 85.9 44.5 C87.5 42.9 90.3 41.7 92.9 43.1 C95.6 44.5 98.1 46.1 99.3 47.9 C96.9 47.3 95.5 47.1 95.2 47.5 C98 48.4 99.6 50.2 100.1 52.8 C97.8 51.3 96.5 50.6 96 50.6 C98.5 53 99.9 55.5 100.1 58.3 C100.3 61 100.2 63.1 99.7 64.5 C98.4 62.1 97.2 60 96 58.3 C97.6 65 97.5 67.1 96.4 69.4 C95.3 71.7 95.3 72.3 95.3 72.3 C94.2 70.5 93.5 69 93.1 67.8 C93.5 72 94.3 75.3 93.1 76.9 C92.8 75.3 92.1 74.1 91.1 73.4 C91.2 77.1 90.7 79.8 89.5 81.6 C87.8 84.3 86.3 85.9 84.9 86.5 C85.2 85.3 85.2 84 84.9 82.6 C83.4 84.2 82.1 85.9 80.9 87.6 C79.7 89.3 78.6 90.4 77.6 91 C78.1 88.3 78.8 86.6 79.7 85.8 C77.1 87.3 72.8 93.5 70.8 94.6 C67.9 96.5 67.7 96.5 66.1 98.8 C65.8 99.2 67.4 96 67 96.2 C66.5 96.5 62.3 99.3 62.3 102 C61 102.7 61.6 96.8 60.8 97.9 C58.4 101.2 58.3 106.7 58.1 108.5 C57.6 108.1 55.6 107 54.1 104.6 C53 102.8 52.3 99.8 51.6 98.8 C50.5 101.2 52.9 103.2 50.2 101.4 C47.5 99.6 47 97.3 46.4 96.8 C45.8 96.2 43.4 95.3 42.7 94.7 C42 94.2 44.8 95.2 44.1 94.7 C42.7 93.6 41.2 92.6 40.1 91.5 C38.6 90.1 37.6 88.7 37.2 87.3 C36.7 88.8 36.7 89.8 37.2 90.5 C33.6 88 34.3 87.3 34 85.9 C33.3 87.7 32.7 87.4 33.3 88.7 C31.8 87.7 31.9 84.8 30.9 84.4 C30.1 85.8 30.2 85.5 29.7 86.6 C28 82.1 27.8 83.8 27.8 81.7 C27.6 82.8 27.3 83.7 26.8 84.4 C25.2 81.9 24.4 79.9 24.4 78.6 C24.4 77.3 24.4 76.4 24.4 75.9 C23.4 76.6 22.9 77.6 22.8 78.6 C22.8 80.2 18.7 75 18.5 71.5 C18.3 69.2 18.4 67.3 18.8 65.8 C17.4 67.4 16.8 68.8 16.9 70 C14.8 68.7 14.9 65.4 14.8 63.8 C14.7 62.2 13.9 62.1 14.2 61.2 C14.5 60.3 15.7 57.8 15.7 57.8 C13.7 59 12.7 60.3 12.6 61.6 C10.9 59.3 14 54.2 14.9 53 C14 53 13.2 53.4 12.6 54.2 C11.6 52.7 11.7 51.1 13 49.4 C13.8 46.5 14.4 44.4 15 43.1 C15.9 41.2 17 40.4 17.8 39.9 C18.6 39.4 22 38.4 23.6 44 C25.5 39.6 28.3 30.8 29.8 28.4 C31.3 26 35 20.7 37.8 19.9 C40.7 19.1 41.6 20 43.1 21.1 C44 21.7 44.8 23.2 46.4 24.7 C47.6 25.9 49.5 27 50.2 28.4 C51.1 30.2 52.3 31.3 53 33.7 C53.5 35.7 53.6 36.8 53.8 39.1 C54 41.4 54 41.2 54 43.1 C54 45 53.8 45.4 52.9 46.6 C52.6 47.1 51.5 47.8 50.7 48.6 C50.5 48.8 50.2 49.2 49.8 49.6 C49.7 49.6 49.6 49.7 49.5 49.7 C50.2 48.8 50.8 48 51.1 47.8 C51.8 47.1 52.8 46.4 53.1 46 C53.9 44.9 53.2 44.5 53.2 42.8 C53.2 41.1 53.4 41.2 53.2 39.1 C53 37 53.1 36 52.6 34.1 C52 31.9 50.3 30.9 49.5 29.2 C48.9 27.9 46.6 27 45.5 25.9 C44 24.5 43.9 22.8 43.1 22.2 C41.7 21.2 40.9 20.4 38.3 21.1 C35.7 21.8 33.3 27 31.9 29.2 C30.5 31.4 25.3 42.2 23.5 46.3 C22 41.1 18.8 40.5 18.1 41 C17.9 41.1 16.8 43.5 16.1 44.7 C15 46.7 14.5 47.3 14.1 48.9 C12.9 50.5 12.1 51.4 13 52.8 C13.6 52.1 15.7 50.6 16.5 50.6 C15.7 51.7 14.1 56.1 13.7 58.4 C13.8 57.2 15.3 56.8 17.2 55.7 C17.2 55.7 16.4 58.2 16.2 59 C16 59.8 16.1 60.3 16.2 61.7 C16.3 63.2 14.6 65.4 16.6 66.6 C16.5 65.5 18.6 64.2 19.8 62.7 C19.4 64.1 19.6 66.9 19.8 69.1 C20 72.3 21.9 77.3 21.9 75.8 C22 74.9 23.4 73 24.3 72.4 C24.3 72.9 25.8 75.4 25.8 76.6 C25.8 77.8 24.8 79 26.3 81.3 C26.8 80.7 28.7 79.3 28.9 78.3 C28.9 80.2 28.2 79.2 29.7 83.4 C30.2 82.4 30.4 82.1 31.1 80.8 C32 81.2 31.5 83.6 32.9 84.6 C32.3 83.4 34 83.1 34.6 81.4 C34.9 82.7 32.8 84.6 36.1 86.9 C35.6 86.3 37.5 84.8 37.9 83.4 C38.3 84.7 38.5 86.7 39.9 88 C40.9 89 43.3 89.2 44.6 90.2 C45.2 90.7 41.5 89.7 42.1 90.2 C42.7 90.8 45 92.4 45.5 93 C46.1 93.5 47.2 95.8 48.9 97.6 C50.6 99.4 50 96.1 51 93.9 C51.6 94.8 52.1 97.8 53.1 99.4 C54.5 101.6 55.7 102.6 56.2 103 C56.4 101.3 59.2 97.8 61.4 94.8 C62.1 93.8 61.7 98.7 62.9 98 C62.9 95.5 67.6 92.4 68.1 92.1 C68.5 91.9 67.8 95.1 68.1 94.8 C69.6 92.7 68.5 93.3 71.1 91.6 C72.9 90.6 78.6 84.8 81 83.4 C80.2 84.1 80.1 84.8 79.6 87.3 C80.5 86.7 81.7 85 82.8 83.4 C83.9 81.8 83.6 80.5 85 79.1 C85.3 80.4 86.6 81.7 86.3 82.8 C87.6 82.2 89.6 73.5 89.5 70.1 C90.4 70.7 91.9 72.2 92.7 73.8 C93.2 72 92.3 67.5 92 63.6 C92.4 64.7 94.4 67.9 95.4 69.6 C96.4 67.5 95.5 60.6 94 54.4 C95.1 56 98.1 59.6 99.3 61.8 C99.8 60.5 99.3 57.9 98.2 55.3 C97.4 53.1 95 51.9 92.7 49.7 C93.2 49.7 96 49.7 98.2 51.1 C97.7 48.7 94.6 47.7 92 46.9 C92.3 46.5 93.9 45.9 96.1 46.4 C95 44.7 93.8 45 91.3 43.7 C88.9 42.4 86.6 45.8 85.1 47.3 C85.1 44.1 84.6 37.4 83.8 34.2 C83 31 81 27.3 78.8 25.3 C76.6 23.3 73.9 20.5 71.2 20.4 C68.5 20.3 66.1 24.5 63.5 26.9 C61.7 28.6 60.2 30.2 59.3 32.7 C59 33.8 58.2 37.3 58 39 C57.9 40.2 57.2 41.3 57.1 42.7 C57.2 43.9 57.1 44.9 57.7 45.8 C58.1 46.3 58.7 47 59.4 47.6 C59.8 48 60.3 48.6 61.1 49.5 C60.9 49.6 60.7 49.5 60.6 49.4 z M51.9 49.7 C52.3 49.6 52.6 49.6 53 49.5 L50.5 51.6 L48.2 54 C47.9 54.1 47.6 54.3 47.2 54.4 L51 50.5 L51.9 49.7 z M50.1 54.3 C50.2 54.3 50.2 54.3 50.2 54.2 C50.7 54 51.4 54 52.4 54 C50 55.3 48.5 56.2 48 56.7 C47.5 57.1 47.1 57.5 46.8 57.8 C46.2 58 45.8 58.3 45.6 58.4 C45.9 58 46 57.7 48.6 55.3 C48.9 55 49.4 54.7 50.1 54.3 z" opacity="0.5" id="t1" /></g><g transform="translate(169.9, 158.5) scale(1.05) translate(-169.9, -156.5)" id="u1"><g transform="translate(-285.8, 63.39997) translate(40, 47)" id="v1"><path d="M383.8 30.1 C384.8 31.9 394.2 51.5 396.3 60.1 C398.4 68.9 398 81.4 414.2 80.8 C430.4 80.2 431 79.1 434.8 60.1 C438.6 41.1 446.4 32.5 446.8 30 C447.3 27.5 445 26.3 441.3 22.6 C437.6 19 434.5 11.3 428.3 11.2 C423.8 10.9 414.6 20.8 426 34.3 C426.7 35 432.1 45 430.3 45.8 C428.5 45.8 427 43.1 424.6 40.7 C423.4 39.5 420.7 38 419.7 36.6 C418.7 34.7 417.8 28.5 417.4 22.4 C416.9 14.4 417.1 6.3 415.7 6.4 C413.2 6.4 413.2 32.4 411.8 36.6 C411.1 38.8 409.2 39.1 407.5 40.7 C404.9 43.1 402.3 46.1 401.1 45.8 C399.6 45.6 402 37.5 404.7 35.6 C412.6 28.8 409.6 11.3 404.7 11.3 C396.8 11.3 395.5 16.4 392.2 20.1 C388.9 24 382.7 28.2 383.8 30.1 z" id="w1" fill="#FFF" /><path d="M383.8 30.1 C382.7 28.2 388.9 24 392.2 20.2 C395.5 16.5 396.8 11.4 404.7 11.4 C409.6 11.4 412.6 28.9 404.7 35.7 C402 37.6 399.6 45.7 401.1 45.9 C402.3 46.2 404.9 43.2 407.5 40.8 C409.2 39.2 411.1 38.9 411.8 36.7 C413.2 32.5 413.2 6.5 415.7 6.5 C417.1 6.4 416.9 14.5 417.4 22.5 C417.8 28.6 418.7 34.8 419.7 36.7 C420.7 38.1 423.4 39.6 424.6 40.8 C427 43.2 428.5 45.9 430.3 45.9 C432.1 45.1 426.7 35.1 426 34.4 C414.6 20.9 423.8 11 428.3 11.3 C434.5 11.4 437.6 19.1 441.3 22.7 C445 26.4 447.3 27.6 446.8 30.1 C446.4 32.6 438.6 41.3 434.8 60.2 C431 79.2 430.4 80.3 414.2 80.9 C398 81.5 398.4 69 396.3 60.2 C394.2 51.5 384.8 31.9 383.8 30.1 z M385.5 29.8 C386.5 31.5 395.4 50.1 397.3 58.2 C399.3 66.5 398.9 78.3 414.2 77.8 C429.5 77.2 430.1 76.2 433.7 58.2 C437.3 40.2 444.7 32.1 445 29.8 C445.5 27.4 443.3 26.3 439.8 22.8 C436.4 19.4 434.3 11.5 428.5 11.4 C424.2 11.1 415.5 20.8 426.2 33.5 C426.9 34.2 433.6 45.4 430.8 47.3 C429.1 47.3 425.4 43 423.1 40.7 C422 39.6 419.7 37.6 418.7 36.3 C417.8 34.5 417 28.3 416.6 22.5 C416.1 14.9 416.9 7.4 415.6 7.5 C413.2 7.5 414.1 32.5 412.7 36.4 C412 38.5 410.2 39.7 408.6 41.2 C406.1 43.5 400.6 47.8 399.5 47.5 C398.1 47.3 401.6 36.7 404.2 34.9 C411.7 28.5 407.7 12 404.6 12.1 C397.1 12.1 396.6 16.9 393.4 20.4 C390.4 24.1 384.5 28.1 385.5 29.8 z" opacity="0.15" id="x1" /></g><g transform="translate(-285.8, 63.39998) translate(64, 110)" id="y1"><path d="M391.8 5.8 C391 5.7 390.6 5.8 390.4 6.1 C390.3 6.3 390.7 7.4 390.3 8.6 C390.2 8.9 389.9 9.3 389.4 9.8 C388.7 10 388.2 10.1 387.8 10.1 C387.2 10.1 385.6 9.5 384.5 9.5 C383.8 9.4 383.5 9.7 383.6 10.3 L384.8 11.1 C386.2 11.7 387.2 12 387.8 12.2 C389.3 12.5 390.4 12.5 391.1 12.4 C391.6 12.4 392.6 12.5 394.1 12.2 C394.8 12.1 396 11.8 397.7 11.3 C398.4 10.7 398.5 10.3 398 10.1 C397.2 9.8 395.8 10.1 394.8 10.1 C394.1 10.1 393.4 10.1 392.6 10.1 C392.2 9.4 391.9 8.8 391.8 8.5 C391.7 8.2 391.7 7.3 391.8 5.8 z" id="z1" fill="#1F2123" /></g><g transform="translate(169.9, 170.4) scale(0.8) translate(-169.9, -170.4) translate(104.4, 118.9) translate(56, 46)" id="a2"><g id="b2"><path d="M16.1 2.4 C15.2 0.6 12.9 0.2 9.5 0.2 C6.1 0.2 3.8 0.6 2.9 2.4 C2 4.2 -1.3 9.4 2.6 10 C6.4 10.6 7.8 10.6 9.5 10.6 C11.2 10.6 12.6 10.6 16.4 10 C20.3 9.5 17 4.2 16.1 2.4 z" id="c2" fill="#282421" /><path d="M3.4 5.3 C3.4 3.9 5.2 1.7 6.1 1.5 C7.2 1.3 12.5 1.3 13.8 1.9 C15 2.5 15 4.3 15 5 C13.8 4.3 11.7 3 9.4 3.1 C7.2 3.3 5 4.2 3.4 5.3 z" id="d2" fill="#FFF" /></g></g><g transform="translate(-285.8, 63.39996) translate(43, 64)" id="e2"><path d="M402.1 16.9 C403.3 14.6 402.9 13.9 402.9 12.1 C402.9 10.3 402.7 8.4 400.1 7 C396.5 5.3 392.3 5.2 389.8 6.5 C386.4 8.3 383.6 10 384.3 11.5 C385.1 13.2 388 17.1 389.4 17.9 C392.1 19.5 396.1 20.2 398.2 19.7 C399.8 19.3 401.2 18.7 402.1 16.9 z" id="f2" fill="#CAC3C0" /><path d="M401.2 18.1 C402 17.4 401.6 14.8 401.2 13.6 C400.7 12.5 399.2 10.9 397 10.3 C394.1 9.6 393.6 9.7 391.1 10 C389.8 10.1 388.6 9.9 388.2 10.6 C387.6 11.3 387.5 12.5 387.9 13.6 C388.3 14.7 388.4 15.3 389.1 16.1 C389.8 17 390.7 17.7 391.3 18.1 C393.5 19.3 396.8 19.9 398.5 19.5 C399.7 19.2 400.4 18.8 401.2 18.1 z" id="g2" fill="#1F2123" /><path d="M396 16.2 C394.9 16.2 393.9 15.3 393.9 14.2 C393.8 13.1 394 12.5 395 12.7 C395.9 12.8 396.6 12.9 396.9 13.1 C397.8 13.5 397.8 13.2 397.9 14.1 C398 14.5 397.9 14.8 397.8 15 C397.5 15 397 14.7 396.3 14.4 C396.5 15.2 396.6 15.7 396.7 16.1 C396.3 16.3 396.4 16.2 396 16.2 z" id="h2" fill="#FFF" /></g><g transform="translate(-285.8, 63.49997) translate(82, 64)" id="i2"><path d="M384.3 16.9 C383.1 14.6 383.5 13.9 383.5 12.1 C383.5 10.3 383.7 8.4 386.3 7 C389 5.6 392.8 5.6 396.6 6.5 C400.4 7.4 402.8 10 402.1 11.5 C401.3 13.2 398.4 17.1 397 17.9 C394.3 19.5 390.3 20.2 388.2 19.7 C386.6 19.3 385.2 18.7 384.3 16.9 z" id="j2" fill="#CAC3C0" /><path d="M385.2 18.1 C384.4 17.4 384.8 14.8 385.2 13.6 C385.7 12.5 387.2 10.9 389.4 10.3 C392.3 9.6 392.8 9.7 395.3 10 C396.6 10.1 397.8 9.9 398.2 10.6 C398.8 11.3 398.9 12.5 398.5 13.6 C398.1 14.7 398 15.3 397.3 16.1 C396.6 17 395.7 17.7 395.1 18.1 C392.9 19.3 389.6 19.9 387.9 19.5 C386.7 19.2 386 18.8 385.2 18.1 z" id="k2" fill="#1F2123" /><path d="M390.4 16.2 C391.5 16.2 392.5 15.3 392.5 14.2 C392.6 13.1 392.4 12.5 391.4 12.7 C390.5 12.8 389.8 12.9 389.5 13.1 C388.6 13.5 388.6 13.2 388.5 14.1 C388.4 14.5 388.5 14.8 388.6 15 C388.9 15 389.4 14.7 390.1 14.4 C389.9 15.2 389.8 15.7 389.7 16.1 C390.1 16.3 390 16.2 390.4 16.2 z" id="l2" fill="#FFF" /></g></g></g></g></g><defs><g transform="translate(17.09519, 0.800995) translate(-135.2952, -293.601)" id="m2" fill="#000"><path d="M118.2 302.7 C118.4 307.4 132.5 311.2 149.8 311.2 C167.1 311.2 181.2 307.4 181.4 302.7 C181.4 307.5 181.4 310.1 181.4 310.5 C181.4 315.3 167.3 319.1 149.8 319.1 C132.3 319.1 118.2 315.2 118.2 310.5 L118.2 302.7 L118.2 302.7 z" fill-opacity="0.4528" id="n2" fill="#593001" /><path d="M118.7 301.7 C118.9 306.4 133 310.2 150.3 310.2 C167.6 310.2 181.7 306.4 181.9 301.7 C181.9 306.5 181.9 309.1 181.9 309.5 C181.9 314.3 167.8 318.1 150.3 318.1 C132.8 318.1 118.7 314.2 118.7 309.5 L118.7 301.7 L118.7 301.7 z" id="o2" fill="#DA8113" /><linearGradient x1="46.0545" y1="-118.6926" x2="45.4656" y2="-118.6926" gradientUnits="userSpaceOnUse" gradientTransform="matrix(117.135, 0, 0, 28.4634, -5208.417, 3687.795)" id="p2"><stop offset="0%" stop-color="#D9952A" stop-opacity="1" /><stop offset="6.438854%" stop-color="#CA7519" stop-opacity="1" /><stop offset="30.54%" stop-color="#E3AD3A" stop-opacity="1" /><stop offset="51.05%" stop-color="#FFEC91" stop-opacity="1" /><stop offset="68.8%" stop-color="#E9BD44" stop-opacity="1" /><stop offset="86.24%" stop-color="#FFED6C" stop-opacity="1" /><stop offset="93.87%" stop-color="#F2D353" stop-opacity="1" /><stop offset="100%" stop-color="#F2B947" stop-opacity="1" /></linearGradient><path d="M118.2 301.6 C118.4 306.1 132.7 309.7 150.3 309.7 C167.9 309.7 182.2 306.1 182.4 301.6 C182.4 306.2 182.4 308.7 182.4 309 C182.4 313.5 168 317.2 150.3 317.2 C132.6 317.2 118.2 313.5 118.2 309 L118.2 301.6 L118.2 301.6 z" id="q2" style="fill:url(#p2)" /><linearGradient x1="45.4914" y1="-117.9547" x2="45.9407" y2="-117.5895" gradientUnits="userSpaceOnUse" gradientTransform="matrix(115.425, 0, 0, 29.925, -5125.077, 3826.124)" id="r2"><stop offset="0%" stop-color="#F4E072" stop-opacity="1" /><stop offset="100%" stop-color="#DB9427" stop-opacity="1" /></linearGradient><ellipse cx="150.3" cy="301.5" rx="31.6" ry="8.2" id="s2" style="fill:url(#r2)" /><linearGradient x1="45.4656" y1="-126.0065" x2="46.0545" y2="-126.0065" gradientUnits="userSpaceOnUse" gradientTransform="matrix(117.135, 0, 0, 18.6219, -5208.417, 2651.479)" id="t2"><stop offset="0%" stop-color="#D9952A" stop-opacity="1" /><stop offset="6.438854%" stop-color="#CA7519" stop-opacity="1" /><stop offset="30.54%" stop-color="#E3AD3A" stop-opacity="1" /><stop offset="51.05%" stop-color="#FFEC91" stop-opacity="1" /><stop offset="68.8%" stop-color="#E9BD44" stop-opacity="1" /><stop offset="86.24%" stop-color="#FFED6C" stop-opacity="1" /><stop offset="93.87%" stop-color="#F2D353" stop-opacity="1" /><stop offset="100%" stop-color="#F2B947" stop-opacity="1" /></linearGradient><path d="M119.2 299.9 C119 300.2 118.9 300.6 118.9 301 C118.9 305.5 132.9 309.2 150.3 309.2 C167.7 309.2 181.7 305.5 181.7 301 C181.7 300.6 181.6 300.3 181.4 299.9 C182 300.5 182.4 301.2 182.4 301.9 C182.4 306.4 168 310.1 150.3 310.1 C132.6 310.1 118.2 306.4 118.2 301.9 C118.2 301.3 118.6 300.6 119.2 299.9 z" id="u2" style="fill:url(#t2)" /><linearGradient x1="45.196" y1="-121.5895" x2="45.3746" y2="-120.6758" gradientUnits="userSpaceOnUse" gradientTransform="matrix(101.745, 0, 0, 23.94, -4458.332, 3199.41)" id="v2"><stop offset="0%" stop-color="#F8DD61" stop-opacity="1" /><stop offset="100%" stop-color="#EAA330" stop-opacity="1" /></linearGradient><ellipse cx="150.3" cy="300.8" rx="27.8" ry="6.6" id="w2" style="fill:url(#v2)" /><linearGradient x1="45.5694" y1="-134.267" x2="45.0221" y2="-134.267" gradientUnits="userSpaceOnUse" gradientTransform="matrix(101.745, 0, 0, 13.2525, -4458.332, 2077.223)" id="x2"><stop offset="0%" stop-color="#F4CA2F" stop-opacity="1" /><stop offset="51.38%" stop-color="#BF7737" stop-opacity="1" /><stop offset="100%" stop-color="#E4A929" stop-opacity="1" /></linearGradient><path d="M122.6 301.5 C122.5 301.3 122.4 301 122.4 300.8 C122.4 297.2 134.9 294.2 150.2 294.2 C165.5 294.2 178 297.1 178 300.8 C178 301 177.9 301.3 177.8 301.5 C176.3 298.2 164.5 295.6 150.1 295.6 C135.7 295.6 124.1 298.2 122.6 301.5 z" id="y2" style="fill:url(#x2)" /></g></defs><desc>4444L444H44,LJLcSLj75n7LNwND/J9Jij60OExQslKs2zqYYK6Aa6Ll1nBrrZHbnCogvwjw/5VObUW+yvYmjAvDOGIBNyRbaLUVvGWa1ll9afefCbfJCgCDZ4FUgY/eqv65stOc/i6brI8fF0kTZKwhlP73MZSdGQ==</desc></svg>