<?xml version="1.0" encoding="utf-8"?><!DOCTYPE svg PUBLIC "-//W3C//DTD SVG 1.1//EN" "http://www.w3.org/Graphics/SVG/1.1/DTD/svg11.dtd"><svg x="0" y="0" width="340px" height="340px" viewBox="0, 0, 340, 340" preserveAspectRatio="xMidYMid" font-size="0" id="a" enable-background="new 0 0 340 340" xmlns="http://www.w3.org/2000/svg" xmlns:xlink="http://www.w3.org/1999/xlink" xmlns:xml="http://www.w3.org/XML/1998/namespace" version="1.1"><g id="b" fill="#000"><g id="c"><g transform="translate(0, 0) translate(0, 224)" id="d"><ellipse cx="168.6" cy="53.1" rx="57.8" ry="12.8" fill-opacity="0.25" id="e" /></g><g id="f"><g transform="translate(97.90001, 73.89998) translate(28, 148) scale(-1, 1) translate(-28, -148) translate(0, 127)" id="g"><path d="M52.1 4.6 C47.4 19.1 42.1 27 36.2 28.3 C27.3 30.2 18 29.7 13.9 24.6 C11.2 14.5 14 14.7 15.4 11.9 C16.8 9.1 16.1 4.5 9.2 4.5 C4.6 4.5 1.4 7.4 -0.2 13.3 C-1 16.7 -1.4 19.7 -1.2 22.3 C-1 26.2 0.8 36.4 8.6 40.9 C16.4 45.4 28.6 48.2 43.3 38.5 C53.1 32 56 20.7 52.1 4.6 z" id="h" fill="#D8B285" /><path d="M52.1 4.6 C56 20.7 53.1 32 43.3 38.5 C28.6 48.2 16.4 45.4 8.6 40.9 C0.8 36.4 -1 26.2 -1.2 22.3 C-1.4 19.7 -1 16.7 -0.2 13.3 C1.4 7.4 4.6 4.5 9.2 4.5 C16.1 4.5 16.8 9.1 15.4 11.9 C14 14.7 11.2 14.5 13.9 24.6 C18 29.7 27.3 30.2 36.2 28.3 C42.1 27 47.4 19.1 52.1 4.6 z M51.6 9.5 C47.1 21.3 41 28.4 35.3 29.4 C26.7 30.9 18.3 30.2 14.4 26.1 C10.5 22 11.2 17.1 12.6 14.8 C14 12.5 15.5 6.3 8.8 6.3 C4.4 6.3 2.5 8.3 1 13.1 C0.2 15.9 0.3 21.1 0.5 23.2 C0.7 26.4 1.8 35.6 9.3 39.2 C16.8 42.9 25.1 46.4 39.2 38.5 C48.6 33.1 55.4 22.6 51.6 9.5 z" opacity="0.15" id="i" /></g><g transform="translate(124.5, 269.5) scale(1.200787) translate(-124.5, -269.5) translate(102.4, 101.6) translate(19, 122)" id="j"><path d="M10.2 35.9 C7.6 30.9 3.1 24.7 2.4 19.1 C2 15.7 2.2 11.1 3.8 8.1 C5.7 4.4 16.5 -0.9 23.4 1.2 C30.3 3.2 32.3 18.7 26 30.3 C23 35.9 24.7 39.9 24.7 43 C24.7 45.8 22.5 47.5 20.2 48.1 C15.2 49.3 8.9 49.1 6.6 48.4 C6.3 48.3 6 48.2 5.7 48.1 C2.5 46.6 9.8 35.9 10.2 35.9 z" id="k" fill="#BD8B6A" /><path d="M5.5 38.2 C7.8 36.8 9.4 35.3 10.1 35.4 C10.9 38.5 20.1 38.3 24.3 37 C24.3 39.4 25 40.1 25 41.8 C25 44.6 26.3 44.9 23.2 46.9 C20.3 48.8 10.5 49.6 7.9 49.5 C5.3 49.4 1.9 49.9 1.1 48.1 C0.5 46.7 0.3 44.2 0.9 42.8 C1.8 40.5 3.1 39.5 5.5 38.2 z" id="l" fill="#806458" /><path d="M9.9 35.4 C7.3 30.5 3 24.5 2.4 19.1 C2 15.7 2.2 11.1 3.8 8.1 C5.7 4.4 16.5 -0.9 23.4 1.2 C30.3 3.2 32.3 18.7 26 30.3 C24.6 32.9 24.2 35.1 24.2 37 C24.2 37 24.3 37 24.3 37 C24.3 39.4 25 40.1 25 41.8 C25 44.6 26.3 44.9 23.2 46.9 C22.7 47.2 22 47.5 21.1 47.8 C20.8 47.9 20.5 48 20.2 48.1 C19.6 48.2 19 48.4 18.4 48.5 C14.5 49.3 9.6 49.6 7.9 49.5 C5.3 49.4 1.9 49.9 1.1 48.1 C0.5 46.7 0.3 44.2 0.9 42.8 C1.8 40.5 3.1 39.5 5.5 38.2 C7.6 36.9 9.2 35.5 9.9 35.4 z M2.9 18.4 C3.3 21.7 6.6 27.6 12.8 35.9 C12.1 36 9.6 36.9 7.7 38.1 C5.5 39.3 3.2 40.3 2.4 42.4 C1.9 43.7 1.9 44.4 2.4 45.7 C3.1 47.4 6.2 46.9 8.6 47 C10.2 47.1 14.6 46.8 18.2 46 C18.8 45.9 19.3 45.8 19.8 45.7 C20.1 45.6 20.4 45.5 20.6 45.4 C21.4 45.2 22 44.9 22.5 44.6 C25.3 42.7 22.7 38.1 22.7 35.9 C22.7 35.9 23.8 31.6 25.1 29.2 C30.8 18.5 29 4.2 22.7 2.3 C16.4 0.4 6.2 4.8 4.4 8.2 C3 11 2.5 15.2 2.9 18.4 z" opacity="0.15" id="m" /></g><g transform="translate(215.4, 269.5) scale(1.200787) translate(-215.4, -269.5) translate(115.9, 101.6) translate(88, 147) scale(-1, 1) translate(-88, -147) translate(73, 122)" id="n"><path d="M10.2 35.9 C7.6 30.9 3.1 24.7 2.4 19.1 C2 15.7 2.2 11.1 3.8 8.1 C5.7 4.4 16.5 -0.9 23.4 1.2 C30.3 3.2 32.3 18.7 26 30.3 C23 35.9 24.7 39.9 24.7 43 C24.7 45.8 22.2 47 19.9 47.6 C14.9 48.8 8.9 49.1 6.6 48.4 C6.3 48.3 6 48.2 5.7 48.1 C2.5 46.6 9.8 35.9 10.2 35.9 z" id="o" fill="#BD8B6A" /><path d="M5.5 38.2 C7.8 36.8 9.4 35.3 10.1 35.4 C10.9 38.5 20.1 38.3 24.3 37 C24.3 39.4 24.8 39.6 24.8 41.3 C24.8 44.1 26.3 44.7 23.3 46.6 C20.4 48.5 10.5 49.5 8 49.4 C5.5 49.3 2 49.8 1.2 48 C0.6 46.6 0.4 44.1 1 42.7 C1.8 40.5 3.1 39.5 5.5 38.2 z" id="p" fill="#806458" /><path d="M9.9 35.4 C7.3 30.5 3 24.5 2.4 19.1 C2 15.7 2.2 11.1 3.8 8.1 C5.7 4.4 16.5 -0.9 23.4 1.2 C30.3 3.2 32.3 18.7 26 30.3 C24.6 32.9 24.2 35.1 24.2 37 C24.2 37 24.3 37 24.3 37 C24.3 39.4 24.8 39.6 24.8 41.3 C24.8 44.1 26.3 44.7 23.3 46.6 C20.4 48.5 10.5 49.5 8 49.4 C5.5 49.3 2 49.8 1.2 48 C0.6 46.6 0.4 44.1 1 42.7 C1.8 40.5 3.1 39.5 5.5 38.2 C7.6 36.9 9.2 35.5 9.9 35.4 z M2.9 18 C3.3 21.4 6.3 27.4 11.9 36.1 C11.2 36.2 8.8 37.3 6.9 38.5 C4.7 39.7 2.9 40 2.2 42.1 C1.6 43.4 1.9 44.4 2.4 45.7 C3.1 47.4 6.4 46.9 8.6 47 C10.9 47.1 19.2 46.5 21.8 44.7 C23.4 43.7 22.6 39.9 22.9 36 C23.1 33.1 24.5 30 25.1 29 C30.9 18.1 29.1 3.6 22.7 1.7 C16.4 -0.3 6.4 4.3 4.7 7.8 C3.2 10.7 2.5 14.8 2.9 18 z" opacity="0.15" id="q" /></g><g transform="translate(104.3, 92.09998) translate(20, 65)" id="r"><path d="M85.6 52.6 C84.9 39.4 82.9 36.4 79.1 28 C77.8 25 76.2 22.2 74.6 19.6 C71.9 15.2 68.7 13.4 67.3 10 C64.8 4 60.4 3.2 45.5 3.2 C30.7 3.2 27.2 3.2 24.7 9.2 C23.4 12.4 19.3 14.8 16.7 19.1 C15 21.8 13.4 24.8 11.9 28 C8.1 36.5 6.1 39.5 5.4 52.6 C4.4 70.2 10.5 94.3 17.7 109.3 C20.2 114.5 25.5 118.2 29.1 119 C35.7 120.4 41.6 120.8 45.4 120.7 C49.3 120.8 55.2 120.4 61.7 119 C65.3 118.2 70.6 114.5 73.1 109.3 C80.4 94.2 86.5 70.2 85.6 52.6 z" id="s" fill="#D8B285" /><path d="M67.9 7.9 C65.4 1.9 60.3 0.1 45.5 0.1 C30.7 0.1 25.5 1.9 23.1 7.9 C21.8 11.1 19.3 14.8 16.7 19 C18.9 25 34.4 33.5 45.5 35.4 C56.6 33.5 72.1 25 74.3 19 C71.7 14.8 69.3 11.1 67.9 7.9 z" id="t" fill="#965622" /><path d="M67.9 7.9 C65.4 1.9 60.3 0.1 45.5 0.1 C30.7 0.1 25.5 1.9 23.1 7.9 C21.8 11.1 19.3 14.8 16.7 19 C18.9 25 34.4 33.5 45.5 35.4 C56.6 33.5 72.1 25 74.3 19 C71.7 14.8 69.3 11.1 67.9 7.9 z" opacity="0.15" id="u" fill="#965622" /><path d="M16.7 19.1 C16.7 19 16.7 19 16.7 19 C19.3 14.8 21.8 11.1 23.1 7.9 C25.5 1.9 30.7 0.1 45.5 0.1 C60.3 0.1 65.4 1.9 67.9 7.9 C69.3 11.1 71.7 14.8 74.3 19 C74.3 19 74.3 19.1 74.3 19.1 C74.4 19.2 74.5 19.4 74.6 19.6 C76.2 22.2 77.8 25 79.1 28 C82.9 36.4 84.9 39.4 85.6 52.6 C86.5 70.2 80.4 94.2 73.1 109.3 C70.6 114.5 65.3 118.2 61.7 119 C55.2 120.4 49.3 120.8 45.4 120.7 C41.6 120.8 35.7 120.4 29.1 119 C25.5 118.2 20.2 114.5 17.7 109.3 C10.5 94.3 4.4 70.2 5.4 52.6 C6.1 39.5 8.1 36.5 11.9 28 C13.4 24.8 15 21.8 16.7 19.1 C16.7 19.1 16.7 19.1 16.7 19.1 z M17.9 19.7 C17.9 19.8 17.9 19.8 17.9 19.8 C16.2 22.4 14.7 25.2 13.3 28.3 C9.6 36.5 7.7 39.3 7 51.9 C6.1 68.8 11.9 91.9 18.8 106.3 C21.2 111.3 26.3 114.9 29.8 115.6 C36.1 117 41.8 117.3 45.4 117.3 C49.1 117.3 54.8 117 61 115.6 C64.5 114.9 69.6 111.3 72 106.3 C79 91.8 84.8 68.8 84 51.9 C83.3 39.3 81.4 36.4 77.7 28.3 C76.5 25.4 75 22.8 73.4 20.3 C73.3 20.1 73.2 19.9 73.1 19.8 C73.1 19.7 73.1 19.7 73.1 19.7 C70.6 15.7 68.3 12.1 67 9 C64.6 3.3 59.7 1.6 45.5 1.6 C31.3 1.6 26.3 3.3 24 9 C22.8 12.1 20.4 15.7 17.9 19.7 C17.9 19.7 17.9 19.7 17.9 19.7 z" opacity="0.15" id="v" /></g><g fill-rule="evenOdd" transform="translate(129.7, 180.65) scale(1, 0.967167) translate(-129.7, -168.9) translate(107.3, 77.89998) translate(62.5, 144.5) scale(-1, 1) translate(-62.5, -144.5) translate(22, 91)" id="w"><path d="M52 28.8 C53.2 26.7 53.4 15.1 56.8 12.2 C60.4 8.7 63.5 4 65.3 0 C65.9 2.4 67.8 8.5 69 11.2 C69.1 11.5 69.2 11.7 69.4 12 C73.3 19.9 80.6 22.6 80.6 34.9 C80.6 56.8 72.3 51 69.4 67 C68.9 69.6 68.6 72.3 68.3 75 C67.4 83.8 54.2 85.7 54.2 74.4 C54.2 68.1 54.4 62 54.9 55.8 C54 50.1 51 50.2 49.4 45 C47.4 39.1 48.7 34.5 52 28.8 z" id="x" fill="#BD8B6A" /><path d="M11.7 12 C11.8 11.7 11.9 11.5 12.1 11.2 C13.3 8.6 15.1 2.5 15.8 0 C17.6 3.9 20.7 8.7 24.3 12.2 C28.7 15.8 27.9 26.6 29.1 28.8 C32.4 34.5 33.7 39.1 31.8 45.1 C30.2 50.3 27.1 50.3 26.3 55.9 C26.7 62.1 27 68.2 27 74.5 C27 85.8 13.7 81.6 12.8 73.7 C12.6 71.9 12.3 69.7 11.8 67 C8.9 51 0.6 56.8 0.6 34.9 C0.4 22.7 7.8 19.9 11.7 12 z" id="y" fill="#BD8B6A" /><path d="M54.1 75.7 C60 75.4 66.4 72.4 68.7 70.8 C67.4 80.3 67.6 90.2 67.1 96.7 C69.9 95 75.9 97.8 72.1 104.6 C70.1 106.2 66.9 106.5 64.1 106.5 C61.3 106.5 58.5 106.1 56 105 L56.1 104.9 C55.3 104.5 54.7 103.9 54.3 103.3 C51.8 99.6 54 89.5 54.1 75.7 z" id="z" fill="#F0C497" /><path d="M68.1 76.1 C67.5 83.8 67.5 91.4 67.1 96.7 C69.9 95 75.9 97.8 72.1 104.6 C70.1 106.2 66.9 106.5 64.1 106.5 C61.3 106.5 58.5 106.1 56 105 L56.1 104.9 C55.3 104.5 54.7 103.9 54.3 103.3 C51.8 99.6 54 89.5 54.1 75.7 C54.2 75.7 54.2 75.7 54.3 75.7 C54.2 75.3 54.2 74.9 54.2 74.4 C54.2 68.1 54.4 62 54.9 55.8 C54 50.1 51 50.2 49.4 45 C47.4 39.1 48.7 34.5 52 28.8 C53.2 26.7 53.4 15.1 56.8 12.2 C60.4 8.7 63.5 4 65.3 0 C65.9 2.4 67.8 8.5 69 11.2 C69.1 11.5 69.2 11.7 69.4 12 C73.3 19.9 80.6 22.6 80.6 34.9 C80.6 56.8 72.3 51 69.4 67 C68.9 69.6 68.6 72.3 68.3 75 C68.3 75.4 68.2 75.7 68.1 76.1 z M66.1 97.8 C66.5 92.7 65.3 87.3 66 76 C66.7 64.7 67.6 66.5 68.1 64 C70.9 48.8 78.5 56.1 78.5 35.3 C78.5 23.5 72.9 20.5 69.2 13 C69 12.7 68.9 12.5 68.8 12.2 C67.6 9.7 65.8 3.8 65.3 1.6 C63.5 5.4 60.6 9.8 57.2 13.2 C53.9 15.9 54.4 27 53.3 29 C50.1 34.4 49.2 37.8 51.1 43.4 C51.7 45.1 56.2 49.2 56.4 55 C56.5 58.8 56.1 74.6 55.6 74 C55.5 87.1 52.4 96.4 54.8 99.9 C55.2 100.5 55.7 101 56.5 101.4 L56.4 101.5 C58.8 102.6 61.5 102.9 64.1 102.9 C66.8 102.9 69.5 103.6 71.4 102.1 C73 99.1 68.8 96.1 66.1 97.8 z" opacity="0.3" id="a1" /><path d="M13.8 96.7 C13.3 90.2 13.5 80.3 12.2 70.8 C14.5 72.4 21 75.4 26.8 75.7 C26.9 89.5 29.2 99.6 26.6 103.4 C26.2 104.1 25.5 104.6 24.8 105 L24.9 105.1 C22.4 106.2 19.5 106.6 16.8 106.6 C14.1 106.6 10.8 106.3 8.8 104.7 C5 97.8 11 95 13.8 96.7 z" id="b1" fill="#F0C497" /><path d="M26.8 76.7 C27 90 29.1 99.7 26.6 103.4 C26.2 104.1 25.5 104.6 24.8 105 L24.9 105.1 C22.4 106.2 19.5 106.6 16.8 106.6 C14.1 106.6 10.8 106.3 8.8 104.7 C5 97.8 11 95 13.8 96.7 C13.3 90.2 13.5 80.3 12.2 70.8 C12.3 70.9 12.4 70.9 12.5 71 C12.3 69.8 12.1 68.5 11.8 67 C8.9 51 0.6 56.8 0.6 34.9 C0.4 22.7 7.8 19.9 11.7 12 C11.8 11.7 11.9 11.5 12.1 11.2 C13.3 8.6 15.1 2.5 15.8 0 C17.6 3.9 20.7 8.7 24.3 12.2 C28.7 15.8 27.9 26.6 29.1 28.8 C32.4 34.5 33.7 39.1 31.8 45.1 C30.2 50.3 27.1 50.3 26.3 55.9 C26.7 62.1 27 68.2 27 74.5 C27 75.3 26.9 76 26.8 76.7 z M25.4 75.8 C24.7 66.6 24.3 60 24 56 C24.8 50.6 28.6 49.5 30.1 44.5 C32 38.7 31.8 34.3 28.6 28.8 C27.5 26.7 28.2 16.3 24 12.8 C20.5 9.4 17.6 4.8 15.8 1 C15.2 3.4 13.4 9.3 12.3 11.8 C12.1 12.1 12 12.3 11.9 12.6 C8.1 20.2 1.8 22.8 2 34.6 C2 55.8 10.9 52.3 13.3 63 C15.6 73.8 14.9 90.6 14.8 97.6 C12.1 96 7.8 98.3 9.1 102.2 C11 103.7 14.2 104 16.8 104 C17.9 104 20.8 103.8 22.5 103.3 C24.9 102.5 23.4 102.8 25 101.5 C27.4 97.9 25.6 88.6 25.4 75.8 z" opacity="0.3" id="c1" /></g></g><g transform="translate(169.6, 188) scale(0.9878719) translate(-169.6, -188)" id="d1"><g transform="translate(166.1, 96.99997) rotate(6, 0, 0) scale(1.4, 1.35) translate(-151.1, -122) translate(107, 80.89997) translate(2, 36)" id="e1"><g opacity="0.15" transform="translate(0, 1)" id="f1"><path d="M38.9 0.5 C40.6 0.1 43.3 0.2 45 1.6 C45.9 2.3 45 3.6 45.8 4.6 C46.5 5.5 47.7 4.2 48.5 5.2 C49 5.8 49 5.9 49 7.8 C49 9.7 51 7 51.9 9.4 C52.1 10 52.4 11 52.7 11.5 C52.9 12 53.3 11 54.6 12.9 C55.9 14.8 55.4 16.4 56.3 17.5 C57.3 18.7 58.7 18.6 59.6 21 C60.5 23.4 57.9 21.9 58.3 22.9 C58.8 24.2 61 25.6 61.3 27.1 C61.5 28.4 59.6 29.2 59.6 30.6 C59.6 31.6 62.5 32.1 63.3 33.7 C63.9 34.9 62.3 37.2 62.5 38 C62.8 39.4 64.7 38.7 64.8 40.8 C64.9 43.5 61.8 43.8 62.5 45.9 C62.8 46.7 64.7 49.1 64.8 51.1 C64.9 53.1 62.5 51.9 62.5 52.4 C62.5 53.7 63.5 57 63.9 58.2 C64.5 60.4 62.7 60.7 62.5 61.7 C62.4 62.4 63.3 65.1 63.3 66.7 C63.3 68.3 61.7 65.7 61.3 66.7 C60.9 67.7 62.4 69 61.8 70.4 C61.2 71.8 59.2 71.2 58.9 72.2 C57.9 75 59.9 75 59.7 76.1 C59.5 77.2 58.6 78.7 58.4 79.3 C56.2 81.3 56.4 78.9 54 80.9 C51.9 82.7 51.6 79.5 49.5 80 C48.3 82 46.3 85 44.7 86.7 C42.9 88.5 45.2 80.7 43 82.6 C40.8 84.5 39.4 87.9 36.9 88.7 C34.4 89.5 32.9 85.8 30.5 86.6 C28.1 87.4 26.7 90.7 23.4 90.6 C20.1 90.5 20 86.2 17.2 84.8 C14.4 83.3 14 85.5 12 83 C10 80.5 11.5 76.6 10.8 75.2 C10.1 73.8 8.5 78.5 6.6 75.9 C4.7 73.3 11.2 63.8 10.4 61.9 C9.6 60 5.6 70.1 4.5 67.2 C3.4 64.4 5.4 60 4.9 58.9 C4.4 57.8 2 58.4 1.2 56.5 C0.1 54 -0.2 53.8 0.6 49.8 C0.9 48.3 3.5 46.1 3.8 43.1 C4.1 41.5 1.9 41.3 2.5 38.3 C2.9 36.2 7 34.9 6.6 33.1 C4.3 30.2 8.9 32 10.7 29 C12.2 26.6 10.8 24.2 12.2 21.7 C13.7 19.1 17.9 19.7 20.1 17.5 C22.5 15.2 31.1 5 32.4 3.5 C34.2 1.4 36 1 37.9 1.6 C38.2 1.2 38.6 0.9 38.9 0.5 z" stroke="#000000" stroke-width="3" opacity="0.15" id="g1" /></g><g id="h1"><path d="M32.4 3.5 C31.1 5 22.5 15.2 20.1 17.5 C17.9 19.7 15.1 19.4 13.6 22 C12.2 24.5 12.2 26.6 10.7 29 C8.9 32 5 30.7 5.9 34.4 C6.3 36.2 2.9 36.2 2.5 38.3 C1.9 41.3 3.6 42.4 3.3 44 C3 47 0.9 48.3 0.6 49.8 C-0.2 53.8 1.3 54.7 2.4 57.2 C3.2 59.1 3.9 58.8 4.4 59.9 C4.9 61 3.3 64.3 4.4 67.1 C5.5 69.9 7 66.1 7.8 68 C8.6 69.9 5.2 72.5 7.1 75.1 C9 77.7 10.5 74.3 11.2 75.7 C11.9 77.1 9.9 80.4 11.9 82.9 C13.9 85.4 14.9 84 17.7 85.5 C20.5 86.9 19.1 89.8 22.4 89.9 C25.7 90 27.7 88.4 30.1 87.6 C32.5 86.8 33 89.2 35.5 88.4 C38 87.6 40.3 86.7 42.5 84.8 C44.7 82.9 42.9 88.5 44.7 86.7 C46.5 84.8 48.3 84 49.5 81.6 C50.7 79.1 52 81.4 52.9 79.8 C53.7 78.1 53.9 77.5 54.3 75.2 C54.5 73.8 56.4 74.2 57.1 68.1 C57.3 66.1 58 61.6 58.3 59.3 C58.7 56.9 59.1 47.9 58.3 45.7 C54.5 34.8 56.6 22.8 51.9 17.7 C47.2 12.6 39.2 -4.7 32.4 3.5 z" id="i1" fill="#806458" /><path d="M32.4 3.5 C31.1 5 22.5 15.2 20.1 17.5 C17.9 19.7 15.1 19.4 13.6 22 C12.2 24.5 12.2 26.6 10.7 29 C8.9 32 5 30.7 5.9 34.4 C6.3 36.2 2.9 36.2 2.5 38.3 C1.9 41.3 3.6 42.4 3.3 44 C3 47 0.9 48.3 0.6 49.8 C-0.2 53.8 1.3 54.7 2.4 57.2 C3.2 59.1 3.9 58.8 4.4 59.9 C4.9 61 3.3 64.3 4.4 67.1 C5.5 69.9 7 66.1 7.8 68 C8.6 69.9 5.2 72.5 7.1 75.1 C9 77.7 10.5 74.3 11.2 75.7 C11.9 77.1 9.9 80.4 11.9 82.9 C13.9 85.4 14.9 84 17.7 85.5 C20.5 86.9 19.1 89.8 22.4 89.9 C25.7 90 27.7 88.4 30.1 87.6 C32.5 86.8 33 89.2 35.5 88.4 C38 87.6 40.3 86.7 42.5 84.8 C44.7 82.9 42.9 88.5 44.7 86.7 C46.5 84.8 48.3 84 49.5 81.6 C50.7 79.1 52 81.4 52.9 79.8 C53.7 78.1 53.9 77.5 54.3 75.2 C54.5 73.8 56.4 74.2 57.1 68.1 C57.3 66.1 58 61.6 58.3 59.3 C58.7 56.9 59.1 47.9 58.3 45.7 C54.5 34.8 56.6 22.8 51.9 17.7 C47.2 12.6 39.2 -4.7 32.4 3.5 z" id="j1" fill="#BD8B6A" /><path d="M54.5 80.5 C52.1 82.5 51 81.5 48.4 82.4 C45.8 83.2 45.2 80.7 42.7 81.6 C40.2 82.4 38.1 84.1 34.6 84 C31.1 83.9 32.6 80.9 29.6 79.4 C26.6 77.9 25.5 79.4 23.5 76.7 C21.5 74 23.5 70.6 22.8 69.1 C22.1 67.6 20.4 71.1 18.5 68.4 C16.6 65.8 20 62.9 19.3 61 C18.6 59.1 16.9 63 15.7 60.1 C14.5 57.2 16.3 53.8 15.7 52.5 C15.1 51.3 14.5 51.6 13.6 49.6 C12.4 47 10.9 46 11.7 41.8 C12 40.2 14.1 38.8 14.6 35.7 C14.9 34 13.2 32.8 13.8 29.7 C14.2 27.5 17.8 27.4 17.4 25.6 C16.4 21.7 20.5 23.1 22.4 19.9 C23.2 18.6 23.6 17.3 24 16.1 C25.5 14.4 27.8 11.8 30 9.4 C30.8 9 31.6 8.5 32.3 7.8 C33.5 6.6 36.2 3.5 38.9 0.5 C40.6 0.1 43.3 0.2 45 1.6 C45.9 2.3 45 3.6 45.8 4.6 C46.5 5.5 47.7 4.2 48.5 5.2 C49 5.8 49 5.9 49 7.8 C49 9.7 51 7 51.9 9.4 C52.1 10 52.4 11 52.7 11.5 C52.9 12 53.3 11 54.6 12.9 C55.9 14.8 55.4 16.4 56.3 17.5 C57.3 18.7 58.7 18.6 59.6 21 C60.5 23.4 57.9 21.9 58.3 22.9 C58.8 24.2 61 25.6 61.3 27.1 C61.5 28.4 59.6 29.2 59.6 30.6 C59.6 31.6 62.5 32.1 63.3 33.7 C63.9 34.9 62.3 37.2 62.5 38 C62.8 39.4 64.7 38.7 64.8 40.8 C64.9 43.5 61.8 43.8 62.5 45.9 C62.8 46.7 64.7 49.1 64.8 51.1 C64.9 53.1 62.5 51.9 62.5 52.4 C62.5 53.7 63.5 57 63.9 58.2 C64.5 60.4 62.7 60.7 62.5 61.7 C62.4 62.4 63.3 65.1 63.3 66.7 C63.3 68.3 61.7 65.7 61.3 66.7 C60.9 67.7 62.4 69 61.8 70.4 C61.2 71.8 59.2 71.2 58.9 72.2 C57.9 75 59.9 75 59.7 76.1 C59.5 77.2 58.6 78.7 58.4 79.3 C56.2 81.3 56.9 78.5 54.5 80.5 z" id="k1" fill="#806458" /></g></g><g transform="translate(173.2, 96.99995) rotate(-6, 0, 0) scale(1.4, 1.35) translate(-188.2, -122) translate(86.1, 80.89997) translate(110.5, 82.5) scale(-1, 1) translate(-110.5, -82.5) translate(79, 37)" id="l1"><g opacity="0.15" transform="translate(31.5, 46) scale(-1, 1) translate(-31.5, -46) translate(0, 1)" id="m1"><path d="M34.6 5.5 C37.5 7.9 38.4 12.9 39.7 14.2 C39.8 14.3 39.8 14.3 39.9 14.3 C40.6 14.8 41.3 15.1 42.1 15.4 C42.5 15.5 42.9 15.7 43.3 15.8 C45 16.4 47.2 15.6 48.3 16.6 C51.8 19.6 49.8 21 52.4 25.2 C55 29.4 55.7 27.4 57.6 30.9 C59.5 34.4 58.8 35.5 59.8 38.8 C60.8 42.2 56.4 35.7 56.4 39.1 C56.4 42.5 61.6 45.9 61.6 48.5 C61.6 51.1 55.3 39.2 55.5 41.9 C55.7 44.6 61.9 53.2 62 56.9 C62.1 60.6 56.4 51 56.9 54 C57.4 57 61 61.5 60.6 64.2 C60.2 66.9 58 63.6 56.9 66.3 C55.8 69 58 71.8 56.6 75.1 C55.2 78.4 55.4 67.3 53.7 69.8 C52.1 72.2 53.1 79.8 50.8 81.8 C48.4 83.8 50.7 76.9 48.1 79.8 C45.5 82.7 45.1 85.8 40.9 87.3 C36.7 88.8 42.8 82.8 39.6 82.5 C36.4 82.2 35.3 89.3 31.9 89.9 C30 90.2 28.1 89.4 26.2 87.9 C24.7 86.7 23.5 81.6 22.1 81.4 C18.9 80.8 19.7 86.7 18.1 85.2 C17 84.2 16.9 82.5 16.4 81.4 C16.3 81.4 16 74.6 15.7 74.7 C15.2 75 13.4 80.9 12.9 81.2 C12.4 81.6 11.5 81.8 11 80.4 C9.9 77.2 11.6 70.7 11 67.6 C10.8 66.6 8.5 73.1 8.2 73.2 C7.7 73.5 7.1 73.6 6.6 72.2 C5.4 69 4 71.8 4 68.1 C4 67.7 4.1 65.3 4 65.1 C3.5 64.3 2.9 64.2 2.6 63.4 C2.3 62.2 3.1 60 4.2 58 C4.6 57.2 2.1 59 2 58 C1.9 56.7 2.8 55.1 3.5 52.7 C4.2 50.3 1.6 52.6 1.4 51.6 C1.1 50.3 2.4 48.9 2.4 47.9 C2.4 45.5 1.5 47.4 0.8 45.2 C0.4 44 3.1 41.6 3.4 40.9 C3.7 40.3 1.8 40.8 1.9 39.8 C2.1 37.5 4.5 38.5 4.1 37 C3.8 35.9 2.7 35.9 2.7 35.2 C2.7 33.1 4.5 34.8 4.1 32.3 C4 31.2 3.5 28.8 3.4 27.7 C3.3 26 5.9 26.2 5.6 24.8 C5 21.9 4.4 22.2 7 19.3 C7.5 18.7 6.6 16.2 7 15.1 C8 12.3 9.5 12.9 9.8 12.2 C10.4 10.8 9.3 10 10.5 9.1 C11.9 8.1 13.7 9.5 14.6 6.9 C15.1 5.4 15.7 5 16.6 3.9 C19.6 0.4 25.2 0 27.8 1.7 C28.8 2.3 32.4 3.6 34.6 5.5 z" stroke="#000000" stroke-width="3" opacity="0.15" id="n1" /></g><g transform="translate(31.5, 44.5) scale(-1, 1) translate(-31.5, -44.5)" id="o1"><path d="M5.2 44 C3.1 51.1 6.5 56.9 4.4 60.5 C2.3 64.1 5.2 62 5.2 65.6 C5.2 69.2 5.8 68.8 7 72 C8.2 75.2 9.8 70.3 10.5 73.4 C11.2 76.5 10.8 76.8 11.8 80 C12.8 83.2 14.2 78.9 15.6 80 C17 81.1 16.9 83.2 18.5 84.7 C20.1 86.2 19.3 82.8 22.5 83.4 C23.9 83.6 24.9 86.6 26.4 87.8 C28.3 89.3 30.7 89 32.6 88.7 C36 88.1 36.7 84.6 40 84 C43.3 83.4 36.6 87.9 40.8 86.4 C45 84.9 45.8 84.1 48.4 81.2 C51 78.3 48.6 83.2 51 81.2 C53.3 79.2 52.8 75.9 54.4 73.5 C56.1 71 55.3 78.2 56.7 74.9 C58.1 71.6 56.4 70.6 57.5 67.9 C58.6 65.2 60.3 66.7 60.7 64 C61.1 61.3 60 61.9 59.5 58.9 C59 55.9 62.1 60.2 62 56.5 C61.9 52.8 59.7 52 59.5 49.3 C59.3 46.6 61.3 51.2 61.3 48.6 C61.3 46 57.5 44.2 57.5 40.8 C57.5 37.4 60.5 42.1 59.5 38.7 C58.5 35.4 59.5 34.3 57.6 30.8 C55.7 27.3 55 29.8 52.4 25.6 C49.8 21.4 51.3 20.7 47.8 17.7 C45.9 16.1 42.7 16.1 39.9 14.3 C38.5 13.4 37.6 8 34.6 5.5 C32.4 3.6 28.8 2.3 27.8 1.7 C22.9 -1.3 16.5 10.7 11.8 14.3 C7.1 17.9 6.6 23 5.2 26.9 C3.1 32.6 6 41.1 5.2 44 z" id="p1" fill="#806458" /><path d="M5.2 44 C3.1 51.1 6.5 56.9 4.4 60.5 C2.3 64.1 5.2 62 5.2 65.6 C5.2 69.2 5.8 68.8 7 72 C8.2 75.2 9.8 70.3 10.5 73.4 C11.2 76.5 10.8 76.8 11.8 80 C12.8 83.2 14.2 78.9 15.6 80 C17 81.1 16.9 83.2 18.5 84.7 C20.1 86.2 19.3 82.8 22.5 83.4 C23.9 83.6 24.9 86.6 26.4 87.8 C28.3 89.3 30.7 89 32.6 88.7 C36 88.1 36.7 84.6 40 84 C43.3 83.4 36.6 87.9 40.8 86.4 C45 84.9 45.8 84.1 48.4 81.2 C51 78.3 48.6 83.2 51 81.2 C53.3 79.2 52.8 75.9 54.4 73.5 C56.1 71 55.3 78.2 56.7 74.9 C58.1 71.6 56.4 70.6 57.5 67.9 C58.6 65.2 60.3 66.7 60.7 64 C61.1 61.3 60 61.9 59.5 58.9 C59 55.9 62.1 60.2 62 56.5 C61.9 52.8 59.7 52 59.5 49.3 C59.3 46.6 61.3 51.2 61.3 48.6 C61.3 46 57.5 44.2 57.5 40.8 C57.5 37.4 60.5 42.1 59.5 38.7 C58.5 35.4 59.5 34.3 57.6 30.8 C55.7 27.3 55 29.8 52.4 25.6 C49.8 21.4 51.3 20.7 47.8 17.7 C45.9 16.1 42.7 16.1 39.9 14.3 C38.5 13.4 37.6 8 34.6 5.5 C32.4 3.6 28.8 2.3 27.8 1.7 C22.9 -1.3 16.5 10.7 11.8 14.3 C7.1 17.9 6.6 23 5.2 26.9 C3.1 32.6 6 41.1 5.2 44 z" id="q1" fill="#BD8B6A" /><path d="M45.6 17.7 C48.3 21.5 46.7 21.8 48.1 26.6 C49.5 31.4 50.8 29.1 51.8 33 C52.8 36.9 52.7 35.8 52.8 39.3 C52.9 42.8 50.4 40.2 49.5 43.5 C48.6 46.8 52.5 47.8 51.8 50.3 C51.1 52.8 49.5 48.8 48.9 51.5 C48.3 54.1 50.2 55.5 49.4 59.2 C48.6 62.8 45.8 59.2 45.5 62.3 C45.2 65.4 47.3 63.7 46.2 66.2 C45.1 68.8 43.8 66.8 42 69.2 C40.2 71.6 41.6 73 39.4 75.9 C37.2 78.8 38.1 73.3 35.8 75.3 C33.5 77.3 34.9 79.2 32.2 80.6 C29.4 81.9 30.7 77.5 27.4 79.6 C24.1 81.7 27.1 82 22.5 82.4 C18 82.8 22.6 80.9 19.2 80.6 C17.9 80.5 17.1 80.9 16.4 81.4 C16.2 80.9 15.9 80.5 15.4 80.1 C14 79 12.7 83.3 11.6 80.1 C10.5 76.9 10.9 76.6 10.3 73.5 C9.6 70.4 8 75.3 6.8 72.1 C5.6 68.9 4.2 71.7 4.2 68 C4.2 67.6 4.3 65.2 4.2 65 C3.7 64.2 3.1 64.1 2.8 63.3 C2.3 62.2 3.1 60 4.2 58 C4.6 57.2 2.1 59 2 58 C1.9 56.7 2.8 55.1 3.5 52.7 C4.2 50.3 1.6 52.6 1.4 51.6 C1.1 50.3 2.4 48.9 2.4 47.9 C2.4 45.5 1.5 47.4 0.8 45.2 C0.4 44 3.1 41.6 3.4 40.9 C3.7 40.3 1.8 40.8 1.9 39.8 C2.1 37.5 4.5 38.5 4.1 37 C3.8 35.9 2.7 35.9 2.7 35.2 C2.7 33.1 4.5 34.8 4.1 32.3 C4 31.2 3.5 28.8 3.4 27.7 C3.3 26 5.9 26.2 5.6 24.8 C5 21.9 4.4 22.2 7 19.3 C7.5 18.7 6.6 16.2 7 15.1 C8 12.3 9.5 12.9 9.8 12.2 C10.4 10.8 9.3 10 10.5 9.1 C11.9 8.1 13.7 9.5 14.6 6.9 C15.1 5.4 15.7 5 16.6 3.9 C19.6 0.4 25.2 0 27.8 1.7 C28.8 2.3 32.4 3.6 34.6 5.5 C37.6 8 38.6 13.4 39.9 14.3 C41.1 15.1 42.4 15.5 43.6 15.9 C44.4 16.4 45.1 17 45.6 17.7 z" id="r1" fill="#806458" /></g></g><g transform="translate(102.6, 81.29997) translate(23, 25)" id="s1"><g id="t1"><g id="u1"><path d="M87.2 74.6 C85.9 71 84.6 66.6 82.2 61.8 C83.8 62.4 85.3 63 86.1 64.5 C84.9 58.9 83.6 52.1 80.2 47.3 C80.2 46.9 80.2 46.5 80.2 46.1 C80 31.9 77.9 25.5 76.4 19.1 C74 9 65.6 3.7 57.8 1.1 C52.1 -0.8 46.6 1.3 43.9 1.3 C41.2 1.3 35.7 -0.8 30 1.1 C22.1 3.8 13.7 9 11.4 19.1 C9.9 25.5 7.8 31.9 7.6 46.1 C7.6 46.5 7.6 46.9 7.6 47.3 C4.2 52 2.9 58.9 1.7 64.5 C2.5 63 4 62.4 5.6 61.8 C3.3 66.6 1.9 71.1 0.6 74.6 C2.1 72.7 6 72.5 7.5 70.5 C6.5 74.9 5.8 87.6 12.8 92.5 C13.7 88.4 15.2 84.6 17.2 81.1 C17.5 82.6 18.1 84.3 18.9 86.1 C19.9 80.8 20.9 78.7 22.5 77.6 C21.8 84 20.9 88 23.7 89.6 C23.6 86.7 26 83.3 28.4 80.2 C32.3 83 36.8 84 43.9 84 C51.1 83.9 55.5 83 59.4 80.2 C61.8 83.4 64.2 86.8 64.1 89.6 C66.8 88 66 84 65.3 77.6 C66.9 78.8 67.9 80.8 68.9 86.1 C69.7 84.3 70.2 82.6 70.6 81.1 C72.6 84.6 74.2 88.5 75 92.5 C82 87.5 81.2 74.9 80.3 70.5 C81.8 72.4 85.6 72.7 87.2 74.6 z" id="v1" fill="#D8B285" /><path d="M87.2 74.6 C85.6 72.7 81.8 72.4 80.3 70.5 C81.2 74.9 82 87.5 75 92.5 C74.2 88.5 72.6 84.6 70.6 81.1 C70.2 82.6 69.7 84.3 68.9 86.1 C67.9 80.8 66.9 78.8 65.3 77.6 C66 84 66.8 88 64.1 89.6 C64.2 86.8 61.8 83.4 59.4 80.2 C55.5 83 51.1 83.9 43.9 84 C36.8 84 32.3 83 28.4 80.2 C26 83.3 23.6 86.7 23.7 89.6 C20.9 88 21.8 84 22.5 77.6 C20.9 78.7 19.9 80.8 18.9 86.1 C18.1 84.3 17.5 82.6 17.2 81.1 C15.2 84.6 13.7 88.4 12.8 92.5 C5.8 87.6 6.5 74.9 7.5 70.5 C6 72.5 2.1 72.7 0.6 74.6 C1.9 71.1 3.3 66.6 5.6 61.8 C4 62.4 2.5 63 1.7 64.5 C2.9 58.9 4.2 52 7.6 47.3 C7.6 46.9 7.6 46.5 7.6 46.1 C7.8 31.9 9.9 25.5 11.4 19.1 C13.7 9 22.1 3.8 30 1.1 C35.7 -0.8 41.2 1.3 43.9 1.3 C46.6 1.3 52.1 -0.8 57.8 1.1 C65.6 3.7 74 9 76.4 19.1 C77.9 25.5 80 31.9 80.2 46.1 C80.2 46.5 80.2 46.9 80.2 47.3 C83.6 52.1 84.9 58.9 86.1 64.5 C85.3 63 83.8 62.4 82.2 61.8 C84.6 66.6 85.9 71 87.2 74.6 z M84.1 70.6 C82.8 67.2 81.6 63.1 79.4 58.7 C80.9 59.2 82.3 59.8 83 61.2 C81.9 56 80.7 49.7 77.6 45.2 C77.6 44.9 77.6 44.5 77.6 44.1 C77.4 31 75.4 25 74 19.1 C71.8 9.7 64 4.8 56.8 2.4 C51.5 0.6 46.4 2.1 43.9 2.1 C41.4 2.1 36.3 0.6 31 2.4 C23.7 4.9 15.9 9.7 13.8 19.1 C12.4 25 10.4 31 10.2 44.1 C10.2 44.5 10.2 44.9 10.2 45.2 C7.1 49.6 5.9 56 4.8 61.2 C5.5 59.8 6.9 59.2 8.4 58.7 C6.2 63.1 5 67.3 3.7 70.6 C5.1 68.8 8.8 68.6 10.1 66.7 C9.2 70.8 6 82.6 12.5 87.2 C13.3 83.3 15.9 79.8 17.7 76.6 C18 78 18.4 79 19.1 80.7 C20.1 75.8 22.6 74.4 24.1 73.3 C23.4 79.3 22.4 82 24.2 83.6 C24.8 81.2 27.3 78.6 29.5 75.7 C33.1 78.3 37.3 80 43.9 80 C50.6 79.9 54.7 78.3 58.3 75.7 C60.5 78.7 63.8 81 63.7 83.6 C66.2 82.1 64.4 79.3 63.7 73.3 C65.2 74.4 67.7 75.1 68.7 80 C69.4 78.3 71.8 78 72.2 76.6 C74 79.8 74.7 83.4 75.4 87.2 C81.9 82.5 78.5 70.8 77.7 66.7 C79 68.5 82.6 68.8 84.1 70.6 z" opacity="0.15" id="w1" /></g></g></g><g id="x1"><g transform="translate(103.9, 104.2) translate(32, 35)" id="y1"><g transform="translate(0, 8)" id="z1"><path d="M64 23.9 C61.8 21.3 58.3 20.9 55.7 19 C52.7 16.8 52.1 14 50.4 10.8 C46.5 3.6 41 0.8 33.5 0.7 C26.9 0.7 21.5 2.7 17.6 9 C16 11.6 15.2 15.2 13.1 17.5 C11 19.8 7.8 20.1 5.4 21.8 C1.5 24.6 -1.2 31.1 0.6 36 C2 39.8 8.4 42.3 12.3 43.7 C24.5 48.1 40.4 48 52.7 44.3 C56.1 43.3 59.5 41.8 62.5 39.8 C65.7 37.6 66.6 36.4 66.6 32.6 C66.5 29.7 66 26.2 64 23.9 z" id="a2" fill="#806457" /><path d="M64 23.9 C66 26.2 66.5 29.7 66.6 32.6 C66.6 36.4 65.7 37.6 62.5 39.8 C59.5 41.8 56.1 43.3 52.7 44.3 C40.4 48 24.5 48.1 12.3 43.7 C8.4 42.3 2 39.8 0.6 36 C-1.2 31.1 1.5 24.6 5.4 21.8 C7.8 20.1 11 19.8 13.1 17.5 C15.2 15.2 16 11.6 17.6 9 C21.5 2.7 26.9 0.7 33.5 0.7 C41 0.8 46.5 3.6 50.4 10.8 C52.1 14 52.7 16.8 55.7 19 C58.3 20.9 61.8 21.3 64 23.9 z M61.8 23.5 C59.8 21 56.5 20.7 54.1 18.9 C51.3 16.8 50.8 14.2 49.2 11.3 C45.6 4.6 40.5 1.9 33.5 1.9 C27.4 1.9 22.3 3.7 18.7 9.6 C17.2 12 16.5 15.4 14.5 17.5 C12.6 19.6 9.6 19.9 7.4 21.5 C3.7 24.1 1.2 30.2 2.9 34.7 C4.2 38.3 10.2 40.6 13.8 41.9 C25.1 46 39.9 45.9 51.3 42.4 C54.5 41.5 57.7 40.1 60.4 38.3 C63.4 36.2 64.3 35.1 64.3 31.6 C64.2 28.9 63.7 25.6 61.8 23.5 z" opacity="0.15" id="b2" /><g transform="translate(19, 14)" id="c2" fill="#282421"><path d="M7 2.2 C6.3 1.8 5.3 2.4 5.2 3.3 C5.2 4.1 6.8 4.9 7.6 4.5 C8.3 4.1 7.8 2.9 7.2 2.4" id="d2" /><path d="M2.1 0.7 C1.4 0.3 0.4 0.9 0.3 1.8 C0.3 2.6 1.3 3.7 2.1 3.3 C2.9 2.9 2.9 1.3 2.3 0.8" id="e2" /><path d="M2.1 7.4 C1.4 7 0.4 7.6 0.3 8.5 C0.3 9.3 1.4 10.2 2.1 9.9 C2.8 9.5 2.9 8.1 2.2 7.6" id="f2" /><path d="M22 2.2 C22.7 1.8 23.7 2.4 23.8 3.3 C23.8 4.1 22.2 4.9 21.4 4.5 C20.7 4.1 21.2 2.9 21.8 2.4" id="g2" /><path d="M26.9 0.7 C27.6 0.3 28.6 0.9 28.7 1.8 C28.7 2.6 27.7 3.7 26.9 3.3 C26.2 2.9 26.1 1.3 26.7 0.8" id="h2" /><path d="M26.9 7.4 C27.6 7 28.6 7.6 28.7 8.5 C28.7 9.3 27.6 10.2 26.9 9.9 C26.2 9.5 26.1 8.1 26.8 7.6" id="i2" /></g></g></g><g transform="translate(169.4, 177.9999) scale(1.6) translate(-169.4, -177.9999) translate(110.1, 92.39996) translate(55, 75)" id="j2"><g id="k2"><path d="M8.3 9.3 C6.7 8.2 5.3 6.6 4.7 4.7 C4.5 4.6 4.4 4.6 4.4 4.6 C4.4 4.6 4.3 4.6 4.1 4.7 C3.6 6.6 1.8 8.2 0.2 9.3 C1.7 9.9 4.4 10 4.4 10 C4.4 10 6.8 10 8.3 9.3 z" id="l2" fill="#CE5253" /><path d="M0.3 9.3 C0.3 9.3 0.5 9.3 0.7 9.4 C0.9 9.4 1.3 9.5 1.7 9.6 C2.5 9.7 3.4 9.9 4.3 9.9 C4.5 9.9 4.7 9.9 5 9.9 C5.2 9.9 5.4 9.9 5.6 9.8 C5.8 9.8 6 9.7 6.2 9.7 C6.4 9.7 6.6 9.6 6.8 9.6 C7.2 9.5 7.5 9.4 7.8 9.4 C8.1 9.3 8.2 9.3 8.2 9.3 C8.2 9.3 8.2 9.4 8 9.7 C7.9 9.9 7.7 10.3 7.4 10.6 C7.1 10.9 6.6 11.3 6.1 11.5 C5.5 11.7 4.9 11.9 4.2 11.8 C2.9 11.8 1.7 11.1 1.1 10.5 C0.8 10.2 0.5 9.9 0.4 9.6 C0.4 9.5 0.3 9.3 0.3 9.3 z" id="m2" fill="#282421" /><path d="M4.5 6.6 C3.9 6.6 3.5 6.2 3.5 5.6 L3.5 1.7 C3.5 1.1 3.9 0.7 4.5 0.7 C5.1 0.7 5.5 1.1 5.5 1.7 L5.5 5.6 C5.5 6.2 5.1 6.6 4.5 6.6 z" id="n2" fill="#282421" /></g></g><g transform="translate(96.3, 68.59997) translate(61, 60)" id="o2"><path d="M3.4 29.3 C5.1 31.6 6.8 32.9 11.9 32.9 C17 32.9 20.1 30.4 20.6 27.9 C21.1 25.4 20.5 20.8 16.3 19.7 C12.1 18.6 7.1 18.8 5.4 20.8 C4.7 21.6 3.5 22.7 2.9 24.1 C2.1 26.1 2.5 28 3.4 29.3 z" id="p2" /><path d="M8.2 20.6 C5.8 21.6 4.3 23 6.5 22.4 C7.9 22 9.3 21.7 10.8 21.8 C11.6 21.9 13.3 22 14.7 22.3 C16.1 23.4 18 24 18.6 23.5 C19.2 23 18.6 21.2 16.3 20.5 C14 19.8 10.7 19.6 8.2 20.6 z" id="q2" fill="#FFF" /></g><g transform="translate(92.29999, 79.99997) translate(53, 56)" id="r2"><g id="s2"><path d="M11 8.3 C11 7.7 11 4.9 9.8 3 C8.6 1.1 7.4 0.6 5.8 0.2 C4.2 -0.2 2.3 0 1.3 0.9 C0.3 1.8 0 4 0 5.5 C0 7 0.8 8.8 2.8 9.4 C4.1 9.8 6 9.8 8.6 9.4 C10.2 9.1 11 8.8 11 8.3 z" id="t2" /><path d="M5 4.4 C5.6 4.4 6.4 3.6 6.4 3 C6.4 2.4 5.6 2 5 2 C4.4 2 4 2.4 4 3 C4 3.6 4.4 4.4 5 4.4 z" id="u2" fill="#FFFFFE" /></g></g><g transform="translate(100.3, 79.99997) translate(82, 56)" id="v2"><g id="w2"><path d="M0 8.3 C0 7.7 0 4.9 1.2 3 C2.4 1.1 3.6 0.6 5.2 0.2 C6.8 -0.2 8.7 0 9.7 0.9 C10.7 1.8 11 4 11 5.5 C11 7 10.2 8.8 8.2 9.3 C6.9 9.7 5 9.7 2.4 9.3 C0.8 9.1 0 8.8 0 8.3 z" id="x2" /><path d="M6 4.4 C6.6 4.4 7.4 3.6 7.4 3 C7.4 2.4 6.6 2 6 2 C5.4 2 5 2.4 5 3 C5 3.6 5.4 4.4 6 4.4 z" id="y2" fill="#FFFFFE" /></g></g></g></g></g></g><defs><g transform="translate(17.09519, 0.800995) translate(-135.2952, -293.601)" id="z2" fill="#000"><path d="M118.2 302.7 C118.4 307.4 132.5 311.2 149.8 311.2 C167.1 311.2 181.2 307.4 181.4 302.7 C181.4 307.5 181.4 310.1 181.4 310.5 C181.4 315.3 167.3 319.1 149.8 319.1 C132.3 319.1 118.2 315.2 118.2 310.5 L118.2 302.7 L118.2 302.7 z" fill-opacity="0.4528" id="a3" fill="#593001" /><path d="M118.7 301.7 C118.9 306.4 133 310.2 150.3 310.2 C167.6 310.2 181.7 306.4 181.9 301.7 C181.9 306.5 181.9 309.1 181.9 309.5 C181.9 314.3 167.8 318.1 150.3 318.1 C132.8 318.1 118.7 314.2 118.7 309.5 L118.7 301.7 L118.7 301.7 z" id="b3" fill="#DA8113" /><linearGradient x1="46.0545" y1="-118.6926" x2="45.4656" y2="-118.6926" gradientUnits="userSpaceOnUse" gradientTransform="matrix(117.135, 0, 0, 28.4634, -5208.417, 3687.795)" id="c3"><stop offset="0%" stop-color="#D9952A" stop-opacity="1" /><stop offset="6.438854%" stop-color="#CA7519" stop-opacity="1" /><stop offset="30.54%" stop-color="#E3AD3A" stop-opacity="1" /><stop offset="51.05%" stop-color="#FFEC91" stop-opacity="1" /><stop offset="68.8%" stop-color="#E9BD44" stop-opacity="1" /><stop offset="86.24%" stop-color="#FFED6C" stop-opacity="1" /><stop offset="93.87%" stop-color="#F2D353" stop-opacity="1" /><stop offset="100%" stop-color="#F2B947" stop-opacity="1" /></linearGradient><path d="M118.2 301.6 C118.4 306.1 132.7 309.7 150.3 309.7 C167.9 309.7 182.2 306.1 182.4 301.6 C182.4 306.2 182.4 308.7 182.4 309 C182.4 313.5 168 317.2 150.3 317.2 C132.6 317.2 118.2 313.5 118.2 309 L118.2 301.6 L118.2 301.6 z" id="d3" style="fill:url(#c3)" /><linearGradient x1="45.4914" y1="-117.9547" x2="45.9407" y2="-117.5895" gradientUnits="userSpaceOnUse" gradientTransform="matrix(115.425, 0, 0, 29.925, -5125.077, 3826.124)" id="e3"><stop offset="0%" stop-color="#F4E072" stop-opacity="1" /><stop offset="100%" stop-color="#DB9427" stop-opacity="1" /></linearGradient><ellipse cx="150.3" cy="301.5" rx="31.6" ry="8.2" id="f3" style="fill:url(#e3)" /><linearGradient x1="45.4656" y1="-126.0065" x2="46.0545" y2="-126.0065" gradientUnits="userSpaceOnUse" gradientTransform="matrix(117.135, 0, 0, 18.6219, -5208.417, 2651.479)" id="g3"><stop offset="0%" stop-color="#D9952A" stop-opacity="1" /><stop offset="6.438854%" stop-color="#CA7519" stop-opacity="1" /><stop offset="30.54%" stop-color="#E3AD3A" stop-opacity="1" /><stop offset="51.05%" stop-color="#FFEC91" stop-opacity="1" /><stop offset="68.8%" stop-color="#E9BD44" stop-opacity="1" /><stop offset="86.24%" stop-color="#FFED6C" stop-opacity="1" /><stop offset="93.87%" stop-color="#F2D353" stop-opacity="1" /><stop offset="100%" stop-color="#F2B947" stop-opacity="1" /></linearGradient><path d="M119.2 299.9 C119 300.2 118.9 300.6 118.9 301 C118.9 305.5 132.9 309.2 150.3 309.2 C167.7 309.2 181.7 305.5 181.7 301 C181.7 300.6 181.6 300.3 181.4 299.9 C182 300.5 182.4 301.2 182.4 301.9 C182.4 306.4 168 310.1 150.3 310.1 C132.6 310.1 118.2 306.4 118.2 301.9 C118.2 301.3 118.6 300.6 119.2 299.9 z" id="h3" style="fill:url(#g3)" /><linearGradient x1="45.196" y1="-121.5895" x2="45.3746" y2="-120.6758" gradientUnits="userSpaceOnUse" gradientTransform="matrix(101.745, 0, 0, 23.94, -4458.332, 3199.41)" id="i3"><stop offset="0%" stop-color="#F8DD61" stop-opacity="1" /><stop offset="100%" stop-color="#EAA330" stop-opacity="1" /></linearGradient><ellipse cx="150.3" cy="300.8" rx="27.8" ry="6.6" id="j3" style="fill:url(#i3)" /><linearGradient x1="45.5694" y1="-134.267" x2="45.0221" y2="-134.267" gradientUnits="userSpaceOnUse" gradientTransform="matrix(101.745, 0, 0, 13.2525, -4458.332, 2077.223)" id="k3"><stop offset="0%" stop-color="#F4CA2F" stop-opacity="1" /><stop offset="51.38%" stop-color="#BF7737" stop-opacity="1" /><stop offset="100%" stop-color="#E4A929" stop-opacity="1" /></linearGradient><path d="M122.6 301.5 C122.5 301.3 122.4 301 122.4 300.8 C122.4 297.2 134.9 294.2 150.2 294.2 C165.5 294.2 178 297.1 178 300.8 C178 301 177.9 301.3 177.8 301.5 C176.3 298.2 164.5 295.6 150.1 295.6 C135.7 295.6 124.1 298.2 122.6 301.5 z" id="l3" style="fill:url(#k3)" /></g></defs><desc>HEAGJIHKEI2,q9iC6zKUWcwMG5Lvg0nFsRmui7Ie+Fr16ouVoiaG13xs12h7WYyiz5fKtHwDoenv7hqUYGSxRUX6w3M8osF8+Q==</desc></svg>