<?xml version="1.0" encoding="utf-8"?><!DOCTYPE svg PUBLIC "-//W3C//DTD SVG 1.1//EN" "http://www.w3.org/Graphics/SVG/1.1/DTD/svg11.dtd"><svg x="0" y="0" width="340px" height="340px" viewBox="0, 0, 340, 340" preserveAspectRatio="xMidYMid" font-size="0" id="a" enable-background="new 0 0 340 340" xmlns="http://www.w3.org/2000/svg" xmlns:xlink="http://www.w3.org/1999/xlink" xmlns:xml="http://www.w3.org/XML/1998/namespace" version="1.1"><g id="b" fill="#000"><g id="c"><g transform="translate(0, 0) translate(0, 224)" id="d"><ellipse cx="168.6" cy="53.1" rx="57.8" ry="12.8" fill-opacity="0.25" id="e" /></g><g id="f"><g transform="translate(109.2, 109.1) translate(17, 115.5) scale(-1, 1) translate(-17, -115.5) translate(0, 94)" id="g"><g id="h"><path d="M8.1 41.9 C14.8 39.7 18.9 36.9 23.6 32.1 C31.3 24.3 34 16.7 29.9 8.8 C27.6 4.4 19.9 1.9 13.5 3.1 C10.7 3.6 9.6 5.5 10 5.9 C10.7 6.6 13.9 5.9 15.5 6 C26.6 6.6 24.3 15.2 17.6 22.1 C12.7 27.2 5.8 27.2 1.9 31.9 C-1.8 36.4 1.5 44.1 8.1 41.9 z" id="i" fill="#7B4C3A" /><path d="M13.5 34.9 C24.5 32.1 33 20.6 28.2 9.3 C26.4 5 18 1.6 10.2 6 L10.1 6 C9.5 5.6 9.8 4.8 12 2.8 C16.8 -1.4 25.8 0.3 29.5 4.7 C36.8 13.3 34.6 24.6 26.9 32.4 C22.2 37.2 14.7 39.8 8 42 C5.7 42.8 3.8 42.3 2.4 41.2 C2.2 38.4 10.9 35.6 13.5 34.9 z" id="j" fill="#342520" /><path d="M2.4 41 C0 38.9 -0.5 34.8 1.9 31.9 C5.8 27.2 12.7 27.2 17.6 22.1 C24.3 15.2 26.6 6.6 15.5 6 C14 5.9 11 6.5 10.1 6 L10.1 6 C9.5 5.6 9.8 4.8 12 2.8 C16.8 -1.4 25.8 0.3 29.5 4.7 C36.8 13.3 34.6 24.6 26.9 32.4 C22.2 37.2 14.7 39.8 8 42 C5.7 42.8 3.8 42.3 2.4 41.2 C2.4 41.1 2.4 41.1 2.4 41 z M3.1 31.5 C0.9 34.3 0.9 37.1 3.1 39.1 C3.1 39.1 3.1 39.2 3.1 39.2 C4.5 40.3 6.3 40.8 8.4 40 C14.8 37.9 20.8 35.7 25.2 31.1 C32.6 23.7 35.6 13.6 28.7 5.4 C25.1 1.2 17.2 -0.9 12.6 3.1 C10.6 5 9.9 5.4 10.5 5.8 C11.3 6.3 14.6 5.3 16 5.4 C26.6 6 25.3 15.7 18.9 22.3 C14.2 27.1 6.8 27.1 3.1 31.5 z" opacity="0.15" id="k" /></g></g><g transform="translate(126.8733, 274.8) scale(0.8024358) translate(-123.6, -274.8) translate(87.00002, 86.29997) translate(29, 123)" id="l"><g transform="translate(22.5, 34.5) scale(-1, 1) translate(-22.5, -34.5)" id="m"><path d="M0.5 21.2 C0.5 5.6 29.7 -5.2 40.3 4.4 C49.4 12.7 41.6 31.9 40.3 33.7 C39.4 34.9 36.1 41.1 30.4 52.5 C37.7 55.2 41.3 58.4 41.3 62.1 C41.3 63.8 41.3 66.1 39.6 67.4 C38.3 68.4 19.6 68.3 15.4 67.4 C11.2 66.5 0.3 66.2 0.5 57.8 C0.7 48.8 0.5 29.2 0.5 21.2 z" id="n" fill="#B09082" /><path d="M0.5 21.2 C0.5 5.6 29.7 -5.2 40.3 4.4 C49.4 12.7 41.6 31.9 40.3 33.7 C39.4 34.9 36.1 41.1 30.4 52.5 C37.7 55.2 41.3 58.4 41.3 62.1 C41.3 63.8 41.3 66.1 39.6 67.4 C38.3 68.4 19.6 68.3 15.4 67.4 C11.2 66.5 0.3 66.2 0.5 57.8 C0.7 48.8 0.5 29.2 0.5 21.2 z M2 21.6 C2 25.7 2.6 32.8 2.5 39.9 C2.4 45.8 1.6 51.8 1.6 55.7 C1.4 63.7 11.3 64.4 15.3 65.3 C19.3 66.2 36.4 66.9 37.7 65.9 C39.3 64.7 39.3 63 39.3 61.4 C39.3 57.9 34.4 55.6 27.4 53 C32.8 42.1 37.7 34 38.5 32.9 C40.9 28.4 47 12.6 38.4 4.6 C28.3 -4.5 2 6.8 2 21.6 z" opacity="0.15" id="o" /></g></g><g transform="translate(211.7267, 274.8) scale(0.8024358) translate(-215, -274.8) translate(93.5, 86.29997) translate(107, 157.5) scale(-1, 1) translate(-107, -157.5) translate(85, 123)" id="p"><g id="q"><path d="M42.8 20.7 C42.8 5.1 15.8 -5.2 5.2 4.4 C-3.9 12.7 3.9 31.9 5.2 33.7 C6.1 34.9 9.4 41.1 15.1 52.5 C7.8 55.2 4.2 58.4 4.2 62.1 C4.2 63.8 4.2 66.1 5.9 67.4 C7.2 68.4 24.3 69 30.1 67.4 C30.3 67.3 33.1 66.7 34 66.4 C37.5 65.2 42.4 63.3 42.7 59.9 C44.2 44.3 42.8 29.9 42.8 20.7 z" id="r" fill="#B09082" /><path d="M42.8 20.7 C42.8 29.9 44.2 44.3 42.7 59.9 C42.4 63.3 37.5 65.2 34 66.4 C33.1 66.7 30.3 67.3 30.1 67.4 C24.2 69 7.2 68.4 5.9 67.4 C4.2 66.1 4.2 63.8 4.2 62.1 C4.2 58.4 7.8 55.2 15.1 52.5 C9.4 41.1 6.1 34.9 5.2 33.7 C3.9 31.9 -3.9 12.7 5.2 4.4 C15.8 -5.2 42.8 5.1 42.8 20.7 z M41.8 20.4 C41.8 5.6 16.2 -4.4 6.1 4.8 C-2.5 12.6 6 30.7 7.3 32.4 C8.2 33.5 12.3 42.3 17.7 53.2 C10.8 55.8 5.6 58.3 5.6 61.8 C5.6 63.4 5.7 64.3 7.4 65.6 C8.6 66.5 24.1 67 29.7 65.5 C29.9 65.4 34.8 64.5 35.7 64.2 C39 63.1 41.6 60.9 41.9 57.7 C43.1 42.8 41.8 29.1 41.8 20.4 z" opacity="0.15" id="s" /></g></g><g transform="translate(-285.9, 63.59998) translate(26, 89)" id="t"><path d="M397 32.1 C391 38.3 389.6 53.9 391.7 73.6 C393.8 93.4 398.5 110.6 404.4 118.6 C410.3 126.6 419.1 128.3 429.1 128.3 C439.1 128.3 444.7 128.5 451.9 120.5 C459 112.6 463.7 84.2 465.1 74.4 C466.5 64.7 469.4 41 460.1 32.9 C455.5 28.8 444.8 7 431.3 6.5 C417.8 6 403 26 397 32.1 z" id="u" fill="#D8C6BA" /><path d="M397 32.1 C391 38.3 389.6 53.9 391.7 73.6 C392.6 81.9 396.1 90.6 397.8 97.5 C400.1 107.1 401 114.1 404.4 118.7 C410.3 126.7 419.1 128.4 429.1 128.4 C439.1 128.4 444.7 128.6 451.9 120.6 C459 112.7 463.7 84.3 465.1 74.5 C466.5 64.8 469.4 41.1 460.1 33 C455.5 28.9 444.8 7.3 431.3 6.8 C417.8 6.2 403 26 397 32.1 z" id="v" fill="#D8C6BA" /><path d="M397 32.1 C403 26 417.8 6.2 431.1 6.6 C444.7 7.1 455.4 28.8 459.9 32.8 C469.2 40.9 466.3 64.6 464.9 74.3 C463.5 84.1 458.8 112.5 451.7 120.4 C444.5 128.4 438.9 128.2 428.9 128.2 C418.9 128.2 410.1 126.5 404.2 118.5 C398.3 110.5 393.6 93.2 391.5 73.5 C389.6 53.9 391 38.3 397 32.1 z M398.3 32.4 C392.5 38.4 391.2 53.3 393.2 72.3 C395.2 91.4 399.7 107.8 405.4 115.5 C411.1 123.2 419.5 124.8 429.1 124.8 C438.7 124.8 444.1 125 451 117.3 C457.8 109.7 462.3 82.4 463.7 73 C465 63.7 467.8 40.9 458.9 33.1 C454.3 29.2 444.1 8.5 431 8 C418.2 7.5 404 26.5 398.3 32.4 z" opacity="0.15" id="w" /></g><g fill-rule="evenOdd" transform="translate(129.1846, 188.275) scale(0.9903845, 0.9260429) translate(-128.8, -191) translate(103.2, 100.5) translate(65.5, 141.5) scale(-1, 1) translate(-65.5, -141.5) translate(25, 90)" id="x"><path d="M11.6 59.6 C8.7 45.7 0.4 49.4 0.4 27.5 C0.4 14.8 3.7 10 8 0.5 C19 12.8 30.8 15.8 40.4 17.2 C50 15.8 61.9 12.9 72.8 0.5 C77.1 10 80.4 14.8 80.4 27.5 C80.4 49.4 72.1 45.7 69.2 59.6 C68.4 63.3 64.3 74.3 60.3 74.6 C57.1 74.8 53.9 65.5 53.9 61 C53.9 55.5 53.7 50.8 53.3 47.7 C52.5 41.2 48.3 39.3 40.2 35.5 C32.2 39.3 28 41.2 27.1 47.7 C26.7 51 26.5 56.1 26.5 62 C26.5 67.2 22.2 75.8 18.3 74.5 C15.3 73.4 12.3 62.8 11.6 59.6 z" id="y" fill="#FAF4E8" /><path d="M6.7 100.5 C6.9 96.5 7.2 93.2 12.1 90.1 C13.4 82 13 68.4 11.8 61.1 C13.9 65.1 17.4 71.8 19.7 71.3 C21.6 70.9 25.3 64.7 26.8 60.9 C26.8 71 27.2 83.3 27.6 91.4 C30.6 93.8 30.9 99.1 30.6 100.2 C29 103.6 8.7 102.1 6.7 100.5 z" id="z" fill="#7B4C3A" /><path d="M74.3 100.5 C74.1 96.5 73.8 93.2 68.9 90.1 C67.6 82 68 68.4 69.2 61.1 C67.1 65.1 63.6 71.8 61.3 71.3 C59.4 70.9 55.7 64.7 54.2 60.9 C54.2 71 53.8 83.3 53.4 91.4 C50.4 93.8 50.1 99.1 50.4 100.2 C52 103.6 72.3 102.1 74.3 100.5 z" id="a1" fill="#7B4C3A" /><path d="M15.2 26.8 C16 25.9 17.5 26.2 18.6 26.5 C21.1 27.2 23.6 27.4 26.2 27.3 C31 26.2 36.7 25.3 40.4 25.3 C44.1 25.3 49.8 26.2 54.6 27.3 C57.2 27.4 59.7 27.2 62.2 26.5 C63.4 26.2 64.9 25.8 65.6 26.8 C66.1 27.4 66.1 28.2 66 29 C65.9 29.8 65.7 30.6 65.4 31.4 C64.9 32.6 64.3 33.8 63.5 34.9 C60.6 41.8 60.6 51.7 56.9 52.4 C52.5 53.2 53.4 46.5 52.6 44.3 C51.3 41 47.3 38.4 40.5 37.6 C33.7 38.4 29.7 41 28.4 44.3 C27.5 46.5 28.5 53.2 24.1 52.4 C20.4 51.7 20.4 41.8 17.5 34.9 C16.7 33.9 16 32.7 15.6 31.4 C15.3 30.6 15.1 29.8 15 29 C14.8 28.3 14.8 27.4 15.2 26.8 z" id="b1" fill="#7B4C3A" /><path d="M53.5 50 C53.1 48.6 53 46.9 52.9 45.6 C52.2 43.4 51.1 41.8 49.3 40.5 C47.2 39.1 44.3 38 40.5 37.6 C33.7 38.4 29.7 41 28.4 44.3 C27.8 45.9 28.1 49.6 26.8 51.5 C26.6 54.3 26.5 57.8 26.5 61.6 C26.6 61.4 26.7 61.1 26.8 60.9 C26.8 71 27.2 83.3 27.6 91.4 C30.6 93.8 30.9 99.1 30.6 100.2 C29 103.6 8.7 102.1 6.7 100.5 C6.9 96.5 7.2 93.2 12.1 90.1 C13.4 82 13 68.4 11.8 61.1 C11.9 61.3 12 61.5 12.1 61.7 C11.9 60.9 11.7 60.1 11.6 59.6 C8.7 45.7 0.4 49.4 0.4 27.5 C0.4 14.8 3.7 10 8 0.5 C19 12.8 30.8 15.8 40.4 17.2 C50 15.8 61.9 12.9 72.8 0.5 C77.1 10 80.4 14.8 80.4 27.5 C80.4 49.4 72.1 45.7 69.2 59.6 C69 60.4 68.7 61.6 68.2 63 C68.6 62.3 68.9 61.7 69.2 61.1 C68 68.4 67.6 82 68.9 90.1 C73.8 93.2 74.1 96.5 74.3 100.5 C72.3 102.1 52 103.6 50.4 100.2 C50.1 99.1 50.4 93.8 53.4 91.4 C53.8 84.1 54.1 73.3 54.2 63.8 C54 62.8 53.9 61.8 53.9 61 C53.9 56.7 53.8 52.9 53.5 50 z M53.8 45.9 C54 46.7 54.1 48.4 54.3 50.9 C54.6 53.7 54.8 56.5 54.8 60.5 C54.8 61.2 55 64.5 55.1 65.5 C55.1 74.4 55.1 84.9 54.8 91.7 C52 94 51.5 96.3 51.8 97.4 C53.3 100.5 70.3 98.9 72.1 97.4 C71.9 93.6 72.6 94 68 91.1 C66.8 83.5 66.2 67.3 67.4 60.5 C67.2 60.7 68 57 70.4 52.3 C72 49.4 75.2 46.7 76.5 42 C77.5 38.3 78.6 33.1 78.2 28.7 C77.3 16.9 75.4 12.6 71.4 3.8 C61.2 15.4 49.4 19.4 40.4 20.7 C31.4 19.4 19.2 15.3 8.9 3.8 C4.8 12.6 3 17.1 3 29 C3 49.5 10.7 46.1 13.4 59.1 C13.5 59.6 13.7 60.3 13.9 61.1 C13.8 60.9 13.7 60.7 13.6 60.5 C14.8 67.3 14.8 83 13.6 90.6 C9 93.5 9 93.6 8.9 97.4 C10.7 98.9 27.6 101.6 29.1 98.4 C29.3 97.4 29.3 94 26.5 91.7 C26.2 84.2 25.8 61.6 25.7 61.8 C25.7 58.2 26.1 53.3 26.5 50.9 C27 48.6 26.7 44.9 27.3 43.4 C28.6 40.3 34 37.2 40.4 36.4 C44 36.9 48.7 38.9 50.7 40.2 C52.3 41.5 53.2 43.9 53.8 45.9 z" opacity="0.15" id="c1" /></g></g><g transform="translate(169.8, 187.5) scale(0.9389828) translate(-169.8, -187.5)" id="d1"><g transform="translate(96.70002, 81.39997) translate(23, 22)" id="e1"><g id="f1"><path d="M8.2 28.4 C11 21.7 15.7 17.3 19.3 12.7 C22.9 8.1 31.7 5.6 37.3 4.5 C41.1 3.8 45.5 4.2 50.5 5.5 C52.6 4.5 55.6 4.2 59.5 4.5 C66.7 4.5 74.5 9 78.8 11.8 C83 14.6 91 25 93 28.4 C95 31.8 96.7 39.1 97.3 42.7 C97.9 46.3 97.3 55.3 94.7 60.3 C92.1 65.3 82.5 78 79.9 80.3 C76.4 83.4 71.5 86.4 67.9 88.5 C62.3 91.8 46 95 35.4 89.9 C31.5 88 25.1 85.8 20.9 82.2 C13.5 75.9 8.9 67.7 7 65.7 C4 62.7 1.8 55.5 2.5 50.3 C3.2 45.1 5.4 35.1 8.2 28.4 z" id="g1" fill="#342520" /><path d="M88.9 69.3 C87.1 71.9 85.2 74.6 83.6 76.7 C82.3 78.2 81.1 79.5 80.2 80.5 C79.9 80.8 79.6 81.2 79.2 81.6 C75.8 84.3 71.3 86.7 68.2 88.6 C62.6 91.8 46 95 35.4 89.9 C31.8 88.2 26.1 86.1 21.9 83 C21 82.2 20 81.4 19 80.5 C18.5 80 18 79.5 17.5 79 L14.9 76.1 C13 73.9 11.4 71.7 10.1 69.9 C9.3 68 8.6 65.7 8.1 63.2 C7.1 58 7.9 53.8 10.3 49.9 C11.7 47.6 14.6 45.6 18.9 43.8 C18.6 47.5 18.6 49.9 18.8 50.8 C20.2 56.9 23.9 61.2 30.3 59.2 C32.2 58.6 34.7 51 48.6 51 C62.5 51 62.5 57.9 68.7 59.7 C74.9 61.5 78.8 56.3 80.6 51.3 C82.4 46.3 80.5 43.1 80.1 42.6 C79.7 42.1 86.2 44 89.2 49 C92.2 54 92.5 57.7 90.4 64.5 C89.9 66.5 89.3 68.1 88.9 69.3 z" id="h1" fill="#7B4C3A" /><path d="M8.2 28.4 C11 21.7 15.7 17.3 19.3 12.7 C22.9 8.1 31.7 5.6 37.3 4.5 C41.1 3.8 45.5 4.2 50.5 5.5 C52.6 4.5 55.6 4.2 59.5 4.5 C66.7 4.5 74.5 9 78.8 11.8 C83 14.6 91 25 93 28.4 C95 31.8 96.7 39.1 97.3 42.7 C97.9 46.3 97.3 55.3 94.7 60.3 C92.1 65.3 82.5 78 79.9 80.3 C76.4 83.4 71.5 86.4 67.9 88.5 C62.3 91.8 46 95 35.4 89.9 C31.5 88 25.1 85.8 20.9 82.2 C13.5 75.9 8.9 67.7 7 65.7 C4 62.7 1.8 55.5 2.5 50.3 C3.2 45.1 5.4 35.1 8.2 28.4 z M10.1 28.4 C7.4 34.9 5.3 44.5 4.6 49.5 C3.9 54.5 6 61.4 8.9 64.3 C10.7 66.2 15.2 74.1 22.2 80.1 C26.2 83.6 32.3 85.8 36.1 87.5 C46.3 92.4 61.9 89.3 67.2 86.1 C70.6 84.1 75.3 81.2 78.7 78.2 C81.2 76 90.4 63.7 92.9 58.9 C95.4 54.1 96 45.4 95.4 42 C94.8 38.5 93.2 31.5 91.2 28.3 C89.2 25.1 81.6 15.1 77.6 12.4 C73.6 9.7 66.1 5.4 59.2 5.4 C55.5 5.1 52.6 5.5 50.6 6.4 C45.8 5.1 41.6 4.7 37.9 5.4 C32.5 6.4 24.1 8.8 20.7 13.3 C17.3 17.8 12.8 21.9 10.1 28.4 z" opacity="0.15" id="i1" /><path d="M32.7 10.5 C38.2 13.7 42.7 17.2 45.6 23.9 C48.5 30.6 47.2 33.2 49.4 33.2 C51.6 33.2 51.1 28.5 53.1 23.9 C55.1 19.3 60.7 14.2 66.5 10.5 C67.2 10 63.6 8.3 60.1 8.4 C56.9 8.6 52.2 10.5 50 10.5 C48 10.5 45 8.8 40.7 8.4 C34.9 7.9 29.5 8.7 32.7 10.5 z" id="j1" fill="#FAF4E8" /></g></g><g transform="translate(96.70002, 81.39996) translate(21, 2)" id="k1"><g transform="translate(18.02073, 23.28844) scale(-1, 1) rotate(-6, 0, 0) translate(-18.02073, -23.28844) translate(2.520727, 1.788439)" id="l1"><path d="M1.7 25.8 C-1.9 23.8 -2.7 23.7 -1.4 20.5 C-0.1 17.3 2.4 17.8 5 15.3 C7.6 12.8 13.5 8.6 17.4 6.7 C21.3 4.8 23.7 2.5 25.7 4.7 C27.7 6.9 29.1 12.8 28 18.9 C26.9 25 23.5 30.4 23.1 33.3 C22.7 36.2 21.9 40.6 20.2 42.9 C19.7 43.6 18.2 45.3 17.3 45.8 C15.4 46.7 14 44.9 12.6 41.3 C12.3 40.4 10.5 34.3 8.6 32.4 C6.3 29.9 5.4 27.8 1.7 25.8 z" id="m1" fill="#342520" /><path d="M1.7 25.8 C-1.9 23.8 -2.7 23.7 -1.4 20.5 C-0.1 17.3 2.4 17.8 5 15.3 C7.6 12.8 13.5 8.6 17.4 6.7 C21.3 4.8 23.7 2.5 25.7 4.7 C27.7 6.9 29.1 12.8 28 18.9 C26.9 25 23.5 30.4 23.1 33.3 C22.7 36.2 21.9 40.6 20.2 42.9 C19.7 43.6 18.2 45.3 17.3 45.8 C15.4 46.7 14 44.9 12.6 41.3 C12.3 40.4 10.5 34.3 8.6 32.4 C6.3 29.9 5.4 27.8 1.7 25.8 z M3.9 24.6 C7.2 26.4 8 28.3 10 30.5 C11.7 32.2 13.3 37.7 13.6 38.5 C14.8 41.7 16.1 43.4 17.8 42.5 C18.6 42.1 19.9 40.5 20.4 39.9 C21.9 37.8 22.6 33.9 23 31.3 C23.4 28.7 26.4 23.8 27.4 18.3 C28.4 12.8 27.1 7.5 25.4 5.5 C23.6 3.5 21.5 5.6 18 7.3 C14.5 9 9.3 12.8 6.9 15 C4.5 17.2 2.4 16.8 1.2 19.7 C0 22.6 0.7 22.8 3.9 24.6 z" opacity="0.15" id="n1" /><path d="M5.7 24.6 C3.7 23.6 2.3 23 3.3 20.4 C3.9 18.9 7.5 16.8 10.9 14.2 C13.3 12.3 16.2 10.3 18 9.3 C20.6 7.8 21.8 6.3 23.5 7.6 C25.1 8.9 26.5 14.5 25.7 19.2 C24.9 24 20 35.8 18.7 37.6 C17.4 39.4 16.1 42.4 14.5 38.2 C12.9 34 12.6 31.4 10.9 29.6 C9.2 27.8 7.7 25.6 5.7 24.6 z" id="o1" fill="#7B4C3A" /><path d="M8.2 26.4 C8.3 25.4 9.1 23.7 9.3 23.3 C9.6 22.7 12.3 21.1 14.6 19.7 C15.6 19 18.6 17.4 18.6 17.4 C20.2 16.5 20.1 19.9 18.6 22.6 C17.7 24.2 15.1 29.9 13.3 31.6 C12.7 32.2 12.2 31.1 11 29.5 C9.9 28.1 8.1 26.8 8.2 26.4 z" opacity="0.5" id="p1" fill="#342520" /></g></g><g transform="translate(96.69999, 81.39996) translate(100.9, 24.5) scale(-1, 1) translate(-100.9, -24.5) translate(82.40002, 0)" id="q1"><g transform="translate(18.19189, 24.4854) scale(-1, 1) rotate(-7, 0, 0) translate(-18.19189, -24.4854) translate(2.691893, 2.485396)" id="r1"><path d="M5.4 26.9 C1.8 24.9 1 24.8 2.3 21.6 C3.6 18.4 6.1 18.9 8.7 16.4 C11.3 13.9 17.2 9.7 21.1 7.8 C25 5.9 27.4 3.6 29.4 5.8 C31.4 8 32.8 14 31.7 20.1 C30.7 26.2 27.1 31.6 26.8 34.5 C26.4 37.4 25.6 41.8 23.9 44.1 C23.4 44.8 21.9 46.5 21 47 C19.1 47.9 18.5 47.3 17.1 43.7 C16.8 42.8 17 42 16.7 41.2 C15.3 37.5 14.2 35.4 12.3 33.5 C9.9 31.1 9 29 5.4 26.9 z" id="s1" fill="#342520" /><path d="M5.4 26.9 C1.8 24.9 1 24.8 2.3 21.6 C3.6 18.4 6.1 18.9 8.7 16.4 C11.3 13.9 17.2 9.7 21.1 7.8 C25 5.9 27.4 3.6 29.4 5.8 C31.4 8 32.8 14 31.7 20.1 C30.7 26.2 27.1 31.6 26.8 34.5 C26.4 37.4 25.6 41.8 23.9 44.1 C23.4 44.8 21.9 46.5 21 47 C19.1 47.9 18.5 47.3 17.1 43.7 C16.8 42.8 17 42 16.7 41.2 C15.3 37.5 14.2 35.4 12.3 33.5 C9.9 31.1 9 29 5.4 26.9 z M7.1 25.9 C10.4 27.8 11.2 29.8 13.4 32 C15.1 33.8 16.2 35.7 17.4 39.1 C17.7 39.8 17.5 40.6 17.8 41.4 C19.1 44.7 19.6 45.3 21.4 44.4 C22.2 43.9 23.6 42.4 24.1 41.7 C25.7 39.6 26.4 35.5 26.8 32.8 C27.1 30.1 30.4 25.1 31.3 19.5 C32.3 13.9 31 8.3 29.2 6.3 C27.4 4.3 25.2 6.4 21.6 8.1 C18 9.8 12.6 13.7 10.2 16 C7.8 18.3 5.5 17.8 4.3 20.8 C3.1 23.8 3.8 24.1 7.1 25.9 z" opacity="0.15" id="t1" /><path d="M9.4 25.7 C7.4 24.7 6 24.1 7 21.5 C7.6 20 11.2 17.9 14.6 15.3 C17 13.4 19.9 11.4 21.7 10.4 C24.3 8.9 25.5 7.4 27.2 8.7 C28.8 10 30.2 15.6 29.4 20.3 C28.6 25.1 23.7 36.9 22.4 38.7 C21.1 40.5 19.8 43.5 18.2 39.3 C16.6 35.1 16.3 32.5 14.6 30.7 C12.9 29 11.4 26.8 9.4 25.7 z" id="u1" fill="#7B4C3A" /><path d="M11.5 26.9 C11.6 25.9 12.8 24.9 13 24.5 C13.3 23.9 16 22.3 18.3 20.9 C19.3 20.2 22.3 18.6 22.3 18.6 C23.9 17.7 23.8 21.1 22.3 23.8 C21.4 25.4 18.8 31.1 17 32.8 C15.8 33.9 14.9 30.4 14.4 30.5 C13.3 28.9 11.4 27.8 11.5 26.9 z" opacity="0.5" id="v1" fill="#342520" /></g></g><g transform="translate(169.8, 172.5) scale(0.9) translate(-169.8, -172.5)" id="w1"><g transform="translate(102.5, 113.5) translate(42, 3)" id="x1"><path d="M49.9 76.8 C49.7 75.5 49.3 74.2 48.8 72.8 C47.8 70.2 46 67.8 43.8 65.3 C43 63.2 42.2 60.6 40.1 56.4 C38.2 52.7 32.7 53.1 30.1 47.3 C28.8 42 28.2 36.5 28.4 31.1 C28.4 30.4 28.5 29.6 28.4 28.9 C28.6 18.6 28.7 14.3 34.2 10 C36.3 8.4 39.1 8.4 39.2 6.8 C39.5 2.4 30.6 0.9 25.1 0.7 C19.5 0.9 10.6 2.4 11 6.8 C11.1 8.4 13.9 8.4 16 10 C21.5 14.3 21.6 18.6 21.8 28.9 C21.8 29.6 21.8 30.4 21.8 31.1 C22 36.6 21.4 42 20.1 47.3 C17.5 53.1 12.1 52.7 10.1 56.4 C8 60.6 7.1 63.2 6.4 65.3 C4.2 67.8 2.3 70.1 1.4 72.8 C0.9 74.2 0.5 75.5 0.3 76.8 C1.2 93.2 11.8 94.6 25.1 94 C38.3 94.6 48.9 93.2 49.9 76.8 z" id="y1" fill="#FAF4E7" /><path d="M49.9 76.8 C48.9 93.2 38.3 94.6 25.1 94 C11.8 94.6 1.2 93.2 0.3 76.8 C0.5 75.5 0.9 74.2 1.4 72.8 C2.3 70.1 4.2 67.8 6.4 65.3 C7.1 63.2 8 60.6 10.1 56.4 C12.1 52.7 17.5 53.1 20.1 47.3 C21.4 42 22 36.6 21.8 31.1 C21.8 30.4 21.8 29.6 21.8 28.9 C21.6 18.6 21.5 14.3 16 10 C13.9 8.4 11.1 8.4 11 6.8 C10.6 2.4 19.5 0.9 25.1 0.7 C30.6 0.9 39.5 2.4 39.2 6.8 C39.1 8.4 36.3 8.4 34.2 10 C28.7 14.3 28.6 18.6 28.4 28.9 C28.5 29.6 28.4 30.4 28.4 31.1 C28.2 36.5 28.8 42 30.1 47.3 C32.7 53.1 38.2 52.7 40.1 56.4 C42.2 60.6 43 63.2 43.8 65.3 C46 67.8 47.8 70.2 48.8 72.8 C49.3 74.2 49.7 75.5 49.9 76.8 z M47.2 71.2 C46.2 68.7 44.3 66.5 42.2 64.1 C41.4 62.1 40.9 60.6 38.9 56.6 C37.1 53.1 31.3 52.6 28.8 47.1 C27.6 42 27.8 29.4 27.7 29 C27.9 19.2 28 14 33.3 9.9 C35.3 8.4 38.3 7.9 38.4 6.4 C38.9 3.2 30.4 1.2 25.2 1 C19.9 1.2 11.8 2.2 12.2 6.4 C12.4 8 15 8.5 17 10.1 C22.2 14.2 22 19.2 22.2 29 C22.2 29.7 22.5 43.6 20.6 47.9 C18.1 53.4 13.1 52.7 11.2 56.2 C9.2 60.2 8.3 62.2 7.6 64.2 C8.3 66.2 3.9 68.8 3 71.3 C2.5 72.6 2 73.6 1.8 74.8 C2.7 90.4 12.4 91.5 25.1 90.9 C37.7 91.5 47.7 91.5 48.7 75.9 C48.5 74.6 47.7 72.6 47.2 71.2 z" opacity="0.15" id="z1" /></g><g transform="translate(98.20002, 91.09998) translate(65, 102)" id="a2"><path d="M3.7 6.8 C3.2 7 2.7 7.2 2.1 7.5 C1.3 7.8 0.3 8.3 -0.8 9 C-0.2 10.8 2.2 11.7 6.4 11.6 C10.6 11.5 12.9 10.7 13.4 9 C11.9 8.2 10.8 7.6 10 7.3 C9.6 7.2 9.4 7.1 9.2 7 C9.6 7 9.7 7 9.5 7 C8.6 7 7.1 5.3 7.1 3.7 C7.1 2.1 5.6 2.2 5.5 3.7 C5.6 4.7 5 5.7 3.7 6.8 z" id="b2" /></g><g transform="translate(108, 112.6) translate(50, 68)" id="c2"><g id="d2"><path d="M10.5 0.5 C14.7 0.5 20.6 1.4 20.7 4.9 C20.8 8.4 20.2 12.6 16 15 C11.8 17.4 7.7 17 4.1 14 C0.9 10.3 0.6 8.5 0.6 5 C0.6 1.5 6.1 0.5 10.5 0.5 z" id="e2" fill="#424242" /><path d="M4.6 2.8 C4.6 4 8.1 4.4 10.6 4.5 C13.1 4.6 15.3 4.3 16.7 3.7 C18.1 3.2 18.6 1.5 13 1.5 C7.5 1.5 4.6 1.6 4.6 2.8 z" id="f2" fill="#FFF" /></g></g><g transform="translate(-288.1, 76.39996) translate(43, 64)" id="g2"><path d="M402.1 16.9 C403.3 14.6 402.9 13.9 402.9 12.1 C402.9 10.3 402.7 8.4 400.1 7 C396.5 5.3 392.3 5.2 389.8 6.5 C386.4 8.3 383.6 10 384.3 11.5 C385.1 13.2 388 17.1 389.4 17.9 C392.1 19.5 396.1 20.2 398.2 19.7 C399.8 19.3 401.2 18.7 402.1 16.9 z" id="h2" fill="#CAC3C0" /><path d="M401.2 18.1 C402 17.4 401.6 14.8 401.2 13.6 C400.7 12.5 399.2 10.9 397 10.3 C394.1 9.6 393.6 9.7 391.1 10 C389.8 10.1 388.6 9.9 388.2 10.6 C387.6 11.3 387.5 12.5 387.9 13.6 C388.3 14.7 388.4 15.3 389.1 16.1 C389.8 17 390.7 17.7 391.3 18.1 C393.5 19.3 396.8 19.9 398.5 19.5 C399.7 19.2 400.4 18.8 401.2 18.1 z" id="i2" fill="#1F2123" /><path d="M396 16.2 C394.9 16.2 393.9 15.3 393.9 14.2 C393.8 13.1 394 12.5 395 12.7 C395.9 12.8 396.6 12.9 396.9 13.1 C397.8 13.5 397.8 13.2 397.9 14.1 C398 14.5 397.9 14.8 397.8 15 C397.5 15 397 14.7 396.3 14.4 C396.5 15.2 396.6 15.7 396.7 16.1 C396.3 16.3 396.4 16.2 396 16.2 z" id="j2" fill="#FFF" /></g><g transform="translate(-284.7, 76.39996) translate(82, 64)" id="k2"><path d="M384.3 16.9 C383.1 14.6 383.5 13.9 383.5 12.1 C383.5 10.3 383.7 8.4 386.3 7 C389 5.6 392.8 5.6 396.6 6.5 C400.4 7.4 402.8 10 402.1 11.5 C401.3 13.2 398.4 17.1 397 17.9 C394.3 19.5 390.3 20.2 388.2 19.7 C386.6 19.3 385.2 18.7 384.3 16.9 z" id="l2" fill="#CAC3C0" /><path d="M385.2 18.1 C384.4 17.4 384.8 14.8 385.2 13.6 C385.7 12.5 387.2 10.9 389.4 10.3 C392.3 9.6 392.8 9.7 395.3 10 C396.6 10.1 397.8 9.9 398.2 10.6 C398.8 11.3 398.9 12.5 398.5 13.6 C398.1 14.7 398 15.3 397.3 16.1 C396.6 17 395.7 17.7 395.1 18.1 C392.9 19.3 389.6 19.9 387.9 19.5 C386.7 19.2 386 18.8 385.2 18.1 z" id="m2" fill="#1F2123" /><path d="M390.4 16.2 C391.5 16.2 392.5 15.3 392.5 14.2 C392.6 13.1 392.4 12.5 391.4 12.7 C390.5 12.8 389.8 12.9 389.5 13.1 C388.6 13.5 388.6 13.2 388.5 14.1 C388.4 14.5 388.5 14.8 388.6 15 C388.9 15 389.4 14.7 390.1 14.4 C389.9 15.2 389.8 15.7 389.7 16.1 C390.1 16.3 390 16.2 390.4 16.2 z" id="n2" fill="#FFF" /></g></g></g></g></g><defs><g transform="translate(17.09519, 0.800995) translate(-135.2952, -293.601)" id="o2" fill="#000"><path d="M118.2 302.7 C118.4 307.4 132.5 311.2 149.8 311.2 C167.1 311.2 181.2 307.4 181.4 302.7 C181.4 307.5 181.4 310.1 181.4 310.5 C181.4 315.3 167.3 319.1 149.8 319.1 C132.3 319.1 118.2 315.2 118.2 310.5 L118.2 302.7 L118.2 302.7 z" fill-opacity="0.4528" id="p2" fill="#593001" /><path d="M118.7 301.7 C118.9 306.4 133 310.2 150.3 310.2 C167.6 310.2 181.7 306.4 181.9 301.7 C181.9 306.5 181.9 309.1 181.9 309.5 C181.9 314.3 167.8 318.1 150.3 318.1 C132.8 318.1 118.7 314.2 118.7 309.5 L118.7 301.7 L118.7 301.7 z" id="q2" fill="#DA8113" /><linearGradient x1="46.0545" y1="-118.6926" x2="45.4656" y2="-118.6926" gradientUnits="userSpaceOnUse" gradientTransform="matrix(117.135, 0, 0, 28.4634, -5208.417, 3687.795)" id="r2"><stop offset="0%" stop-color="#D9952A" stop-opacity="1" /><stop offset="6.438854%" stop-color="#CA7519" stop-opacity="1" /><stop offset="30.54%" stop-color="#E3AD3A" stop-opacity="1" /><stop offset="51.05%" stop-color="#FFEC91" stop-opacity="1" /><stop offset="68.8%" stop-color="#E9BD44" stop-opacity="1" /><stop offset="86.24%" stop-color="#FFED6C" stop-opacity="1" /><stop offset="93.87%" stop-color="#F2D353" stop-opacity="1" /><stop offset="100%" stop-color="#F2B947" stop-opacity="1" /></linearGradient><path d="M118.2 301.6 C118.4 306.1 132.7 309.7 150.3 309.7 C167.9 309.7 182.2 306.1 182.4 301.6 C182.4 306.2 182.4 308.7 182.4 309 C182.4 313.5 168 317.2 150.3 317.2 C132.6 317.2 118.2 313.5 118.2 309 L118.2 301.6 L118.2 301.6 z" id="s2" style="fill:url(#r2)" /><linearGradient x1="45.4914" y1="-117.9547" x2="45.9407" y2="-117.5895" gradientUnits="userSpaceOnUse" gradientTransform="matrix(115.425, 0, 0, 29.925, -5125.077, 3826.124)" id="t2"><stop offset="0%" stop-color="#F4E072" stop-opacity="1" /><stop offset="100%" stop-color="#DB9427" stop-opacity="1" /></linearGradient><ellipse cx="150.3" cy="301.5" rx="31.6" ry="8.2" id="u2" style="fill:url(#t2)" /><linearGradient x1="45.4656" y1="-126.0065" x2="46.0545" y2="-126.0065" gradientUnits="userSpaceOnUse" gradientTransform="matrix(117.135, 0, 0, 18.6219, -5208.417, 2651.479)" id="v2"><stop offset="0%" stop-color="#D9952A" stop-opacity="1" /><stop offset="6.438854%" stop-color="#CA7519" stop-opacity="1" /><stop offset="30.54%" stop-color="#E3AD3A" stop-opacity="1" /><stop offset="51.05%" stop-color="#FFEC91" stop-opacity="1" /><stop offset="68.8%" stop-color="#E9BD44" stop-opacity="1" /><stop offset="86.24%" stop-color="#FFED6C" stop-opacity="1" /><stop offset="93.87%" stop-color="#F2D353" stop-opacity="1" /><stop offset="100%" stop-color="#F2B947" stop-opacity="1" /></linearGradient><path d="M119.2 299.9 C119 300.2 118.9 300.6 118.9 301 C118.9 305.5 132.9 309.2 150.3 309.2 C167.7 309.2 181.7 305.5 181.7 301 C181.7 300.6 181.6 300.3 181.4 299.9 C182 300.5 182.4 301.2 182.4 301.9 C182.4 306.4 168 310.1 150.3 310.1 C132.6 310.1 118.2 306.4 118.2 301.9 C118.2 301.3 118.6 300.6 119.2 299.9 z" id="w2" style="fill:url(#v2)" /><linearGradient x1="45.196" y1="-121.5895" x2="45.3746" y2="-120.6758" gradientUnits="userSpaceOnUse" gradientTransform="matrix(101.745, 0, 0, 23.94, -4458.332, 3199.41)" id="x2"><stop offset="0%" stop-color="#F8DD61" stop-opacity="1" /><stop offset="100%" stop-color="#EAA330" stop-opacity="1" /></linearGradient><ellipse cx="150.3" cy="300.8" rx="27.8" ry="6.6" id="y2" style="fill:url(#x2)" /><linearGradient x1="45.5694" y1="-134.267" x2="45.0221" y2="-134.267" gradientUnits="userSpaceOnUse" gradientTransform="matrix(101.745, 0, 0, 13.2525, -4458.332, 2077.223)" id="z2"><stop offset="0%" stop-color="#F4CA2F" stop-opacity="1" /><stop offset="51.38%" stop-color="#BF7737" stop-opacity="1" /><stop offset="100%" stop-color="#E4A929" stop-opacity="1" /></linearGradient><path d="M122.6 301.5 C122.5 301.3 122.4 301 122.4 300.8 C122.4 297.2 134.9 294.2 150.2 294.2 C165.5 294.2 178 297.1 178 300.8 C178 301 177.9 301.3 177.8 301.5 C176.3 298.2 164.5 295.6 150.1 295.6 C135.7 295.6 124.1 298.2 122.6 301.5 z" id="a3" style="fill:url(#z2)" /></g></defs><desc>4H5HEED7O4B,Zy+XbvYpVfLbAFFcF5cLpq7LXjWFwdgAwXxNKCyW2Vo1RnaaNYMBQmS41wNOLJQ4f74D8TgRP7mvyAoFCSLmFmgeHD5YOw/AOFci+TqOh6nauN0rXONiZJRiWcVf5Jkc</desc></svg>