<?xml version="1.0" encoding="utf-8"?><!DOCTYPE svg PUBLIC "-//W3C//DTD SVG 1.1//EN" "http://www.w3.org/Graphics/SVG/1.1/DTD/svg11.dtd"><svg x="0" y="0" width="340px" height="340px" viewBox="0, 0, 340, 340" preserveAspectRatio="xMidYMid" font-size="0" id="a" enable-background="new 0 0 340 340" xmlns="http://www.w3.org/2000/svg" xmlns:xlink="http://www.w3.org/1999/xlink" xmlns:xml="http://www.w3.org/XML/1998/namespace" version="1.1"><g id="b" fill="#000"><g id="c"><g transform="translate(0, 0) translate(0, 224)" id="d"><ellipse cx="168.6" cy="53.1" rx="57.8" ry="12.8" fill-opacity="0.25" id="e" /></g><g id="f"><g transform="translate(106.5, 116) translate(0, 122)" id="g"><g id="h"><path d="M37.2 31.3 C12.9 30.6 2.2 26.6 0.8 19.3 C0 15.1 -0.4 9.5 0.8 6.5 C2.8 1.8 7.8 0.9 9.2 0.7 C11.4 0.3 13.8 1.1 16.3 3.1 C16.9 3.7 17.2 4.6 17.3 5.9 C17.3 7.7 18.4 8.8 15.8 9.1 C13.3 9.5 11.8 7.1 10.3 7.3 C8.8 7.5 8.3 9.9 8.3 10.8 C8.3 11.7 7.9 13.8 10.8 15.2 C12.8 16.1 26.9 18.4 37.1 19.7 L37.2 31.3 z" id="i" fill="#171B24" /><path d="M8.7 1.6 C10.1 1 12.4 0.6 16.3 2.9 C17.6 3.8 18.2 5.1 18.2 6.7 C18.2 7.6 17.8 10 15.4 9.8 C13 9.6 11.8 7.5 10.3 7.8 C9.3 8 8.6 9 8.3 11 C8.3 13 9.3 14.4 11.2 15.2 C13.1 16 25.3 18.6 35.6 19.6 C36.9 23.3 35.1 25.6 34.4 25.6 C32.9 25.6 15.5 23.4 9.9 20.2 C4.2 17 4.5 15.8 3.7 10.4 C2.9 4.8 7.8 2 8.7 1.6 z" id="j" fill="#232733" /><path d="M15.2 2.3 C15.5 2.5 15.9 2.7 16.3 2.9 C17.6 3.8 18.2 5.1 18.2 6.7 C18.2 7.6 17.8 10 15.4 9.8 C13 9.6 11.8 7.5 10.3 7.8 C9.3 8 8.6 9 8.3 11 C8.3 13 9.3 14.4 11.2 15.2 C11.8 15.4 13.2 15.8 15.2 16.3 C20.6 17.4 29.9 18.8 37.1 19.7 L37.2 31.3 C12.9 30.6 2.2 26.6 0.8 19.3 C0 15.1 -0.4 9.5 0.8 6.5 C2.8 1.8 7.8 0.9 9.2 0.7 C11.1 0.4 13.1 0.9 15.2 2.3 z M17.7 5.9 C17.7 4.9 17 4 15.7 3.1 C13.7 1.8 11.7 0.5 10 0.8 C8.6 1.1 4 1.9 2.2 6.2 C1.1 9 1.5 14.2 2.2 18 C3.5 24.7 13.4 28.4 35.8 29.1 L35.8 20.7 C29.1 19.8 21.3 18.7 16.3 17.7 C14.5 17.3 10.8 16.1 10.3 15.9 C8.5 15.2 7.8 14.2 7.8 10.8 C8 9 9.1 7.1 10.6 7.1 C12 7.1 13.4 9.1 15.6 9.3 C17.8 9.5 17.7 6.8 17.7 5.9 z" opacity="0.15" id="k" /></g></g><g transform="translate(130.8733, 273.3) scale(0.9738561) translate(-127.7, -273.3) translate(101.5, 90.89996) translate(15, 110)" id="l"><g transform="translate(23, 36) scale(-1, 1) translate(-23, -36)" id="m"><path d="M-1.4 45.3 C0.8 26.6 11.7 11.6 13.3 7.8 C15 3.9 23 -0.6 26.9 14.5 C28.4 20.4 31 23.9 32.4 29.9 C34.6 39.4 35.2 51.3 34.9 59.2 C34.7 63.6 28.7 73.3 26.1 73.3 C18.5 73.3 9.7 75.5 7.2 72.1 C3.3 66.9 -3.6 63.9 -1.4 45.3 z" id="n" fill="#171B24" /><path d="M36.4 60.6 C38 61.6 43.4 64.4 43.7 68.7 C44 73 44 74.4 41 75 C38 75.6 35.1 75.9 32.7 75.5 C30.5 75.1 28.5 73.5 26.9 73.5 C23.7 73.5 24.9 73.5 23.3 73.5 C22.8 68.5 25.7 65.4 26.9 64.1 C28.1 62.8 34.8 59.6 36.4 60.6 z" id="o" fill="#0E1116" /><path d="M34.7 60.5 C35.4 60.4 36 60.4 36.4 60.6 C38 61.6 43.4 64.4 43.7 68.7 C44 73 44 74.4 41 75 C38 75.6 35.1 75.9 32.7 75.5 C30.5 75.1 28.5 73.5 26.9 73.5 L23.3 73.5 L23.3 73.4 C16.5 73.8 9.4 75.1 7.2 72.1 C3.3 66.9 -3.6 63.9 -1.4 45.3 C0.8 26.6 11.7 11.6 13.3 7.8 C15 3.9 23 -0.6 26.9 14.5 C28.4 20.4 31 23.9 32.4 29.9 C34.6 39.4 35.2 51.3 34.9 59.2 C34.9 59.6 34.8 60 34.7 60.5 z M32.6 61.3 C33 57.3 33.2 55.1 33.2 54.9 C33.5 47.5 33.8 39.4 31.7 30.5 C30.4 24.9 27.9 21.6 26.5 16.1 C22.9 1.9 15.4 6.1 13.8 9.8 C12.3 13.3 2 27.4 0 45 C-2.1 62.4 4.5 64 8.2 68.9 C10.3 71.7 16.8 71.7 23.2 71.5 L26.6 71.5 C28.1 71.5 30 73 32 73.4 C34.3 73.8 37 73.5 39.8 72.9 C42.6 72.3 42 72 41.7 68 C41.4 64 36.5 62.3 35 61.4 C34.6 61.1 33.3 61.2 32.6 61.3 z" opacity="0.15" id="p" /></g></g><g transform="translate(209.0266, 273.3) scale(0.9738561) translate(-212.2, -273.3) translate(93.7, 90.69997) translate(102.5, 145) scale(-1, 1) translate(-102.5, -145) translate(79, 108)" id="q"><g transform="translate(23.5, 37) scale(-1, 1) translate(-23.5, -37)" id="r"><path d="M2.6 48.8 C4.8 29.9 16.7 12.7 18.3 8.8 C20 4.9 28 0.3 31.9 15.7 C33.4 21.7 36 25.2 37.4 31.4 C39.6 41 40.2 53.1 39.9 61.1 C39.7 65.6 33.7 75.4 31.1 75.4 C23.5 75.4 14.7 77.6 12.2 74.2 C8.3 68.8 0.4 67.7 2.6 48.8 z" id="s" fill="#171B24" /><path d="M41.4 62.6 C43 63.6 48.4 66.4 48.7 70.7 C49 75 48.7 77.3 45.1 77.5 C41.5 77.7 39.9 78.1 37.6 77.8 C35.4 77.4 33.7 75.5 32.1 75.5 C28.9 75.5 30.1 75.5 28.5 75.5 C28 70.5 30.9 68.1 32.6 65.9 C33 64.9 39.8 61.6 41.4 62.6 z" id="t" fill="#0E1116" /><path d="M41.4 62.6 C43 63.6 48.4 66.4 48.7 70.7 C49 75 48.7 77.3 45.1 77.5 C41.5 77.7 39.9 78.1 37.6 77.8 C35.4 77.4 33.7 75.5 32.1 75.5 L28.5 75.5 C21.6 75.8 14.4 77.2 12.2 74.2 C8.3 68.8 0.4 67.7 2.6 48.8 C4.8 29.9 16.7 12.7 18.3 8.8 C20 4.9 28 0.3 31.9 15.7 C33.4 21.7 36 25.2 37.4 31.4 C39.6 41 40.2 53.1 39.9 61.1 C39.9 61.5 39.8 62 39.7 62.5 C40.4 62.4 41 62.4 41.4 62.6 z M37.2 62.8 C37.6 60.8 38 58.6 38.4 56.2 C39 52.5 38.8 40 36.7 31 C35.4 25.2 32.9 21.9 31.5 16.2 C27.9 1.8 20.3 6.1 18.7 9.8 C17.2 13.4 6 29.6 4 47.4 C2 65.2 9.4 66.2 13 71.3 C15.1 74.1 21.8 72.8 28.3 72.5 L31.7 72.5 C33.2 72.5 34.8 74.3 36.9 74.7 C39.1 75 40.6 74.6 44 74.4 C47.4 74.2 46.9 73.4 46.6 69.4 C46.3 65.4 42.3 64.6 40.8 63.7 C40.4 63.4 37.9 62.7 37.2 62.8 z" opacity="0.15" id="u" /></g></g><g transform="translate(91.50001, 85.89998) translate(37, 51)" id="v"><g transform="translate(3, 0)" id="w"><path d="M61 19.7 C61 35.9 63.7 34.2 65.4 38.8 C67.1 43.4 74 52.4 75.2 65.1 C76.4 77.8 75.8 91.7 71.8 103.4 C67.8 115.1 70.7 136.2 61.1 138.9 C60.8 139 29.3 142 17.6 138.9 C5.5 135.7 11.4 122.7 6.1 105.5 C0.8 88.3 -0.2 79.6 0.1 65.1 C0.4 50.6 10.3 43.5 12.1 38.7 C13.9 33.9 16.2 32 16.2 19.6 C16.2 7.2 24.2 0.2 41.6 0.7 C46.8 0.9 61 3.4 61 19.7 z" id="x" fill="#232733" /><path d="M61 19.7 C61 35.9 63.7 34.2 65.4 38.8 C67.1 43.4 74 52.4 75.2 65.1 C76.4 77.8 75.8 91.7 71.8 103.4 C67.8 115.1 70.7 136.2 61.1 138.9 C60.8 139 29.3 142 17.6 138.9 C5.5 135.7 11.4 122.7 6.1 105.5 C0.8 88.3 -0.2 79.6 0.1 65.1 C0.4 50.6 10.3 43.5 12.1 38.7 C13.9 33.9 16.2 32 16.2 19.6 C16.2 7.2 24.2 0.2 41.6 0.7 C46.8 0.9 61 3.4 61 19.7 z M60.2 20.5 C60.2 4.8 46.6 2.4 41.5 2.2 C24.6 1.7 16.9 8.5 16.9 20.4 C16.9 32.3 14.7 34.1 12.9 38.8 C11.2 43.5 1.7 50.4 1.4 64.3 C1.1 78.2 2 86.7 7.2 103.2 C12.4 119.7 6.6 132.4 18.2 135.4 C29.5 138.4 59.9 135.5 60.2 135.4 C69.5 132.8 66.8 112.4 70.5 101.2 C74.4 90 75 76.6 73.8 64.3 C72.6 52 65.9 43.3 64.4 38.9 C62.8 34.5 60.2 36.1 60.2 20.5 z" opacity="0.15" id="y" /></g></g><g transform="translate(128.3671, 162.08) scale(1.013108, 1.235228) translate(-128.9, -157.1) translate(109.9, 77.49997)" id="z"><path d="M27.3 124.6 C24.3 138.7 29.4 139.8 32.1 151.3 C33.9 158.9 35.4 165.1 36.8 169.9 L48.9 167.7 C48.9 157.8 49.6 152 51 150.1 C53.2 147.3 55.7 147.2 56.8 143.3 C57.5 140.7 56.8 133.5 54.9 127.7 C53.8 124.1 47.6 121.9 45.2 120.8 C40 118.4 35.5 118.8 31.3 114.2 C29.9 112.5 28.1 121.7 27.3 124.6 z" id="a1" fill="#464854" /><path d="M48.9 158.7 C48.9 161.5 50.4 172.2 48.9 174.2 C47.4 176.2 45.2 177.1 43.2 177.4 C41.2 177.7 34.7 177.3 32.5 177.7 C30.2 178.1 27 174.6 27 172.7 C27 170.8 27.3 165.9 30.4 164.7 C33.5 163.5 26 164.6 35.5 163.3 C36.2 163.2 35.2 157.5 36.1 158.1 C36.6 158.4 39.3 165.3 39.6 164.7 C40.4 163.1 39.8 156.9 40.6 156.7 C41.9 156.4 43.7 161.4 45.5 162.2 C49.6 164 48.9 153.7 48.9 158.7 z" id="b1" fill="#F2E5D3" /><path d="M92 124.6 C95 138.7 89.9 139.8 87.2 151.3 C85.4 158.9 83.9 165.1 82.5 169.9 L70.4 167.7 C70.4 157.8 69.7 152 68.3 150.1 C66.1 147.3 64.5 147.9 63.5 144 C62.8 141.5 62.5 134.7 65 128.4 C66.4 124.9 71.3 122.5 73.8 121.3 C76.5 120.1 80.2 119.9 83.2 118 C85.9 116.3 87.4 111.8 88.9 115.4 C89.7 118.2 90.9 122 92 124.6 z" id="c1" fill="#464854" /><path d="M70.4 158.7 C70.4 161.5 68.9 172.2 70.4 174.2 C71.9 176.2 74.1 177.1 76.1 177.4 C78.1 177.7 84.6 177.3 86.8 177.7 C89.1 178.1 92.3 174.6 92.3 172.7 C92.3 170.8 92 165.9 88.9 164.7 C85.8 163.5 93.3 164.6 83.8 163.3 C83.1 163.2 84.1 157.5 83.2 158.1 C82.7 158.4 80 165.3 79.7 164.7 C78.9 163.1 79.5 156.9 78.7 156.7 C77.4 156.4 75.6 161.4 73.8 162.2 C69.7 164 70.4 153.7 70.4 158.7 z" id="d1" fill="#F2E5D3" /><path d="M31.6 114.5 C30.3 113.7 28.7 121.9 28 124.6 C25.1 138 30 139.1 32.6 150 C33.6 154.3 35.6 160.4 36.4 163.8 C28 164.9 34.3 164.4 31.4 165.5 C28.4 166.6 27.9 168.6 27.9 170.4 C27.9 172.2 30.7 175.5 32.9 175.1 C35 174.7 41.2 175.1 43.1 174.8 C45 174.5 46.4 174 47.8 172.1 C48.6 171.1 48.6 166.8 47.8 159.3 C48.1 153.7 49.5 150.2 50.5 148.8 C52.6 146.1 55 146 56 142.3 C56.7 139.8 56 133 54.2 127.4 C53.2 124 47.2 121.9 45 120.8 C40.1 118.6 35.9 118.9 32 114.8 C36 118.6 40.3 118.4 45.2 120.7 C47.6 121.8 53.8 124 54.9 127.6 C56.8 133.4 57.5 140.6 56.8 143.2 C55.7 147.1 53.2 147.2 51 150 C50 151.4 49.3 155 49 160.9 C49.3 165.1 50.1 172.4 48.9 174.1 C47.4 176.1 45.2 177 43.2 177.3 C41.2 177.6 34.7 177.2 32.5 177.6 C30.2 178 27 174.5 27 172.6 C27 170.7 27.3 165.8 30.4 164.6 C33.4 163.4 26.3 164.5 35 163.3 C34.1 159.8 33.1 155.8 32.1 151.2 C29.4 139.7 24.3 138.6 27.3 124.5 C28.1 121.6 29.9 112.4 31.3 114.1 C31.4 114.3 31.5 114.4 31.6 114.5 z" opacity="0.15" id="e1" /><path d="M85 116.4 C84.4 117.1 83.7 117.8 82.9 118.3 C80 120.1 76.5 120.3 73.9 121.4 C71.5 122.5 66.8 124.8 65.5 128.2 C63.1 134.2 63.4 140.7 64.1 143.1 C65.1 146.8 66.6 146.2 68.7 148.9 C69.7 150.3 70.9 154.3 71.1 160 C70.8 164 69.9 170.7 71.1 172.2 C72.5 174.1 74.2 174.6 76.1 174.9 C78 175.2 84.2 174.8 86.3 175.2 C88.5 175.6 91.3 172.3 91.3 170.5 C91.3 168.7 91.3 167.3 88.3 166.2 C85.4 165.1 91.2 165.8 82.9 164.6 L83.9 161.6 C84.8 158.2 85.7 154.4 86.7 150.1 C89.3 139.1 94.1 138.1 91.3 124.6 C90.3 122.1 89.1 118.5 88.3 115.8 C87.5 113.9 86.7 114.4 85.7 115.5 C87 114.1 87.9 113.1 88.8 115.4 C89.6 118.2 90.8 122 91.9 124.6 C94.9 138.7 89.8 139.8 87.1 151.3 C86 155.8 85.1 159.8 84.2 163.4 C93 164.6 85.8 163.6 88.8 164.7 C91.9 165.9 92.2 170.8 92.2 172.7 C92.2 174.6 89 178.1 86.7 177.7 C84.5 177.3 78 177.7 76 177.4 C74 177.1 71.8 176.2 70.3 174.2 C69.1 172.6 69.8 165.3 70.2 161 C69.9 155.1 69.3 151.5 68.2 150.1 C66 147.3 64.4 147.9 63.4 144 C62.7 141.5 62.4 134.7 64.9 128.4 C66.3 124.9 71.2 122.5 73.7 121.3 C76.4 120.1 80.1 119.9 83.1 118 C83.9 117.6 84.5 117 85 116.4 z" opacity="0.15" id="f1" /><path d="M20.3 98.1 C19 103.8 20.5 106.5 21.1 110 C21.5 112.3 22.5 115.5 24 119.6 L25.6 115.8 C26.7 120.6 27.9 123.8 29.1 125.5 C30.3 127.2 32 129.5 34 132.3 L34.7 127.7 C35.9 129.5 37.6 131.8 40 134.7 C42.4 137.5 43.2 138.9 42.6 138.9 L44.7 134.7 C46.3 137.4 47.8 139.5 49.3 140.8 C50.8 142.2 52.9 144 55.7 146.2 L55.7 141.7 C58 144.7 59.6 146.2 60.6 146.2 C61.6 146.2 63.3 144.7 65.9 141.7 L65.9 146.2 C72.8 141.3 76.5 137.9 76.9 136.1 C78.7 137.4 79.6 138.3 79.6 138.9 C81.2 137.4 82.4 135.6 83 133.6 C83.7 131.6 84.7 129.1 86 126.2 L87.7 129.4 C92 124.1 94.7 119.9 95.8 116.7 C97.5 112 100.3 100.3 97.5 92.3 C95.6 87.1 90.2 83.1 81.3 80.5 C67.3 80.5 59.4 80.5 57.5 80.5 C54.7 80.5 41.3 79.7 40 80.5 C39.3 80.9 33.2 80.3 26.5 86.3 C24 88.7 21.6 92.4 20.3 98.1 z" id="g1" fill="#FEFEFF" /><path d="M20.3 98.1 C19 103.8 20.5 106.5 21.1 110 C21.3 112.5 22.4 115.6 24 119.6 L25.6 115.8 C26.7 120.6 27.9 123.8 29.1 125.5 C30.3 127.2 32 129.5 34 132.3 L34.7 127.7 C35.9 129.5 37.6 131.8 40 134.7 C42.4 137.5 43.2 138.9 42.6 138.9 L44.7 134.7 C46.3 137.4 47.8 139.5 49.3 140.8 C50.8 142.2 52.9 144 55.7 146.2 L55.7 141.7 C58 144.7 59.6 146.2 60.6 146.2 C61.6 146.2 63.3 144.7 65.9 141.7 L65.9 146.2 C72.8 141.3 76.5 137.9 76.9 136.1 C78.7 137.4 79.6 138.3 79.6 138.9 C81.2 137.4 82.4 135.6 83 133.6 C83.7 131.6 84.7 129.1 86 126.2 L87.7 129.4 C92 124.1 94.7 119.9 95.8 116.7 C97.5 112 100.3 100.3 97.5 92.3 C95.6 87.1 90.2 83.1 81.3 80.5 C67.3 80.5 59.4 80.5 57.5 80.5 C54.7 80.5 41.3 79.7 40 80.5 C39.3 80.9 33.2 80.3 26.5 86.3 C24 88.7 21.6 92.4 20.3 98.1 z" fill-opacity="0.09629755" id="h1" fill="#010101" /><path d="M98.5 97 C98 102.2 96.7 107 95.8 109.7 C94.7 112.9 92 117.1 87.7 122.4 L86 119.2 C84.7 122.1 83.7 124.6 83 126.6 C82.4 128.6 80.4 125.1 78.8 126.6 C78.8 126 75.9 133.2 75.5 135 C75.1 136.8 72 134.7 70.4 129.8 L67.5 137.4 C64.9 140.4 62.5 133.8 61.5 133.8 C60.9 133.8 60.2 140.7 58.4 139.2 C57.2 138.2 54.2 134.4 53.3 133.2 L52.2 136.7 C49.4 134.5 48.5 129.9 46.9 127.2 L42.1 132.5 C42.6 132.5 39 127.9 38.4 127.2 C36 124.3 36 122.5 34.8 120.7 L34.1 125.3 C32.1 122.5 30.4 120.2 29.2 118.5 C28 116.8 26.8 113.6 25.7 108.8 L24.1 112.6 C22.6 108.5 21.6 105.3 21.2 103 C21 101.5 20.5 100.2 20.3 98.8 C20.3 98.6 20.4 98.3 20.4 98.1 C21.7 92.4 24.1 88.7 26.6 86.3 C33.3 80.3 39.4 80.9 40.1 80.5 C41.4 79.7 54.8 80.5 57.6 80.5 L81.3 80.5 C90.2 83.1 95.6 87.1 97.5 92.3 C98 93.8 98.3 95.4 98.5 97 z" id="i1" fill="#FEFEFF" /><path d="M20.4 97.7 C21.7 92.1 24.1 88.4 26.6 86.1 C33.3 80.2 39.4 80.8 40.1 80.4 C41.4 79.6 54.8 80.4 57.6 80.4 L81.3 80.4 C90.2 83 95.6 86.9 97.5 92 C98 93.5 98.3 95.1 98.5 96.6 C98.5 96.8 98.5 96.9 98.5 97.1 C99.5 104.5 97.3 113.2 95.8 117.1 C94.7 120.3 92 124.4 87.7 129.6 L86 126.4 C84.7 129.3 83.7 131.7 83 133.7 C82.4 135.7 81.2 137.5 79.6 138.9 C79.6 138.3 78.7 137.4 76.9 136.1 C76.5 137.9 72.8 141.2 65.9 146.1 L65.9 141.7 C63.3 144.7 61.6 146.1 60.6 146.1 C59.6 146.1 58 144.6 55.7 141.7 L55.7 146.1 C52.9 143.9 50.8 142.2 49.3 140.8 C47.8 139.5 46.3 137.4 44.7 134.8 L42.6 138.9 C43.2 138.9 42.4 137.5 40 134.8 C37.6 131.9 35.9 129.7 34.7 127.9 L34 132.4 C32 129.6 30.3 127.4 29.1 125.7 C27.9 124 26.7 120.9 25.6 116.1 L24 119.9 C22.4 116 21.3 112.9 21.1 110.4 C20.5 106.9 19 104.3 20.3 98.7 C20.3 98.2 20.4 97.9 20.4 97.7 z M28.6 86.7 C26.3 88.9 23.9 92.3 22.7 96.6 C21.3 101.9 21.5 105.8 22.1 109 C22.3 111.3 22.8 111.1 24.3 114.8 L25.5 113.8 C26.5 118.3 29.8 122.4 30.9 123.9 C32 125.5 31.5 125.1 33.4 127.7 L35.5 124.8 C36.6 126.5 38.9 129.7 41.1 132.4 C43.4 135 43.7 134.7 43.2 134.7 L45.3 131.8 C46.8 134.3 48.4 136.9 49.8 138.1 C51.2 139.4 52 140.5 54.6 142.5 L54.8 138.6 C57 141.4 59.5 143.1 60.4 143.1 C61.3 143.1 64.5 141.9 66.9 139.1 L66.9 142.6 C73.4 138.1 77.1 135.1 77.4 133.4 C79.1 134.6 79.8 135.7 79.8 136.3 C81.3 134.9 80.8 133.2 81.4 131.4 C82.1 129.5 84.1 126 85.3 123.3 L86.7 125.9 C90.7 121 92.4 118.7 93.5 115.7 C94.8 112.1 96.9 103.9 96 96.9 C96 96.8 96 96.6 96 96.5 C95.8 95 95.5 93.5 95.1 92.1 C93.3 87.3 88.2 83.6 79.9 81.2 L57.7 81.2 C55.1 81.2 42.5 80.5 41.3 81.2 C40.6 81.7 34.9 81.1 28.6 86.7 z" fill-opacity="0.09629755" id="j1" fill="#010101" /></g></g><g transform="translate(169.6, 173.6) scale(0.9673913) translate(-169.6, -173.6)" id="k1"><g transform="translate(110.2, 80.59998) translate(16, 0)" id="l1"><g id="m1"><g id="n1"><path d="M85.7 48.5 C85.7 48.2 85.7 48 85.7 47.7 C86.3 47.8 86.8 47.7 87.2 47.3 C86.5 45.6 85.8 43.8 85.3 42 C84.8 40.3 84.7 38.4 84.3 36.6 C85.1 36.8 85.9 37.2 86.6 37.8 C84.7 33.9 83.2 29.8 80.8 26.2 C79.1 23.7 75.2 19.9 73.8 18.8 C74.6 18.2 75.3 17.7 76.1 17.1 C74.3 15.4 72.3 13.7 69.8 13.3 C71 13.1 72.2 13 73.4 12.9 C71.9 12.1 68.3 9.3 63.9 9.5 C65.5 9.2 65.8 7.3 66.3 5.9 C64.3 6.4 62.3 6.9 60.4 7.4 C60.7 6.2 60.7 4.7 60 3.7 C59.3 2.7 58.1 2.1 56.9 2.2 C57 4.2 56.2 6.2 54.8 7.7 C52.6 8 51 8.5 49.7 9.4 C50.6 8.1 51.6 6.9 51.6 5.6 C49.8 7 47 9.1 45.3 10.4 C44.6 6.4 42.1 2.6 38.5 0.7 C39.9 3.3 39.5 6.5 40.4 9.2 C38.8 8 37 6.6 35.6 5.6 C35.6 7 36.6 8.1 37.5 9.4 C36.3 8.5 34.7 8 32.4 7.7 C31 6.3 30.2 4.3 30.3 2.2 C29.1 2.1 27.8 2.7 27.2 3.7 C26.5 4.8 26.5 6.2 26.8 7.4 C24.8 6.9 22.8 6.4 20.9 5.9 C21.4 7.3 22.2 8.5 23.3 9.5 C23.1 9.6 23 9.7 22.9 9.9 C18.2 10.1 15.3 12.1 13.8 12.9 C15 13 16.3 13.1 17.4 13.3 C14.8 13.7 12.9 15.4 11.1 17.1 C11.9 17.7 12.6 18.2 13.4 18.8 C12.1 19.9 9.3 22.5 7.9 24 C6.4 25.5 2.5 33.9 0.7 37.8 C1.3 37.2 2.1 36.8 3 36.6 C2.6 38.4 2.5 40.2 2 42 C1.5 43.8 0.7 45.6 0.1 47.3 C0.5 47.7 1.1 47.8 1.6 47.7 C1.6 48.8 1.3 49.7 1.1 50.8 C0.7 52.9 1.1 59.2 1.1 61.7 C1.5 61.6 1.9 61.5 2.3 61.3 C1.7 63.3 1.7 65.5 2.5 67.4 C2.8 66.7 3 66 3.3 65.2 C3.8 67.3 3.9 69.3 4.1 71.4 C4.4 71.3 4.7 71.2 5 71 C5.3 71.7 5.7 72.5 5.8 73.3 C5.9 73.9 5.6 74.7 5.3 75.2 C6.2 76.2 6.8 77.6 7.7 78.6 L7.9 77.9 C8.6 79.3 8.9 80.9 9.3 82.4 C9.5 82 9.7 81.7 9.9 81.3 C10.3 81.9 10.8 82.5 11.1 83.1 C11.5 83.9 11.7 84.8 12.1 85.7 C12.3 86.3 12.6 87.1 13.2 87.5 C13.7 87.8 14.7 87.7 14.9 87 C15.3 87.3 15.5 87.9 15.9 88.3 C16.4 88.7 16.9 89.1 17.5 89.4 C18.8 90.3 20.1 91.1 21.4 92 C21.4 91.8 21.4 91.5 21.5 91.3 C21.7 91.4 21.9 91.5 22.2 91.6 L21.6 91.5 C22.9 92.5 24.2 93.5 25.6 94.6 C25.6 94.2 25.6 93.9 25.6 93.5 C27.9 94.3 30.2 95.1 32.6 95.9 C33.3 93.8 36 95.5 36.9 96.4 C37.4 96.1 37.7 95.6 37.8 95 C38.4 95 38.9 95 39.4 95.3 C39.9 95.5 40.3 95.8 40.8 95.9 C41.7 96.1 42.8 96 43.5 95.2 C44.1 95.2 44.6 95.2 45.2 95.2 C45.9 96 47 96.1 47.9 95.9 C48.4 95.8 48.7 95.6 49.1 95.4 C49.7 95.1 50.1 95.1 50.8 95.1 C50.9 95.7 51.2 96.2 51.7 96.5 C52.6 95.6 55.2 93.8 56 96 C58.3 95.2 60.6 94.4 63 93.6 C63 94 63 94.3 63 94.7 C64.3 93.7 65.6 92.7 67 91.6 L66.4 91.7 C66.6 91.6 66.8 91.5 67.1 91.4 C67.1 91.6 67.1 91.9 67.2 92.1 C68.5 91.2 69.8 90.4 71.1 89.5 C71.6 89.1 72.2 88.8 72.7 88.4 C73.1 88 73.3 87.5 73.7 87.1 C73.9 87.8 74.8 88 75.4 87.6 C76 87.2 76.3 86.4 76.5 85.8 C76.8 84.9 77.1 84 77.5 83.2 C77.8 82.5 78.3 82 78.7 81.4 C78.9 81.8 79.1 82.1 79.3 82.5 C79.7 80.9 80 79.4 80.7 78 C80.7 78.1 80.7 78.2 80.7 78.3 C81.6 77.3 82.5 76.3 83.4 75.3 C83.1 74.8 82.8 74 82.9 73.4 C83 72.7 83.4 71.8 83.7 71.1 C84 71.2 84.3 71.3 84.6 71.5 C84.8 69.4 84.9 67.3 85.4 65.3 C85.7 66 85.9 66.7 86.2 67.5 C86.9 65.5 87 63.4 86.4 61.4 C86.8 61.6 87.1 61.8 87.6 61.8 C87.6 59.4 87.7 57 87.7 54.6 C87.7 53.5 87.8 52.5 87.7 51.4 C86.1 50.4 85.7 49.5 85.7 48.5 z" id="o1" fill="#464854" /><path d="M37.1 9.1 C36.7 8.5 36.4 8 36.2 7.4 C35.9 6.8 35.6 6.2 35.6 5.6 C37 6.6 38.8 8 40.4 9.2 C40.4 9.1 40.4 9.1 40.4 9 C39.6 6.3 39.9 3.2 38.6 0.7 C42.2 2.6 44.7 6.4 45.4 10.4 C47 9.1 49.8 7 51.6 5.6 C51.6 6.9 50.6 8.1 49.7 9.4 C51 8.5 52.6 8 54.8 7.7 C56.2 6.2 57 4.2 56.9 2.2 C58.1 2.1 59.3 2.7 60 3.7 C60.7 4.7 60.7 6.2 60.4 7.4 C62.3 6.9 64.3 6.4 66.3 5.9 C65.8 7.3 65.5 9.2 63.9 9.5 C68.3 9.3 71.9 12.1 73.4 12.9 C72.2 13 71 13.1 69.8 13.3 C72.3 13.7 74.3 15.4 76.1 17.1 C75.3 17.7 74.6 18.2 73.8 18.8 C75.2 19.9 79.1 23.7 80.8 26.2 C82.4 28.6 83.6 31.3 84.8 34 C85 34.4 85.2 34.7 85.4 35.1 C85.4 35.1 85.3 35 85.3 35 C85.7 35.9 86.1 36.9 86.6 37.8 C85.9 37.2 85.1 36.8 84.3 36.6 C84.7 38.4 84.8 40.3 85.3 42 C85.8 43.8 86.5 45.6 87.2 47.3 C86.8 47.7 86.3 47.8 85.7 47.7 C85.7 48 85.7 48.2 85.7 48.5 C85.7 49.5 86.1 50.4 87.7 51.4 C87.8 52.5 87.7 53.5 87.7 54.6 C87.7 57 87.6 59.4 87.6 61.8 C87.1 61.8 86.8 61.6 86.4 61.4 C87 63.4 86.9 65.5 86.2 67.5 C85.9 66.7 85.7 66 85.4 65.3 C84.9 67.3 84.8 69.4 84.6 71.5 C84.3 71.3 84 71.2 83.7 71.1 C83.4 71.8 83 72.7 82.9 73.4 C82.8 74 83.1 74.8 83.4 75.3 C82.5 76.3 81.6 77.3 80.7 78.3 C80.7 78.2 80.7 78.1 80.7 78 C80 79.4 79.7 80.9 79.3 82.5 C79.1 82.1 78.9 81.8 78.7 81.4 C78.3 82 77.8 82.5 77.5 83.2 C77.1 84 76.8 84.9 76.5 85.8 C76.3 86.4 76 87.2 75.4 87.6 C74.8 88 73.9 87.8 73.7 87.1 C73.3 87.5 73.1 88 72.7 88.4 C72.2 88.8 71.6 89.1 71.1 89.5 C69.8 90.4 68.5 91.2 67.2 92.1 C67.1 91.9 67.1 91.6 67.1 91.4 C66.8 91.5 66.6 91.6 66.4 91.7 L67 91.6 C65.6 92.7 64.3 93.7 63 94.7 C63 94.3 63 94 63 93.6 C60.6 94.4 58.3 95.2 56 96 C55.2 93.8 52.6 95.6 51.7 96.5 C51.2 96.2 50.9 95.7 50.8 95.1 C50.1 95.1 49.7 95.1 49.1 95.4 C48.7 95.6 48.4 95.8 47.9 95.9 C47 96.1 45.9 96 45.2 95.2 C44.6 95.2 44.1 95.2 43.5 95.2 C42.8 96 41.7 96.1 40.8 95.9 C40.3 95.8 39.9 95.5 39.4 95.3 C38.9 95 38.4 95 37.8 95 C37.7 95.6 37.4 96.1 36.9 96.4 C36 95.5 33.3 93.8 32.6 95.9 C30.2 95.1 27.9 94.3 25.6 93.5 C25.6 93.9 25.6 94.2 25.6 94.6 C24.2 93.5 22.9 92.5 21.6 91.5 L22.2 91.6 C21.9 91.5 21.7 91.4 21.5 91.3 C21.4 91.5 21.4 91.8 21.4 92 C20.1 91.1 18.8 90.3 17.5 89.4 C16.9 89.1 16.4 88.7 15.9 88.3 C15.5 87.9 15.3 87.3 14.9 87 C14.7 87.7 13.7 87.8 13.2 87.5 C12.6 87.1 12.3 86.3 12.1 85.7 C11.7 84.8 11.5 83.9 11.1 83.1 C10.8 82.5 10.3 81.9 9.9 81.3 C9.7 81.7 9.5 82 9.3 82.4 C8.9 80.9 8.6 79.3 7.9 77.9 L7.7 78.6 C6.8 77.6 6.2 76.2 5.3 75.2 C5.6 74.7 5.9 73.9 5.8 73.3 C5.7 72.5 5.3 71.7 5 71 C4.7 71.2 4.4 71.3 4.1 71.4 C3.9 69.3 3.8 67.3 3.3 65.2 C3 66 2.8 66.7 2.5 67.4 C1.7 65.5 1.7 63.3 2.3 61.3 C1.9 61.5 1.5 61.6 1.1 61.7 C1.1 59.2 0.7 52.9 1.1 50.8 C1.3 49.7 1.6 48.8 1.6 47.7 C1.1 47.8 0.5 47.7 0.1 47.3 C0.7 45.6 1.5 43.8 2 42 C2.5 40.2 2.6 38.4 3 36.6 C2.1 36.8 1.3 37.2 0.7 37.8 C2.5 33.9 6.4 25.5 7.9 24 C9.3 22.5 12.1 19.9 13.4 18.8 C12.6 18.2 11.9 17.7 11.1 17.1 C12.9 15.4 14.8 13.7 17.4 13.3 C16.3 13.1 15 13 13.8 12.9 C15.3 12.1 18.2 10.1 22.9 9.9 C23 9.7 23.1 9.6 23.3 9.5 C22.2 8.5 21.4 7.3 20.9 5.9 C22.8 6.4 24.8 6.9 26.8 7.4 C26.5 6.2 26.5 4.8 27.2 3.7 C27.8 2.7 29.1 2.1 30.3 2.2 C30.2 4.3 31 6.3 32.4 7.7 C34.4 8 35.9 8.4 37.1 9.1 z M37.1 9.1 C37.3 9.4 37.6 9.8 37.8 10.1 C36.7 9.2 34.8 9.5 32.6 9.2 C31.3 7.9 29.2 5.3 29.3 3.3 C28.2 3.2 28.1 3.8 27.5 4.8 C26.8 5.8 27.4 7.1 27.7 8.2 C25.8 7.7 23.9 7.2 22.1 6.8 C22.6 8.1 24.5 9.2 25.5 10.1 C25.3 10.2 24.1 10.4 24 10.6 C19.5 10.8 17.8 11.7 16.4 12.4 C17.5 12.5 18.7 13.6 19.8 13.8 C17.3 14.2 14.5 15.8 12.8 17.4 C13.6 18 14.2 18.4 15 19 C13.8 20 11.1 22.5 9.8 23.9 C8.2 25.4 4 32.3 2.3 36 C2.9 35.4 3.7 35.3 4.6 35.1 C4.2 36.8 4.6 39.4 4.1 41.1 C3.6 42.8 2.9 43.9 2.3 45.5 C2.7 45.9 3.3 46.6 3.7 46.5 C3.7 47.5 3.4 48.4 3.2 49.4 C2.8 51.4 3.2 57.4 3.2 59.8 C3.6 59.7 4 59.6 4.3 59.4 C3.7 61.3 3.7 63.4 4.5 65.2 C4.8 64.6 5 64 5.3 63.2 C5.8 65.2 5.9 67.1 6.1 69.1 C6.4 69 6.7 68.9 7 68.7 C7.3 69.4 7.7 70.1 7.8 70.9 C7.9 71.5 7.6 72.2 7.3 72.7 C8.2 73.7 8.7 75 9.6 75.9 L9.8 75.2 C10.5 76.5 10.8 78.1 11.1 79.5 C11.3 79.1 11.5 78.8 11.7 78.5 C12.1 79.1 12.6 79.6 12.8 80.2 C13.2 81 13.4 81.8 13.8 82.7 C14 83.3 14.3 84 14.8 84.4 C15.3 84.7 16.2 84.6 16.4 83.9 C16.8 84.2 17 84.8 17.4 85.1 C17.9 85.5 18.4 85.9 18.9 86.1 C20.1 87 21.4 87.7 22.6 88.6 C22.6 88.4 22.6 88.1 22.7 87.9 C22.9 88 23.1 88.1 23.4 88.2 L22.8 88.1 C24 89.1 25.3 90 26.6 91 C26.6 90.6 26.6 90.3 26.6 90 C28.8 90.8 31 91.5 33.3 92.3 C34 90.3 36.5 91.9 37.4 92.8 C37.9 92.5 38.2 92 38.3 91.5 C38.9 91.5 39.3 91.5 39.8 91.8 C40.3 92 40.7 92.3 41.1 92.4 C42 92.6 43 92.5 43.7 91.7 C44.3 91.7 44.7 91.7 45.3 91.7 C46 92.5 47 92.6 47.9 92.4 C48.4 92.3 48.7 92.1 49 91.9 C49.6 91.6 50 91.6 50.6 91.6 C50.7 92.2 51 92.6 51.5 92.9 C52.4 92 54.8 90.3 55.6 92.4 C57.8 91.6 60 90.9 62.3 90.1 C62.3 90.5 62.3 90.8 62.3 91.1 C63.5 90.1 64.8 89.2 66.1 88.2 L65.5 88.3 C65.7 88.2 65.9 88.1 66.2 88 C66.2 88.2 66.2 88.5 66.3 88.7 C67.5 87.8 68.8 87.1 70 86.2 C70.5 85.8 71 85.5 71.5 85.2 C71.9 84.8 72.1 84.3 72.5 84 C72.7 84.7 73.5 84.9 74.1 84.5 C74.7 84.1 75 83.4 75.1 82.8 C75.4 81.9 75.7 81.1 76.1 80.3 C76.4 79.6 76.9 79.2 77.2 78.6 C77.4 79 77.6 79.3 77.8 79.6 C78.2 78.1 78.5 76.7 79.1 75.3 C79.1 75.4 79.1 75.5 79.1 75.6 C80 74.6 80.8 73.7 81.7 72.7 C81.4 72.2 81.1 71.5 81.2 70.9 C81.3 70.2 81.7 69.4 82 68.7 C82.3 68.8 82.6 68.9 82.9 69.1 C83.1 67.1 83.2 65.1 83.7 63.2 C84 63.9 84.2 64.5 84.5 65.3 C85.2 63.4 85.3 61.4 84.7 59.5 C85.1 59.7 85.4 59.9 85.8 59.9 C85.8 57.6 86.6 57.4 86.6 55.1 C86.6 54.1 85.9 51.6 85.9 50.5 C84.4 49.5 84 48.1 84 47.2 C84 46.9 84 46.7 84 46.4 C84.6 46.5 85 46.4 85.4 46 C84.7 44.4 84.9 43.2 84.4 41.5 C83.9 39.9 83.3 36.7 82.9 34.9 C83.6 35.1 84.9 34.4 85.6 34.8 C85.4 34.5 85.3 34.1 85.1 33.8 C83.4 30.8 81.3 29 79.2 25.9 C77.6 23.5 73.9 19.9 72.5 18.9 C73.3 18.3 73.3 17.9 74 17.3 C72.3 15.7 69.8 14.1 67.4 13.7 C68.5 13.5 70.3 12.4 71.5 12.3 C70.1 11.5 66 9.7 61.8 9.9 C63.3 9.6 64.4 8.7 64.9 7.3 C63 7.8 60.7 8.2 58.9 8.6 C59.2 7.5 60.4 5.9 59.7 4.9 C59 3.9 59.4 3 58.2 3.1 C58.3 5 55.8 6.8 54.4 8.3 C52.3 8.6 50 9.3 48.8 10.1 C49.7 8.9 50 8.4 50 7.2 C48.3 8.5 47 9.6 45.4 10.8 C44.7 7 43.2 4.8 39.8 3 C40.8 5.4 40 6.9 40.3 9 C40.3 9.1 40.3 9.1 40.4 9.2 C40.4 9.2 40.4 9.2 40.4 9.2 C40.4 9.4 40.5 9.7 40.6 10 C39 8.8 37.3 7.5 36 6.5 C36 6.8 36.1 7.1 36.1 7.4 C36.5 8 37 8.7 37.4 9.4 C37.4 9.3 37.2 9.2 37.1 9.1 z" opacity="0.15" id="p1" /></g></g></g><g transform="translate(101.4, 90.09997) translate(8, 1)" id="q1"><path d="M14.6 40.1 C13.1 40.1 13.5 37.4 12.3 34.7 C10.1 29.8 6.5 23.1 3.8 19.6 C1.7 17 -0.4 13.7 0.6 10.5 C1.7 7.1 5.8 5.9 9.3 5.1 C15.1 3.9 21 2.7 26.8 1.5 C28.1 1.2 34.4 -0.3 35.3 0.9 C35.7 2 31.5 4.8 30.4 6 C28.1 8.6 26.4 12.2 24.8 15.2 C21.4 22 18.7 40.1 14.6 40.1 z" id="r1" fill="#171B24" /><path d="M3.3 7.3 C2.7 7.8 2.2 8.5 1.9 9.2 C0.9 12 2.8 15 4.7 17.3 C7.2 20.4 10.5 26.3 12.5 30.6 C13.6 33 13.2 35.4 14.6 35.4 C18.4 35.5 21.2 19.7 24.5 13.8 C26.1 11.2 27.7 8 29.9 5.8 C31 4.8 35 2.4 34.6 1.4 C33.8 0.3 27.9 1.6 26.6 1.8 C23.9 2.3 21.2 2.8 18.4 3.2 C21.2 2.7 24 2.1 26.8 1.5 C28.1 1.2 34.4 -0.3 35.3 0.9 C35.7 2 31.5 4.8 30.4 6 C28.1 8.6 26.4 12.2 24.8 15.2 C21.4 22 18.7 40.1 14.6 40.1 C13.1 40.1 13.5 37.4 12.3 34.7 C10.1 29.8 6.5 23.1 3.8 19.6 C1.7 17 -0.4 13.7 0.6 10.5 C1.1 9.1 2 8 3.3 7.3 z" opacity="0.15" id="s1" /></g><g transform="translate(106.3, 89.99997) translate(87, 1)" id="t1"><path d="M21.4 40.1 C22.9 40.1 22.5 37.4 23.7 34.7 C25.9 29.8 29.5 23.1 32.2 19.6 C34.3 17 36.4 13.7 35.4 10.5 C34.3 7.1 30.2 5.9 26.7 5.1 C20.9 3.9 15 2.7 9.2 1.5 C7.9 1.2 1.6 -0.3 0.7 0.9 C0.3 2 4.5 4.8 5.6 6 C7.9 8.6 9.6 12.2 11.2 15.2 C14.6 22 17.3 40.1 21.4 40.1 z" id="u1" fill="#171B24" /><path d="M21.4 40.1 C17.3 40.1 14.6 22 11.2 15.2 C9.6 12.2 7.9 8.6 5.6 6 C4.5 4.8 0.3 2 0.7 0.9 C1.6 -0.3 7.9 1.2 9.2 1.5 C15 2.7 20.9 3.9 26.7 5.1 C30.2 5.9 34.3 7.1 35.4 10.5 C36.4 13.7 34.3 17 32.2 19.6 C29.5 23.1 25.9 29.8 23.7 34.7 C22.5 37.4 22.9 40.1 21.4 40.1 z M21.1 34.4 C22.5 34.4 22.1 32.2 23.2 29.9 C25.2 25.8 28.5 20.2 30.9 17.3 C32.9 15.1 34.8 12.3 33.9 9.6 C32.9 6.8 29.1 5.8 25.9 5.1 C20.7 4.1 15.3 3.1 10 2.1 C8.8 1.9 3.1 0.6 2.3 1.6 C1.9 2.5 5.7 4.9 6.7 5.9 C8.8 8.1 10.4 11.1 11.8 13.6 C14.9 19.3 17.4 34.4 21.1 34.4 z" opacity="0.15" id="v1" /></g><g transform="translate(169.7, 146.4) scale(0.8) translate(-169.7, -144.4)" id="w1"><g transform="translate(108.1, 64.29996) translate(22, 30)" id="x1"><g id="y1"><path d="M76.7 63.3 C75.1 55.9 72.5 52.3 66.1 47.7 C58.4 42.2 52.2 40.3 47.5 33.1 C46 30.8 44.9 28.2 43.9 20.7 C43.3 16.2 42.8 12.9 42.4 9.2 C42 5.5 41.1 0.8 37.7 0.7 C34.3 0.6 33.6 4.7 33.5 9.9 C33.4 15.2 33 16.9 32.3 22.2 C31.2 29.7 29.2 32.1 27.7 34.5 C23 41.8 17.4 43 9.9 49 C2.7 54.8 1.9 56.9 1 66.1 C1 66 1 66 1 65.9 C-0.2 70.9 3.1 77 3.1 77.1 C9.7 87.7 16.4 91.1 27.6 91.1 C32.7 91.1 38 91.1 50.2 91.1 C60.4 91 73.7 80.8 76 74.2 C76.2 73.7 76.3 73.2 76.5 72.8 C77.2 70.9 77.6 69 77.4 67.2 C77.4 65.8 77.1 64.6 76.7 63.3 z" id="z1" fill="#FFF" /><path d="M76 74.2 C73.7 80.8 60.4 91 50.2 91.1 C38.4 91.1 33 91.1 27.6 91.1 C16.4 91.1 9.7 87.7 3.1 77.1 C3.1 77 -0.2 70.9 1 65.9 C1.9 71 6.8 77.1 12 81.4 C16.7 85.3 27.9 87.3 39.4 87.6 C50.9 87.9 64.7 82.4 70.4 76.3 C73 73.5 76 65.7 76.3 61.9 C77.3 65.5 78.3 67.5 76 74.2 z" fill-opacity="0.1" id="a2" fill="#010101" /><path d="M76.7 63.3 C77.1 64.6 77.4 65.8 77.4 67.2 C77.6 69 77.2 70.9 76.5 72.8 C76.3 73.2 76.2 73.7 76 74.2 C73.7 80.8 60.4 91 50.2 91.1 L27.6 91.1 C16.4 91.1 9.7 87.7 3.1 77.1 C3.1 77.1 2.3 75.5 1.6 73.3 C0.9 71.1 0.4 68.4 1 65.9 C1 65.9 1 65.9 1 66 C1.9 56.9 2.7 54.8 9.9 49 C17.4 43 23 41.8 27.7 34.5 C29.2 32.1 31.2 29.7 32.3 22.2 C33 16.9 33.4 15.2 33.5 9.9 C33.6 4.7 34.3 0.6 37.7 0.7 C41.1 0.8 42 5.5 42.4 9.2 C42.8 12.9 43.3 16.2 43.9 20.7 C44.9 28.2 46 30.8 47.5 33.1 C52.2 40.3 58.4 42.2 66.1 47.7 C72.5 52.3 75.1 55.9 76.7 63.3 L76.7 63.3 z M74.7 66.3 C74.7 65 74.4 63.9 74 62.6 C72.5 55.7 70.1 52.3 64.2 48 C57 42.8 51.3 41.1 46.9 34.3 C45.5 32.1 44.5 29.7 43.6 22.7 C43 18.5 42.6 15.4 42.2 11.9 C41.8 8.4 40.9 1.8 37.7 1.7 C34.5 1.6 33.9 7.6 33.9 12.5 C33.8 17.5 33.4 19.1 32.8 24 C31.8 31 29.9 33.3 28.5 35.5 C24.1 42.3 18.9 43.5 12 49.1 C5.3 54.5 4.6 56.5 3.7 64.9 C3.1 67.2 3.6 69.8 4.3 71.9 C4.9 73.9 5.7 75.4 5.7 75.4 C11.8 85.3 18.1 88.5 28.5 88.5 L49.5 88.5 C59 88.4 71.3 78.8 73.5 72.7 C73.7 72.2 73.8 71.8 74 71.4 C74.5 69.8 74.9 68 74.7 66.3 z" fill-opacity="0.1" id="b2" fill="#010101" /></g></g><g transform="translate(168.7999, 165.7) scale(1.5) translate(-168.7999, -165.7) translate(-286.5, 44.79997) translate(64, 110)" id="c2"><path d="M391.8 5.8 C391 5.7 390.6 5.8 390.4 6.1 C390.3 6.3 390.7 7.4 390.3 8.6 C390.2 8.9 389.9 9.3 389.4 9.8 C388.7 10 388.2 10.1 387.8 10.1 C387.2 10.1 385.6 9.5 384.5 9.5 C383.8 9.4 383.5 9.7 383.6 10.3 L384.8 11.1 C386.2 11.7 387.2 12 387.8 12.2 C389.3 12.5 390.4 12.5 391.1 12.4 C391.6 12.4 392.6 12.5 394.1 12.2 C394.8 12.1 396 11.8 397.7 11.3 C398.4 10.7 398.5 10.3 398 10.1 C397.2 9.8 395.8 10.1 394.8 10.1 C394.1 10.1 393.4 10.1 392.6 10.1 C392.2 9.4 391.9 8.8 391.8 8.5 C391.7 8.2 391.7 7.3 391.8 5.8 z" id="d2" fill="#1F2123" /></g><g transform="translate(110.8, 79.79996) translate(48, 55)" id="e2"><g id="f2"><path d="M20.4 3.1 C18.3 0 13.2 0.9 11 0.8 C8.8 0.9 3.7 0 1.6 3.1 C-0.3 5.9 1.2 11.4 3.7 12.1 C5.6 12.6 6.2 15.5 11 15.4 C15.9 15.5 16.5 12.6 18.3 12.1 C20.8 11.5 22.3 5.9 20.4 3.1 z" id="g2" fill="#282421" /><path d="M15.2 4.6 C14.1 4.3 12.9 4.7 12.1 5.5 L11 6.7 L10 5.5 C9.2 4.6 8 4.2 6.9 4.5 C6 4.8 4.7 5.8 4.9 6.9 C5.8 6.2 6.9 5.7 8 6.1 C9 6.4 9.7 7.4 9.9 8.4 L9.9 9.6 L11 9.6 L12.2 9.6 L12.2 8.4 C12.4 7.4 13.1 6.4 14.1 6.1 C15.2 5.7 16.4 6.2 17.2 6.9 C17.4 6 16.1 4.9 15.2 4.6 z" id="h2" fill="#FEFEFE" /></g></g><g transform="translate(93.69997, 64.59997) translate(45, 45)" id="i2"><path d="M-0.7 21.6 C0.6 15.5 4.2 10.3 6.1 8.6 C7.4 7.5 10.9 6.6 13.8 5.6 C14.5 5.3 10.6 5.7 10.1 4.6 C9.3 2.8 11.3 1.8 12.3 1 C13.1 0.4 14.3 -0.2 16.4 -0.2 C18.5 -0.2 19.6 0.1 20.3 2 C21 3.9 18.5 7.9 18.5 10.2 C18.5 12.5 18.5 19 18.5 20.4 C18.5 21.8 15.7 31.3 13.8 33.1 C11.9 34.9 12.1 21.6 7 21.6 C1.9 21.6 -2 27.7 -0.7 21.6 z" id="j2" fill="#6E7079" /><g transform="translate(6, 10)" id="k2"><ellipse cx="5.3" cy="4.9" rx="5.6" ry="5.5" id="l2" /><path d="M7.6 4.4 C7.8 3.4 7.1 2.4 6.1 2.3 C5.1 2.2 4.2 2.7 4 3.7 C3.8 4.7 4.5 5.7 5.5 5.8 C5.6 5.8 5.6 5.8 5.7 5.8 C5.7 5.6 5.7 5.5 5.7 5.3 C5.8 4.6 6.5 4.1 7.2 4.3 C7.3 4.3 7.5 4.4 7.6 4.4 C7.6 4.5 7.6 4.4 7.6 4.4 z" id="m2" fill="#FFFFFE" /><circle cx="5" cy="5.7" r="1" id="n2" fill="#FFFFFE" /></g></g><g transform="translate(101.1, 64.59997) translate(78, 46)" id="o2"><path d="M21.1 20.6 C19.8 14.5 16.2 9.3 14.3 7.6 C13 6.5 9.5 5.6 6.6 4.6 C6 4.3 9 4.5 9.5 3.4 C10.5 1.7 8.5 0.1 6.8 -0.5 C5.1 -1.1 0.9 -2.1 0 1.3 C-0.9 4.7 2 6.9 2 9.2 C2 11.5 2 18 2 19.4 C2 20.8 4.8 30.3 6.7 32.1 C8.6 33.9 8.3 20.8 13.5 20.8 C18.7 20.8 22.4 26.7 21.1 20.6 z" id="p2" fill="#6E7079" /><g transform="translate(4, 9)" id="q2"><ellipse cx="5.2" cy="4.9" rx="5.6" ry="5.5" id="r2" /><path d="M7.5 4.4 C7.7 3.4 7 2.4 6 2.3 C5 2.1 4.1 2.8 3.9 3.8 C3.7 4.8 4.4 5.8 5.4 5.9 C5.5 5.9 5.5 5.9 5.6 5.9 C5.6 5.7 5.6 5.6 5.6 5.4 C5.7 4.7 6.4 4.2 7.1 4.4 C7.2 4.4 7.4 4.5 7.5 4.4 C7.5 4.5 7.5 4.4 7.5 4.4 z" id="s2" fill="#FFFFFE" /><circle cx="4.9" cy="5.7" r="1" id="t2" fill="#FFF" /></g></g></g></g></g></g><defs><g transform="translate(17.09519, 0.800995) translate(-135.2952, -293.601)" id="u2" fill="#000"><path d="M118.2 302.7 C118.4 307.4 132.5 311.2 149.8 311.2 C167.1 311.2 181.2 307.4 181.4 302.7 C181.4 307.5 181.4 310.1 181.4 310.5 C181.4 315.3 167.3 319.1 149.8 319.1 C132.3 319.1 118.2 315.2 118.2 310.5 L118.2 302.7 L118.2 302.7 z" fill-opacity="0.4528" id="v2" fill="#593001" /><path d="M118.7 301.7 C118.9 306.4 133 310.2 150.3 310.2 C167.6 310.2 181.7 306.4 181.9 301.7 C181.9 306.5 181.9 309.1 181.9 309.5 C181.9 314.3 167.8 318.1 150.3 318.1 C132.8 318.1 118.7 314.2 118.7 309.5 L118.7 301.7 L118.7 301.7 z" id="w2" fill="#DA8113" /><linearGradient x1="46.0545" y1="-118.6926" x2="45.4656" y2="-118.6926" gradientUnits="userSpaceOnUse" gradientTransform="matrix(117.135, 0, 0, 28.4634, -5208.417, 3687.795)" id="x2"><stop offset="0%" stop-color="#D9952A" stop-opacity="1" /><stop offset="6.438854%" stop-color="#CA7519" stop-opacity="1" /><stop offset="30.54%" stop-color="#E3AD3A" stop-opacity="1" /><stop offset="51.05%" stop-color="#FFEC91" stop-opacity="1" /><stop offset="68.8%" stop-color="#E9BD44" stop-opacity="1" /><stop offset="86.24%" stop-color="#FFED6C" stop-opacity="1" /><stop offset="93.87%" stop-color="#F2D353" stop-opacity="1" /><stop offset="100%" stop-color="#F2B947" stop-opacity="1" /></linearGradient><path d="M118.2 301.6 C118.4 306.1 132.7 309.7 150.3 309.7 C167.9 309.7 182.2 306.1 182.4 301.6 C182.4 306.2 182.4 308.7 182.4 309 C182.4 313.5 168 317.2 150.3 317.2 C132.6 317.2 118.2 313.5 118.2 309 L118.2 301.6 L118.2 301.6 z" id="y2" style="fill:url(#x2)" /><linearGradient x1="45.4914" y1="-117.9547" x2="45.9407" y2="-117.5895" gradientUnits="userSpaceOnUse" gradientTransform="matrix(115.425, 0, 0, 29.925, -5125.077, 3826.124)" id="z2"><stop offset="0%" stop-color="#F4E072" stop-opacity="1" /><stop offset="100%" stop-color="#DB9427" stop-opacity="1" /></linearGradient><ellipse cx="150.3" cy="301.5" rx="31.6" ry="8.2" id="a3" style="fill:url(#z2)" /><linearGradient x1="45.4656" y1="-126.0065" x2="46.0545" y2="-126.0065" gradientUnits="userSpaceOnUse" gradientTransform="matrix(117.135, 0, 0, 18.6219, -5208.417, 2651.479)" id="b3"><stop offset="0%" stop-color="#D9952A" stop-opacity="1" /><stop offset="6.438854%" stop-color="#CA7519" stop-opacity="1" /><stop offset="30.54%" stop-color="#E3AD3A" stop-opacity="1" /><stop offset="51.05%" stop-color="#FFEC91" stop-opacity="1" /><stop offset="68.8%" stop-color="#E9BD44" stop-opacity="1" /><stop offset="86.24%" stop-color="#FFED6C" stop-opacity="1" /><stop offset="93.87%" stop-color="#F2D353" stop-opacity="1" /><stop offset="100%" stop-color="#F2B947" stop-opacity="1" /></linearGradient><path d="M119.2 299.9 C119 300.2 118.9 300.6 118.9 301 C118.9 305.5 132.9 309.2 150.3 309.2 C167.7 309.2 181.7 305.5 181.7 301 C181.7 300.6 181.6 300.3 181.4 299.9 C182 300.5 182.4 301.2 182.4 301.9 C182.4 306.4 168 310.1 150.3 310.1 C132.6 310.1 118.2 306.4 118.2 301.9 C118.2 301.3 118.6 300.6 119.2 299.9 z" id="c3" style="fill:url(#b3)" /><linearGradient x1="45.196" y1="-121.5895" x2="45.3746" y2="-120.6758" gradientUnits="userSpaceOnUse" gradientTransform="matrix(101.745, 0, 0, 23.94, -4458.332, 3199.41)" id="d3"><stop offset="0%" stop-color="#F8DD61" stop-opacity="1" /><stop offset="100%" stop-color="#EAA330" stop-opacity="1" /></linearGradient><ellipse cx="150.3" cy="300.8" rx="27.8" ry="6.6" id="e3" style="fill:url(#d3)" /><linearGradient x1="45.5694" y1="-134.267" x2="45.0221" y2="-134.267" gradientUnits="userSpaceOnUse" gradientTransform="matrix(101.745, 0, 0, 13.2525, -4458.332, 2077.223)" id="f3"><stop offset="0%" stop-color="#F4CA2F" stop-opacity="1" /><stop offset="51.38%" stop-color="#BF7737" stop-opacity="1" /><stop offset="100%" stop-color="#E4A929" stop-opacity="1" /></linearGradient><path d="M122.6 301.5 C122.5 301.3 122.4 301 122.4 300.8 C122.4 297.2 134.9 294.2 150.2 294.2 C165.5 294.2 178 297.1 178 300.8 C178 301 177.9 301.3 177.8 301.5 C176.3 298.2 164.5 295.6 150.1 295.6 C135.7 295.6 124.1 298.2 122.6 301.5 z" id="g3" style="fill:url(#f3)" /></g></defs><desc>62EOKHO4N79,1T7dCKg+Rj2v4etbSZHN8JBKZyXbMQyddlengiRcj/BXlzY8x1bgmMJljp+NW9aR6FSATlbOD+IHnHr2pxaG9LYSLLpUcJm1ZVuWlzvN1+0=</desc></svg>