<?xml version="1.0" encoding="utf-8"?><!DOCTYPE svg PUBLIC "-//W3C//DTD SVG 1.1//EN" "http://www.w3.org/Graphics/SVG/1.1/DTD/svg11.dtd"><svg x="0" y="0" width="340px" height="340px" viewBox="0, 0, 340, 340" preserveAspectRatio="xMidYMid" font-size="0" id="a" enable-background="new 0 0 340 340" xmlns="http://www.w3.org/2000/svg" xmlns:xlink="http://www.w3.org/1999/xlink" xmlns:xml="http://www.w3.org/XML/1998/namespace" version="1.1"><g id="b" fill="#000"><g id="c"><g transform="translate(0, 0) translate(0, 224)" id="d"><ellipse cx="168.6" cy="53.1" rx="57.8" ry="12.8" fill-opacity="0.25" id="e" /></g><g id="f"><g transform="translate(90.9, 46.19998) translate(33.5, 179) scale(-1, 1) translate(-33.5, -179) translate(0, 154)" id="g"><path d="M41.5 31.4 C45.2 30.1 47.9 28.5 48.7 27.6 C49.1 27.1 51.6 21.8 52.3 21.3 C52.9 20.9 52.9 24.2 53.4 23.8 C54.9 22.4 54.8 22.1 55.2 20.7 C56.1 17.4 57.2 16.6 58.5 11.1 L59.9 15.5 C63.3 7.9 61.4 0.7 63.5 -1.5 C65.6 -3.7 75.2 32.7 50.3 43.4 C48.1 44.4 37.3 47.3 35.4 47.6 C23.7 49.1 1.5 47 1.5 47 L1.5 34.8 C1.3 34.8 27.9 36.1 41.5 31.4 z" id="h" fill="#232733" /><path d="M41.5 31.4 C45.2 30.1 47.9 28.5 48.7 27.6 C49.1 27.1 51.6 21.8 52.3 21.3 C52.9 20.9 52.9 24.2 53.4 23.8 C54.9 22.4 54.8 22.1 55.2 20.7 C56.1 17.4 57.2 16.6 58.5 11.1 L59.9 15.5 C63.3 7.9 61.4 0.7 63.5 -1.5 C65.6 -3.7 75.2 32.7 50.3 43.4 C48.1 44.4 37.3 47.3 35.4 47.6 C23.7 49.1 1.5 47 1.5 47 L1.5 34.8 C1.3 34.8 27.9 36.1 41.5 31.4 z" id="i" fill="#232733" /><path d="M41.5 31.4 C45.2 30.1 47.9 28.5 48.7 27.6 C49.1 27.1 51.6 21.8 52.3 21.3 C52.9 20.9 52.9 24.2 53.4 23.8 C54.9 22.4 54.8 22.1 55.2 20.7 C56.1 17.4 57.2 16.6 58.5 11.1 L59.9 15.5 C63.3 7.9 61.4 0.7 63.5 -1.5 C65.6 -3.7 75.2 32.7 50.3 43.4 C48.1 44.4 37.3 47.3 35.4 47.6 C23.7 49.1 1.5 47 1.5 47 L1.5 34.8 C1.3 34.8 27.9 36.1 41.5 31.4 z M42.1 32.1 C29.3 36.2 4 36 4 36 L4.3 45.8 C4.3 45.8 24.5 47.1 35.5 45.8 C37.4 45.5 48.1 42.8 50 41.9 C70.6 33.2 65.8 1.7 63.8 3.7 C61.8 5.6 62.4 11.8 59.2 18.3 L57.9 14.5 C56.7 19.3 56.3 19.9 55.4 22.8 C55 24 54.5 24.3 53.1 25.6 C52.6 25.9 52.6 23.1 52.1 23.4 C51.4 23.8 49.1 28.4 48.7 28.9 C48.1 29.6 45.5 31 42.1 32.1 z" opacity="0.15" id="j" /></g><g transform="translate(126.3, 272.7) scale(1.233333) translate(-126.3, -272.7) translate(109.1, 103.3) translate(11, 124)" id="k"><path d="M5.5 31.6 C4 25 -4.5 8.1 4.9 2.8 C11.3 -0.8 29.6 0.5 37.7 7.3 C45.8 14.2 46.2 40.5 24.1 25 C20 22.1 30.1 37 24.8 45 C21.8 49.6 7.3 50.2 3.5 45.6 C-0.1 41.2 6.3 35.3 5.5 31.6 z" id="l" fill="#171B24" /><path d="M5.4 33.3 C4.6 33.9 3.7 34.2 2.7 34.2 C4.1 32.7 4.8 30.6 4.6 28.6 C4.5 28.4 4.5 28.2 4.4 27.9 C8.2 26 22.2 17.3 25.8 14.2 C25.8 17.2 29.4 22.5 28.2 26.7 C26.7 31.5 30 36.9 24.8 44.9 C21.8 49.5 7.3 50.1 3.5 45.5 C0.4 41.8 4.6 37 5.4 33.3 z" id="m" fill="#EDEEEF" /><path d="M4.9 2.8 C11.3 -0.8 29.6 0.5 37.7 7.3 C45.3 13.8 46.1 37.3 28 27.4 C27.1 31.8 29.5 36.8 25.4 43.8 C25.2 44.2 25 44.6 24.8 44.9 C21.8 49.5 7.3 50.1 3.5 45.5 C2.9 44.8 2.6 44.1 2.5 43.3 C1.8 40 4.8 36.2 5.4 33.2 C4.6 33.8 3.7 34.1 2.7 34.1 C4.1 32.6 4.8 30.5 4.6 28.5 C4.5 28.3 4.5 28.1 4.4 27.8 C1.8 20.1 -3.1 7.3 4.9 2.8 z M5.5 3.2 C-1.6 7.3 3.9 19 6.2 26.2 C6.3 26.5 6.3 26.7 6.4 26.8 C6.6 28.6 5.9 31 4.6 32.4 C5.5 32.4 7.2 30.9 8 30.3 C7.4 33.1 3.9 37.3 4.5 40.4 C4.6 41.1 4.9 41.8 5.4 42.4 C8.8 46.6 21.7 46.1 24.4 41.8 C24.6 41.5 24.8 41.1 25 40.8 C28.6 34.3 25.9 29.2 26.7 25.2 C42.9 34.2 44.1 14.1 37.4 8.2 C30.2 2 11.2 -0.1 5.5 3.2 z" opacity="0.15" id="n" /></g><g transform="translate(211.2, 272.7) scale(1.233333) translate(-211.2, -272.7) translate(109.1, 103.3) translate(86, 148) scale(-1, 1) translate(-86, -148) translate(64, 123)" id="o"><path d="M5.5 32.6 C4 26 -5.2 7.6 4.9 3.8 C30.4 -6.1 41.7 9.9 43.4 18.9 C45.8 31.2 30.5 28 24 26 C19.2 24.5 30 38 24.7 46 C21.7 50.6 7.2 51.2 3.4 46.6 C-0.1 42.2 6.3 36.3 5.5 32.6 z" id="p" fill="#171B24" /><path d="M5.5 34.3 C4.7 34.9 3.8 35.2 2.8 35.2 C4.2 33.7 4.9 31.6 4.7 29.6 C4.6 29.4 4.6 29.2 4.5 28.9 C8.3 27 22.3 18.3 25.9 15.2 C25.9 18.2 25.3 21.7 24.1 25.9 C22.6 30.7 30.1 37.9 24.8 45.9 C21.8 50.5 7.3 51.1 3.5 46.5 C0.4 42.8 4.7 38 5.5 34.3 z" id="q" fill="#EDEEEF" /><path d="M4.9 3.8 C11.3 0.2 29.6 1.5 37.7 8.3 C45.3 14.8 46.1 38.3 28 28.4 C27.1 32.8 29.5 37.8 25.4 44.8 C25.2 45.2 25 45.6 24.8 45.9 C21.8 50.5 7.3 51.1 3.5 46.5 C2.9 45.8 2.6 45.1 2.5 44.3 C1.8 41 4.8 37.2 5.4 34.2 C4.6 34.8 3.7 35.1 2.7 35.1 C4.1 33.6 4.8 31.5 4.6 29.5 C4.5 29.3 4.5 29.1 4.4 28.8 C1.8 21.1 -3.1 8.3 4.9 3.8 z M5.5 4.2 C-1.6 8.3 3.9 20 6.2 27.2 C6.3 27.5 6.3 27.7 6.4 27.8 C6.6 29.6 5.9 32 4.6 33.4 C5.5 33.4 7.2 31.9 8 31.3 C7.4 34.1 3.9 38.3 4.5 41.4 C4.6 42.1 4.9 42.8 5.4 43.4 C8.8 47.6 21.7 47.1 24.4 42.8 C24.6 42.5 24.8 42.1 25 41.8 C28.6 35.3 25.9 30.2 26.7 26.2 C42.9 35.2 44.1 15.1 37.4 9.2 C30.2 3 11.2 0.9 5.5 4.2 z" opacity="0.15" id="r" /></g><g transform="translate(106.1, 86.69998) translate(20, 72)" id="s"><path d="M79.6 53.8 C78.1 41.2 74.8 38.7 71 30.2 C67.4 22 67.2 14.6 65 9.3 C62.5 3.3 57.6 0.2 42.6 0.2 C27.6 0.2 22.6 3.4 20.2 9.3 C18 14.6 17.8 22.1 14.2 30.2 C10.4 38.7 7.1 41.2 5.6 53.8 C4.2 65 12 95.4 19.2 110.4 C21.7 115.6 22.7 119.6 26.4 120.4 C33 121.8 38.9 122.2 42.7 122.1 C46.6 122.2 52.5 121.8 59 120.4 C62.6 119.6 63.7 115.6 66.2 110.4 C73.2 95.4 80.9 65.1 79.6 53.8 z" id="t" fill="#232733" /><path d="M79.6 53.8 C80.9 65.1 73.2 95.4 66.2 110.4 C63.7 115.6 62.6 119.6 59 120.4 C52.5 121.8 46.6 122.2 42.7 122.1 C38.9 122.2 33 121.8 26.4 120.4 C22.7 119.6 21.7 115.6 19.2 110.4 C12 95.4 4.2 65 5.6 53.8 C7.1 41.2 10.4 38.7 14.2 30.2 C17.8 22.1 18 14.6 20.2 9.3 C22.6 3.4 27.6 0.2 42.6 0.2 C57.6 0.2 62.5 3.3 65 9.3 C67.2 14.6 67.4 22 71 30.2 C74.8 38.7 78.1 41.2 79.6 53.8 z M78.4 53 C77 40.8 73.8 38.4 70.1 30.2 C66.6 22.2 66.4 15.1 64.3 9.9 C61.9 4.1 57.1 1.1 42.6 1.1 C28.1 1.1 23.2 4.2 20.9 9.9 C18.8 15.1 18.6 22.3 15.1 30.2 C11.4 38.4 8.2 40.8 6.8 53 C5.4 63.9 14 93.5 21 108 C23.4 113 23.3 116.8 26.9 117.6 C33.3 118.9 39 119.3 42.7 119.2 C46.5 119.3 52.2 118.9 58.5 117.6 C62 116.8 61.9 112.9 64.3 107.9 C71.1 93.3 79.7 64 78.4 53 z" opacity="0.4" id="u" /></g><g transform="translate(129.5146, 187.81) scale(0.8837594, 1.00566) translate(-124.4, -188.1) translate(95.39999, 79.79999) translate(73, 157) scale(-1, 1) translate(-73, -157) translate(29, 109)" id="v"><g id="w"><g id="x"><g opacity="0.21" transform="translate(10, 82)" id="y"><path d="M1.6 5.5 C2.8 3.7 3.6 1.5 6.5 1.3 C9.4 1.1 11.2 -0.3 14.5 0.2 C17.8 0.7 22 2.4 22 5.5 C22 8.6 22.4 9.6 22 9.8 C19.2 11.2 15.8 11.2 11.7 11.8 C8.3 12.3 1.9 12.1 0.7 11 C0.4 10.1 0.4 7.3 1.6 5.5 z" stroke="#000000" stroke-width="3" opacity="0.21" id="z" /></g><path d="M11.6 86.5 C12.8 84.7 13.6 82.5 16.5 82.3 C19.4 82.1 21.2 80.7 24.5 81.2 C27.8 81.7 32 83.4 32 86.5 C32 89.6 30.9 90.9 30.5 91.1 C27.7 92.5 25.8 92.2 21.7 92.8 C18.3 93.3 13.5 93.9 12.3 92.8 C11.1 91.9 10.4 88.3 11.6 86.5 z" id="a1" fill="#DDD5CD" /><g opacity="0.2" transform="translate(0, 1)" id="b1"><path d="M10.3 6.6 C10.5 6.4 10.8 6.1 11 6 C11.1 6 11.1 5.9 11.2 5.9 C11.1 6.6 11.2 7.4 11.5 8.2 C11.5 8.3 13.1 9.1 13.9 9.6 C14 10.2 14.1 10.9 14.3 11.5 C14.4 11.8 14.5 12.1 14.7 12.4 C14.8 12.5 15.4 12.7 15.9 12.9 C16.4 13.8 17.1 14.6 18.2 15.2 C18.6 15.4 19.1 15.6 19.4 15.8 C19.6 16.1 20 16.8 20.2 17.1 C21.1 17.6 21.8 17.7 22.3 18.2 C22.9 18.3 23.8 18.6 24.2 18.7 C26.3 20.7 23.8 21.3 25.5 26.3 C25.9 27.5 27.3 30.9 27.9 31.9 C29.1 33.9 33.1 33.9 33.9 36.1 C34.3 37.3 33.8 39.7 34.5 40.5 C35.2 41.3 36.9 42.4 37.2 44.6 C37.3 45.3 34.6 45.8 34.8 47.1 C35 48.4 37.7 50.7 37.8 51.4 C38.3 53.6 34.7 51.4 34.8 53 C34.9 53.8 41.1 59.3 41.5 61.1 C41.6 61.6 40.5 62.4 40 62.2 C39.9 62.6 39.1 62.2 38.4 61.9 C39.1 63.5 39.7 63.4 40 64.3 C40.9 66.7 41.5 66.4 41.8 68.1 C41.9 69 39.4 69.6 39.4 70.3 C39.4 71.1 40.5 73.8 40.5 74.9 C40.2 75.9 38.1 73.7 37.9 74.6 C37.3 77.4 37.2 80.1 36.2 81.5 C35.5 82.5 34.8 84.1 34.1 84.5 C33.5 85.9 27.4 81.8 25.3 81.5 C23.3 81.2 21.3 81.5 19.5 81.5 C18.1 81.5 15.3 83.9 13.2 84.5 C12.9 84.6 12.5 82.9 12.4 82.8 C11.3 81.9 9.8 80.8 7.2 75.3 C4.6 69.8 4.9 67.4 4.6 63.3 C4.3 59.2 1.4 52.8 0.7 47.1 C0 41.4 1.9 30.9 1.9 27.1 C1.9 23.3 3.2 20.6 2.1 15.2 C1.8 13.8 1.1 12.4 1.3 11.5 C2 8.6 5.4 2.1 8 1.2 C12.5 -0.5 10 3 10.3 6.6 z" stroke="#000000" stroke-width="3" opacity="0.2" id="c1" /></g><path d="M8 1.2 C5.4 2.1 1.4 9.5 0.7 12.4 C0.5 13.3 1 14.4 1.3 15.8 C2.4 21.2 1.3 23.5 1.3 27.3 C1.3 31.1 0 41.4 0.7 47.1 C1.4 52.8 4.2 59.2 4.5 63.3 C4.8 67.4 5.4 69.3 8 74.8 C10.6 80.3 11.2 81.9 12.3 82.8 C12.4 82.9 12.9 84.1 13.2 84 C15.3 83.4 17.9 82.3 19.3 82.3 C21.1 82.3 24 82 26 82.3 C28.1 82.6 30.9 85.1 32.2 84.5 C33 84.1 34.6 82.5 35.2 81.5 C36.2 80 36.4 78.7 37 76 C37.2 75.1 37.9 75.7 38.4 74.8 C39 73.7 38.4 71.2 38.4 70.3 C38.4 69.6 40.1 69.5 40 68.6 C39.8 67 40.9 67.5 40 65.1 C39.6 64.1 38.1 63.4 37.5 62 C37 60.9 40.3 63.2 40 62 C39.5 60.2 35.5 55.1 35.3 54.2 C34.9 52.7 37.1 54.7 37.1 53.2 C37 51.5 35.8 50.5 35.3 48.3 C35 47 36.3 46.3 36.1 44.9 C35.7 42.7 34.4 41.4 33.7 40.5 C33 39.7 33.3 37.4 32.8 36.2 C32 34 28.7 33.9 27.5 31.9 C26.9 30.9 25.8 27.4 25.4 26.2 C23.8 21.2 25.1 20.6 22.9 18.6 C21.8 17.6 20.3 16.7 17.3 15.3 C14.8 14.1 14.6 11.5 13.5 10 C13.4 9.8 10.6 8.4 10.6 8.2 C9.1 4.1 13.1 -0.7 8 1.2 z" id="d1" fill="#464854" /><path d="M8 1.2 C5.4 2.1 1.4 9.5 0.7 12.4 C0.5 13.3 1 14.4 1.3 15.8 C2.4 21.2 1.3 23.5 1.3 27.3 C1.3 31.1 0 41.4 0.7 47.1 C1.4 52.8 4.2 59.2 4.5 63.3 C4.8 67.4 5.4 69.3 8 74.8 C10.6 80.3 11.2 81.9 12.3 82.8 C12.4 82.9 12.9 84.1 13.2 84 C15.3 83.4 17.9 82.3 19.3 82.3 C21.1 82.3 24 82 26 82.3 C28.1 82.6 30.9 85.1 32.2 84.5 C33 84.1 34.6 82.5 35.2 81.5 C36.2 80 36.4 78.7 37 76 C37.2 75.1 37.9 75.7 38.4 74.8 C39 73.7 38.4 71.2 38.4 70.3 C38.4 69.6 40.1 69.5 40 68.6 C39.8 67 40.9 67.5 40 65.1 C39.6 64.1 38.1 63.4 37.5 62 C37 60.9 40.3 63.2 40 62 C39.5 60.2 35.5 55.1 35.3 54.2 C34.9 52.7 37.1 54.7 37.1 53.2 C37 51.5 35.8 50.5 35.3 48.3 C35 47 36.3 46.3 36.1 44.9 C35.7 42.7 34.4 41.4 33.7 40.5 C33 39.7 33.3 37.4 32.8 36.2 C32 34 28.7 33.9 27.5 31.9 C26.9 30.9 25.8 27.4 25.4 26.2 C23.8 21.2 25.1 20.6 22.9 18.6 C21.8 17.6 20.3 16.7 17.3 15.3 C14.8 14.1 14.6 11.5 13.5 10 C13.4 9.8 10.6 8.4 10.6 8.2 C9.1 4.1 13.1 -0.7 8 1.2 z" id="e1" fill="#F2E5D3" /><path d="M11.5 8.2 C11.5 8.3 13.1 9.1 13.9 9.6 C14 10.5 14.2 11.5 14.7 12.4 C14.7 12.5 15.3 12.7 15.9 12.9 C16.4 13.8 17.1 14.6 18.2 15.2 C18.6 15.4 19.1 15.6 19.4 15.8 C20.1 16.8 21 17.7 22.5 18.2 C23 18.3 23.4 18.5 23.8 18.6 C25.9 20.6 24.6 21.2 26.3 26.2 C26.7 27.4 27.8 30.9 28.4 31.9 C29.6 33.9 32.9 34 33.7 36.2 C34.1 37.4 33.9 39.7 34.6 40.5 C35.3 41.3 36.7 42.7 37 44.9 C37.2 46.3 35.9 47 36.2 48.3 C36.7 50.5 37.9 51.6 38 53.2 C38.1 54.8 35.8 52.7 36.2 54.2 C36.5 55.1 40.5 60.2 40.9 62 C41.2 63.2 37.9 60.9 38.4 62 C39.1 63.5 40.6 64.2 40.9 65.1 C41.8 67.5 40.7 66.9 40.9 68.6 C41 69.5 39.3 69.6 39.3 70.3 C39.3 71.1 39.9 73.7 39.3 74.8 C38.8 75.7 38.1 75.1 37.9 76 C37.3 78.8 37.1 80.1 36.1 81.5 C35.4 82.5 33.8 84.1 33.1 84.5 C31.8 85.1 29 82.6 26.9 82.3 C26.7 82.3 26.5 82.3 26.3 82.2 C25.6 81.2 24.8 80 23.7 78.5 C22.5 76.8 21.9 75.4 20.9 74 C20 72.7 18.6 71.3 18.3 70.4 C17.8 69.3 18.7 69.2 18.3 67.8 C18.2 67.6 17.2 66.4 17.1 65.9 C16.9 64.7 17.6 63.9 17.1 63.1 C16.2 61.6 14.7 61.8 13.8 60.1 C12.9 58.4 12.9 56.7 12.2 55.1 C11.7 53.9 12.1 53.6 11.7 52.5 C11.5 51.3 11.5 49 11 47 C10.7 45.8 9.7 44.9 9.6 43.8 C9.4 42.2 10.3 41.9 9.9 40.5 C9.5 38.9 8.6 38.1 8.2 37.1 C7.6 35.7 9.2 33.9 9 32.9 C8.8 31.7 8.2 30 8.2 28.9 C8.1 26.6 8.4 25.1 7 21.6 C6.5 20.2 5.7 19.2 5.8 18.3 C5.9 15.3 8.6 7.4 11 6 C11.1 6 11.1 5.9 11.2 5.9 C11.1 6.6 11.2 7.4 11.5 8.2 z" id="f1" fill="#464854" /></g><g transform="translate(46, 1)" id="g1"><g opacity="0.2" transform="translate(9, 81)" id="h1"><path d="M20.8 7 C19.6 5.2 19.5 2.3 16.6 2 C13.7 1.8 10.9 0.4 7.6 0.9 C5.7 1.2 2.7 0.9 1.2 2 C0 2.8 0.1 4.9 0.1 6.2 C0.1 9.3 0.2 9.4 0.5 9.9 C1.7 11.8 5.9 11.7 10 12.2 C13.4 12.7 20.3 12.5 21.8 11.6 C22.2 11.3 21.9 8.9 20.8 7 z" stroke="#000000" stroke-width="3" opacity="0.2" id="i1" /></g><path d="M29.8 87 C28.6 85.2 28.5 82.3 25.6 82 C22.7 81.8 19.9 80.4 16.6 80.9 C14.7 81.2 11.7 80.9 10.2 82 C9 82.8 9.1 84.9 9.1 86.2 C9.1 89.3 10.7 90.8 11.1 91 C13.9 92.4 15.3 92 19.4 92.5 C22.8 93 27.1 92.8 29 92.1 C30.6 91.5 30.9 88.9 29.8 87 z" id="j1" fill="#DDD5CD" /><g opacity="0.2" transform="translate(0, 1)" id="k1"><path d="M38.1 9.5 C38 10.4 40 11.7 39.7 13.1 C39.3 15 40.8 16.1 40.9 17.5 C41.1 19.1 40.4 20.4 40.4 21.8 C40.4 22.9 41.8 25.6 41.8 26.9 C41.8 28.2 40.9 28.4 40.9 30.3 C40.9 31.5 41.7 33.3 41.8 34.8 C41.9 36.2 40.6 36.6 40.3 37.7 C39.8 39.3 41.8 41.7 41.8 43.2 C41.8 44.4 38.2 40.4 38.2 41.5 C38.3 43.8 40.5 45.4 40.3 47.1 C40.3 47.3 38.2 47.2 38.2 47.9 C38.1 49.4 40.6 50.5 40.3 51.6 C39.9 53.1 39.4 52.5 39.1 54 C38.8 55.8 39.1 56.5 38.7 57.8 C38.4 58.7 37.4 56 37.2 56.8 C36.7 58.8 38.2 60.4 38.2 61.3 C38.2 63.5 36.3 63 36.2 64.3 C36 66.6 37 66.1 36.2 68.2 C35.8 69.1 33.6 70 33.2 71.2 C32.9 72.3 33.7 74.7 33.2 75.9 C32.7 76.9 31.2 74.8 30.9 75.9 C30.7 76.9 32.6 81.8 32.4 82.4 C32 83.4 28.2 82.4 27.5 83 C26.5 83.9 22 81 18.7 81 C15.4 81 12.8 82.7 11.1 83 C9.5 83.3 7 83.1 5.8 82.1 C5.7 81.9 5.3 80.7 5.2 80.5 C4.7 79.7 5.7 75.9 5.2 74.3 C5.1 73.9 4 74.6 3.8 74.4 C3.7 74.3 3.5 74.2 3.4 74 C3.1 73.7 2.9 73.4 2.9 72.6 C2.8 71.3 5.5 62.3 5.4 61.7 C4.6 66.6 3.2 69 1.2 69 C0.6 69 0.9 67.1 1.1 64.8 C1.2 63.2 3.8 58.6 3.7 57.3 C3.7 57.1 1.8 57.9 1.6 57.6 C1.5 57.5 1 57 1 56.7 C1.2 55.5 3.1 54.2 3.5 53.1 C3.2 52.9 2.3 53.1 2.2 52.8 C2.1 52.7 2 52.6 2.1 52.3 C2.6 51.1 5.5 48 5.7 47 C5.9 45.7 4.2 45.6 4.5 44.5 C4.9 43 6.5 42.7 6.8 41.4 C7.2 39.3 5.7 38 7.6 35.8 C10.6 33.3 13.9 29.1 15.6 23.9 C17.2 18.8 17.6 16.4 19.7 14.3 C21.1 13 21.9 11.3 25.3 9.3 C27.3 8.2 27.8 6.7 28.3 5.2 C29.7 1 30.8 -1.3 33.5 1.6 C34.2 2.5 35 3.2 35.6 4 C37.2 6 38.3 7.7 38.1 9.5 z" stroke="#000000" stroke-width="3" opacity="0.2" id="l1" /></g><path d="M33.6 1.8 C36.1 4.5 38.4 6.9 38.1 9.5 C38 10.4 40.6 11.7 40.3 13.1 C39.9 15 41.7 16.2 41.8 17.6 C42 19.2 40.9 20.3 40.9 21.7 C40.9 22.8 41.8 25.6 41.8 26.9 C41.8 28.2 40.9 28.4 40.9 30.3 C40.9 31.5 41.7 33.3 41.8 34.8 C41.9 36.2 40.6 36.6 40.3 37.7 C39.8 39.3 40.9 41.4 40.9 42.9 C40.9 44.1 38.6 41.3 38.6 42.4 C38.7 44.7 39.9 46.2 39.7 47.9 C39.7 48.1 38.2 47.2 38.2 47.9 C38.1 49.4 40.7 50.6 40.4 51.7 C40 53.2 39.4 52.5 39.1 54 C38.8 55.8 39.1 56.5 38.7 57.8 C38.4 58.7 37.4 56 37.2 56.8 C36.7 58.8 38.2 60.4 38.2 61.3 C38.2 63.5 36.3 63 36.2 64.3 C36 66.6 37 66.1 36.2 68.2 C35.8 69.1 33.6 70 33.2 71.2 C32.9 72.3 33.7 74.7 33.2 75.9 C32.7 76.9 31.2 74.8 30.9 75.9 C30.7 76.9 31.6 80.9 31.4 81.5 C30.4 83.6 28.2 82.4 27.5 83 C26.5 83.9 22.4 82 19.1 82 C15.8 82 12.8 82.7 11.1 83 C9.4 83.3 7 83.2 5.3 80.6 C4.8 79.8 4.9 76.9 4.4 75.3 C4 74.1 3 74.3 3 72.8 C2.9 71.5 3.9 69.1 3.7 68.2 C3.5 67 1.6 70.5 1.6 69.4 C1.6 68.1 1.4 66.1 1.6 63.8 C1.7 62.2 3 59.8 2.9 58.5 C2.9 57.4 1.4 58.4 1.6 57.2 C1.8 56 3.3 54.4 3.7 53.3 C3.9 52.7 1.9 53.5 2.3 52.5 C2.8 51.3 5.7 48.2 5.9 47.2 C6.1 45.9 5 45.5 5.3 44.4 C5.7 42.9 6.7 42.9 7 41.6 C7.4 39.5 6.5 38.2 7.4 37 C9.9 33.9 12.9 32.1 14.6 26.9 C16.2 21.8 17 16.9 19.1 14.8 C20.5 13.5 22.1 11.5 25.5 9.5 C27.5 8.4 28 6.9 28.5 5.4 C29.8 1.2 30.8 -1.1 33.6 1.8 z" id="m1" fill="#464854" /><path d="M33.6 1.8 C36.1 4.5 38.4 6.9 38.1 9.5 C38 10.4 40.6 11.7 40.3 13.1 C39.9 15 41.7 16.2 41.8 17.6 C42 19.2 40.9 20.3 40.9 21.7 C40.9 22.8 41.8 25.6 41.8 26.9 C41.8 28.2 40.9 28.4 40.9 30.3 C40.9 31.5 41.7 33.3 41.8 34.8 C41.9 36.2 40.6 36.6 40.3 37.7 C39.8 39.3 40.9 41.4 40.9 42.9 C40.9 44.1 38.6 41.3 38.6 42.4 C38.7 44.7 39.9 46.2 39.7 47.9 C39.7 48.1 38.2 47.2 38.2 47.9 C38.1 49.4 40.7 50.6 40.4 51.7 C40 53.2 39.4 52.5 39.1 54 C38.8 55.8 39.1 56.5 38.7 57.8 C38.4 58.7 37.4 56 37.2 56.8 C36.7 58.8 38.2 60.4 38.2 61.3 C38.2 63.5 36.3 63 36.2 64.3 C36 66.6 37 66.1 36.2 68.2 C35.8 69.1 33.6 70 33.2 71.2 C32.9 72.3 33.7 74.7 33.2 75.9 C32.7 76.9 31.2 74.8 30.9 75.9 C30.7 76.9 31.6 80.9 31.4 81.5 C30.4 83.6 28.2 82.4 27.5 83 C26.5 83.9 22.4 82 19.1 82 C15.8 82 12.8 82.7 11.1 83 C9.4 83.3 7 83.2 5.3 80.6 C4.8 79.8 4.9 76.9 4.4 75.3 C4 74.1 3 74.3 3 72.8 C2.9 71.5 3.9 69.1 3.7 68.2 C3.5 67 1.6 70.5 1.6 69.4 C1.6 68.1 1.4 66.1 1.6 63.8 C1.7 62.2 3 59.8 2.9 58.5 C2.9 57.4 1.4 58.4 1.6 57.2 C1.8 56 3.3 54.4 3.7 53.3 C3.9 52.7 1.9 53.5 2.3 52.5 C2.8 51.3 5.7 48.2 5.9 47.2 C6.1 45.9 5 45.5 5.3 44.4 C5.7 42.9 6.7 42.9 7 41.6 C7.4 39.5 6.5 38.2 7.4 37 C9.9 33.9 12.9 32.1 14.6 26.9 C16.2 21.8 17 16.9 19.1 14.8 C20.5 13.5 22.1 11.5 25.5 9.5 C27.5 8.4 28 6.9 28.5 5.4 C29.8 1.2 30.8 -1.1 33.6 1.8 z" id="n1" fill="#F2E5D3" /><path d="M35.7 4.1 C36.3 5.4 36.6 6.6 36.3 7.8 C36.1 8.7 37 10.1 36.5 11.5 C35.9 13.3 36.9 14.8 36.9 16.3 C36.9 17.9 36 20.1 35.7 21.5 C35.5 22.6 35.9 24.5 35.7 25.8 C35.5 27.1 35.2 27.3 34.9 29.1 C34.7 30.3 35.7 33.1 35.7 34.5 C35.7 35.9 35.1 39.6 34.9 41.1 C34.7 42.3 33.5 44.2 33.1 45.9 C33 46.1 32.1 50.5 31.7 51.9 C31.2 53.7 29.7 53.8 29.5 54.5 C28.8 56.4 27.8 60.6 27.6 61.8 C27.1 64.1 27.4 61.3 26.3 63.3 C25.8 64.2 24.3 67.1 23.8 68.2 C23.3 69.2 22.9 69.7 22.2 70.8 C21.6 71.8 21.3 71.5 21 72.6 C20.7 73.6 20 76.7 19.7 77.2 C18.5 79.2 17.5 78.7 16.7 79.2 C16 79.7 12 81.6 8.3 82.8 C7.2 82.5 6.1 81.8 5.2 80.5 C4.7 79.7 4.8 76.8 4.3 75.2 C3.9 74 2.9 74.2 2.9 72.7 C2.8 71.4 3.8 69 3.6 68.1 C3.4 66.9 1.5 70.4 1.5 69.3 C1.5 68 1.3 66 1.5 63.7 C1.6 62.1 2.9 59.7 2.8 58.4 C2.8 57.3 1.3 58.3 1.5 57.1 C1.7 55.9 3.2 54.3 3.6 53.2 C3.8 52.6 1.8 53.4 2.2 52.4 C2.7 51.2 5.6 48.1 5.8 47.1 C6 45.8 4.9 45.4 5.2 44.3 C5.6 42.8 6.6 42.8 6.9 41.5 C7.3 39.4 6.4 38.1 7.3 36.9 C9.8 33.8 12.8 32 14.5 26.8 C16.1 21.7 16.9 16.8 19 14.7 C20.4 13.4 22 11.4 25.4 9.4 C27.4 8.3 27.9 6.8 28.4 5.3 C29.8 1.1 30.9 -1.2 33.6 1.7 C34.3 2.6 35.1 3.3 35.7 4.1 z" id="o1" fill="#464854" /></g></g></g></g><g transform="translate(168.6, 179.9) scale(0.9163843) translate(-168.6, -179.9)" id="p1"><g transform="translate(102.5, 66.79998) translate(19, 30)" id="q1"><path d="M89.8 37.3 C91.3 38.6 92.8 39.9 94.3 41.2 C93.1 30.1 89.9 20.2 82 12.2 C73.1 1.4 58.2 0.7 47.4 0.7 C37.1 0.7 23.1 1.3 14.1 10.7 C4.2 19.9 1.7 29.4 0.4 41.2 C1.9 39.9 3.4 38.6 4.9 37.3 C4.9 38 4.9 38.7 4.9 39.4 C0.9 46.4 0.4 54.5 0.4 54.5 C0.4 54.5 2.1 58.7 3.5 59.6 C4 59.9 4.7 59.3 4.9 58.7 C4.1 62.1 3.5 63.4 6.8 71 C7.9 69.5 8.3 69.1 9 67.9 C10.7 74.9 10.6 72.8 12.4 79.8 C12.8 77.9 13.6 77.4 14.3 76.8 C15.8 78.6 17.4 80.2 19.3 81.5 C20.8 83.8 22.8 85.8 25.4 88.3 C26.8 88.2 28.1 88.1 29.4 87.9 C28.8 87.2 28.3 86.5 27.7 85.7 C28.1 85.8 28.6 86 29 86.1 C32.4 88.1 36.3 89.3 40.3 89.3 C40.1 88.9 39.9 88.4 39.7 88 C42.1 88.2 44.6 88.3 47.3 88.3 C50 88.3 52.5 88.2 54.9 88 C54.7 88.4 54.5 88.9 54.3 89.3 C58.2 89.2 62.1 88.1 65.5 86.1 C66 86 66.4 85.8 66.9 85.7 C66.3 86.4 65.8 87.1 65.2 87.9 C66.5 88.1 67.8 88.2 69.1 88.4 C71.8 85.9 73.7 83.8 75.3 81.6 C76.3 80.9 77.2 80.1 78 79.3 C78.6 78.7 79.2 78.1 79.8 77.4 C80.5 78.4 81.2 79 82.2 79.8 C83.9 72.8 83.8 74.9 85.6 67.9 C86.3 69.1 86.7 69.6 87.8 71 C91.1 63.4 90.5 62.1 89.7 58.7 C90 59.2 90.7 59.9 91.1 59.6 C92.5 58.7 94.2 54.5 94.2 54.5 C94.2 54.5 93.2 45.9 89.7 39.4 C89.8 38.7 89.8 37.9 89.8 37.3 z" id="r1" fill="#464854" /><path d="M89.8 37.3 C89.8 37.9 89.8 38.7 89.7 39.4 C93.2 45.9 94.2 54.5 94.2 54.5 C94.2 54.5 92.5 58.7 91.1 59.6 C90.7 59.9 90 59.2 89.7 58.7 C90.5 62.1 91.1 63.4 87.8 71 C86.7 69.6 86.3 69.1 85.6 67.9 C83.8 74.9 83.9 72.8 82.2 79.8 C81.2 79 80.5 78.4 79.8 77.4 C79.2 78.1 78.6 78.7 78 79.3 C77.2 80.1 76.3 80.9 75.3 81.6 C73.7 83.8 71.8 85.9 69.2 88.3 L69.1 88.4 C67.8 88.2 66.5 88.1 65.2 87.9 C65.8 87.1 66.3 86.4 66.9 85.7 C66.4 85.8 66 86 65.5 86.1 C62.1 88.1 58.2 89.2 54.3 89.3 C54.5 88.9 54.7 88.4 54.9 88 C52.5 88.2 50 88.3 47.3 88.3 C44.6 88.3 42.1 88.2 39.7 88 C39.9 88.4 40.1 88.9 40.3 89.3 C36.3 89.3 32.4 88.1 29 86.1 C28.6 86 28.1 85.8 27.7 85.7 C28.3 86.5 28.8 87.2 29.4 87.9 C28.1 88.1 26.8 88.2 25.5 88.4 L25.4 88.3 C22.8 85.8 20.8 83.8 19.3 81.5 C17.4 80.2 15.8 78.6 14.3 76.8 C13.6 77.4 12.8 77.9 12.4 79.8 C10.6 72.8 10.7 74.9 9 67.9 C8.3 69.1 7.9 69.5 6.8 71 C3.5 63.4 4.1 62.1 4.9 58.7 C4.7 59.3 4 59.9 3.5 59.6 C2.1 58.7 0.4 54.5 0.4 54.5 C0.4 54.5 0.9 46.4 4.9 39.4 C4.9 38.7 4.9 38 4.9 37.3 C3.4 38.6 1.9 39.9 0.4 41.2 C1.7 29.4 4.2 19.9 14.1 10.7 C23.1 1.3 37.1 0.7 47.4 0.7 C58.2 0.7 73.1 1.4 82 12.2 C89.9 20.2 93.1 30.1 94.3 41.2 C92.8 39.9 91.3 38.6 89.8 37.3 z M88.1 34.2 C89.5 35.4 91 35.8 92.4 37 C91.2 26.6 88.3 19.7 80.7 12.1 C72.1 2 57.8 1.4 47.4 1.4 C37.5 1.4 24 2 15.3 10.8 C5.8 19.5 3.4 26.7 2.1 37.8 C3.5 36.6 5 35.5 6.4 34.2 C6.4 34.9 6.4 37.1 6.4 37.8 C2.6 44.3 2.1 52 2.1 52 C2.1 52 3.3 55.1 4.7 56 C5.2 56.3 6.3 56.6 6.4 56 C5.6 59.2 4.8 59.4 8 66.5 C9.1 65.1 9.7 65.8 10.4 64.6 C12 71.2 11.6 68.7 13.3 75.3 C13.7 73.5 14.8 73.5 15.5 72.9 C16.9 74.6 18.5 76.1 20.3 77.3 C21.7 79.5 21.7 81 24.2 83.3 C25.5 83.2 26.7 83.9 27.9 83.7 C27.3 83 28.9 82 28.4 81.3 C28.8 81.4 29.3 81.6 29.7 81.7 C33 83.6 32.8 84.7 36.6 84.7 C36.4 84.3 34.7 82.9 40 83.5 C42.3 83.7 44.7 83.8 47.3 83.8 C49.9 83.8 55.2 83.1 57.5 82.9 C57.3 83.3 57 84.4 56.8 84.7 C60.6 84.6 61.6 83.6 64.8 81.7 C65.3 81.6 67.7 80.9 68.2 80.8 C67.6 81.5 66.7 83 66.2 83.8 C67.5 84 69.1 83.2 70.3 83.4 C72.9 81 72.7 79.5 74.3 77.5 C75.3 76.8 77.5 76.1 78.2 75.3 C78.8 74.7 79.5 73.1 80 72.5 C80.7 73.4 80.8 74.6 81.8 75.3 C83.4 68.7 83.3 69 85.1 62.4 C85.8 63.5 86.4 65.5 87.4 66.8 C90.6 59.7 88.9 59.1 88.1 55.9 C88.4 56.4 90 57.1 90.4 56.9 C91.7 56.1 92.4 52 92.4 52 C92.4 52 90.7 45.3 87.4 39.1 C87.5 38.4 88.1 34.8 88.1 34.2 z" opacity="0.15" id="s1" /></g><g transform="translate(92.09999, 93.29998) translate(23, 6)" id="t1"><path d="M31.8 0 C25.5 1.5 19.2 7.2 16.6 10.2 C14 13.2 6 16.4 4.2 19.6 C2.4 22.8 4 24.1 1.9 29.6 C1.2 31.4 0.9 34.8 1 39.7 C1.4 39.3 2.1 38.9 2.9 38.3 C4.7 37.1 3.5 38.4 2.9 42.2 C2.9 44.3 3.4 47 4.3 48.4 C5.2 49.9 5 47.2 7 47.2 C7.5 47.2 7.2 48.2 7 49.2 C6.6 50.9 6.5 53.4 7 52.7 C8.8 50.1 9.7 50.4 9.9 53.7 C14.9 56.6 17.6 59.1 17.9 61.3 C18.2 63.3 18 64.9 17.2 67.4 C17 68.1 17.1 70.9 18.5 70.6 C19.8 70.4 21.7 68.5 23.2 67.4 C26.4 65.1 32.2 62 30.8 53.8 C29.4 45.6 25.8 42.5 26 32.5 C26.2 22.5 24.9 12.4 28.8 6.6 C31 3.4 33.9 2.6 35.3 1.4 C36.7 0.2 33.1 0.2 31.8 0 z" id="u1" fill="#171B24" /><path d="M31.8 0 C33.1 0.2 36.7 0.2 35.3 1.4 C33.9 2.6 31 3.4 28.8 6.6 C24.9 12.4 26.2 22.5 26 32.5 C25.8 42.5 29.4 45.6 30.8 53.8 C32.2 62 26.4 65.1 23.2 67.4 C21.7 68.5 19.8 70.4 18.5 70.6 C17.1 70.9 17 68.1 17.2 67.4 C18 64.9 18.2 63.3 17.9 61.3 C17.6 59.1 14.9 56.6 9.9 53.7 C9.7 50.4 8.8 50.1 7 52.7 C6.5 53.4 6.6 50.9 7 49.2 C7.2 48.2 7.5 47.2 7 47.2 C5 47.2 5.2 49.9 4.3 48.4 C3.4 47 2.9 44.3 2.9 42.2 C3.5 38.4 4.7 37.1 2.9 38.3 C2.1 38.9 1.4 39.3 1 39.7 C0.9 34.8 1.2 31.4 1.9 29.6 C4 24.1 2.4 22.8 4.2 19.6 C6 16.4 14 13.2 16.6 10.2 C19.2 7.2 25.5 1.5 31.8 0 z M29.5 1.9 C23.9 3.2 19.1 9.5 16.8 12.1 C14.4 14.7 7.3 17.4 5.7 20.1 C4.1 22.9 5.5 24 3.6 28.7 C3 30.2 2.2 31.7 2.3 35.9 C2.7 35.6 4.6 35.9 5.3 35.4 C6.8 34.4 5.3 39.6 5.2 39.7 C5.2 41.5 5 43.5 5.8 44.7 C6.6 46 6.4 43.7 8.2 43.7 C8.6 43.7 8.4 44.6 8.2 45.4 C7.8 46.9 8.6 49.2 9.1 48.6 C10.7 46.4 11.8 46.5 12 49.3 C16.5 51.8 18.2 54 18.5 55.9 C18.7 57.6 20.1 59.4 19.3 61.5 C19.2 62.1 20.2 65.3 21.4 65 C22.6 64.8 23.9 61.9 25.2 60.9 C28.1 59 28.3 55.6 27.1 48.6 C25.8 41.6 24.4 39.7 24.6 31.2 C24.7 22.6 22.9 12.5 26.4 7.5 C28.4 4.8 30.9 3 32.1 1.9 C33.4 0.9 30.7 2.1 29.5 1.9 z" opacity="0.15" id="v1" /></g><g transform="translate(81.1, 93.79998) translate(97, 5)" id="w1"><path d="M16.5 8.8 C18.6 12.4 18.7 28 18.7 33.7 C18.7 39.4 17.7 40.1 15.7 46.5 C13.7 52.9 14.6 59.7 18.7 64.2 C24.1 68.8 27.7 71.4 29.1 71.2 C30.5 71 28.8 68.9 27.8 65.5 C27.1 63.2 26.6 62.2 28.5 59.6 C28.7 59.3 29.9 61.3 29.9 60.3 C29.9 59.4 32.6 57 34.4 55.1 C35.3 54.1 35.9 52.9 35.9 52.9 C36.4 53 37 54.2 37.6 56.4 C39.3 51.7 40.4 48.6 40.9 47 C41.4 45.6 41.9 47.4 42.4 48.1 C42.9 48.8 42.3 42.3 42.4 41.7 C42.9 37.9 43.6 35.7 42.9 32.7 C42.6 31.3 41.8 29.5 40.8 27.4 C40.7 27.1 40.2 26.4 42.5 27.4 C43.5 27.9 40.2 22.5 39.1 20.8 C37.5 18.4 33.1 16 31.7 14.8 C27.8 11.6 18.5 1.4 13.5 0.1 C10.9 0.2 8.7 -0.1 9.7 1.6 C10.8 3.6 14.9 6 16.5 8.8 z" id="x1" fill="#171B24" /><path d="M16.5 8.8 C14.9 6 10.8 3.6 9.7 1.6 C8.7 -0.1 10.9 0.2 13.5 0.1 C18.5 1.4 27.8 11.6 31.7 14.8 C33.1 16 37.5 18.4 39.1 20.8 C40.2 22.5 43.5 27.9 42.5 27.4 C40.2 26.4 40.7 27.1 40.8 27.4 C41.8 29.5 42.6 31.3 42.9 32.7 C43.6 35.7 42.9 37.9 42.4 41.7 C42.3 42.3 42.9 48.8 42.4 48.1 C41.9 47.4 41.4 45.6 40.9 47 C40.4 48.6 39.3 51.7 37.6 56.4 C37 54.2 36.4 53 35.9 52.9 C35.9 52.9 35.3 54.1 34.4 55.1 C32.6 57 29.9 59.4 29.9 60.3 C29.9 61.3 28.7 59.3 28.5 59.6 C26.6 62.2 27.1 63.2 27.8 65.5 C28.8 68.9 30.5 71 29.1 71.2 C27.7 71.4 24.1 68.8 18.7 64.2 C14.6 59.7 13.7 52.9 15.7 46.5 C17.7 40.1 18.7 39.4 18.7 33.7 C18.7 28 18.6 12.4 16.5 8.8 z M18 10.2 C19.1 13.5 19.7 27 19.7 31.9 C19.7 36.9 19.7 38.1 18 43.7 C16.2 49.3 14.6 55.8 18.2 59.8 C22.9 63.8 24.4 66.1 25.6 66 C26.2 65.1 26.3 64.2 25.4 61.2 C24.8 59.2 26.5 58 28.2 55.7 C28.3 55.4 29.8 57 29.8 56.1 C29.8 55.4 31.8 52.3 33.4 50.7 C34.2 49.8 34.7 48.7 34.7 48.7 C35.1 48.8 37.4 49.4 37.9 51.4 C39.4 47.3 38.6 45 39.1 43.6 C39.5 42.4 40.7 43.6 41.2 44.2 C41.6 44.9 41.5 38.3 41.6 37.8 C42 34.5 41.4 33.7 40.8 31.1 C40.6 29.8 39.9 28.3 39 26.4 C38.9 26.2 38.8 24.5 40.9 25.4 C41.7 25.8 38.5 22.1 37.5 20.7 C36.1 18.6 32.3 16.5 31 15.4 C27.6 12.6 19.5 3.1 15.1 2 C13.1 0.9 11.3 1 12.2 2.5 C13.2 4.3 16.9 6.9 18 10.2 z" opacity="0.15" id="y1" /></g><g id="z1"><g transform="translate(96, 83.39997) translate(55, 59)" id="a2"><g transform="translate(0, 4)" id="b2"><g opacity="0.15" transform="translate(0, 1)" id="c2"><path d="M18.3 38.8 C14.7 42.1 10.7 42.8 6.5 40.8 C0.1 37.8 -0.1 31.7 0.7 27.2 C1.4 23.5 6.2 19.9 8.8 14.6 C10.9 10 11.4 8.6 12.8 4.7 C14.2 0.8 19.4 -1.6 22.8 4.1 C24.5 7 25.2 9.9 27.1 13.8 C28.8 17.5 33.6 21.5 34.5 23.9 C36.4 28.8 35.2 35.7 32.7 38.7 C31.8 39.8 29 41.6 26 41.6 C23.2 41.7 20.6 40.7 18.3 38.8 z" stroke="#000000" stroke-width="2" opacity="0.15" id="d2" /></g><path d="M18.3 38.8 C14.7 42.1 10.7 42.8 6.5 40.8 C0.1 37.8 0.8 31.9 1.6 27.4 C2 24.9 5.7 19.8 8.3 14.5 C10.4 9.9 11.6 5 12.4 3.7 C14.3 0.8 20.1 -2 23.5 3.7 C25.2 6.6 26.2 10.4 28.1 14.3 C29.8 18 32.9 21.4 33.8 23.8 C35.7 28.7 35.2 35.7 32.7 38.7 C31.8 39.8 29 41.6 26 41.6 C23.2 41.7 20.6 40.7 18.3 38.8 z" id="e2" fill="#FFF" /></g></g><g transform="translate(169, 187.9999) scale(0.7, 0.8) translate(-169, -181.9999) translate(109.5, 106.9) translate(40, 59)" id="f2"><g id="g2"><path d="M38.7 14.9 C37.7 11.9 34.2 9.9 31.4 9.4 C30.9 9.3 30.3 9.7 30.3 10.2 C30.3 10.3 30.3 10.5 30.3 10.6 C29.3 11.4 27 12 24.4 11.7 C22.9 11.6 21.6 11.1 21 10.5 L21 0.2 L18 0.2 L18 10.6 C17.3 11.1 16.2 11.5 14.7 11.6 C12.1 11.8 9.8 11.2 8.8 10.5 C8.8 10.4 8.8 10.2 8.8 10.1 C8.7 9.6 8.2 9.2 7.7 9.3 C4.9 9.7 1.4 11.8 0.4 14.8 C0.2 15.3 0.5 15.9 1 16.1 C1.1 16.1 1.2 16.2 1.3 16.2 C1.7 16.2 2.1 15.9 2.2 15.5 C2.8 13.7 5 12.2 7 11.6 C7.5 12.2 8.2 12.6 9.1 13 C12 16.5 13.4 21.9 19.5 21.9 L19.6 21.7 L19.6 21.9 C25.7 21.9 27.1 16.5 30 13 C30.9 12.7 31.6 12.2 32.1 11.6 C34.1 12.2 36.3 13.7 36.9 15.5 C37 15.9 37.4 16.2 37.8 16.2 C37.9 16.2 38 16.2 38.1 16.1 C38.6 16 38.9 15.4 38.7 14.9 z" id="h2" fill="#282421" /><path d="M24.2 13.8 C22.3 13.6 20.8 13.1 19.8 12.2 C19.7 12.2 19.5 12.2 19.4 12.2 C18.4 13 16.9 13.6 14.9 13.8 C14.7 13.8 14.4 13.8 14.1 13.8 C13.9 16.6 14.3 21.2 18.9 21.3 C24.1 21.4 24.5 18.5 24.7 13.8 C24.5 13.8 24.3 13.8 24.2 13.8 z" id="i2" fill="#D66969" /></g></g><g transform="translate(102.5, 78.69997) translate(57, 86)" id="j2"><g id="k2"><path d="M9.5 0.7 C3.4 0.7 0.3 2.6 0.2 6.7 C0.1 13.3 4.8 15.1 9.5 16.6 C14.1 15 18.9 13.2 18.8 6.7 C18.7 2.7 15.6 0.7 9.5 0.7 z" id="l2" fill="#332320" /><path d="M10.4 2.1 C8.3 2 6.2 2.3 4.3 2.9 C3.6 3.1 2.5 3.6 2.7 4.4 C3 5.8 11.1 4.3 13.8 3.7 C14 3.6 14.3 3.6 14.4 3.4 C15.5 2.5 10.9 2.1 10.4 2.1 z" id="m2" fill="#FFF" /></g></g><g transform="translate(103, 70.09996)" id="n2"><g transform="translate(18, 29)" id="o2"><path d="M23.6 41.6 C25.6 38.1 29.7 36 33.7 36.5 C37.7 37 41.2 39.9 42.3 43.8 C43.4 47.6 42.9 51.8 39.2 53.1 C35.8 54.4 27.9 54.9 24.5 52.9 C21 50.8 21.6 45.1 23.6 41.6 z" id="p2" fill="#6E7079" /><path d="M9 21.2 C15.5 14.3 18.6 13 26.7 11.8 C24 10.9 25 9.4 20.1 8.3 C23.4 5.7 26.9 7 31.1 7.1 C33.9 7.2 36.3 7 38.8 8.5 C38.9 5.8 38.7 3.1 38.3 0.5 C44.7 5.4 47.5 16 47.5 24.1 C47.5 37.4 43 52.3 41.7 50.8 C38.4 44.3 34.3 37.9 29.3 36.9 C27.4 36.5 24.3 37.6 22.7 38.8 C16.9 43.3 14.1 50.6 14.7 57.5 C13.6 57.7 12.6 57.9 11.5 58.1 C10.6 54.2 10.7 50.7 11.5 46.8 C8.3 49.2 6 52.7 4.9 56.5 C3.8 51 4.9 45 7.9 40.2 C4.4 40.8 2.5 44 1.3 47 C-0.3 40.3 3.7 26.9 9 21.2 z" id="q2" fill="#6E7079" /><path d="M22.8 38.9 C17.5 42.1 14.2 50.7 14.8 57.6 C13.7 57.8 12.7 58 11.6 58.2 C10.7 54.3 10.8 50.8 11.6 46.9 C8.4 49.3 6.1 52.8 5 56.6 C3.8 51.1 4.9 45.1 7.9 40.3 C4.4 40.9 2.5 44.1 1.3 47.1 C-0.3 40.3 3.7 26.9 9 21.2 C15.5 14.3 18.6 13 26.7 11.8 C24 10.9 25 9.4 20.1 8.3 C23.4 5.7 26.9 7 31.1 7.1 C33.9 7.2 36.3 7 38.8 8.5 C38.9 5.8 38.7 3.1 38.3 0.5 C44.7 5.4 47.5 16 47.5 24.1 C47.5 30.5 46.6 36.5 45.6 41.1 C44.6 46 43.6 49.4 41.1 52 C40.6 52.4 40 52.8 39.2 53.1 C35.8 54.4 27.9 54.9 24.5 52.9 C21 50.8 21.6 45.1 23.6 41.6 C24.9 39.3 27.1 37.6 29.6 36.9 C26.9 37.1 24.3 38 22.8 38.9 z M29.3 35.4 L34 36.3 C31.7 37 26.9 38.5 25.6 40.7 C23.7 44 21.9 48.7 25.2 50.7 C28.4 52.6 35.1 51.9 38.3 50.7 C39 50.4 39.6 50.1 40.1 49.7 C44.6 44.9 46.1 36 46.1 23.5 C46.1 15.9 45.3 7.3 39.3 2.7 C39.7 5.1 39.4 7.9 39.3 10.5 C37 9.1 34.7 8.5 32 8.4 C28.1 8.3 25.3 5.9 22.2 8.3 C26.8 9.3 26.4 11.4 28.9 12.2 C21.3 13.3 17.4 14.3 11.3 20.8 C6.4 26 0.8 35.9 2.3 42.3 C3.4 39.5 6.9 38.8 10.2 38.2 C7.4 42.7 4.5 46.9 5.6 52 C6.6 48.4 9.4 47.1 12.4 44.8 C11.6 48.5 11.6 51.8 12.4 55.4 C13.4 55.2 13.1 55.1 14.1 54.9 C13.5 48.4 18 40.3 22.9 37.3 C24.3 36.4 26.7 35.7 29.3 35.4 z" opacity="0.15" id="r2" /><circle cx="32.5" cy="45.2" r="6.7" id="s2" fill="#282421" /><path d="M33.4 47 C34.4 47 35.2 46.2 35.2 45.2 C35.2 44.2 34.4 43.4 33.4 43.4 C32.4 43.4 31.6 44.2 31.6 45.2 C31.6 46.2 32.4 47 33.4 47 z" id="t2" fill="#FFF" /><path d="M29.4 40.7 C30.6 40 33.1 39 33.4 40 C33.7 41.2 31.9 40.9 30.7 41.9 C29.4 43 29 43.4 28.3 44.2 C27.7 44.8 27.3 42 29.4 40.7 z" id="u2" fill="#FFF" /></g></g><g transform="translate(102.2, 70.09996) translate(67, 29)" id="v2"><g id="w2"><path d="M24.4 41.6 C22.4 38.1 18.3 36 14.3 36.5 C10.3 37 6.8 39.9 5.7 43.8 C4.6 47.6 5.1 51.8 8.8 53.1 C12.2 54.4 20.1 54.9 23.5 52.9 C27 50.8 26.4 45.1 24.4 41.6 z" id="x2" fill="#6E7079" /><circle cx="15.5" cy="45.2" r="6.7" id="y2" fill="#282421" /><path d="M14.6 47 C13.6 47 12.8 46.2 12.8 45.2 C12.8 44.2 13.6 43.4 14.6 43.4 C15.6 43.4 16.4 44.2 16.4 45.2 C16.4 46.2 15.6 47 14.6 47 z" id="z2" fill="#FFF" /><path d="M18.6 40.7 C17.4 40 14.9 39 14.6 40 C14.3 41.2 16.1 40.9 17.3 41.9 C18.6 43 19 43.4 19.7 44.2 C20.3 44.8 20.7 42 18.6 40.7 z" id="a3" fill="#FFF" /><path d="M38.9 21.2 C32.4 14.3 29.3 13 21.2 11.8 C23.9 10.9 22.9 9.4 27.8 8.3 C24.5 5.7 21 7 16.8 7.1 C14 7.2 11.6 7 9.1 8.5 C9 5.8 9.2 3.1 9.6 0.5 C3.2 5.4 0.4 16 0.4 24.1 C0.4 37.4 3.8 46.9 5.7 50.1 C5.8 34.3 19.9 35.7 25.1 38.8 C30.3 41.9 33.7 50.6 33.1 57.5 C34.2 57.7 35.2 57.9 36.3 58.1 C37.2 54.2 37.1 50.7 36.3 46.8 C39.5 49.2 41.8 52.7 42.9 56.5 C44.1 51 43 45 40 40.2 C43.5 40.8 45.4 44 46.6 47 C48.1 40.3 44.2 26.9 38.9 21.2 z" id="b3" fill="#6E7079" /><path d="M25.1 38.9 C30.4 42.1 33.7 50.7 33.1 57.6 C34.2 57.8 35.2 58 36.3 58.2 C37.2 54.3 37.1 50.8 36.3 46.9 C39.5 49.3 41.8 52.8 42.9 56.6 C44.1 51.1 43 45.1 40 40.3 C43.5 40.9 45.4 44.1 46.6 47.1 C48.2 40.3 44.2 26.9 38.9 21.2 C32.4 14.3 29.3 13 21.2 11.8 C23.9 10.9 22.9 9.4 27.8 8.3 C24.5 5.7 21 7 16.8 7.1 C14 7.2 11.6 7 9.1 8.5 C9 5.8 9.2 3.1 9.6 0.5 C3.2 5.4 0.4 16 0.4 24.1 C0.4 31.8 1.6 38.6 3 43.6 C4 47.3 5.5 50.3 6.8 52 C7.3 52.4 7.9 52.8 8.7 53.1 C12.1 54.4 20 54.9 23.4 52.9 C26.9 50.8 26.3 45.1 24.3 41.6 C23 39.3 20.8 37.6 18.3 36.9 C21.1 37.1 23.6 38 25.1 38.9 z M18.7 35.4 L14 36.3 C16.3 37 21.1 38.5 22.4 40.7 C24.3 44 26.1 48.7 22.8 50.7 C19.6 52.6 12.9 51.9 9.7 50.7 C9 50.4 8.4 50.1 7.9 49.7 C3.4 44.9 1.9 36 1.9 23.5 C1.9 15.9 2.7 7.3 8.7 2.7 C8.3 5.1 8.6 7.9 8.7 10.5 C11 9.1 13.3 8.5 16 8.4 C19.9 8.3 22.7 5.9 25.8 8.3 C21.2 9.3 21.6 11.4 19.1 12.2 C26.7 13.3 30.6 14.3 36.7 20.8 C41.7 26.2 47.3 36.1 45.8 42.5 C44.7 39.7 41.2 39 37.9 38.4 C40.7 42.9 43.6 47 42.5 52.2 C41.5 48.6 38.7 47.3 35.7 45 C36.5 48.7 36.5 52 35.7 55.6 C34.7 55.4 35 55.3 34 55.1 C34.6 48.6 30.1 40.5 25.2 37.5 C23.6 36.4 21.2 35.7 18.7 35.4 z" opacity="0.15" id="c3" /></g></g></g></g></g></g><defs><g transform="translate(17.09519, 0.800995) translate(-135.2952, -293.601)" id="d3" fill="#000"><path d="M118.2 302.7 C118.4 307.4 132.5 311.2 149.8 311.2 C167.1 311.2 181.2 307.4 181.4 302.7 C181.4 307.5 181.4 310.1 181.4 310.5 C181.4 315.3 167.3 319.1 149.8 319.1 C132.3 319.1 118.2 315.2 118.2 310.5 L118.2 302.7 L118.2 302.7 z" fill-opacity="0.4528" id="e3" fill="#593001" /><path d="M118.7 301.7 C118.9 306.4 133 310.2 150.3 310.2 C167.6 310.2 181.7 306.4 181.9 301.7 C181.9 306.5 181.9 309.1 181.9 309.5 C181.9 314.3 167.8 318.1 150.3 318.1 C132.8 318.1 118.7 314.2 118.7 309.5 L118.7 301.7 L118.7 301.7 z" id="f3" fill="#DA8113" /><linearGradient x1="46.0545" y1="-118.6926" x2="45.4656" y2="-118.6926" gradientUnits="userSpaceOnUse" gradientTransform="matrix(117.135, 0, 0, 28.4634, -5208.417, 3687.795)" id="g3"><stop offset="0%" stop-color="#D9952A" stop-opacity="1" /><stop offset="6.438854%" stop-color="#CA7519" stop-opacity="1" /><stop offset="30.54%" stop-color="#E3AD3A" stop-opacity="1" /><stop offset="51.05%" stop-color="#FFEC91" stop-opacity="1" /><stop offset="68.8%" stop-color="#E9BD44" stop-opacity="1" /><stop offset="86.24%" stop-color="#FFED6C" stop-opacity="1" /><stop offset="93.87%" stop-color="#F2D353" stop-opacity="1" /><stop offset="100%" stop-color="#F2B947" stop-opacity="1" /></linearGradient><path d="M118.2 301.6 C118.4 306.1 132.7 309.7 150.3 309.7 C167.9 309.7 182.2 306.1 182.4 301.6 C182.4 306.2 182.4 308.7 182.4 309 C182.4 313.5 168 317.2 150.3 317.2 C132.6 317.2 118.2 313.5 118.2 309 L118.2 301.6 L118.2 301.6 z" id="h3" style="fill:url(#g3)" /><linearGradient x1="45.4914" y1="-117.9547" x2="45.9407" y2="-117.5895" gradientUnits="userSpaceOnUse" gradientTransform="matrix(115.425, 0, 0, 29.925, -5125.077, 3826.124)" id="i3"><stop offset="0%" stop-color="#F4E072" stop-opacity="1" /><stop offset="100%" stop-color="#DB9427" stop-opacity="1" /></linearGradient><ellipse cx="150.3" cy="301.5" rx="31.6" ry="8.2" id="j3" style="fill:url(#i3)" /><linearGradient x1="45.4656" y1="-126.0065" x2="46.0545" y2="-126.0065" gradientUnits="userSpaceOnUse" gradientTransform="matrix(117.135, 0, 0, 18.6219, -5208.417, 2651.479)" id="k3"><stop offset="0%" stop-color="#D9952A" stop-opacity="1" /><stop offset="6.438854%" stop-color="#CA7519" stop-opacity="1" /><stop offset="30.54%" stop-color="#E3AD3A" stop-opacity="1" /><stop offset="51.05%" stop-color="#FFEC91" stop-opacity="1" /><stop offset="68.8%" stop-color="#E9BD44" stop-opacity="1" /><stop offset="86.24%" stop-color="#FFED6C" stop-opacity="1" /><stop offset="93.87%" stop-color="#F2D353" stop-opacity="1" /><stop offset="100%" stop-color="#F2B947" stop-opacity="1" /></linearGradient><path d="M119.2 299.9 C119 300.2 118.9 300.6 118.9 301 C118.9 305.5 132.9 309.2 150.3 309.2 C167.7 309.2 181.7 305.5 181.7 301 C181.7 300.6 181.6 300.3 181.4 299.9 C182 300.5 182.4 301.2 182.4 301.9 C182.4 306.4 168 310.1 150.3 310.1 C132.6 310.1 118.2 306.4 118.2 301.9 C118.2 301.3 118.6 300.6 119.2 299.9 z" id="l3" style="fill:url(#k3)" /><linearGradient x1="45.196" y1="-121.5895" x2="45.3746" y2="-120.6758" gradientUnits="userSpaceOnUse" gradientTransform="matrix(101.745, 0, 0, 23.94, -4458.332, 3199.41)" id="m3"><stop offset="0%" stop-color="#F8DD61" stop-opacity="1" /><stop offset="100%" stop-color="#EAA330" stop-opacity="1" /></linearGradient><ellipse cx="150.3" cy="300.8" rx="27.8" ry="6.6" id="n3" style="fill:url(#m3)" /><linearGradient x1="45.5694" y1="-134.267" x2="45.0221" y2="-134.267" gradientUnits="userSpaceOnUse" gradientTransform="matrix(101.745, 0, 0, 13.2525, -4458.332, 2077.223)" id="o3"><stop offset="0%" stop-color="#F4CA2F" stop-opacity="1" /><stop offset="51.38%" stop-color="#BF7737" stop-opacity="1" /><stop offset="100%" stop-color="#E4A929" stop-opacity="1" /></linearGradient><path d="M122.6 301.5 C122.5 301.3 122.4 301 122.4 300.8 C122.4 297.2 134.9 294.2 150.2 294.2 C165.5 294.2 178 297.1 178 300.8 C178 301 177.9 301.3 177.8 301.5 C176.3 298.2 164.5 295.6 150.1 295.6 C135.7 295.6 124.1 298.2 122.6 301.5 z" id="p3" style="fill:url(#o3)" /></g></defs><desc>G7CIF8ICFF9,n3Gr3ZXDQ8c5tmnwIQmdKiWLQgzT83j+s9cqSi570JmQfNKVo2W/Ing2fgDTlFd5iGjuxyHLaoMSWRiZUt97bQ==</desc></svg>