<?xml version="1.0" encoding="utf-8"?><!DOCTYPE svg PUBLIC "-//W3C//DTD SVG 1.1//EN" "http://www.w3.org/Graphics/SVG/1.1/DTD/svg11.dtd"><svg x="0" y="0" width="340px" height="340px" viewBox="0, 0, 340, 340" preserveAspectRatio="xMidYMid" font-size="0" id="a" enable-background="new 0 0 340 340" xmlns="http://www.w3.org/2000/svg" xmlns:xlink="http://www.w3.org/1999/xlink" xmlns:xml="http://www.w3.org/XML/1998/namespace" version="1.1"><g id="b" fill="#000"><g id="c"><g transform="translate(0, 0) translate(0, 224)" id="d"><ellipse cx="168.6" cy="53.1" rx="57.8" ry="12.8" fill-opacity="0.25" id="e" /></g><g id="f"><g transform="translate(100.9, 92.59998) translate(28, 148) scale(-1, 1) translate(-28, -148) translate(0, 127)" id="g"><path d="M52.1 4.6 C47.4 19.1 42.1 27 36.2 28.3 C27.3 30.2 18 29.7 13.9 24.6 C11.2 14.5 14 14.7 15.4 11.9 C16.8 9.1 16.1 4.5 9.2 4.5 C4.6 4.5 1.4 7.4 -0.2 13.3 C-1 16.7 -1.4 19.7 -1.2 22.3 C-1 26.2 0.8 36.4 8.6 40.9 C16.4 45.4 28.6 48.2 43.3 38.5 C53.1 32 56 20.7 52.1 4.6 z" id="h" fill="#51403C" /><path d="M52.1 4.6 C56 20.7 53.1 32 43.3 38.5 C28.6 48.2 16.4 45.4 8.6 40.9 C0.8 36.4 -1 26.2 -1.2 22.3 C-1.4 19.7 -1 16.7 -0.2 13.3 C1.4 7.4 4.6 4.5 9.2 4.5 C16.1 4.5 16.8 9.1 15.4 11.9 C14 14.7 11.2 14.5 13.9 24.6 C18 29.7 27.3 30.2 36.2 28.3 C42.1 27 47.4 19.1 52.1 4.6 z M51.6 9.5 C47.1 21.3 41 28.4 35.3 29.4 C26.7 30.9 18.3 30.2 14.4 26.1 C10.5 22 11.2 17.1 12.6 14.8 C14 12.5 15.5 6.3 8.8 6.3 C4.4 6.3 2.5 8.3 1 13.1 C0.2 15.9 0.3 21.1 0.5 23.2 C0.7 26.4 1.8 35.6 9.3 39.2 C16.8 42.9 25.1 46.4 39.2 38.5 C48.6 33.1 55.4 22.6 51.6 9.5 z" opacity="0.15" id="i" /></g><g transform="translate(126.9733, 273.0999) scale(0.5304465) translate(-123.7, -273.0999) translate(87.10001, 84.59996) translate(29, 123)" id="j"><g transform="translate(22.5, 34.5) scale(-1, 1) translate(-22.5, -34.5)" id="k"><path d="M0.5 21.2 C0.5 5.6 29.7 -5.2 40.3 4.4 C49.4 12.7 41.6 31.9 40.3 33.7 C39.4 34.9 36.1 41.1 30.4 52.5 C37.7 55.2 41.3 58.4 41.3 62.1 C41.3 63.8 41.3 66.1 39.6 67.4 C38.3 68.4 19.6 68.3 15.4 67.4 C11.2 66.5 0.3 66.2 0.5 57.8 C0.7 48.8 0.5 29.2 0.5 21.2 z" id="l" fill="#51403C" /><path d="M0.5 21.2 C0.5 5.6 29.7 -5.2 40.3 4.4 C49.4 12.7 41.6 31.9 40.3 33.7 C39.4 34.9 36.1 41.1 30.4 52.5 C37.7 55.2 41.3 58.4 41.3 62.1 C41.3 63.8 41.3 66.1 39.6 67.4 C38.3 68.4 19.6 68.3 15.4 67.4 C11.2 66.5 0.3 66.2 0.5 57.8 C0.7 48.8 0.5 29.2 0.5 21.2 z M2 21.6 C2 25.7 2.6 32.8 2.5 39.9 C2.4 45.8 1.6 51.8 1.6 55.7 C1.4 63.7 11.3 64.4 15.3 65.3 C19.3 66.2 36.4 66.9 37.7 65.9 C39.3 64.7 39.3 63 39.3 61.4 C39.3 57.9 34.4 55.6 27.4 53 C32.8 42.1 37.7 34 38.5 32.9 C40.9 28.4 47 12.6 38.4 4.6 C28.3 -4.5 2 6.8 2 21.6 z" opacity="0.15" id="m" /></g></g><g transform="translate(214.4267, 273.0999) scale(0.5304465) translate(-217.7, -273.0999) translate(96.20001, 84.59996) translate(107, 157.5) scale(-1, 1) translate(-107, -157.5) translate(85, 123)" id="n"><g id="o"><path d="M42.8 20.7 C42.8 5.1 15.8 -5.2 5.2 4.4 C-3.9 12.7 3.9 31.9 5.2 33.7 C6.1 34.9 9.4 41.1 15.1 52.5 C7.8 55.2 4.2 58.4 4.2 62.1 C4.2 63.8 4.2 66.1 5.9 67.4 C7.2 68.4 24.3 69 30.1 67.4 C30.3 67.3 33.1 66.7 34 66.4 C37.5 65.2 42.4 63.3 42.7 59.9 C44.2 44.3 42.8 29.9 42.8 20.7 z" id="p" fill="#51403C" /><path d="M42.8 20.7 C42.8 29.9 44.2 44.3 42.7 59.9 C42.4 63.3 37.5 65.2 34 66.4 C33.1 66.7 30.3 67.3 30.1 67.4 C24.2 69 7.2 68.4 5.9 67.4 C4.2 66.1 4.2 63.8 4.2 62.1 C4.2 58.4 7.8 55.2 15.1 52.5 C9.4 41.1 6.1 34.9 5.2 33.7 C3.9 31.9 -3.9 12.7 5.2 4.4 C15.8 -5.2 42.8 5.1 42.8 20.7 z M41.8 20.4 C41.8 5.6 16.2 -4.4 6.1 4.8 C-2.5 12.6 6 30.7 7.3 32.4 C8.2 33.5 12.3 42.3 17.7 53.2 C10.8 55.8 5.6 58.3 5.6 61.8 C5.6 63.4 5.7 64.3 7.4 65.6 C8.6 66.5 24.1 67 29.7 65.5 C29.9 65.4 34.8 64.5 35.7 64.2 C39 63.1 41.6 60.9 41.9 57.7 C43.1 42.8 41.8 29.1 41.8 20.4 z" opacity="0.15" id="q" /></g></g><g transform="translate(110.1, 106.6) translate(14, 81)" id="r"><path d="M9.9 30.9 C4.8 38.8 -1.2 50.8 6 63.6 C8.7 68.5 11 75 12.2 79.1 C13.7 84.5 18.4 88.5 24 89.2 C30.5 90 37.9 90.4 45.9 90.4 C54.4 90.4 62.1 90 69.2 89.1 C74.9 88.4 79.6 84.3 81 78.8 C82.4 73.6 83.9 67.3 86.2 63.7 C91.5 55.6 87.6 38 79 29.5 C76.9 27.5 73.7 26.7 70.3 24.6 C63.2 20.4 62.4 0.2 43.1 0.8 C26.9 0.6 25.8 21.5 20.7 24.7 C16 27.6 11.8 27.9 9.9 30.9 z" id="s" fill="#E2DED5" /><path d="M9.9 30.9 C11.8 27.9 16 27.6 20.7 24.7 C25.8 21.5 26.9 0.6 43.1 0.8 C62.4 0.2 63.2 20.4 70.3 24.6 C73.7 26.7 76.9 27.5 79 29.5 C87.6 38 91.5 55.6 86.2 63.7 C83.9 67.3 82.4 73.6 81 78.8 C79.6 84.3 74.9 88.4 69.2 89.1 C62.1 90 54.4 90.4 45.9 90.4 C37.9 90.4 30.5 90 24 89.2 C18.4 88.5 13.7 84.5 12.2 79.1 C11 75 8.7 68.5 6 63.6 C-1.2 50.8 4.8 38.8 9.9 30.9 z M11.6 30.6 C6.7 38.1 1 49.6 7.9 61.8 C10.5 66.5 12.7 72.7 13.8 76.6 C15.2 81.7 19.7 85.6 25 86.2 C31.2 87 38.2 87.3 45.9 87.3 C54 87.3 61.3 86.9 68.1 86.1 C73.5 85.4 78 81.5 79.3 76.3 C80.6 71.3 82.1 65.3 84.3 61.9 C89.4 54.2 85.6 37.4 77.4 29.3 C75.4 27.4 72.3 26.6 69.1 24.6 C62.3 20.6 61.6 1.3 43.2 1.9 C27.8 1.7 26.7 21.6 21.9 24.7 C17.4 27.4 13.4 27.7 11.6 30.6 z" opacity="0.15" id="t" /></g><g transform="translate(125.9, 224.65) scale(1, 0.601833) translate(-125.9, -219.1) translate(92.50001, 105.9) translate(33, 114)" id="u"><g id="v"><path d="M4.6 1.3 C4 6.3 3.4 9.9 3.1 13 C3 14 1.8 19.3 1.6 20.1 C2.3 19.5 2.7 19.7 3.1 19.2 C3.4 18.7 2.6 21.3 2.5 22.5 C2.4 23.5 1.5 25 1.1 26.8 C0.4 29.9 1.2 35.5 1.7 36.8 C2.8 34.7 3.6 31.3 4.4 31.5 C4.6 32.5 4 34.1 3.9 36.9 C3.9 38.2 3.8 43.8 4.2 44.4 C5.5 42.9 6.2 39.4 6.5 40.9 C6.6 41.5 6.4 43.5 6.3 46.2 C6.2 48.6 6.6 51.9 6.8 52.3 C7.7 49.8 7.5 50.3 7.5 51.3 C7.5 52.1 7.9 53.2 7.9 54.1 C7.9 56.4 7.5 62.7 8.4 60.4 C9.3 58.1 9.4 59.5 10.1 58.1 C9.1 61.4 9.4 63.3 9.5 64.7 C11.1 61.9 10.6 67 10.9 68.6 C11.2 69.9 12.4 69.6 12.2 71.3 C11.8 74.8 13.7 78.2 13.9 81.7 C14 83.4 9.6 83.2 6.9 88.2 C6.4 89.1 5.1 91.9 5.3 93.7 C5.4 95.3 6.7 94.5 9.3 94.7 C9.8 94.7 9.4 96.2 11 96.2 C12.2 96 11.7 95.8 14.4 95.6 C15.2 95.5 16.4 97.2 17.4 97.1 C21.6 96.7 27.1 94.6 30 93.7 C31.2 93.4 31.5 90.3 30.8 84.5 C32 82.8 32 81.1 30.8 79.6 C29.2 76.5 31.2 75.9 31.1 74.7 C30.5 69.9 28.6 66.7 28.5 65.1 C28.3 61.5 31 68.4 30.8 66.8 C30.4 62.5 29.2 59.5 29.2 57.6 C29 52.9 28.4 52.7 30 55.2 C30.1 54.6 30.2 51.9 29.5 49.6 C28.8 47.2 27.2 45.1 27.3 44.4 C27.4 44.6 28.6 44.7 29.5 45.8 C30.2 46.6 30.7 48.4 30.8 48.9 C31.7 47.1 32.1 45.5 31.6 41.5 C31.5 41.1 31 39.5 30.4 38.6 C29.8 37.6 29 37.3 28.9 36.9 C28.7 36.2 29.3 36.8 30.8 37.7 C30.3 36.3 30.1 34.6 28.9 32.6 C28 31 24.8 27.3 23.1 26.9 C23.6 26.6 25.5 26.3 27.7 28.2 C27.9 27.3 27.2 25.7 26.2 24.7 C24.1 22.8 21.2 21.5 20.8 20.8 C20.1 19.5 20.6 20.1 23.1 20.8 C21.8 17.1 19.3 17.1 18.6 15.6 C18 14.3 16.4 13.5 14.3 12.4 C15.3 12.5 14.5 11.6 16.7 12.4 C16.2 10.8 12.8 6.8 11.5 5.5 C10 4 4.8 -0.8 4.6 1.3 z" id="w" fill="#7F6458" /><path d="M14.9 12.3 C13.8 10.9 12.6 9.5 11.9 8.8 C10.5 7.4 5.7 3 5.5 4.9 C4.9 9.5 4.4 12.9 4.1 15.7 C4 16.6 2.9 21.5 2.7 22.3 C3.3 21.7 3.7 21.9 4.1 21.5 C4.4 21 3.6 23.4 3.5 24.6 C3.4 25.5 2.6 26.9 2.2 28.6 C1.6 31.3 1.6 32 2 33.2 C3 31.3 4.1 28.3 4.9 28.5 C5.1 29.4 4.9 35.2 4.8 37.8 C4.8 39 4.4 39.9 4.8 40.4 C6 39.1 7.7 35.7 8 37.1 C8.1 37.7 7.1 43.9 7.1 46.4 C7 48.6 7.5 48.3 7.6 48.7 C8.4 46.4 9.7 47.2 9.7 48.1 C9.7 48.8 9.4 52.6 9.4 53.5 C9.4 55.6 8.5 59.4 9.3 57.3 C10.1 55.2 11.5 57.5 12.1 56.2 C11.2 59.3 10.7 61.1 10.8 62.4 C12.3 59.8 12.2 65.4 12.5 66.9 C12.8 68.1 13.6 68.9 13.4 70.5 C13 73.7 15.1 79.8 15.2 83 C15.3 84.6 12.9 84.1 10.1 86.3 C9.6 87.1 7.4 89.7 7.6 91.4 C7.7 92.9 7.7 91.7 10.1 91.9 C10.6 91.9 10.5 93.2 12 93.2 C13.1 93 12.8 93 15.3 92.8 C16 92.7 16.5 93.7 17.5 93.6 C21.4 93.2 24.6 92.4 27.3 91.6 C28.4 91.3 30 89.7 29.3 84.3 C30.4 82.7 30.3 77.9 29.2 76.6 C27.7 73.7 29.3 72.8 29.2 71.7 C28.6 67.3 27.9 65.6 27.8 64.1 C27.6 60.8 30.1 65.2 29.9 63.7 C29.5 59.7 28.4 58.9 28.4 57.1 C28.2 52.8 28 51.3 29.5 53.6 C29.6 53 29.3 51.8 28.7 49.7 C28.1 47.5 26.6 45.5 26.7 44.9 C26.8 45.1 26.5 41.6 27.4 42.6 C28 43.3 30.7 44.9 31.3 46.9 C31.2 44.5 31.4 45.9 31 42.2 C30.9 41.8 30.2 40.3 29.6 39.5 C29 38.6 27.5 37 27.4 36.6 C27.2 36 28.2 34.9 29.6 35.7 C29.1 34.4 28.5 34 27.4 32.1 C26.6 30.6 23.2 26.8 21.6 26.4 C22.1 26.1 24.5 24.7 26.5 26.5 C26.7 25.7 25 25.5 24.1 24.6 C22.2 22.8 21 23.7 20.7 23 C20.1 21.8 20.5 22.4 22.8 23 C22.7 22.6 22.5 22.2 22.3 21.9 C23.4 22.6 25.1 23.6 26.4 24.8 C27.4 25.8 28.1 27.4 27.9 28.3 C25.7 26.4 23.8 26.7 23.3 27 C25 27.4 28.2 31.1 29.1 32.7 C30.3 34.7 30.5 36.4 31 37.8 C29.5 36.9 28.9 36.3 29.1 37 C29.2 37.4 30 37.7 30.6 38.7 C31.2 39.6 31.7 41.2 31.8 41.6 C32.3 45.6 31.9 47.2 31 49 C30.9 48.5 30.4 46.7 29.7 45.9 C28.8 44.8 27.6 44.7 27.5 44.5 C27.4 45.2 29 47.3 29.7 49.7 C30.4 52 30.3 54.7 30.2 55.3 C28.6 52.8 29.2 53 29.4 57.7 C29.4 59.6 30.6 62.6 31 66.9 C31.2 68.5 28.5 61.6 28.7 65.2 C28.8 66.8 30.7 70 31.3 74.8 C31.4 76 29.4 76.6 31 79.7 C32.2 81.2 32.2 82.9 31 84.6 C31.7 90.4 31.4 93.5 30.2 93.8 C27.3 94.7 21.8 96.8 17.6 97.2 C16.6 97.3 15.4 95.6 14.6 95.7 C11.9 95.9 12.4 96.1 11.2 96.3 C9.6 96.3 10 94.8 9.5 94.8 C6.9 94.6 5.6 95.4 5.5 93.8 C5.3 92 6.6 89.2 7.1 88.3 C9.8 83.3 14.2 83.5 14.1 81.8 C13.9 78.3 12 74.9 12.4 71.4 C12.6 69.7 11.4 70 11.1 68.7 C10.8 67.1 11.3 62 9.7 64.8 C9.6 63.4 9.3 61.5 10.3 58.2 C9.6 59.6 9.5 58.2 8.6 60.5 C7.7 62.8 8.1 56.5 8.1 54.2 C8.1 53.3 7.7 52.2 7.7 51.4 C7.7 50.4 7.9 49.9 7 52.4 C6.8 52 6.4 48.7 6.5 46.3 C6.6 43.6 6.8 41.6 6.7 41 C6.4 39.5 5.7 43 4.4 44.5 C4 43.9 4.1 38.3 4.1 37 C4.2 34.2 4.8 32.6 4.6 31.6 C3.8 31.4 3 34.8 1.9 36.9 C1.4 35.6 0.6 30 1.3 26.9 C1.7 25.1 2.6 23.6 2.7 22.6 C2.8 21.4 3.6 18.8 3.3 19.3 C2.9 19.8 2.5 19.6 1.8 20.2 C1.8 19.3 3 14 3.1 13 C3.4 9.9 4 6.3 4.6 1.3 C4.8 -0.8 10 4 11.5 5.5 C12.8 6.8 16.2 10.8 16.7 12.4 C15.2 11.9 15.1 12.1 14.9 12.3 z M15.4 13 C16.9 13.8 18.1 14.6 18.6 15.6 C19.3 17.1 21.8 17.1 23.1 20.8 C21.8 20.4 21 20.1 20.7 20 C19.8 19.2 18.8 18.9 18.5 18.1 C17.9 16.9 16.5 16.2 14.5 15.1 C15.4 15.2 14.7 14.4 16.7 15.1 C16.5 14.6 16 13.8 15.4 13 z" opacity="0.15" id="x" /><path d="M83 1.7 C84.2 6.5 84.4 11.6 85.4 14.5 C85.7 15.3 86.9 19.3 87.1 20.1 C86.4 19.5 86 19.7 85.6 19.2 C85.3 18.7 86.1 21.3 86.2 22.5 C86.3 23.5 87.2 25 87.6 26.8 C88.3 29.9 87.5 35.5 87 36.8 C85.9 34.7 85.1 31.3 84.3 31.5 C84.1 32.5 84.7 34.1 84.8 36.9 C84.8 38.2 84.9 43.8 84.5 44.4 C83.2 42.9 82.5 39.4 82.2 40.9 C82.1 41.5 82.3 43.5 82.4 46.2 C82.5 48.6 82.1 51.9 81.9 52.3 C81 49.8 81.2 50.3 81.2 51.3 C81.2 52.1 80.8 53.2 80.8 54.1 C80.8 56.4 81.2 62.7 80.3 60.4 C79.4 58.1 79.3 59.5 78.6 58.1 C79.6 61.4 79.3 63.3 79.2 64.7 C77.6 61.9 78.1 67 77.8 68.6 C77.5 69.9 76.3 69.6 76.5 71.3 C76.9 74.8 75 78.2 74.8 81.7 C74.7 83.4 79.1 83.2 81.8 88.2 C82.3 89.1 83.6 91.9 83.4 93.7 C83.3 95.3 82 94.5 79.4 94.7 C78.9 94.7 79.3 96.2 77.7 96.2 C76.5 96 77 95.8 74.3 95.6 C73.5 95.5 72.3 97.2 71.3 97.1 C67.1 96.7 61.6 94.6 58.7 93.7 C57.5 93.4 57.2 90.3 57.9 84.5 C56.7 82.8 56.7 81.1 57.9 79.6 C59.5 76.5 57.5 75.9 57.6 74.7 C58.2 69.9 60.1 66.7 60.2 65.1 C60.4 61.5 57.7 68.4 57.9 66.8 C58.3 62.5 59.5 59.5 59.5 57.6 C59.7 52.9 60.3 52.7 58.7 55.2 C58.6 54.6 58.5 51.9 59.2 49.6 C59.9 47.2 61.5 45.1 61.4 44.4 C61.3 44.6 60.1 44.7 59.2 45.8 C58.5 46.6 58 48.4 57.9 48.9 C57 47.1 56.6 45.5 57.1 41.5 C57.2 41.1 57.7 39.5 58.3 38.6 C58.9 37.6 62.4 36.7 62.5 36.3 C62.7 35.6 60.7 34.1 59.2 35.1 C59.7 33.7 59.8 33.6 60.9 31.6 C61.8 30 65.1 27.3 66.8 26.9 C66.3 26.6 63.1 26.3 60.9 28.2 C60.7 27.3 61.4 25.7 62.4 24.7 C64.5 22.8 67.4 21.5 67.8 20.8 C68.5 19.5 68 20.1 65.5 20.8 C66.8 17.1 69.3 17.1 70 15.6 C70.6 14.3 72.2 13.5 74.3 12.4 C73.2 12.5 76.8 11.1 72.3 11 C73.3 9.7 76.5 7.4 77.7 6.9 C78.5 6.2 80.6 4.3 83 1.7 z" id="y" fill="#7F6458" /><path d="M73.9 12.3 C75 10.9 76.2 9.5 76.9 8.8 C78.3 7.4 83.1 3 83.3 4.9 C83.9 9.5 84.4 12.9 84.7 15.7 C84.8 16.6 85.9 21.5 86.1 22.3 C85.5 21.7 85.1 21.9 84.7 21.5 C84.4 21 85.2 23.4 85.3 24.6 C85.4 25.5 86.2 26.9 86.6 28.6 C87.2 31.5 87.3 32.1 86.8 33.3 C85.8 31.4 84.7 28.4 83.9 28.6 C83.7 29.5 83.9 35.3 84 37.9 C84 39.1 84.4 40 84 40.5 C82.8 39.1 81.1 35.8 80.8 37.2 C80.7 37.8 81.7 44 81.7 46.5 C81.8 48.7 81.3 48.4 81.2 48.8 C80.4 46.5 79.1 47.3 79.1 48.2 C79.1 48.9 79.4 52.7 79.4 53.6 C79.4 55.7 80.3 59.5 79.5 57.4 C78.7 55.3 77.3 57.6 76.7 56.3 C77.6 59.4 78.1 61.2 78 62.5 C76.5 59.9 76.6 65.5 76.3 67 C76 68.2 75.2 69 75.4 70.6 C75.8 73.8 73.7 79.9 73.6 83.1 C73.5 84.7 75.9 84.2 78.7 86.4 C79.2 87.2 81.4 89.8 81.2 91.5 C81.1 93 81.1 91.8 78.7 92 C78.2 92 78.3 93.3 76.8 93.3 C75.7 93.1 76 93.1 73.5 92.9 C72.8 92.8 72.3 93.8 71.3 93.7 C67.4 93.3 64.2 92.5 61.5 91.7 C60.4 91.4 58.8 89.8 59.5 84.4 C58.4 82.8 58.5 78 59.6 76.7 C61.1 73.8 59.5 72.9 59.6 71.8 C60.2 67.4 60.9 65.7 61 64.2 C61.2 60.9 58.7 65.3 58.9 63.8 C59.3 59.8 60.4 59 60.4 57.2 C60.6 52.9 60.8 51.4 59.3 53.7 C59.2 53.1 59.5 51.9 60.1 49.8 C60.7 47.6 62.2 45.6 62.1 45 C62 45.2 62.3 41.7 61.4 42.7 C60.8 43.4 58.1 45 57.5 47 C57.6 44.6 57.4 46 57.8 42.3 C57.9 41.9 58.6 40.4 59.2 39.6 C59.8 38.7 61.3 37.1 61.4 36.7 C61.6 36.1 60.6 35 59.2 35.8 C59.7 34.5 60.3 34.1 61.4 32.2 C62.2 30.7 65.6 26.9 67.2 26.5 C66.7 26.2 64.3 24.8 62.3 26.6 C62.1 25.8 63.8 25.6 64.7 24.7 C66.6 22.9 67.8 23.8 68.1 23.1 C68.7 21.9 68.3 22.5 66 23.1 C66.1 22.7 66.3 22.3 66.5 22 C65.4 22.7 63.7 23.7 62.4 24.9 C61.4 25.9 60.7 27.5 60.9 28.4 C63.1 26.5 65 26.8 65.5 27.1 C63.8 27.5 60.6 31.2 59.7 32.8 C58.5 34.8 58.3 36.5 57.8 37.9 C59.3 37 59.9 36.4 59.7 37.1 C59.6 37.5 58.8 37.8 58.2 38.8 C57.6 39.7 57.1 41.3 57 41.7 C56.5 45.7 56.9 47.3 57.8 49.1 C57.9 48.6 58.4 46.8 59.1 46 C60 44.9 61.2 44.8 61.3 44.6 C61.4 45.3 59.8 47.4 59.1 49.8 C58.4 52.1 58.5 54.8 58.6 55.4 C60.2 52.9 59.6 53.1 59.4 57.8 C59.4 59.7 58.2 62.7 57.8 67 C57.6 68.6 60.3 61.7 60.1 65.3 C60 66.9 58.1 70.1 57.5 74.9 C57.4 76.1 59.4 76.7 57.8 79.8 C56.6 81.3 56.6 83 57.8 84.7 C57.1 90.5 57.4 93.6 58.6 93.9 C61.5 94.8 67 96.9 71.2 97.3 C72.2 97.4 73.4 95.7 74.2 95.8 C76.9 96 76.4 96.2 77.6 96.4 C79.2 96.4 78.8 94.9 79.3 94.9 C81.9 94.7 83.2 95.5 83.3 93.9 C83.5 92.1 82.2 89.3 81.7 88.4 C79 83.4 74.6 83.6 74.7 81.9 C74.9 78.4 76.8 75 76.4 71.5 C76.2 69.8 77.4 70.1 77.7 68.8 C78 67.2 77.5 62.1 79.1 64.9 C79.2 63.5 79.5 61.6 78.5 58.3 C79.2 59.7 79.3 58.3 80.2 60.6 C81.1 62.9 80.7 56.6 80.7 54.3 C80.7 53.4 81.1 52.3 81.1 51.5 C81.1 50.5 80.9 50 81.8 52.5 C82 52.1 82.4 48.8 82.3 46.4 C82.2 43.7 82 41.7 82.1 41.1 C82.4 39.6 83.1 43.1 84.4 44.6 C84.8 44 84.7 38.4 84.7 37.1 C84.6 34.3 84 32.7 84.2 31.7 C85 31.5 85.8 34.9 86.9 37 C87.4 35.7 88.2 30.1 87.5 27 C87.1 25.2 86.2 23.7 86.1 22.7 C86 21.5 85.2 18.9 85.5 19.4 C85.9 19.9 86.3 19.7 87 20.3 C86.8 19.5 85.6 14.2 85.5 13.2 C85.2 10.1 84.6 6.5 84 1.5 C83.8 -0.6 78.6 4.2 77.1 5.7 C75.8 7 72.4 11 71.9 12.6 C73.5 11.9 73.6 12.1 73.9 12.3 z M73.3 13 C71.8 13.8 70.6 14.6 70.1 15.6 C69.4 17.1 66.9 17.1 65.6 20.8 C66.9 20.4 67.7 20.1 68 20 C68.9 19.2 69.9 18.9 70.2 18.1 C70.8 16.9 72.2 16.2 74.2 15.1 C73.3 15.2 74 14.4 72 15.1 C72.2 14.6 72.7 13.8 73.3 13 z" opacity="0.15" id="z" /></g></g></g><g id="a1"><g transform="translate(102.8, 110.6) translate(23, 25)" id="b1"><g id="c1"><g id="d1"><path d="M87.2 74.6 C85.9 71 84.6 66.6 82.2 61.8 C83.8 62.4 85.3 63 86.1 64.5 C84.9 58.9 83.6 52.1 80.2 47.3 C80.2 46.9 80.2 46.5 80.2 46.1 C80 31.9 77.9 25.5 76.4 19.1 C74 9 65.6 3.7 57.8 1.1 C52.1 -0.8 46.6 1.3 43.9 1.3 C41.2 1.3 35.7 -0.8 30 1.1 C22.1 3.8 13.7 9 11.4 19.1 C9.9 25.5 7.8 31.9 7.6 46.1 C7.6 46.5 7.6 46.9 7.6 47.3 C4.2 52 2.9 58.9 1.7 64.5 C2.5 63 4 62.4 5.6 61.8 C3.3 66.6 1.9 71.1 0.6 74.6 C2.1 72.7 6 72.5 7.5 70.5 C6.5 74.9 5.8 87.6 12.8 92.5 C13.7 88.4 15.2 84.6 17.2 81.1 C17.5 82.6 18.1 84.3 18.9 86.1 C19.9 80.8 20.9 78.7 22.5 77.6 C21.8 84 20.9 88 23.7 89.6 C23.6 86.7 26 83.3 28.4 80.2 C32.3 83 36.8 84 43.9 84 C51.1 83.9 55.5 83 59.4 80.2 C61.8 83.4 64.2 86.8 64.1 89.6 C66.8 88 66 84 65.3 77.6 C66.9 78.8 67.9 80.8 68.9 86.1 C69.7 84.3 70.2 82.6 70.6 81.1 C72.6 84.6 74.2 88.5 75 92.5 C82 87.5 81.2 74.9 80.3 70.5 C81.8 72.4 85.6 72.7 87.2 74.6 z" id="e1" fill="#FEFEFE" /><path d="M87.2 74.6 C85.6 72.7 81.8 72.4 80.3 70.5 C81.2 74.9 82 87.5 75 92.5 C74.2 88.5 72.6 84.6 70.6 81.1 C70.2 82.6 69.7 84.3 68.9 86.1 C67.9 80.8 66.9 78.8 65.3 77.6 C66 84 66.8 88 64.1 89.6 C64.2 86.8 61.8 83.4 59.4 80.2 C55.5 83 51.1 83.9 43.9 84 C36.8 84 32.3 83 28.4 80.2 C26 83.3 23.6 86.7 23.7 89.6 C20.9 88 21.8 84 22.5 77.6 C20.9 78.7 19.9 80.8 18.9 86.1 C18.1 84.3 17.5 82.6 17.2 81.1 C15.2 84.6 13.7 88.4 12.8 92.5 C5.8 87.6 6.5 74.9 7.5 70.5 C6 72.5 2.1 72.7 0.6 74.6 C1.9 71.1 3.3 66.6 5.6 61.8 C4 62.4 2.5 63 1.7 64.5 C2.9 58.9 4.2 52 7.6 47.3 C7.6 46.9 7.6 46.5 7.6 46.1 C7.8 31.9 9.9 25.5 11.4 19.1 C13.7 9 22.1 3.8 30 1.1 C35.7 -0.8 41.2 1.3 43.9 1.3 C46.6 1.3 52.1 -0.8 57.8 1.1 C65.6 3.7 74 9 76.4 19.1 C77.9 25.5 80 31.9 80.2 46.1 C80.2 46.5 80.2 46.9 80.2 47.3 C83.6 52.1 84.9 58.9 86.1 64.5 C85.3 63 83.8 62.4 82.2 61.8 C84.6 66.6 85.9 71 87.2 74.6 z M84.1 70.6 C82.8 67.2 81.6 63.1 79.4 58.7 C80.9 59.2 82.3 59.8 83 61.2 C81.9 56 80.7 49.7 77.6 45.2 C77.6 44.9 77.6 44.5 77.6 44.1 C77.4 31 75.4 25 74 19.1 C71.8 9.7 64 4.8 56.8 2.4 C51.5 0.6 46.4 2.1 43.9 2.1 C41.4 2.1 36.3 0.6 31 2.4 C23.7 4.9 15.9 9.7 13.8 19.1 C12.4 25 10.4 31 10.2 44.1 C10.2 44.5 10.2 44.9 10.2 45.2 C7.1 49.6 5.9 56 4.8 61.2 C5.5 59.8 6.9 59.2 8.4 58.7 C6.2 63.1 5 67.3 3.7 70.6 C5.1 68.8 8.8 68.6 10.1 66.7 C9.2 70.8 6 82.6 12.5 87.2 C13.3 83.3 15.9 79.8 17.7 76.6 C18 78 18.4 79 19.1 80.7 C20.1 75.8 22.6 74.4 24.1 73.3 C23.4 79.3 22.4 82 24.2 83.6 C24.8 81.2 27.3 78.6 29.5 75.7 C33.1 78.3 37.3 80 43.9 80 C50.6 79.9 54.7 78.3 58.3 75.7 C60.5 78.7 63.8 81 63.7 83.6 C66.2 82.1 64.4 79.3 63.7 73.3 C65.2 74.4 67.7 75.1 68.7 80 C69.4 78.3 71.8 78 72.2 76.6 C74 79.8 74.7 83.4 75.4 87.2 C81.9 82.5 78.5 70.8 77.7 66.7 C79 68.5 82.6 68.8 84.1 70.6 z" opacity="0.15" id="f1" /></g></g></g><g transform="translate(147.3, 142.3) rotate(20, 0, 0) scale(0.7) translate(-151.3, -151.3) translate(119.6, 134.7) translate(0, 4)" id="g1"><path d="M41.1 0.6 C31.1 -2.6 14.7 14.6 3.6 20.9 C-6.3 26.5 6.2 45.2 17.4 62.4 C23.6 71.9 22.7 83.6 28.6 82.4 C35.6 81 41.1 70.6 37 59 C32.9 47.4 32.1 16.9 41.1 0.6 z" id="h1" fill="#51403C" /><path d="M41.1 0.6 C32.1 16.9 32.9 47.4 37 59 C41.1 70.6 35.6 81 28.6 82.4 C22.7 83.6 23.6 71.9 17.4 62.4 C6.2 45.2 -6.3 26.5 3.6 20.9 C14.7 14.6 31.1 -2.6 41.1 0.6 z M38 2 C29.2 -1 16.9 15.9 7 21.6 C-1.7 26.7 9.1 42.3 19 58 C24.5 66.7 23.3 77.2 28.5 76.1 C34.7 74.8 38 66.1 34.4 55.4 C30.8 44.9 30.1 16.9 38 2 z" opacity="0.15" id="i1" /></g><g transform="translate(192.4, 142.3) rotate(-20, 0, 0) scale(0.7) translate(-188.4, -151.3) translate(98.1, 134.7) translate(102, 45.5) scale(-1, 1) translate(-102, -45.5) translate(81, 4)" id="j1"><path d="M41.9 0.6 C31.9 -2.6 15.5 14.6 4.4 20.9 C-5.5 26.5 7 45.2 18.2 62.4 C24.4 71.9 23.5 83.6 29.4 82.4 C36.4 81 41.9 70.6 37.8 59 C33.7 47.4 32.9 16.9 41.9 0.6 z" id="k1" fill="#51403C" /><path d="M41.9 0.6 C32.9 16.9 33.7 47.4 37.8 59 C41.9 70.6 36.4 81 29.4 82.4 C23.5 83.6 24.4 71.9 18.2 62.4 C7 45.2 -5.5 26.5 4.4 20.9 C15.5 14.6 31.9 -2.6 41.9 0.6 z M39.7 3 C30.8 0.1 16.1 15.5 6.2 21.1 C-2.6 26.1 8.5 42.8 18.5 58.2 C24 66.7 23.2 77.1 28.5 76.1 C34.8 74.8 39.7 65.6 36 55.2 C32.3 44.8 31.7 17.5 39.7 3 z" opacity="0.15" id="l1" /></g><g id="m1"><g transform="translate(102.6, 106.7) translate(51, 30)" id="n1"><g id="o1"><path d="M30.4 60.8 C26.6 54.2 23.9 51.2 20.9 43.5 C19 34.9 16.9 19.5 18.5 15 C20.3 9.9 23.1 3.4 21.3 1.4 C19.3 -0.9 15.9 0.6 15.9 0.6 C15.9 0.6 12.5 -0.9 10.5 1.4 C8.7 3.4 11.6 9.9 13.3 15 C14.9 19.6 12.9 34.9 10.9 43.5 C7.9 51.2 5.3 54.3 1.4 60.8 C-0.9 64.8 -0.8 75.4 6.3 78 C9.1 79 14.5 79.3 15.9 79.3 C17.2 79.3 22.6 79 25.5 78 C32.6 75.4 32.8 64.8 30.4 60.8 z" id="p1" fill="#E2DED5" /><path d="M30.4 60.8 C32.8 64.8 32.6 75.4 25.5 78 C22.6 79 17.2 79.3 15.9 79.3 C14.5 79.3 9.1 79 6.3 78 C-0.8 75.4 -0.9 64.8 1.4 60.8 C5.3 54.3 7.9 51.2 10.9 43.5 C12.9 34.9 14.9 19.6 13.3 15 C11.6 9.9 8.7 3.4 10.5 1.4 C12.5 -0.9 15.9 0.6 15.9 0.6 C15.9 0.6 19.3 -0.9 21.3 1.4 C23.1 3.4 20.3 9.9 18.5 15 C16.9 19.5 19 34.9 20.9 43.5 C23.9 51.2 26.6 54.2 30.4 60.8 z M27.6 59.1 C23.9 52.8 22.5 49.6 19.7 42.3 C17.9 34.1 16.8 17.6 18.3 13.3 C20 8.5 22.2 3.9 20.4 2 C18.5 -0.2 15.9 1.5 15.9 1.5 C15.9 1.5 13.3 0.1 11.4 2.3 C9.7 4.2 12.3 9.1 13.9 13.9 C15.4 18.3 14.3 34.1 12.4 42.3 C9.5 49.6 7.5 53.2 3.8 59.4 C1.6 63.2 0 72.7 6.8 75.1 C9.4 76.1 14.6 76.4 15.9 76.4 C17.1 76.4 22.3 76.1 25 75.1 C31.8 72.7 29.8 62.9 27.6 59.1 z" opacity="0.15" id="q1" /></g></g><g transform="translate(169.7, 207.8) scale(0.7, 0.4) translate(-169.7, -207.8) translate(107.2, 127.4) translate(50, 64)" id="r1"><g id="s1" fill="#282421"><path d="M24.4 29.3 C24.3 28.8 23.9 28.4 23.8 27.9 C22.5 24.6 21.9 21 19.9 17.9 C18.4 15.6 16.4 14.4 14 13.8 L14 2.3 C14 1.5 13.3 0.8 12.5 0.8 C11.7 0.8 11 1.5 11 2.3 L11 13.6 C10.1 13.8 9.3 14.1 8.6 14.5 C5.4 16.2 3.9 19.6 2.8 22.8 C2.3 24.4 1.8 26.1 1.2 27.6 C1 28.1 0.6 28.6 0.5 29.1 C0.4 29.8 0.9 29.9 1.4 29.5 C2.3 28.5 2.8 26.9 3.3 25.7 C4 24 4.7 22.3 5.7 20.7 C6.5 19.3 7.6 18 9 17.1 C10.1 16.5 10.8 16.4 12.4 16.3 C14 16.2 15.2 16.7 15.9 17.1 C18.9 18.8 20.2 22.5 21.5 25.5 C22 26.7 22.5 28.4 23.5 29.4 C23.9 30 24.6 30 24.4 29.3 z" id="t1" /></g></g><g transform="translate(169.6, 196.5999) scale(0.75) translate(-169.6, -196.5999) translate(96.49999, 109.5) translate(61, 60)" id="u1"><path d="M3.4 29.3 C5.1 31.6 6.8 32.9 11.9 32.9 C17 32.9 20.1 30.4 20.6 27.9 C21.1 25.4 20.5 20.8 16.3 19.7 C12.1 18.6 7.1 18.8 5.4 20.8 C4.7 21.6 3.5 22.7 2.9 24.1 C2.1 26.1 2.5 28 3.4 29.3 z" id="v1" /><path d="M8.2 20.6 C5.8 21.6 4.3 23 6.5 22.4 C7.9 22 9.3 21.7 10.8 21.8 C11.6 21.9 13.3 22 14.7 22.3 C16.1 23.4 18 24 18.6 23.5 C19.2 23 18.6 21.2 16.3 20.5 C14 19.8 10.7 19.6 8.2 20.6 z" id="w1" fill="#FFF" /></g><g transform="translate(97.29999, 110.1) translate(53, 56)" id="x1"><g id="y1"><path d="M11 8.3 C11 7.7 11 4.9 9.8 3 C8.6 1.1 7.4 0.6 5.8 0.2 C4.2 -0.2 2.3 0 1.3 0.9 C0.3 1.8 0 4 0 5.5 C0 7 0.8 8.8 2.8 9.4 C4.1 9.8 6 9.8 8.6 9.4 C10.2 9.1 11 8.8 11 8.3 z" id="z1" /><path d="M5 4.4 C5.6 4.4 6.4 3.6 6.4 3 C6.4 2.4 5.6 2 5 2 C4.4 2 4 2.4 4 3 C4 3.6 4.4 4.4 5 4.4 z" id="a2" fill="#FFFFFE" /></g></g><g transform="translate(95.69998, 110.1) translate(82, 56)" id="b2"><g id="c2"><path d="M0 8.3 C0 7.7 0 4.9 1.2 3 C2.4 1.1 3.6 0.6 5.2 0.2 C6.8 -0.2 8.7 0 9.7 0.9 C10.7 1.8 11 4 11 5.5 C11 7 10.2 8.8 8.2 9.3 C6.9 9.7 5 9.7 2.4 9.3 C0.8 9.1 0 8.8 0 8.3 z" id="d2" /><path d="M6 4.4 C6.6 4.4 7.4 3.6 7.4 3 C7.4 2.4 6.6 2 6 2 C5.4 2 5 2.4 5 3 C5 3.6 5.4 4.4 6 4.4 z" id="e2" fill="#FFFFFE" /></g></g></g></g></g><g id="f2"><g transform="matrix(1, 0, 0, 1, 0, -0.02001953)"><g transform="translate(129.8779, 217.9411) scale(0.97791, 0.9950176)"><g transform="translate(54, 744) translate(-2241.844, -1048.593)" id="g2"><g transform="translate(12, 5)" id="h2"><g transform="translate(50.44511, 14.27116) rotate(2.426555, 0, 0) translate(-50.44511, -14.27116) translate(31.44512, 1.271163)" id="i2"><g transform="translate(2.999999, 0)" id="j2"><path d="M2226.5 206.6 L2226.7 206.5 C2228.4 207.3 2229.2 209 2230.2 210.4 C2231.5 212.3 2234.1 214.5 2232.6 217 C2232.4 217.4 2232.1 217.7 2231.8 217.9 C2229.3 220.3 2226 221.3 2223.2 223 C2221 224.3 2218.8 225.9 2216.5 227 C2214.6 227.9 2212.7 228.9 2210.7 229.6 C2209.4 230.1 2208 230.4 2206.7 230.9 C2205.8 231.3 2204.8 231.8 2204 232.3 C2202.2 233.1 2200.3 233.6 2198.6 234.4 C2197.4 235 2192.7 236.1 2193.9 235.7 C2199.1 234.2 2190.6 224.4 2194.3 223 C2199.3 221 2200 221.1 2202 220.3 C2207.8 217.9 2213.2 214.6 2218.3 211.1 C2220.3 209.8 2222.2 208.4 2224.3 207.2 C2224.7 207.1 2225.6 206.6 2226.5 206.6 z" id="k2" fill="#737373" /></g><path d="M2197.5 224.7 C2198.4 224.2 2201.3 232.6 2200.2 233.5 C2198.8 234.8 2197.1 229.8 2196.8 229.1 C2196.4 228.3 2195.7 227.4 2196.2 226.5 C2196.5 225.9 2197.1 225.2 2197.5 224.7 z" id="l2" fill="#8F8F8F" /><path d="M2195 231.8 C2194.8 231.1 2194.6 230.3 2194.4 229.6 C2195.6 229.4 2196.8 229 2197.9 228.8 C2198.8 228.6 2198.7 230.2 2199 230.9 C2197.8 231.1 2196.3 231.4 2195 231.8 z" id="m2" fill="#EBEBEB" /><g transform="translate(2.788089, 20.99068) rotate(4.658804, 0, 0) translate(-2.788089, -20.99068) translate(0.788089, 19.49068)" id="n2"><path d="M2203.2 33.1 C2202.8 33.1 2202.7 33 2202.6 32.9 C2202.4 32.5 2203.1 32 2203.5 31.8 C2204.1 31.6 2205 31 2205.6 31 C2206.1 30.9 2206.7 31.5 2206.2 31.9 C2206 32.1 2205.6 32.1 2205.4 32.3 C2204.7 32.6 2203.9 32.9 2203.2 33.1 C2203.4 33 2203.3 33.1 2203.2 33.1 z" id="o2" fill="#FFF" /></g><path d="M2199.3 234.5 C2198.4 234.5 2197.4 233.9 2196.9 233.1 C2196.3 232 2196.7 230.9 2196.4 229.8 C2196.2 228.9 2195.3 228.1 2195.1 227.2 C2194.9 226.1 2195.5 225.1 2196.3 224.4 C2198.2 223 2202.5 222 2203.4 225 C2204.1 226.7 2204.8 228.7 2205.1 230.5 C2205.4 233.1 2201.4 234.5 2199.3 234.5 z M2200.7 225.3 C2200.3 225.4 2197.4 225.9 2197.5 226.5 C2197.6 227.2 2198.3 227.8 2198.7 228.5 C2198.9 229.3 2199.1 230.2 2199.1 231.1 C2199 232.3 2199.3 232.2 2200.3 231.9 C2201 231.7 2201.7 231.4 2202.4 231.2 C2203 231 2202.5 230.1 2202.4 229.8 C2202.1 229.2 2201.4 225.3 2200.7 225.3 z" id="p2" fill="#EBEBEB" /><path d="M2199.3 233.9 C2196.7 233.9 2197.4 231.3 2197.1 229.7 C2196.7 228 2194.5 226 2196.9 224.7 C2198.6 223.9 2202.1 222.7 2202.8 225.2 C2203.3 226.9 2204 228.5 2204.3 230.3 C2205 232.7 2201.2 233.9 2199.3 233.9 z M2200.7 224.7 C2199.8 224.7 2196.6 225.4 2196.9 226.7 C2197.1 227.4 2197.8 228 2198.1 228.8 C2198.3 229.7 2198.5 230.7 2198.3 231.6 C2198.3 233.3 2200.1 232.5 2200.9 232.2 C2201.5 232 2202.7 231.8 2203.1 231.3 C2203.5 230.7 2203 229.9 2202.9 229.3 C2202.6 228.4 2202.1 224.7 2200.7 224.7 z" id="q2" fill="#FFF" /><path d="M2201.4 223.3 C2202.6 222.7 2205.5 231 2204.5 232 C2203.1 233.2 2201.6 228.6 2201.2 228 C2200.8 227.2 2200.1 226.2 2200.4 225.4 C2200.5 224.6 2200.9 223.9 2201.4 223.3 z" id="r2" fill="#8F8F8F" /><path d="M2204 232.8 C2203.1 232.8 2202.2 232.3 2201.8 231.5 C2201.2 230.6 2201.4 229.6 2201.3 228.7 C2200.9 226.8 2198.7 225.8 2199.9 223.5 C2200.5 222.3 2201.9 222.1 2203.1 221.6 C2204.5 221 2206.2 220.7 2207.3 222.1 C2208.5 223.5 2209 226 2209.5 227.8 C2210.1 229.5 2209 230.9 2207.5 231.5 C2206.6 231.9 2205.1 232.8 2204 232.8 z M2205.1 223.7 C2204.6 223.8 2201.8 224.5 2201.9 225.2 C2202 225.7 2202.6 226.3 2203 226.7 C2203.5 227.5 2203.7 228.6 2203.7 229.5 C2203.7 230.8 2203.9 230.6 2205 230.2 C2205.5 230 2206.7 229.8 2207 229.5 C2207.6 229.5 2207 228.3 2207 228.2 C2206.2 226.6 2205.7 225.1 2205.1 223.7 C2205.2 223.7 2205.1 223.5 2205.1 223.7 C2205.2 223.7 2205.2 223.7 2205.1 223.7 z" id="s2" fill="#EBEBEB" /><path d="M2204 232.3 C2201.6 232.3 2202.1 230.2 2201.8 228.6 C2201.4 226.9 2198.9 225.2 2200.7 223.5 C2202.1 222.2 2206.2 220.9 2207.2 223.3 C2207.8 225 2208.6 226.6 2209.1 228.3 C2210 230.7 2205.9 232.3 2204 232.3 z M2205.1 223.1 C2204.2 223.1 2201 224.3 2201.3 225.5 C2201.5 226.2 2202.2 226.8 2202.6 227.5 C2203 228.3 2203.1 229.4 2203 230.3 C2203 232 2204.9 231 2205.7 230.7 C2206.3 230.5 2207.8 230.2 2207.8 229.3 C2207.8 228.7 2207.3 228 2207.2 227.5 C2206.8 226.8 2205.8 223.1 2205.1 223.1 z" id="t2" fill="#FFF" /><path d="M2205.7 221.8 C2207.1 221.1 2209.9 228.8 2209 229.9 C2207.9 231.3 2206.5 227.1 2206.3 226.6 C2205.4 224.8 2204.6 223.7 2205.7 221.8 z" id="u2" fill="#8F8F8F" /><path d="M2208.4 230.8 C2205.9 230.8 2205.9 228.8 2205.6 226.9 C2205.2 225 2202.8 223.7 2204.2 221.6 C2204.9 220.7 2206.3 220.3 2207.4 219.8 C2208.9 219.1 2210.5 219 2211.6 220.5 C2212.2 221.3 2212.5 222.4 2212.9 223.2 C2213.3 224.1 2213.8 225.1 2214.1 226 C2214.7 229 2210.7 230.8 2208.4 230.8 z M2209 221.6 C2208.3 221.8 2207.7 222.2 2207 222.4 C2206.2 222.8 2205.6 222.9 2206.4 223.7 C2207.5 224.8 2207.9 226.5 2207.9 227.9 C2207.9 228.7 2209.2 227.9 2209.4 227.8 C2209.9 227.6 2211.2 227.3 2211.4 226.9 C2211.5 226.5 2210.8 225.4 2210.7 225.1 C2210.5 224.5 2209.5 221.6 2209 221.6 z" id="v2" fill="#EBEBEB" /><path d="M2208.4 230.3 C2206.2 230.3 2206.5 228.2 2206 226.8 C2205.5 225.1 2203.2 224 2204.3 222.1 C2204.9 221.2 2206.3 220.8 2207.2 220.4 C2208.5 219.8 2210.1 219.6 2210.9 221.2 C2211.7 222.7 2212.6 224.4 2213 226 C2213.7 227.8 2212.3 228.6 2211 229.2 C2210.4 229.3 2209.1 230.3 2208.4 230.3 z M2209 221.1 C2208.1 221.1 2205.2 222.4 2205.3 223.5 C2205.4 224.1 2206.2 224.7 2206.6 225.2 C2207 225.8 2207.2 226.6 2207.3 227.3 C2207.4 228.7 2207.7 229.8 2209.3 229.1 C2210 228.9 2211 228.6 2211.5 228.2 C2212.6 227.7 2211.9 226.7 2211.5 226 C2211.2 224.8 2210.1 221.1 2209 221.1 z" id="w2" fill="#FFF" /><path d="M2209.4 219.4 C2210.6 218.8 2212.5 224 2213.4 226.4 C2213.6 227 2213.8 228.2 2212.7 227.9 C2211.6 227.7 2211.3 226.6 2210.8 225.7 C2210 223.7 2208.3 221.5 2209.4 219.4 z" id="x2" fill="#8F8F8F" /><path d="M2212.7 228.8 C2210.3 228.8 2210.2 226.7 2209.9 224.9 C2209.5 223 2206.8 221.5 2208.7 219.4 C2209.5 218.5 2210.9 218.1 2212 217.6 C2213.7 216.9 2215.3 217.2 2216.2 218.9 C2217 220.6 2218.1 222.6 2218.4 224.3 C2219.1 227.4 2215 228.8 2212.7 228.8 z M2213.6 219.6 C2212.9 219.8 2212.3 220.2 2211.6 220.4 C2210.7 220.8 2210.3 220.9 2211 221.7 C2211.9 222.8 2212.5 224.5 2212.4 225.9 C2212.4 226.7 2213.7 225.9 2213.9 225.8 C2214.4 225.6 2215.4 225.4 2215.8 225 C2216.2 224.6 2215.6 223.8 2215.4 223.6 C2215.2 223.1 2214 219.4 2213.4 219.4 C2213.7 219.6 2213.6 219.6 2213.6 219.6 z" id="y2" fill="#EBEBEB" /><path d="M2212.7 228.2 C2210.5 228.2 2210.8 226.1 2210.3 224.7 C2209.8 223 2207.7 221.8 2208.9 220 C2209.5 219.2 2210.9 218.8 2211.8 218.5 C2213.1 217.9 2214.7 217.7 2215.5 219.3 C2216.3 220.8 2216.9 222.6 2217.6 224.3 C2218.7 226.5 2214.6 228.2 2212.7 228.2 z M2213.6 219.1 C2212.7 219.1 2209.6 220.4 2209.9 221.6 C2210.1 222.3 2211 222.8 2211.3 223.5 C2211.7 224.3 2211.8 225.4 2211.8 226.2 C2211.8 227.7 2213.6 227 2214.3 226.7 C2215 226.5 2216.2 226.1 2216.7 225.4 C2216.9 224.8 2216.3 224 2216.2 223.5 C2215.8 222.7 2214.9 219.1 2213.6 219.1 z" id="z2" fill="#FFF" /><path d="M2214.1 218 C2215.6 217.2 2218.5 224.7 2217.5 225.9 C2216.3 227.4 2214.9 223.3 2214.7 222.8 C2213.9 221.1 2213.1 219.9 2214.1 218 z" id="a3" fill="#8F8F8F" /><path d="M2217 226.8 C2216.1 226.8 2215.1 226.3 2214.6 225.5 C2214.1 224.6 2214.4 223.5 2213.9 222.6 C2213.1 220.9 2211 219.8 2212.5 217.8 C2213.2 216.9 2214.6 216.4 2215.7 215.9 C2217.1 215.2 2218.8 215.1 2219.7 216.5 C2220.6 218 2221.6 219.9 2222.3 221.6 C2223.2 223.5 2221.9 224.8 2220.4 225.5 C2219.3 226 2218.3 226.8 2217 226.8 z M2217.4 217.5 C2216.8 217.5 2214.1 218.6 2214.2 219.3 C2214.3 219.9 2215.3 220.6 2215.6 221.1 C2216 221.9 2216.2 222.6 2216.3 223.5 C2216.4 224.7 2217 224.3 2217.7 223.9 C2219 223.2 2220.3 223.1 2219.5 221.5 C2219.3 221.1 2218.2 217.5 2217.4 217.5 z" id="b3" fill="#EBEBEB" /><path d="M2217 226.2 C2214.8 226.2 2215.1 223.6 2214.5 222.2 C2213.8 220.7 2211.7 219.6 2213.3 217.7 C2214.6 216.3 2218.4 214.6 2219.5 216.9 C2220.4 218.3 2221.3 220.1 2221.9 221.6 C2223.1 224 2219 226.2 2217 226.2 z M2217.4 216.9 C2216.5 216.9 2213.3 218.3 2213.7 219.5 C2213.9 220.2 2214.8 220.8 2215.1 221.4 C2215.5 222.1 2215.7 222.8 2215.8 223.5 C2215.9 224.9 2216.6 225.2 2217.8 224.6 C2219.3 223.8 2221 223.3 2220 221.4 C2219.7 220.7 2218.5 216.9 2217.4 216.9 z" id="c3" fill="#FFF" /><path d="M2217.8 215.6 C2219 215 2221.2 220.1 2222.2 222.4 C2222.4 223.1 2222.4 223.9 2221.5 223.9 C2220.4 223.9 2219.8 223.1 2219.5 222.2 C2218.6 220.4 2216.5 217.9 2217.8 215.6 z" id="d3" fill="#8F8F8F" /><path d="M2221.3 224.4 C2218.4 224.4 2219.1 221.6 2217.9 219.9 C2217.4 219.2 2216.6 218.8 2216.2 218 C2215.7 217.1 2216 215.9 2216.7 215.1 C2218.2 213.3 2222.4 211.6 2223.8 214.2 C2224.4 215 2224.7 216 2225.2 216.8 C2225.7 217.6 2226.5 218.7 2226.6 219.6 C2227 221.3 2225.8 222.3 2224.5 223 C2223.7 223.4 2222.5 224.4 2221.3 224.4 z M2221.3 215 C2220.7 215 2218.1 216.3 2218.2 216.9 C2218.3 217.5 2219.4 218.1 2219.7 218.7 C2220.2 219.4 2220.4 220.2 2220.5 221.1 C2220.7 222.2 2221.1 221.9 2221.9 221.5 C2222.6 221.1 2223.2 220.8 2223.9 220.4 C2224.5 220 2224 219.5 2223.8 219.1 C2223.5 218.3 2222.3 215 2221.3 215 z" id="e3" fill="#EBEBEB" /><path d="M2221.3 223.8 C2219.2 223.8 2219.3 221.4 2218.7 220 C2218 218.5 2215.6 217.4 2217.2 215.5 C2217.8 214.7 2219.1 214.3 2219.9 213.8 C2221.1 213.1 2222.6 213 2223.3 214.4 C2224.2 215.8 2225.2 217.5 2225.9 219 C2226.7 220.7 2225.7 221.6 2224.4 222.3 C2223.6 222.7 2222.3 223.8 2221.3 223.8 z M2221.3 214.5 C2220.2 214.5 2217.4 216.2 2217.9 217.3 C2218.1 217.9 2219.1 218.4 2219.4 219 C2219.8 219.7 2220.1 220.4 2220.2 221.1 C2220.3 222.6 2221.3 222.5 2222.3 221.9 C2222.9 221.5 2223.8 221.2 2224.3 220.7 C2225.2 220.2 2224.5 219.3 2224.3 218.7 C2223.8 217.9 2222.6 214.5 2221.3 214.5 z" id="f3" fill="#FFF" /><path d="M2221.5 213.3 C2223.2 212.5 2226.8 219.7 2226.3 221.1 C2226.1 221.7 2225.5 222 2224.9 221.8 C2224 221.4 2223.6 219.9 2223.2 219.1 C2222.3 217 2221.3 215.5 2221.5 213.3 z" id="g3" fill="#8F8F8F" /><path d="M2225.7 222.2 C2222.9 222.2 2223.5 219.5 2222.3 217.8 C2221.8 217.1 2221 216.7 2220.6 215.9 C2220.1 215 2220.4 213.7 2221.1 213 C2222.6 211.3 2226.8 209.1 2228.2 211.8 C2229.3 213.2 2230.4 215.1 2231.1 216.8 C2231.7 218.5 2230.7 219.7 2229.3 220.5 C2228.3 221.1 2226.9 222.2 2225.7 222.2 z M2225.6 212.9 C2225 212.9 2222.1 214.6 2222.7 215.1 C2224.1 216.3 2224.8 217.8 2225.1 219.6 C2225.1 220.3 2226.5 219.4 2226.6 219.2 C2227.2 218.8 2228.1 218.6 2228.5 218 C2228.7 217.5 2228.4 217.2 2228.1 216.7 C2227.7 216.2 2226.2 212.9 2225.6 212.9 z" id="h3" fill="#EBEBEB" /><path d="M2225.7 221.6 C2223.3 221.6 2223.7 218.8 2222.8 217.5 C2221.9 216.2 2219.9 214.7 2221.7 213 C2223.1 211.7 2226.3 209.8 2227.6 212.1 C2228.4 213.6 2229.6 215 2230.3 216.7 C2231.1 218.4 2230.1 219.3 2228.8 220 C2228.1 220.5 2226.5 221.6 2225.7 221.6 z M2225.6 212.3 C2224.8 212.3 2220.8 214.8 2222.4 215.6 C2223.7 216.4 2224.4 218.1 2224.6 219.6 C2224.6 221.1 2226.5 220.1 2227.1 219.7 C2227.8 219.3 2228.8 218.9 2229.1 218.2 C2229.3 217.7 2228.5 216.8 2228.3 216.4 C2227.9 215.6 2226.5 212.3 2225.6 212.3 z" id="i3" fill="#FFF" /><path d="M2225.6 210.8 C2227.3 210 2230.9 217.2 2230.4 218.6 C2230.2 219.2 2229.6 219.5 2229 219.3 C2228.1 218.9 2227.7 217.4 2227.3 216.6 C2226.4 214.6 2225.5 213 2225.6 210.8 z" id="j3" fill="#8F8F8F" /><path d="M2229.6 219.6 C2226.8 219.6 2227.4 216.5 2225.8 215.1 C2225.1 214.4 2224.4 214.2 2224 213.2 C2223.6 212.1 2223.9 211.1 2224.7 210.3 C2226.2 208.8 2229.7 206.6 2231.3 209.1 C2232.4 210.6 2234.1 212.5 2234.6 214.4 C2235.1 216.1 2234 217.1 2232.8 217.8 C2231.9 218.5 2230.7 219.6 2229.6 219.6 z M2229.2 210.3 C2228.7 210.3 2226 212.1 2226.3 212.7 C2226.5 213.2 2227.4 213.5 2227.7 213.9 C2228.2 214.5 2228.6 215.3 2228.9 216.1 C2229.3 217.2 2229.3 217.6 2230.2 217 C2230.9 216.5 2231.6 216.2 2232.2 215.7 C2232.8 215.3 2232 214.5 2231.8 214.3 C2231.5 213.6 2229.8 210.3 2229.2 210.3 z" id="k3" fill="#EBEBEB" /><path d="M2229.6 219.1 C2227.4 219.1 2227.6 216.7 2226.5 215.3 C2225.6 214.1 2223.3 212.8 2225.2 211.1 C2226.5 209.8 2229.7 207.7 2231.1 209.8 C2232 211.2 2233.2 212.7 2234 214.3 C2235.7 216.5 2231.5 219.1 2229.6 219.1 z M2229.2 209.7 C2228.3 209.7 2225 211.8 2225.9 212.9 C2226.4 213.5 2227.1 213.7 2227.6 214.4 C2228.1 215 2228.4 215.8 2228.5 216.5 C2228.9 217.8 2229.6 217.9 2230.6 217.2 C2231.2 216.8 2232.1 216.4 2232.7 215.9 C2233.5 215.3 2232.9 214.5 2232.5 213.8 C2231.9 212.9 2230.7 209.7 2229.2 209.7 z" id="l3" fill="#FFF" /><path d="M2212 224.7 C2211.9 224.5 2211.1 222.6 2211.2 222.5 C2212 222.1 2212.9 221.8 2213.7 221.6 C2213.8 221.8 2214.6 223.7 2214.5 223.8 C2213.7 224.1 2212.8 224.5 2212 224.7 z" id="m3" fill="#EBEBEB" /><path d="M2211 224.6 C2210.3 224.6 2210.2 223.7 2210.8 223.4 C2211.2 223.3 2211.6 223 2212 222.9 C2212.7 222.7 2213.9 221.8 2214.7 222 C2216.6 222.2 2214 223.5 2213.6 223.7 C2212.7 224 2211.8 224.6 2211 224.6 z" id="n3" fill="#FFF" /><path d="M2203.5 228.4 C2203.3 227.7 2202.9 227 2202.7 226.2 C2203.5 225.8 2204.2 225.6 2205.1 225.3 C2205.2 225.3 2205.9 227.2 2206 227.4 C2205.2 227.8 2204.4 228 2203.5 228.4 z" id="o3" fill="#EBEBEB" /><path d="M2202.9 228 C2201.6 228 2202.7 226.9 2203.3 226.7 C2203.9 226.5 2204.8 225.9 2205.4 225.9 C2205.9 225.8 2206.5 226.4 2206 226.8 C2205.8 227 2205.4 227 2205.2 227.2 C2204.5 227.4 2203.7 227.8 2202.9 228 C2203.2 227.9 2203.1 228 2202.9 228 z" id="p3" fill="#FFF" /><path d="M2220.3 220.8 C2219.9 220.1 2219.6 219.4 2219.1 218.8 C2219.9 218.3 2220.8 217.9 2221.6 217.4 C2222 217.2 2222.7 219.1 2222.9 219.4 C2222 219.8 2221.2 220.2 2220.3 220.8 z" id="q3" fill="#EBEBEB" /><path d="M2219.8 220.2 C2218.1 220.2 2220.4 218.7 2220.6 218.5 C2221.3 218.1 2222.4 217.1 2223.2 217.1 C2225.1 217 2222.5 218.9 2222.3 219 C2221.7 219.4 2220.6 220.4 2219.8 220.2 z" id="r3" fill="#FFF" /><path d="M2228.4 215.4 C2227.9 214.7 2227.6 214.1 2227.1 213.4 C2228.2 212.8 2229.2 212.1 2230.2 211.5 C2231 211 2231.5 212.6 2231.9 213.3 C2230.8 214 2229.6 214.7 2228.4 215.4 z" id="s3" fill="#EBEBEB" /><path d="M2227.9 215.3 C2226.1 215.3 2228.7 213.5 2229 213.4 C2229.6 213 2230.8 211.9 2231.6 211.9 C2233.5 211.8 2230.9 213.7 2230.7 213.8 C2229.8 214.3 2228.9 215.3 2227.9 215.3 z" id="t3" fill="#FFF" /></g><g transform="translate(19.86057, 14.46975) scale(-1, 1) rotate(2.426555, 0, 0) translate(-19.86057, -14.46975) translate(1.360575, 1.969748)" id="u3"><g transform="translate(2.999999, 0)" id="v3"><path d="M-2134 390.6 L-2133.8 390.5 C-2132.1 391.3 -2131.3 393 -2130.3 394.4 C-2129 396.3 -2126.4 398.5 -2127.9 401 C-2128.1 401.4 -2128.4 401.7 -2128.7 401.9 C-2131.2 404.3 -2134.5 405.3 -2137.3 407 C-2139.5 408.3 -2141.7 409.9 -2144 411 C-2145.9 411.9 -2147.8 412.9 -2149.8 413.6 C-2151.1 414.1 -2152.5 414.4 -2153.8 414.9 C-2154.7 415.3 -2155.7 415.8 -2156.5 416.3 C-2158.3 417.1 -2160.2 417.6 -2161.9 418.4 C-2163.1 419 -2167.8 420.1 -2166.6 419.7 C-2161.4 418.2 -2169.9 408.4 -2166.2 407 C-2161.2 405 -2160.5 405.1 -2158.5 404.3 C-2152.7 401.9 -2147.3 398.6 -2142.2 395.1 C-2140.2 393.8 -2138.3 392.4 -2136.2 391.2 C-2135.7 391.2 -2134.8 390.6 -2134 390.6 z" id="w3" fill="#737373" /></g><path d="M-2162.9 408.8 C-2162 408.3 -2159.1 416.7 -2160.2 417.6 C-2161.6 418.9 -2163.3 413.9 -2163.6 413.2 C-2164 412.4 -2164.7 411.5 -2164.2 410.6 C-2164 410 -2163.4 409.3 -2162.9 408.8 z" id="x3" fill="#8F8F8F" /><path d="M-2165.4 415.9 C-2165.6 415.2 -2165.8 414.4 -2166 413.7 C-2164.8 413.5 -2163.6 413.1 -2162.5 412.9 C-2161.6 412.7 -2161.7 414.3 -2161.4 415 C-2162.7 415.2 -2164.1 415.5 -2165.4 415.9 z" id="y3" fill="#EBEBEB" /><g transform="translate(2.604862, 20.28658) rotate(4.658804, 0, 0) translate(-2.604862, -20.28658) translate(0.104862, 19.28658)" id="z3"><path d="M-2127.2 571 C-2127.6 571 -2127.7 570.9 -2127.8 570.8 C-2128 570.4 -2127.3 569.9 -2126.9 569.7 C-2126.3 569.5 -2125.4 568.9 -2124.8 568.9 C-2124.3 568.8 -2123.7 569.4 -2124.2 569.8 C-2124.4 570 -2124.8 570 -2125 570.2 C-2125.6 570.4 -2126.4 570.7 -2127.2 571 C-2126.9 570.8 -2127 571 -2127.2 571 z" id="a4" fill="#FFF" /></g><path d="M-2161.2 418.6 C-2162.1 418.6 -2163.1 418 -2163.6 417.2 C-2164.2 416.1 -2163.8 415 -2164.1 413.9 C-2164.3 413 -2165.2 412.2 -2165.4 411.3 C-2165.6 410.2 -2165 409.2 -2164.2 408.5 C-2162.3 407.1 -2158 406.1 -2157.1 409.1 C-2156.4 410.8 -2155.7 412.8 -2155.4 414.6 C-2155 417.2 -2159 418.6 -2161.2 418.6 z M-2159.7 409.4 C-2160.1 409.5 -2163 410 -2162.9 410.6 C-2162.8 411.3 -2162.1 411.9 -2161.7 412.6 C-2161.5 413.4 -2161.3 414.3 -2161.3 415.2 C-2161.4 416.4 -2161.1 416.3 -2160.1 416 C-2159.4 415.8 -2158.7 415.5 -2158 415.3 C-2157.4 415.1 -2157.9 414.2 -2158 413.9 C-2158.3 413.3 -2159 409.4 -2159.7 409.4 z" id="b4" fill="#EBEBEB" /><path d="M-2161.2 418 C-2163.8 418 -2163.1 415.4 -2163.4 413.8 C-2163.8 412.1 -2166 410.1 -2163.6 408.8 C-2161.9 408 -2158.4 406.8 -2157.7 409.3 C-2157.2 411 -2156.5 412.6 -2156.2 414.4 C-2155.5 416.8 -2159.3 418 -2161.2 418 z M-2159.7 408.8 C-2160.6 408.8 -2163.8 409.5 -2163.5 410.8 C-2163.3 411.5 -2162.6 412.1 -2162.3 412.9 C-2162.1 413.8 -2161.9 414.8 -2162.1 415.7 C-2162.1 417.4 -2160.3 416.6 -2159.5 416.3 C-2158.9 416.1 -2157.7 415.9 -2157.3 415.4 C-2156.9 414.8 -2157.4 414 -2157.5 413.4 C-2157.9 412.4 -2158.3 408.8 -2159.7 408.8 z" id="c4" fill="#FFF" /><path d="M-2159 407.4 C-2157.8 406.8 -2154.9 415.1 -2155.9 416.1 C-2157.3 417.3 -2158.8 412.7 -2159.2 412.1 C-2159.6 411.3 -2160.3 410.3 -2160 409.5 C-2160 408.7 -2159.5 408 -2159 407.4 z" id="d4" fill="#8F8F8F" /><path d="M-2156.4 416.9 C-2157.3 416.9 -2158.2 416.4 -2158.6 415.6 C-2159.2 414.7 -2159 413.7 -2159.1 412.8 C-2159.5 410.9 -2161.7 409.9 -2160.5 407.6 C-2159.9 406.4 -2158.5 406.2 -2157.3 405.7 C-2155.9 405.1 -2154.2 404.8 -2153.1 406.2 C-2152 407.6 -2151.4 410.1 -2150.9 411.9 C-2150.3 413.6 -2151.4 415 -2152.9 415.6 C-2153.8 416 -2155.4 416.9 -2156.4 416.9 z M-2155.4 407.7 C-2155.9 407.8 -2158.7 408.5 -2158.6 409.2 C-2158.5 409.7 -2157.9 410.3 -2157.5 410.7 C-2157 411.5 -2156.8 412.6 -2156.8 413.5 C-2156.8 414.8 -2156.6 414.6 -2155.5 414.2 C-2155 414 -2153.8 413.8 -2153.5 413.5 C-2152.9 413.5 -2153.5 412.3 -2153.5 412.2 C-2154.2 410.7 -2154.8 409.1 -2155.4 407.7 C-2155.3 407.7 -2155.4 407.6 -2155.4 407.7 C-2155.3 407.7 -2155.3 407.7 -2155.4 407.7 z" id="e4" fill="#EBEBEB" /><path d="M-2156.4 416.3 C-2158.8 416.3 -2158.3 414.2 -2158.6 412.6 C-2159 410.9 -2161.5 409.2 -2159.7 407.5 C-2158.3 406.2 -2154.2 404.9 -2153.2 407.3 C-2152.6 409 -2151.8 410.6 -2151.3 412.3 C-2150.4 414.8 -2154.6 416.3 -2156.4 416.3 z M-2155.4 407.1 C-2156.3 407.1 -2159.5 408.3 -2159.2 409.5 C-2159 410.2 -2158.3 410.8 -2157.9 411.5 C-2157.5 412.3 -2157.4 413.4 -2157.5 414.3 C-2157.5 416 -2155.6 415 -2154.8 414.7 C-2154.2 414.5 -2152.7 414.2 -2152.7 413.3 C-2152.7 412.7 -2153.2 412 -2153.3 411.5 C-2153.6 410.9 -2154.7 407.1 -2155.4 407.1 z" id="f4" fill="#FFF" /><path d="M-2154.8 405.8 C-2153.4 405.1 -2150.6 412.8 -2151.5 413.9 C-2152.6 415.3 -2154 411.1 -2154.2 410.6 C-2155 408.9 -2155.9 407.7 -2154.8 405.8 z" id="g4" fill="#8F8F8F" /><path d="M-2152.1 414.9 C-2154.6 414.9 -2154.6 412.9 -2154.9 411 C-2155.2 409.1 -2157.7 407.8 -2156.3 405.7 C-2155.6 404.8 -2154.2 404.4 -2153.1 403.9 C-2151.6 403.2 -2150 403.1 -2148.9 404.6 C-2148.3 405.4 -2148 406.5 -2147.6 407.3 C-2147.2 408.2 -2146.7 409.2 -2146.4 410.1 C-2145.7 413 -2149.7 414.9 -2152.1 414.9 z M-2151.5 405.7 C-2152.2 405.9 -2152.8 406.3 -2153.5 406.5 C-2154.3 406.9 -2154.9 407 -2154.1 407.8 C-2153 408.9 -2152.6 410.6 -2152.6 412 C-2152.6 412.8 -2151.3 412 -2151.1 411.9 C-2150.6 411.7 -2149.3 411.4 -2149.1 411 C-2149 410.6 -2149.7 409.5 -2149.8 409.2 C-2150 408.6 -2150.9 405.7 -2151.5 405.7 z" id="h4" fill="#EBEBEB" /><path d="M-2152.1 414.3 C-2154.3 414.3 -2154 412.2 -2154.5 410.8 C-2155 409.1 -2157.3 408 -2156.2 406.1 C-2155.6 405.2 -2154.2 404.8 -2153.3 404.4 C-2152 403.8 -2150.4 403.6 -2149.6 405.2 C-2148.8 406.7 -2147.9 408.4 -2147.5 410 C-2146.8 411.8 -2148.2 412.6 -2149.5 413.2 C-2150.1 413.4 -2151.4 414.3 -2152.1 414.3 z M-2151.5 405.1 C-2152.4 405.1 -2155.3 406.4 -2155.2 407.5 C-2155.1 408.1 -2154.3 408.7 -2153.9 409.2 C-2153.5 409.8 -2153.3 410.6 -2153.2 411.3 C-2153.1 412.7 -2152.8 413.8 -2151.2 413.1 C-2150.5 412.9 -2149.5 412.6 -2149 412.2 C-2147.9 411.7 -2148.6 410.7 -2149 410 C-2149.2 408.9 -2150.3 405.1 -2151.5 405.1 z" id="i4" fill="#FFF" /><path d="M-2151 403.5 C-2149.8 402.9 -2147.9 408.1 -2147 410.5 C-2146.8 411.1 -2146.6 412.3 -2147.7 412 C-2148.8 411.8 -2149.1 410.7 -2149.6 409.8 C-2150.4 407.7 -2152.2 405.6 -2151 403.5 z" id="j4" fill="#8F8F8F" /><path d="M-2147.7 412.9 C-2150.1 412.9 -2150.2 410.8 -2150.5 409 C-2150.9 407.1 -2153.6 405.6 -2151.7 403.5 C-2150.9 402.6 -2149.5 402.2 -2148.4 401.7 C-2146.7 401 -2145.1 401.3 -2144.2 403 C-2143.4 404.7 -2142.3 406.7 -2142 408.4 C-2141.3 411.5 -2145.5 412.9 -2147.7 412.9 z M-2146.9 403.7 C-2147.6 403.9 -2148.2 404.3 -2148.9 404.5 C-2149.8 404.9 -2150.2 405 -2149.5 405.8 C-2148.6 406.9 -2148 408.6 -2148.1 410 C-2148.1 410.8 -2146.8 410 -2146.6 409.9 C-2146.1 409.7 -2145.1 409.5 -2144.7 409.1 C-2144.3 408.7 -2144.9 407.9 -2145.1 407.7 C-2145.3 407.2 -2146.5 403.5 -2147.1 403.5 C-2146.8 403.7 -2146.9 403.7 -2146.9 403.7 z" id="k4" fill="#EBEBEB" /><path d="M-2147.7 412.3 C-2149.9 412.3 -2149.6 410.2 -2150.1 408.8 C-2150.6 407.1 -2152.7 405.9 -2151.5 404.1 C-2150.9 403.3 -2149.5 402.9 -2148.6 402.6 C-2147.3 402 -2145.7 401.8 -2144.9 403.4 C-2144.1 404.9 -2143.5 406.7 -2142.8 408.4 C-2141.7 410.6 -2145.8 412.3 -2147.7 412.3 z M-2146.9 403.1 C-2147.8 403.1 -2150.9 404.4 -2150.6 405.6 C-2150.4 406.3 -2149.5 406.8 -2149.2 407.5 C-2148.8 408.3 -2148.7 409.4 -2148.7 410.2 C-2148.7 411.7 -2146.9 411 -2146.2 410.7 C-2145.5 410.5 -2144.3 410.1 -2143.8 409.4 C-2143.6 408.8 -2144.2 408 -2144.3 407.5 C-2144.7 406.8 -2145.6 403.1 -2146.9 403.1 z" id="l4" fill="#FFF" /><path d="M-2146.3 402.1 C-2144.8 401.3 -2141.9 408.8 -2142.9 410 C-2144.1 411.5 -2145.5 407.4 -2145.7 406.9 C-2146.5 405.1 -2147.4 404 -2146.3 402.1 z" id="m4" fill="#8F8F8F" /><path d="M-2143.5 410.9 C-2144.4 410.9 -2145.4 410.4 -2145.9 409.6 C-2146.4 408.7 -2146.1 407.6 -2146.6 406.7 C-2147.4 405 -2149.5 403.9 -2148 401.9 C-2147.3 401 -2145.9 400.5 -2144.8 400 C-2143.4 399.3 -2141.7 399.2 -2140.8 400.6 C-2139.9 402.1 -2138.9 404 -2138.2 405.7 C-2137.3 407.6 -2138.6 408.9 -2140.1 409.6 C-2141.1 410.1 -2142.2 410.9 -2143.5 410.9 z M-2143 401.6 C-2143.6 401.6 -2146.3 402.7 -2146.2 403.4 C-2146.1 404 -2145.1 404.7 -2144.8 405.2 C-2144.4 406 -2144.2 406.7 -2144.1 407.6 C-2144 408.8 -2143.4 408.4 -2142.7 408 C-2141.4 407.3 -2140.1 407.2 -2140.9 405.6 C-2141.1 405.1 -2142.3 401.6 -2143 401.6 z" id="n4" fill="#EBEBEB" /><path d="M-2143.5 410.3 C-2145.7 410.3 -2145.4 407.7 -2146 406.3 C-2146.7 404.8 -2148.8 403.7 -2147.2 401.8 C-2145.9 400.4 -2142.1 398.7 -2141 401 C-2140.1 402.4 -2139.2 404.2 -2138.6 405.7 C-2137.3 408.1 -2141.5 410.3 -2143.5 410.3 z M-2143 401 C-2143.9 401 -2147.1 402.4 -2146.7 403.6 C-2146.5 404.3 -2145.6 404.9 -2145.3 405.5 C-2144.9 406.2 -2144.7 406.9 -2144.6 407.6 C-2144.5 409 -2143.8 409.3 -2142.6 408.7 C-2141.1 407.9 -2139.4 407.4 -2140.4 405.5 C-2140.8 404.8 -2141.9 401 -2143 401 z" id="o4" fill="#FFF" /><path d="M-2142.6 399.7 C-2141.4 399.1 -2139.2 404.2 -2138.2 406.5 C-2138 407.2 -2138 408 -2138.9 408 C-2140 408 -2140.6 407.2 -2140.9 406.3 C-2141.8 404.4 -2143.9 402 -2142.6 399.7 z" id="p4" fill="#8F8F8F" /><path d="M-2139.1 408.4 C-2142 408.4 -2141.3 405.6 -2142.5 403.9 C-2143 403.2 -2143.8 402.8 -2144.2 402 C-2144.7 401.1 -2144.4 399.9 -2143.7 399.1 C-2142.2 397.3 -2138 395.6 -2136.6 398.2 C-2136 399 -2135.7 400 -2135.2 400.8 C-2134.7 401.6 -2133.9 402.7 -2133.8 403.6 C-2133.4 405.3 -2134.6 406.3 -2135.9 407 C-2136.8 407.5 -2137.9 408.4 -2139.1 408.4 z M-2139.1 399.1 C-2139.7 399.1 -2142.3 400.4 -2142.2 401 C-2142.1 401.6 -2141 402.2 -2140.7 402.8 C-2140.2 403.5 -2140 404.3 -2139.9 405.2 C-2139.7 406.3 -2139.3 406 -2138.5 405.6 C-2137.8 405.2 -2137.2 404.9 -2136.5 404.5 C-2135.9 404.1 -2136.4 403.6 -2136.6 403.2 C-2137 402.4 -2138.2 399.1 -2139.1 399.1 z" id="q4" fill="#EBEBEB" /><path d="M-2139.1 407.8 C-2141.2 407.8 -2141.1 405.4 -2141.7 404 C-2142.4 402.5 -2144.8 401.4 -2143.2 399.5 C-2142.6 398.7 -2141.3 398.3 -2140.5 397.8 C-2139.3 397.1 -2137.8 397 -2137.1 398.4 C-2136.2 399.8 -2135.2 401.5 -2134.5 403 C-2133.7 404.7 -2134.7 405.6 -2136 406.3 C-2136.9 406.8 -2138.2 407.8 -2139.1 407.8 z M-2139.1 398.5 C-2140.2 398.5 -2143 400.2 -2142.5 401.3 C-2142.3 401.9 -2141.3 402.4 -2141 403 C-2140.6 403.7 -2140.3 404.4 -2140.2 405.1 C-2140.1 406.6 -2139.1 406.5 -2138.1 405.9 C-2137.5 405.5 -2136.6 405.2 -2136.1 404.7 C-2135.2 404.2 -2135.9 403.3 -2136.1 402.7 C-2136.6 402 -2137.8 398.5 -2139.1 398.5 z" id="r4" fill="#FFF" /><path d="M-2139 397.4 C-2137.3 396.6 -2133.7 403.8 -2134.2 405.2 C-2134.4 405.8 -2135 406.1 -2135.6 405.9 C-2136.5 405.5 -2136.9 404 -2137.3 403.2 C-2138.2 401.1 -2139.1 399.6 -2139 397.4 z" id="s4" fill="#8F8F8F" /><path d="M-2134.7 406.3 C-2137.5 406.3 -2136.9 403.6 -2138.1 401.9 C-2138.6 401.2 -2139.4 400.8 -2139.8 400 C-2140.3 399.1 -2140 397.8 -2139.3 397.1 C-2137.8 395.4 -2133.6 393.2 -2132.2 395.9 C-2131.1 397.3 -2130 399.2 -2129.3 400.9 C-2128.7 402.6 -2129.7 403.8 -2131.1 404.6 C-2132.2 405.1 -2133.6 406.3 -2134.7 406.3 z M-2134.9 397 C-2135.5 397 -2138.4 398.7 -2137.8 399.2 C-2136.4 400.4 -2135.7 401.9 -2135.4 403.7 C-2135.4 404.4 -2134 403.5 -2133.9 403.3 C-2133.3 402.9 -2132.4 402.7 -2132 402.1 C-2131.8 401.6 -2132.1 401.3 -2132.4 400.8 C-2132.7 400.3 -2134.3 397 -2134.9 397 z" id="t4" fill="#EBEBEB" /><path d="M-2134.7 405.7 C-2137.1 405.7 -2136.7 402.9 -2137.6 401.6 C-2138.5 400.3 -2140.5 398.8 -2138.7 397.1 C-2137.3 395.8 -2134.1 393.9 -2132.8 396.2 C-2132 397.7 -2130.8 399.1 -2130.1 400.8 C-2129.3 402.5 -2130.3 403.4 -2131.6 404.1 C-2132.4 404.5 -2133.9 405.7 -2134.7 405.7 z M-2134.9 396.4 C-2135.7 396.4 -2139.7 398.9 -2138.1 399.7 C-2136.8 400.5 -2136.1 402.2 -2135.9 403.7 C-2135.9 405.2 -2134 404.2 -2133.4 403.8 C-2132.7 403.4 -2131.7 403 -2131.4 402.3 C-2131.2 401.8 -2132 400.9 -2132.2 400.5 C-2132.5 399.7 -2133.9 396.4 -2134.9 396.4 z" id="u4" fill="#FFF" /><path d="M-2134.9 394.9 C-2133.2 394.1 -2129.6 401.3 -2130.1 402.7 C-2130.3 403.3 -2130.9 403.6 -2131.5 403.4 C-2132.4 403 -2132.8 401.5 -2133.2 400.7 C-2134 398.6 -2135 397.1 -2134.9 394.9 z" id="v4" fill="#8F8F8F" /><path d="M-2130.9 403.7 C-2133.7 403.7 -2133.1 400.6 -2134.7 399.2 C-2135.4 398.5 -2136.1 398.3 -2136.5 397.3 C-2136.9 396.2 -2136.6 395.2 -2135.8 394.4 C-2134.3 392.9 -2130.8 390.7 -2129.2 393.2 C-2128.1 394.7 -2126.4 396.6 -2125.9 398.5 C-2125.4 400.2 -2126.5 401.2 -2127.7 401.9 C-2128.5 402.5 -2129.8 403.7 -2130.9 403.7 z M-2131.2 394.4 C-2131.7 394.4 -2134.4 396.2 -2134.1 396.8 C-2133.9 397.3 -2133 397.6 -2132.7 398 C-2132.2 398.6 -2131.8 399.4 -2131.5 400.2 C-2131.1 401.3 -2131.1 401.7 -2130.2 401.1 C-2129.5 400.6 -2128.8 400.3 -2128.2 399.8 C-2127.6 399.4 -2128.4 398.6 -2128.6 398.4 C-2129 397.7 -2130.6 394.4 -2131.2 394.4 z" id="w4" fill="#EBEBEB" /><path d="M-2130.9 403.1 C-2133.1 403.1 -2132.9 400.7 -2134 399.3 C-2134.9 398.1 -2137.2 396.8 -2135.3 395.1 C-2134 393.8 -2130.8 391.7 -2129.4 393.8 C-2128.5 395.2 -2127.3 396.7 -2126.5 398.3 C-2124.7 400.5 -2129 403.1 -2130.9 403.1 z M-2131.2 393.8 C-2132.1 393.8 -2135.4 395.9 -2134.5 397 C-2134 397.6 -2133.3 397.8 -2132.8 398.5 C-2132.3 399.1 -2132 399.9 -2131.9 400.6 C-2131.5 401.9 -2130.8 402 -2129.8 401.3 C-2129.2 400.9 -2128.3 400.5 -2127.7 400 C-2126.9 399.4 -2127.5 398.6 -2127.9 397.9 C-2128.5 397 -2129.8 393.8 -2131.2 393.8 z" id="x4" fill="#FFF" /><path d="M-2148.4 408.8 C-2148.5 408.6 -2149.3 406.7 -2149.2 406.6 C-2148.4 406.2 -2147.5 405.9 -2146.7 405.7 C-2146.6 405.9 -2145.8 407.8 -2145.9 407.9 C-2146.8 408.2 -2147.6 408.6 -2148.4 408.8 z" id="y4" fill="#EBEBEB" /><path d="M-2149.5 408.7 C-2150.2 408.7 -2150.3 407.8 -2149.7 407.5 C-2149.3 407.4 -2148.9 407.1 -2148.5 407 C-2147.8 406.8 -2146.6 405.9 -2145.8 406.1 C-2143.9 406.3 -2146.5 407.6 -2146.9 407.8 C-2147.7 408.1 -2148.7 408.7 -2149.5 408.7 z" id="z4" fill="#FFF" /><path d="M-2156.9 412.4 C-2157.1 411.7 -2157.5 411 -2157.7 410.2 C-2156.9 409.8 -2156.2 409.6 -2155.3 409.3 C-2155.2 409.3 -2154.5 411.2 -2154.4 411.4 C-2155.3 411.9 -2156.1 412.1 -2156.9 412.4 z" id="a5" fill="#EBEBEB" /><path d="M-2157.5 412.1 C-2158.8 412.1 -2157.7 411 -2157.1 410.8 C-2156.5 410.6 -2155.6 410 -2155 410 C-2154.5 409.9 -2153.9 410.5 -2154.4 410.9 C-2154.6 411.1 -2155 411.1 -2155.2 411.3 C-2156 411.5 -2156.8 411.9 -2157.5 412.1 C-2157.3 412 -2157.4 412.1 -2157.5 412.1 z" id="b5" fill="#FFF" /><path d="M-2140.2 404.9 C-2140.6 404.2 -2140.9 403.5 -2141.4 402.9 C-2140.6 402.4 -2139.7 402 -2138.9 401.5 C-2138.5 401.3 -2137.8 403.2 -2137.6 403.5 C-2138.4 403.8 -2139.2 404.3 -2140.2 404.9 z" id="c5" fill="#EBEBEB" /><path d="M-2140.6 404.3 C-2142.3 404.3 -2140 402.8 -2139.8 402.6 C-2139.1 402.2 -2138 401.2 -2137.2 401.2 C-2135.3 401.1 -2137.9 403 -2138.1 403.1 C-2138.8 403.5 -2139.8 404.4 -2140.6 404.3 z" id="d5" fill="#FFF" /><path d="M-2132 399.5 C-2132.5 398.8 -2132.8 398.2 -2133.3 397.5 C-2132.2 396.9 -2131.2 396.2 -2130.2 395.6 C-2129.4 395.1 -2128.9 396.7 -2128.5 397.4 C-2129.7 398.1 -2130.9 398.8 -2132 399.5 z" id="e5" fill="#EBEBEB" /><path d="M-2132.5 399.4 C-2134.3 399.4 -2131.7 397.6 -2131.4 397.5 C-2130.8 397.1 -2129.6 396 -2128.8 396 C-2126.9 395.9 -2129.5 397.8 -2129.7 397.9 C-2130.6 398.4 -2131.6 399.4 -2132.5 399.4 z" id="f5" fill="#FFF" /></g></g><g transform="translate(33, 19)" id="g5"><path d="M2194.1 318.6 C2194.5 322 2200 320.8 2198.8 317.5 C2197.6 314.2 2192.6 317.1 2194.8 319.9" id="h5" fill="#2B2B2B" /><g transform="translate(0, 11)" id="i5"><path d="M2202.7 302.6 C2202.6 302.6 2202.3 302.7 2202.2 302.7 C2203.6 304.8 2203.7 307.8 2202.6 310 C2204.1 310.4 2205.4 310.2 2206.6 311.4 C2207.9 313.1 2208.8 315.1 2209.7 316.8 C2211.2 320.1 2212.6 323.5 2213.5 327.1 C2213.5 329.2 2214.4 331.5 2214.7 333.6 C2215.1 336.3 2215.3 339.1 2215.1 342 C2214.9 344.2 2214.7 346.5 2214.2 348.7 C2213.7 350.8 2213.1 353.1 2210.4 352.8 C2210.2 352.7 2210.2 352.8 2209.8 352.7 C2209 352.6 2209.3 352.8 2208.6 352.8 C2208.4 353.4 2208.2 353.9 2208 354.5 C2208.2 354.7 2208.4 355 2208.4 355.2 C2208.5 356.1 2207.5 358.6 2206.7 359.2 C2204.8 360.9 2200.6 361 2198.1 361 C2196 361 2193.7 361.1 2191.6 361 C2189.4 360.2 2186.4 361 2184.4 359.2 C2183.6 358.5 2183.2 356.8 2182.9 355.9 C2182.7 355.2 2183.4 354.8 2183.1 354.2 C2183.1 354 2182.9 353.3 2182.7 353 C2181.3 353 2181 349.5 2180.8 348.4 C2180.7 347.7 2180.6 347 2181.2 346.5 C2181.2 346.3 2181 345.6 2181 345.3 C2180.9 344.7 2180.5 344.8 2180.3 344.2 C2179.9 343.7 2180.1 342.9 2180.1 342.4 C2180.1 341.3 2180.1 340.2 2180.1 339.1 C2180.1 338.6 2180.3 338.2 2180.8 338 C2180.8 337.6 2180.8 337.4 2180.8 337.2 C2180.9 336.3 2180.6 336.4 2180.4 335.7 C2180.3 334.5 2180.8 330.9 2181.7 330 C2182.3 329.6 2182.3 330 2182.5 329.2 C2182.6 328.8 2182.7 328.5 2182.9 328.1 C2182.9 327.6 2182.4 327.4 2182.7 326.8 C2183.1 325.7 2183.5 324.7 2184 323.7 C2184.4 323 2185.2 323.1 2185.8 323 C2186.4 322.8 2187.5 322.8 2188 322.8 C2188.1 322.7 2188 322 2188 321.9 C2188 321.4 2187.9 320.8 2188 320.4 C2188 320 2188.1 319.8 2188.1 319.5 C2188.3 318.6 2189.4 318.7 2190.3 318.7 L2190.3 318.6 C2189.9 318.6 2188.2 318.5 2188.2 318.8 C2188.2 319 2188.2 319.3 2188.1 319.5 C2188.1 319.6 2188.1 319.7 2188.1 319.9 C2188.1 320.1 2188.1 320.3 2188.1 320.5 C2188.1 320.9 2188 321.2 2187.9 321.4 C2187.5 323.4 2185.7 322.8 2184.7 321.6 C2183.5 319.9 2182.5 318.2 2181.3 316.5 C2180.8 315.8 2179.5 313.4 2181.4 313.4 C2182.9 312.9 2184.8 313 2186.4 312.9 C2186.4 310.7 2188.4 310 2190.3 310 C2189.2 307.8 2189.5 305.4 2190.7 303.2 C2190.8 303 2191.1 302.8 2191.2 302.6 C2191.8 302.7 2192.3 302.8 2192.9 302.8 C2190.4 305 2190 309 2192.4 311.5 L2192.5 311.6 C2191.4 311.6 2189 311.1 2188.1 312.1 C2187.5 312.7 2187.5 313.5 2187.5 314.2 C2187.5 314.8 2185.8 314.7 2185.3 314.7 C2184.1 314.8 2182.8 314.9 2181.6 315.2 C2182.9 317.3 2184.3 319.3 2185.7 321.3 C2186.9 323 2186.8 320.1 2186.9 319.3 C2187 317.8 2186.8 317.6 2188.3 317.6 C2188.7 317.6 2191.5 317.5 2191.5 317.7 C2191.5 318.3 2191.5 319 2191.5 319.6 C2191.5 320.3 2191.5 320.2 2190.8 320.2 C2190.6 320.2 2189.3 320.1 2189.3 320.3 L2189.3 323.6 C2189.3 324.4 2189.4 324.4 2188.5 324.4 C2187.4 324.5 2186.4 324.6 2185.3 324.8 C2184.8 324.8 2184.1 327.3 2183.9 327.7 L2184.7 327.7 C2184.1 328.5 2183.4 330.4 2183.4 331.4 C2182.5 331.6 2182.6 332.1 2182.3 333.2 C2182.1 334.1 2181.8 335 2181.7 335.9 L2182.2 335.9 C2181.7 336.4 2182 338.1 2182 338.7 C2182 339.3 2182.1 339.5 2181.5 339.6 C2181.3 339.5 2181.1 339.7 2181.4 340.2 C2181.4 341 2181.4 341.9 2181.4 342.7 C2181.5 343.5 2181.3 343.9 2182.1 343.9 C2182.5 343.9 2182.3 344.7 2182.3 345 C2182.4 345.7 2183.1 347.8 2181.9 347.7 C2181.9 347.9 2182 348.3 2182 348.5 L2182.4 350.2 C2182.4 350.4 2182.5 350.8 2182.5 351 C2182.7 351.8 2182.6 352.1 2183.4 352.1 C2183.6 352.1 2184.6 355.3 2184.7 355.8 C2184.3 355.9 2184.1 356 2184 355.8 L2184 355.9 C2184.4 357 2184.6 358.7 2185.7 359.2 C2187 359.8 2188.4 359.9 2189.7 360 C2191.1 360 2192.6 360.2 2194.1 360.2 L2198.2 360.2 C2199.1 360.2 2200.2 360.1 2201.1 360 C2202.5 360 2204.2 359.8 2205.5 359.2 C2206.6 358.7 2206.8 357 2207.2 356 L2207.2 356 C2207.2 356.2 2206.6 356 2206.5 356 C2207 354.9 2207.2 353.9 2207.6 352.8 C2208 351.6 2208 352.9 2208.4 352.3 C2208.8 351.2 2209 350.1 2209.2 349 C2209.4 348.2 2209.7 347.8 2208.7 347.8 C2208.8 347.3 2209.1 344.1 2209.3 344.1 C2210.4 344.1 2210 343.2 2210 342.2 C2210 341.5 2210.5 339.6 2209.4 339.6 C2209.4 338.4 2209.3 337.1 2209 335.9 L2209.7 335.9 C2209.6 335.3 2209.2 331.8 2208.6 331.5 C2208 331.3 2208 331.6 2207.8 330.9 C2207.7 330.5 2207.6 330.2 2207.4 329.8 C2207.2 329.1 2206.8 328.4 2206.6 327.7 L2207.4 327.7 C2207.2 327.2 2206.5 324.8 2206 324.8 C2204.9 324.7 2203.9 324.6 2202.8 324.4 C2201.9 324.4 2202 324.5 2202 323.7 L2202 320.6 C2202 320 2201.9 320.1 2201.3 320.1 C2201.1 320.1 2199.9 320.2 2199.8 320.1 C2199.7 320 2199.8 319 2199.8 318.8 C2199.8 317.3 2199.9 317.6 2201.3 317.6 C2202.4 317.6 2202 318.3 2202.1 319.3 C2202.2 320.4 2202.3 321.4 2202.5 322.5 C2202.5 322.6 2205 322.4 2205.1 322.4 C2206.2 322.4 2206.4 322.4 2207.1 323.2 C2208.6 325.1 2209.2 327.6 2209.7 329.8 C2210.6 334.3 2210.8 339.1 2210.4 343.7 C2210.3 345.9 2210 348.2 2209.5 350.3 C2209.1 351.6 2209.6 352.3 2210.9 352.1 C2212.2 352.1 2212.3 350.6 2212.6 349.6 C2213.2 347.6 2213.4 345.6 2213.7 343.5 C2214.1 339.5 2213.7 335.6 2213.2 331.6 C2212.7 327.4 2211.4 323.3 2209.8 319.5 C2209.2 318.1 2208.5 316.6 2207.7 315.1 C2207.3 314.5 2207.1 313.9 2206.8 313.4 C2205.5 311.4 2202.9 311.7 2200.8 311.5 C2203.5 309.3 2203.4 304.8 2200.7 302.5 C2201.2 302.5 2201.8 302.4 2202.4 302.3 L2202.7 302.3 z" id="j5" fill="#737373" /></g><path d="M2186.5 332.3 C2186.6 331.5 2186.4 328.4 2187.4 328.4 L2200.7 328.4 C2200.9 328.4 2201.8 328.3 2201.9 328.4 C2202.3 328.8 2202.1 330.8 2202.1 331.2 C2202.1 331.4 2202.1 333.2 2202.5 333.1 C2203.7 333.1 2204.7 333 2205.9 333 C2206.6 333 2207.2 333.9 2207.4 334.5 C2208.9 337 2209.5 340 2209.9 342.8 C2210.5 347.3 2210.6 351.9 2210.1 356.5 C2210 357.9 2209.7 359.2 2209.4 360.6 C2209.2 361.9 2209 363.1 2210.8 362.7 C2212.3 362.7 2212.2 360.6 2212.5 359.5 C2212.7 357.6 2213 355.7 2213.1 353.8 C2213.8 345.3 2212.4 337.5 2208.9 329.9 C2207.7 327.5 2206.5 322.9 2203.4 322.9 L2189.3 322.9 C2188.2 322.9 2188.1 324.7 2188.1 325.5 C2188.1 326.1 2186.2 325.9 2185.7 326 C2184.5 326.1 2183.5 326.1 2182.3 326.2 C2183 327.4 2183.7 328.4 2184.3 329.6 C2184.8 330.3 2185.1 331 2185.6 331.7 C2185.6 331.9 2186.5 333.3 2186.5 332.3 z" id="k5" fill="#EBEBEB" /><path d="M2191.2 328.1 C2193.6 328.1 2195.9 328.1 2198.2 328.1 C2198.9 328.1 2199.6 327.7 2199.6 328.6 C2199.6 329.2 2200 331.8 2199.6 332.1 C2199.4 332.3 2197.5 332.1 2197.1 332.1 C2195.6 332.1 2194 332.1 2192.5 332.1 C2191.8 332.1 2191.1 332.5 2191.1 331.6 C2191.2 330.5 2191.2 329.3 2191.2 328.1 z" id="l5" fill="#EBEBEB" /><path d="M2197 328.5 C2197.4 328.5 2199.6 328.4 2199.6 328.6 C2199.6 329.1 2200 331.4 2199.6 331.8 C2199.4 332 2197 331.8 2197 331.7 C2197 330.6 2197 329.5 2197 328.5 z" id="m5" fill="#8F8F8F" /><path d="M2192.9 327.9 C2193.6 327.9 2195.5 327.4 2195.5 328.4 C2195.5 329.1 2195.5 329.9 2195.5 330.6 C2195.5 330.8 2195.7 332.1 2195.5 332.4 C2195.3 332.6 2193.8 332.4 2193.6 332.4 C2193 332.4 2192.9 332.5 2192.9 331.9 C2192.9 330.6 2192.9 329.2 2192.9 327.9 z" id="n5" fill="#FFF" /><path d="M2191.2 328.1 L2199.6 328.1 C2199.7 328.1 2199.7 329.4 2199.6 329.4 C2199.4 329.5 2198.2 329.4 2197.9 329.4 L2191.7 329.4 C2190.9 329.4 2191.2 329 2191.2 328.1 z" id="o5" fill="#737373" /><path d="M2206.2 335 L2187.7 335 C2187 335 2185.3 334.6 2184.8 335 C2180.2 344.2 2179.8 354.5 2182.8 364.2 C2183.2 365.4 2183.6 366.6 2184.1 367.7 C2184.3 368.3 2184.6 369.4 2184.9 369.8 C2185.7 370.6 2187.6 370.7 2188.8 371 C2193.4 371.6 2198.2 371.6 2202.8 370.9 C2203.7 370.8 2204.8 370.5 2205.7 370.1 C2206.5 369.6 2206.8 368.6 2207 367.6 C2208.4 363.9 2209.4 360.2 2209.8 356.4 C2210.8 349.1 2209.5 341.7 2206.2 335 z" id="p5" fill="#8F8F8F" /><path d="M2204.6 369.2 C2207.5 363.9 2208.6 357.5 2208.5 351.5 C2208.4 348.3 2207.9 345.1 2207 342.2 C2206.5 340.8 2206.1 339.4 2205.3 338.1 C2204.9 337.5 2204.6 336.9 2204.2 336.3 C2204 336.2 2203.5 336.3 2203.3 336.3 C2203.3 337.2 2203.9 338.4 2204.1 339.4 C2204.5 340.8 2204.7 342.2 2205 343.6 C2205.5 346.3 2205.8 349.1 2205.8 352 C2205.9 358 2205 364.1 2202.4 369.7 C2203.3 369.5 2204 369.4 2204.6 369.2 C2209.8 360 2204 369.4 2204.6 369.2 z" id="q5" fill="#EBEBEB" /><path d="M2197.7 337.4 C2200.3 343.1 2200.3 350 2199.9 356.3 C2199.7 360 2199.2 363.7 2198.4 367.3 C2198.2 368.5 2197.2 369.9 2199 369.9 C2200.5 369.8 2200.5 368.8 2200.8 367.5 C2202.5 360.9 2203.5 353.9 2203.2 347.1 C2203.1 344.3 2202.7 341.3 2201.8 338.6 C2201.6 337.5 2201.6 336.9 2200.4 337.1 C2199.5 337.2 2198.6 337.3 2197.7 337.4 z" id="r5" fill="#EBEBEB" /><path d="M2199 337 C2203.2 342.5 2203.5 350.3 2202.5 356.9 C2201.9 360.8 2201 364.7 2199.4 368.5 C2198.9 369.7 2200.1 369.4 2200.9 369.4 C2201.8 369.4 2202.9 369.4 2203.4 368.5 C2206.5 362 2207.8 354.4 2206.8 347.3 C2206.3 344.2 2205.5 341.1 2203.7 338.3 C2203 337.2 2202.8 336.6 2201.6 336.8 C2200.9 336.9 2200 337 2199 337 z" id="s5" fill="#2B2B2B" /><path d="M2189.4 337 C2188.6 338.4 2188.6 340.5 2188.3 342.1 C2187.9 345.4 2187.7 348.6 2187.7 351.9 C2187.7 355.6 2187.8 359.1 2188.4 362.7 C2188.6 364.4 2189 366.1 2189.3 367.8 C2189.5 368.5 2189.8 369.3 2190 370 C2191.4 370.1 2192.9 370.2 2194.4 370.2 C2193 365.5 2192.4 360.4 2192.2 355.5 C2191.8 349.5 2192 343.2 2193.4 337.3 C2192.1 337.7 2190.5 337.4 2189.4 337 z" id="t5" fill="#EBEBEB" /><path d="M2208.9 347.2 C2208.9 346.3 2208.7 346.5 2208 346.5 L2183.1 346.5 C2182.4 346.5 2182 346.3 2182 347.2" id="u5" fill="#2B2B2B" /><path d="M2184.3 338.7 L2206.7 338.7 C2206.3 337.9 2206.6 338 2205.8 338 L2185.3 338 C2184.6 338 2184.6 337.9 2184.3 338.7 z" id="v5" fill="#2B2B2B" /><path d="M2185.1 337.7 C2183.7 337.7 2182.6 343.6 2182.4 344.8 C2181.8 347.5 2181.6 350.2 2181.7 353.1 C2181.8 355.9 2182.3 358.6 2182.9 361.4 C2183.3 362.8 2183.7 364.2 2184.2 365.5 C2184.4 366.3 2184.9 368.6 2185.7 368.9 C2184.1 361.6 2182.5 348.1 2185.1 337.7 C2185 337.7 2182.5 348.1 2185.1 337.7 z" id="w5" fill="#FFF" /><path d="M2209.5 346.9 C2209.5 347.3 2209.6 347.6 2209.6 348 C2209.6 347.6 2209.5 347.2 2209.5 346.9 z" id="x5" fill="#EBEBEB" /><path d="M2209.8 350.3 C2200.3 350.3 2190.6 350.3 2181 350.3 C2181 350.7 2181 354.7 2181.1 354.7 L2209 354.7 C2210.6 354.7 2209.9 351.4 2209.8 350.3 z" id="y5" fill="#EBEBEB" /><path d="M2181.2 347.9 C2181.2 347.5 2181.3 347.2 2181.3 346.8 C2181.3 347.2 2181.2 347.6 2181.2 347.9 z" id="z5" fill="#EBEBEB" /><path d="M2196.4 324.5 C2192.9 324.5 2190 321.7 2190 318.1 C2190 314.5 2192.8 311.7 2196.4 311.7 C2199.9 311.7 2202.8 314.5 2202.8 318.1 C2202.8 321.7 2200 324.5 2196.4 324.5 z M2196.4 316.7 C2194.7 316.7 2194.4 319.1 2196 319.5 C2198.1 320 2198.4 316.7 2196.4 316.7 z" id="a6" fill="#EBEBEB" /><path d="M2200.1 318.9 C2198.9 318.9 2199.2 317 2198.6 316.3 C2197.8 315.2 2196.2 314.8 2195.1 315.5 C2194.6 315.7 2194.2 316.2 2193.9 316.7 C2193.5 317.3 2193.8 318.1 2193.3 318.6 C2192 320 2191.6 317.5 2191.9 316.7 C2192.6 314.3 2195.2 312.8 2197.6 313.5 C2198.8 313.9 2199.8 314.7 2200.4 315.9 C2200.6 316.6 2201.5 318.9 2200.1 318.9 z" id="b6" fill="#FFF" /><path d="M2203.3 322.9 C2198.9 322.9 2194.5 322.9 2190.1 322.9 C2189.6 322.9 2188.8 322.8 2188.3 323.1 C2187.5 323.9 2190.9 324.4 2191.2 324.4 C2193.6 324.6 2195.8 324.5 2198.2 324.6 C2200.4 324.6 2203.2 324.7 2205.2 323.5 C2204.7 323.3 2204 322.9 2203.3 322.9 z" id="c6" fill="#FFF" /><path d="M2209.8 350.3 C2200.3 350.3 2190.6 350.3 2181 350.3 C2181 350.7 2181 354.7 2181.1 354.7 L2209 354.7 C2210.6 354.7 2209.9 351.4 2209.8 350.3 z" id="d6" fill="#EBEBEB" /><path d="M2184.9 369.2 C2184.9 370.1 2187.6 370.4 2188.2 370.5 C2191 371 2193.9 371.1 2196.7 371 C2199.2 371 2201.8 370.8 2204.1 370.2 C2206.1 369.7 2206.1 368.5 2206.9 366.7 L2183.8 366.7 C2184.2 367.5 2184.5 368.3 2184.9 369.2 C2184.9 370.1 2184.5 368.3 2184.9 369.2 z" id="e6" fill="#EBEBEB" /><path d="M2202.2 366.6 C2201.6 366.6 2199.6 366.2 2199.1 366.6 C2198.9 368 2198.5 369.7 2197.9 371 C2198.8 371 2199.9 370.9 2200.8 370.8 C2201.4 369.4 2201.9 368 2202.2 366.6 z" id="f6" fill="#FFF" /><path d="M2196.3 370.9 C2195.5 370 2195.9 366.5 2194.5 366.5 C2193.3 366.5 2192.3 366.5 2191.1 366.5 C2191.3 367.4 2191.7 368.4 2192 369.2 C2192.2 370 2192.2 370.9 2193.2 370.9 C2194.2 370.9 2195.3 370.9 2196.3 370.9 C2195.5 369.9 2196.1 370.9 2196.3 370.9 z" id="g6" fill="#FFF" /><path d="M2208.2 362.9 C2208.2 363 2208.1 363.3 2208.1 363.4 C2208.1 363.2 2208.2 363 2208.2 362.9 z" id="h6" fill="#EBEBEB" /><path d="M2183.9 366.6 C2183.9 366.6 2183.8 366.6 2183.9 366.6 C2183.8 366.6 2183.9 366.6 2183.9 366.6 z" id="i6" fill="#EBEBEB" /><path d="M2182.6 362.9 L2207.7 362.9 C2208.6 362.9 2208.9 359.4 2209.1 358.5 L2181.5 358.5 C2181.9 360 2182.3 361.4 2182.6 362.9 z" id="j6" fill="#EBEBEB" /><path d="M2182.6 362.9 C2182.6 363 2182.7 363.3 2182.7 363.4 C2182.8 363.2 2182.8 363 2182.6 362.9 z" id="k6" fill="#EBEBEB" /><path d="M2206 335.4 L2185.6 335.4 C2184.3 335.4 2184.1 337.3 2183.7 338.3 L2207.4 338.3 C2206.9 337.4 2206.5 336.5 2206 335.4 z" id="l6" fill="#EBEBEB" /><path d="M2198.3 335.8 C2198.4 336.4 2198.7 338.4 2199.2 338.4 C2200.5 338.4 2201.7 338.4 2203 338.4 C2202.4 337.1 2199.9 334.6 2198.3 335.8 z" id="m6" fill="#FFF" /><path d="M2188.2 335.4 C2187.7 336.2 2187.3 337.3 2186.9 338.3 L2191.4 338.3 C2191.4 338.3 2192.7 335.6 2192.8 335.4 L2188.2 335.4 z" id="n6" fill="#FFF" /><path d="M2194.9 335.4 C2194.2 335.4 2193.4 335.4 2192.7 335.4 C2192.2 335.4 2190.7 337.8 2190.6 338.3 C2191.8 338.3 2192.8 338.3 2194 338.3 C2194.2 338.3 2195.1 338.4 2195.2 338.3 C2195.3 337.4 2195.8 336.2 2194.9 335.4 z" id="o6" fill="#FFF" /><path d="M2207.3 338.4 C2207.3 338.5 2207.4 338.6 2207.4 338.8 C2207.4 338.6 2207.4 338.5 2207.3 338.4 z" id="p6" fill="#EBEBEB" /><path d="M2183.6 338.4 C2183.6 338.5 2183.5 338.6 2183.5 338.8 C2183.5 338.6 2183.6 338.5 2183.6 338.4 z" id="q6" fill="#EBEBEB" /><path d="M2208.6 342.2 L2182.7 342.2 C2181.8 342.2 2181.5 345.7 2181.4 346.6 L2209.5 346.6 C2209.3 345.1 2208.9 343.7 2208.6 342.2 z" id="r6" fill="#EBEBEB" /><path d="M2204 342.2 C2202.6 342.2 2201.3 342.2 2199.9 342.2 C2200.1 343.3 2200.3 344.4 2200.4 345.5 C2200.5 346.6 2200.3 346.6 2201.2 346.6 C2202.3 346.6 2203.3 346.6 2204.4 346.6 C2204.2 345.1 2204.1 343.6 2204 342.2 z" id="s6" fill="#FFF" /><path d="M2202.4 335.7 C2203 336.5 2203.5 337.6 2203.7 338.5 C2204.1 338.7 2205 338.5 2205.4 338.5 C2204.9 337.6 2204.6 336.6 2203.9 335.8 C2203.6 335.6 2202.1 335.2 2202.4 335.7 C2203.2 336.6 2202.1 335.1 2202.4 335.7 z" id="t6" fill="#FFF" /><path d="M2194.2 335.7 C2193.3 336.5 2193.5 338.2 2193.4 338.4 C2194 338.4 2194.6 338.4 2195.2 338.4 C2195.2 338.4 2195.7 335.7 2195.8 335.5 C2195.5 335.4 2195 335 2194.2 335.7 C2193.3 336.5 2195 335 2194.2 335.7 z" id="u6" fill="#8F8F8F" /><path d="M2189 331.4 L2201.7 331.4 C2201.6 331.4 2202.1 334.9 2201.7 335.2 C2201.3 335.6 2199.1 335.2 2198.5 335.2 L2188.8 335.2 C2189 335.2 2189 331.8 2189 331.4 z" id="v6" fill="#EBEBEB" /><path d="M2190.3 331.4 C2190.7 331.4 2194.3 331.4 2194.3 331.4 C2194.3 332.2 2194.3 332.9 2194.3 333.8 C2194.3 334.2 2194.5 335.7 2194.3 335.9 C2194.1 336.1 2190.3 335.8 2190.3 335.9 C2190.3 334.4 2190.3 333 2190.3 331.4 z" id="w6" fill="#FFF" /><path d="M2199.9 301.4 C2198.1 301.4 2196.2 301.4 2194.5 301.4 C2192.5 301.4 2193 303.6 2193.2 304.9 C2193.8 308.9 2194.4 312.8 2195 316.8 C2195.2 318.7 2198.8 319 2199.1 316.9 C2199.5 315.6 2199.5 314.2 2199.7 312.8 C2199.9 311.6 2202.3 301.4 2199.9 301.4 z" id="x6" fill="#8F8F8F" /><path d="M2198.6 301.4 C2196.8 301.4 2194.9 301.4 2193.2 301.4 C2191.2 301.4 2191.7 303.6 2191.9 304.9 C2192.5 308.9 2193.1 312.8 2193.7 316.8 C2193.9 318.7 2197.5 319 2197.8 316.9 C2198.2 315.6 2198.2 314.2 2198.4 312.8 C2198.6 311.6 2201 301.4 2198.6 301.4 z" id="y6" fill="#8F8F8F" /><path d="M2199.3 301.4 C2197.5 301.4 2195.6 301.4 2193.9 301.4 C2191.9 301.4 2192.4 303.6 2192.6 304.9 C2193.2 308.9 2193.8 312.8 2194.4 316.8 C2194.6 318.7 2198.2 319 2198.5 316.9 C2198.9 315.6 2198.9 314.2 2199.1 312.8 C2199.3 311.6 2201.7 301.4 2199.3 301.4 z" id="z6" fill="#EBEBEB" /><path d="M2198.7 303.1 C2197.3 303.1 2195.8 303.1 2194.3 303.1 C2192.8 303.1 2193.1 304.9 2193.2 305.8 C2193.7 309 2194.1 312.2 2194.6 315.3 C2194.8 317 2197.5 317 2197.9 315.4 C2198.1 314.5 2198.3 313.3 2198.4 312.2 C2198.6 310.3 2198.9 308.5 2199.2 306.7 C2199.3 306.1 2200.1 303.1 2198.7 303.1 z" id="a7" fill="#FFF" /><path d="M2193.4 306.1 C2193.6 308 2194 309.9 2194.2 311.8 C2195.6 310.6 2197.1 310.6 2198.6 311.7 C2198.7 311 2199.7 307.1 2199.1 306.9 C2197.9 306.5 2196.9 306.2 2195.7 305.8 C2194.7 305.5 2194.3 305.7 2193.4 306.1 z" id="b7" fill="#FFF" /><path d="M2199.6 331.4 C2200.9 331.4 2201.3 331 2201.3 332.3 C2201.3 332.8 2201.7 335.4 2201.3 335.6 C2201.1 335.7 2200 335.6 2199.8 335.6 C2199.7 335.6 2199.7 334.8 2199.7 334.7 C2199.6 333.7 2199.6 332.5 2199.6 331.4 z" id="c7" fill="#FFF" /><path d="M2198.9 331.4 C2200.2 331.4 2200.6 331 2200.6 332.3 C2200.6 332.8 2201 335.4 2200.6 335.6 C2200.4 335.7 2199.3 335.6 2199.1 335.6 C2199 335.6 2199 334.8 2199 334.7 C2198.9 333.7 2198.9 332.5 2198.9 331.4 z" id="d7" fill="#8F8F8F" /><path d="M2190.9 336 C2190.2 335.8 2189 335.6 2189 334.8 C2189 334.4 2188.9 331.4 2189.1 331.4 C2189.7 331.4 2190.3 331.4 2190.9 331.4 C2191 331.4 2191 332.2 2191 332.3 C2190.9 333.6 2190.9 334.9 2190.9 336 z" id="e7" fill="#8F8F8F" /><path d="M2209.8 350.3 C2200.3 350.3 2190.6 350.3 2181 350.3 C2181 350.7 2181 354.7 2181.1 354.7 L2209 354.7 C2210.6 354.7 2209.9 351.4 2209.8 350.3 z" id="f7" fill="#EBEBEB" /><path d="M2200.7 354.8 C2201.5 354.8 2202.5 354.8 2203.3 354.8 C2204 354.8 2204.1 355 2204.1 354.2 C2204.2 352.9 2204.3 351.7 2204.3 350.4 C2203.1 350.4 2201.8 350.4 2200.6 350.4 C2200.8 351.8 2200.8 353.4 2200.7 354.8 z" id="g7" fill="#FFF" /><path d="M2185.6 354.8 C2187 354.8 2188.5 354.8 2190 354.8 C2189.9 353.4 2189.8 351.9 2189.8 350.4 C2189.7 350.3 2188.9 350.4 2188.6 350.4 C2187.5 350.4 2186.4 350.4 2185.3 350.4 C2185.4 351.8 2185.5 353.4 2185.6 354.8 z" id="h7" fill="#FFF" /><path d="M2208.2 362.9 C2208.2 363 2208.1 363.3 2208.1 363.4 C2208.1 363.2 2208.2 363 2208.2 362.9 z" id="i7" fill="#EBEBEB" /><path d="M2183.9 366.6 C2183.9 366.6 2183.8 366.6 2183.9 366.6 C2183.8 366.6 2183.9 366.6 2183.9 366.6 z" id="j7" fill="#EBEBEB" /><path d="M2182.6 362.9 L2207.7 362.9 C2208.6 362.9 2208.9 359.4 2209.1 358.5 L2181.5 358.5 C2181.9 360 2182.3 361.4 2182.6 362.9 z" id="k7" fill="#EBEBEB" /><path d="M2203 362.9 C2203.2 361.5 2203.6 360 2203.7 358.5 C2202.8 358.5 2201.9 358.5 2201 358.5 C2200.2 358.5 2200.4 358.7 2200.3 359.7 C2200.2 360.8 2199.9 361.8 2199.8 362.9 C2200.9 362.9 2202 362.9 2203 362.9 z" id="l7" fill="#FFF" /><path d="M2182.8 363.3 C2182.8 363.2 2182.7 362.9 2182.7 362.8 C2182.8 363 2182.8 363.2 2182.8 363.3 z" id="m7" fill="#EBEBEB" /><path d="M2207.3 338.4 C2207.3 338.5 2207.4 338.6 2207.4 338.8 C2207.4 338.6 2207.4 338.5 2207.3 338.4 z" id="n7" fill="#EBEBEB" /><path d="M2183.6 338.4 C2183.6 338.5 2183.5 338.6 2183.5 338.8 C2183.5 338.6 2183.6 338.5 2183.6 338.4 z" id="o7" fill="#EBEBEB" /><path d="M2185.9 342.2 C2185.7 343.6 2185.5 345.1 2185.4 346.6 C2186.5 346.6 2187.6 346.6 2188.7 346.6 C2188.9 346.6 2189.6 346.7 2189.9 346.6 C2190 345.2 2190.1 343.7 2190.5 342.2 C2189 342.2 2187.5 342.2 2185.9 342.2 z" id="p7" fill="#FFF" /><path d="M2189.8 362.9 L2194.5 362.9 C2193.3 362.2 2193 359.8 2193.2 358.7 C2191.8 358.7 2190.4 358.6 2189 358.6 C2189.2 360 2189.5 361.4 2189.8 362.9 z" id="q7" fill="#FFF" /><path d="M2193.1 350.3 C2191.8 350.3 2190.5 350.3 2189.2 350.3 C2189.2 351.4 2189.2 352.4 2189.2 353.5 C2189.2 354.3 2189 354.7 2189.8 354.7 C2190.7 354.7 2191.7 354.7 2192.6 354.7 C2192.7 353.4 2192.4 351.5 2193.1 350.3 z" id="r7" fill="#FFF" /><path d="M2185.5 353.2 C2185.7 351.5 2190.8 351.7 2191.3 353.2 C2191.7 352.3 2191.9 351.1 2191.9 350 C2190.2 350.1 2188.5 350.2 2186.8 350.4 C2186.4 350.4 2185.4 350.3 2185.4 350.6 C2185.4 351.6 2185.5 352.4 2185.5 353.2 z" id="s7" fill="#FFF" /><path d="M2186.8 362.9 C2188.2 362.9 2189.7 362.9 2191.2 362.9 C2190.8 361.6 2190.7 360.3 2190.5 359.1 C2190.4 358.4 2190.1 358.5 2189.4 358.5 C2188.2 358.5 2187.2 358.5 2186 358.5 C2186.2 360 2186.5 361.5 2186.8 362.9 z" id="t7" fill="#FFF" /><path d="M2186.5 361.6 C2186.7 360.1 2191.7 360.1 2192 361.6 C2192.4 360.7 2192.6 359.5 2192.6 358.4 C2190.4 358.5 2188 358.6 2185.8 358.8 C2186.1 359.7 2186.3 360.7 2186.5 361.6 z" id="u7" fill="#FFF" /><path d="M2189.6 370.7 C2190.9 370.8 2192.4 370.9 2194 370.9 C2193.3 369.7 2192.8 368.4 2192.5 367.1 C2192.3 366.3 2192.1 366.5 2191.3 366.5 C2190.1 366.5 2189.1 366.5 2187.9 366.5 C2188.4 368.1 2188.9 369.4 2189.6 370.7 C2190.9 370.8 2188.9 369.4 2189.6 370.7 z" id="v7" fill="#FFF" /><path d="M2185.8 332.4 C2184.1 330.3 2182.6 328 2181.3 325.8 C2183.4 325.4 2185.7 325.3 2187.8 325.2 L2187.3 325.8 C2186.8 323.6 2187.8 322.3 2189.9 322.3 C2191.6 322.3 2193.3 322.3 2195 322.3 C2197.9 322.3 2200.9 322.4 2203.7 322.8 C2206.5 323.3 2207 325.5 2207.8 327.9 C2207.1 326.4 2206.1 323.5 2204.1 323.5 C2201.3 323.1 2198.3 323.4 2195.5 323.4 C2193.7 323.4 2192.1 323.5 2190.3 323.5 C2189.8 323.5 2188.9 323.3 2188.6 323.7 C2188.1 324.4 2188.4 325.4 2188.5 326.2 C2186.4 326.2 2184.3 326.3 2182.1 326.4 L2182.5 325.8 C2183.9 327.9 2184.8 330.1 2185.8 332.4 C2185.1 331.4 2185.4 331.3 2185.8 332.4 z" id="w7" fill="#FFF" /><path d="M2202.3 335.4 L2199 335.9 C2199.6 336.7 2200.1 338.4 2201.1 338.4 C2202.3 338.4 2203.3 338.4 2204.5 338.4 C2204.1 337.8 2203.2 336.4 2202.3 335.4 z" id="x7" fill="#8F8F8F" /><path d="M2206.2 342.2 L2202.2 342.2 C2202.6 343.3 2202.8 344.3 2203 345.4 C2203.1 346.5 2202.9 346.6 2203.8 346.6 C2205 346.6 2206 346.6 2207.2 346.6 C2207.2 345 2206.8 343.6 2206.2 342.2 z" id="y7" fill="#8F8F8F" /><path d="M2203.4 354.8 C2204.5 354.8 2205.4 354.8 2206.5 354.8 C2206.7 354.8 2207.6 354.9 2207.7 354.8 C2207.8 353.4 2207.8 351.9 2207.8 350.4 C2206.7 350.4 2205.7 350.4 2204.6 350.4 C2204.5 350.4 2203.8 350.3 2203.7 350.4 C2203.6 351.8 2203.5 353.4 2203.4 354.8 z" id="z7" fill="#8F8F8F" /><path d="M2206.1 362.9 C2206.6 361.5 2206.8 360 2207.2 358.5 C2206.1 358.5 2205 358.5 2203.9 358.5 C2203.2 358.5 2203.1 358.3 2202.8 359.1 C2202.6 360.4 2202.2 361.7 2202 362.9 L2206.1 362.9 z" id="a8" fill="#8F8F8F" /><path d="M2203.2 370.5 C2203.8 369.2 2204.4 367.9 2205 366.6 C2203.9 366.6 2202.9 366.6 2201.8 366.6 C2201.1 366.6 2200.9 366.4 2200.6 367.1 C2200.1 368.4 2199.7 369.6 2199.1 370.9 C2200.6 370.8 2202 370.6 2203.2 370.5 C2203.5 369.8 2202 370.6 2203.2 370.5 z" id="b8" fill="#8F8F8F" /><path d="M2193.4 346.5 C2193.4 345.1 2194 343.3 2195.1 342.1 C2193.8 342.1 2192.6 342.1 2191.3 342.1 C2191.1 342.1 2190.1 342 2190 342.1 C2189.8 343.5 2189.6 345 2189.5 346.5 C2190.8 346.5 2192.1 346.5 2193.4 346.5 z" id="c8" fill="#FFF" /><path d="M2185.6 345 C2186.1 343.3 2192.3 343.5 2193 345 C2193.6 344.1 2193.9 342.9 2193.9 341.8 C2191.9 341.9 2189.9 342 2187.9 342.2 C2187.5 342.2 2186.1 342.1 2185.9 342.3 C2185.6 342.6 2185.7 344.4 2185.6 345 z" id="d8" fill="#FFF" /><path d="M2189.1 369.9 C2189.3 368.2 2195 368.4 2195.5 369.9 C2195.6 369.7 2196.1 366.7 2195.4 366.7 C2194.7 366.7 2194 366.7 2193.3 366.8 C2191.5 366.8 2189.8 366.9 2188 366.9 L2189.1 369.9 z" id="e8" fill="#FFF" /><path d="M2192.2 342.2 C2191.8 343.6 2191.6 345.1 2191.5 346.6 C2192.4 346.6 2193.3 346.6 2194.2 346.6 C2194.9 346.6 2194.8 346.7 2194.8 345.9 C2194.8 344.6 2194.9 343.4 2195 342.2 C2194.1 342.2 2193.1 342.2 2192.2 342.2 z" id="f8" fill="#8F8F8F" /><path d="M2194.8 350.3 C2193.6 350.3 2192.6 350.3 2191.4 350.3 C2191.4 351.6 2191.4 352.8 2191.5 354.1 C2191.5 354.9 2191.6 354.7 2192.3 354.7 C2193.2 354.7 2194.2 354.7 2195.1 354.7 C2194.8 353.2 2194.8 351.7 2194.8 350.3 z" id="g8" fill="#8F8F8F" /><path d="M2192.3 362.9 C2193.4 362.9 2194.4 362.9 2195.5 362.9 C2195.4 361.8 2195.3 360.7 2195.1 359.6 C2195.1 358.8 2195.3 358.5 2194.5 358.5 C2193.6 358.5 2192.6 358.5 2191.7 358.5 C2191.8 360 2192.1 361.5 2192.3 362.9 z" id="h8" fill="#8F8F8F" /><path d="M2194.8 370.9 C2195.5 370.9 2196.1 370.9 2196.8 370.9 C2196.7 370.3 2196.2 366.5 2196 366.5 C2195.2 366.5 2194.3 366.5 2193.4 366.5 C2193.7 368.2 2194.2 369.6 2194.8 370.9 C2195 370.9 2194.2 369.6 2194.8 370.9 z" id="i8" fill="#8F8F8F" /><path d="M2206.9 342.2 C2206.1 342.2 2205.4 342.2 2204.5 342.2 C2204.6 342.8 2205.1 346.6 2205.4 346.6 C2206.2 346.6 2207.1 346.6 2207.8 346.6 C2207.8 345.1 2207.4 343.6 2206.9 342.2 z" id="j8" fill="#FFF" /><path d="M2205.7 354.8 C2206.3 354.8 2207 354.8 2207.6 354.8 C2207.7 354.8 2208.2 354.9 2208.3 354.8 C2208.4 354 2208.4 353.1 2208.4 352.3 C2208.4 352.1 2208.4 350.4 2208.3 350.4 L2205.7 350.4 C2205.7 351.8 2205.7 353.4 2205.7 354.8 z" id="k8" fill="#FFF" /><path d="M2207.2 362.9 C2207.6 361.5 2207.9 360 2208.1 358.5 C2207.3 358.5 2206.4 358.5 2205.7 358.5 C2205.3 358.5 2204.9 362.3 2204.8 362.9 C2205.6 362.9 2206.3 362.9 2207.2 362.9 z" id="l8" fill="#FFF" /><path d="M2203.9 370.2 C2204.6 369 2205.2 367.8 2205.8 366.5 C2205.1 366.5 2204.4 366.5 2203.8 366.5 C2203.6 366.5 2202.3 370 2202 370.5 C2202.7 370.5 2203.4 370.3 2203.9 370.2 C2204.6 369 2203.4 370.3 2203.9 370.2 z" id="m8" fill="#FFF" /><path d="M2189 330.8 L2201.7 330.8 C2201.8 330.8 2201.9 331.9 2201.8 332 C2201.6 332.2 2199.8 332 2199.4 332 L2190 332 C2188.9 332 2189 332.1 2189 330.8 z" id="n8" fill="#737373" /><path d="M2193.5 308.7 C2195 306.9 2197.6 306.9 2199.2 308.7 C2199.3 307.8 2199.8 306.3 2199.4 305.4 C2198.9 304.3 2197.4 304.7 2196.5 304.7 C2195.8 304.7 2194 304.3 2193.4 305.1 C2192.5 306 2193.3 307.6 2193.5 308.7 z" id="o8" fill="#8F8F8F" /><path d="M2194.3 316.9 C2194.5 318.3 2197.2 318.9 2198.1 317.6 C2198.8 316.7 2198.7 314.9 2198.9 313.8 C2198.1 317.1 2194.7 317.2 2193.9 313.8 C2194.1 314.9 2194.2 315.9 2194.3 316.9 z" id="p8" fill="#8F8F8F" /><path d="M2205.6 323.9 C2207.4 326.7 2209 329.3 2210.3 332.5 C2211.5 335.8 2212.5 339.1 2213 342.6 C2213.8 349.1 2214.2 356 2211.9 362.3 C2213.1 356.1 2213 349.4 2211.7 343.2 C2210.9 339.5 2210.2 335.9 2209 332.5 C2208.4 330.7 2207.7 329 2207 327.3 C2206.5 326.1 2205.6 325.2 2205.6 323.9 z" id="q8" fill="#FFF" /><path d="M2182.4 342.2 C2186.8 342 2191.1 341.6 2195.5 341.6 C2199.9 341.6 2204.2 342.1 2208.6 342.2 C2204.2 342.4 2199.9 342.8 2195.5 342.8 C2193 342.8 2190.5 342.7 2188 342.7 C2186.2 342.5 2184.2 342.5 2182.4 342.2 z" id="r8" fill="#FFF" /><path d="M2181.1 350.3 C2185.7 350.2 2190.3 349.7 2194.9 349.7 C2200 349.7 2204.9 350.1 2209.9 350.3 C2205.3 350.4 2200.7 350.9 2196.1 350.9 C2193.3 350.9 2190.4 350.9 2187.6 350.8 C2185.5 350.7 2183.2 350.8 2181.1 350.3 z" id="s8" fill="#FFF" /><path d="M2181.7 358.4 C2186.3 358.3 2190.8 357.8 2195.4 357.8 C2200 357.8 2204.5 358.3 2209.1 358.4 C2204.5 358.5 2200 359 2195.4 359 C2192.8 359 2190.1 358.9 2187.5 358.9 C2185.6 358.8 2183.5 358.9 2181.7 358.4 z" id="t8" fill="#FFF" /><path d="M2183.8 366.6 C2187.7 366.5 2191.5 366 2195.4 366 C2199.3 366 2203.1 366.5 2207 366.6 C2203.1 366.7 2199.3 367.2 2195.4 367.2 C2193.3 367.2 2191 367.1 2188.9 367.1 C2187.2 366.9 2185.4 367 2183.8 366.6 z" id="u8" fill="#FFF" /><path d="M2211.1 343.8 C2211 340.9 2210.5 337.9 2209.4 335.2 C2208.9 333.9 2208.1 332.3 2206.8 331.5 C2206 331 2204.7 331.3 2203.7 331.3 C2203.2 331.3 2203.2 330.7 2203.1 330.2 C2203 329.7 2202.7 326.9 2202.2 327 C2196.5 327.2 2190.9 327.6 2185.3 327.8 C2185.7 329.2 2186 330.7 2186.4 332.2 C2186.5 331.4 2186.3 328.3 2187.3 328.3 L2200.6 328.3 C2200.8 328.3 2201.7 328.2 2201.8 328.3 C2202.2 328.7 2202 330.7 2202 331.1 C2202 331.5 2202 333.1 2202.4 333 C2203.5 333 2204.5 332.9 2205.5 332.9 C2206.3 332.9 2206.8 333.6 2207.2 334.2 C2208.7 336.6 2209.3 339.4 2209.7 342.1 C2210.4 346.6 2210.5 351.3 2210.1 355.9 C2209.9 357.7 2209.6 359.6 2209.2 361.3 C2209.1 361.9 2209.9 363.1 2210.1 362.4 C2210.3 361.7 2210.5 361 2210.6 360.2 C2211.4 354.9 2211.4 349.2 2211.1 343.8 C2210.6 335.6 2211.5 351.4 2211.1 343.8 z" id="v8" fill="#8F8F8F" /><path d="M2192 322.2 C2192.7 320.9 2196.2 321.1 2197.4 321.3 C2198.5 321.4 2199.6 321.7 2200.5 322.5 L2192 322.2 z" id="w8" fill="#8F8F8F" /><path d="M2189 334.3 L2201.7 334.3 C2201.8 334.3 2201.9 335.4 2201.8 335.5 C2201.6 335.7 2199.8 335.5 2199.4 335.5 L2190 335.5 C2188.9 335.4 2189 335.6 2189 334.3 z" id="x8" fill="#737373" /><path d="M2184.9 335.4 C2188.4 335.3 2191.9 334.8 2195.4 334.8 C2198.9 334.8 2202.4 335.3 2205.9 335.4 C2202.4 335.5 2198.9 336 2195.4 336 C2192.1 336 2188.1 336.3 2184.9 335.4 z" id="y8" fill="#FFF" /><path d="M2208.2 362.9 C2208.2 363 2208.1 363.3 2208.1 363.4 C2208.1 363.2 2208.2 363 2208.2 362.9 z" id="z8" fill="#737373" /><path d="M2182.8 363.3 C2182.8 363.2 2182.7 362.9 2182.7 362.8 C2182.8 363 2182.8 363.2 2182.8 363.3 z" id="a9" fill="#737373" /><path d="M2207.3 338.4 C2207.3 338.5 2207.4 338.6 2207.4 338.8 C2207.4 338.6 2207.4 338.5 2207.3 338.4 z" id="b9" fill="#737373" /><path d="M2183.5 338.7 C2183.5 338.6 2183.6 338.5 2183.6 338.3 C2183.6 338.5 2183.5 338.6 2183.5 338.7 z" id="c9" fill="#737373" /></g></g></g></g></g></g><defs><g transform="translate(17.09519, 0.800995) translate(-135.2952, -293.601)" id="d9" fill="#000"><path d="M118.2 302.7 C118.4 307.4 132.5 311.2 149.8 311.2 C167.1 311.2 181.2 307.4 181.4 302.7 C181.4 307.5 181.4 310.1 181.4 310.5 C181.4 315.3 167.3 319.1 149.8 319.1 C132.3 319.1 118.2 315.2 118.2 310.5 L118.2 302.7 L118.2 302.7 z" fill-opacity="0.4528" id="e9" fill="#593001" /><path d="M118.7 301.7 C118.9 306.4 133 310.2 150.3 310.2 C167.6 310.2 181.7 306.4 181.9 301.7 C181.9 306.5 181.9 309.1 181.9 309.5 C181.9 314.3 167.8 318.1 150.3 318.1 C132.8 318.1 118.7 314.2 118.7 309.5 L118.7 301.7 L118.7 301.7 z" id="f9" fill="#DA8113" /><linearGradient x1="46.0545" y1="-118.6926" x2="45.4656" y2="-118.6926" gradientUnits="userSpaceOnUse" gradientTransform="matrix(117.135, 0, 0, 28.4634, -5208.417, 3687.795)" id="g9"><stop offset="0%" stop-color="#D9952A" stop-opacity="1" /><stop offset="6.438854%" stop-color="#CA7519" stop-opacity="1" /><stop offset="30.54%" stop-color="#E3AD3A" stop-opacity="1" /><stop offset="51.05%" stop-color="#FFEC91" stop-opacity="1" /><stop offset="68.8%" stop-color="#E9BD44" stop-opacity="1" /><stop offset="86.24%" stop-color="#FFED6C" stop-opacity="1" /><stop offset="93.87%" stop-color="#F2D353" stop-opacity="1" /><stop offset="100%" stop-color="#F2B947" stop-opacity="1" /></linearGradient><path d="M118.2 301.6 C118.4 306.1 132.7 309.7 150.3 309.7 C167.9 309.7 182.2 306.1 182.4 301.6 C182.4 306.2 182.4 308.7 182.4 309 C182.4 313.5 168 317.2 150.3 317.2 C132.6 317.2 118.2 313.5 118.2 309 L118.2 301.6 L118.2 301.6 z" id="h9" style="fill:url(#g9)" /><linearGradient x1="45.4914" y1="-117.9547" x2="45.9407" y2="-117.5895" gradientUnits="userSpaceOnUse" gradientTransform="matrix(115.425, 0, 0, 29.925, -5125.077, 3826.124)" id="i9"><stop offset="0%" stop-color="#F4E072" stop-opacity="1" /><stop offset="100%" stop-color="#DB9427" stop-opacity="1" /></linearGradient><ellipse cx="150.3" cy="301.5" rx="31.6" ry="8.2" id="j9" style="fill:url(#i9)" /><linearGradient x1="45.4656" y1="-126.0065" x2="46.0545" y2="-126.0065" gradientUnits="userSpaceOnUse" gradientTransform="matrix(117.135, 0, 0, 18.6219, -5208.417, 2651.479)" id="k9"><stop offset="0%" stop-color="#D9952A" stop-opacity="1" /><stop offset="6.438854%" stop-color="#CA7519" stop-opacity="1" /><stop offset="30.54%" stop-color="#E3AD3A" stop-opacity="1" /><stop offset="51.05%" stop-color="#FFEC91" stop-opacity="1" /><stop offset="68.8%" stop-color="#E9BD44" stop-opacity="1" /><stop offset="86.24%" stop-color="#FFED6C" stop-opacity="1" /><stop offset="93.87%" stop-color="#F2D353" stop-opacity="1" /><stop offset="100%" stop-color="#F2B947" stop-opacity="1" /></linearGradient><path d="M119.2 299.9 C119 300.2 118.9 300.6 118.9 301 C118.9 305.5 132.9 309.2 150.3 309.2 C167.7 309.2 181.7 305.5 181.7 301 C181.7 300.6 181.6 300.3 181.4 299.9 C182 300.5 182.4 301.2 182.4 301.9 C182.4 306.4 168 310.1 150.3 310.1 C132.6 310.1 118.2 306.4 118.2 301.9 C118.2 301.3 118.6 300.6 119.2 299.9 z" id="l9" style="fill:url(#k9)" /><linearGradient x1="45.196" y1="-121.5895" x2="45.3746" y2="-120.6758" gradientUnits="userSpaceOnUse" gradientTransform="matrix(101.745, 0, 0, 23.94, -4458.332, 3199.41)" id="m9"><stop offset="0%" stop-color="#F8DD61" stop-opacity="1" /><stop offset="100%" stop-color="#EAA330" stop-opacity="1" /></linearGradient><ellipse cx="150.3" cy="300.8" rx="27.8" ry="6.6" id="n9" style="fill:url(#m9)" /><linearGradient x1="45.5694" y1="-134.267" x2="45.0221" y2="-134.267" gradientUnits="userSpaceOnUse" gradientTransform="matrix(101.745, 0, 0, 13.2525, -4458.332, 2077.223)" id="o9"><stop offset="0%" stop-color="#F4CA2F" stop-opacity="1" /><stop offset="51.38%" stop-color="#BF7737" stop-opacity="1" /><stop offset="100%" stop-color="#E4A929" stop-opacity="1" /></linearGradient><path d="M122.6 301.5 C122.5 301.3 122.4 301 122.4 300.8 C122.4 297.2 134.9 294.2 150.2 294.2 C165.5 294.2 178 297.1 178 300.8 C178 301 177.9 301.3 177.8 301.5 C176.3 298.2 164.5 295.6 150.1 295.6 C135.7 295.6 124.1 298.2 122.6 301.5 z" id="p9" style="fill:url(#o9)" /></g></defs><desc>OE5LJAJGEIN,z8WvTTQx1woTjLoe8rKDqOIu2t44xArpPgzLfzNOazqbj9aJ8nQkEGvHdWdI85uQWs9tw0oJa+ze94PIwYL05kcWRK3zkPOrDAsVy4zbbXutGJ/6ukktBNgCCsm16/jf1NoZvaUqGOcd3dPTGIQAFFk5JI1F+OSj3iX5oshPXnHzLN2LDOGuUzQncaLC3wwCLnM9Cu+e1icnlANf+NTohSVmn7y/Isxpz1U90wsChW+QH+PMdgCb8plotubEneyM</desc></svg>