<?xml version="1.0" encoding="utf-8"?><!DOCTYPE svg PUBLIC "-//W3C//DTD SVG 1.1//EN" "http://www.w3.org/Graphics/SVG/1.1/DTD/svg11.dtd"><svg x="0" y="0" width="340px" height="340px" viewBox="0, 0, 340, 340" preserveAspectRatio="xMidYMid" font-size="0" id="a" enable-background="new 0 0 340 340" xmlns="http://www.w3.org/2000/svg" xmlns:xlink="http://www.w3.org/1999/xlink" xmlns:xml="http://www.w3.org/XML/1998/namespace" version="1.1"><g id="b" fill="#000"><g id="c"><g transform="translate(0, 0) translate(0, 224)" id="d"><ellipse cx="168.6" cy="53.1" rx="57.8" ry="12.8" fill-opacity="0.25" id="e" /></g><g id="f"><g transform="translate(96.8, 80.19998) translate(20, 164) scale(-1, 1) translate(-20, -164) translate(0, 145)" id="g"><g opacity="0.15" id="h"><path d="M25.1 5.8 C22.1 1.3 15 -3.7 13.7 5.8 C6.2 0.1 3.3 6.1 6.2 10.4 C0.3 13.4 -2 14.4 2.1 17.2 C1.4 21.2 -1.4 28.5 6.2 26.7 C5.7 33.2 9.3 33.2 13.7 33.2 C14.4 39.4 27.4 39.7 24.5 31.9 C29.6 32.2 32.1 33.8 32.8 31.9 C33.5 30 30 27.2 28 24.7 C35.2 25.8 42.7 22.7 37.8 18.5 C34.5 15.7 32.8 15 32.7 16.4 C35.8 14.6 38.8 13 38.8 10.3 C38.8 8.4 33.7 7.6 29.9 10.3 C31.5 6.4 28.1 -2.1 25.1 5.8 z" stroke="#000000" stroke-width="3" opacity="0.15" id="i" /></g><path d="M24.6 4.8 C21.6 -1 15.9 -2.2 13.7 4.8 C6.2 -0.9 3.3 5.1 6.2 9.4 C0.3 12.4 -2 13.4 2.1 16.2 C1.4 20.2 -1.4 27.5 6.2 25.7 C5.7 32.2 9.3 32.2 13.7 32.2 C14.4 38.4 27 38.7 25.1 32.2 C35.2 32.8 34 30.6 30 25.7 C37.2 26.8 42.1 21.4 37.2 17.2 L33.7 16.2 C36.8 14.4 38.3 12.1 38.3 9.4 C38.3 7.5 33.9 6.7 30.1 9.4 C31.5 5.4 29.5 -0.9 24.6 4.8 z" id="j" fill="#342520" /></g><g transform="translate(127.5, 273.3) scale(1) translate(-127.5, -273.3) translate(90.90001, 84.79997) translate(29, 123)" id="k"><g transform="translate(22.5, 34.5) scale(-1, 1) translate(-22.5, -34.5)" id="l"><path d="M0.5 21.2 C0.5 5.6 29.7 -5.2 40.3 4.4 C49.4 12.7 41.6 31.9 40.3 33.7 C39.4 34.9 36.1 41.1 30.4 52.5 C37.7 55.2 41.3 58.4 41.3 62.1 C41.3 63.8 41.3 66.1 39.6 67.4 C38.3 68.4 19.6 68.3 15.4 67.4 C11.2 66.5 0.3 66.2 0.5 57.8 C0.7 48.8 0.5 29.2 0.5 21.2 z" id="m" fill="#B09082" /><path d="M0.5 21.2 C0.5 5.6 29.7 -5.2 40.3 4.4 C49.4 12.7 41.6 31.9 40.3 33.7 C39.4 34.9 36.1 41.1 30.4 52.5 C37.7 55.2 41.3 58.4 41.3 62.1 C41.3 63.8 41.3 66.1 39.6 67.4 C38.3 68.4 19.6 68.3 15.4 67.4 C11.2 66.5 0.3 66.2 0.5 57.8 C0.7 48.8 0.5 29.2 0.5 21.2 z M2 21.6 C2 25.7 2.6 32.8 2.5 39.9 C2.4 45.8 1.6 51.8 1.6 55.7 C1.4 63.7 11.3 64.4 15.3 65.3 C19.3 66.2 36.4 66.9 37.7 65.9 C39.3 64.7 39.3 63 39.3 61.4 C39.3 57.9 34.4 55.6 27.4 53 C32.8 42.1 37.7 34 38.5 32.9 C40.9 28.4 47 12.6 38.4 4.6 C28.3 -4.5 2 6.8 2 21.6 z" opacity="0.15" id="n" /></g></g><g transform="translate(212.4, 273.3) scale(1) translate(-212.4, -273.3) translate(90.90001, 84.79997) translate(107, 157.5) scale(-1, 1) translate(-107, -157.5) translate(85, 123)" id="o"><g id="p"><path d="M42.8 20.7 C42.8 5.1 15.8 -5.2 5.2 4.4 C-3.9 12.7 3.9 31.9 5.2 33.7 C6.1 34.9 9.4 41.1 15.1 52.5 C7.8 55.2 4.2 58.4 4.2 62.1 C4.2 63.8 4.2 66.1 5.9 67.4 C7.2 68.4 24.3 69 30.1 67.4 C30.3 67.3 33.1 66.7 34 66.4 C37.5 65.2 42.4 63.3 42.7 59.9 C44.2 44.3 42.8 29.9 42.8 20.7 z" id="q" fill="#B09082" /><path d="M42.8 20.7 C42.8 29.9 44.2 44.3 42.7 59.9 C42.4 63.3 37.5 65.2 34 66.4 C33.1 66.7 30.3 67.3 30.1 67.4 C24.2 69 7.2 68.4 5.9 67.4 C4.2 66.1 4.2 63.8 4.2 62.1 C4.2 58.4 7.8 55.2 15.1 52.5 C9.4 41.1 6.1 34.9 5.2 33.7 C3.9 31.9 -3.9 12.7 5.2 4.4 C15.8 -5.2 42.8 5.1 42.8 20.7 z M41.8 20.4 C41.8 5.6 16.2 -4.4 6.1 4.8 C-2.5 12.6 6 30.7 7.3 32.4 C8.2 33.5 12.3 42.3 17.7 53.2 C10.8 55.8 5.6 58.3 5.6 61.8 C5.6 63.4 5.7 64.3 7.4 65.6 C8.6 66.5 24.1 67 29.7 65.5 C29.9 65.4 34.8 64.5 35.7 64.2 C39 63.1 41.6 60.9 41.9 57.7 C43.1 42.8 41.8 29.1 41.8 20.4 z" opacity="0.15" id="r" /></g></g><g transform="translate(90.90001, 84.79997) translate(37, 51)" id="s"><g transform="translate(3, 0)" id="t"><path d="M61.7 20.1 C61.7 36.4 64.4 34.7 66.1 39.3 C67.8 43.9 74.7 53 76 65.8 C77.3 78.6 76.6 92.6 72.6 104.3 C68.6 116 71.5 137.3 61.8 140 C61.5 140.1 29.8 143.1 18 140 C5.8 136.8 11.8 123.7 6.4 106.4 C1 89.1 0.1 80.3 0.4 65.8 C0.7 51.3 10.7 44.1 12.5 39.2 C14.3 34.3 16.6 32.5 16.6 20 C16.6 7.5 24.6 0.5 42.2 1 C47.5 1.2 61.7 3.7 61.7 20.1 z" id="u" fill="#D8C6BA" /><path d="M61.7 20.1 C61.7 36.4 64.4 34.7 66.1 39.3 C67.8 43.9 74.7 53 76 65.8 C77.3 78.6 76.6 92.6 72.6 104.3 C68.6 116 71.5 137.3 61.8 140 C61.5 140.1 29.8 143.1 18 140 C5.8 136.8 11.8 123.7 6.4 106.4 C1 89.1 0.1 80.3 0.4 65.8 C0.7 51.3 10.7 44.1 12.5 39.2 C14.3 34.3 16.6 32.5 16.6 20 C16.6 7.5 24.6 0.5 42.2 1 C47.5 1.2 61.7 3.7 61.7 20.1 z M61.2 20.2 C61.2 4.2 47.3 1.7 42.1 1.5 C24.9 1 17.1 7.9 17.1 20.1 C17.1 32.3 14.8 34.1 13.1 38.9 C11.4 43.7 1.5 50.7 1.2 64.9 C0.9 79.1 2.8 88.3 8.1 105.2 C13.4 122.1 6.5 134.3 18.4 137.5 C29.9 140.5 61 137.6 61.3 137.5 C70.8 134.9 67 114.3 70.9 102.9 C74.8 91.5 76.5 77.5 75.2 64.9 C73.9 52.4 67.2 43.5 65.5 39 C63.8 34.5 61.2 36.1 61.2 20.2 z" opacity="0.15" id="v" /></g></g><g fill-rule="evenOdd" transform="translate(126.5934, 166.6) scale(1.069817, 0.938702) translate(-129.4, -171.8) translate(102.6, 85.59997) translate(67, 148) scale(-1, 1) translate(-67, -148) translate(27, 86)" id="w"><g id="x"><path d="M4.2 48.6 C1.9 35.9 3.3 31.3 7.6 21.8 C17.6 33.1 28.5 36.5 40.5 38.4 C50 37 61.7 33.9 72.4 21.8 C76.7 31.3 78.1 35.9 75.8 48.6 C71.9 70.1 71.8 67 68.8 80.9 C68.1 84 66.7 88.9 65.5 94.1 C64.1 100.2 51.8 95.1 52.8 79.4 C53.1 74.8 53.2 71 52.9 69 C52.1 62.5 47.9 60.6 39.8 56.8 C31.8 60.6 27.6 62.5 26.7 69 C26.4 71 26.5 74.8 26.8 79.4 C27.8 95.1 15.5 100.2 14.1 94.1 C12.9 88.9 11.5 84 10.8 80.9 C8.2 67.1 8 70.1 4.2 48.6 z" id="y" fill="#7B4C3A" /><path d="M16.1 111.4 C16.7 107.8 16.1 103.2 15.3 98.5 C15 97 14.7 95.6 14.4 94.1 C14.4 94 14.4 94 14.4 93.9 C14.4 91.2 15 88.4 16 85.9 C16.2 85.5 16.7 85.3 17.1 85.5 C17.8 85.8 19.2 86.6 19.9 85.7 C20.7 84.8 21.6 79.4 22.2 76.1 C22.3 75.5 22.9 75.3 23.4 75.6 C24.3 76.2 26.4 76.8 26.9 78.2 C28.5 86.7 33.3 93.3 32.9 101.2 C32 100.2 31.4 99.1 30.4 98.2 C31.4 101.1 31.9 104.3 33 107.2 C31.8 107.2 30.3 106.3 29.3 104.3 C29.3 104.6 29.4 104.9 29.4 105.3 C30.5 108.9 31.7 111.2 31.1 115.1 C30.9 114.9 30.7 114.8 30.5 114.6 C30.9 118.6 31.2 121.2 31.1 121.4 C29.4 124.7 12.6 123.2 10.6 121.5 C10.9 117.7 11.2 114.5 16.1 111.4 z" id="z" fill="#FAF4E8" /><path d="M50.6 104.4 C49.6 106.3 48.1 107.3 46.9 107.3 C48 104.5 48.5 101.2 49.5 98.3 C48.5 99.2 47.9 100.3 47 101.3 C46.6 93.4 51.4 86.8 53 78.4 C53.5 76.9 55.6 76.3 56.5 75.7 C57 75.4 57.6 75.7 57.7 76.2 C58.4 79.5 59.3 84.9 60 85.8 C60.7 86.7 62.2 85.9 62.8 85.6 C63.2 85.4 63.7 85.6 63.9 86 C64.9 88.6 65.4 91.3 65.5 94 C65.5 94.1 65.5 94.1 65.5 94.2 C65.2 95.7 64.9 97.1 64.6 98.6 C63.7 103.3 63.2 107.9 63.8 111.5 C68.7 114.6 69 117.8 69.2 121.9 C67.2 123.5 50.4 125 48.7 121.8 C48.6 121.5 48.9 118.9 49.3 115 C49.1 115.2 48.9 115.3 48.7 115.5 C48 111.6 49.3 109.3 50.4 105.7 C50.5 105.1 50.5 104.8 50.6 104.4 z" id="a1" fill="#FAF4E8" /><path d="M14.1 94.1 C12.9 88.9 11.5 84 10.8 80.9 C8.2 67.1 8 70.1 4.2 48.6 C1.9 35.9 3.3 31.3 7.6 21.8 C17.6 33.1 28.5 36.5 40.5 38.4 C50 37 61.7 33.9 72.4 21.8 C76.7 31.3 78.1 35.9 75.8 48.6 C71.9 70.1 71.8 67 68.8 80.9 C68.1 84 66.7 88.9 65.5 94.1 C65.2 95.7 64.9 97.1 64.6 98.6 C63.7 103.3 63.2 107.9 63.8 111.5 C68.7 114.6 69 117.8 69.2 121.9 C67.2 123.5 50.4 125 48.7 121.8 C48.6 121.5 48.9 118.9 49.3 115 C49.1 115.2 48.9 115.3 48.7 115.5 C48 111.6 49.3 109.3 50.4 105.7 C50.5 105.1 50.5 104.8 50.6 104.4 C49.6 106.3 48.1 107.3 46.9 107.3 C48 104.5 48.5 101.2 49.5 98.3 C48.5 99.2 47.9 100.3 47 101.3 C46.6 93.7 51 87.3 52.8 79.4 C53.1 74.8 53.2 71 52.9 69 C52.1 62.5 47.9 60.6 39.8 56.8 C31.8 60.6 27.6 62.5 26.7 69 C26.4 70.8 26.5 73.9 26.7 77.8 C26.8 77.9 26.8 78.1 26.9 78.2 C28.5 86.7 33.3 93.3 32.9 101.2 C32 100.2 31.4 99.1 30.4 98.2 C31.4 101.1 31.9 104.3 33 107.2 C31.8 107.2 30.3 106.3 29.3 104.3 C29.3 104.6 29.4 104.9 29.4 105.3 C30.5 108.9 31.7 111.2 31.1 115.1 C30.9 114.9 30.7 114.8 30.5 114.6 C30.9 118.6 31.2 121.2 31.1 121.4 C29.4 124.7 12.6 123.2 10.6 121.5 C10.9 117.7 11.2 114.5 16.1 111.4 C16.7 107.8 16.1 103.2 15.3 98.5 C15.1 97.4 14.9 96.4 14.7 95.4 C14.4 95 14.2 94.6 14.1 94.1 z M15.9 92.6 C16 93.1 16.2 93.5 16.5 93.8 C16.7 94.8 16.8 95.7 17 96.7 C17.8 101 17.6 109.1 17 112.5 C12.5 115.4 13.1 115.4 12.8 119 C14.7 120.6 27.9 121.5 29.5 118.4 C29.6 118.2 29.5 116.7 29.1 112.9 C29.3 113.1 30.3 113.2 30.5 113.4 C31 109.8 28.8 106.3 27.8 103 C27.8 102.6 29.1 102.4 29.1 102.2 C30.1 104 30.4 105.4 31.5 105.4 C30.4 102.7 30.1 99.2 29.1 96.5 C30.1 97.3 30.5 97.2 31.4 98.1 C31.8 90.8 27.8 87.5 26.3 79.7 C25.2 72.1 24.7 67.8 24.9 66.7 C25.7 60.7 33.1 57.4 40.5 53.9 C48.1 57.4 53.5 62.5 54.2 68.5 C54.5 70.4 54.2 76.8 53.9 81.1 C52.3 88.5 48.1 90.5 48.5 97.6 C49.3 96.6 50.2 97.3 51.1 96.5 C50.2 99.2 49.4 102.4 48.3 105 C49.5 105 50.7 103.3 51.6 101.6 C51.5 101.9 51.5 104.9 51.4 105.4 C50.4 108.8 48.9 109.5 49.5 113.1 C49.7 112.9 50.5 113.6 50.7 113.4 C50.3 117 50.2 119.6 50.3 119.9 C51.9 122.8 64.8 121.2 66.6 119.7 C66.5 115.9 66.6 115.5 62 112.6 C61.5 109.3 62.3 103.9 63.1 99.5 C63.4 98.1 64.3 93.5 64.5 92 C65.7 87.2 66.1 83.2 66.8 80.3 C69.6 67.4 69.6 70.3 73.3 50.3 C75.4 38.5 76.3 33 72.3 24.2 C62.3 35.4 49.3 39.5 40.5 40.8 C29.3 39.1 17.3 34.7 8 24.2 C4 33 4.6 38.5 6.7 50.3 C10.3 70.3 10.4 67.5 12.9 80.3 C13.5 83.2 14.8 87.8 15.9 92.6 z" opacity="0.15" id="b1" /><path d="M2.4 21.6 C3.5 17.3 6.2 13.6 8.9 9.2 C13.9 1.1 34.4 0.4 40 0.4 C45.6 0.4 66.1 1.1 71.1 9.2 C73.8 13.6 76.5 17.3 77.6 21.6 C80.2 28.1 80 35.8 76.9 42.1 C76.2 40.2 75.5 38.3 74.9 36.4 C74.7 36.7 74.5 37 74.3 37.4 C73.7 39.8 72.4 42 71.2 44.2 C69.9 46.6 68.6 49.2 68.7 51.9 C67.9 49.3 67.3 49.4 66.5 46.8 C64.5 54.7 60.5 57.5 57.6 64.1 C57 60.6 56.9 60.3 56.4 57.3 C56.1 57.6 55.9 57.8 55.6 58.1 C53.5 63.5 51.7 67.1 46.9 72.6 C47 71.1 46.7 69.5 46.4 68 C42.8 72.1 40.3 75.6 40.1 77.9 C39.8 75.8 37.6 72.6 34.5 68.8 C34.4 70 34.4 71.2 34.5 72.4 C29.7 66.9 26.8 63.4 24.6 58.1 C24.3 57.8 24 57.5 23.8 57.2 C23.2 60.5 22.9 62.8 22.3 66.3 C19.4 59.7 15.8 54.6 13.8 46.7 C13 49.3 12.4 49.2 11.6 51.8 C11.7 49.1 10.4 46.5 9.1 44.1 C7.9 41.9 6.6 39.7 6 37.3 C5.8 37 5.6 36.6 5.4 36.3 C4.7 38.2 4 40.1 3.4 42 C-0.1 35.8 -0.2 28.1 2.4 21.6 z" id="c1" fill="#FAF4E8" /><path d="M23.2 1.7 C30 0.2 37 0.4 40 0.4 C43 0.4 50 0.2 56.8 1.7 C62.7 4.6 60.2 19.3 59 23 C58.9 23.5 58.7 23.9 58.6 24.3 C57.3 32.5 53.1 40 52.4 39.8 C51.5 39.5 50.6 36.3 50.4 34 C50.5 38.8 46.3 46.6 45.8 46.5 C45.4 46.4 44.3 45.8 43.6 44.8 C43.3 45.9 43.1 46.8 42.8 47.7 C41.2 52.2 41.7 55.5 41.7 55.5 C41.7 55.5 38.9 54 37.2 47.7 C37 46.8 36.6 45.9 36.4 44.8 C35.6 45.7 34.5 46.4 34.2 46.5 C33.6 46.6 29.4 38.8 29.6 34 C29.4 36.3 28.5 39.6 27.6 39.8 C26.9 40 22.7 32.4 21.4 24.3 C21.3 23.9 21.1 23.5 21 23 C19.8 19.3 17.3 4.5 23.2 1.7 z" id="d1" fill="#D8D8D8" /><path d="M22.5 2.1 C22.7 1.9 23 1.8 23.2 1.7 C30 0.2 37 0.4 40 0.4 C43 0.4 50 0.2 56.8 1.7 C57 1.8 57.3 1.9 57.5 2.1 C63.3 3.3 68.8 5.5 71.1 9.2 C73.8 13.6 76.5 17.3 77.6 21.6 C80.2 28.1 80 35.8 76.9 42.1 C76.2 40.2 75.5 38.3 74.9 36.4 C74.7 36.7 74.5 37 74.3 37.4 C73.7 39.8 72.4 42 71.2 44.2 C69.9 46.6 68.6 49.2 68.7 51.9 C67.9 49.3 67.3 49.4 66.5 46.8 C64.5 54.7 60.5 57.5 57.6 64.1 C57 60.6 56.9 60.3 56.4 57.3 L55.6 58.1 C53.5 63.5 51.7 67.1 46.9 72.6 C47 71.1 46.7 69.5 46.4 68 C42.8 72.1 40.3 75.6 40.1 77.9 C39.8 75.8 37.6 72.6 34.5 68.8 C34.4 70 34.4 71.2 34.5 72.4 C29.7 66.9 26.8 63.4 24.6 58.1 C24.3 57.8 24 57.5 23.8 57.2 C23.2 60.5 22.9 62.8 22.3 66.3 C19.4 59.7 15.8 54.6 13.8 46.7 C13 49.3 12.4 49.2 11.6 51.8 C11.7 49.1 10.4 46.5 9.1 44.1 C7.9 41.9 6.6 39.7 6 37.3 C5.8 37 5.6 36.6 5.4 36.3 C4.7 38.2 4 40.1 3.4 42 C-0.1 35.8 -0.2 28.1 2.4 21.6 C3.5 17.3 6.2 13.6 8.9 9.2 C11.2 5.5 16.7 3.4 22.5 2.1 z M23.6 2.9 C18.1 4.1 12.9 6.1 10.7 9.6 C8.2 13.7 5 16.5 3.9 20.5 C1.5 26.7 -0.2 32.4 3.1 38.2 C3.7 36.4 5.9 34.1 6.6 32.3 C6.8 32.5 7.8 35.7 8 36 C8.6 38.3 9.6 39.8 10.7 41.8 C12 44.1 12 44.9 11.9 47.5 C12.6 45 13.5 44.9 14.3 42.5 C16.2 49.9 19 56 21.7 62.2 C22.3 58.9 22 55.1 22.6 52 C22.8 52.2 25.2 55.3 25.5 55.6 C27.6 60.6 28.7 63.4 33.2 68.6 C33.1 67.5 33.7 65.8 33.8 64.7 C36.7 68.3 39.8 72.2 40.1 74.2 C40.3 72 43.1 67.1 46.5 63.2 C46.8 64.7 48.3 67.2 48.2 68.6 C52.7 63.4 52.7 60.7 54.7 55.6 L57 53.1 C57.5 55.9 57.6 56.7 58.2 60 C60.9 53.8 64.5 50.6 66.4 43.2 C67.1 45.7 67.7 45.6 68.5 48.1 C68.4 45.5 68.6 43.8 69.9 41.6 C71 39.5 71.7 38.4 72.3 36.1 C72.4 35.7 74.6 32.1 74.8 31.8 C75.4 33.6 76.2 36.4 76.9 38.2 C79.8 32.3 77.7 25.3 75.3 19.2 C74.3 15.2 71.8 13.7 69.3 9.6 C67.1 6.1 61.9 4.1 56.4 2.9 C56.2 2.8 56 2.6 55.8 2.5 C49.4 1.1 42.7 1 39.9 1 C37.1 1 30.6 1.1 24.2 2.5 C24 2.6 23.8 2.8 23.6 2.9 z" opacity="0.15" id="e1" /></g></g></g><g id="f1"><g transform="translate(96.6, 79.89997) translate(2, 36)" id="g1"><g opacity="0.15" transform="translate(0, 1)" id="h1"><path d="M38.9 0.5 C40.6 0.1 43.3 0.2 45 1.6 C45.9 2.3 45 3.6 45.8 4.6 C46.5 5.5 47.7 4.2 48.5 5.2 C49 5.8 49 5.9 49 7.8 C49 9.7 51 7 51.9 9.4 C52.1 10 52.4 11 52.7 11.5 C52.9 12 53.3 11 54.6 12.9 C55.9 14.8 55.4 16.4 56.3 17.5 C57.3 18.7 58.7 18.6 59.6 21 C60.5 23.4 57.9 21.9 58.3 22.9 C58.8 24.2 61 25.6 61.3 27.1 C61.5 28.4 59.6 29.2 59.6 30.6 C59.6 31.6 62.5 32.1 63.3 33.7 C63.9 34.9 62.3 37.2 62.5 38 C62.8 39.4 64.7 38.7 64.8 40.8 C64.9 43.5 61.8 43.8 62.5 45.9 C62.8 46.7 64.7 49.1 64.8 51.1 C64.9 53.1 62.5 51.9 62.5 52.4 C62.5 53.7 63.5 57 63.9 58.2 C64.5 60.4 62.7 60.7 62.5 61.7 C62.4 62.4 63.3 65.1 63.3 66.7 C63.3 68.3 61.7 65.7 61.3 66.7 C60.9 67.7 62.4 69 61.8 70.4 C61.2 71.8 59.2 71.2 58.9 72.2 C57.9 75 59.9 75 59.7 76.1 C59.5 77.2 58.6 78.7 58.4 79.3 C56.2 81.3 56.4 78.9 54 80.9 C51.9 82.7 51.6 79.5 49.5 80 C48.3 82 46.3 85 44.7 86.7 C42.9 88.5 45.2 80.7 43 82.6 C40.8 84.5 39.4 87.9 36.9 88.7 C34.4 89.5 32.9 85.8 30.5 86.6 C28.1 87.4 26.7 90.7 23.4 90.6 C20.1 90.5 20 86.2 17.2 84.8 C14.4 83.3 14 85.5 12 83 C10 80.5 11.5 76.6 10.8 75.2 C10.1 73.8 8.5 78.5 6.6 75.9 C4.7 73.3 11.2 63.8 10.4 61.9 C9.6 60 5.6 70.1 4.5 67.2 C3.4 64.4 5.4 60 4.9 58.9 C4.4 57.8 2 58.4 1.2 56.5 C0.1 54 -0.2 53.8 0.6 49.8 C0.9 48.3 3.5 46.1 3.8 43.1 C4.1 41.5 1.9 41.3 2.5 38.3 C2.9 36.2 7 34.9 6.6 33.1 C4.3 30.2 8.9 32 10.7 29 C12.2 26.6 10.8 24.2 12.2 21.7 C13.7 19.1 17.9 19.7 20.1 17.5 C22.5 15.2 31.1 5 32.4 3.5 C34.2 1.4 36 1 37.9 1.6 C38.2 1.2 38.6 0.9 38.9 0.5 z" stroke="#000000" stroke-width="3" opacity="0.15" id="i1" /></g><g id="j1"><path d="M32.4 3.5 C31.1 5 22.5 15.2 20.1 17.5 C17.9 19.7 15.1 19.4 13.6 22 C12.2 24.5 12.2 26.6 10.7 29 C8.9 32 5 30.7 5.9 34.4 C6.3 36.2 2.9 36.2 2.5 38.3 C1.9 41.3 3.6 42.4 3.3 44 C3 47 0.9 48.3 0.6 49.8 C-0.2 53.8 1.3 54.7 2.4 57.2 C3.2 59.1 3.9 58.8 4.4 59.9 C4.9 61 3.3 64.3 4.4 67.1 C5.5 69.9 7 66.1 7.8 68 C8.6 69.9 5.2 72.5 7.1 75.1 C9 77.7 10.5 74.3 11.2 75.7 C11.9 77.1 9.9 80.4 11.9 82.9 C13.9 85.4 14.9 84 17.7 85.5 C20.5 86.9 19.1 89.8 22.4 89.9 C25.7 90 27.7 88.4 30.1 87.6 C32.5 86.8 33 89.2 35.5 88.4 C38 87.6 40.3 86.7 42.5 84.8 C44.7 82.9 42.9 88.5 44.7 86.7 C46.5 84.8 48.3 84 49.5 81.6 C50.7 79.1 52 81.4 52.9 79.8 C53.7 78.1 53.9 77.5 54.3 75.2 C54.5 73.8 56.4 74.2 57.1 68.1 C57.3 66.1 58 61.6 58.3 59.3 C58.7 56.9 59.1 47.9 58.3 45.7 C54.5 34.8 56.6 22.8 51.9 17.7 C47.2 12.6 39.2 -4.7 32.4 3.5 z" id="k1" fill="#342520" /><path d="M32.4 3.5 C31.1 5 22.5 15.2 20.1 17.5 C17.9 19.7 15.1 19.4 13.6 22 C12.2 24.5 12.2 26.6 10.7 29 C8.9 32 5 30.7 5.9 34.4 C6.3 36.2 2.9 36.2 2.5 38.3 C1.9 41.3 3.6 42.4 3.3 44 C3 47 0.9 48.3 0.6 49.8 C-0.2 53.8 1.3 54.7 2.4 57.2 C3.2 59.1 3.9 58.8 4.4 59.9 C4.9 61 3.3 64.3 4.4 67.1 C5.5 69.9 7 66.1 7.8 68 C8.6 69.9 5.2 72.5 7.1 75.1 C9 77.7 10.5 74.3 11.2 75.7 C11.9 77.1 9.9 80.4 11.9 82.9 C13.9 85.4 14.9 84 17.7 85.5 C20.5 86.9 19.1 89.8 22.4 89.9 C25.7 90 27.7 88.4 30.1 87.6 C32.5 86.8 33 89.2 35.5 88.4 C38 87.6 40.3 86.7 42.5 84.8 C44.7 82.9 42.9 88.5 44.7 86.7 C46.5 84.8 48.3 84 49.5 81.6 C50.7 79.1 52 81.4 52.9 79.8 C53.7 78.1 53.9 77.5 54.3 75.2 C54.5 73.8 56.4 74.2 57.1 68.1 C57.3 66.1 58 61.6 58.3 59.3 C58.7 56.9 59.1 47.9 58.3 45.7 C54.5 34.8 56.6 22.8 51.9 17.7 C47.2 12.6 39.2 -4.7 32.4 3.5 z" id="l1" fill="#7B4C3A" /><path d="M54.5 80.5 C52.1 82.5 51 81.5 48.4 82.4 C45.8 83.2 45.2 80.7 42.7 81.6 C40.2 82.4 38.1 84.1 34.6 84 C31.1 83.9 32.6 80.9 29.6 79.4 C26.6 77.9 25.5 79.4 23.5 76.7 C21.5 74 23.5 70.6 22.8 69.1 C22.1 67.6 20.4 71.1 18.5 68.4 C16.6 65.8 20 62.9 19.3 61 C18.6 59.1 16.9 63 15.7 60.1 C14.5 57.2 16.3 53.8 15.7 52.5 C15.1 51.3 14.5 51.6 13.6 49.6 C12.4 47 10.9 46 11.7 41.8 C12 40.2 14.1 38.8 14.6 35.7 C14.9 34 13.2 32.8 13.8 29.7 C14.2 27.5 17.8 27.4 17.4 25.6 C16.4 21.7 20.5 23.1 22.4 19.9 C23.2 18.6 23.6 17.3 24 16.1 C25.5 14.4 27.8 11.8 30 9.4 C30.8 9 31.6 8.5 32.3 7.8 C33.5 6.6 36.2 3.5 38.9 0.5 C40.6 0.1 43.3 0.2 45 1.6 C45.9 2.3 45 3.6 45.8 4.6 C46.5 5.5 47.7 4.2 48.5 5.2 C49 5.8 49 5.9 49 7.8 C49 9.7 51 7 51.9 9.4 C52.1 10 52.4 11 52.7 11.5 C52.9 12 53.3 11 54.6 12.9 C55.9 14.8 55.4 16.4 56.3 17.5 C57.3 18.7 58.7 18.6 59.6 21 C60.5 23.4 57.9 21.9 58.3 22.9 C58.8 24.2 61 25.6 61.3 27.1 C61.5 28.4 59.6 29.2 59.6 30.6 C59.6 31.6 62.5 32.1 63.3 33.7 C63.9 34.9 62.3 37.2 62.5 38 C62.8 39.4 64.7 38.7 64.8 40.8 C64.9 43.5 61.8 43.8 62.5 45.9 C62.8 46.7 64.7 49.1 64.8 51.1 C64.9 53.1 62.5 51.9 62.5 52.4 C62.5 53.7 63.5 57 63.9 58.2 C64.5 60.4 62.7 60.7 62.5 61.7 C62.4 62.4 63.3 65.1 63.3 66.7 C63.3 68.3 61.7 65.7 61.3 66.7 C60.9 67.7 62.4 69 61.8 70.4 C61.2 71.8 59.2 71.2 58.9 72.2 C57.9 75 59.9 75 59.7 76.1 C59.5 77.2 58.6 78.7 58.4 79.3 C56.2 81.3 56.9 78.5 54.5 80.5 z" id="m1" fill="#342520" /></g></g><g transform="translate(96.6, 79.89997) translate(110.5, 82.5) scale(-1, 1) translate(-110.5, -82.5) translate(79, 37)" id="n1"><g opacity="0.15" transform="translate(31.5, 46) scale(-1, 1) translate(-31.5, -46) translate(0, 1)" id="o1"><path d="M34.6 5.5 C37.5 7.9 38.4 12.9 39.7 14.2 C39.8 14.3 39.8 14.3 39.9 14.3 C40.6 14.8 41.3 15.1 42.1 15.4 C42.5 15.5 42.9 15.7 43.3 15.8 C45 16.4 47.2 15.6 48.3 16.6 C51.8 19.6 49.8 21 52.4 25.2 C55 29.4 55.7 27.4 57.6 30.9 C59.5 34.4 58.8 35.5 59.8 38.8 C60.8 42.2 56.4 35.7 56.4 39.1 C56.4 42.5 61.6 45.9 61.6 48.5 C61.6 51.1 55.3 39.2 55.5 41.9 C55.7 44.6 61.9 53.2 62 56.9 C62.1 60.6 56.4 51 56.9 54 C57.4 57 61 61.5 60.6 64.2 C60.2 66.9 58 63.6 56.9 66.3 C55.8 69 58 71.8 56.6 75.1 C55.2 78.4 55.4 67.3 53.7 69.8 C52.1 72.2 53.1 79.8 50.8 81.8 C48.4 83.8 50.7 76.9 48.1 79.8 C45.5 82.7 45.1 85.8 40.9 87.3 C36.7 88.8 42.8 82.8 39.6 82.5 C36.4 82.2 35.3 89.3 31.9 89.9 C30 90.2 28.1 89.4 26.2 87.9 C24.7 86.7 23.5 81.6 22.1 81.4 C18.9 80.8 19.7 86.7 18.1 85.2 C17 84.2 16.9 82.5 16.4 81.4 C16.3 81.4 16 74.6 15.7 74.7 C15.2 75 13.4 80.9 12.9 81.2 C12.4 81.6 11.5 81.8 11 80.4 C9.9 77.2 11.6 70.7 11 67.6 C10.8 66.6 8.5 73.1 8.2 73.2 C7.7 73.5 7.1 73.6 6.6 72.2 C5.4 69 4 71.8 4 68.1 C4 67.7 4.1 65.3 4 65.1 C3.5 64.3 2.9 64.2 2.6 63.4 C2.3 62.2 3.1 60 4.2 58 C4.6 57.2 2.1 59 2 58 C1.9 56.7 2.8 55.1 3.5 52.7 C4.2 50.3 1.6 52.6 1.4 51.6 C1.1 50.3 2.4 48.9 2.4 47.9 C2.4 45.5 1.5 47.4 0.8 45.2 C0.4 44 3.1 41.6 3.4 40.9 C3.7 40.3 1.8 40.8 1.9 39.8 C2.1 37.5 4.5 38.5 4.1 37 C3.8 35.9 2.7 35.9 2.7 35.2 C2.7 33.1 4.5 34.8 4.1 32.3 C4 31.2 3.5 28.8 3.4 27.7 C3.3 26 5.9 26.2 5.6 24.8 C5 21.9 4.4 22.2 7 19.3 C7.5 18.7 6.6 16.2 7 15.1 C8 12.3 9.5 12.9 9.8 12.2 C10.4 10.8 9.3 10 10.5 9.1 C11.9 8.1 13.7 9.5 14.6 6.9 C15.1 5.4 15.7 5 16.6 3.9 C19.6 0.4 25.2 0 27.8 1.7 C28.8 2.3 32.4 3.6 34.6 5.5 z" stroke="#000000" stroke-width="3" opacity="0.15" id="p1" /></g><g transform="translate(31.5, 44.5) scale(-1, 1) translate(-31.5, -44.5)" id="q1"><path d="M5.2 44 C3.1 51.1 6.5 56.9 4.4 60.5 C2.3 64.1 5.2 62 5.2 65.6 C5.2 69.2 5.8 68.8 7 72 C8.2 75.2 9.8 70.3 10.5 73.4 C11.2 76.5 10.8 76.8 11.8 80 C12.8 83.2 14.2 78.9 15.6 80 C17 81.1 16.9 83.2 18.5 84.7 C20.1 86.2 19.3 82.8 22.5 83.4 C23.9 83.6 24.9 86.6 26.4 87.8 C28.3 89.3 30.7 89 32.6 88.7 C36 88.1 36.7 84.6 40 84 C43.3 83.4 36.6 87.9 40.8 86.4 C45 84.9 45.8 84.1 48.4 81.2 C51 78.3 48.6 83.2 51 81.2 C53.3 79.2 52.8 75.9 54.4 73.5 C56.1 71 55.3 78.2 56.7 74.9 C58.1 71.6 56.4 70.6 57.5 67.9 C58.6 65.2 60.3 66.7 60.7 64 C61.1 61.3 60 61.9 59.5 58.9 C59 55.9 62.1 60.2 62 56.5 C61.9 52.8 59.7 52 59.5 49.3 C59.3 46.6 61.3 51.2 61.3 48.6 C61.3 46 57.5 44.2 57.5 40.8 C57.5 37.4 60.5 42.1 59.5 38.7 C58.5 35.4 59.5 34.3 57.6 30.8 C55.7 27.3 55 29.8 52.4 25.6 C49.8 21.4 51.3 20.7 47.8 17.7 C45.9 16.1 42.7 16.1 39.9 14.3 C38.5 13.4 37.6 8 34.6 5.5 C32.4 3.6 28.8 2.3 27.8 1.7 C22.9 -1.3 16.5 10.7 11.8 14.3 C7.1 17.9 6.6 23 5.2 26.9 C3.1 32.6 6 41.1 5.2 44 z" id="r1" fill="#342520" /><path d="M5.2 44 C3.1 51.1 6.5 56.9 4.4 60.5 C2.3 64.1 5.2 62 5.2 65.6 C5.2 69.2 5.8 68.8 7 72 C8.2 75.2 9.8 70.3 10.5 73.4 C11.2 76.5 10.8 76.8 11.8 80 C12.8 83.2 14.2 78.9 15.6 80 C17 81.1 16.9 83.2 18.5 84.7 C20.1 86.2 19.3 82.8 22.5 83.4 C23.9 83.6 24.9 86.6 26.4 87.8 C28.3 89.3 30.7 89 32.6 88.7 C36 88.1 36.7 84.6 40 84 C43.3 83.4 36.6 87.9 40.8 86.4 C45 84.9 45.8 84.1 48.4 81.2 C51 78.3 48.6 83.2 51 81.2 C53.3 79.2 52.8 75.9 54.4 73.5 C56.1 71 55.3 78.2 56.7 74.9 C58.1 71.6 56.4 70.6 57.5 67.9 C58.6 65.2 60.3 66.7 60.7 64 C61.1 61.3 60 61.9 59.5 58.9 C59 55.9 62.1 60.2 62 56.5 C61.9 52.8 59.7 52 59.5 49.3 C59.3 46.6 61.3 51.2 61.3 48.6 C61.3 46 57.5 44.2 57.5 40.8 C57.5 37.4 60.5 42.1 59.5 38.7 C58.5 35.4 59.5 34.3 57.6 30.8 C55.7 27.3 55 29.8 52.4 25.6 C49.8 21.4 51.3 20.7 47.8 17.7 C45.9 16.1 42.7 16.1 39.9 14.3 C38.5 13.4 37.6 8 34.6 5.5 C32.4 3.6 28.8 2.3 27.8 1.7 C22.9 -1.3 16.5 10.7 11.8 14.3 C7.1 17.9 6.6 23 5.2 26.9 C3.1 32.6 6 41.1 5.2 44 z" id="s1" fill="#7B4C3A" /><path d="M45.6 17.7 C48.3 21.5 46.7 21.8 48.1 26.6 C49.5 31.4 50.8 29.1 51.8 33 C52.8 36.9 52.7 35.8 52.8 39.3 C52.9 42.8 50.4 40.2 49.5 43.5 C48.6 46.8 52.5 47.8 51.8 50.3 C51.1 52.8 49.5 48.8 48.9 51.5 C48.3 54.1 50.2 55.5 49.4 59.2 C48.6 62.8 45.8 59.2 45.5 62.3 C45.2 65.4 47.3 63.7 46.2 66.2 C45.1 68.8 43.8 66.8 42 69.2 C40.2 71.6 41.6 73 39.4 75.9 C37.2 78.8 38.1 73.3 35.8 75.3 C33.5 77.3 34.9 79.2 32.2 80.6 C29.4 81.9 30.7 77.5 27.4 79.6 C24.1 81.7 27.1 82 22.5 82.4 C18 82.8 22.6 80.9 19.2 80.6 C17.9 80.5 17.1 80.9 16.4 81.4 C16.2 80.9 15.9 80.5 15.4 80.1 C14 79 12.7 83.3 11.6 80.1 C10.5 76.9 10.9 76.6 10.3 73.5 C9.6 70.4 8 75.3 6.8 72.1 C5.6 68.9 4.2 71.7 4.2 68 C4.2 67.6 4.3 65.2 4.2 65 C3.7 64.2 3.1 64.1 2.8 63.3 C2.3 62.2 3.1 60 4.2 58 C4.6 57.2 2.1 59 2 58 C1.9 56.7 2.8 55.1 3.5 52.7 C4.2 50.3 1.6 52.6 1.4 51.6 C1.1 50.3 2.4 48.9 2.4 47.9 C2.4 45.5 1.5 47.4 0.8 45.2 C0.4 44 3.1 41.6 3.4 40.9 C3.7 40.3 1.8 40.8 1.9 39.8 C2.1 37.5 4.5 38.5 4.1 37 C3.8 35.9 2.7 35.9 2.7 35.2 C2.7 33.1 4.5 34.8 4.1 32.3 C4 31.2 3.5 28.8 3.4 27.7 C3.3 26 5.9 26.2 5.6 24.8 C5 21.9 4.4 22.2 7 19.3 C7.5 18.7 6.6 16.2 7 15.1 C8 12.3 9.5 12.9 9.8 12.2 C10.4 10.8 9.3 10 10.5 9.1 C11.9 8.1 13.7 9.5 14.6 6.9 C15.1 5.4 15.7 5 16.6 3.9 C19.6 0.4 25.2 0 27.8 1.7 C28.8 2.3 32.4 3.6 34.6 5.5 C37.6 8 38.6 13.4 39.9 14.3 C41.1 15.1 42.4 15.5 43.6 15.9 C44.4 16.4 45.1 17 45.6 17.7 z" id="t1" fill="#342520" /></g></g><g transform="translate(96.60001, 79.89997) translate(28, 0)" id="u1"><g id="v1"><g opacity="0.4" transform="translate(11, 12)" id="w1"><path d="M0 27.6 C0 38.8 2 46.5 7.2 51.6 C12.4 56.7 15.8 64.8 15.7 71.6 C15.6 78.4 15.2 85 17.9 89 C20.6 93 23.1 95.2 26.9 97 C28.6 97.8 31.4 96.2 34.5 96.2 C36.4 96.2 39.2 97.6 41.1 97.1 C46.1 95.8 49 90.1 50.2 88 C51.4 85.9 52.3 76.7 52.4 71.6 C52.5 66.5 55.4 57.5 57.9 54.2 C60.4 50.9 70 43.6 70 30.2 C70 16.8 58.1 0 33.8 0.3 C9.5 0.6 0 16.4 0 27.6 z" stroke="#000000" stroke-width="2.5" opacity="0.4" id="x1" /></g><g transform="translate(11, 11)" id="y1"><path d="M0 27.6 C0 38.8 1.4 48 6.6 53.1 C11.8 58.2 15.8 64.8 15.7 71.6 C15.6 78.4 15.9 85.2 18.6 89.2 C21.3 93.2 23.1 95.2 26.9 97 C28.6 97.8 31 97.2 34.1 97.2 C36 97.2 39.2 97.6 41.1 97.1 C46.1 95.8 48.3 90.6 49.5 88.5 C50.7 86.4 52.3 76.7 52.4 71.6 C52.5 66.5 56 58.5 58.5 55.2 C61 51.9 70 43.6 70 30.2 C70 16.8 58.1 0 33.8 0.3 C9.5 0.6 0 16.4 0 27.6 z" id="z1" fill="#7B4C3A" /></g><g id="a2"><g opacity="0.15" transform="translate(0, 1)" id="b2"><path d="M13.2 15 C13.3 15 13.4 14.9 13.4 14.9 C13.7 14.3 13.6 13 13.9 12.2 C14.1 11.5 14.8 11.6 15.5 11.9 C15.6 11.8 15.6 11.7 15.7 11.5 C16.3 10.5 16.4 10.9 17.1 11 C17 10.4 16.4 10.6 16.9 9.4 C17.1 8.7 17.6 8.5 18.1 8.4 C18.3 7.5 19.7 8.3 20.6 8.4 C21.3 6.5 20.1 7.5 20.6 6 C21.1 4.5 22.6 5.4 24.1 5.7 C25.8 6 26 3.9 26.8 3.4 C27.6 2.9 28.2 4.3 29.5 4 C30.8 3.7 29.2 2.3 30 2.4 C30.6 1.8 33.2 3.5 32.5 2.8 C31.8 2.1 33 1.1 34 1.1 C35 1.1 35.7 2.4 36.7 2.3 C37.7 2.2 37.2 1.3 38.4 0.8 C39.5 0.2 40.6 3.2 41.4 0.5 C42.6 0.3 44.1 0.7 45.7 1.3 C46.3 1.5 47.5 2.5 47.8 2.6 C48.9 2.8 49.1 0.3 50.9 0.8 C52.7 1.3 52.5 3.6 53.9 3.9 C55.3 4.2 56.5 2 57.3 2.3 C58.1 2.6 56.8 4.5 58 5 C59.2 5.5 60.7 4.1 62 4.3 C63.4 4.5 62.5 5.7 62.7 6.4 C64.3 5.8 64.4 5.5 65.4 4 C67.5 6.5 66.3 8 66.4 8.7 C67.5 8.5 67.7 7.4 68.7 7.3 C68.8 7.2 68.8 7.1 68.9 7 C69 7.1 69 7.2 69.1 7.3 C69.3 7.3 69.6 7.4 69.9 7.5 C72 8.4 70.9 10.8 71.3 11.5 C71.9 10.9 72.5 10.3 74.1 11 C75.8 11.7 75.7 13.3 75.7 14.4 C76.2 14.2 77.3 13.5 77.7 14.4 C77.9 14.8 77.8 15.3 77.7 15.8 C78.2 15.7 78.6 15.6 78.8 15.8 C80.2 16.7 80.3 18.5 80.6 19 C80.9 19.5 82.7 17.7 83.3 19 C83.9 20.3 82.3 22.8 82.3 22.8 C83.5 22.9 85.2 23.2 86.2 24.8 C87.7 27.1 85.9 28.5 85.2 29.3 C84.5 30 83.3 30.5 83.3 30.5 C84.3 31.3 86.6 33.4 86.8 34.1 C87 35.2 86.3 36.9 84.6 36.9 C86.4 38.5 87.3 37.7 87.3 40.2 C87.3 41.8 87 42.8 86.2 43.1 C87.3 45.5 85.1 46.2 82.3 47.7 C84.4 48.2 86.8 48.8 84 50.6 C81.2 52.4 82.8 50.6 82.8 51.3 C82.8 52 86.9 52.2 84 53 C81.1 53.8 79.5 51.9 77.7 52 C75.9 52.1 78.2 54.8 78.2 54.8 C79.6 55 82 55.8 79.3 55.5 C76.6 55.2 77 57 76.6 57.1 C77.3 58 79.7 58.8 78 59.4 C76.3 60.1 73.4 58 70.7 57.4 C68 56.8 69.3 58.1 69.3 58.1 C70.8 59.3 70.9 60.8 69.9 60.8 C68.4 60.9 65.5 60.2 64.6 59.3 C63.7 58.4 60.3 52.5 57.9 52.1 C55.5 51.7 55 56.8 53.9 57 C53.2 57.1 52.6 56.3 52.2 54.6 C52 56.2 51.7 56.5 50.9 56.5 C49.7 56.5 49.9 55.7 48.6 55.3 C47.3 54.9 48.8 58.3 46.9 58.1 C44.1 58.1 44.8 55.8 43.4 53.9 C41.7 52.5 40.7 55.7 40.6 57.1 C40.5 58.5 38.9 56.6 38.2 54.8 C37.6 53.1 37 55 35.3 56.7 C33.6 58.4 35 53.9 34.7 52.9 C34.4 51.9 34 54.2 32.9 55.6 C31.7 57 30.6 54.6 28.6 54.6 C26.6 54.6 27.9 52.4 26.2 53.1 C25 53.5 23.4 55 21.3 57 C19.2 59 17.8 61.5 16.2 62.3 C13.8 63.7 10.9 63.7 9.7 63.4 C7.8 62.9 6.7 61.4 5.9 60 L8.9 60 C7.2 58.9 5.3 57.4 3.8 55.7 C3.4 55.3 1.5 54.1 1.5 53.2 C1.5 51.8 4.6 52.9 4.4 50.9 C4.3 48.9 1.8 47.7 3 47 C4.2 46.3 0.4 41.6 0.4 39.7 C1.9 40 3.6 39.7 3.5 39.4 C2 37.5 1.2 36 0.8 34.5 C0.5 33 2.4 33.7 3.6 33 C2.9 32.3 1.9 30.3 2.8 29 C3.7 27.7 5.5 27.8 6.4 27.4 C5.7 26.6 5.4 25.4 5.6 23.8 C5.9 21.4 7 20 8.9 19.5 C10.8 18.9 10.2 19 10.2 18.8 C10.2 18.7 10.4 17.2 11.1 16 C11.7 15 11.9 15.3 12.5 15.4 C12.7 15.2 12.9 15.1 13.2 15 z" stroke="#000000" stroke-width="3" opacity="0.15" id="c2" /></g><path d="M21 57.7 C18.9 59.7 17.8 60.8 16.2 61.6 C13.8 63 11.2 63 10 62.7 C8.1 62.2 6.7 61.2 5.9 59.8 C7.7 59.8 8.7 59.8 8.9 59.8 C7.2 58.7 5.3 57.2 3.8 55.5 C3.4 55.1 2.7 54.1 2.7 53.2 C2.7 51.8 4.6 52.7 4.4 50.7 C4.3 48.7 1.5 47.4 2.7 46.7 C3.9 46 1.5 41.1 1.5 39.2 C3 39.5 3.7 39.5 3.6 39.2 C2 37.5 1.3 36.3 1.5 35.4 C1.7 34.5 2.4 33.7 3.6 33 C2.9 32.3 2.9 31.3 3.8 30 C4.7 28.7 5.5 27.8 6.4 27.4 C5.7 26.6 5.4 25.4 5.6 23.8 C5.9 21.4 6.2 20.4 8.1 19.9 C10 19.3 9.7 19.3 9.7 19.1 C9.7 19 10.4 17.1 11.1 15.9 C11.8 14.7 11.9 15.3 12.9 15.3 C13.9 15.3 13.5 13.3 13.9 12.2 C14.2 11.1 15.8 12.1 16.9 12.2 C17.7 10 16.3 11.1 16.9 9.4 C17.5 7.7 19.2 8.6 21 9 C22.8 9.4 22.9 7 23.9 6.4 C24.9 5.8 25.5 7.4 27.1 7.1 C28.7 6.8 26.8 5.1 27.7 5.3 C28.4 4.6 31.5 6.6 30.7 5.8 C29.9 5 31.3 3.9 32.5 3.9 C33.7 3.9 34.4 5.4 35.7 5.3 C36.9 5.2 36.3 4.2 37.6 3.5 C38.9 2.8 40.2 6.3 41.1 3.1 C42.5 2.9 44.3 3.3 46.1 4.1 C46.8 4.4 48.2 5.5 48.5 5.6 C49.8 5.8 50 2.9 52.1 3.6 C54.2 4.3 54 6.7 55.6 7 C57.2 7.3 58.6 4.8 59.6 5.2 C60.6 5.6 58.8 7.6 60.2 8.2 C61.6 8.8 63.3 7.1 64.9 7.3 C66.5 7.5 65.5 8.9 65.8 9.8 C67.6 9.1 67.8 8.8 68.9 7 C71.3 10 70 11.6 70 12.4 C71.6 12.1 71.5 9.9 74.1 11 C76.7 12.1 75.2 15.1 75.9 15.8 C76.6 16.5 78.2 15.4 78.8 15.8 C80.2 16.7 80.3 18.5 80.6 19 C80.9 19.5 82.7 17.7 83.3 19 C83.9 20.3 82.3 22.8 82.3 22.8 C83.5 22.9 84.6 23.7 85.6 25.3 C87.1 27.6 86.7 29.7 86 30.5 C85.3 31.2 85 31.8 85 31.8 C86 32.6 86.6 33.4 86.8 34.1 C87 35.2 86.3 36.9 84.6 36.9 C86.4 38.5 87.3 37.7 87.3 40.2 C87.3 41.8 87 42.8 86.2 43.1 C87.3 45.5 86.5 47.4 83.7 48.9 C85.8 49.4 85.1 49.7 84 50.6 C82.9 51.5 82.8 50.6 82.8 51.3 C82.8 52 84.6 52.1 84 53 C83.4 53.9 81.8 54.3 80 54.4 C78.2 54.5 78.2 54.8 78.2 54.8 C79.6 55 80.1 55.6 79.7 56.4 C79.1 57.6 77 57 76.6 57.1 C77.3 58 79.1 58.4 77.4 59 C75.7 59.7 74.3 59.6 71.6 59 C68.9 58.4 69.3 58.1 69.3 58.1 C70.8 59.3 71 60 70 60 C68.5 60.1 65.8 59.2 64.9 58.3 C64 57.4 60.4 54.3 58 53.9 C55.6 53.5 55 56.7 53.9 56.9 C53.2 57 52.6 56.2 52.2 54.5 C52 56.1 51.5 56.9 50.7 56.9 C49.5 56.9 49.9 55.6 48.6 55.2 C47.3 54.8 50.5 57.6 47.7 57.6 C44.9 57.6 46 55.1 43.3 54.9 C40.7 54.7 40.7 55.6 40.6 57 C40.5 58.4 38.6 58.3 37.9 56.5 C37.3 54.8 38.2 54.8 36.5 56.5 C34.8 58.2 34.9 56.5 34.6 55.5 C34.3 54.5 34 54.1 32.9 55.5 C31.7 56.9 30.6 54.5 28.6 54.5 C26.6 54.5 26.6 54.5 24.9 55.2 C23.7 55.6 23.1 55.7 21 57.7 z" id="d2" fill="#342520" /><path d="M8.6 26.9 C8.8 26.7 9.1 26.5 9.4 26.3 C8.8 25.7 8.8 24.8 9.6 23.7 C10.4 22.6 11.1 21.8 11.8 21.5 C11.2 20.8 10.9 19.7 11.1 18.4 C11.3 16.3 11.6 15.5 13.2 15 C14.8 14.5 14.5 14.5 14.5 14.3 C14.5 14.2 15.1 12.6 15.7 11.5 C16.3 10.4 16.4 11 17.3 11 C18.2 11 17.9 9.3 18.1 8.4 C18.3 7.5 19.7 8.3 20.6 8.4 C21.3 6.5 20.1 7.5 20.6 6 C21.1 4.5 22.6 5.4 24.1 5.7 C25.8 6 26 3.9 26.8 3.4 C27.6 2.9 28.2 4.3 29.5 4 C30.8 3.7 29.2 2.3 30 2.4 C30.6 1.8 33.2 3.5 32.5 2.8 C31.8 2.1 33 1.1 34 1.1 C35 1.1 35.7 2.4 36.7 2.3 C37.7 2.2 37.2 1.3 38.4 0.8 C39.5 0.2 40.6 3.2 41.4 0.5 C42.6 0.3 44.1 0.7 45.7 1.3 C46.3 1.5 47.5 2.5 47.8 2.6 C48.9 2.8 49.1 0.3 50.9 0.8 C52.7 1.3 52.5 3.6 53.9 3.9 C55.3 4.2 56.5 2 57.3 2.3 C58.1 2.6 56.8 4.5 58 5 C59.2 5.5 60.7 4.1 62 4.3 C63.4 4.5 62.5 5.7 62.7 6.4 C64.3 5.8 64.4 5.5 65.4 4 C67.5 6.5 66.3 8 66.4 8.7 C67.8 8.5 67.7 6.6 69.9 7.5 C72.1 8.4 70.8 11 71.4 11.6 C72 12.2 73.4 11.3 73.9 11.6 C75.1 12.4 75.2 14 75.4 14.4 C75.6 14.8 77.2 13.3 77.7 14.4 C78.2 15.5 76.9 17.6 76.9 17.6 C78 17.7 78.9 18.4 79.8 19.8 C80 20.1 80.1 20.4 80.2 20.6 C79.9 20.8 79.5 21 79 21 C79.7 21.6 80.3 21.8 80.7 22.1 C80.8 23 80.5 23.8 80.2 24.1 C79.6 24.7 79.4 25.2 79.4 25.2 C79.9 25.6 80.2 25.9 80.5 26.3 C80.8 26.9 80.9 27.5 80.9 28.1 C80.7 28.9 80.1 29.7 79.1 29.6 C79.4 29.9 79.7 30 79.9 30.2 C79.5 30.6 79 31 78.3 31.3 C80.1 31.7 79.5 32 78.5 32.7 C77.6 33.5 77.5 32.7 77.5 33.3 C77.5 33.9 79.1 34 78.5 34.8 C78 35.6 76.6 35.9 75 36 C73.4 36.1 73.4 36.3 73.4 36.3 C74.6 36.5 75.1 37 74.7 37.7 C74.2 38.8 71.7 36.7 71.4 36.9 C72 37.7 72.9 37.6 71.4 38.1 C69.9 38.7 70.2 38.8 67.9 38.3 C65.6 37.8 65.4 37.7 65.4 37.7 C65.4 39.2 65 39.9 64.1 40 C62.9 40.1 61 38.9 60.2 38.2 C59.4 37.5 58.1 38.6 56.1 38.2 C54.1 37.8 55 38.9 54 39 C53.4 39.1 52.8 39.1 52.4 39 C52.2 39.7 51.7 40 51 40 C50 40 50.3 39.3 49.2 39 C48.1 38.7 50.3 40 47.9 40 C45.5 40 46.6 38.5 44.4 38.3 C42.1 38.1 42.5 37.8 42.4 38.9 C42.3 40.1 40.1 40.4 39.6 38.9 C39.1 37.4 39.1 36.2 37.7 37.7 C36.2 39.2 37.1 39.8 36.9 38.9 C36.7 38.1 35.7 37.7 34.7 38.9 C33.7 40.1 32.9 39.9 31.2 39.9 C29.5 39.9 29.2 37.7 27.8 38.2 C26.7 38.7 26.2 37.1 24.4 38.8 C22.6 40.5 22.2 40 20.9 40.7 C18.8 41.8 19.4 41.6 18.4 41.4 C18.1 41.3 16.8 40.9 16.6 40.7 C15.8 40.4 15.6 40.1 16 39.8 C16.2 38.3 16.4 37.5 16.6 37.5 C15.1 36.5 11.1 38.3 9.8 36.9 C9.5 36.5 8.9 35.7 8.9 34.9 C8.9 33.7 10.5 34.5 10.4 32.8 C10.3 31 7.9 30 8.9 29.4 C9.2 29.2 8.9 28.1 8.6 26.9 z" id="e2" fill="#FAF4E8" /></g></g></g><g id="f2"><g transform="translate(102.3, 90.99997) translate(42, 3)" id="g2"><path d="M49.9 76.8 C49.7 75.5 49.3 74.2 48.8 72.8 C47.8 70.2 46 67.8 43.8 65.3 C43 63.2 42.2 60.6 40.1 56.4 C38.2 52.7 32.7 53.1 30.1 47.3 C28.8 42 28.2 36.5 28.4 31.1 C28.4 30.4 28.5 29.6 28.4 28.9 C28.6 18.6 28.7 14.3 34.2 10 C36.3 8.4 39.1 8.4 39.2 6.8 C39.5 2.4 30.6 0.9 25.1 0.7 C19.5 0.9 10.6 2.4 11 6.8 C11.1 8.4 13.9 8.4 16 10 C21.5 14.3 21.6 18.6 21.8 28.9 C21.8 29.6 21.8 30.4 21.8 31.1 C22 36.6 21.4 42 20.1 47.3 C17.5 53.1 12.1 52.7 10.1 56.4 C8 60.6 7.1 63.2 6.4 65.3 C4.2 67.8 2.3 70.1 1.4 72.8 C0.9 74.2 0.5 75.5 0.3 76.8 C1.2 93.2 11.8 94.6 25.1 94 C38.3 94.6 48.9 93.2 49.9 76.8 z" id="h2" fill="#FAF4E7" /><path d="M49.9 76.8 C48.9 93.2 38.3 94.6 25.1 94 C11.8 94.6 1.2 93.2 0.3 76.8 C0.5 75.5 0.9 74.2 1.4 72.8 C2.3 70.1 4.2 67.8 6.4 65.3 C7.1 63.2 8 60.6 10.1 56.4 C12.1 52.7 17.5 53.1 20.1 47.3 C21.4 42 22 36.6 21.8 31.1 C21.8 30.4 21.8 29.6 21.8 28.9 C21.6 18.6 21.5 14.3 16 10 C13.9 8.4 11.1 8.4 11 6.8 C10.6 2.4 19.5 0.9 25.1 0.7 C30.6 0.9 39.5 2.4 39.2 6.8 C39.1 8.4 36.3 8.4 34.2 10 C28.7 14.3 28.6 18.6 28.4 28.9 C28.5 29.6 28.4 30.4 28.4 31.1 C28.2 36.5 28.8 42 30.1 47.3 C32.7 53.1 38.2 52.7 40.1 56.4 C42.2 60.6 43 63.2 43.8 65.3 C46 67.8 47.8 70.2 48.8 72.8 C49.3 74.2 49.7 75.5 49.9 76.8 z M47.2 71.2 C46.2 68.7 44.3 66.5 42.2 64.1 C41.4 62.1 40.9 60.6 38.9 56.6 C37.1 53.1 31.3 52.6 28.8 47.1 C27.6 42 27.8 29.4 27.7 29 C27.9 19.2 28 14 33.3 9.9 C35.3 8.4 38.3 7.9 38.4 6.4 C38.9 3.2 30.4 1.2 25.2 1 C19.9 1.2 11.8 2.2 12.2 6.4 C12.4 8 15 8.5 17 10.1 C22.2 14.2 22 19.2 22.2 29 C22.2 29.7 22.5 43.6 20.6 47.9 C18.1 53.4 13.1 52.7 11.2 56.2 C9.2 60.2 8.3 62.2 7.6 64.2 C8.3 66.2 3.9 68.8 3 71.3 C2.5 72.6 2 73.6 1.8 74.8 C2.7 90.4 12.4 91.5 25.1 90.9 C37.7 91.5 47.7 91.5 48.7 75.9 C48.5 74.6 47.7 72.6 47.2 71.2 z" opacity="0.15" id="i2" /></g><g transform="translate(96.3, 78.19997) translate(63, 97)" id="j2"><g transform="translate(0, 1)" id="k2"><path d="M0.7 6.7 C1.9 6.8 2.7 6.9 3.3 6.8 C5 6.7 6.5 6.2 7.2 5.8 C8.1 5.3 8.8 4.8 9.5 4.3 C9.7 4.1 9.5 0.3 10 0.3 C10.5 0.3 10.4 4.1 10.5 4.2 C11.2 4.9 12 5.4 12.8 5.8 C13.5 6 14.3 6.5 16.1 6.7 C16.7 6.8 17.9 6.7 19.7 6.6 C16.3 7.4 14 7.9 12.8 8 C11.1 8.2 8.3 8 7.2 8 C5.2 8.1 3 7.6 0.7 6.7 z" id="l2" /></g></g><g transform="translate(106.9, 102.4) translate(51, 56)" id="m2"><g id="n2"><path d="M21.7 7 C20.6 1.1 14.2 0.3 11.5 0.3 C8.8 0.3 2.4 1.1 1.3 7 C0.5 11.1 1.3 11.5 1.3 11.5 L11.5 11.5 L21.7 11.5 C21.7 11.5 22.4 11.2 21.7 7 z" id="o2" fill="#282421" /><path d="M18.3 4.3 C18.4 3.8 17.8 3.1 17.5 2.8 C17 2.4 15.4 1.2 11.5 1.1 C7.6 1 6 2.3 5.5 2.8 C5.2 3.1 4.6 3.9 4.7 4.3 C6.2 3.5 9.8 2.8 11.5 6.6 C12.9 3.1 16.8 3.4 18.3 4.3 z" id="p2" fill="#FEFEFE" /></g></g><g transform="translate(108.4, 88.59996) translate(28, 31)" id="q2"><g id="r2"><path d="M27.4 14.8 C22.7 14.2 24.5 5.1 19.1 1.5 C15.1 -1.3 8.2 2.3 5.5 4.5 C1.9 7.3 -0.5 10.3 0.1 14.8 C0.7 19.3 4 23.4 8.3 24.9 C11.9 26.1 15.9 25.6 19.5 24.1 C22 23 30.4 15.1 27.4 14.8 z" id="s2" fill="#7B4C3A" /><path d="M5.1 12.4 C5.1 10.8 7.5 10 9.7 8.3 C10.5 7.7 12 6.6 13.8 6.6 C16.3 6.6 18.1 8.3 19.3 10.3 C20.6 12.5 22.2 14.7 21.7 15.7 C21.2 16.9 18.6 17.2 16 18.1 C14.8 18.5 11.4 18.4 9.5 16.8 C7.5 15 5.1 13.3 5.1 12.4 z" id="t2" fill="#342520" /><path d="M18.6 10.5 C18.4 10.1 18.2 9.8 17.9 9.5 C17.1 8.6 15.9 8.1 14.6 8.1 C13.9 8.1 13.3 8.3 12.7 8.5 C12.6 8.5 12.6 8.6 12.5 8.6 C12.3 8.7 12.1 8.8 11.9 8.9 C10.1 9.9 8.2 10.7 7.9 12.1 C7.7 13.1 9.8 14.7 11.6 16.1 C11.8 16.2 11.9 16.4 12.1 16.5 C12.1 16.5 12.2 16.5 12.2 16.6 C12.9 17 13.7 17.2 14.5 17.2 C14.7 17.2 14.9 17.2 15.1 17.1 L15.2 17.1 C15.5 17.1 15.7 17 16 16.9 C17.9 16.5 20.2 16.2 20.6 15 C21.1 14.2 19.9 12.3 18.6 10.5 z" id="u2" fill="#282421" /><path d="M11.5 12.4 C12 12.8 12.7 12.5 13.3 12.2 C14.5 11.6 17.1 10.9 17 10.4 C16.9 9.9 15.4 9.5 15.2 9.4 C14.5 9.2 13.5 9.2 12.9 9.5 C12.1 10 10.4 11.5 11.5 12.4 z" id="v2" fill="#FFFAF8" /></g></g><g transform="translate(105.4, 88.59996) translate(68, 31)" id="w2"><g id="x2"><path d="M1.6 14.8 C6.3 14.2 5.3 5.1 10.6 1.5 C14.6 -1.3 20.8 2.3 23.5 4.5 C27.1 7.3 29.5 10.3 28.9 14.8 C28.3 19.3 25 23.4 20.7 24.9 C17.1 26.1 13.1 25.6 9.5 24.1 C6.9 23 -1.4 15.1 1.6 14.8 z" id="y2" fill="#7B4C3A" /><path d="M23.9 12.4 C23.9 10.8 21.5 10 19.3 8.3 C18.5 7.7 17 6.6 15.2 6.6 C12.7 6.6 10.9 8.3 9.7 10.3 C8.4 12.5 6.8 14.7 7.3 15.7 C7.8 16.9 10.4 17.2 13 18.1 C14.2 18.5 17.6 18.4 19.5 16.8 C21.5 15 23.9 13.3 23.9 12.4 z" id="z2" fill="#342520" /><path d="M17.1 9 C16.9 8.9 16.7 8.8 16.5 8.7 C16.4 8.7 16.4 8.6 16.3 8.6 C15.7 8.3 15.1 8.2 14.4 8.2 C13.1 8.2 12 8.7 11.1 9.6 C10.8 9.9 10.5 10.3 10.3 10.7 C9.1 12.4 7.8 14.4 8.2 15.3 C8.7 16.5 10.9 16.8 12.8 17.2 C13.1 17.3 13.3 17.4 13.6 17.4 L13.7 17.4 C13.9 17.4 14.1 17.4 14.3 17.4 C15.2 17.4 15.9 17.2 16.6 16.7 C16.6 16.7 16.7 16.7 16.7 16.6 C16.9 16.5 17.1 16.3 17.2 16.2 C19.1 14.8 21.1 13.2 20.9 12.2 C20.8 10.8 18.9 10.1 17.1 9 z" id="a3" fill="#282421" /><path d="M11.1 12 C11.6 12.4 12.3 12.1 12.9 11.8 C14.1 11.2 16.7 10.5 16.6 10 C16.5 9.5 15 9.1 14.8 9 C14.1 8.8 13.1 8.8 12.5 9.1 C11.6 9.5 9.9 11.1 11.1 12 z" id="b3" fill="#FFFAF8" /></g></g></g></g></g></g><defs><g transform="translate(17.09519, 0.800995) translate(-135.2952, -293.601)" id="c3" fill="#000"><path d="M118.2 302.7 C118.4 307.4 132.5 311.2 149.8 311.2 C167.1 311.2 181.2 307.4 181.4 302.7 C181.4 307.5 181.4 310.1 181.4 310.5 C181.4 315.3 167.3 319.1 149.8 319.1 C132.3 319.1 118.2 315.2 118.2 310.5 L118.2 302.7 L118.2 302.7 z" fill-opacity="0.4528" id="d3" fill="#593001" /><path d="M118.7 301.7 C118.9 306.4 133 310.2 150.3 310.2 C167.6 310.2 181.7 306.4 181.9 301.7 C181.9 306.5 181.9 309.1 181.9 309.5 C181.9 314.3 167.8 318.1 150.3 318.1 C132.8 318.1 118.7 314.2 118.7 309.5 L118.7 301.7 L118.7 301.7 z" id="e3" fill="#DA8113" /><linearGradient x1="46.0545" y1="-118.6926" x2="45.4656" y2="-118.6926" gradientUnits="userSpaceOnUse" gradientTransform="matrix(117.135, 0, 0, 28.4634, -5208.417, 3687.795)" id="f3"><stop offset="0%" stop-color="#D9952A" stop-opacity="1" /><stop offset="6.438854%" stop-color="#CA7519" stop-opacity="1" /><stop offset="30.54%" stop-color="#E3AD3A" stop-opacity="1" /><stop offset="51.05%" stop-color="#FFEC91" stop-opacity="1" /><stop offset="68.8%" stop-color="#E9BD44" stop-opacity="1" /><stop offset="86.24%" stop-color="#FFED6C" stop-opacity="1" /><stop offset="93.87%" stop-color="#F2D353" stop-opacity="1" /><stop offset="100%" stop-color="#F2B947" stop-opacity="1" /></linearGradient><path d="M118.2 301.6 C118.4 306.1 132.7 309.7 150.3 309.7 C167.9 309.7 182.2 306.1 182.4 301.6 C182.4 306.2 182.4 308.7 182.4 309 C182.4 313.5 168 317.2 150.3 317.2 C132.6 317.2 118.2 313.5 118.2 309 L118.2 301.6 L118.2 301.6 z" id="g3" style="fill:url(#f3)" /><linearGradient x1="45.4914" y1="-117.9547" x2="45.9407" y2="-117.5895" gradientUnits="userSpaceOnUse" gradientTransform="matrix(115.425, 0, 0, 29.925, -5125.077, 3826.124)" id="h3"><stop offset="0%" stop-color="#F4E072" stop-opacity="1" /><stop offset="100%" stop-color="#DB9427" stop-opacity="1" /></linearGradient><ellipse cx="150.3" cy="301.5" rx="31.6" ry="8.2" id="i3" style="fill:url(#h3)" /><linearGradient x1="45.4656" y1="-126.0065" x2="46.0545" y2="-126.0065" gradientUnits="userSpaceOnUse" gradientTransform="matrix(117.135, 0, 0, 18.6219, -5208.417, 2651.479)" id="j3"><stop offset="0%" stop-color="#D9952A" stop-opacity="1" /><stop offset="6.438854%" stop-color="#CA7519" stop-opacity="1" /><stop offset="30.54%" stop-color="#E3AD3A" stop-opacity="1" /><stop offset="51.05%" stop-color="#FFEC91" stop-opacity="1" /><stop offset="68.8%" stop-color="#E9BD44" stop-opacity="1" /><stop offset="86.24%" stop-color="#FFED6C" stop-opacity="1" /><stop offset="93.87%" stop-color="#F2D353" stop-opacity="1" /><stop offset="100%" stop-color="#F2B947" stop-opacity="1" /></linearGradient><path d="M119.2 299.9 C119 300.2 118.9 300.6 118.9 301 C118.9 305.5 132.9 309.2 150.3 309.2 C167.7 309.2 181.7 305.5 181.7 301 C181.7 300.6 181.6 300.3 181.4 299.9 C182 300.5 182.4 301.2 182.4 301.9 C182.4 306.4 168 310.1 150.3 310.1 C132.6 310.1 118.2 306.4 118.2 301.9 C118.2 301.3 118.6 300.6 119.2 299.9 z" id="k3" style="fill:url(#j3)" /><linearGradient x1="45.196" y1="-121.5895" x2="45.3746" y2="-120.6758" gradientUnits="userSpaceOnUse" gradientTransform="matrix(101.745, 0, 0, 23.94, -4458.332, 3199.41)" id="l3"><stop offset="0%" stop-color="#F8DD61" stop-opacity="1" /><stop offset="100%" stop-color="#EAA330" stop-opacity="1" /></linearGradient><ellipse cx="150.3" cy="300.8" rx="27.8" ry="6.6" id="m3" style="fill:url(#l3)" /><linearGradient x1="45.5694" y1="-134.267" x2="45.0221" y2="-134.267" gradientUnits="userSpaceOnUse" gradientTransform="matrix(101.745, 0, 0, 13.2525, -4458.332, 2077.223)" id="n3"><stop offset="0%" stop-color="#F4CA2F" stop-opacity="1" /><stop offset="51.38%" stop-color="#BF7737" stop-opacity="1" /><stop offset="100%" stop-color="#E4A929" stop-opacity="1" /></linearGradient><path d="M122.6 301.5 C122.5 301.3 122.4 301 122.4 300.8 C122.4 297.2 134.9 294.2 150.2 294.2 C165.5 294.2 178 297.1 178 300.8 C178 301 177.9 301.3 177.8 301.5 C176.3 298.2 164.5 295.6 150.1 295.6 C135.7 295.6 124.1 298.2 122.6 301.5 z" id="o3" style="fill:url(#n3)" /></g></defs><desc>5I5JIIDIGGB,AJ04BbkJBS1VTrnRsd6b3pChnDkr/BRnASDgHCKcHr+aMQEKEV2l5d1hrVfkMSb4mc0bAHEoMt4tnQZ5uBxnCQ/NIWL3jP2mtF7FRAyqUVE=</desc></svg>