<?xml version="1.0" encoding="utf-8"?><!DOCTYPE svg PUBLIC "-//W3C//DTD SVG 1.1//EN" "http://www.w3.org/Graphics/SVG/1.1/DTD/svg11.dtd"><svg x="0" y="0" width="340px" height="340px" viewBox="0, 0, 340, 340" preserveAspectRatio="xMidYMid" font-size="0" id="a" enable-background="new 0 0 340 340" xmlns="http://www.w3.org/2000/svg" xmlns:xlink="http://www.w3.org/1999/xlink" xmlns:xml="http://www.w3.org/XML/1998/namespace" version="1.1"><g id="b" fill="#000"><g id="c"><g transform="translate(0, 0) translate(0, 224)" id="d"><ellipse cx="168.6" cy="53.1" rx="57.8" ry="12.8" fill-opacity="0.25" id="e" /></g><g id="f"><g transform="translate(102.6, 91.49998) translate(8, 107)" id="g"><path d="M17.9 35.7 C13.1 32.3 10.5 28 10 21.2 C9.9 20.1 0.7 17.8 0.4 21.9 C0.1 28 2.1 33.7 4.6 38.4 C7.9 44.5 15.6 50.4 23.9 50.4 L33.1 33.8 C29.3 37.3 22.1 38.7 17.9 35.7 z" id="h" fill="#66493D" /><path d="M0.4 21.9 C2 23.7 7 22.6 10 21.2 C9.9 20.1 9.9 19 9.9 17.8 C10.1 6.6 20 4.3 17.6 0.8 C15.2 -2.7 5.9 7.2 4.7 9 C1.9 13.4 0.6 17.8 0.4 21.9 z" id="i" fill="#EFE9E6" /><path d="M0.4 21.9 C0.6 17.8 1.9 13.4 4.7 9 C5.9 7.2 15.2 -2.7 17.6 0.8 C20 4.3 10.1 6.6 9.9 17.8 C9.9 19 9.9 20.1 10 21.2 C10.5 28 13.1 32.3 17.9 35.7 C22.1 38.7 29.3 37.3 33.1 33.8 L23.9 50.4 C15.6 50.4 7.9 44.5 4.6 38.4 C2.1 33.7 0.1 28 0.4 21.9 z M5.8 10.5 C3.3 14.5 2.1 18.5 1.9 22.2 C1.6 27.7 3.4 32.9 5.7 37.1 C8.7 42.6 15.7 48 23.2 48 L30.2 36.8 C26.8 40 20.8 39.5 17 36.8 C12.7 33.7 9.7 31.4 9.2 25.3 C9.1 24.3 8.6 19.6 8.6 18.6 C8.9 8.4 19.2 2.4 16.5 0.9 C14.9 -1.2 6.9 8.9 5.8 10.5 z" opacity="0.15" id="j" /></g><g transform="translate(128.1, 276.7) scale(1) translate(-128.1, -276.7) translate(102.6, 91.49998) translate(17, 134)" id="k"><path d="M3.2 22.3 C1.8 20.2 0.9 17.9 0.7 15.3 C0.2 8.8 5.5 2.5 11.9 1.2 C18.3 -0.1 25.2 2.9 29.1 8.2 C32.2 12.3 32.5 17.4 32.6 22.6 C32.6 24 5.5 25.8 3.2 22.3 z" id="l" fill="#AA6F4F" /><path d="M12.6 31.2 C9 28.7 5.3 25.7 3 22 C4.3 21.1 5.9 20.5 7.6 20.1 C15.5 18 28 20.5 32.5 22.2 C32.5 23.8 32.6 25.4 32.6 26.9 C32.7 29.8 36 37.8 36 37.8 C34.6 41.9 31.1 44.9 27.7 47.7 C27.3 48 26.9 48.3 26.5 48.7 C23.3 51.4 24.3 54.8 19.2 54.5 C15 54.3 9.2 55.3 5.3 53.7 C2 49.3 5.1 40.6 11.7 40.2 C16.6 39.9 19.1 39.2 18 36.8 C16.9 34.4 14.8 32.7 12.6 31.2 z" id="m" fill="#E8E5E3" /><path d="M3 22 C1.7 20 0.9 17.8 0.7 15.3 C0.2 8.8 5.5 2.5 11.9 1.2 C18.3 -0.1 25.2 2.9 29.1 8.2 C32.2 12.3 32.5 17.4 32.6 22.6 C32.6 22.6 32.6 22.7 32.5 22.7 C32.5 24.1 32.6 25.5 32.6 26.9 C32.7 29.8 36 37.8 36 37.8 C34.6 41.9 31.1 44.9 27.7 47.7 C27.3 48 26.9 48.3 26.5 48.7 C23.3 51.4 24.3 54.8 19.2 54.5 C15 54.3 9.2 55.3 5.3 53.7 C2 49.3 5.1 40.6 11.7 40.2 C16.6 39.9 19.1 39.2 18 36.8 C16.9 34.4 14.8 32.7 12.6 31.2 C9 28.7 5.3 25.7 3 22 L3 22 z M1.7 15 C1.9 17.3 2.7 19.4 3.9 21.3 C6.1 24.8 9.6 27.6 12.9 30 C15 31.4 18.1 34 19.1 36.2 C20.1 38.4 18.8 41 14.2 41.3 C8 41.7 3.9 46.6 7 50.8 C10.7 52.3 15.2 51.8 19.1 52 C24 52.2 23 49 26 46.5 C26.4 46.1 26.8 45.8 27.1 45.6 C30.3 43 32 41 33.3 37.1 C33.3 37.1 31.8 28.7 31.7 26 C31.7 24.7 31.6 23.4 31.6 22.1 C31.7 22.1 31.7 22 31.7 22 C31.6 17.1 31.3 12.3 28.4 8.4 C24.7 3.4 18.2 0.6 12.2 1.8 C6.2 3 1.2 8.9 1.7 15 z" opacity="0.15" id="n" /></g><g transform="translate(208.6, 276.7) scale(1) translate(-208.6, -276.7) translate(102.6, 91.49998) translate(83, 134)" id="o"><path d="M25.6 26.1 C30.2 22 32.1 22.1 32.6 15.3 C33.1 8.8 27.8 2.5 21.4 1.2 C15 -0.2 8.1 2.9 4.2 8.2 C0.3 13.5 0.2 20.6 1.3 26.8 C1.7 29.6 23.6 27.9 25.6 26.1 z" id="p" fill="#AA6F4F" /><path d="M20.6 31.2 C24.2 28.7 27.9 25.7 30.2 22 C28.9 21.1 27.3 20.5 25.6 20.1 C17.7 18 5.2 20.5 0.7 22.2 C0.7 23.8 2.1 45 5.4 47.7 C5.8 48 6.2 48.3 6.6 48.7 C9.8 51.4 8.8 54.8 13.9 54.5 C18.1 54.3 23.9 55.3 27.8 53.7 C31.1 49.3 28 40.6 21.4 40.2 C16.5 39.9 14 39.2 15.1 36.8 C16.2 34.4 18.5 32.7 20.6 31.2 z" id="q" fill="#E8E5E3" /><path d="M0.7 22.2 C0.4 17.3 1.2 12.2 4.2 8.2 C8.1 2.9 15 -0.2 21.4 1.2 C27.8 2.5 33.1 8.8 32.6 15.3 C32.3 19.4 31.5 21 29.9 22.5 C27.6 26 24.1 28.8 20.6 31.2 C18.5 32.7 16.2 34.4 15.1 36.8 C14 39.2 16.5 39.9 21.4 40.2 C28 40.6 31.1 49.3 27.8 53.7 C23.9 55.3 18.1 54.3 13.9 54.5 C8.8 54.8 9.8 51.4 6.6 48.7 C6.2 48.3 5.8 48 5.4 47.7 C2.1 45 0.7 23.8 0.7 22.2 C0.7 22.2 0.7 22.2 0.7 22.2 z M4.8 8.2 C2 12 1.3 16.8 1.5 21.5 C1.5 23 3.4 42.5 6.5 45.1 C6.9 45.4 7.5 46.6 7.9 47 C10.9 49.6 9.2 52.5 14 52.2 C18 52 23.5 53 27.2 51.4 C30.3 47.2 26.2 42 19.9 41.6 C15.3 41.3 12.6 39.3 13.6 37 C14.6 34.7 18.3 31.5 20.3 30.1 C23.5 27.8 26.9 25.2 29.1 21.9 C30.6 20.5 31.4 18.9 31.7 15 C32.2 8.8 27.1 2.9 21.1 1.6 C15.1 0.2 8.5 3.2 4.8 8.2 z" opacity="0.15" id="r" /></g><g transform="translate(102.6, 91.49998) translate(26, 69)" id="s"><path d="M76.6 41.7 C69 21.4 55 1.6 40.6 0.4 C26.2 1.7 12.2 21.4 4.6 41.7 C-0.4 55.2 4.3 71.1 8 84.1 C11 94.7 13.7 112.3 27.1 116.3 C30.7 117.6 35.1 118 40.6 118 C46.1 118 50.5 117.6 54.1 116.3 C67.4 112.3 70.2 94.7 73.2 84.1 C76.9 71 81.7 55.1 76.6 41.7 z" id="t" fill="#E8E5E3" /><path d="M76.6 41.7 C69 21.4 55 1.6 40.6 0.4 C26.2 1.7 12.2 21.4 4.6 41.7 C2.1 48.3 2 55.6 3 62.8 C10 70.9 23.1 75.4 40 75.4 C55.9 75.4 71.2 70.9 78.2 62.8 C79.2 55.5 79.1 48.3 76.6 41.7 z" id="u" fill="#EBB67F" /><path d="M2.9 62.3 C2 55.3 2.1 48.1 4.6 41.7 C12.2 21.4 26.2 1.7 40.6 0.4 C55 1.6 69 21.4 76.6 41.7 C81.7 55.1 76.9 71 73.2 84.1 C70.2 94.7 67.4 112.3 54.1 116.3 C50.5 117.6 46.1 118 40.6 118 C35.1 118 30.7 117.6 27.1 116.3 C13.7 112.3 11 94.7 8 84.1 C6.1 77.4 3.9 69.9 2.9 62.3 z M4.4 61.2 C5.3 68.5 7.4 75.7 9.3 82.1 C12.2 92.3 14.8 109.2 27.7 113 C31.2 114.2 35.4 114.6 40.7 114.6 C46 114.6 50.2 114.2 53.7 113 C66.5 109.2 69.2 92.2 72.1 82.1 C75.7 69.5 80.3 54.2 75.4 41.4 C67.9 21.9 54.4 2.9 40.6 1.7 C26.8 2.9 13.3 21.9 6 41.4 C3.7 47.6 3.5 54.4 4.4 61.2 z" opacity="0.15" id="v" /></g><g transform="translate(102.6, 91.49998) translate(31, 101)" id="w"><path d="M60.2 78.6 C60.9 58.3 69.1 43.8 69.1 23.9 C69.1 15.9 64.6 12.9 58.8 11.2 C53.9 9.7 51.4 8.5 47.9 6.3 C46.2 3.3 44.1 0.7 35.6 0.6 C27 0.7 25 3.3 23.3 6.3 C19.8 8.5 18.3 11 13.4 12.4 C7.6 14.1 1.7 25.4 3.3 33.2 C6.2 46.5 8.2 58 8.2 58 C8.2 58 11 71 10.9 78.7 C6 82 4.8 84.9 4.8 90 C5.1 91.8 24.2 94.4 26.4 90.6 C29.8 84.7 27.2 77.4 27.2 73.3 C27.2 67.2 27.4 58.2 27.5 48.5 C29.6 50.1 32.1 51.2 35.6 51.2 C39.1 51.2 41.6 50.1 43.7 48.5 C43.8 58.2 44 67.3 44 73.3 C44 77.4 41.4 84.8 44.8 90.6 C47 94.4 66.1 91.9 66.4 90 C66.3 84.8 65.1 81.8 60.2 78.6 z" id="x" fill="#FFF" /><path d="M12.3 9.7 C17.2 8.2 19.8 8.5 23.3 6.2 C23.5 6.3 26.7 8.5 24.4 14.6 C23.1 18 18.8 19.2 16.1 21.5 C11.2 25.7 11.3 33.7 10.6 40.2 C9.9 46.6 14.8 54.9 10.8 57.7 C9.9 58.4 9 58.5 8.1 57.9 C5 46.5 0.5 36.1 0.4 23.4 C0.5 15.4 6.6 11.4 12.3 9.7 z" id="y" fill="#66493D" /><path d="M58.9 9.4 C53.9 7.9 51.3 8.2 47.6 5.8 C47.4 5.9 44.1 8.1 46.5 14.3 C47.8 17.7 52.2 18.9 55 21.3 C60 25.5 59.9 33.7 60.6 40.1 C61.3 46.6 56.3 55 60.4 57.8 C61.3 58.5 62.2 58.7 63.1 58 C66.3 46.5 70.9 36 70.9 23.2 C71 15.2 64.8 11.2 58.9 9.4 z" id="z" fill="#66493D" /><path d="M63.9 55.3 C62.1 62.6 60.5 70.1 60.2 78.6 C65.1 81.8 66.3 84.8 66.4 90 C66.1 91.9 47 94.4 44.8 90.6 C41.4 84.8 44 77.4 44 73.3 C44 67.3 43.8 58.2 43.7 48.5 C41.6 50.1 39.1 51.2 35.6 51.2 C32.1 51.2 29.6 50.1 27.5 48.5 C27.4 58.2 27.2 67.2 27.2 73.3 C27.2 77.4 29.8 84.7 26.4 90.6 C24.2 94.4 5.1 91.8 4.8 90 C4.8 84.9 6 82 10.9 78.7 C11 71 8.2 58 8.2 58 C8.2 58 8.2 58 8.2 58 C8.2 58 8.1 58 8.1 57.9 C5 46.5 0.5 36.1 0.4 23.4 C0.5 15.4 6.6 11.4 12.3 9.7 C17.2 8.2 19.8 8.5 23.3 6.2 C23.3 6.2 23.3 6.2 23.3 6.2 C25 3.2 27 0.7 35.6 0.6 C43.6 0.7 46 3 47.6 5.8 C51.3 8.2 53.9 7.9 58.9 9.4 C64.8 11.2 71 15.2 70.9 23.2 C70.9 35 67 44.8 63.9 55.3 z M59.1 79.2 C59.4 71.1 60.9 60.9 62.6 53.9 C65.6 43.9 69.3 34.6 69.3 23.3 C69.4 15.7 63.5 11.9 57.9 10.2 C53 8.8 50.6 9 47 6.8 C45.5 4.1 43 1.6 35.3 1.5 C27.2 1.6 25.5 4.3 23.9 7.2 C20.6 9.4 18.1 9.1 13.4 10.5 C8 12.1 2.2 15.9 2.1 23.5 C2.2 35.6 6.5 45.5 9.5 56.4 C9.5 56.4 12.9 71.8 12.8 79.1 C8.1 82.2 6.9 82.3 6.9 87.1 C7.2 88.8 23.1 91.2 25.2 87.6 C28.4 82 25.4 74.7 25.4 70.8 C25.4 65 25 53.1 25.1 43.9 C27.1 45.4 32.2 49.9 35.6 49.9 C38.9 49.9 43.8 46.1 45.8 44.6 C45.9 53.8 45.8 66.5 45.8 72.2 C45.8 76.1 42.1 81.9 45.3 87.4 C47 90.3 63.8 88.3 63.8 87.9 C63.8 83.1 63.7 82.2 59.1 79.2 z" opacity="0.15" id="a1" /></g></g><g transform="translate(169.7, 184.7) scale(0.8808743) translate(-169.7, -184.7)" id="b1"><g transform="translate(92.7, 72.59998) translate(22, 25)" id="c1"><path d="M55.1 6.6 C55.8 6.6 60 3.9 60.8 3.9 C59.5 4.8 61.3 6 62.6 6 C65.7 6.2 71.2 2.5 74.2 3 C75.6 3.2 80.1 3.2 80.1 3.9 C77.3 5 78 5 78.7 5.5 C81.4 7.1 86.3 9.4 89.9 12 C91.3 13 96.4 13.1 97.4 8 C98.7 10.4 98.6 14.3 98.6 17.8 C98.6 19.5 97.6 20.2 101.5 17.8 C101.6 18.2 102 20.2 101.5 21.4 C100.8 23.2 99.3 24.5 99.5 24.8 C101 26.4 102.3 28.7 103.4 32 C102.9 31.5 101.9 30.8 100.3 30 C98 28.7 100.5 31.6 103.4 34.7 C106.3 37.8 108.7 41.3 111.5 42.1 C108.7 42.2 107.5 41.5 107.3 41.3 C107.1 41 110 43.2 110.6 45.7 C109.6 45 108.2 44.1 106.5 43.2 C109.3 45.5 110.6 47.6 110.6 49.3 C109.2 49.1 108.8 49.5 109.6 50.3 C112.1 53.2 113.6 55.9 113.9 58.6 C112.3 57.5 111.5 57.8 111.5 59.9 C111.5 62 114.9 61.9 113.9 68 C112.2 65.5 112.6 69.2 113.2 71.6 C113.8 74 112.7 73.7 111.5 75.6 C113.1 75.2 113.7 75.2 113.2 75.6 C110.6 78.1 108.8 80.6 107.8 82.9 C107.8 81.4 107.2 80.3 105.9 79.8 C105.5 82 105.3 83.6 105.3 84.6 C105.3 86 100.3 87.2 100.3 90.1 C100.3 92 99.3 93.6 97.3 94.8 L95.8 91.2 C94.4 92 93.5 93.2 93.2 94.8 C92.7 97.2 91 100.7 89.8 100.7 C89.6 99.4 89.2 98.1 88.5 96.8 C88.6 99.4 88.4 101.2 87.8 102.2 C87.2 103.2 86.4 104.3 85.3 105.5 L85.3 102.2 C84.6 104.4 83.4 106.1 81.7 107.3 C79.2 109.1 80.7 110.5 78.5 112.8 C77.3 110.4 77.5 113.7 76.6 115.9 C75.7 118.1 73 120.9 71.8 121.5 C71.3 120.4 71 119.5 71 118.7 C70 120 69.3 123.2 67.1 124.8 C65.6 125.8 64.4 126.4 63.3 126.4 C61.4 129.8 60.2 131.9 59.6 132.5 C59 133.1 58.7 131.7 58.7 128.1 C57 132.5 56.3 135 56.7 135.8 C57.2 136.9 52.7 133.6 52 129.2 C50.8 130.1 50.6 130.2 50.5 131.7 C50.4 133.2 47.3 125.2 47.1 122.3 C46.5 123.4 46.1 124.6 46.1 125.8 C44.4 124 43.4 122.6 42.9 121.7 C42.2 120.4 42.8 118.4 42.1 117.5 C41.1 116 40.2 114 39.3 111.4 C40.5 113.9 40.5 115.7 39.3 116.9 C37.8 114.6 35.1 114.4 35.1 110 C34.7 110.8 34.7 112 35.1 113.5 C34.4 112.8 31.8 110 30.9 107.5 C30 105 30.3 101.5 29.8 100.8 C29.1 102 28.6 101.3 29 104.9 C28.2 104.9 26.9 104.6 25.9 103.1 C25.1 101.9 24.3 98.6 23.7 98.2 C22.7 97.5 20.9 99.6 20.3 98.2 C19.9 97.3 21.3 92.7 21 92.6 C18.2 92.9 19.5 93.4 17.7 95 C14.3 93.1 16.2 92.4 14.6 90.3 C13.5 88.9 13.1 86.8 13.5 84 C12.4 85 12.1 86.2 12.7 87.6 C10.8 87.4 9.6 84.1 9.6 82.2 C8.5 83.3 7.9 84.2 7.7 84.9 C5.7 82.8 4.7 79.5 4.5 75.1 C4.4 70.7 4.7 68 5.5 67.1 C3.7 67.4 2.6 69 2.1 71.9 C0.7 69.8 -0.3 66.5 0.2 62.2 C0.5 59.4 1.3 56.7 2.6 54.1 L0.6 56.7 C-0.2 55 -0.2 53.1 0.6 51.1 C1.8 48.1 5.7 44.1 7.3 40.1 C8.3 37.4 9.3 35.7 10.2 34.9 C9.1 35.8 8.3 36.6 7.8 37 C7.4 37.5 6.3 37.9 4.6 38.3 C6.1 37 7 36 7.2 35.4 C7.9 33.9 8.1 32.8 8.2 32.6 C8.3 32.3 7.1 33 4.6 34.8 C5.7 31.7 6.5 29.7 7.2 28.6 C8.3 26.9 10.9 25.5 10.9 25 C10.9 23.5 11.2 22.7 9.7 21.6 C8.7 20.8 7.9 18.2 7.2 13.8 L10.1 15.6 C9.2 8.8 8.8 5.6 8.8 6 C8.8 6.4 10.2 8.4 12.8 12 C15.7 14.1 17.8 14.9 19.1 14.1 C21 13 23.5 8.5 26.4 8 C27.1 7.9 28.2 6.8 29.2 6.5 C32 5.7 35.3 5.4 37 4.5 C37.7 4.2 40 4.3 40.9 3.8 C41.4 3.5 35.6 1.2 37 1 C37.5 0.9 41.6 1.9 44.1 3 C44.5 3.2 45.4 3.9 45.7 3.4 C46 3 45.7 1.4 46.2 1.7 C47.4 2.3 49.2 5.4 49.4 5.5 C50.3 5.8 52.9 4.5 53.6 4.6 C54.6 4.9 53.6 6.6 55.1 6.6 z" id="d1" fill="#66493D" /><path d="M55.1 6.6 C55.8 6.6 60 3.9 60.8 3.9 C59.5 4.8 61.3 6 62.6 6 C65.7 6.2 71.2 2.5 74.2 3 C75.6 3.2 80.1 3.2 80.1 3.9 C77.3 5 78 5 78.7 5.5 C81.4 7.1 86.3 9.4 89.9 12 C91.3 13 96.4 13.1 97.4 8 C98.7 10.4 98.6 14.3 98.6 17.8 C98.6 19.5 97.6 20.2 101.5 17.8 C101.6 18.2 102 20.2 101.5 21.4 C100.8 23.2 99.3 24.5 99.5 24.8 C101 26.4 102.3 28.7 103.4 32 C102.9 31.5 101.9 30.8 100.3 30 C98 28.7 100.5 31.6 103.4 34.7 C106.3 37.8 108.7 41.3 111.5 42.1 C108.7 42.2 107.5 41.5 107.3 41.3 C107.1 41 110 43.2 110.6 45.7 C109.6 45 108.2 44.1 106.5 43.2 C109.3 45.5 110.6 47.6 110.6 49.3 C109.2 49.1 108.8 49.5 109.6 50.3 C112.1 53.2 113.6 55.9 113.9 58.6 C112.3 57.5 111.5 57.8 111.5 59.9 C111.5 62 114.9 61.9 113.9 68 C112.2 65.5 112.6 69.2 113.2 71.6 C113.8 74 112.7 73.7 111.5 75.6 C113.1 75.2 113.7 75.2 113.2 75.6 C110.6 78.1 108.8 80.6 107.8 82.9 C107.8 81.4 107.2 80.3 105.9 79.8 C105.5 82 105.3 83.6 105.3 84.6 C105.3 86 100.3 87.2 100.3 90.1 C100.3 92 99.3 93.6 97.3 94.8 L95.8 91.2 C94.4 92 93.5 93.2 93.2 94.8 C92.7 97.2 91 100.7 89.8 100.7 C89.6 99.4 89.2 98.1 88.5 96.8 C88.6 99.4 88.4 101.2 87.8 102.2 C87.2 103.2 86.4 104.3 85.3 105.5 L85.3 102.2 C84.6 104.4 83.4 106.1 81.7 107.3 C79.2 109.1 80.7 110.5 78.5 112.8 C77.3 110.4 77.5 113.7 76.6 115.9 C75.7 118.1 73 120.9 71.8 121.5 C71.3 120.4 71 119.5 71 118.7 C70 120 69.3 123.2 67.1 124.8 C65.6 125.8 64.4 126.4 63.3 126.4 C61.4 129.8 60.2 131.9 59.6 132.5 C59 133.1 58.7 131.7 58.7 128.1 C57 132.5 56.3 135 56.7 135.8 C57.2 136.9 52.7 133.6 52 129.2 C50.8 130.1 50.6 130.2 50.5 131.7 C50.4 133.2 47.3 125.2 47.1 122.3 C46.5 123.4 46.1 124.6 46.1 125.8 C44.4 124 43.4 122.6 42.9 121.7 C42.2 120.4 42.8 118.4 42.1 117.5 C41.1 116 40.2 114 39.3 111.4 C40.5 113.9 40.5 115.7 39.3 116.9 C37.8 114.6 35.1 114.4 35.1 110 C34.7 110.8 34.7 112 35.1 113.5 C34.4 112.8 31.8 110 30.9 107.5 C30 105 30.3 101.5 29.8 100.8 C29.1 102 28.6 101.3 29 104.9 C28.2 104.9 26.9 104.6 25.9 103.1 C25.1 101.9 24.3 98.6 23.7 98.2 C22.7 97.5 20.9 99.6 20.3 98.2 C19.9 97.3 21.3 92.7 21 92.6 C18.2 92.9 19.5 93.4 17.7 95 C14.3 93.1 16.2 92.4 14.6 90.3 C13.5 88.9 13.1 86.8 13.5 84 C12.4 85 12.1 86.2 12.7 87.6 C10.8 87.4 9.6 84.1 9.6 82.2 C8.5 83.3 7.9 84.2 7.7 84.9 C5.7 82.8 4.7 79.5 4.5 75.1 C4.4 70.7 4.7 68 5.5 67.1 C3.7 67.4 2.6 69 2.1 71.9 C0.7 69.8 -0.3 66.5 0.2 62.2 C0.5 59.4 1.3 56.7 2.6 54.1 L0.6 56.7 C-0.2 55 -0.2 53.1 0.6 51.1 C1.8 48.1 5.7 44.1 7.3 40.1 C8.3 37.4 9.3 35.7 10.2 34.9 C9.1 35.8 8.3 36.6 7.8 37 C7.4 37.5 6.3 37.9 4.6 38.3 C6.1 37 7 36 7.2 35.4 C7.9 33.9 8.1 32.8 8.2 32.6 C8.3 32.3 7.1 33 4.6 34.8 C5.7 31.7 6.5 29.7 7.2 28.6 C8.3 26.9 10.9 25.5 10.9 25 C10.9 23.5 11.2 22.7 9.7 21.6 C8.7 20.8 7.9 18.2 7.2 13.8 L10.1 15.6 C9.2 8.8 8.8 5.6 8.8 6 C8.8 6.4 10.2 8.4 12.8 12 C15.7 14.1 17.8 14.9 19.1 14.1 C21 13 23.5 8.5 26.4 8 C27.1 7.9 28.2 6.8 29.2 6.5 C32 5.7 35.3 5.4 37 4.5 C37.7 4.2 40 4.3 40.9 3.8 C41.4 3.5 35.6 1.2 37 1 C37.5 0.9 41.6 1.9 44.1 3 C44.5 3.2 45.4 3.9 45.7 3.4 C46 3 45.7 1.4 46.2 1.7 C47.4 2.3 49.2 5.4 49.4 5.5 C50.3 5.8 52.9 4.5 53.6 4.6 C54.6 4.9 53.6 6.6 55.1 6.6 z" opacity="0.15" id="e1" /><path d="M55.1 6.6 C55.8 6.6 60 3.9 60.8 3.9 C59.5 4.8 61.3 6 62.6 6 C65.7 6.2 71.2 2.5 74.2 3 C75.6 3.2 80.1 3.2 80.1 3.9 C77.3 5 78 5 78.7 5.5 C81.4 7.1 86.3 9.4 89.9 12 C91.3 13 96.4 13.1 97.4 8 C98.7 10.4 98.6 14.3 98.6 17.8 C98.6 19.5 97.6 20.2 101.5 17.8 C101.6 18.2 102 20.2 101.5 21.4 C100.8 23.2 99.3 24.5 99.5 24.8 C101 26.4 102.3 28.7 103.4 32 C102.9 31.5 101.9 30.8 100.3 30 C98 28.7 100.5 31.6 103.4 34.7 C106.3 37.8 108.7 41.3 111.5 42.1 C108.7 42.2 107.5 41.5 107.3 41.3 C107.1 41 110 43.2 110.6 45.7 C109.6 45 108.2 44.1 106.5 43.2 C109.3 45.5 110.6 47.6 110.6 49.3 C109.2 49.1 108.8 49.5 109.6 50.3 C112.1 53.2 113.6 55.9 113.9 58.6 C112.3 57.5 111.5 57.8 111.5 59.9 C111.5 62 114.9 61.9 113.9 68 C112.2 65.5 112.6 69.2 113.2 71.6 C113.8 74 112.7 73.7 111.5 75.6 C113.1 75.2 113.7 75.2 113.2 75.6 C110.6 78.1 108.8 80.6 107.8 82.9 C107.8 81.4 107.2 80.3 105.9 79.8 C105.5 82 105.3 83.6 105.3 84.6 C105.3 86 100.3 87.2 100.3 90.1 C100.3 92 99.3 93.6 97.3 94.8 L95.8 91.2 C94.4 92 93.5 93.2 93.2 94.8 C92.7 97.2 91 100.7 89.8 100.7 C89.6 99.4 89.2 98.1 88.5 96.8 C88.6 99.4 88.4 101.2 87.8 102.2 C87.2 103.2 86.4 104.3 85.3 105.5 L85.3 102.2 C84.6 104.4 83.4 106.1 81.7 107.3 C79.2 109.1 80.7 110.5 78.5 112.8 C77.3 110.4 77.5 113.7 76.6 115.9 C75.7 118.1 73 120.9 71.8 121.5 C71.3 120.4 71 119.5 71 118.7 C70 120 69.3 123.2 67.1 124.8 C65.6 125.8 64.4 126.4 63.3 126.4 C61.4 129.8 60.2 131.9 59.6 132.5 C59 133.1 58.7 131.7 58.7 128.1 C57 132.5 56.3 135 56.7 135.8 C57.2 136.9 52.7 133.6 52 129.2 C50.8 130.1 50.6 130.2 50.5 131.7 C50.4 133.2 47.3 125.2 47.1 122.3 C46.5 123.4 46.1 124.6 46.1 125.8 C44.4 124 43.4 122.6 42.9 121.7 C42.2 120.4 42.8 118.4 42.1 117.5 C41.1 116 40.2 114 39.3 111.4 C40.5 113.9 40.5 115.7 39.3 116.9 C37.8 114.6 35.1 114.4 35.1 110 C34.7 110.8 34.7 112 35.1 113.5 C34.4 112.8 31.8 110 30.9 107.5 C30 105 30.3 101.5 29.8 100.8 C29.1 102 28.6 101.3 29 104.9 C28.2 104.9 26.9 104.6 25.9 103.1 C25.1 101.9 24.3 98.6 23.7 98.2 C22.7 97.5 20.9 99.6 20.3 98.2 C19.9 97.3 21.3 92.7 21 92.6 C18.2 92.9 19.5 93.4 17.7 95 C14.3 93.1 16.2 92.4 14.6 90.3 C13.5 88.9 13.1 86.8 13.5 84 C12.4 85 12.1 86.2 12.7 87.6 C10.8 87.4 9.6 84.1 9.6 82.2 C8.5 83.3 7.9 84.2 7.7 84.9 C5.7 82.8 4.7 79.5 4.5 75.1 C4.4 70.7 4.7 68 5.5 67.1 C3.7 67.4 2.6 69 2.1 71.9 C0.7 69.8 -0.3 66.5 0.2 62.2 C0.5 59.4 1.3 56.7 2.6 54.1 L0.6 56.7 C-0.2 55 -0.2 53.1 0.6 51.1 C1.8 48.1 5.7 44.1 7.3 40.1 C8.3 37.4 9.3 35.7 10.2 34.9 C9.1 35.8 8.3 36.6 7.8 37 C7.4 37.5 6.3 37.9 4.6 38.3 C6.1 37 7 36 7.2 35.4 C7.9 33.9 8.1 32.8 8.2 32.6 C8.3 32.3 7.1 33 4.6 34.8 C5.7 31.7 6.5 29.7 7.2 28.6 C8.3 26.9 10.9 25.5 10.9 25 C10.9 23.5 11.2 22.7 9.7 21.6 C8.7 20.8 7.9 18.2 7.2 13.8 L10.1 15.6 C9.2 8.8 8.8 5.6 8.8 6 C8.8 6.4 10.2 8.4 12.8 12 C15.7 14.1 17.8 14.9 19.1 14.1 C21 13 23.5 8.5 26.4 8 C27.1 7.9 28.2 6.8 29.2 6.5 C32 5.7 35.3 5.4 37 4.5 C37.7 4.2 40 4.3 40.9 3.8 C41.4 3.5 35.6 1.2 37 1 C37.5 0.9 41.6 1.9 44.1 3 C44.5 3.2 45.4 3.9 45.7 3.4 C46 3 45.7 1.4 46.2 1.7 C47.4 2.3 49.2 5.4 49.4 5.5 C50.3 5.8 52.9 4.5 53.6 4.6 C54.6 4.9 53.6 6.6 55.1 6.6 z" opacity="0.1" id="f1" /><path d="M59.5 9 C60 10.2 61.7 8.2 62.4 8.2 C63.7 8.3 64.2 10.1 65.5 10.3 C67.1 10.5 69.4 9.1 70.9 9.3 C72.3 9.6 78.6 9 78.6 9.7 C76 10.8 76.7 10.8 77.3 11.2 C79.8 12.7 84.4 14.9 87.7 17.2 C89 18.1 93.7 18.3 94.7 13.5 C96 15.7 95.9 19.3 95.8 22.6 C95.8 24.2 94.8 24.9 98.5 22.6 C98.5 23 98.9 24.8 98.5 26 C97.9 27.7 96.4 28.9 96.7 29.2 C98.1 30.6 99.3 32.9 100.4 35.8 C98.6 35.5 98.6 36.3 100.4 38.3 C103.1 41.2 105.3 44.4 107.9 45.2 C105.3 45.3 104.2 44.7 104 44.4 C103.8 44.2 106.5 46.2 107.1 48.5 C106.1 47.8 104.9 47 103.2 46.2 C105.8 48.4 107.1 50.2 107.1 51.8 C105.8 51.6 105.5 52 106.2 52.8 C108 53.8 109.2 55.2 109.6 56.9 C107.7 56.9 108.3 56.9 108 58.5 C107.9 59.2 110.4 61.5 110.6 62.8 C108.6 62.2 108.4 64.3 108.6 64.8 C109.7 67.1 110.1 66.8 110.6 69 C110.9 70.5 110.6 72.2 109.6 74.3 C109 77.9 108.5 78.5 107.9 75.9 C107.1 72 105.7 78.1 105.3 78.6 C103.2 81 102.7 84.2 102.1 85.7 C102.1 84.3 101.2 81.9 99.4 78.6 C98.9 79.6 98.7 80.6 98.7 81.5 C98.7 82.8 98.7 85.9 96.1 89.2 C94.4 91.4 93.1 92.7 92.4 93.1 L90.9 89 C89.9 90.6 89.3 92.2 89 93.6 C88.5 95.8 88.2 94.3 87.7 96.1 C87.4 97.3 86.7 96.4 85.7 93.6 C85.7 95.3 85.5 96.8 85.1 98.2 C84.7 99.6 84.1 100.6 83.4 101.2 C83.6 99.8 83.6 98.8 83.4 98.2 C83.2 97.6 82.6 96.6 81.7 95.2 C81.3 99.7 80.7 102.3 80 103.2 C79.3 104.1 78.6 105.4 78.1 107.2 C77.7 105 77.4 103.4 77.4 102.4 C76.2 103.3 75.1 106.2 74.3 108.3 C73.5 110.4 73.4 110.9 72.1 112.7 C70.9 114.6 69.5 118.6 69.5 118.6 C69 115.1 68.7 113 68.6 112.2 C67.6 113.4 66.9 120 65.6 120.5 C65.1 118.9 64.1 117.8 62.5 117.3 C63.1 123.4 63.1 126.8 62.5 127.4 C61.9 128 61 126.9 59.6 124.1 C57.4 128.7 56.5 131.3 56.8 132 C57.1 132.6 54.9 128.4 54 124.9 C53.5 122.7 54.3 121.4 54 119.8 C52.9 120.7 51.8 122.7 51.7 124.1 C51.6 125.5 49.6 117.1 49.4 114.4 C48.8 115.4 48.3 117.2 47.8 119.8 C44.7 117.3 43 115 42.6 113 C42.2 111 42 109.7 42 109.1 C40.6 110.3 39.5 109.6 38.8 107 C37.7 103.2 38.3 103.2 38.3 103.2 C36.7 104.3 36.1 105.6 36.4 107 C35.7 106.3 35.9 104.9 35.1 101.9 C34.3 98.9 34.7 95.8 34.2 95.2 C33 96.3 32.4 99 32.5 103.2 C31.4 99.2 29.9 96.9 27.8 96.1 C24.8 95 23.9 90.3 25.7 87.4 C24.2 89.2 23.1 90.9 22.5 92.9 C22.5 91.3 20.3 89.4 18.7 87.4 C17.7 86.1 17.1 84.3 17.2 82 C15.5 84.1 15 85.7 15.5 87 C13.7 86.8 13 82 13 80.2 C12 81.2 11.3 79.2 10.8 74.1 C10 79.3 9.4 81.2 8.7 79.7 C7.8 77.7 6.9 78.2 6.8 75.3 C7 71.3 7.6 68.8 9 68 C8.1 68.6 7.3 69.1 6.6 69.6 C5.3 67.7 4.4 66.6 4.9 62.7 C5.2 60.1 5.6 57.9 6.2 56 L4.3 58.4 C3.6 56.8 3.6 55.1 4.3 53.2 C5.4 50.4 9.1 46.7 10.5 43 C11.5 40.5 12.4 38.9 13.2 38.2 C12.1 39.1 11.4 39.7 11 40.2 C10.6 40.6 9.6 41 8 41.4 C9.4 40.2 10.2 39.3 10.5 38.7 C11.1 37.3 11.3 36.3 11.4 36.1 C11.5 35.8 10.4 36.5 8 38.2 C9 35.4 9.8 33.4 10.5 32.4 C11.5 30.8 19 26.4 19 25.9 C19 24.5 14.2 27 12.8 25.9 C11.9 25.2 11.1 22.8 10.5 18.7 L13.2 20.3 C12.4 14.1 12 11.2 12 11.5 C12 11.8 13.3 13.7 15.8 17.1 C18.5 19.1 20.5 19.7 21.7 19.1 C23.5 18.1 25.8 13.9 28.5 13.4 C29.2 13.3 30.2 12.3 31.1 12 C33.7 11.3 36.8 11 38.4 10.2 C38.9 10 37.9 9.5 38.8 9 C39.3 8.7 41.8 9.1 43.1 9 C43.6 9 44.4 9.3 45.8 9.7 C46.8 9.9 47.4 7.4 47.8 7.5 C48.7 7.8 49.8 9.2 50.3 9.3 C50.9 9.5 53.2 7 54 9 C54.8 10.8 56.5 10.5 59.5 9 z" id="g1" fill="#AA6F4F" /><path d="M66.4 61.3 C65.1 59.8 63.9 58.6 62.9 57.6 C61.9 56.6 60.3 55.4 58.2 53.8 C58.7 53.9 59.4 54 60.3 54.2 C61.2 54.4 62.4 55 63.8 55.5 C62.6 54.2 61.5 52.9 60.7 52.1 C59.9 51.3 58.9 50.4 57.7 49.4 C58.4 49.5 59 49.7 59.3 49.8 C59.6 49.9 60.5 50.4 61.7 50.8 C60.8 49.8 60.1 48.9 59.7 48.5 C59 47.8 58.3 47 57.9 46.5 C57.2 45.5 56.9 44.4 56.8 43.1 C56.9 41.6 57.1 40.2 57.2 38.9 C57.4 37 58.3 32.8 58.8 31.5 C59.8 28.7 61.4 27.4 63.4 25.6 C66.3 23 68.3 18.8 71.2 18.9 C74.1 19 76.6 21.3 79 23.5 C81.4 25.7 85 29.9 85.9 33.3 C86.8 36.7 85.9 41 85.9 44.5 C87.5 42.9 90.3 41.7 92.9 43.1 C95.6 44.5 98.1 46.1 99.3 47.9 C96.9 47.3 95.5 47.1 95.2 47.5 C98 48.4 99.6 50.2 100.1 52.8 C97.8 51.3 96.5 50.6 96 50.6 C98.5 53 99.9 55.5 100.1 58.3 C100.3 61 100.2 63.1 99.7 64.5 C98.4 62.1 97.2 60 96 58.3 C97.6 65 97.5 67.1 96.4 69.4 C95.3 71.7 95.3 72.3 95.3 72.3 C94.2 70.5 93.5 69 93.1 67.8 C93.5 72 94.3 75.3 93.1 76.9 C92.8 75.3 92.1 74.1 91.1 73.4 C91.2 77.1 90.7 79.8 89.5 81.6 C87.8 84.3 86.3 85.9 84.9 86.5 C85.2 85.3 85.2 84 84.9 82.6 C83.4 84.2 82.1 85.9 80.9 87.6 C79.7 89.3 78.6 90.4 77.6 91 C78.1 88.3 78.8 86.6 79.7 85.8 C77.1 87.3 72.8 93.5 70.8 94.6 C67.9 96.5 67.7 96.5 66.1 98.8 C65.8 99.2 67.4 96 67 96.2 C66.5 96.5 62.3 99.3 62.3 102 C61 102.7 61.6 96.8 60.8 97.9 C58.4 101.2 58.3 106.7 58.1 108.5 C57.6 108.1 55.6 107 54.1 104.6 C53 102.8 52.3 99.8 51.6 98.8 C50.5 101.2 52.9 103.2 50.2 101.4 C47.5 99.6 47 97.3 46.4 96.8 C45.8 96.2 43.4 95.3 42.7 94.7 C42 94.2 44.8 95.2 44.1 94.7 C42.7 93.6 41.2 92.6 40.1 91.5 C38.6 90.1 37.6 88.7 37.2 87.3 C36.7 88.8 36.7 89.8 37.2 90.5 C33.6 88 34.3 87.3 34 85.9 C33.3 87.7 32.7 87.4 33.3 88.7 C31.8 87.7 31.9 84.8 30.9 84.4 C30.1 85.8 30.2 85.5 29.7 86.6 C28 82.1 27.8 83.8 27.8 81.7 C27.6 82.8 27.3 83.7 26.8 84.4 C25.2 81.9 24.4 79.9 24.4 78.6 C24.4 77.3 24.4 76.4 24.4 75.9 C23.4 76.6 22.9 77.6 22.8 78.6 C22.8 80.2 18.7 75 18.5 71.5 C18.3 69.2 18.4 67.3 18.8 65.8 C17.4 67.4 16.8 68.8 16.9 70 C14.8 68.7 14.9 65.4 14.8 63.8 C14.7 62.2 13.9 62.1 14.2 61.2 C14.5 60.3 15.7 57.8 15.7 57.8 C13.7 59 12.7 60.3 12.6 61.6 C10.9 59.3 14 54.2 14.9 53 C14 53 13.2 53.4 12.6 54.2 C11.6 52.7 11.7 51.1 13 49.4 C13.8 46.5 14.4 44.4 15 43.1 C15.9 41.2 17 40.4 17.8 39.9 C18.6 39.4 22 38.4 23.6 44 C25.5 39.6 28.3 30.8 29.8 28.4 C31.3 26 35 20.7 37.8 19.9 C40.7 19.1 41.6 20 43.1 21.1 C44 21.7 44.8 23.2 46.4 24.7 C47.6 25.9 49.5 27 50.2 28.4 C51.1 30.2 52.3 31.3 53 33.7 C53.5 35.7 53.6 36.8 53.8 39.1 C54 41.4 54 41.2 54 43.1 C54 45 53.8 45.4 52.9 46.6 C52.6 47.1 51.5 47.8 50.7 48.6 C50.4 48.9 49.5 49.3 48.7 50.3 C50 49.9 51.2 50 51.7 49.8 C52.2 49.6 52.6 49.6 53 49.5 L50.5 51.6 L45.4 56.3 C47.5 55.4 49.7 54.4 50.2 54.2 C50.7 54 51.4 54 52.4 54 C50 55.3 48 56.2 47.5 56.7 C44.6 59.3 44.7 59.5 44.4 59.9 C45.4 59.4 49.3 57.6 55.1 57.6 C58.6 57.3 62.4 58.7 66.4 61.3 z" id="h1" fill="#EBB67F" /><path d="M63.6 58.3 C63.4 58.1 63.1 57.8 62.9 57.6 C61.9 56.6 60.3 55.4 58.2 53.8 C58.7 53.9 59.3 54 60.1 54.2 C61.1 54.9 61.8 55.6 62.4 56.1 C63.3 57 64.4 58.1 65.6 59.5 C64.9 59.1 64.3 58.7 63.6 58.3 z M62.1 53.5 C61.6 53 61.1 52.5 60.7 52.1 C59.9 51.3 58.9 50.4 57.7 49.4 C58.2 49.5 58.6 49.6 58.9 49.7 C59.4 50.2 59.9 50.6 60.3 51 C61 51.7 62 52.7 63.1 53.9 C62.8 53.8 62.4 53.6 62.1 53.5 z M60.6 49.4 C60.2 49 60 48.7 59.7 48.5 C59 47.8 58.3 47 57.9 46.5 C57.2 45.5 56.9 44.4 56.8 43.1 C56.9 41.6 57.1 40.2 57.2 38.9 C57.4 37 58.3 32.8 58.8 31.5 C59.8 28.7 61.4 27.4 63.4 25.6 C66.3 23 68.3 18.8 71.2 18.9 C74.1 19 76.6 21.3 79 23.5 C81.4 25.7 85 29.9 85.9 33.3 C86.8 36.7 85.9 41 85.9 44.5 C87.5 42.9 90.3 41.7 92.9 43.1 C95.6 44.5 98.1 46.1 99.3 47.9 C96.9 47.3 95.5 47.1 95.2 47.5 C98 48.4 99.6 50.2 100.1 52.8 C97.8 51.3 96.5 50.6 96 50.6 C98.5 53 99.9 55.5 100.1 58.3 C100.3 61 100.2 63.1 99.7 64.5 C98.4 62.1 97.2 60 96 58.3 C97.6 65 97.5 67.1 96.4 69.4 C95.3 71.7 95.3 72.3 95.3 72.3 C94.2 70.5 93.5 69 93.1 67.8 C93.5 72 94.3 75.3 93.1 76.9 C92.8 75.3 92.1 74.1 91.1 73.4 C91.2 77.1 90.7 79.8 89.5 81.6 C87.8 84.3 86.3 85.9 84.9 86.5 C85.2 85.3 85.2 84 84.9 82.6 C83.4 84.2 82.1 85.9 80.9 87.6 C79.7 89.3 78.6 90.4 77.6 91 C78.1 88.3 78.8 86.6 79.7 85.8 C77.1 87.3 72.8 93.5 70.8 94.6 C67.9 96.5 67.7 96.5 66.1 98.8 C65.8 99.2 67.4 96 67 96.2 C66.5 96.5 62.3 99.3 62.3 102 C61 102.7 61.6 96.8 60.8 97.9 C58.4 101.2 58.3 106.7 58.1 108.5 C57.6 108.1 55.6 107 54.1 104.6 C53 102.8 52.3 99.8 51.6 98.8 C50.5 101.2 52.9 103.2 50.2 101.4 C47.5 99.6 47 97.3 46.4 96.8 C45.8 96.2 43.4 95.3 42.7 94.7 C42 94.2 44.8 95.2 44.1 94.7 C42.7 93.6 41.2 92.6 40.1 91.5 C38.6 90.1 37.6 88.7 37.2 87.3 C36.7 88.8 36.7 89.8 37.2 90.5 C33.6 88 34.3 87.3 34 85.9 C33.3 87.7 32.7 87.4 33.3 88.7 C31.8 87.7 31.9 84.8 30.9 84.4 C30.1 85.8 30.2 85.5 29.7 86.6 C28 82.1 27.8 83.8 27.8 81.7 C27.6 82.8 27.3 83.7 26.8 84.4 C25.2 81.9 24.4 79.9 24.4 78.6 C24.4 77.3 24.4 76.4 24.4 75.9 C23.4 76.6 22.9 77.6 22.8 78.6 C22.8 80.2 18.7 75 18.5 71.5 C18.3 69.2 18.4 67.3 18.8 65.8 C17.4 67.4 16.8 68.8 16.9 70 C14.8 68.7 14.9 65.4 14.8 63.8 C14.7 62.2 13.9 62.1 14.2 61.2 C14.5 60.3 15.7 57.8 15.7 57.8 C13.7 59 12.7 60.3 12.6 61.6 C10.9 59.3 14 54.2 14.9 53 C14 53 13.2 53.4 12.6 54.2 C11.6 52.7 11.7 51.1 13 49.4 C13.8 46.5 14.4 44.4 15 43.1 C15.9 41.2 17 40.4 17.8 39.9 C18.6 39.4 22 38.4 23.6 44 C25.5 39.6 28.3 30.8 29.8 28.4 C31.3 26 35 20.7 37.8 19.9 C40.7 19.1 41.6 20 43.1 21.1 C44 21.7 44.8 23.2 46.4 24.7 C47.6 25.9 49.5 27 50.2 28.4 C51.1 30.2 52.3 31.3 53 33.7 C53.5 35.7 53.6 36.8 53.8 39.1 C54 41.4 54 41.2 54 43.1 C54 45 53.8 45.4 52.9 46.6 C52.6 47.1 51.5 47.8 50.7 48.6 C50.5 48.8 50.2 49.2 49.8 49.6 C49.7 49.6 49.6 49.7 49.5 49.7 C50.2 48.8 50.8 48 51.1 47.8 C51.8 47.1 52.8 46.4 53.1 46 C53.9 44.9 53.2 44.5 53.2 42.8 C53.2 41.1 53.4 41.2 53.2 39.1 C53 37 53.1 36 52.6 34.1 C52 31.9 50.3 30.9 49.5 29.2 C48.9 27.9 46.6 27 45.5 25.9 C44 24.5 43.9 22.8 43.1 22.2 C41.7 21.2 40.9 20.4 38.3 21.1 C35.7 21.8 33.3 27 31.9 29.2 C30.5 31.4 25.3 42.2 23.5 46.3 C22 41.1 18.8 40.5 18.1 41 C17.9 41.1 16.8 43.5 16.1 44.7 C15 46.7 14.5 47.3 14.1 48.9 C12.9 50.5 12.1 51.4 13 52.8 C13.6 52.1 15.7 50.6 16.5 50.6 C15.7 51.7 14.1 56.1 13.7 58.4 C13.8 57.2 15.3 56.8 17.2 55.7 C17.2 55.7 16.4 58.2 16.2 59 C16 59.8 16.1 60.3 16.2 61.7 C16.3 63.2 14.6 65.4 16.6 66.6 C16.5 65.5 18.6 64.2 19.8 62.7 C19.4 64.1 19.6 66.9 19.8 69.1 C20 72.3 21.9 77.3 21.9 75.8 C22 74.9 23.4 73 24.3 72.4 C24.3 72.9 25.8 75.4 25.8 76.6 C25.8 77.8 24.8 79 26.3 81.3 C26.8 80.7 28.7 79.3 28.9 78.3 C28.9 80.2 28.2 79.2 29.7 83.4 C30.2 82.4 30.4 82.1 31.1 80.8 C32 81.2 31.5 83.6 32.9 84.6 C32.3 83.4 34 83.1 34.6 81.4 C34.9 82.7 32.8 84.6 36.1 86.9 C35.6 86.3 37.5 84.8 37.9 83.4 C38.3 84.7 38.5 86.7 39.9 88 C40.9 89 43.3 89.2 44.6 90.2 C45.2 90.7 41.5 89.7 42.1 90.2 C42.7 90.8 45 92.4 45.5 93 C46.1 93.5 47.2 95.8 48.9 97.6 C50.6 99.4 50 96.1 51 93.9 C51.6 94.8 52.1 97.8 53.1 99.4 C54.5 101.6 55.7 102.6 56.2 103 C56.4 101.3 59.2 97.8 61.4 94.8 C62.1 93.8 61.7 98.7 62.9 98 C62.9 95.5 67.6 92.4 68.1 92.1 C68.5 91.9 67.8 95.1 68.1 94.8 C69.6 92.7 68.5 93.3 71.1 91.6 C72.9 90.6 78.6 84.8 81 83.4 C80.2 84.1 80.1 84.8 79.6 87.3 C80.5 86.7 81.7 85 82.8 83.4 C83.9 81.8 83.6 80.5 85 79.1 C85.3 80.4 86.6 81.7 86.3 82.8 C87.6 82.2 89.6 73.5 89.5 70.1 C90.4 70.7 91.9 72.2 92.7 73.8 C93.2 72 92.3 67.5 92 63.6 C92.4 64.7 94.4 67.9 95.4 69.6 C96.4 67.5 95.5 60.6 94 54.4 C95.1 56 98.1 59.6 99.3 61.8 C99.8 60.5 99.3 57.9 98.2 55.3 C97.4 53.1 95 51.9 92.7 49.7 C93.2 49.7 96 49.7 98.2 51.1 C97.7 48.7 94.6 47.7 92 46.9 C92.3 46.5 93.9 45.9 96.1 46.4 C95 44.7 93.8 45 91.3 43.7 C88.9 42.4 86.6 45.8 85.1 47.3 C85.1 44.1 84.6 37.4 83.8 34.2 C83 31 81 27.3 78.8 25.3 C76.6 23.3 73.9 20.5 71.2 20.4 C68.5 20.3 66.1 24.5 63.5 26.9 C61.7 28.6 60.2 30.2 59.3 32.7 C59 33.8 58.2 37.3 58 39 C57.9 40.2 57.2 41.3 57.1 42.7 C57.2 43.9 57.1 44.9 57.7 45.8 C58.1 46.3 58.7 47 59.4 47.6 C59.8 48 60.3 48.6 61.1 49.5 C60.9 49.6 60.7 49.5 60.6 49.4 z M51.9 49.7 C52.3 49.6 52.6 49.6 53 49.5 L50.5 51.6 L48.2 54 C47.9 54.1 47.6 54.3 47.2 54.4 L51 50.5 L51.9 49.7 z M50.1 54.3 C50.2 54.3 50.2 54.3 50.2 54.2 C50.7 54 51.4 54 52.4 54 C50 55.3 48.5 56.2 48 56.7 C47.5 57.1 47.1 57.5 46.8 57.8 C46.2 58 45.8 58.3 45.6 58.4 C45.9 58 46 57.7 48.6 55.3 C48.9 55 49.4 54.7 50.1 54.3 z" opacity="0.5" id="i1" /></g><g transform="translate(139.8, 113.7) rotate(40, 0, 0) scale(0.7) translate(-139.8, -117.7) translate(105.9, 94.99998) translate(0, 10)" id="j1"><path d="M34.2 17.4 C32.8 24.5 33.1 32 35.2 39 C35.9 41.5 36.9 44 37.3 46.6 C38.1 52.1 38.1 63 36.3 67.9 C34.1 73.8 24 75.8 20.3 72.4 C15.9 68.4 14.1 57.3 11 52.3 C6.8 45.5 2.5 38.6 1.2 30.7 C0.3 25.3 1 19.3 4.6 15.2 C7.8 11.5 12.7 9.8 17.4 8.3 C20.3 7.4 37.8 -1 39.6 0.8 C40.6 1.7 34.6 15.3 34.2 17.2 C34.2 17.3 34.2 17.4 34.2 17.4 z" id="k1" fill="#66493D" /><path d="M34.2 17.4 C32.8 24.5 33.1 32 35.2 39 C35.9 41.5 36.9 44 37.3 46.6 C38.1 52.1 38.1 63 36.3 67.9 C34.1 73.8 24 75.8 20.3 72.4 C15.9 68.4 14.1 57.3 11 52.3 C6.8 45.5 2.5 38.6 1.2 30.7 C0.3 25.3 1 19.3 4.6 15.2 C7.8 11.5 12.7 9.8 17.4 8.3 C20.3 7.4 37.8 -1 39.6 0.8 C40.6 1.7 34.6 15.3 34.2 17.2 C34.2 17.3 34.2 17.4 34.2 17.4 z M33.1 36.9 C31.3 30.5 31 23.6 32.2 17 C32.5 15.3 37.7 2.9 36.8 2 C35.3 0.4 20.3 8 17.8 8.8 C13.8 10.2 9.6 11.7 6.8 15.1 C3.7 18.8 3.1 24.3 3.9 29.2 C5 36.5 8.7 42.8 12.3 49 C15 53.6 16.5 63.7 20.3 67.3 C23.5 70.4 32.1 68.6 34 63.2 C35.5 58.7 35.5 48.8 34.9 43.8 C34.5 41.4 33.7 39.1 33.1 36.9 z" opacity="0.15" id="l1" /></g><g transform="translate(199.8, 113.7) rotate(-40, 0, 0) scale(0.7) translate(-199.8, -117.7) translate(99.59999, 94.99998) translate(114, 47.5) scale(-1, 1) translate(-114, -47.5) translate(94, 10)" id="m1"><path d="M34 17.4 C32.6 24.5 32.9 32 35 39 C35.7 41.5 36.7 44 37.1 46.6 C37.9 52.1 37.9 63 36.1 67.9 C33.9 73.8 23.8 75.8 20.1 72.4 C15.7 68.4 13.9 57.3 10.8 52.3 C6.6 45.5 2.3 38.6 1 30.7 C0.1 25.3 0.8 19.3 4.4 15.2 C7.6 11.5 12.5 9.8 17.2 8.3 C20.1 7.4 37.6 -1 39.4 0.8 C40.4 1.7 34.4 15.3 34 17.2 C34 17.3 34 17.4 34 17.4 z" id="n1" fill="#66493D" /><path d="M34 17.4 C32.6 24.5 32.9 32 35 39 C35.7 41.5 36.7 44 37.1 46.6 C37.9 52.1 37.9 63 36.1 67.9 C33.9 73.8 23.8 75.8 20.1 72.4 C15.7 68.4 13.9 57.3 10.8 52.3 C6.6 45.5 2.3 38.6 1 30.7 C0.1 25.3 0.8 19.3 4.4 15.2 C7.6 11.5 12.5 9.8 17.2 8.3 C20.1 7.4 37.6 -1 39.4 0.8 C40.4 1.7 34.4 15.3 34 17.2 C34 17.3 34 17.4 34 17.4 z M32.8 17.1 C32.8 17.1 32.8 17 32.8 16.9 C33.2 15.2 38.6 2.8 37.7 1.9 C36.1 0.3 20.1 7.9 17.4 8.7 C13.1 10.1 8.6 11.6 5.7 15 C2.4 18.7 1.8 24.2 2.6 29.1 C3.8 36.3 7.7 42.6 11.5 48.8 C14.3 53.4 16 63.5 20 67.1 C23.4 70.2 32.6 68.4 34.6 63 C36.2 58.5 36.2 48.6 35.5 43.6 C35.1 41.2 34.2 38.9 33.6 36.7 C31.8 30.5 31.5 23.6 32.8 17.1 z" opacity="0.15" id="o1" /></g><g id="p1"><g transform="translate(102.5, 94.69998) translate(42, 3)" id="q1"><path d="M49.9 76.8 C49.7 75.5 49.3 74.2 48.8 72.8 C47.8 70.2 46 67.8 43.8 65.3 C43 63.2 42.2 60.6 40.1 56.4 C38.2 52.7 32.7 53.1 30.1 47.3 C28.8 42 28.2 36.5 28.4 31.1 C28.4 30.4 28.5 29.6 28.4 28.9 C28.6 18.6 28.7 14.3 34.2 10 C36.3 8.4 39.1 8.4 39.2 6.8 C39.5 2.4 30.6 0.9 25.1 0.7 C19.5 0.9 10.6 2.4 11 6.8 C11.1 8.4 13.9 8.4 16 10 C21.5 14.3 21.6 18.6 21.8 28.9 C21.8 29.6 21.8 30.4 21.8 31.1 C22 36.6 21.4 42 20.1 47.3 C17.5 53.1 12.1 52.7 10.1 56.4 C8 60.6 7.1 63.2 6.4 65.3 C4.2 67.8 2.3 70.1 1.4 72.8 C0.9 74.2 0.5 75.5 0.3 76.8 C1.2 93.2 11.8 94.6 25.1 94 C38.3 94.6 48.9 93.2 49.9 76.8 z" id="r1" fill="#F9F9F9" /><path d="M49.9 76.8 C48.9 93.2 38.3 94.6 25.1 94 C11.8 94.6 1.2 93.2 0.3 76.8 C0.5 75.5 0.9 74.2 1.4 72.8 C2.3 70.1 4.2 67.8 6.4 65.3 C7.1 63.2 8 60.6 10.1 56.4 C12.1 52.7 17.5 53.1 20.1 47.3 C21.4 42 22 36.6 21.8 31.1 C21.8 30.4 21.8 29.6 21.8 28.9 C21.6 18.6 21.5 14.3 16 10 C13.9 8.4 11.1 8.4 11 6.8 C10.6 2.4 19.5 0.9 25.1 0.7 C30.6 0.9 39.5 2.4 39.2 6.8 C39.1 8.4 36.3 8.4 34.2 10 C28.7 14.3 28.6 18.6 28.4 28.9 C28.5 29.6 28.4 30.4 28.4 31.1 C28.2 36.5 28.8 42 30.1 47.3 C32.7 53.1 38.2 52.7 40.1 56.4 C42.2 60.6 43 63.2 43.8 65.3 C46 67.8 47.8 70.2 48.8 72.8 C49.3 74.2 49.7 75.5 49.9 76.8 z M47.2 71.2 C46.2 68.7 44.3 66.5 42.2 64.1 C41.4 62.1 40.9 60.6 38.9 56.6 C37.1 53.1 31.3 52.6 28.8 47.1 C27.6 42 27.8 29.4 27.7 29 C27.9 19.2 28 14 33.3 9.9 C35.3 8.4 38.3 7.9 38.4 6.4 C38.9 3.2 30.4 1.2 25.2 1 C19.9 1.2 11.8 2.2 12.2 6.4 C12.4 8 15 8.5 17 10.1 C22.2 14.2 22 19.2 22.2 29 C22.2 29.7 22.5 43.6 20.6 47.9 C18.1 53.4 13.1 52.7 11.2 56.2 C9.2 60.2 8.3 62.2 7.6 64.2 C8.3 66.2 3.9 68.8 3 71.3 C2.5 72.6 2 73.6 1.8 74.8 C2.7 90.4 12.4 91.5 25.1 90.9 C37.7 91.5 47.7 91.5 48.7 75.9 C48.5 74.6 47.7 72.6 47.2 71.2 z" opacity="0.15" id="s1" /></g><g transform="translate(102.5, 94.69999) translate(58, 77)" id="t1"><g id="u1"><path d="M9.1 8.1 C9.1 8.1 5.5 10.3 3.5 11.1 C4.6 12 6.9 13.1 9.1 13.1 C11.3 13.1 13.5 12 14.7 11.1 C12.7 10.2 9.1 8.1 9.1 8.1 z" id="v1" fill="#CE5253" /><path d="M18.5 13.8 C18.5 13.8 18.4 13.7 18.2 13.4 C18 13.2 17.7 12.8 17.4 12.5 C16.7 11.7 15.7 10.8 14.5 10 C13.4 9.2 12.1 8.4 11.1 8 C10.8 7.9 10.6 7.8 10.4 7.7 C10.3 7.7 10.2 7.7 10.1 7.6 L10.1 1.9 C10.1 1.3 9.7 0.9 9.1 0.9 C8.5 0.9 8.1 1.3 8.1 1.9 L8.1 7.6 C8 7.6 7.9 7.7 7.9 7.7 C7.7 7.8 7.4 7.9 7.2 8 C6.2 8.5 5 9.2 4 10 C2.9 10.8 2 11.8 1.4 12.6 C1.1 13 0.8 13.3 0.7 13.5 C0.5 13.7 0.4 13.9 0.4 13.9 C0.3 14.1 0.3 14.4 0.4 14.6 C0.6 14.8 0.9 14.8 1.1 14.6 C1.1 14.6 1.2 14.5 1.4 14.3 C1.6 14.1 1.9 13.9 2.3 13.6 C3 13 4 12.3 5.1 11.7 C6.2 11.1 7.3 10.7 8.1 10.5 C8.3 10.5 8.5 10.4 8.6 10.4 C8.6 10.4 8.6 10.4 8.7 10.4 C8.8 10.5 9 10.5 9.2 10.5 C9.4 10.5 9.5 10.4 9.7 10.4 L9.8 10.4 C10 10.4 10.2 10.5 10.4 10.5 C11.3 10.7 12.5 11.1 13.6 11.7 C14.8 12.3 15.8 13 16.6 13.5 C17 13.8 17.3 14 17.5 14.2 C17.7 14.4 17.9 14.5 17.9 14.5 C18.1 14.7 18.4 14.7 18.6 14.5 C18.7 14.3 18.7 14 18.5 13.8 z" id="w1" fill="#282523" /></g></g><g transform="translate(105.9, 83.99998) translate(53, 75)" id="x1"><g id="y1"><path d="M0.8 8.1 C0.8 4.5 0.5 3.4 3 2.3 C5.5 1.2 7.8 1 10.7 1 C13.6 1 18.5 0.8 19.9 3.1 C21.3 5.4 20.8 7 20.8 9.2 C20.8 11.4 18 11.5 16.7 12.8 C15.3 14.2 15.2 15.1 13.4 15.2 C11.4 15.3 9.4 15.4 8.1 15.2 C7 15.1 5.5 13.7 4.8 12.8 C3.1 10.8 0.8 11.7 0.8 8.1 z" id="z1" /><path d="M15 6.7 C12 5.3 11.4 4.3 11.4 3.5 C11.4 2.7 13.2 2 15.4 2 C17.6 2 19 3.1 19.4 4.4 C19.5 4.8 19.9 6.3 19.4 6.7 C18.7 7.2 16.6 7.4 15 6.7 z" id="a2" fill="#FFF" /></g></g><g transform="translate(102.5, 94.69997) translate(40, 35)" id="b2"><g id="c2"><path d="M17.3 3.9 C16.9 3.3 14.9 2 13.6 1.4 C10.9 0.2 8.6 1 6.3 1.9 C4.8 2.5 1.9 3.8 1.2 5.3 C0.4 6.9 0.8 8.9 1.7 10.4 C3.4 13.4 6.8 15.4 10.2 14.9 C11.7 14.7 14.8 12.4 16.6 9.5 C17.5 11 16.8 13.9 17.1 13.9 C17.5 13.9 21.4 8.8 17.3 3.9 z" id="d2" fill="#AA6F4F" /><path d="M2.7 4.7 C4.3 2.4 10.9 -0.6 13 1.3 C17.7 5.4 12.9 11.7 9.1 11.9 C5.2 12.1 0.5 7.9 2.7 4.7 z" id="e2" fill="#282421" /><path d="M8.2 3.9 C6.9 3.5 6.3 3.7 5.7 4.2 C5.1 4.7 4.7 5.6 5 6.3 C5.5 7.3 7 7.1 7.9 6.6 C8.8 6 8.8 6 10.9 5.4 C10 4.6 9.4 4.3 8.2 3.9 z" id="f2" fill="#FEFEFE" /></g></g><g transform="translate(102.5, 94.69997) translate(74, 35)" id="g2"><g id="h2"><path d="M18.9 5.2 C18.2 3.7 15.3 2.4 13.8 1.8 C11.5 0.9 9.2 0.1 6.5 1.3 C5.2 1.9 3.9 2.7 2.8 3.8 C-1.3 8.8 2.6 13.8 2.9 13.8 C3.2 13.8 2.5 10.9 3.4 9.4 C5.1 12.2 8.3 14.5 9.8 14.8 C13.2 15.3 16.6 13.3 18.3 10.3 C19.3 8.8 19.7 6.9 18.9 5.2 z" id="i2" fill="#AA6F4F" /><path d="M17.5 4.7 C15.9 2.4 9.3 -0.6 7.2 1.3 C2.5 5.4 7.3 11.7 11.1 11.9 C15 12.1 19.7 7.9 17.5 4.7 z" id="j2" fill="#282421" /><path d="M10.6 3.5 C9.3 3.1 8.7 3.3 8.1 3.8 C7.5 4.3 7.1 5.2 7.4 5.9 C7.9 6.9 9.4 6.7 10.3 6.2 C11.2 5.6 11.2 5.6 13.3 5 C12.4 4.2 11.9 3.9 10.6 3.5 z" id="k2" fill="#FEFEFE" /></g></g></g></g></g><g id="l2"><g transform="matrix(1, 0, 0, 1, 0, -0.02002716)"><g transform="translate(139.8999, 90.19873) scale(1.077665, 1.087655)"><g transform="translate(216, 86) translate(-2418.1, -264.9)" id="m2"><path d="M2261.7 204.9 C2261.5 202.5 2260.5 200.3 2260.3 198.1 C2260.1 195.5 2261.4 193 2261.4 190.3 C2261.4 187.7 2260.8 184.9 2259 182.9 C2257.1 180.8 2254.3 180.8 2251.7 181.4 C2246.5 182.7 2242.2 186.6 2238.6 190.5 C2238.2 190.9 2237.9 191.2 2237.5 191.7 C2237 191.2 2236.4 191 2235.8 190.8 C2235 190.6 2234.1 190.6 2233.3 190.6 C2231.4 190.6 2229.3 190.4 2227.9 191.8 C2225.4 189 2222.7 186.3 2219.5 184.1 C2216.4 182.1 2211.8 180 2208.2 181.6 C2204.6 183.2 2203.8 188.3 2204.1 191.9 C2204.2 193.8 2205 195.6 2205 197.4 C2205.1 198.9 2204.4 200.5 2204.1 201.9 C2203.2 205.9 2203.5 211.1 2207.4 213.5 C2210.2 215.2 2213.8 213.5 2216.5 212.4 C2218.5 211.7 2220.4 210.9 2222.3 210.2 C2223.2 209.7 2224.3 209.4 2225.2 208.9 C2225.7 208.7 2226.1 208.4 2226.6 208.3 C2227.5 207.8 2227.5 207.9 2228.4 208.5 C2230.2 209.6 2234.3 209.6 2236.3 208.7 C2237 208.3 2237.4 207.8 2238.1 208.1 C2238.8 208.3 2239.4 208.7 2240.1 208.9 C2241.6 209.6 2243.2 210.2 2244.7 210.8 C2247.4 211.9 2250.1 212.9 2252.8 213.6 C2254.8 214.2 2256.5 214.3 2258.2 213 C2261.1 211.3 2261.8 207.8 2261.7 204.9 C2261.5 202.5 2261.8 207.7 2261.7 204.9 z" id="n2" fill="#E21E28" /><path d="M2232.6 204.6 C2231.9 201.9 2231.2 199.3 2230.5 196.6 C2230.3 195.9 2230.3 194.9 2229.8 194.4 C2228.4 192.4 2226.7 190.5 2225 188.9 C2223.3 190.9 2222.2 194.4 2222.5 197 C2222.6 197.6 2222.9 197.5 2223.2 197.8 C2223.6 198.3 2223.7 198.9 2223.7 199.5 C2223.7 200.3 2223.5 202 2222.5 202.2 C2223 201.7 2223.3 203.7 2223.3 203.9 C2223.5 205.2 2223.8 206.6 2224.4 207.9 C2224.9 209 2225.1 208.8 2226.2 208.4 C2227.3 208 2228.3 207.5 2229.4 207 C2229.9 206.4 2232.6 205.6 2232.6 204.6 z" id="o2" fill="#B51A30" /><path d="M2213.6 187.6 C2219.6 187.4 2224.7 192.6 2227.2 197.6 C2226.4 197.8 2225.8 198.1 2225.5 198.8 C2225.4 199 2224.1 198.2 2223.8 198.2 C2222.4 197.5 2220.9 197 2219.4 196.4 C2217.4 195.6 2215.5 194.9 2213.5 194 C2212.3 193.5 2210.8 193.2 2209.8 192.3 C2208 190.8 2210.6 187.8 2213.6 187.6 z" id="p2" fill="#B51A30" /><path d="M2240.6 199.8 C2244.1 201.5 2258 198.9 2256 207.9 C2254.9 212.7 2243.3 206.6 2239.3 203.5" id="q2" fill="#B51A30" /><path d="M2232.8 204.6 C2233.5 201.9 2234.2 199.3 2234.9 196.6 C2235.1 195.9 2235.1 194.9 2235.6 194.4 C2237 192.4 2238.7 190.5 2240.4 188.9 C2242.1 190.9 2243.2 194.4 2242.9 197 C2242.8 197.6 2242.5 197.5 2242.2 197.8 C2241.8 198.3 2241.7 198.9 2241.7 199.5 C2241.7 200.3 2241.9 202 2242.9 202.2 C2242.4 201.7 2242.1 203.7 2242.1 203.9 C2241.9 205.2 2241.6 206.6 2241 207.9 C2240.5 209 2240.3 208.8 2239.2 208.4 C2238.1 208 2237.1 207.5 2236 207 C2235.6 206.4 2232.8 205.6 2232.8 204.6 z" id="r2" fill="#B51A30" /><path d="M2251.8 187.6 C2245.8 187.4 2240.7 192.6 2238.2 197.6 C2238.7 197.7 2239.4 197.8 2239.7 198.3 C2239.8 198.4 2239.7 198.8 2239.8 198.8 C2240 199 2241.5 198.1 2241.8 198 C2244.3 197.1 2246.9 196.5 2249.3 195.6 C2251.2 195 2256 194.1 2256.6 191.7 C2257.4 189.5 2253.7 187.8 2251.8 187.6 z" id="s2" fill="#B51A30" /><path d="M2234.5 208.7 C2232.5 208.7 2230.3 209.1 2228.5 207.9 C2226.5 206.5 2226.5 204.4 2226.5 202.2 C2226.5 198.4 2225.2 190.8 2231.1 190.8 C2233 190.7 2235.5 190.4 2237.1 191.6 C2239.1 193 2239.1 195.1 2239.1 197.3 C2239.1 201.1 2240.4 208.7 2234.5 208.7 z" id="t2" fill="#E21E28" /><path d="M2224.8 199.8 C2221.7 201.2 2217.7 200.3 2214.4 200.6 C2213.1 200.7 2211.1 201 2210.4 202 C2209.5 203.4 2210.6 206.2 2211.1 207.7 C2212.6 213.4 2224 205.1 2226.1 203.5" id="u2" fill="#B51A30" /><path d="M2239.1 204.1 L2239.1 201 C2236.2 205.6 2229.3 205.4 2226.5 200.8 C2226.5 202 2226.5 203 2226.5 204.2 C2226.5 206.7 2228.6 208.8 2231.1 208.8 C2234.4 208.9 2239.1 208.6 2239.1 204.1 z" id="v2" fill="#B51A30" /><path d="M2254.5 181.3 C2261.3 181.3 2261.5 190.5 2260.3 195.2 C2259.5 198.4 2260.9 200.7 2261.2 203.8 C2261.7 207.2 2260.8 211.2 2257.7 213.2 C2255.6 214.6 2253 213.6 2250.7 212.8 C2246.9 211.5 2243.3 210 2239.6 208.3 C2238.8 207.9 2237.9 207.2 2237.2 207.7 C2236.4 208.3 2235.4 208.6 2234.4 208.6 C2233.4 208.6 2232.3 208.6 2231.3 208.6 C2230.7 208.6 2230.1 208.6 2229.5 208.4 C2229 208.3 2228.6 208 2228.2 207.7 C2227.6 207.2 2227.6 207.5 2227 207.7 C2225.1 208.5 2223.2 209.4 2221.2 210.2 C2218.1 211.5 2215 212.8 2211.7 213.6 C2209.5 214.1 2207.6 213.6 2206 211.8 C2203.6 209.1 2203.6 205.3 2204.5 202 C2204.7 200.8 2205.3 199.6 2205.4 198.5 C2205.6 197 2205.2 195.6 2204.8 194.1 C2203.7 189.5 2204.7 181.2 2210.8 181.2 C2217.6 181.1 2223.7 187.2 2227.8 191.9 C2229.8 189.9 2235.6 189.9 2237.6 191.9 C2241.8 187 2247.9 181.3 2254.5 181.3 z M2210.9 180.1 C2206.5 180.1 2204.2 183.9 2203.6 187.9 C2203.2 189.8 2203.2 191.7 2203.6 193.4 C2203.8 195.2 2204.7 196.9 2204.2 198.8 C2203.3 202.6 2202.1 206.3 2203.8 210.2 C2205.1 213.1 2207.9 215.5 2211.2 214.9 C2214.1 214.4 2217 213.2 2219.8 212.1 C2221.9 211.3 2223.9 210.4 2225.9 209.5 C2226.5 209.3 2227.1 209 2227.7 208.8 C2228.1 209.2 2228.5 209.4 2229 209.5 C2229.8 209.7 2230.5 209.9 2231.4 209.9 C2232.5 209.9 2233.4 209.9 2234.5 209.9 C2235.3 209.9 2236.3 209.7 2237 209.3 C2237.7 208.9 2237.7 208.7 2238.5 209.1 C2239.2 209.5 2240 209.8 2240.7 210 C2244.2 211.5 2247.8 213.1 2251.5 214.1 C2253.9 214.8 2256.1 215.4 2258.3 214.1 C2262.2 211.7 2263 207.1 2262.4 203 C2262.2 201.5 2261.7 200.2 2261.3 198.6 C2260.8 196.7 2261.7 195.1 2262 193.2 C2262.6 189.5 2262.1 185.1 2259.6 182.1 C2257 178.9 2252.6 179.5 2249.2 180.9 C2245.4 182.4 2242.2 185.1 2239.4 188 C2238.8 188.6 2238.2 189.2 2237.6 189.9 C2237.2 190.4 2235.6 189.4 2234.9 189.4 C2233.7 189.3 2232.7 189.4 2231.5 189.4 C2230.9 189.4 2230.4 189.4 2230 189.5 C2229.5 189.6 2228.9 189.7 2228.6 190 C2228 190.4 2228.1 190.1 2227.7 189.6 C2226.4 188.2 2225 186.8 2223.5 185.5 C2220 182.8 2215.6 180 2210.9 180.1 z" id="w2" fill="#910916" /></g></g></g></g></g><defs><g transform="translate(17.09519, 0.800995) translate(-135.2952, -293.601)" id="x2" fill="#000"><path d="M118.2 302.7 C118.4 307.4 132.5 311.2 149.8 311.2 C167.1 311.2 181.2 307.4 181.4 302.7 C181.4 307.5 181.4 310.1 181.4 310.5 C181.4 315.3 167.3 319.1 149.8 319.1 C132.3 319.1 118.2 315.2 118.2 310.5 L118.2 302.7 L118.2 302.7 z" fill-opacity="0.4528" id="y2" fill="#593001" /><path d="M118.7 301.7 C118.9 306.4 133 310.2 150.3 310.2 C167.6 310.2 181.7 306.4 181.9 301.7 C181.9 306.5 181.9 309.1 181.9 309.5 C181.9 314.3 167.8 318.1 150.3 318.1 C132.8 318.1 118.7 314.2 118.7 309.5 L118.7 301.7 L118.7 301.7 z" id="z2" fill="#DA8113" /><linearGradient x1="46.0545" y1="-118.6926" x2="45.4656" y2="-118.6926" gradientUnits="userSpaceOnUse" gradientTransform="matrix(117.135, 0, 0, 28.4634, -5208.417, 3687.795)" id="a3"><stop offset="0%" stop-color="#D9952A" stop-opacity="1" /><stop offset="6.438854%" stop-color="#CA7519" stop-opacity="1" /><stop offset="30.54%" stop-color="#E3AD3A" stop-opacity="1" /><stop offset="51.05%" stop-color="#FFEC91" stop-opacity="1" /><stop offset="68.8%" stop-color="#E9BD44" stop-opacity="1" /><stop offset="86.24%" stop-color="#FFED6C" stop-opacity="1" /><stop offset="93.87%" stop-color="#F2D353" stop-opacity="1" /><stop offset="100%" stop-color="#F2B947" stop-opacity="1" /></linearGradient><path d="M118.2 301.6 C118.4 306.1 132.7 309.7 150.3 309.7 C167.9 309.7 182.2 306.1 182.4 301.6 C182.4 306.2 182.4 308.7 182.4 309 C182.4 313.5 168 317.2 150.3 317.2 C132.6 317.2 118.2 313.5 118.2 309 L118.2 301.6 L118.2 301.6 z" id="b3" style="fill:url(#a3)" /><linearGradient x1="45.4914" y1="-117.9547" x2="45.9407" y2="-117.5895" gradientUnits="userSpaceOnUse" gradientTransform="matrix(115.425, 0, 0, 29.925, -5125.077, 3826.124)" id="c3"><stop offset="0%" stop-color="#F4E072" stop-opacity="1" /><stop offset="100%" stop-color="#DB9427" stop-opacity="1" /></linearGradient><ellipse cx="150.3" cy="301.5" rx="31.6" ry="8.2" id="d3" style="fill:url(#c3)" /><linearGradient x1="45.4656" y1="-126.0065" x2="46.0545" y2="-126.0065" gradientUnits="userSpaceOnUse" gradientTransform="matrix(117.135, 0, 0, 18.6219, -5208.417, 2651.479)" id="e3"><stop offset="0%" stop-color="#D9952A" stop-opacity="1" /><stop offset="6.438854%" stop-color="#CA7519" stop-opacity="1" /><stop offset="30.54%" stop-color="#E3AD3A" stop-opacity="1" /><stop offset="51.05%" stop-color="#FFEC91" stop-opacity="1" /><stop offset="68.8%" stop-color="#E9BD44" stop-opacity="1" /><stop offset="86.24%" stop-color="#FFED6C" stop-opacity="1" /><stop offset="93.87%" stop-color="#F2D353" stop-opacity="1" /><stop offset="100%" stop-color="#F2B947" stop-opacity="1" /></linearGradient><path d="M119.2 299.9 C119 300.2 118.9 300.6 118.9 301 C118.9 305.5 132.9 309.2 150.3 309.2 C167.7 309.2 181.7 305.5 181.7 301 C181.7 300.6 181.6 300.3 181.4 299.9 C182 300.5 182.4 301.2 182.4 301.9 C182.4 306.4 168 310.1 150.3 310.1 C132.6 310.1 118.2 306.4 118.2 301.9 C118.2 301.3 118.6 300.6 119.2 299.9 z" id="f3" style="fill:url(#e3)" /><linearGradient x1="45.196" y1="-121.5895" x2="45.3746" y2="-120.6758" gradientUnits="userSpaceOnUse" gradientTransform="matrix(101.745, 0, 0, 23.94, -4458.332, 3199.41)" id="g3"><stop offset="0%" stop-color="#F8DD61" stop-opacity="1" /><stop offset="100%" stop-color="#EAA330" stop-opacity="1" /></linearGradient><ellipse cx="150.3" cy="300.8" rx="27.8" ry="6.6" id="h3" style="fill:url(#g3)" /><linearGradient x1="45.5694" y1="-134.267" x2="45.0221" y2="-134.267" gradientUnits="userSpaceOnUse" gradientTransform="matrix(101.745, 0, 0, 13.2525, -4458.332, 2077.223)" id="i3"><stop offset="0%" stop-color="#F4CA2F" stop-opacity="1" /><stop offset="51.38%" stop-color="#BF7737" stop-opacity="1" /><stop offset="100%" stop-color="#E4A929" stop-opacity="1" /></linearGradient><path d="M122.6 301.5 C122.5 301.3 122.4 301 122.4 300.8 C122.4 297.2 134.9 294.2 150.2 294.2 C165.5 294.2 178 297.1 178 300.8 C178 301 177.9 301.3 177.8 301.5 C176.3 298.2 164.5 295.6 150.1 295.6 C135.7 295.6 124.1 298.2 122.6 301.5 z" id="j3" style="fill:url(#i3)" /></g></defs><desc>DDDDLDDD9DD,7YIgDGwG35hGHw6N2sSx7NXhzSexjP+vYDh0kkkqmZTviK0BAt7o0mX6N30MoyO2PjN7LXL2jhZU4SWxwulm3hbDfTWwEowzQ9l+UH9E5RdL2S1najUi+B5aboa4U0zTCTjbqCe4QtcMIQZlpcylfqfG7BJnh4lSH/vEaIwOSWpoeFluLoDtZt6Sl9KlLg+D</desc></svg>