<?xml version="1.0" encoding="utf-8"?><!DOCTYPE svg PUBLIC "-//W3C//DTD SVG 1.1//EN" "http://www.w3.org/Graphics/SVG/1.1/DTD/svg11.dtd"><svg x="0" y="0" width="340px" height="340px" viewBox="0, 0, 340, 340" preserveAspectRatio="xMidYMid" font-size="0" id="a" enable-background="new 0 0 340 340" xmlns="http://www.w3.org/2000/svg" xmlns:xlink="http://www.w3.org/1999/xlink" xmlns:xml="http://www.w3.org/XML/1998/namespace" version="1.1"><g id="b" fill="#000"><g id="c"><g transform="translate(0, 0) translate(0, 224)" id="d"><ellipse cx="168.6" cy="53.1" rx="57.8" ry="12.8" fill-opacity="0.25" id="e" /></g><g id="f"><g transform="translate(100.5, 66.79997) translate(28, 148) scale(-1, 1) translate(-28, -148) translate(0, 127)" id="g"><path d="M52.1 4.6 C47.4 19.1 42.1 27 36.2 28.3 C27.3 30.2 18 29.7 13.9 24.6 C11.2 14.5 14 14.7 15.4 11.9 C16.8 9.1 16.1 4.5 9.2 4.5 C4.6 4.5 1.4 7.4 -0.2 13.3 C-1 16.7 -1.4 19.7 -1.2 22.3 C-1 26.2 0.8 36.4 8.6 40.9 C16.4 45.4 28.6 48.2 43.3 38.5 C53.1 32 56 20.7 52.1 4.6 z" id="h" fill="#EFE9E6" /><path d="M52.1 4.6 C56 20.7 53.1 32 43.3 38.5 C28.6 48.2 16.4 45.4 8.6 40.9 C0.8 36.4 -1 26.2 -1.2 22.3 C-1.4 19.7 -1 16.7 -0.2 13.3 C1.4 7.4 4.6 4.5 9.2 4.5 C16.1 4.5 16.8 9.1 15.4 11.9 C14 14.7 11.2 14.5 13.9 24.6 C18 29.7 27.3 30.2 36.2 28.3 C42.1 27 47.4 19.1 52.1 4.6 z M51.6 9.5 C47.1 21.3 41 28.4 35.3 29.4 C26.7 30.9 18.3 30.2 14.4 26.1 C10.5 22 11.2 17.1 12.6 14.8 C14 12.5 15.5 6.3 8.8 6.3 C4.4 6.3 2.5 8.3 1 13.1 C0.2 15.9 0.3 21.1 0.5 23.2 C0.7 26.4 1.8 35.6 9.3 39.2 C16.8 42.9 25.1 46.4 39.2 38.5 C48.6 33.1 55.4 22.6 51.6 9.5 z" opacity="0.15" id="i" /></g><g transform="translate(129.7067, 270.3) scale(0.9027778) translate(-126.2, -270.3) translate(102.5, 55.59996) translate(15, 148)" id="j"><g id="k"><path d="M7.5 67.2 C7.3 61.1 10.4 57.2 16.8 55.3 C9.2 42.9 0.5 25.2 0.1 19.1 C-0.5 9 3.8 3.3 7.7 0.8 C10.3 -0.9 22 -1.6 27.5 0.1 C33.1 1.6 35.6 7.3 37.4 8.7 C42.7 12.6 47.5 20.2 49.1 25.6 C52.1 35.9 50.3 51.1 49.5 64.3 C44.4 65.8 27.6 69.8 23.9 70.1 C20.7 70.4 16.2 70.4 10.6 70.2 C8.8 70.1 7.5 68.8 7.5 67.2 z" id="l" fill="#CAC3C0" /><path d="M10.4 44.1 C5 33.9 0.4 23.5 0.1 19.1 C-0.5 9 3.8 3.3 7.7 0.8 C8 0.5 8.5 0.3 8.9 0.1 C8.6 1.4 8.2 2.8 7.7 4.4 C4.1 16.1 12.3 23.6 12.7 28.2 C13.3 35.2 12.2 41.2 10.4 44.1 z" id="m" fill="#AAA5A3" /><path d="M7.5 67.2 C7.3 61.1 10.4 57.2 16.8 55.3 C9.2 42.9 0.5 25.2 0.1 19.1 C-0.5 9 3.8 3.3 7.7 0.8 C10.3 -0.9 22 -1.6 27.5 0.1 C33.1 1.6 35.6 7.3 37.4 8.7 C42.7 12.6 47.5 20.2 49.1 25.6 C52.1 35.9 50.3 51.1 49.5 64.3 C44.4 65.8 27.6 69.8 23.9 70.1 C20.7 70.4 16.2 70.4 10.6 70.2 C8.8 70.1 7.5 68.8 7.5 67.2 z M9.3 65.4 C9.3 66.9 9.8 68 11.4 68 C16.9 68.2 21.2 68.2 24.2 67.9 C27.7 67.6 42.8 64 47.7 62.6 C48.5 50 51.2 35.2 48.4 25.3 C46.9 20 42.3 12.8 37.2 9.1 C35.5 7.8 33.1 2.3 27.7 0.9 C22.3 -0.7 11.2 -0.1 8.7 1.6 C5 4.1 0.8 9.5 1.4 19.2 C1.8 25 11.4 44.2 18.6 56.2 C12.7 57.9 9.1 59.6 9.3 65.4 z" opacity="0.15" id="n" /></g></g><g transform="translate(207.5933, 270.3) scale(0.9027778) translate(-211.1, -270.3) translate(90.8, 55.59996) translate(105.5, 184.5) scale(-1, 1) translate(-105.5, -184.5) translate(80, 148)" id="o"><g id="p"><path d="M9.7 67.2 C9.5 61.1 12.6 57.2 19 55.3 C11.4 42.9 2.7 25.2 2.3 19.1 C1.7 9 6 3.3 9.9 0.8 C12.4 -0.9 22 -1.6 27.6 0.1 C33.8 1.8 39.5 5.7 43.8 9.6 C46.8 12.2 48.4 18 50 23.4 C53 33.7 50.8 52.1 50 65.2 C44.9 66.7 29.7 69.7 26 70 C22.8 70.3 18.3 70.3 12.7 70.1 C11 70.1 9.7 68.8 9.7 67.2 z" id="q" fill="#CAC3C0" /><path d="M12.5 44.1 C7.1 33.9 2.5 23.5 2.2 19.1 C1.7 9 6 3.3 9.9 0.8 C10.2 0.5 10.7 0.3 11.1 0.1 C10.8 1.4 10.4 2.8 9.9 4.4 C6.3 16.1 14.5 23.6 14.9 28.2 C15.4 35.2 14.3 41.2 12.5 44.1 z" id="r" fill="#AAA5A3" /><path d="M9.7 67.2 C9.5 61.1 12.6 57.2 19 55.3 C11.4 42.9 2.7 25.2 2.3 19.1 C1.7 9 6 3.3 9.9 0.8 C12.4 -0.9 22 -1.6 27.6 0.1 C33.8 1.8 39.5 5.7 43.8 9.6 C46.8 12.2 48.4 18 50 23.4 C53 33.7 50.8 52.1 50 65.2 C44.9 66.7 29.7 69.7 26 70 C22.8 70.3 18.3 70.3 12.7 70.1 C11 70.1 9.7 68.8 9.7 67.2 z M12.4 64.8 C12.4 66.3 11.6 67.6 13.2 67.6 C18.7 67.8 23 67.8 26 67.5 C29.5 67.2 42.9 64.4 47.8 63 C48.6 50.3 51.8 32.6 49 22.8 C47.5 17.5 45.9 12 43.1 9.6 C38.9 5.9 33.4 2.2 27.6 0.5 C22.2 -1.1 13.1 -0.4 10.6 1.2 C6.9 3.6 2.7 9.2 3.3 18.7 C3.7 24.5 14.2 43.6 21.4 55.6 C15.3 57.3 12.2 59 12.4 64.8 z" opacity="0.15" id="s" /></g></g><g transform="translate(101.5, 74.79997) translate(25, 82)" id="t"><path d="M75.6 28.2 C72 20 73.4 11 71.2 5.7 C68.7 -0.3 56.9 0.4 42.1 0.4 C27.3 0.4 15.4 -0.2 13 5.7 C10.8 11 12.2 20 8.6 28.2 C4.8 36.7 7 39.4 6.3 52.6 C5.3 70.2 10.4 92.1 16.5 111.3 C18.2 116.8 22.2 118.4 25.8 119.2 C32.4 120.6 38.3 121 42.1 120.9 C46 121 51.9 120.6 58.4 119.2 C62 118.4 66 116.8 67.7 111.3 C72.7 95.6 77 78.1 77.8 62.6 C78 59.2 79.3 36.7 75.6 28.2 z" id="u" fill="#CAC3C0" /><path d="M75.6 28.2 C79.3 36.7 78 59.2 77.8 62.6 C77 78.1 72.7 95.6 67.7 111.3 C66 116.8 62 118.4 58.4 119.2 C51.9 120.6 46 121 42.1 120.9 L42.1 120.8 L42.1 120.9 C38.3 121 32.4 120.6 25.8 119.2 C22.2 118.4 18.2 116.8 16.5 111.3 C10.4 92.1 5.3 70.2 6.3 52.6 C7 39.4 4.8 36.7 8.6 28.2 C12.2 20 10.8 11 13 5.7 C15.4 -0.2 27.3 0.4 42.1 0.4 C56.9 0.4 68.7 -0.3 71.2 5.7 C73.4 11 72 20 75.6 28.2 z M74.1 27.9 C70.7 20 72 11.3 69.9 6.2 C67.5 0.4 56.2 1.1 42.1 1.1 C28 1.1 16.6 0.5 14.3 6.2 C12.2 11.3 13.5 20 10.1 27.9 C6.5 36.1 8.6 38.7 7.9 51.4 C6.9 68.4 11.8 89.6 17.6 108.1 C19.3 113.4 23.1 114.9 26.5 115.7 C32.8 117.1 38.5 117.5 42.1 117.4 C45.8 117.5 51.5 117.1 57.7 115.7 C61.1 114.9 64.9 113.4 66.6 108.1 C71.4 92.9 75.5 76.1 76.2 61.1 C76.4 57.8 77.7 36.1 74.1 27.9 z" opacity="0.15" id="v" /></g><g transform="translate(127.626, 165.19) scale(1.04, 1.113239) translate(-129.2, -166.9) translate(89.8, 73.99997) translate(78.5, 145.5) scale(-1, 1) translate(-78.5, -145.5) translate(39, 92)" id="w"><path d="M68.1 2.7 C65.6 5.6 57.8 23.3 40.2 24.2 C21.5 24.9 13.3 5.5 10.6 0.9 C7 8.7 1.1 13.8 0.5 26.6 C-0.1 39.4 4.4 46.5 6.7 52.8 C8.4 57.4 10.7 64.5 12.6 73.4 C13.3 76.6 15 81.2 15 84.3 C15.3 96.3 17.5 91.7 13.2 94.2 C8.9 96.7 5.2 101.6 6.7 104.5 C8.2 107.4 29.2 104.1 30.2 102.9 C30.7 102.3 30.9 95.4 30.7 74 C30.6 70.2 29.5 64.3 29.2 57 C29.1 53.6 30 50.6 29.7 46.2 C33.7 48.7 35.2 49.7 38.2 49.6 C41 49.7 42.2 48 46.8 45.5 C46.8 49.8 47.8 53.2 47.9 56.9 C48 63.8 47.3 70.3 47.2 74 C46.9 94.5 47.2 102.3 48 103.5 C49.2 105.2 56.8 106.1 70.8 106 C72.5 103.2 72.5 100.8 70.8 98.8 C69.1 96.8 66.2 94.7 62.2 92.4 C63.3 83.7 63.9 81.2 65.2 75.5 C66.2 71 67.7 62.7 68.7 60.2 C72.3 51.4 78.4 40.6 78.5 28.7 C78.6 16.8 72.4 8 68.1 2.7 z" id="x" fill="#FEFEFE" /><path d="M68.1 2.7 C72.4 8 78.5 16.8 78.4 28.7 C78.3 40.6 72.2 51.4 68.6 60.2 C67.6 62.8 66 71 65.1 75.5 C63.9 81.2 63.2 83.7 62.1 92.4 C66.1 94.7 69 96.8 70.7 98.8 C72.4 100.8 72.4 103.2 70.7 106 C56.7 106.1 49.1 105.2 47.9 103.5 C47.1 102.3 46.8 94.5 47.1 74 C47.2 70.3 47.9 63.8 47.8 56.9 C47.7 53.1 46.7 49.8 46.7 45.5 C42.1 48 40.9 49.7 38.1 49.6 C35.1 49.7 33.6 48.7 29.6 46.2 C30 50.6 29 53.6 29.2 57 C29.5 64.3 30.6 70.2 30.7 74 C30.9 95.4 30.7 102.3 30.2 102.9 C29.2 104.1 8.2 107.4 6.7 104.5 C5.2 101.6 8.9 96.7 13.2 94.2 C17.5 91.7 15.3 96.3 15 84.3 C14.9 81.1 13.2 76.6 12.6 73.4 C10.7 64.5 8.4 57.5 6.7 52.8 C4.4 46.5 -0.1 39.4 0.5 26.6 C1.1 13.8 7 8.7 10.6 0.9 C13.3 5.5 21.5 24.9 40.2 24.2 C57.8 23.3 65.6 5.6 68.1 2.7 z M68.1 3.9 C66.9 6.2 63.6 12.3 57.5 17.9 C52.5 22.5 44.3 27.3 38.5 27.3 C34.8 27.5 26 22.6 22.4 19.5 C17.8 15.6 11.8 5.2 10.6 1.4 C7.1 8.9 2.7 15.8 2.1 28 C1.5 40.2 5.9 45.5 8.1 51.5 C9.7 55.9 12.8 63.9 14.6 72.4 C15.2 75.4 16.9 80.5 17 83.5 C17.3 94.9 18.7 92.8 14.6 95.2 C10.5 97.6 7.6 99.2 9 101.9 C10.4 104.6 27 101.6 28 100.4 C28.5 99.8 28.8 95.8 28.6 75.4 C28.5 71.7 27.6 64.9 27.3 57.9 C27.2 54.7 26.9 46.1 26.6 41.9 C30.4 44.3 35 48 37.9 47.9 C40.6 48 45.9 43.8 50.3 41.4 C50.3 45.5 50.1 52.2 50.1 55.8 C50.2 62.3 49.2 68.8 49.2 72.3 C48.9 91.8 49.3 99.6 50 100.8 C51.1 102.4 55.2 104 68.5 103.9 C70.1 101.2 70.8 100.5 69.2 98.6 C67.6 96.7 64.2 95 60.4 92.8 C61.5 84.5 62.1 79.7 63.3 74.3 C64.2 70 65.8 62 66.8 59.5 C70.2 51.1 76.5 41.1 76.6 29.8 C76.6 18.6 72.2 8.9 68.1 3.9 z" opacity="0.15" id="y" /></g></g><g transform="translate(168.5, 181.5) scale(0.9669511) translate(-168.5, -181.5)" id="z"><g transform="translate(188.8, 99.49997) rotate(-19, 0, 0) scale(1) translate(-191.8, -105.5) translate(92, 3) translate(84.2, 85.79997)" id="a1"><path d="M4.4 2.9 C7.1 -0.3 14.5 1.5 21.1 6.9 L25.4 10.5 C31.9 15.9 35 22.9 32.4 26.1 L32.4 26.1 C29.7 29.3 22.3 27.5 15.7 22.1 L11.4 18.5 C8.2 15.8 1.5 11.1 0.7 9.8 C-1.2 7.3 3 4.5 4.4 2.9 L4.4 2.9 z" id="b1" fill="#EFE9E6" /></g><g transform="translate(147.5, 99.49996) rotate(19, 0, 0) scale(1) translate(-144.5, -105.5) translate(16, 3) translate(97.60001, 85.59997)" id="c1"><path d="M46.6 3.4 C43.9 0.2 36.5 2 29.9 7.4 L25.6 11 C19.1 16.4 16 23.4 18.6 26.6 L18.6 26.6 C21.3 29.8 28.7 28 35.3 22.6 L39.6 19 C42.8 16.3 49.5 11.6 50.3 10.3 C52.1 7.8 47.9 5 46.6 3.4 L46.6 3.4 z" id="d1" fill="#EFE9E6" /></g><g transform="translate(96.9, 64.39997) translate(30, 28)" id="e1"><g id="f1"><path d="M25.3 87.5 C28.4 87.8 32.5 88 35 86.7 C37.7 85.3 39.2 83.9 41.4 81.5 C43.9 85 46 86.1 49.2 87.5 C52.2 88.9 56.2 87.9 58.7 87.2 C61.2 86.4 66.9 83.2 67.5 79.5 C68.2 75.3 68.7 70.2 66.8 63.2 C65.2 57.1 57.5 53.8 53.8 49.9 C51.1 47 47.5 36.3 47.2 34.6 C46.4 31.2 46.5 27.6 47.7 20.5 C48.9 12.9 53.8 10.5 53.8 8 C53.8 5.6 48.7 10 42.5 10.1 C36.4 10.2 29.7 4.7 29.7 8 C29.7 11.4 34.7 13.8 35.7 19.5 C36.7 25.2 36.7 28.1 35.7 34 C35.1 37.5 31.6 47.8 28.3 50.4 C22.6 54.9 15.7 59.4 15.1 65.9 C14.5 72.6 13.8 76.4 15.7 80.1 C18 84.9 22.2 87.1 25.3 87.5 z" id="g1" fill="#594F46" /><path d="M41.4 1.3 C51.8 1.3 50.7 0.2 54.1 -0.5 C57.5 -1.2 67.3 8.9 71.2 13.2 C75.1 17.5 77.7 25 79.9 29.5 C82.1 34 80.7 43 82.4 52.4 C83.4 58.1 85.2 62.5 83.8 68.2 C82.9 72 80.7 77.3 76 81.2 C60.7 93.6 47.9 95.2 41.4 95.5 C35 95.8 18.6 90.1 8.1 81.4 C3.1 77.2 0.5 72.5 -0.2 68.4 C-1 64 0.4 60.1 1.4 52.6 C3.3 38.1 3.2 39.6 3.1 31.6 C2.7 23 22.7 0.8 26.8 -0.6 C30.9 -2 31.2 1.3 41.4 1.3 z" id="h1" fill="#EFE9E6" /><path d="M47.4 5.1 C50.5 4.7 53.8 1.9 54.4 1.9 C55.9 1.9 68.9 12.7 71.3 16.5 C73.7 20.5 78.7 27.9 79.1 28.3 C79.1 28.3 79.2 28.3 79.3 28.3 C77.2 23.6 74.7 17.1 71.1 13.2 C67.3 8.8 57.6 -1.3 54.2 -0.6 C50.8 0.1 51.8 1.2 41.5 1.2 C31.2 1.2 30.9 -1.9 26.8 -0.6 C23.6 0.4 10.8 14.1 5.5 24.1 C7.7 21.8 12.7 15.9 17.5 11 C22.1 6.4 26.7 2.4 27.5 2.1 C29.3 1.4 31.5 4.9 37 5.2 C38.1 8 41.1 14.7 41 15.6 C40.8 17.7 41.6 23.6 41 25.6 C39 32.5 34.7 34.5 31.4 37 C26 35.6 22 32.8 18.6 34.9 C15.2 36.9 13.1 40.3 15.3 44.3 C16.5 48.1 20.5 51.3 20.4 56.2 C19.5 58.2 14.5 61.8 10.1 63.6 C11.4 65.7 12.5 67.1 13.4 67.9 C15.4 69.6 19.6 76 20.4 78.7 C21.5 82.6 22.7 85.8 26.6 88.9 C29.7 89.7 34.9 89.8 42.1 89.1 C49.4 89.8 54.6 89.7 57.6 88.9 C64.3 85.2 62.4 84.8 63.5 80.9 C64.3 78.2 68.8 69.6 70.8 67.9 C71.7 67.1 72.8 65.7 74.1 63.6 C69.7 61.8 65.5 59 64.6 57 C63.7 55 64.3 54.6 65.6 50.8 C70.3 45.2 71.4 37.2 65.6 35.1 C59.8 33 58.2 35.8 52.8 37.2 C49.5 34.7 45.1 32.7 43.2 25.8 C42.6 23.8 43.4 17.9 43.2 15.8 C43.1 14.9 46.1 8 47.2 5.2 C47.2 5.2 47.3 5.1 47.4 5.1 z" id="i1" fill="#46494D" /><path d="M41.4 1.3 C51.8 1.3 50.7 0.2 54.1 -0.5 C57.5 -1.2 67.3 8.9 71.2 13.2 C75.1 17.5 77.7 25 79.9 29.5 C82.1 34 80.7 43 82.4 52.4 C83.4 58.1 85.2 62.5 83.8 68.2 C82.9 72 80.7 77.3 76 81.2 C60.7 93.6 47.9 95.2 41.4 95.5 C35 95.8 18.6 90.1 8.1 81.4 C3.1 77.2 0.5 72.5 -0.2 68.4 C-1 64 0.4 60.1 1.4 52.6 C3.3 38.1 3.2 39.6 3.1 31.6 C2.7 23 22.7 0.8 26.8 -0.6 C30.9 -2 31.2 1.3 41.4 1.3 z M41.4 2.1 C31.5 2.1 31.2 -1.1 27.4 0.3 C23.6 1.7 4.3 23 4.7 31.1 C4.8 38.9 4.9 37.3 3.1 51.3 C2.1 58.6 0.8 62.3 1.6 66.5 C2.3 70.4 4.8 75 9.6 79 C19.6 87.4 35.4 92.8 41.5 92.5 C47.7 92.2 59.9 90.7 74.7 79 C79.2 75.3 81.3 70.2 82.2 66.5 C83.5 60.9 81.8 56.7 80.9 51.3 C79.3 42.3 80.6 33.7 78.5 29.3 C76.4 24.9 73.8 17.9 70 13.7 C66.2 9.5 56.9 -0.3 53.6 0.4 C50.3 1.1 51.4 2.1 41.4 2.1 z" opacity="0.15" id="j1" /></g></g><g transform="translate(147.5, 99.49996) rotate(19, 0, 0) scale(1) translate(-144.5, -105.5) translate(97.60001, 85.59997) translate(16, 3)" id="k1"><path d="M38.7 4.6 C35.6 5.9 33 6.7 31.4 8.3 C29.8 9.9 25.3 17.6 25.1 21.4 C24.9 25.2 27.2 38.1 25.3 47.4 C23.4 56.7 23.8 63.8 20.5 62.6 C17.2 61.5 18.8 58.1 13.8 51.7 C8.8 45.3 0.8 34.8 0.1 31 C-0.6 27.2 7.4 20.2 13.8 15.5 C20.2 10.8 26.9 0.6 32 0.2 C37.1 -0.2 41.6 1.6 42.3 1.8 C43 2 41.7 3.3 38.7 4.6 z" id="l1" fill="#46494D" /><path d="M38.7 4.6 C35.6 5.9 33 6.7 31.4 8.3 C29.8 9.9 25.3 17.6 25.1 21.4 C24.9 25.2 27.2 38.1 25.3 47.4 C23.4 56.7 23.8 63.8 20.5 62.6 C17.2 61.5 18.8 58.1 13.8 51.7 C8.8 45.3 0.8 34.8 0.1 31 C-0.6 27.2 7.4 20.2 13.8 15.5 C20.2 10.8 26.9 0.6 32 0.2 C37.1 -0.2 41.6 1.6 42.3 1.8 C43 2 41.7 3.3 38.7 4.6 z M37.6 4.3 C40.4 3.1 41.6 1.9 41 1.7 C40.4 1.5 37 0.2 32.3 0.6 C27.6 1 20.3 11.3 14.3 15.7 C8.3 20.1 1.2 26 1.8 29.6 C2.4 33.2 9.6 42.5 14.3 48.5 C19 54.5 17.1 56.6 20.2 57.6 C22.2 58.1 21.7 53.2 23.5 44.4 C25.3 35.6 23.8 24.4 24 20.8 C24.2 17.2 29.3 9.2 30.8 7.7 C32.3 6.2 34.7 5.5 37.6 4.3 z" opacity="0.15" id="m1" /></g><g transform="translate(188.8, 99.49997) rotate(-19, 0, 0) scale(1) translate(-191.8, -105.5) translate(84.2, 85.79997) translate(92, 3)" id="n1"><path d="M8.7 4.4 C12.6 6.2 15 6.5 16.6 8.1 C18.2 9.7 22.7 17.6 22.9 21.4 C23.1 25.2 20.8 38.1 22.7 47.4 C24.6 56.7 24.2 63.8 27.5 62.6 C30.8 61.5 29.2 58.1 34.2 51.7 C39.2 45.3 47.1 34.8 47.9 31 C48.7 27.2 42.1 21.4 35.2 15.9 C28.3 10.4 21.1 0.6 15.9 0.2 C12.5 0 9.1 0.5 5.6 1.8 C5.1 2.4 6.1 3.2 8.7 4.4 z" id="o1" fill="#46494D" /><path d="M8.7 4.4 C6.1 3.2 5.1 2.4 5.6 1.8 C9.1 0.5 12.5 0 15.9 0.2 C21.1 0.6 28.3 10.4 35.2 15.9 C42.1 21.4 48.7 27.2 47.9 31 C47.1 34.8 39.2 45.3 34.2 51.7 C29.2 58.1 30.8 61.5 27.5 62.6 C24.2 63.8 24.6 56.7 22.7 47.4 C20.8 38.1 23.1 25.2 22.9 21.4 C22.7 17.6 18.2 9.7 16.6 8.1 C15 6.5 12.6 6.2 8.7 4.4 z M10.3 4.7 C14 6.4 15.7 6.1 17.2 7.6 C18.7 9.1 23.9 17.7 24.1 21.3 C24.3 24.9 22.7 37 24.4 45.8 C26.1 54.6 25 59 28.1 57.9 C31.2 56.9 29.2 54.5 33.9 48.5 C38.6 42.5 45.7 34.1 46.4 30.5 C47.1 26.9 41.3 21.7 34.8 16.5 C28.3 11.3 21.1 1.2 16.2 0.8 C13 0.7 9.6 0.9 6.3 2.1 C5.9 2.7 7.9 3.6 10.3 4.7 z" opacity="0.15" id="p1" /></g><g id="q1"><g transform="translate(96.9, 63.99996) translate(48, 59)" id="r1"><path d="M20.8 18.1 C16.8 24.1 17.8 22 13.5 24.4 C9.2 26.8 2.1 27.7 0.4 31.4 C-1.3 35.1 -0.8 38.9 -0.2 43.6 C0.4 48.3 4.8 56.1 9 56.4 C9.9 56.5 11.9 55.1 15.8 52.2 C17 51.3 19.5 50.4 23.3 49.4 C26.8 50.3 29.3 51.3 30.7 52.2 C34.2 54.6 36.6 56 39 56 C45.5 56 47.7 47.7 48.1 43.7 C48.5 39.4 49.5 33.8 46.7 30.4 C45 28.2 38.1 26.2 34.8 24.4 C31.5 22.7 28.9 22.4 26.5 17 C24.1 11.6 24.8 12.2 20.8 18.1 z" id="s1" fill="#FFF" /><path d="M20.8 18.1 C24.8 12.1 24 11.6 26.4 17 C28.8 22.4 31.4 22.7 34.7 24.4 C38 26.2 44.9 28.2 46.6 30.4 C49.4 33.9 48.4 39.5 48 43.7 C47.6 47.7 45.4 56 38.9 56 C36.5 56 34.1 54.6 30.6 52.2 C29.2 51.3 26.7 50.3 23.2 49.4 C19.4 50.4 16.9 51.3 15.7 52.2 C11.8 55.1 9.8 56.5 8.9 56.4 C4.7 56.1 0.4 48.2 -0.2 43.5 C-0.8 38.8 -1.3 35 0.4 31.3 C2.1 27.6 9.2 26.7 13.5 24.3 C17.8 21.9 16.9 24.1 20.8 18.1 z M21 18.9 C17.2 24.3 18.2 22.4 14.1 24.6 C10 26.8 3.3 27.6 1.7 30.9 C0.1 34.2 0.6 37.7 1.2 42 C1.8 46.3 5.8 53.4 9.7 53.7 C10.5 53.8 12.4 52.5 16.1 49.9 C17.2 49.1 19.6 48.3 23.2 47.4 C26.5 48.2 28.9 49.1 30.2 49.9 C33.5 52.1 35.8 53.3 38 53.3 C44.1 53.3 46.2 45.8 46.6 42.1 C47 38.2 47.9 33.1 45.3 29.9 C43.7 27.9 37.2 26.1 34.1 24.5 C31 23 28.5 22.7 26.3 17.8 C24.1 12.9 24.7 13.5 21 18.9 z" opacity="0.15" id="t1" /></g><g transform="translate(107.1, 91.79996) translate(51, 68)" id="u1"><g id="v1"><path d="M19.3 10.7 C18.9 10.3 18.2 10.4 17.8 10.8 C16.9 11.8 15.3 13 13.7 13.1 C12.8 13.1 11.9 12.7 11.1 11.9 L11.1 1.5 C11.1 0.9 10.6 0.4 10 0.4 C9.4 0.4 8.9 0.9 8.9 1.5 L8.9 11.9 C8.1 12.7 7.3 13.1 6.3 13.1 C4.7 13.1 3.1 11.9 2.2 10.8 C1.8 10.4 1.2 10.3 0.7 10.7 C0.3 11.1 0.2 11.7 0.6 12.2 C1.8 13.6 4 15.2 6.3 15.2 C7.5 15.2 8.7 14.8 9.8 13.9 C9.9 13.9 9.9 13.9 10 13.9 C10.1 13.9 10.1 13.9 10.2 13.9 C11.2 14.7 12.4 15.2 13.7 15.2 C16 15.2 18.2 13.6 19.4 12.2 C19.9 11.7 19.8 11.1 19.3 10.7 z" id="w1" fill="#282421" /></g></g><g transform="translate(90.39999, 87.49996) translate(68, 59)" id="x1"><g id="y1"><path d="M10.5 0.5 C14.8 0.5 15.9 0.9 19.1 3.2 C22.3 5.5 21 9.5 19.6 11.9 C19 12.6 18 13.2 17 14.5 C16.2 15.5 15.5 17.3 14.6 17.9 C13.3 18.8 12.1 19.2 10.3 19.1 C8.5 19.1 7 18.6 5.8 17.9 C3.8 16.7 3.3 15.1 2.5 13.6 C2 12.7 0.5 11.3 0.1 10.1 C-0.6 8.1 -0.9 5.9 0.3 4 C2.3 1 6.1 0.5 10.5 0.5 z" id="z1" fill="#282421" /><path d="M2.6 4.4 C2.6 4.8 4.5 3.9 6.7 3.5 C7.7 3.3 8.8 3.2 10.3 3.2 C11.8 3.2 14.1 4.2 13.7 4.8 C13.1 5.7 13.5 7.1 15.1 7.5 C15.8 7.6 16.4 7.6 17.3 7.3 C18.2 6.9 18.4 6.3 18.5 5.7 C18.6 5.1 18.6 4.3 17.3 3.6 C17 3.4 15.6 2.4 13.8 2.2 C11.6 2 9.8 2 8.2 2.2 C6.6 2.4 5.4 2.6 4.5 3 C3.2 3.6 2.6 4.2 2.6 4.4 z" id="a2" fill="#FFF" /></g></g><g transform="translate(96.89999, 60.79996) translate(41, 42)" id="b2"><path d="M6.1 10.9 C6.7 10.4 7.5 10.8 8.5 12.2 C10 14.3 10.8 18 13.2 19.3 C15.6 20.6 18.9 19.9 20.4 19.3 C21.9 18.7 24.8 14.6 23.7 10.9 C23 8.4 21.3 6.3 18.6 4.5 L19.5 6.7 L15.5 6.1 L16.3 7.4 C12.9 7.8 10.6 8.2 9.4 8.5 C8.3 9 7.2 9.8 6.1 10.9 z" id="c2" fill="#FFF" /><g transform="translate(0, 10)" id="d2"><path d="M21.9 14.6 C21 11.9 19.7 8.3 17.5 6.4 C15.3 4.5 10.7 3.9 9 4.5 C7.7 5 6.1 7.4 4.6 8.5 C4.2 8.9 3.1 8.7 3 9 C2.3 10.8 6.8 15.2 8.3 16 C11.2 17.5 16.3 17.8 20.2 17.1 C21.7 17 21.5 15.8 21.9 14.6 z" id="e2" fill="#D1CDCB" /><g transform="translate(11.16316, 7.522936) scale(-1, 1) translate(-11.16316, -7.522936) translate(3.163158, 3.022936)" id="f2"><path d="M-1.1 8.4 C0.1 6.4 2.1 4.5 4.4 4.2 C6.7 3.9 8.9 4 10.7 5.4 C12.5 6.8 12.5 7.5 13.3 8.1 C14 8.8 12.5 10.5 9.7 11.4 C6.9 12.3 4.5 13 1.9 12.5 C-0.8 12.1 -1.2 11.9 -1.6 11.4 C-2 10.9 -2.4 10.5 -1.1 8.4 z" id="g2" fill="#FBFBFB" /><g id="h2"><path d="M5.2 4.1 C6.3 5 7 6.4 7 8 C7 10.1 5.7 12 3.8 12.8 C3.2 12.8 2.6 12.8 2 12.6 C-0.7 12.2 -1.1 12 -1.5 11.5 C-1.9 11 -2.3 10.6 -1.1 8.5 C0.1 6.4 2 4.5 4.4 4.2 C4.6 4.2 4.9 4.1 5.2 4.1 z" id="i2" /></g></g><path d="M11.8 11.3 C12.8 12.4 15.1 10.8 15.1 9.9 C15.1 9 14.1 8.2 12.8 8.2 C11.5 8.2 10.5 9 10.5 9.9 C10.5 10.8 10.9 10.2 11.8 11.3 z" id="j2" fill="#FFFEFE" /></g></g><g transform="translate(95.7, 60.79996) translate(76, 42)" id="k2"><g transform="translate(0.878947, 0.022936)" id="l2"><path d="M20.1 10.9 C19.5 10.4 18.7 10.8 17.7 12.2 C16.2 14.3 15.4 18 13 19.3 C10.6 20.6 7.3 19.9 5.8 19.3 C4.3 18.7 1.4 14.6 2.5 10.9 C3.2 8.4 4.9 6.3 7.6 4.5 L6.6 6.7 L10.6 6.1 L9.9 7.4 C13.3 7.8 15.6 8.2 16.8 8.5 C17.9 9 19 9.8 20.1 10.9 z" id="m2" fill="#FFF" /><path d="M5.3 21.7 C6.2 19 7.5 17.3 9.7 15.4 C11.9 13.5 16.2 13.3 17.9 13.9 C19.1 14.3 21.1 16.4 22.7 17.4 C23.4 17.8 24.1 17.5 24.3 18.1 C25 19.9 21.7 24.1 20.2 24.9 C19.8 25.1 16.7 25.9 14.9 26.4 C12.7 26.9 10.6 26.4 8.3 26.4 C6.9 26.4 5.7 26.3 4.9 25.8 C4.2 25.2 4.8 22.9 5.3 21.7 z" id="n2" fill="#D1CDCB" /><g transform="translate(4, 12)" id="o2"><path d="M3.4 9 C4.7 7 6.2 5.4 8.5 5.1 C10.8 4.8 12.7 5.1 14.2 6 C15.7 6.9 16.5 7.9 17.4 9 C18.3 10.1 16.7 11.3 13.8 12.3 C10.9 13.2 9.1 13.5 6.5 13.5 C3.9 13.5 2.6 13 2.2 12.3 C1.9 11.6 2.1 11.1 3.4 9 z" id="p2" fill="#FBFBFB" /><path d="M10 4.9 C11.6 4.9 13 5.3 14.1 5.9 C15.7 6.8 16.4 7.8 17.3 8.9 C18.2 10 16.7 11.3 13.7 12.3 C12.4 12.7 11.3 13 10.1 13.2 C9 12.4 8 10.8 8 8.9 C8 7.3 8.8 5.8 10 4.9 z" id="q2" /></g><path d="M11.7 21.5 C12.7 22.7 15 20.9 15 19.9 C15 18.9 13.9 18 12.5 18 C11.1 18 10 18.8 10 19.9 C10 21 10.6 20.4 11.7 21.5 z" id="r2" fill="#FFFEFE" /></g></g></g></g></g><g id="s2"><g transform="matrix(1, 0, 0, 1, 0, -0.02001953)"><g transform="translate(171.613, 166.019) scale(0.9968361, 0.9947649)"><g transform="translate(427, 23) translate(-2679.7, -444.6)" id="t2"><path d="M2258.4 435 C2261.9 436.1 2265.5 436.5 2269.1 437.1 C2274.1 437.9 2278.9 439 2283.7 440.3 C2288.5 441.6 2293.6 442.7 2298.3 444.4 C2300.1 445 2301.8 445.9 2302.2 447.9 C2302.7 449.9 2301.4 452.1 2300.1 453.6 C2296.9 457 2292.1 456.5 2288 455.6 C2284 454.7 2280.1 453.5 2276.6 451.7 C2270.2 448.5 2264.8 443.8 2258.4 440.6 C2257.2 440 2254.9 439.2 2254.4 437.7 C2254 435.8 2256.9 434.5 2258.4 435 C2264.1 436.7 2256.9 434.5 2258.4 435 z" id="u2" fill="#E8E1D1" /><path d="M2287.3 455.8 C2287.3 455.8 2280.9 449.8 2280.5 449.2 C2283.2 448.6 2290.5 452.2 2287.3 455.8 z" id="v2" fill="#F4F4DC" /><path d="M2257.6 434.8 C2259.3 434.8 2261.1 435.7 2262.8 436.1 C2264.5 436.5 2266.1 436.7 2267.8 436.9 C2272.4 437.6 2276.9 438.6 2281.4 439.6 C2286.2 440.8 2291.1 442.2 2295.9 443.5 C2299.2 444.4 2302.4 445.5 2305.4 447 C2303.4 450.1 2301.4 453 2299.4 456.1 C2299 456.6 2298.7 457 2298.5 457.6 C2298.3 458.1 2295.9 457.4 2295.4 457.2 C2292.9 456.6 2290.4 455.4 2288 455.1 C2281.6 453.7 2276 451.6 2270.6 447.9 C2268.1 446.2 2265.6 444.5 2263.1 442.9 C2261.6 442 2259.9 441.1 2258.4 440.4 C2257.3 439.8 2255.2 439.1 2254.9 437.7 C2254 436 2256.1 434.8 2257.6 434.8 z M2257.6 433.7 C2255.9 433.7 2253.9 434.6 2253.4 436.3 C2252.7 438.4 2254.5 439.8 2256.1 440.8 C2258.2 442 2260.3 442.9 2262.5 444.2 C2264.4 445.4 2266.4 446.7 2268.3 447.9 C2270.9 449.7 2273.5 451.3 2276.3 452.6 C2278 453.3 2279.6 454 2281.3 454.5 C2283.5 455.2 2285.9 455.6 2288 456.3 C2289.9 457 2291.8 457.6 2293.8 458.1 C2295 458.5 2298.6 459.8 2299.5 458.5 C2300.4 457 2301.5 455.6 2302.4 454 C2303.7 452.1 2304.9 450.2 2306.2 448.3 C2306.6 447.7 2307 446.9 2306.2 446.4 C2305.4 445.8 2304.3 445.6 2303.5 445.2 C2302.3 444.7 2301.3 444.1 2300.1 443.9 C2293.1 442 2286.3 440 2279.3 438.2 C2275.5 437.3 2271.9 436.5 2268.1 436 C2266.4 435.8 2264.9 435.5 2263.3 435.2 C2262.5 435.1 2261.5 434.8 2260.7 434.6 C2260.1 434.5 2259.5 434.2 2258.9 434.1 C2258.4 433.8 2258.1 433.7 2257.6 433.7 z" id="w2" fill="#B2AFA8" /><path d="M2308.7 443.2 C2307.4 440.8 2305.5 440 2303.4 438.7 C2301.4 437.4 2300.2 435.6 2299.9 433.3 C2299.2 428.2 2302.6 424.1 2306.7 421.6 C2304.1 424.5 2303.8 428.8 2305.9 432.1 C2307.9 435.2 2311.9 436.3 2313.8 439.6 C2315.5 442.5 2315.9 446.2 2314.3 449.1 C2312.9 451.8 2310.1 454.1 2306.9 454.2 C2309.6 450.2 2310.1 445.7 2308.7 443.2 C2307.9 441.9 2310.1 445.7 2308.7 443.2 z" id="x2" fill="#D5D5D5" /><path d="M2305.4 447.1 C2304 445.4 2301.3 445 2298.2 444.4 C2298.3 445.6 2299.3 446.4 2298.7 447.7 C2297.9 449.2 2296.5 449.5 2294.9 449.8 C2293.1 450.3 2292.8 451 2293.1 452.9 C2293.5 454.4 2293.1 455.8 2291.3 456.3 C2292.7 457.2 2294.6 457.5 2296.3 457.7 C2298.3 458.1 2300.5 458.5 2302.2 457.1 C2302.9 456.4 2302.8 455.4 2303.5 454.7 C2304 454.2 2304.8 453.8 2305 453 C2305.5 452.2 2305 451.1 2305.1 450.3 C2305.1 449.3 2306.3 448.2 2305.4 447.1 z" id="y2" fill="#7F665C" /><path d="M2305.1 448 C2305.1 446.2 2303 447.8 2302.3 448.1 C2301.2 448.6 2298.5 449.2 2298.5 450.7 C2298.6 451.3 2299 451.9 2299.3 452.4 C2299.5 452.8 2298.7 453.5 2298.5 453.6 C2297.4 454.5 2296.6 455.4 2296.8 456.9 C2297 458.1 2298.8 458.3 2299.7 458.2 C2301.6 458 2302.2 457.1 2302.9 455.4 C2303.4 454.3 2304.6 454 2305 453 C2305.5 452.2 2304.8 451.1 2304.6 450.3 C2305.2 449.7 2305.1 448.8 2305.1 448 z" id="z2" fill="#B6031A" /><path d="M2303.9 449.5 C2303.9 448.3 2302.5 449.4 2301.9 449.6 C2301.2 450 2299.4 450.3 2299.4 451.4 C2299.4 452.5 2300.6 452.3 2299.6 453.3 C2298.9 453.9 2298.1 454.7 2298.4 455.8 C2298.6 456.6 2300.1 456.7 2300.6 456.5 C2301.9 456.1 2302.1 455.7 2302.6 454.5 C2302.8 453.9 2303.7 453.7 2304 453.1 C2304.4 452.6 2304.1 452 2303.9 451.6 C2303.8 450.8 2303.9 450.2 2303.9 449.5 z" id="a3" fill="#D34E1A" /><path d="M2302.3 457.5 C2301.4 458.4 2299.6 459.2 2298.3 458.9 C2295.9 458.4 2295.7 455.7 2297.2 454.2 C2297.7 453.7 2298.7 453.4 2299.1 452.7 C2299.2 452.3 2298.9 452 2298.6 451.8 C2298.1 451.2 2298.2 450.5 2298.6 449.9 C2299.2 449 2300.6 447.9 2301.5 447.2 C2302.8 446.3 2304.8 444.6 2306.2 446.1 C2307.3 447.3 2306.7 449.2 2306.6 450.5 C2306.5 452.2 2306.6 453.3 2304.9 454.3 C2304.2 454.8 2303.7 455 2303.4 456 C2303.2 456.5 2303 457.1 2302.3 457.5 z M2302.1 457.2 C2302.7 456.6 2302.7 455.7 2303 455 C2303.4 454.3 2304.9 453.3 2304.8 452.5 C2304.7 451.8 2304.2 451.2 2304.1 450.4 C2304 449.6 2304.1 448.6 2304.1 447.7 C2304.1 447.7 2304.2 447.9 2304.3 447.8 C2303.5 448.6 2301.6 449.2 2300.5 449.7 C2299.9 449.9 2299.2 450.2 2298.8 450.6 C2298.4 451.2 2299.3 451.5 2299.5 452 C2300.4 453.8 2297.1 454.9 2298.1 456.7 C2299 458 2301.1 458.4 2302.1 457.2 z" id="b3" fill="#563E4C" /><path d="M2303.1 448.9 C2302.2 449.3 2299.9 450.4 2301.2 451.7 C2302.9 453 2303.2 449.7 2303.1 448.9 z" id="c3" fill="#FFEB36" /><path d="M2302.2 454.3 C2302.1 453.8 2302 453.4 2301.8 452.9 C2302.4 452.8 2303.1 452.5 2303.7 452.4 C2303.3 453.1 2302.4 453.6 2302.2 454.3 z" id="d3" fill="#FFFFE1" /><path d="M2300.4 455.7 C2300.2 455 2300.4 453.1 2301.5 454.2 C2302.2 454.9 2301.3 455.5 2300.7 455.7" id="e3" fill="#FFEB36" /><path d="M2301.1 455.9 C2301.5 455.5 2302.2 455.3 2302.3 455.9 C2302.4 456.5 2301 457.1 2300.6 457.2 C2300.6 456.8 2300.9 456.3 2301.1 455.9 C2301.2 455.8 2300.9 456.3 2301.1 455.9 z" id="f3" fill="#FFEB36" /><path d="M2299.5 454.2 C2299.7 454.7 2300.1 455.3 2300.1 455.7 C2300.1 456.1 2299.4 456.6 2299.2 456.1 C2298.8 455.5 2299.1 454.6 2299.5 454.2 C2299.6 454.4 2299.1 454.6 2299.5 454.2 z" id="g3" fill="#FFFFE1" /><path d="M2300.5 452.6 C2300.1 452.2 2299.3 451.2 2299.8 450.7 C2300.4 450.8 2300.5 452.6 2300.5 452.6" id="h3" fill="#FFEB36" /><path d="M2268.6 446.3 C2270.1 446.2 2271.9 446.2 2273.1 446.3 C2272.2 445.2 2270.6 444.6 2269.2 444.5 C2268.3 444.4 2267.2 444.4 2266.3 444.3 C2265.2 444.2 2264.4 443.7 2263.4 443.6 C2264.1 444.3 2264.9 445.1 2265.8 445.8 C2266.3 446.5 2267.6 446.3 2268.6 446.3 C2270.1 446.2 2267.7 446.3 2268.6 446.3 z" id="i3" fill="#B2AFA8" /><path d="M2274.5 437.6 C2274 437.7 2269.2 440.2 2269.7 440.7 C2269.9 440.9 2271.8 440 2272.1 439.9 C2273.4 439.3 2274.9 438.7 2276.3 438.6" id="j3" fill="#B2AFA8" /><path d="M2279.1 438.7 C2278.4 438.8 2270.3 441.2 2270.5 441.6 C2270.9 442.2 2280.2 439.5 2281.1 439.2 L2279.1 438.7 z" id="k3" fill="#B2AFA8" /><g transform="translate(15, 22)" id="l3"><path d="M2256.4 427.1 C2256.9 427.5 2257.5 428 2257.9 428.2 C2259.1 428.2 2260.3 427.8 2261.3 427.6 C2261.7 427.5 2266.4 425.6 2266.3 425.4 C2266.1 424.9 2259.7 427.1 2256.4 427.1 z" id="m3" fill="#B2AFA8" /><path d="M2259.6 428.5 C2259.7 429.7 2262.2 429.7 2263 429.8 C2263.4 429.8 2266.2 430.4 2266.3 429.8 C2266.5 429.5 2261.8 428.3 2259.6 428.5 z" id="n3" fill="#B2AFA8" /></g><g transform="translate(4, 12)" id="o3"><path d="M2261 424.4 C2260.4 424.6 2253.9 425.3 2253.9 425.2 C2254.1 425.8 2257.6 425.7 2258 425.7 C2260 425.7 2262.2 425.7 2264.1 424.9 C2263.6 424.7 2261 423.7 2261 424.4 z" id="p3" fill="#B2AFA8" /><path d="M2267.9 431.4 C2268.3 432.1 2269.2 432.5 2269.9 432.8 C2270.8 433.4 2271.8 434.1 2272.5 434.9 C2271.4 433.9 2270.1 430.5 2267.9 431.4 C2268.2 432.2 2268.7 431.1 2267.9 431.4 z" id="q3" fill="#B2AFA8" /><path d="M2282.6 429.1 C2281.1 429.2 2279.4 429.6 2278.1 430.5 C2277.5 431 2276.2 432.9 2278 432 C2281.4 430.3 2284.6 429.2 2288.5 429.9 C2286.6 429.4 2284.6 429 2282.6 429.1 C2281.1 429.2 2284.6 429 2282.6 429.1 z" id="r3" fill="#B2AFA8" /></g><path d="M2286.6 455.4 C2287.7 455.4 2288.4 456 2289.3 455.2 C2290.4 454.5 2291.2 453.3 2291.7 452.1 C2290.3 451.6 2289.7 455.5 2287.8 455.3 C2287 455.2 2286.9 454.7 2286.4 454.1 C2285.8 453.3 2285.1 452.4 2284.3 451.7 C2282.9 450.5 2281.1 449.5 2279.2 449.5 C2282.8 450.3 2285.8 455.2 2286.6 455.4 C2286.8 455.4 2285.8 455.2 2286.6 455.4 z" id="s3" fill="#B2AFA8" /><path d="M2269.2 442.2 C2267.9 441.1 2268.3 439 2269.6 438.2 C2268.7 438.7 2267.1 438.3 2266.2 438.3 C2264.3 438.2 2262.4 438.3 2260.5 438.4 C2263.5 439.6 2266.4 440.4 2269.2 442.2 C2268.6 441.7 2266.4 440.4 2269.2 442.2 z" id="t3" fill="#F4F4DC" /><path d="M2278.9 445 C2279.6 443.7 2280.8 442.6 2282.1 441.9 C2280.9 440.8 2279 440.8 2277.5 441.1 C2275.4 441.3 2273.3 441.8 2271.1 442.3 C2272.9 442.1 2274.6 442.4 2276.2 443.1 C2276.6 443.3 2279.2 444.5 2278.9 445 C2279.7 443.7 2279.2 444.5 2278.9 445 z" id="u3" fill="#F4F4DC" /><path d="M2285.9 443.3 C2287.7 443.2 2295.3 443.9 2297.8 447 C2298.3 447.6 2297.6 448.5 2297 448.9 C2295.8 449.6 2294.4 448.5 2293.2 448.2 C2290 447 2286.7 446.5 2283.3 446.4 C2279.7 446.3 2283.9 443.4 2285.9 443.3 C2287.7 443.2 2283.9 443.4 2285.9 443.3 z" id="v3" fill="#F4F4DC" /></g></g></g></g></g><defs><g transform="translate(17.09519, 0.800995) translate(-135.2952, -293.601)" id="w3" fill="#000"><path d="M118.2 302.7 C118.4 307.4 132.5 311.2 149.8 311.2 C167.1 311.2 181.2 307.4 181.4 302.7 C181.4 307.5 181.4 310.1 181.4 310.5 C181.4 315.3 167.3 319.1 149.8 319.1 C132.3 319.1 118.2 315.2 118.2 310.5 L118.2 302.7 L118.2 302.7 z" fill-opacity="0.4528" id="x3" fill="#593001" /><path d="M118.7 301.7 C118.9 306.4 133 310.2 150.3 310.2 C167.6 310.2 181.7 306.4 181.9 301.7 C181.9 306.5 181.9 309.1 181.9 309.5 C181.9 314.3 167.8 318.1 150.3 318.1 C132.8 318.1 118.7 314.2 118.7 309.5 L118.7 301.7 L118.7 301.7 z" id="y3" fill="#DA8113" /><linearGradient x1="46.0545" y1="-118.6926" x2="45.4656" y2="-118.6926" gradientUnits="userSpaceOnUse" gradientTransform="matrix(117.135, 0, 0, 28.4634, -5208.417, 3687.795)" id="z3"><stop offset="0%" stop-color="#D9952A" stop-opacity="1" /><stop offset="6.438854%" stop-color="#CA7519" stop-opacity="1" /><stop offset="30.54%" stop-color="#E3AD3A" stop-opacity="1" /><stop offset="51.05%" stop-color="#FFEC91" stop-opacity="1" /><stop offset="68.8%" stop-color="#E9BD44" stop-opacity="1" /><stop offset="86.24%" stop-color="#FFED6C" stop-opacity="1" /><stop offset="93.87%" stop-color="#F2D353" stop-opacity="1" /><stop offset="100%" stop-color="#F2B947" stop-opacity="1" /></linearGradient><path d="M118.2 301.6 C118.4 306.1 132.7 309.7 150.3 309.7 C167.9 309.7 182.2 306.1 182.4 301.6 C182.4 306.2 182.4 308.7 182.4 309 C182.4 313.5 168 317.2 150.3 317.2 C132.6 317.2 118.2 313.5 118.2 309 L118.2 301.6 L118.2 301.6 z" id="a4" style="fill:url(#z3)" /><linearGradient x1="45.4914" y1="-117.9547" x2="45.9407" y2="-117.5895" gradientUnits="userSpaceOnUse" gradientTransform="matrix(115.425, 0, 0, 29.925, -5125.077, 3826.124)" id="b4"><stop offset="0%" stop-color="#F4E072" stop-opacity="1" /><stop offset="100%" stop-color="#DB9427" stop-opacity="1" /></linearGradient><ellipse cx="150.3" cy="301.5" rx="31.6" ry="8.2" id="c4" style="fill:url(#b4)" /><linearGradient x1="45.4656" y1="-126.0065" x2="46.0545" y2="-126.0065" gradientUnits="userSpaceOnUse" gradientTransform="matrix(117.135, 0, 0, 18.6219, -5208.417, 2651.479)" id="d4"><stop offset="0%" stop-color="#D9952A" stop-opacity="1" /><stop offset="6.438854%" stop-color="#CA7519" stop-opacity="1" /><stop offset="30.54%" stop-color="#E3AD3A" stop-opacity="1" /><stop offset="51.05%" stop-color="#FFEC91" stop-opacity="1" /><stop offset="68.8%" stop-color="#E9BD44" stop-opacity="1" /><stop offset="86.24%" stop-color="#FFED6C" stop-opacity="1" /><stop offset="93.87%" stop-color="#F2D353" stop-opacity="1" /><stop offset="100%" stop-color="#F2B947" stop-opacity="1" /></linearGradient><path d="M119.2 299.9 C119 300.2 118.9 300.6 118.9 301 C118.9 305.5 132.9 309.2 150.3 309.2 C167.7 309.2 181.7 305.5 181.7 301 C181.7 300.6 181.6 300.3 181.4 299.9 C182 300.5 182.4 301.2 182.4 301.9 C182.4 306.4 168 310.1 150.3 310.1 C132.6 310.1 118.2 306.4 118.2 301.9 C118.2 301.3 118.6 300.6 119.2 299.9 z" id="e4" style="fill:url(#d4)" /><linearGradient x1="45.196" y1="-121.5895" x2="45.3746" y2="-120.6758" gradientUnits="userSpaceOnUse" gradientTransform="matrix(101.745, 0, 0, 23.94, -4458.332, 3199.41)" id="f4"><stop offset="0%" stop-color="#F8DD61" stop-opacity="1" /><stop offset="100%" stop-color="#EAA330" stop-opacity="1" /></linearGradient><ellipse cx="150.3" cy="300.8" rx="27.8" ry="6.6" id="g4" style="fill:url(#f4)" /><linearGradient x1="45.5694" y1="-134.267" x2="45.0221" y2="-134.267" gradientUnits="userSpaceOnUse" gradientTransform="matrix(101.745, 0, 0, 13.2525, -4458.332, 2077.223)" id="h4"><stop offset="0%" stop-color="#F4CA2F" stop-opacity="1" /><stop offset="51.38%" stop-color="#BF7737" stop-opacity="1" /><stop offset="100%" stop-color="#E4A929" stop-opacity="1" /></linearGradient><path d="M122.6 301.5 C122.5 301.3 122.4 301 122.4 300.8 C122.4 297.2 134.9 294.2 150.2 294.2 C165.5 294.2 178 297.1 178 300.8 C178 301 177.9 301.3 177.8 301.5 C176.3 298.2 164.5 295.6 150.1 295.6 C135.7 295.6 124.1 298.2 122.6 301.5 z" id="i4" style="fill:url(#h4)" /></g></defs><desc>JE75757A6E4,G7DdkXeboPEkINUU5FEpp77/O4QE5gSRb9qsku4yDaix4xin4rmvEXdJrJTbAUE7p0WVGEWmyeWN+tsoHPExDiTzfM52JwgTCScU9gf/A/D/DQ+VozJm7XXs/wrStG85uzYMhWikEHrcqNOHiVPDiw==</desc></svg>