<?xml version="1.0" encoding="utf-8"?><!DOCTYPE svg PUBLIC "-//W3C//DTD SVG 1.1//EN" "http://www.w3.org/Graphics/SVG/1.1/DTD/svg11.dtd"><svg x="0" y="0" width="340px" height="340px" viewBox="0, 0, 340, 340" preserveAspectRatio="xMidYMid" font-size="0" id="a" enable-background="new 0 0 340 340" xmlns="http://www.w3.org/2000/svg" xmlns:xlink="http://www.w3.org/1999/xlink" xmlns:xml="http://www.w3.org/XML/1998/namespace" version="1.1"><g id="b" fill="#000"><g id="c"><g transform="translate(0, 0) translate(0, 224)" id="d"><ellipse cx="168.6" cy="53.1" rx="57.8" ry="12.8" fill-opacity="0.25" id="e" /></g><g id="f"><g transform="translate(92.89999, 87.09998) translate(32, 179.5) scale(-1, 1) translate(-32, -179.5) translate(0, 153)" id="g"><g transform="translate(0, 17)" id="h"><path d="M30.7 15 C52.5 16.6 52.4 22.4 52 26.3 C51.6 30.2 36 32.3 37.8 33.7 C39.6 35.1 58.8 32.5 62.5 26.3 C66.2 20.1 62.3 11.8 50.5 7.5 C38.7 3.2 23 -1.1 10.1 2 C3.4 3.6 -3.8 8.7 3.9 12.4 C7.9 14.4 19 14.1 30.7 15 z" id="i" fill="#594F46" /><path d="M30.7 15 C52.5 16.6 52.4 22.4 52 26.3 C51.9 27.1 51.2 27.8 50.2 28.4 C50.3 28.4 50.4 28.5 50.4 28.5 C54.6 25.4 56.1 22.6 55.1 20.2 C53.6 16.6 48.8 12.3 41.2 10.5 C36.1 9.3 28.7 7.9 19.6 6 L12.4 6.8 L12.4 12.3 C12.4 12.6 13.5 13.3 15 14.1 C19.6 14.4 25.1 14.5 30.7 15 z" id="j" fill="#35302C" /><path d="M30.7 15 C19 14.1 7.9 14.4 3.9 12.4 C-3.8 8.7 3.4 3.6 10.1 2 C23 -1.1 38.7 3.2 50.5 7.5 C62.3 11.8 66.2 20.1 62.5 26.3 C58.8 32.5 39.6 35.1 37.8 33.7 C36 32.3 51.6 30.2 52 26.3 C52.4 22.4 52.5 16.6 30.7 15 z M33.4 13.3 C53.2 14.8 53.4 21.9 53 25.5 C52.8 27 51.1 28.7 48.2 29.9 C44.3 31.5 39.1 32.3 40.1 33.1 C41.7 34.3 59 30.6 62 25.2 C65 19.8 60.9 12.4 50.9 8.8 C40.9 5.2 24 0.1 14.4 2.2 C8.2 3.6 1.8 8.3 8.7 11.7 C12.4 13.5 22.8 12.4 33.4 13.3 z" opacity="0.15" id="k" /></g></g><g transform="translate(129.8, 276.4) scale(1.34748) translate(-129.8, -276.4) translate(109.3, 120.3) translate(18, 125)" id="l"><g transform="translate(14.5, 17) scale(-1, 1) translate(-14.5, -17)" id="m"><path d="M10.9 1.8 C11.6 2 21.5 -3.4 26.2 6.5 C26.9 11.9 19.6 25 20.5 26 C23.5 28.8 27.3 28.1 27.6 28.6 C27.9 29.1 26.7 30.5 24.1 32.5 C10.3 32.5 3.3 32.5 2.9 32.5 C-3.5 27 2.2 4.4 10.9 1.8 z" id="n" fill="#35302C" /><path d="M21.7 23.2 C24.6 25.3 26.6 23.6 27.8 26.8 C29.1 29.9 26.4 30.9 25.7 32.5 C25 34.1 3.3 32.5 3 32.5 C2.8 32.5 3.2 29.3 4 25.1 C7.3 23.9 10.9 21.6 13.4 20.6 C14.6 20.1 14.8 18.3 18.3 18.5 C20.5 18.5 21.7 20.1 21.7 23.2 z" id="o" fill="#23201E" /><path d="M21.6 22 C21.6 22.4 21.7 22.8 21.7 23.2 C24.6 25.3 26.6 23.6 27.8 26.8 C29.1 29.9 26.4 30.9 25.7 32.5 C25 34.1 3.3 32.5 3 32.5 L2.9 32.5 C-3.5 27 2.2 4.4 10.9 1.8 C11.6 2 21.5 -3.4 26.2 6.5 C26.7 10.2 23.5 17.4 21.6 22 z M20.4 23.6 C20.4 23.2 21.1 20.9 21.1 20.6 C22.8 16.4 25.8 9.7 25.3 6.3 C21 -2.8 11.8 2.1 11.2 2 C3.2 4.4 -2.1 25.3 3.8 30.4 L3.9 30.4 C4.2 30.4 24.1 31.3 24.9 30.4 C25.6 29.5 26.8 28.4 26.1 26.9 C24.9 23.8 23 25.6 20.4 23.6 z" opacity="0.15" id="p" /></g></g><g transform="translate(207.2, 276.3999) scale(1.34748) translate(-207.2, -276.3999) translate(97.7, 120.3) translate(96.5, 142) scale(-1, 1) translate(-96.5, -142) translate(81, 125)" id="q"><g transform="translate(15.5, 17) scale(-1, 1) translate(-15.5, -17)" id="r"><path d="M13 1.8 C13.7 2 23.6 -3.4 28.3 6.5 C29 11.9 21.6 25 22.6 26 C25.6 28.8 29.4 28.1 29.7 28.6 C30 29.1 28.8 30.5 26.2 32.5 C12.4 32.5 5.4 32.5 5 32.5 C-0.9 31.6 -3.3 5.3 13 1.8 z" id="s" fill="#35302C" /><path d="M23.7 23.2 C26.6 25.3 28.6 23.6 29.8 26.8 C31.1 29.9 28.4 30.9 27.7 32.5 C27 34.1 5.3 32.5 5 32.5 C4.8 32.5 5.2 29.3 6 25.1 C9.3 23.9 12.9 21.6 15.4 20.6 C16.6 20.1 16.8 18.3 20.3 18.5 C22.5 18.5 23.7 20.1 23.7 23.2 z" id="t" fill="#23201E" /><path d="M23.7 23.2 C26.6 25.3 28.6 23.6 29.8 26.8 C31.1 29.9 28.4 30.9 27.7 32.5 C27 34.1 5.3 32.5 5 32.5 C-0.9 31.6 -3.3 5.3 13 1.8 C13.7 2 23.6 -3.4 28.3 6.5 C28.8 10.2 25.5 17.5 23.6 22.1 C23.7 22.4 23.7 22.8 23.7 23.2 z M21.6 23 C21.6 22.6 23.1 21 23.1 20.7 C24.8 16.5 27.9 9.6 27.4 6.2 C23 -3 13.7 2.5 13.1 2.4 C-2.1 5.6 0.2 29.6 5.7 30.4 C6 30.4 26 31.4 26.8 30.4 C27.6 29.4 29 28.5 28.4 26.4 C28.4 25.1 24.3 25 21.6 23 z" opacity="0.15" id="u" /></g></g><g transform="translate(107.7, 108.5) translate(22, 32)" id="v"><path d="M61.9 68.1 C53.3 52.7 58.4 25 58.2 11.6 C58 -1.6 44.3 0.3 39.1 0.3 C33.9 0.3 20.2 -1.7 20 11.6 C19.8 25 24.9 52.7 16.3 68.1 C7.8 83.3 3.9 87 9.4 105.4 C21.2 129.9 14.9 138.1 39.1 138.1 C63.3 138.1 57 129.9 68.8 105.4 C74.3 87 70.4 83.3 61.9 68.1 z" id="w" fill="#453D37" /><path d="M61.9 68.1 C70.4 83.3 74.3 87 68.8 105.4 C57 129.9 63.3 138.1 39.1 138.1 C14.9 138.1 21.2 129.9 9.4 105.4 C3.9 87 7.8 83.3 16.3 68.1 C24.9 52.7 19.8 25 20 11.6 C20.2 -1.7 33.9 0.3 39.1 0.3 C44.3 0.3 58 -1.6 58.2 11.6 C58.4 25 53.3 52.7 61.9 68.1 z M59.5 65.9 C53 52.8 56.9 23.9 56.7 10.7 C56.5 -2.2 44.1 2.9 39 2.9 C33.9 2.9 21.9 -1.9 21.7 11.1 C21.5 24.2 26.7 51.8 18.3 66.9 C10 81.9 6.1 85.5 11.5 103.5 C23.1 127.5 15.4 134.7 39.1 134.7 C62.8 134.7 55.7 126.6 67.3 102.6 C72.6 84.6 65.9 79.1 59.5 65.9 z" opacity="0.15" id="x" /></g><g transform="translate(138.9532, 208.25) scale(0.7648496, 0.7089203) translate(-129.7, -180.2) translate(90.29999, 87.29997) translate(78.5, 145.5) scale(-1, 1) translate(-78.5, -145.5) translate(39, 92)" id="y"><path d="M68.1 2.7 C65.6 5.6 57.8 23.3 40.2 24.2 C21.5 24.9 13.3 5.5 10.6 0.9 C7 8.7 1.1 13.8 0.5 26.6 C-0.1 39.4 4.4 46.5 6.7 52.8 C8.4 57.4 10.7 64.5 12.6 73.4 C13.3 76.6 15 81.2 15 84.3 C15.3 96.3 17.5 91.7 13.2 94.2 C8.9 96.7 5.2 101.6 6.7 104.5 C8.2 107.4 29.2 104.1 30.2 102.9 C30.7 102.3 30.9 95.4 30.7 74 C30.6 70.2 29.5 64.3 29.2 57 C29.1 53.6 30 50.6 29.7 46.2 C33.7 48.7 35.2 49.7 38.2 49.6 C41 49.7 42.2 48 46.8 45.5 C46.8 49.8 47.8 53.2 47.9 56.9 C48 63.8 47.3 70.3 47.2 74 C46.9 94.5 47.2 102.3 48 103.5 C49.2 105.2 56.8 106.1 70.8 106 C72.5 103.2 72.5 100.8 70.8 98.8 C69.1 96.8 66.2 94.7 62.2 92.4 C63.3 83.7 63.9 81.2 65.2 75.5 C66.2 71 67.7 62.7 68.7 60.2 C72.3 51.4 78.4 40.6 78.5 28.7 C78.6 16.8 72.4 8 68.1 2.7 z" id="z" fill="#594F46" /><path d="M68.1 2.7 C72.4 8 78.5 16.8 78.4 28.7 C78.3 40.6 72.2 51.4 68.6 60.2 C67.6 62.8 66 71 65.1 75.5 C63.9 81.2 63.2 83.7 62.1 92.4 C66.1 94.7 69 96.8 70.7 98.8 C72.4 100.8 72.4 103.2 70.7 106 C56.7 106.1 49.1 105.2 47.9 103.5 C47.1 102.3 46.8 94.5 47.1 74 C47.2 70.3 47.9 63.8 47.8 56.9 C47.7 53.1 46.7 49.8 46.7 45.5 C42.1 48 40.9 49.7 38.1 49.6 C35.1 49.7 33.6 48.7 29.6 46.2 C30 50.6 29 53.6 29.2 57 C29.5 64.3 30.6 70.2 30.7 74 C30.9 95.4 30.7 102.3 30.2 102.9 C29.2 104.1 8.2 107.4 6.7 104.5 C5.2 101.6 8.9 96.7 13.2 94.2 C17.5 91.7 15.3 96.3 15 84.3 C14.9 81.1 13.2 76.6 12.6 73.4 C10.7 64.5 8.4 57.5 6.7 52.8 C4.4 46.5 -0.1 39.4 0.5 26.6 C1.1 13.8 7 8.7 10.6 0.9 C13.3 5.5 21.5 24.9 40.2 24.2 C57.8 23.3 65.6 5.6 68.1 2.7 z M68.1 3.9 C66.9 6.2 63.6 12.3 57.5 17.9 C52.5 22.5 44.3 27.3 38.5 27.3 C34.8 27.5 26 22.6 22.4 19.5 C17.8 15.6 11.8 5.2 10.6 1.4 C7.1 8.9 2.7 15.8 2.1 28 C1.5 40.2 5.9 45.5 8.1 51.5 C9.7 55.9 12.8 63.9 14.6 72.4 C15.2 75.4 16.9 80.5 17 83.5 C17.3 94.9 18.7 92.8 14.6 95.2 C10.5 97.6 7.6 99.2 9 101.9 C10.4 104.6 27 101.6 28 100.4 C28.5 99.8 28.8 95.8 28.6 75.4 C28.5 71.7 27.6 64.9 27.3 57.9 C27.2 54.7 26.9 46.1 26.6 41.9 C30.4 44.3 35 48 37.9 47.9 C40.6 48 45.9 43.8 50.3 41.4 C50.3 45.5 50.1 52.2 50.1 55.8 C50.2 62.3 49.2 68.8 49.2 72.3 C48.9 91.8 49.3 99.6 50 100.8 C51.1 102.4 55.2 104 68.5 103.9 C70.1 101.2 70.8 100.5 69.2 98.6 C67.6 96.7 64.2 95 60.4 92.8 C61.5 84.5 62.1 79.7 63.3 74.3 C64.2 70 65.8 62 66.8 59.5 C70.2 51.1 76.5 41.1 76.6 29.8 C76.6 18.6 72.2 8.9 68.1 3.9 z" opacity="0.15" id="a1" /></g></g><g transform="translate(168.9, 190.8) scale(0.9321825) translate(-168.9, -190.8)" id="b1"><g transform="translate(106.4, 97.59996) translate(23, 5)" id="c1"><g id="d1"><g id="e1"><path d="M71.9 15 C69.6 10.8 64.7 4.9 57.9 4.1 C51 3.3 45.8 0.3 39.5 0.3 C33.2 0.3 28 3.3 21.1 4.1 C14.3 4.9 9.4 10.8 7.1 15 C1.7 24.7 -0.9 28.2 0.8 44.6 C2.6 61 1.7 66.5 7.1 72.9 C17.7 85.5 25.5 94.3 39.5 94.4 C53.5 94.3 61.8 86 71.9 72.9 C76.3 67.2 76.4 61 78.2 44.6 C80 28.2 77.3 24.7 71.9 15 z" id="f1" fill="#453D37" /><path d="M71.9 15 C77.3 24.7 80 28.2 78.2 44.6 C76.4 61 76.3 67.2 71.9 72.9 C61.8 86 53.5 94.3 39.5 94.4 C25.5 94.3 17.7 85.5 7.1 72.9 C1.7 66.5 2.6 61 0.8 44.6 C-0.9 28.2 1.7 24.7 7.1 15 C9.4 10.8 14.3 4.9 21.1 4.1 C28 3.3 33.2 0.3 39.5 0.3 C45.8 0.3 51 3.3 57.9 4.1 C64.7 4.9 69.6 10.8 71.9 15 z M71.2 14.7 C68.9 10.6 64.1 4.8 57.5 4.1 C50.7 3.3 45.7 0.4 39.5 0.4 C33.3 0.4 28.3 3.3 21.5 4.1 C14.9 4.8 10.1 10.6 7.8 14.7 C2.5 24.2 0 27.6 1.7 43.7 C3.4 59.7 2.5 65.1 7.8 71.3 C18.2 83.6 25.8 92.2 39.5 92.3 C53.2 92.2 61.3 84.1 71.2 71.3 C75.5 65.8 75.6 59.7 77.3 43.7 C79.1 27.6 76.5 24.2 71.2 14.7 z" opacity="0.15" id="g1" /></g></g></g><g transform="translate(142.6, 117.9) rotate(20, 0, 0) scale(0.8, 1) translate(-142.6, -117.9) translate(108.7, 95.19996) translate(0, 10)" id="h1"><path d="M34.2 17.4 C32.8 24.5 33.1 32 35.2 39 C35.9 41.5 36.9 44 37.3 46.6 C38.1 52.1 38.1 63 36.3 67.9 C34.1 73.8 24 75.8 20.3 72.4 C15.9 68.4 14.1 57.3 11 52.3 C6.8 45.5 2.5 38.6 1.2 30.7 C0.3 25.3 1 19.3 4.6 15.2 C7.8 11.5 12.7 9.8 17.4 8.3 C20.3 7.4 37.8 -1 39.6 0.8 C40.6 1.7 34.6 15.3 34.2 17.2 C34.2 17.3 34.2 17.4 34.2 17.4 z" id="i1" fill="#332920" /><path d="M34.2 17.4 C32.8 24.5 33.1 32 35.2 39 C35.9 41.5 36.9 44 37.3 46.6 C38.1 52.1 38.1 63 36.3 67.9 C34.1 73.8 24 75.8 20.3 72.4 C15.9 68.4 14.1 57.3 11 52.3 C6.8 45.5 2.5 38.6 1.2 30.7 C0.3 25.3 1 19.3 4.6 15.2 C7.8 11.5 12.7 9.8 17.4 8.3 C20.3 7.4 37.8 -1 39.6 0.8 C40.6 1.7 34.6 15.3 34.2 17.2 C34.2 17.3 34.2 17.4 34.2 17.4 z M33.1 36.9 C31.3 30.5 31 23.6 32.2 17 C32.5 15.3 37.7 2.9 36.8 2 C35.3 0.4 20.3 8 17.8 8.8 C13.8 10.2 9.6 11.7 6.8 15.1 C3.7 18.8 3.1 24.3 3.9 29.2 C5 36.5 8.7 42.8 12.3 49 C15 53.6 16.5 63.7 20.3 67.3 C23.5 70.4 32.1 68.6 34 63.2 C35.5 58.7 35.5 48.8 34.9 43.8 C34.5 41.4 33.7 39.1 33.1 36.9 z" opacity="0.15" id="j1" /></g><g transform="translate(195.2, 117.8999) rotate(-20, 0, 0) scale(0.8, 1) translate(-195.2, -117.8999) translate(95, 95.19996) translate(114, 47.5) scale(-1, 1) translate(-114, -47.5) translate(94, 10)" id="k1"><path d="M34 17.4 C32.6 24.5 32.9 32 35 39 C35.7 41.5 36.7 44 37.1 46.6 C37.9 52.1 37.9 63 36.1 67.9 C33.9 73.8 23.8 75.8 20.1 72.4 C15.7 68.4 13.9 57.3 10.8 52.3 C6.6 45.5 2.3 38.6 1 30.7 C0.1 25.3 0.8 19.3 4.4 15.2 C7.6 11.5 12.5 9.8 17.2 8.3 C20.1 7.4 37.6 -1 39.4 0.8 C40.4 1.7 34.4 15.3 34 17.2 C34 17.3 34 17.4 34 17.4 z" id="l1" fill="#332920" /><path d="M34 17.4 C32.6 24.5 32.9 32 35 39 C35.7 41.5 36.7 44 37.1 46.6 C37.9 52.1 37.9 63 36.1 67.9 C33.9 73.8 23.8 75.8 20.1 72.4 C15.7 68.4 13.9 57.3 10.8 52.3 C6.6 45.5 2.3 38.6 1 30.7 C0.1 25.3 0.8 19.3 4.4 15.2 C7.6 11.5 12.5 9.8 17.2 8.3 C20.1 7.4 37.6 -1 39.4 0.8 C40.4 1.7 34.4 15.3 34 17.2 C34 17.3 34 17.4 34 17.4 z M32.8 17.1 C32.8 17.1 32.8 17 32.8 16.9 C33.2 15.2 38.6 2.8 37.7 1.9 C36.1 0.3 20.1 7.9 17.4 8.7 C13.1 10.1 8.6 11.6 5.7 15 C2.4 18.7 1.8 24.2 2.6 29.1 C3.8 36.3 7.7 42.6 11.5 48.8 C14.3 53.4 16 63.5 20 67.1 C23.4 70.2 32.6 68.4 34.6 63 C36.2 58.5 36.2 48.6 35.5 43.6 C35.1 41.2 34.2 38.9 33.6 36.7 C31.8 30.5 31.5 23.6 32.8 17.1 z" opacity="0.15" id="m1" /></g><g id="n1"><g transform="translate(109.6, 102.7) translate(20, 34)" id="o1"><g transform="translate(0, 11)" id="p1"><path d="M72.8 26.1 C76.1 26.8 75.1 26.5 78.7 28.4 C75.2 10.7 62.4 6 51.7 5.2 C48.7 2.4 44.6 0.6 39.5 0.6 C34.4 0.6 30.3 2.4 27.3 5.2 C16.6 6 3.7 10.7 0.3 28.4 C3.9 26.5 3 26.8 6.2 26.1 C3.1 28.8 1.5 32 3.9 39.7 C6.9 37.2 6.2 35.5 8.9 33.8 C6.3 37 7 42.1 8.5 46.6 C9.2 45.3 9.7 43.9 12 41.6 C11.5 44.8 13.1 47.3 14.5 49.7 C15.6 47.8 16.2 45.2 16.7 42.4 C18 43.3 19.4 44 20.9 44.7 C23.6 47.9 25.7 49.1 28.3 50 C28 48.8 28.1 48.2 28.1 47 C30 48.6 31.9 49.2 33.6 50.8 C33.8 49.4 33.8 49.2 33.9 47.8 C35.1 51.3 36.8 52 39.5 54.4 C42.3 52 43.9 51.2 45.2 47.8 C45.4 49.2 45.4 49.4 45.5 50.8 C47.2 49.1 49.1 48.6 50.8 47 C51 48.3 51.1 48.8 50.8 50 C53.4 49.1 55.5 47.8 58.2 44.7 C59.7 44 61.1 43.2 62.4 42.4 C62.9 45.2 63.5 47.9 64.6 49.7 C66 47.3 67.6 44.8 67.1 41.6 C69.4 43.9 69.9 45.3 70.6 46.6 C72.1 42.1 72.8 37 70.2 33.8 C72.9 35.5 72.2 37.2 75.2 39.7 C77.4 32.1 75.8 28.8 72.8 26.1 z" id="q1" fill="#FEFEFE" /><path d="M72.8 26.1 C76.1 26.8 75.1 26.5 78.7 28.4 C77.1 20.5 73.7 15.2 69.5 11.7 C71.3 14.7 72.5 17.2 73.3 22.4 C71.3 21.1 69.2 21 66.3 19.7 C68.5 23.7 68.9 28.8 67.1 33.1 C66.2 31.7 65.1 30.1 62.8 28.7 C63.3 34.5 62.3 36.5 61.5 37.5 C60.3 31.2 58.4 25.4 51.4 25.4 C46.7 27.4 42.5 27.4 39.5 23 C36.5 27.5 32.3 27.4 27.6 25.4 C20.7 25.4 18.7 31.2 17.5 37.5 C16.7 36.5 15.7 34.5 16.2 28.7 C13.9 30.1 12.8 31.6 11.9 33.1 C10.1 28.8 10.5 23.6 12.7 19.7 C9.8 21 7.8 21.1 5.7 22.4 C6.5 17.2 7.7 14.7 9.5 11.7 C5.2 15.2 1.8 20.5 0.3 28.4 C3.9 26.5 3 26.8 6.2 26.1 C3.1 28.8 1.5 32 3.9 39.7 C6.9 37.2 6.2 35.5 8.9 33.8 C6.3 37 7 42.2 8.5 46.6 C9.2 45.3 9.7 43.9 12 41.6 C11.5 44.8 13.1 47.3 14.5 49.7 C15.6 47.8 16.2 45.2 16.7 42.4 C18 43.3 19.4 44 20.9 44.7 C23.6 47.9 25.7 49.1 28.3 50 C28 48.8 28.1 48.2 28.1 47 C28.2 47 28.2 47 28.3 47 C30 48.6 31.9 49.2 33.6 50.8 C33.8 49.4 33.8 49.2 33.9 47.8 C35.1 51.3 36.8 52 39.5 54.4 C42.3 52 43.9 51.2 45.2 47.8 C45.4 49.2 45.4 49.4 45.5 50.8 C47.2 49.1 49.1 48.6 50.8 47 C50.9 47 50.9 47 51 47 C51 48.3 51.1 48.8 50.8 50 C53.4 49.1 55.5 47.8 58.2 44.7 C59.7 44 61.1 43.2 62.4 42.4 C62.9 45.2 63.5 47.9 64.6 49.7 C66 47.3 67.6 44.8 67.1 41.6 C69.4 43.9 69.9 45.3 70.6 46.6 C72.1 42.1 72.8 37 70.2 33.8 C72.9 35.5 72.2 37.2 75.2 39.7 C77.4 32.1 75.8 28.8 72.8 26.1 z" id="r1" fill="#EDEEEF" /><path d="M72.8 26.1 C75.8 28.8 77.4 32.1 75.2 39.7 C72.2 37.2 72.9 35.5 70.2 33.8 C72.8 37 72.1 42.1 70.6 46.6 C69.9 45.3 69.4 43.9 67.1 41.6 C67.6 44.8 66 47.3 64.6 49.7 C63.5 47.9 62.9 45.2 62.4 42.4 C61.1 43.2 59.7 44 58.2 44.7 C55.5 47.8 53.4 49.1 50.8 50 C51.1 48.8 51 48.3 51 47 C50.9 47 50.9 47 50.8 47 C49.1 48.6 47.2 49.1 45.5 50.8 C45.4 49.4 45.4 49.2 45.2 47.8 C43.9 51.2 42.3 52 39.5 54.4 C36.8 52 35.1 51.3 33.9 47.8 C33.8 49.2 33.8 49.4 33.6 50.8 C31.9 49.2 30 48.6 28.3 47 C28.2 47 28.2 47 28.1 47 C28.1 48.2 28 48.8 28.3 50 C25.7 49.1 23.6 47.9 20.9 44.7 C19.4 44 18 43.3 16.7 42.4 C16.2 45.2 15.6 47.8 14.5 49.7 C13.1 47.3 11.5 44.8 12 41.6 C9.7 43.9 9.2 45.3 8.5 46.6 C7 42.1 6.3 37 8.9 33.8 C6.2 35.5 6.9 37.2 3.9 39.7 C1.5 32 3.1 28.8 6.2 26.1 C3 26.8 3.9 26.5 0.3 28.4 C3.7 10.7 16.6 6 27.3 5.2 C30.3 2.4 34.4 0.6 39.5 0.6 C44.6 0.6 48.7 2.4 51.7 5.2 C62.4 6 75.2 10.7 78.7 28.4 C75.1 26.5 76.1 26.8 72.8 26.1 z M70.4 24.3 C73.5 25 73.5 24.1 76.9 25.9 C75.3 17.6 71 13.1 66.2 10.2 C61.4 7.4 55.9 6 50.9 5.6 C48.1 3 44.3 1.3 39.5 1.3 C34.7 1.3 30.9 3 28.1 5.6 C18 6.4 6 8.6 2.9 25.2 C6.3 23.4 6.4 25.3 9.4 24.7 C6.5 27.2 2.3 28.7 4.5 36 C6.4 34.4 8.6 33 11.3 31.6 C8.9 34.6 7.7 37.7 9.1 41.9 C9.8 40.7 11.4 40.4 13.6 38.3 C13.1 41.3 12.7 44.4 14.1 46.6 C15.1 44.8 15.7 42.2 16.2 39.5 C17.4 40.3 20.3 42.9 21.7 43.5 C24.2 46.5 24.9 47 27.3 47.9 C27 46.8 27.3 45.5 27.3 44.4 C27.4 44.4 31.6 46.8 33.2 48.3 C33.4 47 33.1 46.5 33.2 45.2 C34.3 48.5 37 49.4 39.6 51.7 C42.2 49.5 44.6 48.7 45.8 45.5 C46 46.8 46 47 46.1 48.3 C47.7 46.7 49.8 45.9 51.4 44.4 C51.8 44.4 52.3 45.4 53 47.3 C54.9 45.1 56.3 43.6 57.1 42.6 C58.5 41.9 61.8 40.8 63 40.1 C63.5 42.7 63.7 44.9 64.7 46.6 C66 44.4 66.7 41.9 66.2 38.9 C68.4 41.1 69.8 42.4 70.4 43.6 C71.3 40.8 70.9 36.7 69.2 31.4 C71.7 33 72 34.7 74.8 37 C76.9 29.7 73.2 26.9 70.4 24.3 z" opacity="0.15" id="s1" /></g></g><g transform="translate(169.0999, 177.7999) scale(1.2) translate(-169.0999, -177.7999) translate(-286.2, 56.89995) translate(64, 110)" id="t1"><path d="M391.8 5.8 C391 5.7 390.6 5.8 390.4 6.1 C390.3 6.3 390.7 7.4 390.3 8.6 C390.2 8.9 389.9 9.3 389.4 9.8 C388.7 10 388.2 10.1 387.8 10.1 C387.2 10.1 385.6 9.5 384.5 9.5 C383.8 9.4 383.5 9.7 383.6 10.3 L384.8 11.1 C386.2 11.7 387.2 12 387.8 12.2 C389.3 12.5 390.4 12.5 391.1 12.4 C391.6 12.4 392.6 12.5 394.1 12.2 C394.8 12.1 396 11.8 397.7 11.3 C398.4 10.7 398.5 10.3 398 10.1 C397.2 9.8 395.8 10.1 394.8 10.1 C394.1 10.1 393.4 10.1 392.6 10.1 C392.2 9.4 391.9 8.8 391.8 8.5 C391.7 8.2 391.7 7.3 391.8 5.8 z" id="u1" fill="#1F2123" /></g><g transform="translate(109.6, 88.29994) translate(51, 63)" id="v1"><g id="w1"><path d="M8.5 0.8 C3 0.8 0.1 2.6 0.1 6.3 C0.1 9.3 1 9.5 2.6 11.1 C4.1 12.7 4.4 14.2 8.6 14.2 C12.8 14.2 13.1 12.7 14.6 11.1 C16.1 9.5 17.1 9.3 17.1 6.3 C16.9 2.6 14 0.8 8.5 0.8 z" id="x1" fill="#302622" /><path d="M12.1 4.4 C11.4 4.3 9.4 4.4 8.5 4.9 C7.6 4.4 5.7 4.2 4.9 4.4 C3.6 4.6 2.8 6.9 3 6.9 C3.2 7 4.9 5.8 5.7 6.1 C6.9 6.5 8 7.7 8.4 8.6 C8.8 7.8 9.9 6.5 11.1 6.1 C12 5.8 13.6 7 13.8 6.9 C14.2 6.9 13.3 4.6 12.1 4.4 z" id="y1" fill="#F7F7F7" /></g></g><g transform="translate(92.29998, 67.99995) translate(50, 53)" id="z1"><g transform="translate(12.46274, 12.04615) scale(-1, 1) translate(-12.46274, -12.04615) translate(0.962735, 0.546154)" id="a2"><path d="M7.4 22.1 C7.4 22.1 2.2 20.2 0.7 15.9 C-0.3 13 0.6 11.5 3.5 11.2 C2.7 9.3 2.7 8.3 3.5 8 C4.4 7.8 5.9 6.6 8 4.3 L11.3 0.4 L20.6 3.6 C21.9 7.2 22.5 9.2 22.4 9.5 C22.2 10 19.7 7.2 19.1 7.5 C17.4 8.2 11.9 9.3 10.8 10.4 C5.4 16.2 7.4 22.1 7.4 22.1 z" fill-opacity="0.9" opacity="0.8" id="b2" fill="#594F46" /><g transform="translate(1.037265, 10.45385)" id="c2"><path d="M0.9 7.5 C1 7.9 1.4 8.6 2.1 9.6 C3.2 11.1 5.5 11.9 7.5 11.7 C9.5 11.5 11 11.6 12.8 9.6 C14.6 7.6 16 5.8 16.4 5.2 C16.7 4.8 17.4 4.3 18.6 3.7 C16.4 1.5 14.9 0.5 13.9 0.5 C12.5 0.5 9.5 1.5 7.9 3.2 C6.3 4.9 5 6.6 3.1 6.6 C2.7 6.4 2 6.7 0.9 7.5 z" id="d2" /><path d="M7.2 7.5 C8.1 6.9 8.7 6.5 9 6.2 C9.7 5.6 10 5.1 10.4 4.8 C11 6 11 7.5 9.7 7.9 C8.8 8.3 8 8.1 7.2 7.5 z" id="e2" fill="#FFFFFE" /></g></g></g><g transform="translate(88.89999, 67.99995) translate(80, 54)" id="f2"><g transform="translate(0.962735, 0.546154)" id="g2"><path d="M7.4 21.1 C7.4 21.1 2.2 19.2 0.7 14.9 C-0.3 12 0.6 10.5 3.5 10.2 C2.7 8.3 2.7 7.3 3.5 7 C4.4 6.8 5.9 5.6 8 3.3 L11.4 0 L20.7 2.7 C22 6.3 22.6 8.3 22.5 8.6 C22.3 9.1 19.8 6.3 19.2 6.6 C17.5 7.3 12 8.4 10.9 9.5 C5.4 15.2 7.4 21.1 7.4 21.1 z" fill-opacity="0.9" opacity="0.8" id="h2" fill="#594F46" /><g transform="translate(2.037265, 9.453846)" id="i2"><path d="M0.3 7.5 C0.4 7.9 0.8 8.6 1.5 9.6 C2.6 11.1 4.9 11.9 6.9 11.7 C8.9 11.5 10.4 11.6 12.2 9.6 C14 7.6 15.4 5.8 15.8 5.2 C16.1 4.8 16.8 4.3 18 3.7 C15.8 1.5 14.3 0.5 13.3 0.5 C11.9 0.5 8.9 1.5 7.3 3.2 C5.7 4.9 4.3 6.6 2.4 6.6 C2.1 6.4 1.4 6.7 0.3 7.5 z" id="j2" /><path d="M6.2 7.5 C7.1 6.9 7.7 6.5 8 6.2 C8.7 5.6 9 5.1 9.4 4.8 C10 6 10 7.5 8.7 7.9 C7.8 8.3 7 8.1 6.2 7.5 z" id="k2" fill="#FFFFFE" /></g></g></g></g></g></g></g><defs><g transform="translate(17.09519, 0.800995) translate(-135.2952, -293.601)" id="l2" fill="#000"><path d="M118.2 302.7 C118.4 307.4 132.5 311.2 149.8 311.2 C167.1 311.2 181.2 307.4 181.4 302.7 C181.4 307.5 181.4 310.1 181.4 310.5 C181.4 315.3 167.3 319.1 149.8 319.1 C132.3 319.1 118.2 315.2 118.2 310.5 L118.2 302.7 L118.2 302.7 z" fill-opacity="0.4528" id="m2" fill="#593001" /><path d="M118.7 301.7 C118.9 306.4 133 310.2 150.3 310.2 C167.6 310.2 181.7 306.4 181.9 301.7 C181.9 306.5 181.9 309.1 181.9 309.5 C181.9 314.3 167.8 318.1 150.3 318.1 C132.8 318.1 118.7 314.2 118.7 309.5 L118.7 301.7 L118.7 301.7 z" id="n2" fill="#DA8113" /><linearGradient x1="46.0545" y1="-118.6926" x2="45.4656" y2="-118.6926" gradientUnits="userSpaceOnUse" gradientTransform="matrix(117.135, 0, 0, 28.4634, -5208.417, 3687.795)" id="o2"><stop offset="0%" stop-color="#D9952A" stop-opacity="1" /><stop offset="6.438854%" stop-color="#CA7519" stop-opacity="1" /><stop offset="30.54%" stop-color="#E3AD3A" stop-opacity="1" /><stop offset="51.05%" stop-color="#FFEC91" stop-opacity="1" /><stop offset="68.8%" stop-color="#E9BD44" stop-opacity="1" /><stop offset="86.24%" stop-color="#FFED6C" stop-opacity="1" /><stop offset="93.87%" stop-color="#F2D353" stop-opacity="1" /><stop offset="100%" stop-color="#F2B947" stop-opacity="1" /></linearGradient><path d="M118.2 301.6 C118.4 306.1 132.7 309.7 150.3 309.7 C167.9 309.7 182.2 306.1 182.4 301.6 C182.4 306.2 182.4 308.7 182.4 309 C182.4 313.5 168 317.2 150.3 317.2 C132.6 317.2 118.2 313.5 118.2 309 L118.2 301.6 L118.2 301.6 z" id="p2" style="fill:url(#o2)" /><linearGradient x1="45.4914" y1="-117.9547" x2="45.9407" y2="-117.5895" gradientUnits="userSpaceOnUse" gradientTransform="matrix(115.425, 0, 0, 29.925, -5125.077, 3826.124)" id="q2"><stop offset="0%" stop-color="#F4E072" stop-opacity="1" /><stop offset="100%" stop-color="#DB9427" stop-opacity="1" /></linearGradient><ellipse cx="150.3" cy="301.5" rx="31.6" ry="8.2" id="r2" style="fill:url(#q2)" /><linearGradient x1="45.4656" y1="-126.0065" x2="46.0545" y2="-126.0065" gradientUnits="userSpaceOnUse" gradientTransform="matrix(117.135, 0, 0, 18.6219, -5208.417, 2651.479)" id="s2"><stop offset="0%" stop-color="#D9952A" stop-opacity="1" /><stop offset="6.438854%" stop-color="#CA7519" stop-opacity="1" /><stop offset="30.54%" stop-color="#E3AD3A" stop-opacity="1" /><stop offset="51.05%" stop-color="#FFEC91" stop-opacity="1" /><stop offset="68.8%" stop-color="#E9BD44" stop-opacity="1" /><stop offset="86.24%" stop-color="#FFED6C" stop-opacity="1" /><stop offset="93.87%" stop-color="#F2D353" stop-opacity="1" /><stop offset="100%" stop-color="#F2B947" stop-opacity="1" /></linearGradient><path d="M119.2 299.9 C119 300.2 118.9 300.6 118.9 301 C118.9 305.5 132.9 309.2 150.3 309.2 C167.7 309.2 181.7 305.5 181.7 301 C181.7 300.6 181.6 300.3 181.4 299.9 C182 300.5 182.4 301.2 182.4 301.9 C182.4 306.4 168 310.1 150.3 310.1 C132.6 310.1 118.2 306.4 118.2 301.9 C118.2 301.3 118.6 300.6 119.2 299.9 z" id="t2" style="fill:url(#s2)" /><linearGradient x1="45.196" y1="-121.5895" x2="45.3746" y2="-120.6758" gradientUnits="userSpaceOnUse" gradientTransform="matrix(101.745, 0, 0, 23.94, -4458.332, 3199.41)" id="u2"><stop offset="0%" stop-color="#F8DD61" stop-opacity="1" /><stop offset="100%" stop-color="#EAA330" stop-opacity="1" /></linearGradient><ellipse cx="150.3" cy="300.8" rx="27.8" ry="6.6" id="v2" style="fill:url(#u2)" /><linearGradient x1="45.5694" y1="-134.267" x2="45.0221" y2="-134.267" gradientUnits="userSpaceOnUse" gradientTransform="matrix(101.745, 0, 0, 13.2525, -4458.332, 2077.223)" id="w2"><stop offset="0%" stop-color="#F4CA2F" stop-opacity="1" /><stop offset="51.38%" stop-color="#BF7737" stop-opacity="1" /><stop offset="100%" stop-color="#E4A929" stop-opacity="1" /></linearGradient><path d="M122.6 301.5 C122.5 301.3 122.4 301 122.4 300.8 C122.4 297.2 134.9 294.2 150.2 294.2 C165.5 294.2 178 297.1 178 300.8 C178 301 177.9 301.3 177.8 301.5 C176.3 298.2 164.5 295.6 150.1 295.6 C135.7 295.6 124.1 298.2 122.6 301.5 z" id="x2" style="fill:url(#w2)" /></g></defs><desc>A525GDC4KL6,R1vK25pp2bvroFm9tqVY8tu/wjil/QuCMUgLR5H95hb+O2edf9C6CBvSyvUbK66GTE5RGE4/yKqHYl4uP5+2CapguyE9e+9MJszEh7P4ERKh3QXRWlfZGnFR8r5CvQV5</desc></svg>