<?xml version="1.0" encoding="utf-8"?><!DOCTYPE svg PUBLIC "-//W3C//DTD SVG 1.1//EN" "http://www.w3.org/Graphics/SVG/1.1/DTD/svg11.dtd"><svg x="0" y="0" width="340px" height="340px" viewBox="0, 0, 340, 340" preserveAspectRatio="xMidYMid" font-size="0" id="a" enable-background="new 0 0 340 340" xmlns="http://www.w3.org/2000/svg" xmlns:xlink="http://www.w3.org/1999/xlink" xmlns:xml="http://www.w3.org/XML/1998/namespace" version="1.1"><g id="b" fill="#000"><g id="c"><g transform="translate(0, 0) translate(0, 224)" id="d"><ellipse cx="168.6" cy="53.1" rx="57.8" ry="12.8" fill-opacity="0.25" id="e" /></g><g id="f"><g transform="translate(111.3, 111.3) translate(17, 115.5) scale(-1, 1) translate(-17, -115.5) translate(0, 94)" id="g"><g id="h"><path d="M8.1 41.9 C14.8 39.7 18.9 36.9 23.6 32.1 C31.3 24.3 34 16.7 29.9 8.8 C27.6 4.4 19.9 1.9 13.5 3.1 C10.7 3.6 9.6 5.5 10 5.9 C10.7 6.6 13.9 5.9 15.5 6 C26.6 6.6 24.3 15.2 17.6 22.1 C12.7 27.2 5.8 27.2 1.9 31.9 C-1.8 36.4 1.5 44.1 8.1 41.9 z" id="i" fill="#DD7E4E" /><path d="M13.5 34.9 C24.5 32.1 33 20.6 28.2 9.3 C26.4 5 18 1.6 10.2 6 L10.1 6 C9.5 5.6 9.8 4.8 12 2.8 C16.8 -1.4 25.8 0.3 29.5 4.7 C36.8 13.3 34.6 24.6 26.9 32.4 C22.2 37.2 14.7 39.8 8 42 C5.7 42.8 3.8 42.3 2.4 41.2 C2.2 38.4 10.9 35.6 13.5 34.9 z" id="j" fill="#CE734A" /><path d="M2.4 41 C0 38.9 -0.5 34.8 1.9 31.9 C5.8 27.2 12.7 27.2 17.6 22.1 C24.3 15.2 26.6 6.6 15.5 6 C14 5.9 11 6.5 10.1 6 L10.1 6 C9.5 5.6 9.8 4.8 12 2.8 C16.8 -1.4 25.8 0.3 29.5 4.7 C36.8 13.3 34.6 24.6 26.9 32.4 C22.2 37.2 14.7 39.8 8 42 C5.7 42.8 3.8 42.3 2.4 41.2 C2.4 41.1 2.4 41.1 2.4 41 z M3.1 31.5 C0.9 34.3 0.9 37.1 3.1 39.1 C3.1 39.1 3.1 39.2 3.1 39.2 C4.5 40.3 6.3 40.8 8.4 40 C14.8 37.9 20.8 35.7 25.2 31.1 C32.6 23.7 35.6 13.6 28.7 5.4 C25.1 1.2 17.2 -0.9 12.6 3.1 C10.6 5 9.9 5.4 10.5 5.8 C11.3 6.3 14.6 5.3 16 5.4 C26.6 6 25.3 15.7 18.9 22.3 C14.2 27.1 6.8 27.1 3.1 31.5 z" opacity="0.15" id="k" /></g></g><g transform="translate(133.12, 276.4) scale(0.7114846) translate(-129.8, -276.4) translate(95.2, 88.89998) translate(28, 124)" id="l"><path d="M50.5 28.2 C50.5 14.3 19.2 -3.5 9.2 1 C8 1.6 6.8 2.4 5.7 3.4 C3.3 5.6 1.3 9.8 0.9 13 C0.7 14.5 1.4 14.8 1.4 16.4 C1.5 18.2 1.6 22.4 1.9 24.1 C2.1 25.3 2.9 23 3.2 24.1 C3.7 25.9 3.9 28.6 4.4 29.9 C5 31.4 6.8 35.4 7.1 35.8 C7.5 36.4 7.2 35.1 8.7 37.9 C9.2 38.8 9.6 38.5 10.1 39.6 C10.5 40.3 11.2 45.8 11.6 46.5 C12.3 47.8 12.7 45.8 13.5 47.3 C14.2 48.6 14.9 50 15.6 51.5 C8.3 54.2 4.7 57.4 4.7 61.1 C4.7 62.8 4.7 65.1 6.4 66.4 C7.7 67.4 37.5 67.9 38.9 65.1 C40.7 60 34.3 53.8 39.7 45.1 C43.7 38.5 50.5 37.5 50.5 28.2 z" id="m" fill="#CE734A" /><path d="M50.5 28.2 C50.5 37.5 43.7 38.5 39.7 45.1 C34.3 53.8 40.7 60 38.9 65.1 C37.5 67.9 7.7 67.4 6.4 66.4 C4.7 65.1 4.7 62.8 4.7 61.1 C4.7 57.4 8.3 54.2 15.6 51.5 C14.9 50 14.2 48.6 13.5 47.3 C12.7 45.8 12.3 47.8 11.6 46.5 C11.2 45.8 10.5 40.3 10.1 39.6 C9.6 38.5 9.2 38.8 8.7 37.9 C7.2 35.1 7.5 36.4 7.1 35.8 C6.8 35.4 5 31.4 4.4 29.9 C3.9 28.6 3.7 25.9 3.2 24.1 C2.9 23 2.1 25.3 1.9 24.1 C1.6 22.4 1.5 18.2 1.4 16.4 C1.4 14.8 0.7 14.5 0.9 13 C1.3 9.8 3.3 5.6 5.7 3.4 C6.8 2.4 8 1.6 9.2 1 C19.2 -3.5 50.5 14.3 50.5 28.2 z M48.3 27.1 C48.3 14.2 19.8 -2.2 10.7 2 C9.6 2.5 8.5 3.3 7.5 4.2 C5.3 6.2 3.5 10.1 3.1 13 C3 14.4 3.6 14.7 3.6 16.2 C3.7 17.8 3.8 21.7 4.1 23.3 C4.2 24.4 5 22.3 5.2 23.3 C5.7 24.9 5.9 27.4 6.3 28.6 C6.9 30 8.5 33.7 8.8 34.1 C9.1 34.6 8.9 33.4 10.2 36 C10.7 36.8 11.1 36.5 11.5 37.6 C11.9 38.2 12.5 43.3 12.9 43.9 C13.5 45.1 13.9 43.3 14.6 44.7 C15.2 45.9 18.5 50.2 19.1 51.6 C12.5 54.1 7.3 55.8 7.3 59.2 C7.3 60.8 6.6 61.1 8.1 62.3 C9.3 63.2 35.1 64.3 36.4 61.7 C38 57 33.5 50.7 38.4 42.6 C42.1 36.5 48.3 35.6 48.3 27.1 z" opacity="0.15" id="n" /></g><g transform="translate(203.88, 276.4) scale(0.7114846) translate(-207.2, -276.4) translate(75.7, 88.89998) translate(113.5, 158) scale(-1, 1) translate(-113.5, -158) translate(89, 125)" id="o"><path d="M48.2 28.3 C48.2 14.6 24.6 -4.1 9.2 1 C8 1.6 6.8 2.3 5.7 3.3 C3.3 5.4 1.3 9.6 0.9 12.8 C0.7 14.3 1.4 14.5 1.4 16.1 C1.5 17.9 1.6 22 1.9 23.7 C2.1 24.9 2.9 22.6 3.2 23.7 C3.7 25.5 3.9 28.2 4.4 29.4 C5 30.9 6.8 34.9 7.1 35.2 C7.5 35.8 7.2 34.5 8.7 37.3 C9.2 38.2 9.6 37.9 10.1 39 C10.5 39.7 11.2 45.1 11.6 45.8 C12.3 47.1 12.7 45.1 13.5 46.6 C14.2 47.9 14.9 49.3 15.6 50.8 C8.3 53.5 4.7 56.6 4.7 60.3 C4.7 62 4.7 64.2 6.4 65.5 C7.7 66.5 39.4 65.8 40.8 63 C43.8 59.4 34.2 43.1 39.2 39.8 C44.4 37.6 48.2 34.7 48.2 28.3 z" id="p" fill="#CE734A" /><path d="M48.2 28.3 C48.2 34.7 44.4 37.6 39.2 39.8 C34.2 43.1 43.8 59.4 40.8 63 C39.4 65.8 7.7 66.5 6.4 65.5 C4.7 64.2 4.7 62 4.7 60.3 C4.7 56.6 8.3 53.5 15.6 50.8 C14.9 49.3 14.2 47.9 13.5 46.6 C12.7 45.1 12.3 47.1 11.6 45.8 C11.2 45.1 10.5 39.7 10.1 39 C9.6 37.9 9.2 38.2 8.7 37.3 C7.2 34.5 7.5 35.8 7.1 35.2 C6.8 34.9 5 30.9 4.4 29.4 C3.9 28.2 3.7 25.5 3.2 23.7 C2.9 22.6 2.1 24.9 1.9 23.7 C1.6 22 1.5 17.9 1.4 16.1 C1.4 14.5 0.7 14.3 0.9 12.8 C1.3 9.6 3.3 5.4 5.7 3.3 C6.8 2.3 8 1.6 9.2 1 C24.6 -4.1 48.2 14.6 48.2 28.3 z M46.8 27.4 C46.8 14.6 24.6 -2.9 10.1 1.9 C9 2.4 7.8 3.1 6.8 4 C4.5 6 2.7 9.9 2.3 12.9 C2.1 14.3 2.8 14.5 2.8 16 C2.9 17.7 2.9 21.5 3.2 23.1 C3.4 24.2 4.2 22 4.5 23.1 C4.9 24.7 5.1 27.3 5.6 28.4 C6.1 29.8 7.8 33.5 8.1 33.8 C8.5 34.4 8.2 33.2 9.6 35.8 C10.1 36.6 10.5 36.3 10.9 37.4 C11.3 38 12 43 12.4 43.7 C13 44.9 13.4 43 14.1 44.5 C14.8 45.7 17.4 50.6 18 52 C11.1 54.5 6.8 55.5 6.8 59 C6.8 60.5 7.7 61.4 9.3 62.6 C10.5 63.6 36.9 63.1 38.2 60.4 C41.1 57.1 33.6 41.2 38.3 38.1 C43.2 36 46.8 33.3 46.8 27.4 z" opacity="0.15" id="q" /></g><g transform="translate(107.7, 108.5) translate(22, 32)" id="r"><path d="M61.9 68.1 C53.3 52.7 58.4 25 58.2 11.6 C58 -1.6 44.3 0.3 39.1 0.3 C33.9 0.3 20.2 -1.7 20 11.6 C19.8 25 24.9 52.7 16.3 68.1 C7.8 83.3 3.9 87 9.4 105.4 C21.2 129.9 14.9 138.1 39.1 138.1 C63.3 138.1 57 129.9 68.8 105.4 C74.3 87 70.4 83.3 61.9 68.1 z" id="s" fill="#DD7E4E" /><path d="M61.9 68.1 C70.4 83.3 74.3 87 68.8 105.4 C57 129.9 63.3 138.1 39.1 138.1 C14.9 138.1 21.2 129.9 9.4 105.4 C3.9 87 7.8 83.3 16.3 68.1 C24.9 52.7 19.8 25 20 11.6 C20.2 -1.7 33.9 0.3 39.1 0.3 C44.3 0.3 58 -1.6 58.2 11.6 C58.4 25 53.3 52.7 61.9 68.1 z M59.5 65.9 C53 52.8 56.9 23.9 56.7 10.7 C56.5 -2.2 44.1 2.9 39 2.9 C33.9 2.9 21.9 -1.9 21.7 11.1 C21.5 24.2 26.7 51.8 18.3 66.9 C10 81.9 6.1 85.5 11.5 103.5 C23.1 127.5 15.4 134.7 39.1 134.7 C62.8 134.7 55.7 126.6 67.3 102.6 C72.6 84.6 65.9 79.1 59.5 65.9 z" opacity="0.15" id="t" /></g><g transform="translate(132.4045, 189.375) scale(0.8990272, 0.9581218) translate(-128.3, -159.2) translate(109.3, 79.59996)" id="u"><path d="M27.3 124.6 C24.3 138.7 29.4 139.8 32.1 151.3 C33.9 158.9 35.4 165.1 36.8 169.9 L48.9 167.7 C48.9 157.8 49.6 152 51 150.1 C53.2 147.3 55.7 147.2 56.8 143.3 C57.5 140.7 56.8 133.5 54.9 127.7 C53.8 124.1 47.6 121.9 45.2 120.8 C40 118.4 35.5 118.8 31.3 114.2 C29.9 112.5 28.1 121.7 27.3 124.6 z" id="v" fill="#F5A376" /><path d="M48.9 158.7 C48.9 161.5 50.4 172.2 48.9 174.2 C47.4 176.2 45.2 177.1 43.2 177.4 C41.2 177.7 34.7 177.3 32.5 177.7 C30.2 178.1 27 174.6 27 172.7 C27 170.8 27.3 165.9 30.4 164.7 C33.5 163.5 26 164.6 35.5 163.3 C36.2 163.2 35.2 157.5 36.1 158.1 C36.6 158.4 39.3 165.3 39.6 164.7 C40.4 163.1 39.8 156.9 40.6 156.7 C41.9 156.4 43.7 161.4 45.5 162.2 C49.6 164 48.9 153.7 48.9 158.7 z" id="w" fill="#FEFEFE" /><path d="M92 124.6 C95 138.7 89.9 139.8 87.2 151.3 C85.4 158.9 83.9 165.1 82.5 169.9 L70.4 167.7 C70.4 157.8 69.7 152 68.3 150.1 C66.1 147.3 64.5 147.9 63.5 144 C62.8 141.5 62.5 134.7 65 128.4 C66.4 124.9 71.3 122.5 73.8 121.3 C76.5 120.1 80.2 119.9 83.2 118 C85.9 116.3 87.4 111.8 88.9 115.4 C89.7 118.2 90.9 122 92 124.6 z" id="x" fill="#F5A376" /><path d="M70.4 158.7 C70.4 161.5 68.9 172.2 70.4 174.2 C71.9 176.2 74.1 177.1 76.1 177.4 C78.1 177.7 84.6 177.3 86.8 177.7 C89.1 178.1 92.3 174.6 92.3 172.7 C92.3 170.8 92 165.9 88.9 164.7 C85.8 163.5 93.3 164.6 83.8 163.3 C83.1 163.2 84.1 157.5 83.2 158.1 C82.7 158.4 80 165.3 79.7 164.7 C78.9 163.1 79.5 156.9 78.7 156.7 C77.4 156.4 75.6 161.4 73.8 162.2 C69.7 164 70.4 153.7 70.4 158.7 z" id="y" fill="#FEFEFE" /><path d="M31.6 114.5 C30.3 113.7 28.7 121.9 28 124.6 C25.1 138 30 139.1 32.6 150 C33.6 154.3 35.6 160.4 36.4 163.8 C28 164.9 34.3 164.4 31.4 165.5 C28.4 166.6 27.9 168.6 27.9 170.4 C27.9 172.2 30.7 175.5 32.9 175.1 C35 174.7 41.2 175.1 43.1 174.8 C45 174.5 46.4 174 47.8 172.1 C48.6 171.1 48.6 166.8 47.8 159.3 C48.1 153.7 49.5 150.2 50.5 148.8 C52.6 146.1 55 146 56 142.3 C56.7 139.8 56 133 54.2 127.4 C53.2 124 47.2 121.9 45 120.8 C40.1 118.6 35.9 118.9 32 114.8 C36 118.6 40.3 118.4 45.2 120.7 C47.6 121.8 53.8 124 54.9 127.6 C56.8 133.4 57.5 140.6 56.8 143.2 C55.7 147.1 53.2 147.2 51 150 C50 151.4 49.3 155 49 160.9 C49.3 165.1 50.1 172.4 48.9 174.1 C47.4 176.1 45.2 177 43.2 177.3 C41.2 177.6 34.7 177.2 32.5 177.6 C30.2 178 27 174.5 27 172.6 C27 170.7 27.3 165.8 30.4 164.6 C33.4 163.4 26.3 164.5 35 163.3 C34.1 159.8 33.1 155.8 32.1 151.2 C29.4 139.7 24.3 138.6 27.3 124.5 C28.1 121.6 29.9 112.4 31.3 114.1 C31.4 114.3 31.5 114.4 31.6 114.5 z" opacity="0.15" id="z" /><path d="M85 116.4 C84.4 117.1 83.7 117.8 82.9 118.3 C80 120.1 76.5 120.3 73.9 121.4 C71.5 122.5 66.8 124.8 65.5 128.2 C63.1 134.2 63.4 140.7 64.1 143.1 C65.1 146.8 66.6 146.2 68.7 148.9 C69.7 150.3 70.9 154.3 71.1 160 C70.8 164 69.9 170.7 71.1 172.2 C72.5 174.1 74.2 174.6 76.1 174.9 C78 175.2 84.2 174.8 86.3 175.2 C88.5 175.6 91.3 172.3 91.3 170.5 C91.3 168.7 91.3 167.3 88.3 166.2 C85.4 165.1 91.2 165.8 82.9 164.6 L83.9 161.6 C84.8 158.2 85.7 154.4 86.7 150.1 C89.3 139.1 94.1 138.1 91.3 124.6 C90.3 122.1 89.1 118.5 88.3 115.8 C87.5 113.9 86.7 114.4 85.7 115.5 C87 114.1 87.9 113.1 88.8 115.4 C89.6 118.2 90.8 122 91.9 124.6 C94.9 138.7 89.8 139.8 87.1 151.3 C86 155.8 85.1 159.8 84.2 163.4 C93 164.6 85.8 163.6 88.8 164.7 C91.9 165.9 92.2 170.8 92.2 172.7 C92.2 174.6 89 178.1 86.7 177.7 C84.5 177.3 78 177.7 76 177.4 C74 177.1 71.8 176.2 70.3 174.2 C69.1 172.6 69.8 165.3 70.2 161 C69.9 155.1 69.3 151.5 68.2 150.1 C66 147.3 64.4 147.9 63.4 144 C62.7 141.5 62.4 134.7 64.9 128.4 C66.3 124.9 71.2 122.5 73.7 121.3 C76.4 120.1 80.1 119.9 83.1 118 C83.9 117.6 84.5 117 85 116.4 z" opacity="0.15" id="a1" /><path d="M20.3 98.1 C19 103.8 20.5 106.5 21.1 110 C21.5 112.3 22.5 115.5 24 119.6 L25.6 115.8 C26.7 120.6 27.9 123.8 29.1 125.5 C30.3 127.2 32 129.5 34 132.3 L34.7 127.7 C35.9 129.5 37.6 131.8 40 134.7 C42.4 137.5 43.2 138.9 42.6 138.9 L44.7 134.7 C46.3 137.4 47.8 139.5 49.3 140.8 C50.8 142.2 52.9 144 55.7 146.2 L55.7 141.7 C58 144.7 59.6 146.2 60.6 146.2 C61.6 146.2 63.3 144.7 65.9 141.7 L65.9 146.2 C72.8 141.3 76.5 137.9 76.9 136.1 C78.7 137.4 79.6 138.3 79.6 138.9 C81.2 137.4 82.4 135.6 83 133.6 C83.7 131.6 84.7 129.1 86 126.2 L87.7 129.4 C92 124.1 94.7 119.9 95.8 116.7 C97.5 112 100.3 100.3 97.5 92.3 C95.6 87.1 90.2 83.1 81.3 80.5 C67.3 80.5 59.4 80.5 57.5 80.5 C54.7 80.5 41.3 79.7 40 80.5 C39.3 80.9 33.2 80.3 26.5 86.3 C24 88.7 21.6 92.4 20.3 98.1 z" id="b1" fill="#FEFEFF" /><path d="M20.3 98.1 C19 103.8 20.5 106.5 21.1 110 C21.3 112.5 22.4 115.6 24 119.6 L25.6 115.8 C26.7 120.6 27.9 123.8 29.1 125.5 C30.3 127.2 32 129.5 34 132.3 L34.7 127.7 C35.9 129.5 37.6 131.8 40 134.7 C42.4 137.5 43.2 138.9 42.6 138.9 L44.7 134.7 C46.3 137.4 47.8 139.5 49.3 140.8 C50.8 142.2 52.9 144 55.7 146.2 L55.7 141.7 C58 144.7 59.6 146.2 60.6 146.2 C61.6 146.2 63.3 144.7 65.9 141.7 L65.9 146.2 C72.8 141.3 76.5 137.9 76.9 136.1 C78.7 137.4 79.6 138.3 79.6 138.9 C81.2 137.4 82.4 135.6 83 133.6 C83.7 131.6 84.7 129.1 86 126.2 L87.7 129.4 C92 124.1 94.7 119.9 95.8 116.7 C97.5 112 100.3 100.3 97.5 92.3 C95.6 87.1 90.2 83.1 81.3 80.5 C67.3 80.5 59.4 80.5 57.5 80.5 C54.7 80.5 41.3 79.7 40 80.5 C39.3 80.9 33.2 80.3 26.5 86.3 C24 88.7 21.6 92.4 20.3 98.1 z" fill-opacity="0.09629755" id="c1" fill="#010101" /><path d="M98.5 97 C98 102.2 96.7 107 95.8 109.7 C94.7 112.9 92 117.1 87.7 122.4 L86 119.2 C84.7 122.1 83.7 124.6 83 126.6 C82.4 128.6 80.4 125.1 78.8 126.6 C78.8 126 75.9 133.2 75.5 135 C75.1 136.8 72 134.7 70.4 129.8 L67.5 137.4 C64.9 140.4 62.5 133.8 61.5 133.8 C60.9 133.8 60.2 140.7 58.4 139.2 C57.2 138.2 54.2 134.4 53.3 133.2 L52.2 136.7 C49.4 134.5 48.5 129.9 46.9 127.2 L42.1 132.5 C42.6 132.5 39 127.9 38.4 127.2 C36 124.3 36 122.5 34.8 120.7 L34.1 125.3 C32.1 122.5 30.4 120.2 29.2 118.5 C28 116.8 26.8 113.6 25.7 108.8 L24.1 112.6 C22.6 108.5 21.6 105.3 21.2 103 C21 101.5 20.5 100.2 20.3 98.8 C20.3 98.6 20.4 98.3 20.4 98.1 C21.7 92.4 24.1 88.7 26.6 86.3 C33.3 80.3 39.4 80.9 40.1 80.5 C41.4 79.7 54.8 80.5 57.6 80.5 L81.3 80.5 C90.2 83.1 95.6 87.1 97.5 92.3 C98 93.8 98.3 95.4 98.5 97 z" id="d1" fill="#FEFEFF" /><path d="M20.4 97.7 C21.7 92.1 24.1 88.4 26.6 86.1 C33.3 80.2 39.4 80.8 40.1 80.4 C41.4 79.6 54.8 80.4 57.6 80.4 L81.3 80.4 C90.2 83 95.6 86.9 97.5 92 C98 93.5 98.3 95.1 98.5 96.6 C98.5 96.8 98.5 96.9 98.5 97.1 C99.5 104.5 97.3 113.2 95.8 117.1 C94.7 120.3 92 124.4 87.7 129.6 L86 126.4 C84.7 129.3 83.7 131.7 83 133.7 C82.4 135.7 81.2 137.5 79.6 138.9 C79.6 138.3 78.7 137.4 76.9 136.1 C76.5 137.9 72.8 141.2 65.9 146.1 L65.9 141.7 C63.3 144.7 61.6 146.1 60.6 146.1 C59.6 146.1 58 144.6 55.7 141.7 L55.7 146.1 C52.9 143.9 50.8 142.2 49.3 140.8 C47.8 139.5 46.3 137.4 44.7 134.8 L42.6 138.9 C43.2 138.9 42.4 137.5 40 134.8 C37.6 131.9 35.9 129.7 34.7 127.9 L34 132.4 C32 129.6 30.3 127.4 29.1 125.7 C27.9 124 26.7 120.9 25.6 116.1 L24 119.9 C22.4 116 21.3 112.9 21.1 110.4 C20.5 106.9 19 104.3 20.3 98.7 C20.3 98.2 20.4 97.9 20.4 97.7 z M28.6 86.7 C26.3 88.9 23.9 92.3 22.7 96.6 C21.3 101.9 21.5 105.8 22.1 109 C22.3 111.3 22.8 111.1 24.3 114.8 L25.5 113.8 C26.5 118.3 29.8 122.4 30.9 123.9 C32 125.5 31.5 125.1 33.4 127.7 L35.5 124.8 C36.6 126.5 38.9 129.7 41.1 132.4 C43.4 135 43.7 134.7 43.2 134.7 L45.3 131.8 C46.8 134.3 48.4 136.9 49.8 138.1 C51.2 139.4 52 140.5 54.6 142.5 L54.8 138.6 C57 141.4 59.5 143.1 60.4 143.1 C61.3 143.1 64.5 141.9 66.9 139.1 L66.9 142.6 C73.4 138.1 77.1 135.1 77.4 133.4 C79.1 134.6 79.8 135.7 79.8 136.3 C81.3 134.9 80.8 133.2 81.4 131.4 C82.1 129.5 84.1 126 85.3 123.3 L86.7 125.9 C90.7 121 92.4 118.7 93.5 115.7 C94.8 112.1 96.9 103.9 96 96.9 C96 96.8 96 96.6 96 96.5 C95.8 95 95.5 93.5 95.1 92.1 C93.3 87.3 88.2 83.6 79.9 81.2 L57.7 81.2 C55.1 81.2 42.5 80.5 41.3 81.2 C40.6 81.7 34.9 81.1 28.6 86.7 z" fill-opacity="0.09629755" id="e1" fill="#010101" /></g></g><g transform="translate(168.9, 190.8) scale(0.9379653) translate(-168.9, -190.8)" id="f1"><g transform="translate(103.4, 104.1) translate(25, 0)" id="g1"><path d="M79.4 51 C77.8 37 79 20.9 75.8 15.2 C73.5 11 65.6 1.5 58.8 0.7 C51.9 -0.1 46.6 1.1 40.3 1.1 C34 1.1 28.8 -0.1 21.9 0.7 C15.1 1.5 7.3 11 4.9 15.2 C1.7 20.9 3 37 1.3 51 C0.1 61.5 0 70 2.4 73.7 C11.3 87.6 26.3 89.7 40.3 89.8 C54.3 89.7 69.2 87.6 78.1 73.7 C80.7 70 80.7 61.5 79.4 51 z" id="h1" fill="#ED8B52" /><path d="M79.4 67.2 C78 66 75.4 69.2 72.6 70 C70 71.2 60.8 76.4 54 76.8 C47.7 77.2 36.2 77.4 27.4 76.3 C16.6 74.9 9.1 70.2 8.2 69.9 C5.4 69.2 2.8 66 1.4 67.1 C1.3 67.2 1.2 67.3 1.1 67.5 C1.2 70.1 1.6 72.3 2.5 73.7 C6.1 79.3 10.4 83.8 15.8 85.4 C17.9 86 23.7 88.9 32.2 89.8 C39.3 90.6 44.3 90.1 50.5 89.3 C53.1 88.9 60.7 87.5 65 85.5 C69.6 83.3 74.7 79.4 78.3 73.8 C79.2 72.4 79.6 70.3 79.7 67.6 C79.7 67.4 79.5 67.3 79.4 67.2 z" id="i1" fill="#DD7E4E" /><path d="M79.4 51 C80.7 61.5 80.7 70 78.1 73.7 C69.2 87.6 54.3 89.7 40.3 89.8 C26.3 89.7 11.3 87.6 2.4 73.7 C0 70 0.1 61.5 1.3 51 C3 37 1.7 20.9 4.9 15.2 C7.3 11 15.1 1.5 21.9 0.7 C28.8 -0.1 34 1.1 40.3 1.1 C46.6 1.1 51.9 -0.1 58.8 0.7 C65.6 1.5 73.5 11 75.8 15.2 C79 20.9 77.8 37 79.4 51 z M77.8 49.8 C76.3 36.3 77.5 20.9 74.4 15.4 C72.2 11.4 64.6 2.2 58.1 1.5 C51.4 0.7 46.4 1.9 40.3 1.9 C34.3 1.9 29.3 0.7 22.6 1.5 C16.1 2.2 8.6 11.4 6.3 15.4 C3.2 20.9 4.5 36.3 2.9 49.8 C1.7 59.8 1.6 68 3.9 71.6 C12.5 84.9 26.9 86.9 40.3 87 C53.7 86.9 68 84.9 76.6 71.6 C79.1 68 79.1 59.8 77.8 49.8 z" opacity="0.15" id="j1" /></g><g transform="translate(104.7, 96.09996) translate(8, 0)" id="k1"><g id="l1"><path d="M40.1 16.4 C38 20.5 34.8 18.2 29.5 21.5 C25.4 24 22.8 29.3 17.6 27.4 C13.3 25.8 13.8 19.4 9.6 14.4 C9.6 8.3 16.3 5.3 25.1 3.2 C27.1 4.9 34.6 5.5 36.6 7.4 C39.4 10.3 42.3 12.4 40.1 16.4 z" id="m1" fill="#CE734A" /><path d="M20.1 7 C30 6.4 39.4 16.5 36.9 19 C35.4 19.5 32.7 19.6 29.6 21.5 C27.5 22.8 26.1 24.4 24.3 25.7 C19.6 26.6 19.6 16.4 13.8 13.8 C9.2 11.6 14.1 7.3 20.1 7 z" id="n1" fill="#EAA9A7" /><path d="M10.7 10.5 C10.3 11.4 10.1 12.4 10.1 13.4 C14 18.3 13.6 24.5 17.6 26 C22.5 27.9 24.9 22.7 28.7 20.3 C33.7 17.1 36.7 19.3 38.7 15.4 C40.7 11.5 38 9.5 35.4 6.7 C35.4 6.6 35.4 6.6 35.3 6.6 C35.9 6.9 36.3 7.1 36.6 7.4 C39.4 10.3 42.3 12.4 40.1 16.4 C38 20.5 34.8 18.2 29.5 21.5 C25.4 24 22.8 29.3 17.6 27.4 C13.3 25.8 13.8 19.4 9.6 14.4 C9.6 12.9 10 11.6 10.7 10.5 z" opacity="0.15" id="o1" /><path d="M3.2 6.5 C3.9 4.9 5.5 3.7 7.2 3.5 C9.3 3.2 11.4 4.6 13.5 4.3 C15.3 4.1 16.7 2.8 18.2 2 C21.1 0.4 25.7 -0.2 28.7 1.1 C33.1 2.9 36.4 7.4 36.4 7.4 C25.7 2.7 18.1 10.1 11.7 15.5 C10 16.9 1.9 23.5 0.6 20.9 C-0.1 19.6 1.5 16.5 2.2 13.3 C2.9 10.4 2.3 8.3 3.2 6.5 z" id="p1" fill="#DD7E4E" /><path d="M3.2 6.5 C3.9 4.9 5.5 3.7 7.2 3.5 C9.3 3.2 11.4 4.6 13.5 4.3 C15.3 4.1 16.7 2.8 18.2 2 C21.1 0.4 25.7 -0.2 28.7 1.1 C33.1 2.9 36.4 7.4 36.4 7.4 C25.7 2.7 18.1 10.1 11.7 15.5 C10 16.9 1.9 23.5 0.6 20.9 C-0.1 19.6 1.5 16.5 2.2 13.3 C2.9 10.4 2.3 8.3 3.2 6.5 z M5 6 C4.2 7.6 4.7 9.5 4.1 12 C3.5 14.8 2.1 17.6 2.7 18.7 C3.9 21 10.4 14.3 11.9 13 C17.6 8.3 25.1 1.9 34.6 6 C34.6 6 31.4 2.9 27.5 1.3 C24.8 0.1 21.4 0.8 18.8 2.2 C17.5 2.9 15.1 4.7 13.5 4.8 C11.6 5.1 9.9 3.6 8 3.8 C6.5 4 5.6 4.6 5 6 z" opacity="0.15" id="q1" /></g></g><g transform="translate(115.9, 96.09996) translate(89.5, 14) scale(-1, 1) translate(-89.5, -14) translate(69, 0)" id="r1"><g id="s1"><path d="M40.2 16.4 C38.1 20.5 34.9 18.2 29.6 21.5 C25.5 24 22.9 29.3 17.7 27.4 C13.4 25.8 13.9 19.4 9.7 14.4 C9.7 8.3 16.4 5.3 25.2 3.2 C27.2 4.9 34.7 5.5 36.7 7.4 C39.6 10.3 42.3 12.4 40.2 16.4 z" id="t1" fill="#E2DED5" /><path d="M20.1 7 C30 6.4 39.4 16.5 36.9 19.1 C35.6 19.5 33 19.4 29.9 21.3 C27.8 22.6 26.5 24 24.8 25.5 C20.1 26.4 19.6 16.4 13.8 13.8 C9.2 11.6 14.1 7.3 20.1 7 z" id="u1" fill="#EAA9A7" /><path d="M16.7 6 C13.1 7.7 10.8 10.1 10.8 13.5 C14.7 18.1 14.3 24 18.3 25.5 C23.1 27.3 25.5 22.4 29.3 20.1 C34.2 17 37.2 19.1 39.1 15.3 C41.1 11.6 38.6 9.7 35.9 7 C35.7 6.8 35.4 6.6 35.1 6.5 C35.8 6.8 36.3 7.1 36.7 7.4 C39.6 10.3 42.3 12.4 40.2 16.4 C38.1 20.5 34.9 18.2 29.6 21.5 C25.5 24 22.9 29.3 17.7 27.4 C13.4 25.8 13.9 19.4 9.7 14.4 C9.7 10.5 12.4 7.9 16.7 6 z" opacity="0.15" id="v1" /><path d="M3.2 6.5 C3.9 4.9 5.5 3.7 7.2 3.5 C9.3 3.2 11.4 4.6 13.5 4.3 C15.3 4.1 16.7 2.8 18.2 2 C21.1 0.4 25.7 -0.2 28.7 1.1 C33.1 2.9 36.4 7.4 36.4 7.4 C25.7 2.7 18.1 10.1 11.7 15.5 C10 16.9 1.9 23.5 0.6 20.9 C-0.1 19.6 1.5 16.5 2.2 13.3 C3.1 10.4 2.3 8.3 3.2 6.5 z" id="w1" fill="#FEFEFE" /><path d="M3.2 6.5 C3.9 4.9 5.5 3.7 7.2 3.5 C9.3 3.2 11.4 4.6 13.5 4.3 C15.3 4.1 16.7 2.8 18.2 2 C21.1 0.4 25.7 -0.2 28.7 1.1 C33.1 2.9 36.4 7.4 36.4 7.4 C25.7 2.7 18.1 10.1 11.7 15.5 C10 16.9 1.9 23.5 0.6 20.9 C-0.1 19.6 1.5 16.5 2.2 13.3 C3.1 10.4 2.3 8.3 3.2 6.5 z M4.2 6.6 C3.3 8.3 4.3 9.4 3.4 12.1 C2.8 15.1 1.3 17.9 2 19.1 C3.2 21.5 9 15.5 10.5 14.2 C16.4 9.2 24.9 1.8 34.8 6.2 C34.8 6.2 31.7 3.1 27.7 1.4 C24.9 0.2 21.1 1 18.5 2.4 C17.1 3.2 15.3 4.9 13.6 5.1 C11.7 5.4 9.6 4.2 7.6 4.5 C6.1 4.6 4.8 5.1 4.2 6.6 z" opacity="0.15" id="x1" /></g></g><g id="y1"><g transform="translate(107.1, 82.19996) translate(22, 30)" id="z1"><g id="a2"><path d="M76.7 63.3 C75.1 55.9 72.5 52.3 66.1 47.7 C58.4 42.2 52.2 40.3 47.5 33.1 C46 30.8 44.9 28.2 43.9 20.7 C43.3 16.2 42.8 12.9 42.4 9.2 C42 5.5 41.1 0.8 37.7 0.7 C34.3 0.6 33.6 4.7 33.5 9.9 C33.4 15.2 33 16.9 32.3 22.2 C31.2 29.7 29.2 32.1 27.7 34.5 C23 41.8 17.4 43 9.9 49 C2.7 54.8 1.9 56.9 1 66.1 C1 66 1 66 1 65.9 C-0.2 70.9 3.1 77 3.1 77.1 C9.7 87.7 16.4 91.1 27.6 91.1 C32.7 91.1 38 91.1 50.2 91.1 C60.4 91 73.7 80.8 76 74.2 C76.2 73.7 76.3 73.2 76.5 72.8 C77.2 70.9 77.6 69 77.4 67.2 C77.4 65.8 77.1 64.6 76.7 63.3 z" id="b2" fill="#FFF" /><path d="M76 74.2 C73.7 80.8 60.4 91 50.2 91.1 C38.4 91.1 33 91.1 27.6 91.1 C16.4 91.1 9.7 87.7 3.1 77.1 C3.1 77 -0.2 70.9 1 65.9 C1.9 71 6.8 77.1 12 81.4 C16.7 85.3 27.9 87.3 39.4 87.6 C50.9 87.9 64.7 82.4 70.4 76.3 C73 73.5 76 65.7 76.3 61.9 C77.3 65.5 78.3 67.5 76 74.2 z" fill-opacity="0.1" id="c2" fill="#010101" /><path d="M76.7 63.3 C77.1 64.6 77.4 65.8 77.4 67.2 C77.6 69 77.2 70.9 76.5 72.8 C76.3 73.2 76.2 73.7 76 74.2 C73.7 80.8 60.4 91 50.2 91.1 L27.6 91.1 C16.4 91.1 9.7 87.7 3.1 77.1 C3.1 77.1 2.3 75.5 1.6 73.3 C0.9 71.1 0.4 68.4 1 65.9 C1 65.9 1 65.9 1 66 C1.9 56.9 2.7 54.8 9.9 49 C17.4 43 23 41.8 27.7 34.5 C29.2 32.1 31.2 29.7 32.3 22.2 C33 16.9 33.4 15.2 33.5 9.9 C33.6 4.7 34.3 0.6 37.7 0.7 C41.1 0.8 42 5.5 42.4 9.2 C42.8 12.9 43.3 16.2 43.9 20.7 C44.9 28.2 46 30.8 47.5 33.1 C52.2 40.3 58.4 42.2 66.1 47.7 C72.5 52.3 75.1 55.9 76.7 63.3 L76.7 63.3 z M74.7 66.3 C74.7 65 74.4 63.9 74 62.6 C72.5 55.7 70.1 52.3 64.2 48 C57 42.8 51.3 41.1 46.9 34.3 C45.5 32.1 44.5 29.7 43.6 22.7 C43 18.5 42.6 15.4 42.2 11.9 C41.8 8.4 40.9 1.8 37.7 1.7 C34.5 1.6 33.9 7.6 33.9 12.5 C33.8 17.5 33.4 19.1 32.8 24 C31.8 31 29.9 33.3 28.5 35.5 C24.1 42.3 18.9 43.5 12 49.1 C5.3 54.5 4.6 56.5 3.7 64.9 C3.1 67.2 3.6 69.8 4.3 71.9 C4.9 73.9 5.7 75.4 5.7 75.4 C11.8 85.3 18.1 88.5 28.5 88.5 L49.5 88.5 C59 88.4 71.3 78.8 73.5 72.7 C73.7 72.2 73.8 71.8 74 71.4 C74.5 69.8 74.9 68 74.7 66.3 z" fill-opacity="0.1" id="d2" fill="#010101" /></g></g><g transform="translate(167.8, 179.5999) scale(1) translate(-167.8, -183.5999) translate(102.2, 84.99996) translate(51, 88)" id="e2"><g id="f2"><path d="M13 1.7 C13.1 7.2 12.5 10.3 11.3 11.3 C10.1 12.3 6.8 14.1 1.6 16.8 C0.6 17.5 0.4 18.3 1 19 C1.5 19.6 2.5 19.6 3.9 19 L14.4 13.3 C19.8 16.9 23 18.7 24.2 18.7 C24.8 18.7 26.2 18.7 26.4 18.3 C29.1 17.2 17.7 12.7 17.3 11.3 C17 10.3 16.5 7.1 15.7 1.8 C15.3 1.2 14.8 0.8 14.2 0.6 C13.7 0.5 13.3 0.8 13 1.7 z" id="g2" fill="#353535" /></g></g><g transform="translate(168.8, 160.8) scale(1.2) translate(-168.8, -160.8) translate(103.3, 109.3) translate(56, 46)" id="h2"><g id="i2"><path d="M16.1 2.4 C15.2 0.6 12.9 0.2 9.5 0.2 C6.1 0.2 3.8 0.6 2.9 2.4 C2 4.2 -1.3 9.4 2.6 10 C6.4 10.6 7.8 10.6 9.5 10.6 C11.2 10.6 12.6 10.6 16.4 10 C20.3 9.5 17 4.2 16.1 2.4 z" id="j2" fill="#282421" /><path d="M3.4 5.3 C3.4 3.9 5.2 1.7 6.1 1.5 C7.2 1.3 12.5 1.3 13.8 1.9 C15 2.5 15 4.3 15 5 C13.8 4.3 11.7 3 9.4 3.1 C7.2 3.3 5 4.2 3.4 5.3 z" id="k2" fill="#FFF" /></g></g><g transform="translate(149.1999, 142.2) scale(1.2) translate(-149.1999, -142.2) translate(-289.9, 63.79996) translate(43, 64)" id="l2"><path d="M402.1 16.9 C403.3 14.6 402.9 13.9 402.9 12.1 C402.9 10.3 402.7 8.4 400.1 7 C396.5 5.3 392.3 5.2 389.8 6.5 C386.4 8.3 383.6 10 384.3 11.5 C385.1 13.2 388 17.1 389.4 17.9 C392.1 19.5 396.1 20.2 398.2 19.7 C399.8 19.3 401.2 18.7 402.1 16.9 z" id="m2" fill="#CAC3C0" /><path d="M401.2 18.1 C402 17.4 401.6 14.8 401.2 13.6 C400.7 12.5 399.2 10.9 397 10.3 C394.1 9.6 393.6 9.7 391.1 10 C389.8 10.1 388.6 9.9 388.2 10.6 C387.6 11.3 387.5 12.5 387.9 13.6 C388.3 14.7 388.4 15.3 389.1 16.1 C389.8 17 390.7 17.7 391.3 18.1 C393.5 19.3 396.8 19.9 398.5 19.5 C399.7 19.2 400.4 18.8 401.2 18.1 z" id="n2" fill="#1F2123" /><path d="M396 16.2 C394.9 16.2 393.9 15.3 393.9 14.2 C393.8 13.1 394 12.5 395 12.7 C395.9 12.8 396.6 12.9 396.9 13.1 C397.8 13.5 397.8 13.2 397.9 14.1 C398 14.5 397.9 14.8 397.8 15 C397.5 15 397 14.7 396.3 14.4 C396.5 15.2 396.6 15.7 396.7 16.1 C396.3 16.3 396.4 16.2 396 16.2 z" id="o2" fill="#FFF" /></g><g transform="translate(186.6999, 142.2) scale(1.2) translate(-186.6999, -142.2) translate(-286.2, 63.79996) translate(82, 64)" id="p2"><path d="M384.3 16.9 C383.1 14.6 383.5 13.9 383.5 12.1 C383.5 10.3 383.7 8.4 386.3 7 C389 5.6 392.8 5.6 396.6 6.5 C400.4 7.4 402.8 10 402.1 11.5 C401.3 13.2 398.4 17.1 397 17.9 C394.3 19.5 390.3 20.2 388.2 19.7 C386.6 19.3 385.2 18.7 384.3 16.9 z" id="q2" fill="#CAC3C0" /><path d="M385.2 18.1 C384.4 17.4 384.8 14.8 385.2 13.6 C385.7 12.5 387.2 10.9 389.4 10.3 C392.3 9.6 392.8 9.7 395.3 10 C396.6 10.1 397.8 9.9 398.2 10.6 C398.8 11.3 398.9 12.5 398.5 13.6 C398.1 14.7 398 15.3 397.3 16.1 C396.6 17 395.7 17.7 395.1 18.1 C392.9 19.3 389.6 19.9 387.9 19.5 C386.7 19.2 386 18.8 385.2 18.1 z" id="r2" fill="#1F2123" /><path d="M390.4 16.2 C391.5 16.2 392.5 15.3 392.5 14.2 C392.6 13.1 392.4 12.5 391.4 12.7 C390.5 12.8 389.8 12.9 389.5 13.1 C388.6 13.5 388.6 13.2 388.5 14.1 C388.4 14.5 388.5 14.8 388.6 15 C388.9 15 389.4 14.7 390.1 14.4 C389.9 15.2 389.8 15.7 389.7 16.1 C390.1 16.3 390 16.2 390.4 16.2 z" id="s2" fill="#FFF" /></g></g></g></g></g><defs><g transform="translate(17.09519, 0.800995) translate(-135.2952, -293.601)" id="t2" fill="#000"><path d="M118.2 302.7 C118.4 307.4 132.5 311.2 149.8 311.2 C167.1 311.2 181.2 307.4 181.4 302.7 C181.4 307.5 181.4 310.1 181.4 310.5 C181.4 315.3 167.3 319.1 149.8 319.1 C132.3 319.1 118.2 315.2 118.2 310.5 L118.2 302.7 L118.2 302.7 z" fill-opacity="0.4528" id="u2" fill="#593001" /><path d="M118.7 301.7 C118.9 306.4 133 310.2 150.3 310.2 C167.6 310.2 181.7 306.4 181.9 301.7 C181.9 306.5 181.9 309.1 181.9 309.5 C181.9 314.3 167.8 318.1 150.3 318.1 C132.8 318.1 118.7 314.2 118.7 309.5 L118.7 301.7 L118.7 301.7 z" id="v2" fill="#DA8113" /><linearGradient x1="46.0545" y1="-118.6926" x2="45.4656" y2="-118.6926" gradientUnits="userSpaceOnUse" gradientTransform="matrix(117.135, 0, 0, 28.4634, -5208.417, 3687.795)" id="w2"><stop offset="0%" stop-color="#D9952A" stop-opacity="1" /><stop offset="6.438854%" stop-color="#CA7519" stop-opacity="1" /><stop offset="30.54%" stop-color="#E3AD3A" stop-opacity="1" /><stop offset="51.05%" stop-color="#FFEC91" stop-opacity="1" /><stop offset="68.8%" stop-color="#E9BD44" stop-opacity="1" /><stop offset="86.24%" stop-color="#FFED6C" stop-opacity="1" /><stop offset="93.87%" stop-color="#F2D353" stop-opacity="1" /><stop offset="100%" stop-color="#F2B947" stop-opacity="1" /></linearGradient><path d="M118.2 301.6 C118.4 306.1 132.7 309.7 150.3 309.7 C167.9 309.7 182.2 306.1 182.4 301.6 C182.4 306.2 182.4 308.7 182.4 309 C182.4 313.5 168 317.2 150.3 317.2 C132.6 317.2 118.2 313.5 118.2 309 L118.2 301.6 L118.2 301.6 z" id="x2" style="fill:url(#w2)" /><linearGradient x1="45.4914" y1="-117.9547" x2="45.9407" y2="-117.5895" gradientUnits="userSpaceOnUse" gradientTransform="matrix(115.425, 0, 0, 29.925, -5125.077, 3826.124)" id="y2"><stop offset="0%" stop-color="#F4E072" stop-opacity="1" /><stop offset="100%" stop-color="#DB9427" stop-opacity="1" /></linearGradient><ellipse cx="150.3" cy="301.5" rx="31.6" ry="8.2" id="z2" style="fill:url(#y2)" /><linearGradient x1="45.4656" y1="-126.0065" x2="46.0545" y2="-126.0065" gradientUnits="userSpaceOnUse" gradientTransform="matrix(117.135, 0, 0, 18.6219, -5208.417, 2651.479)" id="a3"><stop offset="0%" stop-color="#D9952A" stop-opacity="1" /><stop offset="6.438854%" stop-color="#CA7519" stop-opacity="1" /><stop offset="30.54%" stop-color="#E3AD3A" stop-opacity="1" /><stop offset="51.05%" stop-color="#FFEC91" stop-opacity="1" /><stop offset="68.8%" stop-color="#E9BD44" stop-opacity="1" /><stop offset="86.24%" stop-color="#FFED6C" stop-opacity="1" /><stop offset="93.87%" stop-color="#F2D353" stop-opacity="1" /><stop offset="100%" stop-color="#F2B947" stop-opacity="1" /></linearGradient><path d="M119.2 299.9 C119 300.2 118.9 300.6 118.9 301 C118.9 305.5 132.9 309.2 150.3 309.2 C167.7 309.2 181.7 305.5 181.7 301 C181.7 300.6 181.6 300.3 181.4 299.9 C182 300.5 182.4 301.2 182.4 301.9 C182.4 306.4 168 310.1 150.3 310.1 C132.6 310.1 118.2 306.4 118.2 301.9 C118.2 301.3 118.6 300.6 119.2 299.9 z" id="b3" style="fill:url(#a3)" /><linearGradient x1="45.196" y1="-121.5895" x2="45.3746" y2="-120.6758" gradientUnits="userSpaceOnUse" gradientTransform="matrix(101.745, 0, 0, 23.94, -4458.332, 3199.41)" id="c3"><stop offset="0%" stop-color="#F8DD61" stop-opacity="1" /><stop offset="100%" stop-color="#EAA330" stop-opacity="1" /></linearGradient><ellipse cx="150.3" cy="300.8" rx="27.8" ry="6.6" id="d3" style="fill:url(#c3)" /><linearGradient x1="45.5694" y1="-134.267" x2="45.0221" y2="-134.267" gradientUnits="userSpaceOnUse" gradientTransform="matrix(101.745, 0, 0, 13.2525, -4458.332, 2077.223)" id="e3"><stop offset="0%" stop-color="#F4CA2F" stop-opacity="1" /><stop offset="51.38%" stop-color="#BF7737" stop-opacity="1" /><stop offset="100%" stop-color="#E4A929" stop-opacity="1" /></linearGradient><path d="M122.6 301.5 C122.5 301.3 122.4 301 122.4 300.8 C122.4 297.2 134.9 294.2 150.2 294.2 C165.5 294.2 178 297.1 178 300.8 C178 301 177.9 301.3 177.8 301.5 C176.3 298.2 164.5 295.6 150.1 295.6 C135.7 295.6 124.1 298.2 122.6 301.5 z" id="f3" style="fill:url(#e3)" /></g></defs><desc>AH8OHNO2H4O,WfLKv/E1krcnp3bv4w6yeELUnZEEkuwnNcnKCK7qUQVNJrKjxEV9jDaJOHcStEA4sSBdDze3Bn8GGpRdB4Aa+txpP91nGBDSPdpB+kUaawo=</desc></svg>