<?xml version="1.0" encoding="utf-8"?><!DOCTYPE svg PUBLIC "-//W3C//DTD SVG 1.1//EN" "http://www.w3.org/Graphics/SVG/1.1/DTD/svg11.dtd"><svg x="0" y="0" width="340px" height="340px" viewBox="0, 0, 340, 340" preserveAspectRatio="xMidYMid" font-size="0" id="a" enable-background="new 0 0 340 340" xmlns="http://www.w3.org/2000/svg" xmlns:xlink="http://www.w3.org/1999/xlink" xmlns:xml="http://www.w3.org/XML/1998/namespace" version="1.1"><g id="b" fill="#000"><g id="c"><g transform="translate(0, 0) translate(0, 224)" id="d"><ellipse cx="168.6" cy="53.1" rx="57.8" ry="12.8" fill-opacity="0.25" id="e" /></g><g id="f"><g transform="translate(96.50001, 60.59999) translate(33.5, 179) scale(-1, 1) translate(-33.5, -179) translate(0, 154)" id="g"><path d="M41.5 31.4 C45.2 30.1 47.9 28.5 48.7 27.6 C49.1 27.1 51.6 21.8 52.3 21.3 C52.9 20.9 52.9 24.2 53.4 23.8 C54.9 22.4 54.8 22.1 55.2 20.7 C56.1 17.4 57.2 16.6 58.5 11.1 L59.9 15.5 C63.3 7.9 61.4 0.7 63.5 -1.5 C65.6 -3.7 75.2 32.7 50.3 43.4 C48.1 44.4 37.3 47.3 35.4 47.6 C23.7 49.1 1.5 47 1.5 47 L1.5 34.8 C1.3 34.8 27.9 36.1 41.5 31.4 z" id="h" fill="#293C49" /><path d="M41.5 31.4 C45.2 30.1 47.9 28.5 48.7 27.6 C49.1 27.1 51.6 21.8 52.3 21.3 C52.9 20.9 52.9 24.2 53.4 23.8 C54.9 22.4 54.8 22.1 55.2 20.7 C56.1 17.4 57.2 16.6 58.5 11.1 L59.9 15.5 C63.3 7.9 61.4 0.7 63.5 -1.5 C65.6 -3.7 75.2 32.7 50.3 43.4 C48.1 44.4 37.3 47.3 35.4 47.6 C23.7 49.1 1.5 47 1.5 47 L1.5 34.8 C1.3 34.8 27.9 36.1 41.5 31.4 z" id="i" fill="#293C49" /><path d="M41.5 31.4 C45.2 30.1 47.9 28.5 48.7 27.6 C49.1 27.1 51.6 21.8 52.3 21.3 C52.9 20.9 52.9 24.2 53.4 23.8 C54.9 22.4 54.8 22.1 55.2 20.7 C56.1 17.4 57.2 16.6 58.5 11.1 L59.9 15.5 C63.3 7.9 61.4 0.7 63.5 -1.5 C65.6 -3.7 75.2 32.7 50.3 43.4 C48.1 44.4 37.3 47.3 35.4 47.6 C23.7 49.1 1.5 47 1.5 47 L1.5 34.8 C1.3 34.8 27.9 36.1 41.5 31.4 z M42.1 32.1 C29.3 36.2 4 36 4 36 L4.3 45.8 C4.3 45.8 24.5 47.1 35.5 45.8 C37.4 45.5 48.1 42.8 50 41.9 C70.6 33.2 65.8 1.7 63.8 3.7 C61.8 5.6 62.4 11.8 59.2 18.3 L57.9 14.5 C56.7 19.3 56.3 19.9 55.4 22.8 C55 24 54.5 24.3 53.1 25.6 C52.6 25.9 52.6 23.1 52.1 23.4 C51.4 23.8 49.1 28.4 48.7 28.9 C48.1 29.6 45.5 31 42.1 32.1 z" opacity="0.15" id="j" /></g><g transform="translate(122.4, 274.8) scale(1.318898) translate(-122.4, -274.8) translate(100.3, 106.9) translate(19, 122)" id="k"><path d="M10.2 35.9 C7.6 30.9 3.1 24.7 2.4 19.1 C2 15.7 2.2 11.1 3.8 8.1 C5.7 4.4 16.5 -0.9 23.4 1.2 C30.3 3.2 32.3 18.7 26 30.3 C23 35.9 24.7 39.9 24.7 43 C24.7 45.8 22.5 47.5 20.2 48.1 C15.2 49.3 8.9 49.1 6.6 48.4 C6.3 48.3 6 48.2 5.7 48.1 C2.5 46.6 9.8 35.9 10.2 35.9 z" id="l" fill="#293C49" /><path d="M5.5 38.2 C7.8 36.8 9.4 35.3 10.1 35.4 C10.9 38.5 20.1 38.3 24.3 37 C24.3 39.4 25 40.1 25 41.8 C25 44.6 26.3 44.9 23.2 46.9 C20.3 48.8 10.5 49.6 7.9 49.5 C5.3 49.4 1.9 49.9 1.1 48.1 C0.5 46.7 0.3 44.2 0.9 42.8 C1.8 40.5 3.1 39.5 5.5 38.2 z" id="m" fill="#C9C9C9" /><path d="M9.9 35.4 C7.3 30.5 3 24.5 2.4 19.1 C2 15.7 2.2 11.1 3.8 8.1 C5.7 4.4 16.5 -0.9 23.4 1.2 C30.3 3.2 32.3 18.7 26 30.3 C24.6 32.9 24.2 35.1 24.2 37 C24.2 37 24.3 37 24.3 37 C24.3 39.4 25 40.1 25 41.8 C25 44.6 26.3 44.9 23.2 46.9 C22.7 47.2 22 47.5 21.1 47.8 C20.8 47.9 20.5 48 20.2 48.1 C19.6 48.2 19 48.4 18.4 48.5 C14.5 49.3 9.6 49.6 7.9 49.5 C5.3 49.4 1.9 49.9 1.1 48.1 C0.5 46.7 0.3 44.2 0.9 42.8 C1.8 40.5 3.1 39.5 5.5 38.2 C7.6 36.9 9.2 35.5 9.9 35.4 z M2.9 18.4 C3.3 21.7 6.6 27.6 12.8 35.9 C12.1 36 9.6 36.9 7.7 38.1 C5.5 39.3 3.2 40.3 2.4 42.4 C1.9 43.7 1.9 44.4 2.4 45.7 C3.1 47.4 6.2 46.9 8.6 47 C10.2 47.1 14.6 46.8 18.2 46 C18.8 45.9 19.3 45.8 19.8 45.7 C20.1 45.6 20.4 45.5 20.6 45.4 C21.4 45.2 22 44.9 22.5 44.6 C25.3 42.7 22.7 38.1 22.7 35.9 C22.7 35.9 23.8 31.6 25.1 29.2 C30.8 18.5 29 4.2 22.7 2.3 C16.4 0.4 6.2 4.8 4.4 8.2 C3 11 2.5 15.2 2.9 18.4 z" opacity="0.15" id="n" /></g><g transform="translate(213.9, 274.8) scale(1.318898) translate(-213.9, -274.8) translate(114.4, 106.9) translate(88, 147) scale(-1, 1) translate(-88, -147) translate(73, 122)" id="o"><path d="M10.2 35.9 C7.6 30.9 3.1 24.7 2.4 19.1 C2 15.7 2.2 11.1 3.8 8.1 C5.7 4.4 16.5 -0.9 23.4 1.2 C30.3 3.2 32.3 18.7 26 30.3 C23 35.9 24.7 39.9 24.7 43 C24.7 45.8 22.2 47 19.9 47.6 C14.9 48.8 8.9 49.1 6.6 48.4 C6.3 48.3 6 48.2 5.7 48.1 C2.5 46.6 9.8 35.9 10.2 35.9 z" id="p" fill="#293C49" /><path d="M5.5 38.2 C7.8 36.8 9.4 35.3 10.1 35.4 C10.9 38.5 20.1 38.3 24.3 37 C24.3 39.4 24.8 39.6 24.8 41.3 C24.8 44.1 26.3 44.7 23.3 46.6 C20.4 48.5 10.5 49.5 8 49.4 C5.5 49.3 2 49.8 1.2 48 C0.6 46.6 0.4 44.1 1 42.7 C1.8 40.5 3.1 39.5 5.5 38.2 z" id="q" fill="#C9C9C9" /><path d="M9.9 35.4 C7.3 30.5 3 24.5 2.4 19.1 C2 15.7 2.2 11.1 3.8 8.1 C5.7 4.4 16.5 -0.9 23.4 1.2 C30.3 3.2 32.3 18.7 26 30.3 C24.6 32.9 24.2 35.1 24.2 37 C24.2 37 24.3 37 24.3 37 C24.3 39.4 24.8 39.6 24.8 41.3 C24.8 44.1 26.3 44.7 23.3 46.6 C20.4 48.5 10.5 49.5 8 49.4 C5.5 49.3 2 49.8 1.2 48 C0.6 46.6 0.4 44.1 1 42.7 C1.8 40.5 3.1 39.5 5.5 38.2 C7.6 36.9 9.2 35.5 9.9 35.4 z M2.9 18 C3.3 21.4 6.3 27.4 11.9 36.1 C11.2 36.2 8.8 37.3 6.9 38.5 C4.7 39.7 2.9 40 2.2 42.1 C1.6 43.4 1.9 44.4 2.4 45.7 C3.1 47.4 6.4 46.9 8.6 47 C10.9 47.1 19.2 46.5 21.8 44.7 C23.4 43.7 22.6 39.9 22.9 36 C23.1 33.1 24.5 30 25.1 29 C30.9 18.1 29.1 3.6 22.7 1.7 C16.4 -0.3 6.4 4.3 4.7 7.8 C3.2 10.7 2.5 14.8 2.9 18 z" opacity="0.15" id="r" /></g><g transform="translate(91.30001, 75.89998) translate(31, 73)" id="s"><path d="M22.9 13.8 C30.8 10 27.6 0.4 45.8 0.4 C64 0.4 60.8 10.8 68.8 13.3 C77.6 16.1 79.3 26.3 81.2 30.8 C97 63.7 72.1 126.8 68.8 129.6 C65.9 131.5 60.5 132 58.5 132 C55.3 132 52.8 131.1 51.6 131 C48.9 130.8 47.7 129.6 46 129.6 C44.1 129.6 41.9 130.8 38.4 131 C36.8 131.1 33.1 132 28.8 132 C26.9 132 23.5 130.5 20.9 127.6 C18.7 124.7 0.2 64.8 8.3 34.4 C9.4 30.9 13 18.6 22.9 13.8 z" id="t" fill="#4B5966" /><path d="M22.9 13.8 C30.8 10 27.6 0.4 45.8 0.4 C64 0.4 60.8 10.8 68.8 13.3 C77.6 16.1 79.3 26.3 81.2 30.8 C97 63.7 72.1 126.8 68.8 129.6 C65.9 131.5 60.5 132 58.5 132 C55.3 132 52.8 131.1 51.6 131 C48.9 130.8 47.7 129.6 46 129.6 C44.1 129.6 41.9 130.8 38.4 131 C36.8 131.1 33.1 132 28.8 132 C26.9 132 23.5 130.5 20.9 127.6 C18.7 124.7 0.2 64.8 8.3 34.4 C9.4 30.9 13 18.6 22.9 13.8 z M23.7 14.6 C14.1 19.2 10.7 31.1 9.6 34.5 C1.8 63.8 19.6 121.6 21.8 124.4 C24.3 127.2 27.6 128.6 29.4 128.6 C33.5 128.6 37.1 127.7 38.7 127.6 C42.1 127.4 44.2 126.2 46 126.2 C47.6 126.2 48.8 127.4 51.4 127.6 C52.6 127.7 55 128.6 58.1 128.6 C60 128.6 65.2 128.1 68 126.3 C71.2 123.6 95.2 62.7 80 31 C78.2 26.7 76.5 16.8 68 14.1 C60.3 11.7 63.4 1.7 45.8 1.7 C28.2 1.7 31.3 11 23.7 14.6 z" opacity="0.15" id="u" /></g><g fill-rule="evenOdd" transform="translate(121.96, 185.55) scale(1.2, 1.100897) translate(-129.7, -194.9) translate(103.9, 77.29999) translate(65, 163) scale(-1, 1) translate(-65, -163) translate(26, 119)" id="v"><path d="M7.6 1.8 C8.9 0.3 10.2 -1 14.9 6 C16.8 8.8 20 11.5 21.9 14.4 C24.8 18.8 26.1 23.2 28.3 25.5 C31.9 29.2 36 31.9 41.1 31 C46.3 30.1 50.5 22.7 53.3 18 C56.2 13.3 63.6 7.6 66.2 4.7 C68.8 2 69.2 -1.4 72.1 1.4 C75 4.2 78.2 13.6 77.9 17.2 C77.6 20.8 76.9 29 74.5 32.5 C72.1 36 70.7 37.3 70.7 41 C70.7 44.7 66.7 50.6 66.5 53.7 C66.3 56.8 63.3 66.9 63.3 74.7 C63.3 76.3 64.3 78.8 64.4 80.2 C64.7 83.3 66 86.9 60.9 86.9 C55.8 86.9 53.1 87.6 50.2 86.9 C49.2 86.9 46.9 85.8 46.6 84.9 C46.2 83.3 47.4 80.6 47.8 79.3 C48.7 76 51.4 74.1 51.7 73.1 C52.5 70.5 53.4 46.4 53.3 43.8 C50.8 51.6 49.8 53.8 46.2 53.8 C43.8 53.8 41.3 52.5 38.6 50 C36.8 52.6 34.6 53.8 32 53.8 C29.4 53.8 26.2 49.6 22.3 41.1 C23.8 49.4 24.8 55.1 25.1 58 C25.6 62 26.3 66.4 26.4 67.5 C26.5 68.6 26.8 70.4 27.6 73.6 C27.9 74.7 30.5 76.3 31.6 79.7 C32.7 83.1 33.1 85.2 30.6 86.5 C28.1 87.8 27.5 87.6 26.3 87.5 C22.3 87.2 16.6 86.2 15.8 85.5 C14.7 84.7 14.1 80 14.7 77.6 C15.9 72.8 15.2 70.5 15.2 68.6 C15.3 64.4 11.5 50.4 8.7 46.4 C5.9 42.4 7 38.7 6 34.8 C5 30.9 1 27.2 0.9 19.4 C0.8 11.6 6.2 3.2 7.6 1.8 z" id="w" fill="#4B5966" /><path d="M7.6 1.8 C8.9 0.3 10.2 -1 14.9 6 C16.8 8.8 20 11.5 21.9 14.4 C24.8 18.8 26.1 23.2 28.3 25.5 C31.9 29.2 36 31.9 41.1 31 C46.3 30.1 50.5 22.7 53.3 18 C56.2 13.3 63.6 7.6 66.2 4.7 C68.8 2 69.2 -1.4 72.1 1.4 C75 4.2 78.2 13.6 77.9 17.2 C77.6 20.8 76.9 29 74.5 32.5 C72.1 36 70.7 37.3 70.7 41 C70.7 44.7 66.7 50.6 66.5 53.7 C66.3 56.8 63.3 66.9 63.3 74.7 C63.3 76.3 64.3 78.8 64.4 80.2 C64.7 83.3 66 86.9 60.9 86.9 C55.8 86.9 53.1 87.6 50.2 86.9 C49.2 86.9 46.9 85.8 46.6 84.9 C46.2 83.3 47.4 80.6 47.8 79.3 C48.7 76 51.4 74.1 51.7 73.1 C52.5 70.5 53.4 46.4 53.3 43.8 C50.8 51.6 49.8 53.8 46.2 53.8 C43.8 53.8 41.3 52.5 38.6 50 C36.8 52.6 34.6 53.8 32 53.8 C29.4 53.8 26.2 49.6 22.3 41.1 C23.8 49.4 24.8 55.1 25.1 58 C25.6 62 26.3 66.4 26.4 67.5 C26.5 68.6 26.8 70.4 27.6 73.6 C27.9 74.7 30.5 76.3 31.6 79.7 C32.7 83.1 33.1 85.2 30.6 86.5 C28.1 87.8 27.5 87.6 26.3 87.5 C22.3 87.2 16.6 86.2 15.8 85.5 C14.7 84.7 14.1 80 14.7 77.6 C15.9 72.8 15.2 70.5 15.2 68.6 C15.3 64.4 11.5 50.4 8.7 46.4 C5.9 42.4 7 38.7 6 34.8 C5 30.9 1 27.2 0.9 19.4 C0.8 11.6 6.2 3.2 7.6 1.8 z M10 5 C8.7 6.3 3.7 14.1 3.8 21.3 C3.9 28.5 7.6 31.9 8.5 35.5 C9.5 39.1 8.5 42.5 11 46.2 C13.6 49.9 17.1 62.8 17 66.7 C17 68.5 17.7 70.6 16.6 75 C16 77.3 16.6 81.6 17.6 82.3 C18.3 83 22.1 83.9 25.8 84.2 C26.9 84.3 27.4 85.4 29.7 84.2 C32 83 31.1 81.5 30.1 78.4 C29 75.2 26.7 75.8 26.4 74.7 C25.7 71.8 25.3 67.7 25.2 66.7 C25.1 65.7 24.4 61.1 24 57.4 C23.7 55.1 22.4 47.9 21 41.2 C20.9 40.7 20.7 39.4 21 38.4 C21.3 37.6 22 37.2 21.9 36.7 C25.5 44.5 30.2 53.1 32.6 53.1 C35 53.1 37 51.9 38.7 49.5 C41.2 51.8 43.5 53.1 45.7 53.1 C49 53.1 51.2 47.5 53.5 40.3 C53.5 40.9 54.7 41.7 54.5 44.2 C54 52.4 53.4 71 52.8 72.9 C52.5 73.8 47.8 80 48.1 81.3 C48.4 82.1 48.5 83.6 49.4 83.6 C52.1 84.3 54.6 83.6 59.3 83.6 C64 83.6 62.8 80.3 62.5 77.4 C62.4 76.1 61.5 73.8 61.5 72.4 C61.5 65.2 64.3 55.8 64.4 53 C64.6 50.1 68.3 44.6 68.3 41.2 C68.3 37.8 69.6 36.6 71.8 33.4 C74 30.1 74.7 22.6 75 19.2 C75.2 15.9 72.3 7.2 69.6 4.6 C66.9 2.1 66.6 5.2 64.2 7.7 C61.8 10.4 56.2 15.9 53.5 20.3 C50.9 24.6 45.1 32.5 40.3 33.4 C35.5 34.2 31.5 30.5 28.2 27.1 C26.2 24.9 24.6 20.9 21.9 16.8 C20.1 14.2 18.5 11.5 16.8 8.9 C12.4 2.4 11.2 3.6 10 5 z" opacity="0.15" id="x" /></g></g><g transform="translate(168.3, 188) scale(0.879531) translate(-168.3, -188)" id="y"><g transform="translate(96.7, 70.89997) translate(30, 28)" id="z"><g id="a1"><path d="M25.3 87.5 C28.4 87.8 32.5 88 35 86.7 C37.7 85.3 39.2 83.9 41.4 81.5 C43.9 85 46 86.1 49.2 87.5 C52.2 88.9 56.2 87.9 58.7 87.2 C61.2 86.4 66.9 83.2 67.5 79.5 C68.2 75.3 68.7 70.2 66.8 63.2 C65.2 57.1 57.5 53.8 53.8 49.9 C51.1 47 47.5 36.3 47.2 34.6 C46.4 31.2 46.5 27.6 47.7 20.5 C48.9 12.9 53.8 10.5 53.8 8 C53.8 5.6 48.7 10 42.5 10.1 C36.4 10.2 29.7 4.7 29.7 8 C29.7 11.4 34.7 13.8 35.7 19.5 C36.7 25.2 36.7 28.1 35.7 34 C35.1 37.5 31.6 47.8 28.3 50.4 C22.6 54.9 15.7 59.4 15.1 65.9 C14.5 72.6 13.8 76.4 15.7 80.1 C18 84.9 22.2 87.1 25.3 87.5 z" id="b1" fill="#594F46" /><path d="M41.4 1.3 C51.8 1.3 50.7 0.2 54.1 -0.5 C57.5 -1.2 67.3 8.9 71.2 13.2 C75.1 17.5 77.7 25 79.9 29.5 C82.1 34 80.7 43 82.4 52.4 C83.4 58.1 85.2 62.5 83.8 68.2 C82.9 72 80.7 77.3 76 81.2 C60.7 93.6 47.9 95.2 41.4 95.5 C35 95.8 18.6 90.1 8.1 81.4 C3.1 77.2 0.5 72.5 -0.2 68.4 C-1 64 0.4 60.1 1.4 52.6 C3.3 38.1 3.2 39.6 3.1 31.6 C2.7 23 22.7 0.8 26.8 -0.6 C30.9 -2 31.2 1.3 41.4 1.3 z" id="c1" fill="#4B5966" /><path d="M47.4 5.1 C50.5 4.7 53.8 1.9 54.4 1.9 C55.9 1.9 68.9 12.7 71.3 16.5 C73.7 20.5 78.7 27.9 79.1 28.3 C79.1 28.3 79.2 28.3 79.3 28.3 C77.2 23.6 74.7 17.1 71.1 13.2 C67.3 8.8 57.6 -1.3 54.2 -0.6 C50.8 0.1 51.8 1.2 41.5 1.2 C31.2 1.2 30.9 -1.9 26.8 -0.6 C23.6 0.4 10.8 14.1 5.5 24.1 C7.7 21.8 12.7 15.9 17.5 11 C22.1 6.4 26.7 2.4 27.5 2.1 C29.3 1.4 31.5 4.9 37 5.2 C38.1 8 41.1 14.7 41 15.6 C40.8 17.7 41.6 23.6 41 25.6 C39 32.5 34.7 34.5 31.4 37 C26 35.6 22 32.8 18.6 34.9 C15.2 36.9 13.1 40.3 15.3 44.3 C16.5 48.1 20.5 51.3 20.4 56.2 C19.5 58.2 14.5 61.8 10.1 63.6 C11.4 65.7 12.5 67.1 13.4 67.9 C15.4 69.6 19.6 76 20.4 78.7 C21.5 82.6 22.7 85.8 26.6 88.9 C29.7 89.7 34.9 89.8 42.1 89.1 C49.4 89.8 54.6 89.7 57.6 88.9 C64.3 85.2 62.4 84.8 63.5 80.9 C64.3 78.2 68.8 69.6 70.8 67.9 C71.7 67.1 72.8 65.7 74.1 63.6 C69.7 61.8 65.5 59 64.6 57 C63.7 55 64.3 54.6 65.6 50.8 C70.3 45.2 71.4 37.2 65.6 35.1 C59.8 33 58.2 35.8 52.8 37.2 C49.5 34.7 45.1 32.7 43.2 25.8 C42.6 23.8 43.4 17.9 43.2 15.8 C43.1 14.9 46.1 8 47.2 5.2 C47.2 5.2 47.3 5.1 47.4 5.1 z" id="d1" fill="#293C49" /><path d="M41.4 1.3 C51.8 1.3 50.7 0.2 54.1 -0.5 C57.5 -1.2 67.3 8.9 71.2 13.2 C75.1 17.5 77.7 25 79.9 29.5 C82.1 34 80.7 43 82.4 52.4 C83.4 58.1 85.2 62.5 83.8 68.2 C82.9 72 80.7 77.3 76 81.2 C60.7 93.6 47.9 95.2 41.4 95.5 C35 95.8 18.6 90.1 8.1 81.4 C3.1 77.2 0.5 72.5 -0.2 68.4 C-1 64 0.4 60.1 1.4 52.6 C3.3 38.1 3.2 39.6 3.1 31.6 C2.7 23 22.7 0.8 26.8 -0.6 C30.9 -2 31.2 1.3 41.4 1.3 z M41.4 2.1 C31.5 2.1 31.2 -1.1 27.4 0.3 C23.6 1.7 4.3 23 4.7 31.1 C4.8 38.9 4.9 37.3 3.1 51.3 C2.1 58.6 0.8 62.3 1.6 66.5 C2.3 70.4 4.8 75 9.6 79 C19.6 87.4 35.4 92.8 41.5 92.5 C47.7 92.2 59.9 90.7 74.7 79 C79.2 75.3 81.3 70.2 82.2 66.5 C83.5 60.9 81.8 56.7 80.9 51.3 C79.3 42.3 80.6 33.7 78.5 29.3 C76.4 24.9 73.8 17.9 70 13.7 C66.2 9.5 56.9 -0.3 53.6 0.4 C50.3 1.1 51.4 2.1 41.4 2.1 z" opacity="0.15" id="e1" /></g></g><g transform="translate(144.3, 112) scale(0.8) translate(-144.3, -112) translate(102.9, 66.29997) translate(16, 0)" id="f1"><g id="g1"><path d="M27.8 10.3 C24.4 3.6 20.9 -0.6 19.4 0.1 C16.2 1.6 11.7 10.8 8.9 17.1 C4.7 22.1 0.8 27.6 0.3 34.1 C1.2 33.3 2.1 32.4 3 31.6 C1.5 36.6 1.5 42.1 3.2 47.1 C3.5 46.3 3.8 45.5 4.2 44.7 C5.2 50.9 7.8 57.6 13.6 56.5 C22.4 54.8 36.6 44.1 38.7 35.7 C40.4 28.5 32.1 18.9 27.8 10.3 z" id="h1" fill="#293C49" /><path d="M27.8 10.3 C32.1 18.9 40.4 28.5 38.7 35.7 C36.6 44.1 22.4 54.8 13.6 56.5 C7.8 57.6 5.2 50.9 4.2 44.7 C3.8 45.5 3.5 46.3 3.2 47.1 C1.5 42.1 1.5 36.6 3 31.6 C2.1 32.4 1.2 33.3 0.3 34.1 C0.8 27.6 4.7 22.1 8.9 17.1 C11.7 10.8 16.2 1.6 19.4 0.1 C20.9 -0.6 24.4 3.6 27.8 10.3 z M26.9 10.9 C23.9 4.9 20.7 1.2 19.4 1.8 C16.6 3.1 12.5 11.3 10 17 C6.2 21.5 2.8 25 2.4 30.8 C3.2 30.1 4.1 29.7 4.9 29 C3.6 33.5 2.3 38.1 3.8 42.6 C4.1 41.9 5.4 40.9 5.8 40.2 C6.7 45.7 9 53.2 14.2 52.3 C22.1 50.8 34.8 41.2 36.6 33.7 C38.2 27.2 30.8 18.6 26.9 10.9 z" opacity="0.15" id="i1" /><path d="M25 34.7 C26.2 33.7 27.6 32.5 29 31.9 C25 31.5 20.8 32.4 17.3 34.5 C19.1 29.2 23.9 26.3 29.5 27 C29.5 26.9 29.5 26.9 29.4 26.8 C28.1 25.8 25.2 24.8 23.1 25.1 C24.3 22.1 24.6 20.1 25.8 17.1 C24.4 17.4 22.3 16.9 20.6 18.2 L19.7 15.6 C19.7 15.6 22.4 12.4 23.4 12.3 C21.9 9.8 20.5 8.2 19.5 8.3 C14.8 8.8 13.9 20 11.5 28.5 C10 33.6 9.2 44.3 11.5 48.5 C13.1 51.6 18.1 45.7 21.3 44.4 C21.3 44.4 26.6 40.2 30.6 40.3 C30.7 40.3 30.8 40.3 30.9 40.2 C29.5 37.8 27.5 35.9 25 34.7 z" id="j1" fill="#4B5966" /></g></g><g transform="translate(191.6, 112) scale(0.8) translate(-191.6, -112) translate(100.4, 66.29997) translate(97.5, 28.5) scale(-1, 1) translate(-97.5, -28.5) translate(78, 0)" id="k1"><path d="M0.3 34.1 C0.7 27.5 4.6 22.1 8.9 17.1 C11.7 10.8 16.2 1.6 19.4 0.1 C20.9 -0.6 24.4 3.7 27.8 10.3 C32.1 18.9 40.3 28.5 38.6 35.6 C36.2 46.2 22.4 55.5 13.5 56.4 C7.7 57 5.2 50.6 4.1 44.6 C3.7 45.4 3.4 46.2 3.1 47 C1.5 42 1.4 36.5 2.9 31.5 C2.1 32.4 1.2 33.3 0.3 34.1 z" id="l1" fill="#293C49" /><path d="M27.8 10.3 C32.1 18.9 40.4 28.5 38.7 35.7 C36.6 44.1 22.4 54.8 13.6 56.5 C7.8 57.6 5.2 50.9 4.2 44.7 C3.8 45.5 3.5 46.3 3.2 47.1 C1.5 42.1 1.5 36.6 3 31.6 C2.1 32.4 1.2 33.3 0.3 34.1 C0.8 27.6 4.7 22.1 8.9 17.1 C11.7 10.8 16.2 1.6 19.4 0.1 C20.9 -0.6 24.4 3.6 27.8 10.3 z M26.9 10.9 C23.9 4.9 20.7 1.2 19.4 1.8 C16.5 3.1 12.5 11.3 10 17 C6.2 21.5 2.8 25 2.4 30.8 C3.2 30.1 4.1 29.7 4.9 29 C3.6 33.5 2.3 38.1 3.8 42.6 C4.1 41.9 5.4 40.9 5.8 40.2 C6.7 45.7 9 53.2 14.2 52.3 C22.1 50.8 34.8 41.2 36.6 33.7 C38.2 27.2 30.8 18.6 26.9 10.9 z" opacity="0.15" id="m1" /><path d="M11.6 28.3 C14.1 19.8 14.9 8.6 19.6 8.1 C20.7 8 22.2 9.5 23.7 12 C22.3 12.9 19.9 15.4 19.9 15.4 L20.8 18 C22.4 16.7 24.5 17.2 26 16.9 C24.8 19.9 24.5 21.9 23.3 24.9 C25.5 24.5 28.7 25.8 29.9 26.8 C24.2 26.1 19.3 28.9 17.5 34.3 C21 32.2 25.1 31.3 29.2 31.7 C27.7 32.3 26.4 33.5 25.2 34.5 C27.5 35.6 29.4 37.4 30.8 39.5 C27.8 41.4 26 42.4 21.9 45.3 C18.1 48 13.4 51.4 11.8 48.3 C9.3 44.1 10.1 33.5 11.6 28.3 z" id="n1" fill="#4B5966" /></g><g id="o1"><g transform="translate(102.8, 97.49996) translate(32, 35)" id="p1"><g transform="translate(0, 8)" id="q1"><path d="M64 23.9 C61.8 21.3 58.3 20.9 55.7 19 C52.7 16.8 52.1 14 50.4 10.8 C46.5 3.6 41 0.8 33.5 0.7 C26.9 0.7 21.5 2.7 17.6 9 C16 11.6 15.2 15.2 13.1 17.5 C11 19.8 7.8 20.1 5.4 21.8 C1.5 24.6 -1.2 31.1 0.6 36 C2 39.8 8.4 42.3 12.3 43.7 C24.5 48.1 40.4 48 52.7 44.3 C56.1 43.3 59.5 41.8 62.5 39.8 C65.7 37.6 66.6 36.4 66.6 32.6 C66.5 29.7 66 26.2 64 23.9 z" id="r1" fill="#EDEEEE" /><path d="M64 23.9 C66 26.2 66.5 29.7 66.6 32.6 C66.6 36.4 65.7 37.6 62.5 39.8 C59.5 41.8 56.1 43.3 52.7 44.3 C40.4 48 24.5 48.1 12.3 43.7 C8.4 42.3 2 39.8 0.6 36 C-1.2 31.1 1.5 24.6 5.4 21.8 C7.8 20.1 11 19.8 13.1 17.5 C15.2 15.2 16 11.6 17.6 9 C21.5 2.7 26.9 0.7 33.5 0.7 C41 0.8 46.5 3.6 50.4 10.8 C52.1 14 52.7 16.8 55.7 19 C58.3 20.9 61.8 21.3 64 23.9 z M61.8 23.5 C59.8 21 56.5 20.7 54.1 18.9 C51.3 16.8 50.8 14.2 49.2 11.3 C45.6 4.6 40.5 1.9 33.5 1.9 C27.4 1.9 22.3 3.7 18.7 9.6 C17.2 12 16.5 15.4 14.5 17.5 C12.6 19.6 9.6 19.9 7.4 21.5 C3.7 24.1 1.2 30.2 2.9 34.7 C4.2 38.3 10.2 40.6 13.8 41.9 C25.1 46 39.9 45.9 51.3 42.4 C54.5 41.5 57.7 40.1 60.4 38.3 C63.4 36.2 64.3 35.1 64.3 31.6 C64.2 28.9 63.7 25.6 61.8 23.5 z" opacity="0.15" id="s1" /><g transform="translate(19, 14)" id="t1" fill="#282421"><path d="M7 2.2 C6.3 1.8 5.3 2.4 5.2 3.3 C5.2 4.1 6.8 4.9 7.6 4.5 C8.3 4.1 7.8 2.9 7.2 2.4" id="u1" /><path d="M2.1 0.7 C1.4 0.3 0.4 0.9 0.3 1.8 C0.3 2.6 1.3 3.7 2.1 3.3 C2.9 2.9 2.9 1.3 2.3 0.8" id="v1" /><path d="M2.1 7.4 C1.4 7 0.4 7.6 0.3 8.5 C0.3 9.3 1.4 10.2 2.1 9.9 C2.8 9.5 2.9 8.1 2.2 7.6" id="w1" /><path d="M22 2.2 C22.7 1.8 23.7 2.4 23.8 3.3 C23.8 4.1 22.2 4.9 21.4 4.5 C20.7 4.1 21.2 2.9 21.8 2.4" id="x1" /><path d="M26.9 0.7 C27.6 0.3 28.6 0.9 28.7 1.8 C28.7 2.6 27.7 3.7 26.9 3.3 C26.2 2.9 26.1 1.3 26.7 0.8" id="y1" /><path d="M26.9 7.4 C27.6 7 28.6 7.6 28.7 8.5 C28.7 9.3 27.6 10.2 26.9 9.9 C26.2 9.5 26.1 8.1 26.8 7.6" id="z1" /></g></g></g><g transform="translate(168.3, 171.2999) scale(1.5) translate(-168.3, -171.2999) translate(97.00001, 63.09995) translate(65, 102)" id="a2"><path d="M3.7 6.8 C3.2 7 2.7 7.2 2.1 7.5 C1.3 7.8 0.3 8.3 -0.8 9 C-0.2 10.8 2.2 11.7 6.4 11.6 C10.6 11.5 12.9 10.7 13.4 9 C11.9 8.2 10.8 7.6 10 7.3 C9.6 7.2 9.4 7.1 9.2 7 C9.6 7 9.7 7 9.5 7 C8.6 7 7.1 5.3 7.1 3.7 C7.1 2.1 5.6 2.2 5.5 3.7 C5.6 4.7 5 5.7 3.7 6.8 z" id="b2" /></g><g transform="translate(104.6, 64.99995) translate(53, 75)" id="c2"><g id="d2"><path d="M0.8 8.1 C0.8 4.5 0.5 3.4 3 2.3 C5.5 1.2 7.8 1 10.7 1 C13.6 1 18.5 0.8 19.9 3.1 C21.3 5.4 20.8 7 20.8 9.2 C20.8 11.4 18 11.5 16.7 12.8 C15.3 14.2 15.2 15.1 13.4 15.2 C11.4 15.3 9.4 15.4 8.1 15.2 C7 15.1 5.5 13.7 4.8 12.8 C3.1 10.8 0.8 11.7 0.8 8.1 z" id="e2" /><path d="M15 6.7 C12 5.3 11.4 4.3 11.4 3.5 C11.4 2.7 13.2 2 15.4 2 C17.6 2 19 3.1 19.4 4.4 C19.5 4.8 19.9 6.3 19.4 6.7 C18.7 7.2 16.6 7.4 15 6.7 z" id="f2" fill="#FFF" /></g></g><g transform="translate(109.6, 70.09995) translate(29, 47)" id="g2"><g id="h2"><path d="M20.9 2.3 C20 7.6 17.7 8.3 13 7.6 C11.6 7.4 16.5 10.1 19.3 14.3 C21.1 17.1 21.2 21.6 20.9 22.3 C18.8 26 18 25.7 13.5 26.3 C11.3 26.6 9.3 26.5 7 26.5 C4.7 26.5 2.5 30 1.3 28.8 C0.1 27.6 0.1 21.2 0.1 19.5 C0.1 17.4 0.9 8.4 3.5 5.3 C5.6 2.7 21.8 -3 20.9 2.3 z" fill-opacity="0.22" id="i2" fill="#FEFEFE" /><path d="M18.3 19.7 C16.7 16.5 16.9 13 14.2 11.4 C11.5 9.8 8.3 9.3 5.4 11.4 C2.5 13.5 2.9 15.1 3 16.5 C3.1 17.9 4.8 20.8 7.5 21.9 C10.2 23 19.8 22.8 18.3 19.7 z" id="j2" fill="#000001" /><g transform="translate(5, 11)" id="k2" fill="#FFFFFE"><path d="M2.8 5 C3.3 5 3.4 4 3.8 3.7 C4.3 3.3 5.3 3.7 5.3 3 C5.3 1.8 4.4 1.2 3.2 1 C1.8 0.8 0.6 1.4 1 3.2 C1.3 4.4 1.6 5 2.8 5 z" id="l2" /><circle cx="1" cy="6" r="1" id="m2" /></g></g></g><g transform="translate(99.8, 70.09995) translate(77, 47)" id="n2"><g id="o2"><path d="M0.9 4 C-0.5 11.1 4.1 8.3 8.8 7.5 C10.2 7.3 5.3 10 2.5 14.2 C0.7 17 0.6 21.5 0.9 22.2 C3 25.9 5.1 25.6 10.6 26.7 C12.8 27.1 19.4 31.1 20.2 27.7 C20.6 26.1 21 22.2 21 19.6 C21 17.5 20.4 8.1 17.8 5 C15.6 2.3 2.3 -3.1 0.9 4 z" fill-opacity="0.22" id="p2" fill="#FEFEFE" /><path d="M4 19.7 C5.6 16.5 5.4 13 8.1 11.4 C10.8 9.8 14 9.3 16.9 11.4 C19.8 13.5 19.3 15.1 19.2 16.5 C19.1 17.9 17.4 20.8 14.7 21.9 C12 23 2.5 22.8 4 19.7 z" id="q2" fill="#000001" /><g transform="translate(7, 12)" id="r2" fill="#FFFFFE"><path d="M2.8 4 C3.3 4 3.4 3 3.8 2.7 C4.3 2.3 5.3 2.7 5.3 2 C5.3 0.8 4.4 0 3.2 0 C2 0 1 1 1 2.2 C1 3.4 1.6 4 2.8 4 z" id="s2" /><circle cx="1" cy="5" r="1" id="t2" /></g></g></g></g></g></g><g id="u2"><g transform="matrix(1, 0, 0, 1, 0, -0.02001953)"><g transform="translate(153.406, 186.547) scale(0.993144, 1.002674)"><g transform="translate(499, 70) translate(-2765.4, -246.6)" id="v2"><path d="M2291.6 182.5 C2292.1 177.2 2285.4 178.8 2282.1 179.1 C2279.7 179.2 2277.5 179 2275.3 178.9 C2273.6 178.8 2271.3 178.4 2269.9 179.7 C2268.5 180.9 2269.1 183.4 2269.4 184.9 C2269.9 186.9 2270.7 188.8 2271.6 190.6 C2272.3 191.9 2273 193.1 2273.8 194.3 C2274 194.5 2274.5 194.9 2274.4 195.4 C2273.5 203.7 2272.6 212 2271.7 220.3 C2271.3 223.7 2271 227.3 2270.6 230.7 C2270.5 231.8 2270.4 232.8 2270.2 233.9 C2270.2 234 2270 234.8 2270.1 235 C2273.5 239.6 2276.8 244.2 2280.2 248.8 C2282.6 245.6 2284.9 242.3 2287.3 239.1 C2288.2 237.8 2289.2 236.5 2290.2 235.1 C2290.4 234.7 2290.3 234 2290.2 233.6 C2289.3 224.3 2288.3 215.1 2287.4 205.9 C2287 202.5 2286.7 199.2 2286.3 195.8 C2286.2 194.7 2287 194 2287.6 193.1 C2289.5 189.7 2291.5 186.2 2291.6 182.5 C2291.7 181.1 2291.4 187.7 2291.6 182.5 z" id="w2" fill="#FFCF4D" /><path d="M2280.3 195.5 C2279.6 195.5 2277.6 195 2277.6 195.6 C2277.5 196.5 2277.4 197.4 2277.2 198.3 C2277 200.3 2276.6 202.3 2276.5 204.3 C2276.3 206.9 2275.7 211.1 2278.5 212.6 C2279.8 213.2 2281.2 212.1 2282 211.2 C2283.3 209.8 2283.5 208.1 2283.5 206.2 C2283.4 204 2283 201.8 2282.6 199.7 C2282.4 198.8 2282.1 197.7 2282 196.8 C2281.9 196.4 2281.9 196.1 2281.8 195.7 C2281.7 195.2 2280.8 195.5 2280.3 195.5 z" fill-opacity="0.54" id="x2" fill="#CE8A1D" /><path d="M2278.8 198 C2280.6 198.4 2282.3 198 2283.9 197.3 C2284.7 196.9 2285.3 196.5 2286 196 C2286 195.9 2285.9 195.1 2285.9 195.1 C2284.2 194.5 2282.5 193.9 2280.8 193.4 C2280.3 193.3 2279.9 193.6 2279.4 193.8 C2278.3 194.2 2277.3 194.5 2276.1 194.9 C2275.3 195.1 2274.9 195 2274.8 195.8 C2274.6 197 2277.6 197.7 2278.8 198 C2280.8 198.3 2277.2 197.7 2278.8 198 z" fill-opacity="0.54" id="y2" fill="#CE8A1D" /><path d="M2290.7 234.5 L2289.5 222.7 C2282.9 226.5 2276.2 230.4 2269.6 234.1 C2271.1 236.2 2272.5 238.3 2274.1 240.5 C2274.7 241.3 2275.3 242.3 2276 243.1 C2276.1 243.2 2277.2 242.5 2277.3 242.4 C2281.7 239.7 2286.2 237.1 2290.7 234.5 z" id="z2" fill="#282421" /><path d="M2271 225.6 C2276.2 222.5 2281.4 219.5 2286.7 216.4 C2287.4 216 2288.1 215.6 2288.7 215.2 C2288.9 215.1 2288.5 212.7 2288.5 212.5 C2288.1 209.4 2287.8 206.4 2287.6 203.3 C2282.6 206.1 2277.8 209.1 2272.9 211.9 C2272.4 212.3 2272.3 212.1 2272.2 212.7 C2272.1 214.1 2272 215.6 2271.8 217.1 C2271.5 219.9 2271.2 222.7 2271 225.6 z" id="a3" fill="#282421" /><path d="M2279.8 212.8 C2281 212.7 2282 211.4 2282.6 210.6 C2283.7 209.2 2283.7 207.2 2283.5 205.5 L2276.4 209.6 C2277.4 212.4 2278.8 213 2279.8 212.8 z" id="b3" /><path d="M2285.8 195.4 C2286 194.5 2281.9 193.6 2281.2 193.4 C2279.8 192.9 2278 194 2276.6 194.5 C2275.8 194.7 2274.8 195.1 2274 195.3 C2273.8 195.4 2273.8 196.6 2273.8 196.8 C2273.7 198.7 2273.4 200.7 2273.3 202.6 L2285.8 195.4 z" id="c3" fill="#282421" /><path d="M2280.3 179.5 C2277.4 179.5 2273.7 178.2 2270.9 179.3 C2267.8 180.5 2269.5 185.1 2270.4 187.2 C2271.5 189.8 2272.9 192.3 2274.5 194.6 C2274.9 195.1 2275.4 195 2276 195.1 C2277.4 195.3 2278.8 195.5 2280.2 195.5 C2281.6 195.5 2283 195.3 2284.4 195.1 C2285 195 2285.6 195.1 2285.9 194.6 C2287.6 192.2 2289 189.8 2290 187.2 C2290.8 185.1 2292.5 180.5 2289.5 179.3 C2286.9 178.2 2283.3 179.5 2280.3 179.5 z" id="d3" fill="#FFCF4D" /><path d="M2280.3 178.6 C2277.5 178.6 2270 176.7 2268.7 180.5 C2268.3 181.6 2268.5 182.9 2268.8 183.9 C2269.2 185.2 2269.6 187.7 2271 188 C2274.1 188.7 2277.4 188.7 2280.4 188.5 C2283.7 188.3 2287 187.8 2290.1 186.7 C2290.9 186.5 2291 186.3 2291.3 185.5 C2291.4 184.9 2291.7 184.2 2291.8 183.6 C2292 182.4 2292.3 181.2 2291.8 180.1 C2291.1 178.3 2289 178.2 2287.4 178.2 C2285 178.2 2282.7 178.6 2280.3 178.6 z" id="e3" fill="#282421" /><path d="M2287.5 179 C2295.6 179 2288.3 191.1 2286.2 194.3 C2285.7 195 2285.8 195.1 2285.8 196 C2285.9 197.5 2286.2 199.1 2286.3 200.5 C2287.4 210.3 2288.4 220.1 2289.5 230 C2289.6 231.4 2289.9 232.8 2290 234.2 C2290.1 235 2289.2 235.9 2288.7 236.6 C2285.9 240.5 2283.2 244.3 2280.3 248.2 C2277.9 244.9 2275.6 241.7 2273.1 238.4 C2272.3 237.2 2271.3 235.9 2270.5 234.7 C2270.1 234.5 2270.5 233 2270.6 232.8 C2271.7 223.4 2272.6 213.8 2273.7 204.4 C2273.9 201.9 2274.2 199.6 2274.5 197.1 C2274.5 196.7 2274.6 196.4 2274.6 196 C2274.7 194.6 2274.1 194.2 2273.4 193.1 C2272.1 191 2270.8 188.7 2270 186.4 C2269.4 184.6 2268.2 181.2 2270.1 179.7 C2272 178.2 2275.6 179.2 2277.8 179.3 C2281 179.5 2284.2 179 2287.5 179 z M2287.5 176.6 C2285.1 176.6 2282.7 177.1 2280.3 177.1 C2277.8 177.1 2275.2 176.6 2272.8 176.6 C2268.1 176.7 2266.4 180.3 2267.3 184.5 C2268 188.2 2270 191.7 2272 194.8 C2272.6 195.6 2272.5 196.1 2272.4 197 C2271.3 206.3 2270.4 215.6 2269.5 224.9 C2269.1 228 2268.8 231 2268.6 234.2 C2268.5 235.5 2269.2 236.3 2269.9 237.3 C2271.3 239.2 2272.7 241.2 2274.1 243.1 C2275.4 245 2276.8 246.8 2278.1 248.6 C2279.2 250 2281 251.4 2282.6 249.4 C2285.1 246 2287.7 242.4 2290.1 239 C2290.9 237.9 2292.2 236.6 2292.6 235.2 C2292.8 234.4 2292.6 233.4 2292.5 232.6 C2292 228.5 2291.6 224.2 2291.1 220.1 C2290.3 211.8 2289.4 203.6 2288.5 195.5 C2288.4 194.9 2289.8 193.4 2290.2 192.9 C2291.4 190.9 2292.6 188.7 2293.3 186.4 C2294 184.2 2294.6 181.4 2293.4 179.3 C2292.1 177.2 2289.7 176.6 2287.5 176.6 z" id="f3" /></g></g></g></g></g><defs><g transform="translate(17.09519, 0.800995) translate(-135.2952, -293.601)" id="g3" fill="#000"><path d="M118.2 302.7 C118.4 307.4 132.5 311.2 149.8 311.2 C167.1 311.2 181.2 307.4 181.4 302.7 C181.4 307.5 181.4 310.1 181.4 310.5 C181.4 315.3 167.3 319.1 149.8 319.1 C132.3 319.1 118.2 315.2 118.2 310.5 L118.2 302.7 L118.2 302.7 z" fill-opacity="0.4528" id="h3" fill="#593001" /><path d="M118.7 301.7 C118.9 306.4 133 310.2 150.3 310.2 C167.6 310.2 181.7 306.4 181.9 301.7 C181.9 306.5 181.9 309.1 181.9 309.5 C181.9 314.3 167.8 318.1 150.3 318.1 C132.8 318.1 118.7 314.2 118.7 309.5 L118.7 301.7 L118.7 301.7 z" id="i3" fill="#DA8113" /><linearGradient x1="46.0545" y1="-118.6926" x2="45.4656" y2="-118.6926" gradientUnits="userSpaceOnUse" gradientTransform="matrix(117.135, 0, 0, 28.4634, -5208.417, 3687.795)" id="j3"><stop offset="0%" stop-color="#D9952A" stop-opacity="1" /><stop offset="6.438854%" stop-color="#CA7519" stop-opacity="1" /><stop offset="30.54%" stop-color="#E3AD3A" stop-opacity="1" /><stop offset="51.05%" stop-color="#FFEC91" stop-opacity="1" /><stop offset="68.8%" stop-color="#E9BD44" stop-opacity="1" /><stop offset="86.24%" stop-color="#FFED6C" stop-opacity="1" /><stop offset="93.87%" stop-color="#F2D353" stop-opacity="1" /><stop offset="100%" stop-color="#F2B947" stop-opacity="1" /></linearGradient><path d="M118.2 301.6 C118.4 306.1 132.7 309.7 150.3 309.7 C167.9 309.7 182.2 306.1 182.4 301.6 C182.4 306.2 182.4 308.7 182.4 309 C182.4 313.5 168 317.2 150.3 317.2 C132.6 317.2 118.2 313.5 118.2 309 L118.2 301.6 L118.2 301.6 z" id="k3" style="fill:url(#j3)" /><linearGradient x1="45.4914" y1="-117.9547" x2="45.9407" y2="-117.5895" gradientUnits="userSpaceOnUse" gradientTransform="matrix(115.425, 0, 0, 29.925, -5125.077, 3826.124)" id="l3"><stop offset="0%" stop-color="#F4E072" stop-opacity="1" /><stop offset="100%" stop-color="#DB9427" stop-opacity="1" /></linearGradient><ellipse cx="150.3" cy="301.5" rx="31.6" ry="8.2" id="m3" style="fill:url(#l3)" /><linearGradient x1="45.4656" y1="-126.0065" x2="46.0545" y2="-126.0065" gradientUnits="userSpaceOnUse" gradientTransform="matrix(117.135, 0, 0, 18.6219, -5208.417, 2651.479)" id="n3"><stop offset="0%" stop-color="#D9952A" stop-opacity="1" /><stop offset="6.438854%" stop-color="#CA7519" stop-opacity="1" /><stop offset="30.54%" stop-color="#E3AD3A" stop-opacity="1" /><stop offset="51.05%" stop-color="#FFEC91" stop-opacity="1" /><stop offset="68.8%" stop-color="#E9BD44" stop-opacity="1" /><stop offset="86.24%" stop-color="#FFED6C" stop-opacity="1" /><stop offset="93.87%" stop-color="#F2D353" stop-opacity="1" /><stop offset="100%" stop-color="#F2B947" stop-opacity="1" /></linearGradient><path d="M119.2 299.9 C119 300.2 118.9 300.6 118.9 301 C118.9 305.5 132.9 309.2 150.3 309.2 C167.7 309.2 181.7 305.5 181.7 301 C181.7 300.6 181.6 300.3 181.4 299.9 C182 300.5 182.4 301.2 182.4 301.9 C182.4 306.4 168 310.1 150.3 310.1 C132.6 310.1 118.2 306.4 118.2 301.9 C118.2 301.3 118.6 300.6 119.2 299.9 z" id="o3" style="fill:url(#n3)" /><linearGradient x1="45.196" y1="-121.5895" x2="45.3746" y2="-120.6758" gradientUnits="userSpaceOnUse" gradientTransform="matrix(101.745, 0, 0, 23.94, -4458.332, 3199.41)" id="p3"><stop offset="0%" stop-color="#F8DD61" stop-opacity="1" /><stop offset="100%" stop-color="#EAA330" stop-opacity="1" /></linearGradient><ellipse cx="150.3" cy="300.8" rx="27.8" ry="6.6" id="q3" style="fill:url(#p3)" /><linearGradient x1="45.5694" y1="-134.267" x2="45.0221" y2="-134.267" gradientUnits="userSpaceOnUse" gradientTransform="matrix(101.745, 0, 0, 13.2525, -4458.332, 2077.223)" id="r3"><stop offset="0%" stop-color="#F4CA2F" stop-opacity="1" /><stop offset="51.38%" stop-color="#BF7737" stop-opacity="1" /><stop offset="100%" stop-color="#E4A929" stop-opacity="1" /></linearGradient><path d="M122.6 301.5 C122.5 301.3 122.4 301 122.4 300.8 C122.4 297.2 134.9 294.2 150.2 294.2 C165.5 294.2 178 297.1 178 300.8 C178 301 177.9 301.3 177.8 301.5 C176.3 298.2 164.5 295.6 150.1 295.6 C135.7 295.6 124.1 298.2 122.6 301.5 z" id="s3" style="fill:url(#r3)" /></g></defs><desc>L7A97FH799C,gCDdsCGhRE8pKojjWVwz9pfhgm+lkre4Ex54nd7hmbAWptFIfg+LC2E2lyu1o0YaeREo2tEbqFfFmJSqWZsvVhspfpOPAsgiQGho1PNfmrpd9Q4GqAAUiVhypaa3GnT4QAT+RscoU40/jIdw4pNkEeec4V1EoepVmeZJRhVF6AzJafYe07dC+V0TpWH+ugX4KSrtD3ijuoEbUJglCe7+ocJuj2HCEZ/9s4kRhuBmb6Q=</desc></svg>