<?xml version="1.0" encoding="utf-8"?><!DOCTYPE svg PUBLIC "-//W3C//DTD SVG 1.1//EN" "http://www.w3.org/Graphics/SVG/1.1/DTD/svg11.dtd"><svg x="0" y="0" width="340px" height="340px" viewBox="0, 0, 340, 340" preserveAspectRatio="xMidYMid" font-size="0" id="a" enable-background="new 0 0 340 340" xmlns="http://www.w3.org/2000/svg" xmlns:xlink="http://www.w3.org/1999/xlink" xmlns:xml="http://www.w3.org/XML/1998/namespace" version="1.1"><g id="b" fill="#000"><g id="c"><g transform="translate(0, 0) translate(0, 224)" id="d"><ellipse cx="168.6" cy="53.1" rx="57.8" ry="12.8" fill-opacity="0.25" id="e" /></g><g id="f"><g transform="translate(118.1, 108.7) translate(13, 118.5) scale(-1, 1) translate(-13, -118.5) translate(0, 96)" id="g"><g id="h"><path d="M20.6 11.4 C22.5 12.3 22.3 15.9 21.6 17.9 C18.7 25.8 15.6 34.5 11.6 40.9 C10.5 42.7 7.1 47 2.8 43.1 C-1.5 39.2 3 33.1 4.4 30.2 C7.5 23.6 11.9 19.3 15.9 12.9 C16.7 11.5 17.9 10.2 20.6 11.4 z" id="i" fill="#232628" /><path d="M18.7 8.1 C20.6 4.4 22.5 -0.3 25.2 1 C27.1 1.9 25 9.2 23.9 12.2 C23.1 14.1 22.4 16.2 21.6 18.3 C20 15 18.2 12.9 16 13.1 C16.7 11.5 17.7 9.9 18.7 8.1 z" id="j" fill="#D8D8D8" /><path d="M21.5 18.1 C18.6 26 15.6 34.6 11.6 40.9 C10.5 42.7 7.1 47 2.8 43.1 C-1.5 39.2 3 33.1 4.4 30.2 C7.5 23.6 11.9 19.3 15.9 12.9 C16.1 12.6 16.3 12.2 16.5 12 C17.2 10.7 17.9 9.5 18.7 8.1 C20.6 4.4 22.5 -0.3 25.2 1 C27.1 1.9 25 9.2 23.9 12.2 C23.1 14.1 22.4 16.2 21.6 18.3 C21.6 18.2 21.5 18.2 21.5 18.1 z M19.6 19.2 C21.2 16.5 22.2 14.6 22.6 13.5 C23.6 10.8 25.8 4.9 24.5 2.5 C22.8 -0.6 20.5 6.5 18.9 9.8 C18.2 11 17.4 12.4 16.9 13.5 C16.7 13.7 14.9 16.5 14.7 16.8 C11.2 22.4 8.2 23.5 5.5 29.3 C4.3 31.8 0.3 37.2 4.1 40.6 C7.9 44.1 8.8 39.4 9.8 37.8 C13.2 32.3 17.1 26.1 19.6 19.2 z" opacity="0.15" id="k" /></g></g><g transform="translate(123.6, 274.8) scale(1.227743) translate(-123.6, -274.8) translate(102.4, 77.99997) translate(14, 151)" id="l"><path d="M21.4 0.7 C15.4 0.7 10.5 1.3 7.1 4.6 C3.7 7.9 0 10.4 0.4 18.5 C0.8 26.6 3.2 33.9 10.9 36.8 C6.8 39 6.4 40.4 6.8 43.2 C7.1 45.9 6.5 46.6 14 45.9 C19 45.5 23.5 45.2 27.5 45.2 C29.2 42.4 29.8 38.9 29.3 34.7 C30.6 32.1 35 17.8 32.3 12 C29.6 6.2 27.4 0.7 21.4 0.7 z" id="m" fill="#32363A" /><path d="M21.4 0.7 C27.4 0.7 29.6 6.2 32.3 12 C35 17.8 30.6 32.1 29.3 34.7 C29.8 38.9 29.2 42.4 27.5 45.2 C23.5 45.2 19 45.5 14 45.9 C6.5 46.6 7.1 45.9 6.8 43.2 C6.4 40.4 6.8 39 10.9 36.8 C3.2 33.9 0.8 26.6 0.4 18.5 C0 10.4 3.7 7.9 7.1 4.6 C10.5 1.3 15.4 0.7 21.4 0.7 z M21.1 1.4 C15.5 1.4 11 1.9 7.8 5 C4.6 8 1.2 10.3 1.6 17.9 C2 25.4 6 34.1 13.2 36.8 C9.4 38.9 7.8 38.9 8.2 41.5 C8.4 44 7.2 43.9 14.2 43.3 C18.8 42.9 23 42.6 26.7 42.6 C28.3 40 28.9 36.8 28.4 32.9 C29.6 30.5 33.7 17.2 31.2 11.8 C28.7 6.5 26.6 1.4 21.1 1.4 z" opacity="0.15" id="n" /></g><g transform="translate(215, 274.8) scale(1.227743) translate(-215, -274.8) translate(107.6, 78.39996) translate(98, 175.5) scale(-1, 1) translate(-98, -175.5) translate(81, 151)" id="o"><path d="M22.1 0.7 C16.1 0.7 11.2 1.3 7.8 4.6 C4.4 7.9 0.6 10.4 1 18.5 C1.4 26.6 3.8 33.9 11.5 36.8 C7.4 39 7 40.4 7.4 43.2 C7.8 46 7.1 46.6 14.6 45.9 C19.6 45.5 24.1 45.2 28.1 45.2 C29.8 42.4 30.4 38.9 29.9 34.7 C31.2 32.1 35.6 17.8 32.9 12 C30.2 6.2 28 0.7 22.1 0.7 z" id="p" fill="#32363A" /><path d="M22.1 0.7 C28 0.7 30.2 6.2 32.9 12 C35.6 17.8 31.2 32.1 29.9 34.7 C30.4 38.9 29.8 42.4 28.1 45.2 C24.1 45.2 19.6 45.5 14.6 45.9 C7.1 46.6 7.8 46 7.4 43.2 C7 40.4 7.4 39 11.5 36.8 C3.8 33.9 1.4 26.6 1 18.5 C0.6 10.4 4.4 7.9 7.8 4.6 C11.2 1.3 16.1 0.7 22.1 0.7 z M21.8 1.1 C16.2 1.1 11.6 1.7 8.4 4.8 C5.2 7.9 1.6 10.2 2 17.8 C2.4 25.4 6.9 33.7 14.1 36.5 C10.3 38.5 8 38.9 8.4 41.5 C8.8 44.1 7.7 44.2 14.8 43.5 C19.5 43.1 23.7 42.9 27.4 42.9 C29 40.2 29.6 36.9 29.1 33 C30.3 30.6 34.5 17.1 31.9 11.7 C29.4 6.3 27.3 1.1 21.8 1.1 z" opacity="0.15" id="q" /></g><g transform="translate(-285.9, 63.59998) translate(26, 89)" id="r"><path d="M397 32.1 C391 38.3 389.6 53.9 391.7 73.6 C393.8 93.4 398.5 110.6 404.4 118.6 C410.3 126.6 419.1 128.3 429.1 128.3 C439.1 128.3 444.7 128.5 451.9 120.5 C459 112.6 463.7 84.2 465.1 74.4 C466.5 64.7 469.4 41 460.1 32.9 C455.5 28.8 444.8 7 431.3 6.5 C417.8 6 403 26 397 32.1 z" id="s" fill="#32363A" /><path d="M397 32.1 C391 38.3 389.6 53.9 391.7 73.6 C392.6 81.9 396.1 90.6 397.8 97.5 C400.1 107.1 401 114.1 404.4 118.7 C410.3 126.7 419.1 128.4 429.1 128.4 C439.1 128.4 444.7 128.6 451.9 120.6 C459 112.7 463.7 84.3 465.1 74.5 C466.5 64.8 469.4 41.1 460.1 33 C455.5 28.9 444.8 7.3 431.3 6.8 C417.8 6.2 403 26 397 32.1 z" id="t" fill="#32363A" /><path d="M397 32.1 C403 26 417.8 6.2 431.1 6.6 C444.7 7.1 455.4 28.8 459.9 32.8 C469.2 40.9 466.3 64.6 464.9 74.3 C463.5 84.1 458.8 112.5 451.7 120.4 C444.5 128.4 438.9 128.2 428.9 128.2 C418.9 128.2 410.1 126.5 404.2 118.5 C398.3 110.5 393.6 93.2 391.5 73.5 C389.6 53.9 391 38.3 397 32.1 z M398.3 32.4 C392.5 38.4 391.2 53.3 393.2 72.3 C395.2 91.4 399.7 107.8 405.4 115.5 C411.1 123.2 419.5 124.8 429.1 124.8 C438.7 124.8 444.1 125 451 117.3 C457.8 109.7 462.3 82.4 463.7 73 C465 63.7 467.8 40.9 458.9 33.1 C454.3 29.2 444.1 8.5 431 8 C418.2 7.5 404 26.5 398.3 32.4 z" opacity="0.15" id="u" /></g><g transform="translate(125.8705, 203.35) scale(0.9756425, 0.8187372) translate(-124.8, -189.2) translate(91.40002, 75.99997) translate(33, 114)" id="v"><g id="w"><path d="M4.6 1.3 C4 6.3 3.4 9.9 3.1 13 C3 14 1.8 19.3 1.6 20.1 C2.3 19.5 2.7 19.7 3.1 19.2 C3.4 18.7 2.6 21.3 2.5 22.5 C2.4 23.5 1.5 25 1.1 26.8 C0.4 29.9 1.2 35.5 1.7 36.8 C2.8 34.7 3.6 31.3 4.4 31.5 C4.6 32.5 4 34.1 3.9 36.9 C3.9 38.2 3.8 43.8 4.2 44.4 C5.5 42.9 6.2 39.4 6.5 40.9 C6.6 41.5 6.4 43.5 6.3 46.2 C6.2 48.6 6.6 51.9 6.8 52.3 C7.7 49.8 7.5 50.3 7.5 51.3 C7.5 52.1 7.9 53.2 7.9 54.1 C7.9 56.4 7.5 62.7 8.4 60.4 C9.3 58.1 9.4 59.5 10.1 58.1 C9.1 61.4 9.4 63.3 9.5 64.7 C11.1 61.9 10.6 67 10.9 68.6 C11.2 69.9 12.4 69.6 12.2 71.3 C11.8 74.8 13.7 78.2 13.9 81.7 C14 83.4 9.6 83.2 6.9 88.2 C6.4 89.1 5.1 91.9 5.3 93.7 C5.4 95.3 6.7 94.5 9.3 94.7 C9.8 94.7 9.4 96.2 11 96.2 C12.2 96 11.7 95.8 14.4 95.6 C15.2 95.5 16.4 97.2 17.4 97.1 C21.6 96.7 27.1 94.6 30 93.7 C31.2 93.4 31.5 90.3 30.8 84.5 C32 82.8 32 81.1 30.8 79.6 C29.2 76.5 31.2 75.9 31.1 74.7 C30.5 69.9 28.6 66.7 28.5 65.1 C28.3 61.5 31 68.4 30.8 66.8 C30.4 62.5 29.2 59.5 29.2 57.6 C29 52.9 28.4 52.7 30 55.2 C30.1 54.6 30.2 51.9 29.5 49.6 C28.8 47.2 27.2 45.1 27.3 44.4 C27.4 44.6 28.6 44.7 29.5 45.8 C30.2 46.6 30.7 48.4 30.8 48.9 C31.7 47.1 32.1 45.5 31.6 41.5 C31.5 41.1 31 39.5 30.4 38.6 C29.8 37.6 29 37.3 28.9 36.9 C28.7 36.2 29.3 36.8 30.8 37.7 C30.3 36.3 30.1 34.6 28.9 32.6 C28 31 24.8 27.3 23.1 26.9 C23.6 26.6 25.5 26.3 27.7 28.2 C27.9 27.3 27.2 25.7 26.2 24.7 C24.1 22.8 21.2 21.5 20.8 20.8 C20.1 19.5 20.6 20.1 23.1 20.8 C21.8 17.1 19.3 17.1 18.6 15.6 C18 14.3 16.4 13.5 14.3 12.4 C15.3 12.5 14.5 11.6 16.7 12.4 C16.2 10.8 12.8 6.8 11.5 5.5 C10 4 4.8 -0.8 4.6 1.3 z" id="x" fill="#FEFEFE" /><path d="M14.9 12.3 C13.8 10.9 12.6 9.5 11.9 8.8 C10.5 7.4 5.7 3 5.5 4.9 C4.9 9.5 4.4 12.9 4.1 15.7 C4 16.6 2.9 21.5 2.7 22.3 C3.3 21.7 3.7 21.9 4.1 21.5 C4.4 21 3.6 23.4 3.5 24.6 C3.4 25.5 2.6 26.9 2.2 28.6 C1.6 31.3 1.6 32 2 33.2 C3 31.3 4.1 28.3 4.9 28.5 C5.1 29.4 4.9 35.2 4.8 37.8 C4.8 39 4.4 39.9 4.8 40.4 C6 39.1 7.7 35.7 8 37.1 C8.1 37.7 7.1 43.9 7.1 46.4 C7 48.6 7.5 48.3 7.6 48.7 C8.4 46.4 9.7 47.2 9.7 48.1 C9.7 48.8 9.4 52.6 9.4 53.5 C9.4 55.6 8.5 59.4 9.3 57.3 C10.1 55.2 11.5 57.5 12.1 56.2 C11.2 59.3 10.7 61.1 10.8 62.4 C12.3 59.8 12.2 65.4 12.5 66.9 C12.8 68.1 13.6 68.9 13.4 70.5 C13 73.7 15.1 79.8 15.2 83 C15.3 84.6 12.9 84.1 10.1 86.3 C9.6 87.1 7.4 89.7 7.6 91.4 C7.7 92.9 7.7 91.7 10.1 91.9 C10.6 91.9 10.5 93.2 12 93.2 C13.1 93 12.8 93 15.3 92.8 C16 92.7 16.5 93.7 17.5 93.6 C21.4 93.2 24.6 92.4 27.3 91.6 C28.4 91.3 30 89.7 29.3 84.3 C30.4 82.7 30.3 77.9 29.2 76.6 C27.7 73.7 29.3 72.8 29.2 71.7 C28.6 67.3 27.9 65.6 27.8 64.1 C27.6 60.8 30.1 65.2 29.9 63.7 C29.5 59.7 28.4 58.9 28.4 57.1 C28.2 52.8 28 51.3 29.5 53.6 C29.6 53 29.3 51.8 28.7 49.7 C28.1 47.5 26.6 45.5 26.7 44.9 C26.8 45.1 26.5 41.6 27.4 42.6 C28 43.3 30.7 44.9 31.3 46.9 C31.2 44.5 31.4 45.9 31 42.2 C30.9 41.8 30.2 40.3 29.6 39.5 C29 38.6 27.5 37 27.4 36.6 C27.2 36 28.2 34.9 29.6 35.7 C29.1 34.4 28.5 34 27.4 32.1 C26.6 30.6 23.2 26.8 21.6 26.4 C22.1 26.1 24.5 24.7 26.5 26.5 C26.7 25.7 25 25.5 24.1 24.6 C22.2 22.8 21 23.7 20.7 23 C20.1 21.8 20.5 22.4 22.8 23 C22.7 22.6 22.5 22.2 22.3 21.9 C23.4 22.6 25.1 23.6 26.4 24.8 C27.4 25.8 28.1 27.4 27.9 28.3 C25.7 26.4 23.8 26.7 23.3 27 C25 27.4 28.2 31.1 29.1 32.7 C30.3 34.7 30.5 36.4 31 37.8 C29.5 36.9 28.9 36.3 29.1 37 C29.2 37.4 30 37.7 30.6 38.7 C31.2 39.6 31.7 41.2 31.8 41.6 C32.3 45.6 31.9 47.2 31 49 C30.9 48.5 30.4 46.7 29.7 45.9 C28.8 44.8 27.6 44.7 27.5 44.5 C27.4 45.2 29 47.3 29.7 49.7 C30.4 52 30.3 54.7 30.2 55.3 C28.6 52.8 29.2 53 29.4 57.7 C29.4 59.6 30.6 62.6 31 66.9 C31.2 68.5 28.5 61.6 28.7 65.2 C28.8 66.8 30.7 70 31.3 74.8 C31.4 76 29.4 76.6 31 79.7 C32.2 81.2 32.2 82.9 31 84.6 C31.7 90.4 31.4 93.5 30.2 93.8 C27.3 94.7 21.8 96.8 17.6 97.2 C16.6 97.3 15.4 95.6 14.6 95.7 C11.9 95.9 12.4 96.1 11.2 96.3 C9.6 96.3 10 94.8 9.5 94.8 C6.9 94.6 5.6 95.4 5.5 93.8 C5.3 92 6.6 89.2 7.1 88.3 C9.8 83.3 14.2 83.5 14.1 81.8 C13.9 78.3 12 74.9 12.4 71.4 C12.6 69.7 11.4 70 11.1 68.7 C10.8 67.1 11.3 62 9.7 64.8 C9.6 63.4 9.3 61.5 10.3 58.2 C9.6 59.6 9.5 58.2 8.6 60.5 C7.7 62.8 8.1 56.5 8.1 54.2 C8.1 53.3 7.7 52.2 7.7 51.4 C7.7 50.4 7.9 49.9 7 52.4 C6.8 52 6.4 48.7 6.5 46.3 C6.6 43.6 6.8 41.6 6.7 41 C6.4 39.5 5.7 43 4.4 44.5 C4 43.9 4.1 38.3 4.1 37 C4.2 34.2 4.8 32.6 4.6 31.6 C3.8 31.4 3 34.8 1.9 36.9 C1.4 35.6 0.6 30 1.3 26.9 C1.7 25.1 2.6 23.6 2.7 22.6 C2.8 21.4 3.6 18.8 3.3 19.3 C2.9 19.8 2.5 19.6 1.8 20.2 C1.8 19.3 3 14 3.1 13 C3.4 9.9 4 6.3 4.6 1.3 C4.8 -0.8 10 4 11.5 5.5 C12.8 6.8 16.2 10.8 16.7 12.4 C15.2 11.9 15.1 12.1 14.9 12.3 z M15.4 13 C16.9 13.8 18.1 14.6 18.6 15.6 C19.3 17.1 21.8 17.1 23.1 20.8 C21.8 20.4 21 20.1 20.7 20 C19.8 19.2 18.8 18.9 18.5 18.1 C17.9 16.9 16.5 16.2 14.5 15.1 C15.4 15.2 14.7 14.4 16.7 15.1 C16.5 14.6 16 13.8 15.4 13 z" opacity="0.15" id="y" /><path d="M83 1.7 C84.2 6.5 84.4 11.6 85.4 14.5 C85.7 15.3 86.9 19.3 87.1 20.1 C86.4 19.5 86 19.7 85.6 19.2 C85.3 18.7 86.1 21.3 86.2 22.5 C86.3 23.5 87.2 25 87.6 26.8 C88.3 29.9 87.5 35.5 87 36.8 C85.9 34.7 85.1 31.3 84.3 31.5 C84.1 32.5 84.7 34.1 84.8 36.9 C84.8 38.2 84.9 43.8 84.5 44.4 C83.2 42.9 82.5 39.4 82.2 40.9 C82.1 41.5 82.3 43.5 82.4 46.2 C82.5 48.6 82.1 51.9 81.9 52.3 C81 49.8 81.2 50.3 81.2 51.3 C81.2 52.1 80.8 53.2 80.8 54.1 C80.8 56.4 81.2 62.7 80.3 60.4 C79.4 58.1 79.3 59.5 78.6 58.1 C79.6 61.4 79.3 63.3 79.2 64.7 C77.6 61.9 78.1 67 77.8 68.6 C77.5 69.9 76.3 69.6 76.5 71.3 C76.9 74.8 75 78.2 74.8 81.7 C74.7 83.4 79.1 83.2 81.8 88.2 C82.3 89.1 83.6 91.9 83.4 93.7 C83.3 95.3 82 94.5 79.4 94.7 C78.9 94.7 79.3 96.2 77.7 96.2 C76.5 96 77 95.8 74.3 95.6 C73.5 95.5 72.3 97.2 71.3 97.1 C67.1 96.7 61.6 94.6 58.7 93.7 C57.5 93.4 57.2 90.3 57.9 84.5 C56.7 82.8 56.7 81.1 57.9 79.6 C59.5 76.5 57.5 75.9 57.6 74.7 C58.2 69.9 60.1 66.7 60.2 65.1 C60.4 61.5 57.7 68.4 57.9 66.8 C58.3 62.5 59.5 59.5 59.5 57.6 C59.7 52.9 60.3 52.7 58.7 55.2 C58.6 54.6 58.5 51.9 59.2 49.6 C59.9 47.2 61.5 45.1 61.4 44.4 C61.3 44.6 60.1 44.7 59.2 45.8 C58.5 46.6 58 48.4 57.9 48.9 C57 47.1 56.6 45.5 57.1 41.5 C57.2 41.1 57.7 39.5 58.3 38.6 C58.9 37.6 62.4 36.7 62.5 36.3 C62.7 35.6 60.7 34.1 59.2 35.1 C59.7 33.7 59.8 33.6 60.9 31.6 C61.8 30 65.1 27.3 66.8 26.9 C66.3 26.6 63.1 26.3 60.9 28.2 C60.7 27.3 61.4 25.7 62.4 24.7 C64.5 22.8 67.4 21.5 67.8 20.8 C68.5 19.5 68 20.1 65.5 20.8 C66.8 17.1 69.3 17.1 70 15.6 C70.6 14.3 72.2 13.5 74.3 12.4 C73.2 12.5 76.8 11.1 72.3 11 C73.3 9.7 76.5 7.4 77.7 6.9 C78.5 6.2 80.6 4.3 83 1.7 z" id="z" fill="#FEFEFE" /><path d="M73.9 12.3 C75 10.9 76.2 9.5 76.9 8.8 C78.3 7.4 83.1 3 83.3 4.9 C83.9 9.5 84.4 12.9 84.7 15.7 C84.8 16.6 85.9 21.5 86.1 22.3 C85.5 21.7 85.1 21.9 84.7 21.5 C84.4 21 85.2 23.4 85.3 24.6 C85.4 25.5 86.2 26.9 86.6 28.6 C87.2 31.5 87.3 32.1 86.8 33.3 C85.8 31.4 84.7 28.4 83.9 28.6 C83.7 29.5 83.9 35.3 84 37.9 C84 39.1 84.4 40 84 40.5 C82.8 39.1 81.1 35.8 80.8 37.2 C80.7 37.8 81.7 44 81.7 46.5 C81.8 48.7 81.3 48.4 81.2 48.8 C80.4 46.5 79.1 47.3 79.1 48.2 C79.1 48.9 79.4 52.7 79.4 53.6 C79.4 55.7 80.3 59.5 79.5 57.4 C78.7 55.3 77.3 57.6 76.7 56.3 C77.6 59.4 78.1 61.2 78 62.5 C76.5 59.9 76.6 65.5 76.3 67 C76 68.2 75.2 69 75.4 70.6 C75.8 73.8 73.7 79.9 73.6 83.1 C73.5 84.7 75.9 84.2 78.7 86.4 C79.2 87.2 81.4 89.8 81.2 91.5 C81.1 93 81.1 91.8 78.7 92 C78.2 92 78.3 93.3 76.8 93.3 C75.7 93.1 76 93.1 73.5 92.9 C72.8 92.8 72.3 93.8 71.3 93.7 C67.4 93.3 64.2 92.5 61.5 91.7 C60.4 91.4 58.8 89.8 59.5 84.4 C58.4 82.8 58.5 78 59.6 76.7 C61.1 73.8 59.5 72.9 59.6 71.8 C60.2 67.4 60.9 65.7 61 64.2 C61.2 60.9 58.7 65.3 58.9 63.8 C59.3 59.8 60.4 59 60.4 57.2 C60.6 52.9 60.8 51.4 59.3 53.7 C59.2 53.1 59.5 51.9 60.1 49.8 C60.7 47.6 62.2 45.6 62.1 45 C62 45.2 62.3 41.7 61.4 42.7 C60.8 43.4 58.1 45 57.5 47 C57.6 44.6 57.4 46 57.8 42.3 C57.9 41.9 58.6 40.4 59.2 39.6 C59.8 38.7 61.3 37.1 61.4 36.7 C61.6 36.1 60.6 35 59.2 35.8 C59.7 34.5 60.3 34.1 61.4 32.2 C62.2 30.7 65.6 26.9 67.2 26.5 C66.7 26.2 64.3 24.8 62.3 26.6 C62.1 25.8 63.8 25.6 64.7 24.7 C66.6 22.9 67.8 23.8 68.1 23.1 C68.7 21.9 68.3 22.5 66 23.1 C66.1 22.7 66.3 22.3 66.5 22 C65.4 22.7 63.7 23.7 62.4 24.9 C61.4 25.9 60.7 27.5 60.9 28.4 C63.1 26.5 65 26.8 65.5 27.1 C63.8 27.5 60.6 31.2 59.7 32.8 C58.5 34.8 58.3 36.5 57.8 37.9 C59.3 37 59.9 36.4 59.7 37.1 C59.6 37.5 58.8 37.8 58.2 38.8 C57.6 39.7 57.1 41.3 57 41.7 C56.5 45.7 56.9 47.3 57.8 49.1 C57.9 48.6 58.4 46.8 59.1 46 C60 44.9 61.2 44.8 61.3 44.6 C61.4 45.3 59.8 47.4 59.1 49.8 C58.4 52.1 58.5 54.8 58.6 55.4 C60.2 52.9 59.6 53.1 59.4 57.8 C59.4 59.7 58.2 62.7 57.8 67 C57.6 68.6 60.3 61.7 60.1 65.3 C60 66.9 58.1 70.1 57.5 74.9 C57.4 76.1 59.4 76.7 57.8 79.8 C56.6 81.3 56.6 83 57.8 84.7 C57.1 90.5 57.4 93.6 58.6 93.9 C61.5 94.8 67 96.9 71.2 97.3 C72.2 97.4 73.4 95.7 74.2 95.8 C76.9 96 76.4 96.2 77.6 96.4 C79.2 96.4 78.8 94.9 79.3 94.9 C81.9 94.7 83.2 95.5 83.3 93.9 C83.5 92.1 82.2 89.3 81.7 88.4 C79 83.4 74.6 83.6 74.7 81.9 C74.9 78.4 76.8 75 76.4 71.5 C76.2 69.8 77.4 70.1 77.7 68.8 C78 67.2 77.5 62.1 79.1 64.9 C79.2 63.5 79.5 61.6 78.5 58.3 C79.2 59.7 79.3 58.3 80.2 60.6 C81.1 62.9 80.7 56.6 80.7 54.3 C80.7 53.4 81.1 52.3 81.1 51.5 C81.1 50.5 80.9 50 81.8 52.5 C82 52.1 82.4 48.8 82.3 46.4 C82.2 43.7 82 41.7 82.1 41.1 C82.4 39.6 83.1 43.1 84.4 44.6 C84.8 44 84.7 38.4 84.7 37.1 C84.6 34.3 84 32.7 84.2 31.7 C85 31.5 85.8 34.9 86.9 37 C87.4 35.7 88.2 30.1 87.5 27 C87.1 25.2 86.2 23.7 86.1 22.7 C86 21.5 85.2 18.9 85.5 19.4 C85.9 19.9 86.3 19.7 87 20.3 C86.8 19.5 85.6 14.2 85.5 13.2 C85.2 10.1 84.6 6.5 84 1.5 C83.8 -0.6 78.6 4.2 77.1 5.7 C75.8 7 72.4 11 71.9 12.6 C73.5 11.9 73.6 12.1 73.9 12.3 z M73.3 13 C71.8 13.8 70.6 14.6 70.1 15.6 C69.4 17.1 66.9 17.1 65.6 20.8 C66.9 20.4 67.7 20.1 68 20 C68.9 19.2 69.9 18.9 70.2 18.1 C70.8 16.9 72.2 16.2 74.2 15.1 C73.3 15.2 74 14.4 72 15.1 C72.2 14.6 72.7 13.8 73.3 13 z" opacity="0.15" id="a1" /></g></g></g><g id="b1"><g transform="translate(110.4, 94.49997) translate(16, 0)" id="c1"><g id="d1"><g id="e1"><path d="M85.7 48.5 C85.7 48.2 85.7 48 85.7 47.7 C86.3 47.8 86.8 47.7 87.2 47.3 C86.5 45.6 85.8 43.8 85.3 42 C84.8 40.3 84.7 38.4 84.3 36.6 C85.1 36.8 85.9 37.2 86.6 37.8 C84.7 33.9 83.2 29.8 80.8 26.2 C79.1 23.7 75.2 19.9 73.8 18.8 C74.6 18.2 75.3 17.7 76.1 17.1 C74.3 15.4 72.3 13.7 69.8 13.3 C71 13.1 72.2 13 73.4 12.9 C71.9 12.1 68.3 9.3 63.9 9.5 C65.5 9.2 65.8 7.3 66.3 5.9 C64.3 6.4 62.3 6.9 60.4 7.4 C60.7 6.2 60.7 4.7 60 3.7 C59.3 2.7 58.1 2.1 56.9 2.2 C57 4.2 56.2 6.2 54.8 7.7 C52.6 8 51 8.5 49.7 9.4 C50.6 8.1 51.6 6.9 51.6 5.6 C49.8 7 47 9.1 45.3 10.4 C44.6 6.4 42.1 2.6 38.5 0.7 C39.9 3.3 39.5 6.5 40.4 9.2 C38.8 8 37 6.6 35.6 5.6 C35.6 7 36.6 8.1 37.5 9.4 C36.3 8.5 34.7 8 32.4 7.7 C31 6.3 30.2 4.3 30.3 2.2 C29.1 2.1 27.8 2.7 27.2 3.7 C26.5 4.8 26.5 6.2 26.8 7.4 C24.8 6.9 22.8 6.4 20.9 5.9 C21.4 7.3 22.2 8.5 23.3 9.5 C23.1 9.6 23 9.7 22.9 9.9 C18.2 10.1 15.3 12.1 13.8 12.9 C15 13 16.3 13.1 17.4 13.3 C14.8 13.7 12.9 15.4 11.1 17.1 C11.9 17.7 12.6 18.2 13.4 18.8 C12.1 19.9 9.3 22.5 7.9 24 C6.4 25.5 2.5 33.9 0.7 37.8 C1.3 37.2 2.1 36.8 3 36.6 C2.6 38.4 2.5 40.2 2 42 C1.5 43.8 0.7 45.6 0.1 47.3 C0.5 47.7 1.1 47.8 1.6 47.7 C1.6 48.8 1.3 49.7 1.1 50.8 C0.7 52.9 1.1 59.2 1.1 61.7 C1.5 61.6 1.9 61.5 2.3 61.3 C1.7 63.3 1.7 65.5 2.5 67.4 C2.8 66.7 3 66 3.3 65.2 C3.8 67.3 3.9 69.3 4.1 71.4 C4.4 71.3 4.7 71.2 5 71 C5.3 71.7 5.7 72.5 5.8 73.3 C5.9 73.9 5.6 74.7 5.3 75.2 C6.2 76.2 6.8 77.6 7.7 78.6 L7.9 77.9 C8.6 79.3 8.9 80.9 9.3 82.4 C9.5 82 9.7 81.7 9.9 81.3 C10.3 81.9 10.8 82.5 11.1 83.1 C11.5 83.9 11.7 84.8 12.1 85.7 C12.3 86.3 12.6 87.1 13.2 87.5 C13.7 87.8 14.7 87.7 14.9 87 C15.3 87.3 15.5 87.9 15.9 88.3 C16.4 88.7 16.9 89.1 17.5 89.4 C18.8 90.3 20.1 91.1 21.4 92 C21.4 91.8 21.4 91.5 21.5 91.3 C21.7 91.4 21.9 91.5 22.2 91.6 L21.6 91.5 C22.9 92.5 24.2 93.5 25.6 94.6 C25.6 94.2 25.6 93.9 25.6 93.5 C27.9 94.3 30.2 95.1 32.6 95.9 C33.3 93.8 36 95.5 36.9 96.4 C37.4 96.1 37.7 95.6 37.8 95 C38.4 95 38.9 95 39.4 95.3 C39.9 95.5 40.3 95.8 40.8 95.9 C41.7 96.1 42.8 96 43.5 95.2 C44.1 95.2 44.6 95.2 45.2 95.2 C45.9 96 47 96.1 47.9 95.9 C48.4 95.8 48.7 95.6 49.1 95.4 C49.7 95.1 50.1 95.1 50.8 95.1 C50.9 95.7 51.2 96.2 51.7 96.5 C52.6 95.6 55.2 93.8 56 96 C58.3 95.2 60.6 94.4 63 93.6 C63 94 63 94.3 63 94.7 C64.3 93.7 65.6 92.7 67 91.6 L66.4 91.7 C66.6 91.6 66.8 91.5 67.1 91.4 C67.1 91.6 67.1 91.9 67.2 92.1 C68.5 91.2 69.8 90.4 71.1 89.5 C71.6 89.1 72.2 88.8 72.7 88.4 C73.1 88 73.3 87.5 73.7 87.1 C73.9 87.8 74.8 88 75.4 87.6 C76 87.2 76.3 86.4 76.5 85.8 C76.8 84.9 77.1 84 77.5 83.2 C77.8 82.5 78.3 82 78.7 81.4 C78.9 81.8 79.1 82.1 79.3 82.5 C79.7 80.9 80 79.4 80.7 78 C80.7 78.1 80.7 78.2 80.7 78.3 C81.6 77.3 82.5 76.3 83.4 75.3 C83.1 74.8 82.8 74 82.9 73.4 C83 72.7 83.4 71.8 83.7 71.1 C84 71.2 84.3 71.3 84.6 71.5 C84.8 69.4 84.9 67.3 85.4 65.3 C85.7 66 85.9 66.7 86.2 67.5 C86.9 65.5 87 63.4 86.4 61.4 C86.8 61.6 87.1 61.8 87.6 61.8 C87.6 59.4 87.7 57 87.7 54.6 C87.7 53.5 87.8 52.5 87.7 51.4 C86.1 50.4 85.7 49.5 85.7 48.5 z" id="f1" fill="#474B4F" /><path d="M37.1 9.1 C36.7 8.5 36.4 8 36.2 7.4 C35.9 6.8 35.6 6.2 35.6 5.6 C37 6.6 38.8 8 40.4 9.2 C40.4 9.1 40.4 9.1 40.4 9 C39.6 6.3 39.9 3.2 38.6 0.7 C42.2 2.6 44.7 6.4 45.4 10.4 C47 9.1 49.8 7 51.6 5.6 C51.6 6.9 50.6 8.1 49.7 9.4 C51 8.5 52.6 8 54.8 7.7 C56.2 6.2 57 4.2 56.9 2.2 C58.1 2.1 59.3 2.7 60 3.7 C60.7 4.7 60.7 6.2 60.4 7.4 C62.3 6.9 64.3 6.4 66.3 5.9 C65.8 7.3 65.5 9.2 63.9 9.5 C68.3 9.3 71.9 12.1 73.4 12.9 C72.2 13 71 13.1 69.8 13.3 C72.3 13.7 74.3 15.4 76.1 17.1 C75.3 17.7 74.6 18.2 73.8 18.8 C75.2 19.9 79.1 23.7 80.8 26.2 C82.4 28.6 83.6 31.3 84.8 34 C85 34.4 85.2 34.7 85.4 35.1 C85.4 35.1 85.3 35 85.3 35 C85.7 35.9 86.1 36.9 86.6 37.8 C85.9 37.2 85.1 36.8 84.3 36.6 C84.7 38.4 84.8 40.3 85.3 42 C85.8 43.8 86.5 45.6 87.2 47.3 C86.8 47.7 86.3 47.8 85.7 47.7 C85.7 48 85.7 48.2 85.7 48.5 C85.7 49.5 86.1 50.4 87.7 51.4 C87.8 52.5 87.7 53.5 87.7 54.6 C87.7 57 87.6 59.4 87.6 61.8 C87.1 61.8 86.8 61.6 86.4 61.4 C87 63.4 86.9 65.5 86.2 67.5 C85.9 66.7 85.7 66 85.4 65.3 C84.9 67.3 84.8 69.4 84.6 71.5 C84.3 71.3 84 71.2 83.7 71.1 C83.4 71.8 83 72.7 82.9 73.4 C82.8 74 83.1 74.8 83.4 75.3 C82.5 76.3 81.6 77.3 80.7 78.3 C80.7 78.2 80.7 78.1 80.7 78 C80 79.4 79.7 80.9 79.3 82.5 C79.1 82.1 78.9 81.8 78.7 81.4 C78.3 82 77.8 82.5 77.5 83.2 C77.1 84 76.8 84.9 76.5 85.8 C76.3 86.4 76 87.2 75.4 87.6 C74.8 88 73.9 87.8 73.7 87.1 C73.3 87.5 73.1 88 72.7 88.4 C72.2 88.8 71.6 89.1 71.1 89.5 C69.8 90.4 68.5 91.2 67.2 92.1 C67.1 91.9 67.1 91.6 67.1 91.4 C66.8 91.5 66.6 91.6 66.4 91.7 L67 91.6 C65.6 92.7 64.3 93.7 63 94.7 C63 94.3 63 94 63 93.6 C60.6 94.4 58.3 95.2 56 96 C55.2 93.8 52.6 95.6 51.7 96.5 C51.2 96.2 50.9 95.7 50.8 95.1 C50.1 95.1 49.7 95.1 49.1 95.4 C48.7 95.6 48.4 95.8 47.9 95.9 C47 96.1 45.9 96 45.2 95.2 C44.6 95.2 44.1 95.2 43.5 95.2 C42.8 96 41.7 96.1 40.8 95.9 C40.3 95.8 39.9 95.5 39.4 95.3 C38.9 95 38.4 95 37.8 95 C37.7 95.6 37.4 96.1 36.9 96.4 C36 95.5 33.3 93.8 32.6 95.9 C30.2 95.1 27.9 94.3 25.6 93.5 C25.6 93.9 25.6 94.2 25.6 94.6 C24.2 93.5 22.9 92.5 21.6 91.5 L22.2 91.6 C21.9 91.5 21.7 91.4 21.5 91.3 C21.4 91.5 21.4 91.8 21.4 92 C20.1 91.1 18.8 90.3 17.5 89.4 C16.9 89.1 16.4 88.7 15.9 88.3 C15.5 87.9 15.3 87.3 14.9 87 C14.7 87.7 13.7 87.8 13.2 87.5 C12.6 87.1 12.3 86.3 12.1 85.7 C11.7 84.8 11.5 83.9 11.1 83.1 C10.8 82.5 10.3 81.9 9.9 81.3 C9.7 81.7 9.5 82 9.3 82.4 C8.9 80.9 8.6 79.3 7.9 77.9 L7.7 78.6 C6.8 77.6 6.2 76.2 5.3 75.2 C5.6 74.7 5.9 73.9 5.8 73.3 C5.7 72.5 5.3 71.7 5 71 C4.7 71.2 4.4 71.3 4.1 71.4 C3.9 69.3 3.8 67.3 3.3 65.2 C3 66 2.8 66.7 2.5 67.4 C1.7 65.5 1.7 63.3 2.3 61.3 C1.9 61.5 1.5 61.6 1.1 61.7 C1.1 59.2 0.7 52.9 1.1 50.8 C1.3 49.7 1.6 48.8 1.6 47.7 C1.1 47.8 0.5 47.7 0.1 47.3 C0.7 45.6 1.5 43.8 2 42 C2.5 40.2 2.6 38.4 3 36.6 C2.1 36.8 1.3 37.2 0.7 37.8 C2.5 33.9 6.4 25.5 7.9 24 C9.3 22.5 12.1 19.9 13.4 18.8 C12.6 18.2 11.9 17.7 11.1 17.1 C12.9 15.4 14.8 13.7 17.4 13.3 C16.3 13.1 15 13 13.8 12.9 C15.3 12.1 18.2 10.1 22.9 9.9 C23 9.7 23.1 9.6 23.3 9.5 C22.2 8.5 21.4 7.3 20.9 5.9 C22.8 6.4 24.8 6.9 26.8 7.4 C26.5 6.2 26.5 4.8 27.2 3.7 C27.8 2.7 29.1 2.1 30.3 2.2 C30.2 4.3 31 6.3 32.4 7.7 C34.4 8 35.9 8.4 37.1 9.1 z M37.1 9.1 C37.3 9.4 37.6 9.8 37.8 10.1 C36.7 9.2 34.8 9.5 32.6 9.2 C31.3 7.9 29.2 5.3 29.3 3.3 C28.2 3.2 28.1 3.8 27.5 4.8 C26.8 5.8 27.4 7.1 27.7 8.2 C25.8 7.7 23.9 7.2 22.1 6.8 C22.6 8.1 24.5 9.2 25.5 10.1 C25.3 10.2 24.1 10.4 24 10.6 C19.5 10.8 17.8 11.7 16.4 12.4 C17.5 12.5 18.7 13.6 19.8 13.8 C17.3 14.2 14.5 15.8 12.8 17.4 C13.6 18 14.2 18.4 15 19 C13.8 20 11.1 22.5 9.8 23.9 C8.2 25.4 4 32.3 2.3 36 C2.9 35.4 3.7 35.3 4.6 35.1 C4.2 36.8 4.6 39.4 4.1 41.1 C3.6 42.8 2.9 43.9 2.3 45.5 C2.7 45.9 3.3 46.6 3.7 46.5 C3.7 47.5 3.4 48.4 3.2 49.4 C2.8 51.4 3.2 57.4 3.2 59.8 C3.6 59.7 4 59.6 4.3 59.4 C3.7 61.3 3.7 63.4 4.5 65.2 C4.8 64.6 5 64 5.3 63.2 C5.8 65.2 5.9 67.1 6.1 69.1 C6.4 69 6.7 68.9 7 68.7 C7.3 69.4 7.7 70.1 7.8 70.9 C7.9 71.5 7.6 72.2 7.3 72.7 C8.2 73.7 8.7 75 9.6 75.9 L9.8 75.2 C10.5 76.5 10.8 78.1 11.1 79.5 C11.3 79.1 11.5 78.8 11.7 78.5 C12.1 79.1 12.6 79.6 12.8 80.2 C13.2 81 13.4 81.8 13.8 82.7 C14 83.3 14.3 84 14.8 84.4 C15.3 84.7 16.2 84.6 16.4 83.9 C16.8 84.2 17 84.8 17.4 85.1 C17.9 85.5 18.4 85.9 18.9 86.1 C20.1 87 21.4 87.7 22.6 88.6 C22.6 88.4 22.6 88.1 22.7 87.9 C22.9 88 23.1 88.1 23.4 88.2 L22.8 88.1 C24 89.1 25.3 90 26.6 91 C26.6 90.6 26.6 90.3 26.6 90 C28.8 90.8 31 91.5 33.3 92.3 C34 90.3 36.5 91.9 37.4 92.8 C37.9 92.5 38.2 92 38.3 91.5 C38.9 91.5 39.3 91.5 39.8 91.8 C40.3 92 40.7 92.3 41.1 92.4 C42 92.6 43 92.5 43.7 91.7 C44.3 91.7 44.7 91.7 45.3 91.7 C46 92.5 47 92.6 47.9 92.4 C48.4 92.3 48.7 92.1 49 91.9 C49.6 91.6 50 91.6 50.6 91.6 C50.7 92.2 51 92.6 51.5 92.9 C52.4 92 54.8 90.3 55.6 92.4 C57.8 91.6 60 90.9 62.3 90.1 C62.3 90.5 62.3 90.8 62.3 91.1 C63.5 90.1 64.8 89.2 66.1 88.2 L65.5 88.3 C65.7 88.2 65.9 88.1 66.2 88 C66.2 88.2 66.2 88.5 66.3 88.7 C67.5 87.8 68.8 87.1 70 86.2 C70.5 85.8 71 85.5 71.5 85.2 C71.9 84.8 72.1 84.3 72.5 84 C72.7 84.7 73.5 84.9 74.1 84.5 C74.7 84.1 75 83.4 75.1 82.8 C75.4 81.9 75.7 81.1 76.1 80.3 C76.4 79.6 76.9 79.2 77.2 78.6 C77.4 79 77.6 79.3 77.8 79.6 C78.2 78.1 78.5 76.7 79.1 75.3 C79.1 75.4 79.1 75.5 79.1 75.6 C80 74.6 80.8 73.7 81.7 72.7 C81.4 72.2 81.1 71.5 81.2 70.9 C81.3 70.2 81.7 69.4 82 68.7 C82.3 68.8 82.6 68.9 82.9 69.1 C83.1 67.1 83.2 65.1 83.7 63.2 C84 63.9 84.2 64.5 84.5 65.3 C85.2 63.4 85.3 61.4 84.7 59.5 C85.1 59.7 85.4 59.9 85.8 59.9 C85.8 57.6 86.6 57.4 86.6 55.1 C86.6 54.1 85.9 51.6 85.9 50.5 C84.4 49.5 84 48.1 84 47.2 C84 46.9 84 46.7 84 46.4 C84.6 46.5 85 46.4 85.4 46 C84.7 44.4 84.9 43.2 84.4 41.5 C83.9 39.9 83.3 36.7 82.9 34.9 C83.6 35.1 84.9 34.4 85.6 34.8 C85.4 34.5 85.3 34.1 85.1 33.8 C83.4 30.8 81.3 29 79.2 25.9 C77.6 23.5 73.9 19.9 72.5 18.9 C73.3 18.3 73.3 17.9 74 17.3 C72.3 15.7 69.8 14.1 67.4 13.7 C68.5 13.5 70.3 12.4 71.5 12.3 C70.1 11.5 66 9.7 61.8 9.9 C63.3 9.6 64.4 8.7 64.9 7.3 C63 7.8 60.7 8.2 58.9 8.6 C59.2 7.5 60.4 5.9 59.7 4.9 C59 3.9 59.4 3 58.2 3.1 C58.3 5 55.8 6.8 54.4 8.3 C52.3 8.6 50 9.3 48.8 10.1 C49.7 8.9 50 8.4 50 7.2 C48.3 8.5 47 9.6 45.4 10.8 C44.7 7 43.2 4.8 39.8 3 C40.8 5.4 40 6.9 40.3 9 C40.3 9.1 40.3 9.1 40.4 9.2 C40.4 9.2 40.4 9.2 40.4 9.2 C40.4 9.4 40.5 9.7 40.6 10 C39 8.8 37.3 7.5 36 6.5 C36 6.8 36.1 7.1 36.1 7.4 C36.5 8 37 8.7 37.4 9.4 C37.4 9.3 37.2 9.2 37.1 9.1 z" opacity="0.15" id="g1" /></g></g></g><g transform="translate(144.9, 113.3) scale(0.7) translate(-139.9, -117.3) translate(92.80001, 72.19997) translate(16, 0)" id="h1"><g transform="translate(31.56164, 28.5) scale(-1, 1) translate(-31.56164, -28.5) translate(9.061636, 0)" id="i1"><path d="M0.2 35 C-0.4 31.9 9.6 27.1 12.5 24 C13.3 23.1 18 19.1 15.2 19.8 C15.6 17.3 18.1 17.5 19.3 16.2 C19.9 15.5 17.3 16.4 18 15.7 C18.5 15.1 22.7 11.7 23.1 11.1 C23.8 10.2 21.7 10.9 22.2 10.2 C26 5.5 25.5 7.2 27.3 5.2 C28.7 3.7 31 1.7 32.1 0.9 C34.5 -0.8 37.7 1.8 38.7 7.9 C38.9 9.5 40.7 13.5 41 15.1 C41.3 16.5 39.9 14.5 40 15.6 C40.1 16.9 42.6 23 41.3 21.8 C40 20.6 41.4 25.2 41.3 26.9 C41.1 31 40 50.1 42.8 41.1 C42.8 43.7 42.4 46.3 41 48.2 C41.6 46.8 43.2 46.6 44.2 45.5 C44.2 49.8 41.6 51.6 40.9 53.6 C40.7 54.2 40.4 54.8 39.7 55.4 C38.5 56.6 34.8 56.5 34.2 55.5 C33.3 53.9 31.7 51.1 29.3 49.2 C26.9 47.3 26.7 43.7 21.3 41.4 C18.8 40.3 15.4 38.3 11.7 37.1 C7.7 35.8 0.5 36.6 0.2 35 z" id="j1" fill="#474B4F" /><path d="M0.2 35 C-0.4 31.9 9.6 27.1 12.5 24 C13.3 23.1 18 19.1 15.2 19.8 C15.6 17.3 18.1 17.5 19.3 16.2 C19.9 15.5 17.3 16.4 18 15.7 C18.5 15.1 22.7 11.7 23.1 11.1 C23.8 10.2 21.7 10.9 22.2 10.2 C26 5.5 25.5 7.2 27.3 5.2 C28.7 3.7 31 1.7 32.1 0.9 C34.5 -0.8 37.7 1.8 38.7 7.9 C38.9 9.5 40.7 13.5 41 15.1 C41.3 16.5 39.9 14.5 40 15.6 C40.1 16.9 42.6 23 41.3 21.8 C40 20.6 41.4 25.2 41.3 26.9 C41.1 31 40 50.1 42.8 41.1 C42.8 43.7 42.4 46.3 41 48.2 C41.6 46.8 43.2 46.6 44.2 45.5 C44.2 49.8 41.6 51.6 40.9 53.6 C40.7 54.2 40.4 54.8 39.7 55.4 C38.5 56.6 34.8 56.5 34.2 55.5 C33.3 53.9 31.7 51.1 29.3 49.2 C26.9 47.3 26.7 43.7 21.3 41.4 C18.8 40.3 15.4 38.3 11.7 37.1 C7.7 35.8 0.5 36.6 0.2 35 z M5 33.3 C5.3 34.7 11.4 34 14.7 35.1 C17.8 36.2 20.7 37.9 22.8 38.9 C27.4 40.9 27.5 44.1 29.6 45.8 C31.6 47.5 33 49.9 33.7 51.3 C34.2 52.2 36.9 53.3 37.9 52.3 C38.5 51.8 42.4 51.2 42.4 47.5 C41.6 48.5 40.1 48.1 39.6 49.3 C40.8 47.6 41.9 46.2 41.9 43.9 C39.5 51.8 40.1 30.7 40.3 27.1 C40.4 25.6 39.2 19.3 40.3 20.4 C41.4 21.5 38.4 15 38.3 13.8 C38.2 12.8 39.9 14.7 39.6 13.5 C39.3 12.1 37.6 10.8 37.4 9.4 C36.6 4 34.5 0.3 32.4 1.8 C31.5 2.5 28.9 4.6 27.7 5.9 C26.2 7.7 26.9 5.4 23.7 9.6 C23.3 10.2 25.5 10.2 24.9 11 C24.6 11.5 20.7 14.9 20.2 15.4 C19.6 16 22 15.3 21.5 15.9 C20.5 17 17.9 17.3 17.6 19.5 C20 18.9 15.8 22.8 15.1 23.6 C13 26.3 4.5 30.5 5 33.3 z" opacity="0.15" id="k1" /><path d="M15.1 33.9 C13 33.2 12.7 33.4 12.9 32.2 C13 31.5 15.6 29.8 17.9 26.4 C18.7 25.2 18.3 27.9 18.9 26.4 C19.7 24.6 20.5 22.2 21 21.3 C21.6 20.3 21.1 23.1 22.1 21.3 C22.3 20.9 23.1 17 23.4 16.4 C24 15.3 24.1 17.7 24.5 16.4 C25 14.5 25.7 13.7 26.8 11.9 C28.2 9.6 29.9 6.6 30.5 6.4 C32.8 5.4 34.5 8.4 35.2 11.9 C35.9 15.4 35.8 17.6 37.1 20 C38.4 22.4 38.7 22.5 38.4 28.5 C38.1 34.5 36.2 35.9 35.2 40.4 C34.2 44.9 34.5 46.3 31.4 44.8 C29.3 43.8 29.5 43.3 32 43.3 C31.2 41.3 29.4 39.8 26.7 39 C22.7 37.8 18.4 36.5 20.6 35.2 C22.1 34.3 22.2 34 21 34.2 C18.5 34.4 16.5 34.3 15.1 33.9 z" id="l1" fill="#D8D8D8" /><path d="M21.8 37.4 C22.8 37.1 23.5 36.3 24.1 35.1 C24.7 33.9 24.9 32.8 24.9 31.9 L23.3 33.7 C23.6 31.1 24.3 29.1 25.4 27.6 C26.5 26.1 27.1 24.9 27.1 23.8 C25.6 24.8 24.7 25.5 24.4 26.1 C24 26.9 24.3 22.6 26.2 20.2 C28.1 17.8 30.8 14.3 31 12.2 C31.6 18.3 30.3 21.1 31 22.5 C31.7 23.8 33.2 30.2 31.7 33.3 C30.7 35.4 29.3 37.4 27.5 39.4 C26.6 39.3 25.6 39.1 24.4 38.8 C23.3 38.4 22.4 38 21.8 37.4 z" id="m1" fill="#474B4F" /><path d="M21.8 37.4 C22.8 37.1 23.5 36.3 24.1 35.1 C24.7 33.9 24.9 32.8 24.9 31.9 L23.3 33.7 C23.6 31.1 24.3 29.1 25.4 27.6 C26.5 26.1 27.1 24.9 27.1 23.8 C25.6 24.8 24.7 25.5 24.4 26.1 C24 26.9 24.3 22.6 26.2 20.2 C28.1 17.8 30.8 14.3 31 12.2 C31.6 18.3 30.3 21.1 31 22.5 C31.7 23.8 33.2 30.2 31.7 33.3 C30.7 35.4 29.3 37.4 27.5 39.4 C26.6 39.3 25.6 39.1 24.4 38.8 C23.3 38.4 22.4 38 21.8 37.4 z" id="n1" fill="#665F57" /></g></g><g transform="translate(194.7, 113.2) scale(0.7) translate(-199.7, -117.2) translate(92.80002, 72.09997) translate(104, 29) scale(-1, 1) translate(-104, -29) translate(81, 0)" id="o1"><g transform="translate(22.81199, 29) scale(-1, 1) translate(-22.81199, -29) translate(0.31199, 0)" id="p1"><path d="M0.2 35 C-0.4 31.9 8.7 26.6 11.7 23.5 C13.1 22 15.5 19.9 17.8 17.7 C18.6 17 16.6 17 17.3 16.3 C18 15.5 19 15.9 20.3 14.9 C21.6 13.9 23.3 11.6 23.6 11 C23.9 10.5 22 11.5 22.3 11 C24.5 7.6 30.1 2.5 32.2 1 C34.6 -0.7 37.8 1.9 38.8 8 C39 9.4 41.5 15.4 42 17.1 C42.4 18.5 40.3 15.5 40.5 17.1 C40.9 19.9 41.9 24 42 25.9 C42.1 27.3 40.6 23.3 40.5 24.9 C40.5 25.9 41.2 29.8 41.1 31.9 C40.8 38.6 40.7 48.2 42.8 41.3 C42.8 43.9 42.4 46.5 41 48.4 C41.6 47 43.2 46.8 44.2 45.7 C44.2 51.4 39.5 52.8 41 55.8 C42.5 58.8 35.5 56.5 35.5 54.6 C35.5 52.7 31.7 51.3 29.3 49.4 C26.9 47.5 26.7 43.9 21.3 41.6 C18.8 40.5 15.4 38.5 11.7 37.3 C7.7 35.8 0.5 36.6 0.2 35 z" id="q1" fill="#474B4F" /><path d="M0.2 35 C-0.4 31.9 8.7 26.6 11.7 23.5 C13.1 22 15.5 19.9 17.8 17.7 C18.6 17 16.6 17 17.3 16.3 C18 15.5 19 15.9 20.3 14.9 C21.6 13.9 23.3 11.6 23.6 11 C23.9 10.5 22 11.5 22.3 11 C24.5 7.6 30.1 2.5 32.2 1 C34.6 -0.7 37.8 1.9 38.8 8 C39 9.4 41.5 15.4 42 17.1 C42.4 18.5 40.3 15.5 40.5 17.1 C40.9 19.9 41.9 24 42 25.9 C42.1 27.3 40.6 23.3 40.5 24.9 C40.5 25.9 41.2 29.8 41.1 31.9 C40.8 38.6 40.7 48.2 42.8 41.3 C42.8 43.9 42.4 46.5 41 48.4 C41.6 47 43.2 46.8 44.2 45.7 C44.2 51.4 39.5 52.8 41 55.8 C42.5 58.8 35.5 56.5 35.5 54.6 C35.5 52.7 31.7 51.3 29.3 49.4 C26.9 47.5 26.7 43.9 21.3 41.6 C18.8 40.5 15.4 38.5 11.7 37.3 C7.7 35.8 0.5 36.6 0.2 35 z M5.1 32.3 C5.4 33.7 11.1 33.4 14.7 34.8 C18 35.9 20.8 38.2 23.1 39.2 C28 41.3 28.1 43.8 30.3 45.6 C32.5 47.3 35 49.5 35 51.2 C35 52.9 41.3 55 40 52.3 C38.6 49.6 43.3 52.8 43.3 47.7 C42.4 48.7 40.6 48 40.1 49.3 C41.4 47.6 42.1 46.2 42.1 43.9 C40.2 50.1 39.8 36.8 40.1 30.8 C40.2 28.9 39.7 24.4 39.7 23.5 C39.8 22.1 41.1 24.7 41 23.5 C40.9 21.8 40.1 19.3 39.7 16.7 C39.5 15.3 41 16.6 40.6 15.3 C40.1 13.8 38.1 10.4 37.9 9.2 C37 3.7 34.9 0.4 32.7 2 C30.8 3.4 26 6.8 24 9.9 C23.7 10.4 25.5 10.2 25.2 10.6 C24.9 11.1 22.3 14.5 21.2 15.4 C20 16.3 19.1 15.9 18.5 16.7 C17.9 17.3 20.4 17.5 19.7 18.1 C17.6 20.1 15.4 23.2 14.1 24.5 C11.5 27.2 4.6 29.5 5.1 32.3 z" opacity="0.15" id="r1" /><path d="M15.1 33.9 C13 33.2 12.7 33.4 12.9 32.2 C13 31.6 15.1 32 17.3 28.6 C18.1 27.4 18.4 25.1 19.1 23.7 C19.6 22.6 20 23.9 20.6 22.7 C21.1 21.7 21.8 18.2 22 17.8 C22.4 17 22.9 18 23.6 16.9 C24.6 15.2 25.5 14 26.7 12 C28 9.8 29.5 6.9 30.4 6.5 C32.7 5.5 34.4 8.5 35.1 12 C35.8 15.5 35.7 17.7 37 20.1 C38.3 22.5 38.6 22.6 38.3 28.6 C38 34.6 36.1 36 35.1 40.5 C34.1 45 34.4 46.4 31.3 44.9 C29.2 43.9 29.4 43.4 31.9 43.4 C31.1 41.4 29.3 39.9 26.6 39.1 C22.6 37.9 18.3 36.6 20.5 35.3 C22 34.4 22.1 34.1 20.9 34.3 C18.5 34.4 16.5 34.3 15.1 33.9 z" id="s1" fill="#D8D8D8" /><path d="M21.8 37.4 C22.8 37.1 23.5 36.3 24.1 35.1 C24.7 33.9 24.9 32.8 24.9 31.9 L23.3 33.7 C23.6 31.1 24.3 29.1 25.4 27.6 C26.5 26.1 27.1 24.9 27.1 23.8 C25.6 24.8 24.7 25.5 24.4 26.1 C24 26.9 24.3 22.6 26.2 20.2 C28.1 17.8 30.8 14.3 31 12.2 C31.6 18.3 30.3 21.1 31 22.5 C31.7 23.8 33.2 30.2 31.7 33.3 C30.7 35.4 29.3 37.4 27.5 39.4 C26.6 39.3 25.6 39.1 24.4 38.8 C23.3 38.4 22.4 38 21.8 37.4 z" id="t1" fill="#474B4F" /><path d="M21.8 37.4 C22.8 37.1 23.5 36.3 24.1 35.1 C24.7 33.9 24.9 32.8 24.9 31.9 L23.3 33.7 C23.6 31.1 24.3 29.1 25.4 27.6 C26.5 26.1 27.1 24.9 27.1 23.8 C25.6 24.8 24.7 25.5 24.4 26.1 C24 26.9 24.3 22.6 26.2 20.2 C28.1 17.8 30.8 14.3 31 12.2 C31.6 18.3 30.3 21.1 31 22.5 C31.7 23.8 33.2 30.2 31.7 33.3 C30.7 35.4 29.3 37.4 27.5 39.4 C26.6 39.3 25.6 39.1 24.4 38.8 C23.3 38.4 22.4 38 21.8 37.4 z" id="u1" fill="#665F57" /></g></g><g transform="translate(169.9, 153.3) scale(0.9) translate(-169.9, -158.3)" id="v1"><g transform="translate(91.20001, 103.4) translate(51, 9)" id="w1"><g id="x1"><path d="M11.3 81.9 C14.4 82.2 18.5 82.4 21 81.1 C23.7 79.7 25.2 78.3 27.4 75.9 C29.9 79.4 32 80.5 35.2 81.9 C38.2 83.3 42.2 82.3 44.7 81.6 C47.2 80.8 52.9 77.6 53.5 73.9 C54.2 69.7 54.7 64.6 52.8 57.5 C51.2 51.4 43.5 48.1 39.8 44.1 C37.1 41.2 33.5 30.4 33.2 28.7 C32.4 25.3 32.5 21.7 33.7 14.5 C34.9 6.9 39.8 4.5 39.8 2 C39.8 -0.4 34.7 4 28.5 4.1 C22.4 4.2 15.7 -1.3 15.7 2 C15.7 5.4 20.7 7.8 21.7 13.5 C22.7 19.2 22.7 22.1 21.7 28.1 C21.1 31.6 17.6 42 14.3 44.6 C8.6 49.1 1.7 53.6 1 60.2 C0.4 66.9 -0.3 70.7 1.6 74.5 C4 79.3 8.2 81.5 11.3 81.9 z" id="y1" fill="#FEFEFE" /><path d="M35.3 9.4 C34.6 10.8 34 12.5 33.7 14.5 C32.5 21.7 32.4 25.3 33.2 28.7 C33.5 30.4 37.1 41.2 39.8 44.1 C43.5 48.1 51.2 51.4 52.8 57.5 C54.7 64.6 54.2 69.7 53.5 73.9 C52.9 77.6 47.2 80.8 44.7 81.6 C42.2 82.3 38.2 83.3 35.2 81.9 C32 80.5 29.9 79.4 27.4 75.9 C25.2 78.3 23.7 79.7 21 81.1 C18.5 82.4 14.4 82.2 11.3 81.9 C8.2 81.5 4 79.3 1.6 74.5 C-0.3 70.7 0.4 66.9 1 60.2 C1.7 53.6 8.6 49.1 14.3 44.6 C17.6 42 21.1 31.6 21.7 28.1 C22.7 22.1 22.7 19.2 21.7 13.5 C21.6 12.9 21.5 12.4 21.3 11.9 C20.2 9.3 18.3 7.1 17 5.2 C16.2 4.1 15.7 3.1 15.7 2 C15.7 -1.3 22.4 4.2 28.5 4.1 C34.7 4 39.8 -0.4 39.8 2 C39.8 3.3 38.5 4.5 37.1 6.4 C38.4 4.5 39.4 3.2 39.4 2.1 C39.4 -0.2 34.3 4.2 28.6 4.3 C23 4.4 15.7 -1.2 15.7 1.9 C15.7 2.9 16.2 4 17 5.2 C18.3 7 20.3 9 21.3 11.9 C21.7 12.8 22 13.7 22.1 14.6 C23 20.1 23 22.9 22.1 28.6 C21.6 32 19.8 41 16.8 43.5 C11.5 47.8 3.6 53.4 2.9 59.8 C2.3 66.2 1.9 69.6 3.6 73.3 C5.8 77.9 9.7 80 12.5 80.4 C15.4 80.7 19.1 80.9 21.4 79.6 C23.9 78.3 25.3 76.9 27.3 74.6 C29.6 78 31.5 79 34.5 80.4 C37.3 81.7 41 80.8 43.3 80.1 C45.6 79.3 50.9 76.3 51.4 72.7 C52 68.7 52.5 63.8 50.8 56.9 C49.3 51 41.5 47.6 38.1 43.8 C35.6 41 33 30.8 32.7 29.2 C32 25.9 32.1 22.5 33.2 15.6 C33.6 13.2 34.4 11.1 35.3 9.4 z" opacity="0.1" id="z1" /></g></g><g transform="translate(169.9, 186.3999) scale(1.3) translate(-169.9, -186.3999) translate(102.9, 100.6) translate(58, 77)" id="a2"><g id="b2"><path d="M9.1 8.1 C9.1 8.1 5.5 10.3 3.5 11.1 C4.6 12 6.9 13.1 9.1 13.1 C11.3 13.1 13.5 12 14.7 11.1 C12.7 10.2 9.1 8.1 9.1 8.1 z" id="c2" fill="#CE5253" /><path d="M18.5 13.8 C18.5 13.8 18.4 13.7 18.2 13.4 C18 13.2 17.7 12.8 17.4 12.5 C16.7 11.7 15.7 10.8 14.5 10 C13.4 9.2 12.1 8.4 11.1 8 C10.8 7.9 10.6 7.8 10.4 7.7 C10.3 7.7 10.2 7.7 10.1 7.6 L10.1 1.9 C10.1 1.3 9.7 0.9 9.1 0.9 C8.5 0.9 8.1 1.3 8.1 1.9 L8.1 7.6 C8 7.6 7.9 7.7 7.9 7.7 C7.7 7.8 7.4 7.9 7.2 8 C6.2 8.5 5 9.2 4 10 C2.9 10.8 2 11.8 1.4 12.6 C1.1 13 0.8 13.3 0.7 13.5 C0.5 13.7 0.4 13.9 0.4 13.9 C0.3 14.1 0.3 14.4 0.4 14.6 C0.6 14.8 0.9 14.8 1.1 14.6 C1.1 14.6 1.2 14.5 1.4 14.3 C1.6 14.1 1.9 13.9 2.3 13.6 C3 13 4 12.3 5.1 11.7 C6.2 11.1 7.3 10.7 8.1 10.5 C8.3 10.5 8.5 10.4 8.6 10.4 C8.6 10.4 8.6 10.4 8.7 10.4 C8.8 10.5 9 10.5 9.2 10.5 C9.4 10.5 9.5 10.4 9.7 10.4 L9.8 10.4 C10 10.4 10.2 10.5 10.4 10.5 C11.3 10.7 12.5 11.1 13.6 11.7 C14.8 12.3 15.8 13 16.6 13.5 C17 13.8 17.3 14 17.5 14.2 C17.7 14.4 17.9 14.5 17.9 14.5 C18.1 14.7 18.4 14.7 18.6 14.5 C18.7 14.3 18.7 14 18.5 13.8 z" id="d2" fill="#282523" /></g></g><g transform="translate(169.9, 172.8) scale(1) translate(-169.9, -169.8) translate(107.4, 107.9) translate(51, 56)" id="e2"><g id="f2"><path d="M21.7 7 C20.6 1.1 14.2 0.3 11.5 0.3 C8.8 0.3 2.4 1.1 1.3 7 C0.5 11.1 1.3 11.5 1.3 11.5 L11.5 11.5 L21.7 11.5 C21.7 11.5 22.4 11.2 21.7 7 z" id="g2" fill="#282421" /><path d="M18.3 4.3 C18.4 3.8 17.8 3.1 17.5 2.8 C17 2.4 15.4 1.2 11.5 1.1 C7.6 1 6 2.3 5.5 2.8 C5.2 3.1 4.6 3.9 4.7 4.3 C6.2 3.5 9.8 2.8 11.5 6.6 C12.9 3.1 16.8 3.4 18.3 4.3 z" id="h2" fill="#FEFEFE" /></g></g><g transform="translate(150.7, 140.2999) scale(1.1) translate(-150.7, -140.2999) translate(93.20001, 79.39995) translate(53, 56)" id="i2"><g id="j2"><path d="M11 8.3 C11 7.7 11 4.9 9.8 3 C8.6 1.1 7.4 0.6 5.8 0.2 C4.2 -0.2 2.3 0 1.3 0.9 C0.3 1.8 0 4 0 5.5 C0 7 0.8 8.8 2.8 9.4 C4.1 9.8 6 9.8 8.6 9.4 C10.2 9.1 11 8.8 11 8.3 z" id="k2" /><path d="M5 4.4 C5.6 4.4 6.4 3.6 6.4 3 C6.4 2.4 5.6 2 5 2 C4.4 2 4 2.4 4 3 C4 3.6 4.4 4.4 5 4.4 z" id="l2" fill="#FFFFFE" /></g></g><g transform="translate(185.8, 140.2999) scale(1.1) translate(-185.8, -140.2999) translate(97.10001, 79.39995) translate(82, 56)" id="m2"><g id="n2"><path d="M0 8.3 C0 7.7 0 4.9 1.2 3 C2.4 1.1 3.6 0.6 5.2 0.2 C6.8 -0.2 8.7 0 9.7 0.9 C10.7 1.8 11 4 11 5.5 C11 7 10.2 8.8 8.2 9.3 C6.9 9.7 5 9.7 2.4 9.3 C0.8 9.1 0 8.8 0 8.3 z" id="o2" /><path d="M6 4.4 C6.6 4.4 7.4 3.6 7.4 3 C7.4 2.4 6.6 2 6 2 C5.4 2 5 2.4 5 3 C5 3.6 5.4 4.4 6 4.4 z" id="p2" fill="#FFFFFE" /></g></g></g></g></g></g><defs><g transform="translate(17.09519, 0.800995) translate(-135.2952, -293.601)" id="q2" fill="#000"><path d="M118.2 302.7 C118.4 307.4 132.5 311.2 149.8 311.2 C167.1 311.2 181.2 307.4 181.4 302.7 C181.4 307.5 181.4 310.1 181.4 310.5 C181.4 315.3 167.3 319.1 149.8 319.1 C132.3 319.1 118.2 315.2 118.2 310.5 L118.2 302.7 L118.2 302.7 z" fill-opacity="0.4528" id="r2" fill="#593001" /><path d="M118.7 301.7 C118.9 306.4 133 310.2 150.3 310.2 C167.6 310.2 181.7 306.4 181.9 301.7 C181.9 306.5 181.9 309.1 181.9 309.5 C181.9 314.3 167.8 318.1 150.3 318.1 C132.8 318.1 118.7 314.2 118.7 309.5 L118.7 301.7 L118.7 301.7 z" id="s2" fill="#DA8113" /><linearGradient x1="46.0545" y1="-118.6926" x2="45.4656" y2="-118.6926" gradientUnits="userSpaceOnUse" gradientTransform="matrix(117.135, 0, 0, 28.4634, -5208.417, 3687.795)" id="t2"><stop offset="0%" stop-color="#D9952A" stop-opacity="1" /><stop offset="6.438854%" stop-color="#CA7519" stop-opacity="1" /><stop offset="30.54%" stop-color="#E3AD3A" stop-opacity="1" /><stop offset="51.05%" stop-color="#FFEC91" stop-opacity="1" /><stop offset="68.8%" stop-color="#E9BD44" stop-opacity="1" /><stop offset="86.24%" stop-color="#FFED6C" stop-opacity="1" /><stop offset="93.87%" stop-color="#F2D353" stop-opacity="1" /><stop offset="100%" stop-color="#F2B947" stop-opacity="1" /></linearGradient><path d="M118.2 301.6 C118.4 306.1 132.7 309.7 150.3 309.7 C167.9 309.7 182.2 306.1 182.4 301.6 C182.4 306.2 182.4 308.7 182.4 309 C182.4 313.5 168 317.2 150.3 317.2 C132.6 317.2 118.2 313.5 118.2 309 L118.2 301.6 L118.2 301.6 z" id="u2" style="fill:url(#t2)" /><linearGradient x1="45.4914" y1="-117.9547" x2="45.9407" y2="-117.5895" gradientUnits="userSpaceOnUse" gradientTransform="matrix(115.425, 0, 0, 29.925, -5125.077, 3826.124)" id="v2"><stop offset="0%" stop-color="#F4E072" stop-opacity="1" /><stop offset="100%" stop-color="#DB9427" stop-opacity="1" /></linearGradient><ellipse cx="150.3" cy="301.5" rx="31.6" ry="8.2" id="w2" style="fill:url(#v2)" /><linearGradient x1="45.4656" y1="-126.0065" x2="46.0545" y2="-126.0065" gradientUnits="userSpaceOnUse" gradientTransform="matrix(117.135, 0, 0, 18.6219, -5208.417, 2651.479)" id="x2"><stop offset="0%" stop-color="#D9952A" stop-opacity="1" /><stop offset="6.438854%" stop-color="#CA7519" stop-opacity="1" /><stop offset="30.54%" stop-color="#E3AD3A" stop-opacity="1" /><stop offset="51.05%" stop-color="#FFEC91" stop-opacity="1" /><stop offset="68.8%" stop-color="#E9BD44" stop-opacity="1" /><stop offset="86.24%" stop-color="#FFED6C" stop-opacity="1" /><stop offset="93.87%" stop-color="#F2D353" stop-opacity="1" /><stop offset="100%" stop-color="#F2B947" stop-opacity="1" /></linearGradient><path d="M119.2 299.9 C119 300.2 118.9 300.6 118.9 301 C118.9 305.5 132.9 309.2 150.3 309.2 C167.7 309.2 181.7 305.5 181.7 301 C181.7 300.6 181.6 300.3 181.4 299.9 C182 300.5 182.4 301.2 182.4 301.9 C182.4 306.4 168 310.1 150.3 310.1 C132.6 310.1 118.2 306.4 118.2 301.9 C118.2 301.3 118.6 300.6 119.2 299.9 z" id="y2" style="fill:url(#x2)" /><linearGradient x1="45.196" y1="-121.5895" x2="45.3746" y2="-120.6758" gradientUnits="userSpaceOnUse" gradientTransform="matrix(101.745, 0, 0, 23.94, -4458.332, 3199.41)" id="z2"><stop offset="0%" stop-color="#F8DD61" stop-opacity="1" /><stop offset="100%" stop-color="#EAA330" stop-opacity="1" /></linearGradient><ellipse cx="150.3" cy="300.8" rx="27.8" ry="6.6" id="a3" style="fill:url(#z2)" /><linearGradient x1="45.5694" y1="-134.267" x2="45.0221" y2="-134.267" gradientUnits="userSpaceOnUse" gradientTransform="matrix(101.745, 0, 0, 13.2525, -4458.332, 2077.223)" id="b3"><stop offset="0%" stop-color="#F4CA2F" stop-opacity="1" /><stop offset="51.38%" stop-color="#BF7737" stop-opacity="1" /><stop offset="100%" stop-color="#E4A929" stop-opacity="1" /></linearGradient><path d="M122.6 301.5 C122.5 301.3 122.4 301 122.4 300.8 C122.4 297.2 134.9 294.2 150.2 294.2 C165.5 294.2 178 297.1 178 300.8 C178 301 177.9 301.3 177.8 301.5 C176.3 298.2 164.5 295.6 150.1 295.6 C135.7 295.6 124.1 298.2 122.6 301.5 z" id="c3" style="fill:url(#b3)" /></g></defs><desc>4N9LKL5DGIJ,xdoRDN3zkl3EGJiZwg50ParEpdnEPJ00rVWsl6k6fDlZrxaipytLgRHlHW+ceGvaYESkr7uq1dMkDEc4iAl31YrryH7olHq+l4j3DI+lxxI=</desc></svg>