<?xml version="1.0" encoding="utf-8"?><!DOCTYPE svg PUBLIC "-//W3C//DTD SVG 1.1//EN" "http://www.w3.org/Graphics/SVG/1.1/DTD/svg11.dtd"><svg x="0" y="0" width="340px" height="340px" viewBox="0, 0, 340, 340" preserveAspectRatio="xMidYMid" font-size="0" id="a" enable-background="new 0 0 340 340" xmlns="http://www.w3.org/2000/svg" xmlns:xlink="http://www.w3.org/1999/xlink" xmlns:xml="http://www.w3.org/XML/1998/namespace" version="1.1"><g id="b" fill="#000"><g id="c"><g transform="translate(0, 0) translate(0, 224)" id="d"><ellipse cx="168.6" cy="53.1" rx="57.8" ry="12.8" fill-opacity="0.25" id="e" /></g><g id="f"><g transform="translate(101.3, 69.59998) translate(8, 107)" id="g"><path d="M17.9 35.7 C13.1 32.3 10.5 28 10 21.2 C9.9 20.1 0.7 17.8 0.4 21.9 C0.1 28 2.1 33.7 4.6 38.4 C7.9 44.5 15.6 50.4 23.9 50.4 L33.1 33.8 C29.3 37.3 22.1 38.7 17.9 35.7 z" id="h" fill="#232628" /><path d="M0.4 21.9 C2 23.7 7 22.6 10 21.2 C9.9 20.1 9.9 19 9.9 17.8 C10.1 6.6 20 4.3 17.6 0.8 C15.2 -2.7 5.9 7.2 4.7 9 C1.9 13.4 0.6 17.8 0.4 21.9 z" id="i" fill="#D8D8D8" /><path d="M0.4 21.9 C0.6 17.8 1.9 13.4 4.7 9 C5.9 7.2 15.2 -2.7 17.6 0.8 C20 4.3 10.1 6.6 9.9 17.8 C9.9 19 9.9 20.1 10 21.2 C10.5 28 13.1 32.3 17.9 35.7 C22.1 38.7 29.3 37.3 33.1 33.8 L23.9 50.4 C15.6 50.4 7.9 44.5 4.6 38.4 C2.1 33.7 0.1 28 0.4 21.9 z M5.8 10.5 C3.3 14.5 2.1 18.5 1.9 22.2 C1.6 27.7 3.4 32.9 5.7 37.1 C8.7 42.6 15.7 48 23.2 48 L30.2 36.8 C26.8 40 20.8 39.5 17 36.8 C12.7 33.7 9.7 31.4 9.2 25.3 C9.1 24.3 8.6 19.6 8.6 18.6 C8.9 8.4 19.2 2.4 16.5 0.9 C14.9 -1.2 6.9 8.9 5.8 10.5 z" opacity="0.15" id="j" /></g><g transform="translate(124.5, 269.5) scale(1.028668) translate(-124.5, -269.5) translate(-285, 58.29999) translate(20, 150)" id="k"><path d="M418 16.4 C418 16.4 415.5 9 413.5 8.1 C411.5 7.2 409.1 5.1 402.7 6.1 C396.3 7.1 391.2 9.7 388.3 13.1 C385.4 16.4 382.6 26.3 385.4 31.7 C387.3 35.3 390.5 40 395.1 45.6 C389.5 45.6 386.3 46.1 385.4 47 C384.1 48.4 382.7 53.9 384.1 57 C385.4 60 387.5 64.2 393.6 63.9 C399.7 63.7 414.1 60.2 416.6 59.1 C419.1 58 417.8 40.7 417.8 39.4 C417.7 13 418 16.4 418 16.4 z" id="l" fill="#32363A" /><path d="M418 16.4 C418 16.4 417.7 12.9 417.8 39.4 C417.8 40.7 419.1 58 416.6 59.1 C414.1 60.2 399.7 63.7 393.6 63.9 C387.5 64.2 385.4 60 384.1 57 C382.7 53.9 384.1 48.4 385.4 47 C386.3 46.1 389.5 45.6 395.1 45.6 C390.5 40 387.3 35.3 385.4 31.7 C382.6 26.3 385.4 16.4 388.3 13.1 C391.2 9.7 396.3 7.1 402.7 6.1 C409.1 5.1 411.5 7.2 413.5 8.1 C415.5 9.1 418 16.4 418 16.4 z M416.7 16.6 C416.7 16.6 414.4 9.8 412.5 8.9 C410.6 8 408.4 6.1 402.5 7.1 C396.6 8.1 391.9 10.4 389.3 13.6 C386.6 16.6 384 25.8 386.6 30.8 C388.4 34.1 393.9 41.7 398.2 46.8 C393 46.8 387.9 47.2 387.1 48 C385.9 49.3 384.1 51.2 385.4 54.1 C386.6 56.9 388.5 60.7 394.2 60.5 C399.8 60.3 413.1 57.1 415.4 56.1 C417.7 55.1 416.5 39.1 416.5 37.9 C416.4 13.5 416.7 16.6 416.7 16.6 z" opacity="0.15" id="m" /></g><g transform="translate(215.4, 269.5) scale(1.028668) translate(-215.4, -269.5) translate(-285.5, 58.29999) translate(106.5, 179.5) scale(-1, 1) translate(-106.5, -179.5) translate(89, 150)" id="n"><path d="M-348.6 16.4 C-348.6 16.4 -351.1 9 -353.1 8.1 C-355.1 7.2 -357.5 5.1 -363.9 6.1 C-370.3 7.1 -375.4 9.7 -378.3 13.1 C-381.2 16.4 -384 26.3 -381.2 31.7 C-379.3 35.3 -376.1 40 -371.5 45.6 C-377.1 45.6 -380.3 46.1 -381.2 47 C-382.5 48.4 -383.9 53.9 -382.5 57 C-381.2 60 -379.1 64.2 -373 63.9 C-366.9 63.7 -352.5 60.2 -350 59.1 C-347.5 58 -348.8 40.6 -348.8 39.3 C-348.8 13 -348.6 16.4 -348.6 16.4 z" id="o" fill="#32363A" /><path d="M-348.6 16.4 C-348.6 16.4 -348.8 12.9 -348.8 39.3 C-348.8 40.6 -347.5 58 -350 59.1 C-352.5 60.2 -366.9 63.7 -373 63.9 C-379.1 64.2 -381.2 60 -382.5 57 C-383.9 53.9 -382.5 48.4 -381.2 47 C-380.3 46.1 -377.1 45.6 -371.5 45.6 C-376.1 40 -379.3 35.3 -381.2 31.7 C-384 26.3 -381.2 16.4 -378.3 13.1 C-375.4 9.7 -370.3 7.1 -363.9 6.1 C-357.5 5.1 -355.1 7.2 -353.1 8.1 C-351.1 9.1 -348.6 16.4 -348.6 16.4 z M-350 16.5 C-350 16.5 -352.3 9.7 -354.1 8.9 C-355.9 8.1 -358.1 6.1 -364 7.1 C-369.9 8.1 -374.6 10.3 -377.3 13.5 C-380 16.5 -382.5 25.6 -380 30.6 C-378.2 33.9 -373.6 41.1 -369.3 46.3 C-374.4 46.3 -379 47.1 -379.8 48 C-381 49.3 -382.4 51 -381.1 53.9 C-379.9 56.7 -378 60.5 -372.4 60.2 C-366.8 60 -353.5 56.8 -351.2 55.8 C-348.9 54.8 -350.1 38.8 -350.1 37.6 C-350.2 13.4 -350 16.5 -350 16.5 z" opacity="0.15" id="p" /></g><g transform="translate(104.3, 92.09998) translate(20, 65)" id="q"><path d="M85.6 52.6 C84.9 39.4 82.9 36.4 79.1 28 C77.8 25 76.2 22.2 74.6 19.6 C71.9 15.2 68.7 13.4 67.3 10 C64.8 4 60.4 3.2 45.5 3.2 C30.7 3.2 27.2 3.2 24.7 9.2 C23.4 12.4 19.3 14.8 16.7 19.1 C15 21.8 13.4 24.8 11.9 28 C8.1 36.5 6.1 39.5 5.4 52.6 C4.4 70.2 10.5 94.3 17.7 109.3 C20.2 114.5 25.5 118.2 29.1 119 C35.7 120.4 41.6 120.8 45.4 120.7 C49.3 120.8 55.2 120.4 61.7 119 C65.3 118.2 70.6 114.5 73.1 109.3 C80.4 94.2 86.5 70.2 85.6 52.6 z" id="r" fill="#32363A" /><path d="M67.9 7.9 C65.4 1.9 60.3 0.1 45.5 0.1 C30.7 0.1 25.5 1.9 23.1 7.9 C21.8 11.1 19.3 14.8 16.7 19 C18.9 25 34.4 33.5 45.5 35.4 C56.6 33.5 72.1 25 74.3 19 C71.7 14.8 69.3 11.1 67.9 7.9 z" id="s" fill="#965622" /><path d="M67.9 7.9 C65.4 1.9 60.3 0.1 45.5 0.1 C30.7 0.1 25.5 1.9 23.1 7.9 C21.8 11.1 19.3 14.8 16.7 19 C18.9 25 34.4 33.5 45.5 35.4 C56.6 33.5 72.1 25 74.3 19 C71.7 14.8 69.3 11.1 67.9 7.9 z" opacity="0.15" id="t" fill="#965622" /><path d="M16.7 19.1 C16.7 19 16.7 19 16.7 19 C19.3 14.8 21.8 11.1 23.1 7.9 C25.5 1.9 30.7 0.1 45.5 0.1 C60.3 0.1 65.4 1.9 67.9 7.9 C69.3 11.1 71.7 14.8 74.3 19 C74.3 19 74.3 19.1 74.3 19.1 C74.4 19.2 74.5 19.4 74.6 19.6 C76.2 22.2 77.8 25 79.1 28 C82.9 36.4 84.9 39.4 85.6 52.6 C86.5 70.2 80.4 94.2 73.1 109.3 C70.6 114.5 65.3 118.2 61.7 119 C55.2 120.4 49.3 120.8 45.4 120.7 C41.6 120.8 35.7 120.4 29.1 119 C25.5 118.2 20.2 114.5 17.7 109.3 C10.5 94.3 4.4 70.2 5.4 52.6 C6.1 39.5 8.1 36.5 11.9 28 C13.4 24.8 15 21.8 16.7 19.1 C16.7 19.1 16.7 19.1 16.7 19.1 z M17.9 19.7 C17.9 19.8 17.9 19.8 17.9 19.8 C16.2 22.4 14.7 25.2 13.3 28.3 C9.6 36.5 7.7 39.3 7 51.9 C6.1 68.8 11.9 91.9 18.8 106.3 C21.2 111.3 26.3 114.9 29.8 115.6 C36.1 117 41.8 117.3 45.4 117.3 C49.1 117.3 54.8 117 61 115.6 C64.5 114.9 69.6 111.3 72 106.3 C79 91.8 84.8 68.8 84 51.9 C83.3 39.3 81.4 36.4 77.7 28.3 C76.5 25.4 75 22.8 73.4 20.3 C73.3 20.1 73.2 19.9 73.1 19.8 C73.1 19.7 73.1 19.7 73.1 19.7 C70.6 15.7 68.3 12.1 67 9 C64.6 3.3 59.7 1.6 45.5 1.6 C31.3 1.6 26.3 3.3 24 9 C22.8 12.1 20.4 15.7 17.9 19.7 C17.9 19.7 17.9 19.7 17.9 19.7 z" opacity="0.15" id="u" /></g><g fill-rule="evenOdd" transform="translate(129.5014, 190.96) scale(0.8747003, 0.7870231) translate(-123.7, -165) translate(86.10001, 76.99998) translate(83.5, 146.5) scale(-1, 1) translate(-83.5, -146.5) translate(37, 88)" id="v"><path d="M85.7 0.8 C88.7 7.4 91 19.3 91.5 22.3 C91.7 23.4 92.2 25.3 92.2 26.6 C92.2 28.3 92.4 30.4 92.2 32.3 C92.1 33.8 91.6 36.7 91.5 38.1 C91.4 39.5 90.8 38.3 90.6 39.6 C90.5 39.9 90.5 40.2 90.4 40.4 C90 42 89.7 44.6 89.4 45.9 C89.2 47 89 46.8 88.7 48 C88.4 49.3 88.1 55.7 87.6 57.3 C87.1 58.9 86.5 55.7 85.7 58 C85.4 59 85 60 84.6 61.1 C84.2 62.1 84.1 66.2 83.6 67.4 C83.2 68.4 82.6 66.5 82.2 67.7 C81.8 68.9 81.9 74.3 81.4 75.7 C80.9 77.3 79.7 74.8 79.2 76.6 C78.8 77.8 78.8 84.5 78.4 85.8 C78 87.2 77.3 83.2 76.9 84.6 C76.7 85.6 76.4 86.5 76.2 87.5 C75.9 88.6 75.7 89.8 75.4 91 C75 93 74.6 95 74.2 97.1 C73.9 98.9 73.6 100.8 73.4 102.8 C73.2 104.4 77.3 102.5 80.3 106 C83.3 109.5 83.1 115.5 78.9 116.6 C74.7 117.7 58.9 113.8 57.2 111.6 C56.8 111.1 56.4 108.3 56.2 103.9 C56.1 102 56.8 99 56.7 96.6 C56.7 95.2 57.2 92.5 57.2 91 C57.2 89.1 55 94.1 55 92.1 C55 90.7 56.2 81.7 56.2 80.2 C56.2 77.8 55.6 77.9 56 75.5 C56.2 74.1 57.1 71.4 57.1 70.7 C57.1 68.2 54.9 75.4 55 72.8 C55 72.6 54.4 68.7 56 65 C56.7 63.3 56.6 61.3 56.8 59.6 C56.9 58.1 57 56.6 57.1 55.3 C57.3 52.2 57.4 49.8 57.3 48.9 C56.9 49.2 54.5 54 54.1 54.3 C53.4 54.8 54.7 50.7 54.1 51.2 C53.4 51.7 52.1 54.4 50.7 57.8 C49.3 61.3 50 56.7 49.5 57.1 C48.1 58.4 48.1 62.7 47.6 64.1 C47.2 65.3 46.1 67.4 45.8 67.1 C45.4 66.7 45.5 64.9 45.1 63.5 C44.7 61.9 44 60.5 44 59.5 C44 59.1 44.2 61.8 43.3 61.2 C42.4 60.6 40 53.3 39 52.1 C38.4 51.4 38.5 54.5 38.1 54.2 C37.3 53.7 36 50.3 35.5 49.7 C35.2 50.6 35.2 52.8 35.2 55.6 C35.2 57.8 36.6 65.6 36.7 68.4 C36.7 69.9 35.2 66.8 35.2 68.4 C35.2 69.9 34.9 71.8 34.9 72.1 C34.9 73.7 35.1 77.2 35.6 80.9 C36 84.3 36.7 87.9 36.7 89.4 C36.7 92.6 34.9 87.8 34.9 90.8 C34.9 92.2 35.6 95.1 35.5 96.4 C35.4 98.8 35.3 101.1 35.2 103 C35.1 104.7 35 106.1 34.8 107.4 C34.5 109.7 34.2 111.1 33.8 111.4 C31.2 112.9 21 117.9 12.2 116.4 C8.3 114.2 9.6 108.5 12.5 105.1 C15.4 101.7 19.7 104.1 19.5 101.5 C19.3 99 18.6 95.6 17.7 91.9 C17.5 90.9 17.2 89.9 16.9 88.8 C16.7 88 16.4 87.1 16.2 86.2 C15.8 84.7 15.3 83.2 14.9 81.6 C14.5 80.2 14.3 84.4 13.8 83 C13.4 81.9 12.8 75.1 12.5 74 C12.1 72.8 11.7 71.7 11.4 70.6 C11.1 69.7 10.5 72.1 10.2 71.2 C9.7 69.9 9.5 65.3 9.1 64.1 C8.7 62.9 8.3 61.9 7.9 60.9 C7.6 60 7.1 61.7 6.8 60.9 C6.2 59.4 5.8 55.5 5.4 54.2 C5 53 4.6 54.4 4.2 53.2 C3.9 52.1 3.5 48.4 3.2 47.3 C2.8 45.7 3.5 46.3 3.2 44.5 C3 43.3 2.6 42.5 1.2 37.8 C-0.2 33.1 0.5 21.8 0.7 19.8 C0.8 18.3 1.2 15 1.4 13.6 C2.2 7.8 4.2 4.3 5.7 1.4 C6 0.8 6.5 0 6.8 0.5 C7.6 1.7 7.9 4.3 8.7 6.6 C8.8 7.2 8.9 7.7 9 7.9 C10 10.1 10.8 12.4 11.6 14.4 C11.6 14.7 11.7 14.9 11.7 15 C12.4 16.4 13 17.5 13.5 18.4 C13.7 18.9 13.8 18.9 13.8 18.9 C14 19.2 14.2 19.5 14.4 19.7 C14.8 20.1 15.2 20.5 15.6 21 C15.7 21.8 15.9 22.5 16 22.7 C16.2 23 16.6 22.7 16.9 22.4 C17.3 22.8 17.7 23.1 18.1 23.5 C18.2 24.4 18.3 25.4 18.6 25.7 C18.8 25.9 18.9 25.3 19.1 24.5 C19.6 25 20.1 25.4 20.6 25.8 C20.9 27.7 21.4 29 21.8 29.4 C22.4 30 22.6 28.4 23.2 29 C23.8 29.5 24.6 33.5 25.2 34 C25.5 34.3 26.4 31.6 26.9 30.5 C27.2 30.7 27.4 30.8 27.7 31 C28 32.3 28.1 34.6 28.5 34.9 C28.9 35.2 28.7 33.4 29.1 33.7 C29.7 34.1 29.8 40.3 30.7 38.9 C31.6 37.5 31.2 35 31.3 35.1 C32 35.5 33.5 41.8 34.2 42.1 C34.5 42.3 35.1 41.5 35.2 40 C35.3 38.8 34.9 37 35.2 37.1 C35.8 37.4 36.7 38.3 37.3 40 C38 42.1 38.4 45.1 39.1 45.3 C39.7 45.5 40 43.4 40.4 41.3 C40.8 39.2 41.1 37.1 41.7 37.1 C42.3 37.2 42.5 40.6 42.4 42.5 C42.3 44.8 43.2 49.7 43.9 49.7 C44.1 49.7 44 45.1 44.9 43 C45.8 40.9 46.9 38.1 47.2 38.1 C47.5 38.1 48 40.7 48.1 42.1 C48.3 43.9 48.6 45.6 49 45.3 C49.6 44.8 51.6 37.2 51.9 37.1 C52.4 37 52 44.2 53.7 43.9 C53.8 43.9 54.9 42.2 55 42.1 C57 40.8 58.8 35.4 59.2 35.2 C59.6 35 58.8 38.8 59.2 38.6 C59.3 38.5 61.9 32.1 62.6 31.6 C63.1 31.3 63.4 35.2 63.8 34.9 C64.1 34.7 65.6 33.5 66.2 31.6 C66.5 30.7 66.6 29.7 66.6 28.9 C67 28.6 67.4 28.4 67.8 28.1 C67.9 28.4 67.9 28.7 67.9 29.1 C68 30.4 67.7 32.4 67.9 32.2 C68.8 31.6 70 28.6 71.4 26.7 C72.5 25.2 72.6 28.7 73.3 27.9 C73.6 27.6 74.2 26.3 74.7 25.1 C75.2 23.6 75.7 22.1 76.1 21.6 C76.6 21 76.4 24.7 76.9 24.1 C77.2 23.6 78.7 18.9 79 18.4 C79.3 17.9 79.9 20.1 80.2 19.6 C80.4 19.2 81.3 15.3 81.5 14.9 C81.7 14.6 81.7 15.9 81.8 15.6 C82 15.3 81.9 12.6 82.4 13.3 C83 13.9 83.4 11.2 84 9.6 C84.4 8.6 84.7 6.5 85 4.3 C85.5 3.8 85.4 1.1 85.7 0.8 z" id="w" fill="#FEFEFE" /><path d="M85.7 0.8 C88.7 7.4 91 19.3 91.5 22.3 C91.7 23.4 92.2 25.3 92.2 26.6 C92.2 28.3 92.4 30.4 92.2 32.3 C92.1 33.8 91.6 36.7 91.5 38.1 C91.4 39.5 90.8 38.3 90.6 39.6 C90.5 39.9 90.5 40.2 90.4 40.4 C90 42 89.7 44.6 89.4 45.9 C89.2 47 89 46.8 88.7 48 C88.4 49.3 88.1 55.7 87.6 57.3 C87.1 58.9 86.5 55.7 85.7 58 C85.4 59 85 60 84.6 61.1 C84.2 62.1 84.1 66.2 83.6 67.4 C83.2 68.4 82.6 66.5 82.2 67.7 C81.8 68.9 81.9 74.3 81.4 75.7 C80.9 77.3 79.7 74.8 79.2 76.6 C78.8 77.8 78.8 84.5 78.4 85.8 C78 87.2 77.3 83.2 76.9 84.6 C76.7 85.6 76.4 86.5 76.2 87.5 C75.9 88.6 75.7 89.8 75.4 91 C75 93 74.6 95 74.2 97.1 C73.9 98.9 73.6 100.8 73.4 102.8 C73.2 104.4 77.3 102.5 80.3 106 C83.3 109.5 83.1 115.5 78.9 116.6 C74.7 117.7 58.9 113.8 57.2 111.6 C56.8 111.1 56.4 108.3 56.2 103.9 C56.1 102 56.8 99 56.7 96.6 C56.7 95.2 57.2 92.5 57.2 91 C57.2 89.1 55 94.1 55 92.1 C55 90.7 56.2 81.7 56.2 80.2 C56.2 77.8 55.6 77.9 56 75.5 C56.2 74.1 57.1 71.4 57.1 70.7 C57.1 68.2 54.9 75.4 55 72.8 C55 72.6 54.4 68.7 56 65 C56.7 63.3 56.6 61.3 56.8 59.6 C56.9 58.1 57 56.6 57.1 55.3 C57.3 52.2 57.4 49.8 57.3 48.9 C56.9 49.2 54.5 54 54.1 54.3 C53.4 54.8 54.7 50.7 54.1 51.2 C53.4 51.7 52.1 54.4 50.7 57.8 C49.3 61.3 50 56.7 49.5 57.1 C48.1 58.4 48.1 62.7 47.6 64.1 C47.2 65.3 46.1 67.4 45.8 67.1 C45.4 66.7 45.5 64.9 45.1 63.5 C44.7 61.9 44 60.5 44 59.5 C44 59.1 44.2 61.8 43.3 61.2 C42.4 60.6 40 53.3 39 52.1 C38.4 51.4 38.5 54.5 38.1 54.2 C37.3 53.7 36 50.3 35.5 49.7 C35.2 50.6 35.2 52.8 35.2 55.6 C35.2 57.8 36.6 65.6 36.7 68.4 C36.7 69.9 35.2 66.8 35.2 68.4 C35.2 69.9 34.9 71.8 34.9 72.1 C34.9 73.7 35.1 77.2 35.6 80.9 C36 84.3 36.7 87.9 36.7 89.4 C36.7 92.6 34.9 87.8 34.9 90.8 C34.9 92.2 35.6 95.1 35.5 96.4 C35.4 98.8 35.3 101.1 35.2 103 C35.1 104.7 35 106.1 34.8 107.4 C34.5 109.7 34.2 111.1 33.8 111.4 C31.2 112.9 21 117.9 12.2 116.4 C8.3 114.2 9.6 108.5 12.5 105.1 C15.4 101.7 19.7 104.1 19.5 101.5 C19.3 99 18.6 95.6 17.7 91.9 C17.5 90.9 17.2 89.9 16.9 88.8 C16.7 88 16.4 87.1 16.2 86.2 C15.8 84.7 15.3 83.2 14.9 81.6 C14.5 80.2 14.3 84.4 13.8 83 C13.4 81.9 12.8 75.1 12.5 74 C12.1 72.8 11.7 71.7 11.4 70.6 C11.1 69.7 10.5 72.1 10.2 71.2 C9.7 69.9 9.5 65.3 9.1 64.1 C8.7 62.9 8.3 61.9 7.9 60.9 C7.6 60 7.1 61.7 6.8 60.9 C6.2 59.4 5.8 55.5 5.4 54.2 C5 53 4.6 54.4 4.2 53.2 C3.9 52.1 3.5 48.4 3.2 47.3 C2.8 45.7 3.5 46.3 3.2 44.5 C3 43.3 2.6 42.5 1.2 37.8 C-0.2 33.1 0.5 21.8 0.7 19.8 C0.8 18.3 1.2 15 1.4 13.6 C2.2 7.8 4.2 4.3 5.7 1.4 C6 0.8 6.5 0 6.8 0.5 C7.6 1.7 7.9 4.3 8.7 6.6 C8.8 7.2 8.9 7.7 9 7.9 C10 10.1 10.8 12.4 11.6 14.4 C11.6 14.7 11.7 14.9 11.7 15 C12.4 16.4 13 17.5 13.5 18.4 C13.7 18.9 13.8 18.9 13.8 18.9 C14 19.2 14.2 19.5 14.4 19.7 C14.8 20.1 15.2 20.5 15.6 21 C15.7 21.8 15.9 22.5 16 22.7 C16.2 23 16.6 22.7 16.9 22.4 C17.3 22.8 17.7 23.1 18.1 23.5 C18.2 24.4 18.3 25.4 18.6 25.7 C18.8 25.9 18.9 25.3 19.1 24.5 C19.6 25 20.1 25.4 20.6 25.8 C20.9 27.7 21.4 29 21.8 29.4 C22.4 30 22.6 28.4 23.2 29 C23.8 29.5 24.6 33.5 25.2 34 C25.5 34.3 26.4 31.6 26.9 30.5 C27.2 30.7 27.4 30.8 27.7 31 C28 32.3 28.1 34.6 28.5 34.9 C28.9 35.2 28.7 33.4 29.1 33.7 C29.7 34.1 29.8 40.3 30.7 38.9 C31.6 37.5 31.2 35 31.3 35.1 C32 35.5 33.5 41.8 34.2 42.1 C34.5 42.3 35.1 41.5 35.2 40 C35.3 38.8 34.9 37 35.2 37.1 C35.8 37.4 36.7 38.3 37.3 40 C38 42.1 38.4 45.1 39.1 45.3 C39.7 45.5 40 43.4 40.4 41.3 C40.8 39.2 41.1 37.1 41.7 37.1 C42.3 37.2 42.5 40.6 42.4 42.5 C42.3 44.8 43.2 49.7 43.9 49.7 C44.1 49.7 44 45.1 44.9 43 C45.8 40.9 46.9 38.1 47.2 38.1 C47.5 38.1 48 40.7 48.1 42.1 C48.3 43.9 48.6 45.6 49 45.3 C49.6 44.8 51.6 37.2 51.9 37.1 C52.4 37 52 44.2 53.7 43.9 C53.8 43.9 54.9 42.2 55 42.1 C57 40.8 58.8 35.4 59.2 35.2 C59.6 35 58.8 38.8 59.2 38.6 C59.3 38.5 61.9 32.1 62.6 31.6 C63.1 31.3 63.4 35.2 63.8 34.9 C64.1 34.7 65.6 33.5 66.2 31.6 C66.5 30.7 66.6 29.7 66.6 28.9 C67 28.6 67.4 28.4 67.8 28.1 C67.9 28.4 67.9 28.7 67.9 29.1 C68 30.4 67.7 32.4 67.9 32.2 C68.8 31.6 70 28.6 71.4 26.7 C72.5 25.2 72.6 28.7 73.3 27.9 C73.6 27.6 74.2 26.3 74.7 25.1 C75.2 23.6 75.7 22.1 76.1 21.6 C76.6 21 76.4 24.7 76.9 24.1 C77.2 23.6 78.7 18.9 79 18.4 C79.3 17.9 79.9 20.1 80.2 19.6 C80.4 19.2 81.3 15.3 81.5 14.9 C81.7 14.6 81.7 15.9 81.8 15.6 C82 15.3 81.9 12.6 82.4 13.3 C83 13.9 83.4 11.2 84 9.6 C84.4 8.6 84.7 6.5 85 4.3 C85.5 3.8 85.4 1.1 85.7 0.8 z M85.9 6.5 C85.6 6.8 85 10.4 84.6 10.9 C84.3 12.9 83.2 14.4 82.8 15.3 C82.2 16.8 82.1 19.9 81.5 19.4 C81.1 18.7 80.9 21.2 80.7 21.5 C80.6 21.8 79.4 20.3 79.2 20.6 C79 20.9 78.6 22.5 78.4 22.9 C78.1 23.3 77 25.9 76.8 26.4 C76.5 26.8 76 24.3 75.7 24.8 C75.2 25.3 75.4 28.2 74.9 28.8 C74.5 29.3 73.4 28 72.9 29.4 C72.4 30.5 71.8 28.7 71.6 29 C70.9 29.8 70.2 30.4 69.1 31.8 C67.8 33.6 68.1 33.4 67.2 33.9 C67 34.1 66.9 32.5 66.8 31.3 C66.8 30.9 65.6 35.1 65.3 35.3 C65.3 36.1 64.3 34.5 64 35.3 C63.4 37.1 62.8 36.5 62.5 36.7 C62.1 37 62.9 35.1 62.5 35.3 C61.8 35.8 60 41.2 59.9 41.3 C59.5 41.5 58.5 39.4 58.1 39.6 C57.7 39.8 56.9 43.1 55 44.3 C54.9 44.4 53.3 44.9 53.2 44.9 C51.6 45.1 51.8 41.1 51.4 41.2 C51.1 41.3 49.6 47.2 49 47.7 C48.7 48 47.6 45.4 47.4 43.8 C47.3 42.4 47.4 40.7 47.1 40.7 C46.8 40.7 46.6 43.8 45.8 45.8 C44.9 47.7 43.9 51.4 43.7 51.4 C43.1 51.4 41.5 46.3 41.6 44.2 C41.7 42.4 42.2 39 41.6 38.9 C41.1 38.9 41.2 40.5 40.8 42.4 C40.4 44.4 39.8 47.6 39.2 47.4 C38.6 47.3 37.5 44.3 36.9 42.3 C36.3 40.7 36.5 38.8 35.9 38.5 C35.7 38.4 36 40.1 35.9 41.2 C35.8 42.6 35.5 43.9 34.1 43.9 C32.7 43.5 32.5 38.6 31.8 38.3 C31.8 38.2 31.9 39.6 31.1 40.9 C30.2 42.2 29.5 37.7 28.9 37.3 C28.5 37 28.2 38.2 27.3 37.3 C26.5 36.4 27.8 34.7 27.5 33.5 C27.2 33.3 27.2 33 26.9 32.8 C26.5 33.9 25 36 24.7 35.7 C24.2 35.3 23.7 31.3 23.1 30.8 C22.6 30.3 21.9 31.4 21.3 30.8 C20.9 30.5 19.7 27.2 19.6 26.4 C19.2 26 18.6 27.8 18.2 27.4 C17.9 27.7 17.2 25.3 17 25.1 C16.9 24.9 17.1 24.4 17 23.7 C16.6 23.2 16 24.3 15.7 23.9 C15.5 23.7 14.2 21.3 14 20.9 C13.5 20 11.9 17.8 11.9 17.6 C11.2 15.7 10.7 14.4 9.7 12.4 C9.7 12.2 7.7 6.8 7 5.6 C6.7 5.2 5.8 4.2 5.5 4.7 C4.9 6 3.6 8.7 2.8 12.4 C1.9 16.7 1.7 22.1 1.6 22.9 C1.4 24.7 2.9 34.8 4.2 39.2 C5.5 43.6 5.8 44.3 6 45.4 C6.3 47.1 5.7 46.5 6 48 C6.3 49.1 6.7 52.5 7 53.6 C7.3 54.7 7.7 53.4 8.1 54.5 C8.5 55.7 8.8 59.3 9.4 60.7 C9.7 61.5 10.1 59.9 10.4 60.7 C10.8 61.7 11.2 62.6 11.5 63.7 C11.9 64.9 12.1 69.2 12.6 70.4 C12.9 71.2 13.4 69 13.7 69.8 C14 70.8 14.4 71.9 14.7 73 C15 74 15.6 80.4 15.9 81.4 C16.4 82.7 16.6 78.8 17 80.1 C17.3 81.6 17.8 83 18.2 84.4 C18.4 85.2 18.6 86.1 18.8 86.8 C19.1 87.8 19.4 88.8 19.6 89.7 C20.4 93.2 21.1 101.4 21.3 103.8 C21.5 106.2 16.7 102.7 14 105.9 C11.3 109.1 10.8 110.5 14.4 112.6 C22.7 114 30.6 110.6 33 109.2 C33.4 108.9 33.5 105.6 33.7 103.5 C33.9 102.3 33.4 94.5 33.5 92.2 C33.6 91 33.6 89.5 33.6 88.2 C33.6 85.4 35 90.4 35 87.5 C35 86.1 34.5 82 34.1 78.8 C33.6 75.3 33.5 73 33.5 71.5 C33.5 71.2 34.1 68.9 34.1 67.5 C34.1 66 35.4 67.9 35.4 66.5 C35.3 63.9 34.1 57.3 34.1 55.2 C34.1 52.6 34 47.2 34.3 46.3 C34.7 46.9 37.1 51.5 37.8 52 C38.2 52.2 38.5 49.9 39 50.6 C40 51.7 42.2 58.3 43 58.9 C43.9 59.4 44 56.8 44 57.2 C44 58.1 45.1 60.7 45.5 62.2 C45.8 63.5 45.7 65.1 46.1 65.5 C46.4 65.7 46.7 63.6 47.1 62.5 C47.6 61.2 48.1 56.2 49.4 55 C49.9 54.6 49.8 58.7 51.1 55.4 C52.4 52.2 53.7 48.7 54.4 48.2 C55 47.8 54.2 51.1 54.9 50.6 C55.3 50.4 58.7 44.8 59.1 44.5 C59.2 45.4 58.5 51.6 58.4 54.5 C58.3 55.7 58 59.5 57.9 60.9 C57.7 62.5 57.5 63.5 56.9 65.1 C55.4 68.5 55.6 69.4 55.6 69.6 C55.5 72 58.4 66.9 58.4 69.2 C58.4 69.9 57.6 73.3 57.5 74.6 C57.1 76.8 57.5 77.8 57.5 80.1 C57.5 81.5 56 87.9 56 89.2 C56 91.1 59.1 87.1 59.1 88.9 C59.1 90.3 57.9 94.4 57.9 95.7 C58 97.9 57.4 101.7 57.5 103.5 C57.6 107.6 57.5 108.1 57.9 108.6 C59.5 110.6 72.8 113.8 76.8 112.8 C80.7 111.8 80.8 109.2 78 105.9 C75.2 102.6 71 106.1 71.2 104.6 C71.4 102.7 72.1 96.2 72.4 94.6 C72.7 92.6 73.1 90.7 73.5 88.9 C73.8 87.7 74 86.6 74.2 85.6 C74.4 84.7 74.7 83.8 74.9 82.9 C75.3 81.6 76.5 83.8 76.9 82.4 C77.2 81.2 76.8 75.7 77.2 74.6 C77.6 72.9 78.7 75.4 79.2 73.9 C79.7 72.6 79.5 68.2 79.8 67.1 C80.2 66 81.1 66.7 81.5 65.7 C82 64.6 81.7 61.9 82.1 60.9 C82.5 59.9 83.2 58.1 83.4 57.2 C84.2 55 85.4 56.9 85.9 55.4 C86.4 53.9 85.6 49.9 85.9 48.7 C86.2 47.6 86.4 47.8 86.6 46.7 C86.8 45.5 87.1 43.1 87.5 41.6 C87.6 41.4 87.6 41.1 87.7 40.8 C87.9 39.6 88.4 40.8 88.5 39.4 C88.6 38.1 89.1 35.4 89.2 34 C89.4 32.3 89.2 30.3 89.2 28.7 C89.2 27.5 89.4 23.9 89.2 22.9 C88.7 20.1 88.7 12.7 85.9 6.5 z" opacity="0.4" id="x" /></g></g><g transform="translate(169.6, 188) scale(0.9552238) translate(-169.6, -188)" id="y"><g transform="translate(98.00001, 70.89997) translate(30, 28)" id="z"><g id="a1"><path d="M25.3 87.5 C28.4 87.8 32.5 88 35 86.7 C37.7 85.3 39.2 83.9 41.4 81.5 C43.9 85 46 86.1 49.2 87.5 C52.2 88.9 56.2 87.9 58.7 87.2 C61.2 86.4 66.9 83.2 67.5 79.5 C68.2 75.3 68.7 70.2 66.8 63.2 C65.2 57.1 57.5 53.8 53.8 49.9 C51.1 47 47.5 36.3 47.2 34.6 C46.4 31.2 46.5 27.6 47.7 20.5 C48.9 12.9 53.8 10.5 53.8 8 C53.8 5.6 48.7 10 42.5 10.1 C36.4 10.2 29.7 4.7 29.7 8 C29.7 11.4 34.7 13.8 35.7 19.5 C36.7 25.2 36.7 28.1 35.7 34 C35.1 37.5 31.6 47.8 28.3 50.4 C22.6 54.9 15.7 59.4 15.1 65.9 C14.5 72.6 13.8 76.4 15.7 80.1 C18 84.9 22.2 87.1 25.3 87.5 z" id="b1" fill="#594F46" /><path d="M41.4 1.3 C51.8 1.3 50.7 0.2 54.1 -0.5 C57.5 -1.2 67.3 8.9 71.2 13.2 C75.1 17.5 77.7 25 79.9 29.5 C82.1 34 80.7 43 82.4 52.4 C83.4 58.1 85.2 62.5 83.8 68.2 C82.9 72 80.7 77.3 76 81.2 C60.7 93.6 47.9 95.2 41.4 95.5 C35 95.8 18.6 90.1 8.1 81.4 C3.1 77.2 0.5 72.5 -0.2 68.4 C-1 64 0.4 60.1 1.4 52.6 C3.3 38.1 3.2 39.6 3.1 31.6 C2.7 23 22.7 0.8 26.8 -0.6 C30.9 -2 31.2 1.3 41.4 1.3 z" id="c1" fill="#474B4F" /><path d="M47.4 5.1 C50.5 4.7 53.8 1.9 54.4 1.9 C55.9 1.9 68.9 12.7 71.3 16.5 C73.7 20.5 78.7 27.9 79.1 28.3 C79.1 28.3 79.2 28.3 79.3 28.3 C77.2 23.6 74.7 17.1 71.1 13.2 C67.3 8.8 57.6 -1.3 54.2 -0.6 C50.8 0.1 51.8 1.2 41.5 1.2 C31.2 1.2 30.9 -1.9 26.8 -0.6 C23.6 0.4 10.8 14.1 5.5 24.1 C7.7 21.8 12.7 15.9 17.5 11 C22.1 6.4 26.7 2.4 27.5 2.1 C29.3 1.4 31.5 4.9 37 5.2 C38.1 8 41.1 14.7 41 15.6 C40.8 17.7 41.6 23.6 41 25.6 C39 32.5 34.7 34.5 31.4 37 C26 35.6 22 32.8 18.6 34.9 C15.2 36.9 13.1 40.3 15.3 44.3 C16.5 48.1 20.5 51.3 20.4 56.2 C19.5 58.2 14.5 61.8 10.1 63.6 C11.4 65.7 12.5 67.1 13.4 67.9 C15.4 69.6 19.6 76 20.4 78.7 C21.5 82.6 22.7 85.8 26.6 88.9 C29.7 89.7 34.9 89.8 42.1 89.1 C49.4 89.8 54.6 89.7 57.6 88.9 C64.3 85.2 62.4 84.8 63.5 80.9 C64.3 78.2 68.8 69.6 70.8 67.9 C71.7 67.1 72.8 65.7 74.1 63.6 C69.7 61.8 65.5 59 64.6 57 C63.7 55 64.3 54.6 65.6 50.8 C70.3 45.2 71.4 37.2 65.6 35.1 C59.8 33 58.2 35.8 52.8 37.2 C49.5 34.7 45.1 32.7 43.2 25.8 C42.6 23.8 43.4 17.9 43.2 15.8 C43.1 14.9 46.1 8 47.2 5.2 C47.2 5.2 47.3 5.1 47.4 5.1 z" id="d1" fill="#32363A" /><path d="M41.4 1.3 C51.8 1.3 50.7 0.2 54.1 -0.5 C57.5 -1.2 67.3 8.9 71.2 13.2 C75.1 17.5 77.7 25 79.9 29.5 C82.1 34 80.7 43 82.4 52.4 C83.4 58.1 85.2 62.5 83.8 68.2 C82.9 72 80.7 77.3 76 81.2 C60.7 93.6 47.9 95.2 41.4 95.5 C35 95.8 18.6 90.1 8.1 81.4 C3.1 77.2 0.5 72.5 -0.2 68.4 C-1 64 0.4 60.1 1.4 52.6 C3.3 38.1 3.2 39.6 3.1 31.6 C2.7 23 22.7 0.8 26.8 -0.6 C30.9 -2 31.2 1.3 41.4 1.3 z M41.4 2.1 C31.5 2.1 31.2 -1.1 27.4 0.3 C23.6 1.7 4.3 23 4.7 31.1 C4.8 38.9 4.9 37.3 3.1 51.3 C2.1 58.6 0.8 62.3 1.6 66.5 C2.3 70.4 4.8 75 9.6 79 C19.6 87.4 35.4 92.8 41.5 92.5 C47.7 92.2 59.9 90.7 74.7 79 C79.2 75.3 81.3 70.2 82.2 66.5 C83.5 60.9 81.8 56.7 80.9 51.3 C79.3 42.3 80.6 33.7 78.5 29.3 C76.4 24.9 73.8 17.9 70 13.7 C66.2 9.5 56.9 -0.3 53.6 0.4 C50.3 1.1 51.4 2.1 41.4 2.1 z" opacity="0.15" id="e1" /></g></g><g transform="translate(145.6, 116) rotate(-10, 0, 0) scale(0.9) translate(-145.6, -112) translate(98.49999, 66.89997) translate(16, 0)" id="f1"><g transform="translate(31.56164, 28.5) scale(-1, 1) translate(-31.56164, -28.5) translate(9.061636, 0)" id="g1"><path d="M0.2 35 C-0.4 31.9 9.6 27.1 12.5 24 C13.3 23.1 18 19.1 15.2 19.8 C15.6 17.3 18.1 17.5 19.3 16.2 C19.9 15.5 17.3 16.4 18 15.7 C18.5 15.1 22.7 11.7 23.1 11.1 C23.8 10.2 21.7 10.9 22.2 10.2 C26 5.5 25.5 7.2 27.3 5.2 C28.7 3.7 31 1.7 32.1 0.9 C34.5 -0.8 37.7 1.8 38.7 7.9 C38.9 9.5 40.7 13.5 41 15.1 C41.3 16.5 39.9 14.5 40 15.6 C40.1 16.9 42.6 23 41.3 21.8 C40 20.6 41.4 25.2 41.3 26.9 C41.1 31 40 50.1 42.8 41.1 C42.8 43.7 42.4 46.3 41 48.2 C41.6 46.8 43.2 46.6 44.2 45.5 C44.2 49.8 41.6 51.6 40.9 53.6 C40.7 54.2 40.4 54.8 39.7 55.4 C38.5 56.6 34.8 56.5 34.2 55.5 C33.3 53.9 31.7 51.1 29.3 49.2 C26.9 47.3 26.7 43.7 21.3 41.4 C18.8 40.3 15.4 38.3 11.7 37.1 C7.7 35.8 0.5 36.6 0.2 35 z" id="h1" fill="#474B4F" /><path d="M0.2 35 C-0.4 31.9 9.6 27.1 12.5 24 C13.3 23.1 18 19.1 15.2 19.8 C15.6 17.3 18.1 17.5 19.3 16.2 C19.9 15.5 17.3 16.4 18 15.7 C18.5 15.1 22.7 11.7 23.1 11.1 C23.8 10.2 21.7 10.9 22.2 10.2 C26 5.5 25.5 7.2 27.3 5.2 C28.7 3.7 31 1.7 32.1 0.9 C34.5 -0.8 37.7 1.8 38.7 7.9 C38.9 9.5 40.7 13.5 41 15.1 C41.3 16.5 39.9 14.5 40 15.6 C40.1 16.9 42.6 23 41.3 21.8 C40 20.6 41.4 25.2 41.3 26.9 C41.1 31 40 50.1 42.8 41.1 C42.8 43.7 42.4 46.3 41 48.2 C41.6 46.8 43.2 46.6 44.2 45.5 C44.2 49.8 41.6 51.6 40.9 53.6 C40.7 54.2 40.4 54.8 39.7 55.4 C38.5 56.6 34.8 56.5 34.2 55.5 C33.3 53.9 31.7 51.1 29.3 49.2 C26.9 47.3 26.7 43.7 21.3 41.4 C18.8 40.3 15.4 38.3 11.7 37.1 C7.7 35.8 0.5 36.6 0.2 35 z M5 33.3 C5.3 34.7 11.4 34 14.7 35.1 C17.8 36.2 20.7 37.9 22.8 38.9 C27.4 40.9 27.5 44.1 29.6 45.8 C31.6 47.5 33 49.9 33.7 51.3 C34.2 52.2 36.9 53.3 37.9 52.3 C38.5 51.8 42.4 51.2 42.4 47.5 C41.6 48.5 40.1 48.1 39.6 49.3 C40.8 47.6 41.9 46.2 41.9 43.9 C39.5 51.8 40.1 30.7 40.3 27.1 C40.4 25.6 39.2 19.3 40.3 20.4 C41.4 21.5 38.4 15 38.3 13.8 C38.2 12.8 39.9 14.7 39.6 13.5 C39.3 12.1 37.6 10.8 37.4 9.4 C36.6 4 34.5 0.3 32.4 1.8 C31.5 2.5 28.9 4.6 27.7 5.9 C26.2 7.7 26.9 5.4 23.7 9.6 C23.3 10.2 25.5 10.2 24.9 11 C24.6 11.5 20.7 14.9 20.2 15.4 C19.6 16 22 15.3 21.5 15.9 C20.5 17 17.9 17.3 17.6 19.5 C20 18.9 15.8 22.8 15.1 23.6 C13 26.3 4.5 30.5 5 33.3 z" opacity="0.15" id="i1" /><path d="M15.1 33.9 C13 33.2 12.7 33.4 12.9 32.2 C13 31.5 15.6 29.8 17.9 26.4 C18.7 25.2 18.3 27.9 18.9 26.4 C19.7 24.6 20.5 22.2 21 21.3 C21.6 20.3 21.1 23.1 22.1 21.3 C22.3 20.9 23.1 17 23.4 16.4 C24 15.3 24.1 17.7 24.5 16.4 C25 14.5 25.7 13.7 26.8 11.9 C28.2 9.6 29.9 6.6 30.5 6.4 C32.8 5.4 34.5 8.4 35.2 11.9 C35.9 15.4 35.8 17.6 37.1 20 C38.4 22.4 38.7 22.5 38.4 28.5 C38.1 34.5 36.2 35.9 35.2 40.4 C34.2 44.9 34.5 46.3 31.4 44.8 C29.3 43.8 29.5 43.3 32 43.3 C31.2 41.3 29.4 39.8 26.7 39 C22.7 37.8 18.4 36.5 20.6 35.2 C22.1 34.3 22.2 34 21 34.2 C18.5 34.4 16.5 34.3 15.1 33.9 z" id="j1" fill="#D8D8D8" /><path d="M21.8 37.4 C22.8 37.1 23.5 36.3 24.1 35.1 C24.7 33.9 24.9 32.8 24.9 31.9 L23.3 33.7 C23.6 31.1 24.3 29.1 25.4 27.6 C26.5 26.1 27.1 24.9 27.1 23.8 C25.6 24.8 24.7 25.5 24.4 26.1 C24 26.9 24.3 22.6 26.2 20.2 C28.1 17.8 30.8 14.3 31 12.2 C31.6 18.3 30.3 21.1 31 22.5 C31.7 23.8 33.2 30.2 31.7 33.3 C30.7 35.4 29.3 37.4 27.5 39.4 C26.6 39.3 25.6 39.1 24.4 38.8 C23.3 38.4 22.4 38 21.8 37.4 z" id="k1" fill="#474B4F" /><path d="M21.8 37.4 C22.8 37.1 23.5 36.3 24.1 35.1 C24.7 33.9 24.9 32.8 24.9 31.9 L23.3 33.7 C23.6 31.1 24.3 29.1 25.4 27.6 C26.5 26.1 27.1 24.9 27.1 23.8 C25.6 24.8 24.7 25.5 24.4 26.1 C24 26.9 24.3 22.6 26.2 20.2 C28.1 17.8 30.8 14.3 31 12.2 C31.6 18.3 30.3 21.1 31 22.5 C31.7 23.8 33.2 30.2 31.7 33.3 C30.7 35.4 29.3 37.4 27.5 39.4 C26.6 39.3 25.6 39.1 24.4 38.8 C23.3 38.4 22.4 38 21.8 37.4 z" id="l1" fill="#665F57" /></g></g><g transform="translate(192.9, 116) rotate(10, 0, 0) scale(0.9) translate(-192.9, -112) translate(86, 66.89997) translate(104, 29) scale(-1, 1) translate(-104, -29) translate(81, 0)" id="m1"><g transform="translate(22.81199, 29) scale(-1, 1) translate(-22.81199, -29) translate(0.31199, 0)" id="n1"><path d="M0.2 35 C-0.4 31.9 8.7 26.6 11.7 23.5 C13.1 22 15.5 19.9 17.8 17.7 C18.6 17 16.6 17 17.3 16.3 C18 15.5 19 15.9 20.3 14.9 C21.6 13.9 23.3 11.6 23.6 11 C23.9 10.5 22 11.5 22.3 11 C24.5 7.6 30.1 2.5 32.2 1 C34.6 -0.7 37.8 1.9 38.8 8 C39 9.4 41.5 15.4 42 17.1 C42.4 18.5 40.3 15.5 40.5 17.1 C40.9 19.9 41.9 24 42 25.9 C42.1 27.3 40.6 23.3 40.5 24.9 C40.5 25.9 41.2 29.8 41.1 31.9 C40.8 38.6 40.7 48.2 42.8 41.3 C42.8 43.9 42.4 46.5 41 48.4 C41.6 47 43.2 46.8 44.2 45.7 C44.2 51.4 39.5 52.8 41 55.8 C42.5 58.8 35.5 56.5 35.5 54.6 C35.5 52.7 31.7 51.3 29.3 49.4 C26.9 47.5 26.7 43.9 21.3 41.6 C18.8 40.5 15.4 38.5 11.7 37.3 C7.7 35.8 0.5 36.6 0.2 35 z" id="o1" fill="#474B4F" /><path d="M0.2 35 C-0.4 31.9 8.7 26.6 11.7 23.5 C13.1 22 15.5 19.9 17.8 17.7 C18.6 17 16.6 17 17.3 16.3 C18 15.5 19 15.9 20.3 14.9 C21.6 13.9 23.3 11.6 23.6 11 C23.9 10.5 22 11.5 22.3 11 C24.5 7.6 30.1 2.5 32.2 1 C34.6 -0.7 37.8 1.9 38.8 8 C39 9.4 41.5 15.4 42 17.1 C42.4 18.5 40.3 15.5 40.5 17.1 C40.9 19.9 41.9 24 42 25.9 C42.1 27.3 40.6 23.3 40.5 24.9 C40.5 25.9 41.2 29.8 41.1 31.9 C40.8 38.6 40.7 48.2 42.8 41.3 C42.8 43.9 42.4 46.5 41 48.4 C41.6 47 43.2 46.8 44.2 45.7 C44.2 51.4 39.5 52.8 41 55.8 C42.5 58.8 35.5 56.5 35.5 54.6 C35.5 52.7 31.7 51.3 29.3 49.4 C26.9 47.5 26.7 43.9 21.3 41.6 C18.8 40.5 15.4 38.5 11.7 37.3 C7.7 35.8 0.5 36.6 0.2 35 z M5.1 32.3 C5.4 33.7 11.1 33.4 14.7 34.8 C18 35.9 20.8 38.2 23.1 39.2 C28 41.3 28.1 43.8 30.3 45.6 C32.5 47.3 35 49.5 35 51.2 C35 52.9 41.3 55 40 52.3 C38.6 49.6 43.3 52.8 43.3 47.7 C42.4 48.7 40.6 48 40.1 49.3 C41.4 47.6 42.1 46.2 42.1 43.9 C40.2 50.1 39.8 36.8 40.1 30.8 C40.2 28.9 39.7 24.4 39.7 23.5 C39.8 22.1 41.1 24.7 41 23.5 C40.9 21.8 40.1 19.3 39.7 16.7 C39.5 15.3 41 16.6 40.6 15.3 C40.1 13.8 38.1 10.4 37.9 9.2 C37 3.7 34.9 0.4 32.7 2 C30.8 3.4 26 6.8 24 9.9 C23.7 10.4 25.5 10.2 25.2 10.6 C24.9 11.1 22.3 14.5 21.2 15.4 C20 16.3 19.1 15.9 18.5 16.7 C17.9 17.3 20.4 17.5 19.7 18.1 C17.6 20.1 15.4 23.2 14.1 24.5 C11.5 27.2 4.6 29.5 5.1 32.3 z" opacity="0.15" id="p1" /><path d="M15.1 33.9 C13 33.2 12.7 33.4 12.9 32.2 C13 31.6 15.1 32 17.3 28.6 C18.1 27.4 18.4 25.1 19.1 23.7 C19.6 22.6 20 23.9 20.6 22.7 C21.1 21.7 21.8 18.2 22 17.8 C22.4 17 22.9 18 23.6 16.9 C24.6 15.2 25.5 14 26.7 12 C28 9.8 29.5 6.9 30.4 6.5 C32.7 5.5 34.4 8.5 35.1 12 C35.8 15.5 35.7 17.7 37 20.1 C38.3 22.5 38.6 22.6 38.3 28.6 C38 34.6 36.1 36 35.1 40.5 C34.1 45 34.4 46.4 31.3 44.9 C29.2 43.9 29.4 43.4 31.9 43.4 C31.1 41.4 29.3 39.9 26.6 39.1 C22.6 37.9 18.3 36.6 20.5 35.3 C22 34.4 22.1 34.1 20.9 34.3 C18.5 34.4 16.5 34.3 15.1 33.9 z" id="q1" fill="#D8D8D8" /><path d="M21.8 37.4 C22.8 37.1 23.5 36.3 24.1 35.1 C24.7 33.9 24.9 32.8 24.9 31.9 L23.3 33.7 C23.6 31.1 24.3 29.1 25.4 27.6 C26.5 26.1 27.1 24.9 27.1 23.8 C25.6 24.8 24.7 25.5 24.4 26.1 C24 26.9 24.3 22.6 26.2 20.2 C28.1 17.8 30.8 14.3 31 12.2 C31.6 18.3 30.3 21.1 31 22.5 C31.7 23.8 33.2 30.2 31.7 33.3 C30.7 35.4 29.3 37.4 27.5 39.4 C26.6 39.3 25.6 39.1 24.4 38.8 C23.3 38.4 22.4 38 21.8 37.4 z" id="r1" fill="#474B4F" /><path d="M21.8 37.4 C22.8 37.1 23.5 36.3 24.1 35.1 C24.7 33.9 24.9 32.8 24.9 31.9 L23.3 33.7 C23.6 31.1 24.3 29.1 25.4 27.6 C26.5 26.1 27.1 24.9 27.1 23.8 C25.6 24.8 24.7 25.5 24.4 26.1 C24 26.9 24.3 22.6 26.2 20.2 C28.1 17.8 30.8 14.3 31 12.2 C31.6 18.3 30.3 21.1 31 22.5 C31.7 23.8 33.2 30.2 31.7 33.3 C30.7 35.4 29.3 37.4 27.5 39.4 C26.6 39.3 25.6 39.1 24.4 38.8 C23.3 38.4 22.4 38 21.8 37.4 z" id="s1" fill="#665F57" /></g></g><g id="t1"><g transform="translate(102.6, 70.69996) translate(51, 30)" id="u1"><g id="v1"><path d="M30.4 60.8 C26.6 54.2 23.9 51.2 20.9 43.5 C19 34.9 16.9 19.5 18.5 15 C20.3 9.9 23.1 3.4 21.3 1.4 C19.3 -0.9 15.9 0.6 15.9 0.6 C15.9 0.6 12.5 -0.9 10.5 1.4 C8.7 3.4 11.6 9.9 13.3 15 C14.9 19.6 12.9 34.9 10.9 43.5 C7.9 51.2 5.3 54.3 1.4 60.8 C-0.9 64.8 -0.8 75.4 6.3 78 C9.1 79 14.5 79.3 15.9 79.3 C17.2 79.3 22.6 79 25.5 78 C32.6 75.4 32.8 64.8 30.4 60.8 z" id="w1" fill="#FEFEFE" /><path d="M30.4 60.8 C32.8 64.8 32.6 75.4 25.5 78 C22.6 79 17.2 79.3 15.9 79.3 C14.5 79.3 9.1 79 6.3 78 C-0.8 75.4 -0.9 64.8 1.4 60.8 C5.3 54.3 7.9 51.2 10.9 43.5 C12.9 34.9 14.9 19.6 13.3 15 C11.6 9.9 8.7 3.4 10.5 1.4 C12.5 -0.9 15.9 0.6 15.9 0.6 C15.9 0.6 19.3 -0.9 21.3 1.4 C23.1 3.4 20.3 9.9 18.5 15 C16.9 19.5 19 34.9 20.9 43.5 C23.9 51.2 26.6 54.2 30.4 60.8 z M27.6 59.1 C23.9 52.8 22.5 49.6 19.7 42.3 C17.9 34.1 16.8 17.6 18.3 13.3 C20 8.5 22.2 3.9 20.4 2 C18.5 -0.2 15.9 1.5 15.9 1.5 C15.9 1.5 13.3 0.1 11.4 2.3 C9.7 4.2 12.3 9.1 13.9 13.9 C15.4 18.3 14.3 34.1 12.4 42.3 C9.5 49.6 7.5 53.2 3.8 59.4 C1.6 63.2 0 72.7 6.8 75.1 C9.4 76.1 14.6 76.4 15.9 76.4 C17.1 76.4 22.3 76.1 25 75.1 C31.8 72.7 29.8 62.9 27.6 59.1 z" opacity="0.15" id="x1" /></g></g><g transform="translate(87.29999, 81.19996) translate(74, 77)" id="y1"><path d="M7.5 1.5 C7.7 3.9 7.8 5.6 7.8 6.6 C7.8 7.6 7.5 9.5 7 12.1 C4.4 14.2 2.6 16 1.7 17.5 C0.4 19.8 -0.1 20.5 0.4 20.8 C0.7 21.1 2.4 18.9 4.9 17.7 C5.9 17.2 7.4 16.9 8.5 16.9 C9.8 16.9 11.5 17.4 12.7 18.1 C14.8 19.3 16 21 16.4 20.9 C16.9 20.7 15.7 17.6 13.2 15.4 C11.6 13.9 10.5 12.9 10 12.2 C9.7 9.6 9.6 7.8 9.6 6.6 C9.6 5.4 9.7 3.6 9.9 1.3 C10.5 0.4 10.1 0 8.7 0 C7.3 0 6.9 0.5 7.5 1.5 z" id="z1" /></g><g transform="translate(169.6, 160.5999) scale(0.75) translate(-169.6, -160.5999) translate(102.5, 87.29996) translate(56, 65)" id="a2"><g id="b2"><path d="M20.3 1.6 C18.3 -0.6 14.7 0.3 11.1 0.3 C7.5 0.3 3.9 -0.6 1.9 1.6 C-0.1 3.8 -0.1 7.6 1.9 9.8 C3.3 11.3 4.7 12.2 6.6 13.2 C8.2 14.1 9.3 16.2 11 16.4 C12.8 16.2 13.8 14 15.4 13.2 C17.4 12.2 18.8 11.3 20.1 9.8 C22.3 7.6 22.3 3.9 20.3 1.6 z" id="c2" fill="#282523" /><path d="M16.8 3.2 C16.6 2.6 15.3 2.5 14.4 2.3 C12.8 2 10.5 2.2 7.8 2.2 C7.1 2.2 6.4 2.2 5.7 2.5 C5 2.8 4.6 3.5 4.7 4.2 C4.9 5.4 6.4 5.6 7.6 5.6 C9.5 5.6 11.5 5.6 13.4 5.5 C14.2 5.5 15 5.5 15.8 5.1 C16.6 4.7 17.1 4 16.8 3.2 z" id="d2" fill="#FEFEFE" /></g></g><g transform="translate(-284.3, 56.59996) translate(43, 64)" id="e2"><path d="M402.1 16.9 C403.3 14.6 402.9 13.9 402.9 12.1 C402.9 10.3 402.7 8.4 400.1 7 C396.5 5.3 392.3 5.2 389.8 6.5 C386.4 8.3 383.6 10 384.3 11.5 C385.1 13.2 388 17.1 389.4 17.9 C392.1 19.5 396.1 20.2 398.2 19.7 C399.8 19.3 401.2 18.7 402.1 16.9 z" id="f2" fill="#CAC3C0" /><path d="M401.2 18.1 C402 17.4 401.6 14.8 401.2 13.6 C400.7 12.5 399.2 10.9 397 10.3 C394.1 9.6 393.6 9.7 391.1 10 C389.8 10.1 388.6 9.9 388.2 10.6 C387.6 11.3 387.5 12.5 387.9 13.6 C388.3 14.7 388.4 15.3 389.1 16.1 C389.8 17 390.7 17.7 391.3 18.1 C393.5 19.3 396.8 19.9 398.5 19.5 C399.7 19.2 400.4 18.8 401.2 18.1 z" id="g2" fill="#1F2123" /><path d="M396 16.2 C394.9 16.2 393.9 15.3 393.9 14.2 C393.8 13.1 394 12.5 395 12.7 C395.9 12.8 396.6 12.9 396.9 13.1 C397.8 13.5 397.8 13.2 397.9 14.1 C398 14.5 397.9 14.8 397.8 15 C397.5 15 397 14.7 396.3 14.4 C396.5 15.2 396.6 15.7 396.7 16.1 C396.3 16.3 396.4 16.2 396 16.2 z" id="h2" fill="#FFF" /></g><g transform="translate(-288.5, 56.59996) translate(82, 64)" id="i2"><path d="M384.3 16.9 C383.1 14.6 383.5 13.9 383.5 12.1 C383.5 10.3 383.7 8.4 386.3 7 C389 5.6 392.8 5.6 396.6 6.5 C400.4 7.4 402.8 10 402.1 11.5 C401.3 13.2 398.4 17.1 397 17.9 C394.3 19.5 390.3 20.2 388.2 19.7 C386.6 19.3 385.2 18.7 384.3 16.9 z" id="j2" fill="#CAC3C0" /><path d="M385.2 18.1 C384.4 17.4 384.8 14.8 385.2 13.6 C385.7 12.5 387.2 10.9 389.4 10.3 C392.3 9.6 392.8 9.7 395.3 10 C396.6 10.1 397.8 9.9 398.2 10.6 C398.8 11.3 398.9 12.5 398.5 13.6 C398.1 14.7 398 15.3 397.3 16.1 C396.6 17 395.7 17.7 395.1 18.1 C392.9 19.3 389.6 19.9 387.9 19.5 C386.7 19.2 386 18.8 385.2 18.1 z" id="k2" fill="#1F2123" /><path d="M390.4 16.2 C391.5 16.2 392.5 15.3 392.5 14.2 C392.6 13.1 392.4 12.5 391.4 12.7 C390.5 12.8 389.8 12.9 389.5 13.1 C388.6 13.5 388.6 13.2 388.5 14.1 C388.4 14.5 388.5 14.8 388.6 15 C388.9 15 389.4 14.7 390.1 14.4 C389.9 15.2 389.8 15.7 389.7 16.1 C390.1 16.3 390 16.2 390.4 16.2 z" id="l2" fill="#FFF" /></g></g></g></g><g transform="translate(235.8952, 266.9009)" id="m2"><ellipse cx="32.5" cy="17.5" rx="37.3" ry="13.2" fill-opacity="0.15" id="n2" /><use xlink:href="#o2" x="0.08" y="0" /></g></g><defs><g transform="translate(17.09519, 0.800995) translate(-135.2952, -293.601)" id="o2" fill="#000"><path d="M118.2 302.7 C118.4 307.4 132.5 311.2 149.8 311.2 C167.1 311.2 181.2 307.4 181.4 302.7 C181.4 307.5 181.4 310.1 181.4 310.5 C181.4 315.3 167.3 319.1 149.8 319.1 C132.3 319.1 118.2 315.2 118.2 310.5 L118.2 302.7 L118.2 302.7 z" fill-opacity="0.4528" id="p2" fill="#593001" /><path d="M118.7 301.7 C118.9 306.4 133 310.2 150.3 310.2 C167.6 310.2 181.7 306.4 181.9 301.7 C181.9 306.5 181.9 309.1 181.9 309.5 C181.9 314.3 167.8 318.1 150.3 318.1 C132.8 318.1 118.7 314.2 118.7 309.5 L118.7 301.7 L118.7 301.7 z" id="q2" fill="#DA8113" /><linearGradient x1="46.0545" y1="-118.6926" x2="45.4656" y2="-118.6926" gradientUnits="userSpaceOnUse" gradientTransform="matrix(117.135, 0, 0, 28.4634, -5208.417, 3687.795)" id="r2"><stop offset="0%" stop-color="#D9952A" stop-opacity="1" /><stop offset="6.438854%" stop-color="#CA7519" stop-opacity="1" /><stop offset="30.54%" stop-color="#E3AD3A" stop-opacity="1" /><stop offset="51.05%" stop-color="#FFEC91" stop-opacity="1" /><stop offset="68.8%" stop-color="#E9BD44" stop-opacity="1" /><stop offset="86.24%" stop-color="#FFED6C" stop-opacity="1" /><stop offset="93.87%" stop-color="#F2D353" stop-opacity="1" /><stop offset="100%" stop-color="#F2B947" stop-opacity="1" /></linearGradient><path d="M118.2 301.6 C118.4 306.1 132.7 309.7 150.3 309.7 C167.9 309.7 182.2 306.1 182.4 301.6 C182.4 306.2 182.4 308.7 182.4 309 C182.4 313.5 168 317.2 150.3 317.2 C132.6 317.2 118.2 313.5 118.2 309 L118.2 301.6 L118.2 301.6 z" id="s2" style="fill:url(#r2)" /><linearGradient x1="45.4914" y1="-117.9547" x2="45.9407" y2="-117.5895" gradientUnits="userSpaceOnUse" gradientTransform="matrix(115.425, 0, 0, 29.925, -5125.077, 3826.124)" id="t2"><stop offset="0%" stop-color="#F4E072" stop-opacity="1" /><stop offset="100%" stop-color="#DB9427" stop-opacity="1" /></linearGradient><ellipse cx="150.3" cy="301.5" rx="31.6" ry="8.2" id="u2" style="fill:url(#t2)" /><linearGradient x1="45.4656" y1="-126.0065" x2="46.0545" y2="-126.0065" gradientUnits="userSpaceOnUse" gradientTransform="matrix(117.135, 0, 0, 18.6219, -5208.417, 2651.479)" id="v2"><stop offset="0%" stop-color="#D9952A" stop-opacity="1" /><stop offset="6.438854%" stop-color="#CA7519" stop-opacity="1" /><stop offset="30.54%" stop-color="#E3AD3A" stop-opacity="1" /><stop offset="51.05%" stop-color="#FFEC91" stop-opacity="1" /><stop offset="68.8%" stop-color="#E9BD44" stop-opacity="1" /><stop offset="86.24%" stop-color="#FFED6C" stop-opacity="1" /><stop offset="93.87%" stop-color="#F2D353" stop-opacity="1" /><stop offset="100%" stop-color="#F2B947" stop-opacity="1" /></linearGradient><path d="M119.2 299.9 C119 300.2 118.9 300.6 118.9 301 C118.9 305.5 132.9 309.2 150.3 309.2 C167.7 309.2 181.7 305.5 181.7 301 C181.7 300.6 181.6 300.3 181.4 299.9 C182 300.5 182.4 301.2 182.4 301.9 C182.4 306.4 168 310.1 150.3 310.1 C132.6 310.1 118.2 306.4 118.2 301.9 C118.2 301.3 118.6 300.6 119.2 299.9 z" id="w2" style="fill:url(#v2)" /><linearGradient x1="45.196" y1="-121.5895" x2="45.3746" y2="-120.6758" gradientUnits="userSpaceOnUse" gradientTransform="matrix(101.745, 0, 0, 23.94, -4458.332, 3199.41)" id="x2"><stop offset="0%" stop-color="#F8DD61" stop-opacity="1" /><stop offset="100%" stop-color="#EAA330" stop-opacity="1" /></linearGradient><ellipse cx="150.3" cy="300.8" rx="27.8" ry="6.6" id="y2" style="fill:url(#x2)" /><linearGradient x1="45.5694" y1="-134.267" x2="45.0221" y2="-134.267" gradientUnits="userSpaceOnUse" gradientTransform="matrix(101.745, 0, 0, 13.2525, -4458.332, 2077.223)" id="z2"><stop offset="0%" stop-color="#F4CA2F" stop-opacity="1" /><stop offset="51.38%" stop-color="#BF7737" stop-opacity="1" /><stop offset="100%" stop-color="#E4A929" stop-opacity="1" /></linearGradient><path d="M122.6 301.5 C122.5 301.3 122.4 301 122.4 300.8 C122.4 297.2 134.9 294.2 150.2 294.2 C165.5 294.2 178 297.1 178 300.8 C178 301 177.9 301.3 177.8 301.5 C176.3 298.2 164.5 295.6 150.1 295.6 C135.7 295.6 124.1 298.2 122.6 301.5 z" id="a3" style="fill:url(#z2)" /></g></defs><desc>HD487LJBD4J,JYC/jmFul+6aYA1bHy07d+33l28c2AugvyvuSHEw22hQrKNBgavqVl2hN2l+phIaUAe4gHqa7NPKHl3PKC9AJQUx8b2gOZrEyKjmmGqeLuvQ8J5k8oGqcMXGb6zEJVX3FlhJgUlWx6MQFno5hwzUETCCOtVS9QSkQMn8UExfZVe+NV+5mCpQmnX9j7ibIeaQtNb9dwbghsY4xyprUy/p4A==</desc></svg>