<?xml version="1.0" encoding="utf-8"?><!DOCTYPE svg PUBLIC "-//W3C//DTD SVG 1.1//EN" "http://www.w3.org/Graphics/SVG/1.1/DTD/svg11.dtd"><svg x="0" y="0" width="340px" height="340px" viewBox="0, 0, 340, 340" preserveAspectRatio="xMidYMid" font-size="0" id="a" enable-background="new 0 0 340 340" xmlns="http://www.w3.org/2000/svg" xmlns:xlink="http://www.w3.org/1999/xlink" xmlns:xml="http://www.w3.org/XML/1998/namespace" version="1.1"><g id="b" fill="#000"><g id="c"><g transform="translate(0, 0) translate(0, 224)" id="d"><ellipse cx="168.6" cy="53.1" rx="57.8" ry="12.8" fill-opacity="0.25" id="e" /></g><g id="f"><g transform="translate(135.5, 239.6) scale(0.75) translate(-135.5, -239.6) translate(87, 77.29999) translate(0, 161)" id="g"><path d="M0.4 6.2 C0.3 6.5 -0.6 7.7 0.7 12 C1.5 14.9 3.1 16.7 5.8 19.5 C9.2 23.1 11.9 25.4 15 26.2 C18.1 26.9 25.8 27.2 29.5 28.1 C33.5 29.1 38.9 32.7 41.2 34 C46 36.8 58.3 35.8 61.1 30.3 C62.5 27.5 64.6 23.5 64.1 19.5 C63.5 15.4 60.2 11.4 57.5 12 C52 13.2 48.6 13.1 43.4 13.8 C38.1 14.5 35.9 10.9 29.4 10.9 C26.4 10.9 22.2 10.1 16.3 10.9 C13.7 11.2 8.7 9.6 6.8 8.3 C5.9 7.7 3.6 5.9 2.7 5.5 C1.5 5 0.9 5.2 0.4 6.2 z" id="h" fill="#7B4C3A" /><g transform="translate(0, 5)" id="i"><path d="M37.6 7.9 C34.9 7.5 32.7 6.1 28.6 6.5 C26.1 6.8 22.4 6.5 17.5 7.7 C15.3 8.2 11 7.3 9.2 6.3 C8.4 5.9 6.3 4.6 5.5 4.3 C4.4 4 4 4.2 3.6 5.1 C3.6 5.4 2.9 6.5 4.4 10 C5.3 12.4 6.8 13.8 9.4 15.9 C12.6 18.6 15.1 20.3 17.8 20.8 C20.5 21.1 27 20.7 30.2 21.1 C33.7 21.6 38.6 24.2 40.6 25.1 C44.9 27 55.2 25.1 57.1 20.2 C58 17.7 59.5 14.1 58.7 10.8 C58.4 9.5 57.7 8.2 56.9 7.2 C57.1 7.2 57.3 7.1 57.5 7.1 C60.2 6.5 63.5 10.5 64.1 14.6 C64.6 18.6 62.5 22.6 61.1 25.4 C58.3 30.8 46 31.8 41.2 29 C38.9 27.7 33.5 24.1 29.5 23.1 C25.8 22.2 18.1 21.9 15 21.2 C11.9 20.4 9.2 18.1 5.8 14.5 C3.1 11.7 1.5 9.9 0.7 7 C-0.6 2.7 0.3 1.5 0.4 1.2 C0.9 0.2 1.5 0 2.7 0.5 C3.6 0.9 5.9 2.7 6.8 3.3 C8.7 4.6 13.7 6.2 16.3 5.9 C22.2 5.1 26.4 5.9 29.4 5.9 C33 5.9 35.3 7 37.6 7.9 z" fill-opacity="0.3" id="j" /></g></g><g transform="translate(121.7, 275.3) scale(1) translate(-121.7, -275.3) translate(98, 60.59996) translate(15, 148)" id="k"><g id="l"><path d="M7.5 67.2 C7.3 61.1 10.4 57.2 16.8 55.3 C9.2 42.9 0.5 25.2 0.1 19.1 C-0.5 9 3.8 3.3 7.7 0.8 C10.3 -0.9 22 -1.6 27.5 0.1 C33.1 1.6 35.6 7.3 37.4 8.7 C42.7 12.6 47.5 20.2 49.1 25.6 C52.1 35.9 50.3 51.1 49.5 64.3 C44.4 65.8 27.6 69.8 23.9 70.1 C20.7 70.4 16.2 70.4 10.6 70.2 C8.8 70.1 7.5 68.8 7.5 67.2 z" id="m" fill="#B09082" /><path d="M10.4 44.1 C5 33.9 0.4 23.5 0.1 19.1 C-0.5 9 3.8 3.3 7.7 0.8 C8 0.5 8.5 0.3 8.9 0.1 C8.6 1.4 8.2 2.8 7.7 4.4 C4.1 16.1 12.3 23.6 12.7 28.2 C13.3 35.2 12.2 41.2 10.4 44.1 z" id="n" fill="#7B4C3A" /><path d="M7.5 67.2 C7.3 61.1 10.4 57.2 16.8 55.3 C9.2 42.9 0.5 25.2 0.1 19.1 C-0.5 9 3.8 3.3 7.7 0.8 C10.3 -0.9 22 -1.6 27.5 0.1 C33.1 1.6 35.6 7.3 37.4 8.7 C42.7 12.6 47.5 20.2 49.1 25.6 C52.1 35.9 50.3 51.1 49.5 64.3 C44.4 65.8 27.6 69.8 23.9 70.1 C20.7 70.4 16.2 70.4 10.6 70.2 C8.8 70.1 7.5 68.8 7.5 67.2 z M9.3 65.4 C9.3 66.9 9.8 68 11.4 68 C16.9 68.2 21.2 68.2 24.2 67.9 C27.7 67.6 42.8 64 47.7 62.6 C48.5 50 51.2 35.2 48.4 25.3 C46.9 20 42.3 12.8 37.2 9.1 C35.5 7.8 33.1 2.3 27.7 0.9 C22.3 -0.7 11.2 -0.1 8.7 1.6 C5 4.1 0.8 9.5 1.4 19.2 C1.8 25 11.4 44.2 18.6 56.2 C12.7 57.9 9.1 59.6 9.3 65.4 z" opacity="0.15" id="o" /></g></g><g transform="translate(218.3, 275.3) scale(1) translate(-218.3, -275.3) translate(98, 60.59996) translate(105.5, 184.5) scale(-1, 1) translate(-105.5, -184.5) translate(80, 148)" id="p"><g id="q"><path d="M9.7 67.2 C9.5 61.1 12.6 57.2 19 55.3 C11.4 42.9 2.7 25.2 2.3 19.1 C1.7 9 6 3.3 9.9 0.8 C12.4 -0.9 22 -1.6 27.6 0.1 C33.8 1.8 39.5 5.7 43.8 9.6 C46.8 12.2 48.4 18 50 23.4 C53 33.7 50.8 52.1 50 65.2 C44.9 66.7 29.7 69.7 26 70 C22.8 70.3 18.3 70.3 12.7 70.1 C11 70.1 9.7 68.8 9.7 67.2 z" id="r" fill="#B09082" /><path d="M12.5 44.1 C7.1 33.9 2.5 23.5 2.2 19.1 C1.7 9 6 3.3 9.9 0.8 C10.2 0.5 10.7 0.3 11.1 0.1 C10.8 1.4 10.4 2.8 9.9 4.4 C6.3 16.1 14.5 23.6 14.9 28.2 C15.4 35.2 14.3 41.2 12.5 44.1 z" id="s" fill="#7B4C3A" /><path d="M9.7 67.2 C9.5 61.1 12.6 57.2 19 55.3 C11.4 42.9 2.7 25.2 2.3 19.1 C1.7 9 6 3.3 9.9 0.8 C12.4 -0.9 22 -1.6 27.6 0.1 C33.8 1.8 39.5 5.7 43.8 9.6 C46.8 12.2 48.4 18 50 23.4 C53 33.7 50.8 52.1 50 65.2 C44.9 66.7 29.7 69.7 26 70 C22.8 70.3 18.3 70.3 12.7 70.1 C11 70.1 9.7 68.8 9.7 67.2 z M12.4 64.8 C12.4 66.3 11.6 67.6 13.2 67.6 C18.7 67.8 23 67.8 26 67.5 C29.5 67.2 42.9 64.4 47.8 63 C48.6 50.3 51.8 32.6 49 22.8 C47.5 17.5 45.9 12 43.1 9.6 C38.9 5.9 33.4 2.2 27.6 0.5 C22.2 -1.1 13.1 -0.4 10.6 1.2 C6.9 3.6 2.7 9.2 3.3 18.7 C3.7 24.5 14.2 43.6 21.4 55.6 C15.3 57.3 12.2 59 12.4 64.8 z" opacity="0.15" id="t" /></g></g><g transform="translate(98.00001, 60.59998) translate(25, 71)" id="u"><g id="v"><path d="M69.5 24.8 C69.5 41 72.2 39.3 73.9 43.9 C75.6 48.5 82.5 57.5 83.8 70.3 C85.1 83.1 84.4 97 80.4 108.7 C76.4 120.4 79.3 141.6 69.6 144.3 C69.3 144.4 37.7 147.4 26 144.3 C13.8 141.1 19.8 128.1 14.4 110.8 C9 93.5 8.1 84.8 8.4 70.4 C8.7 56 18.7 48.8 20.5 43.9 C22.3 39 24.6 37.2 24.6 24.8 C24.6 12.4 32.6 5.4 50.1 5.9 C55.4 5.9 69.5 8.4 69.5 24.8 z" id="w" fill="#453D37" /><g id="x"><path d="M8.7 40.5 C8.6 41.2 8.6 42.1 8.7 43.4 C8.9 47.3 7 51.1 5.3 55.1 C2.8 61.3 -0.1 70.5 -0.5 75.6 C-1.7 88.9 2 96.6 7.7 113.6 C13.4 130.6 13.9 141.5 16.6 144 C19.3 146.5 37.2 147 46.6 147.3 C56 147.6 76.8 145.7 78.6 144 C80.4 142.3 83.4 124.7 86.4 117.4 C89.4 110.1 93.5 86.6 93.8 78 C94.1 68.2 90.7 59.4 87.8 54.9 C86.1 52.3 81.6 45.5 84 40 C84.2 38.6 59.2 38.8 8.7 40.5 z" id="y" fill="#D8C6BA" /><path d="M9.3 30.9 C7.8 37.9 9.4 42.3 7.8 47.1 C9.2 48.8 16.3 61 21.5 66.4 C26.2 71.1 33 77.2 37.6 80.6 C42.2 84 44.6 86.3 46.9 86.4 C49.2 86.5 56.7 80.6 59.8 78.4 C62.8 76.1 69.6 70.5 75.4 62.4 C80.6 55.2 83.7 49.8 84.4 48.9 C85.9 46.9 84.6 45.8 84.5 37 C84.4 29.2 61.8 29.3 51.2 29.5 C40.6 29.7 12.2 25.2 9.3 30.9 z" id="z" fill="#7B4C3A" /><path d="M11.6 21.9 C10.3 23.4 9.6 28.3 10.3 33.6 C11 38.9 18.6 50.6 25.6 58.1 C32.6 65.6 44.2 74.4 47.4 74.5 C49.9 74.6 60.4 67.3 68.8 59.7 C77.2 52.1 81.8 36.2 82.3 32.4 C83.1 27.2 82.5 22.7 80.9 21.2 C77.9 18.5 76.2 -0.6 46.5 -0.6 C17.2 -0.6 14.2 18.9 11.6 21.9 z" id="a1" fill="#D8C6BA" /></g><path d="M10 30 C9.9 26.2 10.6 22.9 11.6 21.8 C14.2 18.8 17.3 -0.7 46.7 -0.7 C76.3 -0.6 78 18.5 81 21.2 C82.6 22.7 83.2 27.2 82.4 32.4 C82.4 32.7 82.3 33.1 82.2 33.5 C83.6 34.5 84.5 35.7 84.5 37.2 C84.6 45.9 85.9 47.1 84.5 49 C85.5 51.5 86.9 53.7 87.7 54.9 C90.6 59.4 94 68.2 93.7 78 C93.4 86.7 89.3 110.2 86.3 117.4 C83.3 124.6 80.3 142.3 78.5 144 C76.7 145.7 55.9 147.6 46.5 147.3 C37.1 147 19.2 146.5 16.5 144 C13.8 141.5 13.3 130.6 7.6 113.6 C1.9 96.6 -1.8 89 -0.6 75.6 C-0.2 70.5 2.7 61.3 5.2 55.1 C6.3 52.6 7.4 50.1 8.1 47.7 C7.9 47.5 7.8 47.3 7.7 47.2 C9.3 42.3 7.7 37.9 9.2 31 C9.5 30.6 9.7 30.3 10 30 z M11.4 30.6 C11.1 30.9 10.9 31.1 10.7 31.5 C9.3 38.2 10.8 42.5 9.3 47.1 C9.4 47.2 9.5 47.4 9.7 47.6 C9.1 50 8 52.4 6.9 54.8 C4.5 60.8 1.7 69.6 1.3 74.6 C0.1 87.3 3.6 94.7 9.1 111 C14.6 127.3 15.1 137.9 17.7 140.3 C20.3 142.7 37.5 143.2 46.6 143.5 C55.7 143.8 75.7 142 77.4 140.3 C79.1 138.7 82 121.7 84.9 114.7 C87.8 107.7 91.7 85 92 76.6 C92.3 67.2 89 58.7 86.2 54.3 C85.4 53.1 84.1 51.1 83.1 48.6 C84.5 46.7 83.2 45.6 83.1 37.2 C83.1 35.8 82.3 34.6 80.9 33.7 C81 33.3 81.1 32.9 81.1 32.6 C81.9 27.6 81.3 23.3 79.8 21.8 C76.9 19.3 75.3 0.9 46.7 0.9 C18.4 0.9 15.4 19.7 12.9 22.6 C11.9 23.9 11.3 27 11.4 30.6 z" opacity="0.15" id="b1" /></g></g><g transform="translate(126.455, 164.955) scale(1.3, 1.462992) translate(-136.4, -180.7) translate(110.1, 97.39998) translate(59.5, 123.5) scale(-1, 1) translate(-59.5, -123.5) translate(26, 83)" id="c1"><path d="M59.8 75 C59.6 72.5 57.7 69.2 56.7 67.2 L42 70.6 C39.4 72.9 39.2 76.8 40.3 78.2 C40.9 78.8 44.7 81.5 51.2 80.8 C58.5 80.1 60 77.9 59.8 75 z" id="d1" fill="#E2DFD9" /><path d="M7.2 75 C7.4 72.5 9.3 69.2 10.3 67.2 L25 70.6 C27.6 72.9 27.8 76.8 26.7 78.2 C26.1 78.8 22.3 81.5 15.8 80.8 C8.5 80.1 7 77.9 7.2 75 z" id="e1" fill="#E2DFD9" /><path d="M10.6 11.9 C13.2 8.3 20.8 0.3 33.5 0.3 C46.2 0.3 53.8 8.3 56.4 11.9 C56.5 12.9 56.5 13.8 56.4 14.8 C56.4 14.3 55.7 14.2 55.4 14.5 C55.1 14.8 55.1 15.3 55 15.8 C54.9 17.7 53.8 19.6 52.2 20.6 C52.1 19.6 52.1 18.7 52 17.7 C51.8 19.6 50.4 21.3 48.7 21.8 C48.7 21.2 48.8 20.6 48.8 20 C46.5 21.2 44.8 23.3 43.9 25.7 C42.9 24.5 42.5 22.7 42.9 21.2 C41.1 23.5 38.5 25.3 35.7 26.2 C35.5 25.6 35.3 25 35 24.3 C34.8 25.4 34.5 26.5 34.2 27.6 C33.2 26.6 32.5 25.4 31.9 24.1 C31.7 24.8 31.4 25.5 31.2 26.2 C28.4 25.3 25.9 23.5 24 21.2 C24.4 22.7 24 24.5 23 25.7 C22.2 23.3 20.4 21.2 18.1 20 C18.1 20.6 18.2 21.2 18.2 21.8 C16.4 21.2 15.1 19.5 14.9 17.7 C14.8 18.7 14.8 19.6 14.7 20.6 C13.1 19.5 12 17.7 11.9 15.8 C11.9 15.3 11.9 14.8 11.5 14.5 C11.2 14.2 10.4 14.3 10.5 14.8 C10.5 13.8 10.5 12.8 10.6 11.9 z" id="f1" fill="#FAF4E8" /><path d="M0.4 47 C1.7 47 3.2 45.4 3.6 41.9 C3.6 41.8 3.6 41.7 3.7 41.7 C3.1 42.2 2.5 42.6 1.9 43.1 C2.8 39.4 3.7 35.6 4.6 31.9 C5.2 28.5 6.1 25 7.5 21.4 C7.6 21.2 7.9 21.2 8.2 21.6 C8.2 22.4 8.3 23.2 8.3 24.2 C9.3 23.3 10.3 23.4 11.2 22.5 C11.2 23.5 11.1 24.5 11.1 25.5 C12.3 25 13.3 24.2 13.9 23.1 C14 23.1 14 23.1 14.1 23.1 C14.3 26.2 17.3 28.8 20.4 28.6 C20.2 27.3 19.8 26.1 19.7 25.7 C21.2 27.3 22.5 29.9 23.9 31.5 C24.3 30.6 24.3 29.3 24.7 28.4 C25.3 29.2 27.4 29.8 28 30.7 C28.3 30.3 27.7 28 27.9 27.5 C28.2 28.2 28.5 28.8 29 29.3 C29.4 29.7 30 29.9 30.5 30 C31.7 30.8 32 30.2 33.5 31.2 C34.1 31.6 35.3 32.3 35.3 33.1 C35.8 32.3 36 31.2 35.9 30.1 C36.7 30.1 37.5 30 38.1 29.4 C38.6 28.9 38.9 28.3 39.2 27.6 C39.4 28.1 38.8 30.3 39.1 30.8 C39.7 30 41.8 29.4 42.4 28.5 C42.8 29.4 42.8 30.7 43.2 31.6 C44.7 30 46 27.5 47.4 25.8 C47.2 26.2 46.9 27.4 46.7 28.7 C49.8 28.9 52.8 26.3 53 23.2 C53.1 23.2 53.1 23.2 53.2 23.2 C53.8 24.3 54.8 25.1 56 25.6 C56 24.6 55.9 23.6 55.9 22.6 C56.9 23.5 57.9 23.4 58.8 24.3 C58.8 23.3 58.9 22.5 58.9 21.7 C59 21.3 59.3 21.2 59.6 21.5 C61 25.1 61.9 28.6 62.5 32 C63.4 35.7 64.3 39.5 65.2 43.2 C64.6 42.7 64 42.3 63.4 41.8 C63.4 41.9 63.5 41.9 63.5 42 C64 45.5 65.4 47.1 66.7 47.1 C66.5 48.3 64.3 50.2 63 49.9 C64.6 53.8 63.8 58.6 61.2 61.8 C61.8 63.1 61.3 64.8 60 65.5 C60.1 66.5 60.3 67.6 60.4 68.6 C60.1 68.4 59.9 68.2 59.6 68 C59.6 68.5 59.5 69.1 59.6 69.5 C59.8 69.7 60 69.9 60.1 70.1 C60.3 70.5 60.5 71 60.7 71.4 C60.3 71.1 60 70.8 59.6 70.5 L59.5 70.6 C59.3 70.9 59.1 71.2 58.9 71.5 C58.9 71.4 58.8 71.4 58.8 71.3 C58.4 71.9 58.1 72.6 58 73.4 C57.4 73.1 56.9 72.9 56.3 72.6 C55.9 73.8 55.4 74.9 55 76.1 C54.4 75.2 53.9 74.4 53.3 73.5 C53.1 73.6 52.9 73.6 52.7 73.7 C52.4 74.7 52 75.7 51.7 76.7 C51.4 75.7 51.1 74.6 50.1 74.2 C50 74.2 50 74.2 49.9 74.1 C49.5 74.1 49.1 74.1 48.7 74.1 C48.5 74.1 48.3 74.2 48.1 74.2 C47.8 74.3 47.5 74.3 47.2 74.4 C46.6 74.8 46 75.2 45.4 75.6 C45.2 75.7 45 75.8 44.8 75.8 C44.6 75.7 44.5 75.4 44.6 75.2 C44.7 75 44.8 74.9 45 74.8 C44.9 74.8 44.8 74.8 44.8 74.8 C44.2 74.8 43.6 74.7 43.2 74.4 C42.8 74.1 42.6 73.5 42.8 73.1 C42.7 73.1 41.6 73.4 41.5 73.3 C41.6 73.1 41.9 72 42.1 70.8 C41.9 71.1 41.8 71.4 41.6 71.7 C41.5 70 41.2 68.3 42 67.3 C42.2 67 42.3 66.8 42.4 66.5 C42.3 65.5 42.2 64.5 42.2 63.7 C41.7 62.5 41.1 61.3 41.2 60.3 C41.3 58.8 41.7 57.3 42.1 55.8 C41.3 56.5 40.5 57.2 39.8 57.9 C40.7 56 41.6 54.1 42.6 52.2 C42.3 51.1 41.9 50.1 41.6 49 C40.6 49.7 39.7 50.6 39.2 51.7 C38.8 49.4 38.3 46.5 39.5 44.6 C37.8 47 35.1 48 33.6 52.6 C32.1 48.1 29.4 47 27.7 44.6 C28.9 46.5 28.5 49.4 28 51.7 C27.5 50.6 26.6 49.7 25.6 49 C25.3 50.1 24.9 51.1 24.6 52.2 C25.5 54.1 26.4 56 27.4 57.9 C26.6 57.2 25.8 56.5 25.1 55.8 C25.5 57.3 25.8 58.8 26 60.3 C26.1 61.4 25.5 62.6 25 63.7 C25 64.5 24.9 65.5 24.8 66.5 C24.9 66.8 25 67.1 25.2 67.3 C26 68.4 25.7 70 25.6 71.7 C25.4 71.4 25.3 71.1 25.1 70.8 C25.4 72 25.6 73.1 25.7 73.3 C25.6 73.3 24.5 73.1 24.4 73.1 C24.6 73.5 24.4 74.1 24 74.4 C23.5 74.7 22.9 74.8 22.4 74.8 C22.3 74.8 22.2 74.8 22.2 74.8 C22.4 74.9 22.5 75 22.6 75.2 C22.7 75.4 22.7 75.8 22.4 75.8 C22.2 75.9 22 75.8 21.8 75.6 C21.2 75.2 20.6 74.8 20 74.4 C19.7 74.3 19.4 74.3 19.1 74.2 C18.9 74.2 18.7 74.1 18.5 74.1 C18.1 74.1 17.7 74.1 17.3 74.1 C17.2 74.1 17.2 74.1 17.1 74.2 C16.2 74.6 15.8 75.7 15.5 76.7 C15.2 75.7 14.8 74.7 14.5 73.7 C14.3 73.6 14.1 73.6 13.9 73.5 C13.3 74.4 12.8 75.2 12.2 76.1 C11.8 74.9 11.3 73.8 10.9 72.6 C10.3 72.9 9.8 73.1 9.2 73.4 C9.1 72.7 8.8 71.9 8.4 71.3 C8.4 71.4 8.3 71.4 8.3 71.5 C8.1 71.2 7.9 70.9 7.7 70.6 L7.6 70.5 C7.2 70.8 6.9 71.1 6.5 71.4 C6.7 71 6.9 70.5 7.1 70.1 C7.3 69.9 7.5 69.7 7.6 69.5 C7.6 69 7.6 68.5 7.6 68 C7.3 68.2 7.1 68.4 6.8 68.6 C6.9 67.6 7.1 66.5 7.2 65.5 C6 64.8 5.4 63.1 6 61.8 C3.3 58.5 2.6 53.8 4.2 49.9 C2.8 50.1 0.6 48.2 0.4 47 z" id="g1" fill="#7B4C3A" /><path d="M27.8 44.8 C27.8 44.8 27.8 44.8 27.8 44.8 C28.8 46.8 28.4 49.5 28 51.7 C27.5 50.6 26.6 49.7 25.6 49 C25.3 50.1 24.9 51.1 24.6 52.2 C25.5 54.1 26.4 56 27.4 57.9 C26.6 57.2 25.8 56.5 25.1 55.8 C25.5 57.3 25.8 58.8 26 60.3 C26.1 61.4 25.5 62.6 25 63.7 C25 64.5 24.9 65.5 24.8 66.5 C24.9 66.8 25 67.1 25.2 67.3 C25.9 68.3 25.7 69.7 25.6 71.2 C27.6 73.5 27.7 76.9 26.7 78.2 C26.1 78.8 22.3 81.5 15.8 80.8 C8.5 80.1 7 77.9 7.2 75 C7.3 73.9 7.7 72.6 8.2 71.4 L7.7 70.6 C7.2 70.8 6.9 71.1 6.5 71.4 C6.7 71 6.9 70.5 7.1 70.1 C7.3 69.9 7.5 69.7 7.6 69.5 L7.6 68 C7.3 68.2 7.1 68.4 6.8 68.6 C6.9 67.6 7.1 66.5 7.2 65.5 C6 64.8 5.4 63.1 6 61.8 C3.3 58.5 2.6 53.8 4.2 49.9 C2.8 50.1 0.6 48.2 0.4 47 C1.7 47 3.2 45.4 3.6 41.9 C3.6 41.8 3.6 41.7 3.7 41.7 C3.1 42.2 2.5 42.6 1.9 43.1 C2.8 39.4 3.7 35.6 4.6 31.9 C5.2 28.5 6.1 25 7.5 21.4 C7.6 21.2 7.9 21.2 8.2 21.6 C8.2 22.4 8.3 23.2 8.3 24.2 C9.3 23.3 10.3 23.4 11.2 22.5 C11.2 23.5 11.1 24.5 11.1 25.5 C12.3 25 13.3 24.2 13.9 23.1 L14.1 23.1 C14.3 26.2 17.3 28.8 20.4 28.6 C20.2 27.3 19.8 26.1 19.7 25.7 C21.2 27.3 22.5 29.9 23.9 31.5 C24.3 30.6 24.3 29.3 24.7 28.4 C25.3 29.2 27.4 29.8 28 30.7 C28.3 30.3 27.7 28 27.9 27.5 C28.2 28.2 28.5 28.8 29 29.3 C29.4 29.7 30 29.9 30.5 30 C31.7 30.8 32 30.2 33.5 31.2 C34.1 31.6 35.3 32.3 35.3 33.1 C35.8 32.3 36 31.2 35.9 30.1 C36.7 30.1 37.5 30 38.1 29.4 C38.6 28.9 38.9 28.3 39.2 27.6 C39.4 28.1 38.8 30.3 39.1 30.8 C39.7 30 41.8 29.4 42.4 28.5 C42.8 29.4 42.8 30.7 43.2 31.6 C44.7 30 46 27.5 47.4 25.8 C47.2 26.2 46.9 27.4 46.7 28.7 C49.8 28.9 52.8 26.3 53 23.2 L53.2 23.2 C53.8 24.3 54.8 25.1 56 25.6 C56 24.6 55.9 23.6 55.9 22.6 C56.9 23.5 57.9 23.4 58.8 24.3 C58.8 23.3 58.9 22.5 58.9 21.7 C59 21.3 59.3 21.2 59.6 21.5 C61 25.1 61.9 28.6 62.5 32 C63.4 35.7 64.3 39.5 65.2 43.2 C64.6 42.7 64 42.3 63.4 41.8 C63.4 41.9 63.5 41.9 63.5 42 C64 45.5 65.4 47.1 66.7 47.1 C66.5 48.3 64.3 50.2 63 49.9 C64.6 53.8 63.8 58.6 61.2 61.8 C61.8 63.1 61.3 64.8 60 65.5 C60.1 66.5 60.3 67.6 60.4 68.6 C60.1 68.4 59.9 68.2 59.6 68 C59.6 68.5 59.5 69.1 59.6 69.5 C59.8 69.7 60 69.9 60.1 70.1 C60.3 70.5 60.5 71 60.7 71.4 C60.3 71.1 60 70.8 59.6 70.5 L58.9 71.5 C58.9 71.4 58.8 71.4 58.8 71.3 C59.3 72.6 59.7 73.9 59.8 75 C60 77.9 58.5 80.1 51.2 80.8 C44.7 81.5 40.9 78.8 40.3 78.2 C39.3 76.9 39.4 73.4 41.6 71 C41.5 69.5 41.4 68.1 42 67.3 C42.2 67 42.3 66.8 42.4 66.5 C42.3 65.5 42.2 64.5 42.2 63.7 C41.7 62.5 41.1 61.3 41.2 60.3 C41.3 58.8 41.7 57.3 42.1 55.8 C41.3 56.5 40.5 57.2 39.8 57.9 C40.7 56 41.6 54.1 42.6 52.2 C42.3 51.1 41.9 50.1 41.6 49 C40.6 49.7 39.7 50.6 39.2 51.7 C38.8 49.4 38.3 46.5 39.5 44.6 C37.8 47 35.1 48 33.6 52.6 C32.1 48.2 29.5 47.1 27.8 44.8 z M27.8 44.8 C27.7 43.9 27.5 43 27.1 42.3 C28.7 44.6 32.1 44.8 33.5 49.1 C34.9 44.8 39.5 45.3 41.1 43 C40 44.8 39.5 47.3 39.9 49.5 C40.4 48.5 41.7 47.9 42.6 47.2 C42.9 48.2 43.6 51.3 43.9 52.3 C43 54.1 42.7 53 41.8 54.8 C42.5 54.1 43.3 54.7 43.2 56.1 C43.1 57 42.1 60.2 42.5 61.3 C42.5 62.1 43.1 63 43.2 63.9 C43.1 64.2 44 66.4 43.8 66.7 C43.1 67.5 42.4 70 42.5 71.4 C40.5 73.6 40 74.7 41 76 C41.3 76.3 41.5 77.6 42.9 78.2 C43.9 78.6 45.7 78.3 47.4 78.5 C48.3 78.6 49.8 79.1 50.9 79 C51.9 78.9 52.1 77.2 53 77.5 C53.9 77.8 54.5 78.6 55.1 78.5 C56 78.4 56.4 76.8 56.9 76.4 C58.2 75.4 58.2 73.4 58.1 72 C58 71 57.6 69.8 57.2 68.5 C57.2 68.6 57.3 68.6 57.3 68.7 L58 67.8 C58.4 68.1 58.7 68.4 59 68.6 C58.8 68.2 58.6 67.8 58.4 67.4 C58.3 67.2 58.1 67 57.9 66.8 C57.8 66.4 57.9 65.9 57.9 65.4 C58.2 65.6 58.4 65.8 58.7 66 C58.6 65.1 58.4 64 58.3 63.1 C59.5 62.4 60 60.8 59.4 59.6 C61.8 56.6 62.6 52.1 61.1 48.4 C62.3 48.7 64.8 48.4 64.9 47.2 C64.2 47.2 63.6 46.9 62.9 44.8 C62.4 43.4 60.9 38.2 61.4 39.1 C62 39.6 62.3 39.8 62.9 40.3 C62.1 36.8 61.9 34.7 61.1 31.2 C60.5 28 60.7 27.1 59.4 23.7 C59.1 23.4 58.7 25.1 58.6 25.5 C58.6 26.3 57.1 23.4 57.1 24.4 C56.3 23.6 57.2 27.7 56.3 26.9 C56.3 27.8 54.1 26.2 53.5 25.1 C52.2 27.4 51.1 28.7 50.4 29.1 C48.7 29.9 47.5 30.5 46.4 30.4 C46.6 29.2 45.9 28.6 46.1 28.2 C44.8 29.8 44.6 31.1 43.2 32.6 C42.8 31.8 42.5 30.6 42.1 29.8 C41.5 30.6 39.1 31.5 38.5 32.2 C38.2 31.7 38.7 29.6 38.5 29.1 C38.2 29.8 38.2 30.3 37.7 30.8 C37.1 31.4 37.1 31.1 36.4 31.1 C36.5 32.1 35.7 33.8 35.2 34.5 C35.2 33.7 33.5 32.3 32.9 31.9 C31.5 31 31.6 31.9 30.5 31.1 C30 31 28.8 29.7 28.6 30.1 C28.4 29.8 28.9 31.4 28.3 31.5 C27.4 31.6 25.3 30.3 24.9 29.8 C24.5 30.6 24.2 31.4 23.8 32.2 C22.5 30.7 22.1 29.3 20.7 27.8 C20.8 28.2 21.1 29.6 20.6 29.9 C17.7 30.1 14.2 27.6 13.8 24.6 C13.2 25.6 12 26.3 10.9 26.7 C10.9 25.8 10.5 24.5 10.5 23.6 C9.7 24.5 10 24.5 9 25.4 C8.4 25 7.6 24.8 7.6 24 C7.3 23.6 7.1 23.4 7 23.6 C5.7 27 6 28.2 5.4 31.4 C4.6 34.9 4 37.7 3.1 41.2 C3.7 40.7 4.6 40.2 4.6 40.3 C4.2 43.6 3 47.2 1.8 47.2 C2 48.3 3.7 48.6 5 48.4 C3.5 52.1 5 56.5 7.5 59.6 C6.9 60.8 7.5 62.4 8.6 63.1 C8.6 64 8.5 65 8.4 66 C8.7 65.8 8.9 65.6 9.2 65.4 L9.2 66.8 C9 67 8.8 67.2 8.6 67.4 C8.4 67.8 8.2 68.2 8 68.6 C8.4 68.3 8.7 68 9.1 67.8 L9.6 68.6 C9.1 69.8 8.7 70.9 8.6 72 C8.5 72.8 8.2 74.5 9 74.5 C9.8 74.5 9.2 77.2 10.8 77.9 C11.2 78.1 12.7 77.3 13.2 77.4 C13.8 77.6 14.1 78.8 15 78.9 C15.5 79 17.4 77.3 17.9 77.4 C19.6 77.6 21.1 78.6 22.5 78.4 C23.9 78.2 24 76.7 25.2 76.7 C27.5 76.7 25.9 75.4 26.2 75.2 C26.8 72.7 25.7 72.6 23.8 70.4 C23.9 69 24.5 67.7 23.8 66.7 C23.6 66.5 23.9 64.4 23.8 64.1 C23.9 63.2 24.5 62 24.5 61.2 C25 60.2 24.6 58.7 24.5 57.7 C24.3 56.3 23.6 55.2 23.2 53.8 C23.9 54.5 24.9 54 25.7 54.7 C24.8 52.9 24.7 52.6 23.8 50.8 C24.1 49.8 24.9 47.7 25.2 46.7 C26.1 47.4 27 47.9 27.4 49 C27.7 47.8 27.9 46.2 27.8 44.8 C27.8 44.8 27.7 44.7 27.7 44.6 C27.7 44.7 27.8 44.7 27.8 44.8 z" opacity="0.15" id="h1" /><path d="M10.6 11.9 C13.2 8.3 20.8 0.3 33.5 0.3 C46.2 0.3 53.8 8.3 56.4 11.9 C56.5 12.9 56.5 13.8 56.4 14.8 C56.4 14.3 55.7 14.2 55.4 14.5 C55.1 14.8 55.1 15.3 55 15.8 C54.9 17.7 53.8 19.6 52.2 20.6 C52.1 19.6 52.1 18.7 52 17.7 C51.8 19.6 50.4 21.3 48.7 21.8 C48.7 21.2 48.8 20.6 48.8 20 C46.5 21.2 44.8 23.3 43.9 25.7 C42.9 24.5 42.5 22.7 42.9 21.2 C41.1 23.5 38.5 25.3 35.7 26.2 C35.5 25.6 35.3 25 35 24.3 C34.8 25.4 34.5 26.5 34.2 27.6 C33.2 26.6 32.5 25.4 31.9 24.1 C31.7 24.8 31.4 25.5 31.2 26.2 C28.4 25.3 25.9 23.5 24 21.2 C24.4 22.7 24 24.5 23 25.7 C22.2 23.3 20.4 21.2 18.1 20 C18.1 20.6 18.2 21.2 18.2 21.8 C16.4 21.2 15.1 19.5 14.9 17.7 C14.8 18.7 14.8 19.6 14.7 20.6 C13.1 19.5 12 17.7 11.9 15.8 C11.9 15.3 11.9 14.8 11.5 14.5 C11.2 14.2 10.4 14.3 10.5 14.8 C10.5 13.8 10.5 12.8 10.6 11.9 z M11.9 11.3 C11.8 12.1 11.8 13.1 11.8 14 C11.7 13.5 12.5 13.4 12.7 13.7 C13.1 14 13.1 14.5 13.1 14.9 C13.2 16.7 12.2 17.2 13.7 18.2 C13.8 17.3 14.9 16.3 15 15.4 C15.2 17.1 15.7 20 17.4 20.6 C17.4 20 17.9 18.8 17.9 18.3 C20.1 19.4 22.4 21.7 23.2 24 C24.1 22.9 23.6 20.9 23.2 19.5 C25 21.7 28.7 23.9 31.3 24.8 C31.5 24.1 31.8 23.5 32 22.8 C32.6 24 33.2 25.2 34.2 26.1 C34.5 25.1 34.8 24 35 23 C35.3 23.7 35.5 24.2 35.7 24.8 C38.3 24 42.5 21.7 44.2 19.5 C43.8 20.9 43.3 22.8 44.2 24 C45 21.7 46.6 19.1 48.8 17.9 C48.8 18.5 49.6 20.1 49.6 20.6 C51.2 20.1 52.3 16.7 52.5 14.9 C52.6 15.8 53.1 17.8 53.2 18.8 C54.7 17.9 54.3 16.7 54.4 14.9 C54.5 14.4 54.1 14 54.4 13.7 C54.7 13.4 55.8 12.7 55.8 13.2 C55.9 12.3 55.4 12.2 55.3 11.3 C52.6 7.9 45.5 0.4 33.5 0.4 C21.5 0.4 14.4 7.9 11.9 11.3 z" opacity="0.15" id="i1" /></g></g><g transform="translate(169.6, 177.7) scale(0.8640882) translate(-169.6, -177.7)" id="j1"><path d="M36 2.5 C33.7 1.1 20.7 1.7 13.6 1 C12 0.8 10.5 0.3 9 0.7 C6.6 1.3 5.7 2.5 4.9 3.4 C4.5 5.2 -2.2 10.2 2.7 17.8 C7 24.6 13.9 22.8 16 22 C16.7 21.7 17.6 20.8 18.7 19.6 C20.4 22.3 22.3 25 24.5 27.5 C28.8 32.4 30.8 36.1 34.1 36.5 C36.8 36.8 36.6 33.2 36.5 30.8 C36.4 25.7 37.4 22.1 37.6 17.6 C37.9 12.4 38.6 4.2 36 2.5 z" transform="translate(73, 3) translate(129, 83.39996)" id="k1" fill="#7B4C3A" /><path d="M33.1 3.5 C32.3 2.6 31.4 1.4 29 0.8 C27.4 0.4 26 0.8 24.4 1.1 C17.3 1.7 4.4 1.2 2 2.6 C-0.7 4.3 0.1 12.5 0.4 17.7 C0.7 22.2 1.6 25.7 1.5 30.9 C1.4 33.3 1.3 36.9 3.9 36.6 C7.1 36.2 9.1 32.5 13.5 27.6 C15.7 25.2 17.6 22.5 19.3 19.7 C20.4 20.9 21.3 21.9 22 22.1 C24.1 22.9 29.5 25.4 34.7 17 C39.3 9.7 33.6 5.3 33.1 3.5 z" transform="translate(8, 3) translate(91.3, 84.39996)" id="l1" fill="#7B4C3A" /><g transform="translate(91.3, 84.39996) translate(8, 3)" id="m1"><path d="M33.1 3.5 C33.6 5.3 39.3 9.7 34.7 17 C29.5 25.4 24.1 22.9 22 22.1 C21.3 21.9 20.4 20.9 19.3 19.7 C17.6 22.5 15.7 25.2 13.5 27.6 C9.1 32.5 7.1 36.2 3.9 36.6 C1.3 36.9 1.4 33.3 1.5 30.9 C1.6 25.7 0.7 22.2 0.4 17.7 C0.1 12.5 -0.7 4.3 2 2.6 C4.4 1.2 17.3 1.7 24.4 1.1 C26 0.8 27.4 0.4 29 0.8 C31.4 1.4 32.3 2.6 33.1 3.5 z M31.9 3.6 C31.2 2.8 30.4 1.7 28.2 1.2 C26.7 0.8 25.5 1.2 24 1.5 C17.6 2 5.9 1.5 3.7 2.8 C1.3 4.3 2 11.8 2.2 16.5 C2.5 20.6 3.3 23.8 3.2 28.5 C3.1 30.7 3 33.9 5.4 33.7 C8.3 33.3 10.1 30 14.1 25.5 C16.1 23.3 17.8 20.9 19.4 18.3 C20.4 19.4 21.2 20.3 21.8 20.5 C23.7 21.2 28.6 23.5 33.3 15.9 C37.5 9.2 32.4 5.3 31.9 3.6 z" opacity="0.15" id="n1" /><path d="M27.3 0.6 C21.7 1.9 4.7 0.8 2 2.5 C-0.7 4.2 0.1 12.4 0.4 17.6 C0.7 22.1 1.6 25.6 1.5 30.8 C1.4 33.2 1.3 36.8 3.9 36.5 C7.1 36.1 9.1 32.4 13.5 27.5 C21.5 18.6 26.6 6 27.3 0.6 z" id="o1" fill="#342520" /><path d="M27.3 0.6 C26.6 6 21.5 18.6 13.5 27.5 C9.1 32.4 7.1 36.1 3.9 36.5 C1.3 36.8 1.4 33.2 1.5 30.8 C1.6 25.6 0.7 22.1 0.4 17.6 C0.1 12.4 -0.7 4.2 2 2.5 C4.7 0.8 21.7 1.9 27.3 0.6 z M25.6 1.4 C20.7 2.5 5.8 1.6 3.4 3.1 C1 4.6 1.8 11.8 2 16.3 C2.3 20.2 3.5 22.1 3.4 26.6 C3.3 28.7 4 33 6.3 32.8 C9.1 32.4 9.7 29.3 13.5 25 C20.5 17.2 25 6.1 25.6 1.4 z" opacity="0.15" id="p1" /></g><g transform="translate(129, 83.39996) translate(73, 3)" id="q1"><path d="M36 2.5 C38.6 4.2 37.9 12.4 37.6 17.6 C37.4 22.1 36.4 25.7 36.5 30.8 C36.6 33.2 36.8 36.8 34.1 36.5 C30.8 36.1 28.8 32.4 24.5 27.5 C22.3 25 20.4 22.3 18.7 19.6 C17.6 20.8 16.7 21.7 16 22 C13.9 22.8 7 24.6 2.7 17.8 C-2.2 10.2 4.5 5.2 4.9 3.4 C5.7 2.5 6.6 1.3 9 0.7 C10.5 0.3 12 0.8 13.6 1 C20.7 1.7 33.7 1.1 36 2.5 z M34.2 2.7 C32.1 1.4 20.5 2 14.2 1.4 C12.8 1.2 11.4 0.8 10.1 1.1 C8 1.6 7.2 2.7 6.4 3.5 C6 5.1 0.1 9.6 4.4 16.4 C8.2 22.5 14.4 20.9 16.3 20.2 C16.9 19.9 17.7 19.1 18.7 18.1 C20.2 20.5 21.9 22.9 23.9 25.2 C27.7 29.6 29.5 32.9 32.5 33.2 C34.9 33.5 34.7 30.2 34.6 28.1 C34.5 23.5 35.4 20.3 35.6 16.3 C35.9 11.5 36.6 4.2 34.2 2.7 z" opacity="0.15" id="r1" /><path d="M10.7 0.6 C16.3 1.9 33.3 0.8 36 2.5 C38.7 4.2 37.9 12.4 37.6 17.6 C37.3 22.1 36.4 25.6 36.5 30.8 C36.6 33.2 36.7 36.8 34.1 36.5 C30.9 36.1 28.9 32.4 24.5 27.5 C16.5 18.6 11.4 6 10.7 0.6 z" id="s1" fill="#342520" /><path d="M10.7 0.6 C16.3 1.9 33.3 0.8 36 2.5 C38.7 4.2 37.9 12.4 37.6 17.6 C37.3 22.1 36.4 25.6 36.5 30.8 C36.6 33.2 36.7 36.8 34.1 36.5 C30.9 36.1 28.9 32.4 24.5 27.5 C16.5 18.6 11.4 6 10.7 0.6 z M12 1.3 C12.6 6 17.3 16.8 24.5 24.5 C28.5 28.7 30.3 31.9 33.2 32.3 C35.6 32.6 35.5 29.4 35.4 27.4 C35.3 22.9 36.1 19.9 36.4 16 C36.7 11.5 37.4 4.4 35 3 C32.6 1.6 17.1 2.4 12 1.3 z" opacity="0.15" id="t1" /></g><g transform="translate(86.90001, 77.19997) translate(38, 0)" id="u1"><g id="v1"><path d="M67 2.2 C73.4 3.6 81.6 6.5 84.5 10.5 C87.4 14.5 90.2 22.1 89.1 36.2 C88 50.3 87.7 63.3 84.9 70.8 C82.1 78.3 75 87 64.4 90.8 C57.6 93.3 51.2 94.5 45.2 94.6 C44.9 94.6 44.8 94.6 44.7 94.6 C38.7 94.5 32.3 93.2 25.5 90.8 C15 87 7.8 78.2 5 70.7 C2.2 63.2 2 50.4 0.9 36.3 C-0.2 22.2 2.6 14.7 5.5 10.6 C8.4 6.5 16.6 3.6 23 2.3 C27.2 1.4 34.4 0.8 44.7 0.5 C55.5 0.7 62.8 1.3 67 2.2 z" id="w1" fill="#7B4C3A" /><path d="M72.4 85.7 C70 87.7 67.2 89.4 63.9 90.6 C57.1 93.1 50.7 94.3 44.7 94.4 C44.6 94.4 44.5 94.4 44.5 94.4 C44.4 94.4 44.3 94.4 44.3 94.4 C38.3 94.3 31.9 93 25.1 90.6 C21.8 89.4 19.1 87.8 16.7 85.9 C13.9 74 13 66.5 13.9 63.2 C15.3 57.8 17.2 56.8 11.8 50.9 C6.4 45 12 38 19.6 33.1 C24.6 29.8 27.9 28.7 29.3 29.6 C26.3 28.2 24.3 28.9 22.8 29.2 C20.5 29.7 22.5 24.9 27.2 23.7 C31.9 22.5 36 23.2 38.1 25.2 C40.2 27.2 41.4 28.8 43.6 28.7 C43.7 28.7 43.9 28.7 44 28.7 C43.7 28.7 43.9 28.7 44.5 28.7 C45.1 28.7 45.3 28.7 45 28.7 C45.1 28.7 45.2 28.7 45.4 28.7 C47.6 28.8 48.9 27.4 51.1 25.4 C53.2 23.4 57.4 22 61.9 23.7 C66.4 25.4 68.8 30 66.5 29.5 C65 29.2 62.8 28.1 59.8 29.5 C61.2 28.6 64.5 29.7 69.5 33 C77 38 82.7 45.1 77.3 51 C71.8 56.9 73.7 57.8 75.2 63.3 C75.9 66.4 75 73.9 72.4 85.7 z" id="x1" fill="#342520" /><path d="M56.9 1 C57.3 1.3 53.2 1.7 52.8 7 C52.6 8.7 55.1 17.3 55.5 19.4 C56.7 24.8 55.9 24.4 54.6 27.2 C50.2 36.4 49 41.7 51.9 46.6 C53.8 49.8 57.2 53.4 62 57.4 C64.9 60.2 66.8 62.7 67.6 64.8 C69.5 69.9 72.6 79 67.6 86.6 C62.6 94.2 58.2 102.4 44.8 102.4 C31.4 102.4 23.8 94.2 20.3 84.8 C16.8 75.4 19 72.6 21.7 67.1 C23.4 63.6 24.8 60.8 28.6 57.5 C32.4 54.2 35.9 50 37.8 46.7 C40.6 41.8 39.4 36.5 35.1 27.3 C33.7 24.5 33 24.9 34.2 19.5 C34.8 16.9 37 12.2 37 7.1 C37 2 32.6 1.2 32.9 1 C33.8 0.9 37.8 0.5 44.8 0.5 C51.8 0.5 55.9 0.9 56.9 1 z" id="y1" fill="#FAF4E8" /><path d="M67 2.2 C73.4 3.6 81.6 6.5 84.5 10.5 C87.4 14.5 90.2 22.1 89.1 36.2 C88 50.3 87.7 63.3 84.9 70.8 C82.1 78.3 75 87 64.4 90.8 C57.6 93.3 51.2 94.5 45.2 94.6 C44.9 94.6 44.8 94.6 44.7 94.6 C38.7 94.5 32.3 93.2 25.5 90.8 C15 87 7.8 78.2 5 70.7 C2.2 63.2 2 50.4 0.9 36.3 C-0.2 22.2 2.6 14.7 5.5 10.6 C8.4 6.5 16.6 3.6 23 2.3 C27.2 1.4 34.4 0.8 44.7 0.5 C55.5 0.7 62.8 1.3 67 2.2 z M66.4 2.4 C62.3 1.5 55.2 0.9 44.7 0.7 C34.7 1 27.7 1.6 23.6 2.5 C17.4 3.8 9.4 6.6 6.6 10.6 C3.8 14.6 1 21.9 2.1 35.6 C3.2 49.3 3.4 61.8 6.1 69.1 C8.8 76.4 15.8 85 26 88.7 C32.6 91 38.8 92.3 44.7 92.4 C44.8 92.4 44.9 92.4 45.2 92.4 C51 92.3 57.3 91.1 63.9 88.7 C74.2 85 81.1 76.5 83.9 69.2 C86.7 61.9 86.9 49.2 88 35.5 C89.1 21.8 86.3 14.4 83.5 10.5 C80.7 6.6 72.6 3.8 66.4 2.4 z" fill-opacity="0.3" id="z1" /></g></g><g id="a2"><g transform="translate(86.90001, 76.79997) translate(53, 43)" id="b2"><g transform="translate(0, 9)" id="c2"><path d="M29.8 1 C33.9 0.7 37.3 1 40 1.8 C44.1 3.1 47.1 4.3 48.6 6 C50.1 7.7 52.5 11.7 53.9 15 C55.3 18.4 56 20.1 56.1 22.7 C56.2 25.3 55.9 29.5 57.7 34.6 C59.6 39.7 60 45.1 56.1 49.2 C52.2 53.3 52.5 53.8 48.6 53.6 C44.7 53.4 41.7 51.5 40 48.5 C38.3 45.5 35.1 41.9 31.5 41.5 C31.1 41.5 30.8 41.4 30.5 41.4 C30.4 41.4 30.3 41.5 30.1 41.5 L30.1 41.4 C30 41.4 29.9 41.4 29.8 41.4 C29.7 41.4 29.6 41.4 29.5 41.4 L29.5 41.5 C29.3 41.5 29.2 41.4 29.1 41.4 C28.8 41.4 28.5 41.5 28.1 41.5 C24.5 41.9 21.3 45.5 19.6 48.5 C17.9 51.5 14.9 53.4 11 53.6 C7.1 53.8 7.4 53.3 3.5 49.2 C-0.4 45.1 0 39.8 1.9 34.7 C3.8 29.6 3.5 25.4 3.5 22.8 C3.5 20.2 4.4 18.5 5.7 15.1 C7 11.7 9.6 7.7 11 6 C12.4 4.3 15.4 3.1 19.6 1.8 C22.3 1 25.7 0.7 29.8 1 z" id="d2" fill="#FAF4E8" /><path d="M43.8 52.4 C42.2 51.5 40.9 50.2 40 48.6 C38.3 45.6 35.1 42 31.5 41.6 C31.1 41.6 30.8 41.5 30.5 41.5 C30.4 41.5 30.3 41.6 30.1 41.6 L30.1 41.5 C30 41.5 29.9 41.5 29.8 41.5 C29.7 41.5 29.6 41.5 29.5 41.5 L29.5 41.6 C29.3 41.6 29.2 41.5 29.1 41.5 C28.8 41.5 28.5 41.6 28.1 41.6 C24.5 42 21.3 45.6 19.6 48.6 C19 49.7 18.2 50.7 17.2 51.4 C18.5 46.6 22 41.2 22 36.3 C22 28.9 16 20.6 17.8 15.3 C19.6 10 26.6 9.5 30.4 9.5 C34.2 9.5 38.9 9.5 41.2 14 C43.5 18.5 38.1 27.5 38.3 36.3 C38.3 42.2 42.8 47.6 43.8 52.4 z" id="e2" fill="#D8C6BA" /><path d="M19.7 48.4 C24.1 50.1 26.4 50.2 29.5 50.2 C36 50.2 39.7 48.2 39.7 48.2 C39.7 48.2 37.2 40.5 29.3 40.6 C21.5 40.6 19.7 48.4 19.7 48.4 z" id="f2" fill="#FAF4E7" /><path d="M29.8 1 C33.9 0.7 37.3 1 40 1.8 C44.1 3.1 47.1 4.3 48.6 6 C50.1 7.7 52.5 11.7 53.9 15 C55.3 18.4 56 20.1 56.1 22.7 C56.2 25.3 55.9 29.5 57.7 34.6 C59.6 39.7 60 45.1 56.1 49.2 C52.2 53.3 52.5 53.8 48.6 53.6 C44.7 53.4 41.7 51.5 40 48.5 C37.3 49.2 35.1 50.3 29.8 50.3 C24.5 50.3 22.2 49.5 19.6 48.5 C17.4 51.8 14.9 53.4 11 53.6 C7.1 53.8 7.4 53.3 3.5 49.2 C-0.4 45.1 0 39.8 1.9 34.7 C3.8 29.6 3.5 25.4 3.5 22.8 C3.5 20.2 4.4 18.5 5.7 15.1 C7 11.7 9.6 7.7 11 6 C12.4 4.3 15.4 3.1 19.6 1.8 C22.3 1 25.7 0.7 29.8 1 z M29.8 1 C26 0.7 22.9 1 20.4 1.7 C16.5 2.9 13.8 4 12.5 5.6 C11.2 7.2 8.8 10.9 7.6 14 C6.4 17.1 5.6 18.7 5.6 21.1 C5.6 23.5 5.9 27.4 4.1 32.1 C2.3 36.8 2 41.7 5.6 45.5 C9.2 49.3 8.9 49.7 12.5 49.6 C16.1 49.5 18.9 47.7 20.4 44.9 C21.9 42.1 20.4 48.3 29 48.3 C39.2 48.3 37.6 42.2 39.2 44.9 C40.8 47.7 43.5 49.4 47.1 49.6 C50.7 49.8 50.4 49.3 54 45.5 C57.6 41.7 57.2 36.7 55.5 32 C53.8 27.3 54.1 23.4 54 21 C53.9 18.6 53.3 17 52 13.9 C50.7 10.9 48.5 7.2 47.1 5.6 C45.8 4.1 43 3 39.2 1.8 C36.7 1 33.6 0.8 29.8 1 z" fill-opacity="0.4" id="g2" /></g></g><g transform="translate(169.6, 161.8) scale(1) translate(-169.6, -167.8) translate(91.20001, 85.19997) translate(65, 74)" id="h2"><path d="M4.2 17 C7.4 16.4 9.1 15 10.5 13.9 C11.4 13.2 12.4 12.3 13.4 11.1 C14.7 12.7 15.6 13.7 16.2 14.1 C17 14.8 19.4 16.3 20.9 16.9 C22.4 17.5 26.3 17.8 26.3 17.2 C26.3 16.6 21.8 15.9 20.2 14.7 C18.6 13.5 17 12.5 15.9 11 C14.9 9.6 15.3 8.6 15.2 7 C15.1 5 15.4 2.8 15.5 1.3 C15.6 -0.7 12.3 -0.1 12.3 1.3 C12.3 2.7 12.3 4.8 12.3 6.6 C12.3 8.4 11.6 10.6 10.2 11.8 C8.8 13 6.9 14.5 4.8 15.3 C3.5 15.8 0.8 16.4 0.9 17 C0.8 17.4 2.9 17.3 4.2 17 z" id="i2" fill="#282421" /></g><g transform="translate(169.6, 148.2) scale(1.2) translate(-169.6, -151.2) translate(110.1, 95.09997) translate(49, 48)" id="j2"><g id="k2"><path d="M19.3 2.5 C16.1 -0.7 10.5 2 10.5 2 C10.5 2 4.9 -0.7 1.7 2.5 C-3 7.2 6.6 13.8 10.5 15.3 C14.4 13.8 24 7.2 19.3 2.5 z" id="l2" fill="#282421" /><path d="M14.2 2.5 C12.8 2.8 11.6 3.7 10.1 3.4 C8.7 3.1 8.8 3.3 7.7 2.6 C6.3 1.8 4.6 1.5 3.7 2.1 C2.9 2.6 2.1 3.5 2.8 4.2 C3.5 5 5 4.9 6.5 4.8 C7.2 4.8 9.9 4.9 10.4 4.8 C11.6 4.9 13.5 5.6 15 4.7 C16.4 4 15.8 2.1 14.2 2.5 z" id="m2" fill="#FFF" /></g></g><g transform="translate(90.40001, 84.99997) translate(48, 25)" id="n2"><g transform="translate(10.39189, 9.559633) scale(-1, 1) translate(-10.39189, -9.559633) translate(0.891892, 0.559633)" id="o2"><path d="M7 16.8 C8.5 17.2 12.9 17.1 15.3 16.8 C17.2 16.6 17.9 16.6 18.2 15.3 C18.5 14 19.8 12.3 18.7 9.2 C17 4.2 16.1 2.3 10.4 1.5 C7.1 1 4.6 -0.8 3.4 0.9 C2.5 2.3 1 7.8 1 10.6 C1 16.8 1.3 15.3 7 16.8 z" id="p2" fill="#7B4C3A" /><path d="M9.2 17.1 C11.4 17.1 13.3 15.9 14.5 14.2 C15.1 13.3 14.8 11.9 14.5 10.8 C13.8 7.8 11.3 5.7 7.9 5.7 C4.5 5.7 2.4 7.6 1.3 10.3 C0.9 11.2 0.4 12.9 0.8 13.7 C1.4 16.8 6.8 17.1 9.2 17.1 z" id="q2" fill="#282421" /><g transform="translate(4.324324, 7.761468)" id="r2"><path d="M4.8 1.9 C4.8 0.7 3.8 -0.2 2.6 -0.2 C1.5 -0.2 0.5 0.8 0.5 2 C0.5 3.2 1.5 4.2 2.7 4.2 C2.7 4.1 2.7 4.1 2.7 4 C2.5 3.5 2.6 3 3.1 2.5 C3.7 1.9 4.2 1.8 4.8 1.9 z" id="s2" fill="#FFF" /><circle cx="4.2" cy="3.5" r="1" id="t2" fill="#FFF" /></g></g></g><g transform="translate(91.5, 84.99997) translate(86, 25)" id="u2"><g transform="translate(0.864865, 0.559633)" id="v2"><g transform="translate(0.378378, 0)" id="w2"><path d="M5.7 16.8 C7.2 17.2 11.6 17.1 14 16.8 C15.9 16.6 16.6 16.6 16.9 15.3 C17.2 14 18.5 12.3 17.4 9.2 C15.7 4.2 14.8 2.3 9.1 1.5 C5.8 1 3.3 -0.8 2.2 0.9 C1.2 2.3 -0.2 7.8 -0.2 10.5 C-0.3 16.8 0 15.3 5.7 16.8 z" id="x2" fill="#7B4C3A" /><path d="M8 17.1 C10.2 17.1 12.1 15.9 13.3 14.2 C13.9 13.3 13.6 11.9 13.3 10.8 C12.6 7.8 10.1 5.7 6.7 5.7 C3.3 5.7 1.2 7.6 0.1 10.3 C-0.3 11.2 -0.8 12.9 -0.4 13.7 C0.2 16.8 5.6 17.1 8 17.1 z" id="y2" fill="#282421" /><g transform="translate(8.743243, 10.26147) scale(-1, 1) translate(-8.743243, -10.26147) translate(6.243243, 7.761468)" id="z2"><path d="M5 1.9 C5 0.7 4 -0.2 2.8 -0.2 C1.7 -0.2 0.7 0.8 0.7 2 C0.7 3.2 1.7 4.2 2.9 4.2 C2.9 4.1 2.9 4.1 2.9 4 C2.7 3.5 2.8 3 3.3 2.5 C3.9 1.9 4.4 1.8 5 1.9 z" id="a3" fill="#FFF" /><circle cx="4.4" cy="3.5" r="1" id="b3" fill="#FFF" /></g></g></g></g></g></g></g></g><defs><g transform="translate(17.09519, 0.800995) translate(-135.2952, -293.601)" id="c3" fill="#000"><path d="M118.2 302.7 C118.4 307.4 132.5 311.2 149.8 311.2 C167.1 311.2 181.2 307.4 181.4 302.7 C181.4 307.5 181.4 310.1 181.4 310.5 C181.4 315.3 167.3 319.1 149.8 319.1 C132.3 319.1 118.2 315.2 118.2 310.5 L118.2 302.7 L118.2 302.7 z" fill-opacity="0.4528" id="d3" fill="#593001" /><path d="M118.7 301.7 C118.9 306.4 133 310.2 150.3 310.2 C167.6 310.2 181.7 306.4 181.9 301.7 C181.9 306.5 181.9 309.1 181.9 309.5 C181.9 314.3 167.8 318.1 150.3 318.1 C132.8 318.1 118.7 314.2 118.7 309.5 L118.7 301.7 L118.7 301.7 z" id="e3" fill="#DA8113" /><linearGradient x1="46.0545" y1="-118.6926" x2="45.4656" y2="-118.6926" gradientUnits="userSpaceOnUse" gradientTransform="matrix(117.135, 0, 0, 28.4634, -5208.417, 3687.795)" id="f3"><stop offset="0%" stop-color="#D9952A" stop-opacity="1" /><stop offset="6.438854%" stop-color="#CA7519" stop-opacity="1" /><stop offset="30.54%" stop-color="#E3AD3A" stop-opacity="1" /><stop offset="51.05%" stop-color="#FFEC91" stop-opacity="1" /><stop offset="68.8%" stop-color="#E9BD44" stop-opacity="1" /><stop offset="86.24%" stop-color="#FFED6C" stop-opacity="1" /><stop offset="93.87%" stop-color="#F2D353" stop-opacity="1" /><stop offset="100%" stop-color="#F2B947" stop-opacity="1" /></linearGradient><path d="M118.2 301.6 C118.4 306.1 132.7 309.7 150.3 309.7 C167.9 309.7 182.2 306.1 182.4 301.6 C182.4 306.2 182.4 308.7 182.4 309 C182.4 313.5 168 317.2 150.3 317.2 C132.6 317.2 118.2 313.5 118.2 309 L118.2 301.6 L118.2 301.6 z" id="g3" style="fill:url(#f3)" /><linearGradient x1="45.4914" y1="-117.9547" x2="45.9407" y2="-117.5895" gradientUnits="userSpaceOnUse" gradientTransform="matrix(115.425, 0, 0, 29.925, -5125.077, 3826.124)" id="h3"><stop offset="0%" stop-color="#F4E072" stop-opacity="1" /><stop offset="100%" stop-color="#DB9427" stop-opacity="1" /></linearGradient><ellipse cx="150.3" cy="301.5" rx="31.6" ry="8.2" id="i3" style="fill:url(#h3)" /><linearGradient x1="45.4656" y1="-126.0065" x2="46.0545" y2="-126.0065" gradientUnits="userSpaceOnUse" gradientTransform="matrix(117.135, 0, 0, 18.6219, -5208.417, 2651.479)" id="j3"><stop offset="0%" stop-color="#D9952A" stop-opacity="1" /><stop offset="6.438854%" stop-color="#CA7519" stop-opacity="1" /><stop offset="30.54%" stop-color="#E3AD3A" stop-opacity="1" /><stop offset="51.05%" stop-color="#FFEC91" stop-opacity="1" /><stop offset="68.8%" stop-color="#E9BD44" stop-opacity="1" /><stop offset="86.24%" stop-color="#FFED6C" stop-opacity="1" /><stop offset="93.87%" stop-color="#F2D353" stop-opacity="1" /><stop offset="100%" stop-color="#F2B947" stop-opacity="1" /></linearGradient><path d="M119.2 299.9 C119 300.2 118.9 300.6 118.9 301 C118.9 305.5 132.9 309.2 150.3 309.2 C167.7 309.2 181.7 305.5 181.7 301 C181.7 300.6 181.6 300.3 181.4 299.9 C182 300.5 182.4 301.2 182.4 301.9 C182.4 306.4 168 310.1 150.3 310.1 C132.6 310.1 118.2 306.4 118.2 301.9 C118.2 301.3 118.6 300.6 119.2 299.9 z" id="k3" style="fill:url(#j3)" /><linearGradient x1="45.196" y1="-121.5895" x2="45.3746" y2="-120.6758" gradientUnits="userSpaceOnUse" gradientTransform="matrix(101.745, 0, 0, 23.94, -4458.332, 3199.41)" id="l3"><stop offset="0%" stop-color="#F8DD61" stop-opacity="1" /><stop offset="100%" stop-color="#EAA330" stop-opacity="1" /></linearGradient><ellipse cx="150.3" cy="300.8" rx="27.8" ry="6.6" id="m3" style="fill:url(#l3)" /><linearGradient x1="45.5694" y1="-134.267" x2="45.0221" y2="-134.267" gradientUnits="userSpaceOnUse" gradientTransform="matrix(101.745, 0, 0, 13.2525, -4458.332, 2077.223)" id="n3"><stop offset="0%" stop-color="#F4CA2F" stop-opacity="1" /><stop offset="51.38%" stop-color="#BF7737" stop-opacity="1" /><stop offset="100%" stop-color="#E4A929" stop-opacity="1" /></linearGradient><path d="M122.6 301.5 C122.5 301.3 122.4 301 122.4 300.8 C122.4 297.2 134.9 294.2 150.2 294.2 C165.5 294.2 178 297.1 178 300.8 C178 301 177.9 301.3 177.8 301.5 C176.3 298.2 164.5 295.6 150.1 295.6 C135.7 295.6 124.1 298.2 122.6 301.5 z" id="o3" style="fill:url(#n3)" /></g></defs><desc>7B7KBCB5C6B,YQW495LU1XE7yfl9CxmFwAymyOCEOWPoXO6eT9+RGZB2jsY40NWC0wtkUzN2B6m/rgN8UIufHppAmHonOcnUNEZrM8ykhAmZxy4RpAwSOavjoQtiEo6EW2NyjIj+s4biGJ0zUxXyuOQpj1zdmwkx+g==</desc></svg>