<?xml version="1.0" encoding="utf-8"?><!DOCTYPE svg PUBLIC "-//W3C//DTD SVG 1.1//EN" "http://www.w3.org/Graphics/SVG/1.1/DTD/svg11.dtd"><svg x="0" y="0" width="340px" height="340px" viewBox="0, 0, 340, 340" preserveAspectRatio="xMidYMid" font-size="0" id="a" enable-background="new 0 0 340 340" xmlns="http://www.w3.org/2000/svg" xmlns:xlink="http://www.w3.org/1999/xlink" xmlns:xml="http://www.w3.org/XML/1998/namespace" version="1.1"><g id="b" fill="#000"><g id="c"><g transform="translate(0, 0) translate(0, 224)" id="d"><ellipse cx="168.6" cy="53.1" rx="57.8" ry="12.8" fill-opacity="0.25" id="e" /></g><g id="f"><g transform="translate(100.2, 86.89998) translate(8, 107)" id="g"><path d="M17.9 35.7 C13.1 32.3 10.5 28 10 21.2 C9.9 20.1 0.7 17.8 0.4 21.9 C0.1 28 2.1 33.7 4.6 38.4 C7.9 44.5 15.6 50.4 23.9 50.4 L33.1 33.8 C29.3 37.3 22.1 38.7 17.9 35.7 z" id="h" fill="#293C49" /><path d="M0.4 21.9 C2 23.7 7 22.6 10 21.2 C9.9 20.1 9.9 19 9.9 17.8 C10.1 6.6 20 4.3 17.6 0.8 C15.2 -2.7 5.9 7.2 4.7 9 C1.9 13.4 0.6 17.8 0.4 21.9 z" id="i" fill="#4B5966" /><path d="M0.4 21.9 C0.6 17.8 1.9 13.4 4.7 9 C5.9 7.2 15.2 -2.7 17.6 0.8 C20 4.3 10.1 6.6 9.9 17.8 C9.9 19 9.9 20.1 10 21.2 C10.5 28 13.1 32.3 17.9 35.7 C22.1 38.7 29.3 37.3 33.1 33.8 L23.9 50.4 C15.6 50.4 7.9 44.5 4.6 38.4 C2.1 33.7 0.1 28 0.4 21.9 z M5.8 10.5 C3.3 14.5 2.1 18.5 1.9 22.2 C1.6 27.7 3.4 32.9 5.7 37.1 C8.7 42.6 15.7 48 23.2 48 L30.2 36.8 C26.8 40 20.8 39.5 17 36.8 C12.7 33.7 9.7 31.4 9.2 25.3 C9.1 24.3 8.6 19.6 8.6 18.6 C8.9 8.4 19.2 2.4 16.5 0.9 C14.9 -1.2 6.9 8.9 5.8 10.5 z" opacity="0.15" id="j" /></g><g transform="translate(128.0306, 273.3644) scale(1.583851) translate(-128.0306, -273.3644) translate(128.7, 274.8) rotate(20, 0, 0) scale(0.7) translate(-124.7, -274.8) translate(101.9, 76.39996) translate(14, 151)" id="k"><path d="M21.4 0.7 C15.4 0.7 10.5 1.3 7.1 4.6 C3.7 7.9 0 10.4 0.4 18.5 C0.8 26.6 3.2 33.9 10.9 36.8 C6.8 39 6.4 40.4 6.8 43.2 C7.1 45.9 6.5 46.6 14 45.9 C19 45.5 23.5 45.2 27.5 45.2 C29.2 42.4 29.8 38.9 29.3 34.7 C30.6 32.1 35 17.8 32.3 12 C29.6 6.2 27.4 0.7 21.4 0.7 z" id="l" fill="#293C49" /><path d="M21.4 0.7 C27.4 0.7 29.6 6.2 32.3 12 C35 17.8 30.6 32.1 29.3 34.7 C29.8 38.9 29.2 42.4 27.5 45.2 C23.5 45.2 19 45.5 14 45.9 C6.5 46.6 7.1 45.9 6.8 43.2 C6.4 40.4 6.8 39 10.9 36.8 C3.2 33.9 0.8 26.6 0.4 18.5 C0 10.4 3.7 7.9 7.1 4.6 C10.5 1.3 15.4 0.7 21.4 0.7 z M21.1 1.4 C15.5 1.4 11 1.9 7.8 5 C4.6 8 1.2 10.3 1.6 17.9 C2 25.4 6 34.1 13.2 36.8 C9.4 38.9 7.8 38.9 8.2 41.5 C8.4 44 7.2 43.9 14.2 43.3 C18.8 42.9 23 42.6 26.7 42.6 C28.3 40 28.9 36.8 28.4 32.9 C29.6 30.5 33.7 17.2 31.2 11.8 C28.7 6.5 26.6 1.4 21.1 1.4 z" opacity="0.15" id="m" /></g><g transform="translate(210.4693, 273.4644) scale(1.583851) translate(-210.4693, -273.4644) translate(209.8, 274.9) rotate(-20, 0, 0) scale(0.7) translate(-213.8, -274.9) translate(108, 76.89996) translate(98, 175.5) scale(-1, 1) translate(-98, -175.5) translate(81, 151)" id="n"><path d="M22.1 0.7 C16.1 0.7 11.2 1.3 7.8 4.6 C4.4 7.9 0.6 10.4 1 18.5 C1.4 26.6 3.8 33.9 11.5 36.8 C7.4 39 7 40.4 7.4 43.2 C7.8 46 7.1 46.6 14.6 45.9 C19.6 45.5 24.1 45.2 28.1 45.2 C29.8 42.4 30.4 38.9 29.9 34.7 C31.2 32.1 35.6 17.8 32.9 12 C30.2 6.2 28 0.7 22.1 0.7 z" id="o" fill="#293C49" /><path d="M22.1 0.7 C28 0.7 30.2 6.2 32.9 12 C35.6 17.8 31.2 32.1 29.9 34.7 C30.4 38.9 29.8 42.4 28.1 45.2 C24.1 45.2 19.6 45.5 14.6 45.9 C7.1 46.6 7.8 46 7.4 43.2 C7 40.4 7.4 39 11.5 36.8 C3.8 33.9 1.4 26.6 1 18.5 C0.6 10.4 4.4 7.9 7.8 4.6 C11.2 1.3 16.1 0.7 22.1 0.7 z M21.8 1.1 C16.2 1.1 11.6 1.7 8.4 4.8 C5.2 7.9 1.6 10.2 2 17.8 C2.4 25.4 6.9 33.7 14.1 36.5 C10.3 38.5 8 38.9 8.4 41.5 C8.8 44.1 7.7 44.2 14.8 43.5 C19.5 43.1 23.7 42.9 27.4 42.9 C29 40.2 29.6 36.9 29.1 33 C30.3 30.6 34.5 17.1 31.9 11.7 C29.4 6.3 27.3 1.1 21.8 1.1 z" opacity="0.15" id="p" /></g><g transform="translate(96.90001, 90.79997) translate(24, 65)" id="q"><g transform="translate(4, 0)" id="r"><path d="M71 19.7 C73.2 28.5 78.4 30.1 83 37.6 C89.4 45.5 87.3 61.5 83.3 73 C82 76.7 78.7 86.3 76.6 97.4 C74.6 108.4 76.2 117.3 72.2 120.7 C70.8 122.2 64.9 123.5 55.5 123.5 C52.1 123.5 51 122.5 44.7 122.5 C38.4 122.5 36.3 123.6 33.3 123.5 C24.6 123.1 21 123.2 18.1 120.7 C13.8 116.2 15.5 106.2 12.9 95.6 C10.6 86.1 6.5 78.3 5.5 74 C3.5 64.9 0.2 50.2 6.3 39.2 C9.2 32.9 15.3 26.1 16.9 17.6 C18.6 8.1 34.9 5 43.7 4.4 C55 3.6 68.6 10.1 71 19.7 z" id="s" fill="#293C49" /><path d="M84.2 39.3 C71.9 51.2 58.6 57.1 44.5 57.1 C30.5 57.1 17.9 51 6.6 38.7 C9.6 32.5 15.4 25.9 17 17.6 C18.6 8.1 34.9 5 43.7 4.4 C55 3.6 68.6 10.1 71 19.7 C73.2 28.5 78.4 30.1 83 37.6 C83.4 38.1 83.8 38.7 84.2 39.3 z" id="t" fill="#4B5966" /><path d="M71 19.7 C73.2 28.5 78.4 30.1 83 37.6 C89.4 45.5 87.3 61.5 83.3 73 C82 76.7 78.7 86.3 76.6 97.4 C74.6 108.4 76.2 117.3 72.2 120.7 C70.8 122.2 64.9 123.5 55.5 123.5 C52.1 123.5 51 122.5 44.7 122.5 C38.4 122.5 36.3 123.6 33.3 123.5 C24.6 123.1 21 123.2 18.1 120.7 C13.8 116.2 15.5 106.2 12.9 95.6 C10.6 86.1 6.5 78.3 5.5 74 C3.5 64.9 0.2 50.2 6.3 39.2 C9.2 32.9 15.3 26.1 16.9 17.6 C18.6 8.1 34.9 5 43.7 4.4 C55 3.6 68.6 10.1 71 19.7 z M69.6 20.3 C67.4 11 54.5 4.8 43.8 5.5 C35.4 6.1 20 9.1 18.4 18.3 C16.9 26.5 11.1 33 8.4 39.1 C2.6 49.7 5.7 63.8 7.6 72.6 C8.5 76.7 12.4 84.3 14.6 93.4 C17.1 103.6 15.5 113.3 19.5 117.6 C22.2 120 25.7 119.9 33.9 120.3 C36.7 120.4 38.7 119.3 44.7 119.3 C50.7 119.3 51.7 120.3 54.9 120.3 C63.8 120.3 69.4 119 70.7 117.6 C74.5 114.3 73 105.7 74.9 95.1 C76.9 84.4 80 75.1 81.2 71.6 C85 60.5 87 45.1 80.9 37.5 C76.6 30.3 71.7 28.8 69.6 20.3 z" opacity="0.15" id="u" /></g></g><g transform="translate(129.3335, 194.585) scale(0.8238703, 0.8248383) translate(-120.8, -183.4) translate(87.80001, 81.79997) translate(33, 103)" id="v"><g id="w"><path d="M48.8 34 C46.6 34 38.7 32 37.5 31.2 C33.2 28.2 31.8 27.2 27.1 23 C25.9 21.9 24.3 16.5 22.7 14.9 C17.2 9.4 9.6 -1.4 5.4 0.3 C5 0.5 4.3 2.6 3.8 3.9 C1.9 8.4 1.4 11.6 0.7 18 C0 24.4 1.5 39.1 2.2 43.1 C3.6 50.8 5.5 55.4 7.4 65.5 C9.3 75.6 10.8 87.1 9.2 89 C8.5 89.9 2.7 94.1 1.4 97.9 C1.1 98.8 1.4 103 2.6 104.9 C3.7 106.7 12 106.1 14.5 106.1 C19.4 106.1 28.6 105.2 30.9 103.9 C33.2 102.6 34.8 98.1 34.7 94.5 C34.6 90.9 32.3 75.9 32.9 59.9 C33 51.7 31.9 44 34 41.4 C34.5 40.8 36.1 42.5 37.6 43.7 C39.5 45.3 41.4 46.7 43.1 47.7 C46 49.4 47.8 50.4 48 50.4 C48.5 50.4 49.3 50.2 50.2 49.8 C51.5 49.3 53.2 48.9 54.5 48 C55.8 47.2 57.8 45.9 58.5 45.5 C60.8 43.9 63.1 41.5 64 42.4 C66.6 45 64.8 50.8 65.1 59.8 C65.7 75.7 63.5 90.8 63.3 94.4 C63.1 98 64.7 102.5 67.1 103.8 C69.5 105.1 78.6 106 83.5 106 C85.9 106 94.2 106.6 95.4 104.8 C96.5 102.9 96.9 98.8 96.6 97.8 C95.2 94 89.5 89.8 88.8 88.9 C87.2 87 88.8 72.3 90.7 62.2 C92.6 52.1 93.9 48.1 95.3 40.4 C96 36.4 96.9 24.8 96.9 18.8 C96.7 12.8 95.1 5.6 93.5 2.6 C92.9 0.9 93.1 -0.6 91.8 0.3 C89.4 2 84.5 7.4 82 10.8 C80.1 13.4 77.3 14.7 74.4 18 C72.3 20.3 70.4 25.9 68.5 27.6 C63.9 31.6 51 34 48.8 34 z" id="x" fill="#4B5966" /><path d="M5.4 0.1 C5 0.3 4.3 2.4 3.8 3.7 C1.9 8.2 1.4 11.4 0.7 17.8 C0 24.2 1.4 38.9 2.1 43 C2.1 43.1 2.1 43.2 2.2 43.3 C2.6 43.2 4.1 45 5.4 45.1 C7.1 45.3 8.5 43.7 8.7 41.5 C8.8 39.1 6.9 35.4 6.9 31.3 C6.8 24.8 8.8 17.5 10.6 14 C12.9 9.7 10.5 4.6 8.7 1.2 C7.4 0.2 6.3 -0.2 5.4 0.1 z" id="y" fill="#EDEEEF" /><path d="M95.3 40.4 C96 36.4 96.9 24.8 96.9 18.8 C96.7 12.8 95.1 5.6 93.5 2.6 C92.9 0.9 93.1 -0.6 91.8 0.3 C91 0.8 90.1 1.8 89.1 3 C87.5 6.3 86.1 10.5 88 14.2 C89.8 17.6 89.9 27.7 89.1 34.9 C88.6 39.3 87.4 41.4 87.5 43.7 C87.9 50 93.5 46.7 94.1 46.3 C94.1 45.9 95.2 40.8 95.3 40.4 z" id="z" fill="#EDEEEF" /><g id="a1"><path d="M48.8 34 C51 34 63.9 31.6 68.5 27.6 C70.4 25.9 72.3 20.3 74.4 18 C77.3 14.7 80.1 13.4 82 10.8 C84.5 7.4 89.4 2 91.8 0.3 C93.1 -0.6 92.9 0.9 93.5 2.6 C95.1 5.6 96.7 12.8 96.9 18.8 C96.9 24.8 96 36.4 95.3 40.4 C93.9 48.1 92.6 52.1 90.7 62.2 C88.8 72.3 87.2 87 88.8 88.9 C89.5 89.8 95.2 94 96.6 97.8 C96.9 98.8 96.5 102.9 95.4 104.8 C94.2 106.6 85.9 106 83.5 106 C78.6 106 69.5 105.1 67.1 103.8 C64.7 102.5 63.1 98 63.3 94.4 C63.5 90.8 65.7 75.7 65.1 59.8 C64.8 50.8 66.6 45 64 42.4 C63.1 41.5 60.8 43.9 58.5 45.5 C57.8 45.9 55.8 47.2 54.5 48 C53.2 48.9 51.5 49.3 50.2 49.8 C49.3 50.2 48.5 50.4 48 50.4 C47.8 50.4 46 49.4 43.1 47.7 C41.4 46.7 39.5 45.3 37.6 43.7 C36.1 42.5 34.5 40.8 34 41.4 C31.9 44 33 51.7 32.9 59.9 C32.3 75.9 34.6 90.9 34.7 94.5 C34.8 98.1 33.2 102.6 30.9 103.9 C28.6 105.2 19.4 106.1 14.5 106.1 C12 106.1 3.7 106.7 2.6 104.9 C1.4 103 1.1 98.8 1.4 97.9 C2.7 94.1 8.5 89.9 9.2 89 C10.8 87.1 9.3 75.6 7.4 65.5 C5.5 55.4 3.6 50.8 2.2 43.1 C1.5 39.1 0 24.4 0.7 18 C1.4 11.6 1.9 8.4 3.8 3.9 C4.3 2.6 5 0.5 5.4 0.3 C9.6 -1.4 17.2 9.4 22.7 14.9 C24.3 16.5 25.9 21.9 27.1 23 C31.8 27.2 33.2 28.2 37.5 31.2 C38.7 32 46.6 34 48.8 34 z M48.8 36 C46.7 36 39.3 33.2 38.1 32.5 C34 29.7 30.6 28.5 26.1 24.5 C25 23.5 22.3 17.6 20.8 16.1 C15.6 10.9 11.8 1.7 7.8 3.3 C7.4 3.5 6.8 5.5 6.3 6.7 C4.5 10.9 4.1 13.9 3.4 20 C2.7 26.1 4.2 39.9 4.8 43.7 C6.1 51 7.9 55.3 9.7 64.8 C11.5 74.3 13.5 86.4 11.9 88.2 C11.9 90.1 4.5 94.9 3.9 96.6 C3.6 97.4 3.9 100.3 5.1 102.1 C6.1 103.8 14 103.2 16.3 103.2 C20.9 103.2 27.9 102.3 30 101 C32.1 99.7 32.8 94.2 32.7 90.8 C32.6 87.4 29.4 71.9 30 56.8 C30.1 49.1 30 39.8 32 37.4 C32.5 36.8 37.5 42 39 43.2 C40.8 44.7 47.9 48.3 48.7 47.9 C49.9 47.4 53.2 46.3 54.4 45.5 C55.6 44.7 59.7 41.6 60.4 41.3 C62.6 39.8 65.1 38.1 66.5 38.1 C68 40.2 67 51 67.3 59.5 C67.9 74.5 64.8 88.8 64.6 92.2 C64.4 95.6 65 99.9 67.3 101.1 C69.6 102.3 76.8 103.2 81.5 103.2 C83.8 103.2 91.5 104.9 92.6 103.2 C93.6 101.4 94.4 98.7 94.1 97.8 C92.8 94.2 87.8 91.8 87.2 90.9 C85.7 89.1 86.5 71.4 88.3 61.9 C90.1 52.4 91.3 48.6 92.6 41.3 C93.3 37.5 94.1 26.6 94.1 20.9 C94 15.1 92.5 8.3 91 5.4 C90.4 3.8 90.6 2.4 89.4 3.2 C87.1 4.8 83.9 10.2 81.6 13.4 C79.8 15.9 76.9 17.5 74.1 20.6 C72.1 22.8 71.2 27.1 69.4 28.7 C65 32.6 50.9 36 48.8 36 z" fill-opacity="0.3" id="b1" /></g></g></g></g><g transform="translate(170, 196.9) scale(0.896373) translate(-170, -196.9)" id="c1"><g transform="translate(86.3, 105.4) translate(44, 0)" id="d1"><path d="M45.1 1.4 C55.8 2.8 63.2 5.8 66.5 8.6 C69.8 11.4 74.2 15 76.3 20.8 C78.4 26.6 79.7 33.1 78.8 39.4 C78.2 43 76.1 49.2 74.9 52 C72.5 57.5 70.1 60 69 63.4 C67.8 67 66.4 72 65.1 77.1 C63.8 82.2 59.8 86.5 57.1 88.8 C54.8 90.7 50.1 90.1 49.3 90.8 C46.3 93.7 45.4 95 39 94.9 C32.6 94.9 29.6 91.2 29 90.8 C28.3 90.2 25.3 91.1 22.3 88.9 C19.2 86.6 15 84.1 12.5 77.3 C10 70.5 9.4 67.2 8.9 63.3 C8.1 57 2.9 49.8 1.9 46.5 C0.9 43.2 -1.9 29.5 2.2 20.7 C6.3 11.9 7.2 10.3 14.1 6.6 C18 4.6 25.3 1.9 30.3 1.4 C34.1 1 40.8 0.8 45.1 1.4 z" id="e1" fill="#4B5966" /><path d="M18.7 4.7 C20.9 4.5 22.8 4.3 24.3 4.2 C27.3 3.9 31.9 3.1 33.3 3.8 C36.7 5.8 37.9 6.8 39.9 6.9 C41.9 7.1 44.8 3.8 47 3.8 C48 3.8 51.4 4.2 54.6 4.3 C55.5 4.3 56.6 4.3 58 4.1 C50.9 1.9 44.7 0.8 39.5 0.8 C36.4 0.8 31.9 1.1 27.6 2 C25.5 2.4 22.6 3.3 18.7 4.7 z" id="f1" fill="#D07331" /><path d="M57 4.6 C57.1 4.6 57.2 4.6 57.4 4.6 C50.5 2.5 44.5 1.4 39.5 1.4 C37.7 1.4 35.3 1.5 32.8 1.8 C32 1.8 31.3 1.9 30.6 2 C25.8 2.5 18.7 5 15 7 C8.3 10.5 7.4 12 3.5 20.5 C-0.5 28.9 2.2 42 3.2 45.2 C4.1 48.3 9.2 55.2 9.9 61.2 C10.4 65 11 68.1 13.4 74.7 C15.8 81.2 19.9 83.6 22.9 85.8 C25.8 87.9 28.7 87 29.4 87.6 C29.9 88 32.8 91.5 39 91.5 C45.2 91.6 46.1 90.4 49 87.6 C49.7 86.9 54.3 87.5 56.5 85.7 C59.1 83.5 63 79.3 64.2 74.5 C65.5 69.6 66.8 64.8 68 61.3 C69.1 58.1 71.4 55.7 73.7 50.4 C74.9 47.7 76.9 41.8 77.5 38.4 C78.3 32.3 77.1 26.1 75.1 20.6 C73 15 68.8 11.5 65.6 8.9 C63.9 7.4 61 5.9 57 4.6 z M57.6 4.1 C61.7 5.5 64.7 7.1 66.5 8.6 C69.8 11.4 74.2 15 76.3 20.8 C78.4 26.6 79.7 33.1 78.8 39.4 C78.2 43 76.1 49.2 74.9 52 C72.5 57.5 70.1 60 69 63.4 C67.8 67 66.4 72 65.1 77.1 C63.8 82.2 59.8 86.5 57.1 88.8 C54.8 90.7 50.1 90.1 49.3 90.8 C46.3 93.7 45.4 95 39 94.9 C32.6 94.9 29.6 91.2 29 90.8 C28.3 90.2 25.3 91.1 22.3 88.9 C19.2 86.6 15 84.1 12.5 77.3 C10 70.5 9.4 67.2 8.9 63.3 C8.1 57 2.9 49.8 1.9 46.5 C0.9 43.2 -1.9 29.5 2.2 20.7 C6.3 11.9 7.2 10.3 14.1 6.6 C18 4.6 25.3 1.9 30.3 1.4 C31 1.3 31.7 1.3 32.6 1.2 C35.2 0.9 37.6 0.8 39.5 0.8 C44.7 0.8 50.9 1.9 58 4.1 C57.9 4.1 57.7 4.1 57.6 4.1 z" opacity="0.45" id="g1" /></g><g transform="translate(138.1, 124.6) scale(0.7) translate(-138.1, -124.6) translate(96.7, 78.89996) translate(16, 0)" id="h1"><g id="i1"><path d="M27.8 10.3 C24.4 3.6 20.9 -0.6 19.4 0.1 C16.2 1.6 11.7 10.8 8.9 17.1 C4.7 22.1 0.8 27.6 0.3 34.1 C1.2 33.3 2.1 32.4 3 31.6 C1.5 36.6 1.5 42.1 3.2 47.1 C3.5 46.3 3.8 45.5 4.2 44.7 C5.2 50.9 7.8 57.6 13.6 56.5 C22.4 54.8 36.6 44.1 38.7 35.7 C40.4 28.5 32.1 18.9 27.8 10.3 z" id="j1" fill="#293C49" /><path d="M27.8 10.3 C32.1 18.9 40.4 28.5 38.7 35.7 C36.6 44.1 22.4 54.8 13.6 56.5 C7.8 57.6 5.2 50.9 4.2 44.7 C3.8 45.5 3.5 46.3 3.2 47.1 C1.5 42.1 1.5 36.6 3 31.6 C2.1 32.4 1.2 33.3 0.3 34.1 C0.8 27.6 4.7 22.1 8.9 17.1 C11.7 10.8 16.2 1.6 19.4 0.1 C20.9 -0.6 24.4 3.6 27.8 10.3 z M26.9 10.9 C23.9 4.9 20.7 1.2 19.4 1.8 C16.6 3.1 12.5 11.3 10 17 C6.2 21.5 2.8 25 2.4 30.8 C3.2 30.1 4.1 29.7 4.9 29 C3.6 33.5 2.3 38.1 3.8 42.6 C4.1 41.9 5.4 40.9 5.8 40.2 C6.7 45.7 9 53.2 14.2 52.3 C22.1 50.8 34.8 41.2 36.6 33.7 C38.2 27.2 30.8 18.6 26.9 10.9 z" opacity="0.15" id="k1" /><path d="M25 34.7 C26.2 33.7 27.6 32.5 29 31.9 C25 31.5 20.8 32.4 17.3 34.5 C19.1 29.2 23.9 26.3 29.5 27 C29.5 26.9 29.5 26.9 29.4 26.8 C28.1 25.8 25.2 24.8 23.1 25.1 C24.3 22.1 24.6 20.1 25.8 17.1 C24.4 17.4 22.3 16.9 20.6 18.2 L19.7 15.6 C19.7 15.6 22.4 12.4 23.4 12.3 C21.9 9.8 20.5 8.2 19.5 8.3 C14.8 8.8 13.9 20 11.5 28.5 C10 33.6 9.2 44.3 11.5 48.5 C13.1 51.6 18.1 45.7 21.3 44.4 C21.3 44.4 26.6 40.2 30.6 40.3 C30.7 40.3 30.8 40.3 30.9 40.2 C29.5 37.8 27.5 35.9 25 34.7 z" id="l1" fill="#4B5966" /></g></g><g transform="translate(198.9, 124.1) scale(0.7) translate(-198.9, -124.1) translate(107.7, 78.39996) translate(97.5, 28.5) scale(-1, 1) translate(-97.5, -28.5) translate(78, 0)" id="m1"><path d="M0.3 34.1 C0.7 27.5 4.6 22.1 8.9 17.1 C11.7 10.8 16.2 1.6 19.4 0.1 C20.9 -0.6 24.4 3.7 27.8 10.3 C32.1 18.9 40.3 28.5 38.6 35.6 C36.2 46.2 22.4 55.5 13.5 56.4 C7.7 57 5.2 50.6 4.1 44.6 C3.7 45.4 3.4 46.2 3.1 47 C1.5 42 1.4 36.5 2.9 31.5 C2.1 32.4 1.2 33.3 0.3 34.1 z" id="n1" fill="#293C49" /><path d="M27.8 10.3 C32.1 18.9 40.4 28.5 38.7 35.7 C36.6 44.1 22.4 54.8 13.6 56.5 C7.8 57.6 5.2 50.9 4.2 44.7 C3.8 45.5 3.5 46.3 3.2 47.1 C1.5 42.1 1.5 36.6 3 31.6 C2.1 32.4 1.2 33.3 0.3 34.1 C0.8 27.6 4.7 22.1 8.9 17.1 C11.7 10.8 16.2 1.6 19.4 0.1 C20.9 -0.6 24.4 3.6 27.8 10.3 z M26.9 10.9 C23.9 4.9 20.7 1.2 19.4 1.8 C16.5 3.1 12.5 11.3 10 17 C6.2 21.5 2.8 25 2.4 30.8 C3.2 30.1 4.1 29.7 4.9 29 C3.6 33.5 2.3 38.1 3.8 42.6 C4.1 41.9 5.4 40.9 5.8 40.2 C6.7 45.7 9 53.2 14.2 52.3 C22.1 50.8 34.8 41.2 36.6 33.7 C38.2 27.2 30.8 18.6 26.9 10.9 z" opacity="0.15" id="o1" /><path d="M11.6 28.3 C14.1 19.8 14.9 8.6 19.6 8.1 C20.7 8 22.2 9.5 23.7 12 C22.3 12.9 19.9 15.4 19.9 15.4 L20.8 18 C22.4 16.7 24.5 17.2 26 16.9 C24.8 19.9 24.5 21.9 23.3 24.9 C25.5 24.5 28.7 25.8 29.9 26.8 C24.2 26.1 19.3 28.9 17.5 34.3 C21 32.2 25.1 31.3 29.2 31.7 C27.7 32.3 26.4 33.5 25.2 34.5 C27.5 35.6 29.4 37.4 30.8 39.5 C27.8 41.4 26 42.4 21.9 45.3 C18.1 48 13.4 51.4 11.8 48.3 C9.3 44.1 10.1 33.5 11.6 28.3 z" id="p1" fill="#4B5966" /></g><g id="q1"><g transform="translate(104.5, 106.7) translate(32, 35)" id="r1"><g transform="translate(0, 8)" id="s1"><path d="M64 23.9 C61.8 21.3 58.3 20.9 55.7 19 C52.7 16.8 52.1 14 50.4 10.8 C46.5 3.6 41 0.8 33.5 0.7 C26.9 0.7 21.5 2.7 17.6 9 C16 11.6 15.2 15.2 13.1 17.5 C11 19.8 7.8 20.1 5.4 21.8 C1.5 24.6 -1.2 31.1 0.6 36 C2 39.8 8.4 42.3 12.3 43.7 C24.5 48.1 40.4 48 52.7 44.3 C56.1 43.3 59.5 41.8 62.5 39.8 C65.7 37.6 66.6 36.4 66.6 32.6 C66.5 29.7 66 26.2 64 23.9 z" id="t1" fill="#EDEEEE" /><path d="M64 23.9 C66 26.2 66.5 29.7 66.6 32.6 C66.6 36.4 65.7 37.6 62.5 39.8 C59.5 41.8 56.1 43.3 52.7 44.3 C40.4 48 24.5 48.1 12.3 43.7 C8.4 42.3 2 39.8 0.6 36 C-1.2 31.1 1.5 24.6 5.4 21.8 C7.8 20.1 11 19.8 13.1 17.5 C15.2 15.2 16 11.6 17.6 9 C21.5 2.7 26.9 0.7 33.5 0.7 C41 0.8 46.5 3.6 50.4 10.8 C52.1 14 52.7 16.8 55.7 19 C58.3 20.9 61.8 21.3 64 23.9 z M61.8 23.5 C59.8 21 56.5 20.7 54.1 18.9 C51.3 16.8 50.8 14.2 49.2 11.3 C45.6 4.6 40.5 1.9 33.5 1.9 C27.4 1.9 22.3 3.7 18.7 9.6 C17.2 12 16.5 15.4 14.5 17.5 C12.6 19.6 9.6 19.9 7.4 21.5 C3.7 24.1 1.2 30.2 2.9 34.7 C4.2 38.3 10.2 40.6 13.8 41.9 C25.1 46 39.9 45.9 51.3 42.4 C54.5 41.5 57.7 40.1 60.4 38.3 C63.4 36.2 64.3 35.1 64.3 31.6 C64.2 28.9 63.7 25.6 61.8 23.5 z" opacity="0.15" id="u1" /><g transform="translate(19, 14)" id="v1" fill="#282421"><path d="M7 2.2 C6.3 1.8 5.3 2.4 5.2 3.3 C5.2 4.1 6.8 4.9 7.6 4.5 C8.3 4.1 7.8 2.9 7.2 2.4" id="w1" /><path d="M2.1 0.7 C1.4 0.3 0.4 0.9 0.3 1.8 C0.3 2.6 1.3 3.7 2.1 3.3 C2.9 2.9 2.9 1.3 2.3 0.8" id="x1" /><path d="M2.1 7.4 C1.4 7 0.4 7.6 0.3 8.5 C0.3 9.3 1.4 10.2 2.1 9.9 C2.8 9.5 2.9 8.1 2.2 7.6" id="y1" /><path d="M22 2.2 C22.7 1.8 23.7 2.4 23.8 3.3 C23.8 4.1 22.2 4.9 21.4 4.5 C20.7 4.1 21.2 2.9 21.8 2.4" id="z1" /><path d="M26.9 0.7 C27.6 0.3 28.6 0.9 28.7 1.8 C28.7 2.6 27.7 3.7 26.9 3.3 C26.2 2.9 26.1 1.3 26.7 0.8" id="a2" /><path d="M26.9 7.4 C27.6 7 28.6 7.6 28.7 8.5 C28.7 9.3 27.6 10.2 26.9 9.9 C26.2 9.5 26.1 8.1 26.8 7.6" id="b2" /></g></g></g><g transform="translate(104.4, 81.89994) translate(51, 88)" id="c2"><g id="d2"><path d="M13 1.7 C13.1 7.2 12.5 10.3 11.3 11.3 C10.1 12.3 6.8 14.1 1.6 16.8 C0.6 17.5 0.4 18.3 1 19 C1.5 19.6 2.5 19.6 3.9 19 L14.4 13.3 C19.8 16.9 23 18.7 24.2 18.7 C24.8 18.7 26.2 18.7 26.4 18.3 C29.1 17.2 17.7 12.7 17.3 11.3 C17 10.3 16.5 7.1 15.7 1.8 C15.3 1.2 14.8 0.8 14.2 0.6 C13.7 0.5 13.3 0.8 13 1.7 z" id="e2" fill="#353535" /></g></g><g transform="translate(103, 68.29996) translate(59, 84)" id="f2"><g id="g2"><path d="M14.8 1.5 C14 0 10.9 2 8 2 C5.1 2 2 0 1.2 1.5 C0.4 3 0.7 6.3 2.4 8.9 C3.6 10.7 8 10.9 8 10.9 C8 10.9 12.4 10.6 13.6 8.9 C15.3 6.3 15.6 3 14.8 1.5 z" id="h2" fill="#282421" /><path d="M9.3 3.5 C8.9 3.8 8.4 4.1 8.4 4.6 C8.4 5 8.8 5.3 9.1 5.4 C9.5 5.5 9.9 5.5 10.2 5.4 C11.1 5.3 12 5.2 12.6 4.7 C13.4 4 13.6 2.8 12.5 2.5 C11.6 2.2 10.1 3 9.3 3.5 z" id="i2" fill="#F5FAFC" /></g></g><g transform="translate(111.3, 79.29995) translate(29, 47)" id="j2"><g id="k2"><path d="M20.9 2.3 C20 7.6 17.7 8.3 13 7.6 C11.6 7.4 16.5 10.1 19.3 14.3 C21.1 17.1 21.2 21.6 20.9 22.3 C18.8 26 18 25.7 13.5 26.3 C11.3 26.6 9.3 26.5 7 26.5 C4.7 26.5 2.5 30 1.3 28.8 C0.1 27.6 0.1 21.2 0.1 19.5 C0.1 17.4 0.9 8.4 3.5 5.3 C5.6 2.7 21.8 -3 20.9 2.3 z" fill-opacity="0.22" id="l2" fill="#FEFEFE" /><path d="M18.3 19.7 C16.7 16.5 16.9 13 14.2 11.4 C11.5 9.8 8.3 9.3 5.4 11.4 C2.5 13.5 2.9 15.1 3 16.5 C3.1 17.9 4.8 20.8 7.5 21.9 C10.2 23 19.8 22.8 18.3 19.7 z" id="m2" fill="#000001" /><g transform="translate(5, 11)" id="n2" fill="#FFFFFE"><path d="M2.8 5 C3.3 5 3.4 4 3.8 3.7 C4.3 3.3 5.3 3.7 5.3 3 C5.3 1.8 4.4 1.2 3.2 1 C1.8 0.8 0.6 1.4 1 3.2 C1.3 4.4 1.6 5 2.8 5 z" id="o2" /><circle cx="1" cy="6" r="1" id="p2" /></g></g></g><g transform="translate(101.5, 79.29995) translate(77, 47)" id="q2"><g id="r2"><path d="M0.9 4 C-0.5 11.1 4.1 8.3 8.8 7.5 C10.2 7.3 5.3 10 2.5 14.2 C0.7 17 0.6 21.5 0.9 22.2 C3 25.9 5.1 25.6 10.6 26.7 C12.8 27.1 19.4 31.1 20.2 27.7 C20.6 26.1 21 22.2 21 19.6 C21 17.5 20.4 8.1 17.8 5 C15.6 2.3 2.3 -3.1 0.9 4 z" fill-opacity="0.22" id="s2" fill="#FEFEFE" /><path d="M4 19.7 C5.6 16.5 5.4 13 8.1 11.4 C10.8 9.8 14 9.3 16.9 11.4 C19.8 13.5 19.3 15.1 19.2 16.5 C19.1 17.9 17.4 20.8 14.7 21.9 C12 23 2.5 22.8 4 19.7 z" id="t2" fill="#000001" /><g transform="translate(7, 12)" id="u2" fill="#FFFFFE"><path d="M2.8 4 C3.3 4 3.4 3 3.8 2.7 C4.3 2.3 5.3 2.7 5.3 2 C5.3 0.8 4.4 0 3.2 0 C2 0 1 1 1 2.2 C1 3.4 1.6 4 2.8 4 z" id="v2" /><circle cx="1" cy="5" r="1" id="w2" /></g></g></g></g></g></g></g><defs><g transform="translate(17.09519, 0.800995) translate(-135.2952, -293.601)" id="x2" fill="#000"><path d="M118.2 302.7 C118.4 307.4 132.5 311.2 149.8 311.2 C167.1 311.2 181.2 307.4 181.4 302.7 C181.4 307.5 181.4 310.1 181.4 310.5 C181.4 315.3 167.3 319.1 149.8 319.1 C132.3 319.1 118.2 315.2 118.2 310.5 L118.2 302.7 L118.2 302.7 z" fill-opacity="0.4528" id="y2" fill="#593001" /><path d="M118.7 301.7 C118.9 306.4 133 310.2 150.3 310.2 C167.6 310.2 181.7 306.4 181.9 301.7 C181.9 306.5 181.9 309.1 181.9 309.5 C181.9 314.3 167.8 318.1 150.3 318.1 C132.8 318.1 118.7 314.2 118.7 309.5 L118.7 301.7 L118.7 301.7 z" id="z2" fill="#DA8113" /><linearGradient x1="46.0545" y1="-118.6926" x2="45.4656" y2="-118.6926" gradientUnits="userSpaceOnUse" gradientTransform="matrix(117.135, 0, 0, 28.4634, -5208.417, 3687.795)" id="a3"><stop offset="0%" stop-color="#D9952A" stop-opacity="1" /><stop offset="6.438854%" stop-color="#CA7519" stop-opacity="1" /><stop offset="30.54%" stop-color="#E3AD3A" stop-opacity="1" /><stop offset="51.05%" stop-color="#FFEC91" stop-opacity="1" /><stop offset="68.8%" stop-color="#E9BD44" stop-opacity="1" /><stop offset="86.24%" stop-color="#FFED6C" stop-opacity="1" /><stop offset="93.87%" stop-color="#F2D353" stop-opacity="1" /><stop offset="100%" stop-color="#F2B947" stop-opacity="1" /></linearGradient><path d="M118.2 301.6 C118.4 306.1 132.7 309.7 150.3 309.7 C167.9 309.7 182.2 306.1 182.4 301.6 C182.4 306.2 182.4 308.7 182.4 309 C182.4 313.5 168 317.2 150.3 317.2 C132.6 317.2 118.2 313.5 118.2 309 L118.2 301.6 L118.2 301.6 z" id="b3" style="fill:url(#a3)" /><linearGradient x1="45.4914" y1="-117.9547" x2="45.9407" y2="-117.5895" gradientUnits="userSpaceOnUse" gradientTransform="matrix(115.425, 0, 0, 29.925, -5125.077, 3826.124)" id="c3"><stop offset="0%" stop-color="#F4E072" stop-opacity="1" /><stop offset="100%" stop-color="#DB9427" stop-opacity="1" /></linearGradient><ellipse cx="150.3" cy="301.5" rx="31.6" ry="8.2" id="d3" style="fill:url(#c3)" /><linearGradient x1="45.4656" y1="-126.0065" x2="46.0545" y2="-126.0065" gradientUnits="userSpaceOnUse" gradientTransform="matrix(117.135, 0, 0, 18.6219, -5208.417, 2651.479)" id="e3"><stop offset="0%" stop-color="#D9952A" stop-opacity="1" /><stop offset="6.438854%" stop-color="#CA7519" stop-opacity="1" /><stop offset="30.54%" stop-color="#E3AD3A" stop-opacity="1" /><stop offset="51.05%" stop-color="#FFEC91" stop-opacity="1" /><stop offset="68.8%" stop-color="#E9BD44" stop-opacity="1" /><stop offset="86.24%" stop-color="#FFED6C" stop-opacity="1" /><stop offset="93.87%" stop-color="#F2D353" stop-opacity="1" /><stop offset="100%" stop-color="#F2B947" stop-opacity="1" /></linearGradient><path d="M119.2 299.9 C119 300.2 118.9 300.6 118.9 301 C118.9 305.5 132.9 309.2 150.3 309.2 C167.7 309.2 181.7 305.5 181.7 301 C181.7 300.6 181.6 300.3 181.4 299.9 C182 300.5 182.4 301.2 182.4 301.9 C182.4 306.4 168 310.1 150.3 310.1 C132.6 310.1 118.2 306.4 118.2 301.9 C118.2 301.3 118.6 300.6 119.2 299.9 z" id="f3" style="fill:url(#e3)" /><linearGradient x1="45.196" y1="-121.5895" x2="45.3746" y2="-120.6758" gradientUnits="userSpaceOnUse" gradientTransform="matrix(101.745, 0, 0, 23.94, -4458.332, 3199.41)" id="g3"><stop offset="0%" stop-color="#F8DD61" stop-opacity="1" /><stop offset="100%" stop-color="#EAA330" stop-opacity="1" /></linearGradient><ellipse cx="150.3" cy="300.8" rx="27.8" ry="6.6" id="h3" style="fill:url(#g3)" /><linearGradient x1="45.5694" y1="-134.267" x2="45.0221" y2="-134.267" gradientUnits="userSpaceOnUse" gradientTransform="matrix(101.745, 0, 0, 13.2525, -4458.332, 2077.223)" id="i3"><stop offset="0%" stop-color="#F4CA2F" stop-opacity="1" /><stop offset="51.38%" stop-color="#BF7737" stop-opacity="1" /><stop offset="100%" stop-color="#E4A929" stop-opacity="1" /></linearGradient><path d="M122.6 301.5 C122.5 301.3 122.4 301 122.4 300.8 C122.4 297.2 134.9 294.2 150.2 294.2 C165.5 294.2 178 297.1 178 300.8 C178 301 177.9 301.3 177.8 301.5 C176.3 298.2 164.5 295.6 150.1 295.6 C135.7 295.6 124.1 298.2 122.6 301.5 z" id="j3" style="fill:url(#i3)" /></g></defs><desc>ED9B8FH2J9C,HyvCZChpApih6xwAMoSQOq8SG5aYmWj2jWAgoapd87wsiAk1cm09KfbBax5CZFEMz3jDXJBbEbHH1BwKZG013KQaaYcR6sVb7AG1EVVwHVWM5dyjSCmWQdA2aMnX4HyKpUtPu8jGGjiYLWuS6YQ6EOBkgWLRTaQnje/r0ZBYX30=</desc></svg>