<?xml version="1.0" encoding="utf-8"?><!DOCTYPE svg PUBLIC "-//W3C//DTD SVG 1.1//EN" "http://www.w3.org/Graphics/SVG/1.1/DTD/svg11.dtd"><svg x="0" y="0" width="340px" height="340px" viewBox="0, 0, 340, 340" preserveAspectRatio="xMidYMid" font-size="0" id="a" enable-background="new 0 0 340 340" xmlns="http://www.w3.org/2000/svg" xmlns:xlink="http://www.w3.org/1999/xlink" xmlns:xml="http://www.w3.org/XML/1998/namespace" version="1.1"><g id="b" fill="#000"><g id="c"><g transform="translate(0, 0) translate(0, 224)" id="d"><ellipse cx="168.6" cy="53.1" rx="57.8" ry="12.8" fill-opacity="0.25" id="e" /></g><g id="f"><g transform="translate(85.90001, 67.89998) translate(32, 179.5) scale(-1, 1) translate(-32, -179.5) translate(0, 153)" id="g"><g transform="translate(0, 17)" id="h"><path d="M30.7 15 C52.5 16.6 52.4 22.4 52 26.3 C51.6 30.2 36 32.3 37.8 33.7 C39.6 35.1 58.8 32.5 62.5 26.3 C66.2 20.1 62.3 11.8 50.5 7.5 C38.7 3.2 23 -1.1 10.1 2 C3.4 3.6 -3.8 8.7 3.9 12.4 C7.9 14.4 19 14.1 30.7 15 z" id="i" fill="#DD7E4E" /><path d="M30.7 15 C52.5 16.6 52.4 22.4 52 26.3 C51.9 27.1 51.2 27.8 50.2 28.4 C50.3 28.4 50.4 28.5 50.4 28.5 C54.6 25.4 56.1 22.6 55.1 20.2 C53.6 16.6 48.8 12.3 41.2 10.5 C36.1 9.3 28.7 7.9 19.6 6 L12.4 6.8 L12.4 12.3 C12.4 12.6 13.5 13.3 15 14.1 C19.6 14.4 25.1 14.5 30.7 15 z" id="j" fill="#CE734A" /><path d="M30.7 15 C19 14.1 7.9 14.4 3.9 12.4 C-3.8 8.7 3.4 3.6 10.1 2 C23 -1.1 38.7 3.2 50.5 7.5 C62.3 11.8 66.2 20.1 62.5 26.3 C58.8 32.5 39.6 35.1 37.8 33.7 C36 32.3 51.6 30.2 52 26.3 C52.4 22.4 52.5 16.6 30.7 15 z M33.4 13.3 C53.2 14.8 53.4 21.9 53 25.5 C52.8 27 51.1 28.7 48.2 29.9 C44.3 31.5 39.1 32.3 40.1 33.1 C41.7 34.3 59 30.6 62 25.2 C65 19.8 60.9 12.4 50.9 8.8 C40.9 5.2 24 0.1 14.4 2.2 C8.2 3.6 1.8 8.3 8.7 11.7 C12.4 13.5 22.8 12.4 33.4 13.3 z" opacity="0.15" id="k" /></g></g><g transform="translate(128.02, 269.5) scale(0.7540174) translate(-124.5, -269.5) translate(95.10001, 73.99998) translate(21, 121)" id="l"><path d="M22 77.1 C31.1 76.2 36.7 76.5 39.5 72.9 C42.3 69.3 41 56.7 45 46.4 C49 36.1 47.8 3.1 33.3 0.7 C19.9 -1.6 5.4 1.5 1.2 17.1 C-3.8 35.6 8.3 46.8 11.6 50.5 C13.8 53 14.6 54.9 13.9 56.4 C8 57.7 4.2 60.7 2.5 65.1 C0 71.8 2 77.1 4 78.2 C6 79.3 12.9 78.1 22 77.1 z" id="m" fill="#CE734A" /><g id="n"><path d="M22 77.1 C12.9 78.1 6 79.3 4 78.2 C2 77.1 0 71.8 2.5 65.1 C4.2 60.7 8 57.7 13.9 56.4 C14.6 54.9 13.8 53 11.6 50.5 C8.3 46.8 -3.8 35.6 1.2 17.1 C5.4 1.5 19.9 -1.6 33.3 0.7 C47.8 3.1 49 36.1 45 46.4 C41 56.7 42.3 69.3 39.5 72.9 C36.7 76.5 31.1 76.2 22 77.1 z M25.5 74.9 C34.6 74 34.4 74.1 37.2 70.5 C40 66.9 39.1 55.6 43.1 45.3 C47.1 35 47.8 4 33.3 1.6 C19.9 -0.6 8.7 1.3 4.5 16.9 C-0.5 35.4 10.3 47.8 13.6 51.5 C15.8 54 17.1 55.2 17.1 56.9 C11.2 58.2 6.2 59.9 4.5 64.3 C2 70.9 4 74.5 5.2 76.1 C6.4 77.7 16.4 75.9 25.5 74.9 z" fill-opacity="0.221" id="o" /></g></g><g transform="translate(211.88, 269.5) scale(0.7540174) translate(-215.4, -269.5) translate(81.00002, 73.99998) translate(117.5, 160.5) scale(-1, 1) translate(-117.5, -160.5) translate(94, 121)" id="p"><path d="M22 77.1 C31.1 76.2 36.7 76.5 39.5 72.9 C42.3 69.3 41 56.7 45 46.4 C49 36.1 47.8 3.1 33.3 0.7 C19.9 -1.6 5.4 1.5 1.2 17.1 C-3.8 35.6 8.3 46.8 11.6 50.5 C13.8 53 14.6 54.9 13.9 56.4 C8 57.7 4.2 60.7 2.5 65.1 C0 71.8 2 77.1 4 78.2 C6 79.3 12.9 78.1 22 77.1 z" id="q" fill="#CE734A" /><g id="r"><path d="M22 77.1 C12.9 78.1 6 79.3 4 78.2 C2 77.1 0 71.8 2.5 65.1 C4.2 60.7 8 57.7 13.9 56.4 C14.6 54.9 13.8 53 11.6 50.5 C8.3 46.8 -3.8 35.6 1.2 17.1 C5.4 1.5 19.9 -1.6 33.3 0.7 C47.8 3.1 49 36.1 45 46.4 C41 56.7 42.3 69.3 39.5 72.9 C36.7 76.5 31.1 76.2 22 77.1 z M22.3 75.3 C31 74.4 36.1 76 38.8 72.6 C41.5 69.2 40.2 57.1 44.1 47.3 C48 37.5 46.8 5.9 32.9 3.6 C20.1 1.5 7.8 4.1 3.8 18.9 C-1 36.5 9.8 47.1 12.9 50.7 C15 53.1 16.9 56.5 16.2 57.9 C10.5 59.1 5.4 60.6 3.7 64.8 C1.3 71.2 3.1 75.3 5 76.3 C6.9 77.3 13.6 76.2 22.3 75.3 z" fill-opacity="0.221" id="s" /></g></g><g transform="translate(104.3, 92.09998) translate(20, 65)" id="t"><path d="M85.6 52.6 C84.9 39.4 82.9 36.4 79.1 28 C77.8 25 76.2 22.2 74.6 19.6 C71.9 15.2 68.7 13.4 67.3 10 C64.8 4 60.4 3.2 45.5 3.2 C30.7 3.2 27.2 3.2 24.7 9.2 C23.4 12.4 19.3 14.8 16.7 19.1 C15 21.8 13.4 24.8 11.9 28 C8.1 36.5 6.1 39.5 5.4 52.6 C4.4 70.2 10.5 94.3 17.7 109.3 C20.2 114.5 25.5 118.2 29.1 119 C35.7 120.4 41.6 120.8 45.4 120.7 C49.3 120.8 55.2 120.4 61.7 119 C65.3 118.2 70.6 114.5 73.1 109.3 C80.4 94.2 86.5 70.2 85.6 52.6 z" id="u" fill="#DD7E4E" /><path d="M67.9 7.9 C65.4 1.9 60.3 0.1 45.5 0.1 C30.7 0.1 25.5 1.9 23.1 7.9 C21.8 11.1 19.3 14.8 16.7 19 C18.9 25 34.4 33.5 45.5 35.4 C56.6 33.5 72.1 25 74.3 19 C71.7 14.8 69.3 11.1 67.9 7.9 z" id="v" fill="#965622" /><path d="M67.9 7.9 C65.4 1.9 60.3 0.1 45.5 0.1 C30.7 0.1 25.5 1.9 23.1 7.9 C21.8 11.1 19.3 14.8 16.7 19 C18.9 25 34.4 33.5 45.5 35.4 C56.6 33.5 72.1 25 74.3 19 C71.7 14.8 69.3 11.1 67.9 7.9 z" opacity="0.15" id="w" fill="#965622" /><path d="M16.7 19.1 C16.7 19 16.7 19 16.7 19 C19.3 14.8 21.8 11.1 23.1 7.9 C25.5 1.9 30.7 0.1 45.5 0.1 C60.3 0.1 65.4 1.9 67.9 7.9 C69.3 11.1 71.7 14.8 74.3 19 C74.3 19 74.3 19.1 74.3 19.1 C74.4 19.2 74.5 19.4 74.6 19.6 C76.2 22.2 77.8 25 79.1 28 C82.9 36.4 84.9 39.4 85.6 52.6 C86.5 70.2 80.4 94.2 73.1 109.3 C70.6 114.5 65.3 118.2 61.7 119 C55.2 120.4 49.3 120.8 45.4 120.7 C41.6 120.8 35.7 120.4 29.1 119 C25.5 118.2 20.2 114.5 17.7 109.3 C10.5 94.3 4.4 70.2 5.4 52.6 C6.1 39.5 8.1 36.5 11.9 28 C13.4 24.8 15 21.8 16.7 19.1 C16.7 19.1 16.7 19.1 16.7 19.1 z M17.9 19.7 C17.9 19.8 17.9 19.8 17.9 19.8 C16.2 22.4 14.7 25.2 13.3 28.3 C9.6 36.5 7.7 39.3 7 51.9 C6.1 68.8 11.9 91.9 18.8 106.3 C21.2 111.3 26.3 114.9 29.8 115.6 C36.1 117 41.8 117.3 45.4 117.3 C49.1 117.3 54.8 117 61 115.6 C64.5 114.9 69.6 111.3 72 106.3 C79 91.8 84.8 68.8 84 51.9 C83.3 39.3 81.4 36.4 77.7 28.3 C76.5 25.4 75 22.8 73.4 20.3 C73.3 20.1 73.2 19.9 73.1 19.8 C73.1 19.7 73.1 19.7 73.1 19.7 C70.6 15.7 68.3 12.1 67 9 C64.6 3.3 59.7 1.6 45.5 1.6 C31.3 1.6 26.3 3.3 24 9 C22.8 12.1 20.4 15.7 17.9 19.7 C17.9 19.7 17.9 19.7 17.9 19.7 z" opacity="0.15" id="x" /></g><g fill-rule="evenOdd" transform="translate(104.3, 92.09998) translate(65.5, 141.5) scale(-1, 1) translate(-65.5, -141.5) translate(25, 90)" id="y"><path d="M11.6 59.6 C8.7 45.7 0.4 49.4 0.4 27.5 C0.4 14.8 3.7 10 8 0.5 C19 12.8 30.8 15.8 40.4 17.2 C50 15.8 61.9 12.9 72.8 0.5 C77.1 10 80.4 14.8 80.4 27.5 C80.4 49.4 72.1 45.7 69.2 59.6 C68.4 63.3 64.3 74.3 60.3 74.6 C57.1 74.8 53.9 65.5 53.9 61 C53.9 55.5 53.7 50.8 53.3 47.7 C52.5 41.2 48.3 39.3 40.2 35.5 C32.2 39.3 28 41.2 27.1 47.7 C26.7 51 26.5 56.1 26.5 62 C26.5 67.2 22.2 75.8 18.3 74.5 C15.3 73.4 12.3 62.8 11.6 59.6 z" id="z" fill="#F5A376" /><path d="M6.7 100.5 C6.9 96.5 7.2 93.2 12.1 90.1 C13.4 82 13 68.4 11.8 61.1 C13.9 65.1 17.4 71.8 19.7 71.3 C21.6 70.9 25.3 64.7 26.8 60.9 C26.8 71 27.2 83.3 27.6 91.4 C30.6 93.8 30.9 99.1 30.6 100.2 C29 103.6 8.7 102.1 6.7 100.5 z" id="a1" fill="#FEFEFE" /><path d="M74.3 100.5 C74.1 96.5 73.8 93.2 68.9 90.1 C67.6 82 68 68.4 69.2 61.1 C67.1 65.1 63.6 71.8 61.3 71.3 C59.4 70.9 55.7 64.7 54.2 60.9 C54.2 71 53.8 83.3 53.4 91.4 C50.4 93.8 50.1 99.1 50.4 100.2 C52 103.6 72.3 102.1 74.3 100.5 z" id="b1" fill="#FEFEFE" /><path d="M15.2 26.8 C16 25.9 17.5 26.2 18.6 26.5 C21.1 27.2 23.6 27.4 26.2 27.3 C31 26.2 36.7 25.3 40.4 25.3 C44.1 25.3 49.8 26.2 54.6 27.3 C57.2 27.4 59.7 27.2 62.2 26.5 C63.4 26.2 64.9 25.8 65.6 26.8 C66.1 27.4 66.1 28.2 66 29 C65.9 29.8 65.7 30.6 65.4 31.4 C64.9 32.6 64.3 33.8 63.5 34.9 C60.6 41.8 60.6 51.7 56.9 52.4 C52.5 53.2 53.4 46.5 52.6 44.3 C51.3 41 47.3 38.4 40.5 37.6 C33.7 38.4 29.7 41 28.4 44.3 C27.5 46.5 28.5 53.2 24.1 52.4 C20.4 51.7 20.4 41.8 17.5 34.9 C16.7 33.9 16 32.7 15.6 31.4 C15.3 30.6 15.1 29.8 15 29 C14.8 28.3 14.8 27.4 15.2 26.8 z" id="c1" fill="#FEFEFE" /><path d="M53.5 50 C53.1 48.6 53 46.9 52.9 45.6 C52.2 43.4 51.1 41.8 49.3 40.5 C47.2 39.1 44.3 38 40.5 37.6 C33.7 38.4 29.7 41 28.4 44.3 C27.8 45.9 28.1 49.6 26.8 51.5 C26.6 54.3 26.5 57.8 26.5 61.6 C26.6 61.4 26.7 61.1 26.8 60.9 C26.8 71 27.2 83.3 27.6 91.4 C30.6 93.8 30.9 99.1 30.6 100.2 C29 103.6 8.7 102.1 6.7 100.5 C6.9 96.5 7.2 93.2 12.1 90.1 C13.4 82 13 68.4 11.8 61.1 C11.9 61.3 12 61.5 12.1 61.7 C11.9 60.9 11.7 60.1 11.6 59.6 C8.7 45.7 0.4 49.4 0.4 27.5 C0.4 14.8 3.7 10 8 0.5 C19 12.8 30.8 15.8 40.4 17.2 C50 15.8 61.9 12.9 72.8 0.5 C77.1 10 80.4 14.8 80.4 27.5 C80.4 49.4 72.1 45.7 69.2 59.6 C69 60.4 68.7 61.6 68.2 63 C68.6 62.3 68.9 61.7 69.2 61.1 C68 68.4 67.6 82 68.9 90.1 C73.8 93.2 74.1 96.5 74.3 100.5 C72.3 102.1 52 103.6 50.4 100.2 C50.1 99.1 50.4 93.8 53.4 91.4 C53.8 84.1 54.1 73.3 54.2 63.8 C54 62.8 53.9 61.8 53.9 61 C53.9 56.7 53.8 52.9 53.5 50 z M53.8 45.9 C54 46.7 54.1 48.4 54.3 50.9 C54.6 53.7 54.8 56.5 54.8 60.5 C54.8 61.2 55 64.5 55.1 65.5 C55.1 74.4 55.1 84.9 54.8 91.7 C52 94 51.5 96.3 51.8 97.4 C53.3 100.5 70.3 98.9 72.1 97.4 C71.9 93.6 72.6 94 68 91.1 C66.8 83.5 66.2 67.3 67.4 60.5 C67.2 60.7 68 57 70.4 52.3 C72 49.4 75.2 46.7 76.5 42 C77.5 38.3 78.6 33.1 78.2 28.7 C77.3 16.9 75.4 12.6 71.4 3.8 C61.2 15.4 49.4 19.4 40.4 20.7 C31.4 19.4 19.2 15.3 8.9 3.8 C4.8 12.6 3 17.1 3 29 C3 49.5 10.7 46.1 13.4 59.1 C13.5 59.6 13.7 60.3 13.9 61.1 C13.8 60.9 13.7 60.7 13.6 60.5 C14.8 67.3 14.8 83 13.6 90.6 C9 93.5 9 93.6 8.9 97.4 C10.7 98.9 27.6 101.6 29.1 98.4 C29.3 97.4 29.3 94 26.5 91.7 C26.2 84.2 25.8 61.6 25.7 61.8 C25.7 58.2 26.1 53.3 26.5 50.9 C27 48.6 26.7 44.9 27.3 43.4 C28.6 40.3 34 37.2 40.4 36.4 C44 36.9 48.7 38.9 50.7 40.2 C52.3 41.5 53.2 43.9 53.8 45.9 z" opacity="0.15" id="d1" /></g></g><g transform="translate(169.6, 188) scale(0.8657003) translate(-169.6, -188)" id="e1"><path d="M36 2.5 C33.7 1.1 20.7 1.7 13.6 1 C12 0.8 10.5 0.3 9 0.7 C6.6 1.3 5.7 2.5 4.9 3.4 C4.5 5.2 -2.2 10.2 2.7 17.8 C7 24.6 13.9 22.8 16 22 C16.7 21.7 17.6 20.8 18.7 19.6 C20.4 22.3 22.3 25 24.5 27.5 C28.8 32.4 30.8 36.1 34.1 36.5 C36.8 36.8 36.6 33.2 36.5 30.8 C36.4 25.7 37.4 22.1 37.6 17.6 C37.9 12.4 38.6 4.2 36 2.5 z" transform="translate(73, 3) translate(129, 93.69997)" id="f1" fill="#DD7E4E" /><path d="M33.1 3.5 C32.3 2.6 31.4 1.4 29 0.8 C27.4 0.4 26 0.8 24.4 1.1 C17.3 1.7 4.4 1.2 2 2.6 C-0.7 4.3 0.1 12.5 0.4 17.7 C0.7 22.2 1.6 25.7 1.5 30.9 C1.4 33.3 1.3 36.9 3.9 36.6 C7.1 36.2 9.1 32.5 13.5 27.6 C15.7 25.2 17.6 22.5 19.3 19.7 C20.4 20.9 21.3 21.9 22 22.1 C24.1 22.9 29.5 25.4 34.7 17 C39.3 9.7 33.6 5.3 33.1 3.5 z" transform="translate(8, 3) translate(91.3, 94.69997)" id="g1" fill="#DD7E4E" /><g transform="translate(91.3, 94.69997) translate(8, 3)" id="h1"><path d="M33.1 3.5 C33.6 5.3 39.3 9.7 34.7 17 C29.5 25.4 24.1 22.9 22 22.1 C21.3 21.9 20.4 20.9 19.3 19.7 C17.6 22.5 15.7 25.2 13.5 27.6 C9.1 32.5 7.1 36.2 3.9 36.6 C1.3 36.9 1.4 33.3 1.5 30.9 C1.6 25.7 0.7 22.2 0.4 17.7 C0.1 12.5 -0.7 4.3 2 2.6 C4.4 1.2 17.3 1.7 24.4 1.1 C26 0.8 27.4 0.4 29 0.8 C31.4 1.4 32.3 2.6 33.1 3.5 z M31.9 3.6 C31.2 2.8 30.4 1.7 28.2 1.2 C26.7 0.8 25.5 1.2 24 1.5 C17.6 2 5.9 1.5 3.7 2.8 C1.3 4.3 2 11.8 2.2 16.5 C2.5 20.6 3.3 23.8 3.2 28.5 C3.1 30.7 3 33.9 5.4 33.7 C8.3 33.3 10.1 30 14.1 25.5 C16.1 23.3 17.8 20.9 19.4 18.3 C20.4 19.4 21.2 20.3 21.8 20.5 C23.7 21.2 28.6 23.5 33.3 15.9 C37.5 9.2 32.4 5.3 31.9 3.6 z" opacity="0.15" id="i1" /><path d="M27.3 0.6 C21.7 1.9 4.7 0.8 2 2.5 C-0.7 4.2 0.1 12.4 0.4 17.6 C0.7 22.1 1.6 25.6 1.5 30.8 C1.4 33.2 1.3 36.8 3.9 36.5 C7.1 36.1 9.1 32.4 13.5 27.5 C21.5 18.6 26.6 6 27.3 0.6 z" id="j1" fill="#CE734A" /><path d="M27.3 0.6 C26.6 6 21.5 18.6 13.5 27.5 C9.1 32.4 7.1 36.1 3.9 36.5 C1.3 36.8 1.4 33.2 1.5 30.8 C1.6 25.6 0.7 22.1 0.4 17.6 C0.1 12.4 -0.7 4.2 2 2.5 C4.7 0.8 21.7 1.9 27.3 0.6 z M25.6 1.4 C20.7 2.5 5.8 1.6 3.4 3.1 C1 4.6 1.8 11.8 2 16.3 C2.3 20.2 3.5 22.1 3.4 26.6 C3.3 28.7 4 33 6.3 32.8 C9.1 32.4 9.7 29.3 13.5 25 C20.5 17.2 25 6.1 25.6 1.4 z" opacity="0.15" id="k1" /></g><g transform="translate(129, 93.69997) translate(73, 3)" id="l1"><path d="M36 2.5 C38.6 4.2 37.9 12.4 37.6 17.6 C37.4 22.1 36.4 25.7 36.5 30.8 C36.6 33.2 36.8 36.8 34.1 36.5 C30.8 36.1 28.8 32.4 24.5 27.5 C22.3 25 20.4 22.3 18.7 19.6 C17.6 20.8 16.7 21.7 16 22 C13.9 22.8 7 24.6 2.7 17.8 C-2.2 10.2 4.5 5.2 4.9 3.4 C5.7 2.5 6.6 1.3 9 0.7 C10.5 0.3 12 0.8 13.6 1 C20.7 1.7 33.7 1.1 36 2.5 z M34.2 2.7 C32.1 1.4 20.5 2 14.2 1.4 C12.8 1.2 11.4 0.8 10.1 1.1 C8 1.6 7.2 2.7 6.4 3.5 C6 5.1 0.1 9.6 4.4 16.4 C8.2 22.5 14.4 20.9 16.3 20.2 C16.9 19.9 17.7 19.1 18.7 18.1 C20.2 20.5 21.9 22.9 23.9 25.2 C27.7 29.6 29.5 32.9 32.5 33.2 C34.9 33.5 34.7 30.2 34.6 28.1 C34.5 23.5 35.4 20.3 35.6 16.3 C35.9 11.5 36.6 4.2 34.2 2.7 z" opacity="0.15" id="m1" /><path d="M10.7 0.6 C16.3 1.9 33.3 0.8 36 2.5 C38.7 4.2 37.9 12.4 37.6 17.6 C37.3 22.1 36.4 25.6 36.5 30.8 C36.6 33.2 36.7 36.8 34.1 36.5 C30.9 36.1 28.9 32.4 24.5 27.5 C16.5 18.6 11.4 6 10.7 0.6 z" id="n1" fill="#CE734A" /><path d="M10.7 0.6 C16.3 1.9 33.3 0.8 36 2.5 C38.7 4.2 37.9 12.4 37.6 17.6 C37.3 22.1 36.4 25.6 36.5 30.8 C36.6 33.2 36.7 36.8 34.1 36.5 C30.9 36.1 28.9 32.4 24.5 27.5 C16.5 18.6 11.4 6 10.7 0.6 z M12 1.3 C12.6 6 17.3 16.8 24.5 24.5 C28.5 28.7 30.3 31.9 33.2 32.3 C35.6 32.6 35.5 29.4 35.4 27.4 C35.3 22.9 36.1 19.9 36.4 16 C36.7 11.5 37.4 4.4 35 3 C32.6 1.6 17.1 2.4 12 1.3 z" opacity="0.15" id="o1" /></g><g transform="translate(86.90001, 87.49997) translate(38, 0)" id="p1"><g id="q1"><path d="M67 2.2 C73.4 3.6 81.6 6.5 84.5 10.5 C87.4 14.5 90.2 22.1 89.1 36.2 C88 50.3 87.7 63.3 84.9 70.8 C82.1 78.3 75 87 64.4 90.8 C57.6 93.3 51.2 94.5 45.2 94.6 C44.9 94.6 44.8 94.6 44.7 94.6 C38.7 94.5 32.3 93.2 25.5 90.8 C15 87 7.8 78.2 5 70.7 C2.2 63.2 2 50.4 0.9 36.3 C-0.2 22.2 2.6 14.7 5.5 10.6 C8.4 6.5 16.6 3.6 23 2.3 C27.2 1.4 34.4 0.8 44.7 0.5 C55.5 0.7 62.8 1.3 67 2.2 z" id="r1" fill="#ED8B52" /><path d="M72.4 85.7 C70 87.7 67.2 89.4 63.9 90.6 C57.1 93.1 50.7 94.3 44.7 94.4 C44.6 94.4 44.5 94.4 44.5 94.4 C44.4 94.4 44.3 94.4 44.3 94.4 C38.3 94.3 31.9 93 25.1 90.6 C21.8 89.4 19.1 87.8 16.7 85.9 C13.9 74 13 66.5 13.9 63.2 C15.3 57.8 17.2 56.8 11.8 50.9 C6.4 45 12 38 19.6 33.1 C24.6 29.8 27.9 28.7 29.3 29.6 C26.3 28.2 24.3 28.9 22.8 29.2 C20.5 29.7 22.5 24.9 27.2 23.7 C31.9 22.5 36 23.2 38.1 25.2 C40.2 27.2 41.4 28.8 43.6 28.7 C43.7 28.7 43.9 28.7 44 28.7 C43.7 28.7 43.9 28.7 44.5 28.7 C45.1 28.7 45.3 28.7 45 28.7 C45.1 28.7 45.2 28.7 45.4 28.7 C47.6 28.8 48.9 27.4 51.1 25.4 C53.2 23.4 57.4 22 61.9 23.7 C66.4 25.4 68.8 30 66.5 29.5 C65 29.2 62.8 28.1 59.8 29.5 C61.2 28.6 64.5 29.7 69.5 33 C77 38 82.7 45.1 77.3 51 C71.8 56.9 73.7 57.8 75.2 63.3 C75.9 66.4 75 73.9 72.4 85.7 z" id="s1" fill="#DD7E4E" /><path d="M56.9 1 C57.3 1.3 53.2 1.7 52.8 7 C52.6 8.7 55.1 17.3 55.5 19.4 C56.7 24.8 55.9 24.4 54.6 27.2 C50.2 36.4 49 41.7 51.9 46.6 C53.8 49.8 57.2 53.4 62 57.4 C64.9 60.2 66.8 62.7 67.6 64.8 C69.5 69.9 72.6 79 67.6 86.6 C62.6 94.2 58.2 102.4 44.8 102.4 C31.4 102.4 23.8 94.2 20.3 84.8 C16.8 75.4 19 72.6 21.7 67.1 C23.4 63.6 24.8 60.8 28.6 57.5 C32.4 54.2 35.9 50 37.8 46.7 C40.6 41.8 39.4 36.5 35.1 27.3 C33.7 24.5 33 24.9 34.2 19.5 C34.8 16.9 37 12.2 37 7.1 C37 2 32.6 1.2 32.9 1 C33.8 0.9 37.8 0.5 44.8 0.5 C51.8 0.5 55.9 0.9 56.9 1 z" id="t1" fill="#CE734A" /><path d="M67 2.2 C73.4 3.6 81.6 6.5 84.5 10.5 C87.4 14.5 90.2 22.1 89.1 36.2 C88 50.3 87.7 63.3 84.9 70.8 C82.1 78.3 75 87 64.4 90.8 C57.6 93.3 51.2 94.5 45.2 94.6 C44.9 94.6 44.8 94.6 44.7 94.6 C38.7 94.5 32.3 93.2 25.5 90.8 C15 87 7.8 78.2 5 70.7 C2.2 63.2 2 50.4 0.9 36.3 C-0.2 22.2 2.6 14.7 5.5 10.6 C8.4 6.5 16.6 3.6 23 2.3 C27.2 1.4 34.4 0.8 44.7 0.5 C55.5 0.7 62.8 1.3 67 2.2 z M66.4 2.4 C62.3 1.5 55.2 0.9 44.7 0.7 C34.7 1 27.7 1.6 23.6 2.5 C17.4 3.8 9.4 6.6 6.6 10.6 C3.8 14.6 1 21.9 2.1 35.6 C3.2 49.3 3.4 61.8 6.1 69.1 C8.8 76.4 15.8 85 26 88.7 C32.6 91 38.8 92.3 44.7 92.4 C44.8 92.4 44.9 92.4 45.2 92.4 C51 92.3 57.3 91.1 63.9 88.7 C74.2 85 81.1 76.5 83.9 69.2 C86.7 61.9 86.9 49.2 88 35.5 C89.1 21.8 86.3 14.4 83.5 10.5 C80.7 6.6 72.6 3.8 66.4 2.4 z" fill-opacity="0.3" id="u1" /></g></g><g transform="translate(169.6, 150) scale(1.2, 1.16) translate(-169.6, -150)" id="v1"><g transform="translate(102.3, 90.99997) translate(42, 3)" id="w1"><path d="M49.9 76.8 C49.7 75.5 49.3 74.2 48.8 72.8 C47.8 70.2 46 67.8 43.8 65.3 C43 63.2 42.2 60.6 40.1 56.4 C38.2 52.7 32.7 53.1 30.1 47.3 C28.8 42 28.2 36.5 28.4 31.1 C28.4 30.4 28.5 29.6 28.4 28.9 C28.6 18.6 28.7 14.3 34.2 10 C36.3 8.4 39.1 8.4 39.2 6.8 C39.5 2.4 30.6 0.9 25.1 0.7 C19.5 0.9 10.6 2.4 11 6.8 C11.1 8.4 13.9 8.4 16 10 C21.5 14.3 21.6 18.6 21.8 28.9 C21.8 29.6 21.8 30.4 21.8 31.1 C22 36.6 21.4 42 20.1 47.3 C17.5 53.1 12.1 52.7 10.1 56.4 C8 60.6 7.1 63.2 6.4 65.3 C4.2 67.8 2.3 70.1 1.4 72.8 C0.9 74.2 0.5 75.5 0.3 76.8 C1.2 93.2 11.8 94.6 25.1 94 C38.3 94.6 48.9 93.2 49.9 76.8 z" id="x1" fill="#FFF" /><path d="M49.9 76.8 C48.9 93.2 38.3 94.6 25.1 94 C11.8 94.6 1.2 93.2 0.3 76.8 C0.5 75.5 0.9 74.2 1.4 72.8 C2.3 70.1 4.2 67.8 6.4 65.3 C7.1 63.2 8 60.6 10.1 56.4 C12.1 52.7 17.5 53.1 20.1 47.3 C21.4 42 22 36.6 21.8 31.1 C21.8 30.4 21.8 29.6 21.8 28.9 C21.6 18.6 21.5 14.3 16 10 C13.9 8.4 11.1 8.4 11 6.8 C10.6 2.4 19.5 0.9 25.1 0.7 C30.6 0.9 39.5 2.4 39.2 6.8 C39.1 8.4 36.3 8.4 34.2 10 C28.7 14.3 28.6 18.6 28.4 28.9 C28.5 29.6 28.4 30.4 28.4 31.1 C28.2 36.5 28.8 42 30.1 47.3 C32.7 53.1 38.2 52.7 40.1 56.4 C42.2 60.6 43 63.2 43.8 65.3 C46 67.8 47.8 70.2 48.8 72.8 C49.3 74.2 49.7 75.5 49.9 76.8 z M47.2 71.2 C46.2 68.7 44.3 66.5 42.2 64.1 C41.4 62.1 40.9 60.6 38.9 56.6 C37.1 53.1 31.3 52.6 28.8 47.1 C27.6 42 27.8 29.4 27.7 29 C27.9 19.2 28 14 33.3 9.9 C35.3 8.4 38.3 7.9 38.4 6.4 C38.9 3.2 30.4 1.2 25.2 1 C19.9 1.2 11.8 2.2 12.2 6.4 C12.4 8 15 8.5 17 10.1 C22.2 14.2 22 19.2 22.2 29 C22.2 29.7 22.5 43.6 20.6 47.9 C18.1 53.4 13.1 52.7 11.2 56.2 C9.2 60.2 8.3 62.2 7.6 64.2 C8.3 66.2 3.9 68.8 3 71.3 C2.5 72.6 2 73.6 1.8 74.8 C2.7 90.4 12.4 91.5 25.1 90.9 C37.7 91.5 47.7 91.5 48.7 75.9 C48.5 74.6 47.7 72.6 47.2 71.2 z" opacity="0.15" id="y1" /></g><g transform="translate(98.00001, 68.59998) translate(65, 102)" id="z1"><path d="M3.7 6.8 C3.2 7 2.7 7.2 2.1 7.5 C1.3 7.8 0.3 8.3 -0.8 9 C-0.2 10.8 2.2 11.7 6.4 11.6 C10.6 11.5 12.9 10.7 13.4 9 C11.9 8.2 10.8 7.6 10 7.3 C9.6 7.2 9.4 7.1 9.2 7 C9.6 7 9.7 7 9.5 7 C8.6 7 7.1 5.3 7.1 3.7 C7.1 2.1 5.6 2.2 5.5 3.7 C5.6 4.7 5 5.7 3.7 6.8 z" id="a2" /></g><g transform="translate(106.9, 102.4) translate(51, 56)" id="b2"><g id="c2"><path d="M21.7 7 C20.6 1.1 14.2 0.3 11.5 0.3 C8.8 0.3 2.4 1.1 1.3 7 C0.5 11.1 1.3 11.5 1.3 11.5 L11.5 11.5 L21.7 11.5 C21.7 11.5 22.4 11.2 21.7 7 z" id="d2" fill="#282421" /><path d="M18.3 4.3 C18.4 3.8 17.8 3.1 17.5 2.8 C17 2.4 15.4 1.2 11.5 1.1 C7.6 1 6 2.3 5.5 2.8 C5.2 3.1 4.6 3.9 4.7 4.3 C6.2 3.5 9.8 2.8 11.5 6.6 C12.9 3.1 16.8 3.4 18.3 4.3 z" id="e2" fill="#FEFEFE" /></g></g><g transform="translate(108.3, 77.89996) translate(23, 34)" id="f2"><g transform="translate(8, 9)" id="g2"><path d="M5.3 3.2 C8.3 1.4 12.4 0.2 15.8 1 C18.2 1.5 22.8 5.2 24.1 10.9 C23.7 10.7 23.4 10.6 22.9 10.4 C23.2 11.1 23.6 11.9 23.9 12.6 C23.7 13.5 20.8 14.9 20.2 14.3 C19.8 15.5 21.3 17 22.1 17.7 C22 17.8 17.6 17.2 16.1 18.6 C16.7 19.2 16.7 19.4 17.1 19.8 C14.7 20.4 12.2 21 9.7 20.7 C7.9 20.5 5.5 19.9 5 17.9 C4.4 18.5 4.1 19.2 4.1 20 C1.3 18.4 -0.2 15 0.1 11.8 C0.5 8.4 2.3 5 5.3 3.2 z" id="h2" fill="#F5A376" /><path d="M3.7 9.8 C8.9 5.9 20.1 5.8 20 12.5 C19.9 12.7 18.6 19.5 11.4 19.3 C3.6 18.9 3 11.8 3.7 9.8 z" id="i2" fill="#B57983" /><path d="M7.7 6 C6.4 6.9 5.4 8.1 4.1 9 C3.9 9.2 3 9.5 2.9 9.7 C2.7 10.2 3.4 10 3.7 9.9 C4.3 9.8 4.8 9.6 5.3 9.3 C5 10 5.2 11.6 5.5 12.8 C5.9 15.7 7.9 17.7 12.1 18.1 C15.8 18.5 18.8 15.1 18.8 11.4 C18.8 10.9 18.8 10.5 18.7 10 C19.1 10.6 19.4 11.3 19.6 12 C19.7 12.3 19.9 12.1 20 11.9 C20.1 5.9 12.5 2.4 7.7 6 z" id="j2" fill="#282421" /><path d="M16.4 9.3 C16 8.5 15.2 7.9 14.2 7.9 C12.9 7.9 11.8 9 11.8 10.3 C11.8 11.6 12.9 12.7 14.2 12.7 C14.4 12.7 14.5 12.7 14.7 12.6 C15.4 13 15.8 13.5 16 14.2 C17.2 13.1 17.2 10.7 16.4 9.3 z" id="k2" fill="#F7F7F7" /><path d="M-5.4 15.2 C-5.3 17.4 -5.4 19.5 -5.9 21.6 C-3.7 20.4 -2.2 17.9 -2.1 15.4 C-1.8 15 -1.5 14.6 -1.2 14 C-1 16.6 -1.2 16.8 -1.9 18.8 C-1.2 18.3 -0.7 17.4 -0.2 16.3 C0.3 18.2 1.1 20 2.2 21.6 C1.4 17 0.6 11.1 3.2 7.1 C3.8 6.2 5.1 5.3 6.6 4.6 C8 3.7 11.1 3.2 12.3 3.3 C12.2 3 12.2 2.7 12.1 2.5 C14.2 2.1 16.6 3 18 4.6 C18.1 4.1 18.2 3.6 18.3 3.1 C19.7 5 21.9 8.2 22.8 10.4 C23.2 11.4 23.8 12 24.2 11.9 C25.3 11.8 26 11.5 26.5 10 C27 8.5 23.3 1.6 20.7 -0.6 C17.7 -3.7 13.7 -5.9 10.1 -8.4 C10.7 -7.2 11.3 -6.1 11.8 -4.9 C11.3 -5.1 10.8 -5.2 10.2 -5.4 C8.3 -6.5 6.1 -7.2 3.8 -7.4 C4.3 -7.1 4.8 -6.7 5.4 -6.4 C3.9 -6.7 2.3 -6 0.9 -5.4 C0.4 -5.2 -3.6 -3.2 -4.2 -2.9 C-4.2 -2.7 -4.2 -2.5 -4.1 -2.4 C-5.9 -0.7 -6.7 1.1 -6.9 3 C-6.9 3.1 -7 3.3 -7 3.4 C-7.5 5.7 -7.5 8.1 -7.1 10.4 C-6.9 10.1 -6.7 9.7 -6.4 9.4 C-6.3 9.8 -6.2 10.1 -6.1 10.5 C-6.1 10.6 -6.1 10.7 -6 10.7 C-6 11.7 -6.1 12.6 -6.4 13.3 C-6.8 14 -7.2 14.7 -7.8 15.3 C-7 15.7 -6.1 15.5 -5.4 15 C-5.4 15.1 -5.4 15.2 -5.4 15.2 z M-3.9 9.2 L-3.9 9.2 L-3.9 9.2 z" id="l2" fill="#CE734A" /></g></g><g transform="translate(111.5, 77.89996) translate(61, 34)" id="m2"><g id="n2"><path d="M21.7 12.2 C18.7 10.4 14.6 9.2 11.2 10 C8.8 10.5 4.2 14.2 2.9 19.9 C3.3 19.7 3.6 19.6 4.1 19.4 C3.8 20.1 3.4 20.9 3.1 21.6 C3.3 22.5 6.2 23.9 6.8 23.3 C7.2 24.5 5.7 26 4.9 26.7 C5 26.8 9.4 26.2 10.9 27.6 C10.3 28.2 10.3 28.4 9.9 28.8 C12.3 29.4 14.8 30 17.3 29.7 C19.1 29.5 21.5 28.9 22 26.9 C22.6 27.5 22.9 28.2 22.9 29 C25.7 27.4 27.2 24 26.9 20.8 C26.5 17.4 24.7 14 21.7 12.2 z" id="o2" fill="#F5A376" /><path d="M23.2 18.8 C18 14.9 6.8 14.8 6.9 21.5 C7 21.7 8.3 28.5 15.5 28.3 C23.4 27.9 24 20.8 23.2 18.8 z" id="p2" fill="#B57983" /><path d="M24 18.8 C23.9 18.6 23.1 18.2 22.8 18.1 C21.5 17.2 20.5 16 19.2 15.1 C14.4 11.5 6.8 15 6.9 21.2 C7 21.4 7.2 21.5 7.3 21.3 C7.5 20.7 7.9 20 8.2 19.3 C8.1 19.7 8.1 20.2 8.1 20.7 C8.1 24.4 11.1 27.8 14.8 27.4 C19 27 21 25 21.4 22.1 C21.7 20.9 21.9 19.3 21.6 18.6 C22.1 18.8 22.6 19.1 23.2 19.2 C23.6 19.1 24.2 19.3 24 18.8 z" id="q2" fill="#282421" /><path d="M18.4 18.3 C18 17.5 17.2 16.9 16.2 16.9 C14.9 16.9 13.8 18 13.8 19.3 C13.8 20.6 14.9 21.7 16.2 21.7 C16.4 21.7 16.5 21.7 16.7 21.6 C17.4 22 17.8 22.5 18 23.2 C19.1 22.1 19.2 19.7 18.4 18.3 z" id="r2" fill="#F7F7F7" /><path d="M32.4 24 C33.1 24.5 34 24.6 34.8 24.3 C34.2 23.7 33.8 23.1 33.4 22.3 C33.2 21.6 33.1 20.7 33 19.7 C33 19.6 33 19.5 33.1 19.5 C33.2 19.1 33.3 18.8 33.4 18.4 C33.6 18.7 33.8 19.1 34.1 19.4 C34.5 17.1 34.5 14.7 34 12.4 C34 12.3 33.9 12.1 33.9 12 C33.7 10.1 32.9 8.3 31.1 6.6 C31.1 6.4 31.1 6.2 31.2 6.1 C30.6 5.8 26.6 3.8 26.1 3.6 C24.7 2.9 23.2 2.3 21.6 2.6 C22.1 2.3 22.6 1.9 23.2 1.6 C21 1.8 18.8 2.4 16.8 3.6 C16.3 3.7 15.7 3.9 15.2 4.1 C15.8 2.9 16.4 1.8 16.9 0.6 C13.3 3 9.3 5.3 6.3 8.4 C3.7 10.6 0 17.5 0.5 19 C1 20.5 1.7 20.8 2.8 20.9 C3.2 20.9 3.8 20.4 4.2 19.4 C5 17.2 7.3 14 8.7 12.1 C8.8 12.6 8.9 13.1 9 13.6 C10.4 12 12.7 11.1 14.9 11.5 C14.8 11.8 14.8 12.1 14.7 12.3 C16 12.1 19.1 12.7 20.4 13.6 C21.9 14.3 23.2 15.2 23.8 16.1 C26.4 20.2 25.6 26 24.8 30.6 C25.9 29 26.7 27.2 27.2 25.3 C27.7 26.4 28.2 27.4 28.9 27.8 C28.2 25.8 28 25.6 28.2 23 C28.5 23.6 28.8 24 29.1 24.4 C29.2 26.9 30.6 29.4 32.9 30.6 C32.4 28.5 32.3 26.3 32.4 24.2 C32.4 24.2 32.4 24.1 32.4 24 z M30.9 18.3 C30.9 18.3 30.9 18.2 30.9 18.3 C30.9 18.2 30.9 18.3 30.9 18.3 z" id="s2" fill="#CE734A" /></g></g></g></g></g></g><defs><g transform="translate(17.09519, 0.800995) translate(-135.2952, -293.601)" id="t2" fill="#000"><path d="M118.2 302.7 C118.4 307.4 132.5 311.2 149.8 311.2 C167.1 311.2 181.2 307.4 181.4 302.7 C181.4 307.5 181.4 310.1 181.4 310.5 C181.4 315.3 167.3 319.1 149.8 319.1 C132.3 319.1 118.2 315.2 118.2 310.5 L118.2 302.7 L118.2 302.7 z" fill-opacity="0.4528" id="u2" fill="#593001" /><path d="M118.7 301.7 C118.9 306.4 133 310.2 150.3 310.2 C167.6 310.2 181.7 306.4 181.9 301.7 C181.9 306.5 181.9 309.1 181.9 309.5 C181.9 314.3 167.8 318.1 150.3 318.1 C132.8 318.1 118.7 314.2 118.7 309.5 L118.7 301.7 L118.7 301.7 z" id="v2" fill="#DA8113" /><linearGradient x1="46.0545" y1="-118.6926" x2="45.4656" y2="-118.6926" gradientUnits="userSpaceOnUse" gradientTransform="matrix(117.135, 0, 0, 28.4634, -5208.417, 3687.795)" id="w2"><stop offset="0%" stop-color="#D9952A" stop-opacity="1" /><stop offset="6.438854%" stop-color="#CA7519" stop-opacity="1" /><stop offset="30.54%" stop-color="#E3AD3A" stop-opacity="1" /><stop offset="51.05%" stop-color="#FFEC91" stop-opacity="1" /><stop offset="68.8%" stop-color="#E9BD44" stop-opacity="1" /><stop offset="86.24%" stop-color="#FFED6C" stop-opacity="1" /><stop offset="93.87%" stop-color="#F2D353" stop-opacity="1" /><stop offset="100%" stop-color="#F2B947" stop-opacity="1" /></linearGradient><path d="M118.2 301.6 C118.4 306.1 132.7 309.7 150.3 309.7 C167.9 309.7 182.2 306.1 182.4 301.6 C182.4 306.2 182.4 308.7 182.4 309 C182.4 313.5 168 317.2 150.3 317.2 C132.6 317.2 118.2 313.5 118.2 309 L118.2 301.6 L118.2 301.6 z" id="x2" style="fill:url(#w2)" /><linearGradient x1="45.4914" y1="-117.9547" x2="45.9407" y2="-117.5895" gradientUnits="userSpaceOnUse" gradientTransform="matrix(115.425, 0, 0, 29.925, -5125.077, 3826.124)" id="y2"><stop offset="0%" stop-color="#F4E072" stop-opacity="1" /><stop offset="100%" stop-color="#DB9427" stop-opacity="1" /></linearGradient><ellipse cx="150.3" cy="301.5" rx="31.6" ry="8.2" id="z2" style="fill:url(#y2)" /><linearGradient x1="45.4656" y1="-126.0065" x2="46.0545" y2="-126.0065" gradientUnits="userSpaceOnUse" gradientTransform="matrix(117.135, 0, 0, 18.6219, -5208.417, 2651.479)" id="a3"><stop offset="0%" stop-color="#D9952A" stop-opacity="1" /><stop offset="6.438854%" stop-color="#CA7519" stop-opacity="1" /><stop offset="30.54%" stop-color="#E3AD3A" stop-opacity="1" /><stop offset="51.05%" stop-color="#FFEC91" stop-opacity="1" /><stop offset="68.8%" stop-color="#E9BD44" stop-opacity="1" /><stop offset="86.24%" stop-color="#FFED6C" stop-opacity="1" /><stop offset="93.87%" stop-color="#F2D353" stop-opacity="1" /><stop offset="100%" stop-color="#F2B947" stop-opacity="1" /></linearGradient><path d="M119.2 299.9 C119 300.2 118.9 300.6 118.9 301 C118.9 305.5 132.9 309.2 150.3 309.2 C167.7 309.2 181.7 305.5 181.7 301 C181.7 300.6 181.6 300.3 181.4 299.9 C182 300.5 182.4 301.2 182.4 301.9 C182.4 306.4 168 310.1 150.3 310.1 C132.6 310.1 118.2 306.4 118.2 301.9 C118.2 301.3 118.6 300.6 119.2 299.9 z" id="b3" style="fill:url(#a3)" /><linearGradient x1="45.196" y1="-121.5895" x2="45.3746" y2="-120.6758" gradientUnits="userSpaceOnUse" gradientTransform="matrix(101.745, 0, 0, 23.94, -4458.332, 3199.41)" id="c3"><stop offset="0%" stop-color="#F8DD61" stop-opacity="1" /><stop offset="100%" stop-color="#EAA330" stop-opacity="1" /></linearGradient><ellipse cx="150.3" cy="300.8" rx="27.8" ry="6.6" id="d3" style="fill:url(#c3)" /><linearGradient x1="45.5694" y1="-134.267" x2="45.0221" y2="-134.267" gradientUnits="userSpaceOnUse" gradientTransform="matrix(101.745, 0, 0, 13.2525, -4458.332, 2077.223)" id="e3"><stop offset="0%" stop-color="#F4CA2F" stop-opacity="1" /><stop offset="51.38%" stop-color="#BF7737" stop-opacity="1" /><stop offset="100%" stop-color="#E4A929" stop-opacity="1" /></linearGradient><path d="M122.6 301.5 C122.5 301.3 122.4 301 122.4 300.8 C122.4 297.2 134.9 294.2 150.2 294.2 C165.5 294.2 178 297.1 178 300.8 C178 301 177.9 301.3 177.8 301.5 C176.3 298.2 164.5 295.6 150.1 295.6 C135.7 295.6 124.1 298.2 122.6 301.5 z" id="f3" style="fill:url(#e3)" /></g></defs><desc>H5BHBCD7GKO,5ES4nEZ8taCCtZWPGqwXa3VnZuTi8qb4YriVfo5YfBS9n2DJVYpl9mZFVJZS8JmLf4fpDQAB3DjrXIwABMpGaK3MdUZeE/mfwfOs5ok6FdyY6/+zUYgnqXax1Quqdps1xfplaLgn50GME7PnWarDI/84die9uEXrHHzwafdP1nyN7RROkQQvoUx6bPSOU3mg</desc></svg>