<?xml version="1.0" encoding="utf-8"?><!DOCTYPE svg PUBLIC "-//W3C//DTD SVG 1.1//EN" "http://www.w3.org/Graphics/SVG/1.1/DTD/svg11.dtd"><svg x="0" y="0" width="340px" height="340px" viewBox="0, 0, 340, 340" preserveAspectRatio="xMidYMid" font-size="0" id="a" enable-background="new 0 0 340 340" xmlns="http://www.w3.org/2000/svg" xmlns:xlink="http://www.w3.org/1999/xlink" xmlns:xml="http://www.w3.org/XML/1998/namespace" version="1.1"><g id="b" fill="#000"><g id="c"><g transform="translate(0, 0) translate(0, 224)" id="d"><ellipse cx="168.6" cy="53.1" rx="57.8" ry="12.8" fill-opacity="0.25" id="e" /></g><g id="f"><g transform="translate(118.1, 108.7) translate(13, 118.5) scale(-1, 1) translate(-13, -118.5) translate(0, 96)" id="g"><g id="h"><path d="M20.6 11.4 C22.5 12.3 22.3 15.9 21.6 17.9 C18.7 25.8 15.6 34.5 11.6 40.9 C10.5 42.7 7.1 47 2.8 43.1 C-1.5 39.2 3 33.1 4.4 30.2 C7.5 23.6 11.9 19.3 15.9 12.9 C16.7 11.5 17.9 10.2 20.6 11.4 z" id="i" fill="#CECAC2" /><path d="M18.7 8.1 C20.6 4.4 22.5 -0.3 25.2 1 C27.1 1.9 25 9.2 23.9 12.2 C23.1 14.1 22.4 16.2 21.6 18.3 C20 15 18.2 12.9 16 13.1 C16.7 11.5 17.7 9.9 18.7 8.1 z" id="j" fill="#FEFEFE" /><path d="M21.5 18.1 C18.6 26 15.6 34.6 11.6 40.9 C10.5 42.7 7.1 47 2.8 43.1 C-1.5 39.2 3 33.1 4.4 30.2 C7.5 23.6 11.9 19.3 15.9 12.9 C16.1 12.6 16.3 12.2 16.5 12 C17.2 10.7 17.9 9.5 18.7 8.1 C20.6 4.4 22.5 -0.3 25.2 1 C27.1 1.9 25 9.2 23.9 12.2 C23.1 14.1 22.4 16.2 21.6 18.3 C21.6 18.2 21.5 18.2 21.5 18.1 z M19.6 19.2 C21.2 16.5 22.2 14.6 22.6 13.5 C23.6 10.8 25.8 4.9 24.5 2.5 C22.8 -0.6 20.5 6.5 18.9 9.8 C18.2 11 17.4 12.4 16.9 13.5 C16.7 13.7 14.9 16.5 14.7 16.8 C11.2 22.4 8.2 23.5 5.5 29.3 C4.3 31.8 0.3 37.2 4.1 40.6 C7.9 44.1 8.8 39.4 9.8 37.8 C13.2 32.3 17.1 26.1 19.6 19.2 z" opacity="0.15" id="k" /></g></g><g transform="translate(126.78, 274.8) scale(0.9721311) translate(-123.6, -274.8) translate(103.4, 97.39996) translate(12, 123)" id="l"><path d="M14 38.2 C12.5 33.4 7.1 32.2 3.1 27.7 C-2 21.9 -0.8 7.2 7.5 2.9 C14.4 -0.7 26.3 -1.7 33.5 4.7 C45.7 15.7 37.5 29.3 34.6 36.2 C32 42.3 15 41.8 14 38.2 z" id="m" fill="#2C2F31" /><path d="M14.1 45.6 C14.8 42 14.5 39.5 13.7 37.6 C17.2 39.4 22 38.9 25.5 36.9 C29.8 34.5 36.9 28.7 37.3 29.9 C36.3 32.3 35.2 34.5 34.5 36.2 C32 42.2 35.1 50.4 30.5 55 C26.3 59.3 11.8 57.6 5.5 56.7 C4.2 52.1 6.2 48.4 14.1 45.6 z" id="n" fill="#FEFEFE" /><path d="M13.8 37.7 C12.1 33.3 6.9 32 3.1 27.7 C-2 21.9 -0.8 7.2 7.5 2.9 C14.4 -0.7 26.3 -1.7 33.5 4.7 C45.7 15.7 37.5 29.3 34.6 36.2 C34.5 36.4 34.4 36.6 34.3 36.9 C32.2 42.8 34.9 50.6 30.5 55 C26.3 59.3 11.8 57.6 5.5 56.7 C4.2 52.1 6.2 48.4 14.1 45.6 C14.8 42 14.5 39.5 13.7 37.6 C13.7 37.6 13.8 37.6 13.8 37.7 z M3.9 26.8 C7.6 30.9 12.2 34.6 14 36.2 C14.8 38 15.9 42.7 15.2 46.1 C7.7 48.8 6.2 50.5 6.2 54.3 C12.2 55.2 26 56.8 30 52.7 C34.2 48.5 31.6 41.1 33.5 35.5 C33.7 35.3 33.8 35.1 33.9 34.8 C36.6 28.3 44.4 15.4 32.8 4.9 C26 -1.2 14.7 -0.2 8.1 3.2 C0.2 7.3 -0.9 21.3 3.9 26.8 z" opacity="0.15" id="o" /></g><g transform="translate(211.82, 274.8) scale(0.9721311) translate(-215, -274.8) translate(103.9, 97.39996) translate(99, 152) scale(-1, 1) translate(-99, -152) translate(79, 123)" id="p"><path d="M14 38.2 C12.5 33.4 7.1 32.2 3.1 27.7 C-2 21.9 -0.8 7.2 7.5 2.9 C14.4 -0.7 26.3 -1.7 33.5 4.7 C45.7 15.7 37.5 29.3 34.6 36.2 C32 42.3 15 41.8 14 38.2 z" id="q" fill="#2C2F31" /><path d="M14.1 45.6 C14.8 42 14.5 39.5 13.7 37.6 C17.2 39.4 22 38.9 25.5 36.9 C29.8 34.5 36.9 28.7 37.3 29.9 C36.3 32.3 35.2 34.5 34.5 36.2 C32 42.2 35.1 50.4 30.5 55 C26.3 59.3 11.8 57.6 5.5 56.7 C4.2 52.1 6.2 48.4 14.1 45.6 z" id="r" fill="#FEFEFE" /><path d="M13.8 37.7 C12.1 33.3 6.9 32 3.1 27.7 C-2 21.9 -0.8 7.2 7.5 2.9 C14.4 -0.7 26.3 -1.7 33.5 4.7 C45.7 15.7 37.5 29.3 34.6 36.2 C34.5 36.4 34.4 36.6 34.3 36.9 C32.2 42.8 34.9 50.6 30.5 55 C26.3 59.3 11.8 57.6 5.5 56.7 C4.2 52.1 6.2 48.4 14.1 45.6 C14.8 42 14.5 39.5 13.7 37.6 C13.7 37.6 13.8 37.6 13.8 37.7 z M3.9 26.8 C7.6 30.9 12.5 32.1 14 36.2 C14.8 38 16.6 42.3 16 45.7 C8.5 48.3 6.3 50 7.5 54.4 C13.5 55.2 25.2 56.8 29.2 52.8 C33.4 48.5 31.6 41.1 33.6 35.5 C33.7 35.3 33.8 35.1 33.9 34.8 C36.6 28.3 44.4 15.3 32.8 4.9 C26 -1.2 14.7 -0.3 8.1 3.2 C0.2 7.3 -0.9 21.2 3.9 26.8 z" opacity="0.15" id="s" /></g><g transform="translate(-285.9, 63.59998) translate(26, 89)" id="t"><path d="M397 32.1 C391 38.3 389.6 53.9 391.7 73.6 C393.8 93.4 398.5 110.6 404.4 118.6 C410.3 126.6 419.1 128.3 429.1 128.3 C439.1 128.3 444.7 128.5 451.9 120.5 C459 112.6 463.7 84.2 465.1 74.4 C466.5 64.7 469.4 41 460.1 32.9 C455.5 28.8 444.8 7 431.3 6.5 C417.8 6 403 26 397 32.1 z" id="u" fill="#E2DFD9" /><path d="M397 32.1 C391 38.3 389.6 53.9 391.7 73.6 C392.6 81.9 396.1 90.6 397.8 97.5 C400.1 107.1 401 114.1 404.4 118.7 C410.3 126.7 419.1 128.4 429.1 128.4 C439.1 128.4 444.7 128.6 451.9 120.6 C459 112.7 463.7 84.3 465.1 74.5 C466.5 64.8 469.4 41.1 460.1 33 C455.5 28.9 444.8 7.3 431.3 6.8 C417.8 6.2 403 26 397 32.1 z" id="v" fill="#E2DFD9" /><path d="M397 32.1 C403 26 417.8 6.2 431.1 6.6 C444.7 7.1 455.4 28.8 459.9 32.8 C469.2 40.9 466.3 64.6 464.9 74.3 C463.5 84.1 458.8 112.5 451.7 120.4 C444.5 128.4 438.9 128.2 428.9 128.2 C418.9 128.2 410.1 126.5 404.2 118.5 C398.3 110.5 393.6 93.2 391.5 73.5 C389.6 53.9 391 38.3 397 32.1 z M398.3 32.4 C392.5 38.4 391.2 53.3 393.2 72.3 C395.2 91.4 399.7 107.8 405.4 115.5 C411.1 123.2 419.5 124.8 429.1 124.8 C438.7 124.8 444.1 125 451 117.3 C457.8 109.7 462.3 82.4 463.7 73 C465 63.7 467.8 40.9 458.9 33.1 C454.3 29.2 444.1 8.5 431 8 C418.2 7.5 404 26.5 398.3 32.4 z" opacity="0.15" id="w" /></g><g fill-rule="evenOdd" transform="translate(125.7637, 188.275) scale(0.9316699, 0.8097966) translate(-122.6, -173.4) translate(85.00002, 85.39997) translate(83.5, 146.5) scale(-1, 1) translate(-83.5, -146.5) translate(37, 88)" id="x"><path d="M85.7 0.8 C88.7 7.4 91 19.3 91.5 22.3 C91.7 23.4 92.2 25.3 92.2 26.6 C92.2 28.3 92.4 30.4 92.2 32.3 C92.1 33.8 91.6 36.7 91.5 38.1 C91.4 39.5 90.8 38.3 90.6 39.6 C90.5 39.9 90.5 40.2 90.4 40.4 C90 42 89.7 44.6 89.4 45.9 C89.2 47 89 46.8 88.7 48 C88.4 49.3 88.1 55.7 87.6 57.3 C87.1 58.9 86.5 55.7 85.7 58 C85.4 59 85 60 84.6 61.1 C84.2 62.1 84.1 66.2 83.6 67.4 C83.2 68.4 82.6 66.5 82.2 67.7 C81.8 68.9 81.9 74.3 81.4 75.7 C80.9 77.3 79.7 74.8 79.2 76.6 C78.8 77.8 78.8 84.5 78.4 85.8 C78 87.2 77.3 83.2 76.9 84.6 C76.7 85.6 76.4 86.5 76.2 87.5 C75.9 88.6 75.7 89.8 75.4 91 C75 93 74.6 95 74.2 97.1 C73.9 98.9 73.6 100.8 73.4 102.8 C73.2 104.4 77.3 102.5 80.3 106 C83.3 109.5 83.1 115.5 78.9 116.6 C74.7 117.7 58.9 113.8 57.2 111.6 C56.8 111.1 56.4 108.3 56.2 103.9 C56.1 102 56.8 99 56.7 96.6 C56.7 95.2 57.2 92.5 57.2 91 C57.2 89.1 55 94.1 55 92.1 C55 90.7 56.2 81.7 56.2 80.2 C56.2 77.8 55.6 77.9 56 75.5 C56.2 74.1 57.1 71.4 57.1 70.7 C57.1 68.2 54.9 75.4 55 72.8 C55 72.6 54.4 68.7 56 65 C56.7 63.3 56.6 61.3 56.8 59.6 C56.9 58.1 57 56.6 57.1 55.3 C57.3 52.2 57.4 49.8 57.3 48.9 C56.9 49.2 54.5 54 54.1 54.3 C53.4 54.8 54.7 50.7 54.1 51.2 C53.4 51.7 52.1 54.4 50.7 57.8 C49.3 61.3 50 56.7 49.5 57.1 C48.1 58.4 48.1 62.7 47.6 64.1 C47.2 65.3 46.1 67.4 45.8 67.1 C45.4 66.7 45.5 64.9 45.1 63.5 C44.7 61.9 44 60.5 44 59.5 C44 59.1 44.2 61.8 43.3 61.2 C42.4 60.6 40 53.3 39 52.1 C38.4 51.4 38.5 54.5 38.1 54.2 C37.3 53.7 36 50.3 35.5 49.7 C35.2 50.6 35.2 52.8 35.2 55.6 C35.2 57.8 36.6 65.6 36.7 68.4 C36.7 69.9 35.2 66.8 35.2 68.4 C35.2 69.9 34.9 71.8 34.9 72.1 C34.9 73.7 35.1 77.2 35.6 80.9 C36 84.3 36.7 87.9 36.7 89.4 C36.7 92.6 34.9 87.8 34.9 90.8 C34.9 92.2 35.6 95.1 35.5 96.4 C35.4 98.8 35.3 101.1 35.2 103 C35.1 104.7 35 106.1 34.8 107.4 C34.5 109.7 34.2 111.1 33.8 111.4 C31.2 112.9 21 117.9 12.2 116.4 C8.3 114.2 9.6 108.5 12.5 105.1 C15.4 101.7 19.7 104.1 19.5 101.5 C19.3 99 18.6 95.6 17.7 91.9 C17.5 90.9 17.2 89.9 16.9 88.8 C16.7 88 16.4 87.1 16.2 86.2 C15.8 84.7 15.3 83.2 14.9 81.6 C14.5 80.2 14.3 84.4 13.8 83 C13.4 81.9 12.8 75.1 12.5 74 C12.1 72.8 11.7 71.7 11.4 70.6 C11.1 69.7 10.5 72.1 10.2 71.2 C9.7 69.9 9.5 65.3 9.1 64.1 C8.7 62.9 8.3 61.9 7.9 60.9 C7.6 60 7.1 61.7 6.8 60.9 C6.2 59.4 5.8 55.5 5.4 54.2 C5 53 4.6 54.4 4.2 53.2 C3.9 52.1 3.5 48.4 3.2 47.3 C2.8 45.7 3.5 46.3 3.2 44.5 C3 43.3 2.6 42.5 1.2 37.8 C-0.2 33.1 0.5 21.8 0.7 19.8 C0.8 18.3 1.2 15 1.4 13.6 C2.2 7.8 4.2 4.3 5.7 1.4 C6 0.8 6.5 0 6.8 0.5 C7.6 1.7 7.9 4.3 8.7 6.6 C8.8 7.2 8.9 7.7 9 7.9 C10 10.1 10.8 12.4 11.6 14.4 C11.6 14.7 11.7 14.9 11.7 15 C12.4 16.4 13 17.5 13.5 18.4 C13.7 18.9 13.8 18.9 13.8 18.9 C14 19.2 14.2 19.5 14.4 19.7 C14.8 20.1 15.2 20.5 15.6 21 C15.7 21.8 15.9 22.5 16 22.7 C16.2 23 16.6 22.7 16.9 22.4 C17.3 22.8 17.7 23.1 18.1 23.5 C18.2 24.4 18.3 25.4 18.6 25.7 C18.8 25.9 18.9 25.3 19.1 24.5 C19.6 25 20.1 25.4 20.6 25.8 C20.9 27.7 21.4 29 21.8 29.4 C22.4 30 22.6 28.4 23.2 29 C23.8 29.5 24.6 33.5 25.2 34 C25.5 34.3 26.4 31.6 26.9 30.5 C27.2 30.7 27.4 30.8 27.7 31 C28 32.3 28.1 34.6 28.5 34.9 C28.9 35.2 28.7 33.4 29.1 33.7 C29.7 34.1 29.8 40.3 30.7 38.9 C31.6 37.5 31.2 35 31.3 35.1 C32 35.5 33.5 41.8 34.2 42.1 C34.5 42.3 35.1 41.5 35.2 40 C35.3 38.8 34.9 37 35.2 37.1 C35.8 37.4 36.7 38.3 37.3 40 C38 42.1 38.4 45.1 39.1 45.3 C39.7 45.5 40 43.4 40.4 41.3 C40.8 39.2 41.1 37.1 41.7 37.1 C42.3 37.2 42.5 40.6 42.4 42.5 C42.3 44.8 43.2 49.7 43.9 49.7 C44.1 49.7 44 45.1 44.9 43 C45.8 40.9 46.9 38.1 47.2 38.1 C47.5 38.1 48 40.7 48.1 42.1 C48.3 43.9 48.6 45.6 49 45.3 C49.6 44.8 51.6 37.2 51.9 37.1 C52.4 37 52 44.2 53.7 43.9 C53.8 43.9 54.9 42.2 55 42.1 C57 40.8 58.8 35.4 59.2 35.2 C59.6 35 58.8 38.8 59.2 38.6 C59.3 38.5 61.9 32.1 62.6 31.6 C63.1 31.3 63.4 35.2 63.8 34.9 C64.1 34.7 65.6 33.5 66.2 31.6 C66.5 30.7 66.6 29.7 66.6 28.9 C67 28.6 67.4 28.4 67.8 28.1 C67.9 28.4 67.9 28.7 67.9 29.1 C68 30.4 67.7 32.4 67.9 32.2 C68.8 31.6 70 28.6 71.4 26.7 C72.5 25.2 72.6 28.7 73.3 27.9 C73.6 27.6 74.2 26.3 74.7 25.1 C75.2 23.6 75.7 22.1 76.1 21.6 C76.6 21 76.4 24.7 76.9 24.1 C77.2 23.6 78.7 18.9 79 18.4 C79.3 17.9 79.9 20.1 80.2 19.6 C80.4 19.2 81.3 15.3 81.5 14.9 C81.7 14.6 81.7 15.9 81.8 15.6 C82 15.3 81.9 12.6 82.4 13.3 C83 13.9 83.4 11.2 84 9.6 C84.4 8.6 84.7 6.5 85 4.3 C85.5 3.8 85.4 1.1 85.7 0.8 z" id="y" fill="#CECAC2" /><path d="M85.7 0.8 C88.7 7.4 91 19.3 91.5 22.3 C91.7 23.4 92.2 25.3 92.2 26.6 C92.2 28.3 92.4 30.4 92.2 32.3 C92.1 33.8 91.6 36.7 91.5 38.1 C91.4 39.5 90.8 38.3 90.6 39.6 C90.5 39.9 90.5 40.2 90.4 40.4 C90 42 89.7 44.6 89.4 45.9 C89.2 47 89 46.8 88.7 48 C88.4 49.3 88.1 55.7 87.6 57.3 C87.1 58.9 86.5 55.7 85.7 58 C85.4 59 85 60 84.6 61.1 C84.2 62.1 84.1 66.2 83.6 67.4 C83.2 68.4 82.6 66.5 82.2 67.7 C81.8 68.9 81.9 74.3 81.4 75.7 C80.9 77.3 79.7 74.8 79.2 76.6 C78.8 77.8 78.8 84.5 78.4 85.8 C78 87.2 77.3 83.2 76.9 84.6 C76.7 85.6 76.4 86.5 76.2 87.5 C75.9 88.6 75.7 89.8 75.4 91 C75 93 74.6 95 74.2 97.1 C73.9 98.9 73.6 100.8 73.4 102.8 C73.2 104.4 77.3 102.5 80.3 106 C83.3 109.5 83.1 115.5 78.9 116.6 C74.7 117.7 58.9 113.8 57.2 111.6 C56.8 111.1 56.4 108.3 56.2 103.9 C56.1 102 56.8 99 56.7 96.6 C56.7 95.2 57.2 92.5 57.2 91 C57.2 89.1 55 94.1 55 92.1 C55 90.7 56.2 81.7 56.2 80.2 C56.2 77.8 55.6 77.9 56 75.5 C56.2 74.1 57.1 71.4 57.1 70.7 C57.1 68.2 54.9 75.4 55 72.8 C55 72.6 54.4 68.7 56 65 C56.7 63.3 56.6 61.3 56.8 59.6 C56.9 58.1 57 56.6 57.1 55.3 C57.3 52.2 57.4 49.8 57.3 48.9 C56.9 49.2 54.5 54 54.1 54.3 C53.4 54.8 54.7 50.7 54.1 51.2 C53.4 51.7 52.1 54.4 50.7 57.8 C49.3 61.3 50 56.7 49.5 57.1 C48.1 58.4 48.1 62.7 47.6 64.1 C47.2 65.3 46.1 67.4 45.8 67.1 C45.4 66.7 45.5 64.9 45.1 63.5 C44.7 61.9 44 60.5 44 59.5 C44 59.1 44.2 61.8 43.3 61.2 C42.4 60.6 40 53.3 39 52.1 C38.4 51.4 38.5 54.5 38.1 54.2 C37.3 53.7 36 50.3 35.5 49.7 C35.2 50.6 35.2 52.8 35.2 55.6 C35.2 57.8 36.6 65.6 36.7 68.4 C36.7 69.9 35.2 66.8 35.2 68.4 C35.2 69.9 34.9 71.8 34.9 72.1 C34.9 73.7 35.1 77.2 35.6 80.9 C36 84.3 36.7 87.9 36.7 89.4 C36.7 92.6 34.9 87.8 34.9 90.8 C34.9 92.2 35.6 95.1 35.5 96.4 C35.4 98.8 35.3 101.1 35.2 103 C35.1 104.7 35 106.1 34.8 107.4 C34.5 109.7 34.2 111.1 33.8 111.4 C31.2 112.9 21 117.9 12.2 116.4 C8.3 114.2 9.6 108.5 12.5 105.1 C15.4 101.7 19.7 104.1 19.5 101.5 C19.3 99 18.6 95.6 17.7 91.9 C17.5 90.9 17.2 89.9 16.9 88.8 C16.7 88 16.4 87.1 16.2 86.2 C15.8 84.7 15.3 83.2 14.9 81.6 C14.5 80.2 14.3 84.4 13.8 83 C13.4 81.9 12.8 75.1 12.5 74 C12.1 72.8 11.7 71.7 11.4 70.6 C11.1 69.7 10.5 72.1 10.2 71.2 C9.7 69.9 9.5 65.3 9.1 64.1 C8.7 62.9 8.3 61.9 7.9 60.9 C7.6 60 7.1 61.7 6.8 60.9 C6.2 59.4 5.8 55.5 5.4 54.2 C5 53 4.6 54.4 4.2 53.2 C3.9 52.1 3.5 48.4 3.2 47.3 C2.8 45.7 3.5 46.3 3.2 44.5 C3 43.3 2.6 42.5 1.2 37.8 C-0.2 33.1 0.5 21.8 0.7 19.8 C0.8 18.3 1.2 15 1.4 13.6 C2.2 7.8 4.2 4.3 5.7 1.4 C6 0.8 6.5 0 6.8 0.5 C7.6 1.7 7.9 4.3 8.7 6.6 C8.8 7.2 8.9 7.7 9 7.9 C10 10.1 10.8 12.4 11.6 14.4 C11.6 14.7 11.7 14.9 11.7 15 C12.4 16.4 13 17.5 13.5 18.4 C13.7 18.9 13.8 18.9 13.8 18.9 C14 19.2 14.2 19.5 14.4 19.7 C14.8 20.1 15.2 20.5 15.6 21 C15.7 21.8 15.9 22.5 16 22.7 C16.2 23 16.6 22.7 16.9 22.4 C17.3 22.8 17.7 23.1 18.1 23.5 C18.2 24.4 18.3 25.4 18.6 25.7 C18.8 25.9 18.9 25.3 19.1 24.5 C19.6 25 20.1 25.4 20.6 25.8 C20.9 27.7 21.4 29 21.8 29.4 C22.4 30 22.6 28.4 23.2 29 C23.8 29.5 24.6 33.5 25.2 34 C25.5 34.3 26.4 31.6 26.9 30.5 C27.2 30.7 27.4 30.8 27.7 31 C28 32.3 28.1 34.6 28.5 34.9 C28.9 35.2 28.7 33.4 29.1 33.7 C29.7 34.1 29.8 40.3 30.7 38.9 C31.6 37.5 31.2 35 31.3 35.1 C32 35.5 33.5 41.8 34.2 42.1 C34.5 42.3 35.1 41.5 35.2 40 C35.3 38.8 34.9 37 35.2 37.1 C35.8 37.4 36.7 38.3 37.3 40 C38 42.1 38.4 45.1 39.1 45.3 C39.7 45.5 40 43.4 40.4 41.3 C40.8 39.2 41.1 37.1 41.7 37.1 C42.3 37.2 42.5 40.6 42.4 42.5 C42.3 44.8 43.2 49.7 43.9 49.7 C44.1 49.7 44 45.1 44.9 43 C45.8 40.9 46.9 38.1 47.2 38.1 C47.5 38.1 48 40.7 48.1 42.1 C48.3 43.9 48.6 45.6 49 45.3 C49.6 44.8 51.6 37.2 51.9 37.1 C52.4 37 52 44.2 53.7 43.9 C53.8 43.9 54.9 42.2 55 42.1 C57 40.8 58.8 35.4 59.2 35.2 C59.6 35 58.8 38.8 59.2 38.6 C59.3 38.5 61.9 32.1 62.6 31.6 C63.1 31.3 63.4 35.2 63.8 34.9 C64.1 34.7 65.6 33.5 66.2 31.6 C66.5 30.7 66.6 29.7 66.6 28.9 C67 28.6 67.4 28.4 67.8 28.1 C67.9 28.4 67.9 28.7 67.9 29.1 C68 30.4 67.7 32.4 67.9 32.2 C68.8 31.6 70 28.6 71.4 26.7 C72.5 25.2 72.6 28.7 73.3 27.9 C73.6 27.6 74.2 26.3 74.7 25.1 C75.2 23.6 75.7 22.1 76.1 21.6 C76.6 21 76.4 24.7 76.9 24.1 C77.2 23.6 78.7 18.9 79 18.4 C79.3 17.9 79.9 20.1 80.2 19.6 C80.4 19.2 81.3 15.3 81.5 14.9 C81.7 14.6 81.7 15.9 81.8 15.6 C82 15.3 81.9 12.6 82.4 13.3 C83 13.9 83.4 11.2 84 9.6 C84.4 8.6 84.7 6.5 85 4.3 C85.5 3.8 85.4 1.1 85.7 0.8 z M85.9 6.5 C85.6 6.8 85 10.4 84.6 10.9 C84.3 12.9 83.2 14.4 82.8 15.3 C82.2 16.8 82.1 19.9 81.5 19.4 C81.1 18.7 80.9 21.2 80.7 21.5 C80.6 21.8 79.4 20.3 79.2 20.6 C79 20.9 78.6 22.5 78.4 22.9 C78.1 23.3 77 25.9 76.8 26.4 C76.5 26.8 76 24.3 75.7 24.8 C75.2 25.3 75.4 28.2 74.9 28.8 C74.5 29.3 73.4 28 72.9 29.4 C72.4 30.5 71.8 28.7 71.6 29 C70.9 29.8 70.2 30.4 69.1 31.8 C67.8 33.6 68.1 33.4 67.2 33.9 C67 34.1 66.9 32.5 66.8 31.3 C66.8 30.9 65.6 35.1 65.3 35.3 C65.3 36.1 64.3 34.5 64 35.3 C63.4 37.1 62.8 36.5 62.5 36.7 C62.1 37 62.9 35.1 62.5 35.3 C61.8 35.8 60 41.2 59.9 41.3 C59.5 41.5 58.5 39.4 58.1 39.6 C57.7 39.8 56.9 43.1 55 44.3 C54.9 44.4 53.3 44.9 53.2 44.9 C51.6 45.1 51.8 41.1 51.4 41.2 C51.1 41.3 49.6 47.2 49 47.7 C48.7 48 47.6 45.4 47.4 43.8 C47.3 42.4 47.4 40.7 47.1 40.7 C46.8 40.7 46.6 43.8 45.8 45.8 C44.9 47.7 43.9 51.4 43.7 51.4 C43.1 51.4 41.5 46.3 41.6 44.2 C41.7 42.4 42.2 39 41.6 38.9 C41.1 38.9 41.2 40.5 40.8 42.4 C40.4 44.4 39.8 47.6 39.2 47.4 C38.6 47.3 37.5 44.3 36.9 42.3 C36.3 40.7 36.5 38.8 35.9 38.5 C35.7 38.4 36 40.1 35.9 41.2 C35.8 42.6 35.5 43.9 34.1 43.9 C32.7 43.5 32.5 38.6 31.8 38.3 C31.8 38.2 31.9 39.6 31.1 40.9 C30.2 42.2 29.5 37.7 28.9 37.3 C28.5 37 28.2 38.2 27.3 37.3 C26.5 36.4 27.8 34.7 27.5 33.5 C27.2 33.3 27.2 33 26.9 32.8 C26.5 33.9 25 36 24.7 35.7 C24.2 35.3 23.7 31.3 23.1 30.8 C22.6 30.3 21.9 31.4 21.3 30.8 C20.9 30.5 19.7 27.2 19.6 26.4 C19.2 26 18.6 27.8 18.2 27.4 C17.9 27.7 17.2 25.3 17 25.1 C16.9 24.9 17.1 24.4 17 23.7 C16.6 23.2 16 24.3 15.7 23.9 C15.5 23.7 14.2 21.3 14 20.9 C13.5 20 11.9 17.8 11.9 17.6 C11.2 15.7 10.7 14.4 9.7 12.4 C9.7 12.2 7.7 6.8 7 5.6 C6.7 5.2 5.8 4.2 5.5 4.7 C4.9 6 3.6 8.7 2.8 12.4 C1.9 16.7 1.7 22.1 1.6 22.9 C1.4 24.7 2.9 34.8 4.2 39.2 C5.5 43.6 5.8 44.3 6 45.4 C6.3 47.1 5.7 46.5 6 48 C6.3 49.1 6.7 52.5 7 53.6 C7.3 54.7 7.7 53.4 8.1 54.5 C8.5 55.7 8.8 59.3 9.4 60.7 C9.7 61.5 10.1 59.9 10.4 60.7 C10.8 61.7 11.2 62.6 11.5 63.7 C11.9 64.9 12.1 69.2 12.6 70.4 C12.9 71.2 13.4 69 13.7 69.8 C14 70.8 14.4 71.9 14.7 73 C15 74 15.6 80.4 15.9 81.4 C16.4 82.7 16.6 78.8 17 80.1 C17.3 81.6 17.8 83 18.2 84.4 C18.4 85.2 18.6 86.1 18.8 86.8 C19.1 87.8 19.4 88.8 19.6 89.7 C20.4 93.2 21.1 101.4 21.3 103.8 C21.5 106.2 16.7 102.7 14 105.9 C11.3 109.1 10.8 110.5 14.4 112.6 C22.7 114 30.6 110.6 33 109.2 C33.4 108.9 33.5 105.6 33.7 103.5 C33.9 102.3 33.4 94.5 33.5 92.2 C33.6 91 33.6 89.5 33.6 88.2 C33.6 85.4 35 90.4 35 87.5 C35 86.1 34.5 82 34.1 78.8 C33.6 75.3 33.5 73 33.5 71.5 C33.5 71.2 34.1 68.9 34.1 67.5 C34.1 66 35.4 67.9 35.4 66.5 C35.3 63.9 34.1 57.3 34.1 55.2 C34.1 52.6 34 47.2 34.3 46.3 C34.7 46.9 37.1 51.5 37.8 52 C38.2 52.2 38.5 49.9 39 50.6 C40 51.7 42.2 58.3 43 58.9 C43.9 59.4 44 56.8 44 57.2 C44 58.1 45.1 60.7 45.5 62.2 C45.8 63.5 45.7 65.1 46.1 65.5 C46.4 65.7 46.7 63.6 47.1 62.5 C47.6 61.2 48.1 56.2 49.4 55 C49.9 54.6 49.8 58.7 51.1 55.4 C52.4 52.2 53.7 48.7 54.4 48.2 C55 47.8 54.2 51.1 54.9 50.6 C55.3 50.4 58.7 44.8 59.1 44.5 C59.2 45.4 58.5 51.6 58.4 54.5 C58.3 55.7 58 59.5 57.9 60.9 C57.7 62.5 57.5 63.5 56.9 65.1 C55.4 68.5 55.6 69.4 55.6 69.6 C55.5 72 58.4 66.9 58.4 69.2 C58.4 69.9 57.6 73.3 57.5 74.6 C57.1 76.8 57.5 77.8 57.5 80.1 C57.5 81.5 56 87.9 56 89.2 C56 91.1 59.1 87.1 59.1 88.9 C59.1 90.3 57.9 94.4 57.9 95.7 C58 97.9 57.4 101.7 57.5 103.5 C57.6 107.6 57.5 108.1 57.9 108.6 C59.5 110.6 72.8 113.8 76.8 112.8 C80.7 111.8 80.8 109.2 78 105.9 C75.2 102.6 71 106.1 71.2 104.6 C71.4 102.7 72.1 96.2 72.4 94.6 C72.7 92.6 73.1 90.7 73.5 88.9 C73.8 87.7 74 86.6 74.2 85.6 C74.4 84.7 74.7 83.8 74.9 82.9 C75.3 81.6 76.5 83.8 76.9 82.4 C77.2 81.2 76.8 75.7 77.2 74.6 C77.6 72.9 78.7 75.4 79.2 73.9 C79.7 72.6 79.5 68.2 79.8 67.1 C80.2 66 81.1 66.7 81.5 65.7 C82 64.6 81.7 61.9 82.1 60.9 C82.5 59.9 83.2 58.1 83.4 57.2 C84.2 55 85.4 56.9 85.9 55.4 C86.4 53.9 85.6 49.9 85.9 48.7 C86.2 47.6 86.4 47.8 86.6 46.7 C86.8 45.5 87.1 43.1 87.5 41.6 C87.6 41.4 87.6 41.1 87.7 40.8 C87.9 39.6 88.4 40.8 88.5 39.4 C88.6 38.1 89.1 35.4 89.2 34 C89.4 32.3 89.2 30.3 89.2 28.7 C89.2 27.5 89.4 23.9 89.2 22.9 C88.7 20.1 88.7 12.7 85.9 6.5 z" opacity="0.4" id="z" /></g></g><g id="a1"><g transform="translate(-285.9, 63.29997) translate(18, 27)" id="b1"><g id="c1"><path d="M395.9 33 C395.5 43 395.1 49.9 394.5 53.9 C392.6 68.8 389.8 77.4 388.2 79.4 C386 82.2 384.5 84.4 383.6 85.8 L390.6 84.8 L388.2 91.5 L393 88 C405.9 96.6 414.5 102 419 104.2 C424.2 106.7 430 107.6 432.1 107.8 C436.9 108.3 440.6 108.3 443.1 107.8 C454.1 104.1 461.6 101.1 465.8 99 C470 96.8 474.9 92.8 480.4 87 L486.6 88 L485.3 83.4 C484 80.4 483.4 78.7 483.6 78.2 C483.7 77.7 486.1 77.7 490.8 78.2 L483.6 67.4 C481.3 59.8 480 54.4 479.7 51.2 C479.4 48 479.2 42.6 478.9 35 C478.1 31.4 476.5 29 474.3 27.9 C472 26.7 470.5 28.1 469.8 31.9 L474.3 80.3 L449.4 98.8 L431.4 98.8 C415.7 92.4 407.4 89.2 406.5 89.2 C405.6 89.2 403.5 85.1 400 76.9 L405 27.8 C402.5 26.5 400.8 26.2 399.7 26.8 C398.6 27.6 397.3 29.6 395.9 33 z" id="d1" fill="#CECCC8" /><path d="M425.8 7.7 L398.5 28.5 C399.7 37.8 399.7 47 398.5 56.1 C397.3 65.3 395.9 72.4 394.3 77.4 L392.5 80.6 L397.1 78.7 L394.4 82.3 L398.6 82.3 C407.9 91.9 413.9 97.4 416.6 98.8 C420.6 100.9 425.4 104.7 431.2 106 C437 107.3 444.5 107.4 457.8 98.8 C466.7 93.1 473.3 86.6 477.5 79.4 L481.9 82.3 L479.2 72.9 L483.8 75.9 L479.2 68.3 C478 60.9 477.4 55.9 477.2 53.3 C476.6 42.9 476.2 38.6 476.2 36.4 C476.2 33.5 467.9 23.9 451.2 7.9 L425.8 7.9 L425.8 7.7 z" id="e1" fill="#E2DFD9" /><path d="M477 36.3 C477 30.4 478.2 31.3 473.5 26.1 C466.5 18.5 452.3 8.8 451.1 7.7 C449 5.8 427.2 6.4 425.6 7.1 C423.9 7.9 398.9 25.7 397.9 28.7 C396.9 31.7 399.5 43.2 398.9 50.5 C400.9 50.9 403 51.1 404.9 49.8 C406.8 48.5 409 44.9 411 45.8 C413.9 47.1 413.8 66.8 422.1 68.1 C425.2 68.6 432.7 56.3 437.5 56.2 C441 56 448.4 68.7 451 68 C461 65.2 465.3 45.6 468.4 48.3 C471.9 51.3 473.4 52 476.5 48.3 C477 47.8 477 42.1 477 36.3 z" id="f1" fill="#CECCC8" /><path d="M405.7 49.1 C405.8 50.4 416.2 71.4 418.3 80.1 C420.4 88.8 420 101.4 436.2 100.8 C452.4 100.2 453 99.1 456.8 80.1 C460.6 61.1 468.6 50.2 468.5 48.7 C468.4 47.2 467 46.4 463.2 42.7 C459.5 39.1 456.4 31.4 450.2 31.3 C445.7 31 436.5 40.9 447.9 54.4 C448.6 55.1 454 65.1 452.2 65.9 C450.4 65.9 448.9 63.2 446.5 60.8 C445.3 59.6 442.6 58.1 441.6 56.7 C438.4 52.1 439.4 26.8 438 26.8 C436.5 26.7 435.1 52.6 433.7 56.7 C433 58.9 431.1 59.2 429.4 60.8 C426.8 63.2 424.2 66.2 423 65.9 C421.5 65.7 423.9 57.6 426.6 55.7 C434.5 48.9 431.5 31.4 426.6 31.4 C421 29.9 417.4 36.5 414.1 40.2 C410.7 43.9 405.5 47.8 405.7 49.1 z" id="g1" fill="#E2DFD9" /><path d="M397.6 29.4 C397.6 29.1 397.7 28.9 397.8 28.7 C398.8 25.7 423.8 7.9 425.5 7.1 C427.2 6.4 449 5.8 451 7.7 C452.2 8.8 466.4 18.5 473.4 26.1 C475.2 28.1 476.1 29.2 476.6 30.1 C477.6 31.4 478.3 33.1 478.8 35.2 C479.1 42.8 479.3 48.2 479.6 51.4 C479.9 54.6 481.2 60 483.5 67.6 L490.7 78.4 C486 77.9 483.6 77.9 483.5 78.4 C483.3 78.9 483.9 80.6 485.2 83.6 L486.5 88.2 L480.3 87.2 C474.8 93 469.9 97 465.7 99.2 C461.5 101.3 454 104.3 443 108 C440.5 108.5 436.8 108.5 432 108 C429.9 107.8 424.1 106.9 418.9 104.4 C414.3 102.2 405.7 96.8 392.9 88.2 L388.1 91.5 L390.5 84.8 L383.5 85.8 C384.4 84.4 385.9 82.2 388.1 79.4 C389.7 77.4 392.5 68.8 394.4 53.9 C395 49.9 395.4 43 395.8 33 C396.5 31.5 397.1 30.3 397.6 29.4 z M399.8 28.6 C399.7 28.8 399.7 29 399.7 29.3 C399.2 30.2 398.6 31.3 398 32.7 C397.6 42.2 397.2 48.7 396.7 52.5 C394.9 66.6 393.5 74.7 392 76.6 C389.9 79.3 387.7 82.4 386.9 83.7 L393 81.8 L390.7 88.2 L396.1 86.4 C408.3 94.6 415.7 98.4 420.1 100.4 C425 102.8 430.5 103.6 432.5 103.8 C437.1 104.3 440.6 104.3 442.9 103.8 C453.3 100.3 460.5 97.4 464.4 95.4 C468.4 93.3 473 89.5 478.3 84 L484.2 84.9 L483 80.5 C481.8 77.7 481.1 77 481.3 76.6 C481.4 76.1 482.5 75.5 486.9 76 L481.3 65.3 C479.1 58.1 477.9 53 477.6 49.9 C477.3 46.9 477.1 41.7 476.8 34.5 C476.4 32.5 475.6 30.9 474.7 29.7 C474.3 28.8 473.4 27.8 471.7 25.9 C465.1 18.9 451.6 9.7 450.5 8.6 C448.5 6.8 427.8 7.4 426.2 8 C424.6 8.8 400.8 25.7 399.8 28.6 z" opacity="0.15" id="h1" /></g></g><g transform="translate(139.7, 120) scale(1.1) translate(-139.7, -120) translate(95.10001, 81.79997) translate(21, 2)" id="i1"><g transform="translate(18.02073, 23.28844) scale(-1, 1) rotate(-6, 0, 0) translate(-18.02073, -23.28844) translate(2.520727, 1.788439)" id="j1"><path d="M1.7 25.8 C-1.9 23.8 -2.7 23.7 -1.4 20.5 C-0.1 17.3 2.4 17.8 5 15.3 C7.6 12.8 13.5 8.6 17.4 6.7 C21.3 4.8 23.7 2.5 25.7 4.7 C27.7 6.9 29.1 12.8 28 18.9 C26.9 25 23.5 30.4 23.1 33.3 C22.7 36.2 21.9 40.6 20.2 42.9 C19.7 43.6 18.2 45.3 17.3 45.8 C15.4 46.7 14 44.9 12.6 41.3 C12.3 40.4 10.5 34.3 8.6 32.4 C6.3 29.9 5.4 27.8 1.7 25.8 z" id="k1" fill="#FEFEFE" /><path d="M1.7 25.8 C-1.9 23.8 -2.7 23.7 -1.4 20.5 C-0.1 17.3 2.4 17.8 5 15.3 C7.6 12.8 13.5 8.6 17.4 6.7 C21.3 4.8 23.7 2.5 25.7 4.7 C27.7 6.9 29.1 12.8 28 18.9 C26.9 25 23.5 30.4 23.1 33.3 C22.7 36.2 21.9 40.6 20.2 42.9 C19.7 43.6 18.2 45.3 17.3 45.8 C15.4 46.7 14 44.9 12.6 41.3 C12.3 40.4 10.5 34.3 8.6 32.4 C6.3 29.9 5.4 27.8 1.7 25.8 z M3.9 24.6 C7.2 26.4 8 28.3 10 30.5 C11.7 32.2 13.3 37.7 13.6 38.5 C14.8 41.7 16.1 43.4 17.8 42.5 C18.6 42.1 19.9 40.5 20.4 39.9 C21.9 37.8 22.6 33.9 23 31.3 C23.4 28.7 26.4 23.8 27.4 18.3 C28.4 12.8 27.1 7.5 25.4 5.5 C23.6 3.5 21.5 5.6 18 7.3 C14.5 9 9.3 12.8 6.9 15 C4.5 17.2 2.4 16.8 1.2 19.7 C0 22.6 0.7 22.8 3.9 24.6 z" opacity="0.15" id="l1" /><path d="M5.7 24.6 C3.7 23.6 2.3 23 3.3 20.4 C3.9 18.9 7.5 16.8 10.9 14.2 C13.3 12.3 16.2 10.3 18 9.3 C20.6 7.8 21.8 6.3 23.5 7.6 C25.1 8.9 26.5 14.5 25.7 19.2 C24.9 24 20 35.8 18.7 37.6 C17.4 39.4 16.1 42.4 14.5 38.2 C12.9 34 12.6 31.4 10.9 29.6 C9.2 27.8 7.7 25.6 5.7 24.6 z" id="m1" fill="#F2F1F0" /><path d="M8.2 26.4 C8.3 25.4 9.1 23.7 9.3 23.3 C9.6 22.7 12.3 21.1 14.6 19.7 C15.6 19 18.6 17.4 18.6 17.4 C20.2 16.5 20.1 19.9 18.6 22.6 C17.7 24.2 15.1 29.9 13.3 31.6 C12.7 32.2 12.2 31.1 11 29.5 C9.9 28.1 8.1 26.8 8.2 26.4 z" opacity="0.5" id="n1" fill="#FEFEFE" /></g></g><g transform="translate(198, 119) scale(1.1) translate(-198, -119) translate(97.79998, 80.79997) translate(100.9, 24.5) scale(-1, 1) translate(-100.9, -24.5) translate(82.40002, 0)" id="o1"><g transform="translate(18.19189, 24.4854) scale(-1, 1) rotate(-7, 0, 0) translate(-18.19189, -24.4854) translate(2.691893, 2.485396)" id="p1"><path d="M5.4 26.9 C1.8 24.9 1 24.8 2.3 21.6 C3.6 18.4 6.1 18.9 8.7 16.4 C11.3 13.9 17.2 9.7 21.1 7.8 C25 5.9 27.4 3.6 29.4 5.8 C31.4 8 32.8 14 31.7 20.1 C30.7 26.2 27.1 31.6 26.8 34.5 C26.4 37.4 25.6 41.8 23.9 44.1 C23.4 44.8 21.9 46.5 21 47 C19.1 47.9 18.5 47.3 17.1 43.7 C16.8 42.8 17 42 16.7 41.2 C15.3 37.5 14.2 35.4 12.3 33.5 C9.9 31.1 9 29 5.4 26.9 z" id="q1" fill="#FEFEFE" /><path d="M5.4 26.9 C1.8 24.9 1 24.8 2.3 21.6 C3.6 18.4 6.1 18.9 8.7 16.4 C11.3 13.9 17.2 9.7 21.1 7.8 C25 5.9 27.4 3.6 29.4 5.8 C31.4 8 32.8 14 31.7 20.1 C30.7 26.2 27.1 31.6 26.8 34.5 C26.4 37.4 25.6 41.8 23.9 44.1 C23.4 44.8 21.9 46.5 21 47 C19.1 47.9 18.5 47.3 17.1 43.7 C16.8 42.8 17 42 16.7 41.2 C15.3 37.5 14.2 35.4 12.3 33.5 C9.9 31.1 9 29 5.4 26.9 z M7.1 25.9 C10.4 27.8 11.2 29.8 13.4 32 C15.1 33.8 16.2 35.7 17.4 39.1 C17.7 39.8 17.5 40.6 17.8 41.4 C19.1 44.7 19.6 45.3 21.4 44.4 C22.2 43.9 23.6 42.4 24.1 41.7 C25.7 39.6 26.4 35.5 26.8 32.8 C27.1 30.1 30.4 25.1 31.3 19.5 C32.3 13.9 31 8.3 29.2 6.3 C27.4 4.3 25.2 6.4 21.6 8.1 C18 9.8 12.6 13.7 10.2 16 C7.8 18.3 5.5 17.8 4.3 20.8 C3.1 23.8 3.8 24.1 7.1 25.9 z" opacity="0.15" id="r1" /><path d="M9.4 25.7 C7.4 24.7 6 24.1 7 21.5 C7.6 20 11.2 17.9 14.6 15.3 C17 13.4 19.9 11.4 21.7 10.4 C24.3 8.9 25.5 7.4 27.2 8.7 C28.8 10 30.2 15.6 29.4 20.3 C28.6 25.1 23.7 36.9 22.4 38.7 C21.1 40.5 19.8 43.5 18.2 39.3 C16.6 35.1 16.3 32.5 14.6 30.7 C12.9 29 11.4 26.8 9.4 25.7 z" id="s1" fill="#F2F1F0" /><path d="M11.5 26.9 C11.6 25.9 12.8 24.9 13 24.5 C13.3 23.9 16 22.3 18.3 20.9 C19.3 20.2 22.3 18.6 22.3 18.6 C23.9 17.7 23.8 21.1 22.3 23.8 C21.4 25.4 18.8 31.1 17 32.8 C15.8 33.9 14.9 30.4 14.4 30.5 C13.3 28.9 11.4 27.8 11.5 26.9 z" opacity="0.5" id="t1" fill="#FEFEFE" /></g></g><g transform="translate(169.8, 151.4) scale(1.06) translate(-169.8, -156.4)" id="u1"><g transform="translate(110.8, 102.9) translate(33, 43)" id="v1"><g transform="translate(0, 6)" id="w1"><path d="M51.4 27.5 C51 26.8 50.5 26.2 49.9 25.7 C49.6 24.8 49.3 23.9 49 23.1 C47.1 18.1 46.5 12.5 43.6 8.8 C38.7 2.7 32.8 0.8 25.9 0.8 C19 0.8 13.1 2.8 8.2 8.8 C5.3 12.4 4.6 18.1 2.8 23.1 C2.5 23.9 2.2 24.8 1.9 25.7 C1.3 26.2 0.7 26.8 0.4 27.5 C-0.4 29.1 0.1 31.2 1.1 32.7 C2.1 34.2 4.6 36.6 9.3 37.7 C10 37.9 10.7 37.8 11.4 37.5 C11.4 37.6 11.4 37.7 11.4 37.7 C15.7 43.2 17.8 38.9 25.9 40 C34.1 38.9 36.1 43.2 40.4 37.7 C40.4 37.6 40.4 37.5 40.4 37.5 C41.1 37.8 41.8 37.9 42.5 37.7 C47.2 36.6 49.6 34.2 50.7 32.7 C51.8 31.2 52.4 29.1 51.4 27.5 z" id="x1" fill="#E2DFD9" /><path d="M51.4 27.5 C52.4 29.1 51.8 31.2 50.7 32.7 C49.6 34.2 47.2 36.6 42.5 37.7 C41.8 37.9 41.1 37.8 40.4 37.5 C40.4 37.5 40.4 37.6 40.4 37.7 C36.1 43.2 34.1 38.9 25.9 40 C17.8 38.9 15.7 43.2 11.4 37.7 C11.4 37.7 11.4 37.6 11.4 37.5 C10.7 37.8 10 37.9 9.3 37.7 C4.6 36.6 2.1 34.2 1.1 32.7 C0.1 31.2 -0.4 29.1 0.4 27.5 C0.7 26.8 1.3 26.2 1.9 25.7 C2.2 24.8 2.5 23.9 2.8 23.1 C4.6 18.1 5.3 12.4 8.2 8.8 C13.1 2.8 19 0.8 25.9 0.8 C32.8 0.8 38.7 2.7 43.6 8.8 C46.5 12.5 47.1 18.1 49 23.1 C49.3 23.9 49.6 24.8 49.9 25.7 C50.5 26.2 51 26.8 51.4 27.5 z M49 27.1 C48.7 26.4 48.5 24.8 48 24.3 C47.7 23.5 47.4 22.6 47.1 21.9 C45.4 17.3 44.8 12.2 42.2 8.8 C37.7 3.1 32.2 1.4 25.9 1.4 C19.6 1.4 14.1 3.2 9.6 8.8 C7 12.1 6.3 17.3 4.7 21.9 C4.4 22.6 4.4 24.4 4.1 25.2 C3.6 25.6 2.8 26.4 2.5 27.1 C1.8 28.5 2.2 29.4 3.1 30.7 C4 32.1 4.4 34.8 8.7 35.8 C9.1 35.9 10.5 36.1 12.7 36.2 C16.7 41.3 18.5 36.4 25.9 37.4 C30.4 36.8 35 38.3 37.4 38.1 C38.9 37.9 38.9 37.5 39.1 36.2 C39.7 36.5 42 36.8 42.7 36.6 C47 35.6 47.7 32.1 48.7 30.7 C49.7 29.4 49.9 28.5 49 27.1 z" opacity="0.15" id="y1" /><path d="M35.3 17.8 C35.2 15.5 34.5 13.4 31.9 13 C30 12.7 27.9 13.2 26 13.5 C24.2 13.3 22.2 12.9 20.4 13 C18 13.2 16.9 14.9 16.7 17.2 C16.5 19.3 16.4 21.7 17.9 23.4 C19.2 25 21 26.2 19.5 28.4 C18.9 29.2 18 30.1 18.1 31.2 C18.2 32.2 19.1 32.3 19.8 32.8 C21.4 33.8 23 34.6 24.9 34.8 C26.8 35 28.8 34.7 30.6 33.7 C31.3 33.3 32 32.8 32.7 32.4 C33.6 31.9 34.2 31.6 33.8 30.4 C33.5 29.2 32.2 28.4 31.9 27.2 C31.6 26.1 32.4 25.2 33.1 24.4 C33.9 23.5 34.7 22.8 35 21.6 C35.4 20.4 35.4 19.1 35.3 17.8 z" id="z1" fill="#FEFEFE" /><g transform="translate(9, 19)" id="a2" fill="#FEFEFE"><path d="M31.4 5.9 C31.6 6.7 32.7 7.1 33.3 6.6 C33.9 6.1 33.9 5 33.1 4.6 C32.4 4.2 31.4 4.8 31.3 5.6" id="b2" /><path d="M27.8 2.4 C28 3.2 29.1 3.6 29.7 3.1 C30.3 2.6 30.3 1.5 29.5 1.1 C28.8 0.7 27.8 1.3 27.7 2.1" id="c2" /><path d="M26.6 7.5 C26.8 8.3 27.9 8.7 28.5 8.2 C29.1 7.7 29.1 6.6 28.3 6.2 C27.6 5.8 26.6 6.4 26.5 7.2" id="d2" /><path d="M2.6 5.9 C2.4 6.7 1.3 7.1 0.7 6.6 C0.1 6.1 0.1 5 0.9 4.6 C1.6 4.2 2.6 4.8 2.7 5.6" id="e2" /><path d="M6.2 2.4 C6 3.2 4.9 3.6 4.3 3.1 C3.7 2.6 3.7 1.5 4.5 1.1 C5.2 0.7 6.2 1.3 6.3 2.1" id="f2" /><path d="M7.4 7.5 C7.2 8.3 6.1 8.7 5.5 8.2 C4.9 7.7 4.9 6.6 5.7 6.2 C6.4 5.8 7.4 6.4 7.5 7.2" id="g2" /></g></g></g><g transform="translate(169.8, 184.4) scale(0.7) translate(-169.8, -181.4) translate(104.3, 107.6) translate(38, 64)" id="h2"><g id="i2"><path d="M40.7 9.3 C36.3 7.2 33.8 11.5 29 11.5 C28.5 11.5 26.5 11.5 26 11.5 C21.2 11.6 18.7 7.3 14.3 9.3 C9.4 11.6 -0.1 5.3 0.5 6.2 C0.9 11.3 6.5 16.8 9.4 16.6 C10.4 16.5 14.1 16.3 15 16 C18.8 14.7 23.5 20.9 27.6 20.9 C31.7 20.9 36.3 14.7 40.1 16 C41 16.3 44.7 16.5 45.7 16.6 C48.5 16.8 54.2 11.3 54.6 6.2 C55.1 5.3 45.6 11.6 40.7 9.3 z" id="j2" fill="#965622" /><path d="M51.4 3.1 C50.2 3.8 48.8 6.6 46.8 7.6 C45.9 8.1 43.9 8.4 42.3 8 C41.3 7.4 40.1 6.6 38.6 5.6 C35.3 3.3 31.6 0.7 27.5 0.7 C23.4 0.7 19.7 3.3 16.4 5.6 C14.9 6.6 13.8 7.4 12.7 8 C11 8.4 9 8.1 8.1 7.7 C6.2 6.7 4.8 3.9 3.5 3.2 C2.4 2.5 0.2 3.8 0.2 5.3 C0 10.6 8.1 12.8 10.9 11.9 C12 11.7 13.1 11.3 14.3 10.7 C16.5 12 19.9 15.9 27.5 16.2 C35.1 16.5 38.5 12 40.7 10.7 C41.8 11.3 42.9 11.8 44 11.9 C46.8 12.8 54.9 10.6 54.7 5.3 C54.7 3.7 52.5 2.4 51.4 3.1 z" id="k2" fill="#282421" /><path d="M36.4 8.8 C36.2 7.9 35.1 7.4 34.2 7.2 C32 6.5 29.7 5.8 27.5 5.9 C25.2 5.8 23 6.5 20.8 7.2 C19.9 7.5 18.9 7.9 18.6 8.8 C18.4 9.7 18 11.8 18.7 12.4 C20.3 13.7 19.2 18.9 27.5 18.9 C35.8 18.9 34.6 13.8 36.2 12.4 C37 11.7 36.6 9.7 36.4 8.8 z" id="l2" fill="#CE5253" /></g></g><g transform="translate(108.2, 91.79996) translate(50, 68)" id="m2"><g id="n2"><path d="M10.5 0.5 C14.7 0.5 20.6 1.4 20.7 4.9 C20.8 8.4 20.2 12.6 16 15 C11.8 17.4 7.7 17 4.1 14 C0.9 10.3 0.6 8.5 0.6 5 C0.6 1.5 6.1 0.5 10.5 0.5 z" id="o2" fill="#424242" /><path d="M4.6 2.8 C4.6 4 8.1 4.4 10.6 4.5 C13.1 4.6 15.3 4.3 16.7 3.7 C18.1 3.2 18.6 1.5 13 1.5 C7.5 1.5 4.6 1.6 4.6 2.8 z" id="p2" fill="#FFF" /></g></g><g transform="translate(92.50002, 86.39996) translate(53, 56)" id="q2"><g id="r2"><path d="M11 8.3 C11 7.7 11 4.9 9.8 3 C8.6 1.1 7.4 0.6 5.8 0.2 C4.2 -0.2 2.3 0 1.3 0.9 C0.3 1.8 0 4 0 5.5 C0 7 0.8 8.8 2.8 9.4 C4.1 9.8 6 9.8 8.6 9.4 C10.2 9.1 11 8.8 11 8.3 z" id="s2" /><path d="M5 4.4 C5.6 4.4 6.4 3.6 6.4 3 C6.4 2.4 5.6 2 5 2 C4.4 2 4 2.4 4 3 C4 3.6 4.4 4.4 5 4.4 z" id="t2" fill="#FFFFFE" /></g></g><g transform="translate(100.9, 86.39996) translate(82, 56)" id="u2"><g id="v2"><path d="M0 8.3 C0 7.7 0 4.9 1.2 3 C2.4 1.1 3.6 0.6 5.2 0.2 C6.8 -0.2 8.7 0 9.7 0.9 C10.7 1.8 11 4 11 5.5 C11 7 10.2 8.8 8.2 9.3 C6.9 9.7 5 9.7 2.4 9.3 C0.8 9.1 0 8.8 0 8.3 z" id="w2" /><path d="M6 4.4 C6.6 4.4 7.4 3.6 7.4 3 C7.4 2.4 6.6 2 6 2 C5.4 2 5 2.4 5 3 C5 3.6 5.4 4.4 6 4.4 z" id="x2" fill="#FFFFFE" /></g></g></g></g></g></g><defs><g transform="translate(17.09519, 0.800995) translate(-135.2952, -293.601)" id="y2" fill="#000"><path d="M118.2 302.7 C118.4 307.4 132.5 311.2 149.8 311.2 C167.1 311.2 181.2 307.4 181.4 302.7 C181.4 307.5 181.4 310.1 181.4 310.5 C181.4 315.3 167.3 319.1 149.8 319.1 C132.3 319.1 118.2 315.2 118.2 310.5 L118.2 302.7 L118.2 302.7 z" fill-opacity="0.4528" id="z2" fill="#593001" /><path d="M118.7 301.7 C118.9 306.4 133 310.2 150.3 310.2 C167.6 310.2 181.7 306.4 181.9 301.7 C181.9 306.5 181.9 309.1 181.9 309.5 C181.9 314.3 167.8 318.1 150.3 318.1 C132.8 318.1 118.7 314.2 118.7 309.5 L118.7 301.7 L118.7 301.7 z" id="a3" fill="#DA8113" /><linearGradient x1="46.0545" y1="-118.6926" x2="45.4656" y2="-118.6926" gradientUnits="userSpaceOnUse" gradientTransform="matrix(117.135, 0, 0, 28.4634, -5208.417, 3687.795)" id="b3"><stop offset="0%" stop-color="#D9952A" stop-opacity="1" /><stop offset="6.438854%" stop-color="#CA7519" stop-opacity="1" /><stop offset="30.54%" stop-color="#E3AD3A" stop-opacity="1" /><stop offset="51.05%" stop-color="#FFEC91" stop-opacity="1" /><stop offset="68.8%" stop-color="#E9BD44" stop-opacity="1" /><stop offset="86.24%" stop-color="#FFED6C" stop-opacity="1" /><stop offset="93.87%" stop-color="#F2D353" stop-opacity="1" /><stop offset="100%" stop-color="#F2B947" stop-opacity="1" /></linearGradient><path d="M118.2 301.6 C118.4 306.1 132.7 309.7 150.3 309.7 C167.9 309.7 182.2 306.1 182.4 301.6 C182.4 306.2 182.4 308.7 182.4 309 C182.4 313.5 168 317.2 150.3 317.2 C132.6 317.2 118.2 313.5 118.2 309 L118.2 301.6 L118.2 301.6 z" id="c3" style="fill:url(#b3)" /><linearGradient x1="45.4914" y1="-117.9547" x2="45.9407" y2="-117.5895" gradientUnits="userSpaceOnUse" gradientTransform="matrix(115.425, 0, 0, 29.925, -5125.077, 3826.124)" id="d3"><stop offset="0%" stop-color="#F4E072" stop-opacity="1" /><stop offset="100%" stop-color="#DB9427" stop-opacity="1" /></linearGradient><ellipse cx="150.3" cy="301.5" rx="31.6" ry="8.2" id="e3" style="fill:url(#d3)" /><linearGradient x1="45.4656" y1="-126.0065" x2="46.0545" y2="-126.0065" gradientUnits="userSpaceOnUse" gradientTransform="matrix(117.135, 0, 0, 18.6219, -5208.417, 2651.479)" id="f3"><stop offset="0%" stop-color="#D9952A" stop-opacity="1" /><stop offset="6.438854%" stop-color="#CA7519" stop-opacity="1" /><stop offset="30.54%" stop-color="#E3AD3A" stop-opacity="1" /><stop offset="51.05%" stop-color="#FFEC91" stop-opacity="1" /><stop offset="68.8%" stop-color="#E9BD44" stop-opacity="1" /><stop offset="86.24%" stop-color="#FFED6C" stop-opacity="1" /><stop offset="93.87%" stop-color="#F2D353" stop-opacity="1" /><stop offset="100%" stop-color="#F2B947" stop-opacity="1" /></linearGradient><path d="M119.2 299.9 C119 300.2 118.9 300.6 118.9 301 C118.9 305.5 132.9 309.2 150.3 309.2 C167.7 309.2 181.7 305.5 181.7 301 C181.7 300.6 181.6 300.3 181.4 299.9 C182 300.5 182.4 301.2 182.4 301.9 C182.4 306.4 168 310.1 150.3 310.1 C132.6 310.1 118.2 306.4 118.2 301.9 C118.2 301.3 118.6 300.6 119.2 299.9 z" id="g3" style="fill:url(#f3)" /><linearGradient x1="45.196" y1="-121.5895" x2="45.3746" y2="-120.6758" gradientUnits="userSpaceOnUse" gradientTransform="matrix(101.745, 0, 0, 23.94, -4458.332, 3199.41)" id="h3"><stop offset="0%" stop-color="#F8DD61" stop-opacity="1" /><stop offset="100%" stop-color="#EAA330" stop-opacity="1" /></linearGradient><ellipse cx="150.3" cy="300.8" rx="27.8" ry="6.6" id="i3" style="fill:url(#h3)" /><linearGradient x1="45.5694" y1="-134.267" x2="45.0221" y2="-134.267" gradientUnits="userSpaceOnUse" gradientTransform="matrix(101.745, 0, 0, 13.2525, -4458.332, 2077.223)" id="j3"><stop offset="0%" stop-color="#F4CA2F" stop-opacity="1" /><stop offset="51.38%" stop-color="#BF7737" stop-opacity="1" /><stop offset="100%" stop-color="#E4A929" stop-opacity="1" /></linearGradient><path d="M122.6 301.5 C122.5 301.3 122.4 301 122.4 300.8 C122.4 297.2 134.9 294.2 150.2 294.2 C165.5 294.2 178 297.1 178 300.8 C178 301 177.9 301.3 177.8 301.5 C176.3 298.2 164.5 295.6 150.1 295.6 C135.7 295.6 124.1 298.2 122.6 301.5 z" id="k3" style="fill:url(#j3)" /></g></defs><desc>4NH84ENHOIK,tUjCO4FBD/HDxgbTpb8mhrwhorzOFhcXs2Gzplx0n6Zh+KkNOcr2S6rM0eB2gC8IWQ6sAyzpdalg71GjMLtg+9/rKYPQrTqaRQZLwAvH6fzRo4wwq7PQ3WgMJB0dTNX+</desc></svg>