<?xml version="1.0" encoding="utf-8"?><!DOCTYPE svg PUBLIC "-//W3C//DTD SVG 1.1//EN" "http://www.w3.org/Graphics/SVG/1.1/DTD/svg11.dtd"><svg x="0" y="0" width="340px" height="340px" viewBox="0, 0, 340, 340" preserveAspectRatio="xMidYMid" font-size="0" id="a" enable-background="new 0 0 340 340" xmlns="http://www.w3.org/2000/svg" xmlns:xlink="http://www.w3.org/1999/xlink" xmlns:xml="http://www.w3.org/XML/1998/namespace" version="1.1"><g id="b" fill="#000"><g id="c"><g transform="translate(0, 0) translate(0, 224)" id="d"><ellipse cx="168.6" cy="53.1" rx="57.8" ry="12.8" fill-opacity="0.25" id="e" /></g><g id="f"><g transform="translate(110.8, 104.9) translate(22, 133)" id="g" /><g transform="translate(125.6733, 274.8) scale(0.9066306) translate(-122.4, -274.8) translate(85.80001, 86.29997) translate(29, 123)" id="h"><g transform="translate(22.5, 34.5) scale(-1, 1) translate(-22.5, -34.5)" id="i"><path d="M0.5 21.2 C0.5 5.6 29.7 -5.2 40.3 4.4 C49.4 12.7 41.6 31.9 40.3 33.7 C39.4 34.9 36.1 41.1 30.4 52.5 C37.7 55.2 41.3 58.4 41.3 62.1 C41.3 63.8 41.3 66.1 39.6 67.4 C38.3 68.4 19.6 68.3 15.4 67.4 C11.2 66.5 0.3 66.2 0.5 57.8 C0.7 48.8 0.5 29.2 0.5 21.2 z" id="j" fill="#BD8B6A" /><path d="M0.5 21.2 C0.5 5.6 29.7 -5.2 40.3 4.4 C49.4 12.7 41.6 31.9 40.3 33.7 C39.4 34.9 36.1 41.1 30.4 52.5 C37.7 55.2 41.3 58.4 41.3 62.1 C41.3 63.8 41.3 66.1 39.6 67.4 C38.3 68.4 19.6 68.3 15.4 67.4 C11.2 66.5 0.3 66.2 0.5 57.8 C0.7 48.8 0.5 29.2 0.5 21.2 z M2 21.6 C2 25.7 2.6 32.8 2.5 39.9 C2.4 45.8 1.6 51.8 1.6 55.7 C1.4 63.7 11.3 64.4 15.3 65.3 C19.3 66.2 36.4 66.9 37.7 65.9 C39.3 64.7 39.3 63 39.3 61.4 C39.3 57.9 34.4 55.6 27.4 53 C32.8 42.1 37.7 34 38.5 32.9 C40.9 28.4 47 12.6 38.4 4.6 C28.3 -4.5 2 6.8 2 21.6 z" opacity="0.15" id="k" /></g></g><g transform="translate(210.6267, 274.8) scale(0.9066306) translate(-213.9, -274.8) translate(92.40001, 86.29997) translate(107, 157.5) scale(-1, 1) translate(-107, -157.5) translate(85, 123)" id="l"><g id="m"><path d="M42.8 20.7 C42.8 5.1 15.8 -5.2 5.2 4.4 C-3.9 12.7 3.9 31.9 5.2 33.7 C6.1 34.9 9.4 41.1 15.1 52.5 C7.8 55.2 4.2 58.4 4.2 62.1 C4.2 63.8 4.2 66.1 5.9 67.4 C7.2 68.4 24.3 69 30.1 67.4 C30.3 67.3 33.1 66.7 34 66.4 C37.5 65.2 42.4 63.3 42.7 59.9 C44.2 44.3 42.8 29.9 42.8 20.7 z" id="n" fill="#BD8B6A" /><path d="M42.8 20.7 C42.8 29.9 44.2 44.3 42.7 59.9 C42.4 63.3 37.5 65.2 34 66.4 C33.1 66.7 30.3 67.3 30.1 67.4 C24.2 69 7.2 68.4 5.9 67.4 C4.2 66.1 4.2 63.8 4.2 62.1 C4.2 58.4 7.8 55.2 15.1 52.5 C9.4 41.1 6.1 34.9 5.2 33.7 C3.9 31.9 -3.9 12.7 5.2 4.4 C15.8 -5.2 42.8 5.1 42.8 20.7 z M41.8 20.4 C41.8 5.6 16.2 -4.4 6.1 4.8 C-2.5 12.6 6 30.7 7.3 32.4 C8.2 33.5 12.3 42.3 17.7 53.2 C10.8 55.8 5.6 58.3 5.6 61.8 C5.6 63.4 5.7 64.3 7.4 65.6 C8.6 66.5 24.1 67 29.7 65.5 C29.9 65.4 34.8 64.5 35.7 64.2 C39 63.1 41.6 60.9 41.9 57.7 C43.1 42.8 41.8 29.1 41.8 20.4 z" opacity="0.15" id="o" /></g></g><g transform="translate(91.30001, 75.89998) translate(31, 73)" id="p"><path d="M22.9 13.8 C30.8 10 27.6 0.4 45.8 0.4 C64 0.4 60.8 10.8 68.8 13.3 C77.6 16.1 79.3 26.3 81.2 30.8 C97 63.7 72.1 126.8 68.8 129.6 C65.9 131.5 60.5 132 58.5 132 C55.3 132 52.8 131.1 51.6 131 C48.9 130.8 47.7 129.6 46 129.6 C44.1 129.6 41.9 130.8 38.4 131 C36.8 131.1 33.1 132 28.8 132 C26.9 132 23.5 130.5 20.9 127.6 C18.7 124.7 0.2 64.8 8.3 34.4 C9.4 30.9 13 18.6 22.9 13.8 z" id="q" fill="#BD8B6A" /><path d="M22.9 13.8 C30.8 10 27.6 0.4 45.8 0.4 C64 0.4 60.8 10.8 68.8 13.3 C77.6 16.1 79.3 26.3 81.2 30.8 C97 63.7 72.1 126.8 68.8 129.6 C65.9 131.5 60.5 132 58.5 132 C55.3 132 52.8 131.1 51.6 131 C48.9 130.8 47.7 129.6 46 129.6 C44.1 129.6 41.9 130.8 38.4 131 C36.8 131.1 33.1 132 28.8 132 C26.9 132 23.5 130.5 20.9 127.6 C18.7 124.7 0.2 64.8 8.3 34.4 C9.4 30.9 13 18.6 22.9 13.8 z M23.7 14.6 C14.1 19.2 10.7 31.1 9.6 34.5 C1.8 63.8 19.6 121.6 21.8 124.4 C24.3 127.2 27.6 128.6 29.4 128.6 C33.5 128.6 37.1 127.7 38.7 127.6 C42.1 127.4 44.2 126.2 46 126.2 C47.6 126.2 48.8 127.4 51.4 127.6 C52.6 127.7 55 128.6 58.1 128.6 C60 128.6 65.2 128.1 68 126.3 C71.2 123.6 95.2 62.7 80 31 C78.2 26.7 76.5 16.8 68 14.1 C60.3 11.7 63.4 1.7 45.8 1.7 C28.2 1.7 31.3 11 23.7 14.6 z" opacity="0.15" id="r" /></g><g fill-rule="evenOdd" transform="translate(121.96, 185.55) scale(1.2, 1.100897) translate(-129.7, -194.9) translate(103.9, 77.29999) translate(65, 163) scale(-1, 1) translate(-65, -163) translate(26, 119)" id="s"><path d="M7.6 1.8 C8.9 0.3 10.2 -1 14.9 6 C16.8 8.8 20 11.5 21.9 14.4 C24.8 18.8 26.1 23.2 28.3 25.5 C31.9 29.2 36 31.9 41.1 31 C46.3 30.1 50.5 22.7 53.3 18 C56.2 13.3 63.6 7.6 66.2 4.7 C68.8 2 69.2 -1.4 72.1 1.4 C75 4.2 78.2 13.6 77.9 17.2 C77.6 20.8 76.9 29 74.5 32.5 C72.1 36 70.7 37.3 70.7 41 C70.7 44.7 66.7 50.6 66.5 53.7 C66.3 56.8 63.3 66.9 63.3 74.7 C63.3 76.3 64.3 78.8 64.4 80.2 C64.7 83.3 66 86.9 60.9 86.9 C55.8 86.9 53.1 87.6 50.2 86.9 C49.2 86.9 46.9 85.8 46.6 84.9 C46.2 83.3 47.4 80.6 47.8 79.3 C48.7 76 51.4 74.1 51.7 73.1 C52.5 70.5 53.4 46.4 53.3 43.8 C50.8 51.6 49.8 53.8 46.2 53.8 C43.8 53.8 41.3 52.5 38.6 50 C36.8 52.6 34.6 53.8 32 53.8 C29.4 53.8 26.2 49.6 22.3 41.1 C23.8 49.4 24.8 55.1 25.1 58 C25.6 62 26.3 66.4 26.4 67.5 C26.5 68.6 26.8 70.4 27.6 73.6 C27.9 74.7 30.5 76.3 31.6 79.7 C32.7 83.1 33.1 85.2 30.6 86.5 C28.1 87.8 27.5 87.6 26.3 87.5 C22.3 87.2 16.6 86.2 15.8 85.5 C14.7 84.7 14.1 80 14.7 77.6 C15.9 72.8 15.2 70.5 15.2 68.6 C15.3 64.4 11.5 50.4 8.7 46.4 C5.9 42.4 7 38.7 6 34.8 C5 30.9 1 27.2 0.9 19.4 C0.8 11.6 6.2 3.2 7.6 1.8 z" id="t" fill="#BD8B6A" /><path d="M7.6 1.8 C8.9 0.3 10.2 -1 14.9 6 C16.8 8.8 20 11.5 21.9 14.4 C24.8 18.8 26.1 23.2 28.3 25.5 C31.9 29.2 36 31.9 41.1 31 C46.3 30.1 50.5 22.7 53.3 18 C56.2 13.3 63.6 7.6 66.2 4.7 C68.8 2 69.2 -1.4 72.1 1.4 C75 4.2 78.2 13.6 77.9 17.2 C77.6 20.8 76.9 29 74.5 32.5 C72.1 36 70.7 37.3 70.7 41 C70.7 44.7 66.7 50.6 66.5 53.7 C66.3 56.8 63.3 66.9 63.3 74.7 C63.3 76.3 64.3 78.8 64.4 80.2 C64.7 83.3 66 86.9 60.9 86.9 C55.8 86.9 53.1 87.6 50.2 86.9 C49.2 86.9 46.9 85.8 46.6 84.9 C46.2 83.3 47.4 80.6 47.8 79.3 C48.7 76 51.4 74.1 51.7 73.1 C52.5 70.5 53.4 46.4 53.3 43.8 C50.8 51.6 49.8 53.8 46.2 53.8 C43.8 53.8 41.3 52.5 38.6 50 C36.8 52.6 34.6 53.8 32 53.8 C29.4 53.8 26.2 49.6 22.3 41.1 C23.8 49.4 24.8 55.1 25.1 58 C25.6 62 26.3 66.4 26.4 67.5 C26.5 68.6 26.8 70.4 27.6 73.6 C27.9 74.7 30.5 76.3 31.6 79.7 C32.7 83.1 33.1 85.2 30.6 86.5 C28.1 87.8 27.5 87.6 26.3 87.5 C22.3 87.2 16.6 86.2 15.8 85.5 C14.7 84.7 14.1 80 14.7 77.6 C15.9 72.8 15.2 70.5 15.2 68.6 C15.3 64.4 11.5 50.4 8.7 46.4 C5.9 42.4 7 38.7 6 34.8 C5 30.9 1 27.2 0.9 19.4 C0.8 11.6 6.2 3.2 7.6 1.8 z M10 5 C8.7 6.3 3.7 14.1 3.8 21.3 C3.9 28.5 7.6 31.9 8.5 35.5 C9.5 39.1 8.5 42.5 11 46.2 C13.6 49.9 17.1 62.8 17 66.7 C17 68.5 17.7 70.6 16.6 75 C16 77.3 16.6 81.6 17.6 82.3 C18.3 83 22.1 83.9 25.8 84.2 C26.9 84.3 27.4 85.4 29.7 84.2 C32 83 31.1 81.5 30.1 78.4 C29 75.2 26.7 75.8 26.4 74.7 C25.7 71.8 25.3 67.7 25.2 66.7 C25.1 65.7 24.4 61.1 24 57.4 C23.7 55.1 22.4 47.9 21 41.2 C20.9 40.7 20.7 39.4 21 38.4 C21.3 37.6 22 37.2 21.9 36.7 C25.5 44.5 30.2 53.1 32.6 53.1 C35 53.1 37 51.9 38.7 49.5 C41.2 51.8 43.5 53.1 45.7 53.1 C49 53.1 51.2 47.5 53.5 40.3 C53.5 40.9 54.7 41.7 54.5 44.2 C54 52.4 53.4 71 52.8 72.9 C52.5 73.8 47.8 80 48.1 81.3 C48.4 82.1 48.5 83.6 49.4 83.6 C52.1 84.3 54.6 83.6 59.3 83.6 C64 83.6 62.8 80.3 62.5 77.4 C62.4 76.1 61.5 73.8 61.5 72.4 C61.5 65.2 64.3 55.8 64.4 53 C64.6 50.1 68.3 44.6 68.3 41.2 C68.3 37.8 69.6 36.6 71.8 33.4 C74 30.1 74.7 22.6 75 19.2 C75.2 15.9 72.3 7.2 69.6 4.6 C66.9 2.1 66.6 5.2 64.2 7.7 C61.8 10.4 56.2 15.9 53.5 20.3 C50.9 24.6 45.1 32.5 40.3 33.4 C35.5 34.2 31.5 30.5 28.2 27.1 C26.2 24.9 24.6 20.9 21.9 16.8 C20.1 14.2 18.5 11.5 16.8 8.9 C12.4 2.4 11.2 3.6 10 5 z" opacity="0.15" id="u" /></g></g><g transform="translate(168.3, 188) scale(0.9537572) translate(-168.3, -188)" id="v"><g transform="translate(95.2, 81.89997) translate(23, 22)" id="w"><g id="x"><path d="M8.2 28.4 C11 21.7 15.7 17.3 19.3 12.7 C22.9 8.1 31.7 5.6 37.3 4.5 C41.1 3.8 45.5 4.2 50.5 5.5 C52.6 4.5 55.6 4.2 59.5 4.5 C66.7 4.5 74.5 9 78.8 11.8 C83 14.6 91 25 93 28.4 C95 31.8 96.7 39.1 97.3 42.7 C97.9 46.3 97.3 55.3 94.7 60.3 C92.1 65.3 82.5 78 79.9 80.3 C76.4 83.4 71.5 86.4 67.9 88.5 C62.3 91.8 46 95 35.4 89.9 C31.5 88 25.1 85.8 20.9 82.2 C13.5 75.9 8.9 67.7 7 65.7 C4 62.7 1.8 55.5 2.5 50.3 C3.2 45.1 5.4 35.1 8.2 28.4 z" id="y" fill="#BD8B6A" /><path d="M88.9 69.3 C87.1 71.9 85.2 74.6 83.6 76.7 C82.3 78.2 81.1 79.5 80.2 80.5 C79.9 80.8 79.6 81.2 79.2 81.6 C75.8 84.3 71.3 86.7 68.2 88.6 C62.6 91.8 46 95 35.4 89.9 C31.8 88.2 26.1 86.1 21.9 83 C21 82.2 20 81.4 19 80.5 C18.5 80 18 79.5 17.5 79 L14.9 76.1 C13 73.9 11.4 71.7 10.1 69.9 C9.3 68 8.6 65.7 8.1 63.2 C7.1 58 7.9 53.8 10.3 49.9 C11.7 47.6 14.6 45.6 18.9 43.8 C18.6 47.5 18.6 49.9 18.8 50.8 C20.2 56.9 23.9 61.2 30.3 59.2 C32.2 58.6 34.7 51 48.6 51 C62.5 51 62.5 57.9 68.7 59.7 C74.9 61.5 78.8 56.3 80.6 51.3 C82.4 46.3 80.5 43.1 80.1 42.6 C79.7 42.1 86.2 44 89.2 49 C92.2 54 92.5 57.7 90.4 64.5 C89.9 66.5 89.3 68.1 88.9 69.3 z" id="z" fill="#D8B285" /><path d="M8.2 28.4 C11 21.7 15.7 17.3 19.3 12.7 C22.9 8.1 31.7 5.6 37.3 4.5 C41.1 3.8 45.5 4.2 50.5 5.5 C52.6 4.5 55.6 4.2 59.5 4.5 C66.7 4.5 74.5 9 78.8 11.8 C83 14.6 91 25 93 28.4 C95 31.8 96.7 39.1 97.3 42.7 C97.9 46.3 97.3 55.3 94.7 60.3 C92.1 65.3 82.5 78 79.9 80.3 C76.4 83.4 71.5 86.4 67.9 88.5 C62.3 91.8 46 95 35.4 89.9 C31.5 88 25.1 85.8 20.9 82.2 C13.5 75.9 8.9 67.7 7 65.7 C4 62.7 1.8 55.5 2.5 50.3 C3.2 45.1 5.4 35.1 8.2 28.4 z M10.1 28.4 C7.4 34.9 5.3 44.5 4.6 49.5 C3.9 54.5 6 61.4 8.9 64.3 C10.7 66.2 15.2 74.1 22.2 80.1 C26.2 83.6 32.3 85.8 36.1 87.5 C46.3 92.4 61.9 89.3 67.2 86.1 C70.6 84.1 75.3 81.2 78.7 78.2 C81.2 76 90.4 63.7 92.9 58.9 C95.4 54.1 96 45.4 95.4 42 C94.8 38.5 93.2 31.5 91.2 28.3 C89.2 25.1 81.6 15.1 77.6 12.4 C73.6 9.7 66.1 5.4 59.2 5.4 C55.5 5.1 52.6 5.5 50.6 6.4 C45.8 5.1 41.6 4.7 37.9 5.4 C32.5 6.4 24.1 8.8 20.7 13.3 C17.3 17.8 12.8 21.9 10.1 28.4 z" opacity="0.15" id="a1" /><path d="M32.7 10.5 C38.2 13.7 42.7 17.2 45.6 23.9 C48.5 30.6 47.2 33.2 49.4 33.2 C51.6 33.2 51.1 28.5 53.1 23.9 C55.1 19.3 60.7 14.2 66.5 10.5 C67.2 10 63.6 8.3 60.1 8.4 C56.9 8.6 52.2 10.5 50 10.5 C48 10.5 45 8.8 40.7 8.4 C34.9 7.9 29.5 8.7 32.7 10.5 z" id="b1" fill="#806458" /></g></g><g transform="translate(139.8, 120.1) rotate(-8, 0, 0) scale(1) translate(-139.8, -120.1) translate(112, 91.09997) translate(3, 2)" id="c1"><path d="M33.9 21.7 C35.1 19.6 35.4 14.7 32.2 12.1 C29.1 9.6 18.9 1.4 16 0.8 C13.1 0.2 11.9 0 9.8 0.8 C8 1.5 6.7 3.9 6.3 4.9 C5.4 7 1.1 13.6 1.1 21.6 C1.1 29.6 0.5 36.5 1.1 39.7 C1.7 42.8 3.2 42.8 4.7 42.8 C5.5 42.8 11.7 35.5 18.8 30.6 C26 25.6 32.8 23.8 33.9 21.7 z" id="d1" fill="#806458" /><path d="M33.9 21.7 C32.8 23.8 26 25.6 18.8 30.6 C11.7 35.5 5.5 42.8 4.7 42.8 C3.2 42.8 1.7 42.8 1.1 39.7 C0.5 36.5 1.1 29.6 1.1 21.6 C1.1 13.6 5.4 7 6.3 4.9 C6.7 3.9 8 1.5 9.8 0.8 C11.9 0 13.1 0.2 16 0.8 C18.9 1.4 29.1 9.6 32.2 12.1 C35.4 14.7 35.1 19.6 33.9 21.7 z M32.1 20.3 C33.2 18.4 33.4 14.1 30.6 11.8 C27.9 9.6 18.9 2.3 16.3 1.8 C13.7 1.3 12.7 1.1 10.8 1.8 C9.2 2.4 8.1 4.5 7.7 5.4 C6.9 7.3 3.1 13.1 3.1 20.2 C3.1 27.3 2.6 33.4 3.1 36.3 C3.7 39 5 39 6.3 39 C7 39 12.5 32.5 18.7 28.2 C25.1 23.7 31.1 22.1 32.1 20.3 z" opacity="0.15" id="e1" /></g><g transform="translate(195.4, 120.1) rotate(8, 0, 0) scale(1) translate(-195.4, -120.1) translate(92.2, 94.29997) translate(110, 21.5) scale(-1, 1) translate(-110, -21.5) translate(92, 0)" id="f1"><path d="M33.6 22.2 C34.4 20.7 35.3 19.4 35.3 18.1 C35.5 15.9 34.2 13.7 32.2 12.1 C29 9.6 20.6 2.3 15.9 0.8 C14.9 0.5 12.5 0.3 10.8 0.8 C8.4 1.6 6.8 3.7 6.2 4.9 C5.3 7 2.3 12.3 1 21.7 C-0.3 31 0.4 36.6 1 39.7 C1.6 42.8 3.1 42.8 4.6 42.8 C5.4 42.8 12.2 36.3 19.6 31.3 C26.6 26.5 32.8 23.6 33.6 22.2 z" id="g1" fill="#806458" /><path d="M33.6 22.2 C32.8 23.6 26.6 26.5 19.6 31.3 C12.2 36.3 5.4 42.8 4.6 42.8 C3.1 42.8 1.6 42.8 1 39.7 C0.4 36.6 -0.3 31 1 21.7 C2.3 12.3 5.3 7 6.2 4.9 C6.8 3.7 8.4 1.6 10.8 0.8 C12.5 0.3 14.9 0.5 15.9 0.8 C20.6 2.3 29 9.6 32.2 12.1 C34.2 13.7 35.5 15.9 35.3 18.1 C35.3 19.4 34.4 20.7 33.6 22.2 z M31.9 20.5 C32.6 19.2 33.4 18 33.4 16.9 C33.6 15 32.4 13 30.6 11.6 C27.7 9.4 20.2 3 16 1.7 C15.1 1.4 13 1.3 11.4 1.7 C9.4 2.5 8 4.3 7.4 5.4 C6.6 7.2 3.9 11.9 2.8 20.1 C1.6 28.2 2.3 33.2 2.8 35.9 C3.3 38.6 4.7 38.6 6 38.6 C6.7 38.6 12.8 32.9 19.4 28.5 C25.7 24.3 31.2 21.7 31.9 20.5 z" opacity="0.15" id="h1" /></g><g transform="translate(168.3, 173) scale(1, 0.9) translate(-168.3, -173)" id="i1"><g transform="translate(105.8, 112.1) translate(35, 23)" id="j1"><g id="k1"><path d="M37.5 66.1 C35.6 63 34.6 61.1 27.5 61.1 C20.4 61.1 20.5 63 18.5 66.1 C17.8 67.2 15.4 69 14.6 70.5 C19.1 72.1 21.5 73.3 27.3 73.2 C32.7 73.1 36.4 72 41.2 70.1 C40.1 68.4 38.1 67.1 37.5 66.1 z" id="l1" fill="#806457" /><path d="M50.6 46 C45.1 33.7 39 30 27.5 30 C16 30 9.9 33.8 4.4 46 C0.2 55.4 -0.9 65.6 0.8 68.7 C4 74.4 13 76.5 15.7 71.9 C16.6 70.4 17.2 68.7 17.7 67.1 C18.1 66.7 18.4 66.3 18.5 66.1 C20.4 63 20.4 61.1 27.5 61.1 C33.2 61.1 34.9 62.3 36.4 64.4 C37.3 66.8 37.9 69.5 39.3 71.9 C42 76.5 50.9 74.4 54.2 68.7 C55.9 65.6 54.8 55.4 50.6 46 z" id="m1" fill="#FFF" /><path d="M15.4 26.9 C20.4 24.7 22.2 21.1 24.1 16.1 C24.7 19.5 25.4 23.5 24.7 25.3 C22.9 29.9 18.8 29.5 16 31.5 C13.3 33.5 11.4 36.2 9.8 39.2 C9.7 38.7 8.8 39 8.3 39.6 C7.9 34.7 10.9 28.9 15.4 26.9 z" id="n1" fill="#FFF" /><path d="M39.6 26.9 C34.6 24.7 32.8 21.1 30.9 16.1 C30.3 19.5 29.6 23.5 30.3 25.3 C32.1 29.9 36.2 29.5 39 31.5 C41.7 33.5 43.6 36.2 45.2 39.2 C45.3 38.7 46.2 39 46.7 39.6 C47.1 34.7 44.1 28.9 39.6 26.9 z" id="o1" fill="#FFF" /><path d="M38 30 C34.3 27.5 31.9 27.9 30.9 25 C30.1 22.7 31.4 10.7 31.5 8.9 C32.3 0 27.5 0.5 27.5 0.5 C27.5 0.5 22.7 0 23.5 8.9 C23.7 10.7 24.9 22.8 24.1 25 C23.1 27.9 20.7 27.4 17 30 C13.8 32.2 10.7 34.8 9.6 37.9 C12.1 36.9 13.1 35.2 16.4 33.5 C19.3 32 21.6 30.6 27.6 30.6 C33.6 30.6 35.9 32 38.8 33.5 C42.1 35.2 43.1 36.9 45.6 37.9 C44.4 34.8 41.3 32.2 38 30 z" id="p1" fill="#806457" /><path d="M15.4 26.9 C20.4 24.7 22.2 21.1 24.1 16.1 C24.1 16.2 24.1 16.3 24.1 16.4 C23.9 13 23.6 9.8 23.5 8.9 C22.7 0 27.5 0.5 27.5 0.5 C27.5 0.5 32.3 0 31.5 8.9 C31.5 9.7 31.1 12.8 30.9 16.1 C32.8 21.1 34.6 24.7 39.6 26.9 C43.9 28.8 46.8 34.2 46.7 38.9 C48.1 40.9 49.4 43.2 50.6 46 C54.8 55.4 55.9 65.6 54.2 68.7 C50.9 74.4 42 76.5 39.3 71.9 C39.1 71.6 39 71.3 38.8 71 C35.1 72.3 31.8 73.1 27.3 73.2 C22.2 73.3 19.7 72.4 16.2 71.1 C16 71.3 15.9 71.6 15.7 71.9 C13 76.5 4 74.4 0.8 68.7 C-0.9 65.6 0.2 55.4 4.4 46 C5.6 43.2 6.9 40.9 8.3 39 C8.2 34.2 11.1 28.8 15.4 26.9 z M16 27.3 C12 29.1 9.2 34.3 9.3 38.9 C8 40.8 6.8 43 5.6 45.7 C1.7 54.8 0.6 64.6 2.2 67.6 C5.3 73.1 13.8 75.1 16.3 70.7 C16.5 70.4 16.7 70.1 16.8 69.8 C20.2 71.1 22.5 72 27.3 71.9 C31.5 71.8 34.7 71.1 38.2 69.8 C38.4 70.1 38.5 70.4 38.7 70.7 C41.2 75.1 49.6 73.1 52.8 67.6 C54.4 64.6 53.3 54.8 49.4 45.7 C48.2 43 47 40.8 45.7 38.9 C45.8 34.3 43 29.1 39 27.3 C34.2 25.2 32.1 21.4 30.3 16.6 C30.5 13.4 31.1 10.4 31.1 9.6 C31.9 1 27.4 1.1 27.4 1.1 C27.4 1.1 23.2 0.9 24 9.4 C24.1 10.3 24.5 12.7 24.7 16 C24.7 15.9 24 17.8 23.9 17.8 C22.1 22.6 20.8 25.2 16 27.3 z" opacity="0.15" id="q1" /><g transform="translate(8, 44)" id="r1" fill="#282421"><path d="M10.1 5.3 C9.4 4.9 8.4 5.5 8.3 6.4 C8.3 7.2 9.3 7.9 10 7.5 C10.7 7.1 10.9 6 10.2 5.5" id="s1" /><path d="M5.6 0.9 C4.9 0.5 3.9 1.1 3.8 2 C3.8 2.8 4.8 3.5 5.5 3.1 C6.2 2.7 6.4 1.6 5.7 1.1" id="t1" /><path d="M2.7 7.5 C2 7.1 1 7.7 0.9 8.6 C0.9 9.4 1.9 10.1 2.6 9.7 C3.3 9.3 3.5 8.2 2.8 7.7" id="u1" /><path d="M28.9 5.3 C29.6 4.9 30.6 5.5 30.7 6.4 C30.7 7.2 29.7 7.9 29 7.5 C28.3 7.1 28.1 6 28.8 5.5" id="v1" /><path d="M33.4 0.9 C34.1 0.5 35.1 1.1 35.2 2 C35.2 2.8 34.2 3.5 33.5 3.1 C32.8 2.7 32.6 1.6 33.3 1.1" id="w1" /><path d="M36.3 7.5 C37 7.1 38 7.7 38.1 8.6 C38.1 9.4 37.1 10.1 36.4 9.7 C35.7 9.3 35.5 8.2 36.2 7.7" id="x1" /></g></g></g><g transform="translate(168.3, 192.4999) scale(2) translate(-168.3, -192.4999) translate(101.3, 106.7) translate(58, 77)" id="y1"><g id="z1"><path d="M9.1 8.1 C9.1 8.1 5.5 10.3 3.5 11.1 C4.6 12 6.9 13.1 9.1 13.1 C11.3 13.1 13.5 12 14.7 11.1 C12.7 10.2 9.1 8.1 9.1 8.1 z" id="a2" fill="#CE5253" /><path d="M18.5 13.8 C18.5 13.8 18.4 13.7 18.2 13.4 C18 13.2 17.7 12.8 17.4 12.5 C16.7 11.7 15.7 10.8 14.5 10 C13.4 9.2 12.1 8.4 11.1 8 C10.8 7.9 10.6 7.8 10.4 7.7 C10.3 7.7 10.2 7.7 10.1 7.6 L10.1 1.9 C10.1 1.3 9.7 0.9 9.1 0.9 C8.5 0.9 8.1 1.3 8.1 1.9 L8.1 7.6 C8 7.6 7.9 7.7 7.9 7.7 C7.7 7.8 7.4 7.9 7.2 8 C6.2 8.5 5 9.2 4 10 C2.9 10.8 2 11.8 1.4 12.6 C1.1 13 0.8 13.3 0.7 13.5 C0.5 13.7 0.4 13.9 0.4 13.9 C0.3 14.1 0.3 14.4 0.4 14.6 C0.6 14.8 0.9 14.8 1.1 14.6 C1.1 14.6 1.2 14.5 1.4 14.3 C1.6 14.1 1.9 13.9 2.3 13.6 C3 13 4 12.3 5.1 11.7 C6.2 11.1 7.3 10.7 8.1 10.5 C8.3 10.5 8.5 10.4 8.6 10.4 C8.6 10.4 8.6 10.4 8.7 10.4 C8.8 10.5 9 10.5 9.2 10.5 C9.4 10.5 9.5 10.4 9.7 10.4 L9.8 10.4 C10 10.4 10.2 10.5 10.4 10.5 C11.3 10.7 12.5 11.1 13.6 11.7 C14.8 12.3 15.8 13 16.6 13.5 C17 13.8 17.3 14 17.5 14.2 C17.7 14.4 17.9 14.5 17.9 14.5 C18.1 14.7 18.4 14.7 18.6 14.5 C18.7 14.3 18.7 14 18.5 13.8 z" id="b2" fill="#282523" /></g></g><g transform="translate(105.8, 112.1) translate(51, 56)" id="c2"><g id="d2"><path d="M21.7 7 C20.6 1.1 14.2 0.3 11.5 0.3 C8.8 0.3 2.4 1.1 1.3 7 C0.5 11.1 1.3 11.5 1.3 11.5 L11.5 11.5 L21.7 11.5 C21.7 11.5 22.4 11.2 21.7 7 z" id="e2" fill="#282421" /><path d="M18.3 4.3 C18.4 3.8 17.8 3.1 17.5 2.8 C17 2.4 15.4 1.2 11.5 1.1 C7.6 1 6 2.3 5.5 2.8 C5.2 3.1 4.6 3.9 4.7 4.3 C6.2 3.5 9.8 2.8 11.5 6.6 C12.9 3.1 16.8 3.4 18.3 4.3 z" id="f2" fill="#FEFEFE" /></g></g><g transform="translate(100.8, 120.4) translate(40, 19)" id="g2"><g transform="translate(0, 9)" id="h2"><circle cx="7.4" cy="7.2" r="6.5" id="i2" fill="#282421" /><path d="M8.9 4.2 C8.6 3.6 7.7 3 6.4 3.1 C5.5 3.2 4.8 4 4.6 4.8 C4.4 5.6 4.8 6.6 5.5 7.1 C6.3 7.7 7.6 7.6 8.3 7 C9.2 6.3 9.4 5.1 8.9 4.2 z" id="j2" fill="#FEFEFE" /><path d="M11.8 6.7 C11.3 6.5 10.4 7.2 10.9 8 C11.3 8.5 12.1 8.3 12.3 7.8 C12.5 7.5 12.3 6.9 11.8 6.7 z" id="k2" fill="#FEFEFE" /></g><path d="M5.1 1.5 C8 0.5 11.3 0.3 12.2 2.6 C13.1 5 6.8 8.1 4.2 7.4 C1 6.5 3.3 2.2 5.1 1.5 z" id="l2" fill="#F0C497" /></g><g transform="translate(113.6, 120.4) translate(68, 19)" id="m2"><g transform="translate(0, 9)" id="n2"><circle cx="6.8" cy="7.2" r="6.5" id="o2" fill="#282421" /><path d="M8.4 4.2 C8.1 3.6 7.2 3 5.9 3.1 C5 3.2 4.3 4 4.1 4.8 C3.9 5.6 4.3 6.6 5 7.1 C5.8 7.7 7.1 7.6 7.8 7 C8.6 6.3 8.8 5.1 8.4 4.2 z" id="p2" fill="#FEFEFE" /><path d="M11.3 6.7 C10.8 6.5 9.9 7.2 10.4 8 C10.8 8.5 11.6 8.3 11.8 7.8 C12 7.5 11.7 6.9 11.3 6.7 z" id="q2" fill="#FEFEFE" /></g><path d="M8 1.1 C5 0.3 1.7 0.3 1 2.7 C0.3 5.2 6.8 7.9 9.3 6.9 C12.4 5.7 9.9 1.6 8 1.1 z" id="r2" fill="#F0C497" /></g></g></g></g></g><defs><g transform="translate(17.09519, 0.800995) translate(-135.2952, -293.601)" id="s2" fill="#000"><path d="M118.2 302.7 C118.4 307.4 132.5 311.2 149.8 311.2 C167.1 311.2 181.2 307.4 181.4 302.7 C181.4 307.5 181.4 310.1 181.4 310.5 C181.4 315.3 167.3 319.1 149.8 319.1 C132.3 319.1 118.2 315.2 118.2 310.5 L118.2 302.7 L118.2 302.7 z" fill-opacity="0.4528" id="t2" fill="#593001" /><path d="M118.7 301.7 C118.9 306.4 133 310.2 150.3 310.2 C167.6 310.2 181.7 306.4 181.9 301.7 C181.9 306.5 181.9 309.1 181.9 309.5 C181.9 314.3 167.8 318.1 150.3 318.1 C132.8 318.1 118.7 314.2 118.7 309.5 L118.7 301.7 L118.7 301.7 z" id="u2" fill="#DA8113" /><linearGradient x1="46.0545" y1="-118.6926" x2="45.4656" y2="-118.6926" gradientUnits="userSpaceOnUse" gradientTransform="matrix(117.135, 0, 0, 28.4634, -5208.417, 3687.795)" id="v2"><stop offset="0%" stop-color="#D9952A" stop-opacity="1" /><stop offset="6.438854%" stop-color="#CA7519" stop-opacity="1" /><stop offset="30.54%" stop-color="#E3AD3A" stop-opacity="1" /><stop offset="51.05%" stop-color="#FFEC91" stop-opacity="1" /><stop offset="68.8%" stop-color="#E9BD44" stop-opacity="1" /><stop offset="86.24%" stop-color="#FFED6C" stop-opacity="1" /><stop offset="93.87%" stop-color="#F2D353" stop-opacity="1" /><stop offset="100%" stop-color="#F2B947" stop-opacity="1" /></linearGradient><path d="M118.2 301.6 C118.4 306.1 132.7 309.7 150.3 309.7 C167.9 309.7 182.2 306.1 182.4 301.6 C182.4 306.2 182.4 308.7 182.4 309 C182.4 313.5 168 317.2 150.3 317.2 C132.6 317.2 118.2 313.5 118.2 309 L118.2 301.6 L118.2 301.6 z" id="w2" style="fill:url(#v2)" /><linearGradient x1="45.4914" y1="-117.9547" x2="45.9407" y2="-117.5895" gradientUnits="userSpaceOnUse" gradientTransform="matrix(115.425, 0, 0, 29.925, -5125.077, 3826.124)" id="x2"><stop offset="0%" stop-color="#F4E072" stop-opacity="1" /><stop offset="100%" stop-color="#DB9427" stop-opacity="1" /></linearGradient><ellipse cx="150.3" cy="301.5" rx="31.6" ry="8.2" id="y2" style="fill:url(#x2)" /><linearGradient x1="45.4656" y1="-126.0065" x2="46.0545" y2="-126.0065" gradientUnits="userSpaceOnUse" gradientTransform="matrix(117.135, 0, 0, 18.6219, -5208.417, 2651.479)" id="z2"><stop offset="0%" stop-color="#D9952A" stop-opacity="1" /><stop offset="6.438854%" stop-color="#CA7519" stop-opacity="1" /><stop offset="30.54%" stop-color="#E3AD3A" stop-opacity="1" /><stop offset="51.05%" stop-color="#FFEC91" stop-opacity="1" /><stop offset="68.8%" stop-color="#E9BD44" stop-opacity="1" /><stop offset="86.24%" stop-color="#FFED6C" stop-opacity="1" /><stop offset="93.87%" stop-color="#F2D353" stop-opacity="1" /><stop offset="100%" stop-color="#F2B947" stop-opacity="1" /></linearGradient><path d="M119.2 299.9 C119 300.2 118.9 300.6 118.9 301 C118.9 305.5 132.9 309.2 150.3 309.2 C167.7 309.2 181.7 305.5 181.7 301 C181.7 300.6 181.6 300.3 181.4 299.9 C182 300.5 182.4 301.2 182.4 301.9 C182.4 306.4 168 310.1 150.3 310.1 C132.6 310.1 118.2 306.4 118.2 301.9 C118.2 301.3 118.6 300.6 119.2 299.9 z" id="a3" style="fill:url(#z2)" /><linearGradient x1="45.196" y1="-121.5895" x2="45.3746" y2="-120.6758" gradientUnits="userSpaceOnUse" gradientTransform="matrix(101.745, 0, 0, 23.94, -4458.332, 3199.41)" id="b3"><stop offset="0%" stop-color="#F8DD61" stop-opacity="1" /><stop offset="100%" stop-color="#EAA330" stop-opacity="1" /></linearGradient><ellipse cx="150.3" cy="300.8" rx="27.8" ry="6.6" id="c3" style="fill:url(#b3)" /><linearGradient x1="45.5694" y1="-134.267" x2="45.0221" y2="-134.267" gradientUnits="userSpaceOnUse" gradientTransform="matrix(101.745, 0, 0, 13.2525, -4458.332, 2077.223)" id="d3"><stop offset="0%" stop-color="#F4CA2F" stop-opacity="1" /><stop offset="51.38%" stop-color="#BF7737" stop-opacity="1" /><stop offset="100%" stop-color="#E4A929" stop-opacity="1" /></linearGradient><path d="M122.6 301.5 C122.5 301.3 122.4 301 122.4 300.8 C122.4 297.2 134.9 294.2 150.2 294.2 C165.5 294.2 178 297.1 178 300.8 C178 301 177.9 301.3 177.8 301.5 C176.3 298.2 164.5 295.6 150.1 295.6 C135.7 295.6 124.1 298.2 122.6 301.5 z" id="e3" style="fill:url(#d3)" /></g></defs><desc>LO59E2GDGA2,y0lnArSELXqKGL9DzvF8euE2BtwycbUf9e+UbYlSabGlgD+9evl/WZJsENY88OM8Etf7MjWPqu/Wkmw+nQ414g==</desc></svg>