<?xml version="1.0" encoding="utf-8"?><!DOCTYPE svg PUBLIC "-//W3C//DTD SVG 1.1//EN" "http://www.w3.org/Graphics/SVG/1.1/DTD/svg11.dtd"><svg x="0" y="0" width="340px" height="340px" viewBox="0, 0, 340, 340" preserveAspectRatio="xMidYMid" font-size="0" id="a" enable-background="new 0 0 340 340" xmlns="http://www.w3.org/2000/svg" xmlns:xlink="http://www.w3.org/1999/xlink" xmlns:xml="http://www.w3.org/XML/1998/namespace" version="1.1"><g id="b" fill="#000"><g id="c"><g transform="translate(0, 0) translate(0, 224)" id="d"><ellipse cx="168.6" cy="53.1" rx="57.8" ry="12.8" fill-opacity="0.25" id="e" /></g><g id="f"><g transform="translate(106.4, 86.99998) translate(8, 107)" id="g"><path d="M17.9 35.7 C13.1 32.3 10.5 28 10 21.2 C9.9 20.1 0.7 17.8 0.4 21.9 C0.1 28 2.1 33.7 4.6 38.4 C7.9 44.5 15.6 50.4 23.9 50.4 L33.1 33.8 C29.3 37.3 22.1 38.7 17.9 35.7 z" id="h" fill="#66493D" /><path d="M0.4 21.9 C2 23.7 7 22.6 10 21.2 C9.9 20.1 9.9 19 9.9 17.8 C10.1 6.6 20 4.3 17.6 0.8 C15.2 -2.7 5.9 7.2 4.7 9 C1.9 13.4 0.6 17.8 0.4 21.9 z" id="i" fill="#EFE9E6" /><path d="M0.4 21.9 C0.6 17.8 1.9 13.4 4.7 9 C5.9 7.2 15.2 -2.7 17.6 0.8 C20 4.3 10.1 6.6 9.9 17.8 C9.9 19 9.9 20.1 10 21.2 C10.5 28 13.1 32.3 17.9 35.7 C22.1 38.7 29.3 37.3 33.1 33.8 L23.9 50.4 C15.6 50.4 7.9 44.5 4.6 38.4 C2.1 33.7 0.1 28 0.4 21.9 z M5.8 10.5 C3.3 14.5 2.1 18.5 1.9 22.2 C1.6 27.7 3.4 32.9 5.7 37.1 C8.7 42.6 15.7 48 23.2 48 L30.2 36.8 C26.8 40 20.8 39.5 17 36.8 C12.7 33.7 9.7 31.4 9.2 25.3 C9.1 24.3 8.6 19.6 8.6 18.6 C8.9 8.4 19.2 2.4 16.5 0.9 C14.9 -1.2 6.9 8.9 5.8 10.5 z" opacity="0.15" id="j" /></g><g transform="translate(121.7, 275.3) scale(1.107692) translate(-121.7, -275.3) translate(97, 79.79997) translate(17, 136)" id="k"><path d="M4.3 33.6 C3.8 31 3.1 28.2 2.7 25.4 C2.3 26 1.9 26.7 1.5 27.5 C0.3 22.8 0.4 11.7 4 6.1 C4 6.1 4 6.1 4 6 C4 5.9 4.1 5.9 4.1 5.8 C4.1 5.8 4.1 5.7 4.2 5.7 C4.5 5.2 4.8 4.8 5.2 4.3 C10.6 -1.3 22.8 -0.7 30 5.8 C42.2 16.8 34 33.7 31.1 40.5 C28.6 46.5 9.7 46.3 9.1 44.4 C8 40.8 6.8 36.8 5.7 32.8 C5.2 33.1 4.8 33.4 4.3 33.6 z" id="l" fill="#AA6F4F" /><path d="M10.6 49.9 C10.1 47.8 9.4 45.5 8.7 43.1 C10.5 41.2 12.7 40.4 15.2 40.1 C16.9 39.9 18.7 40.1 20.4 40 C22.6 39.8 24.8 37.8 26.5 36.7 C28.1 35.7 31.4 33.6 33.1 35.5 C32.3 37.5 31.6 39.2 31 40.6 C28.5 46.6 31.6 54.8 27 59.4 C22.8 63.7 6.5 62.5 2 60.7 C1.9 55.1 6.2 55.3 10.6 49.9 z" id="m" fill="#E8E5E3" /><path d="M30.8 41 C28.6 47 31.5 54.9 27 59.4 C22.8 63.7 6.5 62.5 2 60.7 C1.9 55.1 6.2 55.3 10.6 49.9 C10.1 47.8 9.4 45.5 8.7 43.1 L8.7 43.1 C7.7 39.8 6.7 36.3 5.7 32.8 C5.2 33.1 4.8 33.4 4.3 33.6 C3.8 31 3.1 28.2 2.7 25.4 C2.3 26 1.9 26.7 1.5 27.5 C0.3 22.8 0.4 11.7 4 6.1 L4 6 C4 5.9 4.1 5.9 4.1 5.8 C4.1 5.8 4.1 5.7 4.2 5.7 C4.5 5.2 4.8 4.8 5.2 4.3 C10.6 -1.3 22.8 -0.7 30 5.8 C42.2 16.8 34 33.7 31.1 40.5 C31 40.7 30.9 40.8 30.8 41 z M29.2 40.7 C29.8 39.6 30.2 39 30.2 38.9 C32.9 32.5 40.6 16.8 29.2 6.6 C22.5 0.5 11.2 0 6.1 5.2 C5.8 5.7 5.5 6 5.2 6.5 C5.1 6.5 5.1 6.6 5.1 6.6 C5.1 6.7 5 6.7 5 6.9 C1.7 12.1 0.8 20.2 1.9 24.6 C2.3 23.9 3.3 23.5 3.7 22.9 C4.1 25.5 5 29 5.4 31.4 C5.9 31.2 6.5 30 7 29.7 C7.9 33 8.5 38.3 9.4 41.3 L9.9 40.7 C10.6 42.9 12.1 48.3 12.6 50.3 C8.5 55.3 4.9 53.5 5 58.7 C9.2 60.4 22.5 60.4 26.4 56.4 C30.6 52.3 27.2 46.2 29.2 40.7 z" opacity="0.15" id="n" /></g><g transform="translate(218.3, 275.3) scale(1.107692) translate(-218.3, -275.3) translate(108.7, 79.79997) translate(98.5, 167.5) scale(-1, 1) translate(-98.5, -167.5) translate(80, 136)" id="o"><path d="M4.3 33.6 C3.8 31 3.1 28.2 2.7 25.4 C2.3 26 1.9 26.7 1.5 27.5 C0.3 22.8 0.4 11.7 4 6.1 C4 6.1 4 6.1 4 6 C4 5.9 4.1 5.9 4.1 5.8 C4.1 5.8 4.1 5.7 4.2 5.7 C4.5 5.2 4.8 4.8 5.2 4.3 C10.6 -1.3 22.8 -0.7 30 5.8 C42.2 16.8 34 33.7 31.1 40.5 C28.6 46.5 9.7 46.3 9.1 44.4 C8 40.8 6.8 36.8 5.7 32.8 C5.2 33.1 4.8 33.4 4.3 33.6 z" id="p" fill="#AA6F4F" /><path d="M10.6 49.9 C10.1 47.8 9.4 45.5 8.7 43.1 C10.5 41.2 12.7 40.4 15.2 40.1 C16.9 39.9 18.7 40.1 20.4 40 C22.6 39.8 24.8 37.8 26.5 36.7 C28.1 35.7 31.4 33.6 33.1 35.5 C32.3 37.5 31.6 39.2 31 40.6 C28.5 46.6 31.6 54.8 27 59.4 C22.8 63.7 6.5 62.5 2 60.7 C1.9 55.1 6.3 55.3 10.6 49.9 z" id="q" fill="#E8E5E3" /><path d="M30.8 41 C28.6 47 31.5 54.9 27 59.4 C22.8 63.7 6.5 62.5 2 60.7 C1.9 55.1 6.3 55.3 10.6 49.9 C10.1 47.8 9.4 45.5 8.7 43.1 L8.7 43.1 C7.7 39.8 6.7 36.3 5.7 32.8 C5.2 33.1 4.8 33.4 4.3 33.6 C3.8 31 3.1 28.2 2.7 25.4 C2.3 26 1.9 26.7 1.5 27.5 C0.3 22.8 0.4 11.7 4 6.1 L4 6 C4 5.9 4.1 5.9 4.1 5.8 C4.1 5.8 4.1 5.7 4.2 5.7 C4.5 5.2 4.8 4.8 5.2 4.3 C10.6 -1.3 22.8 -0.7 30 5.8 C42.2 16.8 34 33.7 31.1 40.5 C31 40.7 30.9 40.8 30.8 41 z M29.7 38.9 L28.4 41.3 C28.5 41.1 29.9 38.6 30 38.5 C32.6 32.3 40.1 16.8 29 6.7 C22.4 0.8 11.3 0.2 6.4 5.3 C6 5.8 5.8 6.2 5.5 6.6 C5.4 6.6 5.4 6.7 5.4 6.7 C5.4 6.8 5.3 6.8 5.3 7 C2 12.1 1 20.4 2.1 24.7 C2.5 24 3.6 23.6 4 23.1 C4.3 25.6 4.5 29 5 31.3 C5.4 31.2 6.6 30.2 7 29.9 C7.9 33.1 8.7 37.9 9.6 40.9 C10.2 43.1 12.1 47.7 12.6 49.7 C8.6 54.6 5.5 53.1 5.6 58.3 C9.7 59.9 21.5 60.7 25.4 56.8 C29.4 52.7 27.7 44.4 29.7 38.9 z" opacity="0.15" id="r" /></g><g transform="translate(98.00001, 60.59998) translate(25, 71)" id="s"><g id="t"><path d="M69.5 24.8 C69.5 41 72.2 39.3 73.9 43.9 C75.6 48.5 82.5 57.5 83.8 70.3 C85.1 83.1 84.4 97 80.4 108.7 C76.4 120.4 79.3 141.6 69.6 144.3 C69.3 144.4 37.7 147.4 26 144.3 C13.8 141.1 19.8 128.1 14.4 110.8 C9 93.5 8.1 84.8 8.4 70.4 C8.7 56 18.7 48.8 20.5 43.9 C22.3 39 24.6 37.2 24.6 24.8 C24.6 12.4 32.6 5.4 50.1 5.9 C55.4 5.9 69.5 8.4 69.5 24.8 z" id="u" fill="#453D37" /><g id="v"><path d="M8.7 40.5 C8.6 41.2 8.6 42.1 8.7 43.4 C8.9 47.3 7 51.1 5.3 55.1 C2.8 61.3 -0.1 70.5 -0.5 75.6 C-1.7 88.9 2 96.6 7.7 113.6 C13.4 130.6 13.9 141.5 16.6 144 C19.3 146.5 37.2 147 46.6 147.3 C56 147.6 76.8 145.7 78.6 144 C80.4 142.3 83.4 124.7 86.4 117.4 C89.4 110.1 93.5 86.6 93.8 78 C94.1 68.2 90.7 59.4 87.8 54.9 C86.1 52.3 81.6 45.5 84 40 C84.2 38.6 59.2 38.8 8.7 40.5 z" id="w" fill="#EBB67F" /><path d="M9.3 30.9 C7.8 37.9 9.4 42.3 7.8 47.1 C9.2 48.8 16.3 61 21.5 66.4 C26.2 71.1 33 77.2 37.6 80.6 C42.2 84 44.6 86.3 46.9 86.4 C49.2 86.5 56.7 80.6 59.8 78.4 C62.8 76.1 69.6 70.5 75.4 62.4 C80.6 55.2 83.7 49.8 84.4 48.9 C85.9 46.9 84.6 45.8 84.5 37 C84.4 29.2 61.8 29.3 51.2 29.5 C40.6 29.7 12.2 25.2 9.3 30.9 z" id="x" fill="#E8E5E3" /><path d="M11.6 21.9 C10.3 23.4 9.6 28.3 10.3 33.6 C11 38.9 18.6 50.6 25.6 58.1 C32.6 65.6 44.2 74.4 47.4 74.5 C49.9 74.6 60.4 67.3 68.8 59.7 C77.2 52.1 81.8 36.2 82.3 32.4 C83.1 27.2 82.5 22.7 80.9 21.2 C77.9 18.5 76.2 -0.6 46.5 -0.6 C17.2 -0.6 14.2 18.9 11.6 21.9 z" id="y" fill="#EBB67F" /></g><path d="M10 30 C9.9 26.2 10.6 22.9 11.6 21.8 C14.2 18.8 17.3 -0.7 46.7 -0.7 C76.3 -0.6 78 18.5 81 21.2 C82.6 22.7 83.2 27.2 82.4 32.4 C82.4 32.7 82.3 33.1 82.2 33.5 C83.6 34.5 84.5 35.7 84.5 37.2 C84.6 45.9 85.9 47.1 84.5 49 C85.5 51.5 86.9 53.7 87.7 54.9 C90.6 59.4 94 68.2 93.7 78 C93.4 86.7 89.3 110.2 86.3 117.4 C83.3 124.6 80.3 142.3 78.5 144 C76.7 145.7 55.9 147.6 46.5 147.3 C37.1 147 19.2 146.5 16.5 144 C13.8 141.5 13.3 130.6 7.6 113.6 C1.9 96.6 -1.8 89 -0.6 75.6 C-0.2 70.5 2.7 61.3 5.2 55.1 C6.3 52.6 7.4 50.1 8.1 47.7 C7.9 47.5 7.8 47.3 7.7 47.2 C9.3 42.3 7.7 37.9 9.2 31 C9.5 30.6 9.7 30.3 10 30 z M11.4 30.6 C11.1 30.9 10.9 31.1 10.7 31.5 C9.3 38.2 10.8 42.5 9.3 47.1 C9.4 47.2 9.5 47.4 9.7 47.6 C9.1 50 8 52.4 6.9 54.8 C4.5 60.8 1.7 69.6 1.3 74.6 C0.1 87.3 3.6 94.7 9.1 111 C14.6 127.3 15.1 137.9 17.7 140.3 C20.3 142.7 37.5 143.2 46.6 143.5 C55.7 143.8 75.7 142 77.4 140.3 C79.1 138.7 82 121.7 84.9 114.7 C87.8 107.7 91.7 85 92 76.6 C92.3 67.2 89 58.7 86.2 54.3 C85.4 53.1 84.1 51.1 83.1 48.6 C84.5 46.7 83.2 45.6 83.1 37.2 C83.1 35.8 82.3 34.6 80.9 33.7 C81 33.3 81.1 32.9 81.1 32.6 C81.9 27.6 81.3 23.3 79.8 21.8 C76.9 19.3 75.3 0.9 46.7 0.9 C18.4 0.9 15.4 19.7 12.9 22.6 C11.9 23.9 11.3 27 11.4 30.6 z" opacity="0.15" id="z" /></g></g><g transform="translate(98.00001, 60.59998) translate(24, 127)" id="a1"><path d="M6.1 0.2 C11.1 5.7 15.3 10.1 18.8 13.2 C26.2 19.7 34 23.4 34.2 23.5 C39.7 27 43.3 27.1 48.3 27.1 C53.3 27.1 61.1 25.3 64.4 23.5 C66 22.6 72.5 19.8 80.3 12 C83.2 9.2 86 4.8 88.8 -1 C90.9 1.7 92.5 5.5 93.6 10.3 C94.4 14.1 91.9 19.6 92.1 24.6 C90.9 36.8 87.7 37.7 83.8 47 C82.9 49.2 84.6 50.8 83.6 53.8 C80.2 63.3 76.6 75.4 76 82 C75.8 84.4 77.6 84.2 80.5 87.3 C83.4 90.4 86.7 99 82.8 100.9 C74 102.3 63.9 97.7 61.3 96.3 C59.6 95.4 59.3 78 59.6 61.4 C59.7 51.6 60.3 42 59.6 39.7 C57.5 41.8 51.1 46.2 48.5 46 C45.9 45.8 43.6 42.3 37.8 38.9 C37.4 41.1 38.8 52.2 39 61.3 C39.4 78 39 96.2 37.8 97.4 C36.1 99.4 18.9 101.8 14.7 100.8 C10.5 99.8 12.7 93.7 13.5 92 C15.4 87.8 21 85 20.9 83.5 C20.2 71.3 17.3 63 14.7 56.5 C13.7 54.1 14.3 49.9 13.5 47.9 C8.1 34.4 6.9 36.4 4.9 31.7 C3.2 27.8 1 25.4 2 21.1 C3 16.8 1.4 11 2.1 9.3 C3 6.9 4.3 3.8 6.1 0.2 z" id="b1" fill="#F9F9F9" /><path d="M93.6 10.2 C94.4 14 94.9 18.4 95.1 23.4 C93.9 35.6 92.9 33.6 89 43 C88.1 45.1 83.9 52.6 82.8 55.2 C81 57.3 80.8 59.3 78.9 59.4 C76.2 59.6 76.9 55.9 80.9 46.4 C83.6 39.8 84.8 35.9 86.7 26.5 C87.9 20.2 91.4 13.1 93.6 10.2 z" id="c1" fill="#66493D" /><path d="M14.6 56.5 C13.6 54.1 12.7 51.9 11.9 49.9 C6.6 36.4 0.8 32.6 0.3 25.4 C-0.3 19.9 0.1 17.8 0.8 13.5 C1 12.4 1.4 11 2.1 9.3 C4.8 12.1 10 19.9 11.3 26.4 C13.2 35.8 14.4 39.7 17.1 46.3 C21 55.8 21.8 59.4 19.1 59.3 C17.4 59.2 16.1 58.2 14.6 56.5 z" id="d1" fill="#66493D" /><path d="M6.1 0.2 C11.1 5.7 15.3 10.1 18.8 13.2 C26.2 19.7 34 23.4 34.2 23.5 C39.7 27 43.3 27.1 48.3 27.1 C53.3 27.1 61.1 25.3 64.4 23.5 C66 22.6 72.5 19.8 80.3 12 C83.2 9.2 86 4.8 88.8 -1 C90.9 1.7 92.5 5.5 93.6 10.3 C94.4 14.1 94.9 18.5 95.1 23.5 C93.9 35.6 92.9 33.6 89 43 C88.3 44.7 85.5 49.8 83.8 53.1 C83.8 53.3 83.7 53.5 83.6 53.8 C80.2 63.3 76.6 75.4 76 82 C75.8 84.4 77.6 84.2 80.5 87.3 C83.4 90.4 86.7 99 82.8 100.9 C74 102.3 63.9 97.7 61.3 96.3 C59.6 95.4 59.3 78 59.6 61.4 C59.7 51.6 60.3 42 59.6 39.7 C57.5 41.8 51.1 46.2 48.5 46 C45.9 45.8 43.6 42.3 37.8 38.9 C37.4 41.1 38.8 52.2 39 61.3 C39.4 78 39 96.2 37.8 97.4 C36.1 99.4 18.9 101.8 14.7 100.8 C10.5 99.8 12.7 93.7 13.5 92 C15.4 87.8 21 85 20.9 83.5 C20.2 71.5 17.4 63.3 14.9 56.9 C14.8 56.8 14.7 56.6 14.5 56.5 C13.5 54.1 12.6 51.9 11.8 49.9 C6.6 36.4 0.8 32.6 0.3 25.4 C-0.3 19.9 0.1 17.8 0.8 13.5 C1 12.4 1.4 11 2.1 9.3 C3 6.9 4.3 3.8 6.1 0.2 z M8.6 4.8 C6.9 8.1 6.3 10.2 5.5 12.4 C4.9 14 4.5 15.3 4.3 16.4 C3.7 20.4 3.3 22.3 3.8 27.4 C4.3 34 9.6 37.5 14.5 50.1 C15.2 52 16.1 54 17 56.2 C17.1 56.3 17.2 56.4 17.3 56.6 C19.7 62.6 22.2 73.6 22.8 84.7 C22.9 86.1 17.6 87 15.9 90.9 C15.2 92.5 13.2 96.4 17.1 97.3 C21 98.2 34.2 96.4 35.8 94.5 C36.9 93.4 37.5 74.5 37.2 58.9 C37 50.5 34 37.5 34.4 35.5 C39.8 38.6 46.5 44.9 48.8 45 C51.1 45.1 60.4 37 62.3 35.1 C62.9 37.2 61.2 52.7 61.1 61.8 C60.8 77.1 61 93.5 62.6 94.3 C65 95.6 72 98.6 80.1 97.3 C83.7 95.4 79.9 90.2 77.2 87.4 C74.5 84.6 74.1 84.9 74.3 82.6 C74.9 76.5 77.7 62.4 80.8 53.6 C80.9 53.4 80.9 53.2 81 53 C82.5 49.9 85.2 45.2 85.8 43.6 C89.4 34.9 90.3 36.7 91.4 25.6 C91.2 20.9 90.8 16.8 90 13.3 C89 8.9 89.4 6.5 87.5 4 C84.9 9.5 80.4 13.4 77.8 16 C70.5 23.2 64.6 24.7 63.1 25.5 C60 27.2 52.9 30.9 48.3 30.9 C43.7 30.9 40.2 28.7 35.2 25.5 C35 25.4 27.3 22 20.5 16 C17.2 13.1 13.2 9.8 8.6 4.8 z" opacity="0.15" id="e1" /></g></g><g transform="translate(169.6, 177.7) scale(0.9620512) translate(-169.6, -177.7)" id="f1"><g transform="translate(102.5, 82.99997) translate(25, 0)" id="g1"><path d="M83.3 38.3 C82.7 12.3 65.3 8.5 60.7 6 C55.5 3.1 48.3 0.1 42.1 0.1 C35.9 0.1 28.7 3.2 23.5 6 C18.9 8.6 1.6 12.3 0.9 38.3 C0.3 62.7 17 66.8 17.2 78.3 C17.5 96.2 28 97 42 97 C56 97 66.5 96.1 66.8 78.3 C67.1 66.8 83.9 62.6 83.3 38.3 z" id="h1" fill="#EBB67F" /><path d="M83.3 38.3 C83.9 62.6 67.1 66.8 66.8 78.3 C66.5 96.1 56 97 42 97 C28 97 17.5 96.2 17.2 78.3 C17 66.8 0.3 62.7 0.9 38.3 C1.6 12.3 18.9 8.6 23.5 6 C28.7 3.2 35.9 0.1 42.1 0.1 C48.3 0.1 55.5 3.1 60.7 6 C65.3 8.5 82.7 12.3 83.3 38.3 z M80.6 37.2 C80.1 12.6 63.8 9 59.5 6.6 C54.6 3.8 47.9 1 42.1 1 C36.3 1 29.6 3.9 24.7 6.6 C20.4 9.1 4.2 12.6 3.6 37.2 C3 60.4 18.6 64.2 18.8 75.1 C19.1 92.1 28.9 92.8 42 92.8 C55.1 92.8 64.9 92 65.2 75.1 C65.5 64.2 81.2 60.3 80.6 37.2 z" opacity="0.15" id="i1" /></g><g transform="translate(136.4, 105.7) rotate(17, 0, 0) scale(1) translate(-136.4, -105.7) translate(84.59999, 86.49997) translate(23, 6)" id="j1"><path d="M31.8 0 C25.5 1.5 19.2 7.2 16.6 10.2 C14 13.2 6 16.4 4.2 19.6 C2.4 22.8 4 24.1 1.9 29.6 C1.2 31.4 0.9 34.8 1 39.7 C1.4 39.3 2.1 38.9 2.9 38.3 C4.7 37.1 3.5 38.4 2.9 42.2 C2.9 44.3 3.4 47 4.3 48.4 C5.2 49.9 5 47.2 7 47.2 C7.5 47.2 7.2 48.2 7 49.2 C6.6 50.9 6.5 53.4 7 52.7 C8.8 50.1 9.7 50.4 9.9 53.7 C14.9 56.6 17.6 59.1 17.9 61.3 C18.2 63.3 18 64.9 17.2 67.4 C17 68.1 17.1 70.9 18.5 70.6 C19.8 70.4 21.7 68.5 23.2 67.4 C26.4 65.1 32.2 62 30.8 53.8 C29.4 45.6 25.8 42.5 26 32.5 C26.2 22.5 24.9 12.4 28.8 6.6 C31 3.4 33.9 2.6 35.3 1.4 C36.7 0.2 33.1 0.2 31.8 0 z" id="k1" fill="#66493D" /><path d="M31.8 0 C33.1 0.2 36.7 0.2 35.3 1.4 C33.9 2.6 31 3.4 28.8 6.6 C24.9 12.4 26.2 22.5 26 32.5 C25.8 42.5 29.4 45.6 30.8 53.8 C32.2 62 26.4 65.1 23.2 67.4 C21.7 68.5 19.8 70.4 18.5 70.6 C17.1 70.9 17 68.1 17.2 67.4 C18 64.9 18.2 63.3 17.9 61.3 C17.6 59.1 14.9 56.6 9.9 53.7 C9.7 50.4 8.8 50.1 7 52.7 C6.5 53.4 6.6 50.9 7 49.2 C7.2 48.2 7.5 47.2 7 47.2 C5 47.2 5.2 49.9 4.3 48.4 C3.4 47 2.9 44.3 2.9 42.2 C3.5 38.4 4.7 37.1 2.9 38.3 C2.1 38.9 1.4 39.3 1 39.7 C0.9 34.8 1.2 31.4 1.9 29.6 C4 24.1 2.4 22.8 4.2 19.6 C6 16.4 14 13.2 16.6 10.2 C19.2 7.2 25.5 1.5 31.8 0 z M29.5 1.9 C23.9 3.2 19.1 9.5 16.8 12.1 C14.4 14.7 7.3 17.4 5.7 20.1 C4.1 22.9 5.5 24 3.6 28.7 C3 30.2 2.2 31.7 2.3 35.9 C2.7 35.6 4.6 35.9 5.3 35.4 C6.8 34.4 5.3 39.6 5.2 39.7 C5.2 41.5 5 43.5 5.8 44.7 C6.6 46 6.4 43.7 8.2 43.7 C8.6 43.7 8.4 44.6 8.2 45.4 C7.8 46.9 8.6 49.2 9.1 48.6 C10.7 46.4 11.8 46.5 12 49.3 C16.5 51.8 18.2 54 18.5 55.9 C18.7 57.6 20.1 59.4 19.3 61.5 C19.2 62.1 20.2 65.3 21.4 65 C22.6 64.8 23.9 61.9 25.2 60.9 C28.1 59 28.3 55.6 27.1 48.6 C25.8 41.6 24.4 39.7 24.6 31.2 C24.7 22.6 22.9 12.5 26.4 7.5 C28.4 4.8 30.9 3 32.1 1.9 C33.4 0.9 30.7 2.1 29.5 1.9 z" opacity="0.15" id="l1" /></g><g transform="translate(202.7, 105.7) rotate(-17, 0, 0) scale(1) translate(-202.7, -105.7) translate(90.1, 86.99997) translate(97, 5)" id="m1"><path d="M16.5 8.8 C18.6 12.4 18.7 28 18.7 33.7 C18.7 39.4 17.7 40.1 15.7 46.5 C13.7 52.9 14.6 59.7 18.7 64.2 C24.1 68.8 27.7 71.4 29.1 71.2 C30.5 71 28.8 68.9 27.8 65.5 C27.1 63.2 26.6 62.2 28.5 59.6 C28.7 59.3 29.9 61.3 29.9 60.3 C29.9 59.4 32.6 57 34.4 55.1 C35.3 54.1 35.9 52.9 35.9 52.9 C36.4 53 37 54.2 37.6 56.4 C39.3 51.7 40.4 48.6 40.9 47 C41.4 45.6 41.9 47.4 42.4 48.1 C42.9 48.8 42.3 42.3 42.4 41.7 C42.9 37.9 43.6 35.7 42.9 32.7 C42.6 31.3 41.8 29.5 40.8 27.4 C40.7 27.1 40.2 26.4 42.5 27.4 C43.5 27.9 40.2 22.5 39.1 20.8 C37.5 18.4 33.1 16 31.7 14.8 C27.8 11.6 18.5 1.4 13.5 0.1 C10.9 0.2 8.7 -0.1 9.7 1.6 C10.8 3.6 14.9 6 16.5 8.8 z" id="n1" fill="#66493D" /><path d="M16.5 8.8 C14.9 6 10.8 3.6 9.7 1.6 C8.7 -0.1 10.9 0.2 13.5 0.1 C18.5 1.4 27.8 11.6 31.7 14.8 C33.1 16 37.5 18.4 39.1 20.8 C40.2 22.5 43.5 27.9 42.5 27.4 C40.2 26.4 40.7 27.1 40.8 27.4 C41.8 29.5 42.6 31.3 42.9 32.7 C43.6 35.7 42.9 37.9 42.4 41.7 C42.3 42.3 42.9 48.8 42.4 48.1 C41.9 47.4 41.4 45.6 40.9 47 C40.4 48.6 39.3 51.7 37.6 56.4 C37 54.2 36.4 53 35.9 52.9 C35.9 52.9 35.3 54.1 34.4 55.1 C32.6 57 29.9 59.4 29.9 60.3 C29.9 61.3 28.7 59.3 28.5 59.6 C26.6 62.2 27.1 63.2 27.8 65.5 C28.8 68.9 30.5 71 29.1 71.2 C27.7 71.4 24.1 68.8 18.7 64.2 C14.6 59.7 13.7 52.9 15.7 46.5 C17.7 40.1 18.7 39.4 18.7 33.7 C18.7 28 18.6 12.4 16.5 8.8 z M18 10.2 C19.1 13.5 19.7 27 19.7 31.9 C19.7 36.9 19.7 38.1 18 43.7 C16.2 49.3 14.6 55.8 18.2 59.8 C22.9 63.8 24.4 66.1 25.6 66 C26.2 65.1 26.3 64.2 25.4 61.2 C24.8 59.2 26.5 58 28.2 55.7 C28.3 55.4 29.8 57 29.8 56.1 C29.8 55.4 31.8 52.3 33.4 50.7 C34.2 49.8 34.7 48.7 34.7 48.7 C35.1 48.8 37.4 49.4 37.9 51.4 C39.4 47.3 38.6 45 39.1 43.6 C39.5 42.4 40.7 43.6 41.2 44.2 C41.6 44.9 41.5 38.3 41.6 37.8 C42 34.5 41.4 33.7 40.8 31.1 C40.6 29.8 39.9 28.3 39 26.4 C38.9 26.2 38.8 24.5 40.9 25.4 C41.7 25.8 38.5 22.1 37.5 20.7 C36.1 18.6 32.3 16.5 31 15.4 C27.6 12.6 19.5 3.1 15.1 2 C13.1 0.9 11.3 1 12.2 2.5 C13.2 4.3 16.9 6.9 18 10.2 z" opacity="0.15" id="o1" /></g><g id="p1"><g transform="translate(110.3, 77.79996) translate(22, 6)" id="q1"><g id="r1"><path d="M49.6 73.8 C41.1 70.5 33.9 70.5 25.4 73.8 C18.3 76.6 24.1 90.9 24 91 C23.3 92.5 23.8 93.2 24 94.2 C24.3 93.9 25.1 94.2 25.8 94.1 C26.4 93.9 27 93.2 27 93.2 C28.2 95 29.2 95.5 30.9 94.2 C31.1 94 33.9 91.7 34.1 92.5 C34.3 93.6 34.5 94.6 34.6 95.7 C35.2 94.8 35.8 93.8 36.4 92.9 C36.7 93.4 37.1 93.9 37.4 94.4 C37.7 93.9 38.1 93.4 38.4 92.9 C39 93.8 39.6 94.8 40.2 95.7 C40.4 94.6 40.6 93.6 40.7 92.5 C40.8 91.7 43.6 94 43.9 94.2 C45.6 95.4 46.6 94.9 47.8 93.2 C47.8 93.2 48.4 93.9 49 94.1 C49.7 94.3 50.5 93.9 50.8 94.2 C51 93.2 51.5 92.5 50.8 91 C50.9 90.9 56.7 76.6 49.6 73.8 z" id="s1" fill="#FFF" /><path d="M50.4 74.2 C50.2 74.1 49.9 74 49.6 73.9 C41.1 70.6 37.6 72.7 37.5 72.7 C37.5 72.7 33.9 70.6 25.4 73.9 C25.1 74 24.9 74.1 24.6 74.2 C18.3 77.3 15.7 87.2 14.1 88 C14.1 88.1 14.1 88.2 14.2 88.3 L15.3 89.4 C16 91.2 19 91.5 20.1 89.9 C20.3 90.6 20.9 92.8 21 93.5 C22.1 93.2 24 91.2 24 91.2 C24.4 90.7 24 88.6 24.4 88.3 C24.8 89.8 26.2 91.6 26.8 91.5 C27.4 91.4 27.5 90.7 28.2 89.2 C29.3 86.6 30.3 85 32.4 83.1 C34 83.6 35.7 83.9 37.4 83.9 C39.1 83.9 40.8 83.6 42.4 83.1 C44.6 85 45.5 86.7 46.6 89.2 C47.3 90.8 47.4 91.4 48 91.5 C48.6 91.6 50.1 89.8 50.4 88.3 C50.8 88.6 50.5 90.8 50.8 91.2 C50.8 91.2 52.7 93.2 53.8 93.5 C54 92.8 54.6 90.6 54.7 89.9 C55.8 91.6 58.8 91.3 59.5 89.4 L60.6 88.3 C60.6 88.2 60.6 88.1 60.7 88 C59.3 87.1 56.7 77.3 50.4 74.2 z" id="t1" fill="#F9F9F9" /><path d="M74.5 76 C72.1 62 63.5 60.2 61.5 59.3 C62.2 57.8 62.2 56 61.1 54.9 C60.6 56.9 58.2 57.5 56.4 57.7 C53.9 58 51.4 57.4 49 56.8 C49.4 56.4 50 56 50.5 55.5 C48.5 54.7 45.2 53.3 43.4 55.2 C44.5 54.1 46.6 53.1 45.9 51.2 C44.5 52.4 41.9 52.1 40.5 53.2 C41.4 51.2 42.3 49.3 43.1 47.3 C42.4 47.5 41.9 47.8 41.4 48.1 C41.7 47.7 42.4 46.8 42 46.3 C41.6 45.9 40.9 46.2 40.6 46.4 C41.3 44.3 41.6 42.8 42.5 40.5 C41.7 41.3 40.8 42 40 42.8 C43.7 35.6 46.1 31.2 56 27.9 C58.1 27.5 60.3 27.5 62.4 27.7 C62.3 27.2 62 26.7 61.7 26.3 C61.8 26.3 61.9 26.2 62 26.2 C61.4 26.2 60.8 25.4 60.2 25.1 C59.6 24.8 58.9 24.6 58.2 24.6 C59.9 24.3 61.7 24.1 63.4 23.8 C62.4 23 61.4 22.2 60.4 21.4 C61.1 21.3 61.8 21.2 62.5 21.1 C61.6 20.5 61.4 20.9 60.6 20.2 C61.5 20.1 62.1 18.7 63 18.6 C62.7 17.9 61.1 17.3 60.8 16.6 C62.5 16.5 62.2 14.2 62.5 12.9 C61.6 12 60.3 11.3 59 11 C59.7 9.9 60.7 9 61.9 8.6 C59.8 7.9 57.7 7.1 55.5 6.5 C55.6 6.1 55.8 5.8 56.1 5.5 C54.8 5.5 53.5 5.8 52.2 5.9 C52.9 5 53.4 4.3 53.4 4.3 C53 4.3 52.6 4.3 52.1 4.2 C52 4.2 51 4 51 4 C50 4.4 49 4.8 48.1 5.4 C49 3.9 49.9 2.3 50.7 0.8 C46.5 2.8 42.9 5.9 40.1 9.5 C39.2 6.5 37.6 4.6 36.9 0.9 C35.1 3.3 34.2 6.3 34.4 9.3 C31.6 5.7 28.1 2.8 24 0.8 C24.9 2.3 25.8 3.9 26.6 5.4 C25.7 4.8 24.7 4.4 23.7 4 C23.7 4 22.7 4.2 22.6 4.2 C22.2 4.2 21.8 4.3 21.3 4.3 C21.3 4.3 21.8 4.9 22.5 5.9 C21.2 5.8 19.9 5.5 18.6 5.5 C18.9 5.8 19.1 6.1 19.2 6.5 C17 7.1 14.9 8 12.8 8.6 C14.1 9 15.1 9.9 15.7 11 C14.4 11.3 13.2 11.9 12.2 12.9 C12.4 14.2 12.2 16.5 13.9 16.6 C13.6 17.3 12 17.9 11.7 18.6 C12.6 18.7 13.2 20.1 14.1 20.2 C13.2 20.8 13 20.4 12.2 21.1 C12.9 21.2 13.6 21.3 14.3 21.4 C13.3 22.2 12.3 23 11.3 23.8 C13 24.1 14.8 24.3 16.5 24.6 C15.8 24.6 15.1 24.8 14.5 25.1 C13.9 25.4 13.4 26.2 12.7 26.2 C12.8 26.2 12.9 26.3 13 26.3 C12.7 26.7 12.4 27.2 12.3 27.7 C14.4 27.5 16.6 27.5 18.7 27.9 C28.6 31.2 31 35.6 34.7 42.8 C33.9 42 33 41.3 32.2 40.5 C33.1 42.8 33.4 44.3 34.1 46.4 C33.7 46.2 33 45.9 32.7 46.3 C32.3 46.9 33 47.7 33.3 48.1 C32.8 47.8 32.3 47.6 31.6 47.3 C32.5 49.3 33.4 51.2 34.2 53.2 C32.8 52 30.2 52.3 28.8 51.2 C28.1 53.1 30.2 54.1 31.3 55.2 C29.5 53.3 26.2 54.7 24.2 55.5 C24.8 56.1 25.3 56.4 25.7 56.8 C23.3 57.4 20.8 58 18.3 57.7 C16.5 57.5 14.1 56.9 13.6 54.9 C12.4 56 12.5 57.9 13.2 59.3 C11.2 60.1 1.9 62.9 0.2 76 C0.3 75 1.8 74.8 2.6 74.2 C2 76.3 1.5 78.7 1.1 81.4 C2.1 81 3.1 80.7 4.1 80.4 C4.4 83.1 5.3 85.7 6.6 87.8 C6.8 87.2 7 86.7 7.1 86.2 C7.1 87.4 8.3 90.3 10 89.3 C10.2 90 10.7 91.3 11.4 91.7 C12.1 92 13.3 91.7 14 91.8 C14.3 90.7 15 89.6 15.9 88.7 C16 89.9 16 91.1 16.1 92.4 C18.1 92 19.9 90.5 20.7 88.6 C21.2 89.4 21.7 90.1 22.2 90.9 C22.8 88.6 23.4 86.2 23.9 83.9 C24.5 85.9 25.1 87.8 25.7 89.8 C25.9 87.9 25.8 85.9 26.3 84.1 C26.9 82.1 28.3 81.2 30.1 80.5 C33.4 79.1 36.7 76.1 37.1 72.3 C37.5 76.1 40.8 79.1 44.1 80.5 C45.9 81.2 47.2 82.1 47.8 84 C48.4 85.9 48.3 87.9 48.5 89.8 C49.1 87.8 49.7 85.9 50.3 83.9 C50.9 86.2 51.5 88.6 52 90.9 C52.5 90.1 53 89.4 53.5 88.6 C54.3 90.5 56.1 91.9 58.1 92.4 C58.2 91.2 58.2 90 58.3 88.7 C59.2 89.6 59.9 90.6 60.2 91.8 C60.9 91.7 62.1 92 62.8 91.7 C63.5 91.4 64 90 64.2 89.3 C65.9 90.3 67.1 87.5 67.1 86.2 C67.2 86.7 67.4 87.2 67.6 87.8 C68.9 85.7 69.8 83.2 70.1 80.4 C71.1 80.7 72.2 81 73.1 81.4 C72.7 78.7 72.2 76.3 71.6 74.2 C72.8 74.8 73.6 75.4 74.5 76 z" id="u1" fill="#FFF" /><path d="M43.1 26.7 C42.5 27 41.8 27.1 41.3 27.7 C42.4 26.4 44.6 24.2 44.5 23.9 C44.4 23.6 40.4 24.9 40.2 24.3 C40 23.5 43.2 20.5 43.7 19.8 C42.8 20 41.9 20.3 41 20.4 C41.3 18.9 43.7 18.3 44.8 17.3 C45.7 16.4 46.6 14.5 47.5 13.6 C45.5 14.1 43.4 14.5 41.4 15 C41.8 14.6 42.1 14.3 42.5 13.9 C42 13.8 41.6 13.8 41.1 13.7 C41.6 12.7 42.1 11.6 42.6 10.6 C42.6 10.7 40.7 11.1 40.5 11.2 C40.2 11.4 39.9 11.6 39.7 11.8 C39.5 11.4 39.3 11.1 39.1 10.7 C38.3 9.2 37.4 7.7 36.6 6.3 C36 8 35.4 9.7 34.8 11.4 L34.7 11.3 C34.5 11.2 32.6 10.8 32.6 10.7 C33.1 11.7 33.6 12.8 34.1 13.8 C33.6 13.9 33.2 13.9 32.7 14 C33.1 14.4 33.4 14.7 33.8 15.1 C31.8 14.6 29.7 14.2 27.7 13.7 C28.6 14.6 29.5 16.5 30.4 17.4 C31.5 18.5 33.9 19.1 34.2 20.5 C33.3 20.4 32.4 20.1 31.5 19.9 C32 20.5 35.3 23.6 35 24.4 C34.8 25.1 30.9 23.7 30.7 24 C30.5 24.3 32.8 26.6 33.9 27.8 C33.4 27.2 32.7 27 32.1 26.8 C31.2 26.4 29.6 27.9 30.6 29.2 C31.6 30.4 33.5 30.4 34.5 31.6 C33.6 31.9 32.8 32.6 33.9 33.4 C34.9 34.2 35.2 34.3 36 34.8 C36.2 35 36.2 35.3 36 35.5 C35.9 35.5 35.9 35.6 35.9 35.7 L37.8 39.3 L39.7 35.7 C39.7 35.6 39.7 35.6 39.6 35.5 C39.4 35.3 39.4 35 39.6 34.8 C40.4 34.2 40.6 34.2 41.7 33.4 C42.8 32.5 42 31.9 41.1 31.6 C42.1 30.5 44 30.5 45 29.2 C45.6 27.8 44 26.3 43.1 26.7 z" id="v1" fill="#F9F9F9" /><path d="M14 91.8 C13.3 91.7 12.1 92 11.4 91.7 C10.7 91.3 10.2 90 10 89.3 C8.3 90.3 7.1 87.4 7.1 86.2 C7 86.7 6.8 87.2 6.6 87.8 C5.3 85.7 4.4 83.1 4.1 80.4 C3.1 80.7 2.1 81 1.1 81.4 C1.5 78.7 2 76.3 2.6 74.2 C1.8 74.8 0.3 75 0.2 76 C1.9 62.9 11.2 60.1 13.2 59.3 C12.5 57.9 12.4 56 13.6 54.9 C14.1 56.9 16.5 57.5 18.3 57.7 C20.8 58 23.3 57.4 25.7 56.8 C25.3 56.4 24.8 56.1 24.2 55.5 C26.2 54.7 29.5 53.3 31.3 55.2 C30.2 54.1 28.1 53.1 28.8 51.2 C30.2 52.3 32.8 52 34.2 53.2 C33.4 51.2 32.5 49.3 31.6 47.3 C32.3 47.6 32.8 47.8 33.3 48.1 C33 47.7 32.3 46.9 32.7 46.3 C33 45.9 33.7 46.2 34.1 46.4 C33.4 44.3 33.1 42.8 32.2 40.5 C33 41.3 33.9 42 34.7 42.8 C31 35.6 28.6 31.2 18.7 27.9 C16.6 27.5 14.4 27.5 12.3 27.7 C12.4 27.2 12.7 26.7 13 26.3 C12.9 26.3 12.8 26.2 12.7 26.2 C13.4 26.2 13.9 25.4 14.5 25.1 C15.1 24.8 15.8 24.6 16.5 24.6 C14.8 24.3 13 24.1 11.3 23.8 L14.3 21.4 L12.2 21.1 C13 20.4 13.2 20.8 14.1 20.2 C13.2 20.1 12.6 18.7 11.7 18.6 C12 17.9 13.6 17.3 13.9 16.6 C12.2 16.5 12.4 14.2 12.2 12.9 C13.2 11.9 14.4 11.3 15.7 11 C15.1 9.9 14.1 9 12.8 8.6 C14.9 8 17 7.1 19.2 6.5 C19.1 6.1 18.9 5.8 18.6 5.5 C19.9 5.5 21.2 5.8 22.5 5.9 C21.8 4.9 21.3 4.3 21.3 4.3 C21.8 4.3 22.2 4.2 22.6 4.2 C22.7 4.2 23.7 4 23.7 4 C24.7 4.4 25.7 4.8 26.6 5.4 C25.8 3.9 24.9 2.3 24 0.8 C28.1 2.8 31.6 5.7 34.4 9.3 C34.2 6.3 35.1 3.3 36.9 0.9 C37.6 4.6 39.2 6.5 40.1 9.5 C42.9 5.9 46.5 2.8 50.7 0.8 C49.9 2.3 49 3.9 48.1 5.4 C49 4.8 50 4.4 51 4 C51 4 52 4.2 52.1 4.2 C52.6 4.3 53 4.3 53.4 4.3 C53.4 4.3 52.9 5 52.2 5.9 C53.5 5.8 54.8 5.5 56.1 5.5 C55.8 5.8 55.6 6.1 55.5 6.5 C57.7 7.1 59.8 7.9 61.9 8.6 C60.7 9 59.7 9.9 59 11 C60.3 11.3 61.6 12 62.5 12.9 C62.2 14.2 62.5 16.5 60.8 16.6 C61.1 17.3 62.7 17.9 63 18.6 C62.1 18.7 61.5 20.1 60.6 20.2 C61.4 20.9 61.6 20.5 62.5 21.1 L60.4 21.4 L63.4 23.8 C61.7 24.1 59.9 24.3 58.2 24.6 C58.9 24.6 59.6 24.8 60.2 25.1 C60.8 25.4 61.4 26.2 62 26.2 C61.9 26.2 61.8 26.3 61.7 26.3 C62 26.7 62.3 27.2 62.4 27.7 C60.3 27.5 58.1 27.5 56 27.9 C46.1 31.2 43.7 35.6 40 42.8 C40.8 42 41.7 41.3 42.5 40.5 C41.6 42.8 41.3 44.3 40.6 46.4 C40.9 46.2 41.6 45.9 42 46.3 C42.4 46.8 41.7 47.7 41.4 48.1 C41.9 47.8 42.4 47.5 43.1 47.3 C42.3 49.3 41.4 51.2 40.5 53.2 C41.9 52.1 44.5 52.4 45.9 51.2 C46.6 53.1 44.5 54.1 43.4 55.2 C45.2 53.3 48.5 54.7 50.5 55.5 C50 56 49.4 56.4 49 56.8 C51.4 57.4 53.9 58 56.4 57.7 C58.2 57.5 60.6 56.9 61.1 54.9 C62.2 56 62.2 57.8 61.5 59.3 C63.5 60.2 72.1 62 74.5 76 C73.6 75.4 72.8 74.8 71.6 74.2 C72.2 76.3 72.7 78.7 73.1 81.4 C72.2 81 71.1 80.7 70.1 80.4 C69.8 83.2 68.9 85.7 67.6 87.8 C67.4 87.2 67.2 86.7 67.1 86.2 C67.1 87.5 65.9 90.3 64.2 89.3 C64 90 63.5 91.4 62.8 91.7 C62.1 92 60.9 91.7 60.2 91.8 C60 91.1 59.7 90.4 59.3 89.8 C59 90.2 58.7 90.5 58.2 90.7 C58.2 91.3 58.2 91.8 58.1 92.4 C56.8 92.1 55.5 91.3 54.6 90.3 C54.4 91.2 54 92.9 53.8 93.5 C52.9 93.3 51.4 91.8 50.9 91.4 C51.4 92.7 50.9 93.3 50.8 94.2 C50.5 93.9 49.7 94.3 49 94.1 C48.4 93.9 47.8 93.2 47.8 93.2 C46.6 94.9 45.6 95.4 43.9 94.2 C43.6 94 40.8 91.7 40.7 92.5 C40.6 93.6 40.4 94.6 40.2 95.7 C39.6 94.8 39 93.8 38.4 92.9 C38.1 93.4 37.7 93.9 37.4 94.4 C37.1 93.9 36.7 93.4 36.4 92.9 C35.8 93.8 35.2 94.8 34.6 95.7 C34.5 94.6 34.3 93.6 34.1 92.5 C33.9 91.7 31.1 94 30.9 94.2 C29.2 95.5 28.2 95 27 93.2 C27 93.2 26.4 93.9 25.8 94.1 C25.1 94.2 24.3 93.9 24 94.2 C23.8 93.3 23.4 92.6 23.9 91.4 C23.4 91.9 22 93.3 21 93.5 C20.9 92.8 20.3 90.6 20.1 89.9 C19.9 90.2 19.7 90.4 19.4 90.5 C18.5 91.4 17.3 92.1 16.1 92.4 C16 91.7 16 91 16 90.3 C15.7 90.1 15.5 89.8 15.3 89.4 C14.7 90.1 14.2 91 14 91.8 z M14.8 88.3 C15 87.5 15.5 86.7 16.1 86 C16.2 86.4 16.5 86.6 16.8 86.9 C16.8 87.5 16.9 88.2 16.9 88.9 C18.1 88.7 19.2 88 20.1 87.1 C20.4 86.9 20.6 86.7 20.8 86.5 C21 87.2 21.6 89.2 21.7 89.9 C22.6 89.7 24.1 88.7 24.6 88.3 C24.1 89.5 24.4 89.7 24.6 90.6 C24.9 90.3 25.7 90.6 26.3 90.5 C26.9 90.3 28.1 89.7 28.1 89.7 C29.3 91.4 29.6 91.9 31.2 90.6 C31.4 90.4 33.2 88.2 33.4 89 C33.6 90 34.9 90.7 35 91.8 C35.6 91 35.3 90.5 35.9 89.7 C36.2 90.2 37.2 90.4 37.5 90.8 C37.8 90.3 38.4 89.7 38.7 89.3 C39.3 90.1 39 91 39.6 91.8 C39.8 90.8 41.6 90.1 41.7 89 C41.8 88.2 43.5 90.4 43.8 90.6 C45.4 91.7 45.8 91.5 47 89.9 C47 89.9 48.2 90.3 48.7 90.5 C49.4 90.7 50.1 90.3 50.4 90.6 C50.6 89.7 51 89.1 50.5 87.9 C51 88.3 52.4 89.7 53.3 89.9 C53.5 89.3 53.9 87.8 54.1 86.9 C55 87.9 56.2 88.5 57.5 88.9 C57.5 88.4 57.6 87.9 57.6 87.3 C58 87.1 58.4 86.8 58.6 86.4 C59 87 59.3 87.6 59.5 88.2 C60.2 88.1 61.3 88.4 62 88.1 C62.7 87.8 63.2 86.5 63.4 85.8 C65 86.7 66.2 84.1 66.2 82.9 C66.3 83.4 66.5 83.8 66.7 84.4 C68 82.4 68.8 80.1 69.1 77.4 C70.1 77.7 71.1 78 72 78.3 C71.6 75.8 70.6 73.8 70 71.9 C71.2 72.5 71.8 72.7 72.6 73.2 C69 61.3 62.8 60.6 60.9 59.8 C61.6 58.4 62 56.8 60.9 55.8 C60.4 57.7 57.1 58.5 55.4 58.7 C53 59 50.3 58.2 48 57.6 C48.4 57.2 48.4 56.2 48.9 55.7 C47 54.9 44.8 55.3 42.9 55.3 C43.7 54 44.8 53.7 45.2 51.9 C43.8 53 41.1 53.2 39.8 54.2 C40.7 52.3 41.1 50.5 41.9 48.6 C41.2 48.8 41 48.3 40.5 48.6 C40.8 48.2 42 47.5 41.6 47 C41.2 46.6 40.3 46.8 40 47 C40.7 45 40.7 44.3 41.6 42.1 C40.8 42.9 40.1 42.8 39.3 43.6 C42.1 37.7 44.5 30.6 54.1 27.5 C56.1 27.1 58.5 26.7 60.5 26.9 C60.4 26.4 61.2 26.9 60.9 26.5 C60.3 26.5 60 25.7 59.5 25.4 C58.9 25.1 57.1 24.7 56.4 24.7 C57.6 24.1 60 23.5 61.7 23.2 L59.2 21.6 L60.9 21 C60 20.4 60.4 20.7 59.6 20.1 C60.5 20 60.9 18.8 61.8 18.7 C61.5 18 60.1 16.9 59.8 16.3 C61.4 16.2 61.4 14.6 61.7 13.4 C60.8 12.6 58.8 11.9 57.6 11.6 C58.3 10.6 58.6 9.4 59.7 9 C57.7 8.3 56.2 8.5 54.1 7.9 C54.2 7.5 54.7 7.1 55 6.8 C53.7 6.8 52.4 7.2 51.1 7.3 C51.4 6.9 52.2 5.5 51.8 5.1 C51.3 4.6 50.2 5.1 50.2 5.1 C49.2 5.5 47.8 6.2 46.9 6.8 C47.8 5.4 48.1 3.9 48.9 2.5 C44.8 4.4 42.7 7.3 40 10.7 C39.1 7.9 37.6 6.1 36.9 2.6 C35.2 4.9 34.7 8.3 34.9 11.1 C32.2 7.7 29.4 4.2 25.5 2.3 C26.4 3.7 26.7 5.2 27.5 6.6 C26.6 6 25.4 5.7 24.5 5.3 C24.5 5.3 23.8 5 23.7 5 C23.3 5 22.9 4.7 22.4 4.7 C22.4 4.7 23 5.8 23.7 6.8 C22.4 6.7 21.1 6.3 19.8 6.3 C20.1 6.6 20 7.3 20.1 7.7 C18 8.3 16.4 7.9 14.4 8.5 C15.7 8.9 16.1 10.5 16.7 11.5 C15.4 11.8 14 12.9 13 13.9 C13.2 15.1 13.4 16.4 15 16.5 C14.7 17.2 13 17.9 12.7 18.6 C13.6 18.7 14.3 20 15.2 20.1 C14.3 20.7 14.3 20.4 13.6 21 L15.5 21.3 L12.8 23.2 C14.4 23.5 16.1 24.3 17.7 24.6 C17 24.6 15.7 25.1 15.2 25.4 C14.6 25.7 14.1 26.4 13.8 26.5 C13.5 26.9 13.4 26.7 13.3 27.2 C15.3 27 18.6 27.4 20.7 27.8 C30.3 30.9 32.3 37.3 35.8 44.1 C35 43.3 34.1 42.9 33.3 42.1 C34.2 44.3 33.9 45 34.6 47 C34.2 46.8 33.6 46.6 33.3 47 C32.9 47.6 34.3 49.1 34.6 49.4 C34.1 49.1 33.5 48.8 32.8 48.5 C33.7 50.4 34.1 52.2 34.9 54.1 C33.5 53 31.3 52.8 29.9 51.8 C29.9 53.7 31.3 54.2 32.3 55.2 C30.7 55.2 28.1 55.2 26.1 55.6 C26.7 56.2 26.5 56.3 26.9 56.7 C24.6 57.3 22.4 58.6 19.9 58.3 C18.2 58.1 14.5 57.9 14 56 C12.8 57 13 58.3 13.7 59.6 C11.8 60.4 3.7 62.1 1.3 73.3 C1.4 72.4 2.8 72.2 3.6 71.6 C3 73.6 2.5 75.8 2.2 78.4 C3.2 78 4.1 77.7 5.1 77.5 C5.4 80 6.3 82.5 7.5 84.5 C7.8 84 8 83.5 8.1 83 C8.1 84.1 9.3 86.9 10.9 85.9 C11.1 86.6 11.6 87.8 12.3 88.2 C13 88.5 14.1 88.2 14.8 88.3 z" opacity="0.15" id="w1" /></g></g><g transform="translate(87.2, 72.79995) translate(74, 77)" id="x1"><path d="M7.5 1.5 C7.7 3.9 7.8 5.6 7.8 6.6 C7.8 7.6 7.5 9.5 7 12.1 C4.4 14.2 2.6 16 1.7 17.5 C0.4 19.8 -0.1 20.5 0.4 20.8 C0.7 21.1 2.4 18.9 4.9 17.7 C5.9 17.2 7.4 16.9 8.5 16.9 C9.8 16.9 11.5 17.4 12.7 18.1 C14.8 19.3 16 21 16.4 20.9 C16.9 20.7 15.7 17.6 13.2 15.4 C11.6 13.9 10.5 12.9 10 12.2 C9.7 9.6 9.6 7.8 9.6 6.6 C9.6 5.4 9.7 3.6 9.9 1.3 C10.5 0.4 10.1 0 8.7 0 C7.3 0 6.9 0.5 7.5 1.5 z" id="y1" /></g><g transform="translate(169.8, 145.3) scale(0.8) translate(-169.8, -148.3) translate(98.2, 55.59996) translate(60, 89)" id="z1"><g id="a2"><path d="M3.1 13.1 C0.3 8.7 -5.5 -0.7 11.3 -0.7 C28.1 -0.7 20.8 10.4 18.4 13.4 C16 16.4 6 17.5 3.1 13.1 z" id="b2" /><path d="M17.1 4.6 C19.1 6.2 20.3 4.7 20.3 3.9 C20.3 3.1 18.6 1.7 16.9 1.7 C15.2 1.7 12.6 1.1 12.9 2.5 C13.2 3.9 15 3 17.1 4.6 z" id="c2" fill="#FFF" /></g></g><g transform="translate(110.4, 88.49995) translate(28, 31)" id="d2"><g id="e2"><path d="M27.4 14.8 C22.7 14.2 24.5 5.1 19.1 1.5 C15.1 -1.3 8.2 2.3 5.5 4.5 C1.9 7.3 -0.5 10.3 0.1 14.8 C0.7 19.3 4 23.4 8.3 24.9 C11.9 26.1 15.9 25.6 19.5 24.1 C22 23 30.4 15.1 27.4 14.8 z" id="f2" fill="#F9F9F9" /><path d="M5.1 12.4 C5.1 10.8 7.5 10 9.7 8.3 C10.5 7.7 12 6.6 13.8 6.6 C16.3 6.6 18.1 8.3 19.3 10.3 C20.6 12.5 22.2 14.7 21.7 15.7 C21.2 16.9 18.6 17.2 16 18.1 C14.8 18.5 11.4 18.4 9.5 16.8 C7.5 15 5.1 13.3 5.1 12.4 z" id="g2" fill="#AA6F4F" /><path d="M18.6 10.5 C18.4 10.1 18.2 9.8 17.9 9.5 C17.1 8.6 15.9 8.1 14.6 8.1 C13.9 8.1 13.3 8.3 12.7 8.5 C12.6 8.5 12.6 8.6 12.5 8.6 C12.3 8.7 12.1 8.8 11.9 8.9 C10.1 9.9 8.2 10.7 7.9 12.1 C7.7 13.1 9.8 14.7 11.6 16.1 C11.8 16.2 11.9 16.4 12.1 16.5 C12.1 16.5 12.2 16.5 12.2 16.6 C12.9 17 13.7 17.2 14.5 17.2 C14.7 17.2 14.9 17.2 15.1 17.1 L15.2 17.1 C15.5 17.1 15.7 17 16 16.9 C17.9 16.5 20.2 16.2 20.6 15 C21.1 14.2 19.9 12.3 18.6 10.5 z" id="h2" fill="#282421" /><path d="M11.5 12.4 C12 12.8 12.7 12.5 13.3 12.2 C14.5 11.6 17.1 10.9 17 10.4 C16.9 9.9 15.4 9.5 15.2 9.4 C14.5 9.2 13.5 9.2 12.9 9.5 C12.1 10 10.4 11.5 11.5 12.4 z" id="i2" fill="#FFFAF8" /></g></g><g transform="translate(104.2, 88.49995) translate(68, 31)" id="j2"><g id="k2"><path d="M1.6 14.8 C6.3 14.2 5.3 5.1 10.6 1.5 C14.6 -1.3 20.8 2.3 23.5 4.5 C27.1 7.3 29.5 10.3 28.9 14.8 C28.3 19.3 25 23.4 20.7 24.9 C17.1 26.1 13.1 25.6 9.5 24.1 C6.9 23 -1.4 15.1 1.6 14.8 z" id="l2" fill="#F9F9F9" /><path d="M23.9 12.4 C23.9 10.8 21.5 10 19.3 8.3 C18.5 7.7 17 6.6 15.2 6.6 C12.7 6.6 10.9 8.3 9.7 10.3 C8.4 12.5 6.8 14.7 7.3 15.7 C7.8 16.9 10.4 17.2 13 18.1 C14.2 18.5 17.6 18.4 19.5 16.8 C21.5 15 23.9 13.3 23.9 12.4 z" id="m2" fill="#AA6F4F" /><path d="M17.1 9 C16.9 8.9 16.7 8.8 16.5 8.7 C16.4 8.7 16.4 8.6 16.3 8.6 C15.7 8.3 15.1 8.2 14.4 8.2 C13.1 8.2 12 8.7 11.1 9.6 C10.8 9.9 10.5 10.3 10.3 10.7 C9.1 12.4 7.8 14.4 8.2 15.3 C8.7 16.5 10.9 16.8 12.8 17.2 C13.1 17.3 13.3 17.4 13.6 17.4 L13.7 17.4 C13.9 17.4 14.1 17.4 14.3 17.4 C15.2 17.4 15.9 17.2 16.6 16.7 C16.6 16.7 16.7 16.7 16.7 16.6 C16.9 16.5 17.1 16.3 17.2 16.2 C19.1 14.8 21.1 13.2 20.9 12.2 C20.8 10.8 18.9 10.1 17.1 9 z" id="n2" fill="#282421" /><path d="M11.1 12 C11.6 12.4 12.3 12.1 12.9 11.8 C14.1 11.2 16.7 10.5 16.6 10 C16.5 9.5 15 9.1 14.8 9 C14.1 8.8 13.1 8.8 12.5 9.1 C11.6 9.5 9.9 11.1 11.1 12 z" id="o2" fill="#FFFAF8" /></g></g></g></g></g></g><defs><g transform="translate(17.09519, 0.800995) translate(-135.2952, -293.601)" id="p2" fill="#000"><path d="M118.2 302.7 C118.4 307.4 132.5 311.2 149.8 311.2 C167.1 311.2 181.2 307.4 181.4 302.7 C181.4 307.5 181.4 310.1 181.4 310.5 C181.4 315.3 167.3 319.1 149.8 319.1 C132.3 319.1 118.2 315.2 118.2 310.5 L118.2 302.7 L118.2 302.7 z" fill-opacity="0.4528" id="q2" fill="#593001" /><path d="M118.7 301.7 C118.9 306.4 133 310.2 150.3 310.2 C167.6 310.2 181.7 306.4 181.9 301.7 C181.9 306.5 181.9 309.1 181.9 309.5 C181.9 314.3 167.8 318.1 150.3 318.1 C132.8 318.1 118.7 314.2 118.7 309.5 L118.7 301.7 L118.7 301.7 z" id="r2" fill="#DA8113" /><linearGradient x1="46.0545" y1="-118.6926" x2="45.4656" y2="-118.6926" gradientUnits="userSpaceOnUse" gradientTransform="matrix(117.135, 0, 0, 28.4634, -5208.417, 3687.795)" id="s2"><stop offset="0%" stop-color="#D9952A" stop-opacity="1" /><stop offset="6.438854%" stop-color="#CA7519" stop-opacity="1" /><stop offset="30.54%" stop-color="#E3AD3A" stop-opacity="1" /><stop offset="51.05%" stop-color="#FFEC91" stop-opacity="1" /><stop offset="68.8%" stop-color="#E9BD44" stop-opacity="1" /><stop offset="86.24%" stop-color="#FFED6C" stop-opacity="1" /><stop offset="93.87%" stop-color="#F2D353" stop-opacity="1" /><stop offset="100%" stop-color="#F2B947" stop-opacity="1" /></linearGradient><path d="M118.2 301.6 C118.4 306.1 132.7 309.7 150.3 309.7 C167.9 309.7 182.2 306.1 182.4 301.6 C182.4 306.2 182.4 308.7 182.4 309 C182.4 313.5 168 317.2 150.3 317.2 C132.6 317.2 118.2 313.5 118.2 309 L118.2 301.6 L118.2 301.6 z" id="t2" style="fill:url(#s2)" /><linearGradient x1="45.4914" y1="-117.9547" x2="45.9407" y2="-117.5895" gradientUnits="userSpaceOnUse" gradientTransform="matrix(115.425, 0, 0, 29.925, -5125.077, 3826.124)" id="u2"><stop offset="0%" stop-color="#F4E072" stop-opacity="1" /><stop offset="100%" stop-color="#DB9427" stop-opacity="1" /></linearGradient><ellipse cx="150.3" cy="301.5" rx="31.6" ry="8.2" id="v2" style="fill:url(#u2)" /><linearGradient x1="45.4656" y1="-126.0065" x2="46.0545" y2="-126.0065" gradientUnits="userSpaceOnUse" gradientTransform="matrix(117.135, 0, 0, 18.6219, -5208.417, 2651.479)" id="w2"><stop offset="0%" stop-color="#D9952A" stop-opacity="1" /><stop offset="6.438854%" stop-color="#CA7519" stop-opacity="1" /><stop offset="30.54%" stop-color="#E3AD3A" stop-opacity="1" /><stop offset="51.05%" stop-color="#FFEC91" stop-opacity="1" /><stop offset="68.8%" stop-color="#E9BD44" stop-opacity="1" /><stop offset="86.24%" stop-color="#FFED6C" stop-opacity="1" /><stop offset="93.87%" stop-color="#F2D353" stop-opacity="1" /><stop offset="100%" stop-color="#F2B947" stop-opacity="1" /></linearGradient><path d="M119.2 299.9 C119 300.2 118.9 300.6 118.9 301 C118.9 305.5 132.9 309.2 150.3 309.2 C167.7 309.2 181.7 305.5 181.7 301 C181.7 300.6 181.6 300.3 181.4 299.9 C182 300.5 182.4 301.2 182.4 301.9 C182.4 306.4 168 310.1 150.3 310.1 C132.6 310.1 118.2 306.4 118.2 301.9 C118.2 301.3 118.6 300.6 119.2 299.9 z" id="x2" style="fill:url(#w2)" /><linearGradient x1="45.196" y1="-121.5895" x2="45.3746" y2="-120.6758" gradientUnits="userSpaceOnUse" gradientTransform="matrix(101.745, 0, 0, 23.94, -4458.332, 3199.41)" id="y2"><stop offset="0%" stop-color="#F8DD61" stop-opacity="1" /><stop offset="100%" stop-color="#EAA330" stop-opacity="1" /></linearGradient><ellipse cx="150.3" cy="300.8" rx="27.8" ry="6.6" id="z2" style="fill:url(#y2)" /><linearGradient x1="45.5694" y1="-134.267" x2="45.0221" y2="-134.267" gradientUnits="userSpaceOnUse" gradientTransform="matrix(101.745, 0, 0, 13.2525, -4458.332, 2077.223)" id="a3"><stop offset="0%" stop-color="#F4CA2F" stop-opacity="1" /><stop offset="51.38%" stop-color="#BF7737" stop-opacity="1" /><stop offset="100%" stop-color="#E4A929" stop-opacity="1" /></linearGradient><path d="M122.6 301.5 C122.5 301.3 122.4 301 122.4 300.8 C122.4 297.2 134.9 294.2 150.2 294.2 C165.5 294.2 178 297.1 178 300.8 C178 301 177.9 301.3 177.8 301.5 C176.3 298.2 164.5 295.6 150.1 295.6 C135.7 295.6 124.1 298.2 122.6 301.5 z" id="b3" style="fill:url(#a3)" /></g></defs><desc>7DJ7D8KB7GD,3P5DSBpdR8y9ykdURDySTJzeCHS3tpqty+zEWMDT4AAt03zPorBLP8bpO/+5Ae1De151D3adBj2izZNDcp/p9BoshyFwritxbHRqt7ePtxY=</desc></svg>