<?xml version="1.0" encoding="utf-8"?><!DOCTYPE svg PUBLIC "-//W3C//DTD SVG 1.1//EN" "http://www.w3.org/Graphics/SVG/1.1/DTD/svg11.dtd"><svg x="0" y="0" width="340px" height="340px" viewBox="0, 0, 340, 340" preserveAspectRatio="xMidYMid" font-size="0" id="a" enable-background="new 0 0 340 340" xmlns="http://www.w3.org/2000/svg" xmlns:xlink="http://www.w3.org/1999/xlink" xmlns:xml="http://www.w3.org/XML/1998/namespace" version="1.1"><g id="b" fill="#000"><g transform="translate(210.1952, 245.501)" id="c"><ellipse cx="32.5" cy="17.5" rx="37.3" ry="13.2" opacity="0.15" id="d" /><use xlink:href="#e" x="0.86" y="0" /><use xlink:href="#e" x="-1.89" y="-10.7" /><use xlink:href="#e" x="1.2" y="-21.4" /><use xlink:href="#e" x="-1.35" y="-32.1" /><use xlink:href="#e" x="1.86" y="-42.8" /><use xlink:href="#e" x="-0.67" y="-53.5" /></g><g transform="translate(64.99519, 245.001)" id="f"><ellipse cx="32.5" cy="17.5" rx="37.3" ry="13.2" opacity="0.15" id="g" /><use xlink:href="#e" x="0.97" y="0" /><use xlink:href="#e" x="-0.73" y="-10.7" /><use xlink:href="#e" x="1.68" y="-21.4" /><use xlink:href="#e" x="-0.82" y="-32.1" /><use xlink:href="#e" x="1.85" y="-42.8" /></g></g><g id="h" fill="#000"><g id="i"><g transform="translate(0, 0) translate(0, 224)" id="j"><ellipse cx="168.6" cy="53.1" rx="57.8" ry="12.8" fill-opacity="0.25" id="k" /></g><g id="l"><g transform="translate(99.9, 95.89998) translate(0, 107)" id="m"><path d="M40.6 27.9 C34 31.5 24.6 28.4 21.5 21.6 C18.3 14.8 22.1 5.6 29.1 2.9 C26.8 1.1 24 0.4 21.1 0.5 C14.8 0.4 8.4 3.4 4.6 8.5 C0.4 14.2 -0.4 22.4 2.6 28.8 C5 25 5 25 7.5 21.2 C3.5 28.9 6.9 30.6 12.1 37.6 C12.7 35.3 13.2 33.9 14.9 32.7 C14.9 34.9 14.9 36.4 15.5 38.3 C16.2 40.7 16.7 41.1 17.2 42.4 C18.3 42.5 19.3 42.1 20.1 41.4 L19.9 44.6 C20.7 44.8 23.2 44.2 24 44.4 C29.1 44.6 37.1 44.8 40.7 39.1 C44.6 33.4 40.6 27.9 40.6 27.9 z" id="n" fill="#1A2230" /><path d="M40.6 27.9 C40.6 27.9 44.6 33.4 40.7 39.1 C37.1 44.8 29.1 44.6 24 44.4 C23.2 44.2 20.7 44.8 19.9 44.6 L20.1 41.4 C19.3 42.1 18.3 42.5 17.2 42.4 C16.7 41.1 16.2 40.7 15.5 38.3 C14.9 36.4 14.9 34.9 14.9 32.7 C13.2 33.9 12.7 35.3 12.1 37.6 C6.7 30.2 3.4 28.6 7.5 21.2 C5 25 5 25 2.6 28.8 C-0.4 22.4 0.4 14.2 4.6 8.5 C8.4 3.4 14.8 0.4 21.1 0.5 C24 0.4 26.8 1.1 29.1 2.9 C22.1 5.6 18.3 14.8 21.5 21.6 C24.6 28.4 34 31.5 40.6 27.9 z M40.3 29.6 C34.4 32.8 23.7 28 20.9 21.9 C18.1 15.8 20.5 4.9 26.7 2.5 C24.6 0.9 22 1.4 19.4 1.5 C13.7 1.4 9.9 3.6 6.4 8.2 C2.7 13.4 1 18.7 3.6 24.5 C5.8 21.1 6.3 21.6 8.6 18.2 C7.6 23.9 7.9 29.4 11.5 33.8 C12 31.7 13.9 31.5 15.5 30.4 C15.5 32.4 15.8 34.4 16.4 36.1 C17.2 39.1 20.7 40.1 21.4 39.5 L21.6 42.5 C22.3 42.7 25.9 42.3 26.7 42.5 C31.3 42.7 37.2 42.7 40.4 37.5 C41.8 34.9 40.6 31.9 40.3 29.6 z" opacity="0.16" id="o" /></g><g transform="translate(129.58, 273.6799) scale(1.5) translate(-129.58, -273.6799) translate(130.7, 274.7999) scale(0.7) translate(-124.7, -274.7999) translate(105.9, 103.8) translate(11, 124)" id="p"><path d="M5.5 31.6 C4 25 -4.5 8.1 4.9 2.8 C11.3 -0.8 29.6 0.5 37.7 7.3 C45.8 14.2 46.2 40.5 24.1 25 C20 22.1 30.1 37 24.8 45 C21.8 49.6 7.3 50.2 3.5 45.6 C-0.1 41.2 6.3 35.3 5.5 31.6 z" id="q" fill="#1A2230" /><path d="M5.4 33.3 C4.6 33.9 3.7 34.2 2.7 34.2 C4.1 32.7 4.8 30.6 4.6 28.6 C4.5 28.4 4.5 28.2 4.4 27.9 C8.2 26 22.2 17.3 25.8 14.2 C25.8 17.2 29.4 22.5 28.2 26.7 C26.7 31.5 30 36.9 24.8 44.9 C21.8 49.5 7.3 50.1 3.5 45.5 C0.4 41.8 4.6 37 5.4 33.3 z" id="r" fill="#EDEEEF" /><path d="M4.9 2.8 C11.3 -0.8 29.6 0.5 37.7 7.3 C45.3 13.8 46.1 37.3 28 27.4 C27.1 31.8 29.5 36.8 25.4 43.8 C25.2 44.2 25 44.6 24.8 44.9 C21.8 49.5 7.3 50.1 3.5 45.5 C2.9 44.8 2.6 44.1 2.5 43.3 C1.8 40 4.8 36.2 5.4 33.2 C4.6 33.8 3.7 34.1 2.7 34.1 C4.1 32.6 4.8 30.5 4.6 28.5 C4.5 28.3 4.5 28.1 4.4 27.8 C1.8 20.1 -3.1 7.3 4.9 2.8 z M5.5 3.2 C-1.6 7.3 3.9 19 6.2 26.2 C6.3 26.5 6.3 26.7 6.4 26.8 C6.6 28.6 5.9 31 4.6 32.4 C5.5 32.4 7.2 30.9 8 30.3 C7.4 33.1 3.9 37.3 4.5 40.4 C4.6 41.1 4.9 41.8 5.4 42.4 C8.8 46.6 21.7 46.1 24.4 41.8 C24.6 41.5 24.8 41.1 25 40.8 C28.6 34.3 25.9 29.2 26.7 25.2 C42.9 34.2 44.1 14.1 37.4 8.2 C30.2 2 11.2 -0.1 5.5 3.2 z" opacity="0.15" id="s" /></g><g transform="translate(208.92, 273.7799) scale(1.5) translate(-208.92, -273.7799) translate(207.8, 274.9) scale(0.7) translate(-213.8, -274.9) translate(113.3, 103.9) translate(86, 148) scale(-1, 1) translate(-86, -148) translate(64, 123)" id="t"><path d="M5.5 32.6 C4 26 -5.2 7.6 4.9 3.8 C30.4 -6.1 41.7 9.9 43.4 18.9 C45.8 31.2 30.5 28 24 26 C19.2 24.5 30 38 24.7 46 C21.7 50.6 7.2 51.2 3.4 46.6 C-0.1 42.2 6.3 36.3 5.5 32.6 z" id="u" fill="#1A2230" /><path d="M5.5 34.3 C4.7 34.9 3.8 35.2 2.8 35.2 C4.2 33.7 4.9 31.6 4.7 29.6 C4.6 29.4 4.6 29.2 4.5 28.9 C8.3 27 22.3 18.3 25.9 15.2 C25.9 18.2 25.3 21.7 24.1 25.9 C22.6 30.7 30.1 37.9 24.8 45.9 C21.8 50.5 7.3 51.1 3.5 46.5 C0.4 42.8 4.7 38 5.5 34.3 z" id="v" fill="#EDEEEF" /><path d="M4.9 3.8 C11.3 0.2 29.6 1.5 37.7 8.3 C45.3 14.8 46.1 38.3 28 28.4 C27.1 32.8 29.5 37.8 25.4 44.8 C25.2 45.2 25 45.6 24.8 45.9 C21.8 50.5 7.3 51.1 3.5 46.5 C2.9 45.8 2.6 45.1 2.5 44.3 C1.8 41 4.8 37.2 5.4 34.2 C4.6 34.8 3.7 35.1 2.7 35.1 C4.1 33.6 4.8 31.5 4.6 29.5 C4.5 29.3 4.5 29.1 4.4 28.8 C1.8 21.1 -3.1 8.3 4.9 3.8 z M5.5 4.2 C-1.6 8.3 3.9 20 6.2 27.2 C6.3 27.5 6.3 27.7 6.4 27.8 C6.6 29.6 5.9 32 4.6 33.4 C5.5 33.4 7.2 31.9 8 31.3 C7.4 34.1 3.9 38.3 4.5 41.4 C4.6 42.1 4.9 42.8 5.4 43.4 C8.8 47.6 21.7 47.1 24.4 42.8 C24.6 42.5 24.8 42.1 25 41.8 C28.6 35.3 25.9 30.2 26.7 26.2 C42.9 35.2 44.1 15.1 37.4 9.2 C30.2 3 11.2 0.9 5.5 4.2 z" opacity="0.15" id="w" /></g><g transform="translate(96.90001, 90.79997) translate(24, 65)" id="x"><g transform="translate(4, 0)" id="y"><path d="M71 19.7 C73.2 28.5 78.4 30.1 83 37.6 C89.4 45.5 87.3 61.5 83.3 73 C82 76.7 78.7 86.3 76.6 97.4 C74.6 108.4 76.2 117.3 72.2 120.7 C70.8 122.2 64.9 123.5 55.5 123.5 C52.1 123.5 51 122.5 44.7 122.5 C38.4 122.5 36.3 123.6 33.3 123.5 C24.6 123.1 21 123.2 18.1 120.7 C13.8 116.2 15.5 106.2 12.9 95.6 C10.6 86.1 6.5 78.3 5.5 74 C3.5 64.9 0.2 50.2 6.3 39.2 C9.2 32.9 15.3 26.1 16.9 17.6 C18.6 8.1 34.9 5 43.7 4.4 C55 3.6 68.6 10.1 71 19.7 z" id="z" fill="#1A2230" /><path d="M84.2 39.3 C71.9 51.2 58.6 57.1 44.5 57.1 C30.5 57.1 17.9 51 6.6 38.7 C9.6 32.5 15.4 25.9 17 17.6 C18.6 8.1 34.9 5 43.7 4.4 C55 3.6 68.6 10.1 71 19.7 C73.2 28.5 78.4 30.1 83 37.6 C83.4 38.1 83.8 38.7 84.2 39.3 z" id="a1" fill="#424753" /><path d="M71 19.7 C73.2 28.5 78.4 30.1 83 37.6 C89.4 45.5 87.3 61.5 83.3 73 C82 76.7 78.7 86.3 76.6 97.4 C74.6 108.4 76.2 117.3 72.2 120.7 C70.8 122.2 64.9 123.5 55.5 123.5 C52.1 123.5 51 122.5 44.7 122.5 C38.4 122.5 36.3 123.6 33.3 123.5 C24.6 123.1 21 123.2 18.1 120.7 C13.8 116.2 15.5 106.2 12.9 95.6 C10.6 86.1 6.5 78.3 5.5 74 C3.5 64.9 0.2 50.2 6.3 39.2 C9.2 32.9 15.3 26.1 16.9 17.6 C18.6 8.1 34.9 5 43.7 4.4 C55 3.6 68.6 10.1 71 19.7 z M69.6 20.3 C67.4 11 54.5 4.8 43.8 5.5 C35.4 6.1 20 9.1 18.4 18.3 C16.9 26.5 11.1 33 8.4 39.1 C2.6 49.7 5.7 63.8 7.6 72.6 C8.5 76.7 12.4 84.3 14.6 93.4 C17.1 103.6 15.5 113.3 19.5 117.6 C22.2 120 25.7 119.9 33.9 120.3 C36.7 120.4 38.7 119.3 44.7 119.3 C50.7 119.3 51.7 120.3 54.9 120.3 C63.8 120.3 69.4 119 70.7 117.6 C74.5 114.3 73 105.7 74.9 95.1 C76.9 84.4 80 75.1 81.2 71.6 C85 60.5 87 45.1 80.9 37.5 C76.6 30.3 71.7 28.8 69.6 20.3 z" opacity="0.15" id="b1" /></g></g><g fill-rule="evenOdd" transform="translate(126.586, 178.85) scale(1.07, 0.8405449) translate(-129.4, -176.8) translate(102.6, 90.59997) translate(67, 148) scale(-1, 1) translate(-67, -148) translate(27, 86)" id="c1"><g id="d1"><path d="M4.2 48.6 C1.9 35.9 3.3 31.3 7.6 21.8 C17.6 33.1 28.5 36.5 40.5 38.4 C50 37 61.7 33.9 72.4 21.8 C76.7 31.3 78.1 35.9 75.8 48.6 C71.9 70.1 71.8 67 68.8 80.9 C68.1 84 66.7 88.9 65.5 94.1 C64.1 100.2 51.8 95.1 52.8 79.4 C53.1 74.8 53.2 71 52.9 69 C52.1 62.5 47.9 60.6 39.8 56.8 C31.8 60.6 27.6 62.5 26.7 69 C26.4 71 26.5 74.8 26.8 79.4 C27.8 95.1 15.5 100.2 14.1 94.1 C12.9 88.9 11.5 84 10.8 80.9 C8.2 67.1 8 70.1 4.2 48.6 z" id="e1" fill="#B46734" /><path d="M16.1 111.4 C16.7 107.8 16.1 103.2 15.3 98.5 C15 97 14.7 95.6 14.4 94.1 C14.4 94 14.4 94 14.4 93.9 C14.4 91.2 15 88.4 16 85.9 C16.2 85.5 16.7 85.3 17.1 85.5 C17.8 85.8 19.2 86.6 19.9 85.7 C20.7 84.8 21.6 79.4 22.2 76.1 C22.3 75.5 22.9 75.3 23.4 75.6 C24.3 76.2 26.4 76.8 26.9 78.2 C28.5 86.7 33.3 93.3 32.9 101.2 C32 100.2 31.4 99.1 30.4 98.2 C31.4 101.1 31.9 104.3 33 107.2 C31.8 107.2 30.3 106.3 29.3 104.3 C29.3 104.6 29.4 104.9 29.4 105.3 C30.5 108.9 31.7 111.2 31.1 115.1 C30.9 114.9 30.7 114.8 30.5 114.6 C30.9 118.6 31.2 121.2 31.1 121.4 C29.4 124.7 12.6 123.2 10.6 121.5 C10.9 117.7 11.2 114.5 16.1 111.4 z" id="f1" fill="#424753" /><path d="M50.6 104.4 C49.6 106.3 48.1 107.3 46.9 107.3 C48 104.5 48.5 101.2 49.5 98.3 C48.5 99.2 47.9 100.3 47 101.3 C46.6 93.4 51.4 86.8 53 78.4 C53.5 76.9 55.6 76.3 56.5 75.7 C57 75.4 57.6 75.7 57.7 76.2 C58.4 79.5 59.3 84.9 60 85.8 C60.7 86.7 62.2 85.9 62.8 85.6 C63.2 85.4 63.7 85.6 63.9 86 C64.9 88.6 65.4 91.3 65.5 94 C65.5 94.1 65.5 94.1 65.5 94.2 C65.2 95.7 64.9 97.1 64.6 98.6 C63.7 103.3 63.2 107.9 63.8 111.5 C68.7 114.6 69 117.8 69.2 121.9 C67.2 123.5 50.4 125 48.7 121.8 C48.6 121.5 48.9 118.9 49.3 115 C49.1 115.2 48.9 115.3 48.7 115.5 C48 111.6 49.3 109.3 50.4 105.7 C50.5 105.1 50.5 104.8 50.6 104.4 z" id="g1" fill="#424753" /><path d="M14.1 94.1 C12.9 88.9 11.5 84 10.8 80.9 C8.2 67.1 8 70.1 4.2 48.6 C1.9 35.9 3.3 31.3 7.6 21.8 C17.6 33.1 28.5 36.5 40.5 38.4 C50 37 61.7 33.9 72.4 21.8 C76.7 31.3 78.1 35.9 75.8 48.6 C71.9 70.1 71.8 67 68.8 80.9 C68.1 84 66.7 88.9 65.5 94.1 C65.2 95.7 64.9 97.1 64.6 98.6 C63.7 103.3 63.2 107.9 63.8 111.5 C68.7 114.6 69 117.8 69.2 121.9 C67.2 123.5 50.4 125 48.7 121.8 C48.6 121.5 48.9 118.9 49.3 115 C49.1 115.2 48.9 115.3 48.7 115.5 C48 111.6 49.3 109.3 50.4 105.7 C50.5 105.1 50.5 104.8 50.6 104.4 C49.6 106.3 48.1 107.3 46.9 107.3 C48 104.5 48.5 101.2 49.5 98.3 C48.5 99.2 47.9 100.3 47 101.3 C46.6 93.7 51 87.3 52.8 79.4 C53.1 74.8 53.2 71 52.9 69 C52.1 62.5 47.9 60.6 39.8 56.8 C31.8 60.6 27.6 62.5 26.7 69 C26.4 70.8 26.5 73.9 26.7 77.8 C26.8 77.9 26.8 78.1 26.9 78.2 C28.5 86.7 33.3 93.3 32.9 101.2 C32 100.2 31.4 99.1 30.4 98.2 C31.4 101.1 31.9 104.3 33 107.2 C31.8 107.2 30.3 106.3 29.3 104.3 C29.3 104.6 29.4 104.9 29.4 105.3 C30.5 108.9 31.7 111.2 31.1 115.1 C30.9 114.9 30.7 114.8 30.5 114.6 C30.9 118.6 31.2 121.2 31.1 121.4 C29.4 124.7 12.6 123.2 10.6 121.5 C10.9 117.7 11.2 114.5 16.1 111.4 C16.7 107.8 16.1 103.2 15.3 98.5 C15.1 97.4 14.9 96.4 14.7 95.4 C14.4 95 14.2 94.6 14.1 94.1 z M15.9 92.6 C16 93.1 16.2 93.5 16.5 93.8 C16.7 94.8 16.8 95.7 17 96.7 C17.8 101 17.6 109.1 17 112.5 C12.5 115.4 13.1 115.4 12.8 119 C14.7 120.6 27.9 121.5 29.5 118.4 C29.6 118.2 29.5 116.7 29.1 112.9 C29.3 113.1 30.3 113.2 30.5 113.4 C31 109.8 28.8 106.3 27.8 103 C27.8 102.6 29.1 102.4 29.1 102.2 C30.1 104 30.4 105.4 31.5 105.4 C30.4 102.7 30.1 99.2 29.1 96.5 C30.1 97.3 30.5 97.2 31.4 98.1 C31.8 90.8 27.8 87.5 26.3 79.7 C25.2 72.1 24.7 67.8 24.9 66.7 C25.7 60.7 33.1 57.4 40.5 53.9 C48.1 57.4 53.5 62.5 54.2 68.5 C54.5 70.4 54.2 76.8 53.9 81.1 C52.3 88.5 48.1 90.5 48.5 97.6 C49.3 96.6 50.2 97.3 51.1 96.5 C50.2 99.2 49.4 102.4 48.3 105 C49.5 105 50.7 103.3 51.6 101.6 C51.5 101.9 51.5 104.9 51.4 105.4 C50.4 108.8 48.9 109.5 49.5 113.1 C49.7 112.9 50.5 113.6 50.7 113.4 C50.3 117 50.2 119.6 50.3 119.9 C51.9 122.8 64.8 121.2 66.6 119.7 C66.5 115.9 66.6 115.5 62 112.6 C61.5 109.3 62.3 103.9 63.1 99.5 C63.4 98.1 64.3 93.5 64.5 92 C65.7 87.2 66.1 83.2 66.8 80.3 C69.6 67.4 69.6 70.3 73.3 50.3 C75.4 38.5 76.3 33 72.3 24.2 C62.3 35.4 49.3 39.5 40.5 40.8 C29.3 39.1 17.3 34.7 8 24.2 C4 33 4.6 38.5 6.7 50.3 C10.3 70.3 10.4 67.5 12.9 80.3 C13.5 83.2 14.8 87.8 15.9 92.6 z" opacity="0.15" id="h1" /><path d="M2.4 21.6 C3.5 17.3 6.2 13.6 8.9 9.2 C13.9 1.1 34.4 0.4 40 0.4 C45.6 0.4 66.1 1.1 71.1 9.2 C73.8 13.6 76.5 17.3 77.6 21.6 C80.2 28.1 80 35.8 76.9 42.1 C76.2 40.2 75.5 38.3 74.9 36.4 C74.7 36.7 74.5 37 74.3 37.4 C73.7 39.8 72.4 42 71.2 44.2 C69.9 46.6 68.6 49.2 68.7 51.9 C67.9 49.3 67.3 49.4 66.5 46.8 C64.5 54.7 60.5 57.5 57.6 64.1 C57 60.6 56.9 60.3 56.4 57.3 C56.1 57.6 55.9 57.8 55.6 58.1 C53.5 63.5 51.7 67.1 46.9 72.6 C47 71.1 46.7 69.5 46.4 68 C42.8 72.1 40.3 75.6 40.1 77.9 C39.8 75.8 37.6 72.6 34.5 68.8 C34.4 70 34.4 71.2 34.5 72.4 C29.7 66.9 26.8 63.4 24.6 58.1 C24.3 57.8 24 57.5 23.8 57.2 C23.2 60.5 22.9 62.8 22.3 66.3 C19.4 59.7 15.8 54.6 13.8 46.7 C13 49.3 12.4 49.2 11.6 51.8 C11.7 49.1 10.4 46.5 9.1 44.1 C7.9 41.9 6.6 39.7 6 37.3 C5.8 37 5.6 36.6 5.4 36.3 C4.7 38.2 4 40.1 3.4 42 C-0.1 35.8 -0.2 28.1 2.4 21.6 z" id="i1" fill="#424753" /><path d="M23.2 1.7 C30 0.2 37 0.4 40 0.4 C43 0.4 50 0.2 56.8 1.7 C62.7 4.6 60.2 19.3 59 23 C58.9 23.5 58.7 23.9 58.6 24.3 C57.3 32.5 53.1 40 52.4 39.8 C51.5 39.5 50.6 36.3 50.4 34 C50.5 38.8 46.3 46.6 45.8 46.5 C45.4 46.4 44.3 45.8 43.6 44.8 C43.3 45.9 43.1 46.8 42.8 47.7 C41.2 52.2 41.7 55.5 41.7 55.5 C41.7 55.5 38.9 54 37.2 47.7 C37 46.8 36.6 45.9 36.4 44.8 C35.6 45.7 34.5 46.4 34.2 46.5 C33.6 46.6 29.4 38.8 29.6 34 C29.4 36.3 28.5 39.6 27.6 39.8 C26.9 40 22.7 32.4 21.4 24.3 C21.3 23.9 21.1 23.5 21 23 C19.8 19.3 17.3 4.5 23.2 1.7 z" id="j1" fill="#D8D8D8" /><path d="M22.5 2.1 C22.7 1.9 23 1.8 23.2 1.7 C30 0.2 37 0.4 40 0.4 C43 0.4 50 0.2 56.8 1.7 C57 1.8 57.3 1.9 57.5 2.1 C63.3 3.3 68.8 5.5 71.1 9.2 C73.8 13.6 76.5 17.3 77.6 21.6 C80.2 28.1 80 35.8 76.9 42.1 C76.2 40.2 75.5 38.3 74.9 36.4 C74.7 36.7 74.5 37 74.3 37.4 C73.7 39.8 72.4 42 71.2 44.2 C69.9 46.6 68.6 49.2 68.7 51.9 C67.9 49.3 67.3 49.4 66.5 46.8 C64.5 54.7 60.5 57.5 57.6 64.1 C57 60.6 56.9 60.3 56.4 57.3 L55.6 58.1 C53.5 63.5 51.7 67.1 46.9 72.6 C47 71.1 46.7 69.5 46.4 68 C42.8 72.1 40.3 75.6 40.1 77.9 C39.8 75.8 37.6 72.6 34.5 68.8 C34.4 70 34.4 71.2 34.5 72.4 C29.7 66.9 26.8 63.4 24.6 58.1 C24.3 57.8 24 57.5 23.8 57.2 C23.2 60.5 22.9 62.8 22.3 66.3 C19.4 59.7 15.8 54.6 13.8 46.7 C13 49.3 12.4 49.2 11.6 51.8 C11.7 49.1 10.4 46.5 9.1 44.1 C7.9 41.9 6.6 39.7 6 37.3 C5.8 37 5.6 36.6 5.4 36.3 C4.7 38.2 4 40.1 3.4 42 C-0.1 35.8 -0.2 28.1 2.4 21.6 C3.5 17.3 6.2 13.6 8.9 9.2 C11.2 5.5 16.7 3.4 22.5 2.1 z M23.6 2.9 C18.1 4.1 12.9 6.1 10.7 9.6 C8.2 13.7 5 16.5 3.9 20.5 C1.5 26.7 -0.2 32.4 3.1 38.2 C3.7 36.4 5.9 34.1 6.6 32.3 C6.8 32.5 7.8 35.7 8 36 C8.6 38.3 9.6 39.8 10.7 41.8 C12 44.1 12 44.9 11.9 47.5 C12.6 45 13.5 44.9 14.3 42.5 C16.2 49.9 19 56 21.7 62.2 C22.3 58.9 22 55.1 22.6 52 C22.8 52.2 25.2 55.3 25.5 55.6 C27.6 60.6 28.7 63.4 33.2 68.6 C33.1 67.5 33.7 65.8 33.8 64.7 C36.7 68.3 39.8 72.2 40.1 74.2 C40.3 72 43.1 67.1 46.5 63.2 C46.8 64.7 48.3 67.2 48.2 68.6 C52.7 63.4 52.7 60.7 54.7 55.6 L57 53.1 C57.5 55.9 57.6 56.7 58.2 60 C60.9 53.8 64.5 50.6 66.4 43.2 C67.1 45.7 67.7 45.6 68.5 48.1 C68.4 45.5 68.6 43.8 69.9 41.6 C71 39.5 71.7 38.4 72.3 36.1 C72.4 35.7 74.6 32.1 74.8 31.8 C75.4 33.6 76.2 36.4 76.9 38.2 C79.8 32.3 77.7 25.3 75.3 19.2 C74.3 15.2 71.8 13.7 69.3 9.6 C67.1 6.1 61.9 4.1 56.4 2.9 C56.2 2.8 56 2.6 55.8 2.5 C49.4 1.1 42.7 1 39.9 1 C37.1 1 30.6 1.1 24.2 2.5 C24 2.6 23.8 2.8 23.6 2.9 z" opacity="0.15" id="k1" /></g></g></g><g transform="translate(170, 196.9) scale(0.9199586) translate(-170, -196.9)" id="l1"><g transform="translate(110.3, 85.89996) translate(11, 26)" id="m1"><path d="M5.5 77 C0.1 65.8 -0.6 51.2 1 39.1 C3.2 27.2 8.5 25.2 15.8 17.9 C23.1 10.6 25.8 0.2 49.1 0.3 C72.3 0.4 73.5 8.3 79.9 14.4 C86.3 20.4 92.4 23.4 96.2 30.6 C100 37.8 101.2 59.8 96.2 71.2 C92 80.9 80.7 92.2 66.3 92.4 C54.5 93 51.9 93.8 40.2 93.8 C28.5 93.8 11.5 88.2 5.5 77 z" id="n1" fill="#424753" /><path d="M5.5 77 C0.1 65.8 -0.6 51.2 1 39.1 C3.2 27.2 8.5 25.2 15.8 17.9 C23.1 10.6 25.8 0.2 49.1 0.3 C72.3 0.4 73.5 8.3 79.9 14.4 C86.3 20.4 92.4 23.4 96.2 30.6 C100 37.8 101.2 59.8 96.2 71.2 C92 80.9 80.7 92.2 66.3 92.4 C54.5 93 51.9 93.8 40.2 93.8 C28.5 93.8 11.5 88.2 5.5 77 z M7.3 74.8 C13 85.6 29.3 90.9 40.6 90.9 C51.9 90.9 54.3 90.1 65.7 89.6 C79.5 89.4 90.4 78.6 94.4 69.2 C99.2 58.3 98 37.1 94.4 30.2 C90.8 23.3 84.9 20.4 78.7 14.6 C72.6 8.8 71.4 1.2 49.1 1.2 C26.7 1.1 24.1 11.1 17.1 18.1 C10.1 25.1 5 27 2.9 38.4 C1.4 50 2.1 64.1 7.3 74.8 z" opacity="0.15" id="o1" /></g><g transform="translate(143.8, 128.0999) scale(0.9) translate(-138.8, -132.0999) translate(91.7, 86.99996) translate(16, 0)" id="p1"><g transform="translate(31.56164, 28.5) scale(-1, 1) translate(-31.56164, -28.5) translate(9.061636, 0)" id="q1"><path d="M0.2 35 C-0.4 31.9 9.6 27.1 12.5 24 C13.3 23.1 18 19.1 15.2 19.8 C15.6 17.3 18.1 17.5 19.3 16.2 C19.9 15.5 17.3 16.4 18 15.7 C18.5 15.1 22.7 11.7 23.1 11.1 C23.8 10.2 21.7 10.9 22.2 10.2 C26 5.5 25.5 7.2 27.3 5.2 C28.7 3.7 31 1.7 32.1 0.9 C34.5 -0.8 37.7 1.8 38.7 7.9 C38.9 9.5 40.7 13.5 41 15.1 C41.3 16.5 39.9 14.5 40 15.6 C40.1 16.9 42.6 23 41.3 21.8 C40 20.6 41.4 25.2 41.3 26.9 C41.1 31 40 50.1 42.8 41.1 C42.8 43.7 42.4 46.3 41 48.2 C41.6 46.8 43.2 46.6 44.2 45.5 C44.2 49.8 41.6 51.6 40.9 53.6 C40.7 54.2 40.4 54.8 39.7 55.4 C38.5 56.6 34.8 56.5 34.2 55.5 C33.3 53.9 31.7 51.1 29.3 49.2 C26.9 47.3 26.7 43.7 21.3 41.4 C18.8 40.3 15.4 38.3 11.7 37.1 C7.7 35.8 0.5 36.6 0.2 35 z" id="r1" fill="#1A2230" /><path d="M0.2 35 C-0.4 31.9 9.6 27.1 12.5 24 C13.3 23.1 18 19.1 15.2 19.8 C15.6 17.3 18.1 17.5 19.3 16.2 C19.9 15.5 17.3 16.4 18 15.7 C18.5 15.1 22.7 11.7 23.1 11.1 C23.8 10.2 21.7 10.9 22.2 10.2 C26 5.5 25.5 7.2 27.3 5.2 C28.7 3.7 31 1.7 32.1 0.9 C34.5 -0.8 37.7 1.8 38.7 7.9 C38.9 9.5 40.7 13.5 41 15.1 C41.3 16.5 39.9 14.5 40 15.6 C40.1 16.9 42.6 23 41.3 21.8 C40 20.6 41.4 25.2 41.3 26.9 C41.1 31 40 50.1 42.8 41.1 C42.8 43.7 42.4 46.3 41 48.2 C41.6 46.8 43.2 46.6 44.2 45.5 C44.2 49.8 41.6 51.6 40.9 53.6 C40.7 54.2 40.4 54.8 39.7 55.4 C38.5 56.6 34.8 56.5 34.2 55.5 C33.3 53.9 31.7 51.1 29.3 49.2 C26.9 47.3 26.7 43.7 21.3 41.4 C18.8 40.3 15.4 38.3 11.7 37.1 C7.7 35.8 0.5 36.6 0.2 35 z M5 33.3 C5.3 34.7 11.4 34 14.7 35.1 C17.8 36.2 20.7 37.9 22.8 38.9 C27.4 40.9 27.5 44.1 29.6 45.8 C31.6 47.5 33 49.9 33.7 51.3 C34.2 52.2 36.9 53.3 37.9 52.3 C38.5 51.8 42.4 51.2 42.4 47.5 C41.6 48.5 40.1 48.1 39.6 49.3 C40.8 47.6 41.9 46.2 41.9 43.9 C39.5 51.8 40.1 30.7 40.3 27.1 C40.4 25.6 39.2 19.3 40.3 20.4 C41.4 21.5 38.4 15 38.3 13.8 C38.2 12.8 39.9 14.7 39.6 13.5 C39.3 12.1 37.6 10.8 37.4 9.4 C36.6 4 34.5 0.3 32.4 1.8 C31.5 2.5 28.9 4.6 27.7 5.9 C26.2 7.7 26.9 5.4 23.7 9.6 C23.3 10.2 25.5 10.2 24.9 11 C24.6 11.5 20.7 14.9 20.2 15.4 C19.6 16 22 15.3 21.5 15.9 C20.5 17 17.9 17.3 17.6 19.5 C20 18.9 15.8 22.8 15.1 23.6 C13 26.3 4.5 30.5 5 33.3 z" opacity="0.15" id="s1" /><path d="M15.1 33.9 C13 33.2 12.7 33.4 12.9 32.2 C13 31.5 15.6 29.8 17.9 26.4 C18.7 25.2 18.3 27.9 18.9 26.4 C19.7 24.6 20.5 22.2 21 21.3 C21.6 20.3 21.1 23.1 22.1 21.3 C22.3 20.9 23.1 17 23.4 16.4 C24 15.3 24.1 17.7 24.5 16.4 C25 14.5 25.7 13.7 26.8 11.9 C28.2 9.6 29.9 6.6 30.5 6.4 C32.8 5.4 34.5 8.4 35.2 11.9 C35.9 15.4 35.8 17.6 37.1 20 C38.4 22.4 38.7 22.5 38.4 28.5 C38.1 34.5 36.2 35.9 35.2 40.4 C34.2 44.9 34.5 46.3 31.4 44.8 C29.3 43.8 29.5 43.3 32 43.3 C31.2 41.3 29.4 39.8 26.7 39 C22.7 37.8 18.4 36.5 20.6 35.2 C22.1 34.3 22.2 34 21 34.2 C18.5 34.4 16.5 34.3 15.1 33.9 z" id="t1" fill="#424753" /><path d="M21.8 37.4 C22.8 37.1 23.5 36.3 24.1 35.1 C24.7 33.9 24.9 32.8 24.9 31.9 L23.3 33.7 C23.6 31.1 24.3 29.1 25.4 27.6 C26.5 26.1 27.1 24.9 27.1 23.8 C25.6 24.8 24.7 25.5 24.4 26.1 C24 26.9 24.3 22.6 26.2 20.2 C28.1 17.8 30.8 14.3 31 12.2 C31.6 18.3 30.3 21.1 31 22.5 C31.7 23.8 33.2 30.2 31.7 33.3 C30.7 35.4 29.3 37.4 27.5 39.4 C26.6 39.3 25.6 39.1 24.4 38.8 C23.3 38.4 22.4 38 21.8 37.4 z" id="u1" fill="#1A2230" /><path d="M21.8 37.4 C22.8 37.1 23.5 36.3 24.1 35.1 C24.7 33.9 24.9 32.8 24.9 31.9 L23.3 33.7 C23.6 31.1 24.3 29.1 25.4 27.6 C26.5 26.1 27.1 24.9 27.1 23.8 C25.6 24.8 24.7 25.5 24.4 26.1 C24 26.9 24.3 22.6 26.2 20.2 C28.1 17.8 30.8 14.3 31 12.2 C31.6 18.3 30.3 21.1 31 22.5 C31.7 23.8 33.2 30.2 31.7 33.3 C30.7 35.4 29.3 37.4 27.5 39.4 C26.6 39.3 25.6 39.1 24.4 38.8 C23.3 38.4 22.4 38 21.8 37.4 z" id="v1" fill="#665F57" /></g></g><g transform="translate(197.9, 128.0999) scale(0.9) translate(-202.9, -132.0999) translate(96, 86.99996) translate(104, 29) scale(-1, 1) translate(-104, -29) translate(81, 0)" id="w1"><g transform="translate(22.81199, 29) scale(-1, 1) translate(-22.81199, -29) translate(0.31199, 0)" id="x1"><path d="M0.2 35 C-0.4 31.9 8.7 26.6 11.7 23.5 C13.1 22 15.5 19.9 17.8 17.7 C18.6 17 16.6 17 17.3 16.3 C18 15.5 19 15.9 20.3 14.9 C21.6 13.9 23.3 11.6 23.6 11 C23.9 10.5 22 11.5 22.3 11 C24.5 7.6 30.1 2.5 32.2 1 C34.6 -0.7 37.8 1.9 38.8 8 C39 9.4 41.5 15.4 42 17.1 C42.4 18.5 40.3 15.5 40.5 17.1 C40.9 19.9 41.9 24 42 25.9 C42.1 27.3 40.6 23.3 40.5 24.9 C40.5 25.9 41.2 29.8 41.1 31.9 C40.8 38.6 40.7 48.2 42.8 41.3 C42.8 43.9 42.4 46.5 41 48.4 C41.6 47 43.2 46.8 44.2 45.7 C44.2 51.4 39.5 52.8 41 55.8 C42.5 58.8 35.5 56.5 35.5 54.6 C35.5 52.7 31.7 51.3 29.3 49.4 C26.9 47.5 26.7 43.9 21.3 41.6 C18.8 40.5 15.4 38.5 11.7 37.3 C7.7 35.8 0.5 36.6 0.2 35 z" id="y1" fill="#1A2230" /><path d="M0.2 35 C-0.4 31.9 8.7 26.6 11.7 23.5 C13.1 22 15.5 19.9 17.8 17.7 C18.6 17 16.6 17 17.3 16.3 C18 15.5 19 15.9 20.3 14.9 C21.6 13.9 23.3 11.6 23.6 11 C23.9 10.5 22 11.5 22.3 11 C24.5 7.6 30.1 2.5 32.2 1 C34.6 -0.7 37.8 1.9 38.8 8 C39 9.4 41.5 15.4 42 17.1 C42.4 18.5 40.3 15.5 40.5 17.1 C40.9 19.9 41.9 24 42 25.9 C42.1 27.3 40.6 23.3 40.5 24.9 C40.5 25.9 41.2 29.8 41.1 31.9 C40.8 38.6 40.7 48.2 42.8 41.3 C42.8 43.9 42.4 46.5 41 48.4 C41.6 47 43.2 46.8 44.2 45.7 C44.2 51.4 39.5 52.8 41 55.8 C42.5 58.8 35.5 56.5 35.5 54.6 C35.5 52.7 31.7 51.3 29.3 49.4 C26.9 47.5 26.7 43.9 21.3 41.6 C18.8 40.5 15.4 38.5 11.7 37.3 C7.7 35.8 0.5 36.6 0.2 35 z M5.1 32.3 C5.4 33.7 11.1 33.4 14.7 34.8 C18 35.9 20.8 38.2 23.1 39.2 C28 41.3 28.1 43.8 30.3 45.6 C32.5 47.3 35 49.5 35 51.2 C35 52.9 41.3 55 40 52.3 C38.6 49.6 43.3 52.8 43.3 47.7 C42.4 48.7 40.6 48 40.1 49.3 C41.4 47.6 42.1 46.2 42.1 43.9 C40.2 50.1 39.8 36.8 40.1 30.8 C40.2 28.9 39.7 24.4 39.7 23.5 C39.8 22.1 41.1 24.7 41 23.5 C40.9 21.8 40.1 19.3 39.7 16.7 C39.5 15.3 41 16.6 40.6 15.3 C40.1 13.8 38.1 10.4 37.9 9.2 C37 3.7 34.9 0.4 32.7 2 C30.8 3.4 26 6.8 24 9.9 C23.7 10.4 25.5 10.2 25.2 10.6 C24.9 11.1 22.3 14.5 21.2 15.4 C20 16.3 19.1 15.9 18.5 16.7 C17.9 17.3 20.4 17.5 19.7 18.1 C17.6 20.1 15.4 23.2 14.1 24.5 C11.5 27.2 4.6 29.5 5.1 32.3 z" opacity="0.15" id="z1" /><path d="M15.1 33.9 C13 33.2 12.7 33.4 12.9 32.2 C13 31.6 15.1 32 17.3 28.6 C18.1 27.4 18.4 25.1 19.1 23.7 C19.6 22.6 20 23.9 20.6 22.7 C21.1 21.7 21.8 18.2 22 17.8 C22.4 17 22.9 18 23.6 16.9 C24.6 15.2 25.5 14 26.7 12 C28 9.8 29.5 6.9 30.4 6.5 C32.7 5.5 34.4 8.5 35.1 12 C35.8 15.5 35.7 17.7 37 20.1 C38.3 22.5 38.6 22.6 38.3 28.6 C38 34.6 36.1 36 35.1 40.5 C34.1 45 34.4 46.4 31.3 44.9 C29.2 43.9 29.4 43.4 31.9 43.4 C31.1 41.4 29.3 39.9 26.6 39.1 C22.6 37.9 18.3 36.6 20.5 35.3 C22 34.4 22.1 34.1 20.9 34.3 C18.5 34.4 16.5 34.3 15.1 33.9 z" id="a2" fill="#424753" /><path d="M21.8 37.4 C22.8 37.1 23.5 36.3 24.1 35.1 C24.7 33.9 24.9 32.8 24.9 31.9 L23.3 33.7 C23.6 31.1 24.3 29.1 25.4 27.6 C26.5 26.1 27.1 24.9 27.1 23.8 C25.6 24.8 24.7 25.5 24.4 26.1 C24 26.9 24.3 22.6 26.2 20.2 C28.1 17.8 30.8 14.3 31 12.2 C31.6 18.3 30.3 21.1 31 22.5 C31.7 23.8 33.2 30.2 31.7 33.3 C30.7 35.4 29.3 37.4 27.5 39.4 C26.6 39.3 25.6 39.1 24.4 38.8 C23.3 38.4 22.4 38 21.8 37.4 z" id="b2" fill="#1A2230" /><path d="M21.8 37.4 C22.8 37.1 23.5 36.3 24.1 35.1 C24.7 33.9 24.9 32.8 24.9 31.9 L23.3 33.7 C23.6 31.1 24.3 29.1 25.4 27.6 C26.5 26.1 27.1 24.9 27.1 23.8 C25.6 24.8 24.7 25.5 24.4 26.1 C24 26.9 24.3 22.6 26.2 20.2 C28.1 17.8 30.8 14.3 31 12.2 C31.6 18.3 30.3 21.1 31 22.5 C31.7 23.8 33.2 30.2 31.7 33.3 C30.7 35.4 29.3 37.4 27.5 39.4 C26.6 39.3 25.6 39.1 24.4 38.8 C23.3 38.4 22.4 38 21.8 37.4 z" id="c2" fill="#665F57" /></g></g><g id="d2"><g transform="translate(110.4, 87.59995) translate(22, 30)" id="e2"><g id="f2"><path d="M76.7 63.3 C75.1 55.9 72.5 52.3 66.1 47.7 C58.4 42.2 52.2 40.3 47.5 33.1 C46 30.8 44.9 28.2 43.9 20.7 C43.3 16.2 42.8 12.9 42.4 9.2 C42 5.5 41.1 0.8 37.7 0.7 C34.3 0.6 33.6 4.7 33.5 9.9 C33.4 15.2 33 16.9 32.3 22.2 C31.2 29.7 29.2 32.1 27.7 34.5 C23 41.8 17.4 43 9.9 49 C2.7 54.8 1.9 56.9 1 66.1 C1 66 1 66 1 65.9 C-0.2 70.9 3.1 77 3.1 77.1 C9.7 87.7 16.4 91.1 27.6 91.1 C32.7 91.1 38 91.1 50.2 91.1 C60.4 91 73.7 80.8 76 74.2 C76.2 73.7 76.3 73.2 76.5 72.8 C77.2 70.9 77.6 69 77.4 67.2 C77.4 65.8 77.1 64.6 76.7 63.3 z" id="g2" fill="#B46734" /><path d="M76 74.2 C73.7 80.8 60.4 91 50.2 91.1 C38.4 91.1 33 91.1 27.6 91.1 C16.4 91.1 9.7 87.7 3.1 77.1 C3.1 77 -0.2 70.9 1 65.9 C1.9 71 6.8 77.1 12 81.4 C16.7 85.3 27.9 87.3 39.4 87.6 C50.9 87.9 64.7 82.4 70.4 76.3 C73 73.5 76 65.7 76.3 61.9 C77.3 65.5 78.3 67.5 76 74.2 z" fill-opacity="0.1" id="h2" fill="#010101" /><path d="M76.7 63.3 C77.1 64.6 77.4 65.8 77.4 67.2 C77.6 69 77.2 70.9 76.5 72.8 C76.3 73.2 76.2 73.7 76 74.2 C73.7 80.8 60.4 91 50.2 91.1 L27.6 91.1 C16.4 91.1 9.7 87.7 3.1 77.1 C3.1 77.1 2.3 75.5 1.6 73.3 C0.9 71.1 0.4 68.4 1 65.9 C1 65.9 1 65.9 1 66 C1.9 56.9 2.7 54.8 9.9 49 C17.4 43 23 41.8 27.7 34.5 C29.2 32.1 31.2 29.7 32.3 22.2 C33 16.9 33.4 15.2 33.5 9.9 C33.6 4.7 34.3 0.6 37.7 0.7 C41.1 0.8 42 5.5 42.4 9.2 C42.8 12.9 43.3 16.2 43.9 20.7 C44.9 28.2 46 30.8 47.5 33.1 C52.2 40.3 58.4 42.2 66.1 47.7 C72.5 52.3 75.1 55.9 76.7 63.3 L76.7 63.3 z M74.7 66.3 C74.7 65 74.4 63.9 74 62.6 C72.5 55.7 70.1 52.3 64.2 48 C57 42.8 51.3 41.1 46.9 34.3 C45.5 32.1 44.5 29.7 43.6 22.7 C43 18.5 42.6 15.4 42.2 11.9 C41.8 8.4 40.9 1.8 37.7 1.7 C34.5 1.6 33.9 7.6 33.9 12.5 C33.8 17.5 33.4 19.1 32.8 24 C31.8 31 29.9 33.3 28.5 35.5 C24.1 42.3 18.9 43.5 12 49.1 C5.3 54.5 4.6 56.5 3.7 64.9 C3.1 67.2 3.6 69.8 4.3 71.9 C4.9 73.9 5.7 75.4 5.7 75.4 C11.8 85.3 18.1 88.5 28.5 88.5 L49.5 88.5 C59 88.4 71.3 78.8 73.5 72.7 C73.7 72.2 73.8 71.8 74 71.4 C74.5 69.8 74.9 68 74.7 66.3 z" fill-opacity="0.1" id="i2" fill="#010101" /></g></g><g transform="translate(171.1, 184.9999) scale(1) translate(-171.1, -188.9999) translate(112.1, 110.5) translate(39, 69)" id="j2"><g id="k2" fill="#282421"><path d="M39.8 15.5 C39.5 14.9 38.9 15.2 38.5 15.4 C37.7 15.8 36.8 16.2 35.9 16.4 C33.7 16.8 31.7 15.7 30 14.3 C28.2 12.9 26.7 11.2 25 9.7 C24.3 9.1 23.5 8.5 22.7 8 C22.3 7.8 20.8 7.3 20.6 7 C20.5 6.8 20.8 6.2 20.8 6 C20.9 5.4 21.1 4.8 21.2 4.1 C21.4 3.2 21.9 1.9 21.2 1.1 C20 -0.2 18.4 1.2 18.6 2.6 C18.8 3.6 19.1 4.6 19.3 5.6 C19.4 5.8 19.7 6.5 19.6 6.8 C19.5 7.2 18.4 7.4 18 7.6 C16.2 8.6 14.7 10 13.2 11.4 C10.2 14.3 6.6 17.7 2.2 15.4 C1.7 15.2 1 14.6 0.5 15 C-0.3 15.6 0.6 16.2 1.1 16.5 C2.8 17.6 4.8 18.2 6.8 17.9 C11.1 17.2 14.1 13.4 17.5 11.1 C18.2 10.7 19.2 9.9 20.1 9.9 C21 9.9 22.1 10.8 22.8 11.3 C24.7 12.6 26.4 14.3 28.4 15.6 C30.3 17 32.6 18.1 35 17.9 C35.8 18.1 40.6 16.9 39.8 15.5 z" id="l2" /></g></g><g transform="translate(172.1, 166.2) scale(1.2) translate(-172.1, -166.2) translate(111, 97.79996) translate(52, 61)" id="m2"><g id="n2"><path d="M9.1 0 C-3.4 0 0.1 11.7 9.1 14.7 C18.1 11.8 21.6 0 9.1 0 z" id="o2" fill="#282421" /><path d="M10.1 0.9 C7.2 1 4.1 1.6 4.1 2.7 C4.1 3.7 11.7 4.8 14.2 2.8 C15.3 2 12.5 0.8 10.1 0.9 z" id="p2" fill="#FEFEFE" /></g></g><g transform="translate(110.4, 87.59995) translate(30, 41)" id="q2"><g transform="translate(3, 0)" id="r2"><circle cx="8" cy="19.2" r="7.7" id="s2" fill="#FFF" /><circle cx="8" cy="19.2" r="5.8" id="t2" fill="#555452" /><circle cx="6" cy="17.2" r="2.5" id="u2" fill="#FFF" /><circle cx="10.5" cy="20.7" r="1" id="v2" fill="#FFF" /><path d="M3.4 4.4 C1.4 6.9 3 10.2 5.4 9.5 C7.8 8.7 12.9 7.4 13.8 5.9 C14.7 4.4 14 0.1 11.1 0.8 C8.2 1.5 5.4 2 3.4 4.4 z" id="w2" fill="#FFF" /></g></g><g transform="translate(110.4, 87.59995) translate(69, 41)" id="x2"><g transform="translate(2, 0)" id="y2"><circle cx="8.2" cy="19.1" r="7.7" id="z2" fill="#FFF" /><circle cx="8.2" cy="19.1" r="5.8" id="a3" fill="#424242" /><circle cx="6.2" cy="17.1" r="2.5" id="b3" fill="#FFF" /><circle cx="10.7" cy="20.6" r="1" id="c3" fill="#FFF" /><path d="M13.5 4.3 C15.5 6.8 13.9 10.1 11.5 9.4 C9.1 8.6 4 7.3 3.1 5.8 C2.2 4.3 2.9 0 5.8 0.7 C8.7 1.4 11.5 1.9 13.5 4.3 z" id="d3" fill="#FFF" /></g></g></g></g></g><g id="e3"><g transform="matrix(1, 0, 0, 1, 0, -0.02001953)"><g transform="translate(131.617, 194.211) scale(0.8943079, 0.9013787)"><g transform="translate(343, 2217) translate(-2566.7, -2782)" id="f3"><g transform="translate(19, 37)" id="g3"><path d="M2248 622.3 C2231.4 622.3 2217.9 608.9 2217.9 592.2 C2217.9 575.5 2231.3 562.1 2248 562.1 C2264.6 562.1 2278.1 575.5 2278.1 592.2 C2278.1 608.9 2264.6 622.3 2248 622.3 z" id="h3" fill="#2C334D" /><path d="M2248 621.4 C2232 621.4 2219 608.4 2219 592.4 C2219 576.4 2232 563.4 2248 563.4 C2264 563.4 2277 576.4 2277 592.4 C2277 608.3 2264 621.4 2248 621.4 z" id="i3" fill="#272727" /><path d="M2242.8 608.8 C2258.8 608.8 2271.3 604.9 2271.3 588.9 C2271.3 586.3 2259.5 579.5 2259.2 577.2 C2258.6 574.1 2270.6 575 2269 572.7 C2264.9 567.3 2257.8 563.3 2247.9 563.3 C2231.9 563.3 2218.9 576.3 2218.9 592.3 C2218.9 601.6 2223.7 610.2 2229.3 614.1 C2232.6 616.4 2236.1 608.8 2242.8 608.8 z" id="j3" fill="#F2F2F2" /><g transform="translate(0, 1)" id="k3"><g id="l3"><g id="m3"><g id="n3"><path d="M2219.1 594.7 C2223 593 2227.4 591.8 2230.2 589.6 C2233 587.6 2235 584.9 2237 582.1 C2241.4 576.2 2246.2 567.6 2252.6 562.6 C2260 563.7 2265.6 567.2 2269 571.7 C2270.7 573.9 2258.6 573.1 2259.2 576.2 C2259.3 577 2261.1 578.6 2263.3 580.3 C2260.9 580.3 2258.7 579.5 2256.9 577.5 C2255.6 576.1 2254.7 574.9 2254.3 573 C2253.8 570.6 2253.9 568.8 2254.4 566.5 L2258.2 598 C2256.2 600.9 2254 604.2 2251.6 607.3 C2248.9 607.7 2245.8 607.8 2242.8 607.8 C2236.1 607.8 2232.5 615.5 2229.2 613.1 C2224.4 609.7 2220.1 602.6 2219.1 594.7 z" id="o3" fill="#B0BDBF" /></g></g></g><g transform="translate(26, 0)" id="p3"><g id="q3"><g id="r3"><path d="M2226.8 562.6 C2227.7 562.7 2228.6 563 2229.5 563.2 L2229.5 563.3 C2228.2 564.7 2226.9 566.5 2225.1 567.4 C2224.9 567.6 2224.5 567.8 2224.2 567.9 C2221.4 568.7 2223.3 566.2 2224.2 565.2 C2224.8 564.6 2225.3 564 2225.9 563.4 C2226.3 563.2 2226.5 562.9 2226.8 562.6 z" id="s3" /></g></g></g><g id="t3"><g id="u3"><path d="M2242.8 607.8 C2258.8 607.8 2271.3 603.9 2271.3 587.9 C2271.3 585.3 2259.5 578.5 2259.2 576.2 C2258.6 573.1 2270.6 574 2269 571.7 C2264.9 566.3 2257.8 562.3 2247.9 562.3 C2231.9 562.3 2218.9 575.3 2218.9 591.3 C2218.9 600.6 2223.7 609.2 2229.3 613.1 C2232.6 615.4 2236.1 607.8 2242.8 607.8 z" id="v3" fill="none" /></g><g id="w3"><path d="M2219.4 596.3 C2219.3 595.6 2219.2 595 2219.2 594.3 C2221 593.2 2222.4 592.3 2224.2 590.8 L2223.4 592.2 C2222.3 593.6 2220.9 595.3 2219.4 596.3 z" id="x3" /></g></g></g><path d="M2248 619.4 C2233 619.4 2221 607.3 2221 592.4 C2221 577.5 2233.1 565.4 2248 565.4 C2262.9 565.4 2275 577.5 2275 592.4 C2275 607.2 2262.9 619.4 2248 619.4 z" id="y3" fill="#636363" /><path d="M2228.9 575.6 C2227.4 576.9 2226 578.9 2225.1 580.8 C2224.5 582.2 2225.7 583.2 2226.9 582.2 C2228.6 580.8 2228.4 578.5 2229.7 577 C2230.1 576.6 2231.2 575.6 2231.1 575.1 C2231 574.5 2229.7 574.7 2229.3 575" id="z3" fill="#FFF" /><path d="M2267 573.2 C2272 578.2 2275 584.9 2275 592.4 C2275 607.4 2262.9 619.4 2248 619.4 C2241.8 619.4 2236 617.3 2231.4 613.7 C2232.3 612.2 2232.9 610.3 2233.2 608.6 C2234.1 603.5 2233.7 598.2 2234.7 593.2 C2235.6 589 2237.9 585.1 2240.6 581.8 C2242.3 579.9 2243.9 578 2245.9 576.6 C2252.3 572.4 2259.2 575.7 2265.9 573.5 C2266.4 573.3 2266.8 573.3 2267 573.2 z" id="a4" fill="#505050" /><path d="M2270.1 576.7 C2270.9 577.9 2271.6 579.1 2272.3 580.4 C2271.4 580.6 2270.2 580.5 2269.4 580.4 C2265.5 579.8 2262.1 577.8 2258.1 577.9 L2256.1 577 C2259.8 576.2 2263.4 577.8 2267.1 577.5 C2267.9 577.3 2269 577.1 2270.1 576.7 z M2233.4 615 C2233.9 613.6 2234.1 612.2 2234.3 610.8 C2234.5 609 2234.5 607.1 2234.5 605.3 C2234.4 605.2 2234.4 604.9 2234.3 604.8 L2234.5 604.6 C2234.5 604.8 2234.5 605.1 2234.5 605.3 C2235.8 607.9 2237.1 611.9 2236.4 614.8 C2236.3 615.4 2236 615.9 2235.8 616.5 C2235 616.1 2234.2 615.6 2233.4 615 z" id="b4" fill="#636363" /><path d="M2248 612.2 C2237 612.2 2228.1 603.2 2228.1 592.3 C2228.1 581.4 2237.1 572.4 2248 572.4 C2259 572.4 2267.9 581.4 2267.9 592.3 C2267.8 603.2 2259 612.2 2248 612.2 z" id="c4" fill="#E1EAF4" /><path d="M2242.2 575.4 L2242.3 575 C2242.3 575.2 2242.3 575.3 2242.2 575.4 z M2242.2 575.4 C2242.3 575.4 2242.4 575.4 2242.6 575.4 C2243.8 575.4 2242.4 577.5 2242.1 576.3 C2242.1 576.2 2242.1 575.9 2242.1 575.8 C2242.2 575.6 2242.2 575.5 2242.2 575.4 z M2241.2 580 C2241.2 580.4 2242.4 581.7 2243.1 580.4 C2243.6 579.7 2243.2 578.9 2242.5 578.6 C2242 578.5 2241.1 578.9 2241.2 580 z M2254.3 579.9 C2252.1 580.6 2253.4 583.9 2255.5 583.3 C2258.1 582.5 2256.7 579.1 2254.2 579.6 L2254.3 579.9 z M2239.6 578.8 C2237.6 576.2 2239.5 573 2242.8 573.4 C2244.5 573.6 2245.6 575.1 2246.2 576.5 C2246.4 577 2246.3 577.7 2246.7 578.2 C2246.8 578.3 2246.9 578 2247.1 578 C2247.3 577.9 2247.6 577.8 2247.9 577.6 C2248.7 577.5 2249.6 577.8 2250.1 578.3 C2250.9 579 2251.2 580.2 2251 581.2 C2250.5 583.8 2247.7 584.1 2245.6 583.6 C2245.4 583.5 2245.4 584.1 2245.1 584.3 C2244.7 584.7 2244.2 584.9 2243.7 584.9 C2242.3 585 2241.5 584.1 2240.3 583.5 C2240.1 583.4 2239.9 583.7 2239.7 583.9 C2239.2 584 2238.8 583.9 2238.3 583.8 C2236.9 583.1 2236.9 580.9 2237.9 579.9 C2238.5 579.3 2239 578.9 2239.6 578.8 z M2261.1 585.2 C2260.7 585.7 2261.2 586.9 2261.8 586.3 C2262.2 585.9 2261.9 585 2261.3 585.1 L2261.1 585.2 z M2257.6 587 C2256.7 588.3 2258.3 589.2 2259.3 588.1 C2260 587.2 2258.6 585.9 2257.6 586.7 L2257.6 587 z M2261.1 588.4 C2259.3 589.8 2261.5 592.6 2263.1 591.5 C2264.8 590.4 2263.2 587.1 2261.3 588.3 L2261.1 588.4 z M2243.3 587.9 C2242.9 588 2242.6 588.1 2242.2 588.4 C2239.8 589.9 2242.4 592.4 2244.6 591.8 C2245.4 591.6 2246.4 590.7 2246.5 589.8 C2246.6 588.4 2245.6 587 2244.1 587.4 L2243.3 587.9 z M2251 588.5 C2250.4 588.6 2249.8 588.7 2249.5 589.3 C2248.4 591 2250.8 592.7 2252.3 592.2 C2255.2 591.4 2253.2 587.5 2250.5 588.2 L2251 588.5 z M2233.3 590.5 C2232.6 590.9 2231.6 591.2 2231.4 592.2 C2231 593.4 2232.7 594.7 2233.8 594.2 C2236.2 593.4 2235.1 590.5 2233 590.8 L2233.3 590.5 z M2263.3 584.7 C2262.8 584.6 2262.4 584.5 2261.9 584.5 C2261.7 584.5 2261.3 585 2261.2 584.7 C2260.7 583.4 2260.1 580.9 2258.1 581.9 C2257.3 582.4 2256.8 583.1 2256.8 584.1 C2256.8 584.5 2256.9 584.7 2257 585 C2257.1 585.1 2257.5 585.4 2257.2 585.5 C2256.1 586 2255 586.1 2254.8 587.6 C2254.8 588.3 2255.2 589 2255.6 589.5 C2255.7 589.6 2256 589.9 2256.2 590 C2256.3 590 2256.6 590 2256.6 590.1 C2256.4 590.5 2255.9 590.7 2255.7 591 C2254.9 592.4 2255.3 594.2 2256.9 594.8 C2257.5 595 2258.1 594.9 2258.7 594.6 C2258.8 594.6 2259.4 594 2259.4 594 C2261.3 594.4 2262 596.7 2264 595.2 C2266.5 593.4 2266.8 590.4 2265.9 587.7 C2265.5 586.6 2264.7 585.3 2263.3 584.7 z M2236.1 596.7 C2237.2 596.1 2238.5 596.9 2238.8 598 C2239.3 599.2 2238.7 600.7 2237.5 601.2 C2236 602 2233.8 600.4 2234.2 598.7 C2234.4 597.6 2234.4 597 2235.3 596.7 L2236.1 596.7 z M2237.9 605.1 C2237.3 605.2 2236 605.6 2235.8 606.2 C2235.1 607.4 2236.3 609 2237.6 609 C2239.3 609 2240.3 605.8 2238.5 605.1 C2238.5 605.1 2237.9 605.1 2237.9 605.1 z" id="d4" fill="#C9CECC" /><path d="M2254.6 590.3 L2254.2 588.1 L2253 587.4 C2253.2 590.4 2254.6 590.3 2254.6 590.3 z M2247.5 618.4 C2247 617.1 2246.8 616.7 2246.4 615.3 L2245.9 616.7 C2244.6 614.3 2245.2 609.7 2245.4 608.8 C2245.3 607.5 2245.2 606.3 2245.2 604.8 C2245 600.1 2242.3 593.4 2240.8 591.9 C2239.4 590.5 2240.8 587.2 2240.8 587.2 C2240.8 587.2 2243.2 589.8 2243.7 589.1 C2244.2 588.3 2242.2 586.9 2242.9 583.4 C2243.6 579.9 2247.5 578.9 2247.5 578.9 L2251.9 584.7 C2252.6 585.6 2253.6 586.2 2254.7 586.5 C2258.4 587.2 2260.6 591.9 2261.1 593.3 C2261.1 593.3 2265.1 595.4 2268.6 597.7 C2269 597.9 2268.2 600.3 2265.3 600.3 C2265.3 600.3 2262.1 600.9 2261.1 600.3 C2262.6 602 2263 600.9 2264.5 601.1 C2265.6 602.5 2266.9 603.9 2268.6 605.5 C2268.8 605.6 2269.1 605.9 2269.2 606 C2269.2 606 2269.6 606.1 2270.7 606.8 C2265.7 614.2 2257.8 618.5 2248.3 618.5 C2248.2 618.4 2247.7 618.4 2247.5 618.4 z" id="e4" fill="#FFF" /><path d="M2254 591 L2253.6 588.9 L2252.4 588.2 C2252.6 591.1 2254 591 2254 591 z M2247.4 619.4 C2246.9 618.2 2246.5 616.9 2246.1 615.5 L2245.6 616.8 C2244.4 614.4 2244.9 610 2245.1 609 C2245 607.8 2244.9 606.5 2244.9 605.1 C2244.7 600.5 2242.1 594 2240.7 592.6 C2239.3 591.2 2240.7 588 2240.7 588 C2240.7 588 2244.1 590.8 2244.6 590.1 C2245.1 589.3 2242.8 586.9 2243.5 583.6 C2244.2 580.2 2247.2 579.9 2247.2 579.9 L2251.4 585.6 C2252.1 586.5 2253.1 587.1 2254.1 587.4 C2257.6 588.1 2259.8 592.7 2260.3 594 C2260.3 594 2263.2 596.4 2266.7 598.5 C2267.1 598.7 2265.5 600.2 2262.6 600.2 C2262.6 600.2 2259.8 599.8 2258.6 599.3 C2260.1 601 2262 601.4 2263.6 601.7 C2264.7 603 2266 604.4 2267.6 605.9 C2267.8 606 2268 606.3 2268.2 606.4 C2268.2 606.4 2269 606.9 2270.3 607.6 C2265.5 614.8 2257.2 619.5 2247.9 619.5 C2247.8 619.4 2247.7 619.4 2247.4 619.4 z" id="f4" fill="#272727" /></g><g transform="translate(8, 8)" id="g4"><path d="M2219.9 564.8 C2219.9 564.8 2240.1 582.8 2252 585.1 C2264 587.3 2264 580.4 2264 580.4 L2252 580.4 L2230.1 564.8 L2220 558.7 C2219.9 558.7 2219.9 564.8 2219.9 564.8 z" id="h4" fill="#3A3E4E" /><path d="M2253.6 584.6 C2255.1 585.1 2256.7 584.6 2256.9 583.7 C2257.6 581.7 2254.1 580.6 2252.8 580.9 C2250 581.4 2251.8 584.1 2253.6 584.6 C2255.1 585.1 2252.8 584.4 2253.6 584.6 z M2254.8 587.1 C2252.2 587.1 2249.4 585.6 2249 582.7 C2248.6 579.9 2251.4 578.1 2254 578.3 C2256.4 578.4 2259 580.2 2259.3 582.7 C2259.6 585.3 2257.1 587.1 2254.8 587.1 z" id="i4" fill="#C3C2C0" /><path d="M2253.3 585.1 C2255.2 585.7 2257 585.1 2257.4 583.7 C2258.1 581.3 2254.7 579.8 2252.8 580 C2249.5 580.5 2250.6 584.4 2253.3 585.1 C2255.2 585.7 2252.4 584.8 2253.3 585.1 z M2254.8 586.5 C2252.6 586.5 2249.7 585 2249.6 582.4 C2249.5 580.2 2251.7 579 2253.7 579 C2255.7 579.1 2257.9 580.3 2258.5 582.3 C2259.4 584.8 2257 586.5 2254.8 586.5 z" id="j4" fill="#F2F3F4" /><path d="M2241 579.4 C2242.5 580.6 2244.5 580.6 2245.2 579.4 C2246.9 577 2243.4 574.4 2241.3 574.4 C2238.1 574.5 2239.2 578.2 2241 579.4 C2242.5 580.6 2240.1 578.8 2241 579.4 z M2243.3 581.4 C2240.9 581.4 2238.6 579.5 2238.1 577.2 C2237.6 574.6 2240 573.2 2242.2 573.5 C2244.2 573.9 2246.2 575.6 2246.6 577.7 C2247.1 579.9 2245.4 581.4 2243.3 581.4 z" id="k4" fill="#F2F3F4" /><path d="M2241.8 579.3 L2243.2 579.2" stroke="#C3C2C0" stroke-linecap="round" stroke-linejoin="round" id="l4" fill="none" /><path d="M2245.9 579.2 C2246.8 576.8 2243.5 574.5 2241.4 574.8 C2240 575 2239.3 576.3 2239.7 577.7 C2240.1 578.9 2241.1 579.6 2242.2 580.1 C2242.2 579.2 2241 578.8 2240.5 577.9 C2239.8 576.8 2240.3 575.4 2241.7 575.4 C2243.1 575.4 2244.4 576.1 2245.1 577.4 C2245.6 577.9 2245.4 578.9 2245.9 579.2 C2246.4 578 2245.7 579.1 2245.9 579.2 z" id="m4" fill="#C3C2C0" /><path d="M2245.1 574 C2242.7 572.6 2238.9 572.6 2238 575.8 C2237.2 579 2240.2 581.9 2243.2 582.3 C2242.8 582.3 2242.7 582.2 2242.6 581.8 C2242.4 581.2 2242.2 581.4 2241.8 581.2 C2240.9 580.7 2239.9 579.9 2239.3 579 C2238 577.1 2238.6 574.3 2241 573.7 C2243 573.2 2245.1 574.2 2246.4 575.8 C2247 576.6 2247.5 577.6 2247.5 578.6 C2247.5 579 2247.4 579.4 2247.3 579.8 C2247.2 580 2247.1 580.4 2246.7 580.5 C2246.7 580.7 2246.7 581 2246.7 581.2 C2249 578.8 2247.6 575.6 2245.1 574 C2243.9 573.3 2246.2 574.7 2245.1 574 z" id="n4" fill="#C3C2C0" /><path d="M2242.1 580.1 C2240.9 579.5 2239.7 578.7 2239.5 577.3 C2239.3 575.6 2240.7 574.7 2242.2 574.9 C2243.6 575 2244.9 576 2245.5 577.1 C2245.7 577.6 2245.9 578 2245.9 578.5 C2245.9 579.3 2246.1 579.6 2246.4 580.4 C2249.3 577.5 2244.6 573.3 2241.6 573.6 C2239.7 573.7 2238.2 575 2238.4 577 C2238.6 579.1 2240.3 580.9 2242.4 581.5 C2242.3 580.9 2242.1 580.5 2242.1 580.1 C2241.9 580 2242.1 580.5 2242.1 580.1 z" id="o4" fill="#F2F3F4" /><path d="M2246.4 580.5 C2246.3 579.9 2245.9 579 2245.3 578.7 C2245.1 579.5 2244.9 580.4 2245.4 581.2 C2245.9 581.9 2246.7 581.2 2246.4 580.5 C2246.3 580 2246.5 580.7 2246.4 580.5 z" id="p4" fill="#555556" /><path d="M2242.1 580.1 C2242.1 581.2 2242.3 582.2 2243.4 582.2 C2242.9 581.5 2242.9 580.7 2243 579.8 C2242.6 579.8 2242.4 579.6 2242.1 579.6 C2242.1 579.6 2242.1 579.9 2242.1 580.1 z" id="q4" fill="#555556" /><path d="M2247.5 582.7 L2248.9 582.3" stroke="#C3C2C0" stroke-linecap="round" stroke-linejoin="round" id="r4" fill="none" /><path d="M2251.6 581.9 C2252.3 579.2 2247.9 577.7 2245.9 578.7 C2245 579.2 2244.6 580.2 2245 581.3 C2245.6 582.7 2246.8 583 2248.1 583.5 C2248.1 582.6 2246.6 582.4 2246 581.7 C2245.3 580.8 2245.3 579 2246.8 579 C2248.5 579 2251 579.6 2251 581.7 C2251.2 581.5 2251.5 581.7 2251.6 581.9 C2251.7 581.4 2251.3 581.7 2251.6 581.9 z" id="s4" fill="#C3C2C0" /><path d="M2248.5 584.7 C2244.8 584.7 2241.2 579.2 2245.8 577.4 C2247.7 576.7 2249.8 577.3 2251.2 578.6 C2251.9 579.3 2252.5 580.1 2252.7 581.2 C2252.7 581.7 2252.7 582.3 2252.5 582.7 C2252.5 582.8 2252.4 583.1 2252.3 583.2 C2252.4 583.4 2252.5 583.6 2252.5 583.8 C2254.2 582.1 2252.7 579.3 2251.2 578 C2249.5 576.6 2246.8 576.1 2244.8 577.2 C2239.7 579.8 2244.8 586 2249.2 585.5 C2248.6 585.3 2248.8 585.2 2248.5 584.7 C2247.9 584.7 2248.6 585 2248.5 584.7 z" id="t4" fill="#C3C2C0" /><path d="M2252.2 579.5 C2250.7 577 2246.2 575.8 2244.2 578.4 C2242.1 581.2 2245.7 584.5 2248.6 584.5 C2248.5 584.3 2248.4 584 2248.2 583.7 C2248.1 583.1 2247.8 583.3 2247.4 583.1 C2246.7 582.9 2246 582.4 2245.5 581.7 C2244.7 580.6 2244.8 579.1 2246.1 578.5 C2247.5 577.8 2249.3 578.1 2250.5 579.1 C2251.1 579.6 2251.6 580.2 2251.7 580.9 C2251.8 581.1 2251.8 581.5 2251.7 581.7 C2252.1 582.1 2252.3 582.4 2252.5 582.9 C2253.2 582.1 2252.6 580.4 2252.2 579.5 C2251.6 578.6 2252.8 580.6 2252.2 579.5 z" id="u4" fill="#F2F3F4" /><path d="M2252.6 583.7 C2252.4 582.6 2251.8 582.2 2251.1 581.5 C2251.1 581.9 2251.8 584.5 2252.6 583.7 z" id="v4" fill="#555556" /><path d="M2248 583.4 C2248.2 584 2248.4 584.7 2248.8 585.2 C2249.3 585.2 2249.6 585.1 2250.1 585.1 C2249.5 584.5 2249 583.7 2248.9 582.9 C2248.8 582.8 2248 582.9 2247.7 582.8 C2247.9 583.1 2248 583.3 2248 583.4 C2248.2 583.8 2248 583.3 2248 583.4 z" id="w4" fill="#555556" /><path d="M2236.3 575.9 L2238 575.9" stroke="#C3C2C0" stroke-linecap="round" stroke-linejoin="round" id="x4" fill="none" /><path d="M2239.6 570.7 C2237.2 569.3 2233.4 569.3 2232.5 572.5 C2231.7 575.7 2234.7 578.6 2237.7 579 C2237.3 579 2237.2 578.9 2237.1 578.5 C2236.9 578 2236.7 578.1 2236.3 577.9 C2235.4 577.4 2234.4 576.6 2233.8 575.8 C2232.7 574.1 2232.7 571.8 2234.6 570.7 C2236.5 569.8 2238.7 570.6 2240.1 571.9 C2240.9 572.7 2241.6 573.7 2241.8 575 C2241.8 575.5 2241.8 576.1 2241.6 576.5 C2241.2 577.3 2241.1 577.2 2241.1 578 C2243.3 575.6 2242 572.2 2239.6 570.7 z" id="y4" fill="#C3C2C0" /><path d="M2240.4 575.9 C2241.7 573.3 2237.5 570.9 2235.4 571.7 C2232.3 572.8 2235 576.1 2236.7 576.9 C2236.7 576 2235.5 575.6 2235 574.7 C2234.2 573.4 2234.8 572.6 2236.1 572.2 C2237.2 572.2 2238.3 572.6 2239 573.4 C2239.8 574.1 2239.8 575.3 2240.4 575.9 C2240.6 575.4 2240.3 575.8 2240.4 575.9 z" id="z4" fill="#C3C2C0" /><path d="M2236.6 576.8 C2235.5 576.2 2234.5 575.5 2234.1 574.3 C2233.6 573 2234.3 571.8 2235.8 571.6 C2237.3 571.4 2238.7 572.1 2239.6 573.1 C2240.1 573.6 2240.4 574.2 2240.4 574.9 C2240.4 575.3 2240.4 575.6 2240.3 576 C2240.5 576.4 2240.8 576.8 2240.9 577.3 C2244.7 573.5 2236.2 567.5 2233.4 571.9 C2231.9 574.5 2234.5 577.7 2236.9 578.3 C2236.7 577.6 2236.6 577.2 2236.6 576.8 C2236.4 576.7 2236.6 577.2 2236.6 576.8 z" id="a5" fill="#F2F3F4" /><path d="M2236.6 576.8 C2236.6 578 2237 579.2 2238.3 578.9 C2237.9 578.3 2238.1 576.8 2237.7 576.5 C2237.3 576.5 2237 576.3 2236.6 576.3 C2236.6 576.3 2236.6 576.6 2236.6 576.8 z" id="b5" fill="#555556" /><path d="M2241 577.2 C2240.9 576.8 2240.5 575.5 2240.1 575.5 C2240.1 576.4 2240.1 577.4 2240.8 578.1 C2241.3 577.5 2241 577.8 2241 577.2 C2240.9 576.7 2241 577.4 2241 577.2 z" id="c5" fill="#555556" /><path d="M2230.8 572.2 L2232.5 572.2" stroke="#C3C2C0" stroke-linecap="round" stroke-linejoin="round" id="d5" fill="none" /><path d="M2234.2 567 C2231.8 565.6 2228 565.6 2227.1 568.8 C2226.2 572 2229.3 574.9 2232.3 575.3 C2231.9 575.3 2231.8 575.2 2231.7 574.8 C2231.5 574.2 2231.3 574.4 2230.9 574.2 C2230.1 573.8 2229.2 573.1 2228.7 572.4 C2227.4 570.6 2227.3 567.9 2229.5 566.9 C2231.4 566 2233.9 566.9 2235.3 568.3 C2236 569 2236.5 570 2236.6 571 C2236.6 571.5 2236.6 572.1 2236.4 572.5 C2236 573.3 2235.9 573.2 2235.9 574 C2238 571.9 2236.7 568.7 2234.2 567 C2233.1 566.3 2235.3 567.7 2234.2 567 z" id="e5" fill="#C3C2C0" /><path d="M2235 572.2 C2236.2 570 2232.6 567.7 2230.8 567.8 C2229.5 568 2228.6 568.7 2228.8 570.3 C2229 571.9 2230.2 572.5 2231.4 573.1 C2231.4 572.2 2230.2 571.8 2229.7 570.9 C2229 569.8 2229.5 568.4 2230.9 568.4 C2232.3 568.4 2233.6 569.1 2234.3 570.4 C2234.4 570.6 2234.7 571 2234.7 571.3 C2234.6 572 2234.7 571.7 2235 572.2 C2235.2 571.7 2234.8 572 2235 572.2 z" id="f5" fill="#C3C2C0" /><path d="M2231.3 573.2 C2230.1 572.6 2228.9 571.8 2228.7 570.4 C2228.5 569 2229.5 567.9 2230.8 567.9 C2232.1 567.9 2233.4 568.5 2234.2 569.4 C2234.7 569.9 2235 570.5 2235 571.2 C2235 571.6 2235 571.9 2234.9 572.3 C2235.1 572.7 2235.4 573.1 2235.5 573.6 C2238.7 570.4 2233.3 566.2 2230.1 566.9 C2228.2 567.3 2227.3 569 2227.6 570.9 C2228 572.8 2229.7 574.3 2231.5 574.8 C2231.4 574 2231.3 573.5 2231.3 573.2 C2231.1 573 2231.3 573.5 2231.3 573.2 z" id="g5" fill="#F2F3F4" /><path d="M2235.5 573.5 C2235.4 572.9 2235 572 2234.4 571.7 C2234.2 572.9 2234.2 573.6 2234.8 574.6 C2235.2 574.3 2235.9 574.2 2235.5 573.5 C2235.4 573 2235.7 573.8 2235.5 573.5 z" id="h5" fill="#555556" /><path d="M2231.3 573.2 C2231.3 574.4 2231.5 575.3 2232.7 575.3 C2232.2 574.6 2232.2 573.8 2232.3 572.9 C2231.9 572.9 2231.6 572.7 2231.2 572.7 C2231.3 572.7 2231.2 572.9 2231.3 573.2 C2231.3 573.6 2231.2 572.9 2231.3 573.2 z" id="i5" fill="#555556" /><path d="M2225.5 568 L2227.4 568.1" stroke="#C3C2C0" stroke-linecap="round" stroke-linejoin="round" id="j5" fill="none" /><path d="M2226.7 568.6 C2226.8 568.6 2226.8 568.6 2226.9 568.7 C2226.8 568.6 2226.7 568.6 2226.7 568.6 z" id="k5" fill="#C3C2C0" /><path d="M2229.2 563 C2227 561.3 2223.2 561.2 2222 564.3 C2220.7 567.5 2223.8 570.3 2226.6 571.1 C2226.2 571.1 2226.1 571 2226 570.6 C2225.9 570 2225.2 569.9 2224.7 569.7 C2223.8 569.1 2222.9 568.2 2222.5 567.1 C2221.4 564.9 2223.1 562.5 2225.6 562.5 C2227.6 562.5 2229.4 563.7 2230.3 565.3 C2230.7 566 2230.9 567 2230.9 567.8 C2230.9 568.2 2230.8 568.6 2230.5 569 C2230.1 569.7 2230 569.6 2230 570.4 C2232.1 568.3 2231.8 564.8 2229.2 563 C2228.1 562.2 2230.2 563.7 2229.2 563 z" id="l5" fill="#C3C2C0" /><path d="M2229.5 568.2 C2230.7 566 2227.6 563.5 2225.6 563.5 C2224.4 563.5 2223.5 564.2 2223.5 565.4 C2223.4 566.9 2224.6 568.1 2225.9 568.8 C2225.9 568.2 2226 568.3 2225.7 568 C2225.1 567.5 2224.5 566.9 2224.4 566.1 C2224 564.9 2224.8 564.1 2225.9 564.1 C2227.2 564.1 2228.6 565 2229.1 566.2 C2229.3 566.9 2229.2 567.6 2229.5 568.2 C2230.1 567.1 2229.4 568 2229.5 568.2 z" id="m5" fill="#C3C2C0" /><path d="M2225.8 568.8 C2224.7 568.2 2223.9 567.5 2223.6 566.3 C2223.1 564.9 2224.1 563.5 2225.6 563.5 C2227.1 563.5 2228.7 564.6 2229.4 566 C2229.6 566.5 2229.8 567.1 2229.8 567.7 C2229.8 567.9 2229.7 568.2 2229.6 568.4 C2229.8 568.8 2230 569.2 2230.1 569.7 C2233 566.8 2229 562.5 2225.7 562.5 C2223.7 562.5 2222 564.2 2222.4 566.3 C2222.8 568.2 2224.4 569.7 2226.1 570.3 C2225.8 569.7 2225.8 569.3 2225.8 568.8 C2225.5 568.7 2225.8 569.3 2225.8 568.8 z" id="n5" fill="#F2F3F4" /><path d="M2230 569.5 C2229.9 568.9 2229.6 568.2 2229.2 567.7 C2229 568.5 2229 569.4 2229.2 570.2 C2229.5 571.3 2230.4 570.2 2230 569.5 C2229.9 569 2230.1 569.7 2230 569.5 z" id="o5" fill="#555556" /><path d="M2225.8 568.8 C2225.8 570 2225.8 571.2 2227.2 571.2 C2227.1 570.4 2227 569.7 2227.2 568.8 C2226.8 568.8 2226.1 568.6 2225.9 568.3 C2225.8 568.3 2225.8 568.6 2225.8 568.8 z" id="p5" fill="#555556" /><path d="M2221 564 L2221.9 564.1" stroke="#C3C2C0" stroke-linecap="round" stroke-linejoin="round" id="q5" fill="none" /><path d="M2224 560.8 C2222.9 559.7 2220.9 559 2219.8 560.2 C2218.5 561.5 2219.8 564.2 2221.2 564.9 C2221.2 564.7 2221.6 564.1 2221 564.1 C2220.5 563.6 2220.2 563.2 2219.9 562.6 C2219.4 561.3 2220.3 560.2 2221.6 560.2 C2222.7 560.2 2223.6 561 2224.2 561.9 C2224.9 562.8 2224.6 563.8 2225 564.7 C2225.8 563.6 2225.3 562 2224 560.8 C2223.2 560 2225.3 562 2224 560.8 z" id="r5" fill="#C3C2C0" /><path d="M2225.3 559.5 C2223.3 557.5 2219.5 557 2218 559.9 C2216.5 562.7 2219.1 566.4 2221.9 567.2 C2221.5 567.2 2221.4 567.1 2221.4 566.7 C2221.3 566.1 2220.8 566.1 2220.3 565.8 C2219.4 565.1 2218.5 564.1 2218.3 563 C2217.8 560.9 2218.9 558.8 2221.2 558.6 C2223.2 558.5 2225.2 559.9 2226.2 561.7 C2226.7 562.6 2226.9 563.6 2226.6 564.6 C2226.2 565.5 2225.4 565.9 2225.4 567 C2228.4 565.5 2227.3 561.3 2225.3 559.5 C2224.3 558.5 2226.2 560.3 2225.3 559.5 z" id="s5" fill="#C3C2C0" /><path d="M2221.2 564.9 C2218.7 563.6 2218.5 558.9 2222 559.7 C2223.4 560.1 2224.6 561.1 2225.1 562.4 C2225.3 562.9 2225.5 563.5 2225.3 564.1 C2225.2 564.9 2225.2 565.4 2225.4 566.2 C2228.2 563.4 2225.3 558.5 2221.6 558.4 C2219.8 558.4 2218.3 559.6 2218.2 561.3 C2218 563.4 2219.5 565.3 2221.3 566.1 C2221.2 565.7 2221.2 565.3 2221.2 564.9 C2220.9 564.8 2221.2 565.3 2221.2 564.9 z" id="t5" fill="#F2F3F4" /><path d="M2225.4 566.1 C2225.4 565.3 2225 564.8 2224.7 564.1 C2224.7 564.7 2224 565 2224.1 565.9 C2224.3 567.1 2225.4 567.7 2225.4 566.1 z" id="u5" fill="#555556" /><path d="M2221.2 564.9 C2221.1 565.4 2221.1 566.2 2221.3 566.7 C2221.4 567.3 2221.7 566.9 2222 567.3 C2221.8 566.7 2221.8 566 2221.8 565.3 C2221.9 564.5 2221.9 564.8 2221.4 564.4 C2221.3 564.6 2221.2 564.7 2221.2 564.9 C2221 565.4 2221.3 564.7 2221.2 564.9 z" id="v5" fill="#555556" /><path d="M2221.4 557.2 C2218.6 557.2 2216.6 559.7 2217 562.5 C2217.4 564.5 2219.4 567.6 2221.6 567.6 C2222.4 569.5 2224 570.8 2225.8 571.4 C2226 571.4 2226.3 571.5 2226.5 571.5 C2226.7 571.5 2227.6 573.2 2227.8 573.4 C2228.6 574.3 2230.3 575.6 2231.7 575.6 C2232.4 575.6 2232.4 576.1 2232.8 576.5 C2233.4 577.3 2234.2 578 2235 578.5 C2235.8 579 2237.7 579.1 2238.1 579.7 C2239 581.1 2240.7 582.1 2242.3 582.5 C2243.2 582.7 2243.1 583 2244 583.8 C2245.3 585 2247.2 585.8 2249 585.8 C2249.4 585.8 2249.7 585.8 2250.1 585.7 C2250.6 586.2 2251.2 586.5 2251.8 586.9 C2253.1 587.5 2254.4 587.8 2255.8 587.6 C2258.3 587.2 2260.3 585.1 2259.8 582.5 C2259.3 579.8 2256.6 578 2254.1 577.8 C2253.5 577.8 2252.9 577.8 2252.3 577.9 C2251.7 577.3 2251.1 577 2250.4 576.6 C2249.7 576.2 2249 576.1 2248.3 576 C2247.5 575.9 2247.4 575.4 2246.9 574.7 C2246 573.5 2244.8 572.8 2243.4 572.5 C2242.5 572.3 2242.3 572.3 2241.7 571.6 C2241.3 571.1 2240.9 570.7 2240.4 570.3 C2239.5 569.7 2237.3 569.4 2236.9 568.5 C2236.2 567.3 2235 566.4 2233.7 565.9 C2233 565.7 2232.2 565.8 2231.8 565.1 C2231.6 564.5 2231.2 564 2230.9 563.4 C2230.1 562.3 2228.9 561.6 2227.6 561.3 C2226.6 558.9 2224 557.2 2221.4 557.2 z M2221.9 566.6 C2221.9 566.9 2221.9 566.3 2221.9 566.6 C2221.9 566.5 2221.8 566.2 2221.8 566 C2221.8 566.2 2221.8 566.3 2221.9 566.6 C2221.9 566.7 2221.8 566.4 2221.9 566.6 z M2221.4 557.8 C2223.5 557.8 2225.4 559.2 2226.5 561 C2226.9 561.6 2226.7 561.8 2227.4 562.1 C2228.1 562.3 2228.7 562.6 2229.3 563 C2230.4 563.8 2231.2 564.9 2231.5 566.1 C2233.6 566.3 2235.4 567.4 2236.5 569.3 C2237 570 2238.5 570 2239.3 570.5 C2240.2 571 2241.2 571.8 2241.8 572.7 C2242.3 573.4 2243 573.1 2243.8 573.3 C2245 573.7 2246 574.4 2246.9 575.3 C2247.6 576.1 2247.4 576.5 2248.4 576.5 C2249.7 576.6 2250.8 577 2251.8 577.8 C2252.3 578.3 2252.3 578.5 2253 578.4 C2253.5 578.3 2254.1 578.3 2254.5 578.3 C2255.7 578.4 2256.9 578.8 2257.8 579.6 C2259.5 581 2260.3 583.4 2258.9 585.3 C2257.6 587 2255.5 587.2 2253.6 586.8 C2252.5 586.7 2251.6 586.1 2250.8 585.4 C2250.2 584.9 2249.9 585.2 2249.1 585.2 C2246.4 585.2 2244.1 583.9 2243.3 581.3 C2243.4 581.7 2243.4 581.9 2243.7 582.1 C2243.5 582.1 2243.1 582.2 2242.9 582 C2241.1 581.6 2238.2 579.9 2238.2 577.8 C2238.3 578.4 2238.4 578.6 2238.6 579 C2238.4 579 2237.7 579.1 2237.4 578.9 C2236.1 578.7 2234.9 578 2234.1 577 C2233.6 576.5 2233.3 575.9 2232.9 575.3 C2232.7 575.3 2232.2 575.4 2232 575.2 C2230.1 574.8 2227.3 573.1 2227.3 570.8 C2227.3 570.9 2227.3 570.9 2227.3 571 C2226.9 571 2226.6 570.8 2226.2 570.8 C2224.3 570.2 2222.4 568.7 2222.1 566.7 C2222.1 566.8 2222.2 566.9 2222.2 567.1 C2222 567.1 2221.7 566.9 2221.5 566.9 C2217.3 565.3 2215.7 557.8 2221.4 557.8 z" id="w5" fill="#3A3E4B" /><path d="M2297.7 564.8 C2297.7 564.8 2277.5 582.8 2265.6 585.1 C2253.6 587.3 2253.6 580.4 2253.6 580.4 L2265.6 580.4 L2287.5 564.8 L2297.6 558.7 L2297.6 564.8 z" id="x5" fill="#3A3E4E" /><path d="M2264 584.6 C2262.5 585.1 2260.9 584.6 2260.7 583.7 C2260 581.7 2263.5 580.6 2264.8 580.9 C2267.5 581.4 2265.7 584.1 2264 584.6 C2262.4 585.1 2264.8 584.4 2264 584.6 z M2262.8 587.1 C2265.4 587.1 2268.2 585.6 2268.6 582.7 C2269 579.9 2266.2 578.1 2263.6 578.3 C2261.2 578.4 2258.6 580.2 2258.3 582.7 C2257.9 585.3 2260.4 587.1 2262.8 587.1 z" id="y5" fill="#C3C2C0" /><path d="M2264.2 585.1 C2262.3 585.7 2260.5 585.1 2260.1 583.7 C2259.4 581.3 2262.8 579.8 2264.7 580 C2268.1 580.5 2266.9 584.4 2264.2 585.1 C2262.3 585.7 2265.1 584.8 2264.2 585.1 z M2262.8 586.5 C2265 586.5 2267.9 585 2268 582.4 C2268.1 580.2 2265.9 579 2263.9 579 C2261.9 579.1 2259.7 580.3 2259.1 582.3 C2258.2 584.8 2260.5 586.5 2262.8 586.5 z" id="z5" fill="#F2F3F4" /><path d="M2276.6 579.4 C2275.1 580.6 2273.1 580.6 2272.4 579.4 C2270.7 577 2274.2 574.4 2276.3 574.4 C2279.4 574.5 2278.3 578.2 2276.6 579.4 C2275 580.6 2277.4 578.8 2276.6 579.4 z M2274.2 581.4 C2276.6 581.4 2278.9 579.5 2279.4 577.2 C2279.9 574.6 2277.5 573.2 2275.3 573.5 C2273.3 573.9 2271.3 575.6 2270.9 577.7 C2270.4 579.9 2272.1 581.4 2274.2 581.4 z" id="a6" fill="#F2F3F4" /><path d="M2275.7 579.3 L2274.3 579.2" stroke="#C3C2C0" stroke-linecap="round" stroke-linejoin="round" id="b6" fill="none" /><path d="M2271.6 579.2 C2270.7 576.8 2274 574.5 2276.1 574.8 C2277.5 575 2278.2 576.3 2277.8 577.7 C2277.4 578.9 2276.4 579.6 2275.3 580.1 C2275.3 579.2 2276.5 578.8 2277 577.9 C2277.7 576.8 2277.2 575.4 2275.8 575.4 C2274.4 575.4 2273.1 576.1 2272.4 577.4 C2272 577.9 2272.1 578.9 2271.6 579.2 C2271.2 578 2271.9 579.1 2271.6 579.2 z" id="c6" fill="#C3C2C0" /><path d="M2272.4 574 C2274.8 572.6 2278.6 572.6 2279.5 575.8 C2280.3 579 2277.3 581.9 2274.3 582.3 C2274.7 582.3 2274.8 582.2 2274.9 581.8 C2275.1 581.2 2275.3 581.4 2275.7 581.2 C2276.6 580.7 2277.6 579.9 2278.2 579 C2279.5 577.1 2278.9 574.3 2276.5 573.7 C2274.5 573.2 2272.4 574.2 2271.1 575.8 C2270.5 576.6 2270 577.6 2270 578.6 C2270 579 2270.1 579.4 2270.2 579.8 C2270.3 580 2270.4 580.4 2270.8 580.5 C2270.8 580.7 2270.8 581 2270.8 581.2 C2268.6 578.8 2270 575.6 2272.4 574 C2273.6 573.3 2271.4 574.7 2272.4 574 z" id="d6" fill="#C3C2C0" /><path d="M2275.4 580.1 C2276.6 579.5 2277.8 578.7 2278 577.3 C2278.2 575.6 2276.8 574.7 2275.3 574.9 C2273.9 575 2272.6 576 2272 577.1 C2271.8 577.6 2271.6 578 2271.6 578.5 C2271.6 579.3 2271.4 579.6 2271.1 580.4 C2268.2 577.5 2272.9 573.3 2275.9 573.6 C2277.8 573.7 2279.3 575 2279.1 577 C2278.9 579.1 2277.2 580.9 2275.1 581.5 C2275.3 580.9 2275.4 580.5 2275.4 580.1 C2275.6 580 2275.4 580.5 2275.4 580.1 z" id="e6" fill="#F2F3F4" /><path d="M2271.2 580.5 C2271.3 579.9 2271.7 579 2272.3 578.7 C2272.5 579.5 2272.7 580.4 2272.2 581.2 C2271.6 581.9 2270.8 581.2 2271.2 580.5 C2271.3 580 2271 580.7 2271.2 580.5 z" id="f6" fill="#555556" /><path d="M2275.4 580.1 C2275.4 581.2 2275.2 582.2 2274.1 582.2 C2274.6 581.5 2274.6 580.7 2274.5 579.8 C2274.9 579.8 2275.1 579.6 2275.4 579.6 C2275.4 579.6 2275.4 579.9 2275.4 580.1 z" id="g6" fill="#555556" /><path d="M2270.1 582.7 L2268.7 582.3" stroke="#C3C2C0" stroke-linecap="round" stroke-linejoin="round" id="h6" fill="none" /><path d="M2266 581.9 C2265.3 579.2 2269.7 577.7 2271.7 578.7 C2272.6 579.2 2273 580.2 2272.6 581.3 C2272 582.7 2270.8 583 2269.5 583.5 C2269.5 582.6 2271 582.4 2271.6 581.7 C2272.3 580.8 2272.3 579 2270.8 579 C2269.1 579 2266.6 579.6 2266.6 581.7 C2266.3 581.5 2266.1 581.7 2266 581.9 C2265.8 581.4 2266.2 581.7 2266 581.9 z" id="i6" fill="#C3C2C0" /><path d="M2269 584.7 C2272.7 584.7 2276.3 579.2 2271.7 577.4 C2269.8 576.7 2267.7 577.3 2266.3 578.6 C2265.6 579.3 2265 580.1 2264.8 581.2 C2264.8 581.7 2264.8 582.3 2265 582.7 C2265 582.8 2265.1 583.1 2265.2 583.2 C2265.1 583.4 2265 583.6 2265 583.8 C2263.3 582.1 2264.8 579.3 2266.3 578 C2268 576.6 2270.7 576.1 2272.7 577.2 C2277.8 579.8 2272.7 586 2268.3 585.5 C2268.9 585.3 2268.8 585.2 2269 584.7 C2269.6 584.7 2268.9 585 2269 584.7 z" id="j6" fill="#C3C2C0" /><path d="M2265.4 579.5 C2266.9 577 2271.4 575.8 2273.4 578.4 C2275.5 581.2 2271.9 584.5 2269 584.5 C2269.1 584.3 2269.2 584 2269.4 583.7 C2269.5 583.1 2269.8 583.3 2270.2 583.1 C2270.9 582.9 2271.6 582.4 2272.1 581.7 C2272.9 580.6 2272.8 579.1 2271.5 578.5 C2270.1 577.8 2268.3 578.1 2267.1 579.1 C2266.5 579.6 2266 580.2 2265.9 580.9 C2265.8 581.1 2265.8 581.5 2265.9 581.7 C2265.5 582.1 2265.3 582.4 2265.1 582.9 C2264.3 582.1 2264.9 580.4 2265.4 579.5 C2266 578.6 2264.8 580.6 2265.4 579.5 z" id="k6" fill="#F2F3F4" /><path d="M2264.9 583.7 C2265.1 582.6 2265.7 582.2 2266.4 581.5 C2266.4 581.9 2265.7 584.5 2264.9 583.7 z" id="l6" fill="#555556" /><path d="M2269.5 583.4 C2269.3 584 2269.1 584.7 2268.7 585.2 C2268.2 585.2 2267.9 585.1 2267.4 585.1 C2268 584.5 2268.5 583.7 2268.6 582.9 C2268.7 582.8 2269.5 582.9 2269.8 582.8 C2269.6 583.1 2269.5 583.3 2269.5 583.4 C2269.4 583.8 2269.5 583.3 2269.5 583.4 z" id="m6" fill="#555556" /><path d="M2281.3 575.9 L2279.6 575.9" stroke="#C3C2C0" stroke-linecap="round" stroke-linejoin="round" id="n6" fill="none" /><path d="M2278 570.7 C2280.4 569.3 2284.2 569.3 2285.1 572.5 C2285.9 575.7 2282.9 578.6 2279.9 579 C2280.3 579 2280.4 578.9 2280.5 578.5 C2280.7 578 2280.9 578.1 2281.3 577.9 C2282.2 577.4 2283.2 576.6 2283.8 575.8 C2284.9 574.1 2284.9 571.8 2283 570.7 C2281.1 569.8 2278.9 570.6 2277.5 571.9 C2276.7 572.7 2276 573.7 2275.8 575 C2275.8 575.5 2275.8 576.1 2276 576.5 C2276.4 577.3 2276.5 577.2 2276.5 578 C2274.2 575.6 2275.5 572.2 2278 570.7 z" id="o6" fill="#C3C2C0" /><path d="M2277.2 575.9 C2275.9 573.3 2280.1 570.9 2282.2 571.7 C2285.3 572.8 2282.6 576.1 2280.9 576.9 C2280.9 576 2282.1 575.6 2282.6 574.7 C2283.4 573.4 2282.8 572.6 2281.5 572.2 C2280.4 572.2 2279.3 572.6 2278.6 573.4 C2277.8 574.1 2277.8 575.3 2277.2 575.9 C2276.9 575.4 2277.3 575.8 2277.2 575.9 z" id="p6" fill="#C3C2C0" /><path d="M2280.9 576.8 C2282 576.2 2283 575.5 2283.4 574.3 C2283.9 573 2283.2 571.8 2281.7 571.6 C2280.2 571.4 2278.8 572.1 2277.9 573.1 C2277.4 573.6 2277.1 574.2 2277.1 574.9 C2277.1 575.3 2277.1 575.6 2277.2 576 C2277 576.4 2276.7 576.8 2276.6 577.3 C2272.8 573.5 2281.3 567.5 2284.1 571.9 C2285.6 574.5 2283 577.7 2280.6 578.3 C2280.8 577.6 2280.9 577.2 2280.9 576.8 C2281.2 576.7 2280.9 577.2 2280.9 576.8 z" id="q6" fill="#F2F3F4" /><path d="M2280.9 576.8 C2280.9 578 2280.5 579.2 2279.2 578.9 C2279.6 578.3 2279.4 576.8 2279.8 576.5 C2280.2 576.5 2280.5 576.3 2280.9 576.3 C2280.9 576.3 2280.9 576.6 2280.9 576.8 z" id="r6" fill="#555556" /><path d="M2276.6 577.2 C2276.7 576.8 2277.1 575.5 2277.5 575.5 C2277.5 576.4 2277.5 577.4 2276.8 578.1 C2276.2 577.5 2276.6 577.8 2276.6 577.2 C2276.7 576.7 2276.6 577.4 2276.6 577.2 z" id="s6" fill="#555556" /><path d="M2286.7 572.2 L2285 572.2" stroke="#C3C2C0" stroke-linecap="round" stroke-linejoin="round" id="t6" fill="none" /><path d="M2283.3 567 C2285.7 565.6 2289.5 565.6 2290.4 568.8 C2291.3 572 2288.2 574.9 2285.2 575.3 C2285.6 575.3 2285.7 575.2 2285.8 574.8 C2286 574.2 2286.2 574.4 2286.6 574.2 C2287.4 573.8 2288.3 573.1 2288.8 572.4 C2290.1 570.6 2290.2 567.9 2288 566.9 C2286.1 566 2283.6 566.9 2282.2 568.3 C2281.5 569 2281 570 2280.9 571 C2280.9 571.5 2280.9 572.1 2281.1 572.5 C2281.5 573.3 2281.6 573.2 2281.6 574 C2279.5 571.9 2280.8 568.7 2283.3 567 C2284.5 566.3 2282.2 567.7 2283.3 567 z" id="u6" fill="#C3C2C0" /><path d="M2282.6 572.2 C2281.4 570 2285 567.7 2286.8 567.8 C2288.1 568 2289 568.7 2288.8 570.3 C2288.6 571.8 2287.4 572.5 2286.2 573.1 C2286.2 572.2 2287.4 571.8 2287.9 570.9 C2288.6 569.8 2288.1 568.4 2286.7 568.4 C2285.3 568.4 2284 569.1 2283.3 570.4 C2283.2 570.6 2282.9 571 2282.9 571.3 C2282.9 572 2282.8 571.7 2282.6 572.2 C2282.4 571.7 2282.7 572 2282.6 572.2 z" id="v6" fill="#C3C2C0" /><path d="M2286.2 573.2 C2287.4 572.6 2288.6 571.8 2288.8 570.4 C2289 569 2288 567.9 2286.7 567.9 C2285.4 567.9 2284.1 568.5 2283.3 569.4 C2282.8 569.9 2282.5 570.5 2282.5 571.2 C2282.5 571.6 2282.5 571.9 2282.6 572.3 C2282.4 572.7 2282.1 573.1 2282 573.6 C2278.8 570.4 2284.2 566.2 2287.4 566.9 C2289.3 567.3 2290.2 569 2289.9 570.9 C2289.5 572.8 2287.8 574.3 2286 574.8 C2286.1 574 2286.2 573.5 2286.2 573.2 C2286.5 573 2286.2 573.5 2286.2 573.2 z" id="w6" fill="#F2F3F4" /><path d="M2282 573.5 C2282.1 572.9 2282.5 572 2283.1 571.7 C2283.3 572.9 2283.3 573.6 2282.7 574.6 C2282.4 574.3 2281.6 574.2 2282 573.5 C2282.1 573 2281.9 573.8 2282 573.5 z" id="x6" fill="#555556" /><path d="M2286.2 573.2 C2286.2 574.4 2286 575.3 2284.8 575.3 C2285.3 574.6 2285.3 573.8 2285.2 572.9 C2285.6 572.9 2285.9 572.7 2286.3 572.7 C2286.2 572.7 2286.4 572.9 2286.2 573.2 C2286.2 573.6 2286.4 572.9 2286.2 573.2 z" id="y6" fill="#555556" /><path d="M2292 568 L2290.1 568.1" stroke="#C3C2C0" stroke-linecap="round" stroke-linejoin="round" id="z6" fill="none" /><path d="M2290.8 568.6 C2290.7 568.6 2290.7 568.6 2290.6 568.7 C2290.7 568.6 2290.8 568.6 2290.8 568.6 z" id="a7" fill="#C3C2C0" /><path d="M2288.4 563 C2290.6 561.3 2294.4 561.2 2295.6 564.3 C2296.9 567.5 2293.8 570.3 2291 571.1 C2291.4 571.1 2291.5 571 2291.6 570.6 C2291.7 570 2292.4 569.9 2292.9 569.7 C2293.8 569.1 2294.7 568.2 2295.1 567.1 C2296.2 564.9 2294.5 562.5 2292 562.5 C2290 562.5 2288.2 563.7 2287.3 565.3 C2286.9 566 2286.7 567 2286.7 567.8 C2286.7 568.2 2286.8 568.6 2287.1 569 C2287.5 569.7 2287.6 569.6 2287.6 570.4 C2285.4 568.3 2285.8 564.8 2288.4 563 C2289.4 562.2 2287.3 563.7 2288.4 563 z" id="b7" fill="#C3C2C0" /><path d="M2288 568.2 C2286.8 566 2289.9 563.5 2291.9 563.5 C2293.1 563.5 2294 564.2 2294 565.4 C2294.1 566.9 2292.9 568.1 2291.6 568.8 C2291.6 568.2 2291.5 568.3 2291.8 568 C2292.4 567.5 2293 566.9 2293.1 566.1 C2293.5 564.9 2292.7 564.1 2291.6 564.1 C2290.3 564.1 2288.9 565 2288.4 566.2 C2288.2 566.9 2288.4 567.6 2288 568.2 C2287.4 567.1 2288.1 568 2288 568.2 z" id="c7" fill="#C3C2C0" /><path d="M2291.8 568.8 C2292.9 568.2 2293.7 567.5 2294 566.3 C2294.5 564.9 2293.5 563.5 2292 563.5 C2290.5 563.5 2288.9 564.6 2288.2 566 C2288 566.5 2287.8 567.1 2287.8 567.7 C2287.8 567.9 2287.9 568.2 2288 568.4 C2287.8 568.8 2287.6 569.2 2287.5 569.7 C2284.6 566.8 2288.6 562.5 2291.9 562.5 C2293.9 562.5 2295.6 564.2 2295.2 566.3 C2294.8 568.2 2293.2 569.7 2291.5 570.3 C2291.8 569.7 2291.8 569.3 2291.8 568.8 C2292 568.7 2291.8 569.3 2291.8 568.8 z" id="d7" fill="#F2F3F4" /><path d="M2287.5 569.5 C2287.6 568.9 2287.9 568.2 2288.3 567.7 C2288.5 568.5 2288.5 569.4 2288.3 570.2 C2288 571.3 2287.2 570.2 2287.5 569.5 C2287.7 569 2287.4 569.7 2287.5 569.5 z" id="e7" fill="#555556" /><path d="M2291.8 568.8 C2291.8 570 2291.8 571.2 2290.4 571.2 C2290.5 570.4 2290.6 569.7 2290.4 568.8 C2290.8 568.8 2291.5 568.6 2291.7 568.3 C2291.8 568.3 2291.8 568.6 2291.8 568.8 z" id="f7" fill="#555556" /><path d="M2296.5 564 L2295.6 564.1" stroke="#C3C2C0" stroke-linecap="round" stroke-linejoin="round" id="g7" fill="none" /><path d="M2293.6 560.8 C2294.7 559.7 2296.7 559 2297.8 560.2 C2299.1 561.5 2297.8 564.2 2296.4 564.9 C2296.4 564.7 2296 564.1 2296.6 564.1 C2297.1 563.6 2297.4 563.2 2297.7 562.6 C2298.2 561.3 2297.3 560.2 2296 560.2 C2294.9 560.2 2294 561 2293.4 561.9 C2292.7 562.8 2293 563.8 2292.6 564.7 C2291.8 563.6 2292.3 562 2293.6 560.8 C2294.4 560 2292.3 562 2293.6 560.8 z" id="h7" fill="#C3C2C0" /><path d="M2292.3 559.5 C2294.3 557.5 2298.1 557 2299.6 559.9 C2301.1 562.7 2298.5 566.4 2295.7 567.2 C2296.1 567.2 2296.2 567.1 2296.2 566.7 C2296.3 566.1 2296.8 566.1 2297.3 565.8 C2298.2 565.1 2299.1 564.1 2299.3 563 C2299.8 560.9 2298.7 558.8 2296.4 558.6 C2294.4 558.5 2292.4 559.9 2291.4 561.7 C2290.9 562.6 2290.7 563.6 2291 564.6 C2291.4 565.5 2292.2 565.9 2292.2 567 C2289.2 565.5 2290.3 561.3 2292.3 559.5 C2293.2 558.5 2291.3 560.3 2292.3 559.5 z" id="i7" fill="#C3C2C0" /><path d="M2296.4 564.9 C2298.9 563.6 2299.1 558.9 2295.6 559.7 C2294.2 560.1 2293 561.1 2292.5 562.4 C2292.3 562.9 2292.1 563.5 2292.3 564.1 C2292.4 564.9 2292.4 565.4 2292.2 566.2 C2289.4 563.4 2292.3 558.5 2296 558.4 C2297.8 558.4 2299.3 559.6 2299.4 561.3 C2299.6 563.4 2298.1 565.3 2296.3 566.1 C2296.4 565.7 2296.4 565.3 2296.4 564.9 C2296.6 564.8 2296.4 565.3 2296.4 564.9 z" id="j7" fill="#F2F3F4" /><path d="M2292.1 566.1 C2292.1 565.3 2292.5 564.8 2292.8 564.1 C2292.8 564.7 2293.5 565 2293.4 565.9 C2293.2 567.1 2292.1 567.7 2292.1 566.1 z" id="k7" fill="#555556" /><path d="M2296.4 564.9 C2296.5 565.4 2296.5 566.2 2296.3 566.7 C2296.2 567.3 2295.9 566.9 2295.6 567.3 C2295.8 566.7 2295.8 566 2295.8 565.3 C2295.7 564.5 2295.7 564.8 2296.2 564.4 C2296.3 564.6 2296.4 564.7 2296.4 564.9 C2296.5 565.4 2296.3 564.7 2296.4 564.9 z" id="l7" fill="#555556" /><path d="M2296.1 557.2 C2298.9 557.2 2300.9 559.7 2300.5 562.5 C2300.1 564.5 2298.1 567.6 2295.9 567.6 C2295.1 569.5 2293.5 570.8 2291.7 571.4 C2291.5 571.4 2291.2 571.5 2291 571.5 C2290.8 571.5 2289.9 573.2 2289.7 573.4 C2288.9 574.3 2287.2 575.6 2285.8 575.6 C2285.1 575.6 2285.1 576.1 2284.7 576.5 C2284.1 577.3 2283.3 578 2282.5 578.5 C2281.7 579 2279.8 579.1 2279.4 579.7 C2278.5 581.1 2276.8 582.1 2275.2 582.5 C2274.3 582.7 2274.4 583 2273.5 583.8 C2272.2 585 2270.3 585.8 2268.5 585.8 C2268.1 585.8 2267.8 585.8 2267.4 585.7 C2266.9 586.2 2266.3 586.5 2265.7 586.9 C2264.4 587.5 2263.1 587.8 2261.7 587.6 C2259.2 587.2 2257.2 585.1 2257.7 582.5 C2258.2 579.8 2260.9 578 2263.4 577.8 C2264 577.8 2264.6 577.8 2265.2 577.9 C2265.8 577.3 2266.4 577 2267.1 576.6 C2267.8 576.2 2268.5 576.1 2269.2 576 C2270 575.9 2270.1 575.4 2270.6 574.7 C2271.5 573.5 2272.7 572.8 2274.1 572.5 C2275 572.3 2275.2 572.3 2275.8 571.6 C2276.2 571.1 2276.6 570.7 2277.1 570.3 C2278 569.7 2280.2 569.4 2280.6 568.5 C2281.3 567.3 2282.5 566.4 2283.8 565.9 C2284.5 565.7 2285.3 565.8 2285.7 565.1 C2285.9 564.5 2286.3 564 2286.6 563.4 C2287.4 562.3 2288.6 561.6 2289.9 561.3 C2291 558.9 2293.6 557.2 2296.1 557.2 z M2295.7 566.6 C2295.7 566.9 2295.7 566.3 2295.7 566.6 C2295.7 566.5 2295.8 566.2 2295.8 566 C2295.8 566.2 2295.8 566.3 2295.7 566.6 C2295.7 566.7 2295.8 566.4 2295.7 566.6 z M2296.1 557.8 C2294 557.8 2292.1 559.2 2291 561 C2290.6 561.6 2290.8 561.8 2290.1 562.1 C2289.4 562.3 2288.8 562.6 2288.2 563 C2287.1 563.8 2286.3 564.9 2286 566.1 C2283.9 566.3 2282.1 567.4 2281 569.3 C2280.5 570 2279 570 2278.2 570.5 C2277.3 571 2276.3 571.8 2275.7 572.7 C2275.2 573.4 2274.5 573.1 2273.7 573.3 C2272.5 573.7 2271.5 574.4 2270.6 575.3 C2269.9 576.1 2270.1 576.5 2269.1 576.5 C2267.8 576.6 2266.7 577 2265.7 577.8 C2265.2 578.3 2265.2 578.5 2264.5 578.4 C2264 578.3 2263.4 578.3 2263 578.3 C2261.8 578.4 2260.6 578.8 2259.7 579.6 C2258 581 2257.2 583.4 2258.6 585.3 C2259.9 587 2262 587.2 2263.9 586.8 C2265 586.7 2265.9 586.1 2266.7 585.4 C2267.3 584.9 2267.6 585.2 2268.4 585.2 C2271.1 585.2 2273.4 583.9 2274.2 581.3 C2274.1 581.7 2274.1 581.9 2273.8 582.1 C2274 582.1 2274.4 582.2 2274.6 582 C2276.4 581.6 2279.3 579.9 2279.3 577.8 C2279.2 578.4 2279.1 578.6 2278.9 579 C2279.1 579 2279.8 579.1 2280.1 578.9 C2281.4 578.7 2282.6 578 2283.4 577 C2283.9 576.5 2284.2 575.9 2284.6 575.3 C2284.8 575.3 2285.2 575.2 2285.5 575.2 C2288.6 574.7 2292 572.8 2290.2 570.8 C2290.1 570.7 2290.2 570.9 2290.2 571 C2290.6 571 2290.9 570.8 2291.3 570.8 C2293.2 570.2 2295.1 568.7 2295.4 566.7 C2295.4 566.8 2295.3 566.9 2295.3 567.1 C2295.5 567.1 2295.8 566.9 2296 566.9 C2300.3 565.3 2301.8 557.8 2296.1 557.8 z" id="m7" fill="#3A3E4B" /><path d="M2259.4 595.4 C2256.5 595.4 2256.2 593.9 2255.5 591.9 C2254.9 589.7 2254.1 587.3 2253.5 585.2 C2252.9 583.4 2252.4 581.7 2251.8 579.8 C2250.9 576.9 2254.5 576.1 2257.2 576.1 C2259.9 576.1 2263.9 575.6 2265 578.2 C2265.6 579.7 2264.5 581.7 2264.1 583.2 C2263.3 585.6 2262.6 588.2 2261.7 590.5 C2261.5 591.9 2261.1 595.4 2259.4 595.4 z" id="n7" fill="#3A3E4B" /><path d="M2259 594.5 C2256.8 594.5 2256.5 593.1 2256.1 591.2 C2255.6 589.1 2255 587 2254.6 585 C2254.1 583.3 2253.8 581.7 2253.3 579.9 C2252.6 577.2 2255.4 576.5 2257.4 576.5 C2259.5 576.5 2262.6 576 2263.4 578.5 C2263.9 579.9 2263 581.8 2262.7 583.1 C2262.1 585.3 2261.5 587.7 2260.9 589.9 C2260.7 591.2 2260.4 594.5 2259 594.5 z" id="o7" fill="#808E8C" /><path d="M2259.7 590.4 C2260.9 590.9 2262.1 582.1 2261.8 581.2 C2261 578 2257 578.6 2255.9 581.2 C2255.5 582 2255.7 582.9 2255.5 583.7 C2255 585.6 2256.3 584.9 2257.6 585.6 C2258.5 586.2 2259.1 587.3 2259.3 588.3 C2259.4 588.5 2259.4 590.3 2259.7 590.4 C2260.7 590.7 2259.2 590.1 2259.7 590.4 z" id="p7" fill="#B0BDBF" /><path d="M2257.9 592.9 C2257.4 592.8 2257 591.4 2256.8 591 C2256.3 589.6 2255.9 588.2 2255.5 586.9 C2255.1 585.4 2254.8 583.8 2254.6 582.3 C2254.5 581.2 2254.1 579.7 2254.7 578.8 C2255.9 576.8 2261.5 576.9 2262.6 579 C2263.1 580.1 2262.2 584 2260.8 582.3 C2259.7 581.1 2257.3 580.2 2256.6 582.2 C2256.1 583.9 2258.9 593 2257.9 592.9 C2257 592.6 2258.9 593 2257.9 592.9 z" id="q7" fill="#FFF" /></g></g></g></g></g><g transform="translate(39.29518, 265.301)" id="r7"><ellipse cx="32.5" cy="17.5" rx="37.3" ry="13.2" opacity="0.15" id="s7" /><use xlink:href="#e" x="1.51" y="0" /><use xlink:href="#e" x="0" y="-10.7" /><use xlink:href="#e" x="1.79" y="-21.4" /></g><g transform="translate(235.8952, 266.9009)" id="t7"><ellipse cx="32.5" cy="17.5" rx="37.3" ry="13.2" fill-opacity="0.15" id="u7" /><use xlink:href="#e" x="0.08" y="0" /><use xlink:href="#e" x="-1.38" y="-10.7" /><use xlink:href="#e" x="1.69" y="-21.4" /><use xlink:href="#e" x="-1.08" y="-32.1" /><use xlink:href="#e" x="0.53" y="-42.8" /></g><g transform="translate(201.5952, 286.701)" id="v7"><ellipse cx="32.5" cy="17.5" rx="37.3" ry="13.2" fill-opacity="0.15" id="w7" /><use xlink:href="#e" x="0.12" y="0" /></g><g transform="translate(70.39518, 285.5009)" id="x7"><ellipse cx="32.5" cy="17.5" rx="37.3" ry="13.2" opacity="0.15" id="y7" /><use xlink:href="#e" x="1.63" y="0" /><use xlink:href="#e" x="-0.52" y="-10.7" /></g><g transform="translate(135.2952, 293.601)" id="z7"><ellipse cx="32.5" cy="17.5" rx="37.3" ry="13.2" fill-opacity="0.15" id="a8" /><use xlink:href="#e" x="0.71" y="0" /></g></g><defs><g transform="translate(17.09519, 0.800995) translate(-135.2952, -293.601)" id="e" fill="#000"><path d="M118.2 302.7 C118.4 307.4 132.5 311.2 149.8 311.2 C167.1 311.2 181.2 307.4 181.4 302.7 C181.4 307.5 181.4 310.1 181.4 310.5 C181.4 315.3 167.3 319.1 149.8 319.1 C132.3 319.1 118.2 315.2 118.2 310.5 L118.2 302.7 L118.2 302.7 z" fill-opacity="0.4528" id="b8" fill="#593001" /><path d="M118.7 301.7 C118.9 306.4 133 310.2 150.3 310.2 C167.6 310.2 181.7 306.4 181.9 301.7 C181.9 306.5 181.9 309.1 181.9 309.5 C181.9 314.3 167.8 318.1 150.3 318.1 C132.8 318.1 118.7 314.2 118.7 309.5 L118.7 301.7 L118.7 301.7 z" id="c8" fill="#DA8113" /><linearGradient x1="46.0545" y1="-118.6926" x2="45.4656" y2="-118.6926" gradientUnits="userSpaceOnUse" gradientTransform="matrix(117.135, 0, 0, 28.4634, -5208.417, 3687.795)" id="d8"><stop offset="0%" stop-color="#D9952A" stop-opacity="1" /><stop offset="6.438854%" stop-color="#CA7519" stop-opacity="1" /><stop offset="30.54%" stop-color="#E3AD3A" stop-opacity="1" /><stop offset="51.05%" stop-color="#FFEC91" stop-opacity="1" /><stop offset="68.8%" stop-color="#E9BD44" stop-opacity="1" /><stop offset="86.24%" stop-color="#FFED6C" stop-opacity="1" /><stop offset="93.87%" stop-color="#F2D353" stop-opacity="1" /><stop offset="100%" stop-color="#F2B947" stop-opacity="1" /></linearGradient><path d="M118.2 301.6 C118.4 306.1 132.7 309.7 150.3 309.7 C167.9 309.7 182.2 306.1 182.4 301.6 C182.4 306.2 182.4 308.7 182.4 309 C182.4 313.5 168 317.2 150.3 317.2 C132.6 317.2 118.2 313.5 118.2 309 L118.2 301.6 L118.2 301.6 z" id="e8" style="fill:url(#d8)" /><linearGradient x1="45.4914" y1="-117.9547" x2="45.9407" y2="-117.5895" gradientUnits="userSpaceOnUse" gradientTransform="matrix(115.425, 0, 0, 29.925, -5125.077, 3826.124)" id="f8"><stop offset="0%" stop-color="#F4E072" stop-opacity="1" /><stop offset="100%" stop-color="#DB9427" stop-opacity="1" /></linearGradient><ellipse cx="150.3" cy="301.5" rx="31.6" ry="8.2" id="g8" style="fill:url(#f8)" /><linearGradient x1="45.4656" y1="-126.0065" x2="46.0545" y2="-126.0065" gradientUnits="userSpaceOnUse" gradientTransform="matrix(117.135, 0, 0, 18.6219, -5208.417, 2651.479)" id="h8"><stop offset="0%" stop-color="#D9952A" stop-opacity="1" /><stop offset="6.438854%" stop-color="#CA7519" stop-opacity="1" /><stop offset="30.54%" stop-color="#E3AD3A" stop-opacity="1" /><stop offset="51.05%" stop-color="#FFEC91" stop-opacity="1" /><stop offset="68.8%" stop-color="#E9BD44" stop-opacity="1" /><stop offset="86.24%" stop-color="#FFED6C" stop-opacity="1" /><stop offset="93.87%" stop-color="#F2D353" stop-opacity="1" /><stop offset="100%" stop-color="#F2B947" stop-opacity="1" /></linearGradient><path d="M119.2 299.9 C119 300.2 118.9 300.6 118.9 301 C118.9 305.5 132.9 309.2 150.3 309.2 C167.7 309.2 181.7 305.5 181.7 301 C181.7 300.6 181.6 300.3 181.4 299.9 C182 300.5 182.4 301.2 182.4 301.9 C182.4 306.4 168 310.1 150.3 310.1 C132.6 310.1 118.2 306.4 118.2 301.9 C118.2 301.3 118.6 300.6 119.2 299.9 z" id="i8" style="fill:url(#h8)" /><linearGradient x1="45.196" y1="-121.5895" x2="45.3746" y2="-120.6758" gradientUnits="userSpaceOnUse" gradientTransform="matrix(101.745, 0, 0, 23.94, -4458.332, 3199.41)" id="j8"><stop offset="0%" stop-color="#F8DD61" stop-opacity="1" /><stop offset="100%" stop-color="#EAA330" stop-opacity="1" /></linearGradient><ellipse cx="150.3" cy="300.8" rx="27.8" ry="6.6" id="k8" style="fill:url(#j8)" /><linearGradient x1="45.5694" y1="-134.267" x2="45.0221" y2="-134.267" gradientUnits="userSpaceOnUse" gradientTransform="matrix(101.745, 0, 0, 13.2525, -4458.332, 2077.223)" id="l8"><stop offset="0%" stop-color="#F4CA2F" stop-opacity="1" /><stop offset="51.38%" stop-color="#BF7737" stop-opacity="1" /><stop offset="100%" stop-color="#E4A929" stop-opacity="1" /></linearGradient><path d="M122.6 301.5 C122.5 301.3 122.4 301 122.4 300.8 C122.4 297.2 134.9 294.2 150.2 294.2 C165.5 294.2 178 297.1 178 300.8 C178 301 177.9 301.3 177.8 301.5 C176.3 298.2 164.5 295.6 150.1 295.6 C135.7 295.6 124.1 298.2 122.6 301.5 z" id="m8" style="fill:url(#l8)" /></g></defs><desc>EFCJOLONAOA,hnr+bDE7k+NMWsnxEdn9Z5v7vG4WAPho73IWOZ4rpwJkWka4o4Bzy8qI/La4OKGVbCr5Ch7WmMkxsNAkj0MV66Tg7MuveAdwh2ds8xz7mZ78H7eP29x4RkcgkdZfznied3Stade2Ncpy1V7NfKyeikFpjkuYBDjUL7lRBB3tNuwoQgLb3hkr2EoTgi/tqsr4ZHKrxB+fpDuci2nqR8MlgfW6noqDSDtQ1kQSgnQ8yxok2yCgdx2ANrncSm7tuEggNvWecQoGFRjJwEwdvUqi5bs6N8XlXS0apupy5Ut0Ja4=</desc></svg>