<?xml version="1.0" encoding="utf-8"?><!DOCTYPE svg PUBLIC "-//W3C//DTD SVG 1.1//EN" "http://www.w3.org/Graphics/SVG/1.1/DTD/svg11.dtd"><svg x="0" y="0" width="340px" height="340px" viewBox="0, 0, 340, 340" preserveAspectRatio="xMidYMid" font-size="0" id="a" enable-background="new 0 0 340 340" xmlns="http://www.w3.org/2000/svg" xmlns:xlink="http://www.w3.org/1999/xlink" xmlns:xml="http://www.w3.org/XML/1998/namespace" version="1.1"><g id="b" fill="#000"><g id="c"><g transform="translate(0, 0) translate(0, 224)" id="d"><ellipse cx="168.6" cy="53.1" rx="57.8" ry="12.8" fill-opacity="0.25" id="e" /></g><g id="f"><g transform="translate(99.9, 95.89998) translate(0, 107)" id="g"><path d="M40.6 27.9 C34 31.5 24.6 28.4 21.5 21.6 C18.3 14.8 22.1 5.6 29.1 2.9 C26.8 1.1 24 0.4 21.1 0.5 C14.8 0.4 8.4 3.4 4.6 8.5 C0.4 14.2 -0.4 22.4 2.6 28.8 C5 25 5 25 7.5 21.2 C3.5 28.9 6.9 30.6 12.1 37.6 C12.7 35.3 13.2 33.9 14.9 32.7 C14.9 34.9 14.9 36.4 15.5 38.3 C16.2 40.7 16.7 41.1 17.2 42.4 C18.3 42.5 19.3 42.1 20.1 41.4 L19.9 44.6 C20.7 44.8 23.2 44.2 24 44.4 C29.1 44.6 37.1 44.8 40.7 39.1 C44.6 33.4 40.6 27.9 40.6 27.9 z" id="h" fill="#F4DFA9" /><path d="M40.6 27.9 C40.6 27.9 44.6 33.4 40.7 39.1 C37.1 44.8 29.1 44.6 24 44.4 C23.2 44.2 20.7 44.8 19.9 44.6 L20.1 41.4 C19.3 42.1 18.3 42.5 17.2 42.4 C16.7 41.1 16.2 40.7 15.5 38.3 C14.9 36.4 14.9 34.9 14.9 32.7 C13.2 33.9 12.7 35.3 12.1 37.6 C6.7 30.2 3.4 28.6 7.5 21.2 C5 25 5 25 2.6 28.8 C-0.4 22.4 0.4 14.2 4.6 8.5 C8.4 3.4 14.8 0.4 21.1 0.5 C24 0.4 26.8 1.1 29.1 2.9 C22.1 5.6 18.3 14.8 21.5 21.6 C24.6 28.4 34 31.5 40.6 27.9 z M40.3 29.6 C34.4 32.8 23.7 28 20.9 21.9 C18.1 15.8 20.5 4.9 26.7 2.5 C24.6 0.9 22 1.4 19.4 1.5 C13.7 1.4 9.9 3.6 6.4 8.2 C2.7 13.4 1 18.7 3.6 24.5 C5.8 21.1 6.3 21.6 8.6 18.2 C7.6 23.9 7.9 29.4 11.5 33.8 C12 31.7 13.9 31.5 15.5 30.4 C15.5 32.4 15.8 34.4 16.4 36.1 C17.2 39.1 20.7 40.1 21.4 39.5 L21.6 42.5 C22.3 42.7 25.9 42.3 26.7 42.5 C31.3 42.7 37.2 42.7 40.4 37.5 C41.8 34.9 40.6 31.9 40.3 29.6 z" opacity="0.16" id="i" /></g><g transform="translate(127.58, 273.6799) scale(1.715247) translate(-127.58, -273.6799) translate(128.7, 274.7999) scale(0.7) translate(-124.7, -274.7999) translate(96.2, 99.29996) translate(20, 132)" id="j"><path d="M10 26.1 C7.2 22.4 5.1 19.5 4.8 14.6 C4.5 9.6 7.9 5.1 12.4 2.9 C17.1 0.6 29.7 4.5 34.5 6.5 C42.3 9.7 42 22.9 34.4 27.1 C29.3 29.9 25.5 33.8 25.6 42.5 C25.6 44.4 18 45.2 13.2 45.1 C11.4 45.2 5.2 45 4.9 41.8 C4.6 38.9 5.3 36.2 8 35 C11.2 33.4 12 32 10 26.1 z" id="k" fill="#F4DFA9" /><path d="M10 26.1 C7.2 22.4 5.1 19.5 4.8 14.6 C4.5 9.6 7.9 5.1 12.4 2.9 C17.1 0.6 29.7 4.5 34.5 6.5 C42.3 9.7 42 22.9 34.4 27.1 C29.3 29.9 25.5 33.8 25.6 42.5 C25.6 44.4 18 45.2 13.2 45.1 C11.4 45.2 5.2 45 4.9 41.8 C4.6 38.9 5.3 36.2 8 35 C11.2 33.4 12 32 10 26.1 z M10 24.3 C11.8 29.7 12.8 33.8 9.9 35.2 C7.4 36.3 6.2 37.5 6.5 40.1 C6.8 43 12.4 43.2 14.1 43.1 C18.5 43.2 23.9 41.9 23.9 40.2 C23.8 32.3 28.7 29.3 33.4 26.7 C40.3 23 40.5 10.9 33.4 8 C29 6.2 17.5 2.6 13.3 4.7 C9.2 6.7 6.1 10.8 6.4 15.4 C6.6 19.9 7.4 21 10 24.3 z" opacity="0.15" id="l" /><path d="M6.5 6.1 C8.8 2.5 13.3 0.9 17.6 0.9 C21.7 1 38.5 2.1 41.1 13.1 C42.1 17.3 40.3 22.3 37.6 25.6 C35.7 24.9 32 24.7 32.1 23.7 C31.8 26.2 28.6 27.6 26.3 28.6 C26.7 27.4 26.2 25.9 25.2 25.2 C23.8 26.1 22.4 26.9 21 27.8 C19.1 26.9 18.7 25.5 18 23.3 C18 24.3 18 25.3 18.1 26.3 C16.9 26.3 15.7 26.3 14.6 26.3 C13.9 25.8 12.8 24.8 12.1 23.9 C12.1 24.9 12.2 25.8 12.3 26.8 C11.1 26.8 10 26.9 8.8 26.9 C8 25.3 7.2 23.8 6.4 22.2 C6.3 23.9 5.2 25.5 3.7 26.3 C3.6 24 3.5 21.6 3.5 19.3 C2.6 19.2 1.8 19 0.9 18.9 C4.4 15.9 4 10.1 6.5 6.1 z" id="m" fill="#C08A3F" /><path d="M6.5 6.1 C8.8 2.5 13.3 0.9 17.6 0.9 C21.7 1 38.5 2.1 41.1 13.1 C42.1 17.3 40.3 22.3 37.6 25.6 C35.7 24.9 32 24.7 32.1 23.7 C31.8 26.2 28.6 27.6 26.3 28.6 C26.7 27.4 26.2 25.9 25.2 25.2 C23.8 26.1 22.4 26.9 21 27.8 C19.1 26.9 18.7 25.5 18 23.3 C18 24.3 18 25.3 18.1 26.3 C17 26.3 15.8 26.3 14.6 26.3 C13.9 25.8 12.8 24.8 12.1 23.9 C12.1 23.9 12.1 23.9 12 23.9 C12.1 24.9 12.2 25.8 12.3 26.8 C11.1 26.8 10 26.9 8.8 26.9 C8 25.3 7.2 23.8 6.4 22.2 C6.3 23.9 5.2 25.5 3.7 26.3 C3.6 24 3.5 21.6 3.5 19.3 C2.6 19.2 1.8 19 0.9 18.9 C4.4 15.9 4 10.1 6.5 6.1 z M7.5 6.5 C5.4 9.9 6.9 14.7 3.9 17.3 C4.7 17.4 5 17.2 5.8 17.3 C5.8 19.3 4.5 20.7 4.6 22.7 C5.9 22 6.5 21.1 6.6 19.6 C7.3 21 8.5 22.7 9.2 24.1 C10.2 24.1 10.1 24.4 11.2 24.4 C11.1 23.5 10.7 21.1 11.2 21.1 C11.8 21.9 13.4 23.7 14 24.1 C14.9 24.1 15.7 23.7 16.7 23.7 C16.6 22.8 17.4 21.9 17.4 21.1 C18 23 20.4 24.5 22 25.2 C23.2 24.4 24.9 24.5 26.1 23.7 C27 24.3 27.4 24.6 27.1 25.6 C29.1 24.7 30.3 23.5 30.5 21.4 C30.4 22.3 35.7 22.1 37.3 22.7 C39.6 19.9 39.7 15.8 38.9 12.3 C36.7 2.8 21.6 2 18.1 2 C14.5 2 9.4 3.4 7.5 6.5 z" opacity="0.15" id="n" /></g><g transform="translate(210.9199, 273.7799) scale(1.715247) translate(-210.9199, -273.7799) translate(209.8, 274.9) scale(0.7) translate(-213.8, -274.9) translate(109.6, 99.39996) translate(91.5, 155) scale(-1, 1) translate(-91.5, -155) translate(71, 132)" id="o"><path d="M9.6 26.1 C6.8 22.4 4.7 19.5 4.4 14.6 C4.1 9.6 7.5 5.1 12 2.9 C16.7 0.6 29.3 4.5 34.1 6.5 C41.9 9.7 41.6 22.9 34 27.1 C28.9 29.9 25.1 33.8 25.2 42.5 C25.2 44.4 17.6 45.2 12.8 45.1 C11 45.2 4.8 45 4.5 41.8 C4.2 38.9 4.9 36.2 7.6 35 C10.8 33.4 11.6 32 9.6 26.1 z" id="p" fill="#F4DFA9" /><path d="M9.6 26.1 C6.8 22.4 4.7 19.5 4.4 14.6 C4.1 9.6 7.5 5.1 12 2.9 C16.7 0.6 29.3 4.5 34.1 6.5 C41.9 9.7 41.6 22.9 34 27.1 C28.9 29.9 25.1 33.8 25.2 42.5 C25.2 44.4 17.6 45.2 12.8 45.1 C11 45.2 4.8 45 4.5 41.8 C4.2 38.9 4.9 36.2 7.6 35 C10.8 33.4 11.6 32 9.6 26.1 z M10.7 25.9 C12.5 31.3 11.9 34.2 8.9 35.6 C6.4 36.7 5.7 37.5 6 40.2 C6.3 43.1 11.9 43.3 13.6 43.2 C18 43.3 23.4 42.4 23.4 40.7 C23.3 32.8 28.3 29.3 33 26.8 C39.9 23 40.1 10.9 33 8 C28.6 6.2 17.1 2.6 12.9 4.7 C8.8 6.7 5.7 10.8 6 15.4 C6.2 19.9 8.2 22.5 10.7 25.9 z" opacity="0.15" id="q" /><path d="M6.1 6.1 C8.4 2.5 12.9 0.9 17.2 0.9 C21.3 1 38.1 2.1 40.7 13.1 C41.7 17.3 39.9 22.3 37.2 25.6 C35.3 24.9 31.6 24.7 31.7 23.7 C31.4 26.2 28.2 27.6 25.9 28.6 C26.3 27.4 25.8 25.9 24.8 25.2 C23.4 26.1 22 26.9 20.6 27.8 C18.7 26.9 18.3 25.5 17.6 23.3 C17.6 24.3 17.6 25.3 17.7 26.3 C16.5 26.3 15.3 26.3 14.2 26.3 C13.5 25.8 12.4 24.8 11.7 23.9 C11.7 23.9 11.7 23.9 11.6 23.9 C11.7 24.9 11.8 25.8 11.9 26.8 C10.7 26.8 9.6 26.9 8.4 26.9 C7.6 25.3 6.8 23.8 6 22.2 C5.9 23.9 4.8 25.5 3.3 26.3 C3.2 24 3.1 21.6 3.1 19.3 C2.2 19.2 1.4 19 0.5 18.9 C4 15.9 3.6 10.1 6.1 6.1 z" id="r" fill="#C08A3F" /><path d="M6.1 6.1 C8.4 2.5 12.9 0.9 17.2 0.9 C21.3 1 38.1 2.1 40.7 13.1 C41.7 17.3 39.9 22.3 37.2 25.6 C35.3 24.9 31.6 24.7 31.7 23.7 C31.4 26.2 28.2 27.6 25.9 28.6 C26.3 27.4 25.8 25.9 24.8 25.2 C23.4 26.1 22 26.9 20.6 27.8 C18.7 26.9 18.3 25.5 17.6 23.3 C17.6 24.3 17.6 25.3 17.7 26.3 C16.5 26.3 15.3 26.3 14.2 26.3 C13.5 25.8 12.4 24.8 11.7 23.9 C11.7 23.9 11.7 23.9 11.6 23.9 C11.7 24.9 11.8 25.8 11.9 26.8 C10.7 26.8 9.6 26.9 8.4 26.9 C7.6 25.3 6.8 23.8 6 22.2 C5.9 23.9 4.8 25.5 3.3 26.3 C3.2 24 3.1 21.6 3.1 19.3 C2.2 19.2 1.4 19 0.5 18.9 C4 15.9 3.6 10.1 6.1 6.1 z M7.7 6.1 C5.5 9.7 5.7 15.4 2.6 18.1 C3.4 18.2 3.3 18.2 4.1 18.3 C4.1 20.3 4.3 21.5 4.4 23.5 C5.7 22.8 6 21 6.1 19.5 C6.8 20.9 7.4 22.9 8.1 24.3 C9.2 24.3 9.3 24.4 10.4 24.4 C10.3 23.5 9.5 19.1 11.2 20.4 C11.8 21.2 12.9 23.7 13.6 24.1 C14.6 24.1 14.9 24 15.9 24 C15.8 23.1 17.9 22.3 17.9 21.4 C18.5 23.4 18.9 24.6 20.6 25.4 C21.8 24.6 24 23.7 25.2 22.9 C26.1 23.5 27.4 24.6 27.1 25.6 C29.1 24.7 31.3 23.3 31.6 21.1 C31.5 22 34.6 22.5 36.2 23.2 C38.6 20.3 39.3 16.2 38.4 12.5 C36.2 2.5 21.2 1.5 17.6 1.5 C13.8 1.5 9.8 2.9 7.7 6.1 z" opacity="0.15" id="s" /></g><g transform="translate(96.90001, 90.79997) translate(24, 65)" id="t"><g transform="translate(4, 0)" id="u"><path d="M71 19.7 C73.2 28.5 78.4 30.1 83 37.6 C89.4 45.5 87.3 61.5 83.3 73 C82 76.7 78.7 86.3 76.6 97.4 C74.6 108.4 76.2 117.3 72.2 120.7 C70.8 122.2 64.9 123.5 55.5 123.5 C52.1 123.5 51 122.5 44.7 122.5 C38.4 122.5 36.3 123.6 33.3 123.5 C24.6 123.1 21 123.2 18.1 120.7 C13.8 116.2 15.5 106.2 12.9 95.6 C10.6 86.1 6.5 78.3 5.5 74 C3.5 64.9 0.2 50.2 6.3 39.2 C9.2 32.9 15.3 26.1 16.9 17.6 C18.6 8.1 34.9 5 43.7 4.4 C55 3.6 68.6 10.1 71 19.7 z" id="v" fill="#F4DFA9" /><path d="M84.2 39.3 C71.9 51.2 58.6 57.1 44.5 57.1 C30.5 57.1 17.9 51 6.6 38.7 C9.6 32.5 15.4 25.9 17 17.6 C18.6 8.1 34.9 5 43.7 4.4 C55 3.6 68.6 10.1 71 19.7 C73.2 28.5 78.4 30.1 83 37.6 C83.4 38.1 83.8 38.7 84.2 39.3 z" id="w" fill="#FCF6CA" /><path d="M71 19.7 C73.2 28.5 78.4 30.1 83 37.6 C89.4 45.5 87.3 61.5 83.3 73 C82 76.7 78.7 86.3 76.6 97.4 C74.6 108.4 76.2 117.3 72.2 120.7 C70.8 122.2 64.9 123.5 55.5 123.5 C52.1 123.5 51 122.5 44.7 122.5 C38.4 122.5 36.3 123.6 33.3 123.5 C24.6 123.1 21 123.2 18.1 120.7 C13.8 116.2 15.5 106.2 12.9 95.6 C10.6 86.1 6.5 78.3 5.5 74 C3.5 64.9 0.2 50.2 6.3 39.2 C9.2 32.9 15.3 26.1 16.9 17.6 C18.6 8.1 34.9 5 43.7 4.4 C55 3.6 68.6 10.1 71 19.7 z M69.6 20.3 C67.4 11 54.5 4.8 43.8 5.5 C35.4 6.1 20 9.1 18.4 18.3 C16.9 26.5 11.1 33 8.4 39.1 C2.6 49.7 5.7 63.8 7.6 72.6 C8.5 76.7 12.4 84.3 14.6 93.4 C17.1 103.6 15.5 113.3 19.5 117.6 C22.2 120 25.7 119.9 33.9 120.3 C36.7 120.4 38.7 119.3 44.7 119.3 C50.7 119.3 51.7 120.3 54.9 120.3 C63.8 120.3 69.4 119 70.7 117.6 C74.5 114.3 73 105.7 74.9 95.1 C76.9 84.4 80 75.1 81.2 71.6 C85 60.5 87 45.1 80.9 37.5 C76.6 30.3 71.7 28.8 69.6 20.3 z" opacity="0.15" id="x" /></g></g><g fill-rule="evenOdd" transform="translate(128.3399, 189.34) scale(0.8954663, 0.8007636) translate(-123.5, -178.8) translate(85.90001, 90.79996) translate(83.5, 146.5) scale(-1, 1) translate(-83.5, -146.5) translate(37, 88)" id="y"><path d="M85.7 0.8 C88.7 7.4 91 19.3 91.5 22.3 C91.7 23.4 92.2 25.3 92.2 26.6 C92.2 28.3 92.4 30.4 92.2 32.3 C92.1 33.8 91.6 36.7 91.5 38.1 C91.4 39.5 90.8 38.3 90.6 39.6 C90.5 39.9 90.5 40.2 90.4 40.4 C90 42 89.7 44.6 89.4 45.9 C89.2 47 89 46.8 88.7 48 C88.4 49.3 88.1 55.7 87.6 57.3 C87.1 58.9 86.5 55.7 85.7 58 C85.4 59 85 60 84.6 61.1 C84.2 62.1 84.1 66.2 83.6 67.4 C83.2 68.4 82.6 66.5 82.2 67.7 C81.8 68.9 81.9 74.3 81.4 75.7 C80.9 77.3 79.7 74.8 79.2 76.6 C78.8 77.8 78.8 84.5 78.4 85.8 C78 87.2 77.3 83.2 76.9 84.6 C76.7 85.6 76.4 86.5 76.2 87.5 C75.9 88.6 75.7 89.8 75.4 91 C75 93 74.6 95 74.2 97.1 C73.9 98.9 73.6 100.8 73.4 102.8 C73.2 104.4 77.3 102.5 80.3 106 C83.3 109.5 83.1 115.5 78.9 116.6 C74.7 117.7 58.9 113.8 57.2 111.6 C56.8 111.1 56.4 108.3 56.2 103.9 C56.1 102 56.8 99 56.7 96.6 C56.7 95.2 57.2 92.5 57.2 91 C57.2 89.1 55 94.1 55 92.1 C55 90.7 56.2 81.7 56.2 80.2 C56.2 77.8 55.6 77.9 56 75.5 C56.2 74.1 57.1 71.4 57.1 70.7 C57.1 68.2 54.9 75.4 55 72.8 C55 72.6 54.4 68.7 56 65 C56.7 63.3 56.6 61.3 56.8 59.6 C56.9 58.1 57 56.6 57.1 55.3 C57.3 52.2 57.4 49.8 57.3 48.9 C56.9 49.2 54.5 54 54.1 54.3 C53.4 54.8 54.7 50.7 54.1 51.2 C53.4 51.7 52.1 54.4 50.7 57.8 C49.3 61.3 50 56.7 49.5 57.1 C48.1 58.4 48.1 62.7 47.6 64.1 C47.2 65.3 46.1 67.4 45.8 67.1 C45.4 66.7 45.5 64.9 45.1 63.5 C44.7 61.9 44 60.5 44 59.5 C44 59.1 44.2 61.8 43.3 61.2 C42.4 60.6 40 53.3 39 52.1 C38.4 51.4 38.5 54.5 38.1 54.2 C37.3 53.7 36 50.3 35.5 49.7 C35.2 50.6 35.2 52.8 35.2 55.6 C35.2 57.8 36.6 65.6 36.7 68.4 C36.7 69.9 35.2 66.8 35.2 68.4 C35.2 69.9 34.9 71.8 34.9 72.1 C34.9 73.7 35.1 77.2 35.6 80.9 C36 84.3 36.7 87.9 36.7 89.4 C36.7 92.6 34.9 87.8 34.9 90.8 C34.9 92.2 35.6 95.1 35.5 96.4 C35.4 98.8 35.3 101.1 35.2 103 C35.1 104.7 35 106.1 34.8 107.4 C34.5 109.7 34.2 111.1 33.8 111.4 C31.2 112.9 21 117.9 12.2 116.4 C8.3 114.2 9.6 108.5 12.5 105.1 C15.4 101.7 19.7 104.1 19.5 101.5 C19.3 99 18.6 95.6 17.7 91.9 C17.5 90.9 17.2 89.9 16.9 88.8 C16.7 88 16.4 87.1 16.2 86.2 C15.8 84.7 15.3 83.2 14.9 81.6 C14.5 80.2 14.3 84.4 13.8 83 C13.4 81.9 12.8 75.1 12.5 74 C12.1 72.8 11.7 71.7 11.4 70.6 C11.1 69.7 10.5 72.1 10.2 71.2 C9.7 69.9 9.5 65.3 9.1 64.1 C8.7 62.9 8.3 61.9 7.9 60.9 C7.6 60 7.1 61.7 6.8 60.9 C6.2 59.4 5.8 55.5 5.4 54.2 C5 53 4.6 54.4 4.2 53.2 C3.9 52.1 3.5 48.4 3.2 47.3 C2.8 45.7 3.5 46.3 3.2 44.5 C3 43.3 2.6 42.5 1.2 37.8 C-0.2 33.1 0.5 21.8 0.7 19.8 C0.8 18.3 1.2 15 1.4 13.6 C2.2 7.8 4.2 4.3 5.7 1.4 C6 0.8 6.5 0 6.8 0.5 C7.6 1.7 7.9 4.3 8.7 6.6 C8.8 7.2 8.9 7.7 9 7.9 C10 10.1 10.8 12.4 11.6 14.4 C11.6 14.7 11.7 14.9 11.7 15 C12.4 16.4 13 17.5 13.5 18.4 C13.7 18.9 13.8 18.9 13.8 18.9 C14 19.2 14.2 19.5 14.4 19.7 C14.8 20.1 15.2 20.5 15.6 21 C15.7 21.8 15.9 22.5 16 22.7 C16.2 23 16.6 22.7 16.9 22.4 C17.3 22.8 17.7 23.1 18.1 23.5 C18.2 24.4 18.3 25.4 18.6 25.7 C18.8 25.9 18.9 25.3 19.1 24.5 C19.6 25 20.1 25.4 20.6 25.8 C20.9 27.7 21.4 29 21.8 29.4 C22.4 30 22.6 28.4 23.2 29 C23.8 29.5 24.6 33.5 25.2 34 C25.5 34.3 26.4 31.6 26.9 30.5 C27.2 30.7 27.4 30.8 27.7 31 C28 32.3 28.1 34.6 28.5 34.9 C28.9 35.2 28.7 33.4 29.1 33.7 C29.7 34.1 29.8 40.3 30.7 38.9 C31.6 37.5 31.2 35 31.3 35.1 C32 35.5 33.5 41.8 34.2 42.1 C34.5 42.3 35.1 41.5 35.2 40 C35.3 38.8 34.9 37 35.2 37.1 C35.8 37.4 36.7 38.3 37.3 40 C38 42.1 38.4 45.1 39.1 45.3 C39.7 45.5 40 43.4 40.4 41.3 C40.8 39.2 41.1 37.1 41.7 37.1 C42.3 37.2 42.5 40.6 42.4 42.5 C42.3 44.8 43.2 49.7 43.9 49.7 C44.1 49.7 44 45.1 44.9 43 C45.8 40.9 46.9 38.1 47.2 38.1 C47.5 38.1 48 40.7 48.1 42.1 C48.3 43.9 48.6 45.6 49 45.3 C49.6 44.8 51.6 37.2 51.9 37.1 C52.4 37 52 44.2 53.7 43.9 C53.8 43.9 54.9 42.2 55 42.1 C57 40.8 58.8 35.4 59.2 35.2 C59.6 35 58.8 38.8 59.2 38.6 C59.3 38.5 61.9 32.1 62.6 31.6 C63.1 31.3 63.4 35.2 63.8 34.9 C64.1 34.7 65.6 33.5 66.2 31.6 C66.5 30.7 66.6 29.7 66.6 28.9 C67 28.6 67.4 28.4 67.8 28.1 C67.9 28.4 67.9 28.7 67.9 29.1 C68 30.4 67.7 32.4 67.9 32.2 C68.8 31.6 70 28.6 71.4 26.7 C72.5 25.2 72.6 28.7 73.3 27.9 C73.6 27.6 74.2 26.3 74.7 25.1 C75.2 23.6 75.7 22.1 76.1 21.6 C76.6 21 76.4 24.7 76.9 24.1 C77.2 23.6 78.7 18.9 79 18.4 C79.3 17.9 79.9 20.1 80.2 19.6 C80.4 19.2 81.3 15.3 81.5 14.9 C81.7 14.6 81.7 15.9 81.8 15.6 C82 15.3 81.9 12.6 82.4 13.3 C83 13.9 83.4 11.2 84 9.6 C84.4 8.6 84.7 6.5 85 4.3 C85.5 3.8 85.4 1.1 85.7 0.8 z" id="z" fill="#F0B756" /><path d="M85.7 0.8 C88.7 7.4 91 19.3 91.5 22.3 C91.7 23.4 92.2 25.3 92.2 26.6 C92.2 28.3 92.4 30.4 92.2 32.3 C92.1 33.8 91.6 36.7 91.5 38.1 C91.4 39.5 90.8 38.3 90.6 39.6 C90.5 39.9 90.5 40.2 90.4 40.4 C90 42 89.7 44.6 89.4 45.9 C89.2 47 89 46.8 88.7 48 C88.4 49.3 88.1 55.7 87.6 57.3 C87.1 58.9 86.5 55.7 85.7 58 C85.4 59 85 60 84.6 61.1 C84.2 62.1 84.1 66.2 83.6 67.4 C83.2 68.4 82.6 66.5 82.2 67.7 C81.8 68.9 81.9 74.3 81.4 75.7 C80.9 77.3 79.7 74.8 79.2 76.6 C78.8 77.8 78.8 84.5 78.4 85.8 C78 87.2 77.3 83.2 76.9 84.6 C76.7 85.6 76.4 86.5 76.2 87.5 C75.9 88.6 75.7 89.8 75.4 91 C75 93 74.6 95 74.2 97.1 C73.9 98.9 73.6 100.8 73.4 102.8 C73.2 104.4 77.3 102.5 80.3 106 C83.3 109.5 83.1 115.5 78.9 116.6 C74.7 117.7 58.9 113.8 57.2 111.6 C56.8 111.1 56.4 108.3 56.2 103.9 C56.1 102 56.8 99 56.7 96.6 C56.7 95.2 57.2 92.5 57.2 91 C57.2 89.1 55 94.1 55 92.1 C55 90.7 56.2 81.7 56.2 80.2 C56.2 77.8 55.6 77.9 56 75.5 C56.2 74.1 57.1 71.4 57.1 70.7 C57.1 68.2 54.9 75.4 55 72.8 C55 72.6 54.4 68.7 56 65 C56.7 63.3 56.6 61.3 56.8 59.6 C56.9 58.1 57 56.6 57.1 55.3 C57.3 52.2 57.4 49.8 57.3 48.9 C56.9 49.2 54.5 54 54.1 54.3 C53.4 54.8 54.7 50.7 54.1 51.2 C53.4 51.7 52.1 54.4 50.7 57.8 C49.3 61.3 50 56.7 49.5 57.1 C48.1 58.4 48.1 62.7 47.6 64.1 C47.2 65.3 46.1 67.4 45.8 67.1 C45.4 66.7 45.5 64.9 45.1 63.5 C44.7 61.9 44 60.5 44 59.5 C44 59.1 44.2 61.8 43.3 61.2 C42.4 60.6 40 53.3 39 52.1 C38.4 51.4 38.5 54.5 38.1 54.2 C37.3 53.7 36 50.3 35.5 49.7 C35.2 50.6 35.2 52.8 35.2 55.6 C35.2 57.8 36.6 65.6 36.7 68.4 C36.7 69.9 35.2 66.8 35.2 68.4 C35.2 69.9 34.9 71.8 34.9 72.1 C34.9 73.7 35.1 77.2 35.6 80.9 C36 84.3 36.7 87.9 36.7 89.4 C36.7 92.6 34.9 87.8 34.9 90.8 C34.9 92.2 35.6 95.1 35.5 96.4 C35.4 98.8 35.3 101.1 35.2 103 C35.1 104.7 35 106.1 34.8 107.4 C34.5 109.7 34.2 111.1 33.8 111.4 C31.2 112.9 21 117.9 12.2 116.4 C8.3 114.2 9.6 108.5 12.5 105.1 C15.4 101.7 19.7 104.1 19.5 101.5 C19.3 99 18.6 95.6 17.7 91.9 C17.5 90.9 17.2 89.9 16.9 88.8 C16.7 88 16.4 87.1 16.2 86.2 C15.8 84.7 15.3 83.2 14.9 81.6 C14.5 80.2 14.3 84.4 13.8 83 C13.4 81.9 12.8 75.1 12.5 74 C12.1 72.8 11.7 71.7 11.4 70.6 C11.1 69.7 10.5 72.1 10.2 71.2 C9.7 69.9 9.5 65.3 9.1 64.1 C8.7 62.9 8.3 61.9 7.9 60.9 C7.6 60 7.1 61.7 6.8 60.9 C6.2 59.4 5.8 55.5 5.4 54.2 C5 53 4.6 54.4 4.2 53.2 C3.9 52.1 3.5 48.4 3.2 47.3 C2.8 45.7 3.5 46.3 3.2 44.5 C3 43.3 2.6 42.5 1.2 37.8 C-0.2 33.1 0.5 21.8 0.7 19.8 C0.8 18.3 1.2 15 1.4 13.6 C2.2 7.8 4.2 4.3 5.7 1.4 C6 0.8 6.5 0 6.8 0.5 C7.6 1.7 7.9 4.3 8.7 6.6 C8.8 7.2 8.9 7.7 9 7.9 C10 10.1 10.8 12.4 11.6 14.4 C11.6 14.7 11.7 14.9 11.7 15 C12.4 16.4 13 17.5 13.5 18.4 C13.7 18.9 13.8 18.9 13.8 18.9 C14 19.2 14.2 19.5 14.4 19.7 C14.8 20.1 15.2 20.5 15.6 21 C15.7 21.8 15.9 22.5 16 22.7 C16.2 23 16.6 22.7 16.9 22.4 C17.3 22.8 17.7 23.1 18.1 23.5 C18.2 24.4 18.3 25.4 18.6 25.7 C18.8 25.9 18.9 25.3 19.1 24.5 C19.6 25 20.1 25.4 20.6 25.8 C20.9 27.7 21.4 29 21.8 29.4 C22.4 30 22.6 28.4 23.2 29 C23.8 29.5 24.6 33.5 25.2 34 C25.5 34.3 26.4 31.6 26.9 30.5 C27.2 30.7 27.4 30.8 27.7 31 C28 32.3 28.1 34.6 28.5 34.9 C28.9 35.2 28.7 33.4 29.1 33.7 C29.7 34.1 29.8 40.3 30.7 38.9 C31.6 37.5 31.2 35 31.3 35.1 C32 35.5 33.5 41.8 34.2 42.1 C34.5 42.3 35.1 41.5 35.2 40 C35.3 38.8 34.9 37 35.2 37.1 C35.8 37.4 36.7 38.3 37.3 40 C38 42.1 38.4 45.1 39.1 45.3 C39.7 45.5 40 43.4 40.4 41.3 C40.8 39.2 41.1 37.1 41.7 37.1 C42.3 37.2 42.5 40.6 42.4 42.5 C42.3 44.8 43.2 49.7 43.9 49.7 C44.1 49.7 44 45.1 44.9 43 C45.8 40.9 46.9 38.1 47.2 38.1 C47.5 38.1 48 40.7 48.1 42.1 C48.3 43.9 48.6 45.6 49 45.3 C49.6 44.8 51.6 37.2 51.9 37.1 C52.4 37 52 44.2 53.7 43.9 C53.8 43.9 54.9 42.2 55 42.1 C57 40.8 58.8 35.4 59.2 35.2 C59.6 35 58.8 38.8 59.2 38.6 C59.3 38.5 61.9 32.1 62.6 31.6 C63.1 31.3 63.4 35.2 63.8 34.9 C64.1 34.7 65.6 33.5 66.2 31.6 C66.5 30.7 66.6 29.7 66.6 28.9 C67 28.6 67.4 28.4 67.8 28.1 C67.9 28.4 67.9 28.7 67.9 29.1 C68 30.4 67.7 32.4 67.9 32.2 C68.8 31.6 70 28.6 71.4 26.7 C72.5 25.2 72.6 28.7 73.3 27.9 C73.6 27.6 74.2 26.3 74.7 25.1 C75.2 23.6 75.7 22.1 76.1 21.6 C76.6 21 76.4 24.7 76.9 24.1 C77.2 23.6 78.7 18.9 79 18.4 C79.3 17.9 79.9 20.1 80.2 19.6 C80.4 19.2 81.3 15.3 81.5 14.9 C81.7 14.6 81.7 15.9 81.8 15.6 C82 15.3 81.9 12.6 82.4 13.3 C83 13.9 83.4 11.2 84 9.6 C84.4 8.6 84.7 6.5 85 4.3 C85.5 3.8 85.4 1.1 85.7 0.8 z M85.9 6.5 C85.6 6.8 85 10.4 84.6 10.9 C84.3 12.9 83.2 14.4 82.8 15.3 C82.2 16.8 82.1 19.9 81.5 19.4 C81.1 18.7 80.9 21.2 80.7 21.5 C80.6 21.8 79.4 20.3 79.2 20.6 C79 20.9 78.6 22.5 78.4 22.9 C78.1 23.3 77 25.9 76.8 26.4 C76.5 26.8 76 24.3 75.7 24.8 C75.2 25.3 75.4 28.2 74.9 28.8 C74.5 29.3 73.4 28 72.9 29.4 C72.4 30.5 71.8 28.7 71.6 29 C70.9 29.8 70.2 30.4 69.1 31.8 C67.8 33.6 68.1 33.4 67.2 33.9 C67 34.1 66.9 32.5 66.8 31.3 C66.8 30.9 65.6 35.1 65.3 35.3 C65.3 36.1 64.3 34.5 64 35.3 C63.4 37.1 62.8 36.5 62.5 36.7 C62.1 37 62.9 35.1 62.5 35.3 C61.8 35.8 60 41.2 59.9 41.3 C59.5 41.5 58.5 39.4 58.1 39.6 C57.7 39.8 56.9 43.1 55 44.3 C54.9 44.4 53.3 44.9 53.2 44.9 C51.6 45.1 51.8 41.1 51.4 41.2 C51.1 41.3 49.6 47.2 49 47.7 C48.7 48 47.6 45.4 47.4 43.8 C47.3 42.4 47.4 40.7 47.1 40.7 C46.8 40.7 46.6 43.8 45.8 45.8 C44.9 47.7 43.9 51.4 43.7 51.4 C43.1 51.4 41.5 46.3 41.6 44.2 C41.7 42.4 42.2 39 41.6 38.9 C41.1 38.9 41.2 40.5 40.8 42.4 C40.4 44.4 39.8 47.6 39.2 47.4 C38.6 47.3 37.5 44.3 36.9 42.3 C36.3 40.7 36.5 38.8 35.9 38.5 C35.7 38.4 36 40.1 35.9 41.2 C35.8 42.6 35.5 43.9 34.1 43.9 C32.7 43.5 32.5 38.6 31.8 38.3 C31.8 38.2 31.9 39.6 31.1 40.9 C30.2 42.2 29.5 37.7 28.9 37.3 C28.5 37 28.2 38.2 27.3 37.3 C26.5 36.4 27.8 34.7 27.5 33.5 C27.2 33.3 27.2 33 26.9 32.8 C26.5 33.9 25 36 24.7 35.7 C24.2 35.3 23.7 31.3 23.1 30.8 C22.6 30.3 21.9 31.4 21.3 30.8 C20.9 30.5 19.7 27.2 19.6 26.4 C19.2 26 18.6 27.8 18.2 27.4 C17.9 27.7 17.2 25.3 17 25.1 C16.9 24.9 17.1 24.4 17 23.7 C16.6 23.2 16 24.3 15.7 23.9 C15.5 23.7 14.2 21.3 14 20.9 C13.5 20 11.9 17.8 11.9 17.6 C11.2 15.7 10.7 14.4 9.7 12.4 C9.7 12.2 7.7 6.8 7 5.6 C6.7 5.2 5.8 4.2 5.5 4.7 C4.9 6 3.6 8.7 2.8 12.4 C1.9 16.7 1.7 22.1 1.6 22.9 C1.4 24.7 2.9 34.8 4.2 39.2 C5.5 43.6 5.8 44.3 6 45.4 C6.3 47.1 5.7 46.5 6 48 C6.3 49.1 6.7 52.5 7 53.6 C7.3 54.7 7.7 53.4 8.1 54.5 C8.5 55.7 8.8 59.3 9.4 60.7 C9.7 61.5 10.1 59.9 10.4 60.7 C10.8 61.7 11.2 62.6 11.5 63.7 C11.9 64.9 12.1 69.2 12.6 70.4 C12.9 71.2 13.4 69 13.7 69.8 C14 70.8 14.4 71.9 14.7 73 C15 74 15.6 80.4 15.9 81.4 C16.4 82.7 16.6 78.8 17 80.1 C17.3 81.6 17.8 83 18.2 84.4 C18.4 85.2 18.6 86.1 18.8 86.8 C19.1 87.8 19.4 88.8 19.6 89.7 C20.4 93.2 21.1 101.4 21.3 103.8 C21.5 106.2 16.7 102.7 14 105.9 C11.3 109.1 10.8 110.5 14.4 112.6 C22.7 114 30.6 110.6 33 109.2 C33.4 108.9 33.5 105.6 33.7 103.5 C33.9 102.3 33.4 94.5 33.5 92.2 C33.6 91 33.6 89.5 33.6 88.2 C33.6 85.4 35 90.4 35 87.5 C35 86.1 34.5 82 34.1 78.8 C33.6 75.3 33.5 73 33.5 71.5 C33.5 71.2 34.1 68.9 34.1 67.5 C34.1 66 35.4 67.9 35.4 66.5 C35.3 63.9 34.1 57.3 34.1 55.2 C34.1 52.6 34 47.2 34.3 46.3 C34.7 46.9 37.1 51.5 37.8 52 C38.2 52.2 38.5 49.9 39 50.6 C40 51.7 42.2 58.3 43 58.9 C43.9 59.4 44 56.8 44 57.2 C44 58.1 45.1 60.7 45.5 62.2 C45.8 63.5 45.7 65.1 46.1 65.5 C46.4 65.7 46.7 63.6 47.1 62.5 C47.6 61.2 48.1 56.2 49.4 55 C49.9 54.6 49.8 58.7 51.1 55.4 C52.4 52.2 53.7 48.7 54.4 48.2 C55 47.8 54.2 51.1 54.9 50.6 C55.3 50.4 58.7 44.8 59.1 44.5 C59.2 45.4 58.5 51.6 58.4 54.5 C58.3 55.7 58 59.5 57.9 60.9 C57.7 62.5 57.5 63.5 56.9 65.1 C55.4 68.5 55.6 69.4 55.6 69.6 C55.5 72 58.4 66.9 58.4 69.2 C58.4 69.9 57.6 73.3 57.5 74.6 C57.1 76.8 57.5 77.8 57.5 80.1 C57.5 81.5 56 87.9 56 89.2 C56 91.1 59.1 87.1 59.1 88.9 C59.1 90.3 57.9 94.4 57.9 95.7 C58 97.9 57.4 101.7 57.5 103.5 C57.6 107.6 57.5 108.1 57.9 108.6 C59.5 110.6 72.8 113.8 76.8 112.8 C80.7 111.8 80.8 109.2 78 105.9 C75.2 102.6 71 106.1 71.2 104.6 C71.4 102.7 72.1 96.2 72.4 94.6 C72.7 92.6 73.1 90.7 73.5 88.9 C73.8 87.7 74 86.6 74.2 85.6 C74.4 84.7 74.7 83.8 74.9 82.9 C75.3 81.6 76.5 83.8 76.9 82.4 C77.2 81.2 76.8 75.7 77.2 74.6 C77.6 72.9 78.7 75.4 79.2 73.9 C79.7 72.6 79.5 68.2 79.8 67.1 C80.2 66 81.1 66.7 81.5 65.7 C82 64.6 81.7 61.9 82.1 60.9 C82.5 59.9 83.2 58.1 83.4 57.2 C84.2 55 85.4 56.9 85.9 55.4 C86.4 53.9 85.6 49.9 85.9 48.7 C86.2 47.6 86.4 47.8 86.6 46.7 C86.8 45.5 87.1 43.1 87.5 41.6 C87.6 41.4 87.6 41.1 87.7 40.8 C87.9 39.6 88.4 40.8 88.5 39.4 C88.6 38.1 89.1 35.4 89.2 34 C89.4 32.3 89.2 30.3 89.2 28.7 C89.2 27.5 89.4 23.9 89.2 22.9 C88.7 20.1 88.7 12.7 85.9 6.5 z" opacity="0.4" id="a1" /></g></g><g transform="translate(170, 196.9) scale(0.9199586) translate(-170, -196.9)" id="b1"><g transform="translate(202.9, 132.0999) rotate(-166, 0, 0) scale(0.65, 0.45) translate(-202.9, -132.0999) translate(100.8, 90.99996) translate(110.5, 82.5) scale(-1, 1) translate(-110.5, -82.5) translate(79, 37)" id="c1"><g opacity="0.15" transform="translate(31.5, 46) scale(-1, 1) translate(-31.5, -46) translate(0, 1)" id="d1"><path d="M34.6 5.5 C37.5 7.9 38.4 12.9 39.7 14.2 C39.8 14.3 39.8 14.3 39.9 14.3 C40.6 14.8 41.3 15.1 42.1 15.4 C42.5 15.5 42.9 15.7 43.3 15.8 C45 16.4 47.2 15.6 48.3 16.6 C51.8 19.6 49.8 21 52.4 25.2 C55 29.4 55.7 27.4 57.6 30.9 C59.5 34.4 58.8 35.5 59.8 38.8 C60.8 42.2 56.4 35.7 56.4 39.1 C56.4 42.5 61.6 45.9 61.6 48.5 C61.6 51.1 55.3 39.2 55.5 41.9 C55.7 44.6 61.9 53.2 62 56.9 C62.1 60.6 56.4 51 56.9 54 C57.4 57 61 61.5 60.6 64.2 C60.2 66.9 58 63.6 56.9 66.3 C55.8 69 58 71.8 56.6 75.1 C55.2 78.4 55.4 67.3 53.7 69.8 C52.1 72.2 53.1 79.8 50.8 81.8 C48.4 83.8 50.7 76.9 48.1 79.8 C45.5 82.7 45.1 85.8 40.9 87.3 C36.7 88.8 42.8 82.8 39.6 82.5 C36.4 82.2 35.3 89.3 31.9 89.9 C30 90.2 28.1 89.4 26.2 87.9 C24.7 86.7 23.5 81.6 22.1 81.4 C18.9 80.8 19.7 86.7 18.1 85.2 C17 84.2 16.9 82.5 16.4 81.4 C16.3 81.4 16 74.6 15.7 74.7 C15.2 75 13.4 80.9 12.9 81.2 C12.4 81.6 11.5 81.8 11 80.4 C9.9 77.2 11.6 70.7 11 67.6 C10.8 66.6 8.5 73.1 8.2 73.2 C7.7 73.5 7.1 73.6 6.6 72.2 C5.4 69 4 71.8 4 68.1 C4 67.7 4.1 65.3 4 65.1 C3.5 64.3 2.9 64.2 2.6 63.4 C2.3 62.2 3.1 60 4.2 58 C4.6 57.2 2.1 59 2 58 C1.9 56.7 2.8 55.1 3.5 52.7 C4.2 50.3 1.6 52.6 1.4 51.6 C1.1 50.3 2.4 48.9 2.4 47.9 C2.4 45.5 1.5 47.4 0.8 45.2 C0.4 44 3.1 41.6 3.4 40.9 C3.7 40.3 1.8 40.8 1.9 39.8 C2.1 37.5 4.5 38.5 4.1 37 C3.8 35.9 2.7 35.9 2.7 35.2 C2.7 33.1 4.5 34.8 4.1 32.3 C4 31.2 3.5 28.8 3.4 27.7 C3.3 26 5.9 26.2 5.6 24.8 C5 21.9 4.4 22.2 7 19.3 C7.5 18.7 6.6 16.2 7 15.1 C8 12.3 9.5 12.9 9.8 12.2 C10.4 10.8 9.3 10 10.5 9.1 C11.9 8.1 13.7 9.5 14.6 6.9 C15.1 5.4 15.7 5 16.6 3.9 C19.6 0.4 25.2 0 27.8 1.7 C28.8 2.3 32.4 3.6 34.6 5.5 z" stroke="#000000" stroke-width="3" opacity="0.15" id="e1" /></g><g transform="translate(31.5, 44.5) scale(-1, 1) translate(-31.5, -44.5)" id="f1"><path d="M5.2 44 C3.1 51.1 6.5 56.9 4.4 60.5 C2.3 64.1 5.2 62 5.2 65.6 C5.2 69.2 5.8 68.8 7 72 C8.2 75.2 9.8 70.3 10.5 73.4 C11.2 76.5 10.8 76.8 11.8 80 C12.8 83.2 14.2 78.9 15.6 80 C17 81.1 16.9 83.2 18.5 84.7 C20.1 86.2 19.3 82.8 22.5 83.4 C23.9 83.6 24.9 86.6 26.4 87.8 C28.3 89.3 30.7 89 32.6 88.7 C36 88.1 36.7 84.6 40 84 C43.3 83.4 36.6 87.9 40.8 86.4 C45 84.9 45.8 84.1 48.4 81.2 C51 78.3 48.6 83.2 51 81.2 C53.3 79.2 52.8 75.9 54.4 73.5 C56.1 71 55.3 78.2 56.7 74.9 C58.1 71.6 56.4 70.6 57.5 67.9 C58.6 65.2 60.3 66.7 60.7 64 C61.1 61.3 60 61.9 59.5 58.9 C59 55.9 62.1 60.2 62 56.5 C61.9 52.8 59.7 52 59.5 49.3 C59.3 46.6 61.3 51.2 61.3 48.6 C61.3 46 57.5 44.2 57.5 40.8 C57.5 37.4 60.5 42.1 59.5 38.7 C58.5 35.4 59.5 34.3 57.6 30.8 C55.7 27.3 55 29.8 52.4 25.6 C49.8 21.4 51.3 20.7 47.8 17.7 C45.9 16.1 42.7 16.1 39.9 14.3 C38.5 13.4 37.6 8 34.6 5.5 C32.4 3.6 28.8 2.3 27.8 1.7 C22.9 -1.3 16.5 10.7 11.8 14.3 C7.1 17.9 6.6 23 5.2 26.9 C3.1 32.6 6 41.1 5.2 44 z" id="g1" fill="#C08A3F" /><path d="M5.2 44 C3.1 51.1 6.5 56.9 4.4 60.5 C2.3 64.1 5.2 62 5.2 65.6 C5.2 69.2 5.8 68.8 7 72 C8.2 75.2 9.8 70.3 10.5 73.4 C11.2 76.5 10.8 76.8 11.8 80 C12.8 83.2 14.2 78.9 15.6 80 C17 81.1 16.9 83.2 18.5 84.7 C20.1 86.2 19.3 82.8 22.5 83.4 C23.9 83.6 24.9 86.6 26.4 87.8 C28.3 89.3 30.7 89 32.6 88.7 C36 88.1 36.7 84.6 40 84 C43.3 83.4 36.6 87.9 40.8 86.4 C45 84.9 45.8 84.1 48.4 81.2 C51 78.3 48.6 83.2 51 81.2 C53.3 79.2 52.8 75.9 54.4 73.5 C56.1 71 55.3 78.2 56.7 74.9 C58.1 71.6 56.4 70.6 57.5 67.9 C58.6 65.2 60.3 66.7 60.7 64 C61.1 61.3 60 61.9 59.5 58.9 C59 55.9 62.1 60.2 62 56.5 C61.9 52.8 59.7 52 59.5 49.3 C59.3 46.6 61.3 51.2 61.3 48.6 C61.3 46 57.5 44.2 57.5 40.8 C57.5 37.4 60.5 42.1 59.5 38.7 C58.5 35.4 59.5 34.3 57.6 30.8 C55.7 27.3 55 29.8 52.4 25.6 C49.8 21.4 51.3 20.7 47.8 17.7 C45.9 16.1 42.7 16.1 39.9 14.3 C38.5 13.4 37.6 8 34.6 5.5 C32.4 3.6 28.8 2.3 27.8 1.7 C22.9 -1.3 16.5 10.7 11.8 14.3 C7.1 17.9 6.6 23 5.2 26.9 C3.1 32.6 6 41.1 5.2 44 z" id="h1" fill="#FCF6CA" /><path d="M45.6 17.7 C48.3 21.5 46.7 21.8 48.1 26.6 C49.5 31.4 50.8 29.1 51.8 33 C52.8 36.9 52.7 35.8 52.8 39.3 C52.9 42.8 50.4 40.2 49.5 43.5 C48.6 46.8 52.5 47.8 51.8 50.3 C51.1 52.8 49.5 48.8 48.9 51.5 C48.3 54.1 50.2 55.5 49.4 59.2 C48.6 62.8 45.8 59.2 45.5 62.3 C45.2 65.4 47.3 63.7 46.2 66.2 C45.1 68.8 43.8 66.8 42 69.2 C40.2 71.6 41.6 73 39.4 75.9 C37.2 78.8 38.1 73.3 35.8 75.3 C33.5 77.3 34.9 79.2 32.2 80.6 C29.4 81.9 30.7 77.5 27.4 79.6 C24.1 81.7 27.1 82 22.5 82.4 C18 82.8 22.6 80.9 19.2 80.6 C17.9 80.5 17.1 80.9 16.4 81.4 C16.2 80.9 15.9 80.5 15.4 80.1 C14 79 12.7 83.3 11.6 80.1 C10.5 76.9 10.9 76.6 10.3 73.5 C9.6 70.4 8 75.3 6.8 72.1 C5.6 68.9 4.2 71.7 4.2 68 C4.2 67.6 4.3 65.2 4.2 65 C3.7 64.2 3.1 64.1 2.8 63.3 C2.3 62.2 3.1 60 4.2 58 C4.6 57.2 2.1 59 2 58 C1.9 56.7 2.8 55.1 3.5 52.7 C4.2 50.3 1.6 52.6 1.4 51.6 C1.1 50.3 2.4 48.9 2.4 47.9 C2.4 45.5 1.5 47.4 0.8 45.2 C0.4 44 3.1 41.6 3.4 40.9 C3.7 40.3 1.8 40.8 1.9 39.8 C2.1 37.5 4.5 38.5 4.1 37 C3.8 35.9 2.7 35.9 2.7 35.2 C2.7 33.1 4.5 34.8 4.1 32.3 C4 31.2 3.5 28.8 3.4 27.7 C3.3 26 5.9 26.2 5.6 24.8 C5 21.9 4.4 22.2 7 19.3 C7.5 18.7 6.6 16.2 7 15.1 C8 12.3 9.5 12.9 9.8 12.2 C10.4 10.8 9.3 10 10.5 9.1 C11.9 8.1 13.7 9.5 14.6 6.9 C15.1 5.4 15.7 5 16.6 3.9 C19.6 0.4 25.2 0 27.8 1.7 C28.8 2.3 32.4 3.6 34.6 5.5 C37.6 8 38.6 13.4 39.9 14.3 C41.1 15.1 42.4 15.5 43.6 15.9 C44.4 16.4 45.1 17 45.6 17.7 z" id="i1" fill="#C08A3F" /></g></g><g transform="translate(138.8, 132.0999) rotate(166, 0, 0) scale(0.65, 0.45) translate(-138.8, -132.0999) translate(94.7, 90.99996) translate(2, 36)" id="j1"><g opacity="0.15" transform="translate(0, 1)" id="k1"><path d="M38.9 0.5 C40.6 0.1 43.3 0.2 45 1.6 C45.9 2.3 45 3.6 45.8 4.6 C46.5 5.5 47.7 4.2 48.5 5.2 C49 5.8 49 5.9 49 7.8 C49 9.7 51 7 51.9 9.4 C52.1 10 52.4 11 52.7 11.5 C52.9 12 53.3 11 54.6 12.9 C55.9 14.8 55.4 16.4 56.3 17.5 C57.3 18.7 58.7 18.6 59.6 21 C60.5 23.4 57.9 21.9 58.3 22.9 C58.8 24.2 61 25.6 61.3 27.1 C61.5 28.4 59.6 29.2 59.6 30.6 C59.6 31.6 62.5 32.1 63.3 33.7 C63.9 34.9 62.3 37.2 62.5 38 C62.8 39.4 64.7 38.7 64.8 40.8 C64.9 43.5 61.8 43.8 62.5 45.9 C62.8 46.7 64.7 49.1 64.8 51.1 C64.9 53.1 62.5 51.9 62.5 52.4 C62.5 53.7 63.5 57 63.9 58.2 C64.5 60.4 62.7 60.7 62.5 61.7 C62.4 62.4 63.3 65.1 63.3 66.7 C63.3 68.3 61.7 65.7 61.3 66.7 C60.9 67.7 62.4 69 61.8 70.4 C61.2 71.8 59.2 71.2 58.9 72.2 C57.9 75 59.9 75 59.7 76.1 C59.5 77.2 58.6 78.7 58.4 79.3 C56.2 81.3 56.4 78.9 54 80.9 C51.9 82.7 51.6 79.5 49.5 80 C48.3 82 46.3 85 44.7 86.7 C42.9 88.5 45.2 80.7 43 82.6 C40.8 84.5 39.4 87.9 36.9 88.7 C34.4 89.5 32.9 85.8 30.5 86.6 C28.1 87.4 26.7 90.7 23.4 90.6 C20.1 90.5 20 86.2 17.2 84.8 C14.4 83.3 14 85.5 12 83 C10 80.5 11.5 76.6 10.8 75.2 C10.1 73.8 8.5 78.5 6.6 75.9 C4.7 73.3 11.2 63.8 10.4 61.9 C9.6 60 5.6 70.1 4.5 67.2 C3.4 64.4 5.4 60 4.9 58.9 C4.4 57.8 2 58.4 1.2 56.5 C0.1 54 -0.2 53.8 0.6 49.8 C0.9 48.3 3.5 46.1 3.8 43.1 C4.1 41.5 1.9 41.3 2.5 38.3 C2.9 36.2 7 34.9 6.6 33.1 C4.3 30.2 8.9 32 10.7 29 C12.2 26.6 10.8 24.2 12.2 21.7 C13.7 19.1 17.9 19.7 20.1 17.5 C22.5 15.2 31.1 5 32.4 3.5 C34.2 1.4 36 1 37.9 1.6 C38.2 1.2 38.6 0.9 38.9 0.5 z" stroke="#000000" stroke-width="3" opacity="0.15" id="l1" /></g><g id="m1"><path d="M32.4 3.5 C31.1 5 22.5 15.2 20.1 17.5 C17.9 19.7 15.1 19.4 13.6 22 C12.2 24.5 12.2 26.6 10.7 29 C8.9 32 5 30.7 5.9 34.4 C6.3 36.2 2.9 36.2 2.5 38.3 C1.9 41.3 3.6 42.4 3.3 44 C3 47 0.9 48.3 0.6 49.8 C-0.2 53.8 1.3 54.7 2.4 57.2 C3.2 59.1 3.9 58.8 4.4 59.9 C4.9 61 3.3 64.3 4.4 67.1 C5.5 69.9 7 66.1 7.8 68 C8.6 69.9 5.2 72.5 7.1 75.1 C9 77.7 10.5 74.3 11.2 75.7 C11.9 77.1 9.9 80.4 11.9 82.9 C13.9 85.4 14.9 84 17.7 85.5 C20.5 86.9 19.1 89.8 22.4 89.9 C25.7 90 27.7 88.4 30.1 87.6 C32.5 86.8 33 89.2 35.5 88.4 C38 87.6 40.3 86.7 42.5 84.8 C44.7 82.9 42.9 88.5 44.7 86.7 C46.5 84.8 48.3 84 49.5 81.6 C50.7 79.1 52 81.4 52.9 79.8 C53.7 78.1 53.9 77.5 54.3 75.2 C54.5 73.8 56.4 74.2 57.1 68.1 C57.3 66.1 58 61.6 58.3 59.3 C58.7 56.9 59.1 47.9 58.3 45.7 C54.5 34.8 56.6 22.8 51.9 17.7 C47.2 12.6 39.2 -4.7 32.4 3.5 z" id="n1" fill="#C08A3F" /><path d="M32.4 3.5 C31.1 5 22.5 15.2 20.1 17.5 C17.9 19.7 15.1 19.4 13.6 22 C12.2 24.5 12.2 26.6 10.7 29 C8.9 32 5 30.7 5.9 34.4 C6.3 36.2 2.9 36.2 2.5 38.3 C1.9 41.3 3.6 42.4 3.3 44 C3 47 0.9 48.3 0.6 49.8 C-0.2 53.8 1.3 54.7 2.4 57.2 C3.2 59.1 3.9 58.8 4.4 59.9 C4.9 61 3.3 64.3 4.4 67.1 C5.5 69.9 7 66.1 7.8 68 C8.6 69.9 5.2 72.5 7.1 75.1 C9 77.7 10.5 74.3 11.2 75.7 C11.9 77.1 9.9 80.4 11.9 82.9 C13.9 85.4 14.9 84 17.7 85.5 C20.5 86.9 19.1 89.8 22.4 89.9 C25.7 90 27.7 88.4 30.1 87.6 C32.5 86.8 33 89.2 35.5 88.4 C38 87.6 40.3 86.7 42.5 84.8 C44.7 82.9 42.9 88.5 44.7 86.7 C46.5 84.8 48.3 84 49.5 81.6 C50.7 79.1 52 81.4 52.9 79.8 C53.7 78.1 53.9 77.5 54.3 75.2 C54.5 73.8 56.4 74.2 57.1 68.1 C57.3 66.1 58 61.6 58.3 59.3 C58.7 56.9 59.1 47.9 58.3 45.7 C54.5 34.8 56.6 22.8 51.9 17.7 C47.2 12.6 39.2 -4.7 32.4 3.5 z" id="o1" fill="#FCF6CA" /><path d="M54.5 80.5 C52.1 82.5 51 81.5 48.4 82.4 C45.8 83.2 45.2 80.7 42.7 81.6 C40.2 82.4 38.1 84.1 34.6 84 C31.1 83.9 32.6 80.9 29.6 79.4 C26.6 77.9 25.5 79.4 23.5 76.7 C21.5 74 23.5 70.6 22.8 69.1 C22.1 67.6 20.4 71.1 18.5 68.4 C16.6 65.8 20 62.9 19.3 61 C18.6 59.1 16.9 63 15.7 60.1 C14.5 57.2 16.3 53.8 15.7 52.5 C15.1 51.3 14.5 51.6 13.6 49.6 C12.4 47 10.9 46 11.7 41.8 C12 40.2 14.1 38.8 14.6 35.7 C14.9 34 13.2 32.8 13.8 29.7 C14.2 27.5 17.8 27.4 17.4 25.6 C16.4 21.7 20.5 23.1 22.4 19.9 C23.2 18.6 23.6 17.3 24 16.1 C25.5 14.4 27.8 11.8 30 9.4 C30.8 9 31.6 8.5 32.3 7.8 C33.5 6.6 36.2 3.5 38.9 0.5 C40.6 0.1 43.3 0.2 45 1.6 C45.9 2.3 45 3.6 45.8 4.6 C46.5 5.5 47.7 4.2 48.5 5.2 C49 5.8 49 5.9 49 7.8 C49 9.7 51 7 51.9 9.4 C52.1 10 52.4 11 52.7 11.5 C52.9 12 53.3 11 54.6 12.9 C55.9 14.8 55.4 16.4 56.3 17.5 C57.3 18.7 58.7 18.6 59.6 21 C60.5 23.4 57.9 21.9 58.3 22.9 C58.8 24.2 61 25.6 61.3 27.1 C61.5 28.4 59.6 29.2 59.6 30.6 C59.6 31.6 62.5 32.1 63.3 33.7 C63.9 34.9 62.3 37.2 62.5 38 C62.8 39.4 64.7 38.7 64.8 40.8 C64.9 43.5 61.8 43.8 62.5 45.9 C62.8 46.7 64.7 49.1 64.8 51.1 C64.9 53.1 62.5 51.9 62.5 52.4 C62.5 53.7 63.5 57 63.9 58.2 C64.5 60.4 62.7 60.7 62.5 61.7 C62.4 62.4 63.3 65.1 63.3 66.7 C63.3 68.3 61.7 65.7 61.3 66.7 C60.9 67.7 62.4 69 61.8 70.4 C61.2 71.8 59.2 71.2 58.9 72.2 C57.9 75 59.9 75 59.7 76.1 C59.5 77.2 58.6 78.7 58.4 79.3 C56.2 81.3 56.9 78.5 54.5 80.5 z" id="p1" fill="#C08A3F" /></g></g><g transform="translate(110.3, 85.89996) translate(11, 26)" id="q1"><path d="M5.5 77 C0.1 65.8 -0.6 51.2 1 39.1 C3.2 27.2 8.5 25.2 15.8 17.9 C23.1 10.6 25.8 0.2 49.1 0.3 C72.3 0.4 73.5 8.3 79.9 14.4 C86.3 20.4 92.4 23.4 96.2 30.6 C100 37.8 101.2 59.8 96.2 71.2 C92 80.9 80.7 92.2 66.3 92.4 C54.5 93 51.9 93.8 40.2 93.8 C28.5 93.8 11.5 88.2 5.5 77 z" id="r1" fill="#FCF6CA" /><path d="M5.5 77 C0.1 65.8 -0.6 51.2 1 39.1 C3.2 27.2 8.5 25.2 15.8 17.9 C23.1 10.6 25.8 0.2 49.1 0.3 C72.3 0.4 73.5 8.3 79.9 14.4 C86.3 20.4 92.4 23.4 96.2 30.6 C100 37.8 101.2 59.8 96.2 71.2 C92 80.9 80.7 92.2 66.3 92.4 C54.5 93 51.9 93.8 40.2 93.8 C28.5 93.8 11.5 88.2 5.5 77 z M7.3 74.8 C13 85.6 29.3 90.9 40.6 90.9 C51.9 90.9 54.3 90.1 65.7 89.6 C79.5 89.4 90.4 78.6 94.4 69.2 C99.2 58.3 98 37.1 94.4 30.2 C90.8 23.3 84.9 20.4 78.7 14.6 C72.6 8.8 71.4 1.2 49.1 1.2 C26.7 1.1 24.1 11.1 17.1 18.1 C10.1 25.1 5 27 2.9 38.4 C1.4 50 2.1 64.1 7.3 74.8 z" opacity="0.15" id="s1" /></g><g id="t1"><g transform="translate(109.5, 106.7999) translate(35, 23)" id="u1"><g id="v1"><path d="M37.5 66.1 C35.6 63 34.6 61.1 27.5 61.1 C20.4 61.1 20.5 63 18.5 66.1 C17.8 67.2 15.4 69 14.6 70.5 C19.1 72.1 21.5 73.3 27.3 73.2 C32.7 73.1 36.4 72 41.2 70.1 C40.1 68.4 38.1 67.1 37.5 66.1 z" id="w1" fill="#FFF" /><path d="M50.6 46 C45.1 33.7 39 30 27.5 30 C16 30 9.9 33.8 4.4 46 C0.2 55.4 -0.9 65.6 0.8 68.7 C4 74.4 13 76.5 15.7 71.9 C16.6 70.4 17.2 68.7 17.7 67.1 C18.1 66.7 18.4 66.3 18.5 66.1 C20.4 63 20.4 61.1 27.5 61.1 C33.2 61.1 34.9 62.3 36.4 64.4 C37.3 66.8 37.9 69.5 39.3 71.9 C42 76.5 50.9 74.4 54.2 68.7 C55.9 65.6 54.8 55.4 50.6 46 z" id="x1" fill="#E0E0E0" /><path d="M15.4 26.9 C20.4 24.7 22.2 21.1 24.1 16.1 C24.7 19.5 25.4 23.5 24.7 25.3 C22.9 29.9 18.8 29.5 16 31.5 C13.3 33.5 11.4 36.2 9.8 39.2 C9.7 38.7 8.8 39 8.3 39.6 C7.9 34.7 10.9 28.9 15.4 26.9 z" id="y1" fill="#E0E0E0" /><path d="M39.6 26.9 C34.6 24.7 32.8 21.1 30.9 16.1 C30.3 19.5 29.6 23.5 30.3 25.3 C32.1 29.9 36.2 29.5 39 31.5 C41.7 33.5 43.6 36.2 45.2 39.2 C45.3 38.7 46.2 39 46.7 39.6 C47.1 34.7 44.1 28.9 39.6 26.9 z" id="z1" fill="#E0E0E0" /><path d="M38 30 C34.3 27.5 31.9 27.9 30.9 25 C30.1 22.7 31.4 10.7 31.5 8.9 C32.3 0 27.5 0.5 27.5 0.5 C27.5 0.5 22.7 0 23.5 8.9 C23.7 10.7 24.9 22.8 24.1 25 C23.1 27.9 20.7 27.4 17 30 C13.8 32.2 10.7 34.8 9.6 37.9 C12.1 36.9 13.1 35.2 16.4 33.5 C19.3 32 21.6 30.6 27.6 30.6 C33.6 30.6 35.9 32 38.8 33.5 C42.1 35.2 43.1 36.9 45.6 37.9 C44.4 34.8 41.3 32.2 38 30 z" id="a2" fill="#FFF" /><path d="M15.4 26.9 C20.4 24.7 22.2 21.1 24.1 16.1 C24.1 16.2 24.1 16.3 24.1 16.4 C23.9 13 23.6 9.8 23.5 8.9 C22.7 0 27.5 0.5 27.5 0.5 C27.5 0.5 32.3 0 31.5 8.9 C31.5 9.7 31.1 12.8 30.9 16.1 C32.8 21.1 34.6 24.7 39.6 26.9 C43.9 28.8 46.8 34.2 46.7 38.9 C48.1 40.9 49.4 43.2 50.6 46 C54.8 55.4 55.9 65.6 54.2 68.7 C50.9 74.4 42 76.5 39.3 71.9 C39.1 71.6 39 71.3 38.8 71 C35.1 72.3 31.8 73.1 27.3 73.2 C22.2 73.3 19.7 72.4 16.2 71.1 C16 71.3 15.9 71.6 15.7 71.9 C13 76.5 4 74.4 0.8 68.7 C-0.9 65.6 0.2 55.4 4.4 46 C5.6 43.2 6.9 40.9 8.3 39 C8.2 34.2 11.1 28.8 15.4 26.9 z M16 27.3 C12 29.1 9.2 34.3 9.3 38.9 C8 40.8 6.8 43 5.6 45.7 C1.7 54.8 0.6 64.6 2.2 67.6 C5.3 73.1 13.8 75.1 16.3 70.7 C16.5 70.4 16.7 70.1 16.8 69.8 C20.2 71.1 22.5 72 27.3 71.9 C31.5 71.8 34.7 71.1 38.2 69.8 C38.4 70.1 38.5 70.4 38.7 70.7 C41.2 75.1 49.6 73.1 52.8 67.6 C54.4 64.6 53.3 54.8 49.4 45.7 C48.2 43 47 40.8 45.7 38.9 C45.8 34.3 43 29.1 39 27.3 C34.2 25.2 32.1 21.4 30.3 16.6 C30.5 13.4 31.1 10.4 31.1 9.6 C31.9 1 27.4 1.1 27.4 1.1 C27.4 1.1 23.2 0.9 24 9.4 C24.1 10.3 24.5 12.7 24.7 16 C24.7 15.9 24 17.8 23.9 17.8 C22.1 22.6 20.8 25.2 16 27.3 z" opacity="0.15" id="b2" /><g transform="translate(8, 44)" id="c2" fill="#282421"><path d="M10.1 5.3 C9.4 4.9 8.4 5.5 8.3 6.4 C8.3 7.2 9.3 7.9 10 7.5 C10.7 7.1 10.9 6 10.2 5.5" id="d2" /><path d="M5.6 0.9 C4.9 0.5 3.9 1.1 3.8 2 C3.8 2.8 4.8 3.5 5.5 3.1 C6.2 2.7 6.4 1.6 5.7 1.1" id="e2" /><path d="M2.7 7.5 C2 7.1 1 7.7 0.9 8.6 C0.9 9.4 1.9 10.1 2.6 9.7 C3.3 9.3 3.5 8.2 2.8 7.7" id="f2" /><path d="M28.9 5.3 C29.6 4.9 30.6 5.5 30.7 6.4 C30.7 7.2 29.7 7.9 29 7.5 C28.3 7.1 28.1 6 28.8 5.5" id="g2" /><path d="M33.4 0.9 C34.1 0.5 35.1 1.1 35.2 2 C35.2 2.8 34.2 3.5 33.5 3.1 C32.8 2.7 32.6 1.6 33.3 1.1" id="h2" /><path d="M36.3 7.5 C37 7.1 38 7.7 38.1 8.6 C38.1 9.4 37.1 10.1 36.4 9.7 C35.7 9.3 35.5 8.2 36.2 7.7" id="i2" /></g></g></g><g transform="translate(172, 182.1999) scale(1) translate(-172, -187.1999) translate(94.2, 105.0999) translate(65, 74)" id="j2"><path d="M3.6 16.5 C6.8 15.9 8.5 14.5 9.9 13.4 C10.8 12.7 11.8 11.8 12.8 10.6 C14.1 12.2 15 13.2 15.6 13.6 C16.4 14.3 18.8 15.8 20.3 16.4 C21.8 17 25.7 17.3 25.7 16.7 C25.7 16.1 21.2 15.4 19.6 14.2 C18 13 16.4 12 15.3 10.5 C14.3 9.1 14.7 8.1 14.6 6.5 C14.5 4.5 14.8 2.3 14.9 0.8 C15 -1.2 11.7 -0.6 11.7 0.8 C11.7 2.2 11.7 4.3 11.7 6.1 C11.7 7.9 11 10.1 9.6 11.3 C8.2 12.5 6.3 14 4.2 14.8 C2.9 15.3 0.2 15.9 0.3 16.5 C0.3 16.9 2.4 16.8 3.6 16.5 z" id="k2" fill="#282421" /></g><g transform="translate(104.9, 95.39994) translate(56, 65)" id="l2"><g id="m2"><path d="M20.3 1.6 C18.3 -0.6 14.7 0.3 11.1 0.3 C7.5 0.3 3.9 -0.6 1.9 1.6 C-0.1 3.8 -0.1 7.6 1.9 9.8 C3.3 11.3 4.7 12.2 6.6 13.2 C8.2 14.1 9.3 16.2 11 16.4 C12.8 16.2 13.8 14 15.4 13.2 C17.4 12.2 18.8 11.3 20.1 9.8 C22.3 7.6 22.3 3.9 20.3 1.6 z" id="n2" fill="#282523" /><path d="M16.8 3.2 C16.6 2.6 15.3 2.5 14.4 2.3 C12.8 2 10.5 2.2 7.8 2.2 C7.1 2.2 6.4 2.2 5.7 2.5 C5 2.8 4.6 3.5 4.7 4.2 C4.9 5.4 6.4 5.6 7.6 5.6 C9.5 5.6 11.5 5.6 13.4 5.5 C14.2 5.5 15 5.5 15.8 5.1 C16.6 4.7 17.1 4 16.8 3.2 z" id="o2" fill="#FEFEFE" /></g></g><g transform="translate(109.5, 106.7999) translate(28, 31)" id="p2"><g id="q2"><path d="M27.4 14.8 C22.7 14.2 24.5 5.1 19.1 1.5 C15.1 -1.3 8.2 2.3 5.5 4.5 C1.9 7.3 -0.5 10.3 0.1 14.8 C0.7 19.3 4 23.4 8.3 24.9 C11.9 26.1 15.9 25.6 19.5 24.1 C22 23 30.4 15.1 27.4 14.8 z" id="r2" fill="#F4DFA9" /><path d="M5.1 12.4 C5.1 10.8 7.5 10 9.7 8.3 C10.5 7.7 12 6.6 13.8 6.6 C16.3 6.6 18.1 8.3 19.3 10.3 C20.6 12.5 22.2 14.7 21.7 15.7 C21.2 16.9 18.6 17.2 16 18.1 C14.8 18.5 11.4 18.4 9.5 16.8 C7.5 15 5.1 13.3 5.1 12.4 z" id="s2" fill="#C08A3F" /><path d="M18.6 10.5 C18.4 10.1 18.2 9.8 17.9 9.5 C17.1 8.6 15.9 8.1 14.6 8.1 C13.9 8.1 13.3 8.3 12.7 8.5 C12.6 8.5 12.6 8.6 12.5 8.6 C12.3 8.7 12.1 8.8 11.9 8.9 C10.1 9.9 8.2 10.7 7.9 12.1 C7.7 13.1 9.8 14.7 11.6 16.1 C11.8 16.2 11.9 16.4 12.1 16.5 C12.1 16.5 12.2 16.5 12.2 16.6 C12.9 17 13.7 17.2 14.5 17.2 C14.7 17.2 14.9 17.2 15.1 17.1 L15.2 17.1 C15.5 17.1 15.7 17 16 16.9 C17.9 16.5 20.2 16.2 20.6 15 C21.1 14.2 19.9 12.3 18.6 10.5 z" id="t2" fill="#282421" /><path d="M11.5 12.4 C12 12.8 12.7 12.5 13.3 12.2 C14.5 11.6 17.1 10.9 17 10.4 C16.9 9.9 15.4 9.5 15.2 9.4 C14.5 9.2 13.5 9.2 12.9 9.5 C12.1 10 10.4 11.5 11.5 12.4 z" id="u2" fill="#FFFAF8" /></g></g><g transform="translate(109.5, 106.7999) translate(68, 31)" id="v2"><g id="w2"><path d="M1.6 14.8 C6.3 14.2 5.3 5.1 10.6 1.5 C14.6 -1.3 20.8 2.3 23.5 4.5 C27.1 7.3 29.5 10.3 28.9 14.8 C28.3 19.3 25 23.4 20.7 24.9 C17.1 26.1 13.1 25.6 9.5 24.1 C6.9 23 -1.4 15.1 1.6 14.8 z" id="x2" fill="#F4DFA9" /><path d="M23.9 12.4 C23.9 10.8 21.5 10 19.3 8.3 C18.5 7.7 17 6.6 15.2 6.6 C12.7 6.6 10.9 8.3 9.7 10.3 C8.4 12.5 6.8 14.7 7.3 15.7 C7.8 16.9 10.4 17.2 13 18.1 C14.2 18.5 17.6 18.4 19.5 16.8 C21.5 15 23.9 13.3 23.9 12.4 z" id="y2" fill="#C08A3F" /><path d="M17.1 9 C16.9 8.9 16.7 8.8 16.5 8.7 C16.4 8.7 16.4 8.6 16.3 8.6 C15.7 8.3 15.1 8.2 14.4 8.2 C13.1 8.2 12 8.7 11.1 9.6 C10.8 9.9 10.5 10.3 10.3 10.7 C9.1 12.4 7.8 14.4 8.2 15.3 C8.7 16.5 10.9 16.8 12.8 17.2 C13.1 17.3 13.3 17.4 13.6 17.4 L13.7 17.4 C13.9 17.4 14.1 17.4 14.3 17.4 C15.2 17.4 15.9 17.2 16.6 16.7 C16.6 16.7 16.7 16.7 16.7 16.6 C16.9 16.5 17.1 16.3 17.2 16.2 C19.1 14.8 21.1 13.2 20.9 12.2 C20.8 10.8 18.9 10.1 17.1 9 z" id="z2" fill="#282421" /><path d="M11.1 12 C11.6 12.4 12.3 12.1 12.9 11.8 C14.1 11.2 16.7 10.5 16.6 10 C16.5 9.5 15 9.1 14.8 9 C14.1 8.8 13.1 8.8 12.5 9.1 C11.6 9.5 9.9 11.1 11.1 12 z" id="a3" fill="#FFFAF8" /></g></g></g></g></g></g><defs><g transform="translate(17.09519, 0.800995) translate(-135.2952, -293.601)" id="b3" fill="#000"><path d="M118.2 302.7 C118.4 307.4 132.5 311.2 149.8 311.2 C167.1 311.2 181.2 307.4 181.4 302.7 C181.4 307.5 181.4 310.1 181.4 310.5 C181.4 315.3 167.3 319.1 149.8 319.1 C132.3 319.1 118.2 315.2 118.2 310.5 L118.2 302.7 L118.2 302.7 z" fill-opacity="0.4528" id="c3" fill="#593001" /><path d="M118.7 301.7 C118.9 306.4 133 310.2 150.3 310.2 C167.6 310.2 181.7 306.4 181.9 301.7 C181.9 306.5 181.9 309.1 181.9 309.5 C181.9 314.3 167.8 318.1 150.3 318.1 C132.8 318.1 118.7 314.2 118.7 309.5 L118.7 301.7 L118.7 301.7 z" id="d3" fill="#DA8113" /><linearGradient x1="46.0545" y1="-118.6926" x2="45.4656" y2="-118.6926" gradientUnits="userSpaceOnUse" gradientTransform="matrix(117.135, 0, 0, 28.4634, -5208.417, 3687.795)" id="e3"><stop offset="0%" stop-color="#D9952A" stop-opacity="1" /><stop offset="6.438854%" stop-color="#CA7519" stop-opacity="1" /><stop offset="30.54%" stop-color="#E3AD3A" stop-opacity="1" /><stop offset="51.05%" stop-color="#FFEC91" stop-opacity="1" /><stop offset="68.8%" stop-color="#E9BD44" stop-opacity="1" /><stop offset="86.24%" stop-color="#FFED6C" stop-opacity="1" /><stop offset="93.87%" stop-color="#F2D353" stop-opacity="1" /><stop offset="100%" stop-color="#F2B947" stop-opacity="1" /></linearGradient><path d="M118.2 301.6 C118.4 306.1 132.7 309.7 150.3 309.7 C167.9 309.7 182.2 306.1 182.4 301.6 C182.4 306.2 182.4 308.7 182.4 309 C182.4 313.5 168 317.2 150.3 317.2 C132.6 317.2 118.2 313.5 118.2 309 L118.2 301.6 L118.2 301.6 z" id="f3" style="fill:url(#e3)" /><linearGradient x1="45.4914" y1="-117.9547" x2="45.9407" y2="-117.5895" gradientUnits="userSpaceOnUse" gradientTransform="matrix(115.425, 0, 0, 29.925, -5125.077, 3826.124)" id="g3"><stop offset="0%" stop-color="#F4E072" stop-opacity="1" /><stop offset="100%" stop-color="#DB9427" stop-opacity="1" /></linearGradient><ellipse cx="150.3" cy="301.5" rx="31.6" ry="8.2" id="h3" style="fill:url(#g3)" /><linearGradient x1="45.4656" y1="-126.0065" x2="46.0545" y2="-126.0065" gradientUnits="userSpaceOnUse" gradientTransform="matrix(117.135, 0, 0, 18.6219, -5208.417, 2651.479)" id="i3"><stop offset="0%" stop-color="#D9952A" stop-opacity="1" /><stop offset="6.438854%" stop-color="#CA7519" stop-opacity="1" /><stop offset="30.54%" stop-color="#E3AD3A" stop-opacity="1" /><stop offset="51.05%" stop-color="#FFEC91" stop-opacity="1" /><stop offset="68.8%" stop-color="#E9BD44" stop-opacity="1" /><stop offset="86.24%" stop-color="#FFED6C" stop-opacity="1" /><stop offset="93.87%" stop-color="#F2D353" stop-opacity="1" /><stop offset="100%" stop-color="#F2B947" stop-opacity="1" /></linearGradient><path d="M119.2 299.9 C119 300.2 118.9 300.6 118.9 301 C118.9 305.5 132.9 309.2 150.3 309.2 C167.7 309.2 181.7 305.5 181.7 301 C181.7 300.6 181.6 300.3 181.4 299.9 C182 300.5 182.4 301.2 182.4 301.9 C182.4 306.4 168 310.1 150.3 310.1 C132.6 310.1 118.2 306.4 118.2 301.9 C118.2 301.3 118.6 300.6 119.2 299.9 z" id="j3" style="fill:url(#i3)" /><linearGradient x1="45.196" y1="-121.5895" x2="45.3746" y2="-120.6758" gradientUnits="userSpaceOnUse" gradientTransform="matrix(101.745, 0, 0, 23.94, -4458.332, 3199.41)" id="k3"><stop offset="0%" stop-color="#F8DD61" stop-opacity="1" /><stop offset="100%" stop-color="#EAA330" stop-opacity="1" /></linearGradient><ellipse cx="150.3" cy="300.8" rx="27.8" ry="6.6" id="l3" style="fill:url(#k3)" /><linearGradient x1="45.5694" y1="-134.267" x2="45.0221" y2="-134.267" gradientUnits="userSpaceOnUse" gradientTransform="matrix(101.745, 0, 0, 13.2525, -4458.332, 2077.223)" id="m3"><stop offset="0%" stop-color="#F4CA2F" stop-opacity="1" /><stop offset="51.38%" stop-color="#BF7737" stop-opacity="1" /><stop offset="100%" stop-color="#E4A929" stop-opacity="1" /></linearGradient><path d="M122.6 301.5 C122.5 301.3 122.4 301 122.4 300.8 C122.4 297.2 134.9 294.2 150.2 294.2 C165.5 294.2 178 297.1 178 300.8 C178 301 177.9 301.3 177.8 301.5 C176.3 298.2 164.5 295.6 150.1 295.6 C135.7 295.6 124.1 298.2 122.6 301.5 z" id="n3" style="fill:url(#m3)" /></g></defs><desc>EFF8OIG6DGE,DC69W3j7mztbygHU/jMvUZK+WRKJs2S/kIxIxEwxsii+ZsoS0IEnNYuFjoKj5vFD5+l0CU0j8SwK/wxCEe5/3JKKoeX9iVhtfkXfc3xQdGVtaGv27M5H813sLCPFEkfW</desc></svg>