<?xml version="1.0" encoding="utf-8"?><!DOCTYPE svg PUBLIC "-//W3C//DTD SVG 1.1//EN" "http://www.w3.org/Graphics/SVG/1.1/DTD/svg11.dtd"><svg x="0" y="0" width="340px" height="340px" viewBox="0, 0, 340, 340" preserveAspectRatio="xMidYMid" font-size="0" id="a" enable-background="new 0 0 340 340" xmlns="http://www.w3.org/2000/svg" xmlns:xlink="http://www.w3.org/1999/xlink" xmlns:xml="http://www.w3.org/XML/1998/namespace" version="1.1"><g id="b" fill="#000"><g transform="translate(210.1952, 245.501)" id="c"><ellipse cx="32.5" cy="17.5" rx="37.3" ry="13.2" opacity="0.15" id="d" /><use xlink:href="#e" x="0.86" y="0" /></g></g><g id="f" fill="#000"><g id="g"><g transform="translate(0, 0) translate(0, 224)" id="h"><ellipse cx="168.6" cy="53.1" rx="57.8" ry="12.8" fill-opacity="0.25" id="i" /></g><g id="j"><g transform="translate(105.1, 115.5) translate(0, 122)" id="k"><g id="l"><path d="M37.2 31.3 C12.9 30.6 2.2 26.6 0.8 19.3 C0 15.1 -0.4 9.5 0.8 6.5 C2.8 1.8 7.8 0.9 9.2 0.7 C11.4 0.3 13.8 1.1 16.3 3.1 C16.9 3.7 17.2 4.6 17.3 5.9 C17.3 7.7 18.4 8.8 15.8 9.1 C13.3 9.5 11.8 7.1 10.3 7.3 C8.8 7.5 8.3 9.9 8.3 10.8 C8.3 11.7 7.9 13.8 10.8 15.2 C12.8 16.1 26.9 18.4 37.1 19.7 L37.2 31.3 z" id="m" fill="#342520" /><path d="M8.7 1.6 C10.1 1 12.4 0.6 16.3 2.9 C17.6 3.8 18.2 5.1 18.2 6.7 C18.2 7.6 17.8 10 15.4 9.8 C13 9.6 11.8 7.5 10.3 7.8 C9.3 8 8.6 9 8.3 11 C8.3 13 9.3 14.4 11.2 15.2 C13.1 16 25.3 18.6 35.6 19.6 C36.9 23.3 35.1 25.6 34.4 25.6 C32.9 25.6 15.5 23.4 9.9 20.2 C4.2 17 4.5 15.8 3.7 10.4 C2.9 4.8 7.8 2 8.7 1.6 z" id="n" fill="#7B4C3A" /><path d="M15.2 2.3 C15.5 2.5 15.9 2.7 16.3 2.9 C17.6 3.8 18.2 5.1 18.2 6.7 C18.2 7.6 17.8 10 15.4 9.8 C13 9.6 11.8 7.5 10.3 7.8 C9.3 8 8.6 9 8.3 11 C8.3 13 9.3 14.4 11.2 15.2 C11.8 15.4 13.2 15.8 15.2 16.3 C20.6 17.4 29.9 18.8 37.1 19.7 L37.2 31.3 C12.9 30.6 2.2 26.6 0.8 19.3 C0 15.1 -0.4 9.5 0.8 6.5 C2.8 1.8 7.8 0.9 9.2 0.7 C11.1 0.4 13.1 0.9 15.2 2.3 z M17.7 5.9 C17.7 4.9 17 4 15.7 3.1 C13.7 1.8 11.7 0.5 10 0.8 C8.6 1.1 4 1.9 2.2 6.2 C1.1 9 1.5 14.2 2.2 18 C3.5 24.7 13.4 28.4 35.8 29.1 L35.8 20.7 C29.1 19.8 21.3 18.7 16.3 17.7 C14.5 17.3 10.8 16.1 10.3 15.9 C8.5 15.2 7.8 14.2 7.8 10.8 C8 9 9.1 7.1 10.6 7.1 C12 7.1 13.4 9.1 15.6 9.3 C17.8 9.5 17.7 6.8 17.7 5.9 z" opacity="0.15" id="o" /></g></g><g transform="translate(125.6733, 274.8) scale(0.9066306) translate(-122.4, -274.8) translate(85.80001, 86.29997) translate(29, 123)" id="p"><g transform="translate(22.5, 34.5) scale(-1, 1) translate(-22.5, -34.5)" id="q"><path d="M0.5 21.2 C0.5 5.6 29.7 -5.2 40.3 4.4 C49.4 12.7 41.6 31.9 40.3 33.7 C39.4 34.9 36.1 41.1 30.4 52.5 C37.7 55.2 41.3 58.4 41.3 62.1 C41.3 63.8 41.3 66.1 39.6 67.4 C38.3 68.4 19.6 68.3 15.4 67.4 C11.2 66.5 0.3 66.2 0.5 57.8 C0.7 48.8 0.5 29.2 0.5 21.2 z" id="r" fill="#B09082" /><path d="M0.5 21.2 C0.5 5.6 29.7 -5.2 40.3 4.4 C49.4 12.7 41.6 31.9 40.3 33.7 C39.4 34.9 36.1 41.1 30.4 52.5 C37.7 55.2 41.3 58.4 41.3 62.1 C41.3 63.8 41.3 66.1 39.6 67.4 C38.3 68.4 19.6 68.3 15.4 67.4 C11.2 66.5 0.3 66.2 0.5 57.8 C0.7 48.8 0.5 29.2 0.5 21.2 z M2 21.6 C2 25.7 2.6 32.8 2.5 39.9 C2.4 45.8 1.6 51.8 1.6 55.7 C1.4 63.7 11.3 64.4 15.3 65.3 C19.3 66.2 36.4 66.9 37.7 65.9 C39.3 64.7 39.3 63 39.3 61.4 C39.3 57.9 34.4 55.6 27.4 53 C32.8 42.1 37.7 34 38.5 32.9 C40.9 28.4 47 12.6 38.4 4.6 C28.3 -4.5 2 6.8 2 21.6 z" opacity="0.15" id="s" /></g></g><g transform="translate(210.6267, 274.8) scale(0.9066306) translate(-213.9, -274.8) translate(92.40001, 86.29997) translate(107, 157.5) scale(-1, 1) translate(-107, -157.5) translate(85, 123)" id="t"><g id="u"><path d="M42.8 20.7 C42.8 5.1 15.8 -5.2 5.2 4.4 C-3.9 12.7 3.9 31.9 5.2 33.7 C6.1 34.9 9.4 41.1 15.1 52.5 C7.8 55.2 4.2 58.4 4.2 62.1 C4.2 63.8 4.2 66.1 5.9 67.4 C7.2 68.4 24.3 69 30.1 67.4 C30.3 67.3 33.1 66.7 34 66.4 C37.5 65.2 42.4 63.3 42.7 59.9 C44.2 44.3 42.8 29.9 42.8 20.7 z" id="v" fill="#B09082" /><path d="M42.8 20.7 C42.8 29.9 44.2 44.3 42.7 59.9 C42.4 63.3 37.5 65.2 34 66.4 C33.1 66.7 30.3 67.3 30.1 67.4 C24.2 69 7.2 68.4 5.9 67.4 C4.2 66.1 4.2 63.8 4.2 62.1 C4.2 58.4 7.8 55.2 15.1 52.5 C9.4 41.1 6.1 34.9 5.2 33.7 C3.9 31.9 -3.9 12.7 5.2 4.4 C15.8 -5.2 42.8 5.1 42.8 20.7 z M41.8 20.4 C41.8 5.6 16.2 -4.4 6.1 4.8 C-2.5 12.6 6 30.7 7.3 32.4 C8.2 33.5 12.3 42.3 17.7 53.2 C10.8 55.8 5.6 58.3 5.6 61.8 C5.6 63.4 5.7 64.3 7.4 65.6 C8.6 66.5 24.1 67 29.7 65.5 C29.9 65.4 34.8 64.5 35.7 64.2 C39 63.1 41.6 60.9 41.9 57.7 C43.1 42.8 41.8 29.1 41.8 20.4 z" opacity="0.15" id="w" /></g></g><g transform="translate(91.30001, 75.89998) translate(31, 73)" id="x"><path d="M22.9 13.8 C30.8 10 27.6 0.4 45.8 0.4 C64 0.4 60.8 10.8 68.8 13.3 C77.6 16.1 79.3 26.3 81.2 30.8 C97 63.7 72.1 126.8 68.8 129.6 C65.9 131.5 60.5 132 58.5 132 C55.3 132 52.8 131.1 51.6 131 C48.9 130.8 47.7 129.6 46 129.6 C44.1 129.6 41.9 130.8 38.4 131 C36.8 131.1 33.1 132 28.8 132 C26.9 132 23.5 130.5 20.9 127.6 C18.7 124.7 0.2 64.8 8.3 34.4 C9.4 30.9 13 18.6 22.9 13.8 z" id="y" fill="#7B4C3A" /><path d="M22.9 13.8 C30.8 10 27.6 0.4 45.8 0.4 C64 0.4 60.8 10.8 68.8 13.3 C77.6 16.1 79.3 26.3 81.2 30.8 C97 63.7 72.1 126.8 68.8 129.6 C65.9 131.5 60.5 132 58.5 132 C55.3 132 52.8 131.1 51.6 131 C48.9 130.8 47.7 129.6 46 129.6 C44.1 129.6 41.9 130.8 38.4 131 C36.8 131.1 33.1 132 28.8 132 C26.9 132 23.5 130.5 20.9 127.6 C18.7 124.7 0.2 64.8 8.3 34.4 C9.4 30.9 13 18.6 22.9 13.8 z M23.7 14.6 C14.1 19.2 10.7 31.1 9.6 34.5 C1.8 63.8 19.6 121.6 21.8 124.4 C24.3 127.2 27.6 128.6 29.4 128.6 C33.5 128.6 37.1 127.7 38.7 127.6 C42.1 127.4 44.2 126.2 46 126.2 C47.6 126.2 48.8 127.4 51.4 127.6 C52.6 127.7 55 128.6 58.1 128.6 C60 128.6 65.2 128.1 68 126.3 C71.2 123.6 95.2 62.7 80 31 C78.2 26.7 76.5 16.8 68 14.1 C60.3 11.7 63.4 1.7 45.8 1.7 C28.2 1.7 31.3 11 23.7 14.6 z" opacity="0.15" id="z" /></g><g transform="translate(125.365, 168.856) scale(1.1, 1.078817) translate(-129.3, -177.2) translate(89.90001, 84.29999) translate(78.5, 145.5) scale(-1, 1) translate(-78.5, -145.5) translate(39, 92)" id="a1"><path d="M68.1 2.7 C65.6 5.6 57.8 23.3 40.2 24.2 C21.5 24.9 13.3 5.5 10.6 0.9 C7 8.7 1.1 13.8 0.5 26.6 C-0.1 39.4 4.4 46.5 6.7 52.8 C8.4 57.4 10.7 64.5 12.6 73.4 C13.3 76.6 15 81.2 15 84.3 C15.3 96.3 17.5 91.7 13.2 94.2 C8.9 96.7 5.2 101.6 6.7 104.5 C8.2 107.4 29.2 104.1 30.2 102.9 C30.7 102.3 30.9 95.4 30.7 74 C30.6 70.2 29.5 64.3 29.2 57 C29.1 53.6 30 50.6 29.7 46.2 C33.7 48.7 35.2 49.7 38.2 49.6 C41 49.7 42.2 48 46.8 45.5 C46.8 49.8 47.8 53.2 47.9 56.9 C48 63.8 47.3 70.3 47.2 74 C46.9 94.5 47.2 102.3 48 103.5 C49.2 105.2 56.8 106.1 70.8 106 C72.5 103.2 72.5 100.8 70.8 98.8 C69.1 96.8 66.2 94.7 62.2 92.4 C63.3 83.7 63.9 81.2 65.2 75.5 C66.2 71 67.7 62.7 68.7 60.2 C72.3 51.4 78.4 40.6 78.5 28.7 C78.6 16.8 72.4 8 68.1 2.7 z" id="b1" fill="#FAF4E8" /><path d="M68.1 2.7 C72.4 8 78.5 16.8 78.4 28.7 C78.3 40.6 72.2 51.4 68.6 60.2 C67.6 62.8 66 71 65.1 75.5 C63.9 81.2 63.2 83.7 62.1 92.4 C66.1 94.7 69 96.8 70.7 98.8 C72.4 100.8 72.4 103.2 70.7 106 C56.7 106.1 49.1 105.2 47.9 103.5 C47.1 102.3 46.8 94.5 47.1 74 C47.2 70.3 47.9 63.8 47.8 56.9 C47.7 53.1 46.7 49.8 46.7 45.5 C42.1 48 40.9 49.7 38.1 49.6 C35.1 49.7 33.6 48.7 29.6 46.2 C30 50.6 29 53.6 29.2 57 C29.5 64.3 30.6 70.2 30.7 74 C30.9 95.4 30.7 102.3 30.2 102.9 C29.2 104.1 8.2 107.4 6.7 104.5 C5.2 101.6 8.9 96.7 13.2 94.2 C17.5 91.7 15.3 96.3 15 84.3 C14.9 81.1 13.2 76.6 12.6 73.4 C10.7 64.5 8.4 57.5 6.7 52.8 C4.4 46.5 -0.1 39.4 0.5 26.6 C1.1 13.8 7 8.7 10.6 0.9 C13.3 5.5 21.5 24.9 40.2 24.2 C57.8 23.3 65.6 5.6 68.1 2.7 z M68.1 3.9 C66.9 6.2 63.6 12.3 57.5 17.9 C52.5 22.5 44.3 27.3 38.5 27.3 C34.8 27.5 26 22.6 22.4 19.5 C17.8 15.6 11.8 5.2 10.6 1.4 C7.1 8.9 2.7 15.8 2.1 28 C1.5 40.2 5.9 45.5 8.1 51.5 C9.7 55.9 12.8 63.9 14.6 72.4 C15.2 75.4 16.9 80.5 17 83.5 C17.3 94.9 18.7 92.8 14.6 95.2 C10.5 97.6 7.6 99.2 9 101.9 C10.4 104.6 27 101.6 28 100.4 C28.5 99.8 28.8 95.8 28.6 75.4 C28.5 71.7 27.6 64.9 27.3 57.9 C27.2 54.7 26.9 46.1 26.6 41.9 C30.4 44.3 35 48 37.9 47.9 C40.6 48 45.9 43.8 50.3 41.4 C50.3 45.5 50.1 52.2 50.1 55.8 C50.2 62.3 49.2 68.8 49.2 72.3 C48.9 91.8 49.3 99.6 50 100.8 C51.1 102.4 55.2 104 68.5 103.9 C70.1 101.2 70.8 100.5 69.2 98.6 C67.6 96.7 64.2 95 60.4 92.8 C61.5 84.5 62.1 79.7 63.3 74.3 C64.2 70 65.8 62 66.8 59.5 C70.2 51.1 76.5 41.1 76.6 29.8 C76.6 18.6 72.2 8.9 68.1 3.9 z" opacity="0.15" id="c1" /></g></g><g transform="translate(168.3, 188) scale(0.8804696) translate(-168.3, -188)" id="d1"><g transform="translate(89.60001, 95.49997) translate(37, 0)" id="e1"><g id="f1"><path d="M40.1 0.5 C72.4 1 81.8 11.6 81.5 30 C81.2 48.3 80.7 55.1 76.4 61.6 C72.1 68.1 70.7 71.6 67.7 81.7 C64.7 91.8 55.4 91.4 41.7 91.7 C28 92 16 87.5 14.9 80.5 C13.8 73.5 10.1 67.7 5.1 60.9 C0.1 54.1 0.8 35.1 0.7 24.3 C0.6 13.5 7.9 0 40.1 0.5 z" id="g1" fill="#7B4C3A" /><g transform="translate(28.16216, 84.51376)" id="h1"><path d="M0.6 6.7 C3.9 8.4 6.8 9.3 9.2 9.4 C12.9 9.6 20.5 9.4 23.4 8.1 C25.4 7.2 26.8 6.8 27.6 6.8 C23.9 3.9 21.4 2.4 20.1 2.2 C18.2 2 12.8 -0.1 11 1.1 C9.2 2.3 5.2 3 4.3 3.8 C3.7 4.3 2.5 5.2 0.6 6.7 z" id="i1" fill="#FAF4E8" /></g><path d="M55.4 91 C55.5 91.1 55.6 91.2 55.8 91.3 C55 91.3 53.6 91.7 51.6 92.6 C48.7 93.9 41.1 94.1 37.4 93.9 C35 93.8 32.1 92.9 28.8 91.2 C29.1 91 29.3 90.8 29.6 90.6 C21.6 88.9 15.7 85.3 15 80.5 C13.9 73.5 10.2 67.7 5.2 60.9 C0.2 54.1 0.9 35.1 0.8 24.3 C0.7 13.5 7.9 0 40.1 0.5 C72.4 1 81.8 11.6 81.5 30 C81.2 48.3 80.7 55.1 76.4 61.6 C72.1 68.1 70.7 71.6 67.7 81.7 C65.8 87.9 61.6 90.2 55.4 91 z M55 88.8 C61 88 65.2 85.8 67 79.7 C69.9 69.9 71.3 66.5 75.5 60.2 C79.7 53.9 80.2 47.3 80.5 29.5 C80.8 11.6 71.7 1.3 40.3 0.8 C8.8 0.3 1.7 13.4 1.8 23.9 C1.9 34.4 1.2 52.9 6.1 59.5 C11 66.1 14.6 71.7 15.6 78.6 C16.3 83.3 22 86.8 29.8 88.4 C29.6 88.6 29.3 88.8 29.1 89 C32.3 90.7 35.1 91.5 37.5 91.6 C41.1 91.8 48.5 91.6 51.3 90.3 C53.2 89.4 54.6 89 55.4 89 C55.2 89 55.1 88.9 55 88.8 z" opacity="0.15" id="j1" /></g></g><g transform="translate(98.09999, 102.4) translate(8, 1)" id="k1"><path d="M14.6 40.1 C13.1 40.1 13.5 37.4 12.3 34.7 C10.1 29.8 6.5 23.1 3.8 19.6 C1.7 17 -0.4 13.7 0.6 10.5 C1.7 7.1 5.8 5.9 9.3 5.1 C15.1 3.9 21 2.7 26.8 1.5 C28.1 1.2 34.4 -0.3 35.3 0.9 C35.7 2 31.5 4.8 30.4 6 C28.1 8.6 26.4 12.2 24.8 15.2 C21.4 22 18.7 40.1 14.6 40.1 z" id="l1" fill="#342520" /><path d="M3.3 7.3 C2.7 7.8 2.2 8.5 1.9 9.2 C0.9 12 2.8 15 4.7 17.3 C7.2 20.4 10.5 26.3 12.5 30.6 C13.6 33 13.2 35.4 14.6 35.4 C18.4 35.5 21.2 19.7 24.5 13.8 C26.1 11.2 27.7 8 29.9 5.8 C31 4.8 35 2.4 34.6 1.4 C33.8 0.3 27.9 1.6 26.6 1.8 C23.9 2.3 21.2 2.8 18.4 3.2 C21.2 2.7 24 2.1 26.8 1.5 C28.1 1.2 34.4 -0.3 35.3 0.9 C35.7 2 31.5 4.8 30.4 6 C28.1 8.6 26.4 12.2 24.8 15.2 C21.4 22 18.7 40.1 14.6 40.1 C13.1 40.1 13.5 37.4 12.3 34.7 C10.1 29.8 6.5 23.1 3.8 19.6 C1.7 17 -0.4 13.7 0.6 10.5 C1.1 9.1 2 8 3.3 7.3 z" opacity="0.15" id="m1" /></g><g transform="translate(104.2, 101.4) translate(87, 1)" id="n1"><path d="M21.4 40.1 C22.9 40.1 22.5 37.4 23.7 34.7 C25.9 29.8 29.5 23.1 32.2 19.6 C34.3 17 36.4 13.7 35.4 10.5 C34.3 7.1 30.2 5.9 26.7 5.1 C20.9 3.9 15 2.7 9.2 1.5 C7.9 1.2 1.6 -0.3 0.7 0.9 C0.3 2 4.5 4.8 5.6 6 C7.9 8.6 9.6 12.2 11.2 15.2 C14.6 22 17.3 40.1 21.4 40.1 z" id="o1" fill="#342520" /><path d="M21.4 40.1 C17.3 40.1 14.6 22 11.2 15.2 C9.6 12.2 7.9 8.6 5.6 6 C4.5 4.8 0.3 2 0.7 0.9 C1.6 -0.3 7.9 1.2 9.2 1.5 C15 2.7 20.9 3.9 26.7 5.1 C30.2 5.9 34.3 7.1 35.4 10.5 C36.4 13.7 34.3 17 32.2 19.6 C29.5 23.1 25.9 29.8 23.7 34.7 C22.5 37.4 22.9 40.1 21.4 40.1 z M21.1 34.4 C22.5 34.4 22.1 32.2 23.2 29.9 C25.2 25.8 28.5 20.2 30.9 17.3 C32.9 15.1 34.8 12.3 33.9 9.6 C32.9 6.8 29.1 5.8 25.9 5.1 C20.7 4.1 15.3 3.1 10 2.1 C8.8 1.9 3.1 0.6 2.3 1.6 C1.9 2.5 5.7 4.9 6.7 5.9 C8.8 8.1 10.4 11.1 11.8 13.6 C14.9 19.3 17.4 34.4 21.1 34.4 z" opacity="0.15" id="p1" /></g><g id="q1"><g transform="translate(107.2, 96.19997) translate(39, 34)" id="r1"><path d="M43.8 25.9 C34.9 27 32.1 15 29.6 9.5 L28.8 25.7 C28.5 29.8 24.5 32.1 21.1 31.9 C17.7 32.1 14.9 28.9 14.9 25.7 C14.9 23.6 14.8 18.2 14.5 9.5 C12.1 15 9.2 26.8 0.3 25.7 L1.2 29.7 C1.6 32 2 34.8 2.4 38.3 C3.5 48.9 9.9 52 22.1 52 C34.4 51.9 40.8 48.9 41.8 38.3 C42.2 34.8 42.6 32 43 29.7 L43.8 25.9 z" id="s1" fill="#FFF" /><path d="M43.8 25.9 L43 29.7 C42.6 32 42.2 34.8 41.8 38.3 C40.8 48.9 34.4 51.9 22.1 52 C9.9 52 3.5 48.9 2.4 38.3 C2 34.8 1.6 32 1.2 29.7 L0.3 25.7 C9.2 26.8 12.1 15 14.5 9.5 C14.8 18.2 14.9 23.6 14.9 25.7 C14.9 28.9 17.7 32.1 21.1 31.9 C24.5 32.1 28.5 29.8 28.8 25.7 L29.6 9.5 C32.1 15 34.9 27 43.8 25.9 z M42.8 26.7 C34.6 27.7 32.5 17.4 30.2 12.2 L29.6 27.3 C29.3 31.1 25.2 33.1 22.1 32.9 C19 33.1 14.3 29.4 14.3 26.4 C14.3 24.4 14.1 19.9 14.1 11.8 C11.9 16.9 10.3 27.5 2.1 26.5 L3 30.5 C3.4 32.7 3.7 33.9 4 37.1 C5 47.1 10.9 50 22.1 50 C33.4 49.9 39.3 47.1 40.2 37.2 C40.6 33.9 41.1 32.3 41.5 30.1 L42.8 26.7 z" opacity="0.15" id="t1" /></g><g transform="translate(101.2, 75.49996) translate(54, 91)" id="u1"><g id="v1" fill="#282421"><path d="M25 7 C24.6 6.6 24 6.7 23.6 7.1 C22.1 8.8 20.4 9.7 18.5 9.8 C16.7 9.9 15.1 9.2 14.1 8.4 L14.1 1.9 C14.1 1.3 13.7 0.9 13.1 0.9 C12.5 0.9 12.1 1.4 12.1 1.9 L12.1 8.4 C11.1 9.2 9.6 9.6 7.8 9.6 C5.9 9.5 4.1 8.8 2.6 7.1 C2.2 6.7 1.6 6.6 1.2 7 C0.8 7.4 0.7 8 1.1 8.4 C3.4 11.1 6 11.7 7.7 11.8 C7.8 11.8 7.9 11.8 8 11.8 C8.8 11.8 9.5 11.7 10.1 11.5 C12.1 12.1 14.2 12.1 16.2 11.5 C16.8 11.6 18.4 11.7 18.5 11.7 C20.2 11.6 22.8 11 25.1 8.3 C25.5 8 25.5 7.4 25 7 z" id="w1" /></g></g><g transform="translate(168.3, 164.5999) scale(0.8) translate(-168.3, -164.5999) translate(106.7, 90.39996) translate(50, 68)" id="x1"><g id="y1"><path d="M10.5 0.5 C14.7 0.5 20.6 1.4 20.7 4.9 C20.8 8.4 20.2 12.6 16 15 C11.8 17.4 7.7 17 4.1 14 C0.9 10.3 0.6 8.5 0.6 5 C0.6 1.5 6.1 0.5 10.5 0.5 z" id="z1" fill="#424242" /><path d="M4.6 2.8 C4.6 4 8.1 4.4 10.6 4.5 C13.1 4.6 15.3 4.3 16.7 3.7 C18.1 3.2 18.6 1.5 13 1.5 C7.5 1.5 4.6 1.6 4.6 2.8 z" id="a2" fill="#FFF" /></g></g><g transform="translate(100.4, 67.29996) translate(44, 47)" id="b2"><g id="c2"><path d="M13 12.1 C10.4 11.1 7.2 11.3 4.8 12.7 C3.7 13.3 1.5 14.8 0.7 15.8 C-0.6 17.3 0.1 19.9 1.3 21.5 C2.5 23.1 4.3 24.2 6.3 24.5 C8.3 24.8 10.3 24.5 12.2 23.7 C14.5 22.8 16.7 21.1 17.2 18.6 C17.7 15.9 15.6 13.1 13 12.1 z" id="d2" fill="#474B4F" /><path d="M14.5 17.3 C14.2 16 13.5 13 10.2 13 C6.9 13 3.3 16.7 2 17.7 C2.7 19.6 5.4 21.2 7.8 21.5 C11.2 21.9 13.5 20.7 14.5 17.3 z" id="e2" fill="#282421" /><path d="M9.3 5.1 C8.7 4.7 8.1 4.2 7.9 3.5 C7.8 2.9 8.1 2.2 8.6 1.8 C10.3 0.1 12.2 0.2 13.1 0.1 C16.2 -0.1 16.9 2.6 16.4 5.2 C15.5 10.3 12.1 7 9.3 5.1 z" id="f2" fill="#342520" /><path d="M9.8 14.4 C9.4 14.3 7.5 14.9 7 15.2 C6.5 15.6 6.2 16.2 6.5 16.8 C6.7 17.3 7.3 17.5 7.9 17.4 C8.4 17.3 8.9 17.1 9.4 16.8 C10 16.4 10.8 15.9 10.7 15.2 C10.5 14.8 10.2 14.5 9.8 14.4 z" id="g2" fill="#F5FAFC" /></g></g><g transform="translate(102.2, 67.29996) translate(72, 47)" id="h2"><g id="i2"><path d="M5 12.1 C7.6 11.1 10.8 11.3 13.2 12.7 C14.3 13.3 16.5 14.8 17.3 15.8 C18.6 17.3 17.9 19.9 16.7 21.5 C15.5 23.1 13.7 24.2 11.7 24.5 C9.7 24.8 7.7 24.5 5.8 23.7 C3.5 22.8 1.3 21.1 0.8 18.6 C0.3 15.9 2.4 13.1 5 12.1 z" id="j2" fill="#474B4F" /><path d="M3.5 17.3 C3.8 16 4.5 13 7.8 13 C11.1 13 14.7 16.7 16 17.7 C15.3 19.6 12.6 21.2 10.2 21.5 C6.8 21.9 4.5 20.7 3.5 17.3 z" id="k2" fill="#282421" /><path d="M10.4 15.2 C10.1 14.9 8.4 14.3 7.8 14.3 C7.2 14.3 6.6 14.6 6.5 15.2 C6.4 15.7 6.7 16.2 7.2 16.4 C7.6 16.7 8.1 16.7 8.6 16.8 C9.3 16.9 10.1 16.9 10.5 16.3 C10.7 15.9 10.7 15.5 10.4 15.2 z" id="l2" fill="#F5FAFC" /><path d="M8.7 5.1 C9.3 4.7 9.9 4.2 10.1 3.5 C10.2 2.9 9.9 2.2 9.4 1.8 C7.7 0.1 5.8 0.2 4.9 0.1 C1.8 -0.1 1.1 2.6 1.6 5.2 C2.5 10.3 5.9 7 8.7 5.1 z" id="m2" fill="#342520" /></g></g></g></g></g><g transform="translate(235.8952, 266.9009)" id="n2"><ellipse cx="32.5" cy="17.5" rx="37.3" ry="13.2" fill-opacity="0.15" id="o2" /><use xlink:href="#e" x="0.08" y="0" /></g></g><defs><g transform="translate(17.09519, 0.800995) translate(-135.2952, -293.601)" id="e" fill="#000"><path d="M118.2 302.7 C118.4 307.4 132.5 311.2 149.8 311.2 C167.1 311.2 181.2 307.4 181.4 302.7 C181.4 307.5 181.4 310.1 181.4 310.5 C181.4 315.3 167.3 319.1 149.8 319.1 C132.3 319.1 118.2 315.2 118.2 310.5 L118.2 302.7 L118.2 302.7 z" fill-opacity="0.4528" id="p2" fill="#593001" /><path d="M118.7 301.7 C118.9 306.4 133 310.2 150.3 310.2 C167.6 310.2 181.7 306.4 181.9 301.7 C181.9 306.5 181.9 309.1 181.9 309.5 C181.9 314.3 167.8 318.1 150.3 318.1 C132.8 318.1 118.7 314.2 118.7 309.5 L118.7 301.7 L118.7 301.7 z" id="q2" fill="#DA8113" /><linearGradient x1="46.0545" y1="-118.6926" x2="45.4656" y2="-118.6926" gradientUnits="userSpaceOnUse" gradientTransform="matrix(117.135, 0, 0, 28.4634, -5208.417, 3687.795)" id="r2"><stop offset="0%" stop-color="#D9952A" stop-opacity="1" /><stop offset="6.438854%" stop-color="#CA7519" stop-opacity="1" /><stop offset="30.54%" stop-color="#E3AD3A" stop-opacity="1" /><stop offset="51.05%" stop-color="#FFEC91" stop-opacity="1" /><stop offset="68.8%" stop-color="#E9BD44" stop-opacity="1" /><stop offset="86.24%" stop-color="#FFED6C" stop-opacity="1" /><stop offset="93.87%" stop-color="#F2D353" stop-opacity="1" /><stop offset="100%" stop-color="#F2B947" stop-opacity="1" /></linearGradient><path d="M118.2 301.6 C118.4 306.1 132.7 309.7 150.3 309.7 C167.9 309.7 182.2 306.1 182.4 301.6 C182.4 306.2 182.4 308.7 182.4 309 C182.4 313.5 168 317.2 150.3 317.2 C132.6 317.2 118.2 313.5 118.2 309 L118.2 301.6 L118.2 301.6 z" id="s2" style="fill:url(#r2)" /><linearGradient x1="45.4914" y1="-117.9547" x2="45.9407" y2="-117.5895" gradientUnits="userSpaceOnUse" gradientTransform="matrix(115.425, 0, 0, 29.925, -5125.077, 3826.124)" id="t2"><stop offset="0%" stop-color="#F4E072" stop-opacity="1" /><stop offset="100%" stop-color="#DB9427" stop-opacity="1" /></linearGradient><ellipse cx="150.3" cy="301.5" rx="31.6" ry="8.2" id="u2" style="fill:url(#t2)" /><linearGradient x1="45.4656" y1="-126.0065" x2="46.0545" y2="-126.0065" gradientUnits="userSpaceOnUse" gradientTransform="matrix(117.135, 0, 0, 18.6219, -5208.417, 2651.479)" id="v2"><stop offset="0%" stop-color="#D9952A" stop-opacity="1" /><stop offset="6.438854%" stop-color="#CA7519" stop-opacity="1" /><stop offset="30.54%" stop-color="#E3AD3A" stop-opacity="1" /><stop offset="51.05%" stop-color="#FFEC91" stop-opacity="1" /><stop offset="68.8%" stop-color="#E9BD44" stop-opacity="1" /><stop offset="86.24%" stop-color="#FFED6C" stop-opacity="1" /><stop offset="93.87%" stop-color="#F2D353" stop-opacity="1" /><stop offset="100%" stop-color="#F2B947" stop-opacity="1" /></linearGradient><path d="M119.2 299.9 C119 300.2 118.9 300.6 118.9 301 C118.9 305.5 132.9 309.2 150.3 309.2 C167.7 309.2 181.7 305.5 181.7 301 C181.7 300.6 181.6 300.3 181.4 299.9 C182 300.5 182.4 301.2 182.4 301.9 C182.4 306.4 168 310.1 150.3 310.1 C132.6 310.1 118.2 306.4 118.2 301.9 C118.2 301.3 118.6 300.6 119.2 299.9 z" id="w2" style="fill:url(#v2)" /><linearGradient x1="45.196" y1="-121.5895" x2="45.3746" y2="-120.6758" gradientUnits="userSpaceOnUse" gradientTransform="matrix(101.745, 0, 0, 23.94, -4458.332, 3199.41)" id="x2"><stop offset="0%" stop-color="#F8DD61" stop-opacity="1" /><stop offset="100%" stop-color="#EAA330" stop-opacity="1" /></linearGradient><ellipse cx="150.3" cy="300.8" rx="27.8" ry="6.6" id="y2" style="fill:url(#x2)" /><linearGradient x1="45.5694" y1="-134.267" x2="45.0221" y2="-134.267" gradientUnits="userSpaceOnUse" gradientTransform="matrix(101.745, 0, 0, 13.2525, -4458.332, 2077.223)" id="z2"><stop offset="0%" stop-color="#F4CA2F" stop-opacity="1" /><stop offset="51.38%" stop-color="#BF7737" stop-opacity="1" /><stop offset="100%" stop-color="#E4A929" stop-opacity="1" /></linearGradient><path d="M122.6 301.5 C122.5 301.3 122.4 301 122.4 300.8 C122.4 297.2 134.9 294.2 150.2 294.2 C165.5 294.2 178 297.1 178 300.8 C178 301 177.9 301.3 177.8 301.5 C176.3 298.2 164.5 295.6 150.1 295.6 C135.7 295.6 124.1 298.2 122.6 301.5 z" id="a3" style="fill:url(#z2)" /></g></defs><desc>L2555HAJOJB,eHYE/CXmzPxrQWed/Wl9xVKcXPYUTVbxtiNcEQXAtabIaOZiqCu2vJohHiHd3n/ESjeUj3CrpI895Hp0vxYfSTzdTPddX5vVwrR32X7lutYiAm+6MNuY2GZOZLt12p4t8Xh2uE1HXina/++2Y1T9pg==</desc></svg>