<?xml version="1.0" encoding="utf-8"?><!DOCTYPE svg PUBLIC "-//W3C//DTD SVG 1.1//EN" "http://www.w3.org/Graphics/SVG/1.1/DTD/svg11.dtd"><svg x="0" y="0" width="340px" height="340px" viewBox="0, 0, 340, 340" preserveAspectRatio="xMidYMid" font-size="0" id="a" enable-background="new 0 0 340 340" xmlns="http://www.w3.org/2000/svg" xmlns:xlink="http://www.w3.org/1999/xlink" xmlns:xml="http://www.w3.org/XML/1998/namespace" version="1.1"><g id="b" fill="#000"><g id="c"><g transform="translate(0, 0) translate(0, 224)" id="d"><ellipse cx="168.6" cy="53.1" rx="57.8" ry="12.8" fill-opacity="0.25" id="e" /></g><g id="f"><g transform="translate(135.3, 239.5) scale(0.75) translate(-135.3, -239.5) translate(86.8, 77.19998) translate(0, 161)" id="g"><path d="M0.4 6.2 C0.3 6.5 -0.6 7.7 0.7 12 C1.5 14.9 3.1 16.7 5.8 19.5 C9.2 23.1 11.9 25.4 15 26.2 C18.1 26.9 25.8 27.2 29.5 28.1 C33.5 29.1 38.9 32.7 41.2 34 C46 36.8 58.3 35.8 61.1 30.3 C62.5 27.5 64.6 23.5 64.1 19.5 C63.5 15.4 60.2 11.4 57.5 12 C52 13.2 48.6 13.1 43.4 13.8 C38.1 14.5 35.9 10.9 29.4 10.9 C26.4 10.9 22.2 10.1 16.3 10.9 C13.7 11.2 8.7 9.6 6.8 8.3 C5.9 7.7 3.6 5.9 2.7 5.5 C1.5 5 0.9 5.2 0.4 6.2 z" id="h" fill="#F4DFA9" /><g transform="translate(0, 5)" id="i"><path d="M37.6 7.9 C34.9 7.5 32.7 6.1 28.6 6.5 C26.1 6.8 22.4 6.5 17.5 7.7 C15.3 8.2 11 7.3 9.2 6.3 C8.4 5.9 6.3 4.6 5.5 4.3 C4.4 4 4 4.2 3.6 5.1 C3.6 5.4 2.9 6.5 4.4 10 C5.3 12.4 6.8 13.8 9.4 15.9 C12.6 18.6 15.1 20.3 17.8 20.8 C20.5 21.1 27 20.7 30.2 21.1 C33.7 21.6 38.6 24.2 40.6 25.1 C44.9 27 55.2 25.1 57.1 20.2 C58 17.7 59.5 14.1 58.7 10.8 C58.4 9.5 57.7 8.2 56.9 7.2 C57.1 7.2 57.3 7.1 57.5 7.1 C60.2 6.5 63.5 10.5 64.1 14.6 C64.6 18.6 62.5 22.6 61.1 25.4 C58.3 30.8 46 31.8 41.2 29 C38.9 27.7 33.5 24.1 29.5 23.1 C25.8 22.2 18.1 21.9 15 21.2 C11.9 20.4 9.2 18.1 5.8 14.5 C3.1 11.7 1.5 9.9 0.7 7 C-0.6 2.7 0.3 1.5 0.4 1.2 C0.9 0.2 1.5 0 2.7 0.5 C3.6 0.9 5.9 2.7 6.8 3.3 C8.7 4.6 13.7 6.2 16.3 5.9 C22.2 5.1 26.4 5.9 29.4 5.9 C33 5.9 35.3 7 37.6 7.9 z" fill-opacity="0.3" id="j" /></g></g><g transform="translate(120.5, 273.3) scale(1.204047) translate(-120.5, -273.3) translate(-289, 62.09998) translate(20, 150)" id="k"><path d="M418 16.4 C418 16.4 415.5 9 413.5 8.1 C411.5 7.2 409.1 5.1 402.7 6.1 C396.3 7.1 391.2 9.7 388.3 13.1 C385.4 16.4 382.6 26.3 385.4 31.7 C387.3 35.3 390.5 40 395.1 45.6 C389.5 45.6 386.3 46.1 385.4 47 C384.1 48.4 382.7 53.9 384.1 57 C385.4 60 387.5 64.2 393.6 63.9 C399.7 63.7 414.1 60.2 416.6 59.1 C419.1 58 417.8 40.7 417.8 39.4 C417.7 13 418 16.4 418 16.4 z" id="l" fill="#C08A3F" /><path d="M418 16.4 C418 16.4 417.7 12.9 417.8 39.4 C417.8 40.7 419.1 58 416.6 59.1 C414.1 60.2 399.7 63.7 393.6 63.9 C387.5 64.2 385.4 60 384.1 57 C382.7 53.9 384.1 48.4 385.4 47 C386.3 46.1 389.5 45.6 395.1 45.6 C390.5 40 387.3 35.3 385.4 31.7 C382.6 26.3 385.4 16.4 388.3 13.1 C391.2 9.7 396.3 7.1 402.7 6.1 C409.1 5.1 411.5 7.2 413.5 8.1 C415.5 9.1 418 16.4 418 16.4 z M416.7 16.6 C416.7 16.6 414.4 9.8 412.5 8.9 C410.6 8 408.4 6.1 402.5 7.1 C396.6 8.1 391.9 10.4 389.3 13.6 C386.6 16.6 384 25.8 386.6 30.8 C388.4 34.1 393.9 41.7 398.2 46.8 C393 46.8 387.9 47.2 387.1 48 C385.9 49.3 384.1 51.2 385.4 54.1 C386.6 56.9 388.5 60.7 394.2 60.5 C399.8 60.3 413.1 57.1 415.4 56.1 C417.7 55.1 416.5 39.1 416.5 37.9 C416.4 13.5 416.7 16.6 416.7 16.6 z" opacity="0.15" id="m" /></g><g transform="translate(217.4, 273.3) scale(1.204047) translate(-217.4, -273.3) translate(-283.5, 62.09998) translate(106.5, 179.5) scale(-1, 1) translate(-106.5, -179.5) translate(89, 150)" id="n"><path d="M-348.6 16.4 C-348.6 16.4 -351.1 9 -353.1 8.1 C-355.1 7.2 -357.5 5.1 -363.9 6.1 C-370.3 7.1 -375.4 9.7 -378.3 13.1 C-381.2 16.4 -384 26.3 -381.2 31.7 C-379.3 35.3 -376.1 40 -371.5 45.6 C-377.1 45.6 -380.3 46.1 -381.2 47 C-382.5 48.4 -383.9 53.9 -382.5 57 C-381.2 60 -379.1 64.2 -373 63.9 C-366.9 63.7 -352.5 60.2 -350 59.1 C-347.5 58 -348.8 40.6 -348.8 39.3 C-348.8 13 -348.6 16.4 -348.6 16.4 z" id="o" fill="#C08A3F" /><path d="M-348.6 16.4 C-348.6 16.4 -348.8 12.9 -348.8 39.3 C-348.8 40.6 -347.5 58 -350 59.1 C-352.5 60.2 -366.9 63.7 -373 63.9 C-379.1 64.2 -381.2 60 -382.5 57 C-383.9 53.9 -382.5 48.4 -381.2 47 C-380.3 46.1 -377.1 45.6 -371.5 45.6 C-376.1 40 -379.3 35.3 -381.2 31.7 C-384 26.3 -381.2 16.4 -378.3 13.1 C-375.4 9.7 -370.3 7.1 -363.9 6.1 C-357.5 5.1 -355.1 7.2 -353.1 8.1 C-351.1 9.1 -348.6 16.4 -348.6 16.4 z M-350 16.5 C-350 16.5 -352.3 9.7 -354.1 8.9 C-355.9 8.1 -358.1 6.1 -364 7.1 C-369.9 8.1 -374.6 10.3 -377.3 13.5 C-380 16.5 -382.5 25.6 -380 30.6 C-378.2 33.9 -373.6 41.1 -369.3 46.3 C-374.4 46.3 -379 47.1 -379.8 48 C-381 49.3 -382.4 51 -381.1 53.9 C-379.9 56.7 -378 60.5 -372.4 60.2 C-366.8 60 -353.5 56.8 -351.2 55.8 C-348.9 54.8 -350.1 38.8 -350.1 37.6 C-350.2 13.4 -350 16.5 -350 16.5 z" opacity="0.15" id="p" /></g><g transform="translate(85.90001, 85.79997) translate(35, 41)" id="q"><path d="M14.8 19.9 C11.3 33.7 12.9 36.6 9.3 47.7 C5.7 58.8 1.3 70.5 3.2 87.6 C4.6 100.8 11.8 132.8 17.6 146.9 C19.3 151.1 22.5 152.3 23.4 152.6 C27.2 154.2 66.3 154.3 72.2 152.6 C73.3 152.3 76.3 151.4 77.8 148.1 C84.6 134.1 92.8 97 94.1 87.6 C96.2 75.3 92.7 55.1 88.5 47.9 C82.5 37.5 82.5 23 81.3 20.8 C79.3 16.1 75.6 10.6 66.6 4.4 C63.9 2.5 51.7 0.7 49.1 0.8 C45.4 0.9 37.4 2 34.5 4.5 C28.5 9.6 16.7 12.5 14.8 19.9 z" id="r" fill="#F4DFA9" /><path d="M14.8 19.9 C16.7 12.5 28.5 9.6 34.5 4.5 C37.4 2 45.4 0.9 49.1 0.8 C51.7 0.7 63.9 2.5 66.6 4.4 C75.6 10.6 79.3 16.1 81.3 20.8 C82.5 23 82.5 37.5 88.5 47.9 C92.7 55.1 96.2 75.3 94.1 87.6 C92.8 97 84.6 134.1 77.8 148.1 C76.3 151.4 73.3 152.3 72.2 152.6 C66.3 154.3 27.2 154.2 23.4 152.6 C22.5 152.3 19.3 151.1 17.6 146.9 C11.8 132.8 4.6 100.8 3.2 87.6 C1.3 70.5 5.7 58.8 9.3 47.7 C12.9 36.6 11.3 33.7 14.8 19.9 z M16.2 20.2 C12.8 33.5 14.4 36.3 10.9 46.9 C7.4 57.6 3.2 68.8 5 85.2 C6.4 97.8 13.3 128.6 18.9 142.1 C20.5 146.1 23.6 147.3 24.4 147.5 C28.1 149.1 65.6 149.2 71.2 147.5 C72.3 147.3 75.2 146.4 76.6 143.2 C83.1 129.8 91 94.2 92.3 85.2 C94.3 73.4 90.9 54 86.9 47.1 C81.1 37.1 81.1 23.2 80 21.1 C78.1 16.6 74.5 11.3 65.9 5.4 C63.3 3.5 51.6 1.8 49.1 1.9 C45.5 2 37.9 3.1 35.1 5.5 C29.3 10.3 18 13.1 16.2 20.2 z" opacity="0.15" id="s" /></g><g transform="translate(118.495, 171.745) scale(1.3, 1.05169) translate(-130.3, -177.7) translate(90.90001, 84.79997) translate(78.5, 145.5) scale(-1, 1) translate(-78.5, -145.5) translate(39, 92)" id="t"><path d="M68.1 2.7 C65.6 5.6 57.8 23.3 40.2 24.2 C21.5 24.9 13.3 5.5 10.6 0.9 C7 8.7 1.1 13.8 0.5 26.6 C-0.1 39.4 4.4 46.5 6.7 52.8 C8.4 57.4 10.7 64.5 12.6 73.4 C13.3 76.6 15 81.2 15 84.3 C15.3 96.3 17.5 91.7 13.2 94.2 C8.9 96.7 5.2 101.6 6.7 104.5 C8.2 107.4 29.2 104.1 30.2 102.9 C30.7 102.3 30.9 95.4 30.7 74 C30.6 70.2 29.5 64.3 29.2 57 C29.1 53.6 30 50.6 29.7 46.2 C33.7 48.7 35.2 49.7 38.2 49.6 C41 49.7 42.2 48 46.8 45.5 C46.8 49.8 47.8 53.2 47.9 56.9 C48 63.8 47.3 70.3 47.2 74 C46.9 94.5 47.2 102.3 48 103.5 C49.2 105.2 56.8 106.1 70.8 106 C72.5 103.2 72.5 100.8 70.8 98.8 C69.1 96.8 66.2 94.7 62.2 92.4 C63.3 83.7 63.9 81.2 65.2 75.5 C66.2 71 67.7 62.7 68.7 60.2 C72.3 51.4 78.4 40.6 78.5 28.7 C78.6 16.8 72.4 8 68.1 2.7 z" id="u" fill="#F0B756" /><path d="M68.1 2.7 C72.4 8 78.5 16.8 78.4 28.7 C78.3 40.6 72.2 51.4 68.6 60.2 C67.6 62.8 66 71 65.1 75.5 C63.9 81.2 63.2 83.7 62.1 92.4 C66.1 94.7 69 96.8 70.7 98.8 C72.4 100.8 72.4 103.2 70.7 106 C56.7 106.1 49.1 105.2 47.9 103.5 C47.1 102.3 46.8 94.5 47.1 74 C47.2 70.3 47.9 63.8 47.8 56.9 C47.7 53.1 46.7 49.8 46.7 45.5 C42.1 48 40.9 49.7 38.1 49.6 C35.1 49.7 33.6 48.7 29.6 46.2 C30 50.6 29 53.6 29.2 57 C29.5 64.3 30.6 70.2 30.7 74 C30.9 95.4 30.7 102.3 30.2 102.9 C29.2 104.1 8.2 107.4 6.7 104.5 C5.2 101.6 8.9 96.7 13.2 94.2 C17.5 91.7 15.3 96.3 15 84.3 C14.9 81.1 13.2 76.6 12.6 73.4 C10.7 64.5 8.4 57.5 6.7 52.8 C4.4 46.5 -0.1 39.4 0.5 26.6 C1.1 13.8 7 8.7 10.6 0.9 C13.3 5.5 21.5 24.9 40.2 24.2 C57.8 23.3 65.6 5.6 68.1 2.7 z M68.1 3.9 C66.9 6.2 63.6 12.3 57.5 17.9 C52.5 22.5 44.3 27.3 38.5 27.3 C34.8 27.5 26 22.6 22.4 19.5 C17.8 15.6 11.8 5.2 10.6 1.4 C7.1 8.9 2.7 15.8 2.1 28 C1.5 40.2 5.9 45.5 8.1 51.5 C9.7 55.9 12.8 63.9 14.6 72.4 C15.2 75.4 16.9 80.5 17 83.5 C17.3 94.9 18.7 92.8 14.6 95.2 C10.5 97.6 7.6 99.2 9 101.9 C10.4 104.6 27 101.6 28 100.4 C28.5 99.8 28.8 95.8 28.6 75.4 C28.5 71.7 27.6 64.9 27.3 57.9 C27.2 54.7 26.9 46.1 26.6 41.9 C30.4 44.3 35 48 37.9 47.9 C40.6 48 45.9 43.8 50.3 41.4 C50.3 45.5 50.1 52.2 50.1 55.8 C50.2 62.3 49.2 68.8 49.2 72.3 C48.9 91.8 49.3 99.6 50 100.8 C51.1 102.4 55.2 104 68.5 103.9 C70.1 101.2 70.8 100.5 69.2 98.6 C67.6 96.7 64.2 95 60.4 92.8 C61.5 84.5 62.1 79.7 63.3 74.3 C64.2 70 65.8 62 66.8 59.5 C70.2 51.1 76.5 41.1 76.6 29.8 C76.6 18.6 72.2 8.9 68.1 3.9 z" opacity="0.15" id="v" /></g></g><g transform="translate(169.6, 177.3) scale(0.8378378) translate(-169.6, -177.3)" id="w"><g transform="translate(109.9, 66.29997) translate(11, 26)" id="x"><path d="M5.5 77 C0.1 65.8 -0.6 51.2 1 39.1 C3.2 27.2 8.5 25.2 15.8 17.9 C23.1 10.6 25.8 0.2 49.1 0.3 C72.3 0.4 73.5 8.3 79.9 14.4 C86.3 20.4 92.4 23.4 96.2 30.6 C100 37.8 101.2 59.8 96.2 71.2 C92 80.9 80.7 92.2 66.3 92.4 C54.5 93 51.9 93.8 40.2 93.8 C28.5 93.8 11.5 88.2 5.5 77 z" id="y" fill="#FCF6CA" /><path d="M5.5 77 C0.1 65.8 -0.6 51.2 1 39.1 C3.2 27.2 8.5 25.2 15.8 17.9 C23.1 10.6 25.8 0.2 49.1 0.3 C72.3 0.4 73.5 8.3 79.9 14.4 C86.3 20.4 92.4 23.4 96.2 30.6 C100 37.8 101.2 59.8 96.2 71.2 C92 80.9 80.7 92.2 66.3 92.4 C54.5 93 51.9 93.8 40.2 93.8 C28.5 93.8 11.5 88.2 5.5 77 z M7.3 74.8 C13 85.6 29.3 90.9 40.6 90.9 C51.9 90.9 54.3 90.1 65.7 89.6 C79.5 89.4 90.4 78.6 94.4 69.2 C99.2 58.3 98 37.1 94.4 30.2 C90.8 23.3 84.9 20.4 78.7 14.6 C72.6 8.8 71.4 1.2 49.1 1.2 C26.7 1.1 24.1 11.1 17.1 18.1 C10.1 25.1 5 27 2.9 38.4 C1.4 50 2.1 64.1 7.3 74.8 z" opacity="0.15" id="z" /></g><g transform="translate(143.4, 108.5) scale(0.9) translate(-138.4, -112.5) translate(91.30001, 67.39997) translate(16, 0)" id="a1"><g transform="translate(31.56164, 28.5) scale(-1, 1) translate(-31.56164, -28.5) translate(9.061636, 0)" id="b1"><path d="M0.2 35 C-0.4 31.9 9.6 27.1 12.5 24 C13.3 23.1 18 19.1 15.2 19.8 C15.6 17.3 18.1 17.5 19.3 16.2 C19.9 15.5 17.3 16.4 18 15.7 C18.5 15.1 22.7 11.7 23.1 11.1 C23.8 10.2 21.7 10.9 22.2 10.2 C26 5.5 25.5 7.2 27.3 5.2 C28.7 3.7 31 1.7 32.1 0.9 C34.5 -0.8 37.7 1.8 38.7 7.9 C38.9 9.5 40.7 13.5 41 15.1 C41.3 16.5 39.9 14.5 40 15.6 C40.1 16.9 42.6 23 41.3 21.8 C40 20.6 41.4 25.2 41.3 26.9 C41.1 31 40 50.1 42.8 41.1 C42.8 43.7 42.4 46.3 41 48.2 C41.6 46.8 43.2 46.6 44.2 45.5 C44.2 49.8 41.6 51.6 40.9 53.6 C40.7 54.2 40.4 54.8 39.7 55.4 C38.5 56.6 34.8 56.5 34.2 55.5 C33.3 53.9 31.7 51.1 29.3 49.2 C26.9 47.3 26.7 43.7 21.3 41.4 C18.8 40.3 15.4 38.3 11.7 37.1 C7.7 35.8 0.5 36.6 0.2 35 z" id="c1" fill="#C08A3F" /><path d="M0.2 35 C-0.4 31.9 9.6 27.1 12.5 24 C13.3 23.1 18 19.1 15.2 19.8 C15.6 17.3 18.1 17.5 19.3 16.2 C19.9 15.5 17.3 16.4 18 15.7 C18.5 15.1 22.7 11.7 23.1 11.1 C23.8 10.2 21.7 10.9 22.2 10.2 C26 5.5 25.5 7.2 27.3 5.2 C28.7 3.7 31 1.7 32.1 0.9 C34.5 -0.8 37.7 1.8 38.7 7.9 C38.9 9.5 40.7 13.5 41 15.1 C41.3 16.5 39.9 14.5 40 15.6 C40.1 16.9 42.6 23 41.3 21.8 C40 20.6 41.4 25.2 41.3 26.9 C41.1 31 40 50.1 42.8 41.1 C42.8 43.7 42.4 46.3 41 48.2 C41.6 46.8 43.2 46.6 44.2 45.5 C44.2 49.8 41.6 51.6 40.9 53.6 C40.7 54.2 40.4 54.8 39.7 55.4 C38.5 56.6 34.8 56.5 34.2 55.5 C33.3 53.9 31.7 51.1 29.3 49.2 C26.9 47.3 26.7 43.7 21.3 41.4 C18.8 40.3 15.4 38.3 11.7 37.1 C7.7 35.8 0.5 36.6 0.2 35 z M5 33.3 C5.3 34.7 11.4 34 14.7 35.1 C17.8 36.2 20.7 37.9 22.8 38.9 C27.4 40.9 27.5 44.1 29.6 45.8 C31.6 47.5 33 49.9 33.7 51.3 C34.2 52.2 36.9 53.3 37.9 52.3 C38.5 51.8 42.4 51.2 42.4 47.5 C41.6 48.5 40.1 48.1 39.6 49.3 C40.8 47.6 41.9 46.2 41.9 43.9 C39.5 51.8 40.1 30.7 40.3 27.1 C40.4 25.6 39.2 19.3 40.3 20.4 C41.4 21.5 38.4 15 38.3 13.8 C38.2 12.8 39.9 14.7 39.6 13.5 C39.3 12.1 37.6 10.8 37.4 9.4 C36.6 4 34.5 0.3 32.4 1.8 C31.5 2.5 28.9 4.6 27.7 5.9 C26.2 7.7 26.9 5.4 23.7 9.6 C23.3 10.2 25.5 10.2 24.9 11 C24.6 11.5 20.7 14.9 20.2 15.4 C19.6 16 22 15.3 21.5 15.9 C20.5 17 17.9 17.3 17.6 19.5 C20 18.9 15.8 22.8 15.1 23.6 C13 26.3 4.5 30.5 5 33.3 z" opacity="0.15" id="d1" /><path d="M15.1 33.9 C13 33.2 12.7 33.4 12.9 32.2 C13 31.5 15.6 29.8 17.9 26.4 C18.7 25.2 18.3 27.9 18.9 26.4 C19.7 24.6 20.5 22.2 21 21.3 C21.6 20.3 21.1 23.1 22.1 21.3 C22.3 20.9 23.1 17 23.4 16.4 C24 15.3 24.1 17.7 24.5 16.4 C25 14.5 25.7 13.7 26.8 11.9 C28.2 9.6 29.9 6.6 30.5 6.4 C32.8 5.4 34.5 8.4 35.2 11.9 C35.9 15.4 35.8 17.6 37.1 20 C38.4 22.4 38.7 22.5 38.4 28.5 C38.1 34.5 36.2 35.9 35.2 40.4 C34.2 44.9 34.5 46.3 31.4 44.8 C29.3 43.8 29.5 43.3 32 43.3 C31.2 41.3 29.4 39.8 26.7 39 C22.7 37.8 18.4 36.5 20.6 35.2 C22.1 34.3 22.2 34 21 34.2 C18.5 34.4 16.5 34.3 15.1 33.9 z" id="e1" fill="#FCF6CA" /><path d="M21.8 37.4 C22.8 37.1 23.5 36.3 24.1 35.1 C24.7 33.9 24.9 32.8 24.9 31.9 L23.3 33.7 C23.6 31.1 24.3 29.1 25.4 27.6 C26.5 26.1 27.1 24.9 27.1 23.8 C25.6 24.8 24.7 25.5 24.4 26.1 C24 26.9 24.3 22.6 26.2 20.2 C28.1 17.8 30.8 14.3 31 12.2 C31.6 18.3 30.3 21.1 31 22.5 C31.7 23.8 33.2 30.2 31.7 33.3 C30.7 35.4 29.3 37.4 27.5 39.4 C26.6 39.3 25.6 39.1 24.4 38.8 C23.3 38.4 22.4 38 21.8 37.4 z" id="f1" fill="#C08A3F" /><path d="M21.8 37.4 C22.8 37.1 23.5 36.3 24.1 35.1 C24.7 33.9 24.9 32.8 24.9 31.9 L23.3 33.7 C23.6 31.1 24.3 29.1 25.4 27.6 C26.5 26.1 27.1 24.9 27.1 23.8 C25.6 24.8 24.7 25.5 24.4 26.1 C24 26.9 24.3 22.6 26.2 20.2 C28.1 17.8 30.8 14.3 31 12.2 C31.6 18.3 30.3 21.1 31 22.5 C31.7 23.8 33.2 30.2 31.7 33.3 C30.7 35.4 29.3 37.4 27.5 39.4 C26.6 39.3 25.6 39.1 24.4 38.8 C23.3 38.4 22.4 38 21.8 37.4 z" id="g1" fill="#665F57" /></g></g><g transform="translate(197.5, 108.5) scale(0.9) translate(-202.5, -112.5) translate(95.60001, 67.39997) translate(104, 29) scale(-1, 1) translate(-104, -29) translate(81, 0)" id="h1"><g transform="translate(22.81199, 29) scale(-1, 1) translate(-22.81199, -29) translate(0.31199, 0)" id="i1"><path d="M0.2 35 C-0.4 31.9 8.7 26.6 11.7 23.5 C13.1 22 15.5 19.9 17.8 17.7 C18.6 17 16.6 17 17.3 16.3 C18 15.5 19 15.9 20.3 14.9 C21.6 13.9 23.3 11.6 23.6 11 C23.9 10.5 22 11.5 22.3 11 C24.5 7.6 30.1 2.5 32.2 1 C34.6 -0.7 37.8 1.9 38.8 8 C39 9.4 41.5 15.4 42 17.1 C42.4 18.5 40.3 15.5 40.5 17.1 C40.9 19.9 41.9 24 42 25.9 C42.1 27.3 40.6 23.3 40.5 24.9 C40.5 25.9 41.2 29.8 41.1 31.9 C40.8 38.6 40.7 48.2 42.8 41.3 C42.8 43.9 42.4 46.5 41 48.4 C41.6 47 43.2 46.8 44.2 45.7 C44.2 51.4 39.5 52.8 41 55.8 C42.5 58.8 35.5 56.5 35.5 54.6 C35.5 52.7 31.7 51.3 29.3 49.4 C26.9 47.5 26.7 43.9 21.3 41.6 C18.8 40.5 15.4 38.5 11.7 37.3 C7.7 35.8 0.5 36.6 0.2 35 z" id="j1" fill="#C08A3F" /><path d="M0.2 35 C-0.4 31.9 8.7 26.6 11.7 23.5 C13.1 22 15.5 19.9 17.8 17.7 C18.6 17 16.6 17 17.3 16.3 C18 15.5 19 15.9 20.3 14.9 C21.6 13.9 23.3 11.6 23.6 11 C23.9 10.5 22 11.5 22.3 11 C24.5 7.6 30.1 2.5 32.2 1 C34.6 -0.7 37.8 1.9 38.8 8 C39 9.4 41.5 15.4 42 17.1 C42.4 18.5 40.3 15.5 40.5 17.1 C40.9 19.9 41.9 24 42 25.9 C42.1 27.3 40.6 23.3 40.5 24.9 C40.5 25.9 41.2 29.8 41.1 31.9 C40.8 38.6 40.7 48.2 42.8 41.3 C42.8 43.9 42.4 46.5 41 48.4 C41.6 47 43.2 46.8 44.2 45.7 C44.2 51.4 39.5 52.8 41 55.8 C42.5 58.8 35.5 56.5 35.5 54.6 C35.5 52.7 31.7 51.3 29.3 49.4 C26.9 47.5 26.7 43.9 21.3 41.6 C18.8 40.5 15.4 38.5 11.7 37.3 C7.7 35.8 0.5 36.6 0.2 35 z M5.1 32.3 C5.4 33.7 11.1 33.4 14.7 34.8 C18 35.9 20.8 38.2 23.1 39.2 C28 41.3 28.1 43.8 30.3 45.6 C32.5 47.3 35 49.5 35 51.2 C35 52.9 41.3 55 40 52.3 C38.6 49.6 43.3 52.8 43.3 47.7 C42.4 48.7 40.6 48 40.1 49.3 C41.4 47.6 42.1 46.2 42.1 43.9 C40.2 50.1 39.8 36.8 40.1 30.8 C40.2 28.9 39.7 24.4 39.7 23.5 C39.8 22.1 41.1 24.7 41 23.5 C40.9 21.8 40.1 19.3 39.7 16.7 C39.5 15.3 41 16.6 40.6 15.3 C40.1 13.8 38.1 10.4 37.9 9.2 C37 3.7 34.9 0.4 32.7 2 C30.8 3.4 26 6.8 24 9.9 C23.7 10.4 25.5 10.2 25.2 10.6 C24.9 11.1 22.3 14.5 21.2 15.4 C20 16.3 19.1 15.9 18.5 16.7 C17.9 17.3 20.4 17.5 19.7 18.1 C17.6 20.1 15.4 23.2 14.1 24.5 C11.5 27.2 4.6 29.5 5.1 32.3 z" opacity="0.15" id="k1" /><path d="M15.1 33.9 C13 33.2 12.7 33.4 12.9 32.2 C13 31.6 15.1 32 17.3 28.6 C18.1 27.4 18.4 25.1 19.1 23.7 C19.6 22.6 20 23.9 20.6 22.7 C21.1 21.7 21.8 18.2 22 17.8 C22.4 17 22.9 18 23.6 16.9 C24.6 15.2 25.5 14 26.7 12 C28 9.8 29.5 6.9 30.4 6.5 C32.7 5.5 34.4 8.5 35.1 12 C35.8 15.5 35.7 17.7 37 20.1 C38.3 22.5 38.6 22.6 38.3 28.6 C38 34.6 36.1 36 35.1 40.5 C34.1 45 34.4 46.4 31.3 44.9 C29.2 43.9 29.4 43.4 31.9 43.4 C31.1 41.4 29.3 39.9 26.6 39.1 C22.6 37.9 18.3 36.6 20.5 35.3 C22 34.4 22.1 34.1 20.9 34.3 C18.5 34.4 16.5 34.3 15.1 33.9 z" id="l1" fill="#FCF6CA" /><path d="M21.8 37.4 C22.8 37.1 23.5 36.3 24.1 35.1 C24.7 33.9 24.9 32.8 24.9 31.9 L23.3 33.7 C23.6 31.1 24.3 29.1 25.4 27.6 C26.5 26.1 27.1 24.9 27.1 23.8 C25.6 24.8 24.7 25.5 24.4 26.1 C24 26.9 24.3 22.6 26.2 20.2 C28.1 17.8 30.8 14.3 31 12.2 C31.6 18.3 30.3 21.1 31 22.5 C31.7 23.8 33.2 30.2 31.7 33.3 C30.7 35.4 29.3 37.4 27.5 39.4 C26.6 39.3 25.6 39.1 24.4 38.8 C23.3 38.4 22.4 38 21.8 37.4 z" id="m1" fill="#C08A3F" /><path d="M21.8 37.4 C22.8 37.1 23.5 36.3 24.1 35.1 C24.7 33.9 24.9 32.8 24.9 31.9 L23.3 33.7 C23.6 31.1 24.3 29.1 25.4 27.6 C26.5 26.1 27.1 24.9 27.1 23.8 C25.6 24.8 24.7 25.5 24.4 26.1 C24 26.9 24.3 22.6 26.2 20.2 C28.1 17.8 30.8 14.3 31 12.2 C31.6 18.3 30.3 21.1 31 22.5 C31.7 23.8 33.2 30.2 31.7 33.3 C30.7 35.4 29.3 37.4 27.5 39.4 C26.6 39.3 25.6 39.1 24.4 38.8 C23.3 38.4 22.4 38 21.8 37.4 z" id="n1" fill="#665F57" /></g></g><g id="o1"><g transform="translate(106.1, 95.49996) translate(32, 35)" id="p1"><g transform="translate(0, 8)" id="q1"><path d="M64 23.9 C61.8 21.3 58.3 20.9 55.7 19 C52.7 16.8 52.1 14 50.4 10.8 C46.5 3.6 41 0.8 33.5 0.7 C26.9 0.7 21.5 2.7 17.6 9 C16 11.6 15.2 15.2 13.1 17.5 C11 19.8 7.8 20.1 5.4 21.8 C1.5 24.6 -1.2 31.1 0.6 36 C2 39.8 8.4 42.3 12.3 43.7 C24.5 48.1 40.4 48 52.7 44.3 C56.1 43.3 59.5 41.8 62.5 39.8 C65.7 37.6 66.6 36.4 66.6 32.6 C66.5 29.7 66 26.2 64 23.9 z" id="r1" fill="#FFF" /><path d="M64 23.9 C66 26.2 66.5 29.7 66.6 32.6 C66.6 36.4 65.7 37.6 62.5 39.8 C59.5 41.8 56.1 43.3 52.7 44.3 C40.4 48 24.5 48.1 12.3 43.7 C8.4 42.3 2 39.8 0.6 36 C-1.2 31.1 1.5 24.6 5.4 21.8 C7.8 20.1 11 19.8 13.1 17.5 C15.2 15.2 16 11.6 17.6 9 C21.5 2.7 26.9 0.7 33.5 0.7 C41 0.8 46.5 3.6 50.4 10.8 C52.1 14 52.7 16.8 55.7 19 C58.3 20.9 61.8 21.3 64 23.9 z M61.8 23.5 C59.8 21 56.5 20.7 54.1 18.9 C51.3 16.8 50.8 14.2 49.2 11.3 C45.6 4.6 40.5 1.9 33.5 1.9 C27.4 1.9 22.3 3.7 18.7 9.6 C17.2 12 16.5 15.4 14.5 17.5 C12.6 19.6 9.6 19.9 7.4 21.5 C3.7 24.1 1.2 30.2 2.9 34.7 C4.2 38.3 10.2 40.6 13.8 41.9 C25.1 46 39.9 45.9 51.3 42.4 C54.5 41.5 57.7 40.1 60.4 38.3 C63.4 36.2 64.3 35.1 64.3 31.6 C64.2 28.9 63.7 25.6 61.8 23.5 z" opacity="0.15" id="s1" /><g transform="translate(19, 14)" id="t1" fill="#282421"><path d="M7 2.2 C6.3 1.8 5.3 2.4 5.2 3.3 C5.2 4.1 6.8 4.9 7.6 4.5 C8.3 4.1 7.8 2.9 7.2 2.4" id="u1" /><path d="M2.1 0.7 C1.4 0.3 0.4 0.9 0.3 1.8 C0.3 2.6 1.3 3.7 2.1 3.3 C2.9 2.9 2.9 1.3 2.3 0.8" id="v1" /><path d="M2.1 7.4 C1.4 7 0.4 7.6 0.3 8.5 C0.3 9.3 1.4 10.2 2.1 9.9 C2.8 9.5 2.9 8.1 2.2 7.6" id="w1" /><path d="M22 2.2 C22.7 1.8 23.7 2.4 23.8 3.3 C23.8 4.1 22.2 4.9 21.4 4.5 C20.7 4.1 21.2 2.9 21.8 2.4" id="x1" /><path d="M26.9 0.7 C27.6 0.3 28.6 0.9 28.7 1.8 C28.7 2.6 27.7 3.7 26.9 3.3 C26.2 2.9 26.1 1.3 26.7 0.8" id="y1" /><path d="M26.9 7.4 C27.6 7 28.6 7.6 28.7 8.5 C28.7 9.3 27.6 10.2 26.9 9.9 C26.2 9.5 26.1 8.1 26.8 7.6" id="z1" /></g></g></g><g transform="translate(93.20001, 86.69994) translate(65, 74)" id="a2"><path d="M4.2 17 C7.4 16.4 9.1 15 10.5 13.9 C11.4 13.2 12.4 12.3 13.4 11.1 C14.7 12.7 15.6 13.7 16.2 14.1 C17 14.8 19.4 16.3 20.9 16.9 C22.4 17.5 26.3 17.8 26.3 17.2 C26.3 16.6 21.8 15.9 20.2 14.7 C18.6 13.5 17 12.5 15.9 11 C14.9 9.6 15.3 8.6 15.2 7 C15.1 5 15.4 2.8 15.5 1.3 C15.6 -0.7 12.3 -0.1 12.3 1.3 C12.3 2.7 12.3 4.8 12.3 6.6 C12.3 8.4 11.6 10.6 10.2 11.8 C8.8 13 6.9 14.5 4.8 15.3 C3.5 15.8 0.8 16.4 0.9 17 C0.8 17.4 2.9 17.3 4.2 17 z" id="b2" fill="#282421" /></g><g transform="translate(104.6, 57.09996) translate(59, 84)" id="c2"><g id="d2"><path d="M14.8 1.5 C14 0 10.9 2 8 2 C5.1 2 2 0 1.2 1.5 C0.4 3 0.7 6.3 2.4 8.9 C3.6 10.7 8 10.9 8 10.9 C8 10.9 12.4 10.6 13.6 8.9 C15.3 6.3 15.6 3 14.8 1.5 z" id="e2" fill="#282421" /><path d="M9.3 3.5 C8.9 3.8 8.4 4.1 8.4 4.6 C8.4 5 8.8 5.3 9.1 5.4 C9.5 5.5 9.9 5.5 10.2 5.4 C11.1 5.3 12 5.2 12.6 4.7 C13.4 4 13.6 2.8 12.5 2.5 C11.6 2.2 10.1 3 9.3 3.5 z" id="f2" fill="#F5FAFC" /></g></g><g transform="translate(-287.1, 53.79996) translate(43, 64)" id="g2"><path d="M402.1 16.9 C403.3 14.6 402.9 13.9 402.9 12.1 C402.9 10.3 402.7 8.4 400.1 7 C396.5 5.3 392.3 5.2 389.8 6.5 C386.4 8.3 383.6 10 384.3 11.5 C385.1 13.2 388 17.1 389.4 17.9 C392.1 19.5 396.1 20.2 398.2 19.7 C399.8 19.3 401.2 18.7 402.1 16.9 z" id="h2" fill="#CAC3C0" /><path d="M401.2 18.1 C402 17.4 401.6 14.8 401.2 13.6 C400.7 12.5 399.2 10.9 397 10.3 C394.1 9.6 393.6 9.7 391.1 10 C389.8 10.1 388.6 9.9 388.2 10.6 C387.6 11.3 387.5 12.5 387.9 13.6 C388.3 14.7 388.4 15.3 389.1 16.1 C389.8 17 390.7 17.7 391.3 18.1 C393.5 19.3 396.8 19.9 398.5 19.5 C399.7 19.2 400.4 18.8 401.2 18.1 z" id="i2" fill="#1F2123" /><path d="M396 16.2 C394.9 16.2 393.9 15.3 393.9 14.2 C393.8 13.1 394 12.5 395 12.7 C395.9 12.8 396.6 12.9 396.9 13.1 C397.8 13.5 397.8 13.2 397.9 14.1 C398 14.5 397.9 14.8 397.8 15 C397.5 15 397 14.7 396.3 14.4 C396.5 15.2 396.6 15.7 396.7 16.1 C396.3 16.3 396.4 16.2 396 16.2 z" id="j2" fill="#FFF" /></g><g transform="translate(-281.7, 53.79996) translate(82, 64)" id="k2"><path d="M384.3 16.9 C383.1 14.6 383.5 13.9 383.5 12.1 C383.5 10.3 383.7 8.4 386.3 7 C389 5.6 392.8 5.6 396.6 6.5 C400.4 7.4 402.8 10 402.1 11.5 C401.3 13.2 398.4 17.1 397 17.9 C394.3 19.5 390.3 20.2 388.2 19.7 C386.6 19.3 385.2 18.7 384.3 16.9 z" id="l2" fill="#CAC3C0" /><path d="M385.2 18.1 C384.4 17.4 384.8 14.8 385.2 13.6 C385.7 12.5 387.2 10.9 389.4 10.3 C392.3 9.6 392.8 9.7 395.3 10 C396.6 10.1 397.8 9.9 398.2 10.6 C398.8 11.3 398.9 12.5 398.5 13.6 C398.1 14.7 398 15.3 397.3 16.1 C396.6 17 395.7 17.7 395.1 18.1 C392.9 19.3 389.6 19.9 387.9 19.5 C386.7 19.2 386 18.8 385.2 18.1 z" id="m2" fill="#1F2123" /><path d="M390.4 16.2 C391.5 16.2 392.5 15.3 392.5 14.2 C392.6 13.1 392.4 12.5 391.4 12.7 C390.5 12.8 389.8 12.9 389.5 13.1 C388.6 13.5 388.6 13.2 388.5 14.1 C388.4 14.5 388.5 14.8 388.6 15 C388.9 15 389.4 14.7 390.1 14.4 C389.9 15.2 389.8 15.7 389.7 16.1 C390.1 16.3 390 16.2 390.4 16.2 z" id="n2" fill="#FFF" /></g></g></g></g></g><defs><g transform="translate(17.09519, 0.800995) translate(-135.2952, -293.601)" id="o2" fill="#000"><path d="M118.2 302.7 C118.4 307.4 132.5 311.2 149.8 311.2 C167.1 311.2 181.2 307.4 181.4 302.7 C181.4 307.5 181.4 310.1 181.4 310.5 C181.4 315.3 167.3 319.1 149.8 319.1 C132.3 319.1 118.2 315.2 118.2 310.5 L118.2 302.7 L118.2 302.7 z" fill-opacity="0.4528" id="p2" fill="#593001" /><path d="M118.7 301.7 C118.9 306.4 133 310.2 150.3 310.2 C167.6 310.2 181.7 306.4 181.9 301.7 C181.9 306.5 181.9 309.1 181.9 309.5 C181.9 314.3 167.8 318.1 150.3 318.1 C132.8 318.1 118.7 314.2 118.7 309.5 L118.7 301.7 L118.7 301.7 z" id="q2" fill="#DA8113" /><linearGradient x1="46.0545" y1="-118.6926" x2="45.4656" y2="-118.6926" gradientUnits="userSpaceOnUse" gradientTransform="matrix(117.135, 0, 0, 28.4634, -5208.417, 3687.795)" id="r2"><stop offset="0%" stop-color="#D9952A" stop-opacity="1" /><stop offset="6.438854%" stop-color="#CA7519" stop-opacity="1" /><stop offset="30.54%" stop-color="#E3AD3A" stop-opacity="1" /><stop offset="51.05%" stop-color="#FFEC91" stop-opacity="1" /><stop offset="68.8%" stop-color="#E9BD44" stop-opacity="1" /><stop offset="86.24%" stop-color="#FFED6C" stop-opacity="1" /><stop offset="93.87%" stop-color="#F2D353" stop-opacity="1" /><stop offset="100%" stop-color="#F2B947" stop-opacity="1" /></linearGradient><path d="M118.2 301.6 C118.4 306.1 132.7 309.7 150.3 309.7 C167.9 309.7 182.2 306.1 182.4 301.6 C182.4 306.2 182.4 308.7 182.4 309 C182.4 313.5 168 317.2 150.3 317.2 C132.6 317.2 118.2 313.5 118.2 309 L118.2 301.6 L118.2 301.6 z" id="s2" style="fill:url(#r2)" /><linearGradient x1="45.4914" y1="-117.9547" x2="45.9407" y2="-117.5895" gradientUnits="userSpaceOnUse" gradientTransform="matrix(115.425, 0, 0, 29.925, -5125.077, 3826.124)" id="t2"><stop offset="0%" stop-color="#F4E072" stop-opacity="1" /><stop offset="100%" stop-color="#DB9427" stop-opacity="1" /></linearGradient><ellipse cx="150.3" cy="301.5" rx="31.6" ry="8.2" id="u2" style="fill:url(#t2)" /><linearGradient x1="45.4656" y1="-126.0065" x2="46.0545" y2="-126.0065" gradientUnits="userSpaceOnUse" gradientTransform="matrix(117.135, 0, 0, 18.6219, -5208.417, 2651.479)" id="v2"><stop offset="0%" stop-color="#D9952A" stop-opacity="1" /><stop offset="6.438854%" stop-color="#CA7519" stop-opacity="1" /><stop offset="30.54%" stop-color="#E3AD3A" stop-opacity="1" /><stop offset="51.05%" stop-color="#FFEC91" stop-opacity="1" /><stop offset="68.8%" stop-color="#E9BD44" stop-opacity="1" /><stop offset="86.24%" stop-color="#FFED6C" stop-opacity="1" /><stop offset="93.87%" stop-color="#F2D353" stop-opacity="1" /><stop offset="100%" stop-color="#F2B947" stop-opacity="1" /></linearGradient><path d="M119.2 299.9 C119 300.2 118.9 300.6 118.9 301 C118.9 305.5 132.9 309.2 150.3 309.2 C167.7 309.2 181.7 305.5 181.7 301 C181.7 300.6 181.6 300.3 181.4 299.9 C182 300.5 182.4 301.2 182.4 301.9 C182.4 306.4 168 310.1 150.3 310.1 C132.6 310.1 118.2 306.4 118.2 301.9 C118.2 301.3 118.6 300.6 119.2 299.9 z" id="w2" style="fill:url(#v2)" /><linearGradient x1="45.196" y1="-121.5895" x2="45.3746" y2="-120.6758" gradientUnits="userSpaceOnUse" gradientTransform="matrix(101.745, 0, 0, 23.94, -4458.332, 3199.41)" id="x2"><stop offset="0%" stop-color="#F8DD61" stop-opacity="1" /><stop offset="100%" stop-color="#EAA330" stop-opacity="1" /></linearGradient><ellipse cx="150.3" cy="300.8" rx="27.8" ry="6.6" id="y2" style="fill:url(#x2)" /><linearGradient x1="45.5694" y1="-134.267" x2="45.0221" y2="-134.267" gradientUnits="userSpaceOnUse" gradientTransform="matrix(101.745, 0, 0, 13.2525, -4458.332, 2077.223)" id="z2"><stop offset="0%" stop-color="#F4CA2F" stop-opacity="1" /><stop offset="51.38%" stop-color="#BF7737" stop-opacity="1" /><stop offset="100%" stop-color="#E4A929" stop-opacity="1" /></linearGradient><path d="M122.6 301.5 C122.5 301.3 122.4 301 122.4 300.8 C122.4 297.2 134.9 294.2 150.2 294.2 C165.5 294.2 178 297.1 178 300.8 C178 301 177.9 301.3 177.8 301.5 C176.3 298.2 164.5 295.6 150.1 295.6 C135.7 295.6 124.1 298.2 122.6 301.5 z" id="a3" style="fill:url(#z2)" /></g></defs><desc>8B45OLH5J4E,bzLUnFNrGaGiyw2g5QJ+vYpqgdmZd3RUgXgMBWHny1UgOiwxkFf30fJyKPy/KVPEqgzimV8rNBQAqPrppkGwgDB8SlazPeXAdJDfYVswkZdgNhiU4xShoXoyrXYFsGV4</desc></svg>