<?xml version="1.0" encoding="utf-8"?><!DOCTYPE svg PUBLIC "-//W3C//DTD SVG 1.1//EN" "http://www.w3.org/Graphics/SVG/1.1/DTD/svg11.dtd"><svg x="0" y="0" width="340px" height="340px" viewBox="0, 0, 340, 340" preserveAspectRatio="xMidYMid" font-size="0" id="a" enable-background="new 0 0 340 340" xmlns="http://www.w3.org/2000/svg" xmlns:xlink="http://www.w3.org/1999/xlink" xmlns:xml="http://www.w3.org/XML/1998/namespace" version="1.1"><g id="b" fill="#000"><g transform="translate(210.1952, 245.501)" id="c"><ellipse cx="32.5" cy="17.5" rx="37.3" ry="13.2" opacity="0.15" id="d" /><use xlink:href="#e" x="0.86" y="0" /><use xlink:href="#e" x="-1.89" y="-10.7" /><use xlink:href="#e" x="1.2" y="-21.4" /></g><g transform="translate(64.99519, 245.001)" id="f"><ellipse cx="32.5" cy="17.5" rx="37.3" ry="13.2" opacity="0.15" id="g" /><use xlink:href="#e" x="0.97" y="0" /><use xlink:href="#e" x="-0.73" y="-10.7" /></g></g><g id="h" fill="#000"><g id="i"><g transform="translate(0, 0) translate(0, 224)" id="j"><ellipse cx="168.6" cy="53.1" rx="57.8" ry="12.8" fill-opacity="0.25" id="k" /></g><g id="l"><g transform="translate(96.80002, 79.89998) translate(20, 164) scale(-1, 1) translate(-20, -164) translate(0, 145)" id="m"><g opacity="0.15" id="n"><path d="M25.1 5.8 C22.1 1.3 15 -3.7 13.7 5.8 C6.2 0.1 3.3 6.1 6.2 10.4 C0.3 13.4 -2 14.4 2.1 17.2 C1.4 21.2 -1.4 28.5 6.2 26.7 C5.7 33.2 9.3 33.2 13.7 33.2 C14.4 39.4 27.4 39.7 24.5 31.9 C29.6 32.2 32.1 33.8 32.8 31.9 C33.5 30 30 27.2 28 24.7 C35.2 25.8 42.7 22.7 37.8 18.5 C34.5 15.7 32.8 15 32.7 16.4 C35.8 14.6 38.8 13 38.8 10.3 C38.8 8.4 33.7 7.6 29.9 10.3 C31.5 6.4 28.1 -2.1 25.1 5.8 z" stroke="#000000" stroke-width="3" opacity="0.15" id="o" /></g><path d="M24.6 4.8 C21.6 -1 15.9 -2.2 13.7 4.8 C6.2 -0.9 3.3 5.1 6.2 9.4 C0.3 12.4 -2 13.4 2.1 16.2 C1.4 20.2 -1.4 27.5 6.2 25.7 C5.7 32.2 9.3 32.2 13.7 32.2 C14.4 38.4 27 38.7 25.1 32.2 C35.2 32.8 34 30.6 30 25.7 C37.2 26.8 42.1 21.4 37.2 17.2 L33.7 16.2 C36.8 14.4 38.3 12.1 38.3 9.4 C38.3 7.5 33.9 6.7 30.1 9.4 C31.5 5.4 29.5 -0.9 24.6 4.8 z" id="p" fill="#D8D8D8" /></g><g transform="translate(123.6, 274.8) scale(1) translate(-123.6, -274.8) translate(-285.9, 63.59998) translate(20, 150)" id="q"><path d="M418 16.4 C418 16.4 415.5 9 413.5 8.1 C411.5 7.2 409.1 5.1 402.7 6.1 C396.3 7.1 391.2 9.7 388.3 13.1 C385.4 16.4 382.6 26.3 385.4 31.7 C387.3 35.3 390.5 40 395.1 45.6 C389.5 45.6 386.3 46.1 385.4 47 C384.1 48.4 382.7 53.9 384.1 57 C385.4 60 387.5 64.2 393.6 63.9 C399.7 63.7 414.1 60.2 416.6 59.1 C419.1 58 417.8 40.7 417.8 39.4 C417.7 13 418 16.4 418 16.4 z" id="r" fill="#32363A" /><path d="M418 16.4 C418 16.4 417.7 12.9 417.8 39.4 C417.8 40.7 419.1 58 416.6 59.1 C414.1 60.2 399.7 63.7 393.6 63.9 C387.5 64.2 385.4 60 384.1 57 C382.7 53.9 384.1 48.4 385.4 47 C386.3 46.1 389.5 45.6 395.1 45.6 C390.5 40 387.3 35.3 385.4 31.7 C382.6 26.3 385.4 16.4 388.3 13.1 C391.2 9.7 396.3 7.1 402.7 6.1 C409.1 5.1 411.5 7.2 413.5 8.1 C415.5 9.1 418 16.4 418 16.4 z M416.7 16.6 C416.7 16.6 414.4 9.8 412.5 8.9 C410.6 8 408.4 6.1 402.5 7.1 C396.6 8.1 391.9 10.4 389.3 13.6 C386.6 16.6 384 25.8 386.6 30.8 C388.4 34.1 393.9 41.7 398.2 46.8 C393 46.8 387.9 47.2 387.1 48 C385.9 49.3 384.1 51.2 385.4 54.1 C386.6 56.9 388.5 60.7 394.2 60.5 C399.8 60.3 413.1 57.1 415.4 56.1 C417.7 55.1 416.5 39.1 416.5 37.9 C416.4 13.5 416.7 16.6 416.7 16.6 z" opacity="0.15" id="s" /></g><g transform="translate(215, 274.8) scale(1) translate(-215, -274.8) translate(-285.9, 63.59998) translate(106.5, 179.5) scale(-1, 1) translate(-106.5, -179.5) translate(89, 150)" id="t"><path d="M-348.6 16.4 C-348.6 16.4 -351.1 9 -353.1 8.1 C-355.1 7.2 -357.5 5.1 -363.9 6.1 C-370.3 7.1 -375.4 9.7 -378.3 13.1 C-381.2 16.4 -384 26.3 -381.2 31.7 C-379.3 35.3 -376.1 40 -371.5 45.6 C-377.1 45.6 -380.3 46.1 -381.2 47 C-382.5 48.4 -383.9 53.9 -382.5 57 C-381.2 60 -379.1 64.2 -373 63.9 C-366.9 63.7 -352.5 60.2 -350 59.1 C-347.5 58 -348.8 40.6 -348.8 39.3 C-348.8 13 -348.6 16.4 -348.6 16.4 z" id="u" fill="#32363A" /><path d="M-348.6 16.4 C-348.6 16.4 -348.8 12.9 -348.8 39.3 C-348.8 40.6 -347.5 58 -350 59.1 C-352.5 60.2 -366.9 63.7 -373 63.9 C-379.1 64.2 -381.2 60 -382.5 57 C-383.9 53.9 -382.5 48.4 -381.2 47 C-380.3 46.1 -377.1 45.6 -371.5 45.6 C-376.1 40 -379.3 35.3 -381.2 31.7 C-384 26.3 -381.2 16.4 -378.3 13.1 C-375.4 9.7 -370.3 7.1 -363.9 6.1 C-357.5 5.1 -355.1 7.2 -353.1 8.1 C-351.1 9.1 -348.6 16.4 -348.6 16.4 z M-350 16.5 C-350 16.5 -352.3 9.7 -354.1 8.9 C-355.9 8.1 -358.1 6.1 -364 7.1 C-369.9 8.1 -374.6 10.3 -377.3 13.5 C-380 16.5 -382.5 25.6 -380 30.6 C-378.2 33.9 -373.6 41.1 -369.3 46.3 C-374.4 46.3 -379 47.1 -379.8 48 C-381 49.3 -382.4 51 -381.1 53.9 C-379.9 56.7 -378 60.5 -372.4 60.2 C-366.8 60 -353.5 56.8 -351.2 55.8 C-348.9 54.8 -350.1 38.8 -350.1 37.6 C-350.2 13.4 -350 16.5 -350 16.5 z" opacity="0.15" id="v" /></g><g transform="translate(-285.9, 63.59998) translate(26, 89)" id="w"><path d="M397 32.1 C391 38.3 389.6 53.9 391.7 73.6 C393.8 93.4 398.5 110.6 404.4 118.6 C410.3 126.6 419.1 128.3 429.1 128.3 C439.1 128.3 444.7 128.5 451.9 120.5 C459 112.6 463.7 84.2 465.1 74.4 C466.5 64.7 469.4 41 460.1 32.9 C455.5 28.8 444.8 7 431.3 6.5 C417.8 6 403 26 397 32.1 z" id="x" fill="#32363A" /><path d="M397 32.1 C391 38.3 389.6 53.9 391.7 73.6 C392.6 81.9 396.1 90.6 397.8 97.5 C400.1 107.1 401 114.1 404.4 118.7 C410.3 126.7 419.1 128.4 429.1 128.4 C439.1 128.4 444.7 128.6 451.9 120.6 C459 112.7 463.7 84.3 465.1 74.5 C466.5 64.8 469.4 41.1 460.1 33 C455.5 28.9 444.8 7.3 431.3 6.8 C417.8 6.2 403 26 397 32.1 z" id="y" fill="#32363A" /><path d="M397 32.1 C403 26 417.8 6.2 431.1 6.6 C444.7 7.1 455.4 28.8 459.9 32.8 C469.2 40.9 466.3 64.6 464.9 74.3 C463.5 84.1 458.8 112.5 451.7 120.4 C444.5 128.4 438.9 128.2 428.9 128.2 C418.9 128.2 410.1 126.5 404.2 118.5 C398.3 110.5 393.6 93.2 391.5 73.5 C389.6 53.9 391 38.3 397 32.1 z M398.3 32.4 C392.5 38.4 391.2 53.3 393.2 72.3 C395.2 91.4 399.7 107.8 405.4 115.5 C411.1 123.2 419.5 124.8 429.1 124.8 C438.7 124.8 444.1 125 451 117.3 C457.8 109.7 462.3 82.4 463.7 73 C465 63.7 467.8 40.9 458.9 33.1 C454.3 29.2 444.1 8.5 431 8 C418.2 7.5 404 26.5 398.3 32.4 z" opacity="0.15" id="z" /></g><g fill-rule="evenOdd" transform="translate(125.7637, 188.275) scale(0.9316699, 0.8097966) translate(-122.6, -173.4) translate(85.00002, 85.39997) translate(83.5, 146.5) scale(-1, 1) translate(-83.5, -146.5) translate(37, 88)" id="a1"><path d="M85.7 0.8 C88.7 7.4 91 19.3 91.5 22.3 C91.7 23.4 92.2 25.3 92.2 26.6 C92.2 28.3 92.4 30.4 92.2 32.3 C92.1 33.8 91.6 36.7 91.5 38.1 C91.4 39.5 90.8 38.3 90.6 39.6 C90.5 39.9 90.5 40.2 90.4 40.4 C90 42 89.7 44.6 89.4 45.9 C89.2 47 89 46.8 88.7 48 C88.4 49.3 88.1 55.7 87.6 57.3 C87.1 58.9 86.5 55.7 85.7 58 C85.4 59 85 60 84.6 61.1 C84.2 62.1 84.1 66.2 83.6 67.4 C83.2 68.4 82.6 66.5 82.2 67.7 C81.8 68.9 81.9 74.3 81.4 75.7 C80.9 77.3 79.7 74.8 79.2 76.6 C78.8 77.8 78.8 84.5 78.4 85.8 C78 87.2 77.3 83.2 76.9 84.6 C76.7 85.6 76.4 86.5 76.2 87.5 C75.9 88.6 75.7 89.8 75.4 91 C75 93 74.6 95 74.2 97.1 C73.9 98.9 73.6 100.8 73.4 102.8 C73.2 104.4 77.3 102.5 80.3 106 C83.3 109.5 83.1 115.5 78.9 116.6 C74.7 117.7 58.9 113.8 57.2 111.6 C56.8 111.1 56.4 108.3 56.2 103.9 C56.1 102 56.8 99 56.7 96.6 C56.7 95.2 57.2 92.5 57.2 91 C57.2 89.1 55 94.1 55 92.1 C55 90.7 56.2 81.7 56.2 80.2 C56.2 77.8 55.6 77.9 56 75.5 C56.2 74.1 57.1 71.4 57.1 70.7 C57.1 68.2 54.9 75.4 55 72.8 C55 72.6 54.4 68.7 56 65 C56.7 63.3 56.6 61.3 56.8 59.6 C56.9 58.1 57 56.6 57.1 55.3 C57.3 52.2 57.4 49.8 57.3 48.9 C56.9 49.2 54.5 54 54.1 54.3 C53.4 54.8 54.7 50.7 54.1 51.2 C53.4 51.7 52.1 54.4 50.7 57.8 C49.3 61.3 50 56.7 49.5 57.1 C48.1 58.4 48.1 62.7 47.6 64.1 C47.2 65.3 46.1 67.4 45.8 67.1 C45.4 66.7 45.5 64.9 45.1 63.5 C44.7 61.9 44 60.5 44 59.5 C44 59.1 44.2 61.8 43.3 61.2 C42.4 60.6 40 53.3 39 52.1 C38.4 51.4 38.5 54.5 38.1 54.2 C37.3 53.7 36 50.3 35.5 49.7 C35.2 50.6 35.2 52.8 35.2 55.6 C35.2 57.8 36.6 65.6 36.7 68.4 C36.7 69.9 35.2 66.8 35.2 68.4 C35.2 69.9 34.9 71.8 34.9 72.1 C34.9 73.7 35.1 77.2 35.6 80.9 C36 84.3 36.7 87.9 36.7 89.4 C36.7 92.6 34.9 87.8 34.9 90.8 C34.9 92.2 35.6 95.1 35.5 96.4 C35.4 98.8 35.3 101.1 35.2 103 C35.1 104.7 35 106.1 34.8 107.4 C34.5 109.7 34.2 111.1 33.8 111.4 C31.2 112.9 21 117.9 12.2 116.4 C8.3 114.2 9.6 108.5 12.5 105.1 C15.4 101.7 19.7 104.1 19.5 101.5 C19.3 99 18.6 95.6 17.7 91.9 C17.5 90.9 17.2 89.9 16.9 88.8 C16.7 88 16.4 87.1 16.2 86.2 C15.8 84.7 15.3 83.2 14.9 81.6 C14.5 80.2 14.3 84.4 13.8 83 C13.4 81.9 12.8 75.1 12.5 74 C12.1 72.8 11.7 71.7 11.4 70.6 C11.1 69.7 10.5 72.1 10.2 71.2 C9.7 69.9 9.5 65.3 9.1 64.1 C8.7 62.9 8.3 61.9 7.9 60.9 C7.6 60 7.1 61.7 6.8 60.9 C6.2 59.4 5.8 55.5 5.4 54.2 C5 53 4.6 54.4 4.2 53.2 C3.9 52.1 3.5 48.4 3.2 47.3 C2.8 45.7 3.5 46.3 3.2 44.5 C3 43.3 2.6 42.5 1.2 37.8 C-0.2 33.1 0.5 21.8 0.7 19.8 C0.8 18.3 1.2 15 1.4 13.6 C2.2 7.8 4.2 4.3 5.7 1.4 C6 0.8 6.5 0 6.8 0.5 C7.6 1.7 7.9 4.3 8.7 6.6 C8.8 7.2 8.9 7.7 9 7.9 C10 10.1 10.8 12.4 11.6 14.4 C11.6 14.7 11.7 14.9 11.7 15 C12.4 16.4 13 17.5 13.5 18.4 C13.7 18.9 13.8 18.9 13.8 18.9 C14 19.2 14.2 19.5 14.4 19.7 C14.8 20.1 15.2 20.5 15.6 21 C15.7 21.8 15.9 22.5 16 22.7 C16.2 23 16.6 22.7 16.9 22.4 C17.3 22.8 17.7 23.1 18.1 23.5 C18.2 24.4 18.3 25.4 18.6 25.7 C18.8 25.9 18.9 25.3 19.1 24.5 C19.6 25 20.1 25.4 20.6 25.8 C20.9 27.7 21.4 29 21.8 29.4 C22.4 30 22.6 28.4 23.2 29 C23.8 29.5 24.6 33.5 25.2 34 C25.5 34.3 26.4 31.6 26.9 30.5 C27.2 30.7 27.4 30.8 27.7 31 C28 32.3 28.1 34.6 28.5 34.9 C28.9 35.2 28.7 33.4 29.1 33.7 C29.7 34.1 29.8 40.3 30.7 38.9 C31.6 37.5 31.2 35 31.3 35.1 C32 35.5 33.5 41.8 34.2 42.1 C34.5 42.3 35.1 41.5 35.2 40 C35.3 38.8 34.9 37 35.2 37.1 C35.8 37.4 36.7 38.3 37.3 40 C38 42.1 38.4 45.1 39.1 45.3 C39.7 45.5 40 43.4 40.4 41.3 C40.8 39.2 41.1 37.1 41.7 37.1 C42.3 37.2 42.5 40.6 42.4 42.5 C42.3 44.8 43.2 49.7 43.9 49.7 C44.1 49.7 44 45.1 44.9 43 C45.8 40.9 46.9 38.1 47.2 38.1 C47.5 38.1 48 40.7 48.1 42.1 C48.3 43.9 48.6 45.6 49 45.3 C49.6 44.8 51.6 37.2 51.9 37.1 C52.4 37 52 44.2 53.7 43.9 C53.8 43.9 54.9 42.2 55 42.1 C57 40.8 58.8 35.4 59.2 35.2 C59.6 35 58.8 38.8 59.2 38.6 C59.3 38.5 61.9 32.1 62.6 31.6 C63.1 31.3 63.4 35.2 63.8 34.9 C64.1 34.7 65.6 33.5 66.2 31.6 C66.5 30.7 66.6 29.7 66.6 28.9 C67 28.6 67.4 28.4 67.8 28.1 C67.9 28.4 67.9 28.7 67.9 29.1 C68 30.4 67.7 32.4 67.9 32.2 C68.8 31.6 70 28.6 71.4 26.7 C72.5 25.2 72.6 28.7 73.3 27.9 C73.6 27.6 74.2 26.3 74.7 25.1 C75.2 23.6 75.7 22.1 76.1 21.6 C76.6 21 76.4 24.7 76.9 24.1 C77.2 23.6 78.7 18.9 79 18.4 C79.3 17.9 79.9 20.1 80.2 19.6 C80.4 19.2 81.3 15.3 81.5 14.9 C81.7 14.6 81.7 15.9 81.8 15.6 C82 15.3 81.9 12.6 82.4 13.3 C83 13.9 83.4 11.2 84 9.6 C84.4 8.6 84.7 6.5 85 4.3 C85.5 3.8 85.4 1.1 85.7 0.8 z" id="b1" fill="#FEFEFE" /><path d="M85.7 0.8 C88.7 7.4 91 19.3 91.5 22.3 C91.7 23.4 92.2 25.3 92.2 26.6 C92.2 28.3 92.4 30.4 92.2 32.3 C92.1 33.8 91.6 36.7 91.5 38.1 C91.4 39.5 90.8 38.3 90.6 39.6 C90.5 39.9 90.5 40.2 90.4 40.4 C90 42 89.7 44.6 89.4 45.9 C89.2 47 89 46.8 88.7 48 C88.4 49.3 88.1 55.7 87.6 57.3 C87.1 58.9 86.5 55.7 85.7 58 C85.4 59 85 60 84.6 61.1 C84.2 62.1 84.1 66.2 83.6 67.4 C83.2 68.4 82.6 66.5 82.2 67.7 C81.8 68.9 81.9 74.3 81.4 75.7 C80.9 77.3 79.7 74.8 79.2 76.6 C78.8 77.8 78.8 84.5 78.4 85.8 C78 87.2 77.3 83.2 76.9 84.6 C76.7 85.6 76.4 86.5 76.2 87.5 C75.9 88.6 75.7 89.8 75.4 91 C75 93 74.6 95 74.2 97.1 C73.9 98.9 73.6 100.8 73.4 102.8 C73.2 104.4 77.3 102.5 80.3 106 C83.3 109.5 83.1 115.5 78.9 116.6 C74.7 117.7 58.9 113.8 57.2 111.6 C56.8 111.1 56.4 108.3 56.2 103.9 C56.1 102 56.8 99 56.7 96.6 C56.7 95.2 57.2 92.5 57.2 91 C57.2 89.1 55 94.1 55 92.1 C55 90.7 56.2 81.7 56.2 80.2 C56.2 77.8 55.6 77.9 56 75.5 C56.2 74.1 57.1 71.4 57.1 70.7 C57.1 68.2 54.9 75.4 55 72.8 C55 72.6 54.4 68.7 56 65 C56.7 63.3 56.6 61.3 56.8 59.6 C56.9 58.1 57 56.6 57.1 55.3 C57.3 52.2 57.4 49.8 57.3 48.9 C56.9 49.2 54.5 54 54.1 54.3 C53.4 54.8 54.7 50.7 54.1 51.2 C53.4 51.7 52.1 54.4 50.7 57.8 C49.3 61.3 50 56.7 49.5 57.1 C48.1 58.4 48.1 62.7 47.6 64.1 C47.2 65.3 46.1 67.4 45.8 67.1 C45.4 66.7 45.5 64.9 45.1 63.5 C44.7 61.9 44 60.5 44 59.5 C44 59.1 44.2 61.8 43.3 61.2 C42.4 60.6 40 53.3 39 52.1 C38.4 51.4 38.5 54.5 38.1 54.2 C37.3 53.7 36 50.3 35.5 49.7 C35.2 50.6 35.2 52.8 35.2 55.6 C35.2 57.8 36.6 65.6 36.7 68.4 C36.7 69.9 35.2 66.8 35.2 68.4 C35.2 69.9 34.9 71.8 34.9 72.1 C34.9 73.7 35.1 77.2 35.6 80.9 C36 84.3 36.7 87.9 36.7 89.4 C36.7 92.6 34.9 87.8 34.9 90.8 C34.9 92.2 35.6 95.1 35.5 96.4 C35.4 98.8 35.3 101.1 35.2 103 C35.1 104.7 35 106.1 34.8 107.4 C34.5 109.7 34.2 111.1 33.8 111.4 C31.2 112.9 21 117.9 12.2 116.4 C8.3 114.2 9.6 108.5 12.5 105.1 C15.4 101.7 19.7 104.1 19.5 101.5 C19.3 99 18.6 95.6 17.7 91.9 C17.5 90.9 17.2 89.9 16.9 88.8 C16.7 88 16.4 87.1 16.2 86.2 C15.8 84.7 15.3 83.2 14.9 81.6 C14.5 80.2 14.3 84.4 13.8 83 C13.4 81.9 12.8 75.1 12.5 74 C12.1 72.8 11.7 71.7 11.4 70.6 C11.1 69.7 10.5 72.1 10.2 71.2 C9.7 69.9 9.5 65.3 9.1 64.1 C8.7 62.9 8.3 61.9 7.9 60.9 C7.6 60 7.1 61.7 6.8 60.9 C6.2 59.4 5.8 55.5 5.4 54.2 C5 53 4.6 54.4 4.2 53.2 C3.9 52.1 3.5 48.4 3.2 47.3 C2.8 45.7 3.5 46.3 3.2 44.5 C3 43.3 2.6 42.5 1.2 37.8 C-0.2 33.1 0.5 21.8 0.7 19.8 C0.8 18.3 1.2 15 1.4 13.6 C2.2 7.8 4.2 4.3 5.7 1.4 C6 0.8 6.5 0 6.8 0.5 C7.6 1.7 7.9 4.3 8.7 6.6 C8.8 7.2 8.9 7.7 9 7.9 C10 10.1 10.8 12.4 11.6 14.4 C11.6 14.7 11.7 14.9 11.7 15 C12.4 16.4 13 17.5 13.5 18.4 C13.7 18.9 13.8 18.9 13.8 18.9 C14 19.2 14.2 19.5 14.4 19.7 C14.8 20.1 15.2 20.5 15.6 21 C15.7 21.8 15.9 22.5 16 22.7 C16.2 23 16.6 22.7 16.9 22.4 C17.3 22.8 17.7 23.1 18.1 23.5 C18.2 24.4 18.3 25.4 18.6 25.7 C18.8 25.9 18.9 25.3 19.1 24.5 C19.6 25 20.1 25.4 20.6 25.8 C20.9 27.7 21.4 29 21.8 29.4 C22.4 30 22.6 28.4 23.2 29 C23.8 29.5 24.6 33.5 25.2 34 C25.5 34.3 26.4 31.6 26.9 30.5 C27.2 30.7 27.4 30.8 27.7 31 C28 32.3 28.1 34.6 28.5 34.9 C28.9 35.2 28.7 33.4 29.1 33.7 C29.7 34.1 29.8 40.3 30.7 38.9 C31.6 37.5 31.2 35 31.3 35.1 C32 35.5 33.5 41.8 34.2 42.1 C34.5 42.3 35.1 41.5 35.2 40 C35.3 38.8 34.9 37 35.2 37.1 C35.8 37.4 36.7 38.3 37.3 40 C38 42.1 38.4 45.1 39.1 45.3 C39.7 45.5 40 43.4 40.4 41.3 C40.8 39.2 41.1 37.1 41.7 37.1 C42.3 37.2 42.5 40.6 42.4 42.5 C42.3 44.8 43.2 49.7 43.9 49.7 C44.1 49.7 44 45.1 44.9 43 C45.8 40.9 46.9 38.1 47.2 38.1 C47.5 38.1 48 40.7 48.1 42.1 C48.3 43.9 48.6 45.6 49 45.3 C49.6 44.8 51.6 37.2 51.9 37.1 C52.4 37 52 44.2 53.7 43.9 C53.8 43.9 54.9 42.2 55 42.1 C57 40.8 58.8 35.4 59.2 35.2 C59.6 35 58.8 38.8 59.2 38.6 C59.3 38.5 61.9 32.1 62.6 31.6 C63.1 31.3 63.4 35.2 63.8 34.9 C64.1 34.7 65.6 33.5 66.2 31.6 C66.5 30.7 66.6 29.7 66.6 28.9 C67 28.6 67.4 28.4 67.8 28.1 C67.9 28.4 67.9 28.7 67.9 29.1 C68 30.4 67.7 32.4 67.9 32.2 C68.8 31.6 70 28.6 71.4 26.7 C72.5 25.2 72.6 28.7 73.3 27.9 C73.6 27.6 74.2 26.3 74.7 25.1 C75.2 23.6 75.7 22.1 76.1 21.6 C76.6 21 76.4 24.7 76.9 24.1 C77.2 23.6 78.7 18.9 79 18.4 C79.3 17.9 79.9 20.1 80.2 19.6 C80.4 19.2 81.3 15.3 81.5 14.9 C81.7 14.6 81.7 15.9 81.8 15.6 C82 15.3 81.9 12.6 82.4 13.3 C83 13.9 83.4 11.2 84 9.6 C84.4 8.6 84.7 6.5 85 4.3 C85.5 3.8 85.4 1.1 85.7 0.8 z M85.9 6.5 C85.6 6.8 85 10.4 84.6 10.9 C84.3 12.9 83.2 14.4 82.8 15.3 C82.2 16.8 82.1 19.9 81.5 19.4 C81.1 18.7 80.9 21.2 80.7 21.5 C80.6 21.8 79.4 20.3 79.2 20.6 C79 20.9 78.6 22.5 78.4 22.9 C78.1 23.3 77 25.9 76.8 26.4 C76.5 26.8 76 24.3 75.7 24.8 C75.2 25.3 75.4 28.2 74.9 28.8 C74.5 29.3 73.4 28 72.9 29.4 C72.4 30.5 71.8 28.7 71.6 29 C70.9 29.8 70.2 30.4 69.1 31.8 C67.8 33.6 68.1 33.4 67.2 33.9 C67 34.1 66.9 32.5 66.8 31.3 C66.8 30.9 65.6 35.1 65.3 35.3 C65.3 36.1 64.3 34.5 64 35.3 C63.4 37.1 62.8 36.5 62.5 36.7 C62.1 37 62.9 35.1 62.5 35.3 C61.8 35.8 60 41.2 59.9 41.3 C59.5 41.5 58.5 39.4 58.1 39.6 C57.7 39.8 56.9 43.1 55 44.3 C54.9 44.4 53.3 44.9 53.2 44.9 C51.6 45.1 51.8 41.1 51.4 41.2 C51.1 41.3 49.6 47.2 49 47.7 C48.7 48 47.6 45.4 47.4 43.8 C47.3 42.4 47.4 40.7 47.1 40.7 C46.8 40.7 46.6 43.8 45.8 45.8 C44.9 47.7 43.9 51.4 43.7 51.4 C43.1 51.4 41.5 46.3 41.6 44.2 C41.7 42.4 42.2 39 41.6 38.9 C41.1 38.9 41.2 40.5 40.8 42.4 C40.4 44.4 39.8 47.6 39.2 47.4 C38.6 47.3 37.5 44.3 36.9 42.3 C36.3 40.7 36.5 38.8 35.9 38.5 C35.7 38.4 36 40.1 35.9 41.2 C35.8 42.6 35.5 43.9 34.1 43.9 C32.7 43.5 32.5 38.6 31.8 38.3 C31.8 38.2 31.9 39.6 31.1 40.9 C30.2 42.2 29.5 37.7 28.9 37.3 C28.5 37 28.2 38.2 27.3 37.3 C26.5 36.4 27.8 34.7 27.5 33.5 C27.2 33.3 27.2 33 26.9 32.8 C26.5 33.9 25 36 24.7 35.7 C24.2 35.3 23.7 31.3 23.1 30.8 C22.6 30.3 21.9 31.4 21.3 30.8 C20.9 30.5 19.7 27.2 19.6 26.4 C19.2 26 18.6 27.8 18.2 27.4 C17.9 27.7 17.2 25.3 17 25.1 C16.9 24.9 17.1 24.4 17 23.7 C16.6 23.2 16 24.3 15.7 23.9 C15.5 23.7 14.2 21.3 14 20.9 C13.5 20 11.9 17.8 11.9 17.6 C11.2 15.7 10.7 14.4 9.7 12.4 C9.7 12.2 7.7 6.8 7 5.6 C6.7 5.2 5.8 4.2 5.5 4.7 C4.9 6 3.6 8.7 2.8 12.4 C1.9 16.7 1.7 22.1 1.6 22.9 C1.4 24.7 2.9 34.8 4.2 39.2 C5.5 43.6 5.8 44.3 6 45.4 C6.3 47.1 5.7 46.5 6 48 C6.3 49.1 6.7 52.5 7 53.6 C7.3 54.7 7.7 53.4 8.1 54.5 C8.5 55.7 8.8 59.3 9.4 60.7 C9.7 61.5 10.1 59.9 10.4 60.7 C10.8 61.7 11.2 62.6 11.5 63.7 C11.9 64.9 12.1 69.2 12.6 70.4 C12.9 71.2 13.4 69 13.7 69.8 C14 70.8 14.4 71.9 14.7 73 C15 74 15.6 80.4 15.9 81.4 C16.4 82.7 16.6 78.8 17 80.1 C17.3 81.6 17.8 83 18.2 84.4 C18.4 85.2 18.6 86.1 18.8 86.8 C19.1 87.8 19.4 88.8 19.6 89.7 C20.4 93.2 21.1 101.4 21.3 103.8 C21.5 106.2 16.7 102.7 14 105.9 C11.3 109.1 10.8 110.5 14.4 112.6 C22.7 114 30.6 110.6 33 109.2 C33.4 108.9 33.5 105.6 33.7 103.5 C33.9 102.3 33.4 94.5 33.5 92.2 C33.6 91 33.6 89.5 33.6 88.2 C33.6 85.4 35 90.4 35 87.5 C35 86.1 34.5 82 34.1 78.8 C33.6 75.3 33.5 73 33.5 71.5 C33.5 71.2 34.1 68.9 34.1 67.5 C34.1 66 35.4 67.9 35.4 66.5 C35.3 63.9 34.1 57.3 34.1 55.2 C34.1 52.6 34 47.2 34.3 46.3 C34.7 46.9 37.1 51.5 37.8 52 C38.2 52.2 38.5 49.9 39 50.6 C40 51.7 42.2 58.3 43 58.9 C43.9 59.4 44 56.8 44 57.2 C44 58.1 45.1 60.7 45.5 62.2 C45.8 63.5 45.7 65.1 46.1 65.5 C46.4 65.7 46.7 63.6 47.1 62.5 C47.6 61.2 48.1 56.2 49.4 55 C49.9 54.6 49.8 58.7 51.1 55.4 C52.4 52.2 53.7 48.7 54.4 48.2 C55 47.8 54.2 51.1 54.9 50.6 C55.3 50.4 58.7 44.8 59.1 44.5 C59.2 45.4 58.5 51.6 58.4 54.5 C58.3 55.7 58 59.5 57.9 60.9 C57.7 62.5 57.5 63.5 56.9 65.1 C55.4 68.5 55.6 69.4 55.6 69.6 C55.5 72 58.4 66.9 58.4 69.2 C58.4 69.9 57.6 73.3 57.5 74.6 C57.1 76.8 57.5 77.8 57.5 80.1 C57.5 81.5 56 87.9 56 89.2 C56 91.1 59.1 87.1 59.1 88.9 C59.1 90.3 57.9 94.4 57.9 95.7 C58 97.9 57.4 101.7 57.5 103.5 C57.6 107.6 57.5 108.1 57.9 108.6 C59.5 110.6 72.8 113.8 76.8 112.8 C80.7 111.8 80.8 109.2 78 105.9 C75.2 102.6 71 106.1 71.2 104.6 C71.4 102.7 72.1 96.2 72.4 94.6 C72.7 92.6 73.1 90.7 73.5 88.9 C73.8 87.7 74 86.6 74.2 85.6 C74.4 84.7 74.7 83.8 74.9 82.9 C75.3 81.6 76.5 83.8 76.9 82.4 C77.2 81.2 76.8 75.7 77.2 74.6 C77.6 72.9 78.7 75.4 79.2 73.9 C79.7 72.6 79.5 68.2 79.8 67.1 C80.2 66 81.1 66.7 81.5 65.7 C82 64.6 81.7 61.9 82.1 60.9 C82.5 59.9 83.2 58.1 83.4 57.2 C84.2 55 85.4 56.9 85.9 55.4 C86.4 53.9 85.6 49.9 85.9 48.7 C86.2 47.6 86.4 47.8 86.6 46.7 C86.8 45.5 87.1 43.1 87.5 41.6 C87.6 41.4 87.6 41.1 87.7 40.8 C87.9 39.6 88.4 40.8 88.5 39.4 C88.6 38.1 89.1 35.4 89.2 34 C89.4 32.3 89.2 30.3 89.2 28.7 C89.2 27.5 89.4 23.9 89.2 22.9 C88.7 20.1 88.7 12.7 85.9 6.5 z" opacity="0.4" id="c1" /></g></g><g id="d1"><g transform="translate(110.8, 92.69997) translate(20, 9)" id="e1"><path d="M74.7 44.7 C74.7 30.9 75.3 23.9 72.1 17.8 C67.3 8.7 61.8 4.3 55.8 2.2 C49.8 0 42.4 1.2 39.1 1.2 C35.8 1.2 28.4 0.1 22.4 2.2 C16.4 4.4 10.9 8.8 6.1 17.8 C2.9 23.9 3.5 30.9 3.5 44.7 C-0.3 52.8 -0.7 59.7 2.5 66.7 C9.1 80.8 24.2 87.8 39.1 87.9 C54 87.8 69.2 80.8 75.7 66.7 C78.9 59.7 78.4 52.8 74.7 44.7 z" id="f1" fill="#474B4F" /><path d="M2.9 45.5 C5.3 47 8.4 48.4 9.6 48.5 C21.9 50 30.5 47.9 33.8 37.4 C35.8 30.7 31.9 20.5 34.6 10.7 C35.2 8.6 35.2 3.9 33.4 1 C30 0.9 25.9 1 22.2 2.3 C16.2 4.5 10.7 8.9 5.9 17.9 C2.8 24 3.3 31 3.3 44.8 C3.2 45 3.1 45.2 2.9 45.5 z" id="g1" fill="#32363A" /><path d="M3.1 45.6 C3 45.6 3 45.5 2.9 45.5 C3.1 45.2 3.2 45 3.3 44.8 C3.3 31 2.8 24 5.9 17.9 C10 10.2 14.6 5.9 19.6 3.4 C20.5 2.9 21.5 2.5 22.4 2.2 C28.4 0.1 35.8 1.2 39.1 1.2 C42.4 1.2 49.8 0 55.8 2.2 C61.8 4.3 67.3 8.7 72.1 17.8 C75.3 23.9 74.7 30.9 74.7 44.7 C78.4 52.8 78.9 59.7 75.7 66.7 C69.2 80.8 54 87.8 39.1 87.9 C24.2 87.8 9.1 80.8 2.5 66.7 C-0.6 60 -0.3 53.3 3.1 45.6 z M5.6 43.7 C5.6 43.8 3 48.1 2.3 51.4 C1.2 56 1.6 61.4 3.4 65.2 C9.8 78.8 24.6 85.5 39.1 85.6 C53.6 85.5 68.5 78.8 74.8 65.2 C77.9 58.5 76.8 51.9 73.2 44.1 C73.2 30.8 74.4 24 71.3 18.1 C66.6 9.3 61.2 5.1 55.4 3.1 C49.5 1 42.3 2.1 39.1 2.1 C35.9 2.1 28.7 1.1 22.8 3.1 C21.9 3.4 21 3.8 20.1 4.2 C15.2 6.6 10.7 10.8 6.7 18.2 C3.7 24.1 5.6 30.4 5.6 43.7 z" opacity="0.15" id="h1" /></g><g transform="translate(103.2, 75.79996) translate(21, 2)" id="i1"><g transform="translate(18.02073, 23.28844) scale(-1, 1) rotate(-6, 0, 0) translate(-18.02073, -23.28844) translate(2.520727, 1.788439)" id="j1"><path d="M1.7 25.8 C-1.9 23.8 -2.7 23.7 -1.4 20.5 C-0.1 17.3 2.4 17.8 5 15.3 C7.6 12.8 13.5 8.6 17.4 6.7 C21.3 4.8 23.7 2.5 25.7 4.7 C27.7 6.9 29.1 12.8 28 18.9 C26.9 25 23.5 30.4 23.1 33.3 C22.7 36.2 21.9 40.6 20.2 42.9 C19.7 43.6 18.2 45.3 17.3 45.8 C15.4 46.7 14 44.9 12.6 41.3 C12.3 40.4 10.5 34.3 8.6 32.4 C6.3 29.9 5.4 27.8 1.7 25.8 z" id="k1" fill="#474B4F" /><path d="M1.7 25.8 C-1.9 23.8 -2.7 23.7 -1.4 20.5 C-0.1 17.3 2.4 17.8 5 15.3 C7.6 12.8 13.5 8.6 17.4 6.7 C21.3 4.8 23.7 2.5 25.7 4.7 C27.7 6.9 29.1 12.8 28 18.9 C26.9 25 23.5 30.4 23.1 33.3 C22.7 36.2 21.9 40.6 20.2 42.9 C19.7 43.6 18.2 45.3 17.3 45.8 C15.4 46.7 14 44.9 12.6 41.3 C12.3 40.4 10.5 34.3 8.6 32.4 C6.3 29.9 5.4 27.8 1.7 25.8 z M3.9 24.6 C7.2 26.4 8 28.3 10 30.5 C11.7 32.2 13.3 37.7 13.6 38.5 C14.8 41.7 16.1 43.4 17.8 42.5 C18.6 42.1 19.9 40.5 20.4 39.9 C21.9 37.8 22.6 33.9 23 31.3 C23.4 28.7 26.4 23.8 27.4 18.3 C28.4 12.8 27.1 7.5 25.4 5.5 C23.6 3.5 21.5 5.6 18 7.3 C14.5 9 9.3 12.8 6.9 15 C4.5 17.2 2.4 16.8 1.2 19.7 C0 22.6 0.7 22.8 3.9 24.6 z" opacity="0.15" id="l1" /><path d="M5.7 24.6 C3.7 23.6 2.3 23 3.3 20.4 C3.9 18.9 7.5 16.8 10.9 14.2 C13.3 12.3 16.2 10.3 18 9.3 C20.6 7.8 21.8 6.3 23.5 7.6 C25.1 8.9 26.5 14.5 25.7 19.2 C24.9 24 20 35.8 18.7 37.6 C17.4 39.4 16.1 42.4 14.5 38.2 C12.9 34 12.6 31.4 10.9 29.6 C9.2 27.8 7.7 25.6 5.7 24.6 z" id="m1" fill="#D8D8D8" /><path d="M8.2 26.4 C8.3 25.4 9.1 23.7 9.3 23.3 C9.6 22.7 12.3 21.1 14.6 19.7 C15.6 19 18.6 17.4 18.6 17.4 C20.2 16.5 20.1 19.9 18.6 22.6 C17.7 24.2 15.1 29.9 13.3 31.6 C12.7 32.2 12.2 31.1 11 29.5 C9.9 28.1 8.1 26.8 8.2 26.4 z" opacity="0.5" id="n1" fill="#474B4F" /></g></g><g transform="translate(91.39999, 75.79996) translate(100.9, 24.5) scale(-1, 1) translate(-100.9, -24.5) translate(82.40002, 0)" id="o1"><g transform="translate(18.19189, 24.4854) scale(-1, 1) rotate(-7, 0, 0) translate(-18.19189, -24.4854) translate(2.691893, 2.485396)" id="p1"><path d="M5.4 26.9 C1.8 24.9 1 24.8 2.3 21.6 C3.6 18.4 6.1 18.9 8.7 16.4 C11.3 13.9 17.2 9.7 21.1 7.8 C25 5.9 27.4 3.6 29.4 5.8 C31.4 8 32.8 14 31.7 20.1 C30.7 26.2 27.1 31.6 26.8 34.5 C26.4 37.4 25.6 41.8 23.9 44.1 C23.4 44.8 21.9 46.5 21 47 C19.1 47.9 18.5 47.3 17.1 43.7 C16.8 42.8 17 42 16.7 41.2 C15.3 37.5 14.2 35.4 12.3 33.5 C9.9 31.1 9 29 5.4 26.9 z" id="q1" fill="#474B4F" /><path d="M5.4 26.9 C1.8 24.9 1 24.8 2.3 21.6 C3.6 18.4 6.1 18.9 8.7 16.4 C11.3 13.9 17.2 9.7 21.1 7.8 C25 5.9 27.4 3.6 29.4 5.8 C31.4 8 32.8 14 31.7 20.1 C30.7 26.2 27.1 31.6 26.8 34.5 C26.4 37.4 25.6 41.8 23.9 44.1 C23.4 44.8 21.9 46.5 21 47 C19.1 47.9 18.5 47.3 17.1 43.7 C16.8 42.8 17 42 16.7 41.2 C15.3 37.5 14.2 35.4 12.3 33.5 C9.9 31.1 9 29 5.4 26.9 z M7.1 25.9 C10.4 27.8 11.2 29.8 13.4 32 C15.1 33.8 16.2 35.7 17.4 39.1 C17.7 39.8 17.5 40.6 17.8 41.4 C19.1 44.7 19.6 45.3 21.4 44.4 C22.2 43.9 23.6 42.4 24.1 41.7 C25.7 39.6 26.4 35.5 26.8 32.8 C27.1 30.1 30.4 25.1 31.3 19.5 C32.3 13.9 31 8.3 29.2 6.3 C27.4 4.3 25.2 6.4 21.6 8.1 C18 9.8 12.6 13.7 10.2 16 C7.8 18.3 5.5 17.8 4.3 20.8 C3.1 23.8 3.8 24.1 7.1 25.9 z" opacity="0.15" id="r1" /><path d="M9.4 25.7 C7.4 24.7 6 24.1 7 21.5 C7.6 20 11.2 17.9 14.6 15.3 C17 13.4 19.9 11.4 21.7 10.4 C24.3 8.9 25.5 7.4 27.2 8.7 C28.8 10 30.2 15.6 29.4 20.3 C28.6 25.1 23.7 36.9 22.4 38.7 C21.1 40.5 19.8 43.5 18.2 39.3 C16.6 35.1 16.3 32.5 14.6 30.7 C12.9 29 11.4 26.8 9.4 25.7 z" id="s1" fill="#D8D8D8" /><path d="M11.5 26.9 C11.6 25.9 12.8 24.9 13 24.5 C13.3 23.9 16 22.3 18.3 20.9 C19.3 20.2 22.3 18.6 22.3 18.6 C23.9 17.7 23.8 21.1 22.3 23.8 C21.4 25.4 18.8 31.1 17 32.8 C15.8 33.9 14.9 30.4 14.4 30.5 C13.3 28.9 11.4 27.8 11.5 26.9 z" opacity="0.5" id="t1" fill="#474B4F" /></g></g><g id="u1"><g transform="translate(110.8, 92.69997) translate(33, 43)" id="v1"><g transform="translate(0, 6)" id="w1"><path d="M51.4 27.5 C51 26.8 50.5 26.2 49.9 25.7 C49.6 24.8 49.3 23.9 49 23.1 C47.1 18.1 46.5 12.5 43.6 8.8 C38.7 2.7 32.8 0.8 25.9 0.8 C19 0.8 13.1 2.8 8.2 8.8 C5.3 12.4 4.6 18.1 2.8 23.1 C2.5 23.9 2.2 24.8 1.9 25.7 C1.3 26.2 0.7 26.8 0.4 27.5 C-0.4 29.1 0.1 31.2 1.1 32.7 C2.1 34.2 4.6 36.6 9.3 37.7 C10 37.9 10.7 37.8 11.4 37.5 C11.4 37.6 11.4 37.7 11.4 37.7 C15.7 43.2 17.8 38.9 25.9 40 C34.1 38.9 36.1 43.2 40.4 37.7 C40.4 37.6 40.4 37.5 40.4 37.5 C41.1 37.8 41.8 37.9 42.5 37.7 C47.2 36.6 49.6 34.2 50.7 32.7 C51.8 31.2 52.4 29.1 51.4 27.5 z" id="x1" fill="#FEFEFE" /><path d="M51.4 27.5 C52.4 29.1 51.8 31.2 50.7 32.7 C49.6 34.2 47.2 36.6 42.5 37.7 C41.8 37.9 41.1 37.8 40.4 37.5 C40.4 37.5 40.4 37.6 40.4 37.7 C36.1 43.2 34.1 38.9 25.9 40 C17.8 38.9 15.7 43.2 11.4 37.7 C11.4 37.7 11.4 37.6 11.4 37.5 C10.7 37.8 10 37.9 9.3 37.7 C4.6 36.6 2.1 34.2 1.1 32.7 C0.1 31.2 -0.4 29.1 0.4 27.5 C0.7 26.8 1.3 26.2 1.9 25.7 C2.2 24.8 2.5 23.9 2.8 23.1 C4.6 18.1 5.3 12.4 8.2 8.8 C13.1 2.8 19 0.8 25.9 0.8 C32.8 0.8 38.7 2.7 43.6 8.8 C46.5 12.5 47.1 18.1 49 23.1 C49.3 23.9 49.6 24.8 49.9 25.7 C50.5 26.2 51 26.8 51.4 27.5 z M49 27.1 C48.7 26.4 48.5 24.8 48 24.3 C47.7 23.5 47.4 22.6 47.1 21.9 C45.4 17.3 44.8 12.2 42.2 8.8 C37.7 3.1 32.2 1.4 25.9 1.4 C19.6 1.4 14.1 3.2 9.6 8.8 C7 12.1 6.3 17.3 4.7 21.9 C4.4 22.6 4.4 24.4 4.1 25.2 C3.6 25.6 2.8 26.4 2.5 27.1 C1.8 28.5 2.2 29.4 3.1 30.7 C4 32.1 4.4 34.8 8.7 35.8 C9.1 35.9 10.5 36.1 12.7 36.2 C16.7 41.3 18.5 36.4 25.9 37.4 C30.4 36.8 35 38.3 37.4 38.1 C38.9 37.9 38.9 37.5 39.1 36.2 C39.7 36.5 42 36.8 42.7 36.6 C47 35.6 47.7 32.1 48.7 30.7 C49.7 29.4 49.9 28.5 49 27.1 z" opacity="0.15" id="y1" /><path d="M35.3 17.8 C35.2 15.5 34.5 13.4 31.9 13 C30 12.7 27.9 13.2 26 13.5 C24.2 13.3 22.2 12.9 20.4 13 C18 13.2 16.9 14.9 16.7 17.2 C16.5 19.3 16.4 21.7 17.9 23.4 C19.2 25 21 26.2 19.5 28.4 C18.9 29.2 18 30.1 18.1 31.2 C18.2 32.2 19.1 32.3 19.8 32.8 C21.4 33.8 23 34.6 24.9 34.8 C26.8 35 28.8 34.7 30.6 33.7 C31.3 33.3 32 32.8 32.7 32.4 C33.6 31.9 34.2 31.6 33.8 30.4 C33.5 29.2 32.2 28.4 31.9 27.2 C31.6 26.1 32.4 25.2 33.1 24.4 C33.9 23.5 34.7 22.8 35 21.6 C35.4 20.4 35.4 19.1 35.3 17.8 z" id="z1" fill="#F4F4F4" /><g transform="translate(9, 19)" id="a2" fill="#F4F4F4"><path d="M31.4 5.9 C31.6 6.7 32.7 7.1 33.3 6.6 C33.9 6.1 33.9 5 33.1 4.6 C32.4 4.2 31.4 4.8 31.3 5.6" id="b2" /><path d="M27.8 2.4 C28 3.2 29.1 3.6 29.7 3.1 C30.3 2.6 30.3 1.5 29.5 1.1 C28.8 0.7 27.8 1.3 27.7 2.1" id="c2" /><path d="M26.6 7.5 C26.8 8.3 27.9 8.7 28.5 8.2 C29.1 7.7 29.1 6.6 28.3 6.2 C27.6 5.8 26.6 6.4 26.5 7.2" id="d2" /><path d="M2.6 5.9 C2.4 6.7 1.3 7.1 0.7 6.6 C0.1 6.1 0.1 5 0.9 4.6 C1.6 4.2 2.6 4.8 2.7 5.6" id="e2" /><path d="M6.2 2.4 C6 3.2 4.9 3.6 4.3 3.1 C3.7 2.6 3.7 1.5 4.5 1.1 C5.2 0.7 6.2 1.3 6.3 2.1" id="f2" /><path d="M7.4 7.5 C7.2 8.3 6.1 8.7 5.5 8.2 C4.9 7.7 4.9 6.6 5.7 6.2 C6.4 5.8 7.4 6.4 7.5 7.2" id="g2" /></g></g></g><g transform="translate(169.8, 176.2) scale(0.7) translate(-169.8, -171.2) translate(96.70002, 71.09997) translate(47, 87)" id="h2"><g id="i2"><path d="M3.4 5.4 C4.9 4.3 6.4 6.3 6.5 7.5 C6.6 8.7 8.3 11.5 10.6 12.2 C12.9 12.9 15.9 13.7 19.3 12.8 C20.3 12.5 21.7 11.7 24.1 11.5 C24.2 11.5 24.4 10.8 24.5 9.9 C24.7 8.2 25.2 5.7 25.4 5.7 C25.7 5.7 25.7 8.3 26 10 C26.2 11 26.4 11.6 26.5 11.6 C28.5 11.8 29.8 12.5 31.4 12.8 C34.4 13.5 39.8 13.5 41.8 9.6 C43.8 5.7 43.8 4.1 45 4.1 C46.2 4.1 46.5 6.2 45 8 C43.5 9.8 41.3 12 38.9 13.1 C36.5 14.2 32.3 14 31.3 14 C30.3 14.1 28.6 15.3 25 15.3 C21.4 15.3 19.6 14 18.7 14 C17.8 14 16.8 14.3 13.9 13.8 C11 13.6 8.3 11.8 6 10 C3.7 8.2 1.9 6.5 3.4 5.4 z" id="j2" /><path d="M16.7 13.9 C17.2 14.9 17.8 15.6 18.4 16 C20.2 17.2 23 17.8 25 17.8 C27.2 17.8 30.6 17.2 32.7 15.9 C33.3 15.5 33.7 14.9 34 13.9 C30.1 13.3 27.2 13 25.4 13 C23.6 13 20.6 13.3 16.7 13.9 z" opacity="0.15" id="k2" /></g></g><g transform="translate(106.1, 71.79996) translate(53, 75)" id="l2"><g id="m2"><path d="M0.8 8.1 C0.8 4.5 0.5 3.4 3 2.3 C5.5 1.2 7.8 1 10.7 1 C13.6 1 18.5 0.8 19.9 3.1 C21.3 5.4 20.8 7 20.8 9.2 C20.8 11.4 18 11.5 16.7 12.8 C15.3 14.2 15.2 15.1 13.4 15.2 C11.4 15.3 9.4 15.4 8.1 15.2 C7 15.1 5.5 13.7 4.8 12.8 C3.1 10.8 0.8 11.7 0.8 8.1 z" id="n2" /><path d="M15 6.7 C12 5.3 11.4 4.3 11.4 3.5 C11.4 2.7 13.2 2 15.4 2 C17.6 2 19 3.1 19.4 4.4 C19.5 4.8 19.9 6.3 19.4 6.7 C18.7 7.2 16.6 7.4 15 6.7 z" id="o2" fill="#FFF" /></g></g><g transform="translate(107.6, 93.39996) translate(28, 31)" id="p2"><g id="q2"><path d="M27.4 14.8 C22.7 14.2 24.5 5.1 19.1 1.5 C15.1 -1.3 8.2 2.3 5.5 4.5 C1.9 7.3 -0.5 10.3 0.1 14.8 C0.7 19.3 4 23.4 8.3 24.9 C11.9 26.1 15.9 25.6 19.5 24.1 C22 23 30.4 15.1 27.4 14.8 z" id="r2" fill="#FEFEFE" /><path d="M5.1 12.4 C5.1 10.8 7.5 10 9.7 8.3 C10.5 7.7 12 6.6 13.8 6.6 C16.3 6.6 18.1 8.3 19.3 10.3 C20.6 12.5 22.2 14.7 21.7 15.7 C21.2 16.9 18.6 17.2 16 18.1 C14.8 18.5 11.4 18.4 9.5 16.8 C7.5 15 5.1 13.3 5.1 12.4 z" id="s2" fill="#D8D8D8" /><path d="M18.6 10.5 C18.4 10.1 18.2 9.8 17.9 9.5 C17.1 8.6 15.9 8.1 14.6 8.1 C13.9 8.1 13.3 8.3 12.7 8.5 C12.6 8.5 12.6 8.6 12.5 8.6 C12.3 8.7 12.1 8.8 11.9 8.9 C10.1 9.9 8.2 10.7 7.9 12.1 C7.7 13.1 9.8 14.7 11.6 16.1 C11.8 16.2 11.9 16.4 12.1 16.5 C12.1 16.5 12.2 16.5 12.2 16.6 C12.9 17 13.7 17.2 14.5 17.2 C14.7 17.2 14.9 17.2 15.1 17.1 L15.2 17.1 C15.5 17.1 15.7 17 16 16.9 C17.9 16.5 20.2 16.2 20.6 15 C21.1 14.2 19.9 12.3 18.6 10.5 z" id="t2" fill="#282421" /><path d="M11.5 12.4 C12 12.8 12.7 12.5 13.3 12.2 C14.5 11.6 17.1 10.9 17 10.4 C16.9 9.9 15.4 9.5 15.2 9.4 C14.5 9.2 13.5 9.2 12.9 9.5 C12.1 10 10.4 11.5 11.5 12.4 z" id="u2" fill="#FFFAF8" /></g></g><g transform="translate(107, 93.39996) translate(68, 31)" id="v2"><g id="w2"><path d="M1.6 14.8 C6.3 14.2 5.3 5.1 10.6 1.5 C14.6 -1.3 20.8 2.3 23.5 4.5 C27.1 7.3 29.5 10.3 28.9 14.8 C28.3 19.3 25 23.4 20.7 24.9 C17.1 26.1 13.1 25.6 9.5 24.1 C6.9 23 -1.4 15.1 1.6 14.8 z" id="x2" fill="#FEFEFE" /><path d="M23.9 12.4 C23.9 10.8 21.5 10 19.3 8.3 C18.5 7.7 17 6.6 15.2 6.6 C12.7 6.6 10.9 8.3 9.7 10.3 C8.4 12.5 6.8 14.7 7.3 15.7 C7.8 16.9 10.4 17.2 13 18.1 C14.2 18.5 17.6 18.4 19.5 16.8 C21.5 15 23.9 13.3 23.9 12.4 z" id="y2" fill="#D8D8D8" /><path d="M17.1 9 C16.9 8.9 16.7 8.8 16.5 8.7 C16.4 8.7 16.4 8.6 16.3 8.6 C15.7 8.3 15.1 8.2 14.4 8.2 C13.1 8.2 12 8.7 11.1 9.6 C10.8 9.9 10.5 10.3 10.3 10.7 C9.1 12.4 7.8 14.4 8.2 15.3 C8.7 16.5 10.9 16.8 12.8 17.2 C13.1 17.3 13.3 17.4 13.6 17.4 L13.7 17.4 C13.9 17.4 14.1 17.4 14.3 17.4 C15.2 17.4 15.9 17.2 16.6 16.7 C16.6 16.7 16.7 16.7 16.7 16.6 C16.9 16.5 17.1 16.3 17.2 16.2 C19.1 14.8 21.1 13.2 20.9 12.2 C20.8 10.8 18.9 10.1 17.1 9 z" id="z2" fill="#282421" /><path d="M11.1 12 C11.6 12.4 12.3 12.1 12.9 11.8 C14.1 11.2 16.7 10.5 16.6 10 C16.5 9.5 15 9.1 14.8 9 C14.1 8.8 13.1 8.8 12.5 9.1 C11.6 9.5 9.9 11.1 11.1 12 z" id="a3" fill="#FFFAF8" /></g></g></g></g></g><g id="b3"><g transform="matrix(1, 0, 0, 1, -6.103516E-05, -0.02001953)"><g transform="translate(130.2363, 130.5565) scale(0.9080061, 0.9048923)"><g transform="translate(57, 7) translate(-2233, -479.5001)" id="c3"><path d="M2176 473.1 C2176 475.1 2176 477.1 2176 479.1 C2176 479.9 2176.1 479.8 2177.1 479.8 C2177.7 479.8 2179.3 479.4 2179.3 480.2 C2179.3 481.1 2179.3 482.2 2179.3 483.1 C2179.3 483.2 2181.9 483.1 2182.1 483.1 C2183 483.1 2182.7 484 2182.7 484.8 C2182.7 485.9 2182.3 486.5 2183.4 486.5 C2183.6 486.5 2186 486.5 2186 486.5 C2186 487.6 2186 488.6 2186 489.6 C2186 490 2188.5 489.7 2188.8 489.7 L2208.8 489.7 C2210.2 489.7 2208.6 487 2209.3 486.4 C2209.7 486 2211.8 486.4 2212.2 486.4 C2212.9 486.4 2212.6 484.6 2212.6 484 C2212.6 482.8 2212.5 482.9 2213.7 482.9 C2214.3 482.9 2216.1 483.3 2216.1 482.5 C2216.1 480.6 2216.1 478.6 2216.1 476.7 C2216.1 475.9 2216.5 476.2 2217.2 476.2 C2218.5 476.2 2219.8 476.2 2221.1 476.2 C2221.3 476.2 2222.8 476.1 2222.8 476.3 L2222.8 482 C2222.8 483.2 2223.4 482.7 2224.6 482.7 C2225.4 482.7 2226.3 482.3 2226.3 483.3 C2226.3 483.5 2226.3 486.1 2226.3 486.1 C2227.2 486.1 2228.3 486.1 2229.2 486.1 C2229.8 486.1 2229.6 487.9 2229.6 488.3 C2229.6 488.7 2229.4 489.4 2229.8 489.4 L2252.9 489.4 C2252.9 489.4 2252.9 486.8 2252.9 486.6 C2252.9 485.7 2254 486.1 2254.7 486.1 C2256.1 486.1 2256.2 486.3 2256.2 485 C2256.2 484.6 2256.1 482.6 2256.3 482.6 C2257.4 482.6 2258.4 482.6 2259.5 482.6 C2259.6 482.6 2259.5 480.2 2259.5 480 C2259.5 478.8 2260.2 479.3 2261.3 479.3 C2262 479.3 2262.8 479.7 2262.8 478.8 C2262.8 477.6 2262.8 476.3 2262.8 475.1 C2262.8 474.6 2263.2 472.5 2262.6 472.5 L2186 472.5 C2182.6 473.1 2179.3 473.1 2176 473.1 z" id="d3" fill="#282421" /><g transform="translate(14, 3)" id="e3"><path d="M2232.1 480.1 C2232.7 480.1 2234.9 479.7 2235.4 480.1 C2235.5 480.2 2235.5 483.3 2235.4 483.4 C2235.2 483.5 2232.3 483.5 2232.1 483.4 C2231.7 483.1 2232.1 480.6 2232.1 480.1 z" id="f3" fill="#938F8C" /><path d="M2235.5 476.8 C2236.1 476.8 2238.3 476.4 2238.8 476.8 C2238.9 476.9 2238.9 480 2238.8 480.1 C2238.6 480.2 2235.7 480.2 2235.5 480.1 C2235.1 479.8 2235.5 477.3 2235.5 476.8 z" id="g3" fill="#938F8C" /><path d="M2238.8 473.5 C2239.4 473.5 2241.6 473.1 2242.1 473.5 C2242.2 473.6 2242.2 476.7 2242.1 476.8 C2241.9 476.9 2239 476.9 2238.8 476.8 C2238.4 476.5 2238.8 474 2238.8 473.5 z" id="h3" fill="#938F8C" /><path d="M2225.5 480.1 C2226.1 480.1 2228.3 479.7 2228.8 480.1 C2228.9 480.2 2228.9 483.3 2228.8 483.4 C2228.6 483.5 2225.7 483.5 2225.5 483.4 C2225.1 483.1 2225.5 480.6 2225.5 480.1 z" id="i3" fill="#938F8C" /><path d="M2228.8 476.8 C2229.4 476.8 2231.6 476.4 2232.1 476.8 C2232.2 476.9 2232.2 480 2232.1 480.1 C2231.9 480.2 2229 480.2 2228.8 480.1 C2228.4 479.8 2228.8 477.3 2228.8 476.8 z" id="j3" fill="#938F8C" /><path d="M2232.1 473.5 C2232.7 473.5 2234.9 473.1 2235.4 473.5 C2235.5 473.6 2235.5 476.7 2235.4 476.8 C2235.2 476.9 2232.3 476.9 2232.1 476.8 C2231.7 476.5 2232.1 474 2232.1 473.5 z" id="k3" fill="#938F8C" /><path d="M2185.4 480.1 C2186 480.1 2188.2 479.7 2188.7 480.1 C2188.8 480.2 2188.8 483.3 2188.7 483.4 C2188.5 483.5 2185.6 483.5 2185.4 483.4 C2185 483.1 2185.4 480.6 2185.4 480.1 z" id="l3" fill="#938F8C" /><path d="M2188.7 476.8 C2189.3 476.8 2191.5 476.4 2192 476.8 C2192.1 476.9 2192.1 480 2192 480.1 C2191.8 480.2 2188.9 480.2 2188.7 480.1 C2188.3 479.8 2188.7 477.3 2188.7 476.8 z" id="m3" fill="#938F8C" /><path d="M2192.1 473.5 C2192.7 473.5 2194.9 473.1 2195.4 473.5 C2195.5 473.6 2195.5 476.7 2195.4 476.8 C2195.2 476.9 2192.3 476.9 2192.1 476.8 C2191.8 476.5 2192.1 474 2192.1 473.5 z" id="n3" fill="#938F8C" /><path d="M2178.7 480.1 C2179.3 480.1 2181.6 479.7 2182 480.1 C2182.1 480.2 2182.1 483.3 2182 483.4 C2181.9 483.5 2178.8 483.5 2178.7 483.4 C2178.3 483.1 2178.7 480.7 2178.7 480.1 z" id="o3" fill="#938F8C" /><path d="M2182.1 476.8 C2182.7 476.8 2185 476.4 2185.4 476.8 C2185.5 476.9 2185.5 480 2185.4 480.1 C2185.3 480.2 2182.2 480.2 2182.1 480.1 C2181.7 479.8 2182.1 477.4 2182.1 476.8 z" id="p3" fill="#938F8C" /><path d="M2185.4 473.5 C2186 473.5 2188.2 473.1 2188.7 473.5 C2188.8 473.6 2188.8 476.7 2188.7 476.8 C2188.5 476.9 2185.6 476.9 2185.4 476.8 C2185 476.5 2185.4 474 2185.4 473.5 z" id="q3" fill="#938F8C" /></g></g></g></g><g transform="matrix(1, 0, 0, 1, -4.577637E-05, -0.02001953)"><g transform="translate(167.5839, 163.4649) scale(0.9285598, 0.9266304)"><g transform="translate(427, 23) translate(-2679.7, -444.6)" id="r3"><path d="M2258.4 435 C2261.9 436.1 2265.5 436.5 2269.1 437.1 C2274.1 437.9 2278.9 439 2283.7 440.3 C2288.5 441.6 2293.6 442.7 2298.3 444.4 C2300.1 445 2301.8 445.9 2302.2 447.9 C2302.7 449.9 2301.4 452.1 2300.1 453.6 C2296.9 457 2292.1 456.5 2288 455.6 C2284 454.7 2280.1 453.5 2276.6 451.7 C2270.2 448.5 2264.8 443.8 2258.4 440.6 C2257.2 440 2254.9 439.2 2254.4 437.7 C2254 435.8 2256.9 434.5 2258.4 435 C2264.1 436.7 2256.9 434.5 2258.4 435 z" id="s3" fill="#E8E1D1" /><path d="M2287.3 455.8 C2287.3 455.8 2280.9 449.8 2280.5 449.2 C2283.2 448.6 2290.5 452.2 2287.3 455.8 z" id="t3" fill="#F4F4DC" /><path d="M2257.6 434.8 C2259.3 434.8 2261.1 435.7 2262.8 436.1 C2264.5 436.5 2266.1 436.7 2267.8 436.9 C2272.4 437.6 2276.9 438.6 2281.4 439.6 C2286.2 440.8 2291.1 442.2 2295.9 443.5 C2299.2 444.4 2302.4 445.5 2305.4 447 C2303.4 450.1 2301.4 453 2299.4 456.1 C2299 456.6 2298.7 457 2298.5 457.6 C2298.3 458.1 2295.9 457.4 2295.4 457.2 C2292.9 456.6 2290.4 455.4 2288 455.1 C2281.6 453.7 2276 451.6 2270.6 447.9 C2268.1 446.2 2265.6 444.5 2263.1 442.9 C2261.6 442 2259.9 441.1 2258.4 440.4 C2257.3 439.8 2255.2 439.1 2254.9 437.7 C2254 436 2256.1 434.8 2257.6 434.8 z M2257.6 433.7 C2255.9 433.7 2253.9 434.6 2253.4 436.3 C2252.7 438.4 2254.5 439.8 2256.1 440.8 C2258.2 442 2260.3 442.9 2262.5 444.2 C2264.4 445.4 2266.4 446.7 2268.3 447.9 C2270.9 449.7 2273.5 451.3 2276.3 452.6 C2278 453.3 2279.6 454 2281.3 454.5 C2283.5 455.2 2285.9 455.6 2288 456.3 C2289.9 457 2291.8 457.6 2293.8 458.1 C2295 458.5 2298.6 459.8 2299.5 458.5 C2300.4 457 2301.5 455.6 2302.4 454 C2303.7 452.1 2304.9 450.2 2306.2 448.3 C2306.6 447.7 2307 446.9 2306.2 446.4 C2305.4 445.8 2304.3 445.6 2303.5 445.2 C2302.3 444.7 2301.3 444.1 2300.1 443.9 C2293.1 442 2286.3 440 2279.3 438.2 C2275.5 437.3 2271.9 436.5 2268.1 436 C2266.4 435.8 2264.9 435.5 2263.3 435.2 C2262.5 435.1 2261.5 434.8 2260.7 434.6 C2260.1 434.5 2259.5 434.2 2258.9 434.1 C2258.4 433.8 2258.1 433.7 2257.6 433.7 z" id="u3" fill="#B2AFA8" /><path d="M2308.7 443.2 C2307.4 440.8 2305.5 440 2303.4 438.7 C2301.4 437.4 2300.2 435.6 2299.9 433.3 C2299.2 428.2 2302.6 424.1 2306.7 421.6 C2304.1 424.5 2303.8 428.8 2305.9 432.1 C2307.9 435.2 2311.9 436.3 2313.8 439.6 C2315.5 442.5 2315.9 446.2 2314.3 449.1 C2312.9 451.8 2310.1 454.1 2306.9 454.2 C2309.6 450.2 2310.1 445.7 2308.7 443.2 C2307.9 441.9 2310.1 445.7 2308.7 443.2 z" id="v3" fill="#D5D5D5" /><path d="M2305.4 447.1 C2304 445.4 2301.3 445 2298.2 444.4 C2298.3 445.6 2299.3 446.4 2298.7 447.7 C2297.9 449.2 2296.5 449.5 2294.9 449.8 C2293.1 450.3 2292.8 451 2293.1 452.9 C2293.5 454.4 2293.1 455.8 2291.3 456.3 C2292.7 457.2 2294.6 457.5 2296.3 457.7 C2298.3 458.1 2300.5 458.5 2302.2 457.1 C2302.9 456.4 2302.8 455.4 2303.5 454.7 C2304 454.2 2304.8 453.8 2305 453 C2305.5 452.2 2305 451.1 2305.1 450.3 C2305.1 449.3 2306.3 448.2 2305.4 447.1 z" id="w3" fill="#7F665C" /><path d="M2305.1 448 C2305.1 446.2 2303 447.8 2302.3 448.1 C2301.2 448.6 2298.5 449.2 2298.5 450.7 C2298.6 451.3 2299 451.9 2299.3 452.4 C2299.5 452.8 2298.7 453.5 2298.5 453.6 C2297.4 454.5 2296.6 455.4 2296.8 456.9 C2297 458.1 2298.8 458.3 2299.7 458.2 C2301.6 458 2302.2 457.1 2302.9 455.4 C2303.4 454.3 2304.6 454 2305 453 C2305.5 452.2 2304.8 451.1 2304.6 450.3 C2305.2 449.7 2305.1 448.8 2305.1 448 z" id="x3" fill="#B6031A" /><path d="M2303.9 449.5 C2303.9 448.3 2302.5 449.4 2301.9 449.6 C2301.2 450 2299.4 450.3 2299.4 451.4 C2299.4 452.5 2300.6 452.3 2299.6 453.3 C2298.9 453.9 2298.1 454.7 2298.4 455.8 C2298.6 456.6 2300.1 456.7 2300.6 456.5 C2301.9 456.1 2302.1 455.7 2302.6 454.5 C2302.8 453.9 2303.7 453.7 2304 453.1 C2304.4 452.6 2304.1 452 2303.9 451.6 C2303.8 450.8 2303.9 450.2 2303.9 449.5 z" id="y3" fill="#D34E1A" /><path d="M2302.3 457.5 C2301.4 458.4 2299.6 459.2 2298.3 458.9 C2295.9 458.4 2295.7 455.7 2297.2 454.2 C2297.7 453.7 2298.7 453.4 2299.1 452.7 C2299.2 452.3 2298.9 452 2298.6 451.8 C2298.1 451.2 2298.2 450.5 2298.6 449.9 C2299.2 449 2300.6 447.9 2301.5 447.2 C2302.8 446.3 2304.8 444.6 2306.2 446.1 C2307.3 447.3 2306.7 449.2 2306.6 450.5 C2306.5 452.2 2306.6 453.3 2304.9 454.3 C2304.2 454.8 2303.7 455 2303.4 456 C2303.2 456.5 2303 457.1 2302.3 457.5 z M2302.1 457.2 C2302.7 456.6 2302.7 455.7 2303 455 C2303.4 454.3 2304.9 453.3 2304.8 452.5 C2304.7 451.8 2304.2 451.2 2304.1 450.4 C2304 449.6 2304.1 448.6 2304.1 447.7 C2304.1 447.7 2304.2 447.9 2304.3 447.8 C2303.5 448.6 2301.6 449.2 2300.5 449.7 C2299.9 449.9 2299.2 450.2 2298.8 450.6 C2298.4 451.2 2299.3 451.5 2299.5 452 C2300.4 453.8 2297.1 454.9 2298.1 456.7 C2299 458 2301.1 458.4 2302.1 457.2 z" id="z3" fill="#563E4C" /><path d="M2303.1 448.9 C2302.2 449.3 2299.9 450.4 2301.2 451.7 C2302.9 453 2303.2 449.7 2303.1 448.9 z" id="a4" fill="#FFEB36" /><path d="M2302.2 454.3 C2302.1 453.8 2302 453.4 2301.8 452.9 C2302.4 452.8 2303.1 452.5 2303.7 452.4 C2303.3 453.1 2302.4 453.6 2302.2 454.3 z" id="b4" fill="#FFFFE1" /><path d="M2300.4 455.7 C2300.2 455 2300.4 453.1 2301.5 454.2 C2302.2 454.9 2301.3 455.5 2300.7 455.7" id="c4" fill="#FFEB36" /><path d="M2301.1 455.9 C2301.5 455.5 2302.2 455.3 2302.3 455.9 C2302.4 456.5 2301 457.1 2300.6 457.2 C2300.6 456.8 2300.9 456.3 2301.1 455.9 C2301.2 455.8 2300.9 456.3 2301.1 455.9 z" id="d4" fill="#FFEB36" /><path d="M2299.5 454.2 C2299.7 454.7 2300.1 455.3 2300.1 455.7 C2300.1 456.1 2299.4 456.6 2299.2 456.1 C2298.8 455.5 2299.1 454.6 2299.5 454.2 C2299.6 454.4 2299.1 454.6 2299.5 454.2 z" id="e4" fill="#FFFFE1" /><path d="M2300.5 452.6 C2300.1 452.2 2299.3 451.2 2299.8 450.7 C2300.4 450.8 2300.5 452.6 2300.5 452.6" id="f4" fill="#FFEB36" /><path d="M2268.6 446.3 C2270.1 446.2 2271.9 446.2 2273.1 446.3 C2272.2 445.2 2270.6 444.6 2269.2 444.5 C2268.3 444.4 2267.2 444.4 2266.3 444.3 C2265.2 444.2 2264.4 443.7 2263.4 443.6 C2264.1 444.3 2264.9 445.1 2265.8 445.8 C2266.3 446.5 2267.6 446.3 2268.6 446.3 C2270.1 446.2 2267.7 446.3 2268.6 446.3 z" id="g4" fill="#B2AFA8" /><path d="M2274.5 437.6 C2274 437.7 2269.2 440.2 2269.7 440.7 C2269.9 440.9 2271.8 440 2272.1 439.9 C2273.4 439.3 2274.9 438.7 2276.3 438.6" id="h4" fill="#B2AFA8" /><path d="M2279.1 438.7 C2278.4 438.8 2270.3 441.2 2270.5 441.6 C2270.9 442.2 2280.2 439.5 2281.1 439.2 L2279.1 438.7 z" id="i4" fill="#B2AFA8" /><g transform="translate(15, 22)" id="j4"><path d="M2256.4 427.1 C2256.9 427.5 2257.5 428 2257.9 428.2 C2259.1 428.2 2260.3 427.8 2261.3 427.6 C2261.7 427.5 2266.4 425.6 2266.3 425.4 C2266.1 424.9 2259.7 427.1 2256.4 427.1 z" id="k4" fill="#B2AFA8" /><path d="M2259.6 428.5 C2259.7 429.7 2262.2 429.7 2263 429.8 C2263.4 429.8 2266.2 430.4 2266.3 429.8 C2266.5 429.5 2261.8 428.3 2259.6 428.5 z" id="l4" fill="#B2AFA8" /></g><g transform="translate(4, 12)" id="m4"><path d="M2261 424.4 C2260.4 424.6 2253.9 425.3 2253.9 425.2 C2254.1 425.8 2257.6 425.7 2258 425.7 C2260 425.7 2262.2 425.7 2264.1 424.9 C2263.6 424.7 2261 423.7 2261 424.4 z" id="n4" fill="#B2AFA8" /><path d="M2267.9 431.4 C2268.3 432.1 2269.2 432.5 2269.9 432.8 C2270.8 433.4 2271.8 434.1 2272.5 434.9 C2271.4 433.9 2270.1 430.5 2267.9 431.4 C2268.2 432.2 2268.7 431.1 2267.9 431.4 z" id="o4" fill="#B2AFA8" /><path d="M2282.6 429.1 C2281.1 429.2 2279.4 429.6 2278.1 430.5 C2277.5 431 2276.2 432.9 2278 432 C2281.4 430.3 2284.6 429.2 2288.5 429.9 C2286.6 429.4 2284.6 429 2282.6 429.1 C2281.1 429.2 2284.6 429 2282.6 429.1 z" id="p4" fill="#B2AFA8" /></g><path d="M2286.6 455.4 C2287.7 455.4 2288.4 456 2289.3 455.2 C2290.4 454.5 2291.2 453.3 2291.7 452.1 C2290.3 451.6 2289.7 455.5 2287.8 455.3 C2287 455.2 2286.9 454.7 2286.4 454.1 C2285.8 453.3 2285.1 452.4 2284.3 451.7 C2282.9 450.5 2281.1 449.5 2279.2 449.5 C2282.8 450.3 2285.8 455.2 2286.6 455.4 C2286.8 455.4 2285.8 455.2 2286.6 455.4 z" id="q4" fill="#B2AFA8" /><path d="M2269.2 442.2 C2267.9 441.1 2268.3 439 2269.6 438.2 C2268.7 438.7 2267.1 438.3 2266.2 438.3 C2264.3 438.2 2262.4 438.3 2260.5 438.4 C2263.5 439.6 2266.4 440.4 2269.2 442.2 C2268.6 441.7 2266.4 440.4 2269.2 442.2 z" id="r4" fill="#F4F4DC" /><path d="M2278.9 445 C2279.6 443.7 2280.8 442.6 2282.1 441.9 C2280.9 440.8 2279 440.8 2277.5 441.1 C2275.4 441.3 2273.3 441.8 2271.1 442.3 C2272.9 442.1 2274.6 442.4 2276.2 443.1 C2276.6 443.3 2279.2 444.5 2278.9 445 C2279.7 443.7 2279.2 444.5 2278.9 445 z" id="s4" fill="#F4F4DC" /><path d="M2285.9 443.3 C2287.7 443.2 2295.3 443.9 2297.8 447 C2298.3 447.6 2297.6 448.5 2297 448.9 C2295.8 449.6 2294.4 448.5 2293.2 448.2 C2290 447 2286.7 446.5 2283.3 446.4 C2279.7 446.3 2283.9 443.4 2285.9 443.3 C2287.7 443.2 2283.9 443.4 2285.9 443.3 z" id="t4" fill="#F4F4DC" /></g></g></g></g><g transform="translate(39.29518, 265.301)" id="u4"><ellipse cx="32.5" cy="17.5" rx="37.3" ry="13.2" opacity="0.15" id="v4" /><use xlink:href="#e" x="1.51" y="0" /></g><g transform="translate(235.8952, 266.9009)" id="w4"><ellipse cx="32.5" cy="17.5" rx="37.3" ry="13.2" fill-opacity="0.15" id="x4" /><use xlink:href="#e" x="0.08" y="0" /></g></g><defs><g transform="translate(17.09519, 0.800995) translate(-135.2952, -293.601)" id="e" fill="#000"><path d="M118.2 302.7 C118.4 307.4 132.5 311.2 149.8 311.2 C167.1 311.2 181.2 307.4 181.4 302.7 C181.4 307.5 181.4 310.1 181.4 310.5 C181.4 315.3 167.3 319.1 149.8 319.1 C132.3 319.1 118.2 315.2 118.2 310.5 L118.2 302.7 L118.2 302.7 z" fill-opacity="0.4528" id="y4" fill="#593001" /><path d="M118.7 301.7 C118.9 306.4 133 310.2 150.3 310.2 C167.6 310.2 181.7 306.4 181.9 301.7 C181.9 306.5 181.9 309.1 181.9 309.5 C181.9 314.3 167.8 318.1 150.3 318.1 C132.8 318.1 118.7 314.2 118.7 309.5 L118.7 301.7 L118.7 301.7 z" id="z4" fill="#DA8113" /><linearGradient x1="46.0545" y1="-118.6926" x2="45.4656" y2="-118.6926" gradientUnits="userSpaceOnUse" gradientTransform="matrix(117.135, 0, 0, 28.4634, -5208.417, 3687.795)" id="a5"><stop offset="0%" stop-color="#D9952A" stop-opacity="1" /><stop offset="6.438854%" stop-color="#CA7519" stop-opacity="1" /><stop offset="30.54%" stop-color="#E3AD3A" stop-opacity="1" /><stop offset="51.05%" stop-color="#FFEC91" stop-opacity="1" /><stop offset="68.8%" stop-color="#E9BD44" stop-opacity="1" /><stop offset="86.24%" stop-color="#FFED6C" stop-opacity="1" /><stop offset="93.87%" stop-color="#F2D353" stop-opacity="1" /><stop offset="100%" stop-color="#F2B947" stop-opacity="1" /></linearGradient><path d="M118.2 301.6 C118.4 306.1 132.7 309.7 150.3 309.7 C167.9 309.7 182.2 306.1 182.4 301.6 C182.4 306.2 182.4 308.7 182.4 309 C182.4 313.5 168 317.2 150.3 317.2 C132.6 317.2 118.2 313.5 118.2 309 L118.2 301.6 L118.2 301.6 z" id="b5" style="fill:url(#a5)" /><linearGradient x1="45.4914" y1="-117.9547" x2="45.9407" y2="-117.5895" gradientUnits="userSpaceOnUse" gradientTransform="matrix(115.425, 0, 0, 29.925, -5125.077, 3826.124)" id="c5"><stop offset="0%" stop-color="#F4E072" stop-opacity="1" /><stop offset="100%" stop-color="#DB9427" stop-opacity="1" /></linearGradient><ellipse cx="150.3" cy="301.5" rx="31.6" ry="8.2" id="d5" style="fill:url(#c5)" /><linearGradient x1="45.4656" y1="-126.0065" x2="46.0545" y2="-126.0065" gradientUnits="userSpaceOnUse" gradientTransform="matrix(117.135, 0, 0, 18.6219, -5208.417, 2651.479)" id="e5"><stop offset="0%" stop-color="#D9952A" stop-opacity="1" /><stop offset="6.438854%" stop-color="#CA7519" stop-opacity="1" /><stop offset="30.54%" stop-color="#E3AD3A" stop-opacity="1" /><stop offset="51.05%" stop-color="#FFEC91" stop-opacity="1" /><stop offset="68.8%" stop-color="#E9BD44" stop-opacity="1" /><stop offset="86.24%" stop-color="#FFED6C" stop-opacity="1" /><stop offset="93.87%" stop-color="#F2D353" stop-opacity="1" /><stop offset="100%" stop-color="#F2B947" stop-opacity="1" /></linearGradient><path d="M119.2 299.9 C119 300.2 118.9 300.6 118.9 301 C118.9 305.5 132.9 309.2 150.3 309.2 C167.7 309.2 181.7 305.5 181.7 301 C181.7 300.6 181.6 300.3 181.4 299.9 C182 300.5 182.4 301.2 182.4 301.9 C182.4 306.4 168 310.1 150.3 310.1 C132.6 310.1 118.2 306.4 118.2 301.9 C118.2 301.3 118.6 300.6 119.2 299.9 z" id="f5" style="fill:url(#e5)" /><linearGradient x1="45.196" y1="-121.5895" x2="45.3746" y2="-120.6758" gradientUnits="userSpaceOnUse" gradientTransform="matrix(101.745, 0, 0, 23.94, -4458.332, 3199.41)" id="g5"><stop offset="0%" stop-color="#F8DD61" stop-opacity="1" /><stop offset="100%" stop-color="#EAA330" stop-opacity="1" /></linearGradient><ellipse cx="150.3" cy="300.8" rx="27.8" ry="6.6" id="h5" style="fill:url(#g5)" /><linearGradient x1="45.5694" y1="-134.267" x2="45.0221" y2="-134.267" gradientUnits="userSpaceOnUse" gradientTransform="matrix(101.745, 0, 0, 13.2525, -4458.332, 2077.223)" id="i5"><stop offset="0%" stop-color="#F4CA2F" stop-opacity="1" /><stop offset="51.38%" stop-color="#BF7737" stop-opacity="1" /><stop offset="100%" stop-color="#E4A929" stop-opacity="1" /></linearGradient><path d="M122.6 301.5 C122.5 301.3 122.4 301 122.4 300.8 C122.4 297.2 134.9 294.2 150.2 294.2 C165.5 294.2 178 297.1 178 300.8 C178 301 177.9 301.3 177.8 301.5 C176.3 298.2 164.5 295.6 150.1 295.6 C135.7 295.6 124.1 298.2 122.6 301.5 z" id="j5" style="fill:url(#i5)" /></g></defs><desc>4I48NENE9GJ,x1veuydQB47IKz9u30njfLXcug7nLKGfadrPo/0vnOLiR8qT2HqC0DQkzvXFLxu4irJEmp8wEQ27EHxuwTGcwyvt5HydGlZrD9+8Q7/BCYnxAhTFzyEyxFEWPU9cFW9CjzGJoyRjBuU4L8cGbbRn/1S2O92th1B7QjUD6/99+M6owFr7wKj0R80WELYXaEDftznnrlUL5JzgcHUkmTXaY0vN2EkhBpkJI8B+A3f10cye3BOzSwRoN8cx9WnEGIPKomFhK8XmjMd3ok3rqxAzeCqIG44/m8ZmsI7eM4bXeKg=</desc></svg>