<?xml version="1.0" encoding="utf-8"?><!DOCTYPE svg PUBLIC "-//W3C//DTD SVG 1.1//EN" "http://www.w3.org/Graphics/SVG/1.1/DTD/svg11.dtd"><svg x="0" y="0" width="340px" height="340px" viewBox="0, 0, 340, 340" preserveAspectRatio="xMidYMid" font-size="0" id="a" enable-background="new 0 0 340 340" xmlns="http://www.w3.org/2000/svg" xmlns:xlink="http://www.w3.org/1999/xlink" xmlns:xml="http://www.w3.org/XML/1998/namespace" version="1.1"><g id="b" fill="#000"><g id="c"><g transform="translate(0, 0) translate(0, 224)" id="d"><ellipse cx="168.6" cy="53.1" rx="57.8" ry="12.8" fill-opacity="0.25" id="e" /></g><g id="f"><g transform="translate(106.2, 86.89998) translate(8, 107)" id="g"><path d="M17.9 35.7 C13.1 32.3 10.5 28 10 21.2 C9.9 20.1 0.7 17.8 0.4 21.9 C0.1 28 2.1 33.7 4.6 38.4 C7.9 44.5 15.6 50.4 23.9 50.4 L33.1 33.8 C29.3 37.3 22.1 38.7 17.9 35.7 z" id="h" fill="#7B4C3A" /><path d="M0.4 21.9 C2 23.7 7 22.6 10 21.2 C9.9 20.1 9.9 19 9.9 17.8 C10.1 6.6 20 4.3 17.6 0.8 C15.2 -2.7 5.9 7.2 4.7 9 C1.9 13.4 0.6 17.8 0.4 21.9 z" id="i" fill="#342520" /><path d="M0.4 21.9 C0.6 17.8 1.9 13.4 4.7 9 C5.9 7.2 15.2 -2.7 17.6 0.8 C20 4.3 10.1 6.6 9.9 17.8 C9.9 19 9.9 20.1 10 21.2 C10.5 28 13.1 32.3 17.9 35.7 C22.1 38.7 29.3 37.3 33.1 33.8 L23.9 50.4 C15.6 50.4 7.9 44.5 4.6 38.4 C2.1 33.7 0.1 28 0.4 21.9 z M5.8 10.5 C3.3 14.5 2.1 18.5 1.9 22.2 C1.6 27.7 3.4 32.9 5.7 37.1 C8.7 42.6 15.7 48 23.2 48 L30.2 36.8 C26.8 40 20.8 39.5 17 36.8 C12.7 33.7 9.7 31.4 9.2 25.3 C9.1 24.3 8.6 19.6 8.6 18.6 C8.9 8.4 19.2 2.4 16.5 0.9 C14.9 -1.2 6.9 8.9 5.8 10.5 z" opacity="0.15" id="j" /></g><g transform="translate(116.3, 272.3) scale(1.762527) translate(-116.3, -272.3) translate(93.10001, 121.1) translate(14, 108)" id="k"><path d="M2.1 21.4 C2.2 21.2 2.3 21 2.4 20.8 C2.5 20.1 2.5 19.4 2.7 18.7 C2.7 18.6 2.7 18.6 2.6 18.5 C2.2 19.4 1.3 20 0.4 20.2 C2 16.9 3.6 13.7 5.3 10.4 C4.7 10.5 4.1 10.6 3.5 10.7 C4.2 10.6 5.4 7.8 6.7 6.5 C6 5.9 5.5 5 5.4 4.1 C5.3 2.6 6.3 1.1 7.7 0.6 C7.4 1.6 7.8 2.8 8.7 3.4 C9.1 3.7 9.6 3.8 10.1 3.7 C10.7 3.2 11.2 2.9 11.8 2.7 C14.3 1.9 17.2 2.2 20 3.1 C22.8 4 23.9 33 24 41.7 C24 45.6 12.3 42.2 11.6 36.1 C9.7 33.5 7.4 32.4 5.6 30.6 C5.6 30.6 5.5 30.6 5.5 30.5 C3.9 29.7 2.7 28.2 2.2 26.5 C1.2 26.2 0.8 25 1 24.1 C1 23.1 1.6 22.2 2.1 21.4 z" id="l" fill="#7B4C3A" /><path d="M7.5 19 C8.9 15.6 10.4 13 13.3 10.8 C13.3 10.8 10.8 10.6 9.6 11.2 C10.2 9.8 12.7 7.1 15.3 5.3 C14.8 4.9 14.1 4.5 13.4 4.3 C15.4 2.8 18.2 2.6 20.6 3.5 C20.7 3.5 23.7 2.9 23.8 2.9 C26.3 3.3 34.3 4.7 35.8 6.4 C39.7 10.9 41.1 18.5 39.2 23.8 C36.9 30.5 23.8 27.2 23.7 41.6 L23.7 41.7 C22.9 41 22.2 40.5 21.9 40.4 C18.6 39.4 15 36.3 14.1 32.2 C13.8 30.9 14.1 29.7 13.6 29.8 C13.1 29.8 12.9 30.9 12.4 32.6 C12.5 31.8 11.5 28.7 10.6 28.7 C11 27.9 10.8 26.9 10.4 26.1 C10 25.3 9.4 24.6 9.1 23.8 C8.3 22 8.8 19.7 10.1 18.3 C9.4 18.5 8.5 18.8 7.5 19 z" id="m" fill="#B09082" /><path d="M11.5 36.1 L11.4 36 C15.3 36.5 19.1 37.8 22.4 39.9 C22.9 40.2 23.4 40.6 23.9 41 C23.9 41.2 23.9 41.4 23.9 41.7 C23.9 45.6 19.8 45.9 15.9 46.2 C12 46.5 7.2 46.2 6.8 41.2 C6.5 37.9 8.5 37.8 11.5 36.1 z" id="n" fill="#CECAC2" /><path d="M11.5 36 C9.6 33.5 7.3 32.4 5.6 30.6 C5.6 30.6 5.5 30.6 5.5 30.5 C3.9 29.7 2.7 28.2 2.2 26.5 C1.2 26.2 0.8 25 1 24.1 C1 23.1 1.6 22.2 2.1 21.4 L2.4 20.8 C2.5 20.1 2.5 19.4 2.7 18.7 C2.7 18.6 2.7 18.6 2.6 18.5 C2.2 19.4 1.3 20 0.4 20.2 C2 16.9 3.6 13.7 5.3 10.4 L3.5 10.7 C4.2 10.6 5.4 7.8 6.7 6.5 C6 5.9 5.5 5 5.4 4.1 C5.3 2.6 6.3 1.1 7.7 0.6 C7.4 1.6 7.8 2.8 8.7 3.4 C9.1 3.7 9.6 3.8 10.1 3.7 C10.7 3.2 11.2 2.9 11.8 2.7 C14.3 1.9 17.2 2.2 20 3.1 C20.1 3.1 20.3 3.3 20.4 3.4 C20.5 3.4 20.5 3.4 20.6 3.5 C20.7 3.5 23.7 2.9 23.8 2.9 C26.3 3.3 34.3 4.7 35.8 6.4 C39.7 10.9 41.1 18.5 39.2 23.8 C37.1 30 25.7 27.6 23.9 38.6 C23.9 39.8 23.9 40.9 24 41.7 C24 42 23.9 42.2 23.9 42.4 C23.4 45.7 19.6 45.9 15.9 46.2 C12 46.5 7.2 46.2 6.8 41.2 C6.5 37.9 8.5 37.8 11.5 36 L11.4 36 C11.4 36 11.5 36 11.5 36 z M6.2 29.4 C7.6 30.5 9.5 32.3 12.1 34.6 L13 36.4 C10.2 38 7.7 37.3 8 40.3 C8.4 44.9 12.6 43.7 16.2 43.4 C19.6 43.1 22.1 43.3 22.5 40.3 C22.6 40.1 22.9 38.6 22.9 38.4 C22.9 37.6 23.6 36.4 23.5 35.3 C25.2 25.2 36.1 29.2 38 23.5 C39.8 18.6 38.6 11.8 35 7.6 C33.6 6 26 4.2 23.7 3.9 C23.6 3.9 20.6 4 20.5 4 C20.4 4 20.4 4 20.3 3.9 C20.2 3.7 20.1 3.6 19.9 3.6 C17.3 2.8 14.6 2.5 12.3 3.2 C11.7 3.4 11.3 3.7 10.7 4.1 C10.2 4.2 9.3 4.8 9 4.5 C8.3 4.1 6.8 2.9 7.1 2 C5.9 3.2 6.1 3.4 6.2 4.8 C6.3 5.6 7.1 5.9 7.8 6.4 C6.5 7.6 6 9.5 5.4 9.6 L7 9.7 C6.2 11.2 5.3 12.3 4.6 13.7 C3.8 15.1 3.2 16.7 2.4 18.3 C3.2 18.1 3.6 17.8 4 17 C4 17 3.7 18.5 3.7 18.6 C3.5 19.2 3.6 19.8 3.5 20.4 L3 21.6 C2.5 22.3 2.4 22.1 2.4 23 C2.2 23.8 2.6 25.6 3.5 25.9 C3.7 26.6 4.5 28.1 6.2 29.4 z" opacity="0.15" id="o" /></g><g transform="translate(221.3, 272.3) scale(1.762527) translate(-221.3, -272.3) translate(125.2, 121.1) translate(84, 131.5) scale(-1, 1) translate(-84, -131.5) translate(63, 108)" id="p"><g id="q"><path d="M1.7 20.8 C1.8 20.6 1.9 20.4 2 20.2 C2.1 19.5 2.1 18.8 2.3 18.1 C2.3 18 2.3 18 2.2 17.9 C1.8 18.8 0.9 19.4 0 19.6 C1.6 16.3 3.2 13.1 4.9 9.8 C4.3 9.9 3.7 10 3.1 10.1 C3.8 10 5 7.2 6.3 5.9 C5.6 5.3 5.1 4.4 5 3.5 C4.9 2 5.9 0.5 7.3 0 C7 1 7.4 2.2 8.3 2.8 C8.7 3.1 9.2 3.2 9.7 3.1 C10.3 2.6 10.8 2.3 11.4 2.1 C13.9 1.3 16.8 1.6 19.6 2.5 C22.4 3.4 23.5 32.4 23.6 41.1 C23.6 45 11.9 41.6 11.2 35.5 C9.3 32.9 7 31.8 5.2 30 C5.2 30 5.1 30 5.1 29.9 C3.5 29.1 2.3 27.6 1.8 25.9 C0.8 25.6 0.4 24.4 0.6 23.5 C0.6 22.5 1.2 21.6 1.7 20.8 z" id="r" fill="#7B4C3A" /></g><path d="M11.5 36.1 L11.4 36 C15.3 36.5 19.1 37.8 22.4 39.9 C22.9 40.2 23.4 40.6 23.9 41 C23.9 41.2 23.9 41.4 23.9 41.7 C23.9 45.6 19.8 45.9 15.9 46.2 C12 46.5 7.2 46.2 6.8 41.2 C6.5 37.9 8.5 37.8 11.5 36.1 z" id="s" fill="#CECAC2" /><path d="M8 19 C9.4 15.6 10.9 13 13.8 10.8 C13.8 10.8 11.3 10.6 10.1 11.2 C10.7 9.8 13.2 7.1 15.8 5.3 C15.3 4.9 14.6 4.5 13.9 4.3 C15.9 2.8 18.7 2.6 21.1 3.5 C21.2 3.5 21.3 3.5 21.4 3.5 C23.7 4.4 31.8 5.7 33.9 6.6 C40.4 9.4 43.3 18.7 40.8 23.9 C37.3 31.1 24.6 26.2 24.3 41.7 L24.3 41.8 C23.5 41.1 22.8 40.6 22.5 40.5 C19.2 39.5 15.6 36.4 14.7 32.3 C14.4 31 14.7 29.8 14.2 29.9 C13.7 29.9 13.5 31 13 32.7 C13.1 31.9 12.1 28.8 11.2 28.8 C11.6 28 11.4 27 11 26.2 C10.6 25.4 10 24.7 9.7 23.9 C8.9 22.1 9.4 19.8 10.7 18.4 C9.9 18.5 9 18.8 8 19 z" id="t" fill="#B09082" /><path d="M20.3 3.3 C20.6 3.4 20.9 3.5 21.1 3.6 L21.4 3.6 C23.7 4.5 31.8 5.8 33.9 6.7 C40.4 9.5 43.3 18.8 40.8 24 C37.3 31.2 24.6 26.3 24.3 41.8 L24.3 41.9 C24.2 41.8 24 41.7 23.9 41.6 L23.9 41.8 C23.9 45.7 19.8 46 15.9 46.3 C12 46.6 7.2 46.3 6.8 41.3 C6.5 38.1 8.4 37.9 11.3 36.3 C11.2 36.1 11.2 35.8 11.2 35.6 C9.3 33 7 31.9 5.2 30.1 C5.2 30.1 5.1 30.1 5.1 30 C3.5 29.2 2.3 27.7 1.8 26 C0.8 25.7 0.4 24.5 0.6 23.6 C0.6 22.6 1.2 21.7 1.7 20.9 L2 20.2 C2.1 19.5 2.1 18.8 2.3 18.1 C2.3 18 2.3 18 2.2 17.9 C1.8 18.8 0.9 19.4 0 19.6 C1.6 16.3 3.2 13.1 4.9 9.8 L3.1 10.1 C3.8 10 5 7.2 6.3 5.9 C5.6 5.3 5.1 4.4 5 3.5 C4.9 2 5.9 0.5 7.3 0 C7 1 7.4 2.2 8.3 2.8 C8.7 3.1 9.2 3.2 9.7 3.1 C10.3 2.6 10.8 2.3 11.4 2.1 C13.9 1.3 16.8 1.6 19.6 2.5 C19.8 2.6 20.1 2.8 20.3 3.3 z M21.1 4.2 C20.8 4.1 20.6 4 20.3 4 C20.1 3.6 19.9 3.4 19.7 3.3 C17.1 2.5 14.5 2.2 12.2 2.9 C11.7 3.1 11.2 3.4 10.6 3.8 C10.1 3.9 9.2 4.1 8.8 3.8 C8.1 3.3 6.3 2.2 6.6 1.3 C5.6 2.4 6.1 2.9 6.2 4.3 C6.3 5.1 7.2 5.6 7.9 6.2 C6.6 7.3 5.7 9 5.1 9.1 L6.7 9.5 C5.1 12.5 3.5 13.9 2.1 16.9 C2.9 16.7 3.5 17.3 3.9 16.5 C4 16.6 3.6 17.4 3.6 17.5 C3.4 18.1 3.8 18.8 3.7 19.5 L3.4 20 C2.9 20.7 2.1 22 2.1 22.9 C1.9 23.7 2.6 24.4 3.5 24.7 C4 26.3 5.1 27.6 6.5 28.4 C6.5 28.5 6.6 28.5 6.6 28.5 C8.2 30.1 9.9 31.7 11.7 34.1 C12.2 35.1 12.6 36 12.6 36.2 C9.9 37.7 8 37.3 8.2 40.3 C8.6 44.9 12.6 44.3 16.1 44 C18.5 43.8 20.7 42.9 22.8 41.3 C23.7 38.8 24.9 32.6 26.4 31.4 C30.2 28.3 36.8 27.7 39 23 C41.3 18.2 38.6 9.8 32.7 7.2 C30.8 6.4 23.4 5.2 21.3 4.4 L21.1 4.4 z" opacity="0.15" id="u" /></g><g transform="translate(86.90001, 76.79997) translate(29, 49)" id="v"><path d="M88.8 24.6 C92.3 31.7 95.8 53 97.8 59.4 C99.8 65.8 98.9 80.9 99 89.1 C99.1 97.3 87.5 146.2 83.3 150.5 C81.7 152.2 75.1 153.6 64.6 153.6 C60.8 153.6 55.4 151.6 52.3 151.6 C48.8 151.6 43.2 153.7 39.8 153.6 C30.1 153.2 24.2 152.1 22.8 150.5 C19.1 146.2 6.9 103 6.5 91.8 C6.1 80.6 3.2 69.8 7.6 59.4 C10.8 52.4 13.5 40.8 16 24.6 C17.2 17.2 38.4 0.2 52.3 0.2 C73.1 0.2 85.3 17.5 88.8 24.6 z" id="w" fill="#D8C6BA" /><g transform="translate(5, 0)" id="x"><path d="M83.8 24.6 C87.3 31.7 90.8 53 92.8 59.4 C94.8 65.8 93.9 80.9 94 89.1 C94.1 97.3 82.5 146.2 78.3 150.5 C76.7 152.2 70.1 153.6 59.6 153.6 C55.8 153.6 50.4 151.6 47.3 151.6 C43.8 151.6 38.2 153.7 34.8 153.6 C25.1 153.2 19.2 152.1 17.8 150.5 C14.1 146.2 1.9 103 1.5 91.8 C1.1 80.6 -1.8 69.8 2.6 59.4 C5.8 52.4 8.5 40.8 11 24.6 C12.2 17.2 33.4 0.2 47.3 0.2 C68.1 0.2 80.3 17.5 83.8 24.6 z M83 24.8 C79.6 17.8 67.6 0.9 47.3 0.9 C33.7 0.9 13 17.5 11.8 24.8 C9.4 40.6 6.7 52 3.6 58.8 C-0.7 69 2.1 79.5 2.5 90.4 C2.9 101.3 14.8 143.6 18.5 147.8 C19.9 149.4 25.6 150.4 35.1 150.8 C38.4 150.9 43.9 148.8 47.3 148.8 C50.3 148.8 55.6 150.8 59.3 150.8 C69.6 150.8 76 149.4 77.6 147.8 C81.7 143.6 93 95.8 92.9 87.8 C92.8 79.8 93.7 65 91.8 58.8 C89.8 52.5 86.4 31.7 83 24.8 z" fill-opacity="0.2" id="y" /></g></g><g fill-rule="evenOdd" transform="translate(123.895, 175.65) scale(1.15, 1.211883) translate(-129.7, -195.4) translate(103.9, 77.79997) translate(65, 163) scale(-1, 1) translate(-65, -163) translate(26, 119)" id="z"><path d="M7.6 1.8 C8.9 0.3 10.2 -1 14.9 6 C16.8 8.8 20 11.5 21.9 14.4 C24.8 18.8 26.1 23.2 28.3 25.5 C31.9 29.2 36 31.9 41.1 31 C46.3 30.1 50.5 22.7 53.3 18 C56.2 13.3 63.6 7.6 66.2 4.7 C68.8 2 69.2 -1.4 72.1 1.4 C75 4.2 78.2 13.6 77.9 17.2 C77.6 20.8 76.9 29 74.5 32.5 C72.1 36 70.7 37.3 70.7 41 C70.7 44.7 66.7 50.6 66.5 53.7 C66.3 56.8 63.3 66.9 63.3 74.7 C63.3 76.3 64.3 78.8 64.4 80.2 C64.7 83.3 66 86.9 60.9 86.9 C55.8 86.9 53.1 87.6 50.2 86.9 C49.2 86.9 46.9 85.8 46.6 84.9 C46.2 83.3 47.4 80.6 47.8 79.3 C48.7 76 51.4 74.1 51.7 73.1 C52.5 70.5 53.4 46.4 53.3 43.8 C50.8 51.6 49.8 53.8 46.2 53.8 C43.8 53.8 41.3 52.5 38.6 50 C36.8 52.6 34.6 53.8 32 53.8 C29.4 53.8 26.2 49.6 22.3 41.1 C23.8 49.4 24.8 55.1 25.1 58 C25.6 62 26.3 66.4 26.4 67.5 C26.5 68.6 26.8 70.4 27.6 73.6 C27.9 74.7 30.5 76.3 31.6 79.7 C32.7 83.1 33.1 85.2 30.6 86.5 C28.1 87.8 27.5 87.6 26.3 87.5 C22.3 87.2 16.6 86.2 15.8 85.5 C14.7 84.7 14.1 80 14.7 77.6 C15.9 72.8 15.2 70.5 15.2 68.6 C15.3 64.4 11.5 50.4 8.7 46.4 C5.9 42.4 7 38.7 6 34.8 C5 30.9 1 27.2 0.9 19.4 C0.8 11.6 6.2 3.2 7.6 1.8 z" id="a1" fill="#FAF4E8" /><path d="M7.6 1.8 C8.9 0.3 10.2 -1 14.9 6 C16.8 8.8 20 11.5 21.9 14.4 C24.8 18.8 26.1 23.2 28.3 25.5 C31.9 29.2 36 31.9 41.1 31 C46.3 30.1 50.5 22.7 53.3 18 C56.2 13.3 63.6 7.6 66.2 4.7 C68.8 2 69.2 -1.4 72.1 1.4 C75 4.2 78.2 13.6 77.9 17.2 C77.6 20.8 76.9 29 74.5 32.5 C72.1 36 70.7 37.3 70.7 41 C70.7 44.7 66.7 50.6 66.5 53.7 C66.3 56.8 63.3 66.9 63.3 74.7 C63.3 76.3 64.3 78.8 64.4 80.2 C64.7 83.3 66 86.9 60.9 86.9 C55.8 86.9 53.1 87.6 50.2 86.9 C49.2 86.9 46.9 85.8 46.6 84.9 C46.2 83.3 47.4 80.6 47.8 79.3 C48.7 76 51.4 74.1 51.7 73.1 C52.5 70.5 53.4 46.4 53.3 43.8 C50.8 51.6 49.8 53.8 46.2 53.8 C43.8 53.8 41.3 52.5 38.6 50 C36.8 52.6 34.6 53.8 32 53.8 C29.4 53.8 26.2 49.6 22.3 41.1 C23.8 49.4 24.8 55.1 25.1 58 C25.6 62 26.3 66.4 26.4 67.5 C26.5 68.6 26.8 70.4 27.6 73.6 C27.9 74.7 30.5 76.3 31.6 79.7 C32.7 83.1 33.1 85.2 30.6 86.5 C28.1 87.8 27.5 87.6 26.3 87.5 C22.3 87.2 16.6 86.2 15.8 85.5 C14.7 84.7 14.1 80 14.7 77.6 C15.9 72.8 15.2 70.5 15.2 68.6 C15.3 64.4 11.5 50.4 8.7 46.4 C5.9 42.4 7 38.7 6 34.8 C5 30.9 1 27.2 0.9 19.4 C0.8 11.6 6.2 3.2 7.6 1.8 z M10 5 C8.7 6.3 3.7 14.1 3.8 21.3 C3.9 28.5 7.6 31.9 8.5 35.5 C9.5 39.1 8.5 42.5 11 46.2 C13.6 49.9 17.1 62.8 17 66.7 C17 68.5 17.7 70.6 16.6 75 C16 77.3 16.6 81.6 17.6 82.3 C18.3 83 22.1 83.9 25.8 84.2 C26.9 84.3 27.4 85.4 29.7 84.2 C32 83 31.1 81.5 30.1 78.4 C29 75.2 26.7 75.8 26.4 74.7 C25.7 71.8 25.3 67.7 25.2 66.7 C25.1 65.7 24.4 61.1 24 57.4 C23.7 55.1 22.4 47.9 21 41.2 C20.9 40.7 20.7 39.4 21 38.4 C21.3 37.6 22 37.2 21.9 36.7 C25.5 44.5 30.2 53.1 32.6 53.1 C35 53.1 37 51.9 38.7 49.5 C41.2 51.8 43.5 53.1 45.7 53.1 C49 53.1 51.2 47.5 53.5 40.3 C53.5 40.9 54.7 41.7 54.5 44.2 C54 52.4 53.4 71 52.8 72.9 C52.5 73.8 47.8 80 48.1 81.3 C48.4 82.1 48.5 83.6 49.4 83.6 C52.1 84.3 54.6 83.6 59.3 83.6 C64 83.6 62.8 80.3 62.5 77.4 C62.4 76.1 61.5 73.8 61.5 72.4 C61.5 65.2 64.3 55.8 64.4 53 C64.6 50.1 68.3 44.6 68.3 41.2 C68.3 37.8 69.6 36.6 71.8 33.4 C74 30.1 74.7 22.6 75 19.2 C75.2 15.9 72.3 7.2 69.6 4.6 C66.9 2.1 66.6 5.2 64.2 7.7 C61.8 10.4 56.2 15.9 53.5 20.3 C50.9 24.6 45.1 32.5 40.3 33.4 C35.5 34.2 31.5 30.5 28.2 27.1 C26.2 24.9 24.6 20.9 21.9 16.8 C20.1 14.2 18.5 11.5 16.8 8.9 C12.4 2.4 11.2 3.6 10 5 z" opacity="0.15" id="b1" /></g></g><g id="c1"><g transform="translate(96.50001, 71.19997) translate(23, 22)" id="d1"><g id="e1"><path d="M8.2 28.4 C11 21.7 15.7 17.3 19.3 12.7 C22.9 8.1 31.7 5.6 37.3 4.5 C41.1 3.8 45.5 4.2 50.5 5.5 C52.6 4.5 55.6 4.2 59.5 4.5 C66.7 4.5 74.5 9 78.8 11.8 C83 14.6 91 25 93 28.4 C95 31.8 96.7 39.1 97.3 42.7 C97.9 46.3 97.3 55.3 94.7 60.3 C92.1 65.3 82.5 78 79.9 80.3 C76.4 83.4 71.5 86.4 67.9 88.5 C62.3 91.8 46 95 35.4 89.9 C31.5 88 25.1 85.8 20.9 82.2 C13.5 75.9 8.9 67.7 7 65.7 C4 62.7 1.8 55.5 2.5 50.3 C3.2 45.1 5.4 35.1 8.2 28.4 z" id="f1" fill="#342520" /><path d="M88.9 69.3 C87.1 71.9 85.2 74.6 83.6 76.7 C82.3 78.2 81.1 79.5 80.2 80.5 C79.9 80.8 79.6 81.2 79.2 81.6 C75.8 84.3 71.3 86.7 68.2 88.6 C62.6 91.8 46 95 35.4 89.9 C31.8 88.2 26.1 86.1 21.9 83 C21 82.2 20 81.4 19 80.5 C18.5 80 18 79.5 17.5 79 L14.9 76.1 C13 73.9 11.4 71.7 10.1 69.9 C9.3 68 8.6 65.7 8.1 63.2 C7.1 58 7.9 53.8 10.3 49.9 C11.7 47.6 14.6 45.6 18.9 43.8 C18.6 47.5 18.6 49.9 18.8 50.8 C20.2 56.9 23.9 61.2 30.3 59.2 C32.2 58.6 34.7 51 48.6 51 C62.5 51 62.5 57.9 68.7 59.7 C74.9 61.5 78.8 56.3 80.6 51.3 C82.4 46.3 80.5 43.1 80.1 42.6 C79.7 42.1 86.2 44 89.2 49 C92.2 54 92.5 57.7 90.4 64.5 C89.9 66.5 89.3 68.1 88.9 69.3 z" id="g1" fill="#7B4C3A" /><path d="M8.2 28.4 C11 21.7 15.7 17.3 19.3 12.7 C22.9 8.1 31.7 5.6 37.3 4.5 C41.1 3.8 45.5 4.2 50.5 5.5 C52.6 4.5 55.6 4.2 59.5 4.5 C66.7 4.5 74.5 9 78.8 11.8 C83 14.6 91 25 93 28.4 C95 31.8 96.7 39.1 97.3 42.7 C97.9 46.3 97.3 55.3 94.7 60.3 C92.1 65.3 82.5 78 79.9 80.3 C76.4 83.4 71.5 86.4 67.9 88.5 C62.3 91.8 46 95 35.4 89.9 C31.5 88 25.1 85.8 20.9 82.2 C13.5 75.9 8.9 67.7 7 65.7 C4 62.7 1.8 55.5 2.5 50.3 C3.2 45.1 5.4 35.1 8.2 28.4 z M10.1 28.4 C7.4 34.9 5.3 44.5 4.6 49.5 C3.9 54.5 6 61.4 8.9 64.3 C10.7 66.2 15.2 74.1 22.2 80.1 C26.2 83.6 32.3 85.8 36.1 87.5 C46.3 92.4 61.9 89.3 67.2 86.1 C70.6 84.1 75.3 81.2 78.7 78.2 C81.2 76 90.4 63.7 92.9 58.9 C95.4 54.1 96 45.4 95.4 42 C94.8 38.5 93.2 31.5 91.2 28.3 C89.2 25.1 81.6 15.1 77.6 12.4 C73.6 9.7 66.1 5.4 59.2 5.4 C55.5 5.1 52.6 5.5 50.6 6.4 C45.8 5.1 41.6 4.7 37.9 5.4 C32.5 6.4 24.1 8.8 20.7 13.3 C17.3 17.8 12.8 21.9 10.1 28.4 z" opacity="0.15" id="h1" /><path d="M32.7 10.5 C38.2 13.7 42.7 17.2 45.6 23.9 C48.5 30.6 47.2 33.2 49.4 33.2 C51.6 33.2 51.1 28.5 53.1 23.9 C55.1 19.3 60.7 14.2 66.5 10.5 C67.2 10 63.6 8.3 60.1 8.4 C56.9 8.6 52.2 10.5 50 10.5 C48 10.5 45 8.8 40.7 8.4 C34.9 7.9 29.5 8.7 32.7 10.5 z" id="i1" fill="#FAF4E8" /></g></g><g transform="translate(141.1, 109.4) rotate(28, 0, 0) scale(1) translate(-141.1, -109.4) translate(89.3, 90.19997) translate(23, 6)" id="j1"><path d="M31.8 0 C25.5 1.5 19.2 7.2 16.6 10.2 C14 13.2 6 16.4 4.2 19.6 C2.4 22.8 4 24.1 1.9 29.6 C1.2 31.4 0.9 34.8 1 39.7 C1.4 39.3 2.1 38.9 2.9 38.3 C4.7 37.1 3.5 38.4 2.9 42.2 C2.9 44.3 3.4 47 4.3 48.4 C5.2 49.9 5 47.2 7 47.2 C7.5 47.2 7.2 48.2 7 49.2 C6.6 50.9 6.5 53.4 7 52.7 C8.8 50.1 9.7 50.4 9.9 53.7 C14.9 56.6 17.6 59.1 17.9 61.3 C18.2 63.3 18 64.9 17.2 67.4 C17 68.1 17.1 70.9 18.5 70.6 C19.8 70.4 21.7 68.5 23.2 67.4 C26.4 65.1 32.2 62 30.8 53.8 C29.4 45.6 25.8 42.5 26 32.5 C26.2 22.5 24.9 12.4 28.8 6.6 C31 3.4 33.9 2.6 35.3 1.4 C36.7 0.2 33.1 0.2 31.8 0 z" id="k1" fill="#342520" /><path d="M31.8 0 C33.1 0.2 36.7 0.2 35.3 1.4 C33.9 2.6 31 3.4 28.8 6.6 C24.9 12.4 26.2 22.5 26 32.5 C25.8 42.5 29.4 45.6 30.8 53.8 C32.2 62 26.4 65.1 23.2 67.4 C21.7 68.5 19.8 70.4 18.5 70.6 C17.1 70.9 17 68.1 17.2 67.4 C18 64.9 18.2 63.3 17.9 61.3 C17.6 59.1 14.9 56.6 9.9 53.7 C9.7 50.4 8.8 50.1 7 52.7 C6.5 53.4 6.6 50.9 7 49.2 C7.2 48.2 7.5 47.2 7 47.2 C5 47.2 5.2 49.9 4.3 48.4 C3.4 47 2.9 44.3 2.9 42.2 C3.5 38.4 4.7 37.1 2.9 38.3 C2.1 38.9 1.4 39.3 1 39.7 C0.9 34.8 1.2 31.4 1.9 29.6 C4 24.1 2.4 22.8 4.2 19.6 C6 16.4 14 13.2 16.6 10.2 C19.2 7.2 25.5 1.5 31.8 0 z M29.5 1.9 C23.9 3.2 19.1 9.5 16.8 12.1 C14.4 14.7 7.3 17.4 5.7 20.1 C4.1 22.9 5.5 24 3.6 28.7 C3 30.2 2.2 31.7 2.3 35.9 C2.7 35.6 4.6 35.9 5.3 35.4 C6.8 34.4 5.3 39.6 5.2 39.7 C5.2 41.5 5 43.5 5.8 44.7 C6.6 46 6.4 43.7 8.2 43.7 C8.6 43.7 8.4 44.6 8.2 45.4 C7.8 46.9 8.6 49.2 9.1 48.6 C10.7 46.4 11.8 46.5 12 49.3 C16.5 51.8 18.2 54 18.5 55.9 C18.7 57.6 20.1 59.4 19.3 61.5 C19.2 62.1 20.2 65.3 21.4 65 C22.6 64.8 23.9 61.9 25.2 60.9 C28.1 59 28.3 55.6 27.1 48.6 C25.8 41.6 24.4 39.7 24.6 31.2 C24.7 22.6 22.9 12.5 26.4 7.5 C28.4 4.8 30.9 3 32.1 1.9 C33.4 0.9 30.7 2.1 29.5 1.9 z" opacity="0.15" id="l1" /></g><g transform="translate(196.7, 109.4) rotate(-28, 0, 0) scale(1) translate(-196.7, -109.4) translate(84.1, 90.69997) translate(97, 5)" id="m1"><path d="M16.5 8.8 C18.6 12.4 18.7 28 18.7 33.7 C18.7 39.4 17.7 40.1 15.7 46.5 C13.7 52.9 14.6 59.7 18.7 64.2 C24.1 68.8 27.7 71.4 29.1 71.2 C30.5 71 28.8 68.9 27.8 65.5 C27.1 63.2 26.6 62.2 28.5 59.6 C28.7 59.3 29.9 61.3 29.9 60.3 C29.9 59.4 32.6 57 34.4 55.1 C35.3 54.1 35.9 52.9 35.9 52.9 C36.4 53 37 54.2 37.6 56.4 C39.3 51.7 40.4 48.6 40.9 47 C41.4 45.6 41.9 47.4 42.4 48.1 C42.9 48.8 42.3 42.3 42.4 41.7 C42.9 37.9 43.6 35.7 42.9 32.7 C42.6 31.3 41.8 29.5 40.8 27.4 C40.7 27.1 40.2 26.4 42.5 27.4 C43.5 27.9 40.2 22.5 39.1 20.8 C37.5 18.4 33.1 16 31.7 14.8 C27.8 11.6 18.5 1.4 13.5 0.1 C10.9 0.2 8.7 -0.1 9.7 1.6 C10.8 3.6 14.9 6 16.5 8.8 z" id="n1" fill="#342520" /><path d="M16.5 8.8 C14.9 6 10.8 3.6 9.7 1.6 C8.7 -0.1 10.9 0.2 13.5 0.1 C18.5 1.4 27.8 11.6 31.7 14.8 C33.1 16 37.5 18.4 39.1 20.8 C40.2 22.5 43.5 27.9 42.5 27.4 C40.2 26.4 40.7 27.1 40.8 27.4 C41.8 29.5 42.6 31.3 42.9 32.7 C43.6 35.7 42.9 37.9 42.4 41.7 C42.3 42.3 42.9 48.8 42.4 48.1 C41.9 47.4 41.4 45.6 40.9 47 C40.4 48.6 39.3 51.7 37.6 56.4 C37 54.2 36.4 53 35.9 52.9 C35.9 52.9 35.3 54.1 34.4 55.1 C32.6 57 29.9 59.4 29.9 60.3 C29.9 61.3 28.7 59.3 28.5 59.6 C26.6 62.2 27.1 63.2 27.8 65.5 C28.8 68.9 30.5 71 29.1 71.2 C27.7 71.4 24.1 68.8 18.7 64.2 C14.6 59.7 13.7 52.9 15.7 46.5 C17.7 40.1 18.7 39.4 18.7 33.7 C18.7 28 18.6 12.4 16.5 8.8 z M18 10.2 C19.1 13.5 19.7 27 19.7 31.9 C19.7 36.9 19.7 38.1 18 43.7 C16.2 49.3 14.6 55.8 18.2 59.8 C22.9 63.8 24.4 66.1 25.6 66 C26.2 65.1 26.3 64.2 25.4 61.2 C24.8 59.2 26.5 58 28.2 55.7 C28.3 55.4 29.8 57 29.8 56.1 C29.8 55.4 31.8 52.3 33.4 50.7 C34.2 49.8 34.7 48.7 34.7 48.7 C35.1 48.8 37.4 49.4 37.9 51.4 C39.4 47.3 38.6 45 39.1 43.6 C39.5 42.4 40.7 43.6 41.2 44.2 C41.6 44.9 41.5 38.3 41.6 37.8 C42 34.5 41.4 33.7 40.8 31.1 C40.6 29.8 39.9 28.3 39 26.4 C38.9 26.2 38.8 24.5 40.9 25.4 C41.7 25.8 38.5 22.1 37.5 20.7 C36.1 18.6 32.3 16.5 31 15.4 C27.6 12.6 19.5 3.1 15.1 2 C13.1 0.9 11.3 1 12.2 2.5 C13.2 4.3 16.9 6.9 18 10.2 z" opacity="0.15" id="o1" /></g><g id="p1"><g transform="translate(90.90001, 107.4) translate(51, 9)" id="q1"><g id="r1"><path d="M11.3 81.9 C14.4 82.2 18.5 82.4 21 81.1 C23.7 79.7 25.2 78.3 27.4 75.9 C29.9 79.4 32 80.5 35.2 81.9 C38.2 83.3 42.2 82.3 44.7 81.6 C47.2 80.8 52.9 77.6 53.5 73.9 C54.2 69.7 54.7 64.6 52.8 57.5 C51.2 51.4 43.5 48.1 39.8 44.1 C37.1 41.2 33.5 30.4 33.2 28.7 C32.4 25.3 32.5 21.7 33.7 14.5 C34.9 6.9 39.8 4.5 39.8 2 C39.8 -0.4 34.7 4 28.5 4.1 C22.4 4.2 15.7 -1.3 15.7 2 C15.7 5.4 20.7 7.8 21.7 13.5 C22.7 19.2 22.7 22.1 21.7 28.1 C21.1 31.6 17.6 42 14.3 44.6 C8.6 49.1 1.7 53.6 1 60.2 C0.4 66.9 -0.3 70.7 1.6 74.5 C4 79.3 8.2 81.5 11.3 81.9 z" id="s1" fill="#FAF4E7" /><path d="M35.3 9.4 C34.6 10.8 34 12.5 33.7 14.5 C32.5 21.7 32.4 25.3 33.2 28.7 C33.5 30.4 37.1 41.2 39.8 44.1 C43.5 48.1 51.2 51.4 52.8 57.5 C54.7 64.6 54.2 69.7 53.5 73.9 C52.9 77.6 47.2 80.8 44.7 81.6 C42.2 82.3 38.2 83.3 35.2 81.9 C32 80.5 29.9 79.4 27.4 75.9 C25.2 78.3 23.7 79.7 21 81.1 C18.5 82.4 14.4 82.2 11.3 81.9 C8.2 81.5 4 79.3 1.6 74.5 C-0.3 70.7 0.4 66.9 1 60.2 C1.7 53.6 8.6 49.1 14.3 44.6 C17.6 42 21.1 31.6 21.7 28.1 C22.7 22.1 22.7 19.2 21.7 13.5 C21.6 12.9 21.5 12.4 21.3 11.9 C20.2 9.3 18.3 7.1 17 5.2 C16.2 4.1 15.7 3.1 15.7 2 C15.7 -1.3 22.4 4.2 28.5 4.1 C34.7 4 39.8 -0.4 39.8 2 C39.8 3.3 38.5 4.5 37.1 6.4 C38.4 4.5 39.4 3.2 39.4 2.1 C39.4 -0.2 34.3 4.2 28.6 4.3 C23 4.4 15.7 -1.2 15.7 1.9 C15.7 2.9 16.2 4 17 5.2 C18.3 7 20.3 9 21.3 11.9 C21.7 12.8 22 13.7 22.1 14.6 C23 20.1 23 22.9 22.1 28.6 C21.6 32 19.8 41 16.8 43.5 C11.5 47.8 3.6 53.4 2.9 59.8 C2.3 66.2 1.9 69.6 3.6 73.3 C5.8 77.9 9.7 80 12.5 80.4 C15.4 80.7 19.1 80.9 21.4 79.6 C23.9 78.3 25.3 76.9 27.3 74.6 C29.6 78 31.5 79 34.5 80.4 C37.3 81.7 41 80.8 43.3 80.1 C45.6 79.3 50.9 76.3 51.4 72.7 C52 68.7 52.5 63.8 50.8 56.9 C49.3 51 41.5 47.6 38.1 43.8 C35.6 41 33 30.8 32.7 29.2 C32 25.9 32.1 22.5 33.2 15.6 C33.6 13.2 34.4 11.1 35.3 9.4 z" opacity="0.1" id="t1" /></g></g><g transform="translate(87.20001, 99.79996) translate(74, 77)" id="u1"><path d="M7.5 1.5 C7.7 3.9 7.8 5.6 7.8 6.6 C7.8 7.6 7.5 9.5 7 12.1 C4.4 14.2 2.6 16 1.7 17.5 C0.4 19.8 -0.1 20.5 0.4 20.8 C0.7 21.1 2.4 18.9 4.9 17.7 C5.9 17.2 7.4 16.9 8.5 16.9 C9.8 16.9 11.5 17.4 12.7 18.1 C14.8 19.3 16 21 16.4 20.9 C16.9 20.7 15.7 17.6 13.2 15.4 C11.6 13.9 10.5 12.9 10 12.2 C9.7 9.6 9.6 7.8 9.6 6.6 C9.6 5.4 9.7 3.6 9.9 1.3 C10.5 0.4 10.1 0 8.7 0 C7.3 0 6.9 0.5 7.5 1.5 z" id="v1" /></g><g transform="translate(98.00001, 81.09998) translate(60, 89)" id="w1"><g id="x1"><path d="M3.1 13.1 C0.3 8.7 -5.5 -0.7 11.3 -0.7 C28.1 -0.7 20.8 10.4 18.4 13.4 C16 16.4 6 17.5 3.1 13.1 z" id="y1" /><path d="M17.1 4.6 C19.1 6.2 20.3 4.7 20.3 3.9 C20.3 3.1 18.6 1.7 16.9 1.7 C15.2 1.7 12.6 1.1 12.9 2.5 C13.2 3.9 15 3 17.1 4.6 z" id="z1" fill="#FFF" /></g></g><g transform="translate(150.4, 144.3) scale(1.1) translate(-150.4, -144.3) translate(86.90001, 99.39996) translate(54, 35)" id="a2"><g id="b2"><path d="M4.7 6.8 C3.5 9 0.2 13.2 0.9 15.7 C1.2 16.6 2.2 17.5 3.7 17.7 C4.3 17.8 6.2 18.4 6.4 18.4 C7.8 18.4 8.8 18.1 9.8 17.5 C10.9 16.9 11.5 15.2 12.2 14.4 C13.2 13.3 13.9 12.5 14.1 11.8 C14.8 10.1 15.3 8.9 15.3 5.6 C15.4 -0.7 6.3 3.9 4.7 6.8 z" id="c2" fill="#7B4C3A" /><path d="M3.9 7.4 C5.7 5 7 3.9 8.7 2.1 C10.4 0.3 12.5 0.1 13.9 1.7 C15.3 3.3 15.8 4.2 15.8 5.9 C15.8 7.6 16.2 9 13.9 11.3 C11.6 13.6 6.9 15.1 5.3 13.6 C3.7 12.1 2.1 9.8 3.9 7.4 z" id="d2" /><path d="M11.2 8.1 C12.5 8.1 13.6 7 13.6 5.7 C13.6 4.4 13 3.7 11.7 3.7 C10.4 3.7 9.1 5.5 9.1 6.9 C9.1 8.3 9.9 8.1 11.2 8.1 z" id="e2" fill="#FFF" /><path d="M8.9 10.3 C9.3 10.3 9.1 9.3 9.1 8.8 C9.1 8.3 8.9 8.1 8.5 8.1 C8 8.1 7.6 8.8 7.6 9.2 C7.6 9.7 8.5 10.3 8.9 10.3 z" id="f2" fill="#FFF" /></g></g><g transform="translate(185.5, 144.3) scale(1.1) translate(-185.5, -144.3) translate(86.8, 99.39996) translate(94, 35)" id="g2"><g id="h2"><path d="M12.1 6.4 C13.3 8.6 16.6 11.7 15.7 14.6 C15.3 15.9 12.2 17.7 11.4 17.8 C7.5 18.6 7.1 17.7 5.7 16.8 C4.4 16 2.8 13 2.2 11.5 C1.5 9.9 1 8.7 1 5.4 C1 -0.9 10.5 3.5 12.1 6.4 z" id="i2" fill="#7B4C3A" /><path d="M12.3 5.9 C10.4 3.7 8.9 2.8 7.3 1.2 C5.7 -0.4 3.6 0.1 2.2 1.7 C0.8 3.3 0.3 4.1 0.3 5.9 C0.3 7.7 -0.1 9 2.2 11.3 C4.5 13.6 9.2 15.1 10.8 13.6 C12.4 12.1 14.2 8.1 12.3 5.9 z" id="j2" /><path d="M6.3 8.1 C5 8.1 3.9 7 3.9 5.7 C3.9 4.4 4.5 3.7 5.8 3.7 C7.1 3.7 8.3 5.6 8.3 6.9 C8.3 8.2 7.6 8.1 6.3 8.1 z" id="k2" fill="#FFF" /><path d="M9.1 8.7 C9.1 8.3 8.9 8.1 8.5 8.1 C8.1 8.1 7.7 8.7 7.7 9.1 C7.7 9.4 8.6 9.7 9 9.6 C9.2 9.4 9.1 8.9 9.1 8.7 z" id="l2" fill="#FFF" /></g></g></g></g></g></g><defs><g transform="translate(17.09519, 0.800995) translate(-135.2952, -293.601)" id="m2" fill="#000"><path d="M118.2 302.7 C118.4 307.4 132.5 311.2 149.8 311.2 C167.1 311.2 181.2 307.4 181.4 302.7 C181.4 307.5 181.4 310.1 181.4 310.5 C181.4 315.3 167.3 319.1 149.8 319.1 C132.3 319.1 118.2 315.2 118.2 310.5 L118.2 302.7 L118.2 302.7 z" fill-opacity="0.4528" id="n2" fill="#593001" /><path d="M118.7 301.7 C118.9 306.4 133 310.2 150.3 310.2 C167.6 310.2 181.7 306.4 181.9 301.7 C181.9 306.5 181.9 309.1 181.9 309.5 C181.9 314.3 167.8 318.1 150.3 318.1 C132.8 318.1 118.7 314.2 118.7 309.5 L118.7 301.7 L118.7 301.7 z" id="o2" fill="#DA8113" /><linearGradient x1="46.0545" y1="-118.6926" x2="45.4656" y2="-118.6926" gradientUnits="userSpaceOnUse" gradientTransform="matrix(117.135, 0, 0, 28.4634, -5208.417, 3687.795)" id="p2"><stop offset="0%" stop-color="#D9952A" stop-opacity="1" /><stop offset="6.438854%" stop-color="#CA7519" stop-opacity="1" /><stop offset="30.54%" stop-color="#E3AD3A" stop-opacity="1" /><stop offset="51.05%" stop-color="#FFEC91" stop-opacity="1" /><stop offset="68.8%" stop-color="#E9BD44" stop-opacity="1" /><stop offset="86.24%" stop-color="#FFED6C" stop-opacity="1" /><stop offset="93.87%" stop-color="#F2D353" stop-opacity="1" /><stop offset="100%" stop-color="#F2B947" stop-opacity="1" /></linearGradient><path d="M118.2 301.6 C118.4 306.1 132.7 309.7 150.3 309.7 C167.9 309.7 182.2 306.1 182.4 301.6 C182.4 306.2 182.4 308.7 182.4 309 C182.4 313.5 168 317.2 150.3 317.2 C132.6 317.2 118.2 313.5 118.2 309 L118.2 301.6 L118.2 301.6 z" id="q2" style="fill:url(#p2)" /><linearGradient x1="45.4914" y1="-117.9547" x2="45.9407" y2="-117.5895" gradientUnits="userSpaceOnUse" gradientTransform="matrix(115.425, 0, 0, 29.925, -5125.077, 3826.124)" id="r2"><stop offset="0%" stop-color="#F4E072" stop-opacity="1" /><stop offset="100%" stop-color="#DB9427" stop-opacity="1" /></linearGradient><ellipse cx="150.3" cy="301.5" rx="31.6" ry="8.2" id="s2" style="fill:url(#r2)" /><linearGradient x1="45.4656" y1="-126.0065" x2="46.0545" y2="-126.0065" gradientUnits="userSpaceOnUse" gradientTransform="matrix(117.135, 0, 0, 18.6219, -5208.417, 2651.479)" id="t2"><stop offset="0%" stop-color="#D9952A" stop-opacity="1" /><stop offset="6.438854%" stop-color="#CA7519" stop-opacity="1" /><stop offset="30.54%" stop-color="#E3AD3A" stop-opacity="1" /><stop offset="51.05%" stop-color="#FFEC91" stop-opacity="1" /><stop offset="68.8%" stop-color="#E9BD44" stop-opacity="1" /><stop offset="86.24%" stop-color="#FFED6C" stop-opacity="1" /><stop offset="93.87%" stop-color="#F2D353" stop-opacity="1" /><stop offset="100%" stop-color="#F2B947" stop-opacity="1" /></linearGradient><path d="M119.2 299.9 C119 300.2 118.9 300.6 118.9 301 C118.9 305.5 132.9 309.2 150.3 309.2 C167.7 309.2 181.7 305.5 181.7 301 C181.7 300.6 181.6 300.3 181.4 299.9 C182 300.5 182.4 301.2 182.4 301.9 C182.4 306.4 168 310.1 150.3 310.1 C132.6 310.1 118.2 306.4 118.2 301.9 C118.2 301.3 118.6 300.6 119.2 299.9 z" id="u2" style="fill:url(#t2)" /><linearGradient x1="45.196" y1="-121.5895" x2="45.3746" y2="-120.6758" gradientUnits="userSpaceOnUse" gradientTransform="matrix(101.745, 0, 0, 23.94, -4458.332, 3199.41)" id="v2"><stop offset="0%" stop-color="#F8DD61" stop-opacity="1" /><stop offset="100%" stop-color="#EAA330" stop-opacity="1" /></linearGradient><ellipse cx="150.3" cy="300.8" rx="27.8" ry="6.6" id="w2" style="fill:url(#v2)" /><linearGradient x1="45.5694" y1="-134.267" x2="45.0221" y2="-134.267" gradientUnits="userSpaceOnUse" gradientTransform="matrix(101.745, 0, 0, 13.2525, -4458.332, 2077.223)" id="x2"><stop offset="0%" stop-color="#F4CA2F" stop-opacity="1" /><stop offset="51.38%" stop-color="#BF7737" stop-opacity="1" /><stop offset="100%" stop-color="#E4A929" stop-opacity="1" /></linearGradient><path d="M122.6 301.5 C122.5 301.3 122.4 301 122.4 300.8 C122.4 297.2 134.9 294.2 150.2 294.2 C165.5 294.2 178 297.1 178 300.8 C178 301 177.9 301.3 177.8 301.5 C176.3 298.2 164.5 295.6 150.1 295.6 C135.7 295.6 124.1 298.2 122.6 301.5 z" id="y2" style="fill:url(#x2)" /></g></defs><desc>BDK9E85B7BB,AK9Ej7JX7NxdRLF3pEQjIqEzJuJq0OBJAUUOJJuaw6vourYMYymVBxzoKL+m7wy9sskK+rjX0VqUdRfJOJjgOL0Sy1+b467rmYvl9fSk3wi71YTKluHThzj67dF7pdyE</desc></svg>