<?xml version="1.0" encoding="utf-8"?><!DOCTYPE svg PUBLIC "-//W3C//DTD SVG 1.1//EN" "http://www.w3.org/Graphics/SVG/1.1/DTD/svg11.dtd"><svg x="0" y="0" width="340px" height="340px" viewBox="0, 0, 340, 340" preserveAspectRatio="xMidYMid" font-size="0" id="a" enable-background="new 0 0 340 340" xmlns="http://www.w3.org/2000/svg" xmlns:xlink="http://www.w3.org/1999/xlink" xmlns:xml="http://www.w3.org/XML/1998/namespace" version="1.1"><g id="b" fill="#000"><g id="c"><g transform="translate(0, 0) translate(0, 224)" id="d"><ellipse cx="168.6" cy="53.1" rx="57.8" ry="12.8" fill-opacity="0.25" id="e" /></g><g id="f"><g transform="translate(105.4, 102.6) translate(21.5, 106.5) scale(-1, 1) translate(-21.5, -106.5) translate(2, 90)" id="g"><g id="h"><path d="M24.9 18.9 C25.5 17.7 25.7 16.6 25.7 15.6 C25.3 16.7 24.6 17.7 23.6 18.4 C24.5 16.6 24.1 14.3 22.7 12.9 C22.5 16.6 20.1 20 19.4 21.4 C18.7 19.5 18 17.6 17.3 15.7 C17.1 17 16.8 18.2 16.6 19.5 C16.3 17.3 16.1 15.1 16.4 12.9 C16.2 13 16 13.2 15.8 13.3 C16.1 9.5 20 5.8 23.5 5.2 C26.7 4.6 31.5 5.6 33.6 8.8 C36.3 13 37.3 22.3 32.1 25.1 C30.4 26 27.3 27.7 26.4 28 C25.5 28.3 23.7 31 23.5 32.5 C22.5 31.6 22.3 30.2 21.1 29.3 C19.3 29.4 16.5 31.7 10 32 C-1.8 32.4 -1.1 25.2 1.9 24.1 C5.4 22.8 12.4 23.9 14.8 24.2 C19.1 24.6 22.9 23.2 24.9 18.9 z" id="i" fill="#51403C" /><path d="M15.9 13.9 C16.2 10.1 18.5 3.8 26 3.3 C27 3.2 28.1 3.3 29.2 3.6 C28.2 2.4 26.3 2 25 2.9 C25.9 0.7 28.8 -0.4 31 0.5 C32.6 1.2 35.2 3.1 35 5.8 C36.7 7 38.1 9.2 38.6 11.3 C38.1 11.2 37.7 11 37.2 10.9 C38.6 13.1 39.3 17.4 37.8 20.1 C37.5 19.9 37.3 19.7 37 19.5 C36.8 20.1 35.7 22.4 35.4 22.9 C34.8 25.3 33.5 27.5 31.7 29 C31.9 28.5 32 27.9 31.9 27.3 C31.9 27 31.8 26.6 31.6 26.3 C29.7 26.7 29.4 28.6 28.7 29.5 C28.7 28.9 28.1 28.1 26.5 28.4 C26.9 25.5 30.5 24.9 30.7 23.5 C30.9 24 31.4 24.3 31.9 24.6 C32.2 23.4 32.8 22.4 32.7 20.7 L34.2 21.3 C34.2 19.7 33.3 18.1 31.9 17.2 C32.8 17 33.7 16.8 34.6 16.7 C32.9 15.2 31.2 13.8 29.5 12.3 C30.5 12 31.4 11.8 32.4 11.5 C29.1 9.2 24.1 10 22 11.3 C22 10.2 22.6 8.1 23.3 7.8 C18.6 8.9 16.1 13.7 15.9 13.9 z" id="j" fill="#E2DED5" /><path d="M3 23.8 C3.3 23.2 3.8 22.7 4.4 22.4 C6.5 21.6 10.2 22.9 13.2 24 C13.8 24.1 14.4 24.2 14.8 24.2 C19.1 24.6 22.9 23.2 24.9 18.9 C25.5 17.7 25.7 16.6 25.7 15.6 C25.3 16.7 24.6 17.7 23.6 18.4 C24.5 16.6 24.1 14.3 22.7 12.9 C22.5 16.6 20.1 20 19.4 21.4 L17.3 15.7 C17.1 17 16.8 18.2 16.6 19.5 C16.3 17.4 16.1 15.4 16.4 13.3 C16.2 13.7 16 13.9 16 13.9 C16 13.7 16 13.4 16.1 13.1 C16 13.2 16 13.2 15.9 13.2 C16 12.2 16.3 11.2 16.8 10.3 C18 7 20.7 3.6 26.1 3.2 C27.1 3.1 28.2 3.2 29.3 3.5 C28.3 2.3 26.4 1.9 25.1 2.8 C26 0.6 28.9 -0.5 31.1 0.4 C32.7 1.1 35.3 3 35.1 5.7 C36.8 6.9 38.2 9.1 38.7 11.2 C38.2 11.1 37.8 10.9 37.3 10.8 C38.7 13 39.4 17.3 37.9 20 C37.6 19.8 37.4 19.6 37.1 19.4 C36.9 20 35.8 22.3 35.5 22.8 C34.9 25.2 33.6 27.4 31.8 28.9 C32 28.4 32.1 27.8 32 27.2 C32 26.9 31.9 26.5 31.7 26.2 C29.8 26.6 29.5 28.5 28.8 29.4 C28.8 28.8 28.2 28 26.6 28.3 C26.6 28.1 26.7 27.9 26.7 27.8 C26.6 27.8 26.5 27.9 26.5 27.9 C25.6 28.2 23.8 30.9 23.6 32.4 C22.6 31.5 22.4 30.1 21.2 29.2 C19.4 29.3 16.6 31.6 10.1 31.9 C-1.7 32.3 -1 25.1 2 24 C2.2 23.9 2.6 23.8 3 23.8 z M3 23.8 C2 26 3.4 29.9 11.8 29.6 C17.7 29.3 20.3 27.2 21.9 27.1 C23 27.9 22.4 29.5 23.4 30.3 C23.6 28.9 26 26.1 26.8 25.9 C26.9 25.9 26.9 25.9 27 25.8 C27 26 26.9 26.1 26.9 26.3 C28.4 26 28.9 26.8 28.9 27.3 C29.5 26.5 29.8 24.5 31.6 24.1 C31.7 24.2 32.2 24.1 32.4 24.6 C32.7 25.3 32.7 25.8 32.6 26.1 C34.2 24.7 34.6 23.5 35.1 21.3 C35.4 20.8 36.4 18.7 36.6 18.2 C36.9 18.4 37.1 18.6 37.3 18.7 C38.7 16.2 38 12.3 36.8 10.3 C37.3 10.4 37.6 10.6 38.1 10.7 C37.6 8.8 36.4 6.8 34.8 5.7 C35 3.2 32.7 2 31.7 1.2 C29.7 0.4 27.8 0.5 26.4 2 C27.8 1.7 29.5 3 30.4 4.1 C29.4 3.8 27.4 3.6 26.5 3.7 C21.5 4 18.8 7.2 17.8 9.1 C17.3 9.9 16.5 12.6 16.5 12.8 C16.5 12.8 17.1 13 17.3 12.7 C16.9 13.9 16.8 15.1 16.9 16.4 C17.1 15.2 17.3 15.1 17.8 14.4 L19.5 19.8 C20.1 18.5 22.4 15.4 22.6 12 C23.9 13.3 25.2 15.6 24.4 17.2 C25.3 16.6 25.7 15.2 26.1 14.2 C26.3 15.2 26.5 18 25.9 19.1 C24.1 23 21.2 25.5 17.3 25.2 C16.5 25.1 15.1 24.6 13.4 24 C10.5 23.6 6 23.1 3 23.8 z" opacity="0.15" id="k" /></g></g><g transform="translate(129.5, 269.5) scale(1.556123) translate(-129.5, -269.5) translate(131.1, 271.1) scale(1) translate(-126.1, -271.1) translate(110.9, 103) translate(7, 133)" id="l"><g transform="translate(14.5, 18.5) scale(-1, 1) translate(-14.5, -18.5)" id="m"><path d="M10.9 1.8 C19.7 -2.5 29.1 6.3 28.7 13.6 C28.4 21.8 22.8 28.1 12.2 32.4 C4.7 34.3 0.7 34.5 0.5 33 C0 30.7 2.1 6.1 10.9 1.8 z" id="n" fill="#51403C" /><path d="M25.5 33.3 C24.2 35.1 22.3 35.9 20.6 36.1 C18.9 36.3 12.9 35.8 11 36.1 C9 36.4 6.2 35.9 6.2 34.2 C6.2 32.5 4.8 27.4 10.5 25.2 C10.9 25.1 12.7 22.4 13.1 22.2 C13.6 22 12.6 24.3 13.1 24.1 C14.2 23.5 15.3 22.8 16.1 21.9 C16.4 21.5 16.7 24.4 17.2 24.4 C17.5 24.4 18.4 23.7 18.6 23.1 C18.8 22.6 18.6 24.6 18.9 24.7 C20.7 25.1 22.1 25.8 22.7 26.2 C25.1 27.9 26.8 31.6 25.5 33.3 z" id="o" fill="#FFF" /><path d="M20.6 25.9 C25.1 22.4 27.6 18.1 27.7 12.9 C28.1 6.1 19.3 -2.1 11.1 1.9 C2.9 5.9 1 28.9 1.4 31 C1.5 32 3.3 32.2 6.7 31.6 C6.7 31.8 6.7 31.9 6.7 32.1 C6.7 33.7 9.3 34.2 11.2 33.9 C13 33.6 18.6 34.1 20.2 33.9 C21.8 33.7 23.6 33 24.8 31.3 C26 29.7 22.9 27.5 20.6 25.9 z M22.6 26.2 C22.7 26.2 22.7 26.2 22.6 26.2 C25.1 27.9 26.8 31.6 25.5 33.3 C24.2 35.1 22.3 35.9 20.6 36.1 C18.9 36.3 12.9 35.8 11 36.1 C9 36.4 6.2 35.9 6.2 34.2 C6.2 34.1 6.2 33.9 6.2 33.7 C2.6 34.3 0.6 34 0.5 33 C0 30.7 2.1 6.1 10.9 1.8 C19.7 -2.5 29.1 6.3 28.7 13.6 C28.5 18.5 26.5 22.7 22.6 26.2 z" opacity="0.15" id="p" /></g></g><g transform="translate(210.4, 269.5) scale(1.556123) translate(-210.4, -269.5) translate(208.8, 271.1) scale(1) translate(-213.8, -271.1) translate(107.8, 103) translate(99, 151.5) scale(-1, 1) translate(-99, -151.5) translate(84, 133)" id="q"><g transform="translate(15, 18.5) scale(-1, 1) translate(-15, -18.5)" id="r"><path d="M11.2 1.8 C20 -2.5 29.4 6.3 29 13.6 C28.6 21.8 23.1 28.1 12.5 32.4 C5 34.3 1 34.5 0.8 33 C0.3 30.7 2.4 6.1 11.2 1.8 z" id="s" fill="#51403C" /><path d="M25.8 33.3 C24.5 35.1 22.6 35.9 20.9 36.1 C19.2 36.3 13.2 35.8 11.3 36.1 C9.3 36.4 6.5 35.9 6.5 34.2 C6.5 32.5 5.1 27.4 10.8 25.2 C11.2 25.1 11.7 25.1 11.9 24.8 C13.3 22.7 14.6 21.1 15.1 20.9 C16.1 20.6 15 24.2 15.8 24.2 C16.3 24.2 17 23.2 18.1 22.4 C19.2 21.6 17.9 24.3 18.4 24.4 C20.4 24.8 22.4 25.5 23 26 C25.4 27.9 27.1 31.6 25.8 33.3 z" id="t" fill="#FFF" /><path d="M23 26 C25.4 27.9 27 31.6 25.8 33.3 C24.5 35.1 22.6 35.9 20.9 36.1 C19.2 36.3 13.2 35.8 11.3 36.1 C9.3 36.4 6.5 35.9 6.5 34.2 C6.5 34.1 6.5 33.9 6.5 33.7 C2.9 34.3 0.9 34 0.8 33 C0.3 30.7 2.4 6.1 11.2 1.8 C20 -2.5 29.4 6.3 29 13.6 C28.8 18.4 26.8 22.6 23 26 z M21.1 25.8 C25.6 20.2 27.9 15.9 28 13 C28.4 6.2 19.6 -2 11.5 2 C3.4 6 1.3 28.8 1.8 31 C1.9 32 3.7 32.2 7.1 31.6 C7.1 31.8 7.1 31.9 7.1 32.1 C7.1 33.7 9.7 34.1 11.6 33.9 C13.4 33.6 18.9 34.1 20.5 33.9 C22.1 33.7 23.8 33 25.1 31.3 C26.2 29.7 23.3 27.6 21.1 25.8 z" opacity="0.15" id="u" /></g></g><g transform="translate(104.3, 92.09998) translate(20, 65)" id="v"><path d="M85.6 52.6 C84.9 39.4 82.9 36.4 79.1 28 C77.8 25 76.2 22.2 74.6 19.6 C71.9 15.2 68.7 13.4 67.3 10 C64.8 4 60.4 3.2 45.5 3.2 C30.7 3.2 27.2 3.2 24.7 9.2 C23.4 12.4 19.3 14.8 16.7 19.1 C15 21.8 13.4 24.8 11.9 28 C8.1 36.5 6.1 39.5 5.4 52.6 C4.4 70.2 10.5 94.3 17.7 109.3 C20.2 114.5 25.5 118.2 29.1 119 C35.7 120.4 41.6 120.8 45.4 120.7 C49.3 120.8 55.2 120.4 61.7 119 C65.3 118.2 70.6 114.5 73.1 109.3 C80.4 94.2 86.5 70.2 85.6 52.6 z" id="w" fill="#E2DED5" /><path d="M67.9 7.9 C65.4 1.9 60.3 0.1 45.5 0.1 C30.7 0.1 25.5 1.9 23.1 7.9 C21.8 11.1 19.3 14.8 16.7 19 C18.9 25 34.4 33.5 45.5 35.4 C56.6 33.5 72.1 25 74.3 19 C71.7 14.8 69.3 11.1 67.9 7.9 z" id="x" fill="#965622" /><path d="M67.9 7.9 C65.4 1.9 60.3 0.1 45.5 0.1 C30.7 0.1 25.5 1.9 23.1 7.9 C21.8 11.1 19.3 14.8 16.7 19 C18.9 25 34.4 33.5 45.5 35.4 C56.6 33.5 72.1 25 74.3 19 C71.7 14.8 69.3 11.1 67.9 7.9 z" opacity="0.15" id="y" fill="#965622" /><path d="M16.7 19.1 C16.7 19 16.7 19 16.7 19 C19.3 14.8 21.8 11.1 23.1 7.9 C25.5 1.9 30.7 0.1 45.5 0.1 C60.3 0.1 65.4 1.9 67.9 7.9 C69.3 11.1 71.7 14.8 74.3 19 C74.3 19 74.3 19.1 74.3 19.1 C74.4 19.2 74.5 19.4 74.6 19.6 C76.2 22.2 77.8 25 79.1 28 C82.9 36.4 84.9 39.4 85.6 52.6 C86.5 70.2 80.4 94.2 73.1 109.3 C70.6 114.5 65.3 118.2 61.7 119 C55.2 120.4 49.3 120.8 45.4 120.7 C41.6 120.8 35.7 120.4 29.1 119 C25.5 118.2 20.2 114.5 17.7 109.3 C10.5 94.3 4.4 70.2 5.4 52.6 C6.1 39.5 8.1 36.5 11.9 28 C13.4 24.8 15 21.8 16.7 19.1 C16.7 19.1 16.7 19.1 16.7 19.1 z M17.9 19.7 C17.9 19.8 17.9 19.8 17.9 19.8 C16.2 22.4 14.7 25.2 13.3 28.3 C9.6 36.5 7.7 39.3 7 51.9 C6.1 68.8 11.9 91.9 18.8 106.3 C21.2 111.3 26.3 114.9 29.8 115.6 C36.1 117 41.8 117.3 45.4 117.3 C49.1 117.3 54.8 117 61 115.6 C64.5 114.9 69.6 111.3 72 106.3 C79 91.8 84.8 68.8 84 51.9 C83.3 39.3 81.4 36.4 77.7 28.3 C76.5 25.4 75 22.8 73.4 20.3 C73.3 20.1 73.2 19.9 73.1 19.8 C73.1 19.7 73.1 19.7 73.1 19.7 C70.6 15.7 68.3 12.1 67 9 C64.6 3.3 59.7 1.6 45.5 1.6 C31.3 1.6 26.3 3.3 24 9 C22.8 12.1 20.4 15.7 17.9 19.7 C17.9 19.7 17.9 19.7 17.9 19.7 z" opacity="0.15" id="z" /></g><g transform="translate(126.1, 180.65) scale(1, 0.9708099) translate(-126.1, -170.8) translate(110.8, 87.99998) translate(59, 136) scale(-1, 1) translate(-59, -136) translate(16, 84)" id="a1"><path d="M10.2 21.5 C10.3 21.2 21.2 -0.7 27.1 1.2 C31.4 2.6 35.1 7.2 36.8 10.5 C38.5 13.8 43 34.1 39.9 40.8 C37.7 45.5 33.3 46.5 28.3 45.3 C28 49 27.7 51.8 27.2 53.1 C26.2 62.6 31 81.3 32.2 92 C31.5 105 22.7 103.5 16.9 102.2 C13.4 101.4 10.8 99 12.4 94.9 C12.9 93.6 13.6 92.2 14.2 90.8 C14.7 84.8 13.6 79.1 12.3 72.9 C11.1 67.4 10.2 21.5 10.2 21.5 z" id="b1" fill="#FEFEFE" /><path d="M75.8 21.5 C75.7 21.2 64.8 -0.7 58.9 1.2 C54.6 2.6 50.9 7.2 49.2 10.5 C47.5 13.8 43 34.1 46.1 40.8 C48.3 45.5 52.7 46.5 57.7 45.3 C58 49 58.3 51.8 58.8 53.1 C59.8 62.6 55 81.3 53.8 92 C54.5 105 63.3 103.5 69.1 102.2 C72.6 101.4 75.2 99 73.6 94.9 C73.1 93.6 72.4 92.2 71.8 90.8 C71.3 84.8 72.4 79.1 73.7 72.9 C75.1 67.4 75.8 21.5 75.8 21.5 z" id="c1" fill="#FEFEFE" /><path d="M9.6 11.2 C11.4 8 16.2 2.9 17.2 1.8 C20.5 -0.8 30.2 -1.2 32 8.4 C32.8 11.9 30.3 16.7 28.9 18.7 C28.4 19.4 28.1 19.9 28 20.3 C27.9 21 28.5 22.6 29.1 24.8 C29.9 27.7 30.6 31.5 29.2 34.9 C28.9 35.5 28.6 36.1 28.2 36.7 C25.6 40.3 21.2 37.3 17.7 39.2 C17.7 39.4 17.6 39.6 17.6 39.7 C15.8 49.4 23.5 59.2 21.3 70.8 C20.7 74.1 16.9 76.3 12.6 74.8 C11.3 68.6 9.5 62.1 8.7 54.5 C3.3 48.8 -0.6 44.9 1.1 28.6 C2.1 19.3 5.8 14.9 9.6 11.2 z" id="d1" fill="#7F6458" /><path d="M26.9 1.1 C27 1.2 27 1.2 27.1 1.2 C31.4 2.6 35.1 7.2 36.8 10.5 C38.5 13.8 43 34.1 39.9 40.8 C37.7 45.5 33.3 46.5 28.3 45.3 C28 49 27.7 51.8 27.2 53.1 C26.2 62.6 31 81.3 32.2 92 C31.5 105 22.7 103.5 16.9 102.2 C13.4 101.4 10.8 99 12.4 94.9 C12.9 93.6 13.6 92.2 14.2 90.8 C14.6 85.4 13.8 80.3 12.7 74.8 C12.7 74.8 12.6 74.8 12.6 74.8 C11.3 68.6 9.5 62.1 8.7 54.5 C3.3 48.8 -0.6 44.9 1.1 28.6 C2.1 19.3 5.8 14.9 9.6 11.2 C11.4 8 16.2 2.9 17.2 1.8 C19.2 0.3 23.4 -0.5 26.9 1.1 z M26.7 2.1 C26.7 2.1 26.6 2.1 26.5 2 C23.2 0.5 19.3 1.2 17.4 2.7 C16.5 3.7 11.9 8.6 10.2 11.6 C6.7 15.1 3.2 19.3 2.2 28.2 C0.6 43.7 5.5 48.5 10.6 54 C11.4 61.2 11.8 66.2 13.2 72.2 C14.2 77.4 14.9 82 15.5 86 C15.5 88.3 15.8 90.3 15.3 91.5 C13.8 95.4 13.8 97.4 17.1 98.2 C22.6 99.4 29.7 101.8 30.4 89.4 C29.3 79.2 24.9 61.1 25.8 52 C26.3 50.8 27 47.1 27.3 43.6 C32 44.7 36.7 44.3 38.8 39.8 C41.7 33.4 37.5 14.1 35.9 10.9 C34.3 7.8 30.8 3.4 26.7 2.1 z" opacity="0.15" id="e1" /><path d="M76.6 11.2 C74.8 8 69.9 2.9 68.9 1.8 C65.6 -0.8 55.9 -1.2 54.1 8.4 C53.3 11.9 55.8 16.7 57.2 18.7 C57.7 19.4 58 19.9 58.1 20.3 C58.2 21 57.6 22.6 57 24.8 C56.2 27.7 55.5 31.5 56.9 34.9 C57.2 35.5 57.5 36.1 57.9 36.7 C60.5 40.3 64.9 37.3 68.4 39.2 C68.4 39.4 68.5 39.6 68.5 39.7 C70.3 49.4 62.6 59.2 64.8 70.8 C65.4 74.1 69.2 76.3 73.5 74.8 C74.8 68.6 76.6 62.1 77.4 54.5 C82.8 48.8 86.7 44.9 85 28.6 C83.9 19.3 80.2 14.9 76.6 11.2 z" id="f1" fill="#7F6458" /><path d="M73.3 74.9 C72.2 80.3 71.4 85.4 71.8 90.8 C72.4 92.2 73.1 93.6 73.6 94.9 C75.2 99 72.6 101.4 69.1 102.2 C63.3 103.5 54.5 105 53.8 92 C55 81.3 59.8 62.6 58.8 53.1 C58.3 51.8 58 49 57.7 45.3 C52.7 46.5 48.3 45.5 46.1 40.8 C43 34.1 47.5 13.8 49.2 10.5 C50.9 7.2 54.6 2.6 58.9 1.2 C59 1.2 59.2 1.1 59.3 1.1 C62.8 -0.5 66.9 0.3 68.9 1.8 C69.9 2.9 74.8 8 76.6 11.2 C80.2 14.9 83.9 19.3 85 28.6 C86.7 44.9 82.8 48.8 77.4 54.5 C76.6 62.1 74.8 68.6 73.5 74.8 C73.4 74.8 73.4 74.8 73.3 74.9 z M72.6 73.1 C74.4 64.5 75.5 57.8 76 53 C81.2 47.6 85 42.8 83.4 27.3 C82.3 18.5 79.5 14.6 76 11.1 C74.3 8 68.8 3.6 67.8 2.6 C66 1.1 62.9 1 59.6 2.6 C59.4 2.6 59.3 2.6 59.2 2.7 C55.1 4 51.6 8.4 50 11.5 C48.4 14.6 44.9 33.2 47.8 39.5 C49.9 44 54 44.4 58.7 43.2 C59 46.7 59.8 51.8 60.2 53 C61.2 62.1 57 78.6 55.8 88.8 C56.5 101.2 63.4 100 68.9 98.7 C72.2 98 72.8 96.4 71.3 92.5 C70.8 91.3 70.5 90.1 70.5 88.1 C70.1 83 71.5 78.3 72.6 73.1 z" opacity="0.15" id="g1" /></g></g><g transform="translate(169.6, 188) scale(0.9107345) translate(-169.6, -188)" id="h1"><g transform="translate(96.50001, 81.89997) translate(23, 22)" id="i1"><g id="j1"><path d="M8.2 28.4 C11 21.7 15.7 17.3 19.3 12.7 C22.9 8.1 31.7 5.6 37.3 4.5 C41.1 3.8 45.5 4.2 50.5 5.5 C52.6 4.5 55.6 4.2 59.5 4.5 C66.7 4.5 74.5 9 78.8 11.8 C83 14.6 91 25 93 28.4 C95 31.8 96.7 39.1 97.3 42.7 C97.9 46.3 97.3 55.3 94.7 60.3 C92.1 65.3 82.5 78 79.9 80.3 C76.4 83.4 71.5 86.4 67.9 88.5 C62.3 91.8 46 95 35.4 89.9 C31.5 88 25.1 85.8 20.9 82.2 C13.5 75.9 8.9 67.7 7 65.7 C4 62.7 1.8 55.5 2.5 50.3 C3.2 45.1 5.4 35.1 8.2 28.4 z" id="k1" fill="#7F6458" /><path d="M88.9 69.3 C87.1 71.9 85.2 74.6 83.6 76.7 C82.3 78.2 81.1 79.5 80.2 80.5 C79.9 80.8 79.6 81.2 79.2 81.6 C75.8 84.3 71.3 86.7 68.2 88.6 C62.6 91.8 46 95 35.4 89.9 C31.8 88.2 26.1 86.1 21.9 83 C21 82.2 20 81.4 19 80.5 C18.5 80 18 79.5 17.5 79 L14.9 76.1 C13 73.9 11.4 71.7 10.1 69.9 C9.3 68 8.6 65.7 8.1 63.2 C7.1 58 7.9 53.8 10.3 49.9 C11.7 47.6 14.6 45.6 18.9 43.8 C18.6 47.5 18.6 49.9 18.8 50.8 C20.2 56.9 23.9 61.2 30.3 59.2 C32.2 58.6 34.7 51 48.6 51 C62.5 51 62.5 57.9 68.7 59.7 C74.9 61.5 78.8 56.3 80.6 51.3 C82.4 46.3 80.5 43.1 80.1 42.6 C79.7 42.1 86.2 44 89.2 49 C92.2 54 92.5 57.7 90.4 64.5 C89.9 66.5 89.3 68.1 88.9 69.3 z" id="l1" fill="#FEFEFE" /><path d="M8.2 28.4 C11 21.7 15.7 17.3 19.3 12.7 C22.9 8.1 31.7 5.6 37.3 4.5 C41.1 3.8 45.5 4.2 50.5 5.5 C52.6 4.5 55.6 4.2 59.5 4.5 C66.7 4.5 74.5 9 78.8 11.8 C83 14.6 91 25 93 28.4 C95 31.8 96.7 39.1 97.3 42.7 C97.9 46.3 97.3 55.3 94.7 60.3 C92.1 65.3 82.5 78 79.9 80.3 C76.4 83.4 71.5 86.4 67.9 88.5 C62.3 91.8 46 95 35.4 89.9 C31.5 88 25.1 85.8 20.9 82.2 C13.5 75.9 8.9 67.7 7 65.7 C4 62.7 1.8 55.5 2.5 50.3 C3.2 45.1 5.4 35.1 8.2 28.4 z M10.1 28.4 C7.4 34.9 5.3 44.5 4.6 49.5 C3.9 54.5 6 61.4 8.9 64.3 C10.7 66.2 15.2 74.1 22.2 80.1 C26.2 83.6 32.3 85.8 36.1 87.5 C46.3 92.4 61.9 89.3 67.2 86.1 C70.6 84.1 75.3 81.2 78.7 78.2 C81.2 76 90.4 63.7 92.9 58.9 C95.4 54.1 96 45.4 95.4 42 C94.8 38.5 93.2 31.5 91.2 28.3 C89.2 25.1 81.6 15.1 77.6 12.4 C73.6 9.7 66.1 5.4 59.2 5.4 C55.5 5.1 52.6 5.5 50.6 6.4 C45.8 5.1 41.6 4.7 37.9 5.4 C32.5 6.4 24.1 8.8 20.7 13.3 C17.3 17.8 12.8 21.9 10.1 28.4 z" opacity="0.15" id="m1" /><path d="M32.7 10.5 C38.2 13.7 42.7 17.2 45.6 23.9 C48.5 30.6 47.2 33.2 49.4 33.2 C51.6 33.2 51.1 28.5 53.1 23.9 C55.1 19.3 60.7 14.2 66.5 10.5 C67.2 10 63.6 8.3 60.1 8.4 C56.9 8.6 52.2 10.5 50 10.5 C48 10.5 45 8.8 40.7 8.4 C34.9 7.9 29.5 8.7 32.7 10.5 z" id="n1" fill="#705348" /></g></g><g transform="translate(141.1, 114.1) rotate(28, 0, 0) scale(0.8) translate(-141.1, -120.1) translate(101.2, 97.19997) translate(13, 8)" id="o1"><path d="M23.1 5.8 C20.1 10.5 14.9 20.5 9.1 29.6 C2.2 36.8 3.5 38.8 1.4 42.3 C-0.7 45.8 -0.7 52.8 5.7 59 C12.1 65.2 17.7 67.5 18.8 71.2 C19.9 74.9 27 79 28.8 79 C30.6 79 35.6 73.9 34.7 71.2 C33.8 68.5 28.8 47.4 28.8 35.6 C28.8 31.8 27.5 17.1 28.8 12.6 C29.9 8.7 29.2 4.4 32.6 1.5 C34.2 0.1 26.1 1.2 23.1 5.8 z" id="p1" fill="#51403C" /><g id="q1"><path d="M23.1 5.8 C26.1 1.2 34.2 0.1 32.6 1.5 C29.2 4.4 29.9 8.7 28.8 12.6 C27.5 17.1 28.8 31.8 28.8 35.6 C28.8 47.4 33.8 68.5 34.7 71.2 C35.6 73.9 30.6 79 28.8 79 C27 79 19.9 74.9 18.8 71.2 C17.7 67.5 12.1 65.2 5.7 59 C-0.7 52.8 -0.7 45.8 1.4 42.3 C3.5 38.8 2.2 36.8 9.1 29.6 C14.9 20.5 20.1 10.5 23.1 5.8 z M23 8.7 C20.5 12.9 14.6 22.9 9.8 31.1 C4 37.6 5.2 39.4 3.4 42.5 C1.6 45.6 1.9 51.8 7.7 57.1 C13.5 62.4 18.5 64.2 19.6 67.4 C20.7 70.6 25.6 75 28.4 74.5 C31.2 74 32.9 69 32 66.7 C31.1 64.4 27.6 46.2 27.3 35.8 C27.2 32.5 26.3 18.3 27.3 14.3 C28.1 10.8 28.8 5.7 30.4 2.6 C31.6 0.7 25.5 4.5 23 8.7 z" fill-opacity="0.3" id="r1" /></g></g><g transform="translate(196.7, 114.1) rotate(-28, 0, 0) scale(0.8) translate(-196.7, -120.1) translate(71.1, 97.39997) translate(109, 8)" id="s1"><path d="M20.2 5.8 C23.2 10.5 28.4 20.5 34.2 29.6 C41.1 36.8 40.1 38.8 42.2 42.3 C44.3 45.8 43.9 52.8 37.6 59 C31.3 65.2 25.6 67.5 24.5 71.2 C23.4 74.9 16.2 79 14.4 79 C12.6 79 7.6 73.9 8.5 71.2 C9.4 68.5 14.4 47.4 14.4 35.6 C14.4 31.8 15.7 17.1 14.4 12.6 C13.3 8.7 13.3 4.5 9.9 1.5 C8.4 0.2 17.2 1.2 20.2 5.8 z" id="t1" fill="#51403C" /><path d="M20.2 5.8 C23.2 10.5 28.4 20.5 34.2 29.6 C41.1 36.8 40.1 38.8 42.2 42.3 C44.3 45.8 43.9 52.8 37.6 59 C31.3 65.2 25.6 67.5 24.5 71.2 C23.4 74.9 16.2 79 14.4 79 C12.6 79 7.6 73.9 8.5 71.2 C9.4 68.5 14.4 47.4 14.4 35.6 C14.4 31.8 15.7 17.1 14.4 12.6 C13.3 8.7 13.3 4.5 9.9 1.5 C8.4 0.2 17.2 1.2 20.2 5.8 z M20.6 8.8 C18 4.7 10.2 1 11.5 2.1 C14.5 4.8 15.2 9.5 16.1 12.9 C17.2 16.9 16.8 30.9 16.8 34.2 C16.6 44.7 12.4 64.8 11.5 67.2 C10.7 69.6 14.5 72.7 16.1 72.7 C17.7 72.7 24.1 69.2 25.2 65.9 C26.2 62.6 31.3 60.7 37 55.3 C42.7 49.9 41.8 43.9 40 40.8 C38.2 37.7 38.7 36 32.7 29.5 C27.7 21.5 23.2 13 20.6 8.8 z" fill-opacity="0.3" id="u1" /></g><g id="v1"><g transform="translate(92.50001, 91.89997) translate(58, 69)" id="w1"><g transform="translate(0.270427, 0.292308)" id="x1"><path d="M3.7 28.7 C4.6 29.8 7 30.1 9.2 30.8 C12.2 31.7 15.4 32.7 18.9 32.5 C19 32.5 23.5 32 25 31.9 C29.3 31.4 32.9 31.1 34.5 28.7 C35.1 27.5 36.1 23.3 35.9 21.1 C35.8 19.9 34.2 18.2 33.3 17 C34.5 17.2 35.1 17.1 37 18.3 C36.5 17.1 34.6 14.3 33.6 13.5 C31.5 11.8 29.4 10.7 28.1 9.7 C29.3 9.6 29.8 9.9 31.4 10.2 C30.3 8.9 27.3 6.3 25.8 5.9 C27.1 5.7 27.1 5.7 28.1 5.9 C27 4.4 21.7 1.4 21.1 0.8 C21 0.7 21.1 1.7 22.1 3 C22.9 4 24.5 5 25.3 6.4 C24 5.8 22.7 5.4 21.5 5.2 C24.7 8.1 26.6 10 27.3 11 C25.8 10.5 23.7 9.7 21.8 9.7 C24.5 11 30.1 17 30 17 C28.9 16.3 27.7 15.1 25.8 14.4 C23.6 13.5 20.7 13 18.3 13 C17.5 13 14.9 13.2 13.5 13.5 C10.7 14 8.9 15 8.2 15.5 C9.6 13.7 13.4 10.8 15.8 9.5 C13.8 9.1 11.7 10.2 10.1 11.2 C11.5 9.8 14.7 6.6 16.3 5.1 C15.2 5.3 14.2 5.6 12.6 6.1 C14.6 3.9 16.5 2.3 16.6 2.1 C16.7 1.9 16.9 1.7 17.1 0.6 C15.4 1.9 9.5 5.7 7.5 7.9 C9.5 7.7 9.8 7.5 11 7.6 C9.9 8 7.4 9.8 6.5 10.5 C7.8 10.6 7.8 10.7 8.4 11.1 C7.4 11.4 5.6 12.3 3.6 14 C2.2 15.2 1.2 17.6 0.9 18.2 C2.8 17.5 3 17.2 4.1 16.7 C3.8 17.4 2.5 18.4 2.4 19.6 C2.1 21.4 3 27.8 3.7 28.7 z" id="y1" fill="#E2DED5" /><path d="M3.7 28.7 C3 27.8 2.1 21.4 2.4 19.6 C2.5 18.4 3.8 17.4 4.1 16.7 C3 17.2 2.8 17.5 0.9 18.2 C1.2 17.6 2.2 15.2 3.6 14 C5.6 12.3 7.4 11.4 8.4 11.1 C7.8 10.7 7.8 10.6 6.5 10.5 C7.4 9.8 9.9 8 11 7.6 C9.8 7.5 9.5 7.7 7.5 7.9 C9.5 5.7 15.4 1.9 17.1 0.6 C16.9 1.7 16.7 1.9 16.6 2.1 C16.5 2.3 14.6 3.9 12.6 6.1 C14.2 5.6 15.2 5.3 16.3 5.1 C14.7 6.6 11.5 9.8 10.1 11.2 C11.7 10.2 13.8 9.1 15.8 9.5 C13.4 10.8 9.6 13.7 8.2 15.5 C8.9 15 10.7 14 13.5 13.5 C14.9 13.2 17.5 13 18.3 13 C20.7 13 23.6 13.5 25.8 14.4 C27.7 15.1 28.9 16.3 30 17 C30.1 17 24.5 11 21.8 9.7 C23.7 9.7 25.8 10.5 27.3 11 C26.6 10 24.7 8.1 21.5 5.2 C22.7 5.4 24 5.8 25.3 6.4 C24.5 5 22.9 4 22.1 3 C21.1 1.7 21 0.7 21.1 0.8 C21.7 1.4 27 4.4 28.1 5.9 C27.1 5.7 27.1 5.7 25.8 5.9 C27.3 6.3 30.3 8.9 31.4 10.2 C29.8 9.9 29.3 9.6 28.1 9.7 C29.4 10.7 31.5 11.8 33.6 13.5 C34.6 14.3 36.5 17.1 37 18.3 C35.1 17.1 34.5 17.2 33.3 17 C34.2 18.2 35.8 19.9 35.9 21.1 C36.1 23.3 35.1 27.5 34.5 28.7 C32.9 31.1 29.3 31.4 25 31.9 C23.5 32 19 32.5 18.9 32.5 C15.4 32.7 12.2 31.7 9.2 30.8 C7 30.1 4.6 29.8 3.7 28.7 z M5.3 27.4 C6.1 28.4 8.2 28.7 10.2 29.3 C12.9 30.1 15.7 31 18.9 30.8 C19 30.8 23 30.4 24.4 30.3 C28.2 29.9 31.5 29.6 32.9 27.4 C33.4 26.3 35 23.6 34.9 21.7 C34.8 20.6 33.1 17.7 32.3 16.6 C33.1 16.5 34.2 16.2 35.9 17.2 C35.5 16.1 33.5 14.3 32.6 13.6 C30.7 12.1 28.3 10.1 27.1 9.2 C28.2 9.1 28.8 9.2 30.2 9.5 C29.7 8.9 28.7 8.2 27.6 7.5 C26.5 6.7 25.7 6.6 25.5 5.8 C26.1 5.5 26.6 5.2 27.1 5.3 C26.1 4 22.3 2.2 21.7 1.7 C21.6 1.6 23.1 2.8 24 3.9 C24.7 4.7 25.3 6.6 26.1 7.1 C24.9 6.6 23.7 5.7 22.6 5.6 C25.5 8.2 27.4 10.5 28 11.4 C26.7 11 24.8 10.1 23.1 10.1 C24 10.6 26 11.8 27.4 13.3 C29.6 15.5 31.3 18 31.3 18 C30.3 17.4 26.7 15.1 25 14.5 C23 13.7 20.4 13.2 18.3 13.2 C17.6 13.2 15.3 13.4 14 13.6 C11.5 14 8.1 16.1 7 16.3 C8 14 11.8 10.9 13.9 9.8 C12.1 9.4 10.7 10.6 9.3 11.5 C10.6 10.2 13.8 6.8 15.2 5.4 C14.2 5.6 13.1 5.7 11.7 6.2 C13.5 4.2 14.2 3.7 14.3 3.5 C14.4 3.3 16.2 2.2 16.4 1.3 C14.9 2.5 10.7 5 8.9 7 C10.7 6.8 10.9 6.9 12 7 C11 7.4 8.8 9.2 8 9.8 C9.2 9.9 9 10.3 9.5 10.6 C8.6 10.9 7.2 11.8 5.4 13.3 C4.1 14.4 2.9 16.2 2.6 16.7 C4.3 16.1 4.4 15.8 5.4 15.4 C5.1 16 4.1 18.4 4 19.5 C3.7 21.3 4.7 26.6 5.3 27.4 z" opacity="0.15" id="z1" /></g></g><g transform="translate(91.10001, 115.8) translate(65, 74) translate(0, -7.599991)" id="a2"><path d="M4.2 17 C7.4 16.4 9.1 15 10.5 13.9 C11.4 13.2 12.4 12.3 13.4 11.1 C14.7 12.7 15.6 13.7 16.2 14.1 C17 14.8 19.4 16.3 20.9 16.9 C22.4 17.5 26.3 17.8 26.3 17.2 C26.3 16.6 21.8 15.9 20.2 14.7 C18.6 13.5 17 12.5 15.9 11 C14.9 9.6 15.3 8.6 15.2 7 C15.1 5 15.4 2.8 15.5 1.3 C15.6 -0.7 12.3 -0.1 12.3 1.3 C12.3 2.7 12.3 4.8 12.3 6.6 C12.3 8.4 11.6 10.6 10.2 11.8 C8.8 13 6.9 14.5 4.8 15.3 C3.5 15.8 0.8 16.4 0.9 17 C0.8 17.4 2.9 17.3 4.2 17 z" id="b2" fill="#282421" /></g><g transform="translate(169.6, 179.9999) scale(0.9) translate(-169.6, -181.9999) translate(91.49999, 114.4) translate(68, 59)" id="c2"><g id="d2"><path d="M10.5 0.5 C14.8 0.5 15.9 0.9 19.1 3.2 C22.3 5.5 21 9.5 19.6 11.9 C19 12.6 18 13.2 17 14.5 C16.2 15.5 15.5 17.3 14.6 17.9 C13.3 18.8 12.1 19.2 10.3 19.1 C8.5 19.1 7 18.6 5.8 17.9 C3.8 16.7 3.3 15.1 2.5 13.6 C2 12.7 0.5 11.3 0.1 10.1 C-0.6 8.1 -0.9 5.9 0.3 4 C2.3 1 6.1 0.5 10.5 0.5 z" id="e2" fill="#282421" /><path d="M2.6 4.4 C2.6 4.8 4.5 3.9 6.7 3.5 C7.7 3.3 8.8 3.2 10.3 3.2 C11.8 3.2 14.1 4.2 13.7 4.8 C13.1 5.7 13.5 7.1 15.1 7.5 C15.8 7.6 16.4 7.6 17.3 7.3 C18.2 6.9 18.4 6.3 18.5 5.7 C18.6 5.1 18.6 4.3 17.3 3.6 C17 3.4 15.6 2.4 13.8 2.2 C11.6 2 9.8 2 8.2 2.2 C6.6 2.4 5.4 2.6 4.5 3 C3.2 3.6 2.6 4.2 2.6 4.4 z" id="f2" fill="#FFF" /></g></g><g transform="translate(113.5, 102) translate(30, 41)" id="g2"><g id="h2"><ellipse cx="11.1" cy="20" rx="10.5" ry="10" id="i2" fill="#937367" /><circle cx="12.1" cy="19" r="6.5" id="j2" fill="#424242" /><circle cx="10.1" cy="17" r="2.5" id="k2" fill="#FFF" /><circle cx="14.6" cy="20.5" r="1" id="l2" fill="#FFF" /><path d="M6.5 4.2 C4.5 6.7 6.1 10 8.5 9.3 C10.9 8.5 16 7.2 16.9 5.7 C17.8 4.2 17.1 -0.1 14.2 0.6 C11.3 1.3 8.5 1.8 6.5 4.2 z" id="m2" fill="#D1D1D1" /></g></g><g transform="translate(105, 102) translate(69, 41)" id="n2"><g id="o2"><ellipse cx="11.1" cy="20" rx="10.5" ry="10" id="p2" fill="#937367" /><circle cx="10.2" cy="19" r="6.5" id="q2" fill="#424242" /><circle cx="8.2" cy="17" r="2.5" id="r2" fill="#FFF" /><circle cx="12.7" cy="20.5" r="1" id="s2" fill="#FFF" /><path d="M15.5 4.2 C17.5 6.7 15.9 10 13.5 9.3 C11.1 8.5 6 7.2 5.1 5.7 C4.2 4.2 4.9 -0.1 7.8 0.6 C10.7 1.3 13.5 1.8 15.5 4.2 z" id="t2" fill="#D1D1D1" /></g></g></g></g></g></g><defs><g transform="translate(17.09519, 0.800995) translate(-135.2952, -293.601)" id="u2" fill="#000"><path d="M118.2 302.7 C118.4 307.4 132.5 311.2 149.8 311.2 C167.1 311.2 181.2 307.4 181.4 302.7 C181.4 307.5 181.4 310.1 181.4 310.5 C181.4 315.3 167.3 319.1 149.8 319.1 C132.3 319.1 118.2 315.2 118.2 310.5 L118.2 302.7 L118.2 302.7 z" fill-opacity="0.4528" id="v2" fill="#593001" /><path d="M118.7 301.7 C118.9 306.4 133 310.2 150.3 310.2 C167.6 310.2 181.7 306.4 181.9 301.7 C181.9 306.5 181.9 309.1 181.9 309.5 C181.9 314.3 167.8 318.1 150.3 318.1 C132.8 318.1 118.7 314.2 118.7 309.5 L118.7 301.7 L118.7 301.7 z" id="w2" fill="#DA8113" /><linearGradient x1="46.0545" y1="-118.6926" x2="45.4656" y2="-118.6926" gradientUnits="userSpaceOnUse" gradientTransform="matrix(117.135, 0, 0, 28.4634, -5208.417, 3687.795)" id="x2"><stop offset="0%" stop-color="#D9952A" stop-opacity="1" /><stop offset="6.438854%" stop-color="#CA7519" stop-opacity="1" /><stop offset="30.54%" stop-color="#E3AD3A" stop-opacity="1" /><stop offset="51.05%" stop-color="#FFEC91" stop-opacity="1" /><stop offset="68.8%" stop-color="#E9BD44" stop-opacity="1" /><stop offset="86.24%" stop-color="#FFED6C" stop-opacity="1" /><stop offset="93.87%" stop-color="#F2D353" stop-opacity="1" /><stop offset="100%" stop-color="#F2B947" stop-opacity="1" /></linearGradient><path d="M118.2 301.6 C118.4 306.1 132.7 309.7 150.3 309.7 C167.9 309.7 182.2 306.1 182.4 301.6 C182.4 306.2 182.4 308.7 182.4 309 C182.4 313.5 168 317.2 150.3 317.2 C132.6 317.2 118.2 313.5 118.2 309 L118.2 301.6 L118.2 301.6 z" id="y2" style="fill:url(#x2)" /><linearGradient x1="45.4914" y1="-117.9547" x2="45.9407" y2="-117.5895" gradientUnits="userSpaceOnUse" gradientTransform="matrix(115.425, 0, 0, 29.925, -5125.077, 3826.124)" id="z2"><stop offset="0%" stop-color="#F4E072" stop-opacity="1" /><stop offset="100%" stop-color="#DB9427" stop-opacity="1" /></linearGradient><ellipse cx="150.3" cy="301.5" rx="31.6" ry="8.2" id="a3" style="fill:url(#z2)" /><linearGradient x1="45.4656" y1="-126.0065" x2="46.0545" y2="-126.0065" gradientUnits="userSpaceOnUse" gradientTransform="matrix(117.135, 0, 0, 18.6219, -5208.417, 2651.479)" id="b3"><stop offset="0%" stop-color="#D9952A" stop-opacity="1" /><stop offset="6.438854%" stop-color="#CA7519" stop-opacity="1" /><stop offset="30.54%" stop-color="#E3AD3A" stop-opacity="1" /><stop offset="51.05%" stop-color="#FFEC91" stop-opacity="1" /><stop offset="68.8%" stop-color="#E9BD44" stop-opacity="1" /><stop offset="86.24%" stop-color="#FFED6C" stop-opacity="1" /><stop offset="93.87%" stop-color="#F2D353" stop-opacity="1" /><stop offset="100%" stop-color="#F2B947" stop-opacity="1" /></linearGradient><path d="M119.2 299.9 C119 300.2 118.9 300.6 118.9 301 C118.9 305.5 132.9 309.2 150.3 309.2 C167.7 309.2 181.7 305.5 181.7 301 C181.7 300.6 181.6 300.3 181.4 299.9 C182 300.5 182.4 301.2 182.4 301.9 C182.4 306.4 168 310.1 150.3 310.1 C132.6 310.1 118.2 306.4 118.2 301.9 C118.2 301.3 118.6 300.6 119.2 299.9 z" id="c3" style="fill:url(#b3)" /><linearGradient x1="45.196" y1="-121.5895" x2="45.3746" y2="-120.6758" gradientUnits="userSpaceOnUse" gradientTransform="matrix(101.745, 0, 0, 23.94, -4458.332, 3199.41)" id="d3"><stop offset="0%" stop-color="#F8DD61" stop-opacity="1" /><stop offset="100%" stop-color="#EAA330" stop-opacity="1" /></linearGradient><ellipse cx="150.3" cy="300.8" rx="27.8" ry="6.6" id="e3" style="fill:url(#d3)" /><linearGradient x1="45.5694" y1="-134.267" x2="45.0221" y2="-134.267" gradientUnits="userSpaceOnUse" gradientTransform="matrix(101.745, 0, 0, 13.2525, -4458.332, 2077.223)" id="f3"><stop offset="0%" stop-color="#F4CA2F" stop-opacity="1" /><stop offset="51.38%" stop-color="#BF7737" stop-opacity="1" /><stop offset="100%" stop-color="#E4A929" stop-opacity="1" /></linearGradient><path d="M122.6 301.5 C122.5 301.3 122.4 301 122.4 300.8 C122.4 297.2 134.9 294.2 150.2 294.2 C165.5 294.2 178 297.1 178 300.8 C178 301 177.9 301.3 177.8 301.5 C176.3 298.2 164.5 295.6 150.1 295.6 C135.7 295.6 124.1 298.2 122.6 301.5 z" id="g3" style="fill:url(#f3)" /></g></defs><desc>HKONEBL56ON,B3sMFr/Xg/H5Jy/dtX6V2axuI/+l/XTogY+3u3G04FEgShy//wzMj4fBBjH37/OVhWduCz3dbUSlSpg02enRak4nVrUPrTpTHnYq/f9qY8D8w5G/cpeKAWZj+BxF7bB7pYRlu5MkCmYNWEjfrccePO1mWN/DOGZ6MEPG9g3sC7EZaMeje13uIPaKy6+J0XeX</desc></svg>