<?xml version="1.0" encoding="utf-8"?><!DOCTYPE svg PUBLIC "-//W3C//DTD SVG 1.1//EN" "http://www.w3.org/Graphics/SVG/1.1/DTD/svg11.dtd"><svg x="0" y="0" width="340px" height="340px" viewBox="0, 0, 340, 340" preserveAspectRatio="xMidYMid" font-size="0" id="a" enable-background="new 0 0 340 340" xmlns="http://www.w3.org/2000/svg" xmlns:xlink="http://www.w3.org/1999/xlink" xmlns:xml="http://www.w3.org/XML/1998/namespace" version="1.1"><g id="b" fill="#000"><g id="c"><g transform="translate(0, 0) translate(0, 224)" id="d"><ellipse cx="168.6" cy="53.1" rx="57.8" ry="12.8" fill-opacity="0.25" id="e" /></g><g id="f"><g transform="translate(103.8, 98.89998) translate(20.5, 139.5) scale(-1, 1) translate(-20.5, -139.5) translate(0, 122)" id="g"><g id="h"><path d="M28.3 1.5 C38.6 0.6 40.4 9.4 40.6 11.6 C39.9 11.2 39.2 10.8 38.5 10.4 C39.3 12.6 39.7 15.1 39.7 17.8 C38.6 16.4 36.7 14.8 34.9 13.9 C35.7 15.2 36.5 16.5 37.4 17 C35.4 17.6 34.6 18.2 31 17.7 C28.6 17.4 27.5 17.8 24.4 18.3 C23.8 18.4 19.5 10.8 21.8 5.7 C23.2 3.5 27.3 1.5 28.3 1.5 z" id="i" fill="#2C2F32" /><path d="M6 15 C9.4 15.8 13.3 15.1 15.9 12.7 C16.5 12.2 17 11.5 17.6 10.9 C19.7 7.6 21.8 4.2 23.8 0.9 C23.8 1.7 23.7 2.5 23.6 3.2 C25 2.2 26.5 1.5 28.3 1.3 C25.8 4 23.8 7.1 22.4 10.5 C22.8 10.5 23.3 10.4 23.8 10.3 C24.8 10 26.6 9.5 27.4 8.4 C27.4 10.5 26.9 11.4 26.2 12.1 C28.3 11.9 30.4 12.2 32.4 13 C29.6 13.4 27.8 16.2 25.4 17.6 C25.5 17.6 28.8 17 30.9 17.9 C31 18.1 31.1 18.4 31.2 18.6 C32.2 21 32.3 23.7 31.5 26.1 C30.7 24.4 29.5 22.8 28.1 21.5 C28.6 25.5 27.5 29.7 25.6 32.8 C25.4 29.1 25.6 25.3 21.5 23.8 C23.2 26.6 21.3 31.3 20.7 34.1 C20.5 31.6 20.2 29.1 19.1 26.8 C16.2 20.4 14.9 21 9.6 21.6 C6.3 21.9 1.1 21 1 18.4 C0.9 15.8 4.2 14.6 6 15 z" id="j" fill="#32363A" /><path d="M30 17.6 C30.3 17.7 30.6 17.8 30.9 17.9 C31 18.1 31.1 18.4 31.2 18.6 C32.2 21 32.3 23.7 31.5 26.1 C30.7 24.4 29.5 22.8 28.1 21.5 C28.6 25.5 27.5 29.7 25.6 32.8 C25.4 29.1 25.6 25.3 21.5 23.8 C23.2 26.6 21.3 31.3 20.7 34.1 C20.5 31.6 20.2 29.1 19.1 26.8 C16.2 20.4 14.9 21 9.6 21.6 C6.3 21.9 1.1 21 1 18.4 C0.9 15.8 4.2 14.6 6 15 C9.4 15.8 13.3 15.1 15.9 12.7 C16.5 12.2 17 11.5 17.6 10.9 C19.7 7.6 21.8 4.2 23.8 0.9 C23.8 1.7 23.7 2.5 23.6 3.2 C25 2.2 26.5 1.5 28.3 1.3 C28.2 1.4 28.2 1.4 28.1 1.5 C28.2 1.5 28.2 1.5 28.3 1.5 C38.6 0.6 40.4 9.4 40.6 11.6 L38.5 10.4 C39.3 12.6 39.7 15.1 39.7 17.8 C38.6 16.4 36.7 14.8 34.9 13.9 C35.7 15.2 36.5 16.5 37.4 17 C35.4 17.6 34.6 18.2 31 17.7 C30.6 17.7 30.3 17.6 30 17.6 z M29.8 16.1 C29.5 16 33.3 16.9 35.1 16.4 C34.3 15.9 34.1 13.3 33.3 12.1 C35 12.9 37.9 14.3 38.9 15.6 C38.9 13.2 38.2 10.6 37.5 8.7 L39.8 10 C39.7 8.1 37 1.6 27.7 2.4 C27.6 2.4 28.5 2 28.4 2 C28.5 1.9 28.5 1.9 28.6 1.8 C27 2 24.4 4.3 23.2 5.2 C23.2 4.6 23.2 3.4 23.2 2.7 C21.3 5.6 20.8 7.4 18.9 10.3 C18.4 10.9 17.9 11.5 17.4 11.9 C15 14.1 11 16.9 7.9 16.2 C6.2 15.8 2.7 15.8 2.8 18.1 C2.9 20.4 8.7 20.1 11.6 19.8 C16.5 19.3 16.6 18.2 19.2 23.9 C20.2 25.9 20.7 26.4 20.8 28.6 C21.4 26.1 21.2 24.2 19.7 21.7 C23.4 23 25.9 24.9 26.1 28.2 C27.8 25.5 26.9 22.7 26.5 19.2 C27.8 20.3 30.3 21.7 31.1 23.2 C31.8 21.1 30 19.5 29.1 17.3 C29 17.2 29.8 16.3 29.8 16.1 z" opacity="0.15" id="k" /></g></g><g transform="translate(126.3933, 274.8) scale(0.9123076) translate(-123.6, -274.8) translate(98.90001, 79.29997) translate(17, 136)" id="l"><path d="M4.3 33.6 C3.8 31 3.1 28.2 2.7 25.4 C2.3 26 1.9 26.7 1.5 27.5 C0.3 22.8 0.4 11.7 4 6.1 C4 6.1 4 6.1 4 6 C4 5.9 4.1 5.9 4.1 5.8 C4.1 5.8 4.1 5.7 4.2 5.7 C4.5 5.2 4.8 4.8 5.2 4.3 C10.6 -1.3 22.8 -0.7 30 5.8 C42.2 16.8 34 33.7 31.1 40.5 C28.6 46.5 9.7 46.3 9.1 44.4 C8 40.8 6.8 36.8 5.7 32.8 C5.2 33.1 4.8 33.4 4.3 33.6 z" id="m" fill="#CAC3C0" /><path d="M10.6 49.9 C10.1 47.8 9.4 45.5 8.7 43.1 C10.5 41.2 12.7 40.4 15.2 40.1 C16.9 39.9 18.7 40.1 20.4 40 C22.6 39.8 24.8 37.8 26.5 36.7 C28.1 35.7 31.4 33.6 33.1 35.5 C32.3 37.5 31.6 39.2 31 40.6 C28.5 46.6 31.6 54.8 27 59.4 C22.8 63.7 6.5 62.5 2 60.7 C1.9 55.1 6.2 55.3 10.6 49.9 z" id="n" fill="#AAA5A3" /><path d="M30.8 41 C28.6 47 31.5 54.9 27 59.4 C22.8 63.7 6.5 62.5 2 60.7 C1.9 55.1 6.2 55.3 10.6 49.9 C10.1 47.8 9.4 45.5 8.7 43.1 L8.7 43.1 C7.7 39.8 6.7 36.3 5.7 32.8 C5.2 33.1 4.8 33.4 4.3 33.6 C3.8 31 3.1 28.2 2.7 25.4 C2.3 26 1.9 26.7 1.5 27.5 C0.3 22.8 0.4 11.7 4 6.1 L4 6 C4 5.9 4.1 5.9 4.1 5.8 C4.1 5.8 4.1 5.7 4.2 5.7 C4.5 5.2 4.8 4.8 5.2 4.3 C10.6 -1.3 22.8 -0.7 30 5.8 C42.2 16.8 34 33.7 31.1 40.5 C31 40.7 30.9 40.8 30.8 41 z M29.2 40.7 C29.8 39.6 30.2 39 30.2 38.9 C32.9 32.5 40.6 16.8 29.2 6.6 C22.5 0.5 11.2 0 6.1 5.2 C5.8 5.7 5.5 6 5.2 6.5 C5.1 6.5 5.1 6.6 5.1 6.6 C5.1 6.7 5 6.7 5 6.9 C1.7 12.1 0.8 20.2 1.9 24.6 C2.3 23.9 3.3 23.5 3.7 22.9 C4.1 25.5 5 29 5.4 31.4 C5.9 31.2 6.5 30 7 29.7 C7.9 33 8.5 38.3 9.4 41.3 L9.9 40.7 C10.6 42.9 12.1 48.3 12.6 50.3 C8.5 55.3 4.9 53.5 5 58.7 C9.2 60.4 22.5 60.4 26.4 56.4 C30.6 52.3 27.2 46.2 29.2 40.7 z" opacity="0.15" id="o" /></g><g transform="translate(212.2066, 274.8) scale(0.9123076) translate(-215, -274.8) translate(105.4, 79.29997) translate(98.5, 167.5) scale(-1, 1) translate(-98.5, -167.5) translate(80, 136)" id="p"><path d="M4.3 33.6 C3.8 31 3.1 28.2 2.7 25.4 C2.3 26 1.9 26.7 1.5 27.5 C0.3 22.8 0.4 11.7 4 6.1 C4 6.1 4 6.1 4 6 C4 5.9 4.1 5.9 4.1 5.8 C4.1 5.8 4.1 5.7 4.2 5.7 C4.5 5.2 4.8 4.8 5.2 4.3 C10.6 -1.3 22.8 -0.7 30 5.8 C42.2 16.8 34 33.7 31.1 40.5 C28.6 46.5 9.7 46.3 9.1 44.4 C8 40.8 6.8 36.8 5.7 32.8 C5.2 33.1 4.8 33.4 4.3 33.6 z" id="q" fill="#CAC3C0" /><path d="M10.6 49.9 C10.1 47.8 9.4 45.5 8.7 43.1 C10.5 41.2 12.7 40.4 15.2 40.1 C16.9 39.9 18.7 40.1 20.4 40 C22.6 39.8 24.8 37.8 26.5 36.7 C28.1 35.7 31.4 33.6 33.1 35.5 C32.3 37.5 31.6 39.2 31 40.6 C28.5 46.6 31.6 54.8 27 59.4 C22.8 63.7 6.5 62.5 2 60.7 C1.9 55.1 6.3 55.3 10.6 49.9 z" id="r" fill="#AAA5A3" /><path d="M30.8 41 C28.6 47 31.5 54.9 27 59.4 C22.8 63.7 6.5 62.5 2 60.7 C1.9 55.1 6.3 55.3 10.6 49.9 C10.1 47.8 9.4 45.5 8.7 43.1 L8.7 43.1 C7.7 39.8 6.7 36.3 5.7 32.8 C5.2 33.1 4.8 33.4 4.3 33.6 C3.8 31 3.1 28.2 2.7 25.4 C2.3 26 1.9 26.7 1.5 27.5 C0.3 22.8 0.4 11.7 4 6.1 L4 6 C4 5.9 4.1 5.9 4.1 5.8 C4.1 5.8 4.1 5.7 4.2 5.7 C4.5 5.2 4.8 4.8 5.2 4.3 C10.6 -1.3 22.8 -0.7 30 5.8 C42.2 16.8 34 33.7 31.1 40.5 C31 40.7 30.9 40.8 30.8 41 z M29.7 38.9 L28.4 41.3 C28.5 41.1 29.9 38.6 30 38.5 C32.6 32.3 40.1 16.8 29 6.7 C22.4 0.8 11.3 0.2 6.4 5.3 C6 5.8 5.8 6.2 5.5 6.6 C5.4 6.6 5.4 6.7 5.4 6.7 C5.4 6.8 5.3 6.8 5.3 7 C2 12.1 1 20.4 2.1 24.7 C2.5 24 3.6 23.6 4 23.1 C4.3 25.6 4.5 29 5 31.3 C5.4 31.2 6.6 30.2 7 29.9 C7.9 33.1 8.7 37.9 9.6 40.9 C10.2 43.1 12.1 47.7 12.6 49.7 C8.6 54.6 5.5 53.1 5.6 58.3 C9.7 59.9 21.5 60.7 25.4 56.8 C29.4 52.7 27.7 44.4 29.7 38.9 z" opacity="0.15" id="s" /></g><g transform="translate(-285.9, 63.59998) translate(26, 89)" id="t"><path d="M397 32.1 C391 38.3 389.6 53.9 391.7 73.6 C393.8 93.4 398.5 110.6 404.4 118.6 C410.3 126.6 419.1 128.3 429.1 128.3 C439.1 128.3 444.7 128.5 451.9 120.5 C459 112.6 463.7 84.2 465.1 74.4 C466.5 64.7 469.4 41 460.1 32.9 C455.5 28.8 444.8 7 431.3 6.5 C417.8 6 403 26 397 32.1 z" id="u" fill="#CAC3C0" /><path d="M397 32.1 C391 38.3 389.6 53.9 391.7 73.6 C392.6 81.9 396.1 90.6 397.8 97.5 C400.1 107.1 401 114.1 404.4 118.7 C410.3 126.7 419.1 128.4 429.1 128.4 C439.1 128.4 444.7 128.6 451.9 120.6 C459 112.7 463.7 84.3 465.1 74.5 C466.5 64.8 469.4 41.1 460.1 33 C455.5 28.9 444.8 7.3 431.3 6.8 C417.8 6.2 403 26 397 32.1 z" id="v" fill="#CAC3C0" /><path d="M397 32.1 C403 26 417.8 6.2 431.1 6.6 C444.7 7.1 455.4 28.8 459.9 32.8 C469.2 40.9 466.3 64.6 464.9 74.3 C463.5 84.1 458.8 112.5 451.7 120.4 C444.5 128.4 438.9 128.2 428.9 128.2 C418.9 128.2 410.1 126.5 404.2 118.5 C398.3 110.5 393.6 93.2 391.5 73.5 C389.6 53.9 391 38.3 397 32.1 z M398.3 32.4 C392.5 38.4 391.2 53.3 393.2 72.3 C395.2 91.4 399.7 107.8 405.4 115.5 C411.1 123.2 419.5 124.8 429.1 124.8 C438.7 124.8 444.1 125 451 117.3 C457.8 109.7 462.3 82.4 463.7 73 C465 63.7 467.8 40.9 458.9 33.1 C454.3 29.2 444.1 8.5 431 8 C418.2 7.5 404 26.5 398.3 32.4 z" opacity="0.15" id="w" /></g><g transform="translate(113.2012, 173.2) scale(1.364054, 1.122335) translate(-128, -156.3) translate(109, 76.69997)" id="x"><path d="M27.3 124.6 C24.3 138.7 29.4 139.8 32.1 151.3 C33.9 158.9 35.4 165.1 36.8 169.9 L48.9 167.7 C48.9 157.8 49.6 152 51 150.1 C53.2 147.3 55.7 147.2 56.8 143.3 C57.5 140.7 56.8 133.5 54.9 127.7 C53.8 124.1 47.6 121.9 45.2 120.8 C40 118.4 35.5 118.8 31.3 114.2 C29.9 112.5 28.1 121.7 27.3 124.6 z" id="y" fill="#FEFEFE" /><path d="M48.9 158.7 C48.9 161.5 50.4 172.2 48.9 174.2 C47.4 176.2 45.2 177.1 43.2 177.4 C41.2 177.7 34.7 177.3 32.5 177.7 C30.2 178.1 27 174.6 27 172.7 C27 170.8 27.3 165.9 30.4 164.7 C33.5 163.5 26 164.6 35.5 163.3 C36.2 163.2 35.2 157.5 36.1 158.1 C36.6 158.4 39.3 165.3 39.6 164.7 C40.4 163.1 39.8 156.9 40.6 156.7 C41.9 156.4 43.7 161.4 45.5 162.2 C49.6 164 48.9 153.7 48.9 158.7 z" id="z" fill="#46494D" /><path d="M92 124.6 C95 138.7 89.9 139.8 87.2 151.3 C85.4 158.9 83.9 165.1 82.5 169.9 L70.4 167.7 C70.4 157.8 69.7 152 68.3 150.1 C66.1 147.3 64.5 147.9 63.5 144 C62.8 141.5 62.5 134.7 65 128.4 C66.4 124.9 71.3 122.5 73.8 121.3 C76.5 120.1 80.2 119.9 83.2 118 C85.9 116.3 87.4 111.8 88.9 115.4 C89.7 118.2 90.9 122 92 124.6 z" id="a1" fill="#FEFEFE" /><path d="M70.4 158.7 C70.4 161.5 68.9 172.2 70.4 174.2 C71.9 176.2 74.1 177.1 76.1 177.4 C78.1 177.7 84.6 177.3 86.8 177.7 C89.1 178.1 92.3 174.6 92.3 172.7 C92.3 170.8 92 165.9 88.9 164.7 C85.8 163.5 93.3 164.6 83.8 163.3 C83.1 163.2 84.1 157.5 83.2 158.1 C82.7 158.4 80 165.3 79.7 164.7 C78.9 163.1 79.5 156.9 78.7 156.7 C77.4 156.4 75.6 161.4 73.8 162.2 C69.7 164 70.4 153.7 70.4 158.7 z" id="b1" fill="#46494D" /><path d="M31.6 114.5 C30.3 113.7 28.7 121.9 28 124.6 C25.1 138 30 139.1 32.6 150 C33.6 154.3 35.6 160.4 36.4 163.8 C28 164.9 34.3 164.4 31.4 165.5 C28.4 166.6 27.9 168.6 27.9 170.4 C27.9 172.2 30.7 175.5 32.9 175.1 C35 174.7 41.2 175.1 43.1 174.8 C45 174.5 46.4 174 47.8 172.1 C48.6 171.1 48.6 166.8 47.8 159.3 C48.1 153.7 49.5 150.2 50.5 148.8 C52.6 146.1 55 146 56 142.3 C56.7 139.8 56 133 54.2 127.4 C53.2 124 47.2 121.9 45 120.8 C40.1 118.6 35.9 118.9 32 114.8 C36 118.6 40.3 118.4 45.2 120.7 C47.6 121.8 53.8 124 54.9 127.6 C56.8 133.4 57.5 140.6 56.8 143.2 C55.7 147.1 53.2 147.2 51 150 C50 151.4 49.3 155 49 160.9 C49.3 165.1 50.1 172.4 48.9 174.1 C47.4 176.1 45.2 177 43.2 177.3 C41.2 177.6 34.7 177.2 32.5 177.6 C30.2 178 27 174.5 27 172.6 C27 170.7 27.3 165.8 30.4 164.6 C33.4 163.4 26.3 164.5 35 163.3 C34.1 159.8 33.1 155.8 32.1 151.2 C29.4 139.7 24.3 138.6 27.3 124.5 C28.1 121.6 29.9 112.4 31.3 114.1 C31.4 114.3 31.5 114.4 31.6 114.5 z" opacity="0.15" id="c1" /><path d="M85 116.4 C84.4 117.1 83.7 117.8 82.9 118.3 C80 120.1 76.5 120.3 73.9 121.4 C71.5 122.5 66.8 124.8 65.5 128.2 C63.1 134.2 63.4 140.7 64.1 143.1 C65.1 146.8 66.6 146.2 68.7 148.9 C69.7 150.3 70.9 154.3 71.1 160 C70.8 164 69.9 170.7 71.1 172.2 C72.5 174.1 74.2 174.6 76.1 174.9 C78 175.2 84.2 174.8 86.3 175.2 C88.5 175.6 91.3 172.3 91.3 170.5 C91.3 168.7 91.3 167.3 88.3 166.2 C85.4 165.1 91.2 165.8 82.9 164.6 L83.9 161.6 C84.8 158.2 85.7 154.4 86.7 150.1 C89.3 139.1 94.1 138.1 91.3 124.6 C90.3 122.1 89.1 118.5 88.3 115.8 C87.5 113.9 86.7 114.4 85.7 115.5 C87 114.1 87.9 113.1 88.8 115.4 C89.6 118.2 90.8 122 91.9 124.6 C94.9 138.7 89.8 139.8 87.1 151.3 C86 155.8 85.1 159.8 84.2 163.4 C93 164.6 85.8 163.6 88.8 164.7 C91.9 165.9 92.2 170.8 92.2 172.7 C92.2 174.6 89 178.1 86.7 177.7 C84.5 177.3 78 177.7 76 177.4 C74 177.1 71.8 176.2 70.3 174.2 C69.1 172.6 69.8 165.3 70.2 161 C69.9 155.1 69.3 151.5 68.2 150.1 C66 147.3 64.4 147.9 63.4 144 C62.7 141.5 62.4 134.7 64.9 128.4 C66.3 124.9 71.2 122.5 73.7 121.3 C76.4 120.1 80.1 119.9 83.1 118 C83.9 117.6 84.5 117 85 116.4 z" opacity="0.15" id="d1" /><path d="M20.3 98.1 C19 103.8 20.5 106.5 21.1 110 C21.5 112.3 22.5 115.5 24 119.6 L25.6 115.8 C26.7 120.6 27.9 123.8 29.1 125.5 C30.3 127.2 32 129.5 34 132.3 L34.7 127.7 C35.9 129.5 37.6 131.8 40 134.7 C42.4 137.5 43.2 138.9 42.6 138.9 L44.7 134.7 C46.3 137.4 47.8 139.5 49.3 140.8 C50.8 142.2 52.9 144 55.7 146.2 L55.7 141.7 C58 144.7 59.6 146.2 60.6 146.2 C61.6 146.2 63.3 144.7 65.9 141.7 L65.9 146.2 C72.8 141.3 76.5 137.9 76.9 136.1 C78.7 137.4 79.6 138.3 79.6 138.9 C81.2 137.4 82.4 135.6 83 133.6 C83.7 131.6 84.7 129.1 86 126.2 L87.7 129.4 C92 124.1 94.7 119.9 95.8 116.7 C97.5 112 100.3 100.3 97.5 92.3 C95.6 87.1 90.2 83.1 81.3 80.5 C67.3 80.5 59.4 80.5 57.5 80.5 C54.7 80.5 41.3 79.7 40 80.5 C39.3 80.9 33.2 80.3 26.5 86.3 C24 88.7 21.6 92.4 20.3 98.1 z" id="e1" fill="#FEFEFF" /><path d="M20.3 98.1 C19 103.8 20.5 106.5 21.1 110 C21.3 112.5 22.4 115.6 24 119.6 L25.6 115.8 C26.7 120.6 27.9 123.8 29.1 125.5 C30.3 127.2 32 129.5 34 132.3 L34.7 127.7 C35.9 129.5 37.6 131.8 40 134.7 C42.4 137.5 43.2 138.9 42.6 138.9 L44.7 134.7 C46.3 137.4 47.8 139.5 49.3 140.8 C50.8 142.2 52.9 144 55.7 146.2 L55.7 141.7 C58 144.7 59.6 146.2 60.6 146.2 C61.6 146.2 63.3 144.7 65.9 141.7 L65.9 146.2 C72.8 141.3 76.5 137.9 76.9 136.1 C78.7 137.4 79.6 138.3 79.6 138.9 C81.2 137.4 82.4 135.6 83 133.6 C83.7 131.6 84.7 129.1 86 126.2 L87.7 129.4 C92 124.1 94.7 119.9 95.8 116.7 C97.5 112 100.3 100.3 97.5 92.3 C95.6 87.1 90.2 83.1 81.3 80.5 C67.3 80.5 59.4 80.5 57.5 80.5 C54.7 80.5 41.3 79.7 40 80.5 C39.3 80.9 33.2 80.3 26.5 86.3 C24 88.7 21.6 92.4 20.3 98.1 z" fill-opacity="0.09629755" id="f1" fill="#010101" /><path d="M98.5 97 C98 102.2 96.7 107 95.8 109.7 C94.7 112.9 92 117.1 87.7 122.4 L86 119.2 C84.7 122.1 83.7 124.6 83 126.6 C82.4 128.6 80.4 125.1 78.8 126.6 C78.8 126 75.9 133.2 75.5 135 C75.1 136.8 72 134.7 70.4 129.8 L67.5 137.4 C64.9 140.4 62.5 133.8 61.5 133.8 C60.9 133.8 60.2 140.7 58.4 139.2 C57.2 138.2 54.2 134.4 53.3 133.2 L52.2 136.7 C49.4 134.5 48.5 129.9 46.9 127.2 L42.1 132.5 C42.6 132.5 39 127.9 38.4 127.2 C36 124.3 36 122.5 34.8 120.7 L34.1 125.3 C32.1 122.5 30.4 120.2 29.2 118.5 C28 116.8 26.8 113.6 25.7 108.8 L24.1 112.6 C22.6 108.5 21.6 105.3 21.2 103 C21 101.5 20.5 100.2 20.3 98.8 C20.3 98.6 20.4 98.3 20.4 98.1 C21.7 92.4 24.1 88.7 26.6 86.3 C33.3 80.3 39.4 80.9 40.1 80.5 C41.4 79.7 54.8 80.5 57.6 80.5 L81.3 80.5 C90.2 83.1 95.6 87.1 97.5 92.3 C98 93.8 98.3 95.4 98.5 97 z" id="g1" fill="#FEFEFF" /><path d="M20.4 97.7 C21.7 92.1 24.1 88.4 26.6 86.1 C33.3 80.2 39.4 80.8 40.1 80.4 C41.4 79.6 54.8 80.4 57.6 80.4 L81.3 80.4 C90.2 83 95.6 86.9 97.5 92 C98 93.5 98.3 95.1 98.5 96.6 C98.5 96.8 98.5 96.9 98.5 97.1 C99.5 104.5 97.3 113.2 95.8 117.1 C94.7 120.3 92 124.4 87.7 129.6 L86 126.4 C84.7 129.3 83.7 131.7 83 133.7 C82.4 135.7 81.2 137.5 79.6 138.9 C79.6 138.3 78.7 137.4 76.9 136.1 C76.5 137.9 72.8 141.2 65.9 146.1 L65.9 141.7 C63.3 144.7 61.6 146.1 60.6 146.1 C59.6 146.1 58 144.6 55.7 141.7 L55.7 146.1 C52.9 143.9 50.8 142.2 49.3 140.8 C47.8 139.5 46.3 137.4 44.7 134.8 L42.6 138.9 C43.2 138.9 42.4 137.5 40 134.8 C37.6 131.9 35.9 129.7 34.7 127.9 L34 132.4 C32 129.6 30.3 127.4 29.1 125.7 C27.9 124 26.7 120.9 25.6 116.1 L24 119.9 C22.4 116 21.3 112.9 21.1 110.4 C20.5 106.9 19 104.3 20.3 98.7 C20.3 98.2 20.4 97.9 20.4 97.7 z M28.6 86.7 C26.3 88.9 23.9 92.3 22.7 96.6 C21.3 101.9 21.5 105.8 22.1 109 C22.3 111.3 22.8 111.1 24.3 114.8 L25.5 113.8 C26.5 118.3 29.8 122.4 30.9 123.9 C32 125.5 31.5 125.1 33.4 127.7 L35.5 124.8 C36.6 126.5 38.9 129.7 41.1 132.4 C43.4 135 43.7 134.7 43.2 134.7 L45.3 131.8 C46.8 134.3 48.4 136.9 49.8 138.1 C51.2 139.4 52 140.5 54.6 142.5 L54.8 138.6 C57 141.4 59.5 143.1 60.4 143.1 C61.3 143.1 64.5 141.9 66.9 139.1 L66.9 142.6 C73.4 138.1 77.1 135.1 77.4 133.4 C79.1 134.6 79.8 135.7 79.8 136.3 C81.3 134.9 80.8 133.2 81.4 131.4 C82.1 129.5 84.1 126 85.3 123.3 L86.7 125.9 C90.7 121 92.4 118.7 93.5 115.7 C94.8 112.1 96.9 103.9 96 96.9 C96 96.8 96 96.6 96 96.5 C95.8 95 95.5 93.5 95.1 92.1 C93.3 87.3 88.2 83.6 79.9 81.2 L57.7 81.2 C55.1 81.2 42.5 80.5 41.3 81.2 C40.6 81.7 34.9 81.1 28.6 86.7 z" fill-opacity="0.09629755" id="h1" fill="#010101" /></g></g><g id="i1"><g transform="translate(102.7, 92.79997) translate(25, 0)" id="j1"><path d="M83.3 38.3 C82.7 12.3 65.3 8.5 60.7 6 C55.5 3.1 48.3 0.1 42.1 0.1 C35.9 0.1 28.7 3.2 23.5 6 C18.9 8.6 1.6 12.3 0.9 38.3 C0.3 62.7 17 66.8 17.2 78.3 C17.5 96.2 28 97 42 97 C56 97 66.5 96.1 66.8 78.3 C67.1 66.8 83.9 62.6 83.3 38.3 z" id="k1" fill="#EFE9E6" /><path d="M83.3 38.3 C83.9 62.6 67.1 66.8 66.8 78.3 C66.5 96.1 56 97 42 97 C28 97 17.5 96.2 17.2 78.3 C17 66.8 0.3 62.7 0.9 38.3 C1.6 12.3 18.9 8.6 23.5 6 C28.7 3.2 35.9 0.1 42.1 0.1 C48.3 0.1 55.5 3.1 60.7 6 C65.3 8.5 82.7 12.3 83.3 38.3 z M80.6 37.2 C80.1 12.6 63.8 9 59.5 6.6 C54.6 3.8 47.9 1 42.1 1 C36.3 1 29.6 3.9 24.7 6.6 C20.4 9.1 4.2 12.6 3.6 37.2 C3 60.4 18.6 64.2 18.8 75.1 C19.1 92.1 28.9 92.8 42 92.8 C55.1 92.8 64.9 92 65.2 75.1 C65.5 64.2 81.2 60.3 80.6 37.2 z" opacity="0.15" id="l1" /></g><g transform="translate(136.6, 115.5) rotate(-10, 0, 0) scale(0.8) translate(-136.6, -115.5) translate(95.20001, 69.79997) translate(16, 0)" id="m1"><g id="n1"><path d="M27.8 10.3 C24.4 3.6 20.9 -0.6 19.4 0.1 C16.2 1.6 11.7 10.8 8.9 17.1 C4.7 22.1 0.8 27.6 0.3 34.1 C1.2 33.3 2.1 32.4 3 31.6 C1.5 36.6 1.5 42.1 3.2 47.1 C3.5 46.3 3.8 45.5 4.2 44.7 C5.2 50.9 7.8 57.6 13.6 56.5 C22.4 54.8 36.6 44.1 38.7 35.7 C40.4 28.5 32.1 18.9 27.8 10.3 z" id="o1" fill="#46494D" /><path d="M27.8 10.3 C32.1 18.9 40.4 28.5 38.7 35.7 C36.6 44.1 22.4 54.8 13.6 56.5 C7.8 57.6 5.2 50.9 4.2 44.7 C3.8 45.5 3.5 46.3 3.2 47.1 C1.5 42.1 1.5 36.6 3 31.6 C2.1 32.4 1.2 33.3 0.3 34.1 C0.8 27.6 4.7 22.1 8.9 17.1 C11.7 10.8 16.2 1.6 19.4 0.1 C20.9 -0.6 24.4 3.6 27.8 10.3 z M26.9 10.9 C23.9 4.9 20.7 1.2 19.4 1.8 C16.6 3.1 12.5 11.3 10 17 C6.2 21.5 2.8 25 2.4 30.8 C3.2 30.1 4.1 29.7 4.9 29 C3.6 33.5 2.3 38.1 3.8 42.6 C4.1 41.9 5.4 40.9 5.8 40.2 C6.7 45.7 9 53.2 14.2 52.3 C22.1 50.8 34.8 41.2 36.6 33.7 C38.2 27.2 30.8 18.6 26.9 10.9 z" opacity="0.15" id="p1" /><path d="M25 34.7 C26.2 33.7 27.6 32.5 29 31.9 C25 31.5 20.8 32.4 17.3 34.5 C19.1 29.2 23.9 26.3 29.5 27 C29.5 26.9 29.5 26.9 29.4 26.8 C28.1 25.8 25.2 24.8 23.1 25.1 C24.3 22.1 24.6 20.1 25.8 17.1 C24.4 17.4 22.3 16.9 20.6 18.2 L19.7 15.6 C19.7 15.6 22.4 12.4 23.4 12.3 C21.9 9.8 20.5 8.2 19.5 8.3 C14.8 8.8 13.9 20 11.5 28.5 C10 33.6 9.2 44.3 11.5 48.5 C13.1 51.6 18.1 45.7 21.3 44.4 C21.3 44.4 26.6 40.2 30.6 40.3 C30.7 40.3 30.8 40.3 30.9 40.2 C29.5 37.8 27.5 35.9 25 34.7 z" id="q1" fill="#EFE9E6" /></g></g><g transform="translate(202.9, 115.5) rotate(10, 0, 0) scale(0.8) translate(-202.9, -115.5) translate(111.7, 69.79997) translate(97.5, 28.5) scale(-1, 1) translate(-97.5, -28.5) translate(78, 0)" id="r1"><path d="M0.3 34.1 C0.7 27.5 4.6 22.1 8.9 17.1 C11.7 10.8 16.2 1.6 19.4 0.1 C20.9 -0.6 24.4 3.7 27.8 10.3 C32.1 18.9 40.3 28.5 38.6 35.6 C36.2 46.2 22.4 55.5 13.5 56.4 C7.7 57 5.2 50.6 4.1 44.6 C3.7 45.4 3.4 46.2 3.1 47 C1.5 42 1.4 36.5 2.9 31.5 C2.1 32.4 1.2 33.3 0.3 34.1 z" id="s1" fill="#46494D" /><path d="M27.8 10.3 C32.1 18.9 40.4 28.5 38.7 35.7 C36.6 44.1 22.4 54.8 13.6 56.5 C7.8 57.6 5.2 50.9 4.2 44.7 C3.8 45.5 3.5 46.3 3.2 47.1 C1.5 42.1 1.5 36.6 3 31.6 C2.1 32.4 1.2 33.3 0.3 34.1 C0.8 27.6 4.7 22.1 8.9 17.1 C11.7 10.8 16.2 1.6 19.4 0.1 C20.9 -0.6 24.4 3.6 27.8 10.3 z M26.9 10.9 C23.9 4.9 20.7 1.2 19.4 1.8 C16.5 3.1 12.5 11.3 10 17 C6.2 21.5 2.8 25 2.4 30.8 C3.2 30.1 4.1 29.7 4.9 29 C3.6 33.5 2.3 38.1 3.8 42.6 C4.1 41.9 5.4 40.9 5.8 40.2 C6.7 45.7 9 53.2 14.2 52.3 C22.1 50.8 34.8 41.2 36.6 33.7 C38.2 27.2 30.8 18.6 26.9 10.9 z" opacity="0.15" id="t1" /><path d="M11.6 28.3 C14.1 19.8 14.9 8.6 19.6 8.1 C20.7 8 22.2 9.5 23.7 12 C22.3 12.9 19.9 15.4 19.9 15.4 L20.8 18 C22.4 16.7 24.5 17.2 26 16.9 C24.8 19.9 24.5 21.9 23.3 24.9 C25.5 24.5 28.7 25.8 29.9 26.8 C24.2 26.1 19.3 28.9 17.5 34.3 C21 32.2 25.1 31.3 29.2 31.7 C27.7 32.3 26.4 33.5 25.2 34.5 C27.5 35.6 29.4 37.4 30.8 39.5 C27.8 41.4 26 42.4 21.9 45.3 C18.1 48 13.4 51.4 11.8 48.3 C9.3 44.1 10.1 33.5 11.6 28.3 z" id="u1" fill="#EFE9E6" /></g><g id="v1"><g transform="translate(87.30002, 88.49997) translate(53, 43)" id="w1"><g transform="translate(0, 9)" id="x1"><path d="M29.8 1 C33.9 0.7 37.3 1 40 1.8 C44.1 3.1 47.1 4.3 48.6 6 C50.1 7.7 52.5 11.7 53.9 15 C55.3 18.4 56 20.1 56.1 22.7 C56.2 25.3 55.9 29.5 57.7 34.6 C59.6 39.7 60 45.1 56.1 49.2 C52.2 53.3 52.5 53.8 48.6 53.6 C44.7 53.4 41.7 51.5 40 48.5 C38.3 45.5 35.1 41.9 31.5 41.5 C31.1 41.5 30.8 41.4 30.5 41.4 C30.4 41.4 30.3 41.5 30.1 41.5 L30.1 41.4 C30 41.4 29.9 41.4 29.8 41.4 C29.7 41.4 29.6 41.4 29.5 41.4 L29.5 41.5 C29.3 41.5 29.2 41.4 29.1 41.4 C28.8 41.4 28.5 41.5 28.1 41.5 C24.5 41.9 21.3 45.5 19.6 48.5 C17.9 51.5 14.9 53.4 11 53.6 C7.1 53.8 7.4 53.3 3.5 49.2 C-0.4 45.1 0 39.8 1.9 34.7 C3.8 29.6 3.5 25.4 3.5 22.8 C3.5 20.2 4.4 18.5 5.7 15.1 C7 11.7 9.6 7.7 11 6 C12.4 4.3 15.4 3.1 19.6 1.8 C22.3 1 25.7 0.7 29.8 1 z" id="y1" fill="#FAF4E8" /><path d="M43.8 52.4 C42.2 51.5 40.9 50.2 40 48.6 C38.3 45.6 35.1 42 31.5 41.6 C31.1 41.6 30.8 41.5 30.5 41.5 C30.4 41.5 30.3 41.6 30.1 41.6 L30.1 41.5 C30 41.5 29.9 41.5 29.8 41.5 C29.7 41.5 29.6 41.5 29.5 41.5 L29.5 41.6 C29.3 41.6 29.2 41.5 29.1 41.5 C28.8 41.5 28.5 41.6 28.1 41.6 C24.5 42 21.3 45.6 19.6 48.6 C19 49.7 18.2 50.7 17.2 51.4 C18.5 46.6 22 41.2 22 36.3 C22 28.9 16 20.6 17.8 15.3 C19.6 10 26.6 9.5 30.4 9.5 C34.2 9.5 38.9 9.5 41.2 14 C43.5 18.5 38.1 27.5 38.3 36.3 C38.3 42.2 42.8 47.6 43.8 52.4 z" id="z1" fill="#D8C6BA" /><path d="M19.7 48.4 C24.1 50.1 26.4 50.2 29.5 50.2 C36 50.2 39.7 48.2 39.7 48.2 C39.7 48.2 37.2 40.5 29.3 40.6 C21.5 40.6 19.7 48.4 19.7 48.4 z" id="a2" fill="#FFF" /><path d="M29.8 1 C33.9 0.7 37.3 1 40 1.8 C44.1 3.1 47.1 4.3 48.6 6 C50.1 7.7 52.5 11.7 53.9 15 C55.3 18.4 56 20.1 56.1 22.7 C56.2 25.3 55.9 29.5 57.7 34.6 C59.6 39.7 60 45.1 56.1 49.2 C52.2 53.3 52.5 53.8 48.6 53.6 C44.7 53.4 41.7 51.5 40 48.5 C37.3 49.2 35.1 50.3 29.8 50.3 C24.5 50.3 22.2 49.5 19.6 48.5 C17.4 51.8 14.9 53.4 11 53.6 C7.1 53.8 7.4 53.3 3.5 49.2 C-0.4 45.1 0 39.8 1.9 34.7 C3.8 29.6 3.5 25.4 3.5 22.8 C3.5 20.2 4.4 18.5 5.7 15.1 C7 11.7 9.6 7.7 11 6 C12.4 4.3 15.4 3.1 19.6 1.8 C22.3 1 25.7 0.7 29.8 1 z M29.8 1 C26 0.7 22.9 1 20.4 1.7 C16.5 2.9 13.8 4 12.5 5.6 C11.2 7.2 8.8 10.9 7.6 14 C6.4 17.1 5.6 18.7 5.6 21.1 C5.6 23.5 5.9 27.4 4.1 32.1 C2.3 36.8 2 41.7 5.6 45.5 C9.2 49.3 8.9 49.7 12.5 49.6 C16.1 49.5 18.9 47.7 20.4 44.9 C21.9 42.1 20.4 48.3 29 48.3 C39.2 48.3 37.6 42.2 39.2 44.9 C40.8 47.7 43.5 49.4 47.1 49.6 C50.7 49.8 50.4 49.3 54 45.5 C57.6 41.7 57.2 36.7 55.5 32 C53.8 27.3 54.1 23.4 54 21 C53.9 18.6 53.3 17 52 13.9 C50.7 10.9 48.5 7.2 47.1 5.6 C45.8 4.1 43 3 39.2 1.8 C36.7 1 33.6 0.8 29.8 1 z" fill-opacity="0.4" id="b2" /></g></g><g transform="translate(170, 179.5) scale(1.2) translate(-170, -179.5) translate(108.9, 99.09998) translate(51, 68)" id="c2"><g id="d2"><path d="M19.3 10.7 C18.9 10.3 18.2 10.4 17.8 10.8 C16.9 11.8 15.3 13 13.7 13.1 C12.8 13.1 11.9 12.7 11.1 11.9 L11.1 1.5 C11.1 0.9 10.6 0.4 10 0.4 C9.4 0.4 8.9 0.9 8.9 1.5 L8.9 11.9 C8.1 12.7 7.3 13.1 6.3 13.1 C4.7 13.1 3.1 11.9 2.2 10.8 C1.8 10.4 1.2 10.3 0.7 10.7 C0.3 11.1 0.2 11.7 0.6 12.2 C1.8 13.6 4 15.2 6.3 15.2 C7.5 15.2 8.7 14.8 9.8 13.9 C9.9 13.9 9.9 13.9 10 13.9 C10.1 13.9 10.1 13.9 10.2 13.9 C11.2 14.7 12.4 15.2 13.7 15.2 C16 15.2 18.2 13.6 19.4 12.2 C19.9 11.7 19.8 11.1 19.3 10.7 z" id="e2" fill="#282421" /></g></g><g transform="translate(170, 156.9) scale(1.3, 1.4) translate(-170, -162.9) translate(97.00002, 72.89996) translate(64, 85)" id="f2"><g id="g2"><path d="M5.3 12.9 C4.6 12.4 4.5 11.5 3.9 11 C3.3 10.4 2.1 10.2 1.6 9.5 C0.8 8.4 0.3 7.2 0.3 5.7 C0.3 2.6 2.1 0.1 9.5 0.1 C16.9 0.1 18.7 3.5 17.4 7.1 C17 8.2 16.6 9 16.1 9.7 C15.7 10.4 14.6 10.5 14.1 11 C13.3 11.8 12.9 12.8 12.4 13.1 C11.6 13.8 7.9 14.9 5.3 12.9 z" id="h2" /><path d="M9.6 1.7 C8.8 1.8 7.5 2.3 9.4 3.1 C11.3 3.9 13 3.2 14.1 5.2 C15.2 7.2 15.8 2.7 14.4 2.2 C13.9 2 13.1 1.6 12.2 1.5 C11.2 1.4 10.1 1.6 9.6 1.7 z" id="i2" fill="#FFFFFE" /></g></g><g transform="translate(102.3, 92.09996) translate(40, 35)" id="j2"><g id="k2"><path d="M17.3 3.9 C16.9 3.3 14.9 2 13.6 1.4 C10.9 0.2 8.6 1 6.3 1.9 C4.8 2.5 1.9 3.8 1.2 5.3 C0.4 6.9 0.8 8.9 1.7 10.4 C3.4 13.4 6.8 15.4 10.2 14.9 C11.7 14.7 14.8 12.4 16.6 9.5 C17.5 11 16.8 13.9 17.1 13.9 C17.5 13.9 21.4 8.8 17.3 3.9 z" id="l2" fill="#D1CDCB" /><path d="M2.7 4.7 C4.3 2.4 10.9 -0.6 13 1.3 C17.7 5.4 12.9 11.7 9.1 11.9 C5.2 12.1 0.5 7.9 2.7 4.7 z" id="m2" fill="#282421" /><path d="M8.2 3.9 C6.9 3.5 6.3 3.7 5.7 4.2 C5.1 4.7 4.7 5.6 5 6.3 C5.5 7.3 7 7.1 7.9 6.6 C8.8 6 8.8 6 10.9 5.4 C10 4.6 9.4 4.3 8.2 3.9 z" id="n2" fill="#FEFEFE" /></g></g><g transform="translate(100.2, 92.09996) translate(74, 35)" id="o2"><g id="p2"><path d="M18.9 5.2 C18.2 3.7 15.3 2.4 13.8 1.8 C11.5 0.9 9.2 0.1 6.5 1.3 C5.2 1.9 3.9 2.7 2.8 3.8 C-1.3 8.8 2.6 13.8 2.9 13.8 C3.2 13.8 2.5 10.9 3.4 9.4 C5.1 12.2 8.3 14.5 9.8 14.8 C13.2 15.3 16.6 13.3 18.3 10.3 C19.3 8.8 19.7 6.9 18.9 5.2 z" id="q2" fill="#D1CDCB" /><path d="M17.5 4.7 C15.9 2.4 9.3 -0.6 7.2 1.3 C2.5 5.4 7.3 11.7 11.1 11.9 C15 12.1 19.7 7.9 17.5 4.7 z" id="r2" fill="#282421" /><path d="M10.6 3.5 C9.3 3.1 8.7 3.3 8.1 3.8 C7.5 4.3 7.1 5.2 7.4 5.9 C7.9 6.9 9.4 6.7 10.3 6.2 C11.2 5.6 11.2 5.6 13.3 5 C12.4 4.2 11.9 3.9 10.6 3.5 z" id="s2" fill="#FEFEFE" /></g></g></g></g></g></g><defs><g transform="translate(17.09519, 0.800995) translate(-135.2952, -293.601)" id="t2" fill="#000"><path d="M118.2 302.7 C118.4 307.4 132.5 311.2 149.8 311.2 C167.1 311.2 181.2 307.4 181.4 302.7 C181.4 307.5 181.4 310.1 181.4 310.5 C181.4 315.3 167.3 319.1 149.8 319.1 C132.3 319.1 118.2 315.2 118.2 310.5 L118.2 302.7 L118.2 302.7 z" fill-opacity="0.4528" id="u2" fill="#593001" /><path d="M118.7 301.7 C118.9 306.4 133 310.2 150.3 310.2 C167.6 310.2 181.7 306.4 181.9 301.7 C181.9 306.5 181.9 309.1 181.9 309.5 C181.9 314.3 167.8 318.1 150.3 318.1 C132.8 318.1 118.7 314.2 118.7 309.5 L118.7 301.7 L118.7 301.7 z" id="v2" fill="#DA8113" /><linearGradient x1="46.0545" y1="-118.6926" x2="45.4656" y2="-118.6926" gradientUnits="userSpaceOnUse" gradientTransform="matrix(117.135, 0, 0, 28.4634, -5208.417, 3687.795)" id="w2"><stop offset="0%" stop-color="#D9952A" stop-opacity="1" /><stop offset="6.438854%" stop-color="#CA7519" stop-opacity="1" /><stop offset="30.54%" stop-color="#E3AD3A" stop-opacity="1" /><stop offset="51.05%" stop-color="#FFEC91" stop-opacity="1" /><stop offset="68.8%" stop-color="#E9BD44" stop-opacity="1" /><stop offset="86.24%" stop-color="#FFED6C" stop-opacity="1" /><stop offset="93.87%" stop-color="#F2D353" stop-opacity="1" /><stop offset="100%" stop-color="#F2B947" stop-opacity="1" /></linearGradient><path d="M118.2 301.6 C118.4 306.1 132.7 309.7 150.3 309.7 C167.9 309.7 182.2 306.1 182.4 301.6 C182.4 306.2 182.4 308.7 182.4 309 C182.4 313.5 168 317.2 150.3 317.2 C132.6 317.2 118.2 313.5 118.2 309 L118.2 301.6 L118.2 301.6 z" id="x2" style="fill:url(#w2)" /><linearGradient x1="45.4914" y1="-117.9547" x2="45.9407" y2="-117.5895" gradientUnits="userSpaceOnUse" gradientTransform="matrix(115.425, 0, 0, 29.925, -5125.077, 3826.124)" id="y2"><stop offset="0%" stop-color="#F4E072" stop-opacity="1" /><stop offset="100%" stop-color="#DB9427" stop-opacity="1" /></linearGradient><ellipse cx="150.3" cy="301.5" rx="31.6" ry="8.2" id="z2" style="fill:url(#y2)" /><linearGradient x1="45.4656" y1="-126.0065" x2="46.0545" y2="-126.0065" gradientUnits="userSpaceOnUse" gradientTransform="matrix(117.135, 0, 0, 18.6219, -5208.417, 2651.479)" id="a3"><stop offset="0%" stop-color="#D9952A" stop-opacity="1" /><stop offset="6.438854%" stop-color="#CA7519" stop-opacity="1" /><stop offset="30.54%" stop-color="#E3AD3A" stop-opacity="1" /><stop offset="51.05%" stop-color="#FFEC91" stop-opacity="1" /><stop offset="68.8%" stop-color="#E9BD44" stop-opacity="1" /><stop offset="86.24%" stop-color="#FFED6C" stop-opacity="1" /><stop offset="93.87%" stop-color="#F2D353" stop-opacity="1" /><stop offset="100%" stop-color="#F2B947" stop-opacity="1" /></linearGradient><path d="M119.2 299.9 C119 300.2 118.9 300.6 118.9 301 C118.9 305.5 132.9 309.2 150.3 309.2 C167.7 309.2 181.7 305.5 181.7 301 C181.7 300.6 181.6 300.3 181.4 299.9 C182 300.5 182.4 301.2 182.4 301.9 C182.4 306.4 168 310.1 150.3 310.1 C132.6 310.1 118.2 306.4 118.2 301.9 C118.2 301.3 118.6 300.6 119.2 299.9 z" id="b3" style="fill:url(#a3)" /><linearGradient x1="45.196" y1="-121.5895" x2="45.3746" y2="-120.6758" gradientUnits="userSpaceOnUse" gradientTransform="matrix(101.745, 0, 0, 23.94, -4458.332, 3199.41)" id="c3"><stop offset="0%" stop-color="#F8DD61" stop-opacity="1" /><stop offset="100%" stop-color="#EAA330" stop-opacity="1" /></linearGradient><ellipse cx="150.3" cy="300.8" rx="27.8" ry="6.6" id="d3" style="fill:url(#c3)" /><linearGradient x1="45.5694" y1="-134.267" x2="45.0221" y2="-134.267" gradientUnits="userSpaceOnUse" gradientTransform="matrix(101.745, 0, 0, 13.2525, -4458.332, 2077.223)" id="e3"><stop offset="0%" stop-color="#F4CA2F" stop-opacity="1" /><stop offset="51.38%" stop-color="#BF7737" stop-opacity="1" /><stop offset="100%" stop-color="#E4A929" stop-opacity="1" /></linearGradient><path d="M122.6 301.5 C122.5 301.3 122.4 301 122.4 300.8 C122.4 297.2 134.9 294.2 150.2 294.2 C165.5 294.2 178 297.1 178 300.8 C178 301 177.9 301.3 177.8 301.5 C176.3 298.2 164.5 295.6 150.1 295.6 C135.7 295.6 124.1 298.2 122.6 301.5 z" id="f3" style="fill:url(#e3)" /></g></defs><desc>4JJODFBAID4,ZXcjEObW1XWTQ7g3mmemEdRifgxbHALkF+t6t/ByToTXUaTYUUjWebf6haj6STtwbCcCHoPZdShLAZFnfvjimg==</desc></svg>