<?xml version="1.0" encoding="utf-8"?><!DOCTYPE svg PUBLIC "-//W3C//DTD SVG 1.1//EN" "http://www.w3.org/Graphics/SVG/1.1/DTD/svg11.dtd"><svg x="0" y="0" width="340px" height="340px" viewBox="0, 0, 340, 340" preserveAspectRatio="xMidYMid" font-size="0" id="a" enable-background="new 0 0 340 340" xmlns="http://www.w3.org/2000/svg" xmlns:xlink="http://www.w3.org/1999/xlink" xmlns:xml="http://www.w3.org/XML/1998/namespace" version="1.1"><g id="b" fill="#000"><g id="c"><g transform="translate(0, 0) translate(0, 224)" id="d"><ellipse cx="168.6" cy="53.1" rx="57.8" ry="12.8" fill-opacity="0.25" id="e" /></g><g id="f"><g transform="translate(118.2, 111.3) translate(13, 118.5) scale(-1, 1) translate(-13, -118.5) translate(0, 96)" id="g"><g id="h"><path d="M20.6 11.4 C22.5 12.3 22.3 15.9 21.6 17.9 C18.7 25.8 15.6 34.5 11.6 40.9 C10.5 42.7 7.1 47 2.8 43.1 C-1.5 39.2 3 33.1 4.4 30.2 C7.5 23.6 11.9 19.3 15.9 12.9 C16.7 11.5 17.9 10.2 20.6 11.4 z" id="i" fill="#66493D" /><path d="M18.7 8.1 C20.6 4.4 22.5 -0.3 25.2 1 C27.1 1.9 25 9.2 23.9 12.2 C23.1 14.1 22.4 16.2 21.6 18.3 C20 15 18.2 12.9 16 13.1 C16.7 11.5 17.7 9.9 18.7 8.1 z" id="j" fill="#EFE9E6" /><path d="M21.5 18.1 C18.6 26 15.6 34.6 11.6 40.9 C10.5 42.7 7.1 47 2.8 43.1 C-1.5 39.2 3 33.1 4.4 30.2 C7.5 23.6 11.9 19.3 15.9 12.9 C16.1 12.6 16.3 12.2 16.5 12 C17.2 10.7 17.9 9.5 18.7 8.1 C20.6 4.4 22.5 -0.3 25.2 1 C27.1 1.9 25 9.2 23.9 12.2 C23.1 14.1 22.4 16.2 21.6 18.3 C21.6 18.2 21.5 18.2 21.5 18.1 z M19.6 19.2 C21.2 16.5 22.2 14.6 22.6 13.5 C23.6 10.8 25.8 4.9 24.5 2.5 C22.8 -0.6 20.5 6.5 18.9 9.8 C18.2 11 17.4 12.4 16.9 13.5 C16.7 13.7 14.9 16.5 14.7 16.8 C11.2 22.4 8.2 23.5 5.5 29.3 C4.3 31.8 0.3 37.2 4.1 40.6 C7.9 44.1 8.8 39.4 9.8 37.8 C13.2 32.3 17.1 26.1 19.6 19.2 z" opacity="0.15" id="k" /></g></g><g transform="translate(133.5, 276) scale(1.30102) translate(-133.5, -276) translate(135.1, 277.6) scale(1) translate(-129.1, -277.6) translate(113.9, 109.5) translate(7, 133)" id="l"><g transform="translate(14.5, 18.5) scale(-1, 1) translate(-14.5, -18.5)" id="m"><path d="M10.9 1.8 C19.7 -2.5 29.1 6.3 28.7 13.6 C28.4 21.8 22.8 28.1 12.2 32.4 C4.7 34.3 0.7 34.5 0.5 33 C0 30.7 2.1 6.1 10.9 1.8 z" id="n" fill="#AA6F4F" /><path d="M25.5 33.3 C24.2 35.1 22.3 35.9 20.6 36.1 C18.9 36.3 12.9 35.8 11 36.1 C9 36.4 6.2 35.9 6.2 34.2 C6.2 32.5 4.8 27.4 10.5 25.2 C10.9 25.1 12.7 22.4 13.1 22.2 C13.6 22 12.6 24.3 13.1 24.1 C14.2 23.5 15.3 22.8 16.1 21.9 C16.4 21.5 16.7 24.4 17.2 24.4 C17.5 24.4 18.4 23.7 18.6 23.1 C18.8 22.6 18.6 24.6 18.9 24.7 C20.7 25.1 22.1 25.8 22.7 26.2 C25.1 27.9 26.8 31.6 25.5 33.3 z" id="o" fill="#FFF" /><path d="M20.6 25.9 C25.1 22.4 27.6 18.1 27.7 12.9 C28.1 6.1 19.3 -2.1 11.1 1.9 C2.9 5.9 1 28.9 1.4 31 C1.5 32 3.3 32.2 6.7 31.6 C6.7 31.8 6.7 31.9 6.7 32.1 C6.7 33.7 9.3 34.2 11.2 33.9 C13 33.6 18.6 34.1 20.2 33.9 C21.8 33.7 23.6 33 24.8 31.3 C26 29.7 22.9 27.5 20.6 25.9 z M22.6 26.2 C22.7 26.2 22.7 26.2 22.6 26.2 C25.1 27.9 26.8 31.6 25.5 33.3 C24.2 35.1 22.3 35.9 20.6 36.1 C18.9 36.3 12.9 35.8 11 36.1 C9 36.4 6.2 35.9 6.2 34.2 C6.2 34.1 6.2 33.9 6.2 33.7 C2.6 34.3 0.6 34 0.5 33 C0 30.7 2.1 6.1 10.9 1.8 C19.7 -2.5 29.1 6.3 28.7 13.6 C28.5 18.5 26.5 22.7 22.6 26.2 z" opacity="0.15" id="p" /></g></g><g transform="translate(206.4, 275.9999) scale(1.30102) translate(-206.4, -275.9999) translate(204.8, 277.5999) scale(1) translate(-210.8, -277.5999) translate(104.8, 109.5) translate(99, 151.5) scale(-1, 1) translate(-99, -151.5) translate(84, 133)" id="q"><g transform="translate(15, 18.5) scale(-1, 1) translate(-15, -18.5)" id="r"><path d="M11.2 1.8 C20 -2.5 29.4 6.3 29 13.6 C28.6 21.8 23.1 28.1 12.5 32.4 C5 34.3 1 34.5 0.8 33 C0.3 30.7 2.4 6.1 11.2 1.8 z" id="s" fill="#AA6F4F" /><path d="M25.8 33.3 C24.5 35.1 22.6 35.9 20.9 36.1 C19.2 36.3 13.2 35.8 11.3 36.1 C9.3 36.4 6.5 35.9 6.5 34.2 C6.5 32.5 5.1 27.4 10.8 25.2 C11.2 25.1 11.7 25.1 11.9 24.8 C13.3 22.7 14.6 21.1 15.1 20.9 C16.1 20.6 15 24.2 15.8 24.2 C16.3 24.2 17 23.2 18.1 22.4 C19.2 21.6 17.9 24.3 18.4 24.4 C20.4 24.8 22.4 25.5 23 26 C25.4 27.9 27.1 31.6 25.8 33.3 z" id="t" fill="#FFF" /><path d="M23 26 C25.4 27.9 27 31.6 25.8 33.3 C24.5 35.1 22.6 35.9 20.9 36.1 C19.2 36.3 13.2 35.8 11.3 36.1 C9.3 36.4 6.5 35.9 6.5 34.2 C6.5 34.1 6.5 33.9 6.5 33.7 C2.9 34.3 0.9 34 0.8 33 C0.3 30.7 2.4 6.1 11.2 1.8 C20 -2.5 29.4 6.3 29 13.6 C28.8 18.4 26.8 22.6 23 26 z M21.1 25.8 C25.6 20.2 27.9 15.9 28 13 C28.4 6.2 19.6 -2 11.5 2 C3.4 6 1.3 28.8 1.8 31 C1.9 32 3.7 32.2 7.1 31.6 C7.1 31.8 7.1 31.9 7.1 32.1 C7.1 33.7 9.7 34.1 11.6 33.9 C13.4 33.6 18.9 34.1 20.5 33.9 C22.1 33.7 23.8 33 25.1 31.3 C26.2 29.7 23.3 27.6 21.1 25.8 z" opacity="0.15" id="u" /></g></g><g transform="translate(110.3, 106.6) translate(17, 79)" id="v"><path d="M63.5 11.3 C58.1 -1.5 54.6 0 42.5 0.5 L42.5 0.6 L42.5 0.5 C30.4 0 26.9 -1.4 21.5 11.3 C16.7 22.7 8.3 27.6 8.3 47.7 C8.3 61.3 10.5 83 18 88.2 C26.3 93.9 36.9 92.9 42.5 92.9 L42.5 92.8 L42.5 92.9 C48.1 92.9 58.7 93.9 67 88.2 C74.5 83.1 76.7 61.3 76.7 47.7 C76.7 27.6 68.3 22.7 63.5 11.3 z" id="w" fill="#EBB67F" /><path d="M63.5 11.3 C68.3 22.7 76.7 27.6 76.7 47.7 C76.7 61.3 74.5 83.1 67 88.2 C58.7 93.9 48.1 92.9 42.5 92.9 L42.5 92.8 L42.5 92.9 C36.9 92.9 26.3 93.9 18 88.2 C10.5 83 8.3 61.3 8.3 47.7 C8.3 27.6 16.7 22.7 21.5 11.3 C26.9 -1.4 30.4 0 42.5 0.5 L42.5 0.6 L42.5 0.5 C54.6 0 58.1 -1.5 63.5 11.3 z M62.4 11.2 C57.3 -0.9 53.9 0.5 42.5 1 L42.5 1.1 L42.5 1 C31.1 0.5 27.7 -0.8 22.6 11.2 C18.1 22 10.1 26.6 10.1 45.6 C10.1 58.5 12.2 79 19.3 83.9 C27.2 89.3 37.2 88.3 42.5 88.3 L42.5 88.2 L42.5 88.3 C47.8 88.3 57.8 89.2 65.7 83.9 C72.8 79.1 74.9 58.5 74.9 45.6 C74.8 26.6 66.9 22 62.4 11.2 z" opacity="0.15" id="x" /></g><g transform="translate(138.9341, 198.45) scale(0.914892, 1.107793) translate(-136.1, -197.1) translate(103.4, 88.49997) translate(66, 147) scale(-1, 1) translate(-66, -147) translate(32, 108)" id="y"><path d="M58 67.2 C54.9 66.3 50.1 67.4 47.5 69.2 C46.3 70.1 43.1 73.1 44.9 74.9 C46.8 76.8 51.7 77.5 53.9 77.5 C56.6 77.6 62 76.9 64 73.6 C65.4 71.5 61.9 68.4 58 67.2 z" id="z" fill="#C6A67D" /><path d="M9.2 67.2 C12.3 66.3 17.1 67.4 19.7 69.2 C20.9 70.1 24.1 73.1 22.3 74.9 C20.4 76.8 15.5 77.5 13.3 77.5 C10.6 77.6 5.2 76.9 3.2 73.6 C1.8 71.5 5.3 68.4 9.2 67.2 z" id="a1" fill="#C6A67D" /><path d="M58 67.2 C54.9 66.3 50.1 67.4 47.5 69.2 C46.3 70.1 43.1 73.1 44.9 74.9 C46.8 76.8 51.7 77.5 53.9 77.5 C56.6 77.6 62 76.9 64 73.6 C65.4 71.5 61.9 68.4 58 67.2 z" opacity="0.15" id="b1" /><path d="M9.2 67.2 C12.3 66.3 17.1 67.4 19.7 69.2 C20.9 70.1 24.1 73.1 22.3 74.9 C20.4 76.8 15.5 77.5 13.3 77.5 C10.6 77.6 5.2 76.9 3.2 73.6 C1.8 71.5 5.3 68.4 9.2 67.2 z" opacity="0.15" id="c1" /><path d="M57.6 65.7 C54.8 64.9 50.5 65.9 48.2 67.5 C47.1 68.3 44.3 71 45.9 72.6 C47.6 74.3 52 74.9 54 74.9 C56.4 75 61.2 74.4 63 71.4 C64.2 69.6 61.1 66.8 57.6 65.7 z" opacity="0.15" id="d1" /><path d="M9.4 64.2 C12.3 63.3 16.9 64.4 19.3 66.2 C20.4 67.1 23.5 70.1 21.8 71.9 C20 73.8 15.4 74.5 13.3 74.5 C10.8 74.6 5.7 73.9 3.8 70.6 C2.4 68.5 5.7 65.4 9.4 64.2 z" opacity="0.15" id="e1" /><path d="M2.6 66.8 C2.1 65.9 1.5 64.7 1.2 64.1 C2.9 62.5 5.8 58.5 6.5 53.5 C8 41.8 9.8 28.1 12.5 23.9 C18 15.1 28.4 24.8 33.7 24.8 C39 24.8 49.4 15.2 54.9 23.9 C57.6 28.2 59.4 41.8 60.9 53.5 C61.6 59.1 64.5 62.5 66.2 64.1 C65.9 64.7 65.2 65.9 64.8 66.8 C65.6 68.3 66.4 69.8 67.3 71.6 C65.9 71.7 65 71.6 64.2 71.3 C63.8 70.6 63.2 69.9 62.3 69.3 C61.9 70.2 61.5 71.4 61 72.7 C59.4 70.5 57.3 69.6 56.1 67.7 C54.9 69.8 52.8 71.8 51.6 73.4 C50.5 73.3 49.3 73.2 48.2 73.2 C48.4 72.7 48.6 72.3 48.8 71.8 C47.4 72.2 45.6 74.5 41.3 73.6 C42.1 73.1 42.5 71.7 42.9 69.8 C41.9 70.5 40.9 71 39.8 71.3 C42.4 67.3 44.4 63.4 44.7 58.6 C45.2 49.9 45.2 46 34 45.7 C22.8 46 22.8 49.9 23.3 58.6 C23.6 63.4 25.6 67.3 28.2 71.3 C27.1 71 26 70.4 25.1 69.8 C25.5 71.7 25.9 73.1 26.7 73.6 C23.3 74.6 20.5 72.2 19.2 71.8 C19.4 72.3 19.6 72.7 19.8 73.2 C18.7 73.3 17.5 73.4 16.4 73.4 C15.2 71.7 13 69.8 11.9 67.7 C10.7 69.6 8.7 70.5 7 72.7 C6.5 71.3 6 70.2 5.7 69.3 C4.9 69.9 4.2 70.6 3.8 71.3 C3 71.6 2.1 71.7 0.7 71.6 C1 69.8 1.9 68.3 2.6 66.8 z" id="f1" fill="#F9F9F9" /><path d="M2.6 66.8 C2.1 65.9 1.5 64.7 1.2 64.1 C2.9 62.5 5.8 58.5 6.5 53.5 C8 41.8 9.8 28.1 12.5 23.9 C18 15.1 28.4 24.8 33.7 24.8 C39 24.8 49.4 15.2 54.9 23.9 C57.6 28.2 59.4 41.8 60.9 53.5 C61.6 59.1 64.5 62.5 66.2 64.1 C65.9 64.7 65.2 65.9 64.8 66.8 C65.6 68.3 66.4 69.8 67.3 71.6 C65.9 71.7 65 71.6 64.2 71.3 C63.8 70.6 63.2 69.9 62.3 69.3 C61.9 70.2 61.5 71.4 61 72.7 C59.4 70.5 57.3 69.6 56.1 67.7 C54.9 69.8 52.8 71.8 51.6 73.4 C50.5 73.3 49.3 73.2 48.2 73.2 C48.4 72.7 48.6 72.3 48.8 71.8 C47.4 72.2 45.6 74.5 41.3 73.6 C42.1 73.1 42.5 71.7 42.9 69.8 C41.9 70.5 40.9 71 39.8 71.3 C42.4 67.3 44.4 63.4 44.7 58.6 C45.2 49.9 45.2 46 34 45.7 C22.8 46 22.8 49.9 23.3 58.6 C23.6 63.4 25.6 67.3 28.2 71.3 C27.1 71 26 70.4 25.1 69.8 C25.5 71.7 25.9 73.1 26.7 73.6 C23.3 74.6 20.5 72.2 19.2 71.8 C19.4 72.3 19.6 72.7 19.8 73.2 C18.7 73.3 17.5 73.4 16.4 73.4 C15.2 71.7 13 69.8 11.9 67.7 C10.7 69.6 8.7 70.5 7 72.7 C6.5 71.3 6 70.2 5.7 69.3 C4.9 69.9 4.2 70.6 3.8 71.3 C3 71.6 2.1 71.7 0.7 71.6 C1 69.8 1.9 68.3 2.6 66.8 z M4.6 65.4 C4 66.8 3.4 67 3.2 68.7 C4.5 68.8 4.9 68 5.6 67.7 C6 67.1 6.5 67 7.2 66.4 C7.5 67.2 7 68.3 7.5 69.6 C9 67.6 10.6 66.8 11.7 65.1 C12.7 67 15.5 69.2 16.6 70.8 C17.6 70.8 18.2 70.9 19.2 70.8 C19 70.3 20.2 69.6 20 69.2 C21.2 69.6 21.3 73.6 24.4 72.6 C23.7 72.1 23.7 70 23.4 68.3 C24.2 68.8 24.6 68.7 25.6 69 C23.2 65.4 22.3 58.4 22 54.1 C21.5 46.2 24.8 44.7 35.1 44.4 C45.3 44.7 46.5 49.5 46.1 57.4 C45.8 61.8 44.5 65.4 42.1 69 C43.1 68.7 43.6 68.9 44.5 68.3 C44 70 44 71.7 43.2 72.2 C47.1 73 47.1 69.3 48.3 69 C48.1 69.5 49.5 70.4 49.3 70.8 C50.3 70.8 51 70.3 52 70.4 C53.1 68.9 54.2 66.5 55.3 64.6 C56.4 66.3 57.4 68 58.9 70 C59.4 68.8 59.7 67.7 60.1 66.9 C60.9 67.4 62 67.6 62.4 68.3 C63.1 68.6 63.4 69.1 64.7 69 C63.9 67.4 63.2 66 62.4 64.6 C62.8 63.8 63.3 63.7 63.6 63.2 C62.1 61.7 59.5 57.6 58.9 52.5 C57.5 41.8 55.9 29.4 53.4 25.5 C48.4 17.6 38.9 26.3 34.1 26.3 C29.3 26.3 19.8 17.5 14.8 25.5 C12.3 29.3 10.7 41.8 9.3 52.5 C8.6 57 5 62 3.5 63.5 C3.8 64 4.2 64.6 4.6 65.4 z" opacity="0.15" id="g1" /><path d="M4.1 23.4 C4.4 21.6 4.9 19.8 5.3 18.1 C6.4 13.9 10.3 8 13.2 5.9 C20.9 0.6 28.6 1 33.8 1 C39 1 46.3 0.6 54 5.9 C57 7.9 60.8 13.9 61.9 18.1 C62.4 19.8 62.8 21.6 63.1 23.4 C64 26.4 65.8 41.9 66 43.5 C65.6 45.4 63.8 46.4 62.1 47.4 C61.9 46.8 61.5 44.8 61.1 42.9 C60.5 44.6 60 46.3 59.5 48.4 C58.3 47.1 56.5 43.6 55.3 42.3 C56.1 46.2 52.5 50.3 48.6 50 C48.4 47.8 48.3 45.5 48.1 43.3 C46.9 44.8 45.7 46.3 44.5 47.9 C44.6 46.6 44.5 44.8 44 43.6 C42.4 39.6 36.6 38.2 33.4 38.2 C30.2 38.2 24.1 38.8 22.8 43.6 C22.4 44.9 22.3 46.6 22.4 47.9 C21.2 46.4 20 44.9 18.8 43.3 C18.6 45.5 18.5 47.8 18.3 50 C14.3 50.3 10.7 46.1 11.6 42.3 C10.4 43.6 8.6 47.1 7.4 48.4 C6.9 46.4 6.4 44.6 5.8 42.9 C5.4 44.9 5.1 46.9 4.8 47.4 C3.1 46.5 1.3 45.4 0.9 43.5 C1.4 42 3.1 26.4 4.1 23.4 z" id="h1" fill="#66493D" /><path d="M4.1 23.4 C4.4 21.6 4.9 19.8 5.3 18.1 C6.4 13.9 10.3 8 13.2 5.9 C20.9 0.6 28.6 1 33.8 1 C39 1 46.3 0.6 54 5.9 C57 7.9 60.8 13.9 61.9 18.1 C62.4 19.8 62.8 21.6 63.1 23.4 C64 26.4 65.8 41.9 66 43.5 C65.6 45.4 63.8 46.4 62.1 47.4 C61.9 46.8 61.5 44.8 61.1 42.9 C60.5 44.6 60 46.3 59.5 48.4 C58.3 47.1 56.5 43.6 55.3 42.3 C56.1 46.2 52.5 50.3 48.6 50 C48.4 47.8 48.3 45.5 48.1 43.3 C46.9 44.8 45.7 46.3 44.5 47.9 C44.6 46.6 44.5 44.8 44 43.6 C42.4 39.6 36.6 38.2 33.4 38.2 C30.2 38.2 24.1 38.8 22.8 43.6 C22.4 44.9 22.3 46.6 22.4 47.9 C21.2 46.4 20 44.9 18.8 43.3 C18.6 45.5 18.5 47.8 18.3 50 C14.3 50.3 10.7 46.1 11.6 42.3 C10.4 43.6 8.6 47.1 7.4 48.4 C6.9 46.4 6.4 44.6 5.8 42.9 C5.4 44.9 5.1 46.9 4.8 47.4 C3.1 46.5 1.3 45.4 0.9 43.5 C1.4 42 3.1 26.4 4.1 23.4 z M6.5 22.6 C5.2 25.1 2.9 39 2.5 40.5 C2.9 42.2 2.5 43.8 4.1 44.6 C4.4 44.1 5 41.3 5.4 39.5 C6 41.1 7.5 42.8 8 44.6 C9.1 43.4 11.2 40.7 12.3 39.5 C11.5 43 13.2 47.3 16.9 47 C17.1 45 17.5 41.9 17.7 39.9 C18.8 41.4 20.4 43.2 21.5 44.6 C21.4 43.4 22.3 41.1 22.7 39.9 C23.9 35.5 30.5 36.1 33.5 36.1 C36.5 36.1 41.8 36.2 43.3 39.9 C43.8 41 45.8 43.4 45.7 44.6 C46.8 43.1 48.2 41.3 49.3 39.9 C49.5 41.9 49.8 45.5 50 47.5 C53.6 47.8 54.9 42.4 54.2 38.8 C55.3 40 57.9 43.7 59 44.9 C59.5 43 60 40.8 60.5 39.2 C60.9 40.9 62.3 42.8 62.5 43.4 C64.1 42.5 63.8 42.2 64.2 40.5 C64 39 61.6 25.3 60.8 22.6 C60.5 20.9 60.2 19.3 59.7 17.7 C58.7 13.8 55.2 8.3 52.4 6.5 C45.2 1.6 38.5 2 33.8 2 C29.1 2 21.9 1.6 14.9 6.5 C12.2 8.4 8.7 13.8 7.6 17.7 C7.2 19.3 6.8 20.9 6.5 22.6 z" opacity="0.15" id="i1" /></g></g><g transform="translate(169.6, 190.7) scale(0.7898307) translate(-169.6, -190.7)" id="j1"><g transform="translate(103.5, 77.59997) translate(19, 30)" id="k1"><path d="M89.8 37.3 C91.3 38.6 92.8 39.9 94.3 41.2 C93.1 30.1 89.9 20.2 82 12.2 C73.1 1.4 58.2 0.7 47.4 0.7 C37.1 0.7 23.1 1.3 14.1 10.7 C4.2 19.9 1.7 29.4 0.4 41.2 C1.9 39.9 3.4 38.6 4.9 37.3 C4.9 38 4.9 38.7 4.9 39.4 C0.9 46.4 0.4 54.5 0.4 54.5 C0.4 54.5 2.1 58.7 3.5 59.6 C4 59.9 4.7 59.3 4.9 58.7 C4.1 62.1 3.5 63.4 6.8 71 C7.9 69.5 8.3 69.1 9 67.9 C10.7 74.9 10.6 72.8 12.4 79.8 C12.8 77.9 13.6 77.4 14.3 76.8 C15.8 78.6 17.4 80.2 19.3 81.5 C20.8 83.8 22.8 85.8 25.4 88.3 C26.8 88.2 28.1 88.1 29.4 87.9 C28.8 87.2 28.3 86.5 27.7 85.7 C28.1 85.8 28.6 86 29 86.1 C32.4 88.1 36.3 89.3 40.3 89.3 C40.1 88.9 39.9 88.4 39.7 88 C42.1 88.2 44.6 88.3 47.3 88.3 C50 88.3 52.5 88.2 54.9 88 C54.7 88.4 54.5 88.9 54.3 89.3 C58.2 89.2 62.1 88.1 65.5 86.1 C66 86 66.4 85.8 66.9 85.7 C66.3 86.4 65.8 87.1 65.2 87.9 C66.5 88.1 67.8 88.2 69.1 88.4 C71.8 85.9 73.7 83.8 75.3 81.6 C76.3 80.9 77.2 80.1 78 79.3 C78.6 78.7 79.2 78.1 79.8 77.4 C80.5 78.4 81.2 79 82.2 79.8 C83.9 72.8 83.8 74.9 85.6 67.9 C86.3 69.1 86.7 69.6 87.8 71 C91.1 63.4 90.5 62.1 89.7 58.7 C90 59.2 90.7 59.9 91.1 59.6 C92.5 58.7 94.2 54.5 94.2 54.5 C94.2 54.5 93.2 45.9 89.7 39.4 C89.8 38.7 89.8 37.9 89.8 37.3 z" id="l1" fill="#EBB67F" /><path d="M89.8 37.3 C89.8 37.9 89.8 38.7 89.7 39.4 C93.2 45.9 94.2 54.5 94.2 54.5 C94.2 54.5 92.5 58.7 91.1 59.6 C90.7 59.9 90 59.2 89.7 58.7 C90.5 62.1 91.1 63.4 87.8 71 C86.7 69.6 86.3 69.1 85.6 67.9 C83.8 74.9 83.9 72.8 82.2 79.8 C81.2 79 80.5 78.4 79.8 77.4 C79.2 78.1 78.6 78.7 78 79.3 C77.2 80.1 76.3 80.9 75.3 81.6 C73.7 83.8 71.8 85.9 69.2 88.3 L69.1 88.4 C67.8 88.2 66.5 88.1 65.2 87.9 C65.8 87.1 66.3 86.4 66.9 85.7 C66.4 85.8 66 86 65.5 86.1 C62.1 88.1 58.2 89.2 54.3 89.3 C54.5 88.9 54.7 88.4 54.9 88 C52.5 88.2 50 88.3 47.3 88.3 C44.6 88.3 42.1 88.2 39.7 88 C39.9 88.4 40.1 88.9 40.3 89.3 C36.3 89.3 32.4 88.1 29 86.1 C28.6 86 28.1 85.8 27.7 85.7 C28.3 86.5 28.8 87.2 29.4 87.9 C28.1 88.1 26.8 88.2 25.5 88.4 L25.4 88.3 C22.8 85.8 20.8 83.8 19.3 81.5 C17.4 80.2 15.8 78.6 14.3 76.8 C13.6 77.4 12.8 77.9 12.4 79.8 C10.6 72.8 10.7 74.9 9 67.9 C8.3 69.1 7.9 69.5 6.8 71 C3.5 63.4 4.1 62.1 4.9 58.7 C4.7 59.3 4 59.9 3.5 59.6 C2.1 58.7 0.4 54.5 0.4 54.5 C0.4 54.5 0.9 46.4 4.9 39.4 C4.9 38.7 4.9 38 4.9 37.3 C3.4 38.6 1.9 39.9 0.4 41.2 C1.7 29.4 4.2 19.9 14.1 10.7 C23.1 1.3 37.1 0.7 47.4 0.7 C58.2 0.7 73.1 1.4 82 12.2 C89.9 20.2 93.1 30.1 94.3 41.2 C92.8 39.9 91.3 38.6 89.8 37.3 z M88.1 34.2 C89.5 35.4 91 35.8 92.4 37 C91.2 26.6 88.3 19.7 80.7 12.1 C72.1 2 57.8 1.4 47.4 1.4 C37.5 1.4 24 2 15.3 10.8 C5.8 19.5 3.4 26.7 2.1 37.8 C3.5 36.6 5 35.5 6.4 34.2 C6.4 34.9 6.4 37.1 6.4 37.8 C2.6 44.3 2.1 52 2.1 52 C2.1 52 3.3 55.1 4.7 56 C5.2 56.3 6.3 56.6 6.4 56 C5.6 59.2 4.8 59.4 8 66.5 C9.1 65.1 9.7 65.8 10.4 64.6 C12 71.2 11.6 68.7 13.3 75.3 C13.7 73.5 14.8 73.5 15.5 72.9 C16.9 74.6 18.5 76.1 20.3 77.3 C21.7 79.5 21.7 81 24.2 83.3 C25.5 83.2 26.7 83.9 27.9 83.7 C27.3 83 28.9 82 28.4 81.3 C28.8 81.4 29.3 81.6 29.7 81.7 C33 83.6 32.8 84.7 36.6 84.7 C36.4 84.3 34.7 82.9 40 83.5 C42.3 83.7 44.7 83.8 47.3 83.8 C49.9 83.8 55.2 83.1 57.5 82.9 C57.3 83.3 57 84.4 56.8 84.7 C60.6 84.6 61.6 83.6 64.8 81.7 C65.3 81.6 67.7 80.9 68.2 80.8 C67.6 81.5 66.7 83 66.2 83.8 C67.5 84 69.1 83.2 70.3 83.4 C72.9 81 72.7 79.5 74.3 77.5 C75.3 76.8 77.5 76.1 78.2 75.3 C78.8 74.7 79.5 73.1 80 72.5 C80.7 73.4 80.8 74.6 81.8 75.3 C83.4 68.7 83.3 69 85.1 62.4 C85.8 63.5 86.4 65.5 87.4 66.8 C90.6 59.7 88.9 59.1 88.1 55.9 C88.4 56.4 90 57.1 90.4 56.9 C91.7 56.1 92.4 52 92.4 52 C92.4 52 90.7 45.3 87.4 39.1 C87.5 38.4 88.1 34.8 88.1 34.2 z" opacity="0.15" id="m1" /></g><g transform="translate(103.5, 77.59996) translate(16, 0)" id="n1"><g id="o1"><path d="M27.8 10.3 C24.4 3.6 20.9 -0.6 19.4 0.1 C16.2 1.6 11.7 10.8 8.9 17.1 C4.7 22.1 0.8 27.6 0.3 34.1 C1.2 33.3 2.1 32.4 3 31.6 C1.5 36.6 1.5 42.1 3.2 47.1 C3.5 46.3 3.8 45.5 4.2 44.7 C5.2 50.9 7.8 57.6 13.6 56.5 C22.4 54.8 36.6 44.1 38.7 35.7 C40.4 28.5 32.1 18.9 27.8 10.3 z" id="p1" fill="#66493D" /><path d="M27.8 10.3 C32.1 18.9 40.4 28.5 38.7 35.7 C36.6 44.1 22.4 54.8 13.6 56.5 C7.8 57.6 5.2 50.9 4.2 44.7 C3.8 45.5 3.5 46.3 3.2 47.1 C1.5 42.1 1.5 36.6 3 31.6 C2.1 32.4 1.2 33.3 0.3 34.1 C0.8 27.6 4.7 22.1 8.9 17.1 C11.7 10.8 16.2 1.6 19.4 0.1 C20.9 -0.6 24.4 3.6 27.8 10.3 z M26.9 10.9 C23.9 4.9 20.7 1.2 19.4 1.8 C16.6 3.1 12.5 11.3 10 17 C6.2 21.5 2.8 25 2.4 30.8 C3.2 30.1 4.1 29.7 4.9 29 C3.6 33.5 2.3 38.1 3.8 42.6 C4.1 41.9 5.4 40.9 5.8 40.2 C6.7 45.7 9 53.2 14.2 52.3 C22.1 50.8 34.8 41.2 36.6 33.7 C38.2 27.2 30.8 18.6 26.9 10.9 z" opacity="0.15" id="q1" /><path d="M25 34.7 C26.2 33.7 27.6 32.5 29 31.9 C25 31.5 20.8 32.4 17.3 34.5 C19.1 29.2 23.9 26.3 29.5 27 C29.5 26.9 29.5 26.9 29.4 26.8 C28.1 25.8 25.2 24.8 23.1 25.1 C24.3 22.1 24.6 20.1 25.8 17.1 C24.4 17.4 22.3 16.9 20.6 18.2 L19.7 15.6 C19.7 15.6 22.4 12.4 23.4 12.3 C21.9 9.8 20.5 8.2 19.5 8.3 C14.8 8.8 13.9 20 11.5 28.5 C10 33.6 9.2 44.3 11.5 48.5 C13.1 51.6 18.1 45.7 21.3 44.4 C21.3 44.4 26.6 40.2 30.6 40.3 C30.7 40.3 30.8 40.3 30.9 40.2 C29.5 37.8 27.5 35.9 25 34.7 z" id="r1" fill="#AA6F4F" /></g></g><g transform="translate(103.5, 77.59996) translate(97.5, 28.5) scale(-1, 1) translate(-97.5, -28.5) translate(78, 0)" id="s1"><path d="M0.3 34.1 C0.7 27.5 4.6 22.1 8.9 17.1 C11.7 10.8 16.2 1.6 19.4 0.1 C20.9 -0.6 24.4 3.7 27.8 10.3 C32.1 18.9 40.3 28.5 38.6 35.6 C36.2 46.2 22.4 55.5 13.5 56.4 C7.7 57 5.2 50.6 4.1 44.6 C3.7 45.4 3.4 46.2 3.1 47 C1.5 42 1.4 36.5 2.9 31.5 C2.1 32.4 1.2 33.3 0.3 34.1 z" id="t1" fill="#66493D" /><path d="M27.8 10.3 C32.1 18.9 40.4 28.5 38.7 35.7 C36.6 44.1 22.4 54.8 13.6 56.5 C7.8 57.6 5.2 50.9 4.2 44.7 C3.8 45.5 3.5 46.3 3.2 47.1 C1.5 42.1 1.5 36.6 3 31.6 C2.1 32.4 1.2 33.3 0.3 34.1 C0.8 27.6 4.7 22.1 8.9 17.1 C11.7 10.8 16.2 1.6 19.4 0.1 C20.9 -0.6 24.4 3.6 27.8 10.3 z M26.9 10.9 C23.9 4.9 20.7 1.2 19.4 1.8 C16.5 3.1 12.5 11.3 10 17 C6.2 21.5 2.8 25 2.4 30.8 C3.2 30.1 4.1 29.7 4.9 29 C3.6 33.5 2.3 38.1 3.8 42.6 C4.1 41.9 5.4 40.9 5.8 40.2 C6.7 45.7 9 53.2 14.2 52.3 C22.1 50.8 34.8 41.2 36.6 33.7 C38.2 27.2 30.8 18.6 26.9 10.9 z" opacity="0.15" id="u1" /><path d="M11.6 28.3 C14.1 19.8 14.9 8.6 19.6 8.1 C20.7 8 22.2 9.5 23.7 12 C22.3 12.9 19.9 15.4 19.9 15.4 L20.8 18 C22.4 16.7 24.5 17.2 26 16.9 C24.8 19.9 24.5 21.9 23.3 24.9 C25.5 24.5 28.7 25.8 29.9 26.8 C24.2 26.1 19.3 28.9 17.5 34.3 C21 32.2 25.1 31.3 29.2 31.7 C27.7 32.3 26.4 33.5 25.2 34.5 C27.5 35.6 29.4 37.4 30.8 39.5 C27.8 41.4 26 42.4 21.9 45.3 C18.1 48 13.4 51.4 11.8 48.3 C9.3 44.1 10.1 33.5 11.6 28.3 z" id="v1" fill="#AA6F4F" /></g><g id="w1"><g transform="translate(103.5, 77.59996) translate(30, 73)" id="x1"><g transform="translate(0, 2)" id="y1"><path d="M48.4 29.6 C47.3 29 44.2 29.6 42.9 29.6 C40.7 29.6 38.6 29.7 36.4 29.7 C34.2 29.7 32.1 29.6 29.9 29.6 C28.6 29.6 25.6 29 24.4 29.6 C22.3 30.7 20.4 33 20.3 35.4 C20.1 41.5 23.8 46.4 28.9 50.8 C29.4 48 30 47.6 30.5 44.7 C31.2 50.1 35 53.3 36.3 54.1 C37.6 53.3 41.4 50.1 42.1 44.7 C42.6 47.5 43.2 47.9 43.7 50.8 C48.8 46.4 52.5 41.4 52.3 35.4 C52.4 33 50.6 30.7 48.4 29.6 z" id="z1" fill="#FFF" /><path d="M70.3 34.1 C70.9 34.6 71.7 35.1 72.5 35.4 C71.3 27.9 72.5 19.1 65.8 13.6 C64.5 12.2 62.9 10.9 61.1 9.7 C56 6.4 48.3 6.1 41.9 7.6 C39.8 6.4 39.8 0.8 35.9 0.8 C35.5 3 34.4 6.2 29.6 7.3 C23.5 6.2 16.7 6.7 11.9 9.7 C10 10.9 8.5 12.2 7.2 13.6 C0.5 19 1.7 27.9 0.5 35.4 C1.3 35.1 2.1 34.7 2.7 34.1 C3.5 37 4.7 39.6 6 41.8 C7 39.2 6.4 38.2 8 36 C7.8 37.4 9.3 43.6 9.7 44.3 C11.1 46.5 12.6 46.7 15.8 47 C15.7 42.3 15.4 43.6 15.2 40.7 C15.3 44.5 23.9 50.8 25.1 50.9 C25.1 50 16.9 32.7 25 30.4 C28.9 29.3 29.6 31.4 36.4 31.2 C43.2 31.4 43.9 29.2 47.8 30.4 C55.9 32.7 47.7 50 47.7 50.9 C49 50.8 57.5 44.6 57.6 40.7 C57.5 43.6 57.1 42.3 57 47 C60.1 46.6 61.7 46.5 63.1 44.3 C63.6 43.6 65 37.4 64.8 36 C66.5 38.2 65.8 39.3 66.8 41.8 C68.3 39.6 69.5 37 70.3 34.1 z" id="a2" fill="#F9F9F9" /><path d="M50.3 43.2 C48.8 46 46.4 48.5 43.7 50.8 C43.2 47.9 42.6 47.5 42.1 44.7 C41.4 50.1 37.6 53.3 36.3 54.1 C35 53.3 31.2 50.1 30.5 44.7 C30 47.6 29.4 48 28.9 50.8 C26.4 48.6 24.2 46.4 22.7 43.9 C23.8 47.5 25.1 50.5 25.1 50.9 C23.9 50.8 15.3 44.5 15.2 40.7 C15.4 43.6 15.7 42.3 15.8 47 C12.6 46.7 11.1 46.5 9.7 44.3 C9.3 43.6 7.8 37.4 8 36 C6.4 38.2 7 39.2 6 41.8 C4.7 39.6 3.5 37 2.7 34.1 C2.1 34.7 1.3 35.1 0.5 35.4 C1.7 27.9 0.5 19 7.2 13.6 C8.5 12.2 10 10.9 11.9 9.7 C16.7 6.7 23.5 6.2 29.6 7.3 C34.4 6.2 35.5 3 35.9 0.8 C39.8 0.8 39.8 6.4 41.9 7.6 C48.3 6.1 56 6.4 61.1 9.7 C62.9 10.9 64.5 12.2 65.8 13.6 C72.5 19.1 71.3 27.9 72.5 35.4 C71.7 35.1 70.9 34.6 70.3 34.1 C69.5 37 68.3 39.6 66.8 41.8 C65.8 39.3 66.5 38.2 64.8 36 C65 37.4 63.6 43.6 63.1 44.3 C61.7 46.5 60.1 46.6 57 47 C57.1 42.3 57.5 43.6 57.6 40.7 C57.5 44.6 49 50.8 47.7 50.9 C47.7 50.5 49.2 47.1 50.3 43.2 z M50.1 40.5 L53 37.7 C52 41.3 50.9 46.6 50.9 46.9 C52.1 46.8 59.1 40 59.2 36.5 C59.1 39.1 58.8 39.6 58.7 43.8 C61.5 43.4 60.6 43 61.9 41 C62.4 40.4 63.9 33.4 63.7 32.1 C65.2 34.1 66.4 34.8 67.4 37 C68.8 35 67.1 32.7 67.9 30.1 C68.4 30.6 70.2 31.8 70.9 32.1 C69.8 25.3 69.1 18.6 63 13.6 C61.8 12.3 60.4 11.2 58.8 10.1 C54.2 7.1 47.2 6.9 41.5 8.2 C39.6 7.1 39.6 2.1 36.1 2.1 C35.7 4.1 34.7 7 30.4 8 C24.9 7 18.8 7.5 14.4 10.2 C12.7 11.3 11.3 12.5 10.2 13.7 C4.2 18.6 3.8 24.1 2.7 30.9 C3.4 30.6 5.6 30.2 6.1 29.7 C6.8 32.3 4.4 34.2 5.6 36.1 C6.5 33.8 8.3 33.7 9.7 31.7 C9.5 33 9.8 38.9 10.2 39.5 C11.5 41.5 10.8 42.2 13.7 42.5 C13.6 38.3 14.7 37.5 14.5 34.9 C14.6 38.3 19.7 45.3 20.8 45.3 C20.8 45 22.3 42.7 21.3 39.4 C22.7 41.6 25.7 44.8 27.9 46.7 C28.4 44.2 30.8 44.2 31.2 41.6 C31.8 46.5 35.3 49.4 36.4 50.1 C37.6 49.4 41 46.5 41.6 41.6 C42.1 44.1 44 44.1 44.5 46.7 C46.9 44.8 48.7 42.9 50.1 40.5 z" opacity="0.15" id="b2" /></g></g><g transform="translate(110.8, 109.6) translate(40, 59)" id="c2"><g id="d2"><path d="M38.7 14.9 C37.7 11.9 34.2 9.9 31.4 9.4 C30.9 9.3 30.3 9.7 30.3 10.2 C30.3 10.3 30.3 10.5 30.3 10.6 C29.3 11.4 27 12 24.4 11.7 C22.9 11.6 21.6 11.1 21 10.5 L21 0.2 L18 0.2 L18 10.6 C17.3 11.1 16.2 11.5 14.7 11.6 C12.1 11.8 9.8 11.2 8.8 10.5 C8.8 10.4 8.8 10.2 8.8 10.1 C8.7 9.6 8.2 9.2 7.7 9.3 C4.9 9.7 1.4 11.8 0.4 14.8 C0.2 15.3 0.5 15.9 1 16.1 C1.1 16.1 1.2 16.2 1.3 16.2 C1.7 16.2 2.1 15.9 2.2 15.5 C2.8 13.7 5 12.2 7 11.6 C7.5 12.2 8.2 12.6 9.1 13 C12 16.5 13.4 21.9 19.5 21.9 L19.6 21.7 L19.6 21.9 C25.7 21.9 27.1 16.5 30 13 C30.9 12.7 31.6 12.2 32.1 11.6 C34.1 12.2 36.3 13.7 36.9 15.5 C37 15.9 37.4 16.2 37.8 16.2 C37.9 16.2 38 16.2 38.1 16.1 C38.6 16 38.9 15.4 38.7 14.9 z" id="e2" fill="#282421" /><path d="M24.2 13.8 C22.3 13.6 20.8 13.1 19.8 12.2 C19.7 12.2 19.5 12.2 19.4 12.2 C18.4 13 16.9 13.6 14.9 13.8 C14.7 13.8 14.4 13.8 14.1 13.8 C13.9 16.6 14.3 21.2 18.9 21.3 C24.1 21.4 24.5 18.5 24.7 13.8 C24.5 13.8 24.3 13.8 24.2 13.8 z" id="f2" fill="#D66969" /></g></g><g transform="translate(103.5, 77.59996) translate(57, 86)" id="g2"><g id="h2"><path d="M9.5 0.7 C3.4 0.7 0.3 2.6 0.2 6.7 C0.1 13.3 4.8 15.1 9.5 16.6 C14.1 15 18.9 13.2 18.8 6.7 C18.7 2.7 15.6 0.7 9.5 0.7 z" id="i2" fill="#332320" /><path d="M10.4 2.1 C8.3 2 6.2 2.3 4.3 2.9 C3.6 3.1 2.5 3.6 2.7 4.4 C3 5.8 11.1 4.3 13.8 3.7 C14 3.6 14.3 3.6 14.4 3.4 C15.5 2.5 10.9 2.1 10.4 2.1 z" id="j2" fill="#FFF" /></g></g><g transform="translate(103.5, 77.59996)" id="k2"><g transform="translate(18, 29)" id="l2"><path d="M23.6 41.6 C25.6 38.1 29.7 36 33.7 36.5 C37.7 37 41.2 39.9 42.3 43.8 C43.4 47.6 42.9 51.8 39.2 53.1 C35.8 54.4 27.9 54.9 24.5 52.9 C21 50.8 21.6 45.1 23.6 41.6 z" id="m2" fill="#AA6F4F" /><path d="M9 21.2 C15.5 14.3 18.6 13 26.7 11.8 C24 10.9 25 9.4 20.1 8.3 C23.4 5.7 26.9 7 31.1 7.1 C33.9 7.2 36.3 7 38.8 8.5 C38.9 5.8 38.7 3.1 38.3 0.5 C44.7 5.4 47.5 16 47.5 24.1 C47.5 37.4 43 52.3 41.7 50.8 C38.4 44.3 34.3 37.9 29.3 36.9 C27.4 36.5 24.3 37.6 22.7 38.8 C16.9 43.3 14.1 50.6 14.7 57.5 C13.6 57.7 12.6 57.9 11.5 58.1 C10.6 54.2 10.7 50.7 11.5 46.8 C8.3 49.2 6 52.7 4.9 56.5 C3.8 51 4.9 45 7.9 40.2 C4.4 40.8 2.5 44 1.3 47 C-0.3 40.3 3.7 26.9 9 21.2 z" id="n2" fill="#AA6F4F" /><path d="M22.8 38.9 C17.5 42.1 14.2 50.7 14.8 57.6 C13.7 57.8 12.7 58 11.6 58.2 C10.7 54.3 10.8 50.8 11.6 46.9 C8.4 49.3 6.1 52.8 5 56.6 C3.8 51.1 4.9 45.1 7.9 40.3 C4.4 40.9 2.5 44.1 1.3 47.1 C-0.3 40.3 3.7 26.9 9 21.2 C15.5 14.3 18.6 13 26.7 11.8 C24 10.9 25 9.4 20.1 8.3 C23.4 5.7 26.9 7 31.1 7.1 C33.9 7.2 36.3 7 38.8 8.5 C38.9 5.8 38.7 3.1 38.3 0.5 C44.7 5.4 47.5 16 47.5 24.1 C47.5 30.5 46.6 36.5 45.6 41.1 C44.6 46 43.6 49.4 41.1 52 C40.6 52.4 40 52.8 39.2 53.1 C35.8 54.4 27.9 54.9 24.5 52.9 C21 50.8 21.6 45.1 23.6 41.6 C24.9 39.3 27.1 37.6 29.6 36.9 C26.9 37.1 24.3 38 22.8 38.9 z M29.3 35.4 L34 36.3 C31.7 37 26.9 38.5 25.6 40.7 C23.7 44 21.9 48.7 25.2 50.7 C28.4 52.6 35.1 51.9 38.3 50.7 C39 50.4 39.6 50.1 40.1 49.7 C44.6 44.9 46.1 36 46.1 23.5 C46.1 15.9 45.3 7.3 39.3 2.7 C39.7 5.1 39.4 7.9 39.3 10.5 C37 9.1 34.7 8.5 32 8.4 C28.1 8.3 25.3 5.9 22.2 8.3 C26.8 9.3 26.4 11.4 28.9 12.2 C21.3 13.3 17.4 14.3 11.3 20.8 C6.4 26 0.8 35.9 2.3 42.3 C3.4 39.5 6.9 38.8 10.2 38.2 C7.4 42.7 4.5 46.9 5.6 52 C6.6 48.4 9.4 47.1 12.4 44.8 C11.6 48.5 11.6 51.8 12.4 55.4 C13.4 55.2 13.1 55.1 14.1 54.9 C13.5 48.4 18 40.3 22.9 37.3 C24.3 36.4 26.7 35.7 29.3 35.4 z" opacity="0.15" id="o2" /><circle cx="32.5" cy="45.2" r="6.7" id="p2" fill="#282421" /><path d="M33.4 47 C34.4 47 35.2 46.2 35.2 45.2 C35.2 44.2 34.4 43.4 33.4 43.4 C32.4 43.4 31.6 44.2 31.6 45.2 C31.6 46.2 32.4 47 33.4 47 z" id="q2" fill="#FFF" /><path d="M29.4 40.7 C30.6 40 33.1 39 33.4 40 C33.7 41.2 31.9 40.9 30.7 41.9 C29.4 43 29 43.4 28.3 44.2 C27.7 44.8 27.3 42 29.4 40.7 z" id="r2" fill="#FFF" /></g></g><g transform="translate(103.5, 77.59996) translate(67, 29)" id="s2"><g id="t2"><path d="M24.4 41.6 C22.4 38.1 18.3 36 14.3 36.5 C10.3 37 6.8 39.9 5.7 43.8 C4.6 47.6 5.1 51.8 8.8 53.1 C12.2 54.4 20.1 54.9 23.5 52.9 C27 50.8 26.4 45.1 24.4 41.6 z" id="u2" fill="#AA6F4F" /><circle cx="15.5" cy="45.2" r="6.7" id="v2" fill="#282421" /><path d="M14.6 47 C13.6 47 12.8 46.2 12.8 45.2 C12.8 44.2 13.6 43.4 14.6 43.4 C15.6 43.4 16.4 44.2 16.4 45.2 C16.4 46.2 15.6 47 14.6 47 z" id="w2" fill="#FFF" /><path d="M18.6 40.7 C17.4 40 14.9 39 14.6 40 C14.3 41.2 16.1 40.9 17.3 41.9 C18.6 43 19 43.4 19.7 44.2 C20.3 44.8 20.7 42 18.6 40.7 z" id="x2" fill="#FFF" /><path d="M38.9 21.2 C32.4 14.3 29.3 13 21.2 11.8 C23.9 10.9 22.9 9.4 27.8 8.3 C24.5 5.7 21 7 16.8 7.1 C14 7.2 11.6 7 9.1 8.5 C9 5.8 9.2 3.1 9.6 0.5 C3.2 5.4 0.4 16 0.4 24.1 C0.4 37.4 3.8 46.9 5.7 50.1 C5.8 34.3 19.9 35.7 25.1 38.8 C30.3 41.9 33.7 50.6 33.1 57.5 C34.2 57.7 35.2 57.9 36.3 58.1 C37.2 54.2 37.1 50.7 36.3 46.8 C39.5 49.2 41.8 52.7 42.9 56.5 C44.1 51 43 45 40 40.2 C43.5 40.8 45.4 44 46.6 47 C48.1 40.3 44.2 26.9 38.9 21.2 z" id="y2" fill="#AA6F4F" /><path d="M25.1 38.9 C30.4 42.1 33.7 50.7 33.1 57.6 C34.2 57.8 35.2 58 36.3 58.2 C37.2 54.3 37.1 50.8 36.3 46.9 C39.5 49.3 41.8 52.8 42.9 56.6 C44.1 51.1 43 45.1 40 40.3 C43.5 40.9 45.4 44.1 46.6 47.1 C48.2 40.3 44.2 26.9 38.9 21.2 C32.4 14.3 29.3 13 21.2 11.8 C23.9 10.9 22.9 9.4 27.8 8.3 C24.5 5.7 21 7 16.8 7.1 C14 7.2 11.6 7 9.1 8.5 C9 5.8 9.2 3.1 9.6 0.5 C3.2 5.4 0.4 16 0.4 24.1 C0.4 31.8 1.6 38.6 3 43.6 C4 47.3 5.5 50.3 6.8 52 C7.3 52.4 7.9 52.8 8.7 53.1 C12.1 54.4 20 54.9 23.4 52.9 C26.9 50.8 26.3 45.1 24.3 41.6 C23 39.3 20.8 37.6 18.3 36.9 C21.1 37.1 23.6 38 25.1 38.9 z M18.7 35.4 L14 36.3 C16.3 37 21.1 38.5 22.4 40.7 C24.3 44 26.1 48.7 22.8 50.7 C19.6 52.6 12.9 51.9 9.7 50.7 C9 50.4 8.4 50.1 7.9 49.7 C3.4 44.9 1.9 36 1.9 23.5 C1.9 15.9 2.7 7.3 8.7 2.7 C8.3 5.1 8.6 7.9 8.7 10.5 C11 9.1 13.3 8.5 16 8.4 C19.9 8.3 22.7 5.9 25.8 8.3 C21.2 9.3 21.6 11.4 19.1 12.2 C26.7 13.3 30.6 14.3 36.7 20.8 C41.7 26.2 47.3 36.1 45.8 42.5 C44.7 39.7 41.2 39 37.9 38.4 C40.7 42.9 43.6 47 42.5 52.2 C41.5 48.6 38.7 47.3 35.7 45 C36.5 48.7 36.5 52 35.7 55.6 C34.7 55.4 35 55.3 34 55.1 C34.6 48.6 30.1 40.5 25.2 37.5 C23.6 36.4 21.2 35.7 18.7 35.4 z" opacity="0.15" id="z2" /></g></g></g></g></g></g><defs><g transform="translate(17.09519, 0.800995) translate(-135.2952, -293.601)" id="a3" fill="#000"><path d="M118.2 302.7 C118.4 307.4 132.5 311.2 149.8 311.2 C167.1 311.2 181.2 307.4 181.4 302.7 C181.4 307.5 181.4 310.1 181.4 310.5 C181.4 315.3 167.3 319.1 149.8 319.1 C132.3 319.1 118.2 315.2 118.2 310.5 L118.2 302.7 L118.2 302.7 z" fill-opacity="0.4528" id="b3" fill="#593001" /><path d="M118.7 301.7 C118.9 306.4 133 310.2 150.3 310.2 C167.6 310.2 181.7 306.4 181.9 301.7 C181.9 306.5 181.9 309.1 181.9 309.5 C181.9 314.3 167.8 318.1 150.3 318.1 C132.8 318.1 118.7 314.2 118.7 309.5 L118.7 301.7 L118.7 301.7 z" id="c3" fill="#DA8113" /><linearGradient x1="46.0545" y1="-118.6926" x2="45.4656" y2="-118.6926" gradientUnits="userSpaceOnUse" gradientTransform="matrix(117.135, 0, 0, 28.4634, -5208.417, 3687.795)" id="d3"><stop offset="0%" stop-color="#D9952A" stop-opacity="1" /><stop offset="6.438854%" stop-color="#CA7519" stop-opacity="1" /><stop offset="30.54%" stop-color="#E3AD3A" stop-opacity="1" /><stop offset="51.05%" stop-color="#FFEC91" stop-opacity="1" /><stop offset="68.8%" stop-color="#E9BD44" stop-opacity="1" /><stop offset="86.24%" stop-color="#FFED6C" stop-opacity="1" /><stop offset="93.87%" stop-color="#F2D353" stop-opacity="1" /><stop offset="100%" stop-color="#F2B947" stop-opacity="1" /></linearGradient><path d="M118.2 301.6 C118.4 306.1 132.7 309.7 150.3 309.7 C167.9 309.7 182.2 306.1 182.4 301.6 C182.4 306.2 182.4 308.7 182.4 309 C182.4 313.5 168 317.2 150.3 317.2 C132.6 317.2 118.2 313.5 118.2 309 L118.2 301.6 L118.2 301.6 z" id="e3" style="fill:url(#d3)" /><linearGradient x1="45.4914" y1="-117.9547" x2="45.9407" y2="-117.5895" gradientUnits="userSpaceOnUse" gradientTransform="matrix(115.425, 0, 0, 29.925, -5125.077, 3826.124)" id="f3"><stop offset="0%" stop-color="#F4E072" stop-opacity="1" /><stop offset="100%" stop-color="#DB9427" stop-opacity="1" /></linearGradient><ellipse cx="150.3" cy="301.5" rx="31.6" ry="8.2" id="g3" style="fill:url(#f3)" /><linearGradient x1="45.4656" y1="-126.0065" x2="46.0545" y2="-126.0065" gradientUnits="userSpaceOnUse" gradientTransform="matrix(117.135, 0, 0, 18.6219, -5208.417, 2651.479)" id="h3"><stop offset="0%" stop-color="#D9952A" stop-opacity="1" /><stop offset="6.438854%" stop-color="#CA7519" stop-opacity="1" /><stop offset="30.54%" stop-color="#E3AD3A" stop-opacity="1" /><stop offset="51.05%" stop-color="#FFEC91" stop-opacity="1" /><stop offset="68.8%" stop-color="#E9BD44" stop-opacity="1" /><stop offset="86.24%" stop-color="#FFED6C" stop-opacity="1" /><stop offset="93.87%" stop-color="#F2D353" stop-opacity="1" /><stop offset="100%" stop-color="#F2B947" stop-opacity="1" /></linearGradient><path d="M119.2 299.9 C119 300.2 118.9 300.6 118.9 301 C118.9 305.5 132.9 309.2 150.3 309.2 C167.7 309.2 181.7 305.5 181.7 301 C181.7 300.6 181.6 300.3 181.4 299.9 C182 300.5 182.4 301.2 182.4 301.9 C182.4 306.4 168 310.1 150.3 310.1 C132.6 310.1 118.2 306.4 118.2 301.9 C118.2 301.3 118.6 300.6 119.2 299.9 z" id="i3" style="fill:url(#h3)" /><linearGradient x1="45.196" y1="-121.5895" x2="45.3746" y2="-120.6758" gradientUnits="userSpaceOnUse" gradientTransform="matrix(101.745, 0, 0, 23.94, -4458.332, 3199.41)" id="j3"><stop offset="0%" stop-color="#F8DD61" stop-opacity="1" /><stop offset="100%" stop-color="#EAA330" stop-opacity="1" /></linearGradient><ellipse cx="150.3" cy="300.8" rx="27.8" ry="6.6" id="k3" style="fill:url(#j3)" /><linearGradient x1="45.5694" y1="-134.267" x2="45.0221" y2="-134.267" gradientUnits="userSpaceOnUse" gradientTransform="matrix(101.745, 0, 0, 13.2525, -4458.332, 2077.223)" id="l3"><stop offset="0%" stop-color="#F4CA2F" stop-opacity="1" /><stop offset="51.38%" stop-color="#BF7737" stop-opacity="1" /><stop offset="100%" stop-color="#E4A929" stop-opacity="1" /></linearGradient><path d="M122.6 301.5 C122.5 301.3 122.4 301 122.4 300.8 C122.4 297.2 134.9 294.2 150.2 294.2 C165.5 294.2 178 297.1 178 300.8 C178 301 177.9 301.3 177.8 301.5 C176.3 298.2 164.5 295.6 150.1 295.6 C135.7 295.6 124.1 298.2 122.6 301.5 z" id="m3" style="fill:url(#l3)" /></g></defs><desc>CNOFFFFCFFD,P45/xGm1HzuRPnMs3fpQw7Klr636a0tC2j8DwQI/sGZ1N70HLdjy7vJ9gzRVeLhJ+Ssz5cb+CM44ykhlDbh3rW/LX0Dl719LjDaYoPxjByry4GMbDq/DyKBL94MGG6+3eg9XkIPaAg9wzh2ZCjhS2g==</desc></svg>