<?xml version="1.0" encoding="utf-8"?><!DOCTYPE svg PUBLIC "-//W3C//DTD SVG 1.1//EN" "http://www.w3.org/Graphics/SVG/1.1/DTD/svg11.dtd"><svg x="0" y="0" width="340px" height="340px" viewBox="0, 0, 340, 340" preserveAspectRatio="xMidYMid" font-size="0" id="a" enable-background="new 0 0 340 340" xmlns="http://www.w3.org/2000/svg" xmlns:xlink="http://www.w3.org/1999/xlink" xmlns:xml="http://www.w3.org/XML/1998/namespace" version="1.1"><g id="b" fill="#000"><g id="c"><g transform="translate(0, 0) translate(0, 224)" id="d"><ellipse cx="168.6" cy="53.1" rx="57.8" ry="12.8" fill-opacity="0.25" id="e" /></g><g id="f"><g transform="translate(101.6, 90.89999) translate(28, 148) scale(-1, 1) translate(-28, -148) translate(0, 127)" id="g"><path d="M52.1 4.6 C47.4 19.1 42.1 27 36.2 28.3 C27.3 30.2 18 29.7 13.9 24.6 C11.2 14.5 14 14.7 15.4 11.9 C16.8 9.1 16.1 4.5 9.2 4.5 C4.6 4.5 1.4 7.4 -0.2 13.3 C-1 16.7 -1.4 19.7 -1.2 22.3 C-1 26.2 0.8 36.4 8.6 40.9 C16.4 45.4 28.6 48.2 43.3 38.5 C53.1 32 56 20.7 52.1 4.6 z" id="h" fill="#725C54" /><path d="M52.1 4.6 C56 20.7 53.1 32 43.3 38.5 C28.6 48.2 16.4 45.4 8.6 40.9 C0.8 36.4 -1 26.2 -1.2 22.3 C-1.4 19.7 -1 16.7 -0.2 13.3 C1.4 7.4 4.6 4.5 9.2 4.5 C16.1 4.5 16.8 9.1 15.4 11.9 C14 14.7 11.2 14.5 13.9 24.6 C18 29.7 27.3 30.2 36.2 28.3 C42.1 27 47.4 19.1 52.1 4.6 z M51.6 9.5 C47.1 21.3 41 28.4 35.3 29.4 C26.7 30.9 18.3 30.2 14.4 26.1 C10.5 22 11.2 17.1 12.6 14.8 C14 12.5 15.5 6.3 8.8 6.3 C4.4 6.3 2.5 8.3 1 13.1 C0.2 15.9 0.3 21.1 0.5 23.2 C0.7 26.4 1.8 35.6 9.3 39.2 C16.8 42.9 25.1 46.4 39.2 38.5 C48.6 33.1 55.4 22.6 51.6 9.5 z" opacity="0.15" id="i" /></g><g transform="translate(122.4, 274.8) scale(1.387164) translate(-122.4, -274.8) translate(101.2, 77.99997) translate(14, 151)" id="j"><path d="M21.4 0.7 C15.4 0.7 10.5 1.3 7.1 4.6 C3.7 7.9 0 10.4 0.4 18.5 C0.8 26.6 3.2 33.9 10.9 36.8 C6.8 39 6.4 40.4 6.8 43.2 C7.1 45.9 6.5 46.6 14 45.9 C19 45.5 23.5 45.2 27.5 45.2 C29.2 42.4 29.8 38.9 29.3 34.7 C30.6 32.1 35 17.8 32.3 12 C29.6 6.2 27.4 0.7 21.4 0.7 z" id="k" fill="#513A33" /><path d="M21.4 0.7 C27.4 0.7 29.6 6.2 32.3 12 C35 17.8 30.6 32.1 29.3 34.7 C29.8 38.9 29.2 42.4 27.5 45.2 C23.5 45.2 19 45.5 14 45.9 C6.5 46.6 7.1 45.9 6.8 43.2 C6.4 40.4 6.8 39 10.9 36.8 C3.2 33.9 0.8 26.6 0.4 18.5 C0 10.4 3.7 7.9 7.1 4.6 C10.5 1.3 15.4 0.7 21.4 0.7 z M21.1 1.4 C15.5 1.4 11 1.9 7.8 5 C4.6 8 1.2 10.3 1.6 17.9 C2 25.4 6 34.1 13.2 36.8 C9.4 38.9 7.8 38.9 8.2 41.5 C8.4 44 7.2 43.9 14.2 43.3 C18.8 42.9 23 42.6 26.7 42.6 C28.3 40 28.9 36.8 28.4 32.9 C29.6 30.5 33.7 17.2 31.2 11.8 C28.7 6.5 26.6 1.4 21.1 1.4 z" opacity="0.15" id="l" /></g><g transform="translate(213.9, 274.8) scale(1.387164) translate(-213.9, -274.8) translate(106.5, 78.39996) translate(98, 175.5) scale(-1, 1) translate(-98, -175.5) translate(81, 151)" id="m"><path d="M22.1 0.7 C16.1 0.7 11.2 1.3 7.8 4.6 C4.4 7.9 0.6 10.4 1 18.5 C1.4 26.6 3.8 33.9 11.5 36.8 C7.4 39 7 40.4 7.4 43.2 C7.8 46 7.1 46.6 14.6 45.9 C19.6 45.5 24.1 45.2 28.1 45.2 C29.8 42.4 30.4 38.9 29.9 34.7 C31.2 32.1 35.6 17.8 32.9 12 C30.2 6.2 28 0.7 22.1 0.7 z" id="n" fill="#513A33" /><path d="M22.1 0.7 C28 0.7 30.2 6.2 32.9 12 C35.6 17.8 31.2 32.1 29.9 34.7 C30.4 38.9 29.8 42.4 28.1 45.2 C24.1 45.2 19.6 45.5 14.6 45.9 C7.1 46.6 7.8 46 7.4 43.2 C7 40.4 7.4 39 11.5 36.8 C3.8 33.9 1.4 26.6 1 18.5 C0.6 10.4 4.4 7.9 7.8 4.6 C11.2 1.3 16.1 0.7 22.1 0.7 z M21.8 1.1 C16.2 1.1 11.6 1.7 8.4 4.8 C5.2 7.9 1.6 10.2 2 17.8 C2.4 25.4 6.9 33.7 14.1 36.5 C10.3 38.5 8 38.9 8.4 41.5 C8.8 44.1 7.7 44.2 14.8 43.5 C19.5 43.1 23.7 42.9 27.4 42.9 C29 40.2 29.6 36.9 29.1 33 C30.3 30.6 34.5 17.1 31.9 11.7 C29.4 6.3 27.3 1.1 21.8 1.1 z" opacity="0.15" id="o" /></g><g transform="translate(91.30001, 75.89998) translate(31, 73)" id="p"><path d="M22.9 13.8 C30.8 10 27.6 0.4 45.8 0.4 C64 0.4 60.8 10.8 68.8 13.3 C77.6 16.1 79.3 26.3 81.2 30.8 C97 63.7 72.1 126.8 68.8 129.6 C65.9 131.5 60.5 132 58.5 132 C55.3 132 52.8 131.1 51.6 131 C48.9 130.8 47.7 129.6 46 129.6 C44.1 129.6 41.9 130.8 38.4 131 C36.8 131.1 33.1 132 28.8 132 C26.9 132 23.5 130.5 20.9 127.6 C18.7 124.7 0.2 64.8 8.3 34.4 C9.4 30.9 13 18.6 22.9 13.8 z" id="q" fill="#725C54" /><path d="M22.9 13.8 C30.8 10 27.6 0.4 45.8 0.4 C64 0.4 60.8 10.8 68.8 13.3 C77.6 16.1 79.3 26.3 81.2 30.8 C97 63.7 72.1 126.8 68.8 129.6 C65.9 131.5 60.5 132 58.5 132 C55.3 132 52.8 131.1 51.6 131 C48.9 130.8 47.7 129.6 46 129.6 C44.1 129.6 41.9 130.8 38.4 131 C36.8 131.1 33.1 132 28.8 132 C26.9 132 23.5 130.5 20.9 127.6 C18.7 124.7 0.2 64.8 8.3 34.4 C9.4 30.9 13 18.6 22.9 13.8 z M23.7 14.6 C14.1 19.2 10.7 31.1 9.6 34.5 C1.8 63.8 19.6 121.6 21.8 124.4 C24.3 127.2 27.6 128.6 29.4 128.6 C33.5 128.6 37.1 127.7 38.7 127.6 C42.1 127.4 44.2 126.2 46 126.2 C47.6 126.2 48.8 127.4 51.4 127.6 C52.6 127.7 55 128.6 58.1 128.6 C60 128.6 65.2 128.1 68 126.3 C71.2 123.6 95.2 62.7 80 31 C78.2 26.7 76.5 16.8 68 14.1 C60.3 11.7 63.4 1.7 45.8 1.7 C28.2 1.7 31.3 11 23.7 14.6 z" opacity="0.15" id="r" /></g><g transform="translate(129.23, 205.19) scale(1.3, 1.667941) translate(-138.2, -207.8) translate(104.1, 87.39998) translate(36, 120)" id="s"><path d="M2.2 7 L5.9 20.3 L5.9 26.3 C6.1 31.5 6.1 35 5.9 36.7 C5.7 38.4 3.1 38.6 2.2 39.5 C1.6 40.2 0.5 43.2 0.5 44.9 C0.5 47.5 9.2 46.7 10.6 46.8 C15.1 47.2 17.6 45.1 17.7 44.4 C17.8 43.7 16.2 39.5 18.4 28.3 C18.9 25.8 21.4 18.4 22.1 15.8 C24.1 9 21.5 3.2 16.4 2.3 C13.3 0.5 9.9 0.9 5.7 0.9 C1.7 0.8 9.2 6.8 2.2 7 z" id="t" fill="#E8CCA2" /><path d="M4.1 0.7 C-1.9 0.9 1.8 10.5 4.1 17.4 C7.5 28 5.6 38.2 6.8 40.3 C8 42.4 13.8 37 13.8 33.8 C13.8 30.5 12.4 25.1 12.7 19.1 C13 13.9 16 10.3 13.8 5.3 C12.2 1.8 6.6 0.6 4.1 0.7 z" id="u" fill="#725C54" /><path d="M16.4 2.3 C21.5 3.2 24.1 9 22.1 15.8 C21.4 18.4 18.9 25.8 18.4 28.3 C16.2 39.5 17.8 43.7 17.7 44.4 C17.6 45.1 15.1 47.2 10.6 46.8 C9.2 46.7 0.5 47.5 0.5 44.9 C0.5 43.2 1.6 40.2 2.2 39.5 C3.1 38.6 5.7 38.4 5.9 36.7 C6.1 35 6.1 31.5 5.9 26.3 L5.9 26.1 C5.6 23.3 5.1 20.4 4.1 17.4 C1.8 10.5 -1.9 0.9 4.1 0.7 C4.7 0.7 5.6 0.7 6.5 0.9 C10.3 0.9 13.5 0.6 16.4 2.3 z M16.1 3.8 C13.4 2.2 10.5 2.5 6.9 2.5 C6 2.4 5.2 2.3 4.6 2.4 C-0.9 2.5 2.8 10.9 5 17.3 C5.9 20.1 6.5 21.6 6.7 26.4 C6.9 31.2 6.5 36 6.3 37.6 C6.1 39.2 3.9 39.2 3.1 40.1 C2.5 40.7 1.7 41.4 1.7 43 C1.7 45.4 9.4 45.1 10.7 45.2 C14.9 45.6 16 43.3 16.1 42.6 C16.2 42 14.7 38.7 16.8 28.3 C17.3 26 20.8 18.8 21.4 16.4 C23.2 10.1 20.8 4.7 16.1 3.8 z" opacity="0.15" id="v" /><path d="M53.8 7 L50.1 20.3 L50.1 26.3 C49.9 31.5 49.9 35 50.1 36.7 C50.3 38.4 52.9 38.6 53.8 39.5 C54.4 40.2 55.5 43.2 55.5 44.9 C55.5 47.5 46.8 46.7 45.4 46.8 C40.9 47.2 38.4 45.1 38.3 44.4 C38.2 43.7 39.8 39.5 37.6 28.3 C37.1 25.8 34.6 18.4 33.9 15.8 C32.4 9.7 35.5 4.6 39.6 2.3 C42.7 0.5 46.1 0.9 50.3 0.9 C54.3 0.8 46.8 6.8 53.8 7 z" id="w" fill="#E8CCA2" /><path d="M51.9 0.7 C57.9 0.9 54.2 10.5 51.9 17.4 C48.5 28 50.4 35.7 50.4 38 C50.4 40.3 42.2 36.1 42.2 32.9 C42.2 29.6 43.6 25.1 43.3 19.1 C43 13.9 40 10.3 42.2 5.3 C43.8 1.8 49.4 0.6 51.9 0.7 z" id="x" fill="#725C54" /><path d="M50.1 25.9 L50.1 26.3 C50 28.9 49.9 31.1 50 32.8 C50.1 34.8 50.3 36.4 50.4 37.4 C51.1 38.5 53.1 38.7 53.8 39.5 C54.4 40.2 55.5 43.2 55.5 44.9 C55.5 47.5 46.8 46.7 45.4 46.8 C40.9 47.2 38.4 45.1 38.3 44.4 C38.2 43.7 39.8 39.5 37.6 28.3 C37.1 25.8 34.6 18.4 33.9 15.8 C32.4 9.7 35.5 4.6 39.6 2.3 C42.5 0.6 45.7 0.9 49.5 0.9 C50.4 0.7 51.3 0.7 51.9 0.7 C57.9 0.9 54.2 10.5 51.9 17.4 C50.9 20.5 50.4 23.3 50.1 25.9 z M48.9 32 C48.9 30.9 49 28.9 49.2 25.8 C49.5 23.4 50.6 19.3 51.6 16.4 C53.7 10 57.1 2.4 51.5 2.2 C50.9 2.2 50.1 2.2 49.3 2.4 C45.7 2.4 42.8 2.1 40.1 3.7 C36.3 5.8 33.4 10.6 34.8 16.3 C35.5 18.7 38.9 26.1 39.4 28.4 C41.4 38.8 39.3 42.5 39.4 43.1 C39.5 43.7 41.3 45.5 45.5 45.1 C46.8 45 54.9 45.8 54.9 43.3 C54.9 41.7 53.8 40.5 53.3 39.8 C52.6 39.1 50.3 38.7 49.6 37.7 C49.3 36.9 49 33.9 48.9 32 z" opacity="0.15" id="y" /></g></g><g transform="translate(168.3, 188) scale(0.7971014) translate(-168.3, -188)" id="z"><g transform="translate(85.60001, 87.49997) translate(38, 0)" id="a1"><g id="b1"><path d="M67 2.2 C73.4 3.6 81.6 6.5 84.5 10.5 C87.4 14.5 90.2 22.1 89.1 36.2 C88 50.3 87.7 63.3 84.9 70.8 C82.1 78.3 75 87 64.4 90.8 C57.6 93.3 51.2 94.5 45.2 94.6 C44.9 94.6 44.8 94.6 44.7 94.6 C38.7 94.5 32.3 93.2 25.5 90.8 C15 87 7.8 78.2 5 70.7 C2.2 63.2 2 50.4 0.9 36.3 C-0.2 22.2 2.6 14.7 5.5 10.6 C8.4 6.5 16.6 3.6 23 2.3 C27.2 1.4 34.4 0.8 44.7 0.5 C55.5 0.7 62.8 1.3 67 2.2 z" id="c1" fill="#725C54" /><path d="M72.4 85.7 C70 87.7 67.2 89.4 63.9 90.6 C57.1 93.1 50.7 94.3 44.7 94.4 C44.6 94.4 44.5 94.4 44.5 94.4 C44.4 94.4 44.3 94.4 44.3 94.4 C38.3 94.3 31.9 93 25.1 90.6 C21.8 89.4 19.1 87.8 16.7 85.9 C13.9 74 13 66.5 13.9 63.2 C15.3 57.8 17.2 56.8 11.8 50.9 C6.4 45 12 38 19.6 33.1 C24.6 29.8 27.9 28.7 29.3 29.6 C26.3 28.2 24.3 28.9 22.8 29.2 C20.5 29.7 22.5 24.9 27.2 23.7 C31.9 22.5 36 23.2 38.1 25.2 C40.2 27.2 41.4 28.8 43.6 28.7 C43.7 28.7 43.9 28.7 44 28.7 C43.7 28.7 43.9 28.7 44.5 28.7 C45.1 28.7 45.3 28.7 45 28.7 C45.1 28.7 45.2 28.7 45.4 28.7 C47.6 28.8 48.9 27.4 51.1 25.4 C53.2 23.4 57.4 22 61.9 23.7 C66.4 25.4 68.8 30 66.5 29.5 C65 29.2 62.8 28.1 59.8 29.5 C61.2 28.6 64.5 29.7 69.5 33 C77 38 82.7 45.1 77.3 51 C71.8 56.9 73.7 57.8 75.2 63.3 C75.9 66.4 75 73.9 72.4 85.7 z" id="d1" fill="#513A33" /><path d="M56.9 1 C57.3 1.3 53.2 1.7 52.8 7 C52.6 8.7 55.1 17.3 55.5 19.4 C56.7 24.8 55.9 24.4 54.6 27.2 C50.2 36.4 49 41.7 51.9 46.6 C53.8 49.8 57.2 53.4 62 57.4 C64.9 60.2 66.8 62.7 67.6 64.8 C69.5 69.9 72.6 79 67.6 86.6 C62.6 94.2 58.2 102.4 44.8 102.4 C31.4 102.4 23.8 94.2 20.3 84.8 C16.8 75.4 19 72.6 21.7 67.1 C23.4 63.6 24.8 60.8 28.6 57.5 C32.4 54.2 35.9 50 37.8 46.7 C40.6 41.8 39.4 36.5 35.1 27.3 C33.7 24.5 33 24.9 34.2 19.5 C34.8 16.9 37 12.2 37 7.1 C37 2 32.6 1.2 32.9 1 C33.8 0.9 37.8 0.5 44.8 0.5 C51.8 0.5 55.9 0.9 56.9 1 z" id="e1" fill="#3D2B26" /><path d="M67 2.2 C73.4 3.6 81.6 6.5 84.5 10.5 C87.4 14.5 90.2 22.1 89.1 36.2 C88 50.3 87.7 63.3 84.9 70.8 C82.1 78.3 75 87 64.4 90.8 C57.6 93.3 51.2 94.5 45.2 94.6 C44.9 94.6 44.8 94.6 44.7 94.6 C38.7 94.5 32.3 93.2 25.5 90.8 C15 87 7.8 78.2 5 70.7 C2.2 63.2 2 50.4 0.9 36.3 C-0.2 22.2 2.6 14.7 5.5 10.6 C8.4 6.5 16.6 3.6 23 2.3 C27.2 1.4 34.4 0.8 44.7 0.5 C55.5 0.7 62.8 1.3 67 2.2 z M66.4 2.4 C62.3 1.5 55.2 0.9 44.7 0.7 C34.7 1 27.7 1.6 23.6 2.5 C17.4 3.8 9.4 6.6 6.6 10.6 C3.8 14.6 1 21.9 2.1 35.6 C3.2 49.3 3.4 61.8 6.1 69.1 C8.8 76.4 15.8 85 26 88.7 C32.6 91 38.8 92.3 44.7 92.4 C44.8 92.4 44.9 92.4 45.2 92.4 C51 92.3 57.3 91.1 63.9 88.7 C74.2 85 81.1 76.5 83.9 69.2 C86.7 61.9 86.9 49.2 88 35.5 C89.1 21.8 86.3 14.4 83.5 10.5 C80.7 6.6 72.6 3.8 66.4 2.4 z" fill-opacity="0.3" id="f1" /></g></g><g transform="translate(135.4, 104.7) rotate(10, 0, 0) scale(1) translate(-125.4, -110.7) translate(80.8, 72.49997) translate(21, 2)" id="g1"><g transform="translate(18.02073, 23.28844) scale(-1, 1) rotate(-6, 0, 0) translate(-18.02073, -23.28844) translate(2.520727, 1.788439)" id="h1"><path d="M1.7 25.8 C-1.9 23.8 -2.7 23.7 -1.4 20.5 C-0.1 17.3 2.4 17.8 5 15.3 C7.6 12.8 13.5 8.6 17.4 6.7 C21.3 4.8 23.7 2.5 25.7 4.7 C27.7 6.9 29.1 12.8 28 18.9 C26.9 25 23.5 30.4 23.1 33.3 C22.7 36.2 21.9 40.6 20.2 42.9 C19.7 43.6 18.2 45.3 17.3 45.8 C15.4 46.7 14 44.9 12.6 41.3 C12.3 40.4 10.5 34.3 8.6 32.4 C6.3 29.9 5.4 27.8 1.7 25.8 z" id="i1" fill="#725C54" /><path d="M1.7 25.8 C-1.9 23.8 -2.7 23.7 -1.4 20.5 C-0.1 17.3 2.4 17.8 5 15.3 C7.6 12.8 13.5 8.6 17.4 6.7 C21.3 4.8 23.7 2.5 25.7 4.7 C27.7 6.9 29.1 12.8 28 18.9 C26.9 25 23.5 30.4 23.1 33.3 C22.7 36.2 21.9 40.6 20.2 42.9 C19.7 43.6 18.2 45.3 17.3 45.8 C15.4 46.7 14 44.9 12.6 41.3 C12.3 40.4 10.5 34.3 8.6 32.4 C6.3 29.9 5.4 27.8 1.7 25.8 z M3.9 24.6 C7.2 26.4 8 28.3 10 30.5 C11.7 32.2 13.3 37.7 13.6 38.5 C14.8 41.7 16.1 43.4 17.8 42.5 C18.6 42.1 19.9 40.5 20.4 39.9 C21.9 37.8 22.6 33.9 23 31.3 C23.4 28.7 26.4 23.8 27.4 18.3 C28.4 12.8 27.1 7.5 25.4 5.5 C23.6 3.5 21.5 5.6 18 7.3 C14.5 9 9.3 12.8 6.9 15 C4.5 17.2 2.4 16.8 1.2 19.7 C0 22.6 0.7 22.8 3.9 24.6 z" opacity="0.15" id="j1" /><path d="M5.7 24.6 C3.7 23.6 2.3 23 3.3 20.4 C3.9 18.9 7.5 16.8 10.9 14.2 C13.3 12.3 16.2 10.3 18 9.3 C20.6 7.8 21.8 6.3 23.5 7.6 C25.1 8.9 26.5 14.5 25.7 19.2 C24.9 24 20 35.8 18.7 37.6 C17.4 39.4 16.1 42.4 14.5 38.2 C12.9 34 12.6 31.4 10.9 29.6 C9.2 27.8 7.7 25.6 5.7 24.6 z" id="k1" fill="#B58164" /><path d="M8.2 26.4 C8.3 25.4 9.1 23.7 9.3 23.3 C9.6 22.7 12.3 21.1 14.6 19.7 C15.6 19 18.6 17.4 18.6 17.4 C20.2 16.5 20.1 19.9 18.6 22.6 C17.7 24.2 15.1 29.9 13.3 31.6 C12.7 32.2 12.2 31.1 11 29.5 C9.9 28.1 8.1 26.8 8.2 26.4 z" opacity="0.5" id="l1" fill="#725C54" /></g></g><g transform="translate(201.4, 103.7) rotate(-10, 0, 0) scale(1) translate(-211.4, -109.7) translate(111.2, 71.49997) translate(100.9, 24.5) scale(-1, 1) translate(-100.9, -24.5) translate(82.40002, 0)" id="m1"><g transform="translate(18.19189, 24.4854) scale(-1, 1) rotate(-7, 0, 0) translate(-18.19189, -24.4854) translate(2.691893, 2.485396)" id="n1"><path d="M5.4 26.9 C1.8 24.9 1 24.8 2.3 21.6 C3.6 18.4 6.1 18.9 8.7 16.4 C11.3 13.9 17.2 9.7 21.1 7.8 C25 5.9 27.4 3.6 29.4 5.8 C31.4 8 32.8 14 31.7 20.1 C30.7 26.2 27.1 31.6 26.8 34.5 C26.4 37.4 25.6 41.8 23.9 44.1 C23.4 44.8 21.9 46.5 21 47 C19.1 47.9 18.5 47.3 17.1 43.7 C16.8 42.8 17 42 16.7 41.2 C15.3 37.5 14.2 35.4 12.3 33.5 C9.9 31.1 9 29 5.4 26.9 z" id="o1" fill="#725C54" /><path d="M5.4 26.9 C1.8 24.9 1 24.8 2.3 21.6 C3.6 18.4 6.1 18.9 8.7 16.4 C11.3 13.9 17.2 9.7 21.1 7.8 C25 5.9 27.4 3.6 29.4 5.8 C31.4 8 32.8 14 31.7 20.1 C30.7 26.2 27.1 31.6 26.8 34.5 C26.4 37.4 25.6 41.8 23.9 44.1 C23.4 44.8 21.9 46.5 21 47 C19.1 47.9 18.5 47.3 17.1 43.7 C16.8 42.8 17 42 16.7 41.2 C15.3 37.5 14.2 35.4 12.3 33.5 C9.9 31.1 9 29 5.4 26.9 z M7.1 25.9 C10.4 27.8 11.2 29.8 13.4 32 C15.1 33.8 16.2 35.7 17.4 39.1 C17.7 39.8 17.5 40.6 17.8 41.4 C19.1 44.7 19.6 45.3 21.4 44.4 C22.2 43.9 23.6 42.4 24.1 41.7 C25.7 39.6 26.4 35.5 26.8 32.8 C27.1 30.1 30.4 25.1 31.3 19.5 C32.3 13.9 31 8.3 29.2 6.3 C27.4 4.3 25.2 6.4 21.6 8.1 C18 9.8 12.6 13.7 10.2 16 C7.8 18.3 5.5 17.8 4.3 20.8 C3.1 23.8 3.8 24.1 7.1 25.9 z" opacity="0.15" id="p1" /><path d="M9.4 25.7 C7.4 24.7 6 24.1 7 21.5 C7.6 20 11.2 17.9 14.6 15.3 C17 13.4 19.9 11.4 21.7 10.4 C24.3 8.9 25.5 7.4 27.2 8.7 C28.8 10 30.2 15.6 29.4 20.3 C28.6 25.1 23.7 36.9 22.4 38.7 C21.1 40.5 19.8 43.5 18.2 39.3 C16.6 35.1 16.3 32.5 14.6 30.7 C12.9 29 11.4 26.8 9.4 25.7 z" id="q1" fill="#B58164" /><path d="M11.5 26.9 C11.6 25.9 12.8 24.9 13 24.5 C13.3 23.9 16 22.3 18.3 20.9 C19.3 20.2 22.3 18.6 22.3 18.6 C23.9 17.7 23.8 21.1 22.3 23.8 C21.4 25.4 18.8 31.1 17 32.8 C15.8 33.9 14.9 30.4 14.4 30.5 C13.3 28.9 11.4 27.8 11.5 26.9 z" opacity="0.5" id="r1" fill="#725C54" /></g></g><g transform="translate(168.3, 150) scale(1.2, 1.16) translate(-168.3, -150)" id="s1"><g transform="translate(101, 90.99997) translate(42, 3)" id="t1"><path d="M49.9 76.8 C49.7 75.5 49.3 74.2 48.8 72.8 C47.8 70.2 46 67.8 43.8 65.3 C43 63.2 42.2 60.6 40.1 56.4 C38.2 52.7 32.7 53.1 30.1 47.3 C28.8 42 28.2 36.5 28.4 31.1 C28.4 30.4 28.5 29.6 28.4 28.9 C28.6 18.6 28.7 14.3 34.2 10 C36.3 8.4 39.1 8.4 39.2 6.8 C39.5 2.4 30.6 0.9 25.1 0.7 C19.5 0.9 10.6 2.4 11 6.8 C11.1 8.4 13.9 8.4 16 10 C21.5 14.3 21.6 18.6 21.8 28.9 C21.8 29.6 21.8 30.4 21.8 31.1 C22 36.6 21.4 42 20.1 47.3 C17.5 53.1 12.1 52.7 10.1 56.4 C8 60.6 7.1 63.2 6.4 65.3 C4.2 67.8 2.3 70.1 1.4 72.8 C0.9 74.2 0.5 75.5 0.3 76.8 C1.2 93.2 11.8 94.6 25.1 94 C38.3 94.6 48.9 93.2 49.9 76.8 z" id="u1" fill="#E8CCA2" /><path d="M49.9 76.8 C48.9 93.2 38.3 94.6 25.1 94 C11.8 94.6 1.2 93.2 0.3 76.8 C0.5 75.5 0.9 74.2 1.4 72.8 C2.3 70.1 4.2 67.8 6.4 65.3 C7.1 63.2 8 60.6 10.1 56.4 C12.1 52.7 17.5 53.1 20.1 47.3 C21.4 42 22 36.6 21.8 31.1 C21.8 30.4 21.8 29.6 21.8 28.9 C21.6 18.6 21.5 14.3 16 10 C13.9 8.4 11.1 8.4 11 6.8 C10.6 2.4 19.5 0.9 25.1 0.7 C30.6 0.9 39.5 2.4 39.2 6.8 C39.1 8.4 36.3 8.4 34.2 10 C28.7 14.3 28.6 18.6 28.4 28.9 C28.5 29.6 28.4 30.4 28.4 31.1 C28.2 36.5 28.8 42 30.1 47.3 C32.7 53.1 38.2 52.7 40.1 56.4 C42.2 60.6 43 63.2 43.8 65.3 C46 67.8 47.8 70.2 48.8 72.8 C49.3 74.2 49.7 75.5 49.9 76.8 z M47.2 71.2 C46.2 68.7 44.3 66.5 42.2 64.1 C41.4 62.1 40.9 60.6 38.9 56.6 C37.1 53.1 31.3 52.6 28.8 47.1 C27.6 42 27.8 29.4 27.7 29 C27.9 19.2 28 14 33.3 9.9 C35.3 8.4 38.3 7.9 38.4 6.4 C38.9 3.2 30.4 1.2 25.2 1 C19.9 1.2 11.8 2.2 12.2 6.4 C12.4 8 15 8.5 17 10.1 C22.2 14.2 22 19.2 22.2 29 C22.2 29.7 22.5 43.6 20.6 47.9 C18.1 53.4 13.1 52.7 11.2 56.2 C9.2 60.2 8.3 62.2 7.6 64.2 C8.3 66.2 3.9 68.8 3 71.3 C2.5 72.6 2 73.6 1.8 74.8 C2.7 90.4 12.4 91.5 25.1 90.9 C37.7 91.5 47.7 91.5 48.7 75.9 C48.5 74.6 47.7 72.6 47.2 71.2 z" opacity="0.15" id="v1" /></g><g transform="translate(101, 90.99998) translate(58, 77)" id="w1"><g id="x1"><path d="M9.1 8.1 C9.1 8.1 5.5 10.3 3.5 11.1 C4.6 12 6.9 13.1 9.1 13.1 C11.3 13.1 13.5 12 14.7 11.1 C12.7 10.2 9.1 8.1 9.1 8.1 z" id="y1" fill="#CE5253" /><path d="M18.5 13.8 C18.5 13.8 18.4 13.7 18.2 13.4 C18 13.2 17.7 12.8 17.4 12.5 C16.7 11.7 15.7 10.8 14.5 10 C13.4 9.2 12.1 8.4 11.1 8 C10.8 7.9 10.6 7.8 10.4 7.7 C10.3 7.7 10.2 7.7 10.1 7.6 L10.1 1.9 C10.1 1.3 9.7 0.9 9.1 0.9 C8.5 0.9 8.1 1.3 8.1 1.9 L8.1 7.6 C8 7.6 7.9 7.7 7.9 7.7 C7.7 7.8 7.4 7.9 7.2 8 C6.2 8.5 5 9.2 4 10 C2.9 10.8 2 11.8 1.4 12.6 C1.1 13 0.8 13.3 0.7 13.5 C0.5 13.7 0.4 13.9 0.4 13.9 C0.3 14.1 0.3 14.4 0.4 14.6 C0.6 14.8 0.9 14.8 1.1 14.6 C1.1 14.6 1.2 14.5 1.4 14.3 C1.6 14.1 1.9 13.9 2.3 13.6 C3 13 4 12.3 5.1 11.7 C6.2 11.1 7.3 10.7 8.1 10.5 C8.3 10.5 8.5 10.4 8.6 10.4 C8.6 10.4 8.6 10.4 8.7 10.4 C8.8 10.5 9 10.5 9.2 10.5 C9.4 10.5 9.5 10.4 9.7 10.4 L9.8 10.4 C10 10.4 10.2 10.5 10.4 10.5 C11.3 10.7 12.5 11.1 13.6 11.7 C14.8 12.3 15.8 13 16.6 13.5 C17 13.8 17.3 14 17.5 14.2 C17.7 14.4 17.9 14.5 17.9 14.5 C18.1 14.7 18.4 14.7 18.6 14.5 C18.7 14.3 18.7 14 18.5 13.8 z" id="z1" fill="#282523" /></g></g><g transform="translate(109.1, 101.2) translate(48, 55)" id="a2"><g id="b2"><path d="M20.4 3.1 C18.3 0 13.2 0.9 11 0.8 C8.8 0.9 3.7 0 1.6 3.1 C-0.3 5.9 1.2 11.4 3.7 12.1 C5.6 12.6 6.2 15.5 11 15.4 C15.9 15.5 16.5 12.6 18.3 12.1 C20.8 11.5 22.3 5.9 20.4 3.1 z" id="c2" fill="#282421" /><path d="M15.2 4.6 C14.1 4.3 12.9 4.7 12.1 5.5 L11 6.7 L10 5.5 C9.2 4.6 8 4.2 6.9 4.5 C6 4.8 4.7 5.8 4.9 6.9 C5.8 6.2 6.9 5.7 8 6.1 C9 6.4 9.7 7.4 9.9 8.4 L9.9 9.6 L11 9.6 L12.2 9.6 L12.2 8.4 C12.4 7.4 13.1 6.4 14.1 6.1 C15.2 5.7 16.4 6.2 17.2 6.9 C17.4 6 16.1 4.9 15.2 4.6 z" id="d2" fill="#FEFEFE" /></g></g><g transform="translate(107.4, 72.29996) translate(30, 41)" id="e2"><g transform="translate(3, 0)" id="f2"><circle cx="8" cy="19.2" r="7.7" id="g2" fill="#FFF" /><circle cx="8" cy="19.2" r="5.8" id="h2" fill="#555452" /><circle cx="6" cy="17.2" r="2.5" id="i2" fill="#FFF" /><circle cx="10.5" cy="20.7" r="1" id="j2" fill="#FFF" /><path d="M3.4 4.4 C1.4 6.9 3 10.2 5.4 9.5 C7.8 8.7 12.9 7.4 13.8 5.9 C14.7 4.4 14 0.1 11.1 0.8 C8.2 1.5 5.4 2 3.4 4.4 z" id="k2" fill="#FFF" /></g></g><g transform="translate(107.1, 72.29996) translate(69, 41)" id="l2"><g transform="translate(2, 0)" id="m2"><circle cx="8.2" cy="19.1" r="7.7" id="n2" fill="#FFF" /><circle cx="8.2" cy="19.1" r="5.8" id="o2" fill="#424242" /><circle cx="6.2" cy="17.1" r="2.5" id="p2" fill="#FFF" /><circle cx="10.7" cy="20.6" r="1" id="q2" fill="#FFF" /><path d="M13.5 4.3 C15.5 6.8 13.9 10.1 11.5 9.4 C9.1 8.6 4 7.3 3.1 5.8 C2.2 4.3 2.9 0 5.8 0.7 C8.7 1.4 11.5 1.9 13.5 4.3 z" id="r2" fill="#FFF" /></g></g></g></g></g></g><defs><g transform="translate(17.09519, 0.800995) translate(-135.2952, -293.601)" id="s2" fill="#000"><path d="M118.2 302.7 C118.4 307.4 132.5 311.2 149.8 311.2 C167.1 311.2 181.2 307.4 181.4 302.7 C181.4 307.5 181.4 310.1 181.4 310.5 C181.4 315.3 167.3 319.1 149.8 319.1 C132.3 319.1 118.2 315.2 118.2 310.5 L118.2 302.7 L118.2 302.7 z" fill-opacity="0.4528" id="t2" fill="#593001" /><path d="M118.7 301.7 C118.9 306.4 133 310.2 150.3 310.2 C167.6 310.2 181.7 306.4 181.9 301.7 C181.9 306.5 181.9 309.1 181.9 309.5 C181.9 314.3 167.8 318.1 150.3 318.1 C132.8 318.1 118.7 314.2 118.7 309.5 L118.7 301.7 L118.7 301.7 z" id="u2" fill="#DA8113" /><linearGradient x1="46.0545" y1="-118.6926" x2="45.4656" y2="-118.6926" gradientUnits="userSpaceOnUse" gradientTransform="matrix(117.135, 0, 0, 28.4634, -5208.417, 3687.795)" id="v2"><stop offset="0%" stop-color="#D9952A" stop-opacity="1" /><stop offset="6.438854%" stop-color="#CA7519" stop-opacity="1" /><stop offset="30.54%" stop-color="#E3AD3A" stop-opacity="1" /><stop offset="51.05%" stop-color="#FFEC91" stop-opacity="1" /><stop offset="68.8%" stop-color="#E9BD44" stop-opacity="1" /><stop offset="86.24%" stop-color="#FFED6C" stop-opacity="1" /><stop offset="93.87%" stop-color="#F2D353" stop-opacity="1" /><stop offset="100%" stop-color="#F2B947" stop-opacity="1" /></linearGradient><path d="M118.2 301.6 C118.4 306.1 132.7 309.7 150.3 309.7 C167.9 309.7 182.2 306.1 182.4 301.6 C182.4 306.2 182.4 308.7 182.4 309 C182.4 313.5 168 317.2 150.3 317.2 C132.6 317.2 118.2 313.5 118.2 309 L118.2 301.6 L118.2 301.6 z" id="w2" style="fill:url(#v2)" /><linearGradient x1="45.4914" y1="-117.9547" x2="45.9407" y2="-117.5895" gradientUnits="userSpaceOnUse" gradientTransform="matrix(115.425, 0, 0, 29.925, -5125.077, 3826.124)" id="x2"><stop offset="0%" stop-color="#F4E072" stop-opacity="1" /><stop offset="100%" stop-color="#DB9427" stop-opacity="1" /></linearGradient><ellipse cx="150.3" cy="301.5" rx="31.6" ry="8.2" id="y2" style="fill:url(#x2)" /><linearGradient x1="45.4656" y1="-126.0065" x2="46.0545" y2="-126.0065" gradientUnits="userSpaceOnUse" gradientTransform="matrix(117.135, 0, 0, 18.6219, -5208.417, 2651.479)" id="z2"><stop offset="0%" stop-color="#D9952A" stop-opacity="1" /><stop offset="6.438854%" stop-color="#CA7519" stop-opacity="1" /><stop offset="30.54%" stop-color="#E3AD3A" stop-opacity="1" /><stop offset="51.05%" stop-color="#FFEC91" stop-opacity="1" /><stop offset="68.8%" stop-color="#E9BD44" stop-opacity="1" /><stop offset="86.24%" stop-color="#FFED6C" stop-opacity="1" /><stop offset="93.87%" stop-color="#F2D353" stop-opacity="1" /><stop offset="100%" stop-color="#F2B947" stop-opacity="1" /></linearGradient><path d="M119.2 299.9 C119 300.2 118.9 300.6 118.9 301 C118.9 305.5 132.9 309.2 150.3 309.2 C167.7 309.2 181.7 305.5 181.7 301 C181.7 300.6 181.6 300.3 181.4 299.9 C182 300.5 182.4 301.2 182.4 301.9 C182.4 306.4 168 310.1 150.3 310.1 C132.6 310.1 118.2 306.4 118.2 301.9 C118.2 301.3 118.6 300.6 119.2 299.9 z" id="a3" style="fill:url(#z2)" /><linearGradient x1="45.196" y1="-121.5895" x2="45.3746" y2="-120.6758" gradientUnits="userSpaceOnUse" gradientTransform="matrix(101.745, 0, 0, 23.94, -4458.332, 3199.41)" id="b3"><stop offset="0%" stop-color="#F8DD61" stop-opacity="1" /><stop offset="100%" stop-color="#EAA330" stop-opacity="1" /></linearGradient><ellipse cx="150.3" cy="300.8" rx="27.8" ry="6.6" id="c3" style="fill:url(#b3)" /><linearGradient x1="45.5694" y1="-134.267" x2="45.0221" y2="-134.267" gradientUnits="userSpaceOnUse" gradientTransform="matrix(101.745, 0, 0, 13.2525, -4458.332, 2077.223)" id="d3"><stop offset="0%" stop-color="#F4CA2F" stop-opacity="1" /><stop offset="51.38%" stop-color="#BF7737" stop-opacity="1" /><stop offset="100%" stop-color="#E4A929" stop-opacity="1" /></linearGradient><path d="M122.6 301.5 C122.5 301.3 122.4 301 122.4 300.8 C122.4 297.2 134.9 294.2 150.2 294.2 C165.5 294.2 178 297.1 178 300.8 C178 301 177.9 301.3 177.8 301.5 C176.3 298.2 164.5 295.6 150.1 295.6 C135.7 295.6 124.1 298.2 122.6 301.5 z" id="e3" style="fill:url(#d3)" /></g></defs><desc>LE92BEDDNOF,JL/H4Q8UH7rsOhOuQK++e4gJW6nKojtOcrFOtBv0UYvSHKnvRUsSixBM5L3AULo7QKg2POlJutWZZVMgUUsmZh2+qnd80Dv9wQt2Dc7wNJA=</desc></svg>