<?xml version="1.0" encoding="utf-8"?><!DOCTYPE svg PUBLIC "-//W3C//DTD SVG 1.1//EN" "http://www.w3.org/Graphics/SVG/1.1/DTD/svg11.dtd"><svg x="0" y="0" width="340px" height="340px" viewBox="0, 0, 340, 340" preserveAspectRatio="xMidYMid" font-size="0" id="a" enable-background="new 0 0 340 340" xmlns="http://www.w3.org/2000/svg" xmlns:xlink="http://www.w3.org/1999/xlink" xmlns:xml="http://www.w3.org/XML/1998/namespace" version="1.1"><g id="b" fill="#000"><g id="c"><g transform="translate(0, 0) translate(0, 224)" id="d"><ellipse cx="168.6" cy="53.1" rx="57.8" ry="12.8" fill-opacity="0.25" id="e" /></g><g id="f"><g transform="translate(83.5, 61.79997) translate(32.5, 177.5) scale(-1, 1) translate(-32.5, -177.5) translate(0, 152)" id="g"><path d="M29.6 27.4 C51.4 29 52.4 37.4 52 41.3 C51.9 42.7 50.9 42.4 48.4 43.4 C46.1 44.4 45.7 45.2 43.7 45.6 C41.5 46 39.1 46 38.3 47.2 C37.5 48.4 34.2 51 37 50.7 C37.5 50.6 40.4 50.7 41.6 50.7 C42.8 50.7 45.7 48.5 46.2 48.5 C46.4 48.5 44 50.8 44.2 50.7 C45.2 50.5 48.9 47.9 49.9 47.7 C51.5 47.3 51 49.2 52.6 48.7 C53.9 48.2 57.3 45.3 58.4 44.7 C59.3 44.2 58.8 46.1 59.5 45.6 C60.2 45 62.1 41.1 62.5 40.4 C62.9 39.7 63.2 39.8 63.4 39.1 C63.6 38.3 63 35.1 63 34.3 C63 33.1 64.7 34.8 64.2 33.6 C63.8 32.7 62.7 29.4 62.1 28.5 C61.3 27.4 60.2 26 59 25 C58.3 24.4 60.7 25.7 62.1 26.6 C63.5 27.5 62 24 60.3 22.2 C59.2 21.1 56.3 19.1 55.2 18.9 C53.4 18.5 50.6 17.6 48 17.3 C46.6 17.1 44.6 17.4 44.4 17.3 C43.1 16.9 50 17 51.1 16.6 C51.7 16.4 50.5 15.9 49.2 15.4 C48.6 15.2 47 14.9 46.3 14.8 C45 14.7 42.4 14.3 39.8 14.4 C37.9 14.4 35.6 14.9 35.4 14.8 C33.8 14.4 40.2 13.9 38.5 13.5 C37.2 13.2 29.5 13.3 28.1 13 C21.3 12 16.4 15.5 10.1 17 C3.4 18.6 -3.8 23.7 3.9 27.4 C7.9 29.4 17.9 26.5 29.6 27.4 z" id="h" fill="#F4DFA9" /><path d="M26.9 29.4 C29.4 29.6 33.4 29.1 35.3 29.4 C35.7 29.5 38.9 30.1 40 30.7 C41.6 31.6 43.1 33.8 44.1 33.8 C45 33.8 43.5 30.7 44.1 31 C45.6 31.7 45.5 34 46.3 34.2 C47.1 34.5 47 32.8 48 34.2 C48.9 35.4 49.1 37.7 49.6 38 C50.5 38.5 50.5 35.7 51 36.3 C51.6 36.9 50.8 38.4 51 38.9 C51.6 40.2 51.9 39.6 51.7 40.9 C51.6 41.7 51.1 42.8 50.1 43.4 C50.2 43.4 50.6 43.1 50.6 43.1 C54.8 40 56 37.6 55 35.2 C54.4 33.8 56.2 33.7 55 32.2 C54.3 31.3 51.2 28.9 49.6 28.1 C48.4 27.5 51.3 27.4 49.6 26.7 C48.6 26.3 42.2 25.7 41.1 25.5 C39.5 25.1 42.2 24.7 40.2 24.3 C35.7 23.4 25.8 22.3 19.5 21 C15.1 20.8 11.3 21.5 8.1 23.2 C4.9 24.9 4 26.5 5.3 28.1 C5.3 28.4 13.3 28.3 14.8 29.1 C19.6 29.4 21.3 28.9 26.9 29.4 z" id="i" fill="#C08A3F" /><path d="M5.1 27.8 C4.7 27.7 4.3 27.6 3.9 27.4 C-3.8 23.7 3.4 18.6 10.1 17 C16.4 15.5 21.3 12 28.1 13 C29.5 13.3 37.2 13.2 38.5 13.5 C40.2 13.9 33.8 14.4 35.4 14.8 C35.6 14.9 37.9 14.4 39.8 14.4 C42.4 14.3 45 14.7 46.3 14.8 C47 14.9 48.6 15.2 49.2 15.4 C50.5 15.9 51.7 16.4 51.1 16.6 C50 17 43.1 16.9 44.4 17.3 C44.6 17.4 46.6 17.1 48 17.3 C50.6 17.6 53.4 18.5 55.2 18.9 C56.3 19.1 59.2 21.1 60.3 22.2 C62 24 63.5 27.5 62.1 26.6 C60.7 25.7 58.3 24.4 59 25 C60.2 26 61.3 27.4 62.1 28.5 C62.7 29.4 63.8 32.7 64.2 33.6 C64.7 34.8 63 33.1 63 34.3 C63 35.1 63.6 38.3 63.4 39.1 C63.2 39.8 62.9 39.7 62.5 40.4 C62.1 41.1 60.2 45 59.5 45.6 C58.8 46.1 59.3 44.2 58.4 44.7 C57.3 45.3 53.9 48.2 52.6 48.7 C51 49.2 51.5 47.3 49.9 47.7 C48.9 47.9 45.2 50.5 44.2 50.7 C44 50.8 46.4 48.5 46.2 48.5 C45.7 48.5 42.8 50.7 41.6 50.7 C40.4 50.7 37.5 50.6 37 50.7 C34.2 51 37.5 48.4 38.3 47.2 C39.1 46 41.5 46 43.7 45.6 C45.7 45.2 46.1 44.4 48.4 43.4 C49.6 42.9 50.5 42.7 51 42.5 C51.4 42 51.6 41.4 51.7 40.9 C51.9 39.6 51.6 40.2 51 38.9 C50.8 38.4 51.6 36.9 51 36.3 C50.5 35.7 50.5 38.5 49.6 38 C49.1 37.7 48.9 35.4 48 34.2 C47 32.8 47.1 34.5 46.3 34.2 C45.5 34 45.6 31.7 44.1 31 C43.5 30.7 45 33.8 44.1 33.8 C43.1 33.8 41.6 31.6 40 30.7 C38.9 30.1 35.7 29.5 35.3 29.4 C33.4 29.1 29.4 29.6 26.9 29.4 C21.3 28.9 19.6 29.4 14.8 29.1 C13.3 28.3 5.3 28.4 5.3 28.1 C5.2 28 5.2 27.9 5.1 27.8 z M10.2 26.9 C10.5 27.1 10.9 27.2 11.3 27.3 C11.3 27.4 11.4 27.4 11.5 27.5 C11.5 27.8 18.5 27.7 19.9 28.4 C24.1 28.7 25.6 28.2 30.5 28.7 C32.8 28.9 34.5 27.6 36.2 27.9 C36.6 28 39.3 29 40.2 29.6 C41.6 30.4 42.6 32.4 43.5 32.4 C44.3 32.4 42.6 29.3 43.2 29.6 C44.5 30.2 45.9 32.5 46.6 32.7 C47.3 32.9 48.3 31.7 49.2 32.9 C50 34 49.4 35.6 49.8 35.9 C50.6 36.3 50.9 33.9 51.3 34.4 C51.9 34.9 51.7 36.6 51.8 37.1 C52.4 38.2 52.6 37.7 52.5 38.8 C52.4 39.3 52.6 40.9 52.2 41.4 C51.7 41.6 51.2 43.1 50.1 43.5 C48.1 44.4 48.9 44.5 47.2 44.8 C44.9 46.1 40 46.7 39.3 47.8 C38.6 48.8 36.1 50.2 38.6 50 C39 49.9 42.1 48.4 43.2 48.4 C44.2 48.4 46.7 46.1 47.2 46.1 C47.3 46.1 47.9 47.6 48 47.5 C48.9 47.3 50 45 50.9 44.8 C52.3 44.5 51.8 46.2 53.3 45.7 C54.4 45.3 57.4 42.7 58.4 42.2 C59.2 41.8 59.7 42.9 60.3 42.5 C60.9 42 61.6 39 62 38.4 C62.4 37.8 62.2 37.7 62.4 37.1 C62.6 36.4 61.6 34.1 61.6 33.4 C61.6 32.3 63.2 34 62.8 32.9 C62.4 32.1 61.4 28.9 60.8 28.1 C60.1 27.2 58.8 25.3 57.7 24.4 C57.1 23.9 58.9 24 60.1 24.8 C61.3 25.6 60.4 23.8 58.9 22.2 C57.9 21.2 54.8 19.7 53.8 19.6 C52.2 19.2 46.2 18.4 43.9 18.1 C42.6 17.9 39.6 17.8 39.5 17.7 C38.3 17.4 41 17 41.9 16.6 C42.5 16.4 50 16.4 48.9 16 C48.3 15.8 46.4 15.5 45.8 15.4 C44.7 15.3 44.2 15.3 41.9 15.4 C40.3 15.4 33.1 15.1 32.9 15 C31.5 14.7 37.7 14.2 36.2 13.8 C35.1 13.6 30 14.1 28.8 13.8 C22.8 12.9 21.3 16.4 15.7 17.7 C9.8 19.1 3.4 23.6 10.2 26.9 z" opacity="0.15" id="j" /></g><g transform="translate(126.2, 270.3) scale(1.279527) translate(-126.2, -270.3) translate(104.1, 102.4) translate(19, 122)" id="k"><path d="M10.2 35.9 C7.6 30.9 3.1 24.7 2.4 19.1 C2 15.7 2.2 11.1 3.8 8.1 C5.7 4.4 16.5 -0.9 23.4 1.2 C30.3 3.2 32.3 18.7 26 30.3 C23 35.9 24.7 39.9 24.7 43 C24.7 45.8 22.5 47.5 20.2 48.1 C15.2 49.3 8.9 49.1 6.6 48.4 C6.3 48.3 6 48.2 5.7 48.1 C2.5 46.6 9.8 35.9 10.2 35.9 z" id="l" fill="#C08A3F" /><path d="M5.5 38.2 C7.8 36.8 9.4 35.3 10.1 35.4 C10.9 38.5 20.1 38.3 24.3 37 C24.3 39.4 25 40.1 25 41.8 C25 44.6 26.3 44.9 23.2 46.9 C20.3 48.8 10.5 49.6 7.9 49.5 C5.3 49.4 1.9 49.9 1.1 48.1 C0.5 46.7 0.3 44.2 0.9 42.8 C1.8 40.5 3.1 39.5 5.5 38.2 z" id="m" fill="#F4DFA9" /><path d="M9.9 35.4 C7.3 30.5 3 24.5 2.4 19.1 C2 15.7 2.2 11.1 3.8 8.1 C5.7 4.4 16.5 -0.9 23.4 1.2 C30.3 3.2 32.3 18.7 26 30.3 C24.6 32.9 24.2 35.1 24.2 37 C24.2 37 24.3 37 24.3 37 C24.3 39.4 25 40.1 25 41.8 C25 44.6 26.3 44.9 23.2 46.9 C22.7 47.2 22 47.5 21.1 47.8 C20.8 47.9 20.5 48 20.2 48.1 C19.6 48.2 19 48.4 18.4 48.5 C14.5 49.3 9.6 49.6 7.9 49.5 C5.3 49.4 1.9 49.9 1.1 48.1 C0.5 46.7 0.3 44.2 0.9 42.8 C1.8 40.5 3.1 39.5 5.5 38.2 C7.6 36.9 9.2 35.5 9.9 35.4 z M2.9 18.4 C3.3 21.7 6.6 27.6 12.8 35.9 C12.1 36 9.6 36.9 7.7 38.1 C5.5 39.3 3.2 40.3 2.4 42.4 C1.9 43.7 1.9 44.4 2.4 45.7 C3.1 47.4 6.2 46.9 8.6 47 C10.2 47.1 14.6 46.8 18.2 46 C18.8 45.9 19.3 45.8 19.8 45.7 C20.1 45.6 20.4 45.5 20.6 45.4 C21.4 45.2 22 44.9 22.5 44.6 C25.3 42.7 22.7 38.1 22.7 35.9 C22.7 35.9 23.8 31.6 25.1 29.2 C30.8 18.5 29 4.2 22.7 2.3 C16.4 0.4 6.2 4.8 4.4 8.2 C3 11 2.5 15.2 2.9 18.4 z" opacity="0.15" id="n" /></g><g transform="translate(211.1, 270.3) scale(1.279527) translate(-211.1, -270.3) translate(111.6, 102.4) translate(88, 147) scale(-1, 1) translate(-88, -147) translate(73, 122)" id="o"><path d="M10.2 35.9 C7.6 30.9 3.1 24.7 2.4 19.1 C2 15.7 2.2 11.1 3.8 8.1 C5.7 4.4 16.5 -0.9 23.4 1.2 C30.3 3.2 32.3 18.7 26 30.3 C23 35.9 24.7 39.9 24.7 43 C24.7 45.8 22.2 47 19.9 47.6 C14.9 48.8 8.9 49.1 6.6 48.4 C6.3 48.3 6 48.2 5.7 48.1 C2.5 46.6 9.8 35.9 10.2 35.9 z" id="p" fill="#C08A3F" /><path d="M5.5 38.2 C7.8 36.8 9.4 35.3 10.1 35.4 C10.9 38.5 20.1 38.3 24.3 37 C24.3 39.4 24.8 39.6 24.8 41.3 C24.8 44.1 26.3 44.7 23.3 46.6 C20.4 48.5 10.5 49.5 8 49.4 C5.5 49.3 2 49.8 1.2 48 C0.6 46.6 0.4 44.1 1 42.7 C1.8 40.5 3.1 39.5 5.5 38.2 z" id="q" fill="#F4DFA9" /><path d="M9.9 35.4 C7.3 30.5 3 24.5 2.4 19.1 C2 15.7 2.2 11.1 3.8 8.1 C5.7 4.4 16.5 -0.9 23.4 1.2 C30.3 3.2 32.3 18.7 26 30.3 C24.6 32.9 24.2 35.1 24.2 37 C24.2 37 24.3 37 24.3 37 C24.3 39.4 24.8 39.6 24.8 41.3 C24.8 44.1 26.3 44.7 23.3 46.6 C20.4 48.5 10.5 49.5 8 49.4 C5.5 49.3 2 49.8 1.2 48 C0.6 46.6 0.4 44.1 1 42.7 C1.8 40.5 3.1 39.5 5.5 38.2 C7.6 36.9 9.2 35.5 9.9 35.4 z M2.9 18 C3.3 21.4 6.3 27.4 11.9 36.1 C11.2 36.2 8.8 37.3 6.9 38.5 C4.7 39.7 2.9 40 2.2 42.1 C1.6 43.4 1.9 44.4 2.4 45.7 C3.1 47.4 6.4 46.9 8.6 47 C10.9 47.1 19.2 46.5 21.8 44.7 C23.4 43.7 22.6 39.9 22.9 36 C23.1 33.1 24.5 30 25.1 29 C30.9 18.1 29.1 3.6 22.7 1.7 C16.4 -0.3 6.4 4.3 4.7 7.8 C3.2 10.7 2.5 14.8 2.9 18 z" opacity="0.15" id="r" /></g><g transform="translate(101.5, 74.79997) translate(25, 82)" id="s"><path d="M75.6 28.2 C72 20 73.4 11 71.2 5.7 C68.7 -0.3 56.9 0.4 42.1 0.4 C27.3 0.4 15.4 -0.2 13 5.7 C10.8 11 12.2 20 8.6 28.2 C4.8 36.7 7 39.4 6.3 52.6 C5.3 70.2 10.4 92.1 16.5 111.3 C18.2 116.8 22.2 118.4 25.8 119.2 C32.4 120.6 38.3 121 42.1 120.9 C46 121 51.9 120.6 58.4 119.2 C62 118.4 66 116.8 67.7 111.3 C72.7 95.6 77 78.1 77.8 62.6 C78 59.2 79.3 36.7 75.6 28.2 z" id="t" fill="#F4DFA9" /><path d="M75.6 28.2 C79.3 36.7 78 59.2 77.8 62.6 C77 78.1 72.7 95.6 67.7 111.3 C66 116.8 62 118.4 58.4 119.2 C51.9 120.6 46 121 42.1 120.9 L42.1 120.8 L42.1 120.9 C38.3 121 32.4 120.6 25.8 119.2 C22.2 118.4 18.2 116.8 16.5 111.3 C10.4 92.1 5.3 70.2 6.3 52.6 C7 39.4 4.8 36.7 8.6 28.2 C12.2 20 10.8 11 13 5.7 C15.4 -0.2 27.3 0.4 42.1 0.4 C56.9 0.4 68.7 -0.3 71.2 5.7 C73.4 11 72 20 75.6 28.2 z M74.1 27.9 C70.7 20 72 11.3 69.9 6.2 C67.5 0.4 56.2 1.1 42.1 1.1 C28 1.1 16.6 0.5 14.3 6.2 C12.2 11.3 13.5 20 10.1 27.9 C6.5 36.1 8.6 38.7 7.9 51.4 C6.9 68.4 11.8 89.6 17.6 108.1 C19.3 113.4 23.1 114.9 26.5 115.7 C32.8 117.1 38.5 117.5 42.1 117.4 C45.8 117.5 51.5 117.1 57.7 115.7 C61.1 114.9 64.9 113.4 66.6 108.1 C71.4 92.9 75.5 76.1 76.2 61.1 C76.4 57.8 77.7 36.1 74.1 27.9 z" opacity="0.15" id="u" /></g><g transform="translate(129.77, 171.43) scale(1.1, 1.197442) translate(-133.3, -172.8) translate(101.9, 71.19997) translate(31, 101)" id="v"><path d="M60.2 78.6 C60.9 58.3 69.1 43.8 69.1 23.9 C69.1 15.9 64.6 12.9 58.8 11.2 C53.9 9.7 51.4 8.5 47.9 6.3 C46.2 3.3 44.1 0.7 35.6 0.6 C27 0.7 25 3.3 23.3 6.3 C19.8 8.5 18.3 11 13.4 12.4 C7.6 14.1 1.7 25.4 3.3 33.2 C6.2 46.5 8.2 58 8.2 58 C8.2 58 11 71 10.9 78.7 C6 82 4.8 84.9 4.8 90 C5.1 91.8 24.2 94.4 26.4 90.6 C29.8 84.7 27.2 77.4 27.2 73.3 C27.2 67.2 27.4 58.2 27.5 48.5 C29.6 50.1 32.1 51.2 35.6 51.2 C39.1 51.2 41.6 50.1 43.7 48.5 C43.8 58.2 44 67.3 44 73.3 C44 77.4 41.4 84.8 44.8 90.6 C47 94.4 66.1 91.9 66.4 90 C66.3 84.8 65.1 81.8 60.2 78.6 z" id="w" fill="#FFF" /><path d="M12.3 9.7 C17.2 8.2 19.8 8.5 23.3 6.2 C23.5 6.3 26.7 8.5 24.4 14.6 C23.1 18 18.8 19.2 16.1 21.5 C11.2 25.7 11.3 33.7 10.6 40.2 C9.9 46.6 14.8 54.9 10.8 57.7 C9.9 58.4 9 58.5 8.1 57.9 C5 46.5 0.5 36.1 0.4 23.4 C0.5 15.4 6.6 11.4 12.3 9.7 z" id="x" fill="#FCF6CA" /><path d="M58.9 9.4 C53.9 7.9 51.3 8.2 47.6 5.8 C47.4 5.9 44.1 8.1 46.5 14.3 C47.8 17.7 52.2 18.9 55 21.3 C60 25.5 59.9 33.7 60.6 40.1 C61.3 46.6 56.3 55 60.4 57.8 C61.3 58.5 62.2 58.7 63.1 58 C66.3 46.5 70.9 36 70.9 23.2 C71 15.2 64.8 11.2 58.9 9.4 z" id="y" fill="#FCF6CA" /><path d="M63.9 55.3 C62.1 62.6 60.5 70.1 60.2 78.6 C65.1 81.8 66.3 84.8 66.4 90 C66.1 91.9 47 94.4 44.8 90.6 C41.4 84.8 44 77.4 44 73.3 C44 67.3 43.8 58.2 43.7 48.5 C41.6 50.1 39.1 51.2 35.6 51.2 C32.1 51.2 29.6 50.1 27.5 48.5 C27.4 58.2 27.2 67.2 27.2 73.3 C27.2 77.4 29.8 84.7 26.4 90.6 C24.2 94.4 5.1 91.8 4.8 90 C4.8 84.9 6 82 10.9 78.7 C11 71 8.2 58 8.2 58 C8.2 58 8.2 58 8.2 58 C8.2 58 8.1 58 8.1 57.9 C5 46.5 0.5 36.1 0.4 23.4 C0.5 15.4 6.6 11.4 12.3 9.7 C17.2 8.2 19.8 8.5 23.3 6.2 C23.3 6.2 23.3 6.2 23.3 6.2 C25 3.2 27 0.7 35.6 0.6 C43.6 0.7 46 3 47.6 5.8 C51.3 8.2 53.9 7.9 58.9 9.4 C64.8 11.2 71 15.2 70.9 23.2 C70.9 35 67 44.8 63.9 55.3 z M59.1 79.2 C59.4 71.1 60.9 60.9 62.6 53.9 C65.6 43.9 69.3 34.6 69.3 23.3 C69.4 15.7 63.5 11.9 57.9 10.2 C53 8.8 50.6 9 47 6.8 C45.5 4.1 43 1.6 35.3 1.5 C27.2 1.6 25.5 4.3 23.9 7.2 C20.6 9.4 18.1 9.1 13.4 10.5 C8 12.1 2.2 15.9 2.1 23.5 C2.2 35.6 6.5 45.5 9.5 56.4 C9.5 56.4 12.9 71.8 12.8 79.1 C8.1 82.2 6.9 82.3 6.9 87.1 C7.2 88.8 23.1 91.2 25.2 87.6 C28.4 82 25.4 74.7 25.4 70.8 C25.4 65 25 53.1 25.1 43.9 C27.1 45.4 32.2 49.9 35.6 49.9 C38.9 49.9 43.8 46.1 45.8 44.6 C45.9 53.8 45.8 66.5 45.8 72.2 C45.8 76.1 42.1 81.9 45.3 87.4 C47 90.3 63.8 88.3 63.8 87.9 C63.8 83.1 63.7 82.2 59.1 79.2 z" opacity="0.15" id="z" /></g></g><g transform="translate(168.5, 181.5) scale(0.9107345) translate(-168.5, -181.5)" id="a1"><g transform="translate(195.6, 113.6) rotate(-18, 0, 0) scale(1) translate(-195.6, -113.6) translate(92, 3) translate(88.8, 93.99997)" id="b1"><path d="M4.4 2.9 C7.1 -0.3 14.5 1.5 21.1 6.9 L25.4 10.5 C31.9 15.9 35 22.9 32.4 26.1 L32.4 26.1 C29.7 29.3 22.3 27.5 15.7 22.1 L11.4 18.5 C8.2 15.8 1.5 11.1 0.7 9.8 C-1.2 7.3 3 4.5 4.4 2.9 L4.4 2.9 z" id="c1" fill="#C08A3F" /></g><g transform="translate(140, 113.6) rotate(18, 0, 0) scale(1) translate(-140, -113.6) translate(16, 3) translate(93.5, 93.79997)" id="d1"><path d="M46.6 3.4 C43.9 0.2 36.5 2 29.9 7.4 L25.6 11 C19.1 16.4 16 23.4 18.6 26.6 L18.6 26.6 C21.3 29.8 28.7 28 35.3 22.6 L39.6 19 C42.8 16.3 49.5 11.6 50.3 10.3 C52.1 7.8 47.9 5 46.6 3.4 L46.6 3.4 z" id="e1" fill="#C08A3F" /></g><g transform="translate(95.4, 75.39997) translate(23, 22)" id="f1"><g id="g1"><path d="M8.2 28.4 C11 21.7 15.7 17.3 19.3 12.7 C22.9 8.1 31.7 5.6 37.3 4.5 C41.1 3.8 45.5 4.2 50.5 5.5 C52.6 4.5 55.6 4.2 59.5 4.5 C66.7 4.5 74.5 9 78.8 11.8 C83 14.6 91 25 93 28.4 C95 31.8 96.7 39.1 97.3 42.7 C97.9 46.3 97.3 55.3 94.7 60.3 C92.1 65.3 82.5 78 79.9 80.3 C76.4 83.4 71.5 86.4 67.9 88.5 C62.3 91.8 46 95 35.4 89.9 C31.5 88 25.1 85.8 20.9 82.2 C13.5 75.9 8.9 67.7 7 65.7 C4 62.7 1.8 55.5 2.5 50.3 C3.2 45.1 5.4 35.1 8.2 28.4 z" id="h1" fill="#F0B756" /><path d="M88.9 69.3 C87.1 71.9 85.2 74.6 83.6 76.7 C82.3 78.2 81.1 79.5 80.2 80.5 C79.9 80.8 79.6 81.2 79.2 81.6 C75.8 84.3 71.3 86.7 68.2 88.6 C62.6 91.8 46 95 35.4 89.9 C31.8 88.2 26.1 86.1 21.9 83 C21 82.2 20 81.4 19 80.5 C18.5 80 18 79.5 17.5 79 L14.9 76.1 C13 73.9 11.4 71.7 10.1 69.9 C9.3 68 8.6 65.7 8.1 63.2 C7.1 58 7.9 53.8 10.3 49.9 C11.7 47.6 14.6 45.6 18.9 43.8 C18.6 47.5 18.6 49.9 18.8 50.8 C20.2 56.9 23.9 61.2 30.3 59.2 C32.2 58.6 34.7 51 48.6 51 C62.5 51 62.5 57.9 68.7 59.7 C74.9 61.5 78.8 56.3 80.6 51.3 C82.4 46.3 80.5 43.1 80.1 42.6 C79.7 42.1 86.2 44 89.2 49 C92.2 54 92.5 57.7 90.4 64.5 C89.9 66.5 89.3 68.1 88.9 69.3 z" id="i1" fill="#FCF6CA" /><path d="M8.2 28.4 C11 21.7 15.7 17.3 19.3 12.7 C22.9 8.1 31.7 5.6 37.3 4.5 C41.1 3.8 45.5 4.2 50.5 5.5 C52.6 4.5 55.6 4.2 59.5 4.5 C66.7 4.5 74.5 9 78.8 11.8 C83 14.6 91 25 93 28.4 C95 31.8 96.7 39.1 97.3 42.7 C97.9 46.3 97.3 55.3 94.7 60.3 C92.1 65.3 82.5 78 79.9 80.3 C76.4 83.4 71.5 86.4 67.9 88.5 C62.3 91.8 46 95 35.4 89.9 C31.5 88 25.1 85.8 20.9 82.2 C13.5 75.9 8.9 67.7 7 65.7 C4 62.7 1.8 55.5 2.5 50.3 C3.2 45.1 5.4 35.1 8.2 28.4 z M10.1 28.4 C7.4 34.9 5.3 44.5 4.6 49.5 C3.9 54.5 6 61.4 8.9 64.3 C10.7 66.2 15.2 74.1 22.2 80.1 C26.2 83.6 32.3 85.8 36.1 87.5 C46.3 92.4 61.9 89.3 67.2 86.1 C70.6 84.1 75.3 81.2 78.7 78.2 C81.2 76 90.4 63.7 92.9 58.9 C95.4 54.1 96 45.4 95.4 42 C94.8 38.5 93.2 31.5 91.2 28.3 C89.2 25.1 81.6 15.1 77.6 12.4 C73.6 9.7 66.1 5.4 59.2 5.4 C55.5 5.1 52.6 5.5 50.6 6.4 C45.8 5.1 41.6 4.7 37.9 5.4 C32.5 6.4 24.1 8.8 20.7 13.3 C17.3 17.8 12.8 21.9 10.1 28.4 z" opacity="0.15" id="j1" /><path d="M32.7 10.5 C38.2 13.7 42.7 17.2 45.6 23.9 C48.5 30.6 47.2 33.2 49.4 33.2 C51.6 33.2 51.1 28.5 53.1 23.9 C55.1 19.3 60.7 14.2 66.5 10.5 C67.2 10 63.6 8.3 60.1 8.4 C56.9 8.6 52.2 10.5 50 10.5 C48 10.5 45 8.8 40.7 8.4 C34.9 7.9 29.5 8.7 32.7 10.5 z" id="k1" fill="#C08A3F" /></g></g><g transform="translate(140, 113.6) rotate(18, 0, 0) scale(1) translate(-140, -113.6) translate(93.5, 93.79997) translate(16, 3)" id="l1"><path d="M38.2 4.6 C35.1 5.9 32.5 6.7 30.9 8.3 C29.3 9.9 24.8 17.5 24.6 21.3 C24.4 25.1 26.7 37.9 24.8 47.1 C22.9 56.3 23.3 63.4 20 62.2 C16.7 61.1 18.3 57.7 13.3 51.4 C8.3 45.1 0.5 34.6 -0.1 30.8 C-0.8 27 7.1 20.1 13.5 15.4 C19.9 10.7 26.5 0.6 31.6 0.2 C36.7 -0.2 41.1 1.6 41.8 1.8 C42.5 2 41.2 3.3 38.2 4.6 z" id="m1" fill="#C08A3F" /><path d="M38.2 4.6 C35.1 5.9 32.5 6.7 30.9 8.3 C29.3 9.9 24.8 17.5 24.6 21.3 C24.4 25.1 26.7 37.9 24.8 47.1 C22.9 56.3 23.3 63.4 20 62.2 C16.7 61.1 18.3 57.7 13.3 51.4 C8.3 45.1 0.5 34.6 -0.1 30.8 C-0.8 27 7.1 20.1 13.5 15.4 C19.9 10.7 26.5 0.6 31.6 0.2 C36.7 -0.2 41.1 1.6 41.8 1.8 C42.5 2 41.2 3.3 38.2 4.6 z M35.9 4.3 C38.5 3.2 39.9 1.8 39.3 1.6 C38.7 1.4 36.2 0.6 31.8 0.9 C27.4 1.2 20.4 11.9 14.8 16.1 C9.2 20.3 1.1 25.2 1.7 28.5 C2.3 31.8 9.3 41 13.7 46.6 C18.1 52.2 16.7 55.2 19.6 56.1 C22.5 57.2 22.1 50.9 23.8 42.8 C25.5 34.6 23.5 23.4 23.6 20.1 C23.7 16.8 27.7 10.1 29.1 8.7 C30.3 7.3 33.3 5.4 35.9 4.3 z" opacity="0.15" id="n1" /></g><g transform="translate(195.6, 113.6) rotate(-18, 0, 0) scale(1) translate(-195.6, -113.6) translate(88.8, 93.99997) translate(92, 3)" id="o1"><path d="M8 4.4 C11.9 6.2 14.3 6.5 15.9 8.1 C17.5 9.7 22 17.5 22.2 21.3 C22.4 25.1 20.1 37.9 22 47.1 C23.9 56.3 23.5 63.4 26.8 62.2 C30.1 61.1 28.5 57.7 33.5 51.4 C38.5 45.1 46.3 34.6 47.1 30.8 C47.9 27 41.3 21.3 34.5 15.8 C27.6 10.3 20.5 0.6 15.3 0.2 C11.7 0 8.4 0.5 4.9 1.8 C4.4 2.4 5.4 3.2 8 4.4 z" id="p1" fill="#C08A3F" /><path d="M8 4.4 C5.4 3.2 4.4 2.4 4.9 1.8 C8.4 0.5 11.7 0 15.1 0.2 C20.3 0.6 27.4 10.3 34.3 15.8 C41.2 21.3 47.7 27 46.9 30.8 C46.1 34.6 38.2 45 33.3 51.4 C28.4 57.8 29.9 61.1 26.6 62.2 C23.3 63.4 23.7 56.3 21.8 47.1 C20 37.9 22.3 25 22.1 21.3 C21.9 17.5 17.4 9.6 15.8 8 C14.2 6.4 11.8 6.1 8 4.4 z M10.7 4.7 C14.2 6.3 16.3 7.4 17.7 8.9 C19.1 10.4 23.1 17.7 23.3 21.1 C23.5 24.5 21.8 35.8 23.5 44.1 C25.2 52.4 23.8 58.5 26.8 57.4 C29.8 56.4 28.3 53.4 32.8 47.8 C37.3 42.1 44.3 32.8 45 29.4 C45.7 26 39.8 20.8 33.6 16 C27.2 11 20.9 2.4 16.2 2 C13.1 1.8 11.2 0.8 8 2 C7.6 2.6 8.3 3.6 10.7 4.7 z" opacity="0.15" id="q1" /></g><g transform="translate(168.5, 166.5) scale(0.9) translate(-168.5, -166.5)" id="r1"><g transform="translate(101.2, 107.5) translate(42, 3)" id="s1"><path d="M49.9 76.8 C49.7 75.5 49.3 74.2 48.8 72.8 C47.8 70.2 46 67.8 43.8 65.3 C43 63.2 42.2 60.6 40.1 56.4 C38.2 52.7 32.7 53.1 30.1 47.3 C28.8 42 28.2 36.5 28.4 31.1 C28.4 30.4 28.5 29.6 28.4 28.9 C28.6 18.6 28.7 14.3 34.2 10 C36.3 8.4 39.1 8.4 39.2 6.8 C39.5 2.4 30.6 0.9 25.1 0.7 C19.5 0.9 10.6 2.4 11 6.8 C11.1 8.4 13.9 8.4 16 10 C21.5 14.3 21.6 18.6 21.8 28.9 C21.8 29.6 21.8 30.4 21.8 31.1 C22 36.6 21.4 42 20.1 47.3 C17.5 53.1 12.1 52.7 10.1 56.4 C8 60.6 7.1 63.2 6.4 65.3 C4.2 67.8 2.3 70.1 1.4 72.8 C0.9 74.2 0.5 75.5 0.3 76.8 C1.2 93.2 11.8 94.6 25.1 94 C38.3 94.6 48.9 93.2 49.9 76.8 z" id="t1" fill="#FFF" /><path d="M49.9 76.8 C48.9 93.2 38.3 94.6 25.1 94 C11.8 94.6 1.2 93.2 0.3 76.8 C0.5 75.5 0.9 74.2 1.4 72.8 C2.3 70.1 4.2 67.8 6.4 65.3 C7.1 63.2 8 60.6 10.1 56.4 C12.1 52.7 17.5 53.1 20.1 47.3 C21.4 42 22 36.6 21.8 31.1 C21.8 30.4 21.8 29.6 21.8 28.9 C21.6 18.6 21.5 14.3 16 10 C13.9 8.4 11.1 8.4 11 6.8 C10.6 2.4 19.5 0.9 25.1 0.7 C30.6 0.9 39.5 2.4 39.2 6.8 C39.1 8.4 36.3 8.4 34.2 10 C28.7 14.3 28.6 18.6 28.4 28.9 C28.5 29.6 28.4 30.4 28.4 31.1 C28.2 36.5 28.8 42 30.1 47.3 C32.7 53.1 38.2 52.7 40.1 56.4 C42.2 60.6 43 63.2 43.8 65.3 C46 67.8 47.8 70.2 48.8 72.8 C49.3 74.2 49.7 75.5 49.9 76.8 z M47.2 71.2 C46.2 68.7 44.3 66.5 42.2 64.1 C41.4 62.1 40.9 60.6 38.9 56.6 C37.1 53.1 31.3 52.6 28.8 47.1 C27.6 42 27.8 29.4 27.7 29 C27.9 19.2 28 14 33.3 9.9 C35.3 8.4 38.3 7.9 38.4 6.4 C38.9 3.2 30.4 1.2 25.2 1 C19.9 1.2 11.8 2.2 12.2 6.4 C12.4 8 15 8.5 17 10.1 C22.2 14.2 22 19.2 22.2 29 C22.2 29.7 22.5 43.6 20.6 47.9 C18.1 53.4 13.1 52.7 11.2 56.2 C9.2 60.2 8.3 62.2 7.6 64.2 C8.3 66.2 3.9 68.8 3 71.3 C2.5 72.6 2 73.6 1.8 74.8 C2.7 90.4 12.4 91.5 25.1 90.9 C37.7 91.5 47.7 91.5 48.7 75.9 C48.5 74.6 47.7 72.6 47.2 71.2 z" opacity="0.15" id="u1" /></g><g transform="translate(102.6, 94.69997) translate(51, 88)" id="v1"><g id="w1"><path d="M13 1.7 C13.1 7.2 12.5 10.3 11.3 11.3 C10.1 12.3 6.8 14.1 1.6 16.8 C0.6 17.5 0.4 18.3 1 19 C1.5 19.6 2.5 19.6 3.9 19 L14.4 13.3 C19.8 16.9 23 18.7 24.2 18.7 C24.8 18.7 26.2 18.7 26.4 18.3 C29.1 17.2 17.7 12.7 17.3 11.3 C17 10.3 16.5 7.1 15.7 1.8 C15.3 1.2 14.8 0.8 14.2 0.6 C13.7 0.5 13.3 0.8 13 1.7 z" id="x1" fill="#353535" /></g></g><g transform="translate(101.8, 86.09998) translate(57, 86)" id="y1"><g id="z1"><path d="M9.5 0.7 C3.4 0.7 0.3 2.6 0.2 6.7 C0.1 13.3 4.8 15.1 9.5 16.6 C14.1 15 18.9 13.2 18.8 6.7 C18.7 2.7 15.6 0.7 9.5 0.7 z" id="a2" fill="#332320" /><path d="M10.4 2.1 C8.3 2 6.2 2.3 4.3 2.9 C3.6 3.1 2.5 3.6 2.7 4.4 C3 5.8 11.1 4.3 13.8 3.7 C14 3.6 14.3 3.6 14.4 3.4 C15.5 2.5 10.9 2.1 10.4 2.1 z" id="b2" fill="#FFF" /></g></g><g transform="translate(107.3, 105.1) translate(28, 31)" id="c2"><g id="d2"><path d="M27.4 14.8 C22.7 14.2 24.5 5.1 19.1 1.5 C15.1 -1.3 8.2 2.3 5.5 4.5 C1.9 7.3 -0.5 10.3 0.1 14.8 C0.7 19.3 4 23.4 8.3 24.9 C11.9 26.1 15.9 25.6 19.5 24.1 C22 23 30.4 15.1 27.4 14.8 z" id="e2" fill="#F4DFA9" /><path d="M5.1 12.4 C5.1 10.8 7.5 10 9.7 8.3 C10.5 7.7 12 6.6 13.8 6.6 C16.3 6.6 18.1 8.3 19.3 10.3 C20.6 12.5 22.2 14.7 21.7 15.7 C21.2 16.9 18.6 17.2 16 18.1 C14.8 18.5 11.4 18.4 9.5 16.8 C7.5 15 5.1 13.3 5.1 12.4 z" id="f2" fill="#C08A3F" /><path d="M18.6 10.5 C18.4 10.1 18.2 9.8 17.9 9.5 C17.1 8.6 15.9 8.1 14.6 8.1 C13.9 8.1 13.3 8.3 12.7 8.5 C12.6 8.5 12.6 8.6 12.5 8.6 C12.3 8.7 12.1 8.8 11.9 8.9 C10.1 9.9 8.2 10.7 7.9 12.1 C7.7 13.1 9.8 14.7 11.6 16.1 C11.8 16.2 11.9 16.4 12.1 16.5 C12.1 16.5 12.2 16.5 12.2 16.6 C12.9 17 13.7 17.2 14.5 17.2 C14.7 17.2 14.9 17.2 15.1 17.1 L15.2 17.1 C15.5 17.1 15.7 17 16 16.9 C17.9 16.5 20.2 16.2 20.6 15 C21.1 14.2 19.9 12.3 18.6 10.5 z" id="g2" fill="#282421" /><path d="M11.5 12.4 C12 12.8 12.7 12.5 13.3 12.2 C14.5 11.6 17.1 10.9 17 10.4 C16.9 9.9 15.4 9.5 15.2 9.4 C14.5 9.2 13.5 9.2 12.9 9.5 C12.1 10 10.4 11.5 11.5 12.4 z" id="h2" fill="#FFFAF8" /></g></g><g transform="translate(104.3, 105.1) translate(68, 31)" id="i2"><g id="j2"><path d="M1.6 14.8 C6.3 14.2 5.3 5.1 10.6 1.5 C14.6 -1.3 20.8 2.3 23.5 4.5 C27.1 7.3 29.5 10.3 28.9 14.8 C28.3 19.3 25 23.4 20.7 24.9 C17.1 26.1 13.1 25.6 9.5 24.1 C6.9 23 -1.4 15.1 1.6 14.8 z" id="k2" fill="#F4DFA9" /><path d="M23.9 12.4 C23.9 10.8 21.5 10 19.3 8.3 C18.5 7.7 17 6.6 15.2 6.6 C12.7 6.6 10.9 8.3 9.7 10.3 C8.4 12.5 6.8 14.7 7.3 15.7 C7.8 16.9 10.4 17.2 13 18.1 C14.2 18.5 17.6 18.4 19.5 16.8 C21.5 15 23.9 13.3 23.9 12.4 z" id="l2" fill="#C08A3F" /><path d="M17.1 9 C16.9 8.9 16.7 8.8 16.5 8.7 C16.4 8.7 16.4 8.6 16.3 8.6 C15.7 8.3 15.1 8.2 14.4 8.2 C13.1 8.2 12 8.7 11.1 9.6 C10.8 9.9 10.5 10.3 10.3 10.7 C9.1 12.4 7.8 14.4 8.2 15.3 C8.7 16.5 10.9 16.8 12.8 17.2 C13.1 17.3 13.3 17.4 13.6 17.4 L13.7 17.4 C13.9 17.4 14.1 17.4 14.3 17.4 C15.2 17.4 15.9 17.2 16.6 16.7 C16.6 16.7 16.7 16.7 16.7 16.6 C16.9 16.5 17.1 16.3 17.2 16.2 C19.1 14.8 21.1 13.2 20.9 12.2 C20.8 10.8 18.9 10.1 17.1 9 z" id="m2" fill="#282421" /><path d="M11.1 12 C11.6 12.4 12.3 12.1 12.9 11.8 C14.1 11.2 16.7 10.5 16.6 10 C16.5 9.5 15 9.1 14.8 9 C14.1 8.8 13.1 8.8 12.5 9.1 C11.6 9.5 9.9 11.1 11.1 12 z" id="n2" fill="#FFFAF8" /></g></g></g></g></g></g><defs><g transform="translate(17.09519, 0.800995) translate(-135.2952, -293.601)" id="o2" fill="#000"><path d="M118.2 302.7 C118.4 307.4 132.5 311.2 149.8 311.2 C167.1 311.2 181.2 307.4 181.4 302.7 C181.4 307.5 181.4 310.1 181.4 310.5 C181.4 315.3 167.3 319.1 149.8 319.1 C132.3 319.1 118.2 315.2 118.2 310.5 L118.2 302.7 L118.2 302.7 z" fill-opacity="0.4528" id="p2" fill="#593001" /><path d="M118.7 301.7 C118.9 306.4 133 310.2 150.3 310.2 C167.6 310.2 181.7 306.4 181.9 301.7 C181.9 306.5 181.9 309.1 181.9 309.5 C181.9 314.3 167.8 318.1 150.3 318.1 C132.8 318.1 118.7 314.2 118.7 309.5 L118.7 301.7 L118.7 301.7 z" id="q2" fill="#DA8113" /><linearGradient x1="46.0545" y1="-118.6926" x2="45.4656" y2="-118.6926" gradientUnits="userSpaceOnUse" gradientTransform="matrix(117.135, 0, 0, 28.4634, -5208.417, 3687.795)" id="r2"><stop offset="0%" stop-color="#D9952A" stop-opacity="1" /><stop offset="6.438854%" stop-color="#CA7519" stop-opacity="1" /><stop offset="30.54%" stop-color="#E3AD3A" stop-opacity="1" /><stop offset="51.05%" stop-color="#FFEC91" stop-opacity="1" /><stop offset="68.8%" stop-color="#E9BD44" stop-opacity="1" /><stop offset="86.24%" stop-color="#FFED6C" stop-opacity="1" /><stop offset="93.87%" stop-color="#F2D353" stop-opacity="1" /><stop offset="100%" stop-color="#F2B947" stop-opacity="1" /></linearGradient><path d="M118.2 301.6 C118.4 306.1 132.7 309.7 150.3 309.7 C167.9 309.7 182.2 306.1 182.4 301.6 C182.4 306.2 182.4 308.7 182.4 309 C182.4 313.5 168 317.2 150.3 317.2 C132.6 317.2 118.2 313.5 118.2 309 L118.2 301.6 L118.2 301.6 z" id="s2" style="fill:url(#r2)" /><linearGradient x1="45.4914" y1="-117.9547" x2="45.9407" y2="-117.5895" gradientUnits="userSpaceOnUse" gradientTransform="matrix(115.425, 0, 0, 29.925, -5125.077, 3826.124)" id="t2"><stop offset="0%" stop-color="#F4E072" stop-opacity="1" /><stop offset="100%" stop-color="#DB9427" stop-opacity="1" /></linearGradient><ellipse cx="150.3" cy="301.5" rx="31.6" ry="8.2" id="u2" style="fill:url(#t2)" /><linearGradient x1="45.4656" y1="-126.0065" x2="46.0545" y2="-126.0065" gradientUnits="userSpaceOnUse" gradientTransform="matrix(117.135, 0, 0, 18.6219, -5208.417, 2651.479)" id="v2"><stop offset="0%" stop-color="#D9952A" stop-opacity="1" /><stop offset="6.438854%" stop-color="#CA7519" stop-opacity="1" /><stop offset="30.54%" stop-color="#E3AD3A" stop-opacity="1" /><stop offset="51.05%" stop-color="#FFEC91" stop-opacity="1" /><stop offset="68.8%" stop-color="#E9BD44" stop-opacity="1" /><stop offset="86.24%" stop-color="#FFED6C" stop-opacity="1" /><stop offset="93.87%" stop-color="#F2D353" stop-opacity="1" /><stop offset="100%" stop-color="#F2B947" stop-opacity="1" /></linearGradient><path d="M119.2 299.9 C119 300.2 118.9 300.6 118.9 301 C118.9 305.5 132.9 309.2 150.3 309.2 C167.7 309.2 181.7 305.5 181.7 301 C181.7 300.6 181.6 300.3 181.4 299.9 C182 300.5 182.4 301.2 182.4 301.9 C182.4 306.4 168 310.1 150.3 310.1 C132.6 310.1 118.2 306.4 118.2 301.9 C118.2 301.3 118.6 300.6 119.2 299.9 z" id="w2" style="fill:url(#v2)" /><linearGradient x1="45.196" y1="-121.5895" x2="45.3746" y2="-120.6758" gradientUnits="userSpaceOnUse" gradientTransform="matrix(101.745, 0, 0, 23.94, -4458.332, 3199.41)" id="x2"><stop offset="0%" stop-color="#F8DD61" stop-opacity="1" /><stop offset="100%" stop-color="#EAA330" stop-opacity="1" /></linearGradient><ellipse cx="150.3" cy="300.8" rx="27.8" ry="6.6" id="y2" style="fill:url(#x2)" /><linearGradient x1="45.5694" y1="-134.267" x2="45.0221" y2="-134.267" gradientUnits="userSpaceOnUse" gradientTransform="matrix(101.745, 0, 0, 13.2525, -4458.332, 2077.223)" id="z2"><stop offset="0%" stop-color="#F4CA2F" stop-opacity="1" /><stop offset="51.38%" stop-color="#BF7737" stop-opacity="1" /><stop offset="100%" stop-color="#E4A929" stop-opacity="1" /></linearGradient><path d="M122.6 301.5 C122.5 301.3 122.4 301 122.4 300.8 C122.4 297.2 134.9 294.2 150.2 294.2 C165.5 294.2 178 297.1 178 300.8 C178 301 177.9 301.3 177.8 301.5 C176.3 298.2 164.5 295.6 150.1 295.6 C135.7 295.6 124.1 298.2 122.6 301.5 z" id="a3" style="fill:url(#z2)" /></g></defs><desc>J8ADE6D2FGE,7CazP/7NT8WzeLoruOllqH0pZSyy0NKzZOoH8pBrHoMuvi/Jk/GE8zOD3tsXy7IwF5XtPQ273wMU8NGnCblDtYrvFdt0fFiLYze1RDTysWSC4nJA2p92KxtMsJWMbGU6qC2WdbUlU8mvI5ZAwcWbsw==</desc></svg>