<?xml version="1.0" encoding="utf-8"?><!DOCTYPE svg PUBLIC "-//W3C//DTD SVG 1.1//EN" "http://www.w3.org/Graphics/SVG/1.1/DTD/svg11.dtd"><svg x="0" y="0" width="340px" height="340px" viewBox="0, 0, 340, 340" preserveAspectRatio="xMidYMid" font-size="0" id="a" enable-background="new 0 0 340 340" xmlns="http://www.w3.org/2000/svg" xmlns:xlink="http://www.w3.org/1999/xlink" xmlns:xml="http://www.w3.org/XML/1998/namespace" version="1.1"><g id="b" fill="#000"><g transform="translate(210.1952, 245.501)" id="c"><ellipse cx="32.5" cy="17.5" rx="37.3" ry="13.2" opacity="0.15" id="d" /><use xlink:href="#e" x="0.86" y="0" /></g><g transform="translate(64.99519, 245.001)" id="f"><ellipse cx="32.5" cy="17.5" rx="37.3" ry="13.2" opacity="0.15" id="g" /><use xlink:href="#e" x="0.97" y="0" /></g></g><g id="h" fill="#000"><g id="i"><g transform="translate(0, 0) translate(0, 224)" id="j"><ellipse cx="168.6" cy="53.1" rx="57.8" ry="12.8" fill-opacity="0.25" id="k" /></g><g id="l"><g transform="translate(106.1, 96.09999) translate(0, 107)" id="m"><path d="M40.6 27.9 C34 31.5 24.6 28.4 21.5 21.6 C18.3 14.8 22.1 5.6 29.1 2.9 C26.8 1.1 24 0.4 21.1 0.5 C14.8 0.4 8.4 3.4 4.6 8.5 C0.4 14.2 -0.4 22.4 2.6 28.8 C5 25 5 25 7.5 21.2 C3.5 28.9 6.9 30.6 12.1 37.6 C12.7 35.3 13.2 33.9 14.9 32.7 C14.9 34.9 14.9 36.4 15.5 38.3 C16.2 40.7 16.7 41.1 17.2 42.4 C18.3 42.5 19.3 42.1 20.1 41.4 L19.9 44.6 C20.7 44.8 23.2 44.2 24 44.4 C29.1 44.6 37.1 44.8 40.7 39.1 C44.6 33.4 40.6 27.9 40.6 27.9 z" id="n" fill="#66493D" /><path d="M40.6 27.9 C40.6 27.9 44.6 33.4 40.7 39.1 C37.1 44.8 29.1 44.6 24 44.4 C23.2 44.2 20.7 44.8 19.9 44.6 L20.1 41.4 C19.3 42.1 18.3 42.5 17.2 42.4 C16.7 41.1 16.2 40.7 15.5 38.3 C14.9 36.4 14.9 34.9 14.9 32.7 C13.2 33.9 12.7 35.3 12.1 37.6 C6.7 30.2 3.4 28.6 7.5 21.2 C5 25 5 25 2.6 28.8 C-0.4 22.4 0.4 14.2 4.6 8.5 C8.4 3.4 14.8 0.4 21.1 0.5 C24 0.4 26.8 1.1 29.1 2.9 C22.1 5.6 18.3 14.8 21.5 21.6 C24.6 28.4 34 31.5 40.6 27.9 z M40.3 29.6 C34.4 32.8 23.7 28 20.9 21.9 C18.1 15.8 20.5 4.9 26.7 2.5 C24.6 0.9 22 1.4 19.4 1.5 C13.7 1.4 9.9 3.6 6.4 8.2 C2.7 13.4 1 18.7 3.6 24.5 C5.8 21.1 6.3 21.6 8.6 18.2 C7.6 23.9 7.9 29.4 11.5 33.8 C12 31.7 13.9 31.5 15.5 30.4 C15.5 32.4 15.8 34.4 16.4 36.1 C17.2 39.1 20.7 40.1 21.4 39.5 L21.6 42.5 C22.3 42.7 25.9 42.3 26.7 42.5 C31.3 42.7 37.2 42.7 40.4 37.5 C41.8 34.9 40.6 31.9 40.3 29.6 z" opacity="0.16" id="o" /></g><g transform="translate(127.7, 273.3) scale(1.269165) translate(-127.7, -273.3) translate(97.09999, 79.79997) translate(19, 139)" id="p"><g id="q"><g opacity="0.4" transform="translate(0, 1)" id="r"><path d="M18.5 0.9 C11.9 2.4 9.5 4.8 7.3 7.6 C5.1 10.4 6.7 11.2 6.6 12.4 C6.5 13.7 4.7 15.1 3.8 16.8 C2.9 18.5 0.4 21.3 0.8 23.1 C1 24.3 7.1 19.9 8.5 18.7 C7.6 19.3 3 24.9 2.6 26.8 C2 29.5 1.1 32.1 1.9 34.6 C2.7 37.1 3.7 38.3 4.5 38.7 C4.8 38.9 6.8 38.7 7.1 39.3 C7.5 40 6.2 41.4 5.9 42.2 C5.4 43.7 6.4 44.3 7.3 45.1 C8.2 45.9 10 47.9 11.3 49.1 C12.6 50.3 13.4 51.7 13.7 53.2 C13.8 54.1 14.9 54.8 17 55.3 C21.8 55.9 24.9 55.9 26.3 55.3 C28.4 54.4 31.3 51.9 32.7 38.5 C34.1 25.1 32.7 12.5 31.2 9.7 C29.7 6.9 25.1 -0.5 18.5 0.9 z" stroke="#000000" stroke-width="3" opacity="0.4" id="s" /></g><path d="M18.5 0.9 C11.9 2.4 8.9 4.4 7.3 7.6 C5.7 10.8 6 11.8 5.9 13 C5.8 14.3 4.2 15.1 3.3 16.8 C2.4 18.5 0.9 21.8 1.3 23.6 C1.5 24.8 2.4 24.8 3.8 23.6 C2.9 24.2 2.3 25.4 1.9 27.3 C1.3 30 1.1 31.8 1.9 34.3 C2.7 36.8 3.6 39.2 4.4 39.6 C5.1 40 6.4 40.7 5.9 42.2 C5.4 43.7 6.4 44.3 7.3 45.1 C8.2 45.9 10 47.9 11.3 49.1 C12.6 50.3 13.4 51.7 13.7 53.2 C13.9 54.6 15.8 55.9 17 56 C18.3 56.1 24.2 56.2 26.3 55.3 C28.4 54.4 31.3 51.9 32.7 38.5 C34.1 25.1 32.7 12.5 31.2 9.7 C29.7 6.9 25.1 -0.5 18.5 0.9 z" id="t" fill="#AA6F4F" /><g opacity="0.2" transform="translate(3, 46)" id="u"><path d="M7.5 0.8 C2.6 3.3 1.3 5.9 0.5 9.4 C-0.3 12.1 5.6 12.5 8.6 11.8 C11.6 11.1 16.6 11.6 16.6 10.3 C16.6 9 17.3 8.8 16.6 5.5 C16.2 3.5 14.9 2.6 12.6 1.8 C11.3 1.3 9.3 -0.2 7.5 0.8 z" stroke="#000000" stroke-width="3" opacity="0.2" id="v" /></g><path d="M10.4 46.1 C5.5 48.6 4 49.8 3.4 53.7 C2.8 57.6 8.9 58.2 11.9 57.5 C14.9 56.8 19.7 56.6 19.7 55.3 C19.7 54 20.4 53.8 19.7 50.5 C19.3 48.5 18 47.6 15.7 46.8 C14.3 46.3 12.2 45.1 10.4 46.1 z" id="w" fill="#E8E5E3" /></g></g><g transform="translate(212.2, 273.3) scale(1.269165) translate(-212.2, -273.3) translate(96.7, 79.79997) translate(108.5, 168.5) scale(-1, 1) translate(-108.5, -168.5) translate(91, 139)" id="x"><g transform="translate(17.5, 29.5) scale(-1, 1) translate(-17.5, -29.5)" id="y"><g opacity="0.15" transform="translate(0, 1)" id="z"><path d="M15.8 1.1 C19.6 2.1 22.4 0.7 24.7 3.2 C27 5.7 28.8 6 29 8.5 C29.2 11 32.3 13.9 31.1 13.1 C33 15.7 29.7 14.2 31.9 17 C34.1 19.8 35.1 21.6 34.7 24.6 C33.9 24.6 30.8 20.4 31.1 22.7 C31.3 23.8 33.1 26.8 33.7 28.5 C34.3 30.4 33.2 33.6 33 35.5 C32.7 38.1 33.4 41.3 33 41.8 C32.5 42.4 27.3 34.6 27.9 36.1 C28.8 38.4 31.4 43.8 30.5 46.4 C29.6 49 29.8 48.1 26.9 50.3 C24 52.5 26.2 53.1 22.6 54.7 C19 56.3 10.1 56.7 7 53.2 C3.9 49.7 -0.4 34.5 0.7 28.4 C1.8 22.3 2.3 10.2 6 6.7 C9.7 3.2 12 0.1 15.8 1.1 z" stroke="#000000" stroke-width="3" opacity="0.15" id="a1" /></g><path d="M15.8 1.1 C19.6 2.1 22.4 0.7 24.7 3.2 C27 5.7 29.8 6.3 30 8.8 C30.2 11.3 32.3 13.9 31.1 13.1 C33 15.7 29.7 14.2 31.9 17 C34.1 19.8 34.9 22.8 34.5 25.8 C33.7 25.8 31.6 22.4 31.9 24.7 C32.1 25.8 33.9 27.8 34.5 29.5 C35.1 31.4 33.2 33.7 33 35.6 C32.7 38.2 32.4 41.5 32 42 C31.5 42.6 29.6 39.6 30.2 41.1 C31.1 43.4 31.1 43.5 30.2 46.1 C29.3 48.7 28.4 47.6 25.5 49.8 C22.6 52 26.3 53.3 22.7 54.9 C19.1 56.5 10.2 56.9 7.1 53.4 C4 49.9 -0.3 34.7 0.8 28.6 C1.9 22.5 2.3 10.2 6 6.7 C9.7 3.2 12 0.1 15.8 1.1 z" id="b1" fill="#AA6F4F" /><g opacity="0.2" transform="translate(16, 46)" id="c1"><path d="M10.5 1.1 C15.4 3.6 17.4 6.8 17.4 9.3 C17.4 11.8 11.8 12.8 8.8 12.1 C5.8 11.4 3.6 11.2 1.6 11.2 C-0.4 11.2 -0.1 10.1 0.6 6.8 C1 4.7 2.2 3.1 4.6 2.4 C6.1 1.9 8.7 0.2 10.5 1.1 z" stroke="#000000" stroke-width="3" opacity="0.2" id="d1" /></g><path d="M26.5 46.1 C31.4 48.6 32.9 49.8 33.5 53.7 C34.1 57.6 28 58.2 25 57.5 C22 56.8 19.7 56.2 17.7 56.2 C15.7 56.2 16 55.1 16.7 51.8 C17.1 49.7 18.3 48.1 20.7 47.4 C22.1 46.9 24.7 45.2 26.5 46.1 z" id="e1" fill="#E8E5E3" /></g></g><g transform="translate(91.50001, 85.89998) translate(37, 51)" id="f1"><g transform="translate(3, 0)" id="g1"><path d="M61 19.7 C61 35.9 63.7 34.2 65.4 38.8 C67.1 43.4 74 52.4 75.2 65.1 C76.4 77.8 75.8 91.7 71.8 103.4 C67.8 115.1 70.7 136.2 61.1 138.9 C60.8 139 29.3 142 17.6 138.9 C5.5 135.7 11.4 122.7 6.1 105.5 C0.8 88.3 -0.2 79.6 0.1 65.1 C0.4 50.6 10.3 43.5 12.1 38.7 C13.9 33.9 16.2 32 16.2 19.6 C16.2 7.2 24.2 0.2 41.6 0.7 C46.8 0.9 61 3.4 61 19.7 z" id="h1" fill="#EBB67F" /><path d="M61 19.7 C61 35.9 63.7 34.2 65.4 38.8 C67.1 43.4 74 52.4 75.2 65.1 C76.4 77.8 75.8 91.7 71.8 103.4 C67.8 115.1 70.7 136.2 61.1 138.9 C60.8 139 29.3 142 17.6 138.9 C5.5 135.7 11.4 122.7 6.1 105.5 C0.8 88.3 -0.2 79.6 0.1 65.1 C0.4 50.6 10.3 43.5 12.1 38.7 C13.9 33.9 16.2 32 16.2 19.6 C16.2 7.2 24.2 0.2 41.6 0.7 C46.8 0.9 61 3.4 61 19.7 z M60.2 20.5 C60.2 4.8 46.6 2.4 41.5 2.2 C24.6 1.7 16.9 8.5 16.9 20.4 C16.9 32.3 14.7 34.1 12.9 38.8 C11.2 43.5 1.7 50.4 1.4 64.3 C1.1 78.2 2 86.7 7.2 103.2 C12.4 119.7 6.6 132.4 18.2 135.4 C29.5 138.4 59.9 135.5 60.2 135.4 C69.5 132.8 66.8 112.4 70.5 101.2 C74.4 90 75 76.6 73.8 64.3 C72.6 52 65.9 43.3 64.4 38.9 C62.8 34.5 60.2 36.1 60.2 20.5 z" opacity="0.15" id="i1" /></g></g><g transform="translate(126.7868, 188.53) scale(0.9730265, 0.9981133) translate(-125.6, -188.5) translate(96.59999, 80.19998) translate(73, 157) scale(-1, 1) translate(-73, -157) translate(29, 109)" id="j1"><g id="k1"><g id="l1"><g opacity="0.21" transform="translate(10, 82)" id="m1"><path d="M1.6 5.5 C2.8 3.7 3.6 1.5 6.5 1.3 C9.4 1.1 11.2 -0.3 14.5 0.2 C17.8 0.7 22 2.4 22 5.5 C22 8.6 22.4 9.6 22 9.8 C19.2 11.2 15.8 11.2 11.7 11.8 C8.3 12.3 1.9 12.1 0.7 11 C0.4 10.1 0.4 7.3 1.6 5.5 z" stroke="#000000" stroke-width="3" opacity="0.21" id="n1" /></g><path d="M11.6 86.5 C12.8 84.7 13.6 82.5 16.5 82.3 C19.4 82.1 21.2 80.7 24.5 81.2 C27.8 81.7 32 83.4 32 86.5 C32 89.6 30.9 90.9 30.5 91.1 C27.7 92.5 25.8 92.2 21.7 92.8 C18.3 93.3 13.5 93.9 12.3 92.8 C11.1 91.9 10.4 88.3 11.6 86.5 z" id="o1" fill="#DDD5CD" /><g opacity="0.2" transform="translate(0, 1)" id="p1"><path d="M10.3 6.6 C10.5 6.4 10.8 6.1 11 6 C11.1 6 11.1 5.9 11.2 5.9 C11.1 6.6 11.2 7.4 11.5 8.2 C11.5 8.3 13.1 9.1 13.9 9.6 C14 10.2 14.1 10.9 14.3 11.5 C14.4 11.8 14.5 12.1 14.7 12.4 C14.8 12.5 15.4 12.7 15.9 12.9 C16.4 13.8 17.1 14.6 18.2 15.2 C18.6 15.4 19.1 15.6 19.4 15.8 C19.6 16.1 20 16.8 20.2 17.1 C21.1 17.6 21.8 17.7 22.3 18.2 C22.9 18.3 23.8 18.6 24.2 18.7 C26.3 20.7 23.8 21.3 25.5 26.3 C25.9 27.5 27.3 30.9 27.9 31.9 C29.1 33.9 33.1 33.9 33.9 36.1 C34.3 37.3 33.8 39.7 34.5 40.5 C35.2 41.3 36.9 42.4 37.2 44.6 C37.3 45.3 34.6 45.8 34.8 47.1 C35 48.4 37.7 50.7 37.8 51.4 C38.3 53.6 34.7 51.4 34.8 53 C34.9 53.8 41.1 59.3 41.5 61.1 C41.6 61.6 40.5 62.4 40 62.2 C39.9 62.6 39.1 62.2 38.4 61.9 C39.1 63.5 39.7 63.4 40 64.3 C40.9 66.7 41.5 66.4 41.8 68.1 C41.9 69 39.4 69.6 39.4 70.3 C39.4 71.1 40.5 73.8 40.5 74.9 C40.2 75.9 38.1 73.7 37.9 74.6 C37.3 77.4 37.2 80.1 36.2 81.5 C35.5 82.5 34.8 84.1 34.1 84.5 C33.5 85.9 27.4 81.8 25.3 81.5 C23.3 81.2 21.3 81.5 19.5 81.5 C18.1 81.5 15.3 83.9 13.2 84.5 C12.9 84.6 12.5 82.9 12.4 82.8 C11.3 81.9 9.8 80.8 7.2 75.3 C4.6 69.8 4.9 67.4 4.6 63.3 C4.3 59.2 1.4 52.8 0.7 47.1 C0 41.4 1.9 30.9 1.9 27.1 C1.9 23.3 3.2 20.6 2.1 15.2 C1.8 13.8 1.1 12.4 1.3 11.5 C2 8.6 5.4 2.1 8 1.2 C12.5 -0.5 10 3 10.3 6.6 z" stroke="#000000" stroke-width="3" opacity="0.2" id="q1" /></g><path d="M8 1.2 C5.4 2.1 1.4 9.5 0.7 12.4 C0.5 13.3 1 14.4 1.3 15.8 C2.4 21.2 1.3 23.5 1.3 27.3 C1.3 31.1 0 41.4 0.7 47.1 C1.4 52.8 4.2 59.2 4.5 63.3 C4.8 67.4 5.4 69.3 8 74.8 C10.6 80.3 11.2 81.9 12.3 82.8 C12.4 82.9 12.9 84.1 13.2 84 C15.3 83.4 17.9 82.3 19.3 82.3 C21.1 82.3 24 82 26 82.3 C28.1 82.6 30.9 85.1 32.2 84.5 C33 84.1 34.6 82.5 35.2 81.5 C36.2 80 36.4 78.7 37 76 C37.2 75.1 37.9 75.7 38.4 74.8 C39 73.7 38.4 71.2 38.4 70.3 C38.4 69.6 40.1 69.5 40 68.6 C39.8 67 40.9 67.5 40 65.1 C39.6 64.1 38.1 63.4 37.5 62 C37 60.9 40.3 63.2 40 62 C39.5 60.2 35.5 55.1 35.3 54.2 C34.9 52.7 37.1 54.7 37.1 53.2 C37 51.5 35.8 50.5 35.3 48.3 C35 47 36.3 46.3 36.1 44.9 C35.7 42.7 34.4 41.4 33.7 40.5 C33 39.7 33.3 37.4 32.8 36.2 C32 34 28.7 33.9 27.5 31.9 C26.9 30.9 25.8 27.4 25.4 26.2 C23.8 21.2 25.1 20.6 22.9 18.6 C21.8 17.6 20.3 16.7 17.3 15.3 C14.8 14.1 14.6 11.5 13.5 10 C13.4 9.8 10.6 8.4 10.6 8.2 C9.1 4.1 13.1 -0.7 8 1.2 z" id="r1" fill="#F9F9F9" /><path d="M8 1.2 C5.4 2.1 1.4 9.5 0.7 12.4 C0.5 13.3 1 14.4 1.3 15.8 C2.4 21.2 1.3 23.5 1.3 27.3 C1.3 31.1 0 41.4 0.7 47.1 C1.4 52.8 4.2 59.2 4.5 63.3 C4.8 67.4 5.4 69.3 8 74.8 C10.6 80.3 11.2 81.9 12.3 82.8 C12.4 82.9 12.9 84.1 13.2 84 C15.3 83.4 17.9 82.3 19.3 82.3 C21.1 82.3 24 82 26 82.3 C28.1 82.6 30.9 85.1 32.2 84.5 C33 84.1 34.6 82.5 35.2 81.5 C36.2 80 36.4 78.7 37 76 C37.2 75.1 37.9 75.7 38.4 74.8 C39 73.7 38.4 71.2 38.4 70.3 C38.4 69.6 40.1 69.5 40 68.6 C39.8 67 40.9 67.5 40 65.1 C39.6 64.1 38.1 63.4 37.5 62 C37 60.9 40.3 63.2 40 62 C39.5 60.2 35.5 55.1 35.3 54.2 C34.9 52.7 37.1 54.7 37.1 53.2 C37 51.5 35.8 50.5 35.3 48.3 C35 47 36.3 46.3 36.1 44.9 C35.7 42.7 34.4 41.4 33.7 40.5 C33 39.7 33.3 37.4 32.8 36.2 C32 34 28.7 33.9 27.5 31.9 C26.9 30.9 25.8 27.4 25.4 26.2 C23.8 21.2 25.1 20.6 22.9 18.6 C21.8 17.6 20.3 16.7 17.3 15.3 C14.8 14.1 14.6 11.5 13.5 10 C13.4 9.8 10.6 8.4 10.6 8.2 C9.1 4.1 13.1 -0.7 8 1.2 z" id="s1" fill="#66493D" /><path d="M11.5 8.2 C11.5 8.3 13.1 9.1 13.9 9.6 C14 10.5 14.2 11.5 14.7 12.4 C14.7 12.5 15.3 12.7 15.9 12.9 C16.4 13.8 17.1 14.6 18.2 15.2 C18.6 15.4 19.1 15.6 19.4 15.8 C20.1 16.8 21 17.7 22.5 18.2 C23 18.3 23.4 18.5 23.8 18.6 C25.9 20.6 24.6 21.2 26.3 26.2 C26.7 27.4 27.8 30.9 28.4 31.9 C29.6 33.9 32.9 34 33.7 36.2 C34.1 37.4 33.9 39.7 34.6 40.5 C35.3 41.3 36.7 42.7 37 44.9 C37.2 46.3 35.9 47 36.2 48.3 C36.7 50.5 37.9 51.6 38 53.2 C38.1 54.8 35.8 52.7 36.2 54.2 C36.5 55.1 40.5 60.2 40.9 62 C41.2 63.2 37.9 60.9 38.4 62 C39.1 63.5 40.6 64.2 40.9 65.1 C41.8 67.5 40.7 66.9 40.9 68.6 C41 69.5 39.3 69.6 39.3 70.3 C39.3 71.1 39.9 73.7 39.3 74.8 C38.8 75.7 38.1 75.1 37.9 76 C37.3 78.8 37.1 80.1 36.1 81.5 C35.4 82.5 33.8 84.1 33.1 84.5 C31.8 85.1 29 82.6 26.9 82.3 C26.7 82.3 26.5 82.3 26.3 82.2 C25.6 81.2 24.8 80 23.7 78.5 C22.5 76.8 21.9 75.4 20.9 74 C20 72.7 18.6 71.3 18.3 70.4 C17.8 69.3 18.7 69.2 18.3 67.8 C18.2 67.6 17.2 66.4 17.1 65.9 C16.9 64.7 17.6 63.9 17.1 63.1 C16.2 61.6 14.7 61.8 13.8 60.1 C12.9 58.4 12.9 56.7 12.2 55.1 C11.7 53.9 12.1 53.6 11.7 52.5 C11.5 51.3 11.5 49 11 47 C10.7 45.8 9.7 44.9 9.6 43.8 C9.4 42.2 10.3 41.9 9.9 40.5 C9.5 38.9 8.6 38.1 8.2 37.1 C7.6 35.7 9.2 33.9 9 32.9 C8.8 31.7 8.2 30 8.2 28.9 C8.1 26.6 8.4 25.1 7 21.6 C6.5 20.2 5.7 19.2 5.8 18.3 C5.9 15.3 8.6 7.4 11 6 C11.1 6 11.1 5.9 11.2 5.9 C11.1 6.6 11.2 7.4 11.5 8.2 z" id="t1" fill="#F9F9F9" /></g><g transform="translate(46, 1)" id="u1"><g opacity="0.2" transform="translate(9, 81)" id="v1"><path d="M20.8 7 C19.6 5.2 19.5 2.3 16.6 2 C13.7 1.8 10.9 0.4 7.6 0.9 C5.7 1.2 2.7 0.9 1.2 2 C0 2.8 0.1 4.9 0.1 6.2 C0.1 9.3 0.2 9.4 0.5 9.9 C1.7 11.8 5.9 11.7 10 12.2 C13.4 12.7 20.3 12.5 21.8 11.6 C22.2 11.3 21.9 8.9 20.8 7 z" stroke="#000000" stroke-width="3" opacity="0.2" id="w1" /></g><path d="M29.8 87 C28.6 85.2 28.5 82.3 25.6 82 C22.7 81.8 19.9 80.4 16.6 80.9 C14.7 81.2 11.7 80.9 10.2 82 C9 82.8 9.1 84.9 9.1 86.2 C9.1 89.3 10.7 90.8 11.1 91 C13.9 92.4 15.3 92 19.4 92.5 C22.8 93 27.1 92.8 29 92.1 C30.6 91.5 30.9 88.9 29.8 87 z" id="x1" fill="#DDD5CD" /><g opacity="0.2" transform="translate(0, 1)" id="y1"><path d="M38.1 9.5 C38 10.4 40 11.7 39.7 13.1 C39.3 15 40.8 16.1 40.9 17.5 C41.1 19.1 40.4 20.4 40.4 21.8 C40.4 22.9 41.8 25.6 41.8 26.9 C41.8 28.2 40.9 28.4 40.9 30.3 C40.9 31.5 41.7 33.3 41.8 34.8 C41.9 36.2 40.6 36.6 40.3 37.7 C39.8 39.3 41.8 41.7 41.8 43.2 C41.8 44.4 38.2 40.4 38.2 41.5 C38.3 43.8 40.5 45.4 40.3 47.1 C40.3 47.3 38.2 47.2 38.2 47.9 C38.1 49.4 40.6 50.5 40.3 51.6 C39.9 53.1 39.4 52.5 39.1 54 C38.8 55.8 39.1 56.5 38.7 57.8 C38.4 58.7 37.4 56 37.2 56.8 C36.7 58.8 38.2 60.4 38.2 61.3 C38.2 63.5 36.3 63 36.2 64.3 C36 66.6 37 66.1 36.2 68.2 C35.8 69.1 33.6 70 33.2 71.2 C32.9 72.3 33.7 74.7 33.2 75.9 C32.7 76.9 31.2 74.8 30.9 75.9 C30.7 76.9 32.6 81.8 32.4 82.4 C32 83.4 28.2 82.4 27.5 83 C26.5 83.9 22 81 18.7 81 C15.4 81 12.8 82.7 11.1 83 C9.5 83.3 7 83.1 5.8 82.1 C5.7 81.9 5.3 80.7 5.2 80.5 C4.7 79.7 5.7 75.9 5.2 74.3 C5.1 73.9 4 74.6 3.8 74.4 C3.7 74.3 3.5 74.2 3.4 74 C3.1 73.7 2.9 73.4 2.9 72.6 C2.8 71.3 5.5 62.3 5.4 61.7 C4.6 66.6 3.2 69 1.2 69 C0.6 69 0.9 67.1 1.1 64.8 C1.2 63.2 3.8 58.6 3.7 57.3 C3.7 57.1 1.8 57.9 1.6 57.6 C1.5 57.5 1 57 1 56.7 C1.2 55.5 3.1 54.2 3.5 53.1 C3.2 52.9 2.3 53.1 2.2 52.8 C2.1 52.7 2 52.6 2.1 52.3 C2.6 51.1 5.5 48 5.7 47 C5.9 45.7 4.2 45.6 4.5 44.5 C4.9 43 6.5 42.7 6.8 41.4 C7.2 39.3 5.7 38 7.6 35.8 C10.6 33.3 13.9 29.1 15.6 23.9 C17.2 18.8 17.6 16.4 19.7 14.3 C21.1 13 21.9 11.3 25.3 9.3 C27.3 8.2 27.8 6.7 28.3 5.2 C29.7 1 30.8 -1.3 33.5 1.6 C34.2 2.5 35 3.2 35.6 4 C37.2 6 38.3 7.7 38.1 9.5 z" stroke="#000000" stroke-width="3" opacity="0.2" id="z1" /></g><path d="M33.6 1.8 C36.1 4.5 38.4 6.9 38.1 9.5 C38 10.4 40.6 11.7 40.3 13.1 C39.9 15 41.7 16.2 41.8 17.6 C42 19.2 40.9 20.3 40.9 21.7 C40.9 22.8 41.8 25.6 41.8 26.9 C41.8 28.2 40.9 28.4 40.9 30.3 C40.9 31.5 41.7 33.3 41.8 34.8 C41.9 36.2 40.6 36.6 40.3 37.7 C39.8 39.3 40.9 41.4 40.9 42.9 C40.9 44.1 38.6 41.3 38.6 42.4 C38.7 44.7 39.9 46.2 39.7 47.9 C39.7 48.1 38.2 47.2 38.2 47.9 C38.1 49.4 40.7 50.6 40.4 51.7 C40 53.2 39.4 52.5 39.1 54 C38.8 55.8 39.1 56.5 38.7 57.8 C38.4 58.7 37.4 56 37.2 56.8 C36.7 58.8 38.2 60.4 38.2 61.3 C38.2 63.5 36.3 63 36.2 64.3 C36 66.6 37 66.1 36.2 68.2 C35.8 69.1 33.6 70 33.2 71.2 C32.9 72.3 33.7 74.7 33.2 75.9 C32.7 76.9 31.2 74.8 30.9 75.9 C30.7 76.9 31.6 80.9 31.4 81.5 C30.4 83.6 28.2 82.4 27.5 83 C26.5 83.9 22.4 82 19.1 82 C15.8 82 12.8 82.7 11.1 83 C9.4 83.3 7 83.2 5.3 80.6 C4.8 79.8 4.9 76.9 4.4 75.3 C4 74.1 3 74.3 3 72.8 C2.9 71.5 3.9 69.1 3.7 68.2 C3.5 67 1.6 70.5 1.6 69.4 C1.6 68.1 1.4 66.1 1.6 63.8 C1.7 62.2 3 59.8 2.9 58.5 C2.9 57.4 1.4 58.4 1.6 57.2 C1.8 56 3.3 54.4 3.7 53.3 C3.9 52.7 1.9 53.5 2.3 52.5 C2.8 51.3 5.7 48.2 5.9 47.2 C6.1 45.9 5 45.5 5.3 44.4 C5.7 42.9 6.7 42.9 7 41.6 C7.4 39.5 6.5 38.2 7.4 37 C9.9 33.9 12.9 32.1 14.6 26.9 C16.2 21.8 17 16.9 19.1 14.8 C20.5 13.5 22.1 11.5 25.5 9.5 C27.5 8.4 28 6.9 28.5 5.4 C29.8 1.2 30.8 -1.1 33.6 1.8 z" id="a2" fill="#F9F9F9" /><path d="M33.6 1.8 C36.1 4.5 38.4 6.9 38.1 9.5 C38 10.4 40.6 11.7 40.3 13.1 C39.9 15 41.7 16.2 41.8 17.6 C42 19.2 40.9 20.3 40.9 21.7 C40.9 22.8 41.8 25.6 41.8 26.9 C41.8 28.2 40.9 28.4 40.9 30.3 C40.9 31.5 41.7 33.3 41.8 34.8 C41.9 36.2 40.6 36.6 40.3 37.7 C39.8 39.3 40.9 41.4 40.9 42.9 C40.9 44.1 38.6 41.3 38.6 42.4 C38.7 44.7 39.9 46.2 39.7 47.9 C39.7 48.1 38.2 47.2 38.2 47.9 C38.1 49.4 40.7 50.6 40.4 51.7 C40 53.2 39.4 52.5 39.1 54 C38.8 55.8 39.1 56.5 38.7 57.8 C38.4 58.7 37.4 56 37.2 56.8 C36.7 58.8 38.2 60.4 38.2 61.3 C38.2 63.5 36.3 63 36.2 64.3 C36 66.6 37 66.1 36.2 68.2 C35.8 69.1 33.6 70 33.2 71.2 C32.9 72.3 33.7 74.7 33.2 75.9 C32.7 76.9 31.2 74.8 30.9 75.9 C30.7 76.9 31.6 80.9 31.4 81.5 C30.4 83.6 28.2 82.4 27.5 83 C26.5 83.9 22.4 82 19.1 82 C15.8 82 12.8 82.7 11.1 83 C9.4 83.3 7 83.2 5.3 80.6 C4.8 79.8 4.9 76.9 4.4 75.3 C4 74.1 3 74.3 3 72.8 C2.9 71.5 3.9 69.1 3.7 68.2 C3.5 67 1.6 70.5 1.6 69.4 C1.6 68.1 1.4 66.1 1.6 63.8 C1.7 62.2 3 59.8 2.9 58.5 C2.9 57.4 1.4 58.4 1.6 57.2 C1.8 56 3.3 54.4 3.7 53.3 C3.9 52.7 1.9 53.5 2.3 52.5 C2.8 51.3 5.7 48.2 5.9 47.2 C6.1 45.9 5 45.5 5.3 44.4 C5.7 42.9 6.7 42.9 7 41.6 C7.4 39.5 6.5 38.2 7.4 37 C9.9 33.9 12.9 32.1 14.6 26.9 C16.2 21.8 17 16.9 19.1 14.8 C20.5 13.5 22.1 11.5 25.5 9.5 C27.5 8.4 28 6.9 28.5 5.4 C29.8 1.2 30.8 -1.1 33.6 1.8 z" id="b2" fill="#66493D" /><path d="M35.7 4.1 C36.3 5.4 36.6 6.6 36.3 7.8 C36.1 8.7 37 10.1 36.5 11.5 C35.9 13.3 36.9 14.8 36.9 16.3 C36.9 17.9 36 20.1 35.7 21.5 C35.5 22.6 35.9 24.5 35.7 25.8 C35.5 27.1 35.2 27.3 34.9 29.1 C34.7 30.3 35.7 33.1 35.7 34.5 C35.7 35.9 35.1 39.6 34.9 41.1 C34.7 42.3 33.5 44.2 33.1 45.9 C33 46.1 32.1 50.5 31.7 51.9 C31.2 53.7 29.7 53.8 29.5 54.5 C28.8 56.4 27.8 60.6 27.6 61.8 C27.1 64.1 27.4 61.3 26.3 63.3 C25.8 64.2 24.3 67.1 23.8 68.2 C23.3 69.2 22.9 69.7 22.2 70.8 C21.6 71.8 21.3 71.5 21 72.6 C20.7 73.6 20 76.7 19.7 77.2 C18.5 79.2 17.5 78.7 16.7 79.2 C16 79.7 12 81.6 8.3 82.8 C7.2 82.5 6.1 81.8 5.2 80.5 C4.7 79.7 4.8 76.8 4.3 75.2 C3.9 74 2.9 74.2 2.9 72.7 C2.8 71.4 3.8 69 3.6 68.1 C3.4 66.9 1.5 70.4 1.5 69.3 C1.5 68 1.3 66 1.5 63.7 C1.6 62.1 2.9 59.7 2.8 58.4 C2.8 57.3 1.3 58.3 1.5 57.1 C1.7 55.9 3.2 54.3 3.6 53.2 C3.8 52.6 1.8 53.4 2.2 52.4 C2.7 51.2 5.6 48.1 5.8 47.1 C6 45.8 4.9 45.4 5.2 44.3 C5.6 42.8 6.6 42.8 6.9 41.5 C7.3 39.4 6.4 38.1 7.3 36.9 C9.8 33.8 12.8 32 14.5 26.8 C16.1 21.7 16.9 16.8 19 14.7 C20.4 13.4 22 11.4 25.4 9.4 C27.4 8.3 27.9 6.8 28.4 5.3 C29.8 1.1 30.9 -1.2 33.6 1.7 C34.3 2.6 35.1 3.3 35.7 4.1 z" id="c2" fill="#F9F9F9" /></g></g></g></g><g transform="translate(169.6, 173.6) scale(0.9658031) translate(-169.6, -173.6)" id="d2"><g transform="translate(137.7, 101.3) scale(0.8) translate(-137.7, -101.3) translate(109.2, 55.09997) translate(3, 0)" id="e2"><g id="f2"><path d="M11.9 56.5 C7.4 51.8 1.1 33.7 0.8 24.4 C0.5 15.1 3.9 2.8 7.6 0.9 C12.2 -0.6 20.2 6.9 27.1 16.4 C34 25.8 37.5 28.4 38.8 30.9 C40.1 33.4 40 35.2 37.1 39 C36.1 40.3 34.3 41.7 32.1 44.5 C30.6 46.4 27.9 52.2 24.6 55.7 C20.7 59.9 14.7 59.5 11.9 56.5 z" id="g2" fill="#66493D" /><path d="M11.9 56.5 C7.4 51.8 1.1 33.7 0.8 24.4 C0.5 15.1 3.9 2.8 7.6 0.9 C12.2 -0.6 20.2 6.9 27.1 16.4 C34 25.8 37.5 28.4 38.8 30.9 C40.1 33.4 40 35.2 37.1 39 C36.1 40.3 34.3 41.7 32.1 44.5 C30.6 46.4 27.9 52.2 24.6 55.7 C20.7 59.9 14.7 59.5 11.9 56.5 z M12.5 52.6 C15.1 55.3 20.6 55.7 24.3 51.9 C27.4 48.7 29.9 43.4 31.2 41.7 C33.2 39.2 34.9 37.9 35.8 36.7 C38.5 33.2 37 32 35.8 29.7 C34.6 27.4 31.7 25 25.3 16.5 C18.9 7.8 12.8 0.7 8.5 2 C5.1 3.8 2 14.9 2.2 23.4 C2.4 31.9 8.3 48.3 12.5 52.6 z" opacity="0.15" id="h2" /><path d="M12 44.1 C9.7 39.8 6.2 33.1 5.6 28.8 C5 24.6 5.3 20.2 5.6 17.4 C5.9 14.5 6.9 8.2 9.3 5.6 C12.4 2.8 18.2 14 22.4 19.8 C25.2 23.7 28.3 27.9 31.5 32.4 C32 36.4 31.4 39.3 29.7 40.9 C27.1 43.3 25.6 49.3 22.4 50.6 C19.3 52 14.4 48.4 12 44.1 z" id="i2" fill="#FFB8B3" /><path d="M24 35.1 C21.5 34.1 16.2 28.2 16.2 32.3 C16.2 34 16.2 37 18.5 41.9 C19.4 43.8 21.2 46.4 24 49.7 C25.2 48.4 26 47.1 26.5 45.9 C26.8 45.2 27.4 43.9 28.6 42.2 C29.1 41.5 30.1 40.9 30.7 39.8 C31 39.2 31.4 38 31.7 36.2 C28.2 36.2 25.7 35.8 24 35.1 z" fill-opacity="0.1459" id="j2" fill="#010101" /></g></g><g transform="translate(198.5, 100.8) scale(0.8) translate(-198.5, -100.8) translate(105.9, 54.59997) translate(96, 28.5) scale(-1, 1) translate(-96, -28.5) translate(76, 0)" id="k2"><g id="l2"><path d="M10.8 53.5 C6.6 48.1 1.1 33.7 0.8 24.4 C0.5 15.1 3.9 2.8 7.6 0.9 C12.2 -0.6 20.2 6.9 27.1 16.4 C34 25.8 37.5 28.4 38.8 30.9 C40.1 33.4 40 35.2 37.1 39 C36.1 40.3 34.3 41.7 32.1 44.5 C30.6 46.4 28.1 49.2 26.8 51 C22.7 56.9 14.7 58.6 10.8 53.5 z" id="m2" fill="#66493D" /><path d="M10.8 53.5 C6.6 48.1 1.1 33.7 0.8 24.4 C0.5 15.1 3.9 2.8 7.6 0.9 C12.2 -0.6 20.2 6.9 27.1 16.4 C34 25.8 37.5 28.4 38.8 30.9 C40.1 33.4 40 35.2 37.1 39 C36.1 40.3 34.3 41.7 32.1 44.5 C30.6 46.4 28.1 49.2 26.8 51 C22.7 56.9 14.7 58.6 10.8 53.5 z M11.1 50.6 C14.6 55.3 21.8 53.7 25.5 48.3 C26.7 46.6 28.9 44 30.3 42.3 C32.3 39.7 33.9 38.4 34.8 37.2 C37.4 33.7 37.5 32 36.3 29.7 C35.1 27.4 32 25 25.8 16.3 C19.6 7.5 12.4 0.6 8.3 2 C5 3.7 1.9 15.1 2.2 23.7 C2.5 32.3 7.4 45.6 11.1 50.6 z" opacity="0.15" id="n2" /><path d="M12 44.1 C9.7 39.8 6.2 33.1 5.6 28.8 C5 24.6 5.3 20.2 5.6 17.4 C5.9 14.5 6.9 8.2 9.3 5.6 C12.4 2.8 18.2 14 22.4 19.8 C25.2 23.7 28.3 27.9 31.5 32.4 C32 36.4 31.4 39.3 29.7 40.9 C27.1 43.3 25.6 49.3 22.4 50.6 C19.3 52 14.4 48.4 12 44.1 z" id="o2" fill="#FFB8B3" /><path d="M24 35.1 C21.5 34.1 16.2 28.2 16.2 32.3 C16.2 34 16.2 37 18.5 41.9 C19.4 43.8 21.2 46.4 24 49.7 C25.2 48.4 26 47.1 26.5 45.9 C26.8 45.2 27.4 43.9 28.6 42.2 C29.1 41.5 30.1 40.9 30.7 39.8 C31 39.2 31.4 38 31.7 36.2 C28.2 36.2 25.7 35.8 24 35.1 z" fill-opacity="0.1459" id="p2" fill="#010101" /></g></g><g transform="translate(85.89999, 82.09998) translate(44, 0)" id="q2"><path d="M45.1 1.4 C55.8 2.8 63.2 5.8 66.5 8.6 C69.8 11.4 74.2 15 76.3 20.8 C78.4 26.6 79.7 33.1 78.8 39.4 C78.2 43 76.1 49.2 74.9 52 C72.5 57.5 70.1 60 69 63.4 C67.8 67 66.4 72 65.1 77.1 C63.8 82.2 59.8 86.5 57.1 88.8 C54.8 90.7 50.1 90.1 49.3 90.8 C46.3 93.7 45.4 95 39 94.9 C32.6 94.9 29.6 91.2 29 90.8 C28.3 90.2 25.3 91.1 22.3 88.9 C19.2 86.6 15 84.1 12.5 77.3 C10 70.5 9.4 67.2 8.9 63.3 C8.1 57 2.9 49.8 1.9 46.5 C0.9 43.2 -1.9 29.5 2.2 20.7 C6.3 11.9 7.2 10.3 14.1 6.6 C18 4.6 25.3 1.9 30.3 1.4 C34.1 1 40.8 0.8 45.1 1.4 z" id="r2" fill="#EBB67F" /><path d="M18.7 4.7 C20.9 4.5 22.8 4.3 24.3 4.2 C27.3 3.9 31.9 3.1 33.3 3.8 C36.7 5.8 37.9 6.8 39.9 6.9 C41.9 7.1 44.8 3.8 47 3.8 C48 3.8 51.4 4.2 54.6 4.3 C55.5 4.3 56.6 4.3 58 4.1 C50.9 1.9 44.7 0.8 39.5 0.8 C36.4 0.8 31.9 1.1 27.6 2 C25.5 2.4 22.6 3.3 18.7 4.7 z" id="s2" fill="#D07331" /><path d="M57 4.6 C57.1 4.6 57.2 4.6 57.4 4.6 C50.5 2.5 44.5 1.4 39.5 1.4 C37.7 1.4 35.3 1.5 32.8 1.8 C32 1.8 31.3 1.9 30.6 2 C25.8 2.5 18.7 5 15 7 C8.3 10.5 7.4 12 3.5 20.5 C-0.5 28.9 2.2 42 3.2 45.2 C4.1 48.3 9.2 55.2 9.9 61.2 C10.4 65 11 68.1 13.4 74.7 C15.8 81.2 19.9 83.6 22.9 85.8 C25.8 87.9 28.7 87 29.4 87.6 C29.9 88 32.8 91.5 39 91.5 C45.2 91.6 46.1 90.4 49 87.6 C49.7 86.9 54.3 87.5 56.5 85.7 C59.1 83.5 63 79.3 64.2 74.5 C65.5 69.6 66.8 64.8 68 61.3 C69.1 58.1 71.4 55.7 73.7 50.4 C74.9 47.7 76.9 41.8 77.5 38.4 C78.3 32.3 77.1 26.1 75.1 20.6 C73 15 68.8 11.5 65.6 8.9 C63.9 7.4 61 5.9 57 4.6 z M57.6 4.1 C61.7 5.5 64.7 7.1 66.5 8.6 C69.8 11.4 74.2 15 76.3 20.8 C78.4 26.6 79.7 33.1 78.8 39.4 C78.2 43 76.1 49.2 74.9 52 C72.5 57.5 70.1 60 69 63.4 C67.8 67 66.4 72 65.1 77.1 C63.8 82.2 59.8 86.5 57.1 88.8 C54.8 90.7 50.1 90.1 49.3 90.8 C46.3 93.7 45.4 95 39 94.9 C32.6 94.9 29.6 91.2 29 90.8 C28.3 90.2 25.3 91.1 22.3 88.9 C19.2 86.6 15 84.1 12.5 77.3 C10 70.5 9.4 67.2 8.9 63.3 C8.1 57 2.9 49.8 1.9 46.5 C0.9 43.2 -1.9 29.5 2.2 20.7 C6.3 11.9 7.2 10.3 14.1 6.6 C18 4.6 25.3 1.9 30.3 1.4 C31 1.3 31.7 1.3 32.6 1.2 C35.2 0.9 37.6 0.8 39.5 0.8 C44.7 0.8 50.9 1.9 58 4.1 C57.9 4.1 57.7 4.1 57.6 4.1 z" opacity="0.45" id="t2" /></g><g id="u2"><g transform="translate(85.89999, 82.09997) translate(60, 9)" id="v2"><path d="M18.5 16.6 C20.1 14.3 15.6 1.5 14.3 0.3 C13.6 -0.3 15.8 -0.1 19.9 3.9 C20.6 4.6 21.7 6.3 23.1 8.9 C24.8 6.3 26.1 4.6 27 3.9 C32.4 -0.3 33.9 -0.3 32.5 1.3 C31.1 3 28.9 7.4 28 10.9 C27.3 13.8 27.8 16 28 16.5 C28.6 17.7 31.1 26.7 32.5 30.8 C33.9 34.9 37.8 41.3 39.3 44.7 C42.1 51 46.1 55.5 46.8 58.4 C47.2 61.7 45.4 68 44.8 69.9 C44.2 72.1 42.4 73.2 40.5 74.1 C37 75.7 34.4 76.6 30 77.7 C27.8 78.2 26.8 78.1 23.3 78 C20.7 77.9 18.4 77.7 15.4 76.8 C13 76.1 10 75.5 7.7 74.7 C4.2 73.5 2.2 70.5 2 69.5 C1.2 66.1 0 61.8 0.5 58.6 C1 55.5 5.2 51.5 7.6 44.6 C8.8 41.1 11.6 36.8 13 33.5 C15.7 26.7 17 18.9 18.5 16.6 z" id="w2" fill="#F9F9F9" /><path d="M18.5 16.6 C20.1 14.3 15.6 1.5 14.3 0.3 C13.6 -0.3 15.8 -0.1 19.9 3.9 C20.6 4.6 21.7 6.3 23.1 8.9 C24.8 6.3 26.1 4.6 27 3.9 C32.4 -0.3 33.9 -0.3 32.5 1.3 C31.1 3 28.9 7.4 28 10.9 C27.3 13.8 27.8 16 28 16.5 C28.6 17.7 31.1 26.7 32.5 30.8 C33.9 34.9 37.8 41.3 39.3 44.7 C42.1 51 46.1 55.5 46.8 58.4 C47.2 61.7 45.4 68 44.8 69.9 C44.2 72.1 42.4 73.2 40.5 74.1 C37 75.7 34.4 76.6 30 77.7 C27.8 78.2 26.8 78.1 23.3 78 C20.7 77.9 18.4 77.7 15.4 76.8 C13 76.1 10 75.5 7.7 74.7 C4.2 73.5 2.2 70.5 2 69.5 C1.2 66.1 0 61.8 0.5 58.6 C1 55.5 5.2 51.5 7.6 44.6 C8.8 41.1 11.6 36.8 13 33.5 C15.7 26.7 17 18.9 18.5 16.6 z M18.8 17 C17.4 19.2 16.9 26.5 14.4 32.8 C13.1 35.9 10.2 40.8 9 44.1 C6.8 50.6 3 54.5 2.5 57.4 C2.1 60.4 2.6 63.4 3.4 66.6 C3.6 67.5 5.4 70.3 8.7 71.4 C10.9 72.2 13.7 72.7 15.9 73.4 C18.7 74.2 20.9 74.4 23.3 74.5 C26.6 74.6 27.5 74.7 29.6 74.2 C33.7 73.2 36.2 72.4 39.4 70.9 C41.2 70 42.9 69 43.5 66.9 C44 65.2 45.3 60.4 45 57.3 C44.3 54.5 40.4 49.9 37.7 44 C36.3 40.8 33.2 34.2 31.9 30.3 C30.6 26.5 28.2 18.6 27.6 17.4 C27.5 17 26.9 14.6 27.2 12.2 C28.1 8.9 29.9 3.8 31.2 2.2 C32.5 0.7 31.6 1.1 26.6 5.1 C25.7 5.7 24.7 7.4 23.1 9.8 C21.8 7.4 20.8 5.8 20.1 5.1 C16.3 1.4 15.2 1.1 15.8 1.7 C17 2.8 20.3 14.9 18.8 17 z" opacity="0.15" id="x2" /></g><g transform="translate(169, 150.2) scale(1) translate(-169, -160.2) translate(91.19999, 78.09997) translate(65, 74)" id="y2"><path d="M3.6 16.5 C6.8 15.9 8.5 14.5 9.9 13.4 C10.8 12.7 11.8 11.8 12.8 10.6 C14.1 12.2 15 13.2 15.6 13.6 C16.4 14.3 18.8 15.8 20.3 16.4 C21.8 17 25.7 17.3 25.7 16.7 C25.7 16.1 21.2 15.4 19.6 14.2 C18 13 16.4 12 15.3 10.5 C14.3 9.1 14.7 8.1 14.6 6.5 C14.5 4.5 14.8 2.3 14.9 0.8 C15 -1.2 11.7 -0.6 11.7 0.8 C11.7 2.2 11.7 4.3 11.7 6.1 C11.7 7.9 11 10.1 9.6 11.3 C8.2 12.5 6.3 14 4.2 14.8 C2.9 15.3 0.2 15.9 0.3 16.5 C0.3 16.9 2.4 16.8 3.6 16.5 z" id="z2" fill="#282421" /></g><g transform="translate(106.4, 81.99997) translate(51, 56)" id="a3"><g id="b3"><path d="M21.7 7 C20.6 1.1 14.2 0.3 11.5 0.3 C8.8 0.3 2.4 1.1 1.3 7 C0.5 11.1 1.3 11.5 1.3 11.5 L11.5 11.5 L21.7 11.5 C21.7 11.5 22.4 11.2 21.7 7 z" id="c3" fill="#282421" /><path d="M18.3 4.3 C18.4 3.8 17.8 3.1 17.5 2.8 C17 2.4 15.4 1.2 11.5 1.1 C7.6 1 6 2.3 5.5 2.8 C5.2 3.1 4.6 3.9 4.7 4.3 C6.2 3.5 9.8 2.8 11.5 6.6 C12.9 3.1 16.8 3.4 18.3 4.3 z" id="d3" fill="#FEFEFE" /></g></g><g transform="translate(94.89999, 52.09996) translate(41, 42)" id="e3"><path d="M6.1 10.9 C6.7 10.4 7.5 10.8 8.5 12.2 C10 14.3 10.8 18 13.2 19.3 C15.6 20.6 18.9 19.9 20.4 19.3 C21.9 18.7 24.8 14.6 23.7 10.9 C23 8.4 21.3 6.3 18.6 4.5 L19.5 6.7 L15.5 6.1 L16.3 7.4 C12.9 7.8 10.6 8.2 9.4 8.5 C8.3 9 7.2 9.8 6.1 10.9 z" id="f3" fill="#FFF" /><g transform="translate(0, 10)" id="g3"><path d="M21.9 14.6 C21 11.9 19.7 8.3 17.5 6.4 C15.3 4.5 10.7 3.9 9 4.5 C7.7 5 6.1 7.4 4.6 8.5 C4.2 8.9 3.1 8.7 3 9 C2.3 10.8 6.8 15.2 8.3 16 C11.2 17.5 16.3 17.8 20.2 17.1 C21.7 17 21.5 15.8 21.9 14.6 z" id="h3" fill="#AA6F4F" /><g transform="translate(11.16316, 7.522936) scale(-1, 1) translate(-11.16316, -7.522936) translate(3.163158, 3.022936)" id="i3"><path d="M-1.1 8.4 C0.1 6.4 2.1 4.5 4.4 4.2 C6.7 3.9 8.9 4 10.7 5.4 C12.5 6.8 12.5 7.5 13.3 8.1 C14 8.8 12.5 10.5 9.7 11.4 C6.9 12.3 4.5 13 1.9 12.5 C-0.8 12.1 -1.2 11.9 -1.6 11.4 C-2 10.9 -2.4 10.5 -1.1 8.4 z" id="j3" fill="#FBFBFB" /><g id="k3"><path d="M5.2 4.1 C6.3 5 7 6.4 7 8 C7 10.1 5.7 12 3.8 12.8 C3.2 12.8 2.6 12.8 2 12.6 C-0.7 12.2 -1.1 12 -1.5 11.5 C-1.9 11 -2.3 10.6 -1.1 8.5 C0.1 6.4 2 4.5 4.4 4.2 C4.6 4.2 4.9 4.1 5.2 4.1 z" id="l3" /></g></g><path d="M11.8 11.3 C12.8 12.4 15.1 10.8 15.1 9.9 C15.1 9 14.1 8.2 12.8 8.2 C11.5 8.2 10.5 9 10.5 9.9 C10.5 10.8 10.9 10.2 11.8 11.3 z" id="m3" fill="#FFFEFE" /></g></g><g transform="translate(98.79999, 52.09996) translate(76, 42)" id="n3"><g transform="translate(0.878947, 0.022936)" id="o3"><path d="M20.1 10.9 C19.5 10.4 18.7 10.8 17.7 12.2 C16.2 14.3 15.4 18 13 19.3 C10.6 20.6 7.3 19.9 5.8 19.3 C4.3 18.7 1.4 14.6 2.5 10.9 C3.2 8.4 4.9 6.3 7.6 4.5 L6.6 6.7 L10.6 6.1 L9.9 7.4 C13.3 7.8 15.6 8.2 16.8 8.5 C17.9 9 19 9.8 20.1 10.9 z" id="p3" fill="#FFF" /><path d="M5.3 21.7 C6.2 19 7.5 17.3 9.7 15.4 C11.9 13.5 16.2 13.3 17.9 13.9 C19.1 14.3 21.1 16.4 22.7 17.4 C23.4 17.8 24.1 17.5 24.3 18.1 C25 19.9 21.7 24.1 20.2 24.9 C19.8 25.1 16.7 25.9 14.9 26.4 C12.7 26.9 10.6 26.4 8.3 26.4 C6.9 26.4 5.7 26.3 4.9 25.8 C4.2 25.2 4.8 22.9 5.3 21.7 z" id="q3" fill="#AA6F4F" /><g transform="translate(4, 12)" id="r3"><path d="M3.4 9 C4.7 7 6.2 5.4 8.5 5.1 C10.8 4.8 12.7 5.1 14.2 6 C15.7 6.9 16.5 7.9 17.4 9 C18.3 10.1 16.7 11.3 13.8 12.3 C10.9 13.2 9.1 13.5 6.5 13.5 C3.9 13.5 2.6 13 2.2 12.3 C1.9 11.6 2.1 11.1 3.4 9 z" id="s3" fill="#FBFBFB" /><path d="M10 4.9 C11.6 4.9 13 5.3 14.1 5.9 C15.7 6.8 16.4 7.8 17.3 8.9 C18.2 10 16.7 11.3 13.7 12.3 C12.4 12.7 11.3 13 10.1 13.2 C9 12.4 8 10.8 8 8.9 C8 7.3 8.8 5.8 10 4.9 z" id="t3" /></g><path d="M11.7 21.5 C12.7 22.7 15 20.9 15 19.9 C15 18.9 13.9 18 12.5 18 C11.1 18 10 18.8 10 19.9 C10 21 10.6 20.4 11.7 21.5 z" id="u3" fill="#FFFEFE" /></g></g></g></g></g><g transform="translate(39.29518, 265.301)" id="v3"><ellipse cx="32.5" cy="17.5" rx="37.3" ry="13.2" opacity="0.15" id="w3" /><use xlink:href="#e" x="1.51" y="0" /></g><g transform="translate(235.8952, 266.9009)" id="x3"><ellipse cx="32.5" cy="17.5" rx="37.3" ry="13.2" fill-opacity="0.15" id="y3" /><use xlink:href="#e" x="0.08" y="0" /></g></g><defs><g transform="translate(17.09519, 0.800995) translate(-135.2952, -293.601)" id="e" fill="#000"><path d="M118.2 302.7 C118.4 307.4 132.5 311.2 149.8 311.2 C167.1 311.2 181.2 307.4 181.4 302.7 C181.4 307.5 181.4 310.1 181.4 310.5 C181.4 315.3 167.3 319.1 149.8 319.1 C132.3 319.1 118.2 315.2 118.2 310.5 L118.2 302.7 L118.2 302.7 z" fill-opacity="0.4528" id="z3" fill="#593001" /><path d="M118.7 301.7 C118.9 306.4 133 310.2 150.3 310.2 C167.6 310.2 181.7 306.4 181.9 301.7 C181.9 306.5 181.9 309.1 181.9 309.5 C181.9 314.3 167.8 318.1 150.3 318.1 C132.8 318.1 118.7 314.2 118.7 309.5 L118.7 301.7 L118.7 301.7 z" id="a4" fill="#DA8113" /><linearGradient x1="46.0545" y1="-118.6926" x2="45.4656" y2="-118.6926" gradientUnits="userSpaceOnUse" gradientTransform="matrix(117.135, 0, 0, 28.4634, -5208.417, 3687.795)" id="b4"><stop offset="0%" stop-color="#D9952A" stop-opacity="1" /><stop offset="6.438854%" stop-color="#CA7519" stop-opacity="1" /><stop offset="30.54%" stop-color="#E3AD3A" stop-opacity="1" /><stop offset="51.05%" stop-color="#FFEC91" stop-opacity="1" /><stop offset="68.8%" stop-color="#E9BD44" stop-opacity="1" /><stop offset="86.24%" stop-color="#FFED6C" stop-opacity="1" /><stop offset="93.87%" stop-color="#F2D353" stop-opacity="1" /><stop offset="100%" stop-color="#F2B947" stop-opacity="1" /></linearGradient><path d="M118.2 301.6 C118.4 306.1 132.7 309.7 150.3 309.7 C167.9 309.7 182.2 306.1 182.4 301.6 C182.4 306.2 182.4 308.7 182.4 309 C182.4 313.5 168 317.2 150.3 317.2 C132.6 317.2 118.2 313.5 118.2 309 L118.2 301.6 L118.2 301.6 z" id="c4" style="fill:url(#b4)" /><linearGradient x1="45.4914" y1="-117.9547" x2="45.9407" y2="-117.5895" gradientUnits="userSpaceOnUse" gradientTransform="matrix(115.425, 0, 0, 29.925, -5125.077, 3826.124)" id="d4"><stop offset="0%" stop-color="#F4E072" stop-opacity="1" /><stop offset="100%" stop-color="#DB9427" stop-opacity="1" /></linearGradient><ellipse cx="150.3" cy="301.5" rx="31.6" ry="8.2" id="e4" style="fill:url(#d4)" /><linearGradient x1="45.4656" y1="-126.0065" x2="46.0545" y2="-126.0065" gradientUnits="userSpaceOnUse" gradientTransform="matrix(117.135, 0, 0, 18.6219, -5208.417, 2651.479)" id="f4"><stop offset="0%" stop-color="#D9952A" stop-opacity="1" /><stop offset="6.438854%" stop-color="#CA7519" stop-opacity="1" /><stop offset="30.54%" stop-color="#E3AD3A" stop-opacity="1" /><stop offset="51.05%" stop-color="#FFEC91" stop-opacity="1" /><stop offset="68.8%" stop-color="#E9BD44" stop-opacity="1" /><stop offset="86.24%" stop-color="#FFED6C" stop-opacity="1" /><stop offset="93.87%" stop-color="#F2D353" stop-opacity="1" /><stop offset="100%" stop-color="#F2B947" stop-opacity="1" /></linearGradient><path d="M119.2 299.9 C119 300.2 118.9 300.6 118.9 301 C118.9 305.5 132.9 309.2 150.3 309.2 C167.7 309.2 181.7 305.5 181.7 301 C181.7 300.6 181.6 300.3 181.4 299.9 C182 300.5 182.4 301.2 182.4 301.9 C182.4 306.4 168 310.1 150.3 310.1 C132.6 310.1 118.2 306.4 118.2 301.9 C118.2 301.3 118.6 300.6 119.2 299.9 z" id="g4" style="fill:url(#f4)" /><linearGradient x1="45.196" y1="-121.5895" x2="45.3746" y2="-120.6758" gradientUnits="userSpaceOnUse" gradientTransform="matrix(101.745, 0, 0, 23.94, -4458.332, 3199.41)" id="h4"><stop offset="0%" stop-color="#F8DD61" stop-opacity="1" /><stop offset="100%" stop-color="#EAA330" stop-opacity="1" /></linearGradient><ellipse cx="150.3" cy="300.8" rx="27.8" ry="6.6" id="i4" style="fill:url(#h4)" /><linearGradient x1="45.5694" y1="-134.267" x2="45.0221" y2="-134.267" gradientUnits="userSpaceOnUse" gradientTransform="matrix(101.745, 0, 0, 13.2525, -4458.332, 2077.223)" id="j4"><stop offset="0%" stop-color="#F4CA2F" stop-opacity="1" /><stop offset="51.38%" stop-color="#BF7737" stop-opacity="1" /><stop offset="100%" stop-color="#E4A929" stop-opacity="1" /></linearGradient><path d="M122.6 301.5 C122.5 301.3 122.4 301 122.4 300.8 C122.4 297.2 134.9 294.2 150.2 294.2 C165.5 294.2 178 297.1 178 300.8 C178 301 177.9 301.3 177.8 301.5 C176.3 298.2 164.5 295.6 150.1 295.6 C135.7 295.6 124.1 298.2 122.6 301.5 z" id="k4" style="fill:url(#j4)" /></g></defs><desc>6FII8O86GED,W3U2gdamCrZVxx4G2b114RtiUjEtnvdHHMkkWF3mUnwbzeeXmVOmDqtTuaWdWmlDfocGQsflem00NG6gwhh5yoHP8Mc80bzBKrgIzMi9pAiiFUmOK1rdEEvawlDCixm5ZoEidWBgVAnhtv4p6+f0G7uIqISdD/LvZnHoDKxht7c=</desc></svg>