<?xml version="1.0" encoding="utf-8"?><!DOCTYPE svg PUBLIC "-//W3C//DTD SVG 1.1//EN" "http://www.w3.org/Graphics/SVG/1.1/DTD/svg11.dtd"><svg x="0" y="0" width="340px" height="340px" viewBox="0, 0, 340, 340" preserveAspectRatio="xMidYMid" font-size="0" id="a" enable-background="new 0 0 340 340" xmlns="http://www.w3.org/2000/svg" xmlns:xlink="http://www.w3.org/1999/xlink" xmlns:xml="http://www.w3.org/XML/1998/namespace" version="1.1"><g id="b" fill="#000"><g id="c"><g transform="translate(0, 0) translate(0, 224)" id="d"><ellipse cx="168.6" cy="53.1" rx="57.8" ry="12.8" fill-opacity="0.25" id="e" /></g><g id="f"><g transform="translate(106.3, 115.8) translate(0, 122)" id="g"><g id="h"><path d="M37.2 31.3 C12.9 30.6 2.2 26.6 0.8 19.3 C0 15.1 -0.4 9.5 0.8 6.5 C2.8 1.8 7.8 0.9 9.2 0.7 C11.4 0.3 13.8 1.1 16.3 3.1 C16.9 3.7 17.2 4.6 17.3 5.9 C17.3 7.7 18.4 8.8 15.8 9.1 C13.3 9.5 11.8 7.1 10.3 7.3 C8.8 7.5 8.3 9.9 8.3 10.8 C8.3 11.7 7.9 13.8 10.8 15.2 C12.8 16.1 26.9 18.4 37.1 19.7 L37.2 31.3 z" id="i" fill="#424753" /><path d="M8.7 1.6 C10.1 1 12.4 0.6 16.3 2.9 C17.6 3.8 18.2 5.1 18.2 6.7 C18.2 7.6 17.8 10 15.4 9.8 C13 9.6 11.8 7.5 10.3 7.8 C9.3 8 8.6 9 8.3 11 C8.3 13 9.3 14.4 11.2 15.2 C13.1 16 25.3 18.6 35.6 19.6 C36.9 23.3 35.1 25.6 34.4 25.6 C32.9 25.6 15.5 23.4 9.9 20.2 C4.2 17 4.5 15.8 3.7 10.4 C2.9 4.8 7.8 2 8.7 1.6 z" id="j" fill="#1A2230" /><path d="M15.2 2.3 C15.5 2.5 15.9 2.7 16.3 2.9 C17.6 3.8 18.2 5.1 18.2 6.7 C18.2 7.6 17.8 10 15.4 9.8 C13 9.6 11.8 7.5 10.3 7.8 C9.3 8 8.6 9 8.3 11 C8.3 13 9.3 14.4 11.2 15.2 C11.8 15.4 13.2 15.8 15.2 16.3 C20.6 17.4 29.9 18.8 37.1 19.7 L37.2 31.3 C12.9 30.6 2.2 26.6 0.8 19.3 C0 15.1 -0.4 9.5 0.8 6.5 C2.8 1.8 7.8 0.9 9.2 0.7 C11.1 0.4 13.1 0.9 15.2 2.3 z M17.7 5.9 C17.7 4.9 17 4 15.7 3.1 C13.7 1.8 11.7 0.5 10 0.8 C8.6 1.1 4 1.9 2.2 6.2 C1.1 9 1.5 14.2 2.2 18 C3.5 24.7 13.4 28.4 35.8 29.1 L35.8 20.7 C29.1 19.8 21.3 18.7 16.3 17.7 C14.5 17.3 10.8 16.1 10.3 15.9 C8.5 15.2 7.8 14.2 7.8 10.8 C8 9 9.1 7.1 10.6 7.1 C12 7.1 13.4 9.1 15.6 9.3 C17.8 9.5 17.7 6.8 17.7 5.9 z" opacity="0.15" id="k" /></g></g><g transform="translate(120.5, 273.3) scale(1.478261) translate(-120.5, -273.3) translate(99.3, 76.49997) translate(14, 151)" id="l"><path d="M21.4 0.7 C15.4 0.7 10.5 1.3 7.1 4.6 C3.7 7.9 0 10.4 0.4 18.5 C0.8 26.6 3.2 33.9 10.9 36.8 C6.8 39 6.4 40.4 6.8 43.2 C7.1 45.9 6.5 46.6 14 45.9 C19 45.5 23.5 45.2 27.5 45.2 C29.2 42.4 29.8 38.9 29.3 34.7 C30.6 32.1 35 17.8 32.3 12 C29.6 6.2 27.4 0.7 21.4 0.7 z" id="m" fill="#1A2230" /><path d="M21.4 0.7 C27.4 0.7 29.6 6.2 32.3 12 C35 17.8 30.6 32.1 29.3 34.7 C29.8 38.9 29.2 42.4 27.5 45.2 C23.5 45.2 19 45.5 14 45.9 C6.5 46.6 7.1 45.9 6.8 43.2 C6.4 40.4 6.8 39 10.9 36.8 C3.2 33.9 0.8 26.6 0.4 18.5 C0 10.4 3.7 7.9 7.1 4.6 C10.5 1.3 15.4 0.7 21.4 0.7 z M21.1 1.4 C15.5 1.4 11 1.9 7.8 5 C4.6 8 1.2 10.3 1.6 17.9 C2 25.4 6 34.1 13.2 36.8 C9.4 38.9 7.8 38.9 8.2 41.5 C8.4 44 7.2 43.9 14.2 43.3 C18.8 42.9 23 42.6 26.7 42.6 C28.3 40 28.9 36.8 28.4 32.9 C29.6 30.5 33.7 17.2 31.2 11.8 C28.7 6.5 26.6 1.4 21.1 1.4 z" opacity="0.15" id="n" /></g><g transform="translate(217.4, 273.3) scale(1.478261) translate(-217.4, -273.3) translate(110, 76.89996) translate(98, 175.5) scale(-1, 1) translate(-98, -175.5) translate(81, 151)" id="o"><path d="M22.1 0.7 C16.1 0.7 11.2 1.3 7.8 4.6 C4.4 7.9 0.6 10.4 1 18.5 C1.4 26.6 3.8 33.9 11.5 36.8 C7.4 39 7 40.4 7.4 43.2 C7.8 46 7.1 46.6 14.6 45.9 C19.6 45.5 24.1 45.2 28.1 45.2 C29.8 42.4 30.4 38.9 29.9 34.7 C31.2 32.1 35.6 17.8 32.9 12 C30.2 6.2 28 0.7 22.1 0.7 z" id="p" fill="#1A2230" /><path d="M22.1 0.7 C28 0.7 30.2 6.2 32.9 12 C35.6 17.8 31.2 32.1 29.9 34.7 C30.4 38.9 29.8 42.4 28.1 45.2 C24.1 45.2 19.6 45.5 14.6 45.9 C7.1 46.6 7.8 46 7.4 43.2 C7 40.4 7.4 39 11.5 36.8 C3.8 33.9 1.4 26.6 1 18.5 C0.6 10.4 4.4 7.9 7.8 4.6 C11.2 1.3 16.1 0.7 22.1 0.7 z M21.8 1.1 C16.2 1.1 11.6 1.7 8.4 4.8 C5.2 7.9 1.6 10.2 2 17.8 C2.4 25.4 6.9 33.7 14.1 36.5 C10.3 38.5 8 38.9 8.4 41.5 C8.8 44.1 7.7 44.2 14.8 43.5 C19.5 43.1 23.7 42.9 27.4 42.9 C29 40.2 29.6 36.9 29.1 33 C30.3 30.6 34.5 17.1 31.9 11.7 C29.4 6.3 27.3 1.1 21.8 1.1 z" opacity="0.15" id="q" /></g><g transform="translate(85.90001, 85.79997) translate(35, 41)" id="r"><path d="M14.8 19.9 C11.3 33.7 12.9 36.6 9.3 47.7 C5.7 58.8 1.3 70.5 3.2 87.6 C4.6 100.8 11.8 132.8 17.6 146.9 C19.3 151.1 22.5 152.3 23.4 152.6 C27.2 154.2 66.3 154.3 72.2 152.6 C73.3 152.3 76.3 151.4 77.8 148.1 C84.6 134.1 92.8 97 94.1 87.6 C96.2 75.3 92.7 55.1 88.5 47.9 C82.5 37.5 82.5 23 81.3 20.8 C79.3 16.1 75.6 10.6 66.6 4.4 C63.9 2.5 51.7 0.7 49.1 0.8 C45.4 0.9 37.4 2 34.5 4.5 C28.5 9.6 16.7 12.5 14.8 19.9 z" id="s" fill="#1A2230" /><path d="M14.8 19.9 C16.7 12.5 28.5 9.6 34.5 4.5 C37.4 2 45.4 0.9 49.1 0.8 C51.7 0.7 63.9 2.5 66.6 4.4 C75.6 10.6 79.3 16.1 81.3 20.8 C82.5 23 82.5 37.5 88.5 47.9 C92.7 55.1 96.2 75.3 94.1 87.6 C92.8 97 84.6 134.1 77.8 148.1 C76.3 151.4 73.3 152.3 72.2 152.6 C66.3 154.3 27.2 154.2 23.4 152.6 C22.5 152.3 19.3 151.1 17.6 146.9 C11.8 132.8 4.6 100.8 3.2 87.6 C1.3 70.5 5.7 58.8 9.3 47.7 C12.9 36.6 11.3 33.7 14.8 19.9 z M16.2 20.2 C12.8 33.5 14.4 36.3 10.9 46.9 C7.4 57.6 3.2 68.8 5 85.2 C6.4 97.8 13.3 128.6 18.9 142.1 C20.5 146.1 23.6 147.3 24.4 147.5 C28.1 149.1 65.6 149.2 71.2 147.5 C72.3 147.3 75.2 146.4 76.6 143.2 C83.1 129.8 91 94.2 92.3 85.2 C94.3 73.4 90.9 54 86.9 47.1 C81.1 37.1 81.1 23.2 80 21.1 C78.1 16.6 74.5 11.3 65.9 5.4 C63.3 3.5 51.6 1.8 49.1 1.9 C45.5 2 37.9 3.1 35.1 5.5 C29.3 10.3 18 13.1 16.2 20.2 z" opacity="0.15" id="t" /></g><g fill-rule="evenOdd" transform="translate(85.90001, 85.79996) translate(83.5, 146.5) scale(-1, 1) translate(-83.5, -146.5) translate(37, 88)" id="u"><path d="M85.7 0.8 C88.7 7.4 91 19.3 91.5 22.3 C91.7 23.4 92.2 25.3 92.2 26.6 C92.2 28.3 92.4 30.4 92.2 32.3 C92.1 33.8 91.6 36.7 91.5 38.1 C91.4 39.5 90.8 38.3 90.6 39.6 C90.5 39.9 90.5 40.2 90.4 40.4 C90 42 89.7 44.6 89.4 45.9 C89.2 47 89 46.8 88.7 48 C88.4 49.3 88.1 55.7 87.6 57.3 C87.1 58.9 86.5 55.7 85.7 58 C85.4 59 85 60 84.6 61.1 C84.2 62.1 84.1 66.2 83.6 67.4 C83.2 68.4 82.6 66.5 82.2 67.7 C81.8 68.9 81.9 74.3 81.4 75.7 C80.9 77.3 79.7 74.8 79.2 76.6 C78.8 77.8 78.8 84.5 78.4 85.8 C78 87.2 77.3 83.2 76.9 84.6 C76.7 85.6 76.4 86.5 76.2 87.5 C75.9 88.6 75.7 89.8 75.4 91 C75 93 74.6 95 74.2 97.1 C73.9 98.9 73.6 100.8 73.4 102.8 C73.2 104.4 77.3 102.5 80.3 106 C83.3 109.5 83.1 115.5 78.9 116.6 C74.7 117.7 58.9 113.8 57.2 111.6 C56.8 111.1 56.4 108.3 56.2 103.9 C56.1 102 56.8 99 56.7 96.6 C56.7 95.2 57.2 92.5 57.2 91 C57.2 89.1 55 94.1 55 92.1 C55 90.7 56.2 81.7 56.2 80.2 C56.2 77.8 55.6 77.9 56 75.5 C56.2 74.1 57.1 71.4 57.1 70.7 C57.1 68.2 54.9 75.4 55 72.8 C55 72.6 54.4 68.7 56 65 C56.7 63.3 56.6 61.3 56.8 59.6 C56.9 58.1 57 56.6 57.1 55.3 C57.3 52.2 57.4 49.8 57.3 48.9 C56.9 49.2 54.5 54 54.1 54.3 C53.4 54.8 54.7 50.7 54.1 51.2 C53.4 51.7 52.1 54.4 50.7 57.8 C49.3 61.3 50 56.7 49.5 57.1 C48.1 58.4 48.1 62.7 47.6 64.1 C47.2 65.3 46.1 67.4 45.8 67.1 C45.4 66.7 45.5 64.9 45.1 63.5 C44.7 61.9 44 60.5 44 59.5 C44 59.1 44.2 61.8 43.3 61.2 C42.4 60.6 40 53.3 39 52.1 C38.4 51.4 38.5 54.5 38.1 54.2 C37.3 53.7 36 50.3 35.5 49.7 C35.2 50.6 35.2 52.8 35.2 55.6 C35.2 57.8 36.6 65.6 36.7 68.4 C36.7 69.9 35.2 66.8 35.2 68.4 C35.2 69.9 34.9 71.8 34.9 72.1 C34.9 73.7 35.1 77.2 35.6 80.9 C36 84.3 36.7 87.9 36.7 89.4 C36.7 92.6 34.9 87.8 34.9 90.8 C34.9 92.2 35.6 95.1 35.5 96.4 C35.4 98.8 35.3 101.1 35.2 103 C35.1 104.7 35 106.1 34.8 107.4 C34.5 109.7 34.2 111.1 33.8 111.4 C31.2 112.9 21 117.9 12.2 116.4 C8.3 114.2 9.6 108.5 12.5 105.1 C15.4 101.7 19.7 104.1 19.5 101.5 C19.3 99 18.6 95.6 17.7 91.9 C17.5 90.9 17.2 89.9 16.9 88.8 C16.7 88 16.4 87.1 16.2 86.2 C15.8 84.7 15.3 83.2 14.9 81.6 C14.5 80.2 14.3 84.4 13.8 83 C13.4 81.9 12.8 75.1 12.5 74 C12.1 72.8 11.7 71.7 11.4 70.6 C11.1 69.7 10.5 72.1 10.2 71.2 C9.7 69.9 9.5 65.3 9.1 64.1 C8.7 62.9 8.3 61.9 7.9 60.9 C7.6 60 7.1 61.7 6.8 60.9 C6.2 59.4 5.8 55.5 5.4 54.2 C5 53 4.6 54.4 4.2 53.2 C3.9 52.1 3.5 48.4 3.2 47.3 C2.8 45.7 3.5 46.3 3.2 44.5 C3 43.3 2.6 42.5 1.2 37.8 C-0.2 33.1 0.5 21.8 0.7 19.8 C0.8 18.3 1.2 15 1.4 13.6 C2.2 7.8 4.2 4.3 5.7 1.4 C6 0.8 6.5 0 6.8 0.5 C7.6 1.7 7.9 4.3 8.7 6.6 C8.8 7.2 8.9 7.7 9 7.9 C10 10.1 10.8 12.4 11.6 14.4 C11.6 14.7 11.7 14.9 11.7 15 C12.4 16.4 13 17.5 13.5 18.4 C13.7 18.9 13.8 18.9 13.8 18.9 C14 19.2 14.2 19.5 14.4 19.7 C14.8 20.1 15.2 20.5 15.6 21 C15.7 21.8 15.9 22.5 16 22.7 C16.2 23 16.6 22.7 16.9 22.4 C17.3 22.8 17.7 23.1 18.1 23.5 C18.2 24.4 18.3 25.4 18.6 25.7 C18.8 25.9 18.9 25.3 19.1 24.5 C19.6 25 20.1 25.4 20.6 25.8 C20.9 27.7 21.4 29 21.8 29.4 C22.4 30 22.6 28.4 23.2 29 C23.8 29.5 24.6 33.5 25.2 34 C25.5 34.3 26.4 31.6 26.9 30.5 C27.2 30.7 27.4 30.8 27.7 31 C28 32.3 28.1 34.6 28.5 34.9 C28.9 35.2 28.7 33.4 29.1 33.7 C29.7 34.1 29.8 40.3 30.7 38.9 C31.6 37.5 31.2 35 31.3 35.1 C32 35.5 33.5 41.8 34.2 42.1 C34.5 42.3 35.1 41.5 35.2 40 C35.3 38.8 34.9 37 35.2 37.1 C35.8 37.4 36.7 38.3 37.3 40 C38 42.1 38.4 45.1 39.1 45.3 C39.7 45.5 40 43.4 40.4 41.3 C40.8 39.2 41.1 37.1 41.7 37.1 C42.3 37.2 42.5 40.6 42.4 42.5 C42.3 44.8 43.2 49.7 43.9 49.7 C44.1 49.7 44 45.1 44.9 43 C45.8 40.9 46.9 38.1 47.2 38.1 C47.5 38.1 48 40.7 48.1 42.1 C48.3 43.9 48.6 45.6 49 45.3 C49.6 44.8 51.6 37.2 51.9 37.1 C52.4 37 52 44.2 53.7 43.9 C53.8 43.9 54.9 42.2 55 42.1 C57 40.8 58.8 35.4 59.2 35.2 C59.6 35 58.8 38.8 59.2 38.6 C59.3 38.5 61.9 32.1 62.6 31.6 C63.1 31.3 63.4 35.2 63.8 34.9 C64.1 34.7 65.6 33.5 66.2 31.6 C66.5 30.7 66.6 29.7 66.6 28.9 C67 28.6 67.4 28.4 67.8 28.1 C67.9 28.4 67.9 28.7 67.9 29.1 C68 30.4 67.7 32.4 67.9 32.2 C68.8 31.6 70 28.6 71.4 26.7 C72.5 25.2 72.6 28.7 73.3 27.9 C73.6 27.6 74.2 26.3 74.7 25.1 C75.2 23.6 75.7 22.1 76.1 21.6 C76.6 21 76.4 24.7 76.9 24.1 C77.2 23.6 78.7 18.9 79 18.4 C79.3 17.9 79.9 20.1 80.2 19.6 C80.4 19.2 81.3 15.3 81.5 14.9 C81.7 14.6 81.7 15.9 81.8 15.6 C82 15.3 81.9 12.6 82.4 13.3 C83 13.9 83.4 11.2 84 9.6 C84.4 8.6 84.7 6.5 85 4.3 C85.5 3.8 85.4 1.1 85.7 0.8 z" id="v" fill="#424753" /><path d="M85.7 0.8 C88.7 7.4 91 19.3 91.5 22.3 C91.7 23.4 92.2 25.3 92.2 26.6 C92.2 28.3 92.4 30.4 92.2 32.3 C92.1 33.8 91.6 36.7 91.5 38.1 C91.4 39.5 90.8 38.3 90.6 39.6 C90.5 39.9 90.5 40.2 90.4 40.4 C90 42 89.7 44.6 89.4 45.9 C89.2 47 89 46.8 88.7 48 C88.4 49.3 88.1 55.7 87.6 57.3 C87.1 58.9 86.5 55.7 85.7 58 C85.4 59 85 60 84.6 61.1 C84.2 62.1 84.1 66.2 83.6 67.4 C83.2 68.4 82.6 66.5 82.2 67.7 C81.8 68.9 81.9 74.3 81.4 75.7 C80.9 77.3 79.7 74.8 79.2 76.6 C78.8 77.8 78.8 84.5 78.4 85.8 C78 87.2 77.3 83.2 76.9 84.6 C76.7 85.6 76.4 86.5 76.2 87.5 C75.9 88.6 75.7 89.8 75.4 91 C75 93 74.6 95 74.2 97.1 C73.9 98.9 73.6 100.8 73.4 102.8 C73.2 104.4 77.3 102.5 80.3 106 C83.3 109.5 83.1 115.5 78.9 116.6 C74.7 117.7 58.9 113.8 57.2 111.6 C56.8 111.1 56.4 108.3 56.2 103.9 C56.1 102 56.8 99 56.7 96.6 C56.7 95.2 57.2 92.5 57.2 91 C57.2 89.1 55 94.1 55 92.1 C55 90.7 56.2 81.7 56.2 80.2 C56.2 77.8 55.6 77.9 56 75.5 C56.2 74.1 57.1 71.4 57.1 70.7 C57.1 68.2 54.9 75.4 55 72.8 C55 72.6 54.4 68.7 56 65 C56.7 63.3 56.6 61.3 56.8 59.6 C56.9 58.1 57 56.6 57.1 55.3 C57.3 52.2 57.4 49.8 57.3 48.9 C56.9 49.2 54.5 54 54.1 54.3 C53.4 54.8 54.7 50.7 54.1 51.2 C53.4 51.7 52.1 54.4 50.7 57.8 C49.3 61.3 50 56.7 49.5 57.1 C48.1 58.4 48.1 62.7 47.6 64.1 C47.2 65.3 46.1 67.4 45.8 67.1 C45.4 66.7 45.5 64.9 45.1 63.5 C44.7 61.9 44 60.5 44 59.5 C44 59.1 44.2 61.8 43.3 61.2 C42.4 60.6 40 53.3 39 52.1 C38.4 51.4 38.5 54.5 38.1 54.2 C37.3 53.7 36 50.3 35.5 49.7 C35.2 50.6 35.2 52.8 35.2 55.6 C35.2 57.8 36.6 65.6 36.7 68.4 C36.7 69.9 35.2 66.8 35.2 68.4 C35.2 69.9 34.9 71.8 34.9 72.1 C34.9 73.7 35.1 77.2 35.6 80.9 C36 84.3 36.7 87.9 36.7 89.4 C36.7 92.6 34.9 87.8 34.9 90.8 C34.9 92.2 35.6 95.1 35.5 96.4 C35.4 98.8 35.3 101.1 35.2 103 C35.1 104.7 35 106.1 34.8 107.4 C34.5 109.7 34.2 111.1 33.8 111.4 C31.2 112.9 21 117.9 12.2 116.4 C8.3 114.2 9.6 108.5 12.5 105.1 C15.4 101.7 19.7 104.1 19.5 101.5 C19.3 99 18.6 95.6 17.7 91.9 C17.5 90.9 17.2 89.9 16.9 88.8 C16.7 88 16.4 87.1 16.2 86.2 C15.8 84.7 15.3 83.2 14.9 81.6 C14.5 80.2 14.3 84.4 13.8 83 C13.4 81.9 12.8 75.1 12.5 74 C12.1 72.8 11.7 71.7 11.4 70.6 C11.1 69.7 10.5 72.1 10.2 71.2 C9.7 69.9 9.5 65.3 9.1 64.1 C8.7 62.9 8.3 61.9 7.9 60.9 C7.6 60 7.1 61.7 6.8 60.9 C6.2 59.4 5.8 55.5 5.4 54.2 C5 53 4.6 54.4 4.2 53.2 C3.9 52.1 3.5 48.4 3.2 47.3 C2.8 45.7 3.5 46.3 3.2 44.5 C3 43.3 2.6 42.5 1.2 37.8 C-0.2 33.1 0.5 21.8 0.7 19.8 C0.8 18.3 1.2 15 1.4 13.6 C2.2 7.8 4.2 4.3 5.7 1.4 C6 0.8 6.5 0 6.8 0.5 C7.6 1.7 7.9 4.3 8.7 6.6 C8.8 7.2 8.9 7.7 9 7.9 C10 10.1 10.8 12.4 11.6 14.4 C11.6 14.7 11.7 14.9 11.7 15 C12.4 16.4 13 17.5 13.5 18.4 C13.7 18.9 13.8 18.9 13.8 18.9 C14 19.2 14.2 19.5 14.4 19.7 C14.8 20.1 15.2 20.5 15.6 21 C15.7 21.8 15.9 22.5 16 22.7 C16.2 23 16.6 22.7 16.9 22.4 C17.3 22.8 17.7 23.1 18.1 23.5 C18.2 24.4 18.3 25.4 18.6 25.7 C18.8 25.9 18.9 25.3 19.1 24.5 C19.6 25 20.1 25.4 20.6 25.8 C20.9 27.7 21.4 29 21.8 29.4 C22.4 30 22.6 28.4 23.2 29 C23.8 29.5 24.6 33.5 25.2 34 C25.5 34.3 26.4 31.6 26.9 30.5 C27.2 30.7 27.4 30.8 27.7 31 C28 32.3 28.1 34.6 28.5 34.9 C28.9 35.2 28.7 33.4 29.1 33.7 C29.7 34.1 29.8 40.3 30.7 38.9 C31.6 37.5 31.2 35 31.3 35.1 C32 35.5 33.5 41.8 34.2 42.1 C34.5 42.3 35.1 41.5 35.2 40 C35.3 38.8 34.9 37 35.2 37.1 C35.8 37.4 36.7 38.3 37.3 40 C38 42.1 38.4 45.1 39.1 45.3 C39.7 45.5 40 43.4 40.4 41.3 C40.8 39.2 41.1 37.1 41.7 37.1 C42.3 37.2 42.5 40.6 42.4 42.5 C42.3 44.8 43.2 49.7 43.9 49.7 C44.1 49.7 44 45.1 44.9 43 C45.8 40.9 46.9 38.1 47.2 38.1 C47.5 38.1 48 40.7 48.1 42.1 C48.3 43.9 48.6 45.6 49 45.3 C49.6 44.8 51.6 37.2 51.9 37.1 C52.4 37 52 44.2 53.7 43.9 C53.8 43.9 54.9 42.2 55 42.1 C57 40.8 58.8 35.4 59.2 35.2 C59.6 35 58.8 38.8 59.2 38.6 C59.3 38.5 61.9 32.1 62.6 31.6 C63.1 31.3 63.4 35.2 63.8 34.9 C64.1 34.7 65.6 33.5 66.2 31.6 C66.5 30.7 66.6 29.7 66.6 28.9 C67 28.6 67.4 28.4 67.8 28.1 C67.9 28.4 67.9 28.7 67.9 29.1 C68 30.4 67.7 32.4 67.9 32.2 C68.8 31.6 70 28.6 71.4 26.7 C72.5 25.2 72.6 28.7 73.3 27.9 C73.6 27.6 74.2 26.3 74.7 25.1 C75.2 23.6 75.7 22.1 76.1 21.6 C76.6 21 76.4 24.7 76.9 24.1 C77.2 23.6 78.7 18.9 79 18.4 C79.3 17.9 79.9 20.1 80.2 19.6 C80.4 19.2 81.3 15.3 81.5 14.9 C81.7 14.6 81.7 15.9 81.8 15.6 C82 15.3 81.9 12.6 82.4 13.3 C83 13.9 83.4 11.2 84 9.6 C84.4 8.6 84.7 6.5 85 4.3 C85.5 3.8 85.4 1.1 85.7 0.8 z M85.9 6.5 C85.6 6.8 85 10.4 84.6 10.9 C84.3 12.9 83.2 14.4 82.8 15.3 C82.2 16.8 82.1 19.9 81.5 19.4 C81.1 18.7 80.9 21.2 80.7 21.5 C80.6 21.8 79.4 20.3 79.2 20.6 C79 20.9 78.6 22.5 78.4 22.9 C78.1 23.3 77 25.9 76.8 26.4 C76.5 26.8 76 24.3 75.7 24.8 C75.2 25.3 75.4 28.2 74.9 28.8 C74.5 29.3 73.4 28 72.9 29.4 C72.4 30.5 71.8 28.7 71.6 29 C70.9 29.8 70.2 30.4 69.1 31.8 C67.8 33.6 68.1 33.4 67.2 33.9 C67 34.1 66.9 32.5 66.8 31.3 C66.8 30.9 65.6 35.1 65.3 35.3 C65.3 36.1 64.3 34.5 64 35.3 C63.4 37.1 62.8 36.5 62.5 36.7 C62.1 37 62.9 35.1 62.5 35.3 C61.8 35.8 60 41.2 59.9 41.3 C59.5 41.5 58.5 39.4 58.1 39.6 C57.7 39.8 56.9 43.1 55 44.3 C54.9 44.4 53.3 44.9 53.2 44.9 C51.6 45.1 51.8 41.1 51.4 41.2 C51.1 41.3 49.6 47.2 49 47.7 C48.7 48 47.6 45.4 47.4 43.8 C47.3 42.4 47.4 40.7 47.1 40.7 C46.8 40.7 46.6 43.8 45.8 45.8 C44.9 47.7 43.9 51.4 43.7 51.4 C43.1 51.4 41.5 46.3 41.6 44.2 C41.7 42.4 42.2 39 41.6 38.9 C41.1 38.9 41.2 40.5 40.8 42.4 C40.4 44.4 39.8 47.6 39.2 47.4 C38.6 47.3 37.5 44.3 36.9 42.3 C36.3 40.7 36.5 38.8 35.9 38.5 C35.7 38.4 36 40.1 35.9 41.2 C35.8 42.6 35.5 43.9 34.1 43.9 C32.7 43.5 32.5 38.6 31.8 38.3 C31.8 38.2 31.9 39.6 31.1 40.9 C30.2 42.2 29.5 37.7 28.9 37.3 C28.5 37 28.2 38.2 27.3 37.3 C26.5 36.4 27.8 34.7 27.5 33.5 C27.2 33.3 27.2 33 26.9 32.8 C26.5 33.9 25 36 24.7 35.7 C24.2 35.3 23.7 31.3 23.1 30.8 C22.6 30.3 21.9 31.4 21.3 30.8 C20.9 30.5 19.7 27.2 19.6 26.4 C19.2 26 18.6 27.8 18.2 27.4 C17.9 27.7 17.2 25.3 17 25.1 C16.9 24.9 17.1 24.4 17 23.7 C16.6 23.2 16 24.3 15.7 23.9 C15.5 23.7 14.2 21.3 14 20.9 C13.5 20 11.9 17.8 11.9 17.6 C11.2 15.7 10.7 14.4 9.7 12.4 C9.7 12.2 7.7 6.8 7 5.6 C6.7 5.2 5.8 4.2 5.5 4.7 C4.9 6 3.6 8.7 2.8 12.4 C1.9 16.7 1.7 22.1 1.6 22.9 C1.4 24.7 2.9 34.8 4.2 39.2 C5.5 43.6 5.8 44.3 6 45.4 C6.3 47.1 5.7 46.5 6 48 C6.3 49.1 6.7 52.5 7 53.6 C7.3 54.7 7.7 53.4 8.1 54.5 C8.5 55.7 8.8 59.3 9.4 60.7 C9.7 61.5 10.1 59.9 10.4 60.7 C10.8 61.7 11.2 62.6 11.5 63.7 C11.9 64.9 12.1 69.2 12.6 70.4 C12.9 71.2 13.4 69 13.7 69.8 C14 70.8 14.4 71.9 14.7 73 C15 74 15.6 80.4 15.9 81.4 C16.4 82.7 16.6 78.8 17 80.1 C17.3 81.6 17.8 83 18.2 84.4 C18.4 85.2 18.6 86.1 18.8 86.8 C19.1 87.8 19.4 88.8 19.6 89.7 C20.4 93.2 21.1 101.4 21.3 103.8 C21.5 106.2 16.7 102.7 14 105.9 C11.3 109.1 10.8 110.5 14.4 112.6 C22.7 114 30.6 110.6 33 109.2 C33.4 108.9 33.5 105.6 33.7 103.5 C33.9 102.3 33.4 94.5 33.5 92.2 C33.6 91 33.6 89.5 33.6 88.2 C33.6 85.4 35 90.4 35 87.5 C35 86.1 34.5 82 34.1 78.8 C33.6 75.3 33.5 73 33.5 71.5 C33.5 71.2 34.1 68.9 34.1 67.5 C34.1 66 35.4 67.9 35.4 66.5 C35.3 63.9 34.1 57.3 34.1 55.2 C34.1 52.6 34 47.2 34.3 46.3 C34.7 46.9 37.1 51.5 37.8 52 C38.2 52.2 38.5 49.9 39 50.6 C40 51.7 42.2 58.3 43 58.9 C43.9 59.4 44 56.8 44 57.2 C44 58.1 45.1 60.7 45.5 62.2 C45.8 63.5 45.7 65.1 46.1 65.5 C46.4 65.7 46.7 63.6 47.1 62.5 C47.6 61.2 48.1 56.2 49.4 55 C49.9 54.6 49.8 58.7 51.1 55.4 C52.4 52.2 53.7 48.7 54.4 48.2 C55 47.8 54.2 51.1 54.9 50.6 C55.3 50.4 58.7 44.8 59.1 44.5 C59.2 45.4 58.5 51.6 58.4 54.5 C58.3 55.7 58 59.5 57.9 60.9 C57.7 62.5 57.5 63.5 56.9 65.1 C55.4 68.5 55.6 69.4 55.6 69.6 C55.5 72 58.4 66.9 58.4 69.2 C58.4 69.9 57.6 73.3 57.5 74.6 C57.1 76.8 57.5 77.8 57.5 80.1 C57.5 81.5 56 87.9 56 89.2 C56 91.1 59.1 87.1 59.1 88.9 C59.1 90.3 57.9 94.4 57.9 95.7 C58 97.9 57.4 101.7 57.5 103.5 C57.6 107.6 57.5 108.1 57.9 108.6 C59.5 110.6 72.8 113.8 76.8 112.8 C80.7 111.8 80.8 109.2 78 105.9 C75.2 102.6 71 106.1 71.2 104.6 C71.4 102.7 72.1 96.2 72.4 94.6 C72.7 92.6 73.1 90.7 73.5 88.9 C73.8 87.7 74 86.6 74.2 85.6 C74.4 84.7 74.7 83.8 74.9 82.9 C75.3 81.6 76.5 83.8 76.9 82.4 C77.2 81.2 76.8 75.7 77.2 74.6 C77.6 72.9 78.7 75.4 79.2 73.9 C79.7 72.6 79.5 68.2 79.8 67.1 C80.2 66 81.1 66.7 81.5 65.7 C82 64.6 81.7 61.9 82.1 60.9 C82.5 59.9 83.2 58.1 83.4 57.2 C84.2 55 85.4 56.9 85.9 55.4 C86.4 53.9 85.6 49.9 85.9 48.7 C86.2 47.6 86.4 47.8 86.6 46.7 C86.8 45.5 87.1 43.1 87.5 41.6 C87.6 41.4 87.6 41.1 87.7 40.8 C87.9 39.6 88.4 40.8 88.5 39.4 C88.6 38.1 89.1 35.4 89.2 34 C89.4 32.3 89.2 30.3 89.2 28.7 C89.2 27.5 89.4 23.9 89.2 22.9 C88.7 20.1 88.7 12.7 85.9 6.5 z" opacity="0.4" id="w" /></g></g><g transform="translate(169.6, 177.3) scale(0.8906075) translate(-169.6, -177.3)" id="x"><g transform="translate(86.90001, 76.79997) translate(38, 0)" id="y"><g id="z"><path d="M67 2.2 C73.4 3.6 81.6 6.5 84.5 10.5 C87.4 14.5 90.2 22.1 89.1 36.2 C88 50.3 87.7 63.3 84.9 70.8 C82.1 78.3 75 87 64.4 90.8 C57.6 93.3 51.2 94.5 45.2 94.6 C44.9 94.6 44.8 94.6 44.7 94.6 C38.7 94.5 32.3 93.2 25.5 90.8 C15 87 7.8 78.2 5 70.7 C2.2 63.2 2 50.4 0.9 36.3 C-0.2 22.2 2.6 14.7 5.5 10.6 C8.4 6.5 16.6 3.6 23 2.3 C27.2 1.4 34.4 0.8 44.7 0.5 C55.5 0.7 62.8 1.3 67 2.2 z" id="a1" fill="#424753" /><path d="M72.4 85.7 C70 87.7 67.2 89.4 63.9 90.6 C57.1 93.1 50.7 94.3 44.7 94.4 C44.6 94.4 44.5 94.4 44.5 94.4 C44.4 94.4 44.3 94.4 44.3 94.4 C38.3 94.3 31.9 93 25.1 90.6 C21.8 89.4 19.1 87.8 16.7 85.9 C13.9 74 13 66.5 13.9 63.2 C15.3 57.8 17.2 56.8 11.8 50.9 C6.4 45 12 38 19.6 33.1 C24.6 29.8 27.9 28.7 29.3 29.6 C26.3 28.2 24.3 28.9 22.8 29.2 C20.5 29.7 22.5 24.9 27.2 23.7 C31.9 22.5 36 23.2 38.1 25.2 C40.2 27.2 41.4 28.8 43.6 28.7 C43.7 28.7 43.9 28.7 44 28.7 C43.7 28.7 43.9 28.7 44.5 28.7 C45.1 28.7 45.3 28.7 45 28.7 C45.1 28.7 45.2 28.7 45.4 28.7 C47.6 28.8 48.9 27.4 51.1 25.4 C53.2 23.4 57.4 22 61.9 23.7 C66.4 25.4 68.8 30 66.5 29.5 C65 29.2 62.8 28.1 59.8 29.5 C61.2 28.6 64.5 29.7 69.5 33 C77 38 82.7 45.1 77.3 51 C71.8 56.9 73.7 57.8 75.2 63.3 C75.9 66.4 75 73.9 72.4 85.7 z" id="b1" fill="#273447" /><path d="M56.9 1 C57.3 1.3 53.2 1.7 52.8 7 C52.6 8.7 55.1 17.3 55.5 19.4 C56.7 24.8 55.9 24.4 54.6 27.2 C50.2 36.4 49 41.7 51.9 46.6 C53.8 49.8 57.2 53.4 62 57.4 C64.9 60.2 66.8 62.7 67.6 64.8 C69.5 69.9 72.6 79 67.6 86.6 C62.6 94.2 58.2 102.4 44.8 102.4 C31.4 102.4 23.8 94.2 20.3 84.8 C16.8 75.4 19 72.6 21.7 67.1 C23.4 63.6 24.8 60.8 28.6 57.5 C32.4 54.2 35.9 50 37.8 46.7 C40.6 41.8 39.4 36.5 35.1 27.3 C33.7 24.5 33 24.9 34.2 19.5 C34.8 16.9 37 12.2 37 7.1 C37 2 32.6 1.2 32.9 1 C33.8 0.9 37.8 0.5 44.8 0.5 C51.8 0.5 55.9 0.9 56.9 1 z" id="c1" fill="#1A2230" /><path d="M67 2.2 C73.4 3.6 81.6 6.5 84.5 10.5 C87.4 14.5 90.2 22.1 89.1 36.2 C88 50.3 87.7 63.3 84.9 70.8 C82.1 78.3 75 87 64.4 90.8 C57.6 93.3 51.2 94.5 45.2 94.6 C44.9 94.6 44.8 94.6 44.7 94.6 C38.7 94.5 32.3 93.2 25.5 90.8 C15 87 7.8 78.2 5 70.7 C2.2 63.2 2 50.4 0.9 36.3 C-0.2 22.2 2.6 14.7 5.5 10.6 C8.4 6.5 16.6 3.6 23 2.3 C27.2 1.4 34.4 0.8 44.7 0.5 C55.5 0.7 62.8 1.3 67 2.2 z M66.4 2.4 C62.3 1.5 55.2 0.9 44.7 0.7 C34.7 1 27.7 1.6 23.6 2.5 C17.4 3.8 9.4 6.6 6.6 10.6 C3.8 14.6 1 21.9 2.1 35.6 C3.2 49.3 3.4 61.8 6.1 69.1 C8.8 76.4 15.8 85 26 88.7 C32.6 91 38.8 92.3 44.7 92.4 C44.8 92.4 44.9 92.4 45.2 92.4 C51 92.3 57.3 91.1 63.9 88.7 C74.2 85 81.1 76.5 83.9 69.2 C86.7 61.9 86.9 49.2 88 35.5 C89.1 21.8 86.3 14.4 83.5 10.5 C80.7 6.6 72.6 3.8 66.4 2.4 z" fill-opacity="0.3" id="d1" /></g></g><g transform="translate(98.90001, 70.99997) translate(3, 2)" id="e1"><path d="M33.9 21.7 C35.1 19.6 35.4 14.7 32.2 12.1 C29.1 9.6 18.9 1.4 16 0.8 C13.1 0.2 11.9 0 9.8 0.8 C8 1.5 6.7 3.9 6.3 4.9 C5.4 7 1.1 13.6 1.1 21.6 C1.1 29.6 0.5 36.5 1.1 39.7 C1.7 42.8 3.2 42.8 4.7 42.8 C5.5 42.8 11.7 35.5 18.8 30.6 C26 25.6 32.8 23.8 33.9 21.7 z" id="f1" fill="#1A2230" /><path d="M33.9 21.7 C32.8 23.8 26 25.6 18.8 30.6 C11.7 35.5 5.5 42.8 4.7 42.8 C3.2 42.8 1.7 42.8 1.1 39.7 C0.5 36.5 1.1 29.6 1.1 21.6 C1.1 13.6 5.4 7 6.3 4.9 C6.7 3.9 8 1.5 9.8 0.8 C11.9 0 13.1 0.2 16 0.8 C18.9 1.4 29.1 9.6 32.2 12.1 C35.4 14.7 35.1 19.6 33.9 21.7 z M32.1 20.3 C33.2 18.4 33.4 14.1 30.6 11.8 C27.9 9.6 18.9 2.3 16.3 1.8 C13.7 1.3 12.7 1.1 10.8 1.8 C9.2 2.4 8.1 4.5 7.7 5.4 C6.9 7.3 3.1 13.1 3.1 20.2 C3.1 27.3 2.6 33.4 3.1 36.3 C3.7 39 5 39 6.3 39 C7 39 12.5 32.5 18.7 28.2 C25.1 23.7 31.1 22.1 32.1 20.3 z" opacity="0.15" id="g1" /></g><g transform="translate(109.5, 73.19997) translate(110, 21.5) scale(-1, 1) translate(-110, -21.5) translate(92, 0)" id="h1"><path d="M33.6 22.2 C34.4 20.7 35.3 19.4 35.3 18.1 C35.5 15.9 34.2 13.7 32.2 12.1 C29 9.6 20.6 2.3 15.9 0.8 C14.9 0.5 12.5 0.3 10.8 0.8 C8.4 1.6 6.8 3.7 6.2 4.9 C5.3 7 2.3 12.3 1 21.7 C-0.3 31 0.4 36.6 1 39.7 C1.6 42.8 3.1 42.8 4.6 42.8 C5.4 42.8 12.2 36.3 19.6 31.3 C26.6 26.5 32.8 23.6 33.6 22.2 z" id="i1" fill="#1A2230" /><path d="M33.6 22.2 C32.8 23.6 26.6 26.5 19.6 31.3 C12.2 36.3 5.4 42.8 4.6 42.8 C3.1 42.8 1.6 42.8 1 39.7 C0.4 36.6 -0.3 31 1 21.7 C2.3 12.3 5.3 7 6.2 4.9 C6.8 3.7 8.4 1.6 10.8 0.8 C12.5 0.3 14.9 0.5 15.9 0.8 C20.6 2.3 29 9.6 32.2 12.1 C34.2 13.7 35.5 15.9 35.3 18.1 C35.3 19.4 34.4 20.7 33.6 22.2 z M31.9 20.5 C32.6 19.2 33.4 18 33.4 16.9 C33.6 15 32.4 13 30.6 11.6 C27.7 9.4 20.2 3 16 1.7 C15.1 1.4 13 1.3 11.4 1.7 C9.4 2.5 8 4.3 7.4 5.4 C6.6 7.2 3.9 11.9 2.8 20.1 C1.6 28.2 2.3 33.2 2.8 35.9 C3.3 38.6 4.7 38.6 6 38.6 C6.7 38.6 12.8 32.9 19.4 28.5 C25.7 24.3 31.2 21.7 31.9 20.5 z" opacity="0.15" id="j1" /></g><g id="k1"><g transform="translate(108.5, 85.49997) translate(39, 34)" id="l1"><path d="M43.8 25.9 C34.9 27 32.1 15 29.6 9.5 L28.8 25.7 C28.5 29.8 24.5 32.1 21.1 31.9 C17.7 32.1 14.9 28.9 14.9 25.7 C14.9 23.6 14.8 18.2 14.5 9.5 C12.1 15 9.2 26.8 0.3 25.7 L1.2 29.7 C1.6 32 2 34.8 2.4 38.3 C3.5 48.9 9.9 52 22.1 52 C34.4 51.9 40.8 48.9 41.8 38.3 C42.2 34.8 42.6 32 43 29.7 L43.8 25.9 z" id="m1" fill="#B46734" /><path d="M43.8 25.9 L43 29.7 C42.6 32 42.2 34.8 41.8 38.3 C40.8 48.9 34.4 51.9 22.1 52 C9.9 52 3.5 48.9 2.4 38.3 C2 34.8 1.6 32 1.2 29.7 L0.3 25.7 C9.2 26.8 12.1 15 14.5 9.5 C14.8 18.2 14.9 23.6 14.9 25.7 C14.9 28.9 17.7 32.1 21.1 31.9 C24.5 32.1 28.5 29.8 28.8 25.7 L29.6 9.5 C32.1 15 34.9 27 43.8 25.9 z M42.8 26.7 C34.6 27.7 32.5 17.4 30.2 12.2 L29.6 27.3 C29.3 31.1 25.2 33.1 22.1 32.9 C19 33.1 14.3 29.4 14.3 26.4 C14.3 24.4 14.1 19.9 14.1 11.8 C11.9 16.9 10.3 27.5 2.1 26.5 L3 30.5 C3.4 32.7 3.7 33.9 4 37.1 C5 47.1 10.9 50 22.1 50 C33.4 49.9 39.3 47.1 40.2 37.2 C40.6 33.9 41.1 32.3 41.5 30.1 L42.8 26.7 z" opacity="0.15" id="n1" /></g><g transform="translate(169.6, 165.9) scale(0.6) translate(-169.6, -165.9) translate(106.2, 64.19997) translate(46, 76)" id="o1"><g id="p1"><g id="q1"><path d="M2.2 34.2 C2.8 34.2 3.3 34.2 5.4 32.4 C7.2 30.9 8.3 29.4 8.8 28.9 C9.9 27.7 12.4 24.9 14.6 23.9 C14.9 23.8 15.5 23.6 16.4 23.4 L16.9 8.7 L17.9 8.7 L18.5 23.4 C20.7 23.8 22.8 24.8 24.8 26.6 C27.8 29.2 27.1 29 29.6 31.7 C32.1 34.4 33.1 34.4 34.4 34.4 C35 34.5 34.7 36.3 33.7 36.7 C32.8 37.1 31.3 36.6 30.8 36.1 C30.7 36 26.8 31.6 24.1 29 C22.4 27.4 21.7 27 19.6 26.5 C17.5 26 16 26.2 14.7 27 C13.4 27.8 12.7 28.4 11.2 29.9 C9.7 31.4 8.4 33.1 6.6 34.3 C6 34.7 5.5 35.5 4.5 36 C3.9 36.3 2.6 37.1 1.7 37.1 C0.6 37.1 0.5 37.2 0.1 35.7 C-0.3 34.2 1.5 34.4 2.2 34.2 z" id="r1" /><path d="M6.3 7.6 C6.3 13 12.4 14.7 10.2 19.4 C8 24.1 -0.5 32.7 17.9 32.7 C36.3 32.7 25.4 22.5 23.7 19 C22 15.5 28.1 11.9 28.1 7.7 C28.1 3.5 25.1 0 17.2 0 C10.8 0 6.3 2.3 6.3 7.6 z" fill-opacity="0.3233" id="s1" fill="#010101" /></g></g></g><g transform="translate(169.6, 149.9) scale(0.8) translate(-169.6, -153.9) translate(102.5, 80.59997) translate(56, 65)" id="t1"><g id="u1"><path d="M20.3 1.6 C18.3 -0.6 14.7 0.3 11.1 0.3 C7.5 0.3 3.9 -0.6 1.9 1.6 C-0.1 3.8 -0.1 7.6 1.9 9.8 C3.3 11.3 4.7 12.2 6.6 13.2 C8.2 14.1 9.3 16.2 11 16.4 C12.8 16.2 13.8 14 15.4 13.2 C17.4 12.2 18.8 11.3 20.1 9.8 C22.3 7.6 22.3 3.9 20.3 1.6 z" id="v1" fill="#282523" /><path d="M16.8 3.2 C16.6 2.6 15.3 2.5 14.4 2.3 C12.8 2 10.5 2.2 7.8 2.2 C7.1 2.2 6.4 2.2 5.7 2.5 C5 2.8 4.6 3.5 4.7 4.2 C4.9 5.4 6.4 5.6 7.6 5.6 C9.5 5.6 11.5 5.6 13.4 5.5 C14.2 5.5 15 5.5 15.8 5.1 C16.6 4.7 17.1 4 16.8 3.2 z" id="w1" fill="#FEFEFE" /></g></g><g transform="translate(103.4, 46.69997)" id="x1"><g id="y1"><path d="M41.6 70.6 C43.6 67.1 47.7 65 51.7 65.5 C55.7 66 59.2 68.9 60.3 72.8 C61.4 76.6 60.9 80.8 57.2 82.1 C53.8 83.4 45.9 83.9 42.5 81.9 C39 79.8 39.6 74.1 41.6 70.6 z" id="z1" fill="#905333" /><path d="M27 50.2 C33.5 43.3 36.6 42 44.7 40.8 C42 39.9 43 38.4 38.1 37.3 C41.4 34.7 44.9 36 49.1 36.1 C51.9 36.2 54.3 36 56.8 37.5 C56.9 34.8 56.7 32.1 56.3 29.5 C62.7 34.4 65.5 45 65.5 53.1 C65.5 66.4 61 81.3 59.7 79.8 C56.4 73.3 52.3 66.9 47.3 65.9 C45.4 65.5 42.3 66.6 40.7 67.8 C34.9 72.3 32.1 79.6 32.7 86.5 C31.6 86.7 30.6 86.9 29.5 87.1 C28.6 83.2 28.7 79.7 29.5 75.8 C26.3 78.2 24 81.7 22.9 85.5 C21.8 80 22.9 74 25.9 69.2 C22.4 69.8 20.5 73 19.3 76 C17.7 69.3 21.7 55.9 27 50.2 z" id="a2" fill="#905333" /><path d="M40.8 67.9 C35.5 71.1 32.2 79.7 32.8 86.6 C31.7 86.8 30.7 87 29.6 87.2 C28.7 83.3 28.8 79.8 29.6 75.9 C26.4 78.3 24.1 81.8 23 85.6 C21.8 80.1 22.9 74.1 25.9 69.3 C22.4 69.9 20.5 73.1 19.3 76.1 C17.7 69.3 21.7 55.9 27 50.2 C33.5 43.3 36.6 42 44.7 40.8 C42 39.9 43 38.4 38.1 37.3 C41.4 34.7 44.9 36 49.1 36.1 C51.9 36.2 54.3 36 56.8 37.5 C56.9 34.8 56.7 32.1 56.3 29.5 C62.7 34.4 65.5 45 65.5 53.1 C65.5 59.5 64.6 65.5 63.6 70.1 C62.6 75 61.6 78.4 59.1 81 C58.6 81.4 58 81.8 57.2 82.1 C53.8 83.4 45.9 83.9 42.5 81.9 C39 79.8 39.6 74.1 41.6 70.6 C42.9 68.3 45.1 66.6 47.6 65.9 C44.9 66.1 42.3 67 40.8 67.9 z M47.3 64.4 L52 65.3 C49.7 66 44.9 67.5 43.6 69.7 C41.7 73 39.9 77.7 43.2 79.7 C46.4 81.6 53.1 80.9 56.3 79.7 C57 79.4 57.6 79.1 58.1 78.7 C62.6 73.9 64.1 65 64.1 52.5 C64.1 44.9 63.3 36.3 57.3 31.7 C57.7 34.1 57.4 36.9 57.3 39.5 C55 38.1 52.7 37.5 50 37.4 C46.1 37.3 43.3 34.9 40.2 37.3 C44.8 38.3 44.4 40.4 46.9 41.2 C39.3 42.3 35.4 43.3 29.3 49.8 C24.4 55 18.8 64.9 20.3 71.3 C21.4 68.5 24.9 67.8 28.2 67.2 C25.4 71.7 22.5 75.9 23.6 81 C24.6 77.4 27.4 76.1 30.4 73.8 C29.6 77.5 29.6 80.8 30.4 84.4 C31.4 84.2 31.1 84.1 32.1 83.9 C31.5 77.4 36 69.3 40.9 66.3 C42.3 65.4 44.7 64.7 47.3 64.4 z" opacity="0.15" id="b2" /><circle cx="50.5" cy="74.2" r="7.7" id="c2" fill="#CCCCCC" /><circle cx="50.5" cy="74.2" r="6.7" id="d2" fill="#282421" /><path d="M51.4 76 C52.4 76 53.2 75.2 53.2 74.2 C53.2 73.2 52.4 72.4 51.4 72.4 C50.4 72.4 49.6 73.2 49.6 74.2 C49.6 75.2 50.4 76 51.4 76 z" id="e2" fill="#FFF" /><path d="M47.4 69.7 C48.6 69 51.1 68 51.4 69 C51.7 70.2 49.9 69.9 48.7 70.9 C47.4 72 47 72.4 46.3 73.2 C45.7 73.8 45.3 71 47.4 69.7 z" id="f2" fill="#FFF" /></g></g><g transform="translate(102.8, 46.69997) translate(67, 29)" id="g2"><g id="h2"><path d="M24.4 41.6 C22.4 38.1 18.3 36 14.3 36.5 C10.3 37 6.8 39.9 5.7 43.8 C4.6 47.6 5.1 51.8 8.8 53.1 C12.2 54.4 20.1 54.9 23.5 52.9 C27 50.8 26.4 45.1 24.4 41.6 z" id="i2" fill="#905333" /><path d="M18.6 40.7 C17.4 40 14.9 39 14.6 40 C14.3 41.2 16.1 40.9 17.3 41.9 C18.6 43 19 43.4 19.7 44.2 C20.3 44.8 20.7 42 18.6 40.7 z" id="j2" fill="#FFF" /><path d="M38.9 21.2 C32.4 14.3 29.3 13 21.2 11.8 C23.9 10.9 22.9 9.4 27.8 8.3 C24.5 5.7 21 7 16.8 7.1 C14 7.2 11.6 7 9.1 8.5 C9 5.8 9.2 3.1 9.6 0.5 C3.2 5.4 0.4 16 0.4 24.1 C0.4 29 1 34.4 1.9 38.8 C3.4 46.3 5.7 51.5 6.5 50.6 C9.9 44 13.8 37.8 18.6 36.8 C20.3 36.5 23.7 38 25.1 38.8 C30.4 41.9 33.7 50.6 33.1 57.5 C34.2 57.7 35.2 57.9 36.3 58.1 C37.2 54.2 37.1 50.7 36.3 46.8 C39.5 49.2 41.8 52.7 42.9 56.5 C44.1 51 43 45 40 40.2 C43.5 40.8 45.4 44 46.6 47 C48.1 40.3 44.2 26.9 38.9 21.2 z" id="k2" fill="#905333" /><path d="M25.1 38.9 C30.4 42.1 33.7 50.7 33.1 57.6 C34.2 57.8 35.2 58 36.3 58.2 C37.2 54.3 37.1 50.8 36.3 46.9 C39.5 49.3 41.8 52.8 42.9 56.6 C44.1 51.1 43 45.1 40 40.3 C43.5 40.9 45.4 44.1 46.6 47.1 C48.2 40.3 44.2 26.9 38.9 21.2 C32.4 14.3 29.3 13 21.2 11.8 C23.9 10.9 22.9 9.4 27.8 8.3 C24.5 5.7 21 7 16.8 7.1 C14 7.2 11.6 7 9.1 8.5 C9 5.8 9.2 3.1 9.6 0.5 C3.2 5.4 0.4 16 0.4 24.1 C0.4 31.8 1.6 38.6 3 43.6 C4 47.3 5.5 50.3 6.8 52 C7.3 52.4 7.9 52.8 8.7 53.1 C12.1 54.4 20 54.9 23.4 52.9 C26.9 50.8 26.3 45.1 24.3 41.6 C23 39.3 20.8 37.6 18.3 36.9 C21.1 37.1 23.6 38 25.1 38.9 z M18.7 35.4 L14 36.3 C16.3 37 21.1 38.5 22.4 40.7 C24.3 44 26.1 48.7 22.8 50.7 C19.6 52.6 12.9 51.9 9.7 50.7 C9 50.4 8.4 50.1 7.9 49.7 C3.4 44.9 1.9 36 1.9 23.5 C1.9 15.9 2.7 7.3 8.7 2.7 C8.3 5.1 8.6 7.9 8.7 10.5 C11 9.1 13.3 8.5 16 8.4 C19.9 8.3 22.7 5.9 25.8 8.3 C21.2 9.3 21.6 11.4 19.1 12.2 C26.7 13.3 30.6 14.3 36.7 20.8 C41.7 26.2 47.3 36.1 45.8 42.5 C44.7 39.7 41.2 39 37.9 38.4 C40.7 42.9 43.6 47 42.5 52.2 C41.5 48.6 38.7 47.3 35.7 45 C36.5 48.7 36.5 52 35.7 55.6 C34.7 55.4 35 55.3 34 55.1 C34.6 48.6 30.1 40.5 25.2 37.5 C23.6 36.4 21.2 35.7 18.7 35.4 z" opacity="0.15" id="l2" /><circle cx="15.5" cy="45.2" r="7.7" id="m2" fill="#CCCCCC" /><circle cx="15.5" cy="45.2" r="6.7" id="n2" fill="#282421" /><path d="M14.6 47 C13.6 47 12.8 46.2 12.8 45.2 C12.8 44.2 13.6 43.4 14.6 43.4 C15.6 43.4 16.4 44.2 16.4 45.2 C16.4 46.2 15.6 47 14.6 47 z" id="o2" fill="#FFF" /></g></g></g></g></g></g><defs><g transform="translate(17.09519, 0.800995) translate(-135.2952, -293.601)" id="p2" fill="#000"><path d="M118.2 302.7 C118.4 307.4 132.5 311.2 149.8 311.2 C167.1 311.2 181.2 307.4 181.4 302.7 C181.4 307.5 181.4 310.1 181.4 310.5 C181.4 315.3 167.3 319.1 149.8 319.1 C132.3 319.1 118.2 315.2 118.2 310.5 L118.2 302.7 L118.2 302.7 z" fill-opacity="0.4528" id="q2" fill="#593001" /><path d="M118.7 301.7 C118.9 306.4 133 310.2 150.3 310.2 C167.6 310.2 181.7 306.4 181.9 301.7 C181.9 306.5 181.9 309.1 181.9 309.5 C181.9 314.3 167.8 318.1 150.3 318.1 C132.8 318.1 118.7 314.2 118.7 309.5 L118.7 301.7 L118.7 301.7 z" id="r2" fill="#DA8113" /><linearGradient x1="46.0545" y1="-118.6926" x2="45.4656" y2="-118.6926" gradientUnits="userSpaceOnUse" gradientTransform="matrix(117.135, 0, 0, 28.4634, -5208.417, 3687.795)" id="s2"><stop offset="0%" stop-color="#D9952A" stop-opacity="1" /><stop offset="6.438854%" stop-color="#CA7519" stop-opacity="1" /><stop offset="30.54%" stop-color="#E3AD3A" stop-opacity="1" /><stop offset="51.05%" stop-color="#FFEC91" stop-opacity="1" /><stop offset="68.8%" stop-color="#E9BD44" stop-opacity="1" /><stop offset="86.24%" stop-color="#FFED6C" stop-opacity="1" /><stop offset="93.87%" stop-color="#F2D353" stop-opacity="1" /><stop offset="100%" stop-color="#F2B947" stop-opacity="1" /></linearGradient><path d="M118.2 301.6 C118.4 306.1 132.7 309.7 150.3 309.7 C167.9 309.7 182.2 306.1 182.4 301.6 C182.4 306.2 182.4 308.7 182.4 309 C182.4 313.5 168 317.2 150.3 317.2 C132.6 317.2 118.2 313.5 118.2 309 L118.2 301.6 L118.2 301.6 z" id="t2" style="fill:url(#s2)" /><linearGradient x1="45.4914" y1="-117.9547" x2="45.9407" y2="-117.5895" gradientUnits="userSpaceOnUse" gradientTransform="matrix(115.425, 0, 0, 29.925, -5125.077, 3826.124)" id="u2"><stop offset="0%" stop-color="#F4E072" stop-opacity="1" /><stop offset="100%" stop-color="#DB9427" stop-opacity="1" /></linearGradient><ellipse cx="150.3" cy="301.5" rx="31.6" ry="8.2" id="v2" style="fill:url(#u2)" /><linearGradient x1="45.4656" y1="-126.0065" x2="46.0545" y2="-126.0065" gradientUnits="userSpaceOnUse" gradientTransform="matrix(117.135, 0, 0, 18.6219, -5208.417, 2651.479)" id="w2"><stop offset="0%" stop-color="#D9952A" stop-opacity="1" /><stop offset="6.438854%" stop-color="#CA7519" stop-opacity="1" /><stop offset="30.54%" stop-color="#E3AD3A" stop-opacity="1" /><stop offset="51.05%" stop-color="#FFEC91" stop-opacity="1" /><stop offset="68.8%" stop-color="#E9BD44" stop-opacity="1" /><stop offset="86.24%" stop-color="#FFED6C" stop-opacity="1" /><stop offset="93.87%" stop-color="#F2D353" stop-opacity="1" /><stop offset="100%" stop-color="#F2B947" stop-opacity="1" /></linearGradient><path d="M119.2 299.9 C119 300.2 118.9 300.6 118.9 301 C118.9 305.5 132.9 309.2 150.3 309.2 C167.7 309.2 181.7 305.5 181.7 301 C181.7 300.6 181.6 300.3 181.4 299.9 C182 300.5 182.4 301.2 182.4 301.9 C182.4 306.4 168 310.1 150.3 310.1 C132.6 310.1 118.2 306.4 118.2 301.9 C118.2 301.3 118.6 300.6 119.2 299.9 z" id="x2" style="fill:url(#w2)" /><linearGradient x1="45.196" y1="-121.5895" x2="45.3746" y2="-120.6758" gradientUnits="userSpaceOnUse" gradientTransform="matrix(101.745, 0, 0, 23.94, -4458.332, 3199.41)" id="y2"><stop offset="0%" stop-color="#F8DD61" stop-opacity="1" /><stop offset="100%" stop-color="#EAA330" stop-opacity="1" /></linearGradient><ellipse cx="150.3" cy="300.8" rx="27.8" ry="6.6" id="z2" style="fill:url(#y2)" /><linearGradient x1="45.5694" y1="-134.267" x2="45.0221" y2="-134.267" gradientUnits="userSpaceOnUse" gradientTransform="matrix(101.745, 0, 0, 13.2525, -4458.332, 2077.223)" id="a3"><stop offset="0%" stop-color="#F4CA2F" stop-opacity="1" /><stop offset="51.38%" stop-color="#BF7737" stop-opacity="1" /><stop offset="100%" stop-color="#E4A929" stop-opacity="1" /></linearGradient><path d="M122.6 301.5 C122.5 301.3 122.4 301 122.4 300.8 C122.4 297.2 134.9 294.2 150.2 294.2 C165.5 294.2 178 297.1 178 300.8 C178 301 177.9 301.3 177.8 301.5 C176.3 298.2 164.5 295.6 150.1 295.6 C135.7 295.6 124.1 298.2 122.6 301.5 z" id="b3" style="fill:url(#a3)" /></g></defs><desc>8298B2A9DFA,xgagSvsGxCGd+kTONJGLhO+8n4uR9HyejmZbftF7GT6FgaHBVzhw3iRMNtfb1h0dNztBpigV6e0BWnnszROLOxDVY6MFIaPQwwP2xy2m11M=</desc></svg>