<?xml version="1.0" encoding="utf-8"?><!DOCTYPE svg PUBLIC "-//W3C//DTD SVG 1.1//EN" "http://www.w3.org/Graphics/SVG/1.1/DTD/svg11.dtd"><svg x="0" y="0" width="340px" height="340px" viewBox="0, 0, 340, 340" preserveAspectRatio="xMidYMid" font-size="0" id="a" enable-background="new 0 0 340 340" xmlns="http://www.w3.org/2000/svg" xmlns:xlink="http://www.w3.org/1999/xlink" xmlns:xml="http://www.w3.org/XML/1998/namespace" version="1.1"><g id="b" fill="#000"><g id="c"><g transform="translate(0, 0) translate(0, 224)" id="d"><ellipse cx="168.6" cy="53.1" rx="57.8" ry="12.8" fill-opacity="0.25" id="e" /></g><g id="f"><g transform="translate(105.9, 95.59998) translate(0, 107)" id="g"><path d="M40.6 27.9 C34 31.5 24.6 28.4 21.5 21.6 C18.3 14.8 22.1 5.6 29.1 2.9 C26.8 1.1 24 0.4 21.1 0.5 C14.8 0.4 8.4 3.4 4.6 8.5 C0.4 14.2 -0.4 22.4 2.6 28.8 C5 25 5 25 7.5 21.2 C3.5 28.9 6.9 30.6 12.1 37.6 C12.7 35.3 13.2 33.9 14.9 32.7 C14.9 34.9 14.9 36.4 15.5 38.3 C16.2 40.7 16.7 41.1 17.2 42.4 C18.3 42.5 19.3 42.1 20.1 41.4 L19.9 44.6 C20.7 44.8 23.2 44.2 24 44.4 C29.1 44.6 37.1 44.8 40.7 39.1 C44.6 33.4 40.6 27.9 40.6 27.9 z" id="h" fill="#EFE9E6" /><path d="M40.6 27.9 C40.6 27.9 44.6 33.4 40.7 39.1 C37.1 44.8 29.1 44.6 24 44.4 C23.2 44.2 20.7 44.8 19.9 44.6 L20.1 41.4 C19.3 42.1 18.3 42.5 17.2 42.4 C16.7 41.1 16.2 40.7 15.5 38.3 C14.9 36.4 14.9 34.9 14.9 32.7 C13.2 33.9 12.7 35.3 12.1 37.6 C6.7 30.2 3.4 28.6 7.5 21.2 C5 25 5 25 2.6 28.8 C-0.4 22.4 0.4 14.2 4.6 8.5 C8.4 3.4 14.8 0.4 21.1 0.5 C24 0.4 26.8 1.1 29.1 2.9 C22.1 5.6 18.3 14.8 21.5 21.6 C24.6 28.4 34 31.5 40.6 27.9 z M40.3 29.6 C34.4 32.8 23.7 28 20.9 21.9 C18.1 15.8 20.5 4.9 26.7 2.5 C24.6 0.9 22 1.4 19.4 1.5 C13.7 1.4 9.9 3.6 6.4 8.2 C2.7 13.4 1 18.7 3.6 24.5 C5.8 21.1 6.3 21.6 8.6 18.2 C7.6 23.9 7.9 29.4 11.5 33.8 C12 31.7 13.9 31.5 15.5 30.4 C15.5 32.4 15.8 34.4 16.4 36.1 C17.2 39.1 20.7 40.1 21.4 39.5 L21.6 42.5 C22.3 42.7 25.9 42.3 26.7 42.5 C31.3 42.7 37.2 42.7 40.4 37.5 C41.8 34.9 40.6 31.9 40.3 29.6 z" opacity="0.16" id="i" /></g><g transform="translate(123.6, 274.8) scale(1.329597) translate(-123.6, -274.8) translate(96.70001, 100.9) translate(20, 132)" id="j"><path d="M10 26.1 C7.2 22.4 5.1 19.5 4.8 14.6 C4.5 9.6 7.9 5.1 12.4 2.9 C17.1 0.6 29.7 4.5 34.5 6.5 C42.3 9.7 42 22.9 34.4 27.1 C29.3 29.9 25.5 33.8 25.6 42.5 C25.6 44.4 18 45.2 13.2 45.1 C11.4 45.2 5.2 45 4.9 41.8 C4.6 38.9 5.3 36.2 8 35 C11.2 33.4 12 32 10 26.1 z" id="k" fill="#AAA5A3" /><path d="M10 26.1 C7.2 22.4 5.1 19.5 4.8 14.6 C4.5 9.6 7.9 5.1 12.4 2.9 C17.1 0.6 29.7 4.5 34.5 6.5 C42.3 9.7 42 22.9 34.4 27.1 C29.3 29.9 25.5 33.8 25.6 42.5 C25.6 44.4 18 45.2 13.2 45.1 C11.4 45.2 5.2 45 4.9 41.8 C4.6 38.9 5.3 36.2 8 35 C11.2 33.4 12 32 10 26.1 z M10 24.3 C11.8 29.7 12.8 33.8 9.9 35.2 C7.4 36.3 6.2 37.5 6.5 40.1 C6.8 43 12.4 43.2 14.1 43.1 C18.5 43.2 23.9 41.9 23.9 40.2 C23.8 32.3 28.7 29.3 33.4 26.7 C40.3 23 40.5 10.9 33.4 8 C29 6.2 17.5 2.6 13.3 4.7 C9.2 6.7 6.1 10.8 6.4 15.4 C6.6 19.9 7.4 21 10 24.3 z" opacity="0.15" id="l" /><path d="M6.5 6.1 C8.8 2.5 13.3 0.9 17.6 0.9 C21.7 1 38.5 2.1 41.1 13.1 C42.1 17.3 40.3 22.3 37.6 25.6 C35.7 24.9 32 24.7 32.1 23.7 C31.8 26.2 28.6 27.6 26.3 28.6 C26.7 27.4 26.2 25.9 25.2 25.2 C23.8 26.1 22.4 26.9 21 27.8 C19.1 26.9 18.7 25.5 18 23.3 C18 24.3 18 25.3 18.1 26.3 C16.9 26.3 15.7 26.3 14.6 26.3 C13.9 25.8 12.8 24.8 12.1 23.9 C12.1 24.9 12.2 25.8 12.3 26.8 C11.1 26.8 10 26.9 8.8 26.9 C8 25.3 7.2 23.8 6.4 22.2 C6.3 23.9 5.2 25.5 3.7 26.3 C3.6 24 3.5 21.6 3.5 19.3 C2.6 19.2 1.8 19 0.9 18.9 C4.4 15.9 4 10.1 6.5 6.1 z" id="m" fill="#CAC3C0" /><path d="M6.5 6.1 C8.8 2.5 13.3 0.9 17.6 0.9 C21.7 1 38.5 2.1 41.1 13.1 C42.1 17.3 40.3 22.3 37.6 25.6 C35.7 24.9 32 24.7 32.1 23.7 C31.8 26.2 28.6 27.6 26.3 28.6 C26.7 27.4 26.2 25.9 25.2 25.2 C23.8 26.1 22.4 26.9 21 27.8 C19.1 26.9 18.7 25.5 18 23.3 C18 24.3 18 25.3 18.1 26.3 C17 26.3 15.8 26.3 14.6 26.3 C13.9 25.8 12.8 24.8 12.1 23.9 C12.1 23.9 12.1 23.9 12 23.9 C12.1 24.9 12.2 25.8 12.3 26.8 C11.1 26.8 10 26.9 8.8 26.9 C8 25.3 7.2 23.8 6.4 22.2 C6.3 23.9 5.2 25.5 3.7 26.3 C3.6 24 3.5 21.6 3.5 19.3 C2.6 19.2 1.8 19 0.9 18.9 C4.4 15.9 4 10.1 6.5 6.1 z M7.5 6.5 C5.4 9.9 6.9 14.7 3.9 17.3 C4.7 17.4 5 17.2 5.8 17.3 C5.8 19.3 4.5 20.7 4.6 22.7 C5.9 22 6.5 21.1 6.6 19.6 C7.3 21 8.5 22.7 9.2 24.1 C10.2 24.1 10.1 24.4 11.2 24.4 C11.1 23.5 10.7 21.1 11.2 21.1 C11.8 21.9 13.4 23.7 14 24.1 C14.9 24.1 15.7 23.7 16.7 23.7 C16.6 22.8 17.4 21.9 17.4 21.1 C18 23 20.4 24.5 22 25.2 C23.2 24.4 24.9 24.5 26.1 23.7 C27 24.3 27.4 24.6 27.1 25.6 C29.1 24.7 30.3 23.5 30.5 21.4 C30.4 22.3 35.7 22.1 37.3 22.7 C39.6 19.9 39.7 15.8 38.9 12.3 C36.7 2.8 21.6 2 18.1 2 C14.5 2 9.4 3.4 7.5 6.5 z" opacity="0.15" id="n" /></g><g transform="translate(215, 274.8) scale(1.329597) translate(-215, -274.8) translate(109.2, 100.9) translate(91.5, 155) scale(-1, 1) translate(-91.5, -155) translate(71, 132)" id="o"><path d="M9.6 26.1 C6.8 22.4 4.7 19.5 4.4 14.6 C4.1 9.6 7.5 5.1 12 2.9 C16.7 0.6 29.3 4.5 34.1 6.5 C41.9 9.7 41.6 22.9 34 27.1 C28.9 29.9 25.1 33.8 25.2 42.5 C25.2 44.4 17.6 45.2 12.8 45.1 C11 45.2 4.8 45 4.5 41.8 C4.2 38.9 4.9 36.2 7.6 35 C10.8 33.4 11.6 32 9.6 26.1 z" id="p" fill="#AAA5A3" /><path d="M9.6 26.1 C6.8 22.4 4.7 19.5 4.4 14.6 C4.1 9.6 7.5 5.1 12 2.9 C16.7 0.6 29.3 4.5 34.1 6.5 C41.9 9.7 41.6 22.9 34 27.1 C28.9 29.9 25.1 33.8 25.2 42.5 C25.2 44.4 17.6 45.2 12.8 45.1 C11 45.2 4.8 45 4.5 41.8 C4.2 38.9 4.9 36.2 7.6 35 C10.8 33.4 11.6 32 9.6 26.1 z M10.7 25.9 C12.5 31.3 11.9 34.2 8.9 35.6 C6.4 36.7 5.7 37.5 6 40.2 C6.3 43.1 11.9 43.3 13.6 43.2 C18 43.3 23.4 42.4 23.4 40.7 C23.3 32.8 28.3 29.3 33 26.8 C39.9 23 40.1 10.9 33 8 C28.6 6.2 17.1 2.6 12.9 4.7 C8.8 6.7 5.7 10.8 6 15.4 C6.2 19.9 8.2 22.5 10.7 25.9 z" opacity="0.15" id="q" /><path d="M6.1 6.1 C8.4 2.5 12.9 0.9 17.2 0.9 C21.3 1 38.1 2.1 40.7 13.1 C41.7 17.3 39.9 22.3 37.2 25.6 C35.3 24.9 31.6 24.7 31.7 23.7 C31.4 26.2 28.2 27.6 25.9 28.6 C26.3 27.4 25.8 25.9 24.8 25.2 C23.4 26.1 22 26.9 20.6 27.8 C18.7 26.9 18.3 25.5 17.6 23.3 C17.6 24.3 17.6 25.3 17.7 26.3 C16.5 26.3 15.3 26.3 14.2 26.3 C13.5 25.8 12.4 24.8 11.7 23.9 C11.7 23.9 11.7 23.9 11.6 23.9 C11.7 24.9 11.8 25.8 11.9 26.8 C10.7 26.8 9.6 26.9 8.4 26.9 C7.6 25.3 6.8 23.8 6 22.2 C5.9 23.9 4.8 25.5 3.3 26.3 C3.2 24 3.1 21.6 3.1 19.3 C2.2 19.2 1.4 19 0.5 18.9 C4 15.9 3.6 10.1 6.1 6.1 z" id="r" fill="#CAC3C0" /><path d="M6.1 6.1 C8.4 2.5 12.9 0.9 17.2 0.9 C21.3 1 38.1 2.1 40.7 13.1 C41.7 17.3 39.9 22.3 37.2 25.6 C35.3 24.9 31.6 24.7 31.7 23.7 C31.4 26.2 28.2 27.6 25.9 28.6 C26.3 27.4 25.8 25.9 24.8 25.2 C23.4 26.1 22 26.9 20.6 27.8 C18.7 26.9 18.3 25.5 17.6 23.3 C17.6 24.3 17.6 25.3 17.7 26.3 C16.5 26.3 15.3 26.3 14.2 26.3 C13.5 25.8 12.4 24.8 11.7 23.9 C11.7 23.9 11.7 23.9 11.6 23.9 C11.7 24.9 11.8 25.8 11.9 26.8 C10.7 26.8 9.6 26.9 8.4 26.9 C7.6 25.3 6.8 23.8 6 22.2 C5.9 23.9 4.8 25.5 3.3 26.3 C3.2 24 3.1 21.6 3.1 19.3 C2.2 19.2 1.4 19 0.5 18.9 C4 15.9 3.6 10.1 6.1 6.1 z M7.7 6.1 C5.5 9.7 5.7 15.4 2.6 18.1 C3.4 18.2 3.3 18.2 4.1 18.3 C4.1 20.3 4.3 21.5 4.4 23.5 C5.7 22.8 6 21 6.1 19.5 C6.8 20.9 7.4 22.9 8.1 24.3 C9.2 24.3 9.3 24.4 10.4 24.4 C10.3 23.5 9.5 19.1 11.2 20.4 C11.8 21.2 12.9 23.7 13.6 24.1 C14.6 24.1 14.9 24 15.9 24 C15.8 23.1 17.9 22.3 17.9 21.4 C18.5 23.4 18.9 24.6 20.6 25.4 C21.8 24.6 24 23.7 25.2 22.9 C26.1 23.5 27.4 24.6 27.1 25.6 C29.1 24.7 31.3 23.3 31.6 21.1 C31.5 22 34.6 22.5 36.2 23.2 C38.6 20.3 39.3 16.2 38.4 12.5 C36.2 2.5 21.2 1.5 17.6 1.5 C13.8 1.5 9.8 2.9 7.7 6.1 z" opacity="0.15" id="s" /></g><g transform="translate(-285.9, 63.59998) translate(26, 89)" id="t"><path d="M397 32.1 C391 38.3 389.6 53.9 391.7 73.6 C393.8 93.4 398.5 110.6 404.4 118.6 C410.3 126.6 419.1 128.3 429.1 128.3 C439.1 128.3 444.7 128.5 451.9 120.5 C459 112.6 463.7 84.2 465.1 74.4 C466.5 64.7 469.4 41 460.1 32.9 C455.5 28.8 444.8 7 431.3 6.5 C417.8 6 403 26 397 32.1 z" id="u" fill="#CAC3C0" /><path d="M397 32.1 C391 38.3 389.6 53.9 391.7 73.6 C392.6 81.9 396.1 90.6 397.8 97.5 C400.1 107.1 401 114.1 404.4 118.7 C410.3 126.7 419.1 128.4 429.1 128.4 C439.1 128.4 444.7 128.6 451.9 120.6 C459 112.7 463.7 84.3 465.1 74.5 C466.5 64.8 469.4 41.1 460.1 33 C455.5 28.9 444.8 7.3 431.3 6.8 C417.8 6.2 403 26 397 32.1 z" id="v" fill="#CAC3C0" /><path d="M397 32.1 C403 26 417.8 6.2 431.1 6.6 C444.7 7.1 455.4 28.8 459.9 32.8 C469.2 40.9 466.3 64.6 464.9 74.3 C463.5 84.1 458.8 112.5 451.7 120.4 C444.5 128.4 438.9 128.2 428.9 128.2 C418.9 128.2 410.1 126.5 404.2 118.5 C398.3 110.5 393.6 93.2 391.5 73.5 C389.6 53.9 391 38.3 397 32.1 z M398.3 32.4 C392.5 38.4 391.2 53.3 393.2 72.3 C395.2 91.4 399.7 107.8 405.4 115.5 C411.1 123.2 419.5 124.8 429.1 124.8 C438.7 124.8 444.1 125 451 117.3 C457.8 109.7 462.3 82.4 463.7 73 C465 63.7 467.8 40.9 458.9 33.1 C454.3 29.2 444.1 8.5 431 8 C418.2 7.5 404 26.5 398.3 32.4 z" opacity="0.15" id="w" /></g><g transform="translate(124.9491, 183.25) scale(0.9856705, 0.9580553) translate(-124.3, -178.8) translate(95.70001, 85.49997) translate(28, 92)" id="x"><path d="M8.3 7.6 C4.2 18.1 8.4 13.1 8.6 22.6 C16.4 36.1 36.9 54 44.4 54 C53 54 74.8 37.2 80.4 23.7 C82.6 18.6 83.5 14.1 82.6 9.9 C82.2 8.1 81 5.7 80.4 4.5 C78.9 1.8 80.1 13.2 69.5 20.9 C64.6 24.4 55.5 28.5 45.1 28.5 C33.2 28.5 25.6 23.5 19.9 18.8 C10.3 11 10.4 1.3 8.3 7.6 z" id="y" fill="#46494D" /><path d="M7.8 8.9 C0.6 21.8 2.6 26.2 3.5 32.6 C4.5 39 4.5 43.6 6.4 48.3 C8.3 53 8.7 55.4 10.3 60.5 C11.8 65.5 13.8 72.5 14.6 77.4 C15 80.1 14.8 82.7 15.2 84.6 C15.6 86.2 16.6 87 16.1 88.2 C15.1 90.8 11.1 91.5 9 93.4 C6.9 95.3 5.9 99.5 6.6 100.7 C12.5 104.7 26.5 101 31.4 100 C31.6 99.9 32.6 93.5 31.4 92 C30.1 90.4 32.3 91 32.8 87.1 C34 83.8 34.1 64.2 35.1 59.4 C36.1 54.6 35.4 49 33.3 47.7 C28.2 44.5 27.3 43.8 23.7 38.6 C20.7 34.4 26.5 32.9 23.7 30.7 C21.5 29 14.5 26.9 12.6 24.4 C10.7 21.9 8.4 15.6 7.8 8.9 z" id="z" fill="#FEFEFE" /><path d="M8.9 91.7 C6.8 94.1 5.8 99.5 6.5 101.1 C12.4 106.2 26.4 101.5 31.3 100.2 C31.5 100 33.4 93.6 32.1 91.7 C31.8 91.3 31.8 90.8 31.9 90.3 C27.9 88 21.7 86.8 15.8 87.1 C14 88.9 10.5 89.8 8.9 91.7 z" id="a1" fill="#46494D" /><path d="M33.9 77.1 C34 67.9 35.7 56.1 36.4 52.9 C37.4 48.1 35.6 48.4 33.5 47.1 C28.4 43.9 27.7 43.5 24.1 38.3 C23.4 37.3 23.1 35.7 23.1 34.9 C20.6 37.5 20.9 47.2 23.7 51 C26 54.2 28.7 52.8 30.7 58.6 C31.9 62.1 32.3 64.2 32.3 66.7 C32.4 71.1 32.7 74.2 33.9 77.1 z" id="b1" fill="#46494D" /><path d="M82.3 8.9 C91.2 21.5 86.6 25.8 86.6 32.6 C86.6 38.9 83.4 44.1 81.8 49.6 C80.2 55.1 79.8 56.9 78.2 62 C77 66 76.1 74.9 75.1 79 C73.6 85.3 72.6 84.8 73.9 87.9 C74.9 90.5 79.1 91.3 81.2 93.2 C83.3 95.1 81.9 98.3 81.2 99.5 C75.3 103.5 64.8 100.5 59.9 99.5 C59.7 99.4 59.1 96 59.1 93.2 C59.1 90.7 56.7 90.6 56.4 86.1 C56.1 83 55.8 57.3 54.8 52.4 C53.8 47.5 54.8 48.8 56.8 47.6 C61.9 44.4 62.8 43.7 66.4 38.5 C69.4 34.3 63.6 32.8 66.4 30.6 C68.6 28.9 75.6 26.8 77.5 24.3 C79.3 21.8 81.6 15.6 82.3 8.9 z" id="c1" fill="#FEFEFE" /><path d="M80.1 90.7 C82.2 93.1 83.2 98.5 82.5 100.1 C76.6 105.2 62.6 100.5 57.7 99.2 C57.5 99 55.6 92.6 56.9 90.7 C57.2 90.3 57 89.9 56.9 89.4 C60.9 87.1 67.3 85.8 73.2 86.1 C75 87.9 78.5 88.8 80.1 90.7 z" id="d1" fill="#46494D" /><path d="M56.1 77.1 C56 67.9 54.3 56.1 53.6 52.9 C52.6 48.1 54.4 48.5 56.4 47.3 C61.5 44.1 62.1 43.9 65.7 38.8 C66.4 37.8 66.8 35.5 66.7 34.7 C69.2 37.3 68.9 47.4 66.1 51.1 C63.8 54.3 61.1 52.9 59.1 58.7 C57.9 62.2 57.5 64.3 57.5 66.8 C57.6 71.1 57.3 74.2 56.1 77.1 z" id="e1" fill="#46494D" /><path d="M44.4 54 C42.5 54 39.8 52.9 36.7 51 C36.7 51.5 36.6 52.2 36.4 52.9 C35.9 55.3 34.8 62.4 34.2 69.7 C34.1 71.9 34 74.1 33.9 76.3 C33.9 76.6 33.9 76.8 33.9 77.1 C33.6 81.7 33.3 85.7 32.8 87 C32.6 88.7 32 89.6 31.6 90.1 C31.7 90.2 31.8 90.2 31.9 90.3 C31.8 90.8 31.8 91.3 32.1 91.7 C33.4 93.6 31.5 100 31.3 100.2 C26.4 101.5 12.4 106.2 6.5 101.1 C5.8 99.5 6.8 94.1 8.9 91.7 C10.5 89.8 14 88.9 15.8 87.1 C15.9 87.1 16.1 87.1 16.2 87.1 C16 86.3 15.5 85.6 15.2 84.5 C14.8 82.7 15 80 14.6 77.3 C13.9 72.4 11.8 65.4 10.3 60.4 C8.7 55.3 8.3 52.9 6.4 48.2 C4.5 43.5 4.5 39 3.5 32.6 C2.6 26.2 0.6 21.8 7.8 8.9 C8 8.5 8.1 8.1 8.3 7.6 C10.4 1.3 10.3 11 19.9 18.8 C25.6 23.5 33.2 28.5 45.1 28.5 C55.5 28.5 64.6 24.4 69.5 20.9 C80.1 13.2 78.9 1.8 80.4 4.5 C81 5.5 81.9 7.4 82.4 9.1 C91.1 21.6 86.6 25.9 86.6 32.6 C86.6 38.9 83.4 44.1 81.8 49.6 C80.2 55.1 79.8 56.9 78.2 62 C77 66 76.1 74.9 75.1 79 C74 83.8 73.1 84.7 73.3 86.2 C75.1 87.9 78.5 88.8 80 90.6 C80.8 91.5 81.4 92.8 81.9 94.2 C82.1 94.5 82.1 94.9 82.2 95.2 C82.7 97.2 82.8 99.1 82.4 99.9 C76.5 105 62.5 100.3 57.6 99 C57.4 98.8 55.5 92.4 56.8 90.5 C57.1 90.1 56.9 89.7 56.8 89.2 C56.7 88.3 56.4 87.4 56.3 86 C56.2 85 56.1 81.4 56 76.9 C56 76.7 56 76.5 56 76.3 C56 75.6 56 75 55.9 74.3 C55.6 65.6 54.1 55.6 53.5 52.7 C53.3 51.9 53.2 51.3 53.2 50.7 C49.8 52.9 46.6 54 44.4 54 z M55.8 47.1 C55.8 47.6 55.1 52.6 55.2 53.4 C55.9 56.4 56.8 65.3 56.9 74.1 C57 74 57.2 82.1 57.3 83.1 C57.4 84.4 57.9 87.1 57.8 87.1 C57.9 87.6 58.9 89.5 58.6 89.8 C57.4 91.6 58.4 96.9 58.6 97.1 C63.3 98.3 75 102.6 80.6 97.7 C81 96.9 81.1 95.5 80.6 93.7 C80.6 93.4 79.4 91.6 78.6 90.7 C77.1 89 74 87.9 72.2 86.3 C72.8 80.6 74 72.8 76.1 62.7 C77.2 57.7 77.9 52.6 80.2 48.3 C82.5 44 83.4 42.7 85.4 32.5 C87.4 22.3 83.1 14.6 82.8 12.5 C82.5 10.4 81 8.5 80.2 7.2 C78.8 4.6 78.6 15.5 68.5 22.8 C64 26.3 54.9 32.1 45 32.1 C33.7 32.1 26.9 26 21.5 21.6 C12.3 14.2 10 3.6 8 9.5 C7.9 9.8 4.6 15.7 3.9 22.9 C3.6 26.1 4.7 31.9 5 33.8 C6 39.9 6.7 43 7.8 47.1 C8.9 51.2 10.7 56.3 12.2 61.1 C15 70.1 17.5 78 16 83.5 C15.8 83.5 17.1 87.5 16.9 87.5 C15.2 89.2 12.6 89.8 11.1 91.6 C9.1 93.9 7.7 97.1 8.3 98.7 C13.9 103.5 25.7 99.6 30.3 98.4 C30.5 98.2 31.9 92.8 30.7 91 C30.4 90.6 31.4 89.1 31.3 89 C31.7 88.5 31.6 87 31.8 85.3 C32.3 84 32.3 80.6 32.6 76.2 C32.7 76.4 33.6 55.5 34.3 52.4 C34.5 51.7 34.3 46.8 34.3 46.3 C37.3 48.1 38.2 52.4 44.4 52.4 C50.6 52.4 52.4 48.9 55.8 47.1 z" opacity="0.15" id="f1" /></g></g><g transform="translate(169.8, 187.5) scale(0.8638253) translate(-169.8, -187.5)" id="g1"><g transform="translate(110.1, 76.49997) translate(11, 26)" id="h1"><path d="M5.5 77 C0.1 65.8 -0.6 51.2 1 39.1 C3.2 27.2 8.5 25.2 15.8 17.9 C23.1 10.6 25.8 0.2 49.1 0.3 C72.3 0.4 73.5 8.3 79.9 14.4 C86.3 20.4 92.4 23.4 96.2 30.6 C100 37.8 101.2 59.8 96.2 71.2 C92 80.9 80.7 92.2 66.3 92.4 C54.5 93 51.9 93.8 40.2 93.8 C28.5 93.8 11.5 88.2 5.5 77 z" id="i1" fill="#EFE9E6" /><path d="M5.5 77 C0.1 65.8 -0.6 51.2 1 39.1 C3.2 27.2 8.5 25.2 15.8 17.9 C23.1 10.6 25.8 0.2 49.1 0.3 C72.3 0.4 73.5 8.3 79.9 14.4 C86.3 20.4 92.4 23.4 96.2 30.6 C100 37.8 101.2 59.8 96.2 71.2 C92 80.9 80.7 92.2 66.3 92.4 C54.5 93 51.9 93.8 40.2 93.8 C28.5 93.8 11.5 88.2 5.5 77 z M7.3 74.8 C13 85.6 29.3 90.9 40.6 90.9 C51.9 90.9 54.3 90.1 65.7 89.6 C79.5 89.4 90.4 78.6 94.4 69.2 C99.2 58.3 98 37.1 94.4 30.2 C90.8 23.3 84.9 20.4 78.7 14.6 C72.6 8.8 71.4 1.2 49.1 1.2 C26.7 1.1 24.1 11.1 17.1 18.1 C10.1 25.1 5 27 2.9 38.4 C1.4 50 2.1 64.1 7.3 74.8 z" opacity="0.15" id="j1" /></g><g transform="translate(138.6, 122.7) scale(1.2) translate(-138.6, -122.7) translate(94.00002, 84.49997) translate(21, 2)" id="k1"><g transform="translate(18.02073, 23.28844) scale(-1, 1) rotate(-6, 0, 0) translate(-18.02073, -23.28844) translate(2.520727, 1.788439)" id="l1"><path d="M1.7 25.8 C-1.9 23.8 -2.7 23.7 -1.4 20.5 C-0.1 17.3 2.4 17.8 5 15.3 C7.6 12.8 13.5 8.6 17.4 6.7 C21.3 4.8 23.7 2.5 25.7 4.7 C27.7 6.9 29.1 12.8 28 18.9 C26.9 25 23.5 30.4 23.1 33.3 C22.7 36.2 21.9 40.6 20.2 42.9 C19.7 43.6 18.2 45.3 17.3 45.8 C15.4 46.7 14 44.9 12.6 41.3 C12.3 40.4 10.5 34.3 8.6 32.4 C6.3 29.9 5.4 27.8 1.7 25.8 z" id="m1" fill="#46494D" /><path d="M1.7 25.8 C-1.9 23.8 -2.7 23.7 -1.4 20.5 C-0.1 17.3 2.4 17.8 5 15.3 C7.6 12.8 13.5 8.6 17.4 6.7 C21.3 4.8 23.7 2.5 25.7 4.7 C27.7 6.9 29.1 12.8 28 18.9 C26.9 25 23.5 30.4 23.1 33.3 C22.7 36.2 21.9 40.6 20.2 42.9 C19.7 43.6 18.2 45.3 17.3 45.8 C15.4 46.7 14 44.9 12.6 41.3 C12.3 40.4 10.5 34.3 8.6 32.4 C6.3 29.9 5.4 27.8 1.7 25.8 z M3.9 24.6 C7.2 26.4 8 28.3 10 30.5 C11.7 32.2 13.3 37.7 13.6 38.5 C14.8 41.7 16.1 43.4 17.8 42.5 C18.6 42.1 19.9 40.5 20.4 39.9 C21.9 37.8 22.6 33.9 23 31.3 C23.4 28.7 26.4 23.8 27.4 18.3 C28.4 12.8 27.1 7.5 25.4 5.5 C23.6 3.5 21.5 5.6 18 7.3 C14.5 9 9.3 12.8 6.9 15 C4.5 17.2 2.4 16.8 1.2 19.7 C0 22.6 0.7 22.8 3.9 24.6 z" opacity="0.15" id="n1" /><path d="M5.7 24.6 C3.7 23.6 2.3 23 3.3 20.4 C3.9 18.9 7.5 16.8 10.9 14.2 C13.3 12.3 16.2 10.3 18 9.3 C20.6 7.8 21.8 6.3 23.5 7.6 C25.1 8.9 26.5 14.5 25.7 19.2 C24.9 24 20 35.8 18.7 37.6 C17.4 39.4 16.1 42.4 14.5 38.2 C12.9 34 12.6 31.4 10.9 29.6 C9.2 27.8 7.7 25.6 5.7 24.6 z" id="o1" fill="#EFE9E6" /><path d="M8.2 26.4 C8.3 25.4 9.1 23.7 9.3 23.3 C9.6 22.7 12.3 21.1 14.6 19.7 C15.6 19 18.6 17.4 18.6 17.4 C20.2 16.5 20.1 19.9 18.6 22.6 C17.7 24.2 15.1 29.9 13.3 31.6 C12.7 32.2 12.2 31.1 11 29.5 C9.9 28.1 8.1 26.8 8.2 26.4 z" opacity="0.5" id="p1" fill="#46494D" /></g></g><g transform="translate(202.7, 122.7) scale(1.2) translate(-202.7, -122.7) translate(102.5, 84.49997) translate(100.9, 24.5) scale(-1, 1) translate(-100.9, -24.5) translate(82.40002, 0)" id="q1"><g transform="translate(18.19189, 24.4854) scale(-1, 1) rotate(-7, 0, 0) translate(-18.19189, -24.4854) translate(2.691893, 2.485396)" id="r1"><path d="M5.4 26.9 C1.8 24.9 1 24.8 2.3 21.6 C3.6 18.4 6.1 18.9 8.7 16.4 C11.3 13.9 17.2 9.7 21.1 7.8 C25 5.9 27.4 3.6 29.4 5.8 C31.4 8 32.8 14 31.7 20.1 C30.7 26.2 27.1 31.6 26.8 34.5 C26.4 37.4 25.6 41.8 23.9 44.1 C23.4 44.8 21.9 46.5 21 47 C19.1 47.9 18.5 47.3 17.1 43.7 C16.8 42.8 17 42 16.7 41.2 C15.3 37.5 14.2 35.4 12.3 33.5 C9.9 31.1 9 29 5.4 26.9 z" id="s1" fill="#46494D" /><path d="M5.4 26.9 C1.8 24.9 1 24.8 2.3 21.6 C3.6 18.4 6.1 18.9 8.7 16.4 C11.3 13.9 17.2 9.7 21.1 7.8 C25 5.9 27.4 3.6 29.4 5.8 C31.4 8 32.8 14 31.7 20.1 C30.7 26.2 27.1 31.6 26.8 34.5 C26.4 37.4 25.6 41.8 23.9 44.1 C23.4 44.8 21.9 46.5 21 47 C19.1 47.9 18.5 47.3 17.1 43.7 C16.8 42.8 17 42 16.7 41.2 C15.3 37.5 14.2 35.4 12.3 33.5 C9.9 31.1 9 29 5.4 26.9 z M7.1 25.9 C10.4 27.8 11.2 29.8 13.4 32 C15.1 33.8 16.2 35.7 17.4 39.1 C17.7 39.8 17.5 40.6 17.8 41.4 C19.1 44.7 19.6 45.3 21.4 44.4 C22.2 43.9 23.6 42.4 24.1 41.7 C25.7 39.6 26.4 35.5 26.8 32.8 C27.1 30.1 30.4 25.1 31.3 19.5 C32.3 13.9 31 8.3 29.2 6.3 C27.4 4.3 25.2 6.4 21.6 8.1 C18 9.8 12.6 13.7 10.2 16 C7.8 18.3 5.5 17.8 4.3 20.8 C3.1 23.8 3.8 24.1 7.1 25.9 z" opacity="0.15" id="t1" /><path d="M9.4 25.7 C7.4 24.7 6 24.1 7 21.5 C7.6 20 11.2 17.9 14.6 15.3 C17 13.4 19.9 11.4 21.7 10.4 C24.3 8.9 25.5 7.4 27.2 8.7 C28.8 10 30.2 15.6 29.4 20.3 C28.6 25.1 23.7 36.9 22.4 38.7 C21.1 40.5 19.8 43.5 18.2 39.3 C16.6 35.1 16.3 32.5 14.6 30.7 C12.9 29 11.4 26.8 9.4 25.7 z" id="u1" fill="#EFE9E6" /><path d="M11.5 26.9 C11.6 25.9 12.8 24.9 13 24.5 C13.3 23.9 16 22.3 18.3 20.9 C19.3 20.2 22.3 18.6 22.3 18.6 C23.9 17.7 23.8 21.1 22.3 23.8 C21.4 25.4 18.8 31.1 17 32.8 C15.8 33.9 14.9 30.4 14.4 30.5 C13.3 28.9 11.4 27.8 11.5 26.9 z" opacity="0.5" id="v1" fill="#46494D" /></g></g><g id="w1"><g transform="translate(109.3, 97.39996) translate(35, 23)" id="x1"><g id="y1"><path d="M37.5 66.1 C35.6 63 34.6 61.1 27.5 61.1 C20.4 61.1 20.5 63 18.5 66.1 C17.8 67.2 15.4 69 14.6 70.5 C19.1 72.1 21.5 73.3 27.3 73.2 C32.7 73.1 36.4 72 41.2 70.1 C40.1 68.4 38.1 67.1 37.5 66.1 z" id="z1" fill="#FFF" /><path d="M50.6 46 C45.1 33.7 39 30 27.5 30 C16 30 9.9 33.8 4.4 46 C0.2 55.4 -0.9 65.6 0.8 68.7 C4 74.4 13 76.5 15.7 71.9 C16.6 70.4 17.2 68.7 17.7 67.1 C18.1 66.7 18.4 66.3 18.5 66.1 C20.4 63 20.4 61.1 27.5 61.1 C33.2 61.1 34.9 62.3 36.4 64.4 C37.3 66.8 37.9 69.5 39.3 71.9 C42 76.5 50.9 74.4 54.2 68.7 C55.9 65.6 54.8 55.4 50.6 46 z" id="a2" fill="#FFF" /><path d="M15.4 26.9 C20.4 24.7 22.2 21.1 24.1 16.1 C24.7 19.5 25.4 23.5 24.7 25.3 C22.9 29.9 18.8 29.5 16 31.5 C13.3 33.5 11.4 36.2 9.8 39.2 C9.7 38.7 8.8 39 8.3 39.6 C7.9 34.7 10.9 28.9 15.4 26.9 z" id="b2" fill="#FFF" /><path d="M39.6 26.9 C34.6 24.7 32.8 21.1 30.9 16.1 C30.3 19.5 29.6 23.5 30.3 25.3 C32.1 29.9 36.2 29.5 39 31.5 C41.7 33.5 43.6 36.2 45.2 39.2 C45.3 38.7 46.2 39 46.7 39.6 C47.1 34.7 44.1 28.9 39.6 26.9 z" id="c2" fill="#FFF" /><path d="M38 30 C34.3 27.5 31.9 27.9 30.9 25 C30.1 22.7 31.4 10.7 31.5 8.9 C32.3 0 27.5 0.5 27.5 0.5 C27.5 0.5 22.7 0 23.5 8.9 C23.7 10.7 24.9 22.8 24.1 25 C23.1 27.9 20.7 27.4 17 30 C13.8 32.2 10.7 34.8 9.6 37.9 C12.1 36.9 13.1 35.2 16.4 33.5 C19.3 32 21.6 30.6 27.6 30.6 C33.6 30.6 35.9 32 38.8 33.5 C42.1 35.2 43.1 36.9 45.6 37.9 C44.4 34.8 41.3 32.2 38 30 z" id="d2" fill="#FFF" /><path d="M15.4 26.9 C20.4 24.7 22.2 21.1 24.1 16.1 C24.1 16.2 24.1 16.3 24.1 16.4 C23.9 13 23.6 9.8 23.5 8.9 C22.7 0 27.5 0.5 27.5 0.5 C27.5 0.5 32.3 0 31.5 8.9 C31.5 9.7 31.1 12.8 30.9 16.1 C32.8 21.1 34.6 24.7 39.6 26.9 C43.9 28.8 46.8 34.2 46.7 38.9 C48.1 40.9 49.4 43.2 50.6 46 C54.8 55.4 55.9 65.6 54.2 68.7 C50.9 74.4 42 76.5 39.3 71.9 C39.1 71.6 39 71.3 38.8 71 C35.1 72.3 31.8 73.1 27.3 73.2 C22.2 73.3 19.7 72.4 16.2 71.1 C16 71.3 15.9 71.6 15.7 71.9 C13 76.5 4 74.4 0.8 68.7 C-0.9 65.6 0.2 55.4 4.4 46 C5.6 43.2 6.9 40.9 8.3 39 C8.2 34.2 11.1 28.8 15.4 26.9 z M16 27.3 C12 29.1 9.2 34.3 9.3 38.9 C8 40.8 6.8 43 5.6 45.7 C1.7 54.8 0.6 64.6 2.2 67.6 C5.3 73.1 13.8 75.1 16.3 70.7 C16.5 70.4 16.7 70.1 16.8 69.8 C20.2 71.1 22.5 72 27.3 71.9 C31.5 71.8 34.7 71.1 38.2 69.8 C38.4 70.1 38.5 70.4 38.7 70.7 C41.2 75.1 49.6 73.1 52.8 67.6 C54.4 64.6 53.3 54.8 49.4 45.7 C48.2 43 47 40.8 45.7 38.9 C45.8 34.3 43 29.1 39 27.3 C34.2 25.2 32.1 21.4 30.3 16.6 C30.5 13.4 31.1 10.4 31.1 9.6 C31.9 1 27.4 1.1 27.4 1.1 C27.4 1.1 23.2 0.9 24 9.4 C24.1 10.3 24.5 12.7 24.7 16 C24.7 15.9 24 17.8 23.9 17.8 C22.1 22.6 20.8 25.2 16 27.3 z" opacity="0.15" id="e2" /><g transform="translate(8, 44)" id="f2" fill="#282421"><path d="M10.1 5.3 C9.4 4.9 8.4 5.5 8.3 6.4 C8.3 7.2 9.3 7.9 10 7.5 C10.7 7.1 10.9 6 10.2 5.5" id="g2" /><path d="M5.6 0.9 C4.9 0.5 3.9 1.1 3.8 2 C3.8 2.8 4.8 3.5 5.5 3.1 C6.2 2.7 6.4 1.6 5.7 1.1" id="h2" /><path d="M2.7 7.5 C2 7.1 1 7.7 0.9 8.6 C0.9 9.4 1.9 10.1 2.6 9.7 C3.3 9.3 3.5 8.2 2.8 7.7" id="i2" /><path d="M28.9 5.3 C29.6 4.9 30.6 5.5 30.7 6.4 C30.7 7.2 29.7 7.9 29 7.5 C28.3 7.1 28.1 6 28.8 5.5" id="j2" /><path d="M33.4 0.9 C34.1 0.5 35.1 1.1 35.2 2 C35.2 2.8 34.2 3.5 33.5 3.1 C32.8 2.7 32.6 1.6 33.3 1.1" id="k2" /><path d="M36.3 7.5 C37 7.1 38 7.7 38.1 8.6 C38.1 9.4 37.1 10.1 36.4 9.7 C35.7 9.3 35.5 8.2 36.2 7.7" id="l2" /></g></g></g><g transform="translate(171.8, 180.7999) scale(1.6) translate(-171.8, -177.7999) translate(112.5, 92.19996) translate(55, 75)" id="m2"><g id="n2"><path d="M8.3 9.3 C6.7 8.2 5.3 6.6 4.7 4.7 C4.5 4.6 4.4 4.6 4.4 4.6 C4.4 4.6 4.3 4.6 4.1 4.7 C3.6 6.6 1.8 8.2 0.2 9.3 C1.7 9.9 4.4 10 4.4 10 C4.4 10 6.8 10 8.3 9.3 z" id="o2" fill="#CE5253" /><path d="M0.3 9.3 C0.3 9.3 0.5 9.3 0.7 9.4 C0.9 9.4 1.3 9.5 1.7 9.6 C2.5 9.7 3.4 9.9 4.3 9.9 C4.5 9.9 4.7 9.9 5 9.9 C5.2 9.9 5.4 9.9 5.6 9.8 C5.8 9.8 6 9.7 6.2 9.7 C6.4 9.7 6.6 9.6 6.8 9.6 C7.2 9.5 7.5 9.4 7.8 9.4 C8.1 9.3 8.2 9.3 8.2 9.3 C8.2 9.3 8.2 9.4 8 9.7 C7.9 9.9 7.7 10.3 7.4 10.6 C7.1 10.9 6.6 11.3 6.1 11.5 C5.5 11.7 4.9 11.9 4.2 11.8 C2.9 11.8 1.7 11.1 1.1 10.5 C0.8 10.2 0.5 9.9 0.4 9.6 C0.4 9.5 0.3 9.3 0.3 9.3 z" id="p2" fill="#282421" /><path d="M4.5 6.6 C3.9 6.6 3.5 6.2 3.5 5.6 L3.5 1.7 C3.5 1.1 3.9 0.7 4.5 0.7 C5.1 0.7 5.5 1.1 5.5 1.7 L5.5 5.6 C5.5 6.2 5.1 6.6 4.5 6.6 z" id="q2" fill="#282421" /></g></g><g transform="translate(171.8, 159.3) scale(0.7) translate(-171.8, -159.3) translate(89.10002, 83.29996) translate(70, 60)" id="r2"><g id="s2"><path d="M0.7 4.3 C1.1 1.6 6.7 0 8.1 0 C9.5 0 15.7 0 17.5 0 C19.3 0 22 1.3 23.3 2.5 C24.6 3.7 25.4 6.3 25 8.4 C24.5 10.5 21.3 18.8 17.3 19.2 C13.3 19.6 11.1 19.5 9 19 C6.9 18.5 0.7 13.4 0.7 8.4 C0.6 6.7 0.5 5.7 0.7 4.3 z" id="t2" /><path d="M14 3 C15.3 3 16.6 3.9 17.6 4 C19.1 4.2 20.1 3.2 20.1 2.5 C20.1 1.4 17.3 1 14 1 C10.7 1 6 1.1 6 2.2 C6 3.3 10.7 3 14 3 z" id="u2" fill="#FFF" /></g></g><g transform="translate(109.3, 97.39995) translate(28, 31)" id="v2"><g id="w2"><path d="M27.4 14.8 C22.7 14.2 24.5 5.1 19.1 1.5 C15.1 -1.3 8.2 2.3 5.5 4.5 C1.9 7.3 -0.5 10.3 0.1 14.8 C0.7 19.3 4 23.4 8.3 24.9 C11.9 26.1 15.9 25.6 19.5 24.1 C22 23 30.4 15.1 27.4 14.8 z" id="x2" fill="#FFFCFA" /><path d="M5.1 12.4 C5.1 10.8 7.5 10 9.7 8.3 C10.5 7.7 12 6.6 13.8 6.6 C16.3 6.6 18.1 8.3 19.3 10.3 C20.6 12.5 22.2 14.7 21.7 15.7 C21.2 16.9 18.6 17.2 16 18.1 C14.8 18.5 11.4 18.4 9.5 16.8 C7.5 15 5.1 13.3 5.1 12.4 z" id="y2" fill="#D1CDCB" /><path d="M18.6 10.5 C18.4 10.1 18.2 9.8 17.9 9.5 C17.1 8.6 15.9 8.1 14.6 8.1 C13.9 8.1 13.3 8.3 12.7 8.5 C12.6 8.5 12.6 8.6 12.5 8.6 C12.3 8.7 12.1 8.8 11.9 8.9 C10.1 9.9 8.2 10.7 7.9 12.1 C7.7 13.1 9.8 14.7 11.6 16.1 C11.8 16.2 11.9 16.4 12.1 16.5 C12.1 16.5 12.2 16.5 12.2 16.6 C12.9 17 13.7 17.2 14.5 17.2 C14.7 17.2 14.9 17.2 15.1 17.1 L15.2 17.1 C15.5 17.1 15.7 17 16 16.9 C17.9 16.5 20.2 16.2 20.6 15 C21.1 14.2 19.9 12.3 18.6 10.5 z" id="z2" fill="#282421" /><path d="M11.5 12.4 C12 12.8 12.7 12.5 13.3 12.2 C14.5 11.6 17.1 10.9 17 10.4 C16.9 9.9 15.4 9.5 15.2 9.4 C14.5 9.2 13.5 9.2 12.9 9.5 C12.1 10 10.4 11.5 11.5 12.4 z" id="a3" fill="#FFFAF8" /></g></g><g transform="translate(109.3, 97.39995) translate(68, 31)" id="b3"><g id="c3"><path d="M1.6 14.8 C6.3 14.2 5.3 5.1 10.6 1.5 C14.6 -1.3 20.8 2.3 23.5 4.5 C27.1 7.3 29.5 10.3 28.9 14.8 C28.3 19.3 25 23.4 20.7 24.9 C17.1 26.1 13.1 25.6 9.5 24.1 C6.9 23 -1.4 15.1 1.6 14.8 z" id="d3" fill="#FFFCFA" /><path d="M23.9 12.4 C23.9 10.8 21.5 10 19.3 8.3 C18.5 7.7 17 6.6 15.2 6.6 C12.7 6.6 10.9 8.3 9.7 10.3 C8.4 12.5 6.8 14.7 7.3 15.7 C7.8 16.9 10.4 17.2 13 18.1 C14.2 18.5 17.6 18.4 19.5 16.8 C21.5 15 23.9 13.3 23.9 12.4 z" id="e3" fill="#D1CDCB" /><path d="M17.1 9 C16.9 8.9 16.7 8.8 16.5 8.7 C16.4 8.7 16.4 8.6 16.3 8.6 C15.7 8.3 15.1 8.2 14.4 8.2 C13.1 8.2 12 8.7 11.1 9.6 C10.8 9.9 10.5 10.3 10.3 10.7 C9.1 12.4 7.8 14.4 8.2 15.3 C8.7 16.5 10.9 16.8 12.8 17.2 C13.1 17.3 13.3 17.4 13.6 17.4 L13.7 17.4 C13.9 17.4 14.1 17.4 14.3 17.4 C15.2 17.4 15.9 17.2 16.6 16.7 C16.6 16.7 16.7 16.7 16.7 16.6 C16.9 16.5 17.1 16.3 17.2 16.2 C19.1 14.8 21.1 13.2 20.9 12.2 C20.8 10.8 18.9 10.1 17.1 9 z" id="f3" fill="#282421" /><path d="M11.1 12 C11.6 12.4 12.3 12.1 12.9 11.8 C14.1 11.2 16.7 10.5 16.6 10 C16.5 9.5 15 9.1 14.8 9 C14.1 8.8 13.1 8.8 12.5 9.1 C11.6 9.5 9.9 11.1 11.1 12 z" id="g3" fill="#FFFAF8" /></g></g></g></g></g></g><defs><g transform="translate(17.09519, 0.800995) translate(-135.2952, -293.601)" id="h3" fill="#000"><path d="M118.2 302.7 C118.4 307.4 132.5 311.2 149.8 311.2 C167.1 311.2 181.2 307.4 181.4 302.7 C181.4 307.5 181.4 310.1 181.4 310.5 C181.4 315.3 167.3 319.1 149.8 319.1 C132.3 319.1 118.2 315.2 118.2 310.5 L118.2 302.7 L118.2 302.7 z" fill-opacity="0.4528" id="i3" fill="#593001" /><path d="M118.7 301.7 C118.9 306.4 133 310.2 150.3 310.2 C167.6 310.2 181.7 306.4 181.9 301.7 C181.9 306.5 181.9 309.1 181.9 309.5 C181.9 314.3 167.8 318.1 150.3 318.1 C132.8 318.1 118.7 314.2 118.7 309.5 L118.7 301.7 L118.7 301.7 z" id="j3" fill="#DA8113" /><linearGradient x1="46.0545" y1="-118.6926" x2="45.4656" y2="-118.6926" gradientUnits="userSpaceOnUse" gradientTransform="matrix(117.135, 0, 0, 28.4634, -5208.417, 3687.795)" id="k3"><stop offset="0%" stop-color="#D9952A" stop-opacity="1" /><stop offset="6.438854%" stop-color="#CA7519" stop-opacity="1" /><stop offset="30.54%" stop-color="#E3AD3A" stop-opacity="1" /><stop offset="51.05%" stop-color="#FFEC91" stop-opacity="1" /><stop offset="68.8%" stop-color="#E9BD44" stop-opacity="1" /><stop offset="86.24%" stop-color="#FFED6C" stop-opacity="1" /><stop offset="93.87%" stop-color="#F2D353" stop-opacity="1" /><stop offset="100%" stop-color="#F2B947" stop-opacity="1" /></linearGradient><path d="M118.2 301.6 C118.4 306.1 132.7 309.7 150.3 309.7 C167.9 309.7 182.2 306.1 182.4 301.6 C182.4 306.2 182.4 308.7 182.4 309 C182.4 313.5 168 317.2 150.3 317.2 C132.6 317.2 118.2 313.5 118.2 309 L118.2 301.6 L118.2 301.6 z" id="l3" style="fill:url(#k3)" /><linearGradient x1="45.4914" y1="-117.9547" x2="45.9407" y2="-117.5895" gradientUnits="userSpaceOnUse" gradientTransform="matrix(115.425, 0, 0, 29.925, -5125.077, 3826.124)" id="m3"><stop offset="0%" stop-color="#F4E072" stop-opacity="1" /><stop offset="100%" stop-color="#DB9427" stop-opacity="1" /></linearGradient><ellipse cx="150.3" cy="301.5" rx="31.6" ry="8.2" id="n3" style="fill:url(#m3)" /><linearGradient x1="45.4656" y1="-126.0065" x2="46.0545" y2="-126.0065" gradientUnits="userSpaceOnUse" gradientTransform="matrix(117.135, 0, 0, 18.6219, -5208.417, 2651.479)" id="o3"><stop offset="0%" stop-color="#D9952A" stop-opacity="1" /><stop offset="6.438854%" stop-color="#CA7519" stop-opacity="1" /><stop offset="30.54%" stop-color="#E3AD3A" stop-opacity="1" /><stop offset="51.05%" stop-color="#FFEC91" stop-opacity="1" /><stop offset="68.8%" stop-color="#E9BD44" stop-opacity="1" /><stop offset="86.24%" stop-color="#FFED6C" stop-opacity="1" /><stop offset="93.87%" stop-color="#F2D353" stop-opacity="1" /><stop offset="100%" stop-color="#F2B947" stop-opacity="1" /></linearGradient><path d="M119.2 299.9 C119 300.2 118.9 300.6 118.9 301 C118.9 305.5 132.9 309.2 150.3 309.2 C167.7 309.2 181.7 305.5 181.7 301 C181.7 300.6 181.6 300.3 181.4 299.9 C182 300.5 182.4 301.2 182.4 301.9 C182.4 306.4 168 310.1 150.3 310.1 C132.6 310.1 118.2 306.4 118.2 301.9 C118.2 301.3 118.6 300.6 119.2 299.9 z" id="p3" style="fill:url(#o3)" /><linearGradient x1="45.196" y1="-121.5895" x2="45.3746" y2="-120.6758" gradientUnits="userSpaceOnUse" gradientTransform="matrix(101.745, 0, 0, 23.94, -4458.332, 3199.41)" id="q3"><stop offset="0%" stop-color="#F8DD61" stop-opacity="1" /><stop offset="100%" stop-color="#EAA330" stop-opacity="1" /></linearGradient><ellipse cx="150.3" cy="300.8" rx="27.8" ry="6.6" id="r3" style="fill:url(#q3)" /><linearGradient x1="45.5694" y1="-134.267" x2="45.0221" y2="-134.267" gradientUnits="userSpaceOnUse" gradientTransform="matrix(101.745, 0, 0, 13.2525, -4458.332, 2077.223)" id="s3"><stop offset="0%" stop-color="#F4CA2F" stop-opacity="1" /><stop offset="51.38%" stop-color="#BF7737" stop-opacity="1" /><stop offset="100%" stop-color="#E4A929" stop-opacity="1" /></linearGradient><path d="M122.6 301.5 C122.5 301.3 122.4 301 122.4 300.8 C122.4 297.2 134.9 294.2 150.2 294.2 C165.5 294.2 178 297.1 178 300.8 C178 301 177.9 301.3 177.8 301.5 C176.3 298.2 164.5 295.6 150.1 295.6 C135.7 295.6 124.1 298.2 122.6 301.5 z" id="t3" style="fill:url(#s3)" /></g></defs><desc>4FFEOEGKBG4,ZW70q1pxDWZWsX74WMsTsICuTllQ6WghfdXPoREgktTTMPJuK1gS5VZ7Tt9dXXzzo9852gTWnRMFdm77P3HWFrKL7QS6yvVBj7n6oYsrSk15kJHqZLvwr9dyi9L4IOmH</desc></svg>