<?xml version="1.0" encoding="utf-8"?><!DOCTYPE svg PUBLIC "-//W3C//DTD SVG 1.1//EN" "http://www.w3.org/Graphics/SVG/1.1/DTD/svg11.dtd"><svg x="0" y="0" width="340px" height="340px" viewBox="0, 0, 340, 340" preserveAspectRatio="xMidYMid" font-size="0" id="a" enable-background="new 0 0 340 340" xmlns="http://www.w3.org/2000/svg" xmlns:xlink="http://www.w3.org/1999/xlink" xmlns:xml="http://www.w3.org/XML/1998/namespace" version="1.1"><g id="b" fill="#000"><g id="c"><g transform="translate(0, 0) translate(0, 224)" id="d"><ellipse cx="168.6" cy="53.1" rx="57.8" ry="12.8" fill-opacity="0.25" id="e" /></g><g id="f"><g transform="translate(-292.7, 49.59998) translate(25.5, 156.5) scale(-1, 1) translate(-25.5, -156.5) translate(0, 130)" id="g"><g transform="translate(25.5, 26.5) scale(-1, 1) translate(-25.5, -26.5)" id="h"><path d="M428.3 48.7 C419.3 55.3 412.6 58.4 408.1 58 C401.4 57.4 391.1 53 387.3 45.9 C383.6 38.7 383.3 27.3 384.9 22.4 C386.5 17.4 390.2 9.9 396.1 7.1 C402 4.3 407.1 6 409.7 7.9 C412.3 9.8 415.3 14.8 414.1 19.2 C413.3 22.2 412.7 23.8 412.2 24.2 C412 21.9 410.9 20.9 408.8 21.3 C405.6 21.9 400.6 27.2 401.5 30.9 C402.4 34.5 405.6 38.2 408.8 38.5 C412 38.8 417 35.6 418.7 34.2 C419.8 33.3 421.8 31 424.8 27.3 C430.1 24.3 433 26.2 433.5 33.1 C434.1 40 432.3 45.2 428.3 48.7 z" id="i" fill="#D8B285" /><path d="M412.5 23.9 C412.4 24.1 412.3 24.2 412.2 24.3 C411.6 22.7 410.3 22.1 408.2 22.5 C405 23.1 401.7 27.2 402.5 30.8 C403.4 34.4 405 36.5 408.2 36.8 C411.4 37.1 415.2 34.5 416.8 33.2 C417.9 32.3 420.6 30 425 26.3 C430 24.1 432.8 26.3 433.4 32.6 C430.3 35.5 416.5 45.4 415.2 45.9 C413.8 46.4 409.3 48.1 404.5 48 C399.7 47.9 395.3 43.8 393.8 41.3 C392.2 38.9 391 35 391 30.8 C391 26.6 392.7 20.6 395.1 17.9 C397.5 15.3 399.2 13.9 402.5 13.9 C404.7 13.9 407.4 14.3 410.2 17.2 C411.2 18.2 411.8 20.4 412.5 23.9 z" id="j" fill="#BD8B6A" /><path d="M412.2 24.3 C411.6 22.7 410.3 22.1 408.2 22.5 C405 23.1 401.7 27.2 402.5 30.8 C403.4 34.4 405 36.5 408.2 36.8 C411.4 37.1 415.2 34.5 416.8 33.2 C417.9 32.3 420.6 30 425 26.3 C428.7 24.7 431.1 25.4 432.4 28.4 C433 29.6 433.3 31.2 433.5 33.2 C434.1 40.1 432.3 45.3 428.3 48.8 C419.3 55.4 412.6 58.5 408.1 58.1 C401.4 57.5 391.1 53.1 387.3 46 C383.6 38.8 383.3 27.4 384.9 22.5 C386.5 17.5 390.2 10 396.1 7.2 C402 4.4 407.1 6.1 409.7 8 C412.3 9.9 415.3 14.9 414.1 19.3 C413.3 22.3 412.7 23.9 412.2 24.3 z M408.3 21.3 C410.2 20.9 411.4 21.5 411.9 22.9 C412.4 22.5 412.9 21.1 413.6 18.3 C414.7 14.4 411.7 10.4 409.4 8.6 C407.1 6.8 402.6 4.9 397.2 7.4 C391.8 9.9 388.5 16.8 387 21.3 C385.5 25.8 385.8 36.1 389.2 42.7 C392.7 49.2 402 53.2 408.1 53.7 C412.2 54.1 418.3 51.2 426.5 45.2 C430.1 42 432.1 37.5 431.6 31.2 C431.5 29.4 431.2 29.3 430.7 28.3 C429.5 25.6 428.1 26.8 424.8 28.3 C420.8 31.7 416.2 35 415.2 35.8 C413.7 37 409.2 37.9 406.3 37.6 C403.4 37.3 401.9 34.4 401.5 29.4 C401.5 26 405.3 21.9 408.3 21.3 z" opacity="0.15" id="k" /></g></g><g transform="translate(126.3, 272.7) scale(1.07155) translate(-126.3, -272.7) translate(95.7, 79.19997) translate(19, 139)" id="l"><g id="m"><g opacity="0.4" transform="translate(0, 1)" id="n"><path d="M18.5 0.9 C11.9 2.4 9.5 4.8 7.3 7.6 C5.1 10.4 6.7 11.2 6.6 12.4 C6.5 13.7 4.7 15.1 3.8 16.8 C2.9 18.5 0.4 21.3 0.8 23.1 C1 24.3 7.1 19.9 8.5 18.7 C7.6 19.3 3 24.9 2.6 26.8 C2 29.5 1.1 32.1 1.9 34.6 C2.7 37.1 3.7 38.3 4.5 38.7 C4.8 38.9 6.8 38.7 7.1 39.3 C7.5 40 6.2 41.4 5.9 42.2 C5.4 43.7 6.4 44.3 7.3 45.1 C8.2 45.9 10 47.9 11.3 49.1 C12.6 50.3 13.4 51.7 13.7 53.2 C13.8 54.1 14.9 54.8 17 55.3 C21.8 55.9 24.9 55.9 26.3 55.3 C28.4 54.4 31.3 51.9 32.7 38.5 C34.1 25.1 32.7 12.5 31.2 9.7 C29.7 6.9 25.1 -0.5 18.5 0.9 z" stroke="#000000" stroke-width="3" opacity="0.4" id="o" /></g><path d="M18.5 0.9 C11.9 2.4 8.9 4.4 7.3 7.6 C5.7 10.8 6 11.8 5.9 13 C5.8 14.3 4.2 15.1 3.3 16.8 C2.4 18.5 0.9 21.8 1.3 23.6 C1.5 24.8 2.4 24.8 3.8 23.6 C2.9 24.2 2.3 25.4 1.9 27.3 C1.3 30 1.1 31.8 1.9 34.3 C2.7 36.8 3.6 39.2 4.4 39.6 C5.1 40 6.4 40.7 5.9 42.2 C5.4 43.7 6.4 44.3 7.3 45.1 C8.2 45.9 10 47.9 11.3 49.1 C12.6 50.3 13.4 51.7 13.7 53.2 C13.9 54.6 15.8 55.9 17 56 C18.3 56.1 24.2 56.2 26.3 55.3 C28.4 54.4 31.3 51.9 32.7 38.5 C34.1 25.1 32.7 12.5 31.2 9.7 C29.7 6.9 25.1 -0.5 18.5 0.9 z" id="p" fill="#BD8B6A" /><g opacity="0.2" transform="translate(3, 46)" id="q"><path d="M7.5 0.8 C2.6 3.3 1.3 5.9 0.5 9.4 C-0.3 12.1 5.6 12.5 8.6 11.8 C11.6 11.1 16.6 11.6 16.6 10.3 C16.6 9 17.3 8.8 16.6 5.5 C16.2 3.5 14.9 2.6 12.6 1.8 C11.3 1.3 9.3 -0.2 7.5 0.8 z" stroke="#000000" stroke-width="3" opacity="0.2" id="r" /></g><path d="M10.4 46.1 C5.5 48.6 4 49.8 3.4 53.7 C2.8 57.6 8.9 58.2 11.9 57.5 C14.9 56.8 19.7 56.6 19.7 55.3 C19.7 54 20.4 53.8 19.7 50.5 C19.3 48.5 18 47.6 15.7 46.8 C14.3 46.3 12.2 45.1 10.4 46.1 z" id="s" fill="#806458" /></g></g><g transform="translate(211.2, 272.7) scale(1.07155) translate(-211.2, -272.7) translate(95.70001, 79.19997) translate(108.5, 168.5) scale(-1, 1) translate(-108.5, -168.5) translate(91, 139)" id="t"><g transform="translate(17.5, 29.5) scale(-1, 1) translate(-17.5, -29.5)" id="u"><g opacity="0.15" transform="translate(0, 1)" id="v"><path d="M15.8 1.1 C19.6 2.1 22.4 0.7 24.7 3.2 C27 5.7 28.8 6 29 8.5 C29.2 11 32.3 13.9 31.1 13.1 C33 15.7 29.7 14.2 31.9 17 C34.1 19.8 35.1 21.6 34.7 24.6 C33.9 24.6 30.8 20.4 31.1 22.7 C31.3 23.8 33.1 26.8 33.7 28.5 C34.3 30.4 33.2 33.6 33 35.5 C32.7 38.1 33.4 41.3 33 41.8 C32.5 42.4 27.3 34.6 27.9 36.1 C28.8 38.4 31.4 43.8 30.5 46.4 C29.6 49 29.8 48.1 26.9 50.3 C24 52.5 26.2 53.1 22.6 54.7 C19 56.3 10.1 56.7 7 53.2 C3.9 49.7 -0.4 34.5 0.7 28.4 C1.8 22.3 2.3 10.2 6 6.7 C9.7 3.2 12 0.1 15.8 1.1 z" stroke="#000000" stroke-width="3" opacity="0.15" id="w" /></g><path d="M15.8 1.1 C19.6 2.1 22.4 0.7 24.7 3.2 C27 5.7 29.8 6.3 30 8.8 C30.2 11.3 32.3 13.9 31.1 13.1 C33 15.7 29.7 14.2 31.9 17 C34.1 19.8 34.9 22.8 34.5 25.8 C33.7 25.8 31.6 22.4 31.9 24.7 C32.1 25.8 33.9 27.8 34.5 29.5 C35.1 31.4 33.2 33.7 33 35.6 C32.7 38.2 32.4 41.5 32 42 C31.5 42.6 29.6 39.6 30.2 41.1 C31.1 43.4 31.1 43.5 30.2 46.1 C29.3 48.7 28.4 47.6 25.5 49.8 C22.6 52 26.3 53.3 22.7 54.9 C19.1 56.5 10.2 56.9 7.1 53.4 C4 49.9 -0.3 34.7 0.8 28.6 C1.9 22.5 2.3 10.2 6 6.7 C9.7 3.2 12 0.1 15.8 1.1 z" id="x" fill="#BD8B6A" /><g opacity="0.2" transform="translate(16, 46)" id="y"><path d="M10.5 1.1 C15.4 3.6 17.4 6.8 17.4 9.3 C17.4 11.8 11.8 12.8 8.8 12.1 C5.8 11.4 3.6 11.2 1.6 11.2 C-0.4 11.2 -0.1 10.1 0.6 6.8 C1 4.7 2.2 3.1 4.6 2.4 C6.1 1.9 8.7 0.2 10.5 1.1 z" stroke="#000000" stroke-width="3" opacity="0.2" id="z" /></g><path d="M26.5 46.1 C31.4 48.6 32.9 49.8 33.5 53.7 C34.1 57.6 28 58.2 25 57.5 C22 56.8 19.7 56.2 17.7 56.2 C15.7 56.2 16 55.1 16.7 51.8 C17.1 49.7 18.3 48.1 20.7 47.4 C22.1 46.9 24.7 45.2 26.5 46.1 z" id="a1" fill="#806458" /></g></g><g transform="translate(106.1, 86.69998) translate(20, 72)" id="b1"><path d="M79.6 53.8 C78.1 41.2 74.8 38.7 71 30.2 C67.4 22 67.2 14.6 65 9.3 C62.5 3.3 57.6 0.2 42.6 0.2 C27.6 0.2 22.6 3.4 20.2 9.3 C18 14.6 17.8 22.1 14.2 30.2 C10.4 38.7 7.1 41.2 5.6 53.8 C4.2 65 12 95.4 19.2 110.4 C21.7 115.6 22.7 119.6 26.4 120.4 C33 121.8 38.9 122.2 42.7 122.1 C46.6 122.2 52.5 121.8 59 120.4 C62.6 119.6 63.7 115.6 66.2 110.4 C73.2 95.4 80.9 65.1 79.6 53.8 z" id="c1" fill="#D8B285" /><path d="M79.6 53.8 C80.9 65.1 73.2 95.4 66.2 110.4 C63.7 115.6 62.6 119.6 59 120.4 C52.5 121.8 46.6 122.2 42.7 122.1 C38.9 122.2 33 121.8 26.4 120.4 C22.7 119.6 21.7 115.6 19.2 110.4 C12 95.4 4.2 65 5.6 53.8 C7.1 41.2 10.4 38.7 14.2 30.2 C17.8 22.1 18 14.6 20.2 9.3 C22.6 3.4 27.6 0.2 42.6 0.2 C57.6 0.2 62.5 3.3 65 9.3 C67.2 14.6 67.4 22 71 30.2 C74.8 38.7 78.1 41.2 79.6 53.8 z M78.4 53 C77 40.8 73.8 38.4 70.1 30.2 C66.6 22.2 66.4 15.1 64.3 9.9 C61.9 4.1 57.1 1.1 42.6 1.1 C28.1 1.1 23.2 4.2 20.9 9.9 C18.8 15.1 18.6 22.3 15.1 30.2 C11.4 38.4 8.2 40.8 6.8 53 C5.4 63.9 14 93.5 21 108 C23.4 113 23.3 116.8 26.9 117.6 C33.3 118.9 39 119.3 42.7 119.2 C46.5 119.3 52.2 118.9 58.5 117.6 C62 116.8 61.9 112.9 64.3 107.9 C71.1 93.3 79.7 64 78.4 53 z" opacity="0.4" id="d1" /></g><g transform="translate(131.885, 177.15) scale(1.1, 1.312808) translate(-135.2, -180.5) translate(108.9, 97.19998) translate(59.5, 123.5) scale(-1, 1) translate(-59.5, -123.5) translate(26, 83)" id="e1"><path d="M59.8 75 C59.6 72.5 57.7 69.2 56.7 67.2 L42 70.6 C39.4 72.9 39.2 76.8 40.3 78.2 C40.9 78.8 44.7 81.5 51.2 80.8 C58.5 80.1 60 77.9 59.8 75 z" id="f1" fill="#E2DFD9" /><path d="M7.2 75 C7.4 72.5 9.3 69.2 10.3 67.2 L25 70.6 C27.6 72.9 27.8 76.8 26.7 78.2 C26.1 78.8 22.3 81.5 15.8 80.8 C8.5 80.1 7 77.9 7.2 75 z" id="g1" fill="#E2DFD9" /><path d="M10.6 11.9 C13.2 8.3 20.8 0.3 33.5 0.3 C46.2 0.3 53.8 8.3 56.4 11.9 C56.5 12.9 56.5 13.8 56.4 14.8 C56.4 14.3 55.7 14.2 55.4 14.5 C55.1 14.8 55.1 15.3 55 15.8 C54.9 17.7 53.8 19.6 52.2 20.6 C52.1 19.6 52.1 18.7 52 17.7 C51.8 19.6 50.4 21.3 48.7 21.8 C48.7 21.2 48.8 20.6 48.8 20 C46.5 21.2 44.8 23.3 43.9 25.7 C42.9 24.5 42.5 22.7 42.9 21.2 C41.1 23.5 38.5 25.3 35.7 26.2 C35.5 25.6 35.3 25 35 24.3 C34.8 25.4 34.5 26.5 34.2 27.6 C33.2 26.6 32.5 25.4 31.9 24.1 C31.7 24.8 31.4 25.5 31.2 26.2 C28.4 25.3 25.9 23.5 24 21.2 C24.4 22.7 24 24.5 23 25.7 C22.2 23.3 20.4 21.2 18.1 20 C18.1 20.6 18.2 21.2 18.2 21.8 C16.4 21.2 15.1 19.5 14.9 17.7 C14.8 18.7 14.8 19.6 14.7 20.6 C13.1 19.5 12 17.7 11.9 15.8 C11.9 15.3 11.9 14.8 11.5 14.5 C11.2 14.2 10.4 14.3 10.5 14.8 C10.5 13.8 10.5 12.8 10.6 11.9 z" id="h1" fill="#BD8B6A" /><path d="M0.4 47 C1.7 47 3.2 45.4 3.6 41.9 C3.6 41.8 3.6 41.7 3.7 41.7 C3.1 42.2 2.5 42.6 1.9 43.1 C2.8 39.4 3.7 35.6 4.6 31.9 C5.2 28.5 6.1 25 7.5 21.4 C7.6 21.2 7.9 21.2 8.2 21.6 C8.2 22.4 8.3 23.2 8.3 24.2 C9.3 23.3 10.3 23.4 11.2 22.5 C11.2 23.5 11.1 24.5 11.1 25.5 C12.3 25 13.3 24.2 13.9 23.1 C14 23.1 14 23.1 14.1 23.1 C14.3 26.2 17.3 28.8 20.4 28.6 C20.2 27.3 19.8 26.1 19.7 25.7 C21.2 27.3 22.5 29.9 23.9 31.5 C24.3 30.6 24.3 29.3 24.7 28.4 C25.3 29.2 27.4 29.8 28 30.7 C28.3 30.3 27.7 28 27.9 27.5 C28.2 28.2 28.5 28.8 29 29.3 C29.4 29.7 30 29.9 30.5 30 C31.7 30.8 32 30.2 33.5 31.2 C34.1 31.6 35.3 32.3 35.3 33.1 C35.8 32.3 36 31.2 35.9 30.1 C36.7 30.1 37.5 30 38.1 29.4 C38.6 28.9 38.9 28.3 39.2 27.6 C39.4 28.1 38.8 30.3 39.1 30.8 C39.7 30 41.8 29.4 42.4 28.5 C42.8 29.4 42.8 30.7 43.2 31.6 C44.7 30 46 27.5 47.4 25.8 C47.2 26.2 46.9 27.4 46.7 28.7 C49.8 28.9 52.8 26.3 53 23.2 C53.1 23.2 53.1 23.2 53.2 23.2 C53.8 24.3 54.8 25.1 56 25.6 C56 24.6 55.9 23.6 55.9 22.6 C56.9 23.5 57.9 23.4 58.8 24.3 C58.8 23.3 58.9 22.5 58.9 21.7 C59 21.3 59.3 21.2 59.6 21.5 C61 25.1 61.9 28.6 62.5 32 C63.4 35.7 64.3 39.5 65.2 43.2 C64.6 42.7 64 42.3 63.4 41.8 C63.4 41.9 63.5 41.9 63.5 42 C64 45.5 65.4 47.1 66.7 47.1 C66.5 48.3 64.3 50.2 63 49.9 C64.6 53.8 63.8 58.6 61.2 61.8 C61.8 63.1 61.3 64.8 60 65.5 C60.1 66.5 60.3 67.6 60.4 68.6 C60.1 68.4 59.9 68.2 59.6 68 C59.6 68.5 59.5 69.1 59.6 69.5 C59.8 69.7 60 69.9 60.1 70.1 C60.3 70.5 60.5 71 60.7 71.4 C60.3 71.1 60 70.8 59.6 70.5 L59.5 70.6 C59.3 70.9 59.1 71.2 58.9 71.5 C58.9 71.4 58.8 71.4 58.8 71.3 C58.4 71.9 58.1 72.6 58 73.4 C57.4 73.1 56.9 72.9 56.3 72.6 C55.9 73.8 55.4 74.9 55 76.1 C54.4 75.2 53.9 74.4 53.3 73.5 C53.1 73.6 52.9 73.6 52.7 73.7 C52.4 74.7 52 75.7 51.7 76.7 C51.4 75.7 51.1 74.6 50.1 74.2 C50 74.2 50 74.2 49.9 74.1 C49.5 74.1 49.1 74.1 48.7 74.1 C48.5 74.1 48.3 74.2 48.1 74.2 C47.8 74.3 47.5 74.3 47.2 74.4 C46.6 74.8 46 75.2 45.4 75.6 C45.2 75.7 45 75.8 44.8 75.8 C44.6 75.7 44.5 75.4 44.6 75.2 C44.7 75 44.8 74.9 45 74.8 C44.9 74.8 44.8 74.8 44.8 74.8 C44.2 74.8 43.6 74.7 43.2 74.4 C42.8 74.1 42.6 73.5 42.8 73.1 C42.7 73.1 41.6 73.4 41.5 73.3 C41.6 73.1 41.9 72 42.1 70.8 C41.9 71.1 41.8 71.4 41.6 71.7 C41.5 70 41.2 68.3 42 67.3 C42.2 67 42.3 66.8 42.4 66.5 C42.3 65.5 42.2 64.5 42.2 63.7 C41.7 62.5 41.1 61.3 41.2 60.3 C41.3 58.8 41.7 57.3 42.1 55.8 C41.3 56.5 40.5 57.2 39.8 57.9 C40.7 56 41.6 54.1 42.6 52.2 C42.3 51.1 41.9 50.1 41.6 49 C40.6 49.7 39.7 50.6 39.2 51.7 C38.8 49.4 38.3 46.5 39.5 44.6 C37.8 47 35.1 48 33.6 52.6 C32.1 48.1 29.4 47 27.7 44.6 C28.9 46.5 28.5 49.4 28 51.7 C27.5 50.6 26.6 49.7 25.6 49 C25.3 50.1 24.9 51.1 24.6 52.2 C25.5 54.1 26.4 56 27.4 57.9 C26.6 57.2 25.8 56.5 25.1 55.8 C25.5 57.3 25.8 58.8 26 60.3 C26.1 61.4 25.5 62.6 25 63.7 C25 64.5 24.9 65.5 24.8 66.5 C24.9 66.8 25 67.1 25.2 67.3 C26 68.4 25.7 70 25.6 71.7 C25.4 71.4 25.3 71.1 25.1 70.8 C25.4 72 25.6 73.1 25.7 73.3 C25.6 73.3 24.5 73.1 24.4 73.1 C24.6 73.5 24.4 74.1 24 74.4 C23.5 74.7 22.9 74.8 22.4 74.8 C22.3 74.8 22.2 74.8 22.2 74.8 C22.4 74.9 22.5 75 22.6 75.2 C22.7 75.4 22.7 75.8 22.4 75.8 C22.2 75.9 22 75.8 21.8 75.6 C21.2 75.2 20.6 74.8 20 74.4 C19.7 74.3 19.4 74.3 19.1 74.2 C18.9 74.2 18.7 74.1 18.5 74.1 C18.1 74.1 17.7 74.1 17.3 74.1 C17.2 74.1 17.2 74.1 17.1 74.2 C16.2 74.6 15.8 75.7 15.5 76.7 C15.2 75.7 14.8 74.7 14.5 73.7 C14.3 73.6 14.1 73.6 13.9 73.5 C13.3 74.4 12.8 75.2 12.2 76.1 C11.8 74.9 11.3 73.8 10.9 72.6 C10.3 72.9 9.8 73.1 9.2 73.4 C9.1 72.7 8.8 71.9 8.4 71.3 C8.4 71.4 8.3 71.4 8.3 71.5 C8.1 71.2 7.9 70.9 7.7 70.6 L7.6 70.5 C7.2 70.8 6.9 71.1 6.5 71.4 C6.7 71 6.9 70.5 7.1 70.1 C7.3 69.9 7.5 69.7 7.6 69.5 C7.6 69 7.6 68.5 7.6 68 C7.3 68.2 7.1 68.4 6.8 68.6 C6.9 67.6 7.1 66.5 7.2 65.5 C6 64.8 5.4 63.1 6 61.8 C3.3 58.5 2.6 53.8 4.2 49.9 C2.8 50.1 0.6 48.2 0.4 47 z" id="i1" fill="#F0C497" /><path d="M27.8 44.8 C27.8 44.8 27.8 44.8 27.8 44.8 C28.8 46.8 28.4 49.5 28 51.7 C27.5 50.6 26.6 49.7 25.6 49 C25.3 50.1 24.9 51.1 24.6 52.2 C25.5 54.1 26.4 56 27.4 57.9 C26.6 57.2 25.8 56.5 25.1 55.8 C25.5 57.3 25.8 58.8 26 60.3 C26.1 61.4 25.5 62.6 25 63.7 C25 64.5 24.9 65.5 24.8 66.5 C24.9 66.8 25 67.1 25.2 67.3 C25.9 68.3 25.7 69.7 25.6 71.2 C27.6 73.5 27.7 76.9 26.7 78.2 C26.1 78.8 22.3 81.5 15.8 80.8 C8.5 80.1 7 77.9 7.2 75 C7.3 73.9 7.7 72.6 8.2 71.4 L7.7 70.6 C7.2 70.8 6.9 71.1 6.5 71.4 C6.7 71 6.9 70.5 7.1 70.1 C7.3 69.9 7.5 69.7 7.6 69.5 L7.6 68 C7.3 68.2 7.1 68.4 6.8 68.6 C6.9 67.6 7.1 66.5 7.2 65.5 C6 64.8 5.4 63.1 6 61.8 C3.3 58.5 2.6 53.8 4.2 49.9 C2.8 50.1 0.6 48.2 0.4 47 C1.7 47 3.2 45.4 3.6 41.9 C3.6 41.8 3.6 41.7 3.7 41.7 C3.1 42.2 2.5 42.6 1.9 43.1 C2.8 39.4 3.7 35.6 4.6 31.9 C5.2 28.5 6.1 25 7.5 21.4 C7.6 21.2 7.9 21.2 8.2 21.6 C8.2 22.4 8.3 23.2 8.3 24.2 C9.3 23.3 10.3 23.4 11.2 22.5 C11.2 23.5 11.1 24.5 11.1 25.5 C12.3 25 13.3 24.2 13.9 23.1 L14.1 23.1 C14.3 26.2 17.3 28.8 20.4 28.6 C20.2 27.3 19.8 26.1 19.7 25.7 C21.2 27.3 22.5 29.9 23.9 31.5 C24.3 30.6 24.3 29.3 24.7 28.4 C25.3 29.2 27.4 29.8 28 30.7 C28.3 30.3 27.7 28 27.9 27.5 C28.2 28.2 28.5 28.8 29 29.3 C29.4 29.7 30 29.9 30.5 30 C31.7 30.8 32 30.2 33.5 31.2 C34.1 31.6 35.3 32.3 35.3 33.1 C35.8 32.3 36 31.2 35.9 30.1 C36.7 30.1 37.5 30 38.1 29.4 C38.6 28.9 38.9 28.3 39.2 27.6 C39.4 28.1 38.8 30.3 39.1 30.8 C39.7 30 41.8 29.4 42.4 28.5 C42.8 29.4 42.8 30.7 43.2 31.6 C44.7 30 46 27.5 47.4 25.8 C47.2 26.2 46.9 27.4 46.7 28.7 C49.8 28.9 52.8 26.3 53 23.2 L53.2 23.2 C53.8 24.3 54.8 25.1 56 25.6 C56 24.6 55.9 23.6 55.9 22.6 C56.9 23.5 57.9 23.4 58.8 24.3 C58.8 23.3 58.9 22.5 58.9 21.7 C59 21.3 59.3 21.2 59.6 21.5 C61 25.1 61.9 28.6 62.5 32 C63.4 35.7 64.3 39.5 65.2 43.2 C64.6 42.7 64 42.3 63.4 41.8 C63.4 41.9 63.5 41.9 63.5 42 C64 45.5 65.4 47.1 66.7 47.1 C66.5 48.3 64.3 50.2 63 49.9 C64.6 53.8 63.8 58.6 61.2 61.8 C61.8 63.1 61.3 64.8 60 65.5 C60.1 66.5 60.3 67.6 60.4 68.6 C60.1 68.4 59.9 68.2 59.6 68 C59.6 68.5 59.5 69.1 59.6 69.5 C59.8 69.7 60 69.9 60.1 70.1 C60.3 70.5 60.5 71 60.7 71.4 C60.3 71.1 60 70.8 59.6 70.5 L58.9 71.5 C58.9 71.4 58.8 71.4 58.8 71.3 C59.3 72.6 59.7 73.9 59.8 75 C60 77.9 58.5 80.1 51.2 80.8 C44.7 81.5 40.9 78.8 40.3 78.2 C39.3 76.9 39.4 73.4 41.6 71 C41.5 69.5 41.4 68.1 42 67.3 C42.2 67 42.3 66.8 42.4 66.5 C42.3 65.5 42.2 64.5 42.2 63.7 C41.7 62.5 41.1 61.3 41.2 60.3 C41.3 58.8 41.7 57.3 42.1 55.8 C41.3 56.5 40.5 57.2 39.8 57.9 C40.7 56 41.6 54.1 42.6 52.2 C42.3 51.1 41.9 50.1 41.6 49 C40.6 49.7 39.7 50.6 39.2 51.7 C38.8 49.4 38.3 46.5 39.5 44.6 C37.8 47 35.1 48 33.6 52.6 C32.1 48.2 29.5 47.1 27.8 44.8 z M27.8 44.8 C27.7 43.9 27.5 43 27.1 42.3 C28.7 44.6 32.1 44.8 33.5 49.1 C34.9 44.8 39.5 45.3 41.1 43 C40 44.8 39.5 47.3 39.9 49.5 C40.4 48.5 41.7 47.9 42.6 47.2 C42.9 48.2 43.6 51.3 43.9 52.3 C43 54.1 42.7 53 41.8 54.8 C42.5 54.1 43.3 54.7 43.2 56.1 C43.1 57 42.1 60.2 42.5 61.3 C42.5 62.1 43.1 63 43.2 63.9 C43.1 64.2 44 66.4 43.8 66.7 C43.1 67.5 42.4 70 42.5 71.4 C40.5 73.6 40 74.7 41 76 C41.3 76.3 41.5 77.6 42.9 78.2 C43.9 78.6 45.7 78.3 47.4 78.5 C48.3 78.6 49.8 79.1 50.9 79 C51.9 78.9 52.1 77.2 53 77.5 C53.9 77.8 54.5 78.6 55.1 78.5 C56 78.4 56.4 76.8 56.9 76.4 C58.2 75.4 58.2 73.4 58.1 72 C58 71 57.6 69.8 57.2 68.5 C57.2 68.6 57.3 68.6 57.3 68.7 L58 67.8 C58.4 68.1 58.7 68.4 59 68.6 C58.8 68.2 58.6 67.8 58.4 67.4 C58.3 67.2 58.1 67 57.9 66.8 C57.8 66.4 57.9 65.9 57.9 65.4 C58.2 65.6 58.4 65.8 58.7 66 C58.6 65.1 58.4 64 58.3 63.1 C59.5 62.4 60 60.8 59.4 59.6 C61.8 56.6 62.6 52.1 61.1 48.4 C62.3 48.7 64.8 48.4 64.9 47.2 C64.2 47.2 63.6 46.9 62.9 44.8 C62.4 43.4 60.9 38.2 61.4 39.1 C62 39.6 62.3 39.8 62.9 40.3 C62.1 36.8 61.9 34.7 61.1 31.2 C60.5 28 60.7 27.1 59.4 23.7 C59.1 23.4 58.7 25.1 58.6 25.5 C58.6 26.3 57.1 23.4 57.1 24.4 C56.3 23.6 57.2 27.7 56.3 26.9 C56.3 27.8 54.1 26.2 53.5 25.1 C52.2 27.4 51.1 28.7 50.4 29.1 C48.7 29.9 47.5 30.5 46.4 30.4 C46.6 29.2 45.9 28.6 46.1 28.2 C44.8 29.8 44.6 31.1 43.2 32.6 C42.8 31.8 42.5 30.6 42.1 29.8 C41.5 30.6 39.1 31.5 38.5 32.2 C38.2 31.7 38.7 29.6 38.5 29.1 C38.2 29.8 38.2 30.3 37.7 30.8 C37.1 31.4 37.1 31.1 36.4 31.1 C36.5 32.1 35.7 33.8 35.2 34.5 C35.2 33.7 33.5 32.3 32.9 31.9 C31.5 31 31.6 31.9 30.5 31.1 C30 31 28.8 29.7 28.6 30.1 C28.4 29.8 28.9 31.4 28.3 31.5 C27.4 31.6 25.3 30.3 24.9 29.8 C24.5 30.6 24.2 31.4 23.8 32.2 C22.5 30.7 22.1 29.3 20.7 27.8 C20.8 28.2 21.1 29.6 20.6 29.9 C17.7 30.1 14.2 27.6 13.8 24.6 C13.2 25.6 12 26.3 10.9 26.7 C10.9 25.8 10.5 24.5 10.5 23.6 C9.7 24.5 10 24.5 9 25.4 C8.4 25 7.6 24.8 7.6 24 C7.3 23.6 7.1 23.4 7 23.6 C5.7 27 6 28.2 5.4 31.4 C4.6 34.9 4 37.7 3.1 41.2 C3.7 40.7 4.6 40.2 4.6 40.3 C4.2 43.6 3 47.2 1.8 47.2 C2 48.3 3.7 48.6 5 48.4 C3.5 52.1 5 56.5 7.5 59.6 C6.9 60.8 7.5 62.4 8.6 63.1 C8.6 64 8.5 65 8.4 66 C8.7 65.8 8.9 65.6 9.2 65.4 L9.2 66.8 C9 67 8.8 67.2 8.6 67.4 C8.4 67.8 8.2 68.2 8 68.6 C8.4 68.3 8.7 68 9.1 67.8 L9.6 68.6 C9.1 69.8 8.7 70.9 8.6 72 C8.5 72.8 8.2 74.5 9 74.5 C9.8 74.5 9.2 77.2 10.8 77.9 C11.2 78.1 12.7 77.3 13.2 77.4 C13.8 77.6 14.1 78.8 15 78.9 C15.5 79 17.4 77.3 17.9 77.4 C19.6 77.6 21.1 78.6 22.5 78.4 C23.9 78.2 24 76.7 25.2 76.7 C27.5 76.7 25.9 75.4 26.2 75.2 C26.8 72.7 25.7 72.6 23.8 70.4 C23.9 69 24.5 67.7 23.8 66.7 C23.6 66.5 23.9 64.4 23.8 64.1 C23.9 63.2 24.5 62 24.5 61.2 C25 60.2 24.6 58.7 24.5 57.7 C24.3 56.3 23.6 55.2 23.2 53.8 C23.9 54.5 24.9 54 25.7 54.7 C24.8 52.9 24.7 52.6 23.8 50.8 C24.1 49.8 24.9 47.7 25.2 46.7 C26.1 47.4 27 47.9 27.4 49 C27.7 47.8 27.9 46.2 27.8 44.8 C27.8 44.8 27.7 44.7 27.7 44.6 C27.7 44.7 27.8 44.7 27.8 44.8 z" opacity="0.15" id="j1" /><path d="M10.6 11.9 C13.2 8.3 20.8 0.3 33.5 0.3 C46.2 0.3 53.8 8.3 56.4 11.9 C56.5 12.9 56.5 13.8 56.4 14.8 C56.4 14.3 55.7 14.2 55.4 14.5 C55.1 14.8 55.1 15.3 55 15.8 C54.9 17.7 53.8 19.6 52.2 20.6 C52.1 19.6 52.1 18.7 52 17.7 C51.8 19.6 50.4 21.3 48.7 21.8 C48.7 21.2 48.8 20.6 48.8 20 C46.5 21.2 44.8 23.3 43.9 25.7 C42.9 24.5 42.5 22.7 42.9 21.2 C41.1 23.5 38.5 25.3 35.7 26.2 C35.5 25.6 35.3 25 35 24.3 C34.8 25.4 34.5 26.5 34.2 27.6 C33.2 26.6 32.5 25.4 31.9 24.1 C31.7 24.8 31.4 25.5 31.2 26.2 C28.4 25.3 25.9 23.5 24 21.2 C24.4 22.7 24 24.5 23 25.7 C22.2 23.3 20.4 21.2 18.1 20 C18.1 20.6 18.2 21.2 18.2 21.8 C16.4 21.2 15.1 19.5 14.9 17.7 C14.8 18.7 14.8 19.6 14.7 20.6 C13.1 19.5 12 17.7 11.9 15.8 C11.9 15.3 11.9 14.8 11.5 14.5 C11.2 14.2 10.4 14.3 10.5 14.8 C10.5 13.8 10.5 12.8 10.6 11.9 z M11.9 11.3 C11.8 12.1 11.8 13.1 11.8 14 C11.7 13.5 12.5 13.4 12.7 13.7 C13.1 14 13.1 14.5 13.1 14.9 C13.2 16.7 12.2 17.2 13.7 18.2 C13.8 17.3 14.9 16.3 15 15.4 C15.2 17.1 15.7 20 17.4 20.6 C17.4 20 17.9 18.8 17.9 18.3 C20.1 19.4 22.4 21.7 23.2 24 C24.1 22.9 23.6 20.9 23.2 19.5 C25 21.7 28.7 23.9 31.3 24.8 C31.5 24.1 31.8 23.5 32 22.8 C32.6 24 33.2 25.2 34.2 26.1 C34.5 25.1 34.8 24 35 23 C35.3 23.7 35.5 24.2 35.7 24.8 C38.3 24 42.5 21.7 44.2 19.5 C43.8 20.9 43.3 22.8 44.2 24 C45 21.7 46.6 19.1 48.8 17.9 C48.8 18.5 49.6 20.1 49.6 20.6 C51.2 20.1 52.3 16.7 52.5 14.9 C52.6 15.8 53.1 17.8 53.2 18.8 C54.7 17.9 54.3 16.7 54.4 14.9 C54.5 14.4 54.1 14 54.4 13.7 C54.7 13.4 55.8 12.7 55.8 13.2 C55.9 12.3 55.4 12.2 55.3 11.3 C52.6 7.9 45.5 0.4 33.5 0.4 C21.5 0.4 14.4 7.9 11.9 11.3 z" opacity="0.15" id="k1" /></g></g><g transform="translate(168.6, 179.9) scale(0.758653) translate(-168.6, -179.9)" id="l1"><g transform="translate(168.6, 179.9) scale(0.9, 1) translate(-168.6, -179.9) translate(104.1, 79.69998) translate(11, 4)" id="m1"><path d="M13.1 100.8 C26 110.4 41.7 108.9 54.5 108.5 C69.5 108.1 82.4 109.3 95.6 99.6 C120.5 81.3 107.4 67 105.9 38.5 C104.9 19.5 91.6 8.7 65.8 6 L65.8 0.4 L62.2 6 L59.8 0.4 L59.8 3.7 L51.9 0.4 L53.3 6 C25.5 5.4 10.2 16.9 7.6 40.5 C4.7 66.1 -8.7 84.7 13.1 100.8 z" id="n1" fill="#D8B285" /><path d="M13.1 100.8 C-8.7 84.7 4.7 66.1 7.6 40.5 C10.2 16.9 25.5 5.4 53.3 6 L51.9 0.4 L59.8 3.7 L59.8 0.4 L62.2 6 L65.9 0.4 L65.9 6.1 C91.7 8.8 105 19.6 106 38.6 C107.5 67.1 120.6 81.4 95.7 99.7 C82.5 109.4 69.6 108.2 54.6 108.6 C41.7 109 26 110.4 13.1 100.8 z M15.3 97.3 C27.5 106.5 42.4 105.1 54.6 104.7 C68.8 104.3 81.1 105.5 93.6 96.2 C117.2 78.7 104.8 65 103.4 37.8 C102.5 19.6 89.9 9.6 65.4 7 L65.5 2.1 L62.2 7.6 L60.2 2.3 L60.5 5.1 L52.4 1.3 L54.3 7 C28 6.4 12.6 17 10.1 39.6 C7.3 64 -5.3 81.9 15.3 97.3 z" opacity="0.15" id="o1" /></g><g transform="translate(168.6, 179.9) scale(0.9, 1) translate(-168.6, -179.9) translate(131.8, 107.7) rotate(25, 0, 0) scale(1) translate(-131.8, -111.7) translate(91.90001, 88.79998) translate(13, 8)" id="p1"><path d="M23.1 5.8 C20.1 10.5 14.9 20.5 9.1 29.6 C2.2 36.8 3.5 38.8 1.4 42.3 C-0.7 45.8 -0.7 52.8 5.7 59 C12.1 65.2 17.7 67.5 18.8 71.2 C19.9 74.9 27 79 28.8 79 C30.6 79 35.6 73.9 34.7 71.2 C33.8 68.5 28.8 47.4 28.8 35.6 C28.8 31.8 27.5 17.1 28.8 12.6 C29.9 8.7 29.2 4.4 32.6 1.5 C34.2 0.1 26.1 1.2 23.1 5.8 z" id="q1" fill="#806458" /><g id="r1"><path d="M23.1 5.8 C26.1 1.2 34.2 0.1 32.6 1.5 C29.2 4.4 29.9 8.7 28.8 12.6 C27.5 17.1 28.8 31.8 28.8 35.6 C28.8 47.4 33.8 68.5 34.7 71.2 C35.6 73.9 30.6 79 28.8 79 C27 79 19.9 74.9 18.8 71.2 C17.7 67.5 12.1 65.2 5.7 59 C-0.7 52.8 -0.7 45.8 1.4 42.3 C3.5 38.8 2.2 36.8 9.1 29.6 C14.9 20.5 20.1 10.5 23.1 5.8 z M23 8.7 C20.5 12.9 14.6 22.9 9.8 31.1 C4 37.6 5.2 39.4 3.4 42.5 C1.6 45.6 1.9 51.8 7.7 57.1 C13.5 62.4 18.5 64.2 19.6 67.4 C20.7 70.6 25.6 75 28.4 74.5 C31.2 74 32.9 69 32 66.7 C31.1 64.4 27.6 46.2 27.3 35.8 C27.2 32.5 26.3 18.3 27.3 14.3 C28.1 10.8 28.8 5.7 30.4 2.6 C31.6 0.7 25.5 4.5 23 8.7 z" fill-opacity="0.3" id="s1" /></g></g><g transform="translate(168.6, 179.9) scale(0.9, 1) translate(-168.6, -179.9) translate(207.5, 103.7) rotate(-25, 0, 0) scale(1) translate(-207.5, -107.7) translate(81.9, 84.99998) translate(109, 8)" id="t1"><path d="M20.2 5.8 C23.2 10.5 28.4 20.5 34.2 29.6 C41.1 36.8 40.1 38.8 42.2 42.3 C44.3 45.8 43.9 52.8 37.6 59 C31.3 65.2 25.6 67.5 24.5 71.2 C23.4 74.9 16.2 79 14.4 79 C12.6 79 7.6 73.9 8.5 71.2 C9.4 68.5 14.4 47.4 14.4 35.6 C14.4 31.8 15.7 17.1 14.4 12.6 C13.3 8.7 13.3 4.5 9.9 1.5 C8.4 0.2 17.2 1.2 20.2 5.8 z" id="u1" fill="#806458" /><path d="M20.2 5.8 C23.2 10.5 28.4 20.5 34.2 29.6 C41.1 36.8 40.1 38.8 42.2 42.3 C44.3 45.8 43.9 52.8 37.6 59 C31.3 65.2 25.6 67.5 24.5 71.2 C23.4 74.9 16.2 79 14.4 79 C12.6 79 7.6 73.9 8.5 71.2 C9.4 68.5 14.4 47.4 14.4 35.6 C14.4 31.8 15.7 17.1 14.4 12.6 C13.3 8.7 13.3 4.5 9.9 1.5 C8.4 0.2 17.2 1.2 20.2 5.8 z M20.6 8.8 C18 4.7 10.2 1 11.5 2.1 C14.5 4.8 15.2 9.5 16.1 12.9 C17.2 16.9 16.8 30.9 16.8 34.2 C16.6 44.7 12.4 64.8 11.5 67.2 C10.7 69.6 14.5 72.7 16.1 72.7 C17.7 72.7 24.1 69.2 25.2 65.9 C26.2 62.6 31.3 60.7 37 55.3 C42.7 49.9 41.8 43.9 40 40.8 C38.2 37.7 38.7 36 32.7 29.5 C27.7 21.5 23.2 13 20.6 8.8 z" fill-opacity="0.3" id="v1" /></g><g transform="translate(170.6, 141.9) scale(1.35) translate(-170.6, -150.9)" id="w1"><g transform="translate(93.50001, 69.79998) translate(58, 69)" id="x1"><g transform="translate(0.270427, 0.292308)" id="y1"><path d="M3.7 28.7 C4.6 29.8 7 30.1 9.2 30.8 C12.2 31.7 15.4 32.7 18.9 32.5 C19 32.5 23.5 32 25 31.9 C29.3 31.4 32.9 31.1 34.5 28.7 C35.1 27.5 36.1 23.3 35.9 21.1 C35.8 19.9 34.2 18.2 33.3 17 C34.5 17.2 35.1 17.1 37 18.3 C36.5 17.1 34.6 14.3 33.6 13.5 C31.5 11.8 29.4 10.7 28.1 9.7 C29.3 9.6 29.8 9.9 31.4 10.2 C30.3 8.9 27.3 6.3 25.8 5.9 C27.1 5.7 27.1 5.7 28.1 5.9 C27 4.4 21.7 1.4 21.1 0.8 C21 0.7 21.1 1.7 22.1 3 C22.9 4 24.5 5 25.3 6.4 C24 5.8 22.7 5.4 21.5 5.2 C24.7 8.1 26.6 10 27.3 11 C25.8 10.5 23.7 9.7 21.8 9.7 C24.5 11 30.1 17 30 17 C28.9 16.3 27.7 15.1 25.8 14.4 C23.6 13.5 20.7 13 18.3 13 C17.5 13 14.9 13.2 13.5 13.5 C10.7 14 8.9 15 8.2 15.5 C9.6 13.7 13.4 10.8 15.8 9.5 C13.8 9.1 11.7 10.2 10.1 11.2 C11.5 9.8 14.7 6.6 16.3 5.1 C15.2 5.3 14.2 5.6 12.6 6.1 C14.6 3.9 16.5 2.3 16.6 2.1 C16.7 1.9 16.9 1.7 17.1 0.6 C15.4 1.9 9.5 5.7 7.5 7.9 C9.5 7.7 9.8 7.5 11 7.6 C9.9 8 7.4 9.8 6.5 10.5 C7.8 10.6 7.8 10.7 8.4 11.1 C7.4 11.4 5.6 12.3 3.6 14 C2.2 15.2 1.2 17.6 0.9 18.2 C2.8 17.5 3 17.2 4.1 16.7 C3.8 17.4 2.5 18.4 2.4 19.6 C2.1 21.4 3 27.8 3.7 28.7 z" id="z1" fill="#806457" /><path d="M3.7 28.7 C3 27.8 2.1 21.4 2.4 19.6 C2.5 18.4 3.8 17.4 4.1 16.7 C3 17.2 2.8 17.5 0.9 18.2 C1.2 17.6 2.2 15.2 3.6 14 C5.6 12.3 7.4 11.4 8.4 11.1 C7.8 10.7 7.8 10.6 6.5 10.5 C7.4 9.8 9.9 8 11 7.6 C9.8 7.5 9.5 7.7 7.5 7.9 C9.5 5.7 15.4 1.9 17.1 0.6 C16.9 1.7 16.7 1.9 16.6 2.1 C16.5 2.3 14.6 3.9 12.6 6.1 C14.2 5.6 15.2 5.3 16.3 5.1 C14.7 6.6 11.5 9.8 10.1 11.2 C11.7 10.2 13.8 9.1 15.8 9.5 C13.4 10.8 9.6 13.7 8.2 15.5 C8.9 15 10.7 14 13.5 13.5 C14.9 13.2 17.5 13 18.3 13 C20.7 13 23.6 13.5 25.8 14.4 C27.7 15.1 28.9 16.3 30 17 C30.1 17 24.5 11 21.8 9.7 C23.7 9.7 25.8 10.5 27.3 11 C26.6 10 24.7 8.1 21.5 5.2 C22.7 5.4 24 5.8 25.3 6.4 C24.5 5 22.9 4 22.1 3 C21.1 1.7 21 0.7 21.1 0.8 C21.7 1.4 27 4.4 28.1 5.9 C27.1 5.7 27.1 5.7 25.8 5.9 C27.3 6.3 30.3 8.9 31.4 10.2 C29.8 9.9 29.3 9.6 28.1 9.7 C29.4 10.7 31.5 11.8 33.6 13.5 C34.6 14.3 36.5 17.1 37 18.3 C35.1 17.1 34.5 17.2 33.3 17 C34.2 18.2 35.8 19.9 35.9 21.1 C36.1 23.3 35.1 27.5 34.5 28.7 C32.9 31.1 29.3 31.4 25 31.9 C23.5 32 19 32.5 18.9 32.5 C15.4 32.7 12.2 31.7 9.2 30.8 C7 30.1 4.6 29.8 3.7 28.7 z M5.3 27.4 C6.1 28.4 8.2 28.7 10.2 29.3 C12.9 30.1 15.7 31 18.9 30.8 C19 30.8 23 30.4 24.4 30.3 C28.2 29.9 31.5 29.6 32.9 27.4 C33.4 26.3 35 23.6 34.9 21.7 C34.8 20.6 33.1 17.7 32.3 16.6 C33.1 16.5 34.2 16.2 35.9 17.2 C35.5 16.1 33.5 14.3 32.6 13.6 C30.7 12.1 28.3 10.1 27.1 9.2 C28.2 9.1 28.8 9.2 30.2 9.5 C29.7 8.9 28.7 8.2 27.6 7.5 C26.5 6.7 25.7 6.6 25.5 5.8 C26.1 5.5 26.6 5.2 27.1 5.3 C26.1 4 22.3 2.2 21.7 1.7 C21.6 1.6 23.1 2.8 24 3.9 C24.7 4.7 25.3 6.6 26.1 7.1 C24.9 6.6 23.7 5.7 22.6 5.6 C25.5 8.2 27.4 10.5 28 11.4 C26.7 11 24.8 10.1 23.1 10.1 C24 10.6 26 11.8 27.4 13.3 C29.6 15.5 31.3 18 31.3 18 C30.3 17.4 26.7 15.1 25 14.5 C23 13.7 20.4 13.2 18.3 13.2 C17.6 13.2 15.3 13.4 14 13.6 C11.5 14 8.1 16.1 7 16.3 C8 14 11.8 10.9 13.9 9.8 C12.1 9.4 10.7 10.6 9.3 11.5 C10.6 10.2 13.8 6.8 15.2 5.4 C14.2 5.6 13.1 5.7 11.7 6.2 C13.5 4.2 14.2 3.7 14.3 3.5 C14.4 3.3 16.2 2.2 16.4 1.3 C14.9 2.5 10.7 5 8.9 7 C10.7 6.8 10.9 6.9 12 7 C11 7.4 8.8 9.2 8 9.8 C9.2 9.9 9 10.3 9.5 10.6 C8.6 10.9 7.2 11.8 5.4 13.3 C4.1 14.4 2.9 16.2 2.6 16.7 C4.3 16.1 4.4 15.8 5.4 15.4 C5.1 16 4.1 18.4 4 19.5 C3.7 21.3 4.7 26.6 5.3 27.4 z" opacity="0.15" id="a2" /></g></g><g transform="translate(88.10001, 85.69997) translate(74, 77)" id="b2"><path d="M7.5 1.5 C7.7 3.9 7.8 5.6 7.8 6.6 C7.8 7.6 7.5 9.5 7 12.1 C4.4 14.2 2.6 16 1.7 17.5 C0.4 19.8 -0.1 20.5 0.4 20.8 C0.7 21.1 2.4 18.9 4.9 17.7 C5.9 17.2 7.4 16.9 8.5 16.9 C9.8 16.9 11.5 17.4 12.7 18.1 C14.8 19.3 16 21 16.4 20.9 C16.9 20.7 15.7 17.6 13.2 15.4 C11.6 13.9 10.5 12.9 10 12.2 C9.7 9.6 9.6 7.8 9.6 6.6 C9.6 5.4 9.7 3.6 9.9 1.3 C10.5 0.4 10.1 0 8.7 0 C7.3 0 6.9 0.5 7.5 1.5 z" id="c2" /></g><g transform="translate(170.6, 159.9) scale(0.7) translate(-170.6, -159.9) translate(87.89999, 83.89996) translate(70, 60)" id="d2"><g id="e2"><path d="M0.7 4.3 C1.1 1.6 6.7 0 8.1 0 C9.5 0 15.7 0 17.5 0 C19.3 0 22 1.3 23.3 2.5 C24.6 3.7 25.4 6.3 25 8.4 C24.5 10.5 21.3 18.8 17.3 19.2 C13.3 19.6 11.1 19.5 9 19 C6.9 18.5 0.7 13.4 0.7 8.4 C0.6 6.7 0.5 5.7 0.7 4.3 z" id="f2" /><path d="M14 3 C15.3 3 16.6 3.9 17.6 4 C19.1 4.2 20.1 3.2 20.1 2.5 C20.1 1.4 17.3 1 14 1 C10.7 1 6 1.1 6 2.2 C6 3.3 10.7 3 14 3 z" id="g2" fill="#FFF" /></g></g><g transform="translate(156.6, 139.9) scale(1.3) translate(-156.6, -139.9) translate(99.09999, 78.99997) translate(53, 56)" id="h2"><g id="i2"><path d="M11 8.3 C11 7.7 11 4.9 9.8 3 C8.6 1.1 7.4 0.6 5.8 0.2 C4.2 -0.2 2.3 0 1.3 0.9 C0.3 1.8 0 4 0 5.5 C0 7 0.8 8.8 2.8 9.4 C4.1 9.8 6 9.8 8.6 9.4 C10.2 9.1 11 8.8 11 8.3 z" id="j2" /><path d="M5 4.4 C5.6 4.4 6.4 3.6 6.4 3 C6.4 2.4 5.6 2 5 2 C4.4 2 4 2.4 4 3 C4 3.6 4.4 4.4 5 4.4 z" id="k2" fill="#FFFFFE" /></g></g><g transform="translate(185.6, 139.9) scale(1.3) translate(-185.6, -139.9) translate(96.89999, 78.99997) translate(82, 56)" id="l2"><g id="m2"><path d="M0 8.3 C0 7.7 0 4.9 1.2 3 C2.4 1.1 3.6 0.6 5.2 0.2 C6.8 -0.2 8.7 0 9.7 0.9 C10.7 1.8 11 4 11 5.5 C11 7 10.2 8.8 8.2 9.3 C6.9 9.7 5 9.7 2.4 9.3 C0.8 9.1 0 8.8 0 8.3 z" id="n2" /><path d="M6 4.4 C6.6 4.4 7.4 3.6 7.4 3 C7.4 2.4 6.6 2 6 2 C5.4 2 5 2.4 5 3 C5 3.6 5.4 4.4 6 4.4 z" id="o2" fill="#FFFFFE" /></g></g></g></g></g></g><defs><g transform="translate(17.09519, 0.800995) translate(-135.2952, -293.601)" id="p2" fill="#000"><path d="M118.2 302.7 C118.4 307.4 132.5 311.2 149.8 311.2 C167.1 311.2 181.2 307.4 181.4 302.7 C181.4 307.5 181.4 310.1 181.4 310.5 C181.4 315.3 167.3 319.1 149.8 319.1 C132.3 319.1 118.2 315.2 118.2 310.5 L118.2 302.7 L118.2 302.7 z" fill-opacity="0.4528" id="q2" fill="#593001" /><path d="M118.7 301.7 C118.9 306.4 133 310.2 150.3 310.2 C167.6 310.2 181.7 306.4 181.9 301.7 C181.9 306.5 181.9 309.1 181.9 309.5 C181.9 314.3 167.8 318.1 150.3 318.1 C132.8 318.1 118.7 314.2 118.7 309.5 L118.7 301.7 L118.7 301.7 z" id="r2" fill="#DA8113" /><linearGradient x1="46.0545" y1="-118.6926" x2="45.4656" y2="-118.6926" gradientUnits="userSpaceOnUse" gradientTransform="matrix(117.135, 0, 0, 28.4634, -5208.417, 3687.795)" id="s2"><stop offset="0%" stop-color="#D9952A" stop-opacity="1" /><stop offset="6.438854%" stop-color="#CA7519" stop-opacity="1" /><stop offset="30.54%" stop-color="#E3AD3A" stop-opacity="1" /><stop offset="51.05%" stop-color="#FFEC91" stop-opacity="1" /><stop offset="68.8%" stop-color="#E9BD44" stop-opacity="1" /><stop offset="86.24%" stop-color="#FFED6C" stop-opacity="1" /><stop offset="93.87%" stop-color="#F2D353" stop-opacity="1" /><stop offset="100%" stop-color="#F2B947" stop-opacity="1" /></linearGradient><path d="M118.2 301.6 C118.4 306.1 132.7 309.7 150.3 309.7 C167.9 309.7 182.2 306.1 182.4 301.6 C182.4 306.2 182.4 308.7 182.4 309 C182.4 313.5 168 317.2 150.3 317.2 C132.6 317.2 118.2 313.5 118.2 309 L118.2 301.6 L118.2 301.6 z" id="t2" style="fill:url(#s2)" /><linearGradient x1="45.4914" y1="-117.9547" x2="45.9407" y2="-117.5895" gradientUnits="userSpaceOnUse" gradientTransform="matrix(115.425, 0, 0, 29.925, -5125.077, 3826.124)" id="u2"><stop offset="0%" stop-color="#F4E072" stop-opacity="1" /><stop offset="100%" stop-color="#DB9427" stop-opacity="1" /></linearGradient><ellipse cx="150.3" cy="301.5" rx="31.6" ry="8.2" id="v2" style="fill:url(#u2)" /><linearGradient x1="45.4656" y1="-126.0065" x2="46.0545" y2="-126.0065" gradientUnits="userSpaceOnUse" gradientTransform="matrix(117.135, 0, 0, 18.6219, -5208.417, 2651.479)" id="w2"><stop offset="0%" stop-color="#D9952A" stop-opacity="1" /><stop offset="6.438854%" stop-color="#CA7519" stop-opacity="1" /><stop offset="30.54%" stop-color="#E3AD3A" stop-opacity="1" /><stop offset="51.05%" stop-color="#FFEC91" stop-opacity="1" /><stop offset="68.8%" stop-color="#E9BD44" stop-opacity="1" /><stop offset="86.24%" stop-color="#FFED6C" stop-opacity="1" /><stop offset="93.87%" stop-color="#F2D353" stop-opacity="1" /><stop offset="100%" stop-color="#F2B947" stop-opacity="1" /></linearGradient><path d="M119.2 299.9 C119 300.2 118.9 300.6 118.9 301 C118.9 305.5 132.9 309.2 150.3 309.2 C167.7 309.2 181.7 305.5 181.7 301 C181.7 300.6 181.6 300.3 181.4 299.9 C182 300.5 182.4 301.2 182.4 301.9 C182.4 306.4 168 310.1 150.3 310.1 C132.6 310.1 118.2 306.4 118.2 301.9 C118.2 301.3 118.6 300.6 119.2 299.9 z" id="x2" style="fill:url(#w2)" /><linearGradient x1="45.196" y1="-121.5895" x2="45.3746" y2="-120.6758" gradientUnits="userSpaceOnUse" gradientTransform="matrix(101.745, 0, 0, 23.94, -4458.332, 3199.41)" id="y2"><stop offset="0%" stop-color="#F8DD61" stop-opacity="1" /><stop offset="100%" stop-color="#EAA330" stop-opacity="1" /></linearGradient><ellipse cx="150.3" cy="300.8" rx="27.8" ry="6.6" id="z2" style="fill:url(#y2)" /><linearGradient x1="45.5694" y1="-134.267" x2="45.0221" y2="-134.267" gradientUnits="userSpaceOnUse" gradientTransform="matrix(101.745, 0, 0, 13.2525, -4458.332, 2077.223)" id="a3"><stop offset="0%" stop-color="#F4CA2F" stop-opacity="1" /><stop offset="51.38%" stop-color="#BF7737" stop-opacity="1" /><stop offset="100%" stop-color="#E4A929" stop-opacity="1" /></linearGradient><path d="M122.6 301.5 C122.5 301.3 122.4 301 122.4 300.8 C122.4 297.2 134.9 294.2 150.2 294.2 C165.5 294.2 178 297.1 178 300.8 C178 301 177.9 301.3 177.8 301.5 C176.3 298.2 164.5 295.6 150.1 295.6 C135.7 295.6 124.1 298.2 122.6 301.5 z" id="b3" style="fill:url(#a3)" /></g></defs><desc>G4IK2BLBBI2,FxEBBlIUZObl+g37n8HIXtRlYf/tp4lCVtPTLsTgXxNOtAqB7julANryIxEWNw5HcyLUlE4o7k6JfWKQ8H65M1YAHdep2GWcD6ceYk/iioRA818/B5TqJFOvUuIz31w2opPfDw9w68ocAd3k+XwfIYcUZZbmrQqoEMvCc9/NN51dYhaqcD3wkO1Lr23pELLc</desc></svg>