<?xml version="1.0" encoding="utf-8"?><!DOCTYPE svg PUBLIC "-//W3C//DTD SVG 1.1//EN" "http://www.w3.org/Graphics/SVG/1.1/DTD/svg11.dtd"><svg x="0" y="0" width="340px" height="340px" viewBox="0, 0, 340, 340" preserveAspectRatio="xMidYMid" font-size="0" id="a" enable-background="new 0 0 340 340" xmlns="http://www.w3.org/2000/svg" xmlns:xlink="http://www.w3.org/1999/xlink" xmlns:xml="http://www.w3.org/XML/1998/namespace" version="1.1"><g id="b" fill="#000"><g id="c"><g transform="translate(0, 0) translate(0, 224)" id="d"><ellipse cx="168.6" cy="53.1" rx="57.8" ry="12.8" fill-opacity="0.25" id="e" /></g><g id="f"><g transform="translate(84.8, 85.19998) translate(32, 179.5) scale(-1, 1) translate(-32, -179.5) translate(0, 153)" id="g"><g transform="translate(0, 17)" id="h"><path d="M30.7 15 C52.5 16.6 52.4 22.4 52 26.3 C51.6 30.2 36 32.3 37.8 33.7 C39.6 35.1 58.8 32.5 62.5 26.3 C66.2 20.1 62.3 11.8 50.5 7.5 C38.7 3.2 23 -1.1 10.1 2 C3.4 3.6 -3.8 8.7 3.9 12.4 C7.9 14.4 19 14.1 30.7 15 z" id="i" fill="#66493D" /><path d="M30.7 15 C52.5 16.6 52.4 22.4 52 26.3 C51.9 27.1 51.2 27.8 50.2 28.4 C50.3 28.4 50.4 28.5 50.4 28.5 C54.6 25.4 56.1 22.6 55.1 20.2 C53.6 16.6 48.8 12.3 41.2 10.5 C36.1 9.3 28.7 7.9 19.6 6 L12.4 6.8 L12.4 12.3 C12.4 12.6 13.5 13.3 15 14.1 C19.6 14.4 25.1 14.5 30.7 15 z" id="j" fill="#EFE9E6" /><path d="M30.7 15 C19 14.1 7.9 14.4 3.9 12.4 C-3.8 8.7 3.4 3.6 10.1 2 C23 -1.1 38.7 3.2 50.5 7.5 C62.3 11.8 66.2 20.1 62.5 26.3 C58.8 32.5 39.6 35.1 37.8 33.7 C36 32.3 51.6 30.2 52 26.3 C52.4 22.4 52.5 16.6 30.7 15 z M33.4 13.3 C53.2 14.8 53.4 21.9 53 25.5 C52.8 27 51.1 28.7 48.2 29.9 C44.3 31.5 39.1 32.3 40.1 33.1 C41.7 34.3 59 30.6 62 25.2 C65 19.8 60.9 12.4 50.9 8.8 C40.9 5.2 24 0.1 14.4 2.2 C8.2 3.6 1.8 8.3 8.7 11.7 C12.4 13.5 22.8 12.4 33.4 13.3 z" opacity="0.15" id="k" /></g></g><g transform="translate(123.1, 273.2) scale(1) translate(-123.1, -273.2) translate(96.90001, 90.79996) translate(15, 110)" id="l"><g transform="translate(23, 36) scale(-1, 1) translate(-23, -36)" id="m"><path d="M-1.4 45.3 C0.8 26.6 11.7 11.6 13.3 7.8 C15 3.9 23 -0.6 26.9 14.5 C28.4 20.4 31 23.9 32.4 29.9 C34.6 39.4 35.2 51.3 34.9 59.2 C34.7 63.6 28.7 73.3 26.1 73.3 C18.5 73.3 9.7 75.5 7.2 72.1 C3.3 66.9 -3.6 63.9 -1.4 45.3 z" id="n" fill="#AA6F4F" /><path d="M36.4 60.6 C38 61.6 43.4 64.4 43.7 68.7 C44 73 44 74.4 41 75 C38 75.6 35.1 75.9 32.7 75.5 C30.5 75.1 28.5 73.5 26.9 73.5 C23.7 73.5 24.9 73.5 23.3 73.5 C22.8 68.5 25.7 65.4 26.9 64.1 C28.1 62.8 34.8 59.6 36.4 60.6 z" id="o" fill="#E8E5E3" /><path d="M34.7 60.5 C35.4 60.4 36 60.4 36.4 60.6 C38 61.6 43.4 64.4 43.7 68.7 C44 73 44 74.4 41 75 C38 75.6 35.1 75.9 32.7 75.5 C30.5 75.1 28.5 73.5 26.9 73.5 L23.3 73.5 L23.3 73.4 C16.5 73.8 9.4 75.1 7.2 72.1 C3.3 66.9 -3.6 63.9 -1.4 45.3 C0.8 26.6 11.7 11.6 13.3 7.8 C15 3.9 23 -0.6 26.9 14.5 C28.4 20.4 31 23.9 32.4 29.9 C34.6 39.4 35.2 51.3 34.9 59.2 C34.9 59.6 34.8 60 34.7 60.5 z M32.6 61.3 C33 57.3 33.2 55.1 33.2 54.9 C33.5 47.5 33.8 39.4 31.7 30.5 C30.4 24.9 27.9 21.6 26.5 16.1 C22.9 1.9 15.4 6.1 13.8 9.8 C12.3 13.3 2 27.4 0 45 C-2.1 62.4 4.5 64 8.2 68.9 C10.3 71.7 16.8 71.7 23.2 71.5 L26.6 71.5 C28.1 71.5 30 73 32 73.4 C34.3 73.8 37 73.5 39.8 72.9 C42.6 72.3 42 72 41.7 68 C41.4 64 36.5 62.3 35 61.4 C34.6 61.1 33.3 61.2 32.6 61.3 z" opacity="0.15" id="p" /></g></g><g transform="translate(215.4, 273.3) scale(1) translate(-215.4, -273.3) translate(96.90001, 90.69997) translate(102.5, 145) scale(-1, 1) translate(-102.5, -145) translate(79, 108)" id="q"><g transform="translate(23.5, 37) scale(-1, 1) translate(-23.5, -37)" id="r"><path d="M2.6 48.8 C4.8 29.9 16.7 12.7 18.3 8.8 C20 4.9 28 0.3 31.9 15.7 C33.4 21.7 36 25.2 37.4 31.4 C39.6 41 40.2 53.1 39.9 61.1 C39.7 65.6 33.7 75.4 31.1 75.4 C23.5 75.4 14.7 77.6 12.2 74.2 C8.3 68.8 0.4 67.7 2.6 48.8 z" id="s" fill="#AA6F4F" /><path d="M41.4 62.6 C43 63.6 48.4 66.4 48.7 70.7 C49 75 48.7 77.3 45.1 77.5 C41.5 77.7 39.9 78.1 37.6 77.8 C35.4 77.4 33.7 75.5 32.1 75.5 C28.9 75.5 30.1 75.5 28.5 75.5 C28 70.5 30.9 68.1 32.6 65.9 C33 64.9 39.8 61.6 41.4 62.6 z" id="t" fill="#E8E5E3" /><path d="M41.4 62.6 C43 63.6 48.4 66.4 48.7 70.7 C49 75 48.7 77.3 45.1 77.5 C41.5 77.7 39.9 78.1 37.6 77.8 C35.4 77.4 33.7 75.5 32.1 75.5 L28.5 75.5 C21.6 75.8 14.4 77.2 12.2 74.2 C8.3 68.8 0.4 67.7 2.6 48.8 C4.8 29.9 16.7 12.7 18.3 8.8 C20 4.9 28 0.3 31.9 15.7 C33.4 21.7 36 25.2 37.4 31.4 C39.6 41 40.2 53.1 39.9 61.1 C39.9 61.5 39.8 62 39.7 62.5 C40.4 62.4 41 62.4 41.4 62.6 z M37.2 62.8 C37.6 60.8 38 58.6 38.4 56.2 C39 52.5 38.8 40 36.7 31 C35.4 25.2 32.9 21.9 31.5 16.2 C27.9 1.8 20.3 6.1 18.7 9.8 C17.2 13.4 6 29.6 4 47.4 C2 65.2 9.4 66.2 13 71.3 C15.1 74.1 21.8 72.8 28.3 72.5 L31.7 72.5 C33.2 72.5 34.8 74.3 36.9 74.7 C39.1 75 40.6 74.6 44 74.4 C47.4 74.2 46.9 73.4 46.6 69.4 C46.3 65.4 42.3 64.6 40.8 63.7 C40.4 63.4 37.9 62.7 37.2 62.8 z" opacity="0.15" id="u" /></g></g><g transform="translate(96.90001, 90.79997) translate(24, 65)" id="v"><g transform="translate(4, 0)" id="w"><path d="M71 19.7 C73.2 28.5 78.4 30.1 83 37.6 C89.4 45.5 87.3 61.5 83.3 73 C82 76.7 78.7 86.3 76.6 97.4 C74.6 108.4 76.2 117.3 72.2 120.7 C70.8 122.2 64.9 123.5 55.5 123.5 C52.1 123.5 51 122.5 44.7 122.5 C38.4 122.5 36.3 123.6 33.3 123.5 C24.6 123.1 21 123.2 18.1 120.7 C13.8 116.2 15.5 106.2 12.9 95.6 C10.6 86.1 6.5 78.3 5.5 74 C3.5 64.9 0.2 50.2 6.3 39.2 C9.2 32.9 15.3 26.1 16.9 17.6 C18.6 8.1 34.9 5 43.7 4.4 C55 3.6 68.6 10.1 71 19.7 z" id="x" fill="#EBB67F" /><path d="M84.2 39.3 C71.9 51.2 58.6 57.1 44.5 57.1 C30.5 57.1 17.9 51 6.6 38.7 C9.6 32.5 15.4 25.9 17 17.6 C18.6 8.1 34.9 5 43.7 4.4 C55 3.6 68.6 10.1 71 19.7 C73.2 28.5 78.4 30.1 83 37.6 C83.4 38.1 83.8 38.7 84.2 39.3 z" id="y" fill="#E8E5E3" /><path d="M71 19.7 C73.2 28.5 78.4 30.1 83 37.6 C89.4 45.5 87.3 61.5 83.3 73 C82 76.7 78.7 86.3 76.6 97.4 C74.6 108.4 76.2 117.3 72.2 120.7 C70.8 122.2 64.9 123.5 55.5 123.5 C52.1 123.5 51 122.5 44.7 122.5 C38.4 122.5 36.3 123.6 33.3 123.5 C24.6 123.1 21 123.2 18.1 120.7 C13.8 116.2 15.5 106.2 12.9 95.6 C10.6 86.1 6.5 78.3 5.5 74 C3.5 64.9 0.2 50.2 6.3 39.2 C9.2 32.9 15.3 26.1 16.9 17.6 C18.6 8.1 34.9 5 43.7 4.4 C55 3.6 68.6 10.1 71 19.7 z M69.6 20.3 C67.4 11 54.5 4.8 43.8 5.5 C35.4 6.1 20 9.1 18.4 18.3 C16.9 26.5 11.1 33 8.4 39.1 C2.6 49.7 5.7 63.8 7.6 72.6 C8.5 76.7 12.4 84.3 14.6 93.4 C17.1 103.6 15.5 113.3 19.5 117.6 C22.2 120 25.7 119.9 33.9 120.3 C36.7 120.4 38.7 119.3 44.7 119.3 C50.7 119.3 51.7 120.3 54.9 120.3 C63.8 120.3 69.4 119 70.7 117.6 C74.5 114.3 73 105.7 74.9 95.1 C76.9 84.4 80 75.1 81.2 71.6 C85 60.5 87 45.1 80.9 37.5 C76.6 30.3 71.7 28.8 69.6 20.3 z" opacity="0.15" id="z" /></g></g><g transform="translate(121.151, 178.85) scale(1.46, 1.291872) translate(-136.4, -185.5) translate(110.1, 102.2) translate(59.5, 123.5) scale(-1, 1) translate(-59.5, -123.5) translate(26, 83)" id="a1"><path d="M59.8 75 C59.6 72.5 57.7 69.2 56.7 67.2 L42 70.6 C39.4 72.9 39.2 76.8 40.3 78.2 C40.9 78.8 44.7 81.5 51.2 80.8 C58.5 80.1 60 77.9 59.8 75 z" id="b1" fill="#E2DFD9" /><path d="M7.2 75 C7.4 72.5 9.3 69.2 10.3 67.2 L25 70.6 C27.6 72.9 27.8 76.8 26.7 78.2 C26.1 78.8 22.3 81.5 15.8 80.8 C8.5 80.1 7 77.9 7.2 75 z" id="c1" fill="#E2DFD9" /><path d="M10.6 11.9 C13.2 8.3 20.8 0.3 33.5 0.3 C46.2 0.3 53.8 8.3 56.4 11.9 C56.5 12.9 56.5 13.8 56.4 14.8 C56.4 14.3 55.7 14.2 55.4 14.5 C55.1 14.8 55.1 15.3 55 15.8 C54.9 17.7 53.8 19.6 52.2 20.6 C52.1 19.6 52.1 18.7 52 17.7 C51.8 19.6 50.4 21.3 48.7 21.8 C48.7 21.2 48.8 20.6 48.8 20 C46.5 21.2 44.8 23.3 43.9 25.7 C42.9 24.5 42.5 22.7 42.9 21.2 C41.1 23.5 38.5 25.3 35.7 26.2 C35.5 25.6 35.3 25 35 24.3 C34.8 25.4 34.5 26.5 34.2 27.6 C33.2 26.6 32.5 25.4 31.9 24.1 C31.7 24.8 31.4 25.5 31.2 26.2 C28.4 25.3 25.9 23.5 24 21.2 C24.4 22.7 24 24.5 23 25.7 C22.2 23.3 20.4 21.2 18.1 20 C18.1 20.6 18.2 21.2 18.2 21.8 C16.4 21.2 15.1 19.5 14.9 17.7 C14.8 18.7 14.8 19.6 14.7 20.6 C13.1 19.5 12 17.7 11.9 15.8 C11.9 15.3 11.9 14.8 11.5 14.5 C11.2 14.2 10.4 14.3 10.5 14.8 C10.5 13.8 10.5 12.8 10.6 11.9 z" id="d1" fill="#F9F9F9" /><path d="M0.4 47 C1.7 47 3.2 45.4 3.6 41.9 C3.6 41.8 3.6 41.7 3.7 41.7 C3.1 42.2 2.5 42.6 1.9 43.1 C2.8 39.4 3.7 35.6 4.6 31.9 C5.2 28.5 6.1 25 7.5 21.4 C7.6 21.2 7.9 21.2 8.2 21.6 C8.2 22.4 8.3 23.2 8.3 24.2 C9.3 23.3 10.3 23.4 11.2 22.5 C11.2 23.5 11.1 24.5 11.1 25.5 C12.3 25 13.3 24.2 13.9 23.1 C14 23.1 14 23.1 14.1 23.1 C14.3 26.2 17.3 28.8 20.4 28.6 C20.2 27.3 19.8 26.1 19.7 25.7 C21.2 27.3 22.5 29.9 23.9 31.5 C24.3 30.6 24.3 29.3 24.7 28.4 C25.3 29.2 27.4 29.8 28 30.7 C28.3 30.3 27.7 28 27.9 27.5 C28.2 28.2 28.5 28.8 29 29.3 C29.4 29.7 30 29.9 30.5 30 C31.7 30.8 32 30.2 33.5 31.2 C34.1 31.6 35.3 32.3 35.3 33.1 C35.8 32.3 36 31.2 35.9 30.1 C36.7 30.1 37.5 30 38.1 29.4 C38.6 28.9 38.9 28.3 39.2 27.6 C39.4 28.1 38.8 30.3 39.1 30.8 C39.7 30 41.8 29.4 42.4 28.5 C42.8 29.4 42.8 30.7 43.2 31.6 C44.7 30 46 27.5 47.4 25.8 C47.2 26.2 46.9 27.4 46.7 28.7 C49.8 28.9 52.8 26.3 53 23.2 C53.1 23.2 53.1 23.2 53.2 23.2 C53.8 24.3 54.8 25.1 56 25.6 C56 24.6 55.9 23.6 55.9 22.6 C56.9 23.5 57.9 23.4 58.8 24.3 C58.8 23.3 58.9 22.5 58.9 21.7 C59 21.3 59.3 21.2 59.6 21.5 C61 25.1 61.9 28.6 62.5 32 C63.4 35.7 64.3 39.5 65.2 43.2 C64.6 42.7 64 42.3 63.4 41.8 C63.4 41.9 63.5 41.9 63.5 42 C64 45.5 65.4 47.1 66.7 47.1 C66.5 48.3 64.3 50.2 63 49.9 C64.6 53.8 63.8 58.6 61.2 61.8 C61.8 63.1 61.3 64.8 60 65.5 C60.1 66.5 60.3 67.6 60.4 68.6 C60.1 68.4 59.9 68.2 59.6 68 C59.6 68.5 59.5 69.1 59.6 69.5 C59.8 69.7 60 69.9 60.1 70.1 C60.3 70.5 60.5 71 60.7 71.4 C60.3 71.1 60 70.8 59.6 70.5 L59.5 70.6 C59.3 70.9 59.1 71.2 58.9 71.5 C58.9 71.4 58.8 71.4 58.8 71.3 C58.4 71.9 58.1 72.6 58 73.4 C57.4 73.1 56.9 72.9 56.3 72.6 C55.9 73.8 55.4 74.9 55 76.1 C54.4 75.2 53.9 74.4 53.3 73.5 C53.1 73.6 52.9 73.6 52.7 73.7 C52.4 74.7 52 75.7 51.7 76.7 C51.4 75.7 51.1 74.6 50.1 74.2 C50 74.2 50 74.2 49.9 74.1 C49.5 74.1 49.1 74.1 48.7 74.1 C48.5 74.1 48.3 74.2 48.1 74.2 C47.8 74.3 47.5 74.3 47.2 74.4 C46.6 74.8 46 75.2 45.4 75.6 C45.2 75.7 45 75.8 44.8 75.8 C44.6 75.7 44.5 75.4 44.6 75.2 C44.7 75 44.8 74.9 45 74.8 C44.9 74.8 44.8 74.8 44.8 74.8 C44.2 74.8 43.6 74.7 43.2 74.4 C42.8 74.1 42.6 73.5 42.8 73.1 C42.7 73.1 41.6 73.4 41.5 73.3 C41.6 73.1 41.9 72 42.1 70.8 C41.9 71.1 41.8 71.4 41.6 71.7 C41.5 70 41.2 68.3 42 67.3 C42.2 67 42.3 66.8 42.4 66.5 C42.3 65.5 42.2 64.5 42.2 63.7 C41.7 62.5 41.1 61.3 41.2 60.3 C41.3 58.8 41.7 57.3 42.1 55.8 C41.3 56.5 40.5 57.2 39.8 57.9 C40.7 56 41.6 54.1 42.6 52.2 C42.3 51.1 41.9 50.1 41.6 49 C40.6 49.7 39.7 50.6 39.2 51.7 C38.8 49.4 38.3 46.5 39.5 44.6 C37.8 47 35.1 48 33.6 52.6 C32.1 48.1 29.4 47 27.7 44.6 C28.9 46.5 28.5 49.4 28 51.7 C27.5 50.6 26.6 49.7 25.6 49 C25.3 50.1 24.9 51.1 24.6 52.2 C25.5 54.1 26.4 56 27.4 57.9 C26.6 57.2 25.8 56.5 25.1 55.8 C25.5 57.3 25.8 58.8 26 60.3 C26.1 61.4 25.5 62.6 25 63.7 C25 64.5 24.9 65.5 24.8 66.5 C24.9 66.8 25 67.1 25.2 67.3 C26 68.4 25.7 70 25.6 71.7 C25.4 71.4 25.3 71.1 25.1 70.8 C25.4 72 25.6 73.1 25.7 73.3 C25.6 73.3 24.5 73.1 24.4 73.1 C24.6 73.5 24.4 74.1 24 74.4 C23.5 74.7 22.9 74.8 22.4 74.8 C22.3 74.8 22.2 74.8 22.2 74.8 C22.4 74.9 22.5 75 22.6 75.2 C22.7 75.4 22.7 75.8 22.4 75.8 C22.2 75.9 22 75.8 21.8 75.6 C21.2 75.2 20.6 74.8 20 74.4 C19.7 74.3 19.4 74.3 19.1 74.2 C18.9 74.2 18.7 74.1 18.5 74.1 C18.1 74.1 17.7 74.1 17.3 74.1 C17.2 74.1 17.2 74.1 17.1 74.2 C16.2 74.6 15.8 75.7 15.5 76.7 C15.2 75.7 14.8 74.7 14.5 73.7 C14.3 73.6 14.1 73.6 13.9 73.5 C13.3 74.4 12.8 75.2 12.2 76.1 C11.8 74.9 11.3 73.8 10.9 72.6 C10.3 72.9 9.8 73.1 9.2 73.4 C9.1 72.7 8.8 71.9 8.4 71.3 C8.4 71.4 8.3 71.4 8.3 71.5 C8.1 71.2 7.9 70.9 7.7 70.6 L7.6 70.5 C7.2 70.8 6.9 71.1 6.5 71.4 C6.7 71 6.9 70.5 7.1 70.1 C7.3 69.9 7.5 69.7 7.6 69.5 C7.6 69 7.6 68.5 7.6 68 C7.3 68.2 7.1 68.4 6.8 68.6 C6.9 67.6 7.1 66.5 7.2 65.5 C6 64.8 5.4 63.1 6 61.8 C3.3 58.5 2.6 53.8 4.2 49.9 C2.8 50.1 0.6 48.2 0.4 47 z" id="e1" fill="#66493D" /><path d="M27.8 44.8 C27.8 44.8 27.8 44.8 27.8 44.8 C28.8 46.8 28.4 49.5 28 51.7 C27.5 50.6 26.6 49.7 25.6 49 C25.3 50.1 24.9 51.1 24.6 52.2 C25.5 54.1 26.4 56 27.4 57.9 C26.6 57.2 25.8 56.5 25.1 55.8 C25.5 57.3 25.8 58.8 26 60.3 C26.1 61.4 25.5 62.6 25 63.7 C25 64.5 24.9 65.5 24.8 66.5 C24.9 66.8 25 67.1 25.2 67.3 C25.9 68.3 25.7 69.7 25.6 71.2 C27.6 73.5 27.7 76.9 26.7 78.2 C26.1 78.8 22.3 81.5 15.8 80.8 C8.5 80.1 7 77.9 7.2 75 C7.3 73.9 7.7 72.6 8.2 71.4 L7.7 70.6 C7.2 70.8 6.9 71.1 6.5 71.4 C6.7 71 6.9 70.5 7.1 70.1 C7.3 69.9 7.5 69.7 7.6 69.5 L7.6 68 C7.3 68.2 7.1 68.4 6.8 68.6 C6.9 67.6 7.1 66.5 7.2 65.5 C6 64.8 5.4 63.1 6 61.8 C3.3 58.5 2.6 53.8 4.2 49.9 C2.8 50.1 0.6 48.2 0.4 47 C1.7 47 3.2 45.4 3.6 41.9 C3.6 41.8 3.6 41.7 3.7 41.7 C3.1 42.2 2.5 42.6 1.9 43.1 C2.8 39.4 3.7 35.6 4.6 31.9 C5.2 28.5 6.1 25 7.5 21.4 C7.6 21.2 7.9 21.2 8.2 21.6 C8.2 22.4 8.3 23.2 8.3 24.2 C9.3 23.3 10.3 23.4 11.2 22.5 C11.2 23.5 11.1 24.5 11.1 25.5 C12.3 25 13.3 24.2 13.9 23.1 L14.1 23.1 C14.3 26.2 17.3 28.8 20.4 28.6 C20.2 27.3 19.8 26.1 19.7 25.7 C21.2 27.3 22.5 29.9 23.9 31.5 C24.3 30.6 24.3 29.3 24.7 28.4 C25.3 29.2 27.4 29.8 28 30.7 C28.3 30.3 27.7 28 27.9 27.5 C28.2 28.2 28.5 28.8 29 29.3 C29.4 29.7 30 29.9 30.5 30 C31.7 30.8 32 30.2 33.5 31.2 C34.1 31.6 35.3 32.3 35.3 33.1 C35.8 32.3 36 31.2 35.9 30.1 C36.7 30.1 37.5 30 38.1 29.4 C38.6 28.9 38.9 28.3 39.2 27.6 C39.4 28.1 38.8 30.3 39.1 30.8 C39.7 30 41.8 29.4 42.4 28.5 C42.8 29.4 42.8 30.7 43.2 31.6 C44.7 30 46 27.5 47.4 25.8 C47.2 26.2 46.9 27.4 46.7 28.7 C49.8 28.9 52.8 26.3 53 23.2 L53.2 23.2 C53.8 24.3 54.8 25.1 56 25.6 C56 24.6 55.9 23.6 55.9 22.6 C56.9 23.5 57.9 23.4 58.8 24.3 C58.8 23.3 58.9 22.5 58.9 21.7 C59 21.3 59.3 21.2 59.6 21.5 C61 25.1 61.9 28.6 62.5 32 C63.4 35.7 64.3 39.5 65.2 43.2 C64.6 42.7 64 42.3 63.4 41.8 C63.4 41.9 63.5 41.9 63.5 42 C64 45.5 65.4 47.1 66.7 47.1 C66.5 48.3 64.3 50.2 63 49.9 C64.6 53.8 63.8 58.6 61.2 61.8 C61.8 63.1 61.3 64.8 60 65.5 C60.1 66.5 60.3 67.6 60.4 68.6 C60.1 68.4 59.9 68.2 59.6 68 C59.6 68.5 59.5 69.1 59.6 69.5 C59.8 69.7 60 69.9 60.1 70.1 C60.3 70.5 60.5 71 60.7 71.4 C60.3 71.1 60 70.8 59.6 70.5 L58.9 71.5 C58.9 71.4 58.8 71.4 58.8 71.3 C59.3 72.6 59.7 73.9 59.8 75 C60 77.9 58.5 80.1 51.2 80.8 C44.7 81.5 40.9 78.8 40.3 78.2 C39.3 76.9 39.4 73.4 41.6 71 C41.5 69.5 41.4 68.1 42 67.3 C42.2 67 42.3 66.8 42.4 66.5 C42.3 65.5 42.2 64.5 42.2 63.7 C41.7 62.5 41.1 61.3 41.2 60.3 C41.3 58.8 41.7 57.3 42.1 55.8 C41.3 56.5 40.5 57.2 39.8 57.9 C40.7 56 41.6 54.1 42.6 52.2 C42.3 51.1 41.9 50.1 41.6 49 C40.6 49.7 39.7 50.6 39.2 51.7 C38.8 49.4 38.3 46.5 39.5 44.6 C37.8 47 35.1 48 33.6 52.6 C32.1 48.2 29.5 47.1 27.8 44.8 z M27.8 44.8 C27.7 43.9 27.5 43 27.1 42.3 C28.7 44.6 32.1 44.8 33.5 49.1 C34.9 44.8 39.5 45.3 41.1 43 C40 44.8 39.5 47.3 39.9 49.5 C40.4 48.5 41.7 47.9 42.6 47.2 C42.9 48.2 43.6 51.3 43.9 52.3 C43 54.1 42.7 53 41.8 54.8 C42.5 54.1 43.3 54.7 43.2 56.1 C43.1 57 42.1 60.2 42.5 61.3 C42.5 62.1 43.1 63 43.2 63.9 C43.1 64.2 44 66.4 43.8 66.7 C43.1 67.5 42.4 70 42.5 71.4 C40.5 73.6 40 74.7 41 76 C41.3 76.3 41.5 77.6 42.9 78.2 C43.9 78.6 45.7 78.3 47.4 78.5 C48.3 78.6 49.8 79.1 50.9 79 C51.9 78.9 52.1 77.2 53 77.5 C53.9 77.8 54.5 78.6 55.1 78.5 C56 78.4 56.4 76.8 56.9 76.4 C58.2 75.4 58.2 73.4 58.1 72 C58 71 57.6 69.8 57.2 68.5 C57.2 68.6 57.3 68.6 57.3 68.7 L58 67.8 C58.4 68.1 58.7 68.4 59 68.6 C58.8 68.2 58.6 67.8 58.4 67.4 C58.3 67.2 58.1 67 57.9 66.8 C57.8 66.4 57.9 65.9 57.9 65.4 C58.2 65.6 58.4 65.8 58.7 66 C58.6 65.1 58.4 64 58.3 63.1 C59.5 62.4 60 60.8 59.4 59.6 C61.8 56.6 62.6 52.1 61.1 48.4 C62.3 48.7 64.8 48.4 64.9 47.2 C64.2 47.2 63.6 46.9 62.9 44.8 C62.4 43.4 60.9 38.2 61.4 39.1 C62 39.6 62.3 39.8 62.9 40.3 C62.1 36.8 61.9 34.7 61.1 31.2 C60.5 28 60.7 27.1 59.4 23.7 C59.1 23.4 58.7 25.1 58.6 25.5 C58.6 26.3 57.1 23.4 57.1 24.4 C56.3 23.6 57.2 27.7 56.3 26.9 C56.3 27.8 54.1 26.2 53.5 25.1 C52.2 27.4 51.1 28.7 50.4 29.1 C48.7 29.9 47.5 30.5 46.4 30.4 C46.6 29.2 45.9 28.6 46.1 28.2 C44.8 29.8 44.6 31.1 43.2 32.6 C42.8 31.8 42.5 30.6 42.1 29.8 C41.5 30.6 39.1 31.5 38.5 32.2 C38.2 31.7 38.7 29.6 38.5 29.1 C38.2 29.8 38.2 30.3 37.7 30.8 C37.1 31.4 37.1 31.1 36.4 31.1 C36.5 32.1 35.7 33.8 35.2 34.5 C35.2 33.7 33.5 32.3 32.9 31.9 C31.5 31 31.6 31.9 30.5 31.1 C30 31 28.8 29.7 28.6 30.1 C28.4 29.8 28.9 31.4 28.3 31.5 C27.4 31.6 25.3 30.3 24.9 29.8 C24.5 30.6 24.2 31.4 23.8 32.2 C22.5 30.7 22.1 29.3 20.7 27.8 C20.8 28.2 21.1 29.6 20.6 29.9 C17.7 30.1 14.2 27.6 13.8 24.6 C13.2 25.6 12 26.3 10.9 26.7 C10.9 25.8 10.5 24.5 10.5 23.6 C9.7 24.5 10 24.5 9 25.4 C8.4 25 7.6 24.8 7.6 24 C7.3 23.6 7.1 23.4 7 23.6 C5.7 27 6 28.2 5.4 31.4 C4.6 34.9 4 37.7 3.1 41.2 C3.7 40.7 4.6 40.2 4.6 40.3 C4.2 43.6 3 47.2 1.8 47.2 C2 48.3 3.7 48.6 5 48.4 C3.5 52.1 5 56.5 7.5 59.6 C6.9 60.8 7.5 62.4 8.6 63.1 C8.6 64 8.5 65 8.4 66 C8.7 65.8 8.9 65.6 9.2 65.4 L9.2 66.8 C9 67 8.8 67.2 8.6 67.4 C8.4 67.8 8.2 68.2 8 68.6 C8.4 68.3 8.7 68 9.1 67.8 L9.6 68.6 C9.1 69.8 8.7 70.9 8.6 72 C8.5 72.8 8.2 74.5 9 74.5 C9.8 74.5 9.2 77.2 10.8 77.9 C11.2 78.1 12.7 77.3 13.2 77.4 C13.8 77.6 14.1 78.8 15 78.9 C15.5 79 17.4 77.3 17.9 77.4 C19.6 77.6 21.1 78.6 22.5 78.4 C23.9 78.2 24 76.7 25.2 76.7 C27.5 76.7 25.9 75.4 26.2 75.2 C26.8 72.7 25.7 72.6 23.8 70.4 C23.9 69 24.5 67.7 23.8 66.7 C23.6 66.5 23.9 64.4 23.8 64.1 C23.9 63.2 24.5 62 24.5 61.2 C25 60.2 24.6 58.7 24.5 57.7 C24.3 56.3 23.6 55.2 23.2 53.8 C23.9 54.5 24.9 54 25.7 54.7 C24.8 52.9 24.7 52.6 23.8 50.8 C24.1 49.8 24.9 47.7 25.2 46.7 C26.1 47.4 27 47.9 27.4 49 C27.7 47.8 27.9 46.2 27.8 44.8 C27.8 44.8 27.7 44.7 27.7 44.6 C27.7 44.7 27.8 44.7 27.8 44.8 z" opacity="0.15" id="f1" /><path d="M10.6 11.9 C13.2 8.3 20.8 0.3 33.5 0.3 C46.2 0.3 53.8 8.3 56.4 11.9 C56.5 12.9 56.5 13.8 56.4 14.8 C56.4 14.3 55.7 14.2 55.4 14.5 C55.1 14.8 55.1 15.3 55 15.8 C54.9 17.7 53.8 19.6 52.2 20.6 C52.1 19.6 52.1 18.7 52 17.7 C51.8 19.6 50.4 21.3 48.7 21.8 C48.7 21.2 48.8 20.6 48.8 20 C46.5 21.2 44.8 23.3 43.9 25.7 C42.9 24.5 42.5 22.7 42.9 21.2 C41.1 23.5 38.5 25.3 35.7 26.2 C35.5 25.6 35.3 25 35 24.3 C34.8 25.4 34.5 26.5 34.2 27.6 C33.2 26.6 32.5 25.4 31.9 24.1 C31.7 24.8 31.4 25.5 31.2 26.2 C28.4 25.3 25.9 23.5 24 21.2 C24.4 22.7 24 24.5 23 25.7 C22.2 23.3 20.4 21.2 18.1 20 C18.1 20.6 18.2 21.2 18.2 21.8 C16.4 21.2 15.1 19.5 14.9 17.7 C14.8 18.7 14.8 19.6 14.7 20.6 C13.1 19.5 12 17.7 11.9 15.8 C11.9 15.3 11.9 14.8 11.5 14.5 C11.2 14.2 10.4 14.3 10.5 14.8 C10.5 13.8 10.5 12.8 10.6 11.9 z M11.9 11.3 C11.8 12.1 11.8 13.1 11.8 14 C11.7 13.5 12.5 13.4 12.7 13.7 C13.1 14 13.1 14.5 13.1 14.9 C13.2 16.7 12.2 17.2 13.7 18.2 C13.8 17.3 14.9 16.3 15 15.4 C15.2 17.1 15.7 20 17.4 20.6 C17.4 20 17.9 18.8 17.9 18.3 C20.1 19.4 22.4 21.7 23.2 24 C24.1 22.9 23.6 20.9 23.2 19.5 C25 21.7 28.7 23.9 31.3 24.8 C31.5 24.1 31.8 23.5 32 22.8 C32.6 24 33.2 25.2 34.2 26.1 C34.5 25.1 34.8 24 35 23 C35.3 23.7 35.5 24.2 35.7 24.8 C38.3 24 42.5 21.7 44.2 19.5 C43.8 20.9 43.3 22.8 44.2 24 C45 21.7 46.6 19.1 48.8 17.9 C48.8 18.5 49.6 20.1 49.6 20.6 C51.2 20.1 52.3 16.7 52.5 14.9 C52.6 15.8 53.1 17.8 53.2 18.8 C54.7 17.9 54.3 16.7 54.4 14.9 C54.5 14.4 54.1 14 54.4 13.7 C54.7 13.4 55.8 12.7 55.8 13.2 C55.9 12.3 55.4 12.2 55.3 11.3 C52.6 7.9 45.5 0.4 33.5 0.4 C21.5 0.4 14.4 7.9 11.9 11.3 z" opacity="0.15" id="g1" /></g></g><g transform="translate(170, 196.9) scale(0.8871795) translate(-170, -196.9)" id="h1"><g transform="translate(102.9, 102.2) translate(25, 0)" id="i1"><path d="M83.3 38.3 C82.7 12.3 65.3 8.5 60.7 6 C55.5 3.1 48.3 0.1 42.1 0.1 C35.9 0.1 28.7 3.2 23.5 6 C18.9 8.6 1.6 12.3 0.9 38.3 C0.3 62.7 17 66.8 17.2 78.3 C17.5 96.2 28 97 42 97 C56 97 66.5 96.1 66.8 78.3 C67.1 66.8 83.9 62.6 83.3 38.3 z" id="j1" fill="#EBB67F" /><path d="M83.3 38.3 C83.9 62.6 67.1 66.8 66.8 78.3 C66.5 96.1 56 97 42 97 C28 97 17.5 96.2 17.2 78.3 C17 66.8 0.3 62.7 0.9 38.3 C1.6 12.3 18.9 8.6 23.5 6 C28.7 3.2 35.9 0.1 42.1 0.1 C48.3 0.1 55.5 3.1 60.7 6 C65.3 8.5 82.7 12.3 83.3 38.3 z M80.6 37.2 C80.1 12.6 63.8 9 59.5 6.6 C54.6 3.8 47.9 1 42.1 1 C36.3 1 29.6 3.9 24.7 6.6 C20.4 9.1 4.2 12.6 3.6 37.2 C3 60.4 18.6 64.2 18.8 75.1 C19.1 92.1 28.9 92.8 42 92.8 C55.1 92.8 64.9 92 65.2 75.1 C65.5 64.2 81.2 60.3 80.6 37.2 z" opacity="0.15" id="k1" /></g><g transform="translate(136.8, 124.9) scale(0.8) translate(-136.8, -124.9) translate(100.6, 104.6)" id="l1"><g id="m1"><path d="M43.8 4.7 C43.8 4.7 46 6.8 47.8 8.8 C51.2 12.7 49.4 16.5 45.6 18.1 C43.1 19.2 40.1 20.6 38 22.9 C35.6 25.5 33 28 31.3 30.2 C29.5 32.5 27.2 34.1 25 33.6 C19.8 32.4 15.4 21.2 17.5 17.2 C20.9 10.8 43.8 4.7 43.8 4.7 z" id="n1" fill="#66493D" /><path d="M18.4 16 C18.4 15.8 18.5 15.5 18.6 15.3 C21 10.9 32.4 7.6 38.3 6.3 C41.5 5.3 43.8 4.7 43.8 4.7 C43.8 4.7 46 6.8 47.8 8.8 C51.2 12.7 49.4 16.5 45.6 18.1 C43.1 19.2 40.1 20.6 38 22.9 C35.6 25.5 33 28 31.3 30.2 C29.5 32.5 27.2 34.1 25 33.6 C19.8 32.4 15.4 21.2 17.5 17.2 C17.7 16.8 18 16.4 18.4 16 z M18.4 16 C17.1 20.2 20.7 29.6 25.3 30.7 C27.4 31.2 29.2 30.1 30.9 27.9 C32.5 25.9 35.2 23.7 37.4 21.3 C39.4 19.1 43.2 17.6 45.5 16.6 C49 15.1 49 11.9 45.8 8.3 C44.1 6.4 42.9 5.7 41.8 5.7 C41.6 5.7 40.2 5.9 38.3 6.3 C32 8.4 21.9 12.1 18.4 16 z" opacity="0.2" id="o1" /><path d="M45.2 6 C36.5 -2.4 38.1 3.6 23.1 0.9 C8.1 -1.8 -4.2 15.2 2 35.3 C7.5 53.2 8 60.6 11.3 60.6 C17 60.6 19.2 40 27.1 24.3 C33 12.9 45.2 6 45.2 6 z" id="p1" fill="#AA6F4F" /><path d="M45.2 6 C45.2 6 33 12.9 27.1 24.3 C19.2 40 17 60.6 11.3 60.6 C8 60.6 7.5 53.2 2 35.3 C-4.2 15.2 8.1 -1.8 23.1 0.9 C38.1 3.6 36.5 -2.4 45.2 6 z M43 6 C35 -1.7 36.4 3.8 22.6 1.3 C8.7 -1.2 -1.9 14.5 3.9 33.1 C9 49.7 9.1 55.4 12.1 55.4 C17.4 55.4 17.9 38 25.3 23.5 C30.7 13 43 6 43 6 z" opacity="0.15" id="q1" /></g></g><g transform="translate(203.1, 124.9) scale(0.8) translate(-203.1, -124.9) translate(114.3, 104.6) translate(100, 30.5) scale(-1, 1) translate(-100, -30.5) translate(75, 0)" id="r1"><g id="s1"><path d="M43.8 4.7 C43.8 4.7 46 6.8 47.8 8.8 C51.2 12.7 49.4 16.5 45.6 18.1 C43.1 19.2 40.1 20.6 38 22.9 C35.6 25.5 33 28 31.3 30.2 C29.5 32.5 27.2 34.1 25 33.6 C19.8 32.4 18.1 20.4 20.4 16.7 C23.9 11.1 43.8 4.7 43.8 4.7 z" id="t1" fill="#66493D" /><path d="M24.7 13 C30.9 8.8 43.1 4.9 43.1 4.9 C43.1 4.9 43.1 4.9 43.1 4.9 C43.6 4.8 43.8 4.7 43.8 4.7 C43.8 4.7 46 6.8 47.8 8.8 C51.2 12.7 49.4 16.5 45.6 18.1 C43.1 19.2 40.1 20.6 38 22.9 C35.6 25.5 33 28 31.3 30.2 C29.5 32.5 27.2 34.1 25 33.6 C19.8 32.4 18.1 20.4 20.4 16.7 C21.2 15.5 22.7 14.2 24.7 13 z M24.7 13 C23.2 14 22.1 14.9 21.5 15.9 C19.4 19.3 21 30.4 25.8 31.5 C27.8 31.9 29.9 30.4 31.6 28.3 C33.1 26.3 35.5 24 37.7 21.6 C39.7 19.5 42.4 18.2 44.7 17.2 C48.2 15.7 49.9 12.2 46.7 8.6 C45.3 7 43.5 5.3 43.1 4.9 C40.5 5.8 30.7 9.2 24.7 13 z" opacity="0.2" id="u1" /><path d="M45.2 6 C36.5 -2.4 38.1 3.6 23.1 0.9 C8.1 -1.8 -4.2 15.2 2 35.3 C7.5 53.2 8 60.6 11.3 60.6 C17 60.6 19.2 40 27.1 24.3 C33 12.9 45.2 6 45.2 6 z" id="v1" fill="#AA6F4F" /><path d="M45.2 6 C45.2 6 33 12.9 27.1 24.3 C19.2 40 17 60.6 11.3 60.6 C8 60.6 7.5 53.2 2 35.3 C-4.2 15.2 8.1 -1.8 23.1 0.9 C38.1 3.6 36.5 -2.4 45.2 6 z M43.6 5.8 C37.3 -0.8 36.7 4 22.9 1.5 C9 -1 -1.7 15.6 4 34.3 C9.1 50.9 8.3 56.1 11.4 56.1 C16.6 56.1 15.6 40.4 26.3 23.3 C31.7 12.7 43.6 5.8 43.6 5.8 z" opacity="0.15" id="w1" /></g></g><g id="x1"><g transform="translate(104.7, 108.2) translate(32, 35)" id="y1"><g transform="translate(0, 8)" id="z1"><path d="M64 23.9 C61.8 21.3 58.3 20.9 55.7 19 C52.7 16.8 52.1 14 50.4 10.8 C46.5 3.6 41 0.8 33.5 0.7 C26.9 0.7 21.5 2.7 17.6 9 C16 11.6 15.2 15.2 13.1 17.5 C11 19.8 7.8 20.1 5.4 21.8 C1.5 24.6 -1.2 31.1 0.6 36 C2 39.8 8.4 42.3 12.3 43.7 C24.5 48.1 40.4 48 52.7 44.3 C56.1 43.3 59.5 41.8 62.5 39.8 C65.7 37.6 66.6 36.4 66.6 32.6 C66.5 29.7 66 26.2 64 23.9 z" id="a2" fill="#F9F9F9" /><path d="M64 23.9 C66 26.2 66.5 29.7 66.6 32.6 C66.6 36.4 65.7 37.6 62.5 39.8 C59.5 41.8 56.1 43.3 52.7 44.3 C40.4 48 24.5 48.1 12.3 43.7 C8.4 42.3 2 39.8 0.6 36 C-1.2 31.1 1.5 24.6 5.4 21.8 C7.8 20.1 11 19.8 13.1 17.5 C15.2 15.2 16 11.6 17.6 9 C21.5 2.7 26.9 0.7 33.5 0.7 C41 0.8 46.5 3.6 50.4 10.8 C52.1 14 52.7 16.8 55.7 19 C58.3 20.9 61.8 21.3 64 23.9 z M61.8 23.5 C59.8 21 56.5 20.7 54.1 18.9 C51.3 16.8 50.8 14.2 49.2 11.3 C45.6 4.6 40.5 1.9 33.5 1.9 C27.4 1.9 22.3 3.7 18.7 9.6 C17.2 12 16.5 15.4 14.5 17.5 C12.6 19.6 9.6 19.9 7.4 21.5 C3.7 24.1 1.2 30.2 2.9 34.7 C4.2 38.3 10.2 40.6 13.8 41.9 C25.1 46 39.9 45.9 51.3 42.4 C54.5 41.5 57.7 40.1 60.4 38.3 C63.4 36.2 64.3 35.1 64.3 31.6 C64.2 28.9 63.7 25.6 61.8 23.5 z" opacity="0.15" id="b2" /><g transform="translate(19, 14)" id="c2" fill="#282421"><path d="M7 2.2 C6.3 1.8 5.3 2.4 5.2 3.3 C5.2 4.1 6.8 4.9 7.6 4.5 C8.3 4.1 7.8 2.9 7.2 2.4" id="d2" /><path d="M2.1 0.7 C1.4 0.3 0.4 0.9 0.3 1.8 C0.3 2.6 1.3 3.7 2.1 3.3 C2.9 2.9 2.9 1.3 2.3 0.8" id="e2" /><path d="M2.1 7.4 C1.4 7 0.4 7.6 0.3 8.5 C0.3 9.3 1.4 10.2 2.1 9.9 C2.8 9.5 2.9 8.1 2.2 7.6" id="f2" /><path d="M22 2.2 C22.7 1.8 23.7 2.4 23.8 3.3 C23.8 4.1 22.2 4.9 21.4 4.5 C20.7 4.1 21.2 2.9 21.8 2.4" id="g2" /><path d="M26.9 0.7 C27.6 0.3 28.6 0.9 28.7 1.8 C28.7 2.6 27.7 3.7 26.9 3.3 C26.2 2.9 26.1 1.3 26.7 0.8" id="h2" /><path d="M26.9 7.4 C27.6 7 28.6 7.6 28.7 8.5 C28.7 9.3 27.6 10.2 26.9 9.9 C26.2 9.5 26.1 8.1 26.8 7.6" id="i2" /></g></g></g><g transform="translate(170.2, 181.9999) scale(1.3) translate(-170.2, -181.9999) translate(103.2, 96.19994) translate(58, 77)" id="j2"><g id="k2"><path d="M9.1 8.1 C9.1 8.1 5.5 10.3 3.5 11.1 C4.6 12 6.9 13.1 9.1 13.1 C11.3 13.1 13.5 12 14.7 11.1 C12.7 10.2 9.1 8.1 9.1 8.1 z" id="l2" fill="#CE5253" /><path d="M18.5 13.8 C18.5 13.8 18.4 13.7 18.2 13.4 C18 13.2 17.7 12.8 17.4 12.5 C16.7 11.7 15.7 10.8 14.5 10 C13.4 9.2 12.1 8.4 11.1 8 C10.8 7.9 10.6 7.8 10.4 7.7 C10.3 7.7 10.2 7.7 10.1 7.6 L10.1 1.9 C10.1 1.3 9.7 0.9 9.1 0.9 C8.5 0.9 8.1 1.3 8.1 1.9 L8.1 7.6 C8 7.6 7.9 7.7 7.9 7.7 C7.7 7.8 7.4 7.9 7.2 8 C6.2 8.5 5 9.2 4 10 C2.9 10.8 2 11.8 1.4 12.6 C1.1 13 0.8 13.3 0.7 13.5 C0.5 13.7 0.4 13.9 0.4 13.9 C0.3 14.1 0.3 14.4 0.4 14.6 C0.6 14.8 0.9 14.8 1.1 14.6 C1.1 14.6 1.2 14.5 1.4 14.3 C1.6 14.1 1.9 13.9 2.3 13.6 C3 13 4 12.3 5.1 11.7 C6.2 11.1 7.3 10.7 8.1 10.5 C8.3 10.5 8.5 10.4 8.6 10.4 C8.6 10.4 8.6 10.4 8.7 10.4 C8.8 10.5 9 10.5 9.2 10.5 C9.4 10.5 9.5 10.4 9.7 10.4 L9.8 10.4 C10 10.4 10.2 10.5 10.4 10.5 C11.3 10.7 12.5 11.1 13.6 11.7 C14.8 12.3 15.8 13 16.6 13.5 C17 13.8 17.3 14 17.5 14.2 C17.7 14.4 17.9 14.5 17.9 14.5 C18.1 14.7 18.4 14.7 18.6 14.5 C18.7 14.3 18.7 14 18.5 13.8 z" id="m2" fill="#282523" /></g></g><g transform="translate(110.7, 89.19995) translate(51, 63)" id="n2"><g id="o2"><path d="M8.5 0.8 C3 0.8 0.1 2.6 0.1 6.3 C0.1 9.3 1 9.5 2.6 11.1 C4.1 12.7 4.4 14.2 8.6 14.2 C12.8 14.2 13.1 12.7 14.6 11.1 C16.1 9.5 17.1 9.3 17.1 6.3 C16.9 2.6 14 0.8 8.5 0.8 z" id="p2" fill="#302622" /><path d="M12.1 4.4 C11.4 4.3 9.4 4.4 8.5 4.9 C7.6 4.4 5.7 4.2 4.9 4.4 C3.6 4.6 2.8 6.9 3 6.9 C3.2 7 4.9 5.8 5.7 6.1 C6.9 6.5 8 7.7 8.4 8.6 C8.8 7.8 9.9 6.5 11.1 6.1 C12 5.8 13.6 7 13.8 6.9 C14.2 6.9 13.3 4.6 12.1 4.4 z" id="q2" fill="#F7F7F7" /></g></g><g transform="translate(108.2, 101.2) translate(28, 31)" id="r2"><g id="s2"><path d="M27.4 14.8 C22.7 14.2 24.5 5.1 19.1 1.5 C15.1 -1.3 8.2 2.3 5.5 4.5 C1.9 7.3 -0.5 10.3 0.1 14.8 C0.7 19.3 4 23.4 8.3 24.9 C11.9 26.1 15.9 25.6 19.5 24.1 C22 23 30.4 15.1 27.4 14.8 z" id="t2" fill="#F9F9F9" /><path d="M5.1 12.4 C5.1 10.8 7.5 10 9.7 8.3 C10.5 7.7 12 6.6 13.8 6.6 C16.3 6.6 18.1 8.3 19.3 10.3 C20.6 12.5 22.2 14.7 21.7 15.7 C21.2 16.9 18.6 17.2 16 18.1 C14.8 18.5 11.4 18.4 9.5 16.8 C7.5 15 5.1 13.3 5.1 12.4 z" id="u2" fill="#AA6F4F" /><path d="M18.6 10.5 C18.4 10.1 18.2 9.8 17.9 9.5 C17.1 8.6 15.9 8.1 14.6 8.1 C13.9 8.1 13.3 8.3 12.7 8.5 C12.6 8.5 12.6 8.6 12.5 8.6 C12.3 8.7 12.1 8.8 11.9 8.9 C10.1 9.9 8.2 10.7 7.9 12.1 C7.7 13.1 9.8 14.7 11.6 16.1 C11.8 16.2 11.9 16.4 12.1 16.5 C12.1 16.5 12.2 16.5 12.2 16.6 C12.9 17 13.7 17.2 14.5 17.2 C14.7 17.2 14.9 17.2 15.1 17.1 L15.2 17.1 C15.5 17.1 15.7 17 16 16.9 C17.9 16.5 20.2 16.2 20.6 15 C21.1 14.2 19.9 12.3 18.6 10.5 z" id="v2" fill="#282421" /><path d="M11.5 12.4 C12 12.8 12.7 12.5 13.3 12.2 C14.5 11.6 17.1 10.9 17 10.4 C16.9 9.9 15.4 9.5 15.2 9.4 C14.5 9.2 13.5 9.2 12.9 9.5 C12.1 10 10.4 11.5 11.5 12.4 z" id="w2" fill="#FFFAF8" /></g></g><g transform="translate(107.2, 101.2) translate(68, 31)" id="x2"><g id="y2"><path d="M1.6 14.8 C6.3 14.2 5.3 5.1 10.6 1.5 C14.6 -1.3 20.8 2.3 23.5 4.5 C27.1 7.3 29.5 10.3 28.9 14.8 C28.3 19.3 25 23.4 20.7 24.9 C17.1 26.1 13.1 25.6 9.5 24.1 C6.9 23 -1.4 15.1 1.6 14.8 z" id="z2" fill="#F9F9F9" /><path d="M23.9 12.4 C23.9 10.8 21.5 10 19.3 8.3 C18.5 7.7 17 6.6 15.2 6.6 C12.7 6.6 10.9 8.3 9.7 10.3 C8.4 12.5 6.8 14.7 7.3 15.7 C7.8 16.9 10.4 17.2 13 18.1 C14.2 18.5 17.6 18.4 19.5 16.8 C21.5 15 23.9 13.3 23.9 12.4 z" id="a3" fill="#AA6F4F" /><path d="M17.1 9 C16.9 8.9 16.7 8.8 16.5 8.7 C16.4 8.7 16.4 8.6 16.3 8.6 C15.7 8.3 15.1 8.2 14.4 8.2 C13.1 8.2 12 8.7 11.1 9.6 C10.8 9.9 10.5 10.3 10.3 10.7 C9.1 12.4 7.8 14.4 8.2 15.3 C8.7 16.5 10.9 16.8 12.8 17.2 C13.1 17.3 13.3 17.4 13.6 17.4 L13.7 17.4 C13.9 17.4 14.1 17.4 14.3 17.4 C15.2 17.4 15.9 17.2 16.6 16.7 C16.6 16.7 16.7 16.7 16.7 16.6 C16.9 16.5 17.1 16.3 17.2 16.2 C19.1 14.8 21.1 13.2 20.9 12.2 C20.8 10.8 18.9 10.1 17.1 9 z" id="b3" fill="#282421" /><path d="M11.1 12 C11.6 12.4 12.3 12.1 12.9 11.8 C14.1 11.2 16.7 10.5 16.6 10 C16.5 9.5 15 9.1 14.8 9 C14.1 8.8 13.1 8.8 12.5 9.1 C11.6 9.5 9.9 11.1 11.1 12 z" id="c3" fill="#FFFAF8" /></g></g></g></g></g></g><defs><g transform="translate(17.09519, 0.800995) translate(-135.2952, -293.601)" id="d3" fill="#000"><path d="M118.2 302.7 C118.4 307.4 132.5 311.2 149.8 311.2 C167.1 311.2 181.2 307.4 181.4 302.7 C181.4 307.5 181.4 310.1 181.4 310.5 C181.4 315.3 167.3 319.1 149.8 319.1 C132.3 319.1 118.2 315.2 118.2 310.5 L118.2 302.7 L118.2 302.7 z" fill-opacity="0.4528" id="e3" fill="#593001" /><path d="M118.7 301.7 C118.9 306.4 133 310.2 150.3 310.2 C167.6 310.2 181.7 306.4 181.9 301.7 C181.9 306.5 181.9 309.1 181.9 309.5 C181.9 314.3 167.8 318.1 150.3 318.1 C132.8 318.1 118.7 314.2 118.7 309.5 L118.7 301.7 L118.7 301.7 z" id="f3" fill="#DA8113" /><linearGradient x1="46.0545" y1="-118.6926" x2="45.4656" y2="-118.6926" gradientUnits="userSpaceOnUse" gradientTransform="matrix(117.135, 0, 0, 28.4634, -5208.417, 3687.795)" id="g3"><stop offset="0%" stop-color="#D9952A" stop-opacity="1" /><stop offset="6.438854%" stop-color="#CA7519" stop-opacity="1" /><stop offset="30.54%" stop-color="#E3AD3A" stop-opacity="1" /><stop offset="51.05%" stop-color="#FFEC91" stop-opacity="1" /><stop offset="68.8%" stop-color="#E9BD44" stop-opacity="1" /><stop offset="86.24%" stop-color="#FFED6C" stop-opacity="1" /><stop offset="93.87%" stop-color="#F2D353" stop-opacity="1" /><stop offset="100%" stop-color="#F2B947" stop-opacity="1" /></linearGradient><path d="M118.2 301.6 C118.4 306.1 132.7 309.7 150.3 309.7 C167.9 309.7 182.2 306.1 182.4 301.6 C182.4 306.2 182.4 308.7 182.4 309 C182.4 313.5 168 317.2 150.3 317.2 C132.6 317.2 118.2 313.5 118.2 309 L118.2 301.6 L118.2 301.6 z" id="h3" style="fill:url(#g3)" /><linearGradient x1="45.4914" y1="-117.9547" x2="45.9407" y2="-117.5895" gradientUnits="userSpaceOnUse" gradientTransform="matrix(115.425, 0, 0, 29.925, -5125.077, 3826.124)" id="i3"><stop offset="0%" stop-color="#F4E072" stop-opacity="1" /><stop offset="100%" stop-color="#DB9427" stop-opacity="1" /></linearGradient><ellipse cx="150.3" cy="301.5" rx="31.6" ry="8.2" id="j3" style="fill:url(#i3)" /><linearGradient x1="45.4656" y1="-126.0065" x2="46.0545" y2="-126.0065" gradientUnits="userSpaceOnUse" gradientTransform="matrix(117.135, 0, 0, 18.6219, -5208.417, 2651.479)" id="k3"><stop offset="0%" stop-color="#D9952A" stop-opacity="1" /><stop offset="6.438854%" stop-color="#CA7519" stop-opacity="1" /><stop offset="30.54%" stop-color="#E3AD3A" stop-opacity="1" /><stop offset="51.05%" stop-color="#FFEC91" stop-opacity="1" /><stop offset="68.8%" stop-color="#E9BD44" stop-opacity="1" /><stop offset="86.24%" stop-color="#FFED6C" stop-opacity="1" /><stop offset="93.87%" stop-color="#F2D353" stop-opacity="1" /><stop offset="100%" stop-color="#F2B947" stop-opacity="1" /></linearGradient><path d="M119.2 299.9 C119 300.2 118.9 300.6 118.9 301 C118.9 305.5 132.9 309.2 150.3 309.2 C167.7 309.2 181.7 305.5 181.7 301 C181.7 300.6 181.6 300.3 181.4 299.9 C182 300.5 182.4 301.2 182.4 301.9 C182.4 306.4 168 310.1 150.3 310.1 C132.6 310.1 118.2 306.4 118.2 301.9 C118.2 301.3 118.6 300.6 119.2 299.9 z" id="l3" style="fill:url(#k3)" /><linearGradient x1="45.196" y1="-121.5895" x2="45.3746" y2="-120.6758" gradientUnits="userSpaceOnUse" gradientTransform="matrix(101.745, 0, 0, 23.94, -4458.332, 3199.41)" id="m3"><stop offset="0%" stop-color="#F8DD61" stop-opacity="1" /><stop offset="100%" stop-color="#EAA330" stop-opacity="1" /></linearGradient><ellipse cx="150.3" cy="300.8" rx="27.8" ry="6.6" id="n3" style="fill:url(#m3)" /><linearGradient x1="45.5694" y1="-134.267" x2="45.0221" y2="-134.267" gradientUnits="userSpaceOnUse" gradientTransform="matrix(101.745, 0, 0, 13.2525, -4458.332, 2077.223)" id="o3"><stop offset="0%" stop-color="#F4CA2F" stop-opacity="1" /><stop offset="51.38%" stop-color="#BF7737" stop-opacity="1" /><stop offset="100%" stop-color="#E4A929" stop-opacity="1" /></linearGradient><path d="M122.6 301.5 C122.5 301.3 122.4 301 122.4 300.8 C122.4 297.2 134.9 294.2 150.2 294.2 C165.5 294.2 178 297.1 178 300.8 C178 301 177.9 301.3 177.8 301.5 C176.3 298.2 164.5 295.6 150.1 295.6 C135.7 295.6 124.1 298.2 122.6 301.5 z" id="p3" style="fill:url(#o3)" /></g></defs><desc>E5EKDGHDKGD,ZIwQQcJg4LJwDPlMCnGWAO0Vy/ZitM/+FmwlIyGRAnTkwRqy+Gswe5cDNnU60xIMAy6SaFHUXEMhbZqbGTn0PNXYuRisaP3RN4in2Qc8lGRbbi6TqOUqfYpOgdvto4GY</desc></svg>