<?xml version="1.0" encoding="utf-8"?><!DOCTYPE svg PUBLIC "-//W3C//DTD SVG 1.1//EN" "http://www.w3.org/Graphics/SVG/1.1/DTD/svg11.dtd"><svg x="0" y="0" width="340px" height="340px" viewBox="0, 0, 340, 340" preserveAspectRatio="xMidYMid" font-size="0" id="a" enable-background="new 0 0 340 340" xmlns="http://www.w3.org/2000/svg" xmlns:xlink="http://www.w3.org/1999/xlink" xmlns:xml="http://www.w3.org/XML/1998/namespace" version="1.1"><g id="b" fill="#000"><g id="c"><g transform="translate(0, 0) translate(0, 224)" id="d"><ellipse cx="168.6" cy="53.1" rx="57.8" ry="12.8" fill-opacity="0.25" id="e" /></g><g id="f"><g transform="translate(91.2, 86.09998) translate(32, 179.5) scale(-1, 1) translate(-32, -179.5) translate(0, 153)" id="g"><g transform="translate(0, 17)" id="h"><path d="M31 13.9 C52.7 15.5 52.6 21.3 52.2 25.1 C51.8 29 36.3 31.1 38.1 32.5 C39.9 33.9 59 31.3 62.7 25.1 C66.4 18.9 62.5 10.7 50.8 6.4 C39.1 2.1 23.4 -2.1 10.6 1 C3.9 2.6 -3.3 7.7 4.4 11.3 C8.4 13.3 19.4 13 31 13.9 z" id="i" fill="#2C2F31" /><path d="M31 13.9 C52.7 15.5 52.6 21.3 52.2 25.1 C52.1 25.9 51.4 26.6 50.4 27.2 C50.5 27.2 50.6 27.3 50.6 27.3 C54.8 24.2 56.3 21.4 55.3 19 C53.8 15.4 49 11.1 41.5 9.4 C36.4 8.3 29.1 6.9 20 5 L12.8 5.8 L12.8 11.3 C12.8 11.6 13.9 12.3 15.4 13.1 C20 13.3 25.5 13.4 31 13.9 z" id="j" fill="#965622" /><path d="M50.4 27.3 L50.4 27.3 C51.4 26.7 52.1 26 52.2 25.2 C52.6 21.3 52.7 15.6 31 14 C19.4 13 8.4 13.3 4.4 11.3 C-3.3 7.7 3.9 2.6 10.6 1 C23.4 -2.1 39 2.2 50.7 6.5 C62.4 10.8 66.3 19 62.7 25.2 C59 31.4 39.9 33.9 38.1 32.6 C36.7 31.4 46.4 29.8 50.4 27.3 z M53.3 23.1 C53.1 24.4 52.6 27 50 28.2 C45.8 30.2 39.1 31.3 40 32 C41.6 33.2 58.7 28.5 62 23.2 C65.3 17.9 60.4 10.4 50 6.7 C39.6 3 26.6 -0.2 16.2 1.9 C10.2 3.1 1.6 5.7 8.3 8.9 C11.8 10.7 23.2 11.6 33.4 12.4 C52.5 13.7 53.6 19.7 53.3 23.1 z" opacity="0.15" id="k" /></g></g><g transform="translate(130.94, 273.3) scale(0.9919463) translate(-127.5, -273.3) translate(91.3, 85.89996) translate(29, 124)" id="l"><g transform="translate(24, 34) scale(-1, 1) translate(-24, -34)" id="m"><path d="M1 25.2 C1 9.7 33.1 -7.2 43.6 2.4 C52.6 10.7 44.9 29.8 43.6 31.6 C42.7 32.8 39.4 39.1 33.8 50.4 C41.1 53.1 44.6 56.3 44.6 60 C44.6 61.7 44.6 64 42.9 65.3 C41.6 66.3 15.5 67.3 14.1 64.5 C15.9 40.5 1 40.8 1 25.2 z" id="n" fill="#1F2122" /><path d="M1 25.2 C1 9.7 33.1 -7.2 43.6 2.4 C52.6 10.7 44.9 29.8 43.6 31.6 C42.7 32.8 39.4 39.1 33.8 50.4 C41.1 53.1 44.6 56.3 44.6 60 C44.6 61.7 44.6 64 42.9 65.3 C41.6 66.3 15.5 67.3 14.1 64.5 C15.9 40.5 1 40.8 1 25.2 z M2.3 24.6 C2.3 39.3 17.6 39 15.9 61.7 C17.2 64.3 40.8 63.5 41.9 62.5 C43.5 61.3 42.6 60.9 42.6 59.3 C42.6 55.7 38.2 53.9 31.4 51.3 C36.8 40.6 42.5 31.5 43.7 28.5 C45 25.3 51.2 10.8 42.6 2.9 C32.6 -6 2.3 10 2.3 24.6 z" opacity="0.15" id="o" /></g></g><g transform="translate(208.96, 273.3) scale(0.9919463) translate(-212.4, -273.3) translate(91.7, 85.89996) translate(104, 157.5) scale(-1, 1) translate(-104, -157.5) translate(79, 123)" id="p"><g id="q"><path d="M50.1 26.5 C50.1 11 24.7 -9.5 6.1 3.3 C-2.9 11.6 4.8 30.7 6.1 32.5 C7 33.7 10.3 40 15.9 51.3 C8.7 54.1 5.1 57.3 5.1 61 C5.1 62.7 5.1 65 6.8 66.3 C8.1 67.3 32.6 67.7 34 64.9 C37.5 37.2 50.1 42.1 50.1 26.5 z" id="r" fill="#1F2122" /><path d="M50.1 26.5 C50.1 42.1 37.5 37.1 34 64.9 C32.6 67.7 8.1 67.3 6.8 66.3 C5.1 65 5.1 62.7 5.1 61 C5.1 57.2 8.7 54 15.9 51.4 C10.3 40 7 33.8 6.1 32.6 C4.8 30.8 -2.9 11.7 6.1 3.4 C24.7 -9.5 50.1 11 50.1 26.5 z M48.5 25.9 C48.5 11.4 24.4 -8.6 7 3.4 C-1.4 11.3 4.3 25.2 6.1 29.3 C7.9 33.4 13 41.2 18.4 51.9 C11.6 54.4 7.1 57.4 7.1 59.4 C7.1 61 6.6 62 8.1 63.2 C9.3 64.2 30.8 64.6 32.1 62 C35.3 36 48.5 40.5 48.5 25.9 z" opacity="0.15" id="s" /></g></g><g transform="translate(90.90001, 84.79997) translate(37, 51)" id="t"><g transform="translate(3, 0)" id="u"><path d="M61.7 20.1 C61.7 36.4 64.4 34.7 66.1 39.3 C67.8 43.9 74.7 53 76 65.8 C77.3 78.6 76.6 92.6 72.6 104.3 C68.6 116 71.5 137.3 61.8 140 C61.5 140.1 29.8 143.1 18 140 C5.8 136.8 11.8 123.7 6.4 106.4 C1 89.1 0.1 80.3 0.4 65.8 C0.7 51.3 10.7 44.1 12.5 39.2 C14.3 34.3 16.6 32.5 16.6 20 C16.6 7.5 24.6 0.5 42.2 1 C47.5 1.2 61.7 3.7 61.7 20.1 z" id="v" fill="#2C2F31" /><path d="M61.7 20.1 C61.7 36.4 64.4 34.7 66.1 39.3 C67.8 43.9 74.7 53 76 65.8 C77.3 78.6 76.6 92.6 72.6 104.3 C68.6 116 71.5 137.3 61.8 140 C61.5 140.1 29.8 143.1 18 140 C5.8 136.8 11.8 123.7 6.4 106.4 C1 89.1 0.1 80.3 0.4 65.8 C0.7 51.3 10.7 44.1 12.5 39.2 C14.3 34.3 16.6 32.5 16.6 20 C16.6 7.5 24.6 0.5 42.2 1 C47.5 1.2 61.7 3.7 61.7 20.1 z M61.2 20.2 C61.2 4.2 47.3 1.7 42.1 1.5 C24.9 1 17.1 7.9 17.1 20.1 C17.1 32.3 14.8 34.1 13.1 38.9 C11.4 43.7 1.5 50.7 1.2 64.9 C0.9 79.1 2.8 88.3 8.1 105.2 C13.4 122.1 6.5 134.3 18.4 137.5 C29.9 140.5 61 137.6 61.3 137.5 C70.8 134.9 67 114.3 70.9 102.9 C74.8 91.5 76.5 77.5 75.2 64.9 C73.9 52.4 67.2 43.5 65.5 39 C63.8 34.5 61.2 36.1 61.2 20.2 z" opacity="0.15" id="w" /></g></g><g transform="translate(128.7172, 182.575) scale(1.160986, 1.078625) translate(-134.4, -183.6) translate(103, 81.99997) translate(31, 101)" id="x"><path d="M60.2 78.6 C60.9 58.3 69.1 43.8 69.1 23.9 C69.1 15.9 64.6 12.9 58.8 11.2 C53.9 9.7 51.4 8.5 47.9 6.3 C46.2 3.3 44.1 0.7 35.6 0.6 C27 0.7 25 3.3 23.3 6.3 C19.8 8.5 18.3 11 13.4 12.4 C7.6 14.1 1.7 25.4 3.3 33.2 C6.2 46.5 8.2 58 8.2 58 C8.2 58 11 71 10.9 78.7 C6 82 4.8 84.9 4.8 90 C5.1 91.8 24.2 94.4 26.4 90.6 C29.8 84.7 27.2 77.4 27.2 73.3 C27.2 67.2 27.4 58.2 27.5 48.5 C29.6 50.1 32.1 51.2 35.6 51.2 C39.1 51.2 41.6 50.1 43.7 48.5 C43.8 58.2 44 67.3 44 73.3 C44 77.4 41.4 84.8 44.8 90.6 C47 94.4 66.1 91.9 66.4 90 C66.3 84.8 65.1 81.8 60.2 78.6 z" id="y" fill="#FFF" /><path d="M12.3 9.7 C17.2 8.2 19.8 8.5 23.3 6.2 C23.5 6.3 26.7 8.5 24.4 14.6 C23.1 18 18.8 19.2 16.1 21.5 C11.2 25.7 11.3 33.7 10.6 40.2 C9.9 46.6 14.8 54.9 10.8 57.7 C9.9 58.4 9 58.5 8.1 57.9 C5 46.5 0.5 36.1 0.4 23.4 C0.5 15.4 6.6 11.4 12.3 9.7 z" id="z" fill="#B76930" /><path d="M58.9 9.4 C53.9 7.9 51.3 8.2 47.6 5.8 C47.4 5.9 44.1 8.1 46.5 14.3 C47.8 17.7 52.2 18.9 55 21.3 C60 25.5 59.9 33.7 60.6 40.1 C61.3 46.6 56.3 55 60.4 57.8 C61.3 58.5 62.2 58.7 63.1 58 C66.3 46.5 70.9 36 70.9 23.2 C71 15.2 64.8 11.2 58.9 9.4 z" id="a1" fill="#B76930" /><path d="M63.9 55.3 C62.1 62.6 60.5 70.1 60.2 78.6 C65.1 81.8 66.3 84.8 66.4 90 C66.1 91.9 47 94.4 44.8 90.6 C41.4 84.8 44 77.4 44 73.3 C44 67.3 43.8 58.2 43.7 48.5 C41.6 50.1 39.1 51.2 35.6 51.2 C32.1 51.2 29.6 50.1 27.5 48.5 C27.4 58.2 27.2 67.2 27.2 73.3 C27.2 77.4 29.8 84.7 26.4 90.6 C24.2 94.4 5.1 91.8 4.8 90 C4.8 84.9 6 82 10.9 78.7 C11 71 8.2 58 8.2 58 C8.2 58 8.2 58 8.2 58 C8.2 58 8.1 58 8.1 57.9 C5 46.5 0.5 36.1 0.4 23.4 C0.5 15.4 6.6 11.4 12.3 9.7 C17.2 8.2 19.8 8.5 23.3 6.2 C23.3 6.2 23.3 6.2 23.3 6.2 C25 3.2 27 0.7 35.6 0.6 C43.6 0.7 46 3 47.6 5.8 C51.3 8.2 53.9 7.9 58.9 9.4 C64.8 11.2 71 15.2 70.9 23.2 C70.9 35 67 44.8 63.9 55.3 z M59.1 79.2 C59.4 71.1 60.9 60.9 62.6 53.9 C65.6 43.9 69.3 34.6 69.3 23.3 C69.4 15.7 63.5 11.9 57.9 10.2 C53 8.8 50.6 9 47 6.8 C45.5 4.1 43 1.6 35.3 1.5 C27.2 1.6 25.5 4.3 23.9 7.2 C20.6 9.4 18.1 9.1 13.4 10.5 C8 12.1 2.2 15.9 2.1 23.5 C2.2 35.6 6.5 45.5 9.5 56.4 C9.5 56.4 12.9 71.8 12.8 79.1 C8.1 82.2 6.9 82.3 6.9 87.1 C7.2 88.8 23.1 91.2 25.2 87.6 C28.4 82 25.4 74.7 25.4 70.8 C25.4 65 25 53.1 25.1 43.9 C27.1 45.4 32.2 49.9 35.6 49.9 C38.9 49.9 43.8 46.1 45.8 44.6 C45.9 53.8 45.8 66.5 45.8 72.2 C45.8 76.1 42.1 81.9 45.3 87.4 C47 90.3 63.8 88.3 63.8 87.9 C63.8 83.1 63.7 82.2 59.1 79.2 z" opacity="0.15" id="b1" /></g></g><g transform="translate(169.6, 188) scale(0.9107343) translate(-169.6, -188)" id="c1"><g transform="translate(96.50001, 81.89997) translate(23, 22)" id="d1"><g id="e1"><path d="M8.2 28.4 C11 21.7 15.7 17.3 19.3 12.7 C22.9 8.1 31.7 5.6 37.3 4.5 C41.1 3.8 45.5 4.2 50.5 5.5 C52.6 4.5 55.6 4.2 59.5 4.5 C66.7 4.5 74.5 9 78.8 11.8 C83 14.6 91 25 93 28.4 C95 31.8 96.7 39.1 97.3 42.7 C97.9 46.3 97.3 55.3 94.7 60.3 C92.1 65.3 82.5 78 79.9 80.3 C76.4 83.4 71.5 86.4 67.9 88.5 C62.3 91.8 46 95 35.4 89.9 C31.5 88 25.1 85.8 20.9 82.2 C13.5 75.9 8.9 67.7 7 65.7 C4 62.7 1.8 55.5 2.5 50.3 C3.2 45.1 5.4 35.1 8.2 28.4 z" id="f1" fill="#965622" /><path d="M88.9 69.3 C87.1 71.9 85.2 74.6 83.6 76.7 C82.3 78.2 81.1 79.5 80.2 80.5 C79.9 80.8 79.6 81.2 79.2 81.6 C75.8 84.3 71.3 86.7 68.2 88.6 C62.6 91.8 46 95 35.4 89.9 C31.8 88.2 26.1 86.1 21.9 83 C21 82.2 20 81.4 19 80.5 C18.5 80 18 79.5 17.5 79 L14.9 76.1 C13 73.9 11.4 71.7 10.1 69.9 C9.3 68 8.6 65.7 8.1 63.2 C7.1 58 7.9 53.8 10.3 49.9 C11.7 47.6 14.6 45.6 18.9 43.8 C18.6 47.5 18.6 49.9 18.8 50.8 C20.2 56.9 23.9 61.2 30.3 59.2 C32.2 58.6 34.7 51 48.6 51 C62.5 51 62.5 57.9 68.7 59.7 C74.9 61.5 78.8 56.3 80.6 51.3 C82.4 46.3 80.5 43.1 80.1 42.6 C79.7 42.1 86.2 44 89.2 49 C92.2 54 92.5 57.7 90.4 64.5 C89.9 66.5 89.3 68.1 88.9 69.3 z" id="g1" fill="#46494D" /><path d="M8.2 28.4 C11 21.7 15.7 17.3 19.3 12.7 C22.9 8.1 31.7 5.6 37.3 4.5 C41.1 3.8 45.5 4.2 50.5 5.5 C52.6 4.5 55.6 4.2 59.5 4.5 C66.7 4.5 74.5 9 78.8 11.8 C83 14.6 91 25 93 28.4 C95 31.8 96.7 39.1 97.3 42.7 C97.9 46.3 97.3 55.3 94.7 60.3 C92.1 65.3 82.5 78 79.9 80.3 C76.4 83.4 71.5 86.4 67.9 88.5 C62.3 91.8 46 95 35.4 89.9 C31.5 88 25.1 85.8 20.9 82.2 C13.5 75.9 8.9 67.7 7 65.7 C4 62.7 1.8 55.5 2.5 50.3 C3.2 45.1 5.4 35.1 8.2 28.4 z M10.1 28.4 C7.4 34.9 5.3 44.5 4.6 49.5 C3.9 54.5 6 61.4 8.9 64.3 C10.7 66.2 15.2 74.1 22.2 80.1 C26.2 83.6 32.3 85.8 36.1 87.5 C46.3 92.4 61.9 89.3 67.2 86.1 C70.6 84.1 75.3 81.2 78.7 78.2 C81.2 76 90.4 63.7 92.9 58.9 C95.4 54.1 96 45.4 95.4 42 C94.8 38.5 93.2 31.5 91.2 28.3 C89.2 25.1 81.6 15.1 77.6 12.4 C73.6 9.7 66.1 5.4 59.2 5.4 C55.5 5.1 52.6 5.5 50.6 6.4 C45.8 5.1 41.6 4.7 37.9 5.4 C32.5 6.4 24.1 8.8 20.7 13.3 C17.3 17.8 12.8 21.9 10.1 28.4 z" opacity="0.15" id="h1" /><path d="M32.7 10.5 C38.2 13.7 42.7 17.2 45.6 23.9 C48.5 30.6 47.2 33.2 49.4 33.2 C51.6 33.2 51.1 28.5 53.1 23.9 C55.1 19.3 60.7 14.2 66.5 10.5 C67.2 10 63.6 8.3 60.1 8.4 C56.9 8.6 52.2 10.5 50 10.5 C48 10.5 45 8.8 40.7 8.4 C34.9 7.9 29.5 8.7 32.7 10.5 z" id="i1" fill="#77431C" /></g></g><g transform="translate(141.1, 120.1) rotate(-8, 0, 0) scale(1) translate(-141.1, -120.1) translate(113.3, 91.09997) translate(3, 2)" id="j1"><path d="M33.9 21.7 C35.1 19.6 35.4 14.7 32.2 12.1 C29.1 9.6 18.9 1.4 16 0.8 C13.1 0.2 11.9 0 9.8 0.8 C8 1.5 6.7 3.9 6.3 4.9 C5.4 7 1.1 13.6 1.1 21.6 C1.1 29.6 0.5 36.5 1.1 39.7 C1.7 42.8 3.2 42.8 4.7 42.8 C5.5 42.8 11.7 35.5 18.8 30.6 C26 25.6 32.8 23.8 33.9 21.7 z" id="k1" fill="#2C2F31" /><path d="M33.9 21.7 C32.8 23.8 26 25.6 18.8 30.6 C11.7 35.5 5.5 42.8 4.7 42.8 C3.2 42.8 1.7 42.8 1.1 39.7 C0.5 36.5 1.1 29.6 1.1 21.6 C1.1 13.6 5.4 7 6.3 4.9 C6.7 3.9 8 1.5 9.8 0.8 C11.9 0 13.1 0.2 16 0.8 C18.9 1.4 29.1 9.6 32.2 12.1 C35.4 14.7 35.1 19.6 33.9 21.7 z M32.1 20.3 C33.2 18.4 33.4 14.1 30.6 11.8 C27.9 9.6 18.9 2.3 16.3 1.8 C13.7 1.3 12.7 1.1 10.8 1.8 C9.2 2.4 8.1 4.5 7.7 5.4 C6.9 7.3 3.1 13.1 3.1 20.2 C3.1 27.3 2.6 33.4 3.1 36.3 C3.7 39 5 39 6.3 39 C7 39 12.5 32.5 18.7 28.2 C25.1 23.7 31.1 22.1 32.1 20.3 z" opacity="0.15" id="l1" /></g><g transform="translate(196.7, 120.1) rotate(8, 0, 0) scale(1) translate(-196.7, -120.1) translate(93.5, 94.29997) translate(110, 21.5) scale(-1, 1) translate(-110, -21.5) translate(92, 0)" id="m1"><path d="M33.6 22.2 C34.4 20.7 35.3 19.4 35.3 18.1 C35.5 15.9 34.2 13.7 32.2 12.1 C29 9.6 20.6 2.3 15.9 0.8 C14.9 0.5 12.5 0.3 10.8 0.8 C8.4 1.6 6.8 3.7 6.2 4.9 C5.3 7 2.3 12.3 1 21.7 C-0.3 31 0.4 36.6 1 39.7 C1.6 42.8 3.1 42.8 4.6 42.8 C5.4 42.8 12.2 36.3 19.6 31.3 C26.6 26.5 32.8 23.6 33.6 22.2 z" id="n1" fill="#2C2F31" /><path d="M33.6 22.2 C32.8 23.6 26.6 26.5 19.6 31.3 C12.2 36.3 5.4 42.8 4.6 42.8 C3.1 42.8 1.6 42.8 1 39.7 C0.4 36.6 -0.3 31 1 21.7 C2.3 12.3 5.3 7 6.2 4.9 C6.8 3.7 8.4 1.6 10.8 0.8 C12.5 0.3 14.9 0.5 15.9 0.8 C20.6 2.3 29 9.6 32.2 12.1 C34.2 13.7 35.5 15.9 35.3 18.1 C35.3 19.4 34.4 20.7 33.6 22.2 z M31.9 20.5 C32.6 19.2 33.4 18 33.4 16.9 C33.6 15 32.4 13 30.6 11.6 C27.7 9.4 20.2 3 16 1.7 C15.1 1.4 13 1.3 11.4 1.7 C9.4 2.5 8 4.3 7.4 5.4 C6.6 7.2 3.9 11.9 2.8 20.1 C1.6 28.2 2.3 33.2 2.8 35.9 C3.3 38.6 4.7 38.6 6 38.6 C6.7 38.6 12.8 32.9 19.4 28.5 C25.7 24.3 31.2 21.7 31.9 20.5 z" opacity="0.15" id="o1" /></g><g id="p1"><g transform="translate(110.1, 109.2) translate(22, 6)" id="q1"><g id="r1"><path d="M49.6 73.8 C41.1 70.5 33.9 70.5 25.4 73.8 C18.3 76.6 24.1 90.9 24 91 C23.3 92.5 23.8 93.2 24 94.2 C24.3 93.9 25.1 94.2 25.8 94.1 C26.4 93.9 27 93.2 27 93.2 C28.2 95 29.2 95.5 30.9 94.2 C31.1 94 33.9 91.7 34.1 92.5 C34.3 93.6 34.5 94.6 34.6 95.7 C35.2 94.8 35.8 93.8 36.4 92.9 C36.7 93.4 37.1 93.9 37.4 94.4 C37.7 93.9 38.1 93.4 38.4 92.9 C39 93.8 39.6 94.8 40.2 95.7 C40.4 94.6 40.6 93.6 40.7 92.5 C40.8 91.7 43.6 94 43.9 94.2 C45.6 95.4 46.6 94.9 47.8 93.2 C47.8 93.2 48.4 93.9 49 94.1 C49.7 94.3 50.5 93.9 50.8 94.2 C51 93.2 51.5 92.5 50.8 91 C50.9 90.9 56.7 76.6 49.6 73.8 z" id="s1" fill="#965622" /><path d="M50.4 74.2 C50.2 74.1 49.9 74 49.6 73.9 C41.1 70.6 37.6 72.7 37.5 72.7 C37.5 72.7 33.9 70.6 25.4 73.9 C25.1 74 24.9 74.1 24.6 74.2 C18.3 77.3 15.7 87.2 14.1 88 C14.1 88.1 14.1 88.2 14.2 88.3 L15.3 89.4 C16 91.2 19 91.5 20.1 89.9 C20.3 90.6 20.9 92.8 21 93.5 C22.1 93.2 24 91.2 24 91.2 C24.4 90.7 24 88.6 24.4 88.3 C24.8 89.8 26.2 91.6 26.8 91.5 C27.4 91.4 27.5 90.7 28.2 89.2 C29.3 86.6 30.3 85 32.4 83.1 C34 83.6 35.7 83.9 37.4 83.9 C39.1 83.9 40.8 83.6 42.4 83.1 C44.6 85 45.5 86.7 46.6 89.2 C47.3 90.8 47.4 91.4 48 91.5 C48.6 91.6 50.1 89.8 50.4 88.3 C50.8 88.6 50.5 90.8 50.8 91.2 C50.8 91.2 52.7 93.2 53.8 93.5 C54 92.8 54.6 90.6 54.7 89.9 C55.8 91.6 58.8 91.3 59.5 89.4 L60.6 88.3 C60.6 88.2 60.6 88.1 60.7 88 C59.3 87.1 56.7 77.3 50.4 74.2 z" id="t1" fill="#B76930" /><path d="M74.5 76 C72.1 62 63.5 60.2 61.5 59.3 C62.2 57.8 62.2 56 61.1 54.9 C60.6 56.9 58.2 57.5 56.4 57.7 C53.9 58 51.4 57.4 49 56.8 C49.4 56.4 50 56 50.5 55.5 C48.5 54.7 45.2 53.3 43.4 55.2 C44.5 54.1 46.6 53.1 45.9 51.2 C44.5 52.4 41.9 52.1 40.5 53.2 C41.4 51.2 42.3 49.3 43.1 47.3 C42.4 47.5 41.9 47.8 41.4 48.1 C41.7 47.7 42.4 46.8 42 46.3 C41.6 45.9 40.9 46.2 40.6 46.4 C41.3 44.3 41.6 42.8 42.5 40.5 C41.7 41.3 40.8 42 40 42.8 C43.7 35.6 46.1 31.2 56 27.9 C58.1 27.5 60.3 27.5 62.4 27.7 C62.3 27.2 62 26.7 61.7 26.3 C61.8 26.3 61.9 26.2 62 26.2 C61.4 26.2 60.8 25.4 60.2 25.1 C59.6 24.8 58.9 24.6 58.2 24.6 C59.9 24.3 61.7 24.1 63.4 23.8 C62.4 23 61.4 22.2 60.4 21.4 C61.1 21.3 61.8 21.2 62.5 21.1 C61.6 20.5 61.4 20.9 60.6 20.2 C61.5 20.1 62.1 18.7 63 18.6 C62.7 17.9 61.1 17.3 60.8 16.6 C62.5 16.5 62.2 14.2 62.5 12.9 C61.6 12 60.3 11.3 59 11 C59.7 9.9 60.7 9 61.9 8.6 C59.8 7.9 57.7 7.1 55.5 6.5 C55.6 6.1 55.8 5.8 56.1 5.5 C54.8 5.5 53.5 5.8 52.2 5.9 C52.9 5 53.4 4.3 53.4 4.3 C53 4.3 52.6 4.3 52.1 4.2 C52 4.2 51 4 51 4 C50 4.4 49 4.8 48.1 5.4 C49 3.9 49.9 2.3 50.7 0.8 C46.5 2.8 42.9 5.9 40.1 9.5 C39.2 6.5 37.6 4.6 36.9 0.9 C35.1 3.3 34.2 6.3 34.4 9.3 C31.6 5.7 28.1 2.8 24 0.8 C24.9 2.3 25.8 3.9 26.6 5.4 C25.7 4.8 24.7 4.4 23.7 4 C23.7 4 22.7 4.2 22.6 4.2 C22.2 4.2 21.8 4.3 21.3 4.3 C21.3 4.3 21.8 4.9 22.5 5.9 C21.2 5.8 19.9 5.5 18.6 5.5 C18.9 5.8 19.1 6.1 19.2 6.5 C17 7.1 14.9 8 12.8 8.6 C14.1 9 15.1 9.9 15.7 11 C14.4 11.3 13.2 11.9 12.2 12.9 C12.4 14.2 12.2 16.5 13.9 16.6 C13.6 17.3 12 17.9 11.7 18.6 C12.6 18.7 13.2 20.1 14.1 20.2 C13.2 20.8 13 20.4 12.2 21.1 C12.9 21.2 13.6 21.3 14.3 21.4 C13.3 22.2 12.3 23 11.3 23.8 C13 24.1 14.8 24.3 16.5 24.6 C15.8 24.6 15.1 24.8 14.5 25.1 C13.9 25.4 13.4 26.2 12.7 26.2 C12.8 26.2 12.9 26.3 13 26.3 C12.7 26.7 12.4 27.2 12.3 27.7 C14.4 27.5 16.6 27.5 18.7 27.9 C28.6 31.2 31 35.6 34.7 42.8 C33.9 42 33 41.3 32.2 40.5 C33.1 42.8 33.4 44.3 34.1 46.4 C33.7 46.2 33 45.9 32.7 46.3 C32.3 46.9 33 47.7 33.3 48.1 C32.8 47.8 32.3 47.6 31.6 47.3 C32.5 49.3 33.4 51.2 34.2 53.2 C32.8 52 30.2 52.3 28.8 51.2 C28.1 53.1 30.2 54.1 31.3 55.2 C29.5 53.3 26.2 54.7 24.2 55.5 C24.8 56.1 25.3 56.4 25.7 56.8 C23.3 57.4 20.8 58 18.3 57.7 C16.5 57.5 14.1 56.9 13.6 54.9 C12.4 56 12.5 57.9 13.2 59.3 C11.2 60.1 1.9 62.9 0.2 76 C0.3 75 1.8 74.8 2.6 74.2 C2 76.3 1.5 78.7 1.1 81.4 C2.1 81 3.1 80.7 4.1 80.4 C4.4 83.1 5.3 85.7 6.6 87.8 C6.8 87.2 7 86.7 7.1 86.2 C7.1 87.4 8.3 90.3 10 89.3 C10.2 90 10.7 91.3 11.4 91.7 C12.1 92 13.3 91.7 14 91.8 C14.3 90.7 15 89.6 15.9 88.7 C16 89.9 16 91.1 16.1 92.4 C18.1 92 19.9 90.5 20.7 88.6 C21.2 89.4 21.7 90.1 22.2 90.9 C22.8 88.6 23.4 86.2 23.9 83.9 C24.5 85.9 25.1 87.8 25.7 89.8 C25.9 87.9 25.8 85.9 26.3 84.1 C26.9 82.1 28.3 81.2 30.1 80.5 C33.4 79.1 36.7 76.1 37.1 72.3 C37.5 76.1 40.8 79.1 44.1 80.5 C45.9 81.2 47.2 82.1 47.8 84 C48.4 85.9 48.3 87.9 48.5 89.8 C49.1 87.8 49.7 85.9 50.3 83.9 C50.9 86.2 51.5 88.6 52 90.9 C52.5 90.1 53 89.4 53.5 88.6 C54.3 90.5 56.1 91.9 58.1 92.4 C58.2 91.2 58.2 90 58.3 88.7 C59.2 89.6 59.9 90.6 60.2 91.8 C60.9 91.7 62.1 92 62.8 91.7 C63.5 91.4 64 90 64.2 89.3 C65.9 90.3 67.1 87.5 67.1 86.2 C67.2 86.7 67.4 87.2 67.6 87.8 C68.9 85.7 69.8 83.2 70.1 80.4 C71.1 80.7 72.2 81 73.1 81.4 C72.7 78.7 72.2 76.3 71.6 74.2 C72.8 74.8 73.6 75.4 74.5 76 z" id="u1" fill="#965622" /><path d="M43.1 26.7 C42.5 27 41.8 27.1 41.3 27.7 C42.4 26.4 44.6 24.2 44.5 23.9 C44.4 23.6 40.4 24.9 40.2 24.3 C40 23.5 43.2 20.5 43.7 19.8 C42.8 20 41.9 20.3 41 20.4 C41.3 18.9 43.7 18.3 44.8 17.3 C45.7 16.4 46.6 14.5 47.5 13.6 C45.5 14.1 43.4 14.5 41.4 15 C41.8 14.6 42.1 14.3 42.5 13.9 C42 13.8 41.6 13.8 41.1 13.7 C41.6 12.7 42.1 11.6 42.6 10.6 C42.6 10.7 40.7 11.1 40.5 11.2 C40.2 11.4 39.9 11.6 39.7 11.8 C39.5 11.4 39.3 11.1 39.1 10.7 C38.3 9.2 37.4 7.7 36.6 6.3 C36 8 35.4 9.7 34.8 11.4 L34.7 11.3 C34.5 11.2 32.6 10.8 32.6 10.7 C33.1 11.7 33.6 12.8 34.1 13.8 C33.6 13.9 33.2 13.9 32.7 14 C33.1 14.4 33.4 14.7 33.8 15.1 C31.8 14.6 29.7 14.2 27.7 13.7 C28.6 14.6 29.5 16.5 30.4 17.4 C31.5 18.5 33.9 19.1 34.2 20.5 C33.3 20.4 32.4 20.1 31.5 19.9 C32 20.5 35.3 23.6 35 24.4 C34.8 25.1 30.9 23.7 30.7 24 C30.5 24.3 32.8 26.6 33.9 27.8 C33.4 27.2 32.7 27 32.1 26.8 C31.2 26.4 29.6 27.9 30.6 29.2 C31.6 30.4 33.5 30.4 34.5 31.6 C33.6 31.9 32.8 32.6 33.9 33.4 C34.9 34.2 35.2 34.3 36 34.8 C36.2 35 36.2 35.3 36 35.5 C35.9 35.5 35.9 35.6 35.9 35.7 L37.8 39.3 L39.7 35.7 C39.7 35.6 39.7 35.6 39.6 35.5 C39.4 35.3 39.4 35 39.6 34.8 C40.4 34.2 40.6 34.2 41.7 33.4 C42.8 32.5 42 31.9 41.1 31.6 C42.1 30.5 44 30.5 45 29.2 C45.6 27.8 44 26.3 43.1 26.7 z" id="v1" fill="#B76930" /><path d="M14 91.8 C13.3 91.7 12.1 92 11.4 91.7 C10.7 91.3 10.2 90 10 89.3 C8.3 90.3 7.1 87.4 7.1 86.2 C7 86.7 6.8 87.2 6.6 87.8 C5.3 85.7 4.4 83.1 4.1 80.4 C3.1 80.7 2.1 81 1.1 81.4 C1.5 78.7 2 76.3 2.6 74.2 C1.8 74.8 0.3 75 0.2 76 C1.9 62.9 11.2 60.1 13.2 59.3 C12.5 57.9 12.4 56 13.6 54.9 C14.1 56.9 16.5 57.5 18.3 57.7 C20.8 58 23.3 57.4 25.7 56.8 C25.3 56.4 24.8 56.1 24.2 55.5 C26.2 54.7 29.5 53.3 31.3 55.2 C30.2 54.1 28.1 53.1 28.8 51.2 C30.2 52.3 32.8 52 34.2 53.2 C33.4 51.2 32.5 49.3 31.6 47.3 C32.3 47.6 32.8 47.8 33.3 48.1 C33 47.7 32.3 46.9 32.7 46.3 C33 45.9 33.7 46.2 34.1 46.4 C33.4 44.3 33.1 42.8 32.2 40.5 C33 41.3 33.9 42 34.7 42.8 C31 35.6 28.6 31.2 18.7 27.9 C16.6 27.5 14.4 27.5 12.3 27.7 C12.4 27.2 12.7 26.7 13 26.3 C12.9 26.3 12.8 26.2 12.7 26.2 C13.4 26.2 13.9 25.4 14.5 25.1 C15.1 24.8 15.8 24.6 16.5 24.6 C14.8 24.3 13 24.1 11.3 23.8 L14.3 21.4 L12.2 21.1 C13 20.4 13.2 20.8 14.1 20.2 C13.2 20.1 12.6 18.7 11.7 18.6 C12 17.9 13.6 17.3 13.9 16.6 C12.2 16.5 12.4 14.2 12.2 12.9 C13.2 11.9 14.4 11.3 15.7 11 C15.1 9.9 14.1 9 12.8 8.6 C14.9 8 17 7.1 19.2 6.5 C19.1 6.1 18.9 5.8 18.6 5.5 C19.9 5.5 21.2 5.8 22.5 5.9 C21.8 4.9 21.3 4.3 21.3 4.3 C21.8 4.3 22.2 4.2 22.6 4.2 C22.7 4.2 23.7 4 23.7 4 C24.7 4.4 25.7 4.8 26.6 5.4 C25.8 3.9 24.9 2.3 24 0.8 C28.1 2.8 31.6 5.7 34.4 9.3 C34.2 6.3 35.1 3.3 36.9 0.9 C37.6 4.6 39.2 6.5 40.1 9.5 C42.9 5.9 46.5 2.8 50.7 0.8 C49.9 2.3 49 3.9 48.1 5.4 C49 4.8 50 4.4 51 4 C51 4 52 4.2 52.1 4.2 C52.6 4.3 53 4.3 53.4 4.3 C53.4 4.3 52.9 5 52.2 5.9 C53.5 5.8 54.8 5.5 56.1 5.5 C55.8 5.8 55.6 6.1 55.5 6.5 C57.7 7.1 59.8 7.9 61.9 8.6 C60.7 9 59.7 9.9 59 11 C60.3 11.3 61.6 12 62.5 12.9 C62.2 14.2 62.5 16.5 60.8 16.6 C61.1 17.3 62.7 17.9 63 18.6 C62.1 18.7 61.5 20.1 60.6 20.2 C61.4 20.9 61.6 20.5 62.5 21.1 L60.4 21.4 L63.4 23.8 C61.7 24.1 59.9 24.3 58.2 24.6 C58.9 24.6 59.6 24.8 60.2 25.1 C60.8 25.4 61.4 26.2 62 26.2 C61.9 26.2 61.8 26.3 61.7 26.3 C62 26.7 62.3 27.2 62.4 27.7 C60.3 27.5 58.1 27.5 56 27.9 C46.1 31.2 43.7 35.6 40 42.8 C40.8 42 41.7 41.3 42.5 40.5 C41.6 42.8 41.3 44.3 40.6 46.4 C40.9 46.2 41.6 45.9 42 46.3 C42.4 46.8 41.7 47.7 41.4 48.1 C41.9 47.8 42.4 47.5 43.1 47.3 C42.3 49.3 41.4 51.2 40.5 53.2 C41.9 52.1 44.5 52.4 45.9 51.2 C46.6 53.1 44.5 54.1 43.4 55.2 C45.2 53.3 48.5 54.7 50.5 55.5 C50 56 49.4 56.4 49 56.8 C51.4 57.4 53.9 58 56.4 57.7 C58.2 57.5 60.6 56.9 61.1 54.9 C62.2 56 62.2 57.8 61.5 59.3 C63.5 60.2 72.1 62 74.5 76 C73.6 75.4 72.8 74.8 71.6 74.2 C72.2 76.3 72.7 78.7 73.1 81.4 C72.2 81 71.1 80.7 70.1 80.4 C69.8 83.2 68.9 85.7 67.6 87.8 C67.4 87.2 67.2 86.7 67.1 86.2 C67.1 87.5 65.9 90.3 64.2 89.3 C64 90 63.5 91.4 62.8 91.7 C62.1 92 60.9 91.7 60.2 91.8 C60 91.1 59.7 90.4 59.3 89.8 C59 90.2 58.7 90.5 58.2 90.7 C58.2 91.3 58.2 91.8 58.1 92.4 C56.8 92.1 55.5 91.3 54.6 90.3 C54.4 91.2 54 92.9 53.8 93.5 C52.9 93.3 51.4 91.8 50.9 91.4 C51.4 92.7 50.9 93.3 50.8 94.2 C50.5 93.9 49.7 94.3 49 94.1 C48.4 93.9 47.8 93.2 47.8 93.2 C46.6 94.9 45.6 95.4 43.9 94.2 C43.6 94 40.8 91.7 40.7 92.5 C40.6 93.6 40.4 94.6 40.2 95.7 C39.6 94.8 39 93.8 38.4 92.9 C38.1 93.4 37.7 93.9 37.4 94.4 C37.1 93.9 36.7 93.4 36.4 92.9 C35.8 93.8 35.2 94.8 34.6 95.7 C34.5 94.6 34.3 93.6 34.1 92.5 C33.9 91.7 31.1 94 30.9 94.2 C29.2 95.5 28.2 95 27 93.2 C27 93.2 26.4 93.9 25.8 94.1 C25.1 94.2 24.3 93.9 24 94.2 C23.8 93.3 23.4 92.6 23.9 91.4 C23.4 91.9 22 93.3 21 93.5 C20.9 92.8 20.3 90.6 20.1 89.9 C19.9 90.2 19.7 90.4 19.4 90.5 C18.5 91.4 17.3 92.1 16.1 92.4 C16 91.7 16 91 16 90.3 C15.7 90.1 15.5 89.8 15.3 89.4 C14.7 90.1 14.2 91 14 91.8 z M14.8 88.3 C15 87.5 15.5 86.7 16.1 86 C16.2 86.4 16.5 86.6 16.8 86.9 C16.8 87.5 16.9 88.2 16.9 88.9 C18.1 88.7 19.2 88 20.1 87.1 C20.4 86.9 20.6 86.7 20.8 86.5 C21 87.2 21.6 89.2 21.7 89.9 C22.6 89.7 24.1 88.7 24.6 88.3 C24.1 89.5 24.4 89.7 24.6 90.6 C24.9 90.3 25.7 90.6 26.3 90.5 C26.9 90.3 28.1 89.7 28.1 89.7 C29.3 91.4 29.6 91.9 31.2 90.6 C31.4 90.4 33.2 88.2 33.4 89 C33.6 90 34.9 90.7 35 91.8 C35.6 91 35.3 90.5 35.9 89.7 C36.2 90.2 37.2 90.4 37.5 90.8 C37.8 90.3 38.4 89.7 38.7 89.3 C39.3 90.1 39 91 39.6 91.8 C39.8 90.8 41.6 90.1 41.7 89 C41.8 88.2 43.5 90.4 43.8 90.6 C45.4 91.7 45.8 91.5 47 89.9 C47 89.9 48.2 90.3 48.7 90.5 C49.4 90.7 50.1 90.3 50.4 90.6 C50.6 89.7 51 89.1 50.5 87.9 C51 88.3 52.4 89.7 53.3 89.9 C53.5 89.3 53.9 87.8 54.1 86.9 C55 87.9 56.2 88.5 57.5 88.9 C57.5 88.4 57.6 87.9 57.6 87.3 C58 87.1 58.4 86.8 58.6 86.4 C59 87 59.3 87.6 59.5 88.2 C60.2 88.1 61.3 88.4 62 88.1 C62.7 87.8 63.2 86.5 63.4 85.8 C65 86.7 66.2 84.1 66.2 82.9 C66.3 83.4 66.5 83.8 66.7 84.4 C68 82.4 68.8 80.1 69.1 77.4 C70.1 77.7 71.1 78 72 78.3 C71.6 75.8 70.6 73.8 70 71.9 C71.2 72.5 71.8 72.7 72.6 73.2 C69 61.3 62.8 60.6 60.9 59.8 C61.6 58.4 62 56.8 60.9 55.8 C60.4 57.7 57.1 58.5 55.4 58.7 C53 59 50.3 58.2 48 57.6 C48.4 57.2 48.4 56.2 48.9 55.7 C47 54.9 44.8 55.3 42.9 55.3 C43.7 54 44.8 53.7 45.2 51.9 C43.8 53 41.1 53.2 39.8 54.2 C40.7 52.3 41.1 50.5 41.9 48.6 C41.2 48.8 41 48.3 40.5 48.6 C40.8 48.2 42 47.5 41.6 47 C41.2 46.6 40.3 46.8 40 47 C40.7 45 40.7 44.3 41.6 42.1 C40.8 42.9 40.1 42.8 39.3 43.6 C42.1 37.7 44.5 30.6 54.1 27.5 C56.1 27.1 58.5 26.7 60.5 26.9 C60.4 26.4 61.2 26.9 60.9 26.5 C60.3 26.5 60 25.7 59.5 25.4 C58.9 25.1 57.1 24.7 56.4 24.7 C57.6 24.1 60 23.5 61.7 23.2 L59.2 21.6 L60.9 21 C60 20.4 60.4 20.7 59.6 20.1 C60.5 20 60.9 18.8 61.8 18.7 C61.5 18 60.1 16.9 59.8 16.3 C61.4 16.2 61.4 14.6 61.7 13.4 C60.8 12.6 58.8 11.9 57.6 11.6 C58.3 10.6 58.6 9.4 59.7 9 C57.7 8.3 56.2 8.5 54.1 7.9 C54.2 7.5 54.7 7.1 55 6.8 C53.7 6.8 52.4 7.2 51.1 7.3 C51.4 6.9 52.2 5.5 51.8 5.1 C51.3 4.6 50.2 5.1 50.2 5.1 C49.2 5.5 47.8 6.2 46.9 6.8 C47.8 5.4 48.1 3.9 48.9 2.5 C44.8 4.4 42.7 7.3 40 10.7 C39.1 7.9 37.6 6.1 36.9 2.6 C35.2 4.9 34.7 8.3 34.9 11.1 C32.2 7.7 29.4 4.2 25.5 2.3 C26.4 3.7 26.7 5.2 27.5 6.6 C26.6 6 25.4 5.7 24.5 5.3 C24.5 5.3 23.8 5 23.7 5 C23.3 5 22.9 4.7 22.4 4.7 C22.4 4.7 23 5.8 23.7 6.8 C22.4 6.7 21.1 6.3 19.8 6.3 C20.1 6.6 20 7.3 20.1 7.7 C18 8.3 16.4 7.9 14.4 8.5 C15.7 8.9 16.1 10.5 16.7 11.5 C15.4 11.8 14 12.9 13 13.9 C13.2 15.1 13.4 16.4 15 16.5 C14.7 17.2 13 17.9 12.7 18.6 C13.6 18.7 14.3 20 15.2 20.1 C14.3 20.7 14.3 20.4 13.6 21 L15.5 21.3 L12.8 23.2 C14.4 23.5 16.1 24.3 17.7 24.6 C17 24.6 15.7 25.1 15.2 25.4 C14.6 25.7 14.1 26.4 13.8 26.5 C13.5 26.9 13.4 26.7 13.3 27.2 C15.3 27 18.6 27.4 20.7 27.8 C30.3 30.9 32.3 37.3 35.8 44.1 C35 43.3 34.1 42.9 33.3 42.1 C34.2 44.3 33.9 45 34.6 47 C34.2 46.8 33.6 46.6 33.3 47 C32.9 47.6 34.3 49.1 34.6 49.4 C34.1 49.1 33.5 48.8 32.8 48.5 C33.7 50.4 34.1 52.2 34.9 54.1 C33.5 53 31.3 52.8 29.9 51.8 C29.9 53.7 31.3 54.2 32.3 55.2 C30.7 55.2 28.1 55.2 26.1 55.6 C26.7 56.2 26.5 56.3 26.9 56.7 C24.6 57.3 22.4 58.6 19.9 58.3 C18.2 58.1 14.5 57.9 14 56 C12.8 57 13 58.3 13.7 59.6 C11.8 60.4 3.7 62.1 1.3 73.3 C1.4 72.4 2.8 72.2 3.6 71.6 C3 73.6 2.5 75.8 2.2 78.4 C3.2 78 4.1 77.7 5.1 77.5 C5.4 80 6.3 82.5 7.5 84.5 C7.8 84 8 83.5 8.1 83 C8.1 84.1 9.3 86.9 10.9 85.9 C11.1 86.6 11.6 87.8 12.3 88.2 C13 88.5 14.1 88.2 14.8 88.3 z" opacity="0.15" id="w1" /></g></g><g transform="translate(98.1, 86.59996) translate(65, 102)" id="x1"><path d="M3.7 6.8 C3.2 7 2.7 7.2 2.1 7.5 C1.3 7.8 0.3 8.3 -0.8 9 C-0.2 10.8 2.2 11.7 6.4 11.6 C10.6 11.5 12.9 10.7 13.4 9 C11.9 8.2 10.8 7.6 10 7.3 C9.6 7.2 9.4 7.1 9.2 7 C9.6 7 9.7 7 9.5 7 C8.6 7 7.1 5.3 7.1 3.7 C7.1 2.1 5.6 2.2 5.5 3.7 C5.6 4.7 5 5.7 3.7 6.8 z" id="y1" /></g><g transform="translate(169.6, 180.7) scale(0.8) translate(-169.6, -179.7) translate(96.50001, 92.59997) translate(61, 60)" id="z1"><path d="M3.4 29.3 C5.1 31.6 6.8 32.9 11.9 32.9 C17 32.9 20.1 30.4 20.6 27.9 C21.1 25.4 20.5 20.8 16.3 19.7 C12.1 18.6 7.1 18.8 5.4 20.8 C4.7 21.6 3.5 22.7 2.9 24.1 C2.1 26.1 2.5 28 3.4 29.3 z" id="a2" /><path d="M8.2 20.6 C5.8 21.6 4.3 23 6.5 22.4 C7.9 22 9.3 21.7 10.8 21.8 C11.6 21.9 13.3 22 14.7 22.3 C16.1 23.4 18 24 18.6 23.5 C19.2 23 18.6 21.2 16.3 20.5 C14 19.8 10.7 19.6 8.2 20.6 z" id="b2" fill="#FFF" /></g><g transform="translate(102.1, 89.39996)" id="c2"><g transform="translate(18, 29)" id="d2"><path d="M23.6 41.6 C25.6 38.1 29.7 36 33.7 36.5 C37.7 37 41.2 39.9 42.3 43.8 C43.4 47.6 42.9 51.8 39.2 53.1 C35.8 54.4 27.9 54.9 24.5 52.9 C21 50.8 21.6 45.1 23.6 41.6 z" id="e2" fill="#2C2F31" /><path d="M9 21.2 C15.5 14.3 18.6 13 26.7 11.8 C24 10.9 25 9.4 20.1 8.3 C23.4 5.7 26.9 7 31.1 7.1 C33.9 7.2 36.3 7 38.8 8.5 C38.9 5.8 38.7 3.1 38.3 0.5 C44.7 5.4 47.5 16 47.5 24.1 C47.5 37.4 43 52.3 41.7 50.8 C38.4 44.3 34.3 37.9 29.3 36.9 C27.4 36.5 24.3 37.6 22.7 38.8 C16.9 43.3 14.1 50.6 14.7 57.5 C13.6 57.7 12.6 57.9 11.5 58.1 C10.6 54.2 10.7 50.7 11.5 46.8 C8.3 49.2 6 52.7 4.9 56.5 C3.8 51 4.9 45 7.9 40.2 C4.4 40.8 2.5 44 1.3 47 C-0.3 40.3 3.7 26.9 9 21.2 z" id="f2" fill="#2C2F31" /><path d="M22.8 38.9 C17.5 42.1 14.2 50.7 14.8 57.6 C13.7 57.8 12.7 58 11.6 58.2 C10.7 54.3 10.8 50.8 11.6 46.9 C8.4 49.3 6.1 52.8 5 56.6 C3.8 51.1 4.9 45.1 7.9 40.3 C4.4 40.9 2.5 44.1 1.3 47.1 C-0.3 40.3 3.7 26.9 9 21.2 C15.5 14.3 18.6 13 26.7 11.8 C24 10.9 25 9.4 20.1 8.3 C23.4 5.7 26.9 7 31.1 7.1 C33.9 7.2 36.3 7 38.8 8.5 C38.9 5.8 38.7 3.1 38.3 0.5 C44.7 5.4 47.5 16 47.5 24.1 C47.5 30.5 46.6 36.5 45.6 41.1 C44.6 46 43.6 49.4 41.1 52 C40.6 52.4 40 52.8 39.2 53.1 C35.8 54.4 27.9 54.9 24.5 52.9 C21 50.8 21.6 45.1 23.6 41.6 C24.9 39.3 27.1 37.6 29.6 36.9 C26.9 37.1 24.3 38 22.8 38.9 z M29.3 35.4 L34 36.3 C31.7 37 26.9 38.5 25.6 40.7 C23.7 44 21.9 48.7 25.2 50.7 C28.4 52.6 35.1 51.9 38.3 50.7 C39 50.4 39.6 50.1 40.1 49.7 C44.6 44.9 46.1 36 46.1 23.5 C46.1 15.9 45.3 7.3 39.3 2.7 C39.7 5.1 39.4 7.9 39.3 10.5 C37 9.1 34.7 8.5 32 8.4 C28.1 8.3 25.3 5.9 22.2 8.3 C26.8 9.3 26.4 11.4 28.9 12.2 C21.3 13.3 17.4 14.3 11.3 20.8 C6.4 26 0.8 35.9 2.3 42.3 C3.4 39.5 6.9 38.8 10.2 38.2 C7.4 42.7 4.5 46.9 5.6 52 C6.6 48.4 9.4 47.1 12.4 44.8 C11.6 48.5 11.6 51.8 12.4 55.4 C13.4 55.2 13.1 55.1 14.1 54.9 C13.5 48.4 18 40.3 22.9 37.3 C24.3 36.4 26.7 35.7 29.3 35.4 z" opacity="0.15" id="g2" /><circle cx="32.5" cy="45.2" r="6.7" id="h2" fill="#282421" /><path d="M33.4 47 C34.4 47 35.2 46.2 35.2 45.2 C35.2 44.2 34.4 43.4 33.4 43.4 C32.4 43.4 31.6 44.2 31.6 45.2 C31.6 46.2 32.4 47 33.4 47 z" id="i2" fill="#FFF" /><path d="M29.4 40.7 C30.6 40 33.1 39 33.4 40 C33.7 41.2 31.9 40.9 30.7 41.9 C29.4 43 29 43.4 28.3 44.2 C27.7 44.8 27.3 42 29.4 40.7 z" id="j2" fill="#FFF" /></g></g><g transform="translate(104.1, 89.39996) translate(67, 29)" id="k2"><g id="l2"><path d="M24.4 41.6 C22.4 38.1 18.3 36 14.3 36.5 C10.3 37 6.8 39.9 5.7 43.8 C4.6 47.6 5.1 51.8 8.8 53.1 C12.2 54.4 20.1 54.9 23.5 52.9 C27 50.8 26.4 45.1 24.4 41.6 z" id="m2" fill="#2C2F31" /><circle cx="15.5" cy="45.2" r="6.7" id="n2" fill="#282421" /><path d="M14.6 47 C13.6 47 12.8 46.2 12.8 45.2 C12.8 44.2 13.6 43.4 14.6 43.4 C15.6 43.4 16.4 44.2 16.4 45.2 C16.4 46.2 15.6 47 14.6 47 z" id="o2" fill="#FFF" /><path d="M18.6 40.7 C17.4 40 14.9 39 14.6 40 C14.3 41.2 16.1 40.9 17.3 41.9 C18.6 43 19 43.4 19.7 44.2 C20.3 44.8 20.7 42 18.6 40.7 z" id="p2" fill="#FFF" /><path d="M38.9 21.2 C32.4 14.3 29.3 13 21.2 11.8 C23.9 10.9 22.9 9.4 27.8 8.3 C24.5 5.7 21 7 16.8 7.1 C14 7.2 11.6 7 9.1 8.5 C9 5.8 9.2 3.1 9.6 0.5 C3.2 5.4 0.4 16 0.4 24.1 C0.4 37.4 3.8 46.9 5.7 50.1 C5.8 34.3 19.9 35.7 25.1 38.8 C30.3 41.9 33.7 50.6 33.1 57.5 C34.2 57.7 35.2 57.9 36.3 58.1 C37.2 54.2 37.1 50.7 36.3 46.8 C39.5 49.2 41.8 52.7 42.9 56.5 C44.1 51 43 45 40 40.2 C43.5 40.8 45.4 44 46.6 47 C48.1 40.3 44.2 26.9 38.9 21.2 z" id="q2" fill="#2C2F31" /><path d="M25.1 38.9 C30.4 42.1 33.7 50.7 33.1 57.6 C34.2 57.8 35.2 58 36.3 58.2 C37.2 54.3 37.1 50.8 36.3 46.9 C39.5 49.3 41.8 52.8 42.9 56.6 C44.1 51.1 43 45.1 40 40.3 C43.5 40.9 45.4 44.1 46.6 47.1 C48.2 40.3 44.2 26.9 38.9 21.2 C32.4 14.3 29.3 13 21.2 11.8 C23.9 10.9 22.9 9.4 27.8 8.3 C24.5 5.7 21 7 16.8 7.1 C14 7.2 11.6 7 9.1 8.5 C9 5.8 9.2 3.1 9.6 0.5 C3.2 5.4 0.4 16 0.4 24.1 C0.4 31.8 1.6 38.6 3 43.6 C4 47.3 5.5 50.3 6.8 52 C7.3 52.4 7.9 52.8 8.7 53.1 C12.1 54.4 20 54.9 23.4 52.9 C26.9 50.8 26.3 45.1 24.3 41.6 C23 39.3 20.8 37.6 18.3 36.9 C21.1 37.1 23.6 38 25.1 38.9 z M18.7 35.4 L14 36.3 C16.3 37 21.1 38.5 22.4 40.7 C24.3 44 26.1 48.7 22.8 50.7 C19.6 52.6 12.9 51.9 9.7 50.7 C9 50.4 8.4 50.1 7.9 49.7 C3.4 44.9 1.9 36 1.9 23.5 C1.9 15.9 2.7 7.3 8.7 2.7 C8.3 5.1 8.6 7.9 8.7 10.5 C11 9.1 13.3 8.5 16 8.4 C19.9 8.3 22.7 5.9 25.8 8.3 C21.2 9.3 21.6 11.4 19.1 12.2 C26.7 13.3 30.6 14.3 36.7 20.8 C41.7 26.2 47.3 36.1 45.8 42.5 C44.7 39.7 41.2 39 37.9 38.4 C40.7 42.9 43.6 47 42.5 52.2 C41.5 48.6 38.7 47.3 35.7 45 C36.5 48.7 36.5 52 35.7 55.6 C34.7 55.4 35 55.3 34 55.1 C34.6 48.6 30.1 40.5 25.2 37.5 C23.6 36.4 21.2 35.7 18.7 35.4 z" opacity="0.15" id="r2" /></g></g></g></g></g></g><defs><g transform="translate(17.09519, 0.800995) translate(-135.2952, -293.601)" id="s2" fill="#000"><path d="M118.2 302.7 C118.4 307.4 132.5 311.2 149.8 311.2 C167.1 311.2 181.2 307.4 181.4 302.7 C181.4 307.5 181.4 310.1 181.4 310.5 C181.4 315.3 167.3 319.1 149.8 319.1 C132.3 319.1 118.2 315.2 118.2 310.5 L118.2 302.7 L118.2 302.7 z" fill-opacity="0.4528" id="t2" fill="#593001" /><path d="M118.7 301.7 C118.9 306.4 133 310.2 150.3 310.2 C167.6 310.2 181.7 306.4 181.9 301.7 C181.9 306.5 181.9 309.1 181.9 309.5 C181.9 314.3 167.8 318.1 150.3 318.1 C132.8 318.1 118.7 314.2 118.7 309.5 L118.7 301.7 L118.7 301.7 z" id="u2" fill="#DA8113" /><linearGradient x1="46.0545" y1="-118.6926" x2="45.4656" y2="-118.6926" gradientUnits="userSpaceOnUse" gradientTransform="matrix(117.135, 0, 0, 28.4634, -5208.417, 3687.795)" id="v2"><stop offset="0%" stop-color="#D9952A" stop-opacity="1" /><stop offset="6.438854%" stop-color="#CA7519" stop-opacity="1" /><stop offset="30.54%" stop-color="#E3AD3A" stop-opacity="1" /><stop offset="51.05%" stop-color="#FFEC91" stop-opacity="1" /><stop offset="68.8%" stop-color="#E9BD44" stop-opacity="1" /><stop offset="86.24%" stop-color="#FFED6C" stop-opacity="1" /><stop offset="93.87%" stop-color="#F2D353" stop-opacity="1" /><stop offset="100%" stop-color="#F2B947" stop-opacity="1" /></linearGradient><path d="M118.2 301.6 C118.4 306.1 132.7 309.7 150.3 309.7 C167.9 309.7 182.2 306.1 182.4 301.6 C182.4 306.2 182.4 308.7 182.4 309 C182.4 313.5 168 317.2 150.3 317.2 C132.6 317.2 118.2 313.5 118.2 309 L118.2 301.6 L118.2 301.6 z" id="w2" style="fill:url(#v2)" /><linearGradient x1="45.4914" y1="-117.9547" x2="45.9407" y2="-117.5895" gradientUnits="userSpaceOnUse" gradientTransform="matrix(115.425, 0, 0, 29.925, -5125.077, 3826.124)" id="x2"><stop offset="0%" stop-color="#F4E072" stop-opacity="1" /><stop offset="100%" stop-color="#DB9427" stop-opacity="1" /></linearGradient><ellipse cx="150.3" cy="301.5" rx="31.6" ry="8.2" id="y2" style="fill:url(#x2)" /><linearGradient x1="45.4656" y1="-126.0065" x2="46.0545" y2="-126.0065" gradientUnits="userSpaceOnUse" gradientTransform="matrix(117.135, 0, 0, 18.6219, -5208.417, 2651.479)" id="z2"><stop offset="0%" stop-color="#D9952A" stop-opacity="1" /><stop offset="6.438854%" stop-color="#CA7519" stop-opacity="1" /><stop offset="30.54%" stop-color="#E3AD3A" stop-opacity="1" /><stop offset="51.05%" stop-color="#FFEC91" stop-opacity="1" /><stop offset="68.8%" stop-color="#E9BD44" stop-opacity="1" /><stop offset="86.24%" stop-color="#FFED6C" stop-opacity="1" /><stop offset="93.87%" stop-color="#F2D353" stop-opacity="1" /><stop offset="100%" stop-color="#F2B947" stop-opacity="1" /></linearGradient><path d="M119.2 299.9 C119 300.2 118.9 300.6 118.9 301 C118.9 305.5 132.9 309.2 150.3 309.2 C167.7 309.2 181.7 305.5 181.7 301 C181.7 300.6 181.6 300.3 181.4 299.9 C182 300.5 182.4 301.2 182.4 301.9 C182.4 306.4 168 310.1 150.3 310.1 C132.6 310.1 118.2 306.4 118.2 301.9 C118.2 301.3 118.6 300.6 119.2 299.9 z" id="a3" style="fill:url(#z2)" /><linearGradient x1="45.196" y1="-121.5895" x2="45.3746" y2="-120.6758" gradientUnits="userSpaceOnUse" gradientTransform="matrix(101.745, 0, 0, 23.94, -4458.332, 3199.41)" id="b3"><stop offset="0%" stop-color="#F8DD61" stop-opacity="1" /><stop offset="100%" stop-color="#EAA330" stop-opacity="1" /></linearGradient><ellipse cx="150.3" cy="300.8" rx="27.8" ry="6.6" id="c3" style="fill:url(#b3)" /><linearGradient x1="45.5694" y1="-134.267" x2="45.0221" y2="-134.267" gradientUnits="userSpaceOnUse" gradientTransform="matrix(101.745, 0, 0, 13.2525, -4458.332, 2077.223)" id="d3"><stop offset="0%" stop-color="#F4CA2F" stop-opacity="1" /><stop offset="51.38%" stop-color="#BF7737" stop-opacity="1" /><stop offset="100%" stop-color="#E4A929" stop-opacity="1" /></linearGradient><path d="M122.6 301.5 C122.5 301.3 122.4 301 122.4 300.8 C122.4 297.2 134.9 294.2 150.2 294.2 C165.5 294.2 178 297.1 178 300.8 C178 301 177.9 301.3 177.8 301.5 C176.3 298.2 164.5 295.6 150.1 295.6 C135.7 295.6 124.1 298.2 122.6 301.5 z" id="e3" style="fill:url(#d3)" /></g></defs><desc>566DE2K7EFH,S7MdBAdvUKPGzzbTlXMv4+3jgm986StsADZhD333v1eXaGIE3EgJ6usYmbnw8bpnb8G8+Pg1siyCwj5LG1N0MajU+erNryosxo6slP2jFFM=</desc></svg>