<?xml version="1.0" encoding="utf-8"?><!DOCTYPE svg PUBLIC "-//W3C//DTD SVG 1.1//EN" "http://www.w3.org/Graphics/SVG/1.1/DTD/svg11.dtd"><svg x="0" y="0" width="340px" height="340px" viewBox="0, 0, 340, 340" preserveAspectRatio="xMidYMid" font-size="0" id="a" enable-background="new 0 0 340 340" xmlns="http://www.w3.org/2000/svg" xmlns:xlink="http://www.w3.org/1999/xlink" xmlns:xml="http://www.w3.org/XML/1998/namespace" version="1.1"><g id="b" fill="#000"><g id="c"><g transform="translate(0, 0) translate(0, 224)" id="d"><ellipse cx="168.6" cy="53.1" rx="57.8" ry="12.8" fill-opacity="0.25" id="e" /></g><g id="f"><g transform="translate(103.8, 99.19998) translate(20.5, 139.5) scale(-1, 1) translate(-20.5, -139.5) translate(0, 122)" id="g"><g id="h"><path d="M28.3 1.5 C38.6 0.6 40.4 9.4 40.6 11.6 C39.9 11.2 39.2 10.8 38.5 10.4 C39.3 12.6 39.7 15.1 39.7 17.8 C38.6 16.4 36.7 14.8 34.9 13.9 C35.7 15.2 36.5 16.5 37.4 17 C35.4 17.6 34.6 18.2 31 17.7 C28.6 17.4 27.5 17.8 24.4 18.3 C23.8 18.4 19.5 10.8 21.8 5.7 C23.2 3.5 27.3 1.5 28.3 1.5 z" id="i" fill="#EFE9E6" /><path d="M6 15 C9.4 15.8 13.3 15.1 15.9 12.7 C16.5 12.2 17 11.5 17.6 10.9 C19.7 7.6 21.8 4.2 23.8 0.9 C23.8 1.7 23.7 2.5 23.6 3.2 C25 2.2 26.5 1.5 28.3 1.3 C25.8 4 23.8 7.1 22.4 10.5 C22.8 10.5 23.3 10.4 23.8 10.3 C24.8 10 26.6 9.5 27.4 8.4 C27.4 10.5 26.9 11.4 26.2 12.1 C28.3 11.9 30.4 12.2 32.4 13 C29.6 13.4 27.8 16.2 25.4 17.6 C25.5 17.6 28.8 17 30.9 17.9 C31 18.1 31.1 18.4 31.2 18.6 C32.2 21 32.3 23.7 31.5 26.1 C30.7 24.4 29.5 22.8 28.1 21.5 C28.6 25.5 27.5 29.7 25.6 32.8 C25.4 29.1 25.6 25.3 21.5 23.8 C23.2 26.6 21.3 31.3 20.7 34.1 C20.5 31.6 20.2 29.1 19.1 26.8 C16.2 20.4 14.9 21 9.6 21.6 C6.3 21.9 1.1 21 1 18.4 C0.9 15.8 4.2 14.6 6 15 z" id="j" fill="#32363A" /><path d="M30 17.6 C30.3 17.7 30.6 17.8 30.9 17.9 C31 18.1 31.1 18.4 31.2 18.6 C32.2 21 32.3 23.7 31.5 26.1 C30.7 24.4 29.5 22.8 28.1 21.5 C28.6 25.5 27.5 29.7 25.6 32.8 C25.4 29.1 25.6 25.3 21.5 23.8 C23.2 26.6 21.3 31.3 20.7 34.1 C20.5 31.6 20.2 29.1 19.1 26.8 C16.2 20.4 14.9 21 9.6 21.6 C6.3 21.9 1.1 21 1 18.4 C0.9 15.8 4.2 14.6 6 15 C9.4 15.8 13.3 15.1 15.9 12.7 C16.5 12.2 17 11.5 17.6 10.9 C19.7 7.6 21.8 4.2 23.8 0.9 C23.8 1.7 23.7 2.5 23.6 3.2 C25 2.2 26.5 1.5 28.3 1.3 C28.2 1.4 28.2 1.4 28.1 1.5 C28.2 1.5 28.2 1.5 28.3 1.5 C38.6 0.6 40.4 9.4 40.6 11.6 L38.5 10.4 C39.3 12.6 39.7 15.1 39.7 17.8 C38.6 16.4 36.7 14.8 34.9 13.9 C35.7 15.2 36.5 16.5 37.4 17 C35.4 17.6 34.6 18.2 31 17.7 C30.6 17.7 30.3 17.6 30 17.6 z M29.8 16.1 C29.5 16 33.3 16.9 35.1 16.4 C34.3 15.9 34.1 13.3 33.3 12.1 C35 12.9 37.9 14.3 38.9 15.6 C38.9 13.2 38.2 10.6 37.5 8.7 L39.8 10 C39.7 8.1 37 1.6 27.7 2.4 C27.6 2.4 28.5 2 28.4 2 C28.5 1.9 28.5 1.9 28.6 1.8 C27 2 24.4 4.3 23.2 5.2 C23.2 4.6 23.2 3.4 23.2 2.7 C21.3 5.6 20.8 7.4 18.9 10.3 C18.4 10.9 17.9 11.5 17.4 11.9 C15 14.1 11 16.9 7.9 16.2 C6.2 15.8 2.7 15.8 2.8 18.1 C2.9 20.4 8.7 20.1 11.6 19.8 C16.5 19.3 16.6 18.2 19.2 23.9 C20.2 25.9 20.7 26.4 20.8 28.6 C21.4 26.1 21.2 24.2 19.7 21.7 C23.4 23 25.9 24.9 26.1 28.2 C27.8 25.5 26.9 22.7 26.5 19.2 C27.8 20.3 30.3 21.7 31.1 23.2 C31.8 21.1 30 19.5 29.1 17.3 C29 17.2 29.8 16.3 29.8 16.1 z" opacity="0.15" id="k" /></g></g><g transform="translate(120.6, 273.4) scale(1.288809) translate(-120.6, -273.4) translate(95.10001, 88.19997) translate(17, 134)" id="l"><path d="M3.2 22.3 C1.8 20.2 0.9 17.9 0.7 15.3 C0.2 8.8 5.5 2.5 11.9 1.2 C18.3 -0.1 25.2 2.9 29.1 8.2 C32.2 12.3 32.5 17.4 32.6 22.6 C32.6 24 5.5 25.8 3.2 22.3 z" id="m" fill="#AA6F4F" /><path d="M12.6 31.2 C9 28.7 5.3 25.7 3 22 C4.3 21.1 5.9 20.5 7.6 20.1 C15.5 18 28 20.5 32.5 22.2 C32.5 23.8 32.6 25.4 32.6 26.9 C32.7 29.8 36 37.8 36 37.8 C34.6 41.9 31.1 44.9 27.7 47.7 C27.3 48 26.9 48.3 26.5 48.7 C23.3 51.4 24.3 54.8 19.2 54.5 C15 54.3 9.2 55.3 5.3 53.7 C2 49.3 5.1 40.6 11.7 40.2 C16.6 39.9 19.1 39.2 18 36.8 C16.9 34.4 14.8 32.7 12.6 31.2 z" id="n" fill="#E8E5E3" /><path d="M3 22 C1.7 20 0.9 17.8 0.7 15.3 C0.2 8.8 5.5 2.5 11.9 1.2 C18.3 -0.1 25.2 2.9 29.1 8.2 C32.2 12.3 32.5 17.4 32.6 22.6 C32.6 22.6 32.6 22.7 32.5 22.7 C32.5 24.1 32.6 25.5 32.6 26.9 C32.7 29.8 36 37.8 36 37.8 C34.6 41.9 31.1 44.9 27.7 47.7 C27.3 48 26.9 48.3 26.5 48.7 C23.3 51.4 24.3 54.8 19.2 54.5 C15 54.3 9.2 55.3 5.3 53.7 C2 49.3 5.1 40.6 11.7 40.2 C16.6 39.9 19.1 39.2 18 36.8 C16.9 34.4 14.8 32.7 12.6 31.2 C9 28.7 5.3 25.7 3 22 L3 22 z M1.7 15 C1.9 17.3 2.7 19.4 3.9 21.3 C6.1 24.8 9.6 27.6 12.9 30 C15 31.4 18.1 34 19.1 36.2 C20.1 38.4 18.8 41 14.2 41.3 C8 41.7 3.9 46.6 7 50.8 C10.7 52.3 15.2 51.8 19.1 52 C24 52.2 23 49 26 46.5 C26.4 46.1 26.8 45.8 27.1 45.6 C30.3 43 32 41 33.3 37.1 C33.3 37.1 31.8 28.7 31.7 26 C31.7 24.7 31.6 23.4 31.6 22.1 C31.7 22.1 31.7 22 31.7 22 C31.6 17.1 31.3 12.3 28.4 8.4 C24.7 3.4 18.2 0.6 12.2 1.8 C6.2 3 1.2 8.9 1.7 15 z" opacity="0.15" id="o" /></g><g transform="translate(214.3, 273.4) scale(1.288809) translate(-214.3, -273.4) translate(108.3, 88.19997) translate(83, 134)" id="p"><path d="M25.6 26.1 C30.2 22 32.1 22.1 32.6 15.3 C33.1 8.8 27.8 2.5 21.4 1.2 C15 -0.2 8.1 2.9 4.2 8.2 C0.3 13.5 0.2 20.6 1.3 26.8 C1.7 29.6 23.6 27.9 25.6 26.1 z" id="q" fill="#AA6F4F" /><path d="M20.6 31.2 C24.2 28.7 27.9 25.7 30.2 22 C28.9 21.1 27.3 20.5 25.6 20.1 C17.7 18 5.2 20.5 0.7 22.2 C0.7 23.8 2.1 45 5.4 47.7 C5.8 48 6.2 48.3 6.6 48.7 C9.8 51.4 8.8 54.8 13.9 54.5 C18.1 54.3 23.9 55.3 27.8 53.7 C31.1 49.3 28 40.6 21.4 40.2 C16.5 39.9 14 39.2 15.1 36.8 C16.2 34.4 18.5 32.7 20.6 31.2 z" id="r" fill="#E8E5E3" /><path d="M0.7 22.2 C0.4 17.3 1.2 12.2 4.2 8.2 C8.1 2.9 15 -0.2 21.4 1.2 C27.8 2.5 33.1 8.8 32.6 15.3 C32.3 19.4 31.5 21 29.9 22.5 C27.6 26 24.1 28.8 20.6 31.2 C18.5 32.7 16.2 34.4 15.1 36.8 C14 39.2 16.5 39.9 21.4 40.2 C28 40.6 31.1 49.3 27.8 53.7 C23.9 55.3 18.1 54.3 13.9 54.5 C8.8 54.8 9.8 51.4 6.6 48.7 C6.2 48.3 5.8 48 5.4 47.7 C2.1 45 0.7 23.8 0.7 22.2 C0.7 22.2 0.7 22.2 0.7 22.2 z M4.8 8.2 C2 12 1.3 16.8 1.5 21.5 C1.5 23 3.4 42.5 6.5 45.1 C6.9 45.4 7.5 46.6 7.9 47 C10.9 49.6 9.2 52.5 14 52.2 C18 52 23.5 53 27.2 51.4 C30.3 47.2 26.2 42 19.9 41.6 C15.3 41.3 12.6 39.3 13.6 37 C14.6 34.7 18.3 31.5 20.3 30.1 C23.5 27.8 26.9 25.2 29.1 21.9 C30.6 20.5 31.4 18.9 31.7 15 C32.2 8.8 27.1 2.9 21.1 1.6 C15.1 0.2 8.5 3.2 4.8 8.2 z" opacity="0.15" id="s" /></g><g transform="translate(85.90001, 85.79997) translate(35, 41)" id="t"><path d="M14.8 19.9 C11.3 33.7 12.9 36.6 9.3 47.7 C5.7 58.8 1.3 70.5 3.2 87.6 C4.6 100.8 11.8 132.8 17.6 146.9 C19.3 151.1 22.5 152.3 23.4 152.6 C27.2 154.2 66.3 154.3 72.2 152.6 C73.3 152.3 76.3 151.4 77.8 148.1 C84.6 134.1 92.8 97 94.1 87.6 C96.2 75.3 92.7 55.1 88.5 47.9 C82.5 37.5 82.5 23 81.3 20.8 C79.3 16.1 75.6 10.6 66.6 4.4 C63.9 2.5 51.7 0.7 49.1 0.8 C45.4 0.9 37.4 2 34.5 4.5 C28.5 9.6 16.7 12.5 14.8 19.9 z" id="u" fill="#EBB67F" /><path d="M14.8 19.9 C16.7 12.5 28.5 9.6 34.5 4.5 C37.4 2 45.4 0.9 49.1 0.8 C51.7 0.7 63.9 2.5 66.6 4.4 C75.6 10.6 79.3 16.1 81.3 20.8 C82.5 23 82.5 37.5 88.5 47.9 C92.7 55.1 96.2 75.3 94.1 87.6 C92.8 97 84.6 134.1 77.8 148.1 C76.3 151.4 73.3 152.3 72.2 152.6 C66.3 154.3 27.2 154.2 23.4 152.6 C22.5 152.3 19.3 151.1 17.6 146.9 C11.8 132.8 4.6 100.8 3.2 87.6 C1.3 70.5 5.7 58.8 9.3 47.7 C12.9 36.6 11.3 33.7 14.8 19.9 z M16.2 20.2 C12.8 33.5 14.4 36.3 10.9 46.9 C7.4 57.6 3.2 68.8 5 85.2 C6.4 97.8 13.3 128.6 18.9 142.1 C20.5 146.1 23.6 147.3 24.4 147.5 C28.1 149.1 65.6 149.2 71.2 147.5 C72.3 147.3 75.2 146.4 76.6 143.2 C83.1 129.8 91 94.2 92.3 85.2 C94.3 73.4 90.9 54 86.9 47.1 C81.1 37.1 81.1 23.2 80 21.1 C78.1 16.6 74.5 11.3 65.9 5.4 C63.3 3.5 51.6 1.8 49.1 1.9 C45.5 2 37.9 3.1 35.1 5.5 C29.3 10.3 18 13.1 16.2 20.2 z" opacity="0.15" id="v" /></g><g transform="translate(118.495, 171.745) scale(1.3, 1.05169) translate(-130.3, -177.7) translate(90.90001, 84.79997) translate(78.5, 145.5) scale(-1, 1) translate(-78.5, -145.5) translate(39, 92)" id="w"><path d="M68.1 2.7 C65.6 5.6 57.8 23.3 40.2 24.2 C21.5 24.9 13.3 5.5 10.6 0.9 C7 8.7 1.1 13.8 0.5 26.6 C-0.1 39.4 4.4 46.5 6.7 52.8 C8.4 57.4 10.7 64.5 12.6 73.4 C13.3 76.6 15 81.2 15 84.3 C15.3 96.3 17.5 91.7 13.2 94.2 C8.9 96.7 5.2 101.6 6.7 104.5 C8.2 107.4 29.2 104.1 30.2 102.9 C30.7 102.3 30.9 95.4 30.7 74 C30.6 70.2 29.5 64.3 29.2 57 C29.1 53.6 30 50.6 29.7 46.2 C33.7 48.7 35.2 49.7 38.2 49.6 C41 49.7 42.2 48 46.8 45.5 C46.8 49.8 47.8 53.2 47.9 56.9 C48 63.8 47.3 70.3 47.2 74 C46.9 94.5 47.2 102.3 48 103.5 C49.2 105.2 56.8 106.1 70.8 106 C72.5 103.2 72.5 100.8 70.8 98.8 C69.1 96.8 66.2 94.7 62.2 92.4 C63.3 83.7 63.9 81.2 65.2 75.5 C66.2 71 67.7 62.7 68.7 60.2 C72.3 51.4 78.4 40.6 78.5 28.7 C78.6 16.8 72.4 8 68.1 2.7 z" id="x" fill="#F9F9F9" /><path d="M68.1 2.7 C72.4 8 78.5 16.8 78.4 28.7 C78.3 40.6 72.2 51.4 68.6 60.2 C67.6 62.8 66 71 65.1 75.5 C63.9 81.2 63.2 83.7 62.1 92.4 C66.1 94.7 69 96.8 70.7 98.8 C72.4 100.8 72.4 103.2 70.7 106 C56.7 106.1 49.1 105.2 47.9 103.5 C47.1 102.3 46.8 94.5 47.1 74 C47.2 70.3 47.9 63.8 47.8 56.9 C47.7 53.1 46.7 49.8 46.7 45.5 C42.1 48 40.9 49.7 38.1 49.6 C35.1 49.7 33.6 48.7 29.6 46.2 C30 50.6 29 53.6 29.2 57 C29.5 64.3 30.6 70.2 30.7 74 C30.9 95.4 30.7 102.3 30.2 102.9 C29.2 104.1 8.2 107.4 6.7 104.5 C5.2 101.6 8.9 96.7 13.2 94.2 C17.5 91.7 15.3 96.3 15 84.3 C14.9 81.1 13.2 76.6 12.6 73.4 C10.7 64.5 8.4 57.5 6.7 52.8 C4.4 46.5 -0.1 39.4 0.5 26.6 C1.1 13.8 7 8.7 10.6 0.9 C13.3 5.5 21.5 24.9 40.2 24.2 C57.8 23.3 65.6 5.6 68.1 2.7 z M68.1 3.9 C66.9 6.2 63.6 12.3 57.5 17.9 C52.5 22.5 44.3 27.3 38.5 27.3 C34.8 27.5 26 22.6 22.4 19.5 C17.8 15.6 11.8 5.2 10.6 1.4 C7.1 8.9 2.7 15.8 2.1 28 C1.5 40.2 5.9 45.5 8.1 51.5 C9.7 55.9 12.8 63.9 14.6 72.4 C15.2 75.4 16.9 80.5 17 83.5 C17.3 94.9 18.7 92.8 14.6 95.2 C10.5 97.6 7.6 99.2 9 101.9 C10.4 104.6 27 101.6 28 100.4 C28.5 99.8 28.8 95.8 28.6 75.4 C28.5 71.7 27.6 64.9 27.3 57.9 C27.2 54.7 26.9 46.1 26.6 41.9 C30.4 44.3 35 48 37.9 47.9 C40.6 48 45.9 43.8 50.3 41.4 C50.3 45.5 50.1 52.2 50.1 55.8 C50.2 62.3 49.2 68.8 49.2 72.3 C48.9 91.8 49.3 99.6 50 100.8 C51.1 102.4 55.2 104 68.5 103.9 C70.1 101.2 70.8 100.5 69.2 98.6 C67.6 96.7 64.2 95 60.4 92.8 C61.5 84.5 62.1 79.7 63.3 74.3 C64.2 70 65.8 62 66.8 59.5 C70.2 51.1 76.5 41.1 76.6 29.8 C76.6 18.6 72.2 8.9 68.1 3.9 z" opacity="0.15" id="y" /></g></g><g transform="translate(169.6, 177.3) scale(0.7539756) translate(-169.6, -177.3)" id="z"><g transform="translate(105.1, 77.09998) translate(11, 4)" id="a1"><path d="M13.1 100.8 C26 110.4 41.7 108.9 54.5 108.5 C69.5 108.1 82.4 109.3 95.6 99.6 C120.5 81.3 107.4 67 105.9 38.5 C104.9 19.5 91.6 8.7 65.8 6 L65.8 0.4 L62.2 6 L59.8 0.4 L59.8 3.7 L51.9 0.4 L53.3 6 C25.5 5.4 10.2 16.9 7.6 40.5 C4.7 66.1 -8.7 84.7 13.1 100.8 z" id="b1" fill="#EBB67F" /><path d="M13.1 100.8 C-8.7 84.7 4.7 66.1 7.6 40.5 C10.2 16.9 25.5 5.4 53.3 6 L51.9 0.4 L59.8 3.7 L59.8 0.4 L62.2 6 L65.9 0.4 L65.9 6.1 C91.7 8.8 105 19.6 106 38.6 C107.5 67.1 120.6 81.4 95.7 99.7 C82.5 109.4 69.6 108.2 54.6 108.6 C41.7 109 26 110.4 13.1 100.8 z M15.3 97.3 C27.5 106.5 42.4 105.1 54.6 104.7 C68.8 104.3 81.1 105.5 93.6 96.2 C117.2 78.7 104.8 65 103.4 37.8 C102.5 19.6 89.9 9.6 65.4 7 L65.5 2.1 L62.2 7.6 L60.2 2.3 L60.5 5.1 L52.4 1.3 L54.3 7 C28 6.4 12.6 17 10.1 39.6 C7.3 64 -5.3 81.9 15.3 97.3 z" opacity="0.15" id="c1" /></g><g transform="translate(138.8, 109.1) scale(0.7, 0.8) translate(-132.8, -109.1) translate(91.40001, 63.39997) translate(16, 0)" id="d1"><g id="e1"><path d="M27.8 10.3 C24.4 3.6 20.9 -0.6 19.4 0.1 C16.2 1.6 11.7 10.8 8.9 17.1 C4.7 22.1 0.8 27.6 0.3 34.1 C1.2 33.3 2.1 32.4 3 31.6 C1.5 36.6 1.5 42.1 3.2 47.1 C3.5 46.3 3.8 45.5 4.2 44.7 C5.2 50.9 7.8 57.6 13.6 56.5 C22.4 54.8 36.6 44.1 38.7 35.7 C40.4 28.5 32.1 18.9 27.8 10.3 z" id="f1" fill="#66493D" /><path d="M27.8 10.3 C32.1 18.9 40.4 28.5 38.7 35.7 C36.6 44.1 22.4 54.8 13.6 56.5 C7.8 57.6 5.2 50.9 4.2 44.7 C3.8 45.5 3.5 46.3 3.2 47.1 C1.5 42.1 1.5 36.6 3 31.6 C2.1 32.4 1.2 33.3 0.3 34.1 C0.8 27.6 4.7 22.1 8.9 17.1 C11.7 10.8 16.2 1.6 19.4 0.1 C20.9 -0.6 24.4 3.6 27.8 10.3 z M26.9 10.9 C23.9 4.9 20.7 1.2 19.4 1.8 C16.6 3.1 12.5 11.3 10 17 C6.2 21.5 2.8 25 2.4 30.8 C3.2 30.1 4.1 29.7 4.9 29 C3.6 33.5 2.3 38.1 3.8 42.6 C4.1 41.9 5.4 40.9 5.8 40.2 C6.7 45.7 9 53.2 14.2 52.3 C22.1 50.8 34.8 41.2 36.6 33.7 C38.2 27.2 30.8 18.6 26.9 10.9 z" opacity="0.15" id="g1" /><path d="M25 34.7 C26.2 33.7 27.6 32.5 29 31.9 C25 31.5 20.8 32.4 17.3 34.5 C19.1 29.2 23.9 26.3 29.5 27 C29.5 26.9 29.5 26.9 29.4 26.8 C28.1 25.8 25.2 24.8 23.1 25.1 C24.3 22.1 24.6 20.1 25.8 17.1 C24.4 17.4 22.3 16.9 20.6 18.2 L19.7 15.6 C19.7 15.6 22.4 12.4 23.4 12.3 C21.9 9.8 20.5 8.2 19.5 8.3 C14.8 8.8 13.9 20 11.5 28.5 C10 33.6 9.2 44.3 11.5 48.5 C13.1 51.6 18.1 45.7 21.3 44.4 C21.3 44.4 26.6 40.2 30.6 40.3 C30.7 40.3 30.8 40.3 30.9 40.2 C29.5 37.8 27.5 35.9 25 34.7 z" id="h1" fill="#AA6F4F" /></g></g><g transform="translate(202.5, 105.1) scale(0.7, 0.8) translate(-208.5, -105.1) translate(117.3, 59.39997) translate(97.5, 28.5) scale(-1, 1) translate(-97.5, -28.5) translate(78, 0)" id="i1"><path d="M0.3 34.1 C0.7 27.5 4.6 22.1 8.9 17.1 C11.7 10.8 16.2 1.6 19.4 0.1 C20.9 -0.6 24.4 3.7 27.8 10.3 C32.1 18.9 40.3 28.5 38.6 35.6 C36.2 46.2 22.4 55.5 13.5 56.4 C7.7 57 5.2 50.6 4.1 44.6 C3.7 45.4 3.4 46.2 3.1 47 C1.5 42 1.4 36.5 2.9 31.5 C2.1 32.4 1.2 33.3 0.3 34.1 z" id="j1" fill="#66493D" /><path d="M27.8 10.3 C32.1 18.9 40.4 28.5 38.7 35.7 C36.6 44.1 22.4 54.8 13.6 56.5 C7.8 57.6 5.2 50.9 4.2 44.7 C3.8 45.5 3.5 46.3 3.2 47.1 C1.5 42.1 1.5 36.6 3 31.6 C2.1 32.4 1.2 33.3 0.3 34.1 C0.8 27.6 4.7 22.1 8.9 17.1 C11.7 10.8 16.2 1.6 19.4 0.1 C20.9 -0.6 24.4 3.6 27.8 10.3 z M26.9 10.9 C23.9 4.9 20.7 1.2 19.4 1.8 C16.5 3.1 12.5 11.3 10 17 C6.2 21.5 2.8 25 2.4 30.8 C3.2 30.1 4.1 29.7 4.9 29 C3.6 33.5 2.3 38.1 3.8 42.6 C4.1 41.9 5.4 40.9 5.8 40.2 C6.7 45.7 9 53.2 14.2 52.3 C22.1 50.8 34.8 41.2 36.6 33.7 C38.2 27.2 30.8 18.6 26.9 10.9 z" opacity="0.15" id="k1" /><path d="M11.6 28.3 C14.1 19.8 14.9 8.6 19.6 8.1 C20.7 8 22.2 9.5 23.7 12 C22.3 12.9 19.9 15.4 19.9 15.4 L20.8 18 C22.4 16.7 24.5 17.2 26 16.9 C24.8 19.9 24.5 21.9 23.3 24.9 C25.5 24.5 28.7 25.8 29.9 26.8 C24.2 26.1 19.3 28.9 17.5 34.3 C21 32.2 25.1 31.3 29.2 31.7 C27.7 32.3 26.4 33.5 25.2 34.5 C27.5 35.6 29.4 37.4 30.8 39.5 C27.8 41.4 26 42.4 21.9 45.3 C18.1 48 13.4 51.4 11.8 48.3 C9.3 44.1 10.1 33.5 11.6 28.3 z" id="l1" fill="#AA6F4F" /></g><g transform="translate(171.6, 148.3) scale(1.15) translate(-171.6, -148.3)" id="m1"><g transform="translate(104.6, 68.89997) translate(51, 30)" id="n1"><g id="o1"><path d="M30.4 60.8 C26.6 54.2 23.9 51.2 20.9 43.5 C19 34.9 16.9 19.5 18.5 15 C20.3 9.9 23.1 3.4 21.3 1.4 C19.3 -0.9 15.9 0.6 15.9 0.6 C15.9 0.6 12.5 -0.9 10.5 1.4 C8.7 3.4 11.6 9.9 13.3 15 C14.9 19.6 12.9 34.9 10.9 43.5 C7.9 51.2 5.3 54.3 1.4 60.8 C-0.9 64.8 -0.8 75.4 6.3 78 C9.1 79 14.5 79.3 15.9 79.3 C17.2 79.3 22.6 79 25.5 78 C32.6 75.4 32.8 64.8 30.4 60.8 z" id="p1" fill="#F9F9F9" /><path d="M30.4 60.8 C32.8 64.8 32.6 75.4 25.5 78 C22.6 79 17.2 79.3 15.9 79.3 C14.5 79.3 9.1 79 6.3 78 C-0.8 75.4 -0.9 64.8 1.4 60.8 C5.3 54.3 7.9 51.2 10.9 43.5 C12.9 34.9 14.9 19.6 13.3 15 C11.6 9.9 8.7 3.4 10.5 1.4 C12.5 -0.9 15.9 0.6 15.9 0.6 C15.9 0.6 19.3 -0.9 21.3 1.4 C23.1 3.4 20.3 9.9 18.5 15 C16.9 19.5 19 34.9 20.9 43.5 C23.9 51.2 26.6 54.2 30.4 60.8 z M27.6 59.1 C23.9 52.8 22.5 49.6 19.7 42.3 C17.9 34.1 16.8 17.6 18.3 13.3 C20 8.5 22.2 3.9 20.4 2 C18.5 -0.2 15.9 1.5 15.9 1.5 C15.9 1.5 13.3 0.1 11.4 2.3 C9.7 4.2 12.3 9.1 13.9 13.9 C15.4 18.3 14.3 34.1 12.4 42.3 C9.5 49.6 7.5 53.2 3.8 59.4 C1.6 63.2 0 72.7 6.8 75.1 C9.4 76.1 14.6 76.4 15.9 76.4 C17.1 76.4 22.3 76.1 25 75.1 C31.8 72.7 29.8 62.9 27.6 59.1 z" opacity="0.15" id="q1" /></g></g><g transform="translate(104.6, 68.89997) translate(54, 91)" id="r1"><g id="s1" fill="#282421"><path d="M25 7 C24.6 6.6 24 6.7 23.6 7.1 C22.1 8.8 20.4 9.7 18.5 9.8 C16.7 9.9 15.1 9.2 14.1 8.4 L14.1 1.9 C14.1 1.3 13.7 0.9 13.1 0.9 C12.5 0.9 12.1 1.4 12.1 1.9 L12.1 8.4 C11.1 9.2 9.6 9.6 7.8 9.6 C5.9 9.5 4.1 8.8 2.6 7.1 C2.2 6.7 1.6 6.6 1.2 7 C0.8 7.4 0.7 8 1.1 8.4 C3.4 11.1 6 11.7 7.7 11.8 C7.8 11.8 7.9 11.8 8 11.8 C8.8 11.8 9.5 11.7 10.1 11.5 C12.1 12.1 14.2 12.1 16.2 11.5 C16.8 11.6 18.4 11.7 18.5 11.7 C20.2 11.6 22.8 11 25.1 8.3 C25.5 8 25.5 7.4 25 7 z" id="t1" /></g></g><g transform="translate(104.6, 68.89998) translate(59, 84)" id="u1"><g id="v1"><path d="M14.8 1.5 C14 0 10.9 2 8 2 C5.1 2 2 0 1.2 1.5 C0.4 3 0.7 6.3 2.4 8.9 C3.6 10.7 8 10.9 8 10.9 C8 10.9 12.4 10.6 13.6 8.9 C15.3 6.3 15.6 3 14.8 1.5 z" id="w1" fill="#282421" /><path d="M9.3 3.5 C8.9 3.8 8.4 4.1 8.4 4.6 C8.4 5 8.8 5.3 9.1 5.4 C9.5 5.5 9.9 5.5 10.2 5.4 C11.1 5.3 12 5.2 12.6 4.7 C13.4 4 13.6 2.8 12.5 2.5 C11.6 2.2 10.1 3 9.3 3.5 z" id="x1" fill="#F5FAFC" /></g></g><g transform="translate(96.8, 96.49997) translate(48, 25)" id="y1"><g transform="translate(10.39189, 9.559633) scale(-1, 1) translate(-10.39189, -9.559633) translate(0.891892, 0.559633)" id="z1"><path d="M7 16.8 C8.5 17.2 12.9 17.1 15.3 16.8 C17.2 16.6 17.9 16.6 18.2 15.3 C18.5 14 19.8 12.3 18.7 9.2 C17 4.2 16.1 2.3 10.4 1.5 C7.1 1 4.6 -0.8 3.4 0.9 C2.5 2.3 1 7.8 1 10.6 C1 16.8 1.3 15.3 7 16.8 z" id="a2" fill="#F9F9F9" /><path d="M9.2 17.1 C11.4 17.1 13.3 15.9 14.5 14.2 C15.1 13.3 14.8 11.9 14.5 10.8 C13.8 7.8 11.3 5.7 7.9 5.7 C4.5 5.7 2.4 7.6 1.3 10.3 C0.9 11.2 0.4 12.9 0.8 13.7 C1.4 16.8 6.8 17.1 9.2 17.1 z" id="b2" fill="#282421" /><g transform="translate(4.324324, 7.761468)" id="c2"><path d="M4.8 1.9 C4.8 0.7 3.8 -0.2 2.6 -0.2 C1.5 -0.2 0.5 0.8 0.5 2 C0.5 3.2 1.5 4.2 2.7 4.2 C2.7 4.1 2.7 4.1 2.7 4 C2.5 3.5 2.6 3 3.1 2.5 C3.7 1.9 4.2 1.8 4.8 1.9 z" id="d2" fill="#FFF" /><circle cx="4.2" cy="3.5" r="1" id="e2" fill="#FFF" /></g></g></g><g transform="translate(92.39999, 96.49997) translate(86, 25)" id="f2"><g transform="translate(0.864865, 0.559633)" id="g2"><g transform="translate(0.378378, 0)" id="h2"><path d="M5.7 16.8 C7.2 17.2 11.6 17.1 14 16.8 C15.9 16.6 16.6 16.6 16.9 15.3 C17.2 14 18.5 12.3 17.4 9.2 C15.7 4.2 14.8 2.3 9.1 1.5 C5.8 1 3.3 -0.8 2.2 0.9 C1.2 2.3 -0.2 7.8 -0.2 10.5 C-0.3 16.8 0 15.3 5.7 16.8 z" id="i2" fill="#F9F9F9" /><path d="M8 17.1 C10.2 17.1 12.1 15.9 13.3 14.2 C13.9 13.3 13.6 11.9 13.3 10.8 C12.6 7.8 10.1 5.7 6.7 5.7 C3.3 5.7 1.2 7.6 0.1 10.3 C-0.3 11.2 -0.8 12.9 -0.4 13.7 C0.2 16.8 5.6 17.1 8 17.1 z" id="j2" fill="#282421" /><g transform="translate(8.743243, 10.26147) scale(-1, 1) translate(-8.743243, -10.26147) translate(6.243243, 7.761468)" id="k2"><path d="M5 1.9 C5 0.7 4 -0.2 2.8 -0.2 C1.7 -0.2 0.7 0.8 0.7 2 C0.7 3.2 1.7 4.2 2.9 4.2 C2.9 4.1 2.9 4.1 2.9 4 C2.7 3.5 2.8 3 3.3 2.5 C3.9 1.9 4.4 1.8 5 1.9 z" id="l2" fill="#FFF" /><circle cx="4.4" cy="3.5" r="1" id="m2" fill="#FFF" /></g></g></g></g></g></g></g></g><defs><g transform="translate(17.09519, 0.800995) translate(-135.2952, -293.601)" id="n2" fill="#000"><path d="M118.2 302.7 C118.4 307.4 132.5 311.2 149.8 311.2 C167.1 311.2 181.2 307.4 181.4 302.7 C181.4 307.5 181.4 310.1 181.4 310.5 C181.4 315.3 167.3 319.1 149.8 319.1 C132.3 319.1 118.2 315.2 118.2 310.5 L118.2 302.7 L118.2 302.7 z" fill-opacity="0.4528" id="o2" fill="#593001" /><path d="M118.7 301.7 C118.9 306.4 133 310.2 150.3 310.2 C167.6 310.2 181.7 306.4 181.9 301.7 C181.9 306.5 181.9 309.1 181.9 309.5 C181.9 314.3 167.8 318.1 150.3 318.1 C132.8 318.1 118.7 314.2 118.7 309.5 L118.7 301.7 L118.7 301.7 z" id="p2" fill="#DA8113" /><linearGradient x1="46.0545" y1="-118.6926" x2="45.4656" y2="-118.6926" gradientUnits="userSpaceOnUse" gradientTransform="matrix(117.135, 0, 0, 28.4634, -5208.417, 3687.795)" id="q2"><stop offset="0%" stop-color="#D9952A" stop-opacity="1" /><stop offset="6.438854%" stop-color="#CA7519" stop-opacity="1" /><stop offset="30.54%" stop-color="#E3AD3A" stop-opacity="1" /><stop offset="51.05%" stop-color="#FFEC91" stop-opacity="1" /><stop offset="68.8%" stop-color="#E9BD44" stop-opacity="1" /><stop offset="86.24%" stop-color="#FFED6C" stop-opacity="1" /><stop offset="93.87%" stop-color="#F2D353" stop-opacity="1" /><stop offset="100%" stop-color="#F2B947" stop-opacity="1" /></linearGradient><path d="M118.2 301.6 C118.4 306.1 132.7 309.7 150.3 309.7 C167.9 309.7 182.2 306.1 182.4 301.6 C182.4 306.2 182.4 308.7 182.4 309 C182.4 313.5 168 317.2 150.3 317.2 C132.6 317.2 118.2 313.5 118.2 309 L118.2 301.6 L118.2 301.6 z" id="r2" style="fill:url(#q2)" /><linearGradient x1="45.4914" y1="-117.9547" x2="45.9407" y2="-117.5895" gradientUnits="userSpaceOnUse" gradientTransform="matrix(115.425, 0, 0, 29.925, -5125.077, 3826.124)" id="s2"><stop offset="0%" stop-color="#F4E072" stop-opacity="1" /><stop offset="100%" stop-color="#DB9427" stop-opacity="1" /></linearGradient><ellipse cx="150.3" cy="301.5" rx="31.6" ry="8.2" id="t2" style="fill:url(#s2)" /><linearGradient x1="45.4656" y1="-126.0065" x2="46.0545" y2="-126.0065" gradientUnits="userSpaceOnUse" gradientTransform="matrix(117.135, 0, 0, 18.6219, -5208.417, 2651.479)" id="u2"><stop offset="0%" stop-color="#D9952A" stop-opacity="1" /><stop offset="6.438854%" stop-color="#CA7519" stop-opacity="1" /><stop offset="30.54%" stop-color="#E3AD3A" stop-opacity="1" /><stop offset="51.05%" stop-color="#FFEC91" stop-opacity="1" /><stop offset="68.8%" stop-color="#E9BD44" stop-opacity="1" /><stop offset="86.24%" stop-color="#FFED6C" stop-opacity="1" /><stop offset="93.87%" stop-color="#F2D353" stop-opacity="1" /><stop offset="100%" stop-color="#F2B947" stop-opacity="1" /></linearGradient><path d="M119.2 299.9 C119 300.2 118.9 300.6 118.9 301 C118.9 305.5 132.9 309.2 150.3 309.2 C167.7 309.2 181.7 305.5 181.7 301 C181.7 300.6 181.6 300.3 181.4 299.9 C182 300.5 182.4 301.2 182.4 301.9 C182.4 306.4 168 310.1 150.3 310.1 C132.6 310.1 118.2 306.4 118.2 301.9 C118.2 301.3 118.6 300.6 119.2 299.9 z" id="v2" style="fill:url(#u2)" /><linearGradient x1="45.196" y1="-121.5895" x2="45.3746" y2="-120.6758" gradientUnits="userSpaceOnUse" gradientTransform="matrix(101.745, 0, 0, 23.94, -4458.332, 3199.41)" id="w2"><stop offset="0%" stop-color="#F8DD61" stop-opacity="1" /><stop offset="100%" stop-color="#EAA330" stop-opacity="1" /></linearGradient><ellipse cx="150.3" cy="300.8" rx="27.8" ry="6.6" id="x2" style="fill:url(#w2)" /><linearGradient x1="45.5694" y1="-134.267" x2="45.0221" y2="-134.267" gradientUnits="userSpaceOnUse" gradientTransform="matrix(101.745, 0, 0, 13.2525, -4458.332, 2077.223)" id="y2"><stop offset="0%" stop-color="#F4CA2F" stop-opacity="1" /><stop offset="51.38%" stop-color="#BF7737" stop-opacity="1" /><stop offset="100%" stop-color="#E4A929" stop-opacity="1" /></linearGradient><path d="M122.6 301.5 C122.5 301.3 122.4 301 122.4 300.8 C122.4 297.2 134.9 294.2 150.2 294.2 C165.5 294.2 178 297.1 178 300.8 C178 301 177.9 301.3 177.8 301.5 C176.3 298.2 164.5 295.6 150.1 295.6 C135.7 295.6 124.1 298.2 122.6 301.5 z" id="z2" style="fill:url(#y2)" /></g></defs><desc>8JD52FJJJ6D,m2jVfuPJI6DYHzNqZtbbvX0L9xAiP0KaxkfgYmHYMr9TdHMmItrwTNw2EUHrdwI+WuK5q+j5archFoeV16epQgfRCxJUL+kU2DW2I/ih6sw=</desc></svg>