<?xml version="1.0" encoding="utf-8"?><!DOCTYPE svg PUBLIC "-//W3C//DTD SVG 1.1//EN" "http://www.w3.org/Graphics/SVG/1.1/DTD/svg11.dtd"><svg x="0" y="0" width="340px" height="340px" viewBox="0, 0, 340, 340" preserveAspectRatio="xMidYMid" font-size="0" id="a" enable-background="new 0 0 340 340" xmlns="http://www.w3.org/2000/svg" xmlns:xlink="http://www.w3.org/1999/xlink" xmlns:xml="http://www.w3.org/XML/1998/namespace" version="1.1"><g id="b" fill="#000"><g id="c"><g transform="translate(0, 0) translate(0, 224)" id="d"><ellipse cx="168.6" cy="53.1" rx="57.8" ry="12.8" fill-opacity="0.25" id="e" /></g><g id="f"><g transform="translate(110.3, 119.9) translate(21.5, 106.5) scale(-1, 1) translate(-21.5, -106.5) translate(2, 90)" id="g"><g id="h"><path d="M24.9 18.9 C25.5 17.7 25.7 16.6 25.7 15.6 C25.3 16.7 24.6 17.7 23.6 18.4 C24.5 16.6 24.1 14.3 22.7 12.9 C22.5 16.6 20.1 20 19.4 21.4 C18.7 19.5 18 17.6 17.3 15.7 C17.1 17 16.8 18.2 16.6 19.5 C16.3 17.3 16.1 15.1 16.4 12.9 C16.2 13 16 13.2 15.8 13.3 C16.1 9.5 20 5.8 23.5 5.2 C26.7 4.6 31.5 5.6 33.6 8.8 C36.3 13 37.3 22.3 32.1 25.1 C30.4 26 27.3 27.7 26.4 28 C25.5 28.3 23.7 31 23.5 32.5 C22.5 31.6 22.3 30.2 21.1 29.3 C19.3 29.4 16.5 31.7 10 32 C-1.8 32.4 -1.1 25.2 1.9 24.1 C5.4 22.8 12.4 23.9 14.8 24.2 C19.1 24.6 22.9 23.2 24.9 18.9 z" id="i" fill="#FDA75C" /><path d="M15.9 13.9 C16.2 10.1 18.5 3.8 26 3.3 C27 3.2 28.1 3.3 29.2 3.6 C28.2 2.4 26.3 2 25 2.9 C25.9 0.7 28.8 -0.4 31 0.5 C32.6 1.2 35.2 3.1 35 5.8 C36.7 7 38.1 9.2 38.6 11.3 C38.1 11.2 37.7 11 37.2 10.9 C38.6 13.1 39.3 17.4 37.8 20.1 C37.5 19.9 37.3 19.7 37 19.5 C36.8 20.1 35.7 22.4 35.4 22.9 C34.8 25.3 33.5 27.5 31.7 29 C31.9 28.5 32 27.9 31.9 27.3 C31.9 27 31.8 26.6 31.6 26.3 C29.7 26.7 29.4 28.6 28.7 29.5 C28.7 28.9 28.1 28.1 26.5 28.4 C26.9 25.5 30.5 24.9 30.7 23.5 C30.9 24 31.4 24.3 31.9 24.6 C32.2 23.4 32.8 22.4 32.7 20.7 L34.2 21.3 C34.2 19.7 33.3 18.1 31.9 17.2 C32.8 17 33.7 16.8 34.6 16.7 C32.9 15.2 31.2 13.8 29.5 12.3 C30.5 12 31.4 11.8 32.4 11.5 C29.1 9.2 24.1 10 22 11.3 C22 10.2 22.6 8.1 23.3 7.8 C18.6 8.9 16.1 13.7 15.9 13.9 z" id="j" fill="#AA602E" /><path d="M3 23.8 C3.3 23.2 3.8 22.7 4.4 22.4 C6.5 21.6 10.2 22.9 13.2 24 C13.8 24.1 14.4 24.2 14.8 24.2 C19.1 24.6 22.9 23.2 24.9 18.9 C25.5 17.7 25.7 16.6 25.7 15.6 C25.3 16.7 24.6 17.7 23.6 18.4 C24.5 16.6 24.1 14.3 22.7 12.9 C22.5 16.6 20.1 20 19.4 21.4 L17.3 15.7 C17.1 17 16.8 18.2 16.6 19.5 C16.3 17.4 16.1 15.4 16.4 13.3 C16.2 13.7 16 13.9 16 13.9 C16 13.7 16 13.4 16.1 13.1 C16 13.2 16 13.2 15.9 13.2 C16 12.2 16.3 11.2 16.8 10.3 C18 7 20.7 3.6 26.1 3.2 C27.1 3.1 28.2 3.2 29.3 3.5 C28.3 2.3 26.4 1.9 25.1 2.8 C26 0.6 28.9 -0.5 31.1 0.4 C32.7 1.1 35.3 3 35.1 5.7 C36.8 6.9 38.2 9.1 38.7 11.2 C38.2 11.1 37.8 10.9 37.3 10.8 C38.7 13 39.4 17.3 37.9 20 C37.6 19.8 37.4 19.6 37.1 19.4 C36.9 20 35.8 22.3 35.5 22.8 C34.9 25.2 33.6 27.4 31.8 28.9 C32 28.4 32.1 27.8 32 27.2 C32 26.9 31.9 26.5 31.7 26.2 C29.8 26.6 29.5 28.5 28.8 29.4 C28.8 28.8 28.2 28 26.6 28.3 C26.6 28.1 26.7 27.9 26.7 27.8 C26.6 27.8 26.5 27.9 26.5 27.9 C25.6 28.2 23.8 30.9 23.6 32.4 C22.6 31.5 22.4 30.1 21.2 29.2 C19.4 29.3 16.6 31.6 10.1 31.9 C-1.7 32.3 -1 25.1 2 24 C2.2 23.9 2.6 23.8 3 23.8 z M3 23.8 C2 26 3.4 29.9 11.8 29.6 C17.7 29.3 20.3 27.2 21.9 27.1 C23 27.9 22.4 29.5 23.4 30.3 C23.6 28.9 26 26.1 26.8 25.9 C26.9 25.9 26.9 25.9 27 25.8 C27 26 26.9 26.1 26.9 26.3 C28.4 26 28.9 26.8 28.9 27.3 C29.5 26.5 29.8 24.5 31.6 24.1 C31.7 24.2 32.2 24.1 32.4 24.6 C32.7 25.3 32.7 25.8 32.6 26.1 C34.2 24.7 34.6 23.5 35.1 21.3 C35.4 20.8 36.4 18.7 36.6 18.2 C36.9 18.4 37.1 18.6 37.3 18.7 C38.7 16.2 38 12.3 36.8 10.3 C37.3 10.4 37.6 10.6 38.1 10.7 C37.6 8.8 36.4 6.8 34.8 5.7 C35 3.2 32.7 2 31.7 1.2 C29.7 0.4 27.8 0.5 26.4 2 C27.8 1.7 29.5 3 30.4 4.1 C29.4 3.8 27.4 3.6 26.5 3.7 C21.5 4 18.8 7.2 17.8 9.1 C17.3 9.9 16.5 12.6 16.5 12.8 C16.5 12.8 17.1 13 17.3 12.7 C16.9 13.9 16.8 15.1 16.9 16.4 C17.1 15.2 17.3 15.1 17.8 14.4 L19.5 19.8 C20.1 18.5 22.4 15.4 22.6 12 C23.9 13.3 25.2 15.6 24.4 17.2 C25.3 16.6 25.7 15.2 26.1 14.2 C26.3 15.2 26.5 18 25.9 19.1 C24.1 23 21.2 25.5 17.3 25.2 C16.5 25.1 15.1 24.6 13.4 24 C10.5 23.6 6 23.1 3 23.8 z" opacity="0.15" id="k" /></g></g><g transform="translate(120.5, 273.3) scale(1) translate(-120.5, -273.3) translate(85.90001, 85.79997) translate(28, 124)" id="l"><path d="M50.5 28.2 C50.5 14.3 19.2 -3.5 9.2 1 C8 1.6 6.8 2.4 5.7 3.4 C3.3 5.6 1.3 9.8 0.9 13 C0.7 14.5 1.4 14.8 1.4 16.4 C1.5 18.2 1.6 22.4 1.9 24.1 C2.1 25.3 2.9 23 3.2 24.1 C3.7 25.9 3.9 28.6 4.4 29.9 C5 31.4 6.8 35.4 7.1 35.8 C7.5 36.4 7.2 35.1 8.7 37.9 C9.2 38.8 9.6 38.5 10.1 39.6 C10.5 40.3 11.2 45.8 11.6 46.5 C12.3 47.8 12.7 45.8 13.5 47.3 C14.2 48.6 14.9 50 15.6 51.5 C8.3 54.2 4.7 57.4 4.7 61.1 C4.7 62.8 4.7 65.1 6.4 66.4 C7.7 67.4 37.5 67.9 38.9 65.1 C40.7 60 34.3 53.8 39.7 45.1 C43.7 38.5 50.5 37.5 50.5 28.2 z" id="m" fill="#AA602E" /><path d="M50.5 28.2 C50.5 37.5 43.7 38.5 39.7 45.1 C34.3 53.8 40.7 60 38.9 65.1 C37.5 67.9 7.7 67.4 6.4 66.4 C4.7 65.1 4.7 62.8 4.7 61.1 C4.7 57.4 8.3 54.2 15.6 51.5 C14.9 50 14.2 48.6 13.5 47.3 C12.7 45.8 12.3 47.8 11.6 46.5 C11.2 45.8 10.5 40.3 10.1 39.6 C9.6 38.5 9.2 38.8 8.7 37.9 C7.2 35.1 7.5 36.4 7.1 35.8 C6.8 35.4 5 31.4 4.4 29.9 C3.9 28.6 3.7 25.9 3.2 24.1 C2.9 23 2.1 25.3 1.9 24.1 C1.6 22.4 1.5 18.2 1.4 16.4 C1.4 14.8 0.7 14.5 0.9 13 C1.3 9.8 3.3 5.6 5.7 3.4 C6.8 2.4 8 1.6 9.2 1 C19.2 -3.5 50.5 14.3 50.5 28.2 z M48.3 27.1 C48.3 14.2 19.8 -2.2 10.7 2 C9.6 2.5 8.5 3.3 7.5 4.2 C5.3 6.2 3.5 10.1 3.1 13 C3 14.4 3.6 14.7 3.6 16.2 C3.7 17.8 3.8 21.7 4.1 23.3 C4.2 24.4 5 22.3 5.2 23.3 C5.7 24.9 5.9 27.4 6.3 28.6 C6.9 30 8.5 33.7 8.8 34.1 C9.1 34.6 8.9 33.4 10.2 36 C10.7 36.8 11.1 36.5 11.5 37.6 C11.9 38.2 12.5 43.3 12.9 43.9 C13.5 45.1 13.9 43.3 14.6 44.7 C15.2 45.9 18.5 50.2 19.1 51.6 C12.5 54.1 7.3 55.8 7.3 59.2 C7.3 60.8 6.6 61.1 8.1 62.3 C9.3 63.2 35.1 64.3 36.4 61.7 C38 57 33.5 50.7 38.4 42.6 C42.1 36.5 48.3 35.6 48.3 27.1 z" opacity="0.15" id="n" /></g><g transform="translate(217.4, 273.3) scale(1) translate(-217.4, -273.3) translate(85.90001, 85.79997) translate(113.5, 158) scale(-1, 1) translate(-113.5, -158) translate(89, 125)" id="o"><path d="M48.2 28.3 C48.2 14.6 24.6 -4.1 9.2 1 C8 1.6 6.8 2.3 5.7 3.3 C3.3 5.4 1.3 9.6 0.9 12.8 C0.7 14.3 1.4 14.5 1.4 16.1 C1.5 17.9 1.6 22 1.9 23.7 C2.1 24.9 2.9 22.6 3.2 23.7 C3.7 25.5 3.9 28.2 4.4 29.4 C5 30.9 6.8 34.9 7.1 35.2 C7.5 35.8 7.2 34.5 8.7 37.3 C9.2 38.2 9.6 37.9 10.1 39 C10.5 39.7 11.2 45.1 11.6 45.8 C12.3 47.1 12.7 45.1 13.5 46.6 C14.2 47.9 14.9 49.3 15.6 50.8 C8.3 53.5 4.7 56.6 4.7 60.3 C4.7 62 4.7 64.2 6.4 65.5 C7.7 66.5 39.4 65.8 40.8 63 C43.8 59.4 34.2 43.1 39.2 39.8 C44.4 37.6 48.2 34.7 48.2 28.3 z" id="p" fill="#AA602E" /><path d="M48.2 28.3 C48.2 34.7 44.4 37.6 39.2 39.8 C34.2 43.1 43.8 59.4 40.8 63 C39.4 65.8 7.7 66.5 6.4 65.5 C4.7 64.2 4.7 62 4.7 60.3 C4.7 56.6 8.3 53.5 15.6 50.8 C14.9 49.3 14.2 47.9 13.5 46.6 C12.7 45.1 12.3 47.1 11.6 45.8 C11.2 45.1 10.5 39.7 10.1 39 C9.6 37.9 9.2 38.2 8.7 37.3 C7.2 34.5 7.5 35.8 7.1 35.2 C6.8 34.9 5 30.9 4.4 29.4 C3.9 28.2 3.7 25.5 3.2 23.7 C2.9 22.6 2.1 24.9 1.9 23.7 C1.6 22 1.5 17.9 1.4 16.1 C1.4 14.5 0.7 14.3 0.9 12.8 C1.3 9.6 3.3 5.4 5.7 3.3 C6.8 2.3 8 1.6 9.2 1 C24.6 -4.1 48.2 14.6 48.2 28.3 z M46.8 27.4 C46.8 14.6 24.6 -2.9 10.1 1.9 C9 2.4 7.8 3.1 6.8 4 C4.5 6 2.7 9.9 2.3 12.9 C2.1 14.3 2.8 14.5 2.8 16 C2.9 17.7 2.9 21.5 3.2 23.1 C3.4 24.2 4.2 22 4.5 23.1 C4.9 24.7 5.1 27.3 5.6 28.4 C6.1 29.8 7.8 33.5 8.1 33.8 C8.5 34.4 8.2 33.2 9.6 35.8 C10.1 36.6 10.5 36.3 10.9 37.4 C11.3 38 12 43 12.4 43.7 C13 44.9 13.4 43 14.1 44.5 C14.8 45.7 17.4 50.6 18 52 C11.1 54.5 6.8 55.5 6.8 59 C6.8 60.5 7.7 61.4 9.3 62.6 C10.5 63.6 36.9 63.1 38.2 60.4 C41.1 57.1 33.6 41.2 38.3 38.1 C43.2 36 46.8 33.3 46.8 27.4 z" opacity="0.15" id="q" /></g><g transform="translate(85.90001, 85.79997) translate(35, 41)" id="r"><path d="M14.8 19.9 C11.3 33.7 12.9 36.6 9.3 47.7 C5.7 58.8 1.3 70.5 3.2 87.6 C4.6 100.8 11.8 132.8 17.6 146.9 C19.3 151.1 22.5 152.3 23.4 152.6 C27.2 154.2 66.3 154.3 72.2 152.6 C73.3 152.3 76.3 151.4 77.8 148.1 C84.6 134.1 92.8 97 94.1 87.6 C96.2 75.3 92.7 55.1 88.5 47.9 C82.5 37.5 82.5 23 81.3 20.8 C79.3 16.1 75.6 10.6 66.6 4.4 C63.9 2.5 51.7 0.7 49.1 0.8 C45.4 0.9 37.4 2 34.5 4.5 C28.5 9.6 16.7 12.5 14.8 19.9 z" id="s" fill="#D07331" /><path d="M14.8 19.9 C16.7 12.5 28.5 9.6 34.5 4.5 C37.4 2 45.4 0.9 49.1 0.8 C51.7 0.7 63.9 2.5 66.6 4.4 C75.6 10.6 79.3 16.1 81.3 20.8 C82.5 23 82.5 37.5 88.5 47.9 C92.7 55.1 96.2 75.3 94.1 87.6 C92.8 97 84.6 134.1 77.8 148.1 C76.3 151.4 73.3 152.3 72.2 152.6 C66.3 154.3 27.2 154.2 23.4 152.6 C22.5 152.3 19.3 151.1 17.6 146.9 C11.8 132.8 4.6 100.8 3.2 87.6 C1.3 70.5 5.7 58.8 9.3 47.7 C12.9 36.6 11.3 33.7 14.8 19.9 z M16.2 20.2 C12.8 33.5 14.4 36.3 10.9 46.9 C7.4 57.6 3.2 68.8 5 85.2 C6.4 97.8 13.3 128.6 18.9 142.1 C20.5 146.1 23.6 147.3 24.4 147.5 C28.1 149.1 65.6 149.2 71.2 147.5 C72.3 147.3 75.2 146.4 76.6 143.2 C83.1 129.8 91 94.2 92.3 85.2 C94.3 73.4 90.9 54 86.9 47.1 C81.1 37.1 81.1 23.2 80 21.1 C78.1 16.6 74.5 11.3 65.9 5.4 C63.3 3.5 51.6 1.8 49.1 1.9 C45.5 2 37.9 3.1 35.1 5.5 C29.3 10.3 18 13.1 16.2 20.2 z" opacity="0.15" id="t" /></g><g transform="translate(122.9002, 177.64) scale(0.9748396, 1.027202) translate(-121.7, -186.4) translate(98.00001, 60.39996) translate(24, 127)" id="u"><path d="M6.1 0.2 C11.1 5.7 15.3 10.1 18.8 13.2 C26.2 19.7 34 23.4 34.2 23.5 C39.7 27 43.3 27.1 48.3 27.1 C53.3 27.1 61.1 25.3 64.4 23.5 C66 22.6 72.5 19.8 80.3 12 C83.2 9.2 86 4.8 88.8 -1 C90.9 1.7 92.5 5.5 93.6 10.3 C94.4 14.1 91.9 19.6 92.1 24.6 C90.9 36.8 87.7 37.7 83.8 47 C82.9 49.2 84.6 50.8 83.6 53.8 C80.2 63.3 76.6 75.4 76 82 C75.8 84.4 77.6 84.2 80.5 87.3 C83.4 90.4 86.7 99 82.8 100.9 C74 102.3 63.9 97.7 61.3 96.3 C59.6 95.4 59.3 78 59.6 61.4 C59.7 51.6 60.3 42 59.6 39.7 C57.5 41.8 51.1 46.2 48.5 46 C45.9 45.8 43.6 42.3 37.8 38.9 C37.4 41.1 38.8 52.2 39 61.3 C39.4 78 39 96.2 37.8 97.4 C36.1 99.4 18.9 101.8 14.7 100.8 C10.5 99.8 12.7 93.7 13.5 92 C15.4 87.8 21 85 20.9 83.5 C20.2 71.3 17.3 63 14.7 56.5 C13.7 54.1 14.3 49.9 13.5 47.9 C8.1 34.4 6.9 36.4 4.9 31.7 C3.2 27.8 1 25.4 2 21.1 C3 16.8 1.4 11 2.1 9.3 C3 6.9 4.3 3.8 6.1 0.2 z" id="v" fill="#FDA75C" /><path d="M93.6 10.2 C94.4 14 94.9 18.4 95.1 23.4 C93.9 35.6 92.9 33.6 89 43 C88.1 45.1 83.9 52.6 82.8 55.2 C81 57.3 80.8 59.3 78.9 59.4 C76.2 59.6 76.9 55.9 80.9 46.4 C83.6 39.8 84.8 35.9 86.7 26.5 C87.9 20.2 91.4 13.1 93.6 10.2 z" id="w" fill="#FFF" /><path d="M14.6 56.5 C13.6 54.1 12.7 51.9 11.9 49.9 C6.6 36.4 0.8 32.6 0.3 25.4 C-0.3 19.9 0.1 17.8 0.8 13.5 C1 12.4 1.4 11 2.1 9.3 C4.8 12.1 10 19.9 11.3 26.4 C13.2 35.8 14.4 39.7 17.1 46.3 C21 55.8 21.8 59.4 19.1 59.3 C17.4 59.2 16.1 58.2 14.6 56.5 z" id="x" fill="#FFF" /><path d="M6.1 0.2 C11.1 5.7 15.3 10.1 18.8 13.2 C26.2 19.7 34 23.4 34.2 23.5 C39.7 27 43.3 27.1 48.3 27.1 C53.3 27.1 61.1 25.3 64.4 23.5 C66 22.6 72.5 19.8 80.3 12 C83.2 9.2 86 4.8 88.8 -1 C90.9 1.7 92.5 5.5 93.6 10.3 C94.4 14.1 94.9 18.5 95.1 23.5 C93.9 35.6 92.9 33.6 89 43 C88.3 44.7 85.5 49.8 83.8 53.1 C83.8 53.3 83.7 53.5 83.6 53.8 C80.2 63.3 76.6 75.4 76 82 C75.8 84.4 77.6 84.2 80.5 87.3 C83.4 90.4 86.7 99 82.8 100.9 C74 102.3 63.9 97.7 61.3 96.3 C59.6 95.4 59.3 78 59.6 61.4 C59.7 51.6 60.3 42 59.6 39.7 C57.5 41.8 51.1 46.2 48.5 46 C45.9 45.8 43.6 42.3 37.8 38.9 C37.4 41.1 38.8 52.2 39 61.3 C39.4 78 39 96.2 37.8 97.4 C36.1 99.4 18.9 101.8 14.7 100.8 C10.5 99.8 12.7 93.7 13.5 92 C15.4 87.8 21 85 20.9 83.5 C20.2 71.5 17.4 63.3 14.9 56.9 C14.8 56.8 14.7 56.6 14.5 56.5 C13.5 54.1 12.6 51.9 11.8 49.9 C6.6 36.4 0.8 32.6 0.3 25.4 C-0.3 19.9 0.1 17.8 0.8 13.5 C1 12.4 1.4 11 2.1 9.3 C3 6.9 4.3 3.8 6.1 0.2 z M8.6 4.8 C6.9 8.1 6.3 10.2 5.5 12.4 C4.9 14 4.5 15.3 4.3 16.4 C3.7 20.4 3.3 22.3 3.8 27.4 C4.3 34 9.6 37.5 14.5 50.1 C15.2 52 16.1 54 17 56.2 C17.1 56.3 17.2 56.4 17.3 56.6 C19.7 62.6 22.2 73.6 22.8 84.7 C22.9 86.1 17.6 87 15.9 90.9 C15.2 92.5 13.2 96.4 17.1 97.3 C21 98.2 34.2 96.4 35.8 94.5 C36.9 93.4 37.5 74.5 37.2 58.9 C37 50.5 34 37.5 34.4 35.5 C39.8 38.6 46.5 44.9 48.8 45 C51.1 45.1 60.4 37 62.3 35.1 C62.9 37.2 61.2 52.7 61.1 61.8 C60.8 77.1 61 93.5 62.6 94.3 C65 95.6 72 98.6 80.1 97.3 C83.7 95.4 79.9 90.2 77.2 87.4 C74.5 84.6 74.1 84.9 74.3 82.6 C74.9 76.5 77.7 62.4 80.8 53.6 C80.9 53.4 80.9 53.2 81 53 C82.5 49.9 85.2 45.2 85.8 43.6 C89.4 34.9 90.3 36.7 91.4 25.6 C91.2 20.9 90.8 16.8 90 13.3 C89 8.9 89.4 6.5 87.5 4 C84.9 9.5 80.4 13.4 77.8 16 C70.5 23.2 64.6 24.7 63.1 25.5 C60 27.2 52.9 30.9 48.3 30.9 C43.7 30.9 40.2 28.7 35.2 25.5 C35 25.4 27.3 22 20.5 16 C17.2 13.1 13.2 9.8 8.6 4.8 z" opacity="0.15" id="y" /></g></g><g id="z"><g transform="translate(137.7, 105) scale(0.8) translate(-137.7, -105) translate(-288, 48.59997) translate(26, 0)" id="a1"><g transform="translate(0.775704, 0)" id="b1"><path d="M383.5 49.2 C383.4 40.7 383.4 33.7 385.1 25.4 C386.8 17.1 393.9 9 395.1 7.3 C396.3 5.6 399 5.5 400 7.3 C400.5 8.3 401.7 10.6 403.4 14.4 C404.8 17.5 406.2 22 406.9 23.5 C410.4 31.4 413.3 35.7 414.2 40 C414.1 46.4 409 50.5 399.9 60.6 C398.3 62.5 395.1 63.8 391.5 63.2 C387.9 62.6 383.6 57.7 383.5 49.2 z" id="c1" fill="#AA602E" /><path d="M383.5 49.2 C383.4 40.7 383.4 33.7 385.1 25.4 C386.8 17.1 393.9 9 395.1 7.3 C396.3 5.6 399 5.5 400 7.3 C400.5 8.3 401.7 10.6 403.4 14.4 C404.8 17.5 406.2 22 406.9 23.5 C410.4 31.4 413.3 35.7 414.2 40 C414.1 46.4 409 50.5 399.9 60.6 C398.3 62.5 395.1 63.8 391.5 63.2 C387.9 62.6 383.6 57.7 383.5 49.2 z M385.6 46.7 C385.7 54.4 389.3 58.9 392.4 59.4 C395.4 59.9 398.1 58.8 399.5 57 C407.2 47.8 411.5 44.1 411.6 38.3 C410.8 34.4 408.4 30.5 405.4 23.3 C404.8 21.9 403.6 17.9 402.4 15 C401 11.5 400 9.5 399.5 8.6 C398.7 7 396.4 7.1 395.4 8.6 C394.4 10.1 388.4 17.6 386.9 25.1 C385.4 32.6 385.5 39 385.6 46.7 z" opacity="0.15" id="d1" /><path d="M389.4 55.7 C386 50.7 386.8 36.3 388 27.6 C389.1 18.8 394.3 14.6 395.6 13.2 C396.8 12.4 397.6 13.8 399.3 18 C400.2 20.3 401.4 25 402.7 27.6 C406.5 34.8 409.5 38.3 409.3 41.9 C409.1 46.8 405.3 47.1 401.3 53.4 C398.6 57.6 392.8 60.7 389.4 55.7 z" id="e1" fill="#FDA75C" /></g></g><g transform="translate(198.7001, 104) scale(0.8) translate(-198.7001, -104) translate(-285, 48.79997) translate(101, 29) scale(-1, 1) translate(-101, -29) translate(85, 0)" id="f1"><g transform="translate(0.224296, 0)" id="g1"><path d="M-383.2 49.2 C-383.3 40.7 -383.3 33.7 -381.6 25.4 C-379.9 17.1 -372.8 9 -371.6 7.3 C-370.4 5.6 -367.7 5.5 -366.7 7.3 C-366.2 8.3 -365 10.6 -363.3 14.4 C-361.9 17.5 -360.5 22 -359.8 23.5 C-356.3 31.4 -353.4 35.7 -352.5 40 C-352.6 46.4 -357.7 50.5 -366.8 60.6 C-368.4 62.5 -371.6 63.8 -375.2 63.2 C-378.8 62.6 -383.1 57.7 -383.2 49.2 z" id="h1" fill="#AA602E" /><path d="M-383.2 49.2 C-383.3 40.7 -383.3 33.7 -381.6 25.4 C-379.9 17.1 -372.8 9 -371.6 7.3 C-370.4 5.6 -367.7 5.5 -366.7 7.3 C-366.2 8.3 -365 10.6 -363.3 14.4 C-361.9 17.5 -360.5 22 -359.8 23.5 C-356.3 31.4 -353.4 35.7 -352.5 40 C-352.6 46.4 -357.7 50.5 -366.8 60.6 C-368.4 62.5 -371.6 63.8 -375.2 63.2 C-378.8 62.6 -383.1 57.7 -383.2 49.2 z M-381.9 47 C-381.8 54.8 -378 59.2 -374.8 59.8 C-371.6 60.4 -368.8 59.2 -367.3 57.4 C-359.2 48.2 -354.7 44.4 -354.6 38.6 C-355.4 34.7 -358 30.7 -361.1 23.5 C-361.7 22.1 -363 18 -364.2 15.2 C-365.7 11.7 -366.8 9.6 -367.2 8.7 C-368.1 7.1 -370.5 7.1 -371.6 8.7 C-372.7 10.3 -379 17.6 -380.5 25.2 C-382 32.8 -382 39.2 -381.9 47 z" opacity="0.15" id="i1" /><path d="M-377.3 55.7 C-380.7 50.7 -379.9 36.3 -378.7 27.6 C-377.6 18.8 -372.4 14.6 -371.1 13.2 C-369.9 12.4 -369.1 13.8 -367.4 18 C-366.5 20.3 -365.3 25 -364 27.6 C-360.2 34.8 -357.2 38.3 -357.4 41.9 C-357.6 46.8 -361.4 47.1 -365.4 53.4 C-368.1 57.6 -373.9 60.7 -377.3 55.7 z" id="j1" fill="#FDA75C" /></g></g><g transform="translate(90.90001, 84.79997) translate(37, 0)" id="k1"><g id="l1"><path d="M40.1 0.5 C72.4 1 81.8 11.6 81.5 30 C81.2 48.3 80.7 55.1 76.4 61.6 C72.1 68.1 70.7 71.6 67.7 81.7 C64.7 91.8 55.4 91.4 41.7 91.7 C28 92 16 87.5 14.9 80.5 C13.8 73.5 10.1 67.7 5.1 60.9 C0.1 54.1 0.8 35.1 0.7 24.3 C0.6 13.5 7.9 0 40.1 0.5 z" id="m1" fill="#FDA75C" /><g transform="translate(28.16216, 84.51376)" id="n1"><path d="M0.6 6.7 C3.9 8.4 6.8 9.3 9.2 9.4 C12.9 9.6 20.5 9.4 23.4 8.1 C25.4 7.2 26.8 6.8 27.6 6.8 C23.9 3.9 21.4 2.4 20.1 2.2 C18.2 2 12.8 -0.1 11 1.1 C9.2 2.3 5.2 3 4.3 3.8 C3.7 4.3 2.5 5.2 0.6 6.7 z" id="o1" fill="#AA602E" /></g><path d="M55.4 91 C55.5 91.1 55.6 91.2 55.8 91.3 C55 91.3 53.6 91.7 51.6 92.6 C48.7 93.9 41.1 94.1 37.4 93.9 C35 93.8 32.1 92.9 28.8 91.2 C29.1 91 29.3 90.8 29.6 90.6 C21.6 88.9 15.7 85.3 15 80.5 C13.9 73.5 10.2 67.7 5.2 60.9 C0.2 54.1 0.9 35.1 0.8 24.3 C0.7 13.5 7.9 0 40.1 0.5 C72.4 1 81.8 11.6 81.5 30 C81.2 48.3 80.7 55.1 76.4 61.6 C72.1 68.1 70.7 71.6 67.7 81.7 C65.8 87.9 61.6 90.2 55.4 91 z M55 88.8 C61 88 65.2 85.8 67 79.7 C69.9 69.9 71.3 66.5 75.5 60.2 C79.7 53.9 80.2 47.3 80.5 29.5 C80.8 11.6 71.7 1.3 40.3 0.8 C8.8 0.3 1.7 13.4 1.8 23.9 C1.9 34.4 1.2 52.9 6.1 59.5 C11 66.1 14.6 71.7 15.6 78.6 C16.3 83.3 22 86.8 29.8 88.4 C29.6 88.6 29.3 88.8 29.1 89 C32.3 90.7 35.1 91.5 37.5 91.6 C41.1 91.8 48.5 91.6 51.3 90.3 C53.2 89.4 54.6 89 55.4 89 C55.2 89 55.1 88.9 55 88.8 z" opacity="0.15" id="p1" /></g></g><g transform="translate(169.6, 141.3) scale(1) translate(-169.6, -139.3)" id="q1"><g transform="translate(108, 59.19997) translate(22, 30)" id="r1"><g id="s1"><path d="M76.7 63.3 C75.1 55.9 72.5 52.3 66.1 47.7 C58.4 42.2 52.2 40.3 47.5 33.1 C46 30.8 44.9 28.2 43.9 20.7 C43.3 16.2 42.8 12.9 42.4 9.2 C42 5.5 41.1 0.8 37.7 0.7 C34.3 0.6 33.6 4.7 33.5 9.9 C33.4 15.2 33 16.9 32.3 22.2 C31.2 29.7 29.2 32.1 27.7 34.5 C23 41.8 17.4 43 9.9 49 C2.7 54.8 1.9 56.9 1 66.1 C1 66 1 66 1 65.9 C-0.2 70.9 3.1 77 3.1 77.1 C9.7 87.7 16.4 91.1 27.6 91.1 C32.7 91.1 38 91.1 50.2 91.1 C60.4 91 73.7 80.8 76 74.2 C76.2 73.7 76.3 73.2 76.5 72.8 C77.2 70.9 77.6 69 77.4 67.2 C77.4 65.8 77.1 64.6 76.7 63.3 z" id="t1" fill="#FFF" /><path d="M76 74.2 C73.7 80.8 60.4 91 50.2 91.1 C38.4 91.1 33 91.1 27.6 91.1 C16.4 91.1 9.7 87.7 3.1 77.1 C3.1 77 -0.2 70.9 1 65.9 C1.9 71 6.8 77.1 12 81.4 C16.7 85.3 27.9 87.3 39.4 87.6 C50.9 87.9 64.7 82.4 70.4 76.3 C73 73.5 76 65.7 76.3 61.9 C77.3 65.5 78.3 67.5 76 74.2 z" fill-opacity="0.1" id="u1" fill="#010101" /><path d="M76.7 63.3 C77.1 64.6 77.4 65.8 77.4 67.2 C77.6 69 77.2 70.9 76.5 72.8 C76.3 73.2 76.2 73.7 76 74.2 C73.7 80.8 60.4 91 50.2 91.1 L27.6 91.1 C16.4 91.1 9.7 87.7 3.1 77.1 C3.1 77.1 2.3 75.5 1.6 73.3 C0.9 71.1 0.4 68.4 1 65.9 C1 65.9 1 65.9 1 66 C1.9 56.9 2.7 54.8 9.9 49 C17.4 43 23 41.8 27.7 34.5 C29.2 32.1 31.2 29.7 32.3 22.2 C33 16.9 33.4 15.2 33.5 9.9 C33.6 4.7 34.3 0.6 37.7 0.7 C41.1 0.8 42 5.5 42.4 9.2 C42.8 12.9 43.3 16.2 43.9 20.7 C44.9 28.2 46 30.8 47.5 33.1 C52.2 40.3 58.4 42.2 66.1 47.7 C72.5 52.3 75.1 55.9 76.7 63.3 L76.7 63.3 z M74.7 66.3 C74.7 65 74.4 63.9 74 62.6 C72.5 55.7 70.1 52.3 64.2 48 C57 42.8 51.3 41.1 46.9 34.3 C45.5 32.1 44.5 29.7 43.6 22.7 C43 18.5 42.6 15.4 42.2 11.9 C41.8 8.4 40.9 1.8 37.7 1.7 C34.5 1.6 33.9 7.6 33.9 12.5 C33.8 17.5 33.4 19.1 32.8 24 C31.8 31 29.9 33.3 28.5 35.5 C24.1 42.3 18.9 43.5 12 49.1 C5.3 54.5 4.6 56.5 3.7 64.9 C3.1 67.2 3.6 69.8 4.3 71.9 C4.9 73.9 5.7 75.4 5.7 75.4 C11.8 85.3 18.1 88.5 28.5 88.5 L49.5 88.5 C59 88.4 71.3 78.8 73.5 72.7 C73.7 72.2 73.8 71.8 74 71.4 C74.5 69.8 74.9 68 74.7 66.3 z" fill-opacity="0.1" id="v1" fill="#010101" /></g></g><g transform="translate(108.3, 61.59998) translate(39, 80)" id="w1"><path d="M0.8 2.5 C0.9 3.5 1.7 5.7 2.3 7 C3.9 10.9 6.6 13.2 7.4 13.8 C11 16.7 14.3 16.6 21.5 16.6 C30.5 16.7 31.2 15.6 35.8 13.1 C41.7 9.9 42.9 1.6 42.9 0.8 C42.8 0 41.9 0 41.8 0.5 C41.6 1.1 41.7 2.5 41.5 3.1 C41.1 5 40.6 6 39.9 6.7 C38.1 8.6 35 10.2 32.4 10.3 C28.3 10.4 25.9 7.6 23.6 4.2 C23.3 3.7 22.6 3.4 21.4 3.1 C20.3 3.4 19.6 3.8 19.2 4.2 C16 7.9 13.7 10.6 11 10.6 C8.1 10.6 5.1 9 3.8 6.5 C3.2 5.2 2.5 3.9 1.9 1.6 C1.9 1.1 0.7 1.4 0.8 2.5 z" fill-opacity="0.1" id="x1" fill="#010101" /><g transform="translate(5, 7)" id="y1"><path d="M0.6 5.8 C5.2 7.6 9 7.6 11.9 5.8 C13.9 4.6 15.2 3.4 15.7 2.2 C15.9 1.8 16.1 1.5 16.3 1.2 C16.8 2.5 18.2 4 20.5 5.8 C22.8 7.6 26.5 7.6 31.6 5.8 C26.6 12.8 21.3 16.3 15.8 16.3 C10.3 16.3 5.3 12.8 0.6 5.8 z" id="z1" fill="#424242" /><path d="M8.8 13.5 L8.8 6.9 C10.6 6.3 11.7 5.9 12.2 5.6 C13.3 4.9 14.7 3.2 16.2 0.6 C18 3.2 19.7 4.9 21 5.8 C21.5 6.1 22.4 6.5 23.9 7 L23.9 13.5 C27.1 22.1 24.6 26.2 16.4 26 C8.4 25.7 5.8 21.6 8.8 13.5 z" id="a2" fill="#FFB8B3" /></g></g><g transform="translate(103.3, 71.79997) translate(56, 60)" id="b2"><g id="c2"><path d="M0.9 8.2 C2.5 12.2 3.6 15.3 5.8 16 C8 16.7 12.1 16.7 13.8 15.9 C15.5 15.2 20.4 8.5 20.8 6.1 C21.1 3.7 19.1 2.6 17.2 1.5 C15.4 0.3 9.6 0.3 7.1 0.3 C4.6 0.3 -0.7 4.1 0.9 8.2 z" id="d2" fill="#353535" /><path d="M13.5 3.2 C13.5 5.7 14.3 8 15.3 7.8 C16 7.7 16.8 6.9 17.7 5.5 C14.9 2.3 13.5 1.6 13.5 3.2 z" id="e2" fill="#FFF3F3" /></g></g><g transform="translate(150.1, 119.2) scale(1.2) translate(-150.1, -119.2) translate(99.59999, 44.99998)" id="f2"><g transform="translate(18, 29)" id="g2"><path d="M23.6 41.6 C25.6 38.1 29.7 36 33.7 36.5 C37.7 37 41.2 39.9 42.3 43.8 C43.4 47.6 42.9 51.8 39.2 53.1 C35.8 54.4 27.9 54.9 24.5 52.9 C21 50.8 21.6 45.1 23.6 41.6 z" id="h2" fill="#FBD291" /><path d="M9 21.2 C15.5 14.3 18.6 13 26.7 11.8 C24 10.9 25 9.4 20.1 8.3 C23.4 5.7 26.9 7 31.1 7.1 C33.9 7.2 36.3 7 38.8 8.5 C38.9 5.8 38.7 3.1 38.3 0.5 C44.7 5.4 47.5 16 47.5 24.1 C47.5 37.4 43 52.3 41.7 50.8 C38.4 44.3 34.3 37.9 29.3 36.9 C27.4 36.5 24.3 37.6 22.7 38.8 C16.9 43.3 14.1 50.6 14.7 57.5 C13.6 57.7 12.6 57.9 11.5 58.1 C10.6 54.2 10.7 50.7 11.5 46.8 C8.3 49.2 6 52.7 4.9 56.5 C3.8 51 4.9 45 7.9 40.2 C4.4 40.8 2.5 44 1.3 47 C-0.3 40.3 3.7 26.9 9 21.2 z" id="i2" fill="#FBD291" /><path d="M22.8 38.9 C17.5 42.1 14.2 50.7 14.8 57.6 C13.7 57.8 12.7 58 11.6 58.2 C10.7 54.3 10.8 50.8 11.6 46.9 C8.4 49.3 6.1 52.8 5 56.6 C3.8 51.1 4.9 45.1 7.9 40.3 C4.4 40.9 2.5 44.1 1.3 47.1 C-0.3 40.3 3.7 26.9 9 21.2 C15.5 14.3 18.6 13 26.7 11.8 C24 10.9 25 9.4 20.1 8.3 C23.4 5.7 26.9 7 31.1 7.1 C33.9 7.2 36.3 7 38.8 8.5 C38.9 5.8 38.7 3.1 38.3 0.5 C44.7 5.4 47.5 16 47.5 24.1 C47.5 30.5 46.6 36.5 45.6 41.1 C44.6 46 43.6 49.4 41.1 52 C40.6 52.4 40 52.8 39.2 53.1 C35.8 54.4 27.9 54.9 24.5 52.9 C21 50.8 21.6 45.1 23.6 41.6 C24.9 39.3 27.1 37.6 29.6 36.9 C26.9 37.1 24.3 38 22.8 38.9 z M29.3 35.4 L34 36.3 C31.7 37 26.9 38.5 25.6 40.7 C23.7 44 21.9 48.7 25.2 50.7 C28.4 52.6 35.1 51.9 38.3 50.7 C39 50.4 39.6 50.1 40.1 49.7 C44.6 44.9 46.1 36 46.1 23.5 C46.1 15.9 45.3 7.3 39.3 2.7 C39.7 5.1 39.4 7.9 39.3 10.5 C37 9.1 34.7 8.5 32 8.4 C28.1 8.3 25.3 5.9 22.2 8.3 C26.8 9.3 26.4 11.4 28.9 12.2 C21.3 13.3 17.4 14.3 11.3 20.8 C6.4 26 0.8 35.9 2.3 42.3 C3.4 39.5 6.9 38.8 10.2 38.2 C7.4 42.7 4.5 46.9 5.6 52 C6.6 48.4 9.4 47.1 12.4 44.8 C11.6 48.5 11.6 51.8 12.4 55.4 C13.4 55.2 13.1 55.1 14.1 54.9 C13.5 48.4 18 40.3 22.9 37.3 C24.3 36.4 26.7 35.7 29.3 35.4 z" opacity="0.15" id="j2" /><circle cx="32.5" cy="45.2" r="6.7" id="k2" fill="#282421" /><path d="M33.4 47 C34.4 47 35.2 46.2 35.2 45.2 C35.2 44.2 34.4 43.4 33.4 43.4 C32.4 43.4 31.6 44.2 31.6 45.2 C31.6 46.2 32.4 47 33.4 47 z" id="l2" fill="#FFF" /><path d="M29.4 40.7 C30.6 40 33.1 39 33.4 40 C33.7 41.2 31.9 40.9 30.7 41.9 C29.4 43 29 43.4 28.3 44.2 C27.7 44.8 27.3 42 29.4 40.7 z" id="m2" fill="#FFF" /></g></g><g transform="translate(187.6, 119.2) scale(1.2) translate(-187.6, -119.2) translate(105.1, 44.99998) translate(67, 29)" id="n2"><g id="o2"><path d="M24.4 41.6 C22.4 38.1 18.3 36 14.3 36.5 C10.3 37 6.8 39.9 5.7 43.8 C4.6 47.6 5.1 51.8 8.8 53.1 C12.2 54.4 20.1 54.9 23.5 52.9 C27 50.8 26.4 45.1 24.4 41.6 z" id="p2" fill="#FBD291" /><circle cx="15.5" cy="45.2" r="6.7" id="q2" fill="#282421" /><path d="M14.6 47 C13.6 47 12.8 46.2 12.8 45.2 C12.8 44.2 13.6 43.4 14.6 43.4 C15.6 43.4 16.4 44.2 16.4 45.2 C16.4 46.2 15.6 47 14.6 47 z" id="r2" fill="#FFF" /><path d="M18.6 40.7 C17.4 40 14.9 39 14.6 40 C14.3 41.2 16.1 40.9 17.3 41.9 C18.6 43 19 43.4 19.7 44.2 C20.3 44.8 20.7 42 18.6 40.7 z" id="s2" fill="#FFF" /><path d="M38.9 21.2 C32.4 14.3 29.3 13 21.2 11.8 C23.9 10.9 22.9 9.4 27.8 8.3 C24.5 5.7 21 7 16.8 7.1 C14 7.2 11.6 7 9.1 8.5 C9 5.8 9.2 3.1 9.6 0.5 C3.2 5.4 0.4 16 0.4 24.1 C0.4 37.4 3.8 46.9 5.7 50.1 C5.8 34.3 19.9 35.7 25.1 38.8 C30.3 41.9 33.7 50.6 33.1 57.5 C34.2 57.7 35.2 57.9 36.3 58.1 C37.2 54.2 37.1 50.7 36.3 46.8 C39.5 49.2 41.8 52.7 42.9 56.5 C44.1 51 43 45 40 40.2 C43.5 40.8 45.4 44 46.6 47 C48.1 40.3 44.2 26.9 38.9 21.2 z" id="t2" fill="#FBD291" /><path d="M25.1 38.9 C30.4 42.1 33.7 50.7 33.1 57.6 C34.2 57.8 35.2 58 36.3 58.2 C37.2 54.3 37.1 50.8 36.3 46.9 C39.5 49.3 41.8 52.8 42.9 56.6 C44.1 51.1 43 45.1 40 40.3 C43.5 40.9 45.4 44.1 46.6 47.1 C48.2 40.3 44.2 26.9 38.9 21.2 C32.4 14.3 29.3 13 21.2 11.8 C23.9 10.9 22.9 9.4 27.8 8.3 C24.5 5.7 21 7 16.8 7.1 C14 7.2 11.6 7 9.1 8.5 C9 5.8 9.2 3.1 9.6 0.5 C3.2 5.4 0.4 16 0.4 24.1 C0.4 31.8 1.6 38.6 3 43.6 C4 47.3 5.5 50.3 6.8 52 C7.3 52.4 7.9 52.8 8.7 53.1 C12.1 54.4 20 54.9 23.4 52.9 C26.9 50.8 26.3 45.1 24.3 41.6 C23 39.3 20.8 37.6 18.3 36.9 C21.1 37.1 23.6 38 25.1 38.9 z M18.7 35.4 L14 36.3 C16.3 37 21.1 38.5 22.4 40.7 C24.3 44 26.1 48.7 22.8 50.7 C19.6 52.6 12.9 51.9 9.7 50.7 C9 50.4 8.4 50.1 7.9 49.7 C3.4 44.9 1.9 36 1.9 23.5 C1.9 15.9 2.7 7.3 8.7 2.7 C8.3 5.1 8.6 7.9 8.7 10.5 C11 9.1 13.3 8.5 16 8.4 C19.9 8.3 22.7 5.9 25.8 8.3 C21.2 9.3 21.6 11.4 19.1 12.2 C26.7 13.3 30.6 14.3 36.7 20.8 C41.7 26.2 47.3 36.1 45.8 42.5 C44.7 39.7 41.2 39 37.9 38.4 C40.7 42.9 43.6 47 42.5 52.2 C41.5 48.6 38.7 47.3 35.7 45 C36.5 48.7 36.5 52 35.7 55.6 C34.7 55.4 35 55.3 34 55.1 C34.6 48.6 30.1 40.5 25.2 37.5 C23.6 36.4 21.2 35.7 18.7 35.4 z" opacity="0.15" id="u2" /></g></g></g></g></g><g id="v2"><g transform="matrix(1, 0, 0, 1, 0, -0.02005005)"><g transform="translate(139.0502, 181.633) scale(0.8963649, 0.9132236)"><g transform="translate(202, 207) translate(-2413.8, -415.7)" id="w2"><g transform="translate(9, 6)" id="x2"><path d="M2266.8 206.5 C2258.2 212.4 2247.9 215.7 2237.4 215.3 C2227.1 215.1 2217.7 211.6 2209.2 206.1 C2208.7 206.9 2208.3 207.8 2207.8 208.6 C2207.2 209.5 2207.2 210.1 2206.9 211.1 C2206.4 212.2 2216 215.7 2217.2 216.2 C2221.8 218 2226.5 219.3 2231.3 220.1 C2231.5 220.1 2233.8 220.3 2233.8 220.5 L2233.8 225 C2233.8 225.5 2233.6 229.8 2233.9 229.8 C2236.1 229.8 2238.4 229.8 2240.5 229.8 C2241.1 229.8 2241.1 229.9 2241.1 229.3 L2241.1 220 C2241.1 219.4 2244.6 218.6 2245.1 218.6 C2246.9 218.5 2248.5 219 2250.2 219.1 C2252 219.2 2253.1 218.9 2254.6 217.9 C2256.3 216.8 2257.5 215.8 2259.7 216 C2262.8 216.2 2265.2 212.8 2267.4 211 C2267.5 210.9 2268.8 209.9 2268.7 209.9 C2268.5 209.5 2268.2 209.2 2268 208.8 C2267.8 207.9 2267.3 207.2 2266.8 206.5 z" id="y2" /><g transform="translate(18, 15)" id="z2"><path d="M2232.7 226.7 C2235.3 225.2 2236.1 222 2235.8 219 C2235.3 215.7 2232.5 213.9 2229.6 213.2 C2229.2 213.1 2225.8 212.5 2225.8 212.6 L2225.8 206.5 C2225.8 205.6 2225.6 205.9 2224.6 205.9 C2223.5 205.9 2222.4 205.9 2221.3 205.9 C2220.8 205.9 2221.1 207.1 2221.1 207.4 C2221.1 208.6 2221.1 209.9 2221.1 211.1 C2221.1 211.7 2221.5 212.6 2220.7 212.6 C2220.5 212.6 2218.3 212.7 2218.3 212.5 L2218.3 206.1 C2218.3 205.3 2217.6 205.6 2216.9 205.6 C2215.8 205.6 2214.8 205.6 2213.7 205.6 C2213.5 205.6 2213.6 207.3 2213.6 207.5 C2213.6 208.2 2213.8 212.5 2213.4 212.5 C2211.2 212.5 2208.9 212.5 2206.7 212.5 C2206.5 212.5 2205.3 212.4 2205.3 212.6 C2205.3 213.8 2205.3 215 2205.3 216.1 C2205.3 217.2 2205.1 217.3 2206.1 217.3 C2207.5 217.4 2209.8 216.9 2210.5 218.5 C2211.1 219.8 2210.7 221.8 2210.7 223.1 C2210.7 227.5 2210.7 231.8 2210.7 236.2 C2210.7 237.1 2210.9 238.2 2209.8 238.4 C2208.6 238.5 2207.4 238.4 2206.3 238.4 C2205.8 238.4 2205.4 243.1 2205.2 243.8 L2213.5 243.8 C2213.6 243.8 2213.6 245.5 2213.6 245.7 C2213.6 246.9 2213.6 248.2 2213.6 249.4 C2213.6 250 2213.2 250.7 2214 250.7 C2215.2 250.7 2216.2 250.7 2217.4 250.7 C2218.3 250.7 2218.2 250.8 2218.2 249.9 C2218.2 248.7 2218.2 247.5 2218.2 246.4 C2218.2 246 2218 244.2 2218.2 243.9 C2218.4 243.6 2220.4 243.9 2220.9 243.9 C2221 243.9 2220.9 245.9 2220.9 246 C2220.9 247.2 2220.9 248.4 2220.9 249.7 C2220.9 250.5 2220.7 250.8 2221.5 250.8 C2222.7 250.8 2223.9 250.8 2224.9 250.8 C2225.7 250.8 2225.5 250.6 2225.5 249.7 C2225.5 249.1 2225.4 243.9 2225.6 243.9 C2228.9 243.9 2232.4 243.5 2234.9 241.2 C2237.3 239 2238.4 235 2237.8 231.8 C2237.4 229.4 2235.3 227.6 2232.7 226.7 C2233.9 226 2234.6 227.3 2232.7 226.7 z M2218.2 230.1 C2220.7 229.9 2223.7 229.7 2226 231 C2227.5 231.9 2228.2 233.8 2227.2 235.5 C2226.3 236.8 2224.3 237.2 2222.7 237.4 C2221.3 237.5 2220 237.5 2218.6 237.5 C2218.2 237.3 2218.4 236.6 2218.4 236 C2218.3 234 2218.2 232 2218.2 230.1 z M2225 224.6 C2223.2 226.1 2220.3 226.1 2218 225.9 C2217.8 225.7 2218 224.5 2218 224.2 C2218 223 2218 222 2218 220.8 C2218 220.6 2217.8 219.4 2218 219.1 C2219.1 219 2220.1 219 2221.1 219 C2222.4 219.1 2223.8 219.4 2224.9 220.3 C2226.1 221.3 2226.4 223.7 2225 224.6 C2223.1 226.3 2225.7 224.1 2225 224.6 z" id="a3" fill="#F4D440" /><path d="M2227.9 233.8 C2227.9 238.5 2217.9 237.8 2217.9 237.8 C2218.7 240 2222 239.9 2224 239.6 C2226.8 239.1 2228.9 236.7 2227.9 233.8 C2227.9 238.5 2228.9 236.7 2227.9 233.8 z" id="b3" fill="#FFF922" /><path d="M2221 227.6 C2223.4 227.5 2226.2 226.8 2226.1 223.7 C2224.8 226.9 2217.8 226.3 2217.8 226.3 C2217.8 226.3 2217.7 227.7 2221 227.6 C2223.4 227.4 2217.7 227.7 2221 227.6 z" id="c3" fill="#FFF922" /><path d="M2211.4 243.9 C2219.1 244.6 2235.7 245.3 2236.2 240.2 C2230.2 240.6 2216 240.8 2211.4 243.9 z" id="d3" fill="#FFF922" /><path d="M2235.5 219.5 C2235 212.5 2226.2 213.3 2221.4 212.9 C2217.9 212.9 2214.4 212.8 2210.9 212.8 C2210.1 212.8 2209.1 212.8 2208.3 212.8 C2207.6 212.8 2207.8 212.9 2207.8 213.5 C2207.7 214.4 2207.7 215.4 2207.6 216.3 C2210.7 215.7 2213.8 215 2216.9 215.2 C2215.7 215.9 2212.2 217.6 2212.2 219.1 C2212.2 220.4 2212.2 221.7 2212.2 223 C2213.7 222.1 2215.4 221.6 2217 220.9 C2217.9 220.5 2217.6 219.7 2217.6 218.8 C2218.9 218.9 2220.3 219 2221.6 219.2 C2222.8 219.3 2223.1 218.6 2224.2 218 C2227.7 216.3 2235.4 216.6 2234.9 222.1 C2235.5 221.5 2235.6 220.6 2235.5 219.5 C2235.2 214.2 2235.6 220.6 2235.5 219.5 z" id="e3" fill="#FFF922" /><path d="M2231.9 226.8 C2225.7 226 2220.1 228.7 2214.6 231.4 C2214 231.6 2213.4 232 2212.8 232.2 C2212.3 232.4 2212.6 233.1 2212.7 233.7 C2212.8 235.1 2212.9 236.5 2212.6 237.9 C2212.3 239.3 2211.5 239.7 2210.1 239.9 C2209.4 239.9 2208.6 239.9 2207.7 240.1 C2207.5 240.2 2207.5 241 2207.3 241.3 C2211.3 241.8 2213.9 240.2 2217 238 C2217.7 237.5 2217.7 237.4 2217.7 236.6 L2217.7 229.8 C2221.1 229.7 2227.4 230.5 2227.4 235.1 C2229.8 234 2232.2 232.6 2234.8 233.1 C2235.5 233.2 2236.2 233.6 2236.8 234 C2237 234.2 2237.3 234.7 2237.6 234.8 C2238.7 228 2231.9 226.8 2231.9 226.8 z" id="f3" fill="#FFF922" /></g><path d="M2271.1 211 C2270.3 209.5 2269.3 208.1 2268.5 206.5 C2267.6 204.8 2266.4 204.3 2264.6 205.3 C2262.8 206.2 2261.1 207.3 2259.3 208.2 C2258.2 208.8 2255.9 209.6 2255.9 211 C2254.7 210.4 2252.8 211.4 2251.8 211.7 C2250 212.2 2248.1 212.8 2246.4 213.2 C2246 213.3 2245.6 213.4 2245.2 213.6 C2244.5 213.8 2244.4 214.5 2243.7 214.2 C2243.3 214.1 2243.1 214.1 2242.8 214.1 L2232.8 214.1 C2232.4 214.2 2232.2 214.3 2232 214.6 C2231.8 214.2 2231.3 213.9 2230.8 213.8 C2230.4 213.7 2230 213.6 2229.6 213.4 C2227.8 212.9 2225.9 212.3 2224.2 211.9 C2223.1 211.5 2221.3 210.7 2220.1 211.2 C2219.7 209.4 2216.4 208.4 2215.1 207.5 C2213.6 206.7 2211.4 204.8 2209.6 204.7 C2207.6 204.6 2206.2 208.5 2205.4 209.9 C2204.9 210.7 2204.2 211.8 2204.7 212.8 C2205.1 213.6 2205.9 214 2206.6 214.3 C2208.7 215.5 2210.8 216.7 2213 217.8 C2213.7 218.3 2214.5 218.7 2215.5 218.5 C2216.2 218.4 2216.7 217.9 2216.9 217.3 C2217 217.1 2217.4 216 2217.7 216.4 C2217.8 216.5 2217.3 217.6 2217.3 217.8 C2217.1 218.4 2217.1 219 2217.4 219.6 C2217.9 220.4 2218.7 220.7 2219.6 220.9 C2222 221.6 2224.2 222.2 2226.6 222.9 C2227.3 223.1 2228.1 223.5 2228.8 223.4 C2230.3 223.2 2230.7 221.6 2231 220.3 L2231.1 220.3 C2231.1 222 2231 224 2233.2 224 L2242.6 224 C2244.8 224 2244.7 221.9 2244.7 220.2 L2244.8 220.2 C2245.3 221.7 2245.9 223.7 2247.9 223.1 C2249.2 222.7 2250.5 222.4 2251.7 222 C2253.4 221.5 2254.9 221.1 2256.5 220.6 C2258.2 220.1 2258.9 219.1 2258.4 217.3 C2258.3 217.1 2257.9 215.5 2258.4 216.2 C2258.9 217 2259.3 217.9 2260.3 218.2 C2261.6 218.6 2263 217.4 2264.1 216.8 C2265.8 215.9 2267.3 215 2268.9 214.1 C2270.1 213.8 2272 212.7 2271.1 211 z M2266.5 211.2 C2265.7 211.7 2265 212 2264.1 212.5 C2264.1 211.8 2263.4 211.2 2262.8 211 C2263.7 210.5 2264.6 209.9 2265.5 209.5 C2265.9 210 2266.1 210.6 2266.5 211.2 z M2250.1 216.5 C2250.9 216.3 2251.6 216 2252.5 215.8 C2252.5 216.6 2252.7 217.2 2253.4 217.7 L2250.7 218.5 C2250.7 217.7 2250.7 217.1 2250.1 216.5 z M2237.4 219.2 C2237.4 218.8 2237.4 218.6 2237.3 218.3 C2237.8 218.3 2238.2 218.3 2238.7 218.3 C2238.5 219 2238.7 219.6 2238.9 220.3 L2236.9 220.3 C2237.1 219.9 2237.4 219.6 2237.4 219.2 z M2225.1 218.4 L2222.4 217.6 C2223.1 217.1 2223.3 216.7 2223.3 215.8 C2224.1 216 2224.8 216.3 2225.7 216.5 C2225.1 217.1 2225.1 217.6 2225.1 218.4 z M2213.2 211.1 C2212.6 211.3 2212 211.9 2212 212.6 C2211.2 212.1 2210.3 211.7 2209.5 211.3 C2209.1 211.2 2210.1 209.8 2210.3 209.4 C2211.3 210 2212.3 210.5 2213.2 211.1 z" id="g3" fill="#F4D440" /><g transform="translate(3, 3)" id="h3"><path d="M2257.1 208.9 C2255.8 208.9 2254.2 210.2 2253.1 210.7 C2252.9 210.8 2250.2 212.2 2252 212.5 C2253.2 212.7 2254.8 211.4 2255.8 211.1 C2256.4 210.9 2257.1 210.7 2257.6 210.3 C2258.1 209.9 2257.7 208.9 2257.1 208.9 z" id="i3" fill="#FFF922" /><path d="M2244.4 214 C2243.1 213.5 2240.9 214.4 2239.6 214.5 C2239 214.6 2237.4 215.4 2238.8 215.8 C2240 216.2 2241.5 215.7 2242.8 215.6 C2243.4 215.5 2244.1 215.6 2244.7 215.4 C2245.1 214.9 2245 214.2 2244.4 214 z" id="j3" fill="#FFF922" /><path d="M2254.5 208.1 C2255.1 209.3 2258.7 206.6 2259.5 206.2 C2260.2 205.8 2264.1 204.2 2263.3 203 C2262.9 202.3 2254.1 207.4 2254.5 208.1 C2255 209 2253.9 207.2 2254.5 208.1 z" id="k3" fill="#FFF922" /><path d="M2242.6 212 C2243 213.4 2247.1 211.6 2247.8 211.4 C2248.6 211.2 2252.6 210.7 2252.4 209.3 C2252.2 208.4 2242.4 211 2242.6 212 C2242.9 213 2242.4 211 2242.6 212 z" id="l3" fill="#FFF922" /><path d="M2229.9 213 C2229.9 214.4 2235.3 213.6 2236.3 213.6 C2237.4 213.6 2238.7 213.6 2239.6 213.1 C2240.4 212.6 2240.1 212.2 2239.2 212 C2238.3 212 2229.9 211.8 2229.9 213 z" id="m3" fill="#FFF922" /><path d="M2257.7 213.7 C2258.3 214.9 2261.9 212.2 2262.7 211.8 C2263.4 211.4 2267.3 209.8 2266.5 208.6 C2266.1 208 2257.2 212.9 2257.7 213.7 C2258.2 214.7 2257.2 212.9 2257.7 213.7 z" id="n3" fill="#FFF922" /><path d="M2244.2 218.7 C2244.6 220.1 2248.7 218.3 2249.4 218.1 C2250.2 217.9 2254.2 217.4 2254 216 C2253.7 215.3 2243.9 217.6 2244.2 218.7 z" id="o3" fill="#FFF922" /><path d="M2229.9 219.5 C2229.9 220.9 2235.3 220.1 2236.3 220.1 C2237.4 220.1 2238.7 220.1 2239.6 219.6 C2240.4 219.1 2240.1 218.7 2239.2 218.5 C2238.4 218.5 2229.9 218.5 2229.9 219.5 z" id="p3" fill="#FFF922" /><path d="M2211.9 208.9 C2213.2 208.9 2214.8 210.2 2215.9 210.7 C2216.1 210.8 2218.8 212.2 2217 212.5 C2215.8 212.7 2214.2 211.4 2213.2 211.1 C2212.6 210.9 2211.9 210.7 2211.4 210.3 C2210.9 209.7 2211.3 208.9 2211.9 208.9 z" id="q3" fill="#FFF922" /><path d="M2224.6 214 C2225.7 213.6 2227.3 214.2 2228.4 214.4 C2229 214.5 2230.9 214.4 2230.9 215.3 C2230.8 216.5 2228.2 215.8 2227.6 215.7 C2226.7 215.6 2225.7 215.6 2224.9 215.5 C2224.1 215.1 2223.6 214.3 2224.6 214 z" id="r3" fill="#FFF922" /><path d="M2215.2 208.1 C2214.6 209.3 2211 206.6 2210.2 206.2 C2209.5 205.8 2205.6 204.2 2206.4 203 C2206.8 202.3 2215.6 207.2 2215.2 208.1 C2214.7 209 2215.6 207.2 2215.2 208.1 z" id="s3" fill="#FFF922" /><path d="M2227.4 212 C2227 213.4 2222.9 211.6 2222.2 211.4 C2221.4 211.2 2217.4 210.7 2217.6 209.3 C2217.9 208.4 2227.7 211 2227.4 212 C2227.2 213 2227.7 211 2227.4 212 z" id="t3" fill="#FFF922" /><path d="M2211.6 213.7 C2211 214.9 2207.4 212.2 2206.6 211.8 C2205.9 211.4 2202 209.8 2202.8 208.6 C2203.2 208 2212.1 213 2211.6 213.7 C2211.1 214.7 2212.2 212.9 2211.6 213.7 z" id="u3" fill="#FFF922" /><path d="M2225.6 218.7 C2225.2 220.1 2221.1 218.3 2220.4 218.1 C2219.6 217.9 2215.6 217.4 2215.8 216 C2216.1 215.3 2225.9 217.6 2225.6 218.7 z" id="v3" fill="#FFF922" /></g><path d="M2266.3 204.6 C2268.2 204.6 2269.2 207.5 2270.1 208.8 C2270.9 210.2 2272.7 212.6 2270.5 213.8 C2268.8 214.7 2267.2 215.7 2265.5 216.6 C2264.2 217.3 2261.8 219.2 2260.3 218.5 C2259.9 218.4 2258.6 216.5 2258.5 216.5 C2258.3 216.6 2259 218.6 2259 219 C2258.8 221 2256.1 221.2 2254.5 221.7 C2252.5 222.3 2250.6 222.9 2248.6 223.5 C2246.2 224.2 2245.7 222.6 2245.1 220.7 L2245 220.7 C2245 221.5 2245.1 222.5 2244.9 223.3 C2244.8 223.7 2244.1 224 2244.1 224.2 L2244.1 227.4 C2244.1 228 2244.1 227.9 2244.7 227.9 C2246.1 228 2247.5 228.3 2248.8 228.7 C2251.5 229.6 2253.9 231.6 2254 234.7 C2254.1 237.4 2253.4 240.4 2250.9 241.9 C2253.4 242.6 2255.5 244.4 2256.2 246.9 C2257.1 250.3 2255.7 255.4 2252.8 257.4 C2251.3 258.5 2249.1 258.9 2247.3 259.2 C2246.4 259.3 2244.9 259.1 2244.1 259.4 C2244 259.5 2244.1 260.1 2244.1 260.2 C2244.1 261.4 2244.1 262.6 2244.1 263.7 C2244.1 264.1 2244.3 265.9 2244.1 266.2 C2243.7 266.6 2239.4 266.2 2239.4 266.1 C2239.4 264 2239.4 261.9 2239.4 259.7 C2239.4 259.6 2236.7 259.1 2236.7 259.8 L2236.7 266.2 C2236.7 266.3 2234.6 266.3 2234.3 266.3 C2233.5 266.3 2232.8 266.3 2231.9 266.3 C2231.8 266.3 2231.9 265.1 2231.9 265 C2231.9 263.2 2231.9 261.3 2231.9 259.6 C2231.9 259.5 2224.4 259.5 2223.5 259.5 C2223.9 257.7 2224.1 255.8 2224.4 254.1 C2224.4 254 2226.8 254.1 2227 254.1 C2228.3 254.1 2229 253.7 2229 252.4 C2229.1 248.3 2229 244.3 2229 240.1 C2229 238.6 2229 236.9 2229 235.4 C2229 233.7 2228.1 233 2226.5 233 C2226.1 233 2223.6 233 2223.6 232.8 C2223.6 231.7 2223.6 230.7 2223.6 229.5 C2223.6 228.9 2223.2 228.1 2224 228.1 L2232 228.1 C2232 227.3 2232 226.4 2232 225.5 C2232 224.4 2232 224.6 2231.5 223.7 C2231.1 222.9 2231.3 221.8 2231.3 220.9 L2231.2 220.9 C2231 221.8 2230.7 223.1 2229.8 223.6 C2229 224.1 2228.1 223.8 2227.3 223.6 C2224.9 222.9 2222.7 222.3 2220.3 221.6 C2219.7 221.5 2219.2 221.4 2218.6 221.1 C2216.7 220.5 2217.1 218.9 2217.5 217.3 C2217.9 215.9 2216.9 217.5 2216.7 218 C2216.1 219.2 2214.5 219.2 2213.4 218.7 C2211.4 217.5 2209.4 216.5 2207.4 215.3 C2205.7 214.4 2203.5 213.4 2204.8 211.2 C2205.7 209.5 2206.7 207.7 2207.7 206 C2208.9 203.5 2212.1 205.9 2213.5 206.7 C2214.8 207.4 2216.2 208.2 2217.5 208.9 C2218.4 209.5 2219.9 210 2220.1 211.1 C2221.2 210.5 2222.8 211.3 2223.9 211.7 C2225.8 212.3 2227.6 212.8 2229.4 213.4 C2229.9 213.5 2230.3 213.6 2230.7 213.8 C2231.2 213.9 2231.5 214.3 2231.9 214.6 C2232.3 214.4 2232.7 214.1 2233.2 214.1 L2243.3 214.1 C2243.5 214.1 2243.8 214.2 2244 214.5 C2244.2 214.1 2244.7 213.8 2245.2 213.7 C2245.6 213.6 2246 213.5 2246.4 213.3 C2248.2 212.8 2250.1 212.2 2251.8 211.8 C2253 211.4 2254.7 210.5 2255.9 211.1 C2256 209.4 2259.3 208.3 2260.5 207.7 C2261.7 207.1 2262.7 206.4 2263.9 205.8 C2264.7 205.5 2265.9 204.6 2266.3 204.6 z M2236.5 227.7 C2236.9 227.7 2239.2 227.7 2239.2 227.7 C2239.2 227.1 2239.6 224.8 2239.2 224.3 C2239.1 224.1 2236.5 224.4 2236.5 224.3 C2236.5 225.5 2236.5 226.5 2236.5 227.7 z M2237.7 241 C2239.7 241 2242.3 240.8 2243.5 239 C2244.9 236.9 2242.9 234.6 2240.8 234.3 C2240.3 234.3 2236.2 233.9 2236.2 234.2 L2236.2 239.9 C2236.2 241.1 2236.3 241 2237.7 241 z M2238.2 252.6 C2240.1 252.6 2246.7 252.1 2245.3 248.7 C2244.2 246.1 2240.3 245 2237.9 245 C2236.7 245 2236.2 244.8 2236.2 245.9 L2236.2 252 C2236.2 252.8 2237.5 252.6 2238.2 252.6 z M2266.3 203.4 C2264.5 203.4 2262.3 205.2 2260.8 206.1 C2259.1 207 2257 207.8 2255.7 209 C2254.9 209.7 2255.1 209.4 2254 209.7 C2253.9 209.7 2253.6 209.8 2253.5 209.8 C2252.4 210.2 2251.4 210.4 2250.3 210.7 C2248.4 211.3 2246.5 211.8 2244.5 212.4 C2244.1 212.5 2243.7 212.8 2243.4 213 C2243 212.9 2242.8 212.9 2242.5 212.9 L2238.4 212.9 C2236.4 212.9 2234.4 212.8 2232.4 212.9 C2231.7 213 2230.6 212.4 2229.8 212.1 C2228.6 211.7 2227.4 211.4 2226.3 211 C2224.5 210.5 2222.4 209.5 2220.5 209.5 C2220 209.3 2219.6 208.7 2219.1 208.3 C2218.6 208.1 2218.2 207.7 2217.7 207.5 C2216 206.6 2214.3 205.6 2212.6 204.7 C2211.5 204.1 2209.7 202.7 2208.4 203.4 C2206.5 203.9 2205.7 206.1 2204.9 207.5 C2204.2 208.8 2202.8 210.6 2202.9 212.1 C2203.1 214 2204.8 214.8 2206.3 215.6 C2208 216.5 2209.7 217.5 2211.4 218.4 C2212.5 219 2214.6 220.5 2215.6 219.5 C2216.4 221.7 2219.1 222 2221.1 222.6 C2223.1 223.2 2225.1 223.8 2227.1 224.4 C2227.7 224.6 2228.4 224.6 2229 224.4 C2229.4 224.3 2230.2 223.6 2230.2 224.3 C2230.2 224.8 2230.6 226.3 2230 226.3 C2227.8 226.3 2225.6 226.3 2223.4 226.3 C2221.2 226.3 2222 230 2222 231.5 C2222 234.8 2225.1 232.8 2227.1 233.9 C2227.9 234.3 2227.5 237.2 2227.5 237.8 L2227.5 251.2 C2227.5 251.8 2227.7 252.5 2227 252.5 C2226.3 252.7 2225 252.5 2224.2 252.5 C2222.4 252.5 2222.4 257.1 2222.2 258.4 C2221.7 261 2225 260.3 2226.7 260.3 C2227.8 260.3 2228.9 260.3 2230 260.3 C2230.7 260.3 2230.5 260.9 2230.5 261.6 C2230.5 262.9 2229.8 267.1 2231.8 267.1 C2233 267.1 2237.6 267.8 2237.6 265.9 C2238 264.2 2237.6 262.1 2237.6 260.4 C2237.6 260 2238 260.5 2238 260.8 L2238 265.9 C2238 268 2241.9 267.3 2243.3 267.3 C2244.2 267.3 2245.1 267.2 2245.1 266 C2245.1 264.9 2245.1 264 2245.1 262.9 C2245.1 262.5 2244.9 260.7 2245.1 260.4 C2247.5 260.4 2249.7 259.8 2251.8 259 C2255.5 257.6 2257.2 253 2257.5 249.3 C2257.6 245.9 2256 242.9 2253 241.3 C2255.7 238.4 2255.9 232.8 2253.1 230 C2251.7 228.5 2249.8 227.6 2247.9 227.2 C2247.4 227.1 2245 226.8 2245 226.5 C2245 225.9 2245 225.2 2245 224.6 C2245.6 224 2245.5 224.4 2246.3 224.6 C2246.9 224.8 2247.6 224.8 2248.2 224.6 C2248.7 224.5 2249.1 224.4 2249.6 224.2 C2251.5 223.6 2253.3 223.1 2255.1 222.5 C2256.4 222.1 2258 221.9 2259.1 220.8 C2259.7 220.2 2259.5 219.6 2260.3 219.9 C2261 220.1 2261.8 219.9 2262.5 219.5 C2262.9 219.3 2263.2 219 2263.6 218.9 C2265.3 218 2266.9 217 2268.7 216.1 C2270 215.4 2271.6 214.7 2272.4 213.3 C2273.3 211.4 2271.8 209.5 2270.9 208 C2270 206.5 2269.1 204.1 2267.2 203.5 C2267 203.4 2266 203.4 2266.3 203.4 z M2237.4 235.2 C2238.6 235.2 2240.1 235.2 2241.2 235.6 C2243.7 236.3 2243 238.9 2240.8 239.4 C2239.7 239.8 2238.7 239.8 2237.6 239.8 C2237.1 239.8 2237.4 239.3 2237.4 238.9 C2237.4 237.6 2237.4 236.4 2237.4 235.2 z M2237.4 246.2 C2239.4 246.2 2241.9 246.6 2243.4 248 C2245.3 249.7 2243.4 250.8 2241.6 251.2 C2240.3 251.4 2239 251.6 2237.7 251.6 C2237 251.6 2237.2 251.1 2237.2 250.5 C2237.4 248.9 2237.4 247.6 2237.4 246.2 z" id="w3" fill="#CC9A1B" /></g></g></g></g></g></g><defs><g transform="translate(17.09519, 0.800995) translate(-135.2952, -293.601)" id="x3" fill="#000"><path d="M118.2 302.7 C118.4 307.4 132.5 311.2 149.8 311.2 C167.1 311.2 181.2 307.4 181.4 302.7 C181.4 307.5 181.4 310.1 181.4 310.5 C181.4 315.3 167.3 319.1 149.8 319.1 C132.3 319.1 118.2 315.2 118.2 310.5 L118.2 302.7 L118.2 302.7 z" fill-opacity="0.4528" id="y3" fill="#593001" /><path d="M118.7 301.7 C118.9 306.4 133 310.2 150.3 310.2 C167.6 310.2 181.7 306.4 181.9 301.7 C181.9 306.5 181.9 309.1 181.9 309.5 C181.9 314.3 167.8 318.1 150.3 318.1 C132.8 318.1 118.7 314.2 118.7 309.5 L118.7 301.7 L118.7 301.7 z" id="z3" fill="#DA8113" /><linearGradient x1="46.0545" y1="-118.6926" x2="45.4656" y2="-118.6926" gradientUnits="userSpaceOnUse" gradientTransform="matrix(117.135, 0, 0, 28.4634, -5208.417, 3687.795)" id="a4"><stop offset="0%" stop-color="#D9952A" stop-opacity="1" /><stop offset="6.438854%" stop-color="#CA7519" stop-opacity="1" /><stop offset="30.54%" stop-color="#E3AD3A" stop-opacity="1" /><stop offset="51.05%" stop-color="#FFEC91" stop-opacity="1" /><stop offset="68.8%" stop-color="#E9BD44" stop-opacity="1" /><stop offset="86.24%" stop-color="#FFED6C" stop-opacity="1" /><stop offset="93.87%" stop-color="#F2D353" stop-opacity="1" /><stop offset="100%" stop-color="#F2B947" stop-opacity="1" /></linearGradient><path d="M118.2 301.6 C118.4 306.1 132.7 309.7 150.3 309.7 C167.9 309.7 182.2 306.1 182.4 301.6 C182.4 306.2 182.4 308.7 182.4 309 C182.4 313.5 168 317.2 150.3 317.2 C132.6 317.2 118.2 313.5 118.2 309 L118.2 301.6 L118.2 301.6 z" id="b4" style="fill:url(#a4)" /><linearGradient x1="45.4914" y1="-117.9547" x2="45.9407" y2="-117.5895" gradientUnits="userSpaceOnUse" gradientTransform="matrix(115.425, 0, 0, 29.925, -5125.077, 3826.124)" id="c4"><stop offset="0%" stop-color="#F4E072" stop-opacity="1" /><stop offset="100%" stop-color="#DB9427" stop-opacity="1" /></linearGradient><ellipse cx="150.3" cy="301.5" rx="31.6" ry="8.2" id="d4" style="fill:url(#c4)" /><linearGradient x1="45.4656" y1="-126.0065" x2="46.0545" y2="-126.0065" gradientUnits="userSpaceOnUse" gradientTransform="matrix(117.135, 0, 0, 18.6219, -5208.417, 2651.479)" id="e4"><stop offset="0%" stop-color="#D9952A" stop-opacity="1" /><stop offset="6.438854%" stop-color="#CA7519" stop-opacity="1" /><stop offset="30.54%" stop-color="#E3AD3A" stop-opacity="1" /><stop offset="51.05%" stop-color="#FFEC91" stop-opacity="1" /><stop offset="68.8%" stop-color="#E9BD44" stop-opacity="1" /><stop offset="86.24%" stop-color="#FFED6C" stop-opacity="1" /><stop offset="93.87%" stop-color="#F2D353" stop-opacity="1" /><stop offset="100%" stop-color="#F2B947" stop-opacity="1" /></linearGradient><path d="M119.2 299.9 C119 300.2 118.9 300.6 118.9 301 C118.9 305.5 132.9 309.2 150.3 309.2 C167.7 309.2 181.7 305.5 181.7 301 C181.7 300.6 181.6 300.3 181.4 299.9 C182 300.5 182.4 301.2 182.4 301.9 C182.4 306.4 168 310.1 150.3 310.1 C132.6 310.1 118.2 306.4 118.2 301.9 C118.2 301.3 118.6 300.6 119.2 299.9 z" id="f4" style="fill:url(#e4)" /><linearGradient x1="45.196" y1="-121.5895" x2="45.3746" y2="-120.6758" gradientUnits="userSpaceOnUse" gradientTransform="matrix(101.745, 0, 0, 23.94, -4458.332, 3199.41)" id="g4"><stop offset="0%" stop-color="#F8DD61" stop-opacity="1" /><stop offset="100%" stop-color="#EAA330" stop-opacity="1" /></linearGradient><ellipse cx="150.3" cy="300.8" rx="27.8" ry="6.6" id="h4" style="fill:url(#g4)" /><linearGradient x1="45.5694" y1="-134.267" x2="45.0221" y2="-134.267" gradientUnits="userSpaceOnUse" gradientTransform="matrix(101.745, 0, 0, 13.2525, -4458.332, 2077.223)" id="i4"><stop offset="0%" stop-color="#F4CA2F" stop-opacity="1" /><stop offset="51.38%" stop-color="#BF7737" stop-opacity="1" /><stop offset="100%" stop-color="#E4A929" stop-opacity="1" /></linearGradient><path d="M122.6 301.5 C122.5 301.3 122.4 301 122.4 300.8 C122.4 297.2 134.9 294.2 150.2 294.2 C165.5 294.2 178 297.1 178 300.8 C178 301 177.9 301.3 177.8 301.5 C176.3 298.2 164.5 295.6 150.1 295.6 C135.7 295.6 124.1 298.2 122.6 301.5 z" id="j4" style="fill:url(#i4)" /></g></defs><desc>8K8754OO2F8,e7+zxuPYdTWq/dWK3g/tlz5FFhNKnymMPHIkF+NBPdDTDE7hyzYwp6G6uMHMcwJ3GcykoFwiCz00nlTEigSDpMfwuISRREEsKNftXHFq0xpix4qi9qVX3nR3HemKSkMJApHDWWpQjurSbQoptZFn/BgxF1p3wo3GT4hutCDnc8s6KABD08INoq/QpoiyXD0mORh6anXWJApjFgsfNB/q8A==</desc></svg>