<?xml version="1.0" encoding="utf-8"?><!DOCTYPE svg PUBLIC "-//W3C//DTD SVG 1.1//EN" "http://www.w3.org/Graphics/SVG/1.1/DTD/svg11.dtd"><svg x="0" y="0" width="340px" height="340px" viewBox="0, 0, 340, 340" preserveAspectRatio="xMidYMid" font-size="0" id="a" enable-background="new 0 0 340 340" xmlns="http://www.w3.org/2000/svg" xmlns:xlink="http://www.w3.org/1999/xlink" xmlns:xml="http://www.w3.org/XML/1998/namespace" version="1.1"><g id="b" fill="#000"><g id="c"><g transform="translate(0, 0) translate(0, 224)" id="d"><ellipse cx="168.6" cy="53.1" rx="57.8" ry="12.8" fill-opacity="0.25" id="e" /></g><g id="f"><g transform="translate(110.4, 104.5) translate(25.5, 135.5) scale(-1, 1) translate(-25.5, -135.5) translate(24, 134)" id="g" /><g transform="translate(127.7, 273.3) scale(1.269165) translate(-127.7, -273.3) translate(97.09999, 79.79997) translate(19, 139)" id="h"><g id="i"><g opacity="0.4" transform="translate(0, 1)" id="j"><path d="M18.5 0.9 C11.9 2.4 9.5 4.8 7.3 7.6 C5.1 10.4 6.7 11.2 6.6 12.4 C6.5 13.7 4.7 15.1 3.8 16.8 C2.9 18.5 0.4 21.3 0.8 23.1 C1 24.3 7.1 19.9 8.5 18.7 C7.6 19.3 3 24.9 2.6 26.8 C2 29.5 1.1 32.1 1.9 34.6 C2.7 37.1 3.7 38.3 4.5 38.7 C4.8 38.9 6.8 38.7 7.1 39.3 C7.5 40 6.2 41.4 5.9 42.2 C5.4 43.7 6.4 44.3 7.3 45.1 C8.2 45.9 10 47.9 11.3 49.1 C12.6 50.3 13.4 51.7 13.7 53.2 C13.8 54.1 14.9 54.8 17 55.3 C21.8 55.9 24.9 55.9 26.3 55.3 C28.4 54.4 31.3 51.9 32.7 38.5 C34.1 25.1 32.7 12.5 31.2 9.7 C29.7 6.9 25.1 -0.5 18.5 0.9 z" stroke="#000000" stroke-width="3" opacity="0.4" id="k" /></g><path d="M18.5 0.9 C11.9 2.4 8.9 4.4 7.3 7.6 C5.7 10.8 6 11.8 5.9 13 C5.8 14.3 4.2 15.1 3.3 16.8 C2.4 18.5 0.9 21.8 1.3 23.6 C1.5 24.8 2.4 24.8 3.8 23.6 C2.9 24.2 2.3 25.4 1.9 27.3 C1.3 30 1.1 31.8 1.9 34.3 C2.7 36.8 3.6 39.2 4.4 39.6 C5.1 40 6.4 40.7 5.9 42.2 C5.4 43.7 6.4 44.3 7.3 45.1 C8.2 45.9 10 47.9 11.3 49.1 C12.6 50.3 13.4 51.7 13.7 53.2 C13.9 54.6 15.8 55.9 17 56 C18.3 56.1 24.2 56.2 26.3 55.3 C28.4 54.4 31.3 51.9 32.7 38.5 C34.1 25.1 32.7 12.5 31.2 9.7 C29.7 6.9 25.1 -0.5 18.5 0.9 z" id="l" fill="#B09082" /><g opacity="0.2" transform="translate(3, 46)" id="m"><path d="M7.5 0.8 C2.6 3.3 1.3 5.9 0.5 9.4 C-0.3 12.1 5.6 12.5 8.6 11.8 C11.6 11.1 16.6 11.6 16.6 10.3 C16.6 9 17.3 8.8 16.6 5.5 C16.2 3.5 14.9 2.6 12.6 1.8 C11.3 1.3 9.3 -0.2 7.5 0.8 z" stroke="#000000" stroke-width="3" opacity="0.2" id="n" /></g><path d="M10.4 46.1 C5.5 48.6 4 49.8 3.4 53.7 C2.8 57.6 8.9 58.2 11.9 57.5 C14.9 56.8 19.7 56.6 19.7 55.3 C19.7 54 20.4 53.8 19.7 50.5 C19.3 48.5 18 47.6 15.7 46.8 C14.3 46.3 12.2 45.1 10.4 46.1 z" id="o" fill="#7B4C3A" /></g></g><g transform="translate(212.2, 273.3) scale(1.269165) translate(-212.2, -273.3) translate(96.7, 79.79997) translate(108.5, 168.5) scale(-1, 1) translate(-108.5, -168.5) translate(91, 139)" id="p"><g transform="translate(17.5, 29.5) scale(-1, 1) translate(-17.5, -29.5)" id="q"><g opacity="0.15" transform="translate(0, 1)" id="r"><path d="M15.8 1.1 C19.6 2.1 22.4 0.7 24.7 3.2 C27 5.7 28.8 6 29 8.5 C29.2 11 32.3 13.9 31.1 13.1 C33 15.7 29.7 14.2 31.9 17 C34.1 19.8 35.1 21.6 34.7 24.6 C33.9 24.6 30.8 20.4 31.1 22.7 C31.3 23.8 33.1 26.8 33.7 28.5 C34.3 30.4 33.2 33.6 33 35.5 C32.7 38.1 33.4 41.3 33 41.8 C32.5 42.4 27.3 34.6 27.9 36.1 C28.8 38.4 31.4 43.8 30.5 46.4 C29.6 49 29.8 48.1 26.9 50.3 C24 52.5 26.2 53.1 22.6 54.7 C19 56.3 10.1 56.7 7 53.2 C3.9 49.7 -0.4 34.5 0.7 28.4 C1.8 22.3 2.3 10.2 6 6.7 C9.7 3.2 12 0.1 15.8 1.1 z" stroke="#000000" stroke-width="3" opacity="0.15" id="s" /></g><path d="M15.8 1.1 C19.6 2.1 22.4 0.7 24.7 3.2 C27 5.7 29.8 6.3 30 8.8 C30.2 11.3 32.3 13.9 31.1 13.1 C33 15.7 29.7 14.2 31.9 17 C34.1 19.8 34.9 22.8 34.5 25.8 C33.7 25.8 31.6 22.4 31.9 24.7 C32.1 25.8 33.9 27.8 34.5 29.5 C35.1 31.4 33.2 33.7 33 35.6 C32.7 38.2 32.4 41.5 32 42 C31.5 42.6 29.6 39.6 30.2 41.1 C31.1 43.4 31.1 43.5 30.2 46.1 C29.3 48.7 28.4 47.6 25.5 49.8 C22.6 52 26.3 53.3 22.7 54.9 C19.1 56.5 10.2 56.9 7.1 53.4 C4 49.9 -0.3 34.7 0.8 28.6 C1.9 22.5 2.3 10.2 6 6.7 C9.7 3.2 12 0.1 15.8 1.1 z" id="t" fill="#B09082" /><g opacity="0.2" transform="translate(16, 46)" id="u"><path d="M10.5 1.1 C15.4 3.6 17.4 6.8 17.4 9.3 C17.4 11.8 11.8 12.8 8.8 12.1 C5.8 11.4 3.6 11.2 1.6 11.2 C-0.4 11.2 -0.1 10.1 0.6 6.8 C1 4.7 2.2 3.1 4.6 2.4 C6.1 1.9 8.7 0.2 10.5 1.1 z" stroke="#000000" stroke-width="3" opacity="0.2" id="v" /></g><path d="M26.5 46.1 C31.4 48.6 32.9 49.8 33.5 53.7 C34.1 57.6 28 58.2 25 57.5 C22 56.8 19.7 56.2 17.7 56.2 C15.7 56.2 16 55.1 16.7 51.8 C17.1 49.7 18.3 48.1 20.7 47.4 C22.1 46.9 24.7 45.2 26.5 46.1 z" id="w" fill="#7B4C3A" /></g></g><g transform="translate(91.50001, 85.89998) translate(37, 51)" id="x"><g transform="translate(3, 0)" id="y"><path d="M61 19.7 C61 35.9 63.7 34.2 65.4 38.8 C67.1 43.4 74 52.4 75.2 65.1 C76.4 77.8 75.8 91.7 71.8 103.4 C67.8 115.1 70.7 136.2 61.1 138.9 C60.8 139 29.3 142 17.6 138.9 C5.5 135.7 11.4 122.7 6.1 105.5 C0.8 88.3 -0.2 79.6 0.1 65.1 C0.4 50.6 10.3 43.5 12.1 38.7 C13.9 33.9 16.2 32 16.2 19.6 C16.2 7.2 24.2 0.2 41.6 0.7 C46.8 0.9 61 3.4 61 19.7 z" id="z" fill="#D8C6BA" /><path d="M61 19.7 C61 35.9 63.7 34.2 65.4 38.8 C67.1 43.4 74 52.4 75.2 65.1 C76.4 77.8 75.8 91.7 71.8 103.4 C67.8 115.1 70.7 136.2 61.1 138.9 C60.8 139 29.3 142 17.6 138.9 C5.5 135.7 11.4 122.7 6.1 105.5 C0.8 88.3 -0.2 79.6 0.1 65.1 C0.4 50.6 10.3 43.5 12.1 38.7 C13.9 33.9 16.2 32 16.2 19.6 C16.2 7.2 24.2 0.2 41.6 0.7 C46.8 0.9 61 3.4 61 19.7 z M60.2 20.5 C60.2 4.8 46.6 2.4 41.5 2.2 C24.6 1.7 16.9 8.5 16.9 20.4 C16.9 32.3 14.7 34.1 12.9 38.8 C11.2 43.5 1.7 50.4 1.4 64.3 C1.1 78.2 2 86.7 7.2 103.2 C12.4 119.7 6.6 132.4 18.2 135.4 C29.5 138.4 59.9 135.5 60.2 135.4 C69.5 132.8 66.8 112.4 70.5 101.2 C74.4 90 75 76.6 73.8 64.3 C72.6 52 65.9 43.3 64.4 38.9 C62.8 34.5 60.2 36.1 60.2 20.5 z" opacity="0.15" id="a1" /></g></g><g transform="translate(131.5243, 186.414) scale(0.794039, 0.9422653) translate(-121.7, -186.8) translate(97.99999, 60.79997) translate(24, 127)" id="b1"><path d="M6.1 0.2 C11.1 5.7 15.3 10.1 18.8 13.2 C26.2 19.7 34 23.4 34.2 23.5 C39.7 27 43.3 27.1 48.3 27.1 C53.3 27.1 61.1 25.3 64.4 23.5 C66 22.6 72.5 19.8 80.3 12 C83.2 9.2 86 4.8 88.8 -1 C90.9 1.7 92.5 5.5 93.6 10.3 C94.4 14.1 91.9 19.6 92.1 24.6 C90.9 36.8 87.7 37.7 83.8 47 C82.9 49.2 84.6 50.8 83.6 53.8 C80.2 63.3 76.6 75.4 76 82 C75.8 84.4 77.6 84.2 80.5 87.3 C83.4 90.4 86.7 99 82.8 100.9 C74 102.3 63.9 97.7 61.3 96.3 C59.6 95.4 59.3 78 59.6 61.4 C59.7 51.6 60.3 42 59.6 39.7 C57.5 41.8 51.1 46.2 48.5 46 C45.9 45.8 43.6 42.3 37.8 38.9 C37.4 41.1 38.8 52.2 39 61.3 C39.4 78 39 96.2 37.8 97.4 C36.1 99.4 18.9 101.8 14.7 100.8 C10.5 99.8 12.7 93.7 13.5 92 C15.4 87.8 21 85 20.9 83.5 C20.2 71.3 17.3 63 14.7 56.5 C13.7 54.1 14.3 49.9 13.5 47.9 C8.1 34.4 6.9 36.4 4.9 31.7 C3.2 27.8 1 25.4 2 21.1 C3 16.8 1.4 11 2.1 9.3 C3 6.9 4.3 3.8 6.1 0.2 z" id="c1" fill="#FAF4E8" /><path d="M93.6 10.2 C94.4 14 94.9 18.4 95.1 23.4 C93.9 35.6 92.9 33.6 89 43 C88.1 45.1 83.9 52.6 82.8 55.2 C81 57.3 80.8 59.3 78.9 59.4 C76.2 59.6 76.9 55.9 80.9 46.4 C83.6 39.8 84.8 35.9 86.7 26.5 C87.9 20.2 91.4 13.1 93.6 10.2 z" id="d1" fill="#7B4C3A" /><path d="M14.6 56.5 C13.6 54.1 12.7 51.9 11.9 49.9 C6.6 36.4 0.8 32.6 0.3 25.4 C-0.3 19.9 0.1 17.8 0.8 13.5 C1 12.4 1.4 11 2.1 9.3 C4.8 12.1 10 19.9 11.3 26.4 C13.2 35.8 14.4 39.7 17.1 46.3 C21 55.8 21.8 59.4 19.1 59.3 C17.4 59.2 16.1 58.2 14.6 56.5 z" id="e1" fill="#7B4C3A" /><path d="M6.1 0.2 C11.1 5.7 15.3 10.1 18.8 13.2 C26.2 19.7 34 23.4 34.2 23.5 C39.7 27 43.3 27.1 48.3 27.1 C53.3 27.1 61.1 25.3 64.4 23.5 C66 22.6 72.5 19.8 80.3 12 C83.2 9.2 86 4.8 88.8 -1 C90.9 1.7 92.5 5.5 93.6 10.3 C94.4 14.1 94.9 18.5 95.1 23.5 C93.9 35.6 92.9 33.6 89 43 C88.3 44.7 85.5 49.8 83.8 53.1 C83.8 53.3 83.7 53.5 83.6 53.8 C80.2 63.3 76.6 75.4 76 82 C75.8 84.4 77.6 84.2 80.5 87.3 C83.4 90.4 86.7 99 82.8 100.9 C74 102.3 63.9 97.7 61.3 96.3 C59.6 95.4 59.3 78 59.6 61.4 C59.7 51.6 60.3 42 59.6 39.7 C57.5 41.8 51.1 46.2 48.5 46 C45.9 45.8 43.6 42.3 37.8 38.9 C37.4 41.1 38.8 52.2 39 61.3 C39.4 78 39 96.2 37.8 97.4 C36.1 99.4 18.9 101.8 14.7 100.8 C10.5 99.8 12.7 93.7 13.5 92 C15.4 87.8 21 85 20.9 83.5 C20.2 71.5 17.4 63.3 14.9 56.9 C14.8 56.8 14.7 56.6 14.5 56.5 C13.5 54.1 12.6 51.9 11.8 49.9 C6.6 36.4 0.8 32.6 0.3 25.4 C-0.3 19.9 0.1 17.8 0.8 13.5 C1 12.4 1.4 11 2.1 9.3 C3 6.9 4.3 3.8 6.1 0.2 z M8.6 4.8 C6.9 8.1 6.3 10.2 5.5 12.4 C4.9 14 4.5 15.3 4.3 16.4 C3.7 20.4 3.3 22.3 3.8 27.4 C4.3 34 9.6 37.5 14.5 50.1 C15.2 52 16.1 54 17 56.2 C17.1 56.3 17.2 56.4 17.3 56.6 C19.7 62.6 22.2 73.6 22.8 84.7 C22.9 86.1 17.6 87 15.9 90.9 C15.2 92.5 13.2 96.4 17.1 97.3 C21 98.2 34.2 96.4 35.8 94.5 C36.9 93.4 37.5 74.5 37.2 58.9 C37 50.5 34 37.5 34.4 35.5 C39.8 38.6 46.5 44.9 48.8 45 C51.1 45.1 60.4 37 62.3 35.1 C62.9 37.2 61.2 52.7 61.1 61.8 C60.8 77.1 61 93.5 62.6 94.3 C65 95.6 72 98.6 80.1 97.3 C83.7 95.4 79.9 90.2 77.2 87.4 C74.5 84.6 74.1 84.9 74.3 82.6 C74.9 76.5 77.7 62.4 80.8 53.6 C80.9 53.4 80.9 53.2 81 53 C82.5 49.9 85.2 45.2 85.8 43.6 C89.4 34.9 90.3 36.7 91.4 25.6 C91.2 20.9 90.8 16.8 90 13.3 C89 8.9 89.4 6.5 87.5 4 C84.9 9.5 80.4 13.4 77.8 16 C70.5 23.2 64.6 24.7 63.1 25.5 C60 27.2 52.9 30.9 48.3 30.9 C43.7 30.9 40.2 28.7 35.2 25.5 C35 25.4 27.3 22 20.5 16 C17.2 13.1 13.2 9.8 8.6 4.8 z" opacity="0.15" id="f1" /></g></g><g id="g1"><g transform="translate(91.59999, 85.89998) translate(37, 0)" id="h1"><path d="M39.5 0.5 C71.6 1 81 11.5 80.7 29.8 C80.4 48 79.9 54.8 75.6 61.2 C71.3 67.7 69.9 71.1 66.9 81.2 C63.9 91.3 54.7 90.8 41.1 91.1 C27.5 91.5 15.5 87 14.4 80 C13.3 73 9.6 67.3 4.7 60.5 C-0.2 53.7 0.4 34.9 0.3 24.2 C0.2 13.4 7.5 0 39.5 0.5 z" id="i1" fill="#7B4C3A" /><path d="M28.3 90.7 C31.6 92.4 34.5 93.3 36.9 93.4 C40.6 93.6 48.1 93.4 51 92.1 C53 91.2 54.4 90.8 55.2 90.8 C51.5 87.9 49 86.4 47.7 86.2 C45.8 86 40.4 83.9 38.7 85.1 C36.9 86.3 32.9 87 32 87.8 C31.3 88.3 30.2 89.2 28.3 90.7 z" id="j1" fill="#332920" /><path d="M54.7 90.5 C54.8 90.6 54.9 90.7 55.1 90.8 C54.3 90.8 52.9 91.2 50.9 92.1 C48 93.4 40.5 93.6 36.8 93.4 C34.4 93.3 31.5 92.4 28.2 90.7 C28.5 90.5 28.7 90.3 29 90.1 C21 88.4 15.2 84.8 14.5 80.1 C13.4 73.1 9.7 67.4 4.8 60.6 C-0.1 53.8 0.5 34.9 0.4 24.2 C0.3 13.5 7.5 0 39.5 0.5 C71.6 1 81 11.5 80.7 29.8 C80.4 48 79.9 54.8 75.6 61.2 C71.3 67.7 69.9 71.1 66.9 81.2 C65.1 87.4 60.9 89.7 54.7 90.5 z M54 87.2 C59.9 86.4 63.8 84.2 65.6 78.4 C68.5 68.9 69.8 65.6 73.9 59.4 C78 53.2 78.5 46.8 78.8 29.5 C79 12 70.1 2 39.5 1.6 C9.1 1.1 2.2 13.8 2.3 24.1 C2.4 34.3 1.7 52.3 6.4 58.7 C11.1 65.1 14.7 70.6 15.6 77.3 C16.3 81.9 21.9 85.3 29.4 86.8 C29.2 87 28.9 87.2 28.7 87.4 C31.8 89 34.6 89.9 36.9 90 C40.4 90.2 47.6 90 50.3 88.8 C52.2 87.9 53.5 87.6 54.3 87.6 C54.2 87.4 54.1 87.3 54 87.2 z" opacity="0.15" id="k1" /></g><g transform="translate(93.39999, 67.79997) translate(21, 2)" id="l1"><g transform="translate(18.02073, 23.28844) scale(-1, 1) rotate(-6, 0, 0) translate(-18.02073, -23.28844) translate(2.520727, 1.788439)" id="m1"><path d="M1.7 25.8 C-1.9 23.8 -2.7 23.7 -1.4 20.5 C-0.1 17.3 2.4 17.8 5 15.3 C7.6 12.8 13.5 8.6 17.4 6.7 C21.3 4.8 23.7 2.5 25.7 4.7 C27.7 6.9 29.1 12.8 28 18.9 C26.9 25 23.5 30.4 23.1 33.3 C22.7 36.2 21.9 40.6 20.2 42.9 C19.7 43.6 18.2 45.3 17.3 45.8 C15.4 46.7 14 44.9 12.6 41.3 C12.3 40.4 10.5 34.3 8.6 32.4 C6.3 29.9 5.4 27.8 1.7 25.8 z" id="n1" fill="#342520" /><path d="M1.7 25.8 C-1.9 23.8 -2.7 23.7 -1.4 20.5 C-0.1 17.3 2.4 17.8 5 15.3 C7.6 12.8 13.5 8.6 17.4 6.7 C21.3 4.8 23.7 2.5 25.7 4.7 C27.7 6.9 29.1 12.8 28 18.9 C26.9 25 23.5 30.4 23.1 33.3 C22.7 36.2 21.9 40.6 20.2 42.9 C19.7 43.6 18.2 45.3 17.3 45.8 C15.4 46.7 14 44.9 12.6 41.3 C12.3 40.4 10.5 34.3 8.6 32.4 C6.3 29.9 5.4 27.8 1.7 25.8 z M3.9 24.6 C7.2 26.4 8 28.3 10 30.5 C11.7 32.2 13.3 37.7 13.6 38.5 C14.8 41.7 16.1 43.4 17.8 42.5 C18.6 42.1 19.9 40.5 20.4 39.9 C21.9 37.8 22.6 33.9 23 31.3 C23.4 28.7 26.4 23.8 27.4 18.3 C28.4 12.8 27.1 7.5 25.4 5.5 C23.6 3.5 21.5 5.6 18 7.3 C14.5 9 9.3 12.8 6.9 15 C4.5 17.2 2.4 16.8 1.2 19.7 C0 22.6 0.7 22.8 3.9 24.6 z" opacity="0.15" id="o1" /><path d="M5.7 24.6 C3.7 23.6 2.3 23 3.3 20.4 C3.9 18.9 7.5 16.8 10.9 14.2 C13.3 12.3 16.2 10.3 18 9.3 C20.6 7.8 21.8 6.3 23.5 7.6 C25.1 8.9 26.5 14.5 25.7 19.2 C24.9 24 20 35.8 18.7 37.6 C17.4 39.4 16.1 42.4 14.5 38.2 C12.9 34 12.6 31.4 10.9 29.6 C9.2 27.8 7.7 25.6 5.7 24.6 z" id="p1" fill="#7B4C3A" /><path d="M8.2 26.4 C8.3 25.4 9.1 23.7 9.3 23.3 C9.6 22.7 12.3 21.1 14.6 19.7 C15.6 19 18.6 17.4 18.6 17.4 C20.2 16.5 20.1 19.9 18.6 22.6 C17.7 24.2 15.1 29.9 13.3 31.6 C12.7 32.2 12.2 31.1 11 29.5 C9.9 28.1 8.1 26.8 8.2 26.4 z" opacity="0.5" id="q1" fill="#342520" /></g></g><g transform="translate(98.39997, 66.79997) translate(100.9, 24.5) scale(-1, 1) translate(-100.9, -24.5) translate(82.40002, 0)" id="r1"><g transform="translate(18.19189, 24.4854) scale(-1, 1) rotate(-7, 0, 0) translate(-18.19189, -24.4854) translate(2.691893, 2.485396)" id="s1"><path d="M5.4 26.9 C1.8 24.9 1 24.8 2.3 21.6 C3.6 18.4 6.1 18.9 8.7 16.4 C11.3 13.9 17.2 9.7 21.1 7.8 C25 5.9 27.4 3.6 29.4 5.8 C31.4 8 32.8 14 31.7 20.1 C30.7 26.2 27.1 31.6 26.8 34.5 C26.4 37.4 25.6 41.8 23.9 44.1 C23.4 44.8 21.9 46.5 21 47 C19.1 47.9 18.5 47.3 17.1 43.7 C16.8 42.8 17 42 16.7 41.2 C15.3 37.5 14.2 35.4 12.3 33.5 C9.9 31.1 9 29 5.4 26.9 z" id="t1" fill="#342520" /><path d="M5.4 26.9 C1.8 24.9 1 24.8 2.3 21.6 C3.6 18.4 6.1 18.9 8.7 16.4 C11.3 13.9 17.2 9.7 21.1 7.8 C25 5.9 27.4 3.6 29.4 5.8 C31.4 8 32.8 14 31.7 20.1 C30.7 26.2 27.1 31.6 26.8 34.5 C26.4 37.4 25.6 41.8 23.9 44.1 C23.4 44.8 21.9 46.5 21 47 C19.1 47.9 18.5 47.3 17.1 43.7 C16.8 42.8 17 42 16.7 41.2 C15.3 37.5 14.2 35.4 12.3 33.5 C9.9 31.1 9 29 5.4 26.9 z M7.1 25.9 C10.4 27.8 11.2 29.8 13.4 32 C15.1 33.8 16.2 35.7 17.4 39.1 C17.7 39.8 17.5 40.6 17.8 41.4 C19.1 44.7 19.6 45.3 21.4 44.4 C22.2 43.9 23.6 42.4 24.1 41.7 C25.7 39.6 26.4 35.5 26.8 32.8 C27.1 30.1 30.4 25.1 31.3 19.5 C32.3 13.9 31 8.3 29.2 6.3 C27.4 4.3 25.2 6.4 21.6 8.1 C18 9.8 12.6 13.7 10.2 16 C7.8 18.3 5.5 17.8 4.3 20.8 C3.1 23.8 3.8 24.1 7.1 25.9 z" opacity="0.15" id="u1" /><path d="M9.4 25.7 C7.4 24.7 6 24.1 7 21.5 C7.6 20 11.2 17.9 14.6 15.3 C17 13.4 19.9 11.4 21.7 10.4 C24.3 8.9 25.5 7.4 27.2 8.7 C28.8 10 30.2 15.6 29.4 20.3 C28.6 25.1 23.7 36.9 22.4 38.7 C21.1 40.5 19.8 43.5 18.2 39.3 C16.6 35.1 16.3 32.5 14.6 30.7 C12.9 29 11.4 26.8 9.4 25.7 z" id="v1" fill="#7B4C3A" /><path d="M11.5 26.9 C11.6 25.9 12.8 24.9 13 24.5 C13.3 23.9 16 22.3 18.3 20.9 C19.3 20.2 22.3 18.6 22.3 18.6 C23.9 17.7 23.8 21.1 22.3 23.8 C21.4 25.4 18.8 31.1 17 32.8 C15.8 33.9 14.9 30.4 14.4 30.5 C13.3 28.9 11.4 27.8 11.5 26.9 z" opacity="0.5" id="w1" fill="#342520" /></g></g><g id="x1"><g transform="translate(96.59998, 48.99998) translate(49, 49)" id="y1"><path d="M4.9 47.3 C3.6 44.4 4 38.4 6.2 35.6 C7.4 34.1 9.4 31.1 12.6 29.9 C15.5 28.7 19.3 29.2 23.6 29.2 C27.7 29.2 29.8 28.7 32.4 29.6 C35.4 30.7 38.4 33.2 39.9 35.6 C42.6 39.9 42.1 45.1 40.5 47.3 C39.8 48.3 37.6 51.5 35.2 51.8 C32.2 52.2 28.5 50.1 24.2 50.1 C20.6 50.1 16.7 51.9 13.2 51.8 C9 51.6 5.6 48.9 4.9 47.3 z" id="z1" fill="#FAF4E7" /><path d="M14.9 29.3 C14.4 29.4 13.9 29.5 13.5 29.7 C10.6 30.9 8.7 33.6 7.6 35 C5.5 37.6 5.2 43.1 6.4 45.8 C7 47.3 10.2 49.8 14 49.9 C17.2 50 20.9 48.4 24.1 48.4 C28.1 48.4 31.5 50.3 34.3 49.9 C36.5 49.6 38.5 46.7 39.1 45.8 C40.5 43.7 41 39 38.5 35 C37.2 32.9 34.4 30.5 31.6 29.5 C31.3 29.4 30.9 29.3 30.6 29.2 C31.2 29.3 31.8 29.4 32.4 29.6 C35.4 30.7 38.4 33.2 39.9 35.6 C42.6 39.9 42.1 45.1 40.5 47.3 C39.8 48.3 37.6 51.5 35.2 51.8 C32.2 52.2 28.5 50.1 24.2 50.1 C20.6 50.1 16.7 51.9 13.2 51.8 C9 51.7 5.6 48.9 4.9 47.3 C3.6 44.4 4 38.4 6.2 35.6 C7.4 34.1 9.4 31.1 12.6 29.9 C13.3 29.6 14.1 29.4 14.9 29.3 z" opacity="0.15" id="a2" /><g opacity="0.4" transform="translate(6, 34)" id="b2"><circle cx="29.5" cy="11.5" r="1" opacity="0.4" id="c2" /><circle cx="24.5" cy="12.5" r="1" opacity="0.4" id="d2" /><circle cx="5.5" cy="11.5" r="1" opacity="0.4" id="e2" /><circle cx="10.5" cy="11.5" r="1" opacity="0.4" id="f2" /><circle cx="4.5" cy="4.5" r="1" opacity="0.4" id="g2" /><circle cx="32.5" cy="7.5" r="1" opacity="0.4" id="h2" /><circle cx="27.5" cy="8.5" r="1" opacity="0.4" id="i2" /><circle cx="6.5" cy="7.5" r="1" opacity="0.4" id="j2" /><circle cx="2.5" cy="8.5" r="1" opacity="0.4" id="k2" /><circle cx="30.5" cy="4.5" r="1" opacity="0.4" id="l2" /></g><path d="M16.9 41.4 C18.5 43.3 19.1 45.2 18.8 47.1 C18.5 49 17.2 50.4 15.1 51.4 C16.4 51.1 17.3 50.8 17.9 50.7 C19 50.4 19.9 50 20.8 49.9 C21.7 49.7 22.6 49.7 23.3 49.7 C24.2 49.7 25 49.8 26.1 50 C26.7 50.1 27.3 50.4 28.4 50.7 C28.9 50.8 29.8 51 31 51.3 C28.9 50.1 27.7 48.7 27.5 47.2 C27.3 45.7 27.9 43.8 29.4 41.4 C26.7 42.9 24.7 43.7 23.4 43.7 C22.1 43.7 19.8 42.9 16.9 41.4 z" opacity="0.15" id="m2" /></g><g transform="translate(91.29997, 66.49998) translate(65, 74)" id="n2"><path d="M4.2 17 C7.4 16.4 9.1 15 10.5 13.9 C11.4 13.2 12.4 12.3 13.4 11.1 C14.7 12.7 15.6 13.7 16.2 14.1 C17 14.8 19.4 16.3 20.9 16.9 C22.4 17.5 26.3 17.8 26.3 17.2 C26.3 16.6 21.8 15.9 20.2 14.7 C18.6 13.5 17 12.5 15.9 11 C14.9 9.6 15.3 8.6 15.2 7 C15.1 5 15.4 2.8 15.5 1.3 C15.6 -0.7 12.3 -0.1 12.3 1.3 C12.3 2.7 12.3 4.8 12.3 6.6 C12.3 8.4 11.6 10.6 10.2 11.8 C8.8 13 6.9 14.5 4.8 15.3 C3.5 15.8 0.8 16.4 0.9 17 C0.8 17.4 2.9 17.3 4.2 17 z" id="o2" fill="#282421" /></g><g transform="translate(169.7, 136.1) scale(0.8) translate(-169.7, -136.1) translate(91.59997, 68.49998) translate(68, 59)" id="p2"><g id="q2"><path d="M10.5 0.5 C14.8 0.5 15.9 0.9 19.1 3.2 C22.3 5.5 21 9.5 19.6 11.9 C19 12.6 18 13.2 17 14.5 C16.2 15.5 15.5 17.3 14.6 17.9 C13.3 18.8 12.1 19.2 10.3 19.1 C8.5 19.1 7 18.6 5.8 17.9 C3.8 16.7 3.3 15.1 2.5 13.6 C2 12.7 0.5 11.3 0.1 10.1 C-0.6 8.1 -0.9 5.9 0.3 4 C2.3 1 6.1 0.5 10.5 0.5 z" id="r2" fill="#282421" /><path d="M2.6 4.4 C2.6 4.8 4.5 3.9 6.7 3.5 C7.7 3.3 8.8 3.2 10.3 3.2 C11.8 3.2 14.1 4.2 13.7 4.8 C13.1 5.7 13.5 7.1 15.1 7.5 C15.8 7.6 16.4 7.6 17.3 7.3 C18.2 6.9 18.4 6.3 18.5 5.7 C18.6 5.1 18.6 4.3 17.3 3.6 C17 3.4 15.6 2.4 13.8 2.2 C11.6 2 9.8 2 8.2 2.2 C6.6 2.4 5.4 2.6 4.5 3 C3.2 3.6 2.6 4.2 2.6 4.4 z" id="s2" fill="#FFF" /></g></g><g transform="translate(153.1, 111.9) scale(1.1) translate(-153.1, -111.9) translate(113.9, 67.49997) translate(31, 38)" id="t2"><g id="u2"><path d="M16.2 9 C14.2 11.9 10.5 13.5 7.1 12.8 C3.7 12.1 0.8 9.3 0 5.9 C1.5 3.8 3.6 2.1 6 1.2 C8.4 0.4 11.2 0.5 13.4 1.8 C15.6 3.1 17.1 5.7 16.9 8.2" id="v2" fill="#EAA9A7" /><path d="M11.4 2.2 C8.8 0.5 4.2 3.4 1.5 6.3 C1.3 6.7 2.8 9.2 5.1 10.4 C7 11.4 9.2 11.4 10.8 10.6 C12.3 9.9 13.9 8.8 14.7 7 C14.8 5 12.9 3.2 11.4 2.2 z" id="w2" fill="#282421" /><path d="M9.1 2.8 C8.3 2.6 7.4 2.8 6.6 3.2 C6.6 3.2 4.7 4.6 5.1 5.4 C5.5 6.2 6.8 5.9 8.2 5.2 C9.6 4.5 9.9 3.6 9.8 3.4 C9.8 3 9.4 2.9 9.1 2.8 z" id="x2" fill="#F4F3F2" /></g></g><g transform="translate(184.3, 111.9) scale(1.1) translate(-184.3, -111.9) translate(105.5, 67.49997) translate(70, 38)" id="y2"><g id="z2"><path d="M0.8 9 C2.8 11.9 6.5 13.5 9.9 12.8 C13.3 12.1 16.2 9.3 17 5.9 C15.5 3.8 13.4 2.1 11 1.2 C8.6 0.4 5.8 0.5 3.6 1.8 C1.4 3.1 -0.1 5.7 0.1 8.2" id="a3" fill="#EAA9A7" /><path d="M5.4 2.2 C8 0.5 12.6 3.4 15.3 6.3 C15.5 6.7 14 9.2 11.7 10.4 C9.8 11.4 7.6 11.4 6 10.6 C4.5 9.9 2.9 8.8 2.1 7 C2.2 5 3.9 3.2 5.4 2.2 z" id="b3" fill="#282421" /><path d="M8.3 2.8 C7.5 2.6 6.6 2.8 5.8 3.2 C5.8 3.2 3.9 4.6 4.3 5.4 C4.7 6.2 6 5.9 7.4 5.2 C8.7 4.5 9.1 3.6 9 3.4 C8.9 3 8.6 2.9 8.3 2.8 z" id="c3" fill="#F4F3F2" /></g></g></g></g></g></g><defs><g transform="translate(17.09519, 0.800995) translate(-135.2952, -293.601)" id="d3" fill="#000"><path d="M118.2 302.7 C118.4 307.4 132.5 311.2 149.8 311.2 C167.1 311.2 181.2 307.4 181.4 302.7 C181.4 307.5 181.4 310.1 181.4 310.5 C181.4 315.3 167.3 319.1 149.8 319.1 C132.3 319.1 118.2 315.2 118.2 310.5 L118.2 302.7 L118.2 302.7 z" fill-opacity="0.4528" id="e3" fill="#593001" /><path d="M118.7 301.7 C118.9 306.4 133 310.2 150.3 310.2 C167.6 310.2 181.7 306.4 181.9 301.7 C181.9 306.5 181.9 309.1 181.9 309.5 C181.9 314.3 167.8 318.1 150.3 318.1 C132.8 318.1 118.7 314.2 118.7 309.5 L118.7 301.7 L118.7 301.7 z" id="f3" fill="#DA8113" /><linearGradient x1="46.0545" y1="-118.6926" x2="45.4656" y2="-118.6926" gradientUnits="userSpaceOnUse" gradientTransform="matrix(117.135, 0, 0, 28.4634, -5208.417, 3687.795)" id="g3"><stop offset="0%" stop-color="#D9952A" stop-opacity="1" /><stop offset="6.438854%" stop-color="#CA7519" stop-opacity="1" /><stop offset="30.54%" stop-color="#E3AD3A" stop-opacity="1" /><stop offset="51.05%" stop-color="#FFEC91" stop-opacity="1" /><stop offset="68.8%" stop-color="#E9BD44" stop-opacity="1" /><stop offset="86.24%" stop-color="#FFED6C" stop-opacity="1" /><stop offset="93.87%" stop-color="#F2D353" stop-opacity="1" /><stop offset="100%" stop-color="#F2B947" stop-opacity="1" /></linearGradient><path d="M118.2 301.6 C118.4 306.1 132.7 309.7 150.3 309.7 C167.9 309.7 182.2 306.1 182.4 301.6 C182.4 306.2 182.4 308.7 182.4 309 C182.4 313.5 168 317.2 150.3 317.2 C132.6 317.2 118.2 313.5 118.2 309 L118.2 301.6 L118.2 301.6 z" id="h3" style="fill:url(#g3)" /><linearGradient x1="45.4914" y1="-117.9547" x2="45.9407" y2="-117.5895" gradientUnits="userSpaceOnUse" gradientTransform="matrix(115.425, 0, 0, 29.925, -5125.077, 3826.124)" id="i3"><stop offset="0%" stop-color="#F4E072" stop-opacity="1" /><stop offset="100%" stop-color="#DB9427" stop-opacity="1" /></linearGradient><ellipse cx="150.3" cy="301.5" rx="31.6" ry="8.2" id="j3" style="fill:url(#i3)" /><linearGradient x1="45.4656" y1="-126.0065" x2="46.0545" y2="-126.0065" gradientUnits="userSpaceOnUse" gradientTransform="matrix(117.135, 0, 0, 18.6219, -5208.417, 2651.479)" id="k3"><stop offset="0%" stop-color="#D9952A" stop-opacity="1" /><stop offset="6.438854%" stop-color="#CA7519" stop-opacity="1" /><stop offset="30.54%" stop-color="#E3AD3A" stop-opacity="1" /><stop offset="51.05%" stop-color="#FFEC91" stop-opacity="1" /><stop offset="68.8%" stop-color="#E9BD44" stop-opacity="1" /><stop offset="86.24%" stop-color="#FFED6C" stop-opacity="1" /><stop offset="93.87%" stop-color="#F2D353" stop-opacity="1" /><stop offset="100%" stop-color="#F2B947" stop-opacity="1" /></linearGradient><path d="M119.2 299.9 C119 300.2 118.9 300.6 118.9 301 C118.9 305.5 132.9 309.2 150.3 309.2 C167.7 309.2 181.7 305.5 181.7 301 C181.7 300.6 181.6 300.3 181.4 299.9 C182 300.5 182.4 301.2 182.4 301.9 C182.4 306.4 168 310.1 150.3 310.1 C132.6 310.1 118.2 306.4 118.2 301.9 C118.2 301.3 118.6 300.6 119.2 299.9 z" id="l3" style="fill:url(#k3)" /><linearGradient x1="45.196" y1="-121.5895" x2="45.3746" y2="-120.6758" gradientUnits="userSpaceOnUse" gradientTransform="matrix(101.745, 0, 0, 23.94, -4458.332, 3199.41)" id="m3"><stop offset="0%" stop-color="#F8DD61" stop-opacity="1" /><stop offset="100%" stop-color="#EAA330" stop-opacity="1" /></linearGradient><ellipse cx="150.3" cy="300.8" rx="27.8" ry="6.6" id="n3" style="fill:url(#m3)" /><linearGradient x1="45.5694" y1="-134.267" x2="45.0221" y2="-134.267" gradientUnits="userSpaceOnUse" gradientTransform="matrix(101.745, 0, 0, 13.2525, -4458.332, 2077.223)" id="o3"><stop offset="0%" stop-color="#F4CA2F" stop-opacity="1" /><stop offset="51.38%" stop-color="#BF7737" stop-opacity="1" /><stop offset="100%" stop-color="#E4A929" stop-opacity="1" /></linearGradient><path d="M122.6 301.5 C122.5 301.3 122.4 301 122.4 300.8 C122.4 297.2 134.9 294.2 150.2 294.2 C165.5 294.2 178 297.1 178 300.8 C178 301 177.9 301.3 177.8 301.5 C176.3 298.2 164.5 295.6 150.1 295.6 C135.7 295.6 124.1 298.2 122.6 301.5 z" id="p3" style="fill:url(#o3)" /></g></defs><desc>6CI76EE56NB,LRoiCkJ9Wr9DwHoAepmF9XcJVMJIbIWhly3mJnyGSYTiR9DnzMPJ6qbaD+TEopWWsQW22J67Wi+1oOzsuNE7g4Myhs3Sa1+bXt+o+6Z4kEs=</desc></svg>