<?xml version="1.0" encoding="utf-8"?><!DOCTYPE svg PUBLIC "-//W3C//DTD SVG 1.1//EN" "http://www.w3.org/Graphics/SVG/1.1/DTD/svg11.dtd"><svg x="0" y="0" width="340px" height="340px" viewBox="0, 0, 340, 340" preserveAspectRatio="xMidYMid" font-size="0" id="a" enable-background="new 0 0 340 340" xmlns="http://www.w3.org/2000/svg" xmlns:xlink="http://www.w3.org/1999/xlink" xmlns:xml="http://www.w3.org/XML/1998/namespace" version="1.1"><g id="b" fill="#000"><g id="c"><g transform="translate(0, 0) translate(0, 224)" id="d"><ellipse cx="168.6" cy="53.1" rx="57.8" ry="12.8" fill-opacity="0.25" id="e" /></g><g id="f"><g transform="translate(90.8, 85.19998) translate(32, 179.5) scale(-1, 1) translate(-32, -179.5) translate(0, 153)" id="g"><g transform="translate(0, 17)" id="h"><path d="M30.7 15 C52.5 16.6 52.4 22.4 52 26.3 C51.6 30.2 36 32.3 37.8 33.7 C39.6 35.1 58.8 32.5 62.5 26.3 C66.2 20.1 62.3 11.8 50.5 7.5 C38.7 3.2 23 -1.1 10.1 2 C3.4 3.6 -3.8 8.7 3.9 12.4 C7.9 14.4 19 14.1 30.7 15 z" id="i" fill="#FDA75C" /><path d="M30.7 15 C52.5 16.6 52.4 22.4 52 26.3 C51.9 27.1 51.2 27.8 50.2 28.4 C50.3 28.4 50.4 28.5 50.4 28.5 C54.6 25.4 56.1 22.6 55.1 20.2 C53.6 16.6 48.8 12.3 41.2 10.5 C36.1 9.3 28.7 7.9 19.6 6 L12.4 6.8 L12.4 12.3 C12.4 12.6 13.5 13.3 15 14.1 C19.6 14.4 25.1 14.5 30.7 15 z" id="j" fill="#AA602E" /><path d="M30.7 15 C19 14.1 7.9 14.4 3.9 12.4 C-3.8 8.7 3.4 3.6 10.1 2 C23 -1.1 38.7 3.2 50.5 7.5 C62.3 11.8 66.2 20.1 62.5 26.3 C58.8 32.5 39.6 35.1 37.8 33.7 C36 32.3 51.6 30.2 52 26.3 C52.4 22.4 52.5 16.6 30.7 15 z M33.4 13.3 C53.2 14.8 53.4 21.9 53 25.5 C52.8 27 51.1 28.7 48.2 29.9 C44.3 31.5 39.1 32.3 40.1 33.1 C41.7 34.3 59 30.6 62 25.2 C65 19.8 60.9 12.4 50.9 8.8 C40.9 5.2 24 0.1 14.4 2.2 C8.2 3.6 1.8 8.3 8.7 11.7 C12.4 13.5 22.8 12.4 33.4 13.3 z" opacity="0.15" id="k" /></g></g><g transform="translate(127.5, 273.3) scale(1.026389) translate(-127.5, -273.3) translate(103.8, 58.59996) translate(15, 148)" id="l"><g id="m"><path d="M7.5 67.2 C7.3 61.1 10.4 57.2 16.8 55.3 C9.2 42.9 0.5 25.2 0.1 19.1 C-0.5 9 3.8 3.3 7.7 0.8 C10.3 -0.9 22 -1.6 27.5 0.1 C33.1 1.6 35.6 7.3 37.4 8.7 C42.7 12.6 47.5 20.2 49.1 25.6 C52.1 35.9 50.3 51.1 49.5 64.3 C44.4 65.8 27.6 69.8 23.9 70.1 C20.7 70.4 16.2 70.4 10.6 70.2 C8.8 70.1 7.5 68.8 7.5 67.2 z" id="n" fill="#AA602E" /><path d="M10.4 44.1 C5 33.9 0.4 23.5 0.1 19.1 C-0.5 9 3.8 3.3 7.7 0.8 C8 0.5 8.5 0.3 8.9 0.1 C8.6 1.4 8.2 2.8 7.7 4.4 C4.1 16.1 12.3 23.6 12.7 28.2 C13.3 35.2 12.2 41.2 10.4 44.1 z" id="o" fill="#7F4924" /><path d="M7.5 67.2 C7.3 61.1 10.4 57.2 16.8 55.3 C9.2 42.9 0.5 25.2 0.1 19.1 C-0.5 9 3.8 3.3 7.7 0.8 C10.3 -0.9 22 -1.6 27.5 0.1 C33.1 1.6 35.6 7.3 37.4 8.7 C42.7 12.6 47.5 20.2 49.1 25.6 C52.1 35.9 50.3 51.1 49.5 64.3 C44.4 65.8 27.6 69.8 23.9 70.1 C20.7 70.4 16.2 70.4 10.6 70.2 C8.8 70.1 7.5 68.8 7.5 67.2 z M9.3 65.4 C9.3 66.9 9.8 68 11.4 68 C16.9 68.2 21.2 68.2 24.2 67.9 C27.7 67.6 42.8 64 47.7 62.6 C48.5 50 51.2 35.2 48.4 25.3 C46.9 20 42.3 12.8 37.2 9.1 C35.5 7.8 33.1 2.3 27.7 0.9 C22.3 -0.7 11.2 -0.1 8.7 1.6 C5 4.1 0.8 9.5 1.4 19.2 C1.8 25 11.4 44.2 18.6 56.2 C12.7 57.9 9.1 59.6 9.3 65.4 z" opacity="0.15" id="p" /></g></g><g transform="translate(212.4, 273.3) scale(1.026389) translate(-212.4, -273.3) translate(92.10001, 58.59996) translate(105.5, 184.5) scale(-1, 1) translate(-105.5, -184.5) translate(80, 148)" id="q"><g id="r"><path d="M9.7 67.2 C9.5 61.1 12.6 57.2 19 55.3 C11.4 42.9 2.7 25.2 2.3 19.1 C1.7 9 6 3.3 9.9 0.8 C12.4 -0.9 22 -1.6 27.6 0.1 C33.8 1.8 39.5 5.7 43.8 9.6 C46.8 12.2 48.4 18 50 23.4 C53 33.7 50.8 52.1 50 65.2 C44.9 66.7 29.7 69.7 26 70 C22.8 70.3 18.3 70.3 12.7 70.1 C11 70.1 9.7 68.8 9.7 67.2 z" id="s" fill="#AA602E" /><path d="M12.5 44.1 C7.1 33.9 2.5 23.5 2.2 19.1 C1.7 9 6 3.3 9.9 0.8 C10.2 0.5 10.7 0.3 11.1 0.1 C10.8 1.4 10.4 2.8 9.9 4.4 C6.3 16.1 14.5 23.6 14.9 28.2 C15.4 35.2 14.3 41.2 12.5 44.1 z" id="t" fill="#7F4924" /><path d="M9.7 67.2 C9.5 61.1 12.6 57.2 19 55.3 C11.4 42.9 2.7 25.2 2.3 19.1 C1.7 9 6 3.3 9.9 0.8 C12.4 -0.9 22 -1.6 27.6 0.1 C33.8 1.8 39.5 5.7 43.8 9.6 C46.8 12.2 48.4 18 50 23.4 C53 33.7 50.8 52.1 50 65.2 C44.9 66.7 29.7 69.7 26 70 C22.8 70.3 18.3 70.3 12.7 70.1 C11 70.1 9.7 68.8 9.7 67.2 z M12.4 64.8 C12.4 66.3 11.6 67.6 13.2 67.6 C18.7 67.8 23 67.8 26 67.5 C29.5 67.2 42.9 64.4 47.8 63 C48.6 50.3 51.8 32.6 49 22.8 C47.5 17.5 45.9 12 43.1 9.6 C38.9 5.9 33.4 2.2 27.6 0.5 C22.2 -1.1 13.1 -0.4 10.6 1.2 C6.9 3.6 2.7 9.2 3.3 18.7 C3.7 24.5 14.2 43.6 21.4 55.6 C15.3 57.3 12.2 59 12.4 64.8 z" opacity="0.15" id="u" /></g></g><g transform="translate(90.90001, 84.79997) translate(37, 51)" id="v"><g transform="translate(3, 0)" id="w"><path d="M61.7 20.1 C61.7 36.4 64.4 34.7 66.1 39.3 C67.8 43.9 74.7 53 76 65.8 C77.3 78.6 76.6 92.6 72.6 104.3 C68.6 116 71.5 137.3 61.8 140 C61.5 140.1 29.8 143.1 18 140 C5.8 136.8 11.8 123.7 6.4 106.4 C1 89.1 0.1 80.3 0.4 65.8 C0.7 51.3 10.7 44.1 12.5 39.2 C14.3 34.3 16.6 32.5 16.6 20 C16.6 7.5 24.6 0.5 42.2 1 C47.5 1.2 61.7 3.7 61.7 20.1 z" id="x" fill="#D07331" /><path d="M61.7 20.1 C61.7 36.4 64.4 34.7 66.1 39.3 C67.8 43.9 74.7 53 76 65.8 C77.3 78.6 76.6 92.6 72.6 104.3 C68.6 116 71.5 137.3 61.8 140 C61.5 140.1 29.8 143.1 18 140 C5.8 136.8 11.8 123.7 6.4 106.4 C1 89.1 0.1 80.3 0.4 65.8 C0.7 51.3 10.7 44.1 12.5 39.2 C14.3 34.3 16.6 32.5 16.6 20 C16.6 7.5 24.6 0.5 42.2 1 C47.5 1.2 61.7 3.7 61.7 20.1 z M61.2 20.2 C61.2 4.2 47.3 1.7 42.1 1.5 C24.9 1 17.1 7.9 17.1 20.1 C17.1 32.3 14.8 34.1 13.1 38.9 C11.4 43.7 1.5 50.7 1.2 64.9 C0.9 79.1 2.8 88.3 8.1 105.2 C13.4 122.1 6.5 134.3 18.4 137.5 C29.9 140.5 61 137.6 61.3 137.5 C70.8 134.9 67 114.3 70.9 102.9 C74.8 91.5 76.5 77.5 75.2 64.9 C73.9 52.4 67.2 43.5 65.5 39 C63.8 34.5 61.2 36.1 61.2 20.2 z" opacity="0.15" id="y" /></g></g><g fill-rule="evenOdd" transform="translate(133.2447, 187.9) scale(0.9066156, 0.8991558) translate(-129.5, -177.7) translate(107.1, 86.69997) translate(62.5, 144.5) scale(-1, 1) translate(-62.5, -144.5) translate(22, 91)" id="z"><path d="M52 28.8 C53.2 26.7 53.4 15.1 56.8 12.2 C60.4 8.7 63.5 4 65.3 0 C65.9 2.4 67.8 8.5 69 11.2 C69.1 11.5 69.2 11.7 69.4 12 C73.3 19.9 80.6 22.6 80.6 34.9 C80.6 56.8 72.3 51 69.4 67 C68.9 69.6 68.6 72.3 68.3 75 C67.4 83.8 54.2 85.7 54.2 74.4 C54.2 68.1 54.4 62 54.9 55.8 C54 50.1 51 50.2 49.4 45 C47.4 39.1 48.7 34.5 52 28.8 z" id="a1" fill="#FDA75C" /><path d="M11.7 12 C11.8 11.7 11.9 11.5 12.1 11.2 C13.3 8.6 15.1 2.5 15.8 0 C17.6 3.9 20.7 8.7 24.3 12.2 C28.7 15.8 27.9 26.6 29.1 28.8 C32.4 34.5 33.7 39.1 31.8 45.1 C30.2 50.3 27.1 50.3 26.3 55.9 C26.7 62.1 27 68.2 27 74.5 C27 85.8 13.7 81.6 12.8 73.7 C12.6 71.9 12.3 69.7 11.8 67 C8.9 51 0.6 56.8 0.6 34.9 C0.4 22.7 7.8 19.9 11.7 12 z" id="b1" fill="#FDA75C" /><path d="M54.1 75.7 C60 75.4 66.4 72.4 68.7 70.8 C67.4 80.3 67.6 90.2 67.1 96.7 C69.9 95 75.9 97.8 72.1 104.6 C70.1 106.2 66.9 106.5 64.1 106.5 C61.3 106.5 58.5 106.1 56 105 L56.1 104.9 C55.3 104.5 54.7 103.9 54.3 103.3 C51.8 99.6 54 89.5 54.1 75.7 z" id="c1" fill="#FFF" /><path d="M68.1 76.1 C67.5 83.8 67.5 91.4 67.1 96.7 C69.9 95 75.9 97.8 72.1 104.6 C70.1 106.2 66.9 106.5 64.1 106.5 C61.3 106.5 58.5 106.1 56 105 L56.1 104.9 C55.3 104.5 54.7 103.9 54.3 103.3 C51.8 99.6 54 89.5 54.1 75.7 C54.2 75.7 54.2 75.7 54.3 75.7 C54.2 75.3 54.2 74.9 54.2 74.4 C54.2 68.1 54.4 62 54.9 55.8 C54 50.1 51 50.2 49.4 45 C47.4 39.1 48.7 34.5 52 28.8 C53.2 26.7 53.4 15.1 56.8 12.2 C60.4 8.7 63.5 4 65.3 0 C65.9 2.4 67.8 8.5 69 11.2 C69.1 11.5 69.2 11.7 69.4 12 C73.3 19.9 80.6 22.6 80.6 34.9 C80.6 56.8 72.3 51 69.4 67 C68.9 69.6 68.6 72.3 68.3 75 C68.3 75.4 68.2 75.7 68.1 76.1 z M66.1 97.8 C66.5 92.7 65.3 87.3 66 76 C66.7 64.7 67.6 66.5 68.1 64 C70.9 48.8 78.5 56.1 78.5 35.3 C78.5 23.5 72.9 20.5 69.2 13 C69 12.7 68.9 12.5 68.8 12.2 C67.6 9.7 65.8 3.8 65.3 1.6 C63.5 5.4 60.6 9.8 57.2 13.2 C53.9 15.9 54.4 27 53.3 29 C50.1 34.4 49.2 37.8 51.1 43.4 C51.7 45.1 56.2 49.2 56.4 55 C56.5 58.8 56.1 74.6 55.6 74 C55.5 87.1 52.4 96.4 54.8 99.9 C55.2 100.5 55.7 101 56.5 101.4 L56.4 101.5 C58.8 102.6 61.5 102.9 64.1 102.9 C66.8 102.9 69.5 103.6 71.4 102.1 C73 99.1 68.8 96.1 66.1 97.8 z" opacity="0.3" id="d1" /><path d="M13.8 96.7 C13.3 90.2 13.5 80.3 12.2 70.8 C14.5 72.4 21 75.4 26.8 75.7 C26.9 89.5 29.2 99.6 26.6 103.4 C26.2 104.1 25.5 104.6 24.8 105 L24.9 105.1 C22.4 106.2 19.5 106.6 16.8 106.6 C14.1 106.6 10.8 106.3 8.8 104.7 C5 97.8 11 95 13.8 96.7 z" id="e1" fill="#FFF" /><path d="M26.8 76.7 C27 90 29.1 99.7 26.6 103.4 C26.2 104.1 25.5 104.6 24.8 105 L24.9 105.1 C22.4 106.2 19.5 106.6 16.8 106.6 C14.1 106.6 10.8 106.3 8.8 104.7 C5 97.8 11 95 13.8 96.7 C13.3 90.2 13.5 80.3 12.2 70.8 C12.3 70.9 12.4 70.9 12.5 71 C12.3 69.8 12.1 68.5 11.8 67 C8.9 51 0.6 56.8 0.6 34.9 C0.4 22.7 7.8 19.9 11.7 12 C11.8 11.7 11.9 11.5 12.1 11.2 C13.3 8.6 15.1 2.5 15.8 0 C17.6 3.9 20.7 8.7 24.3 12.2 C28.7 15.8 27.9 26.6 29.1 28.8 C32.4 34.5 33.7 39.1 31.8 45.1 C30.2 50.3 27.1 50.3 26.3 55.9 C26.7 62.1 27 68.2 27 74.5 C27 75.3 26.9 76 26.8 76.7 z M25.4 75.8 C24.7 66.6 24.3 60 24 56 C24.8 50.6 28.6 49.5 30.1 44.5 C32 38.7 31.8 34.3 28.6 28.8 C27.5 26.7 28.2 16.3 24 12.8 C20.5 9.4 17.6 4.8 15.8 1 C15.2 3.4 13.4 9.3 12.3 11.8 C12.1 12.1 12 12.3 11.9 12.6 C8.1 20.2 1.8 22.8 2 34.6 C2 55.8 10.9 52.3 13.3 63 C15.6 73.8 14.9 90.6 14.8 97.6 C12.1 96 7.8 98.3 9.1 102.2 C11 103.7 14.2 104 16.8 104 C17.9 104 20.8 103.8 22.5 103.3 C24.9 102.5 23.4 102.8 25 101.5 C27.4 97.9 25.6 88.6 25.4 75.8 z" opacity="0.3" id="f1" /></g></g><g transform="translate(169.6, 188) scale(0.9999998) translate(-169.6, -188)" id="g1"><g transform="translate(102.6, 81.29997) translate(23, 25)" id="h1"><g id="i1"><g id="j1"><path d="M87.2 74.6 C85.9 71 84.6 66.6 82.2 61.8 C83.8 62.4 85.3 63 86.1 64.5 C84.9 58.9 83.6 52.1 80.2 47.3 C80.2 46.9 80.2 46.5 80.2 46.1 C80 31.9 77.9 25.5 76.4 19.1 C74 9 65.6 3.7 57.8 1.1 C52.1 -0.8 46.6 1.3 43.9 1.3 C41.2 1.3 35.7 -0.8 30 1.1 C22.1 3.8 13.7 9 11.4 19.1 C9.9 25.5 7.8 31.9 7.6 46.1 C7.6 46.5 7.6 46.9 7.6 47.3 C4.2 52 2.9 58.9 1.7 64.5 C2.5 63 4 62.4 5.6 61.8 C3.3 66.6 1.9 71.1 0.6 74.6 C2.1 72.7 6 72.5 7.5 70.5 C6.5 74.9 5.8 87.6 12.8 92.5 C13.7 88.4 15.2 84.6 17.2 81.1 C17.5 82.6 18.1 84.3 18.9 86.1 C19.9 80.8 20.9 78.7 22.5 77.6 C21.8 84 20.9 88 23.7 89.6 C23.6 86.7 26 83.3 28.4 80.2 C32.3 83 36.8 84 43.9 84 C51.1 83.9 55.5 83 59.4 80.2 C61.8 83.4 64.2 86.8 64.1 89.6 C66.8 88 66 84 65.3 77.6 C66.9 78.8 67.9 80.8 68.9 86.1 C69.7 84.3 70.2 82.6 70.6 81.1 C72.6 84.6 74.2 88.5 75 92.5 C82 87.5 81.2 74.9 80.3 70.5 C81.8 72.4 85.6 72.7 87.2 74.6 z" id="k1" fill="#FDA75C" /><path d="M87.2 74.6 C85.6 72.7 81.8 72.4 80.3 70.5 C81.2 74.9 82 87.5 75 92.5 C74.2 88.5 72.6 84.6 70.6 81.1 C70.2 82.6 69.7 84.3 68.9 86.1 C67.9 80.8 66.9 78.8 65.3 77.6 C66 84 66.8 88 64.1 89.6 C64.2 86.8 61.8 83.4 59.4 80.2 C55.5 83 51.1 83.9 43.9 84 C36.8 84 32.3 83 28.4 80.2 C26 83.3 23.6 86.7 23.7 89.6 C20.9 88 21.8 84 22.5 77.6 C20.9 78.7 19.9 80.8 18.9 86.1 C18.1 84.3 17.5 82.6 17.2 81.1 C15.2 84.6 13.7 88.4 12.8 92.5 C5.8 87.6 6.5 74.9 7.5 70.5 C6 72.5 2.1 72.7 0.6 74.6 C1.9 71.1 3.3 66.6 5.6 61.8 C4 62.4 2.5 63 1.7 64.5 C2.9 58.9 4.2 52 7.6 47.3 C7.6 46.9 7.6 46.5 7.6 46.1 C7.8 31.9 9.9 25.5 11.4 19.1 C13.7 9 22.1 3.8 30 1.1 C35.7 -0.8 41.2 1.3 43.9 1.3 C46.6 1.3 52.1 -0.8 57.8 1.1 C65.6 3.7 74 9 76.4 19.1 C77.9 25.5 80 31.9 80.2 46.1 C80.2 46.5 80.2 46.9 80.2 47.3 C83.6 52.1 84.9 58.9 86.1 64.5 C85.3 63 83.8 62.4 82.2 61.8 C84.6 66.6 85.9 71 87.2 74.6 z M84.1 70.6 C82.8 67.2 81.6 63.1 79.4 58.7 C80.9 59.2 82.3 59.8 83 61.2 C81.9 56 80.7 49.7 77.6 45.2 C77.6 44.9 77.6 44.5 77.6 44.1 C77.4 31 75.4 25 74 19.1 C71.8 9.7 64 4.8 56.8 2.4 C51.5 0.6 46.4 2.1 43.9 2.1 C41.4 2.1 36.3 0.6 31 2.4 C23.7 4.9 15.9 9.7 13.8 19.1 C12.4 25 10.4 31 10.2 44.1 C10.2 44.5 10.2 44.9 10.2 45.2 C7.1 49.6 5.9 56 4.8 61.2 C5.5 59.8 6.9 59.2 8.4 58.7 C6.2 63.1 5 67.3 3.7 70.6 C5.1 68.8 8.8 68.6 10.1 66.7 C9.2 70.8 6 82.6 12.5 87.2 C13.3 83.3 15.9 79.8 17.7 76.6 C18 78 18.4 79 19.1 80.7 C20.1 75.8 22.6 74.4 24.1 73.3 C23.4 79.3 22.4 82 24.2 83.6 C24.8 81.2 27.3 78.6 29.5 75.7 C33.1 78.3 37.3 80 43.9 80 C50.6 79.9 54.7 78.3 58.3 75.7 C60.5 78.7 63.8 81 63.7 83.6 C66.2 82.1 64.4 79.3 63.7 73.3 C65.2 74.4 67.7 75.1 68.7 80 C69.4 78.3 71.8 78 72.2 76.6 C74 79.8 74.7 83.4 75.4 87.2 C81.9 82.5 78.5 70.8 77.7 66.7 C79 68.5 82.6 68.8 84.1 70.6 z" opacity="0.15" id="l1" /></g></g></g><g transform="translate(147.1, 113) rotate(20, 0, 0) scale(0.7) translate(-151.1, -122) translate(119.4, 105.4) translate(0, 4)" id="m1"><path d="M41.1 0.6 C31.1 -2.6 14.7 14.6 3.6 20.9 C-6.3 26.5 6.2 45.2 17.4 62.4 C23.6 71.9 22.7 83.6 28.6 82.4 C35.6 81 41.1 70.6 37 59 C32.9 47.4 32.1 16.9 41.1 0.6 z" id="n1" fill="#AA602E" /><path d="M41.1 0.6 C32.1 16.9 32.9 47.4 37 59 C41.1 70.6 35.6 81 28.6 82.4 C22.7 83.6 23.6 71.9 17.4 62.4 C6.2 45.2 -6.3 26.5 3.6 20.9 C14.7 14.6 31.1 -2.6 41.1 0.6 z M38 2 C29.2 -1 16.9 15.9 7 21.6 C-1.7 26.7 9.1 42.3 19 58 C24.5 66.7 23.3 77.2 28.5 76.1 C34.7 74.8 38 66.1 34.4 55.4 C30.8 44.9 30.1 16.9 38 2 z" opacity="0.15" id="o1" /></g><g transform="translate(192.2, 113) rotate(-20, 0, 0) scale(0.7) translate(-188.2, -122) translate(97.9, 105.4) translate(102, 45.5) scale(-1, 1) translate(-102, -45.5) translate(81, 4)" id="p1"><path d="M41.9 0.6 C31.9 -2.6 15.5 14.6 4.4 20.9 C-5.5 26.5 7 45.2 18.2 62.4 C24.4 71.9 23.5 83.6 29.4 82.4 C36.4 81 41.9 70.6 37.8 59 C33.7 47.4 32.9 16.9 41.9 0.6 z" id="q1" fill="#AA602E" /><path d="M41.9 0.6 C32.9 16.9 33.7 47.4 37.8 59 C41.9 70.6 36.4 81 29.4 82.4 C23.5 83.6 24.4 71.9 18.2 62.4 C7 45.2 -5.5 26.5 4.4 20.9 C15.5 14.6 31.9 -2.6 41.9 0.6 z M39.7 3 C30.8 0.1 16.1 15.5 6.2 21.1 C-2.6 26.1 8.5 42.8 18.5 58.2 C24 66.7 23.2 77.1 28.5 76.1 C34.8 74.8 39.7 65.6 36 55.2 C32.3 44.8 31.7 17.5 39.7 3 z" opacity="0.15" id="r1" /></g><g transform="translate(169.4, 160.8) scale(0.8) translate(-169.4, -156.8)" id="s1"><g transform="translate(107.8, 76.69997) translate(22, 30)" id="t1"><g id="u1"><path d="M76.7 63.3 C75.1 55.9 72.5 52.3 66.1 47.7 C58.4 42.2 52.2 40.3 47.5 33.1 C46 30.8 44.9 28.2 43.9 20.7 C43.3 16.2 42.8 12.9 42.4 9.2 C42 5.5 41.1 0.8 37.7 0.7 C34.3 0.6 33.6 4.7 33.5 9.9 C33.4 15.2 33 16.9 32.3 22.2 C31.2 29.7 29.2 32.1 27.7 34.5 C23 41.8 17.4 43 9.9 49 C2.7 54.8 1.9 56.9 1 66.1 C1 66 1 66 1 65.9 C-0.2 70.9 3.1 77 3.1 77.1 C9.7 87.7 16.4 91.1 27.6 91.1 C32.7 91.1 38 91.1 50.2 91.1 C60.4 91 73.7 80.8 76 74.2 C76.2 73.7 76.3 73.2 76.5 72.8 C77.2 70.9 77.6 69 77.4 67.2 C77.4 65.8 77.1 64.6 76.7 63.3 z" id="v1" fill="#FFF" /><path d="M76 74.2 C73.7 80.8 60.4 91 50.2 91.1 C38.4 91.1 33 91.1 27.6 91.1 C16.4 91.1 9.7 87.7 3.1 77.1 C3.1 77 -0.2 70.9 1 65.9 C1.9 71 6.8 77.1 12 81.4 C16.7 85.3 27.9 87.3 39.4 87.6 C50.9 87.9 64.7 82.4 70.4 76.3 C73 73.5 76 65.7 76.3 61.9 C77.3 65.5 78.3 67.5 76 74.2 z" fill-opacity="0.1" id="w1" fill="#010101" /><path d="M76.7 63.3 C77.1 64.6 77.4 65.8 77.4 67.2 C77.6 69 77.2 70.9 76.5 72.8 C76.3 73.2 76.2 73.7 76 74.2 C73.7 80.8 60.4 91 50.2 91.1 L27.6 91.1 C16.4 91.1 9.7 87.7 3.1 77.1 C3.1 77.1 2.3 75.5 1.6 73.3 C0.9 71.1 0.4 68.4 1 65.9 C1 65.9 1 65.9 1 66 C1.9 56.9 2.7 54.8 9.9 49 C17.4 43 23 41.8 27.7 34.5 C29.2 32.1 31.2 29.7 32.3 22.2 C33 16.9 33.4 15.2 33.5 9.9 C33.6 4.7 34.3 0.6 37.7 0.7 C41.1 0.8 42 5.5 42.4 9.2 C42.8 12.9 43.3 16.2 43.9 20.7 C44.9 28.2 46 30.8 47.5 33.1 C52.2 40.3 58.4 42.2 66.1 47.7 C72.5 52.3 75.1 55.9 76.7 63.3 L76.7 63.3 z M74.7 66.3 C74.7 65 74.4 63.9 74 62.6 C72.5 55.7 70.1 52.3 64.2 48 C57 42.8 51.3 41.1 46.9 34.3 C45.5 32.1 44.5 29.7 43.6 22.7 C43 18.5 42.6 15.4 42.2 11.9 C41.8 8.4 40.9 1.8 37.7 1.7 C34.5 1.6 33.9 7.6 33.9 12.5 C33.8 17.5 33.4 19.1 32.8 24 C31.8 31 29.9 33.3 28.5 35.5 C24.1 42.3 18.9 43.5 12 49.1 C5.3 54.5 4.6 56.5 3.7 64.9 C3.1 67.2 3.6 69.8 4.3 71.9 C4.9 73.9 5.7 75.4 5.7 75.4 C11.8 85.3 18.1 88.5 28.5 88.5 L49.5 88.5 C59 88.4 71.3 78.8 73.5 72.7 C73.7 72.2 73.8 71.8 74 71.4 C74.5 69.8 74.9 68 74.7 66.3 z" fill-opacity="0.1" id="x1" fill="#010101" /></g></g><g transform="translate(168.5, 174.1) scale(1) translate(-168.5, -178.1) translate(102.9, 79.49998) translate(51, 88)" id="y1"><g id="z1"><path d="M13 1.7 C13.1 7.2 12.5 10.3 11.3 11.3 C10.1 12.3 6.8 14.1 1.6 16.8 C0.6 17.5 0.4 18.3 1 19 C1.5 19.6 2.5 19.6 3.9 19 L14.4 13.3 C19.8 16.9 23 18.7 24.2 18.7 C24.8 18.7 26.2 18.7 26.4 18.3 C29.1 17.2 17.7 12.7 17.3 11.3 C17 10.3 16.5 7.1 15.7 1.8 C15.3 1.2 14.8 0.8 14.2 0.6 C13.7 0.5 13.3 0.8 13 1.7 z" id="a2" fill="#353535" /></g></g><g transform="translate(169.5, 155.3) scale(1.3) translate(-169.5, -155.3) translate(102.5, 65.39998) translate(59, 84)" id="b2"><g id="c2"><path d="M14.8 1.5 C14 0 10.9 2 8 2 C5.1 2 2 0 1.2 1.5 C0.4 3 0.7 6.3 2.4 8.9 C3.6 10.7 8 10.9 8 10.9 C8 10.9 12.4 10.6 13.6 8.9 C15.3 6.3 15.6 3 14.8 1.5 z" id="d2" fill="#282421" /><path d="M9.3 3.5 C8.9 3.8 8.4 4.1 8.4 4.6 C8.4 5 8.8 5.3 9.1 5.4 C9.5 5.5 9.9 5.5 10.2 5.4 C11.1 5.3 12 5.2 12.6 4.7 C13.4 4 13.6 2.8 12.5 2.5 C11.6 2.2 10.1 3 9.3 3.5 z" id="e2" fill="#F5FAFC" /></g></g><g transform="translate(107.8, 76.69997) translate(30, 41)" id="f2"><g id="g2"><ellipse cx="11.1" cy="20" rx="10.5" ry="10" id="h2" fill="#FDA75C" /><circle cx="12.1" cy="19" r="6.5" id="i2" fill="#424242" /><circle cx="10.1" cy="17" r="2.5" id="j2" fill="#FFF" /><circle cx="14.6" cy="20.5" r="1" id="k2" fill="#FFF" /><path d="M6.5 4.2 C4.5 6.7 6.1 10 8.5 9.3 C10.9 8.5 16 7.2 16.9 5.7 C17.8 4.2 17.1 -0.1 14.2 0.6 C11.3 1.3 8.5 1.8 6.5 4.2 z" id="l2" fill="#FBD291" /></g></g><g transform="translate(107.8, 76.69997) translate(69, 41)" id="m2"><g id="n2"><ellipse cx="11.1" cy="20" rx="10.5" ry="10" id="o2" fill="#FDA75C" /><circle cx="10.2" cy="19" r="6.5" id="p2" fill="#424242" /><circle cx="8.2" cy="17" r="2.5" id="q2" fill="#FFF" /><circle cx="12.7" cy="20.5" r="1" id="r2" fill="#FFF" /><path d="M15.5 4.2 C17.5 6.7 15.9 10 13.5 9.3 C11.1 8.5 6 7.2 5.1 5.7 C4.2 4.2 4.9 -0.1 7.8 0.6 C10.7 1.3 13.5 1.8 15.5 4.2 z" id="s2" fill="#FBD291" /></g></g></g></g></g></g><defs><g transform="translate(17.09519, 0.800995) translate(-135.2952, -293.601)" id="t2" fill="#000"><path d="M118.2 302.7 C118.4 307.4 132.5 311.2 149.8 311.2 C167.1 311.2 181.2 307.4 181.4 302.7 C181.4 307.5 181.4 310.1 181.4 310.5 C181.4 315.3 167.3 319.1 149.8 319.1 C132.3 319.1 118.2 315.2 118.2 310.5 L118.2 302.7 L118.2 302.7 z" fill-opacity="0.4528" id="u2" fill="#593001" /><path d="M118.7 301.7 C118.9 306.4 133 310.2 150.3 310.2 C167.6 310.2 181.7 306.4 181.9 301.7 C181.9 306.5 181.9 309.1 181.9 309.5 C181.9 314.3 167.8 318.1 150.3 318.1 C132.8 318.1 118.7 314.2 118.7 309.5 L118.7 301.7 L118.7 301.7 z" id="v2" fill="#DA8113" /><linearGradient x1="46.0545" y1="-118.6926" x2="45.4656" y2="-118.6926" gradientUnits="userSpaceOnUse" gradientTransform="matrix(117.135, 0, 0, 28.4634, -5208.417, 3687.795)" id="w2"><stop offset="0%" stop-color="#D9952A" stop-opacity="1" /><stop offset="6.438854%" stop-color="#CA7519" stop-opacity="1" /><stop offset="30.54%" stop-color="#E3AD3A" stop-opacity="1" /><stop offset="51.05%" stop-color="#FFEC91" stop-opacity="1" /><stop offset="68.8%" stop-color="#E9BD44" stop-opacity="1" /><stop offset="86.24%" stop-color="#FFED6C" stop-opacity="1" /><stop offset="93.87%" stop-color="#F2D353" stop-opacity="1" /><stop offset="100%" stop-color="#F2B947" stop-opacity="1" /></linearGradient><path d="M118.2 301.6 C118.4 306.1 132.7 309.7 150.3 309.7 C167.9 309.7 182.2 306.1 182.4 301.6 C182.4 306.2 182.4 308.7 182.4 309 C182.4 313.5 168 317.2 150.3 317.2 C132.6 317.2 118.2 313.5 118.2 309 L118.2 301.6 L118.2 301.6 z" id="x2" style="fill:url(#w2)" /><linearGradient x1="45.4914" y1="-117.9547" x2="45.9407" y2="-117.5895" gradientUnits="userSpaceOnUse" gradientTransform="matrix(115.425, 0, 0, 29.925, -5125.077, 3826.124)" id="y2"><stop offset="0%" stop-color="#F4E072" stop-opacity="1" /><stop offset="100%" stop-color="#DB9427" stop-opacity="1" /></linearGradient><ellipse cx="150.3" cy="301.5" rx="31.6" ry="8.2" id="z2" style="fill:url(#y2)" /><linearGradient x1="45.4656" y1="-126.0065" x2="46.0545" y2="-126.0065" gradientUnits="userSpaceOnUse" gradientTransform="matrix(117.135, 0, 0, 18.6219, -5208.417, 2651.479)" id="a3"><stop offset="0%" stop-color="#D9952A" stop-opacity="1" /><stop offset="6.438854%" stop-color="#CA7519" stop-opacity="1" /><stop offset="30.54%" stop-color="#E3AD3A" stop-opacity="1" /><stop offset="51.05%" stop-color="#FFEC91" stop-opacity="1" /><stop offset="68.8%" stop-color="#E9BD44" stop-opacity="1" /><stop offset="86.24%" stop-color="#FFED6C" stop-opacity="1" /><stop offset="93.87%" stop-color="#F2D353" stop-opacity="1" /><stop offset="100%" stop-color="#F2B947" stop-opacity="1" /></linearGradient><path d="M119.2 299.9 C119 300.2 118.9 300.6 118.9 301 C118.9 305.5 132.9 309.2 150.3 309.2 C167.7 309.2 181.7 305.5 181.7 301 C181.7 300.6 181.6 300.3 181.4 299.9 C182 300.5 182.4 301.2 182.4 301.9 C182.4 306.4 168 310.1 150.3 310.1 C132.6 310.1 118.2 306.4 118.2 301.9 C118.2 301.3 118.6 300.6 119.2 299.9 z" id="b3" style="fill:url(#a3)" /><linearGradient x1="45.196" y1="-121.5895" x2="45.3746" y2="-120.6758" gradientUnits="userSpaceOnUse" gradientTransform="matrix(101.745, 0, 0, 23.94, -4458.332, 3199.41)" id="c3"><stop offset="0%" stop-color="#F8DD61" stop-opacity="1" /><stop offset="100%" stop-color="#EAA330" stop-opacity="1" /></linearGradient><ellipse cx="150.3" cy="300.8" rx="27.8" ry="6.6" id="d3" style="fill:url(#c3)" /><linearGradient x1="45.5694" y1="-134.267" x2="45.0221" y2="-134.267" gradientUnits="userSpaceOnUse" gradientTransform="matrix(101.745, 0, 0, 13.2525, -4458.332, 2077.223)" id="e3"><stop offset="0%" stop-color="#F4CA2F" stop-opacity="1" /><stop offset="51.38%" stop-color="#BF7737" stop-opacity="1" /><stop offset="100%" stop-color="#E4A929" stop-opacity="1" /></linearGradient><path d="M122.6 301.5 C122.5 301.3 122.4 301 122.4 300.8 C122.4 297.2 134.9 294.2 150.2 294.2 C165.5 294.2 178 297.1 178 300.8 C178 301 177.9 301.3 177.8 301.5 C176.3 298.2 164.5 295.6 150.1 295.6 C135.7 295.6 124.1 298.2 122.6 301.5 z" id="f3" style="fill:url(#e3)" /></g></defs><desc>557GJAO2JO8,AN3KrIDeyby65liaAJqI5we5jtxugquVBhSo0kh79cSPSWLxZDFtMZ8mMVzCgLjt27vi8k9jnxXvNrytVVPQSbVdOznYkcdPiIdZ31S8e6G9mHaH436CIcYrgGMXz2QEX0n7prpUqguikgOHkoDraNt/gyJ4pWtMuX/Rvak0/Bvk+c+7evvw9n08CPDp9x2y</desc></svg>