<?xml version="1.0" encoding="utf-8"?><!DOCTYPE svg PUBLIC "-//W3C//DTD SVG 1.1//EN" "http://www.w3.org/Graphics/SVG/1.1/DTD/svg11.dtd"><svg x="0" y="0" width="340px" height="340px" viewBox="0, 0, 340, 340" preserveAspectRatio="xMidYMid" font-size="0" id="a" enable-background="new 0 0 340 340" xmlns="http://www.w3.org/2000/svg" xmlns:xlink="http://www.w3.org/1999/xlink" xmlns:xml="http://www.w3.org/XML/1998/namespace" version="1.1"><g id="b" fill="#000"><g transform="translate(210.1952, 245.501)" id="c"><ellipse cx="32.5" cy="17.5" rx="37.3" ry="13.2" opacity="0.15" id="d" /><use xlink:href="#e" x="0.86" y="0" /><use xlink:href="#e" x="-1.89" y="-10.7" /><use xlink:href="#e" x="1.2" y="-21.4" /><use xlink:href="#e" x="-1.35" y="-32.1" /><use xlink:href="#e" x="1.86" y="-42.8" /></g><g transform="translate(64.99519, 245.001)" id="f"><ellipse cx="32.5" cy="17.5" rx="37.3" ry="13.2" opacity="0.15" id="g" /><use xlink:href="#e" x="0.97" y="0" /><use xlink:href="#e" x="-0.73" y="-10.7" /><use xlink:href="#e" x="1.68" y="-21.4" /></g></g><g id="h" fill="#000"><g id="i"><g transform="translate(0, 0) translate(0, 224)" id="j"><ellipse cx="168.6" cy="53.1" rx="57.8" ry="12.8" fill-opacity="0.25" id="k" /></g><g id="l"><g transform="translate(111, 102.8) translate(16.5, 128.5) scale(-1, 1) translate(-16.5, -128.5) translate(6, 115)" id="m"><g id="n" fill="#C08A3F"><path d="M15.1 3.5 C17 0.9 18.1 -0.5 19.6 0.1 C21 0.7 21 2.3 20.4 4.9 C18.8 11.3 13.3 23 7.5 26 C3.3 28.2 -1.9 24.1 0.7 21.3 C5.9 15.6 10.5 9.7 15.1 3.5 z" id="o" /></g></g><g transform="translate(126.88, 273.0999) scale(0.6426229) translate(-123.7, -273.0999) translate(103.5, 95.69995) translate(12, 123)" id="p"><path d="M14 38.2 C12.5 33.4 7.1 32.2 3.1 27.7 C-2 21.9 -0.8 7.2 7.5 2.9 C14.4 -0.7 26.3 -1.7 33.5 4.7 C45.7 15.7 37.5 29.3 34.6 36.2 C32 42.3 15 41.8 14 38.2 z" id="q" fill="#2C2F31" /><path d="M14.1 45.6 C14.8 42 14.5 39.5 13.7 37.6 C17.2 39.4 22 38.9 25.5 36.9 C29.8 34.5 36.9 28.7 37.3 29.9 C36.3 32.3 35.2 34.5 34.5 36.2 C32 42.2 35.1 50.4 30.5 55 C26.3 59.3 11.8 57.6 5.5 56.7 C4.2 52.1 6.2 48.4 14.1 45.6 z" id="r" fill="#F4DFA9" /><path d="M13.8 37.7 C12.1 33.3 6.9 32 3.1 27.7 C-2 21.9 -0.8 7.2 7.5 2.9 C14.4 -0.7 26.3 -1.7 33.5 4.7 C45.7 15.7 37.5 29.3 34.6 36.2 C34.5 36.4 34.4 36.6 34.3 36.9 C32.2 42.8 34.9 50.6 30.5 55 C26.3 59.3 11.8 57.6 5.5 56.7 C4.2 52.1 6.2 48.4 14.1 45.6 C14.8 42 14.5 39.5 13.7 37.6 C13.7 37.6 13.8 37.6 13.8 37.7 z M3.9 26.8 C7.6 30.9 12.2 34.6 14 36.2 C14.8 38 15.9 42.7 15.2 46.1 C7.7 48.8 6.2 50.5 6.2 54.3 C12.2 55.2 26 56.8 30 52.7 C34.2 48.5 31.6 41.1 33.5 35.5 C33.7 35.3 33.8 35.1 33.9 34.8 C36.6 28.3 44.4 15.4 32.8 4.9 C26 -1.2 14.7 -0.2 8.1 3.2 C0.2 7.3 -0.9 21.3 3.9 26.8 z" opacity="0.15" id="s" /></g><g transform="translate(214.52, 273.0999) scale(0.6426229) translate(-217.7, -273.0999) translate(106.6, 95.69995) translate(99, 152) scale(-1, 1) translate(-99, -152) translate(79, 123)" id="t"><path d="M14 38.2 C12.5 33.4 7.1 32.2 3.1 27.7 C-2 21.9 -0.8 7.2 7.5 2.9 C14.4 -0.7 26.3 -1.7 33.5 4.7 C45.7 15.7 37.5 29.3 34.6 36.2 C32 42.3 15 41.8 14 38.2 z" id="u" fill="#2C2F31" /><path d="M14.1 45.6 C14.8 42 14.5 39.5 13.7 37.6 C17.2 39.4 22 38.9 25.5 36.9 C29.8 34.5 36.9 28.7 37.3 29.9 C36.3 32.3 35.2 34.5 34.5 36.2 C32 42.2 35.1 50.4 30.5 55 C26.3 59.3 11.8 57.6 5.5 56.7 C4.2 52.1 6.2 48.4 14.1 45.6 z" id="v" fill="#F4DFA9" /><path d="M13.8 37.7 C12.1 33.3 6.9 32 3.1 27.7 C-2 21.9 -0.8 7.2 7.5 2.9 C14.4 -0.7 26.3 -1.7 33.5 4.7 C45.7 15.7 37.5 29.3 34.6 36.2 C34.5 36.4 34.4 36.6 34.3 36.9 C32.2 42.8 34.9 50.6 30.5 55 C26.3 59.3 11.8 57.6 5.5 56.7 C4.2 52.1 6.2 48.4 14.1 45.6 C14.8 42 14.5 39.5 13.7 37.6 C13.7 37.6 13.8 37.6 13.8 37.7 z M3.9 26.8 C7.6 30.9 12.5 32.1 14 36.2 C14.8 38 16.6 42.3 16 45.7 C8.5 48.3 6.3 50 7.5 54.4 C13.5 55.2 25.2 56.8 29.2 52.8 C33.4 48.5 31.6 41.1 33.6 35.5 C33.7 35.3 33.8 35.1 33.9 34.8 C36.6 28.3 44.4 15.3 32.8 4.9 C26 -1.2 14.7 -0.3 8.1 3.2 C0.2 7.3 -0.9 21.2 3.9 26.8 z" opacity="0.15" id="w" /></g><g transform="translate(110.1, 106.6) translate(14, 81)" id="x"><path d="M9.9 30.9 C4.8 38.8 -1.2 50.8 6 63.6 C8.7 68.5 11 75 12.2 79.1 C13.7 84.5 18.4 88.5 24 89.2 C30.5 90 37.9 90.4 45.9 90.4 C54.4 90.4 62.1 90 69.2 89.1 C74.9 88.4 79.6 84.3 81 78.8 C82.4 73.6 83.9 67.3 86.2 63.7 C91.5 55.6 87.6 38 79 29.5 C76.9 27.5 73.7 26.7 70.3 24.6 C63.2 20.4 62.4 0.2 43.1 0.8 C26.9 0.6 25.8 21.5 20.7 24.7 C16 27.6 11.8 27.9 9.9 30.9 z" id="y" fill="#F4DFA9" /><path d="M9.9 30.9 C11.8 27.9 16 27.6 20.7 24.7 C25.8 21.5 26.9 0.6 43.1 0.8 C62.4 0.2 63.2 20.4 70.3 24.6 C73.7 26.7 76.9 27.5 79 29.5 C87.6 38 91.5 55.6 86.2 63.7 C83.9 67.3 82.4 73.6 81 78.8 C79.6 84.3 74.9 88.4 69.2 89.1 C62.1 90 54.4 90.4 45.9 90.4 C37.9 90.4 30.5 90 24 89.2 C18.4 88.5 13.7 84.5 12.2 79.1 C11 75 8.7 68.5 6 63.6 C-1.2 50.8 4.8 38.8 9.9 30.9 z M11.6 30.6 C6.7 38.1 1 49.6 7.9 61.8 C10.5 66.5 12.7 72.7 13.8 76.6 C15.2 81.7 19.7 85.6 25 86.2 C31.2 87 38.2 87.3 45.9 87.3 C54 87.3 61.3 86.9 68.1 86.1 C73.5 85.4 78 81.5 79.3 76.3 C80.6 71.3 82.1 65.3 84.3 61.9 C89.4 54.2 85.6 37.4 77.4 29.3 C75.4 27.4 72.3 26.6 69.1 24.6 C62.3 20.6 61.6 1.3 43.2 1.9 C27.8 1.7 26.7 21.6 21.9 24.7 C17.4 27.4 13.4 27.7 11.6 30.6 z" opacity="0.15" id="z" /></g><g transform="translate(134.6, 214.8) scale(1, 0.7350746) translate(-134.6, -213.1) translate(103.2, 111.5) translate(31, 101)" id="a1"><path d="M60.2 78.6 C60.9 58.3 69.1 43.8 69.1 23.9 C69.1 15.9 64.6 12.9 58.8 11.2 C53.9 9.7 51.4 8.5 47.9 6.3 C46.2 3.3 44.1 0.7 35.6 0.6 C27 0.7 25 3.3 23.3 6.3 C19.8 8.5 18.3 11 13.4 12.4 C7.6 14.1 1.7 25.4 3.3 33.2 C6.2 46.5 8.2 58 8.2 58 C8.2 58 11 71 10.9 78.7 C6 82 4.8 84.9 4.8 90 C5.1 91.8 24.2 94.4 26.4 90.6 C29.8 84.7 27.2 77.4 27.2 73.3 C27.2 67.2 27.4 58.2 27.5 48.5 C29.6 50.1 32.1 51.2 35.6 51.2 C39.1 51.2 41.6 50.1 43.7 48.5 C43.8 58.2 44 67.3 44 73.3 C44 77.4 41.4 84.8 44.8 90.6 C47 94.4 66.1 91.9 66.4 90 C66.3 84.8 65.1 81.8 60.2 78.6 z" id="b1" fill="#FFF" /><path d="M12.3 9.7 C17.2 8.2 19.8 8.5 23.3 6.2 C23.5 6.3 26.7 8.5 24.4 14.6 C23.1 18 18.8 19.2 16.1 21.5 C11.2 25.7 11.3 33.7 10.6 40.2 C9.9 46.6 14.8 54.9 10.8 57.7 C9.9 58.4 9 58.5 8.1 57.9 C5 46.5 0.5 36.1 0.4 23.4 C0.5 15.4 6.6 11.4 12.3 9.7 z" id="c1" fill="#FCF6CA" /><path d="M58.9 9.4 C53.9 7.9 51.3 8.2 47.6 5.8 C47.4 5.9 44.1 8.1 46.5 14.3 C47.8 17.7 52.2 18.9 55 21.3 C60 25.5 59.9 33.7 60.6 40.1 C61.3 46.6 56.3 55 60.4 57.8 C61.3 58.5 62.2 58.7 63.1 58 C66.3 46.5 70.9 36 70.9 23.2 C71 15.2 64.8 11.2 58.9 9.4 z" id="d1" fill="#FCF6CA" /><path d="M63.9 55.3 C62.1 62.6 60.5 70.1 60.2 78.6 C65.1 81.8 66.3 84.8 66.4 90 C66.1 91.9 47 94.4 44.8 90.6 C41.4 84.8 44 77.4 44 73.3 C44 67.3 43.8 58.2 43.7 48.5 C41.6 50.1 39.1 51.2 35.6 51.2 C32.1 51.2 29.6 50.1 27.5 48.5 C27.4 58.2 27.2 67.2 27.2 73.3 C27.2 77.4 29.8 84.7 26.4 90.6 C24.2 94.4 5.1 91.8 4.8 90 C4.8 84.9 6 82 10.9 78.7 C11 71 8.2 58 8.2 58 C8.2 58 8.2 58 8.2 58 C8.2 58 8.1 58 8.1 57.9 C5 46.5 0.5 36.1 0.4 23.4 C0.5 15.4 6.6 11.4 12.3 9.7 C17.2 8.2 19.8 8.5 23.3 6.2 C23.3 6.2 23.3 6.2 23.3 6.2 C25 3.2 27 0.7 35.6 0.6 C43.6 0.7 46 3 47.6 5.8 C51.3 8.2 53.9 7.9 58.9 9.4 C64.8 11.2 71 15.2 70.9 23.2 C70.9 35 67 44.8 63.9 55.3 z M59.1 79.2 C59.4 71.1 60.9 60.9 62.6 53.9 C65.6 43.9 69.3 34.6 69.3 23.3 C69.4 15.7 63.5 11.9 57.9 10.2 C53 8.8 50.6 9 47 6.8 C45.5 4.1 43 1.6 35.3 1.5 C27.2 1.6 25.5 4.3 23.9 7.2 C20.6 9.4 18.1 9.1 13.4 10.5 C8 12.1 2.2 15.9 2.1 23.5 C2.2 35.6 6.5 45.5 9.5 56.4 C9.5 56.4 12.9 71.8 12.8 79.1 C8.1 82.2 6.9 82.3 6.9 87.1 C7.2 88.8 23.1 91.2 25.2 87.6 C28.4 82 25.4 74.7 25.4 70.8 C25.4 65 25 53.1 25.1 43.9 C27.1 45.4 32.2 49.9 35.6 49.9 C38.9 49.9 43.8 46.1 45.8 44.6 C45.9 53.8 45.8 66.5 45.8 72.2 C45.8 76.1 42.1 81.9 45.3 87.4 C47 90.3 63.8 88.3 63.8 87.9 C63.8 83.1 63.7 82.2 59.1 79.2 z" opacity="0.15" id="e1" /></g></g><g transform="translate(169.8, 217.3) scale(0.8850241) translate(-169.8, -217.3)" id="f1"><g transform="translate(87.10001, 116.8) translate(38, 0)" id="g1"><g id="h1"><path d="M67 2.2 C73.4 3.6 81.6 6.5 84.5 10.5 C87.4 14.5 90.2 22.1 89.1 36.2 C88 50.3 87.7 63.3 84.9 70.8 C82.1 78.3 75 87 64.4 90.8 C57.6 93.3 51.2 94.5 45.2 94.6 C44.9 94.6 44.8 94.6 44.7 94.6 C38.7 94.5 32.3 93.2 25.5 90.8 C15 87 7.8 78.2 5 70.7 C2.2 63.2 2 50.4 0.9 36.3 C-0.2 22.2 2.6 14.7 5.5 10.6 C8.4 6.5 16.6 3.6 23 2.3 C27.2 1.4 34.4 0.8 44.7 0.5 C55.5 0.7 62.8 1.3 67 2.2 z" id="i1" fill="#FCF6CA" /><path d="M72.4 85.7 C70 87.7 67.2 89.4 63.9 90.6 C57.1 93.1 50.7 94.3 44.7 94.4 C44.6 94.4 44.5 94.4 44.5 94.4 C44.4 94.4 44.3 94.4 44.3 94.4 C38.3 94.3 31.9 93 25.1 90.6 C21.8 89.4 19.1 87.8 16.7 85.9 C13.9 74 13 66.5 13.9 63.2 C15.3 57.8 17.2 56.8 11.8 50.9 C6.4 45 12 38 19.6 33.1 C24.6 29.8 27.9 28.7 29.3 29.6 C26.3 28.2 24.3 28.9 22.8 29.2 C20.5 29.7 22.5 24.9 27.2 23.7 C31.9 22.5 36 23.2 38.1 25.2 C40.2 27.2 41.4 28.8 43.6 28.7 C43.7 28.7 43.9 28.7 44 28.7 C43.7 28.7 43.9 28.7 44.5 28.7 C45.1 28.7 45.3 28.7 45 28.7 C45.1 28.7 45.2 28.7 45.4 28.7 C47.6 28.8 48.9 27.4 51.1 25.4 C53.2 23.4 57.4 22 61.9 23.7 C66.4 25.4 68.8 30 66.5 29.5 C65 29.2 62.8 28.1 59.8 29.5 C61.2 28.6 64.5 29.7 69.5 33 C77 38 82.7 45.1 77.3 51 C71.8 56.9 73.7 57.8 75.2 63.3 C75.9 66.4 75 73.9 72.4 85.7 z" id="j1" fill="#F0B756" /><path d="M56.9 1 C57.3 1.3 53.2 1.7 52.8 7 C52.6 8.7 55.1 17.3 55.5 19.4 C56.7 24.8 55.9 24.4 54.6 27.2 C50.2 36.4 49 41.7 51.9 46.6 C53.8 49.8 57.2 53.4 62 57.4 C64.9 60.2 66.8 62.7 67.6 64.8 C69.5 69.9 72.6 79 67.6 86.6 C62.6 94.2 58.2 102.4 44.8 102.4 C31.4 102.4 23.8 94.2 20.3 84.8 C16.8 75.4 19 72.6 21.7 67.1 C23.4 63.6 24.8 60.8 28.6 57.5 C32.4 54.2 35.9 50 37.8 46.7 C40.6 41.8 39.4 36.5 35.1 27.3 C33.7 24.5 33 24.9 34.2 19.5 C34.8 16.9 37 12.2 37 7.1 C37 2 32.6 1.2 32.9 1 C33.8 0.9 37.8 0.5 44.8 0.5 C51.8 0.5 55.9 0.9 56.9 1 z" id="k1" fill="#C08A3F" /><path d="M67 2.2 C73.4 3.6 81.6 6.5 84.5 10.5 C87.4 14.5 90.2 22.1 89.1 36.2 C88 50.3 87.7 63.3 84.9 70.8 C82.1 78.3 75 87 64.4 90.8 C57.6 93.3 51.2 94.5 45.2 94.6 C44.9 94.6 44.8 94.6 44.7 94.6 C38.7 94.5 32.3 93.2 25.5 90.8 C15 87 7.8 78.2 5 70.7 C2.2 63.2 2 50.4 0.9 36.3 C-0.2 22.2 2.6 14.7 5.5 10.6 C8.4 6.5 16.6 3.6 23 2.3 C27.2 1.4 34.4 0.8 44.7 0.5 C55.5 0.7 62.8 1.3 67 2.2 z M66.4 2.4 C62.3 1.5 55.2 0.9 44.7 0.7 C34.7 1 27.7 1.6 23.6 2.5 C17.4 3.8 9.4 6.6 6.6 10.6 C3.8 14.6 1 21.9 2.1 35.6 C3.2 49.3 3.4 61.8 6.1 69.1 C8.8 76.4 15.8 85 26 88.7 C32.6 91 38.8 92.3 44.7 92.4 C44.8 92.4 44.9 92.4 45.2 92.4 C51 92.3 57.3 91.1 63.9 88.7 C74.2 85 81.1 76.5 83.9 69.2 C86.7 61.9 86.9 49.2 88 35.5 C89.1 21.8 86.3 14.4 83.5 10.5 C80.7 6.6 72.6 3.8 66.4 2.4 z" fill-opacity="0.3" id="l1" /></g></g><g transform="translate(126.9, 140) rotate(-20, 0, 0) scale(0.8) translate(-126.9, -140) translate(85.5, 94.29997) translate(16, 0)" id="m1"><g id="n1"><path d="M27.8 10.3 C24.4 3.6 20.9 -0.6 19.4 0.1 C16.2 1.6 11.7 10.8 8.9 17.1 C4.7 22.1 0.8 27.6 0.3 34.1 C1.2 33.3 2.1 32.4 3 31.6 C1.5 36.6 1.5 42.1 3.2 47.1 C3.5 46.3 3.8 45.5 4.2 44.7 C5.2 50.9 7.8 57.6 13.6 56.5 C22.4 54.8 36.6 44.1 38.7 35.7 C40.4 28.5 32.1 18.9 27.8 10.3 z" id="o1" fill="#C08A3F" /><path d="M27.8 10.3 C32.1 18.9 40.4 28.5 38.7 35.7 C36.6 44.1 22.4 54.8 13.6 56.5 C7.8 57.6 5.2 50.9 4.2 44.7 C3.8 45.5 3.5 46.3 3.2 47.1 C1.5 42.1 1.5 36.6 3 31.6 C2.1 32.4 1.2 33.3 0.3 34.1 C0.8 27.6 4.7 22.1 8.9 17.1 C11.7 10.8 16.2 1.6 19.4 0.1 C20.9 -0.6 24.4 3.6 27.8 10.3 z M26.9 10.9 C23.9 4.9 20.7 1.2 19.4 1.8 C16.6 3.1 12.5 11.3 10 17 C6.2 21.5 2.8 25 2.4 30.8 C3.2 30.1 4.1 29.7 4.9 29 C3.6 33.5 2.3 38.1 3.8 42.6 C4.1 41.9 5.4 40.9 5.8 40.2 C6.7 45.7 9 53.2 14.2 52.3 C22.1 50.8 34.8 41.2 36.6 33.7 C38.2 27.2 30.8 18.6 26.9 10.9 z" opacity="0.15" id="p1" /><path d="M25 34.7 C26.2 33.7 27.6 32.5 29 31.9 C25 31.5 20.8 32.4 17.3 34.5 C19.1 29.2 23.9 26.3 29.5 27 C29.5 26.9 29.5 26.9 29.4 26.8 C28.1 25.8 25.2 24.8 23.1 25.1 C24.3 22.1 24.6 20.1 25.8 17.1 C24.4 17.4 22.3 16.9 20.6 18.2 L19.7 15.6 C19.7 15.6 22.4 12.4 23.4 12.3 C21.9 9.8 20.5 8.2 19.5 8.3 C14.8 8.8 13.9 20 11.5 28.5 C10 33.6 9.2 44.3 11.5 48.5 C13.1 51.6 18.1 45.7 21.3 44.4 C21.3 44.4 26.6 40.2 30.6 40.3 C30.7 40.3 30.8 40.3 30.9 40.2 C29.5 37.8 27.5 35.9 25 34.7 z" id="q1" fill="#FCF6CA" /></g></g><g transform="translate(212.9, 139) rotate(20, 0, 0) scale(0.8) translate(-212.9, -139) translate(121.7, 93.29997) translate(97.5, 28.5) scale(-1, 1) translate(-97.5, -28.5) translate(78, 0)" id="r1"><path d="M0.3 34.1 C0.7 27.5 4.6 22.1 8.9 17.1 C11.7 10.8 16.2 1.6 19.4 0.1 C20.9 -0.6 24.4 3.7 27.8 10.3 C32.1 18.9 40.3 28.5 38.6 35.6 C36.2 46.2 22.4 55.5 13.5 56.4 C7.7 57 5.2 50.6 4.1 44.6 C3.7 45.4 3.4 46.2 3.1 47 C1.5 42 1.4 36.5 2.9 31.5 C2.1 32.4 1.2 33.3 0.3 34.1 z" id="s1" fill="#C08A3F" /><path d="M27.8 10.3 C32.1 18.9 40.4 28.5 38.7 35.7 C36.6 44.1 22.4 54.8 13.6 56.5 C7.8 57.6 5.2 50.9 4.2 44.7 C3.8 45.5 3.5 46.3 3.2 47.1 C1.5 42.1 1.5 36.6 3 31.6 C2.1 32.4 1.2 33.3 0.3 34.1 C0.8 27.6 4.7 22.1 8.9 17.1 C11.7 10.8 16.2 1.6 19.4 0.1 C20.9 -0.6 24.4 3.6 27.8 10.3 z M26.9 10.9 C23.9 4.9 20.7 1.2 19.4 1.8 C16.5 3.1 12.5 11.3 10 17 C6.2 21.5 2.8 25 2.4 30.8 C3.2 30.1 4.1 29.7 4.9 29 C3.6 33.5 2.3 38.1 3.8 42.6 C4.1 41.9 5.4 40.9 5.8 40.2 C6.7 45.7 9 53.2 14.2 52.3 C22.1 50.8 34.8 41.2 36.6 33.7 C38.2 27.2 30.8 18.6 26.9 10.9 z" opacity="0.15" id="t1" /><path d="M11.6 28.3 C14.1 19.8 14.9 8.6 19.6 8.1 C20.7 8 22.2 9.5 23.7 12 C22.3 12.9 19.9 15.4 19.9 15.4 L20.8 18 C22.4 16.7 24.5 17.2 26 16.9 C24.8 19.9 24.5 21.9 23.3 24.9 C25.5 24.5 28.7 25.8 29.9 26.8 C24.2 26.1 19.3 28.9 17.5 34.3 C21 32.2 25.1 31.3 29.2 31.7 C27.7 32.3 26.4 33.5 25.2 34.5 C27.5 35.6 29.4 37.4 30.8 39.5 C27.8 41.4 26 42.4 21.9 45.3 C18.1 48 13.4 51.4 11.8 48.3 C9.3 44.1 10.1 33.5 11.6 28.3 z" id="u1" fill="#FCF6CA" /></g><g id="v1"><g transform="translate(106.1, 106.4) translate(27, 70)" id="w1"><g id="x1"><g transform="translate(0, 0.699997)" id="y1"><path d="M1.2 22.9 C2.9 16.8 7.9 15 14.1 11.1 C20.3 7.2 28.3 0.1 37 0.1 C45.7 0.1 49.8 4.7 56.8 9.6 C60.1 11.9 65.7 13.7 68.5 16.7 C72.3 20.8 73.1 29.1 71.8 35.6 C70.5 42.1 65.9 45.6 58 45.6 C55.5 45.6 52.8 43.3 50.3 40.6 C46.6 36.5 42.8 31.5 36.9 31.5 C29.3 31.5 28.7 36.9 22 42.1 C20.2 43.5 16 45.6 13.4 45.6 C10.8 45.6 7 44.8 3.8 41.5 C1.4 38.9 -0.6 29 1.2 22.9 z" id="z1" fill="#E0E0E0" /><path d="M1.2 22.9 C2.9 16.8 7.9 15 14.1 11.1 C20.3 7.2 28.3 0.1 37 0.1 C45.7 0.1 49.8 4.7 56.8 9.6 C60.1 11.9 65.7 13.7 68.5 16.7 C72.3 20.8 73.1 29.1 71.8 35.6 C70.5 42.1 65.9 45.6 58 45.6 C55.5 45.6 52.8 43.3 50.3 40.6 C46.6 36.5 42.8 31.5 36.9 31.5 C29.3 31.5 28.7 36.9 22 42.1 C20.2 43.5 16 45.6 13.4 45.6 C10.8 45.6 7 44.8 3.8 41.5 C1.4 38.9 -0.6 29 1.2 22.9 z M3.4 21.9 C1.8 27.6 3.6 36.9 5.9 39.3 C8.9 42.4 12.4 43.2 14.9 43.2 C17.3 43.2 21.2 41.2 22.9 39.9 C29.2 35 29.8 29.9 36.9 29.9 C42.4 29.9 46 34.6 49.4 38.5 C51.8 41 54.3 43.2 56.6 43.2 C64 43.2 68.3 39.9 69.5 33.8 C70.8 27.7 70 19.9 66.5 16.1 C63.8 13.3 58.6 11.6 55.5 9.4 C48.9 4.9 45.1 0.6 37 0.6 C28.8 0.6 21.3 7.2 15.5 10.8 C9.7 14.5 5 16.2 3.4 21.9 z" opacity="0.15" id="a2" /><path d="M19.8 23.4 C20 23.5 20.4 23.1 20.6 23.1 C21 23.1 21.3 23.5 21.5 23.2 C21.8 22.6 21.7 22 21.1 21.7 C20.5 21.4 19.8 21.5 19.4 22.1 C19.2 22.6 19.3 23 19.8 23.4 z" id="b2" fill="#010101" /><path d="M14.8 30.4 C15 30.5 15.4 30.1 15.6 30.1 C16 30.1 16.3 30.5 16.5 30.2 C16.8 29.6 16.7 29 16.1 28.7 C15.5 28.4 14.8 28.5 14.4 29.1 C14.2 29.6 14.3 30 14.8 30.4 z" id="c2" fill="#010101" /><path d="M22.8 26.4 C23 26.5 23.4 26.1 23.6 26.1 C24 26.1 24.3 26.5 24.5 26.2 C24.8 25.6 24.7 25 24.1 24.7 C23.5 24.4 22.8 24.5 22.4 25.1 C22.2 25.6 22.3 26 22.8 26.4 z" id="d2" fill="#010101" /><path d="M51.1 24.1 C51.3 24.2 51.7 23.8 51.9 23.8 C52.3 23.8 52.6 24.2 52.8 23.9 C53.1 23.3 53 22.7 52.4 22.4 C51.8 22.1 51.1 22.2 50.7 22.8 C50.4 23.3 50.5 23.8 51.1 24.1 z" id="e2" fill="#010101" /><path d="M47.8 28.4 C48 28.5 48.4 28.1 48.6 28.1 C49 28.1 49.3 28.5 49.5 28.2 C49.8 27.6 49.7 27 49.1 26.7 C48.5 26.4 47.8 26.5 47.4 27.1 C47 27.7 47.3 28 47.8 28.4 z" id="f2" fill="#010101" /><path d="M56.8 30.4 C57 30.5 57.4 30.1 57.6 30.1 C58 30.1 58.3 30.5 58.5 30.2 C58.8 29.6 58.7 29 58.1 28.7 C57.5 28.4 56.8 28.5 56.4 29.1 C56.2 29.6 56.3 30 56.8 30.4 z" id="g2" fill="#010101" /></g></g></g><g transform="translate(169.5, 208.1) scale(0.7) translate(-169.5, -208.1) translate(104, 134.3) translate(38, 64)" id="h2"><g id="i2"><path d="M40.7 9.3 C36.3 7.2 33.8 11.5 29 11.5 C28.5 11.5 26.5 11.5 26 11.5 C21.2 11.6 18.7 7.3 14.3 9.3 C9.4 11.6 -0.1 5.3 0.5 6.2 C0.9 11.3 6.5 16.8 9.4 16.6 C10.4 16.5 14.1 16.3 15 16 C18.8 14.7 23.5 20.9 27.6 20.9 C31.7 20.9 36.3 14.7 40.1 16 C41 16.3 44.7 16.5 45.7 16.6 C48.5 16.8 54.2 11.3 54.6 6.2 C55.1 5.3 45.6 11.6 40.7 9.3 z" id="j2" fill="#965622" /><path d="M51.4 3.1 C50.2 3.8 48.8 6.6 46.8 7.6 C45.9 8.1 43.9 8.4 42.3 8 C41.3 7.4 40.1 6.6 38.6 5.6 C35.3 3.3 31.6 0.7 27.5 0.7 C23.4 0.7 19.7 3.3 16.4 5.6 C14.9 6.6 13.8 7.4 12.7 8 C11 8.4 9 8.1 8.1 7.7 C6.2 6.7 4.8 3.9 3.5 3.2 C2.4 2.5 0.2 3.8 0.2 5.3 C0 10.6 8.1 12.8 10.9 11.9 C12 11.7 13.1 11.3 14.3 10.7 C16.5 12 19.9 15.9 27.5 16.2 C35.1 16.5 38.5 12 40.7 10.7 C41.8 11.3 42.9 11.8 44 11.9 C46.8 12.8 54.9 10.6 54.7 5.3 C54.7 3.7 52.5 2.4 51.4 3.1 z" id="k2" fill="#282421" /><path d="M36.4 8.8 C36.2 7.9 35.1 7.4 34.2 7.2 C32 6.5 29.7 5.8 27.5 5.9 C25.2 5.8 23 6.5 20.8 7.2 C19.9 7.5 18.9 7.9 18.6 8.8 C18.4 9.7 18 11.8 18.7 12.4 C20.3 13.7 19.2 18.9 27.5 18.9 C35.8 18.9 34.6 13.8 36.2 12.4 C37 11.7 36.6 9.7 36.4 8.8 z" id="l2" fill="#CE5253" /></g></g><g transform="translate(102.8, 100.9) translate(59, 84)" id="m2"><g id="n2"><path d="M14.8 1.5 C14 0 10.9 2 8 2 C5.1 2 2 0 1.2 1.5 C0.4 3 0.7 6.3 2.4 8.9 C3.6 10.7 8 10.9 8 10.9 C8 10.9 12.4 10.6 13.6 8.9 C15.3 6.3 15.6 3 14.8 1.5 z" id="o2" fill="#282421" /><path d="M9.3 3.5 C8.9 3.8 8.4 4.1 8.4 4.6 C8.4 5 8.8 5.3 9.1 5.4 C9.5 5.5 9.9 5.5 10.2 5.4 C11.1 5.3 12 5.2 12.6 4.7 C13.4 4 13.6 2.8 12.5 2.5 C11.6 2.2 10.1 3 9.3 3.5 z" id="p2" fill="#F5FAFC" /></g></g><g transform="translate(87.50001, 91.59997) translate(50, 53)" id="q2"><g transform="translate(12.46274, 12.04615) scale(-1, 1) translate(-12.46274, -12.04615) translate(0.962735, 0.546154)" id="r2"><path d="M7.4 22.1 C7.4 22.1 2.2 20.2 0.7 15.9 C-0.3 13 0.6 11.5 3.5 11.2 C2.7 9.3 2.7 8.3 3.5 8 C4.4 7.8 5.9 6.6 8 4.3 L11.3 0.4 L20.6 3.6 C21.9 7.2 22.5 9.2 22.4 9.5 C22.2 10 19.7 7.2 19.1 7.5 C17.4 8.2 11.9 9.3 10.8 10.4 C5.4 16.2 7.4 22.1 7.4 22.1 z" fill-opacity="0.9" opacity="0.8" id="s2" fill="#C08A3F" /><g transform="translate(1.037265, 10.45385)" id="t2"><path d="M0.9 7.5 C1 7.9 1.4 8.6 2.1 9.6 C3.2 11.1 5.5 11.9 7.5 11.7 C9.5 11.5 11 11.6 12.8 9.6 C14.6 7.6 16 5.8 16.4 5.2 C16.7 4.8 17.4 4.3 18.6 3.7 C16.4 1.5 14.9 0.5 13.9 0.5 C12.5 0.5 9.5 1.5 7.9 3.2 C6.3 4.9 5 6.6 3.1 6.6 C2.7 6.4 2 6.7 0.9 7.5 z" id="u2" /><path d="M7.2 7.5 C8.1 6.9 8.7 6.5 9 6.2 C9.7 5.6 10 5.1 10.4 4.8 C11 6 11 7.5 9.7 7.9 C8.8 8.3 8 8.1 7.2 7.5 z" id="v2" fill="#FFFFFE" /></g></g></g><g transform="translate(93.6, 91.59997) translate(80, 54)" id="w2"><g transform="translate(0.962735, 0.546154)" id="x2"><path d="M7.4 21.1 C7.4 21.1 2.2 19.2 0.7 14.9 C-0.3 12 0.6 10.5 3.5 10.2 C2.7 8.3 2.7 7.3 3.5 7 C4.4 6.8 5.9 5.6 8 3.3 L11.4 0 L20.7 2.7 C22 6.3 22.6 8.3 22.5 8.6 C22.3 9.1 19.8 6.3 19.2 6.6 C17.5 7.3 12 8.4 10.9 9.5 C5.4 15.2 7.4 21.1 7.4 21.1 z" fill-opacity="0.9" opacity="0.8" id="y2" fill="#C08A3F" /><g transform="translate(2.037265, 9.453846)" id="z2"><path d="M0.3 7.5 C0.4 7.9 0.8 8.6 1.5 9.6 C2.6 11.1 4.9 11.9 6.9 11.7 C8.9 11.5 10.4 11.6 12.2 9.6 C14 7.6 15.4 5.8 15.8 5.2 C16.1 4.8 16.8 4.3 18 3.7 C15.8 1.5 14.3 0.5 13.3 0.5 C11.9 0.5 8.9 1.5 7.3 3.2 C5.7 4.9 4.3 6.6 2.4 6.6 C2.1 6.4 1.4 6.7 0.3 7.5 z" id="a3" /><path d="M6.2 7.5 C7.1 6.9 7.7 6.5 8 6.2 C8.7 5.6 9 5.1 9.4 4.8 C10 6 10 7.5 8.7 7.9 C7.8 8.3 7 8.1 6.2 7.5 z" id="b3" fill="#FFFFFE" /></g></g></g></g></g></g><g transform="translate(39.29518, 265.301)" id="c3"><ellipse cx="32.5" cy="17.5" rx="37.3" ry="13.2" opacity="0.15" id="d3" /><use xlink:href="#e" x="1.51" y="0" /></g><g transform="translate(235.8952, 266.9009)" id="e3"><ellipse cx="32.5" cy="17.5" rx="37.3" ry="13.2" fill-opacity="0.15" id="f3" /><use xlink:href="#e" x="0.08" y="0" /><use xlink:href="#e" x="-1.38" y="-10.7" /><use xlink:href="#e" x="1.69" y="-21.4" /></g><g transform="translate(70.39518, 285.5009)" id="g3"><ellipse cx="32.5" cy="17.5" rx="37.3" ry="13.2" opacity="0.15" id="h3" /><use xlink:href="#e" x="1.63" y="0" /></g></g><defs><g transform="translate(17.09519, 0.800995) translate(-135.2952, -293.601)" id="e" fill="#000"><path d="M118.2 302.7 C118.4 307.4 132.5 311.2 149.8 311.2 C167.1 311.2 181.2 307.4 181.4 302.7 C181.4 307.5 181.4 310.1 181.4 310.5 C181.4 315.3 167.3 319.1 149.8 319.1 C132.3 319.1 118.2 315.2 118.2 310.5 L118.2 302.7 L118.2 302.7 z" fill-opacity="0.4528" id="i3" fill="#593001" /><path d="M118.7 301.7 C118.9 306.4 133 310.2 150.3 310.2 C167.6 310.2 181.7 306.4 181.9 301.7 C181.9 306.5 181.9 309.1 181.9 309.5 C181.9 314.3 167.8 318.1 150.3 318.1 C132.8 318.1 118.7 314.2 118.7 309.5 L118.7 301.7 L118.7 301.7 z" id="j3" fill="#DA8113" /><linearGradient x1="46.0545" y1="-118.6926" x2="45.4656" y2="-118.6926" gradientUnits="userSpaceOnUse" gradientTransform="matrix(117.135, 0, 0, 28.4634, -5208.417, 3687.795)" id="k3"><stop offset="0%" stop-color="#D9952A" stop-opacity="1" /><stop offset="6.438854%" stop-color="#CA7519" stop-opacity="1" /><stop offset="30.54%" stop-color="#E3AD3A" stop-opacity="1" /><stop offset="51.05%" stop-color="#FFEC91" stop-opacity="1" /><stop offset="68.8%" stop-color="#E9BD44" stop-opacity="1" /><stop offset="86.24%" stop-color="#FFED6C" stop-opacity="1" /><stop offset="93.87%" stop-color="#F2D353" stop-opacity="1" /><stop offset="100%" stop-color="#F2B947" stop-opacity="1" /></linearGradient><path d="M118.2 301.6 C118.4 306.1 132.7 309.7 150.3 309.7 C167.9 309.7 182.2 306.1 182.4 301.6 C182.4 306.2 182.4 308.7 182.4 309 C182.4 313.5 168 317.2 150.3 317.2 C132.6 317.2 118.2 313.5 118.2 309 L118.2 301.6 L118.2 301.6 z" id="l3" style="fill:url(#k3)" /><linearGradient x1="45.4914" y1="-117.9547" x2="45.9407" y2="-117.5895" gradientUnits="userSpaceOnUse" gradientTransform="matrix(115.425, 0, 0, 29.925, -5125.077, 3826.124)" id="m3"><stop offset="0%" stop-color="#F4E072" stop-opacity="1" /><stop offset="100%" stop-color="#DB9427" stop-opacity="1" /></linearGradient><ellipse cx="150.3" cy="301.5" rx="31.6" ry="8.2" id="n3" style="fill:url(#m3)" /><linearGradient x1="45.4656" y1="-126.0065" x2="46.0545" y2="-126.0065" gradientUnits="userSpaceOnUse" gradientTransform="matrix(117.135, 0, 0, 18.6219, -5208.417, 2651.479)" id="o3"><stop offset="0%" stop-color="#D9952A" stop-opacity="1" /><stop offset="6.438854%" stop-color="#CA7519" stop-opacity="1" /><stop offset="30.54%" stop-color="#E3AD3A" stop-opacity="1" /><stop offset="51.05%" stop-color="#FFEC91" stop-opacity="1" /><stop offset="68.8%" stop-color="#E9BD44" stop-opacity="1" /><stop offset="86.24%" stop-color="#FFED6C" stop-opacity="1" /><stop offset="93.87%" stop-color="#F2D353" stop-opacity="1" /><stop offset="100%" stop-color="#F2B947" stop-opacity="1" /></linearGradient><path d="M119.2 299.9 C119 300.2 118.9 300.6 118.9 301 C118.9 305.5 132.9 309.2 150.3 309.2 C167.7 309.2 181.7 305.5 181.7 301 C181.7 300.6 181.6 300.3 181.4 299.9 C182 300.5 182.4 301.2 182.4 301.9 C182.4 306.4 168 310.1 150.3 310.1 C132.6 310.1 118.2 306.4 118.2 301.9 C118.2 301.3 118.6 300.6 119.2 299.9 z" id="p3" style="fill:url(#o3)" /><linearGradient x1="45.196" y1="-121.5895" x2="45.3746" y2="-120.6758" gradientUnits="userSpaceOnUse" gradientTransform="matrix(101.745, 0, 0, 23.94, -4458.332, 3199.41)" id="q3"><stop offset="0%" stop-color="#F8DD61" stop-opacity="1" /><stop offset="100%" stop-color="#EAA330" stop-opacity="1" /></linearGradient><ellipse cx="150.3" cy="300.8" rx="27.8" ry="6.6" id="r3" style="fill:url(#q3)" /><linearGradient x1="45.5694" y1="-134.267" x2="45.0221" y2="-134.267" gradientUnits="userSpaceOnUse" gradientTransform="matrix(101.745, 0, 0, 13.2525, -4458.332, 2077.223)" id="s3"><stop offset="0%" stop-color="#F4CA2F" stop-opacity="1" /><stop offset="51.38%" stop-color="#BF7737" stop-opacity="1" /><stop offset="100%" stop-color="#E4A929" stop-opacity="1" /></linearGradient><path d="M122.6 301.5 C122.5 301.3 122.4 301 122.4 300.8 C122.4 297.2 134.9 294.2 150.2 294.2 C165.5 294.2 178 297.1 178 300.8 C178 301 177.9 301.3 177.8 301.5 C176.3 298.2 164.5 295.6 150.1 295.6 C135.7 295.6 124.1 298.2 122.6 301.5 z" id="t3" style="fill:url(#s3)" /></g></defs><desc>OGHDBF9HJLE,V4QK5ZtNJnsHEWYhMkaKXZmUwh2e5fulpFdFH9Fo9TQwkLDlc6M3xtFNBVHlQiMx1dAdRn8762L1cb+dQb2Q0/k1E713vrxJtlAvcdZ7rAPPHB3HH/Ho+qhw6tnieehUwhDuq0NG/mGF+5WFGTaCl6eI7y4iBKZLETZR5RqXmMoxWrPq1wIPG8ePYnPTzLU1</desc></svg>