<?xml version="1.0" encoding="utf-8"?><!DOCTYPE svg PUBLIC "-//W3C//DTD SVG 1.1//EN" "http://www.w3.org/Graphics/SVG/1.1/DTD/svg11.dtd"><svg x="0" y="0" width="340px" height="340px" viewBox="0, 0, 340, 340" preserveAspectRatio="xMidYMid" font-size="0" id="a" enable-background="new 0 0 340 340" xmlns="http://www.w3.org/2000/svg" xmlns:xlink="http://www.w3.org/1999/xlink" xmlns:xml="http://www.w3.org/XML/1998/namespace" version="1.1"><g id="b" fill="#000"><g id="c"><g transform="translate(0, 0) translate(0, 224)" id="d"><ellipse cx="168.6" cy="53.1" rx="57.8" ry="12.8" fill-opacity="0.25" id="e" /></g><g id="f"><g transform="translate(109.4, 109.5) translate(17, 115.5) scale(-1, 1) translate(-17, -115.5) translate(0, 94)" id="g"><g id="h"><path d="M8.1 41.9 C14.8 39.7 18.9 36.9 23.6 32.1 C31.3 24.3 34 16.7 29.9 8.8 C27.6 4.4 19.9 1.9 13.5 3.1 C10.7 3.6 9.6 5.5 10 5.9 C10.7 6.6 13.9 5.9 15.5 6 C26.6 6.6 24.3 15.2 17.6 22.1 C12.7 27.2 5.8 27.2 1.9 31.9 C-1.8 36.4 1.5 44.1 8.1 41.9 z" id="i" fill="#74401C" /><path d="M13.5 34.9 C24.5 32.1 33 20.6 28.2 9.3 C26.4 5 18 1.6 10.2 6 L10.1 6 C9.5 5.6 9.8 4.8 12 2.8 C16.8 -1.4 25.8 0.3 29.5 4.7 C36.8 13.3 34.6 24.6 26.9 32.4 C22.2 37.2 14.7 39.8 8 42 C5.7 42.8 3.8 42.3 2.4 41.2 C2.2 38.4 10.9 35.6 13.5 34.9 z" id="j" fill="#9B5526" /><path d="M2.4 41 C0 38.9 -0.5 34.8 1.9 31.9 C5.8 27.2 12.7 27.2 17.6 22.1 C24.3 15.2 26.6 6.6 15.5 6 C14 5.9 11 6.5 10.1 6 L10.1 6 C9.5 5.6 9.8 4.8 12 2.8 C16.8 -1.4 25.8 0.3 29.5 4.7 C36.8 13.3 34.6 24.6 26.9 32.4 C22.2 37.2 14.7 39.8 8 42 C5.7 42.8 3.8 42.3 2.4 41.2 C2.4 41.1 2.4 41.1 2.4 41 z M3.1 31.5 C0.9 34.3 0.9 37.1 3.1 39.1 C3.1 39.1 3.1 39.2 3.1 39.2 C4.5 40.3 6.3 40.8 8.4 40 C14.8 37.9 20.8 35.7 25.2 31.1 C32.6 23.7 35.6 13.6 28.7 5.4 C25.1 1.2 17.2 -0.9 12.6 3.1 C10.6 5 9.9 5.4 10.5 5.8 C11.3 6.3 14.6 5.3 16 5.4 C26.6 6 25.3 15.7 18.9 22.3 C14.2 27.1 6.8 27.1 3.1 31.5 z" opacity="0.15" id="k" /></g></g><g transform="translate(121.7, 275.3) scale(1.008403) translate(-121.7, -275.3) translate(87.10001, 87.79997) translate(28, 124)" id="l"><path d="M50.5 28.2 C50.5 14.3 19.2 -3.5 9.2 1 C8 1.6 6.8 2.4 5.7 3.4 C3.3 5.6 1.3 9.8 0.9 13 C0.7 14.5 1.4 14.8 1.4 16.4 C1.5 18.2 1.6 22.4 1.9 24.1 C2.1 25.3 2.9 23 3.2 24.1 C3.7 25.9 3.9 28.6 4.4 29.9 C5 31.4 6.8 35.4 7.1 35.8 C7.5 36.4 7.2 35.1 8.7 37.9 C9.2 38.8 9.6 38.5 10.1 39.6 C10.5 40.3 11.2 45.8 11.6 46.5 C12.3 47.8 12.7 45.8 13.5 47.3 C14.2 48.6 14.9 50 15.6 51.5 C8.3 54.2 4.7 57.4 4.7 61.1 C4.7 62.8 4.7 65.1 6.4 66.4 C7.7 67.4 37.5 67.9 38.9 65.1 C40.7 60 34.3 53.8 39.7 45.1 C43.7 38.5 50.5 37.5 50.5 28.2 z" id="m" fill="#9B5526" /><path d="M50.5 28.2 C50.5 37.5 43.7 38.5 39.7 45.1 C34.3 53.8 40.7 60 38.9 65.1 C37.5 67.9 7.7 67.4 6.4 66.4 C4.7 65.1 4.7 62.8 4.7 61.1 C4.7 57.4 8.3 54.2 15.6 51.5 C14.9 50 14.2 48.6 13.5 47.3 C12.7 45.8 12.3 47.8 11.6 46.5 C11.2 45.8 10.5 40.3 10.1 39.6 C9.6 38.5 9.2 38.8 8.7 37.9 C7.2 35.1 7.5 36.4 7.1 35.8 C6.8 35.4 5 31.4 4.4 29.9 C3.9 28.6 3.7 25.9 3.2 24.1 C2.9 23 2.1 25.3 1.9 24.1 C1.6 22.4 1.5 18.2 1.4 16.4 C1.4 14.8 0.7 14.5 0.9 13 C1.3 9.8 3.3 5.6 5.7 3.4 C6.8 2.4 8 1.6 9.2 1 C19.2 -3.5 50.5 14.3 50.5 28.2 z M48.3 27.1 C48.3 14.2 19.8 -2.2 10.7 2 C9.6 2.5 8.5 3.3 7.5 4.2 C5.3 6.2 3.5 10.1 3.1 13 C3 14.4 3.6 14.7 3.6 16.2 C3.7 17.8 3.8 21.7 4.1 23.3 C4.2 24.4 5 22.3 5.2 23.3 C5.7 24.9 5.9 27.4 6.3 28.6 C6.9 30 8.5 33.7 8.8 34.1 C9.1 34.6 8.9 33.4 10.2 36 C10.7 36.8 11.1 36.5 11.5 37.6 C11.9 38.2 12.5 43.3 12.9 43.9 C13.5 45.1 13.9 43.3 14.6 44.7 C15.2 45.9 18.5 50.2 19.1 51.6 C12.5 54.1 7.3 55.8 7.3 59.2 C7.3 60.8 6.6 61.1 8.1 62.3 C9.3 63.2 35.1 64.3 36.4 61.7 C38 57 33.5 50.7 38.4 42.6 C42.1 36.5 48.3 35.6 48.3 27.1 z" opacity="0.15" id="n" /></g><g transform="translate(218.3, 275.3) scale(1.008403) translate(-218.3, -275.3) translate(86.8, 87.79997) translate(113.5, 158) scale(-1, 1) translate(-113.5, -158) translate(89, 125)" id="o"><path d="M48.2 28.3 C48.2 14.6 24.6 -4.1 9.2 1 C8 1.6 6.8 2.3 5.7 3.3 C3.3 5.4 1.3 9.6 0.9 12.8 C0.7 14.3 1.4 14.5 1.4 16.1 C1.5 17.9 1.6 22 1.9 23.7 C2.1 24.9 2.9 22.6 3.2 23.7 C3.7 25.5 3.9 28.2 4.4 29.4 C5 30.9 6.8 34.9 7.1 35.2 C7.5 35.8 7.2 34.5 8.7 37.3 C9.2 38.2 9.6 37.9 10.1 39 C10.5 39.7 11.2 45.1 11.6 45.8 C12.3 47.1 12.7 45.1 13.5 46.6 C14.2 47.9 14.9 49.3 15.6 50.8 C8.3 53.5 4.7 56.6 4.7 60.3 C4.7 62 4.7 64.2 6.4 65.5 C7.7 66.5 39.4 65.8 40.8 63 C43.8 59.4 34.2 43.1 39.2 39.8 C44.4 37.6 48.2 34.7 48.2 28.3 z" id="p" fill="#9B5526" /><path d="M48.2 28.3 C48.2 34.7 44.4 37.6 39.2 39.8 C34.2 43.1 43.8 59.4 40.8 63 C39.4 65.8 7.7 66.5 6.4 65.5 C4.7 64.2 4.7 62 4.7 60.3 C4.7 56.6 8.3 53.5 15.6 50.8 C14.9 49.3 14.2 47.9 13.5 46.6 C12.7 45.1 12.3 47.1 11.6 45.8 C11.2 45.1 10.5 39.7 10.1 39 C9.6 37.9 9.2 38.2 8.7 37.3 C7.2 34.5 7.5 35.8 7.1 35.2 C6.8 34.9 5 30.9 4.4 29.4 C3.9 28.2 3.7 25.5 3.2 23.7 C2.9 22.6 2.1 24.9 1.9 23.7 C1.6 22 1.5 17.9 1.4 16.1 C1.4 14.5 0.7 14.3 0.9 12.8 C1.3 9.6 3.3 5.4 5.7 3.3 C6.8 2.3 8 1.6 9.2 1 C24.6 -4.1 48.2 14.6 48.2 28.3 z M46.8 27.4 C46.8 14.6 24.6 -2.9 10.1 1.9 C9 2.4 7.8 3.1 6.8 4 C4.5 6 2.7 9.9 2.3 12.9 C2.1 14.3 2.8 14.5 2.8 16 C2.9 17.7 2.9 21.5 3.2 23.1 C3.4 24.2 4.2 22 4.5 23.1 C4.9 24.7 5.1 27.3 5.6 28.4 C6.1 29.8 7.8 33.5 8.1 33.8 C8.5 34.4 8.2 33.2 9.6 35.8 C10.1 36.6 10.5 36.3 10.9 37.4 C11.3 38 12 43 12.4 43.7 C13 44.9 13.4 43 14.1 44.5 C14.8 45.7 17.4 50.6 18 52 C11.1 54.5 6.8 55.5 6.8 59 C6.8 60.5 7.7 61.4 9.3 62.6 C10.5 63.6 36.9 63.1 38.2 60.4 C41.1 57.1 33.6 41.2 38.3 38.1 C43.2 36 46.8 33.3 46.8 27.4 z" opacity="0.15" id="q" /></g><g transform="translate(98.00001, 60.59998) translate(25, 71)" id="r"><g id="s"><path d="M69.5 24.8 C69.5 41 72.2 39.3 73.9 43.9 C75.6 48.5 82.5 57.5 83.8 70.3 C85.1 83.1 84.4 97 80.4 108.7 C76.4 120.4 79.3 141.6 69.6 144.3 C69.3 144.4 37.7 147.4 26 144.3 C13.8 141.1 19.8 128.1 14.4 110.8 C9 93.5 8.1 84.8 8.4 70.4 C8.7 56 18.7 48.8 20.5 43.9 C22.3 39 24.6 37.2 24.6 24.8 C24.6 12.4 32.6 5.4 50.1 5.9 C55.4 5.9 69.5 8.4 69.5 24.8 z" id="t" fill="#453D37" /><g id="u"><path d="M8.7 40.5 C8.6 41.2 8.6 42.1 8.7 43.4 C8.9 47.3 7 51.1 5.3 55.1 C2.8 61.3 -0.1 70.5 -0.5 75.6 C-1.7 88.9 2 96.6 7.7 113.6 C13.4 130.6 13.9 141.5 16.6 144 C19.3 146.5 37.2 147 46.6 147.3 C56 147.6 76.8 145.7 78.6 144 C80.4 142.3 83.4 124.7 86.4 117.4 C89.4 110.1 93.5 86.6 93.8 78 C94.1 68.2 90.7 59.4 87.8 54.9 C86.1 52.3 81.6 45.5 84 40 C84.2 38.6 59.2 38.8 8.7 40.5 z" id="v" fill="#EFE9E6" /><path d="M9.3 30.9 C7.8 37.9 9.4 42.3 7.8 47.1 C9.2 48.8 16.3 61 21.5 66.4 C26.2 71.1 33 77.2 37.6 80.6 C42.2 84 44.6 86.3 46.9 86.4 C49.2 86.5 56.7 80.6 59.8 78.4 C62.8 76.1 69.6 70.5 75.4 62.4 C80.6 55.2 83.7 49.8 84.4 48.9 C85.9 46.9 84.6 45.8 84.5 37 C84.4 29.2 61.8 29.3 51.2 29.5 C40.6 29.7 12.2 25.2 9.3 30.9 z" id="w" fill="#46494D" /><path d="M11.6 21.9 C10.3 23.4 9.6 28.3 10.3 33.6 C11 38.9 18.6 50.6 25.6 58.1 C32.6 65.6 44.2 74.4 47.4 74.5 C49.9 74.6 60.4 67.3 68.8 59.7 C77.2 52.1 81.8 36.2 82.3 32.4 C83.1 27.2 82.5 22.7 80.9 21.2 C77.9 18.5 76.2 -0.6 46.5 -0.6 C17.2 -0.6 14.2 18.9 11.6 21.9 z" id="x" fill="#EFE9E6" /></g><path d="M10 30 C9.9 26.2 10.6 22.9 11.6 21.8 C14.2 18.8 17.3 -0.7 46.7 -0.7 C76.3 -0.6 78 18.5 81 21.2 C82.6 22.7 83.2 27.2 82.4 32.4 C82.4 32.7 82.3 33.1 82.2 33.5 C83.6 34.5 84.5 35.7 84.5 37.2 C84.6 45.9 85.9 47.1 84.5 49 C85.5 51.5 86.9 53.7 87.7 54.9 C90.6 59.4 94 68.2 93.7 78 C93.4 86.7 89.3 110.2 86.3 117.4 C83.3 124.6 80.3 142.3 78.5 144 C76.7 145.7 55.9 147.6 46.5 147.3 C37.1 147 19.2 146.5 16.5 144 C13.8 141.5 13.3 130.6 7.6 113.6 C1.9 96.6 -1.8 89 -0.6 75.6 C-0.2 70.5 2.7 61.3 5.2 55.1 C6.3 52.6 7.4 50.1 8.1 47.7 C7.9 47.5 7.8 47.3 7.7 47.2 C9.3 42.3 7.7 37.9 9.2 31 C9.5 30.6 9.7 30.3 10 30 z M11.4 30.6 C11.1 30.9 10.9 31.1 10.7 31.5 C9.3 38.2 10.8 42.5 9.3 47.1 C9.4 47.2 9.5 47.4 9.7 47.6 C9.1 50 8 52.4 6.9 54.8 C4.5 60.8 1.7 69.6 1.3 74.6 C0.1 87.3 3.6 94.7 9.1 111 C14.6 127.3 15.1 137.9 17.7 140.3 C20.3 142.7 37.5 143.2 46.6 143.5 C55.7 143.8 75.7 142 77.4 140.3 C79.1 138.7 82 121.7 84.9 114.7 C87.8 107.7 91.7 85 92 76.6 C92.3 67.2 89 58.7 86.2 54.3 C85.4 53.1 84.1 51.1 83.1 48.6 C84.5 46.7 83.2 45.6 83.1 37.2 C83.1 35.8 82.3 34.6 80.9 33.7 C81 33.3 81.1 32.9 81.1 32.6 C81.9 27.6 81.3 23.3 79.8 21.8 C76.9 19.3 75.3 0.9 46.7 0.9 C18.4 0.9 15.4 19.7 12.9 22.6 C11.9 23.9 11.3 27 11.4 30.6 z" opacity="0.15" id="y" /></g></g><g fill-rule="evenOdd" transform="translate(125.38, 170.12) scale(1.1, 0.9104969) translate(-129.4, -172) translate(102.6, 85.79998) translate(67, 148) scale(-1, 1) translate(-67, -148) translate(27, 86)" id="z"><g id="a1"><path d="M4.2 48.6 C1.9 35.9 3.3 31.3 7.6 21.8 C17.6 33.1 28.5 36.5 40.5 38.4 C50 37 61.7 33.9 72.4 21.8 C76.7 31.3 78.1 35.9 75.8 48.6 C71.9 70.1 71.8 67 68.8 80.9 C68.1 84 66.7 88.9 65.5 94.1 C64.1 100.2 51.8 95.1 52.8 79.4 C53.1 74.8 53.2 71 52.9 69 C52.1 62.5 47.9 60.6 39.8 56.8 C31.8 60.6 27.6 62.5 26.7 69 C26.4 71 26.5 74.8 26.8 79.4 C27.8 95.1 15.5 100.2 14.1 94.1 C12.9 88.9 11.5 84 10.8 80.9 C8.2 67.1 8 70.1 4.2 48.6 z" id="b1" fill="#FEFEFE" /><path d="M16.1 111.4 C16.7 107.8 16.1 103.2 15.3 98.5 C15 97 14.7 95.6 14.4 94.1 C14.4 94 14.4 94 14.4 93.9 C14.4 91.2 15 88.4 16 85.9 C16.2 85.5 16.7 85.3 17.1 85.5 C17.8 85.8 19.2 86.6 19.9 85.7 C20.7 84.8 21.6 79.4 22.2 76.1 C22.3 75.5 22.9 75.3 23.4 75.6 C24.3 76.2 26.4 76.8 26.9 78.2 C28.5 86.7 33.3 93.3 32.9 101.2 C32 100.2 31.4 99.1 30.4 98.2 C31.4 101.1 31.9 104.3 33 107.2 C31.8 107.2 30.3 106.3 29.3 104.3 C29.3 104.6 29.4 104.9 29.4 105.3 C30.5 108.9 31.7 111.2 31.1 115.1 C30.9 114.9 30.7 114.8 30.5 114.6 C30.9 118.6 31.2 121.2 31.1 121.4 C29.4 124.7 12.6 123.2 10.6 121.5 C10.9 117.7 11.2 114.5 16.1 111.4 z" id="c1" fill="#B76930" /><path d="M50.6 104.4 C49.6 106.3 48.1 107.3 46.9 107.3 C48 104.5 48.5 101.2 49.5 98.3 C48.5 99.2 47.9 100.3 47 101.3 C46.6 93.4 51.4 86.8 53 78.4 C53.5 76.9 55.6 76.3 56.5 75.7 C57 75.4 57.6 75.7 57.7 76.2 C58.4 79.5 59.3 84.9 60 85.8 C60.7 86.7 62.2 85.9 62.8 85.6 C63.2 85.4 63.7 85.6 63.9 86 C64.9 88.6 65.4 91.3 65.5 94 C65.5 94.1 65.5 94.1 65.5 94.2 C65.2 95.7 64.9 97.1 64.6 98.6 C63.7 103.3 63.2 107.9 63.8 111.5 C68.7 114.6 69 117.8 69.2 121.9 C67.2 123.5 50.4 125 48.7 121.8 C48.6 121.5 48.9 118.9 49.3 115 C49.1 115.2 48.9 115.3 48.7 115.5 C48 111.6 49.3 109.3 50.4 105.7 C50.5 105.1 50.5 104.8 50.6 104.4 z" id="d1" fill="#B76930" /><path d="M14.1 94.1 C12.9 88.9 11.5 84 10.8 80.9 C8.2 67.1 8 70.1 4.2 48.6 C1.9 35.9 3.3 31.3 7.6 21.8 C17.6 33.1 28.5 36.5 40.5 38.4 C50 37 61.7 33.9 72.4 21.8 C76.7 31.3 78.1 35.9 75.8 48.6 C71.9 70.1 71.8 67 68.8 80.9 C68.1 84 66.7 88.9 65.5 94.1 C65.2 95.7 64.9 97.1 64.6 98.6 C63.7 103.3 63.2 107.9 63.8 111.5 C68.7 114.6 69 117.8 69.2 121.9 C67.2 123.5 50.4 125 48.7 121.8 C48.6 121.5 48.9 118.9 49.3 115 C49.1 115.2 48.9 115.3 48.7 115.5 C48 111.6 49.3 109.3 50.4 105.7 C50.5 105.1 50.5 104.8 50.6 104.4 C49.6 106.3 48.1 107.3 46.9 107.3 C48 104.5 48.5 101.2 49.5 98.3 C48.5 99.2 47.9 100.3 47 101.3 C46.6 93.7 51 87.3 52.8 79.4 C53.1 74.8 53.2 71 52.9 69 C52.1 62.5 47.9 60.6 39.8 56.8 C31.8 60.6 27.6 62.5 26.7 69 C26.4 70.8 26.5 73.9 26.7 77.8 C26.8 77.9 26.8 78.1 26.9 78.2 C28.5 86.7 33.3 93.3 32.9 101.2 C32 100.2 31.4 99.1 30.4 98.2 C31.4 101.1 31.9 104.3 33 107.2 C31.8 107.2 30.3 106.3 29.3 104.3 C29.3 104.6 29.4 104.9 29.4 105.3 C30.5 108.9 31.7 111.2 31.1 115.1 C30.9 114.9 30.7 114.8 30.5 114.6 C30.9 118.6 31.2 121.2 31.1 121.4 C29.4 124.7 12.6 123.2 10.6 121.5 C10.9 117.7 11.2 114.5 16.1 111.4 C16.7 107.8 16.1 103.2 15.3 98.5 C15.1 97.4 14.9 96.4 14.7 95.4 C14.4 95 14.2 94.6 14.1 94.1 z M15.9 92.6 C16 93.1 16.2 93.5 16.5 93.8 C16.7 94.8 16.8 95.7 17 96.7 C17.8 101 17.6 109.1 17 112.5 C12.5 115.4 13.1 115.4 12.8 119 C14.7 120.6 27.9 121.5 29.5 118.4 C29.6 118.2 29.5 116.7 29.1 112.9 C29.3 113.1 30.3 113.2 30.5 113.4 C31 109.8 28.8 106.3 27.8 103 C27.8 102.6 29.1 102.4 29.1 102.2 C30.1 104 30.4 105.4 31.5 105.4 C30.4 102.7 30.1 99.2 29.1 96.5 C30.1 97.3 30.5 97.2 31.4 98.1 C31.8 90.8 27.8 87.5 26.3 79.7 C25.2 72.1 24.7 67.8 24.9 66.7 C25.7 60.7 33.1 57.4 40.5 53.9 C48.1 57.4 53.5 62.5 54.2 68.5 C54.5 70.4 54.2 76.8 53.9 81.1 C52.3 88.5 48.1 90.5 48.5 97.6 C49.3 96.6 50.2 97.3 51.1 96.5 C50.2 99.2 49.4 102.4 48.3 105 C49.5 105 50.7 103.3 51.6 101.6 C51.5 101.9 51.5 104.9 51.4 105.4 C50.4 108.8 48.9 109.5 49.5 113.1 C49.7 112.9 50.5 113.6 50.7 113.4 C50.3 117 50.2 119.6 50.3 119.9 C51.9 122.8 64.8 121.2 66.6 119.7 C66.5 115.9 66.6 115.5 62 112.6 C61.5 109.3 62.3 103.9 63.1 99.5 C63.4 98.1 64.3 93.5 64.5 92 C65.7 87.2 66.1 83.2 66.8 80.3 C69.6 67.4 69.6 70.3 73.3 50.3 C75.4 38.5 76.3 33 72.3 24.2 C62.3 35.4 49.3 39.5 40.5 40.8 C29.3 39.1 17.3 34.7 8 24.2 C4 33 4.6 38.5 6.7 50.3 C10.3 70.3 10.4 67.5 12.9 80.3 C13.5 83.2 14.8 87.8 15.9 92.6 z" opacity="0.15" id="e1" /><path d="M2.4 21.6 C3.5 17.3 6.2 13.6 8.9 9.2 C13.9 1.1 34.4 0.4 40 0.4 C45.6 0.4 66.1 1.1 71.1 9.2 C73.8 13.6 76.5 17.3 77.6 21.6 C80.2 28.1 80 35.8 76.9 42.1 C76.2 40.2 75.5 38.3 74.9 36.4 C74.7 36.7 74.5 37 74.3 37.4 C73.7 39.8 72.4 42 71.2 44.2 C69.9 46.6 68.6 49.2 68.7 51.9 C67.9 49.3 67.3 49.4 66.5 46.8 C64.5 54.7 60.5 57.5 57.6 64.1 C57 60.6 56.9 60.3 56.4 57.3 C56.1 57.6 55.9 57.8 55.6 58.1 C53.5 63.5 51.7 67.1 46.9 72.6 C47 71.1 46.7 69.5 46.4 68 C42.8 72.1 40.3 75.6 40.1 77.9 C39.8 75.8 37.6 72.6 34.5 68.8 C34.4 70 34.4 71.2 34.5 72.4 C29.7 66.9 26.8 63.4 24.6 58.1 C24.3 57.8 24 57.5 23.8 57.2 C23.2 60.5 22.9 62.8 22.3 66.3 C19.4 59.7 15.8 54.6 13.8 46.7 C13 49.3 12.4 49.2 11.6 51.8 C11.7 49.1 10.4 46.5 9.1 44.1 C7.9 41.9 6.6 39.7 6 37.3 C5.8 37 5.6 36.6 5.4 36.3 C4.7 38.2 4 40.1 3.4 42 C-0.1 35.8 -0.2 28.1 2.4 21.6 z" id="f1" fill="#B76930" /><path d="M23.2 1.7 C30 0.2 37 0.4 40 0.4 C43 0.4 50 0.2 56.8 1.7 C62.7 4.6 60.2 19.3 59 23 C58.9 23.5 58.7 23.9 58.6 24.3 C57.3 32.5 53.1 40 52.4 39.8 C51.5 39.5 50.6 36.3 50.4 34 C50.5 38.8 46.3 46.6 45.8 46.5 C45.4 46.4 44.3 45.8 43.6 44.8 C43.3 45.9 43.1 46.8 42.8 47.7 C41.2 52.2 41.7 55.5 41.7 55.5 C41.7 55.5 38.9 54 37.2 47.7 C37 46.8 36.6 45.9 36.4 44.8 C35.6 45.7 34.5 46.4 34.2 46.5 C33.6 46.6 29.4 38.8 29.6 34 C29.4 36.3 28.5 39.6 27.6 39.8 C26.9 40 22.7 32.4 21.4 24.3 C21.3 23.9 21.1 23.5 21 23 C19.8 19.3 17.3 4.5 23.2 1.7 z" id="g1" fill="#D8D8D8" /><path d="M22.5 2.1 C22.7 1.9 23 1.8 23.2 1.7 C30 0.2 37 0.4 40 0.4 C43 0.4 50 0.2 56.8 1.7 C57 1.8 57.3 1.9 57.5 2.1 C63.3 3.3 68.8 5.5 71.1 9.2 C73.8 13.6 76.5 17.3 77.6 21.6 C80.2 28.1 80 35.8 76.9 42.1 C76.2 40.2 75.5 38.3 74.9 36.4 C74.7 36.7 74.5 37 74.3 37.4 C73.7 39.8 72.4 42 71.2 44.2 C69.9 46.6 68.6 49.2 68.7 51.9 C67.9 49.3 67.3 49.4 66.5 46.8 C64.5 54.7 60.5 57.5 57.6 64.1 C57 60.6 56.9 60.3 56.4 57.3 L55.6 58.1 C53.5 63.5 51.7 67.1 46.9 72.6 C47 71.1 46.7 69.5 46.4 68 C42.8 72.1 40.3 75.6 40.1 77.9 C39.8 75.8 37.6 72.6 34.5 68.8 C34.4 70 34.4 71.2 34.5 72.4 C29.7 66.9 26.8 63.4 24.6 58.1 C24.3 57.8 24 57.5 23.8 57.2 C23.2 60.5 22.9 62.8 22.3 66.3 C19.4 59.7 15.8 54.6 13.8 46.7 C13 49.3 12.4 49.2 11.6 51.8 C11.7 49.1 10.4 46.5 9.1 44.1 C7.9 41.9 6.6 39.7 6 37.3 C5.8 37 5.6 36.6 5.4 36.3 C4.7 38.2 4 40.1 3.4 42 C-0.1 35.8 -0.2 28.1 2.4 21.6 C3.5 17.3 6.2 13.6 8.9 9.2 C11.2 5.5 16.7 3.4 22.5 2.1 z M23.6 2.9 C18.1 4.1 12.9 6.1 10.7 9.6 C8.2 13.7 5 16.5 3.9 20.5 C1.5 26.7 -0.2 32.4 3.1 38.2 C3.7 36.4 5.9 34.1 6.6 32.3 C6.8 32.5 7.8 35.7 8 36 C8.6 38.3 9.6 39.8 10.7 41.8 C12 44.1 12 44.9 11.9 47.5 C12.6 45 13.5 44.9 14.3 42.5 C16.2 49.9 19 56 21.7 62.2 C22.3 58.9 22 55.1 22.6 52 C22.8 52.2 25.2 55.3 25.5 55.6 C27.6 60.6 28.7 63.4 33.2 68.6 C33.1 67.5 33.7 65.8 33.8 64.7 C36.7 68.3 39.8 72.2 40.1 74.2 C40.3 72 43.1 67.1 46.5 63.2 C46.8 64.7 48.3 67.2 48.2 68.6 C52.7 63.4 52.7 60.7 54.7 55.6 L57 53.1 C57.5 55.9 57.6 56.7 58.2 60 C60.9 53.8 64.5 50.6 66.4 43.2 C67.1 45.7 67.7 45.6 68.5 48.1 C68.4 45.5 68.6 43.8 69.9 41.6 C71 39.5 71.7 38.4 72.3 36.1 C72.4 35.7 74.6 32.1 74.8 31.8 C75.4 33.6 76.2 36.4 76.9 38.2 C79.8 32.3 77.7 25.3 75.3 19.2 C74.3 15.2 71.8 13.7 69.3 9.6 C67.1 6.1 61.9 4.1 56.4 2.9 C56.2 2.8 56 2.6 55.8 2.5 C49.4 1.1 42.7 1 39.9 1 C37.1 1 30.6 1.1 24.2 2.5 C24 2.6 23.8 2.8 23.6 2.9 z" opacity="0.15" id="h1" /></g></g></g><g id="i1"><g transform="translate(140.7, 97.69997) scale(0.8) translate(-140.7, -110.7) translate(93.1, 69.59997) translate(23, 0)" id="j1"><g transform="translate(18.79612, 27.5) scale(-1, 1) translate(-18.79612, -27.5) translate(0.796117, 0)" id="k1"><path d="M6.1 38.9 C10.1 42.5 15.4 46.7 17.9 49.8 C20.7 53.3 26 54.1 28.3 51.3 C30.6 48.5 32.3 48.1 32.7 42.7 C33.1 37.3 36.2 20.2 36 15.4 C35.8 10.6 34.5 0.6 32.8 0.1 C31.1 -0.4 26.4 0.6 25.4 1.5 C24.4 2.4 2.2 26.3 1.3 28.2 C0.3 30.1 2.1 35.2 6.1 38.9 z" id="l1" fill="#9B5526" /><path d="M6.1 38.9 C2.1 35.2 0.3 30.1 1.3 28.2 C2.2 26.3 24.4 2.4 25.4 1.5 C26.4 0.6 31.1 -0.4 32.8 0.1 C34.5 0.6 35.7 10.6 35.9 15.3 C36.1 20 33 37.3 32.6 42.7 C32.2 48.1 30.5 48.5 28.2 51.3 C25.9 54.1 20.6 53.3 17.8 49.8 C15.4 46.7 10.1 42.5 6.1 38.9 z M7.7 37.7 C11.4 41.1 16.3 45.1 18.6 48 C21.2 51.3 26.1 52.1 28.2 49.4 C30.3 46.7 31.9 46.4 32.3 41.3 C32.7 36.2 35.5 20.1 35.4 15.6 C35.3 11.1 33.9 1.6 32.4 1.1 C30.8 0.6 26.5 1.6 25.6 2.4 C24.7 3.2 4.1 25.8 3.3 27.6 C2.3 29.4 4 34.2 7.7 37.7 z" opacity="0.15" id="m1" /><path d="M8.1 28.2 C7.5 24.8 23.1 7.3 24.9 5.4 C26.7 3.5 28.4 3 30.8 2.9 C33.2 2.8 34.6 13 33.6 18.7 C32.6 24.4 30.3 45.7 27.5 46.9 C24.7 48.1 23.9 45.6 16.5 36.4 C13.2 32.2 8.8 31.5 8.1 28.2 z" id="n1" fill="#B76930" /><path d="M12.2 34 C17.3 30.7 20.4 27.8 21.5 25.3 C22.1 24 23.6 27.6 23.7 32.2 C23.8 34.2 22.7 37.6 20.4 42.4 L12.2 34 z" id="o1" fill="#9B5526" /></g></g><g transform="translate(198.7, 97.69997) scale(0.8) translate(-198.7, -110.7) translate(103.8, 69.59997) translate(102.4, 27) scale(-1, 1) translate(-102.4, -27) translate(83.40002, 0)" id="p1"><g transform="translate(18.70388, 27) scale(-1, 1) translate(-18.70388, -27) translate(0.203883, 0)" id="q1"><path d="M4.4 39.1 C8.4 42.7 13.1 47.2 16.8 49.8 C20.4 52.4 24.9 54.1 27.2 51.3 C29.5 48.5 31.2 48.1 31.6 42.7 C32 37.3 35.1 20.2 34.9 15.4 C34.7 10.6 33.4 0.6 31.7 0.1 C30 -0.4 25.3 0.6 24.3 1.5 C23.3 2.4 1.1 26.3 0.2 28.2 C-0.8 30.1 0.4 35.4 4.4 39.1 z" id="r1" fill="#9B5526" /><path d="M4.4 39.1 C0.4 35.4 -0.8 30.1 0.2 28.2 C1.1 26.3 23.3 2.4 24.3 1.5 C25.3 0.6 30 -0.4 31.7 0.1 C33.4 0.6 34.6 10.6 34.8 15.3 C35 20 31.9 37.2 31.5 42.6 C31.1 48 29.4 48.4 27.1 51.2 C24.8 54 20.3 52.3 16.7 49.7 C13 47.2 8.4 42.7 4.4 39.1 z M6.1 37.9 C9.8 41.3 14.1 45.5 17.5 48 C20.8 50.5 25 52.1 27.1 49.4 C29.2 46.7 30.8 46.4 31.2 41.3 C31.6 36.2 34.4 20.1 34.2 15.6 C33.9 11 32.8 1.6 31.3 1.1 C29.7 0.6 25.4 1.6 24.5 2.4 C23.5 3.3 3 25.8 2.2 27.6 C1.3 29.4 2.4 34.4 6.1 37.9 z" opacity="0.15" id="s1" /><path d="M7 28.2 C6.4 24.8 22 7.3 23.8 5.4 C25.6 3.5 27.3 3 29.7 2.9 C32.1 2.8 33.5 13 32.5 18.7 C31.5 24.4 29.2 45.7 26.4 46.9 C23.6 48.1 22.8 45.6 15.4 36.4 C12 32.2 7.7 31.5 7 28.2 z" id="t1" fill="#B76930" /><path d="M11 34 C16.1 30.7 19.2 27.8 20.3 25.3 C20.9 24 22.4 27.6 22.5 32.2 C22.6 34.2 21.5 37.6 19.2 42.4 L11 34 z" id="u1" fill="#9B5526" /></g></g><g transform="translate(96.60001, 69.59997) translate(28, 0)" id="v1"><g id="w1"><g opacity="0.4" transform="translate(11, 12)" id="x1"><path d="M0 27.6 C0 38.8 2 46.5 7.2 51.6 C12.4 56.7 15.8 64.8 15.7 71.6 C15.6 78.4 15.2 85 17.9 89 C20.6 93 23.1 95.2 26.9 97 C28.6 97.8 31.4 96.2 34.5 96.2 C36.4 96.2 39.2 97.6 41.1 97.1 C46.1 95.8 49 90.1 50.2 88 C51.4 85.9 52.3 76.7 52.4 71.6 C52.5 66.5 55.4 57.5 57.9 54.2 C60.4 50.9 70 43.6 70 30.2 C70 16.8 58.1 0 33.8 0.3 C9.5 0.6 0 16.4 0 27.6 z" stroke="#000000" stroke-width="2.5" opacity="0.4" id="y1" /></g><g transform="translate(11, 11)" id="z1"><path d="M0 27.6 C0 38.8 1.4 48 6.6 53.1 C11.8 58.2 15.8 64.8 15.7 71.6 C15.6 78.4 15.9 85.2 18.6 89.2 C21.3 93.2 23.1 95.2 26.9 97 C28.6 97.8 31 97.2 34.1 97.2 C36 97.2 39.2 97.6 41.1 97.1 C46.1 95.8 48.3 90.6 49.5 88.5 C50.7 86.4 52.3 76.7 52.4 71.6 C52.5 66.5 56 58.5 58.5 55.2 C61 51.9 70 43.6 70 30.2 C70 16.8 58.1 0 33.8 0.3 C9.5 0.6 0 16.4 0 27.6 z" id="a2" fill="#B76930" /></g><g id="b2"><g opacity="0.15" transform="translate(0, 1)" id="c2"><path d="M13.2 15 C13.3 15 13.4 14.9 13.4 14.9 C13.7 14.3 13.6 13 13.9 12.2 C14.1 11.5 14.8 11.6 15.5 11.9 C15.6 11.8 15.6 11.7 15.7 11.5 C16.3 10.5 16.4 10.9 17.1 11 C17 10.4 16.4 10.6 16.9 9.4 C17.1 8.7 17.6 8.5 18.1 8.4 C18.3 7.5 19.7 8.3 20.6 8.4 C21.3 6.5 20.1 7.5 20.6 6 C21.1 4.5 22.6 5.4 24.1 5.7 C25.8 6 26 3.9 26.8 3.4 C27.6 2.9 28.2 4.3 29.5 4 C30.8 3.7 29.2 2.3 30 2.4 C30.6 1.8 33.2 3.5 32.5 2.8 C31.8 2.1 33 1.1 34 1.1 C35 1.1 35.7 2.4 36.7 2.3 C37.7 2.2 37.2 1.3 38.4 0.8 C39.5 0.2 40.6 3.2 41.4 0.5 C42.6 0.3 44.1 0.7 45.7 1.3 C46.3 1.5 47.5 2.5 47.8 2.6 C48.9 2.8 49.1 0.3 50.9 0.8 C52.7 1.3 52.5 3.6 53.9 3.9 C55.3 4.2 56.5 2 57.3 2.3 C58.1 2.6 56.8 4.5 58 5 C59.2 5.5 60.7 4.1 62 4.3 C63.4 4.5 62.5 5.7 62.7 6.4 C64.3 5.8 64.4 5.5 65.4 4 C67.5 6.5 66.3 8 66.4 8.7 C67.5 8.5 67.7 7.4 68.7 7.3 C68.8 7.2 68.8 7.1 68.9 7 C69 7.1 69 7.2 69.1 7.3 C69.3 7.3 69.6 7.4 69.9 7.5 C72 8.4 70.9 10.8 71.3 11.5 C71.9 10.9 72.5 10.3 74.1 11 C75.8 11.7 75.7 13.3 75.7 14.4 C76.2 14.2 77.3 13.5 77.7 14.4 C77.9 14.8 77.8 15.3 77.7 15.8 C78.2 15.7 78.6 15.6 78.8 15.8 C80.2 16.7 80.3 18.5 80.6 19 C80.9 19.5 82.7 17.7 83.3 19 C83.9 20.3 82.3 22.8 82.3 22.8 C83.5 22.9 85.2 23.2 86.2 24.8 C87.7 27.1 85.9 28.5 85.2 29.3 C84.5 30 83.3 30.5 83.3 30.5 C84.3 31.3 86.6 33.4 86.8 34.1 C87 35.2 86.3 36.9 84.6 36.9 C86.4 38.5 87.3 37.7 87.3 40.2 C87.3 41.8 87 42.8 86.2 43.1 C87.3 45.5 85.1 46.2 82.3 47.7 C84.4 48.2 86.8 48.8 84 50.6 C81.2 52.4 82.8 50.6 82.8 51.3 C82.8 52 86.9 52.2 84 53 C81.1 53.8 79.5 51.9 77.7 52 C75.9 52.1 78.2 54.8 78.2 54.8 C79.6 55 82 55.8 79.3 55.5 C76.6 55.2 77 57 76.6 57.1 C77.3 58 79.7 58.8 78 59.4 C76.3 60.1 73.4 58 70.7 57.4 C68 56.8 69.3 58.1 69.3 58.1 C70.8 59.3 70.9 60.8 69.9 60.8 C68.4 60.9 65.5 60.2 64.6 59.3 C63.7 58.4 60.3 52.5 57.9 52.1 C55.5 51.7 55 56.8 53.9 57 C53.2 57.1 52.6 56.3 52.2 54.6 C52 56.2 51.7 56.5 50.9 56.5 C49.7 56.5 49.9 55.7 48.6 55.3 C47.3 54.9 48.8 58.3 46.9 58.1 C44.1 58.1 44.8 55.8 43.4 53.9 C41.7 52.5 40.7 55.7 40.6 57.1 C40.5 58.5 38.9 56.6 38.2 54.8 C37.6 53.1 37 55 35.3 56.7 C33.6 58.4 35 53.9 34.7 52.9 C34.4 51.9 34 54.2 32.9 55.6 C31.7 57 30.6 54.6 28.6 54.6 C26.6 54.6 27.9 52.4 26.2 53.1 C25 53.5 23.4 55 21.3 57 C19.2 59 17.8 61.5 16.2 62.3 C13.8 63.7 10.9 63.7 9.7 63.4 C7.8 62.9 6.7 61.4 5.9 60 L8.9 60 C7.2 58.9 5.3 57.4 3.8 55.7 C3.4 55.3 1.5 54.1 1.5 53.2 C1.5 51.8 4.6 52.9 4.4 50.9 C4.3 48.9 1.8 47.7 3 47 C4.2 46.3 0.4 41.6 0.4 39.7 C1.9 40 3.6 39.7 3.5 39.4 C2 37.5 1.2 36 0.8 34.5 C0.5 33 2.4 33.7 3.6 33 C2.9 32.3 1.9 30.3 2.8 29 C3.7 27.7 5.5 27.8 6.4 27.4 C5.7 26.6 5.4 25.4 5.6 23.8 C5.9 21.4 7 20 8.9 19.5 C10.8 18.9 10.2 19 10.2 18.8 C10.2 18.7 10.4 17.2 11.1 16 C11.7 15 11.9 15.3 12.5 15.4 C12.7 15.2 12.9 15.1 13.2 15 z" stroke="#000000" stroke-width="3" opacity="0.15" id="d2" /></g><path d="M21 57.7 C18.9 59.7 17.8 60.8 16.2 61.6 C13.8 63 11.2 63 10 62.7 C8.1 62.2 6.7 61.2 5.9 59.8 C7.7 59.8 8.7 59.8 8.9 59.8 C7.2 58.7 5.3 57.2 3.8 55.5 C3.4 55.1 2.7 54.1 2.7 53.2 C2.7 51.8 4.6 52.7 4.4 50.7 C4.3 48.7 1.5 47.4 2.7 46.7 C3.9 46 1.5 41.1 1.5 39.2 C3 39.5 3.7 39.5 3.6 39.2 C2 37.5 1.3 36.3 1.5 35.4 C1.7 34.5 2.4 33.7 3.6 33 C2.9 32.3 2.9 31.3 3.8 30 C4.7 28.7 5.5 27.8 6.4 27.4 C5.7 26.6 5.4 25.4 5.6 23.8 C5.9 21.4 6.2 20.4 8.1 19.9 C10 19.3 9.7 19.3 9.7 19.1 C9.7 19 10.4 17.1 11.1 15.9 C11.8 14.7 11.9 15.3 12.9 15.3 C13.9 15.3 13.5 13.3 13.9 12.2 C14.2 11.1 15.8 12.1 16.9 12.2 C17.7 10 16.3 11.1 16.9 9.4 C17.5 7.7 19.2 8.6 21 9 C22.8 9.4 22.9 7 23.9 6.4 C24.9 5.8 25.5 7.4 27.1 7.1 C28.7 6.8 26.8 5.1 27.7 5.3 C28.4 4.6 31.5 6.6 30.7 5.8 C29.9 5 31.3 3.9 32.5 3.9 C33.7 3.9 34.4 5.4 35.7 5.3 C36.9 5.2 36.3 4.2 37.6 3.5 C38.9 2.8 40.2 6.3 41.1 3.1 C42.5 2.9 44.3 3.3 46.1 4.1 C46.8 4.4 48.2 5.5 48.5 5.6 C49.8 5.8 50 2.9 52.1 3.6 C54.2 4.3 54 6.7 55.6 7 C57.2 7.3 58.6 4.8 59.6 5.2 C60.6 5.6 58.8 7.6 60.2 8.2 C61.6 8.8 63.3 7.1 64.9 7.3 C66.5 7.5 65.5 8.9 65.8 9.8 C67.6 9.1 67.8 8.8 68.9 7 C71.3 10 70 11.6 70 12.4 C71.6 12.1 71.5 9.9 74.1 11 C76.7 12.1 75.2 15.1 75.9 15.8 C76.6 16.5 78.2 15.4 78.8 15.8 C80.2 16.7 80.3 18.5 80.6 19 C80.9 19.5 82.7 17.7 83.3 19 C83.9 20.3 82.3 22.8 82.3 22.8 C83.5 22.9 84.6 23.7 85.6 25.3 C87.1 27.6 86.7 29.7 86 30.5 C85.3 31.2 85 31.8 85 31.8 C86 32.6 86.6 33.4 86.8 34.1 C87 35.2 86.3 36.9 84.6 36.9 C86.4 38.5 87.3 37.7 87.3 40.2 C87.3 41.8 87 42.8 86.2 43.1 C87.3 45.5 86.5 47.4 83.7 48.9 C85.8 49.4 85.1 49.7 84 50.6 C82.9 51.5 82.8 50.6 82.8 51.3 C82.8 52 84.6 52.1 84 53 C83.4 53.9 81.8 54.3 80 54.4 C78.2 54.5 78.2 54.8 78.2 54.8 C79.6 55 80.1 55.6 79.7 56.4 C79.1 57.6 77 57 76.6 57.1 C77.3 58 79.1 58.4 77.4 59 C75.7 59.7 74.3 59.6 71.6 59 C68.9 58.4 69.3 58.1 69.3 58.1 C70.8 59.3 71 60 70 60 C68.5 60.1 65.8 59.2 64.9 58.3 C64 57.4 60.4 54.3 58 53.9 C55.6 53.5 55 56.7 53.9 56.9 C53.2 57 52.6 56.2 52.2 54.5 C52 56.1 51.5 56.9 50.7 56.9 C49.5 56.9 49.9 55.6 48.6 55.2 C47.3 54.8 50.5 57.6 47.7 57.6 C44.9 57.6 46 55.1 43.3 54.9 C40.7 54.7 40.7 55.6 40.6 57 C40.5 58.4 38.6 58.3 37.9 56.5 C37.3 54.8 38.2 54.8 36.5 56.5 C34.8 58.2 34.9 56.5 34.6 55.5 C34.3 54.5 34 54.1 32.9 55.5 C31.7 56.9 30.6 54.5 28.6 54.5 C26.6 54.5 26.6 54.5 24.9 55.2 C23.7 55.6 23.1 55.7 21 57.7 z" id="e2" fill="#9B5526" /><path d="M8.6 26.9 C8.8 26.7 9.1 26.5 9.4 26.3 C8.8 25.7 8.8 24.8 9.6 23.7 C10.4 22.6 11.1 21.8 11.8 21.5 C11.2 20.8 10.9 19.7 11.1 18.4 C11.3 16.3 11.6 15.5 13.2 15 C14.8 14.5 14.5 14.5 14.5 14.3 C14.5 14.2 15.1 12.6 15.7 11.5 C16.3 10.4 16.4 11 17.3 11 C18.2 11 17.9 9.3 18.1 8.4 C18.3 7.5 19.7 8.3 20.6 8.4 C21.3 6.5 20.1 7.5 20.6 6 C21.1 4.5 22.6 5.4 24.1 5.7 C25.8 6 26 3.9 26.8 3.4 C27.6 2.9 28.2 4.3 29.5 4 C30.8 3.7 29.2 2.3 30 2.4 C30.6 1.8 33.2 3.5 32.5 2.8 C31.8 2.1 33 1.1 34 1.1 C35 1.1 35.7 2.4 36.7 2.3 C37.7 2.2 37.2 1.3 38.4 0.8 C39.5 0.2 40.6 3.2 41.4 0.5 C42.6 0.3 44.1 0.7 45.7 1.3 C46.3 1.5 47.5 2.5 47.8 2.6 C48.9 2.8 49.1 0.3 50.9 0.8 C52.7 1.3 52.5 3.6 53.9 3.9 C55.3 4.2 56.5 2 57.3 2.3 C58.1 2.6 56.8 4.5 58 5 C59.2 5.5 60.7 4.1 62 4.3 C63.4 4.5 62.5 5.7 62.7 6.4 C64.3 5.8 64.4 5.5 65.4 4 C67.5 6.5 66.3 8 66.4 8.7 C67.8 8.5 67.7 6.6 69.9 7.5 C72.1 8.4 70.8 11 71.4 11.6 C72 12.2 73.4 11.3 73.9 11.6 C75.1 12.4 75.2 14 75.4 14.4 C75.6 14.8 77.2 13.3 77.7 14.4 C78.2 15.5 76.9 17.6 76.9 17.6 C78 17.7 78.9 18.4 79.8 19.8 C80 20.1 80.1 20.4 80.2 20.6 C79.9 20.8 79.5 21 79 21 C79.7 21.6 80.3 21.8 80.7 22.1 C80.8 23 80.5 23.8 80.2 24.1 C79.6 24.7 79.4 25.2 79.4 25.2 C79.9 25.6 80.2 25.9 80.5 26.3 C80.8 26.9 80.9 27.5 80.9 28.1 C80.7 28.9 80.1 29.7 79.1 29.6 C79.4 29.9 79.7 30 79.9 30.2 C79.5 30.6 79 31 78.3 31.3 C80.1 31.7 79.5 32 78.5 32.7 C77.6 33.5 77.5 32.7 77.5 33.3 C77.5 33.9 79.1 34 78.5 34.8 C78 35.6 76.6 35.9 75 36 C73.4 36.1 73.4 36.3 73.4 36.3 C74.6 36.5 75.1 37 74.7 37.7 C74.2 38.8 71.7 36.7 71.4 36.9 C72 37.7 72.9 37.6 71.4 38.1 C69.9 38.7 70.2 38.8 67.9 38.3 C65.6 37.8 65.4 37.7 65.4 37.7 C65.4 39.2 65 39.9 64.1 40 C62.9 40.1 61 38.9 60.2 38.2 C59.4 37.5 58.1 38.6 56.1 38.2 C54.1 37.8 55 38.9 54 39 C53.4 39.1 52.8 39.1 52.4 39 C52.2 39.7 51.7 40 51 40 C50 40 50.3 39.3 49.2 39 C48.1 38.7 50.3 40 47.9 40 C45.5 40 46.6 38.5 44.4 38.3 C42.1 38.1 42.5 37.8 42.4 38.9 C42.3 40.1 40.1 40.4 39.6 38.9 C39.1 37.4 39.1 36.2 37.7 37.7 C36.2 39.2 37.1 39.8 36.9 38.9 C36.7 38.1 35.7 37.7 34.7 38.9 C33.7 40.1 32.9 39.9 31.2 39.9 C29.5 39.9 29.2 37.7 27.8 38.2 C26.7 38.7 26.2 37.1 24.4 38.8 C22.6 40.5 22.2 40 20.9 40.7 C18.8 41.8 19.4 41.6 18.4 41.4 C18.1 41.3 16.8 40.9 16.6 40.7 C15.8 40.4 15.6 40.1 16 39.8 C16.2 38.3 16.4 37.5 16.6 37.5 C15.1 36.5 11.1 38.3 9.8 36.9 C9.5 36.5 8.9 35.7 8.9 34.9 C8.9 33.7 10.5 34.5 10.4 32.8 C10.3 31 7.9 30 8.9 29.4 C9.2 29.2 8.9 28.1 8.6 26.9 z" id="f2" fill="#824821" /></g></g></g><g id="g2"><g transform="translate(96.50001, 48.59997) translate(49, 49)" id="h2"><path d="M4.9 47.3 C3.6 44.4 4 38.4 6.2 35.6 C7.4 34.1 9.4 31.1 12.6 29.9 C15.5 28.7 19.3 29.2 23.6 29.2 C27.7 29.2 29.8 28.7 32.4 29.6 C35.4 30.7 38.4 33.2 39.9 35.6 C42.6 39.9 42.1 45.1 40.5 47.3 C39.8 48.3 37.6 51.5 35.2 51.8 C32.2 52.2 28.5 50.1 24.2 50.1 C20.6 50.1 16.7 51.9 13.2 51.8 C9 51.6 5.6 48.9 4.9 47.3 z" id="i2" fill="#EFE9E6" /><path d="M14.9 29.3 C14.4 29.4 13.9 29.5 13.5 29.7 C10.6 30.9 8.7 33.6 7.6 35 C5.5 37.6 5.2 43.1 6.4 45.8 C7 47.3 10.2 49.8 14 49.9 C17.2 50 20.9 48.4 24.1 48.4 C28.1 48.4 31.5 50.3 34.3 49.9 C36.5 49.6 38.5 46.7 39.1 45.8 C40.5 43.7 41 39 38.5 35 C37.2 32.9 34.4 30.5 31.6 29.5 C31.3 29.4 30.9 29.3 30.6 29.2 C31.2 29.3 31.8 29.4 32.4 29.6 C35.4 30.7 38.4 33.2 39.9 35.6 C42.6 39.9 42.1 45.1 40.5 47.3 C39.8 48.3 37.6 51.5 35.2 51.8 C32.2 52.2 28.5 50.1 24.2 50.1 C20.6 50.1 16.7 51.9 13.2 51.8 C9 51.7 5.6 48.9 4.9 47.3 C3.6 44.4 4 38.4 6.2 35.6 C7.4 34.1 9.4 31.1 12.6 29.9 C13.3 29.6 14.1 29.4 14.9 29.3 z" opacity="0.15" id="j2" /><g opacity="0.4" transform="translate(6, 34)" id="k2"><circle cx="29.5" cy="11.5" r="1" opacity="0.4" id="l2" /><circle cx="24.5" cy="12.5" r="1" opacity="0.4" id="m2" /><circle cx="5.5" cy="11.5" r="1" opacity="0.4" id="n2" /><circle cx="10.5" cy="11.5" r="1" opacity="0.4" id="o2" /><circle cx="4.5" cy="4.5" r="1" opacity="0.4" id="p2" /><circle cx="32.5" cy="7.5" r="1" opacity="0.4" id="q2" /><circle cx="27.5" cy="8.5" r="1" opacity="0.4" id="r2" /><circle cx="6.5" cy="7.5" r="1" opacity="0.4" id="s2" /><circle cx="2.5" cy="8.5" r="1" opacity="0.4" id="t2" /><circle cx="30.5" cy="4.5" r="1" opacity="0.4" id="u2" /></g><path d="M16.9 41.4 C18.5 43.3 19.1 45.2 18.8 47.1 C18.5 49 17.2 50.4 15.1 51.4 C16.4 51.1 17.3 50.8 17.9 50.7 C19 50.4 19.9 50 20.8 49.9 C21.7 49.7 22.6 49.7 23.3 49.7 C24.2 49.7 25 49.8 26.1 50 C26.7 50.1 27.3 50.4 28.4 50.7 C28.9 50.8 29.8 51 31 51.3 C28.9 50.1 27.7 48.7 27.5 47.2 C27.3 45.7 27.9 43.8 29.4 41.4 C26.7 42.9 24.7 43.7 23.4 43.7 C22.1 43.7 19.8 42.9 16.9 41.4 z" opacity="0.15" id="v2" /></g><g transform="translate(169.6, 148.7) scale(1.2) translate(-169.6, -148.7) translate(102.6, 62.89997) translate(58, 77)" id="w2"><g id="x2"><path d="M9.1 8.1 C9.1 8.1 5.5 10.3 3.5 11.1 C4.6 12 6.9 13.1 9.1 13.1 C11.3 13.1 13.5 12 14.7 11.1 C12.7 10.2 9.1 8.1 9.1 8.1 z" id="y2" fill="#CE5253" /><path d="M18.5 13.8 C18.5 13.8 18.4 13.7 18.2 13.4 C18 13.2 17.7 12.8 17.4 12.5 C16.7 11.7 15.7 10.8 14.5 10 C13.4 9.2 12.1 8.4 11.1 8 C10.8 7.9 10.6 7.8 10.4 7.7 C10.3 7.7 10.2 7.7 10.1 7.6 L10.1 1.9 C10.1 1.3 9.7 0.9 9.1 0.9 C8.5 0.9 8.1 1.3 8.1 1.9 L8.1 7.6 C8 7.6 7.9 7.7 7.9 7.7 C7.7 7.8 7.4 7.9 7.2 8 C6.2 8.5 5 9.2 4 10 C2.9 10.8 2 11.8 1.4 12.6 C1.1 13 0.8 13.3 0.7 13.5 C0.5 13.7 0.4 13.9 0.4 13.9 C0.3 14.1 0.3 14.4 0.4 14.6 C0.6 14.8 0.9 14.8 1.1 14.6 C1.1 14.6 1.2 14.5 1.4 14.3 C1.6 14.1 1.9 13.9 2.3 13.6 C3 13 4 12.3 5.1 11.7 C6.2 11.1 7.3 10.7 8.1 10.5 C8.3 10.5 8.5 10.4 8.6 10.4 C8.6 10.4 8.6 10.4 8.7 10.4 C8.8 10.5 9 10.5 9.2 10.5 C9.4 10.5 9.5 10.4 9.7 10.4 L9.8 10.4 C10 10.4 10.2 10.5 10.4 10.5 C11.3 10.7 12.5 11.1 13.6 11.7 C14.8 12.3 15.8 13 16.6 13.5 C17 13.8 17.3 14 17.5 14.2 C17.7 14.4 17.9 14.5 17.9 14.5 C18.1 14.7 18.4 14.7 18.6 14.5 C18.7 14.3 18.7 14 18.5 13.8 z" id="z2" fill="#282523" /></g></g><g transform="translate(169.6, 135.7) scale(0.8) translate(-169.6, -135.7) translate(108, 61.49997) translate(50, 68)" id="a3"><g id="b3"><path d="M10.5 0.5 C14.7 0.5 20.6 1.4 20.7 4.9 C20.8 8.4 20.2 12.6 16 15 C11.8 17.4 7.7 17 4.1 14 C0.9 10.3 0.6 8.5 0.6 5 C0.6 1.5 6.1 0.5 10.5 0.5 z" id="c3" fill="#424242" /><path d="M4.6 2.8 C4.6 4 8.1 4.4 10.6 4.5 C13.1 4.6 15.3 4.3 16.7 3.7 C18.1 3.2 18.6 1.5 13 1.5 C7.5 1.5 4.6 1.6 4.6 2.8 z" id="d3" fill="#FFF" /></g></g><g transform="translate(107.2, 76.09996) translate(28, 21)" id="e3"><g id="f3"><path d="M6.7 17.4 C6.7 13.9 13.4 9.9 16.6 8.5 C19.8 7.1 25.4 8 26.2 9.7 C27 11.5 27 15.4 25.6 17.9 C24.6 19.6 20.1 23.8 16.6 25.6 C11 28.4 6.6 24.1 6.7 17.4 z" id="g3" fill="#293C49" /><ellipse cx="19" cy="14.4" rx="5.3" ry="4.4" id="h3" fill="#46494D" /><ellipse cx="19.6" cy="14.4" rx="4.2" ry="3.5" id="i3" fill="#282421" /><path d="M7.8 11.9 C5.5 11.7 3.2 11.5 0.9 11.4 C1.5 9.3 3 7.5 4.9 6.6 C6.8 5.7 9.1 5.7 11 6.7 C9.1 5.2 7.2 3.8 5.2 2.3 C9.6 0.6 14.1 0.2 17.7 3.5 C16.9 1.9 16.9 1.9 16.1 0.4 C20 0.9 25.7 4.9 26.4 11.2 C22.8 8.6 18.8 8.9 15 10.3 C11.2 11.7 7.7 14.8 5.9 18.6 C5.7 17 6.3 12.6 7.8 11.9 z" id="j3" fill="#46494D" /><path d="M7.8 11.9 C5.5 11.7 3.2 11.5 0.9 11.4 C1.5 9.3 3 7.5 4.9 6.6 C6.8 5.7 9.1 5.7 11 6.7 C9.1 5.2 7.2 3.8 5.2 2.3 C9.6 0.6 14.1 0.2 17.7 3.5 C16.9 1.9 16.9 1.9 16.1 0.4 C20 0.9 25.7 4.9 26.4 11.2 C22.8 8.6 18.8 8.9 15 10.3 C11.2 11.7 7.7 14.8 5.9 18.6 C5.7 17 6.3 12.6 7.8 11.9 z M9.4 11.4 C8.2 12 6.8 13.7 7 15.1 C8.9 12.7 10.8 10.2 14.1 9 C17.4 7.8 21.3 6.4 24.4 8.7 C23.8 3.3 20.2 2.4 17.1 1.5 C17.8 2.8 18 3.4 18.7 4.8 C15.6 2 10.3 1 6.5 2.5 C8.2 3.8 11.2 6.1 12.4 7.7 C10.4 7.1 10 6.6 7.6 6.6 C5.2 6.6 2.6 8.6 2.1 10.4 C4 10.5 7.5 11.2 9.4 11.4 z" opacity="0.15" id="k3" /><ellipse cx="18.6" cy="12.6" rx="1.2" ry="1.1" id="l3" fill="#FFF" /></g></g><g transform="translate(112.8, 76.09996) translate(64, 21)" id="m3"><g id="n3"><path d="M20.3 17.4 C20.3 13.9 13.6 9.9 10.4 8.5 C7.2 7.1 1.6 8 0.8 9.7 C0 11.5 0 15.4 1.4 17.9 C2.4 19.6 6.9 23.8 10.4 25.6 C16 28.4 20.4 24.1 20.3 17.4 z" id="o3" fill="#293C49" /><ellipse cx="8" cy="14.4" rx="5.3" ry="4.4" id="p3" fill="#46494D" /><ellipse cx="7.4" cy="14.4" rx="4.2" ry="3.5" id="q3" fill="#282421" /><path d="M19.2 11.9 C21.5 11.7 23.8 11.5 26.1 11.4 C25.5 9.3 24 7.5 22.1 6.6 C20.2 5.7 17.9 5.7 16 6.7 C17.9 5.2 19.8 3.8 21.8 2.3 C17.4 0.6 12.9 0.2 9.3 3.5 C10.1 1.9 10.1 1.9 10.9 0.4 C7 0.9 1.3 4.9 0.6 11.2 C4.2 8.6 8.2 8.9 12 10.3 C15.8 11.7 19.3 14.8 21.1 18.6 C21.3 17 20.7 12.6 19.2 11.9 z" id="r3" fill="#46494D" /><path d="M19.2 11.9 C21.5 11.7 23.8 11.5 26.1 11.4 C25.5 9.3 24 7.5 22.1 6.6 C20.2 5.7 17.9 5.7 16 6.7 C17.9 5.2 19.8 3.8 21.8 2.3 C17.4 0.6 12.9 0.2 9.3 3.5 C10.1 1.9 10.1 1.9 10.9 0.4 C7 0.9 1.3 4.9 0.6 11.2 C4.2 8.6 8.2 8.9 12 10.3 C15.8 11.7 19.3 14.8 21.1 18.6 C21.3 17 20.7 12.6 19.2 11.9 z M17.6 11.4 C18.9 12 20.2 13.8 20.1 15.1 C18.2 12.7 16.3 10.2 13 9 C9.7 7.8 5.7 6.4 2.6 8.6 C3.2 3.2 6.8 2.3 10 1.4 C9.3 2.7 9.1 3.3 8.4 4.6 C11.5 1.8 16.8 0.8 20.6 2.3 C18.9 3.6 15.9 5.9 14.7 7.5 C16.6 7.1 17 6.6 19.4 6.6 C21.8 6.6 24.4 8.6 24.9 10.4 C23 10.5 19.5 11.2 17.6 11.4 z" opacity="0.15" id="s3" /><ellipse cx="6.4" cy="12.6" rx="1.2" ry="1.1" id="t3" fill="#FFF" /></g></g></g></g></g></g><defs><g transform="translate(17.09519, 0.800995) translate(-135.2952, -293.601)" id="u3" fill="#000"><path d="M118.2 302.7 C118.4 307.4 132.5 311.2 149.8 311.2 C167.1 311.2 181.2 307.4 181.4 302.7 C181.4 307.5 181.4 310.1 181.4 310.5 C181.4 315.3 167.3 319.1 149.8 319.1 C132.3 319.1 118.2 315.2 118.2 310.5 L118.2 302.7 L118.2 302.7 z" fill-opacity="0.4528" id="v3" fill="#593001" /><path d="M118.7 301.7 C118.9 306.4 133 310.2 150.3 310.2 C167.6 310.2 181.7 306.4 181.9 301.7 C181.9 306.5 181.9 309.1 181.9 309.5 C181.9 314.3 167.8 318.1 150.3 318.1 C132.8 318.1 118.7 314.2 118.7 309.5 L118.7 301.7 L118.7 301.7 z" id="w3" fill="#DA8113" /><linearGradient x1="46.0545" y1="-118.6926" x2="45.4656" y2="-118.6926" gradientUnits="userSpaceOnUse" gradientTransform="matrix(117.135, 0, 0, 28.4634, -5208.417, 3687.795)" id="x3"><stop offset="0%" stop-color="#D9952A" stop-opacity="1" /><stop offset="6.438854%" stop-color="#CA7519" stop-opacity="1" /><stop offset="30.54%" stop-color="#E3AD3A" stop-opacity="1" /><stop offset="51.05%" stop-color="#FFEC91" stop-opacity="1" /><stop offset="68.8%" stop-color="#E9BD44" stop-opacity="1" /><stop offset="86.24%" stop-color="#FFED6C" stop-opacity="1" /><stop offset="93.87%" stop-color="#F2D353" stop-opacity="1" /><stop offset="100%" stop-color="#F2B947" stop-opacity="1" /></linearGradient><path d="M118.2 301.6 C118.4 306.1 132.7 309.7 150.3 309.7 C167.9 309.7 182.2 306.1 182.4 301.6 C182.4 306.2 182.4 308.7 182.4 309 C182.4 313.5 168 317.2 150.3 317.2 C132.6 317.2 118.2 313.5 118.2 309 L118.2 301.6 L118.2 301.6 z" id="y3" style="fill:url(#x3)" /><linearGradient x1="45.4914" y1="-117.9547" x2="45.9407" y2="-117.5895" gradientUnits="userSpaceOnUse" gradientTransform="matrix(115.425, 0, 0, 29.925, -5125.077, 3826.124)" id="z3"><stop offset="0%" stop-color="#F4E072" stop-opacity="1" /><stop offset="100%" stop-color="#DB9427" stop-opacity="1" /></linearGradient><ellipse cx="150.3" cy="301.5" rx="31.6" ry="8.2" id="a4" style="fill:url(#z3)" /><linearGradient x1="45.4656" y1="-126.0065" x2="46.0545" y2="-126.0065" gradientUnits="userSpaceOnUse" gradientTransform="matrix(117.135, 0, 0, 18.6219, -5208.417, 2651.479)" id="b4"><stop offset="0%" stop-color="#D9952A" stop-opacity="1" /><stop offset="6.438854%" stop-color="#CA7519" stop-opacity="1" /><stop offset="30.54%" stop-color="#E3AD3A" stop-opacity="1" /><stop offset="51.05%" stop-color="#FFEC91" stop-opacity="1" /><stop offset="68.8%" stop-color="#E9BD44" stop-opacity="1" /><stop offset="86.24%" stop-color="#FFED6C" stop-opacity="1" /><stop offset="93.87%" stop-color="#F2D353" stop-opacity="1" /><stop offset="100%" stop-color="#F2B947" stop-opacity="1" /></linearGradient><path d="M119.2 299.9 C119 300.2 118.9 300.6 118.9 301 C118.9 305.5 132.9 309.2 150.3 309.2 C167.7 309.2 181.7 305.5 181.7 301 C181.7 300.6 181.6 300.3 181.4 299.9 C182 300.5 182.4 301.2 182.4 301.9 C182.4 306.4 168 310.1 150.3 310.1 C132.6 310.1 118.2 306.4 118.2 301.9 C118.2 301.3 118.6 300.6 119.2 299.9 z" id="c4" style="fill:url(#b4)" /><linearGradient x1="45.196" y1="-121.5895" x2="45.3746" y2="-120.6758" gradientUnits="userSpaceOnUse" gradientTransform="matrix(101.745, 0, 0, 23.94, -4458.332, 3199.41)" id="d4"><stop offset="0%" stop-color="#F8DD61" stop-opacity="1" /><stop offset="100%" stop-color="#EAA330" stop-opacity="1" /></linearGradient><ellipse cx="150.3" cy="300.8" rx="27.8" ry="6.6" id="e4" style="fill:url(#d4)" /><linearGradient x1="45.5694" y1="-134.267" x2="45.0221" y2="-134.267" gradientUnits="userSpaceOnUse" gradientTransform="matrix(101.745, 0, 0, 13.2525, -4458.332, 2077.223)" id="f4"><stop offset="0%" stop-color="#F4CA2F" stop-opacity="1" /><stop offset="51.38%" stop-color="#BF7737" stop-opacity="1" /><stop offset="100%" stop-color="#E4A929" stop-opacity="1" /></linearGradient><path d="M122.6 301.5 C122.5 301.3 122.4 301 122.4 300.8 C122.4 297.2 134.9 294.2 150.2 294.2 C165.5 294.2 178 297.1 178 300.8 C178 301 177.9 301.3 177.8 301.5 C176.3 298.2 164.5 295.6 150.1 295.6 C135.7 295.6 124.1 298.2 122.6 301.5 z" id="g4" style="fill:url(#f4)" /></g></defs><desc>7H8JI7EDOCG,yRN4cICOyKdBONth0cxfoqZ/mXro/84q6Dp4xNFbRyh0ItCvn4WVcAuNoHaYua/DaCuaFdS2PW1qjVVbdil8ZMrZ2tqaukAhLeRyc9Yg6utU95e9t+NuyMsTiiO9B4ao</desc></svg>