<?xml version="1.0" encoding="utf-8"?><!DOCTYPE svg PUBLIC "-//W3C//DTD SVG 1.1//EN" "http://www.w3.org/Graphics/SVG/1.1/DTD/svg11.dtd"><svg x="0" y="0" width="340px" height="340px" viewBox="0, 0, 340, 340" preserveAspectRatio="xMidYMid" font-size="0" id="a" enable-background="new 0 0 340 340" xmlns="http://www.w3.org/2000/svg" xmlns:xlink="http://www.w3.org/1999/xlink" xmlns:xml="http://www.w3.org/XML/1998/namespace" version="1.1"><g id="b" fill="#000"><g id="c"><g transform="translate(0, 0) translate(0, 224)" id="d"><ellipse cx="168.6" cy="53.1" rx="57.8" ry="12.8" fill-opacity="0.25" id="e" /></g><g id="f"><g transform="translate(97.7, 75.79999) translate(8, 107)" id="g"><path d="M17.9 35.7 C13.1 32.3 10.5 28 10 21.2 C9.9 20.1 0.7 17.8 0.4 21.9 C0.1 28 2.1 33.7 4.6 38.4 C7.9 44.5 15.6 50.4 23.9 50.4 L33.1 33.8 C29.3 37.3 22.1 38.7 17.9 35.7 z" id="h" fill="#2C2F31" /><path d="M0.4 21.9 C2 23.7 7 22.6 10 21.2 C9.9 20.1 9.9 19 9.9 17.8 C10.1 6.6 20 4.3 17.6 0.8 C15.2 -2.7 5.9 7.2 4.7 9 C1.9 13.4 0.6 17.8 0.4 21.9 z" id="i" fill="#965622" /><path d="M0.4 21.9 C0.6 17.8 1.9 13.4 4.7 9 C5.9 7.2 15.2 -2.7 17.6 0.8 C20 4.3 10.1 6.6 9.9 17.8 C9.9 19 9.9 20.1 10 21.2 C10.5 28 13.1 32.3 17.9 35.7 C22.1 38.7 29.3 37.3 33.1 33.8 L23.9 50.4 C15.6 50.4 7.9 44.5 4.6 38.4 C2.1 33.7 0.1 28 0.4 21.9 z M5.8 10.5 C3.3 14.5 2.1 18.5 1.9 22.2 C1.6 27.7 3.4 32.9 5.7 37.1 C8.7 42.6 15.7 48 23.2 48 L30.2 36.8 C26.8 40 20.8 39.5 17 36.8 C12.7 33.7 9.7 31.4 9.2 25.3 C9.1 24.3 8.6 19.6 8.6 18.6 C8.9 8.4 19.2 2.4 16.5 0.9 C14.9 -1.2 6.9 8.9 5.8 10.5 z" opacity="0.15" id="j" /></g><g transform="translate(123.1, 270.4) scale(1.077617) translate(-123.1, -270.4) translate(97.60001, 85.19997) translate(17, 134)" id="k"><path d="M3.2 22.3 C1.8 20.2 0.9 17.9 0.7 15.3 C0.2 8.8 5.5 2.5 11.9 1.2 C18.3 -0.1 25.2 2.9 29.1 8.2 C32.2 12.3 32.5 17.4 32.6 22.6 C32.6 24 5.5 25.8 3.2 22.3 z" id="l" fill="#1F2122" /><path d="M12.6 31.2 C9 28.7 5.3 25.7 3 22 C4.3 21.1 5.9 20.5 7.6 20.1 C15.5 18 28 20.5 32.5 22.2 C32.5 23.8 32.6 25.4 32.6 26.9 C32.7 29.8 36 37.8 36 37.8 C34.6 41.9 31.1 44.9 27.7 47.7 C27.3 48 26.9 48.3 26.5 48.7 C23.3 51.4 24.3 54.8 19.2 54.5 C15 54.3 9.2 55.3 5.3 53.7 C2 49.3 5.1 40.6 11.7 40.2 C16.6 39.9 19.1 39.2 18 36.8 C16.9 34.4 14.8 32.7 12.6 31.2 z" id="m" fill="#965622" /><path d="M3 22 C1.7 20 0.9 17.8 0.7 15.3 C0.2 8.8 5.5 2.5 11.9 1.2 C18.3 -0.1 25.2 2.9 29.1 8.2 C32.2 12.3 32.5 17.4 32.6 22.6 C32.6 22.6 32.6 22.7 32.5 22.7 C32.5 24.1 32.6 25.5 32.6 26.9 C32.7 29.8 36 37.8 36 37.8 C34.6 41.9 31.1 44.9 27.7 47.7 C27.3 48 26.9 48.3 26.5 48.7 C23.3 51.4 24.3 54.8 19.2 54.5 C15 54.3 9.2 55.3 5.3 53.7 C2 49.3 5.1 40.6 11.7 40.2 C16.6 39.9 19.1 39.2 18 36.8 C16.9 34.4 14.8 32.7 12.6 31.2 C9 28.7 5.3 25.7 3 22 L3 22 z M1.7 15 C1.9 17.3 2.7 19.4 3.9 21.3 C6.1 24.8 9.6 27.6 12.9 30 C15 31.4 18.1 34 19.1 36.2 C20.1 38.4 18.8 41 14.2 41.3 C8 41.7 3.9 46.6 7 50.8 C10.7 52.3 15.2 51.8 19.1 52 C24 52.2 23 49 26 46.5 C26.4 46.1 26.8 45.8 27.1 45.6 C30.3 43 32 41 33.3 37.1 C33.3 37.1 31.8 28.7 31.7 26 C31.7 24.7 31.6 23.4 31.6 22.1 C31.7 22.1 31.7 22 31.7 22 C31.6 17.1 31.3 12.3 28.4 8.4 C24.7 3.4 18.2 0.6 12.2 1.8 C6.2 3 1.2 8.9 1.7 15 z" opacity="0.15" id="n" /></g><g transform="translate(210.9, 270.4) scale(1.077617) translate(-210.9, -270.4) translate(104.9, 85.19997) translate(83, 134)" id="o"><path d="M25.6 26.1 C30.2 22 32.1 22.1 32.6 15.3 C33.1 8.8 27.8 2.5 21.4 1.2 C15 -0.2 8.1 2.9 4.2 8.2 C0.3 13.5 0.2 20.6 1.3 26.8 C1.7 29.6 23.6 27.9 25.6 26.1 z" id="p" fill="#1F2122" /><path d="M20.6 31.2 C24.2 28.7 27.9 25.7 30.2 22 C28.9 21.1 27.3 20.5 25.6 20.1 C17.7 18 5.2 20.5 0.7 22.2 C0.7 23.8 2.1 45 5.4 47.7 C5.8 48 6.2 48.3 6.6 48.7 C9.8 51.4 8.8 54.8 13.9 54.5 C18.1 54.3 23.9 55.3 27.8 53.7 C31.1 49.3 28 40.6 21.4 40.2 C16.5 39.9 14 39.2 15.1 36.8 C16.2 34.4 18.5 32.7 20.6 31.2 z" id="q" fill="#965622" /><path d="M0.7 22.2 C0.4 17.3 1.2 12.2 4.2 8.2 C8.1 2.9 15 -0.2 21.4 1.2 C27.8 2.5 33.1 8.8 32.6 15.3 C32.3 19.4 31.5 21 29.9 22.5 C27.6 26 24.1 28.8 20.6 31.2 C18.5 32.7 16.2 34.4 15.1 36.8 C14 39.2 16.5 39.9 21.4 40.2 C28 40.6 31.1 49.3 27.8 53.7 C23.9 55.3 18.1 54.3 13.9 54.5 C8.8 54.8 9.8 51.4 6.6 48.7 C6.2 48.3 5.8 48 5.4 47.7 C2.1 45 0.7 23.8 0.7 22.2 C0.7 22.2 0.7 22.2 0.7 22.2 z M4.8 8.2 C2 12 1.3 16.8 1.5 21.5 C1.5 23 3.4 42.5 6.5 45.1 C6.9 45.4 7.5 46.6 7.9 47 C10.9 49.6 9.2 52.5 14 52.2 C18 52 23.5 53 27.2 51.4 C30.3 47.2 26.2 42 19.9 41.6 C15.3 41.3 12.6 39.3 13.6 37 C14.6 34.7 18.3 31.5 20.3 30.1 C23.5 27.8 26.9 25.2 29.1 21.9 C30.6 20.5 31.4 18.9 31.7 15 C32.2 8.8 27.1 2.9 21.1 1.6 C15.1 0.2 8.5 3.2 4.8 8.2 z" opacity="0.15" id="r" /></g><g transform="translate(109.6, 97.89998) translate(13, 60)" id="s"><path d="M84.1 58.7 C83.4 45.5 82.7 39.3 75 30.8 C69 24.2 68.5 19.6 65.4 14.3 C62 8.8 60.8 0.4 45.9 0.4 C31.1 0.4 29.8 8.8 26.5 14.3 C23.4 19.5 22.8 24.1 16.9 30.8 C9.2 39.4 8.5 45.6 7.8 58.7 C7.2 70.2 13.2 79.4 15.3 92.4 C17.9 108.9 26 118.4 29.6 119.2 C36.2 120.6 42.1 121 45.9 120.9 C49.8 121 55.7 120.6 62.2 119.2 C65.8 118.4 73.9 108.9 76.5 92.4 C78.7 79.4 84.7 70.2 84.1 58.7 z" id="t" fill="#2C2F31" /><path d="M84.1 58.7 C84.7 70.2 78.7 79.4 76.5 92.4 C73.9 108.9 65.8 118.4 62.2 119.2 C55.7 120.6 49.8 121 45.9 120.9 C42.1 121 36.2 120.6 29.6 119.2 C26 118.4 17.9 108.9 15.3 92.4 C13.2 79.4 7.2 70.2 7.8 58.7 C8.5 45.6 9.2 39.4 16.9 30.8 C22.8 24.1 23.4 19.5 26.5 14.3 C29.8 8.8 31.1 0.4 45.9 0.4 C60.8 0.4 62 8.8 65.4 14.3 C68.5 19.6 69 24.2 75 30.8 C82.7 39.3 83.4 45.5 84.1 58.7 z M82.6 57.8 C82 45.1 81.3 39.1 73.9 30.9 C68.1 24.6 67.6 20.2 64.7 15.1 C61.4 9.8 60.2 1.7 45.9 1.7 C31.7 1.7 30.4 9.8 27.2 15.1 C24.3 20.1 23.7 24.5 18 30.9 C10.6 39.2 9.9 45.2 9.3 57.8 C8.7 68.8 14.5 77.7 16.5 90.2 C19 106.1 26.8 115.2 30.2 116 C36.6 117.3 42.2 117.7 45.9 117.6 C49.7 117.7 55.3 117.3 61.6 116 C65 115.2 72.8 106.1 75.3 90.2 C77.4 77.7 83.2 68.8 82.6 57.8 z" opacity="0.15" id="u" /></g><g transform="translate(109.6, 97.89997) translate(59, 136) scale(-1, 1) translate(-59, -136) translate(16, 84)" id="v"><path d="M10.2 21.5 C10.3 21.2 21.2 -0.7 27.1 1.2 C31.4 2.6 35.1 7.2 36.8 10.5 C38.5 13.8 43 34.1 39.9 40.8 C37.7 45.5 33.3 46.5 28.3 45.3 C28 49 27.7 51.8 27.2 53.1 C26.2 62.6 31 81.3 32.2 92 C31.5 105 22.7 103.5 16.9 102.2 C13.4 101.4 10.8 99 12.4 94.9 C12.9 93.6 13.6 92.2 14.2 90.8 C14.7 84.8 13.6 79.1 12.3 72.9 C11.1 67.4 10.2 21.5 10.2 21.5 z" id="w" fill="#B76930" /><path d="M75.8 21.5 C75.7 21.2 64.8 -0.7 58.9 1.2 C54.6 2.6 50.9 7.2 49.2 10.5 C47.5 13.8 43 34.1 46.1 40.8 C48.3 45.5 52.7 46.5 57.7 45.3 C58 49 58.3 51.8 58.8 53.1 C59.8 62.6 55 81.3 53.8 92 C54.5 105 63.3 103.5 69.1 102.2 C72.6 101.4 75.2 99 73.6 94.9 C73.1 93.6 72.4 92.2 71.8 90.8 C71.3 84.8 72.4 79.1 73.7 72.9 C75.1 67.4 75.8 21.5 75.8 21.5 z" id="x" fill="#B76930" /><path d="M9.6 11.2 C11.4 8 16.2 2.9 17.2 1.8 C20.5 -0.8 30.2 -1.2 32 8.4 C32.8 11.9 30.3 16.7 28.9 18.7 C28.4 19.4 28.1 19.9 28 20.3 C27.9 21 28.5 22.6 29.1 24.8 C29.9 27.7 30.6 31.5 29.2 34.9 C28.9 35.5 28.6 36.1 28.2 36.7 C25.6 40.3 21.2 37.3 17.7 39.2 C17.7 39.4 17.6 39.6 17.6 39.7 C15.8 49.4 23.5 59.2 21.3 70.8 C20.7 74.1 16.9 76.3 12.6 74.8 C11.3 68.6 9.5 62.1 8.7 54.5 C3.3 48.8 -0.6 44.9 1.1 28.6 C2.1 19.3 5.8 14.9 9.6 11.2 z" id="y" fill="#46494D" /><path d="M26.9 1.1 C27 1.2 27 1.2 27.1 1.2 C31.4 2.6 35.1 7.2 36.8 10.5 C38.5 13.8 43 34.1 39.9 40.8 C37.7 45.5 33.3 46.5 28.3 45.3 C28 49 27.7 51.8 27.2 53.1 C26.2 62.6 31 81.3 32.2 92 C31.5 105 22.7 103.5 16.9 102.2 C13.4 101.4 10.8 99 12.4 94.9 C12.9 93.6 13.6 92.2 14.2 90.8 C14.6 85.4 13.8 80.3 12.7 74.8 C12.7 74.8 12.6 74.8 12.6 74.8 C11.3 68.6 9.5 62.1 8.7 54.5 C3.3 48.8 -0.6 44.9 1.1 28.6 C2.1 19.3 5.8 14.9 9.6 11.2 C11.4 8 16.2 2.9 17.2 1.8 C19.2 0.3 23.4 -0.5 26.9 1.1 z M26.7 2.1 C26.7 2.1 26.6 2.1 26.5 2 C23.2 0.5 19.3 1.2 17.4 2.7 C16.5 3.7 11.9 8.6 10.2 11.6 C6.7 15.1 3.2 19.3 2.2 28.2 C0.6 43.7 5.5 48.5 10.6 54 C11.4 61.2 11.8 66.2 13.2 72.2 C14.2 77.4 14.9 82 15.5 86 C15.5 88.3 15.8 90.3 15.3 91.5 C13.8 95.4 13.8 97.4 17.1 98.2 C22.6 99.4 29.7 101.8 30.4 89.4 C29.3 79.2 24.9 61.1 25.8 52 C26.3 50.8 27 47.1 27.3 43.6 C32 44.7 36.7 44.3 38.8 39.8 C41.7 33.4 37.5 14.1 35.9 10.9 C34.3 7.8 30.8 3.4 26.7 2.1 z" opacity="0.15" id="z" /><path d="M76.6 11.2 C74.8 8 69.9 2.9 68.9 1.8 C65.6 -0.8 55.9 -1.2 54.1 8.4 C53.3 11.9 55.8 16.7 57.2 18.7 C57.7 19.4 58 19.9 58.1 20.3 C58.2 21 57.6 22.6 57 24.8 C56.2 27.7 55.5 31.5 56.9 34.9 C57.2 35.5 57.5 36.1 57.9 36.7 C60.5 40.3 64.9 37.3 68.4 39.2 C68.4 39.4 68.5 39.6 68.5 39.7 C70.3 49.4 62.6 59.2 64.8 70.8 C65.4 74.1 69.2 76.3 73.5 74.8 C74.8 68.6 76.6 62.1 77.4 54.5 C82.8 48.8 86.7 44.9 85 28.6 C83.9 19.3 80.2 14.9 76.6 11.2 z" id="a1" fill="#46494D" /><path d="M73.3 74.9 C72.2 80.3 71.4 85.4 71.8 90.8 C72.4 92.2 73.1 93.6 73.6 94.9 C75.2 99 72.6 101.4 69.1 102.2 C63.3 103.5 54.5 105 53.8 92 C55 81.3 59.8 62.6 58.8 53.1 C58.3 51.8 58 49 57.7 45.3 C52.7 46.5 48.3 45.5 46.1 40.8 C43 34.1 47.5 13.8 49.2 10.5 C50.9 7.2 54.6 2.6 58.9 1.2 C59 1.2 59.2 1.1 59.3 1.1 C62.8 -0.5 66.9 0.3 68.9 1.8 C69.9 2.9 74.8 8 76.6 11.2 C80.2 14.9 83.9 19.3 85 28.6 C86.7 44.9 82.8 48.8 77.4 54.5 C76.6 62.1 74.8 68.6 73.5 74.8 C73.4 74.8 73.4 74.8 73.3 74.9 z M72.6 73.1 C74.4 64.5 75.5 57.8 76 53 C81.2 47.6 85 42.8 83.4 27.3 C82.3 18.5 79.5 14.6 76 11.1 C74.3 8 68.8 3.6 67.8 2.6 C66 1.1 62.9 1 59.6 2.6 C59.4 2.6 59.3 2.6 59.2 2.7 C55.1 4 51.6 8.4 50 11.5 C48.4 14.6 44.9 33.2 47.8 39.5 C49.9 44 54 44.4 58.7 43.2 C59 46.7 59.8 51.8 60.2 53 C61.2 62.1 57 78.6 55.8 88.8 C56.5 101.2 63.4 100 68.9 98.7 C72.2 98 72.8 96.4 71.3 92.5 C70.8 91.3 70.5 90.1 70.5 88.1 C70.1 83 71.5 78.3 72.6 73.1 z" opacity="0.15" id="b1" /></g></g><g transform="translate(168.6, 192.7) scale(0.9506436) translate(-168.6, -192.7)" id="c1"><g transform="translate(90.60001, 105) translate(37, 0)" id="d1"><path d="M39.5 0.5 C71.6 1 81 11.5 80.7 29.8 C80.4 48 79.9 54.8 75.6 61.2 C71.3 67.7 69.9 71.1 66.9 81.2 C63.9 91.3 54.7 90.8 41.1 91.1 C27.5 91.5 15.5 87 14.4 80 C13.3 73 9.6 67.3 4.7 60.5 C-0.2 53.7 0.4 34.9 0.3 24.2 C0.2 13.4 7.5 0 39.5 0.5 z" id="e1" fill="#46494D" /><path d="M28.3 90.7 C31.6 92.4 34.5 93.3 36.9 93.4 C40.6 93.6 48.1 93.4 51 92.1 C53 91.2 54.4 90.8 55.2 90.8 C51.5 87.9 49 86.4 47.7 86.2 C45.8 86 40.4 83.9 38.7 85.1 C36.9 86.3 32.9 87 32 87.8 C31.3 88.3 30.2 89.2 28.3 90.7 z" id="f1" fill="#332920" /><path d="M54.7 90.5 C54.8 90.6 54.9 90.7 55.1 90.8 C54.3 90.8 52.9 91.2 50.9 92.1 C48 93.4 40.5 93.6 36.8 93.4 C34.4 93.3 31.5 92.4 28.2 90.7 C28.5 90.5 28.7 90.3 29 90.1 C21 88.4 15.2 84.8 14.5 80.1 C13.4 73.1 9.7 67.4 4.8 60.6 C-0.1 53.8 0.5 34.9 0.4 24.2 C0.3 13.5 7.5 0 39.5 0.5 C71.6 1 81 11.5 80.7 29.8 C80.4 48 79.9 54.8 75.6 61.2 C71.3 67.7 69.9 71.1 66.9 81.2 C65.1 87.4 60.9 89.7 54.7 90.5 z M54 87.2 C59.9 86.4 63.8 84.2 65.6 78.4 C68.5 68.9 69.8 65.6 73.9 59.4 C78 53.2 78.5 46.8 78.8 29.5 C79 12 70.1 2 39.5 1.6 C9.1 1.1 2.2 13.8 2.3 24.1 C2.4 34.3 1.7 52.3 6.4 58.7 C11.1 65.1 14.7 70.6 15.6 77.3 C16.3 81.9 21.9 85.3 29.4 86.8 C29.2 87 28.9 87.2 28.7 87.4 C31.8 89 34.6 89.9 36.9 90 C40.4 90.2 47.6 90 50.3 88.8 C52.2 87.9 53.5 87.6 54.3 87.6 C54.2 87.4 54.1 87.3 54 87.2 z" opacity="0.15" id="g1" /></g><g transform="translate(98.7, 111.8) translate(8, 1)" id="h1"><path d="M14.6 40.1 C13.1 40.1 13.5 37.4 12.3 34.7 C10.1 29.8 6.5 23.1 3.8 19.6 C1.7 17 -0.4 13.7 0.6 10.5 C1.7 7.1 5.8 5.9 9.3 5.1 C15.1 3.9 21 2.7 26.8 1.5 C28.1 1.2 34.4 -0.3 35.3 0.9 C35.7 2 31.5 4.8 30.4 6 C28.1 8.6 26.4 12.2 24.8 15.2 C21.4 22 18.7 40.1 14.6 40.1 z" id="i1" fill="#2C2F31" /><path d="M3.3 7.3 C2.7 7.8 2.2 8.5 1.9 9.2 C0.9 12 2.8 15 4.7 17.3 C7.2 20.4 10.5 26.3 12.5 30.6 C13.6 33 13.2 35.4 14.6 35.4 C18.4 35.5 21.2 19.7 24.5 13.8 C26.1 11.2 27.7 8 29.9 5.8 C31 4.8 35 2.4 34.6 1.4 C33.8 0.3 27.9 1.6 26.6 1.8 C23.9 2.3 21.2 2.8 18.4 3.2 C21.2 2.7 24 2.1 26.8 1.5 C28.1 1.2 34.4 -0.3 35.3 0.9 C35.7 2 31.5 4.8 30.4 6 C28.1 8.6 26.4 12.2 24.8 15.2 C21.4 22 18.7 40.1 14.6 40.1 C13.1 40.1 13.5 37.4 12.3 34.7 C10.1 29.8 6.5 23.1 3.8 19.6 C1.7 17 -0.4 13.7 0.6 10.5 C1.1 9.1 2 8 3.3 7.3 z" opacity="0.15" id="j1" /></g><g transform="translate(104.4, 110.8) translate(87, 1)" id="k1"><path d="M21.4 40.1 C22.9 40.1 22.5 37.4 23.7 34.7 C25.9 29.8 29.5 23.1 32.2 19.6 C34.3 17 36.4 13.7 35.4 10.5 C34.3 7.1 30.2 5.9 26.7 5.1 C20.9 3.9 15 2.7 9.2 1.5 C7.9 1.2 1.6 -0.3 0.7 0.9 C0.3 2 4.5 4.8 5.6 6 C7.9 8.6 9.6 12.2 11.2 15.2 C14.6 22 17.3 40.1 21.4 40.1 z" id="l1" fill="#2C2F31" /><path d="M21.4 40.1 C17.3 40.1 14.6 22 11.2 15.2 C9.6 12.2 7.9 8.6 5.6 6 C4.5 4.8 0.3 2 0.7 0.9 C1.6 -0.3 7.9 1.2 9.2 1.5 C15 2.7 20.9 3.9 26.7 5.1 C30.2 5.9 34.3 7.1 35.4 10.5 C36.4 13.7 34.3 17 32.2 19.6 C29.5 23.1 25.9 29.8 23.7 34.7 C22.5 37.4 22.9 40.1 21.4 40.1 z M21.1 34.4 C22.5 34.4 22.1 32.2 23.2 29.9 C25.2 25.8 28.5 20.2 30.9 17.3 C32.9 15.1 34.8 12.3 33.9 9.6 C32.9 6.8 29.1 5.8 25.9 5.1 C20.7 4.1 15.3 3.1 10 2.1 C8.8 1.9 3.1 0.6 2.3 1.6 C1.9 2.5 5.7 4.9 6.7 5.9 C8.8 8.1 10.4 11.1 11.8 13.6 C14.9 19.3 17.4 34.4 21.1 34.4 z" opacity="0.15" id="m1" /></g><g id="n1"><g transform="translate(109.7, 105.7) translate(33, 43)" id="o1"><g transform="translate(0, 6)" id="p1"><path d="M51.4 27.5 C51 26.8 50.5 26.2 49.9 25.7 C49.6 24.8 49.3 23.9 49 23.1 C47.1 18.1 46.5 12.5 43.6 8.8 C38.7 2.7 32.8 0.8 25.9 0.8 C19 0.8 13.1 2.8 8.2 8.8 C5.3 12.4 4.6 18.1 2.8 23.1 C2.5 23.9 2.2 24.8 1.9 25.7 C1.3 26.2 0.7 26.8 0.4 27.5 C-0.4 29.1 0.1 31.2 1.1 32.7 C2.1 34.2 4.6 36.6 9.3 37.7 C10 37.9 10.7 37.8 11.4 37.5 C11.4 37.6 11.4 37.7 11.4 37.7 C15.7 43.2 17.8 38.9 25.9 40 C34.1 38.9 36.1 43.2 40.4 37.7 C40.4 37.6 40.4 37.5 40.4 37.5 C41.1 37.8 41.8 37.9 42.5 37.7 C47.2 36.6 49.6 34.2 50.7 32.7 C51.8 31.2 52.4 29.1 51.4 27.5 z" id="q1" fill="#B76930" /><path d="M51.4 27.5 C52.4 29.1 51.8 31.2 50.7 32.7 C49.6 34.2 47.2 36.6 42.5 37.7 C41.8 37.9 41.1 37.8 40.4 37.5 C40.4 37.5 40.4 37.6 40.4 37.7 C36.1 43.2 34.1 38.9 25.9 40 C17.8 38.9 15.7 43.2 11.4 37.7 C11.4 37.7 11.4 37.6 11.4 37.5 C10.7 37.8 10 37.9 9.3 37.7 C4.6 36.6 2.1 34.2 1.1 32.7 C0.1 31.2 -0.4 29.1 0.4 27.5 C0.7 26.8 1.3 26.2 1.9 25.7 C2.2 24.8 2.5 23.9 2.8 23.1 C4.6 18.1 5.3 12.4 8.2 8.8 C13.1 2.8 19 0.8 25.9 0.8 C32.8 0.8 38.7 2.7 43.6 8.8 C46.5 12.5 47.1 18.1 49 23.1 C49.3 23.9 49.6 24.8 49.9 25.7 C50.5 26.2 51 26.8 51.4 27.5 z M49 27.1 C48.7 26.4 48.5 24.8 48 24.3 C47.7 23.5 47.4 22.6 47.1 21.9 C45.4 17.3 44.8 12.2 42.2 8.8 C37.7 3.1 32.2 1.4 25.9 1.4 C19.6 1.4 14.1 3.2 9.6 8.8 C7 12.1 6.3 17.3 4.7 21.9 C4.4 22.6 4.4 24.4 4.1 25.2 C3.6 25.6 2.8 26.4 2.5 27.1 C1.8 28.5 2.2 29.4 3.1 30.7 C4 32.1 4.4 34.8 8.7 35.8 C9.1 35.9 10.5 36.1 12.7 36.2 C16.7 41.3 18.5 36.4 25.9 37.4 C30.4 36.8 35 38.3 37.4 38.1 C38.9 37.9 38.9 37.5 39.1 36.2 C39.7 36.5 42 36.8 42.7 36.6 C47 35.6 47.7 32.1 48.7 30.7 C49.7 29.4 49.9 28.5 49 27.1 z" opacity="0.15" id="r1" /><path d="M35.3 17.8 C35.2 15.5 34.5 13.4 31.9 13 C30 12.7 27.9 13.2 26 13.5 C24.2 13.3 22.2 12.9 20.4 13 C18 13.2 16.9 14.9 16.7 17.2 C16.5 19.3 16.4 21.7 17.9 23.4 C19.2 25 21 26.2 19.5 28.4 C18.9 29.2 18 30.1 18.1 31.2 C18.2 32.2 19.1 32.3 19.8 32.8 C21.4 33.8 23 34.6 24.9 34.8 C26.8 35 28.8 34.7 30.6 33.7 C31.3 33.3 32 32.8 32.7 32.4 C33.6 31.9 34.2 31.6 33.8 30.4 C33.5 29.2 32.2 28.4 31.9 27.2 C31.6 26.1 32.4 25.2 33.1 24.4 C33.9 23.5 34.7 22.8 35 21.6 C35.4 20.4 35.4 19.1 35.3 17.8 z" id="s1" fill="#965622" /><g transform="translate(9, 19)" id="t1" fill="#965622"><path d="M31.4 5.9 C31.6 6.7 32.7 7.1 33.3 6.6 C33.9 6.1 33.9 5 33.1 4.6 C32.4 4.2 31.4 4.8 31.3 5.6" id="u1" /><path d="M27.8 2.4 C28 3.2 29.1 3.6 29.7 3.1 C30.3 2.6 30.3 1.5 29.5 1.1 C28.8 0.7 27.8 1.3 27.7 2.1" id="v1" /><path d="M26.6 7.5 C26.8 8.3 27.9 8.7 28.5 8.2 C29.1 7.7 29.1 6.6 28.3 6.2 C27.6 5.8 26.6 6.4 26.5 7.2" id="w1" /><path d="M2.6 5.9 C2.4 6.7 1.3 7.1 0.7 6.6 C0.1 6.1 0.1 5 0.9 4.6 C1.6 4.2 2.6 4.8 2.7 5.6" id="x1" /><path d="M6.2 2.4 C6 3.2 4.9 3.6 4.3 3.1 C3.7 2.6 3.7 1.5 4.5 1.1 C5.2 0.7 6.2 1.3 6.3 2.1" id="y1" /><path d="M7.4 7.5 C7.2 8.3 6.1 8.7 5.5 8.2 C4.9 7.7 4.9 6.6 5.7 6.2 C6.4 5.8 7.4 6.4 7.5 7.2" id="z1" /></g></g></g><g transform="translate(168.7, 189.2) scale(0.7) translate(-168.7, -184.2) translate(95.6, 84.09997) translate(47, 87)" id="a2"><g id="b2"><path d="M3.4 5.4 C4.9 4.3 6.4 6.3 6.5 7.5 C6.6 8.7 8.3 11.5 10.6 12.2 C12.9 12.9 15.9 13.7 19.3 12.8 C20.3 12.5 21.7 11.7 24.1 11.5 C24.2 11.5 24.4 10.8 24.5 9.9 C24.7 8.2 25.2 5.7 25.4 5.7 C25.7 5.7 25.7 8.3 26 10 C26.2 11 26.4 11.6 26.5 11.6 C28.5 11.8 29.8 12.5 31.4 12.8 C34.4 13.5 39.8 13.5 41.8 9.6 C43.8 5.7 43.8 4.1 45 4.1 C46.2 4.1 46.5 6.2 45 8 C43.5 9.8 41.3 12 38.9 13.1 C36.5 14.2 32.3 14 31.3 14 C30.3 14.1 28.6 15.3 25 15.3 C21.4 15.3 19.6 14 18.7 14 C17.8 14 16.8 14.3 13.9 13.8 C11 13.6 8.3 11.8 6 10 C3.7 8.2 1.9 6.5 3.4 5.4 z" id="c2" /><path d="M16.7 13.9 C17.2 14.9 17.8 15.6 18.4 16 C20.2 17.2 23 17.8 25 17.8 C27.2 17.8 30.6 17.2 32.7 15.9 C33.3 15.5 33.7 14.9 34 13.9 C30.1 13.3 27.2 13 25.4 13 C23.6 13 20.6 13.3 16.7 13.9 z" opacity="0.15" id="d2" /></g></g><g transform="translate(90.6, 101.2) translate(68, 59)" id="e2"><g id="f2"><path d="M10.5 0.5 C14.8 0.5 15.9 0.9 19.1 3.2 C22.3 5.5 21 9.5 19.6 11.9 C19 12.6 18 13.2 17 14.5 C16.2 15.5 15.5 17.3 14.6 17.9 C13.3 18.8 12.1 19.2 10.3 19.1 C8.5 19.1 7 18.6 5.8 17.9 C3.8 16.7 3.3 15.1 2.5 13.6 C2 12.7 0.5 11.3 0.1 10.1 C-0.6 8.1 -0.9 5.9 0.3 4 C2.3 1 6.1 0.5 10.5 0.5 z" id="g2" fill="#282421" /><path d="M2.6 4.4 C2.6 4.8 4.5 3.9 6.7 3.5 C7.7 3.3 8.8 3.2 10.3 3.2 C11.8 3.2 14.1 4.2 13.7 4.8 C13.1 5.7 13.5 7.1 15.1 7.5 C15.8 7.6 16.4 7.6 17.3 7.3 C18.2 6.9 18.4 6.3 18.5 5.7 C18.6 5.1 18.6 4.3 17.3 3.6 C17 3.4 15.6 2.4 13.8 2.2 C11.6 2 9.8 2 8.2 2.2 C6.6 2.4 5.4 2.6 4.5 3 C3.2 3.6 2.6 4.2 2.6 4.4 z" id="h2" fill="#FFF" /></g></g><g transform="translate(88.89999, 113.4) translate(48, 25)" id="i2"><g transform="translate(10.39189, 9.559633) scale(-1, 1) translate(-10.39189, -9.559633) translate(0.891892, 0.559633)" id="j2"><path d="M7 16.8 C8.5 17.2 12.9 17.1 15.3 16.8 C17.2 16.6 17.9 16.6 18.2 15.3 C18.5 14 19.8 12.3 18.7 9.2 C17 4.2 16.1 2.3 10.4 1.5 C7.1 1 4.6 -0.8 3.4 0.9 C2.5 2.3 1 7.8 1 10.6 C1 16.8 1.3 15.3 7 16.8 z" id="k2" fill="#B76930" /><path d="M9.2 17.1 C11.4 17.1 13.3 15.9 14.5 14.2 C15.1 13.3 14.8 11.9 14.5 10.8 C13.8 7.8 11.3 5.7 7.9 5.7 C4.5 5.7 2.4 7.6 1.3 10.3 C0.9 11.2 0.4 12.9 0.8 13.7 C1.4 16.8 6.8 17.1 9.2 17.1 z" id="l2" fill="#282421" /><g transform="translate(4.324324, 7.761468)" id="m2"><path d="M4.8 1.9 C4.8 0.7 3.8 -0.2 2.6 -0.2 C1.5 -0.2 0.5 0.8 0.5 2 C0.5 3.2 1.5 4.2 2.7 4.2 C2.7 4.1 2.7 4.1 2.7 4 C2.5 3.5 2.6 3 3.1 2.5 C3.7 1.9 4.2 1.8 4.8 1.9 z" id="n2" fill="#FFF" /><circle cx="4.2" cy="3.5" r="1" id="o2" fill="#FFF" /></g></g></g><g transform="translate(94.49998, 113.4) translate(86, 25)" id="p2"><g transform="translate(0.864865, 0.559633)" id="q2"><g transform="translate(0.378378, 0)" id="r2"><path d="M5.7 16.8 C7.2 17.2 11.6 17.1 14 16.8 C15.9 16.6 16.6 16.6 16.9 15.3 C17.2 14 18.5 12.3 17.4 9.2 C15.7 4.2 14.8 2.3 9.1 1.5 C5.8 1 3.3 -0.8 2.2 0.9 C1.2 2.3 -0.2 7.8 -0.2 10.5 C-0.3 16.8 0 15.3 5.7 16.8 z" id="s2" fill="#B76930" /><path d="M8 17.1 C10.2 17.1 12.1 15.9 13.3 14.2 C13.9 13.3 13.6 11.9 13.3 10.8 C12.6 7.8 10.1 5.7 6.7 5.7 C3.3 5.7 1.2 7.6 0.1 10.3 C-0.3 11.2 -0.8 12.9 -0.4 13.7 C0.2 16.8 5.6 17.1 8 17.1 z" id="t2" fill="#282421" /><g transform="translate(8.743243, 10.26147) scale(-1, 1) translate(-8.743243, -10.26147) translate(6.243243, 7.761468)" id="u2"><path d="M5 1.9 C5 0.7 4 -0.2 2.8 -0.2 C1.7 -0.2 0.7 0.8 0.7 2 C0.7 3.2 1.7 4.2 2.9 4.2 C2.9 4.1 2.9 4.1 2.9 4 C2.7 3.5 2.8 3 3.3 2.5 C3.9 1.9 4.4 1.8 5 1.9 z" id="v2" fill="#FFF" /><circle cx="4.4" cy="3.5" r="1" id="w2" fill="#FFF" /></g></g></g></g></g></g></g></g><defs><g transform="translate(17.09519, 0.800995) translate(-135.2952, -293.601)" id="x2" fill="#000"><path d="M118.2 302.7 C118.4 307.4 132.5 311.2 149.8 311.2 C167.1 311.2 181.2 307.4 181.4 302.7 C181.4 307.5 181.4 310.1 181.4 310.5 C181.4 315.3 167.3 319.1 149.8 319.1 C132.3 319.1 118.2 315.2 118.2 310.5 L118.2 302.7 L118.2 302.7 z" fill-opacity="0.4528" id="y2" fill="#593001" /><path d="M118.7 301.7 C118.9 306.4 133 310.2 150.3 310.2 C167.6 310.2 181.7 306.4 181.9 301.7 C181.9 306.5 181.9 309.1 181.9 309.5 C181.9 314.3 167.8 318.1 150.3 318.1 C132.8 318.1 118.7 314.2 118.7 309.5 L118.7 301.7 L118.7 301.7 z" id="z2" fill="#DA8113" /><linearGradient x1="46.0545" y1="-118.6926" x2="45.4656" y2="-118.6926" gradientUnits="userSpaceOnUse" gradientTransform="matrix(117.135, 0, 0, 28.4634, -5208.417, 3687.795)" id="a3"><stop offset="0%" stop-color="#D9952A" stop-opacity="1" /><stop offset="6.438854%" stop-color="#CA7519" stop-opacity="1" /><stop offset="30.54%" stop-color="#E3AD3A" stop-opacity="1" /><stop offset="51.05%" stop-color="#FFEC91" stop-opacity="1" /><stop offset="68.8%" stop-color="#E9BD44" stop-opacity="1" /><stop offset="86.24%" stop-color="#FFED6C" stop-opacity="1" /><stop offset="93.87%" stop-color="#F2D353" stop-opacity="1" /><stop offset="100%" stop-color="#F2B947" stop-opacity="1" /></linearGradient><path d="M118.2 301.6 C118.4 306.1 132.7 309.7 150.3 309.7 C167.9 309.7 182.2 306.1 182.4 301.6 C182.4 306.2 182.4 308.7 182.4 309 C182.4 313.5 168 317.2 150.3 317.2 C132.6 317.2 118.2 313.5 118.2 309 L118.2 301.6 L118.2 301.6 z" id="b3" style="fill:url(#a3)" /><linearGradient x1="45.4914" y1="-117.9547" x2="45.9407" y2="-117.5895" gradientUnits="userSpaceOnUse" gradientTransform="matrix(115.425, 0, 0, 29.925, -5125.077, 3826.124)" id="c3"><stop offset="0%" stop-color="#F4E072" stop-opacity="1" /><stop offset="100%" stop-color="#DB9427" stop-opacity="1" /></linearGradient><ellipse cx="150.3" cy="301.5" rx="31.6" ry="8.2" id="d3" style="fill:url(#c3)" /><linearGradient x1="45.4656" y1="-126.0065" x2="46.0545" y2="-126.0065" gradientUnits="userSpaceOnUse" gradientTransform="matrix(117.135, 0, 0, 18.6219, -5208.417, 2651.479)" id="e3"><stop offset="0%" stop-color="#D9952A" stop-opacity="1" /><stop offset="6.438854%" stop-color="#CA7519" stop-opacity="1" /><stop offset="30.54%" stop-color="#E3AD3A" stop-opacity="1" /><stop offset="51.05%" stop-color="#FFEC91" stop-opacity="1" /><stop offset="68.8%" stop-color="#E9BD44" stop-opacity="1" /><stop offset="86.24%" stop-color="#FFED6C" stop-opacity="1" /><stop offset="93.87%" stop-color="#F2D353" stop-opacity="1" /><stop offset="100%" stop-color="#F2B947" stop-opacity="1" /></linearGradient><path d="M119.2 299.9 C119 300.2 118.9 300.6 118.9 301 C118.9 305.5 132.9 309.2 150.3 309.2 C167.7 309.2 181.7 305.5 181.7 301 C181.7 300.6 181.6 300.3 181.4 299.9 C182 300.5 182.4 301.2 182.4 301.9 C182.4 306.4 168 310.1 150.3 310.1 C132.6 310.1 118.2 306.4 118.2 301.9 C118.2 301.3 118.6 300.6 119.2 299.9 z" id="f3" style="fill:url(#e3)" /><linearGradient x1="45.196" y1="-121.5895" x2="45.3746" y2="-120.6758" gradientUnits="userSpaceOnUse" gradientTransform="matrix(101.745, 0, 0, 23.94, -4458.332, 3199.41)" id="g3"><stop offset="0%" stop-color="#F8DD61" stop-opacity="1" /><stop offset="100%" stop-color="#EAA330" stop-opacity="1" /></linearGradient><ellipse cx="150.3" cy="300.8" rx="27.8" ry="6.6" id="h3" style="fill:url(#g3)" /><linearGradient x1="45.5694" y1="-134.267" x2="45.0221" y2="-134.267" gradientUnits="userSpaceOnUse" gradientTransform="matrix(101.745, 0, 0, 13.2525, -4458.332, 2077.223)" id="i3"><stop offset="0%" stop-color="#F4CA2F" stop-opacity="1" /><stop offset="51.38%" stop-color="#BF7737" stop-opacity="1" /><stop offset="100%" stop-color="#E4A929" stop-opacity="1" /></linearGradient><path d="M122.6 301.5 C122.5 301.3 122.4 301 122.4 300.8 C122.4 297.2 134.9 294.2 150.2 294.2 C165.5 294.2 178 297.1 178 300.8 C178 301 177.9 301.3 177.8 301.5 C176.3 298.2 164.5 295.6 150.1 295.6 C135.7 295.6 124.1 298.2 122.6 301.5 z" id="j3" style="fill:url(#i3)" /></g></defs><desc>NDDN6HNE66H,/Jr+k7e9mdp7CBx2bQDHoHA4tWxt/C25XiBrUuO0J1p1YH8XBL+7R45HqEVZuOOIa7jM/JL3LGfirpqh/ykneohlYtsUPnQUSqP+Y67g5+w=</desc></svg>