<?xml version="1.0" encoding="utf-8"?><!DOCTYPE svg PUBLIC "-//W3C//DTD SVG 1.1//EN" "http://www.w3.org/Graphics/SVG/1.1/DTD/svg11.dtd"><svg x="0" y="0" width="340px" height="340px" viewBox="0, 0, 340, 340" preserveAspectRatio="xMidYMid" font-size="0" id="a" enable-background="new 0 0 340 340" xmlns="http://www.w3.org/2000/svg" xmlns:xlink="http://www.w3.org/1999/xlink" xmlns:xml="http://www.w3.org/XML/1998/namespace" version="1.1"><g id="b" fill="#000"><g id="c"><g transform="translate(0, 0) translate(0, 224)" id="d"><ellipse cx="168.6" cy="53.1" rx="57.8" ry="12.8" fill-opacity="0.25" id="e" /></g><g id="f"><g transform="translate(110.2, 104.3) translate(25.5, 135.5) scale(-1, 1) translate(-25.5, -135.5) translate(24, 134)" id="g" /><g transform="translate(120.5, 273.3) scale(1.555556) translate(-120.5, -273.3) translate(97.3, 122.1) translate(14, 108)" id="h"><path d="M2.1 21.4 C2.2 21.2 2.3 21 2.4 20.8 C2.5 20.1 2.5 19.4 2.7 18.7 C2.7 18.6 2.7 18.6 2.6 18.5 C2.2 19.4 1.3 20 0.4 20.2 C2 16.9 3.6 13.7 5.3 10.4 C4.7 10.5 4.1 10.6 3.5 10.7 C4.2 10.6 5.4 7.8 6.7 6.5 C6 5.9 5.5 5 5.4 4.1 C5.3 2.6 6.3 1.1 7.7 0.6 C7.4 1.6 7.8 2.8 8.7 3.4 C9.1 3.7 9.6 3.8 10.1 3.7 C10.7 3.2 11.2 2.9 11.8 2.7 C14.3 1.9 17.2 2.2 20 3.1 C22.8 4 23.9 33 24 41.7 C24 45.6 12.3 42.2 11.6 36.1 C9.7 33.5 7.4 32.4 5.6 30.6 C5.6 30.6 5.5 30.6 5.5 30.5 C3.9 29.7 2.7 28.2 2.2 26.5 C1.2 26.2 0.8 25 1 24.1 C1 23.1 1.6 22.2 2.1 21.4 z" id="i" fill="#B5997D" /><path d="M7.5 19 C8.9 15.6 10.4 13 13.3 10.8 C13.3 10.8 10.8 10.6 9.6 11.2 C10.2 9.8 12.7 7.1 15.3 5.3 C14.8 4.9 14.1 4.5 13.4 4.3 C15.4 2.8 18.2 2.6 20.6 3.5 C20.7 3.5 23.7 2.9 23.8 2.9 C26.3 3.3 34.3 4.7 35.8 6.4 C39.7 10.9 41.1 18.5 39.2 23.8 C36.9 30.5 23.8 27.2 23.7 41.6 L23.7 41.7 C22.9 41 22.2 40.5 21.9 40.4 C18.6 39.4 15 36.3 14.1 32.2 C13.8 30.9 14.1 29.7 13.6 29.8 C13.1 29.8 12.9 30.9 12.4 32.6 C12.5 31.8 11.5 28.7 10.6 28.7 C11 27.9 10.8 26.9 10.4 26.1 C10 25.3 9.4 24.6 9.1 23.8 C8.3 22 8.8 19.7 10.1 18.3 C9.4 18.5 8.5 18.8 7.5 19 z" id="j" fill="#CEB08D" /><path d="M11.5 36.1 L11.4 36 C15.3 36.5 19.1 37.8 22.4 39.9 C22.9 40.2 23.4 40.6 23.9 41 C23.9 41.2 23.9 41.4 23.9 41.7 C23.9 45.6 19.8 45.9 15.9 46.2 C12 46.5 7.2 46.2 6.8 41.2 C6.5 37.9 8.5 37.8 11.5 36.1 z" id="k" fill="#CECAC2" /><path d="M11.5 36 C9.6 33.5 7.3 32.4 5.6 30.6 C5.6 30.6 5.5 30.6 5.5 30.5 C3.9 29.7 2.7 28.2 2.2 26.5 C1.2 26.2 0.8 25 1 24.1 C1 23.1 1.6 22.2 2.1 21.4 L2.4 20.8 C2.5 20.1 2.5 19.4 2.7 18.7 C2.7 18.6 2.7 18.6 2.6 18.5 C2.2 19.4 1.3 20 0.4 20.2 C2 16.9 3.6 13.7 5.3 10.4 L3.5 10.7 C4.2 10.6 5.4 7.8 6.7 6.5 C6 5.9 5.5 5 5.4 4.1 C5.3 2.6 6.3 1.1 7.7 0.6 C7.4 1.6 7.8 2.8 8.7 3.4 C9.1 3.7 9.6 3.8 10.1 3.7 C10.7 3.2 11.2 2.9 11.8 2.7 C14.3 1.9 17.2 2.2 20 3.1 C20.1 3.1 20.3 3.3 20.4 3.4 C20.5 3.4 20.5 3.4 20.6 3.5 C20.7 3.5 23.7 2.9 23.8 2.9 C26.3 3.3 34.3 4.7 35.8 6.4 C39.7 10.9 41.1 18.5 39.2 23.8 C37.1 30 25.7 27.6 23.9 38.6 C23.9 39.8 23.9 40.9 24 41.7 C24 42 23.9 42.2 23.9 42.4 C23.4 45.7 19.6 45.9 15.9 46.2 C12 46.5 7.2 46.2 6.8 41.2 C6.5 37.9 8.5 37.8 11.5 36 L11.4 36 C11.4 36 11.5 36 11.5 36 z M6.2 29.4 C7.6 30.5 9.5 32.3 12.1 34.6 L13 36.4 C10.2 38 7.7 37.3 8 40.3 C8.4 44.9 12.6 43.7 16.2 43.4 C19.6 43.1 22.1 43.3 22.5 40.3 C22.6 40.1 22.9 38.6 22.9 38.4 C22.9 37.6 23.6 36.4 23.5 35.3 C25.2 25.2 36.1 29.2 38 23.5 C39.8 18.6 38.6 11.8 35 7.6 C33.6 6 26 4.2 23.7 3.9 C23.6 3.9 20.6 4 20.5 4 C20.4 4 20.4 4 20.3 3.9 C20.2 3.7 20.1 3.6 19.9 3.6 C17.3 2.8 14.6 2.5 12.3 3.2 C11.7 3.4 11.3 3.7 10.7 4.1 C10.2 4.2 9.3 4.8 9 4.5 C8.3 4.1 6.8 2.9 7.1 2 C5.9 3.2 6.1 3.4 6.2 4.8 C6.3 5.6 7.1 5.9 7.8 6.4 C6.5 7.6 6 9.5 5.4 9.6 L7 9.7 C6.2 11.2 5.3 12.3 4.6 13.7 C3.8 15.1 3.2 16.7 2.4 18.3 C3.2 18.1 3.6 17.8 4 17 C4 17 3.7 18.5 3.7 18.6 C3.5 19.2 3.6 19.8 3.5 20.4 L3 21.6 C2.5 22.3 2.4 22.1 2.4 23 C2.2 23.8 2.6 25.6 3.5 25.9 C3.7 26.6 4.5 28.1 6.2 29.4 z" opacity="0.15" id="l" /></g><g transform="translate(217.4, 273.3) scale(1.555556) translate(-217.4, -273.3) translate(121.3, 122.1) translate(84, 131.5) scale(-1, 1) translate(-84, -131.5) translate(63, 108)" id="m"><g id="n"><path d="M1.7 20.8 C1.8 20.6 1.9 20.4 2 20.2 C2.1 19.5 2.1 18.8 2.3 18.1 C2.3 18 2.3 18 2.2 17.9 C1.8 18.8 0.9 19.4 0 19.6 C1.6 16.3 3.2 13.1 4.9 9.8 C4.3 9.9 3.7 10 3.1 10.1 C3.8 10 5 7.2 6.3 5.9 C5.6 5.3 5.1 4.4 5 3.5 C4.9 2 5.9 0.5 7.3 0 C7 1 7.4 2.2 8.3 2.8 C8.7 3.1 9.2 3.2 9.7 3.1 C10.3 2.6 10.8 2.3 11.4 2.1 C13.9 1.3 16.8 1.6 19.6 2.5 C22.4 3.4 23.5 32.4 23.6 41.1 C23.6 45 11.9 41.6 11.2 35.5 C9.3 32.9 7 31.8 5.2 30 C5.2 30 5.1 30 5.1 29.9 C3.5 29.1 2.3 27.6 1.8 25.9 C0.8 25.6 0.4 24.4 0.6 23.5 C0.6 22.5 1.2 21.6 1.7 20.8 z" id="o" fill="#B5997D" /></g><path d="M11.5 36.1 L11.4 36 C15.3 36.5 19.1 37.8 22.4 39.9 C22.9 40.2 23.4 40.6 23.9 41 C23.9 41.2 23.9 41.4 23.9 41.7 C23.9 45.6 19.8 45.9 15.9 46.2 C12 46.5 7.2 46.2 6.8 41.2 C6.5 37.9 8.5 37.8 11.5 36.1 z" id="p" fill="#CECAC2" /><path d="M8 19 C9.4 15.6 10.9 13 13.8 10.8 C13.8 10.8 11.3 10.6 10.1 11.2 C10.7 9.8 13.2 7.1 15.8 5.3 C15.3 4.9 14.6 4.5 13.9 4.3 C15.9 2.8 18.7 2.6 21.1 3.5 C21.2 3.5 21.3 3.5 21.4 3.5 C23.7 4.4 31.8 5.7 33.9 6.6 C40.4 9.4 43.3 18.7 40.8 23.9 C37.3 31.1 24.6 26.2 24.3 41.7 L24.3 41.8 C23.5 41.1 22.8 40.6 22.5 40.5 C19.2 39.5 15.6 36.4 14.7 32.3 C14.4 31 14.7 29.8 14.2 29.9 C13.7 29.9 13.5 31 13 32.7 C13.1 31.9 12.1 28.8 11.2 28.8 C11.6 28 11.4 27 11 26.2 C10.6 25.4 10 24.7 9.7 23.9 C8.9 22.1 9.4 19.8 10.7 18.4 C9.9 18.5 9 18.8 8 19 z" id="q" fill="#CEB08D" /><path d="M20.3 3.3 C20.6 3.4 20.9 3.5 21.1 3.6 L21.4 3.6 C23.7 4.5 31.8 5.8 33.9 6.7 C40.4 9.5 43.3 18.8 40.8 24 C37.3 31.2 24.6 26.3 24.3 41.8 L24.3 41.9 C24.2 41.8 24 41.7 23.9 41.6 L23.9 41.8 C23.9 45.7 19.8 46 15.9 46.3 C12 46.6 7.2 46.3 6.8 41.3 C6.5 38.1 8.4 37.9 11.3 36.3 C11.2 36.1 11.2 35.8 11.2 35.6 C9.3 33 7 31.9 5.2 30.1 C5.2 30.1 5.1 30.1 5.1 30 C3.5 29.2 2.3 27.7 1.8 26 C0.8 25.7 0.4 24.5 0.6 23.6 C0.6 22.6 1.2 21.7 1.7 20.9 L2 20.2 C2.1 19.5 2.1 18.8 2.3 18.1 C2.3 18 2.3 18 2.2 17.9 C1.8 18.8 0.9 19.4 0 19.6 C1.6 16.3 3.2 13.1 4.9 9.8 L3.1 10.1 C3.8 10 5 7.2 6.3 5.9 C5.6 5.3 5.1 4.4 5 3.5 C4.9 2 5.9 0.5 7.3 0 C7 1 7.4 2.2 8.3 2.8 C8.7 3.1 9.2 3.2 9.7 3.1 C10.3 2.6 10.8 2.3 11.4 2.1 C13.9 1.3 16.8 1.6 19.6 2.5 C19.8 2.6 20.1 2.8 20.3 3.3 z M21.1 4.2 C20.8 4.1 20.6 4 20.3 4 C20.1 3.6 19.9 3.4 19.7 3.3 C17.1 2.5 14.5 2.2 12.2 2.9 C11.7 3.1 11.2 3.4 10.6 3.8 C10.1 3.9 9.2 4.1 8.8 3.8 C8.1 3.3 6.3 2.2 6.6 1.3 C5.6 2.4 6.1 2.9 6.2 4.3 C6.3 5.1 7.2 5.6 7.9 6.2 C6.6 7.3 5.7 9 5.1 9.1 L6.7 9.5 C5.1 12.5 3.5 13.9 2.1 16.9 C2.9 16.7 3.5 17.3 3.9 16.5 C4 16.6 3.6 17.4 3.6 17.5 C3.4 18.1 3.8 18.8 3.7 19.5 L3.4 20 C2.9 20.7 2.1 22 2.1 22.9 C1.9 23.7 2.6 24.4 3.5 24.7 C4 26.3 5.1 27.6 6.5 28.4 C6.5 28.5 6.6 28.5 6.6 28.5 C8.2 30.1 9.9 31.7 11.7 34.1 C12.2 35.1 12.6 36 12.6 36.2 C9.9 37.7 8 37.3 8.2 40.3 C8.6 44.9 12.6 44.3 16.1 44 C18.5 43.8 20.7 42.9 22.8 41.3 C23.7 38.8 24.9 32.6 26.4 31.4 C30.2 28.3 36.8 27.7 39 23 C41.3 18.2 38.6 9.8 32.7 7.2 C30.8 6.4 23.4 5.2 21.3 4.4 L21.1 4.4 z" opacity="0.15" id="r" /></g><g transform="translate(85.90001, 85.79997) translate(35, 41)" id="s"><path d="M14.8 19.9 C11.3 33.7 12.9 36.6 9.3 47.7 C5.7 58.8 1.3 70.5 3.2 87.6 C4.6 100.8 11.8 132.8 17.6 146.9 C19.3 151.1 22.5 152.3 23.4 152.6 C27.2 154.2 66.3 154.3 72.2 152.6 C73.3 152.3 76.3 151.4 77.8 148.1 C84.6 134.1 92.8 97 94.1 87.6 C96.2 75.3 92.7 55.1 88.5 47.9 C82.5 37.5 82.5 23 81.3 20.8 C79.3 16.1 75.6 10.6 66.6 4.4 C63.9 2.5 51.7 0.7 49.1 0.8 C45.4 0.9 37.4 2 34.5 4.5 C28.5 9.6 16.7 12.5 14.8 19.9 z" id="t" fill="#E5C498" /><path d="M14.8 19.9 C16.7 12.5 28.5 9.6 34.5 4.5 C37.4 2 45.4 0.9 49.1 0.8 C51.7 0.7 63.9 2.5 66.6 4.4 C75.6 10.6 79.3 16.1 81.3 20.8 C82.5 23 82.5 37.5 88.5 47.9 C92.7 55.1 96.2 75.3 94.1 87.6 C92.8 97 84.6 134.1 77.8 148.1 C76.3 151.4 73.3 152.3 72.2 152.6 C66.3 154.3 27.2 154.2 23.4 152.6 C22.5 152.3 19.3 151.1 17.6 146.9 C11.8 132.8 4.6 100.8 3.2 87.6 C1.3 70.5 5.7 58.8 9.3 47.7 C12.9 36.6 11.3 33.7 14.8 19.9 z M16.2 20.2 C12.8 33.5 14.4 36.3 10.9 46.9 C7.4 57.6 3.2 68.8 5 85.2 C6.4 97.8 13.3 128.6 18.9 142.1 C20.5 146.1 23.6 147.3 24.4 147.5 C28.1 149.1 65.6 149.2 71.2 147.5 C72.3 147.3 75.2 146.4 76.6 143.2 C83.1 129.8 91 94.2 92.3 85.2 C94.3 73.4 90.9 54 86.9 47.1 C81.1 37.1 81.1 23.2 80 21.1 C78.1 16.6 74.5 11.3 65.9 5.4 C63.3 3.5 51.6 1.8 49.1 1.9 C45.5 2 37.9 3.1 35.1 5.5 C29.3 10.3 18 13.1 16.2 20.2 z" opacity="0.15" id="u" /></g><g transform="translate(125.2, 165.85) scale(1, 1.123927) translate(-125.2, -179.2) translate(96.60001, 85.89996) translate(28, 92)" id="v"><path d="M8.3 7.6 C4.2 18.1 8.4 13.1 8.6 22.6 C16.4 36.1 36.9 54 44.4 54 C53 54 74.8 37.2 80.4 23.7 C82.6 18.6 83.5 14.1 82.6 9.9 C82.2 8.1 81 5.7 80.4 4.5 C78.9 1.8 80.1 13.2 69.5 20.9 C64.6 24.4 55.5 28.5 45.1 28.5 C33.2 28.5 25.6 23.5 19.9 18.8 C10.3 11 10.4 1.3 8.3 7.6 z" id="w" fill="#E3B988" /><path d="M7.8 8.9 C0.6 21.8 2.6 26.2 3.5 32.6 C4.5 39 4.5 43.6 6.4 48.3 C8.3 53 8.7 55.4 10.3 60.5 C11.8 65.5 13.8 72.5 14.6 77.4 C15 80.1 14.8 82.7 15.2 84.6 C15.6 86.2 16.6 87 16.1 88.2 C15.1 90.8 11.1 91.5 9 93.4 C6.9 95.3 5.9 99.5 6.6 100.7 C12.5 104.7 26.5 101 31.4 100 C31.6 99.9 32.6 93.5 31.4 92 C30.1 90.4 32.3 91 32.8 87.1 C34 83.8 34.1 64.2 35.1 59.4 C36.1 54.6 35.4 49 33.3 47.7 C28.2 44.5 27.3 43.8 23.7 38.6 C20.7 34.4 26.5 32.9 23.7 30.7 C21.5 29 14.5 26.9 12.6 24.4 C10.7 21.9 8.4 15.6 7.8 8.9 z" id="x" fill="#F3DEBB" /><path d="M8.9 91.7 C6.8 94.1 5.8 99.5 6.5 101.1 C12.4 106.2 26.4 101.5 31.3 100.2 C31.5 100 33.4 93.6 32.1 91.7 C31.8 91.3 31.8 90.8 31.9 90.3 C27.9 88 21.7 86.8 15.8 87.1 C14 88.9 10.5 89.8 8.9 91.7 z" id="y" fill="#E3B988" /><path d="M33.9 77.1 C34 67.9 35.7 56.1 36.4 52.9 C37.4 48.1 35.6 48.4 33.5 47.1 C28.4 43.9 27.7 43.5 24.1 38.3 C23.4 37.3 23.1 35.7 23.1 34.9 C20.6 37.5 20.9 47.2 23.7 51 C26 54.2 28.7 52.8 30.7 58.6 C31.9 62.1 32.3 64.2 32.3 66.7 C32.4 71.1 32.7 74.2 33.9 77.1 z" id="z" fill="#E3B988" /><path d="M82.3 8.9 C91.2 21.5 86.6 25.8 86.6 32.6 C86.6 38.9 83.4 44.1 81.8 49.6 C80.2 55.1 79.8 56.9 78.2 62 C77 66 76.1 74.9 75.1 79 C73.6 85.3 72.6 84.8 73.9 87.9 C74.9 90.5 79.1 91.3 81.2 93.2 C83.3 95.1 81.9 98.3 81.2 99.5 C75.3 103.5 64.8 100.5 59.9 99.5 C59.7 99.4 59.1 96 59.1 93.2 C59.1 90.7 56.7 90.6 56.4 86.1 C56.1 83 55.8 57.3 54.8 52.4 C53.8 47.5 54.8 48.8 56.8 47.6 C61.9 44.4 62.8 43.7 66.4 38.5 C69.4 34.3 63.6 32.8 66.4 30.6 C68.6 28.9 75.6 26.8 77.5 24.3 C79.3 21.8 81.6 15.6 82.3 8.9 z" id="a1" fill="#F3DEBB" /><path d="M80.1 90.7 C82.2 93.1 83.2 98.5 82.5 100.1 C76.6 105.2 62.6 100.5 57.7 99.2 C57.5 99 55.6 92.6 56.9 90.7 C57.2 90.3 57 89.9 56.9 89.4 C60.9 87.1 67.3 85.8 73.2 86.1 C75 87.9 78.5 88.8 80.1 90.7 z" id="b1" fill="#E3B988" /><path d="M56.1 77.1 C56 67.9 54.3 56.1 53.6 52.9 C52.6 48.1 54.4 48.5 56.4 47.3 C61.5 44.1 62.1 43.9 65.7 38.8 C66.4 37.8 66.8 35.5 66.7 34.7 C69.2 37.3 68.9 47.4 66.1 51.1 C63.8 54.3 61.1 52.9 59.1 58.7 C57.9 62.2 57.5 64.3 57.5 66.8 C57.6 71.1 57.3 74.2 56.1 77.1 z" id="c1" fill="#E3B988" /><path d="M44.4 54 C42.5 54 39.8 52.9 36.7 51 C36.7 51.5 36.6 52.2 36.4 52.9 C35.9 55.3 34.8 62.4 34.2 69.7 C34.1 71.9 34 74.1 33.9 76.3 C33.9 76.6 33.9 76.8 33.9 77.1 C33.6 81.7 33.3 85.7 32.8 87 C32.6 88.7 32 89.6 31.6 90.1 C31.7 90.2 31.8 90.2 31.9 90.3 C31.8 90.8 31.8 91.3 32.1 91.7 C33.4 93.6 31.5 100 31.3 100.2 C26.4 101.5 12.4 106.2 6.5 101.1 C5.8 99.5 6.8 94.1 8.9 91.7 C10.5 89.8 14 88.9 15.8 87.1 C15.9 87.1 16.1 87.1 16.2 87.1 C16 86.3 15.5 85.6 15.2 84.5 C14.8 82.7 15 80 14.6 77.3 C13.9 72.4 11.8 65.4 10.3 60.4 C8.7 55.3 8.3 52.9 6.4 48.2 C4.5 43.5 4.5 39 3.5 32.6 C2.6 26.2 0.6 21.8 7.8 8.9 C8 8.5 8.1 8.1 8.3 7.6 C10.4 1.3 10.3 11 19.9 18.8 C25.6 23.5 33.2 28.5 45.1 28.5 C55.5 28.5 64.6 24.4 69.5 20.9 C80.1 13.2 78.9 1.8 80.4 4.5 C81 5.5 81.9 7.4 82.4 9.1 C91.1 21.6 86.6 25.9 86.6 32.6 C86.6 38.9 83.4 44.1 81.8 49.6 C80.2 55.1 79.8 56.9 78.2 62 C77 66 76.1 74.9 75.1 79 C74 83.8 73.1 84.7 73.3 86.2 C75.1 87.9 78.5 88.8 80 90.6 C80.8 91.5 81.4 92.8 81.9 94.2 C82.1 94.5 82.1 94.9 82.2 95.2 C82.7 97.2 82.8 99.1 82.4 99.9 C76.5 105 62.5 100.3 57.6 99 C57.4 98.8 55.5 92.4 56.8 90.5 C57.1 90.1 56.9 89.7 56.8 89.2 C56.7 88.3 56.4 87.4 56.3 86 C56.2 85 56.1 81.4 56 76.9 C56 76.7 56 76.5 56 76.3 C56 75.6 56 75 55.9 74.3 C55.6 65.6 54.1 55.6 53.5 52.7 C53.3 51.9 53.2 51.3 53.2 50.7 C49.8 52.9 46.6 54 44.4 54 z M55.8 47.1 C55.8 47.6 55.1 52.6 55.2 53.4 C55.9 56.4 56.8 65.3 56.9 74.1 C57 74 57.2 82.1 57.3 83.1 C57.4 84.4 57.9 87.1 57.8 87.1 C57.9 87.6 58.9 89.5 58.6 89.8 C57.4 91.6 58.4 96.9 58.6 97.1 C63.3 98.3 75 102.6 80.6 97.7 C81 96.9 81.1 95.5 80.6 93.7 C80.6 93.4 79.4 91.6 78.6 90.7 C77.1 89 74 87.9 72.2 86.3 C72.8 80.6 74 72.8 76.1 62.7 C77.2 57.7 77.9 52.6 80.2 48.3 C82.5 44 83.4 42.7 85.4 32.5 C87.4 22.3 83.1 14.6 82.8 12.5 C82.5 10.4 81 8.5 80.2 7.2 C78.8 4.6 78.6 15.5 68.5 22.8 C64 26.3 54.9 32.1 45 32.1 C33.7 32.1 26.9 26 21.5 21.6 C12.3 14.2 10 3.6 8 9.5 C7.9 9.8 4.6 15.7 3.9 22.9 C3.6 26.1 4.7 31.9 5 33.8 C6 39.9 6.7 43 7.8 47.1 C8.9 51.2 10.7 56.3 12.2 61.1 C15 70.1 17.5 78 16 83.5 C15.8 83.5 17.1 87.5 16.9 87.5 C15.2 89.2 12.6 89.8 11.1 91.6 C9.1 93.9 7.7 97.1 8.3 98.7 C13.9 103.5 25.7 99.6 30.3 98.4 C30.5 98.2 31.9 92.8 30.7 91 C30.4 90.6 31.4 89.1 31.3 89 C31.7 88.5 31.6 87 31.8 85.3 C32.3 84 32.3 80.6 32.6 76.2 C32.7 76.4 33.6 55.5 34.3 52.4 C34.5 51.7 34.3 46.8 34.3 46.3 C37.3 48.1 38.2 52.4 44.4 52.4 C50.6 52.4 52.4 48.9 55.8 47.1 z" opacity="0.15" id="d1" /></g></g><g transform="translate(169.6, 177.3) scale(0.8378378) translate(-169.6, -177.3)" id="e1"><g transform="translate(109.9, 66.29997) translate(11, 26)" id="f1"><path d="M5.5 77 C0.1 65.8 -0.6 51.2 1 39.1 C3.2 27.2 8.5 25.2 15.8 17.9 C23.1 10.6 25.8 0.2 49.1 0.3 C72.3 0.4 73.5 8.3 79.9 14.4 C86.3 20.4 92.4 23.4 96.2 30.6 C100 37.8 101.2 59.8 96.2 71.2 C92 80.9 80.7 92.2 66.3 92.4 C54.5 93 51.9 93.8 40.2 93.8 C28.5 93.8 11.5 88.2 5.5 77 z" id="g1" fill="#E8CCA2" /><path d="M5.5 77 C0.1 65.8 -0.6 51.2 1 39.1 C3.2 27.2 8.5 25.2 15.8 17.9 C23.1 10.6 25.8 0.2 49.1 0.3 C72.3 0.4 73.5 8.3 79.9 14.4 C86.3 20.4 92.4 23.4 96.2 30.6 C100 37.8 101.2 59.8 96.2 71.2 C92 80.9 80.7 92.2 66.3 92.4 C54.5 93 51.9 93.8 40.2 93.8 C28.5 93.8 11.5 88.2 5.5 77 z M7.3 74.8 C13 85.6 29.3 90.9 40.6 90.9 C51.9 90.9 54.3 90.1 65.7 89.6 C79.5 89.4 90.4 78.6 94.4 69.2 C99.2 58.3 98 37.1 94.4 30.2 C90.8 23.3 84.9 20.4 78.7 14.6 C72.6 8.8 71.4 1.2 49.1 1.2 C26.7 1.1 24.1 11.1 17.1 18.1 C10.1 25.1 5 27 2.9 38.4 C1.4 50 2.1 64.1 7.3 74.8 z" opacity="0.15" id="h1" /></g><g transform="translate(138.4, 112.5) scale(1.2) translate(-138.4, -112.5) translate(93.80001, 74.29997) translate(21, 2)" id="i1"><g transform="translate(18.02073, 23.28844) scale(-1, 1) rotate(-6, 0, 0) translate(-18.02073, -23.28844) translate(2.520727, 1.788439)" id="j1"><path d="M1.7 25.8 C-1.9 23.8 -2.7 23.7 -1.4 20.5 C-0.1 17.3 2.4 17.8 5 15.3 C7.6 12.8 13.5 8.6 17.4 6.7 C21.3 4.8 23.7 2.5 25.7 4.7 C27.7 6.9 29.1 12.8 28 18.9 C26.9 25 23.5 30.4 23.1 33.3 C22.7 36.2 21.9 40.6 20.2 42.9 C19.7 43.6 18.2 45.3 17.3 45.8 C15.4 46.7 14 44.9 12.6 41.3 C12.3 40.4 10.5 34.3 8.6 32.4 C6.3 29.9 5.4 27.8 1.7 25.8 z" id="k1" fill="#E3B988" /><path d="M1.7 25.8 C-1.9 23.8 -2.7 23.7 -1.4 20.5 C-0.1 17.3 2.4 17.8 5 15.3 C7.6 12.8 13.5 8.6 17.4 6.7 C21.3 4.8 23.7 2.5 25.7 4.7 C27.7 6.9 29.1 12.8 28 18.9 C26.9 25 23.5 30.4 23.1 33.3 C22.7 36.2 21.9 40.6 20.2 42.9 C19.7 43.6 18.2 45.3 17.3 45.8 C15.4 46.7 14 44.9 12.6 41.3 C12.3 40.4 10.5 34.3 8.6 32.4 C6.3 29.9 5.4 27.8 1.7 25.8 z M3.9 24.6 C7.2 26.4 8 28.3 10 30.5 C11.7 32.2 13.3 37.7 13.6 38.5 C14.8 41.7 16.1 43.4 17.8 42.5 C18.6 42.1 19.9 40.5 20.4 39.9 C21.9 37.8 22.6 33.9 23 31.3 C23.4 28.7 26.4 23.8 27.4 18.3 C28.4 12.8 27.1 7.5 25.4 5.5 C23.6 3.5 21.5 5.6 18 7.3 C14.5 9 9.3 12.8 6.9 15 C4.5 17.2 2.4 16.8 1.2 19.7 C0 22.6 0.7 22.8 3.9 24.6 z" opacity="0.15" id="l1" /><path d="M5.7 24.6 C3.7 23.6 2.3 23 3.3 20.4 C3.9 18.9 7.5 16.8 10.9 14.2 C13.3 12.3 16.2 10.3 18 9.3 C20.6 7.8 21.8 6.3 23.5 7.6 C25.1 8.9 26.5 14.5 25.7 19.2 C24.9 24 20 35.8 18.7 37.6 C17.4 39.4 16.1 42.4 14.5 38.2 C12.9 34 12.6 31.4 10.9 29.6 C9.2 27.8 7.7 25.6 5.7 24.6 z" id="m1" fill="#CEB08D" /><path d="M8.2 26.4 C8.3 25.4 9.1 23.7 9.3 23.3 C9.6 22.7 12.3 21.1 14.6 19.7 C15.6 19 18.6 17.4 18.6 17.4 C20.2 16.5 20.1 19.9 18.6 22.6 C17.7 24.2 15.1 29.9 13.3 31.6 C12.7 32.2 12.2 31.1 11 29.5 C9.9 28.1 8.1 26.8 8.2 26.4 z" opacity="0.5" id="n1" fill="#E3B988" /></g></g><g transform="translate(202.5, 112.5) scale(1.2) translate(-202.5, -112.5) translate(102.3, 74.29997) translate(100.9, 24.5) scale(-1, 1) translate(-100.9, -24.5) translate(82.40002, 0)" id="o1"><g transform="translate(18.19189, 24.4854) scale(-1, 1) rotate(-7, 0, 0) translate(-18.19189, -24.4854) translate(2.691893, 2.485396)" id="p1"><path d="M5.4 26.9 C1.8 24.9 1 24.8 2.3 21.6 C3.6 18.4 6.1 18.9 8.7 16.4 C11.3 13.9 17.2 9.7 21.1 7.8 C25 5.9 27.4 3.6 29.4 5.8 C31.4 8 32.8 14 31.7 20.1 C30.7 26.2 27.1 31.6 26.8 34.5 C26.4 37.4 25.6 41.8 23.9 44.1 C23.4 44.8 21.9 46.5 21 47 C19.1 47.9 18.5 47.3 17.1 43.7 C16.8 42.8 17 42 16.7 41.2 C15.3 37.5 14.2 35.4 12.3 33.5 C9.9 31.1 9 29 5.4 26.9 z" id="q1" fill="#E3B988" /><path d="M5.4 26.9 C1.8 24.9 1 24.8 2.3 21.6 C3.6 18.4 6.1 18.9 8.7 16.4 C11.3 13.9 17.2 9.7 21.1 7.8 C25 5.9 27.4 3.6 29.4 5.8 C31.4 8 32.8 14 31.7 20.1 C30.7 26.2 27.1 31.6 26.8 34.5 C26.4 37.4 25.6 41.8 23.9 44.1 C23.4 44.8 21.9 46.5 21 47 C19.1 47.9 18.5 47.3 17.1 43.7 C16.8 42.8 17 42 16.7 41.2 C15.3 37.5 14.2 35.4 12.3 33.5 C9.9 31.1 9 29 5.4 26.9 z M7.1 25.9 C10.4 27.8 11.2 29.8 13.4 32 C15.1 33.8 16.2 35.7 17.4 39.1 C17.7 39.8 17.5 40.6 17.8 41.4 C19.1 44.7 19.6 45.3 21.4 44.4 C22.2 43.9 23.6 42.4 24.1 41.7 C25.7 39.6 26.4 35.5 26.8 32.8 C27.1 30.1 30.4 25.1 31.3 19.5 C32.3 13.9 31 8.3 29.2 6.3 C27.4 4.3 25.2 6.4 21.6 8.1 C18 9.8 12.6 13.7 10.2 16 C7.8 18.3 5.5 17.8 4.3 20.8 C3.1 23.8 3.8 24.1 7.1 25.9 z" opacity="0.15" id="r1" /><path d="M9.4 25.7 C7.4 24.7 6 24.1 7 21.5 C7.6 20 11.2 17.9 14.6 15.3 C17 13.4 19.9 11.4 21.7 10.4 C24.3 8.9 25.5 7.4 27.2 8.7 C28.8 10 30.2 15.6 29.4 20.3 C28.6 25.1 23.7 36.9 22.4 38.7 C21.1 40.5 19.8 43.5 18.2 39.3 C16.6 35.1 16.3 32.5 14.6 30.7 C12.9 29 11.4 26.8 9.4 25.7 z" id="s1" fill="#CEB08D" /><path d="M11.5 26.9 C11.6 25.9 12.8 24.9 13 24.5 C13.3 23.9 16 22.3 18.3 20.9 C19.3 20.2 22.3 18.6 22.3 18.6 C23.9 17.7 23.8 21.1 22.3 23.8 C21.4 25.4 18.8 31.1 17 32.8 C15.8 33.9 14.9 30.4 14.4 30.5 C13.3 28.9 11.4 27.8 11.5 26.9 z" opacity="0.5" id="t1" fill="#E3B988" /></g></g><g transform="translate(171.6, 144.0999) scale(1.3) translate(-171.6, -148.0999)" id="u1"><g transform="translate(94.50001, 66.99996) translate(58, 69)" id="v1"><g transform="translate(0.270427, 0.292308)" id="w1"><path d="M3.7 28.7 C4.6 29.8 7 30.1 9.2 30.8 C12.2 31.7 15.4 32.7 18.9 32.5 C19 32.5 23.5 32 25 31.9 C29.3 31.4 32.9 31.1 34.5 28.7 C35.1 27.5 36.1 23.3 35.9 21.1 C35.8 19.9 34.2 18.2 33.3 17 C34.5 17.2 35.1 17.1 37 18.3 C36.5 17.1 34.6 14.3 33.6 13.5 C31.5 11.8 29.4 10.7 28.1 9.7 C29.3 9.6 29.8 9.9 31.4 10.2 C30.3 8.9 27.3 6.3 25.8 5.9 C27.1 5.7 27.1 5.7 28.1 5.9 C27 4.4 21.7 1.4 21.1 0.8 C21 0.7 21.1 1.7 22.1 3 C22.9 4 24.5 5 25.3 6.4 C24 5.8 22.7 5.4 21.5 5.2 C24.7 8.1 26.6 10 27.3 11 C25.8 10.5 23.7 9.7 21.8 9.7 C24.5 11 30.1 17 30 17 C28.9 16.3 27.7 15.1 25.8 14.4 C23.6 13.5 20.7 13 18.3 13 C17.5 13 14.9 13.2 13.5 13.5 C10.7 14 8.9 15 8.2 15.5 C9.6 13.7 13.4 10.8 15.8 9.5 C13.8 9.1 11.7 10.2 10.1 11.2 C11.5 9.8 14.7 6.6 16.3 5.1 C15.2 5.3 14.2 5.6 12.6 6.1 C14.6 3.9 16.5 2.3 16.6 2.1 C16.7 1.9 16.9 1.7 17.1 0.6 C15.4 1.9 9.5 5.7 7.5 7.9 C9.5 7.7 9.8 7.5 11 7.6 C9.9 8 7.4 9.8 6.5 10.5 C7.8 10.6 7.8 10.7 8.4 11.1 C7.4 11.4 5.6 12.3 3.6 14 C2.2 15.2 1.2 17.6 0.9 18.2 C2.8 17.5 3 17.2 4.1 16.7 C3.8 17.4 2.5 18.4 2.4 19.6 C2.1 21.4 3 27.8 3.7 28.7 z" id="x1" fill="#F3DEBB" /><path d="M3.7 28.7 C3 27.8 2.1 21.4 2.4 19.6 C2.5 18.4 3.8 17.4 4.1 16.7 C3 17.2 2.8 17.5 0.9 18.2 C1.2 17.6 2.2 15.2 3.6 14 C5.6 12.3 7.4 11.4 8.4 11.1 C7.8 10.7 7.8 10.6 6.5 10.5 C7.4 9.8 9.9 8 11 7.6 C9.8 7.5 9.5 7.7 7.5 7.9 C9.5 5.7 15.4 1.9 17.1 0.6 C16.9 1.7 16.7 1.9 16.6 2.1 C16.5 2.3 14.6 3.9 12.6 6.1 C14.2 5.6 15.2 5.3 16.3 5.1 C14.7 6.6 11.5 9.8 10.1 11.2 C11.7 10.2 13.8 9.1 15.8 9.5 C13.4 10.8 9.6 13.7 8.2 15.5 C8.9 15 10.7 14 13.5 13.5 C14.9 13.2 17.5 13 18.3 13 C20.7 13 23.6 13.5 25.8 14.4 C27.7 15.1 28.9 16.3 30 17 C30.1 17 24.5 11 21.8 9.7 C23.7 9.7 25.8 10.5 27.3 11 C26.6 10 24.7 8.1 21.5 5.2 C22.7 5.4 24 5.8 25.3 6.4 C24.5 5 22.9 4 22.1 3 C21.1 1.7 21 0.7 21.1 0.8 C21.7 1.4 27 4.4 28.1 5.9 C27.1 5.7 27.1 5.7 25.8 5.9 C27.3 6.3 30.3 8.9 31.4 10.2 C29.8 9.9 29.3 9.6 28.1 9.7 C29.4 10.7 31.5 11.8 33.6 13.5 C34.6 14.3 36.5 17.1 37 18.3 C35.1 17.1 34.5 17.2 33.3 17 C34.2 18.2 35.8 19.9 35.9 21.1 C36.1 23.3 35.1 27.5 34.5 28.7 C32.9 31.1 29.3 31.4 25 31.9 C23.5 32 19 32.5 18.9 32.5 C15.4 32.7 12.2 31.7 9.2 30.8 C7 30.1 4.6 29.8 3.7 28.7 z M5.3 27.4 C6.1 28.4 8.2 28.7 10.2 29.3 C12.9 30.1 15.7 31 18.9 30.8 C19 30.8 23 30.4 24.4 30.3 C28.2 29.9 31.5 29.6 32.9 27.4 C33.4 26.3 35 23.6 34.9 21.7 C34.8 20.6 33.1 17.7 32.3 16.6 C33.1 16.5 34.2 16.2 35.9 17.2 C35.5 16.1 33.5 14.3 32.6 13.6 C30.7 12.1 28.3 10.1 27.1 9.2 C28.2 9.1 28.8 9.2 30.2 9.5 C29.7 8.9 28.7 8.2 27.6 7.5 C26.5 6.7 25.7 6.6 25.5 5.8 C26.1 5.5 26.6 5.2 27.1 5.3 C26.1 4 22.3 2.2 21.7 1.7 C21.6 1.6 23.1 2.8 24 3.9 C24.7 4.7 25.3 6.6 26.1 7.1 C24.9 6.6 23.7 5.7 22.6 5.6 C25.5 8.2 27.4 10.5 28 11.4 C26.7 11 24.8 10.1 23.1 10.1 C24 10.6 26 11.8 27.4 13.3 C29.6 15.5 31.3 18 31.3 18 C30.3 17.4 26.7 15.1 25 14.5 C23 13.7 20.4 13.2 18.3 13.2 C17.6 13.2 15.3 13.4 14 13.6 C11.5 14 8.1 16.1 7 16.3 C8 14 11.8 10.9 13.9 9.8 C12.1 9.4 10.7 10.6 9.3 11.5 C10.6 10.2 13.8 6.8 15.2 5.4 C14.2 5.6 13.1 5.7 11.7 6.2 C13.5 4.2 14.2 3.7 14.3 3.5 C14.4 3.3 16.2 2.2 16.4 1.3 C14.9 2.5 10.7 5 8.9 7 C10.7 6.8 10.9 6.9 12 7 C11 7.4 8.8 9.2 8 9.8 C9.2 9.9 9 10.3 9.5 10.6 C8.6 10.9 7.2 11.8 5.4 13.3 C4.1 14.4 2.9 16.2 2.6 16.7 C4.3 16.1 4.4 15.8 5.4 15.4 C5.1 16 4.1 18.4 4 19.5 C3.7 21.3 4.7 26.6 5.3 27.4 z" opacity="0.15" id="y1" /></g></g><g transform="translate(171.5, 177.4999) scale(1.6) translate(-171.5, -173.4999) translate(112.2, 87.89996) translate(55, 75)" id="z1"><g id="a2"><path d="M8.3 9.3 C6.7 8.2 5.3 6.6 4.7 4.7 C4.5 4.6 4.4 4.6 4.4 4.6 C4.4 4.6 4.3 4.6 4.1 4.7 C3.6 6.6 1.8 8.2 0.2 9.3 C1.7 9.9 4.4 10 4.4 10 C4.4 10 6.8 10 8.3 9.3 z" id="b2" fill="#CE5253" /><path d="M0.3 9.3 C0.3 9.3 0.5 9.3 0.7 9.4 C0.9 9.4 1.3 9.5 1.7 9.6 C2.5 9.7 3.4 9.9 4.3 9.9 C4.5 9.9 4.7 9.9 5 9.9 C5.2 9.9 5.4 9.9 5.6 9.8 C5.8 9.8 6 9.7 6.2 9.7 C6.4 9.7 6.6 9.6 6.8 9.6 C7.2 9.5 7.5 9.4 7.8 9.4 C8.1 9.3 8.2 9.3 8.2 9.3 C8.2 9.3 8.2 9.4 8 9.7 C7.9 9.9 7.7 10.3 7.4 10.6 C7.1 10.9 6.6 11.3 6.1 11.5 C5.5 11.7 4.9 11.9 4.2 11.8 C2.9 11.8 1.7 11.1 1.1 10.5 C0.8 10.2 0.5 9.9 0.4 9.6 C0.4 9.5 0.3 9.3 0.3 9.3 z" id="c2" fill="#282421" /><path d="M4.5 6.6 C3.9 6.6 3.5 6.2 3.5 5.6 L3.5 1.7 C3.5 1.1 3.9 0.7 4.5 0.7 C5.1 0.7 5.5 1.1 5.5 1.7 L5.5 5.6 C5.5 6.2 5.1 6.6 4.5 6.6 z" id="d2" fill="#282421" /></g></g><g transform="translate(171.6, 157.0999) scale(0.7) translate(-171.6, -157.0999) translate(88.89999, 81.09995) translate(70, 60)" id="e2"><g id="f2"><path d="M0.7 4.3 C1.1 1.6 6.7 0 8.1 0 C9.5 0 15.7 0 17.5 0 C19.3 0 22 1.3 23.3 2.5 C24.6 3.7 25.4 6.3 25 8.4 C24.5 10.5 21.3 18.8 17.3 19.2 C13.3 19.6 11.1 19.5 9 19 C6.9 18.5 0.7 13.4 0.7 8.4 C0.6 6.7 0.5 5.7 0.7 4.3 z" id="g2" /><path d="M14 3 C15.3 3 16.6 3.9 17.6 4 C19.1 4.2 20.1 3.2 20.1 2.5 C20.1 1.4 17.3 1 14 1 C10.7 1 6 1.1 6 2.2 C6 3.3 10.7 3 14 3 z" id="h2" fill="#FFF" /></g></g><g transform="translate(105.4, 72.79995) translate(44, 47)" id="i2"><g id="j2"><path d="M13 12.1 C10.4 11.1 7.2 11.3 4.8 12.7 C3.7 13.3 1.5 14.8 0.7 15.8 C-0.6 17.3 0.1 19.9 1.3 21.5 C2.5 23.1 4.3 24.2 6.3 24.5 C8.3 24.8 10.3 24.5 12.2 23.7 C14.5 22.8 16.7 21.1 17.2 18.6 C17.7 15.9 15.6 13.1 13 12.1 z" id="k2" fill="#474B4F" /><path d="M14.5 17.3 C14.2 16 13.5 13 10.2 13 C6.9 13 3.3 16.7 2 17.7 C2.7 19.6 5.4 21.2 7.8 21.5 C11.2 21.9 13.5 20.7 14.5 17.3 z" id="l2" fill="#282421" /><path d="M9.3 5.1 C8.7 4.7 8.1 4.2 7.9 3.5 C7.8 2.9 8.1 2.2 8.6 1.8 C10.3 0.1 12.2 0.2 13.1 0.1 C16.2 -0.1 16.9 2.6 16.4 5.2 C15.5 10.3 12.1 7 9.3 5.1 z" id="m2" fill="#F3DEBB" /><path d="M9.8 14.4 C9.4 14.3 7.5 14.9 7 15.2 C6.5 15.6 6.2 16.2 6.5 16.8 C6.7 17.3 7.3 17.5 7.9 17.4 C8.4 17.3 8.9 17.1 9.4 16.8 C10 16.4 10.8 15.9 10.7 15.2 C10.5 14.8 10.2 14.5 9.8 14.4 z" id="n2" fill="#F5FAFC" /></g></g><g transform="translate(104.8, 72.79995) translate(72, 47)" id="o2"><g id="p2"><path d="M5 12.1 C7.6 11.1 10.8 11.3 13.2 12.7 C14.3 13.3 16.5 14.8 17.3 15.8 C18.6 17.3 17.9 19.9 16.7 21.5 C15.5 23.1 13.7 24.2 11.7 24.5 C9.7 24.8 7.7 24.5 5.8 23.7 C3.5 22.8 1.3 21.1 0.8 18.6 C0.3 15.9 2.4 13.1 5 12.1 z" id="q2" fill="#474B4F" /><path d="M3.5 17.3 C3.8 16 4.5 13 7.8 13 C11.1 13 14.7 16.7 16 17.7 C15.3 19.6 12.6 21.2 10.2 21.5 C6.8 21.9 4.5 20.7 3.5 17.3 z" id="r2" fill="#282421" /><path d="M10.4 15.2 C10.1 14.9 8.4 14.3 7.8 14.3 C7.2 14.3 6.6 14.6 6.5 15.2 C6.4 15.7 6.7 16.2 7.2 16.4 C7.6 16.7 8.1 16.7 8.6 16.8 C9.3 16.9 10.1 16.9 10.5 16.3 C10.7 15.9 10.7 15.5 10.4 15.2 z" id="s2" fill="#F5FAFC" /><path d="M8.7 5.1 C9.3 4.7 9.9 4.2 10.1 3.5 C10.2 2.9 9.9 2.2 9.4 1.8 C7.7 0.1 5.8 0.2 4.9 0.1 C1.8 -0.1 1.1 2.6 1.6 5.2 C2.5 10.3 5.9 7 8.7 5.1 z" id="t2" fill="#F3DEBB" /></g></g></g></g></g></g><defs><g transform="translate(17.09519, 0.800995) translate(-135.2952, -293.601)" id="u2" fill="#000"><path d="M118.2 302.7 C118.4 307.4 132.5 311.2 149.8 311.2 C167.1 311.2 181.2 307.4 181.4 302.7 C181.4 307.5 181.4 310.1 181.4 310.5 C181.4 315.3 167.3 319.1 149.8 319.1 C132.3 319.1 118.2 315.2 118.2 310.5 L118.2 302.7 L118.2 302.7 z" fill-opacity="0.4528" id="v2" fill="#593001" /><path d="M118.7 301.7 C118.9 306.4 133 310.2 150.3 310.2 C167.6 310.2 181.7 306.4 181.9 301.7 C181.9 306.5 181.9 309.1 181.9 309.5 C181.9 314.3 167.8 318.1 150.3 318.1 C132.8 318.1 118.7 314.2 118.7 309.5 L118.7 301.7 L118.7 301.7 z" id="w2" fill="#DA8113" /><linearGradient x1="46.0545" y1="-118.6926" x2="45.4656" y2="-118.6926" gradientUnits="userSpaceOnUse" gradientTransform="matrix(117.135, 0, 0, 28.4634, -5208.417, 3687.795)" id="x2"><stop offset="0%" stop-color="#D9952A" stop-opacity="1" /><stop offset="6.438854%" stop-color="#CA7519" stop-opacity="1" /><stop offset="30.54%" stop-color="#E3AD3A" stop-opacity="1" /><stop offset="51.05%" stop-color="#FFEC91" stop-opacity="1" /><stop offset="68.8%" stop-color="#E9BD44" stop-opacity="1" /><stop offset="86.24%" stop-color="#FFED6C" stop-opacity="1" /><stop offset="93.87%" stop-color="#F2D353" stop-opacity="1" /><stop offset="100%" stop-color="#F2B947" stop-opacity="1" /></linearGradient><path d="M118.2 301.6 C118.4 306.1 132.7 309.7 150.3 309.7 C167.9 309.7 182.2 306.1 182.4 301.6 C182.4 306.2 182.4 308.7 182.4 309 C182.4 313.5 168 317.2 150.3 317.2 C132.6 317.2 118.2 313.5 118.2 309 L118.2 301.6 L118.2 301.6 z" id="y2" style="fill:url(#x2)" /><linearGradient x1="45.4914" y1="-117.9547" x2="45.9407" y2="-117.5895" gradientUnits="userSpaceOnUse" gradientTransform="matrix(115.425, 0, 0, 29.925, -5125.077, 3826.124)" id="z2"><stop offset="0%" stop-color="#F4E072" stop-opacity="1" /><stop offset="100%" stop-color="#DB9427" stop-opacity="1" /></linearGradient><ellipse cx="150.3" cy="301.5" rx="31.6" ry="8.2" id="a3" style="fill:url(#z2)" /><linearGradient x1="45.4656" y1="-126.0065" x2="46.0545" y2="-126.0065" gradientUnits="userSpaceOnUse" gradientTransform="matrix(117.135, 0, 0, 18.6219, -5208.417, 2651.479)" id="b3"><stop offset="0%" stop-color="#D9952A" stop-opacity="1" /><stop offset="6.438854%" stop-color="#CA7519" stop-opacity="1" /><stop offset="30.54%" stop-color="#E3AD3A" stop-opacity="1" /><stop offset="51.05%" stop-color="#FFEC91" stop-opacity="1" /><stop offset="68.8%" stop-color="#E9BD44" stop-opacity="1" /><stop offset="86.24%" stop-color="#FFED6C" stop-opacity="1" /><stop offset="93.87%" stop-color="#F2D353" stop-opacity="1" /><stop offset="100%" stop-color="#F2B947" stop-opacity="1" /></linearGradient><path d="M119.2 299.9 C119 300.2 118.9 300.6 118.9 301 C118.9 305.5 132.9 309.2 150.3 309.2 C167.7 309.2 181.7 305.5 181.7 301 C181.7 300.6 181.6 300.3 181.4 299.9 C182 300.5 182.4 301.2 182.4 301.9 C182.4 306.4 168 310.1 150.3 310.1 C132.6 310.1 118.2 306.4 118.2 301.9 C118.2 301.3 118.6 300.6 119.2 299.9 z" id="c3" style="fill:url(#b3)" /><linearGradient x1="45.196" y1="-121.5895" x2="45.3746" y2="-120.6758" gradientUnits="userSpaceOnUse" gradientTransform="matrix(101.745, 0, 0, 23.94, -4458.332, 3199.41)" id="d3"><stop offset="0%" stop-color="#F8DD61" stop-opacity="1" /><stop offset="100%" stop-color="#EAA330" stop-opacity="1" /></linearGradient><ellipse cx="150.3" cy="300.8" rx="27.8" ry="6.6" id="e3" style="fill:url(#d3)" /><linearGradient x1="45.5694" y1="-134.267" x2="45.0221" y2="-134.267" gradientUnits="userSpaceOnUse" gradientTransform="matrix(101.745, 0, 0, 13.2525, -4458.332, 2077.223)" id="f3"><stop offset="0%" stop-color="#F4CA2F" stop-opacity="1" /><stop offset="51.38%" stop-color="#BF7737" stop-opacity="1" /><stop offset="100%" stop-color="#E4A929" stop-opacity="1" /></linearGradient><path d="M122.6 301.5 C122.5 301.3 122.4 301 122.4 300.8 C122.4 297.2 134.9 294.2 150.2 294.2 C165.5 294.2 178 297.1 178 300.8 C178 301 177.9 301.3 177.8 301.5 C176.3 298.2 164.5 295.6 150.1 295.6 C135.7 295.6 124.1 298.2 122.6 301.5 z" id="g3" style="fill:url(#f3)" /></g></defs><desc>8CKEOELKBJ5,pbOgcjC+f0kzzpw3wZ4cYbKcE75lkwZOCl1kQfnKxmMOh2NClz7bONYufYkFh4Pkr+LDaN2FtJXjWfJKq48H9NK1+XjeAMbno8347Wu2N1k6hhSDsitucCoPaxj4FGje</desc></svg>