<?xml version="1.0" encoding="utf-8"?><!DOCTYPE svg PUBLIC "-//W3C//DTD SVG 1.1//EN" "http://www.w3.org/Graphics/SVG/1.1/DTD/svg11.dtd"><svg x="0" y="0" width="340px" height="340px" viewBox="0, 0, 340, 340" preserveAspectRatio="xMidYMid" font-size="0" id="a" enable-background="new 0 0 340 340" xmlns="http://www.w3.org/2000/svg" xmlns:xlink="http://www.w3.org/1999/xlink" xmlns:xml="http://www.w3.org/XML/1998/namespace" version="1.1"><g id="b" fill="#000"><g id="c"><g transform="translate(0, 0) translate(0, 224)" id="d"><ellipse cx="168.6" cy="53.1" rx="57.8" ry="12.8" fill-opacity="0.25" id="e" /></g><g id="f"><g transform="translate(86.8, 77.19998) translate(0, 161)" id="g"><path d="M0.4 6.2 C0.3 6.5 -0.6 7.7 0.7 12 C1.5 14.9 3.1 16.7 5.8 19.5 C9.2 23.1 11.9 25.4 15 26.2 C18.1 26.9 25.8 27.2 29.5 28.1 C33.5 29.1 38.9 32.7 41.2 34 C46 36.8 58.3 35.8 61.1 30.3 C62.5 27.5 64.6 23.5 64.1 19.5 C63.5 15.4 60.2 11.4 57.5 12 C52 13.2 48.6 13.1 43.4 13.8 C38.1 14.5 35.9 10.9 29.4 10.9 C26.4 10.9 22.2 10.1 16.3 10.9 C13.7 11.2 8.7 9.6 6.8 8.3 C5.9 7.7 3.6 5.9 2.7 5.5 C1.5 5 0.9 5.2 0.4 6.2 z" id="h" fill="#51403C" /><g transform="translate(0, 5)" id="i"><path d="M37.6 7.9 C34.9 7.5 32.7 6.1 28.6 6.5 C26.1 6.8 22.4 6.5 17.5 7.7 C15.3 8.2 11 7.3 9.2 6.3 C8.4 5.9 6.3 4.6 5.5 4.3 C4.4 4 4 4.2 3.6 5.1 C3.6 5.4 2.9 6.5 4.4 10 C5.3 12.4 6.8 13.8 9.4 15.9 C12.6 18.6 15.1 20.3 17.8 20.8 C20.5 21.1 27 20.7 30.2 21.1 C33.7 21.6 38.6 24.2 40.6 25.1 C44.9 27 55.2 25.1 57.1 20.2 C58 17.7 59.5 14.1 58.7 10.8 C58.4 9.5 57.7 8.2 56.9 7.2 C57.1 7.2 57.3 7.1 57.5 7.1 C60.2 6.5 63.5 10.5 64.1 14.6 C64.6 18.6 62.5 22.6 61.1 25.4 C58.3 30.8 46 31.8 41.2 29 C38.9 27.7 33.5 24.1 29.5 23.1 C25.8 22.2 18.1 21.9 15 21.2 C11.9 20.4 9.2 18.1 5.8 14.5 C3.1 11.7 1.5 9.9 0.7 7 C-0.6 2.7 0.3 1.5 0.4 1.2 C0.9 0.2 1.5 0 2.7 0.5 C3.6 0.9 5.9 2.7 6.8 3.3 C8.7 4.6 13.7 6.2 16.3 5.9 C22.2 5.1 26.4 5.9 29.4 5.9 C33 5.9 35.3 7 37.6 7.9 z" fill-opacity="0.3" id="j" /></g></g><g transform="translate(122.3, 272.3) scale(2.063776) translate(-122.3, -272.3) translate(123.9, 273.9) scale(1) translate(-117.9, -273.9) translate(102.7, 105.8) translate(7, 133)" id="k"><g transform="translate(14.5, 18.5) scale(-1, 1) translate(-14.5, -18.5)" id="l"><path d="M10.9 1.8 C19.7 -2.5 29.1 6.3 28.7 13.6 C28.4 21.8 22.8 28.1 12.2 32.4 C4.7 34.3 0.7 34.5 0.5 33 C0 30.7 2.1 6.1 10.9 1.8 z" id="m" fill="#51403C" /><path d="M25.5 33.3 C24.2 35.1 22.3 35.9 20.6 36.1 C18.9 36.3 12.9 35.8 11 36.1 C9 36.4 6.2 35.9 6.2 34.2 C6.2 32.5 4.8 27.4 10.5 25.2 C10.9 25.1 12.7 22.4 13.1 22.2 C13.6 22 12.6 24.3 13.1 24.1 C14.2 23.5 15.3 22.8 16.1 21.9 C16.4 21.5 16.7 24.4 17.2 24.4 C17.5 24.4 18.4 23.7 18.6 23.1 C18.8 22.6 18.6 24.6 18.9 24.7 C20.7 25.1 22.1 25.8 22.7 26.2 C25.1 27.9 26.8 31.6 25.5 33.3 z" id="n" fill="#FFF" /><path d="M20.6 25.9 C25.1 22.4 27.6 18.1 27.7 12.9 C28.1 6.1 19.3 -2.1 11.1 1.9 C2.9 5.9 1 28.9 1.4 31 C1.5 32 3.3 32.2 6.7 31.6 C6.7 31.8 6.7 31.9 6.7 32.1 C6.7 33.7 9.3 34.2 11.2 33.9 C13 33.6 18.6 34.1 20.2 33.9 C21.8 33.7 23.6 33 24.8 31.3 C26 29.7 22.9 27.5 20.6 25.9 z M22.6 26.2 C22.7 26.2 22.7 26.2 22.6 26.2 C25.1 27.9 26.8 31.6 25.5 33.3 C24.2 35.1 22.3 35.9 20.6 36.1 C18.9 36.3 12.9 35.8 11 36.1 C9 36.4 6.2 35.9 6.2 34.2 C6.2 34.1 6.2 33.9 6.2 33.7 C2.6 34.3 0.6 34 0.5 33 C0 30.7 2.1 6.1 10.9 1.8 C19.7 -2.5 29.1 6.3 28.7 13.6 C28.5 18.5 26.5 22.7 22.6 26.2 z" opacity="0.15" id="o" /></g></g><g transform="translate(215.3, 272.2999) scale(2.063776) translate(-215.3, -272.2999) translate(213.7, 273.8999) scale(1) translate(-219.7, -273.8999) translate(113.7, 105.8) translate(99, 151.5) scale(-1, 1) translate(-99, -151.5) translate(84, 133)" id="p"><g transform="translate(15, 18.5) scale(-1, 1) translate(-15, -18.5)" id="q"><path d="M11.2 1.8 C20 -2.5 29.4 6.3 29 13.6 C28.6 21.8 23.1 28.1 12.5 32.4 C5 34.3 1 34.5 0.8 33 C0.3 30.7 2.4 6.1 11.2 1.8 z" id="r" fill="#51403C" /><path d="M25.8 33.3 C24.5 35.1 22.6 35.9 20.9 36.1 C19.2 36.3 13.2 35.8 11.3 36.1 C9.3 36.4 6.5 35.9 6.5 34.2 C6.5 32.5 5.1 27.4 10.8 25.2 C11.2 25.1 11.7 25.1 11.9 24.8 C13.3 22.7 14.6 21.1 15.1 20.9 C16.1 20.6 15 24.2 15.8 24.2 C16.3 24.2 17 23.2 18.1 22.4 C19.2 21.6 17.9 24.3 18.4 24.4 C20.4 24.8 22.4 25.5 23 26 C25.4 27.9 27.1 31.6 25.8 33.3 z" id="s" fill="#FFF" /><path d="M23 26 C25.4 27.9 27 31.6 25.8 33.3 C24.5 35.1 22.6 35.9 20.9 36.1 C19.2 36.3 13.2 35.8 11.3 36.1 C9.3 36.4 6.5 35.9 6.5 34.2 C6.5 34.1 6.5 33.9 6.5 33.7 C2.9 34.3 0.9 34 0.8 33 C0.3 30.7 2.4 6.1 11.2 1.8 C20 -2.5 29.4 6.3 29 13.6 C28.8 18.4 26.8 22.6 23 26 z M21.1 25.8 C25.6 20.2 27.9 15.9 28 13 C28.4 6.2 19.6 -2 11.5 2 C3.4 6 1.3 28.8 1.8 31 C1.9 32 3.7 32.2 7.1 31.6 C7.1 31.8 7.1 31.9 7.1 32.1 C7.1 33.7 9.7 34.1 11.6 33.9 C13.4 33.6 18.9 34.1 20.5 33.9 C22.1 33.7 23.8 33 25.1 31.3 C26.2 29.7 23.3 27.6 21.1 25.8 z" opacity="0.15" id="t" /></g></g><g transform="translate(86.90001, 76.79997) translate(29, 49)" id="u"><path d="M88.8 24.6 C92.3 31.7 95.8 53 97.8 59.4 C99.8 65.8 98.9 80.9 99 89.1 C99.1 97.3 87.5 146.2 83.3 150.5 C81.7 152.2 75.1 153.6 64.6 153.6 C60.8 153.6 55.4 151.6 52.3 151.6 C48.8 151.6 43.2 153.7 39.8 153.6 C30.1 153.2 24.2 152.1 22.8 150.5 C19.1 146.2 6.9 103 6.5 91.8 C6.1 80.6 3.2 69.8 7.6 59.4 C10.8 52.4 13.5 40.8 16 24.6 C17.2 17.2 38.4 0.2 52.3 0.2 C73.1 0.2 85.3 17.5 88.8 24.6 z" id="v" fill="#E2DED5" /><g transform="translate(5, 0)" id="w"><path d="M83.8 24.6 C87.3 31.7 90.8 53 92.8 59.4 C94.8 65.8 93.9 80.9 94 89.1 C94.1 97.3 82.5 146.2 78.3 150.5 C76.7 152.2 70.1 153.6 59.6 153.6 C55.8 153.6 50.4 151.6 47.3 151.6 C43.8 151.6 38.2 153.7 34.8 153.6 C25.1 153.2 19.2 152.1 17.8 150.5 C14.1 146.2 1.9 103 1.5 91.8 C1.1 80.6 -1.8 69.8 2.6 59.4 C5.8 52.4 8.5 40.8 11 24.6 C12.2 17.2 33.4 0.2 47.3 0.2 C68.1 0.2 80.3 17.5 83.8 24.6 z M83 24.8 C79.6 17.8 67.6 0.9 47.3 0.9 C33.7 0.9 13 17.5 11.8 24.8 C9.4 40.6 6.7 52 3.6 58.8 C-0.7 69 2.1 79.5 2.5 90.4 C2.9 101.3 14.8 143.6 18.5 147.8 C19.9 149.4 25.6 150.4 35.1 150.8 C38.4 150.9 43.9 148.8 47.3 148.8 C50.3 148.8 55.6 150.8 59.3 150.8 C69.6 150.8 76 149.4 77.6 147.8 C81.7 143.6 93 95.8 92.9 87.8 C92.8 79.8 93.7 65 91.8 58.8 C89.8 52.5 86.4 31.7 83 24.8 z" fill-opacity="0.2" id="x" /></g></g><g transform="translate(116.17, 164.84) scale(1.2, 1.11968) translate(-124.9, -179.5999) translate(109.6, 96.79996) translate(59, 136) scale(-1, 1) translate(-59, -136) translate(16, 84)" id="y"><path d="M10.2 21.5 C10.3 21.2 21.2 -0.7 27.1 1.2 C31.4 2.6 35.1 7.2 36.8 10.5 C38.5 13.8 43 34.1 39.9 40.8 C37.7 45.5 33.3 46.5 28.3 45.3 C28 49 27.7 51.8 27.2 53.1 C26.2 62.6 31 81.3 32.2 92 C31.5 105 22.7 103.5 16.9 102.2 C13.4 101.4 10.8 99 12.4 94.9 C12.9 93.6 13.6 92.2 14.2 90.8 C14.7 84.8 13.6 79.1 12.3 72.9 C11.1 67.4 10.2 21.5 10.2 21.5 z" id="z" fill="#FEFEFE" /><path d="M75.8 21.5 C75.7 21.2 64.8 -0.7 58.9 1.2 C54.6 2.6 50.9 7.2 49.2 10.5 C47.5 13.8 43 34.1 46.1 40.8 C48.3 45.5 52.7 46.5 57.7 45.3 C58 49 58.3 51.8 58.8 53.1 C59.8 62.6 55 81.3 53.8 92 C54.5 105 63.3 103.5 69.1 102.2 C72.6 101.4 75.2 99 73.6 94.9 C73.1 93.6 72.4 92.2 71.8 90.8 C71.3 84.8 72.4 79.1 73.7 72.9 C75.1 67.4 75.8 21.5 75.8 21.5 z" id="a1" fill="#FEFEFE" /><path d="M9.6 11.2 C11.4 8 16.2 2.9 17.2 1.8 C20.5 -0.8 30.2 -1.2 32 8.4 C32.8 11.9 30.3 16.7 28.9 18.7 C28.4 19.4 28.1 19.9 28 20.3 C27.9 21 28.5 22.6 29.1 24.8 C29.9 27.7 30.6 31.5 29.2 34.9 C28.9 35.5 28.6 36.1 28.2 36.7 C25.6 40.3 21.2 37.3 17.7 39.2 C17.7 39.4 17.6 39.6 17.6 39.7 C15.8 49.4 23.5 59.2 21.3 70.8 C20.7 74.1 16.9 76.3 12.6 74.8 C11.3 68.6 9.5 62.1 8.7 54.5 C3.3 48.8 -0.6 44.9 1.1 28.6 C2.1 19.3 5.8 14.9 9.6 11.2 z" id="b1" fill="#7F6458" /><path d="M26.9 1.1 C27 1.2 27 1.2 27.1 1.2 C31.4 2.6 35.1 7.2 36.8 10.5 C38.5 13.8 43 34.1 39.9 40.8 C37.7 45.5 33.3 46.5 28.3 45.3 C28 49 27.7 51.8 27.2 53.1 C26.2 62.6 31 81.3 32.2 92 C31.5 105 22.7 103.5 16.9 102.2 C13.4 101.4 10.8 99 12.4 94.9 C12.9 93.6 13.6 92.2 14.2 90.8 C14.6 85.4 13.8 80.3 12.7 74.8 C12.7 74.8 12.6 74.8 12.6 74.8 C11.3 68.6 9.5 62.1 8.7 54.5 C3.3 48.8 -0.6 44.9 1.1 28.6 C2.1 19.3 5.8 14.9 9.6 11.2 C11.4 8 16.2 2.9 17.2 1.8 C19.2 0.3 23.4 -0.5 26.9 1.1 z M26.7 2.1 C26.7 2.1 26.6 2.1 26.5 2 C23.2 0.5 19.3 1.2 17.4 2.7 C16.5 3.7 11.9 8.6 10.2 11.6 C6.7 15.1 3.2 19.3 2.2 28.2 C0.6 43.7 5.5 48.5 10.6 54 C11.4 61.2 11.8 66.2 13.2 72.2 C14.2 77.4 14.9 82 15.5 86 C15.5 88.3 15.8 90.3 15.3 91.5 C13.8 95.4 13.8 97.4 17.1 98.2 C22.6 99.4 29.7 101.8 30.4 89.4 C29.3 79.2 24.9 61.1 25.8 52 C26.3 50.8 27 47.1 27.3 43.6 C32 44.7 36.7 44.3 38.8 39.8 C41.7 33.4 37.5 14.1 35.9 10.9 C34.3 7.8 30.8 3.4 26.7 2.1 z" opacity="0.15" id="c1" /><path d="M76.6 11.2 C74.8 8 69.9 2.9 68.9 1.8 C65.6 -0.8 55.9 -1.2 54.1 8.4 C53.3 11.9 55.8 16.7 57.2 18.7 C57.7 19.4 58 19.9 58.1 20.3 C58.2 21 57.6 22.6 57 24.8 C56.2 27.7 55.5 31.5 56.9 34.9 C57.2 35.5 57.5 36.1 57.9 36.7 C60.5 40.3 64.9 37.3 68.4 39.2 C68.4 39.4 68.5 39.6 68.5 39.7 C70.3 49.4 62.6 59.2 64.8 70.8 C65.4 74.1 69.2 76.3 73.5 74.8 C74.8 68.6 76.6 62.1 77.4 54.5 C82.8 48.8 86.7 44.9 85 28.6 C83.9 19.3 80.2 14.9 76.6 11.2 z" id="d1" fill="#7F6458" /><path d="M73.3 74.9 C72.2 80.3 71.4 85.4 71.8 90.8 C72.4 92.2 73.1 93.6 73.6 94.9 C75.2 99 72.6 101.4 69.1 102.2 C63.3 103.5 54.5 105 53.8 92 C55 81.3 59.8 62.6 58.8 53.1 C58.3 51.8 58 49 57.7 45.3 C52.7 46.5 48.3 45.5 46.1 40.8 C43 34.1 47.5 13.8 49.2 10.5 C50.9 7.2 54.6 2.6 58.9 1.2 C59 1.2 59.2 1.1 59.3 1.1 C62.8 -0.5 66.9 0.3 68.9 1.8 C69.9 2.9 74.8 8 76.6 11.2 C80.2 14.9 83.9 19.3 85 28.6 C86.7 44.9 82.8 48.8 77.4 54.5 C76.6 62.1 74.8 68.6 73.5 74.8 C73.4 74.8 73.4 74.8 73.3 74.9 z M72.6 73.1 C74.4 64.5 75.5 57.8 76 53 C81.2 47.6 85 42.8 83.4 27.3 C82.3 18.5 79.5 14.6 76 11.1 C74.3 8 68.8 3.6 67.8 2.6 C66 1.1 62.9 1 59.6 2.6 C59.4 2.6 59.3 2.6 59.2 2.7 C55.1 4 51.6 8.4 50 11.5 C48.4 14.6 44.9 33.2 47.8 39.5 C49.9 44 54 44.4 58.7 43.2 C59 46.7 59.8 51.8 60.2 53 C61.2 62.1 57 78.6 55.8 88.8 C56.5 101.2 63.4 100 68.9 98.7 C72.2 98 72.8 96.4 71.3 92.5 C70.8 91.3 70.5 90.1 70.5 88.1 C70.1 83 71.5 78.3 72.6 73.1 z" opacity="0.15" id="e1" /></g></g><g id="f1"><g transform="translate(-286.1, 53.09998) translate(18, 27)" id="g1"><g id="h1"><path d="M395.9 33 C395.5 43 395.1 49.9 394.5 53.9 C392.6 68.8 389.8 77.4 388.2 79.4 C386 82.2 384.5 84.4 383.6 85.8 L390.6 84.8 L388.2 91.5 L393 88 C405.9 96.6 414.5 102 419 104.2 C424.2 106.7 430 107.6 432.1 107.8 C436.9 108.3 440.6 108.3 443.1 107.8 C454.1 104.1 461.6 101.1 465.8 99 C470 96.8 474.9 92.8 480.4 87 L486.6 88 L485.3 83.4 C484 80.4 483.4 78.7 483.6 78.2 C483.7 77.7 486.1 77.7 490.8 78.2 L483.6 67.4 C481.3 59.8 480 54.4 479.7 51.2 C479.4 48 479.2 42.6 478.9 35 C478.1 31.4 476.5 29 474.3 27.9 C472 26.7 470.5 28.1 469.8 31.9 L474.3 80.3 L449.4 98.8 L431.4 98.8 C415.7 92.4 407.4 89.2 406.5 89.2 C405.6 89.2 403.5 85.1 400 76.9 L405 27.8 C402.5 26.5 400.8 26.2 399.7 26.8 C398.6 27.6 397.3 29.6 395.9 33 z" id="i1" fill="#7F6458" /><path d="M425.8 7.7 L398.5 28.5 C399.7 37.8 399.7 47 398.5 56.1 C397.3 65.3 395.9 72.4 394.3 77.4 L392.5 80.6 L397.1 78.7 L394.4 82.3 L398.6 82.3 C407.9 91.9 413.9 97.4 416.6 98.8 C420.6 100.9 425.4 104.7 431.2 106 C437 107.3 444.5 107.4 457.8 98.8 C466.7 93.1 473.3 86.6 477.5 79.4 L481.9 82.3 L479.2 72.9 L483.8 75.9 L479.2 68.3 C478 60.9 477.4 55.9 477.2 53.3 C476.6 42.9 476.2 38.6 476.2 36.4 C476.2 33.5 467.9 23.9 451.2 7.9 L425.8 7.9 L425.8 7.7 z" id="j1" fill="#FEFEFE" /><path d="M477 36.3 C477 30.4 478.2 31.3 473.5 26.1 C466.5 18.5 452.3 8.8 451.1 7.7 C449 5.8 427.2 6.4 425.6 7.1 C423.9 7.9 398.9 25.7 397.9 28.7 C396.9 31.7 399.5 43.2 398.9 50.5 C400.9 50.9 403 51.1 404.9 49.8 C406.8 48.5 409 44.9 411 45.8 C413.9 47.1 413.8 66.8 422.1 68.1 C425.2 68.6 432.7 56.3 437.5 56.2 C441 56 448.4 68.7 451 68 C461 65.2 465.3 45.6 468.4 48.3 C471.9 51.3 473.4 52 476.5 48.3 C477 47.8 477 42.1 477 36.3 z" id="k1" fill="#7F6458" /><path d="M405.7 49.1 C405.8 50.4 416.2 71.4 418.3 80.1 C420.4 88.8 420 101.4 436.2 100.8 C452.4 100.2 453 99.1 456.8 80.1 C460.6 61.1 468.6 50.2 468.5 48.7 C468.4 47.2 467 46.4 463.2 42.7 C459.5 39.1 456.4 31.4 450.2 31.3 C445.7 31 436.5 40.9 447.9 54.4 C448.6 55.1 454 65.1 452.2 65.9 C450.4 65.9 448.9 63.2 446.5 60.8 C445.3 59.6 442.6 58.1 441.6 56.7 C438.4 52.1 439.4 26.8 438 26.8 C436.5 26.7 435.1 52.6 433.7 56.7 C433 58.9 431.1 59.2 429.4 60.8 C426.8 63.2 424.2 66.2 423 65.9 C421.5 65.7 423.9 57.6 426.6 55.7 C434.5 48.9 431.5 31.4 426.6 31.4 C421 29.9 417.4 36.5 414.1 40.2 C410.7 43.9 405.5 47.8 405.7 49.1 z" id="l1" fill="#FEFEFE" /><path d="M397.6 29.4 C397.6 29.1 397.7 28.9 397.8 28.7 C398.8 25.7 423.8 7.9 425.5 7.1 C427.2 6.4 449 5.8 451 7.7 C452.2 8.8 466.4 18.5 473.4 26.1 C475.2 28.1 476.1 29.2 476.6 30.1 C477.6 31.4 478.3 33.1 478.8 35.2 C479.1 42.8 479.3 48.2 479.6 51.4 C479.9 54.6 481.2 60 483.5 67.6 L490.7 78.4 C486 77.9 483.6 77.9 483.5 78.4 C483.3 78.9 483.9 80.6 485.2 83.6 L486.5 88.2 L480.3 87.2 C474.8 93 469.9 97 465.7 99.2 C461.5 101.3 454 104.3 443 108 C440.5 108.5 436.8 108.5 432 108 C429.9 107.8 424.1 106.9 418.9 104.4 C414.3 102.2 405.7 96.8 392.9 88.2 L388.1 91.5 L390.5 84.8 L383.5 85.8 C384.4 84.4 385.9 82.2 388.1 79.4 C389.7 77.4 392.5 68.8 394.4 53.9 C395 49.9 395.4 43 395.8 33 C396.5 31.5 397.1 30.3 397.6 29.4 z M399.8 28.6 C399.7 28.8 399.7 29 399.7 29.3 C399.2 30.2 398.6 31.3 398 32.7 C397.6 42.2 397.2 48.7 396.7 52.5 C394.9 66.6 393.5 74.7 392 76.6 C389.9 79.3 387.7 82.4 386.9 83.7 L393 81.8 L390.7 88.2 L396.1 86.4 C408.3 94.6 415.7 98.4 420.1 100.4 C425 102.8 430.5 103.6 432.5 103.8 C437.1 104.3 440.6 104.3 442.9 103.8 C453.3 100.3 460.5 97.4 464.4 95.4 C468.4 93.3 473 89.5 478.3 84 L484.2 84.9 L483 80.5 C481.8 77.7 481.1 77 481.3 76.6 C481.4 76.1 482.5 75.5 486.9 76 L481.3 65.3 C479.1 58.1 477.9 53 477.6 49.9 C477.3 46.9 477.1 41.7 476.8 34.5 C476.4 32.5 475.6 30.9 474.7 29.7 C474.3 28.8 473.4 27.8 471.7 25.9 C465.1 18.9 451.6 9.7 450.5 8.6 C448.5 6.8 427.8 7.4 426.2 8 C424.6 8.8 400.8 25.7 399.8 28.6 z" opacity="0.15" id="m1" /></g></g><g transform="translate(103.3, 89.49997)" id="n1"><g id="o1"><path d="M43.8 4.7 C43.8 4.7 46 6.8 47.8 8.8 C51.2 12.7 49.4 16.5 45.6 18.1 C43.1 19.2 40.1 20.6 38 22.9 C35.6 25.5 33 28 31.3 30.2 C29.5 32.5 27.2 34.1 25 33.6 C19.8 32.4 15.4 21.2 17.5 17.2 C20.9 10.8 43.8 4.7 43.8 4.7 z" id="p1" fill="#51403C" /><path d="M18.4 16 C18.4 15.8 18.5 15.5 18.6 15.3 C21 10.9 32.4 7.6 38.3 6.3 C41.5 5.3 43.8 4.7 43.8 4.7 C43.8 4.7 46 6.8 47.8 8.8 C51.2 12.7 49.4 16.5 45.6 18.1 C43.1 19.2 40.1 20.6 38 22.9 C35.6 25.5 33 28 31.3 30.2 C29.5 32.5 27.2 34.1 25 33.6 C19.8 32.4 15.4 21.2 17.5 17.2 C17.7 16.8 18 16.4 18.4 16 z M18.4 16 C17.1 20.2 20.7 29.6 25.3 30.7 C27.4 31.2 29.2 30.1 30.9 27.9 C32.5 25.9 35.2 23.7 37.4 21.3 C39.4 19.1 43.2 17.6 45.5 16.6 C49 15.1 49 11.9 45.8 8.3 C44.1 6.4 42.9 5.7 41.8 5.7 C41.6 5.7 40.2 5.9 38.3 6.3 C32 8.4 21.9 12.1 18.4 16 z" opacity="0.2" id="q1" /><path d="M45.2 6 C36.5 -2.4 38.1 3.6 23.1 0.9 C8.1 -1.8 -4.2 15.2 2 35.3 C7.5 53.2 8 60.6 11.3 60.6 C17 60.6 19.2 40 27.1 24.3 C33 12.9 45.2 6 45.2 6 z" id="r1" fill="#7F6458" /><path d="M45.2 6 C45.2 6 33 12.9 27.1 24.3 C19.2 40 17 60.6 11.3 60.6 C8 60.6 7.5 53.2 2 35.3 C-4.2 15.2 8.1 -1.8 23.1 0.9 C38.1 3.6 36.5 -2.4 45.2 6 z M43 6 C35 -1.7 36.4 3.8 22.6 1.3 C8.7 -1.2 -1.9 14.5 3.9 33.1 C9 49.7 9.1 55.4 12.1 55.4 C17.4 55.4 17.9 38 25.3 23.5 C30.7 13 43 6 43 6 z" opacity="0.15" id="s1" /></g></g><g transform="translate(109, 88.49997) translate(100, 30.5) scale(-1, 1) translate(-100, -30.5) translate(75, 0)" id="t1"><g id="u1"><path d="M43.8 4.7 C43.8 4.7 46 6.8 47.8 8.8 C51.2 12.7 49.4 16.5 45.6 18.1 C43.1 19.2 40.1 20.6 38 22.9 C35.6 25.5 33 28 31.3 30.2 C29.5 32.5 27.2 34.1 25 33.6 C19.8 32.4 18.1 20.4 20.4 16.7 C23.9 11.1 43.8 4.7 43.8 4.7 z" id="v1" fill="#51403C" /><path d="M24.7 13 C30.9 8.8 43.1 4.9 43.1 4.9 C43.1 4.9 43.1 4.9 43.1 4.9 C43.6 4.8 43.8 4.7 43.8 4.7 C43.8 4.7 46 6.8 47.8 8.8 C51.2 12.7 49.4 16.5 45.6 18.1 C43.1 19.2 40.1 20.6 38 22.9 C35.6 25.5 33 28 31.3 30.2 C29.5 32.5 27.2 34.1 25 33.6 C19.8 32.4 18.1 20.4 20.4 16.7 C21.2 15.5 22.7 14.2 24.7 13 z M24.7 13 C23.2 14 22.1 14.9 21.5 15.9 C19.4 19.3 21 30.4 25.8 31.5 C27.8 31.9 29.9 30.4 31.6 28.3 C33.1 26.3 35.5 24 37.7 21.6 C39.7 19.5 42.4 18.2 44.7 17.2 C48.2 15.7 49.9 12.2 46.7 8.6 C45.3 7 43.5 5.3 43.1 4.9 C40.5 5.8 30.7 9.2 24.7 13 z" opacity="0.2" id="w1" /><path d="M45.2 6 C36.5 -2.4 38.1 3.6 23.1 0.9 C8.1 -1.8 -4.2 15.2 2 35.3 C7.5 53.2 8 60.6 11.3 60.6 C17 60.6 19.2 40 27.1 24.3 C33 12.9 45.2 6 45.2 6 z" id="x1" fill="#7F6458" /><path d="M45.2 6 C45.2 6 33 12.9 27.1 24.3 C19.2 40 17 60.6 11.3 60.6 C8 60.6 7.5 53.2 2 35.3 C-4.2 15.2 8.1 -1.8 23.1 0.9 C38.1 3.6 36.5 -2.4 45.2 6 z M43.6 5.8 C37.3 -0.8 36.7 4 22.9 1.5 C9 -1 -1.7 15.6 4 34.3 C9.1 50.9 8.3 56.1 11.4 56.1 C16.6 56.1 15.6 40.4 26.3 23.3 C31.7 12.7 43.6 5.8 43.6 5.8 z" opacity="0.15" id="y1" /></g></g><g transform="translate(169.6, 146.2) scale(1.05) translate(-169.6, -146.2)" id="z1"><g transform="translate(110.3, 90.39996) translate(20, 34)" id="a2"><g transform="translate(0, 11)" id="b2"><path d="M72.8 26.1 C76.1 26.8 75.1 26.5 78.7 28.4 C75.2 10.7 62.4 6 51.7 5.2 C48.7 2.4 44.6 0.6 39.5 0.6 C34.4 0.6 30.3 2.4 27.3 5.2 C16.6 6 3.7 10.7 0.3 28.4 C3.9 26.5 3 26.8 6.2 26.1 C3.1 28.8 1.5 32 3.9 39.7 C6.9 37.2 6.2 35.5 8.9 33.8 C6.3 37 7 42.1 8.5 46.6 C9.2 45.3 9.7 43.9 12 41.6 C11.5 44.8 13.1 47.3 14.5 49.7 C15.6 47.8 16.2 45.2 16.7 42.4 C18 43.3 19.4 44 20.9 44.7 C23.6 47.9 25.7 49.1 28.3 50 C28 48.8 28.1 48.2 28.1 47 C30 48.6 31.9 49.2 33.6 50.8 C33.8 49.4 33.8 49.2 33.9 47.8 C35.1 51.3 36.8 52 39.5 54.4 C42.3 52 43.9 51.2 45.2 47.8 C45.4 49.2 45.4 49.4 45.5 50.8 C47.2 49.1 49.1 48.6 50.8 47 C51 48.3 51.1 48.8 50.8 50 C53.4 49.1 55.5 47.8 58.2 44.7 C59.7 44 61.1 43.2 62.4 42.4 C62.9 45.2 63.5 47.9 64.6 49.7 C66 47.3 67.6 44.8 67.1 41.6 C69.4 43.9 69.9 45.3 70.6 46.6 C72.1 42.1 72.8 37 70.2 33.8 C72.9 35.5 72.2 37.2 75.2 39.7 C77.4 32.1 75.8 28.8 72.8 26.1 z" id="c2" fill="#FEFEFE" /><path d="M72.8 26.1 C76.1 26.8 75.1 26.5 78.7 28.4 C77.1 20.5 73.7 15.2 69.5 11.7 C71.3 14.7 72.5 17.2 73.3 22.4 C71.3 21.1 69.2 21 66.3 19.7 C68.5 23.7 68.9 28.8 67.1 33.1 C66.2 31.7 65.1 30.1 62.8 28.7 C63.3 34.5 62.3 36.5 61.5 37.5 C60.3 31.2 58.4 25.4 51.4 25.4 C46.7 27.4 42.5 27.4 39.5 23 C36.5 27.5 32.3 27.4 27.6 25.4 C20.7 25.4 18.7 31.2 17.5 37.5 C16.7 36.5 15.7 34.5 16.2 28.7 C13.9 30.1 12.8 31.6 11.9 33.1 C10.1 28.8 10.5 23.6 12.7 19.7 C9.8 21 7.8 21.1 5.7 22.4 C6.5 17.2 7.7 14.7 9.5 11.7 C5.2 15.2 1.8 20.5 0.3 28.4 C3.9 26.5 3 26.8 6.2 26.1 C3.1 28.8 1.5 32 3.9 39.7 C6.9 37.2 6.2 35.5 8.9 33.8 C6.3 37 7 42.2 8.5 46.6 C9.2 45.3 9.7 43.9 12 41.6 C11.5 44.8 13.1 47.3 14.5 49.7 C15.6 47.8 16.2 45.2 16.7 42.4 C18 43.3 19.4 44 20.9 44.7 C23.6 47.9 25.7 49.1 28.3 50 C28 48.8 28.1 48.2 28.1 47 C28.2 47 28.2 47 28.3 47 C30 48.6 31.9 49.2 33.6 50.8 C33.8 49.4 33.8 49.2 33.9 47.8 C35.1 51.3 36.8 52 39.5 54.4 C42.3 52 43.9 51.2 45.2 47.8 C45.4 49.2 45.4 49.4 45.5 50.8 C47.2 49.1 49.1 48.6 50.8 47 C50.9 47 50.9 47 51 47 C51 48.3 51.1 48.8 50.8 50 C53.4 49.1 55.5 47.8 58.2 44.7 C59.7 44 61.1 43.2 62.4 42.4 C62.9 45.2 63.5 47.9 64.6 49.7 C66 47.3 67.6 44.8 67.1 41.6 C69.4 43.9 69.9 45.3 70.6 46.6 C72.1 42.1 72.8 37 70.2 33.8 C72.9 35.5 72.2 37.2 75.2 39.7 C77.4 32.1 75.8 28.8 72.8 26.1 z" id="d2" fill="#EDEEEF" /><path d="M72.8 26.1 C75.8 28.8 77.4 32.1 75.2 39.7 C72.2 37.2 72.9 35.5 70.2 33.8 C72.8 37 72.1 42.1 70.6 46.6 C69.9 45.3 69.4 43.9 67.1 41.6 C67.6 44.8 66 47.3 64.6 49.7 C63.5 47.9 62.9 45.2 62.4 42.4 C61.1 43.2 59.7 44 58.2 44.7 C55.5 47.8 53.4 49.1 50.8 50 C51.1 48.8 51 48.3 51 47 C50.9 47 50.9 47 50.8 47 C49.1 48.6 47.2 49.1 45.5 50.8 C45.4 49.4 45.4 49.2 45.2 47.8 C43.9 51.2 42.3 52 39.5 54.4 C36.8 52 35.1 51.3 33.9 47.8 C33.8 49.2 33.8 49.4 33.6 50.8 C31.9 49.2 30 48.6 28.3 47 C28.2 47 28.2 47 28.1 47 C28.1 48.2 28 48.8 28.3 50 C25.7 49.1 23.6 47.9 20.9 44.7 C19.4 44 18 43.3 16.7 42.4 C16.2 45.2 15.6 47.8 14.5 49.7 C13.1 47.3 11.5 44.8 12 41.6 C9.7 43.9 9.2 45.3 8.5 46.6 C7 42.1 6.3 37 8.9 33.8 C6.2 35.5 6.9 37.2 3.9 39.7 C1.5 32 3.1 28.8 6.2 26.1 C3 26.8 3.9 26.5 0.3 28.4 C3.7 10.7 16.6 6 27.3 5.2 C30.3 2.4 34.4 0.6 39.5 0.6 C44.6 0.6 48.7 2.4 51.7 5.2 C62.4 6 75.2 10.7 78.7 28.4 C75.1 26.5 76.1 26.8 72.8 26.1 z M70.4 24.3 C73.5 25 73.5 24.1 76.9 25.9 C75.3 17.6 71 13.1 66.2 10.2 C61.4 7.4 55.9 6 50.9 5.6 C48.1 3 44.3 1.3 39.5 1.3 C34.7 1.3 30.9 3 28.1 5.6 C18 6.4 6 8.6 2.9 25.2 C6.3 23.4 6.4 25.3 9.4 24.7 C6.5 27.2 2.3 28.7 4.5 36 C6.4 34.4 8.6 33 11.3 31.6 C8.9 34.6 7.7 37.7 9.1 41.9 C9.8 40.7 11.4 40.4 13.6 38.3 C13.1 41.3 12.7 44.4 14.1 46.6 C15.1 44.8 15.7 42.2 16.2 39.5 C17.4 40.3 20.3 42.9 21.7 43.5 C24.2 46.5 24.9 47 27.3 47.9 C27 46.8 27.3 45.5 27.3 44.4 C27.4 44.4 31.6 46.8 33.2 48.3 C33.4 47 33.1 46.5 33.2 45.2 C34.3 48.5 37 49.4 39.6 51.7 C42.2 49.5 44.6 48.7 45.8 45.5 C46 46.8 46 47 46.1 48.3 C47.7 46.7 49.8 45.9 51.4 44.4 C51.8 44.4 52.3 45.4 53 47.3 C54.9 45.1 56.3 43.6 57.1 42.6 C58.5 41.9 61.8 40.8 63 40.1 C63.5 42.7 63.7 44.9 64.7 46.6 C66 44.4 66.7 41.9 66.2 38.9 C68.4 41.1 69.8 42.4 70.4 43.6 C71.3 40.8 70.9 36.7 69.2 31.4 C71.7 33 72 34.7 74.8 37 C76.9 29.7 73.2 26.9 70.4 24.3 z" opacity="0.15" id="e2" /></g></g><g transform="translate(110.8, 86.99995) translate(39, 69)" id="f2"><g id="g2" fill="#282421"><path d="M39.8 15.5 C39.5 14.9 38.9 15.2 38.5 15.4 C37.7 15.8 36.8 16.2 35.9 16.4 C33.7 16.8 31.7 15.7 30 14.3 C28.2 12.9 26.7 11.2 25 9.7 C24.3 9.1 23.5 8.5 22.7 8 C22.3 7.8 20.8 7.3 20.6 7 C20.5 6.8 20.8 6.2 20.8 6 C20.9 5.4 21.1 4.8 21.2 4.1 C21.4 3.2 21.9 1.9 21.2 1.1 C20 -0.2 18.4 1.2 18.6 2.6 C18.8 3.6 19.1 4.6 19.3 5.6 C19.4 5.8 19.7 6.5 19.6 6.8 C19.5 7.2 18.4 7.4 18 7.6 C16.2 8.6 14.7 10 13.2 11.4 C10.2 14.3 6.6 17.7 2.2 15.4 C1.7 15.2 1 14.6 0.5 15 C-0.3 15.6 0.6 16.2 1.1 16.5 C2.8 17.6 4.8 18.2 6.8 17.9 C11.1 17.2 14.1 13.4 17.5 11.1 C18.2 10.7 19.2 9.9 20.1 9.9 C21 9.9 22.1 10.8 22.8 11.3 C24.7 12.6 26.4 14.3 28.4 15.6 C30.3 17 32.6 18.1 35 17.9 C35.8 18.1 40.6 16.9 39.8 15.5 z" id="h2" /></g></g><g transform="translate(169.8, 146.4999) scale(0.7) translate(-169.8, -146.4999) translate(87.10001, 70.49995) translate(70, 60)" id="i2"><g id="j2"><path d="M0.7 4.3 C1.1 1.6 6.7 0 8.1 0 C9.5 0 15.7 0 17.5 0 C19.3 0 22 1.3 23.3 2.5 C24.6 3.7 25.4 6.3 25 8.4 C24.5 10.5 21.3 18.8 17.3 19.2 C13.3 19.6 11.1 19.5 9 19 C6.9 18.5 0.7 13.4 0.7 8.4 C0.6 6.7 0.5 5.7 0.7 4.3 z" id="k2" /><path d="M14 3 C15.3 3 16.6 3.9 17.6 4 C19.1 4.2 20.1 3.2 20.1 2.5 C20.1 1.4 17.3 1 14 1 C10.7 1 6 1.1 6 2.2 C6 3.3 10.7 3 14 3 z" id="l2" fill="#FFF" /></g></g><g transform="translate(113.6, 71.39996) translate(23, 34)" id="m2"><g transform="translate(8, 9)" id="n2"><path d="M5.3 3.2 C8.3 1.4 12.4 0.2 15.8 1 C18.2 1.5 22.8 5.2 24.1 10.9 C23.7 10.7 23.4 10.6 22.9 10.4 C23.2 11.1 23.6 11.9 23.9 12.6 C23.7 13.5 20.8 14.9 20.2 14.3 C19.8 15.5 21.3 17 22.1 17.7 C22 17.8 17.6 17.2 16.1 18.6 C16.7 19.2 16.7 19.4 17.1 19.8 C14.7 20.4 12.2 21 9.7 20.7 C7.9 20.5 5.5 19.9 5 17.9 C4.4 18.5 4.1 19.2 4.1 20 C1.3 18.4 -0.2 15 0.1 11.8 C0.5 8.4 2.3 5 5.3 3.2 z" id="o2" fill="#D1D1D1" /><path d="M3.7 9.8 C8.9 5.9 20.1 5.8 20 12.5 C19.9 12.7 18.6 19.5 11.4 19.3 C3.6 18.9 3 11.8 3.7 9.8 z" id="p2" fill="#B57983" /><path d="M7.7 6 C6.4 6.9 5.4 8.1 4.1 9 C3.9 9.2 3 9.5 2.9 9.7 C2.7 10.2 3.4 10 3.7 9.9 C4.3 9.8 4.8 9.6 5.3 9.3 C5 10 5.2 11.6 5.5 12.8 C5.9 15.7 7.9 17.7 12.1 18.1 C15.8 18.5 18.8 15.1 18.8 11.4 C18.8 10.9 18.8 10.5 18.7 10 C19.1 10.6 19.4 11.3 19.6 12 C19.7 12.3 19.9 12.1 20 11.9 C20.1 5.9 12.5 2.4 7.7 6 z" id="q2" fill="#282421" /><path d="M16.4 9.3 C16 8.5 15.2 7.9 14.2 7.9 C12.9 7.9 11.8 9 11.8 10.3 C11.8 11.6 12.9 12.7 14.2 12.7 C14.4 12.7 14.5 12.7 14.7 12.6 C15.4 13 15.8 13.5 16 14.2 C17.2 13.1 17.2 10.7 16.4 9.3 z" id="r2" fill="#F7F7F7" /><path d="M-5.4 15.2 C-5.3 17.4 -5.4 19.5 -5.9 21.6 C-3.7 20.4 -2.2 17.9 -2.1 15.4 C-1.8 15 -1.5 14.6 -1.2 14 C-1 16.6 -1.2 16.8 -1.9 18.8 C-1.2 18.3 -0.7 17.4 -0.2 16.3 C0.3 18.2 1.1 20 2.2 21.6 C1.4 17 0.6 11.1 3.2 7.1 C3.8 6.2 5.1 5.3 6.6 4.6 C8 3.7 11.1 3.2 12.3 3.3 C12.2 3 12.2 2.7 12.1 2.5 C14.2 2.1 16.6 3 18 4.6 C18.1 4.1 18.2 3.6 18.3 3.1 C19.7 5 21.9 8.2 22.8 10.4 C23.2 11.4 23.8 12 24.2 11.9 C25.3 11.8 26 11.5 26.5 10 C27 8.5 23.3 1.6 20.7 -0.6 C17.7 -3.7 13.7 -5.9 10.1 -8.4 C10.7 -7.2 11.3 -6.1 11.8 -4.9 C11.3 -5.1 10.8 -5.2 10.2 -5.4 C8.3 -6.5 6.1 -7.2 3.8 -7.4 C4.3 -7.1 4.8 -6.7 5.4 -6.4 C3.9 -6.7 2.3 -6 0.9 -5.4 C0.4 -5.2 -3.6 -3.2 -4.2 -2.9 C-4.2 -2.7 -4.2 -2.5 -4.1 -2.4 C-5.9 -0.7 -6.7 1.1 -6.9 3 C-6.9 3.1 -7 3.3 -7 3.4 C-7.5 5.7 -7.5 8.1 -7.1 10.4 C-6.9 10.1 -6.7 9.7 -6.4 9.4 C-6.3 9.8 -6.2 10.1 -6.1 10.5 C-6.1 10.6 -6.1 10.7 -6 10.7 C-6 11.7 -6.1 12.6 -6.4 13.3 C-6.8 14 -7.2 14.7 -7.8 15.3 C-7 15.7 -6.1 15.5 -5.4 15 C-5.4 15.1 -5.4 15.2 -5.4 15.2 z M-3.9 9.2 L-3.9 9.2 L-3.9 9.2 z" id="s2" fill="#937367" /></g></g><g transform="translate(105.2, 71.39996) translate(61, 34)" id="t2"><g id="u2"><path d="M21.7 12.2 C18.7 10.4 14.6 9.2 11.2 10 C8.8 10.5 4.2 14.2 2.9 19.9 C3.3 19.7 3.6 19.6 4.1 19.4 C3.8 20.1 3.4 20.9 3.1 21.6 C3.3 22.5 6.2 23.9 6.8 23.3 C7.2 24.5 5.7 26 4.9 26.7 C5 26.8 9.4 26.2 10.9 27.6 C10.3 28.2 10.3 28.4 9.9 28.8 C12.3 29.4 14.8 30 17.3 29.7 C19.1 29.5 21.5 28.9 22 26.9 C22.6 27.5 22.9 28.2 22.9 29 C25.7 27.4 27.2 24 26.9 20.8 C26.5 17.4 24.7 14 21.7 12.2 z" id="v2" fill="#D1D1D1" /><path d="M23.2 18.8 C18 14.9 6.8 14.8 6.9 21.5 C7 21.7 8.3 28.5 15.5 28.3 C23.4 27.9 24 20.8 23.2 18.8 z" id="w2" fill="#B57983" /><path d="M24 18.8 C23.9 18.6 23.1 18.2 22.8 18.1 C21.5 17.2 20.5 16 19.2 15.1 C14.4 11.5 6.8 15 6.9 21.2 C7 21.4 7.2 21.5 7.3 21.3 C7.5 20.7 7.9 20 8.2 19.3 C8.1 19.7 8.1 20.2 8.1 20.7 C8.1 24.4 11.1 27.8 14.8 27.4 C19 27 21 25 21.4 22.1 C21.7 20.9 21.9 19.3 21.6 18.6 C22.1 18.8 22.6 19.1 23.2 19.2 C23.6 19.1 24.2 19.3 24 18.8 z" id="x2" fill="#282421" /><path d="M18.4 18.3 C18 17.5 17.2 16.9 16.2 16.9 C14.9 16.9 13.8 18 13.8 19.3 C13.8 20.6 14.9 21.7 16.2 21.7 C16.4 21.7 16.5 21.7 16.7 21.6 C17.4 22 17.8 22.5 18 23.2 C19.1 22.1 19.2 19.7 18.4 18.3 z" id="y2" fill="#F7F7F7" /><path d="M32.4 24 C33.1 24.5 34 24.6 34.8 24.3 C34.2 23.7 33.8 23.1 33.4 22.3 C33.2 21.6 33.1 20.7 33 19.7 C33 19.6 33 19.5 33.1 19.5 C33.2 19.1 33.3 18.8 33.4 18.4 C33.6 18.7 33.8 19.1 34.1 19.4 C34.5 17.1 34.5 14.7 34 12.4 C34 12.3 33.9 12.1 33.9 12 C33.7 10.1 32.9 8.3 31.1 6.6 C31.1 6.4 31.1 6.2 31.2 6.1 C30.6 5.8 26.6 3.8 26.1 3.6 C24.7 2.9 23.2 2.3 21.6 2.6 C22.1 2.3 22.6 1.9 23.2 1.6 C21 1.8 18.8 2.4 16.8 3.6 C16.3 3.7 15.7 3.9 15.2 4.1 C15.8 2.9 16.4 1.8 16.9 0.6 C13.3 3 9.3 5.3 6.3 8.4 C3.7 10.6 0 17.5 0.5 19 C1 20.5 1.7 20.8 2.8 20.9 C3.2 20.9 3.8 20.4 4.2 19.4 C5 17.2 7.3 14 8.7 12.1 C8.8 12.6 8.9 13.1 9 13.6 C10.4 12 12.7 11.1 14.9 11.5 C14.8 11.8 14.8 12.1 14.7 12.3 C16 12.1 19.1 12.7 20.4 13.6 C21.9 14.3 23.2 15.2 23.8 16.1 C26.4 20.2 25.6 26 24.8 30.6 C25.9 29 26.7 27.2 27.2 25.3 C27.7 26.4 28.2 27.4 28.9 27.8 C28.2 25.8 28 25.6 28.2 23 C28.5 23.6 28.8 24 29.1 24.4 C29.2 26.9 30.6 29.4 32.9 30.6 C32.4 28.5 32.3 26.3 32.4 24.2 C32.4 24.2 32.4 24.1 32.4 24 z M30.9 18.3 C30.9 18.3 30.9 18.2 30.9 18.3 C30.9 18.2 30.9 18.3 30.9 18.3 z" id="z2" fill="#937367" /></g></g></g></g></g></g><defs><g transform="translate(17.09519, 0.800995) translate(-135.2952, -293.601)" id="a3" fill="#000"><path d="M118.2 302.7 C118.4 307.4 132.5 311.2 149.8 311.2 C167.1 311.2 181.2 307.4 181.4 302.7 C181.4 307.5 181.4 310.1 181.4 310.5 C181.4 315.3 167.3 319.1 149.8 319.1 C132.3 319.1 118.2 315.2 118.2 310.5 L118.2 302.7 L118.2 302.7 z" fill-opacity="0.4528" id="b3" fill="#593001" /><path d="M118.7 301.7 C118.9 306.4 133 310.2 150.3 310.2 C167.6 310.2 181.7 306.4 181.9 301.7 C181.9 306.5 181.9 309.1 181.9 309.5 C181.9 314.3 167.8 318.1 150.3 318.1 C132.8 318.1 118.7 314.2 118.7 309.5 L118.7 301.7 L118.7 301.7 z" id="c3" fill="#DA8113" /><linearGradient x1="46.0545" y1="-118.6926" x2="45.4656" y2="-118.6926" gradientUnits="userSpaceOnUse" gradientTransform="matrix(117.135, 0, 0, 28.4634, -5208.417, 3687.795)" id="d3"><stop offset="0%" stop-color="#D9952A" stop-opacity="1" /><stop offset="6.438854%" stop-color="#CA7519" stop-opacity="1" /><stop offset="30.54%" stop-color="#E3AD3A" stop-opacity="1" /><stop offset="51.05%" stop-color="#FFEC91" stop-opacity="1" /><stop offset="68.8%" stop-color="#E9BD44" stop-opacity="1" /><stop offset="86.24%" stop-color="#FFED6C" stop-opacity="1" /><stop offset="93.87%" stop-color="#F2D353" stop-opacity="1" /><stop offset="100%" stop-color="#F2B947" stop-opacity="1" /></linearGradient><path d="M118.2 301.6 C118.4 306.1 132.7 309.7 150.3 309.7 C167.9 309.7 182.2 306.1 182.4 301.6 C182.4 306.2 182.4 308.7 182.4 309 C182.4 313.5 168 317.2 150.3 317.2 C132.6 317.2 118.2 313.5 118.2 309 L118.2 301.6 L118.2 301.6 z" id="e3" style="fill:url(#d3)" /><linearGradient x1="45.4914" y1="-117.9547" x2="45.9407" y2="-117.5895" gradientUnits="userSpaceOnUse" gradientTransform="matrix(115.425, 0, 0, 29.925, -5125.077, 3826.124)" id="f3"><stop offset="0%" stop-color="#F4E072" stop-opacity="1" /><stop offset="100%" stop-color="#DB9427" stop-opacity="1" /></linearGradient><ellipse cx="150.3" cy="301.5" rx="31.6" ry="8.2" id="g3" style="fill:url(#f3)" /><linearGradient x1="45.4656" y1="-126.0065" x2="46.0545" y2="-126.0065" gradientUnits="userSpaceOnUse" gradientTransform="matrix(117.135, 0, 0, 18.6219, -5208.417, 2651.479)" id="h3"><stop offset="0%" stop-color="#D9952A" stop-opacity="1" /><stop offset="6.438854%" stop-color="#CA7519" stop-opacity="1" /><stop offset="30.54%" stop-color="#E3AD3A" stop-opacity="1" /><stop offset="51.05%" stop-color="#FFEC91" stop-opacity="1" /><stop offset="68.8%" stop-color="#E9BD44" stop-opacity="1" /><stop offset="86.24%" stop-color="#FFED6C" stop-opacity="1" /><stop offset="93.87%" stop-color="#F2D353" stop-opacity="1" /><stop offset="100%" stop-color="#F2B947" stop-opacity="1" /></linearGradient><path d="M119.2 299.9 C119 300.2 118.9 300.6 118.9 301 C118.9 305.5 132.9 309.2 150.3 309.2 C167.7 309.2 181.7 305.5 181.7 301 C181.7 300.6 181.6 300.3 181.4 299.9 C182 300.5 182.4 301.2 182.4 301.9 C182.4 306.4 168 310.1 150.3 310.1 C132.6 310.1 118.2 306.4 118.2 301.9 C118.2 301.3 118.6 300.6 119.2 299.9 z" id="i3" style="fill:url(#h3)" /><linearGradient x1="45.196" y1="-121.5895" x2="45.3746" y2="-120.6758" gradientUnits="userSpaceOnUse" gradientTransform="matrix(101.745, 0, 0, 23.94, -4458.332, 3199.41)" id="j3"><stop offset="0%" stop-color="#F8DD61" stop-opacity="1" /><stop offset="100%" stop-color="#EAA330" stop-opacity="1" /></linearGradient><ellipse cx="150.3" cy="300.8" rx="27.8" ry="6.6" id="k3" style="fill:url(#j3)" /><linearGradient x1="45.5694" y1="-134.267" x2="45.0221" y2="-134.267" gradientUnits="userSpaceOnUse" gradientTransform="matrix(101.745, 0, 0, 13.2525, -4458.332, 2077.223)" id="l3"><stop offset="0%" stop-color="#F4CA2F" stop-opacity="1" /><stop offset="51.38%" stop-color="#BF7737" stop-opacity="1" /><stop offset="100%" stop-color="#E4A929" stop-opacity="1" /></linearGradient><path d="M122.6 301.5 C122.5 301.3 122.4 301 122.4 300.8 C122.4 297.2 134.9 294.2 150.2 294.2 C165.5 294.2 178 297.1 178 300.8 C178 301 177.9 301.3 177.8 301.5 C176.3 298.2 164.5 295.6 150.1 295.6 C135.7 295.6 124.1 298.2 122.6 301.5 z" id="m3" style="fill:url(#l3)" /></g></defs><desc>BBON4GCNBKN,/2zh39CA4I5ogiqcDSHI0JlHQfoWxT4asMjwZYTkx6BARyMvsfYDwZ3tpVAr/PE5ijuueL4OPIK3HEIPMwepvQsLuH5BD+jJVcLaZ9urn5U=</desc></svg>