<?xml version="1.0" encoding="utf-8"?><!DOCTYPE svg PUBLIC "-//W3C//DTD SVG 1.1//EN" "http://www.w3.org/Graphics/SVG/1.1/DTD/svg11.dtd"><svg x="0" y="0" width="340px" height="340px" viewBox="0, 0, 340, 340" preserveAspectRatio="xMidYMid" font-size="0" id="a" enable-background="new 0 0 340 340" xmlns="http://www.w3.org/2000/svg" xmlns:xlink="http://www.w3.org/1999/xlink" xmlns:xml="http://www.w3.org/XML/1998/namespace" version="1.1"><g id="b" fill="#000"><g id="c"><g transform="translate(0, 0) translate(0, 224)" id="d"><ellipse cx="168.6" cy="53.1" rx="57.8" ry="12.8" fill-opacity="0.25" id="e" /></g><g id="f"><g transform="translate(102.6, 101.9) translate(20.5, 139.5) scale(-1, 1) translate(-20.5, -139.5) translate(0, 122)" id="g"><g id="h"><path d="M28.3 1.5 C38.6 0.6 40.4 9.4 40.6 11.6 C39.9 11.2 39.2 10.8 38.5 10.4 C39.3 12.6 39.7 15.1 39.7 17.8 C38.6 16.4 36.7 14.8 34.9 13.9 C35.7 15.2 36.5 16.5 37.4 17 C35.4 17.6 34.6 18.2 31 17.7 C28.6 17.4 27.5 17.8 24.4 18.3 C23.8 18.4 19.5 10.8 21.8 5.7 C23.2 3.5 27.3 1.5 28.3 1.5 z" id="i" fill="#CEB08D" /><path d="M6 15 C9.4 15.8 13.3 15.1 15.9 12.7 C16.5 12.2 17 11.5 17.6 10.9 C19.7 7.6 21.8 4.2 23.8 0.9 C23.8 1.7 23.7 2.5 23.6 3.2 C25 2.2 26.5 1.5 28.3 1.3 C25.8 4 23.8 7.1 22.4 10.5 C22.8 10.5 23.3 10.4 23.8 10.3 C24.8 10 26.6 9.5 27.4 8.4 C27.4 10.5 26.9 11.4 26.2 12.1 C28.3 11.9 30.4 12.2 32.4 13 C29.6 13.4 27.8 16.2 25.4 17.6 C25.5 17.6 28.8 17 30.9 17.9 C31 18.1 31.1 18.4 31.2 18.6 C32.2 21 32.3 23.7 31.5 26.1 C30.7 24.4 29.5 22.8 28.1 21.5 C28.6 25.5 27.5 29.7 25.6 32.8 C25.4 29.1 25.6 25.3 21.5 23.8 C23.2 26.6 21.3 31.3 20.7 34.1 C20.5 31.6 20.2 29.1 19.1 26.8 C16.2 20.4 14.9 21 9.6 21.6 C6.3 21.9 1.1 21 1 18.4 C0.9 15.8 4.2 14.6 6 15 z" id="j" fill="#32363A" /><path d="M30 17.6 C30.3 17.7 30.6 17.8 30.9 17.9 C31 18.1 31.1 18.4 31.2 18.6 C32.2 21 32.3 23.7 31.5 26.1 C30.7 24.4 29.5 22.8 28.1 21.5 C28.6 25.5 27.5 29.7 25.6 32.8 C25.4 29.1 25.6 25.3 21.5 23.8 C23.2 26.6 21.3 31.3 20.7 34.1 C20.5 31.6 20.2 29.1 19.1 26.8 C16.2 20.4 14.9 21 9.6 21.6 C6.3 21.9 1.1 21 1 18.4 C0.9 15.8 4.2 14.6 6 15 C9.4 15.8 13.3 15.1 15.9 12.7 C16.5 12.2 17 11.5 17.6 10.9 C19.7 7.6 21.8 4.2 23.8 0.9 C23.8 1.7 23.7 2.5 23.6 3.2 C25 2.2 26.5 1.5 28.3 1.3 C28.2 1.4 28.2 1.4 28.1 1.5 C28.2 1.5 28.2 1.5 28.3 1.5 C38.6 0.6 40.4 9.4 40.6 11.6 L38.5 10.4 C39.3 12.6 39.7 15.1 39.7 17.8 C38.6 16.4 36.7 14.8 34.9 13.9 C35.7 15.2 36.5 16.5 37.4 17 C35.4 17.6 34.6 18.2 31 17.7 C30.6 17.7 30.3 17.6 30 17.6 z M29.8 16.1 C29.5 16 33.3 16.9 35.1 16.4 C34.3 15.9 34.1 13.3 33.3 12.1 C35 12.9 37.9 14.3 38.9 15.6 C38.9 13.2 38.2 10.6 37.5 8.7 L39.8 10 C39.7 8.1 37 1.6 27.7 2.4 C27.6 2.4 28.5 2 28.4 2 C28.5 1.9 28.5 1.9 28.6 1.8 C27 2 24.4 4.3 23.2 5.2 C23.2 4.6 23.2 3.4 23.2 2.7 C21.3 5.6 20.8 7.4 18.9 10.3 C18.4 10.9 17.9 11.5 17.4 11.9 C15 14.1 11 16.9 7.9 16.2 C6.2 15.8 2.7 15.8 2.8 18.1 C2.9 20.4 8.7 20.1 11.6 19.8 C16.5 19.3 16.6 18.2 19.2 23.9 C20.2 25.9 20.7 26.4 20.8 28.6 C21.4 26.1 21.2 24.2 19.7 21.7 C23.4 23 25.9 24.9 26.1 28.2 C27.8 25.5 26.9 22.7 26.5 19.2 C27.8 20.3 30.3 21.7 31.1 23.2 C31.8 21.1 30 19.5 29.1 17.3 C29 17.2 29.8 16.3 29.8 16.1 z" opacity="0.15" id="k" /></g></g><g transform="translate(134.6333, 273.8) scale(0.9503106) translate(-132.3, -273.8) translate(111.1, 76.99997) translate(14, 151)" id="l"><path d="M21.4 0.7 C15.4 0.7 10.5 1.3 7.1 4.6 C3.7 7.9 0 10.4 0.4 18.5 C0.8 26.6 3.2 33.9 10.9 36.8 C6.8 39 6.4 40.4 6.8 43.2 C7.1 45.9 6.5 46.6 14 45.9 C19 45.5 23.5 45.2 27.5 45.2 C29.2 42.4 29.8 38.9 29.3 34.7 C30.6 32.1 35 17.8 32.3 12 C29.6 6.2 27.4 0.7 21.4 0.7 z" id="m" fill="#CEB08D" /><path d="M21.4 0.7 C27.4 0.7 29.6 6.2 32.3 12 C35 17.8 30.6 32.1 29.3 34.7 C29.8 38.9 29.2 42.4 27.5 45.2 C23.5 45.2 19 45.5 14 45.9 C6.5 46.6 7.1 45.9 6.8 43.2 C6.4 40.4 6.8 39 10.9 36.8 C3.2 33.9 0.8 26.6 0.4 18.5 C0 10.4 3.7 7.9 7.1 4.6 C10.5 1.3 15.4 0.7 21.4 0.7 z M21.1 1.4 C15.5 1.4 11 1.9 7.8 5 C4.6 8 1.2 10.3 1.6 17.9 C2 25.4 6 34.1 13.2 36.8 C9.4 38.9 7.8 38.9 8.2 41.5 C8.4 44 7.2 43.9 14.2 43.3 C18.8 42.9 23 42.6 26.7 42.6 C28.3 40 28.9 36.8 28.4 32.9 C29.6 30.5 33.7 17.2 31.2 11.8 C28.7 6.5 26.6 1.4 21.1 1.4 z" opacity="0.15" id="n" /></g><g transform="translate(202.8667, 273.8) scale(0.9503106) translate(-205.2, -273.8) translate(97.80001, 77.39996) translate(98, 175.5) scale(-1, 1) translate(-98, -175.5) translate(81, 151)" id="o"><path d="M22.1 0.7 C16.1 0.7 11.2 1.3 7.8 4.6 C4.4 7.9 0.6 10.4 1 18.5 C1.4 26.6 3.8 33.9 11.5 36.8 C7.4 39 7 40.4 7.4 43.2 C7.8 46 7.1 46.6 14.6 45.9 C19.6 45.5 24.1 45.2 28.1 45.2 C29.8 42.4 30.4 38.9 29.9 34.7 C31.2 32.1 35.6 17.8 32.9 12 C30.2 6.2 28 0.7 22.1 0.7 z" id="p" fill="#CEB08D" /><path d="M22.1 0.7 C28 0.7 30.2 6.2 32.9 12 C35.6 17.8 31.2 32.1 29.9 34.7 C30.4 38.9 29.8 42.4 28.1 45.2 C24.1 45.2 19.6 45.5 14.6 45.9 C7.1 46.6 7.8 46 7.4 43.2 C7 40.4 7.4 39 11.5 36.8 C3.8 33.9 1.4 26.6 1 18.5 C0.6 10.4 4.4 7.9 7.8 4.6 C11.2 1.3 16.1 0.7 22.1 0.7 z M21.8 1.1 C16.2 1.1 11.6 1.7 8.4 4.8 C5.2 7.9 1.6 10.2 2 17.8 C2.4 25.4 6.9 33.7 14.1 36.5 C10.3 38.5 8 38.9 8.4 41.5 C8.8 44.1 7.7 44.2 14.8 43.5 C19.5 43.1 23.7 42.9 27.4 42.9 C29 40.2 29.6 36.9 29.1 33 C30.3 30.6 34.5 17.1 31.9 11.7 C29.4 6.3 27.3 1.1 21.8 1.1 z" opacity="0.15" id="q" /></g><g transform="translate(109.1, 122.6) translate(23, 85)" id="r"><path d="M61.9 14 C58.4 7.7 55.3 4.6 50.9 3.5 C49.4 3.2 36.5 0.9 36.5 0.9 C36.5 0.9 23.6 3.2 22.1 3.5 C17.7 4.5 14.6 7.7 11.1 14 C5.5 23.9 6.8 33.7 7.4 45.2 C7.6 49 10.7 52.4 12.1 55.6 C14.6 61.3 16.7 66.1 21.6 68.7 C26.1 71.1 30.8 71.1 36.4 71.1 C42 71.1 46.8 71.1 51.2 68.7 C56.2 66 58.2 61.3 60.7 55.6 C62.1 52.4 65.2 48.9 65.4 45.2 C66.3 33.6 67.5 23.8 61.9 14 z" id="s" fill="#E5C498" /><path d="M61.9 14 C67.5 23.8 66.3 33.6 65.4 45.2 C65.2 48.9 62.1 52.4 60.7 55.6 C58.2 61.3 56.2 66 51.2 68.7 C46.8 71.1 42 71.1 36.4 71.1 C30.8 71.1 26.1 71.1 21.6 68.7 C16.7 66.1 14.6 61.3 12.1 55.6 C10.7 52.4 7.6 49 7.4 45.2 C6.8 33.7 5.5 23.9 11.1 14 C14.6 7.7 17.7 4.5 22.1 3.5 C23.6 3.2 36.5 0.9 36.5 0.9 C36.5 0.9 49.4 3.2 50.9 3.5 C55.3 4.6 58.4 7.7 61.9 14 z M61.1 13.5 C57.7 7.5 54.7 4.5 50.4 3.5 C49 3.2 36.5 1 36.5 1 C36.5 1 24 3.2 22.5 3.5 C18.2 4.5 15.2 7.5 11.8 13.5 C6.4 23 7.7 32.3 8.3 43.3 C8.5 46.9 11.5 50.2 12.9 53.2 C15.3 58.6 17.4 63.2 22.1 65.7 C26.5 68 31 68 36.5 68 C42 68 46.6 68 50.9 65.7 C55.8 63.1 57.7 58.6 60.1 53.2 C61.5 50.1 64.5 46.8 64.7 43.3 C65.4 32.2 66.6 22.9 61.1 13.5 z" opacity="0.15" id="t" /></g><g fill-rule="evenOdd" transform="translate(138.2343, 202.55) scale(0.755367, 0.6506411) translate(-128.4, -197.2) translate(101.6, 111) translate(67, 148) scale(-1, 1) translate(-67, -148) translate(27, 86)" id="u"><g id="v"><path d="M4.2 48.6 C1.9 35.9 3.3 31.3 7.6 21.8 C17.6 33.1 28.5 36.5 40.5 38.4 C50 37 61.7 33.9 72.4 21.8 C76.7 31.3 78.1 35.9 75.8 48.6 C71.9 70.1 71.8 67 68.8 80.9 C68.1 84 66.7 88.9 65.5 94.1 C64.1 100.2 51.8 95.1 52.8 79.4 C53.1 74.8 53.2 71 52.9 69 C52.1 62.5 47.9 60.6 39.8 56.8 C31.8 60.6 27.6 62.5 26.7 69 C26.4 71 26.5 74.8 26.8 79.4 C27.8 95.1 15.5 100.2 14.1 94.1 C12.9 88.9 11.5 84 10.8 80.9 C8.2 67.1 8 70.1 4.2 48.6 z" id="w" fill="#E3B988" /><path d="M16.1 111.4 C16.7 107.8 16.1 103.2 15.3 98.5 C15 97 14.7 95.6 14.4 94.1 C14.4 94 14.4 94 14.4 93.9 C14.4 91.2 15 88.4 16 85.9 C16.2 85.5 16.7 85.3 17.1 85.5 C17.8 85.8 19.2 86.6 19.9 85.7 C20.7 84.8 21.6 79.4 22.2 76.1 C22.3 75.5 22.9 75.3 23.4 75.6 C24.3 76.2 26.4 76.8 26.9 78.2 C28.5 86.7 33.3 93.3 32.9 101.2 C32 100.2 31.4 99.1 30.4 98.2 C31.4 101.1 31.9 104.3 33 107.2 C31.8 107.2 30.3 106.3 29.3 104.3 C29.3 104.6 29.4 104.9 29.4 105.3 C30.5 108.9 31.7 111.2 31.1 115.1 C30.9 114.9 30.7 114.8 30.5 114.6 C30.9 118.6 31.2 121.2 31.1 121.4 C29.4 124.7 12.6 123.2 10.6 121.5 C10.9 117.7 11.2 114.5 16.1 111.4 z" id="x" fill="#F3DEBB" /><path d="M50.6 104.4 C49.6 106.3 48.1 107.3 46.9 107.3 C48 104.5 48.5 101.2 49.5 98.3 C48.5 99.2 47.9 100.3 47 101.3 C46.6 93.4 51.4 86.8 53 78.4 C53.5 76.9 55.6 76.3 56.5 75.7 C57 75.4 57.6 75.7 57.7 76.2 C58.4 79.5 59.3 84.9 60 85.8 C60.7 86.7 62.2 85.9 62.8 85.6 C63.2 85.4 63.7 85.6 63.9 86 C64.9 88.6 65.4 91.3 65.5 94 C65.5 94.1 65.5 94.1 65.5 94.2 C65.2 95.7 64.9 97.1 64.6 98.6 C63.7 103.3 63.2 107.9 63.8 111.5 C68.7 114.6 69 117.8 69.2 121.9 C67.2 123.5 50.4 125 48.7 121.8 C48.6 121.5 48.9 118.9 49.3 115 C49.1 115.2 48.9 115.3 48.7 115.5 C48 111.6 49.3 109.3 50.4 105.7 C50.5 105.1 50.5 104.8 50.6 104.4 z" id="y" fill="#F3DEBB" /><path d="M14.1 94.1 C12.9 88.9 11.5 84 10.8 80.9 C8.2 67.1 8 70.1 4.2 48.6 C1.9 35.9 3.3 31.3 7.6 21.8 C17.6 33.1 28.5 36.5 40.5 38.4 C50 37 61.7 33.9 72.4 21.8 C76.7 31.3 78.1 35.9 75.8 48.6 C71.9 70.1 71.8 67 68.8 80.9 C68.1 84 66.7 88.9 65.5 94.1 C65.2 95.7 64.9 97.1 64.6 98.6 C63.7 103.3 63.2 107.9 63.8 111.5 C68.7 114.6 69 117.8 69.2 121.9 C67.2 123.5 50.4 125 48.7 121.8 C48.6 121.5 48.9 118.9 49.3 115 C49.1 115.2 48.9 115.3 48.7 115.5 C48 111.6 49.3 109.3 50.4 105.7 C50.5 105.1 50.5 104.8 50.6 104.4 C49.6 106.3 48.1 107.3 46.9 107.3 C48 104.5 48.5 101.2 49.5 98.3 C48.5 99.2 47.9 100.3 47 101.3 C46.6 93.7 51 87.3 52.8 79.4 C53.1 74.8 53.2 71 52.9 69 C52.1 62.5 47.9 60.6 39.8 56.8 C31.8 60.6 27.6 62.5 26.7 69 C26.4 70.8 26.5 73.9 26.7 77.8 C26.8 77.9 26.8 78.1 26.9 78.2 C28.5 86.7 33.3 93.3 32.9 101.2 C32 100.2 31.4 99.1 30.4 98.2 C31.4 101.1 31.9 104.3 33 107.2 C31.8 107.2 30.3 106.3 29.3 104.3 C29.3 104.6 29.4 104.9 29.4 105.3 C30.5 108.9 31.7 111.2 31.1 115.1 C30.9 114.9 30.7 114.8 30.5 114.6 C30.9 118.6 31.2 121.2 31.1 121.4 C29.4 124.7 12.6 123.2 10.6 121.5 C10.9 117.7 11.2 114.5 16.1 111.4 C16.7 107.8 16.1 103.2 15.3 98.5 C15.1 97.4 14.9 96.4 14.7 95.4 C14.4 95 14.2 94.6 14.1 94.1 z M15.9 92.6 C16 93.1 16.2 93.5 16.5 93.8 C16.7 94.8 16.8 95.7 17 96.7 C17.8 101 17.6 109.1 17 112.5 C12.5 115.4 13.1 115.4 12.8 119 C14.7 120.6 27.9 121.5 29.5 118.4 C29.6 118.2 29.5 116.7 29.1 112.9 C29.3 113.1 30.3 113.2 30.5 113.4 C31 109.8 28.8 106.3 27.8 103 C27.8 102.6 29.1 102.4 29.1 102.2 C30.1 104 30.4 105.4 31.5 105.4 C30.4 102.7 30.1 99.2 29.1 96.5 C30.1 97.3 30.5 97.2 31.4 98.1 C31.8 90.8 27.8 87.5 26.3 79.7 C25.2 72.1 24.7 67.8 24.9 66.7 C25.7 60.7 33.1 57.4 40.5 53.9 C48.1 57.4 53.5 62.5 54.2 68.5 C54.5 70.4 54.2 76.8 53.9 81.1 C52.3 88.5 48.1 90.5 48.5 97.6 C49.3 96.6 50.2 97.3 51.1 96.5 C50.2 99.2 49.4 102.4 48.3 105 C49.5 105 50.7 103.3 51.6 101.6 C51.5 101.9 51.5 104.9 51.4 105.4 C50.4 108.8 48.9 109.5 49.5 113.1 C49.7 112.9 50.5 113.6 50.7 113.4 C50.3 117 50.2 119.6 50.3 119.9 C51.9 122.8 64.8 121.2 66.6 119.7 C66.5 115.9 66.6 115.5 62 112.6 C61.5 109.3 62.3 103.9 63.1 99.5 C63.4 98.1 64.3 93.5 64.5 92 C65.7 87.2 66.1 83.2 66.8 80.3 C69.6 67.4 69.6 70.3 73.3 50.3 C75.4 38.5 76.3 33 72.3 24.2 C62.3 35.4 49.3 39.5 40.5 40.8 C29.3 39.1 17.3 34.7 8 24.2 C4 33 4.6 38.5 6.7 50.3 C10.3 70.3 10.4 67.5 12.9 80.3 C13.5 83.2 14.8 87.8 15.9 92.6 z" opacity="0.15" id="z" /><path d="M2.4 21.6 C3.5 17.3 6.2 13.6 8.9 9.2 C13.9 1.1 34.4 0.4 40 0.4 C45.6 0.4 66.1 1.1 71.1 9.2 C73.8 13.6 76.5 17.3 77.6 21.6 C80.2 28.1 80 35.8 76.9 42.1 C76.2 40.2 75.5 38.3 74.9 36.4 C74.7 36.7 74.5 37 74.3 37.4 C73.7 39.8 72.4 42 71.2 44.2 C69.9 46.6 68.6 49.2 68.7 51.9 C67.9 49.3 67.3 49.4 66.5 46.8 C64.5 54.7 60.5 57.5 57.6 64.1 C57 60.6 56.9 60.3 56.4 57.3 C56.1 57.6 55.9 57.8 55.6 58.1 C53.5 63.5 51.7 67.1 46.9 72.6 C47 71.1 46.7 69.5 46.4 68 C42.8 72.1 40.3 75.6 40.1 77.9 C39.8 75.8 37.6 72.6 34.5 68.8 C34.4 70 34.4 71.2 34.5 72.4 C29.7 66.9 26.8 63.4 24.6 58.1 C24.3 57.8 24 57.5 23.8 57.2 C23.2 60.5 22.9 62.8 22.3 66.3 C19.4 59.7 15.8 54.6 13.8 46.7 C13 49.3 12.4 49.2 11.6 51.8 C11.7 49.1 10.4 46.5 9.1 44.1 C7.9 41.9 6.6 39.7 6 37.3 C5.8 37 5.6 36.6 5.4 36.3 C4.7 38.2 4 40.1 3.4 42 C-0.1 35.8 -0.2 28.1 2.4 21.6 z" id="a1" fill="#F3DEBB" /><path d="M23.2 1.7 C30 0.2 37 0.4 40 0.4 C43 0.4 50 0.2 56.8 1.7 C62.7 4.6 60.2 19.3 59 23 C58.9 23.5 58.7 23.9 58.6 24.3 C57.3 32.5 53.1 40 52.4 39.8 C51.5 39.5 50.6 36.3 50.4 34 C50.5 38.8 46.3 46.6 45.8 46.5 C45.4 46.4 44.3 45.8 43.6 44.8 C43.3 45.9 43.1 46.8 42.8 47.7 C41.2 52.2 41.7 55.5 41.7 55.5 C41.7 55.5 38.9 54 37.2 47.7 C37 46.8 36.6 45.9 36.4 44.8 C35.6 45.7 34.5 46.4 34.2 46.5 C33.6 46.6 29.4 38.8 29.6 34 C29.4 36.3 28.5 39.6 27.6 39.8 C26.9 40 22.7 32.4 21.4 24.3 C21.3 23.9 21.1 23.5 21 23 C19.8 19.3 17.3 4.5 23.2 1.7 z" id="b1" fill="#D8D8D8" /><path d="M22.5 2.1 C22.7 1.9 23 1.8 23.2 1.7 C30 0.2 37 0.4 40 0.4 C43 0.4 50 0.2 56.8 1.7 C57 1.8 57.3 1.9 57.5 2.1 C63.3 3.3 68.8 5.5 71.1 9.2 C73.8 13.6 76.5 17.3 77.6 21.6 C80.2 28.1 80 35.8 76.9 42.1 C76.2 40.2 75.5 38.3 74.9 36.4 C74.7 36.7 74.5 37 74.3 37.4 C73.7 39.8 72.4 42 71.2 44.2 C69.9 46.6 68.6 49.2 68.7 51.9 C67.9 49.3 67.3 49.4 66.5 46.8 C64.5 54.7 60.5 57.5 57.6 64.1 C57 60.6 56.9 60.3 56.4 57.3 L55.6 58.1 C53.5 63.5 51.7 67.1 46.9 72.6 C47 71.1 46.7 69.5 46.4 68 C42.8 72.1 40.3 75.6 40.1 77.9 C39.8 75.8 37.6 72.6 34.5 68.8 C34.4 70 34.4 71.2 34.5 72.4 C29.7 66.9 26.8 63.4 24.6 58.1 C24.3 57.8 24 57.5 23.8 57.2 C23.2 60.5 22.9 62.8 22.3 66.3 C19.4 59.7 15.8 54.6 13.8 46.7 C13 49.3 12.4 49.2 11.6 51.8 C11.7 49.1 10.4 46.5 9.1 44.1 C7.9 41.9 6.6 39.7 6 37.3 C5.8 37 5.6 36.6 5.4 36.3 C4.7 38.2 4 40.1 3.4 42 C-0.1 35.8 -0.2 28.1 2.4 21.6 C3.5 17.3 6.2 13.6 8.9 9.2 C11.2 5.5 16.7 3.4 22.5 2.1 z M23.6 2.9 C18.1 4.1 12.9 6.1 10.7 9.6 C8.2 13.7 5 16.5 3.9 20.5 C1.5 26.7 -0.2 32.4 3.1 38.2 C3.7 36.4 5.9 34.1 6.6 32.3 C6.8 32.5 7.8 35.7 8 36 C8.6 38.3 9.6 39.8 10.7 41.8 C12 44.1 12 44.9 11.9 47.5 C12.6 45 13.5 44.9 14.3 42.5 C16.2 49.9 19 56 21.7 62.2 C22.3 58.9 22 55.1 22.6 52 C22.8 52.2 25.2 55.3 25.5 55.6 C27.6 60.6 28.7 63.4 33.2 68.6 C33.1 67.5 33.7 65.8 33.8 64.7 C36.7 68.3 39.8 72.2 40.1 74.2 C40.3 72 43.1 67.1 46.5 63.2 C46.8 64.7 48.3 67.2 48.2 68.6 C52.7 63.4 52.7 60.7 54.7 55.6 L57 53.1 C57.5 55.9 57.6 56.7 58.2 60 C60.9 53.8 64.5 50.6 66.4 43.2 C67.1 45.7 67.7 45.6 68.5 48.1 C68.4 45.5 68.6 43.8 69.9 41.6 C71 39.5 71.7 38.4 72.3 36.1 C72.4 35.7 74.6 32.1 74.8 31.8 C75.4 33.6 76.2 36.4 76.9 38.2 C79.8 32.3 77.7 25.3 75.3 19.2 C74.3 15.2 71.8 13.7 69.3 9.6 C67.1 6.1 61.9 4.1 56.4 2.9 C56.2 2.8 56 2.6 55.8 2.5 C49.4 1.1 42.7 1 39.9 1 C37.1 1 30.6 1.1 24.2 2.5 C24 2.6 23.8 2.8 23.6 2.9 z" opacity="0.15" id="c1" /></g></g></g><g transform="translate(168.5, 215.6) scale(0.8607069) translate(-168.5, -215.6)" id="d1"><g transform="translate(108.8, 104.6) translate(11, 26)" id="e1"><path d="M5.5 77 C0.1 65.8 -0.6 51.2 1 39.1 C3.2 27.2 8.5 25.2 15.8 17.9 C23.1 10.6 25.8 0.2 49.1 0.3 C72.3 0.4 73.5 8.3 79.9 14.4 C86.3 20.4 92.4 23.4 96.2 30.6 C100 37.8 101.2 59.8 96.2 71.2 C92 80.9 80.7 92.2 66.3 92.4 C54.5 93 51.9 93.8 40.2 93.8 C28.5 93.8 11.5 88.2 5.5 77 z" id="f1" fill="#E8CCA2" /><path d="M5.5 77 C0.1 65.8 -0.6 51.2 1 39.1 C3.2 27.2 8.5 25.2 15.8 17.9 C23.1 10.6 25.8 0.2 49.1 0.3 C72.3 0.4 73.5 8.3 79.9 14.4 C86.3 20.4 92.4 23.4 96.2 30.6 C100 37.8 101.2 59.8 96.2 71.2 C92 80.9 80.7 92.2 66.3 92.4 C54.5 93 51.9 93.8 40.2 93.8 C28.5 93.8 11.5 88.2 5.5 77 z M7.3 74.8 C13 85.6 29.3 90.9 40.6 90.9 C51.9 90.9 54.3 90.1 65.7 89.6 C79.5 89.4 90.4 78.6 94.4 69.2 C99.2 58.3 98 37.1 94.4 30.2 C90.8 23.3 84.9 20.4 78.7 14.6 C72.6 8.8 71.4 1.2 49.1 1.2 C26.7 1.1 24.1 11.1 17.1 18.1 C10.1 25.1 5 27 2.9 38.4 C1.4 50 2.1 64.1 7.3 74.8 z" opacity="0.15" id="g1" /></g><g transform="translate(140.3, 144.8) rotate(12, 0, 0) scale(1.2) translate(-137.3, -150.8) translate(107.8, 128) translate(2, 16)" id="h1"><g id="i1"><path d="M0.2 37 C0.2 35.6 0.2 30.8 0.3 29.9 C0.2 28.7 0.9 27.3 2 26.1 C1.7 26.2 1.4 26.3 1 26.5 C1.7 24 3.2 18.8 3.2 18.8 C1.9 18 1.4 15.6 3.5 12.8 C3.3 15.6 5.5 14.4 6.1 13.7 C6.7 13 7.3 12.3 7.9 11.6 C8.6 10.8 9.7 10.3 10.8 9.8 C11.2 9.3 11.7 8.8 12.1 8.3 C11.5 8.3 10.9 8.4 10.4 8.6 C12 6.4 14.3 4.6 16.9 3.7 C17.3 3.4 17.6 3.2 18 2.9 C16.6 2.3 15.1 1.7 13.7 1 C16.8 0.9 19.9 0.7 23.1 0.6 C24.4 0.5 26.2 0.6 28.4 3.5 C31.8 8 26.9 9.4 25.6 26.2 C24.9 36.1 25 42.4 24.8 46.4 C24.9 49.3 24.9 52.3 25 55.2 C24.3 54.4 23.7 53.7 23 52.9 C22.7 54.4 22.5 55.7 22.2 57.4 C20.9 56.4 19.6 55.5 18.3 54.5 C18.2 52.8 18.2 51.2 18.1 49.5 C18.1 49.5 18.1 49.5 18 49.4 C17.4 50.8 16.8 52.2 16.2 53.6 C15.8 51.6 15.5 49.5 15.1 47.5 C14.8 48.6 14.5 49.8 14.2 50.9 C13.6 49.2 12.9 47.5 12.3 45.9 C12.1 46.8 11.8 47.7 11.6 48.6 C10.1 47.6 8.6 46.6 7.1 45.7 C7.1 44.7 7.2 43.8 7.2 42.8 C6.5 43.6 5.9 44.4 5.2 45.2 C3.1 42.7 2.1 39.4 2.4 36.2 C2.2 35.6 2 35.1 1.9 34.5 C1.4 35.4 0.8 36.2 0.2 37 z" id="j1" fill="#E3B988" /><path d="M0.2 37 C0.2 35.6 0.2 30.8 0.3 29.9 C0.2 28.7 0.9 27.3 2 26.1 C1.7 26.2 1.4 26.3 1 26.5 C1.7 24 3.2 18.8 3.2 18.8 C1.9 18 1.4 15.6 3.5 12.8 C3.3 15.6 5.5 14.4 6.1 13.7 C6.7 13 7.3 12.3 7.9 11.6 C8.6 10.8 9.7 10.3 10.8 9.8 C11.2 9.3 11.7 8.8 12.1 8.3 C11.5 8.3 10.9 8.4 10.4 8.6 C12 6.4 14.3 4.6 16.9 3.7 C17.3 3.4 17.6 3.2 18 2.9 C16.6 2.3 15.1 1.7 13.7 1 C16.8 0.9 19.9 0.7 23.1 0.6 C24.4 0.5 26.2 0.6 28.4 3.5 C31.8 8 26.9 9.4 25.6 26.2 C24.9 36.1 25 42.4 24.8 46.4 C24.9 49.3 24.9 52.3 25 55.2 C24.3 54.4 23.7 53.7 23 52.9 C22.7 54.4 22.5 55.7 22.2 57.4 C20.9 56.4 19.6 55.5 18.3 54.5 C18.2 52.8 18.2 51.2 18.1 49.5 C18.1 49.5 18.1 49.5 18 49.4 C17.4 50.8 16.8 52.2 16.2 53.6 C15.8 51.6 15.5 49.5 15.1 47.5 C14.8 48.6 14.5 49.8 14.2 50.9 C13.6 49.2 12.9 47.5 12.3 45.9 C12.1 46.8 11.8 47.7 11.6 48.6 C10.1 47.6 8.6 46.6 7.1 45.7 C7.1 44.7 7.2 43.8 7.2 42.8 C6.5 43.6 5.9 44.4 5.2 45.2 C3.1 42.7 2.1 39.4 2.4 36.2 C2.2 35.6 2 35.1 1.9 34.5 C1.4 35.4 0.8 36.2 0.2 37 z M1 33.9 C1.6 33.2 2.2 32.8 2.6 31.9 C2.7 32.5 2.9 33.5 3.1 34.1 C2.8 37 3.8 40.1 5.7 42.4 C6.4 41.7 6.9 40.9 7.6 40.2 C7.6 40.8 7.7 41.8 7.9 43.2 C9.2 44 10.3 44.7 11.3 45.3 C11.5 44.5 12.3 43.9 12.4 43.1 C13 44.6 13.3 45.6 13.9 47.2 C14.2 46.2 14.8 45.6 15 44.6 C15.4 46.4 16.1 47.8 16.5 49.7 C16.9 48.8 17.6 47.8 18.7 46.5 C18.8 48.7 18.9 50.3 19 51.3 C20.2 52.2 20.5 52.8 21.8 53.7 C22.1 52.1 22.3 50.9 22.6 49.6 C23.3 50.3 23.8 51 24.5 51.7 C24.4 49 23.2 35.8 23.9 26.7 C25 11.1 30.8 8.1 27.6 4 C25.5 1.3 24.2 1.1 23 1.1 C20 1.2 18.9 1.3 16 1.4 C17.3 2 18.1 2.4 19.4 3 C19 3.3 17.2 3.9 16.8 4.1 C14.4 4.9 13.2 5.7 11.7 7.7 C12.2 7.5 13 7.8 13.6 7.8 C13.2 8.3 11.2 9.7 10.8 10.1 C9.8 10.6 7.2 13 6.6 13.6 C6 14.2 3.8 15.6 3.2 13.8 C2.3 15.4 3.1 17.2 4.3 17.9 C4.3 17.9 2.7 22.1 2 24.4 C2.4 24.2 3.2 24.3 3.4 24.2 C2.4 25.3 1 26.9 1.1 28 C1.1 29.1 1 32.6 1 33.9 z" opacity="0.15" id="k1" /></g></g><g transform="translate(198.4, 144.8) rotate(-12, 0, 0) scale(1.2) translate(-201.4, -150.8) translate(112.1, 128.1) translate(102, 45) scale(-1, 1) translate(-102, -45) translate(87, 16)" id="l1"><g id="m1"><path d="M0.2 37 C0.2 35.6 0 32.1 0.3 29.9 C0.5 28.5 1.1 27.2 2 26.1 C1.7 26.2 1.4 26.3 1 26.5 C1.7 24 2.5 21.1 3.2 18.8 C2.9 18.6 1 16.3 3.5 12.8 C3.3 15.6 5.5 14.4 6.1 13.7 C6.7 13 7.3 12.3 7.9 11.6 C8.6 10.8 9.7 10.3 10.8 9.8 C11.2 9.3 11.7 8.8 12.1 8.3 C11.5 8.3 10.9 8.4 10.4 8.6 C12 6.4 14.3 4.6 16.9 3.7 C17.3 3.4 17.6 3.2 18 2.9 C16.6 2.3 15.1 1.7 13.7 1 C16.8 0.9 19.9 0.7 23.1 0.6 C24.4 0.5 26.2 0.6 28.4 3.5 C31.8 8 26.9 9.4 25.6 26.2 C24.9 36.1 25 42.4 24.8 46.4 C24.9 49.3 24.9 52.3 25 55.2 C24.3 54.4 23.7 53.7 23 52.9 C22.7 54.4 22.5 55.7 22.2 57.4 C20.9 56.4 19.6 55.5 18.3 54.5 C18.2 52.8 18.2 51.2 18.1 49.5 C18.1 49.5 18.1 49.5 18 49.4 C17.4 50.8 16.8 52.2 16.2 53.6 C15.8 51.6 15.5 49.5 15.1 47.5 C14.8 48.6 14.5 49.8 14.2 50.9 C13.6 49.2 12.9 47.5 12.3 45.9 C12.1 46.8 11.8 47.7 11.6 48.6 C10.1 47.6 8.6 46.6 7.1 45.7 C7.1 44.7 7.2 43.8 7.2 42.8 C6.5 43.6 5.9 44.4 5.2 45.2 C3.1 42.7 2.1 39.4 2.4 36.2 C2.2 35.6 2 35.1 1.9 34.5 C1.4 35.4 0.8 36.2 0.2 37 z" id="n1" fill="#E3B988" /><path d="M1.8 26.3 C1.8 26.2 1.8 26.2 1.9 26.1 C1.6 26.2 1.4 26.3 1 26.5 C1.7 24 2.5 21.1 3.2 18.8 C2.9 18.6 1 16.3 3.5 12.8 C3.3 15.6 5.5 14.4 6.1 13.7 C6.7 13 7.3 12.3 7.9 11.6 C8.6 10.8 9.7 10.3 10.8 9.8 C11.2 9.3 11.7 8.8 12.1 8.3 C11.5 8.3 10.9 8.4 10.4 8.6 C12 6.4 14.3 4.6 16.9 3.7 C17.3 3.4 17.6 3.2 18 2.9 C16.6 2.3 15.1 1.7 13.7 1 C16.8 0.9 19.9 0.7 23.1 0.6 C24.4 0.5 26.2 0.6 28.4 3.5 C31.8 8 26.9 9.4 25.6 26.2 C24.9 36.1 25 42.4 24.8 46.4 C24.9 49.3 24.9 52.3 25 55.2 C24.3 54.4 23.7 53.7 23 52.9 C22.7 54.4 22.5 55.7 22.2 57.4 C20.9 56.4 19.6 55.5 18.3 54.5 C18.2 52.8 18.2 51.2 18.1 49.5 C18.1 49.5 18.1 49.5 18 49.4 C17.4 50.8 16.8 52.2 16.2 53.6 C15.8 51.6 15.5 49.5 15.1 47.5 C14.8 48.6 14.5 49.8 14.2 50.9 C13.6 49.2 12.9 47.5 12.3 45.9 C12.1 46.8 11.8 47.7 11.6 48.6 C10.1 47.6 8.6 46.6 7.1 45.7 C7.1 44.7 7.2 43.8 7.2 42.8 C6.5 43.6 5.9 44.4 5.2 45.2 C3.1 42.7 2.1 39.4 2.4 36.2 C2.2 35.6 2 35.1 1.9 34.5 C1.4 35.4 0.8 36.2 0.2 37 C0.2 35.6 0 32.1 0.3 29.9 C0.5 28.6 1 27.4 1.8 26.3 z M1.8 26.3 C1.6 26.8 1.5 27.3 1.4 27.8 C1.1 29.8 1.3 33.1 1.3 34.3 C1.9 33.6 2.4 32.8 2.9 32 C3 32.6 3.2 33 3.4 33.6 C3.1 36.6 3.7 39.4 5.7 41.7 C6.3 41 7.8 40.8 8.5 40.1 C8.5 41 8.7 41.8 8.7 42.7 C10.1 43.5 10.2 44.1 11.6 45 C11.8 44.2 12.8 43.6 13 42.7 C13.6 44.2 13.5 45.4 14.1 47 C14.4 46 15.6 45.6 15.9 44.6 C16.3 46.4 16.7 47.8 17 49.7 C17.6 48.4 18.3 47.6 18.8 46.3 C18.9 46.4 19 49 19.1 50.6 C20.3 51.5 20.7 52.3 21.9 53.2 C22.2 51.6 22.4 50.4 22.6 49.1 C23.2 49.8 23.8 50.5 24.4 51.2 C24.3 48.5 23.4 46.5 23.3 43.8 C22.9 40.7 22.7 38.4 23.3 29.3 C24.5 13.8 30.7 7.7 27.5 3.5 C25.5 0.8 23.7 1.1 22.5 1.2 C19.5 1.3 19.6 1.5 16.8 1.6 C18.1 2.2 18.6 3 19.9 3.5 C19.5 3.8 18.3 4 18 4.3 C15.6 5.1 13.6 5.7 12.1 7.7 C12.6 7.5 13.4 7.4 14 7.4 C13.6 7.9 12.5 9.4 12.1 9.8 C11.1 10.3 9.5 11.4 8.9 12.1 C8.3 12.7 7.5 13.3 7 14 C6.5 14.7 3.8 16.3 3 14.3 C2.7 17.1 3.8 17.4 4.1 17.6 C3.5 19.7 2.7 22.4 2.1 24.7 C2.5 24.5 2.7 24.4 3 24.3 C2.5 24.9 2.2 25.5 1.9 26.1 C1.9 26.1 2 26.1 2 26.1 C1.9 26.2 1.9 26.2 1.8 26.3 z" opacity="0.15" id="o1" /></g></g><g id="p1"><g transform="translate(104.1, 117.5) translate(21, 46)" id="q1"><g transform="translate(0, 18)" id="r1"><path d="M10.2 45.1 C-3.3 37.9 0.5 36.4 0.5 32.5 C0.5 28.6 4.2 16.6 12.2 12 C20.1 7.3 38.5 0.7 39.6 0.3 C40.7 -0.1 57.5 -0.5 60 2 C62.6 4.4 71.8 6.8 77.1 11.7 C82.4 16.7 87 25.3 87.4 26.6 C87.8 27.9 88.3 32.6 85.5 37.2 C82.7 41.9 84.1 41.9 76.2 45.2 C66 49.6 23.7 52.3 10.2 45.1 z" id="s1" fill="#806456" /><path d="M10.2 45.1 C-3.3 37.9 0.5 36.4 0.5 32.5 C0.5 28.6 4.2 16.6 12.2 12 C20.1 7.3 38.5 0.7 39.6 0.3 C40.7 -0.1 57.5 -0.5 60 2 C62.6 4.4 71.8 6.8 77.1 11.7 C82.4 16.7 87 25.3 87.4 26.6 C87.8 27.9 88.3 32.6 85.5 37.2 C82.7 41.9 84.1 41.9 76.2 45.2 C66 49.6 23.7 52.3 10.2 45.1 z M12.9 42.5 C25.3 49.1 64.2 46.6 73.6 42.6 C80.9 39.6 79.6 39.6 82.1 35.2 C84.7 31 84.2 26.7 83.8 25.5 C83.4 24.3 79.2 16.4 74.3 11.8 C69.5 7.3 61.1 5 58.7 2.8 C56.4 0.5 41 0.9 39.9 1.3 C38.9 1.6 22 7.7 14.8 12 C7.4 16.3 4 27.3 4 30.9 C4 34.5 0.5 35.8 12.9 42.5 z" opacity="0.15" id="t1" /><path d="M31 18.5 C32.1 18.5 32.6 19.5 32.6 21.4 L27.8 21.4 L27.8 19.9 C28.9 18.9 30 18.5 31 18.5 z" id="u1" fill="#52403A" /><path d="M15 25.1 C16.1 25.1 16.6 26.1 16.6 28 L11.8 28 L11.8 26.5 C12.9 25.6 14 25.1 15 25.1 z" id="v1" fill="#52403A" /><path d="M30.8 28.1 C31.9 28.1 32.4 29.1 32.4 31 L27.6 31 L27.6 29.5 C28.7 28.6 29.8 28.1 30.8 28.1 z" id="w1" fill="#52403A" /><path d="M59.6 19.2 C60.7 19.2 61.2 20.2 61.2 22.1 L56.4 22.1 L56.4 20.6 C57.5 19.7 58.6 19.2 59.6 19.2 z" id="x1" fill="#52403A" /><path d="M59.6 29.1 C60.7 29.1 61.2 30.1 61.2 32 L56.4 32 L56.4 30.5 C57.5 29.6 58.6 29.1 59.6 29.1 z" id="y1" fill="#52403A" /><path d="M71.5 25.1 C72.6 25.1 73.1 26.1 73.1 28 L68.3 28 L68.3 26.5 C69.4 25.6 70.5 25.1 71.5 25.1 z" id="z1" fill="#52403A" /></g></g><g transform="translate(169.7, 216.0999) scale(1.6) translate(-169.7, -216.0999) translate(102.9, 109) translate(56, 101)" id="a2"><g id="b2"><path d="M16 5.1 L10.5 5.3 L5 5.1 C4.6 7.1 3.7 13.5 10.5 13.5 C17.3 13.5 16.3 7.1 16 5.1 z" id="c2" fill="#EF918F" /><path d="M20.7 3.6 C20.4 3.1 19.8 2.9 19.4 3.2 L19.3 3.2 C19.3 3.2 19.1 3.3 18.7 3.5 C18.5 3.6 18.3 3.7 18 3.8 C17.7 3.9 17.4 3.9 17 4 C16.3 4.1 15.4 4.1 14.3 4.1 C13.8 4.1 13.2 4 12.7 4 C12.3 4 11.8 4 11.4 3.9 L11.6 1.7 L11.6 1.6 C11.6 1 11.1 0.6 10.5 0.7 C9.9 0.7 9.5 1.2 9.6 1.8 L9.8 4.1 C9 4.1 8.2 4.1 7.5 4.2 C6.5 4.2 5.5 4.2 4.8 4.1 C4.1 4 3.5 3.8 3.1 3.7 C2.9 3.7 2.7 3.5 2.6 3.5 C2.5 3.4 2.4 3.4 2.4 3.4 C2 3.2 1.5 3.3 1.2 3.6 C0.8 4 0.8 4.6 1.2 5 C1.2 5 1.3 5.1 1.3 5.2 C1.4 5.3 1.5 5.4 1.8 5.7 C2.3 6.1 3.1 6.6 4.1 6.9 C5.1 7.2 6.2 7.4 7.4 7.4 C8.6 7.5 9.7 7.4 10.8 7.5 C11.4 7.5 11.9 7.5 12.5 7.5 C13.1 7.5 13.7 7.5 14.3 7.5 C14.9 7.5 15.5 7.4 16 7.3 C16.6 7.2 17.1 7.1 17.6 6.9 C18.6 6.6 19.3 6.1 19.8 5.7 C20 5.5 20.2 5.3 20.3 5.2 C20.4 5.1 20.5 5 20.5 5 C20.8 4.5 20.9 4 20.7 3.6 z" id="d2" fill="#332320" /></g></g><g transform="translate(91.89999, 114.9) translate(68, 59)" id="e2"><g id="f2"><path d="M11.1 0.8 C15.4 0.8 16.5 1.2 19.7 3.5 C22.9 5.8 21.6 9.8 20.2 12.2 C19.7 13 18.6 13.6 17.6 14.9 C16.8 15.9 16.1 17.7 15.2 18.3 C13.9 19.2 12.7 19.6 10.9 19.5 C9.1 19.5 7.6 19 6.4 18.3 C4.4 17.1 3.9 15.5 3.1 14 C2.6 13.1 1.1 11.7 0.7 10.5 C0 8.5 -0.3 6.3 0.9 4.4 C2.9 1.4 6.7 0.8 11.1 0.8 z" id="g2" fill="#282421" /><path d="M3.2 4.8 C3.2 5.2 5.1 4.3 7.3 3.9 C8.3 3.7 9.4 3.6 10.9 3.6 C12.4 3.6 14.7 4.6 14.3 5.2 C13.7 6.1 14.1 7.5 15.7 7.9 C16.4 8 17 8 17.9 7.7 C18.8 7.3 19 6.7 19.1 6.1 C19.2 5.5 19.2 4.7 17.9 4 C17.6 3.8 16.2 2.8 14.4 2.6 C12.2 2.4 10.4 2.4 8.8 2.6 C7.2 2.8 6 3 5.1 3.4 C3.8 4 3.2 4.6 3.2 4.8 z" id="h2" fill="#FFF" /></g></g><g transform="translate(153, 165.3) scale(1.1) translate(-153, -165.3) translate(107.1, 128.6) translate(37, 12)" id="i2"><g id="j2"><path d="M0.3 20.7 C0.7 19.4 4.5 19.3 9.6 21.2 C14 22.8 13.1 28.2 9.1 28.8 C3.4 29.5 -0.8 24.4 0.3 20.7 z" id="k2" fill="#D8D8D8" /><path d="M10 9.1 C13.3 8.1 19.3 8.3 22.1 10.3 C25.4 12.7 26.4 16.7 26.1 19.7 C25.4 27.1 22.5 30.1 17.7 32.6 C16.5 33.2 14 34.5 13.8 34.2 C13.6 33.9 20.5 29.3 16.7 23.6 C15.7 22.2 13.6 20.2 8.6 19.2 C4.2 18.3 2.3 18.6 1.4 16.6 C0.4 14.3 4.5 10.7 10 9.1 z" id="l2" fill="#F3DEBB" /><path d="M15.3 22.9 C15.1 26.9 10.9 29.6 7.2 28.5 C3.1 27.3 2 24.3 2.7 20.9 C6.1 20.1 15.2 22 15.3 22.9 z" id="m2" fill="#282421" /><path d="M23 18.8 C20.8 20.4 18.2 21.3 16.4 20.7 C14.5 20.1 14.3 17.8 13.7 15.7 C14.9 14.5 17.6 11.8 19.6 12.8 C21.5 13.7 22.8 16.9 23 18.8 z" id="n2" fill="#CEB08D" /><path d="M19.7 0.5 C26.6 2.6 26.6 9.1 26.6 11.3 C22 6.5 15 4.3 8.4 4.6 C8.6 2.7 14.2 -1.2 19.7 0.5 z" id="o2" fill="#F3DEBB" /><path d="M13.2 24.5 L13.3 23.7 C13.4 23.3 13.1 22.8 12.7 22.7 C11.1 22.3 7.8 21.6 8.5 22.9 C8.7 23.3 10.5 23.9 11 24.3 C11.2 24.5 11.4 24.7 11.6 24.9 C12.2 25.4 13.1 25.2 13.2 24.5 z" id="p2" fill="#FFF" /></g><g id="q2"><path d="M0.3 20.7 C0.7 19.4 4.5 19.3 9.6 21.2 C14 22.8 13.1 28.2 9.1 28.8 C3.4 29.5 -0.8 24.4 0.3 20.7 z" id="r2" fill="#CEB08D" /><path d="M10 9.1 C13.3 8.1 19.3 8.3 22.1 10.3 C25.4 12.7 26.4 16.7 26.1 19.7 C25.4 27.1 22.5 30.1 17.7 32.6 C16.5 33.2 14 34.5 13.8 34.2 C13.6 33.9 20.5 29.3 16.7 23.6 C15.7 22.2 13.6 20.2 8.6 19.2 C4.2 18.3 2.3 18.6 1.4 16.6 C0.4 14.3 4.5 10.7 10 9.1 z" id="s2" fill="#F3DEBB" /><path d="M15.3 22.9 C15.1 26.9 10.9 29.6 7.2 28.5 C3.1 27.3 2 24.3 2.7 20.9 C6.1 20.1 15.2 22 15.3 22.9 z" id="t2" fill="#282421" /><path d="M23 18.8 C20.8 20.4 18.2 21.3 16.4 20.7 C14.5 20.1 14.3 17.8 13.7 15.7 C14.9 14.5 17.6 11.8 19.6 12.8 C21.5 13.7 22.8 16.9 23 18.8 z" id="u2" fill="#CEB08D" /><path d="M19.7 0.5 C26.6 2.6 26.6 9.1 26.6 11.3 C22 6.5 15 4.3 8.4 4.6 C8.6 2.7 14.2 -1.2 19.7 0.5 z" id="v2" fill="#F3DEBB" /><path d="M13.2 24.5 L13.3 23.7 C13.4 23.3 13.1 22.8 12.7 22.7 C11.1 22.3 7.8 21.6 8.5 22.9 C8.7 23.3 10.5 23.9 11 24.3 C11.2 24.5 11.4 24.7 11.6 24.9 C12.2 25.4 13.1 25.2 13.2 24.5 z" id="w2" fill="#FFF" /></g></g><g transform="translate(190.2, 165.7) scale(1.1) translate(-190.2, -165.7) translate(105.1, 129) translate(67, 12)" id="x2"><g id="y2"><path d="M17 9.1 C13.7 8.1 7.7 8.3 4.9 10.3 C1.6 12.7 0.6 16.7 0.9 19.7 C1.6 27.1 4.5 30.1 9.3 32.6 C10.5 33.2 13 34.5 13.2 34.2 C13.4 33.9 6.5 29.3 10.3 23.6 C11.3 22.2 13.4 20.2 18.4 19.2 C22.8 18.3 24.7 18.6 25.6 16.6 C26.6 14.3 22.5 10.7 17 9.1 z" id="z2" fill="#F3DEBB" /><path d="M26.7 20.7 C26.3 19.4 22.5 19.3 17.4 21.2 C13 22.8 13.9 28.2 17.9 28.8 C23.6 29.5 27.8 24.4 26.7 20.7 z" id="a3" fill="#D8D8D8" /><path d="M11.7 22.9 C11.9 26.9 16.1 29.6 19.8 28.5 C23.9 27.3 25 24.3 24.3 20.9 C20.9 20.1 11.8 22 11.7 22.9 z" id="b3" fill="#282421" /><path d="M4 18.8 C6.2 20.4 8.8 21.3 10.6 20.7 C12.5 20.1 12.7 17.8 13.3 15.7 C12.1 14.5 9.4 11.8 7.4 12.8 C5.5 13.7 4.2 16.9 4 18.8 z" id="c3" fill="#CEB08D" /><path d="M7.3 0.5 C0.4 2.6 0.4 9.1 0.4 11.3 C5 6.5 12 4.3 18.6 4.6 C18.4 2.7 12.8 -1.2 7.3 0.5 z" id="d3" fill="#F3DEBB" /><path d="M23.4 23.3 L23.4 22.5 C23.4 22 23.1 21.7 22.6 21.6 C21 21.5 17.6 21.4 18.6 22.5 C18.9 22.8 20.8 23.1 21.3 23.4 C21.6 23.5 21.8 23.7 22 23.9 C22.6 24.4 23.4 24 23.4 23.3 z" id="e3" fill="#FFF" /></g><g id="f3"><path d="M17 9.1 C13.7 8.1 7.7 8.3 4.9 10.3 C1.6 12.7 0.6 16.7 0.9 19.7 C1.6 27.1 4.5 30.1 9.3 32.6 C10.5 33.2 13 34.5 13.2 34.2 C13.4 33.9 6.5 29.3 10.3 23.6 C11.3 22.2 13.4 20.2 18.4 19.2 C22.8 18.3 24.7 18.6 25.6 16.6 C26.6 14.3 22.5 10.7 17 9.1 z" id="g3" fill="#F3DEBB" /><path d="M26.7 20.7 C26.3 19.4 22.5 19.3 17.4 21.2 C13 22.8 13.9 28.2 17.9 28.8 C23.6 29.5 27.8 24.4 26.7 20.7 z" id="h3" fill="#CEB08D" /><path d="M11.7 22.9 C11.9 26.9 16.1 29.6 19.8 28.5 C23.9 27.3 25 24.3 24.3 20.9 C20.9 20.1 11.8 22 11.7 22.9 z" id="i3" fill="#282421" /><path d="M4 18.8 C6.2 20.4 8.8 21.3 10.6 20.7 C12.5 20.1 12.7 17.8 13.3 15.7 C12.1 14.5 9.4 11.8 7.4 12.8 C5.5 13.7 4.2 16.9 4 18.8 z" id="j3" fill="#CEB08D" /><path d="M7.3 0.5 C0.4 2.6 0.4 9.1 0.4 11.3 C5 6.5 12 4.3 18.6 4.6 C18.4 2.7 12.8 -1.2 7.3 0.5 z" id="k3" fill="#F3DEBB" /><path d="M23.4 23.3 L23.4 22.5 C23.4 22 23.1 21.7 22.6 21.6 C21 21.5 17.6 21.4 18.6 22.5 C18.9 22.8 20.8 23.1 21.3 23.4 C21.6 23.5 21.8 23.7 22 23.9 C22.6 24.4 23.4 24 23.4 23.3 z" id="l3" fill="#FFF" /></g></g></g></g></g></g><defs><g transform="translate(17.09519, 0.800995) translate(-135.2952, -293.601)" id="m3" fill="#000"><path d="M118.2 302.7 C118.4 307.4 132.5 311.2 149.8 311.2 C167.1 311.2 181.2 307.4 181.4 302.7 C181.4 307.5 181.4 310.1 181.4 310.5 C181.4 315.3 167.3 319.1 149.8 319.1 C132.3 319.1 118.2 315.2 118.2 310.5 L118.2 302.7 L118.2 302.7 z" fill-opacity="0.4528" id="n3" fill="#593001" /><path d="M118.7 301.7 C118.9 306.4 133 310.2 150.3 310.2 C167.6 310.2 181.7 306.4 181.9 301.7 C181.9 306.5 181.9 309.1 181.9 309.5 C181.9 314.3 167.8 318.1 150.3 318.1 C132.8 318.1 118.7 314.2 118.7 309.5 L118.7 301.7 L118.7 301.7 z" id="o3" fill="#DA8113" /><linearGradient x1="46.0545" y1="-118.6926" x2="45.4656" y2="-118.6926" gradientUnits="userSpaceOnUse" gradientTransform="matrix(117.135, 0, 0, 28.4634, -5208.417, 3687.795)" id="p3"><stop offset="0%" stop-color="#D9952A" stop-opacity="1" /><stop offset="6.438854%" stop-color="#CA7519" stop-opacity="1" /><stop offset="30.54%" stop-color="#E3AD3A" stop-opacity="1" /><stop offset="51.05%" stop-color="#FFEC91" stop-opacity="1" /><stop offset="68.8%" stop-color="#E9BD44" stop-opacity="1" /><stop offset="86.24%" stop-color="#FFED6C" stop-opacity="1" /><stop offset="93.87%" stop-color="#F2D353" stop-opacity="1" /><stop offset="100%" stop-color="#F2B947" stop-opacity="1" /></linearGradient><path d="M118.2 301.6 C118.4 306.1 132.7 309.7 150.3 309.7 C167.9 309.7 182.2 306.1 182.4 301.6 C182.4 306.2 182.4 308.7 182.4 309 C182.4 313.5 168 317.2 150.3 317.2 C132.6 317.2 118.2 313.5 118.2 309 L118.2 301.6 L118.2 301.6 z" id="q3" style="fill:url(#p3)" /><linearGradient x1="45.4914" y1="-117.9547" x2="45.9407" y2="-117.5895" gradientUnits="userSpaceOnUse" gradientTransform="matrix(115.425, 0, 0, 29.925, -5125.077, 3826.124)" id="r3"><stop offset="0%" stop-color="#F4E072" stop-opacity="1" /><stop offset="100%" stop-color="#DB9427" stop-opacity="1" /></linearGradient><ellipse cx="150.3" cy="301.5" rx="31.6" ry="8.2" id="s3" style="fill:url(#r3)" /><linearGradient x1="45.4656" y1="-126.0065" x2="46.0545" y2="-126.0065" gradientUnits="userSpaceOnUse" gradientTransform="matrix(117.135, 0, 0, 18.6219, -5208.417, 2651.479)" id="t3"><stop offset="0%" stop-color="#D9952A" stop-opacity="1" /><stop offset="6.438854%" stop-color="#CA7519" stop-opacity="1" /><stop offset="30.54%" stop-color="#E3AD3A" stop-opacity="1" /><stop offset="51.05%" stop-color="#FFEC91" stop-opacity="1" /><stop offset="68.8%" stop-color="#E9BD44" stop-opacity="1" /><stop offset="86.24%" stop-color="#FFED6C" stop-opacity="1" /><stop offset="93.87%" stop-color="#F2D353" stop-opacity="1" /><stop offset="100%" stop-color="#F2B947" stop-opacity="1" /></linearGradient><path d="M119.2 299.9 C119 300.2 118.9 300.6 118.9 301 C118.9 305.5 132.9 309.2 150.3 309.2 C167.7 309.2 181.7 305.5 181.7 301 C181.7 300.6 181.6 300.3 181.4 299.9 C182 300.5 182.4 301.2 182.4 301.9 C182.4 306.4 168 310.1 150.3 310.1 C132.6 310.1 118.2 306.4 118.2 301.9 C118.2 301.3 118.6 300.6 119.2 299.9 z" id="u3" style="fill:url(#t3)" /><linearGradient x1="45.196" y1="-121.5895" x2="45.3746" y2="-120.6758" gradientUnits="userSpaceOnUse" gradientTransform="matrix(101.745, 0, 0, 23.94, -4458.332, 3199.41)" id="v3"><stop offset="0%" stop-color="#F8DD61" stop-opacity="1" /><stop offset="100%" stop-color="#EAA330" stop-opacity="1" /></linearGradient><ellipse cx="150.3" cy="300.8" rx="27.8" ry="6.6" id="w3" style="fill:url(#v3)" /><linearGradient x1="45.5694" y1="-134.267" x2="45.0221" y2="-134.267" gradientUnits="userSpaceOnUse" gradientTransform="matrix(101.745, 0, 0, 13.2525, -4458.332, 2077.223)" id="x3"><stop offset="0%" stop-color="#F4CA2F" stop-opacity="1" /><stop offset="51.38%" stop-color="#BF7737" stop-opacity="1" /><stop offset="100%" stop-color="#E4A929" stop-opacity="1" /></linearGradient><path d="M122.6 301.5 C122.5 301.3 122.4 301 122.4 300.8 C122.4 297.2 134.9 294.2 150.2 294.2 C165.5 294.2 178 297.1 178 300.8 C178 301 177.9 301.3 177.8 301.5 C176.3 298.2 164.5 295.6 150.1 295.6 C135.7 295.6 124.1 298.2 122.6 301.5 z" id="y3" style="fill:url(#x3)" /></g></defs><desc>KJ9JOK2F5H5,qb+roIKqL4qwLUQ+ir+d6nv5TiRFMqHHS0ek6MB0sR4yCRKVx36FSCESNFMJP/fUfTjtoRTqkZ+Dqb05mztQuQ==</desc></svg>