<?xml version="1.0" encoding="utf-8"?><!DOCTYPE svg PUBLIC "-//W3C//DTD SVG 1.1//EN" "http://www.w3.org/Graphics/SVG/1.1/DTD/svg11.dtd"><svg x="0" y="0" width="340px" height="340px" viewBox="0, 0, 340, 340" preserveAspectRatio="xMidYMid" font-size="0" id="a" enable-background="new 0 0 340 340" xmlns="http://www.w3.org/2000/svg" xmlns:xlink="http://www.w3.org/1999/xlink" xmlns:xml="http://www.w3.org/XML/1998/namespace" version="1.1"><g id="b" fill="#000"><g id="c"><g transform="translate(0, 0) translate(0, 224)" id="d"><ellipse cx="168.6" cy="53.1" rx="57.8" ry="12.8" fill-opacity="0.25" id="e" /></g><g id="f"><g transform="translate(94.3, 80.09999) translate(28, 148) scale(-1, 1) translate(-28, -148) translate(0, 127)" id="g"><path d="M52.1 4.6 C47.4 19.1 42.1 27 36.2 28.3 C27.3 30.2 18 29.7 13.9 24.6 C11.2 14.5 14 14.7 15.4 11.9 C16.8 9.1 16.1 4.5 9.2 4.5 C4.6 4.5 1.4 7.4 -0.2 13.3 C-1 16.7 -1.4 19.7 -1.2 22.3 C-1 26.2 0.8 36.4 8.6 40.9 C16.4 45.4 28.6 48.2 43.3 38.5 C53.1 32 56 20.7 52.1 4.6 z" id="h" fill="#51403C" /><path d="M52.1 4.6 C56 20.7 53.1 32 43.3 38.5 C28.6 48.2 16.4 45.4 8.6 40.9 C0.8 36.4 -1 26.2 -1.2 22.3 C-1.4 19.7 -1 16.7 -0.2 13.3 C1.4 7.4 4.6 4.5 9.2 4.5 C16.1 4.5 16.8 9.1 15.4 11.9 C14 14.7 11.2 14.5 13.9 24.6 C18 29.7 27.3 30.2 36.2 28.3 C42.1 27 47.4 19.1 52.1 4.6 z M51.6 9.5 C47.1 21.3 41 28.4 35.3 29.4 C26.7 30.9 18.3 30.2 14.4 26.1 C10.5 22 11.2 17.1 12.6 14.8 C14 12.5 15.5 6.3 8.8 6.3 C4.4 6.3 2.5 8.3 1 13.1 C0.2 15.9 0.3 21.1 0.5 23.2 C0.7 26.4 1.8 35.6 9.3 39.2 C16.8 42.9 25.1 46.4 39.2 38.5 C48.6 33.1 55.4 22.6 51.6 9.5 z" opacity="0.15" id="i" /></g><g transform="translate(126.32, 270.3) scale(0.8361344) translate(-123, -270.3) translate(88.40001, 82.79997) translate(28, 124)" id="j"><path d="M50.5 28.2 C50.5 14.3 19.2 -3.5 9.2 1 C8 1.6 6.8 2.4 5.7 3.4 C3.3 5.6 1.3 9.8 0.9 13 C0.7 14.5 1.4 14.8 1.4 16.4 C1.5 18.2 1.6 22.4 1.9 24.1 C2.1 25.3 2.9 23 3.2 24.1 C3.7 25.9 3.9 28.6 4.4 29.9 C5 31.4 6.8 35.4 7.1 35.8 C7.5 36.4 7.2 35.1 8.7 37.9 C9.2 38.8 9.6 38.5 10.1 39.6 C10.5 40.3 11.2 45.8 11.6 46.5 C12.3 47.8 12.7 45.8 13.5 47.3 C14.2 48.6 14.9 50 15.6 51.5 C8.3 54.2 4.7 57.4 4.7 61.1 C4.7 62.8 4.7 65.1 6.4 66.4 C7.7 67.4 37.5 67.9 38.9 65.1 C40.7 60 34.3 53.8 39.7 45.1 C43.7 38.5 50.5 37.5 50.5 28.2 z" id="k" fill="#51403C" /><path d="M50.5 28.2 C50.5 37.5 43.7 38.5 39.7 45.1 C34.3 53.8 40.7 60 38.9 65.1 C37.5 67.9 7.7 67.4 6.4 66.4 C4.7 65.1 4.7 62.8 4.7 61.1 C4.7 57.4 8.3 54.2 15.6 51.5 C14.9 50 14.2 48.6 13.5 47.3 C12.7 45.8 12.3 47.8 11.6 46.5 C11.2 45.8 10.5 40.3 10.1 39.6 C9.6 38.5 9.2 38.8 8.7 37.9 C7.2 35.1 7.5 36.4 7.1 35.8 C6.8 35.4 5 31.4 4.4 29.9 C3.9 28.6 3.7 25.9 3.2 24.1 C2.9 23 2.1 25.3 1.9 24.1 C1.6 22.4 1.5 18.2 1.4 16.4 C1.4 14.8 0.7 14.5 0.9 13 C1.3 9.8 3.3 5.6 5.7 3.4 C6.8 2.4 8 1.6 9.2 1 C19.2 -3.5 50.5 14.3 50.5 28.2 z M48.3 27.1 C48.3 14.2 19.8 -2.2 10.7 2 C9.6 2.5 8.5 3.3 7.5 4.2 C5.3 6.2 3.5 10.1 3.1 13 C3 14.4 3.6 14.7 3.6 16.2 C3.7 17.8 3.8 21.7 4.1 23.3 C4.2 24.4 5 22.3 5.2 23.3 C5.7 24.9 5.9 27.4 6.3 28.6 C6.9 30 8.5 33.7 8.8 34.1 C9.1 34.6 8.9 33.4 10.2 36 C10.7 36.8 11.1 36.5 11.5 37.6 C11.9 38.2 12.5 43.3 12.9 43.9 C13.5 45.1 13.9 43.3 14.6 44.7 C15.2 45.9 18.5 50.2 19.1 51.6 C12.5 54.1 7.3 55.8 7.3 59.2 C7.3 60.8 6.6 61.1 8.1 62.3 C9.3 63.2 35.1 64.3 36.4 61.7 C38 57 33.5 50.7 38.4 42.6 C42.1 36.5 48.3 35.6 48.3 27.1 z" opacity="0.15" id="l" /></g><g transform="translate(210.68, 270.3) scale(0.8361344) translate(-214, -270.3) translate(82.50002, 82.79997) translate(113.5, 158) scale(-1, 1) translate(-113.5, -158) translate(89, 125)" id="m"><path d="M48.2 28.3 C48.2 14.6 24.6 -4.1 9.2 1 C8 1.6 6.8 2.3 5.7 3.3 C3.3 5.4 1.3 9.6 0.9 12.8 C0.7 14.3 1.4 14.5 1.4 16.1 C1.5 17.9 1.6 22 1.9 23.7 C2.1 24.9 2.9 22.6 3.2 23.7 C3.7 25.5 3.9 28.2 4.4 29.4 C5 30.9 6.8 34.9 7.1 35.2 C7.5 35.8 7.2 34.5 8.7 37.3 C9.2 38.2 9.6 37.9 10.1 39 C10.5 39.7 11.2 45.1 11.6 45.8 C12.3 47.1 12.7 45.1 13.5 46.6 C14.2 47.9 14.9 49.3 15.6 50.8 C8.3 53.5 4.7 56.6 4.7 60.3 C4.7 62 4.7 64.2 6.4 65.5 C7.7 66.5 39.4 65.8 40.8 63 C43.8 59.4 34.2 43.1 39.2 39.8 C44.4 37.6 48.2 34.7 48.2 28.3 z" id="n" fill="#51403C" /><path d="M48.2 28.3 C48.2 34.7 44.4 37.6 39.2 39.8 C34.2 43.1 43.8 59.4 40.8 63 C39.4 65.8 7.7 66.5 6.4 65.5 C4.7 64.2 4.7 62 4.7 60.3 C4.7 56.6 8.3 53.5 15.6 50.8 C14.9 49.3 14.2 47.9 13.5 46.6 C12.7 45.1 12.3 47.1 11.6 45.8 C11.2 45.1 10.5 39.7 10.1 39 C9.6 37.9 9.2 38.2 8.7 37.3 C7.2 34.5 7.5 35.8 7.1 35.2 C6.8 34.9 5 30.9 4.4 29.4 C3.9 28.2 3.7 25.5 3.2 23.7 C2.9 22.6 2.1 24.9 1.9 23.7 C1.6 22 1.5 17.9 1.4 16.1 C1.4 14.5 0.7 14.3 0.9 12.8 C1.3 9.6 3.3 5.4 5.7 3.3 C6.8 2.3 8 1.6 9.2 1 C24.6 -4.1 48.2 14.6 48.2 28.3 z M46.8 27.4 C46.8 14.6 24.6 -2.9 10.1 1.9 C9 2.4 7.8 3.1 6.8 4 C4.5 6 2.7 9.9 2.3 12.9 C2.1 14.3 2.8 14.5 2.8 16 C2.9 17.7 2.9 21.5 3.2 23.1 C3.4 24.2 4.2 22 4.5 23.1 C4.9 24.7 5.1 27.3 5.6 28.4 C6.1 29.8 7.8 33.5 8.1 33.8 C8.5 34.4 8.2 33.2 9.6 35.8 C10.1 36.6 10.5 36.3 10.9 37.4 C11.3 38 12 43 12.4 43.7 C13 44.9 13.4 43 14.1 44.5 C14.8 45.7 17.4 50.6 18 52 C11.1 54.5 6.8 55.5 6.8 59 C6.8 60.5 7.7 61.4 9.3 62.6 C10.5 63.6 36.9 63.1 38.2 60.4 C41.1 57.1 33.6 41.2 38.3 38.1 C43.2 36 46.8 33.3 46.8 27.4 z" opacity="0.15" id="o" /></g><g transform="translate(109.6, 97.89998) translate(13, 60)" id="p"><path d="M84.1 58.7 C83.4 45.5 82.7 39.3 75 30.8 C69 24.2 68.5 19.6 65.4 14.3 C62 8.8 60.8 0.4 45.9 0.4 C31.1 0.4 29.8 8.8 26.5 14.3 C23.4 19.5 22.8 24.1 16.9 30.8 C9.2 39.4 8.5 45.6 7.8 58.7 C7.2 70.2 13.2 79.4 15.3 92.4 C17.9 108.9 26 118.4 29.6 119.2 C36.2 120.6 42.1 121 45.9 120.9 C49.8 121 55.7 120.6 62.2 119.2 C65.8 118.4 73.9 108.9 76.5 92.4 C78.7 79.4 84.7 70.2 84.1 58.7 z" id="q" fill="#E2DED5" /><path d="M84.1 58.7 C84.7 70.2 78.7 79.4 76.5 92.4 C73.9 108.9 65.8 118.4 62.2 119.2 C55.7 120.6 49.8 121 45.9 120.9 C42.1 121 36.2 120.6 29.6 119.2 C26 118.4 17.9 108.9 15.3 92.4 C13.2 79.4 7.2 70.2 7.8 58.7 C8.5 45.6 9.2 39.4 16.9 30.8 C22.8 24.1 23.4 19.5 26.5 14.3 C29.8 8.8 31.1 0.4 45.9 0.4 C60.8 0.4 62 8.8 65.4 14.3 C68.5 19.6 69 24.2 75 30.8 C82.7 39.3 83.4 45.5 84.1 58.7 z M82.6 57.8 C82 45.1 81.3 39.1 73.9 30.9 C68.1 24.6 67.6 20.2 64.7 15.1 C61.4 9.8 60.2 1.7 45.9 1.7 C31.7 1.7 30.4 9.8 27.2 15.1 C24.3 20.1 23.7 24.5 18 30.9 C10.6 39.2 9.9 45.2 9.3 57.8 C8.7 68.8 14.5 77.7 16.5 90.2 C19 106.1 26.8 115.2 30.2 116 C36.6 117.3 42.2 117.7 45.9 117.6 C49.7 117.7 55.3 117.3 61.6 116 C65 115.2 72.8 106.1 75.3 90.2 C77.4 77.7 83.2 68.8 82.6 57.8 z" opacity="0.15" id="r" /></g><g transform="translate(109.6, 97.89997) translate(59, 136) scale(-1, 1) translate(-59, -136) translate(16, 84)" id="s"><path d="M10.2 21.5 C10.3 21.2 21.2 -0.7 27.1 1.2 C31.4 2.6 35.1 7.2 36.8 10.5 C38.5 13.8 43 34.1 39.9 40.8 C37.7 45.5 33.3 46.5 28.3 45.3 C28 49 27.7 51.8 27.2 53.1 C26.2 62.6 31 81.3 32.2 92 C31.5 105 22.7 103.5 16.9 102.2 C13.4 101.4 10.8 99 12.4 94.9 C12.9 93.6 13.6 92.2 14.2 90.8 C14.7 84.8 13.6 79.1 12.3 72.9 C11.1 67.4 10.2 21.5 10.2 21.5 z" id="t" fill="#FEFEFE" /><path d="M75.8 21.5 C75.7 21.2 64.8 -0.7 58.9 1.2 C54.6 2.6 50.9 7.2 49.2 10.5 C47.5 13.8 43 34.1 46.1 40.8 C48.3 45.5 52.7 46.5 57.7 45.3 C58 49 58.3 51.8 58.8 53.1 C59.8 62.6 55 81.3 53.8 92 C54.5 105 63.3 103.5 69.1 102.2 C72.6 101.4 75.2 99 73.6 94.9 C73.1 93.6 72.4 92.2 71.8 90.8 C71.3 84.8 72.4 79.1 73.7 72.9 C75.1 67.4 75.8 21.5 75.8 21.5 z" id="u" fill="#FEFEFE" /><path d="M9.6 11.2 C11.4 8 16.2 2.9 17.2 1.8 C20.5 -0.8 30.2 -1.2 32 8.4 C32.8 11.9 30.3 16.7 28.9 18.7 C28.4 19.4 28.1 19.9 28 20.3 C27.9 21 28.5 22.6 29.1 24.8 C29.9 27.7 30.6 31.5 29.2 34.9 C28.9 35.5 28.6 36.1 28.2 36.7 C25.6 40.3 21.2 37.3 17.7 39.2 C17.7 39.4 17.6 39.6 17.6 39.7 C15.8 49.4 23.5 59.2 21.3 70.8 C20.7 74.1 16.9 76.3 12.6 74.8 C11.3 68.6 9.5 62.1 8.7 54.5 C3.3 48.8 -0.6 44.9 1.1 28.6 C2.1 19.3 5.8 14.9 9.6 11.2 z" id="v" fill="#7F6458" /><path d="M26.9 1.1 C27 1.2 27 1.2 27.1 1.2 C31.4 2.6 35.1 7.2 36.8 10.5 C38.5 13.8 43 34.1 39.9 40.8 C37.7 45.5 33.3 46.5 28.3 45.3 C28 49 27.7 51.8 27.2 53.1 C26.2 62.6 31 81.3 32.2 92 C31.5 105 22.7 103.5 16.9 102.2 C13.4 101.4 10.8 99 12.4 94.9 C12.9 93.6 13.6 92.2 14.2 90.8 C14.6 85.4 13.8 80.3 12.7 74.8 C12.7 74.8 12.6 74.8 12.6 74.8 C11.3 68.6 9.5 62.1 8.7 54.5 C3.3 48.8 -0.6 44.9 1.1 28.6 C2.1 19.3 5.8 14.9 9.6 11.2 C11.4 8 16.2 2.9 17.2 1.8 C19.2 0.3 23.4 -0.5 26.9 1.1 z M26.7 2.1 C26.7 2.1 26.6 2.1 26.5 2 C23.2 0.5 19.3 1.2 17.4 2.7 C16.5 3.7 11.9 8.6 10.2 11.6 C6.7 15.1 3.2 19.3 2.2 28.2 C0.6 43.7 5.5 48.5 10.6 54 C11.4 61.2 11.8 66.2 13.2 72.2 C14.2 77.4 14.9 82 15.5 86 C15.5 88.3 15.8 90.3 15.3 91.5 C13.8 95.4 13.8 97.4 17.1 98.2 C22.6 99.4 29.7 101.8 30.4 89.4 C29.3 79.2 24.9 61.1 25.8 52 C26.3 50.8 27 47.1 27.3 43.6 C32 44.7 36.7 44.3 38.8 39.8 C41.7 33.4 37.5 14.1 35.9 10.9 C34.3 7.8 30.8 3.4 26.7 2.1 z" opacity="0.15" id="w" /><path d="M76.6 11.2 C74.8 8 69.9 2.9 68.9 1.8 C65.6 -0.8 55.9 -1.2 54.1 8.4 C53.3 11.9 55.8 16.7 57.2 18.7 C57.7 19.4 58 19.9 58.1 20.3 C58.2 21 57.6 22.6 57 24.8 C56.2 27.7 55.5 31.5 56.9 34.9 C57.2 35.5 57.5 36.1 57.9 36.7 C60.5 40.3 64.9 37.3 68.4 39.2 C68.4 39.4 68.5 39.6 68.5 39.7 C70.3 49.4 62.6 59.2 64.8 70.8 C65.4 74.1 69.2 76.3 73.5 74.8 C74.8 68.6 76.6 62.1 77.4 54.5 C82.8 48.8 86.7 44.9 85 28.6 C83.9 19.3 80.2 14.9 76.6 11.2 z" id="x" fill="#7F6458" /><path d="M73.3 74.9 C72.2 80.3 71.4 85.4 71.8 90.8 C72.4 92.2 73.1 93.6 73.6 94.9 C75.2 99 72.6 101.4 69.1 102.2 C63.3 103.5 54.5 105 53.8 92 C55 81.3 59.8 62.6 58.8 53.1 C58.3 51.8 58 49 57.7 45.3 C52.7 46.5 48.3 45.5 46.1 40.8 C43 34.1 47.5 13.8 49.2 10.5 C50.9 7.2 54.6 2.6 58.9 1.2 C59 1.2 59.2 1.1 59.3 1.1 C62.8 -0.5 66.9 0.3 68.9 1.8 C69.9 2.9 74.8 8 76.6 11.2 C80.2 14.9 83.9 19.3 85 28.6 C86.7 44.9 82.8 48.8 77.4 54.5 C76.6 62.1 74.8 68.6 73.5 74.8 C73.4 74.8 73.4 74.8 73.3 74.9 z M72.6 73.1 C74.4 64.5 75.5 57.8 76 53 C81.2 47.6 85 42.8 83.4 27.3 C82.3 18.5 79.5 14.6 76 11.1 C74.3 8 68.8 3.6 67.8 2.6 C66 1.1 62.9 1 59.6 2.6 C59.4 2.6 59.3 2.6 59.2 2.7 C55.1 4 51.6 8.4 50 11.5 C48.4 14.6 44.9 33.2 47.8 39.5 C49.9 44 54 44.4 58.7 43.2 C59 46.7 59.8 51.8 60.2 53 C61.2 62.1 57 78.6 55.8 88.8 C56.5 101.2 63.4 100 68.9 98.7 C72.2 98 72.8 96.4 71.3 92.5 C70.8 91.3 70.5 90.1 70.5 88.1 C70.1 83 71.5 78.3 72.6 73.1 z" opacity="0.15" id="y" /></g></g><g transform="translate(168.6, 192.7) scale(0.8378378) translate(-168.6, -192.7)" id="z"><g transform="translate(108.9, 81.69997) translate(11, 26)" id="a1"><path d="M5.5 77 C0.1 65.8 -0.6 51.2 1 39.1 C3.2 27.2 8.5 25.2 15.8 17.9 C23.1 10.6 25.8 0.2 49.1 0.3 C72.3 0.4 73.5 8.3 79.9 14.4 C86.3 20.4 92.4 23.4 96.2 30.6 C100 37.8 101.2 59.8 96.2 71.2 C92 80.9 80.7 92.2 66.3 92.4 C54.5 93 51.9 93.8 40.2 93.8 C28.5 93.8 11.5 88.2 5.5 77 z" id="b1" fill="#FEFEFE" /><path d="M5.5 77 C0.1 65.8 -0.6 51.2 1 39.1 C3.2 27.2 8.5 25.2 15.8 17.9 C23.1 10.6 25.8 0.2 49.1 0.3 C72.3 0.4 73.5 8.3 79.9 14.4 C86.3 20.4 92.4 23.4 96.2 30.6 C100 37.8 101.2 59.8 96.2 71.2 C92 80.9 80.7 92.2 66.3 92.4 C54.5 93 51.9 93.8 40.2 93.8 C28.5 93.8 11.5 88.2 5.5 77 z M7.3 74.8 C13 85.6 29.3 90.9 40.6 90.9 C51.9 90.9 54.3 90.1 65.7 89.6 C79.5 89.4 90.4 78.6 94.4 69.2 C99.2 58.3 98 37.1 94.4 30.2 C90.8 23.3 84.9 20.4 78.7 14.6 C72.6 8.8 71.4 1.2 49.1 1.2 C26.7 1.1 24.1 11.1 17.1 18.1 C10.1 25.1 5 27 2.9 38.4 C1.4 50 2.1 64.1 7.3 74.8 z" opacity="0.15" id="c1" /></g><g transform="translate(137.4, 120.9) rotate(25, 0, 0) scale(0.7, 0.8) translate(-137.4, -127.9) translate(105.7, 111.3) translate(0, 4)" id="d1"><path d="M41.1 0.6 C31.1 -2.6 14.7 14.6 3.6 20.9 C-6.3 26.5 6.2 45.2 17.4 62.4 C23.6 71.9 22.7 83.6 28.6 82.4 C35.6 81 41.1 70.6 37 59 C32.9 47.4 32.1 16.9 41.1 0.6 z" id="e1" fill="#51403C" /><path d="M41.1 0.6 C32.1 16.9 32.9 47.4 37 59 C41.1 70.6 35.6 81 28.6 82.4 C22.7 83.6 23.6 71.9 17.4 62.4 C6.2 45.2 -6.3 26.5 3.6 20.9 C14.7 14.6 31.1 -2.6 41.1 0.6 z M38 2 C29.2 -1 16.9 15.9 7 21.6 C-1.7 26.7 9.1 42.3 19 58 C24.5 66.7 23.3 77.2 28.5 76.1 C34.7 74.8 38 66.1 34.4 55.4 C30.8 44.9 30.1 16.9 38 2 z" opacity="0.15" id="f1" /></g><g transform="translate(201.5, 120.8999) rotate(-25, 0, 0) scale(0.7, 0.8) translate(-201.5, -127.8999) translate(111.2, 111.3) translate(102, 45.5) scale(-1, 1) translate(-102, -45.5) translate(81, 4)" id="g1"><path d="M41.9 0.6 C31.9 -2.6 15.5 14.6 4.4 20.9 C-5.5 26.5 7 45.2 18.2 62.4 C24.4 71.9 23.5 83.6 29.4 82.4 C36.4 81 41.9 70.6 37.8 59 C33.7 47.4 32.9 16.9 41.9 0.6 z" id="h1" fill="#51403C" /><path d="M41.9 0.6 C32.9 16.9 33.7 47.4 37.8 59 C41.9 70.6 36.4 81 29.4 82.4 C23.5 83.6 24.4 71.9 18.2 62.4 C7 45.2 -5.5 26.5 4.4 20.9 C15.5 14.6 31.9 -2.6 41.9 0.6 z M39.7 3 C30.8 0.1 16.1 15.5 6.2 21.1 C-2.6 26.1 8.5 42.8 18.5 58.2 C24 66.7 23.2 77.1 28.5 76.1 C34.8 74.8 39.7 65.6 36 55.2 C32.3 44.8 31.7 17.5 39.7 3 z" opacity="0.15" id="i1" /></g><g id="j1"><g transform="translate(106.9, 90.59996) translate(27, 70)" id="k1"><g id="l1"><g transform="translate(0, 0.699997)" id="m1"><path d="M1.2 22.9 C2.9 16.8 7.9 15 14.1 11.1 C20.3 7.2 28.3 0.1 37 0.1 C45.7 0.1 49.8 4.7 56.8 9.6 C60.1 11.9 65.7 13.7 68.5 16.7 C72.3 20.8 73.1 29.1 71.8 35.6 C70.5 42.1 65.9 45.6 58 45.6 C55.5 45.6 52.8 43.3 50.3 40.6 C46.6 36.5 42.8 31.5 36.9 31.5 C29.3 31.5 28.7 36.9 22 42.1 C20.2 43.5 16 45.6 13.4 45.6 C10.8 45.6 7 44.8 3.8 41.5 C1.4 38.9 -0.6 29 1.2 22.9 z" id="n1" fill="#7F6458" /><path d="M1.2 22.9 C2.9 16.8 7.9 15 14.1 11.1 C20.3 7.2 28.3 0.1 37 0.1 C45.7 0.1 49.8 4.7 56.8 9.6 C60.1 11.9 65.7 13.7 68.5 16.7 C72.3 20.8 73.1 29.1 71.8 35.6 C70.5 42.1 65.9 45.6 58 45.6 C55.5 45.6 52.8 43.3 50.3 40.6 C46.6 36.5 42.8 31.5 36.9 31.5 C29.3 31.5 28.7 36.9 22 42.1 C20.2 43.5 16 45.6 13.4 45.6 C10.8 45.6 7 44.8 3.8 41.5 C1.4 38.9 -0.6 29 1.2 22.9 z M3.4 21.9 C1.8 27.6 3.6 36.9 5.9 39.3 C8.9 42.4 12.4 43.2 14.9 43.2 C17.3 43.2 21.2 41.2 22.9 39.9 C29.2 35 29.8 29.9 36.9 29.9 C42.4 29.9 46 34.6 49.4 38.5 C51.8 41 54.3 43.2 56.6 43.2 C64 43.2 68.3 39.9 69.5 33.8 C70.8 27.7 70 19.9 66.5 16.1 C63.8 13.3 58.6 11.6 55.5 9.4 C48.9 4.9 45.1 0.6 37 0.6 C28.8 0.6 21.3 7.2 15.5 10.8 C9.7 14.5 5 16.2 3.4 21.9 z" opacity="0.15" id="o1" /><path d="M19.8 23.4 C20 23.5 20.4 23.1 20.6 23.1 C21 23.1 21.3 23.5 21.5 23.2 C21.8 22.6 21.7 22 21.1 21.7 C20.5 21.4 19.8 21.5 19.4 22.1 C19.2 22.6 19.3 23 19.8 23.4 z" id="p1" fill="#010101" /><path d="M14.8 30.4 C15 30.5 15.4 30.1 15.6 30.1 C16 30.1 16.3 30.5 16.5 30.2 C16.8 29.6 16.7 29 16.1 28.7 C15.5 28.4 14.8 28.5 14.4 29.1 C14.2 29.6 14.3 30 14.8 30.4 z" id="q1" fill="#010101" /><path d="M22.8 26.4 C23 26.5 23.4 26.1 23.6 26.1 C24 26.1 24.3 26.5 24.5 26.2 C24.8 25.6 24.7 25 24.1 24.7 C23.5 24.4 22.8 24.5 22.4 25.1 C22.2 25.6 22.3 26 22.8 26.4 z" id="r1" fill="#010101" /><path d="M51.1 24.1 C51.3 24.2 51.7 23.8 51.9 23.8 C52.3 23.8 52.6 24.2 52.8 23.9 C53.1 23.3 53 22.7 52.4 22.4 C51.8 22.1 51.1 22.2 50.7 22.8 C50.4 23.3 50.5 23.8 51.1 24.1 z" id="s1" fill="#010101" /><path d="M47.8 28.4 C48 28.5 48.4 28.1 48.6 28.1 C49 28.1 49.3 28.5 49.5 28.2 C49.8 27.6 49.7 27 49.1 26.7 C48.5 26.4 47.8 26.5 47.4 27.1 C47 27.7 47.3 28 47.8 28.4 z" id="t1" fill="#010101" /><path d="M56.8 30.4 C57 30.5 57.4 30.1 57.6 30.1 C58 30.1 58.3 30.5 58.5 30.2 C58.8 29.6 58.7 29 58.1 28.7 C57.5 28.4 56.8 28.5 56.4 29.1 C56.2 29.6 56.3 30 56.8 30.4 z" id="u1" fill="#010101" /></g></g></g><g transform="translate(170.3, 197.2999) scale(0.8) translate(-170.3, -192.2999) translate(97.2, 92.19996) translate(47, 87)" id="v1"><g id="w1"><path d="M3.4 5.4 C4.9 4.3 6.4 6.3 6.5 7.5 C6.6 8.7 8.3 11.5 10.6 12.2 C12.9 12.9 15.9 13.7 19.3 12.8 C20.3 12.5 21.7 11.7 24.1 11.5 C24.2 11.5 24.4 10.8 24.5 9.9 C24.7 8.2 25.2 5.7 25.4 5.7 C25.7 5.7 25.7 8.3 26 10 C26.2 11 26.4 11.6 26.5 11.6 C28.5 11.8 29.8 12.5 31.4 12.8 C34.4 13.5 39.8 13.5 41.8 9.6 C43.8 5.7 43.8 4.1 45 4.1 C46.2 4.1 46.5 6.2 45 8 C43.5 9.8 41.3 12 38.9 13.1 C36.5 14.2 32.3 14 31.3 14 C30.3 14.1 28.6 15.3 25 15.3 C21.4 15.3 19.6 14 18.7 14 C17.8 14 16.8 14.3 13.9 13.8 C11 13.6 8.3 11.8 6 10 C3.7 8.2 1.9 6.5 3.4 5.4 z" id="x1" /><path d="M16.7 13.9 C17.2 14.9 17.8 15.6 18.4 16 C20.2 17.2 23 17.8 25 17.8 C27.2 17.8 30.6 17.2 32.7 15.9 C33.3 15.5 33.7 14.9 34 13.9 C30.1 13.3 27.2 13 25.4 13 C23.6 13 20.6 13.3 16.7 13.9 z" opacity="0.15" id="y1" /></g></g><g transform="translate(97.60001, 84.99995) translate(64, 85)" id="z1"><g id="a2"><path d="M5.3 12.9 C4.6 12.4 4.5 11.5 3.9 11 C3.3 10.4 2.1 10.2 1.6 9.5 C0.8 8.4 0.3 7.2 0.3 5.7 C0.3 2.6 2.1 0.1 9.5 0.1 C16.9 0.1 18.7 3.5 17.4 7.1 C17 8.2 16.6 9 16.1 9.7 C15.7 10.4 14.6 10.5 14.1 11 C13.3 11.8 12.9 12.8 12.4 13.1 C11.6 13.8 7.9 14.9 5.3 12.9 z" id="b2" /><path d="M9.6 1.7 C8.8 1.8 7.5 2.3 9.4 3.1 C11.3 3.9 13 3.2 14.1 5.2 C15.2 7.2 15.8 2.7 14.4 2.2 C13.9 2 13.1 1.6 12.2 1.5 C11.2 1.4 10.1 1.6 9.6 1.7 z" id="c2" fill="#FFFFFE" /></g></g><g transform="translate(91.5, 104.8) translate(48, 25)" id="d2"><g transform="translate(10.39189, 9.559633) scale(-1, 1) translate(-10.39189, -9.559633) translate(0.891892, 0.559633)" id="e2"><path d="M6.5 17 C8 17.4 12.4 17.3 14.8 17 C16.7 16.8 17.4 16.8 17.7 15.5 C18 14.2 19.3 12.5 18.2 9.4 C16.5 4.4 15.6 2.5 9.8 1.7 C6.6 1.2 4.1 -0.7 2.9 1.1 C2 2.5 0.5 8 0.5 10.8 C0.5 17 0.8 15.5 6.5 17 z" id="f2" fill="#D1D1D1" /><path d="M8.7 17.3 C10.9 17.3 12.8 16.1 14 14.4 C14.6 13.5 14.3 12.1 14 11 C13.3 8 10.8 5.9 7.4 5.9 C4 5.9 1.9 7.8 0.8 10.5 C0.4 11.4 -0.1 13.1 0.3 13.9 C0.9 17 6.3 17.3 8.7 17.3 z" id="g2" fill="#282421" /><g transform="translate(4.324324, 7.761468)" id="h2"><path d="M4.3 2.1 C4.3 0.9 3.3 0 2.1 0 C1 0 0 1 0 2.2 C0 3.4 1 4.4 2.2 4.4 C2.2 4.3 2.2 4.3 2.2 4.2 C2 3.7 2.1 3.2 2.6 2.7 C3.2 2.1 3.7 2 4.3 2.1 z" id="i2" fill="#FFF" /><circle cx="3.7" cy="3.7" r="1" id="j2" fill="#FFF" /></g></g></g><g transform="translate(93.8, 104.8) translate(86, 25)" id="k2"><g transform="translate(0.864865, 0.559633)" id="l2"><g transform="translate(0.378378, 0)" id="m2"><path d="M6.4 17 C7.9 17.4 12.3 17.3 14.7 17 C16.6 16.8 17.3 16.8 17.6 15.5 C17.9 14.2 19.2 12.5 18.1 9.4 C16.4 4.4 15.5 2.5 9.7 1.7 C6.5 1.2 4 -0.7 2.9 1.1 C1.9 2.5 0.5 8 0.5 10.8 C0.4 17 0.7 15.5 6.4 17 z" id="n2" fill="#D1D1D1" /><path d="M8.7 17.3 C10.7 17.7 12 17.7 14 14.4 C14.6 13.5 14.3 12.1 14 11 C13.3 8 10.8 5.9 7.4 5.9 C4 5.9 1.9 7.8 0.8 10.5 C0.4 11.4 -0.1 13.1 0.3 13.9 C0.9 17 6.4 16.8 8.7 17.3 z" id="o2" fill="#282421" /><g transform="translate(8.743243, 10.26147) scale(-1, 1) translate(-8.743243, -10.26147) translate(6.243243, 7.761468)" id="p2"><path d="M4.3 2.1 C4.3 0.9 3.3 0 2.1 0 C1 0 0 1 0 2.2 C0 3.4 1 4.4 2.2 4.4 C2.2 4.3 2.2 4.3 2.2 4.2 C2 3.7 2.1 3.2 2.6 2.7 C3.2 2.1 3.7 2 4.3 2.1 z" id="q2" fill="#FFF" /><circle cx="3.7" cy="3.7" r="1" id="r2" fill="#FFF" /></g></g></g></g></g></g></g></g><defs><g transform="translate(17.09519, 0.800995) translate(-135.2952, -293.601)" id="s2" fill="#000"><path d="M118.2 302.7 C118.4 307.4 132.5 311.2 149.8 311.2 C167.1 311.2 181.2 307.4 181.4 302.7 C181.4 307.5 181.4 310.1 181.4 310.5 C181.4 315.3 167.3 319.1 149.8 319.1 C132.3 319.1 118.2 315.2 118.2 310.5 L118.2 302.7 L118.2 302.7 z" fill-opacity="0.4528" id="t2" fill="#593001" /><path d="M118.7 301.7 C118.9 306.4 133 310.2 150.3 310.2 C167.6 310.2 181.7 306.4 181.9 301.7 C181.9 306.5 181.9 309.1 181.9 309.5 C181.9 314.3 167.8 318.1 150.3 318.1 C132.8 318.1 118.7 314.2 118.7 309.5 L118.7 301.7 L118.7 301.7 z" id="u2" fill="#DA8113" /><linearGradient x1="46.0545" y1="-118.6926" x2="45.4656" y2="-118.6926" gradientUnits="userSpaceOnUse" gradientTransform="matrix(117.135, 0, 0, 28.4634, -5208.417, 3687.795)" id="v2"><stop offset="0%" stop-color="#D9952A" stop-opacity="1" /><stop offset="6.438854%" stop-color="#CA7519" stop-opacity="1" /><stop offset="30.54%" stop-color="#E3AD3A" stop-opacity="1" /><stop offset="51.05%" stop-color="#FFEC91" stop-opacity="1" /><stop offset="68.8%" stop-color="#E9BD44" stop-opacity="1" /><stop offset="86.24%" stop-color="#FFED6C" stop-opacity="1" /><stop offset="93.87%" stop-color="#F2D353" stop-opacity="1" /><stop offset="100%" stop-color="#F2B947" stop-opacity="1" /></linearGradient><path d="M118.2 301.6 C118.4 306.1 132.7 309.7 150.3 309.7 C167.9 309.7 182.2 306.1 182.4 301.6 C182.4 306.2 182.4 308.7 182.4 309 C182.4 313.5 168 317.2 150.3 317.2 C132.6 317.2 118.2 313.5 118.2 309 L118.2 301.6 L118.2 301.6 z" id="w2" style="fill:url(#v2)" /><linearGradient x1="45.4914" y1="-117.9547" x2="45.9407" y2="-117.5895" gradientUnits="userSpaceOnUse" gradientTransform="matrix(115.425, 0, 0, 29.925, -5125.077, 3826.124)" id="x2"><stop offset="0%" stop-color="#F4E072" stop-opacity="1" /><stop offset="100%" stop-color="#DB9427" stop-opacity="1" /></linearGradient><ellipse cx="150.3" cy="301.5" rx="31.6" ry="8.2" id="y2" style="fill:url(#x2)" /><linearGradient x1="45.4656" y1="-126.0065" x2="46.0545" y2="-126.0065" gradientUnits="userSpaceOnUse" gradientTransform="matrix(117.135, 0, 0, 18.6219, -5208.417, 2651.479)" id="z2"><stop offset="0%" stop-color="#D9952A" stop-opacity="1" /><stop offset="6.438854%" stop-color="#CA7519" stop-opacity="1" /><stop offset="30.54%" stop-color="#E3AD3A" stop-opacity="1" /><stop offset="51.05%" stop-color="#FFEC91" stop-opacity="1" /><stop offset="68.8%" stop-color="#E9BD44" stop-opacity="1" /><stop offset="86.24%" stop-color="#FFED6C" stop-opacity="1" /><stop offset="93.87%" stop-color="#F2D353" stop-opacity="1" /><stop offset="100%" stop-color="#F2B947" stop-opacity="1" /></linearGradient><path d="M119.2 299.9 C119 300.2 118.9 300.6 118.9 301 C118.9 305.5 132.9 309.2 150.3 309.2 C167.7 309.2 181.7 305.5 181.7 301 C181.7 300.6 181.6 300.3 181.4 299.9 C182 300.5 182.4 301.2 182.4 301.9 C182.4 306.4 168 310.1 150.3 310.1 C132.6 310.1 118.2 306.4 118.2 301.9 C118.2 301.3 118.6 300.6 119.2 299.9 z" id="a3" style="fill:url(#z2)" /><linearGradient x1="45.196" y1="-121.5895" x2="45.3746" y2="-120.6758" gradientUnits="userSpaceOnUse" gradientTransform="matrix(101.745, 0, 0, 23.94, -4458.332, 3199.41)" id="b3"><stop offset="0%" stop-color="#F8DD61" stop-opacity="1" /><stop offset="100%" stop-color="#EAA330" stop-opacity="1" /></linearGradient><ellipse cx="150.3" cy="300.8" rx="27.8" ry="6.6" id="c3" style="fill:url(#b3)" /><linearGradient x1="45.5694" y1="-134.267" x2="45.0221" y2="-134.267" gradientUnits="userSpaceOnUse" gradientTransform="matrix(101.745, 0, 0, 13.2525, -4458.332, 2077.223)" id="d3"><stop offset="0%" stop-color="#F4CA2F" stop-opacity="1" /><stop offset="51.38%" stop-color="#BF7737" stop-opacity="1" /><stop offset="100%" stop-color="#E4A929" stop-opacity="1" /></linearGradient><path d="M122.6 301.5 C122.5 301.3 122.4 301 122.4 300.8 C122.4 297.2 134.9 294.2 150.2 294.2 C165.5 294.2 178 297.1 178 300.8 C178 301 177.9 301.3 177.8 301.5 C176.3 298.2 164.5 295.6 150.1 295.6 C135.7 295.6 124.1 298.2 122.6 301.5 z" id="e3" style="fill:url(#d3)" /></g></defs><desc>NE8NOA9EI5N,q0LCqOPrTQvW4bNEFHXhAY2CUVS4fYdiUZGVXH0AzvgWiaf9tAeHeEQXchsLJlNpX8GmZewWUYTh1pc4y4LfAg==</desc></svg>