<?xml version="1.0" encoding="utf-8"?><!DOCTYPE svg PUBLIC "-//W3C//DTD SVG 1.1//EN" "http://www.w3.org/Graphics/SVG/1.1/DTD/svg11.dtd"><svg x="0" y="0" width="340px" height="340px" viewBox="0, 0, 340, 340" preserveAspectRatio="xMidYMid" font-size="0" id="a" enable-background="new 0 0 340 340" xmlns="http://www.w3.org/2000/svg" xmlns:xlink="http://www.w3.org/1999/xlink" xmlns:xml="http://www.w3.org/XML/1998/namespace" version="1.1"><g id="b" fill="#000"><g id="c"><g transform="translate(0, 0) translate(0, 224)" id="d"><ellipse cx="168.6" cy="53.1" rx="57.8" ry="12.8" fill-opacity="0.25" id="e" /></g><g id="f"><g transform="translate(100.3, 115.8) translate(0, 122)" id="g"><g id="h"><path d="M37.2 31.3 C12.9 30.6 2.2 26.6 0.8 19.3 C0 15.1 -0.4 9.5 0.8 6.5 C2.8 1.8 7.8 0.9 9.2 0.7 C11.4 0.3 13.8 1.1 16.3 3.1 C16.9 3.7 17.2 4.6 17.3 5.9 C17.3 7.7 18.4 8.8 15.8 9.1 C13.3 9.5 11.8 7.1 10.3 7.3 C8.8 7.5 8.3 9.9 8.3 10.8 C8.3 11.7 7.9 13.8 10.8 15.2 C12.8 16.1 26.9 18.4 37.1 19.7 L37.2 31.3 z" id="i" fill="#BD8B6A" /><path d="M8.7 1.6 C10.1 1 12.4 0.6 16.3 2.9 C17.6 3.8 18.2 5.1 18.2 6.7 C18.2 7.6 17.8 10 15.4 9.8 C13 9.6 11.8 7.5 10.3 7.8 C9.3 8 8.6 9 8.3 11 C8.3 13 9.3 14.4 11.2 15.2 C13.1 16 25.3 18.6 35.6 19.6 C36.9 23.3 35.1 25.6 34.4 25.6 C32.9 25.6 15.5 23.4 9.9 20.2 C4.2 17 4.5 15.8 3.7 10.4 C2.9 4.8 7.8 2 8.7 1.6 z" id="j" fill="#D8B285" /><path d="M15.2 2.3 C15.5 2.5 15.9 2.7 16.3 2.9 C17.6 3.8 18.2 5.1 18.2 6.7 C18.2 7.6 17.8 10 15.4 9.8 C13 9.6 11.8 7.5 10.3 7.8 C9.3 8 8.6 9 8.3 11 C8.3 13 9.3 14.4 11.2 15.2 C11.8 15.4 13.2 15.8 15.2 16.3 C20.6 17.4 29.9 18.8 37.1 19.7 L37.2 31.3 C12.9 30.6 2.2 26.6 0.8 19.3 C0 15.1 -0.4 9.5 0.8 6.5 C2.8 1.8 7.8 0.9 9.2 0.7 C11.1 0.4 13.1 0.9 15.2 2.3 z M17.7 5.9 C17.7 4.9 17 4 15.7 3.1 C13.7 1.8 11.7 0.5 10 0.8 C8.6 1.1 4 1.9 2.2 6.2 C1.1 9 1.5 14.2 2.2 18 C3.5 24.7 13.4 28.4 35.8 29.1 L35.8 20.7 C29.1 19.8 21.3 18.7 16.3 17.7 C14.5 17.3 10.8 16.1 10.3 15.9 C8.5 15.2 7.8 14.2 7.8 10.8 C8 9 9.1 7.1 10.6 7.1 C12 7.1 13.4 9.1 15.6 9.3 C17.8 9.5 17.7 6.8 17.7 5.9 z" opacity="0.15" id="k" /></g></g><g transform="translate(128.5799, 273.6799) scale(1.290051) translate(-128.5799, -273.6799) translate(129.7, 274.8) scale(0.7) translate(-124.7, -274.8) translate(-286.4, 61.99997) translate(20, 150)" id="l"><path d="M418 16.4 C418 16.4 415.5 9 413.5 8.1 C411.5 7.2 409.1 5.1 402.7 6.1 C396.3 7.1 391.2 9.7 388.3 13.1 C385.4 16.4 382.6 26.3 385.4 31.7 C387.3 35.3 390.5 40 395.1 45.6 C389.5 45.6 386.3 46.1 385.4 47 C384.1 48.4 382.7 53.9 384.1 57 C385.4 60 387.5 64.2 393.6 63.9 C399.7 63.7 414.1 60.2 416.6 59.1 C419.1 58 417.8 40.7 417.8 39.4 C417.7 13 418 16.4 418 16.4 z" id="m" fill="#BD8B6A" /><path d="M418 16.4 C418 16.4 417.7 12.9 417.8 39.4 C417.8 40.7 419.1 58 416.6 59.1 C414.1 60.2 399.7 63.7 393.6 63.9 C387.5 64.2 385.4 60 384.1 57 C382.7 53.9 384.1 48.4 385.4 47 C386.3 46.1 389.5 45.6 395.1 45.6 C390.5 40 387.3 35.3 385.4 31.7 C382.6 26.3 385.4 16.4 388.3 13.1 C391.2 9.7 396.3 7.1 402.7 6.1 C409.1 5.1 411.5 7.2 413.5 8.1 C415.5 9.1 418 16.4 418 16.4 z M416.7 16.6 C416.7 16.6 414.4 9.8 412.5 8.9 C410.6 8 408.4 6.1 402.5 7.1 C396.6 8.1 391.9 10.4 389.3 13.6 C386.6 16.6 384 25.8 386.6 30.8 C388.4 34.1 393.9 41.7 398.2 46.8 C393 46.8 387.9 47.2 387.1 48 C385.9 49.3 384.1 51.2 385.4 54.1 C386.6 56.9 388.5 60.7 394.2 60.5 C399.8 60.3 413.1 57.1 415.4 56.1 C417.7 55.1 416.5 39.1 416.5 37.9 C416.4 13.5 416.7 16.6 416.7 16.6 z" opacity="0.15" id="n" /></g><g transform="translate(209.92, 273.7799) scale(1.290051) translate(-209.92, -273.7799) translate(208.8, 274.9) scale(0.7) translate(-213.8, -274.9) translate(-285.5, 62.09998) translate(106.5, 179.5) scale(-1, 1) translate(-106.5, -179.5) translate(89, 150)" id="o"><path d="M-348.6 16.4 C-348.6 16.4 -351.1 9 -353.1 8.1 C-355.1 7.2 -357.5 5.1 -363.9 6.1 C-370.3 7.1 -375.4 9.7 -378.3 13.1 C-381.2 16.4 -384 26.3 -381.2 31.7 C-379.3 35.3 -376.1 40 -371.5 45.6 C-377.1 45.6 -380.3 46.1 -381.2 47 C-382.5 48.4 -383.9 53.9 -382.5 57 C-381.2 60 -379.1 64.2 -373 63.9 C-366.9 63.7 -352.5 60.2 -350 59.1 C-347.5 58 -348.8 40.6 -348.8 39.3 C-348.8 13 -348.6 16.4 -348.6 16.4 z" id="p" fill="#BD8B6A" /><path d="M-348.6 16.4 C-348.6 16.4 -348.8 12.9 -348.8 39.3 C-348.8 40.6 -347.5 58 -350 59.1 C-352.5 60.2 -366.9 63.7 -373 63.9 C-379.1 64.2 -381.2 60 -382.5 57 C-383.9 53.9 -382.5 48.4 -381.2 47 C-380.3 46.1 -377.1 45.6 -371.5 45.6 C-376.1 40 -379.3 35.3 -381.2 31.7 C-384 26.3 -381.2 16.4 -378.3 13.1 C-375.4 9.7 -370.3 7.1 -363.9 6.1 C-357.5 5.1 -355.1 7.2 -353.1 8.1 C-351.1 9.1 -348.6 16.4 -348.6 16.4 z M-350 16.5 C-350 16.5 -352.3 9.7 -354.1 8.9 C-355.9 8.1 -358.1 6.1 -364 7.1 C-369.9 8.1 -374.6 10.3 -377.3 13.5 C-380 16.5 -382.5 25.6 -380 30.6 C-378.2 33.9 -373.6 41.1 -369.3 46.3 C-374.4 46.3 -379 47.1 -379.8 48 C-381 49.3 -382.4 51 -381.1 53.9 C-379.9 56.7 -378 60.5 -372.4 60.2 C-366.8 60 -353.5 56.8 -351.2 55.8 C-348.9 54.8 -350.1 38.8 -350.1 37.6 C-350.2 13.4 -350 16.5 -350 16.5 z" opacity="0.15" id="q" /></g><g transform="translate(96.90001, 90.79997) translate(24, 65)" id="r"><g transform="translate(4, 0)" id="s"><path d="M71 19.7 C73.2 28.5 78.4 30.1 83 37.6 C89.4 45.5 87.3 61.5 83.3 73 C82 76.7 78.7 86.3 76.6 97.4 C74.6 108.4 76.2 117.3 72.2 120.7 C70.8 122.2 64.9 123.5 55.5 123.5 C52.1 123.5 51 122.5 44.7 122.5 C38.4 122.5 36.3 123.6 33.3 123.5 C24.6 123.1 21 123.2 18.1 120.7 C13.8 116.2 15.5 106.2 12.9 95.6 C10.6 86.1 6.5 78.3 5.5 74 C3.5 64.9 0.2 50.2 6.3 39.2 C9.2 32.9 15.3 26.1 16.9 17.6 C18.6 8.1 34.9 5 43.7 4.4 C55 3.6 68.6 10.1 71 19.7 z" id="t" fill="#D8B285" /><path d="M84.2 39.3 C71.9 51.2 58.6 57.1 44.5 57.1 C30.5 57.1 17.9 51 6.6 38.7 C9.6 32.5 15.4 25.9 17 17.6 C18.6 8.1 34.9 5 43.7 4.4 C55 3.6 68.6 10.1 71 19.7 C73.2 28.5 78.4 30.1 83 37.6 C83.4 38.1 83.8 38.7 84.2 39.3 z" id="u" fill="#BD8B6A" /><path d="M71 19.7 C73.2 28.5 78.4 30.1 83 37.6 C89.4 45.5 87.3 61.5 83.3 73 C82 76.7 78.7 86.3 76.6 97.4 C74.6 108.4 76.2 117.3 72.2 120.7 C70.8 122.2 64.9 123.5 55.5 123.5 C52.1 123.5 51 122.5 44.7 122.5 C38.4 122.5 36.3 123.6 33.3 123.5 C24.6 123.1 21 123.2 18.1 120.7 C13.8 116.2 15.5 106.2 12.9 95.6 C10.6 86.1 6.5 78.3 5.5 74 C3.5 64.9 0.2 50.2 6.3 39.2 C9.2 32.9 15.3 26.1 16.9 17.6 C18.6 8.1 34.9 5 43.7 4.4 C55 3.6 68.6 10.1 71 19.7 z M69.6 20.3 C67.4 11 54.5 4.8 43.8 5.5 C35.4 6.1 20 9.1 18.4 18.3 C16.9 26.5 11.1 33 8.4 39.1 C2.6 49.7 5.7 63.8 7.6 72.6 C8.5 76.7 12.4 84.3 14.6 93.4 C17.1 103.6 15.5 113.3 19.5 117.6 C22.2 120 25.7 119.9 33.9 120.3 C36.7 120.4 38.7 119.3 44.7 119.3 C50.7 119.3 51.7 120.3 54.9 120.3 C63.8 120.3 69.4 119 70.7 117.6 C74.5 114.3 73 105.7 74.9 95.1 C76.9 84.4 80 75.1 81.2 71.6 C85 60.5 87 45.1 80.9 37.5 C76.6 30.3 71.7 28.8 69.6 20.3 z" opacity="0.15" id="v" /></g></g><g transform="translate(125.575, 178.85) scale(1.25, 1.118337) translate(-134.4, -188.6) translate(103, 86.99997) translate(31, 101)" id="w"><path d="M60.2 78.6 C60.9 58.3 69.1 43.8 69.1 23.9 C69.1 15.9 64.6 12.9 58.8 11.2 C53.9 9.7 51.4 8.5 47.9 6.3 C46.2 3.3 44.1 0.7 35.6 0.6 C27 0.7 25 3.3 23.3 6.3 C19.8 8.5 18.3 11 13.4 12.4 C7.6 14.1 1.7 25.4 3.3 33.2 C6.2 46.5 8.2 58 8.2 58 C8.2 58 11 71 10.9 78.7 C6 82 4.8 84.9 4.8 90 C5.1 91.8 24.2 94.4 26.4 90.6 C29.8 84.7 27.2 77.4 27.2 73.3 C27.2 67.2 27.4 58.2 27.5 48.5 C29.6 50.1 32.1 51.2 35.6 51.2 C39.1 51.2 41.6 50.1 43.7 48.5 C43.8 58.2 44 67.3 44 73.3 C44 77.4 41.4 84.8 44.8 90.6 C47 94.4 66.1 91.9 66.4 90 C66.3 84.8 65.1 81.8 60.2 78.6 z" id="x" fill="#FFF" /><path d="M12.3 9.7 C17.2 8.2 19.8 8.5 23.3 6.2 C23.5 6.3 26.7 8.5 24.4 14.6 C23.1 18 18.8 19.2 16.1 21.5 C11.2 25.7 11.3 33.7 10.6 40.2 C9.9 46.6 14.8 54.9 10.8 57.7 C9.9 58.4 9 58.5 8.1 57.9 C5 46.5 0.5 36.1 0.4 23.4 C0.5 15.4 6.6 11.4 12.3 9.7 z" id="y" fill="#F0C497" /><path d="M58.9 9.4 C53.9 7.9 51.3 8.2 47.6 5.8 C47.4 5.9 44.1 8.1 46.5 14.3 C47.8 17.7 52.2 18.9 55 21.3 C60 25.5 59.9 33.7 60.6 40.1 C61.3 46.6 56.3 55 60.4 57.8 C61.3 58.5 62.2 58.7 63.1 58 C66.3 46.5 70.9 36 70.9 23.2 C71 15.2 64.8 11.2 58.9 9.4 z" id="z" fill="#F0C497" /><path d="M63.9 55.3 C62.1 62.6 60.5 70.1 60.2 78.6 C65.1 81.8 66.3 84.8 66.4 90 C66.1 91.9 47 94.4 44.8 90.6 C41.4 84.8 44 77.4 44 73.3 C44 67.3 43.8 58.2 43.7 48.5 C41.6 50.1 39.1 51.2 35.6 51.2 C32.1 51.2 29.6 50.1 27.5 48.5 C27.4 58.2 27.2 67.2 27.2 73.3 C27.2 77.4 29.8 84.7 26.4 90.6 C24.2 94.4 5.1 91.8 4.8 90 C4.8 84.9 6 82 10.9 78.7 C11 71 8.2 58 8.2 58 C8.2 58 8.2 58 8.2 58 C8.2 58 8.1 58 8.1 57.9 C5 46.5 0.5 36.1 0.4 23.4 C0.5 15.4 6.6 11.4 12.3 9.7 C17.2 8.2 19.8 8.5 23.3 6.2 C23.3 6.2 23.3 6.2 23.3 6.2 C25 3.2 27 0.7 35.6 0.6 C43.6 0.7 46 3 47.6 5.8 C51.3 8.2 53.9 7.9 58.9 9.4 C64.8 11.2 71 15.2 70.9 23.2 C70.9 35 67 44.8 63.9 55.3 z M59.1 79.2 C59.4 71.1 60.9 60.9 62.6 53.9 C65.6 43.9 69.3 34.6 69.3 23.3 C69.4 15.7 63.5 11.9 57.9 10.2 C53 8.8 50.6 9 47 6.8 C45.5 4.1 43 1.6 35.3 1.5 C27.2 1.6 25.5 4.3 23.9 7.2 C20.6 9.4 18.1 9.1 13.4 10.5 C8 12.1 2.2 15.9 2.1 23.5 C2.2 35.6 6.5 45.5 9.5 56.4 C9.5 56.4 12.9 71.8 12.8 79.1 C8.1 82.2 6.9 82.3 6.9 87.1 C7.2 88.8 23.1 91.2 25.2 87.6 C28.4 82 25.4 74.7 25.4 70.8 C25.4 65 25 53.1 25.1 43.9 C27.1 45.4 32.2 49.9 35.6 49.9 C38.9 49.9 43.8 46.1 45.8 44.6 C45.9 53.8 45.8 66.5 45.8 72.2 C45.8 76.1 42.1 81.9 45.3 87.4 C47 90.3 63.8 88.3 63.8 87.9 C63.8 83.1 63.7 82.2 59.1 79.2 z" opacity="0.15" id="a1" /></g></g><g transform="translate(170, 196.9) scale(0.8982348) translate(-170, -196.9)" id="b1"><g transform="translate(140.0999, 126.7) scale(0.8) translate(-140.0999, -126.7) translate(-285.6, 70.29996) translate(26, 0)" id="c1"><g transform="translate(0.775704, 0)" id="d1"><path d="M383.5 49.2 C383.4 40.7 383.4 33.7 385.1 25.4 C386.8 17.1 393.9 9 395.1 7.3 C396.3 5.6 399 5.5 400 7.3 C400.5 8.3 401.7 10.6 403.4 14.4 C404.8 17.5 406.2 22 406.9 23.5 C410.4 31.4 413.3 35.7 414.2 40 C414.1 46.4 409 50.5 399.9 60.6 C398.3 62.5 395.1 63.8 391.5 63.2 C387.9 62.6 383.6 57.7 383.5 49.2 z" id="e1" fill="#806458" /><path d="M383.5 49.2 C383.4 40.7 383.4 33.7 385.1 25.4 C386.8 17.1 393.9 9 395.1 7.3 C396.3 5.6 399 5.5 400 7.3 C400.5 8.3 401.7 10.6 403.4 14.4 C404.8 17.5 406.2 22 406.9 23.5 C410.4 31.4 413.3 35.7 414.2 40 C414.1 46.4 409 50.5 399.9 60.6 C398.3 62.5 395.1 63.8 391.5 63.2 C387.9 62.6 383.6 57.7 383.5 49.2 z M385.6 46.7 C385.7 54.4 389.3 58.9 392.4 59.4 C395.4 59.9 398.1 58.8 399.5 57 C407.2 47.8 411.5 44.1 411.6 38.3 C410.8 34.4 408.4 30.5 405.4 23.3 C404.8 21.9 403.6 17.9 402.4 15 C401 11.5 400 9.5 399.5 8.6 C398.7 7 396.4 7.1 395.4 8.6 C394.4 10.1 388.4 17.6 386.9 25.1 C385.4 32.6 385.5 39 385.6 46.7 z" opacity="0.15" id="f1" /><path d="M389.4 55.7 C386 50.7 386.8 36.3 388 27.6 C389.1 18.8 394.3 14.6 395.6 13.2 C396.8 12.4 397.6 13.8 399.3 18 C400.2 20.3 401.4 25 402.7 27.6 C406.5 34.8 409.5 38.3 409.3 41.9 C409.1 46.8 405.3 47.1 401.3 53.4 C398.6 57.6 392.8 60.7 389.4 55.7 z" id="g1" fill="#BD8B6A" /></g></g><g transform="translate(199.9, 126.6) scale(0.8) translate(-199.9, -126.6) translate(-283.8, 71.39996) translate(101, 29) scale(-1, 1) translate(-101, -29) translate(85, 0)" id="h1"><g transform="translate(0.224296, 0)" id="i1"><path d="M-383.2 49.2 C-383.3 40.7 -383.3 33.7 -381.6 25.4 C-379.9 17.1 -372.8 9 -371.6 7.3 C-370.4 5.6 -367.7 5.5 -366.7 7.3 C-366.2 8.3 -365 10.6 -363.3 14.4 C-361.9 17.5 -360.5 22 -359.8 23.5 C-356.3 31.4 -353.4 35.7 -352.5 40 C-352.6 46.4 -357.7 50.5 -366.8 60.6 C-368.4 62.5 -371.6 63.8 -375.2 63.2 C-378.8 62.6 -383.1 57.7 -383.2 49.2 z" id="j1" fill="#806458" /><path d="M-383.2 49.2 C-383.3 40.7 -383.3 33.7 -381.6 25.4 C-379.9 17.1 -372.8 9 -371.6 7.3 C-370.4 5.6 -367.7 5.5 -366.7 7.3 C-366.2 8.3 -365 10.6 -363.3 14.4 C-361.9 17.5 -360.5 22 -359.8 23.5 C-356.3 31.4 -353.4 35.7 -352.5 40 C-352.6 46.4 -357.7 50.5 -366.8 60.6 C-368.4 62.5 -371.6 63.8 -375.2 63.2 C-378.8 62.6 -383.1 57.7 -383.2 49.2 z M-381.9 47 C-381.8 54.8 -378 59.2 -374.8 59.8 C-371.6 60.4 -368.8 59.2 -367.3 57.4 C-359.2 48.2 -354.7 44.4 -354.6 38.6 C-355.4 34.7 -358 30.7 -361.1 23.5 C-361.7 22.1 -363 18 -364.2 15.2 C-365.7 11.7 -366.8 9.6 -367.2 8.7 C-368.1 7.1 -370.5 7.1 -371.6 8.7 C-372.7 10.3 -379 17.6 -380.5 25.2 C-382 32.8 -382 39.2 -381.9 47 z" opacity="0.15" id="k1" /><path d="M-377.3 55.7 C-380.7 50.7 -379.9 36.3 -378.7 27.6 C-377.6 18.8 -372.4 14.6 -371.1 13.2 C-369.9 12.4 -369.1 13.8 -367.4 18 C-366.5 20.3 -365.3 25 -364 27.6 C-360.2 34.8 -357.2 38.3 -357.4 41.9 C-357.6 46.8 -361.4 47.1 -365.4 53.4 C-368.1 57.6 -373.9 60.7 -377.3 55.7 z" id="l1" fill="#BD8B6A" /></g></g><g transform="translate(110.6, 103.9) translate(16, 0)" id="m1"><g id="n1"><g id="o1"><path d="M85.7 48.5 C85.7 48.2 85.7 48 85.7 47.7 C86.3 47.8 86.8 47.7 87.2 47.3 C86.5 45.6 85.8 43.8 85.3 42 C84.8 40.3 84.7 38.4 84.3 36.6 C85.1 36.8 85.9 37.2 86.6 37.8 C84.7 33.9 83.2 29.8 80.8 26.2 C79.1 23.7 75.2 19.9 73.8 18.8 C74.6 18.2 75.3 17.7 76.1 17.1 C74.3 15.4 72.3 13.7 69.8 13.3 C71 13.1 72.2 13 73.4 12.9 C71.9 12.1 68.3 9.3 63.9 9.5 C65.5 9.2 65.8 7.3 66.3 5.9 C64.3 6.4 62.3 6.9 60.4 7.4 C60.7 6.2 60.7 4.7 60 3.7 C59.3 2.7 58.1 2.1 56.9 2.2 C57 4.2 56.2 6.2 54.8 7.7 C52.6 8 51 8.5 49.7 9.4 C50.6 8.1 51.6 6.9 51.6 5.6 C49.8 7 47 9.1 45.3 10.4 C44.6 6.4 42.1 2.6 38.5 0.7 C39.9 3.3 39.5 6.5 40.4 9.2 C38.8 8 37 6.6 35.6 5.6 C35.6 7 36.6 8.1 37.5 9.4 C36.3 8.5 34.7 8 32.4 7.7 C31 6.3 30.2 4.3 30.3 2.2 C29.1 2.1 27.8 2.7 27.2 3.7 C26.5 4.8 26.5 6.2 26.8 7.4 C24.8 6.9 22.8 6.4 20.9 5.9 C21.4 7.3 22.2 8.5 23.3 9.5 C23.1 9.6 23 9.7 22.9 9.9 C18.2 10.1 15.3 12.1 13.8 12.9 C15 13 16.3 13.1 17.4 13.3 C14.8 13.7 12.9 15.4 11.1 17.1 C11.9 17.7 12.6 18.2 13.4 18.8 C12.1 19.9 9.3 22.5 7.9 24 C6.4 25.5 2.5 33.9 0.7 37.8 C1.3 37.2 2.1 36.8 3 36.6 C2.6 38.4 2.5 40.2 2 42 C1.5 43.8 0.7 45.6 0.1 47.3 C0.5 47.7 1.1 47.8 1.6 47.7 C1.6 48.8 1.3 49.7 1.1 50.8 C0.7 52.9 1.1 59.2 1.1 61.7 C1.5 61.6 1.9 61.5 2.3 61.3 C1.7 63.3 1.7 65.5 2.5 67.4 C2.8 66.7 3 66 3.3 65.2 C3.8 67.3 3.9 69.3 4.1 71.4 C4.4 71.3 4.7 71.2 5 71 C5.3 71.7 5.7 72.5 5.8 73.3 C5.9 73.9 5.6 74.7 5.3 75.2 C6.2 76.2 6.8 77.6 7.7 78.6 L7.9 77.9 C8.6 79.3 8.9 80.9 9.3 82.4 C9.5 82 9.7 81.7 9.9 81.3 C10.3 81.9 10.8 82.5 11.1 83.1 C11.5 83.9 11.7 84.8 12.1 85.7 C12.3 86.3 12.6 87.1 13.2 87.5 C13.7 87.8 14.7 87.7 14.9 87 C15.3 87.3 15.5 87.9 15.9 88.3 C16.4 88.7 16.9 89.1 17.5 89.4 C18.8 90.3 20.1 91.1 21.4 92 C21.4 91.8 21.4 91.5 21.5 91.3 C21.7 91.4 21.9 91.5 22.2 91.6 L21.6 91.5 C22.9 92.5 24.2 93.5 25.6 94.6 C25.6 94.2 25.6 93.9 25.6 93.5 C27.9 94.3 30.2 95.1 32.6 95.9 C33.3 93.8 36 95.5 36.9 96.4 C37.4 96.1 37.7 95.6 37.8 95 C38.4 95 38.9 95 39.4 95.3 C39.9 95.5 40.3 95.8 40.8 95.9 C41.7 96.1 42.8 96 43.5 95.2 C44.1 95.2 44.6 95.2 45.2 95.2 C45.9 96 47 96.1 47.9 95.9 C48.4 95.8 48.7 95.6 49.1 95.4 C49.7 95.1 50.1 95.1 50.8 95.1 C50.9 95.7 51.2 96.2 51.7 96.5 C52.6 95.6 55.2 93.8 56 96 C58.3 95.2 60.6 94.4 63 93.6 C63 94 63 94.3 63 94.7 C64.3 93.7 65.6 92.7 67 91.6 L66.4 91.7 C66.6 91.6 66.8 91.5 67.1 91.4 C67.1 91.6 67.1 91.9 67.2 92.1 C68.5 91.2 69.8 90.4 71.1 89.5 C71.6 89.1 72.2 88.8 72.7 88.4 C73.1 88 73.3 87.5 73.7 87.1 C73.9 87.8 74.8 88 75.4 87.6 C76 87.2 76.3 86.4 76.5 85.8 C76.8 84.9 77.1 84 77.5 83.2 C77.8 82.5 78.3 82 78.7 81.4 C78.9 81.8 79.1 82.1 79.3 82.5 C79.7 80.9 80 79.4 80.7 78 C80.7 78.1 80.7 78.2 80.7 78.3 C81.6 77.3 82.5 76.3 83.4 75.3 C83.1 74.8 82.8 74 82.9 73.4 C83 72.7 83.4 71.8 83.7 71.1 C84 71.2 84.3 71.3 84.6 71.5 C84.8 69.4 84.9 67.3 85.4 65.3 C85.7 66 85.9 66.7 86.2 67.5 C86.9 65.5 87 63.4 86.4 61.4 C86.8 61.6 87.1 61.8 87.6 61.8 C87.6 59.4 87.7 57 87.7 54.6 C87.7 53.5 87.8 52.5 87.7 51.4 C86.1 50.4 85.7 49.5 85.7 48.5 z" id="p1" fill="#D8B285" /><path d="M37.1 9.1 C36.7 8.5 36.4 8 36.2 7.4 C35.9 6.8 35.6 6.2 35.6 5.6 C37 6.6 38.8 8 40.4 9.2 C40.4 9.1 40.4 9.1 40.4 9 C39.6 6.3 39.9 3.2 38.6 0.7 C42.2 2.6 44.7 6.4 45.4 10.4 C47 9.1 49.8 7 51.6 5.6 C51.6 6.9 50.6 8.1 49.7 9.4 C51 8.5 52.6 8 54.8 7.7 C56.2 6.2 57 4.2 56.9 2.2 C58.1 2.1 59.3 2.7 60 3.7 C60.7 4.7 60.7 6.2 60.4 7.4 C62.3 6.9 64.3 6.4 66.3 5.9 C65.8 7.3 65.5 9.2 63.9 9.5 C68.3 9.3 71.9 12.1 73.4 12.9 C72.2 13 71 13.1 69.8 13.3 C72.3 13.7 74.3 15.4 76.1 17.1 C75.3 17.7 74.6 18.2 73.8 18.8 C75.2 19.9 79.1 23.7 80.8 26.2 C82.4 28.6 83.6 31.3 84.8 34 C85 34.4 85.2 34.7 85.4 35.1 C85.4 35.1 85.3 35 85.3 35 C85.7 35.9 86.1 36.9 86.6 37.8 C85.9 37.2 85.1 36.8 84.3 36.6 C84.7 38.4 84.8 40.3 85.3 42 C85.8 43.8 86.5 45.6 87.2 47.3 C86.8 47.7 86.3 47.8 85.7 47.7 C85.7 48 85.7 48.2 85.7 48.5 C85.7 49.5 86.1 50.4 87.7 51.4 C87.8 52.5 87.7 53.5 87.7 54.6 C87.7 57 87.6 59.4 87.6 61.8 C87.1 61.8 86.8 61.6 86.4 61.4 C87 63.4 86.9 65.5 86.2 67.5 C85.9 66.7 85.7 66 85.4 65.3 C84.9 67.3 84.8 69.4 84.6 71.5 C84.3 71.3 84 71.2 83.7 71.1 C83.4 71.8 83 72.7 82.9 73.4 C82.8 74 83.1 74.8 83.4 75.3 C82.5 76.3 81.6 77.3 80.7 78.3 C80.7 78.2 80.7 78.1 80.7 78 C80 79.4 79.7 80.9 79.3 82.5 C79.1 82.1 78.9 81.8 78.7 81.4 C78.3 82 77.8 82.5 77.5 83.2 C77.1 84 76.8 84.9 76.5 85.8 C76.3 86.4 76 87.2 75.4 87.6 C74.8 88 73.9 87.8 73.7 87.1 C73.3 87.5 73.1 88 72.7 88.4 C72.2 88.8 71.6 89.1 71.1 89.5 C69.8 90.4 68.5 91.2 67.2 92.1 C67.1 91.9 67.1 91.6 67.1 91.4 C66.8 91.5 66.6 91.6 66.4 91.7 L67 91.6 C65.6 92.7 64.3 93.7 63 94.7 C63 94.3 63 94 63 93.6 C60.6 94.4 58.3 95.2 56 96 C55.2 93.8 52.6 95.6 51.7 96.5 C51.2 96.2 50.9 95.7 50.8 95.1 C50.1 95.1 49.7 95.1 49.1 95.4 C48.7 95.6 48.4 95.8 47.9 95.9 C47 96.1 45.9 96 45.2 95.2 C44.6 95.2 44.1 95.2 43.5 95.2 C42.8 96 41.7 96.1 40.8 95.9 C40.3 95.8 39.9 95.5 39.4 95.3 C38.9 95 38.4 95 37.8 95 C37.7 95.6 37.4 96.1 36.9 96.4 C36 95.5 33.3 93.8 32.6 95.9 C30.2 95.1 27.9 94.3 25.6 93.5 C25.6 93.9 25.6 94.2 25.6 94.6 C24.2 93.5 22.9 92.5 21.6 91.5 L22.2 91.6 C21.9 91.5 21.7 91.4 21.5 91.3 C21.4 91.5 21.4 91.8 21.4 92 C20.1 91.1 18.8 90.3 17.5 89.4 C16.9 89.1 16.4 88.7 15.9 88.3 C15.5 87.9 15.3 87.3 14.9 87 C14.7 87.7 13.7 87.8 13.2 87.5 C12.6 87.1 12.3 86.3 12.1 85.7 C11.7 84.8 11.5 83.9 11.1 83.1 C10.8 82.5 10.3 81.9 9.9 81.3 C9.7 81.7 9.5 82 9.3 82.4 C8.9 80.9 8.6 79.3 7.9 77.9 L7.7 78.6 C6.8 77.6 6.2 76.2 5.3 75.2 C5.6 74.7 5.9 73.9 5.8 73.3 C5.7 72.5 5.3 71.7 5 71 C4.7 71.2 4.4 71.3 4.1 71.4 C3.9 69.3 3.8 67.3 3.3 65.2 C3 66 2.8 66.7 2.5 67.4 C1.7 65.5 1.7 63.3 2.3 61.3 C1.9 61.5 1.5 61.6 1.1 61.7 C1.1 59.2 0.7 52.9 1.1 50.8 C1.3 49.7 1.6 48.8 1.6 47.7 C1.1 47.8 0.5 47.7 0.1 47.3 C0.7 45.6 1.5 43.8 2 42 C2.5 40.2 2.6 38.4 3 36.6 C2.1 36.8 1.3 37.2 0.7 37.8 C2.5 33.9 6.4 25.5 7.9 24 C9.3 22.5 12.1 19.9 13.4 18.8 C12.6 18.2 11.9 17.7 11.1 17.1 C12.9 15.4 14.8 13.7 17.4 13.3 C16.3 13.1 15 13 13.8 12.9 C15.3 12.1 18.2 10.1 22.9 9.9 C23 9.7 23.1 9.6 23.3 9.5 C22.2 8.5 21.4 7.3 20.9 5.9 C22.8 6.4 24.8 6.9 26.8 7.4 C26.5 6.2 26.5 4.8 27.2 3.7 C27.8 2.7 29.1 2.1 30.3 2.2 C30.2 4.3 31 6.3 32.4 7.7 C34.4 8 35.9 8.4 37.1 9.1 z M37.1 9.1 C37.3 9.4 37.6 9.8 37.8 10.1 C36.7 9.2 34.8 9.5 32.6 9.2 C31.3 7.9 29.2 5.3 29.3 3.3 C28.2 3.2 28.1 3.8 27.5 4.8 C26.8 5.8 27.4 7.1 27.7 8.2 C25.8 7.7 23.9 7.2 22.1 6.8 C22.6 8.1 24.5 9.2 25.5 10.1 C25.3 10.2 24.1 10.4 24 10.6 C19.5 10.8 17.8 11.7 16.4 12.4 C17.5 12.5 18.7 13.6 19.8 13.8 C17.3 14.2 14.5 15.8 12.8 17.4 C13.6 18 14.2 18.4 15 19 C13.8 20 11.1 22.5 9.8 23.9 C8.2 25.4 4 32.3 2.3 36 C2.9 35.4 3.7 35.3 4.6 35.1 C4.2 36.8 4.6 39.4 4.1 41.1 C3.6 42.8 2.9 43.9 2.3 45.5 C2.7 45.9 3.3 46.6 3.7 46.5 C3.7 47.5 3.4 48.4 3.2 49.4 C2.8 51.4 3.2 57.4 3.2 59.8 C3.6 59.7 4 59.6 4.3 59.4 C3.7 61.3 3.7 63.4 4.5 65.2 C4.8 64.6 5 64 5.3 63.2 C5.8 65.2 5.9 67.1 6.1 69.1 C6.4 69 6.7 68.9 7 68.7 C7.3 69.4 7.7 70.1 7.8 70.9 C7.9 71.5 7.6 72.2 7.3 72.7 C8.2 73.7 8.7 75 9.6 75.9 L9.8 75.2 C10.5 76.5 10.8 78.1 11.1 79.5 C11.3 79.1 11.5 78.8 11.7 78.5 C12.1 79.1 12.6 79.6 12.8 80.2 C13.2 81 13.4 81.8 13.8 82.7 C14 83.3 14.3 84 14.8 84.4 C15.3 84.7 16.2 84.6 16.4 83.9 C16.8 84.2 17 84.8 17.4 85.1 C17.9 85.5 18.4 85.9 18.9 86.1 C20.1 87 21.4 87.7 22.6 88.6 C22.6 88.4 22.6 88.1 22.7 87.9 C22.9 88 23.1 88.1 23.4 88.2 L22.8 88.1 C24 89.1 25.3 90 26.6 91 C26.6 90.6 26.6 90.3 26.6 90 C28.8 90.8 31 91.5 33.3 92.3 C34 90.3 36.5 91.9 37.4 92.8 C37.9 92.5 38.2 92 38.3 91.5 C38.9 91.5 39.3 91.5 39.8 91.8 C40.3 92 40.7 92.3 41.1 92.4 C42 92.6 43 92.5 43.7 91.7 C44.3 91.7 44.7 91.7 45.3 91.7 C46 92.5 47 92.6 47.9 92.4 C48.4 92.3 48.7 92.1 49 91.9 C49.6 91.6 50 91.6 50.6 91.6 C50.7 92.2 51 92.6 51.5 92.9 C52.4 92 54.8 90.3 55.6 92.4 C57.8 91.6 60 90.9 62.3 90.1 C62.3 90.5 62.3 90.8 62.3 91.1 C63.5 90.1 64.8 89.2 66.1 88.2 L65.5 88.3 C65.7 88.2 65.9 88.1 66.2 88 C66.2 88.2 66.2 88.5 66.3 88.7 C67.5 87.8 68.8 87.1 70 86.2 C70.5 85.8 71 85.5 71.5 85.2 C71.9 84.8 72.1 84.3 72.5 84 C72.7 84.7 73.5 84.9 74.1 84.5 C74.7 84.1 75 83.4 75.1 82.8 C75.4 81.9 75.7 81.1 76.1 80.3 C76.4 79.6 76.9 79.2 77.2 78.6 C77.4 79 77.6 79.3 77.8 79.6 C78.2 78.1 78.5 76.7 79.1 75.3 C79.1 75.4 79.1 75.5 79.1 75.6 C80 74.6 80.8 73.7 81.7 72.7 C81.4 72.2 81.1 71.5 81.2 70.9 C81.3 70.2 81.7 69.4 82 68.7 C82.3 68.8 82.6 68.9 82.9 69.1 C83.1 67.1 83.2 65.1 83.7 63.2 C84 63.9 84.2 64.5 84.5 65.3 C85.2 63.4 85.3 61.4 84.7 59.5 C85.1 59.7 85.4 59.9 85.8 59.9 C85.8 57.6 86.6 57.4 86.6 55.1 C86.6 54.1 85.9 51.6 85.9 50.5 C84.4 49.5 84 48.1 84 47.2 C84 46.9 84 46.7 84 46.4 C84.6 46.5 85 46.4 85.4 46 C84.7 44.4 84.9 43.2 84.4 41.5 C83.9 39.9 83.3 36.7 82.9 34.9 C83.6 35.1 84.9 34.4 85.6 34.8 C85.4 34.5 85.3 34.1 85.1 33.8 C83.4 30.8 81.3 29 79.2 25.9 C77.6 23.5 73.9 19.9 72.5 18.9 C73.3 18.3 73.3 17.9 74 17.3 C72.3 15.7 69.8 14.1 67.4 13.7 C68.5 13.5 70.3 12.4 71.5 12.3 C70.1 11.5 66 9.7 61.8 9.9 C63.3 9.6 64.4 8.7 64.9 7.3 C63 7.8 60.7 8.2 58.9 8.6 C59.2 7.5 60.4 5.9 59.7 4.9 C59 3.9 59.4 3 58.2 3.1 C58.3 5 55.8 6.8 54.4 8.3 C52.3 8.6 50 9.3 48.8 10.1 C49.7 8.9 50 8.4 50 7.2 C48.3 8.5 47 9.6 45.4 10.8 C44.7 7 43.2 4.8 39.8 3 C40.8 5.4 40 6.9 40.3 9 C40.3 9.1 40.3 9.1 40.4 9.2 C40.4 9.2 40.4 9.2 40.4 9.2 C40.4 9.4 40.5 9.7 40.6 10 C39 8.8 37.3 7.5 36 6.5 C36 6.8 36.1 7.1 36.1 7.4 C36.5 8 37 8.7 37.4 9.4 C37.4 9.3 37.2 9.2 37.1 9.1 z" opacity="0.15" id="q1" /></g></g></g><g transform="translate(170.0999, 162.7) scale(0.9) translate(-170.0999, -167.7)" id="r1"><g transform="translate(-285.6, 74.59995) translate(40, 47)" id="s1"><path d="M383.8 30.1 C384.8 31.9 394.2 51.5 396.3 60.1 C398.4 68.9 398 81.4 414.2 80.8 C430.4 80.2 431 79.1 434.8 60.1 C438.6 41.1 446.4 32.5 446.8 30 C447.3 27.5 445 26.3 441.3 22.6 C437.6 19 434.5 11.3 428.3 11.2 C423.8 10.9 414.6 20.8 426 34.3 C426.7 35 432.1 45 430.3 45.8 C428.5 45.8 427 43.1 424.6 40.7 C423.4 39.5 420.7 38 419.7 36.6 C418.7 34.7 417.8 28.5 417.4 22.4 C416.9 14.4 417.1 6.3 415.7 6.4 C413.2 6.4 413.2 32.4 411.8 36.6 C411.1 38.8 409.2 39.1 407.5 40.7 C404.9 43.1 402.3 46.1 401.1 45.8 C399.6 45.6 402 37.5 404.7 35.6 C412.6 28.8 409.6 11.3 404.7 11.3 C396.8 11.3 395.5 16.4 392.2 20.1 C388.9 24 382.7 28.2 383.8 30.1 z" id="t1" fill="#FFF" /><path d="M383.8 30.1 C382.7 28.2 388.9 24 392.2 20.2 C395.5 16.5 396.8 11.4 404.7 11.4 C409.6 11.4 412.6 28.9 404.7 35.7 C402 37.6 399.6 45.7 401.1 45.9 C402.3 46.2 404.9 43.2 407.5 40.8 C409.2 39.2 411.1 38.9 411.8 36.7 C413.2 32.5 413.2 6.5 415.7 6.5 C417.1 6.4 416.9 14.5 417.4 22.5 C417.8 28.6 418.7 34.8 419.7 36.7 C420.7 38.1 423.4 39.6 424.6 40.8 C427 43.2 428.5 45.9 430.3 45.9 C432.1 45.1 426.7 35.1 426 34.4 C414.6 20.9 423.8 11 428.3 11.3 C434.5 11.4 437.6 19.1 441.3 22.7 C445 26.4 447.3 27.6 446.8 30.1 C446.4 32.6 438.6 41.3 434.8 60.2 C431 79.2 430.4 80.3 414.2 80.9 C398 81.5 398.4 69 396.3 60.2 C394.2 51.5 384.8 31.9 383.8 30.1 z M385.5 29.8 C386.5 31.5 395.4 50.1 397.3 58.2 C399.3 66.5 398.9 78.3 414.2 77.8 C429.5 77.2 430.1 76.2 433.7 58.2 C437.3 40.2 444.7 32.1 445 29.8 C445.5 27.4 443.3 26.3 439.8 22.8 C436.4 19.4 434.3 11.5 428.5 11.4 C424.2 11.1 415.5 20.8 426.2 33.5 C426.9 34.2 433.6 45.4 430.8 47.3 C429.1 47.3 425.4 43 423.1 40.7 C422 39.6 419.7 37.6 418.7 36.3 C417.8 34.5 417 28.3 416.6 22.5 C416.1 14.9 416.9 7.4 415.6 7.5 C413.2 7.5 414.1 32.5 412.7 36.4 C412 38.5 410.2 39.7 408.6 41.2 C406.1 43.5 400.6 47.8 399.5 47.5 C398.1 47.3 401.6 36.7 404.2 34.9 C411.7 28.5 407.7 12 404.6 12.1 C397.1 12.1 396.6 16.9 393.4 20.4 C390.4 24.1 384.5 28.1 385.5 29.8 z" opacity="0.15" id="u1" /></g><g transform="translate(169.7, 198.4999) scale(0.5) translate(-169.7, -195.4999) translate(104.2, 121.7) translate(38, 64)" id="v1"><g id="w1"><path d="M40.7 9.3 C36.3 7.2 33.8 11.5 29 11.5 C28.5 11.5 26.5 11.5 26 11.5 C21.2 11.6 18.7 7.3 14.3 9.3 C9.4 11.6 -0.1 5.3 0.5 6.2 C0.9 11.3 6.5 16.8 9.4 16.6 C10.4 16.5 14.1 16.3 15 16 C18.8 14.7 23.5 20.9 27.6 20.9 C31.7 20.9 36.3 14.7 40.1 16 C41 16.3 44.7 16.5 45.7 16.6 C48.5 16.8 54.2 11.3 54.6 6.2 C55.1 5.3 45.6 11.6 40.7 9.3 z" id="x1" fill="#965622" /><path d="M51.4 3.1 C50.2 3.8 48.8 6.6 46.8 7.6 C45.9 8.1 43.9 8.4 42.3 8 C41.3 7.4 40.1 6.6 38.6 5.6 C35.3 3.3 31.6 0.7 27.5 0.7 C23.4 0.7 19.7 3.3 16.4 5.6 C14.9 6.6 13.8 7.4 12.7 8 C11 8.4 9 8.1 8.1 7.7 C6.2 6.7 4.8 3.9 3.5 3.2 C2.4 2.5 0.2 3.8 0.2 5.3 C0 10.6 8.1 12.8 10.9 11.9 C12 11.7 13.1 11.3 14.3 10.7 C16.5 12 19.9 15.9 27.5 16.2 C35.1 16.5 38.5 12 40.7 10.7 C41.8 11.3 42.9 11.8 44 11.9 C46.8 12.8 54.9 10.6 54.7 5.3 C54.7 3.7 52.5 2.4 51.4 3.1 z" id="y1" fill="#282421" /><path d="M36.4 8.8 C36.2 7.9 35.1 7.4 34.2 7.2 C32 6.5 29.7 5.8 27.5 5.9 C25.2 5.8 23 6.5 20.8 7.2 C19.9 7.5 18.9 7.9 18.6 8.8 C18.4 9.7 18 11.8 18.7 12.4 C20.3 13.7 19.2 18.9 27.5 18.9 C35.8 18.9 34.6 13.8 36.2 12.4 C37 11.7 36.6 9.7 36.4 8.8 z" id="z1" fill="#CE5253" /></g></g><g transform="translate(170.1, 178.5999) scale(0.8) translate(-170.1, -181.5999) translate(98.49998, 88.89995) translate(60, 89)" id="a2"><g id="b2"><path d="M3.1 13.1 C0.3 8.7 -5.5 -0.7 11.3 -0.7 C28.1 -0.7 20.8 10.4 18.4 13.4 C16 16.4 6 17.5 3.1 13.1 z" id="c2" /><path d="M17.1 4.6 C19.1 6.2 20.3 4.7 20.3 3.9 C20.3 3.1 18.6 1.7 16.9 1.7 C15.2 1.7 12.6 1.1 12.9 2.5 C13.2 3.9 15 3 17.1 4.6 z" id="d2" fill="#FFF" /></g></g><g transform="translate(153.5, 146.9999) scale(1.1) translate(-153.5, -152.9999) translate(105, 111.6999) translate(40, 35)" id="e2"><g id="f2"><path d="M17.3 3.9 C16.9 3.3 14.9 2 13.6 1.4 C10.9 0.2 8.6 1 6.3 1.9 C4.8 2.5 1.9 3.8 1.2 5.3 C0.4 6.9 0.8 8.9 1.7 10.4 C3.4 13.4 6.8 15.4 10.2 14.9 C11.7 14.7 14.8 12.4 16.6 9.5 C17.5 11 16.8 13.9 17.1 13.9 C17.5 13.9 21.4 8.8 17.3 3.9 z" id="g2" fill="#81665B" /><path d="M2.7 4.7 C4.3 2.4 10.9 -0.6 13 1.3 C17.7 5.4 12.9 11.7 9.1 11.9 C5.2 12.1 0.5 7.9 2.7 4.7 z" id="h2" fill="#282421" /><path d="M8.2 3.9 C6.9 3.5 6.3 3.7 5.7 4.2 C5.1 4.7 4.7 5.6 5 6.3 C5.5 7.3 7 7.1 7.9 6.6 C8.8 6 8.8 6 10.9 5.4 C10 4.6 9.4 4.3 8.2 3.9 z" id="i2" fill="#FEFEFE" /></g></g><g transform="translate(187.3, 147.0999) scale(1.1) translate(-187.3, -153.0999) translate(101.6, 111.7999) translate(74, 35)" id="j2"><g id="k2"><path d="M18.9 5.2 C18.2 3.7 15.3 2.4 13.8 1.8 C11.5 0.9 9.2 0.1 6.5 1.3 C5.2 1.9 3.9 2.7 2.8 3.8 C-1.3 8.8 2.6 13.8 2.9 13.8 C3.2 13.8 2.5 10.9 3.4 9.4 C5.1 12.2 8.3 14.5 9.8 14.8 C13.2 15.3 16.6 13.3 18.3 10.3 C19.3 8.8 19.7 6.9 18.9 5.2 z" id="l2" fill="#81665B" /><path d="M17.5 4.7 C15.9 2.4 9.3 -0.6 7.2 1.3 C2.5 5.4 7.3 11.7 11.1 11.9 C15 12.1 19.7 7.9 17.5 4.7 z" id="m2" fill="#282421" /><path d="M10.6 3.5 C9.3 3.1 8.7 3.3 8.1 3.8 C7.5 4.3 7.1 5.2 7.4 5.9 C7.9 6.9 9.4 6.7 10.3 6.2 C11.2 5.6 11.2 5.6 13.3 5 C12.4 4.2 11.9 3.9 10.6 3.5 z" id="n2" fill="#FEFEFE" /></g></g></g></g></g></g><defs><g transform="translate(17.09519, 0.800995) translate(-135.2952, -293.601)" id="o2" fill="#000"><path d="M118.2 302.7 C118.4 307.4 132.5 311.2 149.8 311.2 C167.1 311.2 181.2 307.4 181.4 302.7 C181.4 307.5 181.4 310.1 181.4 310.5 C181.4 315.3 167.3 319.1 149.8 319.1 C132.3 319.1 118.2 315.2 118.2 310.5 L118.2 302.7 L118.2 302.7 z" fill-opacity="0.4528" id="p2" fill="#593001" /><path d="M118.7 301.7 C118.9 306.4 133 310.2 150.3 310.2 C167.6 310.2 181.7 306.4 181.9 301.7 C181.9 306.5 181.9 309.1 181.9 309.5 C181.9 314.3 167.8 318.1 150.3 318.1 C132.8 318.1 118.7 314.2 118.7 309.5 L118.7 301.7 L118.7 301.7 z" id="q2" fill="#DA8113" /><linearGradient x1="46.0545" y1="-118.6926" x2="45.4656" y2="-118.6926" gradientUnits="userSpaceOnUse" gradientTransform="matrix(117.135, 0, 0, 28.4634, -5208.417, 3687.795)" id="r2"><stop offset="0%" stop-color="#D9952A" stop-opacity="1" /><stop offset="6.438854%" stop-color="#CA7519" stop-opacity="1" /><stop offset="30.54%" stop-color="#E3AD3A" stop-opacity="1" /><stop offset="51.05%" stop-color="#FFEC91" stop-opacity="1" /><stop offset="68.8%" stop-color="#E9BD44" stop-opacity="1" /><stop offset="86.24%" stop-color="#FFED6C" stop-opacity="1" /><stop offset="93.87%" stop-color="#F2D353" stop-opacity="1" /><stop offset="100%" stop-color="#F2B947" stop-opacity="1" /></linearGradient><path d="M118.2 301.6 C118.4 306.1 132.7 309.7 150.3 309.7 C167.9 309.7 182.2 306.1 182.4 301.6 C182.4 306.2 182.4 308.7 182.4 309 C182.4 313.5 168 317.2 150.3 317.2 C132.6 317.2 118.2 313.5 118.2 309 L118.2 301.6 L118.2 301.6 z" id="s2" style="fill:url(#r2)" /><linearGradient x1="45.4914" y1="-117.9547" x2="45.9407" y2="-117.5895" gradientUnits="userSpaceOnUse" gradientTransform="matrix(115.425, 0, 0, 29.925, -5125.077, 3826.124)" id="t2"><stop offset="0%" stop-color="#F4E072" stop-opacity="1" /><stop offset="100%" stop-color="#DB9427" stop-opacity="1" /></linearGradient><ellipse cx="150.3" cy="301.5" rx="31.6" ry="8.2" id="u2" style="fill:url(#t2)" /><linearGradient x1="45.4656" y1="-126.0065" x2="46.0545" y2="-126.0065" gradientUnits="userSpaceOnUse" gradientTransform="matrix(117.135, 0, 0, 18.6219, -5208.417, 2651.479)" id="v2"><stop offset="0%" stop-color="#D9952A" stop-opacity="1" /><stop offset="6.438854%" stop-color="#CA7519" stop-opacity="1" /><stop offset="30.54%" stop-color="#E3AD3A" stop-opacity="1" /><stop offset="51.05%" stop-color="#FFEC91" stop-opacity="1" /><stop offset="68.8%" stop-color="#E9BD44" stop-opacity="1" /><stop offset="86.24%" stop-color="#FFED6C" stop-opacity="1" /><stop offset="93.87%" stop-color="#F2D353" stop-opacity="1" /><stop offset="100%" stop-color="#F2B947" stop-opacity="1" /></linearGradient><path d="M119.2 299.9 C119 300.2 118.9 300.6 118.9 301 C118.9 305.5 132.9 309.2 150.3 309.2 C167.7 309.2 181.7 305.5 181.7 301 C181.7 300.6 181.6 300.3 181.4 299.9 C182 300.5 182.4 301.2 182.4 301.9 C182.4 306.4 168 310.1 150.3 310.1 C132.6 310.1 118.2 306.4 118.2 301.9 C118.2 301.3 118.6 300.6 119.2 299.9 z" id="w2" style="fill:url(#v2)" /><linearGradient x1="45.196" y1="-121.5895" x2="45.3746" y2="-120.6758" gradientUnits="userSpaceOnUse" gradientTransform="matrix(101.745, 0, 0, 23.94, -4458.332, 3199.41)" id="x2"><stop offset="0%" stop-color="#F8DD61" stop-opacity="1" /><stop offset="100%" stop-color="#EAA330" stop-opacity="1" /></linearGradient><ellipse cx="150.3" cy="300.8" rx="27.8" ry="6.6" id="y2" style="fill:url(#x2)" /><linearGradient x1="45.5694" y1="-134.267" x2="45.0221" y2="-134.267" gradientUnits="userSpaceOnUse" gradientTransform="matrix(101.745, 0, 0, 13.2525, -4458.332, 2077.223)" id="z2"><stop offset="0%" stop-color="#F4CA2F" stop-opacity="1" /><stop offset="51.38%" stop-color="#BF7737" stop-opacity="1" /><stop offset="100%" stop-color="#E4A929" stop-opacity="1" /></linearGradient><path d="M122.6 301.5 C122.5 301.3 122.4 301 122.4 300.8 C122.4 297.2 134.9 294.2 150.2 294.2 C165.5 294.2 178 297.1 178 300.8 C178 301 177.9 301.3 177.8 301.5 C176.3 298.2 164.5 295.6 150.1 295.6 C135.7 295.6 124.1 298.2 122.6 301.5 z" id="a3" style="fill:url(#z2)" /></g></defs><desc>E24DK44H7D2,5eO/9XZBGCZnvLIGeJlESezvRS4FakRtua8aDy1sIjfilLn3yS5OhHeYDIUyZT16rGyTd5RZvt/Vb5LDFdXCIu3wQQhlaG8i/mF8ViRU8GeDk4NNCTq7agXhM2HUNDi6</desc></svg>