<?xml version="1.0" encoding="utf-8"?><!DOCTYPE svg PUBLIC "-//W3C//DTD SVG 1.1//EN" "http://www.w3.org/Graphics/SVG/1.1/DTD/svg11.dtd"><svg x="0" y="0" width="340px" height="340px" viewBox="0, 0, 340, 340" preserveAspectRatio="xMidYMid" font-size="0" id="a" enable-background="new 0 0 340 340" xmlns="http://www.w3.org/2000/svg" xmlns:xlink="http://www.w3.org/1999/xlink" xmlns:xml="http://www.w3.org/XML/1998/namespace" version="1.1"><g id="b" fill="#000"><g id="c"><g transform="translate(0, 0) translate(0, 224)" id="d"><ellipse cx="168.6" cy="53.1" rx="57.8" ry="12.8" fill-opacity="0.25" id="e" /></g><g id="f"><g transform="translate(130.4, 222.2) scale(0.7) translate(-130.4, -222.2) translate(81.90001, 59.89998) translate(0, 161)" id="g"><path d="M0.4 6.2 C0.3 6.5 -0.6 7.7 0.7 12 C1.5 14.9 3.1 16.7 5.8 19.5 C9.2 23.1 11.9 25.4 15 26.2 C18.1 26.9 25.8 27.2 29.5 28.1 C33.5 29.1 38.9 32.7 41.2 34 C46 36.8 58.3 35.8 61.1 30.3 C62.5 27.5 64.6 23.5 64.1 19.5 C63.5 15.4 60.2 11.4 57.5 12 C52 13.2 48.6 13.1 43.4 13.8 C38.1 14.5 35.9 10.9 29.4 10.9 C26.4 10.9 22.2 10.1 16.3 10.9 C13.7 11.2 8.7 9.6 6.8 8.3 C5.9 7.7 3.6 5.9 2.7 5.5 C1.5 5 0.9 5.2 0.4 6.2 z" id="h" fill="#7B4C3A" /><g transform="translate(0, 5)" id="i"><path d="M37.6 7.9 C34.9 7.5 32.7 6.1 28.6 6.5 C26.1 6.8 22.4 6.5 17.5 7.7 C15.3 8.2 11 7.3 9.2 6.3 C8.4 5.9 6.3 4.6 5.5 4.3 C4.4 4 4 4.2 3.6 5.1 C3.6 5.4 2.9 6.5 4.4 10 C5.3 12.4 6.8 13.8 9.4 15.9 C12.6 18.6 15.1 20.3 17.8 20.8 C20.5 21.1 27 20.7 30.2 21.1 C33.7 21.6 38.6 24.2 40.6 25.1 C44.9 27 55.2 25.1 57.1 20.2 C58 17.7 59.5 14.1 58.7 10.8 C58.4 9.5 57.7 8.2 56.9 7.2 C57.1 7.2 57.3 7.1 57.5 7.1 C60.2 6.5 63.5 10.5 64.1 14.6 C64.6 18.6 62.5 22.6 61.1 25.4 C58.3 30.8 46 31.8 41.2 29 C38.9 27.7 33.5 24.1 29.5 23.1 C25.8 22.2 18.1 21.9 15 21.2 C11.9 20.4 9.2 18.1 5.8 14.5 C3.1 11.7 1.5 9.9 0.7 7 C-0.6 2.7 0.3 1.5 0.4 1.2 C0.9 0.2 1.5 0 2.7 0.5 C3.6 0.9 5.9 2.7 6.8 3.3 C8.7 4.6 13.7 6.2 16.3 5.9 C22.2 5.1 26.4 5.9 29.4 5.9 C33 5.9 35.3 7 37.6 7.9 z" fill-opacity="0.3" id="j" /></g></g><g transform="translate(124.5, 269.5) scale(1) translate(-124.5, -269.5) translate(104.3, 92.09998) translate(12, 123)" id="k"><path d="M14 38.2 C12.5 33.4 7.1 32.2 3.1 27.7 C-2 21.9 -0.8 7.2 7.5 2.9 C14.4 -0.7 26.3 -1.7 33.5 4.7 C45.7 15.7 37.5 29.3 34.6 36.2 C32 42.3 15 41.8 14 38.2 z" id="l" fill="#2C2F31" /><path d="M14.1 45.6 C14.8 42 14.5 39.5 13.7 37.6 C17.2 39.4 22 38.9 25.5 36.9 C29.8 34.5 36.9 28.7 37.3 29.9 C36.3 32.3 35.2 34.5 34.5 36.2 C32 42.2 35.1 50.4 30.5 55 C26.3 59.3 11.8 57.6 5.5 56.7 C4.2 52.1 6.2 48.4 14.1 45.6 z" id="m" fill="#7B4C3A" /><path d="M13.8 37.7 C12.1 33.3 6.9 32 3.1 27.7 C-2 21.9 -0.8 7.2 7.5 2.9 C14.4 -0.7 26.3 -1.7 33.5 4.7 C45.7 15.7 37.5 29.3 34.6 36.2 C34.5 36.4 34.4 36.6 34.3 36.9 C32.2 42.8 34.9 50.6 30.5 55 C26.3 59.3 11.8 57.6 5.5 56.7 C4.2 52.1 6.2 48.4 14.1 45.6 C14.8 42 14.5 39.5 13.7 37.6 C13.7 37.6 13.8 37.6 13.8 37.7 z M3.9 26.8 C7.6 30.9 12.2 34.6 14 36.2 C14.8 38 15.9 42.7 15.2 46.1 C7.7 48.8 6.2 50.5 6.2 54.3 C12.2 55.2 26 56.8 30 52.7 C34.2 48.5 31.6 41.1 33.5 35.5 C33.7 35.3 33.8 35.1 33.9 34.8 C36.6 28.3 44.4 15.4 32.8 4.9 C26 -1.2 14.7 -0.2 8.1 3.2 C0.2 7.3 -0.9 21.3 3.9 26.8 z" opacity="0.15" id="n" /></g><g transform="translate(215.4, 269.5) scale(1) translate(-215.4, -269.5) translate(104.3, 92.09998) translate(99, 152) scale(-1, 1) translate(-99, -152) translate(79, 123)" id="o"><path d="M14 38.2 C12.5 33.4 7.1 32.2 3.1 27.7 C-2 21.9 -0.8 7.2 7.5 2.9 C14.4 -0.7 26.3 -1.7 33.5 4.7 C45.7 15.7 37.5 29.3 34.6 36.2 C32 42.3 15 41.8 14 38.2 z" id="p" fill="#2C2F31" /><path d="M14.1 45.6 C14.8 42 14.5 39.5 13.7 37.6 C17.2 39.4 22 38.9 25.5 36.9 C29.8 34.5 36.9 28.7 37.3 29.9 C36.3 32.3 35.2 34.5 34.5 36.2 C32 42.2 35.1 50.4 30.5 55 C26.3 59.3 11.8 57.6 5.5 56.7 C4.2 52.1 6.2 48.4 14.1 45.6 z" id="q" fill="#7B4C3A" /><path d="M13.8 37.7 C12.1 33.3 6.9 32 3.1 27.7 C-2 21.9 -0.8 7.2 7.5 2.9 C14.4 -0.7 26.3 -1.7 33.5 4.7 C45.7 15.7 37.5 29.3 34.6 36.2 C34.5 36.4 34.4 36.6 34.3 36.9 C32.2 42.8 34.9 50.6 30.5 55 C26.3 59.3 11.8 57.6 5.5 56.7 C4.2 52.1 6.2 48.4 14.1 45.6 C14.8 42 14.5 39.5 13.7 37.6 C13.7 37.6 13.8 37.6 13.8 37.7 z M3.9 26.8 C7.6 30.9 12.5 32.1 14 36.2 C14.8 38 16.6 42.3 16 45.7 C8.5 48.3 6.3 50 7.5 54.4 C13.5 55.2 25.2 56.8 29.2 52.8 C33.4 48.5 31.6 41.1 33.6 35.5 C33.7 35.3 33.8 35.1 33.9 34.8 C36.6 28.3 44.4 15.3 32.8 4.9 C26 -1.2 14.7 -0.3 8.1 3.2 C0.2 7.3 -0.9 21.2 3.9 26.8 z" opacity="0.15" id="r" /></g><g transform="translate(104.3, 92.09998) translate(20, 65)" id="s"><path d="M85.6 52.6 C84.9 39.4 82.9 36.4 79.1 28 C77.8 25 76.2 22.2 74.6 19.6 C71.9 15.2 68.7 13.4 67.3 10 C64.8 4 60.4 3.2 45.5 3.2 C30.7 3.2 27.2 3.2 24.7 9.2 C23.4 12.4 19.3 14.8 16.7 19.1 C15 21.8 13.4 24.8 11.9 28 C8.1 36.5 6.1 39.5 5.4 52.6 C4.4 70.2 10.5 94.3 17.7 109.3 C20.2 114.5 25.5 118.2 29.1 119 C35.7 120.4 41.6 120.8 45.4 120.7 C49.3 120.8 55.2 120.4 61.7 119 C65.3 118.2 70.6 114.5 73.1 109.3 C80.4 94.2 86.5 70.2 85.6 52.6 z" id="t" fill="#D8C6BA" /><path d="M67.9 7.9 C65.4 1.9 60.3 0.1 45.5 0.1 C30.7 0.1 25.5 1.9 23.1 7.9 C21.8 11.1 19.3 14.8 16.7 19 C18.9 25 34.4 33.5 45.5 35.4 C56.6 33.5 72.1 25 74.3 19 C71.7 14.8 69.3 11.1 67.9 7.9 z" id="u" fill="#965622" /><path d="M67.9 7.9 C65.4 1.9 60.3 0.1 45.5 0.1 C30.7 0.1 25.5 1.9 23.1 7.9 C21.8 11.1 19.3 14.8 16.7 19 C18.9 25 34.4 33.5 45.5 35.4 C56.6 33.5 72.1 25 74.3 19 C71.7 14.8 69.3 11.1 67.9 7.9 z" opacity="0.15" id="v" fill="#965622" /><path d="M16.7 19.1 C16.7 19 16.7 19 16.7 19 C19.3 14.8 21.8 11.1 23.1 7.9 C25.5 1.9 30.7 0.1 45.5 0.1 C60.3 0.1 65.4 1.9 67.9 7.9 C69.3 11.1 71.7 14.8 74.3 19 C74.3 19 74.3 19.1 74.3 19.1 C74.4 19.2 74.5 19.4 74.6 19.6 C76.2 22.2 77.8 25 79.1 28 C82.9 36.4 84.9 39.4 85.6 52.6 C86.5 70.2 80.4 94.2 73.1 109.3 C70.6 114.5 65.3 118.2 61.7 119 C55.2 120.4 49.3 120.8 45.4 120.7 C41.6 120.8 35.7 120.4 29.1 119 C25.5 118.2 20.2 114.5 17.7 109.3 C10.5 94.3 4.4 70.2 5.4 52.6 C6.1 39.5 8.1 36.5 11.9 28 C13.4 24.8 15 21.8 16.7 19.1 C16.7 19.1 16.7 19.1 16.7 19.1 z M17.9 19.7 C17.9 19.8 17.9 19.8 17.9 19.8 C16.2 22.4 14.7 25.2 13.3 28.3 C9.6 36.5 7.7 39.3 7 51.9 C6.1 68.8 11.9 91.9 18.8 106.3 C21.2 111.3 26.3 114.9 29.8 115.6 C36.1 117 41.8 117.3 45.4 117.3 C49.1 117.3 54.8 117 61 115.6 C64.5 114.9 69.6 111.3 72 106.3 C79 91.8 84.8 68.8 84 51.9 C83.3 39.3 81.4 36.4 77.7 28.3 C76.5 25.4 75 22.8 73.4 20.3 C73.3 20.1 73.2 19.9 73.1 19.8 C73.1 19.7 73.1 19.7 73.1 19.7 C70.6 15.7 68.3 12.1 67 9 C64.6 3.3 59.7 1.6 45.5 1.6 C31.3 1.6 26.3 3.3 24 9 C22.8 12.1 20.4 15.7 17.9 19.7 C17.9 19.7 17.9 19.7 17.9 19.7 z" opacity="0.15" id="w" /></g><g transform="translate(127.4575, 185.805) scale(1.15, 1.148241) translate(-133, -185.3) translate(110.5, 90.49998) translate(23, 94)" id="x"><path d="M70.7 75 C68 69.2 71.4 37.6 70.5 27.2 C69.6 17.2 64.6 6.9 59.8 0.9 C57.1 2.4 54.1 3.4 51.2 4.2 C44.9 7.8 41.1 11.5 36.6 16.8 C32 11.4 28.5 8.1 22.8 4.4 C23.1 4.5 16.6 2.6 13.3 0.8 C8.5 6.8 3.6 17.1 2.6 27.1 C1.7 37.5 5.1 69.1 2.4 74.9 C-0.3 80.6 3.2 83.9 7.8 84.9 C10.1 85.4 19.5 85.8 23.1 84.2 C29 81.7 26.2 73.6 25.5 71.3 C23.9 65.5 23.7 49.2 25.7 37.1 C27.1 39 28.7 40.2 31.5 41.6 C31.6 39.8 32.2 38.5 32.1 37.2 C32.2 37.3 32.4 37.5 32.5 37.6 C33.4 39.5 34.8 43.1 36.5 43.8 L36.5 43.7 L36.5 43.8 C38.1 43.2 39.6 39.6 40.5 37.6 C40.6 37.5 40.8 37.3 40.9 37.2 C40.8 38.5 41.4 39.8 41.5 41.6 C44.3 40.2 45.9 38.9 47.3 37.1 C49.3 49.3 49.1 65.5 47.5 71.3 C46.8 73.6 44 81.7 49.9 84.2 C53.5 85.7 62.9 85.4 65.2 84.9 C69.8 84 73.4 80.7 70.7 75 z" id="y" fill="#FAF4E8" /><path d="M24.4 63.5 C25.1 64.2 25.8 64.7 26.7 64.9 C25.8 60.6 25.7 57.1 24.2 54.7 C24.2 52.8 24.3 50.9 24.4 49 L16 42.8 C14.8 41.8 13.1 41.6 11.8 42.5 L3.2 47.9 C3.1 48.2 3 48.6 2.9 48.9 C3 50.7 3 52.5 3.1 54.3 C2.6 57.1 2.4 60 2.5 62.9 C2.8 62.4 3.1 62 3.3 61.5 C3.3 61.7 3.3 61.8 3.3 62 C2.8 65.6 1.7 68.2 0.6 71.8 C1.3 71.6 2.2 71.1 3.1 70.6 C2.9 72.6 2.7 74.2 2.2 75.2 C-0.5 80.9 3 84.2 7.6 85.2 C9.9 85.7 19.3 86.1 22.9 84.5 C28.8 82 26 73.9 25.3 71.6 C25 69.7 24.6 66.8 24.4 63.5 z" id="z" fill="#7B4C3A" /><path d="M69.8 70.5 C70.6 71.1 71.5 71.5 72.3 71.7 C71.2 68.1 70.1 65.5 69.6 61.9 C69.6 61.7 69.6 61.6 69.6 61.4 C69.9 61.9 70.1 62.4 70.4 62.8 C70.5 59.9 70.3 57 69.8 54.2 C69.9 52.4 69.9 50.6 70 48.8 C69.9 48.5 69.8 48.1 69.7 47.8 L61.1 42.4 C59.8 41.6 58.1 41.7 56.9 42.7 L48.5 48.9 C48.6 50.8 48.7 52.7 48.7 54.6 C47.2 57 47.1 60.5 46.2 64.8 C47.1 64.6 47.8 64.1 48.5 63.4 C48.3 66.8 47.9 69.6 47.4 71.4 C46.7 73.7 43.9 81.8 49.8 84.3 C53.4 85.8 62.8 85.5 65.1 85 C69.7 84 73.2 80.7 70.5 75 C70.3 74.1 70 72.5 69.8 70.5 z" id="a1" fill="#7B4C3A" /><path d="M55.2 20.1 C51.5 16.3 43.4 19.8 36.5 27.7 L36.5 27.8 L36.5 27.7 C29.6 19.8 21.5 16.3 17.8 20.1 C12.5 25.5 21.9 38.9 23.9 39.1 C23.6 38.3 24.7 36.2 23.8 34.4 C25.9 38 27.4 39.8 31.5 41.8 C31.6 39.8 32.3 38.3 32.1 36.9 C33 38.2 34.6 43.2 36.6 43.9 L36.6 43.8 L36.6 43.9 C38.6 43.2 40.2 38.1 41.1 36.9 C40.8 38.3 41.6 39.8 41.7 41.8 C45.8 39.8 47.2 38 49.4 34.4 C48.5 36.2 49.6 38.3 49.3 39.1 C51.2 38.9 60.5 25.5 55.2 20.1 z" id="b1" fill="#7B4C3A" /><path d="M47.4 37.4 C46 39.2 44.5 40.4 41.7 41.8 C41.7 41.7 41.7 41.6 41.7 41.5 C41.6 41.5 41.6 41.6 41.5 41.6 C41.4 39.8 40.8 38.5 40.9 37.2 C40 38.8 38.5 43.2 36.6 43.9 L36.6 43.8 L36.6 43.9 C35.9 43.7 35.3 42.9 34.7 42 C33.8 40.6 33.1 38.8 32.5 37.7 C32.5 37.7 32.5 37.6 32.5 37.6 L32.1 37.2 C32.2 38.5 31.6 39.9 31.5 41.8 C28.7 40.4 27.1 39.1 25.7 37.3 C24.8 42.8 24.4 49 24.3 54.8 C25.7 57.2 25.9 60.7 26.7 64.9 C25.8 64.7 25.1 64.2 24.5 63.6 C24.7 66.9 25.1 69.6 25.5 71.3 C26.1 73.2 28 78.9 25.6 82.3 C25 83.2 24.2 84 22.9 84.5 C19.3 86.1 9.9 85.7 7.6 85.2 C3 84.2 -0.5 80.9 2.2 75.2 C2.7 74.2 2.9 72.6 3.1 70.6 C2.2 71.1 1.3 71.6 0.6 71.8 C1.7 68.2 2.8 65.6 3.3 62 L3.3 61.5 C3.1 62 2.8 62.4 2.5 62.9 C2.4 60 2.6 57.1 3.1 54.3 C3 52.5 3 50.7 2.9 48.9 C2.9 48.8 3 48.7 3 48.6 C2.6 40 2.2 31.6 2.6 27.1 C3.6 17.1 8.5 6.8 13.3 0.8 C16.6 2.6 23.1 4.5 22.8 4.4 C28.5 8.1 32 11.4 36.6 16.8 C41.1 11.5 44.9 7.8 51.2 4.2 C54.1 3.4 57.1 2.4 59.8 0.9 C64.6 6.9 69.6 17.2 70.5 27.2 C71 32.7 70.2 44.1 69.9 54.5 C70.4 57.2 70.5 60 70.4 62.8 C70.1 62.4 69.9 62 69.7 61.5 C69.7 61.7 69.7 62 69.7 62.2 C70.2 65.6 71.3 68.2 72.4 71.7 C71.6 71.5 70.7 71.1 69.9 70.5 C70.1 72.5 70.3 74.1 70.8 75 C73 79.6 71.1 82.6 67.8 84.1 C67 84.5 66.1 84.8 65.2 85 C62.9 85.5 53.5 85.8 49.9 84.3 C44 81.8 46.8 73.7 47.5 71.4 C48 69.6 48.4 66.8 48.6 63.4 C47.9 64.1 47.2 64.6 46.3 64.8 C47.2 60.5 47.3 57 48.8 54.6 C48.8 52.7 48.7 50.8 48.6 48.9 L48.6 48.9 C48.3 45 47.9 41 47.4 37.4 z M50.1 32.5 L48.6 36.7 C49 38.9 49.1 41.6 49.1 44.6 C49.2 46.4 50.1 49.9 50.1 51.7 C49.5 55.7 48.6 58.1 47.8 62.1 C48.6 61.9 49.5 61.4 50.1 60.8 C49.9 64 49.5 68 49.1 69.6 C48.5 71.7 46.3 78.2 51.8 80.5 C55.1 81.9 63.6 81.5 65.7 81.1 C69.7 80.5 70.2 75.9 68.2 71.6 C67.8 70.8 67.6 68.5 67.4 66.6 C68.1 67.1 69.1 68 69.9 68.2 C68.9 65 67.7 63 67.3 59.8 C67.3 59.6 67.5 58.1 67.5 57.9 C67.7 58.3 68.6 58.8 68.9 59.1 C69 56.5 68.5 54.4 68.1 51.9 C68.5 42.3 68.5 32.4 68.1 27.3 C67.3 18 64.3 7.5 59.8 2 C57.3 3.4 52.9 5.3 50.2 6 C44.4 9.3 40.8 15.9 36.6 20.8 C32.3 15.8 29.1 9.6 23.9 6.1 C24.2 6.2 16.8 3.6 13.7 1.9 C9.3 7.5 5.6 17.1 4.7 26.4 C4.2 30.7 4.9 50 5 51.6 C4.5 54.2 4 56.1 4.1 58.8 C4.3 58.5 5 58.1 6.3 57.6 C5.8 60.9 4.3 65.3 3.3 68.7 C3.9 68.5 5 68.7 5.8 68.2 C5.6 70.1 5.5 71.9 5.1 72.8 C2.6 78.1 5.6 80.1 9.8 81.1 C11.9 81.6 18.1 81.9 19.8 81.9 C21.5 81.9 23.8 79.9 24.4 79 C26.7 75.8 24.5 71.2 24 69.5 C23.6 67.9 23.6 65 23.4 62 C24 62.6 24.8 62.3 25.6 62.5 C24.8 58.6 24.8 56.5 23.4 54.2 C23.5 48.8 23.6 39.5 24.4 34.4 C25.7 36.1 28.1 38.5 30.7 39.8 C30.8 38.1 31.5 35.6 31.4 34.4 C33.4 37.5 34.7 39.4 35.2 40.3 C35.6 40.9 36.2 41.2 37.2 41.5 C39.7 37.8 41.2 35.5 41.8 34.5 C41.7 35.7 42.7 39.8 42.7 39.9 C45.2 38.6 48.8 34.1 50.1 32.5 z" opacity="0.15" id="c1" /></g></g><g transform="translate(169.6, 188) scale(0.8657003) translate(-169.6, -188)" id="d1"><g transform="translate(86.90001, 87.49997) translate(38, 0)" id="e1"><g id="f1"><path d="M67 2.2 C73.4 3.6 81.6 6.5 84.5 10.5 C87.4 14.5 90.2 22.1 89.1 36.2 C88 50.3 87.7 63.3 84.9 70.8 C82.1 78.3 75 87 64.4 90.8 C57.6 93.3 51.2 94.5 45.2 94.6 C44.9 94.6 44.8 94.6 44.7 94.6 C38.7 94.5 32.3 93.2 25.5 90.8 C15 87 7.8 78.2 5 70.7 C2.2 63.2 2 50.4 0.9 36.3 C-0.2 22.2 2.6 14.7 5.5 10.6 C8.4 6.5 16.6 3.6 23 2.3 C27.2 1.4 34.4 0.8 44.7 0.5 C55.5 0.7 62.8 1.3 67 2.2 z" id="g1" fill="#7B4C3A" /><path d="M72.4 85.7 C70 87.7 67.2 89.4 63.9 90.6 C57.1 93.1 50.7 94.3 44.7 94.4 C44.6 94.4 44.5 94.4 44.5 94.4 C44.4 94.4 44.3 94.4 44.3 94.4 C38.3 94.3 31.9 93 25.1 90.6 C21.8 89.4 19.1 87.8 16.7 85.9 C13.9 74 13 66.5 13.9 63.2 C15.3 57.8 17.2 56.8 11.8 50.9 C6.4 45 12 38 19.6 33.1 C24.6 29.8 27.9 28.7 29.3 29.6 C26.3 28.2 24.3 28.9 22.8 29.2 C20.5 29.7 22.5 24.9 27.2 23.7 C31.9 22.5 36 23.2 38.1 25.2 C40.2 27.2 41.4 28.8 43.6 28.7 C43.7 28.7 43.9 28.7 44 28.7 C43.7 28.7 43.9 28.7 44.5 28.7 C45.1 28.7 45.3 28.7 45 28.7 C45.1 28.7 45.2 28.7 45.4 28.7 C47.6 28.8 48.9 27.4 51.1 25.4 C53.2 23.4 57.4 22 61.9 23.7 C66.4 25.4 68.8 30 66.5 29.5 C65 29.2 62.8 28.1 59.8 29.5 C61.2 28.6 64.5 29.7 69.5 33 C77 38 82.7 45.1 77.3 51 C71.8 56.9 73.7 57.8 75.2 63.3 C75.9 66.4 75 73.9 72.4 85.7 z" id="h1" fill="#342520" /><path d="M56.9 1 C57.3 1.3 53.2 1.7 52.8 7 C52.6 8.7 55.1 17.3 55.5 19.4 C56.7 24.8 55.9 24.4 54.6 27.2 C50.2 36.4 49 41.7 51.9 46.6 C53.8 49.8 57.2 53.4 62 57.4 C64.9 60.2 66.8 62.7 67.6 64.8 C69.5 69.9 72.6 79 67.6 86.6 C62.6 94.2 58.2 102.4 44.8 102.4 C31.4 102.4 23.8 94.2 20.3 84.8 C16.8 75.4 19 72.6 21.7 67.1 C23.4 63.6 24.8 60.8 28.6 57.5 C32.4 54.2 35.9 50 37.8 46.7 C40.6 41.8 39.4 36.5 35.1 27.3 C33.7 24.5 33 24.9 34.2 19.5 C34.8 16.9 37 12.2 37 7.1 C37 2 32.6 1.2 32.9 1 C33.8 0.9 37.8 0.5 44.8 0.5 C51.8 0.5 55.9 0.9 56.9 1 z" id="i1" fill="#FAF4E8" /><path d="M67 2.2 C73.4 3.6 81.6 6.5 84.5 10.5 C87.4 14.5 90.2 22.1 89.1 36.2 C88 50.3 87.7 63.3 84.9 70.8 C82.1 78.3 75 87 64.4 90.8 C57.6 93.3 51.2 94.5 45.2 94.6 C44.9 94.6 44.8 94.6 44.7 94.6 C38.7 94.5 32.3 93.2 25.5 90.8 C15 87 7.8 78.2 5 70.7 C2.2 63.2 2 50.4 0.9 36.3 C-0.2 22.2 2.6 14.7 5.5 10.6 C8.4 6.5 16.6 3.6 23 2.3 C27.2 1.4 34.4 0.8 44.7 0.5 C55.5 0.7 62.8 1.3 67 2.2 z M66.4 2.4 C62.3 1.5 55.2 0.9 44.7 0.7 C34.7 1 27.7 1.6 23.6 2.5 C17.4 3.8 9.4 6.6 6.6 10.6 C3.8 14.6 1 21.9 2.1 35.6 C3.2 49.3 3.4 61.8 6.1 69.1 C8.8 76.4 15.8 85 26 88.7 C32.6 91 38.8 92.3 44.7 92.4 C44.8 92.4 44.9 92.4 45.2 92.4 C51 92.3 57.3 91.1 63.9 88.7 C74.2 85 81.1 76.5 83.9 69.2 C86.7 61.9 86.9 49.2 88 35.5 C89.1 21.8 86.3 14.4 83.5 10.5 C80.7 6.6 72.6 3.8 66.4 2.4 z" fill-opacity="0.3" id="j1" /></g></g><g transform="translate(130.7, 104.7) rotate(5, 0, 0) scale(1.2) translate(-126.7, -110.7) translate(97.2, 87.89996) translate(2, 16)" id="k1"><g id="l1"><path d="M0.2 37 C0.2 35.6 0.2 30.8 0.3 29.9 C0.2 28.7 0.9 27.3 2 26.1 C1.7 26.2 1.4 26.3 1 26.5 C1.7 24 3.2 18.8 3.2 18.8 C1.9 18 1.4 15.6 3.5 12.8 C3.3 15.6 5.5 14.4 6.1 13.7 C6.7 13 7.3 12.3 7.9 11.6 C8.6 10.8 9.7 10.3 10.8 9.8 C11.2 9.3 11.7 8.8 12.1 8.3 C11.5 8.3 10.9 8.4 10.4 8.6 C12 6.4 14.3 4.6 16.9 3.7 C17.3 3.4 17.6 3.2 18 2.9 C16.6 2.3 15.1 1.7 13.7 1 C16.8 0.9 19.9 0.7 23.1 0.6 C24.4 0.5 26.2 0.6 28.4 3.5 C31.8 8 26.9 9.4 25.6 26.2 C24.9 36.1 25 42.4 24.8 46.4 C24.9 49.3 24.9 52.3 25 55.2 C24.3 54.4 23.7 53.7 23 52.9 C22.7 54.4 22.5 55.7 22.2 57.4 C20.9 56.4 19.6 55.5 18.3 54.5 C18.2 52.8 18.2 51.2 18.1 49.5 C18.1 49.5 18.1 49.5 18 49.4 C17.4 50.8 16.8 52.2 16.2 53.6 C15.8 51.6 15.5 49.5 15.1 47.5 C14.8 48.6 14.5 49.8 14.2 50.9 C13.6 49.2 12.9 47.5 12.3 45.9 C12.1 46.8 11.8 47.7 11.6 48.6 C10.1 47.6 8.6 46.6 7.1 45.7 C7.1 44.7 7.2 43.8 7.2 42.8 C6.5 43.6 5.9 44.4 5.2 45.2 C3.1 42.7 2.1 39.4 2.4 36.2 C2.2 35.6 2 35.1 1.9 34.5 C1.4 35.4 0.8 36.2 0.2 37 z" id="m1" fill="#342520" /><path d="M0.2 37 C0.2 35.6 0.2 30.8 0.3 29.9 C0.2 28.7 0.9 27.3 2 26.1 C1.7 26.2 1.4 26.3 1 26.5 C1.7 24 3.2 18.8 3.2 18.8 C1.9 18 1.4 15.6 3.5 12.8 C3.3 15.6 5.5 14.4 6.1 13.7 C6.7 13 7.3 12.3 7.9 11.6 C8.6 10.8 9.7 10.3 10.8 9.8 C11.2 9.3 11.7 8.8 12.1 8.3 C11.5 8.3 10.9 8.4 10.4 8.6 C12 6.4 14.3 4.6 16.9 3.7 C17.3 3.4 17.6 3.2 18 2.9 C16.6 2.3 15.1 1.7 13.7 1 C16.8 0.9 19.9 0.7 23.1 0.6 C24.4 0.5 26.2 0.6 28.4 3.5 C31.8 8 26.9 9.4 25.6 26.2 C24.9 36.1 25 42.4 24.8 46.4 C24.9 49.3 24.9 52.3 25 55.2 C24.3 54.4 23.7 53.7 23 52.9 C22.7 54.4 22.5 55.7 22.2 57.4 C20.9 56.4 19.6 55.5 18.3 54.5 C18.2 52.8 18.2 51.2 18.1 49.5 C18.1 49.5 18.1 49.5 18 49.4 C17.4 50.8 16.8 52.2 16.2 53.6 C15.8 51.6 15.5 49.5 15.1 47.5 C14.8 48.6 14.5 49.8 14.2 50.9 C13.6 49.2 12.9 47.5 12.3 45.9 C12.1 46.8 11.8 47.7 11.6 48.6 C10.1 47.6 8.6 46.6 7.1 45.7 C7.1 44.7 7.2 43.8 7.2 42.8 C6.5 43.6 5.9 44.4 5.2 45.2 C3.1 42.7 2.1 39.4 2.4 36.2 C2.2 35.6 2 35.1 1.9 34.5 C1.4 35.4 0.8 36.2 0.2 37 z M1 33.9 C1.6 33.2 2.2 32.8 2.6 31.9 C2.7 32.5 2.9 33.5 3.1 34.1 C2.8 37 3.8 40.1 5.7 42.4 C6.4 41.7 6.9 40.9 7.6 40.2 C7.6 40.8 7.7 41.8 7.9 43.2 C9.2 44 10.3 44.7 11.3 45.3 C11.5 44.5 12.3 43.9 12.4 43.1 C13 44.6 13.3 45.6 13.9 47.2 C14.2 46.2 14.8 45.6 15 44.6 C15.4 46.4 16.1 47.8 16.5 49.7 C16.9 48.8 17.6 47.8 18.7 46.5 C18.8 48.7 18.9 50.3 19 51.3 C20.2 52.2 20.5 52.8 21.8 53.7 C22.1 52.1 22.3 50.9 22.6 49.6 C23.3 50.3 23.8 51 24.5 51.7 C24.4 49 23.2 35.8 23.9 26.7 C25 11.1 30.8 8.1 27.6 4 C25.5 1.3 24.2 1.1 23 1.1 C20 1.2 18.9 1.3 16 1.4 C17.3 2 18.1 2.4 19.4 3 C19 3.3 17.2 3.9 16.8 4.1 C14.4 4.9 13.2 5.7 11.7 7.7 C12.2 7.5 13 7.8 13.6 7.8 C13.2 8.3 11.2 9.7 10.8 10.1 C9.8 10.6 7.2 13 6.6 13.6 C6 14.2 3.8 15.6 3.2 13.8 C2.3 15.4 3.1 17.2 4.3 17.9 C4.3 17.9 2.7 22.1 2 24.4 C2.4 24.2 3.2 24.3 3.4 24.2 C2.4 25.3 1 26.9 1.1 28 C1.1 29.1 1 32.6 1 33.9 z" opacity="0.15" id="n1" /></g></g><g transform="translate(208.7, 103.7) rotate(-5, 0, 0) scale(1.2) translate(-212.7, -109.7) translate(123.4, 86.99997) translate(102, 45) scale(-1, 1) translate(-102, -45) translate(87, 16)" id="o1"><g id="p1"><path d="M0.2 37 C0.2 35.6 0 32.1 0.3 29.9 C0.5 28.5 1.1 27.2 2 26.1 C1.7 26.2 1.4 26.3 1 26.5 C1.7 24 2.5 21.1 3.2 18.8 C2.9 18.6 1 16.3 3.5 12.8 C3.3 15.6 5.5 14.4 6.1 13.7 C6.7 13 7.3 12.3 7.9 11.6 C8.6 10.8 9.7 10.3 10.8 9.8 C11.2 9.3 11.7 8.8 12.1 8.3 C11.5 8.3 10.9 8.4 10.4 8.6 C12 6.4 14.3 4.6 16.9 3.7 C17.3 3.4 17.6 3.2 18 2.9 C16.6 2.3 15.1 1.7 13.7 1 C16.8 0.9 19.9 0.7 23.1 0.6 C24.4 0.5 26.2 0.6 28.4 3.5 C31.8 8 26.9 9.4 25.6 26.2 C24.9 36.1 25 42.4 24.8 46.4 C24.9 49.3 24.9 52.3 25 55.2 C24.3 54.4 23.7 53.7 23 52.9 C22.7 54.4 22.5 55.7 22.2 57.4 C20.9 56.4 19.6 55.5 18.3 54.5 C18.2 52.8 18.2 51.2 18.1 49.5 C18.1 49.5 18.1 49.5 18 49.4 C17.4 50.8 16.8 52.2 16.2 53.6 C15.8 51.6 15.5 49.5 15.1 47.5 C14.8 48.6 14.5 49.8 14.2 50.9 C13.6 49.2 12.9 47.5 12.3 45.9 C12.1 46.8 11.8 47.7 11.6 48.6 C10.1 47.6 8.6 46.6 7.1 45.7 C7.1 44.7 7.2 43.8 7.2 42.8 C6.5 43.6 5.9 44.4 5.2 45.2 C3.1 42.7 2.1 39.4 2.4 36.2 C2.2 35.6 2 35.1 1.9 34.5 C1.4 35.4 0.8 36.2 0.2 37 z" id="q1" fill="#342520" /><path d="M1.8 26.3 C1.8 26.2 1.8 26.2 1.9 26.1 C1.6 26.2 1.4 26.3 1 26.5 C1.7 24 2.5 21.1 3.2 18.8 C2.9 18.6 1 16.3 3.5 12.8 C3.3 15.6 5.5 14.4 6.1 13.7 C6.7 13 7.3 12.3 7.9 11.6 C8.6 10.8 9.7 10.3 10.8 9.8 C11.2 9.3 11.7 8.8 12.1 8.3 C11.5 8.3 10.9 8.4 10.4 8.6 C12 6.4 14.3 4.6 16.9 3.7 C17.3 3.4 17.6 3.2 18 2.9 C16.6 2.3 15.1 1.7 13.7 1 C16.8 0.9 19.9 0.7 23.1 0.6 C24.4 0.5 26.2 0.6 28.4 3.5 C31.8 8 26.9 9.4 25.6 26.2 C24.9 36.1 25 42.4 24.8 46.4 C24.9 49.3 24.9 52.3 25 55.2 C24.3 54.4 23.7 53.7 23 52.9 C22.7 54.4 22.5 55.7 22.2 57.4 C20.9 56.4 19.6 55.5 18.3 54.5 C18.2 52.8 18.2 51.2 18.1 49.5 C18.1 49.5 18.1 49.5 18 49.4 C17.4 50.8 16.8 52.2 16.2 53.6 C15.8 51.6 15.5 49.5 15.1 47.5 C14.8 48.6 14.5 49.8 14.2 50.9 C13.6 49.2 12.9 47.5 12.3 45.9 C12.1 46.8 11.8 47.7 11.6 48.6 C10.1 47.6 8.6 46.6 7.1 45.7 C7.1 44.7 7.2 43.8 7.2 42.8 C6.5 43.6 5.9 44.4 5.2 45.2 C3.1 42.7 2.1 39.4 2.4 36.2 C2.2 35.6 2 35.1 1.9 34.5 C1.4 35.4 0.8 36.2 0.2 37 C0.2 35.6 0 32.1 0.3 29.9 C0.5 28.6 1 27.4 1.8 26.3 z M1.8 26.3 C1.6 26.8 1.5 27.3 1.4 27.8 C1.1 29.8 1.3 33.1 1.3 34.3 C1.9 33.6 2.4 32.8 2.9 32 C3 32.6 3.2 33 3.4 33.6 C3.1 36.6 3.7 39.4 5.7 41.7 C6.3 41 7.8 40.8 8.5 40.1 C8.5 41 8.7 41.8 8.7 42.7 C10.1 43.5 10.2 44.1 11.6 45 C11.8 44.2 12.8 43.6 13 42.7 C13.6 44.2 13.5 45.4 14.1 47 C14.4 46 15.6 45.6 15.9 44.6 C16.3 46.4 16.7 47.8 17 49.7 C17.6 48.4 18.3 47.6 18.8 46.3 C18.9 46.4 19 49 19.1 50.6 C20.3 51.5 20.7 52.3 21.9 53.2 C22.2 51.6 22.4 50.4 22.6 49.1 C23.2 49.8 23.8 50.5 24.4 51.2 C24.3 48.5 23.4 46.5 23.3 43.8 C22.9 40.7 22.7 38.4 23.3 29.3 C24.5 13.8 30.7 7.7 27.5 3.5 C25.5 0.8 23.7 1.1 22.5 1.2 C19.5 1.3 19.6 1.5 16.8 1.6 C18.1 2.2 18.6 3 19.9 3.5 C19.5 3.8 18.3 4 18 4.3 C15.6 5.1 13.6 5.7 12.1 7.7 C12.6 7.5 13.4 7.4 14 7.4 C13.6 7.9 12.5 9.4 12.1 9.8 C11.1 10.3 9.5 11.4 8.9 12.1 C8.3 12.7 7.5 13.3 7 14 C6.5 14.7 3.8 16.3 3 14.3 C2.7 17.1 3.8 17.4 4.1 17.6 C3.5 19.7 2.7 22.4 2.1 24.7 C2.5 24.5 2.7 24.4 3 24.3 C2.5 24.9 2.2 25.5 1.9 26.1 C1.9 26.1 2 26.1 2 26.1 C1.9 26.2 1.9 26.2 1.8 26.3 z" opacity="0.15" id="r1" /></g></g><g id="s1"><g transform="translate(107.1, 89.09997) translate(35, 23)" id="t1"><g id="u1"><path d="M37.5 66.1 C35.6 63 34.6 61.1 27.5 61.1 C20.4 61.1 20.5 63 18.5 66.1 C17.8 67.2 15.4 69 14.6 70.5 C19.1 72.1 21.5 73.3 27.3 73.2 C32.7 73.1 36.4 72 41.2 70.1 C40.1 68.4 38.1 67.1 37.5 66.1 z" id="v1" fill="#FAF4E7" /><path d="M50.6 46 C45.1 33.7 39 30 27.5 30 C16 30 9.9 33.8 4.4 46 C0.2 55.4 -0.9 65.6 0.8 68.7 C4 74.4 13 76.5 15.7 71.9 C16.6 70.4 17.2 68.7 17.7 67.1 C18.1 66.7 18.4 66.3 18.5 66.1 C20.4 63 20.4 61.1 27.5 61.1 C33.2 61.1 34.9 62.3 36.4 64.4 C37.3 66.8 37.9 69.5 39.3 71.9 C42 76.5 50.9 74.4 54.2 68.7 C55.9 65.6 54.8 55.4 50.6 46 z" id="w1" fill="#FFF" /><path d="M15.4 26.9 C20.4 24.7 22.2 21.1 24.1 16.1 C24.7 19.5 25.4 23.5 24.7 25.3 C22.9 29.9 18.8 29.5 16 31.5 C13.3 33.5 11.4 36.2 9.8 39.2 C9.7 38.7 8.8 39 8.3 39.6 C7.9 34.7 10.9 28.9 15.4 26.9 z" id="x1" fill="#FFF" /><path d="M39.6 26.9 C34.6 24.7 32.8 21.1 30.9 16.1 C30.3 19.5 29.6 23.5 30.3 25.3 C32.1 29.9 36.2 29.5 39 31.5 C41.7 33.5 43.6 36.2 45.2 39.2 C45.3 38.7 46.2 39 46.7 39.6 C47.1 34.7 44.1 28.9 39.6 26.9 z" id="y1" fill="#FFF" /><path d="M38 30 C34.3 27.5 31.9 27.9 30.9 25 C30.1 22.7 31.4 10.7 31.5 8.9 C32.3 0 27.5 0.5 27.5 0.5 C27.5 0.5 22.7 0 23.5 8.9 C23.7 10.7 24.9 22.8 24.1 25 C23.1 27.9 20.7 27.4 17 30 C13.8 32.2 10.7 34.8 9.6 37.9 C12.1 36.9 13.1 35.2 16.4 33.5 C19.3 32 21.6 30.6 27.6 30.6 C33.6 30.6 35.9 32 38.8 33.5 C42.1 35.2 43.1 36.9 45.6 37.9 C44.4 34.8 41.3 32.2 38 30 z" id="z1" fill="#FAF4E7" /><path d="M15.4 26.9 C20.4 24.7 22.2 21.1 24.1 16.1 C24.1 16.2 24.1 16.3 24.1 16.4 C23.9 13 23.6 9.8 23.5 8.9 C22.7 0 27.5 0.5 27.5 0.5 C27.5 0.5 32.3 0 31.5 8.9 C31.5 9.7 31.1 12.8 30.9 16.1 C32.8 21.1 34.6 24.7 39.6 26.9 C43.9 28.8 46.8 34.2 46.7 38.9 C48.1 40.9 49.4 43.2 50.6 46 C54.8 55.4 55.9 65.6 54.2 68.7 C50.9 74.4 42 76.5 39.3 71.9 C39.1 71.6 39 71.3 38.8 71 C35.1 72.3 31.8 73.1 27.3 73.2 C22.2 73.3 19.7 72.4 16.2 71.1 C16 71.3 15.9 71.6 15.7 71.9 C13 76.5 4 74.4 0.8 68.7 C-0.9 65.6 0.2 55.4 4.4 46 C5.6 43.2 6.9 40.9 8.3 39 C8.2 34.2 11.1 28.8 15.4 26.9 z M16 27.3 C12 29.1 9.2 34.3 9.3 38.9 C8 40.8 6.8 43 5.6 45.7 C1.7 54.8 0.6 64.6 2.2 67.6 C5.3 73.1 13.8 75.1 16.3 70.7 C16.5 70.4 16.7 70.1 16.8 69.8 C20.2 71.1 22.5 72 27.3 71.9 C31.5 71.8 34.7 71.1 38.2 69.8 C38.4 70.1 38.5 70.4 38.7 70.7 C41.2 75.1 49.6 73.1 52.8 67.6 C54.4 64.6 53.3 54.8 49.4 45.7 C48.2 43 47 40.8 45.7 38.9 C45.8 34.3 43 29.1 39 27.3 C34.2 25.2 32.1 21.4 30.3 16.6 C30.5 13.4 31.1 10.4 31.1 9.6 C31.9 1 27.4 1.1 27.4 1.1 C27.4 1.1 23.2 0.9 24 9.4 C24.1 10.3 24.5 12.7 24.7 16 C24.7 15.9 24 17.8 23.9 17.8 C22.1 22.6 20.8 25.2 16 27.3 z" opacity="0.15" id="a2" /><g transform="translate(8, 44)" id="b2" fill="#282421"><path d="M10.1 5.3 C9.4 4.9 8.4 5.5 8.3 6.4 C8.3 7.2 9.3 7.9 10 7.5 C10.7 7.1 10.9 6 10.2 5.5" id="c2" /><path d="M5.6 0.9 C4.9 0.5 3.9 1.1 3.8 2 C3.8 2.8 4.8 3.5 5.5 3.1 C6.2 2.7 6.4 1.6 5.7 1.1" id="d2" /><path d="M2.7 7.5 C2 7.1 1 7.7 0.9 8.6 C0.9 9.4 1.9 10.1 2.6 9.7 C3.3 9.3 3.5 8.2 2.8 7.7" id="e2" /><path d="M28.9 5.3 C29.6 4.9 30.6 5.5 30.7 6.4 C30.7 7.2 29.7 7.9 29 7.5 C28.3 7.1 28.1 6 28.8 5.5" id="f2" /><path d="M33.4 0.9 C34.1 0.5 35.1 1.1 35.2 2 C35.2 2.8 34.2 3.5 33.5 3.1 C32.8 2.7 32.6 1.6 33.3 1.1" id="g2" /><path d="M36.3 7.5 C37 7.1 38 7.7 38.1 8.6 C38.1 9.4 37.1 10.1 36.4 9.7 C35.7 9.3 35.5 8.2 36.2 7.7" id="h2" /></g></g></g><g transform="translate(169.6, 169.5) scale(1.5) translate(-169.6, -169.5) translate(102.8, 62.39997) translate(56, 101)" id="i2"><g id="j2"><path d="M16 5.1 L10.5 5.3 L5 5.1 C4.6 7.1 3.7 13.5 10.5 13.5 C17.3 13.5 16.3 7.1 16 5.1 z" id="k2" fill="#EF918F" /><path d="M20.7 3.6 C20.4 3.1 19.8 2.9 19.4 3.2 L19.3 3.2 C19.3 3.2 19.1 3.3 18.7 3.5 C18.5 3.6 18.3 3.7 18 3.8 C17.7 3.9 17.4 3.9 17 4 C16.3 4.1 15.4 4.1 14.3 4.1 C13.8 4.1 13.2 4 12.7 4 C12.3 4 11.8 4 11.4 3.9 L11.6 1.7 L11.6 1.6 C11.6 1 11.1 0.6 10.5 0.7 C9.9 0.7 9.5 1.2 9.6 1.8 L9.8 4.1 C9 4.1 8.2 4.1 7.5 4.2 C6.5 4.2 5.5 4.2 4.8 4.1 C4.1 4 3.5 3.8 3.1 3.7 C2.9 3.7 2.7 3.5 2.6 3.5 C2.5 3.4 2.4 3.4 2.4 3.4 C2 3.2 1.5 3.3 1.2 3.6 C0.8 4 0.8 4.6 1.2 5 C1.2 5 1.3 5.1 1.3 5.2 C1.4 5.3 1.5 5.4 1.8 5.7 C2.3 6.1 3.1 6.6 4.1 6.9 C5.1 7.2 6.2 7.4 7.4 7.4 C8.6 7.5 9.7 7.4 10.8 7.5 C11.4 7.5 11.9 7.5 12.5 7.5 C13.1 7.5 13.7 7.5 14.3 7.5 C14.9 7.5 15.5 7.4 16 7.3 C16.6 7.2 17.1 7.1 17.6 6.9 C18.6 6.6 19.3 6.1 19.8 5.7 C20 5.5 20.2 5.3 20.3 5.2 C20.4 5.1 20.5 5 20.5 5 C20.8 4.5 20.9 4 20.7 3.6 z" id="l2" fill="#332320" /></g></g><g transform="translate(102.6, 61.09998) translate(59, 84)" id="m2"><g id="n2"><path d="M14.8 1.5 C14 0 10.9 2 8 2 C5.1 2 2 0 1.2 1.5 C0.4 3 0.7 6.3 2.4 8.9 C3.6 10.7 8 10.9 8 10.9 C8 10.9 12.4 10.6 13.6 8.9 C15.3 6.3 15.6 3 14.8 1.5 z" id="o2" fill="#282421" /><path d="M9.3 3.5 C8.9 3.8 8.4 4.1 8.4 4.6 C8.4 5 8.8 5.3 9.1 5.4 C9.5 5.5 9.9 5.5 10.2 5.4 C11.1 5.3 12 5.2 12.6 4.7 C13.4 4 13.6 2.8 12.5 2.5 C11.6 2.2 10.1 3 9.3 3.5 z" id="p2" fill="#F5FAFC" /></g></g><g transform="translate(97.3, 68.49996) translate(44, 47)" id="q2"><g id="r2"><path d="M13 12.1 C10.4 11.1 7.2 11.3 4.8 12.7 C3.7 13.3 1.5 14.8 0.7 15.8 C-0.6 17.3 0.1 19.9 1.3 21.5 C2.5 23.1 4.3 24.2 6.3 24.5 C8.3 24.8 10.3 24.5 12.2 23.7 C14.5 22.8 16.7 21.1 17.2 18.6 C17.7 15.9 15.6 13.1 13 12.1 z" id="s2" fill="#474B4F" /><path d="M14.5 17.3 C14.2 16 13.5 13 10.2 13 C6.9 13 3.3 16.7 2 17.7 C2.7 19.6 5.4 21.2 7.8 21.5 C11.2 21.9 13.5 20.7 14.5 17.3 z" id="t2" fill="#282421" /><path d="M9.3 5.1 C8.7 4.7 8.1 4.2 7.9 3.5 C7.8 2.9 8.1 2.2 8.6 1.8 C10.3 0.1 12.2 0.2 13.1 0.1 C16.2 -0.1 16.9 2.6 16.4 5.2 C15.5 10.3 12.1 7 9.3 5.1 z" id="u2" fill="#342520" /><path d="M9.8 14.4 C9.4 14.3 7.5 14.9 7 15.2 C6.5 15.6 6.2 16.2 6.5 16.8 C6.7 17.3 7.3 17.5 7.9 17.4 C8.4 17.3 8.9 17.1 9.4 16.8 C10 16.4 10.8 15.9 10.7 15.2 C10.5 14.8 10.2 14.5 9.8 14.4 z" id="v2" fill="#F5FAFC" /></g></g><g transform="translate(107.9, 68.49996) translate(72, 47)" id="w2"><g id="x2"><path d="M5 12.1 C7.6 11.1 10.8 11.3 13.2 12.7 C14.3 13.3 16.5 14.8 17.3 15.8 C18.6 17.3 17.9 19.9 16.7 21.5 C15.5 23.1 13.7 24.2 11.7 24.5 C9.7 24.8 7.7 24.5 5.8 23.7 C3.5 22.8 1.3 21.1 0.8 18.6 C0.3 15.9 2.4 13.1 5 12.1 z" id="y2" fill="#474B4F" /><path d="M3.5 17.3 C3.8 16 4.5 13 7.8 13 C11.1 13 14.7 16.7 16 17.7 C15.3 19.6 12.6 21.2 10.2 21.5 C6.8 21.9 4.5 20.7 3.5 17.3 z" id="z2" fill="#282421" /><path d="M10.4 15.2 C10.1 14.9 8.4 14.3 7.8 14.3 C7.2 14.3 6.6 14.6 6.5 15.2 C6.4 15.7 6.7 16.2 7.2 16.4 C7.6 16.7 8.1 16.7 8.6 16.8 C9.3 16.9 10.1 16.9 10.5 16.3 C10.7 15.9 10.7 15.5 10.4 15.2 z" id="a3" fill="#F5FAFC" /><path d="M8.7 5.1 C9.3 4.7 9.9 4.2 10.1 3.5 C10.2 2.9 9.9 2.2 9.4 1.8 C7.7 0.1 5.8 0.2 4.9 0.1 C1.8 -0.1 1.1 2.6 1.6 5.2 C2.5 10.3 5.9 7 8.7 5.1 z" id="b3" fill="#342520" /></g></g></g></g></g></g><defs><g transform="translate(17.09519, 0.800995) translate(-135.2952, -293.601)" id="c3" fill="#000"><path d="M118.2 302.7 C118.4 307.4 132.5 311.2 149.8 311.2 C167.1 311.2 181.2 307.4 181.4 302.7 C181.4 307.5 181.4 310.1 181.4 310.5 C181.4 315.3 167.3 319.1 149.8 319.1 C132.3 319.1 118.2 315.2 118.2 310.5 L118.2 302.7 L118.2 302.7 z" fill-opacity="0.4528" id="d3" fill="#593001" /><path d="M118.7 301.7 C118.9 306.4 133 310.2 150.3 310.2 C167.6 310.2 181.7 306.4 181.9 301.7 C181.9 306.5 181.9 309.1 181.9 309.5 C181.9 314.3 167.8 318.1 150.3 318.1 C132.8 318.1 118.7 314.2 118.7 309.5 L118.7 301.7 L118.7 301.7 z" id="e3" fill="#DA8113" /><linearGradient x1="46.0545" y1="-118.6926" x2="45.4656" y2="-118.6926" gradientUnits="userSpaceOnUse" gradientTransform="matrix(117.135, 0, 0, 28.4634, -5208.417, 3687.795)" id="f3"><stop offset="0%" stop-color="#D9952A" stop-opacity="1" /><stop offset="6.438854%" stop-color="#CA7519" stop-opacity="1" /><stop offset="30.54%" stop-color="#E3AD3A" stop-opacity="1" /><stop offset="51.05%" stop-color="#FFEC91" stop-opacity="1" /><stop offset="68.8%" stop-color="#E9BD44" stop-opacity="1" /><stop offset="86.24%" stop-color="#FFED6C" stop-opacity="1" /><stop offset="93.87%" stop-color="#F2D353" stop-opacity="1" /><stop offset="100%" stop-color="#F2B947" stop-opacity="1" /></linearGradient><path d="M118.2 301.6 C118.4 306.1 132.7 309.7 150.3 309.7 C167.9 309.7 182.2 306.1 182.4 301.6 C182.4 306.2 182.4 308.7 182.4 309 C182.4 313.5 168 317.2 150.3 317.2 C132.6 317.2 118.2 313.5 118.2 309 L118.2 301.6 L118.2 301.6 z" id="g3" style="fill:url(#f3)" /><linearGradient x1="45.4914" y1="-117.9547" x2="45.9407" y2="-117.5895" gradientUnits="userSpaceOnUse" gradientTransform="matrix(115.425, 0, 0, 29.925, -5125.077, 3826.124)" id="h3"><stop offset="0%" stop-color="#F4E072" stop-opacity="1" /><stop offset="100%" stop-color="#DB9427" stop-opacity="1" /></linearGradient><ellipse cx="150.3" cy="301.5" rx="31.6" ry="8.2" id="i3" style="fill:url(#h3)" /><linearGradient x1="45.4656" y1="-126.0065" x2="46.0545" y2="-126.0065" gradientUnits="userSpaceOnUse" gradientTransform="matrix(117.135, 0, 0, 18.6219, -5208.417, 2651.479)" id="j3"><stop offset="0%" stop-color="#D9952A" stop-opacity="1" /><stop offset="6.438854%" stop-color="#CA7519" stop-opacity="1" /><stop offset="30.54%" stop-color="#E3AD3A" stop-opacity="1" /><stop offset="51.05%" stop-color="#FFEC91" stop-opacity="1" /><stop offset="68.8%" stop-color="#E9BD44" stop-opacity="1" /><stop offset="86.24%" stop-color="#FFED6C" stop-opacity="1" /><stop offset="93.87%" stop-color="#F2D353" stop-opacity="1" /><stop offset="100%" stop-color="#F2B947" stop-opacity="1" /></linearGradient><path d="M119.2 299.9 C119 300.2 118.9 300.6 118.9 301 C118.9 305.5 132.9 309.2 150.3 309.2 C167.7 309.2 181.7 305.5 181.7 301 C181.7 300.6 181.6 300.3 181.4 299.9 C182 300.5 182.4 301.2 182.4 301.9 C182.4 306.4 168 310.1 150.3 310.1 C132.6 310.1 118.2 306.4 118.2 301.9 C118.2 301.3 118.6 300.6 119.2 299.9 z" id="k3" style="fill:url(#j3)" /><linearGradient x1="45.196" y1="-121.5895" x2="45.3746" y2="-120.6758" gradientUnits="userSpaceOnUse" gradientTransform="matrix(101.745, 0, 0, 23.94, -4458.332, 3199.41)" id="l3"><stop offset="0%" stop-color="#F8DD61" stop-opacity="1" /><stop offset="100%" stop-color="#EAA330" stop-opacity="1" /></linearGradient><ellipse cx="150.3" cy="300.8" rx="27.8" ry="6.6" id="m3" style="fill:url(#l3)" /><linearGradient x1="45.5694" y1="-134.267" x2="45.0221" y2="-134.267" gradientUnits="userSpaceOnUse" gradientTransform="matrix(101.745, 0, 0, 13.2525, -4458.332, 2077.223)" id="n3"><stop offset="0%" stop-color="#F4CA2F" stop-opacity="1" /><stop offset="51.38%" stop-color="#BF7737" stop-opacity="1" /><stop offset="100%" stop-color="#E4A929" stop-opacity="1" /></linearGradient><path d="M122.6 301.5 C122.5 301.3 122.4 301 122.4 300.8 C122.4 297.2 134.9 294.2 150.2 294.2 C165.5 294.2 178 297.1 178 300.8 C178 301 177.9 301.3 177.8 301.5 C176.3 298.2 164.5 295.6 150.1 295.6 C135.7 295.6 124.1 298.2 122.6 301.5 z" id="o3" style="fill:url(#n3)" /></g></defs><desc>HBHCBKGFJJB,Cyjig6eLoMXKwNA5V8X1/xBFkA8mm9OVLl7h3mAWa+p2GVQkjFfL4yiHyP6ovv+gzobZUbHHG2BOAoCMHxtR7il3uycIm0HW0KyWheTyqoY=</desc></svg>