<?xml version="1.0" encoding="utf-8"?><!DOCTYPE svg PUBLIC "-//W3C//DTD SVG 1.1//EN" "http://www.w3.org/Graphics/SVG/1.1/DTD/svg11.dtd"><svg x="0" y="0" width="340px" height="340px" viewBox="0, 0, 340, 340" preserveAspectRatio="xMidYMid" font-size="0" id="a" enable-background="new 0 0 340 340" xmlns="http://www.w3.org/2000/svg" xmlns:xlink="http://www.w3.org/1999/xlink" xmlns:xml="http://www.w3.org/XML/1998/namespace" version="1.1"><g id="b" fill="#000"><g id="c"><g transform="translate(0, 0) translate(0, 224)" id="d"><ellipse cx="168.6" cy="53.1" rx="57.8" ry="12.8" fill-opacity="0.25" id="e" /></g><g id="f"><g transform="translate(101.5, 74.79997) translate(20.5, 139.5) scale(-1, 1) translate(-20.5, -139.5) translate(0, 122)" id="g"><g id="h"><path d="M28.3 1.5 C38.6 0.6 40.4 9.4 40.6 11.6 C39.9 11.2 39.2 10.8 38.5 10.4 C39.3 12.6 39.7 15.1 39.7 17.8 C38.6 16.4 36.7 14.8 34.9 13.9 C35.7 15.2 36.5 16.5 37.4 17 C35.4 17.6 34.6 18.2 31 17.7 C28.6 17.4 27.5 17.8 24.4 18.3 C23.8 18.4 19.5 10.8 21.8 5.7 C23.2 3.5 27.3 1.5 28.3 1.5 z" id="i" fill="#EFE9E6" /><path d="M6 15 C9.4 15.8 13.3 15.1 15.9 12.7 C16.5 12.2 17 11.5 17.6 10.9 C19.7 7.6 21.8 4.2 23.8 0.9 C23.8 1.7 23.7 2.5 23.6 3.2 C25 2.2 26.5 1.5 28.3 1.3 C25.8 4 23.8 7.1 22.4 10.5 C22.8 10.5 23.3 10.4 23.8 10.3 C24.8 10 26.6 9.5 27.4 8.4 C27.4 10.5 26.9 11.4 26.2 12.1 C28.3 11.9 30.4 12.2 32.4 13 C29.6 13.4 27.8 16.2 25.4 17.6 C25.5 17.6 28.8 17 30.9 17.9 C31 18.1 31.1 18.4 31.2 18.6 C32.2 21 32.3 23.7 31.5 26.1 C30.7 24.4 29.5 22.8 28.1 21.5 C28.6 25.5 27.5 29.7 25.6 32.8 C25.4 29.1 25.6 25.3 21.5 23.8 C23.2 26.6 21.3 31.3 20.7 34.1 C20.5 31.6 20.2 29.1 19.1 26.8 C16.2 20.4 14.9 21 9.6 21.6 C6.3 21.9 1.1 21 1 18.4 C0.9 15.8 4.2 14.6 6 15 z" id="j" fill="#32363A" /><path d="M30 17.6 C30.3 17.7 30.6 17.8 30.9 17.9 C31 18.1 31.1 18.4 31.2 18.6 C32.2 21 32.3 23.7 31.5 26.1 C30.7 24.4 29.5 22.8 28.1 21.5 C28.6 25.5 27.5 29.7 25.6 32.8 C25.4 29.1 25.6 25.3 21.5 23.8 C23.2 26.6 21.3 31.3 20.7 34.1 C20.5 31.6 20.2 29.1 19.1 26.8 C16.2 20.4 14.9 21 9.6 21.6 C6.3 21.9 1.1 21 1 18.4 C0.9 15.8 4.2 14.6 6 15 C9.4 15.8 13.3 15.1 15.9 12.7 C16.5 12.2 17 11.5 17.6 10.9 C19.7 7.6 21.8 4.2 23.8 0.9 C23.8 1.7 23.7 2.5 23.6 3.2 C25 2.2 26.5 1.5 28.3 1.3 C28.2 1.4 28.2 1.4 28.1 1.5 C28.2 1.5 28.2 1.5 28.3 1.5 C38.6 0.6 40.4 9.4 40.6 11.6 L38.5 10.4 C39.3 12.6 39.7 15.1 39.7 17.8 C38.6 16.4 36.7 14.8 34.9 13.9 C35.7 15.2 36.5 16.5 37.4 17 C35.4 17.6 34.6 18.2 31 17.7 C30.6 17.7 30.3 17.6 30 17.6 z M29.8 16.1 C29.5 16 33.3 16.9 35.1 16.4 C34.3 15.9 34.1 13.3 33.3 12.1 C35 12.9 37.9 14.3 38.9 15.6 C38.9 13.2 38.2 10.6 37.5 8.7 L39.8 10 C39.7 8.1 37 1.6 27.7 2.4 C27.6 2.4 28.5 2 28.4 2 C28.5 1.9 28.5 1.9 28.6 1.8 C27 2 24.4 4.3 23.2 5.2 C23.2 4.6 23.2 3.4 23.2 2.7 C21.3 5.6 20.8 7.4 18.9 10.3 C18.4 10.9 17.9 11.5 17.4 11.9 C15 14.1 11 16.9 7.9 16.2 C6.2 15.8 2.7 15.8 2.8 18.1 C2.9 20.4 8.7 20.1 11.6 19.8 C16.5 19.3 16.6 18.2 19.2 23.9 C20.2 25.9 20.7 26.4 20.8 28.6 C21.4 26.1 21.2 24.2 19.7 21.7 C23.4 23 25.9 24.9 26.1 28.2 C27.8 25.5 26.9 22.7 26.5 19.2 C27.8 20.3 30.3 21.7 31.1 23.2 C31.8 21.1 30 19.5 29.1 17.3 C29 17.2 29.8 16.3 29.8 16.1 z" opacity="0.15" id="k" /></g></g><g transform="translate(129.64, 270.3) scale(0.8724833) translate(-126.2, -270.3) translate(90, 82.89996) translate(29, 124)" id="l"><g transform="translate(24, 34) scale(-1, 1) translate(-24, -34)" id="m"><path d="M1 25.2 C1 9.7 33.1 -7.2 43.6 2.4 C52.6 10.7 44.9 29.8 43.6 31.6 C42.7 32.8 39.4 39.1 33.8 50.4 C41.1 53.1 44.6 56.3 44.6 60 C44.6 61.7 44.6 64 42.9 65.3 C41.6 66.3 15.5 67.3 14.1 64.5 C15.9 40.5 1 40.8 1 25.2 z" id="n" fill="#AA6F4F" /><path d="M1 25.2 C1 9.7 33.1 -7.2 43.6 2.4 C52.6 10.7 44.9 29.8 43.6 31.6 C42.7 32.8 39.4 39.1 33.8 50.4 C41.1 53.1 44.6 56.3 44.6 60 C44.6 61.7 44.6 64 42.9 65.3 C41.6 66.3 15.5 67.3 14.1 64.5 C15.9 40.5 1 40.8 1 25.2 z M2.3 24.6 C2.3 39.3 17.6 39 15.9 61.7 C17.2 64.3 40.8 63.5 41.9 62.5 C43.5 61.3 42.6 60.9 42.6 59.3 C42.6 55.7 38.2 53.9 31.4 51.3 C36.8 40.6 42.5 31.5 43.7 28.5 C45 25.3 51.2 10.8 42.6 2.9 C32.6 -6 2.3 10 2.3 24.6 z" opacity="0.15" id="o" /></g></g><g transform="translate(207.66, 270.3) scale(0.8724833) translate(-211.1, -270.3) translate(90.4, 82.89996) translate(104, 157.5) scale(-1, 1) translate(-104, -157.5) translate(79, 123)" id="p"><g id="q"><path d="M50.1 26.5 C50.1 11 24.7 -9.5 6.1 3.3 C-2.9 11.6 4.8 30.7 6.1 32.5 C7 33.7 10.3 40 15.9 51.3 C8.7 54.1 5.1 57.3 5.1 61 C5.1 62.7 5.1 65 6.8 66.3 C8.1 67.3 32.6 67.7 34 64.9 C37.5 37.2 50.1 42.1 50.1 26.5 z" id="r" fill="#AA6F4F" /><path d="M50.1 26.5 C50.1 42.1 37.5 37.1 34 64.9 C32.6 67.7 8.1 67.3 6.8 66.3 C5.1 65 5.1 62.7 5.1 61 C5.1 57.2 8.7 54 15.9 51.4 C10.3 40 7 33.8 6.1 32.6 C4.8 30.8 -2.9 11.7 6.1 3.4 C24.7 -9.5 50.1 11 50.1 26.5 z M48.5 25.9 C48.5 11.4 24.4 -8.6 7 3.4 C-1.4 11.3 4.3 25.2 6.1 29.3 C7.9 33.4 13 41.2 18.4 51.9 C11.6 54.4 7.1 57.4 7.1 59.4 C7.1 61 6.6 62 8.1 63.2 C9.3 64.2 30.8 64.6 32.1 62 C35.3 36 48.5 40.5 48.5 25.9 z" opacity="0.15" id="s" /></g></g><g transform="translate(101.5, 74.79997) translate(25, 82)" id="t"><path d="M75.6 28.2 C72 20 73.4 11 71.2 5.7 C68.7 -0.3 56.9 0.4 42.1 0.4 C27.3 0.4 15.4 -0.2 13 5.7 C10.8 11 12.2 20 8.6 28.2 C4.8 36.7 7 39.4 6.3 52.6 C5.3 70.2 10.4 92.1 16.5 111.3 C18.2 116.8 22.2 118.4 25.8 119.2 C32.4 120.6 38.3 121 42.1 120.9 C46 121 51.9 120.6 58.4 119.2 C62 118.4 66 116.8 67.7 111.3 C72.7 95.6 77 78.1 77.8 62.6 C78 59.2 79.3 36.7 75.6 28.2 z" id="u" fill="#EBB67F" /><path d="M75.6 28.2 C79.3 36.7 78 59.2 77.8 62.6 C77 78.1 72.7 95.6 67.7 111.3 C66 116.8 62 118.4 58.4 119.2 C51.9 120.6 46 121 42.1 120.9 L42.1 120.8 L42.1 120.9 C38.3 121 32.4 120.6 25.8 119.2 C22.2 118.4 18.2 116.8 16.5 111.3 C10.4 92.1 5.3 70.2 6.3 52.6 C7 39.4 4.8 36.7 8.6 28.2 C12.2 20 10.8 11 13 5.7 C15.4 -0.2 27.3 0.4 42.1 0.4 C56.9 0.4 68.7 -0.3 71.2 5.7 C73.4 11 72 20 75.6 28.2 z M74.1 27.9 C70.7 20 72 11.3 69.9 6.2 C67.5 0.4 56.2 1.1 42.1 1.1 C28 1.1 16.6 0.5 14.3 6.2 C12.2 11.3 13.5 20 10.1 27.9 C6.5 36.1 8.6 38.7 7.9 51.4 C6.9 68.4 11.8 89.6 17.6 108.1 C19.3 113.4 23.1 114.9 26.5 115.7 C32.8 117.1 38.5 117.5 42.1 117.4 C45.8 117.5 51.5 117.1 57.7 115.7 C61.1 114.9 64.9 113.4 66.6 108.1 C71.4 92.9 75.5 76.1 76.2 61.1 C76.4 57.8 77.7 36.1 74.1 27.9 z" opacity="0.15" id="v" /></g><g transform="translate(131.67, 171.43) scale(1.1, 1.458701) translate(-135, -179) translate(102.3, 70.39996) translate(66, 147) scale(-1, 1) translate(-66, -147) translate(32, 108)" id="w"><path d="M58 67.2 C54.9 66.3 50.1 67.4 47.5 69.2 C46.3 70.1 43.1 73.1 44.9 74.9 C46.8 76.8 51.7 77.5 53.9 77.5 C56.6 77.6 62 76.9 64 73.6 C65.4 71.5 61.9 68.4 58 67.2 z" id="x" fill="#C6A67D" /><path d="M9.2 67.2 C12.3 66.3 17.1 67.4 19.7 69.2 C20.9 70.1 24.1 73.1 22.3 74.9 C20.4 76.8 15.5 77.5 13.3 77.5 C10.6 77.6 5.2 76.9 3.2 73.6 C1.8 71.5 5.3 68.4 9.2 67.2 z" id="y" fill="#C6A67D" /><path d="M58 67.2 C54.9 66.3 50.1 67.4 47.5 69.2 C46.3 70.1 43.1 73.1 44.9 74.9 C46.8 76.8 51.7 77.5 53.9 77.5 C56.6 77.6 62 76.9 64 73.6 C65.4 71.5 61.9 68.4 58 67.2 z" opacity="0.15" id="z" /><path d="M9.2 67.2 C12.3 66.3 17.1 67.4 19.7 69.2 C20.9 70.1 24.1 73.1 22.3 74.9 C20.4 76.8 15.5 77.5 13.3 77.5 C10.6 77.6 5.2 76.9 3.2 73.6 C1.8 71.5 5.3 68.4 9.2 67.2 z" opacity="0.15" id="a1" /><path d="M57.6 65.7 C54.8 64.9 50.5 65.9 48.2 67.5 C47.1 68.3 44.3 71 45.9 72.6 C47.6 74.3 52 74.9 54 74.9 C56.4 75 61.2 74.4 63 71.4 C64.2 69.6 61.1 66.8 57.6 65.7 z" opacity="0.15" id="b1" /><path d="M9.4 64.2 C12.3 63.3 16.9 64.4 19.3 66.2 C20.4 67.1 23.5 70.1 21.8 71.9 C20 73.8 15.4 74.5 13.3 74.5 C10.8 74.6 5.7 73.9 3.8 70.6 C2.4 68.5 5.7 65.4 9.4 64.2 z" opacity="0.15" id="c1" /><path d="M2.6 66.8 C2.1 65.9 1.5 64.7 1.2 64.1 C2.9 62.5 5.8 58.5 6.5 53.5 C8 41.8 9.8 28.1 12.5 23.9 C18 15.1 28.4 24.8 33.7 24.8 C39 24.8 49.4 15.2 54.9 23.9 C57.6 28.2 59.4 41.8 60.9 53.5 C61.6 59.1 64.5 62.5 66.2 64.1 C65.9 64.7 65.2 65.9 64.8 66.8 C65.6 68.3 66.4 69.8 67.3 71.6 C65.9 71.7 65 71.6 64.2 71.3 C63.8 70.6 63.2 69.9 62.3 69.3 C61.9 70.2 61.5 71.4 61 72.7 C59.4 70.5 57.3 69.6 56.1 67.7 C54.9 69.8 52.8 71.8 51.6 73.4 C50.5 73.3 49.3 73.2 48.2 73.2 C48.4 72.7 48.6 72.3 48.8 71.8 C47.4 72.2 45.6 74.5 41.3 73.6 C42.1 73.1 42.5 71.7 42.9 69.8 C41.9 70.5 40.9 71 39.8 71.3 C42.4 67.3 44.4 63.4 44.7 58.6 C45.2 49.9 45.2 46 34 45.7 C22.8 46 22.8 49.9 23.3 58.6 C23.6 63.4 25.6 67.3 28.2 71.3 C27.1 71 26 70.4 25.1 69.8 C25.5 71.7 25.9 73.1 26.7 73.6 C23.3 74.6 20.5 72.2 19.2 71.8 C19.4 72.3 19.6 72.7 19.8 73.2 C18.7 73.3 17.5 73.4 16.4 73.4 C15.2 71.7 13 69.8 11.9 67.7 C10.7 69.6 8.7 70.5 7 72.7 C6.5 71.3 6 70.2 5.7 69.3 C4.9 69.9 4.2 70.6 3.8 71.3 C3 71.6 2.1 71.7 0.7 71.6 C1 69.8 1.9 68.3 2.6 66.8 z" id="d1" fill="#F9F9F9" /><path d="M2.6 66.8 C2.1 65.9 1.5 64.7 1.2 64.1 C2.9 62.5 5.8 58.5 6.5 53.5 C8 41.8 9.8 28.1 12.5 23.9 C18 15.1 28.4 24.8 33.7 24.8 C39 24.8 49.4 15.2 54.9 23.9 C57.6 28.2 59.4 41.8 60.9 53.5 C61.6 59.1 64.5 62.5 66.2 64.1 C65.9 64.7 65.2 65.9 64.8 66.8 C65.6 68.3 66.4 69.8 67.3 71.6 C65.9 71.7 65 71.6 64.2 71.3 C63.8 70.6 63.2 69.9 62.3 69.3 C61.9 70.2 61.5 71.4 61 72.7 C59.4 70.5 57.3 69.6 56.1 67.7 C54.9 69.8 52.8 71.8 51.6 73.4 C50.5 73.3 49.3 73.2 48.2 73.2 C48.4 72.7 48.6 72.3 48.8 71.8 C47.4 72.2 45.6 74.5 41.3 73.6 C42.1 73.1 42.5 71.7 42.9 69.8 C41.9 70.5 40.9 71 39.8 71.3 C42.4 67.3 44.4 63.4 44.7 58.6 C45.2 49.9 45.2 46 34 45.7 C22.8 46 22.8 49.9 23.3 58.6 C23.6 63.4 25.6 67.3 28.2 71.3 C27.1 71 26 70.4 25.1 69.8 C25.5 71.7 25.9 73.1 26.7 73.6 C23.3 74.6 20.5 72.2 19.2 71.8 C19.4 72.3 19.6 72.7 19.8 73.2 C18.7 73.3 17.5 73.4 16.4 73.4 C15.2 71.7 13 69.8 11.9 67.7 C10.7 69.6 8.7 70.5 7 72.7 C6.5 71.3 6 70.2 5.7 69.3 C4.9 69.9 4.2 70.6 3.8 71.3 C3 71.6 2.1 71.7 0.7 71.6 C1 69.8 1.9 68.3 2.6 66.8 z M4.6 65.4 C4 66.8 3.4 67 3.2 68.7 C4.5 68.8 4.9 68 5.6 67.7 C6 67.1 6.5 67 7.2 66.4 C7.5 67.2 7 68.3 7.5 69.6 C9 67.6 10.6 66.8 11.7 65.1 C12.7 67 15.5 69.2 16.6 70.8 C17.6 70.8 18.2 70.9 19.2 70.8 C19 70.3 20.2 69.6 20 69.2 C21.2 69.6 21.3 73.6 24.4 72.6 C23.7 72.1 23.7 70 23.4 68.3 C24.2 68.8 24.6 68.7 25.6 69 C23.2 65.4 22.3 58.4 22 54.1 C21.5 46.2 24.8 44.7 35.1 44.4 C45.3 44.7 46.5 49.5 46.1 57.4 C45.8 61.8 44.5 65.4 42.1 69 C43.1 68.7 43.6 68.9 44.5 68.3 C44 70 44 71.7 43.2 72.2 C47.1 73 47.1 69.3 48.3 69 C48.1 69.5 49.5 70.4 49.3 70.8 C50.3 70.8 51 70.3 52 70.4 C53.1 68.9 54.2 66.5 55.3 64.6 C56.4 66.3 57.4 68 58.9 70 C59.4 68.8 59.7 67.7 60.1 66.9 C60.9 67.4 62 67.6 62.4 68.3 C63.1 68.6 63.4 69.1 64.7 69 C63.9 67.4 63.2 66 62.4 64.6 C62.8 63.8 63.3 63.7 63.6 63.2 C62.1 61.7 59.5 57.6 58.9 52.5 C57.5 41.8 55.9 29.4 53.4 25.5 C48.4 17.6 38.9 26.3 34.1 26.3 C29.3 26.3 19.8 17.5 14.8 25.5 C12.3 29.3 10.7 41.8 9.3 52.5 C8.6 57 5 62 3.5 63.5 C3.8 64 4.2 64.6 4.6 65.4 z" opacity="0.15" id="e1" /><path d="M4.1 23.4 C4.4 21.6 4.9 19.8 5.3 18.1 C6.4 13.9 10.3 8 13.2 5.9 C20.9 0.6 28.6 1 33.8 1 C39 1 46.3 0.6 54 5.9 C57 7.9 60.8 13.9 61.9 18.1 C62.4 19.8 62.8 21.6 63.1 23.4 C64 26.4 65.8 41.9 66 43.5 C65.6 45.4 63.8 46.4 62.1 47.4 C61.9 46.8 61.5 44.8 61.1 42.9 C60.5 44.6 60 46.3 59.5 48.4 C58.3 47.1 56.5 43.6 55.3 42.3 C56.1 46.2 52.5 50.3 48.6 50 C48.4 47.8 48.3 45.5 48.1 43.3 C46.9 44.8 45.7 46.3 44.5 47.9 C44.6 46.6 44.5 44.8 44 43.6 C42.4 39.6 36.6 38.2 33.4 38.2 C30.2 38.2 24.1 38.8 22.8 43.6 C22.4 44.9 22.3 46.6 22.4 47.9 C21.2 46.4 20 44.9 18.8 43.3 C18.6 45.5 18.5 47.8 18.3 50 C14.3 50.3 10.7 46.1 11.6 42.3 C10.4 43.6 8.6 47.1 7.4 48.4 C6.9 46.4 6.4 44.6 5.8 42.9 C5.4 44.9 5.1 46.9 4.8 47.4 C3.1 46.5 1.3 45.4 0.9 43.5 C1.4 42 3.1 26.4 4.1 23.4 z" id="f1" fill="#66493D" /><path d="M4.1 23.4 C4.4 21.6 4.9 19.8 5.3 18.1 C6.4 13.9 10.3 8 13.2 5.9 C20.9 0.6 28.6 1 33.8 1 C39 1 46.3 0.6 54 5.9 C57 7.9 60.8 13.9 61.9 18.1 C62.4 19.8 62.8 21.6 63.1 23.4 C64 26.4 65.8 41.9 66 43.5 C65.6 45.4 63.8 46.4 62.1 47.4 C61.9 46.8 61.5 44.8 61.1 42.9 C60.5 44.6 60 46.3 59.5 48.4 C58.3 47.1 56.5 43.6 55.3 42.3 C56.1 46.2 52.5 50.3 48.6 50 C48.4 47.8 48.3 45.5 48.1 43.3 C46.9 44.8 45.7 46.3 44.5 47.9 C44.6 46.6 44.5 44.8 44 43.6 C42.4 39.6 36.6 38.2 33.4 38.2 C30.2 38.2 24.1 38.8 22.8 43.6 C22.4 44.9 22.3 46.6 22.4 47.9 C21.2 46.4 20 44.9 18.8 43.3 C18.6 45.5 18.5 47.8 18.3 50 C14.3 50.3 10.7 46.1 11.6 42.3 C10.4 43.6 8.6 47.1 7.4 48.4 C6.9 46.4 6.4 44.6 5.8 42.9 C5.4 44.9 5.1 46.9 4.8 47.4 C3.1 46.5 1.3 45.4 0.9 43.5 C1.4 42 3.1 26.4 4.1 23.4 z M6.5 22.6 C5.2 25.1 2.9 39 2.5 40.5 C2.9 42.2 2.5 43.8 4.1 44.6 C4.4 44.1 5 41.3 5.4 39.5 C6 41.1 7.5 42.8 8 44.6 C9.1 43.4 11.2 40.7 12.3 39.5 C11.5 43 13.2 47.3 16.9 47 C17.1 45 17.5 41.9 17.7 39.9 C18.8 41.4 20.4 43.2 21.5 44.6 C21.4 43.4 22.3 41.1 22.7 39.9 C23.9 35.5 30.5 36.1 33.5 36.1 C36.5 36.1 41.8 36.2 43.3 39.9 C43.8 41 45.8 43.4 45.7 44.6 C46.8 43.1 48.2 41.3 49.3 39.9 C49.5 41.9 49.8 45.5 50 47.5 C53.6 47.8 54.9 42.4 54.2 38.8 C55.3 40 57.9 43.7 59 44.9 C59.5 43 60 40.8 60.5 39.2 C60.9 40.9 62.3 42.8 62.5 43.4 C64.1 42.5 63.8 42.2 64.2 40.5 C64 39 61.6 25.3 60.8 22.6 C60.5 20.9 60.2 19.3 59.7 17.7 C58.7 13.8 55.2 8.3 52.4 6.5 C45.2 1.6 38.5 2 33.8 2 C29.1 2 21.9 1.6 14.9 6.5 C12.2 8.4 8.7 13.8 7.6 17.7 C7.2 19.3 6.8 20.9 6.5 22.6 z" opacity="0.15" id="g1" /></g></g><g transform="translate(168.5, 181.5) scale(0.921748) translate(-168.5, -181.5)" id="h1"><g transform="translate(-287.2, 57.29997) translate(18, 27)" id="i1"><g id="j1"><path d="M395.9 33 C395.5 43 395.1 49.9 394.5 53.9 C392.6 68.8 389.8 77.4 388.2 79.4 C386 82.2 384.5 84.4 383.6 85.8 L390.6 84.8 L388.2 91.5 L393 88 C405.9 96.6 414.5 102 419 104.2 C424.2 106.7 430 107.6 432.1 107.8 C436.9 108.3 440.6 108.3 443.1 107.8 C454.1 104.1 461.6 101.1 465.8 99 C470 96.8 474.9 92.8 480.4 87 L486.6 88 L485.3 83.4 C484 80.4 483.4 78.7 483.6 78.2 C483.7 77.7 486.1 77.7 490.8 78.2 L483.6 67.4 C481.3 59.8 480 54.4 479.7 51.2 C479.4 48 479.2 42.6 478.9 35 C478.1 31.4 476.5 29 474.3 27.9 C472 26.7 470.5 28.1 469.8 31.9 L474.3 80.3 L449.4 98.8 L431.4 98.8 C415.7 92.4 407.4 89.2 406.5 89.2 C405.6 89.2 403.5 85.1 400 76.9 L405 27.8 C402.5 26.5 400.8 26.2 399.7 26.8 C398.6 27.6 397.3 29.6 395.9 33 z" id="k1" fill="#AA6F4F" /><path d="M425.8 7.7 L398.5 28.5 C399.7 37.8 399.7 47 398.5 56.1 C397.3 65.3 395.9 72.4 394.3 77.4 L392.5 80.6 L397.1 78.7 L394.4 82.3 L398.6 82.3 C407.9 91.9 413.9 97.4 416.6 98.8 C420.6 100.9 425.4 104.7 431.2 106 C437 107.3 444.5 107.4 457.8 98.8 C466.7 93.1 473.3 86.6 477.5 79.4 L481.9 82.3 L479.2 72.9 L483.8 75.9 L479.2 68.3 C478 60.9 477.4 55.9 477.2 53.3 C476.6 42.9 476.2 38.6 476.2 36.4 C476.2 33.5 467.9 23.9 451.2 7.9 L425.8 7.9 L425.8 7.7 z" id="l1" fill="#EBB67F" /><path d="M477 36.3 C477 30.4 478.2 31.3 473.5 26.1 C466.5 18.5 452.3 8.8 451.1 7.7 C449 5.8 427.2 6.4 425.6 7.1 C423.9 7.9 398.9 25.7 397.9 28.7 C396.9 31.7 399.5 43.2 398.9 50.5 C400.9 50.9 403 51.1 404.9 49.8 C406.8 48.5 409 44.9 411 45.8 C413.9 47.1 413.8 66.8 422.1 68.1 C425.2 68.6 432.7 56.3 437.5 56.2 C441 56 448.4 68.7 451 68 C461 65.2 465.3 45.6 468.4 48.3 C471.9 51.3 473.4 52 476.5 48.3 C477 47.8 477 42.1 477 36.3 z" id="m1" fill="#AA6F4F" /><path d="M405.7 49.1 C405.8 50.4 416.2 71.4 418.3 80.1 C420.4 88.8 420 101.4 436.2 100.8 C452.4 100.2 453 99.1 456.8 80.1 C460.6 61.1 468.6 50.2 468.5 48.7 C468.4 47.2 467 46.4 463.2 42.7 C459.5 39.1 456.4 31.4 450.2 31.3 C445.7 31 436.5 40.9 447.9 54.4 C448.6 55.1 454 65.1 452.2 65.9 C450.4 65.9 448.9 63.2 446.5 60.8 C445.3 59.6 442.6 58.1 441.6 56.7 C438.4 52.1 439.4 26.8 438 26.8 C436.5 26.7 435.1 52.6 433.7 56.7 C433 58.9 431.1 59.2 429.4 60.8 C426.8 63.2 424.2 66.2 423 65.9 C421.5 65.7 423.9 57.6 426.6 55.7 C434.5 48.9 431.5 31.4 426.6 31.4 C421 29.9 417.4 36.5 414.1 40.2 C410.7 43.9 405.5 47.8 405.7 49.1 z" id="n1" fill="#EBB67F" /><path d="M397.6 29.4 C397.6 29.1 397.7 28.9 397.8 28.7 C398.8 25.7 423.8 7.9 425.5 7.1 C427.2 6.4 449 5.8 451 7.7 C452.2 8.8 466.4 18.5 473.4 26.1 C475.2 28.1 476.1 29.2 476.6 30.1 C477.6 31.4 478.3 33.1 478.8 35.2 C479.1 42.8 479.3 48.2 479.6 51.4 C479.9 54.6 481.2 60 483.5 67.6 L490.7 78.4 C486 77.9 483.6 77.9 483.5 78.4 C483.3 78.9 483.9 80.6 485.2 83.6 L486.5 88.2 L480.3 87.2 C474.8 93 469.9 97 465.7 99.2 C461.5 101.3 454 104.3 443 108 C440.5 108.5 436.8 108.5 432 108 C429.9 107.8 424.1 106.9 418.9 104.4 C414.3 102.2 405.7 96.8 392.9 88.2 L388.1 91.5 L390.5 84.8 L383.5 85.8 C384.4 84.4 385.9 82.2 388.1 79.4 C389.7 77.4 392.5 68.8 394.4 53.9 C395 49.9 395.4 43 395.8 33 C396.5 31.5 397.1 30.3 397.6 29.4 z M399.8 28.6 C399.7 28.8 399.7 29 399.7 29.3 C399.2 30.2 398.6 31.3 398 32.7 C397.6 42.2 397.2 48.7 396.7 52.5 C394.9 66.6 393.5 74.7 392 76.6 C389.9 79.3 387.7 82.4 386.9 83.7 L393 81.8 L390.7 88.2 L396.1 86.4 C408.3 94.6 415.7 98.4 420.1 100.4 C425 102.8 430.5 103.6 432.5 103.8 C437.1 104.3 440.6 104.3 442.9 103.8 C453.3 100.3 460.5 97.4 464.4 95.4 C468.4 93.3 473 89.5 478.3 84 L484.2 84.9 L483 80.5 C481.8 77.7 481.1 77 481.3 76.6 C481.4 76.1 482.5 75.5 486.9 76 L481.3 65.3 C479.1 58.1 477.9 53 477.6 49.9 C477.3 46.9 477.1 41.7 476.8 34.5 C476.4 32.5 475.6 30.9 474.7 29.7 C474.3 28.8 473.4 27.8 471.7 25.9 C465.1 18.9 451.6 9.7 450.5 8.6 C448.5 6.8 427.8 7.4 426.2 8 C424.6 8.8 400.8 25.7 399.8 28.6 z" opacity="0.15" id="o1" /></g></g><g transform="translate(89.89999, 73.29997) translate(24, 0)" id="p1"><g id="q1"><path d="M32.4 15.8 C31.9 16.9 31.5 18.3 31.2 19.7 C31.1 19.5 31.1 19.3 31 19.1 C31 16.4 30.1 13.7 29.5 10.7 C29.1 11.4 28.7 12.1 28.4 12.9 C27.7 10 25.9 7.3 23.5 5.6 C23.8 6.7 24 7.7 24.2 8.6 C21.4 5.9 18.1 3.6 14.7 1.5 C13.2 0.6 11 -0.1 9.8 1.1 C9.2 1.7 9 2.6 8.8 3.4 C7.5 9.1 3.8 22.2 2.9 31.5 C2.5 30.6 2.2 29.6 1.8 28.7 C0.1 32.4 0.8 37 3.3 40.2 C3.4 40.7 3.6 41.2 3.8 41.7 C2.8 41.3 1.7 40.9 0.7 40.5 C2.1 44 5 46.8 8.5 48.2 C9.7 49.1 11 49.7 12.5 49.9 C16.2 50.3 19.5 49 25.4 42.2 C29.8 37.1 31.2 35 31.7 32.1 C36.8 26.6 33.7 18.8 32.4 15.8 z" id="r1" fill="#66493D" /><path d="M32.4 15.8 C33.7 18.8 36.8 26.6 31.7 32.1 C31.2 35 29.8 37.1 25.4 42.2 C19.5 49 16.2 50.3 12.5 49.9 C11 49.7 9.7 49.1 8.5 48.2 C5 46.8 2.1 44 0.7 40.5 C1.7 40.9 2.8 41.3 3.8 41.7 C3.6 41.2 3.4 40.7 3.3 40.2 C0.8 37 0.1 32.4 1.8 28.7 C2.2 29.6 2.5 30.6 2.9 31.5 C3.8 22.2 7.5 9.1 8.8 3.4 C9 2.6 9.2 1.7 9.8 1.1 C11 -0.1 13.2 0.6 14.7 1.5 C18.1 3.6 21.4 5.9 24.2 8.6 C24 7.7 23.8 6.7 23.5 5.6 C25.9 7.3 27.7 10 28.4 12.9 C28.7 12.1 29.1 11.4 29.5 10.7 C30.1 13.7 31 16.4 31 19.1 C31.1 19.3 31.1 19.5 31.2 19.7 C31.5 18.3 31.9 16.9 32.4 15.8 z M32.5 17 C32 18 31.7 19.9 31.4 21.2 C31.3 21 30.1 18.7 30 18.6 C30 16.1 29.8 14.9 29.3 12.1 C28.9 12.8 28.5 13.6 28.3 14.4 C27.6 11.7 26.4 8.4 24.2 6.8 C24.5 7.9 24.8 9.3 25 10.1 C22.4 7.6 18.1 4.2 14.9 2.3 C13.5 1.4 11.5 0.5 10.4 1.6 C9.8 2.2 9.6 3.3 9.5 4 C8.7 7.3 7.1 13.5 6 20.8 C5.4 25.1 5.1 30.8 4.8 34 C4.7 33.6 3.9 33.6 3.3 32.9 C2.7 32.1 2.2 30.8 2 30.3 C0.4 33.8 1.8 36.2 4.1 39.2 C4.2 39.7 5.4 42.5 5.6 43 C4.7 42.6 2.9 42.1 2 41.7 C3.3 44.9 5.8 45 9 46.3 C10.2 47.1 12.1 47.4 13.5 47.6 C16.9 48 19.4 46.2 24.8 39.9 C28.9 35.2 30.2 33.3 30.6 30.6 C35.4 25.5 33.7 19.8 32.5 17 z" opacity="0.15" id="s1" /><path d="M12 27.6 C12.7 24.3 13.6 21.1 13.6 17.7 C20.2 19.8 25.3 25.9 26.4 32.7 C26.6 33.9 26.2 35.1 25.5 36 C24.1 37.7 21.7 40.6 20.3 42.2 C19.5 43.2 18.1 43.6 16.9 43.1 C14.6 42.2 12.7 39.9 11.9 37.5 C10.9 34.4 11.3 30.9 12 27.6 z" id="t1" fill="#AA6F4F" /></g></g><g transform="translate(111.1, 72.29997) translate(92.5, 25) scale(-1, 1) translate(-92.5, -25) translate(75, 0)" id="u1"><g id="v1"><path d="M0.6 40.5 C1.6 40.9 2.7 41.3 3.7 41.7 C3.5 41.2 3.3 40.7 3.2 40.2 C0.7 37 0 32.4 1.7 28.7 C2.1 29.6 2.4 30.6 2.8 31.5 C3.8 22.2 7.5 9.1 8.7 3.4 C8.9 2.6 9.1 1.7 9.7 1.1 C11 -0.1 13.1 0.6 14.6 1.5 C18.1 3.6 21.4 5.9 24.1 8.6 C24 7.7 23.7 6.7 23.4 5.6 C25.8 7.4 27.6 10 28.3 12.9 C28.6 12.1 29 11.4 29.4 10.7 C29.9 13.7 30.9 16.4 30.9 19.1 C31 19.3 31 19.5 31.1 19.7 C31.4 18.3 31.8 16.9 32.3 15.8 C33.6 18.8 36.7 27.6 31.6 32 C31.1 34.9 29.7 37.1 25.3 42.1 C19.4 48.8 16.1 50.2 12.4 49.8 C11 49.6 9.6 49 8.4 48.1 C4.9 46.8 2 44 0.6 40.5 z" id="w1" fill="#66493D" /><path d="M0.6 40.5 C1.6 40.9 2.7 41.3 3.7 41.7 C3.5 41.2 3.3 40.7 3.2 40.2 C0.7 37 0 32.4 1.7 28.7 C2.1 29.6 2.4 30.6 2.8 31.5 C3.8 22.2 7.5 9.1 8.7 3.4 C8.9 2.6 9.1 1.7 9.7 1.1 C11 -0.1 13.1 0.6 14.6 1.5 C18.1 3.6 21.4 5.9 24.1 8.6 C24 7.7 23.7 6.7 23.4 5.6 C25.8 7.4 27.6 10 28.3 12.9 C28.6 12.1 29 11.4 29.4 10.7 C29.9 13.7 30.9 16.4 30.9 19.1 C31 19.3 31 19.5 31.1 19.7 C31.4 18.3 31.8 16.9 32.3 15.8 C33.6 18.8 36.7 27.6 31.6 32 C31.1 34.9 29.7 37.1 25.3 42.1 C19.4 48.8 16.1 50.2 12.4 49.8 C11 49.6 9.6 49 8.4 48.1 C4.9 46.8 2 44 0.6 40.5 z M2.1 41.7 C3.4 44.9 5.7 44.9 8.9 46.1 C9.9 46.9 11.7 47.1 12.9 47.3 C16.2 47.7 19.2 46.4 24.5 40.4 C28.5 35.9 29.7 33.9 30.2 31.3 C34.8 27.4 33.6 21.2 32.4 18.5 C32 19.5 31.4 20.2 31.1 21.5 C31 21.3 30.3 19.9 30.2 19.8 C30.2 17.3 29.7 15.6 29.2 12.9 C28.9 13.6 28.2 13.9 27.9 14.7 C27.3 12 27 10 24.8 8.4 C25.1 9.4 24 9.8 24.1 10.6 C21.7 8.1 17.3 4.3 14.1 2.4 C12.8 1.6 11.4 0.7 10.2 1.8 C9.7 2.3 9 5.2 8.9 5.9 C7.8 11 4.4 26 3.5 34.4 C3.1 33.6 2.1 31 1.7 30.2 C0.2 33.5 1.4 35.7 3.7 38.6 C3.7 39.1 4.8 42.2 5 42.6 C4.1 42.3 3 42.1 2.1 41.7 z" opacity="0.15" id="x1" /><path d="M12 27.6 C12.7 24.3 13.6 21.1 13.6 17.7 C20.2 19.8 25.3 25.9 26.4 32.7 C26.6 33.9 26.2 35.1 25.5 36 C24.1 37.7 21.7 40.6 20.3 42.2 C19.5 43.2 18.1 43.6 16.9 43.1 C14.6 42.2 12.7 39.9 11.9 37.5 C10.9 34.4 11.3 30.9 12 27.6 z" id="y1" fill="#AA6F4F" /></g></g><g id="z1"><g transform="translate(90.4, 95.79996) translate(51, 9)" id="a2"><g id="b2"><path d="M10.8 81.4 C13.9 81.7 18 81.9 20.4 80.6 C23.1 79.2 24.6 77.8 26.8 75.4 C29.3 78.9 31.4 80 34.6 81.4 C37.6 82.8 41.6 81.8 44 81.1 C46.5 80.3 52.2 77.1 52.7 73.4 C53.4 69.2 53.9 64.2 52 57.1 C50.4 51 42.8 47.8 39.1 43.8 C36.4 40.9 32.8 30.2 32.5 28.5 C31.7 25.1 31.8 21.5 33 14.4 C34.2 6.8 39.1 4.5 39.1 2 C39.1 -0.4 34 4 27.9 4.1 C21.8 4.2 15.2 -1.3 15.2 2 C15.2 5.4 20.2 7.8 21.2 13.4 C22.2 19.1 22.2 22 21.2 27.9 C20.6 31.4 17.1 41.7 13.8 44.3 C8.1 48.8 1.3 53.2 0.6 59.8 C0 66.5 -0.7 70.2 1.2 74 C3.5 78.8 7.7 81 10.8 81.4 z" id="c2" fill="#F9F9F9" /><path d="M10.8 81.4 C7.7 81 3.5 78.8 1.1 74 C-0.8 70.2 -0.1 66.4 0.5 59.8 C1.2 53.2 8.1 48.8 13.7 44.3 C17 41.7 20.5 31.4 21.1 27.9 C22.1 21.9 22.1 19.1 21.1 13.4 C20.1 7.7 15.1 5.3 15.1 2 C15.1 -1.3 21.8 4.2 27.8 4.1 C34 3.9 39.1 -0.4 39.1 1.9 C39.1 4.4 34.2 6.8 33 14.3 C31.8 21.5 31.7 25 32.5 28.4 C32.8 30.1 36.4 40.8 39.1 43.7 C42.8 47.7 50.4 51 52 57 C53.9 64.1 53.4 69.1 52.7 73.3 C52.1 77 46.4 80.2 44 81 C41.5 81.7 37.5 82.7 34.6 81.3 C31.4 79.9 29.3 78.8 26.8 75.3 C24.6 77.7 23.1 79.1 20.4 80.5 C17.9 81.9 13.9 81.7 10.8 81.4 z M11.6 78.4 C14.5 78.7 18.4 78.9 20.7 77.6 C21.9 77 23.5 75.5 24.5 73.2 C25.7 70.4 26.3 66.8 27.4 65.5 C28.5 67.1 28.6 70.4 29.5 72.9 C30.6 75.7 32.6 77.6 34.2 78.3 C37.1 79.6 40.9 78.7 43.1 78 C45.5 77.2 50.9 74.2 51.4 70.7 C52.1 66.7 52.3 63.8 50.5 57.1 C49 51.3 41.9 47.9 38.5 44.1 C35.9 41.3 31.9 29.8 31.6 28.1 C30.8 24.9 31.1 20.2 32.2 13.5 C33.3 6.3 37.6 5.2 37.6 2.8 C37.6 0.5 33.6 4.7 27.8 4.8 C22 4.9 16.7 -0.2 16.7 2.9 C16.7 6.1 21 7 21.9 12.3 C22.9 17.7 23 22.4 22 28.1 C21.4 31.4 17.8 42.5 14.6 45 C9.2 49.3 2.6 52.4 1.9 58.6 C1.3 65 0.5 67.6 2.3 71.2 C4.7 75.9 8.6 78 11.6 78.4 z" opacity="0.15" id="d2" /></g></g><g transform="translate(86.09999, 87.69996) translate(74, 77)" id="e2"><path d="M7.5 1.5 C7.7 3.9 7.8 5.6 7.8 6.6 C7.8 7.6 7.5 9.5 7 12.1 C4.4 14.2 2.6 16 1.7 17.5 C0.4 19.8 -0.1 20.5 0.4 20.8 C0.7 21.1 2.4 18.9 4.9 17.7 C5.9 17.2 7.4 16.9 8.5 16.9 C9.8 16.9 11.5 17.4 12.7 18.1 C14.8 19.3 16 21 16.4 20.9 C16.9 20.7 15.7 17.6 13.2 15.4 C11.6 13.9 10.5 12.9 10 12.2 C9.7 9.6 9.6 7.8 9.6 6.6 C9.6 5.4 9.7 3.6 9.9 1.3 C10.5 0.4 10.1 0 8.7 0 C7.3 0 6.9 0.5 7.5 1.5 z" id="f2" /></g><g transform="translate(168.5, 164.7999) scale(1.2) translate(-168.5, -161.7999) translate(95.39999, 74.69996) translate(61, 60)" id="g2"><path d="M3.4 29.3 C5.1 31.6 6.8 32.9 11.9 32.9 C17 32.9 20.1 30.4 20.6 27.9 C21.1 25.4 20.5 20.8 16.3 19.7 C12.1 18.6 7.1 18.8 5.4 20.8 C4.7 21.6 3.5 22.7 2.9 24.1 C2.1 26.1 2.5 28 3.4 29.3 z" id="h2" /><path d="M8.2 20.6 C5.8 21.6 4.3 23 6.5 22.4 C7.9 22 9.3 21.7 10.8 21.8 C11.6 21.9 13.3 22 14.7 22.3 C16.1 23.4 18 24 18.6 23.5 C19.2 23 18.6 21.2 16.3 20.5 C14 19.8 10.7 19.6 8.2 20.6 z" id="i2" fill="#FFF" /></g><g transform="translate(104.5, 95.79996) translate(37, 12)" id="j2"><g id="k2"><path d="M0.3 20.7 C0.7 19.4 4.5 19.3 9.6 21.2 C14 22.8 13.1 28.2 9.1 28.8 C3.4 29.5 -0.8 24.4 0.3 20.7 z" id="l2" fill="#D8D8D8" /><path d="M10 9.1 C13.3 8.1 19.3 8.3 22.1 10.3 C25.4 12.7 26.4 16.7 26.1 19.7 C25.4 27.1 22.5 30.1 17.7 32.6 C16.5 33.2 14 34.5 13.8 34.2 C13.6 33.9 20.5 29.3 16.7 23.6 C15.7 22.2 13.6 20.2 8.6 19.2 C4.2 18.3 2.3 18.6 1.4 16.6 C0.4 14.3 4.5 10.7 10 9.1 z" id="m2" fill="#AA6F4F" /><path d="M15.3 22.9 C15.1 26.9 10.9 29.6 7.2 28.5 C3.1 27.3 2 24.3 2.7 20.9 C6.1 20.1 15.2 22 15.3 22.9 z" id="n2" fill="#282421" /><path d="M23 18.8 C20.8 20.4 18.2 21.3 16.4 20.7 C14.5 20.1 14.3 17.8 13.7 15.7 C14.9 14.5 17.6 11.8 19.6 12.8 C21.5 13.7 22.8 16.9 23 18.8 z" id="o2" fill="#F9F9F9" /><path d="M19.7 0.5 C26.6 2.6 26.6 9.1 26.6 11.3 C22 6.5 15 4.3 8.4 4.6 C8.6 2.7 14.2 -1.2 19.7 0.5 z" id="p2" fill="#AA6F4F" /><path d="M13.2 24.5 L13.3 23.7 C13.4 23.3 13.1 22.8 12.7 22.7 C11.1 22.3 7.8 21.6 8.5 22.9 C8.7 23.3 10.5 23.9 11 24.3 C11.2 24.5 11.4 24.7 11.6 24.9 C12.2 25.4 13.1 25.2 13.2 24.5 z" id="q2" fill="#FFF" /></g><g id="r2"><path d="M0.3 20.7 C0.7 19.4 4.5 19.3 9.6 21.2 C14 22.8 13.1 28.2 9.1 28.8 C3.4 29.5 -0.8 24.4 0.3 20.7 z" id="s2" fill="#F9F9F9" /><path d="M10 9.1 C13.3 8.1 19.3 8.3 22.1 10.3 C25.4 12.7 26.4 16.7 26.1 19.7 C25.4 27.1 22.5 30.1 17.7 32.6 C16.5 33.2 14 34.5 13.8 34.2 C13.6 33.9 20.5 29.3 16.7 23.6 C15.7 22.2 13.6 20.2 8.6 19.2 C4.2 18.3 2.3 18.6 1.4 16.6 C0.4 14.3 4.5 10.7 10 9.1 z" id="t2" fill="#AA6F4F" /><path d="M15.3 22.9 C15.1 26.9 10.9 29.6 7.2 28.5 C3.1 27.3 2 24.3 2.7 20.9 C6.1 20.1 15.2 22 15.3 22.9 z" id="u2" fill="#282421" /><path d="M23 18.8 C20.8 20.4 18.2 21.3 16.4 20.7 C14.5 20.1 14.3 17.8 13.7 15.7 C14.9 14.5 17.6 11.8 19.6 12.8 C21.5 13.7 22.8 16.9 23 18.8 z" id="v2" fill="#F9F9F9" /><path d="M19.7 0.5 C26.6 2.6 26.6 9.1 26.6 11.3 C22 6.5 15 4.3 8.4 4.6 C8.6 2.7 14.2 -1.2 19.7 0.5 z" id="w2" fill="#AA6F4F" /><path d="M13.2 24.5 L13.3 23.7 C13.4 23.3 13.1 22.8 12.7 22.7 C11.1 22.3 7.8 21.6 8.5 22.9 C8.7 23.3 10.5 23.9 11 24.3 C11.2 24.5 11.4 24.7 11.6 24.9 C12.2 25.4 13.1 25.2 13.2 24.5 z" id="x2" fill="#FFF" /></g></g><g transform="translate(99.19999, 95.79996) translate(67, 12)" id="y2"><g id="z2"><path d="M17 9.1 C13.7 8.1 7.7 8.3 4.9 10.3 C1.6 12.7 0.6 16.7 0.9 19.7 C1.6 27.1 4.5 30.1 9.3 32.6 C10.5 33.2 13 34.5 13.2 34.2 C13.4 33.9 6.5 29.3 10.3 23.6 C11.3 22.2 13.4 20.2 18.4 19.2 C22.8 18.3 24.7 18.6 25.6 16.6 C26.6 14.3 22.5 10.7 17 9.1 z" id="a3" fill="#AA6F4F" /><path d="M26.7 20.7 C26.3 19.4 22.5 19.3 17.4 21.2 C13 22.8 13.9 28.2 17.9 28.8 C23.6 29.5 27.8 24.4 26.7 20.7 z" id="b3" fill="#D8D8D8" /><path d="M11.7 22.9 C11.9 26.9 16.1 29.6 19.8 28.5 C23.9 27.3 25 24.3 24.3 20.9 C20.9 20.1 11.8 22 11.7 22.9 z" id="c3" fill="#282421" /><path d="M4 18.8 C6.2 20.4 8.8 21.3 10.6 20.7 C12.5 20.1 12.7 17.8 13.3 15.7 C12.1 14.5 9.4 11.8 7.4 12.8 C5.5 13.7 4.2 16.9 4 18.8 z" id="d3" fill="#F9F9F9" /><path d="M7.3 0.5 C0.4 2.6 0.4 9.1 0.4 11.3 C5 6.5 12 4.3 18.6 4.6 C18.4 2.7 12.8 -1.2 7.3 0.5 z" id="e3" fill="#AA6F4F" /><path d="M23.4 23.3 L23.4 22.5 C23.4 22 23.1 21.7 22.6 21.6 C21 21.5 17.6 21.4 18.6 22.5 C18.9 22.8 20.8 23.1 21.3 23.4 C21.6 23.5 21.8 23.7 22 23.9 C22.6 24.4 23.4 24 23.4 23.3 z" id="f3" fill="#FFF" /></g><g id="g3"><path d="M17 9.1 C13.7 8.1 7.7 8.3 4.9 10.3 C1.6 12.7 0.6 16.7 0.9 19.7 C1.6 27.1 4.5 30.1 9.3 32.6 C10.5 33.2 13 34.5 13.2 34.2 C13.4 33.9 6.5 29.3 10.3 23.6 C11.3 22.2 13.4 20.2 18.4 19.2 C22.8 18.3 24.7 18.6 25.6 16.6 C26.6 14.3 22.5 10.7 17 9.1 z" id="h3" fill="#AA6F4F" /><path d="M26.7 20.7 C26.3 19.4 22.5 19.3 17.4 21.2 C13 22.8 13.9 28.2 17.9 28.8 C23.6 29.5 27.8 24.4 26.7 20.7 z" id="i3" fill="#F9F9F9" /><path d="M11.7 22.9 C11.9 26.9 16.1 29.6 19.8 28.5 C23.9 27.3 25 24.3 24.3 20.9 C20.9 20.1 11.8 22 11.7 22.9 z" id="j3" fill="#282421" /><path d="M4 18.8 C6.2 20.4 8.8 21.3 10.6 20.7 C12.5 20.1 12.7 17.8 13.3 15.7 C12.1 14.5 9.4 11.8 7.4 12.8 C5.5 13.7 4.2 16.9 4 18.8 z" id="k3" fill="#F9F9F9" /><path d="M7.3 0.5 C0.4 2.6 0.4 9.1 0.4 11.3 C5 6.5 12 4.3 18.6 4.6 C18.4 2.7 12.8 -1.2 7.3 0.5 z" id="l3" fill="#AA6F4F" /><path d="M23.4 23.3 L23.4 22.5 C23.4 22 23.1 21.7 22.6 21.6 C21 21.5 17.6 21.4 18.6 22.5 C18.9 22.8 20.8 23.1 21.3 23.4 C21.6 23.5 21.8 23.7 22 23.9 C22.6 24.4 23.4 24 23.4 23.3 z" id="m3" fill="#FFF" /></g></g></g></g></g></g><defs><g transform="translate(17.09519, 0.800995) translate(-135.2952, -293.601)" id="n3" fill="#000"><path d="M118.2 302.7 C118.4 307.4 132.5 311.2 149.8 311.2 C167.1 311.2 181.2 307.4 181.4 302.7 C181.4 307.5 181.4 310.1 181.4 310.5 C181.4 315.3 167.3 319.1 149.8 319.1 C132.3 319.1 118.2 315.2 118.2 310.5 L118.2 302.7 L118.2 302.7 z" fill-opacity="0.4528" id="o3" fill="#593001" /><path d="M118.7 301.7 C118.9 306.4 133 310.2 150.3 310.2 C167.6 310.2 181.7 306.4 181.9 301.7 C181.9 306.5 181.9 309.1 181.9 309.5 C181.9 314.3 167.8 318.1 150.3 318.1 C132.8 318.1 118.7 314.2 118.7 309.5 L118.7 301.7 L118.7 301.7 z" id="p3" fill="#DA8113" /><linearGradient x1="46.0545" y1="-118.6926" x2="45.4656" y2="-118.6926" gradientUnits="userSpaceOnUse" gradientTransform="matrix(117.135, 0, 0, 28.4634, -5208.417, 3687.795)" id="q3"><stop offset="0%" stop-color="#D9952A" stop-opacity="1" /><stop offset="6.438854%" stop-color="#CA7519" stop-opacity="1" /><stop offset="30.54%" stop-color="#E3AD3A" stop-opacity="1" /><stop offset="51.05%" stop-color="#FFEC91" stop-opacity="1" /><stop offset="68.8%" stop-color="#E9BD44" stop-opacity="1" /><stop offset="86.24%" stop-color="#FFED6C" stop-opacity="1" /><stop offset="93.87%" stop-color="#F2D353" stop-opacity="1" /><stop offset="100%" stop-color="#F2B947" stop-opacity="1" /></linearGradient><path d="M118.2 301.6 C118.4 306.1 132.7 309.7 150.3 309.7 C167.9 309.7 182.2 306.1 182.4 301.6 C182.4 306.2 182.4 308.7 182.4 309 C182.4 313.5 168 317.2 150.3 317.2 C132.6 317.2 118.2 313.5 118.2 309 L118.2 301.6 L118.2 301.6 z" id="r3" style="fill:url(#q3)" /><linearGradient x1="45.4914" y1="-117.9547" x2="45.9407" y2="-117.5895" gradientUnits="userSpaceOnUse" gradientTransform="matrix(115.425, 0, 0, 29.925, -5125.077, 3826.124)" id="s3"><stop offset="0%" stop-color="#F4E072" stop-opacity="1" /><stop offset="100%" stop-color="#DB9427" stop-opacity="1" /></linearGradient><ellipse cx="150.3" cy="301.5" rx="31.6" ry="8.2" id="t3" style="fill:url(#s3)" /><linearGradient x1="45.4656" y1="-126.0065" x2="46.0545" y2="-126.0065" gradientUnits="userSpaceOnUse" gradientTransform="matrix(117.135, 0, 0, 18.6219, -5208.417, 2651.479)" id="u3"><stop offset="0%" stop-color="#D9952A" stop-opacity="1" /><stop offset="6.438854%" stop-color="#CA7519" stop-opacity="1" /><stop offset="30.54%" stop-color="#E3AD3A" stop-opacity="1" /><stop offset="51.05%" stop-color="#FFEC91" stop-opacity="1" /><stop offset="68.8%" stop-color="#E9BD44" stop-opacity="1" /><stop offset="86.24%" stop-color="#FFED6C" stop-opacity="1" /><stop offset="93.87%" stop-color="#F2D353" stop-opacity="1" /><stop offset="100%" stop-color="#F2B947" stop-opacity="1" /></linearGradient><path d="M119.2 299.9 C119 300.2 118.9 300.6 118.9 301 C118.9 305.5 132.9 309.2 150.3 309.2 C167.7 309.2 181.7 305.5 181.7 301 C181.7 300.6 181.6 300.3 181.4 299.9 C182 300.5 182.4 301.2 182.4 301.9 C182.4 306.4 168 310.1 150.3 310.1 C132.6 310.1 118.2 306.4 118.2 301.9 C118.2 301.3 118.6 300.6 119.2 299.9 z" id="v3" style="fill:url(#u3)" /><linearGradient x1="45.196" y1="-121.5895" x2="45.3746" y2="-120.6758" gradientUnits="userSpaceOnUse" gradientTransform="matrix(101.745, 0, 0, 23.94, -4458.332, 3199.41)" id="w3"><stop offset="0%" stop-color="#F8DD61" stop-opacity="1" /><stop offset="100%" stop-color="#EAA330" stop-opacity="1" /></linearGradient><ellipse cx="150.3" cy="300.8" rx="27.8" ry="6.6" id="x3" style="fill:url(#w3)" /><linearGradient x1="45.5694" y1="-134.267" x2="45.0221" y2="-134.267" gradientUnits="userSpaceOnUse" gradientTransform="matrix(101.745, 0, 0, 13.2525, -4458.332, 2077.223)" id="y3"><stop offset="0%" stop-color="#F4CA2F" stop-opacity="1" /><stop offset="51.38%" stop-color="#BF7737" stop-opacity="1" /><stop offset="100%" stop-color="#E4A929" stop-opacity="1" /></linearGradient><path d="M122.6 301.5 C122.5 301.3 122.4 301 122.4 300.8 C122.4 297.2 134.9 294.2 150.2 294.2 C165.5 294.2 178 297.1 178 300.8 C178 301 177.9 301.3 177.8 301.5 C176.3 298.2 164.5 295.6 150.1 295.6 C135.7 295.6 124.1 298.2 122.6 301.5 z" id="z3" style="fill:url(#y3)" /></g></defs><desc>JJ6F4J6BEHD,TygFXrRL08QXfqZmaejBRXq0VFsQGi+A44Kv4+LESa5rhCwjQh/g5Xu0CYY2ZCDlHwq8LjlwfnlfQrD/gmhmyOafETWKWXDTtwY1VFE6CYM=</desc></svg>