<?xml version="1.0" encoding="utf-8"?><!DOCTYPE svg PUBLIC "-//W3C//DTD SVG 1.1//EN" "http://www.w3.org/Graphics/SVG/1.1/DTD/svg11.dtd"><svg x="0" y="0" width="340px" height="340px" viewBox="0, 0, 340, 340" preserveAspectRatio="xMidYMid" font-size="0" id="a" enable-background="new 0 0 340 340" xmlns="http://www.w3.org/2000/svg" xmlns:xlink="http://www.w3.org/1999/xlink" xmlns:xml="http://www.w3.org/XML/1998/namespace" version="1.1"><g id="b" fill="#000"><g id="c"><g transform="translate(0, 0) translate(0, 224)" id="d"><ellipse cx="168.6" cy="53.1" rx="57.8" ry="12.8" fill-opacity="0.25" id="e" /></g><g id="f"><g transform="translate(103.8, 99.19998) translate(20.5, 139.5) scale(-1, 1) translate(-20.5, -139.5) translate(0, 122)" id="g"><g id="h"><path d="M28.3 1.5 C38.6 0.6 40.4 9.4 40.6 11.6 C39.9 11.2 39.2 10.8 38.5 10.4 C39.3 12.6 39.7 15.1 39.7 17.8 C38.6 16.4 36.7 14.8 34.9 13.9 C35.7 15.2 36.5 16.5 37.4 17 C35.4 17.6 34.6 18.2 31 17.7 C28.6 17.4 27.5 17.8 24.4 18.3 C23.8 18.4 19.5 10.8 21.8 5.7 C23.2 3.5 27.3 1.5 28.3 1.5 z" id="i" fill="#EFE9E6" /><path d="M6 15 C9.4 15.8 13.3 15.1 15.9 12.7 C16.5 12.2 17 11.5 17.6 10.9 C19.7 7.6 21.8 4.2 23.8 0.9 C23.8 1.7 23.7 2.5 23.6 3.2 C25 2.2 26.5 1.5 28.3 1.3 C25.8 4 23.8 7.1 22.4 10.5 C22.8 10.5 23.3 10.4 23.8 10.3 C24.8 10 26.6 9.5 27.4 8.4 C27.4 10.5 26.9 11.4 26.2 12.1 C28.3 11.9 30.4 12.2 32.4 13 C29.6 13.4 27.8 16.2 25.4 17.6 C25.5 17.6 28.8 17 30.9 17.9 C31 18.1 31.1 18.4 31.2 18.6 C32.2 21 32.3 23.7 31.5 26.1 C30.7 24.4 29.5 22.8 28.1 21.5 C28.6 25.5 27.5 29.7 25.6 32.8 C25.4 29.1 25.6 25.3 21.5 23.8 C23.2 26.6 21.3 31.3 20.7 34.1 C20.5 31.6 20.2 29.1 19.1 26.8 C16.2 20.4 14.9 21 9.6 21.6 C6.3 21.9 1.1 21 1 18.4 C0.9 15.8 4.2 14.6 6 15 z" id="j" fill="#32363A" /><path d="M30 17.6 C30.3 17.7 30.6 17.8 30.9 17.9 C31 18.1 31.1 18.4 31.2 18.6 C32.2 21 32.3 23.7 31.5 26.1 C30.7 24.4 29.5 22.8 28.1 21.5 C28.6 25.5 27.5 29.7 25.6 32.8 C25.4 29.1 25.6 25.3 21.5 23.8 C23.2 26.6 21.3 31.3 20.7 34.1 C20.5 31.6 20.2 29.1 19.1 26.8 C16.2 20.4 14.9 21 9.6 21.6 C6.3 21.9 1.1 21 1 18.4 C0.9 15.8 4.2 14.6 6 15 C9.4 15.8 13.3 15.1 15.9 12.7 C16.5 12.2 17 11.5 17.6 10.9 C19.7 7.6 21.8 4.2 23.8 0.9 C23.8 1.7 23.7 2.5 23.6 3.2 C25 2.2 26.5 1.5 28.3 1.3 C28.2 1.4 28.2 1.4 28.1 1.5 C28.2 1.5 28.2 1.5 28.3 1.5 C38.6 0.6 40.4 9.4 40.6 11.6 L38.5 10.4 C39.3 12.6 39.7 15.1 39.7 17.8 C38.6 16.4 36.7 14.8 34.9 13.9 C35.7 15.2 36.5 16.5 37.4 17 C35.4 17.6 34.6 18.2 31 17.7 C30.6 17.7 30.3 17.6 30 17.6 z M29.8 16.1 C29.5 16 33.3 16.9 35.1 16.4 C34.3 15.9 34.1 13.3 33.3 12.1 C35 12.9 37.9 14.3 38.9 15.6 C38.9 13.2 38.2 10.6 37.5 8.7 L39.8 10 C39.7 8.1 37 1.6 27.7 2.4 C27.6 2.4 28.5 2 28.4 2 C28.5 1.9 28.5 1.9 28.6 1.8 C27 2 24.4 4.3 23.2 5.2 C23.2 4.6 23.2 3.4 23.2 2.7 C21.3 5.6 20.8 7.4 18.9 10.3 C18.4 10.9 17.9 11.5 17.4 11.9 C15 14.1 11 16.9 7.9 16.2 C6.2 15.8 2.7 15.8 2.8 18.1 C2.9 20.4 8.7 20.1 11.6 19.8 C16.5 19.3 16.6 18.2 19.2 23.9 C20.2 25.9 20.7 26.4 20.8 28.6 C21.4 26.1 21.2 24.2 19.7 21.7 C23.4 23 25.9 24.9 26.1 28.2 C27.8 25.5 26.9 22.7 26.5 19.2 C27.8 20.3 30.3 21.7 31.1 23.2 C31.8 21.1 30 19.5 29.1 17.3 C29 17.2 29.8 16.3 29.8 16.1 z" opacity="0.15" id="k" /></g></g><g transform="translate(130.5, 273.3) scale(1.136923) translate(-130.5, -273.3) translate(132.1, 274.9) scale(1) translate(-129.1, -274.9) translate(102.8, 77.79997) translate(17, 136)" id="l"><path d="M4.3 33.6 C3.8 31 3.1 28.2 2.7 25.4 C2.3 26 1.9 26.7 1.5 27.5 C0.3 22.8 0.4 11.7 4 6.1 C4 6.1 4 6.1 4 6 C4 5.9 4.1 5.9 4.1 5.8 C4.1 5.8 4.1 5.7 4.2 5.7 C4.5 5.2 4.8 4.8 5.2 4.3 C10.6 -1.3 22.8 -0.7 30 5.8 C42.2 16.8 34 33.7 31.1 40.5 C28.6 46.5 9.7 46.3 9.1 44.4 C8 40.8 6.8 36.8 5.7 32.8 C5.2 33.1 4.8 33.4 4.3 33.6 z" id="m" fill="#AA6F4F" /><path d="M10.6 49.9 C10.1 47.8 9.4 45.5 8.7 43.1 C10.5 41.2 12.7 40.4 15.2 40.1 C16.9 39.9 18.7 40.1 20.4 40 C22.6 39.8 24.8 37.8 26.5 36.7 C28.1 35.7 31.4 33.6 33.1 35.5 C32.3 37.5 31.6 39.2 31 40.6 C28.5 46.6 31.6 54.8 27 59.4 C22.8 63.7 6.5 62.5 2 60.7 C1.9 55.1 6.2 55.3 10.6 49.9 z" id="n" fill="#E8E5E3" /><path d="M30.8 41 C28.6 47 31.5 54.9 27 59.4 C22.8 63.7 6.5 62.5 2 60.7 C1.9 55.1 6.2 55.3 10.6 49.9 C10.1 47.8 9.4 45.5 8.7 43.1 L8.7 43.1 C7.7 39.8 6.7 36.3 5.7 32.8 C5.2 33.1 4.8 33.4 4.3 33.6 C3.8 31 3.1 28.2 2.7 25.4 C2.3 26 1.9 26.7 1.5 27.5 C0.3 22.8 0.4 11.7 4 6.1 L4 6 C4 5.9 4.1 5.9 4.1 5.8 C4.1 5.8 4.1 5.7 4.2 5.7 C4.5 5.2 4.8 4.8 5.2 4.3 C10.6 -1.3 22.8 -0.7 30 5.8 C42.2 16.8 34 33.7 31.1 40.5 C31 40.7 30.9 40.8 30.8 41 z M29.2 40.7 C29.8 39.6 30.2 39 30.2 38.9 C32.9 32.5 40.6 16.8 29.2 6.6 C22.5 0.5 11.2 0 6.1 5.2 C5.8 5.7 5.5 6 5.2 6.5 C5.1 6.5 5.1 6.6 5.1 6.6 C5.1 6.7 5 6.7 5 6.9 C1.7 12.1 0.8 20.2 1.9 24.6 C2.3 23.9 3.3 23.5 3.7 22.9 C4.1 25.5 5 29 5.4 31.4 C5.9 31.2 6.5 30 7 29.7 C7.9 33 8.5 38.3 9.4 41.3 L9.9 40.7 C10.6 42.9 12.1 48.3 12.6 50.3 C8.5 55.3 4.9 53.5 5 58.7 C9.2 60.4 22.5 60.4 26.4 56.4 C30.6 52.3 27.2 46.2 29.2 40.7 z" opacity="0.15" id="o" /></g><g transform="translate(209.4, 273.3) scale(1.136923) translate(-209.4, -273.3) translate(207.8, 274.9) scale(1) translate(-210.8, -274.9) translate(102.8, 77.79997) translate(98.5, 167.5) scale(-1, 1) translate(-98.5, -167.5) translate(80, 136)" id="p"><path d="M4.3 33.6 C3.8 31 3.1 28.2 2.7 25.4 C2.3 26 1.9 26.7 1.5 27.5 C0.3 22.8 0.4 11.7 4 6.1 C4 6.1 4 6.1 4 6 C4 5.9 4.1 5.9 4.1 5.8 C4.1 5.8 4.1 5.7 4.2 5.7 C4.5 5.2 4.8 4.8 5.2 4.3 C10.6 -1.3 22.8 -0.7 30 5.8 C42.2 16.8 34 33.7 31.1 40.5 C28.6 46.5 9.7 46.3 9.1 44.4 C8 40.8 6.8 36.8 5.7 32.8 C5.2 33.1 4.8 33.4 4.3 33.6 z" id="q" fill="#AA6F4F" /><path d="M10.6 49.9 C10.1 47.8 9.4 45.5 8.7 43.1 C10.5 41.2 12.7 40.4 15.2 40.1 C16.9 39.9 18.7 40.1 20.4 40 C22.6 39.8 24.8 37.8 26.5 36.7 C28.1 35.7 31.4 33.6 33.1 35.5 C32.3 37.5 31.6 39.2 31 40.6 C28.5 46.6 31.6 54.8 27 59.4 C22.8 63.7 6.5 62.5 2 60.7 C1.9 55.1 6.3 55.3 10.6 49.9 z" id="r" fill="#E8E5E3" /><path d="M30.8 41 C28.6 47 31.5 54.9 27 59.4 C22.8 63.7 6.5 62.5 2 60.7 C1.9 55.1 6.3 55.3 10.6 49.9 C10.1 47.8 9.4 45.5 8.7 43.1 L8.7 43.1 C7.7 39.8 6.7 36.3 5.7 32.8 C5.2 33.1 4.8 33.4 4.3 33.6 C3.8 31 3.1 28.2 2.7 25.4 C2.3 26 1.9 26.7 1.5 27.5 C0.3 22.8 0.4 11.7 4 6.1 L4 6 C4 5.9 4.1 5.9 4.1 5.8 C4.1 5.8 4.1 5.7 4.2 5.7 C4.5 5.2 4.8 4.8 5.2 4.3 C10.6 -1.3 22.8 -0.7 30 5.8 C42.2 16.8 34 33.7 31.1 40.5 C31 40.7 30.9 40.8 30.8 41 z M29.7 38.9 L28.4 41.3 C28.5 41.1 29.9 38.6 30 38.5 C32.6 32.3 40.1 16.8 29 6.7 C22.4 0.8 11.3 0.2 6.4 5.3 C6 5.8 5.8 6.2 5.5 6.6 C5.4 6.6 5.4 6.7 5.4 6.7 C5.4 6.8 5.3 6.8 5.3 7 C2 12.1 1 20.4 2.1 24.7 C2.5 24 3.6 23.6 4 23.1 C4.3 25.6 4.5 29 5 31.3 C5.4 31.2 6.6 30.2 7 29.9 C7.9 33.1 8.7 37.9 9.6 40.9 C10.2 43.1 12.1 47.7 12.6 49.7 C8.6 54.6 5.5 53.1 5.6 58.3 C9.7 59.9 21.5 60.7 25.4 56.8 C29.4 52.7 27.7 44.4 29.7 38.9 z" opacity="0.15" id="s" /></g><g transform="translate(90.90001, 84.79997) translate(37, 51)" id="t"><g transform="translate(3, 0)" id="u"><path d="M61.7 20.1 C61.7 36.4 64.4 34.7 66.1 39.3 C67.8 43.9 74.7 53 76 65.8 C77.3 78.6 76.6 92.6 72.6 104.3 C68.6 116 71.5 137.3 61.8 140 C61.5 140.1 29.8 143.1 18 140 C5.8 136.8 11.8 123.7 6.4 106.4 C1 89.1 0.1 80.3 0.4 65.8 C0.7 51.3 10.7 44.1 12.5 39.2 C14.3 34.3 16.6 32.5 16.6 20 C16.6 7.5 24.6 0.5 42.2 1 C47.5 1.2 61.7 3.7 61.7 20.1 z" id="v" fill="#EBB67F" /><path d="M61.7 20.1 C61.7 36.4 64.4 34.7 66.1 39.3 C67.8 43.9 74.7 53 76 65.8 C77.3 78.6 76.6 92.6 72.6 104.3 C68.6 116 71.5 137.3 61.8 140 C61.5 140.1 29.8 143.1 18 140 C5.8 136.8 11.8 123.7 6.4 106.4 C1 89.1 0.1 80.3 0.4 65.8 C0.7 51.3 10.7 44.1 12.5 39.2 C14.3 34.3 16.6 32.5 16.6 20 C16.6 7.5 24.6 0.5 42.2 1 C47.5 1.2 61.7 3.7 61.7 20.1 z M61.2 20.2 C61.2 4.2 47.3 1.7 42.1 1.5 C24.9 1 17.1 7.9 17.1 20.1 C17.1 32.3 14.8 34.1 13.1 38.9 C11.4 43.7 1.5 50.7 1.2 64.9 C0.9 79.1 2.8 88.3 8.1 105.2 C13.4 122.1 6.5 134.3 18.4 137.5 C29.9 140.5 61 137.6 61.3 137.5 C70.8 134.9 67 114.3 70.9 102.9 C74.8 91.5 76.5 77.5 75.2 64.9 C73.9 52.4 67.2 43.5 65.5 39 C63.8 34.5 61.2 36.1 61.2 20.2 z" opacity="0.15" id="w" /></g></g><g transform="translate(127.2941, 187.9) scale(0.9537719, 0.9137275) translate(-125.2, -179.2) translate(96.60001, 85.89996) translate(28, 92)" id="x"><path d="M8.3 7.6 C4.2 18.1 8.4 13.1 8.6 22.6 C16.4 36.1 36.9 54 44.4 54 C53 54 74.8 37.2 80.4 23.7 C82.6 18.6 83.5 14.1 82.6 9.9 C82.2 8.1 81 5.7 80.4 4.5 C78.9 1.8 80.1 13.2 69.5 20.9 C64.6 24.4 55.5 28.5 45.1 28.5 C33.2 28.5 25.6 23.5 19.9 18.8 C10.3 11 10.4 1.3 8.3 7.6 z" id="y" fill="#66493D" /><path d="M7.8 8.9 C0.6 21.8 2.6 26.2 3.5 32.6 C4.5 39 4.5 43.6 6.4 48.3 C8.3 53 8.7 55.4 10.3 60.5 C11.8 65.5 13.8 72.5 14.6 77.4 C15 80.1 14.8 82.7 15.2 84.6 C15.6 86.2 16.6 87 16.1 88.2 C15.1 90.8 11.1 91.5 9 93.4 C6.9 95.3 5.9 99.5 6.6 100.7 C12.5 104.7 26.5 101 31.4 100 C31.6 99.9 32.6 93.5 31.4 92 C30.1 90.4 32.3 91 32.8 87.1 C34 83.8 34.1 64.2 35.1 59.4 C36.1 54.6 35.4 49 33.3 47.7 C28.2 44.5 27.3 43.8 23.7 38.6 C20.7 34.4 26.5 32.9 23.7 30.7 C21.5 29 14.5 26.9 12.6 24.4 C10.7 21.9 8.4 15.6 7.8 8.9 z" id="z" fill="#F9F9F9" /><path d="M8.9 91.7 C6.8 94.1 5.8 99.5 6.5 101.1 C12.4 106.2 26.4 101.5 31.3 100.2 C31.5 100 33.4 93.6 32.1 91.7 C31.8 91.3 31.8 90.8 31.9 90.3 C27.9 88 21.7 86.8 15.8 87.1 C14 88.9 10.5 89.8 8.9 91.7 z" id="a1" fill="#66493D" /><path d="M33.9 77.1 C34 67.9 35.7 56.1 36.4 52.9 C37.4 48.1 35.6 48.4 33.5 47.1 C28.4 43.9 27.7 43.5 24.1 38.3 C23.4 37.3 23.1 35.7 23.1 34.9 C20.6 37.5 20.9 47.2 23.7 51 C26 54.2 28.7 52.8 30.7 58.6 C31.9 62.1 32.3 64.2 32.3 66.7 C32.4 71.1 32.7 74.2 33.9 77.1 z" id="b1" fill="#66493D" /><path d="M82.3 8.9 C91.2 21.5 86.6 25.8 86.6 32.6 C86.6 38.9 83.4 44.1 81.8 49.6 C80.2 55.1 79.8 56.9 78.2 62 C77 66 76.1 74.9 75.1 79 C73.6 85.3 72.6 84.8 73.9 87.9 C74.9 90.5 79.1 91.3 81.2 93.2 C83.3 95.1 81.9 98.3 81.2 99.5 C75.3 103.5 64.8 100.5 59.9 99.5 C59.7 99.4 59.1 96 59.1 93.2 C59.1 90.7 56.7 90.6 56.4 86.1 C56.1 83 55.8 57.3 54.8 52.4 C53.8 47.5 54.8 48.8 56.8 47.6 C61.9 44.4 62.8 43.7 66.4 38.5 C69.4 34.3 63.6 32.8 66.4 30.6 C68.6 28.9 75.6 26.8 77.5 24.3 C79.3 21.8 81.6 15.6 82.3 8.9 z" id="c1" fill="#F9F9F9" /><path d="M80.1 90.7 C82.2 93.1 83.2 98.5 82.5 100.1 C76.6 105.2 62.6 100.5 57.7 99.2 C57.5 99 55.6 92.6 56.9 90.7 C57.2 90.3 57 89.9 56.9 89.4 C60.9 87.1 67.3 85.8 73.2 86.1 C75 87.9 78.5 88.8 80.1 90.7 z" id="d1" fill="#66493D" /><path d="M56.1 77.1 C56 67.9 54.3 56.1 53.6 52.9 C52.6 48.1 54.4 48.5 56.4 47.3 C61.5 44.1 62.1 43.9 65.7 38.8 C66.4 37.8 66.8 35.5 66.7 34.7 C69.2 37.3 68.9 47.4 66.1 51.1 C63.8 54.3 61.1 52.9 59.1 58.7 C57.9 62.2 57.5 64.3 57.5 66.8 C57.6 71.1 57.3 74.2 56.1 77.1 z" id="e1" fill="#66493D" /><path d="M44.4 54 C42.5 54 39.8 52.9 36.7 51 C36.7 51.5 36.6 52.2 36.4 52.9 C35.9 55.3 34.8 62.4 34.2 69.7 C34.1 71.9 34 74.1 33.9 76.3 C33.9 76.6 33.9 76.8 33.9 77.1 C33.6 81.7 33.3 85.7 32.8 87 C32.6 88.7 32 89.6 31.6 90.1 C31.7 90.2 31.8 90.2 31.9 90.3 C31.8 90.8 31.8 91.3 32.1 91.7 C33.4 93.6 31.5 100 31.3 100.2 C26.4 101.5 12.4 106.2 6.5 101.1 C5.8 99.5 6.8 94.1 8.9 91.7 C10.5 89.8 14 88.9 15.8 87.1 C15.9 87.1 16.1 87.1 16.2 87.1 C16 86.3 15.5 85.6 15.2 84.5 C14.8 82.7 15 80 14.6 77.3 C13.9 72.4 11.8 65.4 10.3 60.4 C8.7 55.3 8.3 52.9 6.4 48.2 C4.5 43.5 4.5 39 3.5 32.6 C2.6 26.2 0.6 21.8 7.8 8.9 C8 8.5 8.1 8.1 8.3 7.6 C10.4 1.3 10.3 11 19.9 18.8 C25.6 23.5 33.2 28.5 45.1 28.5 C55.5 28.5 64.6 24.4 69.5 20.9 C80.1 13.2 78.9 1.8 80.4 4.5 C81 5.5 81.9 7.4 82.4 9.1 C91.1 21.6 86.6 25.9 86.6 32.6 C86.6 38.9 83.4 44.1 81.8 49.6 C80.2 55.1 79.8 56.9 78.2 62 C77 66 76.1 74.9 75.1 79 C74 83.8 73.1 84.7 73.3 86.2 C75.1 87.9 78.5 88.8 80 90.6 C80.8 91.5 81.4 92.8 81.9 94.2 C82.1 94.5 82.1 94.9 82.2 95.2 C82.7 97.2 82.8 99.1 82.4 99.9 C76.5 105 62.5 100.3 57.6 99 C57.4 98.8 55.5 92.4 56.8 90.5 C57.1 90.1 56.9 89.7 56.8 89.2 C56.7 88.3 56.4 87.4 56.3 86 C56.2 85 56.1 81.4 56 76.9 C56 76.7 56 76.5 56 76.3 C56 75.6 56 75 55.9 74.3 C55.6 65.6 54.1 55.6 53.5 52.7 C53.3 51.9 53.2 51.3 53.2 50.7 C49.8 52.9 46.6 54 44.4 54 z M55.8 47.1 C55.8 47.6 55.1 52.6 55.2 53.4 C55.9 56.4 56.8 65.3 56.9 74.1 C57 74 57.2 82.1 57.3 83.1 C57.4 84.4 57.9 87.1 57.8 87.1 C57.9 87.6 58.9 89.5 58.6 89.8 C57.4 91.6 58.4 96.9 58.6 97.1 C63.3 98.3 75 102.6 80.6 97.7 C81 96.9 81.1 95.5 80.6 93.7 C80.6 93.4 79.4 91.6 78.6 90.7 C77.1 89 74 87.9 72.2 86.3 C72.8 80.6 74 72.8 76.1 62.7 C77.2 57.7 77.9 52.6 80.2 48.3 C82.5 44 83.4 42.7 85.4 32.5 C87.4 22.3 83.1 14.6 82.8 12.5 C82.5 10.4 81 8.5 80.2 7.2 C78.8 4.6 78.6 15.5 68.5 22.8 C64 26.3 54.9 32.1 45 32.1 C33.7 32.1 26.9 26 21.5 21.6 C12.3 14.2 10 3.6 8 9.5 C7.9 9.8 4.6 15.7 3.9 22.9 C3.6 26.1 4.7 31.9 5 33.8 C6 39.9 6.7 43 7.8 47.1 C8.9 51.2 10.7 56.3 12.2 61.1 C15 70.1 17.5 78 16 83.5 C15.8 83.5 17.1 87.5 16.9 87.5 C15.2 89.2 12.6 89.8 11.1 91.6 C9.1 93.9 7.7 97.1 8.3 98.7 C13.9 103.5 25.7 99.6 30.3 98.4 C30.5 98.2 31.9 92.8 30.7 91 C30.4 90.6 31.4 89.1 31.3 89 C31.7 88.5 31.6 87 31.8 85.3 C32.3 84 32.3 80.6 32.6 76.2 C32.7 76.4 33.6 55.5 34.3 52.4 C34.5 51.7 34.3 46.8 34.3 46.3 C37.3 48.1 38.2 52.4 44.4 52.4 C50.6 52.4 52.4 48.9 55.8 47.1 z" opacity="0.15" id="f1" /></g></g><g transform="translate(169.6, 188) scale(0.9107343) translate(-169.6, -188)" id="g1"><g transform="translate(96.50001, 81.89997) translate(23, 22)" id="h1"><g id="i1"><path d="M8.2 28.4 C11 21.7 15.7 17.3 19.3 12.7 C22.9 8.1 31.7 5.6 37.3 4.5 C41.1 3.8 45.5 4.2 50.5 5.5 C52.6 4.5 55.6 4.2 59.5 4.5 C66.7 4.5 74.5 9 78.8 11.8 C83 14.6 91 25 93 28.4 C95 31.8 96.7 39.1 97.3 42.7 C97.9 46.3 97.3 55.3 94.7 60.3 C92.1 65.3 82.5 78 79.9 80.3 C76.4 83.4 71.5 86.4 67.9 88.5 C62.3 91.8 46 95 35.4 89.9 C31.5 88 25.1 85.8 20.9 82.2 C13.5 75.9 8.9 67.7 7 65.7 C4 62.7 1.8 55.5 2.5 50.3 C3.2 45.1 5.4 35.1 8.2 28.4 z" id="j1" fill="#AA6F4F" /><path d="M88.9 69.3 C87.1 71.9 85.2 74.6 83.6 76.7 C82.3 78.2 81.1 79.5 80.2 80.5 C79.9 80.8 79.6 81.2 79.2 81.6 C75.8 84.3 71.3 86.7 68.2 88.6 C62.6 91.8 46 95 35.4 89.9 C31.8 88.2 26.1 86.1 21.9 83 C21 82.2 20 81.4 19 80.5 C18.5 80 18 79.5 17.5 79 L14.9 76.1 C13 73.9 11.4 71.7 10.1 69.9 C9.3 68 8.6 65.7 8.1 63.2 C7.1 58 7.9 53.8 10.3 49.9 C11.7 47.6 14.6 45.6 18.9 43.8 C18.6 47.5 18.6 49.9 18.8 50.8 C20.2 56.9 23.9 61.2 30.3 59.2 C32.2 58.6 34.7 51 48.6 51 C62.5 51 62.5 57.9 68.7 59.7 C74.9 61.5 78.8 56.3 80.6 51.3 C82.4 46.3 80.5 43.1 80.1 42.6 C79.7 42.1 86.2 44 89.2 49 C92.2 54 92.5 57.7 90.4 64.5 C89.9 66.5 89.3 68.1 88.9 69.3 z" id="k1" fill="#EBB67F" /><path d="M8.2 28.4 C11 21.7 15.7 17.3 19.3 12.7 C22.9 8.1 31.7 5.6 37.3 4.5 C41.1 3.8 45.5 4.2 50.5 5.5 C52.6 4.5 55.6 4.2 59.5 4.5 C66.7 4.5 74.5 9 78.8 11.8 C83 14.6 91 25 93 28.4 C95 31.8 96.7 39.1 97.3 42.7 C97.9 46.3 97.3 55.3 94.7 60.3 C92.1 65.3 82.5 78 79.9 80.3 C76.4 83.4 71.5 86.4 67.9 88.5 C62.3 91.8 46 95 35.4 89.9 C31.5 88 25.1 85.8 20.9 82.2 C13.5 75.9 8.9 67.7 7 65.7 C4 62.7 1.8 55.5 2.5 50.3 C3.2 45.1 5.4 35.1 8.2 28.4 z M10.1 28.4 C7.4 34.9 5.3 44.5 4.6 49.5 C3.9 54.5 6 61.4 8.9 64.3 C10.7 66.2 15.2 74.1 22.2 80.1 C26.2 83.6 32.3 85.8 36.1 87.5 C46.3 92.4 61.9 89.3 67.2 86.1 C70.6 84.1 75.3 81.2 78.7 78.2 C81.2 76 90.4 63.7 92.9 58.9 C95.4 54.1 96 45.4 95.4 42 C94.8 38.5 93.2 31.5 91.2 28.3 C89.2 25.1 81.6 15.1 77.6 12.4 C73.6 9.7 66.1 5.4 59.2 5.4 C55.5 5.1 52.6 5.5 50.6 6.4 C45.8 5.1 41.6 4.7 37.9 5.4 C32.5 6.4 24.1 8.8 20.7 13.3 C17.3 17.8 12.8 21.9 10.1 28.4 z" opacity="0.15" id="l1" /><path d="M32.7 10.5 C38.2 13.7 42.7 17.2 45.6 23.9 C48.5 30.6 47.2 33.2 49.4 33.2 C51.6 33.2 51.1 28.5 53.1 23.9 C55.1 19.3 60.7 14.2 66.5 10.5 C67.2 10 63.6 8.3 60.1 8.4 C56.9 8.6 52.2 10.5 50 10.5 C48 10.5 45 8.8 40.7 8.4 C34.9 7.9 29.5 8.7 32.7 10.5 z" id="m1" fill="#66493D" /></g></g><g transform="translate(96.50001, 81.89996) translate(21, 2)" id="n1"><g transform="translate(18.02073, 23.28844) scale(-1, 1) rotate(-6, 0, 0) translate(-18.02073, -23.28844) translate(2.520727, 1.788439)" id="o1"><path d="M1.7 25.8 C-1.9 23.8 -2.7 23.7 -1.4 20.5 C-0.1 17.3 2.4 17.8 5 15.3 C7.6 12.8 13.5 8.6 17.4 6.7 C21.3 4.8 23.7 2.5 25.7 4.7 C27.7 6.9 29.1 12.8 28 18.9 C26.9 25 23.5 30.4 23.1 33.3 C22.7 36.2 21.9 40.6 20.2 42.9 C19.7 43.6 18.2 45.3 17.3 45.8 C15.4 46.7 14 44.9 12.6 41.3 C12.3 40.4 10.5 34.3 8.6 32.4 C6.3 29.9 5.4 27.8 1.7 25.8 z" id="p1" fill="#66493D" /><path d="M1.7 25.8 C-1.9 23.8 -2.7 23.7 -1.4 20.5 C-0.1 17.3 2.4 17.8 5 15.3 C7.6 12.8 13.5 8.6 17.4 6.7 C21.3 4.8 23.7 2.5 25.7 4.7 C27.7 6.9 29.1 12.8 28 18.9 C26.9 25 23.5 30.4 23.1 33.3 C22.7 36.2 21.9 40.6 20.2 42.9 C19.7 43.6 18.2 45.3 17.3 45.8 C15.4 46.7 14 44.9 12.6 41.3 C12.3 40.4 10.5 34.3 8.6 32.4 C6.3 29.9 5.4 27.8 1.7 25.8 z M3.9 24.6 C7.2 26.4 8 28.3 10 30.5 C11.7 32.2 13.3 37.7 13.6 38.5 C14.8 41.7 16.1 43.4 17.8 42.5 C18.6 42.1 19.9 40.5 20.4 39.9 C21.9 37.8 22.6 33.9 23 31.3 C23.4 28.7 26.4 23.8 27.4 18.3 C28.4 12.8 27.1 7.5 25.4 5.5 C23.6 3.5 21.5 5.6 18 7.3 C14.5 9 9.3 12.8 6.9 15 C4.5 17.2 2.4 16.8 1.2 19.7 C0 22.6 0.7 22.8 3.9 24.6 z" opacity="0.15" id="q1" /><path d="M5.7 24.6 C3.7 23.6 2.3 23 3.3 20.4 C3.9 18.9 7.5 16.8 10.9 14.2 C13.3 12.3 16.2 10.3 18 9.3 C20.6 7.8 21.8 6.3 23.5 7.6 C25.1 8.9 26.5 14.5 25.7 19.2 C24.9 24 20 35.8 18.7 37.6 C17.4 39.4 16.1 42.4 14.5 38.2 C12.9 34 12.6 31.4 10.9 29.6 C9.2 27.8 7.7 25.6 5.7 24.6 z" id="r1" fill="#AA6F4F" /><path d="M8.2 26.4 C8.3 25.4 9.1 23.7 9.3 23.3 C9.6 22.7 12.3 21.1 14.6 19.7 C15.6 19 18.6 17.4 18.6 17.4 C20.2 16.5 20.1 19.9 18.6 22.6 C17.7 24.2 15.1 29.9 13.3 31.6 C12.7 32.2 12.2 31.1 11 29.5 C9.9 28.1 8.1 26.8 8.2 26.4 z" opacity="0.5" id="s1" fill="#66493D" /></g></g><g transform="translate(96.49998, 81.89996) translate(100.9, 24.5) scale(-1, 1) translate(-100.9, -24.5) translate(82.40002, 0)" id="t1"><g transform="translate(18.19189, 24.4854) scale(-1, 1) rotate(-7, 0, 0) translate(-18.19189, -24.4854) translate(2.691893, 2.485396)" id="u1"><path d="M5.4 26.9 C1.8 24.9 1 24.8 2.3 21.6 C3.6 18.4 6.1 18.9 8.7 16.4 C11.3 13.9 17.2 9.7 21.1 7.8 C25 5.9 27.4 3.6 29.4 5.8 C31.4 8 32.8 14 31.7 20.1 C30.7 26.2 27.1 31.6 26.8 34.5 C26.4 37.4 25.6 41.8 23.9 44.1 C23.4 44.8 21.9 46.5 21 47 C19.1 47.9 18.5 47.3 17.1 43.7 C16.8 42.8 17 42 16.7 41.2 C15.3 37.5 14.2 35.4 12.3 33.5 C9.9 31.1 9 29 5.4 26.9 z" id="v1" fill="#66493D" /><path d="M5.4 26.9 C1.8 24.9 1 24.8 2.3 21.6 C3.6 18.4 6.1 18.9 8.7 16.4 C11.3 13.9 17.2 9.7 21.1 7.8 C25 5.9 27.4 3.6 29.4 5.8 C31.4 8 32.8 14 31.7 20.1 C30.7 26.2 27.1 31.6 26.8 34.5 C26.4 37.4 25.6 41.8 23.9 44.1 C23.4 44.8 21.9 46.5 21 47 C19.1 47.9 18.5 47.3 17.1 43.7 C16.8 42.8 17 42 16.7 41.2 C15.3 37.5 14.2 35.4 12.3 33.5 C9.9 31.1 9 29 5.4 26.9 z M7.1 25.9 C10.4 27.8 11.2 29.8 13.4 32 C15.1 33.8 16.2 35.7 17.4 39.1 C17.7 39.8 17.5 40.6 17.8 41.4 C19.1 44.7 19.6 45.3 21.4 44.4 C22.2 43.9 23.6 42.4 24.1 41.7 C25.7 39.6 26.4 35.5 26.8 32.8 C27.1 30.1 30.4 25.1 31.3 19.5 C32.3 13.9 31 8.3 29.2 6.3 C27.4 4.3 25.2 6.4 21.6 8.1 C18 9.8 12.6 13.7 10.2 16 C7.8 18.3 5.5 17.8 4.3 20.8 C3.1 23.8 3.8 24.1 7.1 25.9 z" opacity="0.15" id="w1" /><path d="M9.4 25.7 C7.4 24.7 6 24.1 7 21.5 C7.6 20 11.2 17.9 14.6 15.3 C17 13.4 19.9 11.4 21.7 10.4 C24.3 8.9 25.5 7.4 27.2 8.7 C28.8 10 30.2 15.6 29.4 20.3 C28.6 25.1 23.7 36.9 22.4 38.7 C21.1 40.5 19.8 43.5 18.2 39.3 C16.6 35.1 16.3 32.5 14.6 30.7 C12.9 29 11.4 26.8 9.4 25.7 z" id="x1" fill="#AA6F4F" /><path d="M11.5 26.9 C11.6 25.9 12.8 24.9 13 24.5 C13.3 23.9 16 22.3 18.3 20.9 C19.3 20.2 22.3 18.6 22.3 18.6 C23.9 17.7 23.8 21.1 22.3 23.8 C21.4 25.4 18.8 31.1 17 32.8 C15.8 33.9 14.9 30.4 14.4 30.5 C13.3 28.9 11.4 27.8 11.5 26.9 z" opacity="0.5" id="y1" fill="#66493D" /></g></g><g id="z1"><g transform="translate(91.50001, 118.4) translate(51, 9)" id="a2"><g id="b2"><path d="M10.8 81.4 C13.9 81.7 18 81.9 20.4 80.6 C23.1 79.2 24.6 77.8 26.8 75.4 C29.3 78.9 31.4 80 34.6 81.4 C37.6 82.8 41.6 81.8 44 81.1 C46.5 80.3 52.2 77.1 52.7 73.4 C53.4 69.2 53.9 64.2 52 57.1 C50.4 51 42.8 47.8 39.1 43.8 C36.4 40.9 32.8 30.2 32.5 28.5 C31.7 25.1 31.8 21.5 33 14.4 C34.2 6.8 39.1 4.5 39.1 2 C39.1 -0.4 34 4 27.9 4.1 C21.8 4.2 15.2 -1.3 15.2 2 C15.2 5.4 20.2 7.8 21.2 13.4 C22.2 19.1 22.2 22 21.2 27.9 C20.6 31.4 17.1 41.7 13.8 44.3 C8.1 48.8 1.3 53.2 0.6 59.8 C0 66.5 -0.7 70.2 1.2 74 C3.5 78.8 7.7 81 10.8 81.4 z" id="c2" fill="#F9F9F9" /><path d="M10.8 81.4 C7.7 81 3.5 78.8 1.1 74 C-0.8 70.2 -0.1 66.4 0.5 59.8 C1.2 53.2 8.1 48.8 13.7 44.3 C17 41.7 20.5 31.4 21.1 27.9 C22.1 21.9 22.1 19.1 21.1 13.4 C20.1 7.7 15.1 5.3 15.1 2 C15.1 -1.3 21.8 4.2 27.8 4.1 C34 3.9 39.1 -0.4 39.1 1.9 C39.1 4.4 34.2 6.8 33 14.3 C31.8 21.5 31.7 25 32.5 28.4 C32.8 30.1 36.4 40.8 39.1 43.7 C42.8 47.7 50.4 51 52 57 C53.9 64.1 53.4 69.1 52.7 73.3 C52.1 77 46.4 80.2 44 81 C41.5 81.7 37.5 82.7 34.6 81.3 C31.4 79.9 29.3 78.8 26.8 75.3 C24.6 77.7 23.1 79.1 20.4 80.5 C17.9 81.9 13.9 81.7 10.8 81.4 z M11.6 78.4 C14.5 78.7 18.4 78.9 20.7 77.6 C21.9 77 23.5 75.5 24.5 73.2 C25.7 70.4 26.3 66.8 27.4 65.5 C28.5 67.1 28.6 70.4 29.5 72.9 C30.6 75.7 32.6 77.6 34.2 78.3 C37.1 79.6 40.9 78.7 43.1 78 C45.5 77.2 50.9 74.2 51.4 70.7 C52.1 66.7 52.3 63.8 50.5 57.1 C49 51.3 41.9 47.9 38.5 44.1 C35.9 41.3 31.9 29.8 31.6 28.1 C30.8 24.9 31.1 20.2 32.2 13.5 C33.3 6.3 37.6 5.2 37.6 2.8 C37.6 0.5 33.6 4.7 27.8 4.8 C22 4.9 16.7 -0.2 16.7 2.9 C16.7 6.1 21 7 21.9 12.3 C22.9 17.7 23 22.4 22 28.1 C21.4 31.4 17.8 42.5 14.6 45 C9.2 49.3 2.6 52.4 1.9 58.6 C1.3 65 0.5 67.6 2.3 71.2 C4.7 75.9 8.6 78 11.6 78.4 z" opacity="0.15" id="d2" /></g></g><g transform="translate(87.2, 110.3) translate(74, 77)" id="e2"><path d="M7.5 1.5 C7.7 3.9 7.8 5.6 7.8 6.6 C7.8 7.6 7.5 9.5 7 12.1 C4.4 14.2 2.6 16 1.7 17.5 C0.4 19.8 -0.1 20.5 0.4 20.8 C0.7 21.1 2.4 18.9 4.9 17.7 C5.9 17.2 7.4 16.9 8.5 16.9 C9.8 16.9 11.5 17.4 12.7 18.1 C14.8 19.3 16 21 16.4 20.9 C16.9 20.7 15.7 17.6 13.2 15.4 C11.6 13.9 10.5 12.9 10 12.2 C9.7 9.6 9.6 7.8 9.6 6.6 C9.6 5.4 9.7 3.6 9.9 1.3 C10.5 0.4 10.1 0 8.7 0 C7.3 0 6.9 0.5 7.5 1.5 z" id="f2" /></g><g transform="translate(103.2, 118.4) translate(56, 60)" id="g2"><g id="h2"><path d="M0.9 8.2 C2.5 12.2 3.6 15.3 5.8 16 C8 16.7 12.1 16.7 13.8 15.9 C15.5 15.2 20.4 8.5 20.8 6.1 C21.1 3.7 19.1 2.6 17.2 1.5 C15.4 0.3 9.6 0.3 7.1 0.3 C4.6 0.3 -0.7 4.1 0.9 8.2 z" id="i2" fill="#353535" /><path d="M13.5 3.2 C13.5 5.7 14.3 8 15.3 7.8 C16 7.7 16.8 6.9 17.7 5.5 C14.9 2.3 13.5 1.6 13.5 3.2 z" id="j2" fill="#FFF3F3" /></g></g><g transform="translate(151.5, 155.0999) scale(0.8) translate(-151.5, -155.0999) translate(102.6, 107.3) translate(32, 17)" id="k2"><g id="l2"><path d="M16 8.1 C16.9 10.9 17.1 10.4 19.3 10.1 C20.1 10 21.3 8.5 22.6 7.4 C23.3 6.8 24.5 6 26.2 4.8 C26.2 2.2 25.8 0.9 25 1 C20.3 1.6 15.5 6.6 16 8.1 z" id="m2" fill="#353535" /><g transform="translate(0, 14)" id="n2"><path d="M5.2 12.9 C2.3 21.5 0.7 32.8 0.7 35.5 C0.7 38.2 1.9 39.3 3.6 39.7 C5.3 40.1 9.7 38.3 15.4 35.5 C21.1 32.7 25.5 30.9 26.9 26.4 C28.3 21.8 26.9 7.2 26.9 5.4 C26.9 3.5 23.5 0.5 20 0.6 C16.5 0.6 8.1 4.3 5.2 12.9 z" id="o2" fill="#AA6F4F" /><path d="M17.2 31.3 C25.2 27.8 23.7 25.9 23.7 19.4 C23.7 12.9 23.6 6 20 6 C16.4 6 10.8 12.8 10.8 19.4 C10.7 26 9.1 34.8 17.2 31.3 z" id="p2" fill="#353535" /><path d="M18.3 12.7 C19 15.5 18.7 20.5 17 21.7 C16.6 22 15.4 22.5 15.1 21.7 C14.2 19.7 14.6 14.6 15.1 12.7 C15.2 12.3 15.8 11.7 16.5 11.6 C17.5 11.4 18.1 11.5 18.3 12.7 z" id="q2" fill="#FFF" /><ellipse cx="15.7" cy="24.9" rx="1" ry="1.5" id="r2" fill="#FFF" /></g></g></g><g transform="translate(185.4, 155.0999) scale(0.8) translate(-185.4, -155.0999) translate(99.3, 106.9) translate(74, 17)" id="s2"><path d="M12.1 8.1 C11.2 10.9 11 10.4 8.8 10.1 C8 10 6.8 8.5 5.5 7.4 C4.8 6.8 3.6 6 1.9 4.8 C1.9 2.2 2.3 0.9 3.1 1 C7.7 1.6 12.6 6.6 12.1 8.1 z" id="t2" fill="#353535" /><path d="M22.8 26.9 C25.7 35.5 27.3 46.8 27.3 49.5 C27.3 52.2 26.1 53.3 24.4 53.7 C22.7 54.1 18.3 52.3 12.6 49.5 C6.8 46.7 2.5 44.9 1.1 40.4 C-0.3 35.8 1.1 21.2 1.1 19.4 C1.1 17.6 4.5 14.6 8 14.7 C11.6 14.6 19.9 18.3 22.8 26.9 z" id="u2" fill="#AA6F4F" /><path d="M10.9 45.3 C2.9 41.8 4.4 39.9 4.4 33.4 C4.4 26.9 4.5 20 8.1 20 C11.7 20 17.3 26.8 17.3 33.4 C17.3 40 18.9 48.8 10.9 45.3 z" id="v2" fill="#353535" /><path d="M7.7 25.7 C7 28.5 6.8 33.5 7.4 34.9 C7.7 35.7 9.8 36.3 10.1 35.5 C11 33.5 11.3 28.5 10.7 26.6 C10.6 26.2 10.1 24.7 9.4 24.6 C8.5 24.4 7.9 24.5 7.7 25.7 z" id="w2" fill="#FFF" /><ellipse cx="8.4" cy="38.9" rx="1" ry="1.5" id="x2" fill="#FFF" /></g></g></g></g></g><defs><g transform="translate(17.09519, 0.800995) translate(-135.2952, -293.601)" id="y2" fill="#000"><path d="M118.2 302.7 C118.4 307.4 132.5 311.2 149.8 311.2 C167.1 311.2 181.2 307.4 181.4 302.7 C181.4 307.5 181.4 310.1 181.4 310.5 C181.4 315.3 167.3 319.1 149.8 319.1 C132.3 319.1 118.2 315.2 118.2 310.5 L118.2 302.7 L118.2 302.7 z" fill-opacity="0.4528" id="z2" fill="#593001" /><path d="M118.7 301.7 C118.9 306.4 133 310.2 150.3 310.2 C167.6 310.2 181.7 306.4 181.9 301.7 C181.9 306.5 181.9 309.1 181.9 309.5 C181.9 314.3 167.8 318.1 150.3 318.1 C132.8 318.1 118.7 314.2 118.7 309.5 L118.7 301.7 L118.7 301.7 z" id="a3" fill="#DA8113" /><linearGradient x1="46.0545" y1="-118.6926" x2="45.4656" y2="-118.6926" gradientUnits="userSpaceOnUse" gradientTransform="matrix(117.135, 0, 0, 28.4634, -5208.417, 3687.795)" id="b3"><stop offset="0%" stop-color="#D9952A" stop-opacity="1" /><stop offset="6.438854%" stop-color="#CA7519" stop-opacity="1" /><stop offset="30.54%" stop-color="#E3AD3A" stop-opacity="1" /><stop offset="51.05%" stop-color="#FFEC91" stop-opacity="1" /><stop offset="68.8%" stop-color="#E9BD44" stop-opacity="1" /><stop offset="86.24%" stop-color="#FFED6C" stop-opacity="1" /><stop offset="93.87%" stop-color="#F2D353" stop-opacity="1" /><stop offset="100%" stop-color="#F2B947" stop-opacity="1" /></linearGradient><path d="M118.2 301.6 C118.4 306.1 132.7 309.7 150.3 309.7 C167.9 309.7 182.2 306.1 182.4 301.6 C182.4 306.2 182.4 308.7 182.4 309 C182.4 313.5 168 317.2 150.3 317.2 C132.6 317.2 118.2 313.5 118.2 309 L118.2 301.6 L118.2 301.6 z" id="c3" style="fill:url(#b3)" /><linearGradient x1="45.4914" y1="-117.9547" x2="45.9407" y2="-117.5895" gradientUnits="userSpaceOnUse" gradientTransform="matrix(115.425, 0, 0, 29.925, -5125.077, 3826.124)" id="d3"><stop offset="0%" stop-color="#F4E072" stop-opacity="1" /><stop offset="100%" stop-color="#DB9427" stop-opacity="1" /></linearGradient><ellipse cx="150.3" cy="301.5" rx="31.6" ry="8.2" id="e3" style="fill:url(#d3)" /><linearGradient x1="45.4656" y1="-126.0065" x2="46.0545" y2="-126.0065" gradientUnits="userSpaceOnUse" gradientTransform="matrix(117.135, 0, 0, 18.6219, -5208.417, 2651.479)" id="f3"><stop offset="0%" stop-color="#D9952A" stop-opacity="1" /><stop offset="6.438854%" stop-color="#CA7519" stop-opacity="1" /><stop offset="30.54%" stop-color="#E3AD3A" stop-opacity="1" /><stop offset="51.05%" stop-color="#FFEC91" stop-opacity="1" /><stop offset="68.8%" stop-color="#E9BD44" stop-opacity="1" /><stop offset="86.24%" stop-color="#FFED6C" stop-opacity="1" /><stop offset="93.87%" stop-color="#F2D353" stop-opacity="1" /><stop offset="100%" stop-color="#F2B947" stop-opacity="1" /></linearGradient><path d="M119.2 299.9 C119 300.2 118.9 300.6 118.9 301 C118.9 305.5 132.9 309.2 150.3 309.2 C167.7 309.2 181.7 305.5 181.7 301 C181.7 300.6 181.6 300.3 181.4 299.9 C182 300.5 182.4 301.2 182.4 301.9 C182.4 306.4 168 310.1 150.3 310.1 C132.6 310.1 118.2 306.4 118.2 301.9 C118.2 301.3 118.6 300.6 119.2 299.9 z" id="g3" style="fill:url(#f3)" /><linearGradient x1="45.196" y1="-121.5895" x2="45.3746" y2="-120.6758" gradientUnits="userSpaceOnUse" gradientTransform="matrix(101.745, 0, 0, 23.94, -4458.332, 3199.41)" id="h3"><stop offset="0%" stop-color="#F8DD61" stop-opacity="1" /><stop offset="100%" stop-color="#EAA330" stop-opacity="1" /></linearGradient><ellipse cx="150.3" cy="300.8" rx="27.8" ry="6.6" id="i3" style="fill:url(#h3)" /><linearGradient x1="45.5694" y1="-134.267" x2="45.0221" y2="-134.267" gradientUnits="userSpaceOnUse" gradientTransform="matrix(101.745, 0, 0, 13.2525, -4458.332, 2077.223)" id="j3"><stop offset="0%" stop-color="#F4CA2F" stop-opacity="1" /><stop offset="51.38%" stop-color="#BF7737" stop-opacity="1" /><stop offset="100%" stop-color="#E4A929" stop-opacity="1" /></linearGradient><path d="M122.6 301.5 C122.5 301.3 122.4 301 122.4 300.8 C122.4 297.2 134.9 294.2 150.2 294.2 C165.5 294.2 178 297.1 178 300.8 C178 301 177.9 301.3 177.8 301.5 C176.3 298.2 164.5 295.6 150.1 295.6 C135.7 295.6 124.1 298.2 122.6 301.5 z" id="k3" style="fill:url(#j3)" /></g></defs><desc>5JJEEE6B22D,BBUgUa1olQGc62NY9krptseMgUiDyC0jMlYKZJTAqhDIP/C0Ui2Jlp3wD0xNUlUQSfEepcTpkv5NU3Q8ZhmEDWygYVIxIANDdG20kgY2+xzxZDwcDtGFW1/ouCGuWib3</desc></svg>