<?xml version="1.0" encoding="utf-8"?><!DOCTYPE svg PUBLIC "-//W3C//DTD SVG 1.1//EN" "http://www.w3.org/Graphics/SVG/1.1/DTD/svg11.dtd"><svg x="0" y="0" width="340px" height="340px" viewBox="0, 0, 340, 340" preserveAspectRatio="xMidYMid" font-size="0" id="a" enable-background="new 0 0 340 340" xmlns="http://www.w3.org/2000/svg" xmlns:xlink="http://www.w3.org/1999/xlink" xmlns:xml="http://www.w3.org/XML/1998/namespace" version="1.1"><g id="b" fill="#000"><g id="c"><g transform="translate(0, 0) translate(0, 224)" id="d"><ellipse cx="168.6" cy="53.1" rx="57.8" ry="12.8" fill-opacity="0.25" id="e" /></g><g id="f"><g transform="translate(110.3, 119.6) translate(21.5, 106.5) scale(-1, 1) translate(-21.5, -106.5) translate(2, 90)" id="g"><g id="h"><path d="M24.9 18.9 C25.5 17.7 25.7 16.6 25.7 15.6 C25.3 16.7 24.6 17.7 23.6 18.4 C24.5 16.6 24.1 14.3 22.7 12.9 C22.5 16.6 20.1 20 19.4 21.4 C18.7 19.5 18 17.6 17.3 15.7 C17.1 17 16.8 18.2 16.6 19.5 C16.3 17.3 16.1 15.1 16.4 12.9 C16.2 13 16 13.2 15.8 13.3 C16.1 9.5 20 5.8 23.5 5.2 C26.7 4.6 31.5 5.6 33.6 8.8 C36.3 13 37.3 22.3 32.1 25.1 C30.4 26 27.3 27.7 26.4 28 C25.5 28.3 23.7 31 23.5 32.5 C22.5 31.6 22.3 30.2 21.1 29.3 C19.3 29.4 16.5 31.7 10 32 C-1.8 32.4 -1.1 25.2 1.9 24.1 C5.4 22.8 12.4 23.9 14.8 24.2 C19.1 24.6 22.9 23.2 24.9 18.9 z" id="i" fill="#FDA75C" /><path d="M15.9 13.9 C16.2 10.1 18.5 3.8 26 3.3 C27 3.2 28.1 3.3 29.2 3.6 C28.2 2.4 26.3 2 25 2.9 C25.9 0.7 28.8 -0.4 31 0.5 C32.6 1.2 35.2 3.1 35 5.8 C36.7 7 38.1 9.2 38.6 11.3 C38.1 11.2 37.7 11 37.2 10.9 C38.6 13.1 39.3 17.4 37.8 20.1 C37.5 19.9 37.3 19.7 37 19.5 C36.8 20.1 35.7 22.4 35.4 22.9 C34.8 25.3 33.5 27.5 31.7 29 C31.9 28.5 32 27.9 31.9 27.3 C31.9 27 31.8 26.6 31.6 26.3 C29.7 26.7 29.4 28.6 28.7 29.5 C28.7 28.9 28.1 28.1 26.5 28.4 C26.9 25.5 30.5 24.9 30.7 23.5 C30.9 24 31.4 24.3 31.9 24.6 C32.2 23.4 32.8 22.4 32.7 20.7 L34.2 21.3 C34.2 19.7 33.3 18.1 31.9 17.2 C32.8 17 33.7 16.8 34.6 16.7 C32.9 15.2 31.2 13.8 29.5 12.3 C30.5 12 31.4 11.8 32.4 11.5 C29.1 9.2 24.1 10 22 11.3 C22 10.2 22.6 8.1 23.3 7.8 C18.6 8.9 16.1 13.7 15.9 13.9 z" id="j" fill="#AA602E" /><path d="M3 23.8 C3.3 23.2 3.8 22.7 4.4 22.4 C6.5 21.6 10.2 22.9 13.2 24 C13.8 24.1 14.4 24.2 14.8 24.2 C19.1 24.6 22.9 23.2 24.9 18.9 C25.5 17.7 25.7 16.6 25.7 15.6 C25.3 16.7 24.6 17.7 23.6 18.4 C24.5 16.6 24.1 14.3 22.7 12.9 C22.5 16.6 20.1 20 19.4 21.4 L17.3 15.7 C17.1 17 16.8 18.2 16.6 19.5 C16.3 17.4 16.1 15.4 16.4 13.3 C16.2 13.7 16 13.9 16 13.9 C16 13.7 16 13.4 16.1 13.1 C16 13.2 16 13.2 15.9 13.2 C16 12.2 16.3 11.2 16.8 10.3 C18 7 20.7 3.6 26.1 3.2 C27.1 3.1 28.2 3.2 29.3 3.5 C28.3 2.3 26.4 1.9 25.1 2.8 C26 0.6 28.9 -0.5 31.1 0.4 C32.7 1.1 35.3 3 35.1 5.7 C36.8 6.9 38.2 9.1 38.7 11.2 C38.2 11.1 37.8 10.9 37.3 10.8 C38.7 13 39.4 17.3 37.9 20 C37.6 19.8 37.4 19.6 37.1 19.4 C36.9 20 35.8 22.3 35.5 22.8 C34.9 25.2 33.6 27.4 31.8 28.9 C32 28.4 32.1 27.8 32 27.2 C32 26.9 31.9 26.5 31.7 26.2 C29.8 26.6 29.5 28.5 28.8 29.4 C28.8 28.8 28.2 28 26.6 28.3 C26.6 28.1 26.7 27.9 26.7 27.8 C26.6 27.8 26.5 27.9 26.5 27.9 C25.6 28.2 23.8 30.9 23.6 32.4 C22.6 31.5 22.4 30.1 21.2 29.2 C19.4 29.3 16.6 31.6 10.1 31.9 C-1.7 32.3 -1 25.1 2 24 C2.2 23.9 2.6 23.8 3 23.8 z M3 23.8 C2 26 3.4 29.9 11.8 29.6 C17.7 29.3 20.3 27.2 21.9 27.1 C23 27.9 22.4 29.5 23.4 30.3 C23.6 28.9 26 26.1 26.8 25.9 C26.9 25.9 26.9 25.9 27 25.8 C27 26 26.9 26.1 26.9 26.3 C28.4 26 28.9 26.8 28.9 27.3 C29.5 26.5 29.8 24.5 31.6 24.1 C31.7 24.2 32.2 24.1 32.4 24.6 C32.7 25.3 32.7 25.8 32.6 26.1 C34.2 24.7 34.6 23.5 35.1 21.3 C35.4 20.8 36.4 18.7 36.6 18.2 C36.9 18.4 37.1 18.6 37.3 18.7 C38.7 16.2 38 12.3 36.8 10.3 C37.3 10.4 37.6 10.6 38.1 10.7 C37.6 8.8 36.4 6.8 34.8 5.7 C35 3.2 32.7 2 31.7 1.2 C29.7 0.4 27.8 0.5 26.4 2 C27.8 1.7 29.5 3 30.4 4.1 C29.4 3.8 27.4 3.6 26.5 3.7 C21.5 4 18.8 7.2 17.8 9.1 C17.3 9.9 16.5 12.6 16.5 12.8 C16.5 12.8 17.1 13 17.3 12.7 C16.9 13.9 16.8 15.1 16.9 16.4 C17.1 15.2 17.3 15.1 17.8 14.4 L19.5 19.8 C20.1 18.5 22.4 15.4 22.6 12 C23.9 13.3 25.2 15.6 24.4 17.2 C25.3 16.6 25.7 15.2 26.1 14.2 C26.3 15.2 26.5 18 25.9 19.1 C24.1 23 21.2 25.5 17.3 25.2 C16.5 25.1 15.1 24.6 13.4 24 C10.5 23.6 6 23.1 3 23.8 z" opacity="0.15" id="k" /></g></g><g transform="translate(123.6, 274.8) scale(1) translate(-123.6, -274.8) translate(-285.9, 63.59998) translate(20, 150)" id="l"><path d="M418 16.4 C418 16.4 415.5 9 413.5 8.1 C411.5 7.2 409.1 5.1 402.7 6.1 C396.3 7.1 391.2 9.7 388.3 13.1 C385.4 16.4 382.6 26.3 385.4 31.7 C387.3 35.3 390.5 40 395.1 45.6 C389.5 45.6 386.3 46.1 385.4 47 C384.1 48.4 382.7 53.9 384.1 57 C385.4 60 387.5 64.2 393.6 63.9 C399.7 63.7 414.1 60.2 416.6 59.1 C419.1 58 417.8 40.7 417.8 39.4 C417.7 13 418 16.4 418 16.4 z" id="m" fill="#AA602E" /><path d="M418 16.4 C418 16.4 417.7 12.9 417.8 39.4 C417.8 40.7 419.1 58 416.6 59.1 C414.1 60.2 399.7 63.7 393.6 63.9 C387.5 64.2 385.4 60 384.1 57 C382.7 53.9 384.1 48.4 385.4 47 C386.3 46.1 389.5 45.6 395.1 45.6 C390.5 40 387.3 35.3 385.4 31.7 C382.6 26.3 385.4 16.4 388.3 13.1 C391.2 9.7 396.3 7.1 402.7 6.1 C409.1 5.1 411.5 7.2 413.5 8.1 C415.5 9.1 418 16.4 418 16.4 z M416.7 16.6 C416.7 16.6 414.4 9.8 412.5 8.9 C410.6 8 408.4 6.1 402.5 7.1 C396.6 8.1 391.9 10.4 389.3 13.6 C386.6 16.6 384 25.8 386.6 30.8 C388.4 34.1 393.9 41.7 398.2 46.8 C393 46.8 387.9 47.2 387.1 48 C385.9 49.3 384.1 51.2 385.4 54.1 C386.6 56.9 388.5 60.7 394.2 60.5 C399.8 60.3 413.1 57.1 415.4 56.1 C417.7 55.1 416.5 39.1 416.5 37.9 C416.4 13.5 416.7 16.6 416.7 16.6 z" opacity="0.15" id="n" /></g><g transform="translate(215, 274.8) scale(1) translate(-215, -274.8) translate(-285.9, 63.59998) translate(106.5, 179.5) scale(-1, 1) translate(-106.5, -179.5) translate(89, 150)" id="o"><path d="M-348.6 16.4 C-348.6 16.4 -351.1 9 -353.1 8.1 C-355.1 7.2 -357.5 5.1 -363.9 6.1 C-370.3 7.1 -375.4 9.7 -378.3 13.1 C-381.2 16.4 -384 26.3 -381.2 31.7 C-379.3 35.3 -376.1 40 -371.5 45.6 C-377.1 45.6 -380.3 46.1 -381.2 47 C-382.5 48.4 -383.9 53.9 -382.5 57 C-381.2 60 -379.1 64.2 -373 63.9 C-366.9 63.7 -352.5 60.2 -350 59.1 C-347.5 58 -348.8 40.6 -348.8 39.3 C-348.8 13 -348.6 16.4 -348.6 16.4 z" id="p" fill="#AA602E" /><path d="M-348.6 16.4 C-348.6 16.4 -348.8 12.9 -348.8 39.3 C-348.8 40.6 -347.5 58 -350 59.1 C-352.5 60.2 -366.9 63.7 -373 63.9 C-379.1 64.2 -381.2 60 -382.5 57 C-383.9 53.9 -382.5 48.4 -381.2 47 C-380.3 46.1 -377.1 45.6 -371.5 45.6 C-376.1 40 -379.3 35.3 -381.2 31.7 C-384 26.3 -381.2 16.4 -378.3 13.1 C-375.4 9.7 -370.3 7.1 -363.9 6.1 C-357.5 5.1 -355.1 7.2 -353.1 8.1 C-351.1 9.1 -348.6 16.4 -348.6 16.4 z M-350 16.5 C-350 16.5 -352.3 9.7 -354.1 8.9 C-355.9 8.1 -358.1 6.1 -364 7.1 C-369.9 8.1 -374.6 10.3 -377.3 13.5 C-380 16.5 -382.5 25.6 -380 30.6 C-378.2 33.9 -373.6 41.1 -369.3 46.3 C-374.4 46.3 -379 47.1 -379.8 48 C-381 49.3 -382.4 51 -381.1 53.9 C-379.9 56.7 -378 60.5 -372.4 60.2 C-366.8 60 -353.5 56.8 -351.2 55.8 C-348.9 54.8 -350.1 38.8 -350.1 37.6 C-350.2 13.4 -350 16.5 -350 16.5 z" opacity="0.15" id="q" /></g><g transform="translate(-285.9, 63.59998) translate(26, 89)" id="r"><path d="M397 32.1 C391 38.3 389.6 53.9 391.7 73.6 C393.8 93.4 398.5 110.6 404.4 118.6 C410.3 126.6 419.1 128.3 429.1 128.3 C439.1 128.3 444.7 128.5 451.9 120.5 C459 112.6 463.7 84.2 465.1 74.4 C466.5 64.7 469.4 41 460.1 32.9 C455.5 28.8 444.8 7 431.3 6.5 C417.8 6 403 26 397 32.1 z" id="s" fill="#D07331" /><path d="M397 32.1 C391 38.3 389.6 53.9 391.7 73.6 C392.6 81.9 396.1 90.6 397.8 97.5 C400.1 107.1 401 114.1 404.4 118.7 C410.3 126.7 419.1 128.4 429.1 128.4 C439.1 128.4 444.7 128.6 451.9 120.6 C459 112.7 463.7 84.3 465.1 74.5 C466.5 64.8 469.4 41.1 460.1 33 C455.5 28.9 444.8 7.3 431.3 6.8 C417.8 6.2 403 26 397 32.1 z" id="t" fill="#D07331" /><path d="M397 32.1 C403 26 417.8 6.2 431.1 6.6 C444.7 7.1 455.4 28.8 459.9 32.8 C469.2 40.9 466.3 64.6 464.9 74.3 C463.5 84.1 458.8 112.5 451.7 120.4 C444.5 128.4 438.9 128.2 428.9 128.2 C418.9 128.2 410.1 126.5 404.2 118.5 C398.3 110.5 393.6 93.2 391.5 73.5 C389.6 53.9 391 38.3 397 32.1 z M398.3 32.4 C392.5 38.4 391.2 53.3 393.2 72.3 C395.2 91.4 399.7 107.8 405.4 115.5 C411.1 123.2 419.5 124.8 429.1 124.8 C438.7 124.8 444.1 125 451 117.3 C457.8 109.7 462.3 82.4 463.7 73 C465 63.7 467.8 40.9 458.9 33.1 C454.3 29.2 444.1 8.5 431 8 C418.2 7.5 404 26.5 398.3 32.4 z" opacity="0.15" id="u" /></g><g fill-rule="evenOdd" transform="translate(129.8, 183.25) scale(1, 1.126682) translate(-129.8, -195) translate(104, 77.39998) translate(65, 163) scale(-1, 1) translate(-65, -163) translate(26, 119)" id="v"><path d="M7.6 1.8 C8.9 0.3 10.2 -1 14.9 6 C16.8 8.8 20 11.5 21.9 14.4 C24.8 18.8 26.1 23.2 28.3 25.5 C31.9 29.2 36 31.9 41.1 31 C46.3 30.1 50.5 22.7 53.3 18 C56.2 13.3 63.6 7.6 66.2 4.7 C68.8 2 69.2 -1.4 72.1 1.4 C75 4.2 78.2 13.6 77.9 17.2 C77.6 20.8 76.9 29 74.5 32.5 C72.1 36 70.7 37.3 70.7 41 C70.7 44.7 66.7 50.6 66.5 53.7 C66.3 56.8 63.3 66.9 63.3 74.7 C63.3 76.3 64.3 78.8 64.4 80.2 C64.7 83.3 66 86.9 60.9 86.9 C55.8 86.9 53.1 87.6 50.2 86.9 C49.2 86.9 46.9 85.8 46.6 84.9 C46.2 83.3 47.4 80.6 47.8 79.3 C48.7 76 51.4 74.1 51.7 73.1 C52.5 70.5 53.4 46.4 53.3 43.8 C50.8 51.6 49.8 53.8 46.2 53.8 C43.8 53.8 41.3 52.5 38.6 50 C36.8 52.6 34.6 53.8 32 53.8 C29.4 53.8 26.2 49.6 22.3 41.1 C23.8 49.4 24.8 55.1 25.1 58 C25.6 62 26.3 66.4 26.4 67.5 C26.5 68.6 26.8 70.4 27.6 73.6 C27.9 74.7 30.5 76.3 31.6 79.7 C32.7 83.1 33.1 85.2 30.6 86.5 C28.1 87.8 27.5 87.6 26.3 87.5 C22.3 87.2 16.6 86.2 15.8 85.5 C14.7 84.7 14.1 80 14.7 77.6 C15.9 72.8 15.2 70.5 15.2 68.6 C15.3 64.4 11.5 50.4 8.7 46.4 C5.9 42.4 7 38.7 6 34.8 C5 30.9 1 27.2 0.9 19.4 C0.8 11.6 6.2 3.2 7.6 1.8 z" id="w" fill="#FDA75C" /><path d="M7.6 1.8 C8.9 0.3 10.2 -1 14.9 6 C16.8 8.8 20 11.5 21.9 14.4 C24.8 18.8 26.1 23.2 28.3 25.5 C31.9 29.2 36 31.9 41.1 31 C46.3 30.1 50.5 22.7 53.3 18 C56.2 13.3 63.6 7.6 66.2 4.7 C68.8 2 69.2 -1.4 72.1 1.4 C75 4.2 78.2 13.6 77.9 17.2 C77.6 20.8 76.9 29 74.5 32.5 C72.1 36 70.7 37.3 70.7 41 C70.7 44.7 66.7 50.6 66.5 53.7 C66.3 56.8 63.3 66.9 63.3 74.7 C63.3 76.3 64.3 78.8 64.4 80.2 C64.7 83.3 66 86.9 60.9 86.9 C55.8 86.9 53.1 87.6 50.2 86.9 C49.2 86.9 46.9 85.8 46.6 84.9 C46.2 83.3 47.4 80.6 47.8 79.3 C48.7 76 51.4 74.1 51.7 73.1 C52.5 70.5 53.4 46.4 53.3 43.8 C50.8 51.6 49.8 53.8 46.2 53.8 C43.8 53.8 41.3 52.5 38.6 50 C36.8 52.6 34.6 53.8 32 53.8 C29.4 53.8 26.2 49.6 22.3 41.1 C23.8 49.4 24.8 55.1 25.1 58 C25.6 62 26.3 66.4 26.4 67.5 C26.5 68.6 26.8 70.4 27.6 73.6 C27.9 74.7 30.5 76.3 31.6 79.7 C32.7 83.1 33.1 85.2 30.6 86.5 C28.1 87.8 27.5 87.6 26.3 87.5 C22.3 87.2 16.6 86.2 15.8 85.5 C14.7 84.7 14.1 80 14.7 77.6 C15.9 72.8 15.2 70.5 15.2 68.6 C15.3 64.4 11.5 50.4 8.7 46.4 C5.9 42.4 7 38.7 6 34.8 C5 30.9 1 27.2 0.9 19.4 C0.8 11.6 6.2 3.2 7.6 1.8 z M10 5 C8.7 6.3 3.7 14.1 3.8 21.3 C3.9 28.5 7.6 31.9 8.5 35.5 C9.5 39.1 8.5 42.5 11 46.2 C13.6 49.9 17.1 62.8 17 66.7 C17 68.5 17.7 70.6 16.6 75 C16 77.3 16.6 81.6 17.6 82.3 C18.3 83 22.1 83.9 25.8 84.2 C26.9 84.3 27.4 85.4 29.7 84.2 C32 83 31.1 81.5 30.1 78.4 C29 75.2 26.7 75.8 26.4 74.7 C25.7 71.8 25.3 67.7 25.2 66.7 C25.1 65.7 24.4 61.1 24 57.4 C23.7 55.1 22.4 47.9 21 41.2 C20.9 40.7 20.7 39.4 21 38.4 C21.3 37.6 22 37.2 21.9 36.7 C25.5 44.5 30.2 53.1 32.6 53.1 C35 53.1 37 51.9 38.7 49.5 C41.2 51.8 43.5 53.1 45.7 53.1 C49 53.1 51.2 47.5 53.5 40.3 C53.5 40.9 54.7 41.7 54.5 44.2 C54 52.4 53.4 71 52.8 72.9 C52.5 73.8 47.8 80 48.1 81.3 C48.4 82.1 48.5 83.6 49.4 83.6 C52.1 84.3 54.6 83.6 59.3 83.6 C64 83.6 62.8 80.3 62.5 77.4 C62.4 76.1 61.5 73.8 61.5 72.4 C61.5 65.2 64.3 55.8 64.4 53 C64.6 50.1 68.3 44.6 68.3 41.2 C68.3 37.8 69.6 36.6 71.8 33.4 C74 30.1 74.7 22.6 75 19.2 C75.2 15.9 72.3 7.2 69.6 4.6 C66.9 2.1 66.6 5.2 64.2 7.7 C61.8 10.4 56.2 15.9 53.5 20.3 C50.9 24.6 45.1 32.5 40.3 33.4 C35.5 34.2 31.5 30.5 28.2 27.1 C26.2 24.9 24.6 20.9 21.9 16.8 C20.1 14.2 18.5 11.5 16.8 8.9 C12.4 2.4 11.2 3.6 10 5 z" opacity="0.15" id="x" /></g></g><g id="y"><g transform="translate(91.10002, 94.99997) translate(37, 0)" id="z"><g id="a1"><path d="M40.1 0.5 C72.4 1 81.8 11.6 81.5 30 C81.2 48.3 80.7 55.1 76.4 61.6 C72.1 68.1 70.7 71.6 67.7 81.7 C64.7 91.8 55.4 91.4 41.7 91.7 C28 92 16 87.5 14.9 80.5 C13.8 73.5 10.1 67.7 5.1 60.9 C0.1 54.1 0.8 35.1 0.7 24.3 C0.6 13.5 7.9 0 40.1 0.5 z" id="b1" fill="#FDA75C" /><g transform="translate(28.16216, 84.51376)" id="c1"><path d="M0.6 6.7 C3.9 8.4 6.8 9.3 9.2 9.4 C12.9 9.6 20.5 9.4 23.4 8.1 C25.4 7.2 26.8 6.8 27.6 6.8 C23.9 3.9 21.4 2.4 20.1 2.2 C18.2 2 12.8 -0.1 11 1.1 C9.2 2.3 5.2 3 4.3 3.8 C3.7 4.3 2.5 5.2 0.6 6.7 z" id="d1" fill="#AA602E" /></g><path d="M55.4 91 C55.5 91.1 55.6 91.2 55.8 91.3 C55 91.3 53.6 91.7 51.6 92.6 C48.7 93.9 41.1 94.1 37.4 93.9 C35 93.8 32.1 92.9 28.8 91.2 C29.1 91 29.3 90.8 29.6 90.6 C21.6 88.9 15.7 85.3 15 80.5 C13.9 73.5 10.2 67.7 5.2 60.9 C0.2 54.1 0.9 35.1 0.8 24.3 C0.7 13.5 7.9 0 40.1 0.5 C72.4 1 81.8 11.6 81.5 30 C81.2 48.3 80.7 55.1 76.4 61.6 C72.1 68.1 70.7 71.6 67.7 81.7 C65.8 87.9 61.6 90.2 55.4 91 z M55 88.8 C61 88 65.2 85.8 67 79.7 C69.9 69.9 71.3 66.5 75.5 60.2 C79.7 53.9 80.2 47.3 80.5 29.5 C80.8 11.6 71.7 1.3 40.3 0.8 C8.8 0.3 1.7 13.4 1.8 23.9 C1.9 34.4 1.2 52.9 6.1 59.5 C11 66.1 14.6 71.7 15.6 78.6 C16.3 83.3 22 86.8 29.8 88.4 C29.6 88.6 29.3 88.8 29.1 89 C32.3 90.7 35.1 91.5 37.5 91.6 C41.1 91.8 48.5 91.6 51.3 90.3 C53.2 89.4 54.6 89 55.4 89 C55.2 89 55.1 88.9 55 88.8 z" opacity="0.15" id="e1" /></g></g><g transform="translate(137.9, 109.2) rotate(10, 0, 0) scale(0.8) translate(-137.9, -115.2) translate(98.00002, 92.29996) translate(13, 8)" id="f1"><path d="M23.1 5.8 C20.1 10.5 14.9 20.5 9.1 29.6 C2.2 36.8 3.5 38.8 1.4 42.3 C-0.7 45.8 -0.7 52.8 5.7 59 C12.1 65.2 17.7 67.5 18.8 71.2 C19.9 74.9 27 79 28.8 79 C30.6 79 35.6 73.9 34.7 71.2 C33.8 68.5 28.8 47.4 28.8 35.6 C28.8 31.8 27.5 17.1 28.8 12.6 C29.9 8.7 29.2 4.4 32.6 1.5 C34.2 0.1 26.1 1.2 23.1 5.8 z" id="g1" fill="#AA602E" /><g id="h1"><path d="M23.1 5.8 C26.1 1.2 34.2 0.1 32.6 1.5 C29.2 4.4 29.9 8.7 28.8 12.6 C27.5 17.1 28.8 31.8 28.8 35.6 C28.8 47.4 33.8 68.5 34.7 71.2 C35.6 73.9 30.6 79 28.8 79 C27 79 19.9 74.9 18.8 71.2 C17.7 67.5 12.1 65.2 5.7 59 C-0.7 52.8 -0.7 45.8 1.4 42.3 C3.5 38.8 2.2 36.8 9.1 29.6 C14.9 20.5 20.1 10.5 23.1 5.8 z M23 8.7 C20.5 12.9 14.6 22.9 9.8 31.1 C4 37.6 5.2 39.4 3.4 42.5 C1.6 45.6 1.9 51.8 7.7 57.1 C13.5 62.4 18.5 64.2 19.6 67.4 C20.7 70.6 25.6 75 28.4 74.5 C31.2 74 32.9 69 32 66.7 C31.1 64.4 27.6 46.2 27.3 35.8 C27.2 32.5 26.3 18.3 27.3 14.3 C28.1 10.8 28.8 5.7 30.4 2.6 C31.6 0.7 25.5 4.5 23 8.7 z" fill-opacity="0.3" id="i1" /></g></g><g transform="translate(198.9, 108.2) rotate(-10, 0, 0) scale(0.8) translate(-198.9, -114.2) translate(73.30003, 91.49997) translate(109, 8)" id="j1"><path d="M20.2 5.8 C23.2 10.5 28.4 20.5 34.2 29.6 C41.1 36.8 40.1 38.8 42.2 42.3 C44.3 45.8 43.9 52.8 37.6 59 C31.3 65.2 25.6 67.5 24.5 71.2 C23.4 74.9 16.2 79 14.4 79 C12.6 79 7.6 73.9 8.5 71.2 C9.4 68.5 14.4 47.4 14.4 35.6 C14.4 31.8 15.7 17.1 14.4 12.6 C13.3 8.7 13.3 4.5 9.9 1.5 C8.4 0.2 17.2 1.2 20.2 5.8 z" id="k1" fill="#AA602E" /><path d="M20.2 5.8 C23.2 10.5 28.4 20.5 34.2 29.6 C41.1 36.8 40.1 38.8 42.2 42.3 C44.3 45.8 43.9 52.8 37.6 59 C31.3 65.2 25.6 67.5 24.5 71.2 C23.4 74.9 16.2 79 14.4 79 C12.6 79 7.6 73.9 8.5 71.2 C9.4 68.5 14.4 47.4 14.4 35.6 C14.4 31.8 15.7 17.1 14.4 12.6 C13.3 8.7 13.3 4.5 9.9 1.5 C8.4 0.2 17.2 1.2 20.2 5.8 z M20.6 8.8 C18 4.7 10.2 1 11.5 2.1 C14.5 4.8 15.2 9.5 16.1 12.9 C17.2 16.9 16.8 30.9 16.8 34.2 C16.6 44.7 12.4 64.8 11.5 67.2 C10.7 69.6 14.5 72.7 16.1 72.7 C17.7 72.7 24.1 69.2 25.2 65.9 C26.2 62.6 31.3 60.7 37 55.3 C42.7 49.9 41.8 43.9 40 40.8 C38.2 37.7 38.7 36 32.7 29.5 C27.7 21.5 23.2 13 20.6 8.8 z" fill-opacity="0.3" id="l1" /></g><g id="m1"><g transform="translate(108.7, 95.69997) translate(39, 34)" id="n1"><path d="M43.8 25.9 C34.9 27 32.1 15 29.6 9.5 L28.8 25.7 C28.5 29.8 24.5 32.1 21.1 31.9 C17.7 32.1 14.9 28.9 14.9 25.7 C14.9 23.6 14.8 18.2 14.5 9.5 C12.1 15 9.2 26.8 0.3 25.7 L1.2 29.7 C1.6 32 2 34.8 2.4 38.3 C3.5 48.9 9.9 52 22.1 52 C34.4 51.9 40.8 48.9 41.8 38.3 C42.2 34.8 42.6 32 43 29.7 L43.8 25.9 z" id="o1" fill="#FFF" /><path d="M43.8 25.9 L43 29.7 C42.6 32 42.2 34.8 41.8 38.3 C40.8 48.9 34.4 51.9 22.1 52 C9.9 52 3.5 48.9 2.4 38.3 C2 34.8 1.6 32 1.2 29.7 L0.3 25.7 C9.2 26.8 12.1 15 14.5 9.5 C14.8 18.2 14.9 23.6 14.9 25.7 C14.9 28.9 17.7 32.1 21.1 31.9 C24.5 32.1 28.5 29.8 28.8 25.7 L29.6 9.5 C32.1 15 34.9 27 43.8 25.9 z M42.8 26.7 C34.6 27.7 32.5 17.4 30.2 12.2 L29.6 27.3 C29.3 31.1 25.2 33.1 22.1 32.9 C19 33.1 14.3 29.4 14.3 26.4 C14.3 24.4 14.1 19.9 14.1 11.8 C11.9 16.9 10.3 27.5 2.1 26.5 L3 30.5 C3.4 32.7 3.7 33.9 4 37.1 C5 47.1 10.9 50 22.1 50 C33.4 49.9 39.3 47.1 40.2 37.2 C40.6 33.9 41.1 32.3 41.5 30.1 L42.8 26.7 z" opacity="0.15" id="p1" /></g><g transform="translate(109.4, 77.09996) translate(39, 80)" id="q1"><path d="M0.8 2.5 C0.9 3.5 1.7 5.7 2.3 7 C3.9 10.9 6.6 13.2 7.4 13.8 C11 16.7 14.3 16.6 21.5 16.6 C30.5 16.7 31.2 15.6 35.8 13.1 C41.7 9.9 42.9 1.6 42.9 0.8 C42.8 0 41.9 0 41.8 0.5 C41.6 1.1 41.7 2.5 41.5 3.1 C41.1 5 40.6 6 39.9 6.7 C38.1 8.6 35 10.2 32.4 10.3 C28.3 10.4 25.9 7.6 23.6 4.2 C23.3 3.7 22.6 3.4 21.4 3.1 C20.3 3.4 19.6 3.8 19.2 4.2 C16 7.9 13.7 10.6 11 10.6 C8.1 10.6 5.1 9 3.8 6.5 C3.2 5.2 2.5 3.9 1.9 1.6 C1.9 1.1 0.7 1.4 0.8 2.5 z" fill-opacity="0.1" id="r1" fill="#010101" /><g transform="translate(5, 7)" id="s1"><path d="M0.6 5.8 C5.2 7.6 9 7.6 11.9 5.8 C13.9 4.6 15.2 3.4 15.7 2.2 C15.9 1.8 16.1 1.5 16.3 1.2 C16.8 2.5 18.2 4 20.5 5.8 C22.8 7.6 26.5 7.6 31.6 5.8 C26.6 12.8 21.3 16.3 15.8 16.3 C10.3 16.3 5.3 12.8 0.6 5.8 z" id="t1" fill="#424242" /><path d="M8.8 13.5 L8.8 6.9 C10.6 6.3 11.7 5.9 12.2 5.6 C13.3 4.9 14.7 3.2 16.2 0.6 C18 3.2 19.7 4.9 21 5.8 C21.5 6.1 22.4 6.5 23.9 7 L23.9 13.5 C27.1 22.1 24.6 26.2 16.4 26 C8.4 25.7 5.8 21.6 8.8 13.5 z" id="u1" fill="#FFB8B3" /></g></g><g transform="translate(169.8, 164.0999) scale(0.8) translate(-169.8, -164.0999) translate(91.7, 96.49996) translate(68, 59)" id="v1"><g id="w1"><path d="M10.5 0.5 C14.8 0.5 15.9 0.9 19.1 3.2 C22.3 5.5 21 9.5 19.6 11.9 C19 12.6 18 13.2 17 14.5 C16.2 15.5 15.5 17.3 14.6 17.9 C13.3 18.8 12.1 19.2 10.3 19.1 C8.5 19.1 7 18.6 5.8 17.9 C3.8 16.7 3.3 15.1 2.5 13.6 C2 12.7 0.5 11.3 0.1 10.1 C-0.6 8.1 -0.9 5.9 0.3 4 C2.3 1 6.1 0.5 10.5 0.5 z" id="x1" fill="#282421" /><path d="M2.6 4.4 C2.6 4.8 4.5 3.9 6.7 3.5 C7.7 3.3 8.8 3.2 10.3 3.2 C11.8 3.2 14.1 4.2 13.7 4.8 C13.1 5.7 13.5 7.1 15.1 7.5 C15.8 7.6 16.4 7.6 17.3 7.3 C18.2 6.9 18.4 6.3 18.5 5.7 C18.6 5.1 18.6 4.3 17.3 3.6 C17 3.4 15.6 2.4 13.8 2.2 C11.6 2 9.8 2 8.2 2.2 C6.6 2.4 5.4 2.6 4.5 3 C3.2 3.6 2.6 4.2 2.6 4.4 z" id="y1" fill="#FFF" /></g></g><g transform="translate(103.6, 56.89996)" id="z1"><g transform="translate(18, 29)" id="a2"><path d="M23.6 41.6 C25.6 38.1 29.7 36 33.7 36.5 C37.7 37 41.2 39.9 42.3 43.8 C43.4 47.6 42.9 51.8 39.2 53.1 C35.8 54.4 27.9 54.9 24.5 52.9 C21 50.8 21.6 45.1 23.6 41.6 z" id="b2" fill="#FBD291" /><path d="M9 21.2 C15.5 14.3 18.6 13 26.7 11.8 C24 10.9 25 9.4 20.1 8.3 C23.4 5.7 26.9 7 31.1 7.1 C33.9 7.2 36.3 7 38.8 8.5 C38.9 5.8 38.7 3.1 38.3 0.5 C44.7 5.4 47.5 16 47.5 24.1 C47.5 37.4 43 52.3 41.7 50.8 C38.4 44.3 34.3 37.9 29.3 36.9 C27.4 36.5 24.3 37.6 22.7 38.8 C16.9 43.3 14.1 50.6 14.7 57.5 C13.6 57.7 12.6 57.9 11.5 58.1 C10.6 54.2 10.7 50.7 11.5 46.8 C8.3 49.2 6 52.7 4.9 56.5 C3.8 51 4.9 45 7.9 40.2 C4.4 40.8 2.5 44 1.3 47 C-0.3 40.3 3.7 26.9 9 21.2 z" id="c2" fill="#FBD291" /><path d="M22.8 38.9 C17.5 42.1 14.2 50.7 14.8 57.6 C13.7 57.8 12.7 58 11.6 58.2 C10.7 54.3 10.8 50.8 11.6 46.9 C8.4 49.3 6.1 52.8 5 56.6 C3.8 51.1 4.9 45.1 7.9 40.3 C4.4 40.9 2.5 44.1 1.3 47.1 C-0.3 40.3 3.7 26.9 9 21.2 C15.5 14.3 18.6 13 26.7 11.8 C24 10.9 25 9.4 20.1 8.3 C23.4 5.7 26.9 7 31.1 7.1 C33.9 7.2 36.3 7 38.8 8.5 C38.9 5.8 38.7 3.1 38.3 0.5 C44.7 5.4 47.5 16 47.5 24.1 C47.5 30.5 46.6 36.5 45.6 41.1 C44.6 46 43.6 49.4 41.1 52 C40.6 52.4 40 52.8 39.2 53.1 C35.8 54.4 27.9 54.9 24.5 52.9 C21 50.8 21.6 45.1 23.6 41.6 C24.9 39.3 27.1 37.6 29.6 36.9 C26.9 37.1 24.3 38 22.8 38.9 z M29.3 35.4 L34 36.3 C31.7 37 26.9 38.5 25.6 40.7 C23.7 44 21.9 48.7 25.2 50.7 C28.4 52.6 35.1 51.9 38.3 50.7 C39 50.4 39.6 50.1 40.1 49.7 C44.6 44.9 46.1 36 46.1 23.5 C46.1 15.9 45.3 7.3 39.3 2.7 C39.7 5.1 39.4 7.9 39.3 10.5 C37 9.1 34.7 8.5 32 8.4 C28.1 8.3 25.3 5.9 22.2 8.3 C26.8 9.3 26.4 11.4 28.9 12.2 C21.3 13.3 17.4 14.3 11.3 20.8 C6.4 26 0.8 35.9 2.3 42.3 C3.4 39.5 6.9 38.8 10.2 38.2 C7.4 42.7 4.5 46.9 5.6 52 C6.6 48.4 9.4 47.1 12.4 44.8 C11.6 48.5 11.6 51.8 12.4 55.4 C13.4 55.2 13.1 55.1 14.1 54.9 C13.5 48.4 18 40.3 22.9 37.3 C24.3 36.4 26.7 35.7 29.3 35.4 z" opacity="0.15" id="d2" /><circle cx="32.5" cy="45.2" r="6.7" id="e2" fill="#282421" /><path d="M33.4 47 C34.4 47 35.2 46.2 35.2 45.2 C35.2 44.2 34.4 43.4 33.4 43.4 C32.4 43.4 31.6 44.2 31.6 45.2 C31.6 46.2 32.4 47 33.4 47 z" id="f2" fill="#FFF" /><path d="M29.4 40.7 C30.6 40 33.1 39 33.4 40 C33.7 41.2 31.9 40.9 30.7 41.9 C29.4 43 29 43.4 28.3 44.2 C27.7 44.8 27.3 42 29.4 40.7 z" id="g2" fill="#FFF" /></g></g><g transform="translate(103, 56.89996) translate(67, 29)" id="h2"><g id="i2"><path d="M24.4 41.6 C22.4 38.1 18.3 36 14.3 36.5 C10.3 37 6.8 39.9 5.7 43.8 C4.6 47.6 5.1 51.8 8.8 53.1 C12.2 54.4 20.1 54.9 23.5 52.9 C27 50.8 26.4 45.1 24.4 41.6 z" id="j2" fill="#FBD291" /><circle cx="15.5" cy="45.2" r="6.7" id="k2" fill="#282421" /><path d="M14.6 47 C13.6 47 12.8 46.2 12.8 45.2 C12.8 44.2 13.6 43.4 14.6 43.4 C15.6 43.4 16.4 44.2 16.4 45.2 C16.4 46.2 15.6 47 14.6 47 z" id="l2" fill="#FFF" /><path d="M18.6 40.7 C17.4 40 14.9 39 14.6 40 C14.3 41.2 16.1 40.9 17.3 41.9 C18.6 43 19 43.4 19.7 44.2 C20.3 44.8 20.7 42 18.6 40.7 z" id="m2" fill="#FFF" /><path d="M38.9 21.2 C32.4 14.3 29.3 13 21.2 11.8 C23.9 10.9 22.9 9.4 27.8 8.3 C24.5 5.7 21 7 16.8 7.1 C14 7.2 11.6 7 9.1 8.5 C9 5.8 9.2 3.1 9.6 0.5 C3.2 5.4 0.4 16 0.4 24.1 C0.4 37.4 3.8 46.9 5.7 50.1 C5.8 34.3 19.9 35.7 25.1 38.8 C30.3 41.9 33.7 50.6 33.1 57.5 C34.2 57.7 35.2 57.9 36.3 58.1 C37.2 54.2 37.1 50.7 36.3 46.8 C39.5 49.2 41.8 52.7 42.9 56.5 C44.1 51 43 45 40 40.2 C43.5 40.8 45.4 44 46.6 47 C48.1 40.3 44.2 26.9 38.9 21.2 z" id="n2" fill="#FBD291" /><path d="M25.1 38.9 C30.4 42.1 33.7 50.7 33.1 57.6 C34.2 57.8 35.2 58 36.3 58.2 C37.2 54.3 37.1 50.8 36.3 46.9 C39.5 49.3 41.8 52.8 42.9 56.6 C44.1 51.1 43 45.1 40 40.3 C43.5 40.9 45.4 44.1 46.6 47.1 C48.2 40.3 44.2 26.9 38.9 21.2 C32.4 14.3 29.3 13 21.2 11.8 C23.9 10.9 22.9 9.4 27.8 8.3 C24.5 5.7 21 7 16.8 7.1 C14 7.2 11.6 7 9.1 8.5 C9 5.8 9.2 3.1 9.6 0.5 C3.2 5.4 0.4 16 0.4 24.1 C0.4 31.8 1.6 38.6 3 43.6 C4 47.3 5.5 50.3 6.8 52 C7.3 52.4 7.9 52.8 8.7 53.1 C12.1 54.4 20 54.9 23.4 52.9 C26.9 50.8 26.3 45.1 24.3 41.6 C23 39.3 20.8 37.6 18.3 36.9 C21.1 37.1 23.6 38 25.1 38.9 z M18.7 35.4 L14 36.3 C16.3 37 21.1 38.5 22.4 40.7 C24.3 44 26.1 48.7 22.8 50.7 C19.6 52.6 12.9 51.9 9.7 50.7 C9 50.4 8.4 50.1 7.9 49.7 C3.4 44.9 1.9 36 1.9 23.5 C1.9 15.9 2.7 7.3 8.7 2.7 C8.3 5.1 8.6 7.9 8.7 10.5 C11 9.1 13.3 8.5 16 8.4 C19.9 8.3 22.7 5.9 25.8 8.3 C21.2 9.3 21.6 11.4 19.1 12.2 C26.7 13.3 30.6 14.3 36.7 20.8 C41.7 26.2 47.3 36.1 45.8 42.5 C44.7 39.7 41.2 39 37.9 38.4 C40.7 42.9 43.6 47 42.5 52.2 C41.5 48.6 38.7 47.3 35.7 45 C36.5 48.7 36.5 52 35.7 55.6 C34.7 55.4 35 55.3 34 55.1 C34.6 48.6 30.1 40.5 25.2 37.5 C23.6 36.4 21.2 35.7 18.7 35.4 z" opacity="0.15" id="o2" /></g></g></g></g></g></g><defs><g transform="translate(17.09519, 0.800995) translate(-135.2952, -293.601)" id="p2" fill="#000"><path d="M118.2 302.7 C118.4 307.4 132.5 311.2 149.8 311.2 C167.1 311.2 181.2 307.4 181.4 302.7 C181.4 307.5 181.4 310.1 181.4 310.5 C181.4 315.3 167.3 319.1 149.8 319.1 C132.3 319.1 118.2 315.2 118.2 310.5 L118.2 302.7 L118.2 302.7 z" fill-opacity="0.4528" id="q2" fill="#593001" /><path d="M118.7 301.7 C118.9 306.4 133 310.2 150.3 310.2 C167.6 310.2 181.7 306.4 181.9 301.7 C181.9 306.5 181.9 309.1 181.9 309.5 C181.9 314.3 167.8 318.1 150.3 318.1 C132.8 318.1 118.7 314.2 118.7 309.5 L118.7 301.7 L118.7 301.7 z" id="r2" fill="#DA8113" /><linearGradient x1="46.0545" y1="-118.6926" x2="45.4656" y2="-118.6926" gradientUnits="userSpaceOnUse" gradientTransform="matrix(117.135, 0, 0, 28.4634, -5208.417, 3687.795)" id="s2"><stop offset="0%" stop-color="#D9952A" stop-opacity="1" /><stop offset="6.438854%" stop-color="#CA7519" stop-opacity="1" /><stop offset="30.54%" stop-color="#E3AD3A" stop-opacity="1" /><stop offset="51.05%" stop-color="#FFEC91" stop-opacity="1" /><stop offset="68.8%" stop-color="#E9BD44" stop-opacity="1" /><stop offset="86.24%" stop-color="#FFED6C" stop-opacity="1" /><stop offset="93.87%" stop-color="#F2D353" stop-opacity="1" /><stop offset="100%" stop-color="#F2B947" stop-opacity="1" /></linearGradient><path d="M118.2 301.6 C118.4 306.1 132.7 309.7 150.3 309.7 C167.9 309.7 182.2 306.1 182.4 301.6 C182.4 306.2 182.4 308.7 182.4 309 C182.4 313.5 168 317.2 150.3 317.2 C132.6 317.2 118.2 313.5 118.2 309 L118.2 301.6 L118.2 301.6 z" id="t2" style="fill:url(#s2)" /><linearGradient x1="45.4914" y1="-117.9547" x2="45.9407" y2="-117.5895" gradientUnits="userSpaceOnUse" gradientTransform="matrix(115.425, 0, 0, 29.925, -5125.077, 3826.124)" id="u2"><stop offset="0%" stop-color="#F4E072" stop-opacity="1" /><stop offset="100%" stop-color="#DB9427" stop-opacity="1" /></linearGradient><ellipse cx="150.3" cy="301.5" rx="31.6" ry="8.2" id="v2" style="fill:url(#u2)" /><linearGradient x1="45.4656" y1="-126.0065" x2="46.0545" y2="-126.0065" gradientUnits="userSpaceOnUse" gradientTransform="matrix(117.135, 0, 0, 18.6219, -5208.417, 2651.479)" id="w2"><stop offset="0%" stop-color="#D9952A" stop-opacity="1" /><stop offset="6.438854%" stop-color="#CA7519" stop-opacity="1" /><stop offset="30.54%" stop-color="#E3AD3A" stop-opacity="1" /><stop offset="51.05%" stop-color="#FFEC91" stop-opacity="1" /><stop offset="68.8%" stop-color="#E9BD44" stop-opacity="1" /><stop offset="86.24%" stop-color="#FFED6C" stop-opacity="1" /><stop offset="93.87%" stop-color="#F2D353" stop-opacity="1" /><stop offset="100%" stop-color="#F2B947" stop-opacity="1" /></linearGradient><path d="M119.2 299.9 C119 300.2 118.9 300.6 118.9 301 C118.9 305.5 132.9 309.2 150.3 309.2 C167.7 309.2 181.7 305.5 181.7 301 C181.7 300.6 181.6 300.3 181.4 299.9 C182 300.5 182.4 301.2 182.4 301.9 C182.4 306.4 168 310.1 150.3 310.1 C132.6 310.1 118.2 306.4 118.2 301.9 C118.2 301.3 118.6 300.6 119.2 299.9 z" id="x2" style="fill:url(#w2)" /><linearGradient x1="45.196" y1="-121.5895" x2="45.3746" y2="-120.6758" gradientUnits="userSpaceOnUse" gradientTransform="matrix(101.745, 0, 0, 23.94, -4458.332, 3199.41)" id="y2"><stop offset="0%" stop-color="#F8DD61" stop-opacity="1" /><stop offset="100%" stop-color="#EAA330" stop-opacity="1" /></linearGradient><ellipse cx="150.3" cy="300.8" rx="27.8" ry="6.6" id="z2" style="fill:url(#y2)" /><linearGradient x1="45.5694" y1="-134.267" x2="45.0221" y2="-134.267" gradientUnits="userSpaceOnUse" gradientTransform="matrix(101.745, 0, 0, 13.2525, -4458.332, 2077.223)" id="a3"><stop offset="0%" stop-color="#F4CA2F" stop-opacity="1" /><stop offset="51.38%" stop-color="#BF7737" stop-opacity="1" /><stop offset="100%" stop-color="#E4A929" stop-opacity="1" /></linearGradient><path d="M122.6 301.5 C122.5 301.3 122.4 301 122.4 300.8 C122.4 297.2 134.9 294.2 150.2 294.2 C165.5 294.2 178 297.1 178 300.8 C178 301 177.9 301.3 177.8 301.5 C176.3 298.2 164.5 295.6 150.1 295.6 C135.7 295.6 124.1 298.2 122.6 301.5 z" id="b3" style="fill:url(#a3)" /></g></defs><desc>4K495BAO6F8,32EW0qnid0rYW52Q4+L2byzncha6Y/5jr3m0Mp2tvzcTG41K3NZjkRf3FoU5hZAhWHj7XVRqtTc2Psau5r0vnimbrOCHhaFkHDj0Wc8ZlTin7whvhWQQJQbAphXhegPH1l8KU1L+mGgVjaBcgInWfA==</desc></svg>