<?xml version="1.0" encoding="utf-8"?><!DOCTYPE svg PUBLIC "-//W3C//DTD SVG 1.1//EN" "http://www.w3.org/Graphics/SVG/1.1/DTD/svg11.dtd"><svg x="0" y="0" width="340px" height="340px" viewBox="0, 0, 340, 340" preserveAspectRatio="xMidYMid" font-size="0" id="a" enable-background="new 0 0 340 340" xmlns="http://www.w3.org/2000/svg" xmlns:xlink="http://www.w3.org/1999/xlink" xmlns:xml="http://www.w3.org/XML/1998/namespace" version="1.1"><g id="b" fill="#000"><g id="c"><g transform="translate(0, 0) translate(0, 224)" id="d"><ellipse cx="168.6" cy="53.1" rx="57.8" ry="12.8" fill-opacity="0.25" id="e" /></g><g id="f"><g transform="translate(97.90001, 73.89998) translate(28, 148) scale(-1, 1) translate(-28, -148) translate(0, 127)" id="g"><path d="M52.1 4.6 C47.4 19.1 42.1 27 36.2 28.3 C27.3 30.2 18 29.7 13.9 24.6 C11.2 14.5 14 14.7 15.4 11.9 C16.8 9.1 16.1 4.5 9.2 4.5 C4.6 4.5 1.4 7.4 -0.2 13.3 C-1 16.7 -1.4 19.7 -1.2 22.3 C-1 26.2 0.8 36.4 8.6 40.9 C16.4 45.4 28.6 48.2 43.3 38.5 C53.1 32 56 20.7 52.1 4.6 z" id="h" fill="#D8B285" /><path d="M52.1 4.6 C56 20.7 53.1 32 43.3 38.5 C28.6 48.2 16.4 45.4 8.6 40.9 C0.8 36.4 -1 26.2 -1.2 22.3 C-1.4 19.7 -1 16.7 -0.2 13.3 C1.4 7.4 4.6 4.5 9.2 4.5 C16.1 4.5 16.8 9.1 15.4 11.9 C14 14.7 11.2 14.5 13.9 24.6 C18 29.7 27.3 30.2 36.2 28.3 C42.1 27 47.4 19.1 52.1 4.6 z M51.6 9.5 C47.1 21.3 41 28.4 35.3 29.4 C26.7 30.9 18.3 30.2 14.4 26.1 C10.5 22 11.2 17.1 12.6 14.8 C14 12.5 15.5 6.3 8.8 6.3 C4.4 6.3 2.5 8.3 1 13.1 C0.2 15.9 0.3 21.1 0.5 23.2 C0.7 26.4 1.8 35.6 9.3 39.2 C16.8 42.9 25.1 46.4 39.2 38.5 C48.6 33.1 55.4 22.6 51.6 9.5 z" opacity="0.15" id="i" /></g><g transform="translate(124.5, 269.5) scale(1.021775) translate(-124.5, -269.5) translate(111.1, 97.09998) translate(6, 119)" id="j"><path d="M13.6 44.9 C13.6 44.8 13.6 44.7 13.7 44.6 L13.8 44.7 C19.6 37.5 9.4 37.9 3.9 31.7 C1 24.9 -1.7 19.5 4.1 11.4 C8.9 4.8 20.2 -1.7 29.3 0.5 C41.5 11.5 37 28.6 34.1 35.5 C32.2 40.1 33.5 45.8 32.3 50.4 C32 51.5 26.8 55.2 23.3 54.2 C19.7 53.2 8.9 46.6 13.6 44.9 z" id="k" fill="#BD8B6A" /><path d="M2.3 54.9 C-0.1 45.7 8.9 46.6 13.7 45 C13.7 44.9 13.7 44.8 13.8 44.7 L13.9 44.8 C17.6 50.3 25.9 52.2 32.5 50.2 C32.2 51.4 31.2 53.3 30.3 54.3 C27.2 58 15.3 57.2 13.1 57.1 C8.7 56.9 2.8 56.9 2.3 54.9 z" id="l" fill="#806458" /><path d="M28.1 37.6 C16.6 40.3 10.7 29.9 9.1 26 C7.3 21.4 5.8 17.9 10.7 13.2 C14 10.1 29.2 17.6 36.2 28.6 C35.9 31.3 34.4 35.6 33.7 36.5 C32.2 36.4 30.4 37 28.1 37.6 z" id="m" fill="#806458" /><path d="M33.8 36.4 C32.4 40.8 33.4 46 32.3 50.2 C32.4 50.2 32.4 50.2 32.5 50.2 C32.2 51.4 31.2 53.3 30.3 54.3 C27.2 58 15.3 57.2 13.1 57.1 C8.7 56.9 2.8 56.9 2.3 54.9 C0 46.1 8 46.5 13 45.2 C13.1 45.1 13.3 45 13.6 44.9 C13.6 44.8 13.6 44.7 13.7 44.6 L13.8 44.7 C19.6 37.5 9.4 37.9 3.9 31.7 C1 24.9 -1.7 19.5 4.1 11.4 C8.9 4.8 20.2 -1.7 29.3 0.5 C38.9 9.1 38.2 21.5 36 29.8 C35.5 32.3 34.4 35.5 33.8 36.4 z M31 47.3 C31.6 44.7 31.7 39.2 33 35 C33.6 34.1 34.7 31.1 35.1 28.7 C37.2 20.9 37.8 9.1 28.8 0.9 C20.1 -1.1 9.4 5 4.9 11.3 C-0.6 19 1.9 24.1 4.7 30.5 C9.9 36.4 13.3 34.3 16.5 38.9 C19.6 43.6 12.3 46.4 12.1 46.5 C7.4 47.7 3.2 48.1 3.2 52.6 C3.6 54.4 9.2 54.4 13.4 54.6 C15.5 54.7 25.8 55.5 28.8 52 C29.6 51 30.4 49.8 31 47.3 z" opacity="0.15" id="n" /></g><g transform="translate(215.4, 269.5) scale(1.021775) translate(-215.4, -269.5) translate(111, 97.09998) translate(93, 148) scale(-1, 1) translate(-93, -148) translate(74, 119)" id="o"><path d="M13.6 44.9 C13.6 44.8 13.6 44.7 13.7 44.6 L13.8 44.7 C19.6 37.5 9.4 37.9 3.9 31.7 C1 24.9 -1.7 19.5 4.1 11.4 C9 4.8 20.3 -1.7 29.4 0.5 C41.6 11.5 37.1 28.6 34.2 35.5 C32.3 40.1 33.6 45.8 32.4 50.4 C32.1 51.5 26.9 55.2 23.4 54.2 C19.8 53.2 8.9 46.6 13.6 44.9 z" id="p" fill="#BD8B6A" /><path d="M2.3 54.9 C-0.1 45.7 8.9 46.6 13.7 45 C13.7 44.9 13.7 44.8 13.8 44.7 L13.9 44.8 C17.6 50.3 25.9 52.2 32.5 50.2 C32.2 51.4 31.2 53.3 30.3 54.3 C27.2 58 15.3 57.2 13.1 57.1 C8.7 56.9 2.8 56.9 2.3 54.9 z" id="q" fill="#806458" /><path d="M28.1 37.6 C16.6 40.3 10.7 29.9 9.1 26 C7.3 21.4 5.8 17.9 10.7 13.2 C14 10.1 29.2 17.6 36.2 28.6 C35.9 31.3 34.4 35.6 33.7 36.5 C32.3 36.4 30.6 37 28.1 37.6 z" id="r" fill="#806458" /><path d="M34 36 C32.4 40.4 33.5 45.8 32.4 50.2 C32.5 50.2 32.5 50.2 32.5 50.2 C32.2 51.4 31.2 53.3 30.3 54.3 C27.2 58 15.3 57.2 13.1 57.1 C8.7 56.9 2.8 56.9 2.3 54.9 C0 46.1 8 46.5 13 45.2 C13.1 45.1 13.3 45 13.6 44.9 C13.6 44.8 13.6 44.7 13.7 44.6 L13.8 44.7 C19.6 37.5 9.4 37.9 3.9 31.7 C1 24.9 -1.7 19.5 4.1 11.4 C9 4.8 20.3 -1.7 29.4 0.5 C39.9 10 38 23.9 35.5 32 C35 33.6 34.5 35.1 34 36 z M30.9 47.4 C31.9 43.2 31.7 38.8 33.3 34.6 C33.7 33.8 34.2 32.4 34.6 30.9 C37.1 23.2 38.8 9.9 28.9 0.9 C20.2 -1.1 9.5 5 4.9 11.3 C-0.6 19 1.9 24.1 4.7 30.5 C9.9 36.4 12.7 34.1 15.9 38.9 C19.1 43.7 12.5 46.2 12.3 46.3 C7.6 47.6 2 48.1 3.2 52.6 C3.6 54.4 9.2 54.4 13.4 54.6 C15.5 54.7 25.9 56.1 28.9 52.6 C29.7 51.6 30.9 47.4 30.9 47.4 z" opacity="0.15" id="s" /></g><g transform="translate(104.3, 92.09998) translate(20, 65)" id="t"><path d="M85.6 52.6 C84.9 39.4 82.9 36.4 79.1 28 C77.8 25 76.2 22.2 74.6 19.6 C71.9 15.2 68.7 13.4 67.3 10 C64.8 4 60.4 3.2 45.5 3.2 C30.7 3.2 27.2 3.2 24.7 9.2 C23.4 12.4 19.3 14.8 16.7 19.1 C15 21.8 13.4 24.8 11.9 28 C8.1 36.5 6.1 39.5 5.4 52.6 C4.4 70.2 10.5 94.3 17.7 109.3 C20.2 114.5 25.5 118.2 29.1 119 C35.7 120.4 41.6 120.8 45.4 120.7 C49.3 120.8 55.2 120.4 61.7 119 C65.3 118.2 70.6 114.5 73.1 109.3 C80.4 94.2 86.5 70.2 85.6 52.6 z" id="u" fill="#D8B285" /><path d="M67.9 7.9 C65.4 1.9 60.3 0.1 45.5 0.1 C30.7 0.1 25.5 1.9 23.1 7.9 C21.8 11.1 19.3 14.8 16.7 19 C18.9 25 34.4 33.5 45.5 35.4 C56.6 33.5 72.1 25 74.3 19 C71.7 14.8 69.3 11.1 67.9 7.9 z" id="v" fill="#965622" /><path d="M67.9 7.9 C65.4 1.9 60.3 0.1 45.5 0.1 C30.7 0.1 25.5 1.9 23.1 7.9 C21.8 11.1 19.3 14.8 16.7 19 C18.9 25 34.4 33.5 45.5 35.4 C56.6 33.5 72.1 25 74.3 19 C71.7 14.8 69.3 11.1 67.9 7.9 z" opacity="0.15" id="w" fill="#965622" /><path d="M16.7 19.1 C16.7 19 16.7 19 16.7 19 C19.3 14.8 21.8 11.1 23.1 7.9 C25.5 1.9 30.7 0.1 45.5 0.1 C60.3 0.1 65.4 1.9 67.9 7.9 C69.3 11.1 71.7 14.8 74.3 19 C74.3 19 74.3 19.1 74.3 19.1 C74.4 19.2 74.5 19.4 74.6 19.6 C76.2 22.2 77.8 25 79.1 28 C82.9 36.4 84.9 39.4 85.6 52.6 C86.5 70.2 80.4 94.2 73.1 109.3 C70.6 114.5 65.3 118.2 61.7 119 C55.2 120.4 49.3 120.8 45.4 120.7 C41.6 120.8 35.7 120.4 29.1 119 C25.5 118.2 20.2 114.5 17.7 109.3 C10.5 94.3 4.4 70.2 5.4 52.6 C6.1 39.5 8.1 36.5 11.9 28 C13.4 24.8 15 21.8 16.7 19.1 C16.7 19.1 16.7 19.1 16.7 19.1 z M17.9 19.7 C17.9 19.8 17.9 19.8 17.9 19.8 C16.2 22.4 14.7 25.2 13.3 28.3 C9.6 36.5 7.7 39.3 7 51.9 C6.1 68.8 11.9 91.9 18.8 106.3 C21.2 111.3 26.3 114.9 29.8 115.6 C36.1 117 41.8 117.3 45.4 117.3 C49.1 117.3 54.8 117 61 115.6 C64.5 114.9 69.6 111.3 72 106.3 C79 91.8 84.8 68.8 84 51.9 C83.3 39.3 81.4 36.4 77.7 28.3 C76.5 25.4 75 22.8 73.4 20.3 C73.3 20.1 73.2 19.9 73.1 19.8 C73.1 19.7 73.1 19.7 73.1 19.7 C70.6 15.7 68.3 12.1 67 9 C64.6 3.3 59.7 1.6 45.5 1.6 C31.3 1.6 26.3 3.3 24 9 C22.8 12.1 20.4 15.7 17.9 19.7 C17.9 19.7 17.9 19.7 17.9 19.7 z" opacity="0.15" id="x" /></g><g transform="translate(128.616, 180.65) scale(0.9360001, 1.080713) translate(-125.8, -179.3) translate(96.8, 70.99998) translate(73, 157) scale(-1, 1) translate(-73, -157) translate(29, 109)" id="y"><g id="z"><g id="a1"><g opacity="0.21" transform="translate(10, 82)" id="b1"><path d="M1.6 5.5 C2.8 3.7 3.6 1.5 6.5 1.3 C9.4 1.1 11.2 -0.3 14.5 0.2 C17.8 0.7 22 2.4 22 5.5 C22 8.6 22.4 9.6 22 9.8 C19.2 11.2 15.8 11.2 11.7 11.8 C8.3 12.3 1.9 12.1 0.7 11 C0.4 10.1 0.4 7.3 1.6 5.5 z" stroke="#000000" stroke-width="3" opacity="0.21" id="c1" /></g><path d="M11.6 86.5 C12.8 84.7 13.6 82.5 16.5 82.3 C19.4 82.1 21.2 80.7 24.5 81.2 C27.8 81.7 32 83.4 32 86.5 C32 89.6 30.9 90.9 30.5 91.1 C27.7 92.5 25.8 92.2 21.7 92.8 C18.3 93.3 13.5 93.9 12.3 92.8 C11.1 91.9 10.4 88.3 11.6 86.5 z" id="d1" fill="#DDD5CD" /><g opacity="0.2" transform="translate(0, 1)" id="e1"><path d="M10.3 6.6 C10.5 6.4 10.8 6.1 11 6 C11.1 6 11.1 5.9 11.2 5.9 C11.1 6.6 11.2 7.4 11.5 8.2 C11.5 8.3 13.1 9.1 13.9 9.6 C14 10.2 14.1 10.9 14.3 11.5 C14.4 11.8 14.5 12.1 14.7 12.4 C14.8 12.5 15.4 12.7 15.9 12.9 C16.4 13.8 17.1 14.6 18.2 15.2 C18.6 15.4 19.1 15.6 19.4 15.8 C19.6 16.1 20 16.8 20.2 17.1 C21.1 17.6 21.8 17.7 22.3 18.2 C22.9 18.3 23.8 18.6 24.2 18.7 C26.3 20.7 23.8 21.3 25.5 26.3 C25.9 27.5 27.3 30.9 27.9 31.9 C29.1 33.9 33.1 33.9 33.9 36.1 C34.3 37.3 33.8 39.7 34.5 40.5 C35.2 41.3 36.9 42.4 37.2 44.6 C37.3 45.3 34.6 45.8 34.8 47.1 C35 48.4 37.7 50.7 37.8 51.4 C38.3 53.6 34.7 51.4 34.8 53 C34.9 53.8 41.1 59.3 41.5 61.1 C41.6 61.6 40.5 62.4 40 62.2 C39.9 62.6 39.1 62.2 38.4 61.9 C39.1 63.5 39.7 63.4 40 64.3 C40.9 66.7 41.5 66.4 41.8 68.1 C41.9 69 39.4 69.6 39.4 70.3 C39.4 71.1 40.5 73.8 40.5 74.9 C40.2 75.9 38.1 73.7 37.9 74.6 C37.3 77.4 37.2 80.1 36.2 81.5 C35.5 82.5 34.8 84.1 34.1 84.5 C33.5 85.9 27.4 81.8 25.3 81.5 C23.3 81.2 21.3 81.5 19.5 81.5 C18.1 81.5 15.3 83.9 13.2 84.5 C12.9 84.6 12.5 82.9 12.4 82.8 C11.3 81.9 9.8 80.8 7.2 75.3 C4.6 69.8 4.9 67.4 4.6 63.3 C4.3 59.2 1.4 52.8 0.7 47.1 C0 41.4 1.9 30.9 1.9 27.1 C1.9 23.3 3.2 20.6 2.1 15.2 C1.8 13.8 1.1 12.4 1.3 11.5 C2 8.6 5.4 2.1 8 1.2 C12.5 -0.5 10 3 10.3 6.6 z" stroke="#000000" stroke-width="3" opacity="0.2" id="f1" /></g><path d="M8 1.2 C5.4 2.1 1.4 9.5 0.7 12.4 C0.5 13.3 1 14.4 1.3 15.8 C2.4 21.2 1.3 23.5 1.3 27.3 C1.3 31.1 0 41.4 0.7 47.1 C1.4 52.8 4.2 59.2 4.5 63.3 C4.8 67.4 5.4 69.3 8 74.8 C10.6 80.3 11.2 81.9 12.3 82.8 C12.4 82.9 12.9 84.1 13.2 84 C15.3 83.4 17.9 82.3 19.3 82.3 C21.1 82.3 24 82 26 82.3 C28.1 82.6 30.9 85.1 32.2 84.5 C33 84.1 34.6 82.5 35.2 81.5 C36.2 80 36.4 78.7 37 76 C37.2 75.1 37.9 75.7 38.4 74.8 C39 73.7 38.4 71.2 38.4 70.3 C38.4 69.6 40.1 69.5 40 68.6 C39.8 67 40.9 67.5 40 65.1 C39.6 64.1 38.1 63.4 37.5 62 C37 60.9 40.3 63.2 40 62 C39.5 60.2 35.5 55.1 35.3 54.2 C34.9 52.7 37.1 54.7 37.1 53.2 C37 51.5 35.8 50.5 35.3 48.3 C35 47 36.3 46.3 36.1 44.9 C35.7 42.7 34.4 41.4 33.7 40.5 C33 39.7 33.3 37.4 32.8 36.2 C32 34 28.7 33.9 27.5 31.9 C26.9 30.9 25.8 27.4 25.4 26.2 C23.8 21.2 25.1 20.6 22.9 18.6 C21.8 17.6 20.3 16.7 17.3 15.3 C14.8 14.1 14.6 11.5 13.5 10 C13.4 9.8 10.6 8.4 10.6 8.2 C9.1 4.1 13.1 -0.7 8 1.2 z" id="g1" fill="#BD8B6A" /><path d="M8 1.2 C5.4 2.1 1.4 9.5 0.7 12.4 C0.5 13.3 1 14.4 1.3 15.8 C2.4 21.2 1.3 23.5 1.3 27.3 C1.3 31.1 0 41.4 0.7 47.1 C1.4 52.8 4.2 59.2 4.5 63.3 C4.8 67.4 5.4 69.3 8 74.8 C10.6 80.3 11.2 81.9 12.3 82.8 C12.4 82.9 12.9 84.1 13.2 84 C15.3 83.4 17.9 82.3 19.3 82.3 C21.1 82.3 24 82 26 82.3 C28.1 82.6 30.9 85.1 32.2 84.5 C33 84.1 34.6 82.5 35.2 81.5 C36.2 80 36.4 78.7 37 76 C37.2 75.1 37.9 75.7 38.4 74.8 C39 73.7 38.4 71.2 38.4 70.3 C38.4 69.6 40.1 69.5 40 68.6 C39.8 67 40.9 67.5 40 65.1 C39.6 64.1 38.1 63.4 37.5 62 C37 60.9 40.3 63.2 40 62 C39.5 60.2 35.5 55.1 35.3 54.2 C34.9 52.7 37.1 54.7 37.1 53.2 C37 51.5 35.8 50.5 35.3 48.3 C35 47 36.3 46.3 36.1 44.9 C35.7 42.7 34.4 41.4 33.7 40.5 C33 39.7 33.3 37.4 32.8 36.2 C32 34 28.7 33.9 27.5 31.9 C26.9 30.9 25.8 27.4 25.4 26.2 C23.8 21.2 25.1 20.6 22.9 18.6 C21.8 17.6 20.3 16.7 17.3 15.3 C14.8 14.1 14.6 11.5 13.5 10 C13.4 9.8 10.6 8.4 10.6 8.2 C9.1 4.1 13.1 -0.7 8 1.2 z" id="h1" fill="#F0C497" /><path d="M11.5 8.2 C11.5 8.3 13.1 9.1 13.9 9.6 C14 10.5 14.2 11.5 14.7 12.4 C14.7 12.5 15.3 12.7 15.9 12.9 C16.4 13.8 17.1 14.6 18.2 15.2 C18.6 15.4 19.1 15.6 19.4 15.8 C20.1 16.8 21 17.7 22.5 18.2 C23 18.3 23.4 18.5 23.8 18.6 C25.9 20.6 24.6 21.2 26.3 26.2 C26.7 27.4 27.8 30.9 28.4 31.9 C29.6 33.9 32.9 34 33.7 36.2 C34.1 37.4 33.9 39.7 34.6 40.5 C35.3 41.3 36.7 42.7 37 44.9 C37.2 46.3 35.9 47 36.2 48.3 C36.7 50.5 37.9 51.6 38 53.2 C38.1 54.8 35.8 52.7 36.2 54.2 C36.5 55.1 40.5 60.2 40.9 62 C41.2 63.2 37.9 60.9 38.4 62 C39.1 63.5 40.6 64.2 40.9 65.1 C41.8 67.5 40.7 66.9 40.9 68.6 C41 69.5 39.3 69.6 39.3 70.3 C39.3 71.1 39.9 73.7 39.3 74.8 C38.8 75.7 38.1 75.1 37.9 76 C37.3 78.8 37.1 80.1 36.1 81.5 C35.4 82.5 33.8 84.1 33.1 84.5 C31.8 85.1 29 82.6 26.9 82.3 C26.7 82.3 26.5 82.3 26.3 82.2 C25.6 81.2 24.8 80 23.7 78.5 C22.5 76.8 21.9 75.4 20.9 74 C20 72.7 18.6 71.3 18.3 70.4 C17.8 69.3 18.7 69.2 18.3 67.8 C18.2 67.6 17.2 66.4 17.1 65.9 C16.9 64.7 17.6 63.9 17.1 63.1 C16.2 61.6 14.7 61.8 13.8 60.1 C12.9 58.4 12.9 56.7 12.2 55.1 C11.7 53.9 12.1 53.6 11.7 52.5 C11.5 51.3 11.5 49 11 47 C10.7 45.8 9.7 44.9 9.6 43.8 C9.4 42.2 10.3 41.9 9.9 40.5 C9.5 38.9 8.6 38.1 8.2 37.1 C7.6 35.7 9.2 33.9 9 32.9 C8.8 31.7 8.2 30 8.2 28.9 C8.1 26.6 8.4 25.1 7 21.6 C6.5 20.2 5.7 19.2 5.8 18.3 C5.9 15.3 8.6 7.4 11 6 C11.1 6 11.1 5.9 11.2 5.9 C11.1 6.6 11.2 7.4 11.5 8.2 z" id="i1" fill="#BD8B6A" /></g><g transform="translate(46, 1)" id="j1"><g opacity="0.2" transform="translate(9, 81)" id="k1"><path d="M20.8 7 C19.6 5.2 19.5 2.3 16.6 2 C13.7 1.8 10.9 0.4 7.6 0.9 C5.7 1.2 2.7 0.9 1.2 2 C0 2.8 0.1 4.9 0.1 6.2 C0.1 9.3 0.2 9.4 0.5 9.9 C1.7 11.8 5.9 11.7 10 12.2 C13.4 12.7 20.3 12.5 21.8 11.6 C22.2 11.3 21.9 8.9 20.8 7 z" stroke="#000000" stroke-width="3" opacity="0.2" id="l1" /></g><path d="M29.8 87 C28.6 85.2 28.5 82.3 25.6 82 C22.7 81.8 19.9 80.4 16.6 80.9 C14.7 81.2 11.7 80.9 10.2 82 C9 82.8 9.1 84.9 9.1 86.2 C9.1 89.3 10.7 90.8 11.1 91 C13.9 92.4 15.3 92 19.4 92.5 C22.8 93 27.1 92.8 29 92.1 C30.6 91.5 30.9 88.9 29.8 87 z" id="m1" fill="#DDD5CD" /><g opacity="0.2" transform="translate(0, 1)" id="n1"><path d="M38.1 9.5 C38 10.4 40 11.7 39.7 13.1 C39.3 15 40.8 16.1 40.9 17.5 C41.1 19.1 40.4 20.4 40.4 21.8 C40.4 22.9 41.8 25.6 41.8 26.9 C41.8 28.2 40.9 28.4 40.9 30.3 C40.9 31.5 41.7 33.3 41.8 34.8 C41.9 36.2 40.6 36.6 40.3 37.7 C39.8 39.3 41.8 41.7 41.8 43.2 C41.8 44.4 38.2 40.4 38.2 41.5 C38.3 43.8 40.5 45.4 40.3 47.1 C40.3 47.3 38.2 47.2 38.2 47.9 C38.1 49.4 40.6 50.5 40.3 51.6 C39.9 53.1 39.4 52.5 39.1 54 C38.8 55.8 39.1 56.5 38.7 57.8 C38.4 58.7 37.4 56 37.2 56.8 C36.7 58.8 38.2 60.4 38.2 61.3 C38.2 63.5 36.3 63 36.2 64.3 C36 66.6 37 66.1 36.2 68.2 C35.8 69.1 33.6 70 33.2 71.2 C32.9 72.3 33.7 74.7 33.2 75.9 C32.7 76.9 31.2 74.8 30.9 75.9 C30.7 76.9 32.6 81.8 32.4 82.4 C32 83.4 28.2 82.4 27.5 83 C26.5 83.9 22 81 18.7 81 C15.4 81 12.8 82.7 11.1 83 C9.5 83.3 7 83.1 5.8 82.1 C5.7 81.9 5.3 80.7 5.2 80.5 C4.7 79.7 5.7 75.9 5.2 74.3 C5.1 73.9 4 74.6 3.8 74.4 C3.7 74.3 3.5 74.2 3.4 74 C3.1 73.7 2.9 73.4 2.9 72.6 C2.8 71.3 5.5 62.3 5.4 61.7 C4.6 66.6 3.2 69 1.2 69 C0.6 69 0.9 67.1 1.1 64.8 C1.2 63.2 3.8 58.6 3.7 57.3 C3.7 57.1 1.8 57.9 1.6 57.6 C1.5 57.5 1 57 1 56.7 C1.2 55.5 3.1 54.2 3.5 53.1 C3.2 52.9 2.3 53.1 2.2 52.8 C2.1 52.7 2 52.6 2.1 52.3 C2.6 51.1 5.5 48 5.7 47 C5.9 45.7 4.2 45.6 4.5 44.5 C4.9 43 6.5 42.7 6.8 41.4 C7.2 39.3 5.7 38 7.6 35.8 C10.6 33.3 13.9 29.1 15.6 23.9 C17.2 18.8 17.6 16.4 19.7 14.3 C21.1 13 21.9 11.3 25.3 9.3 C27.3 8.2 27.8 6.7 28.3 5.2 C29.7 1 30.8 -1.3 33.5 1.6 C34.2 2.5 35 3.2 35.6 4 C37.2 6 38.3 7.7 38.1 9.5 z" stroke="#000000" stroke-width="3" opacity="0.2" id="o1" /></g><path d="M33.6 1.8 C36.1 4.5 38.4 6.9 38.1 9.5 C38 10.4 40.6 11.7 40.3 13.1 C39.9 15 41.7 16.2 41.8 17.6 C42 19.2 40.9 20.3 40.9 21.7 C40.9 22.8 41.8 25.6 41.8 26.9 C41.8 28.2 40.9 28.4 40.9 30.3 C40.9 31.5 41.7 33.3 41.8 34.8 C41.9 36.2 40.6 36.6 40.3 37.7 C39.8 39.3 40.9 41.4 40.9 42.9 C40.9 44.1 38.6 41.3 38.6 42.4 C38.7 44.7 39.9 46.2 39.7 47.9 C39.7 48.1 38.2 47.2 38.2 47.9 C38.1 49.4 40.7 50.6 40.4 51.7 C40 53.2 39.4 52.5 39.1 54 C38.8 55.8 39.1 56.5 38.7 57.8 C38.4 58.7 37.4 56 37.2 56.8 C36.7 58.8 38.2 60.4 38.2 61.3 C38.2 63.5 36.3 63 36.2 64.3 C36 66.6 37 66.1 36.2 68.2 C35.8 69.1 33.6 70 33.2 71.2 C32.9 72.3 33.7 74.7 33.2 75.9 C32.7 76.9 31.2 74.8 30.9 75.9 C30.7 76.9 31.6 80.9 31.4 81.5 C30.4 83.6 28.2 82.4 27.5 83 C26.5 83.9 22.4 82 19.1 82 C15.8 82 12.8 82.7 11.1 83 C9.4 83.3 7 83.2 5.3 80.6 C4.8 79.8 4.9 76.9 4.4 75.3 C4 74.1 3 74.3 3 72.8 C2.9 71.5 3.9 69.1 3.7 68.2 C3.5 67 1.6 70.5 1.6 69.4 C1.6 68.1 1.4 66.1 1.6 63.8 C1.7 62.2 3 59.8 2.9 58.5 C2.9 57.4 1.4 58.4 1.6 57.2 C1.8 56 3.3 54.4 3.7 53.3 C3.9 52.7 1.9 53.5 2.3 52.5 C2.8 51.3 5.7 48.2 5.9 47.2 C6.1 45.9 5 45.5 5.3 44.4 C5.7 42.9 6.7 42.9 7 41.6 C7.4 39.5 6.5 38.2 7.4 37 C9.9 33.9 12.9 32.1 14.6 26.9 C16.2 21.8 17 16.9 19.1 14.8 C20.5 13.5 22.1 11.5 25.5 9.5 C27.5 8.4 28 6.9 28.5 5.4 C29.8 1.2 30.8 -1.1 33.6 1.8 z" id="p1" fill="#BD8B6A" /><path d="M33.6 1.8 C36.1 4.5 38.4 6.9 38.1 9.5 C38 10.4 40.6 11.7 40.3 13.1 C39.9 15 41.7 16.2 41.8 17.6 C42 19.2 40.9 20.3 40.9 21.7 C40.9 22.8 41.8 25.6 41.8 26.9 C41.8 28.2 40.9 28.4 40.9 30.3 C40.9 31.5 41.7 33.3 41.8 34.8 C41.9 36.2 40.6 36.6 40.3 37.7 C39.8 39.3 40.9 41.4 40.9 42.9 C40.9 44.1 38.6 41.3 38.6 42.4 C38.7 44.7 39.9 46.2 39.7 47.9 C39.7 48.1 38.2 47.2 38.2 47.9 C38.1 49.4 40.7 50.6 40.4 51.7 C40 53.2 39.4 52.5 39.1 54 C38.8 55.8 39.1 56.5 38.7 57.8 C38.4 58.7 37.4 56 37.2 56.8 C36.7 58.8 38.2 60.4 38.2 61.3 C38.2 63.5 36.3 63 36.2 64.3 C36 66.6 37 66.1 36.2 68.2 C35.8 69.1 33.6 70 33.2 71.2 C32.9 72.3 33.7 74.7 33.2 75.9 C32.7 76.9 31.2 74.8 30.9 75.9 C30.7 76.9 31.6 80.9 31.4 81.5 C30.4 83.6 28.2 82.4 27.5 83 C26.5 83.9 22.4 82 19.1 82 C15.8 82 12.8 82.7 11.1 83 C9.4 83.3 7 83.2 5.3 80.6 C4.8 79.8 4.9 76.9 4.4 75.3 C4 74.1 3 74.3 3 72.8 C2.9 71.5 3.9 69.1 3.7 68.2 C3.5 67 1.6 70.5 1.6 69.4 C1.6 68.1 1.4 66.1 1.6 63.8 C1.7 62.2 3 59.8 2.9 58.5 C2.9 57.4 1.4 58.4 1.6 57.2 C1.8 56 3.3 54.4 3.7 53.3 C3.9 52.7 1.9 53.5 2.3 52.5 C2.8 51.3 5.7 48.2 5.9 47.2 C6.1 45.9 5 45.5 5.3 44.4 C5.7 42.9 6.7 42.9 7 41.6 C7.4 39.5 6.5 38.2 7.4 37 C9.9 33.9 12.9 32.1 14.6 26.9 C16.2 21.8 17 16.9 19.1 14.8 C20.5 13.5 22.1 11.5 25.5 9.5 C27.5 8.4 28 6.9 28.5 5.4 C29.8 1.2 30.8 -1.1 33.6 1.8 z" id="q1" fill="#F0C497" /><path d="M35.7 4.1 C36.3 5.4 36.6 6.6 36.3 7.8 C36.1 8.7 37 10.1 36.5 11.5 C35.9 13.3 36.9 14.8 36.9 16.3 C36.9 17.9 36 20.1 35.7 21.5 C35.5 22.6 35.9 24.5 35.7 25.8 C35.5 27.1 35.2 27.3 34.9 29.1 C34.7 30.3 35.7 33.1 35.7 34.5 C35.7 35.9 35.1 39.6 34.9 41.1 C34.7 42.3 33.5 44.2 33.1 45.9 C33 46.1 32.1 50.5 31.7 51.9 C31.2 53.7 29.7 53.8 29.5 54.5 C28.8 56.4 27.8 60.6 27.6 61.8 C27.1 64.1 27.4 61.3 26.3 63.3 C25.8 64.2 24.3 67.1 23.8 68.2 C23.3 69.2 22.9 69.7 22.2 70.8 C21.6 71.8 21.3 71.5 21 72.6 C20.7 73.6 20 76.7 19.7 77.2 C18.5 79.2 17.5 78.7 16.7 79.2 C16 79.7 12 81.6 8.3 82.8 C7.2 82.5 6.1 81.8 5.2 80.5 C4.7 79.7 4.8 76.8 4.3 75.2 C3.9 74 2.9 74.2 2.9 72.7 C2.8 71.4 3.8 69 3.6 68.1 C3.4 66.9 1.5 70.4 1.5 69.3 C1.5 68 1.3 66 1.5 63.7 C1.6 62.1 2.9 59.7 2.8 58.4 C2.8 57.3 1.3 58.3 1.5 57.1 C1.7 55.9 3.2 54.3 3.6 53.2 C3.8 52.6 1.8 53.4 2.2 52.4 C2.7 51.2 5.6 48.1 5.8 47.1 C6 45.8 4.9 45.4 5.2 44.3 C5.6 42.8 6.6 42.8 6.9 41.5 C7.3 39.4 6.4 38.1 7.3 36.9 C9.8 33.8 12.8 32 14.5 26.8 C16.1 21.7 16.9 16.8 19 14.7 C20.4 13.4 22 11.4 25.4 9.4 C27.4 8.3 27.9 6.8 28.4 5.3 C29.8 1.1 30.9 -1.2 33.6 1.7 C34.3 2.6 35.1 3.3 35.7 4.1 z" id="r1" fill="#BD8B6A" /></g></g></g></g><g transform="translate(169.6, 188) scale(0.9105691) translate(-169.6, -188)" id="s1"><g transform="translate(-286.1, 63.79997) translate(18, 27)" id="t1"><g id="u1"><path d="M395.9 33 C395.5 43 395.1 49.9 394.5 53.9 C392.6 68.8 389.8 77.4 388.2 79.4 C386 82.2 384.5 84.4 383.6 85.8 L390.6 84.8 L388.2 91.5 L393 88 C405.9 96.6 414.5 102 419 104.2 C424.2 106.7 430 107.6 432.1 107.8 C436.9 108.3 440.6 108.3 443.1 107.8 C454.1 104.1 461.6 101.1 465.8 99 C470 96.8 474.9 92.8 480.4 87 L486.6 88 L485.3 83.4 C484 80.4 483.4 78.7 483.6 78.2 C483.7 77.7 486.1 77.7 490.8 78.2 L483.6 67.4 C481.3 59.8 480 54.4 479.7 51.2 C479.4 48 479.2 42.6 478.9 35 C478.1 31.4 476.5 29 474.3 27.9 C472 26.7 470.5 28.1 469.8 31.9 L474.3 80.3 L449.4 98.8 L431.4 98.8 C415.7 92.4 407.4 89.2 406.5 89.2 C405.6 89.2 403.5 85.1 400 76.9 L405 27.8 C402.5 26.5 400.8 26.2 399.7 26.8 C398.6 27.6 397.3 29.6 395.9 33 z" id="v1" fill="#BD8B6A" /><path d="M425.8 7.7 L398.5 28.5 C399.7 37.8 399.7 47 398.5 56.1 C397.3 65.3 395.9 72.4 394.3 77.4 L392.5 80.6 L397.1 78.7 L394.4 82.3 L398.6 82.3 C407.9 91.9 413.9 97.4 416.6 98.8 C420.6 100.9 425.4 104.7 431.2 106 C437 107.3 444.5 107.4 457.8 98.8 C466.7 93.1 473.3 86.6 477.5 79.4 L481.9 82.3 L479.2 72.9 L483.8 75.9 L479.2 68.3 C478 60.9 477.4 55.9 477.2 53.3 C476.6 42.9 476.2 38.6 476.2 36.4 C476.2 33.5 467.9 23.9 451.2 7.9 L425.8 7.9 L425.8 7.7 z" id="w1" fill="#D8B285" /><path d="M477 36.3 C477 30.4 478.2 31.3 473.5 26.1 C466.5 18.5 452.3 8.8 451.1 7.7 C449 5.8 427.2 6.4 425.6 7.1 C423.9 7.9 398.9 25.7 397.9 28.7 C396.9 31.7 399.5 43.2 398.9 50.5 C400.9 50.9 403 51.1 404.9 49.8 C406.8 48.5 409 44.9 411 45.8 C413.9 47.1 413.8 66.8 422.1 68.1 C425.2 68.6 432.7 56.3 437.5 56.2 C441 56 448.4 68.7 451 68 C461 65.2 465.3 45.6 468.4 48.3 C471.9 51.3 473.4 52 476.5 48.3 C477 47.8 477 42.1 477 36.3 z" id="x1" fill="#BD8B6A" /><path d="M405.7 49.1 C405.8 50.4 416.2 71.4 418.3 80.1 C420.4 88.8 420 101.4 436.2 100.8 C452.4 100.2 453 99.1 456.8 80.1 C460.6 61.1 468.6 50.2 468.5 48.7 C468.4 47.2 467 46.4 463.2 42.7 C459.5 39.1 456.4 31.4 450.2 31.3 C445.7 31 436.5 40.9 447.9 54.4 C448.6 55.1 454 65.1 452.2 65.9 C450.4 65.9 448.9 63.2 446.5 60.8 C445.3 59.6 442.6 58.1 441.6 56.7 C438.4 52.1 439.4 26.8 438 26.8 C436.5 26.7 435.1 52.6 433.7 56.7 C433 58.9 431.1 59.2 429.4 60.8 C426.8 63.2 424.2 66.2 423 65.9 C421.5 65.7 423.9 57.6 426.6 55.7 C434.5 48.9 431.5 31.4 426.6 31.4 C421 29.9 417.4 36.5 414.1 40.2 C410.7 43.9 405.5 47.8 405.7 49.1 z" id="y1" fill="#D8B285" /><path d="M397.6 29.4 C397.6 29.1 397.7 28.9 397.8 28.7 C398.8 25.7 423.8 7.9 425.5 7.1 C427.2 6.4 449 5.8 451 7.7 C452.2 8.8 466.4 18.5 473.4 26.1 C475.2 28.1 476.1 29.2 476.6 30.1 C477.6 31.4 478.3 33.1 478.8 35.2 C479.1 42.8 479.3 48.2 479.6 51.4 C479.9 54.6 481.2 60 483.5 67.6 L490.7 78.4 C486 77.9 483.6 77.9 483.5 78.4 C483.3 78.9 483.9 80.6 485.2 83.6 L486.5 88.2 L480.3 87.2 C474.8 93 469.9 97 465.7 99.2 C461.5 101.3 454 104.3 443 108 C440.5 108.5 436.8 108.5 432 108 C429.9 107.8 424.1 106.9 418.9 104.4 C414.3 102.2 405.7 96.8 392.9 88.2 L388.1 91.5 L390.5 84.8 L383.5 85.8 C384.4 84.4 385.9 82.2 388.1 79.4 C389.7 77.4 392.5 68.8 394.4 53.9 C395 49.9 395.4 43 395.8 33 C396.5 31.5 397.1 30.3 397.6 29.4 z M399.8 28.6 C399.7 28.8 399.7 29 399.7 29.3 C399.2 30.2 398.6 31.3 398 32.7 C397.6 42.2 397.2 48.7 396.7 52.5 C394.9 66.6 393.5 74.7 392 76.6 C389.9 79.3 387.7 82.4 386.9 83.7 L393 81.8 L390.7 88.2 L396.1 86.4 C408.3 94.6 415.7 98.4 420.1 100.4 C425 102.8 430.5 103.6 432.5 103.8 C437.1 104.3 440.6 104.3 442.9 103.8 C453.3 100.3 460.5 97.4 464.4 95.4 C468.4 93.3 473 89.5 478.3 84 L484.2 84.9 L483 80.5 C481.8 77.7 481.1 77 481.3 76.6 C481.4 76.1 482.5 75.5 486.9 76 L481.3 65.3 C479.1 58.1 477.9 53 477.6 49.9 C477.3 46.9 477.1 41.7 476.8 34.5 C476.4 32.5 475.6 30.9 474.7 29.7 C474.3 28.8 473.4 27.8 471.7 25.9 C465.1 18.9 451.6 9.7 450.5 8.6 C448.5 6.8 427.8 7.4 426.2 8 C424.6 8.8 400.8 25.7 399.8 28.6 z" opacity="0.15" id="z1" /></g></g><g transform="translate(91, 79.79997) translate(24, 0)" id="a2"><g id="b2"><path d="M32.4 15.8 C31.9 16.9 31.5 18.3 31.2 19.7 C31.1 19.5 31.1 19.3 31 19.1 C31 16.4 30.1 13.7 29.5 10.7 C29.1 11.4 28.7 12.1 28.4 12.9 C27.7 10 25.9 7.3 23.5 5.6 C23.8 6.7 24 7.7 24.2 8.6 C21.4 5.9 18.1 3.6 14.7 1.5 C13.2 0.6 11 -0.1 9.8 1.1 C9.2 1.7 9 2.6 8.8 3.4 C7.5 9.1 3.8 22.2 2.9 31.5 C2.5 30.6 2.2 29.6 1.8 28.7 C0.1 32.4 0.8 37 3.3 40.2 C3.4 40.7 3.6 41.2 3.8 41.7 C2.8 41.3 1.7 40.9 0.7 40.5 C2.1 44 5 46.8 8.5 48.2 C9.7 49.1 11 49.7 12.5 49.9 C16.2 50.3 19.5 49 25.4 42.2 C29.8 37.1 31.2 35 31.7 32.1 C36.8 26.6 33.7 18.8 32.4 15.8 z" id="c2" fill="#806458" /><path d="M32.4 15.8 C33.7 18.8 36.8 26.6 31.7 32.1 C31.2 35 29.8 37.1 25.4 42.2 C19.5 49 16.2 50.3 12.5 49.9 C11 49.7 9.7 49.1 8.5 48.2 C5 46.8 2.1 44 0.7 40.5 C1.7 40.9 2.8 41.3 3.8 41.7 C3.6 41.2 3.4 40.7 3.3 40.2 C0.8 37 0.1 32.4 1.8 28.7 C2.2 29.6 2.5 30.6 2.9 31.5 C3.8 22.2 7.5 9.1 8.8 3.4 C9 2.6 9.2 1.7 9.8 1.1 C11 -0.1 13.2 0.6 14.7 1.5 C18.1 3.6 21.4 5.9 24.2 8.6 C24 7.7 23.8 6.7 23.5 5.6 C25.9 7.3 27.7 10 28.4 12.9 C28.7 12.1 29.1 11.4 29.5 10.7 C30.1 13.7 31 16.4 31 19.1 C31.1 19.3 31.1 19.5 31.2 19.7 C31.5 18.3 31.9 16.9 32.4 15.8 z M32.5 17 C32 18 31.7 19.9 31.4 21.2 C31.3 21 30.1 18.7 30 18.6 C30 16.1 29.8 14.9 29.3 12.1 C28.9 12.8 28.5 13.6 28.3 14.4 C27.6 11.7 26.4 8.4 24.2 6.8 C24.5 7.9 24.8 9.3 25 10.1 C22.4 7.6 18.1 4.2 14.9 2.3 C13.5 1.4 11.5 0.5 10.4 1.6 C9.8 2.2 9.6 3.3 9.5 4 C8.7 7.3 7.1 13.5 6 20.8 C5.4 25.1 5.1 30.8 4.8 34 C4.7 33.6 3.9 33.6 3.3 32.9 C2.7 32.1 2.2 30.8 2 30.3 C0.4 33.8 1.8 36.2 4.1 39.2 C4.2 39.7 5.4 42.5 5.6 43 C4.7 42.6 2.9 42.1 2 41.7 C3.3 44.9 5.8 45 9 46.3 C10.2 47.1 12.1 47.4 13.5 47.6 C16.9 48 19.4 46.2 24.8 39.9 C28.9 35.2 30.2 33.3 30.6 30.6 C35.4 25.5 33.7 19.8 32.5 17 z" opacity="0.15" id="d2" /><path d="M12 27.6 C12.7 24.3 13.6 21.1 13.6 17.7 C20.2 19.8 25.3 25.9 26.4 32.7 C26.6 33.9 26.2 35.1 25.5 36 C24.1 37.7 21.7 40.6 20.3 42.2 C19.5 43.2 18.1 43.6 16.9 43.1 C14.6 42.2 12.7 39.9 11.9 37.5 C10.9 34.4 11.3 30.9 12 27.6 z" id="e2" fill="#BD8B6A" /></g></g><g transform="translate(112.2, 78.79997) translate(92.5, 25) scale(-1, 1) translate(-92.5, -25) translate(75, 0)" id="f2"><g id="g2"><path d="M0.6 40.5 C1.6 40.9 2.7 41.3 3.7 41.7 C3.5 41.2 3.3 40.7 3.2 40.2 C0.7 37 0 32.4 1.7 28.7 C2.1 29.6 2.4 30.6 2.8 31.5 C3.8 22.2 7.5 9.1 8.7 3.4 C8.9 2.6 9.1 1.7 9.7 1.1 C11 -0.1 13.1 0.6 14.6 1.5 C18.1 3.6 21.4 5.9 24.1 8.6 C24 7.7 23.7 6.7 23.4 5.6 C25.8 7.4 27.6 10 28.3 12.9 C28.6 12.1 29 11.4 29.4 10.7 C29.9 13.7 30.9 16.4 30.9 19.1 C31 19.3 31 19.5 31.1 19.7 C31.4 18.3 31.8 16.9 32.3 15.8 C33.6 18.8 36.7 27.6 31.6 32 C31.1 34.9 29.7 37.1 25.3 42.1 C19.4 48.8 16.1 50.2 12.4 49.8 C11 49.6 9.6 49 8.4 48.1 C4.9 46.8 2 44 0.6 40.5 z" id="h2" fill="#806458" /><path d="M0.6 40.5 C1.6 40.9 2.7 41.3 3.7 41.7 C3.5 41.2 3.3 40.7 3.2 40.2 C0.7 37 0 32.4 1.7 28.7 C2.1 29.6 2.4 30.6 2.8 31.5 C3.8 22.2 7.5 9.1 8.7 3.4 C8.9 2.6 9.1 1.7 9.7 1.1 C11 -0.1 13.1 0.6 14.6 1.5 C18.1 3.6 21.4 5.9 24.1 8.6 C24 7.7 23.7 6.7 23.4 5.6 C25.8 7.4 27.6 10 28.3 12.9 C28.6 12.1 29 11.4 29.4 10.7 C29.9 13.7 30.9 16.4 30.9 19.1 C31 19.3 31 19.5 31.1 19.7 C31.4 18.3 31.8 16.9 32.3 15.8 C33.6 18.8 36.7 27.6 31.6 32 C31.1 34.9 29.7 37.1 25.3 42.1 C19.4 48.8 16.1 50.2 12.4 49.8 C11 49.6 9.6 49 8.4 48.1 C4.9 46.8 2 44 0.6 40.5 z M2.1 41.7 C3.4 44.9 5.7 44.9 8.9 46.1 C9.9 46.9 11.7 47.1 12.9 47.3 C16.2 47.7 19.2 46.4 24.5 40.4 C28.5 35.9 29.7 33.9 30.2 31.3 C34.8 27.4 33.6 21.2 32.4 18.5 C32 19.5 31.4 20.2 31.1 21.5 C31 21.3 30.3 19.9 30.2 19.8 C30.2 17.3 29.7 15.6 29.2 12.9 C28.9 13.6 28.2 13.9 27.9 14.7 C27.3 12 27 10 24.8 8.4 C25.1 9.4 24 9.8 24.1 10.6 C21.7 8.1 17.3 4.3 14.1 2.4 C12.8 1.6 11.4 0.7 10.2 1.8 C9.7 2.3 9 5.2 8.9 5.9 C7.8 11 4.4 26 3.5 34.4 C3.1 33.6 2.1 31 1.7 30.2 C0.2 33.5 1.4 35.7 3.7 38.6 C3.7 39.1 4.8 42.2 5 42.6 C4.1 42.3 3 42.1 2.1 41.7 z" opacity="0.15" id="i2" /><path d="M12 27.6 C12.7 24.3 13.6 21.1 13.6 17.7 C20.2 19.8 25.3 25.9 26.4 32.7 C26.6 33.9 26.2 35.1 25.5 36 C24.1 37.7 21.7 40.6 20.3 42.2 C19.5 43.2 18.1 43.6 16.9 43.1 C14.6 42.2 12.7 39.9 11.9 37.5 C10.9 34.4 11.3 30.9 12 27.6 z" id="j2" fill="#BD8B6A" /></g></g><g id="k2"><g transform="translate(90.90001, 102) translate(51, 9)" id="l2"><g id="m2"><path d="M11.3 81.9 C14.4 82.2 18.5 82.4 21 81.1 C23.7 79.7 25.2 78.3 27.4 75.9 C29.9 79.4 32 80.5 35.2 81.9 C38.2 83.3 42.2 82.3 44.7 81.6 C47.2 80.8 52.9 77.6 53.5 73.9 C54.2 69.7 54.7 64.6 52.8 57.5 C51.2 51.4 43.5 48.1 39.8 44.1 C37.1 41.2 33.5 30.4 33.2 28.7 C32.4 25.3 32.5 21.7 33.7 14.5 C34.9 6.9 39.8 4.5 39.8 2 C39.8 -0.4 34.7 4 28.5 4.1 C22.4 4.2 15.7 -1.3 15.7 2 C15.7 5.4 20.7 7.8 21.7 13.5 C22.7 19.2 22.7 22.1 21.7 28.1 C21.1 31.6 17.6 42 14.3 44.6 C8.6 49.1 1.7 53.6 1 60.2 C0.4 66.9 -0.3 70.7 1.6 74.5 C4 79.3 8.2 81.5 11.3 81.9 z" id="n2" fill="#806457" /><path d="M35.3 9.4 C34.6 10.8 34 12.5 33.7 14.5 C32.5 21.7 32.4 25.3 33.2 28.7 C33.5 30.4 37.1 41.2 39.8 44.1 C43.5 48.1 51.2 51.4 52.8 57.5 C54.7 64.6 54.2 69.7 53.5 73.9 C52.9 77.6 47.2 80.8 44.7 81.6 C42.2 82.3 38.2 83.3 35.2 81.9 C32 80.5 29.9 79.4 27.4 75.9 C25.2 78.3 23.7 79.7 21 81.1 C18.5 82.4 14.4 82.2 11.3 81.9 C8.2 81.5 4 79.3 1.6 74.5 C-0.3 70.7 0.4 66.9 1 60.2 C1.7 53.6 8.6 49.1 14.3 44.6 C17.6 42 21.1 31.6 21.7 28.1 C22.7 22.1 22.7 19.2 21.7 13.5 C21.6 12.9 21.5 12.4 21.3 11.9 C20.2 9.3 18.3 7.1 17 5.2 C16.2 4.1 15.7 3.1 15.7 2 C15.7 -1.3 22.4 4.2 28.5 4.1 C34.7 4 39.8 -0.4 39.8 2 C39.8 3.3 38.5 4.5 37.1 6.4 C38.4 4.5 39.4 3.2 39.4 2.1 C39.4 -0.2 34.3 4.2 28.6 4.3 C23 4.4 15.7 -1.2 15.7 1.9 C15.7 2.9 16.2 4 17 5.2 C18.3 7 20.3 9 21.3 11.9 C21.7 12.8 22 13.7 22.1 14.6 C23 20.1 23 22.9 22.1 28.6 C21.6 32 19.8 41 16.8 43.5 C11.5 47.8 3.6 53.4 2.9 59.8 C2.3 66.2 1.9 69.6 3.6 73.3 C5.8 77.9 9.7 80 12.5 80.4 C15.4 80.7 19.1 80.9 21.4 79.6 C23.9 78.3 25.3 76.9 27.3 74.6 C29.6 78 31.5 79 34.5 80.4 C37.3 81.7 41 80.8 43.3 80.1 C45.6 79.3 50.9 76.3 51.4 72.7 C52 68.7 52.5 63.8 50.8 56.9 C49.3 51 41.5 47.6 38.1 43.8 C35.6 41 33 30.8 32.7 29.2 C32 25.9 32.1 22.5 33.2 15.6 C33.6 13.2 34.4 11.1 35.3 9.4 z" opacity="0.1" id="o2" /></g></g><g transform="translate(169.6, 184.9999) scale(1.4) translate(-169.6, -184.9999) translate(108.5, 104.6) translate(51, 68)" id="p2"><g id="q2"><path d="M19.3 10.7 C18.9 10.3 18.2 10.4 17.8 10.8 C16.9 11.8 15.3 13 13.7 13.1 C12.8 13.1 11.9 12.7 11.1 11.9 L11.1 1.5 C11.1 0.9 10.6 0.4 10 0.4 C9.4 0.4 8.9 0.9 8.9 1.5 L8.9 11.9 C8.1 12.7 7.3 13.1 6.3 13.1 C4.7 13.1 3.1 11.9 2.2 10.8 C1.8 10.4 1.2 10.3 0.7 10.7 C0.3 11.1 0.2 11.7 0.6 12.2 C1.8 13.6 4 15.2 6.3 15.2 C7.5 15.2 8.7 14.8 9.8 13.9 C9.9 13.9 9.9 13.9 10 13.9 C10.1 13.9 10.1 13.9 10.2 13.9 C11.2 14.7 12.4 15.2 13.7 15.2 C16 15.2 18.2 13.6 19.4 12.2 C19.9 11.7 19.8 11.1 19.3 10.7 z" id="r2" fill="#282421" /></g></g><g transform="translate(169.6, 171.4) scale(1) translate(-169.6, -168.4) translate(86.60001, 106.6) translate(71, 50)" id="s2"><g id="t2"><path d="M11.7 0.2 C15.7 0.2 21.4 1.3 22.6 4.5 C23.8 7.8 22.3 11.1 19.9 13.8 C17.5 16.5 17 18.4 12 18.4 C7 18.4 6.6 17.5 4.1 13.9 C1.6 10.3 0.1 7.6 1.5 4.5 C2.9 1.4 7.7 0.2 11.7 0.2 z" id="u2" /><path d="M12.5 5 C16.3 7.4 19 4.3 19 3.5 C19 2.7 16.1 2 12.5 2 C8.9 2 6 2.7 6 3.5 C6 4.3 8.7 2.6 12.5 5 z" id="v2" fill="#FFF" /></g></g><g transform="translate(150.4, 138.8999) scale(1.1) translate(-150.4, -138.8999) translate(108, 95.19995) translate(28, 31)" id="w2"><g id="x2"><path d="M27.4 14.8 C22.7 14.2 24.5 5.1 19.1 1.5 C15.1 -1.3 8.2 2.3 5.5 4.5 C1.9 7.3 -0.5 10.3 0.1 14.8 C0.7 19.3 4 23.4 8.3 24.9 C11.9 26.1 15.9 25.6 19.5 24.1 C22 23 30.4 15.1 27.4 14.8 z" id="y2" fill="#F0C497" /><path d="M5.1 12.4 C5.1 10.8 7.5 10 9.7 8.3 C10.5 7.7 12 6.6 13.8 6.6 C16.3 6.6 18.1 8.3 19.3 10.3 C20.6 12.5 22.2 14.7 21.7 15.7 C21.2 16.9 18.6 17.2 16 18.1 C14.8 18.5 11.4 18.4 9.5 16.8 C7.5 15 5.1 13.3 5.1 12.4 z" id="z2" fill="#81665B" /><path d="M18.6 10.5 C18.4 10.1 18.2 9.8 17.9 9.5 C17.1 8.6 15.9 8.1 14.6 8.1 C13.9 8.1 13.3 8.3 12.7 8.5 C12.6 8.5 12.6 8.6 12.5 8.6 C12.3 8.7 12.1 8.8 11.9 8.9 C10.1 9.9 8.2 10.7 7.9 12.1 C7.7 13.1 9.8 14.7 11.6 16.1 C11.8 16.2 11.9 16.4 12.1 16.5 C12.1 16.5 12.2 16.5 12.2 16.6 C12.9 17 13.7 17.2 14.5 17.2 C14.7 17.2 14.9 17.2 15.1 17.1 L15.2 17.1 C15.5 17.1 15.7 17 16 16.9 C17.9 16.5 20.2 16.2 20.6 15 C21.1 14.2 19.9 12.3 18.6 10.5 z" id="a3" fill="#282421" /><path d="M11.5 12.4 C12 12.8 12.7 12.5 13.3 12.2 C14.5 11.6 17.1 10.9 17 10.4 C16.9 9.9 15.4 9.5 15.2 9.4 C14.5 9.2 13.5 9.2 12.9 9.5 C12.1 10 10.4 11.5 11.5 12.4 z" id="b3" fill="#FFFAF8" /></g></g><g transform="translate(185.5, 138.8999) scale(1.1) translate(-185.5, -138.8999) translate(102.9, 95.19995) translate(68, 31)" id="c3"><g id="d3"><path d="M1.6 14.8 C6.3 14.2 5.3 5.1 10.6 1.5 C14.6 -1.3 20.8 2.3 23.5 4.5 C27.1 7.3 29.5 10.3 28.9 14.8 C28.3 19.3 25 23.4 20.7 24.9 C17.1 26.1 13.1 25.6 9.5 24.1 C6.9 23 -1.4 15.1 1.6 14.8 z" id="e3" fill="#F0C497" /><path d="M23.9 12.4 C23.9 10.8 21.5 10 19.3 8.3 C18.5 7.7 17 6.6 15.2 6.6 C12.7 6.6 10.9 8.3 9.7 10.3 C8.4 12.5 6.8 14.7 7.3 15.7 C7.8 16.9 10.4 17.2 13 18.1 C14.2 18.5 17.6 18.4 19.5 16.8 C21.5 15 23.9 13.3 23.9 12.4 z" id="f3" fill="#81665B" /><path d="M17.1 9 C16.9 8.9 16.7 8.8 16.5 8.7 C16.4 8.7 16.4 8.6 16.3 8.6 C15.7 8.3 15.1 8.2 14.4 8.2 C13.1 8.2 12 8.7 11.1 9.6 C10.8 9.9 10.5 10.3 10.3 10.7 C9.1 12.4 7.8 14.4 8.2 15.3 C8.7 16.5 10.9 16.8 12.8 17.2 C13.1 17.3 13.3 17.4 13.6 17.4 L13.7 17.4 C13.9 17.4 14.1 17.4 14.3 17.4 C15.2 17.4 15.9 17.2 16.6 16.7 C16.6 16.7 16.7 16.7 16.7 16.6 C16.9 16.5 17.1 16.3 17.2 16.2 C19.1 14.8 21.1 13.2 20.9 12.2 C20.8 10.8 18.9 10.1 17.1 9 z" id="g3" fill="#282421" /><path d="M11.1 12 C11.6 12.4 12.3 12.1 12.9 11.8 C14.1 11.2 16.7 10.5 16.6 10 C16.5 9.5 15 9.1 14.8 9 C14.1 8.8 13.1 8.8 12.5 9.1 C11.6 9.5 9.9 11.1 11.1 12 z" id="h3" fill="#FFFAF8" /></g></g></g></g></g></g><defs><g transform="translate(17.09519, 0.800995) translate(-135.2952, -293.601)" id="i3" fill="#000"><path d="M118.2 302.7 C118.4 307.4 132.5 311.2 149.8 311.2 C167.1 311.2 181.2 307.4 181.4 302.7 C181.4 307.5 181.4 310.1 181.4 310.5 C181.4 315.3 167.3 319.1 149.8 319.1 C132.3 319.1 118.2 315.2 118.2 310.5 L118.2 302.7 L118.2 302.7 z" fill-opacity="0.4528" id="j3" fill="#593001" /><path d="M118.7 301.7 C118.9 306.4 133 310.2 150.3 310.2 C167.6 310.2 181.7 306.4 181.9 301.7 C181.9 306.5 181.9 309.1 181.9 309.5 C181.9 314.3 167.8 318.1 150.3 318.1 C132.8 318.1 118.7 314.2 118.7 309.5 L118.7 301.7 L118.7 301.7 z" id="k3" fill="#DA8113" /><linearGradient x1="46.0545" y1="-118.6926" x2="45.4656" y2="-118.6926" gradientUnits="userSpaceOnUse" gradientTransform="matrix(117.135, 0, 0, 28.4634, -5208.417, 3687.795)" id="l3"><stop offset="0%" stop-color="#D9952A" stop-opacity="1" /><stop offset="6.438854%" stop-color="#CA7519" stop-opacity="1" /><stop offset="30.54%" stop-color="#E3AD3A" stop-opacity="1" /><stop offset="51.05%" stop-color="#FFEC91" stop-opacity="1" /><stop offset="68.8%" stop-color="#E9BD44" stop-opacity="1" /><stop offset="86.24%" stop-color="#FFED6C" stop-opacity="1" /><stop offset="93.87%" stop-color="#F2D353" stop-opacity="1" /><stop offset="100%" stop-color="#F2B947" stop-opacity="1" /></linearGradient><path d="M118.2 301.6 C118.4 306.1 132.7 309.7 150.3 309.7 C167.9 309.7 182.2 306.1 182.4 301.6 C182.4 306.2 182.4 308.7 182.4 309 C182.4 313.5 168 317.2 150.3 317.2 C132.6 317.2 118.2 313.5 118.2 309 L118.2 301.6 L118.2 301.6 z" id="m3" style="fill:url(#l3)" /><linearGradient x1="45.4914" y1="-117.9547" x2="45.9407" y2="-117.5895" gradientUnits="userSpaceOnUse" gradientTransform="matrix(115.425, 0, 0, 29.925, -5125.077, 3826.124)" id="n3"><stop offset="0%" stop-color="#F4E072" stop-opacity="1" /><stop offset="100%" stop-color="#DB9427" stop-opacity="1" /></linearGradient><ellipse cx="150.3" cy="301.5" rx="31.6" ry="8.2" id="o3" style="fill:url(#n3)" /><linearGradient x1="45.4656" y1="-126.0065" x2="46.0545" y2="-126.0065" gradientUnits="userSpaceOnUse" gradientTransform="matrix(117.135, 0, 0, 18.6219, -5208.417, 2651.479)" id="p3"><stop offset="0%" stop-color="#D9952A" stop-opacity="1" /><stop offset="6.438854%" stop-color="#CA7519" stop-opacity="1" /><stop offset="30.54%" stop-color="#E3AD3A" stop-opacity="1" /><stop offset="51.05%" stop-color="#FFEC91" stop-opacity="1" /><stop offset="68.8%" stop-color="#E9BD44" stop-opacity="1" /><stop offset="86.24%" stop-color="#FFED6C" stop-opacity="1" /><stop offset="93.87%" stop-color="#F2D353" stop-opacity="1" /><stop offset="100%" stop-color="#F2B947" stop-opacity="1" /></linearGradient><path d="M119.2 299.9 C119 300.2 118.9 300.6 118.9 301 C118.9 305.5 132.9 309.2 150.3 309.2 C167.7 309.2 181.7 305.5 181.7 301 C181.7 300.6 181.6 300.3 181.4 299.9 C182 300.5 182.4 301.2 182.4 301.9 C182.4 306.4 168 310.1 150.3 310.1 C132.6 310.1 118.2 306.4 118.2 301.9 C118.2 301.3 118.6 300.6 119.2 299.9 z" id="q3" style="fill:url(#p3)" /><linearGradient x1="45.196" y1="-121.5895" x2="45.3746" y2="-120.6758" gradientUnits="userSpaceOnUse" gradientTransform="matrix(101.745, 0, 0, 23.94, -4458.332, 3199.41)" id="r3"><stop offset="0%" stop-color="#F8DD61" stop-opacity="1" /><stop offset="100%" stop-color="#EAA330" stop-opacity="1" /></linearGradient><ellipse cx="150.3" cy="300.8" rx="27.8" ry="6.6" id="s3" style="fill:url(#r3)" /><linearGradient x1="45.5694" y1="-134.267" x2="45.0221" y2="-134.267" gradientUnits="userSpaceOnUse" gradientTransform="matrix(101.745, 0, 0, 13.2525, -4458.332, 2077.223)" id="t3"><stop offset="0%" stop-color="#F4CA2F" stop-opacity="1" /><stop offset="51.38%" stop-color="#BF7737" stop-opacity="1" /><stop offset="100%" stop-color="#E4A929" stop-opacity="1" /></linearGradient><path d="M122.6 301.5 C122.5 301.3 122.4 301 122.4 300.8 C122.4 297.2 134.9 294.2 150.2 294.2 C165.5 294.2 178 297.1 178 300.8 C178 301 177.9 301.3 177.8 301.5 C176.3 298.2 164.5 295.6 150.1 295.6 C135.7 295.6 124.1 298.2 122.6 301.5 z" id="u3" style="fill:url(#t3)" /></g></defs><desc>HENI4J5A8G2,GXIFfUyJrzjV+9bXyRCAub2AuPwWD1TnLtWuelawStBB+bYQhC+mAO/CHp2qui9blrt+EMs5KdpF3JxfZ7Ik8v1ZMehFs16BUbqYwWuAHu0=</desc></svg>