<?xml version="1.0" encoding="utf-8"?><!DOCTYPE svg PUBLIC "-//W3C//DTD SVG 1.1//EN" "http://www.w3.org/Graphics/SVG/1.1/DTD/svg11.dtd"><svg x="0" y="0" width="340px" height="340px" viewBox="0, 0, 340, 340" preserveAspectRatio="xMidYMid" font-size="0" id="a" enable-background="new 0 0 340 340" xmlns="http://www.w3.org/2000/svg" xmlns:xlink="http://www.w3.org/1999/xlink" xmlns:xml="http://www.w3.org/XML/1998/namespace" version="1.1"><g id="b" fill="#000"><g id="c"><g transform="translate(0, 0) translate(0, 224)" id="d"><ellipse cx="168.6" cy="53.1" rx="57.8" ry="12.8" fill-opacity="0.25" id="e" /></g><g id="f"><g transform="translate(86.8, 77.19998) translate(0, 161)" id="g"><path d="M0.4 6.2 C0.3 6.5 -0.6 7.7 0.7 12 C1.5 14.9 3.1 16.7 5.8 19.5 C9.2 23.1 11.9 25.4 15 26.2 C18.1 26.9 25.8 27.2 29.5 28.1 C33.5 29.1 38.9 32.7 41.2 34 C46 36.8 58.3 35.8 61.1 30.3 C62.5 27.5 64.6 23.5 64.1 19.5 C63.5 15.4 60.2 11.4 57.5 12 C52 13.2 48.6 13.1 43.4 13.8 C38.1 14.5 35.9 10.9 29.4 10.9 C26.4 10.9 22.2 10.1 16.3 10.9 C13.7 11.2 8.7 9.6 6.8 8.3 C5.9 7.7 3.6 5.9 2.7 5.5 C1.5 5 0.9 5.2 0.4 6.2 z" id="h" fill="#7B4C3A" /><g transform="translate(0, 5)" id="i"><path d="M37.6 7.9 C34.9 7.5 32.7 6.1 28.6 6.5 C26.1 6.8 22.4 6.5 17.5 7.7 C15.3 8.2 11 7.3 9.2 6.3 C8.4 5.9 6.3 4.6 5.5 4.3 C4.4 4 4 4.2 3.6 5.1 C3.6 5.4 2.9 6.5 4.4 10 C5.3 12.4 6.8 13.8 9.4 15.9 C12.6 18.6 15.1 20.3 17.8 20.8 C20.5 21.1 27 20.7 30.2 21.1 C33.7 21.6 38.6 24.2 40.6 25.1 C44.9 27 55.2 25.1 57.1 20.2 C58 17.7 59.5 14.1 58.7 10.8 C58.4 9.5 57.7 8.2 56.9 7.2 C57.1 7.2 57.3 7.1 57.5 7.1 C60.2 6.5 63.5 10.5 64.1 14.6 C64.6 18.6 62.5 22.6 61.1 25.4 C58.3 30.8 46 31.8 41.2 29 C38.9 27.7 33.5 24.1 29.5 23.1 C25.8 22.2 18.1 21.9 15 21.2 C11.9 20.4 9.2 18.1 5.8 14.5 C3.1 11.7 1.5 9.9 0.7 7 C-0.6 2.7 0.3 1.5 0.4 1.2 C0.9 0.2 1.5 0 2.7 0.5 C3.6 0.9 5.9 2.7 6.8 3.3 C8.7 4.6 13.7 6.2 16.3 5.9 C22.2 5.1 26.4 5.9 29.4 5.9 C33 5.9 35.3 7 37.6 7.9 z" fill-opacity="0.3" id="j" /></g></g><g transform="translate(116.3, 272.3) scale(1) translate(-116.3, -272.3) translate(86.90001, 76.79997) translate(21, 121)" id="k"><path d="M22 77.1 C31.1 76.2 36.7 76.5 39.5 72.9 C42.3 69.3 41 56.7 45 46.4 C49 36.1 47.8 3.1 33.3 0.7 C19.9 -1.6 5.4 1.5 1.2 17.1 C-3.8 35.6 8.3 46.8 11.6 50.5 C13.8 53 14.6 54.9 13.9 56.4 C8 57.7 4.2 60.7 2.5 65.1 C0 71.8 2 77.1 4 78.2 C6 79.3 12.9 78.1 22 77.1 z" id="l" fill="#B09082" /><g id="m"><path d="M22 77.1 C12.9 78.1 6 79.3 4 78.2 C2 77.1 0 71.8 2.5 65.1 C4.2 60.7 8 57.7 13.9 56.4 C14.6 54.9 13.8 53 11.6 50.5 C8.3 46.8 -3.8 35.6 1.2 17.1 C5.4 1.5 19.9 -1.6 33.3 0.7 C47.8 3.1 49 36.1 45 46.4 C41 56.7 42.3 69.3 39.5 72.9 C36.7 76.5 31.1 76.2 22 77.1 z M25.5 74.9 C34.6 74 34.4 74.1 37.2 70.5 C40 66.9 39.1 55.6 43.1 45.3 C47.1 35 47.8 4 33.3 1.6 C19.9 -0.6 8.7 1.3 4.5 16.9 C-0.5 35.4 10.3 47.8 13.6 51.5 C15.8 54 17.1 55.2 17.1 56.9 C11.2 58.2 6.2 59.9 4.5 64.3 C2 70.9 4 74.5 5.2 76.1 C6.4 77.7 16.4 75.9 25.5 74.9 z" fill-opacity="0.221" id="n" /></g></g><g transform="translate(221.3, 272.3) scale(1) translate(-221.3, -272.3) translate(86.90002, 76.79997) translate(117.5, 160.5) scale(-1, 1) translate(-117.5, -160.5) translate(94, 121)" id="o"><path d="M22 77.1 C31.1 76.2 36.7 76.5 39.5 72.9 C42.3 69.3 41 56.7 45 46.4 C49 36.1 47.8 3.1 33.3 0.7 C19.9 -1.6 5.4 1.5 1.2 17.1 C-3.8 35.6 8.3 46.8 11.6 50.5 C13.8 53 14.6 54.9 13.9 56.4 C8 57.7 4.2 60.7 2.5 65.1 C0 71.8 2 77.1 4 78.2 C6 79.3 12.9 78.1 22 77.1 z" id="p" fill="#B09082" /><g id="q"><path d="M22 77.1 C12.9 78.1 6 79.3 4 78.2 C2 77.1 0 71.8 2.5 65.1 C4.2 60.7 8 57.7 13.9 56.4 C14.6 54.9 13.8 53 11.6 50.5 C8.3 46.8 -3.8 35.6 1.2 17.1 C5.4 1.5 19.9 -1.6 33.3 0.7 C47.8 3.1 49 36.1 45 46.4 C41 56.7 42.3 69.3 39.5 72.9 C36.7 76.5 31.1 76.2 22 77.1 z M22.3 75.3 C31 74.4 36.1 76 38.8 72.6 C41.5 69.2 40.2 57.1 44.1 47.3 C48 37.5 46.8 5.9 32.9 3.6 C20.1 1.5 7.8 4.1 3.8 18.9 C-1 36.5 9.8 47.1 12.9 50.7 C15 53.1 16.9 56.5 16.2 57.9 C10.5 59.1 5.4 60.6 3.7 64.8 C1.3 71.2 3.1 75.3 5 76.3 C6.9 77.3 13.6 76.2 22.3 75.3 z" fill-opacity="0.221" id="r" /></g></g><g transform="translate(86.90001, 76.79997) translate(29, 49)" id="s"><path d="M88.8 24.6 C92.3 31.7 95.8 53 97.8 59.4 C99.8 65.8 98.9 80.9 99 89.1 C99.1 97.3 87.5 146.2 83.3 150.5 C81.7 152.2 75.1 153.6 64.6 153.6 C60.8 153.6 55.4 151.6 52.3 151.6 C48.8 151.6 43.2 153.7 39.8 153.6 C30.1 153.2 24.2 152.1 22.8 150.5 C19.1 146.2 6.9 103 6.5 91.8 C6.1 80.6 3.2 69.8 7.6 59.4 C10.8 52.4 13.5 40.8 16 24.6 C17.2 17.2 38.4 0.2 52.3 0.2 C73.1 0.2 85.3 17.5 88.8 24.6 z" id="t" fill="#D8C6BA" /><g transform="translate(5, 0)" id="u"><path d="M83.8 24.6 C87.3 31.7 90.8 53 92.8 59.4 C94.8 65.8 93.9 80.9 94 89.1 C94.1 97.3 82.5 146.2 78.3 150.5 C76.7 152.2 70.1 153.6 59.6 153.6 C55.8 153.6 50.4 151.6 47.3 151.6 C43.8 151.6 38.2 153.7 34.8 153.6 C25.1 153.2 19.2 152.1 17.8 150.5 C14.1 146.2 1.9 103 1.5 91.8 C1.1 80.6 -1.8 69.8 2.6 59.4 C5.8 52.4 8.5 40.8 11 24.6 C12.2 17.2 33.4 0.2 47.3 0.2 C68.1 0.2 80.3 17.5 83.8 24.6 z M83 24.8 C79.6 17.8 67.6 0.9 47.3 0.9 C33.7 0.9 13 17.5 11.8 24.8 C9.4 40.6 6.7 52 3.6 58.8 C-0.7 69 2.1 79.5 2.5 90.4 C2.9 101.3 14.8 143.6 18.5 147.8 C19.9 149.4 25.6 150.4 35.1 150.8 C38.4 150.9 43.9 148.8 47.3 148.8 C50.3 148.8 55.6 150.8 59.3 150.8 C69.6 150.8 76 149.4 77.6 147.8 C81.7 143.6 93 95.8 92.9 87.8 C92.8 79.8 93.7 65 91.8 58.8 C89.8 52.5 86.4 31.7 83 24.8 z" fill-opacity="0.2" id="v" /></g></g><g transform="translate(117.7375, 148.625) scale(1.25, 1.371827) translate(-127.9, -156.7) translate(108.9, 77.09996)" id="w"><path d="M27.3 124.6 C24.3 138.7 29.4 139.8 32.1 151.3 C33.9 158.9 35.4 165.1 36.8 169.9 L48.9 167.7 C48.9 157.8 49.6 152 51 150.1 C53.2 147.3 55.7 147.2 56.8 143.3 C57.5 140.7 56.8 133.5 54.9 127.7 C53.8 124.1 47.6 121.9 45.2 120.8 C40 118.4 35.5 118.8 31.3 114.2 C29.9 112.5 28.1 121.7 27.3 124.6 z" id="x" fill="#FAF4E8" /><path d="M48.9 158.7 C48.9 161.5 50.4 172.2 48.9 174.2 C47.4 176.2 45.2 177.1 43.2 177.4 C41.2 177.7 34.7 177.3 32.5 177.7 C30.2 178.1 27 174.6 27 172.7 C27 170.8 27.3 165.9 30.4 164.7 C33.5 163.5 26 164.6 35.5 163.3 C36.2 163.2 35.2 157.5 36.1 158.1 C36.6 158.4 39.3 165.3 39.6 164.7 C40.4 163.1 39.8 156.9 40.6 156.7 C41.9 156.4 43.7 161.4 45.5 162.2 C49.6 164 48.9 153.7 48.9 158.7 z" id="y" fill="#7B4C3A" /><path d="M92 124.6 C95 138.7 89.9 139.8 87.2 151.3 C85.4 158.9 83.9 165.1 82.5 169.9 L70.4 167.7 C70.4 157.8 69.7 152 68.3 150.1 C66.1 147.3 64.5 147.9 63.5 144 C62.8 141.5 62.5 134.7 65 128.4 C66.4 124.9 71.3 122.5 73.8 121.3 C76.5 120.1 80.2 119.9 83.2 118 C85.9 116.3 87.4 111.8 88.9 115.4 C89.7 118.2 90.9 122 92 124.6 z" id="z" fill="#FAF4E8" /><path d="M70.4 158.7 C70.4 161.5 68.9 172.2 70.4 174.2 C71.9 176.2 74.1 177.1 76.1 177.4 C78.1 177.7 84.6 177.3 86.8 177.7 C89.1 178.1 92.3 174.6 92.3 172.7 C92.3 170.8 92 165.9 88.9 164.7 C85.8 163.5 93.3 164.6 83.8 163.3 C83.1 163.2 84.1 157.5 83.2 158.1 C82.7 158.4 80 165.3 79.7 164.7 C78.9 163.1 79.5 156.9 78.7 156.7 C77.4 156.4 75.6 161.4 73.8 162.2 C69.7 164 70.4 153.7 70.4 158.7 z" id="a1" fill="#7B4C3A" /><path d="M31.6 114.5 C30.3 113.7 28.7 121.9 28 124.6 C25.1 138 30 139.1 32.6 150 C33.6 154.3 35.6 160.4 36.4 163.8 C28 164.9 34.3 164.4 31.4 165.5 C28.4 166.6 27.9 168.6 27.9 170.4 C27.9 172.2 30.7 175.5 32.9 175.1 C35 174.7 41.2 175.1 43.1 174.8 C45 174.5 46.4 174 47.8 172.1 C48.6 171.1 48.6 166.8 47.8 159.3 C48.1 153.7 49.5 150.2 50.5 148.8 C52.6 146.1 55 146 56 142.3 C56.7 139.8 56 133 54.2 127.4 C53.2 124 47.2 121.9 45 120.8 C40.1 118.6 35.9 118.9 32 114.8 C36 118.6 40.3 118.4 45.2 120.7 C47.6 121.8 53.8 124 54.9 127.6 C56.8 133.4 57.5 140.6 56.8 143.2 C55.7 147.1 53.2 147.2 51 150 C50 151.4 49.3 155 49 160.9 C49.3 165.1 50.1 172.4 48.9 174.1 C47.4 176.1 45.2 177 43.2 177.3 C41.2 177.6 34.7 177.2 32.5 177.6 C30.2 178 27 174.5 27 172.6 C27 170.7 27.3 165.8 30.4 164.6 C33.4 163.4 26.3 164.5 35 163.3 C34.1 159.8 33.1 155.8 32.1 151.2 C29.4 139.7 24.3 138.6 27.3 124.5 C28.1 121.6 29.9 112.4 31.3 114.1 C31.4 114.3 31.5 114.4 31.6 114.5 z" opacity="0.15" id="b1" /><path d="M85 116.4 C84.4 117.1 83.7 117.8 82.9 118.3 C80 120.1 76.5 120.3 73.9 121.4 C71.5 122.5 66.8 124.8 65.5 128.2 C63.1 134.2 63.4 140.7 64.1 143.1 C65.1 146.8 66.6 146.2 68.7 148.9 C69.7 150.3 70.9 154.3 71.1 160 C70.8 164 69.9 170.7 71.1 172.2 C72.5 174.1 74.2 174.6 76.1 174.9 C78 175.2 84.2 174.8 86.3 175.2 C88.5 175.6 91.3 172.3 91.3 170.5 C91.3 168.7 91.3 167.3 88.3 166.2 C85.4 165.1 91.2 165.8 82.9 164.6 L83.9 161.6 C84.8 158.2 85.7 154.4 86.7 150.1 C89.3 139.1 94.1 138.1 91.3 124.6 C90.3 122.1 89.1 118.5 88.3 115.8 C87.5 113.9 86.7 114.4 85.7 115.5 C87 114.1 87.9 113.1 88.8 115.4 C89.6 118.2 90.8 122 91.9 124.6 C94.9 138.7 89.8 139.8 87.1 151.3 C86 155.8 85.1 159.8 84.2 163.4 C93 164.6 85.8 163.6 88.8 164.7 C91.9 165.9 92.2 170.8 92.2 172.7 C92.2 174.6 89 178.1 86.7 177.7 C84.5 177.3 78 177.7 76 177.4 C74 177.1 71.8 176.2 70.3 174.2 C69.1 172.6 69.8 165.3 70.2 161 C69.9 155.1 69.3 151.5 68.2 150.1 C66 147.3 64.4 147.9 63.4 144 C62.7 141.5 62.4 134.7 64.9 128.4 C66.3 124.9 71.2 122.5 73.7 121.3 C76.4 120.1 80.1 119.9 83.1 118 C83.9 117.6 84.5 117 85 116.4 z" opacity="0.15" id="c1" /><path d="M20.3 98.1 C19 103.8 20.5 106.5 21.1 110 C21.5 112.3 22.5 115.5 24 119.6 L25.6 115.8 C26.7 120.6 27.9 123.8 29.1 125.5 C30.3 127.2 32 129.5 34 132.3 L34.7 127.7 C35.9 129.5 37.6 131.8 40 134.7 C42.4 137.5 43.2 138.9 42.6 138.9 L44.7 134.7 C46.3 137.4 47.8 139.5 49.3 140.8 C50.8 142.2 52.9 144 55.7 146.2 L55.7 141.7 C58 144.7 59.6 146.2 60.6 146.2 C61.6 146.2 63.3 144.7 65.9 141.7 L65.9 146.2 C72.8 141.3 76.5 137.9 76.9 136.1 C78.7 137.4 79.6 138.3 79.6 138.9 C81.2 137.4 82.4 135.6 83 133.6 C83.7 131.6 84.7 129.1 86 126.2 L87.7 129.4 C92 124.1 94.7 119.9 95.8 116.7 C97.5 112 100.3 100.3 97.5 92.3 C95.6 87.1 90.2 83.1 81.3 80.5 C67.3 80.5 59.4 80.5 57.5 80.5 C54.7 80.5 41.3 79.7 40 80.5 C39.3 80.9 33.2 80.3 26.5 86.3 C24 88.7 21.6 92.4 20.3 98.1 z" id="d1" fill="#FEFEFF" /><path d="M20.3 98.1 C19 103.8 20.5 106.5 21.1 110 C21.3 112.5 22.4 115.6 24 119.6 L25.6 115.8 C26.7 120.6 27.9 123.8 29.1 125.5 C30.3 127.2 32 129.5 34 132.3 L34.7 127.7 C35.9 129.5 37.6 131.8 40 134.7 C42.4 137.5 43.2 138.9 42.6 138.9 L44.7 134.7 C46.3 137.4 47.8 139.5 49.3 140.8 C50.8 142.2 52.9 144 55.7 146.2 L55.7 141.7 C58 144.7 59.6 146.2 60.6 146.2 C61.6 146.2 63.3 144.7 65.9 141.7 L65.9 146.2 C72.8 141.3 76.5 137.9 76.9 136.1 C78.7 137.4 79.6 138.3 79.6 138.9 C81.2 137.4 82.4 135.6 83 133.6 C83.7 131.6 84.7 129.1 86 126.2 L87.7 129.4 C92 124.1 94.7 119.9 95.8 116.7 C97.5 112 100.3 100.3 97.5 92.3 C95.6 87.1 90.2 83.1 81.3 80.5 C67.3 80.5 59.4 80.5 57.5 80.5 C54.7 80.5 41.3 79.7 40 80.5 C39.3 80.9 33.2 80.3 26.5 86.3 C24 88.7 21.6 92.4 20.3 98.1 z" fill-opacity="0.09629755" id="e1" fill="#010101" /><path d="M98.5 97 C98 102.2 96.7 107 95.8 109.7 C94.7 112.9 92 117.1 87.7 122.4 L86 119.2 C84.7 122.1 83.7 124.6 83 126.6 C82.4 128.6 80.4 125.1 78.8 126.6 C78.8 126 75.9 133.2 75.5 135 C75.1 136.8 72 134.7 70.4 129.8 L67.5 137.4 C64.9 140.4 62.5 133.8 61.5 133.8 C60.9 133.8 60.2 140.7 58.4 139.2 C57.2 138.2 54.2 134.4 53.3 133.2 L52.2 136.7 C49.4 134.5 48.5 129.9 46.9 127.2 L42.1 132.5 C42.6 132.5 39 127.9 38.4 127.2 C36 124.3 36 122.5 34.8 120.7 L34.1 125.3 C32.1 122.5 30.4 120.2 29.2 118.5 C28 116.8 26.8 113.6 25.7 108.8 L24.1 112.6 C22.6 108.5 21.6 105.3 21.2 103 C21 101.5 20.5 100.2 20.3 98.8 C20.3 98.6 20.4 98.3 20.4 98.1 C21.7 92.4 24.1 88.7 26.6 86.3 C33.3 80.3 39.4 80.9 40.1 80.5 C41.4 79.7 54.8 80.5 57.6 80.5 L81.3 80.5 C90.2 83.1 95.6 87.1 97.5 92.3 C98 93.8 98.3 95.4 98.5 97 z" id="f1" fill="#FEFEFF" /><path d="M20.4 97.7 C21.7 92.1 24.1 88.4 26.6 86.1 C33.3 80.2 39.4 80.8 40.1 80.4 C41.4 79.6 54.8 80.4 57.6 80.4 L81.3 80.4 C90.2 83 95.6 86.9 97.5 92 C98 93.5 98.3 95.1 98.5 96.6 C98.5 96.8 98.5 96.9 98.5 97.1 C99.5 104.5 97.3 113.2 95.8 117.1 C94.7 120.3 92 124.4 87.7 129.6 L86 126.4 C84.7 129.3 83.7 131.7 83 133.7 C82.4 135.7 81.2 137.5 79.6 138.9 C79.6 138.3 78.7 137.4 76.9 136.1 C76.5 137.9 72.8 141.2 65.9 146.1 L65.9 141.7 C63.3 144.7 61.6 146.1 60.6 146.1 C59.6 146.1 58 144.6 55.7 141.7 L55.7 146.1 C52.9 143.9 50.8 142.2 49.3 140.8 C47.8 139.5 46.3 137.4 44.7 134.8 L42.6 138.9 C43.2 138.9 42.4 137.5 40 134.8 C37.6 131.9 35.9 129.7 34.7 127.9 L34 132.4 C32 129.6 30.3 127.4 29.1 125.7 C27.9 124 26.7 120.9 25.6 116.1 L24 119.9 C22.4 116 21.3 112.9 21.1 110.4 C20.5 106.9 19 104.3 20.3 98.7 C20.3 98.2 20.4 97.9 20.4 97.7 z M28.6 86.7 C26.3 88.9 23.9 92.3 22.7 96.6 C21.3 101.9 21.5 105.8 22.1 109 C22.3 111.3 22.8 111.1 24.3 114.8 L25.5 113.8 C26.5 118.3 29.8 122.4 30.9 123.9 C32 125.5 31.5 125.1 33.4 127.7 L35.5 124.8 C36.6 126.5 38.9 129.7 41.1 132.4 C43.4 135 43.7 134.7 43.2 134.7 L45.3 131.8 C46.8 134.3 48.4 136.9 49.8 138.1 C51.2 139.4 52 140.5 54.6 142.5 L54.8 138.6 C57 141.4 59.5 143.1 60.4 143.1 C61.3 143.1 64.5 141.9 66.9 139.1 L66.9 142.6 C73.4 138.1 77.1 135.1 77.4 133.4 C79.1 134.6 79.8 135.7 79.8 136.3 C81.3 134.9 80.8 133.2 81.4 131.4 C82.1 129.5 84.1 126 85.3 123.3 L86.7 125.9 C90.7 121 92.4 118.7 93.5 115.7 C94.8 112.1 96.9 103.9 96 96.9 C96 96.8 96 96.6 96 96.5 C95.8 95 95.5 93.5 95.1 92.1 C93.3 87.3 88.2 83.6 79.9 81.2 L57.7 81.2 C55.1 81.2 42.5 80.5 41.3 81.2 C40.6 81.7 34.9 81.1 28.6 86.7 z" fill-opacity="0.09629755" id="g1" fill="#010101" /></g></g><g id="h1"><g transform="translate(86.90001, 76.79997) translate(38, 0)" id="i1"><g id="j1"><path d="M67 2.2 C73.4 3.6 81.6 6.5 84.5 10.5 C87.4 14.5 90.2 22.1 89.1 36.2 C88 50.3 87.7 63.3 84.9 70.8 C82.1 78.3 75 87 64.4 90.8 C57.6 93.3 51.2 94.5 45.2 94.6 C44.9 94.6 44.8 94.6 44.7 94.6 C38.7 94.5 32.3 93.2 25.5 90.8 C15 87 7.8 78.2 5 70.7 C2.2 63.2 2 50.4 0.9 36.3 C-0.2 22.2 2.6 14.7 5.5 10.6 C8.4 6.5 16.6 3.6 23 2.3 C27.2 1.4 34.4 0.8 44.7 0.5 C55.5 0.7 62.8 1.3 67 2.2 z" id="k1" fill="#7B4C3A" /><path d="M72.4 85.7 C70 87.7 67.2 89.4 63.9 90.6 C57.1 93.1 50.7 94.3 44.7 94.4 C44.6 94.4 44.5 94.4 44.5 94.4 C44.4 94.4 44.3 94.4 44.3 94.4 C38.3 94.3 31.9 93 25.1 90.6 C21.8 89.4 19.1 87.8 16.7 85.9 C13.9 74 13 66.5 13.9 63.2 C15.3 57.8 17.2 56.8 11.8 50.9 C6.4 45 12 38 19.6 33.1 C24.6 29.8 27.9 28.7 29.3 29.6 C26.3 28.2 24.3 28.9 22.8 29.2 C20.5 29.7 22.5 24.9 27.2 23.7 C31.9 22.5 36 23.2 38.1 25.2 C40.2 27.2 41.4 28.8 43.6 28.7 C43.7 28.7 43.9 28.7 44 28.7 C43.7 28.7 43.9 28.7 44.5 28.7 C45.1 28.7 45.3 28.7 45 28.7 C45.1 28.7 45.2 28.7 45.4 28.7 C47.6 28.8 48.9 27.4 51.1 25.4 C53.2 23.4 57.4 22 61.9 23.7 C66.4 25.4 68.8 30 66.5 29.5 C65 29.2 62.8 28.1 59.8 29.5 C61.2 28.6 64.5 29.7 69.5 33 C77 38 82.7 45.1 77.3 51 C71.8 56.9 73.7 57.8 75.2 63.3 C75.9 66.4 75 73.9 72.4 85.7 z" id="l1" fill="#342520" /><path d="M56.9 1 C57.3 1.3 53.2 1.7 52.8 7 C52.6 8.7 55.1 17.3 55.5 19.4 C56.7 24.8 55.9 24.4 54.6 27.2 C50.2 36.4 49 41.7 51.9 46.6 C53.8 49.8 57.2 53.4 62 57.4 C64.9 60.2 66.8 62.7 67.6 64.8 C69.5 69.9 72.6 79 67.6 86.6 C62.6 94.2 58.2 102.4 44.8 102.4 C31.4 102.4 23.8 94.2 20.3 84.8 C16.8 75.4 19 72.6 21.7 67.1 C23.4 63.6 24.8 60.8 28.6 57.5 C32.4 54.2 35.9 50 37.8 46.7 C40.6 41.8 39.4 36.5 35.1 27.3 C33.7 24.5 33 24.9 34.2 19.5 C34.8 16.9 37 12.2 37 7.1 C37 2 32.6 1.2 32.9 1 C33.8 0.9 37.8 0.5 44.8 0.5 C51.8 0.5 55.9 0.9 56.9 1 z" id="m1" fill="#FAF4E8" /><path d="M67 2.2 C73.4 3.6 81.6 6.5 84.5 10.5 C87.4 14.5 90.2 22.1 89.1 36.2 C88 50.3 87.7 63.3 84.9 70.8 C82.1 78.3 75 87 64.4 90.8 C57.6 93.3 51.2 94.5 45.2 94.6 C44.9 94.6 44.8 94.6 44.7 94.6 C38.7 94.5 32.3 93.2 25.5 90.8 C15 87 7.8 78.2 5 70.7 C2.2 63.2 2 50.4 0.9 36.3 C-0.2 22.2 2.6 14.7 5.5 10.6 C8.4 6.5 16.6 3.6 23 2.3 C27.2 1.4 34.4 0.8 44.7 0.5 C55.5 0.7 62.8 1.3 67 2.2 z M66.4 2.4 C62.3 1.5 55.2 0.9 44.7 0.7 C34.7 1 27.7 1.6 23.6 2.5 C17.4 3.8 9.4 6.6 6.6 10.6 C3.8 14.6 1 21.9 2.1 35.6 C3.2 49.3 3.4 61.8 6.1 69.1 C8.8 76.4 15.8 85 26 88.7 C32.6 91 38.8 92.3 44.7 92.4 C44.8 92.4 44.9 92.4 45.2 92.4 C51 92.3 57.3 91.1 63.9 88.7 C74.2 85 81.1 76.5 83.9 69.2 C86.7 61.9 86.9 49.2 88 35.5 C89.1 21.8 86.3 14.4 83.5 10.5 C80.7 6.6 72.6 3.8 66.4 2.4 z" fill-opacity="0.3" id="n1" /></g></g><g transform="translate(86.8, 77.09997) translate(13, 8)" id="o1"><path d="M23.1 5.8 C20.1 10.5 14.9 20.5 9.1 29.6 C2.2 36.8 3.5 38.8 1.4 42.3 C-0.7 45.8 -0.7 52.8 5.7 59 C12.1 65.2 17.7 67.5 18.8 71.2 C19.9 74.9 27 79 28.8 79 C30.6 79 35.6 73.9 34.7 71.2 C33.8 68.5 28.8 47.4 28.8 35.6 C28.8 31.8 27.5 17.1 28.8 12.6 C29.9 8.7 29.2 4.4 32.6 1.5 C34.2 0.1 26.1 1.2 23.1 5.8 z" id="p1" fill="#342520" /><g id="q1"><path d="M23.1 5.8 C26.1 1.2 34.2 0.1 32.6 1.5 C29.2 4.4 29.9 8.7 28.8 12.6 C27.5 17.1 28.8 31.8 28.8 35.6 C28.8 47.4 33.8 68.5 34.7 71.2 C35.6 73.9 30.6 79 28.8 79 C27 79 19.9 74.9 18.8 71.2 C17.7 67.5 12.1 65.2 5.7 59 C-0.7 52.8 -0.7 45.8 1.4 42.3 C3.5 38.8 2.2 36.8 9.1 29.6 C14.9 20.5 20.1 10.5 23.1 5.8 z M23 8.7 C20.5 12.9 14.6 22.9 9.8 31.1 C4 37.6 5.2 39.4 3.4 42.5 C1.6 45.6 1.9 51.8 7.7 57.1 C13.5 62.4 18.5 64.2 19.6 67.4 C20.7 70.6 25.6 75 28.4 74.5 C31.2 74 32.9 69 32 66.7 C31.1 64.4 27.6 46.2 27.3 35.8 C27.2 32.5 26.3 18.3 27.3 14.3 C28.1 10.8 28.8 5.7 30.4 2.6 C31.6 0.7 25.5 4.5 23 8.7 z" fill-opacity="0.3" id="r1" /></g></g><g transform="translate(87.10001, 76.29997) translate(109, 8)" id="s1"><path d="M20.2 5.8 C23.2 10.5 28.4 20.5 34.2 29.6 C41.1 36.8 40.1 38.8 42.2 42.3 C44.3 45.8 43.9 52.8 37.6 59 C31.3 65.2 25.6 67.5 24.5 71.2 C23.4 74.9 16.2 79 14.4 79 C12.6 79 7.6 73.9 8.5 71.2 C9.4 68.5 14.4 47.4 14.4 35.6 C14.4 31.8 15.7 17.1 14.4 12.6 C13.3 8.7 13.3 4.5 9.9 1.5 C8.4 0.2 17.2 1.2 20.2 5.8 z" id="t1" fill="#342520" /><path d="M20.2 5.8 C23.2 10.5 28.4 20.5 34.2 29.6 C41.1 36.8 40.1 38.8 42.2 42.3 C44.3 45.8 43.9 52.8 37.6 59 C31.3 65.2 25.6 67.5 24.5 71.2 C23.4 74.9 16.2 79 14.4 79 C12.6 79 7.6 73.9 8.5 71.2 C9.4 68.5 14.4 47.4 14.4 35.6 C14.4 31.8 15.7 17.1 14.4 12.6 C13.3 8.7 13.3 4.5 9.9 1.5 C8.4 0.2 17.2 1.2 20.2 5.8 z M20.6 8.8 C18 4.7 10.2 1 11.5 2.1 C14.5 4.8 15.2 9.5 16.1 12.9 C17.2 16.9 16.8 30.9 16.8 34.2 C16.6 44.7 12.4 64.8 11.5 67.2 C10.7 69.6 14.5 72.7 16.1 72.7 C17.7 72.7 24.1 69.2 25.2 65.9 C26.2 62.6 31.3 60.7 37 55.3 C42.7 49.9 41.8 43.9 40 40.8 C38.2 37.7 38.7 36 32.7 29.5 C27.7 21.5 23.2 13 20.6 8.8 z" fill-opacity="0.3" id="u1" /></g><g id="v1"><g transform="translate(86.90001, 76.39998) translate(53, 43)" id="w1"><g transform="translate(0, 9)" id="x1"><path d="M29.8 1 C33.9 0.7 37.3 1 40 1.8 C44.1 3.1 47.1 4.3 48.6 6 C50.1 7.7 52.5 11.7 53.9 15 C55.3 18.4 56 20.1 56.1 22.7 C56.2 25.3 55.9 29.5 57.7 34.6 C59.6 39.7 60 45.1 56.1 49.2 C52.2 53.3 52.5 53.8 48.6 53.6 C44.7 53.4 41.7 51.5 40 48.5 C38.3 45.5 35.1 41.9 31.5 41.5 C31.1 41.5 30.8 41.4 30.5 41.4 C30.4 41.4 30.3 41.5 30.1 41.5 L30.1 41.4 C30 41.4 29.9 41.4 29.8 41.4 C29.7 41.4 29.6 41.4 29.5 41.4 L29.5 41.5 C29.3 41.5 29.2 41.4 29.1 41.4 C28.8 41.4 28.5 41.5 28.1 41.5 C24.5 41.9 21.3 45.5 19.6 48.5 C17.9 51.5 14.9 53.4 11 53.6 C7.1 53.8 7.4 53.3 3.5 49.2 C-0.4 45.1 0 39.8 1.9 34.7 C3.8 29.6 3.5 25.4 3.5 22.8 C3.5 20.2 4.4 18.5 5.7 15.1 C7 11.7 9.6 7.7 11 6 C12.4 4.3 15.4 3.1 19.6 1.8 C22.3 1 25.7 0.7 29.8 1 z" id="y1" fill="#FAF4E8" /><path d="M43.8 52.4 C42.2 51.5 40.9 50.2 40 48.6 C38.3 45.6 35.1 42 31.5 41.6 C31.1 41.6 30.8 41.5 30.5 41.5 C30.4 41.5 30.3 41.6 30.1 41.6 L30.1 41.5 C30 41.5 29.9 41.5 29.8 41.5 C29.7 41.5 29.6 41.5 29.5 41.5 L29.5 41.6 C29.3 41.6 29.2 41.5 29.1 41.5 C28.8 41.5 28.5 41.6 28.1 41.6 C24.5 42 21.3 45.6 19.6 48.6 C19 49.7 18.2 50.7 17.2 51.4 C18.5 46.6 22 41.2 22 36.3 C22 28.9 16 20.6 17.8 15.3 C19.6 10 26.6 9.5 30.4 9.5 C34.2 9.5 38.9 9.5 41.2 14 C43.5 18.5 38.1 27.5 38.3 36.3 C38.3 42.2 42.8 47.6 43.8 52.4 z" id="z1" fill="#D8C6BA" /><path d="M19.7 48.4 C24.1 50.1 26.4 50.2 29.5 50.2 C36 50.2 39.7 48.2 39.7 48.2 C39.7 48.2 37.2 40.5 29.3 40.6 C21.5 40.6 19.7 48.4 19.7 48.4 z" id="a2" fill="#FAF4E7" /><path d="M29.8 1 C33.9 0.7 37.3 1 40 1.8 C44.1 3.1 47.1 4.3 48.6 6 C50.1 7.7 52.5 11.7 53.9 15 C55.3 18.4 56 20.1 56.1 22.7 C56.2 25.3 55.9 29.5 57.7 34.6 C59.6 39.7 60 45.1 56.1 49.2 C52.2 53.3 52.5 53.8 48.6 53.6 C44.7 53.4 41.7 51.5 40 48.5 C37.3 49.2 35.1 50.3 29.8 50.3 C24.5 50.3 22.2 49.5 19.6 48.5 C17.4 51.8 14.9 53.4 11 53.6 C7.1 53.8 7.4 53.3 3.5 49.2 C-0.4 45.1 0 39.8 1.9 34.7 C3.8 29.6 3.5 25.4 3.5 22.8 C3.5 20.2 4.4 18.5 5.7 15.1 C7 11.7 9.6 7.7 11 6 C12.4 4.3 15.4 3.1 19.6 1.8 C22.3 1 25.7 0.7 29.8 1 z M29.8 1 C26 0.7 22.9 1 20.4 1.7 C16.5 2.9 13.8 4 12.5 5.6 C11.2 7.2 8.8 10.9 7.6 14 C6.4 17.1 5.6 18.7 5.6 21.1 C5.6 23.5 5.9 27.4 4.1 32.1 C2.3 36.8 2 41.7 5.6 45.5 C9.2 49.3 8.9 49.7 12.5 49.6 C16.1 49.5 18.9 47.7 20.4 44.9 C21.9 42.1 20.4 48.3 29 48.3 C39.2 48.3 37.6 42.2 39.2 44.9 C40.8 47.7 43.5 49.4 47.1 49.6 C50.7 49.8 50.4 49.3 54 45.5 C57.6 41.7 57.2 36.7 55.5 32 C53.8 27.3 54.1 23.4 54 21 C53.9 18.6 53.3 17 52 13.9 C50.7 10.9 48.5 7.2 47.1 5.6 C45.8 4.1 43 3 39.2 1.8 C36.7 1 33.6 0.8 29.8 1 z" fill-opacity="0.4" id="b2" /></g></g><g transform="translate(87.20001, 76.79998) translate(74, 77)" id="c2"><path d="M7.5 1.5 C7.7 3.9 7.8 5.6 7.8 6.6 C7.8 7.6 7.5 9.5 7 12.1 C4.4 14.2 2.6 16 1.7 17.5 C0.4 19.8 -0.1 20.5 0.4 20.8 C0.7 21.1 2.4 18.9 4.9 17.7 C5.9 17.2 7.4 16.9 8.5 16.9 C9.8 16.9 11.5 17.4 12.7 18.1 C14.8 19.3 16 21 16.4 20.9 C16.9 20.7 15.7 17.6 13.2 15.4 C11.6 13.9 10.5 12.9 10 12.2 C9.7 9.6 9.6 7.8 9.6 6.6 C9.6 5.4 9.7 3.6 9.9 1.3 C10.5 0.4 10.1 0 8.7 0 C7.3 0 6.9 0.5 7.5 1.5 z" id="d2" /></g><g transform="translate(169.6, 145.8) scale(1, 1.2) translate(-169.6, -150.8) translate(90.90001, 82.79997) translate(68, 59)" id="e2"><g id="f2"><path d="M11.1 0.8 C15.4 0.8 16.5 1.2 19.7 3.5 C22.9 5.8 21.6 9.8 20.2 12.2 C19.7 13 18.6 13.6 17.6 14.9 C16.8 15.9 16.1 17.7 15.2 18.3 C13.9 19.2 12.7 19.6 10.9 19.5 C9.1 19.5 7.6 19 6.4 18.3 C4.4 17.1 3.9 15.5 3.1 14 C2.6 13.1 1.1 11.7 0.7 10.5 C0 8.5 -0.3 6.3 0.9 4.4 C2.9 1.4 6.7 0.8 11.1 0.8 z" id="g2" fill="#282421" /><path d="M3.2 4.8 C3.2 5.2 5.1 4.3 7.3 3.9 C8.3 3.7 9.4 3.6 10.9 3.6 C12.4 3.6 14.7 4.6 14.3 5.2 C13.7 6.1 14.1 7.5 15.7 7.9 C16.4 8 17 8 17.9 7.7 C18.8 7.3 19 6.7 19.1 6.1 C19.2 5.5 19.2 4.7 17.9 4 C17.6 3.8 16.2 2.8 14.4 2.6 C12.2 2.4 10.4 2.4 8.8 2.6 C7.2 2.8 6 3 5.1 3.4 C3.8 4 3.2 4.6 3.2 4.8 z" id="h2" fill="#FFF" /></g></g><g transform="translate(86.90001, 76.39998) translate(54, 35)" id="i2"><g id="j2"><path d="M4.7 6.8 C3.5 9 0.2 13.2 0.9 15.7 C1.2 16.6 2.2 17.5 3.7 17.7 C4.3 17.8 6.2 18.4 6.4 18.4 C7.8 18.4 8.8 18.1 9.8 17.5 C10.9 16.9 11.5 15.2 12.2 14.4 C13.2 13.3 13.9 12.5 14.1 11.8 C14.8 10.1 15.3 8.9 15.3 5.6 C15.4 -0.7 6.3 3.9 4.7 6.8 z" id="k2" fill="#7B4C3A" /><path d="M3.9 7.4 C5.7 5 7 3.9 8.7 2.1 C10.4 0.3 12.5 0.1 13.9 1.7 C15.3 3.3 15.8 4.2 15.8 5.9 C15.8 7.6 16.2 9 13.9 11.3 C11.6 13.6 6.9 15.1 5.3 13.6 C3.7 12.1 2.1 9.8 3.9 7.4 z" id="l2" /><path d="M11.2 8.1 C12.5 8.1 13.6 7 13.6 5.7 C13.6 4.4 13 3.7 11.7 3.7 C10.4 3.7 9.1 5.5 9.1 6.9 C9.1 8.3 9.9 8.1 11.2 8.1 z" id="m2" fill="#FFF" /><path d="M8.9 10.3 C9.3 10.3 9.1 9.3 9.1 8.8 C9.1 8.3 8.9 8.1 8.5 8.1 C8 8.1 7.6 8.8 7.6 9.2 C7.6 9.7 8.5 10.3 8.9 10.3 z" id="n2" fill="#FFF" /></g></g><g transform="translate(86.8, 76.39998) translate(94, 35)" id="o2"><g id="p2"><path d="M12.1 6.4 C13.3 8.6 16.6 11.7 15.7 14.6 C15.3 15.9 12.2 17.7 11.4 17.8 C7.5 18.6 7.1 17.7 5.7 16.8 C4.4 16 2.8 13 2.2 11.5 C1.5 9.9 1 8.7 1 5.4 C1 -0.9 10.5 3.5 12.1 6.4 z" id="q2" fill="#7B4C3A" /><path d="M12.3 5.9 C10.4 3.7 8.9 2.8 7.3 1.2 C5.7 -0.4 3.6 0.1 2.2 1.7 C0.8 3.3 0.3 4.1 0.3 5.9 C0.3 7.7 -0.1 9 2.2 11.3 C4.5 13.6 9.2 15.1 10.8 13.6 C12.4 12.1 14.2 8.1 12.3 5.9 z" id="r2" /><path d="M6.3 8.1 C5 8.1 3.9 7 3.9 5.7 C3.9 4.4 4.5 3.7 5.8 3.7 C7.1 3.7 8.3 5.6 8.3 6.9 C8.3 8.2 7.6 8.1 6.3 8.1 z" id="s2" fill="#FFF" /><path d="M9.1 8.7 C9.1 8.3 8.9 8.1 8.5 8.1 C8.1 8.1 7.7 8.7 7.7 9.1 C7.7 9.4 8.6 9.7 9 9.6 C9.2 9.4 9.1 8.9 9.1 8.7 z" id="t2" fill="#FFF" /></g></g></g></g></g></g><defs><g transform="translate(17.09519, 0.800995) translate(-135.2952, -293.601)" id="u2" fill="#000"><path d="M118.2 302.7 C118.4 307.4 132.5 311.2 149.8 311.2 C167.1 311.2 181.2 307.4 181.4 302.7 C181.4 307.5 181.4 310.1 181.4 310.5 C181.4 315.3 167.3 319.1 149.8 319.1 C132.3 319.1 118.2 315.2 118.2 310.5 L118.2 302.7 L118.2 302.7 z" fill-opacity="0.4528" id="v2" fill="#593001" /><path d="M118.7 301.7 C118.9 306.4 133 310.2 150.3 310.2 C167.6 310.2 181.7 306.4 181.9 301.7 C181.9 306.5 181.9 309.1 181.9 309.5 C181.9 314.3 167.8 318.1 150.3 318.1 C132.8 318.1 118.7 314.2 118.7 309.5 L118.7 301.7 L118.7 301.7 z" id="w2" fill="#DA8113" /><linearGradient x1="46.0545" y1="-118.6926" x2="45.4656" y2="-118.6926" gradientUnits="userSpaceOnUse" gradientTransform="matrix(117.135, 0, 0, 28.4634, -5208.417, 3687.795)" id="x2"><stop offset="0%" stop-color="#D9952A" stop-opacity="1" /><stop offset="6.438854%" stop-color="#CA7519" stop-opacity="1" /><stop offset="30.54%" stop-color="#E3AD3A" stop-opacity="1" /><stop offset="51.05%" stop-color="#FFEC91" stop-opacity="1" /><stop offset="68.8%" stop-color="#E9BD44" stop-opacity="1" /><stop offset="86.24%" stop-color="#FFED6C" stop-opacity="1" /><stop offset="93.87%" stop-color="#F2D353" stop-opacity="1" /><stop offset="100%" stop-color="#F2B947" stop-opacity="1" /></linearGradient><path d="M118.2 301.6 C118.4 306.1 132.7 309.7 150.3 309.7 C167.9 309.7 182.2 306.1 182.4 301.6 C182.4 306.2 182.4 308.7 182.4 309 C182.4 313.5 168 317.2 150.3 317.2 C132.6 317.2 118.2 313.5 118.2 309 L118.2 301.6 L118.2 301.6 z" id="y2" style="fill:url(#x2)" /><linearGradient x1="45.4914" y1="-117.9547" x2="45.9407" y2="-117.5895" gradientUnits="userSpaceOnUse" gradientTransform="matrix(115.425, 0, 0, 29.925, -5125.077, 3826.124)" id="z2"><stop offset="0%" stop-color="#F4E072" stop-opacity="1" /><stop offset="100%" stop-color="#DB9427" stop-opacity="1" /></linearGradient><ellipse cx="150.3" cy="301.5" rx="31.6" ry="8.2" id="a3" style="fill:url(#z2)" /><linearGradient x1="45.4656" y1="-126.0065" x2="46.0545" y2="-126.0065" gradientUnits="userSpaceOnUse" gradientTransform="matrix(117.135, 0, 0, 18.6219, -5208.417, 2651.479)" id="b3"><stop offset="0%" stop-color="#D9952A" stop-opacity="1" /><stop offset="6.438854%" stop-color="#CA7519" stop-opacity="1" /><stop offset="30.54%" stop-color="#E3AD3A" stop-opacity="1" /><stop offset="51.05%" stop-color="#FFEC91" stop-opacity="1" /><stop offset="68.8%" stop-color="#E9BD44" stop-opacity="1" /><stop offset="86.24%" stop-color="#FFED6C" stop-opacity="1" /><stop offset="93.87%" stop-color="#F2D353" stop-opacity="1" /><stop offset="100%" stop-color="#F2B947" stop-opacity="1" /></linearGradient><path d="M119.2 299.9 C119 300.2 118.9 300.6 118.9 301 C118.9 305.5 132.9 309.2 150.3 309.2 C167.7 309.2 181.7 305.5 181.7 301 C181.7 300.6 181.6 300.3 181.4 299.9 C182 300.5 182.4 301.2 182.4 301.9 C182.4 306.4 168 310.1 150.3 310.1 C132.6 310.1 118.2 306.4 118.2 301.9 C118.2 301.3 118.6 300.6 119.2 299.9 z" id="c3" style="fill:url(#b3)" /><linearGradient x1="45.196" y1="-121.5895" x2="45.3746" y2="-120.6758" gradientUnits="userSpaceOnUse" gradientTransform="matrix(101.745, 0, 0, 23.94, -4458.332, 3199.41)" id="d3"><stop offset="0%" stop-color="#F8DD61" stop-opacity="1" /><stop offset="100%" stop-color="#EAA330" stop-opacity="1" /></linearGradient><ellipse cx="150.3" cy="300.8" rx="27.8" ry="6.6" id="e3" style="fill:url(#d3)" /><linearGradient x1="45.5694" y1="-134.267" x2="45.0221" y2="-134.267" gradientUnits="userSpaceOnUse" gradientTransform="matrix(101.745, 0, 0, 13.2525, -4458.332, 2077.223)" id="f3"><stop offset="0%" stop-color="#F4CA2F" stop-opacity="1" /><stop offset="51.38%" stop-color="#BF7737" stop-opacity="1" /><stop offset="100%" stop-color="#E4A929" stop-opacity="1" /></linearGradient><path d="M122.6 301.5 C122.5 301.3 122.4 301 122.4 300.8 C122.4 297.2 134.9 294.2 150.2 294.2 C165.5 294.2 178 297.1 178 300.8 C178 301 177.9 301.3 177.8 301.5 C176.3 298.2 164.5 295.6 150.1 295.6 C135.7 295.6 124.1 298.2 122.6 301.5 z" id="g3" style="fill:url(#f3)" /></g></defs><desc>BBBOBBBB5BB,roGagA4R7PDRE5+pGf1o6PmeOLrRMDuf4hzl+LOu9jsQTP1/kcctv3TGMK6hH3RuBNpQ/65uMRFYjnVcp+o4dhg7z80fL7z+aVF8J++jw94=</desc></svg>