<?xml version="1.0" encoding="utf-8"?><!DOCTYPE svg PUBLIC "-//W3C//DTD SVG 1.1//EN" "http://www.w3.org/Graphics/SVG/1.1/DTD/svg11.dtd"><svg x="0" y="0" width="340px" height="340px" viewBox="0, 0, 340, 340" preserveAspectRatio="xMidYMid" font-size="0" id="a" enable-background="new 0 0 340 340" xmlns="http://www.w3.org/2000/svg" xmlns:xlink="http://www.w3.org/1999/xlink" xmlns:xml="http://www.w3.org/XML/1998/namespace" version="1.1"><g id="b" fill="#000"><g id="c"><g transform="translate(0, 0) translate(0, 224)" id="d"><ellipse cx="168.6" cy="53.1" rx="57.8" ry="12.8" fill-opacity="0.25" id="e" /></g><g id="f"><g transform="translate(112, 105.2) translate(22, 133)" id="g" /><g transform="translate(124.0067, 273.3) scale(0.9916667) translate(-120.5, -273.3) translate(96.8, 58.59996) translate(15, 148)" id="h"><g id="i"><path d="M7.5 67.2 C7.3 61.1 10.4 57.2 16.8 55.3 C9.2 42.9 0.5 25.2 0.1 19.1 C-0.5 9 3.8 3.3 7.7 0.8 C10.3 -0.9 22 -1.6 27.5 0.1 C33.1 1.6 35.6 7.3 37.4 8.7 C42.7 12.6 47.5 20.2 49.1 25.6 C52.1 35.9 50.3 51.1 49.5 64.3 C44.4 65.8 27.6 69.8 23.9 70.1 C20.7 70.4 16.2 70.4 10.6 70.2 C8.8 70.1 7.5 68.8 7.5 67.2 z" id="j" fill="#AA602E" /><path d="M10.4 44.1 C5 33.9 0.4 23.5 0.1 19.1 C-0.5 9 3.8 3.3 7.7 0.8 C8 0.5 8.5 0.3 8.9 0.1 C8.6 1.4 8.2 2.8 7.7 4.4 C4.1 16.1 12.3 23.6 12.7 28.2 C13.3 35.2 12.2 41.2 10.4 44.1 z" id="k" fill="#7F4924" /><path d="M7.5 67.2 C7.3 61.1 10.4 57.2 16.8 55.3 C9.2 42.9 0.5 25.2 0.1 19.1 C-0.5 9 3.8 3.3 7.7 0.8 C10.3 -0.9 22 -1.6 27.5 0.1 C33.1 1.6 35.6 7.3 37.4 8.7 C42.7 12.6 47.5 20.2 49.1 25.6 C52.1 35.9 50.3 51.1 49.5 64.3 C44.4 65.8 27.6 69.8 23.9 70.1 C20.7 70.4 16.2 70.4 10.6 70.2 C8.8 70.1 7.5 68.8 7.5 67.2 z M9.3 65.4 C9.3 66.9 9.8 68 11.4 68 C16.9 68.2 21.2 68.2 24.2 67.9 C27.7 67.6 42.8 64 47.7 62.6 C48.5 50 51.2 35.2 48.4 25.3 C46.9 20 42.3 12.8 37.2 9.1 C35.5 7.8 33.1 2.3 27.7 0.9 C22.3 -0.7 11.2 -0.1 8.7 1.6 C5 4.1 0.8 9.5 1.4 19.2 C1.8 25 11.4 44.2 18.6 56.2 C12.7 57.9 9.1 59.6 9.3 65.4 z" opacity="0.15" id="l" /></g></g><g transform="translate(213.8933, 273.3) scale(0.9916667) translate(-217.4, -273.3) translate(97.10001, 58.59996) translate(105.5, 184.5) scale(-1, 1) translate(-105.5, -184.5) translate(80, 148)" id="m"><g id="n"><path d="M9.7 67.2 C9.5 61.1 12.6 57.2 19 55.3 C11.4 42.9 2.7 25.2 2.3 19.1 C1.7 9 6 3.3 9.9 0.8 C12.4 -0.9 22 -1.6 27.6 0.1 C33.8 1.8 39.5 5.7 43.8 9.6 C46.8 12.2 48.4 18 50 23.4 C53 33.7 50.8 52.1 50 65.2 C44.9 66.7 29.7 69.7 26 70 C22.8 70.3 18.3 70.3 12.7 70.1 C11 70.1 9.7 68.8 9.7 67.2 z" id="o" fill="#AA602E" /><path d="M12.5 44.1 C7.1 33.9 2.5 23.5 2.2 19.1 C1.7 9 6 3.3 9.9 0.8 C10.2 0.5 10.7 0.3 11.1 0.1 C10.8 1.4 10.4 2.8 9.9 4.4 C6.3 16.1 14.5 23.6 14.9 28.2 C15.4 35.2 14.3 41.2 12.5 44.1 z" id="p" fill="#7F4924" /><path d="M9.7 67.2 C9.5 61.1 12.6 57.2 19 55.3 C11.4 42.9 2.7 25.2 2.3 19.1 C1.7 9 6 3.3 9.9 0.8 C12.4 -0.9 22 -1.6 27.6 0.1 C33.8 1.8 39.5 5.7 43.8 9.6 C46.8 12.2 48.4 18 50 23.4 C53 33.7 50.8 52.1 50 65.2 C44.9 66.7 29.7 69.7 26 70 C22.8 70.3 18.3 70.3 12.7 70.1 C11 70.1 9.7 68.8 9.7 67.2 z M12.4 64.8 C12.4 66.3 11.6 67.6 13.2 67.6 C18.7 67.8 23 67.8 26 67.5 C29.5 67.2 42.9 64.4 47.8 63 C48.6 50.3 51.8 32.6 49 22.8 C47.5 17.5 45.9 12 43.1 9.6 C38.9 5.9 33.4 2.2 27.6 0.5 C22.2 -1.1 13.1 -0.4 10.6 1.2 C6.9 3.6 2.7 9.2 3.3 18.7 C3.7 24.5 14.2 43.6 21.4 55.6 C15.3 57.3 12.2 59 12.4 64.8 z" opacity="0.15" id="q" /></g></g><g transform="translate(85.90001, 85.79997) translate(35, 41)" id="r"><path d="M14.8 19.9 C11.3 33.7 12.9 36.6 9.3 47.7 C5.7 58.8 1.3 70.5 3.2 87.6 C4.6 100.8 11.8 132.8 17.6 146.9 C19.3 151.1 22.5 152.3 23.4 152.6 C27.2 154.2 66.3 154.3 72.2 152.6 C73.3 152.3 76.3 151.4 77.8 148.1 C84.6 134.1 92.8 97 94.1 87.6 C96.2 75.3 92.7 55.1 88.5 47.9 C82.5 37.5 82.5 23 81.3 20.8 C79.3 16.1 75.6 10.6 66.6 4.4 C63.9 2.5 51.7 0.7 49.1 0.8 C45.4 0.9 37.4 2 34.5 4.5 C28.5 9.6 16.7 12.5 14.8 19.9 z" id="s" fill="#D07331" /><path d="M14.8 19.9 C16.7 12.5 28.5 9.6 34.5 4.5 C37.4 2 45.4 0.9 49.1 0.8 C51.7 0.7 63.9 2.5 66.6 4.4 C75.6 10.6 79.3 16.1 81.3 20.8 C82.5 23 82.5 37.5 88.5 47.9 C92.7 55.1 96.2 75.3 94.1 87.6 C92.8 97 84.6 134.1 77.8 148.1 C76.3 151.4 73.3 152.3 72.2 152.6 C66.3 154.3 27.2 154.2 23.4 152.6 C22.5 152.3 19.3 151.1 17.6 146.9 C11.8 132.8 4.6 100.8 3.2 87.6 C1.3 70.5 5.7 58.8 9.3 47.7 C12.9 36.6 11.3 33.7 14.8 19.9 z M16.2 20.2 C12.8 33.5 14.4 36.3 10.9 46.9 C7.4 57.6 3.2 68.8 5 85.2 C6.4 97.8 13.3 128.6 18.9 142.1 C20.5 146.1 23.6 147.3 24.4 147.5 C28.1 149.1 65.6 149.2 71.2 147.5 C72.3 147.3 75.2 146.4 76.6 143.2 C83.1 129.8 91 94.2 92.3 85.2 C94.3 73.4 90.9 54 86.9 47.1 C81.1 37.1 81.1 23.2 80 21.1 C78.1 16.6 74.5 11.3 65.9 5.4 C63.3 3.5 51.6 1.8 49.1 1.9 C45.5 2 37.9 3.1 35.1 5.5 C29.3 10.3 18 13.1 16.2 20.2 z" opacity="0.15" id="t" /></g><g transform="translate(118.495, 171.745) scale(1.3, 1.05169) translate(-130.3, -177.7) translate(90.90001, 84.79997) translate(78.5, 145.5) scale(-1, 1) translate(-78.5, -145.5) translate(39, 92)" id="u"><path d="M68.1 2.7 C65.6 5.6 57.8 23.3 40.2 24.2 C21.5 24.9 13.3 5.5 10.6 0.9 C7 8.7 1.1 13.8 0.5 26.6 C-0.1 39.4 4.4 46.5 6.7 52.8 C8.4 57.4 10.7 64.5 12.6 73.4 C13.3 76.6 15 81.2 15 84.3 C15.3 96.3 17.5 91.7 13.2 94.2 C8.9 96.7 5.2 101.6 6.7 104.5 C8.2 107.4 29.2 104.1 30.2 102.9 C30.7 102.3 30.9 95.4 30.7 74 C30.6 70.2 29.5 64.3 29.2 57 C29.1 53.6 30 50.6 29.7 46.2 C33.7 48.7 35.2 49.7 38.2 49.6 C41 49.7 42.2 48 46.8 45.5 C46.8 49.8 47.8 53.2 47.9 56.9 C48 63.8 47.3 70.3 47.2 74 C46.9 94.5 47.2 102.3 48 103.5 C49.2 105.2 56.8 106.1 70.8 106 C72.5 103.2 72.5 100.8 70.8 98.8 C69.1 96.8 66.2 94.7 62.2 92.4 C63.3 83.7 63.9 81.2 65.2 75.5 C66.2 71 67.7 62.7 68.7 60.2 C72.3 51.4 78.4 40.6 78.5 28.7 C78.6 16.8 72.4 8 68.1 2.7 z" id="v" fill="#FDA75C" /><path d="M68.1 2.7 C72.4 8 78.5 16.8 78.4 28.7 C78.3 40.6 72.2 51.4 68.6 60.2 C67.6 62.8 66 71 65.1 75.5 C63.9 81.2 63.2 83.7 62.1 92.4 C66.1 94.7 69 96.8 70.7 98.8 C72.4 100.8 72.4 103.2 70.7 106 C56.7 106.1 49.1 105.2 47.9 103.5 C47.1 102.3 46.8 94.5 47.1 74 C47.2 70.3 47.9 63.8 47.8 56.9 C47.7 53.1 46.7 49.8 46.7 45.5 C42.1 48 40.9 49.7 38.1 49.6 C35.1 49.7 33.6 48.7 29.6 46.2 C30 50.6 29 53.6 29.2 57 C29.5 64.3 30.6 70.2 30.7 74 C30.9 95.4 30.7 102.3 30.2 102.9 C29.2 104.1 8.2 107.4 6.7 104.5 C5.2 101.6 8.9 96.7 13.2 94.2 C17.5 91.7 15.3 96.3 15 84.3 C14.9 81.1 13.2 76.6 12.6 73.4 C10.7 64.5 8.4 57.5 6.7 52.8 C4.4 46.5 -0.1 39.4 0.5 26.6 C1.1 13.8 7 8.7 10.6 0.9 C13.3 5.5 21.5 24.9 40.2 24.2 C57.8 23.3 65.6 5.6 68.1 2.7 z M68.1 3.9 C66.9 6.2 63.6 12.3 57.5 17.9 C52.5 22.5 44.3 27.3 38.5 27.3 C34.8 27.5 26 22.6 22.4 19.5 C17.8 15.6 11.8 5.2 10.6 1.4 C7.1 8.9 2.7 15.8 2.1 28 C1.5 40.2 5.9 45.5 8.1 51.5 C9.7 55.9 12.8 63.9 14.6 72.4 C15.2 75.4 16.9 80.5 17 83.5 C17.3 94.9 18.7 92.8 14.6 95.2 C10.5 97.6 7.6 99.2 9 101.9 C10.4 104.6 27 101.6 28 100.4 C28.5 99.8 28.8 95.8 28.6 75.4 C28.5 71.7 27.6 64.9 27.3 57.9 C27.2 54.7 26.9 46.1 26.6 41.9 C30.4 44.3 35 48 37.9 47.9 C40.6 48 45.9 43.8 50.3 41.4 C50.3 45.5 50.1 52.2 50.1 55.8 C50.2 62.3 49.2 68.8 49.2 72.3 C48.9 91.8 49.3 99.6 50 100.8 C51.1 102.4 55.2 104 68.5 103.9 C70.1 101.2 70.8 100.5 69.2 98.6 C67.6 96.7 64.2 95 60.4 92.8 C61.5 84.5 62.1 79.7 63.3 74.3 C64.2 70 65.8 62 66.8 59.5 C70.2 51.1 76.5 41.1 76.6 29.8 C76.6 18.6 72.2 8.9 68.1 3.9 z" opacity="0.15" id="w" /></g></g><g transform="translate(169.6, 177.3) scale(0.9999998) translate(-169.6, -177.3)" id="x"><g transform="translate(104.1, 90.59998) translate(25, 0)" id="y"><path d="M79.4 51 C77.8 37 79 20.9 75.8 15.2 C73.5 11 65.6 1.5 58.8 0.7 C51.9 -0.1 46.6 1.1 40.3 1.1 C34 1.1 28.8 -0.1 21.9 0.7 C15.1 1.5 7.3 11 4.9 15.2 C1.7 20.9 3 37 1.3 51 C0.1 61.5 0 70 2.4 73.7 C11.3 87.6 26.3 89.7 40.3 89.8 C54.3 89.7 69.2 87.6 78.1 73.7 C80.7 70 80.7 61.5 79.4 51 z" id="z" fill="#FDA75C" /><path d="M79.4 67.2 C78 66 75.4 69.2 72.6 70 C70 71.2 60.8 76.4 54 76.8 C47.7 77.2 36.2 77.4 27.4 76.3 C16.6 74.9 9.1 70.2 8.2 69.9 C5.4 69.2 2.8 66 1.4 67.1 C1.3 67.2 1.2 67.3 1.1 67.5 C1.2 70.1 1.6 72.3 2.5 73.7 C6.1 79.3 10.4 83.8 15.8 85.4 C17.9 86 23.7 88.9 32.2 89.8 C39.3 90.6 44.3 90.1 50.5 89.3 C53.1 88.9 60.7 87.5 65 85.5 C69.6 83.3 74.7 79.4 78.3 73.8 C79.2 72.4 79.6 70.3 79.7 67.6 C79.7 67.4 79.5 67.3 79.4 67.2 z" id="a1" fill="#E78D47" /><path d="M79.4 51 C80.7 61.5 80.7 70 78.1 73.7 C69.2 87.6 54.3 89.7 40.3 89.8 C26.3 89.7 11.3 87.6 2.4 73.7 C0 70 0.1 61.5 1.3 51 C3 37 1.7 20.9 4.9 15.2 C7.3 11 15.1 1.5 21.9 0.7 C28.8 -0.1 34 1.1 40.3 1.1 C46.6 1.1 51.9 -0.1 58.8 0.7 C65.6 1.5 73.5 11 75.8 15.2 C79 20.9 77.8 37 79.4 51 z M77.8 49.8 C76.3 36.3 77.5 20.9 74.4 15.4 C72.2 11.4 64.6 2.2 58.1 1.5 C51.4 0.7 46.4 1.9 40.3 1.9 C34.3 1.9 29.3 0.7 22.6 1.5 C16.1 2.2 8.6 11.4 6.3 15.4 C3.2 20.9 4.5 36.3 2.9 49.8 C1.7 59.8 1.6 68 3.9 71.6 C12.5 84.9 26.9 86.9 40.3 87 C53.7 86.9 68 84.9 76.6 71.6 C79.1 68 79.1 59.8 77.8 49.8 z" opacity="0.15" id="b1" /></g><g transform="translate(145.4, 97.89997) rotate(19, 0, 0) scale(1) translate(-142.4, -103.9) translate(112.9, 81.09998) translate(2, 16)" id="c1"><g id="d1"><path d="M0.2 37 C0.2 35.6 0.2 30.8 0.3 29.9 C0.2 28.7 0.9 27.3 2 26.1 C1.7 26.2 1.4 26.3 1 26.5 C1.7 24 3.2 18.8 3.2 18.8 C1.9 18 1.4 15.6 3.5 12.8 C3.3 15.6 5.5 14.4 6.1 13.7 C6.7 13 7.3 12.3 7.9 11.6 C8.6 10.8 9.7 10.3 10.8 9.8 C11.2 9.3 11.7 8.8 12.1 8.3 C11.5 8.3 10.9 8.4 10.4 8.6 C12 6.4 14.3 4.6 16.9 3.7 C17.3 3.4 17.6 3.2 18 2.9 C16.6 2.3 15.1 1.7 13.7 1 C16.8 0.9 19.9 0.7 23.1 0.6 C24.4 0.5 26.2 0.6 28.4 3.5 C31.8 8 26.9 9.4 25.6 26.2 C24.9 36.1 25 42.4 24.8 46.4 C24.9 49.3 24.9 52.3 25 55.2 C24.3 54.4 23.7 53.7 23 52.9 C22.7 54.4 22.5 55.7 22.2 57.4 C20.9 56.4 19.6 55.5 18.3 54.5 C18.2 52.8 18.2 51.2 18.1 49.5 C18.1 49.5 18.1 49.5 18 49.4 C17.4 50.8 16.8 52.2 16.2 53.6 C15.8 51.6 15.5 49.5 15.1 47.5 C14.8 48.6 14.5 49.8 14.2 50.9 C13.6 49.2 12.9 47.5 12.3 45.9 C12.1 46.8 11.8 47.7 11.6 48.6 C10.1 47.6 8.6 46.6 7.1 45.7 C7.1 44.7 7.2 43.8 7.2 42.8 C6.5 43.6 5.9 44.4 5.2 45.2 C3.1 42.7 2.1 39.4 2.4 36.2 C2.2 35.6 2 35.1 1.9 34.5 C1.4 35.4 0.8 36.2 0.2 37 z" id="e1" fill="#AA602E" /><path d="M0.2 37 C0.2 35.6 0.2 30.8 0.3 29.9 C0.2 28.7 0.9 27.3 2 26.1 C1.7 26.2 1.4 26.3 1 26.5 C1.7 24 3.2 18.8 3.2 18.8 C1.9 18 1.4 15.6 3.5 12.8 C3.3 15.6 5.5 14.4 6.1 13.7 C6.7 13 7.3 12.3 7.9 11.6 C8.6 10.8 9.7 10.3 10.8 9.8 C11.2 9.3 11.7 8.8 12.1 8.3 C11.5 8.3 10.9 8.4 10.4 8.6 C12 6.4 14.3 4.6 16.9 3.7 C17.3 3.4 17.6 3.2 18 2.9 C16.6 2.3 15.1 1.7 13.7 1 C16.8 0.9 19.9 0.7 23.1 0.6 C24.4 0.5 26.2 0.6 28.4 3.5 C31.8 8 26.9 9.4 25.6 26.2 C24.9 36.1 25 42.4 24.8 46.4 C24.9 49.3 24.9 52.3 25 55.2 C24.3 54.4 23.7 53.7 23 52.9 C22.7 54.4 22.5 55.7 22.2 57.4 C20.9 56.4 19.6 55.5 18.3 54.5 C18.2 52.8 18.2 51.2 18.1 49.5 C18.1 49.5 18.1 49.5 18 49.4 C17.4 50.8 16.8 52.2 16.2 53.6 C15.8 51.6 15.5 49.5 15.1 47.5 C14.8 48.6 14.5 49.8 14.2 50.9 C13.6 49.2 12.9 47.5 12.3 45.9 C12.1 46.8 11.8 47.7 11.6 48.6 C10.1 47.6 8.6 46.6 7.1 45.7 C7.1 44.7 7.2 43.8 7.2 42.8 C6.5 43.6 5.9 44.4 5.2 45.2 C3.1 42.7 2.1 39.4 2.4 36.2 C2.2 35.6 2 35.1 1.9 34.5 C1.4 35.4 0.8 36.2 0.2 37 z M1 33.9 C1.6 33.2 2.2 32.8 2.6 31.9 C2.7 32.5 2.9 33.5 3.1 34.1 C2.8 37 3.8 40.1 5.7 42.4 C6.4 41.7 6.9 40.9 7.6 40.2 C7.6 40.8 7.7 41.8 7.9 43.2 C9.2 44 10.3 44.7 11.3 45.3 C11.5 44.5 12.3 43.9 12.4 43.1 C13 44.6 13.3 45.6 13.9 47.2 C14.2 46.2 14.8 45.6 15 44.6 C15.4 46.4 16.1 47.8 16.5 49.7 C16.9 48.8 17.6 47.8 18.7 46.5 C18.8 48.7 18.9 50.3 19 51.3 C20.2 52.2 20.5 52.8 21.8 53.7 C22.1 52.1 22.3 50.9 22.6 49.6 C23.3 50.3 23.8 51 24.5 51.7 C24.4 49 23.2 35.8 23.9 26.7 C25 11.1 30.8 8.1 27.6 4 C25.5 1.3 24.2 1.1 23 1.1 C20 1.2 18.9 1.3 16 1.4 C17.3 2 18.1 2.4 19.4 3 C19 3.3 17.2 3.9 16.8 4.1 C14.4 4.9 13.2 5.7 11.7 7.7 C12.2 7.5 13 7.8 13.6 7.8 C13.2 8.3 11.2 9.7 10.8 10.1 C9.8 10.6 7.2 13 6.6 13.6 C6 14.2 3.8 15.6 3.2 13.8 C2.3 15.4 3.1 17.2 4.3 17.9 C4.3 17.9 2.7 22.1 2 24.4 C2.4 24.2 3.2 24.3 3.4 24.2 C2.4 25.3 1 26.9 1.1 28 C1.1 29.1 1 32.6 1 33.9 z" opacity="0.15" id="f1" /></g></g><g transform="translate(194.3, 97.89997) rotate(-19, 0, 0) scale(1) translate(-197.3, -103.9) translate(108, 81.19997) translate(102, 45) scale(-1, 1) translate(-102, -45) translate(87, 16)" id="g1"><g id="h1"><path d="M0.2 37 C0.2 35.6 0 32.1 0.3 29.9 C0.5 28.5 1.1 27.2 2 26.1 C1.7 26.2 1.4 26.3 1 26.5 C1.7 24 2.5 21.1 3.2 18.8 C2.9 18.6 1 16.3 3.5 12.8 C3.3 15.6 5.5 14.4 6.1 13.7 C6.7 13 7.3 12.3 7.9 11.6 C8.6 10.8 9.7 10.3 10.8 9.8 C11.2 9.3 11.7 8.8 12.1 8.3 C11.5 8.3 10.9 8.4 10.4 8.6 C12 6.4 14.3 4.6 16.9 3.7 C17.3 3.4 17.6 3.2 18 2.9 C16.6 2.3 15.1 1.7 13.7 1 C16.8 0.9 19.9 0.7 23.1 0.6 C24.4 0.5 26.2 0.6 28.4 3.5 C31.8 8 26.9 9.4 25.6 26.2 C24.9 36.1 25 42.4 24.8 46.4 C24.9 49.3 24.9 52.3 25 55.2 C24.3 54.4 23.7 53.7 23 52.9 C22.7 54.4 22.5 55.7 22.2 57.4 C20.9 56.4 19.6 55.5 18.3 54.5 C18.2 52.8 18.2 51.2 18.1 49.5 C18.1 49.5 18.1 49.5 18 49.4 C17.4 50.8 16.8 52.2 16.2 53.6 C15.8 51.6 15.5 49.5 15.1 47.5 C14.8 48.6 14.5 49.8 14.2 50.9 C13.6 49.2 12.9 47.5 12.3 45.9 C12.1 46.8 11.8 47.7 11.6 48.6 C10.1 47.6 8.6 46.6 7.1 45.7 C7.1 44.7 7.2 43.8 7.2 42.8 C6.5 43.6 5.9 44.4 5.2 45.2 C3.1 42.7 2.1 39.4 2.4 36.2 C2.2 35.6 2 35.1 1.9 34.5 C1.4 35.4 0.8 36.2 0.2 37 z" id="i1" fill="#AA602E" /><path d="M1.8 26.3 C1.8 26.2 1.8 26.2 1.9 26.1 C1.6 26.2 1.4 26.3 1 26.5 C1.7 24 2.5 21.1 3.2 18.8 C2.9 18.6 1 16.3 3.5 12.8 C3.3 15.6 5.5 14.4 6.1 13.7 C6.7 13 7.3 12.3 7.9 11.6 C8.6 10.8 9.7 10.3 10.8 9.8 C11.2 9.3 11.7 8.8 12.1 8.3 C11.5 8.3 10.9 8.4 10.4 8.6 C12 6.4 14.3 4.6 16.9 3.7 C17.3 3.4 17.6 3.2 18 2.9 C16.6 2.3 15.1 1.7 13.7 1 C16.8 0.9 19.9 0.7 23.1 0.6 C24.4 0.5 26.2 0.6 28.4 3.5 C31.8 8 26.9 9.4 25.6 26.2 C24.9 36.1 25 42.4 24.8 46.4 C24.9 49.3 24.9 52.3 25 55.2 C24.3 54.4 23.7 53.7 23 52.9 C22.7 54.4 22.5 55.7 22.2 57.4 C20.9 56.4 19.6 55.5 18.3 54.5 C18.2 52.8 18.2 51.2 18.1 49.5 C18.1 49.5 18.1 49.5 18 49.4 C17.4 50.8 16.8 52.2 16.2 53.6 C15.8 51.6 15.5 49.5 15.1 47.5 C14.8 48.6 14.5 49.8 14.2 50.9 C13.6 49.2 12.9 47.5 12.3 45.9 C12.1 46.8 11.8 47.7 11.6 48.6 C10.1 47.6 8.6 46.6 7.1 45.7 C7.1 44.7 7.2 43.8 7.2 42.8 C6.5 43.6 5.9 44.4 5.2 45.2 C3.1 42.7 2.1 39.4 2.4 36.2 C2.2 35.6 2 35.1 1.9 34.5 C1.4 35.4 0.8 36.2 0.2 37 C0.2 35.6 0 32.1 0.3 29.9 C0.5 28.6 1 27.4 1.8 26.3 z M1.8 26.3 C1.6 26.8 1.5 27.3 1.4 27.8 C1.1 29.8 1.3 33.1 1.3 34.3 C1.9 33.6 2.4 32.8 2.9 32 C3 32.6 3.2 33 3.4 33.6 C3.1 36.6 3.7 39.4 5.7 41.7 C6.3 41 7.8 40.8 8.5 40.1 C8.5 41 8.7 41.8 8.7 42.7 C10.1 43.5 10.2 44.1 11.6 45 C11.8 44.2 12.8 43.6 13 42.7 C13.6 44.2 13.5 45.4 14.1 47 C14.4 46 15.6 45.6 15.9 44.6 C16.3 46.4 16.7 47.8 17 49.7 C17.6 48.4 18.3 47.6 18.8 46.3 C18.9 46.4 19 49 19.1 50.6 C20.3 51.5 20.7 52.3 21.9 53.2 C22.2 51.6 22.4 50.4 22.6 49.1 C23.2 49.8 23.8 50.5 24.4 51.2 C24.3 48.5 23.4 46.5 23.3 43.8 C22.9 40.7 22.7 38.4 23.3 29.3 C24.5 13.8 30.7 7.7 27.5 3.5 C25.5 0.8 23.7 1.1 22.5 1.2 C19.5 1.3 19.6 1.5 16.8 1.6 C18.1 2.2 18.6 3 19.9 3.5 C19.5 3.8 18.3 4 18 4.3 C15.6 5.1 13.6 5.7 12.1 7.7 C12.6 7.5 13.4 7.4 14 7.4 C13.6 7.9 12.5 9.4 12.1 9.8 C11.1 10.3 9.5 11.4 8.9 12.1 C8.3 12.7 7.5 13.3 7 14 C6.5 14.7 3.8 16.3 3 14.3 C2.7 17.1 3.8 17.4 4.1 17.6 C3.5 19.7 2.7 22.4 2.1 24.7 C2.5 24.5 2.7 24.4 3 24.3 C2.5 24.9 2.2 25.5 1.9 26.1 C1.9 26.1 2 26.1 2 26.1 C1.9 26.2 1.9 26.2 1.8 26.3 z" opacity="0.15" id="j1" /></g></g><g id="k1"><g transform="translate(90.7, 93.89997) translate(51, 9)" id="l1"><g id="m1"><path d="M11.3 81.9 C14.4 82.2 18.5 82.4 21 81.1 C23.7 79.7 25.2 78.3 27.4 75.9 C29.9 79.4 32 80.5 35.2 81.9 C38.2 83.3 42.2 82.3 44.7 81.6 C47.2 80.8 52.9 77.6 53.5 73.9 C54.2 69.7 54.7 64.6 52.8 57.5 C51.2 51.4 43.5 48.1 39.8 44.1 C37.1 41.2 33.5 30.4 33.2 28.7 C32.4 25.3 32.5 21.7 33.7 14.5 C34.9 6.9 39.8 4.5 39.8 2 C39.8 -0.4 34.7 4 28.5 4.1 C22.4 4.2 15.7 -1.3 15.7 2 C15.7 5.4 20.7 7.8 21.7 13.5 C22.7 19.2 22.7 22.1 21.7 28.1 C21.1 31.6 17.6 42 14.3 44.6 C8.6 49.1 1.7 53.6 1 60.2 C0.4 66.9 -0.3 70.7 1.6 74.5 C4 79.3 8.2 81.5 11.3 81.9 z" id="n1" fill="#FBD291" /><path d="M35.3 9.4 C34.6 10.8 34 12.5 33.7 14.5 C32.5 21.7 32.4 25.3 33.2 28.7 C33.5 30.4 37.1 41.2 39.8 44.1 C43.5 48.1 51.2 51.4 52.8 57.5 C54.7 64.6 54.2 69.7 53.5 73.9 C52.9 77.6 47.2 80.8 44.7 81.6 C42.2 82.3 38.2 83.3 35.2 81.9 C32 80.5 29.9 79.4 27.4 75.9 C25.2 78.3 23.7 79.7 21 81.1 C18.5 82.4 14.4 82.2 11.3 81.9 C8.2 81.5 4 79.3 1.6 74.5 C-0.3 70.7 0.4 66.9 1 60.2 C1.7 53.6 8.6 49.1 14.3 44.6 C17.6 42 21.1 31.6 21.7 28.1 C22.7 22.1 22.7 19.2 21.7 13.5 C21.6 12.9 21.5 12.4 21.3 11.9 C20.2 9.3 18.3 7.1 17 5.2 C16.2 4.1 15.7 3.1 15.7 2 C15.7 -1.3 22.4 4.2 28.5 4.1 C34.7 4 39.8 -0.4 39.8 2 C39.8 3.3 38.5 4.5 37.1 6.4 C38.4 4.5 39.4 3.2 39.4 2.1 C39.4 -0.2 34.3 4.2 28.6 4.3 C23 4.4 15.7 -1.2 15.7 1.9 C15.7 2.9 16.2 4 17 5.2 C18.3 7 20.3 9 21.3 11.9 C21.7 12.8 22 13.7 22.1 14.6 C23 20.1 23 22.9 22.1 28.6 C21.6 32 19.8 41 16.8 43.5 C11.5 47.8 3.6 53.4 2.9 59.8 C2.3 66.2 1.9 69.6 3.6 73.3 C5.8 77.9 9.7 80 12.5 80.4 C15.4 80.7 19.1 80.9 21.4 79.6 C23.9 78.3 25.3 76.9 27.3 74.6 C29.6 78 31.5 79 34.5 80.4 C37.3 81.7 41 80.8 43.3 80.1 C45.6 79.3 50.9 76.3 51.4 72.7 C52 68.7 52.5 63.8 50.8 56.9 C49.3 51 41.5 47.6 38.1 43.8 C35.6 41 33 30.8 32.7 29.2 C32 25.9 32.1 22.5 33.2 15.6 C33.6 13.2 34.4 11.1 35.3 9.4 z" opacity="0.1" id="o1" /></g></g><g transform="translate(91, 94.29996) translate(65, 74)" id="p1"><path d="M4.2 17 C7.4 16.4 9.1 15 10.5 13.9 C11.4 13.2 12.4 12.3 13.4 11.1 C14.7 12.7 15.6 13.7 16.2 14.1 C17 14.8 19.4 16.3 20.9 16.9 C22.4 17.5 26.3 17.8 26.3 17.2 C26.3 16.6 21.8 15.9 20.2 14.7 C18.6 13.5 17 12.5 15.9 11 C14.9 9.6 15.3 8.6 15.2 7 C15.1 5 15.4 2.8 15.5 1.3 C15.6 -0.7 12.3 -0.1 12.3 1.3 C12.3 2.7 12.3 4.8 12.3 6.6 C12.3 8.4 11.6 10.6 10.2 11.8 C8.8 13 6.9 14.5 4.8 15.3 C3.5 15.8 0.8 16.4 0.9 17 C0.8 17.4 2.9 17.3 4.2 17 z" id="q1" fill="#282421" /></g><g transform="translate(97.8, 67.59998) translate(60, 89)" id="r1"><g id="s1"><path d="M3.1 13.1 C0.3 8.7 -5.5 -0.7 11.3 -0.7 C28.1 -0.7 20.8 10.4 18.4 13.4 C16 16.4 6 17.5 3.1 13.1 z" id="t1" /><path d="M17.1 4.6 C19.1 6.2 20.3 4.7 20.3 3.9 C20.3 3.1 18.6 1.7 16.9 1.7 C15.2 1.7 12.6 1.1 12.9 2.5 C13.2 3.9 15 3 17.1 4.6 z" id="u1" fill="#FFF" /></g></g><g transform="translate(150.2, 130.8) scale(1.1) translate(-150.2, -130.8) translate(98, 66.49996) translate(44, 47)" id="v1"><g id="w1"><path d="M13 12.1 C10.4 11.1 7.2 11.3 4.8 12.7 C3.7 13.3 1.5 14.8 0.7 15.8 C-0.6 17.3 0.1 19.9 1.3 21.5 C2.5 23.1 4.3 24.2 6.3 24.5 C8.3 24.8 10.3 24.5 12.2 23.7 C14.5 22.8 16.7 21.1 17.2 18.6 C17.7 15.9 15.6 13.1 13 12.1 z" id="x1" fill="#474B4F" /><path d="M14.5 17.3 C14.2 16 13.5 13 10.2 13 C6.9 13 3.3 16.7 2 17.7 C2.7 19.6 5.4 21.2 7.8 21.5 C11.2 21.9 13.5 20.7 14.5 17.3 z" id="y1" fill="#282421" /><path d="M9.3 5.1 C8.7 4.7 8.1 4.2 7.9 3.5 C7.8 2.9 8.1 2.2 8.6 1.8 C10.3 0.1 12.2 0.2 13.1 0.1 C16.2 -0.1 16.9 2.6 16.4 5.2 C15.5 10.3 12.1 7 9.3 5.1 z" id="z1" fill="#FBD291" /><path d="M9.8 14.4 C9.4 14.3 7.5 14.9 7 15.2 C6.5 15.6 6.2 16.2 6.5 16.8 C6.7 17.3 7.3 17.5 7.9 17.4 C8.4 17.3 8.9 17.1 9.4 16.8 C10 16.4 10.8 15.9 10.7 15.2 C10.5 14.8 10.2 14.5 9.8 14.4 z" id="a2" fill="#F5FAFC" /></g></g><g transform="translate(185.3, 130.8) scale(1.1) translate(-185.3, -130.8) translate(103.5, 66.49996) translate(72, 47)" id="b2"><g id="c2"><path d="M5 12.1 C7.6 11.1 10.8 11.3 13.2 12.7 C14.3 13.3 16.5 14.8 17.3 15.8 C18.6 17.3 17.9 19.9 16.7 21.5 C15.5 23.1 13.7 24.2 11.7 24.5 C9.7 24.8 7.7 24.5 5.8 23.7 C3.5 22.8 1.3 21.1 0.8 18.6 C0.3 15.9 2.4 13.1 5 12.1 z" id="d2" fill="#474B4F" /><path d="M3.5 17.3 C3.8 16 4.5 13 7.8 13 C11.1 13 14.7 16.7 16 17.7 C15.3 19.6 12.6 21.2 10.2 21.5 C6.8 21.9 4.5 20.7 3.5 17.3 z" id="e2" fill="#282421" /><path d="M10.4 15.2 C10.1 14.9 8.4 14.3 7.8 14.3 C7.2 14.3 6.6 14.6 6.5 15.2 C6.4 15.7 6.7 16.2 7.2 16.4 C7.6 16.7 8.1 16.7 8.6 16.8 C9.3 16.9 10.1 16.9 10.5 16.3 C10.7 15.9 10.7 15.5 10.4 15.2 z" id="f2" fill="#F5FAFC" /><path d="M8.7 5.1 C9.3 4.7 9.9 4.2 10.1 3.5 C10.2 2.9 9.9 2.2 9.4 1.8 C7.7 0.1 5.8 0.2 4.9 0.1 C1.8 -0.1 1.1 2.6 1.6 5.2 C2.5 10.3 5.9 7 8.7 5.1 z" id="g2" fill="#FBD291" /></g></g></g></g></g></g><defs><g transform="translate(17.09519, 0.800995) translate(-135.2952, -293.601)" id="h2" fill="#000"><path d="M118.2 302.7 C118.4 307.4 132.5 311.2 149.8 311.2 C167.1 311.2 181.2 307.4 181.4 302.7 C181.4 307.5 181.4 310.1 181.4 310.5 C181.4 315.3 167.3 319.1 149.8 319.1 C132.3 319.1 118.2 315.2 118.2 310.5 L118.2 302.7 L118.2 302.7 z" fill-opacity="0.4528" id="i2" fill="#593001" /><path d="M118.7 301.7 C118.9 306.4 133 310.2 150.3 310.2 C167.6 310.2 181.7 306.4 181.9 301.7 C181.9 306.5 181.9 309.1 181.9 309.5 C181.9 314.3 167.8 318.1 150.3 318.1 C132.8 318.1 118.7 314.2 118.7 309.5 L118.7 301.7 L118.7 301.7 z" id="j2" fill="#DA8113" /><linearGradient x1="46.0545" y1="-118.6926" x2="45.4656" y2="-118.6926" gradientUnits="userSpaceOnUse" gradientTransform="matrix(117.135, 0, 0, 28.4634, -5208.417, 3687.795)" id="k2"><stop offset="0%" stop-color="#D9952A" stop-opacity="1" /><stop offset="6.438854%" stop-color="#CA7519" stop-opacity="1" /><stop offset="30.54%" stop-color="#E3AD3A" stop-opacity="1" /><stop offset="51.05%" stop-color="#FFEC91" stop-opacity="1" /><stop offset="68.8%" stop-color="#E9BD44" stop-opacity="1" /><stop offset="86.24%" stop-color="#FFED6C" stop-opacity="1" /><stop offset="93.87%" stop-color="#F2D353" stop-opacity="1" /><stop offset="100%" stop-color="#F2B947" stop-opacity="1" /></linearGradient><path d="M118.2 301.6 C118.4 306.1 132.7 309.7 150.3 309.7 C167.9 309.7 182.2 306.1 182.4 301.6 C182.4 306.2 182.4 308.7 182.4 309 C182.4 313.5 168 317.2 150.3 317.2 C132.6 317.2 118.2 313.5 118.2 309 L118.2 301.6 L118.2 301.6 z" id="l2" style="fill:url(#k2)" /><linearGradient x1="45.4914" y1="-117.9547" x2="45.9407" y2="-117.5895" gradientUnits="userSpaceOnUse" gradientTransform="matrix(115.425, 0, 0, 29.925, -5125.077, 3826.124)" id="m2"><stop offset="0%" stop-color="#F4E072" stop-opacity="1" /><stop offset="100%" stop-color="#DB9427" stop-opacity="1" /></linearGradient><ellipse cx="150.3" cy="301.5" rx="31.6" ry="8.2" id="n2" style="fill:url(#m2)" /><linearGradient x1="45.4656" y1="-126.0065" x2="46.0545" y2="-126.0065" gradientUnits="userSpaceOnUse" gradientTransform="matrix(117.135, 0, 0, 18.6219, -5208.417, 2651.479)" id="o2"><stop offset="0%" stop-color="#D9952A" stop-opacity="1" /><stop offset="6.438854%" stop-color="#CA7519" stop-opacity="1" /><stop offset="30.54%" stop-color="#E3AD3A" stop-opacity="1" /><stop offset="51.05%" stop-color="#FFEC91" stop-opacity="1" /><stop offset="68.8%" stop-color="#E9BD44" stop-opacity="1" /><stop offset="86.24%" stop-color="#FFED6C" stop-opacity="1" /><stop offset="93.87%" stop-color="#F2D353" stop-opacity="1" /><stop offset="100%" stop-color="#F2B947" stop-opacity="1" /></linearGradient><path d="M119.2 299.9 C119 300.2 118.9 300.6 118.9 301 C118.9 305.5 132.9 309.2 150.3 309.2 C167.7 309.2 181.7 305.5 181.7 301 C181.7 300.6 181.6 300.3 181.4 299.9 C182 300.5 182.4 301.2 182.4 301.9 C182.4 306.4 168 310.1 150.3 310.1 C132.6 310.1 118.2 306.4 118.2 301.9 C118.2 301.3 118.6 300.6 119.2 299.9 z" id="p2" style="fill:url(#o2)" /><linearGradient x1="45.196" y1="-121.5895" x2="45.3746" y2="-120.6758" gradientUnits="userSpaceOnUse" gradientTransform="matrix(101.745, 0, 0, 23.94, -4458.332, 3199.41)" id="q2"><stop offset="0%" stop-color="#F8DD61" stop-opacity="1" /><stop offset="100%" stop-color="#EAA330" stop-opacity="1" /></linearGradient><ellipse cx="150.3" cy="300.8" rx="27.8" ry="6.6" id="r2" style="fill:url(#q2)" /><linearGradient x1="45.5694" y1="-134.267" x2="45.0221" y2="-134.267" gradientUnits="userSpaceOnUse" gradientTransform="matrix(101.745, 0, 0, 13.2525, -4458.332, 2077.223)" id="s2"><stop offset="0%" stop-color="#F4CA2F" stop-opacity="1" /><stop offset="51.38%" stop-color="#BF7737" stop-opacity="1" /><stop offset="100%" stop-color="#E4A929" stop-opacity="1" /></linearGradient><path d="M122.6 301.5 C122.5 301.3 122.4 301 122.4 300.8 C122.4 297.2 134.9 294.2 150.2 294.2 C165.5 294.2 178 297.1 178 300.8 C178 301 177.9 301.3 177.8 301.5 C176.3 298.2 164.5 295.6 150.1 295.6 C135.7 295.6 124.1 298.2 122.6 301.5 z" id="t2" style="fill:url(#s2)" /></g></defs><desc>8O75HK557J8,g6lT7XtwD6JENw5K8Jxq86DwKU2zojElhymiMnxXZtp71qgft5hSWjymwAhVQuhcesnEGlLyfJGg/7W2+eVmvA==</desc></svg>