<?xml version="1.0" encoding="utf-8"?><!DOCTYPE svg PUBLIC "-//W3C//DTD SVG 1.1//EN" "http://www.w3.org/Graphics/SVG/1.1/DTD/svg11.dtd"><svg x="0" y="0" width="340px" height="340px" viewBox="0, 0, 340, 340" preserveAspectRatio="xMidYMid" font-size="0" id="a" enable-background="new 0 0 340 340" xmlns="http://www.w3.org/2000/svg" xmlns:xlink="http://www.w3.org/1999/xlink" xmlns:xml="http://www.w3.org/XML/1998/namespace" version="1.1"><g id="b" fill="#000"><g id="c"><g transform="translate(0, 0) translate(0, 224)" id="d"><ellipse cx="168.6" cy="53.1" rx="57.8" ry="12.8" fill-opacity="0.25" id="e" /></g><g id="f"><g transform="translate(134.1001, 242.2) scale(0.7) translate(-134.1001, -242.2) translate(-287.1, 66.99997) translate(25.5, 156.5) scale(-1, 1) translate(-25.5, -156.5) translate(0, 130)" id="g"><g transform="translate(25.5, 26.5) scale(-1, 1) translate(-25.5, -26.5)" id="h"><path d="M428.3 48.7 C419.3 55.3 412.6 58.4 408.1 58 C401.4 57.4 391.1 53 387.3 45.9 C383.6 38.7 383.3 27.3 384.9 22.4 C386.5 17.4 390.2 9.9 396.1 7.1 C402 4.3 407.1 6 409.7 7.9 C412.3 9.8 415.3 14.8 414.1 19.2 C413.3 22.2 412.7 23.8 412.2 24.2 C412 21.9 410.9 20.9 408.8 21.3 C405.6 21.9 400.6 27.2 401.5 30.9 C402.4 34.5 405.6 38.2 408.8 38.5 C412 38.8 417 35.6 418.7 34.2 C419.8 33.3 421.8 31 424.8 27.3 C430.1 24.3 433 26.2 433.5 33.1 C434.1 40 432.3 45.2 428.3 48.7 z" id="i" fill="#232733" /><path d="M412.5 23.9 C412.4 24.1 412.3 24.2 412.2 24.3 C411.6 22.7 410.3 22.1 408.2 22.5 C405 23.1 401.7 27.2 402.5 30.8 C403.4 34.4 405 36.5 408.2 36.8 C411.4 37.1 415.2 34.5 416.8 33.2 C417.9 32.3 420.6 30 425 26.3 C430 24.1 432.8 26.3 433.4 32.6 C430.3 35.5 416.5 45.4 415.2 45.9 C413.8 46.4 409.3 48.1 404.5 48 C399.7 47.9 395.3 43.8 393.8 41.3 C392.2 38.9 391 35 391 30.8 C391 26.6 392.7 20.6 395.1 17.9 C397.5 15.3 399.2 13.9 402.5 13.9 C404.7 13.9 407.4 14.3 410.2 17.2 C411.2 18.2 411.8 20.4 412.5 23.9 z" id="j" fill="#171B24" /><path d="M412.2 24.3 C411.6 22.7 410.3 22.1 408.2 22.5 C405 23.1 401.7 27.2 402.5 30.8 C403.4 34.4 405 36.5 408.2 36.8 C411.4 37.1 415.2 34.5 416.8 33.2 C417.9 32.3 420.6 30 425 26.3 C428.7 24.7 431.1 25.4 432.4 28.4 C433 29.6 433.3 31.2 433.5 33.2 C434.1 40.1 432.3 45.3 428.3 48.8 C419.3 55.4 412.6 58.5 408.1 58.1 C401.4 57.5 391.1 53.1 387.3 46 C383.6 38.8 383.3 27.4 384.9 22.5 C386.5 17.5 390.2 10 396.1 7.2 C402 4.4 407.1 6.1 409.7 8 C412.3 9.9 415.3 14.9 414.1 19.3 C413.3 22.3 412.7 23.9 412.2 24.3 z M408.3 21.3 C410.2 20.9 411.4 21.5 411.9 22.9 C412.4 22.5 412.9 21.1 413.6 18.3 C414.7 14.4 411.7 10.4 409.4 8.6 C407.1 6.8 402.6 4.9 397.2 7.4 C391.8 9.9 388.5 16.8 387 21.3 C385.5 25.8 385.8 36.1 389.2 42.7 C392.7 49.2 402 53.2 408.1 53.7 C412.2 54.1 418.3 51.2 426.5 45.2 C430.1 42 432.1 37.5 431.6 31.2 C431.5 29.4 431.2 29.3 430.7 28.3 C429.5 25.6 428.1 26.8 424.8 28.3 C420.8 31.7 416.2 35 415.2 35.8 C413.7 37 409.2 37.9 406.3 37.6 C403.4 37.3 401.9 34.4 401.5 29.4 C401.5 26 405.3 21.9 408.3 21.3 z" opacity="0.15" id="k" /></g></g><g transform="translate(132.3, 273.8) scale(1.217507) translate(-132.3, -273.8) translate(111.8, 117.7) translate(18, 125)" id="l"><g transform="translate(14.5, 17) scale(-1, 1) translate(-14.5, -17)" id="m"><path d="M10.9 1.8 C11.6 2 21.5 -3.4 26.2 6.5 C26.9 11.9 19.6 25 20.5 26 C23.5 28.8 27.3 28.1 27.6 28.6 C27.9 29.1 26.7 30.5 24.1 32.5 C10.3 32.5 3.3 32.5 2.9 32.5 C-3.5 27 2.2 4.4 10.9 1.8 z" id="n" fill="#171B24" /><path d="M21.7 23.2 C24.6 25.3 26.6 23.6 27.8 26.8 C29.1 29.9 26.4 30.9 25.7 32.5 C25 34.1 3.3 32.5 3 32.5 C2.8 32.5 3.2 29.3 4 25.1 C7.3 23.9 10.9 21.6 13.4 20.6 C14.6 20.1 14.8 18.3 18.3 18.5 C20.5 18.5 21.7 20.1 21.7 23.2 z" id="o" fill="#0E1116" /><path d="M21.6 22 C21.6 22.4 21.7 22.8 21.7 23.2 C24.6 25.3 26.6 23.6 27.8 26.8 C29.1 29.9 26.4 30.9 25.7 32.5 C25 34.1 3.3 32.5 3 32.5 L2.9 32.5 C-3.5 27 2.2 4.4 10.9 1.8 C11.6 2 21.5 -3.4 26.2 6.5 C26.7 10.2 23.5 17.4 21.6 22 z M20.4 23.6 C20.4 23.2 21.1 20.9 21.1 20.6 C22.8 16.4 25.8 9.7 25.3 6.3 C21 -2.8 11.8 2.1 11.2 2 C3.2 4.4 -2.1 25.3 3.8 30.4 L3.9 30.4 C4.2 30.4 24.1 31.3 24.9 30.4 C25.6 29.5 26.8 28.4 26.1 26.9 C24.9 23.8 23 25.6 20.4 23.6 z" opacity="0.15" id="p" /></g></g><g transform="translate(205.2, 273.7999) scale(1.217507) translate(-205.2, -273.7999) translate(95.70001, 117.7) translate(96.5, 142) scale(-1, 1) translate(-96.5, -142) translate(81, 125)" id="q"><g transform="translate(15.5, 17) scale(-1, 1) translate(-15.5, -17)" id="r"><path d="M13 1.8 C13.7 2 23.6 -3.4 28.3 6.5 C29 11.9 21.6 25 22.6 26 C25.6 28.8 29.4 28.1 29.7 28.6 C30 29.1 28.8 30.5 26.2 32.5 C12.4 32.5 5.4 32.5 5 32.5 C-0.9 31.6 -3.3 5.3 13 1.8 z" id="s" fill="#171B24" /><path d="M23.7 23.2 C26.6 25.3 28.6 23.6 29.8 26.8 C31.1 29.9 28.4 30.9 27.7 32.5 C27 34.1 5.3 32.5 5 32.5 C4.8 32.5 5.2 29.3 6 25.1 C9.3 23.9 12.9 21.6 15.4 20.6 C16.6 20.1 16.8 18.3 20.3 18.5 C22.5 18.5 23.7 20.1 23.7 23.2 z" id="t" fill="#0E1116" /><path d="M23.7 23.2 C26.6 25.3 28.6 23.6 29.8 26.8 C31.1 29.9 28.4 30.9 27.7 32.5 C27 34.1 5.3 32.5 5 32.5 C-0.9 31.6 -3.3 5.3 13 1.8 C13.7 2 23.6 -3.4 28.3 6.5 C28.8 10.2 25.5 17.5 23.6 22.1 C23.7 22.4 23.7 22.8 23.7 23.2 z M21.6 23 C21.6 22.6 23.1 21 23.1 20.7 C24.8 16.5 27.9 9.6 27.4 6.2 C23 -3 13.7 2.5 13.1 2.4 C-2.1 5.6 0.2 29.6 5.7 30.4 C6 30.4 26 31.4 26.8 30.4 C27.6 29.4 29 28.5 28.4 26.4 C28.4 25.1 24.3 25 21.6 23 z" opacity="0.15" id="u" /></g></g><g transform="translate(109.1, 122.6) translate(23, 85)" id="v"><path d="M61.9 14 C58.4 7.7 55.3 4.6 50.9 3.5 C49.4 3.2 36.5 0.9 36.5 0.9 C36.5 0.9 23.6 3.2 22.1 3.5 C17.7 4.5 14.6 7.7 11.1 14 C5.5 23.9 6.8 33.7 7.4 45.2 C7.6 49 10.7 52.4 12.1 55.6 C14.6 61.3 16.7 66.1 21.6 68.7 C26.1 71.1 30.8 71.1 36.4 71.1 C42 71.1 46.8 71.1 51.2 68.7 C56.2 66 58.2 61.3 60.7 55.6 C62.1 52.4 65.2 48.9 65.4 45.2 C66.3 33.6 67.5 23.8 61.9 14 z" id="w" fill="#232733" /><path d="M61.9 14 C67.5 23.8 66.3 33.6 65.4 45.2 C65.2 48.9 62.1 52.4 60.7 55.6 C58.2 61.3 56.2 66 51.2 68.7 C46.8 71.1 42 71.1 36.4 71.1 C30.8 71.1 26.1 71.1 21.6 68.7 C16.7 66.1 14.6 61.3 12.1 55.6 C10.7 52.4 7.6 49 7.4 45.2 C6.8 33.7 5.5 23.9 11.1 14 C14.6 7.7 17.7 4.5 22.1 3.5 C23.6 3.2 36.5 0.9 36.5 0.9 C36.5 0.9 49.4 3.2 50.9 3.5 C55.3 4.6 58.4 7.7 61.9 14 z M61.1 13.5 C57.7 7.5 54.7 4.5 50.4 3.5 C49 3.2 36.5 1 36.5 1 C36.5 1 24 3.2 22.5 3.5 C18.2 4.5 15.2 7.5 11.8 13.5 C6.4 23 7.7 32.3 8.3 43.3 C8.5 46.9 11.5 50.2 12.9 53.2 C15.3 58.6 17.4 63.2 22.1 65.7 C26.5 68 31 68 36.5 68 C42 68 46.6 68 50.9 65.7 C55.8 63.1 57.7 58.6 60.1 53.2 C61.5 50.1 64.5 46.8 64.7 43.3 C65.4 32.2 66.6 22.9 61.1 13.5 z" opacity="0.15" id="x" /></g><g transform="translate(136.5992, 222.85) scale(0.7292556, 0.6201632) translate(-124.7, -215) translate(91.30001, 101.8) translate(33, 114)" id="y"><g id="z"><path d="M4.6 1.3 C4 6.3 3.4 9.9 3.1 13 C3 14 1.8 19.3 1.6 20.1 C2.3 19.5 2.7 19.7 3.1 19.2 C3.4 18.7 2.6 21.3 2.5 22.5 C2.4 23.5 1.5 25 1.1 26.8 C0.4 29.9 1.2 35.5 1.7 36.8 C2.8 34.7 3.6 31.3 4.4 31.5 C4.6 32.5 4 34.1 3.9 36.9 C3.9 38.2 3.8 43.8 4.2 44.4 C5.5 42.9 6.2 39.4 6.5 40.9 C6.6 41.5 6.4 43.5 6.3 46.2 C6.2 48.6 6.6 51.9 6.8 52.3 C7.7 49.8 7.5 50.3 7.5 51.3 C7.5 52.1 7.9 53.2 7.9 54.1 C7.9 56.4 7.5 62.7 8.4 60.4 C9.3 58.1 9.4 59.5 10.1 58.1 C9.1 61.4 9.4 63.3 9.5 64.7 C11.1 61.9 10.6 67 10.9 68.6 C11.2 69.9 12.4 69.6 12.2 71.3 C11.8 74.8 13.7 78.2 13.9 81.7 C14 83.4 9.6 83.2 6.9 88.2 C6.4 89.1 5.1 91.9 5.3 93.7 C5.4 95.3 6.7 94.5 9.3 94.7 C9.8 94.7 9.4 96.2 11 96.2 C12.2 96 11.7 95.8 14.4 95.6 C15.2 95.5 16.4 97.2 17.4 97.1 C21.6 96.7 27.1 94.6 30 93.7 C31.2 93.4 31.5 90.3 30.8 84.5 C32 82.8 32 81.1 30.8 79.6 C29.2 76.5 31.2 75.9 31.1 74.7 C30.5 69.9 28.6 66.7 28.5 65.1 C28.3 61.5 31 68.4 30.8 66.8 C30.4 62.5 29.2 59.5 29.2 57.6 C29 52.9 28.4 52.7 30 55.2 C30.1 54.6 30.2 51.9 29.5 49.6 C28.8 47.2 27.2 45.1 27.3 44.4 C27.4 44.6 28.6 44.7 29.5 45.8 C30.2 46.6 30.7 48.4 30.8 48.9 C31.7 47.1 32.1 45.5 31.6 41.5 C31.5 41.1 31 39.5 30.4 38.6 C29.8 37.6 29 37.3 28.9 36.9 C28.7 36.2 29.3 36.8 30.8 37.7 C30.3 36.3 30.1 34.6 28.9 32.6 C28 31 24.8 27.3 23.1 26.9 C23.6 26.6 25.5 26.3 27.7 28.2 C27.9 27.3 27.2 25.7 26.2 24.7 C24.1 22.8 21.2 21.5 20.8 20.8 C20.1 19.5 20.6 20.1 23.1 20.8 C21.8 17.1 19.3 17.1 18.6 15.6 C18 14.3 16.4 13.5 14.3 12.4 C15.3 12.5 14.5 11.6 16.7 12.4 C16.2 10.8 12.8 6.8 11.5 5.5 C10 4 4.8 -0.8 4.6 1.3 z" id="a1" fill="#464854" /><path d="M14.9 12.3 C13.8 10.9 12.6 9.5 11.9 8.8 C10.5 7.4 5.7 3 5.5 4.9 C4.9 9.5 4.4 12.9 4.1 15.7 C4 16.6 2.9 21.5 2.7 22.3 C3.3 21.7 3.7 21.9 4.1 21.5 C4.4 21 3.6 23.4 3.5 24.6 C3.4 25.5 2.6 26.9 2.2 28.6 C1.6 31.3 1.6 32 2 33.2 C3 31.3 4.1 28.3 4.9 28.5 C5.1 29.4 4.9 35.2 4.8 37.8 C4.8 39 4.4 39.9 4.8 40.4 C6 39.1 7.7 35.7 8 37.1 C8.1 37.7 7.1 43.9 7.1 46.4 C7 48.6 7.5 48.3 7.6 48.7 C8.4 46.4 9.7 47.2 9.7 48.1 C9.7 48.8 9.4 52.6 9.4 53.5 C9.4 55.6 8.5 59.4 9.3 57.3 C10.1 55.2 11.5 57.5 12.1 56.2 C11.2 59.3 10.7 61.1 10.8 62.4 C12.3 59.8 12.2 65.4 12.5 66.9 C12.8 68.1 13.6 68.9 13.4 70.5 C13 73.7 15.1 79.8 15.2 83 C15.3 84.6 12.9 84.1 10.1 86.3 C9.6 87.1 7.4 89.7 7.6 91.4 C7.7 92.9 7.7 91.7 10.1 91.9 C10.6 91.9 10.5 93.2 12 93.2 C13.1 93 12.8 93 15.3 92.8 C16 92.7 16.5 93.7 17.5 93.6 C21.4 93.2 24.6 92.4 27.3 91.6 C28.4 91.3 30 89.7 29.3 84.3 C30.4 82.7 30.3 77.9 29.2 76.6 C27.7 73.7 29.3 72.8 29.2 71.7 C28.6 67.3 27.9 65.6 27.8 64.1 C27.6 60.8 30.1 65.2 29.9 63.7 C29.5 59.7 28.4 58.9 28.4 57.1 C28.2 52.8 28 51.3 29.5 53.6 C29.6 53 29.3 51.8 28.7 49.7 C28.1 47.5 26.6 45.5 26.7 44.9 C26.8 45.1 26.5 41.6 27.4 42.6 C28 43.3 30.7 44.9 31.3 46.9 C31.2 44.5 31.4 45.9 31 42.2 C30.9 41.8 30.2 40.3 29.6 39.5 C29 38.6 27.5 37 27.4 36.6 C27.2 36 28.2 34.9 29.6 35.7 C29.1 34.4 28.5 34 27.4 32.1 C26.6 30.6 23.2 26.8 21.6 26.4 C22.1 26.1 24.5 24.7 26.5 26.5 C26.7 25.7 25 25.5 24.1 24.6 C22.2 22.8 21 23.7 20.7 23 C20.1 21.8 20.5 22.4 22.8 23 C22.7 22.6 22.5 22.2 22.3 21.9 C23.4 22.6 25.1 23.6 26.4 24.8 C27.4 25.8 28.1 27.4 27.9 28.3 C25.7 26.4 23.8 26.7 23.3 27 C25 27.4 28.2 31.1 29.1 32.7 C30.3 34.7 30.5 36.4 31 37.8 C29.5 36.9 28.9 36.3 29.1 37 C29.2 37.4 30 37.7 30.6 38.7 C31.2 39.6 31.7 41.2 31.8 41.6 C32.3 45.6 31.9 47.2 31 49 C30.9 48.5 30.4 46.7 29.7 45.9 C28.8 44.8 27.6 44.7 27.5 44.5 C27.4 45.2 29 47.3 29.7 49.7 C30.4 52 30.3 54.7 30.2 55.3 C28.6 52.8 29.2 53 29.4 57.7 C29.4 59.6 30.6 62.6 31 66.9 C31.2 68.5 28.5 61.6 28.7 65.2 C28.8 66.8 30.7 70 31.3 74.8 C31.4 76 29.4 76.6 31 79.7 C32.2 81.2 32.2 82.9 31 84.6 C31.7 90.4 31.4 93.5 30.2 93.8 C27.3 94.7 21.8 96.8 17.6 97.2 C16.6 97.3 15.4 95.6 14.6 95.7 C11.9 95.9 12.4 96.1 11.2 96.3 C9.6 96.3 10 94.8 9.5 94.8 C6.9 94.6 5.6 95.4 5.5 93.8 C5.3 92 6.6 89.2 7.1 88.3 C9.8 83.3 14.2 83.5 14.1 81.8 C13.9 78.3 12 74.9 12.4 71.4 C12.6 69.7 11.4 70 11.1 68.7 C10.8 67.1 11.3 62 9.7 64.8 C9.6 63.4 9.3 61.5 10.3 58.2 C9.6 59.6 9.5 58.2 8.6 60.5 C7.7 62.8 8.1 56.5 8.1 54.2 C8.1 53.3 7.7 52.2 7.7 51.4 C7.7 50.4 7.9 49.9 7 52.4 C6.8 52 6.4 48.7 6.5 46.3 C6.6 43.6 6.8 41.6 6.7 41 C6.4 39.5 5.7 43 4.4 44.5 C4 43.9 4.1 38.3 4.1 37 C4.2 34.2 4.8 32.6 4.6 31.6 C3.8 31.4 3 34.8 1.9 36.9 C1.4 35.6 0.6 30 1.3 26.9 C1.7 25.1 2.6 23.6 2.7 22.6 C2.8 21.4 3.6 18.8 3.3 19.3 C2.9 19.8 2.5 19.6 1.8 20.2 C1.8 19.3 3 14 3.1 13 C3.4 9.9 4 6.3 4.6 1.3 C4.8 -0.8 10 4 11.5 5.5 C12.8 6.8 16.2 10.8 16.7 12.4 C15.2 11.9 15.1 12.1 14.9 12.3 z M15.4 13 C16.9 13.8 18.1 14.6 18.6 15.6 C19.3 17.1 21.8 17.1 23.1 20.8 C21.8 20.4 21 20.1 20.7 20 C19.8 19.2 18.8 18.9 18.5 18.1 C17.9 16.9 16.5 16.2 14.5 15.1 C15.4 15.2 14.7 14.4 16.7 15.1 C16.5 14.6 16 13.8 15.4 13 z" opacity="0.15" id="b1" /><path d="M83 1.7 C84.2 6.5 84.4 11.6 85.4 14.5 C85.7 15.3 86.9 19.3 87.1 20.1 C86.4 19.5 86 19.7 85.6 19.2 C85.3 18.7 86.1 21.3 86.2 22.5 C86.3 23.5 87.2 25 87.6 26.8 C88.3 29.9 87.5 35.5 87 36.8 C85.9 34.7 85.1 31.3 84.3 31.5 C84.1 32.5 84.7 34.1 84.8 36.9 C84.8 38.2 84.9 43.8 84.5 44.4 C83.2 42.9 82.5 39.4 82.2 40.9 C82.1 41.5 82.3 43.5 82.4 46.2 C82.5 48.6 82.1 51.9 81.9 52.3 C81 49.8 81.2 50.3 81.2 51.3 C81.2 52.1 80.8 53.2 80.8 54.1 C80.8 56.4 81.2 62.7 80.3 60.4 C79.4 58.1 79.3 59.5 78.6 58.1 C79.6 61.4 79.3 63.3 79.2 64.7 C77.6 61.9 78.1 67 77.8 68.6 C77.5 69.9 76.3 69.6 76.5 71.3 C76.9 74.8 75 78.2 74.8 81.7 C74.7 83.4 79.1 83.2 81.8 88.2 C82.3 89.1 83.6 91.9 83.4 93.7 C83.3 95.3 82 94.5 79.4 94.7 C78.9 94.7 79.3 96.2 77.7 96.2 C76.5 96 77 95.8 74.3 95.6 C73.5 95.5 72.3 97.2 71.3 97.1 C67.1 96.7 61.6 94.6 58.7 93.7 C57.5 93.4 57.2 90.3 57.9 84.5 C56.7 82.8 56.7 81.1 57.9 79.6 C59.5 76.5 57.5 75.9 57.6 74.7 C58.2 69.9 60.1 66.7 60.2 65.1 C60.4 61.5 57.7 68.4 57.9 66.8 C58.3 62.5 59.5 59.5 59.5 57.6 C59.7 52.9 60.3 52.7 58.7 55.2 C58.6 54.6 58.5 51.9 59.2 49.6 C59.9 47.2 61.5 45.1 61.4 44.4 C61.3 44.6 60.1 44.7 59.2 45.8 C58.5 46.6 58 48.4 57.9 48.9 C57 47.1 56.6 45.5 57.1 41.5 C57.2 41.1 57.7 39.5 58.3 38.6 C58.9 37.6 62.4 36.7 62.5 36.3 C62.7 35.6 60.7 34.1 59.2 35.1 C59.7 33.7 59.8 33.6 60.9 31.6 C61.8 30 65.1 27.3 66.8 26.9 C66.3 26.6 63.1 26.3 60.9 28.2 C60.7 27.3 61.4 25.7 62.4 24.7 C64.5 22.8 67.4 21.5 67.8 20.8 C68.5 19.5 68 20.1 65.5 20.8 C66.8 17.1 69.3 17.1 70 15.6 C70.6 14.3 72.2 13.5 74.3 12.4 C73.2 12.5 76.8 11.1 72.3 11 C73.3 9.7 76.5 7.4 77.7 6.9 C78.5 6.2 80.6 4.3 83 1.7 z" id="c1" fill="#464854" /><path d="M73.9 12.3 C75 10.9 76.2 9.5 76.9 8.8 C78.3 7.4 83.1 3 83.3 4.9 C83.9 9.5 84.4 12.9 84.7 15.7 C84.8 16.6 85.9 21.5 86.1 22.3 C85.5 21.7 85.1 21.9 84.7 21.5 C84.4 21 85.2 23.4 85.3 24.6 C85.4 25.5 86.2 26.9 86.6 28.6 C87.2 31.5 87.3 32.1 86.8 33.3 C85.8 31.4 84.7 28.4 83.9 28.6 C83.7 29.5 83.9 35.3 84 37.9 C84 39.1 84.4 40 84 40.5 C82.8 39.1 81.1 35.8 80.8 37.2 C80.7 37.8 81.7 44 81.7 46.5 C81.8 48.7 81.3 48.4 81.2 48.8 C80.4 46.5 79.1 47.3 79.1 48.2 C79.1 48.9 79.4 52.7 79.4 53.6 C79.4 55.7 80.3 59.5 79.5 57.4 C78.7 55.3 77.3 57.6 76.7 56.3 C77.6 59.4 78.1 61.2 78 62.5 C76.5 59.9 76.6 65.5 76.3 67 C76 68.2 75.2 69 75.4 70.6 C75.8 73.8 73.7 79.9 73.6 83.1 C73.5 84.7 75.9 84.2 78.7 86.4 C79.2 87.2 81.4 89.8 81.2 91.5 C81.1 93 81.1 91.8 78.7 92 C78.2 92 78.3 93.3 76.8 93.3 C75.7 93.1 76 93.1 73.5 92.9 C72.8 92.8 72.3 93.8 71.3 93.7 C67.4 93.3 64.2 92.5 61.5 91.7 C60.4 91.4 58.8 89.8 59.5 84.4 C58.4 82.8 58.5 78 59.6 76.7 C61.1 73.8 59.5 72.9 59.6 71.8 C60.2 67.4 60.9 65.7 61 64.2 C61.2 60.9 58.7 65.3 58.9 63.8 C59.3 59.8 60.4 59 60.4 57.2 C60.6 52.9 60.8 51.4 59.3 53.7 C59.2 53.1 59.5 51.9 60.1 49.8 C60.7 47.6 62.2 45.6 62.1 45 C62 45.2 62.3 41.7 61.4 42.7 C60.8 43.4 58.1 45 57.5 47 C57.6 44.6 57.4 46 57.8 42.3 C57.9 41.9 58.6 40.4 59.2 39.6 C59.8 38.7 61.3 37.1 61.4 36.7 C61.6 36.1 60.6 35 59.2 35.8 C59.7 34.5 60.3 34.1 61.4 32.2 C62.2 30.7 65.6 26.9 67.2 26.5 C66.7 26.2 64.3 24.8 62.3 26.6 C62.1 25.8 63.8 25.6 64.7 24.7 C66.6 22.9 67.8 23.8 68.1 23.1 C68.7 21.9 68.3 22.5 66 23.1 C66.1 22.7 66.3 22.3 66.5 22 C65.4 22.7 63.7 23.7 62.4 24.9 C61.4 25.9 60.7 27.5 60.9 28.4 C63.1 26.5 65 26.8 65.5 27.1 C63.8 27.5 60.6 31.2 59.7 32.8 C58.5 34.8 58.3 36.5 57.8 37.9 C59.3 37 59.9 36.4 59.7 37.1 C59.6 37.5 58.8 37.8 58.2 38.8 C57.6 39.7 57.1 41.3 57 41.7 C56.5 45.7 56.9 47.3 57.8 49.1 C57.9 48.6 58.4 46.8 59.1 46 C60 44.9 61.2 44.8 61.3 44.6 C61.4 45.3 59.8 47.4 59.1 49.8 C58.4 52.1 58.5 54.8 58.6 55.4 C60.2 52.9 59.6 53.1 59.4 57.8 C59.4 59.7 58.2 62.7 57.8 67 C57.6 68.6 60.3 61.7 60.1 65.3 C60 66.9 58.1 70.1 57.5 74.9 C57.4 76.1 59.4 76.7 57.8 79.8 C56.6 81.3 56.6 83 57.8 84.7 C57.1 90.5 57.4 93.6 58.6 93.9 C61.5 94.8 67 96.9 71.2 97.3 C72.2 97.4 73.4 95.7 74.2 95.8 C76.9 96 76.4 96.2 77.6 96.4 C79.2 96.4 78.8 94.9 79.3 94.9 C81.9 94.7 83.2 95.5 83.3 93.9 C83.5 92.1 82.2 89.3 81.7 88.4 C79 83.4 74.6 83.6 74.7 81.9 C74.9 78.4 76.8 75 76.4 71.5 C76.2 69.8 77.4 70.1 77.7 68.8 C78 67.2 77.5 62.1 79.1 64.9 C79.2 63.5 79.5 61.6 78.5 58.3 C79.2 59.7 79.3 58.3 80.2 60.6 C81.1 62.9 80.7 56.6 80.7 54.3 C80.7 53.4 81.1 52.3 81.1 51.5 C81.1 50.5 80.9 50 81.8 52.5 C82 52.1 82.4 48.8 82.3 46.4 C82.2 43.7 82 41.7 82.1 41.1 C82.4 39.6 83.1 43.1 84.4 44.6 C84.8 44 84.7 38.4 84.7 37.1 C84.6 34.3 84 32.7 84.2 31.7 C85 31.5 85.8 34.9 86.9 37 C87.4 35.7 88.2 30.1 87.5 27 C87.1 25.2 86.2 23.7 86.1 22.7 C86 21.5 85.2 18.9 85.5 19.4 C85.9 19.9 86.3 19.7 87 20.3 C86.8 19.5 85.6 14.2 85.5 13.2 C85.2 10.1 84.6 6.5 84 1.5 C83.8 -0.6 78.6 4.2 77.1 5.7 C75.8 7 72.4 11 71.9 12.6 C73.5 11.9 73.6 12.1 73.9 12.3 z M73.3 13 C71.8 13.8 70.6 14.6 70.1 15.6 C69.4 17.1 66.9 17.1 65.6 20.8 C66.9 20.4 67.7 20.1 68 20 C68.9 19.2 69.9 18.9 70.2 18.1 C70.8 16.9 72.2 16.2 74.2 15.1 C73.3 15.2 74 14.4 72 15.1 C72.2 14.6 72.7 13.8 73.3 13 z" opacity="0.15" id="d1" /></g></g></g><g transform="translate(168.5, 215.6) scale(0.9786586) translate(-168.5, -215.6)" id="e1"><g transform="translate(-287.2, 91.39998) translate(18, 27)" id="f1"><g id="g1"><path d="M395.9 33 C395.5 43 395.1 49.9 394.5 53.9 C392.6 68.8 389.8 77.4 388.2 79.4 C386 82.2 384.5 84.4 383.6 85.8 L390.6 84.8 L388.2 91.5 L393 88 C405.9 96.6 414.5 102 419 104.2 C424.2 106.7 430 107.6 432.1 107.8 C436.9 108.3 440.6 108.3 443.1 107.8 C454.1 104.1 461.6 101.1 465.8 99 C470 96.8 474.9 92.8 480.4 87 L486.6 88 L485.3 83.4 C484 80.4 483.4 78.7 483.6 78.2 C483.7 77.7 486.1 77.7 490.8 78.2 L483.6 67.4 C481.3 59.8 480 54.4 479.7 51.2 C479.4 48 479.2 42.6 478.9 35 C478.1 31.4 476.5 29 474.3 27.9 C472 26.7 470.5 28.1 469.8 31.9 L474.3 80.3 L449.4 98.8 L431.4 98.8 C415.7 92.4 407.4 89.2 406.5 89.2 C405.6 89.2 403.5 85.1 400 76.9 L405 27.8 C402.5 26.5 400.8 26.2 399.7 26.8 C398.6 27.6 397.3 29.6 395.9 33 z" id="h1" fill="#6E7079" /><path d="M425.8 7.7 L398.5 28.5 C399.7 37.8 399.7 47 398.5 56.1 C397.3 65.3 395.9 72.4 394.3 77.4 L392.5 80.6 L397.1 78.7 L394.4 82.3 L398.6 82.3 C407.9 91.9 413.9 97.4 416.6 98.8 C420.6 100.9 425.4 104.7 431.2 106 C437 107.3 444.5 107.4 457.8 98.8 C466.7 93.1 473.3 86.6 477.5 79.4 L481.9 82.3 L479.2 72.9 L483.8 75.9 L479.2 68.3 C478 60.9 477.4 55.9 477.2 53.3 C476.6 42.9 476.2 38.6 476.2 36.4 C476.2 33.5 467.9 23.9 451.2 7.9 L425.8 7.9 L425.8 7.7 z" id="i1" fill="#464854" /><path d="M477 36.3 C477 30.4 478.2 31.3 473.5 26.1 C466.5 18.5 452.3 8.8 451.1 7.7 C449 5.8 427.2 6.4 425.6 7.1 C423.9 7.9 398.9 25.7 397.9 28.7 C396.9 31.7 399.5 43.2 398.9 50.5 C400.9 50.9 403 51.1 404.9 49.8 C406.8 48.5 409 44.9 411 45.8 C413.9 47.1 413.8 66.8 422.1 68.1 C425.2 68.6 432.7 56.3 437.5 56.2 C441 56 448.4 68.7 451 68 C461 65.2 465.3 45.6 468.4 48.3 C471.9 51.3 473.4 52 476.5 48.3 C477 47.8 477 42.1 477 36.3 z" id="j1" fill="#6E7079" /><path d="M405.7 49.1 C405.8 50.4 416.2 71.4 418.3 80.1 C420.4 88.8 420 101.4 436.2 100.8 C452.4 100.2 453 99.1 456.8 80.1 C460.6 61.1 468.6 50.2 468.5 48.7 C468.4 47.2 467 46.4 463.2 42.7 C459.5 39.1 456.4 31.4 450.2 31.3 C445.7 31 436.5 40.9 447.9 54.4 C448.6 55.1 454 65.1 452.2 65.9 C450.4 65.9 448.9 63.2 446.5 60.8 C445.3 59.6 442.6 58.1 441.6 56.7 C438.4 52.1 439.4 26.8 438 26.8 C436.5 26.7 435.1 52.6 433.7 56.7 C433 58.9 431.1 59.2 429.4 60.8 C426.8 63.2 424.2 66.2 423 65.9 C421.5 65.7 423.9 57.6 426.6 55.7 C434.5 48.9 431.5 31.4 426.6 31.4 C421 29.9 417.4 36.5 414.1 40.2 C410.7 43.9 405.5 47.8 405.7 49.1 z" id="k1" fill="#464854" /><path d="M397.6 29.4 C397.6 29.1 397.7 28.9 397.8 28.7 C398.8 25.7 423.8 7.9 425.5 7.1 C427.2 6.4 449 5.8 451 7.7 C452.2 8.8 466.4 18.5 473.4 26.1 C475.2 28.1 476.1 29.2 476.6 30.1 C477.6 31.4 478.3 33.1 478.8 35.2 C479.1 42.8 479.3 48.2 479.6 51.4 C479.9 54.6 481.2 60 483.5 67.6 L490.7 78.4 C486 77.9 483.6 77.9 483.5 78.4 C483.3 78.9 483.9 80.6 485.2 83.6 L486.5 88.2 L480.3 87.2 C474.8 93 469.9 97 465.7 99.2 C461.5 101.3 454 104.3 443 108 C440.5 108.5 436.8 108.5 432 108 C429.9 107.8 424.1 106.9 418.9 104.4 C414.3 102.2 405.7 96.8 392.9 88.2 L388.1 91.5 L390.5 84.8 L383.5 85.8 C384.4 84.4 385.9 82.2 388.1 79.4 C389.7 77.4 392.5 68.8 394.4 53.9 C395 49.9 395.4 43 395.8 33 C396.5 31.5 397.1 30.3 397.6 29.4 z M399.8 28.6 C399.7 28.8 399.7 29 399.7 29.3 C399.2 30.2 398.6 31.3 398 32.7 C397.6 42.2 397.2 48.7 396.7 52.5 C394.9 66.6 393.5 74.7 392 76.6 C389.9 79.3 387.7 82.4 386.9 83.7 L393 81.8 L390.7 88.2 L396.1 86.4 C408.3 94.6 415.7 98.4 420.1 100.4 C425 102.8 430.5 103.6 432.5 103.8 C437.1 104.3 440.6 104.3 442.9 103.8 C453.3 100.3 460.5 97.4 464.4 95.4 C468.4 93.3 473 89.5 478.3 84 L484.2 84.9 L483 80.5 C481.8 77.7 481.1 77 481.3 76.6 C481.4 76.1 482.5 75.5 486.9 76 L481.3 65.3 C479.1 58.1 477.9 53 477.6 49.9 C477.3 46.9 477.1 41.7 476.8 34.5 C476.4 32.5 475.6 30.9 474.7 29.7 C474.3 28.8 473.4 27.8 471.7 25.9 C465.1 18.9 451.6 9.7 450.5 8.6 C448.5 6.8 427.8 7.4 426.2 8 C424.6 8.8 400.8 25.7 399.8 28.6 z" opacity="0.15" id="l1" /></g></g><g transform="translate(89.89999, 107.4) translate(24, 0)" id="m1"><g id="n1"><path d="M32.4 15.8 C31.9 16.9 31.5 18.3 31.2 19.7 C31.1 19.5 31.1 19.3 31 19.1 C31 16.4 30.1 13.7 29.5 10.7 C29.1 11.4 28.7 12.1 28.4 12.9 C27.7 10 25.9 7.3 23.5 5.6 C23.8 6.7 24 7.7 24.2 8.6 C21.4 5.9 18.1 3.6 14.7 1.5 C13.2 0.6 11 -0.1 9.8 1.1 C9.2 1.7 9 2.6 8.8 3.4 C7.5 9.1 3.8 22.2 2.9 31.5 C2.5 30.6 2.2 29.6 1.8 28.7 C0.1 32.4 0.8 37 3.3 40.2 C3.4 40.7 3.6 41.2 3.8 41.7 C2.8 41.3 1.7 40.9 0.7 40.5 C2.1 44 5 46.8 8.5 48.2 C9.7 49.1 11 49.7 12.5 49.9 C16.2 50.3 19.5 49 25.4 42.2 C29.8 37.1 31.2 35 31.7 32.1 C36.8 26.6 33.7 18.8 32.4 15.8 z" id="o1" fill="#171B24" /><path d="M32.4 15.8 C33.7 18.8 36.8 26.6 31.7 32.1 C31.2 35 29.8 37.1 25.4 42.2 C19.5 49 16.2 50.3 12.5 49.9 C11 49.7 9.7 49.1 8.5 48.2 C5 46.8 2.1 44 0.7 40.5 C1.7 40.9 2.8 41.3 3.8 41.7 C3.6 41.2 3.4 40.7 3.3 40.2 C0.8 37 0.1 32.4 1.8 28.7 C2.2 29.6 2.5 30.6 2.9 31.5 C3.8 22.2 7.5 9.1 8.8 3.4 C9 2.6 9.2 1.7 9.8 1.1 C11 -0.1 13.2 0.6 14.7 1.5 C18.1 3.6 21.4 5.9 24.2 8.6 C24 7.7 23.8 6.7 23.5 5.6 C25.9 7.3 27.7 10 28.4 12.9 C28.7 12.1 29.1 11.4 29.5 10.7 C30.1 13.7 31 16.4 31 19.1 C31.1 19.3 31.1 19.5 31.2 19.7 C31.5 18.3 31.9 16.9 32.4 15.8 z M32.5 17 C32 18 31.7 19.9 31.4 21.2 C31.3 21 30.1 18.7 30 18.6 C30 16.1 29.8 14.9 29.3 12.1 C28.9 12.8 28.5 13.6 28.3 14.4 C27.6 11.7 26.4 8.4 24.2 6.8 C24.5 7.9 24.8 9.3 25 10.1 C22.4 7.6 18.1 4.2 14.9 2.3 C13.5 1.4 11.5 0.5 10.4 1.6 C9.8 2.2 9.6 3.3 9.5 4 C8.7 7.3 7.1 13.5 6 20.8 C5.4 25.1 5.1 30.8 4.8 34 C4.7 33.6 3.9 33.6 3.3 32.9 C2.7 32.1 2.2 30.8 2 30.3 C0.4 33.8 1.8 36.2 4.1 39.2 C4.2 39.7 5.4 42.5 5.6 43 C4.7 42.6 2.9 42.1 2 41.7 C3.3 44.9 5.8 45 9 46.3 C10.2 47.1 12.1 47.4 13.5 47.6 C16.9 48 19.4 46.2 24.8 39.9 C28.9 35.2 30.2 33.3 30.6 30.6 C35.4 25.5 33.7 19.8 32.5 17 z" opacity="0.15" id="p1" /><path d="M12 27.6 C12.7 24.3 13.6 21.1 13.6 17.7 C20.2 19.8 25.3 25.9 26.4 32.7 C26.6 33.9 26.2 35.1 25.5 36 C24.1 37.7 21.7 40.6 20.3 42.2 C19.5 43.2 18.1 43.6 16.9 43.1 C14.6 42.2 12.7 39.9 11.9 37.5 C10.9 34.4 11.3 30.9 12 27.6 z" id="q1" fill="#F2E5D3" /></g></g><g transform="translate(111.1, 106.4) translate(92.5, 25) scale(-1, 1) translate(-92.5, -25) translate(75, 0)" id="r1"><g id="s1"><path d="M0.6 40.5 C1.6 40.9 2.7 41.3 3.7 41.7 C3.5 41.2 3.3 40.7 3.2 40.2 C0.7 37 0 32.4 1.7 28.7 C2.1 29.6 2.4 30.6 2.8 31.5 C3.8 22.2 7.5 9.1 8.7 3.4 C8.9 2.6 9.1 1.7 9.7 1.1 C11 -0.1 13.1 0.6 14.6 1.5 C18.1 3.6 21.4 5.9 24.1 8.6 C24 7.7 23.7 6.7 23.4 5.6 C25.8 7.4 27.6 10 28.3 12.9 C28.6 12.1 29 11.4 29.4 10.7 C29.9 13.7 30.9 16.4 30.9 19.1 C31 19.3 31 19.5 31.1 19.7 C31.4 18.3 31.8 16.9 32.3 15.8 C33.6 18.8 36.7 27.6 31.6 32 C31.1 34.9 29.7 37.1 25.3 42.1 C19.4 48.8 16.1 50.2 12.4 49.8 C11 49.6 9.6 49 8.4 48.1 C4.9 46.8 2 44 0.6 40.5 z" id="t1" fill="#171B24" /><path d="M0.6 40.5 C1.6 40.9 2.7 41.3 3.7 41.7 C3.5 41.2 3.3 40.7 3.2 40.2 C0.7 37 0 32.4 1.7 28.7 C2.1 29.6 2.4 30.6 2.8 31.5 C3.8 22.2 7.5 9.1 8.7 3.4 C8.9 2.6 9.1 1.7 9.7 1.1 C11 -0.1 13.1 0.6 14.6 1.5 C18.1 3.6 21.4 5.9 24.1 8.6 C24 7.7 23.7 6.7 23.4 5.6 C25.8 7.4 27.6 10 28.3 12.9 C28.6 12.1 29 11.4 29.4 10.7 C29.9 13.7 30.9 16.4 30.9 19.1 C31 19.3 31 19.5 31.1 19.7 C31.4 18.3 31.8 16.9 32.3 15.8 C33.6 18.8 36.7 27.6 31.6 32 C31.1 34.9 29.7 37.1 25.3 42.1 C19.4 48.8 16.1 50.2 12.4 49.8 C11 49.6 9.6 49 8.4 48.1 C4.9 46.8 2 44 0.6 40.5 z M2.1 41.7 C3.4 44.9 5.7 44.9 8.9 46.1 C9.9 46.9 11.7 47.1 12.9 47.3 C16.2 47.7 19.2 46.4 24.5 40.4 C28.5 35.9 29.7 33.9 30.2 31.3 C34.8 27.4 33.6 21.2 32.4 18.5 C32 19.5 31.4 20.2 31.1 21.5 C31 21.3 30.3 19.9 30.2 19.8 C30.2 17.3 29.7 15.6 29.2 12.9 C28.9 13.6 28.2 13.9 27.9 14.7 C27.3 12 27 10 24.8 8.4 C25.1 9.4 24 9.8 24.1 10.6 C21.7 8.1 17.3 4.3 14.1 2.4 C12.8 1.6 11.4 0.7 10.2 1.8 C9.7 2.3 9 5.2 8.9 5.9 C7.8 11 4.4 26 3.5 34.4 C3.1 33.6 2.1 31 1.7 30.2 C0.2 33.5 1.4 35.7 3.7 38.6 C3.7 39.1 4.8 42.2 5 42.6 C4.1 42.3 3 42.1 2.1 41.7 z" opacity="0.15" id="u1" /><path d="M12 27.6 C12.7 24.3 13.6 21.1 13.6 17.7 C20.2 19.8 25.3 25.9 26.4 32.7 C26.6 33.9 26.2 35.1 25.5 36 C24.1 37.7 21.7 40.6 20.3 42.2 C19.5 43.2 18.1 43.6 16.9 43.1 C14.6 42.2 12.7 39.9 11.9 37.5 C10.9 34.4 11.3 30.9 12 27.6 z" id="v1" fill="#F2E5D3" /></g></g><g transform="translate(168.5, 186.5) scale(1) translate(-168.5, -184.5)" id="w1"><g transform="translate(84.8, 130.6) translate(60, 9)" id="x1"><path d="M18.5 16.6 C20.1 14.3 15.6 1.5 14.3 0.3 C13.6 -0.3 15.8 -0.1 19.9 3.9 C20.6 4.6 21.7 6.3 23.1 8.9 C24.8 6.3 26.1 4.6 27 3.9 C32.4 -0.3 33.9 -0.3 32.5 1.3 C31.1 3 28.9 7.4 28 10.9 C27.3 13.8 27.8 16 28 16.5 C28.6 17.7 31.1 26.7 32.5 30.8 C33.9 34.9 37.8 41.3 39.3 44.7 C42.1 51 46.1 55.5 46.8 58.4 C47.2 61.7 45.4 68 44.8 69.9 C44.2 72.1 42.4 73.2 40.5 74.1 C37 75.7 34.4 76.6 30 77.7 C27.8 78.2 26.8 78.1 23.3 78 C20.7 77.9 18.4 77.7 15.4 76.8 C13 76.1 10 75.5 7.7 74.7 C4.2 73.5 2.2 70.5 2 69.5 C1.2 66.1 0 61.8 0.5 58.6 C1 55.5 5.2 51.5 7.6 44.6 C8.8 41.1 11.6 36.8 13 33.5 C15.7 26.7 17 18.9 18.5 16.6 z" id="y1" fill="#FFF" /><path d="M18.5 16.6 C20.1 14.3 15.6 1.5 14.3 0.3 C13.6 -0.3 15.8 -0.1 19.9 3.9 C20.6 4.6 21.7 6.3 23.1 8.9 C24.8 6.3 26.1 4.6 27 3.9 C32.4 -0.3 33.9 -0.3 32.5 1.3 C31.1 3 28.9 7.4 28 10.9 C27.3 13.8 27.8 16 28 16.5 C28.6 17.7 31.1 26.7 32.5 30.8 C33.9 34.9 37.8 41.3 39.3 44.7 C42.1 51 46.1 55.5 46.8 58.4 C47.2 61.7 45.4 68 44.8 69.9 C44.2 72.1 42.4 73.2 40.5 74.1 C37 75.7 34.4 76.6 30 77.7 C27.8 78.2 26.8 78.1 23.3 78 C20.7 77.9 18.4 77.7 15.4 76.8 C13 76.1 10 75.5 7.7 74.7 C4.2 73.5 2.2 70.5 2 69.5 C1.2 66.1 0 61.8 0.5 58.6 C1 55.5 5.2 51.5 7.6 44.6 C8.8 41.1 11.6 36.8 13 33.5 C15.7 26.7 17 18.9 18.5 16.6 z M18.8 17 C17.4 19.2 16.9 26.5 14.4 32.8 C13.1 35.9 10.2 40.8 9 44.1 C6.8 50.6 3 54.5 2.5 57.4 C2.1 60.4 2.6 63.4 3.4 66.6 C3.6 67.5 5.4 70.3 8.7 71.4 C10.9 72.2 13.7 72.7 15.9 73.4 C18.7 74.2 20.9 74.4 23.3 74.5 C26.6 74.6 27.5 74.7 29.6 74.2 C33.7 73.2 36.2 72.4 39.4 70.9 C41.2 70 42.9 69 43.5 66.9 C44 65.2 45.3 60.4 45 57.3 C44.3 54.5 40.4 49.9 37.7 44 C36.3 40.8 33.2 34.2 31.9 30.3 C30.6 26.5 28.2 18.6 27.6 17.4 C27.5 17 26.9 14.6 27.2 12.2 C28.1 8.9 29.9 3.8 31.2 2.2 C32.5 0.7 31.6 1.1 26.6 5.1 C25.7 5.7 24.7 7.4 23.1 9.8 C21.8 7.4 20.8 5.8 20.1 5.1 C16.3 1.4 15.2 1.1 15.8 1.7 C17 2.8 20.3 14.9 18.8 17 z" opacity="0.15" id="z1" /></g><g transform="translate(90.89999, 102.2) translate(61, 96)" id="a2"><g transform="translate(0.600098, 0)" id="b2"><path d="M0.1 2.5 C1.5 5.1 2.5 6.8 3 7.7 C3.8 9.2 4 9.8 5 11.7 C6 13.6 8.2 16 9.4 16.1 C10.4 16.1 12.9 16.6 15.3 16.6 C17.3 16.6 19.4 16.3 20.2 16.3 C21.1 16.3 23.1 15.8 24.3 15 C25 14.5 26.4 11.5 27.1 10.6 C27.2 10.4 28.2 8.4 30 4.5 C28.5 6.1 27.5 7.3 27 8 C25.4 10.2 24.6 11.8 23.9 11.8 C22.3 11.8 12.7 12.1 9.9 12.1 C8.6 12.1 6.9 10.1 4.3 7.2 C3.4 6.3 2 4.8 0.1 2.5 z" id="c2" fill="#665F57" /><g id="d2"><path d="M3.6 7.2 C4.1 8.2 6.6 11.9 7.8 13.1 C8.7 14 9.6 14.3 10.9 14.3 C13.4 14.3 18.4 14.6 20.8 14.3 C21.8 14.2 22.8 14.4 23.8 13.5 C25.1 12.3 26.5 9.6 27.3 8.3 C28.2 6.7 30.3 4.6 31 2.5 C30.5 1.5 30.6 0 29.5 0.1 C28.1 1.1 25.7 3.8 23.6 4.5 C21.8 5.1 18.4 5.9 15.5 5.8 C12.3 5.7 9.6 4.8 7.8 4.4 C5.7 3.9 3.4 1.1 1.7 0 C0.7 0.3 0.2 1.8 0 2.4 C0.9 4.3 3 6 3.6 7.2 z" id="e2" /><g transform="translate(3.576923, 1.4)" id="f2"><path d="M0.9 0.4 C1.3 2.6 1.7 4.3 2.3 5.6 C2.7 6.4 3.2 7.6 4 8.8 C4.2 9.2 4.8 9.7 5.8 10.3 C5.1 8.3 4.7 6.9 4.6 6 C4.5 4.5 5.1 3.5 4.9 3.1 C4.7 2.7 3.8 2.7 3 2.1 C2.4 1.8 1.7 1.2 0.9 0.4 z" id="g2" fill="#FFF" /><path d="M7.7 10.9 C7.6 10.6 7.5 10.2 7.5 9.8 C7.5 9.4 7.6 8.9 7.7 8.3 C8.4 8.8 8.9 9.2 9.3 9.5 C9.6 9.8 10.1 10.4 10.6 11.1 C10.1 11.1 9.6 11.1 9.1 11.1 C8.5 11.1 8 11 7.7 10.9 z" id="h2" fill="#FFF" /><path d="M14.6 11.1 C15 11.2 15.5 11.2 16.1 11.1 C16.7 11 17 10.9 17 10.7 C17.1 10.3 17.2 10 17.2 9.8 C17.2 9.6 17.2 9.2 17.2 8.5 C16.4 9 15.8 9.4 15.5 9.7 C15.2 10 14.9 10.5 14.6 11.1 z" id="i2" fill="#FFF" /><path d="M18.7 10.2 C19.1 8.4 19.4 7.2 19.5 6.5 C19.6 5.7 19.7 4.2 19.7 3.8 C19.7 3 20 2.6 20.5 2.6 L23.3 0.5 C22.9 2.8 22.4 4.6 21.9 6 C21.4 7.4 20.3 8.8 18.7 10.2 z" id="j2" fill="#FFF" /><path d="M5.6 3.2 C6.3 3.4 6.7 3.5 7 3.5 C7.3 3.6 7.7 3.6 8.2 3.8 C8 4.4 7.9 4.9 7.8 5.3 C7.7 5.7 7.8 6.3 7.8 7.1 C7.4 6.9 7.1 6.7 6.9 6.5 C6.5 6.1 6.2 5.3 6.1 5.1 C5.9 4.7 5.7 4.1 5.6 3.2 z" id="k2" fill="#FFF" /><path d="M8.9 3.8 C9.5 4 10 4.1 10.3 4.1 C10.6 4.1 11 4.1 11.5 4.2 C11.3 4.9 11.2 5.4 11 5.8 C10.9 6.2 10.7 6.7 10.6 7.3 C9.9 6.5 9.5 6 9.4 5.7 C9.2 5.4 9.1 4.8 8.9 3.8 z" id="l2" fill="#FFF" /><path d="M13 4.2 C12.9 4.8 12.9 5.2 13 5.6 C13.1 6 13.2 6.6 13.4 7.3 C14 6.6 14.4 6.1 14.7 5.8 C15 5.4 15.3 4.8 15.5 3.9 C15 4 14.6 4.1 14.3 4.2 C14 4.3 13.6 4.2 13 4.2 z" id="m2" fill="#FFF" /><path d="M16.4 3.8 C16.5 4.4 16.5 4.9 16.4 5.3 C16.3 5.6 16.2 6.3 16 7.1 C16.5 6.9 16.9 6.7 17.1 6.5 C17.6 6.1 18.1 5.5 18.3 5.3 C18.7 4.9 19 4.2 19.3 3.2 C18.7 3.4 18.2 3.5 17.9 3.6 C17.6 3.6 17.1 3.7 16.4 3.8 z" id="n2" fill="#FFF" /></g></g></g></g><g transform="translate(108.3, 121.9) translate(51, 63)" id="o2"><g id="p2"><path d="M8.5 0.8 C3 0.8 0.1 2.6 0.1 6.3 C0.1 9.3 1 9.5 2.6 11.1 C4.1 12.7 4.4 14.2 8.6 14.2 C12.8 14.2 13.1 12.7 14.6 11.1 C16.1 9.5 17.1 9.3 17.1 6.3 C16.9 2.6 14 0.8 8.5 0.8 z" id="q2" fill="#302622" /><path d="M12.1 4.4 C11.4 4.3 9.4 4.4 8.5 4.9 C7.6 4.4 5.7 4.2 4.9 4.4 C3.6 4.6 2.8 6.9 3 6.9 C3.2 7 4.9 5.8 5.7 6.1 C6.9 6.5 8 7.7 8.4 8.6 C8.8 7.8 9.9 6.5 11.1 6.1 C12 5.8 13.6 7 13.8 6.9 C14.2 6.9 13.3 4.6 12.1 4.4 z" id="r2" fill="#F7F7F7" /></g></g><g transform="translate(107.8, 109.1) translate(23, 34)" id="s2"><g id="t2"><path d="M13.3 12.2 C16.3 10.4 20.4 9.2 23.8 10 C26.2 10.5 30.8 14.2 32.1 19.9 C31.7 19.7 31.4 19.6 30.9 19.4 C31.2 20.1 31.6 20.9 31.9 21.6 C31.7 22.5 28.8 23.9 28.2 23.3 C27.8 24.5 29.3 26 30.1 26.7 C30 26.8 25.6 26.2 24.1 27.6 C24.7 28.2 24.7 28.4 25.1 28.8 C22.7 29.4 20.2 30 17.7 29.7 C15.9 29.5 13.5 28.9 13 26.9 C12.4 27.5 12.1 28.2 12.1 29 C9.3 27.4 7.8 24 8.1 20.8 C8.5 17.4 10.3 14 13.3 12.2 z" id="u2" fill="#6E7079" /><path d="M11.7 18.8 C16.9 14.9 28.1 14.8 28 21.5 C27.9 21.7 26.6 28.5 19.4 28.3 C11.6 27.9 11 20.8 11.7 18.8 z" id="v2" fill="#B57983" /><path d="M15.7 15 C14.4 15.9 13.4 17.1 12.1 18 C11.9 18.2 11 18.5 10.9 18.7 C10.7 19.2 11.4 19 11.7 18.9 C12.3 18.8 12.8 18.6 13.3 18.3 C13 19 13.2 20.6 13.5 21.8 C13.9 24.7 15.9 26.7 20.1 27.1 C23.8 27.5 26.8 24.1 26.8 20.4 C26.8 19.9 26.8 19.5 26.7 19 C27.1 19.6 27.4 20.3 27.6 21 C27.7 21.3 27.9 21.1 28 20.9 C28.1 14.9 20.5 11.4 15.7 15 z" id="w2" fill="#282421" /><path d="M24.4 18.3 C24 17.5 23.2 16.9 22.2 16.9 C20.9 16.9 19.8 18 19.8 19.3 C19.8 20.6 20.9 21.7 22.2 21.7 C22.4 21.7 22.5 21.7 22.7 21.6 C23.4 22 23.8 22.5 24 23.2 C25.2 22.1 25.2 19.7 24.4 18.3 z" id="x2" fill="#FFF" /><path d="M2.6 24.2 C2.7 26.4 2.6 28.5 2.1 30.6 C4.3 29.4 5.8 26.9 5.9 24.4 C6.2 24 6.5 23.6 6.8 23 C7 25.6 6.8 25.8 6.1 27.8 C6.8 27.3 7.3 26.4 7.8 25.3 C8.3 27.2 9.1 29 10.2 30.6 C9.4 26 8.6 20.1 11.2 16.1 C11.8 15.2 13.1 14.3 14.6 13.6 C16 12.7 19.1 12.2 20.3 12.3 C20.2 12 20.2 11.7 20.1 11.5 C22.2 11.1 24.6 12 26 13.6 C26.1 13.1 26.2 12.6 26.3 12.1 C27.7 14 29.9 17.2 30.8 19.4 C31.2 20.4 31.8 21 32.2 20.9 C33.3 20.8 34 20.5 34.5 19 C35 17.5 31.3 10.6 28.7 8.4 C25.7 5.3 21.7 3.1 18.1 0.6 C18.7 1.8 19.3 2.9 19.8 4.1 C19.3 3.9 18.8 3.8 18.2 3.6 C16.3 2.5 14.1 1.8 11.8 1.6 C12.3 1.9 12.8 2.3 13.4 2.6 C11.9 2.3 10.3 3 8.9 3.6 C8.4 3.8 4.4 5.8 3.8 6.1 C3.8 6.3 3.8 6.5 3.9 6.6 C2.1 8.3 1.3 10.1 1.1 12 C1.1 12.1 1 12.3 1 12.4 C0.5 14.7 0.5 17.1 0.9 19.4 C1.1 19.1 1.3 18.7 1.6 18.4 C1.7 18.8 1.8 19.1 1.9 19.5 C1.9 19.6 1.9 19.7 2 19.7 C2 20.7 1.9 21.6 1.6 22.3 C1.2 23 0.8 23.7 0.2 24.3 C1 24.7 1.9 24.5 2.6 24 C2.6 24.1 2.6 24.2 2.6 24.2 z M4.1 18.2 L4.1 18.2 L4.1 18.2 z" id="y2" fill="#FFF" /></g></g><g transform="translate(108.9, 109.1) translate(61, 34)" id="z2"><g id="a3"><path d="M21.7 12.2 C18.7 10.4 14.6 9.2 11.2 10 C8.8 10.5 4.2 14.2 2.9 19.9 C3.3 19.7 3.6 19.6 4.1 19.4 C3.8 20.1 3.4 20.9 3.1 21.6 C3.3 22.5 6.2 23.9 6.8 23.3 C7.2 24.5 5.7 26 4.9 26.7 C5 26.8 9.4 26.2 10.9 27.6 C10.3 28.2 10.3 28.4 9.9 28.8 C12.3 29.4 14.8 30 17.3 29.7 C19.1 29.5 21.5 28.9 22 26.9 C22.6 27.5 22.9 28.2 22.9 29 C25.7 27.4 27.2 24 26.9 20.8 C26.5 17.4 24.7 14 21.7 12.2 z" id="b3" fill="#6E7079" /><path d="M23.2 18.8 C18 14.9 6.8 14.8 6.9 21.5 C7 21.7 8.3 28.5 15.5 28.3 C23.4 27.9 24 20.8 23.2 18.8 z" id="c3" fill="#B57983" /><path d="M24 18.8 C23.9 18.6 23.1 18.2 22.8 18.1 C21.5 17.2 20.5 16 19.2 15.1 C14.4 11.5 6.8 15 6.9 21.2 C7 21.4 7.2 21.5 7.3 21.3 C7.5 20.7 7.9 20 8.2 19.3 C8.1 19.7 8.1 20.2 8.1 20.7 C8.1 24.4 11.1 27.8 14.8 27.4 C19 27 21 25 21.4 22.1 C21.7 20.9 21.9 19.3 21.6 18.6 C22.1 18.8 22.6 19.1 23.2 19.2 C23.6 19.1 24.2 19.3 24 18.8 z" id="d3" fill="#282421" /><path d="M18.4 18.3 C18 17.5 17.2 16.9 16.2 16.9 C14.9 16.9 13.8 18 13.8 19.3 C13.8 20.6 14.9 21.7 16.2 21.7 C16.4 21.7 16.5 21.7 16.7 21.6 C17.4 22 17.8 22.5 18 23.2 C19.1 22.1 19.2 19.7 18.4 18.3 z" id="e3" fill="#FFF" /><path d="M32.4 24 C33.1 24.5 34 24.6 34.8 24.3 C34.2 23.7 33.8 23.1 33.4 22.3 C33.2 21.6 33.1 20.7 33 19.7 C33 19.6 33 19.5 33.1 19.5 C33.2 19.1 33.3 18.8 33.4 18.4 C33.6 18.7 33.8 19.1 34.1 19.4 C34.5 17.1 34.5 14.7 34 12.4 C34 12.3 33.9 12.1 33.9 12 C33.7 10.1 32.9 8.3 31.1 6.6 C31.1 6.4 31.1 6.2 31.2 6.1 C30.6 5.8 26.6 3.8 26.1 3.6 C24.7 2.9 23.2 2.3 21.6 2.6 C22.1 2.3 22.6 1.9 23.2 1.6 C21 1.8 18.8 2.4 16.8 3.6 C16.3 3.7 15.7 3.9 15.2 4.1 C15.8 2.9 16.4 1.8 16.9 0.6 C13.3 3 9.3 5.3 6.3 8.4 C3.7 10.6 0 17.5 0.5 19 C1 20.5 1.7 20.8 2.8 20.9 C3.2 20.9 3.8 20.4 4.2 19.4 C5 17.2 7.3 14 8.7 12.1 C8.8 12.6 8.9 13.1 9 13.6 C10.4 12 12.7 11.1 14.9 11.5 C14.8 11.8 14.8 12.1 14.7 12.3 C16 12.1 19.1 12.7 20.4 13.6 C21.9 14.3 23.2 15.2 23.8 16.1 C26.4 20.2 25.6 26 24.8 30.6 C25.9 29 26.7 27.2 27.2 25.3 C27.7 26.4 28.2 27.4 28.9 27.8 C28.2 25.8 28 25.6 28.2 23 C28.5 23.6 28.8 24 29.1 24.4 C29.2 26.9 30.6 29.4 32.9 30.6 C32.4 28.5 32.3 26.3 32.4 24.2 C32.4 24.2 32.4 24.1 32.4 24 z M30.9 18.3 C30.9 18.3 30.9 18.2 30.9 18.3 C30.9 18.2 30.9 18.3 30.9 18.3 z" id="f3" fill="#FFF" /></g></g></g></g></g><g transform="translate(235.8952, 266.9009)" id="g3"><ellipse cx="32.5" cy="17.5" rx="37.3" ry="13.2" fill-opacity="0.15" id="h3" /><use xlink:href="#i3" x="0.08" y="0" /></g></g><defs><g transform="translate(17.09519, 0.800995) translate(-135.2952, -293.601)" id="i3" fill="#000"><path d="M118.2 302.7 C118.4 307.4 132.5 311.2 149.8 311.2 C167.1 311.2 181.2 307.4 181.4 302.7 C181.4 307.5 181.4 310.1 181.4 310.5 C181.4 315.3 167.3 319.1 149.8 319.1 C132.3 319.1 118.2 315.2 118.2 310.5 L118.2 302.7 L118.2 302.7 z" fill-opacity="0.4528" id="j3" fill="#593001" /><path d="M118.7 301.7 C118.9 306.4 133 310.2 150.3 310.2 C167.6 310.2 181.7 306.4 181.9 301.7 C181.9 306.5 181.9 309.1 181.9 309.5 C181.9 314.3 167.8 318.1 150.3 318.1 C132.8 318.1 118.7 314.2 118.7 309.5 L118.7 301.7 L118.7 301.7 z" id="k3" fill="#DA8113" /><linearGradient x1="46.0545" y1="-118.6926" x2="45.4656" y2="-118.6926" gradientUnits="userSpaceOnUse" gradientTransform="matrix(117.135, 0, 0, 28.4634, -5208.417, 3687.795)" id="l3"><stop offset="0%" stop-color="#D9952A" stop-opacity="1" /><stop offset="6.438854%" stop-color="#CA7519" stop-opacity="1" /><stop offset="30.54%" stop-color="#E3AD3A" stop-opacity="1" /><stop offset="51.05%" stop-color="#FFEC91" stop-opacity="1" /><stop offset="68.8%" stop-color="#E9BD44" stop-opacity="1" /><stop offset="86.24%" stop-color="#FFED6C" stop-opacity="1" /><stop offset="93.87%" stop-color="#F2D353" stop-opacity="1" /><stop offset="100%" stop-color="#F2B947" stop-opacity="1" /></linearGradient><path d="M118.2 301.6 C118.4 306.1 132.7 309.7 150.3 309.7 C167.9 309.7 182.2 306.1 182.4 301.6 C182.4 306.2 182.4 308.7 182.4 309 C182.4 313.5 168 317.2 150.3 317.2 C132.6 317.2 118.2 313.5 118.2 309 L118.2 301.6 L118.2 301.6 z" id="m3" style="fill:url(#l3)" /><linearGradient x1="45.4914" y1="-117.9547" x2="45.9407" y2="-117.5895" gradientUnits="userSpaceOnUse" gradientTransform="matrix(115.425, 0, 0, 29.925, -5125.077, 3826.124)" id="n3"><stop offset="0%" stop-color="#F4E072" stop-opacity="1" /><stop offset="100%" stop-color="#DB9427" stop-opacity="1" /></linearGradient><ellipse cx="150.3" cy="301.5" rx="31.6" ry="8.2" id="o3" style="fill:url(#n3)" /><linearGradient x1="45.4656" y1="-126.0065" x2="46.0545" y2="-126.0065" gradientUnits="userSpaceOnUse" gradientTransform="matrix(117.135, 0, 0, 18.6219, -5208.417, 2651.479)" id="p3"><stop offset="0%" stop-color="#D9952A" stop-opacity="1" /><stop offset="6.438854%" stop-color="#CA7519" stop-opacity="1" /><stop offset="30.54%" stop-color="#E3AD3A" stop-opacity="1" /><stop offset="51.05%" stop-color="#FFEC91" stop-opacity="1" /><stop offset="68.8%" stop-color="#E9BD44" stop-opacity="1" /><stop offset="86.24%" stop-color="#FFED6C" stop-opacity="1" /><stop offset="93.87%" stop-color="#F2D353" stop-opacity="1" /><stop offset="100%" stop-color="#F2B947" stop-opacity="1" /></linearGradient><path d="M119.2 299.9 C119 300.2 118.9 300.6 118.9 301 C118.9 305.5 132.9 309.2 150.3 309.2 C167.7 309.2 181.7 305.5 181.7 301 C181.7 300.6 181.6 300.3 181.4 299.9 C182 300.5 182.4 301.2 182.4 301.9 C182.4 306.4 168 310.1 150.3 310.1 C132.6 310.1 118.2 306.4 118.2 301.9 C118.2 301.3 118.6 300.6 119.2 299.9 z" id="q3" style="fill:url(#p3)" /><linearGradient x1="45.196" y1="-121.5895" x2="45.3746" y2="-120.6758" gradientUnits="userSpaceOnUse" gradientTransform="matrix(101.745, 0, 0, 23.94, -4458.332, 3199.41)" id="r3"><stop offset="0%" stop-color="#F8DD61" stop-opacity="1" /><stop offset="100%" stop-color="#EAA330" stop-opacity="1" /></linearGradient><ellipse cx="150.3" cy="300.8" rx="27.8" ry="6.6" id="s3" style="fill:url(#r3)" /><linearGradient x1="45.5694" y1="-134.267" x2="45.0221" y2="-134.267" gradientUnits="userSpaceOnUse" gradientTransform="matrix(101.745, 0, 0, 13.2525, -4458.332, 2077.223)" id="t3"><stop offset="0%" stop-color="#F4CA2F" stop-opacity="1" /><stop offset="51.38%" stop-color="#BF7737" stop-opacity="1" /><stop offset="100%" stop-color="#E4A929" stop-opacity="1" /></linearGradient><path d="M122.6 301.5 C122.5 301.3 122.4 301 122.4 300.8 C122.4 297.2 134.9 294.2 150.2 294.2 C165.5 294.2 178 297.1 178 300.8 C178 301 177.9 301.3 177.8 301.5 C176.3 298.2 164.5 295.6 150.1 295.6 C135.7 295.6 124.1 298.2 122.6 301.5 z" id="u3" style="fill:url(#t3)" /></g></defs><desc>K42L4J8LKK9,BsGrsLoj3+QLbb3YGGePhLkWuwEKYu6fz+IPraWH0R9/NqBZ2hkLLmubXzVSm9WXpa/daWi/oGJOSr9kNMWpHgkKV8uDN3KDR8ivMTIj6nqh6yqIl0oQt3t2k2kHkfA2cIh8ZHncsGFNblExMQYDoKacApBvlfDad7kljYqcb9k=</desc></svg>