<?xml version="1.0" encoding="utf-8"?><!DOCTYPE svg PUBLIC "-//W3C//DTD SVG 1.1//EN" "http://www.w3.org/Graphics/SVG/1.1/DTD/svg11.dtd"><svg x="0" y="0" width="340px" height="340px" viewBox="0, 0, 340, 340" preserveAspectRatio="xMidYMid" font-size="0" id="a" enable-background="new 0 0 340 340" xmlns="http://www.w3.org/2000/svg" xmlns:xlink="http://www.w3.org/1999/xlink" xmlns:xml="http://www.w3.org/XML/1998/namespace" version="1.1"><g id="b" fill="#000"><g id="c"><g transform="translate(0, 0) translate(0, 224)" id="d"><ellipse cx="168.6" cy="53.1" rx="57.8" ry="12.8" fill-opacity="0.25" id="e" /></g><g id="f"><g transform="translate(84.60001, 85.89999) translate(32.5, 177.5) scale(-1, 1) translate(-32.5, -177.5) translate(0, 152)" id="g"><path d="M29.6 27.4 C51.4 29 52.4 37.4 52 41.3 C51.9 42.7 50.9 42.4 48.4 43.4 C46.1 44.4 45.7 45.2 43.7 45.6 C41.5 46 39.1 46 38.3 47.2 C37.5 48.4 34.2 51 37 50.7 C37.5 50.6 40.4 50.7 41.6 50.7 C42.8 50.7 45.7 48.5 46.2 48.5 C46.4 48.5 44 50.8 44.2 50.7 C45.2 50.5 48.9 47.9 49.9 47.7 C51.5 47.3 51 49.2 52.6 48.7 C53.9 48.2 57.3 45.3 58.4 44.7 C59.3 44.2 58.8 46.1 59.5 45.6 C60.2 45 62.1 41.1 62.5 40.4 C62.9 39.7 63.2 39.8 63.4 39.1 C63.6 38.3 63 35.1 63 34.3 C63 33.1 64.7 34.8 64.2 33.6 C63.8 32.7 62.7 29.4 62.1 28.5 C61.3 27.4 60.2 26 59 25 C58.3 24.4 60.7 25.7 62.1 26.6 C63.5 27.5 62 24 60.3 22.2 C59.2 21.1 56.3 19.1 55.2 18.9 C53.4 18.5 50.6 17.6 48 17.3 C46.6 17.1 44.6 17.4 44.4 17.3 C43.1 16.9 50 17 51.1 16.6 C51.7 16.4 50.5 15.9 49.2 15.4 C48.6 15.2 47 14.9 46.3 14.8 C45 14.7 42.4 14.3 39.8 14.4 C37.9 14.4 35.6 14.9 35.4 14.8 C33.8 14.4 40.2 13.9 38.5 13.5 C37.2 13.2 29.5 13.3 28.1 13 C21.3 12 16.4 15.5 10.1 17 C3.4 18.6 -3.8 23.7 3.9 27.4 C7.9 29.4 17.9 26.5 29.6 27.4 z" id="h" fill="#232628" /><path d="M26.9 29.4 C29.4 29.6 33.4 29.1 35.3 29.4 C35.7 29.5 38.9 30.1 40 30.7 C41.6 31.6 43.1 33.8 44.1 33.8 C45 33.8 43.5 30.7 44.1 31 C45.6 31.7 45.5 34 46.3 34.2 C47.1 34.5 47 32.8 48 34.2 C48.9 35.4 49.1 37.7 49.6 38 C50.5 38.5 50.5 35.7 51 36.3 C51.6 36.9 50.8 38.4 51 38.9 C51.6 40.2 51.9 39.6 51.7 40.9 C51.6 41.7 51.1 42.8 50.1 43.4 C50.2 43.4 50.6 43.1 50.6 43.1 C54.8 40 56 37.6 55 35.2 C54.4 33.8 56.2 33.7 55 32.2 C54.3 31.3 51.2 28.9 49.6 28.1 C48.4 27.5 51.3 27.4 49.6 26.7 C48.6 26.3 42.2 25.7 41.1 25.5 C39.5 25.1 42.2 24.7 40.2 24.3 C35.7 23.4 25.8 22.3 19.5 21 C15.1 20.8 11.3 21.5 8.1 23.2 C4.9 24.9 4 26.5 5.3 28.1 C5.3 28.4 13.3 28.3 14.8 29.1 C19.6 29.4 21.3 28.9 26.9 29.4 z" id="i" fill="#D8D8D8" /><path d="M5.1 27.8 C4.7 27.7 4.3 27.6 3.9 27.4 C-3.8 23.7 3.4 18.6 10.1 17 C16.4 15.5 21.3 12 28.1 13 C29.5 13.3 37.2 13.2 38.5 13.5 C40.2 13.9 33.8 14.4 35.4 14.8 C35.6 14.9 37.9 14.4 39.8 14.4 C42.4 14.3 45 14.7 46.3 14.8 C47 14.9 48.6 15.2 49.2 15.4 C50.5 15.9 51.7 16.4 51.1 16.6 C50 17 43.1 16.9 44.4 17.3 C44.6 17.4 46.6 17.1 48 17.3 C50.6 17.6 53.4 18.5 55.2 18.9 C56.3 19.1 59.2 21.1 60.3 22.2 C62 24 63.5 27.5 62.1 26.6 C60.7 25.7 58.3 24.4 59 25 C60.2 26 61.3 27.4 62.1 28.5 C62.7 29.4 63.8 32.7 64.2 33.6 C64.7 34.8 63 33.1 63 34.3 C63 35.1 63.6 38.3 63.4 39.1 C63.2 39.8 62.9 39.7 62.5 40.4 C62.1 41.1 60.2 45 59.5 45.6 C58.8 46.1 59.3 44.2 58.4 44.7 C57.3 45.3 53.9 48.2 52.6 48.7 C51 49.2 51.5 47.3 49.9 47.7 C48.9 47.9 45.2 50.5 44.2 50.7 C44 50.8 46.4 48.5 46.2 48.5 C45.7 48.5 42.8 50.7 41.6 50.7 C40.4 50.7 37.5 50.6 37 50.7 C34.2 51 37.5 48.4 38.3 47.2 C39.1 46 41.5 46 43.7 45.6 C45.7 45.2 46.1 44.4 48.4 43.4 C49.6 42.9 50.5 42.7 51 42.5 C51.4 42 51.6 41.4 51.7 40.9 C51.9 39.6 51.6 40.2 51 38.9 C50.8 38.4 51.6 36.9 51 36.3 C50.5 35.7 50.5 38.5 49.6 38 C49.1 37.7 48.9 35.4 48 34.2 C47 32.8 47.1 34.5 46.3 34.2 C45.5 34 45.6 31.7 44.1 31 C43.5 30.7 45 33.8 44.1 33.8 C43.1 33.8 41.6 31.6 40 30.7 C38.9 30.1 35.7 29.5 35.3 29.4 C33.4 29.1 29.4 29.6 26.9 29.4 C21.3 28.9 19.6 29.4 14.8 29.1 C13.3 28.3 5.3 28.4 5.3 28.1 C5.2 28 5.2 27.9 5.1 27.8 z M10.2 26.9 C10.5 27.1 10.9 27.2 11.3 27.3 C11.3 27.4 11.4 27.4 11.5 27.5 C11.5 27.8 18.5 27.7 19.9 28.4 C24.1 28.7 25.6 28.2 30.5 28.7 C32.8 28.9 34.5 27.6 36.2 27.9 C36.6 28 39.3 29 40.2 29.6 C41.6 30.4 42.6 32.4 43.5 32.4 C44.3 32.4 42.6 29.3 43.2 29.6 C44.5 30.2 45.9 32.5 46.6 32.7 C47.3 32.9 48.3 31.7 49.2 32.9 C50 34 49.4 35.6 49.8 35.9 C50.6 36.3 50.9 33.9 51.3 34.4 C51.9 34.9 51.7 36.6 51.8 37.1 C52.4 38.2 52.6 37.7 52.5 38.8 C52.4 39.3 52.6 40.9 52.2 41.4 C51.7 41.6 51.2 43.1 50.1 43.5 C48.1 44.4 48.9 44.5 47.2 44.8 C44.9 46.1 40 46.7 39.3 47.8 C38.6 48.8 36.1 50.2 38.6 50 C39 49.9 42.1 48.4 43.2 48.4 C44.2 48.4 46.7 46.1 47.2 46.1 C47.3 46.1 47.9 47.6 48 47.5 C48.9 47.3 50 45 50.9 44.8 C52.3 44.5 51.8 46.2 53.3 45.7 C54.4 45.3 57.4 42.7 58.4 42.2 C59.2 41.8 59.7 42.9 60.3 42.5 C60.9 42 61.6 39 62 38.4 C62.4 37.8 62.2 37.7 62.4 37.1 C62.6 36.4 61.6 34.1 61.6 33.4 C61.6 32.3 63.2 34 62.8 32.9 C62.4 32.1 61.4 28.9 60.8 28.1 C60.1 27.2 58.8 25.3 57.7 24.4 C57.1 23.9 58.9 24 60.1 24.8 C61.3 25.6 60.4 23.8 58.9 22.2 C57.9 21.2 54.8 19.7 53.8 19.6 C52.2 19.2 46.2 18.4 43.9 18.1 C42.6 17.9 39.6 17.8 39.5 17.7 C38.3 17.4 41 17 41.9 16.6 C42.5 16.4 50 16.4 48.9 16 C48.3 15.8 46.4 15.5 45.8 15.4 C44.7 15.3 44.2 15.3 41.9 15.4 C40.3 15.4 33.1 15.1 32.9 15 C31.5 14.7 37.7 14.2 36.2 13.8 C35.1 13.6 30 14.1 28.8 13.8 C22.8 12.9 21.3 16.4 15.7 17.7 C9.8 19.1 3.4 23.6 10.2 26.9 z" opacity="0.15" id="j" /></g><g transform="translate(125.9067, 274.8) scale(0.9305556) translate(-122.4, -274.8) translate(98.70001, 60.09996) translate(15, 148)" id="k"><g id="l"><path d="M7.5 67.2 C7.3 61.1 10.4 57.2 16.8 55.3 C9.2 42.9 0.5 25.2 0.1 19.1 C-0.5 9 3.8 3.3 7.7 0.8 C10.3 -0.9 22 -1.6 27.5 0.1 C33.1 1.6 35.6 7.3 37.4 8.7 C42.7 12.6 47.5 20.2 49.1 25.6 C52.1 35.9 50.3 51.1 49.5 64.3 C44.4 65.8 27.6 69.8 23.9 70.1 C20.7 70.4 16.2 70.4 10.6 70.2 C8.8 70.1 7.5 68.8 7.5 67.2 z" id="m" fill="#32363A" /><path d="M10.4 44.1 C5 33.9 0.4 23.5 0.1 19.1 C-0.5 9 3.8 3.3 7.7 0.8 C8 0.5 8.5 0.3 8.9 0.1 C8.6 1.4 8.2 2.8 7.7 4.4 C4.1 16.1 12.3 23.6 12.7 28.2 C13.3 35.2 12.2 41.2 10.4 44.1 z" id="n" fill="#D8D8D8" /><path d="M7.5 67.2 C7.3 61.1 10.4 57.2 16.8 55.3 C9.2 42.9 0.5 25.2 0.1 19.1 C-0.5 9 3.8 3.3 7.7 0.8 C10.3 -0.9 22 -1.6 27.5 0.1 C33.1 1.6 35.6 7.3 37.4 8.7 C42.7 12.6 47.5 20.2 49.1 25.6 C52.1 35.9 50.3 51.1 49.5 64.3 C44.4 65.8 27.6 69.8 23.9 70.1 C20.7 70.4 16.2 70.4 10.6 70.2 C8.8 70.1 7.5 68.8 7.5 67.2 z M9.3 65.4 C9.3 66.9 9.8 68 11.4 68 C16.9 68.2 21.2 68.2 24.2 67.9 C27.7 67.6 42.8 64 47.7 62.6 C48.5 50 51.2 35.2 48.4 25.3 C46.9 20 42.3 12.8 37.2 9.1 C35.5 7.8 33.1 2.3 27.7 0.9 C22.3 -0.7 11.2 -0.1 8.7 1.6 C5 4.1 0.8 9.5 1.4 19.2 C1.8 25 11.4 44.2 18.6 56.2 C12.7 57.9 9.1 59.6 9.3 65.4 z" opacity="0.15" id="o" /></g></g><g transform="translate(210.3933, 274.8) scale(0.9305556) translate(-213.9, -274.8) translate(93.60001, 60.09996) translate(105.5, 184.5) scale(-1, 1) translate(-105.5, -184.5) translate(80, 148)" id="p"><g id="q"><path d="M9.7 67.2 C9.5 61.1 12.6 57.2 19 55.3 C11.4 42.9 2.7 25.2 2.3 19.1 C1.7 9 6 3.3 9.9 0.8 C12.4 -0.9 22 -1.6 27.6 0.1 C33.8 1.8 39.5 5.7 43.8 9.6 C46.8 12.2 48.4 18 50 23.4 C53 33.7 50.8 52.1 50 65.2 C44.9 66.7 29.7 69.7 26 70 C22.8 70.3 18.3 70.3 12.7 70.1 C11 70.1 9.7 68.8 9.7 67.2 z" id="r" fill="#32363A" /><path d="M12.5 44.1 C7.1 33.9 2.5 23.5 2.2 19.1 C1.7 9 6 3.3 9.9 0.8 C10.2 0.5 10.7 0.3 11.1 0.1 C10.8 1.4 10.4 2.8 9.9 4.4 C6.3 16.1 14.5 23.6 14.9 28.2 C15.4 35.2 14.3 41.2 12.5 44.1 z" id="s" fill="#D8D8D8" /><path d="M9.7 67.2 C9.5 61.1 12.6 57.2 19 55.3 C11.4 42.9 2.7 25.2 2.3 19.1 C1.7 9 6 3.3 9.9 0.8 C12.4 -0.9 22 -1.6 27.6 0.1 C33.8 1.8 39.5 5.7 43.8 9.6 C46.8 12.2 48.4 18 50 23.4 C53 33.7 50.8 52.1 50 65.2 C44.9 66.7 29.7 69.7 26 70 C22.8 70.3 18.3 70.3 12.7 70.1 C11 70.1 9.7 68.8 9.7 67.2 z M12.4 64.8 C12.4 66.3 11.6 67.6 13.2 67.6 C18.7 67.8 23 67.8 26 67.5 C29.5 67.2 42.9 64.4 47.8 63 C48.6 50.3 51.8 32.6 49 22.8 C47.5 17.5 45.9 12 43.1 9.6 C38.9 5.9 33.4 2.2 27.6 0.5 C22.2 -1.1 13.1 -0.4 10.6 1.2 C6.9 3.6 2.7 9.2 3.3 18.7 C3.7 24.5 14.2 43.6 21.4 55.6 C15.3 57.3 12.2 59 12.4 64.8 z" opacity="0.15" id="t" /></g></g><g transform="translate(91.30001, 75.89998) translate(31, 73)" id="u"><path d="M22.9 13.8 C30.8 10 27.6 0.4 45.8 0.4 C64 0.4 60.8 10.8 68.8 13.3 C77.6 16.1 79.3 26.3 81.2 30.8 C97 63.7 72.1 126.8 68.8 129.6 C65.9 131.5 60.5 132 58.5 132 C55.3 132 52.8 131.1 51.6 131 C48.9 130.8 47.7 129.6 46 129.6 C44.1 129.6 41.9 130.8 38.4 131 C36.8 131.1 33.1 132 28.8 132 C26.9 132 23.5 130.5 20.9 127.6 C18.7 124.7 0.2 64.8 8.3 34.4 C9.4 30.9 13 18.6 22.9 13.8 z" id="v" fill="#D8D8D8" /><path d="M22.9 13.8 C30.8 10 27.6 0.4 45.8 0.4 C64 0.4 60.8 10.8 68.8 13.3 C77.6 16.1 79.3 26.3 81.2 30.8 C97 63.7 72.1 126.8 68.8 129.6 C65.9 131.5 60.5 132 58.5 132 C55.3 132 52.8 131.1 51.6 131 C48.9 130.8 47.7 129.6 46 129.6 C44.1 129.6 41.9 130.8 38.4 131 C36.8 131.1 33.1 132 28.8 132 C26.9 132 23.5 130.5 20.9 127.6 C18.7 124.7 0.2 64.8 8.3 34.4 C9.4 30.9 13 18.6 22.9 13.8 z M23.7 14.6 C14.1 19.2 10.7 31.1 9.6 34.5 C1.8 63.8 19.6 121.6 21.8 124.4 C24.3 127.2 27.6 128.6 29.4 128.6 C33.5 128.6 37.1 127.7 38.7 127.6 C42.1 127.4 44.2 126.2 46 126.2 C47.6 126.2 48.8 127.4 51.4 127.6 C52.6 127.7 55 128.6 58.1 128.6 C60 128.6 65.2 128.1 68 126.3 C71.2 123.6 95.2 62.7 80 31 C78.2 26.7 76.5 16.8 68 14.1 C60.3 11.7 63.4 1.7 45.8 1.7 C28.2 1.7 31.3 11 23.7 14.6 z" opacity="0.15" id="w" /></g><g transform="translate(124.9, 185.55) scale(1, 0.9246705) translate(-124.9, -179.1) translate(109.6, 96.29998) translate(59, 136) scale(-1, 1) translate(-59, -136) translate(16, 84)" id="x"><path d="M10.2 21.5 C10.3 21.2 21.2 -0.7 27.1 1.2 C31.4 2.6 35.1 7.2 36.8 10.5 C38.5 13.8 43 34.1 39.9 40.8 C37.7 45.5 33.3 46.5 28.3 45.3 C28 49 27.7 51.8 27.2 53.1 C26.2 62.6 31 81.3 32.2 92 C31.5 105 22.7 103.5 16.9 102.2 C13.4 101.4 10.8 99 12.4 94.9 C12.9 93.6 13.6 92.2 14.2 90.8 C14.7 84.8 13.6 79.1 12.3 72.9 C11.1 67.4 10.2 21.5 10.2 21.5 z" id="y" fill="#474B4F" /><path d="M75.8 21.5 C75.7 21.2 64.8 -0.7 58.9 1.2 C54.6 2.6 50.9 7.2 49.2 10.5 C47.5 13.8 43 34.1 46.1 40.8 C48.3 45.5 52.7 46.5 57.7 45.3 C58 49 58.3 51.8 58.8 53.1 C59.8 62.6 55 81.3 53.8 92 C54.5 105 63.3 103.5 69.1 102.2 C72.6 101.4 75.2 99 73.6 94.9 C73.1 93.6 72.4 92.2 71.8 90.8 C71.3 84.8 72.4 79.1 73.7 72.9 C75.1 67.4 75.8 21.5 75.8 21.5 z" id="z" fill="#474B4F" /><path d="M9.6 11.2 C11.4 8 16.2 2.9 17.2 1.8 C20.5 -0.8 30.2 -1.2 32 8.4 C32.8 11.9 30.3 16.7 28.9 18.7 C28.4 19.4 28.1 19.9 28 20.3 C27.9 21 28.5 22.6 29.1 24.8 C29.9 27.7 30.6 31.5 29.2 34.9 C28.9 35.5 28.6 36.1 28.2 36.7 C25.6 40.3 21.2 37.3 17.7 39.2 C17.7 39.4 17.6 39.6 17.6 39.7 C15.8 49.4 23.5 59.2 21.3 70.8 C20.7 74.1 16.9 76.3 12.6 74.8 C11.3 68.6 9.5 62.1 8.7 54.5 C3.3 48.8 -0.6 44.9 1.1 28.6 C2.1 19.3 5.8 14.9 9.6 11.2 z" id="a1" fill="#FEFEFE" /><path d="M26.9 1.1 C27 1.2 27 1.2 27.1 1.2 C31.4 2.6 35.1 7.2 36.8 10.5 C38.5 13.8 43 34.1 39.9 40.8 C37.7 45.5 33.3 46.5 28.3 45.3 C28 49 27.7 51.8 27.2 53.1 C26.2 62.6 31 81.3 32.2 92 C31.5 105 22.7 103.5 16.9 102.2 C13.4 101.4 10.8 99 12.4 94.9 C12.9 93.6 13.6 92.2 14.2 90.8 C14.6 85.4 13.8 80.3 12.7 74.8 C12.7 74.8 12.6 74.8 12.6 74.8 C11.3 68.6 9.5 62.1 8.7 54.5 C3.3 48.8 -0.6 44.9 1.1 28.6 C2.1 19.3 5.8 14.9 9.6 11.2 C11.4 8 16.2 2.9 17.2 1.8 C19.2 0.3 23.4 -0.5 26.9 1.1 z M26.7 2.1 C26.7 2.1 26.6 2.1 26.5 2 C23.2 0.5 19.3 1.2 17.4 2.7 C16.5 3.7 11.9 8.6 10.2 11.6 C6.7 15.1 3.2 19.3 2.2 28.2 C0.6 43.7 5.5 48.5 10.6 54 C11.4 61.2 11.8 66.2 13.2 72.2 C14.2 77.4 14.9 82 15.5 86 C15.5 88.3 15.8 90.3 15.3 91.5 C13.8 95.4 13.8 97.4 17.1 98.2 C22.6 99.4 29.7 101.8 30.4 89.4 C29.3 79.2 24.9 61.1 25.8 52 C26.3 50.8 27 47.1 27.3 43.6 C32 44.7 36.7 44.3 38.8 39.8 C41.7 33.4 37.5 14.1 35.9 10.9 C34.3 7.8 30.8 3.4 26.7 2.1 z" opacity="0.15" id="b1" /><path d="M76.6 11.2 C74.8 8 69.9 2.9 68.9 1.8 C65.6 -0.8 55.9 -1.2 54.1 8.4 C53.3 11.9 55.8 16.7 57.2 18.7 C57.7 19.4 58 19.9 58.1 20.3 C58.2 21 57.6 22.6 57 24.8 C56.2 27.7 55.5 31.5 56.9 34.9 C57.2 35.5 57.5 36.1 57.9 36.7 C60.5 40.3 64.9 37.3 68.4 39.2 C68.4 39.4 68.5 39.6 68.5 39.7 C70.3 49.4 62.6 59.2 64.8 70.8 C65.4 74.1 69.2 76.3 73.5 74.8 C74.8 68.6 76.6 62.1 77.4 54.5 C82.8 48.8 86.7 44.9 85 28.6 C83.9 19.3 80.2 14.9 76.6 11.2 z" id="c1" fill="#FEFEFE" /><path d="M73.3 74.9 C72.2 80.3 71.4 85.4 71.8 90.8 C72.4 92.2 73.1 93.6 73.6 94.9 C75.2 99 72.6 101.4 69.1 102.2 C63.3 103.5 54.5 105 53.8 92 C55 81.3 59.8 62.6 58.8 53.1 C58.3 51.8 58 49 57.7 45.3 C52.7 46.5 48.3 45.5 46.1 40.8 C43 34.1 47.5 13.8 49.2 10.5 C50.9 7.2 54.6 2.6 58.9 1.2 C59 1.2 59.2 1.1 59.3 1.1 C62.8 -0.5 66.9 0.3 68.9 1.8 C69.9 2.9 74.8 8 76.6 11.2 C80.2 14.9 83.9 19.3 85 28.6 C86.7 44.9 82.8 48.8 77.4 54.5 C76.6 62.1 74.8 68.6 73.5 74.8 C73.4 74.8 73.4 74.8 73.3 74.9 z M72.6 73.1 C74.4 64.5 75.5 57.8 76 53 C81.2 47.6 85 42.8 83.4 27.3 C82.3 18.5 79.5 14.6 76 11.1 C74.3 8 68.8 3.6 67.8 2.6 C66 1.1 62.9 1 59.6 2.6 C59.4 2.6 59.3 2.6 59.2 2.7 C55.1 4 51.6 8.4 50 11.5 C48.4 14.6 44.9 33.2 47.8 39.5 C49.9 44 54 44.4 58.7 43.2 C59 46.7 59.8 51.8 60.2 53 C61.2 62.1 57 78.6 55.8 88.8 C56.5 101.2 63.4 100 68.9 98.7 C72.2 98 72.8 96.4 71.3 92.5 C70.8 91.3 70.5 90.1 70.5 88.1 C70.1 83 71.5 78.3 72.6 73.1 z" opacity="0.15" id="d1" /></g></g><g transform="translate(168.3, 188) scale(0.879531) translate(-168.3, -188)" id="e1"><g transform="translate(168.3, 188) scale(0.86, 1) translate(-168.3, -188) translate(96.7, 70.89997) translate(30, 28)" id="f1"><g id="g1"><path d="M25.3 87.5 C28.4 87.8 32.5 88 35 86.7 C37.7 85.3 39.2 83.9 41.4 81.5 C43.9 85 46 86.1 49.2 87.5 C52.2 88.9 56.2 87.9 58.7 87.2 C61.2 86.4 66.9 83.2 67.5 79.5 C68.2 75.3 68.7 70.2 66.8 63.2 C65.2 57.1 57.5 53.8 53.8 49.9 C51.1 47 47.5 36.3 47.2 34.6 C46.4 31.2 46.5 27.6 47.7 20.5 C48.9 12.9 53.8 10.5 53.8 8 C53.8 5.6 48.7 10 42.5 10.1 C36.4 10.2 29.7 4.7 29.7 8 C29.7 11.4 34.7 13.8 35.7 19.5 C36.7 25.2 36.7 28.1 35.7 34 C35.1 37.5 31.6 47.8 28.3 50.4 C22.6 54.9 15.7 59.4 15.1 65.9 C14.5 72.6 13.8 76.4 15.7 80.1 C18 84.9 22.2 87.1 25.3 87.5 z" id="h1" fill="#594F46" /><path d="M41.4 1.3 C51.8 1.3 50.7 0.2 54.1 -0.5 C57.5 -1.2 67.3 8.9 71.2 13.2 C75.1 17.5 77.7 25 79.9 29.5 C82.1 34 80.7 43 82.4 52.4 C83.4 58.1 85.2 62.5 83.8 68.2 C82.9 72 80.7 77.3 76 81.2 C60.7 93.6 47.9 95.2 41.4 95.5 C35 95.8 18.6 90.1 8.1 81.4 C3.1 77.2 0.5 72.5 -0.2 68.4 C-1 64 0.4 60.1 1.4 52.6 C3.3 38.1 3.2 39.6 3.1 31.6 C2.7 23 22.7 0.8 26.8 -0.6 C30.9 -2 31.2 1.3 41.4 1.3 z" id="i1" fill="#474B4F" /><path d="M47.4 5.1 C50.5 4.7 53.8 1.9 54.4 1.9 C55.9 1.9 68.9 12.7 71.3 16.5 C73.7 20.5 78.7 27.9 79.1 28.3 C79.1 28.3 79.2 28.3 79.3 28.3 C77.2 23.6 74.7 17.1 71.1 13.2 C67.3 8.8 57.6 -1.3 54.2 -0.6 C50.8 0.1 51.8 1.2 41.5 1.2 C31.2 1.2 30.9 -1.9 26.8 -0.6 C23.6 0.4 10.8 14.1 5.5 24.1 C7.7 21.8 12.7 15.9 17.5 11 C22.1 6.4 26.7 2.4 27.5 2.1 C29.3 1.4 31.5 4.9 37 5.2 C38.1 8 41.1 14.7 41 15.6 C40.8 17.7 41.6 23.6 41 25.6 C39 32.5 34.7 34.5 31.4 37 C26 35.6 22 32.8 18.6 34.9 C15.2 36.9 13.1 40.3 15.3 44.3 C16.5 48.1 20.5 51.3 20.4 56.2 C19.5 58.2 14.5 61.8 10.1 63.6 C11.4 65.7 12.5 67.1 13.4 67.9 C15.4 69.6 19.6 76 20.4 78.7 C21.5 82.6 22.7 85.8 26.6 88.9 C29.7 89.7 34.9 89.8 42.1 89.1 C49.4 89.8 54.6 89.7 57.6 88.9 C64.3 85.2 62.4 84.8 63.5 80.9 C64.3 78.2 68.8 69.6 70.8 67.9 C71.7 67.1 72.8 65.7 74.1 63.6 C69.7 61.8 65.5 59 64.6 57 C63.7 55 64.3 54.6 65.6 50.8 C70.3 45.2 71.4 37.2 65.6 35.1 C59.8 33 58.2 35.8 52.8 37.2 C49.5 34.7 45.1 32.7 43.2 25.8 C42.6 23.8 43.4 17.9 43.2 15.8 C43.1 14.9 46.1 8 47.2 5.2 C47.2 5.2 47.3 5.1 47.4 5.1 z" id="j1" fill="#32363A" /><path d="M41.4 1.3 C51.8 1.3 50.7 0.2 54.1 -0.5 C57.5 -1.2 67.3 8.9 71.2 13.2 C75.1 17.5 77.7 25 79.9 29.5 C82.1 34 80.7 43 82.4 52.4 C83.4 58.1 85.2 62.5 83.8 68.2 C82.9 72 80.7 77.3 76 81.2 C60.7 93.6 47.9 95.2 41.4 95.5 C35 95.8 18.6 90.1 8.1 81.4 C3.1 77.2 0.5 72.5 -0.2 68.4 C-1 64 0.4 60.1 1.4 52.6 C3.3 38.1 3.2 39.6 3.1 31.6 C2.7 23 22.7 0.8 26.8 -0.6 C30.9 -2 31.2 1.3 41.4 1.3 z M41.4 2.1 C31.5 2.1 31.2 -1.1 27.4 0.3 C23.6 1.7 4.3 23 4.7 31.1 C4.8 38.9 4.9 37.3 3.1 51.3 C2.1 58.6 0.8 62.3 1.6 66.5 C2.3 70.4 4.8 75 9.6 79 C19.6 87.4 35.4 92.8 41.5 92.5 C47.7 92.2 59.9 90.7 74.7 79 C79.2 75.3 81.3 70.2 82.2 66.5 C83.5 60.9 81.8 56.7 80.9 51.3 C79.3 42.3 80.6 33.7 78.5 29.3 C76.4 24.9 73.8 17.9 70 13.7 C66.2 9.5 56.9 -0.3 53.6 0.4 C50.3 1.1 51.4 2.1 41.4 2.1 z" opacity="0.15" id="k1" /></g></g><g transform="translate(168.3, 188) scale(0.86, 1) translate(-168.3, -188) translate(144.3, 116) rotate(-10, 0, 0) scale(0.9) translate(-144.3, -112) translate(97.2, 66.89997) translate(16, 0)" id="l1"><g transform="translate(31.56164, 28.5) scale(-1, 1) translate(-31.56164, -28.5) translate(9.061636, 0)" id="m1"><path d="M0.2 35 C-0.4 31.9 9.6 27.1 12.5 24 C13.3 23.1 18 19.1 15.2 19.8 C15.6 17.3 18.1 17.5 19.3 16.2 C19.9 15.5 17.3 16.4 18 15.7 C18.5 15.1 22.7 11.7 23.1 11.1 C23.8 10.2 21.7 10.9 22.2 10.2 C26 5.5 25.5 7.2 27.3 5.2 C28.7 3.7 31 1.7 32.1 0.9 C34.5 -0.8 37.7 1.8 38.7 7.9 C38.9 9.5 40.7 13.5 41 15.1 C41.3 16.5 39.9 14.5 40 15.6 C40.1 16.9 42.6 23 41.3 21.8 C40 20.6 41.4 25.2 41.3 26.9 C41.1 31 40 50.1 42.8 41.1 C42.8 43.7 42.4 46.3 41 48.2 C41.6 46.8 43.2 46.6 44.2 45.5 C44.2 49.8 41.6 51.6 40.9 53.6 C40.7 54.2 40.4 54.8 39.7 55.4 C38.5 56.6 34.8 56.5 34.2 55.5 C33.3 53.9 31.7 51.1 29.3 49.2 C26.9 47.3 26.7 43.7 21.3 41.4 C18.8 40.3 15.4 38.3 11.7 37.1 C7.7 35.8 0.5 36.6 0.2 35 z" id="n1" fill="#474B4F" /><path d="M0.2 35 C-0.4 31.9 9.6 27.1 12.5 24 C13.3 23.1 18 19.1 15.2 19.8 C15.6 17.3 18.1 17.5 19.3 16.2 C19.9 15.5 17.3 16.4 18 15.7 C18.5 15.1 22.7 11.7 23.1 11.1 C23.8 10.2 21.7 10.9 22.2 10.2 C26 5.5 25.5 7.2 27.3 5.2 C28.7 3.7 31 1.7 32.1 0.9 C34.5 -0.8 37.7 1.8 38.7 7.9 C38.9 9.5 40.7 13.5 41 15.1 C41.3 16.5 39.9 14.5 40 15.6 C40.1 16.9 42.6 23 41.3 21.8 C40 20.6 41.4 25.2 41.3 26.9 C41.1 31 40 50.1 42.8 41.1 C42.8 43.7 42.4 46.3 41 48.2 C41.6 46.8 43.2 46.6 44.2 45.5 C44.2 49.8 41.6 51.6 40.9 53.6 C40.7 54.2 40.4 54.8 39.7 55.4 C38.5 56.6 34.8 56.5 34.2 55.5 C33.3 53.9 31.7 51.1 29.3 49.2 C26.9 47.3 26.7 43.7 21.3 41.4 C18.8 40.3 15.4 38.3 11.7 37.1 C7.7 35.8 0.5 36.6 0.2 35 z M5 33.3 C5.3 34.7 11.4 34 14.7 35.1 C17.8 36.2 20.7 37.9 22.8 38.9 C27.4 40.9 27.5 44.1 29.6 45.8 C31.6 47.5 33 49.9 33.7 51.3 C34.2 52.2 36.9 53.3 37.9 52.3 C38.5 51.8 42.4 51.2 42.4 47.5 C41.6 48.5 40.1 48.1 39.6 49.3 C40.8 47.6 41.9 46.2 41.9 43.9 C39.5 51.8 40.1 30.7 40.3 27.1 C40.4 25.6 39.2 19.3 40.3 20.4 C41.4 21.5 38.4 15 38.3 13.8 C38.2 12.8 39.9 14.7 39.6 13.5 C39.3 12.1 37.6 10.8 37.4 9.4 C36.6 4 34.5 0.3 32.4 1.8 C31.5 2.5 28.9 4.6 27.7 5.9 C26.2 7.7 26.9 5.4 23.7 9.6 C23.3 10.2 25.5 10.2 24.9 11 C24.6 11.5 20.7 14.9 20.2 15.4 C19.6 16 22 15.3 21.5 15.9 C20.5 17 17.9 17.3 17.6 19.5 C20 18.9 15.8 22.8 15.1 23.6 C13 26.3 4.5 30.5 5 33.3 z" opacity="0.15" id="o1" /><path d="M15.1 33.9 C13 33.2 12.7 33.4 12.9 32.2 C13 31.5 15.6 29.8 17.9 26.4 C18.7 25.2 18.3 27.9 18.9 26.4 C19.7 24.6 20.5 22.2 21 21.3 C21.6 20.3 21.1 23.1 22.1 21.3 C22.3 20.9 23.1 17 23.4 16.4 C24 15.3 24.1 17.7 24.5 16.4 C25 14.5 25.7 13.7 26.8 11.9 C28.2 9.6 29.9 6.6 30.5 6.4 C32.8 5.4 34.5 8.4 35.2 11.9 C35.9 15.4 35.8 17.6 37.1 20 C38.4 22.4 38.7 22.5 38.4 28.5 C38.1 34.5 36.2 35.9 35.2 40.4 C34.2 44.9 34.5 46.3 31.4 44.8 C29.3 43.8 29.5 43.3 32 43.3 C31.2 41.3 29.4 39.8 26.7 39 C22.7 37.8 18.4 36.5 20.6 35.2 C22.1 34.3 22.2 34 21 34.2 C18.5 34.4 16.5 34.3 15.1 33.9 z" id="p1" fill="#D8D8D8" /><path d="M21.8 37.4 C22.8 37.1 23.5 36.3 24.1 35.1 C24.7 33.9 24.9 32.8 24.9 31.9 L23.3 33.7 C23.6 31.1 24.3 29.1 25.4 27.6 C26.5 26.1 27.1 24.9 27.1 23.8 C25.6 24.8 24.7 25.5 24.4 26.1 C24 26.9 24.3 22.6 26.2 20.2 C28.1 17.8 30.8 14.3 31 12.2 C31.6 18.3 30.3 21.1 31 22.5 C31.7 23.8 33.2 30.2 31.7 33.3 C30.7 35.4 29.3 37.4 27.5 39.4 C26.6 39.3 25.6 39.1 24.4 38.8 C23.3 38.4 22.4 38 21.8 37.4 z" id="q1" fill="#474B4F" /><path d="M21.8 37.4 C22.8 37.1 23.5 36.3 24.1 35.1 C24.7 33.9 24.9 32.8 24.9 31.9 L23.3 33.7 C23.6 31.1 24.3 29.1 25.4 27.6 C26.5 26.1 27.1 24.9 27.1 23.8 C25.6 24.8 24.7 25.5 24.4 26.1 C24 26.9 24.3 22.6 26.2 20.2 C28.1 17.8 30.8 14.3 31 12.2 C31.6 18.3 30.3 21.1 31 22.5 C31.7 23.8 33.2 30.2 31.7 33.3 C30.7 35.4 29.3 37.4 27.5 39.4 C26.6 39.3 25.6 39.1 24.4 38.8 C23.3 38.4 22.4 38 21.8 37.4 z" id="r1" fill="#665F57" /></g></g><g transform="translate(168.3, 188) scale(0.86, 1) translate(-168.3, -188) translate(191.6, 116) rotate(10, 0, 0) scale(0.9) translate(-191.6, -112) translate(84.70001, 66.89997) translate(104, 29) scale(-1, 1) translate(-104, -29) translate(81, 0)" id="s1"><g transform="translate(22.81199, 29) scale(-1, 1) translate(-22.81199, -29) translate(0.31199, 0)" id="t1"><path d="M0.2 35 C-0.4 31.9 8.7 26.6 11.7 23.5 C13.1 22 15.5 19.9 17.8 17.7 C18.6 17 16.6 17 17.3 16.3 C18 15.5 19 15.9 20.3 14.9 C21.6 13.9 23.3 11.6 23.6 11 C23.9 10.5 22 11.5 22.3 11 C24.5 7.6 30.1 2.5 32.2 1 C34.6 -0.7 37.8 1.9 38.8 8 C39 9.4 41.5 15.4 42 17.1 C42.4 18.5 40.3 15.5 40.5 17.1 C40.9 19.9 41.9 24 42 25.9 C42.1 27.3 40.6 23.3 40.5 24.9 C40.5 25.9 41.2 29.8 41.1 31.9 C40.8 38.6 40.7 48.2 42.8 41.3 C42.8 43.9 42.4 46.5 41 48.4 C41.6 47 43.2 46.8 44.2 45.7 C44.2 51.4 39.5 52.8 41 55.8 C42.5 58.8 35.5 56.5 35.5 54.6 C35.5 52.7 31.7 51.3 29.3 49.4 C26.9 47.5 26.7 43.9 21.3 41.6 C18.8 40.5 15.4 38.5 11.7 37.3 C7.7 35.8 0.5 36.6 0.2 35 z" id="u1" fill="#474B4F" /><path d="M0.2 35 C-0.4 31.9 8.7 26.6 11.7 23.5 C13.1 22 15.5 19.9 17.8 17.7 C18.6 17 16.6 17 17.3 16.3 C18 15.5 19 15.9 20.3 14.9 C21.6 13.9 23.3 11.6 23.6 11 C23.9 10.5 22 11.5 22.3 11 C24.5 7.6 30.1 2.5 32.2 1 C34.6 -0.7 37.8 1.9 38.8 8 C39 9.4 41.5 15.4 42 17.1 C42.4 18.5 40.3 15.5 40.5 17.1 C40.9 19.9 41.9 24 42 25.9 C42.1 27.3 40.6 23.3 40.5 24.9 C40.5 25.9 41.2 29.8 41.1 31.9 C40.8 38.6 40.7 48.2 42.8 41.3 C42.8 43.9 42.4 46.5 41 48.4 C41.6 47 43.2 46.8 44.2 45.7 C44.2 51.4 39.5 52.8 41 55.8 C42.5 58.8 35.5 56.5 35.5 54.6 C35.5 52.7 31.7 51.3 29.3 49.4 C26.9 47.5 26.7 43.9 21.3 41.6 C18.8 40.5 15.4 38.5 11.7 37.3 C7.7 35.8 0.5 36.6 0.2 35 z M5.1 32.3 C5.4 33.7 11.1 33.4 14.7 34.8 C18 35.9 20.8 38.2 23.1 39.2 C28 41.3 28.1 43.8 30.3 45.6 C32.5 47.3 35 49.5 35 51.2 C35 52.9 41.3 55 40 52.3 C38.6 49.6 43.3 52.8 43.3 47.7 C42.4 48.7 40.6 48 40.1 49.3 C41.4 47.6 42.1 46.2 42.1 43.9 C40.2 50.1 39.8 36.8 40.1 30.8 C40.2 28.9 39.7 24.4 39.7 23.5 C39.8 22.1 41.1 24.7 41 23.5 C40.9 21.8 40.1 19.3 39.7 16.7 C39.5 15.3 41 16.6 40.6 15.3 C40.1 13.8 38.1 10.4 37.9 9.2 C37 3.7 34.9 0.4 32.7 2 C30.8 3.4 26 6.8 24 9.9 C23.7 10.4 25.5 10.2 25.2 10.6 C24.9 11.1 22.3 14.5 21.2 15.4 C20 16.3 19.1 15.9 18.5 16.7 C17.9 17.3 20.4 17.5 19.7 18.1 C17.6 20.1 15.4 23.2 14.1 24.5 C11.5 27.2 4.6 29.5 5.1 32.3 z" opacity="0.15" id="v1" /><path d="M15.1 33.9 C13 33.2 12.7 33.4 12.9 32.2 C13 31.6 15.1 32 17.3 28.6 C18.1 27.4 18.4 25.1 19.1 23.7 C19.6 22.6 20 23.9 20.6 22.7 C21.1 21.7 21.8 18.2 22 17.8 C22.4 17 22.9 18 23.6 16.9 C24.6 15.2 25.5 14 26.7 12 C28 9.8 29.5 6.9 30.4 6.5 C32.7 5.5 34.4 8.5 35.1 12 C35.8 15.5 35.7 17.7 37 20.1 C38.3 22.5 38.6 22.6 38.3 28.6 C38 34.6 36.1 36 35.1 40.5 C34.1 45 34.4 46.4 31.3 44.9 C29.2 43.9 29.4 43.4 31.9 43.4 C31.1 41.4 29.3 39.9 26.6 39.1 C22.6 37.9 18.3 36.6 20.5 35.3 C22 34.4 22.1 34.1 20.9 34.3 C18.5 34.4 16.5 34.3 15.1 33.9 z" id="w1" fill="#D8D8D8" /><path d="M21.8 37.4 C22.8 37.1 23.5 36.3 24.1 35.1 C24.7 33.9 24.9 32.8 24.9 31.9 L23.3 33.7 C23.6 31.1 24.3 29.1 25.4 27.6 C26.5 26.1 27.1 24.9 27.1 23.8 C25.6 24.8 24.7 25.5 24.4 26.1 C24 26.9 24.3 22.6 26.2 20.2 C28.1 17.8 30.8 14.3 31 12.2 C31.6 18.3 30.3 21.1 31 22.5 C31.7 23.8 33.2 30.2 31.7 33.3 C30.7 35.4 29.3 37.4 27.5 39.4 C26.6 39.3 25.6 39.1 24.4 38.8 C23.3 38.4 22.4 38 21.8 37.4 z" id="x1" fill="#474B4F" /><path d="M21.8 37.4 C22.8 37.1 23.5 36.3 24.1 35.1 C24.7 33.9 24.9 32.8 24.9 31.9 L23.3 33.7 C23.6 31.1 24.3 29.1 25.4 27.6 C26.5 26.1 27.1 24.9 27.1 23.8 C25.6 24.8 24.7 25.5 24.4 26.1 C24 26.9 24.3 22.6 26.2 20.2 C28.1 17.8 30.8 14.3 31 12.2 C31.6 18.3 30.3 21.1 31 22.5 C31.7 23.8 33.2 30.2 31.7 33.3 C30.7 35.4 29.3 37.4 27.5 39.4 C26.6 39.3 25.6 39.1 24.4 38.8 C23.3 38.4 22.4 38 21.8 37.4 z" id="y1" fill="#665F57" /></g></g><g transform="translate(168.3, 152.0999) scale(1) translate(-168.3, -150.0999)" id="z1"><g transform="translate(107.2, 96.29996) translate(39, 34)" id="a2"><path d="M43.8 25.9 C34.9 27 32.1 15 29.6 9.5 L28.8 25.7 C28.5 29.8 24.5 32.1 21.1 31.9 C17.7 32.1 14.9 28.9 14.9 25.7 C14.9 23.6 14.8 18.2 14.5 9.5 C12.1 15 9.2 26.8 0.3 25.7 L1.2 29.7 C1.6 32 2 34.8 2.4 38.3 C3.5 48.9 9.9 52 22.1 52 C34.4 51.9 40.8 48.9 41.8 38.3 C42.2 34.8 42.6 32 43 29.7 L43.8 25.9 z" id="b2" fill="#F4F4F4" /><path d="M43.8 25.9 L43 29.7 C42.6 32 42.2 34.8 41.8 38.3 C40.8 48.9 34.4 51.9 22.1 52 C9.9 52 3.5 48.9 2.4 38.3 C2 34.8 1.6 32 1.2 29.7 L0.3 25.7 C9.2 26.8 12.1 15 14.5 9.5 C14.8 18.2 14.9 23.6 14.9 25.7 C14.9 28.9 17.7 32.1 21.1 31.9 C24.5 32.1 28.5 29.8 28.8 25.7 L29.6 9.5 C32.1 15 34.9 27 43.8 25.9 z M42.8 26.7 C34.6 27.7 32.5 17.4 30.2 12.2 L29.6 27.3 C29.3 31.1 25.2 33.1 22.1 32.9 C19 33.1 14.3 29.4 14.3 26.4 C14.3 24.4 14.1 19.9 14.1 11.8 C11.9 16.9 10.3 27.5 2.1 26.5 L3 30.5 C3.4 32.7 3.7 33.9 4 37.1 C5 47.1 10.9 50 22.1 50 C33.4 49.9 39.3 47.1 40.2 37.2 C40.6 33.9 41.1 32.3 41.5 30.1 L42.8 26.7 z" opacity="0.15" id="c2" /></g><g transform="translate(168.3, 176.7) scale(0.8) translate(-168.3, -176.7) translate(90.49999, 94.59995) translate(65, 74)" id="d2"><path d="M3.6 16.5 C6.8 15.9 8.5 14.5 9.9 13.4 C10.8 12.7 11.8 11.8 12.8 10.6 C14.1 12.2 15 13.2 15.6 13.6 C16.4 14.3 18.8 15.8 20.3 16.4 C21.8 17 25.7 17.3 25.7 16.7 C25.7 16.1 21.2 15.4 19.6 14.2 C18 13 16.4 12 15.3 10.5 C14.3 9.1 14.7 8.1 14.6 6.5 C14.5 4.5 14.8 2.3 14.9 0.8 C15 -1.2 11.7 -0.6 11.7 0.8 C11.7 2.2 11.7 4.3 11.7 6.1 C11.7 7.9 11 10.1 9.6 11.3 C8.2 12.5 6.3 14 4.2 14.8 C2.9 15.3 0.2 15.9 0.3 16.5 C0.3 16.9 2.4 16.8 3.6 16.5 z" id="e2" fill="#282421" /></g><g transform="translate(168.3, 164.7) scale(0.7) translate(-168.3, -164.7) translate(85.59999, 88.69995) translate(70, 60)" id="f2"><g id="g2"><path d="M0.7 4.3 C1.1 1.6 6.7 0 8.1 0 C9.5 0 15.7 0 17.5 0 C19.3 0 22 1.3 23.3 2.5 C24.6 3.7 25.4 6.3 25 8.4 C24.5 10.5 21.3 18.8 17.3 19.2 C13.3 19.6 11.1 19.5 9 19 C6.9 18.5 0.7 13.4 0.7 8.4 C0.6 6.7 0.5 5.7 0.7 4.3 z" id="h2" /><path d="M14 3 C15.3 3 16.6 3.9 17.6 4 C19.1 4.2 20.1 3.2 20.1 2.5 C20.1 1.4 17.3 1 14 1 C10.7 1 6 1.1 6 2.2 C6 3.3 10.7 3 14 3 z" id="i2" fill="#FFF" /></g></g><g transform="translate(89.49999, 61.59995) translate(50, 53)" id="j2"><g transform="translate(12.46274, 12.04615) scale(-1, 1) translate(-12.46274, -12.04615) translate(0.962735, 0.546154)" id="k2"><path d="M7.4 22.1 C7.4 22.1 2.2 20.2 0.7 15.9 C-0.3 13 0.6 11.5 3.5 11.2 C2.7 9.3 2.7 8.3 3.5 8 C4.4 7.8 5.9 6.6 8 4.3 L11.3 0.4 L20.6 3.6 C21.9 7.2 22.5 9.2 22.4 9.5 C22.2 10 19.7 7.2 19.1 7.5 C17.4 8.2 11.9 9.3 10.8 10.4 C5.4 16.2 7.4 22.1 7.4 22.1 z" fill-opacity="0.9" opacity="0.8" id="l2" fill="#D8D8D8" /><g transform="translate(1.037265, 10.45385)" id="m2"><path d="M0.9 7.5 C1 7.9 1.4 8.6 2.1 9.6 C3.2 11.1 5.5 11.9 7.5 11.7 C9.5 11.5 11 11.6 12.8 9.6 C14.6 7.6 16 5.8 16.4 5.2 C16.7 4.8 17.4 4.3 18.6 3.7 C16.4 1.5 14.9 0.5 13.9 0.5 C12.5 0.5 9.5 1.5 7.9 3.2 C6.3 4.9 5 6.6 3.1 6.6 C2.7 6.4 2 6.7 0.9 7.5 z" id="n2" /><path d="M7.2 7.5 C8.1 6.9 8.7 6.5 9 6.2 C9.7 5.6 10 5.1 10.4 4.8 C11 6 11 7.5 9.7 7.9 C8.8 8.3 8 8.1 7.2 7.5 z" id="o2" fill="#FFFFFE" /></g></g></g><g transform="translate(91.89999, 61.59995) translate(80, 54)" id="p2"><g transform="translate(0.962735, 0.546154)" id="q2"><path d="M7.4 21.1 C7.4 21.1 2.2 19.2 0.7 14.9 C-0.3 12 0.6 10.5 3.5 10.2 C2.7 8.3 2.7 7.3 3.5 7 C4.4 6.8 5.9 5.6 8 3.3 L11.4 0 L20.7 2.7 C22 6.3 22.6 8.3 22.5 8.6 C22.3 9.1 19.8 6.3 19.2 6.6 C17.5 7.3 12 8.4 10.9 9.5 C5.4 15.2 7.4 21.1 7.4 21.1 z" fill-opacity="0.9" opacity="0.8" id="r2" fill="#D8D8D8" /><g transform="translate(2.037265, 9.453846)" id="s2"><path d="M0.3 7.5 C0.4 7.9 0.8 8.6 1.5 9.6 C2.6 11.1 4.9 11.9 6.9 11.7 C8.9 11.5 10.4 11.6 12.2 9.6 C14 7.6 15.4 5.8 15.8 5.2 C16.1 4.8 16.8 4.3 18 3.7 C15.8 1.5 14.3 0.5 13.3 0.5 C11.9 0.5 8.9 1.5 7.3 3.2 C5.7 4.9 4.3 6.6 2.4 6.6 C2.1 6.4 1.4 6.7 0.3 7.5 z" id="t2" /><path d="M6.2 7.5 C7.1 6.9 7.7 6.5 8 6.2 C8.7 5.6 9 5.1 9.4 4.8 C10 6 10 7.5 8.7 7.9 C7.8 8.3 7 8.1 6.2 7.5 z" id="u2" fill="#FFFFFE" /></g></g></g></g></g></g></g><defs><g transform="translate(17.09519, 0.800995) translate(-135.2952, -293.601)" id="v2" fill="#000"><path d="M118.2 302.7 C118.4 307.4 132.5 311.2 149.8 311.2 C167.1 311.2 181.2 307.4 181.4 302.7 C181.4 307.5 181.4 310.1 181.4 310.5 C181.4 315.3 167.3 319.1 149.8 319.1 C132.3 319.1 118.2 315.2 118.2 310.5 L118.2 302.7 L118.2 302.7 z" fill-opacity="0.4528" id="w2" fill="#593001" /><path d="M118.7 301.7 C118.9 306.4 133 310.2 150.3 310.2 C167.6 310.2 181.7 306.4 181.9 301.7 C181.9 306.5 181.9 309.1 181.9 309.5 C181.9 314.3 167.8 318.1 150.3 318.1 C132.8 318.1 118.7 314.2 118.7 309.5 L118.7 301.7 L118.7 301.7 z" id="x2" fill="#DA8113" /><linearGradient x1="46.0545" y1="-118.6926" x2="45.4656" y2="-118.6926" gradientUnits="userSpaceOnUse" gradientTransform="matrix(117.135, 0, 0, 28.4634, -5208.417, 3687.795)" id="y2"><stop offset="0%" stop-color="#D9952A" stop-opacity="1" /><stop offset="6.438854%" stop-color="#CA7519" stop-opacity="1" /><stop offset="30.54%" stop-color="#E3AD3A" stop-opacity="1" /><stop offset="51.05%" stop-color="#FFEC91" stop-opacity="1" /><stop offset="68.8%" stop-color="#E9BD44" stop-opacity="1" /><stop offset="86.24%" stop-color="#FFED6C" stop-opacity="1" /><stop offset="93.87%" stop-color="#F2D353" stop-opacity="1" /><stop offset="100%" stop-color="#F2B947" stop-opacity="1" /></linearGradient><path d="M118.2 301.6 C118.4 306.1 132.7 309.7 150.3 309.7 C167.9 309.7 182.2 306.1 182.4 301.6 C182.4 306.2 182.4 308.7 182.4 309 C182.4 313.5 168 317.2 150.3 317.2 C132.6 317.2 118.2 313.5 118.2 309 L118.2 301.6 L118.2 301.6 z" id="z2" style="fill:url(#y2)" /><linearGradient x1="45.4914" y1="-117.9547" x2="45.9407" y2="-117.5895" gradientUnits="userSpaceOnUse" gradientTransform="matrix(115.425, 0, 0, 29.925, -5125.077, 3826.124)" id="a3"><stop offset="0%" stop-color="#F4E072" stop-opacity="1" /><stop offset="100%" stop-color="#DB9427" stop-opacity="1" /></linearGradient><ellipse cx="150.3" cy="301.5" rx="31.6" ry="8.2" id="b3" style="fill:url(#a3)" /><linearGradient x1="45.4656" y1="-126.0065" x2="46.0545" y2="-126.0065" gradientUnits="userSpaceOnUse" gradientTransform="matrix(117.135, 0, 0, 18.6219, -5208.417, 2651.479)" id="c3"><stop offset="0%" stop-color="#D9952A" stop-opacity="1" /><stop offset="6.438854%" stop-color="#CA7519" stop-opacity="1" /><stop offset="30.54%" stop-color="#E3AD3A" stop-opacity="1" /><stop offset="51.05%" stop-color="#FFEC91" stop-opacity="1" /><stop offset="68.8%" stop-color="#E9BD44" stop-opacity="1" /><stop offset="86.24%" stop-color="#FFED6C" stop-opacity="1" /><stop offset="93.87%" stop-color="#F2D353" stop-opacity="1" /><stop offset="100%" stop-color="#F2B947" stop-opacity="1" /></linearGradient><path d="M119.2 299.9 C119 300.2 118.9 300.6 118.9 301 C118.9 305.5 132.9 309.2 150.3 309.2 C167.7 309.2 181.7 305.5 181.7 301 C181.7 300.6 181.6 300.3 181.4 299.9 C182 300.5 182.4 301.2 182.4 301.9 C182.4 306.4 168 310.1 150.3 310.1 C132.6 310.1 118.2 306.4 118.2 301.9 C118.2 301.3 118.6 300.6 119.2 299.9 z" id="d3" style="fill:url(#c3)" /><linearGradient x1="45.196" y1="-121.5895" x2="45.3746" y2="-120.6758" gradientUnits="userSpaceOnUse" gradientTransform="matrix(101.745, 0, 0, 23.94, -4458.332, 3199.41)" id="e3"><stop offset="0%" stop-color="#F8DD61" stop-opacity="1" /><stop offset="100%" stop-color="#EAA330" stop-opacity="1" /></linearGradient><ellipse cx="150.3" cy="300.8" rx="27.8" ry="6.6" id="f3" style="fill:url(#e3)" /><linearGradient x1="45.5694" y1="-134.267" x2="45.0221" y2="-134.267" gradientUnits="userSpaceOnUse" gradientTransform="matrix(101.745, 0, 0, 13.2525, -4458.332, 2077.223)" id="g3"><stop offset="0%" stop-color="#F4CA2F" stop-opacity="1" /><stop offset="51.38%" stop-color="#BF7737" stop-opacity="1" /><stop offset="100%" stop-color="#E4A929" stop-opacity="1" /></linearGradient><path d="M122.6 301.5 C122.5 301.3 122.4 301 122.4 300.8 C122.4 297.2 134.9 294.2 150.2 294.2 C165.5 294.2 178 297.1 178 300.8 C178 301 177.9 301.3 177.8 301.5 C176.3 298.2 164.5 295.6 150.1 295.6 C135.7 295.6 124.1 298.2 122.6 301.5 z" id="h3" style="fill:url(#g3)" /></g></defs><desc>L87N7LA6BLJ,lRRdg4jceM4i7VnPSVNiZQbpabnbt/qoxANICU2TYC5STzpsTGzrYn24yABcLFuQCyjZm/u6fp6K1PMPbRtdmReXbZ2u0u9+kelUMDiBEAGJ+opd0nC51wDMlLTdbaDp</desc></svg>