<?xml version="1.0" encoding="utf-8"?><!DOCTYPE svg PUBLIC "-//W3C//DTD SVG 1.1//EN" "http://www.w3.org/Graphics/SVG/1.1/DTD/svg11.dtd"><svg x="0" y="0" width="340px" height="340px" viewBox="0, 0, 340, 340" preserveAspectRatio="xMidYMid" font-size="0" id="a" enable-background="new 0 0 340 340" xmlns="http://www.w3.org/2000/svg" xmlns:xlink="http://www.w3.org/1999/xlink" xmlns:xml="http://www.w3.org/XML/1998/namespace" version="1.1"><g id="b" fill="#000"><g id="c"><g transform="translate(0, 0) translate(0, 224)" id="d"><ellipse cx="168.6" cy="53.1" rx="57.8" ry="12.8" fill-opacity="0.25" id="e" /></g><g id="f"><g transform="translate(86.8, 77.19998) translate(0, 161)" id="g"><path d="M0.4 6.2 C0.3 6.5 -0.6 7.7 0.7 12 C1.5 14.9 3.1 16.7 5.8 19.5 C9.2 23.1 11.9 25.4 15 26.2 C18.1 26.9 25.8 27.2 29.5 28.1 C33.5 29.1 38.9 32.7 41.2 34 C46 36.8 58.3 35.8 61.1 30.3 C62.5 27.5 64.6 23.5 64.1 19.5 C63.5 15.4 60.2 11.4 57.5 12 C52 13.2 48.6 13.1 43.4 13.8 C38.1 14.5 35.9 10.9 29.4 10.9 C26.4 10.9 22.2 10.1 16.3 10.9 C13.7 11.2 8.7 9.6 6.8 8.3 C5.9 7.7 3.6 5.9 2.7 5.5 C1.5 5 0.9 5.2 0.4 6.2 z" id="h" fill="#F4DFA9" /><g transform="translate(0, 5)" id="i"><path d="M37.6 7.9 C34.9 7.5 32.7 6.1 28.6 6.5 C26.1 6.8 22.4 6.5 17.5 7.7 C15.3 8.2 11 7.3 9.2 6.3 C8.4 5.9 6.3 4.6 5.5 4.3 C4.4 4 4 4.2 3.6 5.1 C3.6 5.4 2.9 6.5 4.4 10 C5.3 12.4 6.8 13.8 9.4 15.9 C12.6 18.6 15.1 20.3 17.8 20.8 C20.5 21.1 27 20.7 30.2 21.1 C33.7 21.6 38.6 24.2 40.6 25.1 C44.9 27 55.2 25.1 57.1 20.2 C58 17.7 59.5 14.1 58.7 10.8 C58.4 9.5 57.7 8.2 56.9 7.2 C57.1 7.2 57.3 7.1 57.5 7.1 C60.2 6.5 63.5 10.5 64.1 14.6 C64.6 18.6 62.5 22.6 61.1 25.4 C58.3 30.8 46 31.8 41.2 29 C38.9 27.7 33.5 24.1 29.5 23.1 C25.8 22.2 18.1 21.9 15 21.2 C11.9 20.4 9.2 18.1 5.8 14.5 C3.1 11.7 1.5 9.9 0.7 7 C-0.6 2.7 0.3 1.5 0.4 1.2 C0.9 0.2 1.5 0 2.7 0.5 C3.6 0.9 5.9 2.7 6.8 3.3 C8.7 4.6 13.7 6.2 16.3 5.9 C22.2 5.1 26.4 5.9 29.4 5.9 C33 5.9 35.3 7 37.6 7.9 z" fill-opacity="0.3" id="j" /></g></g><g transform="translate(116.3, 272.3) scale(1) translate(-116.3, -272.3) translate(86.90001, 76.79997) translate(21, 121)" id="k"><path d="M22 77.1 C31.1 76.2 36.7 76.5 39.5 72.9 C42.3 69.3 41 56.7 45 46.4 C49 36.1 47.8 3.1 33.3 0.7 C19.9 -1.6 5.4 1.5 1.2 17.1 C-3.8 35.6 8.3 46.8 11.6 50.5 C13.8 53 14.6 54.9 13.9 56.4 C8 57.7 4.2 60.7 2.5 65.1 C0 71.8 2 77.1 4 78.2 C6 79.3 12.9 78.1 22 77.1 z" id="l" fill="#C08A3F" /><g id="m"><path d="M22 77.1 C12.9 78.1 6 79.3 4 78.2 C2 77.1 0 71.8 2.5 65.1 C4.2 60.7 8 57.7 13.9 56.4 C14.6 54.9 13.8 53 11.6 50.5 C8.3 46.8 -3.8 35.6 1.2 17.1 C5.4 1.5 19.9 -1.6 33.3 0.7 C47.8 3.1 49 36.1 45 46.4 C41 56.7 42.3 69.3 39.5 72.9 C36.7 76.5 31.1 76.2 22 77.1 z M25.5 74.9 C34.6 74 34.4 74.1 37.2 70.5 C40 66.9 39.1 55.6 43.1 45.3 C47.1 35 47.8 4 33.3 1.6 C19.9 -0.6 8.7 1.3 4.5 16.9 C-0.5 35.4 10.3 47.8 13.6 51.5 C15.8 54 17.1 55.2 17.1 56.9 C11.2 58.2 6.2 59.9 4.5 64.3 C2 70.9 4 74.5 5.2 76.1 C6.4 77.7 16.4 75.9 25.5 74.9 z" fill-opacity="0.221" id="n" /></g></g><g transform="translate(221.3, 272.3) scale(1) translate(-221.3, -272.3) translate(86.90002, 76.79997) translate(117.5, 160.5) scale(-1, 1) translate(-117.5, -160.5) translate(94, 121)" id="o"><path d="M22 77.1 C31.1 76.2 36.7 76.5 39.5 72.9 C42.3 69.3 41 56.7 45 46.4 C49 36.1 47.8 3.1 33.3 0.7 C19.9 -1.6 5.4 1.5 1.2 17.1 C-3.8 35.6 8.3 46.8 11.6 50.5 C13.8 53 14.6 54.9 13.9 56.4 C8 57.7 4.2 60.7 2.5 65.1 C0 71.8 2 77.1 4 78.2 C6 79.3 12.9 78.1 22 77.1 z" id="p" fill="#C08A3F" /><g id="q"><path d="M22 77.1 C12.9 78.1 6 79.3 4 78.2 C2 77.1 0 71.8 2.5 65.1 C4.2 60.7 8 57.7 13.9 56.4 C14.6 54.9 13.8 53 11.6 50.5 C8.3 46.8 -3.8 35.6 1.2 17.1 C5.4 1.5 19.9 -1.6 33.3 0.7 C47.8 3.1 49 36.1 45 46.4 C41 56.7 42.3 69.3 39.5 72.9 C36.7 76.5 31.1 76.2 22 77.1 z M22.3 75.3 C31 74.4 36.1 76 38.8 72.6 C41.5 69.2 40.2 57.1 44.1 47.3 C48 37.5 46.8 5.9 32.9 3.6 C20.1 1.5 7.8 4.1 3.8 18.9 C-1 36.5 9.8 47.1 12.9 50.7 C15 53.1 16.9 56.5 16.2 57.9 C10.5 59.1 5.4 60.6 3.7 64.8 C1.3 71.2 3.1 75.3 5 76.3 C6.9 77.3 13.6 76.2 22.3 75.3 z" fill-opacity="0.221" id="r" /></g></g><g transform="translate(86.90001, 76.79997) translate(29, 49)" id="s"><path d="M88.8 24.6 C92.3 31.7 95.8 53 97.8 59.4 C99.8 65.8 98.9 80.9 99 89.1 C99.1 97.3 87.5 146.2 83.3 150.5 C81.7 152.2 75.1 153.6 64.6 153.6 C60.8 153.6 55.4 151.6 52.3 151.6 C48.8 151.6 43.2 153.7 39.8 153.6 C30.1 153.2 24.2 152.1 22.8 150.5 C19.1 146.2 6.9 103 6.5 91.8 C6.1 80.6 3.2 69.8 7.6 59.4 C10.8 52.4 13.5 40.8 16 24.6 C17.2 17.2 38.4 0.2 52.3 0.2 C73.1 0.2 85.3 17.5 88.8 24.6 z" id="t" fill="#F4DFA9" /><g transform="translate(5, 0)" id="u"><path d="M83.8 24.6 C87.3 31.7 90.8 53 92.8 59.4 C94.8 65.8 93.9 80.9 94 89.1 C94.1 97.3 82.5 146.2 78.3 150.5 C76.7 152.2 70.1 153.6 59.6 153.6 C55.8 153.6 50.4 151.6 47.3 151.6 C43.8 151.6 38.2 153.7 34.8 153.6 C25.1 153.2 19.2 152.1 17.8 150.5 C14.1 146.2 1.9 103 1.5 91.8 C1.1 80.6 -1.8 69.8 2.6 59.4 C5.8 52.4 8.5 40.8 11 24.6 C12.2 17.2 33.4 0.2 47.3 0.2 C68.1 0.2 80.3 17.5 83.8 24.6 z M83 24.8 C79.6 17.8 67.6 0.9 47.3 0.9 C33.7 0.9 13 17.5 11.8 24.8 C9.4 40.6 6.7 52 3.6 58.8 C-0.7 69 2.1 79.5 2.5 90.4 C2.9 101.3 14.8 143.6 18.5 147.8 C19.9 149.4 25.6 150.4 35.1 150.8 C38.4 150.9 43.9 148.8 47.3 148.8 C50.3 148.8 55.6 150.8 59.3 150.8 C69.6 150.8 76 149.4 77.6 147.8 C81.7 143.6 93 95.8 92.9 87.8 C92.8 79.8 93.7 65 91.8 58.8 C89.8 52.5 86.4 31.7 83 24.8 z" fill-opacity="0.2" id="v" /></g></g><g fill-rule="evenOdd" transform="translate(120.7, 175.65) scale(1.2, 1.048497) translate(-128.7, -191.4) translate(103.1, 100.9) translate(65.5, 141.5) scale(-1, 1) translate(-65.5, -141.5) translate(25, 90)" id="w"><path d="M11.6 59.6 C8.7 45.7 0.4 49.4 0.4 27.5 C0.4 14.8 3.7 10 8 0.5 C19 12.8 30.8 15.8 40.4 17.2 C50 15.8 61.9 12.9 72.8 0.5 C77.1 10 80.4 14.8 80.4 27.5 C80.4 49.4 72.1 45.7 69.2 59.6 C68.4 63.3 64.3 74.3 60.3 74.6 C57.1 74.8 53.9 65.5 53.9 61 C53.9 55.5 53.7 50.8 53.3 47.7 C52.5 41.2 48.3 39.3 40.2 35.5 C32.2 39.3 28 41.2 27.1 47.7 C26.7 51 26.5 56.1 26.5 62 C26.5 67.2 22.2 75.8 18.3 74.5 C15.3 73.4 12.3 62.8 11.6 59.6 z" id="x" fill="#F0B756" /><path d="M6.7 100.5 C6.9 96.5 7.2 93.2 12.1 90.1 C13.4 82 13 68.4 11.8 61.1 C13.9 65.1 17.4 71.8 19.7 71.3 C21.6 70.9 25.3 64.7 26.8 60.9 C26.8 71 27.2 83.3 27.6 91.4 C30.6 93.8 30.9 99.1 30.6 100.2 C29 103.6 8.7 102.1 6.7 100.5 z" id="y" fill="#FCF6CA" /><path d="M74.3 100.5 C74.1 96.5 73.8 93.2 68.9 90.1 C67.6 82 68 68.4 69.2 61.1 C67.1 65.1 63.6 71.8 61.3 71.3 C59.4 70.9 55.7 64.7 54.2 60.9 C54.2 71 53.8 83.3 53.4 91.4 C50.4 93.8 50.1 99.1 50.4 100.2 C52 103.6 72.3 102.1 74.3 100.5 z" id="z" fill="#FCF6CA" /><path d="M15.2 26.8 C16 25.9 17.5 26.2 18.6 26.5 C21.1 27.2 23.6 27.4 26.2 27.3 C31 26.2 36.7 25.3 40.4 25.3 C44.1 25.3 49.8 26.2 54.6 27.3 C57.2 27.4 59.7 27.2 62.2 26.5 C63.4 26.2 64.9 25.8 65.6 26.8 C66.1 27.4 66.1 28.2 66 29 C65.9 29.8 65.7 30.6 65.4 31.4 C64.9 32.6 64.3 33.8 63.5 34.9 C60.6 41.8 60.6 51.7 56.9 52.4 C52.5 53.2 53.4 46.5 52.6 44.3 C51.3 41 47.3 38.4 40.5 37.6 C33.7 38.4 29.7 41 28.4 44.3 C27.5 46.5 28.5 53.2 24.1 52.4 C20.4 51.7 20.4 41.8 17.5 34.9 C16.7 33.9 16 32.7 15.6 31.4 C15.3 30.6 15.1 29.8 15 29 C14.8 28.3 14.8 27.4 15.2 26.8 z" id="a1" fill="#FCF6CA" /><path d="M53.5 50 C53.1 48.6 53 46.9 52.9 45.6 C52.2 43.4 51.1 41.8 49.3 40.5 C47.2 39.1 44.3 38 40.5 37.6 C33.7 38.4 29.7 41 28.4 44.3 C27.8 45.9 28.1 49.6 26.8 51.5 C26.6 54.3 26.5 57.8 26.5 61.6 C26.6 61.4 26.7 61.1 26.8 60.9 C26.8 71 27.2 83.3 27.6 91.4 C30.6 93.8 30.9 99.1 30.6 100.2 C29 103.6 8.7 102.1 6.7 100.5 C6.9 96.5 7.2 93.2 12.1 90.1 C13.4 82 13 68.4 11.8 61.1 C11.9 61.3 12 61.5 12.1 61.7 C11.9 60.9 11.7 60.1 11.6 59.6 C8.7 45.7 0.4 49.4 0.4 27.5 C0.4 14.8 3.7 10 8 0.5 C19 12.8 30.8 15.8 40.4 17.2 C50 15.8 61.9 12.9 72.8 0.5 C77.1 10 80.4 14.8 80.4 27.5 C80.4 49.4 72.1 45.7 69.2 59.6 C69 60.4 68.7 61.6 68.2 63 C68.6 62.3 68.9 61.7 69.2 61.1 C68 68.4 67.6 82 68.9 90.1 C73.8 93.2 74.1 96.5 74.3 100.5 C72.3 102.1 52 103.6 50.4 100.2 C50.1 99.1 50.4 93.8 53.4 91.4 C53.8 84.1 54.1 73.3 54.2 63.8 C54 62.8 53.9 61.8 53.9 61 C53.9 56.7 53.8 52.9 53.5 50 z M53.8 45.9 C54 46.7 54.1 48.4 54.3 50.9 C54.6 53.7 54.8 56.5 54.8 60.5 C54.8 61.2 55 64.5 55.1 65.5 C55.1 74.4 55.1 84.9 54.8 91.7 C52 94 51.5 96.3 51.8 97.4 C53.3 100.5 70.3 98.9 72.1 97.4 C71.9 93.6 72.6 94 68 91.1 C66.8 83.5 66.2 67.3 67.4 60.5 C67.2 60.7 68 57 70.4 52.3 C72 49.4 75.2 46.7 76.5 42 C77.5 38.3 78.6 33.1 78.2 28.7 C77.3 16.9 75.4 12.6 71.4 3.8 C61.2 15.4 49.4 19.4 40.4 20.7 C31.4 19.4 19.2 15.3 8.9 3.8 C4.8 12.6 3 17.1 3 29 C3 49.5 10.7 46.1 13.4 59.1 C13.5 59.6 13.7 60.3 13.9 61.1 C13.8 60.9 13.7 60.7 13.6 60.5 C14.8 67.3 14.8 83 13.6 90.6 C9 93.5 9 93.6 8.9 97.4 C10.7 98.9 27.6 101.6 29.1 98.4 C29.3 97.4 29.3 94 26.5 91.7 C26.2 84.2 25.8 61.6 25.7 61.8 C25.7 58.2 26.1 53.3 26.5 50.9 C27 48.6 26.7 44.9 27.3 43.4 C28.6 40.3 34 37.2 40.4 36.4 C44 36.9 48.7 38.9 50.7 40.2 C52.3 41.5 53.2 43.9 53.8 45.9 z" opacity="0.15" id="b1" /></g></g><g id="c1"><g transform="translate(98.00001, 60.19997) translate(30, 28)" id="d1"><g id="e1"><path d="M25.3 87.5 C28.4 87.8 32.5 88 35 86.7 C37.7 85.3 39.2 83.9 41.4 81.5 C43.9 85 46 86.1 49.2 87.5 C52.2 88.9 56.2 87.9 58.7 87.2 C61.2 86.4 66.9 83.2 67.5 79.5 C68.2 75.3 68.7 70.2 66.8 63.2 C65.2 57.1 57.5 53.8 53.8 49.9 C51.1 47 47.5 36.3 47.2 34.6 C46.4 31.2 46.5 27.6 47.7 20.5 C48.9 12.9 53.8 10.5 53.8 8 C53.8 5.6 48.7 10 42.5 10.1 C36.4 10.2 29.7 4.7 29.7 8 C29.7 11.4 34.7 13.8 35.7 19.5 C36.7 25.2 36.7 28.1 35.7 34 C35.1 37.5 31.6 47.8 28.3 50.4 C22.6 54.9 15.7 59.4 15.1 65.9 C14.5 72.6 13.8 76.4 15.7 80.1 C18 84.9 22.2 87.1 25.3 87.5 z" id="f1" fill="#594F46" /><path d="M41.4 1.3 C51.8 1.3 50.7 0.2 54.1 -0.5 C57.5 -1.2 67.3 8.9 71.2 13.2 C75.1 17.5 77.7 25 79.9 29.5 C82.1 34 80.7 43 82.4 52.4 C83.4 58.1 85.2 62.5 83.8 68.2 C82.9 72 80.7 77.3 76 81.2 C60.7 93.6 47.9 95.2 41.4 95.5 C35 95.8 18.6 90.1 8.1 81.4 C3.1 77.2 0.5 72.5 -0.2 68.4 C-1 64 0.4 60.1 1.4 52.6 C3.3 38.1 3.2 39.6 3.1 31.6 C2.7 23 22.7 0.8 26.8 -0.6 C30.9 -2 31.2 1.3 41.4 1.3 z" id="g1" fill="#FCF6CA" /><path d="M47.4 5.1 C50.5 4.7 53.8 1.9 54.4 1.9 C55.9 1.9 68.9 12.7 71.3 16.5 C73.7 20.5 78.7 27.9 79.1 28.3 C79.1 28.3 79.2 28.3 79.3 28.3 C77.2 23.6 74.7 17.1 71.1 13.2 C67.3 8.8 57.6 -1.3 54.2 -0.6 C50.8 0.1 51.8 1.2 41.5 1.2 C31.2 1.2 30.9 -1.9 26.8 -0.6 C23.6 0.4 10.8 14.1 5.5 24.1 C7.7 21.8 12.7 15.9 17.5 11 C22.1 6.4 26.7 2.4 27.5 2.1 C29.3 1.4 31.5 4.9 37 5.2 C38.1 8 41.1 14.7 41 15.6 C40.8 17.7 41.6 23.6 41 25.6 C39 32.5 34.7 34.5 31.4 37 C26 35.6 22 32.8 18.6 34.9 C15.2 36.9 13.1 40.3 15.3 44.3 C16.5 48.1 20.5 51.3 20.4 56.2 C19.5 58.2 14.5 61.8 10.1 63.6 C11.4 65.7 12.5 67.1 13.4 67.9 C15.4 69.6 19.6 76 20.4 78.7 C21.5 82.6 22.7 85.8 26.6 88.9 C29.7 89.7 34.9 89.8 42.1 89.1 C49.4 89.8 54.6 89.7 57.6 88.9 C64.3 85.2 62.4 84.8 63.5 80.9 C64.3 78.2 68.8 69.6 70.8 67.9 C71.7 67.1 72.8 65.7 74.1 63.6 C69.7 61.8 65.5 59 64.6 57 C63.7 55 64.3 54.6 65.6 50.8 C70.3 45.2 71.4 37.2 65.6 35.1 C59.8 33 58.2 35.8 52.8 37.2 C49.5 34.7 45.1 32.7 43.2 25.8 C42.6 23.8 43.4 17.9 43.2 15.8 C43.1 14.9 46.1 8 47.2 5.2 C47.2 5.2 47.3 5.1 47.4 5.1 z" id="h1" fill="#F0B756" /><path d="M41.4 1.3 C51.8 1.3 50.7 0.2 54.1 -0.5 C57.5 -1.2 67.3 8.9 71.2 13.2 C75.1 17.5 77.7 25 79.9 29.5 C82.1 34 80.7 43 82.4 52.4 C83.4 58.1 85.2 62.5 83.8 68.2 C82.9 72 80.7 77.3 76 81.2 C60.7 93.6 47.9 95.2 41.4 95.5 C35 95.8 18.6 90.1 8.1 81.4 C3.1 77.2 0.5 72.5 -0.2 68.4 C-1 64 0.4 60.1 1.4 52.6 C3.3 38.1 3.2 39.6 3.1 31.6 C2.7 23 22.7 0.8 26.8 -0.6 C30.9 -2 31.2 1.3 41.4 1.3 z M41.4 2.1 C31.5 2.1 31.2 -1.1 27.4 0.3 C23.6 1.7 4.3 23 4.7 31.1 C4.8 38.9 4.9 37.3 3.1 51.3 C2.1 58.6 0.8 62.3 1.6 66.5 C2.3 70.4 4.8 75 9.6 79 C19.6 87.4 35.4 92.8 41.5 92.5 C47.7 92.2 59.9 90.7 74.7 79 C79.2 75.3 81.3 70.2 82.2 66.5 C83.5 60.9 81.8 56.7 80.9 51.3 C79.3 42.3 80.6 33.7 78.5 29.3 C76.4 24.9 73.8 17.9 70 13.7 C66.2 9.5 56.9 -0.3 53.6 0.4 C50.3 1.1 51.4 2.1 41.4 2.1 z" opacity="0.15" id="i1" /></g></g><g transform="translate(145.6, 95.29996) rotate(26, 0, 0) scale(0.7) translate(-145.6, -101.3) translate(105.7, 78.39997) translate(13, 8)" id="j1"><path d="M23.1 5.8 C20.1 10.5 14.9 20.5 9.1 29.6 C2.2 36.8 3.5 38.8 1.4 42.3 C-0.7 45.8 -0.7 52.8 5.7 59 C12.1 65.2 17.7 67.5 18.8 71.2 C19.9 74.9 27 79 28.8 79 C30.6 79 35.6 73.9 34.7 71.2 C33.8 68.5 28.8 47.4 28.8 35.6 C28.8 31.8 27.5 17.1 28.8 12.6 C29.9 8.7 29.2 4.4 32.6 1.5 C34.2 0.1 26.1 1.2 23.1 5.8 z" id="k1" fill="#C08A3F" /><g id="l1"><path d="M23.1 5.8 C26.1 1.2 34.2 0.1 32.6 1.5 C29.2 4.4 29.9 8.7 28.8 12.6 C27.5 17.1 28.8 31.8 28.8 35.6 C28.8 47.4 33.8 68.5 34.7 71.2 C35.6 73.9 30.6 79 28.8 79 C27 79 19.9 74.9 18.8 71.2 C17.7 67.5 12.1 65.2 5.7 59 C-0.7 52.8 -0.7 45.8 1.4 42.3 C3.5 38.8 2.2 36.8 9.1 29.6 C14.9 20.5 20.1 10.5 23.1 5.8 z M23 8.7 C20.5 12.9 14.6 22.9 9.8 31.1 C4 37.6 5.2 39.4 3.4 42.5 C1.6 45.6 1.9 51.8 7.7 57.1 C13.5 62.4 18.5 64.2 19.6 67.4 C20.7 70.6 25.6 75 28.4 74.5 C31.2 74 32.9 69 32 66.7 C31.1 64.4 27.6 46.2 27.3 35.8 C27.2 32.5 26.3 18.3 27.3 14.3 C28.1 10.8 28.8 5.7 30.4 2.6 C31.6 0.7 25.5 4.5 23 8.7 z" fill-opacity="0.3" id="m1" /></g></g><g transform="translate(192.9, 95.29997) rotate(-26, 0, 0) scale(0.7) translate(-192.9, -101.3) translate(67.3, 78.59998) translate(109, 8)" id="n1"><path d="M20.2 5.8 C23.2 10.5 28.4 20.5 34.2 29.6 C41.1 36.8 40.1 38.8 42.2 42.3 C44.3 45.8 43.9 52.8 37.6 59 C31.3 65.2 25.6 67.5 24.5 71.2 C23.4 74.9 16.2 79 14.4 79 C12.6 79 7.6 73.9 8.5 71.2 C9.4 68.5 14.4 47.4 14.4 35.6 C14.4 31.8 15.7 17.1 14.4 12.6 C13.3 8.7 13.3 4.5 9.9 1.5 C8.4 0.2 17.2 1.2 20.2 5.8 z" id="o1" fill="#C08A3F" /><path d="M20.2 5.8 C23.2 10.5 28.4 20.5 34.2 29.6 C41.1 36.8 40.1 38.8 42.2 42.3 C44.3 45.8 43.9 52.8 37.6 59 C31.3 65.2 25.6 67.5 24.5 71.2 C23.4 74.9 16.2 79 14.4 79 C12.6 79 7.6 73.9 8.5 71.2 C9.4 68.5 14.4 47.4 14.4 35.6 C14.4 31.8 15.7 17.1 14.4 12.6 C13.3 8.7 13.3 4.5 9.9 1.5 C8.4 0.2 17.2 1.2 20.2 5.8 z M20.6 8.8 C18 4.7 10.2 1 11.5 2.1 C14.5 4.8 15.2 9.5 16.1 12.9 C17.2 16.9 16.8 30.9 16.8 34.2 C16.6 44.7 12.4 64.8 11.5 67.2 C10.7 69.6 14.5 72.7 16.1 72.7 C17.7 72.7 24.1 69.2 25.2 65.9 C26.2 62.6 31.3 60.7 37 55.3 C42.7 49.9 41.8 43.9 40 40.8 C38.2 37.7 38.7 36 32.7 29.5 C27.7 21.5 23.2 13 20.6 8.8 z" fill-opacity="0.3" id="p1" /></g><g id="q1"><g transform="translate(104.1, 86.79996) translate(32, 35)" id="r1"><g transform="translate(0, 8)" id="s1"><path d="M64 23.9 C61.8 21.3 58.3 20.9 55.7 19 C52.7 16.8 52.1 14 50.4 10.8 C46.5 3.6 41 0.8 33.5 0.7 C26.9 0.7 21.5 2.7 17.6 9 C16 11.6 15.2 15.2 13.1 17.5 C11 19.8 7.8 20.1 5.4 21.8 C1.5 24.6 -1.2 31.1 0.6 36 C2 39.8 8.4 42.3 12.3 43.7 C24.5 48.1 40.4 48 52.7 44.3 C56.1 43.3 59.5 41.8 62.5 39.8 C65.7 37.6 66.6 36.4 66.6 32.6 C66.5 29.7 66 26.2 64 23.9 z" id="t1" fill="#FFF" /><path d="M64 23.9 C66 26.2 66.5 29.7 66.6 32.6 C66.6 36.4 65.7 37.6 62.5 39.8 C59.5 41.8 56.1 43.3 52.7 44.3 C40.4 48 24.5 48.1 12.3 43.7 C8.4 42.3 2 39.8 0.6 36 C-1.2 31.1 1.5 24.6 5.4 21.8 C7.8 20.1 11 19.8 13.1 17.5 C15.2 15.2 16 11.6 17.6 9 C21.5 2.7 26.9 0.7 33.5 0.7 C41 0.8 46.5 3.6 50.4 10.8 C52.1 14 52.7 16.8 55.7 19 C58.3 20.9 61.8 21.3 64 23.9 z M61.8 23.5 C59.8 21 56.5 20.7 54.1 18.9 C51.3 16.8 50.8 14.2 49.2 11.3 C45.6 4.6 40.5 1.9 33.5 1.9 C27.4 1.9 22.3 3.7 18.7 9.6 C17.2 12 16.5 15.4 14.5 17.5 C12.6 19.6 9.6 19.9 7.4 21.5 C3.7 24.1 1.2 30.2 2.9 34.7 C4.2 38.3 10.2 40.6 13.8 41.9 C25.1 46 39.9 45.9 51.3 42.4 C54.5 41.5 57.7 40.1 60.4 38.3 C63.4 36.2 64.3 35.1 64.3 31.6 C64.2 28.9 63.7 25.6 61.8 23.5 z" opacity="0.15" id="u1" /><g transform="translate(19, 14)" id="v1" fill="#282421"><path d="M7 2.2 C6.3 1.8 5.3 2.4 5.2 3.3 C5.2 4.1 6.8 4.9 7.6 4.5 C8.3 4.1 7.8 2.9 7.2 2.4" id="w1" /><path d="M2.1 0.7 C1.4 0.3 0.4 0.9 0.3 1.8 C0.3 2.6 1.3 3.7 2.1 3.3 C2.9 2.9 2.9 1.3 2.3 0.8" id="x1" /><path d="M2.1 7.4 C1.4 7 0.4 7.6 0.3 8.5 C0.3 9.3 1.4 10.2 2.1 9.9 C2.8 9.5 2.9 8.1 2.2 7.6" id="y1" /><path d="M22 2.2 C22.7 1.8 23.7 2.4 23.8 3.3 C23.8 4.1 22.2 4.9 21.4 4.5 C20.7 4.1 21.2 2.9 21.8 2.4" id="z1" /><path d="M26.9 0.7 C27.6 0.3 28.6 0.9 28.7 1.8 C28.7 2.6 27.7 3.7 26.9 3.3 C26.2 2.9 26.1 1.3 26.7 0.8" id="a2" /><path d="M26.9 7.4 C27.6 7 28.6 7.6 28.7 8.5 C28.7 9.3 27.6 10.2 26.9 9.9 C26.2 9.5 26.1 8.1 26.8 7.6" id="b2" /></g></g></g><g transform="translate(169.6, 160.5999) scale(1.1) translate(-169.6, -160.5999) translate(87.2, 69.99996) translate(74, 77)" id="c2"><path d="M7.5 1.5 C7.7 3.9 7.8 5.6 7.8 6.6 C7.8 7.6 7.5 9.5 7 12.1 C4.4 14.2 2.6 16 1.7 17.5 C0.4 19.8 -0.1 20.5 0.4 20.8 C0.7 21.1 2.4 18.9 4.9 17.7 C5.9 17.2 7.4 16.9 8.5 16.9 C9.8 16.9 11.5 17.4 12.7 18.1 C14.8 19.3 16 21 16.4 20.9 C16.9 20.7 15.7 17.6 13.2 15.4 C11.6 13.9 10.5 12.9 10 12.2 C9.7 9.6 9.6 7.8 9.6 6.6 C9.6 5.4 9.7 3.6 9.9 1.3 C10.5 0.4 10.1 0 8.7 0 C7.3 0 6.9 0.5 7.5 1.5 z" id="d2" /></g><g transform="translate(110.1, 82.19996) translate(49, 48)" id="e2"><g id="f2"><path d="M19.3 2.5 C16.1 -0.7 10.5 2 10.5 2 C10.5 2 4.9 -0.7 1.7 2.5 C-3 7.2 6.6 13.8 10.5 15.3 C14.4 13.8 24 7.2 19.3 2.5 z" id="g2" fill="#282421" /><path d="M14.2 2.5 C12.8 2.8 11.6 3.7 10.1 3.4 C8.7 3.1 8.8 3.3 7.7 2.6 C6.3 1.8 4.6 1.5 3.7 2.1 C2.9 2.6 2.1 3.5 2.8 4.2 C3.5 5 5 4.9 6.5 4.8 C7.2 4.8 9.9 4.9 10.4 4.8 C11.6 4.9 13.5 5.6 15 4.7 C16.4 4 15.8 2.1 14.2 2.5 z" id="h2" fill="#FFF" /></g></g><g transform="translate(107.9, 63.49996) translate(30, 41)" id="i2"><g id="j2"><ellipse cx="11.1" cy="20" rx="10.5" ry="10" id="k2" fill="#F4DFA9" /><circle cx="12.1" cy="19" r="6.5" id="l2" fill="#424242" /><circle cx="10.1" cy="17" r="2.5" id="m2" fill="#FFF" /><circle cx="14.6" cy="20.5" r="1" id="n2" fill="#FFF" /><path d="M6.5 4.2 C4.5 6.7 6.1 10 8.5 9.3 C10.9 8.5 16 7.2 16.9 5.7 C17.8 4.2 17.1 -0.1 14.2 0.6 C11.3 1.3 8.5 1.8 6.5 4.2 z" id="o2" fill="#C08A3F" /></g></g><g transform="translate(109.6, 63.49996) translate(69, 41)" id="p2"><g id="q2"><ellipse cx="11.1" cy="20" rx="10.5" ry="10" id="r2" fill="#F4DFA9" /><circle cx="10.2" cy="19" r="6.5" id="s2" fill="#424242" /><circle cx="8.2" cy="17" r="2.5" id="t2" fill="#FFF" /><circle cx="12.7" cy="20.5" r="1" id="u2" fill="#FFF" /><path d="M15.5 4.2 C17.5 6.7 15.9 10 13.5 9.3 C11.1 8.5 6 7.2 5.1 5.7 C4.2 4.2 4.9 -0.1 7.8 0.6 C10.7 1.3 13.5 1.8 15.5 4.2 z" id="v2" fill="#C08A3F" /></g></g></g></g></g></g><defs><g transform="translate(17.09519, 0.800995) translate(-135.2952, -293.601)" id="w2" fill="#000"><path d="M118.2 302.7 C118.4 307.4 132.5 311.2 149.8 311.2 C167.1 311.2 181.2 307.4 181.4 302.7 C181.4 307.5 181.4 310.1 181.4 310.5 C181.4 315.3 167.3 319.1 149.8 319.1 C132.3 319.1 118.2 315.2 118.2 310.5 L118.2 302.7 L118.2 302.7 z" fill-opacity="0.4528" id="x2" fill="#593001" /><path d="M118.7 301.7 C118.9 306.4 133 310.2 150.3 310.2 C167.6 310.2 181.7 306.4 181.9 301.7 C181.9 306.5 181.9 309.1 181.9 309.5 C181.9 314.3 167.8 318.1 150.3 318.1 C132.8 318.1 118.7 314.2 118.7 309.5 L118.7 301.7 L118.7 301.7 z" id="y2" fill="#DA8113" /><linearGradient x1="46.0545" y1="-118.6926" x2="45.4656" y2="-118.6926" gradientUnits="userSpaceOnUse" gradientTransform="matrix(117.135, 0, 0, 28.4634, -5208.417, 3687.795)" id="z2"><stop offset="0%" stop-color="#D9952A" stop-opacity="1" /><stop offset="6.438854%" stop-color="#CA7519" stop-opacity="1" /><stop offset="30.54%" stop-color="#E3AD3A" stop-opacity="1" /><stop offset="51.05%" stop-color="#FFEC91" stop-opacity="1" /><stop offset="68.8%" stop-color="#E9BD44" stop-opacity="1" /><stop offset="86.24%" stop-color="#FFED6C" stop-opacity="1" /><stop offset="93.87%" stop-color="#F2D353" stop-opacity="1" /><stop offset="100%" stop-color="#F2B947" stop-opacity="1" /></linearGradient><path d="M118.2 301.6 C118.4 306.1 132.7 309.7 150.3 309.7 C167.9 309.7 182.2 306.1 182.4 301.6 C182.4 306.2 182.4 308.7 182.4 309 C182.4 313.5 168 317.2 150.3 317.2 C132.6 317.2 118.2 313.5 118.2 309 L118.2 301.6 L118.2 301.6 z" id="a3" style="fill:url(#z2)" /><linearGradient x1="45.4914" y1="-117.9547" x2="45.9407" y2="-117.5895" gradientUnits="userSpaceOnUse" gradientTransform="matrix(115.425, 0, 0, 29.925, -5125.077, 3826.124)" id="b3"><stop offset="0%" stop-color="#F4E072" stop-opacity="1" /><stop offset="100%" stop-color="#DB9427" stop-opacity="1" /></linearGradient><ellipse cx="150.3" cy="301.5" rx="31.6" ry="8.2" id="c3" style="fill:url(#b3)" /><linearGradient x1="45.4656" y1="-126.0065" x2="46.0545" y2="-126.0065" gradientUnits="userSpaceOnUse" gradientTransform="matrix(117.135, 0, 0, 18.6219, -5208.417, 2651.479)" id="d3"><stop offset="0%" stop-color="#D9952A" stop-opacity="1" /><stop offset="6.438854%" stop-color="#CA7519" stop-opacity="1" /><stop offset="30.54%" stop-color="#E3AD3A" stop-opacity="1" /><stop offset="51.05%" stop-color="#FFEC91" stop-opacity="1" /><stop offset="68.8%" stop-color="#E9BD44" stop-opacity="1" /><stop offset="86.24%" stop-color="#FFED6C" stop-opacity="1" /><stop offset="93.87%" stop-color="#F2D353" stop-opacity="1" /><stop offset="100%" stop-color="#F2B947" stop-opacity="1" /></linearGradient><path d="M119.2 299.9 C119 300.2 118.9 300.6 118.9 301 C118.9 305.5 132.9 309.2 150.3 309.2 C167.7 309.2 181.7 305.5 181.7 301 C181.7 300.6 181.6 300.3 181.4 299.9 C182 300.5 182.4 301.2 182.4 301.9 C182.4 306.4 168 310.1 150.3 310.1 C132.6 310.1 118.2 306.4 118.2 301.9 C118.2 301.3 118.6 300.6 119.2 299.9 z" id="e3" style="fill:url(#d3)" /><linearGradient x1="45.196" y1="-121.5895" x2="45.3746" y2="-120.6758" gradientUnits="userSpaceOnUse" gradientTransform="matrix(101.745, 0, 0, 23.94, -4458.332, 3199.41)" id="f3"><stop offset="0%" stop-color="#F8DD61" stop-opacity="1" /><stop offset="100%" stop-color="#EAA330" stop-opacity="1" /></linearGradient><ellipse cx="150.3" cy="300.8" rx="27.8" ry="6.6" id="g3" style="fill:url(#f3)" /><linearGradient x1="45.5694" y1="-134.267" x2="45.0221" y2="-134.267" gradientUnits="userSpaceOnUse" gradientTransform="matrix(101.745, 0, 0, 13.2525, -4458.332, 2077.223)" id="h3"><stop offset="0%" stop-color="#F4CA2F" stop-opacity="1" /><stop offset="51.38%" stop-color="#BF7737" stop-opacity="1" /><stop offset="100%" stop-color="#E4A929" stop-opacity="1" /></linearGradient><path d="M122.6 301.5 C122.5 301.3 122.4 301 122.4 300.8 C122.4 297.2 134.9 294.2 150.2 294.2 C165.5 294.2 178 297.1 178 300.8 C178 301 177.9 301.3 177.8 301.5 C176.3 298.2 164.5 295.6 150.1 295.6 C135.7 295.6 124.1 298.2 122.6 301.5 z" id="i3" style="fill:url(#h3)" /></g></defs><desc>BBBH7BHBCOE,fgEETREqDvGPY1MA6V7ZiHbQyXS/xZvvgjUBPj1oPT8XZ7WmzbBnpRtgVznHK65LVvqIqeSy0bF+zXd6M+FrFL0y7F7xwmWRgTTKNlw9IYk=</desc></svg>