<?xml version="1.0" encoding="utf-8"?><!DOCTYPE svg PUBLIC "-//W3C//DTD SVG 1.1//EN" "http://www.w3.org/Graphics/SVG/1.1/DTD/svg11.dtd"><svg x="0" y="0" width="340px" height="340px" viewBox="0, 0, 340, 340" preserveAspectRatio="xMidYMid" font-size="0" id="a" enable-background="new 0 0 340 340" xmlns="http://www.w3.org/2000/svg" xmlns:xlink="http://www.w3.org/1999/xlink" xmlns:xml="http://www.w3.org/XML/1998/namespace" version="1.1"><g id="b" fill="#000"><g id="c"><g transform="translate(0, 0) translate(0, 224)" id="d"><ellipse cx="168.6" cy="53.1" rx="57.8" ry="12.8" fill-opacity="0.25" id="e" /></g><g id="f"><g transform="translate(108.1, 111.4) translate(17, 115.5) scale(-1, 1) translate(-17, -115.5) translate(0, 94)" id="g"><g id="h"><path d="M8.1 41.9 C14.8 39.7 18.9 36.9 23.6 32.1 C31.3 24.3 34 16.7 29.9 8.8 C27.6 4.4 19.9 1.9 13.5 3.1 C10.7 3.6 9.6 5.5 10 5.9 C10.7 6.6 13.9 5.9 15.5 6 C26.6 6.6 24.3 15.2 17.6 22.1 C12.7 27.2 5.8 27.2 1.9 31.9 C-1.8 36.4 1.5 44.1 8.1 41.9 z" id="i" fill="#725C54" /><path d="M13.5 34.9 C24.5 32.1 33 20.6 28.2 9.3 C26.4 5 18 1.6 10.2 6 L10.1 6 C9.5 5.6 9.8 4.8 12 2.8 C16.8 -1.4 25.8 0.3 29.5 4.7 C36.8 13.3 34.6 24.6 26.9 32.4 C22.2 37.2 14.7 39.8 8 42 C5.7 42.8 3.8 42.3 2.4 41.2 C2.2 38.4 10.9 35.6 13.5 34.9 z" id="j" fill="#3D2B26" /><path d="M2.4 41 C0 38.9 -0.5 34.8 1.9 31.9 C5.8 27.2 12.7 27.2 17.6 22.1 C24.3 15.2 26.6 6.6 15.5 6 C14 5.9 11 6.5 10.1 6 L10.1 6 C9.5 5.6 9.8 4.8 12 2.8 C16.8 -1.4 25.8 0.3 29.5 4.7 C36.8 13.3 34.6 24.6 26.9 32.4 C22.2 37.2 14.7 39.8 8 42 C5.7 42.8 3.8 42.3 2.4 41.2 C2.4 41.1 2.4 41.1 2.4 41 z M3.1 31.5 C0.9 34.3 0.9 37.1 3.1 39.1 C3.1 39.1 3.1 39.2 3.1 39.2 C4.5 40.3 6.3 40.8 8.4 40 C14.8 37.9 20.8 35.7 25.2 31.1 C32.6 23.7 35.6 13.6 28.7 5.4 C25.1 1.2 17.2 -0.9 12.6 3.1 C10.6 5 9.9 5.4 10.5 5.8 C11.3 6.3 14.6 5.3 16 5.4 C26.6 6 25.3 15.7 18.9 22.3 C14.2 27.1 6.8 27.1 3.1 31.5 z" opacity="0.15" id="k" /></g></g><g transform="translate(128.88, 273.9) scale(0.6180328) translate(-125.7, -273.9) translate(105.5, 96.49997) translate(12, 123)" id="l"><path d="M14 38.2 C12.5 33.4 7.1 32.2 3.1 27.7 C-2 21.9 -0.8 7.2 7.5 2.9 C14.4 -0.7 26.3 -1.7 33.5 4.7 C45.7 15.7 37.5 29.3 34.6 36.2 C32 42.3 15 41.8 14 38.2 z" id="m" fill="#2C2F31" /><path d="M14.1 45.6 C14.8 42 14.5 39.5 13.7 37.6 C17.2 39.4 22 38.9 25.5 36.9 C29.8 34.5 36.9 28.7 37.3 29.9 C36.3 32.3 35.2 34.5 34.5 36.2 C32 42.2 35.1 50.4 30.5 55 C26.3 59.3 11.8 57.6 5.5 56.7 C4.2 52.1 6.2 48.4 14.1 45.6 z" id="n" fill="#C6A67D" /><path d="M13.8 37.7 C12.1 33.3 6.9 32 3.1 27.7 C-2 21.9 -0.8 7.2 7.5 2.9 C14.4 -0.7 26.3 -1.7 33.5 4.7 C45.7 15.7 37.5 29.3 34.6 36.2 C34.5 36.4 34.4 36.6 34.3 36.9 C32.2 42.8 34.9 50.6 30.5 55 C26.3 59.3 11.8 57.6 5.5 56.7 C4.2 52.1 6.2 48.4 14.1 45.6 C14.8 42 14.5 39.5 13.7 37.6 C13.7 37.6 13.8 37.6 13.8 37.7 z M3.9 26.8 C7.6 30.9 12.2 34.6 14 36.2 C14.8 38 15.9 42.7 15.2 46.1 C7.7 48.8 6.2 50.5 6.2 54.3 C12.2 55.2 26 56.8 30 52.7 C34.2 48.5 31.6 41.1 33.5 35.5 C33.7 35.3 33.8 35.1 33.9 34.8 C36.6 28.3 44.4 15.4 32.8 4.9 C26 -1.2 14.7 -0.2 8.1 3.2 C0.2 7.3 -0.9 21.3 3.9 26.8 z" opacity="0.15" id="o" /></g><g transform="translate(211.52, 273.9) scale(0.6180328) translate(-214.7, -273.9) translate(103.6, 96.49997) translate(99, 152) scale(-1, 1) translate(-99, -152) translate(79, 123)" id="p"><path d="M14 38.2 C12.5 33.4 7.1 32.2 3.1 27.7 C-2 21.9 -0.8 7.2 7.5 2.9 C14.4 -0.7 26.3 -1.7 33.5 4.7 C45.7 15.7 37.5 29.3 34.6 36.2 C32 42.3 15 41.8 14 38.2 z" id="q" fill="#2C2F31" /><path d="M14.1 45.6 C14.8 42 14.5 39.5 13.7 37.6 C17.2 39.4 22 38.9 25.5 36.9 C29.8 34.5 36.9 28.7 37.3 29.9 C36.3 32.3 35.2 34.5 34.5 36.2 C32 42.2 35.1 50.4 30.5 55 C26.3 59.3 11.8 57.6 5.5 56.7 C4.2 52.1 6.2 48.4 14.1 45.6 z" id="r" fill="#C6A67D" /><path d="M13.8 37.7 C12.1 33.3 6.9 32 3.1 27.7 C-2 21.9 -0.8 7.2 7.5 2.9 C14.4 -0.7 26.3 -1.7 33.5 4.7 C45.7 15.7 37.5 29.3 34.6 36.2 C34.5 36.4 34.4 36.6 34.3 36.9 C32.2 42.8 34.9 50.6 30.5 55 C26.3 59.3 11.8 57.6 5.5 56.7 C4.2 52.1 6.2 48.4 14.1 45.6 C14.8 42 14.5 39.5 13.7 37.6 C13.7 37.6 13.8 37.6 13.8 37.7 z M3.9 26.8 C7.6 30.9 12.5 32.1 14 36.2 C14.8 38 16.6 42.3 16 45.7 C8.5 48.3 6.3 50 7.5 54.4 C13.5 55.2 25.2 56.8 29.2 52.8 C33.4 48.5 31.6 41.1 33.6 35.5 C33.7 35.3 33.8 35.1 33.9 34.8 C36.6 28.3 44.4 15.3 32.8 4.9 C26 -1.2 14.7 -0.3 8.1 3.2 C0.2 7.3 -0.9 21.2 3.9 26.8 z" opacity="0.15" id="s" /></g><g transform="translate(105.2, 117.8) translate(21, 73)" id="t"><path d="M10.5 29 C2.2 36.2 3.6 47.2 4 51.8 C4.7 60 6.7 69.2 8.3 74.5 C9.9 79.9 11.9 86.2 19.8 86.7 C27.8 87.2 59 87.2 66.6 86.1 C74.2 84.9 75 84 77.5 78 C81 69.8 88.1 42.5 80.2 33.2 C78.3 31 77 29.6 75.1 28.2 C70.8 25.2 65.8 23.2 62.9 20.8 C60.2 18.6 55.6 14.7 54.8 14 C53 12.4 49.5 11.4 43.9 11.5 C40.1 11.6 36.6 13.5 35.1 14.5 C33.6 15.5 32.2 17.8 26.6 20.7 C21.7 23.6 14.9 25.5 10.5 29 z" id="u" fill="#C6A67D" /><path d="M68.1 85.4 C56.4 86.5 47.8 87 42.1 87 C35.6 87 22 86.9 15.8 85.4 C13.5 84.8 12.8 82.9 12.9 82.3 C13.1 80.9 14.4 79.5 16.9 78.3 L26.7 74.4 L26.7 74.6 C32.5 72.5 37.4 71.5 41.3 71.5 C47.1 71.5 54.2 70.8 55.5 71.4 L66.8 74.6 C70.6 76 71.7 77.7 72.3 78.3 C73.4 79.3 74 79.4 74 81.4 C74 83.4 73 83.7 71.8 84.5 C71 84.8 69.8 85.2 68.1 85.4 z" id="v" fill="#725C54" /><path d="M10.5 29 C14.9 25.5 21.7 23.6 26.6 20.7 C32.2 17.8 33.6 15.5 35.1 14.5 C36.6 13.5 40.1 11.6 43.9 11.5 C49.5 11.4 53 12.4 54.8 14 C55.6 14.7 60.2 18.6 62.9 20.8 C65.8 23.2 70.8 25.2 75.1 28.2 C77 29.6 78.3 31 80.2 33.2 C88.1 42.5 81 69.8 77.5 78 C75 84 74.2 84.9 66.6 86.1 C59 87.2 27.8 87.2 19.8 86.7 C11.9 86.2 9.9 79.9 8.3 74.5 C6.7 69.2 4.7 60 4 51.8 C3.6 47.2 2.2 36.2 10.5 29 z M12 28.9 C4.1 35.8 5.4 46.2 5.8 50.6 C6.5 58.4 8.4 67.2 9.9 72.2 C11.4 77.3 13.3 83.4 20.9 83.8 C28.5 84.3 58.3 84.3 65.5 83.2 C72.7 82.1 73.5 81.2 75.9 75.5 C79.2 67.7 86 41.7 78.5 32.8 C76.7 30.7 75.4 29.4 73.6 28 C69.5 25.1 64.7 23.2 62 20.9 C59.4 18.8 55 15.1 54.3 14.4 C52.6 12.9 49.2 11.9 43.9 12 C40.3 12.1 36.9 13.9 35.5 14.9 C34.1 15.9 32.7 18 27.4 20.8 C22.7 23.8 16.2 25.6 12 28.9 z" opacity="0.15" id="w" /><path d="M41 46.4 C51.1 48.7 74.9 44.4 76 27.8 C69.6 20.2 62.8 20.2 60.1 15 C57.5 9.8 57 7.3 55.6 2.9 C54.8 0.1 35.4 -1.1 31.8 1.3 C29.7 1.5 28.2 7.5 24.6 15 C22.1 20.9 20 18.3 11 28.6 C12 43.4 31.4 46 41 46.4 z" id="x" fill="#725C54" /></g><g transform="translate(128.8581, 217.81) scale(1.039184, 0.6191548) translate(-130.4, -207.6) translate(91, 114.7) translate(78.5, 145.5) scale(-1, 1) translate(-78.5, -145.5) translate(39, 92)" id="y"><path d="M68.1 2.7 C65.6 5.6 57.8 23.3 40.2 24.2 C21.5 24.9 13.3 5.5 10.6 0.9 C7 8.7 1.1 13.8 0.5 26.6 C-0.1 39.4 4.4 46.5 6.7 52.8 C8.4 57.4 10.7 64.5 12.6 73.4 C13.3 76.6 15 81.2 15 84.3 C15.3 96.3 17.5 91.7 13.2 94.2 C8.9 96.7 5.2 101.6 6.7 104.5 C8.2 107.4 29.2 104.1 30.2 102.9 C30.7 102.3 30.9 95.4 30.7 74 C30.6 70.2 29.5 64.3 29.2 57 C29.1 53.6 30 50.6 29.7 46.2 C33.7 48.7 35.2 49.7 38.2 49.6 C41 49.7 42.2 48 46.8 45.5 C46.8 49.8 47.8 53.2 47.9 56.9 C48 63.8 47.3 70.3 47.2 74 C46.9 94.5 47.2 102.3 48 103.5 C49.2 105.2 56.8 106.1 70.8 106 C72.5 103.2 72.5 100.8 70.8 98.8 C69.1 96.8 66.2 94.7 62.2 92.4 C63.3 83.7 63.9 81.2 65.2 75.5 C66.2 71 67.7 62.7 68.7 60.2 C72.3 51.4 78.4 40.6 78.5 28.7 C78.6 16.8 72.4 8 68.1 2.7 z" id="z" fill="#E8CCA2" /><path d="M68.1 2.7 C72.4 8 78.5 16.8 78.4 28.7 C78.3 40.6 72.2 51.4 68.6 60.2 C67.6 62.8 66 71 65.1 75.5 C63.9 81.2 63.2 83.7 62.1 92.4 C66.1 94.7 69 96.8 70.7 98.8 C72.4 100.8 72.4 103.2 70.7 106 C56.7 106.1 49.1 105.2 47.9 103.5 C47.1 102.3 46.8 94.5 47.1 74 C47.2 70.3 47.9 63.8 47.8 56.9 C47.7 53.1 46.7 49.8 46.7 45.5 C42.1 48 40.9 49.7 38.1 49.6 C35.1 49.7 33.6 48.7 29.6 46.2 C30 50.6 29 53.6 29.2 57 C29.5 64.3 30.6 70.2 30.7 74 C30.9 95.4 30.7 102.3 30.2 102.9 C29.2 104.1 8.2 107.4 6.7 104.5 C5.2 101.6 8.9 96.7 13.2 94.2 C17.5 91.7 15.3 96.3 15 84.3 C14.9 81.1 13.2 76.6 12.6 73.4 C10.7 64.5 8.4 57.5 6.7 52.8 C4.4 46.5 -0.1 39.4 0.5 26.6 C1.1 13.8 7 8.7 10.6 0.9 C13.3 5.5 21.5 24.9 40.2 24.2 C57.8 23.3 65.6 5.6 68.1 2.7 z M68.1 3.9 C66.9 6.2 63.6 12.3 57.5 17.9 C52.5 22.5 44.3 27.3 38.5 27.3 C34.8 27.5 26 22.6 22.4 19.5 C17.8 15.6 11.8 5.2 10.6 1.4 C7.1 8.9 2.7 15.8 2.1 28 C1.5 40.2 5.9 45.5 8.1 51.5 C9.7 55.9 12.8 63.9 14.6 72.4 C15.2 75.4 16.9 80.5 17 83.5 C17.3 94.9 18.7 92.8 14.6 95.2 C10.5 97.6 7.6 99.2 9 101.9 C10.4 104.6 27 101.6 28 100.4 C28.5 99.8 28.8 95.8 28.6 75.4 C28.5 71.7 27.6 64.9 27.3 57.9 C27.2 54.7 26.9 46.1 26.6 41.9 C30.4 44.3 35 48 37.9 47.9 C40.6 48 45.9 43.8 50.3 41.4 C50.3 45.5 50.1 52.2 50.1 55.8 C50.2 62.3 49.2 68.8 49.2 72.3 C48.9 91.8 49.3 99.6 50 100.8 C51.1 102.4 55.2 104 68.5 103.9 C70.1 101.2 70.8 100.5 69.2 98.6 C67.6 96.7 64.2 95 60.4 92.8 C61.5 84.5 62.1 79.7 63.3 74.3 C64.2 70 65.8 62 66.8 59.5 C70.2 51.1 76.5 41.1 76.6 29.8 C76.6 18.6 72.2 8.9 68.1 3.9 z" opacity="0.15" id="a1" /></g></g><g id="b1"><g transform="translate(104.2, 131.3) translate(25, 0)" id="c1"><path d="M79.4 51 C77.8 37 79 20.9 75.8 15.2 C73.5 11 65.6 1.5 58.8 0.7 C51.9 -0.1 46.6 1.1 40.3 1.1 C34 1.1 28.8 -0.1 21.9 0.7 C15.1 1.5 7.3 11 4.9 15.2 C1.7 20.9 3 37 1.3 51 C0.1 61.5 0 70 2.4 73.7 C11.3 87.6 26.3 89.7 40.3 89.8 C54.3 89.7 69.2 87.6 78.1 73.7 C80.7 70 80.7 61.5 79.4 51 z" id="d1" fill="#725C54" /><path d="M79.4 67.2 C78 66 75.4 69.2 72.6 70 C70 71.2 60.8 76.4 54 76.8 C47.7 77.2 36.2 77.4 27.4 76.3 C16.6 74.9 9.1 70.2 8.2 69.9 C5.4 69.2 2.8 66 1.4 67.1 C1.3 67.2 1.2 67.3 1.1 67.5 C1.2 70.1 1.6 72.3 2.5 73.7 C6.1 79.3 10.4 83.8 15.8 85.4 C17.9 86 23.7 88.9 32.2 89.8 C39.3 90.6 44.3 90.1 50.5 89.3 C53.1 88.9 60.7 87.5 65 85.5 C69.6 83.3 74.7 79.4 78.3 73.8 C79.2 72.4 79.6 70.3 79.7 67.6 C79.7 67.4 79.5 67.3 79.4 67.2 z" id="e1" fill="#513A33" /><path d="M79.4 51 C80.7 61.5 80.7 70 78.1 73.7 C69.2 87.6 54.3 89.7 40.3 89.8 C26.3 89.7 11.3 87.6 2.4 73.7 C0 70 0.1 61.5 1.3 51 C3 37 1.7 20.9 4.9 15.2 C7.3 11 15.1 1.5 21.9 0.7 C28.8 -0.1 34 1.1 40.3 1.1 C46.6 1.1 51.9 -0.1 58.8 0.7 C65.6 1.5 73.5 11 75.8 15.2 C79 20.9 77.8 37 79.4 51 z M77.8 49.8 C76.3 36.3 77.5 20.9 74.4 15.4 C72.2 11.4 64.6 2.2 58.1 1.5 C51.4 0.7 46.4 1.9 40.3 1.9 C34.3 1.9 29.3 0.7 22.6 1.5 C16.1 2.2 8.6 11.4 6.3 15.4 C3.2 20.9 4.5 36.3 2.9 49.8 C1.7 59.8 1.6 68 3.9 71.6 C12.5 84.9 26.9 86.9 40.3 87 C53.7 86.9 68 84.9 76.6 71.6 C79.1 68 79.1 59.8 77.8 49.8 z" opacity="0.15" id="f1" /></g><g transform="translate(114.7, 115.6) translate(3, 2)" id="g1"><path d="M33.9 21.7 C35.1 19.6 35.4 14.7 32.2 12.1 C29.1 9.6 18.9 1.4 16 0.8 C13.1 0.2 11.9 0 9.8 0.8 C8 1.5 6.7 3.9 6.3 4.9 C5.4 7 1.1 13.6 1.1 21.6 C1.1 29.6 0.5 36.5 1.1 39.7 C1.7 42.8 3.2 42.8 4.7 42.8 C5.5 42.8 11.7 35.5 18.8 30.6 C26 25.6 32.8 23.8 33.9 21.7 z" id="h1" fill="#725C54" /><path d="M33.9 21.7 C32.8 23.8 26 25.6 18.8 30.6 C11.7 35.5 5.5 42.8 4.7 42.8 C3.2 42.8 1.7 42.8 1.1 39.7 C0.5 36.5 1.1 29.6 1.1 21.6 C1.1 13.6 5.4 7 6.3 4.9 C6.7 3.9 8 1.5 9.8 0.8 C11.9 0 13.1 0.2 16 0.8 C18.9 1.4 29.1 9.6 32.2 12.1 C35.4 14.7 35.1 19.6 33.9 21.7 z M32.1 20.3 C33.2 18.4 33.4 14.1 30.6 11.8 C27.9 9.6 18.9 2.3 16.3 1.8 C13.7 1.3 12.7 1.1 10.8 1.8 C9.2 2.4 8.1 4.5 7.7 5.4 C6.9 7.3 3.1 13.1 3.1 20.2 C3.1 27.3 2.6 33.4 3.1 36.3 C3.7 39 5 39 6.3 39 C7 39 12.5 32.5 18.7 28.2 C25.1 23.7 31.1 22.1 32.1 20.3 z" opacity="0.15" id="i1" /></g><g transform="translate(94.2, 118.8) translate(110, 21.5) scale(-1, 1) translate(-110, -21.5) translate(92, 0)" id="j1"><path d="M33.6 22.2 C34.4 20.7 35.3 19.4 35.3 18.1 C35.5 15.9 34.2 13.7 32.2 12.1 C29 9.6 20.6 2.3 15.9 0.8 C14.9 0.5 12.5 0.3 10.8 0.8 C8.4 1.6 6.8 3.7 6.2 4.9 C5.3 7 2.3 12.3 1 21.7 C-0.3 31 0.4 36.6 1 39.7 C1.6 42.8 3.1 42.8 4.6 42.8 C5.4 42.8 12.2 36.3 19.6 31.3 C26.6 26.5 32.8 23.6 33.6 22.2 z" id="k1" fill="#725C54" /><path d="M33.6 22.2 C32.8 23.6 26.6 26.5 19.6 31.3 C12.2 36.3 5.4 42.8 4.6 42.8 C3.1 42.8 1.6 42.8 1 39.7 C0.4 36.6 -0.3 31 1 21.7 C2.3 12.3 5.3 7 6.2 4.9 C6.8 3.7 8.4 1.6 10.8 0.8 C12.5 0.3 14.9 0.5 15.9 0.8 C20.6 2.3 29 9.6 32.2 12.1 C34.2 13.7 35.5 15.9 35.3 18.1 C35.3 19.4 34.4 20.7 33.6 22.2 z M31.9 20.5 C32.6 19.2 33.4 18 33.4 16.9 C33.6 15 32.4 13 30.6 11.6 C27.7 9.4 20.2 3 16 1.7 C15.1 1.4 13 1.3 11.4 1.7 C9.4 2.5 8 4.3 7.4 5.4 C6.6 7.2 3.9 11.9 2.8 20.1 C1.6 28.2 2.3 33.2 2.8 35.9 C3.3 38.6 4.7 38.6 6 38.6 C6.7 38.6 12.8 32.9 19.4 28.5 C25.7 24.3 31.2 21.7 31.9 20.5 z" opacity="0.15" id="l1" /></g><g id="m1"><g transform="translate(86.79999, 126.6) translate(53, 43)" id="n1"><g transform="translate(0, 9)" id="o1"><path d="M29.8 1 C33.9 0.7 37.3 1 40 1.8 C44.1 3.1 47.1 4.3 48.6 6 C50.1 7.7 52.5 11.7 53.9 15 C55.3 18.4 56 20.1 56.1 22.7 C56.2 25.3 55.9 29.5 57.7 34.6 C59.6 39.7 60 45.1 56.1 49.2 C52.2 53.3 52.5 53.8 48.6 53.6 C44.7 53.4 41.7 51.5 40 48.5 C38.3 45.5 35.1 41.9 31.5 41.5 C31.1 41.5 30.8 41.4 30.5 41.4 C30.4 41.4 30.3 41.5 30.1 41.5 L30.1 41.4 C30 41.4 29.9 41.4 29.8 41.4 C29.7 41.4 29.6 41.4 29.5 41.4 L29.5 41.5 C29.3 41.5 29.2 41.4 29.1 41.4 C28.8 41.4 28.5 41.5 28.1 41.5 C24.5 41.9 21.3 45.5 19.6 48.5 C17.9 51.5 14.9 53.4 11 53.6 C7.1 53.8 7.4 53.3 3.5 49.2 C-0.4 45.1 0 39.8 1.9 34.7 C3.8 29.6 3.5 25.4 3.5 22.8 C3.5 20.2 4.4 18.5 5.7 15.1 C7 11.7 9.6 7.7 11 6 C12.4 4.3 15.4 3.1 19.6 1.8 C22.3 1 25.7 0.7 29.8 1 z" id="p1" fill="#FAF4E8" /><path d="M43.8 52.4 C42.2 51.5 40.9 50.2 40 48.6 C38.3 45.6 35.1 42 31.5 41.6 C31.1 41.6 30.8 41.5 30.5 41.5 C30.4 41.5 30.3 41.6 30.1 41.6 L30.1 41.5 C30 41.5 29.9 41.5 29.8 41.5 C29.7 41.5 29.6 41.5 29.5 41.5 L29.5 41.6 C29.3 41.6 29.2 41.5 29.1 41.5 C28.8 41.5 28.5 41.6 28.1 41.6 C24.5 42 21.3 45.6 19.6 48.6 C19 49.7 18.2 50.7 17.2 51.4 C18.5 46.6 22 41.2 22 36.3 C22 28.9 16 20.6 17.8 15.3 C19.6 10 26.6 9.5 30.4 9.5 C34.2 9.5 38.9 9.5 41.2 14 C43.5 18.5 38.1 27.5 38.3 36.3 C38.3 42.2 42.8 47.6 43.8 52.4 z" id="q1" fill="#D8C6BA" /><path d="M19.7 48.4 C24.1 50.1 26.4 50.2 29.5 50.2 C36 50.2 39.7 48.2 39.7 48.2 C39.7 48.2 37.2 40.5 29.3 40.6 C21.5 40.6 19.7 48.4 19.7 48.4 z" id="r1" fill="#E8CCA2" /><path d="M29.8 1 C33.9 0.7 37.3 1 40 1.8 C44.1 3.1 47.1 4.3 48.6 6 C50.1 7.7 52.5 11.7 53.9 15 C55.3 18.4 56 20.1 56.1 22.7 C56.2 25.3 55.9 29.5 57.7 34.6 C59.6 39.7 60 45.1 56.1 49.2 C52.2 53.3 52.5 53.8 48.6 53.6 C44.7 53.4 41.7 51.5 40 48.5 C37.3 49.2 35.1 50.3 29.8 50.3 C24.5 50.3 22.2 49.5 19.6 48.5 C17.4 51.8 14.9 53.4 11 53.6 C7.1 53.8 7.4 53.3 3.5 49.2 C-0.4 45.1 0 39.8 1.9 34.7 C3.8 29.6 3.5 25.4 3.5 22.8 C3.5 20.2 4.4 18.5 5.7 15.1 C7 11.7 9.6 7.7 11 6 C12.4 4.3 15.4 3.1 19.6 1.8 C22.3 1 25.7 0.7 29.8 1 z M29.8 1 C26 0.7 22.9 1 20.4 1.7 C16.5 2.9 13.8 4 12.5 5.6 C11.2 7.2 8.8 10.9 7.6 14 C6.4 17.1 5.6 18.7 5.6 21.1 C5.6 23.5 5.9 27.4 4.1 32.1 C2.3 36.8 2 41.7 5.6 45.5 C9.2 49.3 8.9 49.7 12.5 49.6 C16.1 49.5 18.9 47.7 20.4 44.9 C21.9 42.1 20.4 48.3 29 48.3 C39.2 48.3 37.6 42.2 39.2 44.9 C40.8 47.7 43.5 49.4 47.1 49.6 C50.7 49.8 50.4 49.3 54 45.5 C57.6 41.7 57.2 36.7 55.5 32 C53.8 27.3 54.1 23.4 54 21 C53.9 18.6 53.3 17 52 13.9 C50.7 10.9 48.5 7.2 47.1 5.6 C45.8 4.1 43 3 39.2 1.8 C36.7 1 33.6 0.8 29.8 1 z" fill-opacity="0.4" id="s1" /></g></g><g transform="translate(169.5, 217.6) scale(0.8) translate(-169.5, -217.6) translate(104, 143.8) translate(38, 64)" id="t1"><g id="u1"><path d="M40.7 9.3 C36.3 7.2 33.8 11.5 29 11.5 C28.5 11.5 26.5 11.5 26 11.5 C21.2 11.6 18.7 7.3 14.3 9.3 C9.4 11.6 -0.1 5.3 0.5 6.2 C0.9 11.3 6.5 16.8 9.4 16.6 C10.4 16.5 14.1 16.3 15 16 C18.8 14.7 23.5 20.9 27.6 20.9 C31.7 20.9 36.3 14.7 40.1 16 C41 16.3 44.7 16.5 45.7 16.6 C48.5 16.8 54.2 11.3 54.6 6.2 C55.1 5.3 45.6 11.6 40.7 9.3 z" id="v1" fill="#965622" /><path d="M51.4 3.1 C50.2 3.8 48.8 6.6 46.8 7.6 C45.9 8.1 43.9 8.4 42.3 8 C41.3 7.4 40.1 6.6 38.6 5.6 C35.3 3.3 31.6 0.7 27.5 0.7 C23.4 0.7 19.7 3.3 16.4 5.6 C14.9 6.6 13.8 7.4 12.7 8 C11 8.4 9 8.1 8.1 7.7 C6.2 6.7 4.8 3.9 3.5 3.2 C2.4 2.5 0.2 3.8 0.2 5.3 C0 10.6 8.1 12.8 10.9 11.9 C12 11.7 13.1 11.3 14.3 10.7 C16.5 12 19.9 15.9 27.5 16.2 C35.1 16.5 38.5 12 40.7 10.7 C41.8 11.3 42.9 11.8 44 11.9 C46.8 12.8 54.9 10.6 54.7 5.3 C54.7 3.7 52.5 2.4 51.4 3.1 z" id="w1" fill="#282421" /><path d="M36.4 8.8 C36.2 7.9 35.1 7.4 34.2 7.2 C32 6.5 29.7 5.8 27.5 5.9 C25.2 5.8 23 6.5 20.8 7.2 C19.9 7.5 18.9 7.9 18.6 8.8 C18.4 9.7 18 11.8 18.7 12.4 C20.3 13.7 19.2 18.9 27.5 18.9 C35.8 18.9 34.6 13.8 36.2 12.4 C37 11.7 36.6 9.7 36.4 8.8 z" id="x1" fill="#CE5253" /></g></g><g transform="translate(169.5, 197) scale(1.3, 1.4) translate(-169.5, -201) translate(110, 130.5) translate(51, 63)" id="y1"><g id="z1"><path d="M8.5 0.8 C3 0.8 0.1 2.6 0.1 6.3 C0.1 9.3 1 9.5 2.6 11.1 C4.1 12.7 4.4 14.2 8.6 14.2 C12.8 14.2 13.1 12.7 14.6 11.1 C16.1 9.5 17.1 9.3 17.1 6.3 C16.9 2.6 14 0.8 8.5 0.8 z" id="a2" fill="#302622" /><path d="M12.1 4.4 C11.4 4.3 9.4 4.4 8.5 4.9 C7.6 4.4 5.7 4.2 4.9 4.4 C3.6 4.6 2.8 6.9 3 6.9 C3.2 7 4.9 5.8 5.7 6.1 C6.9 6.5 8 7.7 8.4 8.6 C8.8 7.8 9.9 6.5 11.1 6.1 C12 5.8 13.6 7 13.8 6.9 C14.2 6.9 13.3 4.6 12.1 4.4 z" id="b2" fill="#F7F7F7" /></g></g><g transform="translate(154.3, 163.5) scale(1.2) translate(-150.3, -171.5) translate(101.4, 123.7) translate(32, 17)" id="c2"><g id="d2"><path d="M16 8.1 C16.9 10.9 17.1 10.4 19.3 10.1 C20.1 10 21.3 8.5 22.6 7.4 C23.3 6.8 24.5 6 26.2 4.8 C26.2 2.2 25.8 0.9 25 1 C20.3 1.6 15.5 6.6 16 8.1 z" id="e2" fill="#353535" /><g transform="translate(0, 14)" id="f2"><path d="M5.2 12.9 C2.3 21.5 0.7 32.8 0.7 35.5 C0.7 38.2 1.9 39.3 3.6 39.7 C5.3 40.1 9.7 38.3 15.4 35.5 C21.1 32.7 25.5 30.9 26.9 26.4 C28.3 21.8 26.9 7.2 26.9 5.4 C26.9 3.5 23.5 0.5 20 0.6 C16.5 0.6 8.1 4.3 5.2 12.9 z" id="g2" fill="#C6A67D" /><path d="M17.2 31.3 C25.2 27.8 23.7 25.9 23.7 19.4 C23.7 12.9 23.6 6 20 6 C16.4 6 10.8 12.8 10.8 19.4 C10.7 26 9.1 34.8 17.2 31.3 z" id="h2" fill="#353535" /><path d="M18.3 12.7 C19 15.5 18.7 20.5 17 21.7 C16.6 22 15.4 22.5 15.1 21.7 C14.2 19.7 14.6 14.6 15.1 12.7 C15.2 12.3 15.8 11.7 16.5 11.6 C17.5 11.4 18.1 11.5 18.3 12.7 z" id="i2" fill="#FFF" /><ellipse cx="15.7" cy="24.9" rx="1" ry="1.5" id="j2" fill="#FFF" /></g></g></g><g transform="translate(181.4, 163.5) scale(1.2) translate(-185.4, -171.5) translate(99.29998, 123.3) translate(74, 17)" id="k2"><path d="M12.1 8.1 C11.2 10.9 11 10.4 8.8 10.1 C8 10 6.8 8.5 5.5 7.4 C4.8 6.8 3.6 6 1.9 4.8 C1.9 2.2 2.3 0.9 3.1 1 C7.7 1.6 12.6 6.6 12.1 8.1 z" id="l2" fill="#353535" /><path d="M22.8 26.9 C25.7 35.5 27.3 46.8 27.3 49.5 C27.3 52.2 26.1 53.3 24.4 53.7 C22.7 54.1 18.3 52.3 12.6 49.5 C6.8 46.7 2.5 44.9 1.1 40.4 C-0.3 35.8 1.1 21.2 1.1 19.4 C1.1 17.6 4.5 14.6 8 14.7 C11.6 14.6 19.9 18.3 22.8 26.9 z" id="m2" fill="#C6A67D" /><path d="M10.9 45.3 C2.9 41.8 4.4 39.9 4.4 33.4 C4.4 26.9 4.5 20 8.1 20 C11.7 20 17.3 26.8 17.3 33.4 C17.3 40 18.9 48.8 10.9 45.3 z" id="n2" fill="#353535" /><path d="M7.7 25.7 C7 28.5 6.8 33.5 7.4 34.9 C7.7 35.7 9.8 36.3 10.1 35.5 C11 33.5 11.3 28.5 10.7 26.6 C10.6 26.2 10.1 24.7 9.4 24.6 C8.5 24.4 7.9 24.5 7.7 25.7 z" id="o2" fill="#FFF" /><ellipse cx="8.4" cy="38.9" rx="1" ry="1.5" id="p2" fill="#FFF" /></g></g></g></g></g><defs><g transform="translate(17.09519, 0.800995) translate(-135.2952, -293.601)" id="q2" fill="#000"><path d="M118.2 302.7 C118.4 307.4 132.5 311.2 149.8 311.2 C167.1 311.2 181.2 307.4 181.4 302.7 C181.4 307.5 181.4 310.1 181.4 310.5 C181.4 315.3 167.3 319.1 149.8 319.1 C132.3 319.1 118.2 315.2 118.2 310.5 L118.2 302.7 L118.2 302.7 z" fill-opacity="0.4528" id="r2" fill="#593001" /><path d="M118.7 301.7 C118.9 306.4 133 310.2 150.3 310.2 C167.6 310.2 181.7 306.4 181.9 301.7 C181.9 306.5 181.9 309.1 181.9 309.5 C181.9 314.3 167.8 318.1 150.3 318.1 C132.8 318.1 118.7 314.2 118.7 309.5 L118.7 301.7 L118.7 301.7 z" id="s2" fill="#DA8113" /><linearGradient x1="46.0545" y1="-118.6926" x2="45.4656" y2="-118.6926" gradientUnits="userSpaceOnUse" gradientTransform="matrix(117.135, 0, 0, 28.4634, -5208.417, 3687.795)" id="t2"><stop offset="0%" stop-color="#D9952A" stop-opacity="1" /><stop offset="6.438854%" stop-color="#CA7519" stop-opacity="1" /><stop offset="30.54%" stop-color="#E3AD3A" stop-opacity="1" /><stop offset="51.05%" stop-color="#FFEC91" stop-opacity="1" /><stop offset="68.8%" stop-color="#E9BD44" stop-opacity="1" /><stop offset="86.24%" stop-color="#FFED6C" stop-opacity="1" /><stop offset="93.87%" stop-color="#F2D353" stop-opacity="1" /><stop offset="100%" stop-color="#F2B947" stop-opacity="1" /></linearGradient><path d="M118.2 301.6 C118.4 306.1 132.7 309.7 150.3 309.7 C167.9 309.7 182.2 306.1 182.4 301.6 C182.4 306.2 182.4 308.7 182.4 309 C182.4 313.5 168 317.2 150.3 317.2 C132.6 317.2 118.2 313.5 118.2 309 L118.2 301.6 L118.2 301.6 z" id="u2" style="fill:url(#t2)" /><linearGradient x1="45.4914" y1="-117.9547" x2="45.9407" y2="-117.5895" gradientUnits="userSpaceOnUse" gradientTransform="matrix(115.425, 0, 0, 29.925, -5125.077, 3826.124)" id="v2"><stop offset="0%" stop-color="#F4E072" stop-opacity="1" /><stop offset="100%" stop-color="#DB9427" stop-opacity="1" /></linearGradient><ellipse cx="150.3" cy="301.5" rx="31.6" ry="8.2" id="w2" style="fill:url(#v2)" /><linearGradient x1="45.4656" y1="-126.0065" x2="46.0545" y2="-126.0065" gradientUnits="userSpaceOnUse" gradientTransform="matrix(117.135, 0, 0, 18.6219, -5208.417, 2651.479)" id="x2"><stop offset="0%" stop-color="#D9952A" stop-opacity="1" /><stop offset="6.438854%" stop-color="#CA7519" stop-opacity="1" /><stop offset="30.54%" stop-color="#E3AD3A" stop-opacity="1" /><stop offset="51.05%" stop-color="#FFEC91" stop-opacity="1" /><stop offset="68.8%" stop-color="#E9BD44" stop-opacity="1" /><stop offset="86.24%" stop-color="#FFED6C" stop-opacity="1" /><stop offset="93.87%" stop-color="#F2D353" stop-opacity="1" /><stop offset="100%" stop-color="#F2B947" stop-opacity="1" /></linearGradient><path d="M119.2 299.9 C119 300.2 118.9 300.6 118.9 301 C118.9 305.5 132.9 309.2 150.3 309.2 C167.7 309.2 181.7 305.5 181.7 301 C181.7 300.6 181.6 300.3 181.4 299.9 C182 300.5 182.4 301.2 182.4 301.9 C182.4 306.4 168 310.1 150.3 310.1 C132.6 310.1 118.2 306.4 118.2 301.9 C118.2 301.3 118.6 300.6 119.2 299.9 z" id="y2" style="fill:url(#x2)" /><linearGradient x1="45.196" y1="-121.5895" x2="45.3746" y2="-120.6758" gradientUnits="userSpaceOnUse" gradientTransform="matrix(101.745, 0, 0, 23.94, -4458.332, 3199.41)" id="z2"><stop offset="0%" stop-color="#F8DD61" stop-opacity="1" /><stop offset="100%" stop-color="#EAA330" stop-opacity="1" /></linearGradient><ellipse cx="150.3" cy="300.8" rx="27.8" ry="6.6" id="a3" style="fill:url(#z2)" /><linearGradient x1="45.5694" y1="-134.267" x2="45.0221" y2="-134.267" gradientUnits="userSpaceOnUse" gradientTransform="matrix(101.745, 0, 0, 13.2525, -4458.332, 2077.223)" id="b3"><stop offset="0%" stop-color="#F4CA2F" stop-opacity="1" /><stop offset="51.38%" stop-color="#BF7737" stop-opacity="1" /><stop offset="100%" stop-color="#E4A929" stop-opacity="1" /></linearGradient><path d="M122.6 301.5 C122.5 301.3 122.4 301 122.4 300.8 C122.4 297.2 134.9 294.2 150.2 294.2 C165.5 294.2 178 297.1 178 300.8 C178 301 177.9 301.3 177.8 301.5 C176.3 298.2 164.5 295.6 150.1 295.6 C135.7 295.6 124.1 298.2 122.6 301.5 z" id="c3" style="fill:url(#b3)" /></g></defs><desc>2HH5H2BHK2F,/fc/L/742ZwSXSDGHpm3dCXKgQpavJgCEOyK6hejdbunECcq/VQ6GF7NrVXufpTo21UNDkKYAD+Sc8y1wfYThA==</desc></svg>