<?xml version="1.0" encoding="utf-8"?><!DOCTYPE svg PUBLIC "-//W3C//DTD SVG 1.1//EN" "http://www.w3.org/Graphics/SVG/1.1/DTD/svg11.dtd"><svg x="0" y="0" width="340px" height="340px" viewBox="0, 0, 340, 340" preserveAspectRatio="xMidYMid" font-size="0" id="a" enable-background="new 0 0 340 340" xmlns="http://www.w3.org/2000/svg" xmlns:xlink="http://www.w3.org/1999/xlink" xmlns:xml="http://www.w3.org/XML/1998/namespace" version="1.1"><g id="b" fill="#000"><g id="c"><g transform="translate(0, 0) translate(0, 224)" id="d"><ellipse cx="168.6" cy="53.1" rx="57.8" ry="12.8" fill-opacity="0.25" id="e" /></g><g id="f"><g transform="translate(102.5, 118.9) translate(0, 122)" id="g"><g id="h"><path d="M37.2 31.3 C12.9 30.6 2.2 26.6 0.8 19.3 C0 15.1 -0.4 9.5 0.8 6.5 C2.8 1.8 7.8 0.9 9.2 0.7 C11.4 0.3 13.8 1.1 16.3 3.1 C16.9 3.7 17.2 4.6 17.3 5.9 C17.3 7.7 18.4 8.8 15.8 9.1 C13.3 9.5 11.8 7.1 10.3 7.3 C8.8 7.5 8.3 9.9 8.3 10.8 C8.3 11.7 7.9 13.8 10.8 15.2 C12.8 16.1 26.9 18.4 37.1 19.7 L37.2 31.3 z" id="i" fill="#3D2B26" /><path d="M8.7 1.6 C10.1 1 12.4 0.6 16.3 2.9 C17.6 3.8 18.2 5.1 18.2 6.7 C18.2 7.6 17.8 10 15.4 9.8 C13 9.6 11.8 7.5 10.3 7.8 C9.3 8 8.6 9 8.3 11 C8.3 13 9.3 14.4 11.2 15.2 C13.1 16 25.3 18.6 35.6 19.6 C36.9 23.3 35.1 25.6 34.4 25.6 C32.9 25.6 15.5 23.4 9.9 20.2 C4.2 17 4.5 15.8 3.7 10.4 C2.9 4.8 7.8 2 8.7 1.6 z" id="j" fill="#725C54" /><path d="M15.2 2.3 C15.5 2.5 15.9 2.7 16.3 2.9 C17.6 3.8 18.2 5.1 18.2 6.7 C18.2 7.6 17.8 10 15.4 9.8 C13 9.6 11.8 7.5 10.3 7.8 C9.3 8 8.6 9 8.3 11 C8.3 13 9.3 14.4 11.2 15.2 C11.8 15.4 13.2 15.8 15.2 16.3 C20.6 17.4 29.9 18.8 37.1 19.7 L37.2 31.3 C12.9 30.6 2.2 26.6 0.8 19.3 C0 15.1 -0.4 9.5 0.8 6.5 C2.8 1.8 7.8 0.9 9.2 0.7 C11.1 0.4 13.1 0.9 15.2 2.3 z M17.7 5.9 C17.7 4.9 17 4 15.7 3.1 C13.7 1.8 11.7 0.5 10 0.8 C8.6 1.1 4 1.9 2.2 6.2 C1.1 9 1.5 14.2 2.2 18 C3.5 24.7 13.4 28.4 35.8 29.1 L35.8 20.7 C29.1 19.8 21.3 18.7 16.3 17.7 C14.5 17.3 10.8 16.1 10.3 15.9 C8.5 15.2 7.8 14.2 7.8 10.8 C8 9 9.1 7.1 10.6 7.1 C12 7.1 13.4 9.1 15.6 9.3 C17.8 9.5 17.7 6.8 17.7 5.9 z" opacity="0.15" id="k" /></g></g><g transform="translate(131.7933, 272.8) scale(0.6861538) translate(-129, -272.8) translate(104.3, 77.29997) translate(17, 136)" id="l"><path d="M4.3 33.6 C3.8 31 3.1 28.2 2.7 25.4 C2.3 26 1.9 26.7 1.5 27.5 C0.3 22.8 0.4 11.7 4 6.1 C4 6.1 4 6.1 4 6 C4 5.9 4.1 5.9 4.1 5.8 C4.1 5.8 4.1 5.7 4.2 5.7 C4.5 5.2 4.8 4.8 5.2 4.3 C10.6 -1.3 22.8 -0.7 30 5.8 C42.2 16.8 34 33.7 31.1 40.5 C28.6 46.5 9.7 46.3 9.1 44.4 C8 40.8 6.8 36.8 5.7 32.8 C5.2 33.1 4.8 33.4 4.3 33.6 z" id="m" fill="#513A33" /><path d="M10.6 49.9 C10.1 47.8 9.4 45.5 8.7 43.1 C10.5 41.2 12.7 40.4 15.2 40.1 C16.9 39.9 18.7 40.1 20.4 40 C22.6 39.8 24.8 37.8 26.5 36.7 C28.1 35.7 31.4 33.6 33.1 35.5 C32.3 37.5 31.6 39.2 31 40.6 C28.5 46.6 31.6 54.8 27 59.4 C22.8 63.7 6.5 62.5 2 60.7 C1.9 55.1 6.2 55.3 10.6 49.9 z" id="n" fill="#C6A67D" /><path d="M30.8 41 C28.6 47 31.5 54.9 27 59.4 C22.8 63.7 6.5 62.5 2 60.7 C1.9 55.1 6.2 55.3 10.6 49.9 C10.1 47.8 9.4 45.5 8.7 43.1 L8.7 43.1 C7.7 39.8 6.7 36.3 5.7 32.8 C5.2 33.1 4.8 33.4 4.3 33.6 C3.8 31 3.1 28.2 2.7 25.4 C2.3 26 1.9 26.7 1.5 27.5 C0.3 22.8 0.4 11.7 4 6.1 L4 6 C4 5.9 4.1 5.9 4.1 5.8 C4.1 5.8 4.1 5.7 4.2 5.7 C4.5 5.2 4.8 4.8 5.2 4.3 C10.6 -1.3 22.8 -0.7 30 5.8 C42.2 16.8 34 33.7 31.1 40.5 C31 40.7 30.9 40.8 30.8 41 z M29.2 40.7 C29.8 39.6 30.2 39 30.2 38.9 C32.9 32.5 40.6 16.8 29.2 6.6 C22.5 0.5 11.2 0 6.1 5.2 C5.8 5.7 5.5 6 5.2 6.5 C5.1 6.5 5.1 6.6 5.1 6.6 C5.1 6.7 5 6.7 5 6.9 C1.7 12.1 0.8 20.2 1.9 24.6 C2.3 23.9 3.3 23.5 3.7 22.9 C4.1 25.5 5 29 5.4 31.4 C5.9 31.2 6.5 30 7 29.7 C7.9 33 8.5 38.3 9.4 41.3 L9.9 40.7 C10.6 42.9 12.1 48.3 12.6 50.3 C8.5 55.3 4.9 53.5 5 58.7 C9.2 60.4 22.5 60.4 26.4 56.4 C30.6 52.3 27.2 46.2 29.2 40.7 z" opacity="0.15" id="o" /></g><g transform="translate(205.1066, 272.9) scale(0.6861538) translate(-207.9, -272.9) translate(98.3, 77.39998) translate(98.5, 167.5) scale(-1, 1) translate(-98.5, -167.5) translate(80, 136)" id="p"><path d="M4.3 33.6 C3.8 31 3.1 28.2 2.7 25.4 C2.3 26 1.9 26.7 1.5 27.5 C0.3 22.8 0.4 11.7 4 6.1 C4 6.1 4 6.1 4 6 C4 5.9 4.1 5.9 4.1 5.8 C4.1 5.8 4.1 5.7 4.2 5.7 C4.5 5.2 4.8 4.8 5.2 4.3 C10.6 -1.3 22.8 -0.7 30 5.8 C42.2 16.8 34 33.7 31.1 40.5 C28.6 46.5 9.7 46.3 9.1 44.4 C8 40.8 6.8 36.8 5.7 32.8 C5.2 33.1 4.8 33.4 4.3 33.6 z" id="q" fill="#513A33" /><path d="M10.6 49.9 C10.1 47.8 9.4 45.5 8.7 43.1 C10.5 41.2 12.7 40.4 15.2 40.1 C16.9 39.9 18.7 40.1 20.4 40 C22.6 39.8 24.8 37.8 26.5 36.7 C28.1 35.7 31.4 33.6 33.1 35.5 C32.3 37.5 31.6 39.2 31 40.6 C28.5 46.6 31.6 54.8 27 59.4 C22.8 63.7 6.5 62.5 2 60.7 C1.9 55.1 6.3 55.3 10.6 49.9 z" id="r" fill="#C6A67D" /><path d="M30.8 41 C28.6 47 31.5 54.9 27 59.4 C22.8 63.7 6.5 62.5 2 60.7 C1.9 55.1 6.3 55.3 10.6 49.9 C10.1 47.8 9.4 45.5 8.7 43.1 L8.7 43.1 C7.7 39.8 6.7 36.3 5.7 32.8 C5.2 33.1 4.8 33.4 4.3 33.6 C3.8 31 3.1 28.2 2.7 25.4 C2.3 26 1.9 26.7 1.5 27.5 C0.3 22.8 0.4 11.7 4 6.1 L4 6 C4 5.9 4.1 5.9 4.1 5.8 C4.1 5.8 4.1 5.7 4.2 5.7 C4.5 5.2 4.8 4.8 5.2 4.3 C10.6 -1.3 22.8 -0.7 30 5.8 C42.2 16.8 34 33.7 31.1 40.5 C31 40.7 30.9 40.8 30.8 41 z M29.7 38.9 L28.4 41.3 C28.5 41.1 29.9 38.6 30 38.5 C32.6 32.3 40.1 16.8 29 6.7 C22.4 0.8 11.3 0.2 6.4 5.3 C6 5.8 5.8 6.2 5.5 6.6 C5.4 6.6 5.4 6.7 5.4 6.7 C5.4 6.8 5.3 6.8 5.3 7 C2 12.1 1 20.4 2.1 24.7 C2.5 24 3.6 23.6 4 23.1 C4.3 25.6 4.5 29 5 31.3 C5.4 31.2 6.6 30.2 7 29.9 C7.9 33.1 8.7 37.9 9.6 40.9 C10.2 43.1 12.1 47.7 12.6 49.7 C8.6 54.6 5.5 53.1 5.6 58.3 C9.7 59.9 21.5 60.7 25.4 56.8 C29.4 52.7 27.7 44.4 29.7 38.9 z" opacity="0.15" id="s" /></g><g transform="translate(102.1, 98.99998) translate(27, 90)" id="t"><path d="M64.2 29.4 C59.3 18.2 71.8 0.9 40.2 0.9 C9.5 0.9 19.6 18.2 14.7 29.4 C10.1 39.8 9.6 51.5 10.3 63 C11.3 79.5 15.6 89 39.4 89 C63.2 89 67.5 79.6 68.5 63 C69.3 51.5 68.8 39.9 64.2 29.4 z" id="u" fill="#C6A67D" /><path d="M64.2 29.4 C68.8 39.9 69.3 51.5 68.5 63 C67.5 79.6 63.2 89 39.4 89 C15.6 89 11.3 79.5 10.3 63 C9.6 51.5 10.1 39.8 14.7 29.4 C19.6 18.2 9.5 0.9 40.2 0.9 C71.8 0.9 59.3 18.2 64.2 29.4 z M62.8 28.8 C58.1 18 69.9 1.5 40.2 1.5 C11.3 1.5 20.8 18.1 16.2 28.8 C11.8 38.7 11.3 50 12 61 C12.9 76.8 17 85.9 39.4 85.9 C61.8 85.9 65.9 76.9 66.8 61 C67.6 50 67.1 38.8 62.8 28.8 z" opacity="0.15" id="v" /></g><g fill-rule="evenOdd" transform="translate(137.6415, 206.75) scale(0.7651377, 0.6169871) translate(-128.2, -189.8) translate(101.4, 103.6) translate(67, 148) scale(-1, 1) translate(-67, -148) translate(27, 86)" id="w"><g id="x"><path d="M4.2 48.6 C1.9 35.9 3.3 31.3 7.6 21.8 C17.6 33.1 28.5 36.5 40.5 38.4 C50 37 61.7 33.9 72.4 21.8 C76.7 31.3 78.1 35.9 75.8 48.6 C71.9 70.1 71.8 67 68.8 80.9 C68.1 84 66.7 88.9 65.5 94.1 C64.1 100.2 51.8 95.1 52.8 79.4 C53.1 74.8 53.2 71 52.9 69 C52.1 62.5 47.9 60.6 39.8 56.8 C31.8 60.6 27.6 62.5 26.7 69 C26.4 71 26.5 74.8 26.8 79.4 C27.8 95.1 15.5 100.2 14.1 94.1 C12.9 88.9 11.5 84 10.8 80.9 C8.2 67.1 8 70.1 4.2 48.6 z" id="y" fill="#725C54" /><path d="M16.1 111.4 C16.7 107.8 16.1 103.2 15.3 98.5 C15 97 14.7 95.6 14.4 94.1 C14.4 94 14.4 94 14.4 93.9 C14.4 91.2 15 88.4 16 85.9 C16.2 85.5 16.7 85.3 17.1 85.5 C17.8 85.8 19.2 86.6 19.9 85.7 C20.7 84.8 21.6 79.4 22.2 76.1 C22.3 75.5 22.9 75.3 23.4 75.6 C24.3 76.2 26.4 76.8 26.9 78.2 C28.5 86.7 33.3 93.3 32.9 101.2 C32 100.2 31.4 99.1 30.4 98.2 C31.4 101.1 31.9 104.3 33 107.2 C31.8 107.2 30.3 106.3 29.3 104.3 C29.3 104.6 29.4 104.9 29.4 105.3 C30.5 108.9 31.7 111.2 31.1 115.1 C30.9 114.9 30.7 114.8 30.5 114.6 C30.9 118.6 31.2 121.2 31.1 121.4 C29.4 124.7 12.6 123.2 10.6 121.5 C10.9 117.7 11.2 114.5 16.1 111.4 z" id="z" fill="#E8CCA2" /><path d="M50.6 104.4 C49.6 106.3 48.1 107.3 46.9 107.3 C48 104.5 48.5 101.2 49.5 98.3 C48.5 99.2 47.9 100.3 47 101.3 C46.6 93.4 51.4 86.8 53 78.4 C53.5 76.9 55.6 76.3 56.5 75.7 C57 75.4 57.6 75.7 57.7 76.2 C58.4 79.5 59.3 84.9 60 85.8 C60.7 86.7 62.2 85.9 62.8 85.6 C63.2 85.4 63.7 85.6 63.9 86 C64.9 88.6 65.4 91.3 65.5 94 C65.5 94.1 65.5 94.1 65.5 94.2 C65.2 95.7 64.9 97.1 64.6 98.6 C63.7 103.3 63.2 107.9 63.8 111.5 C68.7 114.6 69 117.8 69.2 121.9 C67.2 123.5 50.4 125 48.7 121.8 C48.6 121.5 48.9 118.9 49.3 115 C49.1 115.2 48.9 115.3 48.7 115.5 C48 111.6 49.3 109.3 50.4 105.7 C50.5 105.1 50.5 104.8 50.6 104.4 z" id="a1" fill="#E8CCA2" /><path d="M14.1 94.1 C12.9 88.9 11.5 84 10.8 80.9 C8.2 67.1 8 70.1 4.2 48.6 C1.9 35.9 3.3 31.3 7.6 21.8 C17.6 33.1 28.5 36.5 40.5 38.4 C50 37 61.7 33.9 72.4 21.8 C76.7 31.3 78.1 35.9 75.8 48.6 C71.9 70.1 71.8 67 68.8 80.9 C68.1 84 66.7 88.9 65.5 94.1 C65.2 95.7 64.9 97.1 64.6 98.6 C63.7 103.3 63.2 107.9 63.8 111.5 C68.7 114.6 69 117.8 69.2 121.9 C67.2 123.5 50.4 125 48.7 121.8 C48.6 121.5 48.9 118.9 49.3 115 C49.1 115.2 48.9 115.3 48.7 115.5 C48 111.6 49.3 109.3 50.4 105.7 C50.5 105.1 50.5 104.8 50.6 104.4 C49.6 106.3 48.1 107.3 46.9 107.3 C48 104.5 48.5 101.2 49.5 98.3 C48.5 99.2 47.9 100.3 47 101.3 C46.6 93.7 51 87.3 52.8 79.4 C53.1 74.8 53.2 71 52.9 69 C52.1 62.5 47.9 60.6 39.8 56.8 C31.8 60.6 27.6 62.5 26.7 69 C26.4 70.8 26.5 73.9 26.7 77.8 C26.8 77.9 26.8 78.1 26.9 78.2 C28.5 86.7 33.3 93.3 32.9 101.2 C32 100.2 31.4 99.1 30.4 98.2 C31.4 101.1 31.9 104.3 33 107.2 C31.8 107.2 30.3 106.3 29.3 104.3 C29.3 104.6 29.4 104.9 29.4 105.3 C30.5 108.9 31.7 111.2 31.1 115.1 C30.9 114.9 30.7 114.8 30.5 114.6 C30.9 118.6 31.2 121.2 31.1 121.4 C29.4 124.7 12.6 123.2 10.6 121.5 C10.9 117.7 11.2 114.5 16.1 111.4 C16.7 107.8 16.1 103.2 15.3 98.5 C15.1 97.4 14.9 96.4 14.7 95.4 C14.4 95 14.2 94.6 14.1 94.1 z M15.9 92.6 C16 93.1 16.2 93.5 16.5 93.8 C16.7 94.8 16.8 95.7 17 96.7 C17.8 101 17.6 109.1 17 112.5 C12.5 115.4 13.1 115.4 12.8 119 C14.7 120.6 27.9 121.5 29.5 118.4 C29.6 118.2 29.5 116.7 29.1 112.9 C29.3 113.1 30.3 113.2 30.5 113.4 C31 109.8 28.8 106.3 27.8 103 C27.8 102.6 29.1 102.4 29.1 102.2 C30.1 104 30.4 105.4 31.5 105.4 C30.4 102.7 30.1 99.2 29.1 96.5 C30.1 97.3 30.5 97.2 31.4 98.1 C31.8 90.8 27.8 87.5 26.3 79.7 C25.2 72.1 24.7 67.8 24.9 66.7 C25.7 60.7 33.1 57.4 40.5 53.9 C48.1 57.4 53.5 62.5 54.2 68.5 C54.5 70.4 54.2 76.8 53.9 81.1 C52.3 88.5 48.1 90.5 48.5 97.6 C49.3 96.6 50.2 97.3 51.1 96.5 C50.2 99.2 49.4 102.4 48.3 105 C49.5 105 50.7 103.3 51.6 101.6 C51.5 101.9 51.5 104.9 51.4 105.4 C50.4 108.8 48.9 109.5 49.5 113.1 C49.7 112.9 50.5 113.6 50.7 113.4 C50.3 117 50.2 119.6 50.3 119.9 C51.9 122.8 64.8 121.2 66.6 119.7 C66.5 115.9 66.6 115.5 62 112.6 C61.5 109.3 62.3 103.9 63.1 99.5 C63.4 98.1 64.3 93.5 64.5 92 C65.7 87.2 66.1 83.2 66.8 80.3 C69.6 67.4 69.6 70.3 73.3 50.3 C75.4 38.5 76.3 33 72.3 24.2 C62.3 35.4 49.3 39.5 40.5 40.8 C29.3 39.1 17.3 34.7 8 24.2 C4 33 4.6 38.5 6.7 50.3 C10.3 70.3 10.4 67.5 12.9 80.3 C13.5 83.2 14.8 87.8 15.9 92.6 z" opacity="0.15" id="b1" /><path d="M2.4 21.6 C3.5 17.3 6.2 13.6 8.9 9.2 C13.9 1.1 34.4 0.4 40 0.4 C45.6 0.4 66.1 1.1 71.1 9.2 C73.8 13.6 76.5 17.3 77.6 21.6 C80.2 28.1 80 35.8 76.9 42.1 C76.2 40.2 75.5 38.3 74.9 36.4 C74.7 36.7 74.5 37 74.3 37.4 C73.7 39.8 72.4 42 71.2 44.2 C69.9 46.6 68.6 49.2 68.7 51.9 C67.9 49.3 67.3 49.4 66.5 46.8 C64.5 54.7 60.5 57.5 57.6 64.1 C57 60.6 56.9 60.3 56.4 57.3 C56.1 57.6 55.9 57.8 55.6 58.1 C53.5 63.5 51.7 67.1 46.9 72.6 C47 71.1 46.7 69.5 46.4 68 C42.8 72.1 40.3 75.6 40.1 77.9 C39.8 75.8 37.6 72.6 34.5 68.8 C34.4 70 34.4 71.2 34.5 72.4 C29.7 66.9 26.8 63.4 24.6 58.1 C24.3 57.8 24 57.5 23.8 57.2 C23.2 60.5 22.9 62.8 22.3 66.3 C19.4 59.7 15.8 54.6 13.8 46.7 C13 49.3 12.4 49.2 11.6 51.8 C11.7 49.1 10.4 46.5 9.1 44.1 C7.9 41.9 6.6 39.7 6 37.3 C5.8 37 5.6 36.6 5.4 36.3 C4.7 38.2 4 40.1 3.4 42 C-0.1 35.8 -0.2 28.1 2.4 21.6 z" id="c1" fill="#E8CCA2" /><path d="M23.2 1.7 C30 0.2 37 0.4 40 0.4 C43 0.4 50 0.2 56.8 1.7 C62.7 4.6 60.2 19.3 59 23 C58.9 23.5 58.7 23.9 58.6 24.3 C57.3 32.5 53.1 40 52.4 39.8 C51.5 39.5 50.6 36.3 50.4 34 C50.5 38.8 46.3 46.6 45.8 46.5 C45.4 46.4 44.3 45.8 43.6 44.8 C43.3 45.9 43.1 46.8 42.8 47.7 C41.2 52.2 41.7 55.5 41.7 55.5 C41.7 55.5 38.9 54 37.2 47.7 C37 46.8 36.6 45.9 36.4 44.8 C35.6 45.7 34.5 46.4 34.2 46.5 C33.6 46.6 29.4 38.8 29.6 34 C29.4 36.3 28.5 39.6 27.6 39.8 C26.9 40 22.7 32.4 21.4 24.3 C21.3 23.9 21.1 23.5 21 23 C19.8 19.3 17.3 4.5 23.2 1.7 z" id="d1" fill="#D8D8D8" /><path d="M22.5 2.1 C22.7 1.9 23 1.8 23.2 1.7 C30 0.2 37 0.4 40 0.4 C43 0.4 50 0.2 56.8 1.7 C57 1.8 57.3 1.9 57.5 2.1 C63.3 3.3 68.8 5.5 71.1 9.2 C73.8 13.6 76.5 17.3 77.6 21.6 C80.2 28.1 80 35.8 76.9 42.1 C76.2 40.2 75.5 38.3 74.9 36.4 C74.7 36.7 74.5 37 74.3 37.4 C73.7 39.8 72.4 42 71.2 44.2 C69.9 46.6 68.6 49.2 68.7 51.9 C67.9 49.3 67.3 49.4 66.5 46.8 C64.5 54.7 60.5 57.5 57.6 64.1 C57 60.6 56.9 60.3 56.4 57.3 L55.6 58.1 C53.5 63.5 51.7 67.1 46.9 72.6 C47 71.1 46.7 69.5 46.4 68 C42.8 72.1 40.3 75.6 40.1 77.9 C39.8 75.8 37.6 72.6 34.5 68.8 C34.4 70 34.4 71.2 34.5 72.4 C29.7 66.9 26.8 63.4 24.6 58.1 C24.3 57.8 24 57.5 23.8 57.2 C23.2 60.5 22.9 62.8 22.3 66.3 C19.4 59.7 15.8 54.6 13.8 46.7 C13 49.3 12.4 49.2 11.6 51.8 C11.7 49.1 10.4 46.5 9.1 44.1 C7.9 41.9 6.6 39.7 6 37.3 C5.8 37 5.6 36.6 5.4 36.3 C4.7 38.2 4 40.1 3.4 42 C-0.1 35.8 -0.2 28.1 2.4 21.6 C3.5 17.3 6.2 13.6 8.9 9.2 C11.2 5.5 16.7 3.4 22.5 2.1 z M23.6 2.9 C18.1 4.1 12.9 6.1 10.7 9.6 C8.2 13.7 5 16.5 3.9 20.5 C1.5 26.7 -0.2 32.4 3.1 38.2 C3.7 36.4 5.9 34.1 6.6 32.3 C6.8 32.5 7.8 35.7 8 36 C8.6 38.3 9.6 39.8 10.7 41.8 C12 44.1 12 44.9 11.9 47.5 C12.6 45 13.5 44.9 14.3 42.5 C16.2 49.9 19 56 21.7 62.2 C22.3 58.9 22 55.1 22.6 52 C22.8 52.2 25.2 55.3 25.5 55.6 C27.6 60.6 28.7 63.4 33.2 68.6 C33.1 67.5 33.7 65.8 33.8 64.7 C36.7 68.3 39.8 72.2 40.1 74.2 C40.3 72 43.1 67.1 46.5 63.2 C46.8 64.7 48.3 67.2 48.2 68.6 C52.7 63.4 52.7 60.7 54.7 55.6 L57 53.1 C57.5 55.9 57.6 56.7 58.2 60 C60.9 53.8 64.5 50.6 66.4 43.2 C67.1 45.7 67.7 45.6 68.5 48.1 C68.4 45.5 68.6 43.8 69.9 41.6 C71 39.5 71.7 38.4 72.3 36.1 C72.4 35.7 74.6 32.1 74.8 31.8 C75.4 33.6 76.2 36.4 76.9 38.2 C79.8 32.3 77.7 25.3 75.3 19.2 C74.3 15.2 71.8 13.7 69.3 9.6 C67.1 6.1 61.9 4.1 56.4 2.9 C56.2 2.8 56 2.6 55.8 2.5 C49.4 1.1 42.7 1 39.9 1 C37.1 1 30.6 1.1 24.2 2.5 C24 2.6 23.8 2.8 23.6 2.9 z" opacity="0.15" id="e1" /></g></g></g><g id="f1"><g transform="translate(158.5, 119.7) rotate(6, 0, 0) scale(1.4, 1.35) translate(-143.5, -144.7) translate(99.39999, 103.6) translate(2, 36)" id="g1"><g opacity="0.15" transform="translate(0, 1)" id="h1"><path d="M38.9 0.5 C40.6 0.1 43.3 0.2 45 1.6 C45.9 2.3 45 3.6 45.8 4.6 C46.5 5.5 47.7 4.2 48.5 5.2 C49 5.8 49 5.9 49 7.8 C49 9.7 51 7 51.9 9.4 C52.1 10 52.4 11 52.7 11.5 C52.9 12 53.3 11 54.6 12.9 C55.9 14.8 55.4 16.4 56.3 17.5 C57.3 18.7 58.7 18.6 59.6 21 C60.5 23.4 57.9 21.9 58.3 22.9 C58.8 24.2 61 25.6 61.3 27.1 C61.5 28.4 59.6 29.2 59.6 30.6 C59.6 31.6 62.5 32.1 63.3 33.7 C63.9 34.9 62.3 37.2 62.5 38 C62.8 39.4 64.7 38.7 64.8 40.8 C64.9 43.5 61.8 43.8 62.5 45.9 C62.8 46.7 64.7 49.1 64.8 51.1 C64.9 53.1 62.5 51.9 62.5 52.4 C62.5 53.7 63.5 57 63.9 58.2 C64.5 60.4 62.7 60.7 62.5 61.7 C62.4 62.4 63.3 65.1 63.3 66.7 C63.3 68.3 61.7 65.7 61.3 66.7 C60.9 67.7 62.4 69 61.8 70.4 C61.2 71.8 59.2 71.2 58.9 72.2 C57.9 75 59.9 75 59.7 76.1 C59.5 77.2 58.6 78.7 58.4 79.3 C56.2 81.3 56.4 78.9 54 80.9 C51.9 82.7 51.6 79.5 49.5 80 C48.3 82 46.3 85 44.7 86.7 C42.9 88.5 45.2 80.7 43 82.6 C40.8 84.5 39.4 87.9 36.9 88.7 C34.4 89.5 32.9 85.8 30.5 86.6 C28.1 87.4 26.7 90.7 23.4 90.6 C20.1 90.5 20 86.2 17.2 84.8 C14.4 83.3 14 85.5 12 83 C10 80.5 11.5 76.6 10.8 75.2 C10.1 73.8 8.5 78.5 6.6 75.9 C4.7 73.3 11.2 63.8 10.4 61.9 C9.6 60 5.6 70.1 4.5 67.2 C3.4 64.4 5.4 60 4.9 58.9 C4.4 57.8 2 58.4 1.2 56.5 C0.1 54 -0.2 53.8 0.6 49.8 C0.9 48.3 3.5 46.1 3.8 43.1 C4.1 41.5 1.9 41.3 2.5 38.3 C2.9 36.2 7 34.9 6.6 33.1 C4.3 30.2 8.9 32 10.7 29 C12.2 26.6 10.8 24.2 12.2 21.7 C13.7 19.1 17.9 19.7 20.1 17.5 C22.5 15.2 31.1 5 32.4 3.5 C34.2 1.4 36 1 37.9 1.6 C38.2 1.2 38.6 0.9 38.9 0.5 z" stroke="#000000" stroke-width="3" opacity="0.15" id="i1" /></g><g id="j1"><path d="M32.4 3.5 C31.1 5 22.5 15.2 20.1 17.5 C17.9 19.7 15.1 19.4 13.6 22 C12.2 24.5 12.2 26.6 10.7 29 C8.9 32 5 30.7 5.9 34.4 C6.3 36.2 2.9 36.2 2.5 38.3 C1.9 41.3 3.6 42.4 3.3 44 C3 47 0.9 48.3 0.6 49.8 C-0.2 53.8 1.3 54.7 2.4 57.2 C3.2 59.1 3.9 58.8 4.4 59.9 C4.9 61 3.3 64.3 4.4 67.1 C5.5 69.9 7 66.1 7.8 68 C8.6 69.9 5.2 72.5 7.1 75.1 C9 77.7 10.5 74.3 11.2 75.7 C11.9 77.1 9.9 80.4 11.9 82.9 C13.9 85.4 14.9 84 17.7 85.5 C20.5 86.9 19.1 89.8 22.4 89.9 C25.7 90 27.7 88.4 30.1 87.6 C32.5 86.8 33 89.2 35.5 88.4 C38 87.6 40.3 86.7 42.5 84.8 C44.7 82.9 42.9 88.5 44.7 86.7 C46.5 84.8 48.3 84 49.5 81.6 C50.7 79.1 52 81.4 52.9 79.8 C53.7 78.1 53.9 77.5 54.3 75.2 C54.5 73.8 56.4 74.2 57.1 68.1 C57.3 66.1 58 61.6 58.3 59.3 C58.7 56.9 59.1 47.9 58.3 45.7 C54.5 34.8 56.6 22.8 51.9 17.7 C47.2 12.6 39.2 -4.7 32.4 3.5 z" id="k1" fill="#725C54" /><path d="M32.4 3.5 C31.1 5 22.5 15.2 20.1 17.5 C17.9 19.7 15.1 19.4 13.6 22 C12.2 24.5 12.2 26.6 10.7 29 C8.9 32 5 30.7 5.9 34.4 C6.3 36.2 2.9 36.2 2.5 38.3 C1.9 41.3 3.6 42.4 3.3 44 C3 47 0.9 48.3 0.6 49.8 C-0.2 53.8 1.3 54.7 2.4 57.2 C3.2 59.1 3.9 58.8 4.4 59.9 C4.9 61 3.3 64.3 4.4 67.1 C5.5 69.9 7 66.1 7.8 68 C8.6 69.9 5.2 72.5 7.1 75.1 C9 77.7 10.5 74.3 11.2 75.7 C11.9 77.1 9.9 80.4 11.9 82.9 C13.9 85.4 14.9 84 17.7 85.5 C20.5 86.9 19.1 89.8 22.4 89.9 C25.7 90 27.7 88.4 30.1 87.6 C32.5 86.8 33 89.2 35.5 88.4 C38 87.6 40.3 86.7 42.5 84.8 C44.7 82.9 42.9 88.5 44.7 86.7 C46.5 84.8 48.3 84 49.5 81.6 C50.7 79.1 52 81.4 52.9 79.8 C53.7 78.1 53.9 77.5 54.3 75.2 C54.5 73.8 56.4 74.2 57.1 68.1 C57.3 66.1 58 61.6 58.3 59.3 C58.7 56.9 59.1 47.9 58.3 45.7 C54.5 34.8 56.6 22.8 51.9 17.7 C47.2 12.6 39.2 -4.7 32.4 3.5 z" id="l1" fill="#B58164" /><path d="M54.5 80.5 C52.1 82.5 51 81.5 48.4 82.4 C45.8 83.2 45.2 80.7 42.7 81.6 C40.2 82.4 38.1 84.1 34.6 84 C31.1 83.9 32.6 80.9 29.6 79.4 C26.6 77.9 25.5 79.4 23.5 76.7 C21.5 74 23.5 70.6 22.8 69.1 C22.1 67.6 20.4 71.1 18.5 68.4 C16.6 65.8 20 62.9 19.3 61 C18.6 59.1 16.9 63 15.7 60.1 C14.5 57.2 16.3 53.8 15.7 52.5 C15.1 51.3 14.5 51.6 13.6 49.6 C12.4 47 10.9 46 11.7 41.8 C12 40.2 14.1 38.8 14.6 35.7 C14.9 34 13.2 32.8 13.8 29.7 C14.2 27.5 17.8 27.4 17.4 25.6 C16.4 21.7 20.5 23.1 22.4 19.9 C23.2 18.6 23.6 17.3 24 16.1 C25.5 14.4 27.8 11.8 30 9.4 C30.8 9 31.6 8.5 32.3 7.8 C33.5 6.6 36.2 3.5 38.9 0.5 C40.6 0.1 43.3 0.2 45 1.6 C45.9 2.3 45 3.6 45.8 4.6 C46.5 5.5 47.7 4.2 48.5 5.2 C49 5.8 49 5.9 49 7.8 C49 9.7 51 7 51.9 9.4 C52.1 10 52.4 11 52.7 11.5 C52.9 12 53.3 11 54.6 12.9 C55.9 14.8 55.4 16.4 56.3 17.5 C57.3 18.7 58.7 18.6 59.6 21 C60.5 23.4 57.9 21.9 58.3 22.9 C58.8 24.2 61 25.6 61.3 27.1 C61.5 28.4 59.6 29.2 59.6 30.6 C59.6 31.6 62.5 32.1 63.3 33.7 C63.9 34.9 62.3 37.2 62.5 38 C62.8 39.4 64.7 38.7 64.8 40.8 C64.9 43.5 61.8 43.8 62.5 45.9 C62.8 46.7 64.7 49.1 64.8 51.1 C64.9 53.1 62.5 51.9 62.5 52.4 C62.5 53.7 63.5 57 63.9 58.2 C64.5 60.4 62.7 60.7 62.5 61.7 C62.4 62.4 63.3 65.1 63.3 66.7 C63.3 68.3 61.7 65.7 61.3 66.7 C60.9 67.7 62.4 69 61.8 70.4 C61.2 71.8 59.2 71.2 58.9 72.2 C57.9 75 59.9 75 59.7 76.1 C59.5 77.2 58.6 78.7 58.4 79.3 C56.2 81.3 56.9 78.5 54.5 80.5 z" id="m1" fill="#725C54" /></g></g><g transform="translate(178.3, 119.7) rotate(-6, 0, 0) scale(1.4, 1.35) translate(-193.3, -144.7) translate(91.19999, 103.6) translate(110.5, 82.5) scale(-1, 1) translate(-110.5, -82.5) translate(79, 37)" id="n1"><g opacity="0.15" transform="translate(31.5, 46) scale(-1, 1) translate(-31.5, -46) translate(0, 1)" id="o1"><path d="M34.6 5.5 C37.5 7.9 38.4 12.9 39.7 14.2 C39.8 14.3 39.8 14.3 39.9 14.3 C40.6 14.8 41.3 15.1 42.1 15.4 C42.5 15.5 42.9 15.7 43.3 15.8 C45 16.4 47.2 15.6 48.3 16.6 C51.8 19.6 49.8 21 52.4 25.2 C55 29.4 55.7 27.4 57.6 30.9 C59.5 34.4 58.8 35.5 59.8 38.8 C60.8 42.2 56.4 35.7 56.4 39.1 C56.4 42.5 61.6 45.9 61.6 48.5 C61.6 51.1 55.3 39.2 55.5 41.9 C55.7 44.6 61.9 53.2 62 56.9 C62.1 60.6 56.4 51 56.9 54 C57.4 57 61 61.5 60.6 64.2 C60.2 66.9 58 63.6 56.9 66.3 C55.8 69 58 71.8 56.6 75.1 C55.2 78.4 55.4 67.3 53.7 69.8 C52.1 72.2 53.1 79.8 50.8 81.8 C48.4 83.8 50.7 76.9 48.1 79.8 C45.5 82.7 45.1 85.8 40.9 87.3 C36.7 88.8 42.8 82.8 39.6 82.5 C36.4 82.2 35.3 89.3 31.9 89.9 C30 90.2 28.1 89.4 26.2 87.9 C24.7 86.7 23.5 81.6 22.1 81.4 C18.9 80.8 19.7 86.7 18.1 85.2 C17 84.2 16.9 82.5 16.4 81.4 C16.3 81.4 16 74.6 15.7 74.7 C15.2 75 13.4 80.9 12.9 81.2 C12.4 81.6 11.5 81.8 11 80.4 C9.9 77.2 11.6 70.7 11 67.6 C10.8 66.6 8.5 73.1 8.2 73.2 C7.7 73.5 7.1 73.6 6.6 72.2 C5.4 69 4 71.8 4 68.1 C4 67.7 4.1 65.3 4 65.1 C3.5 64.3 2.9 64.2 2.6 63.4 C2.3 62.2 3.1 60 4.2 58 C4.6 57.2 2.1 59 2 58 C1.9 56.7 2.8 55.1 3.5 52.7 C4.2 50.3 1.6 52.6 1.4 51.6 C1.1 50.3 2.4 48.9 2.4 47.9 C2.4 45.5 1.5 47.4 0.8 45.2 C0.4 44 3.1 41.6 3.4 40.9 C3.7 40.3 1.8 40.8 1.9 39.8 C2.1 37.5 4.5 38.5 4.1 37 C3.8 35.9 2.7 35.9 2.7 35.2 C2.7 33.1 4.5 34.8 4.1 32.3 C4 31.2 3.5 28.8 3.4 27.7 C3.3 26 5.9 26.2 5.6 24.8 C5 21.9 4.4 22.2 7 19.3 C7.5 18.7 6.6 16.2 7 15.1 C8 12.3 9.5 12.9 9.8 12.2 C10.4 10.8 9.3 10 10.5 9.1 C11.9 8.1 13.7 9.5 14.6 6.9 C15.1 5.4 15.7 5 16.6 3.9 C19.6 0.4 25.2 0 27.8 1.7 C28.8 2.3 32.4 3.6 34.6 5.5 z" stroke="#000000" stroke-width="3" opacity="0.15" id="p1" /></g><g transform="translate(31.5, 44.5) scale(-1, 1) translate(-31.5, -44.5)" id="q1"><path d="M5.2 44 C3.1 51.1 6.5 56.9 4.4 60.5 C2.3 64.1 5.2 62 5.2 65.6 C5.2 69.2 5.8 68.8 7 72 C8.2 75.2 9.8 70.3 10.5 73.4 C11.2 76.5 10.8 76.8 11.8 80 C12.8 83.2 14.2 78.9 15.6 80 C17 81.1 16.9 83.2 18.5 84.7 C20.1 86.2 19.3 82.8 22.5 83.4 C23.9 83.6 24.9 86.6 26.4 87.8 C28.3 89.3 30.7 89 32.6 88.7 C36 88.1 36.7 84.6 40 84 C43.3 83.4 36.6 87.9 40.8 86.4 C45 84.9 45.8 84.1 48.4 81.2 C51 78.3 48.6 83.2 51 81.2 C53.3 79.2 52.8 75.9 54.4 73.5 C56.1 71 55.3 78.2 56.7 74.9 C58.1 71.6 56.4 70.6 57.5 67.9 C58.6 65.2 60.3 66.7 60.7 64 C61.1 61.3 60 61.9 59.5 58.9 C59 55.9 62.1 60.2 62 56.5 C61.9 52.8 59.7 52 59.5 49.3 C59.3 46.6 61.3 51.2 61.3 48.6 C61.3 46 57.5 44.2 57.5 40.8 C57.5 37.4 60.5 42.1 59.5 38.7 C58.5 35.4 59.5 34.3 57.6 30.8 C55.7 27.3 55 29.8 52.4 25.6 C49.8 21.4 51.3 20.7 47.8 17.7 C45.9 16.1 42.7 16.1 39.9 14.3 C38.5 13.4 37.6 8 34.6 5.5 C32.4 3.6 28.8 2.3 27.8 1.7 C22.9 -1.3 16.5 10.7 11.8 14.3 C7.1 17.9 6.6 23 5.2 26.9 C3.1 32.6 6 41.1 5.2 44 z" id="r1" fill="#725C54" /><path d="M5.2 44 C3.1 51.1 6.5 56.9 4.4 60.5 C2.3 64.1 5.2 62 5.2 65.6 C5.2 69.2 5.8 68.8 7 72 C8.2 75.2 9.8 70.3 10.5 73.4 C11.2 76.5 10.8 76.8 11.8 80 C12.8 83.2 14.2 78.9 15.6 80 C17 81.1 16.9 83.2 18.5 84.7 C20.1 86.2 19.3 82.8 22.5 83.4 C23.9 83.6 24.9 86.6 26.4 87.8 C28.3 89.3 30.7 89 32.6 88.7 C36 88.1 36.7 84.6 40 84 C43.3 83.4 36.6 87.9 40.8 86.4 C45 84.9 45.8 84.1 48.4 81.2 C51 78.3 48.6 83.2 51 81.2 C53.3 79.2 52.8 75.9 54.4 73.5 C56.1 71 55.3 78.2 56.7 74.9 C58.1 71.6 56.4 70.6 57.5 67.9 C58.6 65.2 60.3 66.7 60.7 64 C61.1 61.3 60 61.9 59.5 58.9 C59 55.9 62.1 60.2 62 56.5 C61.9 52.8 59.7 52 59.5 49.3 C59.3 46.6 61.3 51.2 61.3 48.6 C61.3 46 57.5 44.2 57.5 40.8 C57.5 37.4 60.5 42.1 59.5 38.7 C58.5 35.4 59.5 34.3 57.6 30.8 C55.7 27.3 55 29.8 52.4 25.6 C49.8 21.4 51.3 20.7 47.8 17.7 C45.9 16.1 42.7 16.1 39.9 14.3 C38.5 13.4 37.6 8 34.6 5.5 C32.4 3.6 28.8 2.3 27.8 1.7 C22.9 -1.3 16.5 10.7 11.8 14.3 C7.1 17.9 6.6 23 5.2 26.9 C3.1 32.6 6 41.1 5.2 44 z" id="s1" fill="#B58164" /><path d="M45.6 17.7 C48.3 21.5 46.7 21.8 48.1 26.6 C49.5 31.4 50.8 29.1 51.8 33 C52.8 36.9 52.7 35.8 52.8 39.3 C52.9 42.8 50.4 40.2 49.5 43.5 C48.6 46.8 52.5 47.8 51.8 50.3 C51.1 52.8 49.5 48.8 48.9 51.5 C48.3 54.1 50.2 55.5 49.4 59.2 C48.6 62.8 45.8 59.2 45.5 62.3 C45.2 65.4 47.3 63.7 46.2 66.2 C45.1 68.8 43.8 66.8 42 69.2 C40.2 71.6 41.6 73 39.4 75.9 C37.2 78.8 38.1 73.3 35.8 75.3 C33.5 77.3 34.9 79.2 32.2 80.6 C29.4 81.9 30.7 77.5 27.4 79.6 C24.1 81.7 27.1 82 22.5 82.4 C18 82.8 22.6 80.9 19.2 80.6 C17.9 80.5 17.1 80.9 16.4 81.4 C16.2 80.9 15.9 80.5 15.4 80.1 C14 79 12.7 83.3 11.6 80.1 C10.5 76.9 10.9 76.6 10.3 73.5 C9.6 70.4 8 75.3 6.8 72.1 C5.6 68.9 4.2 71.7 4.2 68 C4.2 67.6 4.3 65.2 4.2 65 C3.7 64.2 3.1 64.1 2.8 63.3 C2.3 62.2 3.1 60 4.2 58 C4.6 57.2 2.1 59 2 58 C1.9 56.7 2.8 55.1 3.5 52.7 C4.2 50.3 1.6 52.6 1.4 51.6 C1.1 50.3 2.4 48.9 2.4 47.9 C2.4 45.5 1.5 47.4 0.8 45.2 C0.4 44 3.1 41.6 3.4 40.9 C3.7 40.3 1.8 40.8 1.9 39.8 C2.1 37.5 4.5 38.5 4.1 37 C3.8 35.9 2.7 35.9 2.7 35.2 C2.7 33.1 4.5 34.8 4.1 32.3 C4 31.2 3.5 28.8 3.4 27.7 C3.3 26 5.9 26.2 5.6 24.8 C5 21.9 4.4 22.2 7 19.3 C7.5 18.7 6.6 16.2 7 15.1 C8 12.3 9.5 12.9 9.8 12.2 C10.4 10.8 9.3 10 10.5 9.1 C11.9 8.1 13.7 9.5 14.6 6.9 C15.1 5.4 15.7 5 16.6 3.9 C19.6 0.4 25.2 0 27.8 1.7 C28.8 2.3 32.4 3.6 34.6 5.5 C37.6 8 38.6 13.4 39.9 14.3 C41.1 15.1 42.4 15.5 43.6 15.9 C44.4 16.4 45.1 17 45.6 17.7 z" id="t1" fill="#725C54" /></g></g><g transform="translate(102.1, 98.99998) translate(19, 30)" id="u1"><path d="M89.8 37.3 C91.3 38.6 92.8 39.9 94.3 41.2 C93.1 30.1 89.9 20.2 82 12.2 C73.1 1.4 58.2 0.7 47.4 0.7 C37.1 0.7 23.1 1.3 14.1 10.7 C4.2 19.9 1.7 29.4 0.4 41.2 C1.9 39.9 3.4 38.6 4.9 37.3 C4.9 38 4.9 38.7 4.9 39.4 C0.9 46.4 0.4 54.5 0.4 54.5 C0.4 54.5 2.1 58.7 3.5 59.6 C4 59.9 4.7 59.3 4.9 58.7 C4.1 62.1 3.5 63.4 6.8 71 C7.9 69.5 8.3 69.1 9 67.9 C10.7 74.9 10.6 72.8 12.4 79.8 C12.8 77.9 13.6 77.4 14.3 76.8 C15.8 78.6 17.4 80.2 19.3 81.5 C20.8 83.8 22.8 85.8 25.4 88.3 C26.8 88.2 28.1 88.1 29.4 87.9 C28.8 87.2 28.3 86.5 27.7 85.7 C28.1 85.8 28.6 86 29 86.1 C32.4 88.1 36.3 89.3 40.3 89.3 C40.1 88.9 39.9 88.4 39.7 88 C42.1 88.2 44.6 88.3 47.3 88.3 C50 88.3 52.5 88.2 54.9 88 C54.7 88.4 54.5 88.9 54.3 89.3 C58.2 89.2 62.1 88.1 65.5 86.1 C66 86 66.4 85.8 66.9 85.7 C66.3 86.4 65.8 87.1 65.2 87.9 C66.5 88.1 67.8 88.2 69.1 88.4 C71.8 85.9 73.7 83.8 75.3 81.6 C76.3 80.9 77.2 80.1 78 79.3 C78.6 78.7 79.2 78.1 79.8 77.4 C80.5 78.4 81.2 79 82.2 79.8 C83.9 72.8 83.8 74.9 85.6 67.9 C86.3 69.1 86.7 69.6 87.8 71 C91.1 63.4 90.5 62.1 89.7 58.7 C90 59.2 90.7 59.9 91.1 59.6 C92.5 58.7 94.2 54.5 94.2 54.5 C94.2 54.5 93.2 45.9 89.7 39.4 C89.8 38.7 89.8 37.9 89.8 37.3 z" id="v1" fill="#725C54" /><path d="M89.8 37.3 C89.8 37.9 89.8 38.7 89.7 39.4 C93.2 45.9 94.2 54.5 94.2 54.5 C94.2 54.5 92.5 58.7 91.1 59.6 C90.7 59.9 90 59.2 89.7 58.7 C90.5 62.1 91.1 63.4 87.8 71 C86.7 69.6 86.3 69.1 85.6 67.9 C83.8 74.9 83.9 72.8 82.2 79.8 C81.2 79 80.5 78.4 79.8 77.4 C79.2 78.1 78.6 78.7 78 79.3 C77.2 80.1 76.3 80.9 75.3 81.6 C73.7 83.8 71.8 85.9 69.2 88.3 L69.1 88.4 C67.8 88.2 66.5 88.1 65.2 87.9 C65.8 87.1 66.3 86.4 66.9 85.7 C66.4 85.8 66 86 65.5 86.1 C62.1 88.1 58.2 89.2 54.3 89.3 C54.5 88.9 54.7 88.4 54.9 88 C52.5 88.2 50 88.3 47.3 88.3 C44.6 88.3 42.1 88.2 39.7 88 C39.9 88.4 40.1 88.9 40.3 89.3 C36.3 89.3 32.4 88.1 29 86.1 C28.6 86 28.1 85.8 27.7 85.7 C28.3 86.5 28.8 87.2 29.4 87.9 C28.1 88.1 26.8 88.2 25.5 88.4 L25.4 88.3 C22.8 85.8 20.8 83.8 19.3 81.5 C17.4 80.2 15.8 78.6 14.3 76.8 C13.6 77.4 12.8 77.9 12.4 79.8 C10.6 72.8 10.7 74.9 9 67.9 C8.3 69.1 7.9 69.5 6.8 71 C3.5 63.4 4.1 62.1 4.9 58.7 C4.7 59.3 4 59.9 3.5 59.6 C2.1 58.7 0.4 54.5 0.4 54.5 C0.4 54.5 0.9 46.4 4.9 39.4 C4.9 38.7 4.9 38 4.9 37.3 C3.4 38.6 1.9 39.9 0.4 41.2 C1.7 29.4 4.2 19.9 14.1 10.7 C23.1 1.3 37.1 0.7 47.4 0.7 C58.2 0.7 73.1 1.4 82 12.2 C89.9 20.2 93.1 30.1 94.3 41.2 C92.8 39.9 91.3 38.6 89.8 37.3 z M88.1 34.2 C89.5 35.4 91 35.8 92.4 37 C91.2 26.6 88.3 19.7 80.7 12.1 C72.1 2 57.8 1.4 47.4 1.4 C37.5 1.4 24 2 15.3 10.8 C5.8 19.5 3.4 26.7 2.1 37.8 C3.5 36.6 5 35.5 6.4 34.2 C6.4 34.9 6.4 37.1 6.4 37.8 C2.6 44.3 2.1 52 2.1 52 C2.1 52 3.3 55.1 4.7 56 C5.2 56.3 6.3 56.6 6.4 56 C5.6 59.2 4.8 59.4 8 66.5 C9.1 65.1 9.7 65.8 10.4 64.6 C12 71.2 11.6 68.7 13.3 75.3 C13.7 73.5 14.8 73.5 15.5 72.9 C16.9 74.6 18.5 76.1 20.3 77.3 C21.7 79.5 21.7 81 24.2 83.3 C25.5 83.2 26.7 83.9 27.9 83.7 C27.3 83 28.9 82 28.4 81.3 C28.8 81.4 29.3 81.6 29.7 81.7 C33 83.6 32.8 84.7 36.6 84.7 C36.4 84.3 34.7 82.9 40 83.5 C42.3 83.7 44.7 83.8 47.3 83.8 C49.9 83.8 55.2 83.1 57.5 82.9 C57.3 83.3 57 84.4 56.8 84.7 C60.6 84.6 61.6 83.6 64.8 81.7 C65.3 81.6 67.7 80.9 68.2 80.8 C67.6 81.5 66.7 83 66.2 83.8 C67.5 84 69.1 83.2 70.3 83.4 C72.9 81 72.7 79.5 74.3 77.5 C75.3 76.8 77.5 76.1 78.2 75.3 C78.8 74.7 79.5 73.1 80 72.5 C80.7 73.4 80.8 74.6 81.8 75.3 C83.4 68.7 83.3 69 85.1 62.4 C85.8 63.5 86.4 65.5 87.4 66.8 C90.6 59.7 88.9 59.1 88.1 55.9 C88.4 56.4 90 57.1 90.4 56.9 C91.7 56.1 92.4 52 92.4 52 C92.4 52 90.7 45.3 87.4 39.1 C87.5 38.4 88.1 34.8 88.1 34.2 z" opacity="0.15" id="w1" /></g><g id="x1"><g transform="translate(109.1, 121.9) translate(22, 6)" id="y1"><g id="z1"><path d="M49.6 73.8 C41.1 70.5 33.9 70.5 25.4 73.8 C18.3 76.6 24.1 90.9 24 91 C23.3 92.5 23.8 93.2 24 94.2 C24.3 93.9 25.1 94.2 25.8 94.1 C26.4 93.9 27 93.2 27 93.2 C28.2 95 29.2 95.5 30.9 94.2 C31.1 94 33.9 91.7 34.1 92.5 C34.3 93.6 34.5 94.6 34.6 95.7 C35.2 94.8 35.8 93.8 36.4 92.9 C36.7 93.4 37.1 93.9 37.4 94.4 C37.7 93.9 38.1 93.4 38.4 92.9 C39 93.8 39.6 94.8 40.2 95.7 C40.4 94.6 40.6 93.6 40.7 92.5 C40.8 91.7 43.6 94 43.9 94.2 C45.6 95.4 46.6 94.9 47.8 93.2 C47.8 93.2 48.4 93.9 49 94.1 C49.7 94.3 50.5 93.9 50.8 94.2 C51 93.2 51.5 92.5 50.8 91 C50.9 90.9 56.7 76.6 49.6 73.8 z" id="a2" fill="#B58164" /><path d="M50.4 74.2 C50.2 74.1 49.9 74 49.6 73.9 C41.1 70.6 37.6 72.7 37.5 72.7 C37.5 72.7 33.9 70.6 25.4 73.9 C25.1 74 24.9 74.1 24.6 74.2 C18.3 77.3 15.7 87.2 14.1 88 C14.1 88.1 14.1 88.2 14.2 88.3 L15.3 89.4 C16 91.2 19 91.5 20.1 89.9 C20.3 90.6 20.9 92.8 21 93.5 C22.1 93.2 24 91.2 24 91.2 C24.4 90.7 24 88.6 24.4 88.3 C24.8 89.8 26.2 91.6 26.8 91.5 C27.4 91.4 27.5 90.7 28.2 89.2 C29.3 86.6 30.3 85 32.4 83.1 C34 83.6 35.7 83.9 37.4 83.9 C39.1 83.9 40.8 83.6 42.4 83.1 C44.6 85 45.5 86.7 46.6 89.2 C47.3 90.8 47.4 91.4 48 91.5 C48.6 91.6 50.1 89.8 50.4 88.3 C50.8 88.6 50.5 90.8 50.8 91.2 C50.8 91.2 52.7 93.2 53.8 93.5 C54 92.8 54.6 90.6 54.7 89.9 C55.8 91.6 58.8 91.3 59.5 89.4 L60.6 88.3 C60.6 88.2 60.6 88.1 60.7 88 C59.3 87.1 56.7 77.3 50.4 74.2 z" id="b2" fill="#E8CCA2" /><path d="M74.5 76 C72.1 62 63.5 60.2 61.5 59.3 C62.2 57.8 62.2 56 61.1 54.9 C60.6 56.9 58.2 57.5 56.4 57.7 C53.9 58 51.4 57.4 49 56.8 C49.4 56.4 50 56 50.5 55.5 C48.5 54.7 45.2 53.3 43.4 55.2 C44.5 54.1 46.6 53.1 45.9 51.2 C44.5 52.4 41.9 52.1 40.5 53.2 C41.4 51.2 42.3 49.3 43.1 47.3 C42.4 47.5 41.9 47.8 41.4 48.1 C41.7 47.7 42.4 46.8 42 46.3 C41.6 45.9 40.9 46.2 40.6 46.4 C41.3 44.3 41.6 42.8 42.5 40.5 C41.7 41.3 40.8 42 40 42.8 C43.7 35.6 46.1 31.2 56 27.9 C58.1 27.5 60.3 27.5 62.4 27.7 C62.3 27.2 62 26.7 61.7 26.3 C61.8 26.3 61.9 26.2 62 26.2 C61.4 26.2 60.8 25.4 60.2 25.1 C59.6 24.8 58.9 24.6 58.2 24.6 C59.9 24.3 61.7 24.1 63.4 23.8 C62.4 23 61.4 22.2 60.4 21.4 C61.1 21.3 61.8 21.2 62.5 21.1 C61.6 20.5 61.4 20.9 60.6 20.2 C61.5 20.1 62.1 18.7 63 18.6 C62.7 17.9 61.1 17.3 60.8 16.6 C62.5 16.5 62.2 14.2 62.5 12.9 C61.6 12 60.3 11.3 59 11 C59.7 9.9 60.7 9 61.9 8.6 C59.8 7.9 57.7 7.1 55.5 6.5 C55.6 6.1 55.8 5.8 56.1 5.5 C54.8 5.5 53.5 5.8 52.2 5.9 C52.9 5 53.4 4.3 53.4 4.3 C53 4.3 52.6 4.3 52.1 4.2 C52 4.2 51 4 51 4 C50 4.4 49 4.8 48.1 5.4 C49 3.9 49.9 2.3 50.7 0.8 C46.5 2.8 42.9 5.9 40.1 9.5 C39.2 6.5 37.6 4.6 36.9 0.9 C35.1 3.3 34.2 6.3 34.4 9.3 C31.6 5.7 28.1 2.8 24 0.8 C24.9 2.3 25.8 3.9 26.6 5.4 C25.7 4.8 24.7 4.4 23.7 4 C23.7 4 22.7 4.2 22.6 4.2 C22.2 4.2 21.8 4.3 21.3 4.3 C21.3 4.3 21.8 4.9 22.5 5.9 C21.2 5.8 19.9 5.5 18.6 5.5 C18.9 5.8 19.1 6.1 19.2 6.5 C17 7.1 14.9 8 12.8 8.6 C14.1 9 15.1 9.9 15.7 11 C14.4 11.3 13.2 11.9 12.2 12.9 C12.4 14.2 12.2 16.5 13.9 16.6 C13.6 17.3 12 17.9 11.7 18.6 C12.6 18.7 13.2 20.1 14.1 20.2 C13.2 20.8 13 20.4 12.2 21.1 C12.9 21.2 13.6 21.3 14.3 21.4 C13.3 22.2 12.3 23 11.3 23.8 C13 24.1 14.8 24.3 16.5 24.6 C15.8 24.6 15.1 24.8 14.5 25.1 C13.9 25.4 13.4 26.2 12.7 26.2 C12.8 26.2 12.9 26.3 13 26.3 C12.7 26.7 12.4 27.2 12.3 27.7 C14.4 27.5 16.6 27.5 18.7 27.9 C28.6 31.2 31 35.6 34.7 42.8 C33.9 42 33 41.3 32.2 40.5 C33.1 42.8 33.4 44.3 34.1 46.4 C33.7 46.2 33 45.9 32.7 46.3 C32.3 46.9 33 47.7 33.3 48.1 C32.8 47.8 32.3 47.6 31.6 47.3 C32.5 49.3 33.4 51.2 34.2 53.2 C32.8 52 30.2 52.3 28.8 51.2 C28.1 53.1 30.2 54.1 31.3 55.2 C29.5 53.3 26.2 54.7 24.2 55.5 C24.8 56.1 25.3 56.4 25.7 56.8 C23.3 57.4 20.8 58 18.3 57.7 C16.5 57.5 14.1 56.9 13.6 54.9 C12.4 56 12.5 57.9 13.2 59.3 C11.2 60.1 1.9 62.9 0.2 76 C0.3 75 1.8 74.8 2.6 74.2 C2 76.3 1.5 78.7 1.1 81.4 C2.1 81 3.1 80.7 4.1 80.4 C4.4 83.1 5.3 85.7 6.6 87.8 C6.8 87.2 7 86.7 7.1 86.2 C7.1 87.4 8.3 90.3 10 89.3 C10.2 90 10.7 91.3 11.4 91.7 C12.1 92 13.3 91.7 14 91.8 C14.3 90.7 15 89.6 15.9 88.7 C16 89.9 16 91.1 16.1 92.4 C18.1 92 19.9 90.5 20.7 88.6 C21.2 89.4 21.7 90.1 22.2 90.9 C22.8 88.6 23.4 86.2 23.9 83.9 C24.5 85.9 25.1 87.8 25.7 89.8 C25.9 87.9 25.8 85.9 26.3 84.1 C26.9 82.1 28.3 81.2 30.1 80.5 C33.4 79.1 36.7 76.1 37.1 72.3 C37.5 76.1 40.8 79.1 44.1 80.5 C45.9 81.2 47.2 82.1 47.8 84 C48.4 85.9 48.3 87.9 48.5 89.8 C49.1 87.8 49.7 85.9 50.3 83.9 C50.9 86.2 51.5 88.6 52 90.9 C52.5 90.1 53 89.4 53.5 88.6 C54.3 90.5 56.1 91.9 58.1 92.4 C58.2 91.2 58.2 90 58.3 88.7 C59.2 89.6 59.9 90.6 60.2 91.8 C60.9 91.7 62.1 92 62.8 91.7 C63.5 91.4 64 90 64.2 89.3 C65.9 90.3 67.1 87.5 67.1 86.2 C67.2 86.7 67.4 87.2 67.6 87.8 C68.9 85.7 69.8 83.2 70.1 80.4 C71.1 80.7 72.2 81 73.1 81.4 C72.7 78.7 72.2 76.3 71.6 74.2 C72.8 74.8 73.6 75.4 74.5 76 z" id="c2" fill="#B58164" /><path d="M43.1 26.7 C42.5 27 41.8 27.1 41.3 27.7 C42.4 26.4 44.6 24.2 44.5 23.9 C44.4 23.6 40.4 24.9 40.2 24.3 C40 23.5 43.2 20.5 43.7 19.8 C42.8 20 41.9 20.3 41 20.4 C41.3 18.9 43.7 18.3 44.8 17.3 C45.7 16.4 46.6 14.5 47.5 13.6 C45.5 14.1 43.4 14.5 41.4 15 C41.8 14.6 42.1 14.3 42.5 13.9 C42 13.8 41.6 13.8 41.1 13.7 C41.6 12.7 42.1 11.6 42.6 10.6 C42.6 10.7 40.7 11.1 40.5 11.2 C40.2 11.4 39.9 11.6 39.7 11.8 C39.5 11.4 39.3 11.1 39.1 10.7 C38.3 9.2 37.4 7.7 36.6 6.3 C36 8 35.4 9.7 34.8 11.4 L34.7 11.3 C34.5 11.2 32.6 10.8 32.6 10.7 C33.1 11.7 33.6 12.8 34.1 13.8 C33.6 13.9 33.2 13.9 32.7 14 C33.1 14.4 33.4 14.7 33.8 15.1 C31.8 14.6 29.7 14.2 27.7 13.7 C28.6 14.6 29.5 16.5 30.4 17.4 C31.5 18.5 33.9 19.1 34.2 20.5 C33.3 20.4 32.4 20.1 31.5 19.9 C32 20.5 35.3 23.6 35 24.4 C34.8 25.1 30.9 23.7 30.7 24 C30.5 24.3 32.8 26.6 33.9 27.8 C33.4 27.2 32.7 27 32.1 26.8 C31.2 26.4 29.6 27.9 30.6 29.2 C31.6 30.4 33.5 30.4 34.5 31.6 C33.6 31.9 32.8 32.6 33.9 33.4 C34.9 34.2 35.2 34.3 36 34.8 C36.2 35 36.2 35.3 36 35.5 C35.9 35.5 35.9 35.6 35.9 35.7 L37.8 39.3 L39.7 35.7 C39.7 35.6 39.7 35.6 39.6 35.5 C39.4 35.3 39.4 35 39.6 34.8 C40.4 34.2 40.6 34.2 41.7 33.4 C42.8 32.5 42 31.9 41.1 31.6 C42.1 30.5 44 30.5 45 29.2 C45.6 27.8 44 26.3 43.1 26.7 z" id="d2" fill="#E8CCA2" /><path d="M14 91.8 C13.3 91.7 12.1 92 11.4 91.7 C10.7 91.3 10.2 90 10 89.3 C8.3 90.3 7.1 87.4 7.1 86.2 C7 86.7 6.8 87.2 6.6 87.8 C5.3 85.7 4.4 83.1 4.1 80.4 C3.1 80.7 2.1 81 1.1 81.4 C1.5 78.7 2 76.3 2.6 74.2 C1.8 74.8 0.3 75 0.2 76 C1.9 62.9 11.2 60.1 13.2 59.3 C12.5 57.9 12.4 56 13.6 54.9 C14.1 56.9 16.5 57.5 18.3 57.7 C20.8 58 23.3 57.4 25.7 56.8 C25.3 56.4 24.8 56.1 24.2 55.5 C26.2 54.7 29.5 53.3 31.3 55.2 C30.2 54.1 28.1 53.1 28.8 51.2 C30.2 52.3 32.8 52 34.2 53.2 C33.4 51.2 32.5 49.3 31.6 47.3 C32.3 47.6 32.8 47.8 33.3 48.1 C33 47.7 32.3 46.9 32.7 46.3 C33 45.9 33.7 46.2 34.1 46.4 C33.4 44.3 33.1 42.8 32.2 40.5 C33 41.3 33.9 42 34.7 42.8 C31 35.6 28.6 31.2 18.7 27.9 C16.6 27.5 14.4 27.5 12.3 27.7 C12.4 27.2 12.7 26.7 13 26.3 C12.9 26.3 12.8 26.2 12.7 26.2 C13.4 26.2 13.9 25.4 14.5 25.1 C15.1 24.8 15.8 24.6 16.5 24.6 C14.8 24.3 13 24.1 11.3 23.8 L14.3 21.4 L12.2 21.1 C13 20.4 13.2 20.8 14.1 20.2 C13.2 20.1 12.6 18.7 11.7 18.6 C12 17.9 13.6 17.3 13.9 16.6 C12.2 16.5 12.4 14.2 12.2 12.9 C13.2 11.9 14.4 11.3 15.7 11 C15.1 9.9 14.1 9 12.8 8.6 C14.9 8 17 7.1 19.2 6.5 C19.1 6.1 18.9 5.8 18.6 5.5 C19.9 5.5 21.2 5.8 22.5 5.9 C21.8 4.9 21.3 4.3 21.3 4.3 C21.8 4.3 22.2 4.2 22.6 4.2 C22.7 4.2 23.7 4 23.7 4 C24.7 4.4 25.7 4.8 26.6 5.4 C25.8 3.9 24.9 2.3 24 0.8 C28.1 2.8 31.6 5.7 34.4 9.3 C34.2 6.3 35.1 3.3 36.9 0.9 C37.6 4.6 39.2 6.5 40.1 9.5 C42.9 5.9 46.5 2.8 50.7 0.8 C49.9 2.3 49 3.9 48.1 5.4 C49 4.8 50 4.4 51 4 C51 4 52 4.2 52.1 4.2 C52.6 4.3 53 4.3 53.4 4.3 C53.4 4.3 52.9 5 52.2 5.9 C53.5 5.8 54.8 5.5 56.1 5.5 C55.8 5.8 55.6 6.1 55.5 6.5 C57.7 7.1 59.8 7.9 61.9 8.6 C60.7 9 59.7 9.9 59 11 C60.3 11.3 61.6 12 62.5 12.9 C62.2 14.2 62.5 16.5 60.8 16.6 C61.1 17.3 62.7 17.9 63 18.6 C62.1 18.7 61.5 20.1 60.6 20.2 C61.4 20.9 61.6 20.5 62.5 21.1 L60.4 21.4 L63.4 23.8 C61.7 24.1 59.9 24.3 58.2 24.6 C58.9 24.6 59.6 24.8 60.2 25.1 C60.8 25.4 61.4 26.2 62 26.2 C61.9 26.2 61.8 26.3 61.7 26.3 C62 26.7 62.3 27.2 62.4 27.7 C60.3 27.5 58.1 27.5 56 27.9 C46.1 31.2 43.7 35.6 40 42.8 C40.8 42 41.7 41.3 42.5 40.5 C41.6 42.8 41.3 44.3 40.6 46.4 C40.9 46.2 41.6 45.9 42 46.3 C42.4 46.8 41.7 47.7 41.4 48.1 C41.9 47.8 42.4 47.5 43.1 47.3 C42.3 49.3 41.4 51.2 40.5 53.2 C41.9 52.1 44.5 52.4 45.9 51.2 C46.6 53.1 44.5 54.1 43.4 55.2 C45.2 53.3 48.5 54.7 50.5 55.5 C50 56 49.4 56.4 49 56.8 C51.4 57.4 53.9 58 56.4 57.7 C58.2 57.5 60.6 56.9 61.1 54.9 C62.2 56 62.2 57.8 61.5 59.3 C63.5 60.2 72.1 62 74.5 76 C73.6 75.4 72.8 74.8 71.6 74.2 C72.2 76.3 72.7 78.7 73.1 81.4 C72.2 81 71.1 80.7 70.1 80.4 C69.8 83.2 68.9 85.7 67.6 87.8 C67.4 87.2 67.2 86.7 67.1 86.2 C67.1 87.5 65.9 90.3 64.2 89.3 C64 90 63.5 91.4 62.8 91.7 C62.1 92 60.9 91.7 60.2 91.8 C60 91.1 59.7 90.4 59.3 89.8 C59 90.2 58.7 90.5 58.2 90.7 C58.2 91.3 58.2 91.8 58.1 92.4 C56.8 92.1 55.5 91.3 54.6 90.3 C54.4 91.2 54 92.9 53.8 93.5 C52.9 93.3 51.4 91.8 50.9 91.4 C51.4 92.7 50.9 93.3 50.8 94.2 C50.5 93.9 49.7 94.3 49 94.1 C48.4 93.9 47.8 93.2 47.8 93.2 C46.6 94.9 45.6 95.4 43.9 94.2 C43.6 94 40.8 91.7 40.7 92.5 C40.6 93.6 40.4 94.6 40.2 95.7 C39.6 94.8 39 93.8 38.4 92.9 C38.1 93.4 37.7 93.9 37.4 94.4 C37.1 93.9 36.7 93.4 36.4 92.9 C35.8 93.8 35.2 94.8 34.6 95.7 C34.5 94.6 34.3 93.6 34.1 92.5 C33.9 91.7 31.1 94 30.9 94.2 C29.2 95.5 28.2 95 27 93.2 C27 93.2 26.4 93.9 25.8 94.1 C25.1 94.2 24.3 93.9 24 94.2 C23.8 93.3 23.4 92.6 23.9 91.4 C23.4 91.9 22 93.3 21 93.5 C20.9 92.8 20.3 90.6 20.1 89.9 C19.9 90.2 19.7 90.4 19.4 90.5 C18.5 91.4 17.3 92.1 16.1 92.4 C16 91.7 16 91 16 90.3 C15.7 90.1 15.5 89.8 15.3 89.4 C14.7 90.1 14.2 91 14 91.8 z M14.8 88.3 C15 87.5 15.5 86.7 16.1 86 C16.2 86.4 16.5 86.6 16.8 86.9 C16.8 87.5 16.9 88.2 16.9 88.9 C18.1 88.7 19.2 88 20.1 87.1 C20.4 86.9 20.6 86.7 20.8 86.5 C21 87.2 21.6 89.2 21.7 89.9 C22.6 89.7 24.1 88.7 24.6 88.3 C24.1 89.5 24.4 89.7 24.6 90.6 C24.9 90.3 25.7 90.6 26.3 90.5 C26.9 90.3 28.1 89.7 28.1 89.7 C29.3 91.4 29.6 91.9 31.2 90.6 C31.4 90.4 33.2 88.2 33.4 89 C33.6 90 34.9 90.7 35 91.8 C35.6 91 35.3 90.5 35.9 89.7 C36.2 90.2 37.2 90.4 37.5 90.8 C37.8 90.3 38.4 89.7 38.7 89.3 C39.3 90.1 39 91 39.6 91.8 C39.8 90.8 41.6 90.1 41.7 89 C41.8 88.2 43.5 90.4 43.8 90.6 C45.4 91.7 45.8 91.5 47 89.9 C47 89.9 48.2 90.3 48.7 90.5 C49.4 90.7 50.1 90.3 50.4 90.6 C50.6 89.7 51 89.1 50.5 87.9 C51 88.3 52.4 89.7 53.3 89.9 C53.5 89.3 53.9 87.8 54.1 86.9 C55 87.9 56.2 88.5 57.5 88.9 C57.5 88.4 57.6 87.9 57.6 87.3 C58 87.1 58.4 86.8 58.6 86.4 C59 87 59.3 87.6 59.5 88.2 C60.2 88.1 61.3 88.4 62 88.1 C62.7 87.8 63.2 86.5 63.4 85.8 C65 86.7 66.2 84.1 66.2 82.9 C66.3 83.4 66.5 83.8 66.7 84.4 C68 82.4 68.8 80.1 69.1 77.4 C70.1 77.7 71.1 78 72 78.3 C71.6 75.8 70.6 73.8 70 71.9 C71.2 72.5 71.8 72.7 72.6 73.2 C69 61.3 62.8 60.6 60.9 59.8 C61.6 58.4 62 56.8 60.9 55.8 C60.4 57.7 57.1 58.5 55.4 58.7 C53 59 50.3 58.2 48 57.6 C48.4 57.2 48.4 56.2 48.9 55.7 C47 54.9 44.8 55.3 42.9 55.3 C43.7 54 44.8 53.7 45.2 51.9 C43.8 53 41.1 53.2 39.8 54.2 C40.7 52.3 41.1 50.5 41.9 48.6 C41.2 48.8 41 48.3 40.5 48.6 C40.8 48.2 42 47.5 41.6 47 C41.2 46.6 40.3 46.8 40 47 C40.7 45 40.7 44.3 41.6 42.1 C40.8 42.9 40.1 42.8 39.3 43.6 C42.1 37.7 44.5 30.6 54.1 27.5 C56.1 27.1 58.5 26.7 60.5 26.9 C60.4 26.4 61.2 26.9 60.9 26.5 C60.3 26.5 60 25.7 59.5 25.4 C58.9 25.1 57.1 24.7 56.4 24.7 C57.6 24.1 60 23.5 61.7 23.2 L59.2 21.6 L60.9 21 C60 20.4 60.4 20.7 59.6 20.1 C60.5 20 60.9 18.8 61.8 18.7 C61.5 18 60.1 16.9 59.8 16.3 C61.4 16.2 61.4 14.6 61.7 13.4 C60.8 12.6 58.8 11.9 57.6 11.6 C58.3 10.6 58.6 9.4 59.7 9 C57.7 8.3 56.2 8.5 54.1 7.9 C54.2 7.5 54.7 7.1 55 6.8 C53.7 6.8 52.4 7.2 51.1 7.3 C51.4 6.9 52.2 5.5 51.8 5.1 C51.3 4.6 50.2 5.1 50.2 5.1 C49.2 5.5 47.8 6.2 46.9 6.8 C47.8 5.4 48.1 3.9 48.9 2.5 C44.8 4.4 42.7 7.3 40 10.7 C39.1 7.9 37.6 6.1 36.9 2.6 C35.2 4.9 34.7 8.3 34.9 11.1 C32.2 7.7 29.4 4.2 25.5 2.3 C26.4 3.7 26.7 5.2 27.5 6.6 C26.6 6 25.4 5.7 24.5 5.3 C24.5 5.3 23.8 5 23.7 5 C23.3 5 22.9 4.7 22.4 4.7 C22.4 4.7 23 5.8 23.7 6.8 C22.4 6.7 21.1 6.3 19.8 6.3 C20.1 6.6 20 7.3 20.1 7.7 C18 8.3 16.4 7.9 14.4 8.5 C15.7 8.9 16.1 10.5 16.7 11.5 C15.4 11.8 14 12.9 13 13.9 C13.2 15.1 13.4 16.4 15 16.5 C14.7 17.2 13 17.9 12.7 18.6 C13.6 18.7 14.3 20 15.2 20.1 C14.3 20.7 14.3 20.4 13.6 21 L15.5 21.3 L12.8 23.2 C14.4 23.5 16.1 24.3 17.7 24.6 C17 24.6 15.7 25.1 15.2 25.4 C14.6 25.7 14.1 26.4 13.8 26.5 C13.5 26.9 13.4 26.7 13.3 27.2 C15.3 27 18.6 27.4 20.7 27.8 C30.3 30.9 32.3 37.3 35.8 44.1 C35 43.3 34.1 42.9 33.3 42.1 C34.2 44.3 33.9 45 34.6 47 C34.2 46.8 33.6 46.6 33.3 47 C32.9 47.6 34.3 49.1 34.6 49.4 C34.1 49.1 33.5 48.8 32.8 48.5 C33.7 50.4 34.1 52.2 34.9 54.1 C33.5 53 31.3 52.8 29.9 51.8 C29.9 53.7 31.3 54.2 32.3 55.2 C30.7 55.2 28.1 55.2 26.1 55.6 C26.7 56.2 26.5 56.3 26.9 56.7 C24.6 57.3 22.4 58.6 19.9 58.3 C18.2 58.1 14.5 57.9 14 56 C12.8 57 13 58.3 13.7 59.6 C11.8 60.4 3.7 62.1 1.3 73.3 C1.4 72.4 2.8 72.2 3.6 71.6 C3 73.6 2.5 75.8 2.2 78.4 C3.2 78 4.1 77.7 5.1 77.5 C5.4 80 6.3 82.5 7.5 84.5 C7.8 84 8 83.5 8.1 83 C8.1 84.1 9.3 86.9 10.9 85.9 C11.1 86.6 11.6 87.8 12.3 88.2 C13 88.5 14.1 88.2 14.8 88.3 z" opacity="0.15" id="e2" /></g></g><g transform="translate(107.3, 127.1) translate(51, 68)" id="f2"><g id="g2"><path d="M19.3 10.7 C18.9 10.3 18.2 10.4 17.8 10.8 C16.9 11.8 15.3 13 13.7 13.1 C12.8 13.1 11.9 12.7 11.1 11.9 L11.1 1.5 C11.1 0.9 10.6 0.4 10 0.4 C9.4 0.4 8.9 0.9 8.9 1.5 L8.9 11.9 C8.1 12.7 7.3 13.1 6.3 13.1 C4.7 13.1 3.1 11.9 2.2 10.8 C1.8 10.4 1.2 10.3 0.7 10.7 C0.3 11.1 0.2 11.7 0.6 12.2 C1.8 13.6 4 15.2 6.3 15.2 C7.5 15.2 8.7 14.8 9.8 13.9 C9.9 13.9 9.9 13.9 10 13.9 C10.1 13.9 10.1 13.9 10.2 13.9 C11.2 14.7 12.4 15.2 13.7 15.2 C16 15.2 18.2 13.6 19.4 12.2 C19.9 11.7 19.8 11.1 19.3 10.7 z" id="h2" fill="#282421" /></g></g><g transform="translate(168.6, 192.4) scale(0.8) translate(-168.6, -192.4) translate(107, 118.2) translate(50, 68)" id="i2"><g id="j2"><path d="M10.5 0.5 C14.7 0.5 20.6 1.4 20.7 4.9 C20.8 8.4 20.2 12.6 16 15 C11.8 17.4 7.7 17 4.1 14 C0.9 10.3 0.6 8.5 0.6 5 C0.6 1.5 6.1 0.5 10.5 0.5 z" id="k2" fill="#424242" /><path d="M4.6 2.8 C4.6 4 8.1 4.4 10.6 4.5 C13.1 4.6 15.3 4.3 16.7 3.7 C18.1 3.2 18.6 1.5 13 1.5 C7.5 1.5 4.6 1.6 4.6 2.8 z" id="l2" fill="#FFF" /></g></g><g transform="translate(88.09999, 131.4) translate(54, 35)" id="m2"><g id="n2"><path d="M4.7 6.8 C3.5 9 0.2 13.2 0.9 15.7 C1.2 16.6 2.2 17.5 3.7 17.7 C4.3 17.8 6.2 18.4 6.4 18.4 C7.8 18.4 8.8 18.1 9.8 17.5 C10.9 16.9 11.5 15.2 12.2 14.4 C13.2 13.3 13.9 12.5 14.1 11.8 C14.8 10.1 15.3 8.9 15.3 5.6 C15.4 -0.7 6.3 3.9 4.7 6.8 z" id="o2" fill="#B58164" /><path d="M3.9 7.4 C5.7 5 7 3.9 8.7 2.1 C10.4 0.3 12.5 0.1 13.9 1.7 C15.3 3.3 15.8 4.2 15.8 5.9 C15.8 7.6 16.2 9 13.9 11.3 C11.6 13.6 6.9 15.1 5.3 13.6 C3.7 12.1 2.1 9.8 3.9 7.4 z" id="p2" /><path d="M11.2 8.1 C12.5 8.1 13.6 7 13.6 5.7 C13.6 4.4 13 3.7 11.7 3.7 C10.4 3.7 9.1 5.5 9.1 6.9 C9.1 8.3 9.9 8.1 11.2 8.1 z" id="q2" fill="#FFF" /><path d="M8.9 10.3 C9.3 10.3 9.1 9.3 9.1 8.8 C9.1 8.3 8.9 8.1 8.5 8.1 C8 8.1 7.6 8.8 7.6 9.2 C7.6 9.7 8.5 10.3 8.9 10.3 z" id="r2" fill="#FFF" /></g></g><g transform="translate(86.89999, 131.4) translate(94, 35)" id="s2"><g id="t2"><path d="M12.1 6.4 C13.3 8.6 16.6 11.7 15.7 14.6 C15.3 15.9 12.2 17.7 11.4 17.8 C7.5 18.6 7.1 17.7 5.7 16.8 C4.4 16 2.8 13 2.2 11.5 C1.5 9.9 1 8.7 1 5.4 C1 -0.9 10.5 3.5 12.1 6.4 z" id="u2" fill="#B58164" /><path d="M12.3 5.9 C10.4 3.7 8.9 2.8 7.3 1.2 C5.7 -0.4 3.6 0.1 2.2 1.7 C0.8 3.3 0.3 4.1 0.3 5.9 C0.3 7.7 -0.1 9 2.2 11.3 C4.5 13.6 9.2 15.1 10.8 13.6 C12.4 12.1 14.2 8.1 12.3 5.9 z" id="v2" /><path d="M6.3 8.1 C5 8.1 3.9 7 3.9 5.7 C3.9 4.4 4.5 3.7 5.8 3.7 C7.1 3.7 8.3 5.6 8.3 6.9 C8.3 8.2 7.6 8.1 6.3 8.1 z" id="w2" fill="#FFF" /><path d="M9.1 8.7 C9.1 8.3 8.9 8.1 8.5 8.1 C8.1 8.1 7.7 8.7 7.7 9.1 C7.7 9.4 8.6 9.7 9 9.6 C9.2 9.4 9.1 8.9 9.1 8.7 z" id="x2" fill="#FFF" /></g></g></g></g></g></g><defs><g transform="translate(17.09519, 0.800995) translate(-135.2952, -293.601)" id="y2" fill="#000"><path d="M118.2 302.7 C118.4 307.4 132.5 311.2 149.8 311.2 C167.1 311.2 181.2 307.4 181.4 302.7 C181.4 307.5 181.4 310.1 181.4 310.5 C181.4 315.3 167.3 319.1 149.8 319.1 C132.3 319.1 118.2 315.2 118.2 310.5 L118.2 302.7 L118.2 302.7 z" fill-opacity="0.4528" id="z2" fill="#593001" /><path d="M118.7 301.7 C118.9 306.4 133 310.2 150.3 310.2 C167.6 310.2 181.7 306.4 181.9 301.7 C181.9 306.5 181.9 309.1 181.9 309.5 C181.9 314.3 167.8 318.1 150.3 318.1 C132.8 318.1 118.7 314.2 118.7 309.5 L118.7 301.7 L118.7 301.7 z" id="a3" fill="#DA8113" /><linearGradient x1="46.0545" y1="-118.6926" x2="45.4656" y2="-118.6926" gradientUnits="userSpaceOnUse" gradientTransform="matrix(117.135, 0, 0, 28.4634, -5208.417, 3687.795)" id="b3"><stop offset="0%" stop-color="#D9952A" stop-opacity="1" /><stop offset="6.438854%" stop-color="#CA7519" stop-opacity="1" /><stop offset="30.54%" stop-color="#E3AD3A" stop-opacity="1" /><stop offset="51.05%" stop-color="#FFEC91" stop-opacity="1" /><stop offset="68.8%" stop-color="#E9BD44" stop-opacity="1" /><stop offset="86.24%" stop-color="#FFED6C" stop-opacity="1" /><stop offset="93.87%" stop-color="#F2D353" stop-opacity="1" /><stop offset="100%" stop-color="#F2B947" stop-opacity="1" /></linearGradient><path d="M118.2 301.6 C118.4 306.1 132.7 309.7 150.3 309.7 C167.9 309.7 182.2 306.1 182.4 301.6 C182.4 306.2 182.4 308.7 182.4 309 C182.4 313.5 168 317.2 150.3 317.2 C132.6 317.2 118.2 313.5 118.2 309 L118.2 301.6 L118.2 301.6 z" id="c3" style="fill:url(#b3)" /><linearGradient x1="45.4914" y1="-117.9547" x2="45.9407" y2="-117.5895" gradientUnits="userSpaceOnUse" gradientTransform="matrix(115.425, 0, 0, 29.925, -5125.077, 3826.124)" id="d3"><stop offset="0%" stop-color="#F4E072" stop-opacity="1" /><stop offset="100%" stop-color="#DB9427" stop-opacity="1" /></linearGradient><ellipse cx="150.3" cy="301.5" rx="31.6" ry="8.2" id="e3" style="fill:url(#d3)" /><linearGradient x1="45.4656" y1="-126.0065" x2="46.0545" y2="-126.0065" gradientUnits="userSpaceOnUse" gradientTransform="matrix(117.135, 0, 0, 18.6219, -5208.417, 2651.479)" id="f3"><stop offset="0%" stop-color="#D9952A" stop-opacity="1" /><stop offset="6.438854%" stop-color="#CA7519" stop-opacity="1" /><stop offset="30.54%" stop-color="#E3AD3A" stop-opacity="1" /><stop offset="51.05%" stop-color="#FFEC91" stop-opacity="1" /><stop offset="68.8%" stop-color="#E9BD44" stop-opacity="1" /><stop offset="86.24%" stop-color="#FFED6C" stop-opacity="1" /><stop offset="93.87%" stop-color="#F2D353" stop-opacity="1" /><stop offset="100%" stop-color="#F2B947" stop-opacity="1" /></linearGradient><path d="M119.2 299.9 C119 300.2 118.9 300.6 118.9 301 C118.9 305.5 132.9 309.2 150.3 309.2 C167.7 309.2 181.7 305.5 181.7 301 C181.7 300.6 181.6 300.3 181.4 299.9 C182 300.5 182.4 301.2 182.4 301.9 C182.4 306.4 168 310.1 150.3 310.1 C132.6 310.1 118.2 306.4 118.2 301.9 C118.2 301.3 118.6 300.6 119.2 299.9 z" id="g3" style="fill:url(#f3)" /><linearGradient x1="45.196" y1="-121.5895" x2="45.3746" y2="-120.6758" gradientUnits="userSpaceOnUse" gradientTransform="matrix(101.745, 0, 0, 23.94, -4458.332, 3199.41)" id="h3"><stop offset="0%" stop-color="#F8DD61" stop-opacity="1" /><stop offset="100%" stop-color="#EAA330" stop-opacity="1" /></linearGradient><ellipse cx="150.3" cy="300.8" rx="27.8" ry="6.6" id="i3" style="fill:url(#h3)" /><linearGradient x1="45.5694" y1="-134.267" x2="45.0221" y2="-134.267" gradientUnits="userSpaceOnUse" gradientTransform="matrix(101.745, 0, 0, 13.2525, -4458.332, 2077.223)" id="j3"><stop offset="0%" stop-color="#F4CA2F" stop-opacity="1" /><stop offset="51.38%" stop-color="#BF7737" stop-opacity="1" /><stop offset="100%" stop-color="#E4A929" stop-opacity="1" /></linearGradient><path d="M122.6 301.5 C122.5 301.3 122.4 301 122.4 300.8 C122.4 297.2 134.9 294.2 150.2 294.2 C165.5 294.2 178 297.1 178 300.8 C178 301 177.9 301.3 177.8 301.5 C176.3 298.2 164.5 295.6 150.1 295.6 C135.7 295.6 124.1 298.2 122.6 301.5 z" id="k3" style="fill:url(#j3)" /></g></defs><desc>F2JJFIKAOBF,0XbXK8FmsRGhi6mPyKnGUbvBCK0IMdbrA5T2iEeVoWDdOJX535mJI5CakiYyDy4uGv/MOzI0EdNc0yNOJQ5Gi3Qunp1SpkWOkFBOlPMmFYRCPDY3A8mDr5C2wLHfbaaN/cFc0JaZ5xThDb9ztLmhWWIXhqektFOsVorDXKoWEqo9fCWzQgzzdDbwWHura4aqlysgBNiaWAu3e6nbJZc7aA==</desc></svg>