<?xml version="1.0" encoding="utf-8"?><!DOCTYPE svg PUBLIC "-//W3C//DTD SVG 1.1//EN" "http://www.w3.org/Graphics/SVG/1.1/DTD/svg11.dtd"><svg x="0" y="0" width="340px" height="340px" viewBox="0, 0, 340, 340" preserveAspectRatio="xMidYMid" font-size="0" id="a" enable-background="new 0 0 340 340" xmlns="http://www.w3.org/2000/svg" xmlns:xlink="http://www.w3.org/1999/xlink" xmlns:xml="http://www.w3.org/XML/1998/namespace" version="1.1"><g id="b" fill="#000"><g id="c"><g transform="translate(0, 0) translate(0, 224)" id="d"><ellipse cx="168.6" cy="53.1" rx="57.8" ry="12.8" fill-opacity="0.25" id="e" /></g><g id="f"><g transform="translate(99.9, 95.89998) translate(0, 107)" id="g"><path d="M40.6 27.9 C34 31.5 24.6 28.4 21.5 21.6 C18.3 14.8 22.1 5.6 29.1 2.9 C26.8 1.1 24 0.4 21.1 0.5 C14.8 0.4 8.4 3.4 4.6 8.5 C0.4 14.2 -0.4 22.4 2.6 28.8 C5 25 5 25 7.5 21.2 C3.5 28.9 6.9 30.6 12.1 37.6 C12.7 35.3 13.2 33.9 14.9 32.7 C14.9 34.9 14.9 36.4 15.5 38.3 C16.2 40.7 16.7 41.1 17.2 42.4 C18.3 42.5 19.3 42.1 20.1 41.4 L19.9 44.6 C20.7 44.8 23.2 44.2 24 44.4 C29.1 44.6 37.1 44.8 40.7 39.1 C44.6 33.4 40.6 27.9 40.6 27.9 z" id="h" fill="#594F46" /><path d="M40.6 27.9 C40.6 27.9 44.6 33.4 40.7 39.1 C37.1 44.8 29.1 44.6 24 44.4 C23.2 44.2 20.7 44.8 19.9 44.6 L20.1 41.4 C19.3 42.1 18.3 42.5 17.2 42.4 C16.7 41.1 16.2 40.7 15.5 38.3 C14.9 36.4 14.9 34.9 14.9 32.7 C13.2 33.9 12.7 35.3 12.1 37.6 C6.7 30.2 3.4 28.6 7.5 21.2 C5 25 5 25 2.6 28.8 C-0.4 22.4 0.4 14.2 4.6 8.5 C8.4 3.4 14.8 0.4 21.1 0.5 C24 0.4 26.8 1.1 29.1 2.9 C22.1 5.6 18.3 14.8 21.5 21.6 C24.6 28.4 34 31.5 40.6 27.9 z M40.3 29.6 C34.4 32.8 23.7 28 20.9 21.9 C18.1 15.8 20.5 4.9 26.7 2.5 C24.6 0.9 22 1.4 19.4 1.5 C13.7 1.4 9.9 3.6 6.4 8.2 C2.7 13.4 1 18.7 3.6 24.5 C5.8 21.1 6.3 21.6 8.6 18.2 C7.6 23.9 7.9 29.4 11.5 33.8 C12 31.7 13.9 31.5 15.5 30.4 C15.5 32.4 15.8 34.4 16.4 36.1 C17.2 39.1 20.7 40.1 21.4 39.5 L21.6 42.5 C22.3 42.7 25.9 42.3 26.7 42.5 C31.3 42.7 37.2 42.7 40.4 37.5 C41.8 34.9 40.6 31.9 40.3 29.6 z" opacity="0.16" id="i" /></g><g transform="translate(128.0306, 273.3644) scale(1.583851) translate(-128.0306, -273.3644) translate(128.7, 274.8) rotate(20, 0, 0) scale(0.7) translate(-124.7, -274.8) translate(101.9, 76.39996) translate(14, 151)" id="j"><path d="M21.4 0.7 C15.4 0.7 10.5 1.3 7.1 4.6 C3.7 7.9 0 10.4 0.4 18.5 C0.8 26.6 3.2 33.9 10.9 36.8 C6.8 39 6.4 40.4 6.8 43.2 C7.1 45.9 6.5 46.6 14 45.9 C19 45.5 23.5 45.2 27.5 45.2 C29.2 42.4 29.8 38.9 29.3 34.7 C30.6 32.1 35 17.8 32.3 12 C29.6 6.2 27.4 0.7 21.4 0.7 z" id="k" fill="#35302C" /><path d="M21.4 0.7 C27.4 0.7 29.6 6.2 32.3 12 C35 17.8 30.6 32.1 29.3 34.7 C29.8 38.9 29.2 42.4 27.5 45.2 C23.5 45.2 19 45.5 14 45.9 C6.5 46.6 7.1 45.9 6.8 43.2 C6.4 40.4 6.8 39 10.9 36.8 C3.2 33.9 0.8 26.6 0.4 18.5 C0 10.4 3.7 7.9 7.1 4.6 C10.5 1.3 15.4 0.7 21.4 0.7 z M21.1 1.4 C15.5 1.4 11 1.9 7.8 5 C4.6 8 1.2 10.3 1.6 17.9 C2 25.4 6 34.1 13.2 36.8 C9.4 38.9 7.8 38.9 8.2 41.5 C8.4 44 7.2 43.9 14.2 43.3 C18.8 42.9 23 42.6 26.7 42.6 C28.3 40 28.9 36.8 28.4 32.9 C29.6 30.5 33.7 17.2 31.2 11.8 C28.7 6.5 26.6 1.4 21.1 1.4 z" opacity="0.15" id="l" /></g><g transform="translate(210.4693, 273.4644) scale(1.583851) translate(-210.4693, -273.4644) translate(209.8, 274.9) rotate(-20, 0, 0) scale(0.7) translate(-213.8, -274.9) translate(108, 76.89996) translate(98, 175.5) scale(-1, 1) translate(-98, -175.5) translate(81, 151)" id="m"><path d="M22.1 0.7 C16.1 0.7 11.2 1.3 7.8 4.6 C4.4 7.9 0.6 10.4 1 18.5 C1.4 26.6 3.8 33.9 11.5 36.8 C7.4 39 7 40.4 7.4 43.2 C7.8 46 7.1 46.6 14.6 45.9 C19.6 45.5 24.1 45.2 28.1 45.2 C29.8 42.4 30.4 38.9 29.9 34.7 C31.2 32.1 35.6 17.8 32.9 12 C30.2 6.2 28 0.7 22.1 0.7 z" id="n" fill="#35302C" /><path d="M22.1 0.7 C28 0.7 30.2 6.2 32.9 12 C35.6 17.8 31.2 32.1 29.9 34.7 C30.4 38.9 29.8 42.4 28.1 45.2 C24.1 45.2 19.6 45.5 14.6 45.9 C7.1 46.6 7.8 46 7.4 43.2 C7 40.4 7.4 39 11.5 36.8 C3.8 33.9 1.4 26.6 1 18.5 C0.6 10.4 4.4 7.9 7.8 4.6 C11.2 1.3 16.1 0.7 22.1 0.7 z M21.8 1.1 C16.2 1.1 11.6 1.7 8.4 4.8 C5.2 7.9 1.6 10.2 2 17.8 C2.4 25.4 6.9 33.7 14.1 36.5 C10.3 38.5 8 38.9 8.4 41.5 C8.8 44.1 7.7 44.2 14.8 43.5 C19.5 43.1 23.7 42.9 27.4 42.9 C29 40.2 29.6 36.9 29.1 33 C30.3 30.6 34.5 17.1 31.9 11.7 C29.4 6.3 27.3 1.1 21.8 1.1 z" opacity="0.15" id="o" /></g><g transform="translate(96.90001, 90.79997) translate(24, 65)" id="p"><g transform="translate(4, 0)" id="q"><path d="M71 19.7 C73.2 28.5 78.4 30.1 83 37.6 C89.4 45.5 87.3 61.5 83.3 73 C82 76.7 78.7 86.3 76.6 97.4 C74.6 108.4 76.2 117.3 72.2 120.7 C70.8 122.2 64.9 123.5 55.5 123.5 C52.1 123.5 51 122.5 44.7 122.5 C38.4 122.5 36.3 123.6 33.3 123.5 C24.6 123.1 21 123.2 18.1 120.7 C13.8 116.2 15.5 106.2 12.9 95.6 C10.6 86.1 6.5 78.3 5.5 74 C3.5 64.9 0.2 50.2 6.3 39.2 C9.2 32.9 15.3 26.1 16.9 17.6 C18.6 8.1 34.9 5 43.7 4.4 C55 3.6 68.6 10.1 71 19.7 z" id="r" fill="#453D37" /><path d="M84.2 39.3 C71.9 51.2 58.6 57.1 44.5 57.1 C30.5 57.1 17.9 51 6.6 38.7 C9.6 32.5 15.4 25.9 17 17.6 C18.6 8.1 34.9 5 43.7 4.4 C55 3.6 68.6 10.1 71 19.7 C73.2 28.5 78.4 30.1 83 37.6 C83.4 38.1 83.8 38.7 84.2 39.3 z" id="s" fill="#594F46" /><path d="M71 19.7 C73.2 28.5 78.4 30.1 83 37.6 C89.4 45.5 87.3 61.5 83.3 73 C82 76.7 78.7 86.3 76.6 97.4 C74.6 108.4 76.2 117.3 72.2 120.7 C70.8 122.2 64.9 123.5 55.5 123.5 C52.1 123.5 51 122.5 44.7 122.5 C38.4 122.5 36.3 123.6 33.3 123.5 C24.6 123.1 21 123.2 18.1 120.7 C13.8 116.2 15.5 106.2 12.9 95.6 C10.6 86.1 6.5 78.3 5.5 74 C3.5 64.9 0.2 50.2 6.3 39.2 C9.2 32.9 15.3 26.1 16.9 17.6 C18.6 8.1 34.9 5 43.7 4.4 C55 3.6 68.6 10.1 71 19.7 z M69.6 20.3 C67.4 11 54.5 4.8 43.8 5.5 C35.4 6.1 20 9.1 18.4 18.3 C16.9 26.5 11.1 33 8.4 39.1 C2.6 49.7 5.7 63.8 7.6 72.6 C8.5 76.7 12.4 84.3 14.6 93.4 C17.1 103.6 15.5 113.3 19.5 117.6 C22.2 120 25.7 119.9 33.9 120.3 C36.7 120.4 38.7 119.3 44.7 119.3 C50.7 119.3 51.7 120.3 54.9 120.3 C63.8 120.3 69.4 119 70.7 117.6 C74.5 114.3 73 105.7 74.9 95.1 C76.9 84.4 80 75.1 81.2 71.6 C85 60.5 87 45.1 80.9 37.5 C76.6 30.3 71.7 28.8 69.6 20.3 z" opacity="0.15" id="t" /></g></g><g fill-rule="evenOdd" transform="translate(125.669, 187.242) scale(1.13, 1.081928) translate(-130.7, -200.4) translate(104.9, 82.79997) translate(65, 163) scale(-1, 1) translate(-65, -163) translate(26, 119)" id="u"><path d="M7.6 1.8 C8.9 0.3 10.2 -1 14.9 6 C16.8 8.8 20 11.5 21.9 14.4 C24.8 18.8 26.1 23.2 28.3 25.5 C31.9 29.2 36 31.9 41.1 31 C46.3 30.1 50.5 22.7 53.3 18 C56.2 13.3 63.6 7.6 66.2 4.7 C68.8 2 69.2 -1.4 72.1 1.4 C75 4.2 78.2 13.6 77.9 17.2 C77.6 20.8 76.9 29 74.5 32.5 C72.1 36 70.7 37.3 70.7 41 C70.7 44.7 66.7 50.6 66.5 53.7 C66.3 56.8 63.3 66.9 63.3 74.7 C63.3 76.3 64.3 78.8 64.4 80.2 C64.7 83.3 66 86.9 60.9 86.9 C55.8 86.9 53.1 87.6 50.2 86.9 C49.2 86.9 46.9 85.8 46.6 84.9 C46.2 83.3 47.4 80.6 47.8 79.3 C48.7 76 51.4 74.1 51.7 73.1 C52.5 70.5 53.4 46.4 53.3 43.8 C50.8 51.6 49.8 53.8 46.2 53.8 C43.8 53.8 41.3 52.5 38.6 50 C36.8 52.6 34.6 53.8 32 53.8 C29.4 53.8 26.2 49.6 22.3 41.1 C23.8 49.4 24.8 55.1 25.1 58 C25.6 62 26.3 66.4 26.4 67.5 C26.5 68.6 26.8 70.4 27.6 73.6 C27.9 74.7 30.5 76.3 31.6 79.7 C32.7 83.1 33.1 85.2 30.6 86.5 C28.1 87.8 27.5 87.6 26.3 87.5 C22.3 87.2 16.6 86.2 15.8 85.5 C14.7 84.7 14.1 80 14.7 77.6 C15.9 72.8 15.2 70.5 15.2 68.6 C15.3 64.4 11.5 50.4 8.7 46.4 C5.9 42.4 7 38.7 6 34.8 C5 30.9 1 27.2 0.9 19.4 C0.8 11.6 6.2 3.2 7.6 1.8 z" id="v" fill="#594F46" /><path d="M7.6 1.8 C8.9 0.3 10.2 -1 14.9 6 C16.8 8.8 20 11.5 21.9 14.4 C24.8 18.8 26.1 23.2 28.3 25.5 C31.9 29.2 36 31.9 41.1 31 C46.3 30.1 50.5 22.7 53.3 18 C56.2 13.3 63.6 7.6 66.2 4.7 C68.8 2 69.2 -1.4 72.1 1.4 C75 4.2 78.2 13.6 77.9 17.2 C77.6 20.8 76.9 29 74.5 32.5 C72.1 36 70.7 37.3 70.7 41 C70.7 44.7 66.7 50.6 66.5 53.7 C66.3 56.8 63.3 66.9 63.3 74.7 C63.3 76.3 64.3 78.8 64.4 80.2 C64.7 83.3 66 86.9 60.9 86.9 C55.8 86.9 53.1 87.6 50.2 86.9 C49.2 86.9 46.9 85.8 46.6 84.9 C46.2 83.3 47.4 80.6 47.8 79.3 C48.7 76 51.4 74.1 51.7 73.1 C52.5 70.5 53.4 46.4 53.3 43.8 C50.8 51.6 49.8 53.8 46.2 53.8 C43.8 53.8 41.3 52.5 38.6 50 C36.8 52.6 34.6 53.8 32 53.8 C29.4 53.8 26.2 49.6 22.3 41.1 C23.8 49.4 24.8 55.1 25.1 58 C25.6 62 26.3 66.4 26.4 67.5 C26.5 68.6 26.8 70.4 27.6 73.6 C27.9 74.7 30.5 76.3 31.6 79.7 C32.7 83.1 33.1 85.2 30.6 86.5 C28.1 87.8 27.5 87.6 26.3 87.5 C22.3 87.2 16.6 86.2 15.8 85.5 C14.7 84.7 14.1 80 14.7 77.6 C15.9 72.8 15.2 70.5 15.2 68.6 C15.3 64.4 11.5 50.4 8.7 46.4 C5.9 42.4 7 38.7 6 34.8 C5 30.9 1 27.2 0.9 19.4 C0.8 11.6 6.2 3.2 7.6 1.8 z M10 5 C8.7 6.3 3.7 14.1 3.8 21.3 C3.9 28.5 7.6 31.9 8.5 35.5 C9.5 39.1 8.5 42.5 11 46.2 C13.6 49.9 17.1 62.8 17 66.7 C17 68.5 17.7 70.6 16.6 75 C16 77.3 16.6 81.6 17.6 82.3 C18.3 83 22.1 83.9 25.8 84.2 C26.9 84.3 27.4 85.4 29.7 84.2 C32 83 31.1 81.5 30.1 78.4 C29 75.2 26.7 75.8 26.4 74.7 C25.7 71.8 25.3 67.7 25.2 66.7 C25.1 65.7 24.4 61.1 24 57.4 C23.7 55.1 22.4 47.9 21 41.2 C20.9 40.7 20.7 39.4 21 38.4 C21.3 37.6 22 37.2 21.9 36.7 C25.5 44.5 30.2 53.1 32.6 53.1 C35 53.1 37 51.9 38.7 49.5 C41.2 51.8 43.5 53.1 45.7 53.1 C49 53.1 51.2 47.5 53.5 40.3 C53.5 40.9 54.7 41.7 54.5 44.2 C54 52.4 53.4 71 52.8 72.9 C52.5 73.8 47.8 80 48.1 81.3 C48.4 82.1 48.5 83.6 49.4 83.6 C52.1 84.3 54.6 83.6 59.3 83.6 C64 83.6 62.8 80.3 62.5 77.4 C62.4 76.1 61.5 73.8 61.5 72.4 C61.5 65.2 64.3 55.8 64.4 53 C64.6 50.1 68.3 44.6 68.3 41.2 C68.3 37.8 69.6 36.6 71.8 33.4 C74 30.1 74.7 22.6 75 19.2 C75.2 15.9 72.3 7.2 69.6 4.6 C66.9 2.1 66.6 5.2 64.2 7.7 C61.8 10.4 56.2 15.9 53.5 20.3 C50.9 24.6 45.1 32.5 40.3 33.4 C35.5 34.2 31.5 30.5 28.2 27.1 C26.2 24.9 24.6 20.9 21.9 16.8 C20.1 14.2 18.5 11.5 16.8 8.9 C12.4 2.4 11.2 3.6 10 5 z" opacity="0.15" id="w" /></g></g><g transform="translate(170, 196.9) scale(0.8982348) translate(-170, -196.9)" id="x"><g transform="translate(110.6, 103.9) translate(16, 0)" id="y"><g id="z"><g id="a1"><path d="M85.7 48.5 C85.7 48.2 85.7 48 85.7 47.7 C86.3 47.8 86.8 47.7 87.2 47.3 C86.5 45.6 85.8 43.8 85.3 42 C84.8 40.3 84.7 38.4 84.3 36.6 C85.1 36.8 85.9 37.2 86.6 37.8 C84.7 33.9 83.2 29.8 80.8 26.2 C79.1 23.7 75.2 19.9 73.8 18.8 C74.6 18.2 75.3 17.7 76.1 17.1 C74.3 15.4 72.3 13.7 69.8 13.3 C71 13.1 72.2 13 73.4 12.9 C71.9 12.1 68.3 9.3 63.9 9.5 C65.5 9.2 65.8 7.3 66.3 5.9 C64.3 6.4 62.3 6.9 60.4 7.4 C60.7 6.2 60.7 4.7 60 3.7 C59.3 2.7 58.1 2.1 56.9 2.2 C57 4.2 56.2 6.2 54.8 7.7 C52.6 8 51 8.5 49.7 9.4 C50.6 8.1 51.6 6.9 51.6 5.6 C49.8 7 47 9.1 45.3 10.4 C44.6 6.4 42.1 2.6 38.5 0.7 C39.9 3.3 39.5 6.5 40.4 9.2 C38.8 8 37 6.6 35.6 5.6 C35.6 7 36.6 8.1 37.5 9.4 C36.3 8.5 34.7 8 32.4 7.7 C31 6.3 30.2 4.3 30.3 2.2 C29.1 2.1 27.8 2.7 27.2 3.7 C26.5 4.8 26.5 6.2 26.8 7.4 C24.8 6.9 22.8 6.4 20.9 5.9 C21.4 7.3 22.2 8.5 23.3 9.5 C23.1 9.6 23 9.7 22.9 9.9 C18.2 10.1 15.3 12.1 13.8 12.9 C15 13 16.3 13.1 17.4 13.3 C14.8 13.7 12.9 15.4 11.1 17.1 C11.9 17.7 12.6 18.2 13.4 18.8 C12.1 19.9 9.3 22.5 7.9 24 C6.4 25.5 2.5 33.9 0.7 37.8 C1.3 37.2 2.1 36.8 3 36.6 C2.6 38.4 2.5 40.2 2 42 C1.5 43.8 0.7 45.6 0.1 47.3 C0.5 47.7 1.1 47.8 1.6 47.7 C1.6 48.8 1.3 49.7 1.1 50.8 C0.7 52.9 1.1 59.2 1.1 61.7 C1.5 61.6 1.9 61.5 2.3 61.3 C1.7 63.3 1.7 65.5 2.5 67.4 C2.8 66.7 3 66 3.3 65.2 C3.8 67.3 3.9 69.3 4.1 71.4 C4.4 71.3 4.7 71.2 5 71 C5.3 71.7 5.7 72.5 5.8 73.3 C5.9 73.9 5.6 74.7 5.3 75.2 C6.2 76.2 6.8 77.6 7.7 78.6 L7.9 77.9 C8.6 79.3 8.9 80.9 9.3 82.4 C9.5 82 9.7 81.7 9.9 81.3 C10.3 81.9 10.8 82.5 11.1 83.1 C11.5 83.9 11.7 84.8 12.1 85.7 C12.3 86.3 12.6 87.1 13.2 87.5 C13.7 87.8 14.7 87.7 14.9 87 C15.3 87.3 15.5 87.9 15.9 88.3 C16.4 88.7 16.9 89.1 17.5 89.4 C18.8 90.3 20.1 91.1 21.4 92 C21.4 91.8 21.4 91.5 21.5 91.3 C21.7 91.4 21.9 91.5 22.2 91.6 L21.6 91.5 C22.9 92.5 24.2 93.5 25.6 94.6 C25.6 94.2 25.6 93.9 25.6 93.5 C27.9 94.3 30.2 95.1 32.6 95.9 C33.3 93.8 36 95.5 36.9 96.4 C37.4 96.1 37.7 95.6 37.8 95 C38.4 95 38.9 95 39.4 95.3 C39.9 95.5 40.3 95.8 40.8 95.9 C41.7 96.1 42.8 96 43.5 95.2 C44.1 95.2 44.6 95.2 45.2 95.2 C45.9 96 47 96.1 47.9 95.9 C48.4 95.8 48.7 95.6 49.1 95.4 C49.7 95.1 50.1 95.1 50.8 95.1 C50.9 95.7 51.2 96.2 51.7 96.5 C52.6 95.6 55.2 93.8 56 96 C58.3 95.2 60.6 94.4 63 93.6 C63 94 63 94.3 63 94.7 C64.3 93.7 65.6 92.7 67 91.6 L66.4 91.7 C66.6 91.6 66.8 91.5 67.1 91.4 C67.1 91.6 67.1 91.9 67.2 92.1 C68.5 91.2 69.8 90.4 71.1 89.5 C71.6 89.1 72.2 88.8 72.7 88.4 C73.1 88 73.3 87.5 73.7 87.1 C73.9 87.8 74.8 88 75.4 87.6 C76 87.2 76.3 86.4 76.5 85.8 C76.8 84.9 77.1 84 77.5 83.2 C77.8 82.5 78.3 82 78.7 81.4 C78.9 81.8 79.1 82.1 79.3 82.5 C79.7 80.9 80 79.4 80.7 78 C80.7 78.1 80.7 78.2 80.7 78.3 C81.6 77.3 82.5 76.3 83.4 75.3 C83.1 74.8 82.8 74 82.9 73.4 C83 72.7 83.4 71.8 83.7 71.1 C84 71.2 84.3 71.3 84.6 71.5 C84.8 69.4 84.9 67.3 85.4 65.3 C85.7 66 85.9 66.7 86.2 67.5 C86.9 65.5 87 63.4 86.4 61.4 C86.8 61.6 87.1 61.8 87.6 61.8 C87.6 59.4 87.7 57 87.7 54.6 C87.7 53.5 87.8 52.5 87.7 51.4 C86.1 50.4 85.7 49.5 85.7 48.5 z" id="b1" fill="#453D37" /><path d="M37.1 9.1 C36.7 8.5 36.4 8 36.2 7.4 C35.9 6.8 35.6 6.2 35.6 5.6 C37 6.6 38.8 8 40.4 9.2 C40.4 9.1 40.4 9.1 40.4 9 C39.6 6.3 39.9 3.2 38.6 0.7 C42.2 2.6 44.7 6.4 45.4 10.4 C47 9.1 49.8 7 51.6 5.6 C51.6 6.9 50.6 8.1 49.7 9.4 C51 8.5 52.6 8 54.8 7.7 C56.2 6.2 57 4.2 56.9 2.2 C58.1 2.1 59.3 2.7 60 3.7 C60.7 4.7 60.7 6.2 60.4 7.4 C62.3 6.9 64.3 6.4 66.3 5.9 C65.8 7.3 65.5 9.2 63.9 9.5 C68.3 9.3 71.9 12.1 73.4 12.9 C72.2 13 71 13.1 69.8 13.3 C72.3 13.7 74.3 15.4 76.1 17.1 C75.3 17.7 74.6 18.2 73.8 18.8 C75.2 19.9 79.1 23.7 80.8 26.2 C82.4 28.6 83.6 31.3 84.8 34 C85 34.4 85.2 34.7 85.4 35.1 C85.4 35.1 85.3 35 85.3 35 C85.7 35.9 86.1 36.9 86.6 37.8 C85.9 37.2 85.1 36.8 84.3 36.6 C84.7 38.4 84.8 40.3 85.3 42 C85.8 43.8 86.5 45.6 87.2 47.3 C86.8 47.7 86.3 47.8 85.7 47.7 C85.7 48 85.7 48.2 85.7 48.5 C85.7 49.5 86.1 50.4 87.7 51.4 C87.8 52.5 87.7 53.5 87.7 54.6 C87.7 57 87.6 59.4 87.6 61.8 C87.1 61.8 86.8 61.6 86.4 61.4 C87 63.4 86.9 65.5 86.2 67.5 C85.9 66.7 85.7 66 85.4 65.3 C84.9 67.3 84.8 69.4 84.6 71.5 C84.3 71.3 84 71.2 83.7 71.1 C83.4 71.8 83 72.7 82.9 73.4 C82.8 74 83.1 74.8 83.4 75.3 C82.5 76.3 81.6 77.3 80.7 78.3 C80.7 78.2 80.7 78.1 80.7 78 C80 79.4 79.7 80.9 79.3 82.5 C79.1 82.1 78.9 81.8 78.7 81.4 C78.3 82 77.8 82.5 77.5 83.2 C77.1 84 76.8 84.9 76.5 85.8 C76.3 86.4 76 87.2 75.4 87.6 C74.8 88 73.9 87.8 73.7 87.1 C73.3 87.5 73.1 88 72.7 88.4 C72.2 88.8 71.6 89.1 71.1 89.5 C69.8 90.4 68.5 91.2 67.2 92.1 C67.1 91.9 67.1 91.6 67.1 91.4 C66.8 91.5 66.6 91.6 66.4 91.7 L67 91.6 C65.6 92.7 64.3 93.7 63 94.7 C63 94.3 63 94 63 93.6 C60.6 94.4 58.3 95.2 56 96 C55.2 93.8 52.6 95.6 51.7 96.5 C51.2 96.2 50.9 95.7 50.8 95.1 C50.1 95.1 49.7 95.1 49.1 95.4 C48.7 95.6 48.4 95.8 47.9 95.9 C47 96.1 45.9 96 45.2 95.2 C44.6 95.2 44.1 95.2 43.5 95.2 C42.8 96 41.7 96.1 40.8 95.9 C40.3 95.8 39.9 95.5 39.4 95.3 C38.9 95 38.4 95 37.8 95 C37.7 95.6 37.4 96.1 36.9 96.4 C36 95.5 33.3 93.8 32.6 95.9 C30.2 95.1 27.9 94.3 25.6 93.5 C25.6 93.9 25.6 94.2 25.6 94.6 C24.2 93.5 22.9 92.5 21.6 91.5 L22.2 91.6 C21.9 91.5 21.7 91.4 21.5 91.3 C21.4 91.5 21.4 91.8 21.4 92 C20.1 91.1 18.8 90.3 17.5 89.4 C16.9 89.1 16.4 88.7 15.9 88.3 C15.5 87.9 15.3 87.3 14.9 87 C14.7 87.7 13.7 87.8 13.2 87.5 C12.6 87.1 12.3 86.3 12.1 85.7 C11.7 84.8 11.5 83.9 11.1 83.1 C10.8 82.5 10.3 81.9 9.9 81.3 C9.7 81.7 9.5 82 9.3 82.4 C8.9 80.9 8.6 79.3 7.9 77.9 L7.7 78.6 C6.8 77.6 6.2 76.2 5.3 75.2 C5.6 74.7 5.9 73.9 5.8 73.3 C5.7 72.5 5.3 71.7 5 71 C4.7 71.2 4.4 71.3 4.1 71.4 C3.9 69.3 3.8 67.3 3.3 65.2 C3 66 2.8 66.7 2.5 67.4 C1.7 65.5 1.7 63.3 2.3 61.3 C1.9 61.5 1.5 61.6 1.1 61.7 C1.1 59.2 0.7 52.9 1.1 50.8 C1.3 49.7 1.6 48.8 1.6 47.7 C1.1 47.8 0.5 47.7 0.1 47.3 C0.7 45.6 1.5 43.8 2 42 C2.5 40.2 2.6 38.4 3 36.6 C2.1 36.8 1.3 37.2 0.7 37.8 C2.5 33.9 6.4 25.5 7.9 24 C9.3 22.5 12.1 19.9 13.4 18.8 C12.6 18.2 11.9 17.7 11.1 17.1 C12.9 15.4 14.8 13.7 17.4 13.3 C16.3 13.1 15 13 13.8 12.9 C15.3 12.1 18.2 10.1 22.9 9.9 C23 9.7 23.1 9.6 23.3 9.5 C22.2 8.5 21.4 7.3 20.9 5.9 C22.8 6.4 24.8 6.9 26.8 7.4 C26.5 6.2 26.5 4.8 27.2 3.7 C27.8 2.7 29.1 2.1 30.3 2.2 C30.2 4.3 31 6.3 32.4 7.7 C34.4 8 35.9 8.4 37.1 9.1 z M37.1 9.1 C37.3 9.4 37.6 9.8 37.8 10.1 C36.7 9.2 34.8 9.5 32.6 9.2 C31.3 7.9 29.2 5.3 29.3 3.3 C28.2 3.2 28.1 3.8 27.5 4.8 C26.8 5.8 27.4 7.1 27.7 8.2 C25.8 7.7 23.9 7.2 22.1 6.8 C22.6 8.1 24.5 9.2 25.5 10.1 C25.3 10.2 24.1 10.4 24 10.6 C19.5 10.8 17.8 11.7 16.4 12.4 C17.5 12.5 18.7 13.6 19.8 13.8 C17.3 14.2 14.5 15.8 12.8 17.4 C13.6 18 14.2 18.4 15 19 C13.8 20 11.1 22.5 9.8 23.9 C8.2 25.4 4 32.3 2.3 36 C2.9 35.4 3.7 35.3 4.6 35.1 C4.2 36.8 4.6 39.4 4.1 41.1 C3.6 42.8 2.9 43.9 2.3 45.5 C2.7 45.9 3.3 46.6 3.7 46.5 C3.7 47.5 3.4 48.4 3.2 49.4 C2.8 51.4 3.2 57.4 3.2 59.8 C3.6 59.7 4 59.6 4.3 59.4 C3.7 61.3 3.7 63.4 4.5 65.2 C4.8 64.6 5 64 5.3 63.2 C5.8 65.2 5.9 67.1 6.1 69.1 C6.4 69 6.7 68.9 7 68.7 C7.3 69.4 7.7 70.1 7.8 70.9 C7.9 71.5 7.6 72.2 7.3 72.7 C8.2 73.7 8.7 75 9.6 75.9 L9.8 75.2 C10.5 76.5 10.8 78.1 11.1 79.5 C11.3 79.1 11.5 78.8 11.7 78.5 C12.1 79.1 12.6 79.6 12.8 80.2 C13.2 81 13.4 81.8 13.8 82.7 C14 83.3 14.3 84 14.8 84.4 C15.3 84.7 16.2 84.6 16.4 83.9 C16.8 84.2 17 84.8 17.4 85.1 C17.9 85.5 18.4 85.9 18.9 86.1 C20.1 87 21.4 87.7 22.6 88.6 C22.6 88.4 22.6 88.1 22.7 87.9 C22.9 88 23.1 88.1 23.4 88.2 L22.8 88.1 C24 89.1 25.3 90 26.6 91 C26.6 90.6 26.6 90.3 26.6 90 C28.8 90.8 31 91.5 33.3 92.3 C34 90.3 36.5 91.9 37.4 92.8 C37.9 92.5 38.2 92 38.3 91.5 C38.9 91.5 39.3 91.5 39.8 91.8 C40.3 92 40.7 92.3 41.1 92.4 C42 92.6 43 92.5 43.7 91.7 C44.3 91.7 44.7 91.7 45.3 91.7 C46 92.5 47 92.6 47.9 92.4 C48.4 92.3 48.7 92.1 49 91.9 C49.6 91.6 50 91.6 50.6 91.6 C50.7 92.2 51 92.6 51.5 92.9 C52.4 92 54.8 90.3 55.6 92.4 C57.8 91.6 60 90.9 62.3 90.1 C62.3 90.5 62.3 90.8 62.3 91.1 C63.5 90.1 64.8 89.2 66.1 88.2 L65.5 88.3 C65.7 88.2 65.9 88.1 66.2 88 C66.2 88.2 66.2 88.5 66.3 88.7 C67.5 87.8 68.8 87.1 70 86.2 C70.5 85.8 71 85.5 71.5 85.2 C71.9 84.8 72.1 84.3 72.5 84 C72.7 84.7 73.5 84.9 74.1 84.5 C74.7 84.1 75 83.4 75.1 82.8 C75.4 81.9 75.7 81.1 76.1 80.3 C76.4 79.6 76.9 79.2 77.2 78.6 C77.4 79 77.6 79.3 77.8 79.6 C78.2 78.1 78.5 76.7 79.1 75.3 C79.1 75.4 79.1 75.5 79.1 75.6 C80 74.6 80.8 73.7 81.7 72.7 C81.4 72.2 81.1 71.5 81.2 70.9 C81.3 70.2 81.7 69.4 82 68.7 C82.3 68.8 82.6 68.9 82.9 69.1 C83.1 67.1 83.2 65.1 83.7 63.2 C84 63.9 84.2 64.5 84.5 65.3 C85.2 63.4 85.3 61.4 84.7 59.5 C85.1 59.7 85.4 59.9 85.8 59.9 C85.8 57.6 86.6 57.4 86.6 55.1 C86.6 54.1 85.9 51.6 85.9 50.5 C84.4 49.5 84 48.1 84 47.2 C84 46.9 84 46.7 84 46.4 C84.6 46.5 85 46.4 85.4 46 C84.7 44.4 84.9 43.2 84.4 41.5 C83.9 39.9 83.3 36.7 82.9 34.9 C83.6 35.1 84.9 34.4 85.6 34.8 C85.4 34.5 85.3 34.1 85.1 33.8 C83.4 30.8 81.3 29 79.2 25.9 C77.6 23.5 73.9 19.9 72.5 18.9 C73.3 18.3 73.3 17.9 74 17.3 C72.3 15.7 69.8 14.1 67.4 13.7 C68.5 13.5 70.3 12.4 71.5 12.3 C70.1 11.5 66 9.7 61.8 9.9 C63.3 9.6 64.4 8.7 64.9 7.3 C63 7.8 60.7 8.2 58.9 8.6 C59.2 7.5 60.4 5.9 59.7 4.9 C59 3.9 59.4 3 58.2 3.1 C58.3 5 55.8 6.8 54.4 8.3 C52.3 8.6 50 9.3 48.8 10.1 C49.7 8.9 50 8.4 50 7.2 C48.3 8.5 47 9.6 45.4 10.8 C44.7 7 43.2 4.8 39.8 3 C40.8 5.4 40 6.9 40.3 9 C40.3 9.1 40.3 9.1 40.4 9.2 C40.4 9.2 40.4 9.2 40.4 9.2 C40.4 9.4 40.5 9.7 40.6 10 C39 8.8 37.3 7.5 36 6.5 C36 6.8 36.1 7.1 36.1 7.4 C36.5 8 37 8.7 37.4 9.4 C37.4 9.3 37.2 9.2 37.1 9.1 z" opacity="0.15" id="c1" /></g></g></g><g transform="translate(140.1, 126.7) rotate(20, 0, 0) scale(0.7) translate(-140.1, -126.7) translate(108.4, 110.1) translate(0, 4)" id="d1"><path d="M41.1 0.6 C31.1 -2.6 14.7 14.6 3.6 20.9 C-6.3 26.5 6.2 45.2 17.4 62.4 C23.6 71.9 22.7 83.6 28.6 82.4 C35.6 81 41.1 70.6 37 59 C32.9 47.4 32.1 16.9 41.1 0.6 z" id="e1" fill="#332920" /><path d="M41.1 0.6 C32.1 16.9 32.9 47.4 37 59 C41.1 70.6 35.6 81 28.6 82.4 C22.7 83.6 23.6 71.9 17.4 62.4 C6.2 45.2 -6.3 26.5 3.6 20.9 C14.7 14.6 31.1 -2.6 41.1 0.6 z M38 2 C29.2 -1 16.9 15.9 7 21.6 C-1.7 26.7 9.1 42.3 19 58 C24.5 66.7 23.3 77.2 28.5 76.1 C34.7 74.8 38 66.1 34.4 55.4 C30.8 44.9 30.1 16.9 38 2 z" opacity="0.15" id="f1" /></g><g transform="translate(199.9, 126.5999) rotate(-20, 0, 0) scale(0.7) translate(-199.9, -126.5999) translate(109.6, 110) translate(102, 45.5) scale(-1, 1) translate(-102, -45.5) translate(81, 4)" id="g1"><path d="M41.9 0.6 C31.9 -2.6 15.5 14.6 4.4 20.9 C-5.5 26.5 7 45.2 18.2 62.4 C24.4 71.9 23.5 83.6 29.4 82.4 C36.4 81 41.9 70.6 37.8 59 C33.7 47.4 32.9 16.9 41.9 0.6 z" id="h1" fill="#332920" /><path d="M41.9 0.6 C32.9 16.9 33.7 47.4 37.8 59 C41.9 70.6 36.4 81 29.4 82.4 C23.5 83.6 24.4 71.9 18.2 62.4 C7 45.2 -5.5 26.5 4.4 20.9 C15.5 14.6 31.9 -2.6 41.9 0.6 z M39.7 3 C30.8 0.1 16.1 15.5 6.2 21.1 C-2.6 26.1 8.5 42.8 18.5 58.2 C24 66.7 23.2 77.1 28.5 76.1 C34.8 74.8 39.7 65.6 36 55.2 C32.3 44.8 31.7 17.5 39.7 3 z" opacity="0.15" id="i1" /></g><g transform="translate(170.1, 162.7) scale(0.9) translate(-170.1, -167.7)" id="j1"><g transform="translate(91.39999, 112.7999) translate(51, 9)" id="k1"><g id="l1"><path d="M11.3 81.9 C14.4 82.2 18.5 82.4 21 81.1 C23.7 79.7 25.2 78.3 27.4 75.9 C29.9 79.4 32 80.5 35.2 81.9 C38.2 83.3 42.2 82.3 44.7 81.6 C47.2 80.8 52.9 77.6 53.5 73.9 C54.2 69.7 54.7 64.6 52.8 57.5 C51.2 51.4 43.5 48.1 39.8 44.1 C37.1 41.2 33.5 30.4 33.2 28.7 C32.4 25.3 32.5 21.7 33.7 14.5 C34.9 6.9 39.8 4.5 39.8 2 C39.8 -0.4 34.7 4 28.5 4.1 C22.4 4.2 15.7 -1.3 15.7 2 C15.7 5.4 20.7 7.8 21.7 13.5 C22.7 19.2 22.7 22.1 21.7 28.1 C21.1 31.6 17.6 42 14.3 44.6 C8.6 49.1 1.7 53.6 1 60.2 C0.4 66.9 -0.3 70.7 1.6 74.5 C4 79.3 8.2 81.5 11.3 81.9 z" id="m1" fill="#594F46" /><path d="M35.3 9.4 C34.6 10.8 34 12.5 33.7 14.5 C32.5 21.7 32.4 25.3 33.2 28.7 C33.5 30.4 37.1 41.2 39.8 44.1 C43.5 48.1 51.2 51.4 52.8 57.5 C54.7 64.6 54.2 69.7 53.5 73.9 C52.9 77.6 47.2 80.8 44.7 81.6 C42.2 82.3 38.2 83.3 35.2 81.9 C32 80.5 29.9 79.4 27.4 75.9 C25.2 78.3 23.7 79.7 21 81.1 C18.5 82.4 14.4 82.2 11.3 81.9 C8.2 81.5 4 79.3 1.6 74.5 C-0.3 70.7 0.4 66.9 1 60.2 C1.7 53.6 8.6 49.1 14.3 44.6 C17.6 42 21.1 31.6 21.7 28.1 C22.7 22.1 22.7 19.2 21.7 13.5 C21.6 12.9 21.5 12.4 21.3 11.9 C20.2 9.3 18.3 7.1 17 5.2 C16.2 4.1 15.7 3.1 15.7 2 C15.7 -1.3 22.4 4.2 28.5 4.1 C34.7 4 39.8 -0.4 39.8 2 C39.8 3.3 38.5 4.5 37.1 6.4 C38.4 4.5 39.4 3.2 39.4 2.1 C39.4 -0.2 34.3 4.2 28.6 4.3 C23 4.4 15.7 -1.2 15.7 1.9 C15.7 2.9 16.2 4 17 5.2 C18.3 7 20.3 9 21.3 11.9 C21.7 12.8 22 13.7 22.1 14.6 C23 20.1 23 22.9 22.1 28.6 C21.6 32 19.8 41 16.8 43.5 C11.5 47.8 3.6 53.4 2.9 59.8 C2.3 66.2 1.9 69.6 3.6 73.3 C5.8 77.9 9.7 80 12.5 80.4 C15.4 80.7 19.1 80.9 21.4 79.6 C23.9 78.3 25.3 76.9 27.3 74.6 C29.6 78 31.5 79 34.5 80.4 C37.3 81.7 41 80.8 43.3 80.1 C45.6 79.3 50.9 76.3 51.4 72.7 C52 68.7 52.5 63.8 50.8 56.9 C49.3 51 41.5 47.6 38.1 43.8 C35.6 41 33 30.8 32.7 29.2 C32 25.9 32.1 22.5 33.2 15.6 C33.6 13.2 34.4 11.1 35.3 9.4 z" opacity="0.1" id="n1" /></g></g><g transform="translate(170.1, 191.4999) scale(1, 0.7) translate(-170.1, -191.4999) translate(107.6, 115.3999) translate(50, 64) translate(0, -4.300003)" id="o1"><g id="p1" fill="#282421"><path d="M24.4 29.3 C24.3 28.8 23.9 28.4 23.8 27.9 C22.5 24.6 21.9 21 19.9 17.9 C18.4 15.6 16.4 14.4 14 13.8 L14 2.3 C14 1.5 13.3 0.8 12.5 0.8 C11.7 0.8 11 1.5 11 2.3 L11 13.6 C10.1 13.8 9.3 14.1 8.6 14.5 C5.4 16.2 3.9 19.6 2.8 22.8 C2.3 24.4 1.8 26.1 1.2 27.6 C1 28.1 0.6 28.6 0.5 29.1 C0.4 29.8 0.9 29.9 1.4 29.5 C2.3 28.5 2.8 26.9 3.3 25.7 C4 24 4.7 22.3 5.7 20.7 C6.5 19.3 7.6 18 9 17.1 C10.1 16.5 10.8 16.4 12.4 16.3 C14 16.2 15.2 16.7 15.9 17.1 C18.9 18.8 20.2 22.5 21.5 25.5 C22 26.7 22.5 28.4 23.5 29.4 C23.9 30 24.6 30 24.4 29.3 z" id="q1" /></g></g><g transform="translate(170.1, 182.2) scale(1) translate(-170.1, -179.2) translate(87.09999, 117.3999) translate(71, 50)" id="r1"><g id="s1"><path d="M11.7 0.2 C15.7 0.2 21.4 1.3 22.6 4.5 C23.8 7.8 22.3 11.1 19.9 13.8 C17.5 16.5 17 18.4 12 18.4 C7 18.4 6.6 17.5 4.1 13.9 C1.6 10.3 0.1 7.6 1.5 4.5 C2.9 1.4 7.7 0.2 11.7 0.2 z" id="t1" /><path d="M12.5 5 C16.3 7.4 19 4.3 19 3.5 C19 2.7 16.1 2 12.5 2 C8.9 2 6 2.7 6 3.5 C6 4.3 8.7 2.6 12.5 5 z" id="u1" fill="#FFF" /></g></g><g transform="translate(102.4, 108.3999) translate(40, 35)" id="v1"><g id="w1"><path d="M17.3 3.9 C16.9 3.3 14.9 2 13.6 1.4 C10.9 0.2 8.6 1 6.3 1.9 C4.8 2.5 1.9 3.8 1.2 5.3 C0.4 6.9 0.8 8.9 1.7 10.4 C3.4 13.4 6.8 15.4 10.2 14.9 C11.7 14.7 14.8 12.4 16.6 9.5 C17.5 11 16.8 13.9 17.1 13.9 C17.5 13.9 21.4 8.8 17.3 3.9 z" id="x1" fill="#594F46" /><path d="M2.7 4.7 C4.3 2.4 10.9 -0.6 13 1.3 C17.7 5.4 12.9 11.7 9.1 11.9 C5.2 12.1 0.5 7.9 2.7 4.7 z" id="y1" fill="#282421" /><path d="M8.2 3.9 C6.9 3.5 6.3 3.7 5.7 4.2 C5.1 4.7 4.7 5.6 5 6.3 C5.5 7.3 7 7.1 7.9 6.6 C8.8 6 8.8 6 10.9 5.4 C10 4.6 9.4 4.3 8.2 3.9 z" id="z1" fill="#FEFEFE" /></g></g><g transform="translate(100.3, 108.3999) translate(74, 35)" id="a2"><g id="b2"><path d="M18.9 5.2 C18.2 3.7 15.3 2.4 13.8 1.8 C11.5 0.9 9.2 0.1 6.5 1.3 C5.2 1.9 3.9 2.7 2.8 3.8 C-1.3 8.8 2.6 13.8 2.9 13.8 C3.2 13.8 2.5 10.9 3.4 9.4 C5.1 12.2 8.3 14.5 9.8 14.8 C13.2 15.3 16.6 13.3 18.3 10.3 C19.3 8.8 19.7 6.9 18.9 5.2 z" id="c2" fill="#594F46" /><path d="M17.5 4.7 C15.9 2.4 9.3 -0.6 7.2 1.3 C2.5 5.4 7.3 11.7 11.1 11.9 C15 12.1 19.7 7.9 17.5 4.7 z" id="d2" fill="#282421" /><path d="M10.6 3.5 C9.3 3.1 8.7 3.3 8.1 3.8 C7.5 4.3 7.1 5.2 7.4 5.9 C7.9 6.9 9.4 6.7 10.3 6.2 C11.2 5.6 11.2 5.6 13.3 5 C12.4 4.2 11.9 3.9 10.6 3.5 z" id="e2" fill="#FEFEFE" /></g></g></g></g></g></g><defs><g transform="translate(17.09519, 0.800995) translate(-135.2952, -293.601)" id="f2" fill="#000"><path d="M118.2 302.7 C118.4 307.4 132.5 311.2 149.8 311.2 C167.1 311.2 181.2 307.4 181.4 302.7 C181.4 307.5 181.4 310.1 181.4 310.5 C181.4 315.3 167.3 319.1 149.8 319.1 C132.3 319.1 118.2 315.2 118.2 310.5 L118.2 302.7 L118.2 302.7 z" fill-opacity="0.4528" id="g2" fill="#593001" /><path d="M118.7 301.7 C118.9 306.4 133 310.2 150.3 310.2 C167.6 310.2 181.7 306.4 181.9 301.7 C181.9 306.5 181.9 309.1 181.9 309.5 C181.9 314.3 167.8 318.1 150.3 318.1 C132.8 318.1 118.7 314.2 118.7 309.5 L118.7 301.7 L118.7 301.7 z" id="h2" fill="#DA8113" /><linearGradient x1="46.0545" y1="-118.6926" x2="45.4656" y2="-118.6926" gradientUnits="userSpaceOnUse" gradientTransform="matrix(117.135, 0, 0, 28.4634, -5208.417, 3687.795)" id="i2"><stop offset="0%" stop-color="#D9952A" stop-opacity="1" /><stop offset="6.438854%" stop-color="#CA7519" stop-opacity="1" /><stop offset="30.54%" stop-color="#E3AD3A" stop-opacity="1" /><stop offset="51.05%" stop-color="#FFEC91" stop-opacity="1" /><stop offset="68.8%" stop-color="#E9BD44" stop-opacity="1" /><stop offset="86.24%" stop-color="#FFED6C" stop-opacity="1" /><stop offset="93.87%" stop-color="#F2D353" stop-opacity="1" /><stop offset="100%" stop-color="#F2B947" stop-opacity="1" /></linearGradient><path d="M118.2 301.6 C118.4 306.1 132.7 309.7 150.3 309.7 C167.9 309.7 182.2 306.1 182.4 301.6 C182.4 306.2 182.4 308.7 182.4 309 C182.4 313.5 168 317.2 150.3 317.2 C132.6 317.2 118.2 313.5 118.2 309 L118.2 301.6 L118.2 301.6 z" id="j2" style="fill:url(#i2)" /><linearGradient x1="45.4914" y1="-117.9547" x2="45.9407" y2="-117.5895" gradientUnits="userSpaceOnUse" gradientTransform="matrix(115.425, 0, 0, 29.925, -5125.077, 3826.124)" id="k2"><stop offset="0%" stop-color="#F4E072" stop-opacity="1" /><stop offset="100%" stop-color="#DB9427" stop-opacity="1" /></linearGradient><ellipse cx="150.3" cy="301.5" rx="31.6" ry="8.2" id="l2" style="fill:url(#k2)" /><linearGradient x1="45.4656" y1="-126.0065" x2="46.0545" y2="-126.0065" gradientUnits="userSpaceOnUse" gradientTransform="matrix(117.135, 0, 0, 18.6219, -5208.417, 2651.479)" id="m2"><stop offset="0%" stop-color="#D9952A" stop-opacity="1" /><stop offset="6.438854%" stop-color="#CA7519" stop-opacity="1" /><stop offset="30.54%" stop-color="#E3AD3A" stop-opacity="1" /><stop offset="51.05%" stop-color="#FFEC91" stop-opacity="1" /><stop offset="68.8%" stop-color="#E9BD44" stop-opacity="1" /><stop offset="86.24%" stop-color="#FFED6C" stop-opacity="1" /><stop offset="93.87%" stop-color="#F2D353" stop-opacity="1" /><stop offset="100%" stop-color="#F2B947" stop-opacity="1" /></linearGradient><path d="M119.2 299.9 C119 300.2 118.9 300.6 118.9 301 C118.9 305.5 132.9 309.2 150.3 309.2 C167.7 309.2 181.7 305.5 181.7 301 C181.7 300.6 181.6 300.3 181.4 299.9 C182 300.5 182.4 301.2 182.4 301.9 C182.4 306.4 168 310.1 150.3 310.1 C132.6 310.1 118.2 306.4 118.2 301.9 C118.2 301.3 118.6 300.6 119.2 299.9 z" id="n2" style="fill:url(#m2)" /><linearGradient x1="45.196" y1="-121.5895" x2="45.3746" y2="-120.6758" gradientUnits="userSpaceOnUse" gradientTransform="matrix(101.745, 0, 0, 23.94, -4458.332, 3199.41)" id="o2"><stop offset="0%" stop-color="#F8DD61" stop-opacity="1" /><stop offset="100%" stop-color="#EAA330" stop-opacity="1" /></linearGradient><ellipse cx="150.3" cy="300.8" rx="27.8" ry="6.6" id="p2" style="fill:url(#o2)" /><linearGradient x1="45.5694" y1="-134.267" x2="45.0221" y2="-134.267" gradientUnits="userSpaceOnUse" gradientTransform="matrix(101.745, 0, 0, 13.2525, -4458.332, 2077.223)" id="q2"><stop offset="0%" stop-color="#F4CA2F" stop-opacity="1" /><stop offset="51.38%" stop-color="#BF7737" stop-opacity="1" /><stop offset="100%" stop-color="#E4A929" stop-opacity="1" /></linearGradient><path d="M122.6 301.5 C122.5 301.3 122.4 301 122.4 300.8 C122.4 297.2 134.9 294.2 150.2 294.2 C165.5 294.2 178 297.1 178 300.8 C178 301 177.9 301.3 177.8 301.5 C176.3 298.2 164.5 295.6 150.1 295.6 C135.7 295.6 124.1 298.2 122.6 301.5 z" id="r2" style="fill:url(#q2)" /></g></defs><desc>EF99KA5G8D6,nHpHxYq53QKN3EyvNkMoTZxjSv2g/sxm2B+qtxAIq405FDM8BS+eySAad+7BsBXMrcDyBs3TZ6f6ODARIMUgDg==</desc></svg>