<?xml version="1.0" encoding="utf-8"?><!DOCTYPE svg PUBLIC "-//W3C//DTD SVG 1.1//EN" "http://www.w3.org/Graphics/SVG/1.1/DTD/svg11.dtd"><svg x="0" y="0" width="340px" height="340px" viewBox="0, 0, 340, 340" preserveAspectRatio="xMidYMid" font-size="0" id="a" enable-background="new 0 0 340 340" xmlns="http://www.w3.org/2000/svg" xmlns:xlink="http://www.w3.org/1999/xlink" xmlns:xml="http://www.w3.org/XML/1998/namespace" version="1.1"><g id="b" fill="#000"><g id="c"><g transform="translate(0, 0) translate(0, 224)" id="d"><ellipse cx="168.6" cy="53.1" rx="57.8" ry="12.8" fill-opacity="0.25" id="e" /></g><g id="f"><g transform="translate(106.7, 124.5) translate(21.5, 106.5) scale(-1, 1) translate(-21.5, -106.5) translate(2, 90)" id="g"><g id="h"><path d="M24.9 18.9 C25.5 17.7 25.7 16.6 25.7 15.6 C25.3 16.7 24.6 17.7 23.6 18.4 C24.5 16.6 24.1 14.3 22.7 12.9 C22.5 16.6 20.1 20 19.4 21.4 C18.7 19.5 18 17.6 17.3 15.7 C17.1 17 16.8 18.2 16.6 19.5 C16.3 17.3 16.1 15.1 16.4 12.9 C16.2 13 16 13.2 15.8 13.3 C16.1 9.5 20 5.8 23.5 5.2 C26.7 4.6 31.5 5.6 33.6 8.8 C36.3 13 37.3 22.3 32.1 25.1 C30.4 26 27.3 27.7 26.4 28 C25.5 28.3 23.7 31 23.5 32.5 C22.5 31.6 22.3 30.2 21.1 29.3 C19.3 29.4 16.5 31.7 10 32 C-1.8 32.4 -1.1 25.2 1.9 24.1 C5.4 22.8 12.4 23.9 14.8 24.2 C19.1 24.6 22.9 23.2 24.9 18.9 z" id="i" fill="#9A5C39" /><path d="M15.9 13.9 C16.2 10.1 18.5 3.8 26 3.3 C27 3.2 28.1 3.3 29.2 3.6 C28.2 2.4 26.3 2 25 2.9 C25.9 0.7 28.8 -0.4 31 0.5 C32.6 1.2 35.2 3.1 35 5.8 C36.7 7 38.1 9.2 38.6 11.3 C38.1 11.2 37.7 11 37.2 10.9 C38.6 13.1 39.3 17.4 37.8 20.1 C37.5 19.9 37.3 19.7 37 19.5 C36.8 20.1 35.7 22.4 35.4 22.9 C34.8 25.3 33.5 27.5 31.7 29 C31.9 28.5 32 27.9 31.9 27.3 C31.9 27 31.8 26.6 31.6 26.3 C29.7 26.7 29.4 28.6 28.7 29.5 C28.7 28.9 28.1 28.1 26.5 28.4 C26.9 25.5 30.5 24.9 30.7 23.5 C30.9 24 31.4 24.3 31.9 24.6 C32.2 23.4 32.8 22.4 32.7 20.7 L34.2 21.3 C34.2 19.7 33.3 18.1 31.9 17.2 C32.8 17 33.7 16.8 34.6 16.7 C32.9 15.2 31.2 13.8 29.5 12.3 C30.5 12 31.4 11.8 32.4 11.5 C29.1 9.2 24.1 10 22 11.3 C22 10.2 22.6 8.1 23.3 7.8 C18.6 8.9 16.1 13.7 15.9 13.9 z" id="j" fill="#3A2F27" /><path d="M3 23.8 C3.3 23.2 3.8 22.7 4.4 22.4 C6.5 21.6 10.2 22.9 13.2 24 C13.8 24.1 14.4 24.2 14.8 24.2 C19.1 24.6 22.9 23.2 24.9 18.9 C25.5 17.7 25.7 16.6 25.7 15.6 C25.3 16.7 24.6 17.7 23.6 18.4 C24.5 16.6 24.1 14.3 22.7 12.9 C22.5 16.6 20.1 20 19.4 21.4 L17.3 15.7 C17.1 17 16.8 18.2 16.6 19.5 C16.3 17.4 16.1 15.4 16.4 13.3 C16.2 13.7 16 13.9 16 13.9 C16 13.7 16 13.4 16.1 13.1 C16 13.2 16 13.2 15.9 13.2 C16 12.2 16.3 11.2 16.8 10.3 C18 7 20.7 3.6 26.1 3.2 C27.1 3.1 28.2 3.2 29.3 3.5 C28.3 2.3 26.4 1.9 25.1 2.8 C26 0.6 28.9 -0.5 31.1 0.4 C32.7 1.1 35.3 3 35.1 5.7 C36.8 6.9 38.2 9.1 38.7 11.2 C38.2 11.1 37.8 10.9 37.3 10.8 C38.7 13 39.4 17.3 37.9 20 C37.6 19.8 37.4 19.6 37.1 19.4 C36.9 20 35.8 22.3 35.5 22.8 C34.9 25.2 33.6 27.4 31.8 28.9 C32 28.4 32.1 27.8 32 27.2 C32 26.9 31.9 26.5 31.7 26.2 C29.8 26.6 29.5 28.5 28.8 29.4 C28.8 28.8 28.2 28 26.6 28.3 C26.6 28.1 26.7 27.9 26.7 27.8 C26.6 27.8 26.5 27.9 26.5 27.9 C25.6 28.2 23.8 30.9 23.6 32.4 C22.6 31.5 22.4 30.1 21.2 29.2 C19.4 29.3 16.6 31.6 10.1 31.9 C-1.7 32.3 -1 25.1 2 24 C2.2 23.9 2.6 23.8 3 23.8 z M3 23.8 C2 26 3.4 29.9 11.8 29.6 C17.7 29.3 20.3 27.2 21.9 27.1 C23 27.9 22.4 29.5 23.4 30.3 C23.6 28.9 26 26.1 26.8 25.9 C26.9 25.9 26.9 25.9 27 25.8 C27 26 26.9 26.1 26.9 26.3 C28.4 26 28.9 26.8 28.9 27.3 C29.5 26.5 29.8 24.5 31.6 24.1 C31.7 24.2 32.2 24.1 32.4 24.6 C32.7 25.3 32.7 25.8 32.6 26.1 C34.2 24.7 34.6 23.5 35.1 21.3 C35.4 20.8 36.4 18.7 36.6 18.2 C36.9 18.4 37.1 18.6 37.3 18.7 C38.7 16.2 38 12.3 36.8 10.3 C37.3 10.4 37.6 10.6 38.1 10.7 C37.6 8.8 36.4 6.8 34.8 5.7 C35 3.2 32.7 2 31.7 1.2 C29.7 0.4 27.8 0.5 26.4 2 C27.8 1.7 29.5 3 30.4 4.1 C29.4 3.8 27.4 3.6 26.5 3.7 C21.5 4 18.8 7.2 17.8 9.1 C17.3 9.9 16.5 12.6 16.5 12.8 C16.5 12.8 17.1 13 17.3 12.7 C16.9 13.9 16.8 15.1 16.9 16.4 C17.1 15.2 17.3 15.1 17.8 14.4 L19.5 19.8 C20.1 18.5 22.4 15.4 22.6 12 C23.9 13.3 25.2 15.6 24.4 17.2 C25.3 16.6 25.7 15.2 26.1 14.2 C26.3 15.2 26.5 18 25.9 19.1 C24.1 23 21.2 25.5 17.3 25.2 C16.5 25.1 15.1 24.6 13.4 24 C10.5 23.6 6 23.1 3 23.8 z" opacity="0.15" id="k" /></g></g><g transform="translate(131.1733, 276.6) scale(0.724183) translate(-128, -276.6) translate(101.8, 94.19998) translate(15, 110)" id="l"><g transform="translate(23, 36) scale(-1, 1) translate(-23, -36)" id="m"><path d="M-1.4 45.3 C0.8 26.6 11.7 11.6 13.3 7.8 C15 3.9 23 -0.6 26.9 14.5 C28.4 20.4 31 23.9 32.4 29.9 C34.6 39.4 35.2 51.3 34.9 59.2 C34.7 63.6 28.7 73.3 26.1 73.3 C18.5 73.3 9.7 75.5 7.2 72.1 C3.3 66.9 -3.6 63.9 -1.4 45.3 z" id="n" fill="#A87646" /><path d="M36.4 60.6 C38 61.6 43.4 64.4 43.7 68.7 C44 73 44 74.4 41 75 C38 75.6 35.1 75.9 32.7 75.5 C30.5 75.1 28.5 73.5 26.9 73.5 C23.7 73.5 24.9 73.5 23.3 73.5 C22.8 68.5 25.7 65.4 26.9 64.1 C28.1 62.8 34.8 59.6 36.4 60.6 z" id="o" fill="#3A2F27" /><path d="M34.7 60.5 C35.4 60.4 36 60.4 36.4 60.6 C38 61.6 43.4 64.4 43.7 68.7 C44 73 44 74.4 41 75 C38 75.6 35.1 75.9 32.7 75.5 C30.5 75.1 28.5 73.5 26.9 73.5 L23.3 73.5 L23.3 73.4 C16.5 73.8 9.4 75.1 7.2 72.1 C3.3 66.9 -3.6 63.9 -1.4 45.3 C0.8 26.6 11.7 11.6 13.3 7.8 C15 3.9 23 -0.6 26.9 14.5 C28.4 20.4 31 23.9 32.4 29.9 C34.6 39.4 35.2 51.3 34.9 59.2 C34.9 59.6 34.8 60 34.7 60.5 z M32.6 61.3 C33 57.3 33.2 55.1 33.2 54.9 C33.5 47.5 33.8 39.4 31.7 30.5 C30.4 24.9 27.9 21.6 26.5 16.1 C22.9 1.9 15.4 6.1 13.8 9.8 C12.3 13.3 2 27.4 0 45 C-2.1 62.4 4.5 64 8.2 68.9 C10.3 71.7 16.8 71.7 23.2 71.5 L26.6 71.5 C28.1 71.5 30 73 32 73.4 C34.3 73.8 37 73.5 39.8 72.9 C42.6 72.3 42 72 41.7 68 C41.4 64 36.5 62.3 35 61.4 C34.6 61.1 33.3 61.2 32.6 61.3 z" opacity="0.15" id="p" /></g></g><g transform="translate(208.5267, 276.6) scale(0.724183) translate(-211.7, -276.6) translate(93.20001, 93.99998) translate(102.5, 145) scale(-1, 1) translate(-102.5, -145) translate(79, 108)" id="q"><g transform="translate(23.5, 37) scale(-1, 1) translate(-23.5, -37)" id="r"><path d="M2.6 48.8 C4.8 29.9 16.7 12.7 18.3 8.8 C20 4.9 28 0.3 31.9 15.7 C33.4 21.7 36 25.2 37.4 31.4 C39.6 41 40.2 53.1 39.9 61.1 C39.7 65.6 33.7 75.4 31.1 75.4 C23.5 75.4 14.7 77.6 12.2 74.2 C8.3 68.8 0.4 67.7 2.6 48.8 z" id="s" fill="#A87646" /><path d="M41.4 62.6 C43 63.6 48.4 66.4 48.7 70.7 C49 75 48.7 77.3 45.1 77.5 C41.5 77.7 39.9 78.1 37.6 77.8 C35.4 77.4 33.7 75.5 32.1 75.5 C28.9 75.5 30.1 75.5 28.5 75.5 C28 70.5 30.9 68.1 32.6 65.9 C33 64.9 39.8 61.6 41.4 62.6 z" id="t" fill="#3A2F27" /><path d="M41.4 62.6 C43 63.6 48.4 66.4 48.7 70.7 C49 75 48.7 77.3 45.1 77.5 C41.5 77.7 39.9 78.1 37.6 77.8 C35.4 77.4 33.7 75.5 32.1 75.5 L28.5 75.5 C21.6 75.8 14.4 77.2 12.2 74.2 C8.3 68.8 0.4 67.7 2.6 48.8 C4.8 29.9 16.7 12.7 18.3 8.8 C20 4.9 28 0.3 31.9 15.7 C33.4 21.7 36 25.2 37.4 31.4 C39.6 41 40.2 53.1 39.9 61.1 C39.9 61.5 39.8 62 39.7 62.5 C40.4 62.4 41 62.4 41.4 62.6 z M37.2 62.8 C37.6 60.8 38 58.6 38.4 56.2 C39 52.5 38.8 40 36.7 31 C35.4 25.2 32.9 21.9 31.5 16.2 C27.9 1.8 20.3 6.1 18.7 9.8 C17.2 13.4 6 29.6 4 47.4 C2 65.2 9.4 66.2 13 71.3 C15.1 74.1 21.8 72.8 28.3 72.5 L31.7 72.5 C33.2 72.5 34.8 74.3 36.9 74.7 C39.1 75 40.6 74.6 44 74.4 C47.4 74.2 46.9 73.4 46.6 69.4 C46.3 65.4 42.3 64.6 40.8 63.7 C40.4 63.4 37.9 62.7 37.2 62.8 z" opacity="0.15" id="u" /></g></g><g transform="translate(102.6, 91.49998) translate(26, 69)" id="v"><path d="M76.6 41.7 C69 21.4 55 1.6 40.6 0.4 C26.2 1.7 12.2 21.4 4.6 41.7 C-0.4 55.2 4.3 71.1 8 84.1 C11 94.7 13.7 112.3 27.1 116.3 C30.7 117.6 35.1 118 40.6 118 C46.1 118 50.5 117.6 54.1 116.3 C67.4 112.3 70.2 94.7 73.2 84.1 C76.9 71 81.7 55.1 76.6 41.7 z" id="w" fill="#DA9A5D" /><path d="M76.6 41.7 C69 21.4 55 1.6 40.6 0.4 C26.2 1.7 12.2 21.4 4.6 41.7 C2.1 48.3 2 55.6 3 62.8 C10 70.9 23.1 75.4 40 75.4 C55.9 75.4 71.2 70.9 78.2 62.8 C79.2 55.5 79.1 48.3 76.6 41.7 z" id="x" fill="#A87646" /><path d="M2.9 62.3 C2 55.3 2.1 48.1 4.6 41.7 C12.2 21.4 26.2 1.7 40.6 0.4 C55 1.6 69 21.4 76.6 41.7 C81.7 55.1 76.9 71 73.2 84.1 C70.2 94.7 67.4 112.3 54.1 116.3 C50.5 117.6 46.1 118 40.6 118 C35.1 118 30.7 117.6 27.1 116.3 C13.7 112.3 11 94.7 8 84.1 C6.1 77.4 3.9 69.9 2.9 62.3 z M4.4 61.2 C5.3 68.5 7.4 75.7 9.3 82.1 C12.2 92.3 14.8 109.2 27.7 113 C31.2 114.2 35.4 114.6 40.7 114.6 C46 114.6 50.2 114.2 53.7 113 C66.5 109.2 69.2 92.2 72.1 82.1 C75.7 69.5 80.3 54.2 75.4 41.4 C67.9 21.9 54.4 2.9 40.6 1.7 C26.8 2.9 13.3 21.9 6 41.4 C3.7 47.6 3.5 54.4 4.4 61.2 z" opacity="0.15" id="y" /></g><g transform="translate(130.2, 188.074) scale(1, 0.9043101) translate(-130.2, -187.4) translate(91.1, 94.99998) translate(39, 92)" id="z"><path d="M10.5 2.2 C12.9 5 20.7 22.6 38.2 23.5 C56.8 24.2 64.9 4.9 67.6 0.4 C71.2 8.2 77 13.2 77.6 26 C78.2 38.8 73.7 45.8 71.4 52 C69.1 58.3 63.4 71.4 63.1 83.3 C62.8 95.2 60.6 90.7 64.9 93.1 C69.2 95.6 72.9 100.5 71.4 103.3 C69.9 106.2 51 103.5 50 102.3 C49.5 101.7 48.8 94.2 49 73 C49.1 67.4 49.6 57.6 50.6 43.7 C46.6 46.2 43.1 47.4 40.2 47.3 C37.4 47.4 33.6 46.2 29.1 43.7 C30.5 57.6 31.2 67.4 31.3 73 C31.6 93.4 31.3 101.1 30.5 102.3 C29.3 104 21.8 104.9 7.8 104.8 C6.1 102 6.1 99.6 7.8 97.6 C9.5 95.6 12.4 93.5 16.4 91.2 C14.4 75.7 12.2 65 9.9 59.2 C6.4 50.6 0.3 39.8 0.2 28 C0.1 16.2 6.2 7.4 10.5 2.2 z" id="a1" fill="#DA9A5D" /><path d="M10.5 2.2 C12.9 5 20.7 22.6 38.2 23.5 C56.8 24.2 64.9 4.9 67.6 0.4 C71.2 8.2 77 13.2 77.6 26 C78.2 38.8 73.7 45.8 71.4 52 C69.1 58.3 63.4 71.4 63.1 83.3 C62.8 95.2 60.6 90.7 64.9 93.1 C69.2 95.6 72.9 100.5 71.4 103.3 C69.9 106.2 51 103.5 50 102.3 C49.5 101.7 48.8 94.2 49 73 C49.1 67.4 49.6 57.6 50.6 43.7 C46.6 46.2 43.1 47.4 40.2 47.3 C37.4 47.4 33.6 46.2 29.1 43.7 C30.5 57.6 31.2 67.4 31.3 73 C31.6 93.4 31.3 101.1 30.5 102.3 C29.3 104 21.8 104.9 7.8 104.8 C6.1 102 6.1 99.6 7.8 97.6 C9.5 95.6 12.4 93.5 16.4 91.2 C14.4 75.7 12.2 65 9.9 59.2 C6.4 50.6 0.3 39.8 0.2 28 C0.1 16.2 6.2 7.4 10.5 2.2 z M10 3.3 C5.9 8.4 2.7 17 2.8 28.3 C2.9 39.5 8.6 50 12 58.3 C14.1 63.8 16.5 77.4 18.3 92.3 C14.6 94.5 12 94.8 10.5 96.7 C9 98.6 8.9 100.3 10.5 103 C23.5 103.1 28.2 101.8 29.3 100.1 C30 99 30.2 91.3 29.9 71.7 C29.8 66.2 26.9 52.4 25.6 39.1 C29.9 41.5 36.2 46.9 40 46.6 C44.9 46.6 50.9 41.5 54.7 39.1 C53.8 52.4 50.8 66.2 50.8 71.5 C50.6 91.9 50.8 100 51.3 100.6 C52.2 101.7 68.3 105.3 69.7 101.5 C70.6 98.6 68.1 96.6 64.3 94.4 C60.3 92 61.5 92.7 61.8 81.3 C62.1 69.9 67.4 57.3 69.5 51.4 C71.6 45.5 75.8 38.7 75.3 26.4 C74.8 14.1 70.8 9.3 67.5 1.9 C65 6.2 56.4 26.4 39 25.7 C22.7 24.9 12.2 6.1 10 3.3 z" opacity="0.15" id="b1" /></g></g><g transform="translate(169.7, 184.7) scale(0.9107345) translate(-169.7, -184.7)" id="c1"><g transform="translate(141.2, 116.8) scale(0.8) translate(-141.2, -116.8) translate(107.4, 73.29998) translate(23, 28.5) scale(-1, 1) translate(-23, -28.5)" id="d1"><path d="M1.3 33.1 C2.5 30.5 4.5 29.5 7.2 30 C11.2 21.6 15.5 15.1 20.1 10.6 C27 3.8 34.3 0.3 37.6 1.1 C40.9 1.9 46.4 7.5 45.9 13.8 C45.4 20.1 40 42.4 37.6 46.6 C35.2 50.8 35.1 54.9 27.6 55.8 C20.1 56.7 20.4 58.1 15.9 55.2 C11.4 52.3 11.7 47.3 9.5 44.3 C3.4 35.9 -0.2 36.7 1.3 33.1 z" id="e1" fill="#232733" /><path d="M1.3 33.1 C2.5 30.5 4.5 29.5 7.2 30 C11.2 21.6 15.5 15.1 20.1 10.6 C27 3.8 34.3 0.3 37.6 1.1 C40.9 1.9 46.4 7.5 45.9 13.8 C45.4 20.1 40 42.4 37.6 46.6 C35.2 50.8 35.1 54.9 27.6 55.8 C20.1 56.7 20.4 58.1 15.9 55.2 C11.4 52.3 11.7 47.3 9.5 44.3 C3.4 35.9 -0.2 36.7 1.3 33.1 z M3.2 33 C1.8 36.4 4.5 34.5 10.3 42.5 C12.3 45.3 12 50 16.3 52.8 C20.6 55.5 21.7 55.7 27.1 53.6 C32.5 51.4 34 48.7 36.2 44.8 C38.5 40.9 44.2 19.6 44.7 13.6 C45.2 7.7 40 2.4 36.8 1.6 C33.7 0.8 27.5 4.8 20.9 11.2 C16.6 15.5 12 23.5 8.2 31.4 C5.7 30.9 4.4 30.5 3.2 33 z" opacity="0.15" id="f1" /><path d="M18.6 41.7 C16.6 37.7 13.6 34.5 19.9 23.1 C23.6 17.7 25.4 12.4 30.3 9.4 C35.2 6.4 40.4 6.1 41.5 9.4 C42.6 12.7 42 26.3 38 37.1 C37.1 39.4 34 45.7 32.8 46.9 C30.9 48.9 25.5 51.8 23 50 C20.9 48.4 20.6 45.7 18.6 41.7 z" id="g1" fill="#FFB8B3" /></g><g transform="translate(196.8, 116.8) scale(0.8) translate(-196.8, -116.8) translate(103.2, 74.29998) translate(105, 29) scale(-1, 1) translate(-105, -29) translate(81, 0)" id="h1"><g transform="translate(24, 29) scale(-1, 1) translate(-24, -29)" id="i1"><path d="M1.3 32.6 C2.6 30 4.6 29 7.4 29.5 C11.5 20.9 15.9 14.4 20.6 9.8 C27.7 2.9 35.1 -0.6 38.5 0.1 C41.9 0.8 47.4 6.7 47 13.1 C46.5 19.5 41 42.2 38.5 46.5 C36 50.9 35.9 55 28.3 55.9 C20.6 56.8 21 58.2 16.3 55.3 C11.7 52.4 12 47.3 9.7 44.2 C3.4 35.5 -0.2 36.3 1.3 32.6 z" id="j1" fill="#1D202A" /><path d="M1.3 32.6 C2.6 30 4.6 29 7.4 29.5 C11.5 20.9 15.9 14.4 20.6 9.8 C27.7 2.9 35.1 -0.6 38.5 0.1 C41.9 0.8 47.4 6.7 47 13.1 C46.5 19.5 41 42.2 38.5 46.5 C36 50.9 35.9 55 28.3 55.9 C20.6 56.8 21 58.2 16.3 55.3 C11.7 52.4 12 47.3 9.7 44.2 C3.4 35.5 -0.2 36.3 1.3 32.6 z M2.9 32 C1.5 35.5 4.5 34.1 10.4 42.4 C12.6 45.3 13.4 50.3 17.7 53 C22.2 55.8 20.8 54.3 28.1 53.5 C35.3 52.6 35.4 48.7 37.7 44.6 C40.1 40.5 45.3 19 45.8 12.9 C46.2 6.8 41 1.3 37.7 0.6 C34.5 -0.1 28 3.9 21.3 10.5 C16.8 14.8 12.1 22.1 8.3 30.2 C5.6 29.7 4.2 29.5 2.9 32 z" opacity="0.15" id="k1" /><path d="M19 41.7 C16.9 38.3 13.6 34.9 19.9 22.9 C23.6 17.3 25.4 11.7 30.3 8.5 C35.2 5.3 40.4 5 41.5 8.5 C42.6 12 42 26.2 38 37.5 C37.1 39.9 34 46.5 32.8 47.8 C30.9 49.9 25.3 53.7 22.9 51.5 C21.5 50.1 20.4 44 19 41.7 z" id="l1" fill="#FFB8B3" /></g></g><g transform="translate(96.6, 78.59998) translate(23, 22)" id="m1"><g id="n1"><path d="M8.2 28.4 C11 21.7 15.7 17.3 19.3 12.7 C22.9 8.1 31.7 5.6 37.3 4.5 C41.1 3.8 45.5 4.2 50.5 5.5 C52.6 4.5 55.6 4.2 59.5 4.5 C66.7 4.5 74.5 9 78.8 11.8 C83 14.6 91 25 93 28.4 C95 31.8 96.7 39.1 97.3 42.7 C97.9 46.3 97.3 55.3 94.7 60.3 C92.1 65.3 82.5 78 79.9 80.3 C76.4 83.4 71.5 86.4 67.9 88.5 C62.3 91.8 46 95 35.4 89.9 C31.5 88 25.1 85.8 20.9 82.2 C13.5 75.9 8.9 67.7 7 65.7 C4 62.7 1.8 55.5 2.5 50.3 C3.2 45.1 5.4 35.1 8.2 28.4 z" id="o1" fill="#A87646" /><path d="M88.9 69.3 C87.1 71.9 85.2 74.6 83.6 76.7 C82.3 78.2 81.1 79.5 80.2 80.5 C79.9 80.8 79.6 81.2 79.2 81.6 C75.8 84.3 71.3 86.7 68.2 88.6 C62.6 91.8 46 95 35.4 89.9 C31.8 88.2 26.1 86.1 21.9 83 C21 82.2 20 81.4 19 80.5 C18.5 80 18 79.5 17.5 79 L14.9 76.1 C13 73.9 11.4 71.7 10.1 69.9 C9.3 68 8.6 65.7 8.1 63.2 C7.1 58 7.9 53.8 10.3 49.9 C11.7 47.6 14.6 45.6 18.9 43.8 C18.6 47.5 18.6 49.9 18.8 50.8 C20.2 56.9 23.9 61.2 30.3 59.2 C32.2 58.6 34.7 51 48.6 51 C62.5 51 62.5 57.9 68.7 59.7 C74.9 61.5 78.8 56.3 80.6 51.3 C82.4 46.3 80.5 43.1 80.1 42.6 C79.7 42.1 86.2 44 89.2 49 C92.2 54 92.5 57.7 90.4 64.5 C89.9 66.5 89.3 68.1 88.9 69.3 z" id="p1" fill="#DA9A5D" /><path d="M8.2 28.4 C11 21.7 15.7 17.3 19.3 12.7 C22.9 8.1 31.7 5.6 37.3 4.5 C41.1 3.8 45.5 4.2 50.5 5.5 C52.6 4.5 55.6 4.2 59.5 4.5 C66.7 4.5 74.5 9 78.8 11.8 C83 14.6 91 25 93 28.4 C95 31.8 96.7 39.1 97.3 42.7 C97.9 46.3 97.3 55.3 94.7 60.3 C92.1 65.3 82.5 78 79.9 80.3 C76.4 83.4 71.5 86.4 67.9 88.5 C62.3 91.8 46 95 35.4 89.9 C31.5 88 25.1 85.8 20.9 82.2 C13.5 75.9 8.9 67.7 7 65.7 C4 62.7 1.8 55.5 2.5 50.3 C3.2 45.1 5.4 35.1 8.2 28.4 z M10.1 28.4 C7.4 34.9 5.3 44.5 4.6 49.5 C3.9 54.5 6 61.4 8.9 64.3 C10.7 66.2 15.2 74.1 22.2 80.1 C26.2 83.6 32.3 85.8 36.1 87.5 C46.3 92.4 61.9 89.3 67.2 86.1 C70.6 84.1 75.3 81.2 78.7 78.2 C81.2 76 90.4 63.7 92.9 58.9 C95.4 54.1 96 45.4 95.4 42 C94.8 38.5 93.2 31.5 91.2 28.3 C89.2 25.1 81.6 15.1 77.6 12.4 C73.6 9.7 66.1 5.4 59.2 5.4 C55.5 5.1 52.6 5.5 50.6 6.4 C45.8 5.1 41.6 4.7 37.9 5.4 C32.5 6.4 24.1 8.8 20.7 13.3 C17.3 17.8 12.8 21.9 10.1 28.4 z" opacity="0.15" id="q1" /><path d="M32.7 10.5 C38.2 13.7 42.7 17.2 45.6 23.9 C48.5 30.6 47.2 33.2 49.4 33.2 C51.6 33.2 51.1 28.5 53.1 23.9 C55.1 19.3 60.7 14.2 66.5 10.5 C67.2 10 63.6 8.3 60.1 8.4 C56.9 8.6 52.2 10.5 50 10.5 C48 10.5 45 8.8 40.7 8.4 C34.9 7.9 29.5 8.7 32.7 10.5 z" id="r1" fill="#6B4028" /></g></g><g id="s1"><g transform="translate(96.6, 78.59998) translate(49, 49)" id="t1"><path d="M4.9 47.3 C3.6 44.4 4 38.4 6.2 35.6 C7.4 34.1 9.4 31.1 12.6 29.9 C15.5 28.7 19.3 29.2 23.6 29.2 C27.7 29.2 29.8 28.7 32.4 29.6 C35.4 30.7 38.4 33.2 39.9 35.6 C42.6 39.9 42.1 45.1 40.5 47.3 C39.8 48.3 37.6 51.5 35.2 51.8 C32.2 52.2 28.5 50.1 24.2 50.1 C20.6 50.1 16.7 51.9 13.2 51.8 C9 51.6 5.6 48.9 4.9 47.3 z" id="u1" fill="#3A2F27" /><path d="M14.9 29.3 C14.4 29.4 13.9 29.5 13.5 29.7 C10.6 30.9 8.7 33.6 7.6 35 C5.5 37.6 5.2 43.1 6.4 45.8 C7 47.3 10.2 49.8 14 49.9 C17.2 50 20.9 48.4 24.1 48.4 C28.1 48.4 31.5 50.3 34.3 49.9 C36.5 49.6 38.5 46.7 39.1 45.8 C40.5 43.7 41 39 38.5 35 C37.2 32.9 34.4 30.5 31.6 29.5 C31.3 29.4 30.9 29.3 30.6 29.2 C31.2 29.3 31.8 29.4 32.4 29.6 C35.4 30.7 38.4 33.2 39.9 35.6 C42.6 39.9 42.1 45.1 40.5 47.3 C39.8 48.3 37.6 51.5 35.2 51.8 C32.2 52.2 28.5 50.1 24.2 50.1 C20.6 50.1 16.7 51.9 13.2 51.8 C9 51.7 5.6 48.9 4.9 47.3 C3.6 44.4 4 38.4 6.2 35.6 C7.4 34.1 9.4 31.1 12.6 29.9 C13.3 29.6 14.1 29.4 14.9 29.3 z" opacity="0.15" id="v1" /><g opacity="0.4" transform="translate(6, 34)" id="w1"><circle cx="29.5" cy="11.5" r="1" opacity="0.4" id="x1" /><circle cx="24.5" cy="12.5" r="1" opacity="0.4" id="y1" /><circle cx="5.5" cy="11.5" r="1" opacity="0.4" id="z1" /><circle cx="10.5" cy="11.5" r="1" opacity="0.4" id="a2" /><circle cx="4.5" cy="4.5" r="1" opacity="0.4" id="b2" /><circle cx="32.5" cy="7.5" r="1" opacity="0.4" id="c2" /><circle cx="27.5" cy="8.5" r="1" opacity="0.4" id="d2" /><circle cx="6.5" cy="7.5" r="1" opacity="0.4" id="e2" /><circle cx="2.5" cy="8.5" r="1" opacity="0.4" id="f2" /><circle cx="30.5" cy="4.5" r="1" opacity="0.4" id="g2" /></g><path d="M16.9 41.4 C18.5 43.3 19.1 45.2 18.8 47.1 C18.5 49 17.2 50.4 15.1 51.4 C16.4 51.1 17.3 50.8 17.9 50.7 C19 50.4 19.9 50 20.8 49.9 C21.7 49.7 22.6 49.7 23.3 49.7 C24.2 49.7 25 49.8 26.1 50 C26.7 50.1 27.3 50.4 28.4 50.7 C28.9 50.8 29.8 51 31 51.3 C28.9 50.1 27.7 48.7 27.5 47.2 C27.3 45.7 27.9 43.8 29.4 41.4 C26.7 42.9 24.7 43.7 23.4 43.7 C22.1 43.7 19.8 42.9 16.9 41.4 z" opacity="0.15" id="h2" /></g><g transform="translate(96.59998, 78.59998) translate(47, 87)" id="i2"><g id="j2"><path d="M3.4 5.4 C4.9 4.3 6.4 6.3 6.5 7.5 C6.6 8.7 8.3 11.5 10.6 12.2 C12.9 12.9 15.9 13.7 19.3 12.8 C20.3 12.5 21.7 11.7 24.1 11.5 C24.2 11.5 24.4 10.8 24.5 9.9 C24.7 8.2 25.2 5.7 25.4 5.7 C25.7 5.7 25.7 8.3 26 10 C26.2 11 26.4 11.6 26.5 11.6 C28.5 11.8 29.8 12.5 31.4 12.8 C34.4 13.5 39.8 13.5 41.8 9.6 C43.8 5.7 43.8 4.1 45 4.1 C46.2 4.1 46.5 6.2 45 8 C43.5 9.8 41.3 12 38.9 13.1 C36.5 14.2 32.3 14 31.3 14 C30.3 14.1 28.6 15.3 25 15.3 C21.4 15.3 19.6 14 18.7 14 C17.8 14 16.8 14.3 13.9 13.8 C11 13.6 8.3 11.8 6 10 C3.7 8.2 1.9 6.5 3.4 5.4 z" id="k2" /><path d="M16.7 13.9 C17.2 14.9 17.8 15.6 18.4 16 C20.2 17.2 23 17.8 25 17.8 C27.2 17.8 30.6 17.2 32.7 15.9 C33.3 15.5 33.7 14.9 34 13.9 C30.1 13.3 27.2 13 25.4 13 C23.6 13 20.6 13.3 16.7 13.9 z" opacity="0.15" id="l2" /></g></g><g transform="translate(169.7, 165.7) scale(0.8) translate(-169.7, -165.7) translate(98.09998, 72.99998) translate(60, 89)" id="m2"><g id="n2"><path d="M3.1 13.1 C0.3 8.7 -5.5 -0.7 11.3 -0.7 C28.1 -0.7 20.8 10.4 18.4 13.4 C16 16.4 6 17.5 3.1 13.1 z" id="o2" /><path d="M17.1 4.6 C19.1 6.2 20.3 4.7 20.3 3.9 C20.3 3.1 18.6 1.7 16.9 1.7 C15.2 1.7 12.6 1.1 12.9 2.5 C13.2 3.9 15 3 17.1 4.6 z" id="p2" fill="#FFF" /></g></g><g transform="translate(87.59999, 108.6) translate(55, 18)" id="q2"><g id="r2"><path d="M1.8 10.9 C4.2 6.6 6.4 6 7.9 4.5 C10.3 2 13.9 0.3 14.6 0.8 C15.3 1.3 20.6 9.2 21.3 10.1 C22.5 11.8 22.5 14.4 21.3 17.7 C21 18.5 19.9 19.4 17.9 20.4 C15.3 21.1 12.7 21.4 10 21.3 C8.7 21.2 5.6 20.7 4.5 21 C2.1 21.6 2.1 23.1 1.5 21.9 C0.5 20.2 -0.8 15.7 1.8 10.9 z" id="s2" fill="#3A2F27" /><path d="M17.4 18.2 C18.6 16.3 17.8 14 17.1 12.5 C16.3 10.7 14.6 9.9 13.7 9.5 C11.2 8.4 9.2 8.8 7.3 10.4 C5.4 12 3.8 15 3.8 16.6 C3.8 18.2 7.9 19.8 11 19.8 C14.2 19.6 16.3 20.1 17.4 18.2 z" id="t2" /><path d="M13.1 12.7 C13.1 11.5 12.1 10.5 10.9 10.5 C9.8 10.5 8.8 11.5 8.8 12.8 C8.8 14.1 9.8 15 11 15 C11 14.9 11 14.9 11 14.8 C10.8 14.3 10.9 13.8 11.4 13.2 C12 12.7 12.5 12.6 13.1 12.7 z" id="u2" fill="#FFFFFE" /></g></g><g transform="translate(83.59999, 108.6) translate(89, 18)" id="v2"><path d="M20.5 10.9 C18.1 6.5 15.9 6 14.4 4.5 C12 2 8.4 0.3 7.7 0.8 C7 1.3 2.4 8.2 1.3 10 C-0.2 12.3 0.7 16.7 3 19.2 C5.3 21.7 8.2 21.5 12.3 21.2 C13.6 21.1 16.7 20.6 17.8 20.9 C20.2 21.5 20.2 23 20.8 21.8 C21.7 20.2 23 15.7 20.5 10.9 z" id="w2" fill="#3A2F27" /><g transform="translate(5, 9)" id="x2"><path d="M1.1 8.8 C0 6.9 0.9 4.7 1.6 3.3 C2.4 1.7 4.2 0.9 5.1 0.6 C7.6 -0.3 9.6 0.2 11.4 1.8 C13.2 3.4 14.7 6.4 14.5 7.9 C14.3 9.4 10.3 10.7 7.3 10.6 C4.2 10.3 2.2 10.6 1.1 8.8 z" id="y2" /><path d="M8.7 4 C8.7 2.8 7.7 1.9 6.5 1.9 C5.4 1.9 4.4 2.9 4.4 4.1 C4.4 5.3 5.4 6.3 6.6 6.3 C6.6 6.2 6.6 6.2 6.6 6.1 C6.4 5.6 6.5 5.1 7 4.6 C7.6 4 8.1 3.9 8.7 4 z" id="z2" fill="#FFFFFE" /></g></g></g></g></g></g><defs><g transform="translate(17.09519, 0.800995) translate(-135.2952, -293.601)" id="a3" fill="#000"><path d="M118.2 302.7 C118.4 307.4 132.5 311.2 149.8 311.2 C167.1 311.2 181.2 307.4 181.4 302.7 C181.4 307.5 181.4 310.1 181.4 310.5 C181.4 315.3 167.3 319.1 149.8 319.1 C132.3 319.1 118.2 315.2 118.2 310.5 L118.2 302.7 L118.2 302.7 z" fill-opacity="0.4528" id="b3" fill="#593001" /><path d="M118.7 301.7 C118.9 306.4 133 310.2 150.3 310.2 C167.6 310.2 181.7 306.4 181.9 301.7 C181.9 306.5 181.9 309.1 181.9 309.5 C181.9 314.3 167.8 318.1 150.3 318.1 C132.8 318.1 118.7 314.2 118.7 309.5 L118.7 301.7 L118.7 301.7 z" id="c3" fill="#DA8113" /><linearGradient x1="46.0545" y1="-118.6926" x2="45.4656" y2="-118.6926" gradientUnits="userSpaceOnUse" gradientTransform="matrix(117.135, 0, 0, 28.4634, -5208.417, 3687.795)" id="d3"><stop offset="0%" stop-color="#D9952A" stop-opacity="1" /><stop offset="6.438854%" stop-color="#CA7519" stop-opacity="1" /><stop offset="30.54%" stop-color="#E3AD3A" stop-opacity="1" /><stop offset="51.05%" stop-color="#FFEC91" stop-opacity="1" /><stop offset="68.8%" stop-color="#E9BD44" stop-opacity="1" /><stop offset="86.24%" stop-color="#FFED6C" stop-opacity="1" /><stop offset="93.87%" stop-color="#F2D353" stop-opacity="1" /><stop offset="100%" stop-color="#F2B947" stop-opacity="1" /></linearGradient><path d="M118.2 301.6 C118.4 306.1 132.7 309.7 150.3 309.7 C167.9 309.7 182.2 306.1 182.4 301.6 C182.4 306.2 182.4 308.7 182.4 309 C182.4 313.5 168 317.2 150.3 317.2 C132.6 317.2 118.2 313.5 118.2 309 L118.2 301.6 L118.2 301.6 z" id="e3" style="fill:url(#d3)" /><linearGradient x1="45.4914" y1="-117.9547" x2="45.9407" y2="-117.5895" gradientUnits="userSpaceOnUse" gradientTransform="matrix(115.425, 0, 0, 29.925, -5125.077, 3826.124)" id="f3"><stop offset="0%" stop-color="#F4E072" stop-opacity="1" /><stop offset="100%" stop-color="#DB9427" stop-opacity="1" /></linearGradient><ellipse cx="150.3" cy="301.5" rx="31.6" ry="8.2" id="g3" style="fill:url(#f3)" /><linearGradient x1="45.4656" y1="-126.0065" x2="46.0545" y2="-126.0065" gradientUnits="userSpaceOnUse" gradientTransform="matrix(117.135, 0, 0, 18.6219, -5208.417, 2651.479)" id="h3"><stop offset="0%" stop-color="#D9952A" stop-opacity="1" /><stop offset="6.438854%" stop-color="#CA7519" stop-opacity="1" /><stop offset="30.54%" stop-color="#E3AD3A" stop-opacity="1" /><stop offset="51.05%" stop-color="#FFEC91" stop-opacity="1" /><stop offset="68.8%" stop-color="#E9BD44" stop-opacity="1" /><stop offset="86.24%" stop-color="#FFED6C" stop-opacity="1" /><stop offset="93.87%" stop-color="#F2D353" stop-opacity="1" /><stop offset="100%" stop-color="#F2B947" stop-opacity="1" /></linearGradient><path d="M119.2 299.9 C119 300.2 118.9 300.6 118.9 301 C118.9 305.5 132.9 309.2 150.3 309.2 C167.7 309.2 181.7 305.5 181.7 301 C181.7 300.6 181.6 300.3 181.4 299.9 C182 300.5 182.4 301.2 182.4 301.9 C182.4 306.4 168 310.1 150.3 310.1 C132.6 310.1 118.2 306.4 118.2 301.9 C118.2 301.3 118.6 300.6 119.2 299.9 z" id="i3" style="fill:url(#h3)" /><linearGradient x1="45.196" y1="-121.5895" x2="45.3746" y2="-120.6758" gradientUnits="userSpaceOnUse" gradientTransform="matrix(101.745, 0, 0, 23.94, -4458.332, 3199.41)" id="j3"><stop offset="0%" stop-color="#F8DD61" stop-opacity="1" /><stop offset="100%" stop-color="#EAA330" stop-opacity="1" /></linearGradient><ellipse cx="150.3" cy="300.8" rx="27.8" ry="6.6" id="k3" style="fill:url(#j3)" /><linearGradient x1="45.5694" y1="-134.267" x2="45.0221" y2="-134.267" gradientUnits="userSpaceOnUse" gradientTransform="matrix(101.745, 0, 0, 13.2525, -4458.332, 2077.223)" id="l3"><stop offset="0%" stop-color="#F4CA2F" stop-opacity="1" /><stop offset="51.38%" stop-color="#BF7737" stop-opacity="1" /><stop offset="100%" stop-color="#E4A929" stop-opacity="1" /></linearGradient><path d="M122.6 301.5 C122.5 301.3 122.4 301 122.4 300.8 C122.4 297.2 134.9 294.2 150.2 294.2 C165.5 294.2 178 297.1 178 300.8 C178 301 177.9 301.3 177.8 301.5 C176.3 298.2 164.5 295.6 150.1 295.6 C135.7 295.6 124.1 298.2 122.6 301.5 z" id="m3" style="fill:url(#l3)" /></g></defs><desc>DKE6E9EE787,L+c7YrjDfc894ucHWC4Hq8LXMeastt7i78mqHbGg5DQL9cS7SYnLMZlmcMMXAJhsQNBRsjB3eWjkqUE1jCKqg87bvLnbfZIZ+hPv/4L5/MY=</desc></svg>