<?xml version="1.0" encoding="utf-8"?><!DOCTYPE svg PUBLIC "-//W3C//DTD SVG 1.1//EN" "http://www.w3.org/Graphics/SVG/1.1/DTD/svg11.dtd"><svg x="0" y="0" width="340px" height="340px" viewBox="0, 0, 340, 340" preserveAspectRatio="xMidYMid" font-size="0" id="a" enable-background="new 0 0 340 340" xmlns="http://www.w3.org/2000/svg" xmlns:xlink="http://www.w3.org/1999/xlink" xmlns:xml="http://www.w3.org/XML/1998/namespace" version="1.1"><g id="b" fill="#000"><g id="c"><g transform="translate(0, 0) translate(0, 224)" id="d"><ellipse cx="168.6" cy="53.1" rx="57.8" ry="12.8" fill-opacity="0.25" id="e" /></g><g id="f"><g transform="translate(100, 102.3) translate(20.5, 139.5) scale(-1, 1) translate(-20.5, -139.5) translate(0, 122)" id="g"><g id="h"><path d="M28.3 1.5 C38.6 0.6 40.4 9.4 40.6 11.6 C39.9 11.2 39.2 10.8 38.5 10.4 C39.3 12.6 39.7 15.1 39.7 17.8 C38.6 16.4 36.7 14.8 34.9 13.9 C35.7 15.2 36.5 16.5 37.4 17 C35.4 17.6 34.6 18.2 31 17.7 C28.6 17.4 27.5 17.8 24.4 18.3 C23.8 18.4 19.5 10.8 21.8 5.7 C23.2 3.5 27.3 1.5 28.3 1.5 z" id="i" fill="#D8D8D8" /><path d="M6 15 C9.4 15.8 13.3 15.1 15.9 12.7 C16.5 12.2 17 11.5 17.6 10.9 C19.7 7.6 21.8 4.2 23.8 0.9 C23.8 1.7 23.7 2.5 23.6 3.2 C25 2.2 26.5 1.5 28.3 1.3 C25.8 4 23.8 7.1 22.4 10.5 C22.8 10.5 23.3 10.4 23.8 10.3 C24.8 10 26.6 9.5 27.4 8.4 C27.4 10.5 26.9 11.4 26.2 12.1 C28.3 11.9 30.4 12.2 32.4 13 C29.6 13.4 27.8 16.2 25.4 17.6 C25.5 17.6 28.8 17 30.9 17.9 C31 18.1 31.1 18.4 31.2 18.6 C32.2 21 32.3 23.7 31.5 26.1 C30.7 24.4 29.5 22.8 28.1 21.5 C28.6 25.5 27.5 29.7 25.6 32.8 C25.4 29.1 25.6 25.3 21.5 23.8 C23.2 26.6 21.3 31.3 20.7 34.1 C20.5 31.6 20.2 29.1 19.1 26.8 C16.2 20.4 14.9 21 9.6 21.6 C6.3 21.9 1.1 21 1 18.4 C0.9 15.8 4.2 14.6 6 15 z" id="j" fill="#32363A" /><path d="M30 17.6 C30.3 17.7 30.6 17.8 30.9 17.9 C31 18.1 31.1 18.4 31.2 18.6 C32.2 21 32.3 23.7 31.5 26.1 C30.7 24.4 29.5 22.8 28.1 21.5 C28.6 25.5 27.5 29.7 25.6 32.8 C25.4 29.1 25.6 25.3 21.5 23.8 C23.2 26.6 21.3 31.3 20.7 34.1 C20.5 31.6 20.2 29.1 19.1 26.8 C16.2 20.4 14.9 21 9.6 21.6 C6.3 21.9 1.1 21 1 18.4 C0.9 15.8 4.2 14.6 6 15 C9.4 15.8 13.3 15.1 15.9 12.7 C16.5 12.2 17 11.5 17.6 10.9 C19.7 7.6 21.8 4.2 23.8 0.9 C23.8 1.7 23.7 2.5 23.6 3.2 C25 2.2 26.5 1.5 28.3 1.3 C28.2 1.4 28.2 1.4 28.1 1.5 C28.2 1.5 28.2 1.5 28.3 1.5 C38.6 0.6 40.4 9.4 40.6 11.6 L38.5 10.4 C39.3 12.6 39.7 15.1 39.7 17.8 C38.6 16.4 36.7 14.8 34.9 13.9 C35.7 15.2 36.5 16.5 37.4 17 C35.4 17.6 34.6 18.2 31 17.7 C30.6 17.7 30.3 17.6 30 17.6 z M29.8 16.1 C29.5 16 33.3 16.9 35.1 16.4 C34.3 15.9 34.1 13.3 33.3 12.1 C35 12.9 37.9 14.3 38.9 15.6 C38.9 13.2 38.2 10.6 37.5 8.7 L39.8 10 C39.7 8.1 37 1.6 27.7 2.4 C27.6 2.4 28.5 2 28.4 2 C28.5 1.9 28.5 1.9 28.6 1.8 C27 2 24.4 4.3 23.2 5.2 C23.2 4.6 23.2 3.4 23.2 2.7 C21.3 5.6 20.8 7.4 18.9 10.3 C18.4 10.9 17.9 11.5 17.4 11.9 C15 14.1 11 16.9 7.9 16.2 C6.2 15.8 2.7 15.8 2.8 18.1 C2.9 20.4 8.7 20.1 11.6 19.8 C16.5 19.3 16.6 18.2 19.2 23.9 C20.2 25.9 20.7 26.4 20.8 28.6 C21.4 26.1 21.2 24.2 19.7 21.7 C23.4 23 25.9 24.9 26.1 28.2 C27.8 25.5 26.9 22.7 26.5 19.2 C27.8 20.3 30.3 21.7 31.1 23.2 C31.8 21.1 30 19.5 29.1 17.3 C29 17.2 29.8 16.3 29.8 16.1 z" opacity="0.15" id="k" /></g></g><g transform="translate(132.1733, 272.8) scale(0.5830064) translate(-129, -272.8) translate(102.8, 90.39996) translate(15, 110)" id="l"><g transform="translate(23, 36) scale(-1, 1) translate(-23, -36)" id="m"><path d="M-1.4 45.3 C0.8 26.6 11.7 11.6 13.3 7.8 C15 3.9 23 -0.6 26.9 14.5 C28.4 20.4 31 23.9 32.4 29.9 C34.6 39.4 35.2 51.3 34.9 59.2 C34.7 63.6 28.7 73.3 26.1 73.3 C18.5 73.3 9.7 75.5 7.2 72.1 C3.3 66.9 -3.6 63.9 -1.4 45.3 z" id="n" fill="#32363A" /><path d="M36.4 60.6 C38 61.6 43.4 64.4 43.7 68.7 C44 73 44 74.4 41 75 C38 75.6 35.1 75.9 32.7 75.5 C30.5 75.1 28.5 73.5 26.9 73.5 C23.7 73.5 24.9 73.5 23.3 73.5 C22.8 68.5 25.7 65.4 26.9 64.1 C28.1 62.8 34.8 59.6 36.4 60.6 z" id="o" fill="#D8D8D8" /><path d="M34.7 60.5 C35.4 60.4 36 60.4 36.4 60.6 C38 61.6 43.4 64.4 43.7 68.7 C44 73 44 74.4 41 75 C38 75.6 35.1 75.9 32.7 75.5 C30.5 75.1 28.5 73.5 26.9 73.5 L23.3 73.5 L23.3 73.4 C16.5 73.8 9.4 75.1 7.2 72.1 C3.3 66.9 -3.6 63.9 -1.4 45.3 C0.8 26.6 11.7 11.6 13.3 7.8 C15 3.9 23 -0.6 26.9 14.5 C28.4 20.4 31 23.9 32.4 29.9 C34.6 39.4 35.2 51.3 34.9 59.2 C34.9 59.6 34.8 60 34.7 60.5 z M32.6 61.3 C33 57.3 33.2 55.1 33.2 54.9 C33.5 47.5 33.8 39.4 31.7 30.5 C30.4 24.9 27.9 21.6 26.5 16.1 C22.9 1.9 15.4 6.1 13.8 9.8 C12.3 13.3 2 27.4 0 45 C-2.1 62.4 4.5 64 8.2 68.9 C10.3 71.7 16.8 71.7 23.2 71.5 L26.6 71.5 C28.1 71.5 30 73 32 73.4 C34.3 73.8 37 73.5 39.8 72.9 C42.6 72.3 42 72 41.7 68 C41.4 64 36.5 62.3 35 61.4 C34.6 61.1 33.3 61.2 32.6 61.3 z" opacity="0.15" id="p" /></g></g><g transform="translate(204.7267, 272.9) scale(0.5830064) translate(-207.9, -272.9) translate(89.40001, 90.29997) translate(102.5, 145) scale(-1, 1) translate(-102.5, -145) translate(79, 108)" id="q"><g transform="translate(23.5, 37) scale(-1, 1) translate(-23.5, -37)" id="r"><path d="M2.6 48.8 C4.8 29.9 16.7 12.7 18.3 8.8 C20 4.9 28 0.3 31.9 15.7 C33.4 21.7 36 25.2 37.4 31.4 C39.6 41 40.2 53.1 39.9 61.1 C39.7 65.6 33.7 75.4 31.1 75.4 C23.5 75.4 14.7 77.6 12.2 74.2 C8.3 68.8 0.4 67.7 2.6 48.8 z" id="s" fill="#32363A" /><path d="M41.4 62.6 C43 63.6 48.4 66.4 48.7 70.7 C49 75 48.7 77.3 45.1 77.5 C41.5 77.7 39.9 78.1 37.6 77.8 C35.4 77.4 33.7 75.5 32.1 75.5 C28.9 75.5 30.1 75.5 28.5 75.5 C28 70.5 30.9 68.1 32.6 65.9 C33 64.9 39.8 61.6 41.4 62.6 z" id="t" fill="#D8D8D8" /><path d="M41.4 62.6 C43 63.6 48.4 66.4 48.7 70.7 C49 75 48.7 77.3 45.1 77.5 C41.5 77.7 39.9 78.1 37.6 77.8 C35.4 77.4 33.7 75.5 32.1 75.5 L28.5 75.5 C21.6 75.8 14.4 77.2 12.2 74.2 C8.3 68.8 0.4 67.7 2.6 48.8 C4.8 29.9 16.7 12.7 18.3 8.8 C20 4.9 28 0.3 31.9 15.7 C33.4 21.7 36 25.2 37.4 31.4 C39.6 41 40.2 53.1 39.9 61.1 C39.9 61.5 39.8 62 39.7 62.5 C40.4 62.4 41 62.4 41.4 62.6 z M37.2 62.8 C37.6 60.8 38 58.6 38.4 56.2 C39 52.5 38.8 40 36.7 31 C35.4 25.2 32.9 21.9 31.5 16.2 C27.9 1.8 20.3 6.1 18.7 9.8 C17.2 13.4 6 29.6 4 47.4 C2 65.2 9.4 66.2 13 71.3 C15.1 74.1 21.8 72.8 28.3 72.5 L31.7 72.5 C33.2 72.5 34.8 74.3 36.9 74.7 C39.1 75 40.6 74.6 44 74.4 C47.4 74.2 46.9 73.4 46.6 69.4 C46.3 65.4 42.3 64.6 40.8 63.7 C40.4 63.4 37.9 62.7 37.2 62.8 z" opacity="0.15" id="u" /></g></g><g transform="translate(102.1, 98.99998) translate(27, 90)" id="v"><path d="M64.2 29.4 C59.3 18.2 71.8 0.9 40.2 0.9 C9.5 0.9 19.6 18.2 14.7 29.4 C10.1 39.8 9.6 51.5 10.3 63 C11.3 79.5 15.6 89 39.4 89 C63.2 89 67.5 79.6 68.5 63 C69.3 51.5 68.8 39.9 64.2 29.4 z" id="w" fill="#32363A" /><path d="M64.2 29.4 C68.8 39.9 69.3 51.5 68.5 63 C67.5 79.6 63.2 89 39.4 89 C15.6 89 11.3 79.5 10.3 63 C9.6 51.5 10.1 39.8 14.7 29.4 C19.6 18.2 9.5 0.9 40.2 0.9 C71.8 0.9 59.3 18.2 64.2 29.4 z M62.8 28.8 C58.1 18 69.9 1.5 40.2 1.5 C11.3 1.5 20.8 18.1 16.2 28.8 C11.8 38.7 11.3 50 12 61 C12.9 76.8 17 85.9 39.4 85.9 C61.8 85.9 65.9 76.9 66.8 61 C67.6 50 67.1 38.8 62.8 28.8 z" opacity="0.15" id="x" /></g><g transform="translate(140.6062, 206.75) scale(0.6334176, 0.7340323) translate(-124, -197.2) translate(95.39999, 103.9) translate(28, 92)" id="y"><path d="M8.3 7.6 C4.2 18.1 8.4 13.1 8.6 22.6 C16.4 36.1 36.9 54 44.4 54 C53 54 74.8 37.2 80.4 23.7 C82.6 18.6 83.5 14.1 82.6 9.9 C82.2 8.1 81 5.7 80.4 4.5 C78.9 1.8 80.1 13.2 69.5 20.9 C64.6 24.4 55.5 28.5 45.1 28.5 C33.2 28.5 25.6 23.5 19.9 18.8 C10.3 11 10.4 1.3 8.3 7.6 z" id="z" fill="#474B4F" /><path d="M7.8 8.9 C0.6 21.8 2.6 26.2 3.5 32.6 C4.5 39 4.5 43.6 6.4 48.3 C8.3 53 8.7 55.4 10.3 60.5 C11.8 65.5 13.8 72.5 14.6 77.4 C15 80.1 14.8 82.7 15.2 84.6 C15.6 86.2 16.6 87 16.1 88.2 C15.1 90.8 11.1 91.5 9 93.4 C6.9 95.3 5.9 99.5 6.6 100.7 C12.5 104.7 26.5 101 31.4 100 C31.6 99.9 32.6 93.5 31.4 92 C30.1 90.4 32.3 91 32.8 87.1 C34 83.8 34.1 64.2 35.1 59.4 C36.1 54.6 35.4 49 33.3 47.7 C28.2 44.5 27.3 43.8 23.7 38.6 C20.7 34.4 26.5 32.9 23.7 30.7 C21.5 29 14.5 26.9 12.6 24.4 C10.7 21.9 8.4 15.6 7.8 8.9 z" id="a1" fill="#FEFEFE" /><path d="M8.9 91.7 C6.8 94.1 5.8 99.5 6.5 101.1 C12.4 106.2 26.4 101.5 31.3 100.2 C31.5 100 33.4 93.6 32.1 91.7 C31.8 91.3 31.8 90.8 31.9 90.3 C27.9 88 21.7 86.8 15.8 87.1 C14 88.9 10.5 89.8 8.9 91.7 z" id="b1" fill="#474B4F" /><path d="M33.9 77.1 C34 67.9 35.7 56.1 36.4 52.9 C37.4 48.1 35.6 48.4 33.5 47.1 C28.4 43.9 27.7 43.5 24.1 38.3 C23.4 37.3 23.1 35.7 23.1 34.9 C20.6 37.5 20.9 47.2 23.7 51 C26 54.2 28.7 52.8 30.7 58.6 C31.9 62.1 32.3 64.2 32.3 66.7 C32.4 71.1 32.7 74.2 33.9 77.1 z" id="c1" fill="#474B4F" /><path d="M82.3 8.9 C91.2 21.5 86.6 25.8 86.6 32.6 C86.6 38.9 83.4 44.1 81.8 49.6 C80.2 55.1 79.8 56.9 78.2 62 C77 66 76.1 74.9 75.1 79 C73.6 85.3 72.6 84.8 73.9 87.9 C74.9 90.5 79.1 91.3 81.2 93.2 C83.3 95.1 81.9 98.3 81.2 99.5 C75.3 103.5 64.8 100.5 59.9 99.5 C59.7 99.4 59.1 96 59.1 93.2 C59.1 90.7 56.7 90.6 56.4 86.1 C56.1 83 55.8 57.3 54.8 52.4 C53.8 47.5 54.8 48.8 56.8 47.6 C61.9 44.4 62.8 43.7 66.4 38.5 C69.4 34.3 63.6 32.8 66.4 30.6 C68.6 28.9 75.6 26.8 77.5 24.3 C79.3 21.8 81.6 15.6 82.3 8.9 z" id="d1" fill="#FEFEFE" /><path d="M80.1 90.7 C82.2 93.1 83.2 98.5 82.5 100.1 C76.6 105.2 62.6 100.5 57.7 99.2 C57.5 99 55.6 92.6 56.9 90.7 C57.2 90.3 57 89.9 56.9 89.4 C60.9 87.1 67.3 85.8 73.2 86.1 C75 87.9 78.5 88.8 80.1 90.7 z" id="e1" fill="#474B4F" /><path d="M56.1 77.1 C56 67.9 54.3 56.1 53.6 52.9 C52.6 48.1 54.4 48.5 56.4 47.3 C61.5 44.1 62.1 43.9 65.7 38.8 C66.4 37.8 66.8 35.5 66.7 34.7 C69.2 37.3 68.9 47.4 66.1 51.1 C63.8 54.3 61.1 52.9 59.1 58.7 C57.9 62.2 57.5 64.3 57.5 66.8 C57.6 71.1 57.3 74.2 56.1 77.1 z" id="f1" fill="#474B4F" /><path d="M44.4 54 C42.5 54 39.8 52.9 36.7 51 C36.7 51.5 36.6 52.2 36.4 52.9 C35.9 55.3 34.8 62.4 34.2 69.7 C34.1 71.9 34 74.1 33.9 76.3 C33.9 76.6 33.9 76.8 33.9 77.1 C33.6 81.7 33.3 85.7 32.8 87 C32.6 88.7 32 89.6 31.6 90.1 C31.7 90.2 31.8 90.2 31.9 90.3 C31.8 90.8 31.8 91.3 32.1 91.7 C33.4 93.6 31.5 100 31.3 100.2 C26.4 101.5 12.4 106.2 6.5 101.1 C5.8 99.5 6.8 94.1 8.9 91.7 C10.5 89.8 14 88.9 15.8 87.1 C15.9 87.1 16.1 87.1 16.2 87.1 C16 86.3 15.5 85.6 15.2 84.5 C14.8 82.7 15 80 14.6 77.3 C13.9 72.4 11.8 65.4 10.3 60.4 C8.7 55.3 8.3 52.9 6.4 48.2 C4.5 43.5 4.5 39 3.5 32.6 C2.6 26.2 0.6 21.8 7.8 8.9 C8 8.5 8.1 8.1 8.3 7.6 C10.4 1.3 10.3 11 19.9 18.8 C25.6 23.5 33.2 28.5 45.1 28.5 C55.5 28.5 64.6 24.4 69.5 20.9 C80.1 13.2 78.9 1.8 80.4 4.5 C81 5.5 81.9 7.4 82.4 9.1 C91.1 21.6 86.6 25.9 86.6 32.6 C86.6 38.9 83.4 44.1 81.8 49.6 C80.2 55.1 79.8 56.9 78.2 62 C77 66 76.1 74.9 75.1 79 C74 83.8 73.1 84.7 73.3 86.2 C75.1 87.9 78.5 88.8 80 90.6 C80.8 91.5 81.4 92.8 81.9 94.2 C82.1 94.5 82.1 94.9 82.2 95.2 C82.7 97.2 82.8 99.1 82.4 99.9 C76.5 105 62.5 100.3 57.6 99 C57.4 98.8 55.5 92.4 56.8 90.5 C57.1 90.1 56.9 89.7 56.8 89.2 C56.7 88.3 56.4 87.4 56.3 86 C56.2 85 56.1 81.4 56 76.9 C56 76.7 56 76.5 56 76.3 C56 75.6 56 75 55.9 74.3 C55.6 65.6 54.1 55.6 53.5 52.7 C53.3 51.9 53.2 51.3 53.2 50.7 C49.8 52.9 46.6 54 44.4 54 z M55.8 47.1 C55.8 47.6 55.1 52.6 55.2 53.4 C55.9 56.4 56.8 65.3 56.9 74.1 C57 74 57.2 82.1 57.3 83.1 C57.4 84.4 57.9 87.1 57.8 87.1 C57.9 87.6 58.9 89.5 58.6 89.8 C57.4 91.6 58.4 96.9 58.6 97.1 C63.3 98.3 75 102.6 80.6 97.7 C81 96.9 81.1 95.5 80.6 93.7 C80.6 93.4 79.4 91.6 78.6 90.7 C77.1 89 74 87.9 72.2 86.3 C72.8 80.6 74 72.8 76.1 62.7 C77.2 57.7 77.9 52.6 80.2 48.3 C82.5 44 83.4 42.7 85.4 32.5 C87.4 22.3 83.1 14.6 82.8 12.5 C82.5 10.4 81 8.5 80.2 7.2 C78.8 4.6 78.6 15.5 68.5 22.8 C64 26.3 54.9 32.1 45 32.1 C33.7 32.1 26.9 26 21.5 21.6 C12.3 14.2 10 3.6 8 9.5 C7.9 9.8 4.6 15.7 3.9 22.9 C3.6 26.1 4.7 31.9 5 33.8 C6 39.9 6.7 43 7.8 47.1 C8.9 51.2 10.7 56.3 12.2 61.1 C15 70.1 17.5 78 16 83.5 C15.8 83.5 17.1 87.5 16.9 87.5 C15.2 89.2 12.6 89.8 11.1 91.6 C9.1 93.9 7.7 97.1 8.3 98.7 C13.9 103.5 25.7 99.6 30.3 98.4 C30.5 98.2 31.9 92.8 30.7 91 C30.4 90.6 31.4 89.1 31.3 89 C31.7 88.5 31.6 87 31.8 85.3 C32.3 84 32.3 80.6 32.6 76.2 C32.7 76.4 33.6 55.5 34.3 52.4 C34.5 51.7 34.3 46.8 34.3 46.3 C37.3 48.1 38.2 52.4 44.4 52.4 C50.6 52.4 52.4 48.9 55.8 47.1 z" opacity="0.15" id="g1" /></g></g><g transform="translate(168.2, 212.1) scale(0.9514883) translate(-168.2, -212.1)" id="h1"><g transform="translate(101.2, 105.4) translate(23, 25)" id="i1"><g id="j1"><g id="k1"><path d="M87.2 74.6 C85.9 71 84.6 66.6 82.2 61.8 C83.8 62.4 85.3 63 86.1 64.5 C84.9 58.9 83.6 52.1 80.2 47.3 C80.2 46.9 80.2 46.5 80.2 46.1 C80 31.9 77.9 25.5 76.4 19.1 C74 9 65.6 3.7 57.8 1.1 C52.1 -0.8 46.6 1.3 43.9 1.3 C41.2 1.3 35.7 -0.8 30 1.1 C22.1 3.8 13.7 9 11.4 19.1 C9.9 25.5 7.8 31.9 7.6 46.1 C7.6 46.5 7.6 46.9 7.6 47.3 C4.2 52 2.9 58.9 1.7 64.5 C2.5 63 4 62.4 5.6 61.8 C3.3 66.6 1.9 71.1 0.6 74.6 C2.1 72.7 6 72.5 7.5 70.5 C6.5 74.9 5.8 87.6 12.8 92.5 C13.7 88.4 15.2 84.6 17.2 81.1 C17.5 82.6 18.1 84.3 18.9 86.1 C19.9 80.8 20.9 78.7 22.5 77.6 C21.8 84 20.9 88 23.7 89.6 C23.6 86.7 26 83.3 28.4 80.2 C32.3 83 36.8 84 43.9 84 C51.1 83.9 55.5 83 59.4 80.2 C61.8 83.4 64.2 86.8 64.1 89.6 C66.8 88 66 84 65.3 77.6 C66.9 78.8 67.9 80.8 68.9 86.1 C69.7 84.3 70.2 82.6 70.6 81.1 C72.6 84.6 74.2 88.5 75 92.5 C82 87.5 81.2 74.9 80.3 70.5 C81.8 72.4 85.6 72.7 87.2 74.6 z" id="l1" fill="#474B4F" /><path d="M87.2 74.6 C85.6 72.7 81.8 72.4 80.3 70.5 C81.2 74.9 82 87.5 75 92.5 C74.2 88.5 72.6 84.6 70.6 81.1 C70.2 82.6 69.7 84.3 68.9 86.1 C67.9 80.8 66.9 78.8 65.3 77.6 C66 84 66.8 88 64.1 89.6 C64.2 86.8 61.8 83.4 59.4 80.2 C55.5 83 51.1 83.9 43.9 84 C36.8 84 32.3 83 28.4 80.2 C26 83.3 23.6 86.7 23.7 89.6 C20.9 88 21.8 84 22.5 77.6 C20.9 78.7 19.9 80.8 18.9 86.1 C18.1 84.3 17.5 82.6 17.2 81.1 C15.2 84.6 13.7 88.4 12.8 92.5 C5.8 87.6 6.5 74.9 7.5 70.5 C6 72.5 2.1 72.7 0.6 74.6 C1.9 71.1 3.3 66.6 5.6 61.8 C4 62.4 2.5 63 1.7 64.5 C2.9 58.9 4.2 52 7.6 47.3 C7.6 46.9 7.6 46.5 7.6 46.1 C7.8 31.9 9.9 25.5 11.4 19.1 C13.7 9 22.1 3.8 30 1.1 C35.7 -0.8 41.2 1.3 43.9 1.3 C46.6 1.3 52.1 -0.8 57.8 1.1 C65.6 3.7 74 9 76.4 19.1 C77.9 25.5 80 31.9 80.2 46.1 C80.2 46.5 80.2 46.9 80.2 47.3 C83.6 52.1 84.9 58.9 86.1 64.5 C85.3 63 83.8 62.4 82.2 61.8 C84.6 66.6 85.9 71 87.2 74.6 z M84.1 70.6 C82.8 67.2 81.6 63.1 79.4 58.7 C80.9 59.2 82.3 59.8 83 61.2 C81.9 56 80.7 49.7 77.6 45.2 C77.6 44.9 77.6 44.5 77.6 44.1 C77.4 31 75.4 25 74 19.1 C71.8 9.7 64 4.8 56.8 2.4 C51.5 0.6 46.4 2.1 43.9 2.1 C41.4 2.1 36.3 0.6 31 2.4 C23.7 4.9 15.9 9.7 13.8 19.1 C12.4 25 10.4 31 10.2 44.1 C10.2 44.5 10.2 44.9 10.2 45.2 C7.1 49.6 5.9 56 4.8 61.2 C5.5 59.8 6.9 59.2 8.4 58.7 C6.2 63.1 5 67.3 3.7 70.6 C5.1 68.8 8.8 68.6 10.1 66.7 C9.2 70.8 6 82.6 12.5 87.2 C13.3 83.3 15.9 79.8 17.7 76.6 C18 78 18.4 79 19.1 80.7 C20.1 75.8 22.6 74.4 24.1 73.3 C23.4 79.3 22.4 82 24.2 83.6 C24.8 81.2 27.3 78.6 29.5 75.7 C33.1 78.3 37.3 80 43.9 80 C50.6 79.9 54.7 78.3 58.3 75.7 C60.5 78.7 63.8 81 63.7 83.6 C66.2 82.1 64.4 79.3 63.7 73.3 C65.2 74.4 67.7 75.1 68.7 80 C69.4 78.3 71.8 78 72.2 76.6 C74 79.8 74.7 83.4 75.4 87.2 C81.9 82.5 78.5 70.8 77.7 66.7 C79 68.5 82.6 68.8 84.1 70.6 z" opacity="0.15" id="m1" /></g></g></g><g transform="translate(105.1, 107.9) translate(21, 2)" id="n1"><g transform="translate(18.02073, 23.28844) scale(-1, 1) rotate(-6, 0, 0) translate(-18.02073, -23.28844) translate(2.520727, 1.788439)" id="o1"><path d="M1.7 25.8 C-1.9 23.8 -2.7 23.7 -1.4 20.5 C-0.1 17.3 2.4 17.8 5 15.3 C7.6 12.8 13.5 8.6 17.4 6.7 C21.3 4.8 23.7 2.5 25.7 4.7 C27.7 6.9 29.1 12.8 28 18.9 C26.9 25 23.5 30.4 23.1 33.3 C22.7 36.2 21.9 40.6 20.2 42.9 C19.7 43.6 18.2 45.3 17.3 45.8 C15.4 46.7 14 44.9 12.6 41.3 C12.3 40.4 10.5 34.3 8.6 32.4 C6.3 29.9 5.4 27.8 1.7 25.8 z" id="p1" fill="#474B4F" /><path d="M1.7 25.8 C-1.9 23.8 -2.7 23.7 -1.4 20.5 C-0.1 17.3 2.4 17.8 5 15.3 C7.6 12.8 13.5 8.6 17.4 6.7 C21.3 4.8 23.7 2.5 25.7 4.7 C27.7 6.9 29.1 12.8 28 18.9 C26.9 25 23.5 30.4 23.1 33.3 C22.7 36.2 21.9 40.6 20.2 42.9 C19.7 43.6 18.2 45.3 17.3 45.8 C15.4 46.7 14 44.9 12.6 41.3 C12.3 40.4 10.5 34.3 8.6 32.4 C6.3 29.9 5.4 27.8 1.7 25.8 z M3.9 24.6 C7.2 26.4 8 28.3 10 30.5 C11.7 32.2 13.3 37.7 13.6 38.5 C14.8 41.7 16.1 43.4 17.8 42.5 C18.6 42.1 19.9 40.5 20.4 39.9 C21.9 37.8 22.6 33.9 23 31.3 C23.4 28.7 26.4 23.8 27.4 18.3 C28.4 12.8 27.1 7.5 25.4 5.5 C23.6 3.5 21.5 5.6 18 7.3 C14.5 9 9.3 12.8 6.9 15 C4.5 17.2 2.4 16.8 1.2 19.7 C0 22.6 0.7 22.8 3.9 24.6 z" opacity="0.15" id="q1" /><path d="M5.7 24.6 C3.7 23.6 2.3 23 3.3 20.4 C3.9 18.9 7.5 16.8 10.9 14.2 C13.3 12.3 16.2 10.3 18 9.3 C20.6 7.8 21.8 6.3 23.5 7.6 C25.1 8.9 26.5 14.5 25.7 19.2 C24.9 24 20 35.8 18.7 37.6 C17.4 39.4 16.1 42.4 14.5 38.2 C12.9 34 12.6 31.4 10.9 29.6 C9.2 27.8 7.7 25.6 5.7 24.6 z" id="r1" fill="#D8D8D8" /><path d="M8.2 26.4 C8.3 25.4 9.1 23.7 9.3 23.3 C9.6 22.7 12.3 21.1 14.6 19.7 C15.6 19 18.6 17.4 18.6 17.4 C20.2 16.5 20.1 19.9 18.6 22.6 C17.7 24.2 15.1 29.9 13.3 31.6 C12.7 32.2 12.2 31.1 11 29.5 C9.9 28.1 8.1 26.8 8.2 26.4 z" opacity="0.5" id="s1" fill="#474B4F" /></g></g><g transform="translate(86.59997, 107.9) translate(100.9, 24.5) scale(-1, 1) translate(-100.9, -24.5) translate(82.40002, 0)" id="t1"><g transform="translate(18.19189, 24.4854) scale(-1, 1) rotate(-7, 0, 0) translate(-18.19189, -24.4854) translate(2.691893, 2.485396)" id="u1"><path d="M5.4 26.9 C1.8 24.9 1 24.8 2.3 21.6 C3.6 18.4 6.1 18.9 8.7 16.4 C11.3 13.9 17.2 9.7 21.1 7.8 C25 5.9 27.4 3.6 29.4 5.8 C31.4 8 32.8 14 31.7 20.1 C30.7 26.2 27.1 31.6 26.8 34.5 C26.4 37.4 25.6 41.8 23.9 44.1 C23.4 44.8 21.9 46.5 21 47 C19.1 47.9 18.5 47.3 17.1 43.7 C16.8 42.8 17 42 16.7 41.2 C15.3 37.5 14.2 35.4 12.3 33.5 C9.9 31.1 9 29 5.4 26.9 z" id="v1" fill="#474B4F" /><path d="M5.4 26.9 C1.8 24.9 1 24.8 2.3 21.6 C3.6 18.4 6.1 18.9 8.7 16.4 C11.3 13.9 17.2 9.7 21.1 7.8 C25 5.9 27.4 3.6 29.4 5.8 C31.4 8 32.8 14 31.7 20.1 C30.7 26.2 27.1 31.6 26.8 34.5 C26.4 37.4 25.6 41.8 23.9 44.1 C23.4 44.8 21.9 46.5 21 47 C19.1 47.9 18.5 47.3 17.1 43.7 C16.8 42.8 17 42 16.7 41.2 C15.3 37.5 14.2 35.4 12.3 33.5 C9.9 31.1 9 29 5.4 26.9 z M7.1 25.9 C10.4 27.8 11.2 29.8 13.4 32 C15.1 33.8 16.2 35.7 17.4 39.1 C17.7 39.8 17.5 40.6 17.8 41.4 C19.1 44.7 19.6 45.3 21.4 44.4 C22.2 43.9 23.6 42.4 24.1 41.7 C25.7 39.6 26.4 35.5 26.8 32.8 C27.1 30.1 30.4 25.1 31.3 19.5 C32.3 13.9 31 8.3 29.2 6.3 C27.4 4.3 25.2 6.4 21.6 8.1 C18 9.8 12.6 13.7 10.2 16 C7.8 18.3 5.5 17.8 4.3 20.8 C3.1 23.8 3.8 24.1 7.1 25.9 z" opacity="0.15" id="w1" /><path d="M9.4 25.7 C7.4 24.7 6 24.1 7 21.5 C7.6 20 11.2 17.9 14.6 15.3 C17 13.4 19.9 11.4 21.7 10.4 C24.3 8.9 25.5 7.4 27.2 8.7 C28.8 10 30.2 15.6 29.4 20.3 C28.6 25.1 23.7 36.9 22.4 38.7 C21.1 40.5 19.8 43.5 18.2 39.3 C16.6 35.1 16.3 32.5 14.6 30.7 C12.9 29 11.4 26.8 9.4 25.7 z" id="x1" fill="#D8D8D8" /><path d="M11.5 26.9 C11.6 25.9 12.8 24.9 13 24.5 C13.3 23.9 16 22.3 18.3 20.9 C19.3 20.2 22.3 18.6 22.3 18.6 C23.9 17.7 23.8 21.1 22.3 23.8 C21.4 25.4 18.8 31.1 17 32.8 C15.8 33.9 14.9 30.4 14.4 30.5 C13.3 28.9 11.4 27.8 11.5 26.9 z" opacity="0.5" id="y1" fill="#474B4F" /></g></g><g id="z1"><g transform="translate(94.89999, 89.79998) translate(49, 49)" id="a2"><path d="M4.9 47.3 C3.6 44.4 4 38.4 6.2 35.6 C7.4 34.1 9.4 31.1 12.6 29.9 C15.5 28.7 19.3 29.2 23.6 29.2 C27.7 29.2 29.8 28.7 32.4 29.6 C35.4 30.7 38.4 33.2 39.9 35.6 C42.6 39.9 42.1 45.1 40.5 47.3 C39.8 48.3 37.6 51.5 35.2 51.8 C32.2 52.2 28.5 50.1 24.2 50.1 C20.6 50.1 16.7 51.9 13.2 51.8 C9 51.6 5.6 48.9 4.9 47.3 z" id="b2" fill="#FEFEFE" /><path d="M14.9 29.3 C14.4 29.4 13.9 29.5 13.5 29.7 C10.6 30.9 8.7 33.6 7.6 35 C5.5 37.6 5.2 43.1 6.4 45.8 C7 47.3 10.2 49.8 14 49.9 C17.2 50 20.9 48.4 24.1 48.4 C28.1 48.4 31.5 50.3 34.3 49.9 C36.5 49.6 38.5 46.7 39.1 45.8 C40.5 43.7 41 39 38.5 35 C37.2 32.9 34.4 30.5 31.6 29.5 C31.3 29.4 30.9 29.3 30.6 29.2 C31.2 29.3 31.8 29.4 32.4 29.6 C35.4 30.7 38.4 33.2 39.9 35.6 C42.6 39.9 42.1 45.1 40.5 47.3 C39.8 48.3 37.6 51.5 35.2 51.8 C32.2 52.2 28.5 50.1 24.2 50.1 C20.6 50.1 16.7 51.9 13.2 51.8 C9 51.7 5.6 48.9 4.9 47.3 C3.6 44.4 4 38.4 6.2 35.6 C7.4 34.1 9.4 31.1 12.6 29.9 C13.3 29.6 14.1 29.4 14.9 29.3 z" opacity="0.15" id="c2" /><g opacity="0.4" transform="translate(6, 34)" id="d2"><circle cx="29.5" cy="11.5" r="1" opacity="0.4" id="e2" /><circle cx="24.5" cy="12.5" r="1" opacity="0.4" id="f2" /><circle cx="5.5" cy="11.5" r="1" opacity="0.4" id="g2" /><circle cx="10.5" cy="11.5" r="1" opacity="0.4" id="h2" /><circle cx="4.5" cy="4.5" r="1" opacity="0.4" id="i2" /><circle cx="32.5" cy="7.5" r="1" opacity="0.4" id="j2" /><circle cx="27.5" cy="8.5" r="1" opacity="0.4" id="k2" /><circle cx="6.5" cy="7.5" r="1" opacity="0.4" id="l2" /><circle cx="2.5" cy="8.5" r="1" opacity="0.4" id="m2" /><circle cx="30.5" cy="4.5" r="1" opacity="0.4" id="n2" /></g><path d="M16.9 41.4 C18.5 43.3 19.1 45.2 18.8 47.1 C18.5 49 17.2 50.4 15.1 51.4 C16.4 51.1 17.3 50.8 17.9 50.7 C19 50.4 19.9 50 20.8 49.9 C21.7 49.7 22.6 49.7 23.3 49.7 C24.2 49.7 25 49.8 26.1 50 C26.7 50.1 27.3 50.4 28.4 50.7 C28.9 50.8 29.8 51 31 51.3 C28.9 50.1 27.7 48.7 27.5 47.2 C27.3 45.7 27.9 43.8 29.4 41.4 C26.7 42.9 24.7 43.7 23.4 43.7 C22.1 43.7 19.8 42.9 16.9 41.4 z" opacity="0.15" id="o2" /></g><g transform="translate(108.5, 114.8) translate(40, 59)" id="p2"><g id="q2"><path d="M38.7 14.9 C37.7 11.9 34.2 9.9 31.4 9.4 C30.9 9.3 30.3 9.7 30.3 10.2 C30.3 10.3 30.3 10.5 30.3 10.6 C29.3 11.4 27 12 24.4 11.7 C22.9 11.6 21.6 11.1 21 10.5 L21 0.2 L18 0.2 L18 10.6 C17.3 11.1 16.2 11.5 14.7 11.6 C12.1 11.8 9.8 11.2 8.8 10.5 C8.8 10.4 8.8 10.2 8.8 10.1 C8.7 9.6 8.2 9.2 7.7 9.3 C4.9 9.7 1.4 11.8 0.4 14.8 C0.2 15.3 0.5 15.9 1 16.1 C1.1 16.1 1.2 16.2 1.3 16.2 C1.7 16.2 2.1 15.9 2.2 15.5 C2.8 13.7 5 12.2 7 11.6 C7.5 12.2 8.2 12.6 9.1 13 C12 16.5 13.4 21.9 19.5 21.9 L19.6 21.7 L19.6 21.9 C25.7 21.9 27.1 16.5 30 13 C30.9 12.7 31.6 12.2 32.1 11.6 C34.1 12.2 36.3 13.7 36.9 15.5 C37 15.9 37.4 16.2 37.8 16.2 C37.9 16.2 38 16.2 38.1 16.1 C38.6 16 38.9 15.4 38.7 14.9 z" id="r2" fill="#282421" /><path d="M24.2 13.8 C22.3 13.6 20.8 13.1 19.8 12.2 C19.7 12.2 19.5 12.2 19.4 12.2 C18.4 13 16.9 13.6 14.9 13.8 C14.7 13.8 14.4 13.8 14.1 13.8 C13.9 16.6 14.3 21.2 18.9 21.3 C24.1 21.4 24.5 18.5 24.7 13.8 C24.5 13.8 24.3 13.8 24.2 13.8 z" id="s2" fill="#D66969" /></g></g><g transform="translate(168, 176.9) scale(0.8) translate(-168, -176.9) translate(101.6, 110.9) translate(56, 60)" id="t2"><g id="u2"><path d="M0.9 8.2 C2.5 12.2 3.6 15.3 5.8 16 C8 16.7 12.1 16.7 13.8 15.9 C15.5 15.2 20.4 8.5 20.8 6.1 C21.1 3.7 19.1 2.6 17.2 1.5 C15.4 0.3 9.6 0.3 7.1 0.3 C4.6 0.3 -0.7 4.1 0.9 8.2 z" id="v2" fill="#353535" /><path d="M13.5 3.2 C13.5 5.7 14.3 8 15.3 7.8 C16 7.7 16.8 6.9 17.7 5.5 C14.9 2.3 13.5 1.6 13.5 3.2 z" id="w2" fill="#FFF3F3" /></g></g><g transform="translate(87.89998, 107.8) translate(54, 35)" id="x2"><g id="y2"><path d="M4.7 6.8 C3.5 9 0.2 13.2 0.9 15.7 C1.2 16.6 2.2 17.5 3.7 17.7 C4.3 17.8 6.2 18.4 6.4 18.4 C7.8 18.4 8.8 18.1 9.8 17.5 C10.9 16.9 11.5 15.2 12.2 14.4 C13.2 13.3 13.9 12.5 14.1 11.8 C14.8 10.1 15.3 8.9 15.3 5.6 C15.4 -0.7 6.3 3.9 4.7 6.8 z" id="z2" fill="#FEFEFE" /><path d="M3.9 7.4 C5.7 5 7 3.9 8.7 2.1 C10.4 0.3 12.5 0.1 13.9 1.7 C15.3 3.3 15.8 4.2 15.8 5.9 C15.8 7.6 16.2 9 13.9 11.3 C11.6 13.6 6.9 15.1 5.3 13.6 C3.7 12.1 2.1 9.8 3.9 7.4 z" id="a3" /><path d="M11.2 8.1 C12.5 8.1 13.6 7 13.6 5.7 C13.6 4.4 13 3.7 11.7 3.7 C10.4 3.7 9.1 5.5 9.1 6.9 C9.1 8.3 9.9 8.1 11.2 8.1 z" id="b3" fill="#FFF" /><path d="M8.9 10.3 C9.3 10.3 9.1 9.3 9.1 8.8 C9.1 8.3 8.9 8.1 8.5 8.1 C8 8.1 7.6 8.8 7.6 9.2 C7.6 9.7 8.5 10.3 8.9 10.3 z" id="c3" fill="#FFF" /></g></g><g transform="translate(83.89998, 107.8) translate(94, 35)" id="d3"><g id="e3"><path d="M12.1 6.4 C13.3 8.6 16.6 11.7 15.7 14.6 C15.3 15.9 12.2 17.7 11.4 17.8 C7.5 18.6 7.1 17.7 5.7 16.8 C4.4 16 2.8 13 2.2 11.5 C1.5 9.9 1 8.7 1 5.4 C1 -0.9 10.5 3.5 12.1 6.4 z" id="f3" fill="#FEFEFE" /><path d="M12.3 5.9 C10.4 3.7 8.9 2.8 7.3 1.2 C5.7 -0.4 3.6 0.1 2.2 1.7 C0.8 3.3 0.3 4.1 0.3 5.9 C0.3 7.7 -0.1 9 2.2 11.3 C4.5 13.6 9.2 15.1 10.8 13.6 C12.4 12.1 14.2 8.1 12.3 5.9 z" id="g3" /><path d="M6.3 8.1 C5 8.1 3.9 7 3.9 5.7 C3.9 4.4 4.5 3.7 5.8 3.7 C7.1 3.7 8.3 5.6 8.3 6.9 C8.3 8.2 7.6 8.1 6.3 8.1 z" id="h3" fill="#FFF" /><path d="M9.1 8.7 C9.1 8.3 8.9 8.1 8.5 8.1 C8.1 8.1 7.7 8.7 7.7 9.1 C7.7 9.4 8.6 9.7 9 9.6 C9.2 9.4 9.1 8.9 9.1 8.7 z" id="i3" fill="#FFF" /></g></g></g></g></g></g><defs><g transform="translate(17.09519, 0.800995) translate(-135.2952, -293.601)" id="j3" fill="#000"><path d="M118.2 302.7 C118.4 307.4 132.5 311.2 149.8 311.2 C167.1 311.2 181.2 307.4 181.4 302.7 C181.4 307.5 181.4 310.1 181.4 310.5 C181.4 315.3 167.3 319.1 149.8 319.1 C132.3 319.1 118.2 315.2 118.2 310.5 L118.2 302.7 L118.2 302.7 z" fill-opacity="0.4528" id="k3" fill="#593001" /><path d="M118.7 301.7 C118.9 306.4 133 310.2 150.3 310.2 C167.6 310.2 181.7 306.4 181.9 301.7 C181.9 306.5 181.9 309.1 181.9 309.5 C181.9 314.3 167.8 318.1 150.3 318.1 C132.8 318.1 118.7 314.2 118.7 309.5 L118.7 301.7 L118.7 301.7 z" id="l3" fill="#DA8113" /><linearGradient x1="46.0545" y1="-118.6926" x2="45.4656" y2="-118.6926" gradientUnits="userSpaceOnUse" gradientTransform="matrix(117.135, 0, 0, 28.4634, -5208.417, 3687.795)" id="m3"><stop offset="0%" stop-color="#D9952A" stop-opacity="1" /><stop offset="6.438854%" stop-color="#CA7519" stop-opacity="1" /><stop offset="30.54%" stop-color="#E3AD3A" stop-opacity="1" /><stop offset="51.05%" stop-color="#FFEC91" stop-opacity="1" /><stop offset="68.8%" stop-color="#E9BD44" stop-opacity="1" /><stop offset="86.24%" stop-color="#FFED6C" stop-opacity="1" /><stop offset="93.87%" stop-color="#F2D353" stop-opacity="1" /><stop offset="100%" stop-color="#F2B947" stop-opacity="1" /></linearGradient><path d="M118.2 301.6 C118.4 306.1 132.7 309.7 150.3 309.7 C167.9 309.7 182.2 306.1 182.4 301.6 C182.4 306.2 182.4 308.7 182.4 309 C182.4 313.5 168 317.2 150.3 317.2 C132.6 317.2 118.2 313.5 118.2 309 L118.2 301.6 L118.2 301.6 z" id="n3" style="fill:url(#m3)" /><linearGradient x1="45.4914" y1="-117.9547" x2="45.9407" y2="-117.5895" gradientUnits="userSpaceOnUse" gradientTransform="matrix(115.425, 0, 0, 29.925, -5125.077, 3826.124)" id="o3"><stop offset="0%" stop-color="#F4E072" stop-opacity="1" /><stop offset="100%" stop-color="#DB9427" stop-opacity="1" /></linearGradient><ellipse cx="150.3" cy="301.5" rx="31.6" ry="8.2" id="p3" style="fill:url(#o3)" /><linearGradient x1="45.4656" y1="-126.0065" x2="46.0545" y2="-126.0065" gradientUnits="userSpaceOnUse" gradientTransform="matrix(117.135, 0, 0, 18.6219, -5208.417, 2651.479)" id="q3"><stop offset="0%" stop-color="#D9952A" stop-opacity="1" /><stop offset="6.438854%" stop-color="#CA7519" stop-opacity="1" /><stop offset="30.54%" stop-color="#E3AD3A" stop-opacity="1" /><stop offset="51.05%" stop-color="#FFEC91" stop-opacity="1" /><stop offset="68.8%" stop-color="#E9BD44" stop-opacity="1" /><stop offset="86.24%" stop-color="#FFED6C" stop-opacity="1" /><stop offset="93.87%" stop-color="#F2D353" stop-opacity="1" /><stop offset="100%" stop-color="#F2B947" stop-opacity="1" /></linearGradient><path d="M119.2 299.9 C119 300.2 118.9 300.6 118.9 301 C118.9 305.5 132.9 309.2 150.3 309.2 C167.7 309.2 181.7 305.5 181.7 301 C181.7 300.6 181.6 300.3 181.4 299.9 C182 300.5 182.4 301.2 182.4 301.9 C182.4 306.4 168 310.1 150.3 310.1 C132.6 310.1 118.2 306.4 118.2 301.9 C118.2 301.3 118.6 300.6 119.2 299.9 z" id="r3" style="fill:url(#q3)" /><linearGradient x1="45.196" y1="-121.5895" x2="45.3746" y2="-120.6758" gradientUnits="userSpaceOnUse" gradientTransform="matrix(101.745, 0, 0, 23.94, -4458.332, 3199.41)" id="s3"><stop offset="0%" stop-color="#F8DD61" stop-opacity="1" /><stop offset="100%" stop-color="#EAA330" stop-opacity="1" /></linearGradient><ellipse cx="150.3" cy="300.8" rx="27.8" ry="6.6" id="t3" style="fill:url(#s3)" /><linearGradient x1="45.5694" y1="-134.267" x2="45.0221" y2="-134.267" gradientUnits="userSpaceOnUse" gradientTransform="matrix(101.745, 0, 0, 13.2525, -4458.332, 2077.223)" id="u3"><stop offset="0%" stop-color="#F4CA2F" stop-opacity="1" /><stop offset="51.38%" stop-color="#BF7737" stop-opacity="1" /><stop offset="100%" stop-color="#E4A929" stop-opacity="1" /></linearGradient><path d="M122.6 301.5 C122.5 301.3 122.4 301 122.4 300.8 C122.4 297.2 134.9 294.2 150.2 294.2 C165.5 294.2 178 297.1 178 300.8 C178 301 177.9 301.3 177.8 301.5 C176.3 298.2 164.5 295.6 150.1 295.6 C135.7 295.6 124.1 298.2 122.6 301.5 z" id="v3" style="fill:url(#u3)" /></g></defs><desc>FJEEJEEC2BJ,SviQsxHsFBVyrjZBrviOSBOqR04dtul4fQOFL4EWd1GZQw4jWKuvxZHwa/soWI1cVbN3i6Rz1FJ/MW5FnmVYxQ==</desc></svg>