<?xml version="1.0" encoding="utf-8"?><!DOCTYPE svg PUBLIC "-//W3C//DTD SVG 1.1//EN" "http://www.w3.org/Graphics/SVG/1.1/DTD/svg11.dtd"><svg x="0" y="0" width="340px" height="340px" viewBox="0, 0, 340, 340" preserveAspectRatio="xMidYMid" font-size="0" id="a" enable-background="new 0 0 340 340" xmlns="http://www.w3.org/2000/svg" xmlns:xlink="http://www.w3.org/1999/xlink" xmlns:xml="http://www.w3.org/XML/1998/namespace" version="1.1"><g id="b" fill="#000"><g id="c"><g transform="translate(0, 0) translate(0, 224)" id="d"><ellipse cx="168.6" cy="53.1" rx="57.8" ry="12.8" fill-opacity="0.25" id="e" /></g><g id="f"><g transform="translate(101.7, 93.19998) translate(28, 148) scale(-1, 1) translate(-28, -148) translate(0, 127)" id="g"><path d="M52.1 4.6 C47.4 19.1 42.1 27 36.2 28.3 C27.3 30.2 18 29.7 13.9 24.6 C11.2 14.5 14 14.7 15.4 11.9 C16.8 9.1 16.1 4.5 9.2 4.5 C4.6 4.5 1.4 7.4 -0.2 13.3 C-1 16.7 -1.4 19.7 -1.2 22.3 C-1 26.2 0.8 36.4 8.6 40.9 C16.4 45.4 28.6 48.2 43.3 38.5 C53.1 32 56 20.7 52.1 4.6 z" id="h" fill="#EFE9E6" /><path d="M52.1 4.6 C56 20.7 53.1 32 43.3 38.5 C28.6 48.2 16.4 45.4 8.6 40.9 C0.8 36.4 -1 26.2 -1.2 22.3 C-1.4 19.7 -1 16.7 -0.2 13.3 C1.4 7.4 4.6 4.5 9.2 4.5 C16.1 4.5 16.8 9.1 15.4 11.9 C14 14.7 11.2 14.5 13.9 24.6 C18 29.7 27.3 30.2 36.2 28.3 C42.1 27 47.4 19.1 52.1 4.6 z M51.6 9.5 C47.1 21.3 41 28.4 35.3 29.4 C26.7 30.9 18.3 30.2 14.4 26.1 C10.5 22 11.2 17.1 12.6 14.8 C14 12.5 15.5 6.3 8.8 6.3 C4.4 6.3 2.5 8.3 1 13.1 C0.2 15.9 0.3 21.1 0.5 23.2 C0.7 26.4 1.8 35.6 9.3 39.2 C16.8 42.9 25.1 46.4 39.2 38.5 C48.6 33.1 55.4 22.6 51.6 9.5 z" opacity="0.15" id="i" /></g><g transform="translate(128.1333, 273.9) scale(0.6357504) translate(-125.7, -273.9) translate(-283.8, 62.69998) translate(20, 150)" id="j"><path d="M418 16.4 C418 16.4 415.5 9 413.5 8.1 C411.5 7.2 409.1 5.1 402.7 6.1 C396.3 7.1 391.2 9.7 388.3 13.1 C385.4 16.4 382.6 26.3 385.4 31.7 C387.3 35.3 390.5 40 395.1 45.6 C389.5 45.6 386.3 46.1 385.4 47 C384.1 48.4 382.7 53.9 384.1 57 C385.4 60 387.5 64.2 393.6 63.9 C399.7 63.7 414.1 60.2 416.6 59.1 C419.1 58 417.8 40.7 417.8 39.4 C417.7 13 418 16.4 418 16.4 z" id="k" fill="#CAC3C0" /><path d="M418 16.4 C418 16.4 417.7 12.9 417.8 39.4 C417.8 40.7 419.1 58 416.6 59.1 C414.1 60.2 399.7 63.7 393.6 63.9 C387.5 64.2 385.4 60 384.1 57 C382.7 53.9 384.1 48.4 385.4 47 C386.3 46.1 389.5 45.6 395.1 45.6 C390.5 40 387.3 35.3 385.4 31.7 C382.6 26.3 385.4 16.4 388.3 13.1 C391.2 9.7 396.3 7.1 402.7 6.1 C409.1 5.1 411.5 7.2 413.5 8.1 C415.5 9.1 418 16.4 418 16.4 z M416.7 16.6 C416.7 16.6 414.4 9.8 412.5 8.9 C410.6 8 408.4 6.1 402.5 7.1 C396.6 8.1 391.9 10.4 389.3 13.6 C386.6 16.6 384 25.8 386.6 30.8 C388.4 34.1 393.9 41.7 398.2 46.8 C393 46.8 387.9 47.2 387.1 48 C385.9 49.3 384.1 51.2 385.4 54.1 C386.6 56.9 388.5 60.7 394.2 60.5 C399.8 60.3 413.1 57.1 415.4 56.1 C417.7 55.1 416.5 39.1 416.5 37.9 C416.4 13.5 416.7 16.6 416.7 16.6 z" opacity="0.15" id="l" /></g><g transform="translate(212.2667, 273.9) scale(0.6357504) translate(-214.7, -273.9) translate(-286.2, 62.69998) translate(106.5, 179.5) scale(-1, 1) translate(-106.5, -179.5) translate(89, 150)" id="m"><path d="M-348.6 16.4 C-348.6 16.4 -351.1 9 -353.1 8.1 C-355.1 7.2 -357.5 5.1 -363.9 6.1 C-370.3 7.1 -375.4 9.7 -378.3 13.1 C-381.2 16.4 -384 26.3 -381.2 31.7 C-379.3 35.3 -376.1 40 -371.5 45.6 C-377.1 45.6 -380.3 46.1 -381.2 47 C-382.5 48.4 -383.9 53.9 -382.5 57 C-381.2 60 -379.1 64.2 -373 63.9 C-366.9 63.7 -352.5 60.2 -350 59.1 C-347.5 58 -348.8 40.6 -348.8 39.3 C-348.8 13 -348.6 16.4 -348.6 16.4 z" id="n" fill="#CAC3C0" /><path d="M-348.6 16.4 C-348.6 16.4 -348.8 12.9 -348.8 39.3 C-348.8 40.6 -347.5 58 -350 59.1 C-352.5 60.2 -366.9 63.7 -373 63.9 C-379.1 64.2 -381.2 60 -382.5 57 C-383.9 53.9 -382.5 48.4 -381.2 47 C-380.3 46.1 -377.1 45.6 -371.5 45.6 C-376.1 40 -379.3 35.3 -381.2 31.7 C-384 26.3 -381.2 16.4 -378.3 13.1 C-375.4 9.7 -370.3 7.1 -363.9 6.1 C-357.5 5.1 -355.1 7.2 -353.1 8.1 C-351.1 9.1 -348.6 16.4 -348.6 16.4 z M-350 16.5 C-350 16.5 -352.3 9.7 -354.1 8.9 C-355.9 8.1 -358.1 6.1 -364 7.1 C-369.9 8.1 -374.6 10.3 -377.3 13.5 C-380 16.5 -382.5 25.6 -380 30.6 C-378.2 33.9 -373.6 41.1 -369.3 46.3 C-374.4 46.3 -379 47.1 -379.8 48 C-381 49.3 -382.4 51 -381.1 53.9 C-379.9 56.7 -378 60.5 -372.4 60.2 C-366.8 60 -353.5 56.8 -351.2 55.8 C-348.9 54.8 -350.1 38.8 -350.1 37.6 C-350.2 13.4 -350 16.5 -350 16.5 z" opacity="0.15" id="o" /></g><g transform="translate(105.2, 117.8) translate(21, 73)" id="p"><path d="M10.5 29 C2.2 36.2 3.6 47.2 4 51.8 C4.7 60 6.7 69.2 8.3 74.5 C9.9 79.9 11.9 86.2 19.8 86.7 C27.8 87.2 59 87.2 66.6 86.1 C74.2 84.9 75 84 77.5 78 C81 69.8 88.1 42.5 80.2 33.2 C78.3 31 77 29.6 75.1 28.2 C70.8 25.2 65.8 23.2 62.9 20.8 C60.2 18.6 55.6 14.7 54.8 14 C53 12.4 49.5 11.4 43.9 11.5 C40.1 11.6 36.6 13.5 35.1 14.5 C33.6 15.5 32.2 17.8 26.6 20.7 C21.7 23.6 14.9 25.5 10.5 29 z" id="q" fill="#CAC3C0" /><path d="M68.1 85.4 C56.4 86.5 47.8 87 42.1 87 C35.6 87 22 86.9 15.8 85.4 C13.5 84.8 12.8 82.9 12.9 82.3 C13.1 80.9 14.4 79.5 16.9 78.3 L26.7 74.4 L26.7 74.6 C32.5 72.5 37.4 71.5 41.3 71.5 C47.1 71.5 54.2 70.8 55.5 71.4 L66.8 74.6 C70.6 76 71.7 77.7 72.3 78.3 C73.4 79.3 74 79.4 74 81.4 C74 83.4 73 83.7 71.8 84.5 C71 84.8 69.8 85.2 68.1 85.4 z" id="r" fill="#46494D" /><path d="M10.5 29 C14.9 25.5 21.7 23.6 26.6 20.7 C32.2 17.8 33.6 15.5 35.1 14.5 C36.6 13.5 40.1 11.6 43.9 11.5 C49.5 11.4 53 12.4 54.8 14 C55.6 14.7 60.2 18.6 62.9 20.8 C65.8 23.2 70.8 25.2 75.1 28.2 C77 29.6 78.3 31 80.2 33.2 C88.1 42.5 81 69.8 77.5 78 C75 84 74.2 84.9 66.6 86.1 C59 87.2 27.8 87.2 19.8 86.7 C11.9 86.2 9.9 79.9 8.3 74.5 C6.7 69.2 4.7 60 4 51.8 C3.6 47.2 2.2 36.2 10.5 29 z M12 28.9 C4.1 35.8 5.4 46.2 5.8 50.6 C6.5 58.4 8.4 67.2 9.9 72.2 C11.4 77.3 13.3 83.4 20.9 83.8 C28.5 84.3 58.3 84.3 65.5 83.2 C72.7 82.1 73.5 81.2 75.9 75.5 C79.2 67.7 86 41.7 78.5 32.8 C76.7 30.7 75.4 29.4 73.6 28 C69.5 25.1 64.7 23.2 62 20.9 C59.4 18.8 55 15.1 54.3 14.4 C52.6 12.9 49.2 11.9 43.9 12 C40.3 12.1 36.9 13.9 35.5 14.9 C34.1 15.9 32.7 18 27.4 20.8 C22.7 23.8 16.2 25.6 12 28.9 z" opacity="0.15" id="s" /><path d="M41 46.4 C51.1 48.7 74.9 44.4 76 27.8 C69.6 20.2 62.8 20.2 60.1 15 C57.5 9.8 57 7.3 55.6 2.9 C54.8 0.1 35.4 -1.1 31.8 1.3 C29.7 1.5 28.2 7.5 24.6 15 C22.1 20.9 20 18.3 11 28.6 C12 43.4 31.4 46 41 46.4 z" id="t" fill="#46494D" /></g><g transform="translate(128.8581, 217.81) scale(1.039184, 0.6191548) translate(-130.4, -207.6) translate(91, 114.7) translate(78.5, 145.5) scale(-1, 1) translate(-78.5, -145.5) translate(39, 92)" id="u"><path d="M68.1 2.7 C65.6 5.6 57.8 23.3 40.2 24.2 C21.5 24.9 13.3 5.5 10.6 0.9 C7 8.7 1.1 13.8 0.5 26.6 C-0.1 39.4 4.4 46.5 6.7 52.8 C8.4 57.4 10.7 64.5 12.6 73.4 C13.3 76.6 15 81.2 15 84.3 C15.3 96.3 17.5 91.7 13.2 94.2 C8.9 96.7 5.2 101.6 6.7 104.5 C8.2 107.4 29.2 104.1 30.2 102.9 C30.7 102.3 30.9 95.4 30.7 74 C30.6 70.2 29.5 64.3 29.2 57 C29.1 53.6 30 50.6 29.7 46.2 C33.7 48.7 35.2 49.7 38.2 49.6 C41 49.7 42.2 48 46.8 45.5 C46.8 49.8 47.8 53.2 47.9 56.9 C48 63.8 47.3 70.3 47.2 74 C46.9 94.5 47.2 102.3 48 103.5 C49.2 105.2 56.8 106.1 70.8 106 C72.5 103.2 72.5 100.8 70.8 98.8 C69.1 96.8 66.2 94.7 62.2 92.4 C63.3 83.7 63.9 81.2 65.2 75.5 C66.2 71 67.7 62.7 68.7 60.2 C72.3 51.4 78.4 40.6 78.5 28.7 C78.6 16.8 72.4 8 68.1 2.7 z" id="v" fill="#FEFEFE" /><path d="M68.1 2.7 C72.4 8 78.5 16.8 78.4 28.7 C78.3 40.6 72.2 51.4 68.6 60.2 C67.6 62.8 66 71 65.1 75.5 C63.9 81.2 63.2 83.7 62.1 92.4 C66.1 94.7 69 96.8 70.7 98.8 C72.4 100.8 72.4 103.2 70.7 106 C56.7 106.1 49.1 105.2 47.9 103.5 C47.1 102.3 46.8 94.5 47.1 74 C47.2 70.3 47.9 63.8 47.8 56.9 C47.7 53.1 46.7 49.8 46.7 45.5 C42.1 48 40.9 49.7 38.1 49.6 C35.1 49.7 33.6 48.7 29.6 46.2 C30 50.6 29 53.6 29.2 57 C29.5 64.3 30.6 70.2 30.7 74 C30.9 95.4 30.7 102.3 30.2 102.9 C29.2 104.1 8.2 107.4 6.7 104.5 C5.2 101.6 8.9 96.7 13.2 94.2 C17.5 91.7 15.3 96.3 15 84.3 C14.9 81.1 13.2 76.6 12.6 73.4 C10.7 64.5 8.4 57.5 6.7 52.8 C4.4 46.5 -0.1 39.4 0.5 26.6 C1.1 13.8 7 8.7 10.6 0.9 C13.3 5.5 21.5 24.9 40.2 24.2 C57.8 23.3 65.6 5.6 68.1 2.7 z M68.1 3.9 C66.9 6.2 63.6 12.3 57.5 17.9 C52.5 22.5 44.3 27.3 38.5 27.3 C34.8 27.5 26 22.6 22.4 19.5 C17.8 15.6 11.8 5.2 10.6 1.4 C7.1 8.9 2.7 15.8 2.1 28 C1.5 40.2 5.9 45.5 8.1 51.5 C9.7 55.9 12.8 63.9 14.6 72.4 C15.2 75.4 16.9 80.5 17 83.5 C17.3 94.9 18.7 92.8 14.6 95.2 C10.5 97.6 7.6 99.2 9 101.9 C10.4 104.6 27 101.6 28 100.4 C28.5 99.8 28.8 95.8 28.6 75.4 C28.5 71.7 27.6 64.9 27.3 57.9 C27.2 54.7 26.9 46.1 26.6 41.9 C30.4 44.3 35 48 37.9 47.9 C40.6 48 45.9 43.8 50.3 41.4 C50.3 45.5 50.1 52.2 50.1 55.8 C50.2 62.3 49.2 68.8 49.2 72.3 C48.9 91.8 49.3 99.6 50 100.8 C51.1 102.4 55.2 104 68.5 103.9 C70.1 101.2 70.8 100.5 69.2 98.6 C67.6 96.7 64.2 95 60.4 92.8 C61.5 84.5 62.1 79.7 63.3 74.3 C64.2 70 65.8 62 66.8 59.5 C70.2 51.1 76.5 41.1 76.6 29.8 C76.6 18.6 72.2 8.9 68.1 3.9 z" opacity="0.15" id="w" /></g></g><g id="x"><g transform="translate(-286.1, 94.09997) translate(26, 0)" id="y"><g transform="translate(0.775704, 0)" id="z"><path d="M383.5 49.2 C383.4 40.7 383.4 33.7 385.1 25.4 C386.8 17.1 393.9 9 395.1 7.3 C396.3 5.6 399 5.5 400 7.3 C400.5 8.3 401.7 10.6 403.4 14.4 C404.8 17.5 406.2 22 406.9 23.5 C410.4 31.4 413.3 35.7 414.2 40 C414.1 46.4 409 50.5 399.9 60.6 C398.3 62.5 395.1 63.8 391.5 63.2 C387.9 62.6 383.6 57.7 383.5 49.2 z" id="a1" fill="#46494D" /><path d="M383.5 49.2 C383.4 40.7 383.4 33.7 385.1 25.4 C386.8 17.1 393.9 9 395.1 7.3 C396.3 5.6 399 5.5 400 7.3 C400.5 8.3 401.7 10.6 403.4 14.4 C404.8 17.5 406.2 22 406.9 23.5 C410.4 31.4 413.3 35.7 414.2 40 C414.1 46.4 409 50.5 399.9 60.6 C398.3 62.5 395.1 63.8 391.5 63.2 C387.9 62.6 383.6 57.7 383.5 49.2 z M385.6 46.7 C385.7 54.4 389.3 58.9 392.4 59.4 C395.4 59.9 398.1 58.8 399.5 57 C407.2 47.8 411.5 44.1 411.6 38.3 C410.8 34.4 408.4 30.5 405.4 23.3 C404.8 21.9 403.6 17.9 402.4 15 C401 11.5 400 9.5 399.5 8.6 C398.7 7 396.4 7.1 395.4 8.6 C394.4 10.1 388.4 17.6 386.9 25.1 C385.4 32.6 385.5 39 385.6 46.7 z" opacity="0.15" id="b1" /><path d="M389.4 55.7 C386 50.7 386.8 36.3 388 27.6 C389.1 18.8 394.3 14.6 395.6 13.2 C396.8 12.4 397.6 13.8 399.3 18 C400.2 20.3 401.4 25 402.7 27.6 C406.5 34.8 409.5 38.3 409.3 41.9 C409.1 46.8 405.3 47.1 401.3 53.4 C398.6 57.6 392.8 60.7 389.4 55.7 z" id="c1" fill="#EFE9E6" /></g></g><g transform="translate(-285.8, 94.29997) translate(101, 29) scale(-1, 1) translate(-101, -29) translate(85, 0)" id="d1"><g transform="translate(0.224296, 0)" id="e1"><path d="M-383.2 49.2 C-383.3 40.7 -383.3 33.7 -381.6 25.4 C-379.9 17.1 -372.8 9 -371.6 7.3 C-370.4 5.6 -367.7 5.5 -366.7 7.3 C-366.2 8.3 -365 10.6 -363.3 14.4 C-361.9 17.5 -360.5 22 -359.8 23.5 C-356.3 31.4 -353.4 35.7 -352.5 40 C-352.6 46.4 -357.7 50.5 -366.8 60.6 C-368.4 62.5 -371.6 63.8 -375.2 63.2 C-378.8 62.6 -383.1 57.7 -383.2 49.2 z" id="f1" fill="#46494D" /><path d="M-383.2 49.2 C-383.3 40.7 -383.3 33.7 -381.6 25.4 C-379.9 17.1 -372.8 9 -371.6 7.3 C-370.4 5.6 -367.7 5.5 -366.7 7.3 C-366.2 8.3 -365 10.6 -363.3 14.4 C-361.9 17.5 -360.5 22 -359.8 23.5 C-356.3 31.4 -353.4 35.7 -352.5 40 C-352.6 46.4 -357.7 50.5 -366.8 60.6 C-368.4 62.5 -371.6 63.8 -375.2 63.2 C-378.8 62.6 -383.1 57.7 -383.2 49.2 z M-381.9 47 C-381.8 54.8 -378 59.2 -374.8 59.8 C-371.6 60.4 -368.8 59.2 -367.3 57.4 C-359.2 48.2 -354.7 44.4 -354.6 38.6 C-355.4 34.7 -358 30.7 -361.1 23.5 C-361.7 22.1 -363 18 -364.2 15.2 C-365.7 11.7 -366.8 9.6 -367.2 8.7 C-368.1 7.1 -370.5 7.1 -371.6 8.7 C-372.7 10.3 -379 17.6 -380.5 25.2 C-382 32.8 -382 39.2 -381.9 47 z" opacity="0.15" id="g1" /><path d="M-377.3 55.7 C-380.7 50.7 -379.9 36.3 -378.7 27.6 C-377.6 18.8 -372.4 14.6 -371.1 13.2 C-369.9 12.4 -369.1 13.8 -367.4 18 C-366.5 20.3 -365.3 25 -364 27.6 C-360.2 34.8 -357.2 38.3 -357.4 41.9 C-357.6 46.8 -361.4 47.1 -365.4 53.4 C-368.1 57.6 -373.9 60.7 -377.3 55.7 z" id="h1" fill="#EFE9E6" /></g></g><g transform="translate(-286, 93.79997) translate(18, 27)" id="i1"><g id="j1"><path d="M395.9 33 C395.5 43 395.1 49.9 394.5 53.9 C392.6 68.8 389.8 77.4 388.2 79.4 C386 82.2 384.5 84.4 383.6 85.8 L390.6 84.8 L388.2 91.5 L393 88 C405.9 96.6 414.5 102 419 104.2 C424.2 106.7 430 107.6 432.1 107.8 C436.9 108.3 440.6 108.3 443.1 107.8 C454.1 104.1 461.6 101.1 465.8 99 C470 96.8 474.9 92.8 480.4 87 L486.6 88 L485.3 83.4 C484 80.4 483.4 78.7 483.6 78.2 C483.7 77.7 486.1 77.7 490.8 78.2 L483.6 67.4 C481.3 59.8 480 54.4 479.7 51.2 C479.4 48 479.2 42.6 478.9 35 C478.1 31.4 476.5 29 474.3 27.9 C472 26.7 470.5 28.1 469.8 31.9 L474.3 80.3 L449.4 98.8 L431.4 98.8 C415.7 92.4 407.4 89.2 406.5 89.2 C405.6 89.2 403.5 85.1 400 76.9 L405 27.8 C402.5 26.5 400.8 26.2 399.7 26.8 C398.6 27.6 397.3 29.6 395.9 33 z" id="k1" fill="#46494D" /><path d="M425.8 7.7 L398.5 28.5 C399.7 37.8 399.7 47 398.5 56.1 C397.3 65.3 395.9 72.4 394.3 77.4 L392.5 80.6 L397.1 78.7 L394.4 82.3 L398.6 82.3 C407.9 91.9 413.9 97.4 416.6 98.8 C420.6 100.9 425.4 104.7 431.2 106 C437 107.3 444.5 107.4 457.8 98.8 C466.7 93.1 473.3 86.6 477.5 79.4 L481.9 82.3 L479.2 72.9 L483.8 75.9 L479.2 68.3 C478 60.9 477.4 55.9 477.2 53.3 C476.6 42.9 476.2 38.6 476.2 36.4 C476.2 33.5 467.9 23.9 451.2 7.9 L425.8 7.9 L425.8 7.7 z" id="l1" fill="#EFE9E6" /><path d="M477 36.3 C477 30.4 478.2 31.3 473.5 26.1 C466.5 18.5 452.3 8.8 451.1 7.7 C449 5.8 427.2 6.4 425.6 7.1 C423.9 7.9 398.9 25.7 397.9 28.7 C396.9 31.7 399.5 43.2 398.9 50.5 C400.9 50.9 403 51.1 404.9 49.8 C406.8 48.5 409 44.9 411 45.8 C413.9 47.1 413.8 66.8 422.1 68.1 C425.2 68.6 432.7 56.3 437.5 56.2 C441 56 448.4 68.7 451 68 C461 65.2 465.3 45.6 468.4 48.3 C471.9 51.3 473.4 52 476.5 48.3 C477 47.8 477 42.1 477 36.3 z" id="m1" fill="#46494D" /><path d="M405.7 49.1 C405.8 50.4 416.2 71.4 418.3 80.1 C420.4 88.8 420 101.4 436.2 100.8 C452.4 100.2 453 99.1 456.8 80.1 C460.6 61.1 468.6 50.2 468.5 48.7 C468.4 47.2 467 46.4 463.2 42.7 C459.5 39.1 456.4 31.4 450.2 31.3 C445.7 31 436.5 40.9 447.9 54.4 C448.6 55.1 454 65.1 452.2 65.9 C450.4 65.9 448.9 63.2 446.5 60.8 C445.3 59.6 442.6 58.1 441.6 56.7 C438.4 52.1 439.4 26.8 438 26.8 C436.5 26.7 435.1 52.6 433.7 56.7 C433 58.9 431.1 59.2 429.4 60.8 C426.8 63.2 424.2 66.2 423 65.9 C421.5 65.7 423.9 57.6 426.6 55.7 C434.5 48.9 431.5 31.4 426.6 31.4 C421 29.9 417.4 36.5 414.1 40.2 C410.7 43.9 405.5 47.8 405.7 49.1 z" id="n1" fill="#EFE9E6" /><path d="M397.6 29.4 C397.6 29.1 397.7 28.9 397.8 28.7 C398.8 25.7 423.8 7.9 425.5 7.1 C427.2 6.4 449 5.8 451 7.7 C452.2 8.8 466.4 18.5 473.4 26.1 C475.2 28.1 476.1 29.2 476.6 30.1 C477.6 31.4 478.3 33.1 478.8 35.2 C479.1 42.8 479.3 48.2 479.6 51.4 C479.9 54.6 481.2 60 483.5 67.6 L490.7 78.4 C486 77.9 483.6 77.9 483.5 78.4 C483.3 78.9 483.9 80.6 485.2 83.6 L486.5 88.2 L480.3 87.2 C474.8 93 469.9 97 465.7 99.2 C461.5 101.3 454 104.3 443 108 C440.5 108.5 436.8 108.5 432 108 C429.9 107.8 424.1 106.9 418.9 104.4 C414.3 102.2 405.7 96.8 392.9 88.2 L388.1 91.5 L390.5 84.8 L383.5 85.8 C384.4 84.4 385.9 82.2 388.1 79.4 C389.7 77.4 392.5 68.8 394.4 53.9 C395 49.9 395.4 43 395.8 33 C396.5 31.5 397.1 30.3 397.6 29.4 z M399.8 28.6 C399.7 28.8 399.7 29 399.7 29.3 C399.2 30.2 398.6 31.3 398 32.7 C397.6 42.2 397.2 48.7 396.7 52.5 C394.9 66.6 393.5 74.7 392 76.6 C389.9 79.3 387.7 82.4 386.9 83.7 L393 81.8 L390.7 88.2 L396.1 86.4 C408.3 94.6 415.7 98.4 420.1 100.4 C425 102.8 430.5 103.6 432.5 103.8 C437.1 104.3 440.6 104.3 442.9 103.8 C453.3 100.3 460.5 97.4 464.4 95.4 C468.4 93.3 473 89.5 478.3 84 L484.2 84.9 L483 80.5 C481.8 77.7 481.1 77 481.3 76.6 C481.4 76.1 482.5 75.5 486.9 76 L481.3 65.3 C479.1 58.1 477.9 53 477.6 49.9 C477.3 46.9 477.1 41.7 476.8 34.5 C476.4 32.5 475.6 30.9 474.7 29.7 C474.3 28.8 473.4 27.8 471.7 25.9 C465.1 18.9 451.6 9.7 450.5 8.6 C448.5 6.8 427.8 7.4 426.2 8 C424.6 8.8 400.8 25.7 399.8 28.6 z" opacity="0.15" id="o1" /></g></g><g transform="translate(169.7, 181.8999) scale(1.15) translate(-169.7, -186.8999)" id="p1"><g transform="translate(96.70001, 116.8) translate(55, 59)" id="q1"><g transform="translate(0, 4)" id="r1"><g opacity="0.15" transform="translate(0, 1)" id="s1"><path d="M18.3 38.8 C14.7 42.1 10.7 42.8 6.5 40.8 C0.1 37.8 -0.1 31.7 0.7 27.2 C1.4 23.5 6.2 19.9 8.8 14.6 C10.9 10 11.4 8.6 12.8 4.7 C14.2 0.8 19.4 -1.6 22.8 4.1 C24.5 7 25.2 9.9 27.1 13.8 C28.8 17.5 33.6 21.5 34.5 23.9 C36.4 28.8 35.2 35.7 32.7 38.7 C31.8 39.8 29 41.6 26 41.6 C23.2 41.7 20.6 40.7 18.3 38.8 z" stroke="#000000" stroke-width="2" opacity="0.15" id="t1" /></g><path d="M18.3 38.8 C14.7 42.1 10.7 42.8 6.5 40.8 C0.1 37.8 0.8 31.9 1.6 27.4 C2 24.9 5.7 19.8 8.3 14.5 C10.4 9.9 11.6 5 12.4 3.7 C14.3 0.8 20.1 -2 23.5 3.7 C25.2 6.6 26.2 10.4 28.1 14.3 C29.8 18 32.9 21.4 33.8 23.8 C35.7 28.7 35.2 35.7 32.7 38.7 C31.8 39.8 29 41.6 26 41.6 C23.2 41.7 20.6 40.7 18.3 38.8 z" id="u1" fill="#FFF" /></g></g><g transform="translate(169.7, 215.3999) scale(0.7) translate(-169.7, -215.3999) translate(104.1, 116.7999) translate(51, 88)" id="v1"><g id="w1"><path d="M13 1.7 C13.1 7.2 12.5 10.3 11.3 11.3 C10.1 12.3 6.8 14.1 1.6 16.8 C0.6 17.5 0.4 18.3 1 19 C1.5 19.6 2.5 19.6 3.9 19 L14.4 13.3 C19.8 16.9 23 18.7 24.2 18.7 C24.8 18.7 26.2 18.7 26.4 18.3 C29.1 17.2 17.7 12.7 17.3 11.3 C17 10.3 16.5 7.1 15.7 1.8 C15.3 1.2 14.8 0.8 14.2 0.6 C13.7 0.5 13.3 0.8 13 1.7 z" id="x1" fill="#353535" /></g></g><g transform="translate(108.6, 138.4) translate(52, 61)" id="y1"><g id="z1"><path d="M9.1 0 C-3.4 0 0.1 11.7 9.1 14.7 C18.1 11.8 21.6 0 9.1 0 z" id="a2" fill="#282421" /><path d="M10.1 0.9 C7.2 1 4.1 1.6 4.1 2.7 C4.1 3.7 11.7 4.8 14.2 2.8 C15.3 2 12.5 0.8 10.1 0.9 z" id="b2" fill="#FEFEFE" /></g></g><g transform="translate(157.2, 169.7) scale(0.7) translate(-154.2, -177.7) translate(105.3, 129.8999) translate(32, 17)" id="c2"><g id="d2"><path d="M16 8.1 C16.9 10.9 17.1 10.4 19.3 10.1 C20.1 10 21.3 8.5 22.6 7.4 C23.3 6.8 24.5 6 26.2 4.8 C26.2 2.2 25.8 0.9 25 1 C20.3 1.6 15.5 6.6 16 8.1 z" id="e2" fill="#353535" /><g transform="translate(0, 14)" id="f2"><path d="M5.2 12.9 C2.3 21.5 0.7 32.8 0.7 35.5 C0.7 38.2 1.9 39.3 3.6 39.7 C5.3 40.1 9.7 38.3 15.4 35.5 C21.1 32.7 25.5 30.9 26.9 26.4 C28.3 21.8 26.9 7.2 26.9 5.4 C26.9 3.5 23.5 0.5 20 0.6 C16.5 0.6 8.1 4.3 5.2 12.9 z" id="g2" fill="#D1CDCB" /><path d="M17.2 31.3 C25.2 27.8 23.7 25.9 23.7 19.4 C23.7 12.9 23.6 6 20 6 C16.4 6 10.8 12.8 10.8 19.4 C10.7 26 9.1 34.8 17.2 31.3 z" id="h2" fill="#353535" /><path d="M18.3 12.7 C19 15.5 18.7 20.5 17 21.7 C16.6 22 15.4 22.5 15.1 21.7 C14.2 19.7 14.6 14.6 15.1 12.7 C15.2 12.3 15.8 11.7 16.5 11.6 C17.5 11.4 18.1 11.5 18.3 12.7 z" id="i2" fill="#FFF" /><ellipse cx="15.7" cy="24.9" rx="1" ry="1.5" id="j2" fill="#FFF" /></g></g></g><g transform="translate(182.4, 169.7) scale(0.7) translate(-185.4, -177.7) translate(99.30001, 129.5) translate(74, 17)" id="k2"><path d="M12.1 8.1 C11.2 10.9 11 10.4 8.8 10.1 C8 10 6.8 8.5 5.5 7.4 C4.8 6.8 3.6 6 1.9 4.8 C1.9 2.2 2.3 0.9 3.1 1 C7.7 1.6 12.6 6.6 12.1 8.1 z" id="l2" fill="#353535" /><path d="M22.8 26.9 C25.7 35.5 27.3 46.8 27.3 49.5 C27.3 52.2 26.1 53.3 24.4 53.7 C22.7 54.1 18.3 52.3 12.6 49.5 C6.8 46.7 2.5 44.9 1.1 40.4 C-0.3 35.8 1.1 21.2 1.1 19.4 C1.1 17.6 4.5 14.6 8 14.7 C11.6 14.6 19.9 18.3 22.8 26.9 z" id="m2" fill="#D1CDCB" /><path d="M10.9 45.3 C2.9 41.8 4.4 39.9 4.4 33.4 C4.4 26.9 4.5 20 8.1 20 C11.7 20 17.3 26.8 17.3 33.4 C17.3 40 18.9 48.8 10.9 45.3 z" id="n2" fill="#353535" /><path d="M7.7 25.7 C7 28.5 6.8 33.5 7.4 34.9 C7.7 35.7 9.8 36.3 10.1 35.5 C11 33.5 11.3 28.5 10.7 26.6 C10.6 26.2 10.1 24.7 9.4 24.6 C8.5 24.4 7.9 24.5 7.7 25.7 z" id="o2" fill="#FFF" /><ellipse cx="8.4" cy="38.9" rx="1" ry="1.5" id="p2" fill="#FFF" /></g></g></g></g></g><defs><g transform="translate(17.09519, 0.800995) translate(-135.2952, -293.601)" id="q2" fill="#000"><path d="M118.2 302.7 C118.4 307.4 132.5 311.2 149.8 311.2 C167.1 311.2 181.2 307.4 181.4 302.7 C181.4 307.5 181.4 310.1 181.4 310.5 C181.4 315.3 167.3 319.1 149.8 319.1 C132.3 319.1 118.2 315.2 118.2 310.5 L118.2 302.7 L118.2 302.7 z" fill-opacity="0.4528" id="r2" fill="#593001" /><path d="M118.7 301.7 C118.9 306.4 133 310.2 150.3 310.2 C167.6 310.2 181.7 306.4 181.9 301.7 C181.9 306.5 181.9 309.1 181.9 309.5 C181.9 314.3 167.8 318.1 150.3 318.1 C132.8 318.1 118.7 314.2 118.7 309.5 L118.7 301.7 L118.7 301.7 z" id="s2" fill="#DA8113" /><linearGradient x1="46.0545" y1="-118.6926" x2="45.4656" y2="-118.6926" gradientUnits="userSpaceOnUse" gradientTransform="matrix(117.135, 0, 0, 28.4634, -5208.417, 3687.795)" id="t2"><stop offset="0%" stop-color="#D9952A" stop-opacity="1" /><stop offset="6.438854%" stop-color="#CA7519" stop-opacity="1" /><stop offset="30.54%" stop-color="#E3AD3A" stop-opacity="1" /><stop offset="51.05%" stop-color="#FFEC91" stop-opacity="1" /><stop offset="68.8%" stop-color="#E9BD44" stop-opacity="1" /><stop offset="86.24%" stop-color="#FFED6C" stop-opacity="1" /><stop offset="93.87%" stop-color="#F2D353" stop-opacity="1" /><stop offset="100%" stop-color="#F2B947" stop-opacity="1" /></linearGradient><path d="M118.2 301.6 C118.4 306.1 132.7 309.7 150.3 309.7 C167.9 309.7 182.2 306.1 182.4 301.6 C182.4 306.2 182.4 308.7 182.4 309 C182.4 313.5 168 317.2 150.3 317.2 C132.6 317.2 118.2 313.5 118.2 309 L118.2 301.6 L118.2 301.6 z" id="u2" style="fill:url(#t2)" /><linearGradient x1="45.4914" y1="-117.9547" x2="45.9407" y2="-117.5895" gradientUnits="userSpaceOnUse" gradientTransform="matrix(115.425, 0, 0, 29.925, -5125.077, 3826.124)" id="v2"><stop offset="0%" stop-color="#F4E072" stop-opacity="1" /><stop offset="100%" stop-color="#DB9427" stop-opacity="1" /></linearGradient><ellipse cx="150.3" cy="301.5" rx="31.6" ry="8.2" id="w2" style="fill:url(#v2)" /><linearGradient x1="45.4656" y1="-126.0065" x2="46.0545" y2="-126.0065" gradientUnits="userSpaceOnUse" gradientTransform="matrix(117.135, 0, 0, 18.6219, -5208.417, 2651.479)" id="x2"><stop offset="0%" stop-color="#D9952A" stop-opacity="1" /><stop offset="6.438854%" stop-color="#CA7519" stop-opacity="1" /><stop offset="30.54%" stop-color="#E3AD3A" stop-opacity="1" /><stop offset="51.05%" stop-color="#FFEC91" stop-opacity="1" /><stop offset="68.8%" stop-color="#E9BD44" stop-opacity="1" /><stop offset="86.24%" stop-color="#FFED6C" stop-opacity="1" /><stop offset="93.87%" stop-color="#F2D353" stop-opacity="1" /><stop offset="100%" stop-color="#F2B947" stop-opacity="1" /></linearGradient><path d="M119.2 299.9 C119 300.2 118.9 300.6 118.9 301 C118.9 305.5 132.9 309.2 150.3 309.2 C167.7 309.2 181.7 305.5 181.7 301 C181.7 300.6 181.6 300.3 181.4 299.9 C182 300.5 182.4 301.2 182.4 301.9 C182.4 306.4 168 310.1 150.3 310.1 C132.6 310.1 118.2 306.4 118.2 301.9 C118.2 301.3 118.6 300.6 119.2 299.9 z" id="y2" style="fill:url(#x2)" /><linearGradient x1="45.196" y1="-121.5895" x2="45.3746" y2="-120.6758" gradientUnits="userSpaceOnUse" gradientTransform="matrix(101.745, 0, 0, 23.94, -4458.332, 3199.41)" id="z2"><stop offset="0%" stop-color="#F8DD61" stop-opacity="1" /><stop offset="100%" stop-color="#EAA330" stop-opacity="1" /></linearGradient><ellipse cx="150.3" cy="300.8" rx="27.8" ry="6.6" id="a3" style="fill:url(#z2)" /><linearGradient x1="45.5694" y1="-134.267" x2="45.0221" y2="-134.267" gradientUnits="userSpaceOnUse" gradientTransform="matrix(101.745, 0, 0, 13.2525, -4458.332, 2077.223)" id="b3"><stop offset="0%" stop-color="#F4CA2F" stop-opacity="1" /><stop offset="51.38%" stop-color="#BF7737" stop-opacity="1" /><stop offset="100%" stop-color="#E4A929" stop-opacity="1" /></linearGradient><path d="M122.6 301.5 C122.5 301.3 122.4 301 122.4 300.8 C122.4 297.2 134.9 294.2 150.2 294.2 C165.5 294.2 178 297.1 178 300.8 C178 301 177.9 301.3 177.8 301.5 C176.3 298.2 164.5 295.6 150.1 295.6 C135.7 295.6 124.1 298.2 122.6 301.5 z" id="c3" style="fill:url(#b3)" /></g></defs><desc>2E4544I2A24,GsWtkb2q1vCTv1P+WCsnGb2CeMz+xFpbjgC4Ffs2obOAgiK/eKCQgkdQULmWwGtkkZTZO30pBEgJT8zW2pDJVQ==</desc></svg>