<?xml version="1.0" encoding="utf-8"?><!DOCTYPE svg PUBLIC "-//W3C//DTD SVG 1.1//EN" "http://www.w3.org/Graphics/SVG/1.1/DTD/svg11.dtd"><svg x="0" y="0" width="340px" height="340px" viewBox="0, 0, 340, 340" preserveAspectRatio="xMidYMid" font-size="0" id="a" enable-background="new 0 0 340 340" xmlns="http://www.w3.org/2000/svg" xmlns:xlink="http://www.w3.org/1999/xlink" xmlns:xml="http://www.w3.org/XML/1998/namespace" version="1.1"><g id="b" fill="#000"><g id="c"><g transform="translate(0, 0) translate(0, 224)" id="d"><ellipse cx="168.6" cy="53.1" rx="57.8" ry="12.8" fill-opacity="0.25" id="e" /></g><g id="f"><g transform="translate(105.1, 88.89998) translate(8, 107)" id="g"><path d="M17.9 35.7 C13.1 32.3 10.5 28 10 21.2 C9.9 20.1 0.7 17.8 0.4 21.9 C0.1 28 2.1 33.7 4.6 38.4 C7.9 44.5 15.6 50.4 23.9 50.4 L33.1 33.8 C29.3 37.3 22.1 38.7 17.9 35.7 z" id="h" fill="#EFE9E6" /><path d="M0.4 21.9 C2 23.7 7 22.6 10 21.2 C9.9 20.1 9.9 19 9.9 17.8 C10.1 6.6 20 4.3 17.6 0.8 C15.2 -2.7 5.9 7.2 4.7 9 C1.9 13.4 0.6 17.8 0.4 21.9 z" id="i" fill="#2C2F32" /><path d="M0.4 21.9 C0.6 17.8 1.9 13.4 4.7 9 C5.9 7.2 15.2 -2.7 17.6 0.8 C20 4.3 10.1 6.6 9.9 17.8 C9.9 19 9.9 20.1 10 21.2 C10.5 28 13.1 32.3 17.9 35.7 C22.1 38.7 29.3 37.3 33.1 33.8 L23.9 50.4 C15.6 50.4 7.9 44.5 4.6 38.4 C2.1 33.7 0.1 28 0.4 21.9 z M5.8 10.5 C3.3 14.5 2.1 18.5 1.9 22.2 C1.6 27.7 3.4 32.9 5.7 37.1 C8.7 42.6 15.7 48 23.2 48 L30.2 36.8 C26.8 40 20.8 39.5 17 36.8 C12.7 33.7 9.7 31.4 9.2 25.3 C9.1 24.3 8.6 19.6 8.6 18.6 C8.9 8.4 19.2 2.4 16.5 0.9 C14.9 -1.2 6.9 8.9 5.8 10.5 z" opacity="0.15" id="j" /></g><g transform="translate(128.4933, 273.9) scale(0.5799999) translate(-125.7, -273.9) translate(101, 78.39998) translate(17, 136)" id="k"><path d="M4.3 33.6 C3.8 31 3.1 28.2 2.7 25.4 C2.3 26 1.9 26.7 1.5 27.5 C0.3 22.8 0.4 11.7 4 6.1 C4 6.1 4 6.1 4 6 C4 5.9 4.1 5.9 4.1 5.8 C4.1 5.8 4.1 5.7 4.2 5.7 C4.5 5.2 4.8 4.8 5.2 4.3 C10.6 -1.3 22.8 -0.7 30 5.8 C42.2 16.8 34 33.7 31.1 40.5 C28.6 46.5 9.7 46.3 9.1 44.4 C8 40.8 6.8 36.8 5.7 32.8 C5.2 33.1 4.8 33.4 4.3 33.6 z" id="l" fill="#CAC3C0" /><path d="M10.6 49.9 C10.1 47.8 9.4 45.5 8.7 43.1 C10.5 41.2 12.7 40.4 15.2 40.1 C16.9 39.9 18.7 40.1 20.4 40 C22.6 39.8 24.8 37.8 26.5 36.7 C28.1 35.7 31.4 33.6 33.1 35.5 C32.3 37.5 31.6 39.2 31 40.6 C28.5 46.6 31.6 54.8 27 59.4 C22.8 63.7 6.5 62.5 2 60.7 C1.9 55.1 6.2 55.3 10.6 49.9 z" id="m" fill="#AAA5A3" /><path d="M30.8 41 C28.6 47 31.5 54.9 27 59.4 C22.8 63.7 6.5 62.5 2 60.7 C1.9 55.1 6.2 55.3 10.6 49.9 C10.1 47.8 9.4 45.5 8.7 43.1 L8.7 43.1 C7.7 39.8 6.7 36.3 5.7 32.8 C5.2 33.1 4.8 33.4 4.3 33.6 C3.8 31 3.1 28.2 2.7 25.4 C2.3 26 1.9 26.7 1.5 27.5 C0.3 22.8 0.4 11.7 4 6.1 L4 6 C4 5.9 4.1 5.9 4.1 5.8 C4.1 5.8 4.1 5.7 4.2 5.7 C4.5 5.2 4.8 4.8 5.2 4.3 C10.6 -1.3 22.8 -0.7 30 5.8 C42.2 16.8 34 33.7 31.1 40.5 C31 40.7 30.9 40.8 30.8 41 z M29.2 40.7 C29.8 39.6 30.2 39 30.2 38.9 C32.9 32.5 40.6 16.8 29.2 6.6 C22.5 0.5 11.2 0 6.1 5.2 C5.8 5.7 5.5 6 5.2 6.5 C5.1 6.5 5.1 6.6 5.1 6.6 C5.1 6.7 5 6.7 5 6.9 C1.7 12.1 0.8 20.2 1.9 24.6 C2.3 23.9 3.3 23.5 3.7 22.9 C4.1 25.5 5 29 5.4 31.4 C5.9 31.2 6.5 30 7 29.7 C7.9 33 8.5 38.3 9.4 41.3 L9.9 40.7 C10.6 42.9 12.1 48.3 12.6 50.3 C8.5 55.3 4.9 53.5 5 58.7 C9.2 60.4 22.5 60.4 26.4 56.4 C30.6 52.3 27.2 46.2 29.2 40.7 z" opacity="0.15" id="n" /></g><g transform="translate(211.9067, 273.9) scale(0.5799999) translate(-214.7, -273.9) translate(105.1, 78.39998) translate(98.5, 167.5) scale(-1, 1) translate(-98.5, -167.5) translate(80, 136)" id="o"><path d="M4.3 33.6 C3.8 31 3.1 28.2 2.7 25.4 C2.3 26 1.9 26.7 1.5 27.5 C0.3 22.8 0.4 11.7 4 6.1 C4 6.1 4 6.1 4 6 C4 5.9 4.1 5.9 4.1 5.8 C4.1 5.8 4.1 5.7 4.2 5.7 C4.5 5.2 4.8 4.8 5.2 4.3 C10.6 -1.3 22.8 -0.7 30 5.8 C42.2 16.8 34 33.7 31.1 40.5 C28.6 46.5 9.7 46.3 9.1 44.4 C8 40.8 6.8 36.8 5.7 32.8 C5.2 33.1 4.8 33.4 4.3 33.6 z" id="p" fill="#CAC3C0" /><path d="M10.6 49.9 C10.1 47.8 9.4 45.5 8.7 43.1 C10.5 41.2 12.7 40.4 15.2 40.1 C16.9 39.9 18.7 40.1 20.4 40 C22.6 39.8 24.8 37.8 26.5 36.7 C28.1 35.7 31.4 33.6 33.1 35.5 C32.3 37.5 31.6 39.2 31 40.6 C28.5 46.6 31.6 54.8 27 59.4 C22.8 63.7 6.5 62.5 2 60.7 C1.9 55.1 6.3 55.3 10.6 49.9 z" id="q" fill="#AAA5A3" /><path d="M30.8 41 C28.6 47 31.5 54.9 27 59.4 C22.8 63.7 6.5 62.5 2 60.7 C1.9 55.1 6.3 55.3 10.6 49.9 C10.1 47.8 9.4 45.5 8.7 43.1 L8.7 43.1 C7.7 39.8 6.7 36.3 5.7 32.8 C5.2 33.1 4.8 33.4 4.3 33.6 C3.8 31 3.1 28.2 2.7 25.4 C2.3 26 1.9 26.7 1.5 27.5 C0.3 22.8 0.4 11.7 4 6.1 L4 6 C4 5.9 4.1 5.9 4.1 5.8 C4.1 5.8 4.1 5.7 4.2 5.7 C4.5 5.2 4.8 4.8 5.2 4.3 C10.6 -1.3 22.8 -0.7 30 5.8 C42.2 16.8 34 33.7 31.1 40.5 C31 40.7 30.9 40.8 30.8 41 z M29.7 38.9 L28.4 41.3 C28.5 41.1 29.9 38.6 30 38.5 C32.6 32.3 40.1 16.8 29 6.7 C22.4 0.8 11.3 0.2 6.4 5.3 C6 5.8 5.8 6.2 5.5 6.6 C5.4 6.6 5.4 6.7 5.4 6.7 C5.4 6.8 5.3 6.8 5.3 7 C2 12.1 1 20.4 2.1 24.7 C2.5 24 3.6 23.6 4 23.1 C4.3 25.6 4.5 29 5 31.3 C5.4 31.2 6.6 30.2 7 29.9 C7.9 33.1 8.7 37.9 9.6 40.9 C10.2 43.1 12.1 47.7 12.6 49.7 C8.6 54.6 5.5 53.1 5.6 58.3 C9.7 59.9 21.5 60.7 25.4 56.8 C29.4 52.7 27.7 44.4 29.7 38.9 z" opacity="0.15" id="r" /></g><g transform="translate(105.2, 117.8) translate(21, 73)" id="s"><path d="M10.5 29 C2.2 36.2 3.6 47.2 4 51.8 C4.7 60 6.7 69.2 8.3 74.5 C9.9 79.9 11.9 86.2 19.8 86.7 C27.8 87.2 59 87.2 66.6 86.1 C74.2 84.9 75 84 77.5 78 C81 69.8 88.1 42.5 80.2 33.2 C78.3 31 77 29.6 75.1 28.2 C70.8 25.2 65.8 23.2 62.9 20.8 C60.2 18.6 55.6 14.7 54.8 14 C53 12.4 49.5 11.4 43.9 11.5 C40.1 11.6 36.6 13.5 35.1 14.5 C33.6 15.5 32.2 17.8 26.6 20.7 C21.7 23.6 14.9 25.5 10.5 29 z" id="t" fill="#CAC3C0" /><path d="M68.1 85.4 C56.4 86.5 47.8 87 42.1 87 C35.6 87 22 86.9 15.8 85.4 C13.5 84.8 12.8 82.9 12.9 82.3 C13.1 80.9 14.4 79.5 16.9 78.3 L26.7 74.4 L26.7 74.6 C32.5 72.5 37.4 71.5 41.3 71.5 C47.1 71.5 54.2 70.8 55.5 71.4 L66.8 74.6 C70.6 76 71.7 77.7 72.3 78.3 C73.4 79.3 74 79.4 74 81.4 C74 83.4 73 83.7 71.8 84.5 C71 84.8 69.8 85.2 68.1 85.4 z" id="u" fill="#46494D" /><path d="M10.5 29 C14.9 25.5 21.7 23.6 26.6 20.7 C32.2 17.8 33.6 15.5 35.1 14.5 C36.6 13.5 40.1 11.6 43.9 11.5 C49.5 11.4 53 12.4 54.8 14 C55.6 14.7 60.2 18.6 62.9 20.8 C65.8 23.2 70.8 25.2 75.1 28.2 C77 29.6 78.3 31 80.2 33.2 C88.1 42.5 81 69.8 77.5 78 C75 84 74.2 84.9 66.6 86.1 C59 87.2 27.8 87.2 19.8 86.7 C11.9 86.2 9.9 79.9 8.3 74.5 C6.7 69.2 4.7 60 4 51.8 C3.6 47.2 2.2 36.2 10.5 29 z M12 28.9 C4.1 35.8 5.4 46.2 5.8 50.6 C6.5 58.4 8.4 67.2 9.9 72.2 C11.4 77.3 13.3 83.4 20.9 83.8 C28.5 84.3 58.3 84.3 65.5 83.2 C72.7 82.1 73.5 81.2 75.9 75.5 C79.2 67.7 86 41.7 78.5 32.8 C76.7 30.7 75.4 29.4 73.6 28 C69.5 25.1 64.7 23.2 62 20.9 C59.4 18.8 55 15.1 54.3 14.4 C52.6 12.9 49.2 11.9 43.9 12 C40.3 12.1 36.9 13.9 35.5 14.9 C34.1 15.9 32.7 18 27.4 20.8 C22.7 23.8 16.2 25.6 12 28.9 z" opacity="0.15" id="v" /><path d="M41 46.4 C51.1 48.7 74.9 44.4 76 27.8 C69.6 20.2 62.8 20.2 60.1 15 C57.5 9.8 57 7.3 55.6 2.9 C54.8 0.1 35.4 -1.1 31.8 1.3 C29.7 1.5 28.2 7.5 24.6 15 C22.1 20.9 20 18.3 11 28.6 C12 43.4 31.4 46 41 46.4 z" id="w" fill="#46494D" /></g><g transform="translate(130.115, 227.23) scale(1.182734, 0.734026) translate(-136.2, -219.7) translate(103.5, 111.1) translate(66, 147) scale(-1, 1) translate(-66, -147) translate(32, 108)" id="x"><path d="M58 67.2 C54.9 66.3 50.1 67.4 47.5 69.2 C46.3 70.1 43.1 73.1 44.9 74.9 C46.8 76.8 51.7 77.5 53.9 77.5 C56.6 77.6 62 76.9 64 73.6 C65.4 71.5 61.9 68.4 58 67.2 z" id="y" fill="#C6A67D" /><path d="M9.2 67.2 C12.3 66.3 17.1 67.4 19.7 69.2 C20.9 70.1 24.1 73.1 22.3 74.9 C20.4 76.8 15.5 77.5 13.3 77.5 C10.6 77.6 5.2 76.9 3.2 73.6 C1.8 71.5 5.3 68.4 9.2 67.2 z" id="z" fill="#C6A67D" /><path d="M58 67.2 C54.9 66.3 50.1 67.4 47.5 69.2 C46.3 70.1 43.1 73.1 44.9 74.9 C46.8 76.8 51.7 77.5 53.9 77.5 C56.6 77.6 62 76.9 64 73.6 C65.4 71.5 61.9 68.4 58 67.2 z" opacity="0.15" id="a1" /><path d="M9.2 67.2 C12.3 66.3 17.1 67.4 19.7 69.2 C20.9 70.1 24.1 73.1 22.3 74.9 C20.4 76.8 15.5 77.5 13.3 77.5 C10.6 77.6 5.2 76.9 3.2 73.6 C1.8 71.5 5.3 68.4 9.2 67.2 z" opacity="0.15" id="b1" /><path d="M57.6 65.7 C54.8 64.9 50.5 65.9 48.2 67.5 C47.1 68.3 44.3 71 45.9 72.6 C47.6 74.3 52 74.9 54 74.9 C56.4 75 61.2 74.4 63 71.4 C64.2 69.6 61.1 66.8 57.6 65.7 z" opacity="0.15" id="c1" /><path d="M9.4 64.2 C12.3 63.3 16.9 64.4 19.3 66.2 C20.4 67.1 23.5 70.1 21.8 71.9 C20 73.8 15.4 74.5 13.3 74.5 C10.8 74.6 5.7 73.9 3.8 70.6 C2.4 68.5 5.7 65.4 9.4 64.2 z" opacity="0.15" id="d1" /><path d="M2.6 66.8 C2.1 65.9 1.5 64.7 1.2 64.1 C2.9 62.5 5.8 58.5 6.5 53.5 C8 41.8 9.8 28.1 12.5 23.9 C18 15.1 28.4 24.8 33.7 24.8 C39 24.8 49.4 15.2 54.9 23.9 C57.6 28.2 59.4 41.8 60.9 53.5 C61.6 59.1 64.5 62.5 66.2 64.1 C65.9 64.7 65.2 65.9 64.8 66.8 C65.6 68.3 66.4 69.8 67.3 71.6 C65.9 71.7 65 71.6 64.2 71.3 C63.8 70.6 63.2 69.9 62.3 69.3 C61.9 70.2 61.5 71.4 61 72.7 C59.4 70.5 57.3 69.6 56.1 67.7 C54.9 69.8 52.8 71.8 51.6 73.4 C50.5 73.3 49.3 73.2 48.2 73.2 C48.4 72.7 48.6 72.3 48.8 71.8 C47.4 72.2 45.6 74.5 41.3 73.6 C42.1 73.1 42.5 71.7 42.9 69.8 C41.9 70.5 40.9 71 39.8 71.3 C42.4 67.3 44.4 63.4 44.7 58.6 C45.2 49.9 45.2 46 34 45.7 C22.8 46 22.8 49.9 23.3 58.6 C23.6 63.4 25.6 67.3 28.2 71.3 C27.1 71 26 70.4 25.1 69.8 C25.5 71.7 25.9 73.1 26.7 73.6 C23.3 74.6 20.5 72.2 19.2 71.8 C19.4 72.3 19.6 72.7 19.8 73.2 C18.7 73.3 17.5 73.4 16.4 73.4 C15.2 71.7 13 69.8 11.9 67.7 C10.7 69.6 8.7 70.5 7 72.7 C6.5 71.3 6 70.2 5.7 69.3 C4.9 69.9 4.2 70.6 3.8 71.3 C3 71.6 2.1 71.7 0.7 71.6 C1 69.8 1.9 68.3 2.6 66.8 z" id="e1" fill="#FEFEFE" /><path d="M2.6 66.8 C2.1 65.9 1.5 64.7 1.2 64.1 C2.9 62.5 5.8 58.5 6.5 53.5 C8 41.8 9.8 28.1 12.5 23.9 C18 15.1 28.4 24.8 33.7 24.8 C39 24.8 49.4 15.2 54.9 23.9 C57.6 28.2 59.4 41.8 60.9 53.5 C61.6 59.1 64.5 62.5 66.2 64.1 C65.9 64.7 65.2 65.9 64.8 66.8 C65.6 68.3 66.4 69.8 67.3 71.6 C65.9 71.7 65 71.6 64.2 71.3 C63.8 70.6 63.2 69.9 62.3 69.3 C61.9 70.2 61.5 71.4 61 72.7 C59.4 70.5 57.3 69.6 56.1 67.7 C54.9 69.8 52.8 71.8 51.6 73.4 C50.5 73.3 49.3 73.2 48.2 73.2 C48.4 72.7 48.6 72.3 48.8 71.8 C47.4 72.2 45.6 74.5 41.3 73.6 C42.1 73.1 42.5 71.7 42.9 69.8 C41.9 70.5 40.9 71 39.8 71.3 C42.4 67.3 44.4 63.4 44.7 58.6 C45.2 49.9 45.2 46 34 45.7 C22.8 46 22.8 49.9 23.3 58.6 C23.6 63.4 25.6 67.3 28.2 71.3 C27.1 71 26 70.4 25.1 69.8 C25.5 71.7 25.9 73.1 26.7 73.6 C23.3 74.6 20.5 72.2 19.2 71.8 C19.4 72.3 19.6 72.7 19.8 73.2 C18.7 73.3 17.5 73.4 16.4 73.4 C15.2 71.7 13 69.8 11.9 67.7 C10.7 69.6 8.7 70.5 7 72.7 C6.5 71.3 6 70.2 5.7 69.3 C4.9 69.9 4.2 70.6 3.8 71.3 C3 71.6 2.1 71.7 0.7 71.6 C1 69.8 1.9 68.3 2.6 66.8 z M4.6 65.4 C4 66.8 3.4 67 3.2 68.7 C4.5 68.8 4.9 68 5.6 67.7 C6 67.1 6.5 67 7.2 66.4 C7.5 67.2 7 68.3 7.5 69.6 C9 67.6 10.6 66.8 11.7 65.1 C12.7 67 15.5 69.2 16.6 70.8 C17.6 70.8 18.2 70.9 19.2 70.8 C19 70.3 20.2 69.6 20 69.2 C21.2 69.6 21.3 73.6 24.4 72.6 C23.7 72.1 23.7 70 23.4 68.3 C24.2 68.8 24.6 68.7 25.6 69 C23.2 65.4 22.3 58.4 22 54.1 C21.5 46.2 24.8 44.7 35.1 44.4 C45.3 44.7 46.5 49.5 46.1 57.4 C45.8 61.8 44.5 65.4 42.1 69 C43.1 68.7 43.6 68.9 44.5 68.3 C44 70 44 71.7 43.2 72.2 C47.1 73 47.1 69.3 48.3 69 C48.1 69.5 49.5 70.4 49.3 70.8 C50.3 70.8 51 70.3 52 70.4 C53.1 68.9 54.2 66.5 55.3 64.6 C56.4 66.3 57.4 68 58.9 70 C59.4 68.8 59.7 67.7 60.1 66.9 C60.9 67.4 62 67.6 62.4 68.3 C63.1 68.6 63.4 69.1 64.7 69 C63.9 67.4 63.2 66 62.4 64.6 C62.8 63.8 63.3 63.7 63.6 63.2 C62.1 61.7 59.5 57.6 58.9 52.5 C57.5 41.8 55.9 29.4 53.4 25.5 C48.4 17.6 38.9 26.3 34.1 26.3 C29.3 26.3 19.8 17.5 14.8 25.5 C12.3 29.3 10.7 41.8 9.3 52.5 C8.6 57 5 62 3.5 63.5 C3.8 64 4.2 64.6 4.6 65.4 z" opacity="0.15" id="f1" /><path d="M4.1 23.4 C4.4 21.6 4.9 19.8 5.3 18.1 C6.4 13.9 10.3 8 13.2 5.9 C20.9 0.6 28.6 1 33.8 1 C39 1 46.3 0.6 54 5.9 C57 7.9 60.8 13.9 61.9 18.1 C62.4 19.8 62.8 21.6 63.1 23.4 C64 26.4 65.8 41.9 66 43.5 C65.6 45.4 63.8 46.4 62.1 47.4 C61.9 46.8 61.5 44.8 61.1 42.9 C60.5 44.6 60 46.3 59.5 48.4 C58.3 47.1 56.5 43.6 55.3 42.3 C56.1 46.2 52.5 50.3 48.6 50 C48.4 47.8 48.3 45.5 48.1 43.3 C46.9 44.8 45.7 46.3 44.5 47.9 C44.6 46.6 44.5 44.8 44 43.6 C42.4 39.6 36.6 38.2 33.4 38.2 C30.2 38.2 24.1 38.8 22.8 43.6 C22.4 44.9 22.3 46.6 22.4 47.9 C21.2 46.4 20 44.9 18.8 43.3 C18.6 45.5 18.5 47.8 18.3 50 C14.3 50.3 10.7 46.1 11.6 42.3 C10.4 43.6 8.6 47.1 7.4 48.4 C6.9 46.4 6.4 44.6 5.8 42.9 C5.4 44.9 5.1 46.9 4.8 47.4 C3.1 46.5 1.3 45.4 0.9 43.5 C1.4 42 3.1 26.4 4.1 23.4 z" id="g1" fill="#46494D" /><path d="M4.1 23.4 C4.4 21.6 4.9 19.8 5.3 18.1 C6.4 13.9 10.3 8 13.2 5.9 C20.9 0.6 28.6 1 33.8 1 C39 1 46.3 0.6 54 5.9 C57 7.9 60.8 13.9 61.9 18.1 C62.4 19.8 62.8 21.6 63.1 23.4 C64 26.4 65.8 41.9 66 43.5 C65.6 45.4 63.8 46.4 62.1 47.4 C61.9 46.8 61.5 44.8 61.1 42.9 C60.5 44.6 60 46.3 59.5 48.4 C58.3 47.1 56.5 43.6 55.3 42.3 C56.1 46.2 52.5 50.3 48.6 50 C48.4 47.8 48.3 45.5 48.1 43.3 C46.9 44.8 45.7 46.3 44.5 47.9 C44.6 46.6 44.5 44.8 44 43.6 C42.4 39.6 36.6 38.2 33.4 38.2 C30.2 38.2 24.1 38.8 22.8 43.6 C22.4 44.9 22.3 46.6 22.4 47.9 C21.2 46.4 20 44.9 18.8 43.3 C18.6 45.5 18.5 47.8 18.3 50 C14.3 50.3 10.7 46.1 11.6 42.3 C10.4 43.6 8.6 47.1 7.4 48.4 C6.9 46.4 6.4 44.6 5.8 42.9 C5.4 44.9 5.1 46.9 4.8 47.4 C3.1 46.5 1.3 45.4 0.9 43.5 C1.4 42 3.1 26.4 4.1 23.4 z M6.5 22.6 C5.2 25.1 2.9 39 2.5 40.5 C2.9 42.2 2.5 43.8 4.1 44.6 C4.4 44.1 5 41.3 5.4 39.5 C6 41.1 7.5 42.8 8 44.6 C9.1 43.4 11.2 40.7 12.3 39.5 C11.5 43 13.2 47.3 16.9 47 C17.1 45 17.5 41.9 17.7 39.9 C18.8 41.4 20.4 43.2 21.5 44.6 C21.4 43.4 22.3 41.1 22.7 39.9 C23.9 35.5 30.5 36.1 33.5 36.1 C36.5 36.1 41.8 36.2 43.3 39.9 C43.8 41 45.8 43.4 45.7 44.6 C46.8 43.1 48.2 41.3 49.3 39.9 C49.5 41.9 49.8 45.5 50 47.5 C53.6 47.8 54.9 42.4 54.2 38.8 C55.3 40 57.9 43.7 59 44.9 C59.5 43 60 40.8 60.5 39.2 C60.9 40.9 62.3 42.8 62.5 43.4 C64.1 42.5 63.8 42.2 64.2 40.5 C64 39 61.6 25.3 60.8 22.6 C60.5 20.9 60.2 19.3 59.7 17.7 C58.7 13.8 55.2 8.3 52.4 6.5 C45.2 1.6 38.5 2 33.8 2 C29.1 2 21.9 1.6 14.9 6.5 C12.2 8.4 8.7 13.8 7.6 17.7 C7.2 19.3 6.8 20.9 6.5 22.6 z" opacity="0.15" id="h1" /></g></g><g id="i1"><g transform="translate(98.1, 100.9) translate(30, 28)" id="j1"><g id="k1"><path d="M25.3 87.5 C28.4 87.8 32.5 88 35 86.7 C37.7 85.3 39.2 83.9 41.4 81.5 C43.9 85 46 86.1 49.2 87.5 C52.2 88.9 56.2 87.9 58.7 87.2 C61.2 86.4 66.9 83.2 67.5 79.5 C68.2 75.3 68.7 70.2 66.8 63.2 C65.2 57.1 57.5 53.8 53.8 49.9 C51.1 47 47.5 36.3 47.2 34.6 C46.4 31.2 46.5 27.6 47.7 20.5 C48.9 12.9 53.8 10.5 53.8 8 C53.8 5.6 48.7 10 42.5 10.1 C36.4 10.2 29.7 4.7 29.7 8 C29.7 11.4 34.7 13.8 35.7 19.5 C36.7 25.2 36.7 28.1 35.7 34 C35.1 37.5 31.6 47.8 28.3 50.4 C22.6 54.9 15.7 59.4 15.1 65.9 C14.5 72.6 13.8 76.4 15.7 80.1 C18 84.9 22.2 87.1 25.3 87.5 z" id="l1" fill="#594F46" /><path d="M41.4 1.3 C51.8 1.3 50.7 0.2 54.1 -0.5 C57.5 -1.2 67.3 8.9 71.2 13.2 C75.1 17.5 77.7 25 79.9 29.5 C82.1 34 80.7 43 82.4 52.4 C83.4 58.1 85.2 62.5 83.8 68.2 C82.9 72 80.7 77.3 76 81.2 C60.7 93.6 47.9 95.2 41.4 95.5 C35 95.8 18.6 90.1 8.1 81.4 C3.1 77.2 0.5 72.5 -0.2 68.4 C-1 64 0.4 60.1 1.4 52.6 C3.3 38.1 3.2 39.6 3.1 31.6 C2.7 23 22.7 0.8 26.8 -0.6 C30.9 -2 31.2 1.3 41.4 1.3 z" id="m1" fill="#EFE9E6" /><path d="M47.4 5.1 C50.5 4.7 53.8 1.9 54.4 1.9 C55.9 1.9 68.9 12.7 71.3 16.5 C73.7 20.5 78.7 27.9 79.1 28.3 C79.1 28.3 79.2 28.3 79.3 28.3 C77.2 23.6 74.7 17.1 71.1 13.2 C67.3 8.8 57.6 -1.3 54.2 -0.6 C50.8 0.1 51.8 1.2 41.5 1.2 C31.2 1.2 30.9 -1.9 26.8 -0.6 C23.6 0.4 10.8 14.1 5.5 24.1 C7.7 21.8 12.7 15.9 17.5 11 C22.1 6.4 26.7 2.4 27.5 2.1 C29.3 1.4 31.5 4.9 37 5.2 C38.1 8 41.1 14.7 41 15.6 C40.8 17.7 41.6 23.6 41 25.6 C39 32.5 34.7 34.5 31.4 37 C26 35.6 22 32.8 18.6 34.9 C15.2 36.9 13.1 40.3 15.3 44.3 C16.5 48.1 20.5 51.3 20.4 56.2 C19.5 58.2 14.5 61.8 10.1 63.6 C11.4 65.7 12.5 67.1 13.4 67.9 C15.4 69.6 19.6 76 20.4 78.7 C21.5 82.6 22.7 85.8 26.6 88.9 C29.7 89.7 34.9 89.8 42.1 89.1 C49.4 89.8 54.6 89.7 57.6 88.9 C64.3 85.2 62.4 84.8 63.5 80.9 C64.3 78.2 68.8 69.6 70.8 67.9 C71.7 67.1 72.8 65.7 74.1 63.6 C69.7 61.8 65.5 59 64.6 57 C63.7 55 64.3 54.6 65.6 50.8 C70.3 45.2 71.4 37.2 65.6 35.1 C59.8 33 58.2 35.8 52.8 37.2 C49.5 34.7 45.1 32.7 43.2 25.8 C42.6 23.8 43.4 17.9 43.2 15.8 C43.1 14.9 46.1 8 47.2 5.2 C47.2 5.2 47.3 5.1 47.4 5.1 z" id="n1" fill="#46494D" /><path d="M41.4 1.3 C51.8 1.3 50.7 0.2 54.1 -0.5 C57.5 -1.2 67.3 8.9 71.2 13.2 C75.1 17.5 77.7 25 79.9 29.5 C82.1 34 80.7 43 82.4 52.4 C83.4 58.1 85.2 62.5 83.8 68.2 C82.9 72 80.7 77.3 76 81.2 C60.7 93.6 47.9 95.2 41.4 95.5 C35 95.8 18.6 90.1 8.1 81.4 C3.1 77.2 0.5 72.5 -0.2 68.4 C-1 64 0.4 60.1 1.4 52.6 C3.3 38.1 3.2 39.6 3.1 31.6 C2.7 23 22.7 0.8 26.8 -0.6 C30.9 -2 31.2 1.3 41.4 1.3 z M41.4 2.1 C31.5 2.1 31.2 -1.1 27.4 0.3 C23.6 1.7 4.3 23 4.7 31.1 C4.8 38.9 4.9 37.3 3.1 51.3 C2.1 58.6 0.8 62.3 1.6 66.5 C2.3 70.4 4.8 75 9.6 79 C19.6 87.4 35.4 92.8 41.5 92.5 C47.7 92.2 59.9 90.7 74.7 79 C79.2 75.3 81.3 70.2 82.2 66.5 C83.5 60.9 81.8 56.7 80.9 51.3 C79.3 42.3 80.6 33.7 78.5 29.3 C76.4 24.9 73.8 17.9 70 13.7 C66.2 9.5 56.9 -0.3 53.6 0.4 C50.3 1.1 51.4 2.1 41.4 2.1 z" opacity="0.15" id="o1" /></g></g><g transform="translate(148.7, 135.9999) rotate(19, 0, 0) scale(1.2) translate(-145.7, -141.9999) translate(116.2, 119.2) translate(2, 16)" id="p1"><g id="q1"><path d="M0.2 37 C0.2 35.6 0.2 30.8 0.3 29.9 C0.2 28.7 0.9 27.3 2 26.1 C1.7 26.2 1.4 26.3 1 26.5 C1.7 24 3.2 18.8 3.2 18.8 C1.9 18 1.4 15.6 3.5 12.8 C3.3 15.6 5.5 14.4 6.1 13.7 C6.7 13 7.3 12.3 7.9 11.6 C8.6 10.8 9.7 10.3 10.8 9.8 C11.2 9.3 11.7 8.8 12.1 8.3 C11.5 8.3 10.9 8.4 10.4 8.6 C12 6.4 14.3 4.6 16.9 3.7 C17.3 3.4 17.6 3.2 18 2.9 C16.6 2.3 15.1 1.7 13.7 1 C16.8 0.9 19.9 0.7 23.1 0.6 C24.4 0.5 26.2 0.6 28.4 3.5 C31.8 8 26.9 9.4 25.6 26.2 C24.9 36.1 25 42.4 24.8 46.4 C24.9 49.3 24.9 52.3 25 55.2 C24.3 54.4 23.7 53.7 23 52.9 C22.7 54.4 22.5 55.7 22.2 57.4 C20.9 56.4 19.6 55.5 18.3 54.5 C18.2 52.8 18.2 51.2 18.1 49.5 C18.1 49.5 18.1 49.5 18 49.4 C17.4 50.8 16.8 52.2 16.2 53.6 C15.8 51.6 15.5 49.5 15.1 47.5 C14.8 48.6 14.5 49.8 14.2 50.9 C13.6 49.2 12.9 47.5 12.3 45.9 C12.1 46.8 11.8 47.7 11.6 48.6 C10.1 47.6 8.6 46.6 7.1 45.7 C7.1 44.7 7.2 43.8 7.2 42.8 C6.5 43.6 5.9 44.4 5.2 45.2 C3.1 42.7 2.1 39.4 2.4 36.2 C2.2 35.6 2 35.1 1.9 34.5 C1.4 35.4 0.8 36.2 0.2 37 z" id="r1" fill="#46494D" /><path d="M0.2 37 C0.2 35.6 0.2 30.8 0.3 29.9 C0.2 28.7 0.9 27.3 2 26.1 C1.7 26.2 1.4 26.3 1 26.5 C1.7 24 3.2 18.8 3.2 18.8 C1.9 18 1.4 15.6 3.5 12.8 C3.3 15.6 5.5 14.4 6.1 13.7 C6.7 13 7.3 12.3 7.9 11.6 C8.6 10.8 9.7 10.3 10.8 9.8 C11.2 9.3 11.7 8.8 12.1 8.3 C11.5 8.3 10.9 8.4 10.4 8.6 C12 6.4 14.3 4.6 16.9 3.7 C17.3 3.4 17.6 3.2 18 2.9 C16.6 2.3 15.1 1.7 13.7 1 C16.8 0.9 19.9 0.7 23.1 0.6 C24.4 0.5 26.2 0.6 28.4 3.5 C31.8 8 26.9 9.4 25.6 26.2 C24.9 36.1 25 42.4 24.8 46.4 C24.9 49.3 24.9 52.3 25 55.2 C24.3 54.4 23.7 53.7 23 52.9 C22.7 54.4 22.5 55.7 22.2 57.4 C20.9 56.4 19.6 55.5 18.3 54.5 C18.2 52.8 18.2 51.2 18.1 49.5 C18.1 49.5 18.1 49.5 18 49.4 C17.4 50.8 16.8 52.2 16.2 53.6 C15.8 51.6 15.5 49.5 15.1 47.5 C14.8 48.6 14.5 49.8 14.2 50.9 C13.6 49.2 12.9 47.5 12.3 45.9 C12.1 46.8 11.8 47.7 11.6 48.6 C10.1 47.6 8.6 46.6 7.1 45.7 C7.1 44.7 7.2 43.8 7.2 42.8 C6.5 43.6 5.9 44.4 5.2 45.2 C3.1 42.7 2.1 39.4 2.4 36.2 C2.2 35.6 2 35.1 1.9 34.5 C1.4 35.4 0.8 36.2 0.2 37 z M1 33.9 C1.6 33.2 2.2 32.8 2.6 31.9 C2.7 32.5 2.9 33.5 3.1 34.1 C2.8 37 3.8 40.1 5.7 42.4 C6.4 41.7 6.9 40.9 7.6 40.2 C7.6 40.8 7.7 41.8 7.9 43.2 C9.2 44 10.3 44.7 11.3 45.3 C11.5 44.5 12.3 43.9 12.4 43.1 C13 44.6 13.3 45.6 13.9 47.2 C14.2 46.2 14.8 45.6 15 44.6 C15.4 46.4 16.1 47.8 16.5 49.7 C16.9 48.8 17.6 47.8 18.7 46.5 C18.8 48.7 18.9 50.3 19 51.3 C20.2 52.2 20.5 52.8 21.8 53.7 C22.1 52.1 22.3 50.9 22.6 49.6 C23.3 50.3 23.8 51 24.5 51.7 C24.4 49 23.2 35.8 23.9 26.7 C25 11.1 30.8 8.1 27.6 4 C25.5 1.3 24.2 1.1 23 1.1 C20 1.2 18.9 1.3 16 1.4 C17.3 2 18.1 2.4 19.4 3 C19 3.3 17.2 3.9 16.8 4.1 C14.4 4.9 13.2 5.7 11.7 7.7 C12.2 7.5 13 7.8 13.6 7.8 C13.2 8.3 11.2 9.7 10.8 10.1 C9.8 10.6 7.2 13 6.6 13.6 C6 14.2 3.8 15.6 3.2 13.8 C2.3 15.4 3.1 17.2 4.3 17.9 C4.3 17.9 2.7 22.1 2 24.4 C2.4 24.2 3.2 24.3 3.4 24.2 C2.4 25.3 1 26.9 1.1 28 C1.1 29.1 1 32.6 1 33.9 z" opacity="0.15" id="s1" /></g></g><g transform="translate(190, 135.9999) rotate(-19, 0, 0) scale(1.2) translate(-193, -141.9999) translate(103.7, 119.3) translate(102, 45) scale(-1, 1) translate(-102, -45) translate(87, 16)" id="t1"><g id="u1"><path d="M0.2 37 C0.2 35.6 0 32.1 0.3 29.9 C0.5 28.5 1.1 27.2 2 26.1 C1.7 26.2 1.4 26.3 1 26.5 C1.7 24 2.5 21.1 3.2 18.8 C2.9 18.6 1 16.3 3.5 12.8 C3.3 15.6 5.5 14.4 6.1 13.7 C6.7 13 7.3 12.3 7.9 11.6 C8.6 10.8 9.7 10.3 10.8 9.8 C11.2 9.3 11.7 8.8 12.1 8.3 C11.5 8.3 10.9 8.4 10.4 8.6 C12 6.4 14.3 4.6 16.9 3.7 C17.3 3.4 17.6 3.2 18 2.9 C16.6 2.3 15.1 1.7 13.7 1 C16.8 0.9 19.9 0.7 23.1 0.6 C24.4 0.5 26.2 0.6 28.4 3.5 C31.8 8 26.9 9.4 25.6 26.2 C24.9 36.1 25 42.4 24.8 46.4 C24.9 49.3 24.9 52.3 25 55.2 C24.3 54.4 23.7 53.7 23 52.9 C22.7 54.4 22.5 55.7 22.2 57.4 C20.9 56.4 19.6 55.5 18.3 54.5 C18.2 52.8 18.2 51.2 18.1 49.5 C18.1 49.5 18.1 49.5 18 49.4 C17.4 50.8 16.8 52.2 16.2 53.6 C15.8 51.6 15.5 49.5 15.1 47.5 C14.8 48.6 14.5 49.8 14.2 50.9 C13.6 49.2 12.9 47.5 12.3 45.9 C12.1 46.8 11.8 47.7 11.6 48.6 C10.1 47.6 8.6 46.6 7.1 45.7 C7.1 44.7 7.2 43.8 7.2 42.8 C6.5 43.6 5.9 44.4 5.2 45.2 C3.1 42.7 2.1 39.4 2.4 36.2 C2.2 35.6 2 35.1 1.9 34.5 C1.4 35.4 0.8 36.2 0.2 37 z" id="v1" fill="#46494D" /><path d="M1.8 26.3 C1.8 26.2 1.8 26.2 1.9 26.1 C1.6 26.2 1.4 26.3 1 26.5 C1.7 24 2.5 21.1 3.2 18.8 C2.9 18.6 1 16.3 3.5 12.8 C3.3 15.6 5.5 14.4 6.1 13.7 C6.7 13 7.3 12.3 7.9 11.6 C8.6 10.8 9.7 10.3 10.8 9.8 C11.2 9.3 11.7 8.8 12.1 8.3 C11.5 8.3 10.9 8.4 10.4 8.6 C12 6.4 14.3 4.6 16.9 3.7 C17.3 3.4 17.6 3.2 18 2.9 C16.6 2.3 15.1 1.7 13.7 1 C16.8 0.9 19.9 0.7 23.1 0.6 C24.4 0.5 26.2 0.6 28.4 3.5 C31.8 8 26.9 9.4 25.6 26.2 C24.9 36.1 25 42.4 24.8 46.4 C24.9 49.3 24.9 52.3 25 55.2 C24.3 54.4 23.7 53.7 23 52.9 C22.7 54.4 22.5 55.7 22.2 57.4 C20.9 56.4 19.6 55.5 18.3 54.5 C18.2 52.8 18.2 51.2 18.1 49.5 C18.1 49.5 18.1 49.5 18 49.4 C17.4 50.8 16.8 52.2 16.2 53.6 C15.8 51.6 15.5 49.5 15.1 47.5 C14.8 48.6 14.5 49.8 14.2 50.9 C13.6 49.2 12.9 47.5 12.3 45.9 C12.1 46.8 11.8 47.7 11.6 48.6 C10.1 47.6 8.6 46.6 7.1 45.7 C7.1 44.7 7.2 43.8 7.2 42.8 C6.5 43.6 5.9 44.4 5.2 45.2 C3.1 42.7 2.1 39.4 2.4 36.2 C2.2 35.6 2 35.1 1.9 34.5 C1.4 35.4 0.8 36.2 0.2 37 C0.2 35.6 0 32.1 0.3 29.9 C0.5 28.6 1 27.4 1.8 26.3 z M1.8 26.3 C1.6 26.8 1.5 27.3 1.4 27.8 C1.1 29.8 1.3 33.1 1.3 34.3 C1.9 33.6 2.4 32.8 2.9 32 C3 32.6 3.2 33 3.4 33.6 C3.1 36.6 3.7 39.4 5.7 41.7 C6.3 41 7.8 40.8 8.5 40.1 C8.5 41 8.7 41.8 8.7 42.7 C10.1 43.5 10.2 44.1 11.6 45 C11.8 44.2 12.8 43.6 13 42.7 C13.6 44.2 13.5 45.4 14.1 47 C14.4 46 15.6 45.6 15.9 44.6 C16.3 46.4 16.7 47.8 17 49.7 C17.6 48.4 18.3 47.6 18.8 46.3 C18.9 46.4 19 49 19.1 50.6 C20.3 51.5 20.7 52.3 21.9 53.2 C22.2 51.6 22.4 50.4 22.6 49.1 C23.2 49.8 23.8 50.5 24.4 51.2 C24.3 48.5 23.4 46.5 23.3 43.8 C22.9 40.7 22.7 38.4 23.3 29.3 C24.5 13.8 30.7 7.7 27.5 3.5 C25.5 0.8 23.7 1.1 22.5 1.2 C19.5 1.3 19.6 1.5 16.8 1.6 C18.1 2.2 18.6 3 19.9 3.5 C19.5 3.8 18.3 4 18 4.3 C15.6 5.1 13.6 5.7 12.1 7.7 C12.6 7.5 13.4 7.4 14 7.4 C13.6 7.9 12.5 9.4 12.1 9.8 C11.1 10.3 9.5 11.4 8.9 12.1 C8.3 12.7 7.5 13.3 7 14 C6.5 14.7 3.8 16.3 3 14.3 C2.7 17.1 3.8 17.4 4.1 17.6 C3.5 19.7 2.7 22.4 2.1 24.7 C2.5 24.5 2.7 24.4 3 24.3 C2.5 24.9 2.2 25.5 1.9 26.1 C1.9 26.1 2 26.1 2 26.1 C1.9 26.2 1.9 26.2 1.8 26.3 z" opacity="0.15" id="w1" /></g></g><g id="x1"><g transform="translate(102.4, 121.1) translate(42, 3)" id="y1"><path d="M49.9 76.8 C49.7 75.5 49.3 74.2 48.8 72.8 C47.8 70.2 46 67.8 43.8 65.3 C43 63.2 42.2 60.6 40.1 56.4 C38.2 52.7 32.7 53.1 30.1 47.3 C28.8 42 28.2 36.5 28.4 31.1 C28.4 30.4 28.5 29.6 28.4 28.9 C28.6 18.6 28.7 14.3 34.2 10 C36.3 8.4 39.1 8.4 39.2 6.8 C39.5 2.4 30.6 0.9 25.1 0.7 C19.5 0.9 10.6 2.4 11 6.8 C11.1 8.4 13.9 8.4 16 10 C21.5 14.3 21.6 18.6 21.8 28.9 C21.8 29.6 21.8 30.4 21.8 31.1 C22 36.6 21.4 42 20.1 47.3 C17.5 53.1 12.1 52.7 10.1 56.4 C8 60.6 7.1 63.2 6.4 65.3 C4.2 67.8 2.3 70.1 1.4 72.8 C0.9 74.2 0.5 75.5 0.3 76.8 C1.2 93.2 11.8 94.6 25.1 94 C38.3 94.6 48.9 93.2 49.9 76.8 z" id="z1" fill="#FFF" /><path d="M49.9 76.8 C48.9 93.2 38.3 94.6 25.1 94 C11.8 94.6 1.2 93.2 0.3 76.8 C0.5 75.5 0.9 74.2 1.4 72.8 C2.3 70.1 4.2 67.8 6.4 65.3 C7.1 63.2 8 60.6 10.1 56.4 C12.1 52.7 17.5 53.1 20.1 47.3 C21.4 42 22 36.6 21.8 31.1 C21.8 30.4 21.8 29.6 21.8 28.9 C21.6 18.6 21.5 14.3 16 10 C13.9 8.4 11.1 8.4 11 6.8 C10.6 2.4 19.5 0.9 25.1 0.7 C30.6 0.9 39.5 2.4 39.2 6.8 C39.1 8.4 36.3 8.4 34.2 10 C28.7 14.3 28.6 18.6 28.4 28.9 C28.5 29.6 28.4 30.4 28.4 31.1 C28.2 36.5 28.8 42 30.1 47.3 C32.7 53.1 38.2 52.7 40.1 56.4 C42.2 60.6 43 63.2 43.8 65.3 C46 67.8 47.8 70.2 48.8 72.8 C49.3 74.2 49.7 75.5 49.9 76.8 z M47.2 71.2 C46.2 68.7 44.3 66.5 42.2 64.1 C41.4 62.1 40.9 60.6 38.9 56.6 C37.1 53.1 31.3 52.6 28.8 47.1 C27.6 42 27.8 29.4 27.7 29 C27.9 19.2 28 14 33.3 9.9 C35.3 8.4 38.3 7.9 38.4 6.4 C38.9 3.2 30.4 1.2 25.2 1 C19.9 1.2 11.8 2.2 12.2 6.4 C12.4 8 15 8.5 17 10.1 C22.2 14.2 22 19.2 22.2 29 C22.2 29.7 22.5 43.6 20.6 47.9 C18.1 53.4 13.1 52.7 11.2 56.2 C9.2 60.2 8.3 62.2 7.6 64.2 C8.3 66.2 3.9 68.8 3 71.3 C2.5 72.6 2 73.6 1.8 74.8 C2.7 90.4 12.4 91.5 25.1 90.9 C37.7 91.5 47.7 91.5 48.7 75.9 C48.5 74.6 47.7 72.6 47.2 71.2 z" opacity="0.15" id="a2" /></g><g transform="translate(86.99998, 116.3) translate(74, 77)" id="b2"><path d="M7.5 1.5 C7.7 3.9 7.8 5.6 7.8 6.6 C7.8 7.6 7.5 9.5 7 12.1 C4.4 14.2 2.6 16 1.7 17.5 C0.4 19.8 -0.1 20.5 0.4 20.8 C0.7 21.1 2.4 18.9 4.9 17.7 C5.9 17.2 7.4 16.9 8.5 16.9 C9.8 16.9 11.5 17.4 12.7 18.1 C14.8 19.3 16 21 16.4 20.9 C16.9 20.7 15.7 17.6 13.2 15.4 C11.6 13.9 10.5 12.9 10 12.2 C9.7 9.6 9.6 7.8 9.6 6.6 C9.6 5.4 9.7 3.6 9.9 1.3 C10.5 0.4 10.1 0 8.7 0 C7.3 0 6.9 0.5 7.5 1.5 z" id="c2" /></g><g transform="translate(103.1, 128.4) translate(56, 60)" id="d2"><g id="e2"><path d="M0.9 8.2 C2.5 12.2 3.6 15.3 5.8 16 C8 16.7 12.1 16.7 13.8 15.9 C15.5 15.2 20.4 8.5 20.8 6.1 C21.1 3.7 19.1 2.6 17.2 1.5 C15.4 0.3 9.6 0.3 7.1 0.3 C4.6 0.3 -0.7 4.1 0.9 8.2 z" id="f2" fill="#353535" /><path d="M13.5 3.2 C13.5 5.7 14.3 8 15.3 7.8 C16 7.7 16.8 6.9 17.7 5.5 C14.9 2.3 13.5 1.6 13.5 3.2 z" id="g2" fill="#FFF3F3" /></g></g><g transform="translate(98.69998, 98.09995) translate(44, 47)" id="h2"><g id="i2"><path d="M13 12.1 C10.4 11.1 7.2 11.3 4.8 12.7 C3.7 13.3 1.5 14.8 0.7 15.8 C-0.6 17.3 0.1 19.9 1.3 21.5 C2.5 23.1 4.3 24.2 6.3 24.5 C8.3 24.8 10.3 24.5 12.2 23.7 C14.5 22.8 16.7 21.1 17.2 18.6 C17.7 15.9 15.6 13.1 13 12.1 z" id="j2" fill="#474B4F" /><path d="M14.5 17.3 C14.2 16 13.5 13 10.2 13 C6.9 13 3.3 16.7 2 17.7 C2.7 19.6 5.4 21.2 7.8 21.5 C11.2 21.9 13.5 20.7 14.5 17.3 z" id="k2" fill="#282421" /><path d="M9.3 5.1 C8.7 4.7 8.1 4.2 7.9 3.5 C7.8 2.9 8.1 2.2 8.6 1.8 C10.3 0.1 12.2 0.2 13.1 0.1 C16.2 -0.1 16.9 2.6 16.4 5.2 C15.5 10.3 12.1 7 9.3 5.1 z" id="l2" fill="#D1CDCB" /><path d="M9.8 14.4 C9.4 14.3 7.5 14.9 7 15.2 C6.5 15.6 6.2 16.2 6.5 16.8 C6.7 17.3 7.3 17.5 7.9 17.4 C8.4 17.3 8.9 17.1 9.4 16.8 C10 16.4 10.8 15.9 10.7 15.2 C10.5 14.8 10.2 14.5 9.8 14.4 z" id="m2" fill="#F5FAFC" /></g></g><g transform="translate(106.3, 98.09995) translate(72, 47)" id="n2"><g id="o2"><path d="M5 12.1 C7.6 11.1 10.8 11.3 13.2 12.7 C14.3 13.3 16.5 14.8 17.3 15.8 C18.6 17.3 17.9 19.9 16.7 21.5 C15.5 23.1 13.7 24.2 11.7 24.5 C9.7 24.8 7.7 24.5 5.8 23.7 C3.5 22.8 1.3 21.1 0.8 18.6 C0.3 15.9 2.4 13.1 5 12.1 z" id="p2" fill="#474B4F" /><path d="M3.5 17.3 C3.8 16 4.5 13 7.8 13 C11.1 13 14.7 16.7 16 17.7 C15.3 19.6 12.6 21.2 10.2 21.5 C6.8 21.9 4.5 20.7 3.5 17.3 z" id="q2" fill="#282421" /><path d="M10.4 15.2 C10.1 14.9 8.4 14.3 7.8 14.3 C7.2 14.3 6.6 14.6 6.5 15.2 C6.4 15.7 6.7 16.2 7.2 16.4 C7.6 16.7 8.1 16.7 8.6 16.8 C9.3 16.9 10.1 16.9 10.5 16.3 C10.7 15.9 10.7 15.5 10.4 15.2 z" id="r2" fill="#F5FAFC" /><path d="M8.7 5.1 C9.3 4.7 9.9 4.2 10.1 3.5 C10.2 2.9 9.9 2.2 9.4 1.8 C7.7 0.1 5.8 0.2 4.9 0.1 C1.8 -0.1 1.1 2.6 1.6 5.2 C2.5 10.3 5.9 7 8.7 5.1 z" id="s2" fill="#D1CDCB" /></g></g></g></g></g></g><defs><g transform="translate(17.09519, 0.800995) translate(-135.2952, -293.601)" id="t2" fill="#000"><path d="M118.2 302.7 C118.4 307.4 132.5 311.2 149.8 311.2 C167.1 311.2 181.2 307.4 181.4 302.7 C181.4 307.5 181.4 310.1 181.4 310.5 C181.4 315.3 167.3 319.1 149.8 319.1 C132.3 319.1 118.2 315.2 118.2 310.5 L118.2 302.7 L118.2 302.7 z" fill-opacity="0.4528" id="u2" fill="#593001" /><path d="M118.7 301.7 C118.9 306.4 133 310.2 150.3 310.2 C167.6 310.2 181.7 306.4 181.9 301.7 C181.9 306.5 181.9 309.1 181.9 309.5 C181.9 314.3 167.8 318.1 150.3 318.1 C132.8 318.1 118.7 314.2 118.7 309.5 L118.7 301.7 L118.7 301.7 z" id="v2" fill="#DA8113" /><linearGradient x1="46.0545" y1="-118.6926" x2="45.4656" y2="-118.6926" gradientUnits="userSpaceOnUse" gradientTransform="matrix(117.135, 0, 0, 28.4634, -5208.417, 3687.795)" id="w2"><stop offset="0%" stop-color="#D9952A" stop-opacity="1" /><stop offset="6.438854%" stop-color="#CA7519" stop-opacity="1" /><stop offset="30.54%" stop-color="#E3AD3A" stop-opacity="1" /><stop offset="51.05%" stop-color="#FFEC91" stop-opacity="1" /><stop offset="68.8%" stop-color="#E9BD44" stop-opacity="1" /><stop offset="86.24%" stop-color="#FFED6C" stop-opacity="1" /><stop offset="93.87%" stop-color="#F2D353" stop-opacity="1" /><stop offset="100%" stop-color="#F2B947" stop-opacity="1" /></linearGradient><path d="M118.2 301.6 C118.4 306.1 132.7 309.7 150.3 309.7 C167.9 309.7 182.2 306.1 182.4 301.6 C182.4 306.2 182.4 308.7 182.4 309 C182.4 313.5 168 317.2 150.3 317.2 C132.6 317.2 118.2 313.5 118.2 309 L118.2 301.6 L118.2 301.6 z" id="x2" style="fill:url(#w2)" /><linearGradient x1="45.4914" y1="-117.9547" x2="45.9407" y2="-117.5895" gradientUnits="userSpaceOnUse" gradientTransform="matrix(115.425, 0, 0, 29.925, -5125.077, 3826.124)" id="y2"><stop offset="0%" stop-color="#F4E072" stop-opacity="1" /><stop offset="100%" stop-color="#DB9427" stop-opacity="1" /></linearGradient><ellipse cx="150.3" cy="301.5" rx="31.6" ry="8.2" id="z2" style="fill:url(#y2)" /><linearGradient x1="45.4656" y1="-126.0065" x2="46.0545" y2="-126.0065" gradientUnits="userSpaceOnUse" gradientTransform="matrix(117.135, 0, 0, 18.6219, -5208.417, 2651.479)" id="a3"><stop offset="0%" stop-color="#D9952A" stop-opacity="1" /><stop offset="6.438854%" stop-color="#CA7519" stop-opacity="1" /><stop offset="30.54%" stop-color="#E3AD3A" stop-opacity="1" /><stop offset="51.05%" stop-color="#FFEC91" stop-opacity="1" /><stop offset="68.8%" stop-color="#E9BD44" stop-opacity="1" /><stop offset="86.24%" stop-color="#FFED6C" stop-opacity="1" /><stop offset="93.87%" stop-color="#F2D353" stop-opacity="1" /><stop offset="100%" stop-color="#F2B947" stop-opacity="1" /></linearGradient><path d="M119.2 299.9 C119 300.2 118.9 300.6 118.9 301 C118.9 305.5 132.9 309.2 150.3 309.2 C167.7 309.2 181.7 305.5 181.7 301 C181.7 300.6 181.6 300.3 181.4 299.9 C182 300.5 182.4 301.2 182.4 301.9 C182.4 306.4 168 310.1 150.3 310.1 C132.6 310.1 118.2 306.4 118.2 301.9 C118.2 301.3 118.6 300.6 119.2 299.9 z" id="b3" style="fill:url(#a3)" /><linearGradient x1="45.196" y1="-121.5895" x2="45.3746" y2="-120.6758" gradientUnits="userSpaceOnUse" gradientTransform="matrix(101.745, 0, 0, 23.94, -4458.332, 3199.41)" id="c3"><stop offset="0%" stop-color="#F8DD61" stop-opacity="1" /><stop offset="100%" stop-color="#EAA330" stop-opacity="1" /></linearGradient><ellipse cx="150.3" cy="300.8" rx="27.8" ry="6.6" id="d3" style="fill:url(#c3)" /><linearGradient x1="45.5694" y1="-134.267" x2="45.0221" y2="-134.267" gradientUnits="userSpaceOnUse" gradientTransform="matrix(101.745, 0, 0, 13.2525, -4458.332, 2077.223)" id="e3"><stop offset="0%" stop-color="#F4CA2F" stop-opacity="1" /><stop offset="51.38%" stop-color="#BF7737" stop-opacity="1" /><stop offset="100%" stop-color="#E4A929" stop-opacity="1" /></linearGradient><path d="M122.6 301.5 C122.5 301.3 122.4 301 122.4 300.8 C122.4 297.2 134.9 294.2 150.2 294.2 C165.5 294.2 178 297.1 178 300.8 C178 301 177.9 301.3 177.8 301.5 C176.3 298.2 164.5 295.6 150.1 295.6 C135.7 295.6 124.1 298.2 122.6 301.5 z" id="f3" style="fill:url(#e3)" /></g></defs><desc>2DJF7KDB2J4,WPQK+ponR7MqSXYRKTVlvZHcofirp3y0fJBAssgGHbVZUh3cZFZxihY9+5q8ijjR0RMf9MM6C2mmK1VIZzEAS4yOP2kxrrpYeJ3JXhGdJUo=</desc></svg>