<?xml version="1.0" encoding="utf-8"?><!DOCTYPE svg PUBLIC "-//W3C//DTD SVG 1.1//EN" "http://www.w3.org/Graphics/SVG/1.1/DTD/svg11.dtd"><svg x="0" y="0" width="340px" height="340px" viewBox="0, 0, 340, 340" preserveAspectRatio="xMidYMid" font-size="0" id="a" enable-background="new 0 0 340 340" xmlns="http://www.w3.org/2000/svg" xmlns:xlink="http://www.w3.org/1999/xlink" xmlns:xml="http://www.w3.org/XML/1998/namespace" version="1.1"><g id="b" fill="#000"><g id="c"><g transform="translate(0, 0) translate(0, 224)" id="d"><ellipse cx="168.6" cy="53.1" rx="57.8" ry="12.8" fill-opacity="0.25" id="e" /></g><g id="f"><g transform="translate(96.4, 60.89998) translate(33.5, 179) scale(-1, 1) translate(-33.5, -179) translate(0, 154)" id="g"><path d="M41.5 31.4 C45.2 30.1 47.9 28.5 48.7 27.6 C49.1 27.1 51.6 21.8 52.3 21.3 C52.9 20.9 52.9 24.2 53.4 23.8 C54.9 22.4 54.8 22.1 55.2 20.7 C56.1 17.4 57.2 16.6 58.5 11.1 L59.9 15.5 C63.3 7.9 61.4 0.7 63.5 -1.5 C65.6 -3.7 75.2 32.7 50.3 43.4 C48.1 44.4 37.3 47.3 35.4 47.6 C23.7 49.1 1.5 47 1.5 47 L1.5 34.8 C1.3 34.8 27.9 36.1 41.5 31.4 z" id="h" fill="#725C54" /><path d="M41.5 31.4 C45.2 30.1 47.9 28.5 48.7 27.6 C49.1 27.1 51.6 21.8 52.3 21.3 C52.9 20.9 52.9 24.2 53.4 23.8 C54.9 22.4 54.8 22.1 55.2 20.7 C56.1 17.4 57.2 16.6 58.5 11.1 L59.9 15.5 C63.3 7.9 61.4 0.7 63.5 -1.5 C65.6 -3.7 75.2 32.7 50.3 43.4 C48.1 44.4 37.3 47.3 35.4 47.6 C23.7 49.1 1.5 47 1.5 47 L1.5 34.8 C1.3 34.8 27.9 36.1 41.5 31.4 z" id="i" fill="#725C54" /><path d="M41.5 31.4 C45.2 30.1 47.9 28.5 48.7 27.6 C49.1 27.1 51.6 21.8 52.3 21.3 C52.9 20.9 52.9 24.2 53.4 23.8 C54.9 22.4 54.8 22.1 55.2 20.7 C56.1 17.4 57.2 16.6 58.5 11.1 L59.9 15.5 C63.3 7.9 61.4 0.7 63.5 -1.5 C65.6 -3.7 75.2 32.7 50.3 43.4 C48.1 44.4 37.3 47.3 35.4 47.6 C23.7 49.1 1.5 47 1.5 47 L1.5 34.8 C1.3 34.8 27.9 36.1 41.5 31.4 z M42.1 32.1 C29.3 36.2 4 36 4 36 L4.3 45.8 C4.3 45.8 24.5 47.1 35.5 45.8 C37.4 45.5 48.1 42.8 50 41.9 C70.6 33.2 65.8 1.7 63.8 3.7 C61.8 5.6 62.4 11.8 59.2 18.3 L57.9 14.5 C56.7 19.3 56.3 19.9 55.4 22.8 C55 24 54.5 24.3 53.1 25.6 C52.6 25.9 52.6 23.1 52.1 23.4 C51.4 23.8 49.1 28.4 48.7 28.9 C48.1 29.6 45.5 31 42.1 32.1 z" opacity="0.15" id="j" /></g><g transform="translate(126.2, 273.3) scale(1.15098) translate(-126.2, -273.3) translate(109, 103.9) translate(11, 124)" id="k"><path d="M5.5 31.6 C4 25 -4.5 8.1 4.9 2.8 C11.3 -0.8 29.6 0.5 37.7 7.3 C45.8 14.2 46.2 40.5 24.1 25 C20 22.1 30.1 37 24.8 45 C21.8 49.6 7.3 50.2 3.5 45.6 C-0.1 41.2 6.3 35.3 5.5 31.6 z" id="l" fill="#513A33" /><path d="M5.4 33.3 C4.6 33.9 3.7 34.2 2.7 34.2 C4.1 32.7 4.8 30.6 4.6 28.6 C4.5 28.4 4.5 28.2 4.4 27.9 C8.2 26 22.2 17.3 25.8 14.2 C25.8 17.2 29.4 22.5 28.2 26.7 C26.7 31.5 30 36.9 24.8 44.9 C21.8 49.5 7.3 50.1 3.5 45.5 C0.4 41.8 4.6 37 5.4 33.3 z" id="m" fill="#EDEEEF" /><path d="M4.9 2.8 C11.3 -0.8 29.6 0.5 37.7 7.3 C45.3 13.8 46.1 37.3 28 27.4 C27.1 31.8 29.5 36.8 25.4 43.8 C25.2 44.2 25 44.6 24.8 44.9 C21.8 49.5 7.3 50.1 3.5 45.5 C2.9 44.8 2.6 44.1 2.5 43.3 C1.8 40 4.8 36.2 5.4 33.2 C4.6 33.8 3.7 34.1 2.7 34.1 C4.1 32.6 4.8 30.5 4.6 28.5 C4.5 28.3 4.5 28.1 4.4 27.8 C1.8 20.1 -3.1 7.3 4.9 2.8 z M5.5 3.2 C-1.6 7.3 3.9 19 6.2 26.2 C6.3 26.5 6.3 26.7 6.4 26.8 C6.6 28.6 5.9 31 4.6 32.4 C5.5 32.4 7.2 30.9 8 30.3 C7.4 33.1 3.9 37.3 4.5 40.4 C4.6 41.1 4.9 41.8 5.4 42.4 C8.8 46.6 21.7 46.1 24.4 41.8 C24.6 41.5 24.8 41.1 25 40.8 C28.6 34.3 25.9 29.2 26.7 25.2 C42.9 34.2 44.1 14.1 37.4 8.2 C30.2 2 11.2 -0.1 5.5 3.2 z" opacity="0.15" id="n" /></g><g transform="translate(211.1, 273.3) scale(1.15098) translate(-211.1, -273.3) translate(109, 103.9) translate(86, 148) scale(-1, 1) translate(-86, -148) translate(64, 123)" id="o"><path d="M5.5 32.6 C4 26 -5.2 7.6 4.9 3.8 C30.4 -6.1 41.7 9.9 43.4 18.9 C45.8 31.2 30.5 28 24 26 C19.2 24.5 30 38 24.7 46 C21.7 50.6 7.2 51.2 3.4 46.6 C-0.1 42.2 6.3 36.3 5.5 32.6 z" id="p" fill="#513A33" /><path d="M5.5 34.3 C4.7 34.9 3.8 35.2 2.8 35.2 C4.2 33.7 4.9 31.6 4.7 29.6 C4.6 29.4 4.6 29.2 4.5 28.9 C8.3 27 22.3 18.3 25.9 15.2 C25.9 18.2 25.3 21.7 24.1 25.9 C22.6 30.7 30.1 37.9 24.8 45.9 C21.8 50.5 7.3 51.1 3.5 46.5 C0.4 42.8 4.7 38 5.5 34.3 z" id="q" fill="#EDEEEF" /><path d="M4.9 3.8 C11.3 0.2 29.6 1.5 37.7 8.3 C45.3 14.8 46.1 38.3 28 28.4 C27.1 32.8 29.5 37.8 25.4 44.8 C25.2 45.2 25 45.6 24.8 45.9 C21.8 50.5 7.3 51.1 3.5 46.5 C2.9 45.8 2.6 45.1 2.5 44.3 C1.8 41 4.8 37.2 5.4 34.2 C4.6 34.8 3.7 35.1 2.7 35.1 C4.1 33.6 4.8 31.5 4.6 29.5 C4.5 29.3 4.5 29.1 4.4 28.8 C1.8 21.1 -3.1 8.3 4.9 3.8 z M5.5 4.2 C-1.6 8.3 3.9 20 6.2 27.2 C6.3 27.5 6.3 27.7 6.4 27.8 C6.6 29.6 5.9 32 4.6 33.4 C5.5 33.4 7.2 31.9 8 31.3 C7.4 34.1 3.9 38.3 4.5 41.4 C4.6 42.1 4.9 42.8 5.4 43.4 C8.8 47.6 21.7 47.1 24.4 42.8 C24.6 42.5 24.8 42.1 25 41.8 C28.6 35.3 25.9 30.2 26.7 26.2 C42.9 35.2 44.1 15.1 37.4 9.2 C30.2 3 11.2 0.9 5.5 4.2 z" opacity="0.15" id="r" /></g><g transform="translate(95.60001, 79.79997) translate(31, 74)" id="s"><g opacity="0.15" transform="translate(1, 1)" id="t"><path d="M6.3 88.2 C2.7 77.8 -2.4 63.3 1.4 47.5 C3.9 37.3 7.3 29 16.1 19.9 C22.7 13.1 25.5 1 34.1 1 C37.9 1 45.4 0.5 48.9 2.1 C56.9 5.8 59.7 15.5 64.5 19.8 C71.2 25.8 76.5 33.3 80.1 46 C84.1 59.9 80.8 73.6 78.8 86.7 C76.8 99.8 65 113.7 62 118.1 C58.9 122.5 49.8 119.6 46.2 121.3 C42.6 123 40.1 121.2 36.3 120.4 C32.5 119.6 24.8 123 19.2 118.1 C13.6 113.3 10 99.1 6.3 88.2 z" stroke="#000000" stroke-width="2" opacity="0.15" id="u" /></g><path d="M7.3 88.2 C3.7 77.8 -1.4 63.3 2.4 47.5 C4.9 37.3 8.3 29 17.1 19.9 C23.7 13.1 26.5 1 35.1 1 C38.9 1 46.4 0.5 49.9 2.1 C57.9 5.8 60.7 15.5 65.5 19.8 C72.2 25.8 77.5 33.3 81.1 46 C85.1 59.9 81.8 73.6 79.8 86.7 C77.8 99.8 66 113.7 63 118.1 C59.9 122.5 50.8 119.6 47.2 121.3 C43.6 123 41.1 121.2 37.3 120.4 C33.5 119.6 25.8 123 20.2 118.1 C14.6 113.3 11 99.1 7.3 88.2 z" id="v" fill="#C6A67D" /></g><g transform="translate(127.9293, 188.35) scale(0.8322131, 0.8825164) translate(-119.8, -178.4) translate(86.80001, 76.79997) translate(33, 103)" id="w"><g id="x"><path d="M48.8 34 C46.6 34 38.7 32 37.5 31.2 C33.2 28.2 31.8 27.2 27.1 23 C25.9 21.9 24.3 16.5 22.7 14.9 C17.2 9.4 9.6 -1.4 5.4 0.3 C5 0.5 4.3 2.6 3.8 3.9 C1.9 8.4 1.4 11.6 0.7 18 C0 24.4 1.5 39.1 2.2 43.1 C3.6 50.8 5.5 55.4 7.4 65.5 C9.3 75.6 10.8 87.1 9.2 89 C8.5 89.9 2.7 94.1 1.4 97.9 C1.1 98.8 1.4 103 2.6 104.9 C3.7 106.7 12 106.1 14.5 106.1 C19.4 106.1 28.6 105.2 30.9 103.9 C33.2 102.6 34.8 98.1 34.7 94.5 C34.6 90.9 32.3 75.9 32.9 59.9 C33 51.7 31.9 44 34 41.4 C34.5 40.8 36.1 42.5 37.6 43.7 C39.5 45.3 41.4 46.7 43.1 47.7 C46 49.4 47.8 50.4 48 50.4 C48.5 50.4 49.3 50.2 50.2 49.8 C51.5 49.3 53.2 48.9 54.5 48 C55.8 47.2 57.8 45.9 58.5 45.5 C60.8 43.9 63.1 41.5 64 42.4 C66.6 45 64.8 50.8 65.1 59.8 C65.7 75.7 63.5 90.8 63.3 94.4 C63.1 98 64.7 102.5 67.1 103.8 C69.5 105.1 78.6 106 83.5 106 C85.9 106 94.2 106.6 95.4 104.8 C96.5 102.9 96.9 98.8 96.6 97.8 C95.2 94 89.5 89.8 88.8 88.9 C87.2 87 88.8 72.3 90.7 62.2 C92.6 52.1 93.9 48.1 95.3 40.4 C96 36.4 96.9 24.8 96.9 18.8 C96.7 12.8 95.1 5.6 93.5 2.6 C92.9 0.9 93.1 -0.6 91.8 0.3 C89.4 2 84.5 7.4 82 10.8 C80.1 13.4 77.3 14.7 74.4 18 C72.3 20.3 70.4 25.9 68.5 27.6 C63.9 31.6 51 34 48.8 34 z" id="y" fill="#E8CCA2" /><path d="M5.4 0.1 C5 0.3 4.3 2.4 3.8 3.7 C1.9 8.2 1.4 11.4 0.7 17.8 C0 24.2 1.4 38.9 2.1 43 C2.1 43.1 2.1 43.2 2.2 43.3 C2.6 43.2 4.1 45 5.4 45.1 C7.1 45.3 8.5 43.7 8.7 41.5 C8.8 39.1 6.9 35.4 6.9 31.3 C6.8 24.8 8.8 17.5 10.6 14 C12.9 9.7 10.5 4.6 8.7 1.2 C7.4 0.2 6.3 -0.2 5.4 0.1 z" id="z" fill="#725C54" /><path d="M95.3 40.4 C96 36.4 96.9 24.8 96.9 18.8 C96.7 12.8 95.1 5.6 93.5 2.6 C92.9 0.9 93.1 -0.6 91.8 0.3 C91 0.8 90.1 1.8 89.1 3 C87.5 6.3 86.1 10.5 88 14.2 C89.8 17.6 89.9 27.7 89.1 34.9 C88.6 39.3 87.4 41.4 87.5 43.7 C87.9 50 93.5 46.7 94.1 46.3 C94.1 45.9 95.2 40.8 95.3 40.4 z" id="a1" fill="#725C54" /><g id="b1"><path d="M48.8 34 C51 34 63.9 31.6 68.5 27.6 C70.4 25.9 72.3 20.3 74.4 18 C77.3 14.7 80.1 13.4 82 10.8 C84.5 7.4 89.4 2 91.8 0.3 C93.1 -0.6 92.9 0.9 93.5 2.6 C95.1 5.6 96.7 12.8 96.9 18.8 C96.9 24.8 96 36.4 95.3 40.4 C93.9 48.1 92.6 52.1 90.7 62.2 C88.8 72.3 87.2 87 88.8 88.9 C89.5 89.8 95.2 94 96.6 97.8 C96.9 98.8 96.5 102.9 95.4 104.8 C94.2 106.6 85.9 106 83.5 106 C78.6 106 69.5 105.1 67.1 103.8 C64.7 102.5 63.1 98 63.3 94.4 C63.5 90.8 65.7 75.7 65.1 59.8 C64.8 50.8 66.6 45 64 42.4 C63.1 41.5 60.8 43.9 58.5 45.5 C57.8 45.9 55.8 47.2 54.5 48 C53.2 48.9 51.5 49.3 50.2 49.8 C49.3 50.2 48.5 50.4 48 50.4 C47.8 50.4 46 49.4 43.1 47.7 C41.4 46.7 39.5 45.3 37.6 43.7 C36.1 42.5 34.5 40.8 34 41.4 C31.9 44 33 51.7 32.9 59.9 C32.3 75.9 34.6 90.9 34.7 94.5 C34.8 98.1 33.2 102.6 30.9 103.9 C28.6 105.2 19.4 106.1 14.5 106.1 C12 106.1 3.7 106.7 2.6 104.9 C1.4 103 1.1 98.8 1.4 97.9 C2.7 94.1 8.5 89.9 9.2 89 C10.8 87.1 9.3 75.6 7.4 65.5 C5.5 55.4 3.6 50.8 2.2 43.1 C1.5 39.1 0 24.4 0.7 18 C1.4 11.6 1.9 8.4 3.8 3.9 C4.3 2.6 5 0.5 5.4 0.3 C9.6 -1.4 17.2 9.4 22.7 14.9 C24.3 16.5 25.9 21.9 27.1 23 C31.8 27.2 33.2 28.2 37.5 31.2 C38.7 32 46.6 34 48.8 34 z M48.8 36 C46.7 36 39.3 33.2 38.1 32.5 C34 29.7 30.6 28.5 26.1 24.5 C25 23.5 22.3 17.6 20.8 16.1 C15.6 10.9 11.8 1.7 7.8 3.3 C7.4 3.5 6.8 5.5 6.3 6.7 C4.5 10.9 4.1 13.9 3.4 20 C2.7 26.1 4.2 39.9 4.8 43.7 C6.1 51 7.9 55.3 9.7 64.8 C11.5 74.3 13.5 86.4 11.9 88.2 C11.9 90.1 4.5 94.9 3.9 96.6 C3.6 97.4 3.9 100.3 5.1 102.1 C6.1 103.8 14 103.2 16.3 103.2 C20.9 103.2 27.9 102.3 30 101 C32.1 99.7 32.8 94.2 32.7 90.8 C32.6 87.4 29.4 71.9 30 56.8 C30.1 49.1 30 39.8 32 37.4 C32.5 36.8 37.5 42 39 43.2 C40.8 44.7 47.9 48.3 48.7 47.9 C49.9 47.4 53.2 46.3 54.4 45.5 C55.6 44.7 59.7 41.6 60.4 41.3 C62.6 39.8 65.1 38.1 66.5 38.1 C68 40.2 67 51 67.3 59.5 C67.9 74.5 64.8 88.8 64.6 92.2 C64.4 95.6 65 99.9 67.3 101.1 C69.6 102.3 76.8 103.2 81.5 103.2 C83.8 103.2 91.5 104.9 92.6 103.2 C93.6 101.4 94.4 98.7 94.1 97.8 C92.8 94.2 87.8 91.8 87.2 90.9 C85.7 89.1 86.5 71.4 88.3 61.9 C90.1 52.4 91.3 48.6 92.6 41.3 C93.3 37.5 94.1 26.6 94.1 20.9 C94 15.1 92.5 8.3 91 5.4 C90.4 3.8 90.6 2.4 89.4 3.2 C87.1 4.8 83.9 10.2 81.6 13.4 C79.8 15.9 76.9 17.5 74.1 20.6 C72.1 22.8 71.2 27.1 69.4 28.7 C65 32.6 50.9 36 48.8 36 z" fill-opacity="0.3" id="c1" /></g></g></g></g><g transform="translate(168.6, 187.9) scale(0.9692134) translate(-168.6, -187.9)" id="d1"><g transform="translate(107.4, 105.6) translate(26, 0)" id="e1"><path d="M35.2 0.9 C35.2 0.9 35.1 0.9 35.2 0.9 C35.1 0.9 35 0.9 35 0.9 C20.8 0.9 0.5 4.6 0.5 30.1 C0.5 43.2 5.9 44 10.2 52.1 C12.9 57.1 14.2 61.2 15.4 72.3 C16.5 83.1 22.6 86 35.1 86 C47.6 86 53.7 83 54.8 72.3 C55.9 61.1 57.3 57.1 60 52.1 C64.3 44 69.7 43.3 69.7 30.1 C69.7 4.6 49.4 0.9 35.2 0.9 z" id="f1" fill="#725C54" /><path d="M35.2 0.9 C49.4 0.9 69.7 4.6 69.7 30.1 C69.7 43.3 64.3 44 60 52.1 C57.3 57.1 55.9 61.1 54.8 72.3 C53.7 83 47.6 86 35.1 86 C22.6 86 16.5 83.1 15.4 72.3 C14.2 61.2 12.9 57.1 10.2 52.1 C5.9 44 0.5 43.2 0.5 30.1 C0.5 4.6 20.8 0.9 35 0.9 C35 0.9 35.1 0.9 35.2 0.9 C35.1 0.9 35.2 0.9 35.2 0.9 z M35.2 1.5 C35.2 1.5 35.1 1.5 35.2 1.5 C35.1 1.5 35 1.5 35 1.5 C21.3 1.5 1.8 5 1.8 29.6 C1.8 42.2 7 43 11.1 50.8 C13.7 55.6 15 59.6 16.1 70.3 C17.2 80.7 23 83.5 35.1 83.5 C47.2 83.5 53 80.6 54.1 70.3 C55.2 59.5 56.5 55.7 59.1 50.8 C63.2 43 68.4 42.3 68.4 29.6 C68.4 5 48.9 1.5 35.2 1.5 z" opacity="0.15" id="g1" /></g><g transform="translate(139.1, 122.2) scale(0.6) translate(-139.1, -122.2) translate(102.9, 101.9)" id="h1"><g id="i1"><path d="M43.8 4.7 C43.8 4.7 46 6.8 47.8 8.8 C51.2 12.7 49.4 16.5 45.6 18.1 C43.1 19.2 40.1 20.6 38 22.9 C35.6 25.5 33 28 31.3 30.2 C29.5 32.5 27.2 34.1 25 33.6 C19.8 32.4 15.4 21.2 17.5 17.2 C20.9 10.8 43.8 4.7 43.8 4.7 z" id="j1" fill="#725C54" /><path d="M18.4 16 C18.4 15.8 18.5 15.5 18.6 15.3 C21 10.9 32.4 7.6 38.3 6.3 C41.5 5.3 43.8 4.7 43.8 4.7 C43.8 4.7 46 6.8 47.8 8.8 C51.2 12.7 49.4 16.5 45.6 18.1 C43.1 19.2 40.1 20.6 38 22.9 C35.6 25.5 33 28 31.3 30.2 C29.5 32.5 27.2 34.1 25 33.6 C19.8 32.4 15.4 21.2 17.5 17.2 C17.7 16.8 18 16.4 18.4 16 z M18.4 16 C17.1 20.2 20.7 29.6 25.3 30.7 C27.4 31.2 29.2 30.1 30.9 27.9 C32.5 25.9 35.2 23.7 37.4 21.3 C39.4 19.1 43.2 17.6 45.5 16.6 C49 15.1 49 11.9 45.8 8.3 C44.1 6.4 42.9 5.7 41.8 5.7 C41.6 5.7 40.2 5.9 38.3 6.3 C32 8.4 21.9 12.1 18.4 16 z" opacity="0.2" id="k1" /><path d="M45.2 6 C36.5 -2.4 38.1 3.6 23.1 0.9 C8.1 -1.8 -4.2 15.2 2 35.3 C7.5 53.2 8 60.6 11.3 60.6 C17 60.6 19.2 40 27.1 24.3 C33 12.9 45.2 6 45.2 6 z" id="l1" fill="#B58164" /><path d="M45.2 6 C45.2 6 33 12.9 27.1 24.3 C19.2 40 17 60.6 11.3 60.6 C8 60.6 7.5 53.2 2 35.3 C-4.2 15.2 8.1 -1.8 23.1 0.9 C38.1 3.6 36.5 -2.4 45.2 6 z M43 6 C35 -1.7 36.4 3.8 22.6 1.3 C8.7 -1.2 -1.9 14.5 3.9 33.1 C9 49.7 9.1 55.4 12.1 55.4 C17.4 55.4 17.9 38 25.3 23.5 C30.7 13 43 6 43 6 z" opacity="0.15" id="m1" /></g></g><g transform="translate(197.7, 122.2) scale(0.6) translate(-197.7, -122.2) translate(108.9, 101.9) translate(100, 30.5) scale(-1, 1) translate(-100, -30.5) translate(75, 0)" id="n1"><g id="o1"><path d="M43.8 4.7 C43.8 4.7 46 6.8 47.8 8.8 C51.2 12.7 49.4 16.5 45.6 18.1 C43.1 19.2 40.1 20.6 38 22.9 C35.6 25.5 33 28 31.3 30.2 C29.5 32.5 27.2 34.1 25 33.6 C19.8 32.4 18.1 20.4 20.4 16.7 C23.9 11.1 43.8 4.7 43.8 4.7 z" id="p1" fill="#725C54" /><path d="M24.7 13 C30.9 8.8 43.1 4.9 43.1 4.9 C43.1 4.9 43.1 4.9 43.1 4.9 C43.6 4.8 43.8 4.7 43.8 4.7 C43.8 4.7 46 6.8 47.8 8.8 C51.2 12.7 49.4 16.5 45.6 18.1 C43.1 19.2 40.1 20.6 38 22.9 C35.6 25.5 33 28 31.3 30.2 C29.5 32.5 27.2 34.1 25 33.6 C19.8 32.4 18.1 20.4 20.4 16.7 C21.2 15.5 22.7 14.2 24.7 13 z M24.7 13 C23.2 14 22.1 14.9 21.5 15.9 C19.4 19.3 21 30.4 25.8 31.5 C27.8 31.9 29.9 30.4 31.6 28.3 C33.1 26.3 35.5 24 37.7 21.6 C39.7 19.5 42.4 18.2 44.7 17.2 C48.2 15.7 49.9 12.2 46.7 8.6 C45.3 7 43.5 5.3 43.1 4.9 C40.5 5.8 30.7 9.2 24.7 13 z" opacity="0.2" id="q1" /><path d="M45.2 6 C36.5 -2.4 38.1 3.6 23.1 0.9 C8.1 -1.8 -4.2 15.2 2 35.3 C7.5 53.2 8 60.6 11.3 60.6 C17 60.6 19.2 40 27.1 24.3 C33 12.9 45.2 6 45.2 6 z" id="r1" fill="#B58164" /><path d="M45.2 6 C45.2 6 33 12.9 27.1 24.3 C19.2 40 17 60.6 11.3 60.6 C8 60.6 7.5 53.2 2 35.3 C-4.2 15.2 8.1 -1.8 23.1 0.9 C38.1 3.6 36.5 -2.4 45.2 6 z M43.6 5.8 C37.3 -0.8 36.7 4 22.9 1.5 C9 -1 -1.7 15.6 4 34.3 C9.1 50.9 8.3 56.1 11.4 56.1 C16.6 56.1 15.6 40.4 26.3 23.3 C31.7 12.7 43.6 5.8 43.6 5.8 z" opacity="0.15" id="s1" /></g></g><g transform="translate(168.5, 159.3999) scale(0.6, 0.8) translate(-168.5, -159.3999)" id="t1"><g transform="translate(102.1, 90.49995) translate(21, 46)" id="u1"><g transform="translate(0, 18)" id="v1"><path d="M10.2 45.1 C-3.3 37.9 0.5 36.4 0.5 32.5 C0.5 28.6 4.2 16.6 12.2 12 C20.1 7.3 38.5 0.7 39.6 0.3 C40.7 -0.1 57.5 -0.5 60 2 C62.6 4.4 71.8 6.8 77.1 11.7 C82.4 16.7 87 25.3 87.4 26.6 C87.8 27.9 88.3 32.6 85.5 37.2 C82.7 41.9 84.1 41.9 76.2 45.2 C66 49.6 23.7 52.3 10.2 45.1 z" id="w1" fill="#806456" /><path d="M10.2 45.1 C-3.3 37.9 0.5 36.4 0.5 32.5 C0.5 28.6 4.2 16.6 12.2 12 C20.1 7.3 38.5 0.7 39.6 0.3 C40.7 -0.1 57.5 -0.5 60 2 C62.6 4.4 71.8 6.8 77.1 11.7 C82.4 16.7 87 25.3 87.4 26.6 C87.8 27.9 88.3 32.6 85.5 37.2 C82.7 41.9 84.1 41.9 76.2 45.2 C66 49.6 23.7 52.3 10.2 45.1 z M12.9 42.5 C25.3 49.1 64.2 46.6 73.6 42.6 C80.9 39.6 79.6 39.6 82.1 35.2 C84.7 31 84.2 26.7 83.8 25.5 C83.4 24.3 79.2 16.4 74.3 11.8 C69.5 7.3 61.1 5 58.7 2.8 C56.4 0.5 41 0.9 39.9 1.3 C38.9 1.6 22 7.7 14.8 12 C7.4 16.3 4 27.3 4 30.9 C4 34.5 0.5 35.8 12.9 42.5 z" opacity="0.15" id="x1" /><path d="M31 18.5 C32.1 18.5 32.6 19.5 32.6 21.4 L27.8 21.4 L27.8 19.9 C28.9 18.9 30 18.5 31 18.5 z" id="y1" fill="#52403A" /><path d="M15 25.1 C16.1 25.1 16.6 26.1 16.6 28 L11.8 28 L11.8 26.5 C12.9 25.6 14 25.1 15 25.1 z" id="z1" fill="#52403A" /><path d="M30.8 28.1 C31.9 28.1 32.4 29.1 32.4 31 L27.6 31 L27.6 29.5 C28.7 28.6 29.8 28.1 30.8 28.1 z" id="a2" fill="#52403A" /><path d="M59.6 19.2 C60.7 19.2 61.2 20.2 61.2 22.1 L56.4 22.1 L56.4 20.6 C57.5 19.7 58.6 19.2 59.6 19.2 z" id="b2" fill="#52403A" /><path d="M59.6 29.1 C60.7 29.1 61.2 30.1 61.2 32 L56.4 32 L56.4 30.5 C57.5 29.6 58.6 29.1 59.6 29.1 z" id="c2" fill="#52403A" /><path d="M71.5 25.1 C72.6 25.1 73.1 26.1 73.1 28 L68.3 28 L68.3 26.5 C69.4 25.6 70.5 25.1 71.5 25.1 z" id="d2" fill="#52403A" /></g></g><g transform="translate(102.2, 115.2999) translate(38, 64)" id="e2"><g id="f2"><path d="M40.7 9.3 C36.3 7.2 33.8 11.5 29 11.5 C28.5 11.5 26.5 11.5 26 11.5 C21.2 11.6 18.7 7.3 14.3 9.3 C9.4 11.6 -0.1 5.3 0.5 6.2 C0.9 11.3 6.5 16.8 9.4 16.6 C10.4 16.5 14.1 16.3 15 16 C18.8 14.7 23.5 20.9 27.6 20.9 C31.7 20.9 36.3 14.7 40.1 16 C41 16.3 44.7 16.5 45.7 16.6 C48.5 16.8 54.2 11.3 54.6 6.2 C55.1 5.3 45.6 11.6 40.7 9.3 z" id="g2" fill="#965622" /><path d="M51.4 3.1 C50.2 3.8 48.8 6.6 46.8 7.6 C45.9 8.1 43.9 8.4 42.3 8 C41.3 7.4 40.1 6.6 38.6 5.6 C35.3 3.3 31.6 0.7 27.5 0.7 C23.4 0.7 19.7 3.3 16.4 5.6 C14.9 6.6 13.8 7.4 12.7 8 C11 8.4 9 8.1 8.1 7.7 C6.2 6.7 4.8 3.9 3.5 3.2 C2.4 2.5 0.2 3.8 0.2 5.3 C0 10.6 8.1 12.8 10.9 11.9 C12 11.7 13.1 11.3 14.3 10.7 C16.5 12 19.9 15.9 27.5 16.2 C35.1 16.5 38.5 12 40.7 10.7 C41.8 11.3 42.9 11.8 44 11.9 C46.8 12.8 54.9 10.6 54.7 5.3 C54.7 3.7 52.5 2.4 51.4 3.1 z" id="h2" fill="#282421" /><path d="M36.4 8.8 C36.2 7.9 35.1 7.4 34.2 7.2 C32 6.5 29.7 5.8 27.5 5.9 C25.2 5.8 23 6.5 20.8 7.2 C19.9 7.5 18.9 7.9 18.6 8.8 C18.4 9.7 18 11.8 18.7 12.4 C20.3 13.7 19.2 18.9 27.5 18.9 C35.8 18.9 34.6 13.8 36.2 12.4 C37 11.7 36.6 9.7 36.4 8.8 z" id="i2" fill="#CE5253" /></g></g><g transform="translate(89.89999, 87.89995) translate(68, 59)" id="j2"><g id="k2"><path d="M11.1 0.8 C15.4 0.8 16.5 1.2 19.7 3.5 C22.9 5.8 21.6 9.8 20.2 12.2 C19.7 13 18.6 13.6 17.6 14.9 C16.8 15.9 16.1 17.7 15.2 18.3 C13.9 19.2 12.7 19.6 10.9 19.5 C9.1 19.5 7.6 19 6.4 18.3 C4.4 17.1 3.9 15.5 3.1 14 C2.6 13.1 1.1 11.7 0.7 10.5 C0 8.5 -0.3 6.3 0.9 4.4 C2.9 1.4 6.7 0.8 11.1 0.8 z" id="l2" fill="#282421" /><path d="M3.2 4.8 C3.2 5.2 5.1 4.3 7.3 3.9 C8.3 3.7 9.4 3.6 10.9 3.6 C12.4 3.6 14.7 4.6 14.3 5.2 C13.7 6.1 14.1 7.5 15.7 7.9 C16.4 8 17 8 17.9 7.7 C18.8 7.3 19 6.7 19.1 6.1 C19.2 5.5 19.2 4.7 17.9 4 C17.6 3.8 16.2 2.8 14.4 2.6 C12.2 2.4 10.4 2.4 8.8 2.6 C7.2 2.8 6 3 5.1 3.4 C3.8 4 3.2 4.6 3.2 4.8 z" id="m2" fill="#FFF" /></g></g><g transform="translate(150.9999, 138.2999) scale(1.2) translate(-150.9999, -138.2999) translate(-288.1, 59.89995) translate(43, 64)" id="n2"><path d="M402.1 16.9 C403.3 14.6 402.9 13.9 402.9 12.1 C402.9 10.3 402.7 8.4 400.1 7 C396.5 5.3 392.3 5.2 389.8 6.5 C386.4 8.3 383.6 10 384.3 11.5 C385.1 13.2 388 17.1 389.4 17.9 C392.1 19.5 396.1 20.2 398.2 19.7 C399.8 19.3 401.2 18.7 402.1 16.9 z" id="o2" fill="#CAC3C0" /><path d="M401.2 18.1 C402 17.4 401.6 14.8 401.2 13.6 C400.7 12.5 399.2 10.9 397 10.3 C394.1 9.6 393.6 9.7 391.1 10 C389.8 10.1 388.6 9.9 388.2 10.6 C387.6 11.3 387.5 12.5 387.9 13.6 C388.3 14.7 388.4 15.3 389.1 16.1 C389.8 17 390.7 17.7 391.3 18.1 C393.5 19.3 396.8 19.9 398.5 19.5 C399.7 19.2 400.4 18.8 401.2 18.1 z" id="p2" fill="#1F2123" /><path d="M396 16.2 C394.9 16.2 393.9 15.3 393.9 14.2 C393.8 13.1 394 12.5 395 12.7 C395.9 12.8 396.6 12.9 396.9 13.1 C397.8 13.5 397.8 13.2 397.9 14.1 C398 14.5 397.9 14.8 397.8 15 C397.5 15 397 14.7 396.3 14.4 C396.5 15.2 396.6 15.7 396.7 16.1 C396.3 16.3 396.4 16.2 396 16.2 z" id="q2" fill="#FFF" /></g><g transform="translate(188.1999, 138.7) scale(1.2) translate(-188.1999, -138.7) translate(-284.7, 60.29996) translate(82, 64)" id="r2"><path d="M384.3 16.9 C383.1 14.6 383.5 13.9 383.5 12.1 C383.5 10.3 383.7 8.4 386.3 7 C389 5.6 392.8 5.6 396.6 6.5 C400.4 7.4 402.8 10 402.1 11.5 C401.3 13.2 398.4 17.1 397 17.9 C394.3 19.5 390.3 20.2 388.2 19.7 C386.6 19.3 385.2 18.7 384.3 16.9 z" id="s2" fill="#CAC3C0" /><path d="M385.2 18.1 C384.4 17.4 384.8 14.8 385.2 13.6 C385.7 12.5 387.2 10.9 389.4 10.3 C392.3 9.6 392.8 9.7 395.3 10 C396.6 10.1 397.8 9.9 398.2 10.6 C398.8 11.3 398.9 12.5 398.5 13.6 C398.1 14.7 398 15.3 397.3 16.1 C396.6 17 395.7 17.7 395.1 18.1 C392.9 19.3 389.6 19.9 387.9 19.5 C386.7 19.2 386 18.8 385.2 18.1 z" id="t2" fill="#1F2123" /><path d="M390.4 16.2 C391.5 16.2 392.5 15.3 392.5 14.2 C392.6 13.1 392.4 12.5 391.4 12.7 C390.5 12.8 389.8 12.9 389.5 13.1 C388.6 13.5 388.6 13.2 388.5 14.1 C388.4 14.5 388.5 14.8 388.6 15 C388.9 15 389.4 14.7 390.1 14.4 C389.9 15.2 389.8 15.7 389.7 16.1 C390.1 16.3 390 16.2 390.4 16.2 z" id="u2" fill="#FFF" /></g></g></g></g></g><defs><g transform="translate(17.09519, 0.800995) translate(-135.2952, -293.601)" id="v2" fill="#000"><path d="M118.2 302.7 C118.4 307.4 132.5 311.2 149.8 311.2 C167.1 311.2 181.2 307.4 181.4 302.7 C181.4 307.5 181.4 310.1 181.4 310.5 C181.4 315.3 167.3 319.1 149.8 319.1 C132.3 319.1 118.2 315.2 118.2 310.5 L118.2 302.7 L118.2 302.7 z" fill-opacity="0.4528" id="w2" fill="#593001" /><path d="M118.7 301.7 C118.9 306.4 133 310.2 150.3 310.2 C167.6 310.2 181.7 306.4 181.9 301.7 C181.9 306.5 181.9 309.1 181.9 309.5 C181.9 314.3 167.8 318.1 150.3 318.1 C132.8 318.1 118.7 314.2 118.7 309.5 L118.7 301.7 L118.7 301.7 z" id="x2" fill="#DA8113" /><linearGradient x1="46.0545" y1="-118.6926" x2="45.4656" y2="-118.6926" gradientUnits="userSpaceOnUse" gradientTransform="matrix(117.135, 0, 0, 28.4634, -5208.417, 3687.795)" id="y2"><stop offset="0%" stop-color="#D9952A" stop-opacity="1" /><stop offset="6.438854%" stop-color="#CA7519" stop-opacity="1" /><stop offset="30.54%" stop-color="#E3AD3A" stop-opacity="1" /><stop offset="51.05%" stop-color="#FFEC91" stop-opacity="1" /><stop offset="68.8%" stop-color="#E9BD44" stop-opacity="1" /><stop offset="86.24%" stop-color="#FFED6C" stop-opacity="1" /><stop offset="93.87%" stop-color="#F2D353" stop-opacity="1" /><stop offset="100%" stop-color="#F2B947" stop-opacity="1" /></linearGradient><path d="M118.2 301.6 C118.4 306.1 132.7 309.7 150.3 309.7 C167.9 309.7 182.2 306.1 182.4 301.6 C182.4 306.2 182.4 308.7 182.4 309 C182.4 313.5 168 317.2 150.3 317.2 C132.6 317.2 118.2 313.5 118.2 309 L118.2 301.6 L118.2 301.6 z" id="z2" style="fill:url(#y2)" /><linearGradient x1="45.4914" y1="-117.9547" x2="45.9407" y2="-117.5895" gradientUnits="userSpaceOnUse" gradientTransform="matrix(115.425, 0, 0, 29.925, -5125.077, 3826.124)" id="a3"><stop offset="0%" stop-color="#F4E072" stop-opacity="1" /><stop offset="100%" stop-color="#DB9427" stop-opacity="1" /></linearGradient><ellipse cx="150.3" cy="301.5" rx="31.6" ry="8.2" id="b3" style="fill:url(#a3)" /><linearGradient x1="45.4656" y1="-126.0065" x2="46.0545" y2="-126.0065" gradientUnits="userSpaceOnUse" gradientTransform="matrix(117.135, 0, 0, 18.6219, -5208.417, 2651.479)" id="c3"><stop offset="0%" stop-color="#D9952A" stop-opacity="1" /><stop offset="6.438854%" stop-color="#CA7519" stop-opacity="1" /><stop offset="30.54%" stop-color="#E3AD3A" stop-opacity="1" /><stop offset="51.05%" stop-color="#FFEC91" stop-opacity="1" /><stop offset="68.8%" stop-color="#E9BD44" stop-opacity="1" /><stop offset="86.24%" stop-color="#FFED6C" stop-opacity="1" /><stop offset="93.87%" stop-color="#F2D353" stop-opacity="1" /><stop offset="100%" stop-color="#F2B947" stop-opacity="1" /></linearGradient><path d="M119.2 299.9 C119 300.2 118.9 300.6 118.9 301 C118.9 305.5 132.9 309.2 150.3 309.2 C167.7 309.2 181.7 305.5 181.7 301 C181.7 300.6 181.6 300.3 181.4 299.9 C182 300.5 182.4 301.2 182.4 301.9 C182.4 306.4 168 310.1 150.3 310.1 C132.6 310.1 118.2 306.4 118.2 301.9 C118.2 301.3 118.6 300.6 119.2 299.9 z" id="d3" style="fill:url(#c3)" /><linearGradient x1="45.196" y1="-121.5895" x2="45.3746" y2="-120.6758" gradientUnits="userSpaceOnUse" gradientTransform="matrix(101.745, 0, 0, 23.94, -4458.332, 3199.41)" id="e3"><stop offset="0%" stop-color="#F8DD61" stop-opacity="1" /><stop offset="100%" stop-color="#EAA330" stop-opacity="1" /></linearGradient><ellipse cx="150.3" cy="300.8" rx="27.8" ry="6.6" id="f3" style="fill:url(#e3)" /><linearGradient x1="45.5694" y1="-134.267" x2="45.0221" y2="-134.267" gradientUnits="userSpaceOnUse" gradientTransform="matrix(101.745, 0, 0, 13.2525, -4458.332, 2077.223)" id="g3"><stop offset="0%" stop-color="#F4CA2F" stop-opacity="1" /><stop offset="51.38%" stop-color="#BF7737" stop-opacity="1" /><stop offset="100%" stop-color="#E4A929" stop-opacity="1" /></linearGradient><path d="M122.6 301.5 C122.5 301.3 122.4 301 122.4 300.8 C122.4 297.2 134.9 294.2 150.2 294.2 C165.5 294.2 178 297.1 178 300.8 C178 301 177.9 301.3 177.8 301.5 C176.3 298.2 164.5 295.6 150.1 295.6 C135.7 295.6 124.1 298.2 122.6 301.5 z" id="h3" style="fill:url(#g3)" /></g></defs><desc>I7CBAG2H54F,BZDtPNRrMsN+0ZxslGuKuxRJnjL1TVRShSNxVvBs3BPDsMYmq0j7WN+edh8rhEN6dSaNByPr4oBKltF7kBpGQUdo2zoeBvezzUdYUHDASv0=</desc></svg>