<?xml version="1.0" encoding="utf-8"?><!DOCTYPE svg PUBLIC "-//W3C//DTD SVG 1.1//EN" "http://www.w3.org/Graphics/SVG/1.1/DTD/svg11.dtd"><svg x="0" y="0" width="340px" height="340px" viewBox="0, 0, 340, 340" preserveAspectRatio="xMidYMid" font-size="0" id="a" enable-background="new 0 0 340 340" xmlns="http://www.w3.org/2000/svg" xmlns:xlink="http://www.w3.org/1999/xlink" xmlns:xml="http://www.w3.org/XML/1998/namespace" version="1.1"><g id="b" fill="#000"><g id="c"><g transform="translate(0, 0) translate(0, 224)" id="d"><ellipse cx="168.6" cy="53.1" rx="57.8" ry="12.8" fill-opacity="0.25" id="e" /></g><g id="f"><g transform="translate(116.2, 110.4) translate(13, 118.5) scale(-1, 1) translate(-13, -118.5) translate(0, 96)" id="g"><g id="h"><path d="M20.6 11.4 C22.5 12.3 22.3 15.9 21.6 17.9 C18.7 25.8 15.6 34.5 11.6 40.9 C10.5 42.7 7.1 47 2.8 43.1 C-1.5 39.2 3 33.1 4.4 30.2 C7.5 23.6 11.9 19.3 15.9 12.9 C16.7 11.5 17.9 10.2 20.6 11.4 z" id="i" fill="#594F46" /><path d="M18.7 8.1 C20.6 4.4 22.5 -0.3 25.2 1 C27.1 1.9 25 9.2 23.9 12.2 C23.1 14.1 22.4 16.2 21.6 18.3 C20 15 18.2 12.9 16 13.1 C16.7 11.5 17.7 9.9 18.7 8.1 z" id="j" fill="#35302C" /><path d="M21.5 18.1 C18.6 26 15.6 34.6 11.6 40.9 C10.5 42.7 7.1 47 2.8 43.1 C-1.5 39.2 3 33.1 4.4 30.2 C7.5 23.6 11.9 19.3 15.9 12.9 C16.1 12.6 16.3 12.2 16.5 12 C17.2 10.7 17.9 9.5 18.7 8.1 C20.6 4.4 22.5 -0.3 25.2 1 C27.1 1.9 25 9.2 23.9 12.2 C23.1 14.1 22.4 16.2 21.6 18.3 C21.6 18.2 21.5 18.2 21.5 18.1 z M19.6 19.2 C21.2 16.5 22.2 14.6 22.6 13.5 C23.6 10.8 25.8 4.9 24.5 2.5 C22.8 -0.6 20.5 6.5 18.9 9.8 C18.2 11 17.4 12.4 16.9 13.5 C16.7 13.7 14.9 16.5 14.7 16.8 C11.2 22.4 8.2 23.5 5.5 29.3 C4.3 31.8 0.3 37.2 4.1 40.6 C7.9 44.1 8.8 39.4 9.8 37.8 C13.2 32.3 17.1 26.1 19.6 19.2 z" opacity="0.15" id="k" /></g></g><g transform="translate(127.02, 273.0999) scale(0.5490196) translate(-123.7, -273.0999) translate(89.10001, 85.59996) translate(28, 124)" id="l"><path d="M50.5 28.2 C50.5 14.3 19.2 -3.5 9.2 1 C8 1.6 6.8 2.4 5.7 3.4 C3.3 5.6 1.3 9.8 0.9 13 C0.7 14.5 1.4 14.8 1.4 16.4 C1.5 18.2 1.6 22.4 1.9 24.1 C2.1 25.3 2.9 23 3.2 24.1 C3.7 25.9 3.9 28.6 4.4 29.9 C5 31.4 6.8 35.4 7.1 35.8 C7.5 36.4 7.2 35.1 8.7 37.9 C9.2 38.8 9.6 38.5 10.1 39.6 C10.5 40.3 11.2 45.8 11.6 46.5 C12.3 47.8 12.7 45.8 13.5 47.3 C14.2 48.6 14.9 50 15.6 51.5 C8.3 54.2 4.7 57.4 4.7 61.1 C4.7 62.8 4.7 65.1 6.4 66.4 C7.7 67.4 37.5 67.9 38.9 65.1 C40.7 60 34.3 53.8 39.7 45.1 C43.7 38.5 50.5 37.5 50.5 28.2 z" id="m" fill="#35302C" /><path d="M50.5 28.2 C50.5 37.5 43.7 38.5 39.7 45.1 C34.3 53.8 40.7 60 38.9 65.1 C37.5 67.9 7.7 67.4 6.4 66.4 C4.7 65.1 4.7 62.8 4.7 61.1 C4.7 57.4 8.3 54.2 15.6 51.5 C14.9 50 14.2 48.6 13.5 47.3 C12.7 45.8 12.3 47.8 11.6 46.5 C11.2 45.8 10.5 40.3 10.1 39.6 C9.6 38.5 9.2 38.8 8.7 37.9 C7.2 35.1 7.5 36.4 7.1 35.8 C6.8 35.4 5 31.4 4.4 29.9 C3.9 28.6 3.7 25.9 3.2 24.1 C2.9 23 2.1 25.3 1.9 24.1 C1.6 22.4 1.5 18.2 1.4 16.4 C1.4 14.8 0.7 14.5 0.9 13 C1.3 9.8 3.3 5.6 5.7 3.4 C6.8 2.4 8 1.6 9.2 1 C19.2 -3.5 50.5 14.3 50.5 28.2 z M48.3 27.1 C48.3 14.2 19.8 -2.2 10.7 2 C9.6 2.5 8.5 3.3 7.5 4.2 C5.3 6.2 3.5 10.1 3.1 13 C3 14.4 3.6 14.7 3.6 16.2 C3.7 17.8 3.8 21.7 4.1 23.3 C4.2 24.4 5 22.3 5.2 23.3 C5.7 24.9 5.9 27.4 6.3 28.6 C6.9 30 8.5 33.7 8.8 34.1 C9.1 34.6 8.9 33.4 10.2 36 C10.7 36.8 11.1 36.5 11.5 37.6 C11.9 38.2 12.5 43.3 12.9 43.9 C13.5 45.1 13.9 43.3 14.6 44.7 C15.2 45.9 18.5 50.2 19.1 51.6 C12.5 54.1 7.3 55.8 7.3 59.2 C7.3 60.8 6.6 61.1 8.1 62.3 C9.3 63.2 35.1 64.3 36.4 61.7 C38 57 33.5 50.7 38.4 42.6 C42.1 36.5 48.3 35.6 48.3 27.1 z" opacity="0.15" id="n" /></g><g transform="translate(214.38, 273.0999) scale(0.5490196) translate(-217.7, -273.0999) translate(86.20001, 85.59996) translate(113.5, 158) scale(-1, 1) translate(-113.5, -158) translate(89, 125)" id="o"><path d="M48.2 28.3 C48.2 14.6 24.6 -4.1 9.2 1 C8 1.6 6.8 2.3 5.7 3.3 C3.3 5.4 1.3 9.6 0.9 12.8 C0.7 14.3 1.4 14.5 1.4 16.1 C1.5 17.9 1.6 22 1.9 23.7 C2.1 24.9 2.9 22.6 3.2 23.7 C3.7 25.5 3.9 28.2 4.4 29.4 C5 30.9 6.8 34.9 7.1 35.2 C7.5 35.8 7.2 34.5 8.7 37.3 C9.2 38.2 9.6 37.9 10.1 39 C10.5 39.7 11.2 45.1 11.6 45.8 C12.3 47.1 12.7 45.1 13.5 46.6 C14.2 47.9 14.9 49.3 15.6 50.8 C8.3 53.5 4.7 56.6 4.7 60.3 C4.7 62 4.7 64.2 6.4 65.5 C7.7 66.5 39.4 65.8 40.8 63 C43.8 59.4 34.2 43.1 39.2 39.8 C44.4 37.6 48.2 34.7 48.2 28.3 z" id="p" fill="#35302C" /><path d="M48.2 28.3 C48.2 34.7 44.4 37.6 39.2 39.8 C34.2 43.1 43.8 59.4 40.8 63 C39.4 65.8 7.7 66.5 6.4 65.5 C4.7 64.2 4.7 62 4.7 60.3 C4.7 56.6 8.3 53.5 15.6 50.8 C14.9 49.3 14.2 47.9 13.5 46.6 C12.7 45.1 12.3 47.1 11.6 45.8 C11.2 45.1 10.5 39.7 10.1 39 C9.6 37.9 9.2 38.2 8.7 37.3 C7.2 34.5 7.5 35.8 7.1 35.2 C6.8 34.9 5 30.9 4.4 29.4 C3.9 28.2 3.7 25.5 3.2 23.7 C2.9 22.6 2.1 24.9 1.9 23.7 C1.6 22 1.5 17.9 1.4 16.1 C1.4 14.5 0.7 14.3 0.9 12.8 C1.3 9.6 3.3 5.4 5.7 3.3 C6.8 2.3 8 1.6 9.2 1 C24.6 -4.1 48.2 14.6 48.2 28.3 z M46.8 27.4 C46.8 14.6 24.6 -2.9 10.1 1.9 C9 2.4 7.8 3.1 6.8 4 C4.5 6 2.7 9.9 2.3 12.9 C2.1 14.3 2.8 14.5 2.8 16 C2.9 17.7 2.9 21.5 3.2 23.1 C3.4 24.2 4.2 22 4.5 23.1 C4.9 24.7 5.1 27.3 5.6 28.4 C6.1 29.8 7.8 33.5 8.1 33.8 C8.5 34.4 8.2 33.2 9.6 35.8 C10.1 36.6 10.5 36.3 10.9 37.4 C11.3 38 12 43 12.4 43.7 C13 44.9 13.4 43 14.1 44.5 C14.8 45.7 17.4 50.6 18 52 C11.1 54.5 6.8 55.5 6.8 59 C6.8 60.5 7.7 61.4 9.3 62.6 C10.5 63.6 36.9 63.1 38.2 60.4 C41.1 57.1 33.6 41.2 38.3 38.1 C43.2 36 46.8 33.3 46.8 27.4 z" opacity="0.15" id="q" /></g><g transform="translate(110.1, 106.6) translate(14, 81)" id="r"><path d="M9.9 30.9 C4.8 38.8 -1.2 50.8 6 63.6 C8.7 68.5 11 75 12.2 79.1 C13.7 84.5 18.4 88.5 24 89.2 C30.5 90 37.9 90.4 45.9 90.4 C54.4 90.4 62.1 90 69.2 89.1 C74.9 88.4 79.6 84.3 81 78.8 C82.4 73.6 83.9 67.3 86.2 63.7 C91.5 55.6 87.6 38 79 29.5 C76.9 27.5 73.7 26.7 70.3 24.6 C63.2 20.4 62.4 0.2 43.1 0.8 C26.9 0.6 25.8 21.5 20.7 24.7 C16 27.6 11.8 27.9 9.9 30.9 z" id="s" fill="#453D37" /><path d="M9.9 30.9 C11.8 27.9 16 27.6 20.7 24.7 C25.8 21.5 26.9 0.6 43.1 0.8 C62.4 0.2 63.2 20.4 70.3 24.6 C73.7 26.7 76.9 27.5 79 29.5 C87.6 38 91.5 55.6 86.2 63.7 C83.9 67.3 82.4 73.6 81 78.8 C79.6 84.3 74.9 88.4 69.2 89.1 C62.1 90 54.4 90.4 45.9 90.4 C37.9 90.4 30.5 90 24 89.2 C18.4 88.5 13.7 84.5 12.2 79.1 C11 75 8.7 68.5 6 63.6 C-1.2 50.8 4.8 38.8 9.9 30.9 z M11.6 30.6 C6.7 38.1 1 49.6 7.9 61.8 C10.5 66.5 12.7 72.7 13.8 76.6 C15.2 81.7 19.7 85.6 25 86.2 C31.2 87 38.2 87.3 45.9 87.3 C54 87.3 61.3 86.9 68.1 86.1 C73.5 85.4 78 81.5 79.3 76.3 C80.6 71.3 82.1 65.3 84.3 61.9 C89.4 54.2 85.6 37.4 77.4 29.3 C75.4 27.4 72.3 26.6 69.1 24.6 C62.3 20.6 61.6 1.3 43.2 1.9 C27.8 1.7 26.7 21.6 21.9 24.7 C17.4 27.4 13.4 27.7 11.6 30.6 z" opacity="0.15" id="t" /></g><g transform="translate(130.465, 214.8) scale(0.9, 0.6492468) translate(-126.1, -209.0999) translate(110.8, 126.3) translate(59, 136) scale(-1, 1) translate(-59, -136) translate(16, 84)" id="u"><path d="M10.2 21.5 C10.3 21.2 21.2 -0.7 27.1 1.2 C31.4 2.6 35.1 7.2 36.8 10.5 C38.5 13.8 43 34.1 39.9 40.8 C37.7 45.5 33.3 46.5 28.3 45.3 C28 49 27.7 51.8 27.2 53.1 C26.2 62.6 31 81.3 32.2 92 C31.5 105 22.7 103.5 16.9 102.2 C13.4 101.4 10.8 99 12.4 94.9 C12.9 93.6 13.6 92.2 14.2 90.8 C14.7 84.8 13.6 79.1 12.3 72.9 C11.1 67.4 10.2 21.5 10.2 21.5 z" id="v" fill="#332920" /><path d="M75.8 21.5 C75.7 21.2 64.8 -0.7 58.9 1.2 C54.6 2.6 50.9 7.2 49.2 10.5 C47.5 13.8 43 34.1 46.1 40.8 C48.3 45.5 52.7 46.5 57.7 45.3 C58 49 58.3 51.8 58.8 53.1 C59.8 62.6 55 81.3 53.8 92 C54.5 105 63.3 103.5 69.1 102.2 C72.6 101.4 75.2 99 73.6 94.9 C73.1 93.6 72.4 92.2 71.8 90.8 C71.3 84.8 72.4 79.1 73.7 72.9 C75.1 67.4 75.8 21.5 75.8 21.5 z" id="w" fill="#332920" /><path d="M9.6 11.2 C11.4 8 16.2 2.9 17.2 1.8 C20.5 -0.8 30.2 -1.2 32 8.4 C32.8 11.9 30.3 16.7 28.9 18.7 C28.4 19.4 28.1 19.9 28 20.3 C27.9 21 28.5 22.6 29.1 24.8 C29.9 27.7 30.6 31.5 29.2 34.9 C28.9 35.5 28.6 36.1 28.2 36.7 C25.6 40.3 21.2 37.3 17.7 39.2 C17.7 39.4 17.6 39.6 17.6 39.7 C15.8 49.4 23.5 59.2 21.3 70.8 C20.7 74.1 16.9 76.3 12.6 74.8 C11.3 68.6 9.5 62.1 8.7 54.5 C3.3 48.8 -0.6 44.9 1.1 28.6 C2.1 19.3 5.8 14.9 9.6 11.2 z" id="x" fill="#594F46" /><path d="M26.9 1.1 C27 1.2 27 1.2 27.1 1.2 C31.4 2.6 35.1 7.2 36.8 10.5 C38.5 13.8 43 34.1 39.9 40.8 C37.7 45.5 33.3 46.5 28.3 45.3 C28 49 27.7 51.8 27.2 53.1 C26.2 62.6 31 81.3 32.2 92 C31.5 105 22.7 103.5 16.9 102.2 C13.4 101.4 10.8 99 12.4 94.9 C12.9 93.6 13.6 92.2 14.2 90.8 C14.6 85.4 13.8 80.3 12.7 74.8 C12.7 74.8 12.6 74.8 12.6 74.8 C11.3 68.6 9.5 62.1 8.7 54.5 C3.3 48.8 -0.6 44.9 1.1 28.6 C2.1 19.3 5.8 14.9 9.6 11.2 C11.4 8 16.2 2.9 17.2 1.8 C19.2 0.3 23.4 -0.5 26.9 1.1 z M26.7 2.1 C26.7 2.1 26.6 2.1 26.5 2 C23.2 0.5 19.3 1.2 17.4 2.7 C16.5 3.7 11.9 8.6 10.2 11.6 C6.7 15.1 3.2 19.3 2.2 28.2 C0.6 43.7 5.5 48.5 10.6 54 C11.4 61.2 11.8 66.2 13.2 72.2 C14.2 77.4 14.9 82 15.5 86 C15.5 88.3 15.8 90.3 15.3 91.5 C13.8 95.4 13.8 97.4 17.1 98.2 C22.6 99.4 29.7 101.8 30.4 89.4 C29.3 79.2 24.9 61.1 25.8 52 C26.3 50.8 27 47.1 27.3 43.6 C32 44.7 36.7 44.3 38.8 39.8 C41.7 33.4 37.5 14.1 35.9 10.9 C34.3 7.8 30.8 3.4 26.7 2.1 z" opacity="0.15" id="y" /><path d="M76.6 11.2 C74.8 8 69.9 2.9 68.9 1.8 C65.6 -0.8 55.9 -1.2 54.1 8.4 C53.3 11.9 55.8 16.7 57.2 18.7 C57.7 19.4 58 19.9 58.1 20.3 C58.2 21 57.6 22.6 57 24.8 C56.2 27.7 55.5 31.5 56.9 34.9 C57.2 35.5 57.5 36.1 57.9 36.7 C60.5 40.3 64.9 37.3 68.4 39.2 C68.4 39.4 68.5 39.6 68.5 39.7 C70.3 49.4 62.6 59.2 64.8 70.8 C65.4 74.1 69.2 76.3 73.5 74.8 C74.8 68.6 76.6 62.1 77.4 54.5 C82.8 48.8 86.7 44.9 85 28.6 C83.9 19.3 80.2 14.9 76.6 11.2 z" id="z" fill="#594F46" /><path d="M73.3 74.9 C72.2 80.3 71.4 85.4 71.8 90.8 C72.4 92.2 73.1 93.6 73.6 94.9 C75.2 99 72.6 101.4 69.1 102.2 C63.3 103.5 54.5 105 53.8 92 C55 81.3 59.8 62.6 58.8 53.1 C58.3 51.8 58 49 57.7 45.3 C52.7 46.5 48.3 45.5 46.1 40.8 C43 34.1 47.5 13.8 49.2 10.5 C50.9 7.2 54.6 2.6 58.9 1.2 C59 1.2 59.2 1.1 59.3 1.1 C62.8 -0.5 66.9 0.3 68.9 1.8 C69.9 2.9 74.8 8 76.6 11.2 C80.2 14.9 83.9 19.3 85 28.6 C86.7 44.9 82.8 48.8 77.4 54.5 C76.6 62.1 74.8 68.6 73.5 74.8 C73.4 74.8 73.4 74.8 73.3 74.9 z M72.6 73.1 C74.4 64.5 75.5 57.8 76 53 C81.2 47.6 85 42.8 83.4 27.3 C82.3 18.5 79.5 14.6 76 11.1 C74.3 8 68.8 3.6 67.8 2.6 C66 1.1 62.9 1 59.6 2.6 C59.4 2.6 59.3 2.6 59.2 2.7 C55.1 4 51.6 8.4 50 11.5 C48.4 14.6 44.9 33.2 47.8 39.5 C49.9 44 54 44.4 58.7 43.2 C59 46.7 59.8 51.8 60.2 53 C61.2 62.1 57 78.6 55.8 88.8 C56.5 101.2 63.4 100 68.9 98.7 C72.2 98 72.8 96.4 71.3 92.5 C70.8 91.3 70.5 90.1 70.5 88.1 C70.1 83 71.5 78.3 72.6 73.1 z" opacity="0.15" id="a1" /></g></g><g id="b1"><g transform="translate(110.1, 106.3) translate(11, 26)" id="c1"><path d="M5.5 77 C0.1 65.8 -0.6 51.2 1 39.1 C3.2 27.2 8.5 25.2 15.8 17.9 C23.1 10.6 25.8 0.2 49.1 0.3 C72.3 0.4 73.5 8.3 79.9 14.4 C86.3 20.4 92.4 23.4 96.2 30.6 C100 37.8 101.2 59.8 96.2 71.2 C92 80.9 80.7 92.2 66.3 92.4 C54.5 93 51.9 93.8 40.2 93.8 C28.5 93.8 11.5 88.2 5.5 77 z" id="d1" fill="#453D37" /><path d="M5.5 77 C0.1 65.8 -0.6 51.2 1 39.1 C3.2 27.2 8.5 25.2 15.8 17.9 C23.1 10.6 25.8 0.2 49.1 0.3 C72.3 0.4 73.5 8.3 79.9 14.4 C86.3 20.4 92.4 23.4 96.2 30.6 C100 37.8 101.2 59.8 96.2 71.2 C92 80.9 80.7 92.2 66.3 92.4 C54.5 93 51.9 93.8 40.2 93.8 C28.5 93.8 11.5 88.2 5.5 77 z M7.3 74.8 C13 85.6 29.3 90.9 40.6 90.9 C51.9 90.9 54.3 90.1 65.7 89.6 C79.5 89.4 90.4 78.6 94.4 69.2 C99.2 58.3 98 37.1 94.4 30.2 C90.8 23.3 84.9 20.4 78.7 14.6 C72.6 8.8 71.4 1.2 49.1 1.2 C26.7 1.1 24.1 11.1 17.1 18.1 C10.1 25.1 5 27 2.9 38.4 C1.4 50 2.1 64.1 7.3 74.8 z" opacity="0.15" id="e1" /></g><g transform="translate(138.6, 152.5) scale(1.2) translate(-138.6, -152.5) translate(94.00001, 114.3) translate(21, 2)" id="f1"><g transform="translate(18.02073, 23.28844) scale(-1, 1) rotate(-6, 0, 0) translate(-18.02073, -23.28844) translate(2.520727, 1.788439)" id="g1"><path d="M1.7 25.8 C-1.9 23.8 -2.7 23.7 -1.4 20.5 C-0.1 17.3 2.4 17.8 5 15.3 C7.6 12.8 13.5 8.6 17.4 6.7 C21.3 4.8 23.7 2.5 25.7 4.7 C27.7 6.9 29.1 12.8 28 18.9 C26.9 25 23.5 30.4 23.1 33.3 C22.7 36.2 21.9 40.6 20.2 42.9 C19.7 43.6 18.2 45.3 17.3 45.8 C15.4 46.7 14 44.9 12.6 41.3 C12.3 40.4 10.5 34.3 8.6 32.4 C6.3 29.9 5.4 27.8 1.7 25.8 z" id="h1" fill="#332920" /><path d="M1.7 25.8 C-1.9 23.8 -2.7 23.7 -1.4 20.5 C-0.1 17.3 2.4 17.8 5 15.3 C7.6 12.8 13.5 8.6 17.4 6.7 C21.3 4.8 23.7 2.5 25.7 4.7 C27.7 6.9 29.1 12.8 28 18.9 C26.9 25 23.5 30.4 23.1 33.3 C22.7 36.2 21.9 40.6 20.2 42.9 C19.7 43.6 18.2 45.3 17.3 45.8 C15.4 46.7 14 44.9 12.6 41.3 C12.3 40.4 10.5 34.3 8.6 32.4 C6.3 29.9 5.4 27.8 1.7 25.8 z M3.9 24.6 C7.2 26.4 8 28.3 10 30.5 C11.7 32.2 13.3 37.7 13.6 38.5 C14.8 41.7 16.1 43.4 17.8 42.5 C18.6 42.1 19.9 40.5 20.4 39.9 C21.9 37.8 22.6 33.9 23 31.3 C23.4 28.7 26.4 23.8 27.4 18.3 C28.4 12.8 27.1 7.5 25.4 5.5 C23.6 3.5 21.5 5.6 18 7.3 C14.5 9 9.3 12.8 6.9 15 C4.5 17.2 2.4 16.8 1.2 19.7 C0 22.6 0.7 22.8 3.9 24.6 z" opacity="0.15" id="i1" /><path d="M5.7 24.6 C3.7 23.6 2.3 23 3.3 20.4 C3.9 18.9 7.5 16.8 10.9 14.2 C13.3 12.3 16.2 10.3 18 9.3 C20.6 7.8 21.8 6.3 23.5 7.6 C25.1 8.9 26.5 14.5 25.7 19.2 C24.9 24 20 35.8 18.7 37.6 C17.4 39.4 16.1 42.4 14.5 38.2 C12.9 34 12.6 31.4 10.9 29.6 C9.2 27.8 7.7 25.6 5.7 24.6 z" id="j1" fill="#35302C" /><path d="M8.2 26.4 C8.3 25.4 9.1 23.7 9.3 23.3 C9.6 22.7 12.3 21.1 14.6 19.7 C15.6 19 18.6 17.4 18.6 17.4 C20.2 16.5 20.1 19.9 18.6 22.6 C17.7 24.2 15.1 29.9 13.3 31.6 C12.7 32.2 12.2 31.1 11 29.5 C9.9 28.1 8.1 26.8 8.2 26.4 z" opacity="0.5" id="k1" fill="#332920" /></g></g><g transform="translate(202.7, 152.5) scale(1.2) translate(-202.7, -152.5) translate(102.5, 114.3) translate(100.9, 24.5) scale(-1, 1) translate(-100.9, -24.5) translate(82.40002, 0)" id="l1"><g transform="translate(18.19189, 24.4854) scale(-1, 1) rotate(-7, 0, 0) translate(-18.19189, -24.4854) translate(2.691893, 2.485396)" id="m1"><path d="M5.4 26.9 C1.8 24.9 1 24.8 2.3 21.6 C3.6 18.4 6.1 18.9 8.7 16.4 C11.3 13.9 17.2 9.7 21.1 7.8 C25 5.9 27.4 3.6 29.4 5.8 C31.4 8 32.8 14 31.7 20.1 C30.7 26.2 27.1 31.6 26.8 34.5 C26.4 37.4 25.6 41.8 23.9 44.1 C23.4 44.8 21.9 46.5 21 47 C19.1 47.9 18.5 47.3 17.1 43.7 C16.8 42.8 17 42 16.7 41.2 C15.3 37.5 14.2 35.4 12.3 33.5 C9.9 31.1 9 29 5.4 26.9 z" id="n1" fill="#332920" /><path d="M5.4 26.9 C1.8 24.9 1 24.8 2.3 21.6 C3.6 18.4 6.1 18.9 8.7 16.4 C11.3 13.9 17.2 9.7 21.1 7.8 C25 5.9 27.4 3.6 29.4 5.8 C31.4 8 32.8 14 31.7 20.1 C30.7 26.2 27.1 31.6 26.8 34.5 C26.4 37.4 25.6 41.8 23.9 44.1 C23.4 44.8 21.9 46.5 21 47 C19.1 47.9 18.5 47.3 17.1 43.7 C16.8 42.8 17 42 16.7 41.2 C15.3 37.5 14.2 35.4 12.3 33.5 C9.9 31.1 9 29 5.4 26.9 z M7.1 25.9 C10.4 27.8 11.2 29.8 13.4 32 C15.1 33.8 16.2 35.7 17.4 39.1 C17.7 39.8 17.5 40.6 17.8 41.4 C19.1 44.7 19.6 45.3 21.4 44.4 C22.2 43.9 23.6 42.4 24.1 41.7 C25.7 39.6 26.4 35.5 26.8 32.8 C27.1 30.1 30.4 25.1 31.3 19.5 C32.3 13.9 31 8.3 29.2 6.3 C27.4 4.3 25.2 6.4 21.6 8.1 C18 9.8 12.6 13.7 10.2 16 C7.8 18.3 5.5 17.8 4.3 20.8 C3.1 23.8 3.8 24.1 7.1 25.9 z" opacity="0.15" id="o1" /><path d="M9.4 25.7 C7.4 24.7 6 24.1 7 21.5 C7.6 20 11.2 17.9 14.6 15.3 C17 13.4 19.9 11.4 21.7 10.4 C24.3 8.9 25.5 7.4 27.2 8.7 C28.8 10 30.2 15.6 29.4 20.3 C28.6 25.1 23.7 36.9 22.4 38.7 C21.1 40.5 19.8 43.5 18.2 39.3 C16.6 35.1 16.3 32.5 14.6 30.7 C12.9 29 11.4 26.8 9.4 25.7 z" id="p1" fill="#35302C" /><path d="M11.5 26.9 C11.6 25.9 12.8 24.9 13 24.5 C13.3 23.9 16 22.3 18.3 20.9 C19.3 20.2 22.3 18.6 22.3 18.6 C23.9 17.7 23.8 21.1 22.3 23.8 C21.4 25.4 18.8 31.1 17 32.8 C15.8 33.9 14.9 30.4 14.4 30.5 C13.3 28.9 11.4 27.8 11.5 26.9 z" opacity="0.5" id="q1" fill="#332920" /></g></g><g transform="translate(171.8, 185.0999) scale(1.1) translate(-171.8, -188.0999)" id="r1"><g transform="translate(112.8, 134.6) translate(33, 43)" id="s1"><g transform="translate(0, 6)" id="t1"><path d="M51.4 27.5 C51 26.8 50.5 26.2 49.9 25.7 C49.6 24.8 49.3 23.9 49 23.1 C47.1 18.1 46.5 12.5 43.6 8.8 C38.7 2.7 32.8 0.8 25.9 0.8 C19 0.8 13.1 2.8 8.2 8.8 C5.3 12.4 4.6 18.1 2.8 23.1 C2.5 23.9 2.2 24.8 1.9 25.7 C1.3 26.2 0.7 26.8 0.4 27.5 C-0.4 29.1 0.1 31.2 1.1 32.7 C2.1 34.2 4.6 36.6 9.3 37.7 C10 37.9 10.7 37.8 11.4 37.5 C11.4 37.6 11.4 37.7 11.4 37.7 C15.7 43.2 17.8 38.9 25.9 40 C34.1 38.9 36.1 43.2 40.4 37.7 C40.4 37.6 40.4 37.5 40.4 37.5 C41.1 37.8 41.8 37.9 42.5 37.7 C47.2 36.6 49.6 34.2 50.7 32.7 C51.8 31.2 52.4 29.1 51.4 27.5 z" id="u1" fill="#594F46" /><path d="M51.4 27.5 C52.4 29.1 51.8 31.2 50.7 32.7 C49.6 34.2 47.2 36.6 42.5 37.7 C41.8 37.9 41.1 37.8 40.4 37.5 C40.4 37.5 40.4 37.6 40.4 37.7 C36.1 43.2 34.1 38.9 25.9 40 C17.8 38.9 15.7 43.2 11.4 37.7 C11.4 37.7 11.4 37.6 11.4 37.5 C10.7 37.8 10 37.9 9.3 37.7 C4.6 36.6 2.1 34.2 1.1 32.7 C0.1 31.2 -0.4 29.1 0.4 27.5 C0.7 26.8 1.3 26.2 1.9 25.7 C2.2 24.8 2.5 23.9 2.8 23.1 C4.6 18.1 5.3 12.4 8.2 8.8 C13.1 2.8 19 0.8 25.9 0.8 C32.8 0.8 38.7 2.7 43.6 8.8 C46.5 12.5 47.1 18.1 49 23.1 C49.3 23.9 49.6 24.8 49.9 25.7 C50.5 26.2 51 26.8 51.4 27.5 z M49 27.1 C48.7 26.4 48.5 24.8 48 24.3 C47.7 23.5 47.4 22.6 47.1 21.9 C45.4 17.3 44.8 12.2 42.2 8.8 C37.7 3.1 32.2 1.4 25.9 1.4 C19.6 1.4 14.1 3.2 9.6 8.8 C7 12.1 6.3 17.3 4.7 21.9 C4.4 22.6 4.4 24.4 4.1 25.2 C3.6 25.6 2.8 26.4 2.5 27.1 C1.8 28.5 2.2 29.4 3.1 30.7 C4 32.1 4.4 34.8 8.7 35.8 C9.1 35.9 10.5 36.1 12.7 36.2 C16.7 41.3 18.5 36.4 25.9 37.4 C30.4 36.8 35 38.3 37.4 38.1 C38.9 37.9 38.9 37.5 39.1 36.2 C39.7 36.5 42 36.8 42.7 36.6 C47 35.6 47.7 32.1 48.7 30.7 C49.7 29.4 49.9 28.5 49 27.1 z" opacity="0.15" id="v1" /><path d="M35.3 17.8 C35.2 15.5 34.5 13.4 31.9 13 C30 12.7 27.9 13.2 26 13.5 C24.2 13.3 22.2 12.9 20.4 13 C18 13.2 16.9 14.9 16.7 17.2 C16.5 19.3 16.4 21.7 17.9 23.4 C19.2 25 21 26.2 19.5 28.4 C18.9 29.2 18 30.1 18.1 31.2 C18.2 32.2 19.1 32.3 19.8 32.8 C21.4 33.8 23 34.6 24.9 34.8 C26.8 35 28.8 34.7 30.6 33.7 C31.3 33.3 32 32.8 32.7 32.4 C33.6 31.9 34.2 31.6 33.8 30.4 C33.5 29.2 32.2 28.4 31.9 27.2 C31.6 26.1 32.4 25.2 33.1 24.4 C33.9 23.5 34.7 22.8 35 21.6 C35.4 20.4 35.4 19.1 35.3 17.8 z" id="w1" fill="#6D6156" /><g transform="translate(9, 19)" id="x1" fill="#6D6156"><path d="M31.4 5.9 C31.6 6.7 32.7 7.1 33.3 6.6 C33.9 6.1 33.9 5 33.1 4.6 C32.4 4.2 31.4 4.8 31.3 5.6" id="y1" /><path d="M27.8 2.4 C28 3.2 29.1 3.6 29.7 3.1 C30.3 2.6 30.3 1.5 29.5 1.1 C28.8 0.7 27.8 1.3 27.7 2.1" id="z1" /><path d="M26.6 7.5 C26.8 8.3 27.9 8.7 28.5 8.2 C29.1 7.7 29.1 6.6 28.3 6.2 C27.6 5.8 26.6 6.4 26.5 7.2" id="a2" /><path d="M2.6 5.9 C2.4 6.7 1.3 7.1 0.7 6.6 C0.1 6.1 0.1 5 0.9 4.6 C1.6 4.2 2.6 4.8 2.7 5.6" id="b2" /><path d="M6.2 2.4 C6 3.2 4.9 3.6 4.3 3.1 C3.7 2.6 3.7 1.5 4.5 1.1 C5.2 0.7 6.2 1.3 6.3 2.1" id="c2" /><path d="M7.4 7.5 C7.2 8.3 6.1 8.7 5.5 8.2 C4.9 7.7 4.9 6.6 5.7 6.2 C6.4 5.8 7.4 6.4 7.5 7.2" id="d2" /></g></g></g><g transform="translate(106.2, 114.5) translate(51, 88)" id="e2"><g id="f2"><path d="M13 1.7 C13.1 7.2 12.5 10.3 11.3 11.3 C10.1 12.3 6.8 14.1 1.6 16.8 C0.6 17.5 0.4 18.3 1 19 C1.5 19.6 2.5 19.6 3.9 19 L14.4 13.3 C19.8 16.9 23 18.7 24.2 18.7 C24.8 18.7 26.2 18.7 26.4 18.3 C29.1 17.2 17.7 12.7 17.3 11.3 C17 10.3 16.5 7.1 15.7 1.8 C15.3 1.2 14.8 0.8 14.2 0.6 C13.7 0.5 13.3 0.8 13 1.7 z" id="g2" fill="#353535" /></g></g><g transform="translate(104.8, 107.8) translate(59, 84)" id="h2"><g id="i2"><path d="M14.8 1.5 C14 0 10.9 2 8 2 C5.1 2 2 0 1.2 1.5 C0.4 3 0.7 6.3 2.4 8.9 C3.6 10.7 8 10.9 8 10.9 C8 10.9 12.4 10.6 13.6 8.9 C15.3 6.3 15.6 3 14.8 1.5 z" id="j2" fill="#282421" /><path d="M9.3 3.5 C8.9 3.8 8.4 4.1 8.4 4.6 C8.4 5 8.8 5.3 9.1 5.4 C9.5 5.5 9.9 5.5 10.2 5.4 C11.1 5.3 12 5.2 12.6 4.7 C13.4 4 13.6 2.8 12.5 2.5 C11.6 2.2 10.1 3 9.3 3.5 z" id="k2" fill="#F5FAFC" /></g></g><g transform="translate(106.2, 143.6) translate(28, 21)" id="l2"><g id="m2"><path d="M6.7 17.4 C6.7 13.9 13.4 9.9 16.6 8.5 C19.8 7.1 25.4 8 26.2 9.7 C27 11.5 27 15.4 25.6 17.9 C24.6 19.6 20.1 23.8 16.6 25.6 C11 28.4 6.6 24.1 6.7 17.4 z" id="n2" fill="#293C49" /><ellipse cx="19" cy="14.4" rx="5.3" ry="4.4" id="o2" fill="#594F46" /><ellipse cx="19.6" cy="14.4" rx="4.2" ry="3.5" id="p2" fill="#282421" /><path d="M7.8 11.9 C5.5 11.7 3.2 11.5 0.9 11.4 C1.5 9.3 3 7.5 4.9 6.6 C6.8 5.7 9.1 5.7 11 6.7 C9.1 5.2 7.2 3.8 5.2 2.3 C9.6 0.6 14.1 0.2 17.7 3.5 C16.9 1.9 16.9 1.9 16.1 0.4 C20 0.9 25.7 4.9 26.4 11.2 C22.8 8.6 18.8 8.9 15 10.3 C11.2 11.7 7.7 14.8 5.9 18.6 C5.7 17 6.3 12.6 7.8 11.9 z" id="q2" fill="#594F46" /><path d="M7.8 11.9 C5.5 11.7 3.2 11.5 0.9 11.4 C1.5 9.3 3 7.5 4.9 6.6 C6.8 5.7 9.1 5.7 11 6.7 C9.1 5.2 7.2 3.8 5.2 2.3 C9.6 0.6 14.1 0.2 17.7 3.5 C16.9 1.9 16.9 1.9 16.1 0.4 C20 0.9 25.7 4.9 26.4 11.2 C22.8 8.6 18.8 8.9 15 10.3 C11.2 11.7 7.7 14.8 5.9 18.6 C5.7 17 6.3 12.6 7.8 11.9 z M9.4 11.4 C8.2 12 6.8 13.7 7 15.1 C8.9 12.7 10.8 10.2 14.1 9 C17.4 7.8 21.3 6.4 24.4 8.7 C23.8 3.3 20.2 2.4 17.1 1.5 C17.8 2.8 18 3.4 18.7 4.8 C15.6 2 10.3 1 6.5 2.5 C8.2 3.8 11.2 6.1 12.4 7.7 C10.4 7.1 10 6.6 7.6 6.6 C5.2 6.6 2.6 8.6 2.1 10.4 C4 10.5 7.5 11.2 9.4 11.4 z" opacity="0.15" id="r2" /><ellipse cx="18.6" cy="12.6" rx="1.2" ry="1.1" id="s2" fill="#FFF" /></g></g><g transform="translate(120.2, 143.6) translate(64, 21)" id="t2"><g id="u2"><path d="M20.3 17.4 C20.3 13.9 13.6 9.9 10.4 8.5 C7.2 7.1 1.6 8 0.8 9.7 C0 11.5 0 15.4 1.4 17.9 C2.4 19.6 6.9 23.8 10.4 25.6 C16 28.4 20.4 24.1 20.3 17.4 z" id="v2" fill="#293C49" /><ellipse cx="8" cy="14.4" rx="5.3" ry="4.4" id="w2" fill="#594F46" /><ellipse cx="7.4" cy="14.4" rx="4.2" ry="3.5" id="x2" fill="#282421" /><path d="M19.2 11.9 C21.5 11.7 23.8 11.5 26.1 11.4 C25.5 9.3 24 7.5 22.1 6.6 C20.2 5.7 17.9 5.7 16 6.7 C17.9 5.2 19.8 3.8 21.8 2.3 C17.4 0.6 12.9 0.2 9.3 3.5 C10.1 1.9 10.1 1.9 10.9 0.4 C7 0.9 1.3 4.9 0.6 11.2 C4.2 8.6 8.2 8.9 12 10.3 C15.8 11.7 19.3 14.8 21.1 18.6 C21.3 17 20.7 12.6 19.2 11.9 z" id="y2" fill="#594F46" /><path d="M19.2 11.9 C21.5 11.7 23.8 11.5 26.1 11.4 C25.5 9.3 24 7.5 22.1 6.6 C20.2 5.7 17.9 5.7 16 6.7 C17.9 5.2 19.8 3.8 21.8 2.3 C17.4 0.6 12.9 0.2 9.3 3.5 C10.1 1.9 10.1 1.9 10.9 0.4 C7 0.9 1.3 4.9 0.6 11.2 C4.2 8.6 8.2 8.9 12 10.3 C15.8 11.7 19.3 14.8 21.1 18.6 C21.3 17 20.7 12.6 19.2 11.9 z M17.6 11.4 C18.9 12 20.2 13.8 20.1 15.1 C18.2 12.7 16.3 10.2 13 9 C9.7 7.8 5.7 6.4 2.6 8.6 C3.2 3.2 6.8 2.3 10 1.4 C9.3 2.7 9.1 3.3 8.4 4.6 C11.5 1.8 16.8 0.8 20.6 2.3 C18.9 3.6 15.9 5.9 14.7 7.5 C16.6 7.1 17 6.6 19.4 6.6 C21.8 6.6 24.4 8.6 24.9 10.4 C23 10.5 19.5 11.2 17.6 11.4 z" opacity="0.15" id="z2" /><ellipse cx="6.4" cy="12.6" rx="1.2" ry="1.1" id="a3" fill="#FFF" /></g></g></g></g></g></g><defs><g transform="translate(17.09519, 0.800995) translate(-135.2952, -293.601)" id="b3" fill="#000"><path d="M118.2 302.7 C118.4 307.4 132.5 311.2 149.8 311.2 C167.1 311.2 181.2 307.4 181.4 302.7 C181.4 307.5 181.4 310.1 181.4 310.5 C181.4 315.3 167.3 319.1 149.8 319.1 C132.3 319.1 118.2 315.2 118.2 310.5 L118.2 302.7 L118.2 302.7 z" fill-opacity="0.4528" id="c3" fill="#593001" /><path d="M118.7 301.7 C118.9 306.4 133 310.2 150.3 310.2 C167.6 310.2 181.7 306.4 181.9 301.7 C181.9 306.5 181.9 309.1 181.9 309.5 C181.9 314.3 167.8 318.1 150.3 318.1 C132.8 318.1 118.7 314.2 118.7 309.5 L118.7 301.7 L118.7 301.7 z" id="d3" fill="#DA8113" /><linearGradient x1="46.0545" y1="-118.6926" x2="45.4656" y2="-118.6926" gradientUnits="userSpaceOnUse" gradientTransform="matrix(117.135, 0, 0, 28.4634, -5208.417, 3687.795)" id="e3"><stop offset="0%" stop-color="#D9952A" stop-opacity="1" /><stop offset="6.438854%" stop-color="#CA7519" stop-opacity="1" /><stop offset="30.54%" stop-color="#E3AD3A" stop-opacity="1" /><stop offset="51.05%" stop-color="#FFEC91" stop-opacity="1" /><stop offset="68.8%" stop-color="#E9BD44" stop-opacity="1" /><stop offset="86.24%" stop-color="#FFED6C" stop-opacity="1" /><stop offset="93.87%" stop-color="#F2D353" stop-opacity="1" /><stop offset="100%" stop-color="#F2B947" stop-opacity="1" /></linearGradient><path d="M118.2 301.6 C118.4 306.1 132.7 309.7 150.3 309.7 C167.9 309.7 182.2 306.1 182.4 301.6 C182.4 306.2 182.4 308.7 182.4 309 C182.4 313.5 168 317.2 150.3 317.2 C132.6 317.2 118.2 313.5 118.2 309 L118.2 301.6 L118.2 301.6 z" id="f3" style="fill:url(#e3)" /><linearGradient x1="45.4914" y1="-117.9547" x2="45.9407" y2="-117.5895" gradientUnits="userSpaceOnUse" gradientTransform="matrix(115.425, 0, 0, 29.925, -5125.077, 3826.124)" id="g3"><stop offset="0%" stop-color="#F4E072" stop-opacity="1" /><stop offset="100%" stop-color="#DB9427" stop-opacity="1" /></linearGradient><ellipse cx="150.3" cy="301.5" rx="31.6" ry="8.2" id="h3" style="fill:url(#g3)" /><linearGradient x1="45.4656" y1="-126.0065" x2="46.0545" y2="-126.0065" gradientUnits="userSpaceOnUse" gradientTransform="matrix(117.135, 0, 0, 18.6219, -5208.417, 2651.479)" id="i3"><stop offset="0%" stop-color="#D9952A" stop-opacity="1" /><stop offset="6.438854%" stop-color="#CA7519" stop-opacity="1" /><stop offset="30.54%" stop-color="#E3AD3A" stop-opacity="1" /><stop offset="51.05%" stop-color="#FFEC91" stop-opacity="1" /><stop offset="68.8%" stop-color="#E9BD44" stop-opacity="1" /><stop offset="86.24%" stop-color="#FFED6C" stop-opacity="1" /><stop offset="93.87%" stop-color="#F2D353" stop-opacity="1" /><stop offset="100%" stop-color="#F2B947" stop-opacity="1" /></linearGradient><path d="M119.2 299.9 C119 300.2 118.9 300.6 118.9 301 C118.9 305.5 132.9 309.2 150.3 309.2 C167.7 309.2 181.7 305.5 181.7 301 C181.7 300.6 181.6 300.3 181.4 299.9 C182 300.5 182.4 301.2 182.4 301.9 C182.4 306.4 168 310.1 150.3 310.1 C132.6 310.1 118.2 306.4 118.2 301.9 C118.2 301.3 118.6 300.6 119.2 299.9 z" id="j3" style="fill:url(#i3)" /><linearGradient x1="45.196" y1="-121.5895" x2="45.3746" y2="-120.6758" gradientUnits="userSpaceOnUse" gradientTransform="matrix(101.745, 0, 0, 23.94, -4458.332, 3199.41)" id="k3"><stop offset="0%" stop-color="#F8DD61" stop-opacity="1" /><stop offset="100%" stop-color="#EAA330" stop-opacity="1" /></linearGradient><ellipse cx="150.3" cy="300.8" rx="27.8" ry="6.6" id="l3" style="fill:url(#k3)" /><linearGradient x1="45.5694" y1="-134.267" x2="45.0221" y2="-134.267" gradientUnits="userSpaceOnUse" gradientTransform="matrix(101.745, 0, 0, 13.2525, -4458.332, 2077.223)" id="m3"><stop offset="0%" stop-color="#F4CA2F" stop-opacity="1" /><stop offset="51.38%" stop-color="#BF7737" stop-opacity="1" /><stop offset="100%" stop-color="#E4A929" stop-opacity="1" /></linearGradient><path d="M122.6 301.5 C122.5 301.3 122.4 301 122.4 300.8 C122.4 297.2 134.9 294.2 150.2 294.2 C165.5 294.2 178 297.1 178 300.8 C178 301 177.9 301.3 177.8 301.5 C176.3 298.2 164.5 295.6 150.1 295.6 C135.7 295.6 124.1 298.2 122.6 301.5 z" id="n3" style="fill:url(#m3)" /></g></defs><desc>ON8NOEN2JC6,+83++5yLR0QOxHe0O6LJ6O5cNWLiXqPsSbURD+guqv+87DDCyGnvoMpqdv410B8qSRkdMtpyUMoJlMbCrPlYJJujJEghyrJqsxhfcFeyYAI9IOmOB/HJe988f1WaNvYXq43B+8saBl28ShwK9HvwHQ==</desc></svg>