<?xml version="1.0" encoding="utf-8"?><!DOCTYPE svg PUBLIC "-//W3C//DTD SVG 1.1//EN" "http://www.w3.org/Graphics/SVG/1.1/DTD/svg11.dtd"><svg x="0" y="0" width="340px" height="340px" viewBox="0, 0, 340, 340" preserveAspectRatio="xMidYMid" font-size="0" id="a" enable-background="new 0 0 340 340" xmlns="http://www.w3.org/2000/svg" xmlns:xlink="http://www.w3.org/1999/xlink" xmlns:xml="http://www.w3.org/XML/1998/namespace" version="1.1"><g id="b" fill="#000"><g id="c"><g transform="translate(0, 0) translate(0, 224)" id="d"><ellipse cx="168.6" cy="53.1" rx="57.8" ry="12.8" fill-opacity="0.25" id="e" /></g><g id="f"><g transform="translate(112.9, 101.4) translate(16.5, 128.5) scale(-1, 1) translate(-16.5, -128.5) translate(6, 115)" id="g"><g id="h" fill="#4B5966"><path d="M15.1 3.5 C17 0.9 18.1 -0.5 19.6 0.1 C21 0.7 21 2.3 20.4 4.9 C18.8 11.3 13.3 23 7.5 26 C3.3 28.2 -1.9 24.1 0.7 21.3 C5.9 15.6 10.5 9.7 15.1 3.5 z" id="i" /></g></g><g transform="translate(120.5, 273.3) scale(1.098462) translate(-120.5, -273.3) translate(95.8, 77.79997) translate(17, 136)" id="j"><path d="M4.3 33.6 C3.8 31 3.1 28.2 2.7 25.4 C2.3 26 1.9 26.7 1.5 27.5 C0.3 22.8 0.4 11.7 4 6.1 C4 6.1 4 6.1 4 6 C4 5.9 4.1 5.9 4.1 5.8 C4.1 5.8 4.1 5.7 4.2 5.7 C4.5 5.2 4.8 4.8 5.2 4.3 C10.6 -1.3 22.8 -0.7 30 5.8 C42.2 16.8 34 33.7 31.1 40.5 C28.6 46.5 9.7 46.3 9.1 44.4 C8 40.8 6.8 36.8 5.7 32.8 C5.2 33.1 4.8 33.4 4.3 33.6 z" id="k" fill="#293C49" /><path d="M10.6 49.9 C10.1 47.8 9.4 45.5 8.7 43.1 C10.5 41.2 12.7 40.4 15.2 40.1 C16.9 39.9 18.7 40.1 20.4 40 C22.6 39.8 24.8 37.8 26.5 36.7 C28.1 35.7 31.4 33.6 33.1 35.5 C32.3 37.5 31.6 39.2 31 40.6 C28.5 46.6 31.6 54.8 27 59.4 C22.8 63.7 6.5 62.5 2 60.7 C1.9 55.1 6.2 55.3 10.6 49.9 z" id="l" fill="#C9C9C9" /><path d="M30.8 41 C28.6 47 31.5 54.9 27 59.4 C22.8 63.7 6.5 62.5 2 60.7 C1.9 55.1 6.2 55.3 10.6 49.9 C10.1 47.8 9.4 45.5 8.7 43.1 L8.7 43.1 C7.7 39.8 6.7 36.3 5.7 32.8 C5.2 33.1 4.8 33.4 4.3 33.6 C3.8 31 3.1 28.2 2.7 25.4 C2.3 26 1.9 26.7 1.5 27.5 C0.3 22.8 0.4 11.7 4 6.1 L4 6 C4 5.9 4.1 5.9 4.1 5.8 C4.1 5.8 4.1 5.7 4.2 5.7 C4.5 5.2 4.8 4.8 5.2 4.3 C10.6 -1.3 22.8 -0.7 30 5.8 C42.2 16.8 34 33.7 31.1 40.5 C31 40.7 30.9 40.8 30.8 41 z M29.2 40.7 C29.8 39.6 30.2 39 30.2 38.9 C32.9 32.5 40.6 16.8 29.2 6.6 C22.5 0.5 11.2 0 6.1 5.2 C5.8 5.7 5.5 6 5.2 6.5 C5.1 6.5 5.1 6.6 5.1 6.6 C5.1 6.7 5 6.7 5 6.9 C1.7 12.1 0.8 20.2 1.9 24.6 C2.3 23.9 3.3 23.5 3.7 22.9 C4.1 25.5 5 29 5.4 31.4 C5.9 31.2 6.5 30 7 29.7 C7.9 33 8.5 38.3 9.4 41.3 L9.9 40.7 C10.6 42.9 12.1 48.3 12.6 50.3 C8.5 55.3 4.9 53.5 5 58.7 C9.2 60.4 22.5 60.4 26.4 56.4 C30.6 52.3 27.2 46.2 29.2 40.7 z" opacity="0.15" id="m" /></g><g transform="translate(217.4, 273.3) scale(1.098462) translate(-217.4, -273.3) translate(107.8, 77.79997) translate(98.5, 167.5) scale(-1, 1) translate(-98.5, -167.5) translate(80, 136)" id="n"><path d="M4.3 33.6 C3.8 31 3.1 28.2 2.7 25.4 C2.3 26 1.9 26.7 1.5 27.5 C0.3 22.8 0.4 11.7 4 6.1 C4 6.1 4 6.1 4 6 C4 5.9 4.1 5.9 4.1 5.8 C4.1 5.8 4.1 5.7 4.2 5.7 C4.5 5.2 4.8 4.8 5.2 4.3 C10.6 -1.3 22.8 -0.7 30 5.8 C42.2 16.8 34 33.7 31.1 40.5 C28.6 46.5 9.7 46.3 9.1 44.4 C8 40.8 6.8 36.8 5.7 32.8 C5.2 33.1 4.8 33.4 4.3 33.6 z" id="o" fill="#293C49" /><path d="M10.6 49.9 C10.1 47.8 9.4 45.5 8.7 43.1 C10.5 41.2 12.7 40.4 15.2 40.1 C16.9 39.9 18.7 40.1 20.4 40 C22.6 39.8 24.8 37.8 26.5 36.7 C28.1 35.7 31.4 33.6 33.1 35.5 C32.3 37.5 31.6 39.2 31 40.6 C28.5 46.6 31.6 54.8 27 59.4 C22.8 63.7 6.5 62.5 2 60.7 C1.9 55.1 6.3 55.3 10.6 49.9 z" id="p" fill="#C9C9C9" /><path d="M30.8 41 C28.6 47 31.5 54.9 27 59.4 C22.8 63.7 6.5 62.5 2 60.7 C1.9 55.1 6.3 55.3 10.6 49.9 C10.1 47.8 9.4 45.5 8.7 43.1 L8.7 43.1 C7.7 39.8 6.7 36.3 5.7 32.8 C5.2 33.1 4.8 33.4 4.3 33.6 C3.8 31 3.1 28.2 2.7 25.4 C2.3 26 1.9 26.7 1.5 27.5 C0.3 22.8 0.4 11.7 4 6.1 L4 6 C4 5.9 4.1 5.9 4.1 5.8 C4.1 5.8 4.1 5.7 4.2 5.7 C4.5 5.2 4.8 4.8 5.2 4.3 C10.6 -1.3 22.8 -0.7 30 5.8 C42.2 16.8 34 33.7 31.1 40.5 C31 40.7 30.9 40.8 30.8 41 z M29.7 38.9 L28.4 41.3 C28.5 41.1 29.9 38.6 30 38.5 C32.6 32.3 40.1 16.8 29 6.7 C22.4 0.8 11.3 0.2 6.4 5.3 C6 5.8 5.8 6.2 5.5 6.6 C5.4 6.6 5.4 6.7 5.4 6.7 C5.4 6.8 5.3 6.8 5.3 7 C2 12.1 1 20.4 2.1 24.7 C2.5 24 3.6 23.6 4 23.1 C4.3 25.6 4.5 29 5 31.3 C5.4 31.2 6.6 30.2 7 29.9 C7.9 33.1 8.7 37.9 9.6 40.9 C10.2 43.1 12.1 47.7 12.6 49.7 C8.6 54.6 5.5 53.1 5.6 58.3 C9.7 59.9 21.5 60.7 25.4 56.8 C29.4 52.7 27.7 44.4 29.7 38.9 z" opacity="0.15" id="q" /></g><g transform="translate(85.90001, 85.79997) translate(35, 41)" id="r"><path d="M14.8 19.9 C11.3 33.7 12.9 36.6 9.3 47.7 C5.7 58.8 1.3 70.5 3.2 87.6 C4.6 100.8 11.8 132.8 17.6 146.9 C19.3 151.1 22.5 152.3 23.4 152.6 C27.2 154.2 66.3 154.3 72.2 152.6 C73.3 152.3 76.3 151.4 77.8 148.1 C84.6 134.1 92.8 97 94.1 87.6 C96.2 75.3 92.7 55.1 88.5 47.9 C82.5 37.5 82.5 23 81.3 20.8 C79.3 16.1 75.6 10.6 66.6 4.4 C63.9 2.5 51.7 0.7 49.1 0.8 C45.4 0.9 37.4 2 34.5 4.5 C28.5 9.6 16.7 12.5 14.8 19.9 z" id="s" fill="#293C49" /><path d="M14.8 19.9 C16.7 12.5 28.5 9.6 34.5 4.5 C37.4 2 45.4 0.9 49.1 0.8 C51.7 0.7 63.9 2.5 66.6 4.4 C75.6 10.6 79.3 16.1 81.3 20.8 C82.5 23 82.5 37.5 88.5 47.9 C92.7 55.1 96.2 75.3 94.1 87.6 C92.8 97 84.6 134.1 77.8 148.1 C76.3 151.4 73.3 152.3 72.2 152.6 C66.3 154.3 27.2 154.2 23.4 152.6 C22.5 152.3 19.3 151.1 17.6 146.9 C11.8 132.8 4.6 100.8 3.2 87.6 C1.3 70.5 5.7 58.8 9.3 47.7 C12.9 36.6 11.3 33.7 14.8 19.9 z M16.2 20.2 C12.8 33.5 14.4 36.3 10.9 46.9 C7.4 57.6 3.2 68.8 5 85.2 C6.4 97.8 13.3 128.6 18.9 142.1 C20.5 146.1 23.6 147.3 24.4 147.5 C28.1 149.1 65.6 149.2 71.2 147.5 C72.3 147.3 75.2 146.4 76.6 143.2 C83.1 129.8 91 94.2 92.3 85.2 C94.3 73.4 90.9 54 86.9 47.1 C81.1 37.1 81.1 23.2 80 21.1 C78.1 16.6 74.5 11.3 65.9 5.4 C63.3 3.5 51.6 1.8 49.1 1.9 C45.5 2 37.9 3.1 35.1 5.5 C29.3 10.3 18 13.1 16.2 20.2 z" opacity="0.15" id="t" /></g><g transform="translate(125.2, 165.85) scale(1, 1.123927) translate(-125.2, -179.2) translate(96.60001, 85.89996) translate(28, 92)" id="u"><path d="M8.3 7.6 C4.2 18.1 8.4 13.1 8.6 22.6 C16.4 36.1 36.9 54 44.4 54 C53 54 74.8 37.2 80.4 23.7 C82.6 18.6 83.5 14.1 82.6 9.9 C82.2 8.1 81 5.7 80.4 4.5 C78.9 1.8 80.1 13.2 69.5 20.9 C64.6 24.4 55.5 28.5 45.1 28.5 C33.2 28.5 25.6 23.5 19.9 18.8 C10.3 11 10.4 1.3 8.3 7.6 z" id="v" fill="#EDEEEF" /><path d="M7.8 8.9 C0.6 21.8 2.6 26.2 3.5 32.6 C4.5 39 4.5 43.6 6.4 48.3 C8.3 53 8.7 55.4 10.3 60.5 C11.8 65.5 13.8 72.5 14.6 77.4 C15 80.1 14.8 82.7 15.2 84.6 C15.6 86.2 16.6 87 16.1 88.2 C15.1 90.8 11.1 91.5 9 93.4 C6.9 95.3 5.9 99.5 6.6 100.7 C12.5 104.7 26.5 101 31.4 100 C31.6 99.9 32.6 93.5 31.4 92 C30.1 90.4 32.3 91 32.8 87.1 C34 83.8 34.1 64.2 35.1 59.4 C36.1 54.6 35.4 49 33.3 47.7 C28.2 44.5 27.3 43.8 23.7 38.6 C20.7 34.4 26.5 32.9 23.7 30.7 C21.5 29 14.5 26.9 12.6 24.4 C10.7 21.9 8.4 15.6 7.8 8.9 z" id="w" fill="#4B5966" /><path d="M8.9 91.7 C6.8 94.1 5.8 99.5 6.5 101.1 C12.4 106.2 26.4 101.5 31.3 100.2 C31.5 100 33.4 93.6 32.1 91.7 C31.8 91.3 31.8 90.8 31.9 90.3 C27.9 88 21.7 86.8 15.8 87.1 C14 88.9 10.5 89.8 8.9 91.7 z" id="x" fill="#EDEEEF" /><path d="M33.9 77.1 C34 67.9 35.7 56.1 36.4 52.9 C37.4 48.1 35.6 48.4 33.5 47.1 C28.4 43.9 27.7 43.5 24.1 38.3 C23.4 37.3 23.1 35.7 23.1 34.9 C20.6 37.5 20.9 47.2 23.7 51 C26 54.2 28.7 52.8 30.7 58.6 C31.9 62.1 32.3 64.2 32.3 66.7 C32.4 71.1 32.7 74.2 33.9 77.1 z" id="y" fill="#EDEEEF" /><path d="M82.3 8.9 C91.2 21.5 86.6 25.8 86.6 32.6 C86.6 38.9 83.4 44.1 81.8 49.6 C80.2 55.1 79.8 56.9 78.2 62 C77 66 76.1 74.9 75.1 79 C73.6 85.3 72.6 84.8 73.9 87.9 C74.9 90.5 79.1 91.3 81.2 93.2 C83.3 95.1 81.9 98.3 81.2 99.5 C75.3 103.5 64.8 100.5 59.9 99.5 C59.7 99.4 59.1 96 59.1 93.2 C59.1 90.7 56.7 90.6 56.4 86.1 C56.1 83 55.8 57.3 54.8 52.4 C53.8 47.5 54.8 48.8 56.8 47.6 C61.9 44.4 62.8 43.7 66.4 38.5 C69.4 34.3 63.6 32.8 66.4 30.6 C68.6 28.9 75.6 26.8 77.5 24.3 C79.3 21.8 81.6 15.6 82.3 8.9 z" id="z" fill="#4B5966" /><path d="M80.1 90.7 C82.2 93.1 83.2 98.5 82.5 100.1 C76.6 105.2 62.6 100.5 57.7 99.2 C57.5 99 55.6 92.6 56.9 90.7 C57.2 90.3 57 89.9 56.9 89.4 C60.9 87.1 67.3 85.8 73.2 86.1 C75 87.9 78.5 88.8 80.1 90.7 z" id="a1" fill="#EDEEEF" /><path d="M56.1 77.1 C56 67.9 54.3 56.1 53.6 52.9 C52.6 48.1 54.4 48.5 56.4 47.3 C61.5 44.1 62.1 43.9 65.7 38.8 C66.4 37.8 66.8 35.5 66.7 34.7 C69.2 37.3 68.9 47.4 66.1 51.1 C63.8 54.3 61.1 52.9 59.1 58.7 C57.9 62.2 57.5 64.3 57.5 66.8 C57.6 71.1 57.3 74.2 56.1 77.1 z" id="b1" fill="#EDEEEF" /><path d="M44.4 54 C42.5 54 39.8 52.9 36.7 51 C36.7 51.5 36.6 52.2 36.4 52.9 C35.9 55.3 34.8 62.4 34.2 69.7 C34.1 71.9 34 74.1 33.9 76.3 C33.9 76.6 33.9 76.8 33.9 77.1 C33.6 81.7 33.3 85.7 32.8 87 C32.6 88.7 32 89.6 31.6 90.1 C31.7 90.2 31.8 90.2 31.9 90.3 C31.8 90.8 31.8 91.3 32.1 91.7 C33.4 93.6 31.5 100 31.3 100.2 C26.4 101.5 12.4 106.2 6.5 101.1 C5.8 99.5 6.8 94.1 8.9 91.7 C10.5 89.8 14 88.9 15.8 87.1 C15.9 87.1 16.1 87.1 16.2 87.1 C16 86.3 15.5 85.6 15.2 84.5 C14.8 82.7 15 80 14.6 77.3 C13.9 72.4 11.8 65.4 10.3 60.4 C8.7 55.3 8.3 52.9 6.4 48.2 C4.5 43.5 4.5 39 3.5 32.6 C2.6 26.2 0.6 21.8 7.8 8.9 C8 8.5 8.1 8.1 8.3 7.6 C10.4 1.3 10.3 11 19.9 18.8 C25.6 23.5 33.2 28.5 45.1 28.5 C55.5 28.5 64.6 24.4 69.5 20.9 C80.1 13.2 78.9 1.8 80.4 4.5 C81 5.5 81.9 7.4 82.4 9.1 C91.1 21.6 86.6 25.9 86.6 32.6 C86.6 38.9 83.4 44.1 81.8 49.6 C80.2 55.1 79.8 56.9 78.2 62 C77 66 76.1 74.9 75.1 79 C74 83.8 73.1 84.7 73.3 86.2 C75.1 87.9 78.5 88.8 80 90.6 C80.8 91.5 81.4 92.8 81.9 94.2 C82.1 94.5 82.1 94.9 82.2 95.2 C82.7 97.2 82.8 99.1 82.4 99.9 C76.5 105 62.5 100.3 57.6 99 C57.4 98.8 55.5 92.4 56.8 90.5 C57.1 90.1 56.9 89.7 56.8 89.2 C56.7 88.3 56.4 87.4 56.3 86 C56.2 85 56.1 81.4 56 76.9 C56 76.7 56 76.5 56 76.3 C56 75.6 56 75 55.9 74.3 C55.6 65.6 54.1 55.6 53.5 52.7 C53.3 51.9 53.2 51.3 53.2 50.7 C49.8 52.9 46.6 54 44.4 54 z M55.8 47.1 C55.8 47.6 55.1 52.6 55.2 53.4 C55.9 56.4 56.8 65.3 56.9 74.1 C57 74 57.2 82.1 57.3 83.1 C57.4 84.4 57.9 87.1 57.8 87.1 C57.9 87.6 58.9 89.5 58.6 89.8 C57.4 91.6 58.4 96.9 58.6 97.1 C63.3 98.3 75 102.6 80.6 97.7 C81 96.9 81.1 95.5 80.6 93.7 C80.6 93.4 79.4 91.6 78.6 90.7 C77.1 89 74 87.9 72.2 86.3 C72.8 80.6 74 72.8 76.1 62.7 C77.2 57.7 77.9 52.6 80.2 48.3 C82.5 44 83.4 42.7 85.4 32.5 C87.4 22.3 83.1 14.6 82.8 12.5 C82.5 10.4 81 8.5 80.2 7.2 C78.8 4.6 78.6 15.5 68.5 22.8 C64 26.3 54.9 32.1 45 32.1 C33.7 32.1 26.9 26 21.5 21.6 C12.3 14.2 10 3.6 8 9.5 C7.9 9.8 4.6 15.7 3.9 22.9 C3.6 26.1 4.7 31.9 5 33.8 C6 39.9 6.7 43 7.8 47.1 C8.9 51.2 10.7 56.3 12.2 61.1 C15 70.1 17.5 78 16 83.5 C15.8 83.5 17.1 87.5 16.9 87.5 C15.2 89.2 12.6 89.8 11.1 91.6 C9.1 93.9 7.7 97.1 8.3 98.7 C13.9 103.5 25.7 99.6 30.3 98.4 C30.5 98.2 31.9 92.8 30.7 91 C30.4 90.6 31.4 89.1 31.3 89 C31.7 88.5 31.6 87 31.8 85.3 C32.3 84 32.3 80.6 32.6 76.2 C32.7 76.4 33.6 55.5 34.3 52.4 C34.5 51.7 34.3 46.8 34.3 46.3 C37.3 48.1 38.2 52.4 44.4 52.4 C50.6 52.4 52.4 48.9 55.8 47.1 z" opacity="0.15" id="c1" /></g></g><g transform="translate(169.6, 177.3) scale(0.9999998) translate(-169.6, -177.3)" id="d1"><g transform="translate(151.1, 111.3) scale(0.8) translate(-151.1, -111.3) translate(103.5, 70.19997) translate(23, 0)" id="e1"><g transform="translate(18.79612, 27.5) scale(-1, 1) translate(-18.79612, -27.5) translate(0.796117, 0)" id="f1"><path d="M6.1 38.9 C10.1 42.5 15.4 46.7 17.9 49.8 C20.7 53.3 26 54.1 28.3 51.3 C30.6 48.5 32.3 48.1 32.7 42.7 C33.1 37.3 36.2 20.2 36 15.4 C35.8 10.6 34.5 0.6 32.8 0.1 C31.1 -0.4 26.4 0.6 25.4 1.5 C24.4 2.4 2.2 26.3 1.3 28.2 C0.3 30.1 2.1 35.2 6.1 38.9 z" id="g1" fill="#293C49" /><path d="M6.1 38.9 C2.1 35.2 0.3 30.1 1.3 28.2 C2.2 26.3 24.4 2.4 25.4 1.5 C26.4 0.6 31.1 -0.4 32.8 0.1 C34.5 0.6 35.7 10.6 35.9 15.3 C36.1 20 33 37.3 32.6 42.7 C32.2 48.1 30.5 48.5 28.2 51.3 C25.9 54.1 20.6 53.3 17.8 49.8 C15.4 46.7 10.1 42.5 6.1 38.9 z M7.7 37.7 C11.4 41.1 16.3 45.1 18.6 48 C21.2 51.3 26.1 52.1 28.2 49.4 C30.3 46.7 31.9 46.4 32.3 41.3 C32.7 36.2 35.5 20.1 35.4 15.6 C35.3 11.1 33.9 1.6 32.4 1.1 C30.8 0.6 26.5 1.6 25.6 2.4 C24.7 3.2 4.1 25.8 3.3 27.6 C2.3 29.4 4 34.2 7.7 37.7 z" opacity="0.15" id="h1" /><path d="M8.1 28.2 C7.5 24.8 23.1 7.3 24.9 5.4 C26.7 3.5 28.4 3 30.8 2.9 C33.2 2.8 34.6 13 33.6 18.7 C32.6 24.4 30.3 45.7 27.5 46.9 C24.7 48.1 23.9 45.6 16.5 36.4 C13.2 32.2 8.8 31.5 8.1 28.2 z" id="i1" fill="#4B5966" /><path d="M12.2 34 C17.3 30.7 20.4 27.8 21.5 25.3 C22.1 24 23.6 27.6 23.7 32.2 C23.8 34.2 22.7 37.6 20.4 42.4 L12.2 34 z" id="j1" fill="#293C49" /></g></g><g transform="translate(188.2, 111.3) scale(0.8) translate(-188.2, -111.3) translate(93.29997, 70.19997) translate(102.4, 27) scale(-1, 1) translate(-102.4, -27) translate(83.40002, 0)" id="k1"><g transform="translate(18.70388, 27) scale(-1, 1) translate(-18.70388, -27) translate(0.203883, 0)" id="l1"><path d="M4.4 39.1 C8.4 42.7 13.1 47.2 16.8 49.8 C20.4 52.4 24.9 54.1 27.2 51.3 C29.5 48.5 31.2 48.1 31.6 42.7 C32 37.3 35.1 20.2 34.9 15.4 C34.7 10.6 33.4 0.6 31.7 0.1 C30 -0.4 25.3 0.6 24.3 1.5 C23.3 2.4 1.1 26.3 0.2 28.2 C-0.8 30.1 0.4 35.4 4.4 39.1 z" id="m1" fill="#293C49" /><path d="M4.4 39.1 C0.4 35.4 -0.8 30.1 0.2 28.2 C1.1 26.3 23.3 2.4 24.3 1.5 C25.3 0.6 30 -0.4 31.7 0.1 C33.4 0.6 34.6 10.6 34.8 15.3 C35 20 31.9 37.2 31.5 42.6 C31.1 48 29.4 48.4 27.1 51.2 C24.8 54 20.3 52.3 16.7 49.7 C13 47.2 8.4 42.7 4.4 39.1 z M6.1 37.9 C9.8 41.3 14.1 45.5 17.5 48 C20.8 50.5 25 52.1 27.1 49.4 C29.2 46.7 30.8 46.4 31.2 41.3 C31.6 36.2 34.4 20.1 34.2 15.6 C33.9 11 32.8 1.6 31.3 1.1 C29.7 0.6 25.4 1.6 24.5 2.4 C23.5 3.3 3 25.8 2.2 27.6 C1.3 29.4 2.4 34.4 6.1 37.9 z" opacity="0.15" id="n1" /><path d="M7 28.2 C6.4 24.8 22 7.3 23.8 5.4 C25.6 3.5 27.3 3 29.7 2.9 C32.1 2.8 33.5 13 32.5 18.7 C31.5 24.4 29.2 45.7 26.4 46.9 C23.6 48.1 22.8 45.6 15.4 36.4 C12 32.2 7.7 31.5 7 28.2 z" id="o1" fill="#4B5966" /><path d="M11 34 C16.1 30.7 19.2 27.8 20.3 25.3 C20.9 24 22.4 27.6 22.5 32.2 C22.6 34.2 21.5 37.6 19.2 42.4 L11 34 z" id="p1" fill="#293C49" /></g></g><g transform="translate(102.6, 70.59998) translate(23, 25)" id="q1"><g id="r1"><g id="s1"><path d="M87.2 74.6 C85.9 71 84.6 66.6 82.2 61.8 C83.8 62.4 85.3 63 86.1 64.5 C84.9 58.9 83.6 52.1 80.2 47.3 C80.2 46.9 80.2 46.5 80.2 46.1 C80 31.9 77.9 25.5 76.4 19.1 C74 9 65.6 3.7 57.8 1.1 C52.1 -0.8 46.6 1.3 43.9 1.3 C41.2 1.3 35.7 -0.8 30 1.1 C22.1 3.8 13.7 9 11.4 19.1 C9.9 25.5 7.8 31.9 7.6 46.1 C7.6 46.5 7.6 46.9 7.6 47.3 C4.2 52 2.9 58.9 1.7 64.5 C2.5 63 4 62.4 5.6 61.8 C3.3 66.6 1.9 71.1 0.6 74.6 C2.1 72.7 6 72.5 7.5 70.5 C6.5 74.9 5.8 87.6 12.8 92.5 C13.7 88.4 15.2 84.6 17.2 81.1 C17.5 82.6 18.1 84.3 18.9 86.1 C19.9 80.8 20.9 78.7 22.5 77.6 C21.8 84 20.9 88 23.7 89.6 C23.6 86.7 26 83.3 28.4 80.2 C32.3 83 36.8 84 43.9 84 C51.1 83.9 55.5 83 59.4 80.2 C61.8 83.4 64.2 86.8 64.1 89.6 C66.8 88 66 84 65.3 77.6 C66.9 78.8 67.9 80.8 68.9 86.1 C69.7 84.3 70.2 82.6 70.6 81.1 C72.6 84.6 74.2 88.5 75 92.5 C82 87.5 81.2 74.9 80.3 70.5 C81.8 72.4 85.6 72.7 87.2 74.6 z" id="t1" fill="#4B5966" /><path d="M87.2 74.6 C85.6 72.7 81.8 72.4 80.3 70.5 C81.2 74.9 82 87.5 75 92.5 C74.2 88.5 72.6 84.6 70.6 81.1 C70.2 82.6 69.7 84.3 68.9 86.1 C67.9 80.8 66.9 78.8 65.3 77.6 C66 84 66.8 88 64.1 89.6 C64.2 86.8 61.8 83.4 59.4 80.2 C55.5 83 51.1 83.9 43.9 84 C36.8 84 32.3 83 28.4 80.2 C26 83.3 23.6 86.7 23.7 89.6 C20.9 88 21.8 84 22.5 77.6 C20.9 78.7 19.9 80.8 18.9 86.1 C18.1 84.3 17.5 82.6 17.2 81.1 C15.2 84.6 13.7 88.4 12.8 92.5 C5.8 87.6 6.5 74.9 7.5 70.5 C6 72.5 2.1 72.7 0.6 74.6 C1.9 71.1 3.3 66.6 5.6 61.8 C4 62.4 2.5 63 1.7 64.5 C2.9 58.9 4.2 52 7.6 47.3 C7.6 46.9 7.6 46.5 7.6 46.1 C7.8 31.9 9.9 25.5 11.4 19.1 C13.7 9 22.1 3.8 30 1.1 C35.7 -0.8 41.2 1.3 43.9 1.3 C46.6 1.3 52.1 -0.8 57.8 1.1 C65.6 3.7 74 9 76.4 19.1 C77.9 25.5 80 31.9 80.2 46.1 C80.2 46.5 80.2 46.9 80.2 47.3 C83.6 52.1 84.9 58.9 86.1 64.5 C85.3 63 83.8 62.4 82.2 61.8 C84.6 66.6 85.9 71 87.2 74.6 z M84.1 70.6 C82.8 67.2 81.6 63.1 79.4 58.7 C80.9 59.2 82.3 59.8 83 61.2 C81.9 56 80.7 49.7 77.6 45.2 C77.6 44.9 77.6 44.5 77.6 44.1 C77.4 31 75.4 25 74 19.1 C71.8 9.7 64 4.8 56.8 2.4 C51.5 0.6 46.4 2.1 43.9 2.1 C41.4 2.1 36.3 0.6 31 2.4 C23.7 4.9 15.9 9.7 13.8 19.1 C12.4 25 10.4 31 10.2 44.1 C10.2 44.5 10.2 44.9 10.2 45.2 C7.1 49.6 5.9 56 4.8 61.2 C5.5 59.8 6.9 59.2 8.4 58.7 C6.2 63.1 5 67.3 3.7 70.6 C5.1 68.8 8.8 68.6 10.1 66.7 C9.2 70.8 6 82.6 12.5 87.2 C13.3 83.3 15.9 79.8 17.7 76.6 C18 78 18.4 79 19.1 80.7 C20.1 75.8 22.6 74.4 24.1 73.3 C23.4 79.3 22.4 82 24.2 83.6 C24.8 81.2 27.3 78.6 29.5 75.7 C33.1 78.3 37.3 80 43.9 80 C50.6 79.9 54.7 78.3 58.3 75.7 C60.5 78.7 63.8 81 63.7 83.6 C66.2 82.1 64.4 79.3 63.7 73.3 C65.2 74.4 67.7 75.1 68.7 80 C69.4 78.3 71.8 78 72.2 76.6 C74 79.8 74.7 83.4 75.4 87.2 C81.9 82.5 78.5 70.8 77.7 66.7 C79 68.5 82.6 68.8 84.1 70.6 z" opacity="0.15" id="u1" /></g></g></g><g id="v1"><g transform="translate(103.9, 93.49998) translate(32, 35)" id="w1"><g transform="translate(0, 8)" id="x1"><path d="M64 23.9 C61.8 21.3 58.3 20.9 55.7 19 C52.7 16.8 52.1 14 50.4 10.8 C46.5 3.6 41 0.8 33.5 0.7 C26.9 0.7 21.5 2.7 17.6 9 C16 11.6 15.2 15.2 13.1 17.5 C11 19.8 7.8 20.1 5.4 21.8 C1.5 24.6 -1.2 31.1 0.6 36 C2 39.8 8.4 42.3 12.3 43.7 C24.5 48.1 40.4 48 52.7 44.3 C56.1 43.3 59.5 41.8 62.5 39.8 C65.7 37.6 66.6 36.4 66.6 32.6 C66.5 29.7 66 26.2 64 23.9 z" id="y1" fill="#EDEEEE" /><path d="M64 23.9 C66 26.2 66.5 29.7 66.6 32.6 C66.6 36.4 65.7 37.6 62.5 39.8 C59.5 41.8 56.1 43.3 52.7 44.3 C40.4 48 24.5 48.1 12.3 43.7 C8.4 42.3 2 39.8 0.6 36 C-1.2 31.1 1.5 24.6 5.4 21.8 C7.8 20.1 11 19.8 13.1 17.5 C15.2 15.2 16 11.6 17.6 9 C21.5 2.7 26.9 0.7 33.5 0.7 C41 0.8 46.5 3.6 50.4 10.8 C52.1 14 52.7 16.8 55.7 19 C58.3 20.9 61.8 21.3 64 23.9 z M61.8 23.5 C59.8 21 56.5 20.7 54.1 18.9 C51.3 16.8 50.8 14.2 49.2 11.3 C45.6 4.6 40.5 1.9 33.5 1.9 C27.4 1.9 22.3 3.7 18.7 9.6 C17.2 12 16.5 15.4 14.5 17.5 C12.6 19.6 9.6 19.9 7.4 21.5 C3.7 24.1 1.2 30.2 2.9 34.7 C4.2 38.3 10.2 40.6 13.8 41.9 C25.1 46 39.9 45.9 51.3 42.4 C54.5 41.5 57.7 40.1 60.4 38.3 C63.4 36.2 64.3 35.1 64.3 31.6 C64.2 28.9 63.7 25.6 61.8 23.5 z" opacity="0.15" id="z1" /><g transform="translate(19, 14)" id="a2" fill="#282421"><path d="M7 2.2 C6.3 1.8 5.3 2.4 5.2 3.3 C5.2 4.1 6.8 4.9 7.6 4.5 C8.3 4.1 7.8 2.9 7.2 2.4" id="b2" /><path d="M2.1 0.7 C1.4 0.3 0.4 0.9 0.3 1.8 C0.3 2.6 1.3 3.7 2.1 3.3 C2.9 2.9 2.9 1.3 2.3 0.8" id="c2" /><path d="M2.1 7.4 C1.4 7 0.4 7.6 0.3 8.5 C0.3 9.3 1.4 10.2 2.1 9.9 C2.8 9.5 2.9 8.1 2.2 7.6" id="d2" /><path d="M22 2.2 C22.7 1.8 23.7 2.4 23.8 3.3 C23.8 4.1 22.2 4.9 21.4 4.5 C20.7 4.1 21.2 2.9 21.8 2.4" id="e2" /><path d="M26.9 0.7 C27.6 0.3 28.6 0.9 28.7 1.8 C28.7 2.6 27.7 3.7 26.9 3.3 C26.2 2.9 26.1 1.3 26.7 0.8" id="f2" /><path d="M26.9 7.4 C27.6 7 28.6 7.6 28.7 8.5 C28.7 9.3 27.6 10.2 26.9 9.9 C26.2 9.5 26.1 8.1 26.8 7.6" id="g2" /></g></g></g><g transform="translate(91, 84.69996) translate(65, 74)" id="h2"><path d="M4.2 17 C7.4 16.4 9.1 15 10.5 13.9 C11.4 13.2 12.4 12.3 13.4 11.1 C14.7 12.7 15.6 13.7 16.2 14.1 C17 14.8 19.4 16.3 20.9 16.9 C22.4 17.5 26.3 17.8 26.3 17.2 C26.3 16.6 21.8 15.9 20.2 14.7 C18.6 13.5 17 12.5 15.9 11 C14.9 9.6 15.3 8.6 15.2 7 C15.1 5 15.4 2.8 15.5 1.3 C15.6 -0.7 12.3 -0.1 12.3 1.3 C12.3 2.7 12.3 4.8 12.3 6.6 C12.3 8.4 11.6 10.6 10.2 11.8 C8.8 13 6.9 14.5 4.8 15.3 C3.5 15.8 0.8 16.4 0.9 17 C0.8 17.4 2.9 17.3 4.2 17 z" id="i2" fill="#282421" /></g><g transform="translate(109.9, 74.49997) translate(51, 63)" id="j2"><g id="k2"><path d="M8.5 0.8 C3 0.8 0.1 2.6 0.1 6.3 C0.1 9.3 1 9.5 2.6 11.1 C4.1 12.7 4.4 14.2 8.6 14.2 C12.8 14.2 13.1 12.7 14.6 11.1 C16.1 9.5 17.1 9.3 17.1 6.3 C16.9 2.6 14 0.8 8.5 0.8 z" id="l2" fill="#302622" /><path d="M12.1 4.4 C11.4 4.3 9.4 4.4 8.5 4.9 C7.6 4.4 5.7 4.2 4.9 4.4 C3.6 4.6 2.8 6.9 3 6.9 C3.2 7 4.9 5.8 5.7 6.1 C6.9 6.5 8 7.7 8.4 8.6 C8.8 7.8 9.9 6.5 11.1 6.1 C12 5.8 13.6 7 13.8 6.9 C14.2 6.9 13.3 4.6 12.1 4.4 z" id="m2" fill="#F7F7F7" /></g></g><g transform="translate(103.9, 93.49997) translate(37, 12)" id="n2"><g id="o2"><path d="M0.3 20.7 C0.7 19.4 4.5 19.3 9.6 21.2 C14 22.8 13.1 28.2 9.1 28.8 C3.4 29.5 -0.8 24.4 0.3 20.7 z" id="p2" fill="#D8D8D8" /><path d="M10 9.1 C13.3 8.1 19.3 8.3 22.1 10.3 C25.4 12.7 26.4 16.7 26.1 19.7 C25.4 27.1 22.5 30.1 17.7 32.6 C16.5 33.2 14 34.5 13.8 34.2 C13.6 33.9 20.5 29.3 16.7 23.6 C15.7 22.2 13.6 20.2 8.6 19.2 C4.2 18.3 2.3 18.6 1.4 16.6 C0.4 14.3 4.5 10.7 10 9.1 z" id="q2" fill="#607482" /><path d="M15.3 22.9 C15.1 26.9 10.9 29.6 7.2 28.5 C3.1 27.3 2 24.3 2.7 20.9 C6.1 20.1 15.2 22 15.3 22.9 z" id="r2" fill="#282421" /><path d="M23 18.8 C20.8 20.4 18.2 21.3 16.4 20.7 C14.5 20.1 14.3 17.8 13.7 15.7 C14.9 14.5 17.6 11.8 19.6 12.8 C21.5 13.7 22.8 16.9 23 18.8 z" id="s2" fill="#EDEEEF" /><path d="M19.7 0.5 C26.6 2.6 26.6 9.1 26.6 11.3 C22 6.5 15 4.3 8.4 4.6 C8.6 2.7 14.2 -1.2 19.7 0.5 z" id="t2" fill="#607482" /><path d="M13.2 24.5 L13.3 23.7 C13.4 23.3 13.1 22.8 12.7 22.7 C11.1 22.3 7.8 21.6 8.5 22.9 C8.7 23.3 10.5 23.9 11 24.3 C11.2 24.5 11.4 24.7 11.6 24.9 C12.2 25.4 13.1 25.2 13.2 24.5 z" id="u2" fill="#FFF" /></g><g id="v2"><path d="M0.3 20.7 C0.7 19.4 4.5 19.3 9.6 21.2 C14 22.8 13.1 28.2 9.1 28.8 C3.4 29.5 -0.8 24.4 0.3 20.7 z" id="w2" fill="#EDEEEF" /><path d="M10 9.1 C13.3 8.1 19.3 8.3 22.1 10.3 C25.4 12.7 26.4 16.7 26.1 19.7 C25.4 27.1 22.5 30.1 17.7 32.6 C16.5 33.2 14 34.5 13.8 34.2 C13.6 33.9 20.5 29.3 16.7 23.6 C15.7 22.2 13.6 20.2 8.6 19.2 C4.2 18.3 2.3 18.6 1.4 16.6 C0.4 14.3 4.5 10.7 10 9.1 z" id="x2" fill="#607482" /><path d="M15.3 22.9 C15.1 26.9 10.9 29.6 7.2 28.5 C3.1 27.3 2 24.3 2.7 20.9 C6.1 20.1 15.2 22 15.3 22.9 z" id="y2" fill="#282421" /><path d="M23 18.8 C20.8 20.4 18.2 21.3 16.4 20.7 C14.5 20.1 14.3 17.8 13.7 15.7 C14.9 14.5 17.6 11.8 19.6 12.8 C21.5 13.7 22.8 16.9 23 18.8 z" id="z2" fill="#EDEEEF" /><path d="M19.7 0.5 C26.6 2.6 26.6 9.1 26.6 11.3 C22 6.5 15 4.3 8.4 4.6 C8.6 2.7 14.2 -1.2 19.7 0.5 z" id="a3" fill="#607482" /><path d="M13.2 24.5 L13.3 23.7 C13.4 23.3 13.1 22.8 12.7 22.7 C11.1 22.3 7.8 21.6 8.5 22.9 C8.7 23.3 10.5 23.9 11 24.3 C11.2 24.5 11.4 24.7 11.6 24.9 C12.2 25.4 13.1 25.2 13.2 24.5 z" id="b3" fill="#FFF" /></g></g><g transform="translate(103.9, 93.49997) translate(67, 12)" id="c3"><g id="d3"><path d="M17 9.1 C13.7 8.1 7.7 8.3 4.9 10.3 C1.6 12.7 0.6 16.7 0.9 19.7 C1.6 27.1 4.5 30.1 9.3 32.6 C10.5 33.2 13 34.5 13.2 34.2 C13.4 33.9 6.5 29.3 10.3 23.6 C11.3 22.2 13.4 20.2 18.4 19.2 C22.8 18.3 24.7 18.6 25.6 16.6 C26.6 14.3 22.5 10.7 17 9.1 z" id="e3" fill="#607482" /><path d="M26.7 20.7 C26.3 19.4 22.5 19.3 17.4 21.2 C13 22.8 13.9 28.2 17.9 28.8 C23.6 29.5 27.8 24.4 26.7 20.7 z" id="f3" fill="#D8D8D8" /><path d="M11.7 22.9 C11.9 26.9 16.1 29.6 19.8 28.5 C23.9 27.3 25 24.3 24.3 20.9 C20.9 20.1 11.8 22 11.7 22.9 z" id="g3" fill="#282421" /><path d="M4 18.8 C6.2 20.4 8.8 21.3 10.6 20.7 C12.5 20.1 12.7 17.8 13.3 15.7 C12.1 14.5 9.4 11.8 7.4 12.8 C5.5 13.7 4.2 16.9 4 18.8 z" id="h3" fill="#EDEEEF" /><path d="M7.3 0.5 C0.4 2.6 0.4 9.1 0.4 11.3 C5 6.5 12 4.3 18.6 4.6 C18.4 2.7 12.8 -1.2 7.3 0.5 z" id="i3" fill="#607482" /><path d="M23.4 23.3 L23.4 22.5 C23.4 22 23.1 21.7 22.6 21.6 C21 21.5 17.6 21.4 18.6 22.5 C18.9 22.8 20.8 23.1 21.3 23.4 C21.6 23.5 21.8 23.7 22 23.9 C22.6 24.4 23.4 24 23.4 23.3 z" id="j3" fill="#FFF" /></g><g id="k3"><path d="M17 9.1 C13.7 8.1 7.7 8.3 4.9 10.3 C1.6 12.7 0.6 16.7 0.9 19.7 C1.6 27.1 4.5 30.1 9.3 32.6 C10.5 33.2 13 34.5 13.2 34.2 C13.4 33.9 6.5 29.3 10.3 23.6 C11.3 22.2 13.4 20.2 18.4 19.2 C22.8 18.3 24.7 18.6 25.6 16.6 C26.6 14.3 22.5 10.7 17 9.1 z" id="l3" fill="#607482" /><path d="M26.7 20.7 C26.3 19.4 22.5 19.3 17.4 21.2 C13 22.8 13.9 28.2 17.9 28.8 C23.6 29.5 27.8 24.4 26.7 20.7 z" id="m3" fill="#EDEEEF" /><path d="M11.7 22.9 C11.9 26.9 16.1 29.6 19.8 28.5 C23.9 27.3 25 24.3 24.3 20.9 C20.9 20.1 11.8 22 11.7 22.9 z" id="n3" fill="#282421" /><path d="M4 18.8 C6.2 20.4 8.8 21.3 10.6 20.7 C12.5 20.1 12.7 17.8 13.3 15.7 C12.1 14.5 9.4 11.8 7.4 12.8 C5.5 13.7 4.2 16.9 4 18.8 z" id="o3" fill="#EDEEEF" /><path d="M7.3 0.5 C0.4 2.6 0.4 9.1 0.4 11.3 C5 6.5 12 4.3 18.6 4.6 C18.4 2.7 12.8 -1.2 7.3 0.5 z" id="p3" fill="#607482" /><path d="M23.4 23.3 L23.4 22.5 C23.4 22 23.1 21.7 22.6 21.6 C21 21.5 17.6 21.4 18.6 22.5 C18.9 22.8 20.8 23.1 21.3 23.4 C21.6 23.5 21.8 23.7 22 23.9 C22.6 24.4 23.4 24 23.4 23.3 z" id="q3" fill="#FFF" /></g></g></g></g></g></g><defs><g transform="translate(17.09519, 0.800995) translate(-135.2952, -293.601)" id="r3" fill="#000"><path d="M118.2 302.7 C118.4 307.4 132.5 311.2 149.8 311.2 C167.1 311.2 181.2 307.4 181.4 302.7 C181.4 307.5 181.4 310.1 181.4 310.5 C181.4 315.3 167.3 319.1 149.8 319.1 C132.3 319.1 118.2 315.2 118.2 310.5 L118.2 302.7 L118.2 302.7 z" fill-opacity="0.4528" id="s3" fill="#593001" /><path d="M118.7 301.7 C118.9 306.4 133 310.2 150.3 310.2 C167.6 310.2 181.7 306.4 181.9 301.7 C181.9 306.5 181.9 309.1 181.9 309.5 C181.9 314.3 167.8 318.1 150.3 318.1 C132.8 318.1 118.7 314.2 118.7 309.5 L118.7 301.7 L118.7 301.7 z" id="t3" fill="#DA8113" /><linearGradient x1="46.0545" y1="-118.6926" x2="45.4656" y2="-118.6926" gradientUnits="userSpaceOnUse" gradientTransform="matrix(117.135, 0, 0, 28.4634, -5208.417, 3687.795)" id="u3"><stop offset="0%" stop-color="#D9952A" stop-opacity="1" /><stop offset="6.438854%" stop-color="#CA7519" stop-opacity="1" /><stop offset="30.54%" stop-color="#E3AD3A" stop-opacity="1" /><stop offset="51.05%" stop-color="#FFEC91" stop-opacity="1" /><stop offset="68.8%" stop-color="#E9BD44" stop-opacity="1" /><stop offset="86.24%" stop-color="#FFED6C" stop-opacity="1" /><stop offset="93.87%" stop-color="#F2D353" stop-opacity="1" /><stop offset="100%" stop-color="#F2B947" stop-opacity="1" /></linearGradient><path d="M118.2 301.6 C118.4 306.1 132.7 309.7 150.3 309.7 C167.9 309.7 182.2 306.1 182.4 301.6 C182.4 306.2 182.4 308.7 182.4 309 C182.4 313.5 168 317.2 150.3 317.2 C132.6 317.2 118.2 313.5 118.2 309 L118.2 301.6 L118.2 301.6 z" id="v3" style="fill:url(#u3)" /><linearGradient x1="45.4914" y1="-117.9547" x2="45.9407" y2="-117.5895" gradientUnits="userSpaceOnUse" gradientTransform="matrix(115.425, 0, 0, 29.925, -5125.077, 3826.124)" id="w3"><stop offset="0%" stop-color="#F4E072" stop-opacity="1" /><stop offset="100%" stop-color="#DB9427" stop-opacity="1" /></linearGradient><ellipse cx="150.3" cy="301.5" rx="31.6" ry="8.2" id="x3" style="fill:url(#w3)" /><linearGradient x1="45.4656" y1="-126.0065" x2="46.0545" y2="-126.0065" gradientUnits="userSpaceOnUse" gradientTransform="matrix(117.135, 0, 0, 18.6219, -5208.417, 2651.479)" id="y3"><stop offset="0%" stop-color="#D9952A" stop-opacity="1" /><stop offset="6.438854%" stop-color="#CA7519" stop-opacity="1" /><stop offset="30.54%" stop-color="#E3AD3A" stop-opacity="1" /><stop offset="51.05%" stop-color="#FFEC91" stop-opacity="1" /><stop offset="68.8%" stop-color="#E9BD44" stop-opacity="1" /><stop offset="86.24%" stop-color="#FFED6C" stop-opacity="1" /><stop offset="93.87%" stop-color="#F2D353" stop-opacity="1" /><stop offset="100%" stop-color="#F2B947" stop-opacity="1" /></linearGradient><path d="M119.2 299.9 C119 300.2 118.9 300.6 118.9 301 C118.9 305.5 132.9 309.2 150.3 309.2 C167.7 309.2 181.7 305.5 181.7 301 C181.7 300.6 181.6 300.3 181.4 299.9 C182 300.5 182.4 301.2 182.4 301.9 C182.4 306.4 168 310.1 150.3 310.1 C132.6 310.1 118.2 306.4 118.2 301.9 C118.2 301.3 118.6 300.6 119.2 299.9 z" id="z3" style="fill:url(#y3)" /><linearGradient x1="45.196" y1="-121.5895" x2="45.3746" y2="-120.6758" gradientUnits="userSpaceOnUse" gradientTransform="matrix(101.745, 0, 0, 23.94, -4458.332, 3199.41)" id="a4"><stop offset="0%" stop-color="#F8DD61" stop-opacity="1" /><stop offset="100%" stop-color="#EAA330" stop-opacity="1" /></linearGradient><ellipse cx="150.3" cy="300.8" rx="27.8" ry="6.6" id="b4" style="fill:url(#a4)" /><linearGradient x1="45.5694" y1="-134.267" x2="45.0221" y2="-134.267" gradientUnits="userSpaceOnUse" gradientTransform="matrix(101.745, 0, 0, 13.2525, -4458.332, 2077.223)" id="c4"><stop offset="0%" stop-color="#F4CA2F" stop-opacity="1" /><stop offset="51.38%" stop-color="#BF7737" stop-opacity="1" /><stop offset="100%" stop-color="#E4A929" stop-opacity="1" /></linearGradient><path d="M122.6 301.5 C122.5 301.3 122.4 301 122.4 300.8 C122.4 297.2 134.9 294.2 150.2 294.2 C165.5 294.2 178 297.1 178 300.8 C178 301 177.9 301.3 177.8 301.5 C176.3 298.2 164.5 295.6 150.1 295.6 C135.7 295.6 124.1 298.2 122.6 301.5 z" id="d4" style="fill:url(#c4)" /></g></defs><desc>8GJEJ7H5KHC,njez34Ug7SLZXePusZ4R7PYPPTe2m9syy4jDophlO9MxBFPZWzwF5cN7go39zyW432jtJOsa/npubyMPvll0m6w/1SBqnAjRau7LrOQMQrA=</desc></svg>