<?xml version="1.0" encoding="utf-8"?><!DOCTYPE svg PUBLIC "-//W3C//DTD SVG 1.1//EN" "http://www.w3.org/Graphics/SVG/1.1/DTD/svg11.dtd"><svg x="0" y="0" width="340px" height="340px" viewBox="0, 0, 340, 340" preserveAspectRatio="xMidYMid" font-size="0" id="a" enable-background="new 0 0 340 340" xmlns="http://www.w3.org/2000/svg" xmlns:xlink="http://www.w3.org/1999/xlink" xmlns:xml="http://www.w3.org/XML/1998/namespace" version="1.1"><g id="b" fill="#000"><g id="c"><g transform="translate(0, 0) translate(0, 224)" id="d"><ellipse cx="168.6" cy="53.1" rx="57.8" ry="12.8" fill-opacity="0.25" id="e" /></g><g id="f"><g transform="translate(103.6, 71.49997) translate(0, 107)" id="g"><path d="M40.6 27.9 C34 31.5 24.6 28.4 21.5 21.6 C18.3 14.8 22.1 5.6 29.1 2.9 C26.8 1.1 24 0.4 21.1 0.5 C14.8 0.4 8.4 3.4 4.6 8.5 C0.4 14.2 -0.4 22.4 2.6 28.8 C5 25 5 25 7.5 21.2 C3.5 28.9 6.9 30.6 12.1 37.6 C12.7 35.3 13.2 33.9 14.9 32.7 C14.9 34.9 14.9 36.4 15.5 38.3 C16.2 40.7 16.7 41.1 17.2 42.4 C18.3 42.5 19.3 42.1 20.1 41.4 L19.9 44.6 C20.7 44.8 23.2 44.2 24 44.4 C29.1 44.6 37.1 44.8 40.7 39.1 C44.6 33.4 40.6 27.9 40.6 27.9 z" id="h" fill="#EFE9E6" /><path d="M40.6 27.9 C40.6 27.9 44.6 33.4 40.7 39.1 C37.1 44.8 29.1 44.6 24 44.4 C23.2 44.2 20.7 44.8 19.9 44.6 L20.1 41.4 C19.3 42.1 18.3 42.5 17.2 42.4 C16.7 41.1 16.2 40.7 15.5 38.3 C14.9 36.4 14.9 34.9 14.9 32.7 C13.2 33.9 12.7 35.3 12.1 37.6 C6.7 30.2 3.4 28.6 7.5 21.2 C5 25 5 25 2.6 28.8 C-0.4 22.4 0.4 14.2 4.6 8.5 C8.4 3.4 14.8 0.4 21.1 0.5 C24 0.4 26.8 1.1 29.1 2.9 C22.1 5.6 18.3 14.8 21.5 21.6 C24.6 28.4 34 31.5 40.6 27.9 z M40.3 29.6 C34.4 32.8 23.7 28 20.9 21.9 C18.1 15.8 20.5 4.9 26.7 2.5 C24.6 0.9 22 1.4 19.4 1.5 C13.7 1.4 9.9 3.6 6.4 8.2 C2.7 13.4 1 18.7 3.6 24.5 C5.8 21.1 6.3 21.6 8.6 18.2 C7.6 23.9 7.9 29.4 11.5 33.8 C12 31.7 13.9 31.5 15.5 30.4 C15.5 32.4 15.8 34.4 16.4 36.1 C17.2 39.1 20.7 40.1 21.4 39.5 L21.6 42.5 C22.3 42.7 25.9 42.3 26.7 42.5 C31.3 42.7 37.2 42.7 40.4 37.5 C41.8 34.9 40.6 31.9 40.3 29.6 z" opacity="0.16" id="i" /></g><g transform="translate(126.2, 270.3) scale(1.457399) translate(-126.2, -270.3) translate(99.3, 96.39996) translate(20, 132)" id="j"><path d="M10 26.1 C7.2 22.4 5.1 19.5 4.8 14.6 C4.5 9.6 7.9 5.1 12.4 2.9 C17.1 0.6 29.7 4.5 34.5 6.5 C42.3 9.7 42 22.9 34.4 27.1 C29.3 29.9 25.5 33.8 25.6 42.5 C25.6 44.4 18 45.2 13.2 45.1 C11.4 45.2 5.2 45 4.9 41.8 C4.6 38.9 5.3 36.2 8 35 C11.2 33.4 12 32 10 26.1 z" id="k" fill="#AAA5A3" /><path d="M10 26.1 C7.2 22.4 5.1 19.5 4.8 14.6 C4.5 9.6 7.9 5.1 12.4 2.9 C17.1 0.6 29.7 4.5 34.5 6.5 C42.3 9.7 42 22.9 34.4 27.1 C29.3 29.9 25.5 33.8 25.6 42.5 C25.6 44.4 18 45.2 13.2 45.1 C11.4 45.2 5.2 45 4.9 41.8 C4.6 38.9 5.3 36.2 8 35 C11.2 33.4 12 32 10 26.1 z M10 24.3 C11.8 29.7 12.8 33.8 9.9 35.2 C7.4 36.3 6.2 37.5 6.5 40.1 C6.8 43 12.4 43.2 14.1 43.1 C18.5 43.2 23.9 41.9 23.9 40.2 C23.8 32.3 28.7 29.3 33.4 26.7 C40.3 23 40.5 10.9 33.4 8 C29 6.2 17.5 2.6 13.3 4.7 C9.2 6.7 6.1 10.8 6.4 15.4 C6.6 19.9 7.4 21 10 24.3 z" opacity="0.15" id="l" /><path d="M6.5 6.1 C8.8 2.5 13.3 0.9 17.6 0.9 C21.7 1 38.5 2.1 41.1 13.1 C42.1 17.3 40.3 22.3 37.6 25.6 C35.7 24.9 32 24.7 32.1 23.7 C31.8 26.2 28.6 27.6 26.3 28.6 C26.7 27.4 26.2 25.9 25.2 25.2 C23.8 26.1 22.4 26.9 21 27.8 C19.1 26.9 18.7 25.5 18 23.3 C18 24.3 18 25.3 18.1 26.3 C16.9 26.3 15.7 26.3 14.6 26.3 C13.9 25.8 12.8 24.8 12.1 23.9 C12.1 24.9 12.2 25.8 12.3 26.8 C11.1 26.8 10 26.9 8.8 26.9 C8 25.3 7.2 23.8 6.4 22.2 C6.3 23.9 5.2 25.5 3.7 26.3 C3.6 24 3.5 21.6 3.5 19.3 C2.6 19.2 1.8 19 0.9 18.9 C4.4 15.9 4 10.1 6.5 6.1 z" id="m" fill="#CAC3C0" /><path d="M6.5 6.1 C8.8 2.5 13.3 0.9 17.6 0.9 C21.7 1 38.5 2.1 41.1 13.1 C42.1 17.3 40.3 22.3 37.6 25.6 C35.7 24.9 32 24.7 32.1 23.7 C31.8 26.2 28.6 27.6 26.3 28.6 C26.7 27.4 26.2 25.9 25.2 25.2 C23.8 26.1 22.4 26.9 21 27.8 C19.1 26.9 18.7 25.5 18 23.3 C18 24.3 18 25.3 18.1 26.3 C17 26.3 15.8 26.3 14.6 26.3 C13.9 25.8 12.8 24.8 12.1 23.9 C12.1 23.9 12.1 23.9 12 23.9 C12.1 24.9 12.2 25.8 12.3 26.8 C11.1 26.8 10 26.9 8.8 26.9 C8 25.3 7.2 23.8 6.4 22.2 C6.3 23.9 5.2 25.5 3.7 26.3 C3.6 24 3.5 21.6 3.5 19.3 C2.6 19.2 1.8 19 0.9 18.9 C4.4 15.9 4 10.1 6.5 6.1 z M7.5 6.5 C5.4 9.9 6.9 14.7 3.9 17.3 C4.7 17.4 5 17.2 5.8 17.3 C5.8 19.3 4.5 20.7 4.6 22.7 C5.9 22 6.5 21.1 6.6 19.6 C7.3 21 8.5 22.7 9.2 24.1 C10.2 24.1 10.1 24.4 11.2 24.4 C11.1 23.5 10.7 21.1 11.2 21.1 C11.8 21.9 13.4 23.7 14 24.1 C14.9 24.1 15.7 23.7 16.7 23.7 C16.6 22.8 17.4 21.9 17.4 21.1 C18 23 20.4 24.5 22 25.2 C23.2 24.4 24.9 24.5 26.1 23.7 C27 24.3 27.4 24.6 27.1 25.6 C29.1 24.7 30.3 23.5 30.5 21.4 C30.4 22.3 35.7 22.1 37.3 22.7 C39.6 19.9 39.7 15.8 38.9 12.3 C36.7 2.8 21.6 2 18.1 2 C14.5 2 9.4 3.4 7.5 6.5 z" opacity="0.15" id="n" /></g><g transform="translate(211.1, 270.3) scale(1.457399) translate(-211.1, -270.3) translate(105.3, 96.39996) translate(91.5, 155) scale(-1, 1) translate(-91.5, -155) translate(71, 132)" id="o"><path d="M9.6 26.1 C6.8 22.4 4.7 19.5 4.4 14.6 C4.1 9.6 7.5 5.1 12 2.9 C16.7 0.6 29.3 4.5 34.1 6.5 C41.9 9.7 41.6 22.9 34 27.1 C28.9 29.9 25.1 33.8 25.2 42.5 C25.2 44.4 17.6 45.2 12.8 45.1 C11 45.2 4.8 45 4.5 41.8 C4.2 38.9 4.9 36.2 7.6 35 C10.8 33.4 11.6 32 9.6 26.1 z" id="p" fill="#AAA5A3" /><path d="M9.6 26.1 C6.8 22.4 4.7 19.5 4.4 14.6 C4.1 9.6 7.5 5.1 12 2.9 C16.7 0.6 29.3 4.5 34.1 6.5 C41.9 9.7 41.6 22.9 34 27.1 C28.9 29.9 25.1 33.8 25.2 42.5 C25.2 44.4 17.6 45.2 12.8 45.1 C11 45.2 4.8 45 4.5 41.8 C4.2 38.9 4.9 36.2 7.6 35 C10.8 33.4 11.6 32 9.6 26.1 z M10.7 25.9 C12.5 31.3 11.9 34.2 8.9 35.6 C6.4 36.7 5.7 37.5 6 40.2 C6.3 43.1 11.9 43.3 13.6 43.2 C18 43.3 23.4 42.4 23.4 40.7 C23.3 32.8 28.3 29.3 33 26.8 C39.9 23 40.1 10.9 33 8 C28.6 6.2 17.1 2.6 12.9 4.7 C8.8 6.7 5.7 10.8 6 15.4 C6.2 19.9 8.2 22.5 10.7 25.9 z" opacity="0.15" id="q" /><path d="M6.1 6.1 C8.4 2.5 12.9 0.9 17.2 0.9 C21.3 1 38.1 2.1 40.7 13.1 C41.7 17.3 39.9 22.3 37.2 25.6 C35.3 24.9 31.6 24.7 31.7 23.7 C31.4 26.2 28.2 27.6 25.9 28.6 C26.3 27.4 25.8 25.9 24.8 25.2 C23.4 26.1 22 26.9 20.6 27.8 C18.7 26.9 18.3 25.5 17.6 23.3 C17.6 24.3 17.6 25.3 17.7 26.3 C16.5 26.3 15.3 26.3 14.2 26.3 C13.5 25.8 12.4 24.8 11.7 23.9 C11.7 23.9 11.7 23.9 11.6 23.9 C11.7 24.9 11.8 25.8 11.9 26.8 C10.7 26.8 9.6 26.9 8.4 26.9 C7.6 25.3 6.8 23.8 6 22.2 C5.9 23.9 4.8 25.5 3.3 26.3 C3.2 24 3.1 21.6 3.1 19.3 C2.2 19.2 1.4 19 0.5 18.9 C4 15.9 3.6 10.1 6.1 6.1 z" id="r" fill="#CAC3C0" /><path d="M6.1 6.1 C8.4 2.5 12.9 0.9 17.2 0.9 C21.3 1 38.1 2.1 40.7 13.1 C41.7 17.3 39.9 22.3 37.2 25.6 C35.3 24.9 31.6 24.7 31.7 23.7 C31.4 26.2 28.2 27.6 25.9 28.6 C26.3 27.4 25.8 25.9 24.8 25.2 C23.4 26.1 22 26.9 20.6 27.8 C18.7 26.9 18.3 25.5 17.6 23.3 C17.6 24.3 17.6 25.3 17.7 26.3 C16.5 26.3 15.3 26.3 14.2 26.3 C13.5 25.8 12.4 24.8 11.7 23.9 C11.7 23.9 11.7 23.9 11.6 23.9 C11.7 24.9 11.8 25.8 11.9 26.8 C10.7 26.8 9.6 26.9 8.4 26.9 C7.6 25.3 6.8 23.8 6 22.2 C5.9 23.9 4.8 25.5 3.3 26.3 C3.2 24 3.1 21.6 3.1 19.3 C2.2 19.2 1.4 19 0.5 18.9 C4 15.9 3.6 10.1 6.1 6.1 z M7.7 6.1 C5.5 9.7 5.7 15.4 2.6 18.1 C3.4 18.2 3.3 18.2 4.1 18.3 C4.1 20.3 4.3 21.5 4.4 23.5 C5.7 22.8 6 21 6.1 19.5 C6.8 20.9 7.4 22.9 8.1 24.3 C9.2 24.3 9.3 24.4 10.4 24.4 C10.3 23.5 9.5 19.1 11.2 20.4 C11.8 21.2 12.9 23.7 13.6 24.1 C14.6 24.1 14.9 24 15.9 24 C15.8 23.1 17.9 22.3 17.9 21.4 C18.5 23.4 18.9 24.6 20.6 25.4 C21.8 24.6 24 23.7 25.2 22.9 C26.1 23.5 27.4 24.6 27.1 25.6 C29.1 24.7 31.3 23.3 31.6 21.1 C31.5 22 34.6 22.5 36.2 23.2 C38.6 20.3 39.3 16.2 38.4 12.5 C36.2 2.5 21.2 1.5 17.6 1.5 C13.8 1.5 9.8 2.9 7.7 6.1 z" opacity="0.15" id="s" /></g><g transform="translate(101.5, 74.79997) translate(25, 82)" id="t"><path d="M75.6 28.2 C72 20 73.4 11 71.2 5.7 C68.7 -0.3 56.9 0.4 42.1 0.4 C27.3 0.4 15.4 -0.2 13 5.7 C10.8 11 12.2 20 8.6 28.2 C4.8 36.7 7 39.4 6.3 52.6 C5.3 70.2 10.4 92.1 16.5 111.3 C18.2 116.8 22.2 118.4 25.8 119.2 C32.4 120.6 38.3 121 42.1 120.9 C46 121 51.9 120.6 58.4 119.2 C62 118.4 66 116.8 67.7 111.3 C72.7 95.6 77 78.1 77.8 62.6 C78 59.2 79.3 36.7 75.6 28.2 z" id="u" fill="#CAC3C0" /><path d="M75.6 28.2 C79.3 36.7 78 59.2 77.8 62.6 C77 78.1 72.7 95.6 67.7 111.3 C66 116.8 62 118.4 58.4 119.2 C51.9 120.6 46 121 42.1 120.9 L42.1 120.8 L42.1 120.9 C38.3 121 32.4 120.6 25.8 119.2 C22.2 118.4 18.2 116.8 16.5 111.3 C10.4 92.1 5.3 70.2 6.3 52.6 C7 39.4 4.8 36.7 8.6 28.2 C12.2 20 10.8 11 13 5.7 C15.4 -0.2 27.3 0.4 42.1 0.4 C56.9 0.4 68.7 -0.3 71.2 5.7 C73.4 11 72 20 75.6 28.2 z M74.1 27.9 C70.7 20 72 11.3 69.9 6.2 C67.5 0.4 56.2 1.1 42.1 1.1 C28 1.1 16.6 0.5 14.3 6.2 C12.2 11.3 13.5 20 10.1 27.9 C6.5 36.1 8.6 38.7 7.9 51.4 C6.9 68.4 11.8 89.6 17.6 108.1 C19.3 113.4 23.1 114.9 26.5 115.7 C32.8 117.1 38.5 117.5 42.1 117.4 C45.8 117.5 51.5 117.1 57.7 115.7 C61.1 114.9 64.9 113.4 66.6 108.1 C71.4 92.9 75.5 76.1 76.2 61.1 C76.4 57.8 77.7 36.1 74.1 27.9 z" opacity="0.15" id="v" /></g><g transform="translate(131.67, 171.43) scale(1.1, 1.458701) translate(-135, -179) translate(102.3, 70.39996) translate(66, 147) scale(-1, 1) translate(-66, -147) translate(32, 108)" id="w"><path d="M58 67.2 C54.9 66.3 50.1 67.4 47.5 69.2 C46.3 70.1 43.1 73.1 44.9 74.9 C46.8 76.8 51.7 77.5 53.9 77.5 C56.6 77.6 62 76.9 64 73.6 C65.4 71.5 61.9 68.4 58 67.2 z" id="x" fill="#C6A67D" /><path d="M9.2 67.2 C12.3 66.3 17.1 67.4 19.7 69.2 C20.9 70.1 24.1 73.1 22.3 74.9 C20.4 76.8 15.5 77.5 13.3 77.5 C10.6 77.6 5.2 76.9 3.2 73.6 C1.8 71.5 5.3 68.4 9.2 67.2 z" id="y" fill="#C6A67D" /><path d="M58 67.2 C54.9 66.3 50.1 67.4 47.5 69.2 C46.3 70.1 43.1 73.1 44.9 74.9 C46.8 76.8 51.7 77.5 53.9 77.5 C56.6 77.6 62 76.9 64 73.6 C65.4 71.5 61.9 68.4 58 67.2 z" opacity="0.15" id="z" /><path d="M9.2 67.2 C12.3 66.3 17.1 67.4 19.7 69.2 C20.9 70.1 24.1 73.1 22.3 74.9 C20.4 76.8 15.5 77.5 13.3 77.5 C10.6 77.6 5.2 76.9 3.2 73.6 C1.8 71.5 5.3 68.4 9.2 67.2 z" opacity="0.15" id="a1" /><path d="M57.6 65.7 C54.8 64.9 50.5 65.9 48.2 67.5 C47.1 68.3 44.3 71 45.9 72.6 C47.6 74.3 52 74.9 54 74.9 C56.4 75 61.2 74.4 63 71.4 C64.2 69.6 61.1 66.8 57.6 65.7 z" opacity="0.15" id="b1" /><path d="M9.4 64.2 C12.3 63.3 16.9 64.4 19.3 66.2 C20.4 67.1 23.5 70.1 21.8 71.9 C20 73.8 15.4 74.5 13.3 74.5 C10.8 74.6 5.7 73.9 3.8 70.6 C2.4 68.5 5.7 65.4 9.4 64.2 z" opacity="0.15" id="c1" /><path d="M2.6 66.8 C2.1 65.9 1.5 64.7 1.2 64.1 C2.9 62.5 5.8 58.5 6.5 53.5 C8 41.8 9.8 28.1 12.5 23.9 C18 15.1 28.4 24.8 33.7 24.8 C39 24.8 49.4 15.2 54.9 23.9 C57.6 28.2 59.4 41.8 60.9 53.5 C61.6 59.1 64.5 62.5 66.2 64.1 C65.9 64.7 65.2 65.9 64.8 66.8 C65.6 68.3 66.4 69.8 67.3 71.6 C65.9 71.7 65 71.6 64.2 71.3 C63.8 70.6 63.2 69.9 62.3 69.3 C61.9 70.2 61.5 71.4 61 72.7 C59.4 70.5 57.3 69.6 56.1 67.7 C54.9 69.8 52.8 71.8 51.6 73.4 C50.5 73.3 49.3 73.2 48.2 73.2 C48.4 72.7 48.6 72.3 48.8 71.8 C47.4 72.2 45.6 74.5 41.3 73.6 C42.1 73.1 42.5 71.7 42.9 69.8 C41.9 70.5 40.9 71 39.8 71.3 C42.4 67.3 44.4 63.4 44.7 58.6 C45.2 49.9 45.2 46 34 45.7 C22.8 46 22.8 49.9 23.3 58.6 C23.6 63.4 25.6 67.3 28.2 71.3 C27.1 71 26 70.4 25.1 69.8 C25.5 71.7 25.9 73.1 26.7 73.6 C23.3 74.6 20.5 72.2 19.2 71.8 C19.4 72.3 19.6 72.7 19.8 73.2 C18.7 73.3 17.5 73.4 16.4 73.4 C15.2 71.7 13 69.8 11.9 67.7 C10.7 69.6 8.7 70.5 7 72.7 C6.5 71.3 6 70.2 5.7 69.3 C4.9 69.9 4.2 70.6 3.8 71.3 C3 71.6 2.1 71.7 0.7 71.6 C1 69.8 1.9 68.3 2.6 66.8 z" id="d1" fill="#FEFEFE" /><path d="M2.6 66.8 C2.1 65.9 1.5 64.7 1.2 64.1 C2.9 62.5 5.8 58.5 6.5 53.5 C8 41.8 9.8 28.1 12.5 23.9 C18 15.1 28.4 24.8 33.7 24.8 C39 24.8 49.4 15.2 54.9 23.9 C57.6 28.2 59.4 41.8 60.9 53.5 C61.6 59.1 64.5 62.5 66.2 64.1 C65.9 64.7 65.2 65.9 64.8 66.8 C65.6 68.3 66.4 69.8 67.3 71.6 C65.9 71.7 65 71.6 64.2 71.3 C63.8 70.6 63.2 69.9 62.3 69.3 C61.9 70.2 61.5 71.4 61 72.7 C59.4 70.5 57.3 69.6 56.1 67.7 C54.9 69.8 52.8 71.8 51.6 73.4 C50.5 73.3 49.3 73.2 48.2 73.2 C48.4 72.7 48.6 72.3 48.8 71.8 C47.4 72.2 45.6 74.5 41.3 73.6 C42.1 73.1 42.5 71.7 42.9 69.8 C41.9 70.5 40.9 71 39.8 71.3 C42.4 67.3 44.4 63.4 44.7 58.6 C45.2 49.9 45.2 46 34 45.7 C22.8 46 22.8 49.9 23.3 58.6 C23.6 63.4 25.6 67.3 28.2 71.3 C27.1 71 26 70.4 25.1 69.8 C25.5 71.7 25.9 73.1 26.7 73.6 C23.3 74.6 20.5 72.2 19.2 71.8 C19.4 72.3 19.6 72.7 19.8 73.2 C18.7 73.3 17.5 73.4 16.4 73.4 C15.2 71.7 13 69.8 11.9 67.7 C10.7 69.6 8.7 70.5 7 72.7 C6.5 71.3 6 70.2 5.7 69.3 C4.9 69.9 4.2 70.6 3.8 71.3 C3 71.6 2.1 71.7 0.7 71.6 C1 69.8 1.9 68.3 2.6 66.8 z M4.6 65.4 C4 66.8 3.4 67 3.2 68.7 C4.5 68.8 4.9 68 5.6 67.7 C6 67.1 6.5 67 7.2 66.4 C7.5 67.2 7 68.3 7.5 69.6 C9 67.6 10.6 66.8 11.7 65.1 C12.7 67 15.5 69.2 16.6 70.8 C17.6 70.8 18.2 70.9 19.2 70.8 C19 70.3 20.2 69.6 20 69.2 C21.2 69.6 21.3 73.6 24.4 72.6 C23.7 72.1 23.7 70 23.4 68.3 C24.2 68.8 24.6 68.7 25.6 69 C23.2 65.4 22.3 58.4 22 54.1 C21.5 46.2 24.8 44.7 35.1 44.4 C45.3 44.7 46.5 49.5 46.1 57.4 C45.8 61.8 44.5 65.4 42.1 69 C43.1 68.7 43.6 68.9 44.5 68.3 C44 70 44 71.7 43.2 72.2 C47.1 73 47.1 69.3 48.3 69 C48.1 69.5 49.5 70.4 49.3 70.8 C50.3 70.8 51 70.3 52 70.4 C53.1 68.9 54.2 66.5 55.3 64.6 C56.4 66.3 57.4 68 58.9 70 C59.4 68.8 59.7 67.7 60.1 66.9 C60.9 67.4 62 67.6 62.4 68.3 C63.1 68.6 63.4 69.1 64.7 69 C63.9 67.4 63.2 66 62.4 64.6 C62.8 63.8 63.3 63.7 63.6 63.2 C62.1 61.7 59.5 57.6 58.9 52.5 C57.5 41.8 55.9 29.4 53.4 25.5 C48.4 17.6 38.9 26.3 34.1 26.3 C29.3 26.3 19.8 17.5 14.8 25.5 C12.3 29.3 10.7 41.8 9.3 52.5 C8.6 57 5 62 3.5 63.5 C3.8 64 4.2 64.6 4.6 65.4 z" opacity="0.15" id="e1" /><path d="M4.1 23.4 C4.4 21.6 4.9 19.8 5.3 18.1 C6.4 13.9 10.3 8 13.2 5.9 C20.9 0.6 28.6 1 33.8 1 C39 1 46.3 0.6 54 5.9 C57 7.9 60.8 13.9 61.9 18.1 C62.4 19.8 62.8 21.6 63.1 23.4 C64 26.4 65.8 41.9 66 43.5 C65.6 45.4 63.8 46.4 62.1 47.4 C61.9 46.8 61.5 44.8 61.1 42.9 C60.5 44.6 60 46.3 59.5 48.4 C58.3 47.1 56.5 43.6 55.3 42.3 C56.1 46.2 52.5 50.3 48.6 50 C48.4 47.8 48.3 45.5 48.1 43.3 C46.9 44.8 45.7 46.3 44.5 47.9 C44.6 46.6 44.5 44.8 44 43.6 C42.4 39.6 36.6 38.2 33.4 38.2 C30.2 38.2 24.1 38.8 22.8 43.6 C22.4 44.9 22.3 46.6 22.4 47.9 C21.2 46.4 20 44.9 18.8 43.3 C18.6 45.5 18.5 47.8 18.3 50 C14.3 50.3 10.7 46.1 11.6 42.3 C10.4 43.6 8.6 47.1 7.4 48.4 C6.9 46.4 6.4 44.6 5.8 42.9 C5.4 44.9 5.1 46.9 4.8 47.4 C3.1 46.5 1.3 45.4 0.9 43.5 C1.4 42 3.1 26.4 4.1 23.4 z" id="f1" fill="#46494D" /><path d="M4.1 23.4 C4.4 21.6 4.9 19.8 5.3 18.1 C6.4 13.9 10.3 8 13.2 5.9 C20.9 0.6 28.6 1 33.8 1 C39 1 46.3 0.6 54 5.9 C57 7.9 60.8 13.9 61.9 18.1 C62.4 19.8 62.8 21.6 63.1 23.4 C64 26.4 65.8 41.9 66 43.5 C65.6 45.4 63.8 46.4 62.1 47.4 C61.9 46.8 61.5 44.8 61.1 42.9 C60.5 44.6 60 46.3 59.5 48.4 C58.3 47.1 56.5 43.6 55.3 42.3 C56.1 46.2 52.5 50.3 48.6 50 C48.4 47.8 48.3 45.5 48.1 43.3 C46.9 44.8 45.7 46.3 44.5 47.9 C44.6 46.6 44.5 44.8 44 43.6 C42.4 39.6 36.6 38.2 33.4 38.2 C30.2 38.2 24.1 38.8 22.8 43.6 C22.4 44.9 22.3 46.6 22.4 47.9 C21.2 46.4 20 44.9 18.8 43.3 C18.6 45.5 18.5 47.8 18.3 50 C14.3 50.3 10.7 46.1 11.6 42.3 C10.4 43.6 8.6 47.1 7.4 48.4 C6.9 46.4 6.4 44.6 5.8 42.9 C5.4 44.9 5.1 46.9 4.8 47.4 C3.1 46.5 1.3 45.4 0.9 43.5 C1.4 42 3.1 26.4 4.1 23.4 z M6.5 22.6 C5.2 25.1 2.9 39 2.5 40.5 C2.9 42.2 2.5 43.8 4.1 44.6 C4.4 44.1 5 41.3 5.4 39.5 C6 41.1 7.5 42.8 8 44.6 C9.1 43.4 11.2 40.7 12.3 39.5 C11.5 43 13.2 47.3 16.9 47 C17.1 45 17.5 41.9 17.7 39.9 C18.8 41.4 20.4 43.2 21.5 44.6 C21.4 43.4 22.3 41.1 22.7 39.9 C23.9 35.5 30.5 36.1 33.5 36.1 C36.5 36.1 41.8 36.2 43.3 39.9 C43.8 41 45.8 43.4 45.7 44.6 C46.8 43.1 48.2 41.3 49.3 39.9 C49.5 41.9 49.8 45.5 50 47.5 C53.6 47.8 54.9 42.4 54.2 38.8 C55.3 40 57.9 43.7 59 44.9 C59.5 43 60 40.8 60.5 39.2 C60.9 40.9 62.3 42.8 62.5 43.4 C64.1 42.5 63.8 42.2 64.2 40.5 C64 39 61.6 25.3 60.8 22.6 C60.5 20.9 60.2 19.3 59.7 17.7 C58.7 13.8 55.2 8.3 52.4 6.5 C45.2 1.6 38.5 2 33.8 2 C29.1 2 21.9 1.6 14.9 6.5 C12.2 8.4 8.7 13.8 7.6 17.7 C7.2 19.3 6.8 20.9 6.5 22.6 z" opacity="0.15" id="g1" /></g></g><g transform="translate(168.5, 181.5) scale(0.9398963) translate(-168.5, -181.5)" id="h1"><g transform="translate(84.8, 89.99997) translate(44, 0)" id="i1"><path d="M45.1 1.4 C55.8 2.8 63.2 5.8 66.5 8.6 C69.8 11.4 74.2 15 76.3 20.8 C78.4 26.6 79.7 33.1 78.8 39.4 C78.2 43 76.1 49.2 74.9 52 C72.5 57.5 70.1 60 69 63.4 C67.8 67 66.4 72 65.1 77.1 C63.8 82.2 59.8 86.5 57.1 88.8 C54.8 90.7 50.1 90.1 49.3 90.8 C46.3 93.7 45.4 95 39 94.9 C32.6 94.9 29.6 91.2 29 90.8 C28.3 90.2 25.3 91.1 22.3 88.9 C19.2 86.6 15 84.1 12.5 77.3 C10 70.5 9.4 67.2 8.9 63.3 C8.1 57 2.9 49.8 1.9 46.5 C0.9 43.2 -1.9 29.5 2.2 20.7 C6.3 11.9 7.2 10.3 14.1 6.6 C18 4.6 25.3 1.9 30.3 1.4 C34.1 1 40.8 0.8 45.1 1.4 z" id="j1" fill="#EFE9E6" /><path d="M18.7 4.7 C20.9 4.5 22.8 4.3 24.3 4.2 C27.3 3.9 31.9 3.1 33.3 3.8 C36.7 5.8 37.9 6.8 39.9 6.9 C41.9 7.1 44.8 3.8 47 3.8 C48 3.8 51.4 4.2 54.6 4.3 C55.5 4.3 56.6 4.3 58 4.1 C50.9 1.9 44.7 0.8 39.5 0.8 C36.4 0.8 31.9 1.1 27.6 2 C25.5 2.4 22.6 3.3 18.7 4.7 z" id="k1" fill="#D07331" /><path d="M57 4.6 C57.1 4.6 57.2 4.6 57.4 4.6 C50.5 2.5 44.5 1.4 39.5 1.4 C37.7 1.4 35.3 1.5 32.8 1.8 C32 1.8 31.3 1.9 30.6 2 C25.8 2.5 18.7 5 15 7 C8.3 10.5 7.4 12 3.5 20.5 C-0.5 28.9 2.2 42 3.2 45.2 C4.1 48.3 9.2 55.2 9.9 61.2 C10.4 65 11 68.1 13.4 74.7 C15.8 81.2 19.9 83.6 22.9 85.8 C25.8 87.9 28.7 87 29.4 87.6 C29.9 88 32.8 91.5 39 91.5 C45.2 91.6 46.1 90.4 49 87.6 C49.7 86.9 54.3 87.5 56.5 85.7 C59.1 83.5 63 79.3 64.2 74.5 C65.5 69.6 66.8 64.8 68 61.3 C69.1 58.1 71.4 55.7 73.7 50.4 C74.9 47.7 76.9 41.8 77.5 38.4 C78.3 32.3 77.1 26.1 75.1 20.6 C73 15 68.8 11.5 65.6 8.9 C63.9 7.4 61 5.9 57 4.6 z M57.6 4.1 C61.7 5.5 64.7 7.1 66.5 8.6 C69.8 11.4 74.2 15 76.3 20.8 C78.4 26.6 79.7 33.1 78.8 39.4 C78.2 43 76.1 49.2 74.9 52 C72.5 57.5 70.1 60 69 63.4 C67.8 67 66.4 72 65.1 77.1 C63.8 82.2 59.8 86.5 57.1 88.8 C54.8 90.7 50.1 90.1 49.3 90.8 C46.3 93.7 45.4 95 39 94.9 C32.6 94.9 29.6 91.2 29 90.8 C28.3 90.2 25.3 91.1 22.3 88.9 C19.2 86.6 15 84.1 12.5 77.3 C10 70.5 9.4 67.2 8.9 63.3 C8.1 57 2.9 49.8 1.9 46.5 C0.9 43.2 -1.9 29.5 2.2 20.7 C6.3 11.9 7.2 10.3 14.1 6.6 C18 4.6 25.3 1.9 30.3 1.4 C31 1.3 31.7 1.3 32.6 1.2 C35.2 0.9 37.6 0.8 39.5 0.8 C44.7 0.8 50.9 1.9 58 4.1 C57.9 4.1 57.7 4.1 57.6 4.1 z" opacity="0.45" id="l1" /></g><g transform="translate(136.6, 109.2) scale(0.8) translate(-136.6, -109.2) translate(88.09999, 68.49997) translate(24, 0)" id="m1"><g id="n1"><path d="M32.4 15.8 C31.9 16.9 31.5 18.3 31.2 19.7 C31.1 19.5 31.1 19.3 31 19.1 C31 16.4 30.1 13.7 29.5 10.7 C29.1 11.4 28.7 12.1 28.4 12.9 C27.7 10 25.9 7.3 23.5 5.6 C23.8 6.7 24 7.7 24.2 8.6 C21.4 5.9 18.1 3.6 14.7 1.5 C13.2 0.6 11 -0.1 9.8 1.1 C9.2 1.7 9 2.6 8.8 3.4 C7.5 9.1 3.8 22.2 2.9 31.5 C2.5 30.6 2.2 29.6 1.8 28.7 C0.1 32.4 0.8 37 3.3 40.2 C3.4 40.7 3.6 41.2 3.8 41.7 C2.8 41.3 1.7 40.9 0.7 40.5 C2.1 44 5 46.8 8.5 48.2 C9.7 49.1 11 49.7 12.5 49.9 C16.2 50.3 19.5 49 25.4 42.2 C29.8 37.1 31.2 35 31.7 32.1 C36.8 26.6 33.7 18.8 32.4 15.8 z" id="o1" fill="#46494D" /><path d="M32.4 15.8 C33.7 18.8 36.8 26.6 31.7 32.1 C31.2 35 29.8 37.1 25.4 42.2 C19.5 49 16.2 50.3 12.5 49.9 C11 49.7 9.7 49.1 8.5 48.2 C5 46.8 2.1 44 0.7 40.5 C1.7 40.9 2.8 41.3 3.8 41.7 C3.6 41.2 3.4 40.7 3.3 40.2 C0.8 37 0.1 32.4 1.8 28.7 C2.2 29.6 2.5 30.6 2.9 31.5 C3.8 22.2 7.5 9.1 8.8 3.4 C9 2.6 9.2 1.7 9.8 1.1 C11 -0.1 13.2 0.6 14.7 1.5 C18.1 3.6 21.4 5.9 24.2 8.6 C24 7.7 23.8 6.7 23.5 5.6 C25.9 7.3 27.7 10 28.4 12.9 C28.7 12.1 29.1 11.4 29.5 10.7 C30.1 13.7 31 16.4 31 19.1 C31.1 19.3 31.1 19.5 31.2 19.7 C31.5 18.3 31.9 16.9 32.4 15.8 z M32.5 17 C32 18 31.7 19.9 31.4 21.2 C31.3 21 30.1 18.7 30 18.6 C30 16.1 29.8 14.9 29.3 12.1 C28.9 12.8 28.5 13.6 28.3 14.4 C27.6 11.7 26.4 8.4 24.2 6.8 C24.5 7.9 24.8 9.3 25 10.1 C22.4 7.6 18.1 4.2 14.9 2.3 C13.5 1.4 11.5 0.5 10.4 1.6 C9.8 2.2 9.6 3.3 9.5 4 C8.7 7.3 7.1 13.5 6 20.8 C5.4 25.1 5.1 30.8 4.8 34 C4.7 33.6 3.9 33.6 3.3 32.9 C2.7 32.1 2.2 30.8 2 30.3 C0.4 33.8 1.8 36.2 4.1 39.2 C4.2 39.7 5.4 42.5 5.6 43 C4.7 42.6 2.9 42.1 2 41.7 C3.3 44.9 5.8 45 9 46.3 C10.2 47.1 12.1 47.4 13.5 47.6 C16.9 48 19.4 46.2 24.8 39.9 C28.9 35.2 30.2 33.3 30.6 30.6 C35.4 25.5 33.7 19.8 32.5 17 z" opacity="0.15" id="p1" /><path d="M12 27.6 C12.7 24.3 13.6 21.1 13.6 17.7 C20.2 19.8 25.3 25.9 26.4 32.7 C26.6 33.9 26.2 35.1 25.5 36 C24.1 37.7 21.7 40.6 20.3 42.2 C19.5 43.2 18.1 43.6 16.9 43.1 C14.6 42.2 12.7 39.9 11.9 37.5 C10.9 34.4 11.3 30.9 12 27.6 z" id="q1" fill="#EFE9E6" /></g></g><g transform="translate(197.4, 108.7) scale(0.8) translate(-197.4, -108.7) translate(111.8, 67.99997) translate(92.5, 25) scale(-1, 1) translate(-92.5, -25) translate(75, 0)" id="r1"><g id="s1"><path d="M0.6 40.5 C1.6 40.9 2.7 41.3 3.7 41.7 C3.5 41.2 3.3 40.7 3.2 40.2 C0.7 37 0 32.4 1.7 28.7 C2.1 29.6 2.4 30.6 2.8 31.5 C3.8 22.2 7.5 9.1 8.7 3.4 C8.9 2.6 9.1 1.7 9.7 1.1 C11 -0.1 13.1 0.6 14.6 1.5 C18.1 3.6 21.4 5.9 24.1 8.6 C24 7.7 23.7 6.7 23.4 5.6 C25.8 7.4 27.6 10 28.3 12.9 C28.6 12.1 29 11.4 29.4 10.7 C29.9 13.7 30.9 16.4 30.9 19.1 C31 19.3 31 19.5 31.1 19.7 C31.4 18.3 31.8 16.9 32.3 15.8 C33.6 18.8 36.7 27.6 31.6 32 C31.1 34.9 29.7 37.1 25.3 42.1 C19.4 48.8 16.1 50.2 12.4 49.8 C11 49.6 9.6 49 8.4 48.1 C4.9 46.8 2 44 0.6 40.5 z" id="t1" fill="#46494D" /><path d="M0.6 40.5 C1.6 40.9 2.7 41.3 3.7 41.7 C3.5 41.2 3.3 40.7 3.2 40.2 C0.7 37 0 32.4 1.7 28.7 C2.1 29.6 2.4 30.6 2.8 31.5 C3.8 22.2 7.5 9.1 8.7 3.4 C8.9 2.6 9.1 1.7 9.7 1.1 C11 -0.1 13.1 0.6 14.6 1.5 C18.1 3.6 21.4 5.9 24.1 8.6 C24 7.7 23.7 6.7 23.4 5.6 C25.8 7.4 27.6 10 28.3 12.9 C28.6 12.1 29 11.4 29.4 10.7 C29.9 13.7 30.9 16.4 30.9 19.1 C31 19.3 31 19.5 31.1 19.7 C31.4 18.3 31.8 16.9 32.3 15.8 C33.6 18.8 36.7 27.6 31.6 32 C31.1 34.9 29.7 37.1 25.3 42.1 C19.4 48.8 16.1 50.2 12.4 49.8 C11 49.6 9.6 49 8.4 48.1 C4.9 46.8 2 44 0.6 40.5 z M2.1 41.7 C3.4 44.9 5.7 44.9 8.9 46.1 C9.9 46.9 11.7 47.1 12.9 47.3 C16.2 47.7 19.2 46.4 24.5 40.4 C28.5 35.9 29.7 33.9 30.2 31.3 C34.8 27.4 33.6 21.2 32.4 18.5 C32 19.5 31.4 20.2 31.1 21.5 C31 21.3 30.3 19.9 30.2 19.8 C30.2 17.3 29.7 15.6 29.2 12.9 C28.9 13.6 28.2 13.9 27.9 14.7 C27.3 12 27 10 24.8 8.4 C25.1 9.4 24 9.8 24.1 10.6 C21.7 8.1 17.3 4.3 14.1 2.4 C12.8 1.6 11.4 0.7 10.2 1.8 C9.7 2.3 9 5.2 8.9 5.9 C7.8 11 4.4 26 3.5 34.4 C3.1 33.6 2.1 31 1.7 30.2 C0.2 33.5 1.4 35.7 3.7 38.6 C3.7 39.1 4.8 42.2 5 42.6 C4.1 42.3 3 42.1 2.1 41.7 z" opacity="0.15" id="u1" /><path d="M12 27.6 C12.7 24.3 13.6 21.1 13.6 17.7 C20.2 19.8 25.3 25.9 26.4 32.7 C26.6 33.9 26.2 35.1 25.5 36 C24.1 37.7 21.7 40.6 20.3 42.2 C19.5 43.2 18.1 43.6 16.9 43.1 C14.6 42.2 12.7 39.9 11.9 37.5 C10.9 34.4 11.3 30.9 12 27.6 z" id="v1" fill="#EFE9E6" /></g></g><g id="w1"><g transform="translate(101.5, 64.49996) translate(51, 30)" id="x1"><g id="y1"><path d="M30.4 60.8 C26.6 54.2 23.9 51.2 20.9 43.5 C19 34.9 16.9 19.5 18.5 15 C20.3 9.9 23.1 3.4 21.3 1.4 C19.3 -0.9 15.9 0.6 15.9 0.6 C15.9 0.6 12.5 -0.9 10.5 1.4 C8.7 3.4 11.6 9.9 13.3 15 C14.9 19.6 12.9 34.9 10.9 43.5 C7.9 51.2 5.3 54.3 1.4 60.8 C-0.9 64.8 -0.8 75.4 6.3 78 C9.1 79 14.5 79.3 15.9 79.3 C17.2 79.3 22.6 79 25.5 78 C32.6 75.4 32.8 64.8 30.4 60.8 z" id="z1" fill="#FFF" /><path d="M30.4 60.8 C32.8 64.8 32.6 75.4 25.5 78 C22.6 79 17.2 79.3 15.9 79.3 C14.5 79.3 9.1 79 6.3 78 C-0.8 75.4 -0.9 64.8 1.4 60.8 C5.3 54.3 7.9 51.2 10.9 43.5 C12.9 34.9 14.9 19.6 13.3 15 C11.6 9.9 8.7 3.4 10.5 1.4 C12.5 -0.9 15.9 0.6 15.9 0.6 C15.9 0.6 19.3 -0.9 21.3 1.4 C23.1 3.4 20.3 9.9 18.5 15 C16.9 19.5 19 34.9 20.9 43.5 C23.9 51.2 26.6 54.2 30.4 60.8 z M27.6 59.1 C23.9 52.8 22.5 49.6 19.7 42.3 C17.9 34.1 16.8 17.6 18.3 13.3 C20 8.5 22.2 3.9 20.4 2 C18.5 -0.2 15.9 1.5 15.9 1.5 C15.9 1.5 13.3 0.1 11.4 2.3 C9.7 4.2 12.3 9.1 13.9 13.9 C15.4 18.3 14.3 34.1 12.4 42.3 C9.5 49.6 7.5 53.2 3.8 59.4 C1.6 63.2 0 72.7 6.8 75.1 C9.4 76.1 14.6 76.4 15.9 76.4 C17.1 76.4 22.3 76.1 25 75.1 C31.8 72.7 29.8 62.9 27.6 59.1 z" opacity="0.15" id="a2" /></g></g><g transform="translate(168.6, 170.5999) scale(1.5) translate(-168.6, -165.5999) translate(109.3, 79.99996) translate(55, 75)" id="b2"><g id="c2"><path d="M8.3 9.3 C6.7 8.2 5.3 6.6 4.7 4.7 C4.5 4.6 4.4 4.6 4.4 4.6 C4.4 4.6 4.3 4.6 4.1 4.7 C3.6 6.6 1.8 8.2 0.2 9.3 C1.7 9.9 4.4 10 4.4 10 C4.4 10 6.8 10 8.3 9.3 z" id="d2" fill="#CE5253" /><path d="M0.3 9.3 C0.3 9.3 0.5 9.3 0.7 9.4 C0.9 9.4 1.3 9.5 1.7 9.6 C2.5 9.7 3.4 9.9 4.3 9.9 C4.5 9.9 4.7 9.9 5 9.9 C5.2 9.9 5.4 9.9 5.6 9.8 C5.8 9.8 6 9.7 6.2 9.7 C6.4 9.7 6.6 9.6 6.8 9.6 C7.2 9.5 7.5 9.4 7.8 9.4 C8.1 9.3 8.2 9.3 8.2 9.3 C8.2 9.3 8.2 9.4 8 9.7 C7.9 9.9 7.7 10.3 7.4 10.6 C7.1 10.9 6.6 11.3 6.1 11.5 C5.5 11.7 4.9 11.9 4.2 11.8 C2.9 11.8 1.7 11.1 1.1 10.5 C0.8 10.2 0.5 9.9 0.4 9.6 C0.4 9.5 0.3 9.3 0.3 9.3 z" id="e2" fill="#282421" /><path d="M4.5 6.6 C3.9 6.6 3.5 6.2 3.5 5.6 L3.5 1.7 C3.5 1.1 3.9 0.7 4.5 0.7 C5.1 0.7 5.5 1.1 5.5 1.7 L5.5 5.6 C5.5 6.2 5.1 6.6 4.5 6.6 z" id="f2" fill="#282421" /></g></g><g transform="translate(168.5, 154.4) scale(0.75) translate(-168.5, -154.4) translate(95.4, 67.29996) translate(61, 60)" id="g2"><path d="M3.4 29.3 C5.1 31.6 6.8 32.9 11.9 32.9 C17 32.9 20.1 30.4 20.6 27.9 C21.1 25.4 20.5 20.8 16.3 19.7 C12.1 18.6 7.1 18.8 5.4 20.8 C4.7 21.6 3.5 22.7 2.9 24.1 C2.1 26.1 2.5 28 3.4 29.3 z" id="h2" /><path d="M8.2 20.6 C5.8 21.6 4.3 23 6.5 22.4 C7.9 22 9.3 21.7 10.8 21.8 C11.6 21.9 13.3 22 14.7 22.3 C16.1 23.4 18 24 18.6 23.5 C19.2 23 18.6 21.2 16.3 20.5 C14 19.8 10.7 19.6 8.2 20.6 z" id="i2" fill="#FFF" /></g><g transform="translate(103.2, 54.59996)" id="j2"><g transform="translate(18, 29)" id="k2"><path d="M23.6 41.6 C25.6 38.1 29.7 36 33.7 36.5 C37.7 37 41.2 39.9 42.3 43.8 C43.4 47.6 42.9 51.8 39.2 53.1 C35.8 54.4 27.9 54.9 24.5 52.9 C21 50.8 21.6 45.1 23.6 41.6 z" id="l2" fill="#D1CDCB" /><path d="M9 21.2 C15.5 14.3 18.6 13 26.7 11.8 C24 10.9 25 9.4 20.1 8.3 C23.4 5.7 26.9 7 31.1 7.1 C33.9 7.2 36.3 7 38.8 8.5 C38.9 5.8 38.7 3.1 38.3 0.5 C44.7 5.4 47.5 16 47.5 24.1 C47.5 37.4 43 52.3 41.7 50.8 C38.4 44.3 34.3 37.9 29.3 36.9 C27.4 36.5 24.3 37.6 22.7 38.8 C16.9 43.3 14.1 50.6 14.7 57.5 C13.6 57.7 12.6 57.9 11.5 58.1 C10.6 54.2 10.7 50.7 11.5 46.8 C8.3 49.2 6 52.7 4.9 56.5 C3.8 51 4.9 45 7.9 40.2 C4.4 40.8 2.5 44 1.3 47 C-0.3 40.3 3.7 26.9 9 21.2 z" id="m2" fill="#D1CDCB" /><path d="M22.8 38.9 C17.5 42.1 14.2 50.7 14.8 57.6 C13.7 57.8 12.7 58 11.6 58.2 C10.7 54.3 10.8 50.8 11.6 46.9 C8.4 49.3 6.1 52.8 5 56.6 C3.8 51.1 4.9 45.1 7.9 40.3 C4.4 40.9 2.5 44.1 1.3 47.1 C-0.3 40.3 3.7 26.9 9 21.2 C15.5 14.3 18.6 13 26.7 11.8 C24 10.9 25 9.4 20.1 8.3 C23.4 5.7 26.9 7 31.1 7.1 C33.9 7.2 36.3 7 38.8 8.5 C38.9 5.8 38.7 3.1 38.3 0.5 C44.7 5.4 47.5 16 47.5 24.1 C47.5 30.5 46.6 36.5 45.6 41.1 C44.6 46 43.6 49.4 41.1 52 C40.6 52.4 40 52.8 39.2 53.1 C35.8 54.4 27.9 54.9 24.5 52.9 C21 50.8 21.6 45.1 23.6 41.6 C24.9 39.3 27.1 37.6 29.6 36.9 C26.9 37.1 24.3 38 22.8 38.9 z M29.3 35.4 L34 36.3 C31.7 37 26.9 38.5 25.6 40.7 C23.7 44 21.9 48.7 25.2 50.7 C28.4 52.6 35.1 51.9 38.3 50.7 C39 50.4 39.6 50.1 40.1 49.7 C44.6 44.9 46.1 36 46.1 23.5 C46.1 15.9 45.3 7.3 39.3 2.7 C39.7 5.1 39.4 7.9 39.3 10.5 C37 9.1 34.7 8.5 32 8.4 C28.1 8.3 25.3 5.9 22.2 8.3 C26.8 9.3 26.4 11.4 28.9 12.2 C21.3 13.3 17.4 14.3 11.3 20.8 C6.4 26 0.8 35.9 2.3 42.3 C3.4 39.5 6.9 38.8 10.2 38.2 C7.4 42.7 4.5 46.9 5.6 52 C6.6 48.4 9.4 47.1 12.4 44.8 C11.6 48.5 11.6 51.8 12.4 55.4 C13.4 55.2 13.1 55.1 14.1 54.9 C13.5 48.4 18 40.3 22.9 37.3 C24.3 36.4 26.7 35.7 29.3 35.4 z" opacity="0.15" id="n2" /><circle cx="32.5" cy="45.2" r="6.7" id="o2" fill="#282421" /><path d="M33.4 47 C34.4 47 35.2 46.2 35.2 45.2 C35.2 44.2 34.4 43.4 33.4 43.4 C32.4 43.4 31.6 44.2 31.6 45.2 C31.6 46.2 32.4 47 33.4 47 z" id="p2" fill="#FFF" /><path d="M29.4 40.7 C30.6 40 33.1 39 33.4 40 C33.7 41.2 31.9 40.9 30.7 41.9 C29.4 43 29 43.4 28.3 44.2 C27.7 44.8 27.3 42 29.4 40.7 z" id="q2" fill="#FFF" /></g></g><g transform="translate(100.8, 54.59996) translate(67, 29)" id="r2"><g id="s2"><path d="M24.4 41.6 C22.4 38.1 18.3 36 14.3 36.5 C10.3 37 6.8 39.9 5.7 43.8 C4.6 47.6 5.1 51.8 8.8 53.1 C12.2 54.4 20.1 54.9 23.5 52.9 C27 50.8 26.4 45.1 24.4 41.6 z" id="t2" fill="#D1CDCB" /><circle cx="15.5" cy="45.2" r="6.7" id="u2" fill="#282421" /><path d="M14.6 47 C13.6 47 12.8 46.2 12.8 45.2 C12.8 44.2 13.6 43.4 14.6 43.4 C15.6 43.4 16.4 44.2 16.4 45.2 C16.4 46.2 15.6 47 14.6 47 z" id="v2" fill="#FFF" /><path d="M18.6 40.7 C17.4 40 14.9 39 14.6 40 C14.3 41.2 16.1 40.9 17.3 41.9 C18.6 43 19 43.4 19.7 44.2 C20.3 44.8 20.7 42 18.6 40.7 z" id="w2" fill="#FFF" /><path d="M38.9 21.2 C32.4 14.3 29.3 13 21.2 11.8 C23.9 10.9 22.9 9.4 27.8 8.3 C24.5 5.7 21 7 16.8 7.1 C14 7.2 11.6 7 9.1 8.5 C9 5.8 9.2 3.1 9.6 0.5 C3.2 5.4 0.4 16 0.4 24.1 C0.4 37.4 3.8 46.9 5.7 50.1 C5.8 34.3 19.9 35.7 25.1 38.8 C30.3 41.9 33.7 50.6 33.1 57.5 C34.2 57.7 35.2 57.9 36.3 58.1 C37.2 54.2 37.1 50.7 36.3 46.8 C39.5 49.2 41.8 52.7 42.9 56.5 C44.1 51 43 45 40 40.2 C43.5 40.8 45.4 44 46.6 47 C48.1 40.3 44.2 26.9 38.9 21.2 z" id="x2" fill="#D1CDCB" /><path d="M25.1 38.9 C30.4 42.1 33.7 50.7 33.1 57.6 C34.2 57.8 35.2 58 36.3 58.2 C37.2 54.3 37.1 50.8 36.3 46.9 C39.5 49.3 41.8 52.8 42.9 56.6 C44.1 51.1 43 45.1 40 40.3 C43.5 40.9 45.4 44.1 46.6 47.1 C48.2 40.3 44.2 26.9 38.9 21.2 C32.4 14.3 29.3 13 21.2 11.8 C23.9 10.9 22.9 9.4 27.8 8.3 C24.5 5.7 21 7 16.8 7.1 C14 7.2 11.6 7 9.1 8.5 C9 5.8 9.2 3.1 9.6 0.5 C3.2 5.4 0.4 16 0.4 24.1 C0.4 31.8 1.6 38.6 3 43.6 C4 47.3 5.5 50.3 6.8 52 C7.3 52.4 7.9 52.8 8.7 53.1 C12.1 54.4 20 54.9 23.4 52.9 C26.9 50.8 26.3 45.1 24.3 41.6 C23 39.3 20.8 37.6 18.3 36.9 C21.1 37.1 23.6 38 25.1 38.9 z M18.7 35.4 L14 36.3 C16.3 37 21.1 38.5 22.4 40.7 C24.3 44 26.1 48.7 22.8 50.7 C19.6 52.6 12.9 51.9 9.7 50.7 C9 50.4 8.4 50.1 7.9 49.7 C3.4 44.9 1.9 36 1.9 23.5 C1.9 15.9 2.7 7.3 8.7 2.7 C8.3 5.1 8.6 7.9 8.7 10.5 C11 9.1 13.3 8.5 16 8.4 C19.9 8.3 22.7 5.9 25.8 8.3 C21.2 9.3 21.6 11.4 19.1 12.2 C26.7 13.3 30.6 14.3 36.7 20.8 C41.7 26.2 47.3 36.1 45.8 42.5 C44.7 39.7 41.2 39 37.9 38.4 C40.7 42.9 43.6 47 42.5 52.2 C41.5 48.6 38.7 47.3 35.7 45 C36.5 48.7 36.5 52 35.7 55.6 C34.7 55.4 35 55.3 34 55.1 C34.6 48.6 30.1 40.5 25.2 37.5 C23.6 36.4 21.2 35.7 18.7 35.4 z" opacity="0.15" id="y2" /></g></g></g></g></g></g><defs><g transform="translate(17.09519, 0.800995) translate(-135.2952, -293.601)" id="z2" fill="#000"><path d="M118.2 302.7 C118.4 307.4 132.5 311.2 149.8 311.2 C167.1 311.2 181.2 307.4 181.4 302.7 C181.4 307.5 181.4 310.1 181.4 310.5 C181.4 315.3 167.3 319.1 149.8 319.1 C132.3 319.1 118.2 315.2 118.2 310.5 L118.2 302.7 L118.2 302.7 z" fill-opacity="0.4528" id="a3" fill="#593001" /><path d="M118.7 301.7 C118.9 306.4 133 310.2 150.3 310.2 C167.6 310.2 181.7 306.4 181.9 301.7 C181.9 306.5 181.9 309.1 181.9 309.5 C181.9 314.3 167.8 318.1 150.3 318.1 C132.8 318.1 118.7 314.2 118.7 309.5 L118.7 301.7 L118.7 301.7 z" id="b3" fill="#DA8113" /><linearGradient x1="46.0545" y1="-118.6926" x2="45.4656" y2="-118.6926" gradientUnits="userSpaceOnUse" gradientTransform="matrix(117.135, 0, 0, 28.4634, -5208.417, 3687.795)" id="c3"><stop offset="0%" stop-color="#D9952A" stop-opacity="1" /><stop offset="6.438854%" stop-color="#CA7519" stop-opacity="1" /><stop offset="30.54%" stop-color="#E3AD3A" stop-opacity="1" /><stop offset="51.05%" stop-color="#FFEC91" stop-opacity="1" /><stop offset="68.8%" stop-color="#E9BD44" stop-opacity="1" /><stop offset="86.24%" stop-color="#FFED6C" stop-opacity="1" /><stop offset="93.87%" stop-color="#F2D353" stop-opacity="1" /><stop offset="100%" stop-color="#F2B947" stop-opacity="1" /></linearGradient><path d="M118.2 301.6 C118.4 306.1 132.7 309.7 150.3 309.7 C167.9 309.7 182.2 306.1 182.4 301.6 C182.4 306.2 182.4 308.7 182.4 309 C182.4 313.5 168 317.2 150.3 317.2 C132.6 317.2 118.2 313.5 118.2 309 L118.2 301.6 L118.2 301.6 z" id="d3" style="fill:url(#c3)" /><linearGradient x1="45.4914" y1="-117.9547" x2="45.9407" y2="-117.5895" gradientUnits="userSpaceOnUse" gradientTransform="matrix(115.425, 0, 0, 29.925, -5125.077, 3826.124)" id="e3"><stop offset="0%" stop-color="#F4E072" stop-opacity="1" /><stop offset="100%" stop-color="#DB9427" stop-opacity="1" /></linearGradient><ellipse cx="150.3" cy="301.5" rx="31.6" ry="8.2" id="f3" style="fill:url(#e3)" /><linearGradient x1="45.4656" y1="-126.0065" x2="46.0545" y2="-126.0065" gradientUnits="userSpaceOnUse" gradientTransform="matrix(117.135, 0, 0, 18.6219, -5208.417, 2651.479)" id="g3"><stop offset="0%" stop-color="#D9952A" stop-opacity="1" /><stop offset="6.438854%" stop-color="#CA7519" stop-opacity="1" /><stop offset="30.54%" stop-color="#E3AD3A" stop-opacity="1" /><stop offset="51.05%" stop-color="#FFEC91" stop-opacity="1" /><stop offset="68.8%" stop-color="#E9BD44" stop-opacity="1" /><stop offset="86.24%" stop-color="#FFED6C" stop-opacity="1" /><stop offset="93.87%" stop-color="#F2D353" stop-opacity="1" /><stop offset="100%" stop-color="#F2B947" stop-opacity="1" /></linearGradient><path d="M119.2 299.9 C119 300.2 118.9 300.6 118.9 301 C118.9 305.5 132.9 309.2 150.3 309.2 C167.7 309.2 181.7 305.5 181.7 301 C181.7 300.6 181.6 300.3 181.4 299.9 C182 300.5 182.4 301.2 182.4 301.9 C182.4 306.4 168 310.1 150.3 310.1 C132.6 310.1 118.2 306.4 118.2 301.9 C118.2 301.3 118.6 300.6 119.2 299.9 z" id="h3" style="fill:url(#g3)" /><linearGradient x1="45.196" y1="-121.5895" x2="45.3746" y2="-120.6758" gradientUnits="userSpaceOnUse" gradientTransform="matrix(101.745, 0, 0, 23.94, -4458.332, 3199.41)" id="i3"><stop offset="0%" stop-color="#F8DD61" stop-opacity="1" /><stop offset="100%" stop-color="#EAA330" stop-opacity="1" /></linearGradient><ellipse cx="150.3" cy="300.8" rx="27.8" ry="6.6" id="j3" style="fill:url(#i3)" /><linearGradient x1="45.5694" y1="-134.267" x2="45.0221" y2="-134.267" gradientUnits="userSpaceOnUse" gradientTransform="matrix(101.745, 0, 0, 13.2525, -4458.332, 2077.223)" id="k3"><stop offset="0%" stop-color="#F4CA2F" stop-opacity="1" /><stop offset="51.38%" stop-color="#BF7737" stop-opacity="1" /><stop offset="100%" stop-color="#E4A929" stop-opacity="1" /></linearGradient><path d="M122.6 301.5 C122.5 301.3 122.4 301 122.4 300.8 C122.4 297.2 134.9 294.2 150.2 294.2 C165.5 294.2 178 297.1 178 300.8 C178 301 177.9 301.3 177.8 301.5 C176.3 298.2 164.5 295.6 150.1 295.6 C135.7 295.6 124.1 298.2 122.6 301.5 z" id="l3" style="fill:url(#k3)" /></g></defs><desc>JFFF8JJKEF4,fT402pavcAAYVYmNCi5q7l4ardL1YYBNv/53jytrARktf+JwjMcZnnLV5luYYRcCSavMxE8TBh/0ovIDVc6hdGZoAQMhNdfrqniiFX9SDK4=</desc></svg>