<?xml version="1.0" encoding="utf-8"?><!DOCTYPE svg PUBLIC "-//W3C//DTD SVG 1.1//EN" "http://www.w3.org/Graphics/SVG/1.1/DTD/svg11.dtd"><svg x="0" y="0" width="340px" height="340px" viewBox="0, 0, 340, 340" preserveAspectRatio="xMidYMid" font-size="0" id="a" enable-background="new 0 0 340 340" xmlns="http://www.w3.org/2000/svg" xmlns:xlink="http://www.w3.org/1999/xlink" xmlns:xml="http://www.w3.org/XML/1998/namespace" version="1.1"><g id="b" fill="#000"><g id="c"><g transform="translate(0, 0) translate(0, 224)" id="d"><ellipse cx="168.6" cy="53.1" rx="57.8" ry="12.8" fill-opacity="0.25" id="e" /></g><g id="f"><g transform="translate(126.8, 228.4) scale(0.9) translate(-126.8, -228.4) translate(84, 65.49998) translate(24.5, 168.5) scale(-1, 1) translate(-24.5, -168.5) translate(0, 143)" id="g"><g id="h"><path d="M8.8 28.9 C11.9 29.7 12.9 31.3 15.9 30.5 C18.9 29.7 21.1 28.7 22.7 27.5 C23.5 26.9 24.4 26.3 26.1 24.5 C26.4 24.1 27.1 23.3 28 22 C28.1 22.8 28.2 23.3 28.2 23.7 C28.2 24.8 28 25.5 28 25.6 C28 25.8 31.3 21.4 32 16.6 C32.4 13.4 32.5 7.9 32.3 0 C35.8 3.2 38.2 5.9 39.3 7.9 C41 10.9 43.8 15.3 44.8 19.9 C45.4 23 45.8 25.8 45.8 28.4 C46.4 28.1 46.8 27.9 47 27.7 C47.2 27.5 47.5 27.1 48.1 26.4 C47.8 28.8 47.6 30.4 47.4 31.1 C46.5 35 45.5 36.2 44.8 37.2 C43.4 39.2 39.5 44.7 35.4 45.9 C32.7 46.7 28.6 47.1 23.3 47.1 L26.3 49.9 C16.6 48.9 10 46.7 6.6 43.5 C3.7 40.8 0.2 36.7 1.2 33 C2.2 28.9 5.7 28.1 8.8 28.9 z" id="i" fill="#171B24" /><path d="M33.7 23.1 C35.3 26 34.7 26.7 34.4 28.8 C36.7 27.6 38.1 25.7 39.1 24.7 C40.1 27.6 40.1 31.7 39.1 34.8 C39.6 34.4 40.8 34.5 41.9 33.5 C43 32.5 43.5 31.6 44 29.9 C45.9 31.4 45.1 35.3 45.1 35.7 C45.9 35.4 46.6 35.1 47.1 34.9 C46.6 35.8 46.2 36.4 45.8 36.9 C44.3 39 40.3 44.7 36 46 C33.1 46.8 29.8 47.6 24.2 47.6 L27.5 50.2 C17.4 49.1 9.5 46.9 5.9 43.5 C2.9 40.7 -0.8 36.4 0.2 32.6 C1.3 28.3 0.9 26.1 4.1 26.9 C7.3 27.7 10.2 29.5 14.7 29 C19.2 28.5 21 28.1 22.6 26.9 C23.4 26.3 24.4 25.7 26.1 23.8 C26.4 23.4 27.1 22.5 28.1 21.2 C28.2 22 28.3 22.6 28.3 22.9 C28.3 24.1 28.1 24.8 28.1 24.9 C28.1 24.9 29.4 24.9 30.1 23.8 C30.8 22.7 31.1 25.9 31.5 25.7 C32.3 25.1 33.3 23.4 33.7 23.1 z" id="j" fill="#232733" /><path d="M28.2 24.6 C28.2 24.7 28.2 24.8 28.2 24.9 C28.3 24.9 28.4 24.9 28.7 24.8 C29.7 23.4 31.6 20.1 32.1 16.6 C32.5 13.4 32.6 7.9 32.4 0 C35.9 3.2 38.3 5.9 39.4 7.9 C41.1 10.9 43.9 15.3 44.9 19.9 C45.5 23 45.9 25.8 45.9 28.4 C46.5 28.1 46.9 27.9 47.1 27.7 C47.3 27.5 47.6 27.1 48.2 26.4 C47.9 28.8 47.7 30.4 47.5 31.1 C47 33.1 46.5 34.4 46.1 35.4 C46.5 35.2 46.9 35.1 47.2 34.9 C46.7 35.8 46.3 36.4 45.9 36.9 C44.3 39 40.3 44.7 36 46 C33.1 46.8 29.8 47.6 24.2 47.6 L27.5 50.2 C17.4 49.1 9.5 46.9 5.9 43.5 C2.9 40.7 -0.8 36.4 0.2 32.6 C1.3 28.3 0.9 26.1 4.1 26.9 C7.3 27.7 10.2 29.5 14.7 29 C19.2 28.5 21 28.1 22.6 26.9 C23.4 26.3 24.4 25.7 26.1 23.8 C26.4 23.4 27.1 22.5 28.1 21.2 C28.2 22 28.3 22.6 28.3 22.9 C28.3 23.7 28.2 24.2 28.2 24.6 z M27.5 27.1 C27.6 24.9 27.6 23.6 27.5 23.1 C26.7 24.3 25.7 25.5 25.4 25.8 C24 27.5 21.4 29.2 17.7 29.6 C14 30 9.3 30.6 6.7 29.9 C4.1 29.2 3.7 30.4 2.8 34.3 C2 37.7 6.2 42.1 10.4 43.9 C14.3 45.5 14.3 47.1 22.6 48.1 L21.4 45.3 C26.2 46.4 32.5 45.5 34.9 44.8 C38.5 43.6 44.3 37.6 43.9 37.8 C44 37.5 46.7 36 45.4 36 C44.1 36 45.6 33.8 45.8 32.7 C46 32.1 46.6 31.3 46.8 29.1 C46.3 29.7 44.8 30 44.3 30.3 C44.3 28 44.4 23 43.9 20.2 C43 16 41.6 13.7 40.2 11 C39.3 9.2 36.2 4.9 33.3 2 C33.5 9.1 33.5 14.5 33.2 17.4 C33 18.8 32.2 21.6 30.7 23.8 C28.9 26.3 26.5 28 27.5 27.1 z" opacity="0.15" id="k" /></g></g><g transform="translate(128, 270.3) scale(1.522959) translate(-128, -270.3) translate(129.6, 271.9) scale(1) translate(-124.6, -271.9) translate(109.4, 103.8) translate(7, 133)" id="l"><g transform="translate(14.5, 18.5) scale(-1, 1) translate(-14.5, -18.5)" id="m"><path d="M10.9 1.8 C19.7 -2.5 29.1 6.3 28.7 13.6 C28.4 21.8 22.8 28.1 12.2 32.4 C4.7 34.3 0.7 34.5 0.5 33 C0 30.7 2.1 6.1 10.9 1.8 z" id="n" fill="#171B24" /><path d="M25.5 33.3 C24.2 35.1 22.3 35.9 20.6 36.1 C18.9 36.3 12.9 35.8 11 36.1 C9 36.4 6.2 35.9 6.2 34.2 C6.2 32.5 4.8 27.4 10.5 25.2 C10.9 25.1 12.7 22.4 13.1 22.2 C13.6 22 12.6 24.3 13.1 24.1 C14.2 23.5 15.3 22.8 16.1 21.9 C16.4 21.5 16.7 24.4 17.2 24.4 C17.5 24.4 18.4 23.7 18.6 23.1 C18.8 22.6 18.6 24.6 18.9 24.7 C20.7 25.1 22.1 25.8 22.7 26.2 C25.1 27.9 26.8 31.6 25.5 33.3 z" id="o" fill="#FFF" /><path d="M20.6 25.9 C25.1 22.4 27.6 18.1 27.7 12.9 C28.1 6.1 19.3 -2.1 11.1 1.9 C2.9 5.9 1 28.9 1.4 31 C1.5 32 3.3 32.2 6.7 31.6 C6.7 31.8 6.7 31.9 6.7 32.1 C6.7 33.7 9.3 34.2 11.2 33.9 C13 33.6 18.6 34.1 20.2 33.9 C21.8 33.7 23.6 33 24.8 31.3 C26 29.7 22.9 27.5 20.6 25.9 z M22.6 26.2 C22.7 26.2 22.7 26.2 22.6 26.2 C25.1 27.9 26.8 31.6 25.5 33.3 C24.2 35.1 22.3 35.9 20.6 36.1 C18.9 36.3 12.9 35.8 11 36.1 C9 36.4 6.2 35.9 6.2 34.2 C6.2 34.1 6.2 33.9 6.2 33.7 C2.6 34.3 0.6 34 0.5 33 C0 30.7 2.1 6.1 10.9 1.8 C19.7 -2.5 29.1 6.3 28.7 13.6 C28.5 18.5 26.5 22.7 22.6 26.2 z" opacity="0.15" id="p" /></g></g><g transform="translate(209, 270.3) scale(1.522959) translate(-209, -270.3) translate(207.4, 271.9) scale(1) translate(-212.4, -271.9) translate(106.4, 103.8) translate(99, 151.5) scale(-1, 1) translate(-99, -151.5) translate(84, 133)" id="q"><g transform="translate(15, 18.5) scale(-1, 1) translate(-15, -18.5)" id="r"><path d="M11.2 1.8 C20 -2.5 29.4 6.3 29 13.6 C28.6 21.8 23.1 28.1 12.5 32.4 C5 34.3 1 34.5 0.8 33 C0.3 30.7 2.4 6.1 11.2 1.8 z" id="s" fill="#171B24" /><path d="M25.8 33.3 C24.5 35.1 22.6 35.9 20.9 36.1 C19.2 36.3 13.2 35.8 11.3 36.1 C9.3 36.4 6.5 35.9 6.5 34.2 C6.5 32.5 5.1 27.4 10.8 25.2 C11.2 25.1 11.7 25.1 11.9 24.8 C13.3 22.7 14.6 21.1 15.1 20.9 C16.1 20.6 15 24.2 15.8 24.2 C16.3 24.2 17 23.2 18.1 22.4 C19.2 21.6 17.9 24.3 18.4 24.4 C20.4 24.8 22.4 25.5 23 26 C25.4 27.9 27.1 31.6 25.8 33.3 z" id="t" fill="#FFF" /><path d="M23 26 C25.4 27.9 27 31.6 25.8 33.3 C24.5 35.1 22.6 35.9 20.9 36.1 C19.2 36.3 13.2 35.8 11.3 36.1 C9.3 36.4 6.5 35.9 6.5 34.2 C6.5 34.1 6.5 33.9 6.5 33.7 C2.9 34.3 0.9 34 0.8 33 C0.3 30.7 2.4 6.1 11.2 1.8 C20 -2.5 29.4 6.3 29 13.6 C28.8 18.4 26.8 22.6 23 26 z M21.1 25.8 C25.6 20.2 27.9 15.9 28 13 C28.4 6.2 19.6 -2 11.5 2 C3.4 6 1.3 28.8 1.8 31 C1.9 32 3.7 32.2 7.1 31.6 C7.1 31.8 7.1 31.9 7.1 32.1 C7.1 33.7 9.7 34.1 11.6 33.9 C13.4 33.6 18.9 34.1 20.5 33.9 C22.1 33.7 23.8 33 25.1 31.3 C26.2 29.7 23.3 27.6 21.1 25.8 z" opacity="0.15" id="u" /></g></g><g transform="translate(109.6, 97.89998) translate(13, 60)" id="v"><path d="M84.1 58.7 C83.4 45.5 82.7 39.3 75 30.8 C69 24.2 68.5 19.6 65.4 14.3 C62 8.8 60.8 0.4 45.9 0.4 C31.1 0.4 29.8 8.8 26.5 14.3 C23.4 19.5 22.8 24.1 16.9 30.8 C9.2 39.4 8.5 45.6 7.8 58.7 C7.2 70.2 13.2 79.4 15.3 92.4 C17.9 108.9 26 118.4 29.6 119.2 C36.2 120.6 42.1 121 45.9 120.9 C49.8 121 55.7 120.6 62.2 119.2 C65.8 118.4 73.9 108.9 76.5 92.4 C78.7 79.4 84.7 70.2 84.1 58.7 z" id="w" fill="#232733" /><path d="M84.1 58.7 C84.7 70.2 78.7 79.4 76.5 92.4 C73.9 108.9 65.8 118.4 62.2 119.2 C55.7 120.6 49.8 121 45.9 120.9 C42.1 121 36.2 120.6 29.6 119.2 C26 118.4 17.9 108.9 15.3 92.4 C13.2 79.4 7.2 70.2 7.8 58.7 C8.5 45.6 9.2 39.4 16.9 30.8 C22.8 24.1 23.4 19.5 26.5 14.3 C29.8 8.8 31.1 0.4 45.9 0.4 C60.8 0.4 62 8.8 65.4 14.3 C68.5 19.6 69 24.2 75 30.8 C82.7 39.3 83.4 45.5 84.1 58.7 z M82.6 57.8 C82 45.1 81.3 39.1 73.9 30.9 C68.1 24.6 67.6 20.2 64.7 15.1 C61.4 9.8 60.2 1.7 45.9 1.7 C31.7 1.7 30.4 9.8 27.2 15.1 C24.3 20.1 23.7 24.5 18 30.9 C10.6 39.2 9.9 45.2 9.3 57.8 C8.7 68.8 14.5 77.7 16.5 90.2 C19 106.1 26.8 115.2 30.2 116 C36.6 117.3 42.2 117.7 45.9 117.6 C49.7 117.7 55.3 117.3 61.6 116 C65 115.2 72.8 106.1 75.3 90.2 C77.4 77.7 83.2 68.8 82.6 57.8 z" opacity="0.15" id="x" /></g><g transform="translate(109.6, 97.89997) translate(59, 136) scale(-1, 1) translate(-59, -136) translate(16, 84)" id="y"><path d="M10.2 21.5 C10.3 21.2 21.2 -0.7 27.1 1.2 C31.4 2.6 35.1 7.2 36.8 10.5 C38.5 13.8 43 34.1 39.9 40.8 C37.7 45.5 33.3 46.5 28.3 45.3 C28 49 27.7 51.8 27.2 53.1 C26.2 62.6 31 81.3 32.2 92 C31.5 105 22.7 103.5 16.9 102.2 C13.4 101.4 10.8 99 12.4 94.9 C12.9 93.6 13.6 92.2 14.2 90.8 C14.7 84.8 13.6 79.1 12.3 72.9 C11.1 67.4 10.2 21.5 10.2 21.5 z" id="z" fill="#F2E5D3" /><path d="M75.8 21.5 C75.7 21.2 64.8 -0.7 58.9 1.2 C54.6 2.6 50.9 7.2 49.2 10.5 C47.5 13.8 43 34.1 46.1 40.8 C48.3 45.5 52.7 46.5 57.7 45.3 C58 49 58.3 51.8 58.8 53.1 C59.8 62.6 55 81.3 53.8 92 C54.5 105 63.3 103.5 69.1 102.2 C72.6 101.4 75.2 99 73.6 94.9 C73.1 93.6 72.4 92.2 71.8 90.8 C71.3 84.8 72.4 79.1 73.7 72.9 C75.1 67.4 75.8 21.5 75.8 21.5 z" id="a1" fill="#F2E5D3" /><path d="M9.6 11.2 C11.4 8 16.2 2.9 17.2 1.8 C20.5 -0.8 30.2 -1.2 32 8.4 C32.8 11.9 30.3 16.7 28.9 18.7 C28.4 19.4 28.1 19.9 28 20.3 C27.9 21 28.5 22.6 29.1 24.8 C29.9 27.7 30.6 31.5 29.2 34.9 C28.9 35.5 28.6 36.1 28.2 36.7 C25.6 40.3 21.2 37.3 17.7 39.2 C17.7 39.4 17.6 39.6 17.6 39.7 C15.8 49.4 23.5 59.2 21.3 70.8 C20.7 74.1 16.9 76.3 12.6 74.8 C11.3 68.6 9.5 62.1 8.7 54.5 C3.3 48.8 -0.6 44.9 1.1 28.6 C2.1 19.3 5.8 14.9 9.6 11.2 z" id="b1" fill="#464854" /><path d="M26.9 1.1 C27 1.2 27 1.2 27.1 1.2 C31.4 2.6 35.1 7.2 36.8 10.5 C38.5 13.8 43 34.1 39.9 40.8 C37.7 45.5 33.3 46.5 28.3 45.3 C28 49 27.7 51.8 27.2 53.1 C26.2 62.6 31 81.3 32.2 92 C31.5 105 22.7 103.5 16.9 102.2 C13.4 101.4 10.8 99 12.4 94.9 C12.9 93.6 13.6 92.2 14.2 90.8 C14.6 85.4 13.8 80.3 12.7 74.8 C12.7 74.8 12.6 74.8 12.6 74.8 C11.3 68.6 9.5 62.1 8.7 54.5 C3.3 48.8 -0.6 44.9 1.1 28.6 C2.1 19.3 5.8 14.9 9.6 11.2 C11.4 8 16.2 2.9 17.2 1.8 C19.2 0.3 23.4 -0.5 26.9 1.1 z M26.7 2.1 C26.7 2.1 26.6 2.1 26.5 2 C23.2 0.5 19.3 1.2 17.4 2.7 C16.5 3.7 11.9 8.6 10.2 11.6 C6.7 15.1 3.2 19.3 2.2 28.2 C0.6 43.7 5.5 48.5 10.6 54 C11.4 61.2 11.8 66.2 13.2 72.2 C14.2 77.4 14.9 82 15.5 86 C15.5 88.3 15.8 90.3 15.3 91.5 C13.8 95.4 13.8 97.4 17.1 98.2 C22.6 99.4 29.7 101.8 30.4 89.4 C29.3 79.2 24.9 61.1 25.8 52 C26.3 50.8 27 47.1 27.3 43.6 C32 44.7 36.7 44.3 38.8 39.8 C41.7 33.4 37.5 14.1 35.9 10.9 C34.3 7.8 30.8 3.4 26.7 2.1 z" opacity="0.15" id="c1" /><path d="M76.6 11.2 C74.8 8 69.9 2.9 68.9 1.8 C65.6 -0.8 55.9 -1.2 54.1 8.4 C53.3 11.9 55.8 16.7 57.2 18.7 C57.7 19.4 58 19.9 58.1 20.3 C58.2 21 57.6 22.6 57 24.8 C56.2 27.7 55.5 31.5 56.9 34.9 C57.2 35.5 57.5 36.1 57.9 36.7 C60.5 40.3 64.9 37.3 68.4 39.2 C68.4 39.4 68.5 39.6 68.5 39.7 C70.3 49.4 62.6 59.2 64.8 70.8 C65.4 74.1 69.2 76.3 73.5 74.8 C74.8 68.6 76.6 62.1 77.4 54.5 C82.8 48.8 86.7 44.9 85 28.6 C83.9 19.3 80.2 14.9 76.6 11.2 z" id="d1" fill="#464854" /><path d="M73.3 74.9 C72.2 80.3 71.4 85.4 71.8 90.8 C72.4 92.2 73.1 93.6 73.6 94.9 C75.2 99 72.6 101.4 69.1 102.2 C63.3 103.5 54.5 105 53.8 92 C55 81.3 59.8 62.6 58.8 53.1 C58.3 51.8 58 49 57.7 45.3 C52.7 46.5 48.3 45.5 46.1 40.8 C43 34.1 47.5 13.8 49.2 10.5 C50.9 7.2 54.6 2.6 58.9 1.2 C59 1.2 59.2 1.1 59.3 1.1 C62.8 -0.5 66.9 0.3 68.9 1.8 C69.9 2.9 74.8 8 76.6 11.2 C80.2 14.9 83.9 19.3 85 28.6 C86.7 44.9 82.8 48.8 77.4 54.5 C76.6 62.1 74.8 68.6 73.5 74.8 C73.4 74.8 73.4 74.8 73.3 74.9 z M72.6 73.1 C74.4 64.5 75.5 57.8 76 53 C81.2 47.6 85 42.8 83.4 27.3 C82.3 18.5 79.5 14.6 76 11.1 C74.3 8 68.8 3.6 67.8 2.6 C66 1.1 62.9 1 59.6 2.6 C59.4 2.6 59.3 2.6 59.2 2.7 C55.1 4 51.6 8.4 50 11.5 C48.4 14.6 44.9 33.2 47.8 39.5 C49.9 44 54 44.4 58.7 43.2 C59 46.7 59.8 51.8 60.2 53 C61.2 62.1 57 78.6 55.8 88.8 C56.5 101.2 63.4 100 68.9 98.7 C72.2 98 72.8 96.4 71.3 92.5 C70.8 91.3 70.5 90.1 70.5 88.1 C70.1 83 71.5 78.3 72.6 73.1 z" opacity="0.15" id="e1" /></g></g><g id="f1"><g transform="translate(146.6, 119.2) scale(0.9) translate(-146.6, -119.2) translate(112.8, 75.69996) translate(23, 28.5) scale(-1, 1) translate(-23, -28.5)" id="g1"><path d="M1.3 33.1 C2.5 30.5 4.5 29.5 7.2 30 C11.2 21.6 15.5 15.1 20.1 10.6 C27 3.8 34.3 0.3 37.6 1.1 C40.9 1.9 46.4 7.5 45.9 13.8 C45.4 20.1 40 42.4 37.6 46.6 C35.2 50.8 35.1 54.9 27.6 55.8 C20.1 56.7 20.4 58.1 15.9 55.2 C11.4 52.3 11.7 47.3 9.5 44.3 C3.4 35.9 -0.2 36.7 1.3 33.1 z" id="h1" fill="#232733" /><path d="M1.3 33.1 C2.5 30.5 4.5 29.5 7.2 30 C11.2 21.6 15.5 15.1 20.1 10.6 C27 3.8 34.3 0.3 37.6 1.1 C40.9 1.9 46.4 7.5 45.9 13.8 C45.4 20.1 40 42.4 37.6 46.6 C35.2 50.8 35.1 54.9 27.6 55.8 C20.1 56.7 20.4 58.1 15.9 55.2 C11.4 52.3 11.7 47.3 9.5 44.3 C3.4 35.9 -0.2 36.7 1.3 33.1 z M3.2 33 C1.8 36.4 4.5 34.5 10.3 42.5 C12.3 45.3 12 50 16.3 52.8 C20.6 55.5 21.7 55.7 27.1 53.6 C32.5 51.4 34 48.7 36.2 44.8 C38.5 40.9 44.2 19.6 44.7 13.6 C45.2 7.7 40 2.4 36.8 1.6 C33.7 0.8 27.5 4.8 20.9 11.2 C16.6 15.5 12 23.5 8.2 31.4 C5.7 30.9 4.4 30.5 3.2 33 z" opacity="0.15" id="i1" /><path d="M18.6 41.7 C16.6 37.7 13.6 34.5 19.9 23.1 C23.6 17.7 25.4 12.4 30.3 9.4 C35.2 6.4 40.4 6.1 41.5 9.4 C42.6 12.7 42 26.3 38 37.1 C37.1 39.4 34 45.7 32.8 46.9 C30.9 48.9 25.5 51.8 23 50 C20.9 48.4 20.6 45.7 18.6 41.7 z" id="j1" fill="#FFB8B3" /></g><g transform="translate(190.4, 119.2) scale(0.9) translate(-190.4, -119.2) translate(96.8, 76.69996) translate(105, 29) scale(-1, 1) translate(-105, -29) translate(81, 0)" id="k1"><g transform="translate(24, 29) scale(-1, 1) translate(-24, -29)" id="l1"><path d="M1.3 32.6 C2.6 30 4.6 29 7.4 29.5 C11.5 20.9 15.9 14.4 20.6 9.8 C27.7 2.9 35.1 -0.6 38.5 0.1 C41.9 0.8 47.4 6.7 47 13.1 C46.5 19.5 41 42.2 38.5 46.5 C36 50.9 35.9 55 28.3 55.9 C20.6 56.8 21 58.2 16.3 55.3 C11.7 52.4 12 47.3 9.7 44.2 C3.4 35.5 -0.2 36.3 1.3 32.6 z" id="m1" fill="#1D202A" /><path d="M1.3 32.6 C2.6 30 4.6 29 7.4 29.5 C11.5 20.9 15.9 14.4 20.6 9.8 C27.7 2.9 35.1 -0.6 38.5 0.1 C41.9 0.8 47.4 6.7 47 13.1 C46.5 19.5 41 42.2 38.5 46.5 C36 50.9 35.9 55 28.3 55.9 C20.6 56.8 21 58.2 16.3 55.3 C11.7 52.4 12 47.3 9.7 44.2 C3.4 35.5 -0.2 36.3 1.3 32.6 z M2.9 32 C1.5 35.5 4.5 34.1 10.4 42.4 C12.6 45.3 13.4 50.3 17.7 53 C22.2 55.8 20.8 54.3 28.1 53.5 C35.3 52.6 35.4 48.7 37.7 44.6 C40.1 40.5 45.3 19 45.8 12.9 C46.2 6.8 41 1.3 37.7 0.6 C34.5 -0.1 28 3.9 21.3 10.5 C16.8 14.8 12.1 22.1 8.3 30.2 C5.6 29.7 4.2 29.5 2.9 32 z" opacity="0.15" id="n1" /><path d="M19 41.7 C16.9 38.3 13.6 34.9 19.9 22.9 C23.6 17.3 25.4 11.7 30.3 8.5 C35.2 5.3 40.4 5 41.5 8.5 C42.6 12 42 26.2 38 37.5 C37.1 39.9 34 46.5 32.8 47.8 C30.9 49.9 25.3 53.7 22.9 51.5 C21.5 50.1 20.4 44 19 41.7 z" id="o1" fill="#FFB8B3" /></g></g><g transform="translate(109.6, 97.89996) translate(20, 9)" id="p1"><path d="M74.7 44.7 C74.7 30.9 75.3 23.9 72.1 17.8 C67.3 8.7 61.8 4.3 55.8 2.2 C49.8 0 42.4 1.2 39.1 1.2 C35.8 1.2 28.4 0.1 22.4 2.2 C16.4 4.4 10.9 8.8 6.1 17.8 C2.9 23.9 3.5 30.9 3.5 44.7 C-0.3 52.8 -0.7 59.7 2.5 66.7 C9.1 80.8 24.2 87.8 39.1 87.9 C54 87.8 69.2 80.8 75.7 66.7 C78.9 59.7 78.4 52.8 74.7 44.7 z" id="q1" fill="#464854" /><path d="M2.9 45.5 C5.3 47 8.4 48.4 9.6 48.5 C21.9 50 30.5 47.9 33.8 37.4 C35.8 30.7 31.9 20.5 34.6 10.7 C35.2 8.6 35.2 3.9 33.4 1 C30 0.9 25.9 1 22.2 2.3 C16.2 4.5 10.7 8.9 5.9 17.9 C2.8 24 3.3 31 3.3 44.8 C3.2 45 3.1 45.2 2.9 45.5 z" id="r1" fill="#6E7079" /><path d="M3.1 45.6 C3 45.6 3 45.5 2.9 45.5 C3.1 45.2 3.2 45 3.3 44.8 C3.3 31 2.8 24 5.9 17.9 C10 10.2 14.6 5.9 19.6 3.4 C20.5 2.9 21.5 2.5 22.4 2.2 C28.4 0.1 35.8 1.2 39.1 1.2 C42.4 1.2 49.8 0 55.8 2.2 C61.8 4.3 67.3 8.7 72.1 17.8 C75.3 23.9 74.7 30.9 74.7 44.7 C78.4 52.8 78.9 59.7 75.7 66.7 C69.2 80.8 54 87.8 39.1 87.9 C24.2 87.8 9.1 80.8 2.5 66.7 C-0.6 60 -0.3 53.3 3.1 45.6 z M5.6 43.7 C5.6 43.8 3 48.1 2.3 51.4 C1.2 56 1.6 61.4 3.4 65.2 C9.8 78.8 24.6 85.5 39.1 85.6 C53.6 85.5 68.5 78.8 74.8 65.2 C77.9 58.5 76.8 51.9 73.2 44.1 C73.2 30.8 74.4 24 71.3 18.1 C66.6 9.3 61.2 5.1 55.4 3.1 C49.5 1 42.3 2.1 39.1 2.1 C35.9 2.1 28.7 1.1 22.8 3.1 C21.9 3.4 21 3.8 20.1 4.2 C15.2 6.6 10.7 10.8 6.7 18.2 C3.7 24.1 5.6 30.4 5.6 43.7 z" opacity="0.15" id="s1" /></g><g id="t1"><g transform="translate(85.90001, 88.49997) translate(53, 43)" id="u1"><g transform="translate(0, 9)" id="v1"><path d="M29.8 1 C33.9 0.7 37.3 1 40 1.8 C44.1 3.1 47.1 4.3 48.6 6 C50.1 7.7 52.5 11.7 53.9 15 C55.3 18.4 56 20.1 56.1 22.7 C56.2 25.3 55.9 29.5 57.7 34.6 C59.6 39.7 60 45.1 56.1 49.2 C52.2 53.3 52.5 53.8 48.6 53.6 C44.7 53.4 41.7 51.5 40 48.5 C38.3 45.5 35.1 41.9 31.5 41.5 C31.1 41.5 30.8 41.4 30.5 41.4 C30.4 41.4 30.3 41.5 30.1 41.5 L30.1 41.4 C30 41.4 29.9 41.4 29.8 41.4 C29.7 41.4 29.6 41.4 29.5 41.4 L29.5 41.5 C29.3 41.5 29.2 41.4 29.1 41.4 C28.8 41.4 28.5 41.5 28.1 41.5 C24.5 41.9 21.3 45.5 19.6 48.5 C17.9 51.5 14.9 53.4 11 53.6 C7.1 53.8 7.4 53.3 3.5 49.2 C-0.4 45.1 0 39.8 1.9 34.7 C3.8 29.6 3.5 25.4 3.5 22.8 C3.5 20.2 4.4 18.5 5.7 15.1 C7 11.7 9.6 7.7 11 6 C12.4 4.3 15.4 3.1 19.6 1.8 C22.3 1 25.7 0.7 29.8 1 z" id="w1" fill="#FAF4E8" /><path d="M43.8 52.4 C42.2 51.5 40.9 50.2 40 48.6 C38.3 45.6 35.1 42 31.5 41.6 C31.1 41.6 30.8 41.5 30.5 41.5 C30.4 41.5 30.3 41.6 30.1 41.6 L30.1 41.5 C30 41.5 29.9 41.5 29.8 41.5 C29.7 41.5 29.6 41.5 29.5 41.5 L29.5 41.6 C29.3 41.6 29.2 41.5 29.1 41.5 C28.8 41.5 28.5 41.6 28.1 41.6 C24.5 42 21.3 45.6 19.6 48.6 C19 49.7 18.2 50.7 17.2 51.4 C18.5 46.6 22 41.2 22 36.3 C22 28.9 16 20.6 17.8 15.3 C19.6 10 26.6 9.5 30.4 9.5 C34.2 9.5 38.9 9.5 41.2 14 C43.5 18.5 38.1 27.5 38.3 36.3 C38.3 42.2 42.8 47.6 43.8 52.4 z" id="x1" fill="#D8C6BA" /><path d="M19.7 48.4 C24.1 50.1 26.4 50.2 29.5 50.2 C36 50.2 39.7 48.2 39.7 48.2 C39.7 48.2 37.2 40.5 29.3 40.6 C21.5 40.6 19.7 48.4 19.7 48.4 z" id="y1" fill="#FFF" /><path d="M29.8 1 C33.9 0.7 37.3 1 40 1.8 C44.1 3.1 47.1 4.3 48.6 6 C50.1 7.7 52.5 11.7 53.9 15 C55.3 18.4 56 20.1 56.1 22.7 C56.2 25.3 55.9 29.5 57.7 34.6 C59.6 39.7 60 45.1 56.1 49.2 C52.2 53.3 52.5 53.8 48.6 53.6 C44.7 53.4 41.7 51.5 40 48.5 C37.3 49.2 35.1 50.3 29.8 50.3 C24.5 50.3 22.2 49.5 19.6 48.5 C17.4 51.8 14.9 53.4 11 53.6 C7.1 53.8 7.4 53.3 3.5 49.2 C-0.4 45.1 0 39.8 1.9 34.7 C3.8 29.6 3.5 25.4 3.5 22.8 C3.5 20.2 4.4 18.5 5.7 15.1 C7 11.7 9.6 7.7 11 6 C12.4 4.3 15.4 3.1 19.6 1.8 C22.3 1 25.7 0.7 29.8 1 z M29.8 1 C26 0.7 22.9 1 20.4 1.7 C16.5 2.9 13.8 4 12.5 5.6 C11.2 7.2 8.8 10.9 7.6 14 C6.4 17.1 5.6 18.7 5.6 21.1 C5.6 23.5 5.9 27.4 4.1 32.1 C2.3 36.8 2 41.7 5.6 45.5 C9.2 49.3 8.9 49.7 12.5 49.6 C16.1 49.5 18.9 47.7 20.4 44.9 C21.9 42.1 20.4 48.3 29 48.3 C39.2 48.3 37.6 42.2 39.2 44.9 C40.8 47.7 43.5 49.4 47.1 49.6 C50.7 49.8 50.4 49.3 54 45.5 C57.6 41.7 57.2 36.7 55.5 32 C53.8 27.3 54.1 23.4 54 21 C53.9 18.6 53.3 17 52 13.9 C50.7 10.9 48.5 7.2 47.1 5.6 C45.8 4.1 43 3 39.2 1.8 C36.7 1 33.6 0.8 29.8 1 z" fill-opacity="0.4" id="z1" /></g></g><g transform="translate(168.6, 175.5) scale(1.4) translate(-168.6, -179.5) translate(101.6, 93.69997) translate(58, 77)" id="a2"><g id="b2"><path d="M9.1 8.1 C9.1 8.1 5.5 10.3 3.5 11.1 C4.6 12 6.9 13.1 9.1 13.1 C11.3 13.1 13.5 12 14.7 11.1 C12.7 10.2 9.1 8.1 9.1 8.1 z" id="c2" fill="#CE5253" /><path d="M18.5 13.8 C18.5 13.8 18.4 13.7 18.2 13.4 C18 13.2 17.7 12.8 17.4 12.5 C16.7 11.7 15.7 10.8 14.5 10 C13.4 9.2 12.1 8.4 11.1 8 C10.8 7.9 10.6 7.8 10.4 7.7 C10.3 7.7 10.2 7.7 10.1 7.6 L10.1 1.9 C10.1 1.3 9.7 0.9 9.1 0.9 C8.5 0.9 8.1 1.3 8.1 1.9 L8.1 7.6 C8 7.6 7.9 7.7 7.9 7.7 C7.7 7.8 7.4 7.9 7.2 8 C6.2 8.5 5 9.2 4 10 C2.9 10.8 2 11.8 1.4 12.6 C1.1 13 0.8 13.3 0.7 13.5 C0.5 13.7 0.4 13.9 0.4 13.9 C0.3 14.1 0.3 14.4 0.4 14.6 C0.6 14.8 0.9 14.8 1.1 14.6 C1.1 14.6 1.2 14.5 1.4 14.3 C1.6 14.1 1.9 13.9 2.3 13.6 C3 13 4 12.3 5.1 11.7 C6.2 11.1 7.3 10.7 8.1 10.5 C8.3 10.5 8.5 10.4 8.6 10.4 C8.6 10.4 8.6 10.4 8.7 10.4 C8.8 10.5 9 10.5 9.2 10.5 C9.4 10.5 9.5 10.4 9.7 10.4 L9.8 10.4 C10 10.4 10.2 10.5 10.4 10.5 C11.3 10.7 12.5 11.1 13.6 11.7 C14.8 12.3 15.8 13 16.6 13.5 C17 13.8 17.3 14 17.5 14.2 C17.7 14.4 17.9 14.5 17.9 14.5 C18.1 14.7 18.4 14.7 18.6 14.5 C18.7 14.3 18.7 14 18.5 13.8 z" id="d2" fill="#282523" /></g></g><g transform="translate(168.6, 157.8999) scale(1.3) translate(-168.6, -162.8999) translate(95.50001, 75.79996) translate(61, 60)" id="e2"><path d="M3.4 29.3 C5.1 31.6 6.8 32.9 11.9 32.9 C17 32.9 20.1 30.4 20.6 27.9 C21.1 25.4 20.5 20.8 16.3 19.7 C12.1 18.6 7.1 18.8 5.4 20.8 C4.7 21.6 3.5 22.7 2.9 24.1 C2.1 26.1 2.5 28 3.4 29.3 z" id="f2" /><path d="M8.2 20.6 C5.8 21.6 4.3 23 6.5 22.4 C7.9 22 9.3 21.7 10.8 21.8 C11.6 21.9 13.3 22 14.7 22.3 C16.1 23.4 18 24 18.6 23.5 C19.2 23 18.6 21.2 16.3 20.5 C14 19.8 10.7 19.6 8.2 20.6 z" id="g2" fill="#FFF" /></g><g transform="translate(98.90001, 59.19997)" id="h2"><g transform="translate(18, 29)" id="i2"><path d="M23.6 41.6 C25.6 38.1 29.7 36 33.7 36.5 C37.7 37 41.2 39.9 42.3 43.8 C43.4 47.6 42.9 51.8 39.2 53.1 C35.8 54.4 27.9 54.9 24.5 52.9 C21 50.8 21.6 45.1 23.6 41.6 z" id="j2" fill="#6E7079" /><path d="M9 21.2 C15.5 14.3 18.6 13 26.7 11.8 C24 10.9 25 9.4 20.1 8.3 C23.4 5.7 26.9 7 31.1 7.1 C33.9 7.2 36.3 7 38.8 8.5 C38.9 5.8 38.7 3.1 38.3 0.5 C44.7 5.4 47.5 16 47.5 24.1 C47.5 37.4 43 52.3 41.7 50.8 C38.4 44.3 34.3 37.9 29.3 36.9 C27.4 36.5 24.3 37.6 22.7 38.8 C16.9 43.3 14.1 50.6 14.7 57.5 C13.6 57.7 12.6 57.9 11.5 58.1 C10.6 54.2 10.7 50.7 11.5 46.8 C8.3 49.2 6 52.7 4.9 56.5 C3.8 51 4.9 45 7.9 40.2 C4.4 40.8 2.5 44 1.3 47 C-0.3 40.3 3.7 26.9 9 21.2 z" id="k2" fill="#6E7079" /><path d="M22.8 38.9 C17.5 42.1 14.2 50.7 14.8 57.6 C13.7 57.8 12.7 58 11.6 58.2 C10.7 54.3 10.8 50.8 11.6 46.9 C8.4 49.3 6.1 52.8 5 56.6 C3.8 51.1 4.9 45.1 7.9 40.3 C4.4 40.9 2.5 44.1 1.3 47.1 C-0.3 40.3 3.7 26.9 9 21.2 C15.5 14.3 18.6 13 26.7 11.8 C24 10.9 25 9.4 20.1 8.3 C23.4 5.7 26.9 7 31.1 7.1 C33.9 7.2 36.3 7 38.8 8.5 C38.9 5.8 38.7 3.1 38.3 0.5 C44.7 5.4 47.5 16 47.5 24.1 C47.5 30.5 46.6 36.5 45.6 41.1 C44.6 46 43.6 49.4 41.1 52 C40.6 52.4 40 52.8 39.2 53.1 C35.8 54.4 27.9 54.9 24.5 52.9 C21 50.8 21.6 45.1 23.6 41.6 C24.9 39.3 27.1 37.6 29.6 36.9 C26.9 37.1 24.3 38 22.8 38.9 z M29.3 35.4 L34 36.3 C31.7 37 26.9 38.5 25.6 40.7 C23.7 44 21.9 48.7 25.2 50.7 C28.4 52.6 35.1 51.9 38.3 50.7 C39 50.4 39.6 50.1 40.1 49.7 C44.6 44.9 46.1 36 46.1 23.5 C46.1 15.9 45.3 7.3 39.3 2.7 C39.7 5.1 39.4 7.9 39.3 10.5 C37 9.1 34.7 8.5 32 8.4 C28.1 8.3 25.3 5.9 22.2 8.3 C26.8 9.3 26.4 11.4 28.9 12.2 C21.3 13.3 17.4 14.3 11.3 20.8 C6.4 26 0.8 35.9 2.3 42.3 C3.4 39.5 6.9 38.8 10.2 38.2 C7.4 42.7 4.5 46.9 5.6 52 C6.6 48.4 9.4 47.1 12.4 44.8 C11.6 48.5 11.6 51.8 12.4 55.4 C13.4 55.2 13.1 55.1 14.1 54.9 C13.5 48.4 18 40.3 22.9 37.3 C24.3 36.4 26.7 35.7 29.3 35.4 z" opacity="0.15" id="l2" /><circle cx="32.5" cy="45.2" r="6.7" id="m2" fill="#282421" /><path d="M33.4 47 C34.4 47 35.2 46.2 35.2 45.2 C35.2 44.2 34.4 43.4 33.4 43.4 C32.4 43.4 31.6 44.2 31.6 45.2 C31.6 46.2 32.4 47 33.4 47 z" id="n2" fill="#FFF" /><path d="M29.4 40.7 C30.6 40 33.1 39 33.4 40 C33.7 41.2 31.9 40.9 30.7 41.9 C29.4 43 29 43.4 28.3 44.2 C27.7 44.8 27.3 42 29.4 40.7 z" id="o2" fill="#FFF" /></g></g><g transform="translate(102, 59.19997) translate(67, 29)" id="p2"><g id="q2"><path d="M24.4 41.6 C22.4 38.1 18.3 36 14.3 36.5 C10.3 37 6.8 39.9 5.7 43.8 C4.6 47.6 5.1 51.8 8.8 53.1 C12.2 54.4 20.1 54.9 23.5 52.9 C27 50.8 26.4 45.1 24.4 41.6 z" id="r2" fill="#6E7079" /><circle cx="15.5" cy="45.2" r="6.7" id="s2" fill="#282421" /><path d="M14.6 47 C13.6 47 12.8 46.2 12.8 45.2 C12.8 44.2 13.6 43.4 14.6 43.4 C15.6 43.4 16.4 44.2 16.4 45.2 C16.4 46.2 15.6 47 14.6 47 z" id="t2" fill="#FFF" /><path d="M18.6 40.7 C17.4 40 14.9 39 14.6 40 C14.3 41.2 16.1 40.9 17.3 41.9 C18.6 43 19 43.4 19.7 44.2 C20.3 44.8 20.7 42 18.6 40.7 z" id="u2" fill="#FFF" /><path d="M38.9 21.2 C32.4 14.3 29.3 13 21.2 11.8 C23.9 10.9 22.9 9.4 27.8 8.3 C24.5 5.7 21 7 16.8 7.1 C14 7.2 11.6 7 9.1 8.5 C9 5.8 9.2 3.1 9.6 0.5 C3.2 5.4 0.4 16 0.4 24.1 C0.4 37.4 3.8 46.9 5.7 50.1 C5.8 34.3 19.9 35.7 25.1 38.8 C30.3 41.9 33.7 50.6 33.1 57.5 C34.2 57.7 35.2 57.9 36.3 58.1 C37.2 54.2 37.1 50.7 36.3 46.8 C39.5 49.2 41.8 52.7 42.9 56.5 C44.1 51 43 45 40 40.2 C43.5 40.8 45.4 44 46.6 47 C48.1 40.3 44.2 26.9 38.9 21.2 z" id="v2" fill="#6E7079" /><path d="M25.1 38.9 C30.4 42.1 33.7 50.7 33.1 57.6 C34.2 57.8 35.2 58 36.3 58.2 C37.2 54.3 37.1 50.8 36.3 46.9 C39.5 49.3 41.8 52.8 42.9 56.6 C44.1 51.1 43 45.1 40 40.3 C43.5 40.9 45.4 44.1 46.6 47.1 C48.2 40.3 44.2 26.9 38.9 21.2 C32.4 14.3 29.3 13 21.2 11.8 C23.9 10.9 22.9 9.4 27.8 8.3 C24.5 5.7 21 7 16.8 7.1 C14 7.2 11.6 7 9.1 8.5 C9 5.8 9.2 3.1 9.6 0.5 C3.2 5.4 0.4 16 0.4 24.1 C0.4 31.8 1.6 38.6 3 43.6 C4 47.3 5.5 50.3 6.8 52 C7.3 52.4 7.9 52.8 8.7 53.1 C12.1 54.4 20 54.9 23.4 52.9 C26.9 50.8 26.3 45.1 24.3 41.6 C23 39.3 20.8 37.6 18.3 36.9 C21.1 37.1 23.6 38 25.1 38.9 z M18.7 35.4 L14 36.3 C16.3 37 21.1 38.5 22.4 40.7 C24.3 44 26.1 48.7 22.8 50.7 C19.6 52.6 12.9 51.9 9.7 50.7 C9 50.4 8.4 50.1 7.9 49.7 C3.4 44.9 1.9 36 1.9 23.5 C1.9 15.9 2.7 7.3 8.7 2.7 C8.3 5.1 8.6 7.9 8.7 10.5 C11 9.1 13.3 8.5 16 8.4 C19.9 8.3 22.7 5.9 25.8 8.3 C21.2 9.3 21.6 11.4 19.1 12.2 C26.7 13.3 30.6 14.3 36.7 20.8 C41.7 26.2 47.3 36.1 45.8 42.5 C44.7 39.7 41.2 39 37.9 38.4 C40.7 42.9 43.6 47 42.5 52.2 C41.5 48.6 38.7 47.3 35.7 45 C36.5 48.7 36.5 52 35.7 55.6 C34.7 55.4 35 55.3 34 55.1 C34.6 48.6 30.1 40.5 25.2 37.5 C23.6 36.4 21.2 35.7 18.7 35.4 z" opacity="0.15" id="w2" /></g></g></g></g></g></g><defs><g transform="translate(17.09519, 0.800995) translate(-135.2952, -293.601)" id="x2" fill="#000"><path d="M118.2 302.7 C118.4 307.4 132.5 311.2 149.8 311.2 C167.1 311.2 181.2 307.4 181.4 302.7 C181.4 307.5 181.4 310.1 181.4 310.5 C181.4 315.3 167.3 319.1 149.8 319.1 C132.3 319.1 118.2 315.2 118.2 310.5 L118.2 302.7 L118.2 302.7 z" fill-opacity="0.4528" id="y2" fill="#593001" /><path d="M118.7 301.7 C118.9 306.4 133 310.2 150.3 310.2 C167.6 310.2 181.7 306.4 181.9 301.7 C181.9 306.5 181.9 309.1 181.9 309.5 C181.9 314.3 167.8 318.1 150.3 318.1 C132.8 318.1 118.7 314.2 118.7 309.5 L118.7 301.7 L118.7 301.7 z" id="z2" fill="#DA8113" /><linearGradient x1="46.0545" y1="-118.6926" x2="45.4656" y2="-118.6926" gradientUnits="userSpaceOnUse" gradientTransform="matrix(117.135, 0, 0, 28.4634, -5208.417, 3687.795)" id="a3"><stop offset="0%" stop-color="#D9952A" stop-opacity="1" /><stop offset="6.438854%" stop-color="#CA7519" stop-opacity="1" /><stop offset="30.54%" stop-color="#E3AD3A" stop-opacity="1" /><stop offset="51.05%" stop-color="#FFEC91" stop-opacity="1" /><stop offset="68.8%" stop-color="#E9BD44" stop-opacity="1" /><stop offset="86.24%" stop-color="#FFED6C" stop-opacity="1" /><stop offset="93.87%" stop-color="#F2D353" stop-opacity="1" /><stop offset="100%" stop-color="#F2B947" stop-opacity="1" /></linearGradient><path d="M118.2 301.6 C118.4 306.1 132.7 309.7 150.3 309.7 C167.9 309.7 182.2 306.1 182.4 301.6 C182.4 306.2 182.4 308.7 182.4 309 C182.4 313.5 168 317.2 150.3 317.2 C132.6 317.2 118.2 313.5 118.2 309 L118.2 301.6 L118.2 301.6 z" id="b3" style="fill:url(#a3)" /><linearGradient x1="45.4914" y1="-117.9547" x2="45.9407" y2="-117.5895" gradientUnits="userSpaceOnUse" gradientTransform="matrix(115.425, 0, 0, 29.925, -5125.077, 3826.124)" id="c3"><stop offset="0%" stop-color="#F4E072" stop-opacity="1" /><stop offset="100%" stop-color="#DB9427" stop-opacity="1" /></linearGradient><ellipse cx="150.3" cy="301.5" rx="31.6" ry="8.2" id="d3" style="fill:url(#c3)" /><linearGradient x1="45.4656" y1="-126.0065" x2="46.0545" y2="-126.0065" gradientUnits="userSpaceOnUse" gradientTransform="matrix(117.135, 0, 0, 18.6219, -5208.417, 2651.479)" id="e3"><stop offset="0%" stop-color="#D9952A" stop-opacity="1" /><stop offset="6.438854%" stop-color="#CA7519" stop-opacity="1" /><stop offset="30.54%" stop-color="#E3AD3A" stop-opacity="1" /><stop offset="51.05%" stop-color="#FFEC91" stop-opacity="1" /><stop offset="68.8%" stop-color="#E9BD44" stop-opacity="1" /><stop offset="86.24%" stop-color="#FFED6C" stop-opacity="1" /><stop offset="93.87%" stop-color="#F2D353" stop-opacity="1" /><stop offset="100%" stop-color="#F2B947" stop-opacity="1" /></linearGradient><path d="M119.2 299.9 C119 300.2 118.9 300.6 118.9 301 C118.9 305.5 132.9 309.2 150.3 309.2 C167.7 309.2 181.7 305.5 181.7 301 C181.7 300.6 181.6 300.3 181.4 299.9 C182 300.5 182.4 301.2 182.4 301.9 C182.4 306.4 168 310.1 150.3 310.1 C132.6 310.1 118.2 306.4 118.2 301.9 C118.2 301.3 118.6 300.6 119.2 299.9 z" id="f3" style="fill:url(#e3)" /><linearGradient x1="45.196" y1="-121.5895" x2="45.3746" y2="-120.6758" gradientUnits="userSpaceOnUse" gradientTransform="matrix(101.745, 0, 0, 23.94, -4458.332, 3199.41)" id="g3"><stop offset="0%" stop-color="#F8DD61" stop-opacity="1" /><stop offset="100%" stop-color="#EAA330" stop-opacity="1" /></linearGradient><ellipse cx="150.3" cy="300.8" rx="27.8" ry="6.6" id="h3" style="fill:url(#g3)" /><linearGradient x1="45.5694" y1="-134.267" x2="45.0221" y2="-134.267" gradientUnits="userSpaceOnUse" gradientTransform="matrix(101.745, 0, 0, 13.2525, -4458.332, 2077.223)" id="i3"><stop offset="0%" stop-color="#F4CA2F" stop-opacity="1" /><stop offset="51.38%" stop-color="#BF7737" stop-opacity="1" /><stop offset="100%" stop-color="#E4A929" stop-opacity="1" /></linearGradient><path d="M122.6 301.5 C122.5 301.3 122.4 301 122.4 300.8 C122.4 297.2 134.9 294.2 150.2 294.2 C165.5 294.2 178 297.1 178 300.8 C178 301 177.9 301.3 177.8 301.5 C176.3 298.2 164.5 295.6 150.1 295.6 C135.7 295.6 124.1 298.2 122.6 301.5 z" id="j3" style="fill:url(#i3)" /></g></defs><desc>NLONN9BDEF9,P+vzL6N6SMB3E23fcWWm+CJ4lHU0dwi6h34V1Vvif7Vas9rcQJiBfg3dg8tyV+5QWq1QWZ197l4l3yeSN6Qb/Q+6GSUyPYZmEHQpfMWcg58=</desc></svg>