<?xml version="1.0" encoding="utf-8"?><!DOCTYPE svg PUBLIC "-//W3C//DTD SVG 1.1//EN" "http://www.w3.org/Graphics/SVG/1.1/DTD/svg11.dtd"><svg x="0" y="0" width="340px" height="340px" viewBox="0, 0, 340, 340" preserveAspectRatio="xMidYMid" font-size="0" id="a" enable-background="new 0 0 340 340" xmlns="http://www.w3.org/2000/svg" xmlns:xlink="http://www.w3.org/1999/xlink" xmlns:xml="http://www.w3.org/XML/1998/namespace" version="1.1"><g id="b" fill="#000"><g id="c"><g transform="translate(0, 0) translate(0, 224)" id="d"><ellipse cx="168.6" cy="53.1" rx="57.8" ry="12.8" fill-opacity="0.25" id="e" /></g><g id="f"><g transform="translate(106.9, 101.4) translate(16.5, 128.5) scale(-1, 1) translate(-16.5, -128.5) translate(6, 115)" id="g"><g id="h" fill="#342520"><path d="M15.1 3.5 C17 0.9 18.1 -0.5 19.6 0.1 C21 0.7 21 2.3 20.4 4.9 C18.8 11.3 13.3 23 7.5 26 C3.3 28.2 -1.9 24.1 0.7 21.3 C5.9 15.6 10.5 9.7 15.1 3.5 z" id="i" /></g></g><g transform="translate(128.5799, 273.6799) scale(1.290051) translate(-128.5799, -273.6799) translate(129.7, 274.8) scale(0.7) translate(-124.7, -274.8) translate(-286.4, 61.99997) translate(20, 150)" id="j"><path d="M418 16.4 C418 16.4 415.5 9 413.5 8.1 C411.5 7.2 409.1 5.1 402.7 6.1 C396.3 7.1 391.2 9.7 388.3 13.1 C385.4 16.4 382.6 26.3 385.4 31.7 C387.3 35.3 390.5 40 395.1 45.6 C389.5 45.6 386.3 46.1 385.4 47 C384.1 48.4 382.7 53.9 384.1 57 C385.4 60 387.5 64.2 393.6 63.9 C399.7 63.7 414.1 60.2 416.6 59.1 C419.1 58 417.8 40.7 417.8 39.4 C417.7 13 418 16.4 418 16.4 z" id="k" fill="#B09082" /><path d="M418 16.4 C418 16.4 417.7 12.9 417.8 39.4 C417.8 40.7 419.1 58 416.6 59.1 C414.1 60.2 399.7 63.7 393.6 63.9 C387.5 64.2 385.4 60 384.1 57 C382.7 53.9 384.1 48.4 385.4 47 C386.3 46.1 389.5 45.6 395.1 45.6 C390.5 40 387.3 35.3 385.4 31.7 C382.6 26.3 385.4 16.4 388.3 13.1 C391.2 9.7 396.3 7.1 402.7 6.1 C409.1 5.1 411.5 7.2 413.5 8.1 C415.5 9.1 418 16.4 418 16.4 z M416.7 16.6 C416.7 16.6 414.4 9.8 412.5 8.9 C410.6 8 408.4 6.1 402.5 7.1 C396.6 8.1 391.9 10.4 389.3 13.6 C386.6 16.6 384 25.8 386.6 30.8 C388.4 34.1 393.9 41.7 398.2 46.8 C393 46.8 387.9 47.2 387.1 48 C385.9 49.3 384.1 51.2 385.4 54.1 C386.6 56.9 388.5 60.7 394.2 60.5 C399.8 60.3 413.1 57.1 415.4 56.1 C417.7 55.1 416.5 39.1 416.5 37.9 C416.4 13.5 416.7 16.6 416.7 16.6 z" opacity="0.15" id="l" /></g><g transform="translate(209.92, 273.7799) scale(1.290051) translate(-209.92, -273.7799) translate(208.8, 274.9) scale(0.7) translate(-213.8, -274.9) translate(-285.5, 62.09998) translate(106.5, 179.5) scale(-1, 1) translate(-106.5, -179.5) translate(89, 150)" id="m"><path d="M-348.6 16.4 C-348.6 16.4 -351.1 9 -353.1 8.1 C-355.1 7.2 -357.5 5.1 -363.9 6.1 C-370.3 7.1 -375.4 9.7 -378.3 13.1 C-381.2 16.4 -384 26.3 -381.2 31.7 C-379.3 35.3 -376.1 40 -371.5 45.6 C-377.1 45.6 -380.3 46.1 -381.2 47 C-382.5 48.4 -383.9 53.9 -382.5 57 C-381.2 60 -379.1 64.2 -373 63.9 C-366.9 63.7 -352.5 60.2 -350 59.1 C-347.5 58 -348.8 40.6 -348.8 39.3 C-348.8 13 -348.6 16.4 -348.6 16.4 z" id="n" fill="#B09082" /><path d="M-348.6 16.4 C-348.6 16.4 -348.8 12.9 -348.8 39.3 C-348.8 40.6 -347.5 58 -350 59.1 C-352.5 60.2 -366.9 63.7 -373 63.9 C-379.1 64.2 -381.2 60 -382.5 57 C-383.9 53.9 -382.5 48.4 -381.2 47 C-380.3 46.1 -377.1 45.6 -371.5 45.6 C-376.1 40 -379.3 35.3 -381.2 31.7 C-384 26.3 -381.2 16.4 -378.3 13.1 C-375.4 9.7 -370.3 7.1 -363.9 6.1 C-357.5 5.1 -355.1 7.2 -353.1 8.1 C-351.1 9.1 -348.6 16.4 -348.6 16.4 z M-350 16.5 C-350 16.5 -352.3 9.7 -354.1 8.9 C-355.9 8.1 -358.1 6.1 -364 7.1 C-369.9 8.1 -374.6 10.3 -377.3 13.5 C-380 16.5 -382.5 25.6 -380 30.6 C-378.2 33.9 -373.6 41.1 -369.3 46.3 C-374.4 46.3 -379 47.1 -379.8 48 C-381 49.3 -382.4 51 -381.1 53.9 C-379.9 56.7 -378 60.5 -372.4 60.2 C-366.8 60 -353.5 56.8 -351.2 55.8 C-348.9 54.8 -350.1 38.8 -350.1 37.6 C-350.2 13.4 -350 16.5 -350 16.5 z" opacity="0.15" id="o" /></g><g transform="translate(96.90001, 90.79997) translate(24, 65)" id="p"><g transform="translate(4, 0)" id="q"><path d="M71 19.7 C73.2 28.5 78.4 30.1 83 37.6 C89.4 45.5 87.3 61.5 83.3 73 C82 76.7 78.7 86.3 76.6 97.4 C74.6 108.4 76.2 117.3 72.2 120.7 C70.8 122.2 64.9 123.5 55.5 123.5 C52.1 123.5 51 122.5 44.7 122.5 C38.4 122.5 36.3 123.6 33.3 123.5 C24.6 123.1 21 123.2 18.1 120.7 C13.8 116.2 15.5 106.2 12.9 95.6 C10.6 86.1 6.5 78.3 5.5 74 C3.5 64.9 0.2 50.2 6.3 39.2 C9.2 32.9 15.3 26.1 16.9 17.6 C18.6 8.1 34.9 5 43.7 4.4 C55 3.6 68.6 10.1 71 19.7 z" id="r" fill="#D8C6BA" /><path d="M84.2 39.3 C71.9 51.2 58.6 57.1 44.5 57.1 C30.5 57.1 17.9 51 6.6 38.7 C9.6 32.5 15.4 25.9 17 17.6 C18.6 8.1 34.9 5 43.7 4.4 C55 3.6 68.6 10.1 71 19.7 C73.2 28.5 78.4 30.1 83 37.6 C83.4 38.1 83.8 38.7 84.2 39.3 z" id="s" fill="#7B4C3A" /><path d="M71 19.7 C73.2 28.5 78.4 30.1 83 37.6 C89.4 45.5 87.3 61.5 83.3 73 C82 76.7 78.7 86.3 76.6 97.4 C74.6 108.4 76.2 117.3 72.2 120.7 C70.8 122.2 64.9 123.5 55.5 123.5 C52.1 123.5 51 122.5 44.7 122.5 C38.4 122.5 36.3 123.6 33.3 123.5 C24.6 123.1 21 123.2 18.1 120.7 C13.8 116.2 15.5 106.2 12.9 95.6 C10.6 86.1 6.5 78.3 5.5 74 C3.5 64.9 0.2 50.2 6.3 39.2 C9.2 32.9 15.3 26.1 16.9 17.6 C18.6 8.1 34.9 5 43.7 4.4 C55 3.6 68.6 10.1 71 19.7 z M69.6 20.3 C67.4 11 54.5 4.8 43.8 5.5 C35.4 6.1 20 9.1 18.4 18.3 C16.9 26.5 11.1 33 8.4 39.1 C2.6 49.7 5.7 63.8 7.6 72.6 C8.5 76.7 12.4 84.3 14.6 93.4 C17.1 103.6 15.5 113.3 19.5 117.6 C22.2 120 25.7 119.9 33.9 120.3 C36.7 120.4 38.7 119.3 44.7 119.3 C50.7 119.3 51.7 120.3 54.9 120.3 C63.8 120.3 69.4 119 70.7 117.6 C74.5 114.3 73 105.7 74.9 95.1 C76.9 84.4 80 75.1 81.2 71.6 C85 60.5 87 45.1 80.9 37.5 C76.6 30.3 71.7 28.8 69.6 20.3 z" opacity="0.15" id="t" /></g></g><g transform="translate(128.3644, 189.34) scale(0.8602846, 0.9139401) translate(-121.7, -191.4) translate(98.00001, 65.39996) translate(24, 127)" id="u"><path d="M6.1 0.2 C11.1 5.7 15.3 10.1 18.8 13.2 C26.2 19.7 34 23.4 34.2 23.5 C39.7 27 43.3 27.1 48.3 27.1 C53.3 27.1 61.1 25.3 64.4 23.5 C66 22.6 72.5 19.8 80.3 12 C83.2 9.2 86 4.8 88.8 -1 C90.9 1.7 92.5 5.5 93.6 10.3 C94.4 14.1 91.9 19.6 92.1 24.6 C90.9 36.8 87.7 37.7 83.8 47 C82.9 49.2 84.6 50.8 83.6 53.8 C80.2 63.3 76.6 75.4 76 82 C75.8 84.4 77.6 84.2 80.5 87.3 C83.4 90.4 86.7 99 82.8 100.9 C74 102.3 63.9 97.7 61.3 96.3 C59.6 95.4 59.3 78 59.6 61.4 C59.7 51.6 60.3 42 59.6 39.7 C57.5 41.8 51.1 46.2 48.5 46 C45.9 45.8 43.6 42.3 37.8 38.9 C37.4 41.1 38.8 52.2 39 61.3 C39.4 78 39 96.2 37.8 97.4 C36.1 99.4 18.9 101.8 14.7 100.8 C10.5 99.8 12.7 93.7 13.5 92 C15.4 87.8 21 85 20.9 83.5 C20.2 71.3 17.3 63 14.7 56.5 C13.7 54.1 14.3 49.9 13.5 47.9 C8.1 34.4 6.9 36.4 4.9 31.7 C3.2 27.8 1 25.4 2 21.1 C3 16.8 1.4 11 2.1 9.3 C3 6.9 4.3 3.8 6.1 0.2 z" id="v" fill="#FAF4E8" /><path d="M93.6 10.2 C94.4 14 94.9 18.4 95.1 23.4 C93.9 35.6 92.9 33.6 89 43 C88.1 45.1 83.9 52.6 82.8 55.2 C81 57.3 80.8 59.3 78.9 59.4 C76.2 59.6 76.9 55.9 80.9 46.4 C83.6 39.8 84.8 35.9 86.7 26.5 C87.9 20.2 91.4 13.1 93.6 10.2 z" id="w" fill="#7B4C3A" /><path d="M14.6 56.5 C13.6 54.1 12.7 51.9 11.9 49.9 C6.6 36.4 0.8 32.6 0.3 25.4 C-0.3 19.9 0.1 17.8 0.8 13.5 C1 12.4 1.4 11 2.1 9.3 C4.8 12.1 10 19.9 11.3 26.4 C13.2 35.8 14.4 39.7 17.1 46.3 C21 55.8 21.8 59.4 19.1 59.3 C17.4 59.2 16.1 58.2 14.6 56.5 z" id="x" fill="#7B4C3A" /><path d="M6.1 0.2 C11.1 5.7 15.3 10.1 18.8 13.2 C26.2 19.7 34 23.4 34.2 23.5 C39.7 27 43.3 27.1 48.3 27.1 C53.3 27.1 61.1 25.3 64.4 23.5 C66 22.6 72.5 19.8 80.3 12 C83.2 9.2 86 4.8 88.8 -1 C90.9 1.7 92.5 5.5 93.6 10.3 C94.4 14.1 94.9 18.5 95.1 23.5 C93.9 35.6 92.9 33.6 89 43 C88.3 44.7 85.5 49.8 83.8 53.1 C83.8 53.3 83.7 53.5 83.6 53.8 C80.2 63.3 76.6 75.4 76 82 C75.8 84.4 77.6 84.2 80.5 87.3 C83.4 90.4 86.7 99 82.8 100.9 C74 102.3 63.9 97.7 61.3 96.3 C59.6 95.4 59.3 78 59.6 61.4 C59.7 51.6 60.3 42 59.6 39.7 C57.5 41.8 51.1 46.2 48.5 46 C45.9 45.8 43.6 42.3 37.8 38.9 C37.4 41.1 38.8 52.2 39 61.3 C39.4 78 39 96.2 37.8 97.4 C36.1 99.4 18.9 101.8 14.7 100.8 C10.5 99.8 12.7 93.7 13.5 92 C15.4 87.8 21 85 20.9 83.5 C20.2 71.5 17.4 63.3 14.9 56.9 C14.8 56.8 14.7 56.6 14.5 56.5 C13.5 54.1 12.6 51.9 11.8 49.9 C6.6 36.4 0.8 32.6 0.3 25.4 C-0.3 19.9 0.1 17.8 0.8 13.5 C1 12.4 1.4 11 2.1 9.3 C3 6.9 4.3 3.8 6.1 0.2 z M8.6 4.8 C6.9 8.1 6.3 10.2 5.5 12.4 C4.9 14 4.5 15.3 4.3 16.4 C3.7 20.4 3.3 22.3 3.8 27.4 C4.3 34 9.6 37.5 14.5 50.1 C15.2 52 16.1 54 17 56.2 C17.1 56.3 17.2 56.4 17.3 56.6 C19.7 62.6 22.2 73.6 22.8 84.7 C22.9 86.1 17.6 87 15.9 90.9 C15.2 92.5 13.2 96.4 17.1 97.3 C21 98.2 34.2 96.4 35.8 94.5 C36.9 93.4 37.5 74.5 37.2 58.9 C37 50.5 34 37.5 34.4 35.5 C39.8 38.6 46.5 44.9 48.8 45 C51.1 45.1 60.4 37 62.3 35.1 C62.9 37.2 61.2 52.7 61.1 61.8 C60.8 77.1 61 93.5 62.6 94.3 C65 95.6 72 98.6 80.1 97.3 C83.7 95.4 79.9 90.2 77.2 87.4 C74.5 84.6 74.1 84.9 74.3 82.6 C74.9 76.5 77.7 62.4 80.8 53.6 C80.9 53.4 80.9 53.2 81 53 C82.5 49.9 85.2 45.2 85.8 43.6 C89.4 34.9 90.3 36.7 91.4 25.6 C91.2 20.9 90.8 16.8 90 13.3 C89 8.9 89.4 6.5 87.5 4 C84.9 9.5 80.4 13.4 77.8 16 C70.5 23.2 64.6 24.7 63.1 25.5 C60 27.2 52.9 30.9 48.3 30.9 C43.7 30.9 40.2 28.7 35.2 25.5 C35 25.4 27.3 22 20.5 16 C17.2 13.1 13.2 9.8 8.6 4.8 z" opacity="0.15" id="y" /></g></g><g transform="translate(170, 196.9) scale(0.9654019) translate(-170, -196.9)" id="z"><g transform="translate(114.3, 77.29996) translate(3, 0)" id="a1"><g id="b1"><path d="M11.9 56.5 C7.4 51.8 1.1 33.7 0.8 24.4 C0.5 15.1 3.9 2.8 7.6 0.9 C12.2 -0.6 20.2 6.9 27.1 16.4 C34 25.8 37.5 28.4 38.8 30.9 C40.1 33.4 40 35.2 37.1 39 C36.1 40.3 34.3 41.7 32.1 44.5 C30.6 46.4 27.9 52.2 24.6 55.7 C20.7 59.9 14.7 59.5 11.9 56.5 z" id="c1" fill="#342520" /><path d="M11.9 56.5 C7.4 51.8 1.1 33.7 0.8 24.4 C0.5 15.1 3.9 2.8 7.6 0.9 C12.2 -0.6 20.2 6.9 27.1 16.4 C34 25.8 37.5 28.4 38.8 30.9 C40.1 33.4 40 35.2 37.1 39 C36.1 40.3 34.3 41.7 32.1 44.5 C30.6 46.4 27.9 52.2 24.6 55.7 C20.7 59.9 14.7 59.5 11.9 56.5 z M12.5 52.6 C15.1 55.3 20.6 55.7 24.3 51.9 C27.4 48.7 29.9 43.4 31.2 41.7 C33.2 39.2 34.9 37.9 35.8 36.7 C38.5 33.2 37 32 35.8 29.7 C34.6 27.4 31.7 25 25.3 16.5 C18.9 7.8 12.8 0.7 8.5 2 C5.1 3.8 2 14.9 2.2 23.4 C2.4 31.9 8.3 48.3 12.5 52.6 z" opacity="0.15" id="d1" /><path d="M12 44.1 C9.7 39.8 6.2 33.1 5.6 28.8 C5 24.6 5.3 20.2 5.6 17.4 C5.9 14.5 6.9 8.2 9.3 5.6 C12.4 2.8 18.2 14 22.4 19.8 C25.2 23.7 28.3 27.9 31.5 32.4 C32 36.4 31.4 39.3 29.7 40.9 C27.1 43.3 25.6 49.3 22.4 50.6 C19.3 52 14.4 48.4 12 44.1 z" id="e1" fill="#FFB8B3" /><path d="M24 35.1 C21.5 34.1 16.2 28.2 16.2 32.3 C16.2 34 16.2 37 18.5 41.9 C19.4 43.8 21.2 46.4 24 49.7 C25.2 48.4 26 47.1 26.5 45.9 C26.8 45.2 27.4 43.9 28.6 42.2 C29.1 41.5 30.1 40.9 30.7 39.8 C31 39.2 31.4 38 31.7 36.2 C28.2 36.2 25.7 35.8 24 35.1 z" fill-opacity="0.1459" id="f1" fill="#010101" /></g></g><g transform="translate(105.1, 77.29996) translate(96, 28.5) scale(-1, 1) translate(-96, -28.5) translate(76, 0)" id="g1"><g id="h1"><path d="M10.8 53.5 C6.6 48.1 1.1 33.7 0.8 24.4 C0.5 15.1 3.9 2.8 7.6 0.9 C12.2 -0.6 20.2 6.9 27.1 16.4 C34 25.8 37.5 28.4 38.8 30.9 C40.1 33.4 40 35.2 37.1 39 C36.1 40.3 34.3 41.7 32.1 44.5 C30.6 46.4 28.1 49.2 26.8 51 C22.7 56.9 14.7 58.6 10.8 53.5 z" id="i1" fill="#342520" /><path d="M10.8 53.5 C6.6 48.1 1.1 33.7 0.8 24.4 C0.5 15.1 3.9 2.8 7.6 0.9 C12.2 -0.6 20.2 6.9 27.1 16.4 C34 25.8 37.5 28.4 38.8 30.9 C40.1 33.4 40 35.2 37.1 39 C36.1 40.3 34.3 41.7 32.1 44.5 C30.6 46.4 28.1 49.2 26.8 51 C22.7 56.9 14.7 58.6 10.8 53.5 z M11.1 50.6 C14.6 55.3 21.8 53.7 25.5 48.3 C26.7 46.6 28.9 44 30.3 42.3 C32.3 39.7 33.9 38.4 34.8 37.2 C37.4 33.7 37.5 32 36.3 29.7 C35.1 27.4 32 25 25.8 16.3 C19.6 7.5 12.4 0.6 8.3 2 C5 3.7 1.9 15.1 2.2 23.7 C2.5 32.3 7.4 45.6 11.1 50.6 z" opacity="0.15" id="j1" /><path d="M12 44.1 C9.7 39.8 6.2 33.1 5.6 28.8 C5 24.6 5.3 20.2 5.6 17.4 C5.9 14.5 6.9 8.2 9.3 5.6 C12.4 2.8 18.2 14 22.4 19.8 C25.2 23.7 28.3 27.9 31.5 32.4 C32 36.4 31.4 39.3 29.7 40.9 C27.1 43.3 25.6 49.3 22.4 50.6 C19.3 52 14.4 48.4 12 44.1 z" id="k1" fill="#FFB8B3" /><path d="M24 35.1 C21.5 34.1 16.2 28.2 16.2 32.3 C16.2 34 16.2 37 18.5 41.9 C19.4 43.8 21.2 46.4 24 49.7 C25.2 48.4 26 47.1 26.5 45.9 C26.8 45.2 27.4 43.9 28.6 42.2 C29.1 41.5 30.1 40.9 30.7 39.8 C31 39.2 31.4 38 31.7 36.2 C28.2 36.2 25.7 35.8 24 35.1 z" fill-opacity="0.1459" id="l1" fill="#010101" /></g></g><g transform="translate(104.5, 110.2) translate(25, 0)" id="m1"><path d="M79.4 51 C77.8 37 79 20.9 75.8 15.2 C73.5 11 65.6 1.5 58.8 0.7 C51.9 -0.1 46.6 1.1 40.3 1.1 C34 1.1 28.8 -0.1 21.9 0.7 C15.1 1.5 7.3 11 4.9 15.2 C1.7 20.9 3 37 1.3 51 C0.1 61.5 0 70 2.4 73.7 C11.3 87.6 26.3 89.7 40.3 89.8 C54.3 89.7 69.2 87.6 78.1 73.7 C80.7 70 80.7 61.5 79.4 51 z" id="n1" fill="#7B4C3A" /><path d="M79.4 67.2 C78 66 75.4 69.2 72.6 70 C70 71.2 60.8 76.4 54 76.8 C47.7 77.2 36.2 77.4 27.4 76.3 C16.6 74.9 9.1 70.2 8.2 69.9 C5.4 69.2 2.8 66 1.4 67.1 C1.3 67.2 1.2 67.3 1.1 67.5 C1.2 70.1 1.6 72.3 2.5 73.7 C6.1 79.3 10.4 83.8 15.8 85.4 C17.9 86 23.7 88.9 32.2 89.8 C39.3 90.6 44.3 90.1 50.5 89.3 C53.1 88.9 60.7 87.5 65 85.5 C69.6 83.3 74.7 79.4 78.3 73.8 C79.2 72.4 79.6 70.3 79.7 67.6 C79.7 67.4 79.5 67.3 79.4 67.2 z" id="o1" fill="#342520" /><path d="M79.4 51 C80.7 61.5 80.7 70 78.1 73.7 C69.2 87.6 54.3 89.7 40.3 89.8 C26.3 89.7 11.3 87.6 2.4 73.7 C0 70 0.1 61.5 1.3 51 C3 37 1.7 20.9 4.9 15.2 C7.3 11 15.1 1.5 21.9 0.7 C28.8 -0.1 34 1.1 40.3 1.1 C46.6 1.1 51.9 -0.1 58.8 0.7 C65.6 1.5 73.5 11 75.8 15.2 C79 20.9 77.8 37 79.4 51 z M77.8 49.8 C76.3 36.3 77.5 20.9 74.4 15.4 C72.2 11.4 64.6 2.2 58.1 1.5 C51.4 0.7 46.4 1.9 40.3 1.9 C34.3 1.9 29.3 0.7 22.6 1.5 C16.1 2.2 8.6 11.4 6.3 15.4 C3.2 20.9 4.5 36.3 2.9 49.8 C1.7 59.8 1.6 68 3.9 71.6 C12.5 84.9 26.9 86.9 40.3 87 C53.7 86.9 68 84.9 76.6 71.6 C79.1 68 79.1 59.8 77.8 49.8 z" opacity="0.15" id="p1" /></g><g id="q1"><g transform="translate(96.69999, 77.29996) translate(49, 49)" id="r1"><path d="M4.9 47.3 C3.6 44.4 4 38.4 6.2 35.6 C7.4 34.1 9.4 31.1 12.6 29.9 C15.5 28.7 19.3 29.2 23.6 29.2 C27.7 29.2 29.8 28.7 32.4 29.6 C35.4 30.7 38.4 33.2 39.9 35.6 C42.6 39.9 42.1 45.1 40.5 47.3 C39.8 48.3 37.6 51.5 35.2 51.8 C32.2 52.2 28.5 50.1 24.2 50.1 C20.6 50.1 16.7 51.9 13.2 51.8 C9 51.6 5.6 48.9 4.9 47.3 z" id="s1" fill="#FAF4E7" /><path d="M14.9 29.3 C14.4 29.4 13.9 29.5 13.5 29.7 C10.6 30.9 8.7 33.6 7.6 35 C5.5 37.6 5.2 43.1 6.4 45.8 C7 47.3 10.2 49.8 14 49.9 C17.2 50 20.9 48.4 24.1 48.4 C28.1 48.4 31.5 50.3 34.3 49.9 C36.5 49.6 38.5 46.7 39.1 45.8 C40.5 43.7 41 39 38.5 35 C37.2 32.9 34.4 30.5 31.6 29.5 C31.3 29.4 30.9 29.3 30.6 29.2 C31.2 29.3 31.8 29.4 32.4 29.6 C35.4 30.7 38.4 33.2 39.9 35.6 C42.6 39.9 42.1 45.1 40.5 47.3 C39.8 48.3 37.6 51.5 35.2 51.8 C32.2 52.2 28.5 50.1 24.2 50.1 C20.6 50.1 16.7 51.9 13.2 51.8 C9 51.7 5.6 48.9 4.9 47.3 C3.6 44.4 4 38.4 6.2 35.6 C7.4 34.1 9.4 31.1 12.6 29.9 C13.3 29.6 14.1 29.4 14.9 29.3 z" opacity="0.15" id="t1" /><g opacity="0.4" transform="translate(6, 34)" id="u1"><circle cx="29.5" cy="11.5" r="1" opacity="0.4" id="v1" /><circle cx="24.5" cy="12.5" r="1" opacity="0.4" id="w1" /><circle cx="5.5" cy="11.5" r="1" opacity="0.4" id="x1" /><circle cx="10.5" cy="11.5" r="1" opacity="0.4" id="y1" /><circle cx="4.5" cy="4.5" r="1" opacity="0.4" id="z1" /><circle cx="32.5" cy="7.5" r="1" opacity="0.4" id="a2" /><circle cx="27.5" cy="8.5" r="1" opacity="0.4" id="b2" /><circle cx="6.5" cy="7.5" r="1" opacity="0.4" id="c2" /><circle cx="2.5" cy="8.5" r="1" opacity="0.4" id="d2" /><circle cx="30.5" cy="4.5" r="1" opacity="0.4" id="e2" /></g><path d="M16.9 41.4 C18.5 43.3 19.1 45.2 18.8 47.1 C18.5 49 17.2 50.4 15.1 51.4 C16.4 51.1 17.3 50.8 17.9 50.7 C19 50.4 19.9 50 20.8 49.9 C21.7 49.7 22.6 49.7 23.3 49.7 C24.2 49.7 25 49.8 26.1 50 C26.7 50.1 27.3 50.4 28.4 50.7 C28.9 50.8 29.8 51 31 51.3 C28.9 50.1 27.7 48.7 27.5 47.2 C27.3 45.7 27.9 43.8 29.4 41.4 C26.7 42.9 24.7 43.7 23.4 43.7 C22.1 43.7 19.8 42.9 16.9 41.4 z" opacity="0.15" id="f2" /></g><g transform="translate(169.8, 177.3999) scale(1.6) translate(-169.8, -177.3999) translate(110.5, 91.79996) translate(55, 75)" id="g2"><g id="h2"><path d="M8.3 9.3 C6.7 8.2 5.3 6.6 4.7 4.7 C4.5 4.6 4.4 4.6 4.4 4.6 C4.4 4.6 4.3 4.6 4.1 4.7 C3.6 6.6 1.8 8.2 0.2 9.3 C1.7 9.9 4.4 10 4.4 10 C4.4 10 6.8 10 8.3 9.3 z" id="i2" fill="#CE5253" /><path d="M0.3 9.3 C0.3 9.3 0.5 9.3 0.7 9.4 C0.9 9.4 1.3 9.5 1.7 9.6 C2.5 9.7 3.4 9.9 4.3 9.9 C4.5 9.9 4.7 9.9 5 9.9 C5.2 9.9 5.4 9.9 5.6 9.8 C5.8 9.8 6 9.7 6.2 9.7 C6.4 9.7 6.6 9.6 6.8 9.6 C7.2 9.5 7.5 9.4 7.8 9.4 C8.1 9.3 8.2 9.3 8.2 9.3 C8.2 9.3 8.2 9.4 8 9.7 C7.9 9.9 7.7 10.3 7.4 10.6 C7.1 10.9 6.6 11.3 6.1 11.5 C5.5 11.7 4.9 11.9 4.2 11.8 C2.9 11.8 1.7 11.1 1.1 10.5 C0.8 10.2 0.5 9.9 0.4 9.6 C0.4 9.5 0.3 9.3 0.3 9.3 z" id="j2" fill="#282421" /><path d="M4.5 6.6 C3.9 6.6 3.5 6.2 3.5 5.6 L3.5 1.7 C3.5 1.1 3.9 0.7 4.5 0.7 C5.1 0.7 5.5 1.1 5.5 1.7 L5.5 5.6 C5.5 6.2 5.1 6.6 4.5 6.6 z" id="k2" fill="#282421" /></g></g><g transform="translate(102.8, 74.49997) translate(59, 84)" id="l2"><g id="m2"><path d="M14.8 1.5 C14 0 10.9 2 8 2 C5.1 2 2 0 1.2 1.5 C0.4 3 0.7 6.3 2.4 8.9 C3.6 10.7 8 10.9 8 10.9 C8 10.9 12.4 10.6 13.6 8.9 C15.3 6.3 15.6 3 14.8 1.5 z" id="n2" fill="#282421" /><path d="M9.3 3.5 C8.9 3.8 8.4 4.1 8.4 4.6 C8.4 5 8.8 5.3 9.1 5.4 C9.5 5.5 9.9 5.5 10.2 5.4 C11.1 5.3 12 5.2 12.6 4.7 C13.4 4 13.6 2.8 12.5 2.5 C11.6 2.2 10.1 3 9.3 3.5 z" id="o2" fill="#F5FAFC" /></g></g><g transform="translate(96.69998, 77.29996) translate(41, 42)" id="p2"><path d="M6.1 10.9 C6.7 10.4 7.5 10.8 8.5 12.2 C10 14.3 10.8 18 13.2 19.3 C15.6 20.6 18.9 19.9 20.4 19.3 C21.9 18.7 24.8 14.6 23.7 10.9 C23 8.4 21.3 6.3 18.6 4.5 L19.5 6.7 L15.5 6.1 L16.3 7.4 C12.9 7.8 10.6 8.2 9.4 8.5 C8.3 9 7.2 9.8 6.1 10.9 z" id="q2" fill="#FFF" /><g transform="translate(0, 10)" id="r2"><path d="M21.9 14.6 C21 11.9 19.7 8.3 17.5 6.4 C15.3 4.5 10.7 3.9 9 4.5 C7.7 5 6.1 7.4 4.6 8.5 C4.2 8.9 3.1 8.7 3 9 C2.3 10.8 6.8 15.2 8.3 16 C11.2 17.5 16.3 17.8 20.2 17.1 C21.7 17 21.5 15.8 21.9 14.6 z" id="s2" fill="#342520" /><g transform="translate(11.16316, 7.522936) scale(-1, 1) translate(-11.16316, -7.522936) translate(3.163158, 3.022936)" id="t2"><path d="M-1.1 8.4 C0.1 6.4 2.1 4.5 4.4 4.2 C6.7 3.9 8.9 4 10.7 5.4 C12.5 6.8 12.5 7.5 13.3 8.1 C14 8.8 12.5 10.5 9.7 11.4 C6.9 12.3 4.5 13 1.9 12.5 C-0.8 12.1 -1.2 11.9 -1.6 11.4 C-2 10.9 -2.4 10.5 -1.1 8.4 z" id="u2" fill="#FBFBFB" /><g id="v2"><path d="M5.2 4.1 C6.3 5 7 6.4 7 8 C7 10.1 5.7 12 3.8 12.8 C3.2 12.8 2.6 12.8 2 12.6 C-0.7 12.2 -1.1 12 -1.5 11.5 C-1.9 11 -2.3 10.6 -1.1 8.5 C0.1 6.4 2 4.5 4.4 4.2 C4.6 4.2 4.9 4.1 5.2 4.1 z" id="w2" /></g></g><path d="M11.8 11.3 C12.8 12.4 15.1 10.8 15.1 9.9 C15.1 9 14.1 8.2 12.8 8.2 C11.5 8.2 10.5 9 10.5 9.9 C10.5 10.8 10.9 10.2 11.8 11.3 z" id="x2" fill="#FFFEFE" /></g></g><g transform="translate(96.69998, 77.29996) translate(76, 42)" id="y2"><g transform="translate(0.878947, 0.022936)" id="z2"><path d="M20.1 10.9 C19.5 10.4 18.7 10.8 17.7 12.2 C16.2 14.3 15.4 18 13 19.3 C10.6 20.6 7.3 19.9 5.8 19.3 C4.3 18.7 1.4 14.6 2.5 10.9 C3.2 8.4 4.9 6.3 7.6 4.5 L6.6 6.7 L10.6 6.1 L9.9 7.4 C13.3 7.8 15.6 8.2 16.8 8.5 C17.9 9 19 9.8 20.1 10.9 z" id="a3" fill="#FFF" /><path d="M5.3 21.7 C6.2 19 7.5 17.3 9.7 15.4 C11.9 13.5 16.2 13.3 17.9 13.9 C19.1 14.3 21.1 16.4 22.7 17.4 C23.4 17.8 24.1 17.5 24.3 18.1 C25 19.9 21.7 24.1 20.2 24.9 C19.8 25.1 16.7 25.9 14.9 26.4 C12.7 26.9 10.6 26.4 8.3 26.4 C6.9 26.4 5.7 26.3 4.9 25.8 C4.2 25.2 4.8 22.9 5.3 21.7 z" id="b3" fill="#342520" /><g transform="translate(4, 12)" id="c3"><path d="M3.4 9 C4.7 7 6.2 5.4 8.5 5.1 C10.8 4.8 12.7 5.1 14.2 6 C15.7 6.9 16.5 7.9 17.4 9 C18.3 10.1 16.7 11.3 13.8 12.3 C10.9 13.2 9.1 13.5 6.5 13.5 C3.9 13.5 2.6 13 2.2 12.3 C1.9 11.6 2.1 11.1 3.4 9 z" id="d3" fill="#FBFBFB" /><path d="M10 4.9 C11.6 4.9 13 5.3 14.1 5.9 C15.7 6.8 16.4 7.8 17.3 8.9 C18.2 10 16.7 11.3 13.7 12.3 C12.4 12.7 11.3 13 10.1 13.2 C9 12.4 8 10.8 8 8.9 C8 7.3 8.8 5.8 10 4.9 z" id="e3" /></g><path d="M11.7 21.5 C12.7 22.7 15 20.9 15 19.9 C15 18.9 13.9 18 12.5 18 C11.1 18 10 18.8 10 19.9 C10 21 10.6 20.4 11.7 21.5 z" id="f3" fill="#FFFEFE" /></g></g></g></g></g></g><defs><g transform="translate(17.09519, 0.800995) translate(-135.2952, -293.601)" id="g3" fill="#000"><path d="M118.2 302.7 C118.4 307.4 132.5 311.2 149.8 311.2 C167.1 311.2 181.2 307.4 181.4 302.7 C181.4 307.5 181.4 310.1 181.4 310.5 C181.4 315.3 167.3 319.1 149.8 319.1 C132.3 319.1 118.2 315.2 118.2 310.5 L118.2 302.7 L118.2 302.7 z" fill-opacity="0.4528" id="h3" fill="#593001" /><path d="M118.7 301.7 C118.9 306.4 133 310.2 150.3 310.2 C167.6 310.2 181.7 306.4 181.9 301.7 C181.9 306.5 181.9 309.1 181.9 309.5 C181.9 314.3 167.8 318.1 150.3 318.1 C132.8 318.1 118.7 314.2 118.7 309.5 L118.7 301.7 L118.7 301.7 z" id="i3" fill="#DA8113" /><linearGradient x1="46.0545" y1="-118.6926" x2="45.4656" y2="-118.6926" gradientUnits="userSpaceOnUse" gradientTransform="matrix(117.135, 0, 0, 28.4634, -5208.417, 3687.795)" id="j3"><stop offset="0%" stop-color="#D9952A" stop-opacity="1" /><stop offset="6.438854%" stop-color="#CA7519" stop-opacity="1" /><stop offset="30.54%" stop-color="#E3AD3A" stop-opacity="1" /><stop offset="51.05%" stop-color="#FFEC91" stop-opacity="1" /><stop offset="68.8%" stop-color="#E9BD44" stop-opacity="1" /><stop offset="86.24%" stop-color="#FFED6C" stop-opacity="1" /><stop offset="93.87%" stop-color="#F2D353" stop-opacity="1" /><stop offset="100%" stop-color="#F2B947" stop-opacity="1" /></linearGradient><path d="M118.2 301.6 C118.4 306.1 132.7 309.7 150.3 309.7 C167.9 309.7 182.2 306.1 182.4 301.6 C182.4 306.2 182.4 308.7 182.4 309 C182.4 313.5 168 317.2 150.3 317.2 C132.6 317.2 118.2 313.5 118.2 309 L118.2 301.6 L118.2 301.6 z" id="k3" style="fill:url(#j3)" /><linearGradient x1="45.4914" y1="-117.9547" x2="45.9407" y2="-117.5895" gradientUnits="userSpaceOnUse" gradientTransform="matrix(115.425, 0, 0, 29.925, -5125.077, 3826.124)" id="l3"><stop offset="0%" stop-color="#F4E072" stop-opacity="1" /><stop offset="100%" stop-color="#DB9427" stop-opacity="1" /></linearGradient><ellipse cx="150.3" cy="301.5" rx="31.6" ry="8.2" id="m3" style="fill:url(#l3)" /><linearGradient x1="45.4656" y1="-126.0065" x2="46.0545" y2="-126.0065" gradientUnits="userSpaceOnUse" gradientTransform="matrix(117.135, 0, 0, 18.6219, -5208.417, 2651.479)" id="n3"><stop offset="0%" stop-color="#D9952A" stop-opacity="1" /><stop offset="6.438854%" stop-color="#CA7519" stop-opacity="1" /><stop offset="30.54%" stop-color="#E3AD3A" stop-opacity="1" /><stop offset="51.05%" stop-color="#FFEC91" stop-opacity="1" /><stop offset="68.8%" stop-color="#E9BD44" stop-opacity="1" /><stop offset="86.24%" stop-color="#FFED6C" stop-opacity="1" /><stop offset="93.87%" stop-color="#F2D353" stop-opacity="1" /><stop offset="100%" stop-color="#F2B947" stop-opacity="1" /></linearGradient><path d="M119.2 299.9 C119 300.2 118.9 300.6 118.9 301 C118.9 305.5 132.9 309.2 150.3 309.2 C167.7 309.2 181.7 305.5 181.7 301 C181.7 300.6 181.6 300.3 181.4 299.9 C182 300.5 182.4 301.2 182.4 301.9 C182.4 306.4 168 310.1 150.3 310.1 C132.6 310.1 118.2 306.4 118.2 301.9 C118.2 301.3 118.6 300.6 119.2 299.9 z" id="o3" style="fill:url(#n3)" /><linearGradient x1="45.196" y1="-121.5895" x2="45.3746" y2="-120.6758" gradientUnits="userSpaceOnUse" gradientTransform="matrix(101.745, 0, 0, 23.94, -4458.332, 3199.41)" id="p3"><stop offset="0%" stop-color="#F8DD61" stop-opacity="1" /><stop offset="100%" stop-color="#EAA330" stop-opacity="1" /></linearGradient><ellipse cx="150.3" cy="300.8" rx="27.8" ry="6.6" id="q3" style="fill:url(#p3)" /><linearGradient x1="45.5694" y1="-134.267" x2="45.0221" y2="-134.267" gradientUnits="userSpaceOnUse" gradientTransform="matrix(101.745, 0, 0, 13.2525, -4458.332, 2077.223)" id="r3"><stop offset="0%" stop-color="#F4CA2F" stop-opacity="1" /><stop offset="51.38%" stop-color="#BF7737" stop-opacity="1" /><stop offset="100%" stop-color="#E4A929" stop-opacity="1" /></linearGradient><path d="M122.6 301.5 C122.5 301.3 122.4 301 122.4 300.8 C122.4 297.2 134.9 294.2 150.2 294.2 C165.5 294.2 178 297.1 178 300.8 C178 301 177.9 301.3 177.8 301.5 C176.3 298.2 164.5 295.6 150.1 295.6 C135.7 295.6 124.1 298.2 122.6 301.5 z" id="s3" style="fill:url(#r3)" /></g></defs><desc>EG47HOEKJEB,Dsw4JIb9GfYyYK3TXI3z3lADI8VuIktnm5nwOMZ5t9hXYNilN6YTpnT1/InF1PuGrrGGfPgfKTPEJLa80aMJcdo1ZlWSDvu5AhBjJ+H3nDs=</desc></svg>