<?xml version="1.0" encoding="utf-8"?><!DOCTYPE svg PUBLIC "-//W3C//DTD SVG 1.1//EN" "http://www.w3.org/Graphics/SVG/1.1/DTD/svg11.dtd"><svg x="0" y="0" width="340px" height="340px" viewBox="0, 0, 340, 340" preserveAspectRatio="xMidYMid" font-size="0" id="a" enable-background="new 0 0 340 340" xmlns="http://www.w3.org/2000/svg" xmlns:xlink="http://www.w3.org/1999/xlink" xmlns:xml="http://www.w3.org/XML/1998/namespace" version="1.1"><g id="b" fill="#000"><g id="c"><g transform="translate(0, 0) translate(0, 224)" id="d"><ellipse cx="168.6" cy="53.1" rx="57.8" ry="12.8" fill-opacity="0.25" id="e" /></g><g id="f"><g transform="translate(86.5, 76.59998) translate(24.5, 168.5) scale(-1, 1) translate(-24.5, -168.5) translate(0, 143)" id="g"><g id="h"><path d="M8.8 28.9 C11.9 29.7 12.9 31.3 15.9 30.5 C18.9 29.7 21.1 28.7 22.7 27.5 C23.5 26.9 24.4 26.3 26.1 24.5 C26.4 24.1 27.1 23.3 28 22 C28.1 22.8 28.2 23.3 28.2 23.7 C28.2 24.8 28 25.5 28 25.6 C28 25.8 31.3 21.4 32 16.6 C32.4 13.4 32.5 7.9 32.3 0 C35.8 3.2 38.2 5.9 39.3 7.9 C41 10.9 43.8 15.3 44.8 19.9 C45.4 23 45.8 25.8 45.8 28.4 C46.4 28.1 46.8 27.9 47 27.7 C47.2 27.5 47.5 27.1 48.1 26.4 C47.8 28.8 47.6 30.4 47.4 31.1 C46.5 35 45.5 36.2 44.8 37.2 C43.4 39.2 39.5 44.7 35.4 45.9 C32.7 46.7 28.6 47.1 23.3 47.1 L26.3 49.9 C16.6 48.9 10 46.7 6.6 43.5 C3.7 40.8 0.2 36.7 1.2 33 C2.2 28.9 5.7 28.1 8.8 28.9 z" id="i" fill="#665F57" /><path d="M33.7 23.1 C35.3 26 34.7 26.7 34.4 28.8 C36.7 27.6 38.1 25.7 39.1 24.7 C40.1 27.6 40.1 31.7 39.1 34.8 C39.6 34.4 40.8 34.5 41.9 33.5 C43 32.5 43.5 31.6 44 29.9 C45.9 31.4 45.1 35.3 45.1 35.7 C45.9 35.4 46.6 35.1 47.1 34.9 C46.6 35.8 46.2 36.4 45.8 36.9 C44.3 39 40.3 44.7 36 46 C33.1 46.8 29.8 47.6 24.2 47.6 L27.5 50.2 C17.4 49.1 9.5 46.9 5.9 43.5 C2.9 40.7 -0.8 36.4 0.2 32.6 C1.3 28.3 0.9 26.1 4.1 26.9 C7.3 27.7 10.2 29.5 14.7 29 C19.2 28.5 21 28.1 22.6 26.9 C23.4 26.3 24.4 25.7 26.1 23.8 C26.4 23.4 27.1 22.5 28.1 21.2 C28.2 22 28.3 22.6 28.3 22.9 C28.3 24.1 28.1 24.8 28.1 24.9 C28.1 24.9 29.4 24.9 30.1 23.8 C30.8 22.7 31.1 25.9 31.5 25.7 C32.3 25.1 33.3 23.4 33.7 23.1 z" id="j" fill="#776F64" /><path d="M28.2 24.6 C28.2 24.7 28.2 24.8 28.2 24.9 C28.3 24.9 28.4 24.9 28.7 24.8 C29.7 23.4 31.6 20.1 32.1 16.6 C32.5 13.4 32.6 7.9 32.4 0 C35.9 3.2 38.3 5.9 39.4 7.9 C41.1 10.9 43.9 15.3 44.9 19.9 C45.5 23 45.9 25.8 45.9 28.4 C46.5 28.1 46.9 27.9 47.1 27.7 C47.3 27.5 47.6 27.1 48.2 26.4 C47.9 28.8 47.7 30.4 47.5 31.1 C47 33.1 46.5 34.4 46.1 35.4 C46.5 35.2 46.9 35.1 47.2 34.9 C46.7 35.8 46.3 36.4 45.9 36.9 C44.3 39 40.3 44.7 36 46 C33.1 46.8 29.8 47.6 24.2 47.6 L27.5 50.2 C17.4 49.1 9.5 46.9 5.9 43.5 C2.9 40.7 -0.8 36.4 0.2 32.6 C1.3 28.3 0.9 26.1 4.1 26.9 C7.3 27.7 10.2 29.5 14.7 29 C19.2 28.5 21 28.1 22.6 26.9 C23.4 26.3 24.4 25.7 26.1 23.8 C26.4 23.4 27.1 22.5 28.1 21.2 C28.2 22 28.3 22.6 28.3 22.9 C28.3 23.7 28.2 24.2 28.2 24.6 z M27.5 27.1 C27.6 24.9 27.6 23.6 27.5 23.1 C26.7 24.3 25.7 25.5 25.4 25.8 C24 27.5 21.4 29.2 17.7 29.6 C14 30 9.3 30.6 6.7 29.9 C4.1 29.2 3.7 30.4 2.8 34.3 C2 37.7 6.2 42.1 10.4 43.9 C14.3 45.5 14.3 47.1 22.6 48.1 L21.4 45.3 C26.2 46.4 32.5 45.5 34.9 44.8 C38.5 43.6 44.3 37.6 43.9 37.8 C44 37.5 46.7 36 45.4 36 C44.1 36 45.6 33.8 45.8 32.7 C46 32.1 46.6 31.3 46.8 29.1 C46.3 29.7 44.8 30 44.3 30.3 C44.3 28 44.4 23 43.9 20.2 C43 16 41.6 13.7 40.2 11 C39.3 9.2 36.2 4.9 33.3 2 C33.5 9.1 33.5 14.5 33.2 17.4 C33 18.8 32.2 21.6 30.7 23.8 C28.9 26.3 26.5 28 27.5 27.1 z" opacity="0.15" id="k" /></g></g><g transform="translate(127.58, 273.6799) scale(1.141791) translate(-127.58, -273.6799) translate(128.7, 274.7999) scale(0.7) translate(-124.7, -274.7999) translate(92.00001, 74.29996) translate(20, 136)" id="l"><path d="M50.8 23.7 C50.8 21.1 45 17.3 43.1 14.9 C40.9 12.1 42.4 10.8 38.7 8.5 C29 2.5 15.7 -0.9 9.6 1.7 C8.4 2.3 7.1 3.1 6 4.1 C3.5 6.3 1.1 11.7 0.7 14.8 C0.5 16.3 3.5 12 3.5 13.6 C3.6 15.4 1.8 22.9 2.2 24.5 C2.4 25.7 3.2 23.4 3.5 24.5 C3.6 24.7 4.3 23.4 4.4 23.7 C4.8 25.4 4.3 27.8 4.7 30.7 C5.1 33.6 5.7 35.6 6 36 C6.4 36.6 6.3 34.6 7.6 34.5 C7.8 34.8 7.5 35.5 7.6 36.5 C7.9 38.7 8.4 41.2 8.8 41.9 C9.2 42.6 12.2 48.4 12.6 49.1 C13.3 50.4 13.3 45.9 14.1 47.3 C14.8 48.6 14.1 50 14.8 51.5 C10.6 53 6.5 53.6 4.7 55.8 C3.1 57.9 3.2 60.6 3.2 62.2 C3.2 63.9 3.3 63.2 4.4 64.1 C4.6 64.2 4.3 64.1 5.5 64.1 C6.1 64.1 5.7 65 6.6 65 C7.9 65 6.9 65.7 8.6 65.6 C9.4 65.6 14 65.6 14.9 65.6 C25 65.1 40.5 63.5 41.4 61.8 C43.3 56.8 37.8 55 43.4 46.5 C44.6 44.6 44.8 37.3 46.2 39.7 C47.6 42.1 46.3 35.3 47.3 33.8 C48.2 32.6 50.6 34 51 32.1 C51.2 30.7 50.8 25.4 50.8 23.7 z" id="m" fill="#665F57" /><path d="M50.8 23.7 C50.8 25.4 51.2 30.7 51 32.1 C50.6 34 48.2 32.6 47.3 33.8 C46.3 35.3 47.6 42.1 46.2 39.7 C44.8 37.3 44.6 44.6 43.4 46.5 C37.8 55 43.3 56.8 41.4 61.8 C40.5 63.5 25 65.1 14.9 65.6 C14 65.6 9.4 65.6 8.6 65.6 C6.9 65.7 7.9 65 6.6 65 C5.7 65 6.1 64.1 5.5 64.1 C4.3 64.1 4.6 64.2 4.4 64.1 C3.3 63.2 3.2 63.9 3.2 62.2 C3.2 60.6 3.1 57.9 4.7 55.8 C6.5 53.6 10.6 53 14.8 51.5 C14.1 50 14.8 48.6 14.1 47.3 C13.3 45.9 13.3 50.4 12.6 49.1 C12.2 48.4 9.2 42.6 8.8 41.9 C8.4 41.2 7.9 38.7 7.6 36.5 C7.5 35.5 7.8 34.8 7.6 34.5 C6.3 34.6 6.4 36.6 6 36 C5.7 35.6 5.1 33.6 4.7 30.7 C4.3 27.8 4.8 25.4 4.4 23.7 C4.3 23.4 3.6 24.7 3.5 24.5 C3.2 23.4 2.4 25.7 2.2 24.5 C1.8 22.9 3.6 15.4 3.5 13.6 C3.5 12 0.5 16.3 0.7 14.8 C1.1 11.7 3.5 6.3 6 4.1 C7.1 3.1 8.4 2.3 9.6 1.7 C15.7 -0.9 29 2.5 38.7 8.5 C42.4 10.8 40.9 12.1 43.1 14.9 C45 17.3 50.8 21.1 50.8 23.7 z M49.2 23.3 C49.2 20.9 43.8 17.3 42 15.1 C39.9 12.5 41.3 11.3 37.9 9.1 C28.8 3.5 20.3 1.2 13.6 1.7 C12.2 1.7 8.3 2.7 7.3 3.6 C5 5.7 2.3 9.4 2 12.3 C1.8 13.7 4.7 10.5 4.7 11.9 C4.8 13.6 2.4 20.8 2.7 22.2 C2.9 23.3 4.7 21 4.9 22 C5 22.2 5.3 25.7 5.6 28.4 C5.9 31.1 6 33.3 6.3 33.7 C6.7 34.3 7.5 31.2 8.7 31.1 C8.9 31.4 8.6 34.3 8.7 35.2 C9 37.3 9.4 39.6 9.8 40.3 C10.2 41 12.2 45.4 12.5 46.1 C13.2 47.3 13.5 42.6 14.2 43.9 C14.9 45.1 16 51.2 16.6 52.7 C12.7 54.1 8.3 54.2 6.7 56.2 C5.2 58.2 4.5 57.8 4.5 59.3 C4.5 60.9 4.6 60.2 5.6 61.1 C5.8 61.2 5.5 61.1 6.6 61.1 C7.2 61.1 6.8 61.9 7.6 61.9 C8.8 61.9 7.9 62.6 9.5 62.5 C10.2 62.5 14.6 62.5 15.4 62.5 C24.8 62 39.3 60.5 40.2 58.9 C42 54.2 36.8 52.5 42.1 44.6 C43.2 42.8 43.4 36 44.7 38.2 C46 40.4 44.8 34.1 45.7 32.7 C46.5 31.6 48.8 32.9 49.2 31.1 C49.6 29.9 49.2 24.9 49.2 23.3 z" opacity="0.15" id="n" /></g><g transform="translate(210.9199, 273.7799) scale(1.141791) translate(-210.9199, -273.7799) translate(209.8, 274.9) scale(0.7) translate(-213.8, -274.9) translate(92.8, 74.39996) translate(107.5, 169) scale(-1, 1) translate(-107.5, -169) translate(82, 136)" id="o"><path d="M50.2 23.7 C50.2 21.1 44.4 17.3 42.5 14.9 C40.3 12.1 41.8 10.8 38.1 8.5 C28.3 2.5 15 -0.8 8.9 1.8 C7.7 2.4 6.4 3.2 5.3 4.2 C3.9 5.4 1 8.7 0.3 10.3 C-0.3 11.6 2.9 9.8 2.7 11.2 C2.6 11.8 0.5 13.5 1.1 19.9 C1.4 23.1 2.5 26.1 2.7 26.7 C2.8 26.9 3.5 23.4 3.6 23.7 C4 25.4 3.5 30.2 3.9 31.3 C3.9 33.3 4.6 35.1 5.7 38.3 C6.1 38.9 8.2 36 9.5 36 C9.7 36.4 9.1 37.3 8.9 38.3 C8.7 39.5 8.9 41 8.9 42.4 C8.9 44.4 11.4 48.5 11.8 49.1 C12.5 50.4 12.5 45.9 13.3 47.3 C14 48.6 13.3 50 14 51.5 C9.8 53 5.7 53.6 3.9 55.8 C2.3 57.9 2.4 60.6 2.4 62.2 C2.4 63.9 2.5 63.2 3.6 64.1 C3.8 64.2 3.5 64.1 4.7 64.1 C5.3 64.1 4.9 65 5.8 65 C7.1 65 6.1 65.7 7.8 65.6 C8.6 65.6 13.2 65.6 14.1 65.6 C24.2 65.1 39.7 63.5 40.6 61.8 C42.5 56.8 37 55 42.6 46.5 C43.8 44.6 44 37.3 45.4 39.7 C46.8 42.1 45.5 35.3 46.5 33.8 C47.4 32.6 49.8 34 50.2 32.1 C50.5 30.7 50.2 25.4 50.2 23.7 z" id="p" fill="#665F57" /><path d="M50.2 23.7 C50.2 25.4 50.5 30.7 50.2 32.1 C49.8 34 47.4 32.6 46.5 33.8 C45.5 35.3 46.8 42.1 45.4 39.7 C44 37.3 43.8 44.6 42.6 46.5 C37 55 42.5 56.8 40.6 61.8 C39.7 63.5 24.2 65.1 14.1 65.6 C13.2 65.6 8.6 65.6 7.8 65.6 C6.1 65.7 7.1 65 5.8 65 C4.9 65 5.3 64.1 4.7 64.1 C3.5 64.1 3.8 64.2 3.6 64.1 C2.5 63.2 2.4 63.9 2.4 62.2 C2.4 60.6 2.3 57.9 3.9 55.8 C5.7 53.6 9.8 53 14 51.5 C13.3 50 14 48.6 13.3 47.3 C12.5 45.9 12.5 50.4 11.8 49.1 C11.4 48.5 8.9 44.4 8.9 42.4 C8.9 41 8.7 39.5 8.9 38.3 C9.1 37.3 9.7 36.4 9.5 36 C8.2 36 6.1 38.9 5.7 38.3 C4.6 35.1 3.9 33.3 3.9 31.3 C3.5 30.2 4 25.4 3.6 23.7 C3.5 23.4 2.8 26.9 2.7 26.7 C2.5 26.1 1.4 23.1 1.1 19.9 C0.5 13.5 2.6 11.8 2.7 11.2 C2.9 9.8 -0.3 11.6 0.3 10.3 C1 8.7 3.9 5.4 5.3 4.2 C6.4 3.2 7.7 2.4 8.9 1.8 C15 -0.8 28.3 2.5 38.1 8.5 C41.8 10.8 40.3 12.1 42.5 14.9 C44.4 17.3 50.2 21.1 50.2 23.7 z M48.6 23.3 C48.6 20.9 43.2 17.3 41.4 15.1 C39.3 12.5 40.7 11.3 37.3 9.1 C28.1 3.5 16.3 -0.4 10.5 2.1 C9.4 2.6 7.8 3.3 6.8 4.3 C5.5 5.4 2.3 7.8 1.7 9.3 C1.1 10.5 4.4 8 4.2 9.3 C4.1 9.9 1.3 11.3 1.8 17.3 C2.1 20.3 2.3 23.6 2.5 24.1 C2.6 24.3 4.9 21 4.9 21.3 C5.3 22.9 4.5 29.9 4.9 31 C4.9 32.9 5.5 32.8 6.6 35.8 C6.9 36.3 8.3 34.2 9.6 33.8 C9.8 33.7 10.2 36.1 10 37 C9.8 38.1 10 39.5 10 40.8 C10 42.7 11.6 45.8 12 46.3 C12.7 47.5 13.4 44.1 14.2 45.4 C14.9 46.6 15.2 51.3 15.9 52.7 C12 54.1 7.6 54 5.9 56.1 C4.4 58.1 4 57.9 4 59.4 C4 61 4.1 60.3 5.1 61.2 C5.3 61.3 5 61.2 6.1 61.2 C6.7 61.2 6.3 62 7.1 62 C8.3 62 7.4 62.7 9 62.6 C9.7 62.6 14.1 62.6 14.9 62.6 C24.4 62.1 38.9 60.6 39.7 59 C41.5 54.3 36.3 52.6 41.6 44.7 C42.7 42.9 42.9 36.1 44.2 38.3 C45.5 40.5 44.3 34.2 45.2 32.8 C46 31.7 48.3 33 48.7 31.2 C48.9 29.9 48.6 24.9 48.6 23.3 z" opacity="0.15" id="q" /></g><g transform="translate(96.90001, 90.79997) translate(24, 65)" id="r"><g transform="translate(4, 0)" id="s"><path d="M71 19.7 C73.2 28.5 78.4 30.1 83 37.6 C89.4 45.5 87.3 61.5 83.3 73 C82 76.7 78.7 86.3 76.6 97.4 C74.6 108.4 76.2 117.3 72.2 120.7 C70.8 122.2 64.9 123.5 55.5 123.5 C52.1 123.5 51 122.5 44.7 122.5 C38.4 122.5 36.3 123.6 33.3 123.5 C24.6 123.1 21 123.2 18.1 120.7 C13.8 116.2 15.5 106.2 12.9 95.6 C10.6 86.1 6.5 78.3 5.5 74 C3.5 64.9 0.2 50.2 6.3 39.2 C9.2 32.9 15.3 26.1 16.9 17.6 C18.6 8.1 34.9 5 43.7 4.4 C55 3.6 68.6 10.1 71 19.7 z" id="t" fill="#776F64" /><path d="M84.2 39.3 C71.9 51.2 58.6 57.1 44.5 57.1 C30.5 57.1 17.9 51 6.6 38.7 C9.6 32.5 15.4 25.9 17 17.6 C18.6 8.1 34.9 5 43.7 4.4 C55 3.6 68.6 10.1 71 19.7 C73.2 28.5 78.4 30.1 83 37.6 C83.4 38.1 83.8 38.7 84.2 39.3 z" id="u" fill="#665F57" /><path d="M71 19.7 C73.2 28.5 78.4 30.1 83 37.6 C89.4 45.5 87.3 61.5 83.3 73 C82 76.7 78.7 86.3 76.6 97.4 C74.6 108.4 76.2 117.3 72.2 120.7 C70.8 122.2 64.9 123.5 55.5 123.5 C52.1 123.5 51 122.5 44.7 122.5 C38.4 122.5 36.3 123.6 33.3 123.5 C24.6 123.1 21 123.2 18.1 120.7 C13.8 116.2 15.5 106.2 12.9 95.6 C10.6 86.1 6.5 78.3 5.5 74 C3.5 64.9 0.2 50.2 6.3 39.2 C9.2 32.9 15.3 26.1 16.9 17.6 C18.6 8.1 34.9 5 43.7 4.4 C55 3.6 68.6 10.1 71 19.7 z M69.6 20.3 C67.4 11 54.5 4.8 43.8 5.5 C35.4 6.1 20 9.1 18.4 18.3 C16.9 26.5 11.1 33 8.4 39.1 C2.6 49.7 5.7 63.8 7.6 72.6 C8.5 76.7 12.4 84.3 14.6 93.4 C17.1 103.6 15.5 113.3 19.5 117.6 C22.2 120 25.7 119.9 33.9 120.3 C36.7 120.4 38.7 119.3 44.7 119.3 C50.7 119.3 51.7 120.3 54.9 120.3 C63.8 120.3 69.4 119 70.7 117.6 C74.5 114.3 73 105.7 74.9 95.1 C76.9 84.4 80 75.1 81.2 71.6 C85 60.5 87 45.1 80.9 37.5 C76.6 30.3 71.7 28.8 69.6 20.3 z" opacity="0.15" id="v" /></g></g><g fill-rule="evenOdd" transform="translate(126.586, 178.85) scale(1.07, 0.8405449) translate(-129.4, -176.8) translate(102.6, 90.59997) translate(67, 148) scale(-1, 1) translate(-67, -148) translate(27, 86)" id="w"><g id="x"><path d="M4.2 48.6 C1.9 35.9 3.3 31.3 7.6 21.8 C17.6 33.1 28.5 36.5 40.5 38.4 C50 37 61.7 33.9 72.4 21.8 C76.7 31.3 78.1 35.9 75.8 48.6 C71.9 70.1 71.8 67 68.8 80.9 C68.1 84 66.7 88.9 65.5 94.1 C64.1 100.2 51.8 95.1 52.8 79.4 C53.1 74.8 53.2 71 52.9 69 C52.1 62.5 47.9 60.6 39.8 56.8 C31.8 60.6 27.6 62.5 26.7 69 C26.4 71 26.5 74.8 26.8 79.4 C27.8 95.1 15.5 100.2 14.1 94.1 C12.9 88.9 11.5 84 10.8 80.9 C8.2 67.1 8 70.1 4.2 48.6 z" id="y" fill="#F2E5D3" /><path d="M16.1 111.4 C16.7 107.8 16.1 103.2 15.3 98.5 C15 97 14.7 95.6 14.4 94.1 C14.4 94 14.4 94 14.4 93.9 C14.4 91.2 15 88.4 16 85.9 C16.2 85.5 16.7 85.3 17.1 85.5 C17.8 85.8 19.2 86.6 19.9 85.7 C20.7 84.8 21.6 79.4 22.2 76.1 C22.3 75.5 22.9 75.3 23.4 75.6 C24.3 76.2 26.4 76.8 26.9 78.2 C28.5 86.7 33.3 93.3 32.9 101.2 C32 100.2 31.4 99.1 30.4 98.2 C31.4 101.1 31.9 104.3 33 107.2 C31.8 107.2 30.3 106.3 29.3 104.3 C29.3 104.6 29.4 104.9 29.4 105.3 C30.5 108.9 31.7 111.2 31.1 115.1 C30.9 114.9 30.7 114.8 30.5 114.6 C30.9 118.6 31.2 121.2 31.1 121.4 C29.4 124.7 12.6 123.2 10.6 121.5 C10.9 117.7 11.2 114.5 16.1 111.4 z" id="z" fill="#9B8C78" /><path d="M50.6 104.4 C49.6 106.3 48.1 107.3 46.9 107.3 C48 104.5 48.5 101.2 49.5 98.3 C48.5 99.2 47.9 100.3 47 101.3 C46.6 93.4 51.4 86.8 53 78.4 C53.5 76.9 55.6 76.3 56.5 75.7 C57 75.4 57.6 75.7 57.7 76.2 C58.4 79.5 59.3 84.9 60 85.8 C60.7 86.7 62.2 85.9 62.8 85.6 C63.2 85.4 63.7 85.6 63.9 86 C64.9 88.6 65.4 91.3 65.5 94 C65.5 94.1 65.5 94.1 65.5 94.2 C65.2 95.7 64.9 97.1 64.6 98.6 C63.7 103.3 63.2 107.9 63.8 111.5 C68.7 114.6 69 117.8 69.2 121.9 C67.2 123.5 50.4 125 48.7 121.8 C48.6 121.5 48.9 118.9 49.3 115 C49.1 115.2 48.9 115.3 48.7 115.5 C48 111.6 49.3 109.3 50.4 105.7 C50.5 105.1 50.5 104.8 50.6 104.4 z" id="a1" fill="#9B8C78" /><path d="M14.1 94.1 C12.9 88.9 11.5 84 10.8 80.9 C8.2 67.1 8 70.1 4.2 48.6 C1.9 35.9 3.3 31.3 7.6 21.8 C17.6 33.1 28.5 36.5 40.5 38.4 C50 37 61.7 33.9 72.4 21.8 C76.7 31.3 78.1 35.9 75.8 48.6 C71.9 70.1 71.8 67 68.8 80.9 C68.1 84 66.7 88.9 65.5 94.1 C65.2 95.7 64.9 97.1 64.6 98.6 C63.7 103.3 63.2 107.9 63.8 111.5 C68.7 114.6 69 117.8 69.2 121.9 C67.2 123.5 50.4 125 48.7 121.8 C48.6 121.5 48.9 118.9 49.3 115 C49.1 115.2 48.9 115.3 48.7 115.5 C48 111.6 49.3 109.3 50.4 105.7 C50.5 105.1 50.5 104.8 50.6 104.4 C49.6 106.3 48.1 107.3 46.9 107.3 C48 104.5 48.5 101.2 49.5 98.3 C48.5 99.2 47.9 100.3 47 101.3 C46.6 93.7 51 87.3 52.8 79.4 C53.1 74.8 53.2 71 52.9 69 C52.1 62.5 47.9 60.6 39.8 56.8 C31.8 60.6 27.6 62.5 26.7 69 C26.4 70.8 26.5 73.9 26.7 77.8 C26.8 77.9 26.8 78.1 26.9 78.2 C28.5 86.7 33.3 93.3 32.9 101.2 C32 100.2 31.4 99.1 30.4 98.2 C31.4 101.1 31.9 104.3 33 107.2 C31.8 107.2 30.3 106.3 29.3 104.3 C29.3 104.6 29.4 104.9 29.4 105.3 C30.5 108.9 31.7 111.2 31.1 115.1 C30.9 114.9 30.7 114.8 30.5 114.6 C30.9 118.6 31.2 121.2 31.1 121.4 C29.4 124.7 12.6 123.2 10.6 121.5 C10.9 117.7 11.2 114.5 16.1 111.4 C16.7 107.8 16.1 103.2 15.3 98.5 C15.1 97.4 14.9 96.4 14.7 95.4 C14.4 95 14.2 94.6 14.1 94.1 z M15.9 92.6 C16 93.1 16.2 93.5 16.5 93.8 C16.7 94.8 16.8 95.7 17 96.7 C17.8 101 17.6 109.1 17 112.5 C12.5 115.4 13.1 115.4 12.8 119 C14.7 120.6 27.9 121.5 29.5 118.4 C29.6 118.2 29.5 116.7 29.1 112.9 C29.3 113.1 30.3 113.2 30.5 113.4 C31 109.8 28.8 106.3 27.8 103 C27.8 102.6 29.1 102.4 29.1 102.2 C30.1 104 30.4 105.4 31.5 105.4 C30.4 102.7 30.1 99.2 29.1 96.5 C30.1 97.3 30.5 97.2 31.4 98.1 C31.8 90.8 27.8 87.5 26.3 79.7 C25.2 72.1 24.7 67.8 24.9 66.7 C25.7 60.7 33.1 57.4 40.5 53.9 C48.1 57.4 53.5 62.5 54.2 68.5 C54.5 70.4 54.2 76.8 53.9 81.1 C52.3 88.5 48.1 90.5 48.5 97.6 C49.3 96.6 50.2 97.3 51.1 96.5 C50.2 99.2 49.4 102.4 48.3 105 C49.5 105 50.7 103.3 51.6 101.6 C51.5 101.9 51.5 104.9 51.4 105.4 C50.4 108.8 48.9 109.5 49.5 113.1 C49.7 112.9 50.5 113.6 50.7 113.4 C50.3 117 50.2 119.6 50.3 119.9 C51.9 122.8 64.8 121.2 66.6 119.7 C66.5 115.9 66.6 115.5 62 112.6 C61.5 109.3 62.3 103.9 63.1 99.5 C63.4 98.1 64.3 93.5 64.5 92 C65.7 87.2 66.1 83.2 66.8 80.3 C69.6 67.4 69.6 70.3 73.3 50.3 C75.4 38.5 76.3 33 72.3 24.2 C62.3 35.4 49.3 39.5 40.5 40.8 C29.3 39.1 17.3 34.7 8 24.2 C4 33 4.6 38.5 6.7 50.3 C10.3 70.3 10.4 67.5 12.9 80.3 C13.5 83.2 14.8 87.8 15.9 92.6 z" opacity="0.15" id="b1" /><path d="M2.4 21.6 C3.5 17.3 6.2 13.6 8.9 9.2 C13.9 1.1 34.4 0.4 40 0.4 C45.6 0.4 66.1 1.1 71.1 9.2 C73.8 13.6 76.5 17.3 77.6 21.6 C80.2 28.1 80 35.8 76.9 42.1 C76.2 40.2 75.5 38.3 74.9 36.4 C74.7 36.7 74.5 37 74.3 37.4 C73.7 39.8 72.4 42 71.2 44.2 C69.9 46.6 68.6 49.2 68.7 51.9 C67.9 49.3 67.3 49.4 66.5 46.8 C64.5 54.7 60.5 57.5 57.6 64.1 C57 60.6 56.9 60.3 56.4 57.3 C56.1 57.6 55.9 57.8 55.6 58.1 C53.5 63.5 51.7 67.1 46.9 72.6 C47 71.1 46.7 69.5 46.4 68 C42.8 72.1 40.3 75.6 40.1 77.9 C39.8 75.8 37.6 72.6 34.5 68.8 C34.4 70 34.4 71.2 34.5 72.4 C29.7 66.9 26.8 63.4 24.6 58.1 C24.3 57.8 24 57.5 23.8 57.2 C23.2 60.5 22.9 62.8 22.3 66.3 C19.4 59.7 15.8 54.6 13.8 46.7 C13 49.3 12.4 49.2 11.6 51.8 C11.7 49.1 10.4 46.5 9.1 44.1 C7.9 41.9 6.6 39.7 6 37.3 C5.8 37 5.6 36.6 5.4 36.3 C4.7 38.2 4 40.1 3.4 42 C-0.1 35.8 -0.2 28.1 2.4 21.6 z" id="c1" fill="#9B8C78" /><path d="M23.2 1.7 C30 0.2 37 0.4 40 0.4 C43 0.4 50 0.2 56.8 1.7 C62.7 4.6 60.2 19.3 59 23 C58.9 23.5 58.7 23.9 58.6 24.3 C57.3 32.5 53.1 40 52.4 39.8 C51.5 39.5 50.6 36.3 50.4 34 C50.5 38.8 46.3 46.6 45.8 46.5 C45.4 46.4 44.3 45.8 43.6 44.8 C43.3 45.9 43.1 46.8 42.8 47.7 C41.2 52.2 41.7 55.5 41.7 55.5 C41.7 55.5 38.9 54 37.2 47.7 C37 46.8 36.6 45.9 36.4 44.8 C35.6 45.7 34.5 46.4 34.2 46.5 C33.6 46.6 29.4 38.8 29.6 34 C29.4 36.3 28.5 39.6 27.6 39.8 C26.9 40 22.7 32.4 21.4 24.3 C21.3 23.9 21.1 23.5 21 23 C19.8 19.3 17.3 4.5 23.2 1.7 z" id="d1" fill="#D8D8D8" /><path d="M22.5 2.1 C22.7 1.9 23 1.8 23.2 1.7 C30 0.2 37 0.4 40 0.4 C43 0.4 50 0.2 56.8 1.7 C57 1.8 57.3 1.9 57.5 2.1 C63.3 3.3 68.8 5.5 71.1 9.2 C73.8 13.6 76.5 17.3 77.6 21.6 C80.2 28.1 80 35.8 76.9 42.1 C76.2 40.2 75.5 38.3 74.9 36.4 C74.7 36.7 74.5 37 74.3 37.4 C73.7 39.8 72.4 42 71.2 44.2 C69.9 46.6 68.6 49.2 68.7 51.9 C67.9 49.3 67.3 49.4 66.5 46.8 C64.5 54.7 60.5 57.5 57.6 64.1 C57 60.6 56.9 60.3 56.4 57.3 L55.6 58.1 C53.5 63.5 51.7 67.1 46.9 72.6 C47 71.1 46.7 69.5 46.4 68 C42.8 72.1 40.3 75.6 40.1 77.9 C39.8 75.8 37.6 72.6 34.5 68.8 C34.4 70 34.4 71.2 34.5 72.4 C29.7 66.9 26.8 63.4 24.6 58.1 C24.3 57.8 24 57.5 23.8 57.2 C23.2 60.5 22.9 62.8 22.3 66.3 C19.4 59.7 15.8 54.6 13.8 46.7 C13 49.3 12.4 49.2 11.6 51.8 C11.7 49.1 10.4 46.5 9.1 44.1 C7.9 41.9 6.6 39.7 6 37.3 C5.8 37 5.6 36.6 5.4 36.3 C4.7 38.2 4 40.1 3.4 42 C-0.1 35.8 -0.2 28.1 2.4 21.6 C3.5 17.3 6.2 13.6 8.9 9.2 C11.2 5.5 16.7 3.4 22.5 2.1 z M23.6 2.9 C18.1 4.1 12.9 6.1 10.7 9.6 C8.2 13.7 5 16.5 3.9 20.5 C1.5 26.7 -0.2 32.4 3.1 38.2 C3.7 36.4 5.9 34.1 6.6 32.3 C6.8 32.5 7.8 35.7 8 36 C8.6 38.3 9.6 39.8 10.7 41.8 C12 44.1 12 44.9 11.9 47.5 C12.6 45 13.5 44.9 14.3 42.5 C16.2 49.9 19 56 21.7 62.2 C22.3 58.9 22 55.1 22.6 52 C22.8 52.2 25.2 55.3 25.5 55.6 C27.6 60.6 28.7 63.4 33.2 68.6 C33.1 67.5 33.7 65.8 33.8 64.7 C36.7 68.3 39.8 72.2 40.1 74.2 C40.3 72 43.1 67.1 46.5 63.2 C46.8 64.7 48.3 67.2 48.2 68.6 C52.7 63.4 52.7 60.7 54.7 55.6 L57 53.1 C57.5 55.9 57.6 56.7 58.2 60 C60.9 53.8 64.5 50.6 66.4 43.2 C67.1 45.7 67.7 45.6 68.5 48.1 C68.4 45.5 68.6 43.8 69.9 41.6 C71 39.5 71.7 38.4 72.3 36.1 C72.4 35.7 74.6 32.1 74.8 31.8 C75.4 33.6 76.2 36.4 76.9 38.2 C79.8 32.3 77.7 25.3 75.3 19.2 C74.3 15.2 71.8 13.7 69.3 9.6 C67.1 6.1 61.9 4.1 56.4 2.9 C56.2 2.8 56 2.6 55.8 2.5 C49.4 1.1 42.7 1 39.9 1 C37.1 1 30.6 1.1 24.2 2.5 C24 2.6 23.8 2.8 23.6 2.9 z" opacity="0.15" id="e1" /></g></g></g><g id="f1"><g transform="translate(96.9, 90.79996) translate(23, 22)" id="g1"><g id="h1"><path d="M8.2 28.4 C11 21.7 15.7 17.3 19.3 12.7 C22.9 8.1 31.7 5.6 37.3 4.5 C41.1 3.8 45.5 4.2 50.5 5.5 C52.6 4.5 55.6 4.2 59.5 4.5 C66.7 4.5 74.5 9 78.8 11.8 C83 14.6 91 25 93 28.4 C95 31.8 96.7 39.1 97.3 42.7 C97.9 46.3 97.3 55.3 94.7 60.3 C92.1 65.3 82.5 78 79.9 80.3 C76.4 83.4 71.5 86.4 67.9 88.5 C62.3 91.8 46 95 35.4 89.9 C31.5 88 25.1 85.8 20.9 82.2 C13.5 75.9 8.9 67.7 7 65.7 C4 62.7 1.8 55.5 2.5 50.3 C3.2 45.1 5.4 35.1 8.2 28.4 z" id="i1" fill="#9B8C78" /><path d="M88.9 69.3 C87.1 71.9 85.2 74.6 83.6 76.7 C82.3 78.2 81.1 79.5 80.2 80.5 C79.9 80.8 79.6 81.2 79.2 81.6 C75.8 84.3 71.3 86.7 68.2 88.6 C62.6 91.8 46 95 35.4 89.9 C31.8 88.2 26.1 86.1 21.9 83 C21 82.2 20 81.4 19 80.5 C18.5 80 18 79.5 17.5 79 L14.9 76.1 C13 73.9 11.4 71.7 10.1 69.9 C9.3 68 8.6 65.7 8.1 63.2 C7.1 58 7.9 53.8 10.3 49.9 C11.7 47.6 14.6 45.6 18.9 43.8 C18.6 47.5 18.6 49.9 18.8 50.8 C20.2 56.9 23.9 61.2 30.3 59.2 C32.2 58.6 34.7 51 48.6 51 C62.5 51 62.5 57.9 68.7 59.7 C74.9 61.5 78.8 56.3 80.6 51.3 C82.4 46.3 80.5 43.1 80.1 42.6 C79.7 42.1 86.2 44 89.2 49 C92.2 54 92.5 57.7 90.4 64.5 C89.9 66.5 89.3 68.1 88.9 69.3 z" id="j1" fill="#F2E5D3" /><path d="M8.2 28.4 C11 21.7 15.7 17.3 19.3 12.7 C22.9 8.1 31.7 5.6 37.3 4.5 C41.1 3.8 45.5 4.2 50.5 5.5 C52.6 4.5 55.6 4.2 59.5 4.5 C66.7 4.5 74.5 9 78.8 11.8 C83 14.6 91 25 93 28.4 C95 31.8 96.7 39.1 97.3 42.7 C97.9 46.3 97.3 55.3 94.7 60.3 C92.1 65.3 82.5 78 79.9 80.3 C76.4 83.4 71.5 86.4 67.9 88.5 C62.3 91.8 46 95 35.4 89.9 C31.5 88 25.1 85.8 20.9 82.2 C13.5 75.9 8.9 67.7 7 65.7 C4 62.7 1.8 55.5 2.5 50.3 C3.2 45.1 5.4 35.1 8.2 28.4 z M10.1 28.4 C7.4 34.9 5.3 44.5 4.6 49.5 C3.9 54.5 6 61.4 8.9 64.3 C10.7 66.2 15.2 74.1 22.2 80.1 C26.2 83.6 32.3 85.8 36.1 87.5 C46.3 92.4 61.9 89.3 67.2 86.1 C70.6 84.1 75.3 81.2 78.7 78.2 C81.2 76 90.4 63.7 92.9 58.9 C95.4 54.1 96 45.4 95.4 42 C94.8 38.5 93.2 31.5 91.2 28.3 C89.2 25.1 81.6 15.1 77.6 12.4 C73.6 9.7 66.1 5.4 59.2 5.4 C55.5 5.1 52.6 5.5 50.6 6.4 C45.8 5.1 41.6 4.7 37.9 5.4 C32.5 6.4 24.1 8.8 20.7 13.3 C17.3 17.8 12.8 21.9 10.1 28.4 z" opacity="0.15" id="k1" /><path d="M32.7 10.5 C38.2 13.7 42.7 17.2 45.6 23.9 C48.5 30.6 47.2 33.2 49.4 33.2 C51.6 33.2 51.1 28.5 53.1 23.9 C55.1 19.3 60.7 14.2 66.5 10.5 C67.2 10 63.6 8.3 60.1 8.4 C56.9 8.6 52.2 10.5 50 10.5 C48 10.5 45 8.8 40.7 8.4 C34.9 7.9 29.5 8.7 32.7 10.5 z" id="l1" fill="#776F64" /></g></g><g transform="translate(145.5, 128.9999) scale(1) translate(-141.5, -128.9999) translate(94.4, 83.89996) translate(16, 0)" id="m1"><g transform="translate(31.56164, 28.5) scale(-1, 1) translate(-31.56164, -28.5) translate(9.061636, 0)" id="n1"><path d="M0.2 35 C-0.4 31.9 9.6 27.1 12.5 24 C13.3 23.1 18 19.1 15.2 19.8 C15.6 17.3 18.1 17.5 19.3 16.2 C19.9 15.5 17.3 16.4 18 15.7 C18.5 15.1 22.7 11.7 23.1 11.1 C23.8 10.2 21.7 10.9 22.2 10.2 C26 5.5 25.5 7.2 27.3 5.2 C28.7 3.7 31 1.7 32.1 0.9 C34.5 -0.8 37.7 1.8 38.7 7.9 C38.9 9.5 40.7 13.5 41 15.1 C41.3 16.5 39.9 14.5 40 15.6 C40.1 16.9 42.6 23 41.3 21.8 C40 20.6 41.4 25.2 41.3 26.9 C41.1 31 40 50.1 42.8 41.1 C42.8 43.7 42.4 46.3 41 48.2 C41.6 46.8 43.2 46.6 44.2 45.5 C44.2 49.8 41.6 51.6 40.9 53.6 C40.7 54.2 40.4 54.8 39.7 55.4 C38.5 56.6 34.8 56.5 34.2 55.5 C33.3 53.9 31.7 51.1 29.3 49.2 C26.9 47.3 26.7 43.7 21.3 41.4 C18.8 40.3 15.4 38.3 11.7 37.1 C7.7 35.8 0.5 36.6 0.2 35 z" id="o1" fill="#776F64" /><path d="M0.2 35 C-0.4 31.9 9.6 27.1 12.5 24 C13.3 23.1 18 19.1 15.2 19.8 C15.6 17.3 18.1 17.5 19.3 16.2 C19.9 15.5 17.3 16.4 18 15.7 C18.5 15.1 22.7 11.7 23.1 11.1 C23.8 10.2 21.7 10.9 22.2 10.2 C26 5.5 25.5 7.2 27.3 5.2 C28.7 3.7 31 1.7 32.1 0.9 C34.5 -0.8 37.7 1.8 38.7 7.9 C38.9 9.5 40.7 13.5 41 15.1 C41.3 16.5 39.9 14.5 40 15.6 C40.1 16.9 42.6 23 41.3 21.8 C40 20.6 41.4 25.2 41.3 26.9 C41.1 31 40 50.1 42.8 41.1 C42.8 43.7 42.4 46.3 41 48.2 C41.6 46.8 43.2 46.6 44.2 45.5 C44.2 49.8 41.6 51.6 40.9 53.6 C40.7 54.2 40.4 54.8 39.7 55.4 C38.5 56.6 34.8 56.5 34.2 55.5 C33.3 53.9 31.7 51.1 29.3 49.2 C26.9 47.3 26.7 43.7 21.3 41.4 C18.8 40.3 15.4 38.3 11.7 37.1 C7.7 35.8 0.5 36.6 0.2 35 z M5 33.3 C5.3 34.7 11.4 34 14.7 35.1 C17.8 36.2 20.7 37.9 22.8 38.9 C27.4 40.9 27.5 44.1 29.6 45.8 C31.6 47.5 33 49.9 33.7 51.3 C34.2 52.2 36.9 53.3 37.9 52.3 C38.5 51.8 42.4 51.2 42.4 47.5 C41.6 48.5 40.1 48.1 39.6 49.3 C40.8 47.6 41.9 46.2 41.9 43.9 C39.5 51.8 40.1 30.7 40.3 27.1 C40.4 25.6 39.2 19.3 40.3 20.4 C41.4 21.5 38.4 15 38.3 13.8 C38.2 12.8 39.9 14.7 39.6 13.5 C39.3 12.1 37.6 10.8 37.4 9.4 C36.6 4 34.5 0.3 32.4 1.8 C31.5 2.5 28.9 4.6 27.7 5.9 C26.2 7.7 26.9 5.4 23.7 9.6 C23.3 10.2 25.5 10.2 24.9 11 C24.6 11.5 20.7 14.9 20.2 15.4 C19.6 16 22 15.3 21.5 15.9 C20.5 17 17.9 17.3 17.6 19.5 C20 18.9 15.8 22.8 15.1 23.6 C13 26.3 4.5 30.5 5 33.3 z" opacity="0.15" id="p1" /><path d="M15.1 33.9 C13 33.2 12.7 33.4 12.9 32.2 C13 31.5 15.6 29.8 17.9 26.4 C18.7 25.2 18.3 27.9 18.9 26.4 C19.7 24.6 20.5 22.2 21 21.3 C21.6 20.3 21.1 23.1 22.1 21.3 C22.3 20.9 23.1 17 23.4 16.4 C24 15.3 24.1 17.7 24.5 16.4 C25 14.5 25.7 13.7 26.8 11.9 C28.2 9.6 29.9 6.6 30.5 6.4 C32.8 5.4 34.5 8.4 35.2 11.9 C35.9 15.4 35.8 17.6 37.1 20 C38.4 22.4 38.7 22.5 38.4 28.5 C38.1 34.5 36.2 35.9 35.2 40.4 C34.2 44.9 34.5 46.3 31.4 44.8 C29.3 43.8 29.5 43.3 32 43.3 C31.2 41.3 29.4 39.8 26.7 39 C22.7 37.8 18.4 36.5 20.6 35.2 C22.1 34.3 22.2 34 21 34.2 C18.5 34.4 16.5 34.3 15.1 33.9 z" id="q1" fill="#F2E5D3" /><path d="M21.8 37.4 C22.8 37.1 23.5 36.3 24.1 35.1 C24.7 33.9 24.9 32.8 24.9 31.9 L23.3 33.7 C23.6 31.1 24.3 29.1 25.4 27.6 C26.5 26.1 27.1 24.9 27.1 23.8 C25.6 24.8 24.7 25.5 24.4 26.1 C24 26.9 24.3 22.6 26.2 20.2 C28.1 17.8 30.8 14.3 31 12.2 C31.6 18.3 30.3 21.1 31 22.5 C31.7 23.8 33.2 30.2 31.7 33.3 C30.7 35.4 29.3 37.4 27.5 39.4 C26.6 39.3 25.6 39.1 24.4 38.8 C23.3 38.4 22.4 38 21.8 37.4 z" id="r1" fill="#776F64" /><path d="M21.8 37.4 C22.8 37.1 23.5 36.3 24.1 35.1 C24.7 33.9 24.9 32.8 24.9 31.9 L23.3 33.7 C23.6 31.1 24.3 29.1 25.4 27.6 C26.5 26.1 27.1 24.9 27.1 23.8 C25.6 24.8 24.7 25.5 24.4 26.1 C24 26.9 24.3 22.6 26.2 20.2 C28.1 17.8 30.8 14.3 31 12.2 C31.6 18.3 30.3 21.1 31 22.5 C31.7 23.8 33.2 30.2 31.7 33.3 C30.7 35.4 29.3 37.4 27.5 39.4 C26.6 39.3 25.6 39.1 24.4 38.8 C23.3 38.4 22.4 38 21.8 37.4 z" id="s1" fill="#665F57" /></g></g><g transform="translate(193.1, 128.9999) scale(1) translate(-197.1, -128.9999) translate(90.2, 83.89996) translate(104, 29) scale(-1, 1) translate(-104, -29) translate(81, 0)" id="t1"><g transform="translate(22.81199, 29) scale(-1, 1) translate(-22.81199, -29) translate(0.31199, 0)" id="u1"><path d="M0.2 35 C-0.4 31.9 8.7 26.6 11.7 23.5 C13.1 22 15.5 19.9 17.8 17.7 C18.6 17 16.6 17 17.3 16.3 C18 15.5 19 15.9 20.3 14.9 C21.6 13.9 23.3 11.6 23.6 11 C23.9 10.5 22 11.5 22.3 11 C24.5 7.6 30.1 2.5 32.2 1 C34.6 -0.7 37.8 1.9 38.8 8 C39 9.4 41.5 15.4 42 17.1 C42.4 18.5 40.3 15.5 40.5 17.1 C40.9 19.9 41.9 24 42 25.9 C42.1 27.3 40.6 23.3 40.5 24.9 C40.5 25.9 41.2 29.8 41.1 31.9 C40.8 38.6 40.7 48.2 42.8 41.3 C42.8 43.9 42.4 46.5 41 48.4 C41.6 47 43.2 46.8 44.2 45.7 C44.2 51.4 39.5 52.8 41 55.8 C42.5 58.8 35.5 56.5 35.5 54.6 C35.5 52.7 31.7 51.3 29.3 49.4 C26.9 47.5 26.7 43.9 21.3 41.6 C18.8 40.5 15.4 38.5 11.7 37.3 C7.7 35.8 0.5 36.6 0.2 35 z" id="v1" fill="#776F64" /><path d="M0.2 35 C-0.4 31.9 8.7 26.6 11.7 23.5 C13.1 22 15.5 19.9 17.8 17.7 C18.6 17 16.6 17 17.3 16.3 C18 15.5 19 15.9 20.3 14.9 C21.6 13.9 23.3 11.6 23.6 11 C23.9 10.5 22 11.5 22.3 11 C24.5 7.6 30.1 2.5 32.2 1 C34.6 -0.7 37.8 1.9 38.8 8 C39 9.4 41.5 15.4 42 17.1 C42.4 18.5 40.3 15.5 40.5 17.1 C40.9 19.9 41.9 24 42 25.9 C42.1 27.3 40.6 23.3 40.5 24.9 C40.5 25.9 41.2 29.8 41.1 31.9 C40.8 38.6 40.7 48.2 42.8 41.3 C42.8 43.9 42.4 46.5 41 48.4 C41.6 47 43.2 46.8 44.2 45.7 C44.2 51.4 39.5 52.8 41 55.8 C42.5 58.8 35.5 56.5 35.5 54.6 C35.5 52.7 31.7 51.3 29.3 49.4 C26.9 47.5 26.7 43.9 21.3 41.6 C18.8 40.5 15.4 38.5 11.7 37.3 C7.7 35.8 0.5 36.6 0.2 35 z M5.1 32.3 C5.4 33.7 11.1 33.4 14.7 34.8 C18 35.9 20.8 38.2 23.1 39.2 C28 41.3 28.1 43.8 30.3 45.6 C32.5 47.3 35 49.5 35 51.2 C35 52.9 41.3 55 40 52.3 C38.6 49.6 43.3 52.8 43.3 47.7 C42.4 48.7 40.6 48 40.1 49.3 C41.4 47.6 42.1 46.2 42.1 43.9 C40.2 50.1 39.8 36.8 40.1 30.8 C40.2 28.9 39.7 24.4 39.7 23.5 C39.8 22.1 41.1 24.7 41 23.5 C40.9 21.8 40.1 19.3 39.7 16.7 C39.5 15.3 41 16.6 40.6 15.3 C40.1 13.8 38.1 10.4 37.9 9.2 C37 3.7 34.9 0.4 32.7 2 C30.8 3.4 26 6.8 24 9.9 C23.7 10.4 25.5 10.2 25.2 10.6 C24.9 11.1 22.3 14.5 21.2 15.4 C20 16.3 19.1 15.9 18.5 16.7 C17.9 17.3 20.4 17.5 19.7 18.1 C17.6 20.1 15.4 23.2 14.1 24.5 C11.5 27.2 4.6 29.5 5.1 32.3 z" opacity="0.15" id="w1" /><path d="M15.1 33.9 C13 33.2 12.7 33.4 12.9 32.2 C13 31.6 15.1 32 17.3 28.6 C18.1 27.4 18.4 25.1 19.1 23.7 C19.6 22.6 20 23.9 20.6 22.7 C21.1 21.7 21.8 18.2 22 17.8 C22.4 17 22.9 18 23.6 16.9 C24.6 15.2 25.5 14 26.7 12 C28 9.8 29.5 6.9 30.4 6.5 C32.7 5.5 34.4 8.5 35.1 12 C35.8 15.5 35.7 17.7 37 20.1 C38.3 22.5 38.6 22.6 38.3 28.6 C38 34.6 36.1 36 35.1 40.5 C34.1 45 34.4 46.4 31.3 44.9 C29.2 43.9 29.4 43.4 31.9 43.4 C31.1 41.4 29.3 39.9 26.6 39.1 C22.6 37.9 18.3 36.6 20.5 35.3 C22 34.4 22.1 34.1 20.9 34.3 C18.5 34.4 16.5 34.3 15.1 33.9 z" id="x1" fill="#F2E5D3" /><path d="M21.8 37.4 C22.8 37.1 23.5 36.3 24.1 35.1 C24.7 33.9 24.9 32.8 24.9 31.9 L23.3 33.7 C23.6 31.1 24.3 29.1 25.4 27.6 C26.5 26.1 27.1 24.9 27.1 23.8 C25.6 24.8 24.7 25.5 24.4 26.1 C24 26.9 24.3 22.6 26.2 20.2 C28.1 17.8 30.8 14.3 31 12.2 C31.6 18.3 30.3 21.1 31 22.5 C31.7 23.8 33.2 30.2 31.7 33.3 C30.7 35.4 29.3 37.4 27.5 39.4 C26.6 39.3 25.6 39.1 24.4 38.8 C23.3 38.4 22.4 38 21.8 37.4 z" id="y1" fill="#776F64" /><path d="M21.8 37.4 C22.8 37.1 23.5 36.3 24.1 35.1 C24.7 33.9 24.9 32.8 24.9 31.9 L23.3 33.7 C23.6 31.1 24.3 29.1 25.4 27.6 C26.5 26.1 27.1 24.9 27.1 23.8 C25.6 24.8 24.7 25.5 24.4 26.1 C24 26.9 24.3 22.6 26.2 20.2 C28.1 17.8 30.8 14.3 31 12.2 C31.6 18.3 30.3 21.1 31 22.5 C31.7 23.8 33.2 30.2 31.7 33.3 C30.7 35.4 29.3 37.4 27.5 39.4 C26.6 39.3 25.6 39.1 24.4 38.8 C23.3 38.4 22.4 38 21.8 37.4 z" id="z1" fill="#665F57" /></g></g><g id="a2"><g transform="translate(92.9, 100.8) translate(58, 69)" id="b2"><g transform="translate(0.270427, 0.292308)" id="c2"><path d="M3.7 28.7 C4.6 29.8 7 30.1 9.2 30.8 C12.2 31.7 15.4 32.7 18.9 32.5 C19 32.5 23.5 32 25 31.9 C29.3 31.4 32.9 31.1 34.5 28.7 C35.1 27.5 36.1 23.3 35.9 21.1 C35.8 19.9 34.2 18.2 33.3 17 C34.5 17.2 35.1 17.1 37 18.3 C36.5 17.1 34.6 14.3 33.6 13.5 C31.5 11.8 29.4 10.7 28.1 9.7 C29.3 9.6 29.8 9.9 31.4 10.2 C30.3 8.9 27.3 6.3 25.8 5.9 C27.1 5.7 27.1 5.7 28.1 5.9 C27 4.4 21.7 1.4 21.1 0.8 C21 0.7 21.1 1.7 22.1 3 C22.9 4 24.5 5 25.3 6.4 C24 5.8 22.7 5.4 21.5 5.2 C24.7 8.1 26.6 10 27.3 11 C25.8 10.5 23.7 9.7 21.8 9.7 C24.5 11 30.1 17 30 17 C28.9 16.3 27.7 15.1 25.8 14.4 C23.6 13.5 20.7 13 18.3 13 C17.5 13 14.9 13.2 13.5 13.5 C10.7 14 8.9 15 8.2 15.5 C9.6 13.7 13.4 10.8 15.8 9.5 C13.8 9.1 11.7 10.2 10.1 11.2 C11.5 9.8 14.7 6.6 16.3 5.1 C15.2 5.3 14.2 5.6 12.6 6.1 C14.6 3.9 16.5 2.3 16.6 2.1 C16.7 1.9 16.9 1.7 17.1 0.6 C15.4 1.9 9.5 5.7 7.5 7.9 C9.5 7.7 9.8 7.5 11 7.6 C9.9 8 7.4 9.8 6.5 10.5 C7.8 10.6 7.8 10.7 8.4 11.1 C7.4 11.4 5.6 12.3 3.6 14 C2.2 15.2 1.2 17.6 0.9 18.2 C2.8 17.5 3 17.2 4.1 16.7 C3.8 17.4 2.5 18.4 2.4 19.6 C2.1 21.4 3 27.8 3.7 28.7 z" id="d2" fill="#FFF6E9" /><path d="M3.7 28.7 C3 27.8 2.1 21.4 2.4 19.6 C2.5 18.4 3.8 17.4 4.1 16.7 C3 17.2 2.8 17.5 0.9 18.2 C1.2 17.6 2.2 15.2 3.6 14 C5.6 12.3 7.4 11.4 8.4 11.1 C7.8 10.7 7.8 10.6 6.5 10.5 C7.4 9.8 9.9 8 11 7.6 C9.8 7.5 9.5 7.7 7.5 7.9 C9.5 5.7 15.4 1.9 17.1 0.6 C16.9 1.7 16.7 1.9 16.6 2.1 C16.5 2.3 14.6 3.9 12.6 6.1 C14.2 5.6 15.2 5.3 16.3 5.1 C14.7 6.6 11.5 9.8 10.1 11.2 C11.7 10.2 13.8 9.1 15.8 9.5 C13.4 10.8 9.6 13.7 8.2 15.5 C8.9 15 10.7 14 13.5 13.5 C14.9 13.2 17.5 13 18.3 13 C20.7 13 23.6 13.5 25.8 14.4 C27.7 15.1 28.9 16.3 30 17 C30.1 17 24.5 11 21.8 9.7 C23.7 9.7 25.8 10.5 27.3 11 C26.6 10 24.7 8.1 21.5 5.2 C22.7 5.4 24 5.8 25.3 6.4 C24.5 5 22.9 4 22.1 3 C21.1 1.7 21 0.7 21.1 0.8 C21.7 1.4 27 4.4 28.1 5.9 C27.1 5.7 27.1 5.7 25.8 5.9 C27.3 6.3 30.3 8.9 31.4 10.2 C29.8 9.9 29.3 9.6 28.1 9.7 C29.4 10.7 31.5 11.8 33.6 13.5 C34.6 14.3 36.5 17.1 37 18.3 C35.1 17.1 34.5 17.2 33.3 17 C34.2 18.2 35.8 19.9 35.9 21.1 C36.1 23.3 35.1 27.5 34.5 28.7 C32.9 31.1 29.3 31.4 25 31.9 C23.5 32 19 32.5 18.9 32.5 C15.4 32.7 12.2 31.7 9.2 30.8 C7 30.1 4.6 29.8 3.7 28.7 z M5.3 27.4 C6.1 28.4 8.2 28.7 10.2 29.3 C12.9 30.1 15.7 31 18.9 30.8 C19 30.8 23 30.4 24.4 30.3 C28.2 29.9 31.5 29.6 32.9 27.4 C33.4 26.3 35 23.6 34.9 21.7 C34.8 20.6 33.1 17.7 32.3 16.6 C33.1 16.5 34.2 16.2 35.9 17.2 C35.5 16.1 33.5 14.3 32.6 13.6 C30.7 12.1 28.3 10.1 27.1 9.2 C28.2 9.1 28.8 9.2 30.2 9.5 C29.7 8.9 28.7 8.2 27.6 7.5 C26.5 6.7 25.7 6.6 25.5 5.8 C26.1 5.5 26.6 5.2 27.1 5.3 C26.1 4 22.3 2.2 21.7 1.7 C21.6 1.6 23.1 2.8 24 3.9 C24.7 4.7 25.3 6.6 26.1 7.1 C24.9 6.6 23.7 5.7 22.6 5.6 C25.5 8.2 27.4 10.5 28 11.4 C26.7 11 24.8 10.1 23.1 10.1 C24 10.6 26 11.8 27.4 13.3 C29.6 15.5 31.3 18 31.3 18 C30.3 17.4 26.7 15.1 25 14.5 C23 13.7 20.4 13.2 18.3 13.2 C17.6 13.2 15.3 13.4 14 13.6 C11.5 14 8.1 16.1 7 16.3 C8 14 11.8 10.9 13.9 9.8 C12.1 9.4 10.7 10.6 9.3 11.5 C10.6 10.2 13.8 6.8 15.2 5.4 C14.2 5.6 13.1 5.7 11.7 6.2 C13.5 4.2 14.2 3.7 14.3 3.5 C14.4 3.3 16.2 2.2 16.4 1.3 C14.9 2.5 10.7 5 8.9 7 C10.7 6.8 10.9 6.9 12 7 C11 7.4 8.8 9.2 8 9.8 C9.2 9.9 9 10.3 9.5 10.6 C8.6 10.9 7.2 11.8 5.4 13.3 C4.1 14.4 2.9 16.2 2.6 16.7 C4.3 16.1 4.4 15.8 5.4 15.4 C5.1 16 4.1 18.4 4 19.5 C3.7 21.3 4.7 26.6 5.3 27.4 z" opacity="0.15" id="e2" /></g></g><g transform="translate(169.9, 200.2) scale(0.8) translate(-169.9, -200.2) translate(110.9, 128.8) translate(39, 69) translate(0, -7.100006)" id="f2"><g id="g2" fill="#282421"><path d="M39.8 15.5 C39.5 14.9 38.9 15.2 38.5 15.4 C37.7 15.8 36.8 16.2 35.9 16.4 C33.7 16.8 31.7 15.7 30 14.3 C28.2 12.9 26.7 11.2 25 9.7 C24.3 9.1 23.5 8.5 22.7 8 C22.3 7.8 20.8 7.3 20.6 7 C20.5 6.8 20.8 6.2 20.8 6 C20.9 5.4 21.1 4.8 21.2 4.1 C21.4 3.2 21.9 1.9 21.2 1.1 C20 -0.2 18.4 1.2 18.6 2.6 C18.8 3.6 19.1 4.6 19.3 5.6 C19.4 5.8 19.7 6.5 19.6 6.8 C19.5 7.2 18.4 7.4 18 7.6 C16.2 8.6 14.7 10 13.2 11.4 C10.2 14.3 6.6 17.7 2.2 15.4 C1.7 15.2 1 14.6 0.5 15 C-0.3 15.6 0.6 16.2 1.1 16.5 C2.8 17.6 4.8 18.2 6.8 17.9 C11.1 17.2 14.1 13.4 17.5 11.1 C18.2 10.7 19.2 9.9 20.1 9.9 C21 9.9 22.1 10.8 22.8 11.3 C24.7 12.6 26.4 14.3 28.4 15.6 C30.3 17 32.6 18.1 35 17.9 C35.8 18.1 40.6 16.9 39.8 15.5 z" id="h2" /></g></g><g transform="translate(92.89999, 100.7999) translate(67, 84)" id="i2"><g transform="translate(0.600098, 0)" id="j2"><path d="M1 6.3 C1 5.2 0.6 3.7 1.5 2.7 C2.9 1.2 6.3 0.6 9.2 0.6 C12 0.6 15.2 1.3 16.5 2.2 C17.9 3.2 17.3 5.3 17.3 6.7 C17.3 7.6 16.9 9.9 14.6 12 C13.2 13.2 10.8 13.2 9.2 13.3 C7.7 13.4 5.4 13 4.1 12 C1.9 10.1 1 7.1 1 6.3 z" id="k2" /><path d="M3.9 2.2 C3.2 2.7 2.9 3.4 3.3 3.5 C3.7 3.6 7.1 2.7 7.8 2.8 C8.5 2.9 11.8 2.8 12.8 3.5 C13.8 4.2 15.5 3 14.7 2.5 C13.9 2 11.2 1.2 8.9 1.2 C6.6 1.2 4.7 1.7 3.9 2.2 z" id="l2" fill="#FFF" /></g></g><g transform="translate(92.89999, 100.7999) translate(50, 53)" id="m2"><g transform="translate(12.46274, 12.04615) scale(-1, 1) translate(-12.46274, -12.04615) translate(0.962735, 0.546154)" id="n2"><path d="M7.4 22.1 C7.4 22.1 2.2 20.2 0.7 15.9 C-0.3 13 0.6 11.5 3.5 11.2 C2.7 9.3 2.7 8.3 3.5 8 C4.4 7.8 5.9 6.6 8 4.3 L11.3 0.4 L20.6 3.6 C21.9 7.2 22.5 9.2 22.4 9.5 C22.2 10 19.7 7.2 19.1 7.5 C17.4 8.2 11.9 9.3 10.8 10.4 C5.4 16.2 7.4 22.1 7.4 22.1 z" fill-opacity="0.9" opacity="0.8" id="o2" fill="#9B8C78" /><g transform="translate(1.037265, 10.45385)" id="p2"><path d="M0.9 7.5 C1 7.9 1.4 8.6 2.1 9.6 C3.2 11.1 5.5 11.9 7.5 11.7 C9.5 11.5 11 11.6 12.8 9.6 C14.6 7.6 16 5.8 16.4 5.2 C16.7 4.8 17.4 4.3 18.6 3.7 C16.4 1.5 14.9 0.5 13.9 0.5 C12.5 0.5 9.5 1.5 7.9 3.2 C6.3 4.9 5 6.6 3.1 6.6 C2.7 6.4 2 6.7 0.9 7.5 z" id="q2" /><path d="M7.2 7.5 C8.1 6.9 8.7 6.5 9 6.2 C9.7 5.6 10 5.1 10.4 4.8 C11 6 11 7.5 9.7 7.9 C8.8 8.3 8 8.1 7.2 7.5 z" id="r2" fill="#FFFFFE" /></g></g></g><g transform="translate(92.89999, 100.7999) translate(80, 54)" id="s2"><g transform="translate(0.962735, 0.546154)" id="t2"><path d="M7.4 21.1 C7.4 21.1 2.2 19.2 0.7 14.9 C-0.3 12 0.6 10.5 3.5 10.2 C2.7 8.3 2.7 7.3 3.5 7 C4.4 6.8 5.9 5.6 8 3.3 L11.4 0 L20.7 2.7 C22 6.3 22.6 8.3 22.5 8.6 C22.3 9.1 19.8 6.3 19.2 6.6 C17.5 7.3 12 8.4 10.9 9.5 C5.4 15.2 7.4 21.1 7.4 21.1 z" fill-opacity="0.9" opacity="0.8" id="u2" fill="#9B8C78" /><g transform="translate(2.037265, 9.453846)" id="v2"><path d="M0.3 7.5 C0.4 7.9 0.8 8.6 1.5 9.6 C2.6 11.1 4.9 11.9 6.9 11.7 C8.9 11.5 10.4 11.6 12.2 9.6 C14 7.6 15.4 5.8 15.8 5.2 C16.1 4.8 16.8 4.3 18 3.7 C15.8 1.5 14.3 0.5 13.3 0.5 C11.9 0.5 8.9 1.5 7.3 3.2 C5.7 4.9 4.3 6.6 2.4 6.6 C2.1 6.4 1.4 6.7 0.3 7.5 z" id="w2" /><path d="M6.2 7.5 C7.1 6.9 7.7 6.5 8 6.2 C8.7 5.6 9 5.1 9.4 4.8 C10 6 10 7.5 8.7 7.9 C7.8 8.3 7 8.1 6.2 7.5 z" id="x2" fill="#FFFFFE" /></g></g></g></g></g></g></g><defs><g transform="translate(17.09519, 0.800995) translate(-135.2952, -293.601)" id="y2" fill="#000"><path d="M118.2 302.7 C118.4 307.4 132.5 311.2 149.8 311.2 C167.1 311.2 181.2 307.4 181.4 302.7 C181.4 307.5 181.4 310.1 181.4 310.5 C181.4 315.3 167.3 319.1 149.8 319.1 C132.3 319.1 118.2 315.2 118.2 310.5 L118.2 302.7 L118.2 302.7 z" fill-opacity="0.4528" id="z2" fill="#593001" /><path d="M118.7 301.7 C118.9 306.4 133 310.2 150.3 310.2 C167.6 310.2 181.7 306.4 181.9 301.7 C181.9 306.5 181.9 309.1 181.9 309.5 C181.9 314.3 167.8 318.1 150.3 318.1 C132.8 318.1 118.7 314.2 118.7 309.5 L118.7 301.7 L118.7 301.7 z" id="a3" fill="#DA8113" /><linearGradient x1="46.0545" y1="-118.6926" x2="45.4656" y2="-118.6926" gradientUnits="userSpaceOnUse" gradientTransform="matrix(117.135, 0, 0, 28.4634, -5208.417, 3687.795)" id="b3"><stop offset="0%" stop-color="#D9952A" stop-opacity="1" /><stop offset="6.438854%" stop-color="#CA7519" stop-opacity="1" /><stop offset="30.54%" stop-color="#E3AD3A" stop-opacity="1" /><stop offset="51.05%" stop-color="#FFEC91" stop-opacity="1" /><stop offset="68.8%" stop-color="#E9BD44" stop-opacity="1" /><stop offset="86.24%" stop-color="#FFED6C" stop-opacity="1" /><stop offset="93.87%" stop-color="#F2D353" stop-opacity="1" /><stop offset="100%" stop-color="#F2B947" stop-opacity="1" /></linearGradient><path d="M118.2 301.6 C118.4 306.1 132.7 309.7 150.3 309.7 C167.9 309.7 182.2 306.1 182.4 301.6 C182.4 306.2 182.4 308.7 182.4 309 C182.4 313.5 168 317.2 150.3 317.2 C132.6 317.2 118.2 313.5 118.2 309 L118.2 301.6 L118.2 301.6 z" id="c3" style="fill:url(#b3)" /><linearGradient x1="45.4914" y1="-117.9547" x2="45.9407" y2="-117.5895" gradientUnits="userSpaceOnUse" gradientTransform="matrix(115.425, 0, 0, 29.925, -5125.077, 3826.124)" id="d3"><stop offset="0%" stop-color="#F4E072" stop-opacity="1" /><stop offset="100%" stop-color="#DB9427" stop-opacity="1" /></linearGradient><ellipse cx="150.3" cy="301.5" rx="31.6" ry="8.2" id="e3" style="fill:url(#d3)" /><linearGradient x1="45.4656" y1="-126.0065" x2="46.0545" y2="-126.0065" gradientUnits="userSpaceOnUse" gradientTransform="matrix(117.135, 0, 0, 18.6219, -5208.417, 2651.479)" id="f3"><stop offset="0%" stop-color="#D9952A" stop-opacity="1" /><stop offset="6.438854%" stop-color="#CA7519" stop-opacity="1" /><stop offset="30.54%" stop-color="#E3AD3A" stop-opacity="1" /><stop offset="51.05%" stop-color="#FFEC91" stop-opacity="1" /><stop offset="68.8%" stop-color="#E9BD44" stop-opacity="1" /><stop offset="86.24%" stop-color="#FFED6C" stop-opacity="1" /><stop offset="93.87%" stop-color="#F2D353" stop-opacity="1" /><stop offset="100%" stop-color="#F2B947" stop-opacity="1" /></linearGradient><path d="M119.2 299.9 C119 300.2 118.9 300.6 118.9 301 C118.9 305.5 132.9 309.2 150.3 309.2 C167.7 309.2 181.7 305.5 181.7 301 C181.7 300.6 181.6 300.3 181.4 299.9 C182 300.5 182.4 301.2 182.4 301.9 C182.4 306.4 168 310.1 150.3 310.1 C132.6 310.1 118.2 306.4 118.2 301.9 C118.2 301.3 118.6 300.6 119.2 299.9 z" id="g3" style="fill:url(#f3)" /><linearGradient x1="45.196" y1="-121.5895" x2="45.3746" y2="-120.6758" gradientUnits="userSpaceOnUse" gradientTransform="matrix(101.745, 0, 0, 23.94, -4458.332, 3199.41)" id="h3"><stop offset="0%" stop-color="#F8DD61" stop-opacity="1" /><stop offset="100%" stop-color="#EAA330" stop-opacity="1" /></linearGradient><ellipse cx="150.3" cy="300.8" rx="27.8" ry="6.6" id="i3" style="fill:url(#h3)" /><linearGradient x1="45.5694" y1="-134.267" x2="45.0221" y2="-134.267" gradientUnits="userSpaceOnUse" gradientTransform="matrix(101.745, 0, 0, 13.2525, -4458.332, 2077.223)" id="j3"><stop offset="0%" stop-color="#F4CA2F" stop-opacity="1" /><stop offset="51.38%" stop-color="#BF7737" stop-opacity="1" /><stop offset="100%" stop-color="#E4A929" stop-opacity="1" /></linearGradient><path d="M122.6 301.5 C122.5 301.3 122.4 301 122.4 300.8 C122.4 297.2 134.9 294.2 150.2 294.2 C165.5 294.2 178 297.1 178 300.8 C178 301 177.9 301.3 177.8 301.5 C176.3 298.2 164.5 295.6 150.1 295.6 C135.7 295.6 124.1 298.2 122.6 301.5 z" id="k3" style="fill:url(#j3)" /></g></defs><desc>ELLJELLNLLL,uspkla9jHEnEhYQvt3ip0+LsaNmBKdEet7SEJxAyAqvvkz+ija8v1RtqcTLzLBlN9p4gg+IqwGOyjCt1491eJAXrGfPXE1CiP+Xq+jQzhnqA29lSCXnskbKvdAuZzokUT2GtfPTxEDZ4u5j5KwzsXYnt2mGPDxAxQeU9fEhz+wcEIO/Al8RiUTZIZ3G6N2m5maX15WHAoftS++pCCy2N1w==</desc></svg>