<?xml version="1.0" encoding="utf-8"?><!DOCTYPE svg PUBLIC "-//W3C//DTD SVG 1.1//EN" "http://www.w3.org/Graphics/SVG/1.1/DTD/svg11.dtd"><svg x="0" y="0" width="340px" height="340px" viewBox="0, 0, 340, 340" preserveAspectRatio="xMidYMid" font-size="0" id="a" enable-background="new 0 0 340 340" xmlns="http://www.w3.org/2000/svg" xmlns:xlink="http://www.w3.org/1999/xlink" xmlns:xml="http://www.w3.org/XML/1998/namespace" version="1.1"><g id="b" fill="#000"><g id="c"><g transform="translate(0, 0) translate(0, 224)" id="d"><ellipse cx="168.6" cy="53.1" rx="57.8" ry="12.8" fill-opacity="0.25" id="e" /></g><g id="f"><g transform="translate(106, 78.29999) translate(29.5, 161.5) scale(-1, 1) translate(-29.5, -161.5) translate(28, 160)" id="g" fill="#47A3FF" /><g transform="translate(121.7, 275.3) scale(1.074627) translate(-121.7, -275.3) translate(90.60001, 76.39996) translate(20, 136)" id="h"><path d="M50.8 23.7 C50.8 21.1 45 17.3 43.1 14.9 C40.9 12.1 42.4 10.8 38.7 8.5 C29 2.5 15.7 -0.9 9.6 1.7 C8.4 2.3 7.1 3.1 6 4.1 C3.5 6.3 1.1 11.7 0.7 14.8 C0.5 16.3 3.5 12 3.5 13.6 C3.6 15.4 1.8 22.9 2.2 24.5 C2.4 25.7 3.2 23.4 3.5 24.5 C3.6 24.7 4.3 23.4 4.4 23.7 C4.8 25.4 4.3 27.8 4.7 30.7 C5.1 33.6 5.7 35.6 6 36 C6.4 36.6 6.3 34.6 7.6 34.5 C7.8 34.8 7.5 35.5 7.6 36.5 C7.9 38.7 8.4 41.2 8.8 41.9 C9.2 42.6 12.2 48.4 12.6 49.1 C13.3 50.4 13.3 45.9 14.1 47.3 C14.8 48.6 14.1 50 14.8 51.5 C10.6 53 6.5 53.6 4.7 55.8 C3.1 57.9 3.2 60.6 3.2 62.2 C3.2 63.9 3.3 63.2 4.4 64.1 C4.6 64.2 4.3 64.1 5.5 64.1 C6.1 64.1 5.7 65 6.6 65 C7.9 65 6.9 65.7 8.6 65.6 C9.4 65.6 14 65.6 14.9 65.6 C25 65.1 40.5 63.5 41.4 61.8 C43.3 56.8 37.8 55 43.4 46.5 C44.6 44.6 44.8 37.3 46.2 39.7 C47.6 42.1 46.3 35.3 47.3 33.8 C48.2 32.6 50.6 34 51 32.1 C51.2 30.7 50.8 25.4 50.8 23.7 z" id="i" fill="#9B5526" /><path d="M50.8 23.7 C50.8 25.4 51.2 30.7 51 32.1 C50.6 34 48.2 32.6 47.3 33.8 C46.3 35.3 47.6 42.1 46.2 39.7 C44.8 37.3 44.6 44.6 43.4 46.5 C37.8 55 43.3 56.8 41.4 61.8 C40.5 63.5 25 65.1 14.9 65.6 C14 65.6 9.4 65.6 8.6 65.6 C6.9 65.7 7.9 65 6.6 65 C5.7 65 6.1 64.1 5.5 64.1 C4.3 64.1 4.6 64.2 4.4 64.1 C3.3 63.2 3.2 63.9 3.2 62.2 C3.2 60.6 3.1 57.9 4.7 55.8 C6.5 53.6 10.6 53 14.8 51.5 C14.1 50 14.8 48.6 14.1 47.3 C13.3 45.9 13.3 50.4 12.6 49.1 C12.2 48.4 9.2 42.6 8.8 41.9 C8.4 41.2 7.9 38.7 7.6 36.5 C7.5 35.5 7.8 34.8 7.6 34.5 C6.3 34.6 6.4 36.6 6 36 C5.7 35.6 5.1 33.6 4.7 30.7 C4.3 27.8 4.8 25.4 4.4 23.7 C4.3 23.4 3.6 24.7 3.5 24.5 C3.2 23.4 2.4 25.7 2.2 24.5 C1.8 22.9 3.6 15.4 3.5 13.6 C3.5 12 0.5 16.3 0.7 14.8 C1.1 11.7 3.5 6.3 6 4.1 C7.1 3.1 8.4 2.3 9.6 1.7 C15.7 -0.9 29 2.5 38.7 8.5 C42.4 10.8 40.9 12.1 43.1 14.9 C45 17.3 50.8 21.1 50.8 23.7 z M49.2 23.3 C49.2 20.9 43.8 17.3 42 15.1 C39.9 12.5 41.3 11.3 37.9 9.1 C28.8 3.5 20.3 1.2 13.6 1.7 C12.2 1.7 8.3 2.7 7.3 3.6 C5 5.7 2.3 9.4 2 12.3 C1.8 13.7 4.7 10.5 4.7 11.9 C4.8 13.6 2.4 20.8 2.7 22.2 C2.9 23.3 4.7 21 4.9 22 C5 22.2 5.3 25.7 5.6 28.4 C5.9 31.1 6 33.3 6.3 33.7 C6.7 34.3 7.5 31.2 8.7 31.1 C8.9 31.4 8.6 34.3 8.7 35.2 C9 37.3 9.4 39.6 9.8 40.3 C10.2 41 12.2 45.4 12.5 46.1 C13.2 47.3 13.5 42.6 14.2 43.9 C14.9 45.1 16 51.2 16.6 52.7 C12.7 54.1 8.3 54.2 6.7 56.2 C5.2 58.2 4.5 57.8 4.5 59.3 C4.5 60.9 4.6 60.2 5.6 61.1 C5.8 61.2 5.5 61.1 6.6 61.1 C7.2 61.1 6.8 61.9 7.6 61.9 C8.8 61.9 7.9 62.6 9.5 62.5 C10.2 62.5 14.6 62.5 15.4 62.5 C24.8 62 39.3 60.5 40.2 58.9 C42 54.2 36.8 52.5 42.1 44.6 C43.2 42.8 43.4 36 44.7 38.2 C46 40.4 44.8 34.1 45.7 32.7 C46.5 31.6 48.8 32.9 49.2 31.1 C49.6 29.9 49.2 24.9 49.2 23.3 z" opacity="0.15" id="j" /></g><g transform="translate(218.3, 275.3) scale(1.074627) translate(-218.3, -275.3) translate(95.7, 76.39996) translate(107.5, 169) scale(-1, 1) translate(-107.5, -169) translate(82, 136)" id="k"><path d="M50.2 23.7 C50.2 21.1 44.4 17.3 42.5 14.9 C40.3 12.1 41.8 10.8 38.1 8.5 C28.3 2.5 15 -0.8 8.9 1.8 C7.7 2.4 6.4 3.2 5.3 4.2 C3.9 5.4 1 8.7 0.3 10.3 C-0.3 11.6 2.9 9.8 2.7 11.2 C2.6 11.8 0.5 13.5 1.1 19.9 C1.4 23.1 2.5 26.1 2.7 26.7 C2.8 26.9 3.5 23.4 3.6 23.7 C4 25.4 3.5 30.2 3.9 31.3 C3.9 33.3 4.6 35.1 5.7 38.3 C6.1 38.9 8.2 36 9.5 36 C9.7 36.4 9.1 37.3 8.9 38.3 C8.7 39.5 8.9 41 8.9 42.4 C8.9 44.4 11.4 48.5 11.8 49.1 C12.5 50.4 12.5 45.9 13.3 47.3 C14 48.6 13.3 50 14 51.5 C9.8 53 5.7 53.6 3.9 55.8 C2.3 57.9 2.4 60.6 2.4 62.2 C2.4 63.9 2.5 63.2 3.6 64.1 C3.8 64.2 3.5 64.1 4.7 64.1 C5.3 64.1 4.9 65 5.8 65 C7.1 65 6.1 65.7 7.8 65.6 C8.6 65.6 13.2 65.6 14.1 65.6 C24.2 65.1 39.7 63.5 40.6 61.8 C42.5 56.8 37 55 42.6 46.5 C43.8 44.6 44 37.3 45.4 39.7 C46.8 42.1 45.5 35.3 46.5 33.8 C47.4 32.6 49.8 34 50.2 32.1 C50.5 30.7 50.2 25.4 50.2 23.7 z" id="l" fill="#9B5526" /><path d="M50.2 23.7 C50.2 25.4 50.5 30.7 50.2 32.1 C49.8 34 47.4 32.6 46.5 33.8 C45.5 35.3 46.8 42.1 45.4 39.7 C44 37.3 43.8 44.6 42.6 46.5 C37 55 42.5 56.8 40.6 61.8 C39.7 63.5 24.2 65.1 14.1 65.6 C13.2 65.6 8.6 65.6 7.8 65.6 C6.1 65.7 7.1 65 5.8 65 C4.9 65 5.3 64.1 4.7 64.1 C3.5 64.1 3.8 64.2 3.6 64.1 C2.5 63.2 2.4 63.9 2.4 62.2 C2.4 60.6 2.3 57.9 3.9 55.8 C5.7 53.6 9.8 53 14 51.5 C13.3 50 14 48.6 13.3 47.3 C12.5 45.9 12.5 50.4 11.8 49.1 C11.4 48.5 8.9 44.4 8.9 42.4 C8.9 41 8.7 39.5 8.9 38.3 C9.1 37.3 9.7 36.4 9.5 36 C8.2 36 6.1 38.9 5.7 38.3 C4.6 35.1 3.9 33.3 3.9 31.3 C3.5 30.2 4 25.4 3.6 23.7 C3.5 23.4 2.8 26.9 2.7 26.7 C2.5 26.1 1.4 23.1 1.1 19.9 C0.5 13.5 2.6 11.8 2.7 11.2 C2.9 9.8 -0.3 11.6 0.3 10.3 C1 8.7 3.9 5.4 5.3 4.2 C6.4 3.2 7.7 2.4 8.9 1.8 C15 -0.8 28.3 2.5 38.1 8.5 C41.8 10.8 40.3 12.1 42.5 14.9 C44.4 17.3 50.2 21.1 50.2 23.7 z M48.6 23.3 C48.6 20.9 43.2 17.3 41.4 15.1 C39.3 12.5 40.7 11.3 37.3 9.1 C28.1 3.5 16.3 -0.4 10.5 2.1 C9.4 2.6 7.8 3.3 6.8 4.3 C5.5 5.4 2.3 7.8 1.7 9.3 C1.1 10.5 4.4 8 4.2 9.3 C4.1 9.9 1.3 11.3 1.8 17.3 C2.1 20.3 2.3 23.6 2.5 24.1 C2.6 24.3 4.9 21 4.9 21.3 C5.3 22.9 4.5 29.9 4.9 31 C4.9 32.9 5.5 32.8 6.6 35.8 C6.9 36.3 8.3 34.2 9.6 33.8 C9.8 33.7 10.2 36.1 10 37 C9.8 38.1 10 39.5 10 40.8 C10 42.7 11.6 45.8 12 46.3 C12.7 47.5 13.4 44.1 14.2 45.4 C14.9 46.6 15.2 51.3 15.9 52.7 C12 54.1 7.6 54 5.9 56.1 C4.4 58.1 4 57.9 4 59.4 C4 61 4.1 60.3 5.1 61.2 C5.3 61.3 5 61.2 6.1 61.2 C6.7 61.2 6.3 62 7.1 62 C8.3 62 7.4 62.7 9 62.6 C9.7 62.6 14.1 62.6 14.9 62.6 C24.4 62.1 38.9 60.6 39.7 59 C41.5 54.3 36.3 52.6 41.6 44.7 C42.7 42.9 42.9 36.1 44.2 38.3 C45.5 40.5 44.3 34.2 45.2 32.8 C46 31.7 48.3 33 48.7 31.2 C48.9 29.9 48.6 24.9 48.6 23.3 z" opacity="0.15" id="m" /></g><g transform="translate(98.00001, 60.59998) translate(25, 71)" id="n"><g id="o"><path d="M69.5 24.8 C69.5 41 72.2 39.3 73.9 43.9 C75.6 48.5 82.5 57.5 83.8 70.3 C85.1 83.1 84.4 97 80.4 108.7 C76.4 120.4 79.3 141.6 69.6 144.3 C69.3 144.4 37.7 147.4 26 144.3 C13.8 141.1 19.8 128.1 14.4 110.8 C9 93.5 8.1 84.8 8.4 70.4 C8.7 56 18.7 48.8 20.5 43.9 C22.3 39 24.6 37.2 24.6 24.8 C24.6 12.4 32.6 5.4 50.1 5.9 C55.4 5.9 69.5 8.4 69.5 24.8 z" id="p" fill="#453D37" /><g id="q"><path d="M8.7 40.5 C8.6 41.2 8.6 42.1 8.7 43.4 C8.9 47.3 7 51.1 5.3 55.1 C2.8 61.3 -0.1 70.5 -0.5 75.6 C-1.7 88.9 2 96.6 7.7 113.6 C13.4 130.6 13.9 141.5 16.6 144 C19.3 146.5 37.2 147 46.6 147.3 C56 147.6 76.8 145.7 78.6 144 C80.4 142.3 83.4 124.7 86.4 117.4 C89.4 110.1 93.5 86.6 93.8 78 C94.1 68.2 90.7 59.4 87.8 54.9 C86.1 52.3 81.6 45.5 84 40 C84.2 38.6 59.2 38.8 8.7 40.5 z" id="r" fill="#EFE9E6" /><path d="M9.3 30.9 C7.8 37.9 9.4 42.3 7.8 47.1 C9.2 48.8 16.3 61 21.5 66.4 C26.2 71.1 33 77.2 37.6 80.6 C42.2 84 44.6 86.3 46.9 86.4 C49.2 86.5 56.7 80.6 59.8 78.4 C62.8 76.1 69.6 70.5 75.4 62.4 C80.6 55.2 83.7 49.8 84.4 48.9 C85.9 46.9 84.6 45.8 84.5 37 C84.4 29.2 61.8 29.3 51.2 29.5 C40.6 29.7 12.2 25.2 9.3 30.9 z" id="s" fill="#46494D" /><path d="M11.6 21.9 C10.3 23.4 9.6 28.3 10.3 33.6 C11 38.9 18.6 50.6 25.6 58.1 C32.6 65.6 44.2 74.4 47.4 74.5 C49.9 74.6 60.4 67.3 68.8 59.7 C77.2 52.1 81.8 36.2 82.3 32.4 C83.1 27.2 82.5 22.7 80.9 21.2 C77.9 18.5 76.2 -0.6 46.5 -0.6 C17.2 -0.6 14.2 18.9 11.6 21.9 z" id="t" fill="#EFE9E6" /></g><path d="M10 30 C9.9 26.2 10.6 22.9 11.6 21.8 C14.2 18.8 17.3 -0.7 46.7 -0.7 C76.3 -0.6 78 18.5 81 21.2 C82.6 22.7 83.2 27.2 82.4 32.4 C82.4 32.7 82.3 33.1 82.2 33.5 C83.6 34.5 84.5 35.7 84.5 37.2 C84.6 45.9 85.9 47.1 84.5 49 C85.5 51.5 86.9 53.7 87.7 54.9 C90.6 59.4 94 68.2 93.7 78 C93.4 86.7 89.3 110.2 86.3 117.4 C83.3 124.6 80.3 142.3 78.5 144 C76.7 145.7 55.9 147.6 46.5 147.3 C37.1 147 19.2 146.5 16.5 144 C13.8 141.5 13.3 130.6 7.6 113.6 C1.9 96.6 -1.8 89 -0.6 75.6 C-0.2 70.5 2.7 61.3 5.2 55.1 C6.3 52.6 7.4 50.1 8.1 47.7 C7.9 47.5 7.8 47.3 7.7 47.2 C9.3 42.3 7.7 37.9 9.2 31 C9.5 30.6 9.7 30.3 10 30 z M11.4 30.6 C11.1 30.9 10.9 31.1 10.7 31.5 C9.3 38.2 10.8 42.5 9.3 47.1 C9.4 47.2 9.5 47.4 9.7 47.6 C9.1 50 8 52.4 6.9 54.8 C4.5 60.8 1.7 69.6 1.3 74.6 C0.1 87.3 3.6 94.7 9.1 111 C14.6 127.3 15.1 137.9 17.7 140.3 C20.3 142.7 37.5 143.2 46.6 143.5 C55.7 143.8 75.7 142 77.4 140.3 C79.1 138.7 82 121.7 84.9 114.7 C87.8 107.7 91.7 85 92 76.6 C92.3 67.2 89 58.7 86.2 54.3 C85.4 53.1 84.1 51.1 83.1 48.6 C84.5 46.7 83.2 45.6 83.1 37.2 C83.1 35.8 82.3 34.6 80.9 33.7 C81 33.3 81.1 32.9 81.1 32.6 C81.9 27.6 81.3 23.3 79.8 21.8 C76.9 19.3 75.3 0.9 46.7 0.9 C18.4 0.9 15.4 19.7 12.9 22.6 C11.9 23.9 11.3 27 11.4 30.6 z" opacity="0.15" id="u" /></g></g><g transform="translate(129.0219, 180.45) scale(0.8303014, 0.9555969) translate(-120.8, -178.6) translate(87.80001, 76.99998) translate(33, 103)" id="v"><g id="w"><path d="M48.8 34 C46.6 34 38.7 32 37.5 31.2 C33.2 28.2 31.8 27.2 27.1 23 C25.9 21.9 24.3 16.5 22.7 14.9 C17.2 9.4 9.6 -1.4 5.4 0.3 C5 0.5 4.3 2.6 3.8 3.9 C1.9 8.4 1.4 11.6 0.7 18 C0 24.4 1.5 39.1 2.2 43.1 C3.6 50.8 5.5 55.4 7.4 65.5 C9.3 75.6 10.8 87.1 9.2 89 C8.5 89.9 2.7 94.1 1.4 97.9 C1.1 98.8 1.4 103 2.6 104.9 C3.7 106.7 12 106.1 14.5 106.1 C19.4 106.1 28.6 105.2 30.9 103.9 C33.2 102.6 34.8 98.1 34.7 94.5 C34.6 90.9 32.3 75.9 32.9 59.9 C33 51.7 31.9 44 34 41.4 C34.5 40.8 36.1 42.5 37.6 43.7 C39.5 45.3 41.4 46.7 43.1 47.7 C46 49.4 47.8 50.4 48 50.4 C48.5 50.4 49.3 50.2 50.2 49.8 C51.5 49.3 53.2 48.9 54.5 48 C55.8 47.2 57.8 45.9 58.5 45.5 C60.8 43.9 63.1 41.5 64 42.4 C66.6 45 64.8 50.8 65.1 59.8 C65.7 75.7 63.5 90.8 63.3 94.4 C63.1 98 64.7 102.5 67.1 103.8 C69.5 105.1 78.6 106 83.5 106 C85.9 106 94.2 106.6 95.4 104.8 C96.5 102.9 96.9 98.8 96.6 97.8 C95.2 94 89.5 89.8 88.8 88.9 C87.2 87 88.8 72.3 90.7 62.2 C92.6 52.1 93.9 48.1 95.3 40.4 C96 36.4 96.9 24.8 96.9 18.8 C96.7 12.8 95.1 5.6 93.5 2.6 C92.9 0.9 93.1 -0.6 91.8 0.3 C89.4 2 84.5 7.4 82 10.8 C80.1 13.4 77.3 14.7 74.4 18 C72.3 20.3 70.4 25.9 68.5 27.6 C63.9 31.6 51 34 48.8 34 z" id="x" fill="#B76930" /><path d="M5.4 0.1 C5 0.3 4.3 2.4 3.8 3.7 C1.9 8.2 1.4 11.4 0.7 17.8 C0 24.2 1.4 38.9 2.1 43 C2.1 43.1 2.1 43.2 2.2 43.3 C2.6 43.2 4.1 45 5.4 45.1 C7.1 45.3 8.5 43.7 8.7 41.5 C8.8 39.1 6.9 35.4 6.9 31.3 C6.8 24.8 8.8 17.5 10.6 14 C12.9 9.7 10.5 4.6 8.7 1.2 C7.4 0.2 6.3 -0.2 5.4 0.1 z" id="y" fill="#FEFEFE" /><path d="M95.3 40.4 C96 36.4 96.9 24.8 96.9 18.8 C96.7 12.8 95.1 5.6 93.5 2.6 C92.9 0.9 93.1 -0.6 91.8 0.3 C91 0.8 90.1 1.8 89.1 3 C87.5 6.3 86.1 10.5 88 14.2 C89.8 17.6 89.9 27.7 89.1 34.9 C88.6 39.3 87.4 41.4 87.5 43.7 C87.9 50 93.5 46.7 94.1 46.3 C94.1 45.9 95.2 40.8 95.3 40.4 z" id="z" fill="#FEFEFE" /><g id="a1"><path d="M48.8 34 C51 34 63.9 31.6 68.5 27.6 C70.4 25.9 72.3 20.3 74.4 18 C77.3 14.7 80.1 13.4 82 10.8 C84.5 7.4 89.4 2 91.8 0.3 C93.1 -0.6 92.9 0.9 93.5 2.6 C95.1 5.6 96.7 12.8 96.9 18.8 C96.9 24.8 96 36.4 95.3 40.4 C93.9 48.1 92.6 52.1 90.7 62.2 C88.8 72.3 87.2 87 88.8 88.9 C89.5 89.8 95.2 94 96.6 97.8 C96.9 98.8 96.5 102.9 95.4 104.8 C94.2 106.6 85.9 106 83.5 106 C78.6 106 69.5 105.1 67.1 103.8 C64.7 102.5 63.1 98 63.3 94.4 C63.5 90.8 65.7 75.7 65.1 59.8 C64.8 50.8 66.6 45 64 42.4 C63.1 41.5 60.8 43.9 58.5 45.5 C57.8 45.9 55.8 47.2 54.5 48 C53.2 48.9 51.5 49.3 50.2 49.8 C49.3 50.2 48.5 50.4 48 50.4 C47.8 50.4 46 49.4 43.1 47.7 C41.4 46.7 39.5 45.3 37.6 43.7 C36.1 42.5 34.5 40.8 34 41.4 C31.9 44 33 51.7 32.9 59.9 C32.3 75.9 34.6 90.9 34.7 94.5 C34.8 98.1 33.2 102.6 30.9 103.9 C28.6 105.2 19.4 106.1 14.5 106.1 C12 106.1 3.7 106.7 2.6 104.9 C1.4 103 1.1 98.8 1.4 97.9 C2.7 94.1 8.5 89.9 9.2 89 C10.8 87.1 9.3 75.6 7.4 65.5 C5.5 55.4 3.6 50.8 2.2 43.1 C1.5 39.1 0 24.4 0.7 18 C1.4 11.6 1.9 8.4 3.8 3.9 C4.3 2.6 5 0.5 5.4 0.3 C9.6 -1.4 17.2 9.4 22.7 14.9 C24.3 16.5 25.9 21.9 27.1 23 C31.8 27.2 33.2 28.2 37.5 31.2 C38.7 32 46.6 34 48.8 34 z M48.8 36 C46.7 36 39.3 33.2 38.1 32.5 C34 29.7 30.6 28.5 26.1 24.5 C25 23.5 22.3 17.6 20.8 16.1 C15.6 10.9 11.8 1.7 7.8 3.3 C7.4 3.5 6.8 5.5 6.3 6.7 C4.5 10.9 4.1 13.9 3.4 20 C2.7 26.1 4.2 39.9 4.8 43.7 C6.1 51 7.9 55.3 9.7 64.8 C11.5 74.3 13.5 86.4 11.9 88.2 C11.9 90.1 4.5 94.9 3.9 96.6 C3.6 97.4 3.9 100.3 5.1 102.1 C6.1 103.8 14 103.2 16.3 103.2 C20.9 103.2 27.9 102.3 30 101 C32.1 99.7 32.8 94.2 32.7 90.8 C32.6 87.4 29.4 71.9 30 56.8 C30.1 49.1 30 39.8 32 37.4 C32.5 36.8 37.5 42 39 43.2 C40.8 44.7 47.9 48.3 48.7 47.9 C49.9 47.4 53.2 46.3 54.4 45.5 C55.6 44.7 59.7 41.6 60.4 41.3 C62.6 39.8 65.1 38.1 66.5 38.1 C68 40.2 67 51 67.3 59.5 C67.9 74.5 64.8 88.8 64.6 92.2 C64.4 95.6 65 99.9 67.3 101.1 C69.6 102.3 76.8 103.2 81.5 103.2 C83.8 103.2 91.5 104.9 92.6 103.2 C93.6 101.4 94.4 98.7 94.1 97.8 C92.8 94.2 87.8 91.8 87.2 90.9 C85.7 89.1 86.5 71.4 88.3 61.9 C90.1 52.4 91.3 48.6 92.6 41.3 C93.3 37.5 94.1 26.6 94.1 20.9 C94 15.1 92.5 8.3 91 5.4 C90.4 3.8 90.6 2.4 89.4 3.2 C87.1 4.8 83.9 10.2 81.6 13.4 C79.8 15.9 76.9 17.5 74.1 20.6 C72.1 22.8 71.2 27.1 69.4 28.7 C65 32.6 50.9 36 48.8 36 z" fill-opacity="0.3" id="b1" /></g></g></g></g><g transform="translate(169.6, 177.7) scale(0.9702231) translate(-169.6, -177.7)" id="c1"><g transform="translate(104.1, 90.99997) translate(25, 0)" id="d1"><path d="M79.4 51 C77.8 37 79 20.9 75.8 15.2 C73.5 11 65.6 1.5 58.8 0.7 C51.9 -0.1 46.6 1.1 40.3 1.1 C34 1.1 28.8 -0.1 21.9 0.7 C15.1 1.5 7.3 11 4.9 15.2 C1.7 20.9 3 37 1.3 51 C0.1 61.5 0 70 2.4 73.7 C11.3 87.6 26.3 89.7 40.3 89.8 C54.3 89.7 69.2 87.6 78.1 73.7 C80.7 70 80.7 61.5 79.4 51 z" id="e1" fill="#B76930" /><path d="M79.4 67.2 C78 66 75.4 69.2 72.6 70 C70 71.2 60.8 76.4 54 76.8 C47.7 77.2 36.2 77.4 27.4 76.3 C16.6 74.9 9.1 70.2 8.2 69.9 C5.4 69.2 2.8 66 1.4 67.1 C1.3 67.2 1.2 67.3 1.1 67.5 C1.2 70.1 1.6 72.3 2.5 73.7 C6.1 79.3 10.4 83.8 15.8 85.4 C17.9 86 23.7 88.9 32.2 89.8 C39.3 90.6 44.3 90.1 50.5 89.3 C53.1 88.9 60.7 87.5 65 85.5 C69.6 83.3 74.7 79.4 78.3 73.8 C79.2 72.4 79.6 70.3 79.7 67.6 C79.7 67.4 79.5 67.3 79.4 67.2 z" id="f1" fill="#9B5526" /><path d="M79.4 51 C80.7 61.5 80.7 70 78.1 73.7 C69.2 87.6 54.3 89.7 40.3 89.8 C26.3 89.7 11.3 87.6 2.4 73.7 C0 70 0.1 61.5 1.3 51 C3 37 1.7 20.9 4.9 15.2 C7.3 11 15.1 1.5 21.9 0.7 C28.8 -0.1 34 1.1 40.3 1.1 C46.6 1.1 51.9 -0.1 58.8 0.7 C65.6 1.5 73.5 11 75.8 15.2 C79 20.9 77.8 37 79.4 51 z M77.8 49.8 C76.3 36.3 77.5 20.9 74.4 15.4 C72.2 11.4 64.6 2.2 58.1 1.5 C51.4 0.7 46.4 1.9 40.3 1.9 C34.3 1.9 29.3 0.7 22.6 1.5 C16.1 2.2 8.6 11.4 6.3 15.4 C3.2 20.9 4.5 36.3 2.9 49.8 C1.7 59.8 1.6 68 3.9 71.6 C12.5 84.9 26.9 86.9 40.3 87 C53.7 86.9 68 84.9 76.6 71.6 C79.1 68 79.1 59.8 77.8 49.8 z" opacity="0.15" id="g1" /></g><g transform="translate(93.89999, 63.59996) translate(24, 0)" id="h1"><g id="i1"><path d="M32.4 15.8 C31.9 16.9 31.5 18.3 31.2 19.7 C31.1 19.5 31.1 19.3 31 19.1 C31 16.4 30.1 13.7 29.5 10.7 C29.1 11.4 28.7 12.1 28.4 12.9 C27.7 10 25.9 7.3 23.5 5.6 C23.8 6.7 24 7.7 24.2 8.6 C21.4 5.9 18.1 3.6 14.7 1.5 C13.2 0.6 11 -0.1 9.8 1.1 C9.2 1.7 9 2.6 8.8 3.4 C7.5 9.1 3.8 22.2 2.9 31.5 C2.5 30.6 2.2 29.6 1.8 28.7 C0.1 32.4 0.8 37 3.3 40.2 C3.4 40.7 3.6 41.2 3.8 41.7 C2.8 41.3 1.7 40.9 0.7 40.5 C2.1 44 5 46.8 8.5 48.2 C9.7 49.1 11 49.7 12.5 49.9 C16.2 50.3 19.5 49 25.4 42.2 C29.8 37.1 31.2 35 31.7 32.1 C36.8 26.6 33.7 18.8 32.4 15.8 z" id="j1" fill="#9B5526" /><path d="M32.4 15.8 C33.7 18.8 36.8 26.6 31.7 32.1 C31.2 35 29.8 37.1 25.4 42.2 C19.5 49 16.2 50.3 12.5 49.9 C11 49.7 9.7 49.1 8.5 48.2 C5 46.8 2.1 44 0.7 40.5 C1.7 40.9 2.8 41.3 3.8 41.7 C3.6 41.2 3.4 40.7 3.3 40.2 C0.8 37 0.1 32.4 1.8 28.7 C2.2 29.6 2.5 30.6 2.9 31.5 C3.8 22.2 7.5 9.1 8.8 3.4 C9 2.6 9.2 1.7 9.8 1.1 C11 -0.1 13.2 0.6 14.7 1.5 C18.1 3.6 21.4 5.9 24.2 8.6 C24 7.7 23.8 6.7 23.5 5.6 C25.9 7.3 27.7 10 28.4 12.9 C28.7 12.1 29.1 11.4 29.5 10.7 C30.1 13.7 31 16.4 31 19.1 C31.1 19.3 31.1 19.5 31.2 19.7 C31.5 18.3 31.9 16.9 32.4 15.8 z M32.5 17 C32 18 31.7 19.9 31.4 21.2 C31.3 21 30.1 18.7 30 18.6 C30 16.1 29.8 14.9 29.3 12.1 C28.9 12.8 28.5 13.6 28.3 14.4 C27.6 11.7 26.4 8.4 24.2 6.8 C24.5 7.9 24.8 9.3 25 10.1 C22.4 7.6 18.1 4.2 14.9 2.3 C13.5 1.4 11.5 0.5 10.4 1.6 C9.8 2.2 9.6 3.3 9.5 4 C8.7 7.3 7.1 13.5 6 20.8 C5.4 25.1 5.1 30.8 4.8 34 C4.7 33.6 3.9 33.6 3.3 32.9 C2.7 32.1 2.2 30.8 2 30.3 C0.4 33.8 1.8 36.2 4.1 39.2 C4.2 39.7 5.4 42.5 5.6 43 C4.7 42.6 2.9 42.1 2 41.7 C3.3 44.9 5.8 45 9 46.3 C10.2 47.1 12.1 47.4 13.5 47.6 C16.9 48 19.4 46.2 24.8 39.9 C28.9 35.2 30.2 33.3 30.6 30.6 C35.4 25.5 33.7 19.8 32.5 17 z" opacity="0.15" id="k1" /><path d="M12 27.6 C12.7 24.3 13.6 21.1 13.6 17.7 C20.2 19.8 25.3 25.9 26.4 32.7 C26.6 33.9 26.2 35.1 25.5 36 C24.1 37.7 21.7 40.6 20.3 42.2 C19.5 43.2 18.1 43.6 16.9 43.1 C14.6 42.2 12.7 39.9 11.9 37.5 C10.9 34.4 11.3 30.9 12 27.6 z" id="l1" fill="#B76930" /></g></g><g transform="translate(111.7, 63.59996) translate(92.5, 25) scale(-1, 1) translate(-92.5, -25) translate(75, 0)" id="m1"><g id="n1"><path d="M0.6 40.5 C1.6 40.9 2.7 41.3 3.7 41.7 C3.5 41.2 3.3 40.7 3.2 40.2 C0.7 37 0 32.4 1.7 28.7 C2.1 29.6 2.4 30.6 2.8 31.5 C3.8 22.2 7.5 9.1 8.7 3.4 C8.9 2.6 9.1 1.7 9.7 1.1 C11 -0.1 13.1 0.6 14.6 1.5 C18.1 3.6 21.4 5.9 24.1 8.6 C24 7.7 23.7 6.7 23.4 5.6 C25.8 7.4 27.6 10 28.3 12.9 C28.6 12.1 29 11.4 29.4 10.7 C29.9 13.7 30.9 16.4 30.9 19.1 C31 19.3 31 19.5 31.1 19.7 C31.4 18.3 31.8 16.9 32.3 15.8 C33.6 18.8 36.7 27.6 31.6 32 C31.1 34.9 29.7 37.1 25.3 42.1 C19.4 48.8 16.1 50.2 12.4 49.8 C11 49.6 9.6 49 8.4 48.1 C4.9 46.8 2 44 0.6 40.5 z" id="o1" fill="#9B5526" /><path d="M0.6 40.5 C1.6 40.9 2.7 41.3 3.7 41.7 C3.5 41.2 3.3 40.7 3.2 40.2 C0.7 37 0 32.4 1.7 28.7 C2.1 29.6 2.4 30.6 2.8 31.5 C3.8 22.2 7.5 9.1 8.7 3.4 C8.9 2.6 9.1 1.7 9.7 1.1 C11 -0.1 13.1 0.6 14.6 1.5 C18.1 3.6 21.4 5.9 24.1 8.6 C24 7.7 23.7 6.7 23.4 5.6 C25.8 7.4 27.6 10 28.3 12.9 C28.6 12.1 29 11.4 29.4 10.7 C29.9 13.7 30.9 16.4 30.9 19.1 C31 19.3 31 19.5 31.1 19.7 C31.4 18.3 31.8 16.9 32.3 15.8 C33.6 18.8 36.7 27.6 31.6 32 C31.1 34.9 29.7 37.1 25.3 42.1 C19.4 48.8 16.1 50.2 12.4 49.8 C11 49.6 9.6 49 8.4 48.1 C4.9 46.8 2 44 0.6 40.5 z M2.1 41.7 C3.4 44.9 5.7 44.9 8.9 46.1 C9.9 46.9 11.7 47.1 12.9 47.3 C16.2 47.7 19.2 46.4 24.5 40.4 C28.5 35.9 29.7 33.9 30.2 31.3 C34.8 27.4 33.6 21.2 32.4 18.5 C32 19.5 31.4 20.2 31.1 21.5 C31 21.3 30.3 19.9 30.2 19.8 C30.2 17.3 29.7 15.6 29.2 12.9 C28.9 13.6 28.2 13.9 27.9 14.7 C27.3 12 27 10 24.8 8.4 C25.1 9.4 24 9.8 24.1 10.6 C21.7 8.1 17.3 4.3 14.1 2.4 C12.8 1.6 11.4 0.7 10.2 1.8 C9.7 2.3 9 5.2 8.9 5.9 C7.8 11 4.4 26 3.5 34.4 C3.1 33.6 2.1 31 1.7 30.2 C0.2 33.5 1.4 35.7 3.7 38.6 C3.7 39.1 4.8 42.2 5 42.6 C4.1 42.3 3 42.1 2.1 41.7 z" opacity="0.15" id="p1" /><path d="M12 27.6 C12.7 24.3 13.6 21.1 13.6 17.7 C20.2 19.8 25.3 25.9 26.4 32.7 C26.6 33.9 26.2 35.1 25.5 36 C24.1 37.7 21.7 40.6 20.3 42.2 C19.5 43.2 18.1 43.6 16.9 43.1 C14.6 42.2 12.7 39.9 11.9 37.5 C10.9 34.4 11.3 30.9 12 27.6 z" id="q1" fill="#B76930" /></g></g><g id="r1"><g transform="translate(96.3, 58.09997) translate(49, 49)" id="s1"><path d="M4.9 47.3 C3.6 44.4 4 38.4 6.2 35.6 C7.4 34.1 9.4 31.1 12.6 29.9 C15.5 28.7 19.3 29.2 23.6 29.2 C27.7 29.2 29.8 28.7 32.4 29.6 C35.4 30.7 38.4 33.2 39.9 35.6 C42.6 39.9 42.1 45.1 40.5 47.3 C39.8 48.3 37.6 51.5 35.2 51.8 C32.2 52.2 28.5 50.1 24.2 50.1 C20.6 50.1 16.7 51.9 13.2 51.8 C9 51.6 5.6 48.9 4.9 47.3 z" id="t1" fill="#EFE9E6" /><path d="M14.9 29.3 C14.4 29.4 13.9 29.5 13.5 29.7 C10.6 30.9 8.7 33.6 7.6 35 C5.5 37.6 5.2 43.1 6.4 45.8 C7 47.3 10.2 49.8 14 49.9 C17.2 50 20.9 48.4 24.1 48.4 C28.1 48.4 31.5 50.3 34.3 49.9 C36.5 49.6 38.5 46.7 39.1 45.8 C40.5 43.7 41 39 38.5 35 C37.2 32.9 34.4 30.5 31.6 29.5 C31.3 29.4 30.9 29.3 30.6 29.2 C31.2 29.3 31.8 29.4 32.4 29.6 C35.4 30.7 38.4 33.2 39.9 35.6 C42.6 39.9 42.1 45.1 40.5 47.3 C39.8 48.3 37.6 51.5 35.2 51.8 C32.2 52.2 28.5 50.1 24.2 50.1 C20.6 50.1 16.7 51.9 13.2 51.8 C9 51.7 5.6 48.9 4.9 47.3 C3.6 44.4 4 38.4 6.2 35.6 C7.4 34.1 9.4 31.1 12.6 29.9 C13.3 29.6 14.1 29.4 14.9 29.3 z" opacity="0.15" id="u1" /><g opacity="0.4" transform="translate(6, 34)" id="v1"><circle cx="29.5" cy="11.5" r="1" opacity="0.4" id="w1" /><circle cx="24.5" cy="12.5" r="1" opacity="0.4" id="x1" /><circle cx="5.5" cy="11.5" r="1" opacity="0.4" id="y1" /><circle cx="10.5" cy="11.5" r="1" opacity="0.4" id="z1" /><circle cx="4.5" cy="4.5" r="1" opacity="0.4" id="a2" /><circle cx="32.5" cy="7.5" r="1" opacity="0.4" id="b2" /><circle cx="27.5" cy="8.5" r="1" opacity="0.4" id="c2" /><circle cx="6.5" cy="7.5" r="1" opacity="0.4" id="d2" /><circle cx="2.5" cy="8.5" r="1" opacity="0.4" id="e2" /><circle cx="30.5" cy="4.5" r="1" opacity="0.4" id="f2" /></g><path d="M16.9 41.4 C18.5 43.3 19.1 45.2 18.8 47.1 C18.5 49 17.2 50.4 15.1 51.4 C16.4 51.1 17.3 50.8 17.9 50.7 C19 50.4 19.9 50 20.8 49.9 C21.7 49.7 22.6 49.7 23.3 49.7 C24.2 49.7 25 49.8 26.1 50 C26.7 50.1 27.3 50.4 28.4 50.7 C28.9 50.8 29.8 51 31 51.3 C28.9 50.1 27.7 48.7 27.5 47.2 C27.3 45.7 27.9 43.8 29.4 41.4 C26.7 42.9 24.7 43.7 23.4 43.7 C22.1 43.7 19.8 42.9 16.9 41.4 z" opacity="0.15" id="g2" /></g><g transform="translate(169.3999, 164.2) scale(1.4) translate(-169.3999, -158.2) translate(-285.9, 37.29997) translate(64, 110)" id="h2"><path d="M391.8 5.8 C391 5.7 390.6 5.8 390.4 6.1 C390.3 6.3 390.7 7.4 390.3 8.6 C390.2 8.9 389.9 9.3 389.4 9.8 C388.7 10 388.2 10.1 387.8 10.1 C387.2 10.1 385.6 9.5 384.5 9.5 C383.8 9.4 383.5 9.7 383.6 10.3 L384.8 11.1 C386.2 11.7 387.2 12 387.8 12.2 C389.3 12.5 390.4 12.5 391.1 12.4 C391.6 12.4 392.6 12.5 394.1 12.2 C394.8 12.1 396 11.8 397.7 11.3 C398.4 10.7 398.5 10.3 398 10.1 C397.2 9.8 395.8 10.1 394.8 10.1 C394.1 10.1 393.4 10.1 392.6 10.1 C392.2 9.4 391.9 8.8 391.8 8.5 C391.7 8.2 391.7 7.3 391.8 5.8 z" id="i2" fill="#1F2123" /></g><g transform="translate(109.9, 89.09997) translate(49, 48)" id="j2"><g id="k2"><path d="M19.3 2.5 C16.1 -0.7 10.5 2 10.5 2 C10.5 2 4.9 -0.7 1.7 2.5 C-3 7.2 6.6 13.8 10.5 15.3 C14.4 13.8 24 7.2 19.3 2.5 z" id="l2" fill="#282421" /><path d="M14.2 2.5 C12.8 2.8 11.6 3.7 10.1 3.4 C8.7 3.1 8.8 3.3 7.7 2.6 C6.3 1.8 4.6 1.5 3.7 2.1 C2.9 2.6 2.1 3.5 2.8 4.2 C3.5 5 5 4.9 6.5 4.8 C7.2 4.8 9.9 4.9 10.4 4.8 C11.6 4.9 13.5 5.6 15 4.7 C16.4 4 15.8 2.1 14.2 2.5 z" id="m2" fill="#FFF" /></g></g><g transform="translate(96.29999, 58.09996) translate(41, 42)" id="n2"><path d="M6.1 10.9 C6.7 10.4 7.5 10.8 8.5 12.2 C10 14.3 10.8 18 13.2 19.3 C15.6 20.6 18.9 19.9 20.4 19.3 C21.9 18.7 24.8 14.6 23.7 10.9 C23 8.4 21.3 6.3 18.6 4.5 L19.5 6.7 L15.5 6.1 L16.3 7.4 C12.9 7.8 10.6 8.2 9.4 8.5 C8.3 9 7.2 9.8 6.1 10.9 z" id="o2" fill="#FFF" /><g transform="translate(0, 10)" id="p2"><path d="M21.9 14.6 C21 11.9 19.7 8.3 17.5 6.4 C15.3 4.5 10.7 3.9 9 4.5 C7.7 5 6.1 7.4 4.6 8.5 C4.2 8.9 3.1 8.7 3 9 C2.3 10.8 6.8 15.2 8.3 16 C11.2 17.5 16.3 17.8 20.2 17.1 C21.7 17 21.5 15.8 21.9 14.6 z" id="q2" fill="#ABAFB2" /><g transform="translate(11.16316, 7.522936) scale(-1, 1) translate(-11.16316, -7.522936) translate(3.163158, 3.022936)" id="r2"><path d="M-1.1 8.4 C0.1 6.4 2.1 4.5 4.4 4.2 C6.7 3.9 8.9 4 10.7 5.4 C12.5 6.8 12.5 7.5 13.3 8.1 C14 8.8 12.5 10.5 9.7 11.4 C6.9 12.3 4.5 13 1.9 12.5 C-0.8 12.1 -1.2 11.9 -1.6 11.4 C-2 10.9 -2.4 10.5 -1.1 8.4 z" id="s2" fill="#FBFBFB" /><g id="t2"><path d="M5.2 4.1 C6.3 5 7 6.4 7 8 C7 10.1 5.7 12 3.8 12.8 C3.2 12.8 2.6 12.8 2 12.6 C-0.7 12.2 -1.1 12 -1.5 11.5 C-1.9 11 -2.3 10.6 -1.1 8.5 C0.1 6.4 2 4.5 4.4 4.2 C4.6 4.2 4.9 4.1 5.2 4.1 z" id="u2" /></g></g><path d="M11.8 11.3 C12.8 12.4 15.1 10.8 15.1 9.9 C15.1 9 14.1 8.2 12.8 8.2 C11.5 8.2 10.5 9 10.5 9.9 C10.5 10.8 10.9 10.2 11.8 11.3 z" id="v2" fill="#FFFEFE" /></g></g><g transform="translate(96.29999, 58.09996) translate(76, 42)" id="w2"><g transform="translate(0.878947, 0.022936)" id="x2"><path d="M20.1 10.9 C19.5 10.4 18.7 10.8 17.7 12.2 C16.2 14.3 15.4 18 13 19.3 C10.6 20.6 7.3 19.9 5.8 19.3 C4.3 18.7 1.4 14.6 2.5 10.9 C3.2 8.4 4.9 6.3 7.6 4.5 L6.6 6.7 L10.6 6.1 L9.9 7.4 C13.3 7.8 15.6 8.2 16.8 8.5 C17.9 9 19 9.8 20.1 10.9 z" id="y2" fill="#FFF" /><path d="M5.3 21.7 C6.2 19 7.5 17.3 9.7 15.4 C11.9 13.5 16.2 13.3 17.9 13.9 C19.1 14.3 21.1 16.4 22.7 17.4 C23.4 17.8 24.1 17.5 24.3 18.1 C25 19.9 21.7 24.1 20.2 24.9 C19.8 25.1 16.7 25.9 14.9 26.4 C12.7 26.9 10.6 26.4 8.3 26.4 C6.9 26.4 5.7 26.3 4.9 25.8 C4.2 25.2 4.8 22.9 5.3 21.7 z" id="z2" fill="#ABAFB2" /><g transform="translate(4, 12)" id="a3"><path d="M3.4 9 C4.7 7 6.2 5.4 8.5 5.1 C10.8 4.8 12.7 5.1 14.2 6 C15.7 6.9 16.5 7.9 17.4 9 C18.3 10.1 16.7 11.3 13.8 12.3 C10.9 13.2 9.1 13.5 6.5 13.5 C3.9 13.5 2.6 13 2.2 12.3 C1.9 11.6 2.1 11.1 3.4 9 z" id="b3" fill="#FBFBFB" /><path d="M10 4.9 C11.6 4.9 13 5.3 14.1 5.9 C15.7 6.8 16.4 7.8 17.3 8.9 C18.2 10 16.7 11.3 13.7 12.3 C12.4 12.7 11.3 13 10.1 13.2 C9 12.4 8 10.8 8 8.9 C8 7.3 8.8 5.8 10 4.9 z" id="c3" /></g><path d="M11.7 21.5 C12.7 22.7 15 20.9 15 19.9 C15 18.9 13.9 18 12.5 18 C11.1 18 10 18.8 10 19.9 C10 21 10.6 20.4 11.7 21.5 z" id="d3" fill="#FFFEFE" /></g></g></g></g></g></g><defs><g transform="translate(17.09519, 0.800995) translate(-135.2952, -293.601)" id="e3" fill="#000"><path d="M118.2 302.7 C118.4 307.4 132.5 311.2 149.8 311.2 C167.1 311.2 181.2 307.4 181.4 302.7 C181.4 307.5 181.4 310.1 181.4 310.5 C181.4 315.3 167.3 319.1 149.8 319.1 C132.3 319.1 118.2 315.2 118.2 310.5 L118.2 302.7 L118.2 302.7 z" fill-opacity="0.4528" id="f3" fill="#593001" /><path d="M118.7 301.7 C118.9 306.4 133 310.2 150.3 310.2 C167.6 310.2 181.7 306.4 181.9 301.7 C181.9 306.5 181.9 309.1 181.9 309.5 C181.9 314.3 167.8 318.1 150.3 318.1 C132.8 318.1 118.7 314.2 118.7 309.5 L118.7 301.7 L118.7 301.7 z" id="g3" fill="#DA8113" /><linearGradient x1="46.0545" y1="-118.6926" x2="45.4656" y2="-118.6926" gradientUnits="userSpaceOnUse" gradientTransform="matrix(117.135, 0, 0, 28.4634, -5208.417, 3687.795)" id="h3"><stop offset="0%" stop-color="#D9952A" stop-opacity="1" /><stop offset="6.438854%" stop-color="#CA7519" stop-opacity="1" /><stop offset="30.54%" stop-color="#E3AD3A" stop-opacity="1" /><stop offset="51.05%" stop-color="#FFEC91" stop-opacity="1" /><stop offset="68.8%" stop-color="#E9BD44" stop-opacity="1" /><stop offset="86.24%" stop-color="#FFED6C" stop-opacity="1" /><stop offset="93.87%" stop-color="#F2D353" stop-opacity="1" /><stop offset="100%" stop-color="#F2B947" stop-opacity="1" /></linearGradient><path d="M118.2 301.6 C118.4 306.1 132.7 309.7 150.3 309.7 C167.9 309.7 182.2 306.1 182.4 301.6 C182.4 306.2 182.4 308.7 182.4 309 C182.4 313.5 168 317.2 150.3 317.2 C132.6 317.2 118.2 313.5 118.2 309 L118.2 301.6 L118.2 301.6 z" id="i3" style="fill:url(#h3)" /><linearGradient x1="45.4914" y1="-117.9547" x2="45.9407" y2="-117.5895" gradientUnits="userSpaceOnUse" gradientTransform="matrix(115.425, 0, 0, 29.925, -5125.077, 3826.124)" id="j3"><stop offset="0%" stop-color="#F4E072" stop-opacity="1" /><stop offset="100%" stop-color="#DB9427" stop-opacity="1" /></linearGradient><ellipse cx="150.3" cy="301.5" rx="31.6" ry="8.2" id="k3" style="fill:url(#j3)" /><linearGradient x1="45.4656" y1="-126.0065" x2="46.0545" y2="-126.0065" gradientUnits="userSpaceOnUse" gradientTransform="matrix(117.135, 0, 0, 18.6219, -5208.417, 2651.479)" id="l3"><stop offset="0%" stop-color="#D9952A" stop-opacity="1" /><stop offset="6.438854%" stop-color="#CA7519" stop-opacity="1" /><stop offset="30.54%" stop-color="#E3AD3A" stop-opacity="1" /><stop offset="51.05%" stop-color="#FFEC91" stop-opacity="1" /><stop offset="68.8%" stop-color="#E9BD44" stop-opacity="1" /><stop offset="86.24%" stop-color="#FFED6C" stop-opacity="1" /><stop offset="93.87%" stop-color="#F2D353" stop-opacity="1" /><stop offset="100%" stop-color="#F2B947" stop-opacity="1" /></linearGradient><path d="M119.2 299.9 C119 300.2 118.9 300.6 118.9 301 C118.9 305.5 132.9 309.2 150.3 309.2 C167.7 309.2 181.7 305.5 181.7 301 C181.7 300.6 181.6 300.3 181.4 299.9 C182 300.5 182.4 301.2 182.4 301.9 C182.4 306.4 168 310.1 150.3 310.1 C132.6 310.1 118.2 306.4 118.2 301.9 C118.2 301.3 118.6 300.6 119.2 299.9 z" id="m3" style="fill:url(#l3)" /><linearGradient x1="45.196" y1="-121.5895" x2="45.3746" y2="-120.6758" gradientUnits="userSpaceOnUse" gradientTransform="matrix(101.745, 0, 0, 23.94, -4458.332, 3199.41)" id="n3"><stop offset="0%" stop-color="#F8DD61" stop-opacity="1" /><stop offset="100%" stop-color="#EAA330" stop-opacity="1" /></linearGradient><ellipse cx="150.3" cy="300.8" rx="27.8" ry="6.6" id="o3" style="fill:url(#n3)" /><linearGradient x1="45.5694" y1="-134.267" x2="45.0221" y2="-134.267" gradientUnits="userSpaceOnUse" gradientTransform="matrix(101.745, 0, 0, 13.2525, -4458.332, 2077.223)" id="p3"><stop offset="0%" stop-color="#F4CA2F" stop-opacity="1" /><stop offset="51.38%" stop-color="#BF7737" stop-opacity="1" /><stop offset="100%" stop-color="#E4A929" stop-opacity="1" /></linearGradient><path d="M122.6 301.5 C122.5 301.3 122.4 301 122.4 300.8 C122.4 297.2 134.9 294.2 150.2 294.2 C165.5 294.2 178 297.1 178 300.8 C178 301 177.9 301.3 177.8 301.5 C176.3 298.2 164.5 295.6 150.1 295.6 C135.7 295.6 124.1 298.2 122.6 301.5 z" id="q3" style="fill:url(#p3)" /></g></defs><desc>79LBHJE4CEG,69VuhluESimKe7iIccXKa/jVt1NXAP5hZ2LEiXh+jORC94a9AaUmoWOJDWRcojzFgy5zaFz26iqnKytFXVHnhB0BPQo1DijCZmBGNhKfbflvJNIoP2oq+R1to3BZwTC4</desc></svg>