<?xml version="1.0" encoding="utf-8"?><!DOCTYPE svg PUBLIC "-//W3C//DTD SVG 1.1//EN" "http://www.w3.org/Graphics/SVG/1.1/DTD/svg11.dtd"><svg x="0" y="0" width="340px" height="340px" viewBox="0, 0, 340, 340" preserveAspectRatio="xMidYMid" font-size="0" id="a" enable-background="new 0 0 340 340" xmlns="http://www.w3.org/2000/svg" xmlns:xlink="http://www.w3.org/1999/xlink" xmlns:xml="http://www.w3.org/XML/1998/namespace" version="1.1"><g id="b" fill="#000"><g transform="translate(210.1952, 245.501)" id="c"><ellipse cx="32.5" cy="17.5" rx="37.3" ry="13.2" opacity="0.15" id="d" /><use xlink:href="#e" x="0.86" y="0" /></g></g><g id="f" fill="#000"><g id="g"><g transform="translate(0, 0) translate(0, 224)" id="h"><ellipse cx="168.6" cy="53.1" rx="57.8" ry="12.8" fill-opacity="0.25" id="i" /></g><g id="j"><g transform="translate(110.1, 106.6) translate(22, 133)" id="k" /><g transform="translate(123.7, 273.0999) scale(1) translate(-123.7, -273.0999) translate(110.1, 106.6) translate(7, 133)" id="l"><g transform="translate(14.5, 18.5) scale(-1, 1) translate(-14.5, -18.5)" id="m"><path d="M10.9 1.8 C19.7 -2.5 29.1 6.3 28.7 13.6 C28.4 21.8 22.8 28.1 12.2 32.4 C4.7 34.3 0.7 34.5 0.5 33 C0 30.7 2.1 6.1 10.9 1.8 z" id="n" fill="#C08A3F" /><path d="M25.5 33.3 C24.2 35.1 22.3 35.9 20.6 36.1 C18.9 36.3 12.9 35.8 11 36.1 C9 36.4 6.2 35.9 6.2 34.2 C6.2 32.5 4.8 27.4 10.5 25.2 C10.9 25.1 12.7 22.4 13.1 22.2 C13.6 22 12.6 24.3 13.1 24.1 C14.2 23.5 15.3 22.8 16.1 21.9 C16.4 21.5 16.7 24.4 17.2 24.4 C17.5 24.4 18.4 23.7 18.6 23.1 C18.8 22.6 18.6 24.6 18.9 24.7 C20.7 25.1 22.1 25.8 22.7 26.2 C25.1 27.9 26.8 31.6 25.5 33.3 z" id="o" fill="#FFF" /><path d="M20.6 25.9 C25.1 22.4 27.6 18.1 27.7 12.9 C28.1 6.1 19.3 -2.1 11.1 1.9 C2.9 5.9 1 28.9 1.4 31 C1.5 32 3.3 32.2 6.7 31.6 C6.7 31.8 6.7 31.9 6.7 32.1 C6.7 33.7 9.3 34.2 11.2 33.9 C13 33.6 18.6 34.1 20.2 33.9 C21.8 33.7 23.6 33 24.8 31.3 C26 29.7 22.9 27.5 20.6 25.9 z M22.6 26.2 C22.7 26.2 22.7 26.2 22.6 26.2 C25.1 27.9 26.8 31.6 25.5 33.3 C24.2 35.1 22.3 35.9 20.6 36.1 C18.9 36.3 12.9 35.8 11 36.1 C9 36.4 6.2 35.9 6.2 34.2 C6.2 34.1 6.2 33.9 6.2 33.7 C2.6 34.3 0.6 34 0.5 33 C0 30.7 2.1 6.1 10.9 1.8 C19.7 -2.5 29.1 6.3 28.7 13.6 C28.5 18.5 26.5 22.7 22.6 26.2 z" opacity="0.15" id="p" /></g></g><g transform="translate(217.7, 273.0999) scale(1) translate(-217.7, -273.0999) translate(110.1, 106.6) translate(99, 151.5) scale(-1, 1) translate(-99, -151.5) translate(84, 133)" id="q"><g transform="translate(15, 18.5) scale(-1, 1) translate(-15, -18.5)" id="r"><path d="M11.2 1.8 C20 -2.5 29.4 6.3 29 13.6 C28.6 21.8 23.1 28.1 12.5 32.4 C5 34.3 1 34.5 0.8 33 C0.3 30.7 2.4 6.1 11.2 1.8 z" id="s" fill="#C08A3F" /><path d="M25.8 33.3 C24.5 35.1 22.6 35.9 20.9 36.1 C19.2 36.3 13.2 35.8 11.3 36.1 C9.3 36.4 6.5 35.9 6.5 34.2 C6.5 32.5 5.1 27.4 10.8 25.2 C11.2 25.1 11.7 25.1 11.9 24.8 C13.3 22.7 14.6 21.1 15.1 20.9 C16.1 20.6 15 24.2 15.8 24.2 C16.3 24.2 17 23.2 18.1 22.4 C19.2 21.6 17.9 24.3 18.4 24.4 C20.4 24.8 22.4 25.5 23 26 C25.4 27.9 27.1 31.6 25.8 33.3 z" id="t" fill="#FFF" /><path d="M23 26 C25.4 27.9 27 31.6 25.8 33.3 C24.5 35.1 22.6 35.9 20.9 36.1 C19.2 36.3 13.2 35.8 11.3 36.1 C9.3 36.4 6.5 35.9 6.5 34.2 C6.5 34.1 6.5 33.9 6.5 33.7 C2.9 34.3 0.9 34 0.8 33 C0.3 30.7 2.4 6.1 11.2 1.8 C20 -2.5 29.4 6.3 29 13.6 C28.8 18.4 26.8 22.6 23 26 z M21.1 25.8 C25.6 20.2 27.9 15.9 28 13 C28.4 6.2 19.6 -2 11.5 2 C3.4 6 1.3 28.8 1.8 31 C1.9 32 3.7 32.2 7.1 31.6 C7.1 31.8 7.1 31.9 7.1 32.1 C7.1 33.7 9.7 34.1 11.6 33.9 C13.4 33.6 18.9 34.1 20.5 33.9 C22.1 33.7 23.8 33 25.1 31.3 C26.2 29.7 23.3 27.6 21.1 25.8 z" opacity="0.15" id="u" /></g></g><g transform="translate(110.1, 106.6) translate(14, 81)" id="v"><path d="M9.9 30.9 C4.8 38.8 -1.2 50.8 6 63.6 C8.7 68.5 11 75 12.2 79.1 C13.7 84.5 18.4 88.5 24 89.2 C30.5 90 37.9 90.4 45.9 90.4 C54.4 90.4 62.1 90 69.2 89.1 C74.9 88.4 79.6 84.3 81 78.8 C82.4 73.6 83.9 67.3 86.2 63.7 C91.5 55.6 87.6 38 79 29.5 C76.9 27.5 73.7 26.7 70.3 24.6 C63.2 20.4 62.4 0.2 43.1 0.8 C26.9 0.6 25.8 21.5 20.7 24.7 C16 27.6 11.8 27.9 9.9 30.9 z" id="w" fill="#F4DFA9" /><path d="M9.9 30.9 C11.8 27.9 16 27.6 20.7 24.7 C25.8 21.5 26.9 0.6 43.1 0.8 C62.4 0.2 63.2 20.4 70.3 24.6 C73.7 26.7 76.9 27.5 79 29.5 C87.6 38 91.5 55.6 86.2 63.7 C83.9 67.3 82.4 73.6 81 78.8 C79.6 84.3 74.9 88.4 69.2 89.1 C62.1 90 54.4 90.4 45.9 90.4 C37.9 90.4 30.5 90 24 89.2 C18.4 88.5 13.7 84.5 12.2 79.1 C11 75 8.7 68.5 6 63.6 C-1.2 50.8 4.8 38.8 9.9 30.9 z M11.6 30.6 C6.7 38.1 1 49.6 7.9 61.8 C10.5 66.5 12.7 72.7 13.8 76.6 C15.2 81.7 19.7 85.6 25 86.2 C31.2 87 38.2 87.3 45.9 87.3 C54 87.3 61.3 86.9 68.1 86.1 C73.5 85.4 78 81.5 79.3 76.3 C80.6 71.3 82.1 65.3 84.3 61.9 C89.4 54.2 85.6 37.4 77.4 29.3 C75.4 27.4 72.3 26.6 69.1 24.6 C62.3 20.6 61.6 1.3 43.2 1.9 C27.8 1.7 26.7 21.6 21.9 24.7 C17.4 27.4 13.4 27.7 11.6 30.6 z" opacity="0.15" id="x" /></g><g transform="translate(110.1, 106.6)" id="y"><path d="M27.3 124.6 C24.3 138.7 29.4 139.8 32.1 151.3 C33.9 158.9 35.4 165.1 36.8 169.9 L48.9 167.7 C48.9 157.8 49.6 152 51 150.1 C53.2 147.3 55.7 147.2 56.8 143.3 C57.5 140.7 56.8 133.5 54.9 127.7 C53.8 124.1 47.6 121.9 45.2 120.8 C40 118.4 35.5 118.8 31.3 114.2 C29.9 112.5 28.1 121.7 27.3 124.6 z" id="z" fill="#F0B756" /><path d="M48.9 158.7 C48.9 161.5 50.4 172.2 48.9 174.2 C47.4 176.2 45.2 177.1 43.2 177.4 C41.2 177.7 34.7 177.3 32.5 177.7 C30.2 178.1 27 174.6 27 172.7 C27 170.8 27.3 165.9 30.4 164.7 C33.5 163.5 26 164.6 35.5 163.3 C36.2 163.2 35.2 157.5 36.1 158.1 C36.6 158.4 39.3 165.3 39.6 164.7 C40.4 163.1 39.8 156.9 40.6 156.7 C41.9 156.4 43.7 161.4 45.5 162.2 C49.6 164 48.9 153.7 48.9 158.7 z" id="a1" fill="#FCF6CA" /><path d="M92 124.6 C95 138.7 89.9 139.8 87.2 151.3 C85.4 158.9 83.9 165.1 82.5 169.9 L70.4 167.7 C70.4 157.8 69.7 152 68.3 150.1 C66.1 147.3 64.5 147.9 63.5 144 C62.8 141.5 62.5 134.7 65 128.4 C66.4 124.9 71.3 122.5 73.8 121.3 C76.5 120.1 80.2 119.9 83.2 118 C85.9 116.3 87.4 111.8 88.9 115.4 C89.7 118.2 90.9 122 92 124.6 z" id="b1" fill="#F0B756" /><path d="M70.4 158.7 C70.4 161.5 68.9 172.2 70.4 174.2 C71.9 176.2 74.1 177.1 76.1 177.4 C78.1 177.7 84.6 177.3 86.8 177.7 C89.1 178.1 92.3 174.6 92.3 172.7 C92.3 170.8 92 165.9 88.9 164.7 C85.8 163.5 93.3 164.6 83.8 163.3 C83.1 163.2 84.1 157.5 83.2 158.1 C82.7 158.4 80 165.3 79.7 164.7 C78.9 163.1 79.5 156.9 78.7 156.7 C77.4 156.4 75.6 161.4 73.8 162.2 C69.7 164 70.4 153.7 70.4 158.7 z" id="c1" fill="#FCF6CA" /><path d="M31.6 114.5 C30.3 113.7 28.7 121.9 28 124.6 C25.1 138 30 139.1 32.6 150 C33.6 154.3 35.6 160.4 36.4 163.8 C28 164.9 34.3 164.4 31.4 165.5 C28.4 166.6 27.9 168.6 27.9 170.4 C27.9 172.2 30.7 175.5 32.9 175.1 C35 174.7 41.2 175.1 43.1 174.8 C45 174.5 46.4 174 47.8 172.1 C48.6 171.1 48.6 166.8 47.8 159.3 C48.1 153.7 49.5 150.2 50.5 148.8 C52.6 146.1 55 146 56 142.3 C56.7 139.8 56 133 54.2 127.4 C53.2 124 47.2 121.9 45 120.8 C40.1 118.6 35.9 118.9 32 114.8 C36 118.6 40.3 118.4 45.2 120.7 C47.6 121.8 53.8 124 54.9 127.6 C56.8 133.4 57.5 140.6 56.8 143.2 C55.7 147.1 53.2 147.2 51 150 C50 151.4 49.3 155 49 160.9 C49.3 165.1 50.1 172.4 48.9 174.1 C47.4 176.1 45.2 177 43.2 177.3 C41.2 177.6 34.7 177.2 32.5 177.6 C30.2 178 27 174.5 27 172.6 C27 170.7 27.3 165.8 30.4 164.6 C33.4 163.4 26.3 164.5 35 163.3 C34.1 159.8 33.1 155.8 32.1 151.2 C29.4 139.7 24.3 138.6 27.3 124.5 C28.1 121.6 29.9 112.4 31.3 114.1 C31.4 114.3 31.5 114.4 31.6 114.5 z" opacity="0.15" id="d1" /><path d="M85 116.4 C84.4 117.1 83.7 117.8 82.9 118.3 C80 120.1 76.5 120.3 73.9 121.4 C71.5 122.5 66.8 124.8 65.5 128.2 C63.1 134.2 63.4 140.7 64.1 143.1 C65.1 146.8 66.6 146.2 68.7 148.9 C69.7 150.3 70.9 154.3 71.1 160 C70.8 164 69.9 170.7 71.1 172.2 C72.5 174.1 74.2 174.6 76.1 174.9 C78 175.2 84.2 174.8 86.3 175.2 C88.5 175.6 91.3 172.3 91.3 170.5 C91.3 168.7 91.3 167.3 88.3 166.2 C85.4 165.1 91.2 165.8 82.9 164.6 L83.9 161.6 C84.8 158.2 85.7 154.4 86.7 150.1 C89.3 139.1 94.1 138.1 91.3 124.6 C90.3 122.1 89.1 118.5 88.3 115.8 C87.5 113.9 86.7 114.4 85.7 115.5 C87 114.1 87.9 113.1 88.8 115.4 C89.6 118.2 90.8 122 91.9 124.6 C94.9 138.7 89.8 139.8 87.1 151.3 C86 155.8 85.1 159.8 84.2 163.4 C93 164.6 85.8 163.6 88.8 164.7 C91.9 165.9 92.2 170.8 92.2 172.7 C92.2 174.6 89 178.1 86.7 177.7 C84.5 177.3 78 177.7 76 177.4 C74 177.1 71.8 176.2 70.3 174.2 C69.1 172.6 69.8 165.3 70.2 161 C69.9 155.1 69.3 151.5 68.2 150.1 C66 147.3 64.4 147.9 63.4 144 C62.7 141.5 62.4 134.7 64.9 128.4 C66.3 124.9 71.2 122.5 73.7 121.3 C76.4 120.1 80.1 119.9 83.1 118 C83.9 117.6 84.5 117 85 116.4 z" opacity="0.15" id="e1" /><path d="M20.3 98.1 C19 103.8 20.5 106.5 21.1 110 C21.5 112.3 22.5 115.5 24 119.6 L25.6 115.8 C26.7 120.6 27.9 123.8 29.1 125.5 C30.3 127.2 32 129.5 34 132.3 L34.7 127.7 C35.9 129.5 37.6 131.8 40 134.7 C42.4 137.5 43.2 138.9 42.6 138.9 L44.7 134.7 C46.3 137.4 47.8 139.5 49.3 140.8 C50.8 142.2 52.9 144 55.7 146.2 L55.7 141.7 C58 144.7 59.6 146.2 60.6 146.2 C61.6 146.2 63.3 144.7 65.9 141.7 L65.9 146.2 C72.8 141.3 76.5 137.9 76.9 136.1 C78.7 137.4 79.6 138.3 79.6 138.9 C81.2 137.4 82.4 135.6 83 133.6 C83.7 131.6 84.7 129.1 86 126.2 L87.7 129.4 C92 124.1 94.7 119.9 95.8 116.7 C97.5 112 100.3 100.3 97.5 92.3 C95.6 87.1 90.2 83.1 81.3 80.5 C67.3 80.5 59.4 80.5 57.5 80.5 C54.7 80.5 41.3 79.7 40 80.5 C39.3 80.9 33.2 80.3 26.5 86.3 C24 88.7 21.6 92.4 20.3 98.1 z" id="f1" fill="#FEFEFF" /><path d="M20.3 98.1 C19 103.8 20.5 106.5 21.1 110 C21.3 112.5 22.4 115.6 24 119.6 L25.6 115.8 C26.7 120.6 27.9 123.8 29.1 125.5 C30.3 127.2 32 129.5 34 132.3 L34.7 127.7 C35.9 129.5 37.6 131.8 40 134.7 C42.4 137.5 43.2 138.9 42.6 138.9 L44.7 134.7 C46.3 137.4 47.8 139.5 49.3 140.8 C50.8 142.2 52.9 144 55.7 146.2 L55.7 141.7 C58 144.7 59.6 146.2 60.6 146.2 C61.6 146.2 63.3 144.7 65.9 141.7 L65.9 146.2 C72.8 141.3 76.5 137.9 76.9 136.1 C78.7 137.4 79.6 138.3 79.6 138.9 C81.2 137.4 82.4 135.6 83 133.6 C83.7 131.6 84.7 129.1 86 126.2 L87.7 129.4 C92 124.1 94.7 119.9 95.8 116.7 C97.5 112 100.3 100.3 97.5 92.3 C95.6 87.1 90.2 83.1 81.3 80.5 C67.3 80.5 59.4 80.5 57.5 80.5 C54.7 80.5 41.3 79.7 40 80.5 C39.3 80.9 33.2 80.3 26.5 86.3 C24 88.7 21.6 92.4 20.3 98.1 z" fill-opacity="0.09629755" id="g1" fill="#010101" /><path d="M98.5 97 C98 102.2 96.7 107 95.8 109.7 C94.7 112.9 92 117.1 87.7 122.4 L86 119.2 C84.7 122.1 83.7 124.6 83 126.6 C82.4 128.6 80.4 125.1 78.8 126.6 C78.8 126 75.9 133.2 75.5 135 C75.1 136.8 72 134.7 70.4 129.8 L67.5 137.4 C64.9 140.4 62.5 133.8 61.5 133.8 C60.9 133.8 60.2 140.7 58.4 139.2 C57.2 138.2 54.2 134.4 53.3 133.2 L52.2 136.7 C49.4 134.5 48.5 129.9 46.9 127.2 L42.1 132.5 C42.6 132.5 39 127.9 38.4 127.2 C36 124.3 36 122.5 34.8 120.7 L34.1 125.3 C32.1 122.5 30.4 120.2 29.2 118.5 C28 116.8 26.8 113.6 25.7 108.8 L24.1 112.6 C22.6 108.5 21.6 105.3 21.2 103 C21 101.5 20.5 100.2 20.3 98.8 C20.3 98.6 20.4 98.3 20.4 98.1 C21.7 92.4 24.1 88.7 26.6 86.3 C33.3 80.3 39.4 80.9 40.1 80.5 C41.4 79.7 54.8 80.5 57.6 80.5 L81.3 80.5 C90.2 83.1 95.6 87.1 97.5 92.3 C98 93.8 98.3 95.4 98.5 97 z" id="h1" fill="#FEFEFF" /><path d="M20.4 97.7 C21.7 92.1 24.1 88.4 26.6 86.1 C33.3 80.2 39.4 80.8 40.1 80.4 C41.4 79.6 54.8 80.4 57.6 80.4 L81.3 80.4 C90.2 83 95.6 86.9 97.5 92 C98 93.5 98.3 95.1 98.5 96.6 C98.5 96.8 98.5 96.9 98.5 97.1 C99.5 104.5 97.3 113.2 95.8 117.1 C94.7 120.3 92 124.4 87.7 129.6 L86 126.4 C84.7 129.3 83.7 131.7 83 133.7 C82.4 135.7 81.2 137.5 79.6 138.9 C79.6 138.3 78.7 137.4 76.9 136.1 C76.5 137.9 72.8 141.2 65.9 146.1 L65.9 141.7 C63.3 144.7 61.6 146.1 60.6 146.1 C59.6 146.1 58 144.6 55.7 141.7 L55.7 146.1 C52.9 143.9 50.8 142.2 49.3 140.8 C47.8 139.5 46.3 137.4 44.7 134.8 L42.6 138.9 C43.2 138.9 42.4 137.5 40 134.8 C37.6 131.9 35.9 129.7 34.7 127.9 L34 132.4 C32 129.6 30.3 127.4 29.1 125.7 C27.9 124 26.7 120.9 25.6 116.1 L24 119.9 C22.4 116 21.3 112.9 21.1 110.4 C20.5 106.9 19 104.3 20.3 98.7 C20.3 98.2 20.4 97.9 20.4 97.7 z M28.6 86.7 C26.3 88.9 23.9 92.3 22.7 96.6 C21.3 101.9 21.5 105.8 22.1 109 C22.3 111.3 22.8 111.1 24.3 114.8 L25.5 113.8 C26.5 118.3 29.8 122.4 30.9 123.9 C32 125.5 31.5 125.1 33.4 127.7 L35.5 124.8 C36.6 126.5 38.9 129.7 41.1 132.4 C43.4 135 43.7 134.7 43.2 134.7 L45.3 131.8 C46.8 134.3 48.4 136.9 49.8 138.1 C51.2 139.4 52 140.5 54.6 142.5 L54.8 138.6 C57 141.4 59.5 143.1 60.4 143.1 C61.3 143.1 64.5 141.9 66.9 139.1 L66.9 142.6 C73.4 138.1 77.1 135.1 77.4 133.4 C79.1 134.6 79.8 135.7 79.8 136.3 C81.3 134.9 80.8 133.2 81.4 131.4 C82.1 129.5 84.1 126 85.3 123.3 L86.7 125.9 C90.7 121 92.4 118.7 93.5 115.7 C94.8 112.1 96.9 103.9 96 96.9 C96 96.8 96 96.6 96 96.5 C95.8 95 95.5 93.5 95.1 92.1 C93.3 87.3 88.2 83.6 79.9 81.2 L57.7 81.2 C55.1 81.2 42.5 80.5 41.3 81.2 C40.6 81.7 34.9 81.1 28.6 86.7 z" fill-opacity="0.09629755" id="i1" fill="#010101" /></g></g><g id="j1"><g transform="translate(110.1, 106.3) translate(11, 26)" id="k1"><path d="M5.5 77 C0.1 65.8 -0.6 51.2 1 39.1 C3.2 27.2 8.5 25.2 15.8 17.9 C23.1 10.6 25.8 0.2 49.1 0.3 C72.3 0.4 73.5 8.3 79.9 14.4 C86.3 20.4 92.4 23.4 96.2 30.6 C100 37.8 101.2 59.8 96.2 71.2 C92 80.9 80.7 92.2 66.3 92.4 C54.5 93 51.9 93.8 40.2 93.8 C28.5 93.8 11.5 88.2 5.5 77 z" id="l1" fill="#FCF6CA" /><path d="M5.5 77 C0.1 65.8 -0.6 51.2 1 39.1 C3.2 27.2 8.5 25.2 15.8 17.9 C23.1 10.6 25.8 0.2 49.1 0.3 C72.3 0.4 73.5 8.3 79.9 14.4 C86.3 20.4 92.4 23.4 96.2 30.6 C100 37.8 101.2 59.8 96.2 71.2 C92 80.9 80.7 92.2 66.3 92.4 C54.5 93 51.9 93.8 40.2 93.8 C28.5 93.8 11.5 88.2 5.5 77 z M7.3 74.8 C13 85.6 29.3 90.9 40.6 90.9 C51.9 90.9 54.3 90.1 65.7 89.6 C79.5 89.4 90.4 78.6 94.4 69.2 C99.2 58.3 98 37.1 94.4 30.2 C90.8 23.3 84.9 20.4 78.7 14.6 C72.6 8.8 71.4 1.2 49.1 1.2 C26.7 1.1 24.1 11.1 17.1 18.1 C10.1 25.1 5 27 2.9 38.4 C1.4 50 2.1 64.1 7.3 74.8 z" opacity="0.15" id="m1" /></g><g transform="translate(138.6, 152.5) rotate(20, 0, 0) scale(0.7) translate(-138.6, -152.5) translate(104.7, 129.8) translate(0, 10)" id="n1"><path d="M34.2 17.4 C32.8 24.5 33.1 32 35.2 39 C35.9 41.5 36.9 44 37.3 46.6 C38.1 52.1 38.1 63 36.3 67.9 C34.1 73.8 24 75.8 20.3 72.4 C15.9 68.4 14.1 57.3 11 52.3 C6.8 45.5 2.5 38.6 1.2 30.7 C0.3 25.3 1 19.3 4.6 15.2 C7.8 11.5 12.7 9.8 17.4 8.3 C20.3 7.4 37.8 -1 39.6 0.8 C40.6 1.7 34.6 15.3 34.2 17.2 C34.2 17.3 34.2 17.4 34.2 17.4 z" id="o1" fill="#C08A3F" /><path d="M34.2 17.4 C32.8 24.5 33.1 32 35.2 39 C35.9 41.5 36.9 44 37.3 46.6 C38.1 52.1 38.1 63 36.3 67.9 C34.1 73.8 24 75.8 20.3 72.4 C15.9 68.4 14.1 57.3 11 52.3 C6.8 45.5 2.5 38.6 1.2 30.7 C0.3 25.3 1 19.3 4.6 15.2 C7.8 11.5 12.7 9.8 17.4 8.3 C20.3 7.4 37.8 -1 39.6 0.8 C40.6 1.7 34.6 15.3 34.2 17.2 C34.2 17.3 34.2 17.4 34.2 17.4 z M33.1 36.9 C31.3 30.5 31 23.6 32.2 17 C32.5 15.3 37.7 2.9 36.8 2 C35.3 0.4 20.3 8 17.8 8.8 C13.8 10.2 9.6 11.7 6.8 15.1 C3.7 18.8 3.1 24.3 3.9 29.2 C5 36.5 8.7 42.8 12.3 49 C15 53.6 16.5 63.7 20.3 67.3 C23.5 70.4 32.1 68.6 34 63.2 C35.5 58.7 35.5 48.8 34.9 43.8 C34.5 41.4 33.7 39.1 33.1 36.9 z" opacity="0.15" id="p1" /></g><g transform="translate(202.7, 152.5) rotate(-20, 0, 0) scale(0.7) translate(-202.7, -152.5) translate(102.5, 129.8) translate(114, 47.5) scale(-1, 1) translate(-114, -47.5) translate(94, 10)" id="q1"><path d="M34 17.4 C32.6 24.5 32.9 32 35 39 C35.7 41.5 36.7 44 37.1 46.6 C37.9 52.1 37.9 63 36.1 67.9 C33.9 73.8 23.8 75.8 20.1 72.4 C15.7 68.4 13.9 57.3 10.8 52.3 C6.6 45.5 2.3 38.6 1 30.7 C0.1 25.3 0.8 19.3 4.4 15.2 C7.6 11.5 12.5 9.8 17.2 8.3 C20.1 7.4 37.6 -1 39.4 0.8 C40.4 1.7 34.4 15.3 34 17.2 C34 17.3 34 17.4 34 17.4 z" id="r1" fill="#C08A3F" /><path d="M34 17.4 C32.6 24.5 32.9 32 35 39 C35.7 41.5 36.7 44 37.1 46.6 C37.9 52.1 37.9 63 36.1 67.9 C33.9 73.8 23.8 75.8 20.1 72.4 C15.7 68.4 13.9 57.3 10.8 52.3 C6.6 45.5 2.3 38.6 1 30.7 C0.1 25.3 0.8 19.3 4.4 15.2 C7.6 11.5 12.5 9.8 17.2 8.3 C20.1 7.4 37.6 -1 39.4 0.8 C40.4 1.7 34.4 15.3 34 17.2 C34 17.3 34 17.4 34 17.4 z M32.8 17.1 C32.8 17.1 32.8 17 32.8 16.9 C33.2 15.2 38.6 2.8 37.7 1.9 C36.1 0.3 20.1 7.9 17.4 8.7 C13.1 10.1 8.6 11.6 5.7 15 C2.4 18.7 1.8 24.2 2.6 29.1 C3.8 36.3 7.7 42.6 11.5 48.8 C14.3 53.4 16 63.5 20 67.1 C23.4 70.2 32.6 68.4 34.6 63 C36.2 58.5 36.2 48.6 35.5 43.6 C35.1 41.2 34.2 38.9 33.6 36.7 C31.8 30.5 31.5 23.6 32.8 17.1 z" opacity="0.15" id="s1" /></g><g transform="translate(171.8, 188.0999) scale(1.1) translate(-171.8, -188.0999)" id="t1"><g transform="translate(98.7, 96.99996) translate(49, 49)" id="u1"><path d="M4.9 47.3 C3.6 44.4 4 38.4 6.2 35.6 C7.4 34.1 9.4 31.1 12.6 29.9 C15.5 28.7 19.3 29.2 23.6 29.2 C27.7 29.2 29.8 28.7 32.4 29.6 C35.4 30.7 38.4 33.2 39.9 35.6 C42.6 39.9 42.1 45.1 40.5 47.3 C39.8 48.3 37.6 51.5 35.2 51.8 C32.2 52.2 28.5 50.1 24.2 50.1 C20.6 50.1 16.7 51.9 13.2 51.8 C9 51.6 5.6 48.9 4.9 47.3 z" id="v1" fill="#FFF" /><path d="M14.9 29.3 C14.4 29.4 13.9 29.5 13.5 29.7 C10.6 30.9 8.7 33.6 7.6 35 C5.5 37.6 5.2 43.1 6.4 45.8 C7 47.3 10.2 49.8 14 49.9 C17.2 50 20.9 48.4 24.1 48.4 C28.1 48.4 31.5 50.3 34.3 49.9 C36.5 49.6 38.5 46.7 39.1 45.8 C40.5 43.7 41 39 38.5 35 C37.2 32.9 34.4 30.5 31.6 29.5 C31.3 29.4 30.9 29.3 30.6 29.2 C31.2 29.3 31.8 29.4 32.4 29.6 C35.4 30.7 38.4 33.2 39.9 35.6 C42.6 39.9 42.1 45.1 40.5 47.3 C39.8 48.3 37.6 51.5 35.2 51.8 C32.2 52.2 28.5 50.1 24.2 50.1 C20.6 50.1 16.7 51.9 13.2 51.8 C9 51.7 5.6 48.9 4.9 47.3 C3.6 44.4 4 38.4 6.2 35.6 C7.4 34.1 9.4 31.1 12.6 29.9 C13.3 29.6 14.1 29.4 14.9 29.3 z" opacity="0.15" id="w1" /><g opacity="0.4" transform="translate(6, 34)" id="x1"><circle cx="29.5" cy="11.5" r="1" opacity="0.4" id="y1" /><circle cx="24.5" cy="12.5" r="1" opacity="0.4" id="z1" /><circle cx="5.5" cy="11.5" r="1" opacity="0.4" id="a2" /><circle cx="10.5" cy="11.5" r="1" opacity="0.4" id="b2" /><circle cx="4.5" cy="4.5" r="1" opacity="0.4" id="c2" /><circle cx="32.5" cy="7.5" r="1" opacity="0.4" id="d2" /><circle cx="27.5" cy="8.5" r="1" opacity="0.4" id="e2" /><circle cx="6.5" cy="7.5" r="1" opacity="0.4" id="f2" /><circle cx="2.5" cy="8.5" r="1" opacity="0.4" id="g2" /><circle cx="30.5" cy="4.5" r="1" opacity="0.4" id="h2" /></g><path d="M16.9 41.4 C18.5 43.3 19.1 45.2 18.8 47.1 C18.5 49 17.2 50.4 15.1 51.4 C16.4 51.1 17.3 50.8 17.9 50.7 C19 50.4 19.9 50 20.8 49.9 C21.7 49.7 22.6 49.7 23.3 49.7 C24.2 49.7 25 49.8 26.1 50 C26.7 50.1 27.3 50.4 28.4 50.7 C28.9 50.8 29.8 51 31 51.3 C28.9 50.1 27.7 48.7 27.5 47.2 C27.3 45.7 27.9 43.8 29.4 41.4 C26.7 42.9 24.7 43.7 23.4 43.7 C22.1 43.7 19.8 42.9 16.9 41.4 z" opacity="0.15" id="i2" /></g><g transform="translate(89.39999, 106.4999) translate(74, 77)" id="j2"><path d="M7.5 1.5 C7.7 3.9 7.8 5.6 7.8 6.6 C7.8 7.6 7.5 9.5 7 12.1 C4.4 14.2 2.6 16 1.7 17.5 C0.4 19.8 -0.1 20.5 0.4 20.8 C0.7 21.1 2.4 18.9 4.9 17.7 C5.9 17.2 7.4 16.9 8.5 16.9 C9.8 16.9 11.5 17.4 12.7 18.1 C14.8 19.3 16 21 16.4 20.9 C16.9 20.7 15.7 17.6 13.2 15.4 C11.6 13.9 10.5 12.9 10 12.2 C9.7 9.6 9.6 7.8 9.6 6.6 C9.6 5.4 9.7 3.6 9.9 1.3 C10.5 0.4 10.1 0 8.7 0 C7.3 0 6.9 0.5 7.5 1.5 z" id="k2" /></g><g transform="translate(171.8, 184.0999) scale(0.7) translate(-171.8, -184.0999) translate(89.09999, 108.0999) translate(70, 60)" id="l2"><g id="m2"><path d="M0.7 4.3 C1.1 1.6 6.7 0 8.1 0 C9.5 0 15.7 0 17.5 0 C19.3 0 22 1.3 23.3 2.5 C24.6 3.7 25.4 6.3 25 8.4 C24.5 10.5 21.3 18.8 17.3 19.2 C13.3 19.6 11.1 19.5 9 19 C6.9 18.5 0.7 13.4 0.7 8.4 C0.6 6.7 0.5 5.7 0.7 4.3 z" id="n2" /><path d="M14 3 C15.3 3 16.6 3.9 17.6 4 C19.1 4.2 20.1 3.2 20.1 2.5 C20.1 1.4 17.3 1 14 1 C10.7 1 6 1.1 6 2.2 C6 3.3 10.7 3 14 3 z" id="o2" fill="#FFF" /></g></g><g transform="translate(98.7, 96.99995) translate(41, 42)" id="p2"><path d="M6.1 10.9 C6.7 10.4 7.5 10.8 8.5 12.2 C10 14.3 10.8 18 13.2 19.3 C15.6 20.6 18.9 19.9 20.4 19.3 C21.9 18.7 24.8 14.6 23.7 10.9 C23 8.4 21.3 6.3 18.6 4.5 L19.5 6.7 L15.5 6.1 L16.3 7.4 C12.9 7.8 10.6 8.2 9.4 8.5 C8.3 9 7.2 9.8 6.1 10.9 z" id="q2" fill="#FFF" /><g transform="translate(0, 10)" id="r2"><path d="M21.9 14.6 C21 11.9 19.7 8.3 17.5 6.4 C15.3 4.5 10.7 3.9 9 4.5 C7.7 5 6.1 7.4 4.6 8.5 C4.2 8.9 3.1 8.7 3 9 C2.3 10.8 6.8 15.2 8.3 16 C11.2 17.5 16.3 17.8 20.2 17.1 C21.7 17 21.5 15.8 21.9 14.6 z" id="s2" fill="#C08A3F" /><g transform="translate(11.16316, 7.522936) scale(-1, 1) translate(-11.16316, -7.522936) translate(3.163158, 3.022936)" id="t2"><path d="M-1.1 8.4 C0.1 6.4 2.1 4.5 4.4 4.2 C6.7 3.9 8.9 4 10.7 5.4 C12.5 6.8 12.5 7.5 13.3 8.1 C14 8.8 12.5 10.5 9.7 11.4 C6.9 12.3 4.5 13 1.9 12.5 C-0.8 12.1 -1.2 11.9 -1.6 11.4 C-2 10.9 -2.4 10.5 -1.1 8.4 z" id="u2" fill="#FBFBFB" /><g id="v2"><path d="M5.2 4.1 C6.3 5 7 6.4 7 8 C7 10.1 5.7 12 3.8 12.8 C3.2 12.8 2.6 12.8 2 12.6 C-0.7 12.2 -1.1 12 -1.5 11.5 C-1.9 11 -2.3 10.6 -1.1 8.5 C0.1 6.4 2 4.5 4.4 4.2 C4.6 4.2 4.9 4.1 5.2 4.1 z" id="w2" /></g></g><path d="M11.8 11.3 C12.8 12.4 15.1 10.8 15.1 9.9 C15.1 9 14.1 8.2 12.8 8.2 C11.5 8.2 10.5 9 10.5 9.9 C10.5 10.8 10.9 10.2 11.8 11.3 z" id="x2" fill="#FFFEFE" /></g></g><g transform="translate(98.7, 96.99995) translate(76, 42)" id="y2"><g transform="translate(0.878947, 0.022936)" id="z2"><path d="M20.1 10.9 C19.5 10.4 18.7 10.8 17.7 12.2 C16.2 14.3 15.4 18 13 19.3 C10.6 20.6 7.3 19.9 5.8 19.3 C4.3 18.7 1.4 14.6 2.5 10.9 C3.2 8.4 4.9 6.3 7.6 4.5 L6.6 6.7 L10.6 6.1 L9.9 7.4 C13.3 7.8 15.6 8.2 16.8 8.5 C17.9 9 19 9.8 20.1 10.9 z" id="a3" fill="#FFF" /><path d="M5.3 21.7 C6.2 19 7.5 17.3 9.7 15.4 C11.9 13.5 16.2 13.3 17.9 13.9 C19.1 14.3 21.1 16.4 22.7 17.4 C23.4 17.8 24.1 17.5 24.3 18.1 C25 19.9 21.7 24.1 20.2 24.9 C19.8 25.1 16.7 25.9 14.9 26.4 C12.7 26.9 10.6 26.4 8.3 26.4 C6.9 26.4 5.7 26.3 4.9 25.8 C4.2 25.2 4.8 22.9 5.3 21.7 z" id="b3" fill="#C08A3F" /><g transform="translate(4, 12)" id="c3"><path d="M3.4 9 C4.7 7 6.2 5.4 8.5 5.1 C10.8 4.8 12.7 5.1 14.2 6 C15.7 6.9 16.5 7.9 17.4 9 C18.3 10.1 16.7 11.3 13.8 12.3 C10.9 13.2 9.1 13.5 6.5 13.5 C3.9 13.5 2.6 13 2.2 12.3 C1.9 11.6 2.1 11.1 3.4 9 z" id="d3" fill="#FBFBFB" /><path d="M10 4.9 C11.6 4.9 13 5.3 14.1 5.9 C15.7 6.8 16.4 7.8 17.3 8.9 C18.2 10 16.7 11.3 13.7 12.3 C12.4 12.7 11.3 13 10.1 13.2 C9 12.4 8 10.8 8 8.9 C8 7.3 8.8 5.8 10 4.9 z" id="e3" /></g><path d="M11.7 21.5 C12.7 22.7 15 20.9 15 19.9 C15 18.9 13.9 18 12.5 18 C11.1 18 10 18.8 10 19.9 C10 21 10.6 20.4 11.7 21.5 z" id="f3" fill="#FFFEFE" /></g></g></g></g></g><g transform="translate(235.8952, 266.9009)" id="g3"><ellipse cx="32.5" cy="17.5" rx="37.3" ry="13.2" fill-opacity="0.15" id="h3" /><use xlink:href="#e" x="0.08" y="0" /></g></g><defs><g transform="translate(17.09519, 0.800995) translate(-135.2952, -293.601)" id="e" fill="#000"><path d="M118.2 302.7 C118.4 307.4 132.5 311.2 149.8 311.2 C167.1 311.2 181.2 307.4 181.4 302.7 C181.4 307.5 181.4 310.1 181.4 310.5 C181.4 315.3 167.3 319.1 149.8 319.1 C132.3 319.1 118.2 315.2 118.2 310.5 L118.2 302.7 L118.2 302.7 z" fill-opacity="0.4528" id="i3" fill="#593001" /><path d="M118.7 301.7 C118.9 306.4 133 310.2 150.3 310.2 C167.6 310.2 181.7 306.4 181.9 301.7 C181.9 306.5 181.9 309.1 181.9 309.5 C181.9 314.3 167.8 318.1 150.3 318.1 C132.8 318.1 118.7 314.2 118.7 309.5 L118.7 301.7 L118.7 301.7 z" id="j3" fill="#DA8113" /><linearGradient x1="46.0545" y1="-118.6926" x2="45.4656" y2="-118.6926" gradientUnits="userSpaceOnUse" gradientTransform="matrix(117.135, 0, 0, 28.4634, -5208.417, 3687.795)" id="k3"><stop offset="0%" stop-color="#D9952A" stop-opacity="1" /><stop offset="6.438854%" stop-color="#CA7519" stop-opacity="1" /><stop offset="30.54%" stop-color="#E3AD3A" stop-opacity="1" /><stop offset="51.05%" stop-color="#FFEC91" stop-opacity="1" /><stop offset="68.8%" stop-color="#E9BD44" stop-opacity="1" /><stop offset="86.24%" stop-color="#FFED6C" stop-opacity="1" /><stop offset="93.87%" stop-color="#F2D353" stop-opacity="1" /><stop offset="100%" stop-color="#F2B947" stop-opacity="1" /></linearGradient><path d="M118.2 301.6 C118.4 306.1 132.7 309.7 150.3 309.7 C167.9 309.7 182.2 306.1 182.4 301.6 C182.4 306.2 182.4 308.7 182.4 309 C182.4 313.5 168 317.2 150.3 317.2 C132.6 317.2 118.2 313.5 118.2 309 L118.2 301.6 L118.2 301.6 z" id="l3" style="fill:url(#k3)" /><linearGradient x1="45.4914" y1="-117.9547" x2="45.9407" y2="-117.5895" gradientUnits="userSpaceOnUse" gradientTransform="matrix(115.425, 0, 0, 29.925, -5125.077, 3826.124)" id="m3"><stop offset="0%" stop-color="#F4E072" stop-opacity="1" /><stop offset="100%" stop-color="#DB9427" stop-opacity="1" /></linearGradient><ellipse cx="150.3" cy="301.5" rx="31.6" ry="8.2" id="n3" style="fill:url(#m3)" /><linearGradient x1="45.4656" y1="-126.0065" x2="46.0545" y2="-126.0065" gradientUnits="userSpaceOnUse" gradientTransform="matrix(117.135, 0, 0, 18.6219, -5208.417, 2651.479)" id="o3"><stop offset="0%" stop-color="#D9952A" stop-opacity="1" /><stop offset="6.438854%" stop-color="#CA7519" stop-opacity="1" /><stop offset="30.54%" stop-color="#E3AD3A" stop-opacity="1" /><stop offset="51.05%" stop-color="#FFEC91" stop-opacity="1" /><stop offset="68.8%" stop-color="#E9BD44" stop-opacity="1" /><stop offset="86.24%" stop-color="#FFED6C" stop-opacity="1" /><stop offset="93.87%" stop-color="#F2D353" stop-opacity="1" /><stop offset="100%" stop-color="#F2B947" stop-opacity="1" /></linearGradient><path d="M119.2 299.9 C119 300.2 118.9 300.6 118.9 301 C118.9 305.5 132.9 309.2 150.3 309.2 C167.7 309.2 181.7 305.5 181.7 301 C181.7 300.6 181.6 300.3 181.4 299.9 C182 300.5 182.4 301.2 182.4 301.9 C182.4 306.4 168 310.1 150.3 310.1 C132.6 310.1 118.2 306.4 118.2 301.9 C118.2 301.3 118.6 300.6 119.2 299.9 z" id="p3" style="fill:url(#o3)" /><linearGradient x1="45.196" y1="-121.5895" x2="45.3746" y2="-120.6758" gradientUnits="userSpaceOnUse" gradientTransform="matrix(101.745, 0, 0, 23.94, -4458.332, 3199.41)" id="q3"><stop offset="0%" stop-color="#F8DD61" stop-opacity="1" /><stop offset="100%" stop-color="#EAA330" stop-opacity="1" /></linearGradient><ellipse cx="150.3" cy="300.8" rx="27.8" ry="6.6" id="r3" style="fill:url(#q3)" /><linearGradient x1="45.5694" y1="-134.267" x2="45.0221" y2="-134.267" gradientUnits="userSpaceOnUse" gradientTransform="matrix(101.745, 0, 0, 13.2525, -4458.332, 2077.223)" id="s3"><stop offset="0%" stop-color="#F4CA2F" stop-opacity="1" /><stop offset="51.38%" stop-color="#BF7737" stop-opacity="1" /><stop offset="100%" stop-color="#E4A929" stop-opacity="1" /></linearGradient><path d="M122.6 301.5 C122.5 301.3 122.4 301 122.4 300.8 C122.4 297.2 134.9 294.2 150.2 294.2 C165.5 294.2 178 297.1 178 300.8 C178 301 177.9 301.3 177.8 301.5 C176.3 298.2 164.5 295.6 150.1 295.6 C135.7 295.6 124.1 298.2 122.6 301.5 z" id="t3" style="fill:url(#s3)" /></g></defs><desc>OOOOODEBBEE,qoNREbfwKyUksD7DgzKXB57e2F+4pek5ABTIZJLfc0A+/aNZT0XaZEsN9YwFt651DNcUSv9IKg/4uux5wtDqH1mWXxf5swPYagiLqszXW7Ro6Q2q+RiYvyatOLENOfA2ibyuaGgR/KlD1NqrKxxTlA==</desc></svg>