<?xml version="1.0" encoding="utf-8"?><!DOCTYPE svg PUBLIC "-//W3C//DTD SVG 1.1//EN" "http://www.w3.org/Graphics/SVG/1.1/DTD/svg11.dtd"><svg x="0" y="0" width="340px" height="340px" viewBox="0, 0, 340, 340" preserveAspectRatio="xMidYMid" font-size="0" id="a" enable-background="new 0 0 340 340" xmlns="http://www.w3.org/2000/svg" xmlns:xlink="http://www.w3.org/1999/xlink" xmlns:xml="http://www.w3.org/XML/1998/namespace" version="1.1"><g id="b" fill="#000"><g id="c"><g transform="translate(0, 0) translate(0, 224)" id="d"><ellipse cx="168.6" cy="53.1" rx="57.8" ry="12.8" fill-opacity="0.25" id="e" /></g><g id="f"><g transform="translate(114.3, 112.1) translate(13, 118.5) scale(-1, 1) translate(-13, -118.5) translate(0, 96)" id="g"><g id="h"><path d="M20.6 11.4 C22.5 12.3 22.3 15.9 21.6 17.9 C18.7 25.8 15.6 34.5 11.6 40.9 C10.5 42.7 7.1 47 2.8 43.1 C-1.5 39.2 3 33.1 4.4 30.2 C7.5 23.6 11.9 19.3 15.9 12.9 C16.7 11.5 17.9 10.2 20.6 11.4 z" id="i" fill="#D8B285" /><path d="M18.7 8.1 C20.6 4.4 22.5 -0.3 25.2 1 C27.1 1.9 25 9.2 23.9 12.2 C23.1 14.1 22.4 16.2 21.6 18.3 C20 15 18.2 12.9 16 13.1 C16.7 11.5 17.7 9.9 18.7 8.1 z" id="j" fill="#BD8B6A" /><path d="M21.5 18.1 C18.6 26 15.6 34.6 11.6 40.9 C10.5 42.7 7.1 47 2.8 43.1 C-1.5 39.2 3 33.1 4.4 30.2 C7.5 23.6 11.9 19.3 15.9 12.9 C16.1 12.6 16.3 12.2 16.5 12 C17.2 10.7 17.9 9.5 18.7 8.1 C20.6 4.4 22.5 -0.3 25.2 1 C27.1 1.9 25 9.2 23.9 12.2 C23.1 14.1 22.4 16.2 21.6 18.3 C21.6 18.2 21.5 18.2 21.5 18.1 z M19.6 19.2 C21.2 16.5 22.2 14.6 22.6 13.5 C23.6 10.8 25.8 4.9 24.5 2.5 C22.8 -0.6 20.5 6.5 18.9 9.8 C18.2 11 17.4 12.4 16.9 13.5 C16.7 13.7 14.9 16.5 14.7 16.8 C11.2 22.4 8.2 23.5 5.5 29.3 C4.3 31.8 0.3 37.2 4.1 40.6 C7.9 44.1 8.8 39.4 9.8 37.8 C13.2 32.3 17.1 26.1 19.6 19.2 z" opacity="0.15" id="k" /></g></g><g transform="translate(132.1733, 272.8) scale(0.5830064) translate(-129, -272.8) translate(102.8, 90.39996) translate(15, 110)" id="l"><g transform="translate(23, 36) scale(-1, 1) translate(-23, -36)" id="m"><path d="M-1.4 45.3 C0.8 26.6 11.7 11.6 13.3 7.8 C15 3.9 23 -0.6 26.9 14.5 C28.4 20.4 31 23.9 32.4 29.9 C34.6 39.4 35.2 51.3 34.9 59.2 C34.7 63.6 28.7 73.3 26.1 73.3 C18.5 73.3 9.7 75.5 7.2 72.1 C3.3 66.9 -3.6 63.9 -1.4 45.3 z" id="n" fill="#BD8B6A" /><path d="M36.4 60.6 C38 61.6 43.4 64.4 43.7 68.7 C44 73 44 74.4 41 75 C38 75.6 35.1 75.9 32.7 75.5 C30.5 75.1 28.5 73.5 26.9 73.5 C23.7 73.5 24.9 73.5 23.3 73.5 C22.8 68.5 25.7 65.4 26.9 64.1 C28.1 62.8 34.8 59.6 36.4 60.6 z" id="o" fill="#806458" /><path d="M34.7 60.5 C35.4 60.4 36 60.4 36.4 60.6 C38 61.6 43.4 64.4 43.7 68.7 C44 73 44 74.4 41 75 C38 75.6 35.1 75.9 32.7 75.5 C30.5 75.1 28.5 73.5 26.9 73.5 L23.3 73.5 L23.3 73.4 C16.5 73.8 9.4 75.1 7.2 72.1 C3.3 66.9 -3.6 63.9 -1.4 45.3 C0.8 26.6 11.7 11.6 13.3 7.8 C15 3.9 23 -0.6 26.9 14.5 C28.4 20.4 31 23.9 32.4 29.9 C34.6 39.4 35.2 51.3 34.9 59.2 C34.9 59.6 34.8 60 34.7 60.5 z M32.6 61.3 C33 57.3 33.2 55.1 33.2 54.9 C33.5 47.5 33.8 39.4 31.7 30.5 C30.4 24.9 27.9 21.6 26.5 16.1 C22.9 1.9 15.4 6.1 13.8 9.8 C12.3 13.3 2 27.4 0 45 C-2.1 62.4 4.5 64 8.2 68.9 C10.3 71.7 16.8 71.7 23.2 71.5 L26.6 71.5 C28.1 71.5 30 73 32 73.4 C34.3 73.8 37 73.5 39.8 72.9 C42.6 72.3 42 72 41.7 68 C41.4 64 36.5 62.3 35 61.4 C34.6 61.1 33.3 61.2 32.6 61.3 z" opacity="0.15" id="p" /></g></g><g transform="translate(204.7267, 272.9) scale(0.5830064) translate(-207.9, -272.9) translate(89.40001, 90.29997) translate(102.5, 145) scale(-1, 1) translate(-102.5, -145) translate(79, 108)" id="q"><g transform="translate(23.5, 37) scale(-1, 1) translate(-23.5, -37)" id="r"><path d="M2.6 48.8 C4.8 29.9 16.7 12.7 18.3 8.8 C20 4.9 28 0.3 31.9 15.7 C33.4 21.7 36 25.2 37.4 31.4 C39.6 41 40.2 53.1 39.9 61.1 C39.7 65.6 33.7 75.4 31.1 75.4 C23.5 75.4 14.7 77.6 12.2 74.2 C8.3 68.8 0.4 67.7 2.6 48.8 z" id="s" fill="#BD8B6A" /><path d="M41.4 62.6 C43 63.6 48.4 66.4 48.7 70.7 C49 75 48.7 77.3 45.1 77.5 C41.5 77.7 39.9 78.1 37.6 77.8 C35.4 77.4 33.7 75.5 32.1 75.5 C28.9 75.5 30.1 75.5 28.5 75.5 C28 70.5 30.9 68.1 32.6 65.9 C33 64.9 39.8 61.6 41.4 62.6 z" id="t" fill="#806458" /><path d="M41.4 62.6 C43 63.6 48.4 66.4 48.7 70.7 C49 75 48.7 77.3 45.1 77.5 C41.5 77.7 39.9 78.1 37.6 77.8 C35.4 77.4 33.7 75.5 32.1 75.5 L28.5 75.5 C21.6 75.8 14.4 77.2 12.2 74.2 C8.3 68.8 0.4 67.7 2.6 48.8 C4.8 29.9 16.7 12.7 18.3 8.8 C20 4.9 28 0.3 31.9 15.7 C33.4 21.7 36 25.2 37.4 31.4 C39.6 41 40.2 53.1 39.9 61.1 C39.9 61.5 39.8 62 39.7 62.5 C40.4 62.4 41 62.4 41.4 62.6 z M37.2 62.8 C37.6 60.8 38 58.6 38.4 56.2 C39 52.5 38.8 40 36.7 31 C35.4 25.2 32.9 21.9 31.5 16.2 C27.9 1.8 20.3 6.1 18.7 9.8 C17.2 13.4 6 29.6 4 47.4 C2 65.2 9.4 66.2 13 71.3 C15.1 74.1 21.8 72.8 28.3 72.5 L31.7 72.5 C33.2 72.5 34.8 74.3 36.9 74.7 C39.1 75 40.6 74.6 44 74.4 C47.4 74.2 46.9 73.4 46.6 69.4 C46.3 65.4 42.3 64.6 40.8 63.7 C40.4 63.4 37.9 62.7 37.2 62.8 z" opacity="0.15" id="u" /></g></g><g transform="translate(102.1, 98.99998) translate(27, 90)" id="v"><path d="M64.2 29.4 C59.3 18.2 71.8 0.9 40.2 0.9 C9.5 0.9 19.6 18.2 14.7 29.4 C10.1 39.8 9.6 51.5 10.3 63 C11.3 79.5 15.6 89 39.4 89 C63.2 89 67.5 79.6 68.5 63 C69.3 51.5 68.8 39.9 64.2 29.4 z" id="w" fill="#D8B285" /><path d="M64.2 29.4 C68.8 39.9 69.3 51.5 68.5 63 C67.5 79.6 63.2 89 39.4 89 C15.6 89 11.3 79.5 10.3 63 C9.6 51.5 10.1 39.8 14.7 29.4 C19.6 18.2 9.5 0.9 40.2 0.9 C71.8 0.9 59.3 18.2 64.2 29.4 z M62.8 28.8 C58.1 18 69.9 1.5 40.2 1.5 C11.3 1.5 20.8 18.1 16.2 28.8 C11.8 38.7 11.3 50 12 61 C12.9 76.8 17 85.9 39.4 85.9 C61.8 85.9 65.9 76.9 66.8 61 C67.6 50 67.1 38.8 62.8 28.8 z" opacity="0.15" id="x" /></g><g transform="translate(140.99, 229.85) scale(0.9, 1.144374) translate(-138, -226.3) translate(103.9, 105.9) translate(36, 120)" id="y"><path d="M2.2 7 L5.9 20.3 L5.9 26.3 C6.1 31.5 6.1 35 5.9 36.7 C5.7 38.4 3.1 38.6 2.2 39.5 C1.6 40.2 0.5 43.2 0.5 44.9 C0.5 47.5 9.2 46.7 10.6 46.8 C15.1 47.2 17.6 45.1 17.7 44.4 C17.8 43.7 16.2 39.5 18.4 28.3 C18.9 25.8 21.4 18.4 22.1 15.8 C24.1 9 21.5 3.2 16.4 2.3 C13.3 0.5 9.9 0.9 5.7 0.9 C1.7 0.8 9.2 6.8 2.2 7 z" id="z" fill="#BD8B6A" /><path d="M4.1 0.7 C-1.9 0.9 1.8 10.5 4.1 17.4 C7.5 28 5.6 38.2 6.8 40.3 C8 42.4 13.8 37 13.8 33.8 C13.8 30.5 12.4 25.1 12.7 19.1 C13 13.9 16 10.3 13.8 5.3 C12.2 1.8 6.6 0.6 4.1 0.7 z" id="a1" fill="#F0C497" /><path d="M16.4 2.3 C21.5 3.2 24.1 9 22.1 15.8 C21.4 18.4 18.9 25.8 18.4 28.3 C16.2 39.5 17.8 43.7 17.7 44.4 C17.6 45.1 15.1 47.2 10.6 46.8 C9.2 46.7 0.5 47.5 0.5 44.9 C0.5 43.2 1.6 40.2 2.2 39.5 C3.1 38.6 5.7 38.4 5.9 36.7 C6.1 35 6.1 31.5 5.9 26.3 L5.9 26.1 C5.6 23.3 5.1 20.4 4.1 17.4 C1.8 10.5 -1.9 0.9 4.1 0.7 C4.7 0.7 5.6 0.7 6.5 0.9 C10.3 0.9 13.5 0.6 16.4 2.3 z M16.1 3.8 C13.4 2.2 10.5 2.5 6.9 2.5 C6 2.4 5.2 2.3 4.6 2.4 C-0.9 2.5 2.8 10.9 5 17.3 C5.9 20.1 6.5 21.6 6.7 26.4 C6.9 31.2 6.5 36 6.3 37.6 C6.1 39.2 3.9 39.2 3.1 40.1 C2.5 40.7 1.7 41.4 1.7 43 C1.7 45.4 9.4 45.1 10.7 45.2 C14.9 45.6 16 43.3 16.1 42.6 C16.2 42 14.7 38.7 16.8 28.3 C17.3 26 20.8 18.8 21.4 16.4 C23.2 10.1 20.8 4.7 16.1 3.8 z" opacity="0.15" id="b1" /><path d="M53.8 7 L50.1 20.3 L50.1 26.3 C49.9 31.5 49.9 35 50.1 36.7 C50.3 38.4 52.9 38.6 53.8 39.5 C54.4 40.2 55.5 43.2 55.5 44.9 C55.5 47.5 46.8 46.7 45.4 46.8 C40.9 47.2 38.4 45.1 38.3 44.4 C38.2 43.7 39.8 39.5 37.6 28.3 C37.1 25.8 34.6 18.4 33.9 15.8 C32.4 9.7 35.5 4.6 39.6 2.3 C42.7 0.5 46.1 0.9 50.3 0.9 C54.3 0.8 46.8 6.8 53.8 7 z" id="c1" fill="#BD8B6A" /><path d="M51.9 0.7 C57.9 0.9 54.2 10.5 51.9 17.4 C48.5 28 50.4 35.7 50.4 38 C50.4 40.3 42.2 36.1 42.2 32.9 C42.2 29.6 43.6 25.1 43.3 19.1 C43 13.9 40 10.3 42.2 5.3 C43.8 1.8 49.4 0.6 51.9 0.7 z" id="d1" fill="#F0C497" /><path d="M50.1 25.9 L50.1 26.3 C50 28.9 49.9 31.1 50 32.8 C50.1 34.8 50.3 36.4 50.4 37.4 C51.1 38.5 53.1 38.7 53.8 39.5 C54.4 40.2 55.5 43.2 55.5 44.9 C55.5 47.5 46.8 46.7 45.4 46.8 C40.9 47.2 38.4 45.1 38.3 44.4 C38.2 43.7 39.8 39.5 37.6 28.3 C37.1 25.8 34.6 18.4 33.9 15.8 C32.4 9.7 35.5 4.6 39.6 2.3 C42.5 0.6 45.7 0.9 49.5 0.9 C50.4 0.7 51.3 0.7 51.9 0.7 C57.9 0.9 54.2 10.5 51.9 17.4 C50.9 20.5 50.4 23.3 50.1 25.9 z M48.9 32 C48.9 30.9 49 28.9 49.2 25.8 C49.5 23.4 50.6 19.3 51.6 16.4 C53.7 10 57.1 2.4 51.5 2.2 C50.9 2.2 50.1 2.2 49.3 2.4 C45.7 2.4 42.8 2.1 40.1 3.7 C36.3 5.8 33.4 10.6 34.8 16.3 C35.5 18.7 38.9 26.1 39.4 28.4 C41.4 38.8 39.3 42.5 39.4 43.1 C39.5 43.7 41.3 45.5 45.5 45.1 C46.8 45 54.9 45.8 54.9 43.3 C54.9 41.7 53.8 40.5 53.3 39.8 C52.6 39.1 50.3 38.7 49.6 37.7 C49.3 36.9 49 33.9 48.9 32 z" opacity="0.15" id="e1" /></g></g><g transform="translate(168.2, 212.1) scale(0.9199584) translate(-168.2, -212.1)" id="f1"><g transform="translate(108.5, 101.1) translate(11, 26)" id="g1"><path d="M5.5 77 C0.1 65.8 -0.6 51.2 1 39.1 C3.2 27.2 8.5 25.2 15.8 17.9 C23.1 10.6 25.8 0.2 49.1 0.3 C72.3 0.4 73.5 8.3 79.9 14.4 C86.3 20.4 92.4 23.4 96.2 30.6 C100 37.8 101.2 59.8 96.2 71.2 C92 80.9 80.7 92.2 66.3 92.4 C54.5 93 51.9 93.8 40.2 93.8 C28.5 93.8 11.5 88.2 5.5 77 z" id="h1" fill="#D8B285" /><path d="M5.5 77 C0.1 65.8 -0.6 51.2 1 39.1 C3.2 27.2 8.5 25.2 15.8 17.9 C23.1 10.6 25.8 0.2 49.1 0.3 C72.3 0.4 73.5 8.3 79.9 14.4 C86.3 20.4 92.4 23.4 96.2 30.6 C100 37.8 101.2 59.8 96.2 71.2 C92 80.9 80.7 92.2 66.3 92.4 C54.5 93 51.9 93.8 40.2 93.8 C28.5 93.8 11.5 88.2 5.5 77 z M7.3 74.8 C13 85.6 29.3 90.9 40.6 90.9 C51.9 90.9 54.3 90.1 65.7 89.6 C79.5 89.4 90.4 78.6 94.4 69.2 C99.2 58.3 98 37.1 94.4 30.2 C90.8 23.3 84.9 20.4 78.7 14.6 C72.6 8.8 71.4 1.2 49.1 1.2 C26.7 1.1 24.1 11.1 17.1 18.1 C10.1 25.1 5 27 2.9 38.4 C1.4 50 2.1 64.1 7.3 74.8 z" opacity="0.15" id="i1" /></g><g transform="translate(140, 141.3) rotate(12, 0, 0) scale(1.2) translate(-137, -147.3) translate(107.5, 124.5) translate(2, 16)" id="j1"><g id="k1"><path d="M0.2 37 C0.2 35.6 0.2 30.8 0.3 29.9 C0.2 28.7 0.9 27.3 2 26.1 C1.7 26.2 1.4 26.3 1 26.5 C1.7 24 3.2 18.8 3.2 18.8 C1.9 18 1.4 15.6 3.5 12.8 C3.3 15.6 5.5 14.4 6.1 13.7 C6.7 13 7.3 12.3 7.9 11.6 C8.6 10.8 9.7 10.3 10.8 9.8 C11.2 9.3 11.7 8.8 12.1 8.3 C11.5 8.3 10.9 8.4 10.4 8.6 C12 6.4 14.3 4.6 16.9 3.7 C17.3 3.4 17.6 3.2 18 2.9 C16.6 2.3 15.1 1.7 13.7 1 C16.8 0.9 19.9 0.7 23.1 0.6 C24.4 0.5 26.2 0.6 28.4 3.5 C31.8 8 26.9 9.4 25.6 26.2 C24.9 36.1 25 42.4 24.8 46.4 C24.9 49.3 24.9 52.3 25 55.2 C24.3 54.4 23.7 53.7 23 52.9 C22.7 54.4 22.5 55.7 22.2 57.4 C20.9 56.4 19.6 55.5 18.3 54.5 C18.2 52.8 18.2 51.2 18.1 49.5 C18.1 49.5 18.1 49.5 18 49.4 C17.4 50.8 16.8 52.2 16.2 53.6 C15.8 51.6 15.5 49.5 15.1 47.5 C14.8 48.6 14.5 49.8 14.2 50.9 C13.6 49.2 12.9 47.5 12.3 45.9 C12.1 46.8 11.8 47.7 11.6 48.6 C10.1 47.6 8.6 46.6 7.1 45.7 C7.1 44.7 7.2 43.8 7.2 42.8 C6.5 43.6 5.9 44.4 5.2 45.2 C3.1 42.7 2.1 39.4 2.4 36.2 C2.2 35.6 2 35.1 1.9 34.5 C1.4 35.4 0.8 36.2 0.2 37 z" id="l1" fill="#806458" /><path d="M0.2 37 C0.2 35.6 0.2 30.8 0.3 29.9 C0.2 28.7 0.9 27.3 2 26.1 C1.7 26.2 1.4 26.3 1 26.5 C1.7 24 3.2 18.8 3.2 18.8 C1.9 18 1.4 15.6 3.5 12.8 C3.3 15.6 5.5 14.4 6.1 13.7 C6.7 13 7.3 12.3 7.9 11.6 C8.6 10.8 9.7 10.3 10.8 9.8 C11.2 9.3 11.7 8.8 12.1 8.3 C11.5 8.3 10.9 8.4 10.4 8.6 C12 6.4 14.3 4.6 16.9 3.7 C17.3 3.4 17.6 3.2 18 2.9 C16.6 2.3 15.1 1.7 13.7 1 C16.8 0.9 19.9 0.7 23.1 0.6 C24.4 0.5 26.2 0.6 28.4 3.5 C31.8 8 26.9 9.4 25.6 26.2 C24.9 36.1 25 42.4 24.8 46.4 C24.9 49.3 24.9 52.3 25 55.2 C24.3 54.4 23.7 53.7 23 52.9 C22.7 54.4 22.5 55.7 22.2 57.4 C20.9 56.4 19.6 55.5 18.3 54.5 C18.2 52.8 18.2 51.2 18.1 49.5 C18.1 49.5 18.1 49.5 18 49.4 C17.4 50.8 16.8 52.2 16.2 53.6 C15.8 51.6 15.5 49.5 15.1 47.5 C14.8 48.6 14.5 49.8 14.2 50.9 C13.6 49.2 12.9 47.5 12.3 45.9 C12.1 46.8 11.8 47.7 11.6 48.6 C10.1 47.6 8.6 46.6 7.1 45.7 C7.1 44.7 7.2 43.8 7.2 42.8 C6.5 43.6 5.9 44.4 5.2 45.2 C3.1 42.7 2.1 39.4 2.4 36.2 C2.2 35.6 2 35.1 1.9 34.5 C1.4 35.4 0.8 36.2 0.2 37 z M1 33.9 C1.6 33.2 2.2 32.8 2.6 31.9 C2.7 32.5 2.9 33.5 3.1 34.1 C2.8 37 3.8 40.1 5.7 42.4 C6.4 41.7 6.9 40.9 7.6 40.2 C7.6 40.8 7.7 41.8 7.9 43.2 C9.2 44 10.3 44.7 11.3 45.3 C11.5 44.5 12.3 43.9 12.4 43.1 C13 44.6 13.3 45.6 13.9 47.2 C14.2 46.2 14.8 45.6 15 44.6 C15.4 46.4 16.1 47.8 16.5 49.7 C16.9 48.8 17.6 47.8 18.7 46.5 C18.8 48.7 18.9 50.3 19 51.3 C20.2 52.2 20.5 52.8 21.8 53.7 C22.1 52.1 22.3 50.9 22.6 49.6 C23.3 50.3 23.8 51 24.5 51.7 C24.4 49 23.2 35.8 23.9 26.7 C25 11.1 30.8 8.1 27.6 4 C25.5 1.3 24.2 1.1 23 1.1 C20 1.2 18.9 1.3 16 1.4 C17.3 2 18.1 2.4 19.4 3 C19 3.3 17.2 3.9 16.8 4.1 C14.4 4.9 13.2 5.7 11.7 7.7 C12.2 7.5 13 7.8 13.6 7.8 C13.2 8.3 11.2 9.7 10.8 10.1 C9.8 10.6 7.2 13 6.6 13.6 C6 14.2 3.8 15.6 3.2 13.8 C2.3 15.4 3.1 17.2 4.3 17.9 C4.3 17.9 2.7 22.1 2 24.4 C2.4 24.2 3.2 24.3 3.4 24.2 C2.4 25.3 1 26.9 1.1 28 C1.1 29.1 1 32.6 1 33.9 z" opacity="0.15" id="m1" /></g></g><g transform="translate(198.1, 141.3) rotate(-12, 0, 0) scale(1.2) translate(-201.1, -147.3) translate(111.8, 124.6) translate(102, 45) scale(-1, 1) translate(-102, -45) translate(87, 16)" id="n1"><g id="o1"><path d="M0.2 37 C0.2 35.6 0 32.1 0.3 29.9 C0.5 28.5 1.1 27.2 2 26.1 C1.7 26.2 1.4 26.3 1 26.5 C1.7 24 2.5 21.1 3.2 18.8 C2.9 18.6 1 16.3 3.5 12.8 C3.3 15.6 5.5 14.4 6.1 13.7 C6.7 13 7.3 12.3 7.9 11.6 C8.6 10.8 9.7 10.3 10.8 9.8 C11.2 9.3 11.7 8.8 12.1 8.3 C11.5 8.3 10.9 8.4 10.4 8.6 C12 6.4 14.3 4.6 16.9 3.7 C17.3 3.4 17.6 3.2 18 2.9 C16.6 2.3 15.1 1.7 13.7 1 C16.8 0.9 19.9 0.7 23.1 0.6 C24.4 0.5 26.2 0.6 28.4 3.5 C31.8 8 26.9 9.4 25.6 26.2 C24.9 36.1 25 42.4 24.8 46.4 C24.9 49.3 24.9 52.3 25 55.2 C24.3 54.4 23.7 53.7 23 52.9 C22.7 54.4 22.5 55.7 22.2 57.4 C20.9 56.4 19.6 55.5 18.3 54.5 C18.2 52.8 18.2 51.2 18.1 49.5 C18.1 49.5 18.1 49.5 18 49.4 C17.4 50.8 16.8 52.2 16.2 53.6 C15.8 51.6 15.5 49.5 15.1 47.5 C14.8 48.6 14.5 49.8 14.2 50.9 C13.6 49.2 12.9 47.5 12.3 45.9 C12.1 46.8 11.8 47.7 11.6 48.6 C10.1 47.6 8.6 46.6 7.1 45.7 C7.1 44.7 7.2 43.8 7.2 42.8 C6.5 43.6 5.9 44.4 5.2 45.2 C3.1 42.7 2.1 39.4 2.4 36.2 C2.2 35.6 2 35.1 1.9 34.5 C1.4 35.4 0.8 36.2 0.2 37 z" id="p1" fill="#806458" /><path d="M1.8 26.3 C1.8 26.2 1.8 26.2 1.9 26.1 C1.6 26.2 1.4 26.3 1 26.5 C1.7 24 2.5 21.1 3.2 18.8 C2.9 18.6 1 16.3 3.5 12.8 C3.3 15.6 5.5 14.4 6.1 13.7 C6.7 13 7.3 12.3 7.9 11.6 C8.6 10.8 9.7 10.3 10.8 9.8 C11.2 9.3 11.7 8.8 12.1 8.3 C11.5 8.3 10.9 8.4 10.4 8.6 C12 6.4 14.3 4.6 16.9 3.7 C17.3 3.4 17.6 3.2 18 2.9 C16.6 2.3 15.1 1.7 13.7 1 C16.8 0.9 19.9 0.7 23.1 0.6 C24.4 0.5 26.2 0.6 28.4 3.5 C31.8 8 26.9 9.4 25.6 26.2 C24.9 36.1 25 42.4 24.8 46.4 C24.9 49.3 24.9 52.3 25 55.2 C24.3 54.4 23.7 53.7 23 52.9 C22.7 54.4 22.5 55.7 22.2 57.4 C20.9 56.4 19.6 55.5 18.3 54.5 C18.2 52.8 18.2 51.2 18.1 49.5 C18.1 49.5 18.1 49.5 18 49.4 C17.4 50.8 16.8 52.2 16.2 53.6 C15.8 51.6 15.5 49.5 15.1 47.5 C14.8 48.6 14.5 49.8 14.2 50.9 C13.6 49.2 12.9 47.5 12.3 45.9 C12.1 46.8 11.8 47.7 11.6 48.6 C10.1 47.6 8.6 46.6 7.1 45.7 C7.1 44.7 7.2 43.8 7.2 42.8 C6.5 43.6 5.9 44.4 5.2 45.2 C3.1 42.7 2.1 39.4 2.4 36.2 C2.2 35.6 2 35.1 1.9 34.5 C1.4 35.4 0.8 36.2 0.2 37 C0.2 35.6 0 32.1 0.3 29.9 C0.5 28.6 1 27.4 1.8 26.3 z M1.8 26.3 C1.6 26.8 1.5 27.3 1.4 27.8 C1.1 29.8 1.3 33.1 1.3 34.3 C1.9 33.6 2.4 32.8 2.9 32 C3 32.6 3.2 33 3.4 33.6 C3.1 36.6 3.7 39.4 5.7 41.7 C6.3 41 7.8 40.8 8.5 40.1 C8.5 41 8.7 41.8 8.7 42.7 C10.1 43.5 10.2 44.1 11.6 45 C11.8 44.2 12.8 43.6 13 42.7 C13.6 44.2 13.5 45.4 14.1 47 C14.4 46 15.6 45.6 15.9 44.6 C16.3 46.4 16.7 47.8 17 49.7 C17.6 48.4 18.3 47.6 18.8 46.3 C18.9 46.4 19 49 19.1 50.6 C20.3 51.5 20.7 52.3 21.9 53.2 C22.2 51.6 22.4 50.4 22.6 49.1 C23.2 49.8 23.8 50.5 24.4 51.2 C24.3 48.5 23.4 46.5 23.3 43.8 C22.9 40.7 22.7 38.4 23.3 29.3 C24.5 13.8 30.7 7.7 27.5 3.5 C25.5 0.8 23.7 1.1 22.5 1.2 C19.5 1.3 19.6 1.5 16.8 1.6 C18.1 2.2 18.6 3 19.9 3.5 C19.5 3.8 18.3 4 18 4.3 C15.6 5.1 13.6 5.7 12.1 7.7 C12.6 7.5 13.4 7.4 14 7.4 C13.6 7.9 12.5 9.4 12.1 9.8 C11.1 10.3 9.5 11.4 8.9 12.1 C8.3 12.7 7.5 13.3 7 14 C6.5 14.7 3.8 16.3 3 14.3 C2.7 17.1 3.8 17.4 4.1 17.6 C3.5 19.7 2.7 22.4 2.1 24.7 C2.5 24.5 2.7 24.4 3 24.3 C2.5 24.9 2.2 25.5 1.9 26.1 C1.9 26.1 2 26.1 2 26.1 C1.9 26.2 1.9 26.2 1.8 26.3 z" opacity="0.15" id="q1" /></g></g><g transform="translate(170.2, 177.8999) scale(1.1) translate(-170.2, -182.8999)" id="r1"><g transform="translate(-285.5, 89.79996) translate(40, 47)" id="s1"><path d="M383.8 30.1 C384.8 31.9 394.2 51.5 396.3 60.1 C398.4 68.9 398 81.4 414.2 80.8 C430.4 80.2 431 79.1 434.8 60.1 C438.6 41.1 446.4 32.5 446.8 30 C447.3 27.5 445 26.3 441.3 22.6 C437.6 19 434.5 11.3 428.3 11.2 C423.8 10.9 414.6 20.8 426 34.3 C426.7 35 432.1 45 430.3 45.8 C428.5 45.8 427 43.1 424.6 40.7 C423.4 39.5 420.7 38 419.7 36.6 C418.7 34.7 417.8 28.5 417.4 22.4 C416.9 14.4 417.1 6.3 415.7 6.4 C413.2 6.4 413.2 32.4 411.8 36.6 C411.1 38.8 409.2 39.1 407.5 40.7 C404.9 43.1 402.3 46.1 401.1 45.8 C399.6 45.6 402 37.5 404.7 35.6 C412.6 28.8 409.6 11.3 404.7 11.3 C396.8 11.3 395.5 16.4 392.2 20.1 C388.9 24 382.7 28.2 383.8 30.1 z" id="t1" fill="#FFF" /><path d="M383.8 30.1 C382.7 28.2 388.9 24 392.2 20.2 C395.5 16.5 396.8 11.4 404.7 11.4 C409.6 11.4 412.6 28.9 404.7 35.7 C402 37.6 399.6 45.7 401.1 45.9 C402.3 46.2 404.9 43.2 407.5 40.8 C409.2 39.2 411.1 38.9 411.8 36.7 C413.2 32.5 413.2 6.5 415.7 6.5 C417.1 6.4 416.9 14.5 417.4 22.5 C417.8 28.6 418.7 34.8 419.7 36.7 C420.7 38.1 423.4 39.6 424.6 40.8 C427 43.2 428.5 45.9 430.3 45.9 C432.1 45.1 426.7 35.1 426 34.4 C414.6 20.9 423.8 11 428.3 11.3 C434.5 11.4 437.6 19.1 441.3 22.7 C445 26.4 447.3 27.6 446.8 30.1 C446.4 32.6 438.6 41.3 434.8 60.2 C431 79.2 430.4 80.3 414.2 80.9 C398 81.5 398.4 69 396.3 60.2 C394.2 51.5 384.8 31.9 383.8 30.1 z M385.5 29.8 C386.5 31.5 395.4 50.1 397.3 58.2 C399.3 66.5 398.9 78.3 414.2 77.8 C429.5 77.2 430.1 76.2 433.7 58.2 C437.3 40.2 444.7 32.1 445 29.8 C445.5 27.4 443.3 26.3 439.8 22.8 C436.4 19.4 434.3 11.5 428.5 11.4 C424.2 11.1 415.5 20.8 426.2 33.5 C426.9 34.2 433.6 45.4 430.8 47.3 C429.1 47.3 425.4 43 423.1 40.7 C422 39.6 419.7 37.6 418.7 36.3 C417.8 34.5 417 28.3 416.6 22.5 C416.1 14.9 416.9 7.4 415.6 7.5 C413.2 7.5 414.1 32.5 412.7 36.4 C412 38.5 410.2 39.7 408.6 41.2 C406.1 43.5 400.6 47.8 399.5 47.5 C398.1 47.3 401.6 36.7 404.2 34.9 C411.7 28.5 407.7 12 404.6 12.1 C397.1 12.1 396.6 16.9 393.4 20.4 C390.4 24.1 384.5 28.1 385.5 29.8 z" opacity="0.15" id="u1" /></g><g transform="translate(169.8, 207.3) scale(1, 0.5) translate(-169.8, -207.3) translate(107.3, 130.3) translate(50, 64) translate(0, -3.399979)" id="v1"><g id="w1" fill="#282421"><path d="M24.4 29.3 C24.3 28.8 23.9 28.4 23.8 27.9 C22.5 24.6 21.9 21 19.9 17.9 C18.4 15.6 16.4 14.4 14 13.8 L14 2.3 C14 1.5 13.3 0.8 12.5 0.8 C11.7 0.8 11 1.5 11 2.3 L11 13.6 C10.1 13.8 9.3 14.1 8.6 14.5 C5.4 16.2 3.9 19.6 2.8 22.8 C2.3 24.4 1.8 26.1 1.2 27.6 C1 28.1 0.6 28.6 0.5 29.1 C0.4 29.8 0.9 29.9 1.4 29.5 C2.3 28.5 2.8 26.9 3.3 25.7 C4 24 4.7 22.3 5.7 20.7 C6.5 19.3 7.6 18 9 17.1 C10.1 16.5 10.8 16.4 12.4 16.3 C14 16.2 15.2 16.7 15.9 17.1 C18.9 18.8 20.2 22.5 21.5 25.5 C22 26.7 22.5 28.4 23.5 29.4 C23.9 30 24.6 30 24.4 29.3 z" id="x1" /></g></g><g transform="translate(170.2, 196.8) scale(0.8) translate(-170.2, -196.8) translate(103.7, 102.1) translate(57, 86)" id="y1"><g id="z1"><path d="M9.5 0.7 C3.4 0.7 0.3 2.6 0.2 6.7 C0.1 13.3 4.8 15.1 9.5 16.6 C14.1 15 18.9 13.2 18.8 6.7 C18.7 2.7 15.6 0.7 9.5 0.7 z" id="a2" fill="#332320" /><path d="M10.4 2.1 C8.3 2 6.2 2.3 4.3 2.9 C3.6 3.1 2.5 3.6 2.7 4.4 C3 5.8 11.1 4.3 13.8 3.7 C14 3.6 14.3 3.6 14.4 3.4 C15.5 2.5 10.9 2.1 10.4 2.1 z" id="b2" fill="#FFF" /></g></g><g transform="translate(153.6, 164.2) scale(1) translate(-153.6, -168.2) translate(88.10001, 135.3) translate(55, 18)" id="c2"><g id="d2"><path d="M1.8 10.9 C4.2 6.6 6.4 6 7.9 4.5 C10.3 2 13.9 0.3 14.6 0.8 C15.3 1.3 20.6 9.2 21.3 10.1 C22.5 11.8 22.5 14.4 21.3 17.7 C21 18.5 19.9 19.4 17.9 20.4 C15.3 21.1 12.7 21.4 10 21.3 C8.7 21.2 5.6 20.7 4.5 21 C2.1 21.6 2.1 23.1 1.5 21.9 C0.5 20.2 -0.8 15.7 1.8 10.9 z" id="e2" fill="#81665B" /><path d="M17.4 18.2 C18.6 16.3 17.8 14 17.1 12.5 C16.3 10.7 14.6 9.9 13.7 9.5 C11.2 8.4 9.2 8.8 7.3 10.4 C5.4 12 3.8 15 3.8 16.6 C3.8 18.2 7.9 19.8 11 19.8 C14.2 19.6 16.3 20.1 17.4 18.2 z" id="f2" /><path d="M13.1 12.7 C13.1 11.5 12.1 10.5 10.9 10.5 C9.8 10.5 8.8 11.5 8.8 12.8 C8.8 14.1 9.8 15 11 15 C11 14.9 11 14.9 11 14.8 C10.8 14.3 10.9 13.8 11.4 13.2 C12 12.7 12.5 12.6 13.1 12.7 z" id="g2" fill="#FFFFFE" /></g></g><g transform="translate(187.4, 164.3) scale(1) translate(-187.4, -168.3) translate(86.7, 135.4) translate(89, 18)" id="h2"><path d="M20.5 10.9 C18.1 6.5 15.9 6 14.4 4.5 C12 2 8.4 0.3 7.7 0.8 C7 1.3 2.4 8.2 1.3 10 C-0.2 12.3 0.7 16.7 3 19.2 C5.3 21.7 8.2 21.5 12.3 21.2 C13.6 21.1 16.7 20.6 17.8 20.9 C20.2 21.5 20.2 23 20.8 21.8 C21.7 20.2 23 15.7 20.5 10.9 z" id="i2" fill="#81665B" /><g transform="translate(5, 9)" id="j2"><path d="M1.1 8.8 C0 6.9 0.9 4.7 1.6 3.3 C2.4 1.7 4.2 0.9 5.1 0.6 C7.6 -0.3 9.6 0.2 11.4 1.8 C13.2 3.4 14.7 6.4 14.5 7.9 C14.3 9.4 10.3 10.7 7.3 10.6 C4.2 10.3 2.2 10.6 1.1 8.8 z" id="k2" /><path d="M8.7 4 C8.7 2.8 7.7 1.9 6.5 1.9 C5.4 1.9 4.4 2.9 4.4 4.1 C4.4 5.3 5.4 6.3 6.6 6.3 C6.6 6.2 6.6 6.2 6.6 6.1 C6.4 5.6 6.5 5.1 7 4.6 C7.6 4 8.1 3.9 8.7 4 z" id="l2" fill="#FFFFFE" /></g></g></g></g></g></g><defs><g transform="translate(17.09519, 0.800995) translate(-135.2952, -293.601)" id="m2" fill="#000"><path d="M118.2 302.7 C118.4 307.4 132.5 311.2 149.8 311.2 C167.1 311.2 181.2 307.4 181.4 302.7 C181.4 307.5 181.4 310.1 181.4 310.5 C181.4 315.3 167.3 319.1 149.8 319.1 C132.3 319.1 118.2 315.2 118.2 310.5 L118.2 302.7 L118.2 302.7 z" fill-opacity="0.4528" id="n2" fill="#593001" /><path d="M118.7 301.7 C118.9 306.4 133 310.2 150.3 310.2 C167.6 310.2 181.7 306.4 181.9 301.7 C181.9 306.5 181.9 309.1 181.9 309.5 C181.9 314.3 167.8 318.1 150.3 318.1 C132.8 318.1 118.7 314.2 118.7 309.5 L118.7 301.7 L118.7 301.7 z" id="o2" fill="#DA8113" /><linearGradient x1="46.0545" y1="-118.6926" x2="45.4656" y2="-118.6926" gradientUnits="userSpaceOnUse" gradientTransform="matrix(117.135, 0, 0, 28.4634, -5208.417, 3687.795)" id="p2"><stop offset="0%" stop-color="#D9952A" stop-opacity="1" /><stop offset="6.438854%" stop-color="#CA7519" stop-opacity="1" /><stop offset="30.54%" stop-color="#E3AD3A" stop-opacity="1" /><stop offset="51.05%" stop-color="#FFEC91" stop-opacity="1" /><stop offset="68.8%" stop-color="#E9BD44" stop-opacity="1" /><stop offset="86.24%" stop-color="#FFED6C" stop-opacity="1" /><stop offset="93.87%" stop-color="#F2D353" stop-opacity="1" /><stop offset="100%" stop-color="#F2B947" stop-opacity="1" /></linearGradient><path d="M118.2 301.6 C118.4 306.1 132.7 309.7 150.3 309.7 C167.9 309.7 182.2 306.1 182.4 301.6 C182.4 306.2 182.4 308.7 182.4 309 C182.4 313.5 168 317.2 150.3 317.2 C132.6 317.2 118.2 313.5 118.2 309 L118.2 301.6 L118.2 301.6 z" id="q2" style="fill:url(#p2)" /><linearGradient x1="45.4914" y1="-117.9547" x2="45.9407" y2="-117.5895" gradientUnits="userSpaceOnUse" gradientTransform="matrix(115.425, 0, 0, 29.925, -5125.077, 3826.124)" id="r2"><stop offset="0%" stop-color="#F4E072" stop-opacity="1" /><stop offset="100%" stop-color="#DB9427" stop-opacity="1" /></linearGradient><ellipse cx="150.3" cy="301.5" rx="31.6" ry="8.2" id="s2" style="fill:url(#r2)" /><linearGradient x1="45.4656" y1="-126.0065" x2="46.0545" y2="-126.0065" gradientUnits="userSpaceOnUse" gradientTransform="matrix(117.135, 0, 0, 18.6219, -5208.417, 2651.479)" id="t2"><stop offset="0%" stop-color="#D9952A" stop-opacity="1" /><stop offset="6.438854%" stop-color="#CA7519" stop-opacity="1" /><stop offset="30.54%" stop-color="#E3AD3A" stop-opacity="1" /><stop offset="51.05%" stop-color="#FFEC91" stop-opacity="1" /><stop offset="68.8%" stop-color="#E9BD44" stop-opacity="1" /><stop offset="86.24%" stop-color="#FFED6C" stop-opacity="1" /><stop offset="93.87%" stop-color="#F2D353" stop-opacity="1" /><stop offset="100%" stop-color="#F2B947" stop-opacity="1" /></linearGradient><path d="M119.2 299.9 C119 300.2 118.9 300.6 118.9 301 C118.9 305.5 132.9 309.2 150.3 309.2 C167.7 309.2 181.7 305.5 181.7 301 C181.7 300.6 181.6 300.3 181.4 299.9 C182 300.5 182.4 301.2 182.4 301.9 C182.4 306.4 168 310.1 150.3 310.1 C132.6 310.1 118.2 306.4 118.2 301.9 C118.2 301.3 118.6 300.6 119.2 299.9 z" id="u2" style="fill:url(#t2)" /><linearGradient x1="45.196" y1="-121.5895" x2="45.3746" y2="-120.6758" gradientUnits="userSpaceOnUse" gradientTransform="matrix(101.745, 0, 0, 23.94, -4458.332, 3199.41)" id="v2"><stop offset="0%" stop-color="#F8DD61" stop-opacity="1" /><stop offset="100%" stop-color="#EAA330" stop-opacity="1" /></linearGradient><ellipse cx="150.3" cy="300.8" rx="27.8" ry="6.6" id="w2" style="fill:url(#v2)" /><linearGradient x1="45.5694" y1="-134.267" x2="45.0221" y2="-134.267" gradientUnits="userSpaceOnUse" gradientTransform="matrix(101.745, 0, 0, 13.2525, -4458.332, 2077.223)" id="x2"><stop offset="0%" stop-color="#F4CA2F" stop-opacity="1" /><stop offset="51.38%" stop-color="#BF7737" stop-opacity="1" /><stop offset="100%" stop-color="#E4A929" stop-opacity="1" /></linearGradient><path d="M122.6 301.5 C122.5 301.3 122.4 301 122.4 300.8 C122.4 297.2 134.9 294.2 150.2 294.2 C165.5 294.2 178 297.1 178 300.8 C178 301 177.9 301.3 177.8 301.5 C176.3 298.2 164.5 295.6 150.1 295.6 C135.7 295.6 124.1 298.2 122.6 301.5 z" id="y2" style="fill:url(#x2)" /></g></defs><desc>FNE2OK4GF82,bkF9EJfA1WAVryjSQt2bxfQYA5IlHUAjhrbYD31pJJZOMEN/NDdv4nFISnr34nkaoZgoEUDU4FKz442DJlZGfuNTQ9EVGBxqa1reqHGx+GE=</desc></svg>