<?xml version="1.0" encoding="utf-8"?><!DOCTYPE svg PUBLIC "-//W3C//DTD SVG 1.1//EN" "http://www.w3.org/Graphics/SVG/1.1/DTD/svg11.dtd"><svg x="0" y="0" width="340px" height="340px" viewBox="0, 0, 340, 340" preserveAspectRatio="xMidYMid" font-size="0" id="a" enable-background="new 0 0 340 340" xmlns="http://www.w3.org/2000/svg" xmlns:xlink="http://www.w3.org/1999/xlink" xmlns:xml="http://www.w3.org/XML/1998/namespace" version="1.1"><g id="b" fill="#000"><g id="c"><g transform="translate(0, 0) translate(0, 224)" id="d"><ellipse cx="168.6" cy="53.1" rx="57.8" ry="12.8" fill-opacity="0.25" id="e" /></g><g id="f"><g transform="translate(91.2, 76.59998) translate(24.5, 168.5) scale(-1, 1) translate(-24.5, -168.5) translate(0, 143)" id="g"><g id="h"><path d="M8.8 28.9 C11.9 29.7 12.9 31.3 15.9 30.5 C18.9 29.7 21.1 28.7 22.7 27.5 C23.5 26.9 24.4 26.3 26.1 24.5 C26.4 24.1 27.1 23.3 28 22 C28.1 22.8 28.2 23.3 28.2 23.7 C28.2 24.8 28 25.5 28 25.6 C28 25.8 31.3 21.4 32 16.6 C32.4 13.4 32.5 7.9 32.3 0 C35.8 3.2 38.2 5.9 39.3 7.9 C41 10.9 43.8 15.3 44.8 19.9 C45.4 23 45.8 25.8 45.8 28.4 C46.4 28.1 46.8 27.9 47 27.7 C47.2 27.5 47.5 27.1 48.1 26.4 C47.8 28.8 47.6 30.4 47.4 31.1 C46.5 35 45.5 36.2 44.8 37.2 C43.4 39.2 39.5 44.7 35.4 45.9 C32.7 46.7 28.6 47.1 23.3 47.1 L26.3 49.9 C16.6 48.9 10 46.7 6.6 43.5 C3.7 40.8 0.2 36.7 1.2 33 C2.2 28.9 5.7 28.1 8.8 28.9 z" id="i" fill="#CEB08D" /><path d="M33.7 23.1 C35.3 26 34.7 26.7 34.4 28.8 C36.7 27.6 38.1 25.7 39.1 24.7 C40.1 27.6 40.1 31.7 39.1 34.8 C39.6 34.4 40.8 34.5 41.9 33.5 C43 32.5 43.5 31.6 44 29.9 C45.9 31.4 45.1 35.3 45.1 35.7 C45.9 35.4 46.6 35.1 47.1 34.9 C46.6 35.8 46.2 36.4 45.8 36.9 C44.3 39 40.3 44.7 36 46 C33.1 46.8 29.8 47.6 24.2 47.6 L27.5 50.2 C17.4 49.1 9.5 46.9 5.9 43.5 C2.9 40.7 -0.8 36.4 0.2 32.6 C1.3 28.3 0.9 26.1 4.1 26.9 C7.3 27.7 10.2 29.5 14.7 29 C19.2 28.5 21 28.1 22.6 26.9 C23.4 26.3 24.4 25.7 26.1 23.8 C26.4 23.4 27.1 22.5 28.1 21.2 C28.2 22 28.3 22.6 28.3 22.9 C28.3 24.1 28.1 24.8 28.1 24.9 C28.1 24.9 29.4 24.9 30.1 23.8 C30.8 22.7 31.1 25.9 31.5 25.7 C32.3 25.1 33.3 23.4 33.7 23.1 z" id="j" fill="#F3DEBB" /><path d="M28.2 24.6 C28.2 24.7 28.2 24.8 28.2 24.9 C28.3 24.9 28.4 24.9 28.7 24.8 C29.7 23.4 31.6 20.1 32.1 16.6 C32.5 13.4 32.6 7.9 32.4 0 C35.9 3.2 38.3 5.9 39.4 7.9 C41.1 10.9 43.9 15.3 44.9 19.9 C45.5 23 45.9 25.8 45.9 28.4 C46.5 28.1 46.9 27.9 47.1 27.7 C47.3 27.5 47.6 27.1 48.2 26.4 C47.9 28.8 47.7 30.4 47.5 31.1 C47 33.1 46.5 34.4 46.1 35.4 C46.5 35.2 46.9 35.1 47.2 34.9 C46.7 35.8 46.3 36.4 45.9 36.9 C44.3 39 40.3 44.7 36 46 C33.1 46.8 29.8 47.6 24.2 47.6 L27.5 50.2 C17.4 49.1 9.5 46.9 5.9 43.5 C2.9 40.7 -0.8 36.4 0.2 32.6 C1.3 28.3 0.9 26.1 4.1 26.9 C7.3 27.7 10.2 29.5 14.7 29 C19.2 28.5 21 28.1 22.6 26.9 C23.4 26.3 24.4 25.7 26.1 23.8 C26.4 23.4 27.1 22.5 28.1 21.2 C28.2 22 28.3 22.6 28.3 22.9 C28.3 23.7 28.2 24.2 28.2 24.6 z M27.5 27.1 C27.6 24.9 27.6 23.6 27.5 23.1 C26.7 24.3 25.7 25.5 25.4 25.8 C24 27.5 21.4 29.2 17.7 29.6 C14 30 9.3 30.6 6.7 29.9 C4.1 29.2 3.7 30.4 2.8 34.3 C2 37.7 6.2 42.1 10.4 43.9 C14.3 45.5 14.3 47.1 22.6 48.1 L21.4 45.3 C26.2 46.4 32.5 45.5 34.9 44.8 C38.5 43.6 44.3 37.6 43.9 37.8 C44 37.5 46.7 36 45.4 36 C44.1 36 45.6 33.8 45.8 32.7 C46 32.1 46.6 31.3 46.8 29.1 C46.3 29.7 44.8 30 44.3 30.3 C44.3 28 44.4 23 43.9 20.2 C43 16 41.6 13.7 40.2 11 C39.3 9.2 36.2 4.9 33.3 2 C33.5 9.1 33.5 14.5 33.2 17.4 C33 18.8 32.2 21.6 30.7 23.8 C28.9 26.3 26.5 28 27.5 27.1 z" opacity="0.15" id="k" /></g></g><g transform="translate(126.3, 273.4) scale(1.059567) translate(-126.3, -273.4) translate(100.8, 88.19997) translate(17, 134)" id="l"><path d="M3.2 22.3 C1.8 20.2 0.9 17.9 0.7 15.3 C0.2 8.8 5.5 2.5 11.9 1.2 C18.3 -0.1 25.2 2.9 29.1 8.2 C32.2 12.3 32.5 17.4 32.6 22.6 C32.6 24 5.5 25.8 3.2 22.3 z" id="m" fill="#CEB08D" /><path d="M12.6 31.2 C9 28.7 5.3 25.7 3 22 C4.3 21.1 5.9 20.5 7.6 20.1 C15.5 18 28 20.5 32.5 22.2 C32.5 23.8 32.6 25.4 32.6 26.9 C32.7 29.8 36 37.8 36 37.8 C34.6 41.9 31.1 44.9 27.7 47.7 C27.3 48 26.9 48.3 26.5 48.7 C23.3 51.4 24.3 54.8 19.2 54.5 C15 54.3 9.2 55.3 5.3 53.7 C2 49.3 5.1 40.6 11.7 40.2 C16.6 39.9 19.1 39.2 18 36.8 C16.9 34.4 14.8 32.7 12.6 31.2 z" id="n" fill="#B5997D" /><path d="M3 22 C1.7 20 0.9 17.8 0.7 15.3 C0.2 8.8 5.5 2.5 11.9 1.2 C18.3 -0.1 25.2 2.9 29.1 8.2 C32.2 12.3 32.5 17.4 32.6 22.6 C32.6 22.6 32.6 22.7 32.5 22.7 C32.5 24.1 32.6 25.5 32.6 26.9 C32.7 29.8 36 37.8 36 37.8 C34.6 41.9 31.1 44.9 27.7 47.7 C27.3 48 26.9 48.3 26.5 48.7 C23.3 51.4 24.3 54.8 19.2 54.5 C15 54.3 9.2 55.3 5.3 53.7 C2 49.3 5.1 40.6 11.7 40.2 C16.6 39.9 19.1 39.2 18 36.8 C16.9 34.4 14.8 32.7 12.6 31.2 C9 28.7 5.3 25.7 3 22 L3 22 z M1.7 15 C1.9 17.3 2.7 19.4 3.9 21.3 C6.1 24.8 9.6 27.6 12.9 30 C15 31.4 18.1 34 19.1 36.2 C20.1 38.4 18.8 41 14.2 41.3 C8 41.7 3.9 46.6 7 50.8 C10.7 52.3 15.2 51.8 19.1 52 C24 52.2 23 49 26 46.5 C26.4 46.1 26.8 45.8 27.1 45.6 C30.3 43 32 41 33.3 37.1 C33.3 37.1 31.8 28.7 31.7 26 C31.7 24.7 31.6 23.4 31.6 22.1 C31.7 22.1 31.7 22 31.7 22 C31.6 17.1 31.3 12.3 28.4 8.4 C24.7 3.4 18.2 0.6 12.2 1.8 C6.2 3 1.2 8.9 1.7 15 z" opacity="0.15" id="o" /></g><g transform="translate(208, 273.4) scale(1.059567) translate(-208, -273.4) translate(102, 88.19997) translate(83, 134)" id="p"><path d="M25.6 26.1 C30.2 22 32.1 22.1 32.6 15.3 C33.1 8.8 27.8 2.5 21.4 1.2 C15 -0.2 8.1 2.9 4.2 8.2 C0.3 13.5 0.2 20.6 1.3 26.8 C1.7 29.6 23.6 27.9 25.6 26.1 z" id="q" fill="#CEB08D" /><path d="M20.6 31.2 C24.2 28.7 27.9 25.7 30.2 22 C28.9 21.1 27.3 20.5 25.6 20.1 C17.7 18 5.2 20.5 0.7 22.2 C0.7 23.8 2.1 45 5.4 47.7 C5.8 48 6.2 48.3 6.6 48.7 C9.8 51.4 8.8 54.8 13.9 54.5 C18.1 54.3 23.9 55.3 27.8 53.7 C31.1 49.3 28 40.6 21.4 40.2 C16.5 39.9 14 39.2 15.1 36.8 C16.2 34.4 18.5 32.7 20.6 31.2 z" id="r" fill="#B5997D" /><path d="M0.7 22.2 C0.4 17.3 1.2 12.2 4.2 8.2 C8.1 2.9 15 -0.2 21.4 1.2 C27.8 2.5 33.1 8.8 32.6 15.3 C32.3 19.4 31.5 21 29.9 22.5 C27.6 26 24.1 28.8 20.6 31.2 C18.5 32.7 16.2 34.4 15.1 36.8 C14 39.2 16.5 39.9 21.4 40.2 C28 40.6 31.1 49.3 27.8 53.7 C23.9 55.3 18.1 54.3 13.9 54.5 C8.8 54.8 9.8 51.4 6.6 48.7 C6.2 48.3 5.8 48 5.4 47.7 C2.1 45 0.7 23.8 0.7 22.2 C0.7 22.2 0.7 22.2 0.7 22.2 z M4.8 8.2 C2 12 1.3 16.8 1.5 21.5 C1.5 23 3.4 42.5 6.5 45.1 C6.9 45.4 7.5 46.6 7.9 47 C10.9 49.6 9.2 52.5 14 52.2 C18 52 23.5 53 27.2 51.4 C30.3 47.2 26.2 42 19.9 41.6 C15.3 41.3 12.6 39.3 13.6 37 C14.6 34.7 18.3 31.5 20.3 30.1 C23.5 27.8 26.9 25.2 29.1 21.9 C30.6 20.5 31.4 18.9 31.7 15 C32.2 8.8 27.1 2.9 21.1 1.6 C15.1 0.2 8.5 3.2 4.8 8.2 z" opacity="0.15" id="s" /></g><g transform="translate(95.60001, 79.79997) translate(31, 74)" id="t"><g opacity="0.15" transform="translate(1, 1)" id="u"><path d="M6.3 88.2 C2.7 77.8 -2.4 63.3 1.4 47.5 C3.9 37.3 7.3 29 16.1 19.9 C22.7 13.1 25.5 1 34.1 1 C37.9 1 45.4 0.5 48.9 2.1 C56.9 5.8 59.7 15.5 64.5 19.8 C71.2 25.8 76.5 33.3 80.1 46 C84.1 59.9 80.8 73.6 78.8 86.7 C76.8 99.8 65 113.7 62 118.1 C58.9 122.5 49.8 119.6 46.2 121.3 C42.6 123 40.1 121.2 36.3 120.4 C32.5 119.6 24.8 123 19.2 118.1 C13.6 113.3 10 99.1 6.3 88.2 z" stroke="#000000" stroke-width="2" opacity="0.15" id="v" /></g><path d="M7.3 88.2 C3.7 77.8 -1.4 63.3 2.4 47.5 C4.9 37.3 8.3 29 17.1 19.9 C23.7 13.1 26.5 1 35.1 1 C38.9 1 46.4 0.5 49.9 2.1 C57.9 5.8 60.7 15.5 65.5 19.8 C72.2 25.8 77.5 33.3 81.1 46 C85.1 59.9 81.8 73.6 79.8 86.7 C77.8 99.8 66 113.7 63 118.1 C59.9 122.5 50.8 119.6 47.2 121.3 C43.6 123 41.1 121.2 37.3 120.4 C33.5 119.6 25.8 123 20.2 118.1 C14.6 113.3 11 99.1 7.3 88.2 z" id="w" fill="#E5C498" /></g><g transform="translate(124.7, 193.12) scale(1, 0.9229125) translate(-124.7, -189.6) translate(91.30001, 76.39996) translate(33, 114)" id="x"><g id="y"><path d="M4.6 1.3 C4 6.3 3.4 9.9 3.1 13 C3 14 1.8 19.3 1.6 20.1 C2.3 19.5 2.7 19.7 3.1 19.2 C3.4 18.7 2.6 21.3 2.5 22.5 C2.4 23.5 1.5 25 1.1 26.8 C0.4 29.9 1.2 35.5 1.7 36.8 C2.8 34.7 3.6 31.3 4.4 31.5 C4.6 32.5 4 34.1 3.9 36.9 C3.9 38.2 3.8 43.8 4.2 44.4 C5.5 42.9 6.2 39.4 6.5 40.9 C6.6 41.5 6.4 43.5 6.3 46.2 C6.2 48.6 6.6 51.9 6.8 52.3 C7.7 49.8 7.5 50.3 7.5 51.3 C7.5 52.1 7.9 53.2 7.9 54.1 C7.9 56.4 7.5 62.7 8.4 60.4 C9.3 58.1 9.4 59.5 10.1 58.1 C9.1 61.4 9.4 63.3 9.5 64.7 C11.1 61.9 10.6 67 10.9 68.6 C11.2 69.9 12.4 69.6 12.2 71.3 C11.8 74.8 13.7 78.2 13.9 81.7 C14 83.4 9.6 83.2 6.9 88.2 C6.4 89.1 5.1 91.9 5.3 93.7 C5.4 95.3 6.7 94.5 9.3 94.7 C9.8 94.7 9.4 96.2 11 96.2 C12.2 96 11.7 95.8 14.4 95.6 C15.2 95.5 16.4 97.2 17.4 97.1 C21.6 96.7 27.1 94.6 30 93.7 C31.2 93.4 31.5 90.3 30.8 84.5 C32 82.8 32 81.1 30.8 79.6 C29.2 76.5 31.2 75.9 31.1 74.7 C30.5 69.9 28.6 66.7 28.5 65.1 C28.3 61.5 31 68.4 30.8 66.8 C30.4 62.5 29.2 59.5 29.2 57.6 C29 52.9 28.4 52.7 30 55.2 C30.1 54.6 30.2 51.9 29.5 49.6 C28.8 47.2 27.2 45.1 27.3 44.4 C27.4 44.6 28.6 44.7 29.5 45.8 C30.2 46.6 30.7 48.4 30.8 48.9 C31.7 47.1 32.1 45.5 31.6 41.5 C31.5 41.1 31 39.5 30.4 38.6 C29.8 37.6 29 37.3 28.9 36.9 C28.7 36.2 29.3 36.8 30.8 37.7 C30.3 36.3 30.1 34.6 28.9 32.6 C28 31 24.8 27.3 23.1 26.9 C23.6 26.6 25.5 26.3 27.7 28.2 C27.9 27.3 27.2 25.7 26.2 24.7 C24.1 22.8 21.2 21.5 20.8 20.8 C20.1 19.5 20.6 20.1 23.1 20.8 C21.8 17.1 19.3 17.1 18.6 15.6 C18 14.3 16.4 13.5 14.3 12.4 C15.3 12.5 14.5 11.6 16.7 12.4 C16.2 10.8 12.8 6.8 11.5 5.5 C10 4 4.8 -0.8 4.6 1.3 z" id="z" fill="#F3DEBB" /><path d="M14.9 12.3 C13.8 10.9 12.6 9.5 11.9 8.8 C10.5 7.4 5.7 3 5.5 4.9 C4.9 9.5 4.4 12.9 4.1 15.7 C4 16.6 2.9 21.5 2.7 22.3 C3.3 21.7 3.7 21.9 4.1 21.5 C4.4 21 3.6 23.4 3.5 24.6 C3.4 25.5 2.6 26.9 2.2 28.6 C1.6 31.3 1.6 32 2 33.2 C3 31.3 4.1 28.3 4.9 28.5 C5.1 29.4 4.9 35.2 4.8 37.8 C4.8 39 4.4 39.9 4.8 40.4 C6 39.1 7.7 35.7 8 37.1 C8.1 37.7 7.1 43.9 7.1 46.4 C7 48.6 7.5 48.3 7.6 48.7 C8.4 46.4 9.7 47.2 9.7 48.1 C9.7 48.8 9.4 52.6 9.4 53.5 C9.4 55.6 8.5 59.4 9.3 57.3 C10.1 55.2 11.5 57.5 12.1 56.2 C11.2 59.3 10.7 61.1 10.8 62.4 C12.3 59.8 12.2 65.4 12.5 66.9 C12.8 68.1 13.6 68.9 13.4 70.5 C13 73.7 15.1 79.8 15.2 83 C15.3 84.6 12.9 84.1 10.1 86.3 C9.6 87.1 7.4 89.7 7.6 91.4 C7.7 92.9 7.7 91.7 10.1 91.9 C10.6 91.9 10.5 93.2 12 93.2 C13.1 93 12.8 93 15.3 92.8 C16 92.7 16.5 93.7 17.5 93.6 C21.4 93.2 24.6 92.4 27.3 91.6 C28.4 91.3 30 89.7 29.3 84.3 C30.4 82.7 30.3 77.9 29.2 76.6 C27.7 73.7 29.3 72.8 29.2 71.7 C28.6 67.3 27.9 65.6 27.8 64.1 C27.6 60.8 30.1 65.2 29.9 63.7 C29.5 59.7 28.4 58.9 28.4 57.1 C28.2 52.8 28 51.3 29.5 53.6 C29.6 53 29.3 51.8 28.7 49.7 C28.1 47.5 26.6 45.5 26.7 44.9 C26.8 45.1 26.5 41.6 27.4 42.6 C28 43.3 30.7 44.9 31.3 46.9 C31.2 44.5 31.4 45.9 31 42.2 C30.9 41.8 30.2 40.3 29.6 39.5 C29 38.6 27.5 37 27.4 36.6 C27.2 36 28.2 34.9 29.6 35.7 C29.1 34.4 28.5 34 27.4 32.1 C26.6 30.6 23.2 26.8 21.6 26.4 C22.1 26.1 24.5 24.7 26.5 26.5 C26.7 25.7 25 25.5 24.1 24.6 C22.2 22.8 21 23.7 20.7 23 C20.1 21.8 20.5 22.4 22.8 23 C22.7 22.6 22.5 22.2 22.3 21.9 C23.4 22.6 25.1 23.6 26.4 24.8 C27.4 25.8 28.1 27.4 27.9 28.3 C25.7 26.4 23.8 26.7 23.3 27 C25 27.4 28.2 31.1 29.1 32.7 C30.3 34.7 30.5 36.4 31 37.8 C29.5 36.9 28.9 36.3 29.1 37 C29.2 37.4 30 37.7 30.6 38.7 C31.2 39.6 31.7 41.2 31.8 41.6 C32.3 45.6 31.9 47.2 31 49 C30.9 48.5 30.4 46.7 29.7 45.9 C28.8 44.8 27.6 44.7 27.5 44.5 C27.4 45.2 29 47.3 29.7 49.7 C30.4 52 30.3 54.7 30.2 55.3 C28.6 52.8 29.2 53 29.4 57.7 C29.4 59.6 30.6 62.6 31 66.9 C31.2 68.5 28.5 61.6 28.7 65.2 C28.8 66.8 30.7 70 31.3 74.8 C31.4 76 29.4 76.6 31 79.7 C32.2 81.2 32.2 82.9 31 84.6 C31.7 90.4 31.4 93.5 30.2 93.8 C27.3 94.7 21.8 96.8 17.6 97.2 C16.6 97.3 15.4 95.6 14.6 95.7 C11.9 95.9 12.4 96.1 11.2 96.3 C9.6 96.3 10 94.8 9.5 94.8 C6.9 94.6 5.6 95.4 5.5 93.8 C5.3 92 6.6 89.2 7.1 88.3 C9.8 83.3 14.2 83.5 14.1 81.8 C13.9 78.3 12 74.9 12.4 71.4 C12.6 69.7 11.4 70 11.1 68.7 C10.8 67.1 11.3 62 9.7 64.8 C9.6 63.4 9.3 61.5 10.3 58.2 C9.6 59.6 9.5 58.2 8.6 60.5 C7.7 62.8 8.1 56.5 8.1 54.2 C8.1 53.3 7.7 52.2 7.7 51.4 C7.7 50.4 7.9 49.9 7 52.4 C6.8 52 6.4 48.7 6.5 46.3 C6.6 43.6 6.8 41.6 6.7 41 C6.4 39.5 5.7 43 4.4 44.5 C4 43.9 4.1 38.3 4.1 37 C4.2 34.2 4.8 32.6 4.6 31.6 C3.8 31.4 3 34.8 1.9 36.9 C1.4 35.6 0.6 30 1.3 26.9 C1.7 25.1 2.6 23.6 2.7 22.6 C2.8 21.4 3.6 18.8 3.3 19.3 C2.9 19.8 2.5 19.6 1.8 20.2 C1.8 19.3 3 14 3.1 13 C3.4 9.9 4 6.3 4.6 1.3 C4.8 -0.8 10 4 11.5 5.5 C12.8 6.8 16.2 10.8 16.7 12.4 C15.2 11.9 15.1 12.1 14.9 12.3 z M15.4 13 C16.9 13.8 18.1 14.6 18.6 15.6 C19.3 17.1 21.8 17.1 23.1 20.8 C21.8 20.4 21 20.1 20.7 20 C19.8 19.2 18.8 18.9 18.5 18.1 C17.9 16.9 16.5 16.2 14.5 15.1 C15.4 15.2 14.7 14.4 16.7 15.1 C16.5 14.6 16 13.8 15.4 13 z" opacity="0.15" id="a1" /><path d="M83 1.7 C84.2 6.5 84.4 11.6 85.4 14.5 C85.7 15.3 86.9 19.3 87.1 20.1 C86.4 19.5 86 19.7 85.6 19.2 C85.3 18.7 86.1 21.3 86.2 22.5 C86.3 23.5 87.2 25 87.6 26.8 C88.3 29.9 87.5 35.5 87 36.8 C85.9 34.7 85.1 31.3 84.3 31.5 C84.1 32.5 84.7 34.1 84.8 36.9 C84.8 38.2 84.9 43.8 84.5 44.4 C83.2 42.9 82.5 39.4 82.2 40.9 C82.1 41.5 82.3 43.5 82.4 46.2 C82.5 48.6 82.1 51.9 81.9 52.3 C81 49.8 81.2 50.3 81.2 51.3 C81.2 52.1 80.8 53.2 80.8 54.1 C80.8 56.4 81.2 62.7 80.3 60.4 C79.4 58.1 79.3 59.5 78.6 58.1 C79.6 61.4 79.3 63.3 79.2 64.7 C77.6 61.9 78.1 67 77.8 68.6 C77.5 69.9 76.3 69.6 76.5 71.3 C76.9 74.8 75 78.2 74.8 81.7 C74.7 83.4 79.1 83.2 81.8 88.2 C82.3 89.1 83.6 91.9 83.4 93.7 C83.3 95.3 82 94.5 79.4 94.7 C78.9 94.7 79.3 96.2 77.7 96.2 C76.5 96 77 95.8 74.3 95.6 C73.5 95.5 72.3 97.2 71.3 97.1 C67.1 96.7 61.6 94.6 58.7 93.7 C57.5 93.4 57.2 90.3 57.9 84.5 C56.7 82.8 56.7 81.1 57.9 79.6 C59.5 76.5 57.5 75.9 57.6 74.7 C58.2 69.9 60.1 66.7 60.2 65.1 C60.4 61.5 57.7 68.4 57.9 66.8 C58.3 62.5 59.5 59.5 59.5 57.6 C59.7 52.9 60.3 52.7 58.7 55.2 C58.6 54.6 58.5 51.9 59.2 49.6 C59.9 47.2 61.5 45.1 61.4 44.4 C61.3 44.6 60.1 44.7 59.2 45.8 C58.5 46.6 58 48.4 57.9 48.9 C57 47.1 56.6 45.5 57.1 41.5 C57.2 41.1 57.7 39.5 58.3 38.6 C58.9 37.6 62.4 36.7 62.5 36.3 C62.7 35.6 60.7 34.1 59.2 35.1 C59.7 33.7 59.8 33.6 60.9 31.6 C61.8 30 65.1 27.3 66.8 26.9 C66.3 26.6 63.1 26.3 60.9 28.2 C60.7 27.3 61.4 25.7 62.4 24.7 C64.5 22.8 67.4 21.5 67.8 20.8 C68.5 19.5 68 20.1 65.5 20.8 C66.8 17.1 69.3 17.1 70 15.6 C70.6 14.3 72.2 13.5 74.3 12.4 C73.2 12.5 76.8 11.1 72.3 11 C73.3 9.7 76.5 7.4 77.7 6.9 C78.5 6.2 80.6 4.3 83 1.7 z" id="b1" fill="#F3DEBB" /><path d="M73.9 12.3 C75 10.9 76.2 9.5 76.9 8.8 C78.3 7.4 83.1 3 83.3 4.9 C83.9 9.5 84.4 12.9 84.7 15.7 C84.8 16.6 85.9 21.5 86.1 22.3 C85.5 21.7 85.1 21.9 84.7 21.5 C84.4 21 85.2 23.4 85.3 24.6 C85.4 25.5 86.2 26.9 86.6 28.6 C87.2 31.5 87.3 32.1 86.8 33.3 C85.8 31.4 84.7 28.4 83.9 28.6 C83.7 29.5 83.9 35.3 84 37.9 C84 39.1 84.4 40 84 40.5 C82.8 39.1 81.1 35.8 80.8 37.2 C80.7 37.8 81.7 44 81.7 46.5 C81.8 48.7 81.3 48.4 81.2 48.8 C80.4 46.5 79.1 47.3 79.1 48.2 C79.1 48.9 79.4 52.7 79.4 53.6 C79.4 55.7 80.3 59.5 79.5 57.4 C78.7 55.3 77.3 57.6 76.7 56.3 C77.6 59.4 78.1 61.2 78 62.5 C76.5 59.9 76.6 65.5 76.3 67 C76 68.2 75.2 69 75.4 70.6 C75.8 73.8 73.7 79.9 73.6 83.1 C73.5 84.7 75.9 84.2 78.7 86.4 C79.2 87.2 81.4 89.8 81.2 91.5 C81.1 93 81.1 91.8 78.7 92 C78.2 92 78.3 93.3 76.8 93.3 C75.7 93.1 76 93.1 73.5 92.9 C72.8 92.8 72.3 93.8 71.3 93.7 C67.4 93.3 64.2 92.5 61.5 91.7 C60.4 91.4 58.8 89.8 59.5 84.4 C58.4 82.8 58.5 78 59.6 76.7 C61.1 73.8 59.5 72.9 59.6 71.8 C60.2 67.4 60.9 65.7 61 64.2 C61.2 60.9 58.7 65.3 58.9 63.8 C59.3 59.8 60.4 59 60.4 57.2 C60.6 52.9 60.8 51.4 59.3 53.7 C59.2 53.1 59.5 51.9 60.1 49.8 C60.7 47.6 62.2 45.6 62.1 45 C62 45.2 62.3 41.7 61.4 42.7 C60.8 43.4 58.1 45 57.5 47 C57.6 44.6 57.4 46 57.8 42.3 C57.9 41.9 58.6 40.4 59.2 39.6 C59.8 38.7 61.3 37.1 61.4 36.7 C61.6 36.1 60.6 35 59.2 35.8 C59.7 34.5 60.3 34.1 61.4 32.2 C62.2 30.7 65.6 26.9 67.2 26.5 C66.7 26.2 64.3 24.8 62.3 26.6 C62.1 25.8 63.8 25.6 64.7 24.7 C66.6 22.9 67.8 23.8 68.1 23.1 C68.7 21.9 68.3 22.5 66 23.1 C66.1 22.7 66.3 22.3 66.5 22 C65.4 22.7 63.7 23.7 62.4 24.9 C61.4 25.9 60.7 27.5 60.9 28.4 C63.1 26.5 65 26.8 65.5 27.1 C63.8 27.5 60.6 31.2 59.7 32.8 C58.5 34.8 58.3 36.5 57.8 37.9 C59.3 37 59.9 36.4 59.7 37.1 C59.6 37.5 58.8 37.8 58.2 38.8 C57.6 39.7 57.1 41.3 57 41.7 C56.5 45.7 56.9 47.3 57.8 49.1 C57.9 48.6 58.4 46.8 59.1 46 C60 44.9 61.2 44.8 61.3 44.6 C61.4 45.3 59.8 47.4 59.1 49.8 C58.4 52.1 58.5 54.8 58.6 55.4 C60.2 52.9 59.6 53.1 59.4 57.8 C59.4 59.7 58.2 62.7 57.8 67 C57.6 68.6 60.3 61.7 60.1 65.3 C60 66.9 58.1 70.1 57.5 74.9 C57.4 76.1 59.4 76.7 57.8 79.8 C56.6 81.3 56.6 83 57.8 84.7 C57.1 90.5 57.4 93.6 58.6 93.9 C61.5 94.8 67 96.9 71.2 97.3 C72.2 97.4 73.4 95.7 74.2 95.8 C76.9 96 76.4 96.2 77.6 96.4 C79.2 96.4 78.8 94.9 79.3 94.9 C81.9 94.7 83.2 95.5 83.3 93.9 C83.5 92.1 82.2 89.3 81.7 88.4 C79 83.4 74.6 83.6 74.7 81.9 C74.9 78.4 76.8 75 76.4 71.5 C76.2 69.8 77.4 70.1 77.7 68.8 C78 67.2 77.5 62.1 79.1 64.9 C79.2 63.5 79.5 61.6 78.5 58.3 C79.2 59.7 79.3 58.3 80.2 60.6 C81.1 62.9 80.7 56.6 80.7 54.3 C80.7 53.4 81.1 52.3 81.1 51.5 C81.1 50.5 80.9 50 81.8 52.5 C82 52.1 82.4 48.8 82.3 46.4 C82.2 43.7 82 41.7 82.1 41.1 C82.4 39.6 83.1 43.1 84.4 44.6 C84.8 44 84.7 38.4 84.7 37.1 C84.6 34.3 84 32.7 84.2 31.7 C85 31.5 85.8 34.9 86.9 37 C87.4 35.7 88.2 30.1 87.5 27 C87.1 25.2 86.2 23.7 86.1 22.7 C86 21.5 85.2 18.9 85.5 19.4 C85.9 19.9 86.3 19.7 87 20.3 C86.8 19.5 85.6 14.2 85.5 13.2 C85.2 10.1 84.6 6.5 84 1.5 C83.8 -0.6 78.6 4.2 77.1 5.7 C75.8 7 72.4 11 71.9 12.6 C73.5 11.9 73.6 12.1 73.9 12.3 z M73.3 13 C71.8 13.8 70.6 14.6 70.1 15.6 C69.4 17.1 66.9 17.1 65.6 20.8 C66.9 20.4 67.7 20.1 68 20 C68.9 19.2 69.9 18.9 70.2 18.1 C70.8 16.9 72.2 16.2 74.2 15.1 C73.3 15.2 74 14.4 72 15.1 C72.2 14.6 72.7 13.8 73.3 13 z" opacity="0.15" id="c1" /></g></g></g><g transform="translate(168.6, 187.9) scale(0.9371555) translate(-168.6, -187.9)" id="d1"><g transform="translate(101.6, 81.19997) translate(23, 25)" id="e1"><g id="f1"><g id="g1"><path d="M87.2 74.6 C85.9 71 84.6 66.6 82.2 61.8 C83.8 62.4 85.3 63 86.1 64.5 C84.9 58.9 83.6 52.1 80.2 47.3 C80.2 46.9 80.2 46.5 80.2 46.1 C80 31.9 77.9 25.5 76.4 19.1 C74 9 65.6 3.7 57.8 1.1 C52.1 -0.8 46.6 1.3 43.9 1.3 C41.2 1.3 35.7 -0.8 30 1.1 C22.1 3.8 13.7 9 11.4 19.1 C9.9 25.5 7.8 31.9 7.6 46.1 C7.6 46.5 7.6 46.9 7.6 47.3 C4.2 52 2.9 58.9 1.7 64.5 C2.5 63 4 62.4 5.6 61.8 C3.3 66.6 1.9 71.1 0.6 74.6 C2.1 72.7 6 72.5 7.5 70.5 C6.5 74.9 5.8 87.6 12.8 92.5 C13.7 88.4 15.2 84.6 17.2 81.1 C17.5 82.6 18.1 84.3 18.9 86.1 C19.9 80.8 20.9 78.7 22.5 77.6 C21.8 84 20.9 88 23.7 89.6 C23.6 86.7 26 83.3 28.4 80.2 C32.3 83 36.8 84 43.9 84 C51.1 83.9 55.5 83 59.4 80.2 C61.8 83.4 64.2 86.8 64.1 89.6 C66.8 88 66 84 65.3 77.6 C66.9 78.8 67.9 80.8 68.9 86.1 C69.7 84.3 70.2 82.6 70.6 81.1 C72.6 84.6 74.2 88.5 75 92.5 C82 87.5 81.2 74.9 80.3 70.5 C81.8 72.4 85.6 72.7 87.2 74.6 z" id="h1" fill="#E8CCA2" /><path d="M87.2 74.6 C85.6 72.7 81.8 72.4 80.3 70.5 C81.2 74.9 82 87.5 75 92.5 C74.2 88.5 72.6 84.6 70.6 81.1 C70.2 82.6 69.7 84.3 68.9 86.1 C67.9 80.8 66.9 78.8 65.3 77.6 C66 84 66.8 88 64.1 89.6 C64.2 86.8 61.8 83.4 59.4 80.2 C55.5 83 51.1 83.9 43.9 84 C36.8 84 32.3 83 28.4 80.2 C26 83.3 23.6 86.7 23.7 89.6 C20.9 88 21.8 84 22.5 77.6 C20.9 78.7 19.9 80.8 18.9 86.1 C18.1 84.3 17.5 82.6 17.2 81.1 C15.2 84.6 13.7 88.4 12.8 92.5 C5.8 87.6 6.5 74.9 7.5 70.5 C6 72.5 2.1 72.7 0.6 74.6 C1.9 71.1 3.3 66.6 5.6 61.8 C4 62.4 2.5 63 1.7 64.5 C2.9 58.9 4.2 52 7.6 47.3 C7.6 46.9 7.6 46.5 7.6 46.1 C7.8 31.9 9.9 25.5 11.4 19.1 C13.7 9 22.1 3.8 30 1.1 C35.7 -0.8 41.2 1.3 43.9 1.3 C46.6 1.3 52.1 -0.8 57.8 1.1 C65.6 3.7 74 9 76.4 19.1 C77.9 25.5 80 31.9 80.2 46.1 C80.2 46.5 80.2 46.9 80.2 47.3 C83.6 52.1 84.9 58.9 86.1 64.5 C85.3 63 83.8 62.4 82.2 61.8 C84.6 66.6 85.9 71 87.2 74.6 z M84.1 70.6 C82.8 67.2 81.6 63.1 79.4 58.7 C80.9 59.2 82.3 59.8 83 61.2 C81.9 56 80.7 49.7 77.6 45.2 C77.6 44.9 77.6 44.5 77.6 44.1 C77.4 31 75.4 25 74 19.1 C71.8 9.7 64 4.8 56.8 2.4 C51.5 0.6 46.4 2.1 43.9 2.1 C41.4 2.1 36.3 0.6 31 2.4 C23.7 4.9 15.9 9.7 13.8 19.1 C12.4 25 10.4 31 10.2 44.1 C10.2 44.5 10.2 44.9 10.2 45.2 C7.1 49.6 5.9 56 4.8 61.2 C5.5 59.8 6.9 59.2 8.4 58.7 C6.2 63.1 5 67.3 3.7 70.6 C5.1 68.8 8.8 68.6 10.1 66.7 C9.2 70.8 6 82.6 12.5 87.2 C13.3 83.3 15.9 79.8 17.7 76.6 C18 78 18.4 79 19.1 80.7 C20.1 75.8 22.6 74.4 24.1 73.3 C23.4 79.3 22.4 82 24.2 83.6 C24.8 81.2 27.3 78.6 29.5 75.7 C33.1 78.3 37.3 80 43.9 80 C50.6 79.9 54.7 78.3 58.3 75.7 C60.5 78.7 63.8 81 63.7 83.6 C66.2 82.1 64.4 79.3 63.7 73.3 C65.2 74.4 67.7 75.1 68.7 80 C69.4 78.3 71.8 78 72.2 76.6 C74 79.8 74.7 83.4 75.4 87.2 C81.9 82.5 78.5 70.8 77.7 66.7 C79 68.5 82.6 68.8 84.1 70.6 z" opacity="0.15" id="i1" /></g></g></g><g transform="translate(153.1, 115.9) rotate(19, 0, 0) scale(1) translate(-150.1, -121.9) translate(120.6, 99.09996) translate(2, 16)" id="j1"><g id="k1"><path d="M0.2 37 C0.2 35.6 0.2 30.8 0.3 29.9 C0.2 28.7 0.9 27.3 2 26.1 C1.7 26.2 1.4 26.3 1 26.5 C1.7 24 3.2 18.8 3.2 18.8 C1.9 18 1.4 15.6 3.5 12.8 C3.3 15.6 5.5 14.4 6.1 13.7 C6.7 13 7.3 12.3 7.9 11.6 C8.6 10.8 9.7 10.3 10.8 9.8 C11.2 9.3 11.7 8.8 12.1 8.3 C11.5 8.3 10.9 8.4 10.4 8.6 C12 6.4 14.3 4.6 16.9 3.7 C17.3 3.4 17.6 3.2 18 2.9 C16.6 2.3 15.1 1.7 13.7 1 C16.8 0.9 19.9 0.7 23.1 0.6 C24.4 0.5 26.2 0.6 28.4 3.5 C31.8 8 26.9 9.4 25.6 26.2 C24.9 36.1 25 42.4 24.8 46.4 C24.9 49.3 24.9 52.3 25 55.2 C24.3 54.4 23.7 53.7 23 52.9 C22.7 54.4 22.5 55.7 22.2 57.4 C20.9 56.4 19.6 55.5 18.3 54.5 C18.2 52.8 18.2 51.2 18.1 49.5 C18.1 49.5 18.1 49.5 18 49.4 C17.4 50.8 16.8 52.2 16.2 53.6 C15.8 51.6 15.5 49.5 15.1 47.5 C14.8 48.6 14.5 49.8 14.2 50.9 C13.6 49.2 12.9 47.5 12.3 45.9 C12.1 46.8 11.8 47.7 11.6 48.6 C10.1 47.6 8.6 46.6 7.1 45.7 C7.1 44.7 7.2 43.8 7.2 42.8 C6.5 43.6 5.9 44.4 5.2 45.2 C3.1 42.7 2.1 39.4 2.4 36.2 C2.2 35.6 2 35.1 1.9 34.5 C1.4 35.4 0.8 36.2 0.2 37 z" id="l1" fill="#E3B988" /><path d="M0.2 37 C0.2 35.6 0.2 30.8 0.3 29.9 C0.2 28.7 0.9 27.3 2 26.1 C1.7 26.2 1.4 26.3 1 26.5 C1.7 24 3.2 18.8 3.2 18.8 C1.9 18 1.4 15.6 3.5 12.8 C3.3 15.6 5.5 14.4 6.1 13.7 C6.7 13 7.3 12.3 7.9 11.6 C8.6 10.8 9.7 10.3 10.8 9.8 C11.2 9.3 11.7 8.8 12.1 8.3 C11.5 8.3 10.9 8.4 10.4 8.6 C12 6.4 14.3 4.6 16.9 3.7 C17.3 3.4 17.6 3.2 18 2.9 C16.6 2.3 15.1 1.7 13.7 1 C16.8 0.9 19.9 0.7 23.1 0.6 C24.4 0.5 26.2 0.6 28.4 3.5 C31.8 8 26.9 9.4 25.6 26.2 C24.9 36.1 25 42.4 24.8 46.4 C24.9 49.3 24.9 52.3 25 55.2 C24.3 54.4 23.7 53.7 23 52.9 C22.7 54.4 22.5 55.7 22.2 57.4 C20.9 56.4 19.6 55.5 18.3 54.5 C18.2 52.8 18.2 51.2 18.1 49.5 C18.1 49.5 18.1 49.5 18 49.4 C17.4 50.8 16.8 52.2 16.2 53.6 C15.8 51.6 15.5 49.5 15.1 47.5 C14.8 48.6 14.5 49.8 14.2 50.9 C13.6 49.2 12.9 47.5 12.3 45.9 C12.1 46.8 11.8 47.7 11.6 48.6 C10.1 47.6 8.6 46.6 7.1 45.7 C7.1 44.7 7.2 43.8 7.2 42.8 C6.5 43.6 5.9 44.4 5.2 45.2 C3.1 42.7 2.1 39.4 2.4 36.2 C2.2 35.6 2 35.1 1.9 34.5 C1.4 35.4 0.8 36.2 0.2 37 z M1 33.9 C1.6 33.2 2.2 32.8 2.6 31.9 C2.7 32.5 2.9 33.5 3.1 34.1 C2.8 37 3.8 40.1 5.7 42.4 C6.4 41.7 6.9 40.9 7.6 40.2 C7.6 40.8 7.7 41.8 7.9 43.2 C9.2 44 10.3 44.7 11.3 45.3 C11.5 44.5 12.3 43.9 12.4 43.1 C13 44.6 13.3 45.6 13.9 47.2 C14.2 46.2 14.8 45.6 15 44.6 C15.4 46.4 16.1 47.8 16.5 49.7 C16.9 48.8 17.6 47.8 18.7 46.5 C18.8 48.7 18.9 50.3 19 51.3 C20.2 52.2 20.5 52.8 21.8 53.7 C22.1 52.1 22.3 50.9 22.6 49.6 C23.3 50.3 23.8 51 24.5 51.7 C24.4 49 23.2 35.8 23.9 26.7 C25 11.1 30.8 8.1 27.6 4 C25.5 1.3 24.2 1.1 23 1.1 C20 1.2 18.9 1.3 16 1.4 C17.3 2 18.1 2.4 19.4 3 C19 3.3 17.2 3.9 16.8 4.1 C14.4 4.9 13.2 5.7 11.7 7.7 C12.2 7.5 13 7.8 13.6 7.8 C13.2 8.3 11.2 9.7 10.8 10.1 C9.8 10.6 7.2 13 6.6 13.6 C6 14.2 3.8 15.6 3.2 13.8 C2.3 15.4 3.1 17.2 4.3 17.9 C4.3 17.9 2.7 22.1 2 24.4 C2.4 24.2 3.2 24.3 3.4 24.2 C2.4 25.3 1 26.9 1.1 28 C1.1 29.1 1 32.6 1 33.9 z" opacity="0.15" id="m1" /></g></g><g transform="translate(184.2, 115.9) rotate(-19, 0, 0) scale(1) translate(-187.2, -121.9) translate(97.9, 99.19997) translate(102, 45) scale(-1, 1) translate(-102, -45) translate(87, 16)" id="n1"><g id="o1"><path d="M0.2 37 C0.2 35.6 0 32.1 0.3 29.9 C0.5 28.5 1.1 27.2 2 26.1 C1.7 26.2 1.4 26.3 1 26.5 C1.7 24 2.5 21.1 3.2 18.8 C2.9 18.6 1 16.3 3.5 12.8 C3.3 15.6 5.5 14.4 6.1 13.7 C6.7 13 7.3 12.3 7.9 11.6 C8.6 10.8 9.7 10.3 10.8 9.8 C11.2 9.3 11.7 8.8 12.1 8.3 C11.5 8.3 10.9 8.4 10.4 8.6 C12 6.4 14.3 4.6 16.9 3.7 C17.3 3.4 17.6 3.2 18 2.9 C16.6 2.3 15.1 1.7 13.7 1 C16.8 0.9 19.9 0.7 23.1 0.6 C24.4 0.5 26.2 0.6 28.4 3.5 C31.8 8 26.9 9.4 25.6 26.2 C24.9 36.1 25 42.4 24.8 46.4 C24.9 49.3 24.9 52.3 25 55.2 C24.3 54.4 23.7 53.7 23 52.9 C22.7 54.4 22.5 55.7 22.2 57.4 C20.9 56.4 19.6 55.5 18.3 54.5 C18.2 52.8 18.2 51.2 18.1 49.5 C18.1 49.5 18.1 49.5 18 49.4 C17.4 50.8 16.8 52.2 16.2 53.6 C15.8 51.6 15.5 49.5 15.1 47.5 C14.8 48.6 14.5 49.8 14.2 50.9 C13.6 49.2 12.9 47.5 12.3 45.9 C12.1 46.8 11.8 47.7 11.6 48.6 C10.1 47.6 8.6 46.6 7.1 45.7 C7.1 44.7 7.2 43.8 7.2 42.8 C6.5 43.6 5.9 44.4 5.2 45.2 C3.1 42.7 2.1 39.4 2.4 36.2 C2.2 35.6 2 35.1 1.9 34.5 C1.4 35.4 0.8 36.2 0.2 37 z" id="p1" fill="#E3B988" /><path d="M1.8 26.3 C1.8 26.2 1.8 26.2 1.9 26.1 C1.6 26.2 1.4 26.3 1 26.5 C1.7 24 2.5 21.1 3.2 18.8 C2.9 18.6 1 16.3 3.5 12.8 C3.3 15.6 5.5 14.4 6.1 13.7 C6.7 13 7.3 12.3 7.9 11.6 C8.6 10.8 9.7 10.3 10.8 9.8 C11.2 9.3 11.7 8.8 12.1 8.3 C11.5 8.3 10.9 8.4 10.4 8.6 C12 6.4 14.3 4.6 16.9 3.7 C17.3 3.4 17.6 3.2 18 2.9 C16.6 2.3 15.1 1.7 13.7 1 C16.8 0.9 19.9 0.7 23.1 0.6 C24.4 0.5 26.2 0.6 28.4 3.5 C31.8 8 26.9 9.4 25.6 26.2 C24.9 36.1 25 42.4 24.8 46.4 C24.9 49.3 24.9 52.3 25 55.2 C24.3 54.4 23.7 53.7 23 52.9 C22.7 54.4 22.5 55.7 22.2 57.4 C20.9 56.4 19.6 55.5 18.3 54.5 C18.2 52.8 18.2 51.2 18.1 49.5 C18.1 49.5 18.1 49.5 18 49.4 C17.4 50.8 16.8 52.2 16.2 53.6 C15.8 51.6 15.5 49.5 15.1 47.5 C14.8 48.6 14.5 49.8 14.2 50.9 C13.6 49.2 12.9 47.5 12.3 45.9 C12.1 46.8 11.8 47.7 11.6 48.6 C10.1 47.6 8.6 46.6 7.1 45.7 C7.1 44.7 7.2 43.8 7.2 42.8 C6.5 43.6 5.9 44.4 5.2 45.2 C3.1 42.7 2.1 39.4 2.4 36.2 C2.2 35.6 2 35.1 1.9 34.5 C1.4 35.4 0.8 36.2 0.2 37 C0.2 35.6 0 32.1 0.3 29.9 C0.5 28.6 1 27.4 1.8 26.3 z M1.8 26.3 C1.6 26.8 1.5 27.3 1.4 27.8 C1.1 29.8 1.3 33.1 1.3 34.3 C1.9 33.6 2.4 32.8 2.9 32 C3 32.6 3.2 33 3.4 33.6 C3.1 36.6 3.7 39.4 5.7 41.7 C6.3 41 7.8 40.8 8.5 40.1 C8.5 41 8.7 41.8 8.7 42.7 C10.1 43.5 10.2 44.1 11.6 45 C11.8 44.2 12.8 43.6 13 42.7 C13.6 44.2 13.5 45.4 14.1 47 C14.4 46 15.6 45.6 15.9 44.6 C16.3 46.4 16.7 47.8 17 49.7 C17.6 48.4 18.3 47.6 18.8 46.3 C18.9 46.4 19 49 19.1 50.6 C20.3 51.5 20.7 52.3 21.9 53.2 C22.2 51.6 22.4 50.4 22.6 49.1 C23.2 49.8 23.8 50.5 24.4 51.2 C24.3 48.5 23.4 46.5 23.3 43.8 C22.9 40.7 22.7 38.4 23.3 29.3 C24.5 13.8 30.7 7.7 27.5 3.5 C25.5 0.8 23.7 1.1 22.5 1.2 C19.5 1.3 19.6 1.5 16.8 1.6 C18.1 2.2 18.6 3 19.9 3.5 C19.5 3.8 18.3 4 18 4.3 C15.6 5.1 13.6 5.7 12.1 7.7 C12.6 7.5 13.4 7.4 14 7.4 C13.6 7.9 12.5 9.4 12.1 9.8 C11.1 10.3 9.5 11.4 8.9 12.1 C8.3 12.7 7.5 13.3 7 14 C6.5 14.7 3.8 16.3 3 14.3 C2.7 17.1 3.8 17.4 4.1 17.6 C3.5 19.7 2.7 22.4 2.1 24.7 C2.5 24.5 2.7 24.4 3 24.3 C2.5 24.9 2.2 25.5 1.9 26.1 C1.9 26.1 2 26.1 2 26.1 C1.9 26.2 1.9 26.2 1.8 26.3 z" opacity="0.15" id="q1" /></g></g><g id="r1"><g transform="translate(95.39999, 86.59997) translate(55, 59)" id="s1"><g transform="translate(0, 4)" id="t1"><g opacity="0.15" transform="translate(0, 1)" id="u1"><path d="M18.3 38.8 C14.7 42.1 10.7 42.8 6.5 40.8 C0.1 37.8 -0.1 31.7 0.7 27.2 C1.4 23.5 6.2 19.9 8.8 14.6 C10.9 10 11.4 8.6 12.8 4.7 C14.2 0.8 19.4 -1.6 22.8 4.1 C24.5 7 25.2 9.9 27.1 13.8 C28.8 17.5 33.6 21.5 34.5 23.9 C36.4 28.8 35.2 35.7 32.7 38.7 C31.8 39.8 29 41.6 26 41.6 C23.2 41.7 20.6 40.7 18.3 38.8 z" stroke="#000000" stroke-width="2" opacity="0.15" id="v1" /></g><path d="M18.3 38.8 C14.7 42.1 10.7 42.8 6.5 40.8 C0.1 37.8 0.8 31.9 1.6 27.4 C2 24.9 5.7 19.8 8.3 14.5 C10.4 9.9 11.6 5 12.4 3.7 C14.3 0.8 20.1 -2 23.5 3.7 C25.2 6.6 26.2 10.4 28.1 14.3 C29.8 18 32.9 21.4 33.8 23.8 C35.7 28.7 35.2 35.7 32.7 38.7 C31.8 39.8 29 41.6 26 41.6 C23.2 41.7 20.6 40.7 18.3 38.8 z" id="w1" fill="#F3DEBB" /></g></g><g transform="translate(101.4, 99.39996) translate(58, 77)" id="x1"><g id="y1"><path d="M9.1 8.1 C9.1 8.1 5.5 10.3 3.5 11.1 C4.6 12 6.9 13.1 9.1 13.1 C11.3 13.1 13.5 12 14.7 11.1 C12.7 10.2 9.1 8.1 9.1 8.1 z" id="z1" fill="#CE5253" /><path d="M18.5 13.8 C18.5 13.8 18.4 13.7 18.2 13.4 C18 13.2 17.7 12.8 17.4 12.5 C16.7 11.7 15.7 10.8 14.5 10 C13.4 9.2 12.1 8.4 11.1 8 C10.8 7.9 10.6 7.8 10.4 7.7 C10.3 7.7 10.2 7.7 10.1 7.6 L10.1 1.9 C10.1 1.3 9.7 0.9 9.1 0.9 C8.5 0.9 8.1 1.3 8.1 1.9 L8.1 7.6 C8 7.6 7.9 7.7 7.9 7.7 C7.7 7.8 7.4 7.9 7.2 8 C6.2 8.5 5 9.2 4 10 C2.9 10.8 2 11.8 1.4 12.6 C1.1 13 0.8 13.3 0.7 13.5 C0.5 13.7 0.4 13.9 0.4 13.9 C0.3 14.1 0.3 14.4 0.4 14.6 C0.6 14.8 0.9 14.8 1.1 14.6 C1.1 14.6 1.2 14.5 1.4 14.3 C1.6 14.1 1.9 13.9 2.3 13.6 C3 13 4 12.3 5.1 11.7 C6.2 11.1 7.3 10.7 8.1 10.5 C8.3 10.5 8.5 10.4 8.6 10.4 C8.6 10.4 8.6 10.4 8.7 10.4 C8.8 10.5 9 10.5 9.2 10.5 C9.4 10.5 9.5 10.4 9.7 10.4 L9.8 10.4 C10 10.4 10.2 10.5 10.4 10.5 C11.3 10.7 12.5 11.1 13.6 11.7 C14.8 12.3 15.8 13 16.6 13.5 C17 13.8 17.3 14 17.5 14.2 C17.7 14.4 17.9 14.5 17.9 14.5 C18.1 14.7 18.4 14.7 18.6 14.5 C18.7 14.3 18.7 14 18.5 13.8 z" id="a2" fill="#282523" /></g></g><g transform="translate(95.3, 89.49996) translate(61, 60)" id="b2"><path d="M3.4 29.3 C5.1 31.6 6.8 32.9 11.9 32.9 C17 32.9 20.1 30.4 20.6 27.9 C21.1 25.4 20.5 20.8 16.3 19.7 C12.1 18.6 7.1 18.8 5.4 20.8 C4.7 21.6 3.5 22.7 2.9 24.1 C2.1 26.1 2.5 28 3.4 29.3 z" id="c2" /><path d="M8.2 20.6 C5.8 21.6 4.3 23 6.5 22.4 C7.9 22 9.3 21.7 10.8 21.8 C11.6 21.9 13.3 22 14.7 22.3 C16.1 23.4 18 24 18.6 23.5 C19.2 23 18.6 21.2 16.3 20.5 C14 19.8 10.7 19.6 8.2 20.6 z" id="d2" fill="#FFF" /></g><g transform="translate(95.39999, 86.59996) translate(53, 56)" id="e2"><g id="f2"><path d="M11 8.3 C11 7.7 11 4.9 9.8 3 C8.6 1.1 7.4 0.6 5.8 0.2 C4.2 -0.2 2.3 0 1.3 0.9 C0.3 1.8 0 4 0 5.5 C0 7 0.8 8.8 2.8 9.4 C4.1 9.8 6 9.8 8.6 9.4 C10.2 9.1 11 8.8 11 8.3 z" id="g2" /><path d="M5 4.4 C5.6 4.4 6.4 3.6 6.4 3 C6.4 2.4 5.6 2 5 2 C4.4 2 4 2.4 4 3 C4 3.6 4.4 4.4 5 4.4 z" id="h2" fill="#FFFFFE" /></g></g><g transform="translate(95.39999, 86.59996) translate(82, 56)" id="i2"><g id="j2"><path d="M0 8.3 C0 7.7 0 4.9 1.2 3 C2.4 1.1 3.6 0.6 5.2 0.2 C6.8 -0.2 8.7 0 9.7 0.9 C10.7 1.8 11 4 11 5.5 C11 7 10.2 8.8 8.2 9.3 C6.9 9.7 5 9.7 2.4 9.3 C0.8 9.1 0 8.8 0 8.3 z" id="k2" /><path d="M6 4.4 C6.6 4.4 7.4 3.6 7.4 3 C7.4 2.4 6.6 2 6 2 C5.4 2 5 2.4 5 3 C5 3.6 5.4 4.4 6 4.4 z" id="l2" fill="#FFFFFE" /></g></g></g></g></g><g transform="translate(235.8952, 266.9009)" id="m2"><ellipse cx="32.5" cy="17.5" rx="37.3" ry="13.2" fill-opacity="0.15" id="n2" /><use xlink:href="#o2" x="0.08" y="0" /></g></g><defs><g transform="translate(17.09519, 0.800995) translate(-135.2952, -293.601)" id="o2" fill="#000"><path d="M118.2 302.7 C118.4 307.4 132.5 311.2 149.8 311.2 C167.1 311.2 181.2 307.4 181.4 302.7 C181.4 307.5 181.4 310.1 181.4 310.5 C181.4 315.3 167.3 319.1 149.8 319.1 C132.3 319.1 118.2 315.2 118.2 310.5 L118.2 302.7 L118.2 302.7 z" fill-opacity="0.4528" id="p2" fill="#593001" /><path d="M118.7 301.7 C118.9 306.4 133 310.2 150.3 310.2 C167.6 310.2 181.7 306.4 181.9 301.7 C181.9 306.5 181.9 309.1 181.9 309.5 C181.9 314.3 167.8 318.1 150.3 318.1 C132.8 318.1 118.7 314.2 118.7 309.5 L118.7 301.7 L118.7 301.7 z" id="q2" fill="#DA8113" /><linearGradient x1="46.0545" y1="-118.6926" x2="45.4656" y2="-118.6926" gradientUnits="userSpaceOnUse" gradientTransform="matrix(117.135, 0, 0, 28.4634, -5208.417, 3687.795)" id="r2"><stop offset="0%" stop-color="#D9952A" stop-opacity="1" /><stop offset="6.438854%" stop-color="#CA7519" stop-opacity="1" /><stop offset="30.54%" stop-color="#E3AD3A" stop-opacity="1" /><stop offset="51.05%" stop-color="#FFEC91" stop-opacity="1" /><stop offset="68.8%" stop-color="#E9BD44" stop-opacity="1" /><stop offset="86.24%" stop-color="#FFED6C" stop-opacity="1" /><stop offset="93.87%" stop-color="#F2D353" stop-opacity="1" /><stop offset="100%" stop-color="#F2B947" stop-opacity="1" /></linearGradient><path d="M118.2 301.6 C118.4 306.1 132.7 309.7 150.3 309.7 C167.9 309.7 182.2 306.1 182.4 301.6 C182.4 306.2 182.4 308.7 182.4 309 C182.4 313.5 168 317.2 150.3 317.2 C132.6 317.2 118.2 313.5 118.2 309 L118.2 301.6 L118.2 301.6 z" id="s2" style="fill:url(#r2)" /><linearGradient x1="45.4914" y1="-117.9547" x2="45.9407" y2="-117.5895" gradientUnits="userSpaceOnUse" gradientTransform="matrix(115.425, 0, 0, 29.925, -5125.077, 3826.124)" id="t2"><stop offset="0%" stop-color="#F4E072" stop-opacity="1" /><stop offset="100%" stop-color="#DB9427" stop-opacity="1" /></linearGradient><ellipse cx="150.3" cy="301.5" rx="31.6" ry="8.2" id="u2" style="fill:url(#t2)" /><linearGradient x1="45.4656" y1="-126.0065" x2="46.0545" y2="-126.0065" gradientUnits="userSpaceOnUse" gradientTransform="matrix(117.135, 0, 0, 18.6219, -5208.417, 2651.479)" id="v2"><stop offset="0%" stop-color="#D9952A" stop-opacity="1" /><stop offset="6.438854%" stop-color="#CA7519" stop-opacity="1" /><stop offset="30.54%" stop-color="#E3AD3A" stop-opacity="1" /><stop offset="51.05%" stop-color="#FFEC91" stop-opacity="1" /><stop offset="68.8%" stop-color="#E9BD44" stop-opacity="1" /><stop offset="86.24%" stop-color="#FFED6C" stop-opacity="1" /><stop offset="93.87%" stop-color="#F2D353" stop-opacity="1" /><stop offset="100%" stop-color="#F2B947" stop-opacity="1" /></linearGradient><path d="M119.2 299.9 C119 300.2 118.9 300.6 118.9 301 C118.9 305.5 132.9 309.2 150.3 309.2 C167.7 309.2 181.7 305.5 181.7 301 C181.7 300.6 181.6 300.3 181.4 299.9 C182 300.5 182.4 301.2 182.4 301.9 C182.4 306.4 168 310.1 150.3 310.1 C132.6 310.1 118.2 306.4 118.2 301.9 C118.2 301.3 118.6 300.6 119.2 299.9 z" id="w2" style="fill:url(#v2)" /><linearGradient x1="45.196" y1="-121.5895" x2="45.3746" y2="-120.6758" gradientUnits="userSpaceOnUse" gradientTransform="matrix(101.745, 0, 0, 23.94, -4458.332, 3199.41)" id="x2"><stop offset="0%" stop-color="#F8DD61" stop-opacity="1" /><stop offset="100%" stop-color="#EAA330" stop-opacity="1" /></linearGradient><ellipse cx="150.3" cy="300.8" rx="27.8" ry="6.6" id="y2" style="fill:url(#x2)" /><linearGradient x1="45.5694" y1="-134.267" x2="45.0221" y2="-134.267" gradientUnits="userSpaceOnUse" gradientTransform="matrix(101.745, 0, 0, 13.2525, -4458.332, 2077.223)" id="z2"><stop offset="0%" stop-color="#F4CA2F" stop-opacity="1" /><stop offset="51.38%" stop-color="#BF7737" stop-opacity="1" /><stop offset="100%" stop-color="#E4A929" stop-opacity="1" /></linearGradient><path d="M122.6 301.5 C122.5 301.3 122.4 301 122.4 300.8 C122.4 297.2 134.9 294.2 150.2 294.2 C165.5 294.2 178 297.1 178 300.8 C178 301 177.9 301.3 177.8 301.5 C176.3 298.2 164.5 295.6 150.1 295.6 C135.7 295.6 124.1 298.2 122.6 301.5 z" id="a3" style="fill:url(#z2)" /></g></defs><desc>ILDLJKIDEI5,rKuElpXE3DvSd8CYpd0Z1TtjlN0ThCFMEDrgrggfkeERZsZVCmAiWql++QQ/Dp2+eOMZbk6kvwrPSNS/XcJytNGxJKOOwKVaTE+zscT8gMDsNWPhIrAq98atZs8B4FX94xEV95vN/7vlI2wlMWpPVyVnKvCN8Oq7eZ2l6TC9Urdn8PBmTu5Trv7NUucYxIQ0RqtdNdFJYteUurIbvp1KhA==</desc></svg>