<?xml version="1.0" encoding="utf-8"?><!DOCTYPE svg PUBLIC "-//W3C//DTD SVG 1.1//EN" "http://www.w3.org/Graphics/SVG/1.1/DTD/svg11.dtd"><svg x="0" y="0" width="340px" height="340px" viewBox="0, 0, 340, 340" preserveAspectRatio="xMidYMid" font-size="0" id="a" enable-background="new 0 0 340 340" xmlns="http://www.w3.org/2000/svg" xmlns:xlink="http://www.w3.org/1999/xlink" xmlns:xml="http://www.w3.org/XML/1998/namespace" version="1.1"><g id="b" fill="#000"><g id="c"><g transform="translate(0, 0) translate(0, 224)" id="d"><ellipse cx="168.6" cy="53.1" rx="57.8" ry="12.8" fill-opacity="0.25" id="e" /></g><g id="f"><g transform="translate(109.4, 109.6) translate(17, 115.5) scale(-1, 1) translate(-17, -115.5) translate(0, 94)" id="g"><g id="h"><path d="M8.1 41.9 C14.8 39.7 18.9 36.9 23.6 32.1 C31.3 24.3 34 16.7 29.9 8.8 C27.6 4.4 19.9 1.9 13.5 3.1 C10.7 3.6 9.6 5.5 10 5.9 C10.7 6.6 13.9 5.9 15.5 6 C26.6 6.6 24.3 15.2 17.6 22.1 C12.7 27.2 5.8 27.2 1.9 31.9 C-1.8 36.4 1.5 44.1 8.1 41.9 z" id="i" fill="#F4DFA9" /><path d="M13.5 34.9 C24.5 32.1 33 20.6 28.2 9.3 C26.4 5 18 1.6 10.2 6 L10.1 6 C9.5 5.6 9.8 4.8 12 2.8 C16.8 -1.4 25.8 0.3 29.5 4.7 C36.8 13.3 34.6 24.6 26.9 32.4 C22.2 37.2 14.7 39.8 8 42 C5.7 42.8 3.8 42.3 2.4 41.2 C2.2 38.4 10.9 35.6 13.5 34.9 z" id="j" fill="#C08A3F" /><path d="M2.4 41 C0 38.9 -0.5 34.8 1.9 31.9 C5.8 27.2 12.7 27.2 17.6 22.1 C24.3 15.2 26.6 6.6 15.5 6 C14 5.9 11 6.5 10.1 6 L10.1 6 C9.5 5.6 9.8 4.8 12 2.8 C16.8 -1.4 25.8 0.3 29.5 4.7 C36.8 13.3 34.6 24.6 26.9 32.4 C22.2 37.2 14.7 39.8 8 42 C5.7 42.8 3.8 42.3 2.4 41.2 C2.4 41.1 2.4 41.1 2.4 41 z M3.1 31.5 C0.9 34.3 0.9 37.1 3.1 39.1 C3.1 39.1 3.1 39.2 3.1 39.2 C4.5 40.3 6.3 40.8 8.4 40 C14.8 37.9 20.8 35.7 25.2 31.1 C32.6 23.7 35.6 13.6 28.7 5.4 C25.1 1.2 17.2 -0.9 12.6 3.1 C10.6 5 9.9 5.4 10.5 5.8 C11.3 6.3 14.6 5.3 16 5.4 C26.6 6 25.3 15.7 18.9 22.3 C14.2 27.1 6.8 27.1 3.1 31.5 z" opacity="0.15" id="k" /></g></g><g transform="translate(130.8733, 273.3) scale(0.9738561) translate(-127.7, -273.3) translate(101.5, 90.89996) translate(15, 110)" id="l"><g transform="translate(23, 36) scale(-1, 1) translate(-23, -36)" id="m"><path d="M-1.4 45.3 C0.8 26.6 11.7 11.6 13.3 7.8 C15 3.9 23 -0.6 26.9 14.5 C28.4 20.4 31 23.9 32.4 29.9 C34.6 39.4 35.2 51.3 34.9 59.2 C34.7 63.6 28.7 73.3 26.1 73.3 C18.5 73.3 9.7 75.5 7.2 72.1 C3.3 66.9 -3.6 63.9 -1.4 45.3 z" id="n" fill="#C08A3F" /><path d="M36.4 60.6 C38 61.6 43.4 64.4 43.7 68.7 C44 73 44 74.4 41 75 C38 75.6 35.1 75.9 32.7 75.5 C30.5 75.1 28.5 73.5 26.9 73.5 C23.7 73.5 24.9 73.5 23.3 73.5 C22.8 68.5 25.7 65.4 26.9 64.1 C28.1 62.8 34.8 59.6 36.4 60.6 z" id="o" fill="#F4DFA9" /><path d="M34.7 60.5 C35.4 60.4 36 60.4 36.4 60.6 C38 61.6 43.4 64.4 43.7 68.7 C44 73 44 74.4 41 75 C38 75.6 35.1 75.9 32.7 75.5 C30.5 75.1 28.5 73.5 26.9 73.5 L23.3 73.5 L23.3 73.4 C16.5 73.8 9.4 75.1 7.2 72.1 C3.3 66.9 -3.6 63.9 -1.4 45.3 C0.8 26.6 11.7 11.6 13.3 7.8 C15 3.9 23 -0.6 26.9 14.5 C28.4 20.4 31 23.9 32.4 29.9 C34.6 39.4 35.2 51.3 34.9 59.2 C34.9 59.6 34.8 60 34.7 60.5 z M32.6 61.3 C33 57.3 33.2 55.1 33.2 54.9 C33.5 47.5 33.8 39.4 31.7 30.5 C30.4 24.9 27.9 21.6 26.5 16.1 C22.9 1.9 15.4 6.1 13.8 9.8 C12.3 13.3 2 27.4 0 45 C-2.1 62.4 4.5 64 8.2 68.9 C10.3 71.7 16.8 71.7 23.2 71.5 L26.6 71.5 C28.1 71.5 30 73 32 73.4 C34.3 73.8 37 73.5 39.8 72.9 C42.6 72.3 42 72 41.7 68 C41.4 64 36.5 62.3 35 61.4 C34.6 61.1 33.3 61.2 32.6 61.3 z" opacity="0.15" id="p" /></g></g><g transform="translate(209.0266, 273.3) scale(0.9738561) translate(-212.2, -273.3) translate(93.7, 90.69997) translate(102.5, 145) scale(-1, 1) translate(-102.5, -145) translate(79, 108)" id="q"><g transform="translate(23.5, 37) scale(-1, 1) translate(-23.5, -37)" id="r"><path d="M2.6 48.8 C4.8 29.9 16.7 12.7 18.3 8.8 C20 4.9 28 0.3 31.9 15.7 C33.4 21.7 36 25.2 37.4 31.4 C39.6 41 40.2 53.1 39.9 61.1 C39.7 65.6 33.7 75.4 31.1 75.4 C23.5 75.4 14.7 77.6 12.2 74.2 C8.3 68.8 0.4 67.7 2.6 48.8 z" id="s" fill="#C08A3F" /><path d="M41.4 62.6 C43 63.6 48.4 66.4 48.7 70.7 C49 75 48.7 77.3 45.1 77.5 C41.5 77.7 39.9 78.1 37.6 77.8 C35.4 77.4 33.7 75.5 32.1 75.5 C28.9 75.5 30.1 75.5 28.5 75.5 C28 70.5 30.9 68.1 32.6 65.9 C33 64.9 39.8 61.6 41.4 62.6 z" id="t" fill="#F4DFA9" /><path d="M41.4 62.6 C43 63.6 48.4 66.4 48.7 70.7 C49 75 48.7 77.3 45.1 77.5 C41.5 77.7 39.9 78.1 37.6 77.8 C35.4 77.4 33.7 75.5 32.1 75.5 L28.5 75.5 C21.6 75.8 14.4 77.2 12.2 74.2 C8.3 68.8 0.4 67.7 2.6 48.8 C4.8 29.9 16.7 12.7 18.3 8.8 C20 4.9 28 0.3 31.9 15.7 C33.4 21.7 36 25.2 37.4 31.4 C39.6 41 40.2 53.1 39.9 61.1 C39.9 61.5 39.8 62 39.7 62.5 C40.4 62.4 41 62.4 41.4 62.6 z M37.2 62.8 C37.6 60.8 38 58.6 38.4 56.2 C39 52.5 38.8 40 36.7 31 C35.4 25.2 32.9 21.9 31.5 16.2 C27.9 1.8 20.3 6.1 18.7 9.8 C17.2 13.4 6 29.6 4 47.4 C2 65.2 9.4 66.2 13 71.3 C15.1 74.1 21.8 72.8 28.3 72.5 L31.7 72.5 C33.2 72.5 34.8 74.3 36.9 74.7 C39.1 75 40.6 74.6 44 74.4 C47.4 74.2 46.9 73.4 46.6 69.4 C46.3 65.4 42.3 64.6 40.8 63.7 C40.4 63.4 37.9 62.7 37.2 62.8 z" opacity="0.15" id="u" /></g></g><g transform="translate(91.50001, 85.89998) translate(37, 51)" id="v"><g transform="translate(3, 0)" id="w"><path d="M61 19.7 C61 35.9 63.7 34.2 65.4 38.8 C67.1 43.4 74 52.4 75.2 65.1 C76.4 77.8 75.8 91.7 71.8 103.4 C67.8 115.1 70.7 136.2 61.1 138.9 C60.8 139 29.3 142 17.6 138.9 C5.5 135.7 11.4 122.7 6.1 105.5 C0.8 88.3 -0.2 79.6 0.1 65.1 C0.4 50.6 10.3 43.5 12.1 38.7 C13.9 33.9 16.2 32 16.2 19.6 C16.2 7.2 24.2 0.2 41.6 0.7 C46.8 0.9 61 3.4 61 19.7 z" id="x" fill="#F4DFA9" /><path d="M61 19.7 C61 35.9 63.7 34.2 65.4 38.8 C67.1 43.4 74 52.4 75.2 65.1 C76.4 77.8 75.8 91.7 71.8 103.4 C67.8 115.1 70.7 136.2 61.1 138.9 C60.8 139 29.3 142 17.6 138.9 C5.5 135.7 11.4 122.7 6.1 105.5 C0.8 88.3 -0.2 79.6 0.1 65.1 C0.4 50.6 10.3 43.5 12.1 38.7 C13.9 33.9 16.2 32 16.2 19.6 C16.2 7.2 24.2 0.2 41.6 0.7 C46.8 0.9 61 3.4 61 19.7 z M60.2 20.5 C60.2 4.8 46.6 2.4 41.5 2.2 C24.6 1.7 16.9 8.5 16.9 20.4 C16.9 32.3 14.7 34.1 12.9 38.8 C11.2 43.5 1.7 50.4 1.4 64.3 C1.1 78.2 2 86.7 7.2 103.2 C12.4 119.7 6.6 132.4 18.2 135.4 C29.5 138.4 59.9 135.5 60.2 135.4 C69.5 132.8 66.8 112.4 70.5 101.2 C74.4 90 75 76.6 73.8 64.3 C72.6 52 65.9 43.3 64.4 38.9 C62.8 34.5 60.2 36.1 60.2 20.5 z" opacity="0.15" id="y" /></g></g><g fill-rule="evenOdd" transform="translate(132.844, 177.95) scale(0.9445987, 1.186099) translate(-130.7, -195.8) translate(104.9, 78.19998) translate(65, 163) scale(-1, 1) translate(-65, -163) translate(26, 119)" id="z"><path d="M7.6 1.8 C8.9 0.3 10.2 -1 14.9 6 C16.8 8.8 20 11.5 21.9 14.4 C24.8 18.8 26.1 23.2 28.3 25.5 C31.9 29.2 36 31.9 41.1 31 C46.3 30.1 50.5 22.7 53.3 18 C56.2 13.3 63.6 7.6 66.2 4.7 C68.8 2 69.2 -1.4 72.1 1.4 C75 4.2 78.2 13.6 77.9 17.2 C77.6 20.8 76.9 29 74.5 32.5 C72.1 36 70.7 37.3 70.7 41 C70.7 44.7 66.7 50.6 66.5 53.7 C66.3 56.8 63.3 66.9 63.3 74.7 C63.3 76.3 64.3 78.8 64.4 80.2 C64.7 83.3 66 86.9 60.9 86.9 C55.8 86.9 53.1 87.6 50.2 86.9 C49.2 86.9 46.9 85.8 46.6 84.9 C46.2 83.3 47.4 80.6 47.8 79.3 C48.7 76 51.4 74.1 51.7 73.1 C52.5 70.5 53.4 46.4 53.3 43.8 C50.8 51.6 49.8 53.8 46.2 53.8 C43.8 53.8 41.3 52.5 38.6 50 C36.8 52.6 34.6 53.8 32 53.8 C29.4 53.8 26.2 49.6 22.3 41.1 C23.8 49.4 24.8 55.1 25.1 58 C25.6 62 26.3 66.4 26.4 67.5 C26.5 68.6 26.8 70.4 27.6 73.6 C27.9 74.7 30.5 76.3 31.6 79.7 C32.7 83.1 33.1 85.2 30.6 86.5 C28.1 87.8 27.5 87.6 26.3 87.5 C22.3 87.2 16.6 86.2 15.8 85.5 C14.7 84.7 14.1 80 14.7 77.6 C15.9 72.8 15.2 70.5 15.2 68.6 C15.3 64.4 11.5 50.4 8.7 46.4 C5.9 42.4 7 38.7 6 34.8 C5 30.9 1 27.2 0.9 19.4 C0.8 11.6 6.2 3.2 7.6 1.8 z" id="a1" fill="#F0B756" /><path d="M7.6 1.8 C8.9 0.3 10.2 -1 14.9 6 C16.8 8.8 20 11.5 21.9 14.4 C24.8 18.8 26.1 23.2 28.3 25.5 C31.9 29.2 36 31.9 41.1 31 C46.3 30.1 50.5 22.7 53.3 18 C56.2 13.3 63.6 7.6 66.2 4.7 C68.8 2 69.2 -1.4 72.1 1.4 C75 4.2 78.2 13.6 77.9 17.2 C77.6 20.8 76.9 29 74.5 32.5 C72.1 36 70.7 37.3 70.7 41 C70.7 44.7 66.7 50.6 66.5 53.7 C66.3 56.8 63.3 66.9 63.3 74.7 C63.3 76.3 64.3 78.8 64.4 80.2 C64.7 83.3 66 86.9 60.9 86.9 C55.8 86.9 53.1 87.6 50.2 86.9 C49.2 86.9 46.9 85.8 46.6 84.9 C46.2 83.3 47.4 80.6 47.8 79.3 C48.7 76 51.4 74.1 51.7 73.1 C52.5 70.5 53.4 46.4 53.3 43.8 C50.8 51.6 49.8 53.8 46.2 53.8 C43.8 53.8 41.3 52.5 38.6 50 C36.8 52.6 34.6 53.8 32 53.8 C29.4 53.8 26.2 49.6 22.3 41.1 C23.8 49.4 24.8 55.1 25.1 58 C25.6 62 26.3 66.4 26.4 67.5 C26.5 68.6 26.8 70.4 27.6 73.6 C27.9 74.7 30.5 76.3 31.6 79.7 C32.7 83.1 33.1 85.2 30.6 86.5 C28.1 87.8 27.5 87.6 26.3 87.5 C22.3 87.2 16.6 86.2 15.8 85.5 C14.7 84.7 14.1 80 14.7 77.6 C15.9 72.8 15.2 70.5 15.2 68.6 C15.3 64.4 11.5 50.4 8.7 46.4 C5.9 42.4 7 38.7 6 34.8 C5 30.9 1 27.2 0.9 19.4 C0.8 11.6 6.2 3.2 7.6 1.8 z M10 5 C8.7 6.3 3.7 14.1 3.8 21.3 C3.9 28.5 7.6 31.9 8.5 35.5 C9.5 39.1 8.5 42.5 11 46.2 C13.6 49.9 17.1 62.8 17 66.7 C17 68.5 17.7 70.6 16.6 75 C16 77.3 16.6 81.6 17.6 82.3 C18.3 83 22.1 83.9 25.8 84.2 C26.9 84.3 27.4 85.4 29.7 84.2 C32 83 31.1 81.5 30.1 78.4 C29 75.2 26.7 75.8 26.4 74.7 C25.7 71.8 25.3 67.7 25.2 66.7 C25.1 65.7 24.4 61.1 24 57.4 C23.7 55.1 22.4 47.9 21 41.2 C20.9 40.7 20.7 39.4 21 38.4 C21.3 37.6 22 37.2 21.9 36.7 C25.5 44.5 30.2 53.1 32.6 53.1 C35 53.1 37 51.9 38.7 49.5 C41.2 51.8 43.5 53.1 45.7 53.1 C49 53.1 51.2 47.5 53.5 40.3 C53.5 40.9 54.7 41.7 54.5 44.2 C54 52.4 53.4 71 52.8 72.9 C52.5 73.8 47.8 80 48.1 81.3 C48.4 82.1 48.5 83.6 49.4 83.6 C52.1 84.3 54.6 83.6 59.3 83.6 C64 83.6 62.8 80.3 62.5 77.4 C62.4 76.1 61.5 73.8 61.5 72.4 C61.5 65.2 64.3 55.8 64.4 53 C64.6 50.1 68.3 44.6 68.3 41.2 C68.3 37.8 69.6 36.6 71.8 33.4 C74 30.1 74.7 22.6 75 19.2 C75.2 15.9 72.3 7.2 69.6 4.6 C66.9 2.1 66.6 5.2 64.2 7.7 C61.8 10.4 56.2 15.9 53.5 20.3 C50.9 24.6 45.1 32.5 40.3 33.4 C35.5 34.2 31.5 30.5 28.2 27.1 C26.2 24.9 24.6 20.9 21.9 16.8 C20.1 14.2 18.5 11.5 16.8 8.9 C12.4 2.4 11.2 3.6 10 5 z" opacity="0.15" id="b1" /></g></g><g transform="translate(169.6, 173.6) scale(0.9050846) translate(-169.6, -173.6)" id="c1"><g transform="translate(96.49999, 67.49998) translate(23, 22)" id="d1"><g id="e1"><path d="M8.2 28.4 C11 21.7 15.7 17.3 19.3 12.7 C22.9 8.1 31.7 5.6 37.3 4.5 C41.1 3.8 45.5 4.2 50.5 5.5 C52.6 4.5 55.6 4.2 59.5 4.5 C66.7 4.5 74.5 9 78.8 11.8 C83 14.6 91 25 93 28.4 C95 31.8 96.7 39.1 97.3 42.7 C97.9 46.3 97.3 55.3 94.7 60.3 C92.1 65.3 82.5 78 79.9 80.3 C76.4 83.4 71.5 86.4 67.9 88.5 C62.3 91.8 46 95 35.4 89.9 C31.5 88 25.1 85.8 20.9 82.2 C13.5 75.9 8.9 67.7 7 65.7 C4 62.7 1.8 55.5 2.5 50.3 C3.2 45.1 5.4 35.1 8.2 28.4 z" id="f1" fill="#F0B756" /><path d="M88.9 69.3 C87.1 71.9 85.2 74.6 83.6 76.7 C82.3 78.2 81.1 79.5 80.2 80.5 C79.9 80.8 79.6 81.2 79.2 81.6 C75.8 84.3 71.3 86.7 68.2 88.6 C62.6 91.8 46 95 35.4 89.9 C31.8 88.2 26.1 86.1 21.9 83 C21 82.2 20 81.4 19 80.5 C18.5 80 18 79.5 17.5 79 L14.9 76.1 C13 73.9 11.4 71.7 10.1 69.9 C9.3 68 8.6 65.7 8.1 63.2 C7.1 58 7.9 53.8 10.3 49.9 C11.7 47.6 14.6 45.6 18.9 43.8 C18.6 47.5 18.6 49.9 18.8 50.8 C20.2 56.9 23.9 61.2 30.3 59.2 C32.2 58.6 34.7 51 48.6 51 C62.5 51 62.5 57.9 68.7 59.7 C74.9 61.5 78.8 56.3 80.6 51.3 C82.4 46.3 80.5 43.1 80.1 42.6 C79.7 42.1 86.2 44 89.2 49 C92.2 54 92.5 57.7 90.4 64.5 C89.9 66.5 89.3 68.1 88.9 69.3 z" id="g1" fill="#FCF6CA" /><path d="M8.2 28.4 C11 21.7 15.7 17.3 19.3 12.7 C22.9 8.1 31.7 5.6 37.3 4.5 C41.1 3.8 45.5 4.2 50.5 5.5 C52.6 4.5 55.6 4.2 59.5 4.5 C66.7 4.5 74.5 9 78.8 11.8 C83 14.6 91 25 93 28.4 C95 31.8 96.7 39.1 97.3 42.7 C97.9 46.3 97.3 55.3 94.7 60.3 C92.1 65.3 82.5 78 79.9 80.3 C76.4 83.4 71.5 86.4 67.9 88.5 C62.3 91.8 46 95 35.4 89.9 C31.5 88 25.1 85.8 20.9 82.2 C13.5 75.9 8.9 67.7 7 65.7 C4 62.7 1.8 55.5 2.5 50.3 C3.2 45.1 5.4 35.1 8.2 28.4 z M10.1 28.4 C7.4 34.9 5.3 44.5 4.6 49.5 C3.9 54.5 6 61.4 8.9 64.3 C10.7 66.2 15.2 74.1 22.2 80.1 C26.2 83.6 32.3 85.8 36.1 87.5 C46.3 92.4 61.9 89.3 67.2 86.1 C70.6 84.1 75.3 81.2 78.7 78.2 C81.2 76 90.4 63.7 92.9 58.9 C95.4 54.1 96 45.4 95.4 42 C94.8 38.5 93.2 31.5 91.2 28.3 C89.2 25.1 81.6 15.1 77.6 12.4 C73.6 9.7 66.1 5.4 59.2 5.4 C55.5 5.1 52.6 5.5 50.6 6.4 C45.8 5.1 41.6 4.7 37.9 5.4 C32.5 6.4 24.1 8.8 20.7 13.3 C17.3 17.8 12.8 21.9 10.1 28.4 z" opacity="0.15" id="h1" /><path d="M32.7 10.5 C38.2 13.7 42.7 17.2 45.6 23.9 C48.5 30.6 47.2 33.2 49.4 33.2 C51.6 33.2 51.1 28.5 53.1 23.9 C55.1 19.3 60.7 14.2 66.5 10.5 C67.2 10 63.6 8.3 60.1 8.4 C56.9 8.6 52.2 10.5 50 10.5 C48 10.5 45 8.8 40.7 8.4 C34.9 7.9 29.5 8.7 32.7 10.5 z" id="i1" fill="#C08A3F" /></g></g><g transform="translate(141.1, 105.7) rotate(-8, 0, 0) scale(1) translate(-141.1, -105.7) translate(113.3, 76.69997) translate(3, 2)" id="j1"><path d="M33.9 21.7 C35.1 19.6 35.4 14.7 32.2 12.1 C29.1 9.6 18.9 1.4 16 0.8 C13.1 0.2 11.9 0 9.8 0.8 C8 1.5 6.7 3.9 6.3 4.9 C5.4 7 1.1 13.6 1.1 21.6 C1.1 29.6 0.5 36.5 1.1 39.7 C1.7 42.8 3.2 42.8 4.7 42.8 C5.5 42.8 11.7 35.5 18.8 30.6 C26 25.6 32.8 23.8 33.9 21.7 z" id="k1" fill="#C08A3F" /><path d="M33.9 21.7 C32.8 23.8 26 25.6 18.8 30.6 C11.7 35.5 5.5 42.8 4.7 42.8 C3.2 42.8 1.7 42.8 1.1 39.7 C0.5 36.5 1.1 29.6 1.1 21.6 C1.1 13.6 5.4 7 6.3 4.9 C6.7 3.9 8 1.5 9.8 0.8 C11.9 0 13.1 0.2 16 0.8 C18.9 1.4 29.1 9.6 32.2 12.1 C35.4 14.7 35.1 19.6 33.9 21.7 z M32.1 20.3 C33.2 18.4 33.4 14.1 30.6 11.8 C27.9 9.6 18.9 2.3 16.3 1.8 C13.7 1.3 12.7 1.1 10.8 1.8 C9.2 2.4 8.1 4.5 7.7 5.4 C6.9 7.3 3.1 13.1 3.1 20.2 C3.1 27.3 2.6 33.4 3.1 36.3 C3.7 39 5 39 6.3 39 C7 39 12.5 32.5 18.7 28.2 C25.1 23.7 31.1 22.1 32.1 20.3 z" opacity="0.15" id="l1" /></g><g transform="translate(196.7, 105.7) rotate(8, 0, 0) scale(1) translate(-196.7, -105.7) translate(93.49998, 79.89998) translate(110, 21.5) scale(-1, 1) translate(-110, -21.5) translate(92, 0)" id="m1"><path d="M33.6 22.2 C34.4 20.7 35.3 19.4 35.3 18.1 C35.5 15.9 34.2 13.7 32.2 12.1 C29 9.6 20.6 2.3 15.9 0.8 C14.9 0.5 12.5 0.3 10.8 0.8 C8.4 1.6 6.8 3.7 6.2 4.9 C5.3 7 2.3 12.3 1 21.7 C-0.3 31 0.4 36.6 1 39.7 C1.6 42.8 3.1 42.8 4.6 42.8 C5.4 42.8 12.2 36.3 19.6 31.3 C26.6 26.5 32.8 23.6 33.6 22.2 z" id="n1" fill="#C08A3F" /><path d="M33.6 22.2 C32.8 23.6 26.6 26.5 19.6 31.3 C12.2 36.3 5.4 42.8 4.6 42.8 C3.1 42.8 1.6 42.8 1 39.7 C0.4 36.6 -0.3 31 1 21.7 C2.3 12.3 5.3 7 6.2 4.9 C6.8 3.7 8.4 1.6 10.8 0.8 C12.5 0.3 14.9 0.5 15.9 0.8 C20.6 2.3 29 9.6 32.2 12.1 C34.2 13.7 35.5 15.9 35.3 18.1 C35.3 19.4 34.4 20.7 33.6 22.2 z M31.9 20.5 C32.6 19.2 33.4 18 33.4 16.9 C33.6 15 32.4 13 30.6 11.6 C27.7 9.4 20.2 3 16 1.7 C15.1 1.4 13 1.3 11.4 1.7 C9.4 2.5 8 4.3 7.4 5.4 C6.6 7.2 3.9 11.9 2.8 20.1 C1.6 28.2 2.3 33.2 2.8 35.9 C3.3 38.6 4.7 38.6 6 38.6 C6.7 38.6 12.8 32.9 19.4 28.5 C25.7 24.3 31.2 21.7 31.9 20.5 z" opacity="0.15" id="o1" /></g><g transform="translate(169.6, 158.6) scale(0.9) translate(-169.6, -158.6)" id="p1"><g transform="translate(103.2, 89.69998) translate(21, 46)" id="q1"><g transform="translate(0, 18)" id="r1"><path d="M10.2 45.1 C-3.3 37.9 0.5 36.4 0.5 32.5 C0.5 28.6 4.2 16.6 12.2 12 C20.1 7.3 38.5 0.7 39.6 0.3 C40.7 -0.1 57.5 -0.5 60 2 C62.6 4.4 71.8 6.8 77.1 11.7 C82.4 16.7 87 25.3 87.4 26.6 C87.8 27.9 88.3 32.6 85.5 37.2 C82.7 41.9 84.1 41.9 76.2 45.2 C66 49.6 23.7 52.3 10.2 45.1 z" id="s1" fill="#806456" /><path d="M10.2 45.1 C-3.3 37.9 0.5 36.4 0.5 32.5 C0.5 28.6 4.2 16.6 12.2 12 C20.1 7.3 38.5 0.7 39.6 0.3 C40.7 -0.1 57.5 -0.5 60 2 C62.6 4.4 71.8 6.8 77.1 11.7 C82.4 16.7 87 25.3 87.4 26.6 C87.8 27.9 88.3 32.6 85.5 37.2 C82.7 41.9 84.1 41.9 76.2 45.2 C66 49.6 23.7 52.3 10.2 45.1 z M12.9 42.5 C25.3 49.1 64.2 46.6 73.6 42.6 C80.9 39.6 79.6 39.6 82.1 35.2 C84.7 31 84.2 26.7 83.8 25.5 C83.4 24.3 79.2 16.4 74.3 11.8 C69.5 7.3 61.1 5 58.7 2.8 C56.4 0.5 41 0.9 39.9 1.3 C38.9 1.6 22 7.7 14.8 12 C7.4 16.3 4 27.3 4 30.9 C4 34.5 0.5 35.8 12.9 42.5 z" opacity="0.15" id="t1" /><path d="M31 18.5 C32.1 18.5 32.6 19.5 32.6 21.4 L27.8 21.4 L27.8 19.9 C28.9 18.9 30 18.5 31 18.5 z" id="u1" fill="#52403A" /><path d="M15 25.1 C16.1 25.1 16.6 26.1 16.6 28 L11.8 28 L11.8 26.5 C12.9 25.6 14 25.1 15 25.1 z" id="v1" fill="#52403A" /><path d="M30.8 28.1 C31.9 28.1 32.4 29.1 32.4 31 L27.6 31 L27.6 29.5 C28.7 28.6 29.8 28.1 30.8 28.1 z" id="w1" fill="#52403A" /><path d="M59.6 19.2 C60.7 19.2 61.2 20.2 61.2 22.1 L56.4 22.1 L56.4 20.6 C57.5 19.7 58.6 19.2 59.6 19.2 z" id="x1" fill="#52403A" /><path d="M59.6 29.1 C60.7 29.1 61.2 30.1 61.2 32 L56.4 32 L56.4 30.5 C57.5 29.6 58.6 29.1 59.6 29.1 z" id="y1" fill="#52403A" /><path d="M71.5 25.1 C72.6 25.1 73.1 26.1 73.1 28 L68.3 28 L68.3 26.5 C69.4 25.6 70.5 25.1 71.5 25.1 z" id="z1" fill="#52403A" /></g></g><g transform="translate(107.7, 107.9) translate(51, 68)" id="a2"><g id="b2"><path d="M19.3 10.7 C18.9 10.3 18.2 10.4 17.8 10.8 C16.9 11.8 15.3 13 13.7 13.1 C12.8 13.1 11.9 12.7 11.1 11.9 L11.1 1.5 C11.1 0.9 10.6 0.4 10 0.4 C9.4 0.4 8.9 0.9 8.9 1.5 L8.9 11.9 C8.1 12.7 7.3 13.1 6.3 13.1 C4.7 13.1 3.1 11.9 2.2 10.8 C1.8 10.4 1.2 10.3 0.7 10.7 C0.3 11.1 0.2 11.7 0.6 12.2 C1.8 13.6 4 15.2 6.3 15.2 C7.5 15.2 8.7 14.8 9.8 13.9 C9.9 13.9 9.9 13.9 10 13.9 C10.1 13.9 10.1 13.9 10.2 13.9 C11.2 14.7 12.4 15.2 13.7 15.2 C16 15.2 18.2 13.6 19.4 12.2 C19.9 11.7 19.8 11.1 19.3 10.7 z" id="c2" fill="#282421" /></g></g><g transform="translate(169.7, 155.1) scale(1.1) translate(-169.7, -155.1) translate(96.59998, 67.99998) translate(61, 60)" id="d2"><path d="M3.4 29.3 C5.1 31.6 6.8 32.9 11.9 32.9 C17 32.9 20.1 30.4 20.6 27.9 C21.1 25.4 20.5 20.8 16.3 19.7 C12.1 18.6 7.1 18.8 5.4 20.8 C4.7 21.6 3.5 22.7 2.9 24.1 C2.1 26.1 2.5 28 3.4 29.3 z" id="e2" /><path d="M8.2 20.6 C5.8 21.6 4.3 23 6.5 22.4 C7.9 22 9.3 21.7 10.8 21.8 C11.6 21.9 13.3 22 14.7 22.3 C16.1 23.4 18 24 18.6 23.5 C19.2 23 18.6 21.2 16.3 20.5 C14 19.8 10.7 19.6 8.2 20.6 z" id="f2" fill="#FFF" /></g><g transform="translate(152.1, 137.5) scale(1.2, 1.3) translate(-152.1, -137.5) translate(95.59998, 74.59998) translate(41, 42)" id="g2"><path d="M6.1 10.9 C6.7 10.4 7.5 10.8 8.5 12.2 C10 14.3 10.8 18 13.2 19.3 C15.6 20.6 18.9 19.9 20.4 19.3 C21.9 18.7 24.8 14.6 23.7 10.9 C23 8.4 21.3 6.3 18.6 4.5 L19.5 6.7 L15.5 6.1 L16.3 7.4 C12.9 7.8 10.6 8.2 9.4 8.5 C8.3 9 7.2 9.8 6.1 10.9 z" id="h2" fill="#FFF" /><g transform="translate(0, 10)" id="i2"><path d="M21.9 14.6 C21 11.9 19.7 8.3 17.5 6.4 C15.3 4.5 10.7 3.9 9 4.5 C7.7 5 6.1 7.4 4.6 8.5 C4.2 8.9 3.1 8.7 3 9 C2.3 10.8 6.8 15.2 8.3 16 C11.2 17.5 16.3 17.8 20.2 17.1 C21.7 17 21.5 15.8 21.9 14.6 z" id="j2" fill="#C08A3F" /><g transform="translate(11.16316, 7.522936) scale(-1, 1) translate(-11.16316, -7.522936) translate(3.163158, 3.022936)" id="k2"><path d="M-1.1 8.4 C0.1 6.4 2.1 4.5 4.4 4.2 C6.7 3.9 8.9 4 10.7 5.4 C12.5 6.8 12.5 7.5 13.3 8.1 C14 8.8 12.5 10.5 9.7 11.4 C6.9 12.3 4.5 13 1.9 12.5 C-0.8 12.1 -1.2 11.9 -1.6 11.4 C-2 10.9 -2.4 10.5 -1.1 8.4 z" id="l2" fill="#FBFBFB" /><g id="m2"><path d="M5.2 4.1 C6.3 5 7 6.4 7 8 C7 10.1 5.7 12 3.8 12.8 C3.2 12.8 2.6 12.8 2 12.6 C-0.7 12.2 -1.1 12 -1.5 11.5 C-1.9 11 -2.3 10.6 -1.1 8.5 C0.1 6.4 2 4.5 4.4 4.2 C4.6 4.2 4.9 4.1 5.2 4.1 z" id="n2" /></g></g><path d="M11.8 11.3 C12.8 12.4 15.1 10.8 15.1 9.9 C15.1 9 14.1 8.2 12.8 8.2 C11.5 8.2 10.5 9 10.5 9.9 C10.5 10.8 10.9 10.2 11.8 11.3 z" id="o2" fill="#FFFEFE" /></g></g><g transform="translate(189.3, 137.9) scale(1.2, 1.3) translate(-189.3, -137.9) translate(101.6, 74.99998) translate(76, 42)" id="p2"><g transform="translate(0.878947, 0.022936)" id="q2"><path d="M20.1 10.9 C19.5 10.4 18.7 10.8 17.7 12.2 C16.2 14.3 15.4 18 13 19.3 C10.6 20.6 7.3 19.9 5.8 19.3 C4.3 18.7 1.4 14.6 2.5 10.9 C3.2 8.4 4.9 6.3 7.6 4.5 L6.6 6.7 L10.6 6.1 L9.9 7.4 C13.3 7.8 15.6 8.2 16.8 8.5 C17.9 9 19 9.8 20.1 10.9 z" id="r2" fill="#FFF" /><path d="M5.3 21.7 C6.2 19 7.5 17.3 9.7 15.4 C11.9 13.5 16.2 13.3 17.9 13.9 C19.1 14.3 21.1 16.4 22.7 17.4 C23.4 17.8 24.1 17.5 24.3 18.1 C25 19.9 21.7 24.1 20.2 24.9 C19.8 25.1 16.7 25.9 14.9 26.4 C12.7 26.9 10.6 26.4 8.3 26.4 C6.9 26.4 5.7 26.3 4.9 25.8 C4.2 25.2 4.8 22.9 5.3 21.7 z" id="s2" fill="#C08A3F" /><g transform="translate(4, 12)" id="t2"><path d="M3.4 9 C4.7 7 6.2 5.4 8.5 5.1 C10.8 4.8 12.7 5.1 14.2 6 C15.7 6.9 16.5 7.9 17.4 9 C18.3 10.1 16.7 11.3 13.8 12.3 C10.9 13.2 9.1 13.5 6.5 13.5 C3.9 13.5 2.6 13 2.2 12.3 C1.9 11.6 2.1 11.1 3.4 9 z" id="u2" fill="#FBFBFB" /><path d="M10 4.9 C11.6 4.9 13 5.3 14.1 5.9 C15.7 6.8 16.4 7.8 17.3 8.9 C18.2 10 16.7 11.3 13.7 12.3 C12.4 12.7 11.3 13 10.1 13.2 C9 12.4 8 10.8 8 8.9 C8 7.3 8.8 5.8 10 4.9 z" id="v2" /></g><path d="M11.7 21.5 C12.7 22.7 15 20.9 15 19.9 C15 18.9 13.9 18 12.5 18 C11.1 18 10 18.8 10 19.9 C10 21 10.6 20.4 11.7 21.5 z" id="w2" fill="#FFFEFE" /></g></g></g></g></g></g><defs><g transform="translate(17.09519, 0.800995) translate(-135.2952, -293.601)" id="x2" fill="#000"><path d="M118.2 302.7 C118.4 307.4 132.5 311.2 149.8 311.2 C167.1 311.2 181.2 307.4 181.4 302.7 C181.4 307.5 181.4 310.1 181.4 310.5 C181.4 315.3 167.3 319.1 149.8 319.1 C132.3 319.1 118.2 315.2 118.2 310.5 L118.2 302.7 L118.2 302.7 z" fill-opacity="0.4528" id="y2" fill="#593001" /><path d="M118.7 301.7 C118.9 306.4 133 310.2 150.3 310.2 C167.6 310.2 181.7 306.4 181.9 301.7 C181.9 306.5 181.9 309.1 181.9 309.5 C181.9 314.3 167.8 318.1 150.3 318.1 C132.8 318.1 118.7 314.2 118.7 309.5 L118.7 301.7 L118.7 301.7 z" id="z2" fill="#DA8113" /><linearGradient x1="46.0545" y1="-118.6926" x2="45.4656" y2="-118.6926" gradientUnits="userSpaceOnUse" gradientTransform="matrix(117.135, 0, 0, 28.4634, -5208.417, 3687.795)" id="a3"><stop offset="0%" stop-color="#D9952A" stop-opacity="1" /><stop offset="6.438854%" stop-color="#CA7519" stop-opacity="1" /><stop offset="30.54%" stop-color="#E3AD3A" stop-opacity="1" /><stop offset="51.05%" stop-color="#FFEC91" stop-opacity="1" /><stop offset="68.8%" stop-color="#E9BD44" stop-opacity="1" /><stop offset="86.24%" stop-color="#FFED6C" stop-opacity="1" /><stop offset="93.87%" stop-color="#F2D353" stop-opacity="1" /><stop offset="100%" stop-color="#F2B947" stop-opacity="1" /></linearGradient><path d="M118.2 301.6 C118.4 306.1 132.7 309.7 150.3 309.7 C167.9 309.7 182.2 306.1 182.4 301.6 C182.4 306.2 182.4 308.7 182.4 309 C182.4 313.5 168 317.2 150.3 317.2 C132.6 317.2 118.2 313.5 118.2 309 L118.2 301.6 L118.2 301.6 z" id="b3" style="fill:url(#a3)" /><linearGradient x1="45.4914" y1="-117.9547" x2="45.9407" y2="-117.5895" gradientUnits="userSpaceOnUse" gradientTransform="matrix(115.425, 0, 0, 29.925, -5125.077, 3826.124)" id="c3"><stop offset="0%" stop-color="#F4E072" stop-opacity="1" /><stop offset="100%" stop-color="#DB9427" stop-opacity="1" /></linearGradient><ellipse cx="150.3" cy="301.5" rx="31.6" ry="8.2" id="d3" style="fill:url(#c3)" /><linearGradient x1="45.4656" y1="-126.0065" x2="46.0545" y2="-126.0065" gradientUnits="userSpaceOnUse" gradientTransform="matrix(117.135, 0, 0, 18.6219, -5208.417, 2651.479)" id="e3"><stop offset="0%" stop-color="#D9952A" stop-opacity="1" /><stop offset="6.438854%" stop-color="#CA7519" stop-opacity="1" /><stop offset="30.54%" stop-color="#E3AD3A" stop-opacity="1" /><stop offset="51.05%" stop-color="#FFEC91" stop-opacity="1" /><stop offset="68.8%" stop-color="#E9BD44" stop-opacity="1" /><stop offset="86.24%" stop-color="#FFED6C" stop-opacity="1" /><stop offset="93.87%" stop-color="#F2D353" stop-opacity="1" /><stop offset="100%" stop-color="#F2B947" stop-opacity="1" /></linearGradient><path d="M119.2 299.9 C119 300.2 118.9 300.6 118.9 301 C118.9 305.5 132.9 309.2 150.3 309.2 C167.7 309.2 181.7 305.5 181.7 301 C181.7 300.6 181.6 300.3 181.4 299.9 C182 300.5 182.4 301.2 182.4 301.9 C182.4 306.4 168 310.1 150.3 310.1 C132.6 310.1 118.2 306.4 118.2 301.9 C118.2 301.3 118.6 300.6 119.2 299.9 z" id="f3" style="fill:url(#e3)" /><linearGradient x1="45.196" y1="-121.5895" x2="45.3746" y2="-120.6758" gradientUnits="userSpaceOnUse" gradientTransform="matrix(101.745, 0, 0, 23.94, -4458.332, 3199.41)" id="g3"><stop offset="0%" stop-color="#F8DD61" stop-opacity="1" /><stop offset="100%" stop-color="#EAA330" stop-opacity="1" /></linearGradient><ellipse cx="150.3" cy="300.8" rx="27.8" ry="6.6" id="h3" style="fill:url(#g3)" /><linearGradient x1="45.5694" y1="-134.267" x2="45.0221" y2="-134.267" gradientUnits="userSpaceOnUse" gradientTransform="matrix(101.745, 0, 0, 13.2525, -4458.332, 2077.223)" id="i3"><stop offset="0%" stop-color="#F4CA2F" stop-opacity="1" /><stop offset="51.38%" stop-color="#BF7737" stop-opacity="1" /><stop offset="100%" stop-color="#E4A929" stop-opacity="1" /></linearGradient><path d="M122.6 301.5 C122.5 301.3 122.4 301 122.4 300.8 C122.4 297.2 134.9 294.2 150.2 294.2 C165.5 294.2 178 297.1 178 300.8 C178 301 177.9 301.3 177.8 301.5 C176.3 298.2 164.5 295.6 150.1 295.6 C135.7 295.6 124.1 298.2 122.6 301.5 z" id="j3" style="fill:url(#i3)" /></g></defs><desc>6HE9E22AEEE,uZFX28sVzJvorDzKR+05UXRVA7BQIBAUWXJstJFVRO9OQnWCu8Cvgf2osAV9UKNBhPaqkeO70il+DXTjG5Csdg==</desc></svg>