<?xml version="1.0" encoding="utf-8"?><!DOCTYPE svg PUBLIC "-//W3C//DTD SVG 1.1//EN" "http://www.w3.org/Graphics/SVG/1.1/DTD/svg11.dtd"><svg x="0" y="0" width="340px" height="340px" viewBox="0, 0, 340, 340" preserveAspectRatio="xMidYMid" font-size="0" id="a" enable-background="new 0 0 340 340" xmlns="http://www.w3.org/2000/svg" xmlns:xlink="http://www.w3.org/1999/xlink" xmlns:xml="http://www.w3.org/XML/1998/namespace" version="1.1"><g id="b" fill="#000"><g transform="translate(210.1952, 245.501)" id="c"><ellipse cx="32.5" cy="17.5" rx="37.3" ry="13.2" opacity="0.15" id="d" /><use xlink:href="#e" x="0.86" y="0" /></g><g transform="translate(64.99519, 245.001)" id="f"><ellipse cx="32.5" cy="17.5" rx="37.3" ry="13.2" opacity="0.15" id="g" /><use xlink:href="#e" x="0.97" y="0" /></g></g><g id="h" fill="#000"><g id="i"><g transform="translate(0, 0) translate(0, 224)" id="j"><ellipse cx="168.6" cy="53.1" rx="57.8" ry="12.8" fill-opacity="0.25" id="k" /></g><g id="l"><g transform="translate(103, 91.39999) translate(28, 148) scale(-1, 1) translate(-28, -148) translate(0, 127)" id="m"><path d="M52.1 4.6 C47.4 19.1 42.1 27 36.2 28.3 C27.3 30.2 18 29.7 13.9 24.6 C11.2 14.5 14 14.7 15.4 11.9 C16.8 9.1 16.1 4.5 9.2 4.5 C4.6 4.5 1.4 7.4 -0.2 13.3 C-1 16.7 -1.4 19.7 -1.2 22.3 C-1 26.2 0.8 36.4 8.6 40.9 C16.4 45.4 28.6 48.2 43.3 38.5 C53.1 32 56 20.7 52.1 4.6 z" id="n" fill="#2C2F31" /><path d="M52.1 4.6 C56 20.7 53.1 32 43.3 38.5 C28.6 48.2 16.4 45.4 8.6 40.9 C0.8 36.4 -1 26.2 -1.2 22.3 C-1.4 19.7 -1 16.7 -0.2 13.3 C1.4 7.4 4.6 4.5 9.2 4.5 C16.1 4.5 16.8 9.1 15.4 11.9 C14 14.7 11.2 14.5 13.9 24.6 C18 29.7 27.3 30.2 36.2 28.3 C42.1 27 47.4 19.1 52.1 4.6 z M51.6 9.5 C47.1 21.3 41 28.4 35.3 29.4 C26.7 30.9 18.3 30.2 14.4 26.1 C10.5 22 11.2 17.1 12.6 14.8 C14 12.5 15.5 6.3 8.8 6.3 C4.4 6.3 2.5 8.3 1 13.1 C0.2 15.9 0.3 21.1 0.5 23.2 C0.7 26.4 1.8 35.6 9.3 39.2 C16.8 42.9 25.1 46.4 39.2 38.5 C48.6 33.1 55.4 22.6 51.6 9.5 z" opacity="0.15" id="o" /></g><g transform="translate(127.7, 273.3) scale(1.043417) translate(-127.7, -273.3) translate(93.09999, 85.79997) translate(28, 124)" id="p"><path d="M50.5 28.2 C50.5 14.3 19.2 -3.5 9.2 1 C8 1.6 6.8 2.4 5.7 3.4 C3.3 5.6 1.3 9.8 0.9 13 C0.7 14.5 1.4 14.8 1.4 16.4 C1.5 18.2 1.6 22.4 1.9 24.1 C2.1 25.3 2.9 23 3.2 24.1 C3.7 25.9 3.9 28.6 4.4 29.9 C5 31.4 6.8 35.4 7.1 35.8 C7.5 36.4 7.2 35.1 8.7 37.9 C9.2 38.8 9.6 38.5 10.1 39.6 C10.5 40.3 11.2 45.8 11.6 46.5 C12.3 47.8 12.7 45.8 13.5 47.3 C14.2 48.6 14.9 50 15.6 51.5 C8.3 54.2 4.7 57.4 4.7 61.1 C4.7 62.8 4.7 65.1 6.4 66.4 C7.7 67.4 37.5 67.9 38.9 65.1 C40.7 60 34.3 53.8 39.7 45.1 C43.7 38.5 50.5 37.5 50.5 28.2 z" id="q" fill="#1F2122" /><path d="M50.5 28.2 C50.5 37.5 43.7 38.5 39.7 45.1 C34.3 53.8 40.7 60 38.9 65.1 C37.5 67.9 7.7 67.4 6.4 66.4 C4.7 65.1 4.7 62.8 4.7 61.1 C4.7 57.4 8.3 54.2 15.6 51.5 C14.9 50 14.2 48.6 13.5 47.3 C12.7 45.8 12.3 47.8 11.6 46.5 C11.2 45.8 10.5 40.3 10.1 39.6 C9.6 38.5 9.2 38.8 8.7 37.9 C7.2 35.1 7.5 36.4 7.1 35.8 C6.8 35.4 5 31.4 4.4 29.9 C3.9 28.6 3.7 25.9 3.2 24.1 C2.9 23 2.1 25.3 1.9 24.1 C1.6 22.4 1.5 18.2 1.4 16.4 C1.4 14.8 0.7 14.5 0.9 13 C1.3 9.8 3.3 5.6 5.7 3.4 C6.8 2.4 8 1.6 9.2 1 C19.2 -3.5 50.5 14.3 50.5 28.2 z M48.3 27.1 C48.3 14.2 19.8 -2.2 10.7 2 C9.6 2.5 8.5 3.3 7.5 4.2 C5.3 6.2 3.5 10.1 3.1 13 C3 14.4 3.6 14.7 3.6 16.2 C3.7 17.8 3.8 21.7 4.1 23.3 C4.2 24.4 5 22.3 5.2 23.3 C5.7 24.9 5.9 27.4 6.3 28.6 C6.9 30 8.5 33.7 8.8 34.1 C9.1 34.6 8.9 33.4 10.2 36 C10.7 36.8 11.1 36.5 11.5 37.6 C11.9 38.2 12.5 43.3 12.9 43.9 C13.5 45.1 13.9 43.3 14.6 44.7 C15.2 45.9 18.5 50.2 19.1 51.6 C12.5 54.1 7.3 55.8 7.3 59.2 C7.3 60.8 6.6 61.1 8.1 62.3 C9.3 63.2 35.1 64.3 36.4 61.7 C38 57 33.5 50.7 38.4 42.6 C42.1 36.5 48.3 35.6 48.3 27.1 z" opacity="0.15" id="r" /></g><g transform="translate(212.2, 273.3) scale(1.043417) translate(-212.2, -273.3) translate(80.7, 85.79997) translate(113.5, 158) scale(-1, 1) translate(-113.5, -158) translate(89, 125)" id="s"><path d="M48.2 28.3 C48.2 14.6 24.6 -4.1 9.2 1 C8 1.6 6.8 2.3 5.7 3.3 C3.3 5.4 1.3 9.6 0.9 12.8 C0.7 14.3 1.4 14.5 1.4 16.1 C1.5 17.9 1.6 22 1.9 23.7 C2.1 24.9 2.9 22.6 3.2 23.7 C3.7 25.5 3.9 28.2 4.4 29.4 C5 30.9 6.8 34.9 7.1 35.2 C7.5 35.8 7.2 34.5 8.7 37.3 C9.2 38.2 9.6 37.9 10.1 39 C10.5 39.7 11.2 45.1 11.6 45.8 C12.3 47.1 12.7 45.1 13.5 46.6 C14.2 47.9 14.9 49.3 15.6 50.8 C8.3 53.5 4.7 56.6 4.7 60.3 C4.7 62 4.7 64.2 6.4 65.5 C7.7 66.5 39.4 65.8 40.8 63 C43.8 59.4 34.2 43.1 39.2 39.8 C44.4 37.6 48.2 34.7 48.2 28.3 z" id="t" fill="#1F2122" /><path d="M48.2 28.3 C48.2 34.7 44.4 37.6 39.2 39.8 C34.2 43.1 43.8 59.4 40.8 63 C39.4 65.8 7.7 66.5 6.4 65.5 C4.7 64.2 4.7 62 4.7 60.3 C4.7 56.6 8.3 53.5 15.6 50.8 C14.9 49.3 14.2 47.9 13.5 46.6 C12.7 45.1 12.3 47.1 11.6 45.8 C11.2 45.1 10.5 39.7 10.1 39 C9.6 37.9 9.2 38.2 8.7 37.3 C7.2 34.5 7.5 35.8 7.1 35.2 C6.8 34.9 5 30.9 4.4 29.4 C3.9 28.2 3.7 25.5 3.2 23.7 C2.9 22.6 2.1 24.9 1.9 23.7 C1.6 22 1.5 17.9 1.4 16.1 C1.4 14.5 0.7 14.3 0.9 12.8 C1.3 9.6 3.3 5.4 5.7 3.3 C6.8 2.3 8 1.6 9.2 1 C24.6 -4.1 48.2 14.6 48.2 28.3 z M46.8 27.4 C46.8 14.6 24.6 -2.9 10.1 1.9 C9 2.4 7.8 3.1 6.8 4 C4.5 6 2.7 9.9 2.3 12.9 C2.1 14.3 2.8 14.5 2.8 16 C2.9 17.7 2.9 21.5 3.2 23.1 C3.4 24.2 4.2 22 4.5 23.1 C4.9 24.7 5.1 27.3 5.6 28.4 C6.1 29.8 7.8 33.5 8.1 33.8 C8.5 34.4 8.2 33.2 9.6 35.8 C10.1 36.6 10.5 36.3 10.9 37.4 C11.3 38 12 43 12.4 43.7 C13 44.9 13.4 43 14.1 44.5 C14.8 45.7 17.4 50.6 18 52 C11.1 54.5 6.8 55.5 6.8 59 C6.8 60.5 7.7 61.4 9.3 62.6 C10.5 63.6 36.9 63.1 38.2 60.4 C41.1 57.1 33.6 41.2 38.3 38.1 C43.2 36 46.8 33.3 46.8 27.4 z" opacity="0.15" id="u" /></g><g transform="translate(91.50001, 85.89998) translate(37, 51)" id="v"><g transform="translate(3, 0)" id="w"><path d="M61 19.7 C61 35.9 63.7 34.2 65.4 38.8 C67.1 43.4 74 52.4 75.2 65.1 C76.4 77.8 75.8 91.7 71.8 103.4 C67.8 115.1 70.7 136.2 61.1 138.9 C60.8 139 29.3 142 17.6 138.9 C5.5 135.7 11.4 122.7 6.1 105.5 C0.8 88.3 -0.2 79.6 0.1 65.1 C0.4 50.6 10.3 43.5 12.1 38.7 C13.9 33.9 16.2 32 16.2 19.6 C16.2 7.2 24.2 0.2 41.6 0.7 C46.8 0.9 61 3.4 61 19.7 z" id="x" fill="#2C2F31" /><path d="M61 19.7 C61 35.9 63.7 34.2 65.4 38.8 C67.1 43.4 74 52.4 75.2 65.1 C76.4 77.8 75.8 91.7 71.8 103.4 C67.8 115.1 70.7 136.2 61.1 138.9 C60.8 139 29.3 142 17.6 138.9 C5.5 135.7 11.4 122.7 6.1 105.5 C0.8 88.3 -0.2 79.6 0.1 65.1 C0.4 50.6 10.3 43.5 12.1 38.7 C13.9 33.9 16.2 32 16.2 19.6 C16.2 7.2 24.2 0.2 41.6 0.7 C46.8 0.9 61 3.4 61 19.7 z M60.2 20.5 C60.2 4.8 46.6 2.4 41.5 2.2 C24.6 1.7 16.9 8.5 16.9 20.4 C16.9 32.3 14.7 34.1 12.9 38.8 C11.2 43.5 1.7 50.4 1.4 64.3 C1.1 78.2 2 86.7 7.2 103.2 C12.4 119.7 6.6 132.4 18.2 135.4 C29.5 138.4 59.9 135.5 60.2 135.4 C69.5 132.8 66.8 112.4 70.5 101.2 C74.4 90 75 76.6 73.8 64.3 C72.6 52 65.9 43.3 64.4 38.9 C62.8 34.5 60.2 36.1 60.2 20.5 z" opacity="0.15" id="y" /></g></g><g fill-rule="evenOdd" transform="translate(129.8304, 188.53) scale(0.8632746, 0.8076338) translate(-123.5, -174.2) translate(85.89999, 86.19997) translate(83.5, 146.5) scale(-1, 1) translate(-83.5, -146.5) translate(37, 88)" id="z"><path d="M85.7 0.8 C88.7 7.4 91 19.3 91.5 22.3 C91.7 23.4 92.2 25.3 92.2 26.6 C92.2 28.3 92.4 30.4 92.2 32.3 C92.1 33.8 91.6 36.7 91.5 38.1 C91.4 39.5 90.8 38.3 90.6 39.6 C90.5 39.9 90.5 40.2 90.4 40.4 C90 42 89.7 44.6 89.4 45.9 C89.2 47 89 46.8 88.7 48 C88.4 49.3 88.1 55.7 87.6 57.3 C87.1 58.9 86.5 55.7 85.7 58 C85.4 59 85 60 84.6 61.1 C84.2 62.1 84.1 66.2 83.6 67.4 C83.2 68.4 82.6 66.5 82.2 67.7 C81.8 68.9 81.9 74.3 81.4 75.7 C80.9 77.3 79.7 74.8 79.2 76.6 C78.8 77.8 78.8 84.5 78.4 85.8 C78 87.2 77.3 83.2 76.9 84.6 C76.7 85.6 76.4 86.5 76.2 87.5 C75.9 88.6 75.7 89.8 75.4 91 C75 93 74.6 95 74.2 97.1 C73.9 98.9 73.6 100.8 73.4 102.8 C73.2 104.4 77.3 102.5 80.3 106 C83.3 109.5 83.1 115.5 78.9 116.6 C74.7 117.7 58.9 113.8 57.2 111.6 C56.8 111.1 56.4 108.3 56.2 103.9 C56.1 102 56.8 99 56.7 96.6 C56.7 95.2 57.2 92.5 57.2 91 C57.2 89.1 55 94.1 55 92.1 C55 90.7 56.2 81.7 56.2 80.2 C56.2 77.8 55.6 77.9 56 75.5 C56.2 74.1 57.1 71.4 57.1 70.7 C57.1 68.2 54.9 75.4 55 72.8 C55 72.6 54.4 68.7 56 65 C56.7 63.3 56.6 61.3 56.8 59.6 C56.9 58.1 57 56.6 57.1 55.3 C57.3 52.2 57.4 49.8 57.3 48.9 C56.9 49.2 54.5 54 54.1 54.3 C53.4 54.8 54.7 50.7 54.1 51.2 C53.4 51.7 52.1 54.4 50.7 57.8 C49.3 61.3 50 56.7 49.5 57.1 C48.1 58.4 48.1 62.7 47.6 64.1 C47.2 65.3 46.1 67.4 45.8 67.1 C45.4 66.7 45.5 64.9 45.1 63.5 C44.7 61.9 44 60.5 44 59.5 C44 59.1 44.2 61.8 43.3 61.2 C42.4 60.6 40 53.3 39 52.1 C38.4 51.4 38.5 54.5 38.1 54.2 C37.3 53.7 36 50.3 35.5 49.7 C35.2 50.6 35.2 52.8 35.2 55.6 C35.2 57.8 36.6 65.6 36.7 68.4 C36.7 69.9 35.2 66.8 35.2 68.4 C35.2 69.9 34.9 71.8 34.9 72.1 C34.9 73.7 35.1 77.2 35.6 80.9 C36 84.3 36.7 87.9 36.7 89.4 C36.7 92.6 34.9 87.8 34.9 90.8 C34.9 92.2 35.6 95.1 35.5 96.4 C35.4 98.8 35.3 101.1 35.2 103 C35.1 104.7 35 106.1 34.8 107.4 C34.5 109.7 34.2 111.1 33.8 111.4 C31.2 112.9 21 117.9 12.2 116.4 C8.3 114.2 9.6 108.5 12.5 105.1 C15.4 101.7 19.7 104.1 19.5 101.5 C19.3 99 18.6 95.6 17.7 91.9 C17.5 90.9 17.2 89.9 16.9 88.8 C16.7 88 16.4 87.1 16.2 86.2 C15.8 84.7 15.3 83.2 14.9 81.6 C14.5 80.2 14.3 84.4 13.8 83 C13.4 81.9 12.8 75.1 12.5 74 C12.1 72.8 11.7 71.7 11.4 70.6 C11.1 69.7 10.5 72.1 10.2 71.2 C9.7 69.9 9.5 65.3 9.1 64.1 C8.7 62.9 8.3 61.9 7.9 60.9 C7.6 60 7.1 61.7 6.8 60.9 C6.2 59.4 5.8 55.5 5.4 54.2 C5 53 4.6 54.4 4.2 53.2 C3.9 52.1 3.5 48.4 3.2 47.3 C2.8 45.7 3.5 46.3 3.2 44.5 C3 43.3 2.6 42.5 1.2 37.8 C-0.2 33.1 0.5 21.8 0.7 19.8 C0.8 18.3 1.2 15 1.4 13.6 C2.2 7.8 4.2 4.3 5.7 1.4 C6 0.8 6.5 0 6.8 0.5 C7.6 1.7 7.9 4.3 8.7 6.6 C8.8 7.2 8.9 7.7 9 7.9 C10 10.1 10.8 12.4 11.6 14.4 C11.6 14.7 11.7 14.9 11.7 15 C12.4 16.4 13 17.5 13.5 18.4 C13.7 18.9 13.8 18.9 13.8 18.9 C14 19.2 14.2 19.5 14.4 19.7 C14.8 20.1 15.2 20.5 15.6 21 C15.7 21.8 15.9 22.5 16 22.7 C16.2 23 16.6 22.7 16.9 22.4 C17.3 22.8 17.7 23.1 18.1 23.5 C18.2 24.4 18.3 25.4 18.6 25.7 C18.8 25.9 18.9 25.3 19.1 24.5 C19.6 25 20.1 25.4 20.6 25.8 C20.9 27.7 21.4 29 21.8 29.4 C22.4 30 22.6 28.4 23.2 29 C23.8 29.5 24.6 33.5 25.2 34 C25.5 34.3 26.4 31.6 26.9 30.5 C27.2 30.7 27.4 30.8 27.7 31 C28 32.3 28.1 34.6 28.5 34.9 C28.9 35.2 28.7 33.4 29.1 33.7 C29.7 34.1 29.8 40.3 30.7 38.9 C31.6 37.5 31.2 35 31.3 35.1 C32 35.5 33.5 41.8 34.2 42.1 C34.5 42.3 35.1 41.5 35.2 40 C35.3 38.8 34.9 37 35.2 37.1 C35.8 37.4 36.7 38.3 37.3 40 C38 42.1 38.4 45.1 39.1 45.3 C39.7 45.5 40 43.4 40.4 41.3 C40.8 39.2 41.1 37.1 41.7 37.1 C42.3 37.2 42.5 40.6 42.4 42.5 C42.3 44.8 43.2 49.7 43.9 49.7 C44.1 49.7 44 45.1 44.9 43 C45.8 40.9 46.9 38.1 47.2 38.1 C47.5 38.1 48 40.7 48.1 42.1 C48.3 43.9 48.6 45.6 49 45.3 C49.6 44.8 51.6 37.2 51.9 37.1 C52.4 37 52 44.2 53.7 43.9 C53.8 43.9 54.9 42.2 55 42.1 C57 40.8 58.8 35.4 59.2 35.2 C59.6 35 58.8 38.8 59.2 38.6 C59.3 38.5 61.9 32.1 62.6 31.6 C63.1 31.3 63.4 35.2 63.8 34.9 C64.1 34.7 65.6 33.5 66.2 31.6 C66.5 30.7 66.6 29.7 66.6 28.9 C67 28.6 67.4 28.4 67.8 28.1 C67.9 28.4 67.9 28.7 67.9 29.1 C68 30.4 67.7 32.4 67.9 32.2 C68.8 31.6 70 28.6 71.4 26.7 C72.5 25.2 72.6 28.7 73.3 27.9 C73.6 27.6 74.2 26.3 74.7 25.1 C75.2 23.6 75.7 22.1 76.1 21.6 C76.6 21 76.4 24.7 76.9 24.1 C77.2 23.6 78.7 18.9 79 18.4 C79.3 17.9 79.9 20.1 80.2 19.6 C80.4 19.2 81.3 15.3 81.5 14.9 C81.7 14.6 81.7 15.9 81.8 15.6 C82 15.3 81.9 12.6 82.4 13.3 C83 13.9 83.4 11.2 84 9.6 C84.4 8.6 84.7 6.5 85 4.3 C85.5 3.8 85.4 1.1 85.7 0.8 z" id="a1" fill="#46494D" /><path d="M85.7 0.8 C88.7 7.4 91 19.3 91.5 22.3 C91.7 23.4 92.2 25.3 92.2 26.6 C92.2 28.3 92.4 30.4 92.2 32.3 C92.1 33.8 91.6 36.7 91.5 38.1 C91.4 39.5 90.8 38.3 90.6 39.6 C90.5 39.9 90.5 40.2 90.4 40.4 C90 42 89.7 44.6 89.4 45.9 C89.2 47 89 46.8 88.7 48 C88.4 49.3 88.1 55.7 87.6 57.3 C87.1 58.9 86.5 55.7 85.7 58 C85.4 59 85 60 84.6 61.1 C84.2 62.1 84.1 66.2 83.6 67.4 C83.2 68.4 82.6 66.5 82.2 67.7 C81.8 68.9 81.9 74.3 81.4 75.7 C80.9 77.3 79.7 74.8 79.2 76.6 C78.8 77.8 78.8 84.5 78.4 85.8 C78 87.2 77.3 83.2 76.9 84.6 C76.7 85.6 76.4 86.5 76.2 87.5 C75.9 88.6 75.7 89.8 75.4 91 C75 93 74.6 95 74.2 97.1 C73.9 98.9 73.6 100.8 73.4 102.8 C73.2 104.4 77.3 102.5 80.3 106 C83.3 109.5 83.1 115.5 78.9 116.6 C74.7 117.7 58.9 113.8 57.2 111.6 C56.8 111.1 56.4 108.3 56.2 103.9 C56.1 102 56.8 99 56.7 96.6 C56.7 95.2 57.2 92.5 57.2 91 C57.2 89.1 55 94.1 55 92.1 C55 90.7 56.2 81.7 56.2 80.2 C56.2 77.8 55.6 77.9 56 75.5 C56.2 74.1 57.1 71.4 57.1 70.7 C57.1 68.2 54.9 75.4 55 72.8 C55 72.6 54.4 68.7 56 65 C56.7 63.3 56.6 61.3 56.8 59.6 C56.9 58.1 57 56.6 57.1 55.3 C57.3 52.2 57.4 49.8 57.3 48.9 C56.9 49.2 54.5 54 54.1 54.3 C53.4 54.8 54.7 50.7 54.1 51.2 C53.4 51.7 52.1 54.4 50.7 57.8 C49.3 61.3 50 56.7 49.5 57.1 C48.1 58.4 48.1 62.7 47.6 64.1 C47.2 65.3 46.1 67.4 45.8 67.1 C45.4 66.7 45.5 64.9 45.1 63.5 C44.7 61.9 44 60.5 44 59.5 C44 59.1 44.2 61.8 43.3 61.2 C42.4 60.6 40 53.3 39 52.1 C38.4 51.4 38.5 54.5 38.1 54.2 C37.3 53.7 36 50.3 35.5 49.7 C35.2 50.6 35.2 52.8 35.2 55.6 C35.2 57.8 36.6 65.6 36.7 68.4 C36.7 69.9 35.2 66.8 35.2 68.4 C35.2 69.9 34.9 71.8 34.9 72.1 C34.9 73.7 35.1 77.2 35.6 80.9 C36 84.3 36.7 87.9 36.7 89.4 C36.7 92.6 34.9 87.8 34.9 90.8 C34.9 92.2 35.6 95.1 35.5 96.4 C35.4 98.8 35.3 101.1 35.2 103 C35.1 104.7 35 106.1 34.8 107.4 C34.5 109.7 34.2 111.1 33.8 111.4 C31.2 112.9 21 117.9 12.2 116.4 C8.3 114.2 9.6 108.5 12.5 105.1 C15.4 101.7 19.7 104.1 19.5 101.5 C19.3 99 18.6 95.6 17.7 91.9 C17.5 90.9 17.2 89.9 16.9 88.8 C16.7 88 16.4 87.1 16.2 86.2 C15.8 84.7 15.3 83.2 14.9 81.6 C14.5 80.2 14.3 84.4 13.8 83 C13.4 81.9 12.8 75.1 12.5 74 C12.1 72.8 11.7 71.7 11.4 70.6 C11.1 69.7 10.5 72.1 10.2 71.2 C9.7 69.9 9.5 65.3 9.1 64.1 C8.7 62.9 8.3 61.9 7.9 60.9 C7.6 60 7.1 61.7 6.8 60.9 C6.2 59.4 5.8 55.5 5.4 54.2 C5 53 4.6 54.4 4.2 53.2 C3.9 52.1 3.5 48.4 3.2 47.3 C2.8 45.7 3.5 46.3 3.2 44.5 C3 43.3 2.6 42.5 1.2 37.8 C-0.2 33.1 0.5 21.8 0.7 19.8 C0.8 18.3 1.2 15 1.4 13.6 C2.2 7.8 4.2 4.3 5.7 1.4 C6 0.8 6.5 0 6.8 0.5 C7.6 1.7 7.9 4.3 8.7 6.6 C8.8 7.2 8.9 7.7 9 7.9 C10 10.1 10.8 12.4 11.6 14.4 C11.6 14.7 11.7 14.9 11.7 15 C12.4 16.4 13 17.5 13.5 18.4 C13.7 18.9 13.8 18.9 13.8 18.9 C14 19.2 14.2 19.5 14.4 19.7 C14.8 20.1 15.2 20.5 15.6 21 C15.7 21.8 15.9 22.5 16 22.7 C16.2 23 16.6 22.7 16.9 22.4 C17.3 22.8 17.7 23.1 18.1 23.5 C18.2 24.4 18.3 25.4 18.6 25.7 C18.8 25.9 18.9 25.3 19.1 24.5 C19.6 25 20.1 25.4 20.6 25.8 C20.9 27.7 21.4 29 21.8 29.4 C22.4 30 22.6 28.4 23.2 29 C23.8 29.5 24.6 33.5 25.2 34 C25.5 34.3 26.4 31.6 26.9 30.5 C27.2 30.7 27.4 30.8 27.7 31 C28 32.3 28.1 34.6 28.5 34.9 C28.9 35.2 28.7 33.4 29.1 33.7 C29.7 34.1 29.8 40.3 30.7 38.9 C31.6 37.5 31.2 35 31.3 35.1 C32 35.5 33.5 41.8 34.2 42.1 C34.5 42.3 35.1 41.5 35.2 40 C35.3 38.8 34.9 37 35.2 37.1 C35.8 37.4 36.7 38.3 37.3 40 C38 42.1 38.4 45.1 39.1 45.3 C39.7 45.5 40 43.4 40.4 41.3 C40.8 39.2 41.1 37.1 41.7 37.1 C42.3 37.2 42.5 40.6 42.4 42.5 C42.3 44.8 43.2 49.7 43.9 49.7 C44.1 49.7 44 45.1 44.9 43 C45.8 40.9 46.9 38.1 47.2 38.1 C47.5 38.1 48 40.7 48.1 42.1 C48.3 43.9 48.6 45.6 49 45.3 C49.6 44.8 51.6 37.2 51.9 37.1 C52.4 37 52 44.2 53.7 43.9 C53.8 43.9 54.9 42.2 55 42.1 C57 40.8 58.8 35.4 59.2 35.2 C59.6 35 58.8 38.8 59.2 38.6 C59.3 38.5 61.9 32.1 62.6 31.6 C63.1 31.3 63.4 35.2 63.8 34.9 C64.1 34.7 65.6 33.5 66.2 31.6 C66.5 30.7 66.6 29.7 66.6 28.9 C67 28.6 67.4 28.4 67.8 28.1 C67.9 28.4 67.9 28.7 67.9 29.1 C68 30.4 67.7 32.4 67.9 32.2 C68.8 31.6 70 28.6 71.4 26.7 C72.5 25.2 72.6 28.7 73.3 27.9 C73.6 27.6 74.2 26.3 74.7 25.1 C75.2 23.6 75.7 22.1 76.1 21.6 C76.6 21 76.4 24.7 76.9 24.1 C77.2 23.6 78.7 18.9 79 18.4 C79.3 17.9 79.9 20.1 80.2 19.6 C80.4 19.2 81.3 15.3 81.5 14.9 C81.7 14.6 81.7 15.9 81.8 15.6 C82 15.3 81.9 12.6 82.4 13.3 C83 13.9 83.4 11.2 84 9.6 C84.4 8.6 84.7 6.5 85 4.3 C85.5 3.8 85.4 1.1 85.7 0.8 z M85.9 6.5 C85.6 6.8 85 10.4 84.6 10.9 C84.3 12.9 83.2 14.4 82.8 15.3 C82.2 16.8 82.1 19.9 81.5 19.4 C81.1 18.7 80.9 21.2 80.7 21.5 C80.6 21.8 79.4 20.3 79.2 20.6 C79 20.9 78.6 22.5 78.4 22.9 C78.1 23.3 77 25.9 76.8 26.4 C76.5 26.8 76 24.3 75.7 24.8 C75.2 25.3 75.4 28.2 74.9 28.8 C74.5 29.3 73.4 28 72.9 29.4 C72.4 30.5 71.8 28.7 71.6 29 C70.9 29.8 70.2 30.4 69.1 31.8 C67.8 33.6 68.1 33.4 67.2 33.9 C67 34.1 66.9 32.5 66.8 31.3 C66.8 30.9 65.6 35.1 65.3 35.3 C65.3 36.1 64.3 34.5 64 35.3 C63.4 37.1 62.8 36.5 62.5 36.7 C62.1 37 62.9 35.1 62.5 35.3 C61.8 35.8 60 41.2 59.9 41.3 C59.5 41.5 58.5 39.4 58.1 39.6 C57.7 39.8 56.9 43.1 55 44.3 C54.9 44.4 53.3 44.9 53.2 44.9 C51.6 45.1 51.8 41.1 51.4 41.2 C51.1 41.3 49.6 47.2 49 47.7 C48.7 48 47.6 45.4 47.4 43.8 C47.3 42.4 47.4 40.7 47.1 40.7 C46.8 40.7 46.6 43.8 45.8 45.8 C44.9 47.7 43.9 51.4 43.7 51.4 C43.1 51.4 41.5 46.3 41.6 44.2 C41.7 42.4 42.2 39 41.6 38.9 C41.1 38.9 41.2 40.5 40.8 42.4 C40.4 44.4 39.8 47.6 39.2 47.4 C38.6 47.3 37.5 44.3 36.9 42.3 C36.3 40.7 36.5 38.8 35.9 38.5 C35.7 38.4 36 40.1 35.9 41.2 C35.8 42.6 35.5 43.9 34.1 43.9 C32.7 43.5 32.5 38.6 31.8 38.3 C31.8 38.2 31.9 39.6 31.1 40.9 C30.2 42.2 29.5 37.7 28.9 37.3 C28.5 37 28.2 38.2 27.3 37.3 C26.5 36.4 27.8 34.7 27.5 33.5 C27.2 33.3 27.2 33 26.9 32.8 C26.5 33.9 25 36 24.7 35.7 C24.2 35.3 23.7 31.3 23.1 30.8 C22.6 30.3 21.9 31.4 21.3 30.8 C20.9 30.5 19.7 27.2 19.6 26.4 C19.2 26 18.6 27.8 18.2 27.4 C17.9 27.7 17.2 25.3 17 25.1 C16.9 24.9 17.1 24.4 17 23.7 C16.6 23.2 16 24.3 15.7 23.9 C15.5 23.7 14.2 21.3 14 20.9 C13.5 20 11.9 17.8 11.9 17.6 C11.2 15.7 10.7 14.4 9.7 12.4 C9.7 12.2 7.7 6.8 7 5.6 C6.7 5.2 5.8 4.2 5.5 4.7 C4.9 6 3.6 8.7 2.8 12.4 C1.9 16.7 1.7 22.1 1.6 22.9 C1.4 24.7 2.9 34.8 4.2 39.2 C5.5 43.6 5.8 44.3 6 45.4 C6.3 47.1 5.7 46.5 6 48 C6.3 49.1 6.7 52.5 7 53.6 C7.3 54.7 7.7 53.4 8.1 54.5 C8.5 55.7 8.8 59.3 9.4 60.7 C9.7 61.5 10.1 59.9 10.4 60.7 C10.8 61.7 11.2 62.6 11.5 63.7 C11.9 64.9 12.1 69.2 12.6 70.4 C12.9 71.2 13.4 69 13.7 69.8 C14 70.8 14.4 71.9 14.7 73 C15 74 15.6 80.4 15.9 81.4 C16.4 82.7 16.6 78.8 17 80.1 C17.3 81.6 17.8 83 18.2 84.4 C18.4 85.2 18.6 86.1 18.8 86.8 C19.1 87.8 19.4 88.8 19.6 89.7 C20.4 93.2 21.1 101.4 21.3 103.8 C21.5 106.2 16.7 102.7 14 105.9 C11.3 109.1 10.8 110.5 14.4 112.6 C22.7 114 30.6 110.6 33 109.2 C33.4 108.9 33.5 105.6 33.7 103.5 C33.9 102.3 33.4 94.5 33.5 92.2 C33.6 91 33.6 89.5 33.6 88.2 C33.6 85.4 35 90.4 35 87.5 C35 86.1 34.5 82 34.1 78.8 C33.6 75.3 33.5 73 33.5 71.5 C33.5 71.2 34.1 68.9 34.1 67.5 C34.1 66 35.4 67.9 35.4 66.5 C35.3 63.9 34.1 57.3 34.1 55.2 C34.1 52.6 34 47.2 34.3 46.3 C34.7 46.9 37.1 51.5 37.8 52 C38.2 52.2 38.5 49.9 39 50.6 C40 51.7 42.2 58.3 43 58.9 C43.9 59.4 44 56.8 44 57.2 C44 58.1 45.1 60.7 45.5 62.2 C45.8 63.5 45.7 65.1 46.1 65.5 C46.4 65.7 46.7 63.6 47.1 62.5 C47.6 61.2 48.1 56.2 49.4 55 C49.9 54.6 49.8 58.7 51.1 55.4 C52.4 52.2 53.7 48.7 54.4 48.2 C55 47.8 54.2 51.1 54.9 50.6 C55.3 50.4 58.7 44.8 59.1 44.5 C59.2 45.4 58.5 51.6 58.4 54.5 C58.3 55.7 58 59.5 57.9 60.9 C57.7 62.5 57.5 63.5 56.9 65.1 C55.4 68.5 55.6 69.4 55.6 69.6 C55.5 72 58.4 66.9 58.4 69.2 C58.4 69.9 57.6 73.3 57.5 74.6 C57.1 76.8 57.5 77.8 57.5 80.1 C57.5 81.5 56 87.9 56 89.2 C56 91.1 59.1 87.1 59.1 88.9 C59.1 90.3 57.9 94.4 57.9 95.7 C58 97.9 57.4 101.7 57.5 103.5 C57.6 107.6 57.5 108.1 57.9 108.6 C59.5 110.6 72.8 113.8 76.8 112.8 C80.7 111.8 80.8 109.2 78 105.9 C75.2 102.6 71 106.1 71.2 104.6 C71.4 102.7 72.1 96.2 72.4 94.6 C72.7 92.6 73.1 90.7 73.5 88.9 C73.8 87.7 74 86.6 74.2 85.6 C74.4 84.7 74.7 83.8 74.9 82.9 C75.3 81.6 76.5 83.8 76.9 82.4 C77.2 81.2 76.8 75.7 77.2 74.6 C77.6 72.9 78.7 75.4 79.2 73.9 C79.7 72.6 79.5 68.2 79.8 67.1 C80.2 66 81.1 66.7 81.5 65.7 C82 64.6 81.7 61.9 82.1 60.9 C82.5 59.9 83.2 58.1 83.4 57.2 C84.2 55 85.4 56.9 85.9 55.4 C86.4 53.9 85.6 49.9 85.9 48.7 C86.2 47.6 86.4 47.8 86.6 46.7 C86.8 45.5 87.1 43.1 87.5 41.6 C87.6 41.4 87.6 41.1 87.7 40.8 C87.9 39.6 88.4 40.8 88.5 39.4 C88.6 38.1 89.1 35.4 89.2 34 C89.4 32.3 89.2 30.3 89.2 28.7 C89.2 27.5 89.4 23.9 89.2 22.9 C88.7 20.1 88.7 12.7 85.9 6.5 z" opacity="0.4" id="b1" /></g></g><g transform="translate(169.6, 173.6) scale(0.9471546) translate(-169.6, -173.6)" id="c1"><g transform="translate(111, 59.89997) translate(3, 0)" id="d1"><g id="e1"><path d="M11.9 56.5 C7.4 51.8 1.1 33.7 0.8 24.4 C0.5 15.1 3.9 2.8 7.6 0.9 C12.2 -0.6 20.2 6.9 27.1 16.4 C34 25.8 37.5 28.4 38.8 30.9 C40.1 33.4 40 35.2 37.1 39 C36.1 40.3 34.3 41.7 32.1 44.5 C30.6 46.4 27.9 52.2 24.6 55.7 C20.7 59.9 14.7 59.5 11.9 56.5 z" id="f1" fill="#2C2F31" /><path d="M11.9 56.5 C7.4 51.8 1.1 33.7 0.8 24.4 C0.5 15.1 3.9 2.8 7.6 0.9 C12.2 -0.6 20.2 6.9 27.1 16.4 C34 25.8 37.5 28.4 38.8 30.9 C40.1 33.4 40 35.2 37.1 39 C36.1 40.3 34.3 41.7 32.1 44.5 C30.6 46.4 27.9 52.2 24.6 55.7 C20.7 59.9 14.7 59.5 11.9 56.5 z M12.5 52.6 C15.1 55.3 20.6 55.7 24.3 51.9 C27.4 48.7 29.9 43.4 31.2 41.7 C33.2 39.2 34.9 37.9 35.8 36.7 C38.5 33.2 37 32 35.8 29.7 C34.6 27.4 31.7 25 25.3 16.5 C18.9 7.8 12.8 0.7 8.5 2 C5.1 3.8 2 14.9 2.2 23.4 C2.4 31.9 8.3 48.3 12.5 52.6 z" opacity="0.15" id="g1" /><path d="M12 44.1 C9.7 39.8 6.2 33.1 5.6 28.8 C5 24.6 5.3 20.2 5.6 17.4 C5.9 14.5 6.9 8.2 9.3 5.6 C12.4 2.8 18.2 14 22.4 19.8 C25.2 23.7 28.3 27.9 31.5 32.4 C32 36.4 31.4 39.3 29.7 40.9 C27.1 43.3 25.6 49.3 22.4 50.6 C19.3 52 14.4 48.4 12 44.1 z" id="h1" fill="#FFB8B3" /><path d="M24 35.1 C21.5 34.1 16.2 28.2 16.2 32.3 C16.2 34 16.2 37 18.5 41.9 C19.4 43.8 21.2 46.4 24 49.7 C25.2 48.4 26 47.1 26.5 45.9 C26.8 45.2 27.4 43.9 28.6 42.2 C29.1 41.5 30.1 40.9 30.7 39.8 C31 39.2 31.4 38 31.7 36.2 C28.2 36.2 25.7 35.8 24 35.1 z" fill-opacity="0.1459" id="i1" fill="#010101" /></g></g><g transform="translate(105.2, 58.89997) translate(96, 28.5) scale(-1, 1) translate(-96, -28.5) translate(76, 0)" id="j1"><g id="k1"><path d="M10.8 53.5 C6.6 48.1 1.1 33.7 0.8 24.4 C0.5 15.1 3.9 2.8 7.6 0.9 C12.2 -0.6 20.2 6.9 27.1 16.4 C34 25.8 37.5 28.4 38.8 30.9 C40.1 33.4 40 35.2 37.1 39 C36.1 40.3 34.3 41.7 32.1 44.5 C30.6 46.4 28.1 49.2 26.8 51 C22.7 56.9 14.7 58.6 10.8 53.5 z" id="l1" fill="#2C2F31" /><path d="M10.8 53.5 C6.6 48.1 1.1 33.7 0.8 24.4 C0.5 15.1 3.9 2.8 7.6 0.9 C12.2 -0.6 20.2 6.9 27.1 16.4 C34 25.8 37.5 28.4 38.8 30.9 C40.1 33.4 40 35.2 37.1 39 C36.1 40.3 34.3 41.7 32.1 44.5 C30.6 46.4 28.1 49.2 26.8 51 C22.7 56.9 14.7 58.6 10.8 53.5 z M11.1 50.6 C14.6 55.3 21.8 53.7 25.5 48.3 C26.7 46.6 28.9 44 30.3 42.3 C32.3 39.7 33.9 38.4 34.8 37.2 C37.4 33.7 37.5 32 36.3 29.7 C35.1 27.4 32 25 25.8 16.3 C19.6 7.5 12.4 0.6 8.3 2 C5 3.7 1.9 15.1 2.2 23.7 C2.5 32.3 7.4 45.6 11.1 50.6 z" opacity="0.15" id="m1" /><path d="M12 44.1 C9.7 39.8 6.2 33.1 5.6 28.8 C5 24.6 5.3 20.2 5.6 17.4 C5.9 14.5 6.9 8.2 9.3 5.6 C12.4 2.8 18.2 14 22.4 19.8 C25.2 23.7 28.3 27.9 31.5 32.4 C32 36.4 31.4 39.3 29.7 40.9 C27.1 43.3 25.6 49.3 22.4 50.6 C19.3 52 14.4 48.4 12 44.1 z" id="n1" fill="#FFB8B3" /><path d="M24 35.1 C21.5 34.1 16.2 28.2 16.2 32.3 C16.2 34 16.2 37 18.5 41.9 C19.4 43.8 21.2 46.4 24 49.7 C25.2 48.4 26 47.1 26.5 45.9 C26.8 45.2 27.4 43.9 28.6 42.2 C29.1 41.5 30.1 40.9 30.7 39.8 C31 39.2 31.4 38 31.7 36.2 C28.2 36.2 25.7 35.8 24 35.1 z" fill-opacity="0.1459" id="o1" fill="#010101" /></g></g><g transform="translate(-286.1, 49.39998) translate(18, 27)" id="p1"><g id="q1"><path d="M395.9 33 C395.5 43 395.1 49.9 394.5 53.9 C392.6 68.8 389.8 77.4 388.2 79.4 C386 82.2 384.5 84.4 383.6 85.8 L390.6 84.8 L388.2 91.5 L393 88 C405.9 96.6 414.5 102 419 104.2 C424.2 106.7 430 107.6 432.1 107.8 C436.9 108.3 440.6 108.3 443.1 107.8 C454.1 104.1 461.6 101.1 465.8 99 C470 96.8 474.9 92.8 480.4 87 L486.6 88 L485.3 83.4 C484 80.4 483.4 78.7 483.6 78.2 C483.7 77.7 486.1 77.7 490.8 78.2 L483.6 67.4 C481.3 59.8 480 54.4 479.7 51.2 C479.4 48 479.2 42.6 478.9 35 C478.1 31.4 476.5 29 474.3 27.9 C472 26.7 470.5 28.1 469.8 31.9 L474.3 80.3 L449.4 98.8 L431.4 98.8 C415.7 92.4 407.4 89.2 406.5 89.2 C405.6 89.2 403.5 85.1 400 76.9 L405 27.8 C402.5 26.5 400.8 26.2 399.7 26.8 C398.6 27.6 397.3 29.6 395.9 33 z" id="r1" fill="#965622" /><path d="M425.8 7.7 L398.5 28.5 C399.7 37.8 399.7 47 398.5 56.1 C397.3 65.3 395.9 72.4 394.3 77.4 L392.5 80.6 L397.1 78.7 L394.4 82.3 L398.6 82.3 C407.9 91.9 413.9 97.4 416.6 98.8 C420.6 100.9 425.4 104.7 431.2 106 C437 107.3 444.5 107.4 457.8 98.8 C466.7 93.1 473.3 86.6 477.5 79.4 L481.9 82.3 L479.2 72.9 L483.8 75.9 L479.2 68.3 C478 60.9 477.4 55.9 477.2 53.3 C476.6 42.9 476.2 38.6 476.2 36.4 C476.2 33.5 467.9 23.9 451.2 7.9 L425.8 7.9 L425.8 7.7 z" id="s1" fill="#46494D" /><path d="M477 36.3 C477 30.4 478.2 31.3 473.5 26.1 C466.5 18.5 452.3 8.8 451.1 7.7 C449 5.8 427.2 6.4 425.6 7.1 C423.9 7.9 398.9 25.7 397.9 28.7 C396.9 31.7 399.5 43.2 398.9 50.5 C400.9 50.9 403 51.1 404.9 49.8 C406.8 48.5 409 44.9 411 45.8 C413.9 47.1 413.8 66.8 422.1 68.1 C425.2 68.6 432.7 56.3 437.5 56.2 C441 56 448.4 68.7 451 68 C461 65.2 465.3 45.6 468.4 48.3 C471.9 51.3 473.4 52 476.5 48.3 C477 47.8 477 42.1 477 36.3 z" id="t1" fill="#965622" /><path d="M405.7 49.1 C405.8 50.4 416.2 71.4 418.3 80.1 C420.4 88.8 420 101.4 436.2 100.8 C452.4 100.2 453 99.1 456.8 80.1 C460.6 61.1 468.6 50.2 468.5 48.7 C468.4 47.2 467 46.4 463.2 42.7 C459.5 39.1 456.4 31.4 450.2 31.3 C445.7 31 436.5 40.9 447.9 54.4 C448.6 55.1 454 65.1 452.2 65.9 C450.4 65.9 448.9 63.2 446.5 60.8 C445.3 59.6 442.6 58.1 441.6 56.7 C438.4 52.1 439.4 26.8 438 26.8 C436.5 26.7 435.1 52.6 433.7 56.7 C433 58.9 431.1 59.2 429.4 60.8 C426.8 63.2 424.2 66.2 423 65.9 C421.5 65.7 423.9 57.6 426.6 55.7 C434.5 48.9 431.5 31.4 426.6 31.4 C421 29.9 417.4 36.5 414.1 40.2 C410.7 43.9 405.5 47.8 405.7 49.1 z" id="u1" fill="#46494D" /><path d="M397.6 29.4 C397.6 29.1 397.7 28.9 397.8 28.7 C398.8 25.7 423.8 7.9 425.5 7.1 C427.2 6.4 449 5.8 451 7.7 C452.2 8.8 466.4 18.5 473.4 26.1 C475.2 28.1 476.1 29.2 476.6 30.1 C477.6 31.4 478.3 33.1 478.8 35.2 C479.1 42.8 479.3 48.2 479.6 51.4 C479.9 54.6 481.2 60 483.5 67.6 L490.7 78.4 C486 77.9 483.6 77.9 483.5 78.4 C483.3 78.9 483.9 80.6 485.2 83.6 L486.5 88.2 L480.3 87.2 C474.8 93 469.9 97 465.7 99.2 C461.5 101.3 454 104.3 443 108 C440.5 108.5 436.8 108.5 432 108 C429.9 107.8 424.1 106.9 418.9 104.4 C414.3 102.2 405.7 96.8 392.9 88.2 L388.1 91.5 L390.5 84.8 L383.5 85.8 C384.4 84.4 385.9 82.2 388.1 79.4 C389.7 77.4 392.5 68.8 394.4 53.9 C395 49.9 395.4 43 395.8 33 C396.5 31.5 397.1 30.3 397.6 29.4 z M399.8 28.6 C399.7 28.8 399.7 29 399.7 29.3 C399.2 30.2 398.6 31.3 398 32.7 C397.6 42.2 397.2 48.7 396.7 52.5 C394.9 66.6 393.5 74.7 392 76.6 C389.9 79.3 387.7 82.4 386.9 83.7 L393 81.8 L390.7 88.2 L396.1 86.4 C408.3 94.6 415.7 98.4 420.1 100.4 C425 102.8 430.5 103.6 432.5 103.8 C437.1 104.3 440.6 104.3 442.9 103.8 C453.3 100.3 460.5 97.4 464.4 95.4 C468.4 93.3 473 89.5 478.3 84 L484.2 84.9 L483 80.5 C481.8 77.7 481.1 77 481.3 76.6 C481.4 76.1 482.5 75.5 486.9 76 L481.3 65.3 C479.1 58.1 477.9 53 477.6 49.9 C477.3 46.9 477.1 41.7 476.8 34.5 C476.4 32.5 475.6 30.9 474.7 29.7 C474.3 28.8 473.4 27.8 471.7 25.9 C465.1 18.9 451.6 9.7 450.5 8.6 C448.5 6.8 427.8 7.4 426.2 8 C424.6 8.8 400.8 25.7 399.8 28.6 z" opacity="0.15" id="v1" /></g></g><g transform="translate(169.6, 142.5) scale(1.05) translate(-169.6, -142.5)" id="w1"><g transform="translate(110.3, 86.69997) translate(20, 34)" id="x1"><g transform="translate(0, 11)" id="y1"><path d="M72.8 26.1 C76.1 26.8 75.1 26.5 78.7 28.4 C75.2 10.7 62.4 6 51.7 5.2 C48.7 2.4 44.6 0.6 39.5 0.6 C34.4 0.6 30.3 2.4 27.3 5.2 C16.6 6 3.7 10.7 0.3 28.4 C3.9 26.5 3 26.8 6.2 26.1 C3.1 28.8 1.5 32 3.9 39.7 C6.9 37.2 6.2 35.5 8.9 33.8 C6.3 37 7 42.1 8.5 46.6 C9.2 45.3 9.7 43.9 12 41.6 C11.5 44.8 13.1 47.3 14.5 49.7 C15.6 47.8 16.2 45.2 16.7 42.4 C18 43.3 19.4 44 20.9 44.7 C23.6 47.9 25.7 49.1 28.3 50 C28 48.8 28.1 48.2 28.1 47 C30 48.6 31.9 49.2 33.6 50.8 C33.8 49.4 33.8 49.2 33.9 47.8 C35.1 51.3 36.8 52 39.5 54.4 C42.3 52 43.9 51.2 45.2 47.8 C45.4 49.2 45.4 49.4 45.5 50.8 C47.2 49.1 49.1 48.6 50.8 47 C51 48.3 51.1 48.8 50.8 50 C53.4 49.1 55.5 47.8 58.2 44.7 C59.7 44 61.1 43.2 62.4 42.4 C62.9 45.2 63.5 47.9 64.6 49.7 C66 47.3 67.6 44.8 67.1 41.6 C69.4 43.9 69.9 45.3 70.6 46.6 C72.1 42.1 72.8 37 70.2 33.8 C72.9 35.5 72.2 37.2 75.2 39.7 C77.4 32.1 75.8 28.8 72.8 26.1 z" id="z1" fill="#FEFEFE" /><path d="M72.8 26.1 C76.1 26.8 75.1 26.5 78.7 28.4 C77.1 20.5 73.7 15.2 69.5 11.7 C71.3 14.7 72.5 17.2 73.3 22.4 C71.3 21.1 69.2 21 66.3 19.7 C68.5 23.7 68.9 28.8 67.1 33.1 C66.2 31.7 65.1 30.1 62.8 28.7 C63.3 34.5 62.3 36.5 61.5 37.5 C60.3 31.2 58.4 25.4 51.4 25.4 C46.7 27.4 42.5 27.4 39.5 23 C36.5 27.5 32.3 27.4 27.6 25.4 C20.7 25.4 18.7 31.2 17.5 37.5 C16.7 36.5 15.7 34.5 16.2 28.7 C13.9 30.1 12.8 31.6 11.9 33.1 C10.1 28.8 10.5 23.6 12.7 19.7 C9.8 21 7.8 21.1 5.7 22.4 C6.5 17.2 7.7 14.7 9.5 11.7 C5.2 15.2 1.8 20.5 0.3 28.4 C3.9 26.5 3 26.8 6.2 26.1 C3.1 28.8 1.5 32 3.9 39.7 C6.9 37.2 6.2 35.5 8.9 33.8 C6.3 37 7 42.2 8.5 46.6 C9.2 45.3 9.7 43.9 12 41.6 C11.5 44.8 13.1 47.3 14.5 49.7 C15.6 47.8 16.2 45.2 16.7 42.4 C18 43.3 19.4 44 20.9 44.7 C23.6 47.9 25.7 49.1 28.3 50 C28 48.8 28.1 48.2 28.1 47 C28.2 47 28.2 47 28.3 47 C30 48.6 31.9 49.2 33.6 50.8 C33.8 49.4 33.8 49.2 33.9 47.8 C35.1 51.3 36.8 52 39.5 54.4 C42.3 52 43.9 51.2 45.2 47.8 C45.4 49.2 45.4 49.4 45.5 50.8 C47.2 49.1 49.1 48.6 50.8 47 C50.9 47 50.9 47 51 47 C51 48.3 51.1 48.8 50.8 50 C53.4 49.1 55.5 47.8 58.2 44.7 C59.7 44 61.1 43.2 62.4 42.4 C62.9 45.2 63.5 47.9 64.6 49.7 C66 47.3 67.6 44.8 67.1 41.6 C69.4 43.9 69.9 45.3 70.6 46.6 C72.1 42.1 72.8 37 70.2 33.8 C72.9 35.5 72.2 37.2 75.2 39.7 C77.4 32.1 75.8 28.8 72.8 26.1 z" id="a2" fill="#EDEEEF" /><path d="M72.8 26.1 C75.8 28.8 77.4 32.1 75.2 39.7 C72.2 37.2 72.9 35.5 70.2 33.8 C72.8 37 72.1 42.1 70.6 46.6 C69.9 45.3 69.4 43.9 67.1 41.6 C67.6 44.8 66 47.3 64.6 49.7 C63.5 47.9 62.9 45.2 62.4 42.4 C61.1 43.2 59.7 44 58.2 44.7 C55.5 47.8 53.4 49.1 50.8 50 C51.1 48.8 51 48.3 51 47 C50.9 47 50.9 47 50.8 47 C49.1 48.6 47.2 49.1 45.5 50.8 C45.4 49.4 45.4 49.2 45.2 47.8 C43.9 51.2 42.3 52 39.5 54.4 C36.8 52 35.1 51.3 33.9 47.8 C33.8 49.2 33.8 49.4 33.6 50.8 C31.9 49.2 30 48.6 28.3 47 C28.2 47 28.2 47 28.1 47 C28.1 48.2 28 48.8 28.3 50 C25.7 49.1 23.6 47.9 20.9 44.7 C19.4 44 18 43.3 16.7 42.4 C16.2 45.2 15.6 47.8 14.5 49.7 C13.1 47.3 11.5 44.8 12 41.6 C9.7 43.9 9.2 45.3 8.5 46.6 C7 42.1 6.3 37 8.9 33.8 C6.2 35.5 6.9 37.2 3.9 39.7 C1.5 32 3.1 28.8 6.2 26.1 C3 26.8 3.9 26.5 0.3 28.4 C3.7 10.7 16.6 6 27.3 5.2 C30.3 2.4 34.4 0.6 39.5 0.6 C44.6 0.6 48.7 2.4 51.7 5.2 C62.4 6 75.2 10.7 78.7 28.4 C75.1 26.5 76.1 26.8 72.8 26.1 z M70.4 24.3 C73.5 25 73.5 24.1 76.9 25.9 C75.3 17.6 71 13.1 66.2 10.2 C61.4 7.4 55.9 6 50.9 5.6 C48.1 3 44.3 1.3 39.5 1.3 C34.7 1.3 30.9 3 28.1 5.6 C18 6.4 6 8.6 2.9 25.2 C6.3 23.4 6.4 25.3 9.4 24.7 C6.5 27.2 2.3 28.7 4.5 36 C6.4 34.4 8.6 33 11.3 31.6 C8.9 34.6 7.7 37.7 9.1 41.9 C9.8 40.7 11.4 40.4 13.6 38.3 C13.1 41.3 12.7 44.4 14.1 46.6 C15.1 44.8 15.7 42.2 16.2 39.5 C17.4 40.3 20.3 42.9 21.7 43.5 C24.2 46.5 24.9 47 27.3 47.9 C27 46.8 27.3 45.5 27.3 44.4 C27.4 44.4 31.6 46.8 33.2 48.3 C33.4 47 33.1 46.5 33.2 45.2 C34.3 48.5 37 49.4 39.6 51.7 C42.2 49.5 44.6 48.7 45.8 45.5 C46 46.8 46 47 46.1 48.3 C47.7 46.7 49.8 45.9 51.4 44.4 C51.8 44.4 52.3 45.4 53 47.3 C54.9 45.1 56.3 43.6 57.1 42.6 C58.5 41.9 61.8 40.8 63 40.1 C63.5 42.7 63.7 44.9 64.7 46.6 C66 44.4 66.7 41.9 66.2 38.9 C68.4 41.1 69.8 42.4 70.4 43.6 C71.3 40.8 70.9 36.7 69.2 31.4 C71.7 33 72 34.7 74.8 37 C76.9 29.7 73.2 26.9 70.4 24.3 z" opacity="0.15" id="b2" /></g></g><g transform="translate(102.7, 60.69996) translate(54, 91)" id="c2"><g id="d2" fill="#282421"><path d="M25 7 C24.6 6.6 24 6.7 23.6 7.1 C22.1 8.8 20.4 9.7 18.5 9.8 C16.7 9.9 15.1 9.2 14.1 8.4 L14.1 1.9 C14.1 1.3 13.7 0.9 13.1 0.9 C12.5 0.9 12.1 1.4 12.1 1.9 L12.1 8.4 C11.1 9.2 9.6 9.6 7.8 9.6 C5.9 9.5 4.1 8.8 2.6 7.1 C2.2 6.7 1.6 6.6 1.2 7 C0.8 7.4 0.7 8 1.1 8.4 C3.4 11.1 6 11.7 7.7 11.8 C7.8 11.8 7.9 11.8 8 11.8 C8.8 11.8 9.5 11.7 10.1 11.5 C12.1 12.1 14.2 12.1 16.2 11.5 C16.8 11.6 18.4 11.7 18.5 11.7 C20.2 11.6 22.8 11 25.1 8.3 C25.5 8 25.5 7.4 25 7 z" id="e2" /></g></g><g transform="translate(92.69997, 52.69996) translate(67, 84)" id="f2"><g transform="translate(0.600098, 0)" id="g2"><path d="M1 6.3 C1 5.2 0.6 3.7 1.5 2.7 C2.9 1.2 6.3 0.6 9.2 0.6 C12 0.6 15.2 1.3 16.5 2.2 C17.9 3.2 17.3 5.3 17.3 6.7 C17.3 7.6 16.9 9.9 14.6 12 C13.2 13.2 10.8 13.2 9.2 13.3 C7.7 13.4 5.4 13 4.1 12 C1.9 10.1 1 7.1 1 6.3 z" id="h2" /><path d="M3.9 2.2 C3.2 2.7 2.9 3.4 3.3 3.5 C3.7 3.6 7.1 2.7 7.8 2.8 C8.5 2.9 11.8 2.8 12.8 3.5 C13.8 4.2 15.5 3 14.7 2.5 C13.9 2 11.2 1.2 8.9 1.2 C6.6 1.2 4.7 1.7 3.9 2.2 z" id="i2" fill="#FFF" /></g></g><g transform="translate(113.7, 78.39996) translate(28, 31)" id="j2"><g id="k2"><path d="M27.4 14.8 C22.7 14.2 24.5 5.1 19.1 1.5 C15.1 -1.3 8.2 2.3 5.5 4.5 C1.9 7.3 -0.5 10.3 0.1 14.8 C0.7 19.3 4 23.4 8.3 24.9 C11.9 26.1 15.9 25.6 19.5 24.1 C22 23 30.4 15.1 27.4 14.8 z" id="l2" fill="#B76930" /><path d="M5.1 12.4 C5.1 10.8 7.5 10 9.7 8.3 C10.5 7.7 12 6.6 13.8 6.6 C16.3 6.6 18.1 8.3 19.3 10.3 C20.6 12.5 22.2 14.7 21.7 15.7 C21.2 16.9 18.6 17.2 16 18.1 C14.8 18.5 11.4 18.4 9.5 16.8 C7.5 15 5.1 13.3 5.1 12.4 z" id="m2" fill="#2C2F31" /><path d="M18.6 10.5 C18.4 10.1 18.2 9.8 17.9 9.5 C17.1 8.6 15.9 8.1 14.6 8.1 C13.9 8.1 13.3 8.3 12.7 8.5 C12.6 8.5 12.6 8.6 12.5 8.6 C12.3 8.7 12.1 8.8 11.9 8.9 C10.1 9.9 8.2 10.7 7.9 12.1 C7.7 13.1 9.8 14.7 11.6 16.1 C11.8 16.2 11.9 16.4 12.1 16.5 C12.1 16.5 12.2 16.5 12.2 16.6 C12.9 17 13.7 17.2 14.5 17.2 C14.7 17.2 14.9 17.2 15.1 17.1 L15.2 17.1 C15.5 17.1 15.7 17 16 16.9 C17.9 16.5 20.2 16.2 20.6 15 C21.1 14.2 19.9 12.3 18.6 10.5 z" id="n2" fill="#282421" /><path d="M11.5 12.4 C12 12.8 12.7 12.5 13.3 12.2 C14.5 11.6 17.1 10.9 17 10.4 C16.9 9.9 15.4 9.5 15.2 9.4 C14.5 9.2 13.5 9.2 12.9 9.5 C12.1 10 10.4 11.5 11.5 12.4 z" id="o2" fill="#FFFAF8" /></g></g><g transform="translate(99.09997, 78.39996) translate(68, 31)" id="p2"><g id="q2"><path d="M1.6 14.8 C6.3 14.2 5.3 5.1 10.6 1.5 C14.6 -1.3 20.8 2.3 23.5 4.5 C27.1 7.3 29.5 10.3 28.9 14.8 C28.3 19.3 25 23.4 20.7 24.9 C17.1 26.1 13.1 25.6 9.5 24.1 C6.9 23 -1.4 15.1 1.6 14.8 z" id="r2" fill="#B76930" /><path d="M23.9 12.4 C23.9 10.8 21.5 10 19.3 8.3 C18.5 7.7 17 6.6 15.2 6.6 C12.7 6.6 10.9 8.3 9.7 10.3 C8.4 12.5 6.8 14.7 7.3 15.7 C7.8 16.9 10.4 17.2 13 18.1 C14.2 18.5 17.6 18.4 19.5 16.8 C21.5 15 23.9 13.3 23.9 12.4 z" id="s2" fill="#2C2F31" /><path d="M17.1 9 C16.9 8.9 16.7 8.8 16.5 8.7 C16.4 8.7 16.4 8.6 16.3 8.6 C15.7 8.3 15.1 8.2 14.4 8.2 C13.1 8.2 12 8.7 11.1 9.6 C10.8 9.9 10.5 10.3 10.3 10.7 C9.1 12.4 7.8 14.4 8.2 15.3 C8.7 16.5 10.9 16.8 12.8 17.2 C13.1 17.3 13.3 17.4 13.6 17.4 L13.7 17.4 C13.9 17.4 14.1 17.4 14.3 17.4 C15.2 17.4 15.9 17.2 16.6 16.7 C16.6 16.7 16.7 16.7 16.7 16.6 C16.9 16.5 17.1 16.3 17.2 16.2 C19.1 14.8 21.1 13.2 20.9 12.2 C20.8 10.8 18.9 10.1 17.1 9 z" id="t2" fill="#282421" /><path d="M11.1 12 C11.6 12.4 12.3 12.1 12.9 11.8 C14.1 11.2 16.7 10.5 16.6 10 C16.5 9.5 15 9.1 14.8 9 C14.1 8.8 13.1 8.8 12.5 9.1 C11.6 9.5 9.9 11.1 11.1 12 z" id="u2" fill="#FFFAF8" /></g></g></g></g></g><g transform="translate(39.29518, 265.301)" id="v2"><ellipse cx="32.5" cy="17.5" rx="37.3" ry="13.2" opacity="0.15" id="w2" /><use xlink:href="#e" x="1.51" y="0" /></g><g transform="translate(235.8952, 266.9009)" id="x2"><ellipse cx="32.5" cy="17.5" rx="37.3" ry="13.2" fill-opacity="0.15" id="y2" /><use xlink:href="#e" x="0.08" y="0" /></g></g><defs><g transform="translate(17.09519, 0.800995) translate(-135.2952, -293.601)" id="e" fill="#000"><path d="M118.2 302.7 C118.4 307.4 132.5 311.2 149.8 311.2 C167.1 311.2 181.2 307.4 181.4 302.7 C181.4 307.5 181.4 310.1 181.4 310.5 C181.4 315.3 167.3 319.1 149.8 319.1 C132.3 319.1 118.2 315.2 118.2 310.5 L118.2 302.7 L118.2 302.7 z" fill-opacity="0.4528" id="z2" fill="#593001" /><path d="M118.7 301.7 C118.9 306.4 133 310.2 150.3 310.2 C167.6 310.2 181.7 306.4 181.9 301.7 C181.9 306.5 181.9 309.1 181.9 309.5 C181.9 314.3 167.8 318.1 150.3 318.1 C132.8 318.1 118.7 314.2 118.7 309.5 L118.7 301.7 L118.7 301.7 z" id="a3" fill="#DA8113" /><linearGradient x1="46.0545" y1="-118.6926" x2="45.4656" y2="-118.6926" gradientUnits="userSpaceOnUse" gradientTransform="matrix(117.135, 0, 0, 28.4634, -5208.417, 3687.795)" id="b3"><stop offset="0%" stop-color="#D9952A" stop-opacity="1" /><stop offset="6.438854%" stop-color="#CA7519" stop-opacity="1" /><stop offset="30.54%" stop-color="#E3AD3A" stop-opacity="1" /><stop offset="51.05%" stop-color="#FFEC91" stop-opacity="1" /><stop offset="68.8%" stop-color="#E9BD44" stop-opacity="1" /><stop offset="86.24%" stop-color="#FFED6C" stop-opacity="1" /><stop offset="93.87%" stop-color="#F2D353" stop-opacity="1" /><stop offset="100%" stop-color="#F2B947" stop-opacity="1" /></linearGradient><path d="M118.2 301.6 C118.4 306.1 132.7 309.7 150.3 309.7 C167.9 309.7 182.2 306.1 182.4 301.6 C182.4 306.2 182.4 308.7 182.4 309 C182.4 313.5 168 317.2 150.3 317.2 C132.6 317.2 118.2 313.5 118.2 309 L118.2 301.6 L118.2 301.6 z" id="c3" style="fill:url(#b3)" /><linearGradient x1="45.4914" y1="-117.9547" x2="45.9407" y2="-117.5895" gradientUnits="userSpaceOnUse" gradientTransform="matrix(115.425, 0, 0, 29.925, -5125.077, 3826.124)" id="d3"><stop offset="0%" stop-color="#F4E072" stop-opacity="1" /><stop offset="100%" stop-color="#DB9427" stop-opacity="1" /></linearGradient><ellipse cx="150.3" cy="301.5" rx="31.6" ry="8.2" id="e3" style="fill:url(#d3)" /><linearGradient x1="45.4656" y1="-126.0065" x2="46.0545" y2="-126.0065" gradientUnits="userSpaceOnUse" gradientTransform="matrix(117.135, 0, 0, 18.6219, -5208.417, 2651.479)" id="f3"><stop offset="0%" stop-color="#D9952A" stop-opacity="1" /><stop offset="6.438854%" stop-color="#CA7519" stop-opacity="1" /><stop offset="30.54%" stop-color="#E3AD3A" stop-opacity="1" /><stop offset="51.05%" stop-color="#FFEC91" stop-opacity="1" /><stop offset="68.8%" stop-color="#E9BD44" stop-opacity="1" /><stop offset="86.24%" stop-color="#FFED6C" stop-opacity="1" /><stop offset="93.87%" stop-color="#F2D353" stop-opacity="1" /><stop offset="100%" stop-color="#F2B947" stop-opacity="1" /></linearGradient><path d="M119.2 299.9 C119 300.2 118.9 300.6 118.9 301 C118.9 305.5 132.9 309.2 150.3 309.2 C167.7 309.2 181.7 305.5 181.7 301 C181.7 300.6 181.6 300.3 181.4 299.9 C182 300.5 182.4 301.2 182.4 301.9 C182.4 306.4 168 310.1 150.3 310.1 C132.6 310.1 118.2 306.4 118.2 301.9 C118.2 301.3 118.6 300.6 119.2 299.9 z" id="g3" style="fill:url(#f3)" /><linearGradient x1="45.196" y1="-121.5895" x2="45.3746" y2="-120.6758" gradientUnits="userSpaceOnUse" gradientTransform="matrix(101.745, 0, 0, 23.94, -4458.332, 3199.41)" id="h3"><stop offset="0%" stop-color="#F8DD61" stop-opacity="1" /><stop offset="100%" stop-color="#EAA330" stop-opacity="1" /></linearGradient><ellipse cx="150.3" cy="300.8" rx="27.8" ry="6.6" id="i3" style="fill:url(#h3)" /><linearGradient x1="45.5694" y1="-134.267" x2="45.0221" y2="-134.267" gradientUnits="userSpaceOnUse" gradientTransform="matrix(101.745, 0, 0, 13.2525, -4458.332, 2077.223)" id="j3"><stop offset="0%" stop-color="#F4CA2F" stop-opacity="1" /><stop offset="51.38%" stop-color="#BF7737" stop-opacity="1" /><stop offset="100%" stop-color="#E4A929" stop-opacity="1" /></linearGradient><path d="M122.6 301.5 C122.5 301.3 122.4 301 122.4 300.8 C122.4 297.2 134.9 294.2 150.2 294.2 C165.5 294.2 178 297.1 178 300.8 C178 301 177.9 301.3 177.8 301.5 C176.3 298.2 164.5 295.6 150.1 295.6 C135.7 295.6 124.1 298.2 122.6 301.5 z" id="k3" style="fill:url(#j3)" /></g></defs><desc>6E884OCJLGH,CFXHM0uPa7gaxztIbJEBG5Bz0yiBuDSQ3evDhjrIUGCX8wdSnkfqNeqOC5ESgA+UPlBOZBIAX1L8n0nktGENtnBYYA9Nwd9qg9A2zIPZe9zts3c71G1eLg1tK5sBrBSo9mc3vp3O/rp8qMQVN5LHE6oMtqR60/wfQDfnnlBzCCMQixdJaabGqK5Flnq8KA6A</desc></svg>