<?xml version="1.0" encoding="utf-8"?><!DOCTYPE svg PUBLIC "-//W3C//DTD SVG 1.1//EN" "http://www.w3.org/Graphics/SVG/1.1/DTD/svg11.dtd"><svg x="0" y="0" width="340px" height="340px" viewBox="0, 0, 340, 340" preserveAspectRatio="xMidYMid" font-size="0" id="a" enable-background="new 0 0 340 340" xmlns="http://www.w3.org/2000/svg" xmlns:xlink="http://www.w3.org/1999/xlink" xmlns:xml="http://www.w3.org/XML/1998/namespace" version="1.1"><g id="b" fill="#000"><g id="c"><g transform="translate(0, 0) translate(0, 224)" id="d"><ellipse cx="168.6" cy="53.1" rx="57.8" ry="12.8" fill-opacity="0.25" id="e" /></g><g id="f"><g transform="translate(133, 215.1) scale(0.75) translate(-133, -215.1) translate(84.5, 52.79997) translate(0, 161)" id="g"><path d="M0.4 6.2 C0.3 6.5 -0.6 7.7 0.7 12 C1.5 14.9 3.1 16.7 5.8 19.5 C9.2 23.1 11.9 25.4 15 26.2 C18.1 26.9 25.8 27.2 29.5 28.1 C33.5 29.1 38.9 32.7 41.2 34 C46 36.8 58.3 35.8 61.1 30.3 C62.5 27.5 64.6 23.5 64.1 19.5 C63.5 15.4 60.2 11.4 57.5 12 C52 13.2 48.6 13.1 43.4 13.8 C38.1 14.5 35.9 10.9 29.4 10.9 C26.4 10.9 22.2 10.1 16.3 10.9 C13.7 11.2 8.7 9.6 6.8 8.3 C5.9 7.7 3.6 5.9 2.7 5.5 C1.5 5 0.9 5.2 0.4 6.2 z" id="h" fill="#7B4C3A" /><g transform="translate(0, 5)" id="i"><path d="M37.6 7.9 C34.9 7.5 32.7 6.1 28.6 6.5 C26.1 6.8 22.4 6.5 17.5 7.7 C15.3 8.2 11 7.3 9.2 6.3 C8.4 5.9 6.3 4.6 5.5 4.3 C4.4 4 4 4.2 3.6 5.1 C3.6 5.4 2.9 6.5 4.4 10 C5.3 12.4 6.8 13.8 9.4 15.9 C12.6 18.6 15.1 20.3 17.8 20.8 C20.5 21.1 27 20.7 30.2 21.1 C33.7 21.6 38.6 24.2 40.6 25.1 C44.9 27 55.2 25.1 57.1 20.2 C58 17.7 59.5 14.1 58.7 10.8 C58.4 9.5 57.7 8.2 56.9 7.2 C57.1 7.2 57.3 7.1 57.5 7.1 C60.2 6.5 63.5 10.5 64.1 14.6 C64.6 18.6 62.5 22.6 61.1 25.4 C58.3 30.8 46 31.8 41.2 29 C38.9 27.7 33.5 24.1 29.5 23.1 C25.8 22.2 18.1 21.9 15 21.2 C11.9 20.4 9.2 18.1 5.8 14.5 C3.1 11.7 1.5 9.9 0.7 7 C-0.6 2.7 0.3 1.5 0.4 1.2 C0.9 0.2 1.5 0 2.7 0.5 C3.6 0.9 5.9 2.7 6.8 3.3 C8.7 4.6 13.7 6.2 16.3 5.9 C22.2 5.1 26.4 5.9 29.4 5.9 C33 5.9 35.3 7 37.6 7.9 z" fill-opacity="0.3" id="j" /></g></g><g transform="translate(129.7067, 270.3) scale(0.9027778) translate(-126.2, -270.3) translate(102.5, 55.59996) translate(15, 148)" id="k"><g id="l"><path d="M7.5 67.2 C7.3 61.1 10.4 57.2 16.8 55.3 C9.2 42.9 0.5 25.2 0.1 19.1 C-0.5 9 3.8 3.3 7.7 0.8 C10.3 -0.9 22 -1.6 27.5 0.1 C33.1 1.6 35.6 7.3 37.4 8.7 C42.7 12.6 47.5 20.2 49.1 25.6 C52.1 35.9 50.3 51.1 49.5 64.3 C44.4 65.8 27.6 69.8 23.9 70.1 C20.7 70.4 16.2 70.4 10.6 70.2 C8.8 70.1 7.5 68.8 7.5 67.2 z" id="m" fill="#B09082" /><path d="M10.4 44.1 C5 33.9 0.4 23.5 0.1 19.1 C-0.5 9 3.8 3.3 7.7 0.8 C8 0.5 8.5 0.3 8.9 0.1 C8.6 1.4 8.2 2.8 7.7 4.4 C4.1 16.1 12.3 23.6 12.7 28.2 C13.3 35.2 12.2 41.2 10.4 44.1 z" id="n" fill="#7B4C3A" /><path d="M7.5 67.2 C7.3 61.1 10.4 57.2 16.8 55.3 C9.2 42.9 0.5 25.2 0.1 19.1 C-0.5 9 3.8 3.3 7.7 0.8 C10.3 -0.9 22 -1.6 27.5 0.1 C33.1 1.6 35.6 7.3 37.4 8.7 C42.7 12.6 47.5 20.2 49.1 25.6 C52.1 35.9 50.3 51.1 49.5 64.3 C44.4 65.8 27.6 69.8 23.9 70.1 C20.7 70.4 16.2 70.4 10.6 70.2 C8.8 70.1 7.5 68.8 7.5 67.2 z M9.3 65.4 C9.3 66.9 9.8 68 11.4 68 C16.9 68.2 21.2 68.2 24.2 67.9 C27.7 67.6 42.8 64 47.7 62.6 C48.5 50 51.2 35.2 48.4 25.3 C46.9 20 42.3 12.8 37.2 9.1 C35.5 7.8 33.1 2.3 27.7 0.9 C22.3 -0.7 11.2 -0.1 8.7 1.6 C5 4.1 0.8 9.5 1.4 19.2 C1.8 25 11.4 44.2 18.6 56.2 C12.7 57.9 9.1 59.6 9.3 65.4 z" opacity="0.15" id="o" /></g></g><g transform="translate(207.5933, 270.3) scale(0.9027778) translate(-211.1, -270.3) translate(90.8, 55.59996) translate(105.5, 184.5) scale(-1, 1) translate(-105.5, -184.5) translate(80, 148)" id="p"><g id="q"><path d="M9.7 67.2 C9.5 61.1 12.6 57.2 19 55.3 C11.4 42.9 2.7 25.2 2.3 19.1 C1.7 9 6 3.3 9.9 0.8 C12.4 -0.9 22 -1.6 27.6 0.1 C33.8 1.8 39.5 5.7 43.8 9.6 C46.8 12.2 48.4 18 50 23.4 C53 33.7 50.8 52.1 50 65.2 C44.9 66.7 29.7 69.7 26 70 C22.8 70.3 18.3 70.3 12.7 70.1 C11 70.1 9.7 68.8 9.7 67.2 z" id="r" fill="#B09082" /><path d="M12.5 44.1 C7.1 33.9 2.5 23.5 2.2 19.1 C1.7 9 6 3.3 9.9 0.8 C10.2 0.5 10.7 0.3 11.1 0.1 C10.8 1.4 10.4 2.8 9.9 4.4 C6.3 16.1 14.5 23.6 14.9 28.2 C15.4 35.2 14.3 41.2 12.5 44.1 z" id="s" fill="#7B4C3A" /><path d="M9.7 67.2 C9.5 61.1 12.6 57.2 19 55.3 C11.4 42.9 2.7 25.2 2.3 19.1 C1.7 9 6 3.3 9.9 0.8 C12.4 -0.9 22 -1.6 27.6 0.1 C33.8 1.8 39.5 5.7 43.8 9.6 C46.8 12.2 48.4 18 50 23.4 C53 33.7 50.8 52.1 50 65.2 C44.9 66.7 29.7 69.7 26 70 C22.8 70.3 18.3 70.3 12.7 70.1 C11 70.1 9.7 68.8 9.7 67.2 z M12.4 64.8 C12.4 66.3 11.6 67.6 13.2 67.6 C18.7 67.8 23 67.8 26 67.5 C29.5 67.2 42.9 64.4 47.8 63 C48.6 50.3 51.8 32.6 49 22.8 C47.5 17.5 45.9 12 43.1 9.6 C38.9 5.9 33.4 2.2 27.6 0.5 C22.2 -1.1 13.1 -0.4 10.6 1.2 C6.9 3.6 2.7 9.2 3.3 18.7 C3.7 24.5 14.2 43.6 21.4 55.6 C15.3 57.3 12.2 59 12.4 64.8 z" opacity="0.15" id="t" /></g></g><g transform="translate(101.5, 74.79997) translate(25, 82)" id="u"><path d="M75.6 28.2 C72 20 73.4 11 71.2 5.7 C68.7 -0.3 56.9 0.4 42.1 0.4 C27.3 0.4 15.4 -0.2 13 5.7 C10.8 11 12.2 20 8.6 28.2 C4.8 36.7 7 39.4 6.3 52.6 C5.3 70.2 10.4 92.1 16.5 111.3 C18.2 116.8 22.2 118.4 25.8 119.2 C32.4 120.6 38.3 121 42.1 120.9 C46 121 51.9 120.6 58.4 119.2 C62 118.4 66 116.8 67.7 111.3 C72.7 95.6 77 78.1 77.8 62.6 C78 59.2 79.3 36.7 75.6 28.2 z" id="v" fill="#D8C6BA" /><path d="M75.6 28.2 C79.3 36.7 78 59.2 77.8 62.6 C77 78.1 72.7 95.6 67.7 111.3 C66 116.8 62 118.4 58.4 119.2 C51.9 120.6 46 121 42.1 120.9 L42.1 120.8 L42.1 120.9 C38.3 121 32.4 120.6 25.8 119.2 C22.2 118.4 18.2 116.8 16.5 111.3 C10.4 92.1 5.3 70.2 6.3 52.6 C7 39.4 4.8 36.7 8.6 28.2 C12.2 20 10.8 11 13 5.7 C15.4 -0.2 27.3 0.4 42.1 0.4 C56.9 0.4 68.7 -0.3 71.2 5.7 C73.4 11 72 20 75.6 28.2 z M74.1 27.9 C70.7 20 72 11.3 69.9 6.2 C67.5 0.4 56.2 1.1 42.1 1.1 C28 1.1 16.6 0.5 14.3 6.2 C12.2 11.3 13.5 20 10.1 27.9 C6.5 36.1 8.6 38.7 7.9 51.4 C6.9 68.4 11.8 89.6 17.6 108.1 C19.3 113.4 23.1 114.9 26.5 115.7 C32.8 117.1 38.5 117.5 42.1 117.4 C45.8 117.5 51.5 117.1 57.7 115.7 C61.1 114.9 64.9 113.4 66.6 108.1 C71.4 92.9 75.5 76.1 76.2 61.1 C76.4 57.8 77.7 36.1 74.1 27.9 z" opacity="0.15" id="w" /></g><g transform="translate(128.8984, 177.67) scale(0.8940757, 1.011249) translate(-124.1, -168.3999) translate(95.5, 75.09996) translate(28, 92)" id="x"><path d="M8.3 7.6 C4.2 18.1 8.4 13.1 8.6 22.6 C16.4 36.1 36.9 54 44.4 54 C53 54 74.8 37.2 80.4 23.7 C82.6 18.6 83.5 14.1 82.6 9.9 C82.2 8.1 81 5.7 80.4 4.5 C78.9 1.8 80.1 13.2 69.5 20.9 C64.6 24.4 55.5 28.5 45.1 28.5 C33.2 28.5 25.6 23.5 19.9 18.8 C10.3 11 10.4 1.3 8.3 7.6 z" id="y" fill="#7B4C3A" /><path d="M7.8 8.9 C0.6 21.8 2.6 26.2 3.5 32.6 C4.5 39 4.5 43.6 6.4 48.3 C8.3 53 8.7 55.4 10.3 60.5 C11.8 65.5 13.8 72.5 14.6 77.4 C15 80.1 14.8 82.7 15.2 84.6 C15.6 86.2 16.6 87 16.1 88.2 C15.1 90.8 11.1 91.5 9 93.4 C6.9 95.3 5.9 99.5 6.6 100.7 C12.5 104.7 26.5 101 31.4 100 C31.6 99.9 32.6 93.5 31.4 92 C30.1 90.4 32.3 91 32.8 87.1 C34 83.8 34.1 64.2 35.1 59.4 C36.1 54.6 35.4 49 33.3 47.7 C28.2 44.5 27.3 43.8 23.7 38.6 C20.7 34.4 26.5 32.9 23.7 30.7 C21.5 29 14.5 26.9 12.6 24.4 C10.7 21.9 8.4 15.6 7.8 8.9 z" id="z" fill="#FAF4E8" /><path d="M8.9 91.7 C6.8 94.1 5.8 99.5 6.5 101.1 C12.4 106.2 26.4 101.5 31.3 100.2 C31.5 100 33.4 93.6 32.1 91.7 C31.8 91.3 31.8 90.8 31.9 90.3 C27.9 88 21.7 86.8 15.8 87.1 C14 88.9 10.5 89.8 8.9 91.7 z" id="a1" fill="#7B4C3A" /><path d="M33.9 77.1 C34 67.9 35.7 56.1 36.4 52.9 C37.4 48.1 35.6 48.4 33.5 47.1 C28.4 43.9 27.7 43.5 24.1 38.3 C23.4 37.3 23.1 35.7 23.1 34.9 C20.6 37.5 20.9 47.2 23.7 51 C26 54.2 28.7 52.8 30.7 58.6 C31.9 62.1 32.3 64.2 32.3 66.7 C32.4 71.1 32.7 74.2 33.9 77.1 z" id="b1" fill="#7B4C3A" /><path d="M82.3 8.9 C91.2 21.5 86.6 25.8 86.6 32.6 C86.6 38.9 83.4 44.1 81.8 49.6 C80.2 55.1 79.8 56.9 78.2 62 C77 66 76.1 74.9 75.1 79 C73.6 85.3 72.6 84.8 73.9 87.9 C74.9 90.5 79.1 91.3 81.2 93.2 C83.3 95.1 81.9 98.3 81.2 99.5 C75.3 103.5 64.8 100.5 59.9 99.5 C59.7 99.4 59.1 96 59.1 93.2 C59.1 90.7 56.7 90.6 56.4 86.1 C56.1 83 55.8 57.3 54.8 52.4 C53.8 47.5 54.8 48.8 56.8 47.6 C61.9 44.4 62.8 43.7 66.4 38.5 C69.4 34.3 63.6 32.8 66.4 30.6 C68.6 28.9 75.6 26.8 77.5 24.3 C79.3 21.8 81.6 15.6 82.3 8.9 z" id="c1" fill="#FAF4E8" /><path d="M80.1 90.7 C82.2 93.1 83.2 98.5 82.5 100.1 C76.6 105.2 62.6 100.5 57.7 99.2 C57.5 99 55.6 92.6 56.9 90.7 C57.2 90.3 57 89.9 56.9 89.4 C60.9 87.1 67.3 85.8 73.2 86.1 C75 87.9 78.5 88.8 80.1 90.7 z" id="d1" fill="#7B4C3A" /><path d="M56.1 77.1 C56 67.9 54.3 56.1 53.6 52.9 C52.6 48.1 54.4 48.5 56.4 47.3 C61.5 44.1 62.1 43.9 65.7 38.8 C66.4 37.8 66.8 35.5 66.7 34.7 C69.2 37.3 68.9 47.4 66.1 51.1 C63.8 54.3 61.1 52.9 59.1 58.7 C57.9 62.2 57.5 64.3 57.5 66.8 C57.6 71.1 57.3 74.2 56.1 77.1 z" id="e1" fill="#7B4C3A" /><path d="M44.4 54 C42.5 54 39.8 52.9 36.7 51 C36.7 51.5 36.6 52.2 36.4 52.9 C35.9 55.3 34.8 62.4 34.2 69.7 C34.1 71.9 34 74.1 33.9 76.3 C33.9 76.6 33.9 76.8 33.9 77.1 C33.6 81.7 33.3 85.7 32.8 87 C32.6 88.7 32 89.6 31.6 90.1 C31.7 90.2 31.8 90.2 31.9 90.3 C31.8 90.8 31.8 91.3 32.1 91.7 C33.4 93.6 31.5 100 31.3 100.2 C26.4 101.5 12.4 106.2 6.5 101.1 C5.8 99.5 6.8 94.1 8.9 91.7 C10.5 89.8 14 88.9 15.8 87.1 C15.9 87.1 16.1 87.1 16.2 87.1 C16 86.3 15.5 85.6 15.2 84.5 C14.8 82.7 15 80 14.6 77.3 C13.9 72.4 11.8 65.4 10.3 60.4 C8.7 55.3 8.3 52.9 6.4 48.2 C4.5 43.5 4.5 39 3.5 32.6 C2.6 26.2 0.6 21.8 7.8 8.9 C8 8.5 8.1 8.1 8.3 7.6 C10.4 1.3 10.3 11 19.9 18.8 C25.6 23.5 33.2 28.5 45.1 28.5 C55.5 28.5 64.6 24.4 69.5 20.9 C80.1 13.2 78.9 1.8 80.4 4.5 C81 5.5 81.9 7.4 82.4 9.1 C91.1 21.6 86.6 25.9 86.6 32.6 C86.6 38.9 83.4 44.1 81.8 49.6 C80.2 55.1 79.8 56.9 78.2 62 C77 66 76.1 74.9 75.1 79 C74 83.8 73.1 84.7 73.3 86.2 C75.1 87.9 78.5 88.8 80 90.6 C80.8 91.5 81.4 92.8 81.9 94.2 C82.1 94.5 82.1 94.9 82.2 95.2 C82.7 97.2 82.8 99.1 82.4 99.9 C76.5 105 62.5 100.3 57.6 99 C57.4 98.8 55.5 92.4 56.8 90.5 C57.1 90.1 56.9 89.7 56.8 89.2 C56.7 88.3 56.4 87.4 56.3 86 C56.2 85 56.1 81.4 56 76.9 C56 76.7 56 76.5 56 76.3 C56 75.6 56 75 55.9 74.3 C55.6 65.6 54.1 55.6 53.5 52.7 C53.3 51.9 53.2 51.3 53.2 50.7 C49.8 52.9 46.6 54 44.4 54 z M55.8 47.1 C55.8 47.6 55.1 52.6 55.2 53.4 C55.9 56.4 56.8 65.3 56.9 74.1 C57 74 57.2 82.1 57.3 83.1 C57.4 84.4 57.9 87.1 57.8 87.1 C57.9 87.6 58.9 89.5 58.6 89.8 C57.4 91.6 58.4 96.9 58.6 97.1 C63.3 98.3 75 102.6 80.6 97.7 C81 96.9 81.1 95.5 80.6 93.7 C80.6 93.4 79.4 91.6 78.6 90.7 C77.1 89 74 87.9 72.2 86.3 C72.8 80.6 74 72.8 76.1 62.7 C77.2 57.7 77.9 52.6 80.2 48.3 C82.5 44 83.4 42.7 85.4 32.5 C87.4 22.3 83.1 14.6 82.8 12.5 C82.5 10.4 81 8.5 80.2 7.2 C78.8 4.6 78.6 15.5 68.5 22.8 C64 26.3 54.9 32.1 45 32.1 C33.7 32.1 26.9 26 21.5 21.6 C12.3 14.2 10 3.6 8 9.5 C7.9 9.8 4.6 15.7 3.9 22.9 C3.6 26.1 4.7 31.9 5 33.8 C6 39.9 6.7 43 7.8 47.1 C8.9 51.2 10.7 56.3 12.2 61.1 C15 70.1 17.5 78 16 83.5 C15.8 83.5 17.1 87.5 16.9 87.5 C15.2 89.2 12.6 89.8 11.1 91.6 C9.1 93.9 7.7 97.1 8.3 98.7 C13.9 103.5 25.7 99.6 30.3 98.4 C30.5 98.2 31.9 92.8 30.7 91 C30.4 90.6 31.4 89.1 31.3 89 C31.7 88.5 31.6 87 31.8 85.3 C32.3 84 32.3 80.6 32.6 76.2 C32.7 76.4 33.6 55.5 34.3 52.4 C34.5 51.7 34.3 46.8 34.3 46.3 C37.3 48.1 38.2 52.4 44.4 52.4 C50.6 52.4 52.4 48.9 55.8 47.1 z" opacity="0.15" id="f1" /></g></g><g transform="translate(168.5, 181.5) scale(0.8763285) translate(-168.5, -181.5)" id="g1"><g transform="translate(85.8, 80.99997) translate(38, 0)" id="h1"><g id="i1"><path d="M67 2.2 C73.4 3.6 81.6 6.5 84.5 10.5 C87.4 14.5 90.2 22.1 89.1 36.2 C88 50.3 87.7 63.3 84.9 70.8 C82.1 78.3 75 87 64.4 90.8 C57.6 93.3 51.2 94.5 45.2 94.6 C44.9 94.6 44.8 94.6 44.7 94.6 C38.7 94.5 32.3 93.2 25.5 90.8 C15 87 7.8 78.2 5 70.7 C2.2 63.2 2 50.4 0.9 36.3 C-0.2 22.2 2.6 14.7 5.5 10.6 C8.4 6.5 16.6 3.6 23 2.3 C27.2 1.4 34.4 0.8 44.7 0.5 C55.5 0.7 62.8 1.3 67 2.2 z" id="j1" fill="#7B4C3A" /><path d="M72.4 85.7 C70 87.7 67.2 89.4 63.9 90.6 C57.1 93.1 50.7 94.3 44.7 94.4 C44.6 94.4 44.5 94.4 44.5 94.4 C44.4 94.4 44.3 94.4 44.3 94.4 C38.3 94.3 31.9 93 25.1 90.6 C21.8 89.4 19.1 87.8 16.7 85.9 C13.9 74 13 66.5 13.9 63.2 C15.3 57.8 17.2 56.8 11.8 50.9 C6.4 45 12 38 19.6 33.1 C24.6 29.8 27.9 28.7 29.3 29.6 C26.3 28.2 24.3 28.9 22.8 29.2 C20.5 29.7 22.5 24.9 27.2 23.7 C31.9 22.5 36 23.2 38.1 25.2 C40.2 27.2 41.4 28.8 43.6 28.7 C43.7 28.7 43.9 28.7 44 28.7 C43.7 28.7 43.9 28.7 44.5 28.7 C45.1 28.7 45.3 28.7 45 28.7 C45.1 28.7 45.2 28.7 45.4 28.7 C47.6 28.8 48.9 27.4 51.1 25.4 C53.2 23.4 57.4 22 61.9 23.7 C66.4 25.4 68.8 30 66.5 29.5 C65 29.2 62.8 28.1 59.8 29.5 C61.2 28.6 64.5 29.7 69.5 33 C77 38 82.7 45.1 77.3 51 C71.8 56.9 73.7 57.8 75.2 63.3 C75.9 66.4 75 73.9 72.4 85.7 z" id="k1" fill="#342520" /><path d="M56.9 1 C57.3 1.3 53.2 1.7 52.8 7 C52.6 8.7 55.1 17.3 55.5 19.4 C56.7 24.8 55.9 24.4 54.6 27.2 C50.2 36.4 49 41.7 51.9 46.6 C53.8 49.8 57.2 53.4 62 57.4 C64.9 60.2 66.8 62.7 67.6 64.8 C69.5 69.9 72.6 79 67.6 86.6 C62.6 94.2 58.2 102.4 44.8 102.4 C31.4 102.4 23.8 94.2 20.3 84.8 C16.8 75.4 19 72.6 21.7 67.1 C23.4 63.6 24.8 60.8 28.6 57.5 C32.4 54.2 35.9 50 37.8 46.7 C40.6 41.8 39.4 36.5 35.1 27.3 C33.7 24.5 33 24.9 34.2 19.5 C34.8 16.9 37 12.2 37 7.1 C37 2 32.6 1.2 32.9 1 C33.8 0.9 37.8 0.5 44.8 0.5 C51.8 0.5 55.9 0.9 56.9 1 z" id="l1" fill="#FAF4E8" /><path d="M67 2.2 C73.4 3.6 81.6 6.5 84.5 10.5 C87.4 14.5 90.2 22.1 89.1 36.2 C88 50.3 87.7 63.3 84.9 70.8 C82.1 78.3 75 87 64.4 90.8 C57.6 93.3 51.2 94.5 45.2 94.6 C44.9 94.6 44.8 94.6 44.7 94.6 C38.7 94.5 32.3 93.2 25.5 90.8 C15 87 7.8 78.2 5 70.7 C2.2 63.2 2 50.4 0.9 36.3 C-0.2 22.2 2.6 14.7 5.5 10.6 C8.4 6.5 16.6 3.6 23 2.3 C27.2 1.4 34.4 0.8 44.7 0.5 C55.5 0.7 62.8 1.3 67 2.2 z M66.4 2.4 C62.3 1.5 55.2 0.9 44.7 0.7 C34.7 1 27.7 1.6 23.6 2.5 C17.4 3.8 9.4 6.6 6.6 10.6 C3.8 14.6 1 21.9 2.1 35.6 C3.2 49.3 3.4 61.8 6.1 69.1 C8.8 76.4 15.8 85 26 88.7 C32.6 91 38.8 92.3 44.7 92.4 C44.8 92.4 44.9 92.4 45.2 92.4 C51 92.3 57.3 91.1 63.9 88.7 C74.2 85 81.1 76.5 83.9 69.2 C86.7 61.9 86.9 49.2 88 35.5 C89.1 21.8 86.3 14.4 83.5 10.5 C80.7 6.6 72.6 3.8 66.4 2.4 z" fill-opacity="0.3" id="m1" /></g></g><g transform="translate(91.7, 81.49997) translate(0, 10)" id="n1"><path d="M34.2 17.4 C32.8 24.5 33.1 32 35.2 39 C35.9 41.5 36.9 44 37.3 46.6 C38.1 52.1 38.1 63 36.3 67.9 C34.1 73.8 24 75.8 20.3 72.4 C15.9 68.4 14.1 57.3 11 52.3 C6.8 45.5 2.5 38.6 1.2 30.7 C0.3 25.3 1 19.3 4.6 15.2 C7.8 11.5 12.7 9.8 17.4 8.3 C20.3 7.4 37.8 -1 39.6 0.8 C40.6 1.7 34.6 15.3 34.2 17.2 C34.2 17.3 34.2 17.4 34.2 17.4 z" id="o1" fill="#342520" /><path d="M34.2 17.4 C32.8 24.5 33.1 32 35.2 39 C35.9 41.5 36.9 44 37.3 46.6 C38.1 52.1 38.1 63 36.3 67.9 C34.1 73.8 24 75.8 20.3 72.4 C15.9 68.4 14.1 57.3 11 52.3 C6.8 45.5 2.5 38.6 1.2 30.7 C0.3 25.3 1 19.3 4.6 15.2 C7.8 11.5 12.7 9.8 17.4 8.3 C20.3 7.4 37.8 -1 39.6 0.8 C40.6 1.7 34.6 15.3 34.2 17.2 C34.2 17.3 34.2 17.4 34.2 17.4 z M33.1 36.9 C31.3 30.5 31 23.6 32.2 17 C32.5 15.3 37.7 2.9 36.8 2 C35.3 0.4 20.3 8 17.8 8.8 C13.8 10.2 9.6 11.7 6.8 15.1 C3.7 18.8 3.1 24.3 3.9 29.2 C5 36.5 8.7 42.8 12.3 49 C15 53.6 16.5 63.7 20.3 67.3 C23.5 70.4 32.1 68.6 34 63.2 C35.5 58.7 35.5 48.8 34.9 43.8 C34.5 41.4 33.7 39.1 33.1 36.9 z" opacity="0.15" id="p1" /></g><g transform="translate(111.4, 80.49997) translate(114, 47.5) scale(-1, 1) translate(-114, -47.5) translate(94, 10)" id="q1"><path d="M34 17.4 C32.6 24.5 32.9 32 35 39 C35.7 41.5 36.7 44 37.1 46.6 C37.9 52.1 37.9 63 36.1 67.9 C33.9 73.8 23.8 75.8 20.1 72.4 C15.7 68.4 13.9 57.3 10.8 52.3 C6.6 45.5 2.3 38.6 1 30.7 C0.1 25.3 0.8 19.3 4.4 15.2 C7.6 11.5 12.5 9.8 17.2 8.3 C20.1 7.4 37.6 -1 39.4 0.8 C40.4 1.7 34.4 15.3 34 17.2 C34 17.3 34 17.4 34 17.4 z" id="r1" fill="#342520" /><path d="M34 17.4 C32.6 24.5 32.9 32 35 39 C35.7 41.5 36.7 44 37.1 46.6 C37.9 52.1 37.9 63 36.1 67.9 C33.9 73.8 23.8 75.8 20.1 72.4 C15.7 68.4 13.9 57.3 10.8 52.3 C6.6 45.5 2.3 38.6 1 30.7 C0.1 25.3 0.8 19.3 4.4 15.2 C7.6 11.5 12.5 9.8 17.2 8.3 C20.1 7.4 37.6 -1 39.4 0.8 C40.4 1.7 34.4 15.3 34 17.2 C34 17.3 34 17.4 34 17.4 z M32.8 17.1 C32.8 17.1 32.8 17 32.8 16.9 C33.2 15.2 38.6 2.8 37.7 1.9 C36.1 0.3 20.1 7.9 17.4 8.7 C13.1 10.1 8.6 11.6 5.7 15 C2.4 18.7 1.8 24.2 2.6 29.1 C3.8 36.3 7.7 42.6 11.5 48.8 C14.3 53.4 16 63.5 20 67.1 C23.4 70.2 32.6 68.4 34.6 63 C36.2 58.5 36.2 48.6 35.5 43.6 C35.1 41.2 34.2 38.9 33.6 36.7 C31.8 30.5 31.5 23.6 32.8 17.1 z" opacity="0.15" id="s1" /></g><g id="t1"><g transform="translate(85.8, 80.59998) translate(53, 43)" id="u1"><g transform="translate(0, 9)" id="v1"><path d="M29.8 1 C33.9 0.7 37.3 1 40 1.8 C44.1 3.1 47.1 4.3 48.6 6 C50.1 7.7 52.5 11.7 53.9 15 C55.3 18.4 56 20.1 56.1 22.7 C56.2 25.3 55.9 29.5 57.7 34.6 C59.6 39.7 60 45.1 56.1 49.2 C52.2 53.3 52.5 53.8 48.6 53.6 C44.7 53.4 41.7 51.5 40 48.5 C38.3 45.5 35.1 41.9 31.5 41.5 C31.1 41.5 30.8 41.4 30.5 41.4 C30.4 41.4 30.3 41.5 30.1 41.5 L30.1 41.4 C30 41.4 29.9 41.4 29.8 41.4 C29.7 41.4 29.6 41.4 29.5 41.4 L29.5 41.5 C29.3 41.5 29.2 41.4 29.1 41.4 C28.8 41.4 28.5 41.5 28.1 41.5 C24.5 41.9 21.3 45.5 19.6 48.5 C17.9 51.5 14.9 53.4 11 53.6 C7.1 53.8 7.4 53.3 3.5 49.2 C-0.4 45.1 0 39.8 1.9 34.7 C3.8 29.6 3.5 25.4 3.5 22.8 C3.5 20.2 4.4 18.5 5.7 15.1 C7 11.7 9.6 7.7 11 6 C12.4 4.3 15.4 3.1 19.6 1.8 C22.3 1 25.7 0.7 29.8 1 z" id="w1" fill="#FAF4E8" /><path d="M43.8 52.4 C42.2 51.5 40.9 50.2 40 48.6 C38.3 45.6 35.1 42 31.5 41.6 C31.1 41.6 30.8 41.5 30.5 41.5 C30.4 41.5 30.3 41.6 30.1 41.6 L30.1 41.5 C30 41.5 29.9 41.5 29.8 41.5 C29.7 41.5 29.6 41.5 29.5 41.5 L29.5 41.6 C29.3 41.6 29.2 41.5 29.1 41.5 C28.8 41.5 28.5 41.6 28.1 41.6 C24.5 42 21.3 45.6 19.6 48.6 C19 49.7 18.2 50.7 17.2 51.4 C18.5 46.6 22 41.2 22 36.3 C22 28.9 16 20.6 17.8 15.3 C19.6 10 26.6 9.5 30.4 9.5 C34.2 9.5 38.9 9.5 41.2 14 C43.5 18.5 38.1 27.5 38.3 36.3 C38.3 42.2 42.8 47.6 43.8 52.4 z" id="x1" fill="#D8C6BA" /><path d="M19.7 48.4 C24.1 50.1 26.4 50.2 29.5 50.2 C36 50.2 39.7 48.2 39.7 48.2 C39.7 48.2 37.2 40.5 29.3 40.6 C21.5 40.6 19.7 48.4 19.7 48.4 z" id="y1" fill="#FAF4E7" /><path d="M29.8 1 C33.9 0.7 37.3 1 40 1.8 C44.1 3.1 47.1 4.3 48.6 6 C50.1 7.7 52.5 11.7 53.9 15 C55.3 18.4 56 20.1 56.1 22.7 C56.2 25.3 55.9 29.5 57.7 34.6 C59.6 39.7 60 45.1 56.1 49.2 C52.2 53.3 52.5 53.8 48.6 53.6 C44.7 53.4 41.7 51.5 40 48.5 C37.3 49.2 35.1 50.3 29.8 50.3 C24.5 50.3 22.2 49.5 19.6 48.5 C17.4 51.8 14.9 53.4 11 53.6 C7.1 53.8 7.4 53.3 3.5 49.2 C-0.4 45.1 0 39.8 1.9 34.7 C3.8 29.6 3.5 25.4 3.5 22.8 C3.5 20.2 4.4 18.5 5.7 15.1 C7 11.7 9.6 7.7 11 6 C12.4 4.3 15.4 3.1 19.6 1.8 C22.3 1 25.7 0.7 29.8 1 z M29.8 1 C26 0.7 22.9 1 20.4 1.7 C16.5 2.9 13.8 4 12.5 5.6 C11.2 7.2 8.8 10.9 7.6 14 C6.4 17.1 5.6 18.7 5.6 21.1 C5.6 23.5 5.9 27.4 4.1 32.1 C2.3 36.8 2 41.7 5.6 45.5 C9.2 49.3 8.9 49.7 12.5 49.6 C16.1 49.5 18.9 47.7 20.4 44.9 C21.9 42.1 20.4 48.3 29 48.3 C39.2 48.3 37.6 42.2 39.2 44.9 C40.8 47.7 43.5 49.4 47.1 49.6 C50.7 49.8 50.4 49.3 54 45.5 C57.6 41.7 57.2 36.7 55.5 32 C53.8 27.3 54.1 23.4 54 21 C53.9 18.6 53.3 17 52 13.9 C50.7 10.9 48.5 7.2 47.1 5.6 C45.8 4.1 43 3 39.2 1.8 C36.7 1 33.6 0.8 29.8 1 z" fill-opacity="0.4" id="z1" /></g></g><g transform="translate(168.5, 176.6) scale(1) translate(-168.5, -171.6) translate(95.4, 71.49998) translate(47, 87)" id="a2"><g id="b2"><path d="M3.4 5.4 C4.9 4.3 6.4 6.3 6.5 7.5 C6.6 8.7 8.3 11.5 10.6 12.2 C12.9 12.9 15.9 13.7 19.3 12.8 C20.3 12.5 21.7 11.7 24.1 11.5 C24.2 11.5 24.4 10.8 24.5 9.9 C24.7 8.2 25.2 5.7 25.4 5.7 C25.7 5.7 25.7 8.3 26 10 C26.2 11 26.4 11.6 26.5 11.6 C28.5 11.8 29.8 12.5 31.4 12.8 C34.4 13.5 39.8 13.5 41.8 9.6 C43.8 5.7 43.8 4.1 45 4.1 C46.2 4.1 46.5 6.2 45 8 C43.5 9.8 41.3 12 38.9 13.1 C36.5 14.2 32.3 14 31.3 14 C30.3 14.1 28.6 15.3 25 15.3 C21.4 15.3 19.6 14 18.7 14 C17.8 14 16.8 14.3 13.9 13.8 C11 13.6 8.3 11.8 6 10 C3.7 8.2 1.9 6.5 3.4 5.4 z" id="c2" /><path d="M16.7 13.9 C17.2 14.9 17.8 15.6 18.4 16 C20.2 17.2 23 17.8 25 17.8 C27.2 17.8 30.6 17.2 32.7 15.9 C33.3 15.5 33.7 14.9 34 13.9 C30.1 13.3 27.2 13 25.4 13 C23.6 13 20.6 13.3 16.7 13.9 z" opacity="0.15" id="d2" /></g></g><g transform="translate(168.5, 150) scale(1.3) translate(-168.5, -155) translate(95.4, 67.89997) translate(61, 60)" id="e2"><path d="M3.4 29.3 C5.1 31.6 6.8 32.9 11.9 32.9 C17 32.9 20.1 30.4 20.6 27.9 C21.1 25.4 20.5 20.8 16.3 19.7 C12.1 18.6 7.1 18.8 5.4 20.8 C4.7 21.6 3.5 22.7 2.9 24.1 C2.1 26.1 2.5 28 3.4 29.3 z" id="f2" /><path d="M8.2 20.6 C5.8 21.6 4.3 23 6.5 22.4 C7.9 22 9.3 21.7 10.8 21.8 C11.6 21.9 13.3 22 14.7 22.3 C16.1 23.4 18 24 18.6 23.5 C19.2 23 18.6 21.2 16.3 20.5 C14 19.8 10.7 19.6 8.2 20.6 z" id="g2" fill="#FFF" /></g><g transform="translate(103.4, 88.79997) translate(37, 12)" id="h2"><g id="i2"><path d="M0.3 20.7 C0.7 19.4 4.5 19.3 9.6 21.2 C14 22.8 13.1 28.2 9.1 28.8 C3.4 29.5 -0.8 24.4 0.3 20.7 z" id="j2" fill="#D8D8D8" /><path d="M10 9.1 C13.3 8.1 19.3 8.3 22.1 10.3 C25.4 12.7 26.4 16.7 26.1 19.7 C25.4 27.1 22.5 30.1 17.7 32.6 C16.5 33.2 14 34.5 13.8 34.2 C13.6 33.9 20.5 29.3 16.7 23.6 C15.7 22.2 13.6 20.2 8.6 19.2 C4.2 18.3 2.3 18.6 1.4 16.6 C0.4 14.3 4.5 10.7 10 9.1 z" id="k2" fill="#342520" /><path d="M15.3 22.9 C15.1 26.9 10.9 29.6 7.2 28.5 C3.1 27.3 2 24.3 2.7 20.9 C6.1 20.1 15.2 22 15.3 22.9 z" id="l2" fill="#282421" /><path d="M23 18.8 C20.8 20.4 18.2 21.3 16.4 20.7 C14.5 20.1 14.3 17.8 13.7 15.7 C14.9 14.5 17.6 11.8 19.6 12.8 C21.5 13.7 22.8 16.9 23 18.8 z" id="m2" fill="#7B4C3A" /><path d="M19.7 0.5 C26.6 2.6 26.6 9.1 26.6 11.3 C22 6.5 15 4.3 8.4 4.6 C8.6 2.7 14.2 -1.2 19.7 0.5 z" id="n2" fill="#342520" /><path d="M13.2 24.5 L13.3 23.7 C13.4 23.3 13.1 22.8 12.7 22.7 C11.1 22.3 7.8 21.6 8.5 22.9 C8.7 23.3 10.5 23.9 11 24.3 C11.2 24.5 11.4 24.7 11.6 24.9 C12.2 25.4 13.1 25.2 13.2 24.5 z" id="o2" fill="#FFF" /></g><g id="p2"><path d="M0.3 20.7 C0.7 19.4 4.5 19.3 9.6 21.2 C14 22.8 13.1 28.2 9.1 28.8 C3.4 29.5 -0.8 24.4 0.3 20.7 z" id="q2" fill="#7B4C3A" /><path d="M10 9.1 C13.3 8.1 19.3 8.3 22.1 10.3 C25.4 12.7 26.4 16.7 26.1 19.7 C25.4 27.1 22.5 30.1 17.7 32.6 C16.5 33.2 14 34.5 13.8 34.2 C13.6 33.9 20.5 29.3 16.7 23.6 C15.7 22.2 13.6 20.2 8.6 19.2 C4.2 18.3 2.3 18.6 1.4 16.6 C0.4 14.3 4.5 10.7 10 9.1 z" id="r2" fill="#342520" /><path d="M15.3 22.9 C15.1 26.9 10.9 29.6 7.2 28.5 C3.1 27.3 2 24.3 2.7 20.9 C6.1 20.1 15.2 22 15.3 22.9 z" id="s2" fill="#282421" /><path d="M23 18.8 C20.8 20.4 18.2 21.3 16.4 20.7 C14.5 20.1 14.3 17.8 13.7 15.7 C14.9 14.5 17.6 11.8 19.6 12.8 C21.5 13.7 22.8 16.9 23 18.8 z" id="t2" fill="#7B4C3A" /><path d="M19.7 0.5 C26.6 2.6 26.6 9.1 26.6 11.3 C22 6.5 15 4.3 8.4 4.6 C8.6 2.7 14.2 -1.2 19.7 0.5 z" id="u2" fill="#342520" /><path d="M13.2 24.5 L13.3 23.7 C13.4 23.3 13.1 22.8 12.7 22.7 C11.1 22.3 7.8 21.6 8.5 22.9 C8.7 23.3 10.5 23.9 11 24.3 C11.2 24.5 11.4 24.7 11.6 24.9 C12.2 25.4 13.1 25.2 13.2 24.5 z" id="v2" fill="#FFF" /></g></g><g transform="translate(99.3, 88.79997) translate(67, 12)" id="w2"><g id="x2"><path d="M17 9.1 C13.7 8.1 7.7 8.3 4.9 10.3 C1.6 12.7 0.6 16.7 0.9 19.7 C1.6 27.1 4.5 30.1 9.3 32.6 C10.5 33.2 13 34.5 13.2 34.2 C13.4 33.9 6.5 29.3 10.3 23.6 C11.3 22.2 13.4 20.2 18.4 19.2 C22.8 18.3 24.7 18.6 25.6 16.6 C26.6 14.3 22.5 10.7 17 9.1 z" id="y2" fill="#342520" /><path d="M26.7 20.7 C26.3 19.4 22.5 19.3 17.4 21.2 C13 22.8 13.9 28.2 17.9 28.8 C23.6 29.5 27.8 24.4 26.7 20.7 z" id="z2" fill="#D8D8D8" /><path d="M11.7 22.9 C11.9 26.9 16.1 29.6 19.8 28.5 C23.9 27.3 25 24.3 24.3 20.9 C20.9 20.1 11.8 22 11.7 22.9 z" id="a3" fill="#282421" /><path d="M4 18.8 C6.2 20.4 8.8 21.3 10.6 20.7 C12.5 20.1 12.7 17.8 13.3 15.7 C12.1 14.5 9.4 11.8 7.4 12.8 C5.5 13.7 4.2 16.9 4 18.8 z" id="b3" fill="#7B4C3A" /><path d="M7.3 0.5 C0.4 2.6 0.4 9.1 0.4 11.3 C5 6.5 12 4.3 18.6 4.6 C18.4 2.7 12.8 -1.2 7.3 0.5 z" id="c3" fill="#342520" /><path d="M23.4 23.3 L23.4 22.5 C23.4 22 23.1 21.7 22.6 21.6 C21 21.5 17.6 21.4 18.6 22.5 C18.9 22.8 20.8 23.1 21.3 23.4 C21.6 23.5 21.8 23.7 22 23.9 C22.6 24.4 23.4 24 23.4 23.3 z" id="d3" fill="#FFF" /></g><g id="e3"><path d="M17 9.1 C13.7 8.1 7.7 8.3 4.9 10.3 C1.6 12.7 0.6 16.7 0.9 19.7 C1.6 27.1 4.5 30.1 9.3 32.6 C10.5 33.2 13 34.5 13.2 34.2 C13.4 33.9 6.5 29.3 10.3 23.6 C11.3 22.2 13.4 20.2 18.4 19.2 C22.8 18.3 24.7 18.6 25.6 16.6 C26.6 14.3 22.5 10.7 17 9.1 z" id="f3" fill="#342520" /><path d="M26.7 20.7 C26.3 19.4 22.5 19.3 17.4 21.2 C13 22.8 13.9 28.2 17.9 28.8 C23.6 29.5 27.8 24.4 26.7 20.7 z" id="g3" fill="#7B4C3A" /><path d="M11.7 22.9 C11.9 26.9 16.1 29.6 19.8 28.5 C23.9 27.3 25 24.3 24.3 20.9 C20.9 20.1 11.8 22 11.7 22.9 z" id="h3" fill="#282421" /><path d="M4 18.8 C6.2 20.4 8.8 21.3 10.6 20.7 C12.5 20.1 12.7 17.8 13.3 15.7 C12.1 14.5 9.4 11.8 7.4 12.8 C5.5 13.7 4.2 16.9 4 18.8 z" id="i3" fill="#7B4C3A" /><path d="M7.3 0.5 C0.4 2.6 0.4 9.1 0.4 11.3 C5 6.5 12 4.3 18.6 4.6 C18.4 2.7 12.8 -1.2 7.3 0.5 z" id="j3" fill="#342520" /><path d="M23.4 23.3 L23.4 22.5 C23.4 22 23.1 21.7 22.6 21.6 C21 21.5 17.6 21.4 18.6 22.5 C18.9 22.8 20.8 23.1 21.3 23.4 C21.6 23.5 21.8 23.7 22 23.9 C22.6 24.4 23.4 24 23.4 23.3 z" id="k3" fill="#FFF" /></g></g></g></g></g></g><defs><g transform="translate(17.09519, 0.800995) translate(-135.2952, -293.601)" id="l3" fill="#000"><path d="M118.2 302.7 C118.4 307.4 132.5 311.2 149.8 311.2 C167.1 311.2 181.2 307.4 181.4 302.7 C181.4 307.5 181.4 310.1 181.4 310.5 C181.4 315.3 167.3 319.1 149.8 319.1 C132.3 319.1 118.2 315.2 118.2 310.5 L118.2 302.7 L118.2 302.7 z" fill-opacity="0.4528" id="m3" fill="#593001" /><path d="M118.7 301.7 C118.9 306.4 133 310.2 150.3 310.2 C167.6 310.2 181.7 306.4 181.9 301.7 C181.9 306.5 181.9 309.1 181.9 309.5 C181.9 314.3 167.8 318.1 150.3 318.1 C132.8 318.1 118.7 314.2 118.7 309.5 L118.7 301.7 L118.7 301.7 z" id="n3" fill="#DA8113" /><linearGradient x1="46.0545" y1="-118.6926" x2="45.4656" y2="-118.6926" gradientUnits="userSpaceOnUse" gradientTransform="matrix(117.135, 0, 0, 28.4634, -5208.417, 3687.795)" id="o3"><stop offset="0%" stop-color="#D9952A" stop-opacity="1" /><stop offset="6.438854%" stop-color="#CA7519" stop-opacity="1" /><stop offset="30.54%" stop-color="#E3AD3A" stop-opacity="1" /><stop offset="51.05%" stop-color="#FFEC91" stop-opacity="1" /><stop offset="68.8%" stop-color="#E9BD44" stop-opacity="1" /><stop offset="86.24%" stop-color="#FFED6C" stop-opacity="1" /><stop offset="93.87%" stop-color="#F2D353" stop-opacity="1" /><stop offset="100%" stop-color="#F2B947" stop-opacity="1" /></linearGradient><path d="M118.2 301.6 C118.4 306.1 132.7 309.7 150.3 309.7 C167.9 309.7 182.2 306.1 182.4 301.6 C182.4 306.2 182.4 308.7 182.4 309 C182.4 313.5 168 317.2 150.3 317.2 C132.6 317.2 118.2 313.5 118.2 309 L118.2 301.6 L118.2 301.6 z" id="p3" style="fill:url(#o3)" /><linearGradient x1="45.4914" y1="-117.9547" x2="45.9407" y2="-117.5895" gradientUnits="userSpaceOnUse" gradientTransform="matrix(115.425, 0, 0, 29.925, -5125.077, 3826.124)" id="q3"><stop offset="0%" stop-color="#F4E072" stop-opacity="1" /><stop offset="100%" stop-color="#DB9427" stop-opacity="1" /></linearGradient><ellipse cx="150.3" cy="301.5" rx="31.6" ry="8.2" id="r3" style="fill:url(#q3)" /><linearGradient x1="45.4656" y1="-126.0065" x2="46.0545" y2="-126.0065" gradientUnits="userSpaceOnUse" gradientTransform="matrix(117.135, 0, 0, 18.6219, -5208.417, 2651.479)" id="s3"><stop offset="0%" stop-color="#D9952A" stop-opacity="1" /><stop offset="6.438854%" stop-color="#CA7519" stop-opacity="1" /><stop offset="30.54%" stop-color="#E3AD3A" stop-opacity="1" /><stop offset="51.05%" stop-color="#FFEC91" stop-opacity="1" /><stop offset="68.8%" stop-color="#E9BD44" stop-opacity="1" /><stop offset="86.24%" stop-color="#FFED6C" stop-opacity="1" /><stop offset="93.87%" stop-color="#F2D353" stop-opacity="1" /><stop offset="100%" stop-color="#F2B947" stop-opacity="1" /></linearGradient><path d="M119.2 299.9 C119 300.2 118.9 300.6 118.9 301 C118.9 305.5 132.9 309.2 150.3 309.2 C167.7 309.2 181.7 305.5 181.7 301 C181.7 300.6 181.6 300.3 181.4 299.9 C182 300.5 182.4 301.2 182.4 301.9 C182.4 306.4 168 310.1 150.3 310.1 C132.6 310.1 118.2 306.4 118.2 301.9 C118.2 301.3 118.6 300.6 119.2 299.9 z" id="t3" style="fill:url(#s3)" /><linearGradient x1="45.196" y1="-121.5895" x2="45.3746" y2="-120.6758" gradientUnits="userSpaceOnUse" gradientTransform="matrix(101.745, 0, 0, 23.94, -4458.332, 3199.41)" id="u3"><stop offset="0%" stop-color="#F8DD61" stop-opacity="1" /><stop offset="100%" stop-color="#EAA330" stop-opacity="1" /></linearGradient><ellipse cx="150.3" cy="300.8" rx="27.8" ry="6.6" id="v3" style="fill:url(#u3)" /><linearGradient x1="45.5694" y1="-134.267" x2="45.0221" y2="-134.267" gradientUnits="userSpaceOnUse" gradientTransform="matrix(101.745, 0, 0, 13.2525, -4458.332, 2077.223)" id="w3"><stop offset="0%" stop-color="#F4CA2F" stop-opacity="1" /><stop offset="51.38%" stop-color="#BF7737" stop-opacity="1" /><stop offset="100%" stop-color="#E4A929" stop-opacity="1" /></linearGradient><path d="M122.6 301.5 C122.5 301.3 122.4 301 122.4 300.8 C122.4 297.2 134.9 294.2 150.2 294.2 C165.5 294.2 178 297.1 178 300.8 C178 301 177.9 301.3 177.8 301.5 C176.3 298.2 164.5 295.6 150.1 295.6 C135.7 295.6 124.1 298.2 122.6 301.5 z" id="x3" style="fill:url(#w3)" /></g></defs><desc>JB7EBDBEEHB,2CZ7nofraKW+uubnIT3YUeHiCPfgk2peb0O5sx2fDaKjsCCT50KV1OsuKrVeTwqH9Vp8OtDCFYc8kwwM7UwV/i0eAbFnBZnaB02o+vRzS+f65S1gRSWSYBDve/FcDEfe</desc></svg>