<?xml version="1.0" encoding="utf-8"?><!DOCTYPE svg PUBLIC "-//W3C//DTD SVG 1.1//EN" "http://www.w3.org/Graphics/SVG/1.1/DTD/svg11.dtd"><svg x="0" y="0" width="340px" height="340px" viewBox="0, 0, 340, 340" preserveAspectRatio="xMidYMid" font-size="0" id="a" enable-background="new 0 0 340 340" xmlns="http://www.w3.org/2000/svg" xmlns:xlink="http://www.w3.org/1999/xlink" xmlns:xml="http://www.w3.org/XML/1998/namespace" version="1.1"><g id="b" fill="#000"><g id="c"><g transform="translate(0, 0) translate(0, 224)" id="d"><ellipse cx="168.6" cy="53.1" rx="57.8" ry="12.8" fill-opacity="0.25" id="e" /></g><g id="f"><g transform="translate(91.2, 76.59998) translate(24.5, 168.5) scale(-1, 1) translate(-24.5, -168.5) translate(0, 143)" id="g"><g id="h"><path d="M8.8 28.9 C11.9 29.7 12.9 31.3 15.9 30.5 C18.9 29.7 21.1 28.7 22.7 27.5 C23.5 26.9 24.4 26.3 26.1 24.5 C26.4 24.1 27.1 23.3 28 22 C28.1 22.8 28.2 23.3 28.2 23.7 C28.2 24.8 28 25.5 28 25.6 C28 25.8 31.3 21.4 32 16.6 C32.4 13.4 32.5 7.9 32.3 0 C35.8 3.2 38.2 5.9 39.3 7.9 C41 10.9 43.8 15.3 44.8 19.9 C45.4 23 45.8 25.8 45.8 28.4 C46.4 28.1 46.8 27.9 47 27.7 C47.2 27.5 47.5 27.1 48.1 26.4 C47.8 28.8 47.6 30.4 47.4 31.1 C46.5 35 45.5 36.2 44.8 37.2 C43.4 39.2 39.5 44.7 35.4 45.9 C32.7 46.7 28.6 47.1 23.3 47.1 L26.3 49.9 C16.6 48.9 10 46.7 6.6 43.5 C3.7 40.8 0.2 36.7 1.2 33 C2.2 28.9 5.7 28.1 8.8 28.9 z" id="i" fill="#C08A3F" /><path d="M33.7 23.1 C35.3 26 34.7 26.7 34.4 28.8 C36.7 27.6 38.1 25.7 39.1 24.7 C40.1 27.6 40.1 31.7 39.1 34.8 C39.6 34.4 40.8 34.5 41.9 33.5 C43 32.5 43.5 31.6 44 29.9 C45.9 31.4 45.1 35.3 45.1 35.7 C45.9 35.4 46.6 35.1 47.1 34.9 C46.6 35.8 46.2 36.4 45.8 36.9 C44.3 39 40.3 44.7 36 46 C33.1 46.8 29.8 47.6 24.2 47.6 L27.5 50.2 C17.4 49.1 9.5 46.9 5.9 43.5 C2.9 40.7 -0.8 36.4 0.2 32.6 C1.3 28.3 0.9 26.1 4.1 26.9 C7.3 27.7 10.2 29.5 14.7 29 C19.2 28.5 21 28.1 22.6 26.9 C23.4 26.3 24.4 25.7 26.1 23.8 C26.4 23.4 27.1 22.5 28.1 21.2 C28.2 22 28.3 22.6 28.3 22.9 C28.3 24.1 28.1 24.8 28.1 24.9 C28.1 24.9 29.4 24.9 30.1 23.8 C30.8 22.7 31.1 25.9 31.5 25.7 C32.3 25.1 33.3 23.4 33.7 23.1 z" id="j" fill="#F4DFA9" /><path d="M28.2 24.6 C28.2 24.7 28.2 24.8 28.2 24.9 C28.3 24.9 28.4 24.9 28.7 24.8 C29.7 23.4 31.6 20.1 32.1 16.6 C32.5 13.4 32.6 7.9 32.4 0 C35.9 3.2 38.3 5.9 39.4 7.9 C41.1 10.9 43.9 15.3 44.9 19.9 C45.5 23 45.9 25.8 45.9 28.4 C46.5 28.1 46.9 27.9 47.1 27.7 C47.3 27.5 47.6 27.1 48.2 26.4 C47.9 28.8 47.7 30.4 47.5 31.1 C47 33.1 46.5 34.4 46.1 35.4 C46.5 35.2 46.9 35.1 47.2 34.9 C46.7 35.8 46.3 36.4 45.9 36.9 C44.3 39 40.3 44.7 36 46 C33.1 46.8 29.8 47.6 24.2 47.6 L27.5 50.2 C17.4 49.1 9.5 46.9 5.9 43.5 C2.9 40.7 -0.8 36.4 0.2 32.6 C1.3 28.3 0.9 26.1 4.1 26.9 C7.3 27.7 10.2 29.5 14.7 29 C19.2 28.5 21 28.1 22.6 26.9 C23.4 26.3 24.4 25.7 26.1 23.8 C26.4 23.4 27.1 22.5 28.1 21.2 C28.2 22 28.3 22.6 28.3 22.9 C28.3 23.7 28.2 24.2 28.2 24.6 z M27.5 27.1 C27.6 24.9 27.6 23.6 27.5 23.1 C26.7 24.3 25.7 25.5 25.4 25.8 C24 27.5 21.4 29.2 17.7 29.6 C14 30 9.3 30.6 6.7 29.9 C4.1 29.2 3.7 30.4 2.8 34.3 C2 37.7 6.2 42.1 10.4 43.9 C14.3 45.5 14.3 47.1 22.6 48.1 L21.4 45.3 C26.2 46.4 32.5 45.5 34.9 44.8 C38.5 43.6 44.3 37.6 43.9 37.8 C44 37.5 46.7 36 45.4 36 C44.1 36 45.6 33.8 45.8 32.7 C46 32.1 46.6 31.3 46.8 29.1 C46.3 29.7 44.8 30 44.3 30.3 C44.3 28 44.4 23 43.9 20.2 C43 16 41.6 13.7 40.2 11 C39.3 9.2 36.2 4.9 33.3 2 C33.5 9.1 33.5 14.5 33.2 17.4 C33 18.8 32.2 21.6 30.7 23.8 C28.9 26.3 26.5 28 27.5 27.1 z" opacity="0.15" id="k" /></g></g><g transform="translate(126.2, 273.3) scale(1.557029) translate(-126.2, -273.3) translate(105.7, 117.2) translate(18, 125)" id="l"><g transform="translate(14.5, 17) scale(-1, 1) translate(-14.5, -17)" id="m"><path d="M10.9 1.8 C11.6 2 21.5 -3.4 26.2 6.5 C26.9 11.9 19.6 25 20.5 26 C23.5 28.8 27.3 28.1 27.6 28.6 C27.9 29.1 26.7 30.5 24.1 32.5 C10.3 32.5 3.3 32.5 2.9 32.5 C-3.5 27 2.2 4.4 10.9 1.8 z" id="n" fill="#C08A3F" /><path d="M21.7 23.2 C24.6 25.3 26.6 23.6 27.8 26.8 C29.1 29.9 26.4 30.9 25.7 32.5 C25 34.1 3.3 32.5 3 32.5 C2.8 32.5 3.2 29.3 4 25.1 C7.3 23.9 10.9 21.6 13.4 20.6 C14.6 20.1 14.8 18.3 18.3 18.5 C20.5 18.5 21.7 20.1 21.7 23.2 z" id="o" fill="#F4DFA9" /><path d="M21.6 22 C21.6 22.4 21.7 22.8 21.7 23.2 C24.6 25.3 26.6 23.6 27.8 26.8 C29.1 29.9 26.4 30.9 25.7 32.5 C25 34.1 3.3 32.5 3 32.5 L2.9 32.5 C-3.5 27 2.2 4.4 10.9 1.8 C11.6 2 21.5 -3.4 26.2 6.5 C26.7 10.2 23.5 17.4 21.6 22 z M20.4 23.6 C20.4 23.2 21.1 20.9 21.1 20.6 C22.8 16.4 25.8 9.7 25.3 6.3 C21 -2.8 11.8 2.1 11.2 2 C3.2 4.4 -2.1 25.3 3.8 30.4 L3.9 30.4 C4.2 30.4 24.1 31.3 24.9 30.4 C25.6 29.5 26.8 28.4 26.1 26.9 C24.9 23.8 23 25.6 20.4 23.6 z" opacity="0.15" id="p" /></g></g><g transform="translate(211.1, 273.2999) scale(1.557029) translate(-211.1, -273.2999) translate(101.6, 117.2) translate(96.5, 142) scale(-1, 1) translate(-96.5, -142) translate(81, 125)" id="q"><g transform="translate(15.5, 17) scale(-1, 1) translate(-15.5, -17)" id="r"><path d="M13 1.8 C13.7 2 23.6 -3.4 28.3 6.5 C29 11.9 21.6 25 22.6 26 C25.6 28.8 29.4 28.1 29.7 28.6 C30 29.1 28.8 30.5 26.2 32.5 C12.4 32.5 5.4 32.5 5 32.5 C-0.9 31.6 -3.3 5.3 13 1.8 z" id="s" fill="#C08A3F" /><path d="M23.7 23.2 C26.6 25.3 28.6 23.6 29.8 26.8 C31.1 29.9 28.4 30.9 27.7 32.5 C27 34.1 5.3 32.5 5 32.5 C4.8 32.5 5.2 29.3 6 25.1 C9.3 23.9 12.9 21.6 15.4 20.6 C16.6 20.1 16.8 18.3 20.3 18.5 C22.5 18.5 23.7 20.1 23.7 23.2 z" id="t" fill="#F4DFA9" /><path d="M23.7 23.2 C26.6 25.3 28.6 23.6 29.8 26.8 C31.1 29.9 28.4 30.9 27.7 32.5 C27 34.1 5.3 32.5 5 32.5 C-0.9 31.6 -3.3 5.3 13 1.8 C13.7 2 23.6 -3.4 28.3 6.5 C28.8 10.2 25.5 17.5 23.6 22.1 C23.7 22.4 23.7 22.8 23.7 23.2 z M21.6 23 C21.6 22.6 23.1 21 23.1 20.7 C24.8 16.5 27.9 9.6 27.4 6.2 C23 -3 13.7 2.5 13.1 2.4 C-2.1 5.6 0.2 29.6 5.7 30.4 C6 30.4 26 31.4 26.8 30.4 C27.6 29.4 29 28.5 28.4 26.4 C28.4 25.1 24.3 25 21.6 23 z" opacity="0.15" id="u" /></g></g><g transform="translate(95.60001, 79.79997) translate(31, 74)" id="v"><g opacity="0.15" transform="translate(1, 1)" id="w"><path d="M6.3 88.2 C2.7 77.8 -2.4 63.3 1.4 47.5 C3.9 37.3 7.3 29 16.1 19.9 C22.7 13.1 25.5 1 34.1 1 C37.9 1 45.4 0.5 48.9 2.1 C56.9 5.8 59.7 15.5 64.5 19.8 C71.2 25.8 76.5 33.3 80.1 46 C84.1 59.9 80.8 73.6 78.8 86.7 C76.8 99.8 65 113.7 62 118.1 C58.9 122.5 49.8 119.6 46.2 121.3 C42.6 123 40.1 121.2 36.3 120.4 C32.5 119.6 24.8 123 19.2 118.1 C13.6 113.3 10 99.1 6.3 88.2 z" stroke="#000000" stroke-width="2" opacity="0.15" id="x" /></g><path d="M7.3 88.2 C3.7 77.8 -1.4 63.3 2.4 47.5 C4.9 37.3 8.3 29 17.1 19.9 C23.7 13.1 26.5 1 35.1 1 C38.9 1 46.4 0.5 49.9 2.1 C57.9 5.8 60.7 15.5 65.5 19.8 C72.2 25.8 77.5 33.3 81.1 46 C85.1 59.9 81.8 73.6 79.8 86.7 C77.8 99.8 66 113.7 63 118.1 C59.9 122.5 50.8 119.6 47.2 121.3 C43.6 123 41.1 121.2 37.3 120.4 C33.5 119.6 25.8 123 20.2 118.1 C14.6 113.3 11 99.1 7.3 88.2 z" id="y" fill="#F4DFA9" /></g><g fill-rule="evenOdd" transform="translate(124.38, 174.04) scale(1.1, 0.8790867) translate(-128.4, -171.8) translate(101.6, 85.59997) translate(67, 148) scale(-1, 1) translate(-67, -148) translate(27, 86)" id="z"><g id="a1"><path d="M4.2 48.6 C1.9 35.9 3.3 31.3 7.6 21.8 C17.6 33.1 28.5 36.5 40.5 38.4 C50 37 61.7 33.9 72.4 21.8 C76.7 31.3 78.1 35.9 75.8 48.6 C71.9 70.1 71.8 67 68.8 80.9 C68.1 84 66.7 88.9 65.5 94.1 C64.1 100.2 51.8 95.1 52.8 79.4 C53.1 74.8 53.2 71 52.9 69 C52.1 62.5 47.9 60.6 39.8 56.8 C31.8 60.6 27.6 62.5 26.7 69 C26.4 71 26.5 74.8 26.8 79.4 C27.8 95.1 15.5 100.2 14.1 94.1 C12.9 88.9 11.5 84 10.8 80.9 C8.2 67.1 8 70.1 4.2 48.6 z" id="b1" fill="#FCF6CA" /><path d="M16.1 111.4 C16.7 107.8 16.1 103.2 15.3 98.5 C15 97 14.7 95.6 14.4 94.1 C14.4 94 14.4 94 14.4 93.9 C14.4 91.2 15 88.4 16 85.9 C16.2 85.5 16.7 85.3 17.1 85.5 C17.8 85.8 19.2 86.6 19.9 85.7 C20.7 84.8 21.6 79.4 22.2 76.1 C22.3 75.5 22.9 75.3 23.4 75.6 C24.3 76.2 26.4 76.8 26.9 78.2 C28.5 86.7 33.3 93.3 32.9 101.2 C32 100.2 31.4 99.1 30.4 98.2 C31.4 101.1 31.9 104.3 33 107.2 C31.8 107.2 30.3 106.3 29.3 104.3 C29.3 104.6 29.4 104.9 29.4 105.3 C30.5 108.9 31.7 111.2 31.1 115.1 C30.9 114.9 30.7 114.8 30.5 114.6 C30.9 118.6 31.2 121.2 31.1 121.4 C29.4 124.7 12.6 123.2 10.6 121.5 C10.9 117.7 11.2 114.5 16.1 111.4 z" id="c1" fill="#F0B756" /><path d="M50.6 104.4 C49.6 106.3 48.1 107.3 46.9 107.3 C48 104.5 48.5 101.2 49.5 98.3 C48.5 99.2 47.9 100.3 47 101.3 C46.6 93.4 51.4 86.8 53 78.4 C53.5 76.9 55.6 76.3 56.5 75.7 C57 75.4 57.6 75.7 57.7 76.2 C58.4 79.5 59.3 84.9 60 85.8 C60.7 86.7 62.2 85.9 62.8 85.6 C63.2 85.4 63.7 85.6 63.9 86 C64.9 88.6 65.4 91.3 65.5 94 C65.5 94.1 65.5 94.1 65.5 94.2 C65.2 95.7 64.9 97.1 64.6 98.6 C63.7 103.3 63.2 107.9 63.8 111.5 C68.7 114.6 69 117.8 69.2 121.9 C67.2 123.5 50.4 125 48.7 121.8 C48.6 121.5 48.9 118.9 49.3 115 C49.1 115.2 48.9 115.3 48.7 115.5 C48 111.6 49.3 109.3 50.4 105.7 C50.5 105.1 50.5 104.8 50.6 104.4 z" id="d1" fill="#F0B756" /><path d="M14.1 94.1 C12.9 88.9 11.5 84 10.8 80.9 C8.2 67.1 8 70.1 4.2 48.6 C1.9 35.9 3.3 31.3 7.6 21.8 C17.6 33.1 28.5 36.5 40.5 38.4 C50 37 61.7 33.9 72.4 21.8 C76.7 31.3 78.1 35.9 75.8 48.6 C71.9 70.1 71.8 67 68.8 80.9 C68.1 84 66.7 88.9 65.5 94.1 C65.2 95.7 64.9 97.1 64.6 98.6 C63.7 103.3 63.2 107.9 63.8 111.5 C68.7 114.6 69 117.8 69.2 121.9 C67.2 123.5 50.4 125 48.7 121.8 C48.6 121.5 48.9 118.9 49.3 115 C49.1 115.2 48.9 115.3 48.7 115.5 C48 111.6 49.3 109.3 50.4 105.7 C50.5 105.1 50.5 104.8 50.6 104.4 C49.6 106.3 48.1 107.3 46.9 107.3 C48 104.5 48.5 101.2 49.5 98.3 C48.5 99.2 47.9 100.3 47 101.3 C46.6 93.7 51 87.3 52.8 79.4 C53.1 74.8 53.2 71 52.9 69 C52.1 62.5 47.9 60.6 39.8 56.8 C31.8 60.6 27.6 62.5 26.7 69 C26.4 70.8 26.5 73.9 26.7 77.8 C26.8 77.9 26.8 78.1 26.9 78.2 C28.5 86.7 33.3 93.3 32.9 101.2 C32 100.2 31.4 99.1 30.4 98.2 C31.4 101.1 31.9 104.3 33 107.2 C31.8 107.2 30.3 106.3 29.3 104.3 C29.3 104.6 29.4 104.9 29.4 105.3 C30.5 108.9 31.7 111.2 31.1 115.1 C30.9 114.9 30.7 114.8 30.5 114.6 C30.9 118.6 31.2 121.2 31.1 121.4 C29.4 124.7 12.6 123.2 10.6 121.5 C10.9 117.7 11.2 114.5 16.1 111.4 C16.7 107.8 16.1 103.2 15.3 98.5 C15.1 97.4 14.9 96.4 14.7 95.4 C14.4 95 14.2 94.6 14.1 94.1 z M15.9 92.6 C16 93.1 16.2 93.5 16.5 93.8 C16.7 94.8 16.8 95.7 17 96.7 C17.8 101 17.6 109.1 17 112.5 C12.5 115.4 13.1 115.4 12.8 119 C14.7 120.6 27.9 121.5 29.5 118.4 C29.6 118.2 29.5 116.7 29.1 112.9 C29.3 113.1 30.3 113.2 30.5 113.4 C31 109.8 28.8 106.3 27.8 103 C27.8 102.6 29.1 102.4 29.1 102.2 C30.1 104 30.4 105.4 31.5 105.4 C30.4 102.7 30.1 99.2 29.1 96.5 C30.1 97.3 30.5 97.2 31.4 98.1 C31.8 90.8 27.8 87.5 26.3 79.7 C25.2 72.1 24.7 67.8 24.9 66.7 C25.7 60.7 33.1 57.4 40.5 53.9 C48.1 57.4 53.5 62.5 54.2 68.5 C54.5 70.4 54.2 76.8 53.9 81.1 C52.3 88.5 48.1 90.5 48.5 97.6 C49.3 96.6 50.2 97.3 51.1 96.5 C50.2 99.2 49.4 102.4 48.3 105 C49.5 105 50.7 103.3 51.6 101.6 C51.5 101.9 51.5 104.9 51.4 105.4 C50.4 108.8 48.9 109.5 49.5 113.1 C49.7 112.9 50.5 113.6 50.7 113.4 C50.3 117 50.2 119.6 50.3 119.9 C51.9 122.8 64.8 121.2 66.6 119.7 C66.5 115.9 66.6 115.5 62 112.6 C61.5 109.3 62.3 103.9 63.1 99.5 C63.4 98.1 64.3 93.5 64.5 92 C65.7 87.2 66.1 83.2 66.8 80.3 C69.6 67.4 69.6 70.3 73.3 50.3 C75.4 38.5 76.3 33 72.3 24.2 C62.3 35.4 49.3 39.5 40.5 40.8 C29.3 39.1 17.3 34.7 8 24.2 C4 33 4.6 38.5 6.7 50.3 C10.3 70.3 10.4 67.5 12.9 80.3 C13.5 83.2 14.8 87.8 15.9 92.6 z" opacity="0.15" id="e1" /><path d="M2.4 21.6 C3.5 17.3 6.2 13.6 8.9 9.2 C13.9 1.1 34.4 0.4 40 0.4 C45.6 0.4 66.1 1.1 71.1 9.2 C73.8 13.6 76.5 17.3 77.6 21.6 C80.2 28.1 80 35.8 76.9 42.1 C76.2 40.2 75.5 38.3 74.9 36.4 C74.7 36.7 74.5 37 74.3 37.4 C73.7 39.8 72.4 42 71.2 44.2 C69.9 46.6 68.6 49.2 68.7 51.9 C67.9 49.3 67.3 49.4 66.5 46.8 C64.5 54.7 60.5 57.5 57.6 64.1 C57 60.6 56.9 60.3 56.4 57.3 C56.1 57.6 55.9 57.8 55.6 58.1 C53.5 63.5 51.7 67.1 46.9 72.6 C47 71.1 46.7 69.5 46.4 68 C42.8 72.1 40.3 75.6 40.1 77.9 C39.8 75.8 37.6 72.6 34.5 68.8 C34.4 70 34.4 71.2 34.5 72.4 C29.7 66.9 26.8 63.4 24.6 58.1 C24.3 57.8 24 57.5 23.8 57.2 C23.2 60.5 22.9 62.8 22.3 66.3 C19.4 59.7 15.8 54.6 13.8 46.7 C13 49.3 12.4 49.2 11.6 51.8 C11.7 49.1 10.4 46.5 9.1 44.1 C7.9 41.9 6.6 39.7 6 37.3 C5.8 37 5.6 36.6 5.4 36.3 C4.7 38.2 4 40.1 3.4 42 C-0.1 35.8 -0.2 28.1 2.4 21.6 z" id="f1" fill="#F0B756" /><path d="M23.2 1.7 C30 0.2 37 0.4 40 0.4 C43 0.4 50 0.2 56.8 1.7 C62.7 4.6 60.2 19.3 59 23 C58.9 23.5 58.7 23.9 58.6 24.3 C57.3 32.5 53.1 40 52.4 39.8 C51.5 39.5 50.6 36.3 50.4 34 C50.5 38.8 46.3 46.6 45.8 46.5 C45.4 46.4 44.3 45.8 43.6 44.8 C43.3 45.9 43.1 46.8 42.8 47.7 C41.2 52.2 41.7 55.5 41.7 55.5 C41.7 55.5 38.9 54 37.2 47.7 C37 46.8 36.6 45.9 36.4 44.8 C35.6 45.7 34.5 46.4 34.2 46.5 C33.6 46.6 29.4 38.8 29.6 34 C29.4 36.3 28.5 39.6 27.6 39.8 C26.9 40 22.7 32.4 21.4 24.3 C21.3 23.9 21.1 23.5 21 23 C19.8 19.3 17.3 4.5 23.2 1.7 z" id="g1" fill="#D8D8D8" /><path d="M22.5 2.1 C22.7 1.9 23 1.8 23.2 1.7 C30 0.2 37 0.4 40 0.4 C43 0.4 50 0.2 56.8 1.7 C57 1.8 57.3 1.9 57.5 2.1 C63.3 3.3 68.8 5.5 71.1 9.2 C73.8 13.6 76.5 17.3 77.6 21.6 C80.2 28.1 80 35.8 76.9 42.1 C76.2 40.2 75.5 38.3 74.9 36.4 C74.7 36.7 74.5 37 74.3 37.4 C73.7 39.8 72.4 42 71.2 44.2 C69.9 46.6 68.6 49.2 68.7 51.9 C67.9 49.3 67.3 49.4 66.5 46.8 C64.5 54.7 60.5 57.5 57.6 64.1 C57 60.6 56.9 60.3 56.4 57.3 L55.6 58.1 C53.5 63.5 51.7 67.1 46.9 72.6 C47 71.1 46.7 69.5 46.4 68 C42.8 72.1 40.3 75.6 40.1 77.9 C39.8 75.8 37.6 72.6 34.5 68.8 C34.4 70 34.4 71.2 34.5 72.4 C29.7 66.9 26.8 63.4 24.6 58.1 C24.3 57.8 24 57.5 23.8 57.2 C23.2 60.5 22.9 62.8 22.3 66.3 C19.4 59.7 15.8 54.6 13.8 46.7 C13 49.3 12.4 49.2 11.6 51.8 C11.7 49.1 10.4 46.5 9.1 44.1 C7.9 41.9 6.6 39.7 6 37.3 C5.8 37 5.6 36.6 5.4 36.3 C4.7 38.2 4 40.1 3.4 42 C-0.1 35.8 -0.2 28.1 2.4 21.6 C3.5 17.3 6.2 13.6 8.9 9.2 C11.2 5.5 16.7 3.4 22.5 2.1 z M23.6 2.9 C18.1 4.1 12.9 6.1 10.7 9.6 C8.2 13.7 5 16.5 3.9 20.5 C1.5 26.7 -0.2 32.4 3.1 38.2 C3.7 36.4 5.9 34.1 6.6 32.3 C6.8 32.5 7.8 35.7 8 36 C8.6 38.3 9.6 39.8 10.7 41.8 C12 44.1 12 44.9 11.9 47.5 C12.6 45 13.5 44.9 14.3 42.5 C16.2 49.9 19 56 21.7 62.2 C22.3 58.9 22 55.1 22.6 52 C22.8 52.2 25.2 55.3 25.5 55.6 C27.6 60.6 28.7 63.4 33.2 68.6 C33.1 67.5 33.7 65.8 33.8 64.7 C36.7 68.3 39.8 72.2 40.1 74.2 C40.3 72 43.1 67.1 46.5 63.2 C46.8 64.7 48.3 67.2 48.2 68.6 C52.7 63.4 52.7 60.7 54.7 55.6 L57 53.1 C57.5 55.9 57.6 56.7 58.2 60 C60.9 53.8 64.5 50.6 66.4 43.2 C67.1 45.7 67.7 45.6 68.5 48.1 C68.4 45.5 68.6 43.8 69.9 41.6 C71 39.5 71.7 38.4 72.3 36.1 C72.4 35.7 74.6 32.1 74.8 31.8 C75.4 33.6 76.2 36.4 76.9 38.2 C79.8 32.3 77.7 25.3 75.3 19.2 C74.3 15.2 71.8 13.7 69.3 9.6 C67.1 6.1 61.9 4.1 56.4 2.9 C56.2 2.8 56 2.6 55.8 2.5 C49.4 1.1 42.7 1 39.9 1 C37.1 1 30.6 1.1 24.2 2.5 C24 2.6 23.8 2.8 23.6 2.9 z" opacity="0.15" id="h1" /></g></g></g><g transform="translate(168.6, 187.9) scale(0.8666664) translate(-168.6, -187.9)" id="i1"><g transform="translate(95.50001, 81.79996) translate(23, 22)" id="j1"><g id="k1"><path d="M8.2 28.4 C11 21.7 15.7 17.3 19.3 12.7 C22.9 8.1 31.7 5.6 37.3 4.5 C41.1 3.8 45.5 4.2 50.5 5.5 C52.6 4.5 55.6 4.2 59.5 4.5 C66.7 4.5 74.5 9 78.8 11.8 C83 14.6 91 25 93 28.4 C95 31.8 96.7 39.1 97.3 42.7 C97.9 46.3 97.3 55.3 94.7 60.3 C92.1 65.3 82.5 78 79.9 80.3 C76.4 83.4 71.5 86.4 67.9 88.5 C62.3 91.8 46 95 35.4 89.9 C31.5 88 25.1 85.8 20.9 82.2 C13.5 75.9 8.9 67.7 7 65.7 C4 62.7 1.8 55.5 2.5 50.3 C3.2 45.1 5.4 35.1 8.2 28.4 z" id="l1" fill="#F0B756" /><path d="M88.9 69.3 C87.1 71.9 85.2 74.6 83.6 76.7 C82.3 78.2 81.1 79.5 80.2 80.5 C79.9 80.8 79.6 81.2 79.2 81.6 C75.8 84.3 71.3 86.7 68.2 88.6 C62.6 91.8 46 95 35.4 89.9 C31.8 88.2 26.1 86.1 21.9 83 C21 82.2 20 81.4 19 80.5 C18.5 80 18 79.5 17.5 79 L14.9 76.1 C13 73.9 11.4 71.7 10.1 69.9 C9.3 68 8.6 65.7 8.1 63.2 C7.1 58 7.9 53.8 10.3 49.9 C11.7 47.6 14.6 45.6 18.9 43.8 C18.6 47.5 18.6 49.9 18.8 50.8 C20.2 56.9 23.9 61.2 30.3 59.2 C32.2 58.6 34.7 51 48.6 51 C62.5 51 62.5 57.9 68.7 59.7 C74.9 61.5 78.8 56.3 80.6 51.3 C82.4 46.3 80.5 43.1 80.1 42.6 C79.7 42.1 86.2 44 89.2 49 C92.2 54 92.5 57.7 90.4 64.5 C89.9 66.5 89.3 68.1 88.9 69.3 z" id="m1" fill="#FCF6CA" /><path d="M8.2 28.4 C11 21.7 15.7 17.3 19.3 12.7 C22.9 8.1 31.7 5.6 37.3 4.5 C41.1 3.8 45.5 4.2 50.5 5.5 C52.6 4.5 55.6 4.2 59.5 4.5 C66.7 4.5 74.5 9 78.8 11.8 C83 14.6 91 25 93 28.4 C95 31.8 96.7 39.1 97.3 42.7 C97.9 46.3 97.3 55.3 94.7 60.3 C92.1 65.3 82.5 78 79.9 80.3 C76.4 83.4 71.5 86.4 67.9 88.5 C62.3 91.8 46 95 35.4 89.9 C31.5 88 25.1 85.8 20.9 82.2 C13.5 75.9 8.9 67.7 7 65.7 C4 62.7 1.8 55.5 2.5 50.3 C3.2 45.1 5.4 35.1 8.2 28.4 z M10.1 28.4 C7.4 34.9 5.3 44.5 4.6 49.5 C3.9 54.5 6 61.4 8.9 64.3 C10.7 66.2 15.2 74.1 22.2 80.1 C26.2 83.6 32.3 85.8 36.1 87.5 C46.3 92.4 61.9 89.3 67.2 86.1 C70.6 84.1 75.3 81.2 78.7 78.2 C81.2 76 90.4 63.7 92.9 58.9 C95.4 54.1 96 45.4 95.4 42 C94.8 38.5 93.2 31.5 91.2 28.3 C89.2 25.1 81.6 15.1 77.6 12.4 C73.6 9.7 66.1 5.4 59.2 5.4 C55.5 5.1 52.6 5.5 50.6 6.4 C45.8 5.1 41.6 4.7 37.9 5.4 C32.5 6.4 24.1 8.8 20.7 13.3 C17.3 17.8 12.8 21.9 10.1 28.4 z" opacity="0.15" id="n1" /><path d="M32.7 10.5 C38.2 13.7 42.7 17.2 45.6 23.9 C48.5 30.6 47.2 33.2 49.4 33.2 C51.6 33.2 51.1 28.5 53.1 23.9 C55.1 19.3 60.7 14.2 66.5 10.5 C67.2 10 63.6 8.3 60.1 8.4 C56.9 8.6 52.2 10.5 50 10.5 C48 10.5 45 8.8 40.7 8.4 C34.9 7.9 29.5 8.7 32.7 10.5 z" id="o1" fill="#C08A3F" /></g></g><g transform="translate(95.50001, 81.79996) translate(21, 2)" id="p1"><g transform="translate(18.02073, 23.28844) scale(-1, 1) rotate(-6, 0, 0) translate(-18.02073, -23.28844) translate(2.520727, 1.788439)" id="q1"><path d="M1.7 25.8 C-1.9 23.8 -2.7 23.7 -1.4 20.5 C-0.1 17.3 2.4 17.8 5 15.3 C7.6 12.8 13.5 8.6 17.4 6.7 C21.3 4.8 23.7 2.5 25.7 4.7 C27.7 6.9 29.1 12.8 28 18.9 C26.9 25 23.5 30.4 23.1 33.3 C22.7 36.2 21.9 40.6 20.2 42.9 C19.7 43.6 18.2 45.3 17.3 45.8 C15.4 46.7 14 44.9 12.6 41.3 C12.3 40.4 10.5 34.3 8.6 32.4 C6.3 29.9 5.4 27.8 1.7 25.8 z" id="r1" fill="#C08A3F" /><path d="M1.7 25.8 C-1.9 23.8 -2.7 23.7 -1.4 20.5 C-0.1 17.3 2.4 17.8 5 15.3 C7.6 12.8 13.5 8.6 17.4 6.7 C21.3 4.8 23.7 2.5 25.7 4.7 C27.7 6.9 29.1 12.8 28 18.9 C26.9 25 23.5 30.4 23.1 33.3 C22.7 36.2 21.9 40.6 20.2 42.9 C19.7 43.6 18.2 45.3 17.3 45.8 C15.4 46.7 14 44.9 12.6 41.3 C12.3 40.4 10.5 34.3 8.6 32.4 C6.3 29.9 5.4 27.8 1.7 25.8 z M3.9 24.6 C7.2 26.4 8 28.3 10 30.5 C11.7 32.2 13.3 37.7 13.6 38.5 C14.8 41.7 16.1 43.4 17.8 42.5 C18.6 42.1 19.9 40.5 20.4 39.9 C21.9 37.8 22.6 33.9 23 31.3 C23.4 28.7 26.4 23.8 27.4 18.3 C28.4 12.8 27.1 7.5 25.4 5.5 C23.6 3.5 21.5 5.6 18 7.3 C14.5 9 9.3 12.8 6.9 15 C4.5 17.2 2.4 16.8 1.2 19.7 C0 22.6 0.7 22.8 3.9 24.6 z" opacity="0.15" id="s1" /><path d="M5.7 24.6 C3.7 23.6 2.3 23 3.3 20.4 C3.9 18.9 7.5 16.8 10.9 14.2 C13.3 12.3 16.2 10.3 18 9.3 C20.6 7.8 21.8 6.3 23.5 7.6 C25.1 8.9 26.5 14.5 25.7 19.2 C24.9 24 20 35.8 18.7 37.6 C17.4 39.4 16.1 42.4 14.5 38.2 C12.9 34 12.6 31.4 10.9 29.6 C9.2 27.8 7.7 25.6 5.7 24.6 z" id="t1" fill="#FCF6CA" /><path d="M8.2 26.4 C8.3 25.4 9.1 23.7 9.3 23.3 C9.6 22.7 12.3 21.1 14.6 19.7 C15.6 19 18.6 17.4 18.6 17.4 C20.2 16.5 20.1 19.9 18.6 22.6 C17.7 24.2 15.1 29.9 13.3 31.6 C12.7 32.2 12.2 31.1 11 29.5 C9.9 28.1 8.1 26.8 8.2 26.4 z" opacity="0.5" id="u1" fill="#C08A3F" /></g></g><g transform="translate(95.49998, 81.79996) translate(100.9, 24.5) scale(-1, 1) translate(-100.9, -24.5) translate(82.40002, 0)" id="v1"><g transform="translate(18.19189, 24.4854) scale(-1, 1) rotate(-7, 0, 0) translate(-18.19189, -24.4854) translate(2.691893, 2.485396)" id="w1"><path d="M5.4 26.9 C1.8 24.9 1 24.8 2.3 21.6 C3.6 18.4 6.1 18.9 8.7 16.4 C11.3 13.9 17.2 9.7 21.1 7.8 C25 5.9 27.4 3.6 29.4 5.8 C31.4 8 32.8 14 31.7 20.1 C30.7 26.2 27.1 31.6 26.8 34.5 C26.4 37.4 25.6 41.8 23.9 44.1 C23.4 44.8 21.9 46.5 21 47 C19.1 47.9 18.5 47.3 17.1 43.7 C16.8 42.8 17 42 16.7 41.2 C15.3 37.5 14.2 35.4 12.3 33.5 C9.9 31.1 9 29 5.4 26.9 z" id="x1" fill="#C08A3F" /><path d="M5.4 26.9 C1.8 24.9 1 24.8 2.3 21.6 C3.6 18.4 6.1 18.9 8.7 16.4 C11.3 13.9 17.2 9.7 21.1 7.8 C25 5.9 27.4 3.6 29.4 5.8 C31.4 8 32.8 14 31.7 20.1 C30.7 26.2 27.1 31.6 26.8 34.5 C26.4 37.4 25.6 41.8 23.9 44.1 C23.4 44.8 21.9 46.5 21 47 C19.1 47.9 18.5 47.3 17.1 43.7 C16.8 42.8 17 42 16.7 41.2 C15.3 37.5 14.2 35.4 12.3 33.5 C9.9 31.1 9 29 5.4 26.9 z M7.1 25.9 C10.4 27.8 11.2 29.8 13.4 32 C15.1 33.8 16.2 35.7 17.4 39.1 C17.7 39.8 17.5 40.6 17.8 41.4 C19.1 44.7 19.6 45.3 21.4 44.4 C22.2 43.9 23.6 42.4 24.1 41.7 C25.7 39.6 26.4 35.5 26.8 32.8 C27.1 30.1 30.4 25.1 31.3 19.5 C32.3 13.9 31 8.3 29.2 6.3 C27.4 4.3 25.2 6.4 21.6 8.1 C18 9.8 12.6 13.7 10.2 16 C7.8 18.3 5.5 17.8 4.3 20.8 C3.1 23.8 3.8 24.1 7.1 25.9 z" opacity="0.15" id="y1" /><path d="M9.4 25.7 C7.4 24.7 6 24.1 7 21.5 C7.6 20 11.2 17.9 14.6 15.3 C17 13.4 19.9 11.4 21.7 10.4 C24.3 8.9 25.5 7.4 27.2 8.7 C28.8 10 30.2 15.6 29.4 20.3 C28.6 25.1 23.7 36.9 22.4 38.7 C21.1 40.5 19.8 43.5 18.2 39.3 C16.6 35.1 16.3 32.5 14.6 30.7 C12.9 29 11.4 26.8 9.4 25.7 z" id="z1" fill="#FCF6CA" /><path d="M11.5 26.9 C11.6 25.9 12.8 24.9 13 24.5 C13.3 23.9 16 22.3 18.3 20.9 C19.3 20.2 22.3 18.6 22.3 18.6 C23.9 17.7 23.8 21.1 22.3 23.8 C21.4 25.4 18.8 31.1 17 32.8 C15.8 33.9 14.9 30.4 14.4 30.5 C13.3 28.9 11.4 27.8 11.5 26.9 z" opacity="0.5" id="a2" fill="#C08A3F" /></g></g><g id="b2"><g transform="translate(97.00001, 93.29996) translate(48, 59)" id="c2"><path d="M20.8 18.1 C16.8 24.1 17.8 22 13.5 24.4 C9.2 26.8 2.1 27.7 0.4 31.4 C-1.3 35.1 -0.8 38.9 -0.2 43.6 C0.4 48.3 4.8 56.1 9 56.4 C9.9 56.5 11.9 55.1 15.8 52.2 C17 51.3 19.5 50.4 23.3 49.4 C26.8 50.3 29.3 51.3 30.7 52.2 C34.2 54.6 36.6 56 39 56 C45.5 56 47.7 47.7 48.1 43.7 C48.5 39.4 49.5 33.8 46.7 30.4 C45 28.2 38.1 26.2 34.8 24.4 C31.5 22.7 28.9 22.4 26.5 17 C24.1 11.6 24.8 12.2 20.8 18.1 z" id="d2" fill="#FFF" /><path d="M20.8 18.1 C24.8 12.1 24 11.6 26.4 17 C28.8 22.4 31.4 22.7 34.7 24.4 C38 26.2 44.9 28.2 46.6 30.4 C49.4 33.9 48.4 39.5 48 43.7 C47.6 47.7 45.4 56 38.9 56 C36.5 56 34.1 54.6 30.6 52.2 C29.2 51.3 26.7 50.3 23.2 49.4 C19.4 50.4 16.9 51.3 15.7 52.2 C11.8 55.1 9.8 56.5 8.9 56.4 C4.7 56.1 0.4 48.2 -0.2 43.5 C-0.8 38.8 -1.3 35 0.4 31.3 C2.1 27.6 9.2 26.7 13.5 24.3 C17.8 21.9 16.9 24.1 20.8 18.1 z M21 18.9 C17.2 24.3 18.2 22.4 14.1 24.6 C10 26.8 3.3 27.6 1.7 30.9 C0.1 34.2 0.6 37.7 1.2 42 C1.8 46.3 5.8 53.4 9.7 53.7 C10.5 53.8 12.4 52.5 16.1 49.9 C17.2 49.1 19.6 48.3 23.2 47.4 C26.5 48.2 28.9 49.1 30.2 49.9 C33.5 52.1 35.8 53.3 38 53.3 C44.1 53.3 46.2 45.8 46.6 42.1 C47 38.2 47.9 33.1 45.3 29.9 C43.7 27.9 37.2 26.1 34.1 24.5 C31 23 28.5 22.7 26.3 17.8 C24.1 12.9 24.7 13.5 21 18.9 z" opacity="0.15" id="e2" /></g><g transform="translate(168.3, 206.4999) scale(0.8) translate(-168.3, -201.4999) translate(95.19999, 101.4) translate(47, 87)" id="f2"><g id="g2"><path d="M3.4 5.4 C4.9 4.3 6.4 6.3 6.5 7.5 C6.6 8.7 8.3 11.5 10.6 12.2 C12.9 12.9 15.9 13.7 19.3 12.8 C20.3 12.5 21.7 11.7 24.1 11.5 C24.2 11.5 24.4 10.8 24.5 9.9 C24.7 8.2 25.2 5.7 25.4 5.7 C25.7 5.7 25.7 8.3 26 10 C26.2 11 26.4 11.6 26.5 11.6 C28.5 11.8 29.8 12.5 31.4 12.8 C34.4 13.5 39.8 13.5 41.8 9.6 C43.8 5.7 43.8 4.1 45 4.1 C46.2 4.1 46.5 6.2 45 8 C43.5 9.8 41.3 12 38.9 13.1 C36.5 14.2 32.3 14 31.3 14 C30.3 14.1 28.6 15.3 25 15.3 C21.4 15.3 19.6 14 18.7 14 C17.8 14 16.8 14.3 13.9 13.8 C11 13.6 8.3 11.8 6 10 C3.7 8.2 1.9 6.5 3.4 5.4 z" id="h2" /><path d="M16.7 13.9 C17.2 14.9 17.8 15.6 18.4 16 C20.2 17.2 23 17.8 25 17.8 C27.2 17.8 30.6 17.2 32.7 15.9 C33.3 15.5 33.7 14.9 34 13.9 C30.1 13.3 27.2 13 25.4 13 C23.6 13 20.6 13.3 16.7 13.9 z" opacity="0.15" id="i2" /></g></g><g transform="translate(109.1, 128.3) translate(49, 48)" id="j2"><g id="k2"><path d="M19.3 2.5 C16.1 -0.7 10.5 2 10.5 2 C10.5 2 4.9 -0.7 1.7 2.5 C-3 7.2 6.6 13.8 10.5 15.3 C14.4 13.8 24 7.2 19.3 2.5 z" id="l2" fill="#282421" /><path d="M14.2 2.5 C12.8 2.8 11.6 3.7 10.1 3.4 C8.7 3.1 8.8 3.3 7.7 2.6 C6.3 1.8 4.6 1.5 3.7 2.1 C2.9 2.6 2.1 3.5 2.8 4.2 C3.5 5 5 4.9 6.5 4.8 C7.2 4.8 9.9 4.9 10.4 4.8 C11.6 4.9 13.5 5.6 15 4.7 C16.4 4 15.8 2.1 14.2 2.5 z" id="m2" fill="#FFF" /></g></g><g transform="translate(97, 90.09996) translate(41, 42)" id="n2"><path d="M6.1 10.9 C6.7 10.4 7.5 10.8 8.5 12.2 C10 14.3 10.8 18 13.2 19.3 C15.6 20.6 18.9 19.9 20.4 19.3 C21.9 18.7 24.8 14.6 23.7 10.9 C23 8.4 21.3 6.3 18.6 4.5 L19.5 6.7 L15.5 6.1 L16.3 7.4 C12.9 7.8 10.6 8.2 9.4 8.5 C8.3 9 7.2 9.8 6.1 10.9 z" id="o2" fill="#FFF" /><g transform="translate(0, 10)" id="p2"><path d="M21.9 14.6 C21 11.9 19.7 8.3 17.5 6.4 C15.3 4.5 10.7 3.9 9 4.5 C7.7 5 6.1 7.4 4.6 8.5 C4.2 8.9 3.1 8.7 3 9 C2.3 10.8 6.8 15.2 8.3 16 C11.2 17.5 16.3 17.8 20.2 17.1 C21.7 17 21.5 15.8 21.9 14.6 z" id="q2" fill="#C08A3F" /><g transform="translate(11.16316, 7.522936) scale(-1, 1) translate(-11.16316, -7.522936) translate(3.163158, 3.022936)" id="r2"><path d="M-1.1 8.4 C0.1 6.4 2.1 4.5 4.4 4.2 C6.7 3.9 8.9 4 10.7 5.4 C12.5 6.8 12.5 7.5 13.3 8.1 C14 8.8 12.5 10.5 9.7 11.4 C6.9 12.3 4.5 13 1.9 12.5 C-0.8 12.1 -1.2 11.9 -1.6 11.4 C-2 10.9 -2.4 10.5 -1.1 8.4 z" id="s2" fill="#FBFBFB" /><g id="t2"><path d="M5.2 4.1 C6.3 5 7 6.4 7 8 C7 10.1 5.7 12 3.8 12.8 C3.2 12.8 2.6 12.8 2 12.6 C-0.7 12.2 -1.1 12 -1.5 11.5 C-1.9 11 -2.3 10.6 -1.1 8.5 C0.1 6.4 2 4.5 4.4 4.2 C4.6 4.2 4.9 4.1 5.2 4.1 z" id="u2" /></g></g><path d="M11.8 11.3 C12.8 12.4 15.1 10.8 15.1 9.9 C15.1 9 14.1 8.2 12.8 8.2 C11.5 8.2 10.5 9 10.5 9.9 C10.5 10.8 10.9 10.2 11.8 11.3 z" id="v2" fill="#FFFEFE" /></g></g><g transform="translate(95.8, 90.09996) translate(76, 42)" id="w2"><g transform="translate(0.878947, 0.022936)" id="x2"><path d="M20.1 10.9 C19.5 10.4 18.7 10.8 17.7 12.2 C16.2 14.3 15.4 18 13 19.3 C10.6 20.6 7.3 19.9 5.8 19.3 C4.3 18.7 1.4 14.6 2.5 10.9 C3.2 8.4 4.9 6.3 7.6 4.5 L6.6 6.7 L10.6 6.1 L9.9 7.4 C13.3 7.8 15.6 8.2 16.8 8.5 C17.9 9 19 9.8 20.1 10.9 z" id="y2" fill="#FFF" /><path d="M5.3 21.7 C6.2 19 7.5 17.3 9.7 15.4 C11.9 13.5 16.2 13.3 17.9 13.9 C19.1 14.3 21.1 16.4 22.7 17.4 C23.4 17.8 24.1 17.5 24.3 18.1 C25 19.9 21.7 24.1 20.2 24.9 C19.8 25.1 16.7 25.9 14.9 26.4 C12.7 26.9 10.6 26.4 8.3 26.4 C6.9 26.4 5.7 26.3 4.9 25.8 C4.2 25.2 4.8 22.9 5.3 21.7 z" id="z2" fill="#C08A3F" /><g transform="translate(4, 12)" id="a3"><path d="M3.4 9 C4.7 7 6.2 5.4 8.5 5.1 C10.8 4.8 12.7 5.1 14.2 6 C15.7 6.9 16.5 7.9 17.4 9 C18.3 10.1 16.7 11.3 13.8 12.3 C10.9 13.2 9.1 13.5 6.5 13.5 C3.9 13.5 2.6 13 2.2 12.3 C1.9 11.6 2.1 11.1 3.4 9 z" id="b3" fill="#FBFBFB" /><path d="M10 4.9 C11.6 4.9 13 5.3 14.1 5.9 C15.7 6.8 16.4 7.8 17.3 8.9 C18.2 10 16.7 11.3 13.7 12.3 C12.4 12.7 11.3 13 10.1 13.2 C9 12.4 8 10.8 8 8.9 C8 7.3 8.8 5.8 10 4.9 z" id="c3" /></g><path d="M11.7 21.5 C12.7 22.7 15 20.9 15 19.9 C15 18.9 13.9 18 12.5 18 C11.1 18 10 18.8 10 19.9 C10 21 10.6 20.4 11.7 21.5 z" id="d3" fill="#FFFEFE" /></g></g></g></g></g></g><defs><g transform="translate(17.09519, 0.800995) translate(-135.2952, -293.601)" id="e3" fill="#000"><path d="M118.2 302.7 C118.4 307.4 132.5 311.2 149.8 311.2 C167.1 311.2 181.2 307.4 181.4 302.7 C181.4 307.5 181.4 310.1 181.4 310.5 C181.4 315.3 167.3 319.1 149.8 319.1 C132.3 319.1 118.2 315.2 118.2 310.5 L118.2 302.7 L118.2 302.7 z" fill-opacity="0.4528" id="f3" fill="#593001" /><path d="M118.7 301.7 C118.9 306.4 133 310.2 150.3 310.2 C167.6 310.2 181.7 306.4 181.9 301.7 C181.9 306.5 181.9 309.1 181.9 309.5 C181.9 314.3 167.8 318.1 150.3 318.1 C132.8 318.1 118.7 314.2 118.7 309.5 L118.7 301.7 L118.7 301.7 z" id="g3" fill="#DA8113" /><linearGradient x1="46.0545" y1="-118.6926" x2="45.4656" y2="-118.6926" gradientUnits="userSpaceOnUse" gradientTransform="matrix(117.135, 0, 0, 28.4634, -5208.417, 3687.795)" id="h3"><stop offset="0%" stop-color="#D9952A" stop-opacity="1" /><stop offset="6.438854%" stop-color="#CA7519" stop-opacity="1" /><stop offset="30.54%" stop-color="#E3AD3A" stop-opacity="1" /><stop offset="51.05%" stop-color="#FFEC91" stop-opacity="1" /><stop offset="68.8%" stop-color="#E9BD44" stop-opacity="1" /><stop offset="86.24%" stop-color="#FFED6C" stop-opacity="1" /><stop offset="93.87%" stop-color="#F2D353" stop-opacity="1" /><stop offset="100%" stop-color="#F2B947" stop-opacity="1" /></linearGradient><path d="M118.2 301.6 C118.4 306.1 132.7 309.7 150.3 309.7 C167.9 309.7 182.2 306.1 182.4 301.6 C182.4 306.2 182.4 308.7 182.4 309 C182.4 313.5 168 317.2 150.3 317.2 C132.6 317.2 118.2 313.5 118.2 309 L118.2 301.6 L118.2 301.6 z" id="i3" style="fill:url(#h3)" /><linearGradient x1="45.4914" y1="-117.9547" x2="45.9407" y2="-117.5895" gradientUnits="userSpaceOnUse" gradientTransform="matrix(115.425, 0, 0, 29.925, -5125.077, 3826.124)" id="j3"><stop offset="0%" stop-color="#F4E072" stop-opacity="1" /><stop offset="100%" stop-color="#DB9427" stop-opacity="1" /></linearGradient><ellipse cx="150.3" cy="301.5" rx="31.6" ry="8.2" id="k3" style="fill:url(#j3)" /><linearGradient x1="45.4656" y1="-126.0065" x2="46.0545" y2="-126.0065" gradientUnits="userSpaceOnUse" gradientTransform="matrix(117.135, 0, 0, 18.6219, -5208.417, 2651.479)" id="l3"><stop offset="0%" stop-color="#D9952A" stop-opacity="1" /><stop offset="6.438854%" stop-color="#CA7519" stop-opacity="1" /><stop offset="30.54%" stop-color="#E3AD3A" stop-opacity="1" /><stop offset="51.05%" stop-color="#FFEC91" stop-opacity="1" /><stop offset="68.8%" stop-color="#E9BD44" stop-opacity="1" /><stop offset="86.24%" stop-color="#FFED6C" stop-opacity="1" /><stop offset="93.87%" stop-color="#F2D353" stop-opacity="1" /><stop offset="100%" stop-color="#F2B947" stop-opacity="1" /></linearGradient><path d="M119.2 299.9 C119 300.2 118.9 300.6 118.9 301 C118.9 305.5 132.9 309.2 150.3 309.2 C167.7 309.2 181.7 305.5 181.7 301 C181.7 300.6 181.6 300.3 181.4 299.9 C182 300.5 182.4 301.2 182.4 301.9 C182.4 306.4 168 310.1 150.3 310.1 C132.6 310.1 118.2 306.4 118.2 301.9 C118.2 301.3 118.6 300.6 119.2 299.9 z" id="m3" style="fill:url(#l3)" /><linearGradient x1="45.196" y1="-121.5895" x2="45.3746" y2="-120.6758" gradientUnits="userSpaceOnUse" gradientTransform="matrix(101.745, 0, 0, 23.94, -4458.332, 3199.41)" id="n3"><stop offset="0%" stop-color="#F8DD61" stop-opacity="1" /><stop offset="100%" stop-color="#EAA330" stop-opacity="1" /></linearGradient><ellipse cx="150.3" cy="300.8" rx="27.8" ry="6.6" id="o3" style="fill:url(#n3)" /><linearGradient x1="45.5694" y1="-134.267" x2="45.0221" y2="-134.267" gradientUnits="userSpaceOnUse" gradientTransform="matrix(101.745, 0, 0, 13.2525, -4458.332, 2077.223)" id="p3"><stop offset="0%" stop-color="#F4CA2F" stop-opacity="1" /><stop offset="51.38%" stop-color="#BF7737" stop-opacity="1" /><stop offset="100%" stop-color="#E4A929" stop-opacity="1" /></linearGradient><path d="M122.6 301.5 C122.5 301.3 122.4 301 122.4 300.8 C122.4 297.2 134.9 294.2 150.2 294.2 C165.5 294.2 178 297.1 178 300.8 C178 301 177.9 301.3 177.8 301.5 C176.3 298.2 164.5 295.6 150.1 295.6 C135.7 295.6 124.1 298.2 122.6 301.5 z" id="q3" style="fill:url(#p3)" /></g></defs><desc>IL2JEE7ECEE,rApkfdpTCzRzn2xv/jGVp5f3pFpXMFwwEkVquE6UfK+362Fwp8Of1ocGR7QuYJEZqgeeggWI0d2JOi9RZ0/xdw==</desc></svg>