<?xml version="1.0" encoding="utf-8"?><!DOCTYPE svg PUBLIC "-//W3C//DTD SVG 1.1//EN" "http://www.w3.org/Graphics/SVG/1.1/DTD/svg11.dtd"><svg x="0" y="0" width="340px" height="340px" viewBox="0, 0, 340, 340" preserveAspectRatio="xMidYMid" font-size="0" id="a" enable-background="new 0 0 340 340" xmlns="http://www.w3.org/2000/svg" xmlns:xlink="http://www.w3.org/1999/xlink" xmlns:xml="http://www.w3.org/XML/1998/namespace" version="1.1"><g id="b" fill="#000"><g id="c"><g transform="translate(0, 0) translate(0, 224)" id="d"><ellipse cx="168.6" cy="53.1" rx="57.8" ry="12.8" fill-opacity="0.25" id="e" /></g><g id="f"><g transform="translate(103.8, 99.19998) translate(20.5, 139.5) scale(-1, 1) translate(-20.5, -139.5) translate(0, 122)" id="g"><g id="h"><path d="M28.3 1.5 C38.6 0.6 40.4 9.4 40.6 11.6 C39.9 11.2 39.2 10.8 38.5 10.4 C39.3 12.6 39.7 15.1 39.7 17.8 C38.6 16.4 36.7 14.8 34.9 13.9 C35.7 15.2 36.5 16.5 37.4 17 C35.4 17.6 34.6 18.2 31 17.7 C28.6 17.4 27.5 17.8 24.4 18.3 C23.8 18.4 19.5 10.8 21.8 5.7 C23.2 3.5 27.3 1.5 28.3 1.5 z" id="i" fill="#AA602E" /><path d="M6 15 C9.4 15.8 13.3 15.1 15.9 12.7 C16.5 12.2 17 11.5 17.6 10.9 C19.7 7.6 21.8 4.2 23.8 0.9 C23.8 1.7 23.7 2.5 23.6 3.2 C25 2.2 26.5 1.5 28.3 1.3 C25.8 4 23.8 7.1 22.4 10.5 C22.8 10.5 23.3 10.4 23.8 10.3 C24.8 10 26.6 9.5 27.4 8.4 C27.4 10.5 26.9 11.4 26.2 12.1 C28.3 11.9 30.4 12.2 32.4 13 C29.6 13.4 27.8 16.2 25.4 17.6 C25.5 17.6 28.8 17 30.9 17.9 C31 18.1 31.1 18.4 31.2 18.6 C32.2 21 32.3 23.7 31.5 26.1 C30.7 24.4 29.5 22.8 28.1 21.5 C28.6 25.5 27.5 29.7 25.6 32.8 C25.4 29.1 25.6 25.3 21.5 23.8 C23.2 26.6 21.3 31.3 20.7 34.1 C20.5 31.6 20.2 29.1 19.1 26.8 C16.2 20.4 14.9 21 9.6 21.6 C6.3 21.9 1.1 21 1 18.4 C0.9 15.8 4.2 14.6 6 15 z" id="j" fill="#32363A" /><path d="M30 17.6 C30.3 17.7 30.6 17.8 30.9 17.9 C31 18.1 31.1 18.4 31.2 18.6 C32.2 21 32.3 23.7 31.5 26.1 C30.7 24.4 29.5 22.8 28.1 21.5 C28.6 25.5 27.5 29.7 25.6 32.8 C25.4 29.1 25.6 25.3 21.5 23.8 C23.2 26.6 21.3 31.3 20.7 34.1 C20.5 31.6 20.2 29.1 19.1 26.8 C16.2 20.4 14.9 21 9.6 21.6 C6.3 21.9 1.1 21 1 18.4 C0.9 15.8 4.2 14.6 6 15 C9.4 15.8 13.3 15.1 15.9 12.7 C16.5 12.2 17 11.5 17.6 10.9 C19.7 7.6 21.8 4.2 23.8 0.9 C23.8 1.7 23.7 2.5 23.6 3.2 C25 2.2 26.5 1.5 28.3 1.3 C28.2 1.4 28.2 1.4 28.1 1.5 C28.2 1.5 28.2 1.5 28.3 1.5 C38.6 0.6 40.4 9.4 40.6 11.6 L38.5 10.4 C39.3 12.6 39.7 15.1 39.7 17.8 C38.6 16.4 36.7 14.8 34.9 13.9 C35.7 15.2 36.5 16.5 37.4 17 C35.4 17.6 34.6 18.2 31 17.7 C30.6 17.7 30.3 17.6 30 17.6 z M29.8 16.1 C29.5 16 33.3 16.9 35.1 16.4 C34.3 15.9 34.1 13.3 33.3 12.1 C35 12.9 37.9 14.3 38.9 15.6 C38.9 13.2 38.2 10.6 37.5 8.7 L39.8 10 C39.7 8.1 37 1.6 27.7 2.4 C27.6 2.4 28.5 2 28.4 2 C28.5 1.9 28.5 1.9 28.6 1.8 C27 2 24.4 4.3 23.2 5.2 C23.2 4.6 23.2 3.4 23.2 2.7 C21.3 5.6 20.8 7.4 18.9 10.3 C18.4 10.9 17.9 11.5 17.4 11.9 C15 14.1 11 16.9 7.9 16.2 C6.2 15.8 2.7 15.8 2.8 18.1 C2.9 20.4 8.7 20.1 11.6 19.8 C16.5 19.3 16.6 18.2 19.2 23.9 C20.2 25.9 20.7 26.4 20.8 28.6 C21.4 26.1 21.2 24.2 19.7 21.7 C23.4 23 25.9 24.9 26.1 28.2 C27.8 25.5 26.9 22.7 26.5 19.2 C27.8 20.3 30.3 21.7 31.1 23.2 C31.8 21.1 30 19.5 29.1 17.3 C29 17.2 29.8 16.3 29.8 16.1 z" opacity="0.15" id="k" /></g></g><g transform="translate(124.0067, 273.3) scale(0.9916667) translate(-120.5, -273.3) translate(96.8, 58.59996) translate(15, 148)" id="l"><g id="m"><path d="M7.5 67.2 C7.3 61.1 10.4 57.2 16.8 55.3 C9.2 42.9 0.5 25.2 0.1 19.1 C-0.5 9 3.8 3.3 7.7 0.8 C10.3 -0.9 22 -1.6 27.5 0.1 C33.1 1.6 35.6 7.3 37.4 8.7 C42.7 12.6 47.5 20.2 49.1 25.6 C52.1 35.9 50.3 51.1 49.5 64.3 C44.4 65.8 27.6 69.8 23.9 70.1 C20.7 70.4 16.2 70.4 10.6 70.2 C8.8 70.1 7.5 68.8 7.5 67.2 z" id="n" fill="#AA602E" /><path d="M10.4 44.1 C5 33.9 0.4 23.5 0.1 19.1 C-0.5 9 3.8 3.3 7.7 0.8 C8 0.5 8.5 0.3 8.9 0.1 C8.6 1.4 8.2 2.8 7.7 4.4 C4.1 16.1 12.3 23.6 12.7 28.2 C13.3 35.2 12.2 41.2 10.4 44.1 z" id="o" fill="#7F4924" /><path d="M7.5 67.2 C7.3 61.1 10.4 57.2 16.8 55.3 C9.2 42.9 0.5 25.2 0.1 19.1 C-0.5 9 3.8 3.3 7.7 0.8 C10.3 -0.9 22 -1.6 27.5 0.1 C33.1 1.6 35.6 7.3 37.4 8.7 C42.7 12.6 47.5 20.2 49.1 25.6 C52.1 35.9 50.3 51.1 49.5 64.3 C44.4 65.8 27.6 69.8 23.9 70.1 C20.7 70.4 16.2 70.4 10.6 70.2 C8.8 70.1 7.5 68.8 7.5 67.2 z M9.3 65.4 C9.3 66.9 9.8 68 11.4 68 C16.9 68.2 21.2 68.2 24.2 67.9 C27.7 67.6 42.8 64 47.7 62.6 C48.5 50 51.2 35.2 48.4 25.3 C46.9 20 42.3 12.8 37.2 9.1 C35.5 7.8 33.1 2.3 27.7 0.9 C22.3 -0.7 11.2 -0.1 8.7 1.6 C5 4.1 0.8 9.5 1.4 19.2 C1.8 25 11.4 44.2 18.6 56.2 C12.7 57.9 9.1 59.6 9.3 65.4 z" opacity="0.15" id="p" /></g></g><g transform="translate(213.8933, 273.3) scale(0.9916667) translate(-217.4, -273.3) translate(97.10001, 58.59996) translate(105.5, 184.5) scale(-1, 1) translate(-105.5, -184.5) translate(80, 148)" id="q"><g id="r"><path d="M9.7 67.2 C9.5 61.1 12.6 57.2 19 55.3 C11.4 42.9 2.7 25.2 2.3 19.1 C1.7 9 6 3.3 9.9 0.8 C12.4 -0.9 22 -1.6 27.6 0.1 C33.8 1.8 39.5 5.7 43.8 9.6 C46.8 12.2 48.4 18 50 23.4 C53 33.7 50.8 52.1 50 65.2 C44.9 66.7 29.7 69.7 26 70 C22.8 70.3 18.3 70.3 12.7 70.1 C11 70.1 9.7 68.8 9.7 67.2 z" id="s" fill="#AA602E" /><path d="M12.5 44.1 C7.1 33.9 2.5 23.5 2.2 19.1 C1.7 9 6 3.3 9.9 0.8 C10.2 0.5 10.7 0.3 11.1 0.1 C10.8 1.4 10.4 2.8 9.9 4.4 C6.3 16.1 14.5 23.6 14.9 28.2 C15.4 35.2 14.3 41.2 12.5 44.1 z" id="t" fill="#7F4924" /><path d="M9.7 67.2 C9.5 61.1 12.6 57.2 19 55.3 C11.4 42.9 2.7 25.2 2.3 19.1 C1.7 9 6 3.3 9.9 0.8 C12.4 -0.9 22 -1.6 27.6 0.1 C33.8 1.8 39.5 5.7 43.8 9.6 C46.8 12.2 48.4 18 50 23.4 C53 33.7 50.8 52.1 50 65.2 C44.9 66.7 29.7 69.7 26 70 C22.8 70.3 18.3 70.3 12.7 70.1 C11 70.1 9.7 68.8 9.7 67.2 z M12.4 64.8 C12.4 66.3 11.6 67.6 13.2 67.6 C18.7 67.8 23 67.8 26 67.5 C29.5 67.2 42.9 64.4 47.8 63 C48.6 50.3 51.8 32.6 49 22.8 C47.5 17.5 45.9 12 43.1 9.6 C38.9 5.9 33.4 2.2 27.6 0.5 C22.2 -1.1 13.1 -0.4 10.6 1.2 C6.9 3.6 2.7 9.2 3.3 18.7 C3.7 24.5 14.2 43.6 21.4 55.6 C15.3 57.3 12.2 59 12.4 64.8 z" opacity="0.15" id="u" /></g></g><g transform="translate(85.90001, 85.79997) translate(35, 41)" id="v"><path d="M14.8 19.9 C11.3 33.7 12.9 36.6 9.3 47.7 C5.7 58.8 1.3 70.5 3.2 87.6 C4.6 100.8 11.8 132.8 17.6 146.9 C19.3 151.1 22.5 152.3 23.4 152.6 C27.2 154.2 66.3 154.3 72.2 152.6 C73.3 152.3 76.3 151.4 77.8 148.1 C84.6 134.1 92.8 97 94.1 87.6 C96.2 75.3 92.7 55.1 88.5 47.9 C82.5 37.5 82.5 23 81.3 20.8 C79.3 16.1 75.6 10.6 66.6 4.4 C63.9 2.5 51.7 0.7 49.1 0.8 C45.4 0.9 37.4 2 34.5 4.5 C28.5 9.6 16.7 12.5 14.8 19.9 z" id="w" fill="#D07331" /><path d="M14.8 19.9 C16.7 12.5 28.5 9.6 34.5 4.5 C37.4 2 45.4 0.9 49.1 0.8 C51.7 0.7 63.9 2.5 66.6 4.4 C75.6 10.6 79.3 16.1 81.3 20.8 C82.5 23 82.5 37.5 88.5 47.9 C92.7 55.1 96.2 75.3 94.1 87.6 C92.8 97 84.6 134.1 77.8 148.1 C76.3 151.4 73.3 152.3 72.2 152.6 C66.3 154.3 27.2 154.2 23.4 152.6 C22.5 152.3 19.3 151.1 17.6 146.9 C11.8 132.8 4.6 100.8 3.2 87.6 C1.3 70.5 5.7 58.8 9.3 47.7 C12.9 36.6 11.3 33.7 14.8 19.9 z M16.2 20.2 C12.8 33.5 14.4 36.3 10.9 46.9 C7.4 57.6 3.2 68.8 5 85.2 C6.4 97.8 13.3 128.6 18.9 142.1 C20.5 146.1 23.6 147.3 24.4 147.5 C28.1 149.1 65.6 149.2 71.2 147.5 C72.3 147.3 75.2 146.4 76.6 143.2 C83.1 129.8 91 94.2 92.3 85.2 C94.3 73.4 90.9 54 86.9 47.1 C81.1 37.1 81.1 23.2 80 21.1 C78.1 16.6 74.5 11.3 65.9 5.4 C63.3 3.5 51.6 1.8 49.1 1.9 C45.5 2 37.9 3.1 35.1 5.5 C29.3 10.3 18 13.1 16.2 20.2 z" opacity="0.15" id="x" /></g><g transform="translate(118.885, 170.566) scale(1.3, 1.069792) translate(-130.6, -177.8999) translate(91.50001, 85.49996) translate(39, 92)" id="y"><path d="M10.5 2.2 C12.9 5 20.7 22.6 38.2 23.5 C56.8 24.2 64.9 4.9 67.6 0.4 C71.2 8.2 77 13.2 77.6 26 C78.2 38.8 73.7 45.8 71.4 52 C69.1 58.3 63.4 71.4 63.1 83.3 C62.8 95.2 60.6 90.7 64.9 93.1 C69.2 95.6 72.9 100.5 71.4 103.3 C69.9 106.2 51 103.5 50 102.3 C49.5 101.7 48.8 94.2 49 73 C49.1 67.4 49.6 57.6 50.6 43.7 C46.6 46.2 43.1 47.4 40.2 47.3 C37.4 47.4 33.6 46.2 29.1 43.7 C30.5 57.6 31.2 67.4 31.3 73 C31.6 93.4 31.3 101.1 30.5 102.3 C29.3 104 21.8 104.9 7.8 104.8 C6.1 102 6.1 99.6 7.8 97.6 C9.5 95.6 12.4 93.5 16.4 91.2 C14.4 75.7 12.2 65 9.9 59.2 C6.4 50.6 0.3 39.8 0.2 28 C0.1 16.2 6.2 7.4 10.5 2.2 z" id="z" fill="#FDA75C" /><path d="M10.5 2.2 C12.9 5 20.7 22.6 38.2 23.5 C56.8 24.2 64.9 4.9 67.6 0.4 C71.2 8.2 77 13.2 77.6 26 C78.2 38.8 73.7 45.8 71.4 52 C69.1 58.3 63.4 71.4 63.1 83.3 C62.8 95.2 60.6 90.7 64.9 93.1 C69.2 95.6 72.9 100.5 71.4 103.3 C69.9 106.2 51 103.5 50 102.3 C49.5 101.7 48.8 94.2 49 73 C49.1 67.4 49.6 57.6 50.6 43.7 C46.6 46.2 43.1 47.4 40.2 47.3 C37.4 47.4 33.6 46.2 29.1 43.7 C30.5 57.6 31.2 67.4 31.3 73 C31.6 93.4 31.3 101.1 30.5 102.3 C29.3 104 21.8 104.9 7.8 104.8 C6.1 102 6.1 99.6 7.8 97.6 C9.5 95.6 12.4 93.5 16.4 91.2 C14.4 75.7 12.2 65 9.9 59.2 C6.4 50.6 0.3 39.8 0.2 28 C0.1 16.2 6.2 7.4 10.5 2.2 z M10 3.3 C5.9 8.4 2.7 17 2.8 28.3 C2.9 39.5 8.6 50 12 58.3 C14.1 63.8 16.5 77.4 18.3 92.3 C14.6 94.5 12 94.8 10.5 96.7 C9 98.6 8.9 100.3 10.5 103 C23.5 103.1 28.2 101.8 29.3 100.1 C30 99 30.2 91.3 29.9 71.7 C29.8 66.2 26.9 52.4 25.6 39.1 C29.9 41.5 36.2 46.9 40 46.6 C44.9 46.6 50.9 41.5 54.7 39.1 C53.8 52.4 50.8 66.2 50.8 71.5 C50.6 91.9 50.8 100 51.3 100.6 C52.2 101.7 68.3 105.3 69.7 101.5 C70.6 98.6 68.1 96.6 64.3 94.4 C60.3 92 61.5 92.7 61.8 81.3 C62.1 69.9 67.4 57.3 69.5 51.4 C71.6 45.5 75.8 38.7 75.3 26.4 C74.8 14.1 70.8 9.3 67.5 1.9 C65 6.2 56.4 26.4 39 25.7 C22.7 24.9 12.2 6.1 10 3.3 z" opacity="0.15" id="a1" /></g></g><g transform="translate(169.6, 177.3) scale(0.9999998) translate(-169.6, -177.3)" id="b1"><g transform="translate(104.1, 90.59998) translate(25, 0)" id="c1"><path d="M79.4 51 C77.8 37 79 20.9 75.8 15.2 C73.5 11 65.6 1.5 58.8 0.7 C51.9 -0.1 46.6 1.1 40.3 1.1 C34 1.1 28.8 -0.1 21.9 0.7 C15.1 1.5 7.3 11 4.9 15.2 C1.7 20.9 3 37 1.3 51 C0.1 61.5 0 70 2.4 73.7 C11.3 87.6 26.3 89.7 40.3 89.8 C54.3 89.7 69.2 87.6 78.1 73.7 C80.7 70 80.7 61.5 79.4 51 z" id="d1" fill="#FDA75C" /><path d="M79.4 67.2 C78 66 75.4 69.2 72.6 70 C70 71.2 60.8 76.4 54 76.8 C47.7 77.2 36.2 77.4 27.4 76.3 C16.6 74.9 9.1 70.2 8.2 69.9 C5.4 69.2 2.8 66 1.4 67.1 C1.3 67.2 1.2 67.3 1.1 67.5 C1.2 70.1 1.6 72.3 2.5 73.7 C6.1 79.3 10.4 83.8 15.8 85.4 C17.9 86 23.7 88.9 32.2 89.8 C39.3 90.6 44.3 90.1 50.5 89.3 C53.1 88.9 60.7 87.5 65 85.5 C69.6 83.3 74.7 79.4 78.3 73.8 C79.2 72.4 79.6 70.3 79.7 67.6 C79.7 67.4 79.5 67.3 79.4 67.2 z" id="e1" fill="#E78D47" /><path d="M79.4 51 C80.7 61.5 80.7 70 78.1 73.7 C69.2 87.6 54.3 89.7 40.3 89.8 C26.3 89.7 11.3 87.6 2.4 73.7 C0 70 0.1 61.5 1.3 51 C3 37 1.7 20.9 4.9 15.2 C7.3 11 15.1 1.5 21.9 0.7 C28.8 -0.1 34 1.1 40.3 1.1 C46.6 1.1 51.9 -0.1 58.8 0.7 C65.6 1.5 73.5 11 75.8 15.2 C79 20.9 77.8 37 79.4 51 z M77.8 49.8 C76.3 36.3 77.5 20.9 74.4 15.4 C72.2 11.4 64.6 2.2 58.1 1.5 C51.4 0.7 46.4 1.9 40.3 1.9 C34.3 1.9 29.3 0.7 22.6 1.5 C16.1 2.2 8.6 11.4 6.3 15.4 C3.2 20.9 4.5 36.3 2.9 49.8 C1.7 59.8 1.6 68 3.9 71.6 C12.5 84.9 26.9 86.9 40.3 87 C53.7 86.9 68 84.9 76.6 71.6 C79.1 68 79.1 59.8 77.8 49.8 z" opacity="0.15" id="f1" /></g><g transform="translate(97.8, 65.69997) translate(21, 2)" id="g1"><g transform="translate(18.02073, 23.28844) scale(-1, 1) rotate(-6, 0, 0) translate(-18.02073, -23.28844) translate(2.520727, 1.788439)" id="h1"><path d="M1.7 25.8 C-1.9 23.8 -2.7 23.7 -1.4 20.5 C-0.1 17.3 2.4 17.8 5 15.3 C7.6 12.8 13.5 8.6 17.4 6.7 C21.3 4.8 23.7 2.5 25.7 4.7 C27.7 6.9 29.1 12.8 28 18.9 C26.9 25 23.5 30.4 23.1 33.3 C22.7 36.2 21.9 40.6 20.2 42.9 C19.7 43.6 18.2 45.3 17.3 45.8 C15.4 46.7 14 44.9 12.6 41.3 C12.3 40.4 10.5 34.3 8.6 32.4 C6.3 29.9 5.4 27.8 1.7 25.8 z" id="i1" fill="#AA602E" /><path d="M1.7 25.8 C-1.9 23.8 -2.7 23.7 -1.4 20.5 C-0.1 17.3 2.4 17.8 5 15.3 C7.6 12.8 13.5 8.6 17.4 6.7 C21.3 4.8 23.7 2.5 25.7 4.7 C27.7 6.9 29.1 12.8 28 18.9 C26.9 25 23.5 30.4 23.1 33.3 C22.7 36.2 21.9 40.6 20.2 42.9 C19.7 43.6 18.2 45.3 17.3 45.8 C15.4 46.7 14 44.9 12.6 41.3 C12.3 40.4 10.5 34.3 8.6 32.4 C6.3 29.9 5.4 27.8 1.7 25.8 z M3.9 24.6 C7.2 26.4 8 28.3 10 30.5 C11.7 32.2 13.3 37.7 13.6 38.5 C14.8 41.7 16.1 43.4 17.8 42.5 C18.6 42.1 19.9 40.5 20.4 39.9 C21.9 37.8 22.6 33.9 23 31.3 C23.4 28.7 26.4 23.8 27.4 18.3 C28.4 12.8 27.1 7.5 25.4 5.5 C23.6 3.5 21.5 5.6 18 7.3 C14.5 9 9.3 12.8 6.9 15 C4.5 17.2 2.4 16.8 1.2 19.7 C0 22.6 0.7 22.8 3.9 24.6 z" opacity="0.15" id="j1" /><path d="M5.7 24.6 C3.7 23.6 2.3 23 3.3 20.4 C3.9 18.9 7.5 16.8 10.9 14.2 C13.3 12.3 16.2 10.3 18 9.3 C20.6 7.8 21.8 6.3 23.5 7.6 C25.1 8.9 26.5 14.5 25.7 19.2 C24.9 24 20 35.8 18.7 37.6 C17.4 39.4 16.1 42.4 14.5 38.2 C12.9 34 12.6 31.4 10.9 29.6 C9.2 27.8 7.7 25.6 5.7 24.6 z" id="k1" fill="#FDA75C" /><path d="M8.2 26.4 C8.3 25.4 9.1 23.7 9.3 23.3 C9.6 22.7 12.3 21.1 14.6 19.7 C15.6 19 18.6 17.4 18.6 17.4 C20.2 16.5 20.1 19.9 18.6 22.6 C17.7 24.2 15.1 29.9 13.3 31.6 C12.7 32.2 12.2 31.1 11 29.5 C9.9 28.1 8.1 26.8 8.2 26.4 z" opacity="0.5" id="l1" fill="#AA602E" /></g></g><g transform="translate(97.09998, 65.69997) translate(100.9, 24.5) scale(-1, 1) translate(-100.9, -24.5) translate(82.40002, 0)" id="m1"><g transform="translate(18.19189, 24.4854) scale(-1, 1) rotate(-7, 0, 0) translate(-18.19189, -24.4854) translate(2.691893, 2.485396)" id="n1"><path d="M5.4 26.9 C1.8 24.9 1 24.8 2.3 21.6 C3.6 18.4 6.1 18.9 8.7 16.4 C11.3 13.9 17.2 9.7 21.1 7.8 C25 5.9 27.4 3.6 29.4 5.8 C31.4 8 32.8 14 31.7 20.1 C30.7 26.2 27.1 31.6 26.8 34.5 C26.4 37.4 25.6 41.8 23.9 44.1 C23.4 44.8 21.9 46.5 21 47 C19.1 47.9 18.5 47.3 17.1 43.7 C16.8 42.8 17 42 16.7 41.2 C15.3 37.5 14.2 35.4 12.3 33.5 C9.9 31.1 9 29 5.4 26.9 z" id="o1" fill="#AA602E" /><path d="M5.4 26.9 C1.8 24.9 1 24.8 2.3 21.6 C3.6 18.4 6.1 18.9 8.7 16.4 C11.3 13.9 17.2 9.7 21.1 7.8 C25 5.9 27.4 3.6 29.4 5.8 C31.4 8 32.8 14 31.7 20.1 C30.7 26.2 27.1 31.6 26.8 34.5 C26.4 37.4 25.6 41.8 23.9 44.1 C23.4 44.8 21.9 46.5 21 47 C19.1 47.9 18.5 47.3 17.1 43.7 C16.8 42.8 17 42 16.7 41.2 C15.3 37.5 14.2 35.4 12.3 33.5 C9.9 31.1 9 29 5.4 26.9 z M7.1 25.9 C10.4 27.8 11.2 29.8 13.4 32 C15.1 33.8 16.2 35.7 17.4 39.1 C17.7 39.8 17.5 40.6 17.8 41.4 C19.1 44.7 19.6 45.3 21.4 44.4 C22.2 43.9 23.6 42.4 24.1 41.7 C25.7 39.6 26.4 35.5 26.8 32.8 C27.1 30.1 30.4 25.1 31.3 19.5 C32.3 13.9 31 8.3 29.2 6.3 C27.4 4.3 25.2 6.4 21.6 8.1 C18 9.8 12.6 13.7 10.2 16 C7.8 18.3 5.5 17.8 4.3 20.8 C3.1 23.8 3.8 24.1 7.1 25.9 z" opacity="0.15" id="p1" /><path d="M9.4 25.7 C7.4 24.7 6 24.1 7 21.5 C7.6 20 11.2 17.9 14.6 15.3 C17 13.4 19.9 11.4 21.7 10.4 C24.3 8.9 25.5 7.4 27.2 8.7 C28.8 10 30.2 15.6 29.4 20.3 C28.6 25.1 23.7 36.9 22.4 38.7 C21.1 40.5 19.8 43.5 18.2 39.3 C16.6 35.1 16.3 32.5 14.6 30.7 C12.9 29 11.4 26.8 9.4 25.7 z" id="q1" fill="#FDA75C" /><path d="M11.5 26.9 C11.6 25.9 12.8 24.9 13 24.5 C13.3 23.9 16 22.3 18.3 20.9 C19.3 20.2 22.3 18.6 22.3 18.6 C23.9 17.7 23.8 21.1 22.3 23.8 C21.4 25.4 18.8 31.1 17 32.8 C15.8 33.9 14.9 30.4 14.4 30.5 C13.3 28.9 11.4 27.8 11.5 26.9 z" opacity="0.5" id="r1" fill="#AA602E" /></g></g><g id="s1"><g transform="translate(91.3, 94.19997) translate(51, 9)" id="t1"><g id="u1"><path d="M10.8 81.4 C13.9 81.7 18 81.9 20.4 80.6 C23.1 79.2 24.6 77.8 26.8 75.4 C29.3 78.9 31.4 80 34.6 81.4 C37.6 82.8 41.6 81.8 44 81.1 C46.5 80.3 52.2 77.1 52.7 73.4 C53.4 69.2 53.9 64.2 52 57.1 C50.4 51 42.8 47.8 39.1 43.8 C36.4 40.9 32.8 30.2 32.5 28.5 C31.7 25.1 31.8 21.5 33 14.4 C34.2 6.8 39.1 4.5 39.1 2 C39.1 -0.4 34 4 27.9 4.1 C21.8 4.2 15.2 -1.3 15.2 2 C15.2 5.4 20.2 7.8 21.2 13.4 C22.2 19.1 22.2 22 21.2 27.9 C20.6 31.4 17.1 41.7 13.8 44.3 C8.1 48.8 1.3 53.2 0.6 59.8 C0 66.5 -0.7 70.2 1.2 74 C3.5 78.8 7.7 81 10.8 81.4 z" id="v1" fill="#FBD291" /><path d="M10.8 81.4 C7.7 81 3.5 78.8 1.1 74 C-0.8 70.2 -0.1 66.4 0.5 59.8 C1.2 53.2 8.1 48.8 13.7 44.3 C17 41.7 20.5 31.4 21.1 27.9 C22.1 21.9 22.1 19.1 21.1 13.4 C20.1 7.7 15.1 5.3 15.1 2 C15.1 -1.3 21.8 4.2 27.8 4.1 C34 3.9 39.1 -0.4 39.1 1.9 C39.1 4.4 34.2 6.8 33 14.3 C31.8 21.5 31.7 25 32.5 28.4 C32.8 30.1 36.4 40.8 39.1 43.7 C42.8 47.7 50.4 51 52 57 C53.9 64.1 53.4 69.1 52.7 73.3 C52.1 77 46.4 80.2 44 81 C41.5 81.7 37.5 82.7 34.6 81.3 C31.4 79.9 29.3 78.8 26.8 75.3 C24.6 77.7 23.1 79.1 20.4 80.5 C17.9 81.9 13.9 81.7 10.8 81.4 z M11.6 78.4 C14.5 78.7 18.4 78.9 20.7 77.6 C21.9 77 23.5 75.5 24.5 73.2 C25.7 70.4 26.3 66.8 27.4 65.5 C28.5 67.1 28.6 70.4 29.5 72.9 C30.6 75.7 32.6 77.6 34.2 78.3 C37.1 79.6 40.9 78.7 43.1 78 C45.5 77.2 50.9 74.2 51.4 70.7 C52.1 66.7 52.3 63.8 50.5 57.1 C49 51.3 41.9 47.9 38.5 44.1 C35.9 41.3 31.9 29.8 31.6 28.1 C30.8 24.9 31.1 20.2 32.2 13.5 C33.3 6.3 37.6 5.2 37.6 2.8 C37.6 0.5 33.6 4.7 27.8 4.8 C22 4.9 16.7 -0.2 16.7 2.9 C16.7 6.1 21 7 21.9 12.3 C22.9 17.7 23 22.4 22 28.1 C21.4 31.4 17.8 42.5 14.6 45 C9.2 49.3 2.6 52.4 1.9 58.6 C1.3 65 0.5 67.6 2.3 71.2 C4.7 75.9 8.6 78 11.6 78.4 z" opacity="0.15" id="w1" /></g></g><g transform="translate(103.8, 78.09997) translate(51, 88)" id="x1"><g id="y1"><path d="M13 1.7 C13.1 7.2 12.5 10.3 11.3 11.3 C10.1 12.3 6.8 14.1 1.6 16.8 C0.6 17.5 0.4 18.3 1 19 C1.5 19.6 2.5 19.6 3.9 19 L14.4 13.3 C19.8 16.9 23 18.7 24.2 18.7 C24.8 18.7 26.2 18.7 26.4 18.3 C29.1 17.2 17.7 12.7 17.3 11.3 C17 10.3 16.5 7.1 15.7 1.8 C15.3 1.2 14.8 0.8 14.2 0.6 C13.7 0.5 13.3 0.8 13 1.7 z" id="z1" fill="#353535" /></g></g><g transform="translate(103, 94.19997) translate(56, 60)" id="a2"><g id="b2"><path d="M0.9 8.2 C2.5 12.2 3.6 15.3 5.8 16 C8 16.7 12.1 16.7 13.8 15.9 C15.5 15.2 20.4 8.5 20.8 6.1 C21.1 3.7 19.1 2.6 17.2 1.5 C15.4 0.3 9.6 0.3 7.1 0.3 C4.6 0.3 -0.7 4.1 0.9 8.2 z" id="c2" fill="#353535" /><path d="M13.5 3.2 C13.5 5.7 14.3 8 15.3 7.8 C16 7.7 16.8 6.9 17.7 5.5 C14.9 2.3 13.5 1.6 13.5 3.2 z" id="d2" fill="#FFF3F3" /></g></g><g transform="translate(151.3, 130.9) scale(0.8) translate(-151.3, -130.9) translate(102.4, 83.09996) translate(32, 17)" id="e2"><g id="f2"><path d="M16 8.1 C16.9 10.9 17.1 10.4 19.3 10.1 C20.1 10 21.3 8.5 22.6 7.4 C23.3 6.8 24.5 6 26.2 4.8 C26.2 2.2 25.8 0.9 25 1 C20.3 1.6 15.5 6.6 16 8.1 z" id="g2" fill="#353535" /><g transform="translate(0, 14)" id="h2"><path d="M5.2 12.9 C2.3 21.5 0.7 32.8 0.7 35.5 C0.7 38.2 1.9 39.3 3.6 39.7 C5.3 40.1 9.7 38.3 15.4 35.5 C21.1 32.7 25.5 30.9 26.9 26.4 C28.3 21.8 26.9 7.2 26.9 5.4 C26.9 3.5 23.5 0.5 20 0.6 C16.5 0.6 8.1 4.3 5.2 12.9 z" id="i2" fill="#FBD291" /><path d="M17.2 31.3 C25.2 27.8 23.7 25.9 23.7 19.4 C23.7 12.9 23.6 6 20 6 C16.4 6 10.8 12.8 10.8 19.4 C10.7 26 9.1 34.8 17.2 31.3 z" id="j2" fill="#353535" /><path d="M18.3 12.7 C19 15.5 18.7 20.5 17 21.7 C16.6 22 15.4 22.5 15.1 21.7 C14.2 19.7 14.6 14.6 15.1 12.7 C15.2 12.3 15.8 11.7 16.5 11.6 C17.5 11.4 18.1 11.5 18.3 12.7 z" id="k2" fill="#FFF" /><ellipse cx="15.7" cy="24.9" rx="1" ry="1.5" id="l2" fill="#FFF" /></g></g></g><g transform="translate(185.2, 130.9) scale(0.8) translate(-185.2, -130.9) translate(99.09998, 82.69997) translate(74, 17)" id="m2"><path d="M12.1 8.1 C11.2 10.9 11 10.4 8.8 10.1 C8 10 6.8 8.5 5.5 7.4 C4.8 6.8 3.6 6 1.9 4.8 C1.9 2.2 2.3 0.9 3.1 1 C7.7 1.6 12.6 6.6 12.1 8.1 z" id="n2" fill="#353535" /><path d="M22.8 26.9 C25.7 35.5 27.3 46.8 27.3 49.5 C27.3 52.2 26.1 53.3 24.4 53.7 C22.7 54.1 18.3 52.3 12.6 49.5 C6.8 46.7 2.5 44.9 1.1 40.4 C-0.3 35.8 1.1 21.2 1.1 19.4 C1.1 17.6 4.5 14.6 8 14.7 C11.6 14.6 19.9 18.3 22.8 26.9 z" id="o2" fill="#FBD291" /><path d="M10.9 45.3 C2.9 41.8 4.4 39.9 4.4 33.4 C4.4 26.9 4.5 20 8.1 20 C11.7 20 17.3 26.8 17.3 33.4 C17.3 40 18.9 48.8 10.9 45.3 z" id="p2" fill="#353535" /><path d="M7.7 25.7 C7 28.5 6.8 33.5 7.4 34.9 C7.7 35.7 9.8 36.3 10.1 35.5 C11 33.5 11.3 28.5 10.7 26.6 C10.6 26.2 10.1 24.7 9.4 24.6 C8.5 24.4 7.9 24.5 7.7 25.7 z" id="q2" fill="#FFF" /><ellipse cx="8.4" cy="38.9" rx="1" ry="1.5" id="r2" fill="#FFF" /></g></g></g></g></g><defs><g transform="translate(17.09519, 0.800995) translate(-135.2952, -293.601)" id="s2" fill="#000"><path d="M118.2 302.7 C118.4 307.4 132.5 311.2 149.8 311.2 C167.1 311.2 181.2 307.4 181.4 302.7 C181.4 307.5 181.4 310.1 181.4 310.5 C181.4 315.3 167.3 319.1 149.8 319.1 C132.3 319.1 118.2 315.2 118.2 310.5 L118.2 302.7 L118.2 302.7 z" fill-opacity="0.4528" id="t2" fill="#593001" /><path d="M118.7 301.7 C118.9 306.4 133 310.2 150.3 310.2 C167.6 310.2 181.7 306.4 181.9 301.7 C181.9 306.5 181.9 309.1 181.9 309.5 C181.9 314.3 167.8 318.1 150.3 318.1 C132.8 318.1 118.7 314.2 118.7 309.5 L118.7 301.7 L118.7 301.7 z" id="u2" fill="#DA8113" /><linearGradient x1="46.0545" y1="-118.6926" x2="45.4656" y2="-118.6926" gradientUnits="userSpaceOnUse" gradientTransform="matrix(117.135, 0, 0, 28.4634, -5208.417, 3687.795)" id="v2"><stop offset="0%" stop-color="#D9952A" stop-opacity="1" /><stop offset="6.438854%" stop-color="#CA7519" stop-opacity="1" /><stop offset="30.54%" stop-color="#E3AD3A" stop-opacity="1" /><stop offset="51.05%" stop-color="#FFEC91" stop-opacity="1" /><stop offset="68.8%" stop-color="#E9BD44" stop-opacity="1" /><stop offset="86.24%" stop-color="#FFED6C" stop-opacity="1" /><stop offset="93.87%" stop-color="#F2D353" stop-opacity="1" /><stop offset="100%" stop-color="#F2B947" stop-opacity="1" /></linearGradient><path d="M118.2 301.6 C118.4 306.1 132.7 309.7 150.3 309.7 C167.9 309.7 182.2 306.1 182.4 301.6 C182.4 306.2 182.4 308.7 182.4 309 C182.4 313.5 168 317.2 150.3 317.2 C132.6 317.2 118.2 313.5 118.2 309 L118.2 301.6 L118.2 301.6 z" id="w2" style="fill:url(#v2)" /><linearGradient x1="45.4914" y1="-117.9547" x2="45.9407" y2="-117.5895" gradientUnits="userSpaceOnUse" gradientTransform="matrix(115.425, 0, 0, 29.925, -5125.077, 3826.124)" id="x2"><stop offset="0%" stop-color="#F4E072" stop-opacity="1" /><stop offset="100%" stop-color="#DB9427" stop-opacity="1" /></linearGradient><ellipse cx="150.3" cy="301.5" rx="31.6" ry="8.2" id="y2" style="fill:url(#x2)" /><linearGradient x1="45.4656" y1="-126.0065" x2="46.0545" y2="-126.0065" gradientUnits="userSpaceOnUse" gradientTransform="matrix(117.135, 0, 0, 18.6219, -5208.417, 2651.479)" id="z2"><stop offset="0%" stop-color="#D9952A" stop-opacity="1" /><stop offset="6.438854%" stop-color="#CA7519" stop-opacity="1" /><stop offset="30.54%" stop-color="#E3AD3A" stop-opacity="1" /><stop offset="51.05%" stop-color="#FFEC91" stop-opacity="1" /><stop offset="68.8%" stop-color="#E9BD44" stop-opacity="1" /><stop offset="86.24%" stop-color="#FFED6C" stop-opacity="1" /><stop offset="93.87%" stop-color="#F2D353" stop-opacity="1" /><stop offset="100%" stop-color="#F2B947" stop-opacity="1" /></linearGradient><path d="M119.2 299.9 C119 300.2 118.9 300.6 118.9 301 C118.9 305.5 132.9 309.2 150.3 309.2 C167.7 309.2 181.7 305.5 181.7 301 C181.7 300.6 181.6 300.3 181.4 299.9 C182 300.5 182.4 301.2 182.4 301.9 C182.4 306.4 168 310.1 150.3 310.1 C132.6 310.1 118.2 306.4 118.2 301.9 C118.2 301.3 118.6 300.6 119.2 299.9 z" id="a3" style="fill:url(#z2)" /><linearGradient x1="45.196" y1="-121.5895" x2="45.3746" y2="-120.6758" gradientUnits="userSpaceOnUse" gradientTransform="matrix(101.745, 0, 0, 23.94, -4458.332, 3199.41)" id="b3"><stop offset="0%" stop-color="#F8DD61" stop-opacity="1" /><stop offset="100%" stop-color="#EAA330" stop-opacity="1" /></linearGradient><ellipse cx="150.3" cy="300.8" rx="27.8" ry="6.6" id="c3" style="fill:url(#b3)" /><linearGradient x1="45.5694" y1="-134.267" x2="45.0221" y2="-134.267" gradientUnits="userSpaceOnUse" gradientTransform="matrix(101.745, 0, 0, 13.2525, -4458.332, 2077.223)" id="d3"><stop offset="0%" stop-color="#F4CA2F" stop-opacity="1" /><stop offset="51.38%" stop-color="#BF7737" stop-opacity="1" /><stop offset="100%" stop-color="#E4A929" stop-opacity="1" /></linearGradient><path d="M122.6 301.5 C122.5 301.3 122.4 301 122.4 300.8 C122.4 297.2 134.9 294.2 150.2 294.2 C165.5 294.2 178 297.1 178 300.8 C178 301 177.9 301.3 177.8 301.5 C176.3 298.2 164.5 295.6 150.1 295.6 C135.7 295.6 124.1 298.2 122.6 301.5 z" id="e3" style="fill:url(#d3)" /></g></defs><desc>8J76HE62228,YVpQ2XTf8dC4CJACfR/U+EunRqW0f+XsL+qdu4q8UxqlT7aqB/R2/h+6Uti1UGaEdrSCg7TzTwMlbGJV0TWcBND0TTqdXoEbRqyyQZ8itQN1BU8w/PQEhX/P+caAfILAAC1T8QWRT6Jl91sVmRhTtA==</desc></svg>