<?xml version="1.0" encoding="utf-8"?><!DOCTYPE svg PUBLIC "-//W3C//DTD SVG 1.1//EN" "http://www.w3.org/Graphics/SVG/1.1/DTD/svg11.dtd"><svg x="0" y="0" width="340px" height="340px" viewBox="0, 0, 340, 340" preserveAspectRatio="xMidYMid" font-size="0" id="a" enable-background="new 0 0 340 340" xmlns="http://www.w3.org/2000/svg" xmlns:xlink="http://www.w3.org/1999/xlink" xmlns:xml="http://www.w3.org/XML/1998/namespace" version="1.1"><g id="b" fill="#000"><g id="c"><g transform="translate(0, 0) translate(0, 224)" id="d"><ellipse cx="168.6" cy="53.1" rx="57.8" ry="12.8" fill-opacity="0.25" id="e" /></g><g id="f"><g transform="translate(105, 89.59998) translate(8, 107)" id="g"><path d="M17.9 35.7 C13.1 32.3 10.5 28 10 21.2 C9.9 20.1 0.7 17.8 0.4 21.9 C0.1 28 2.1 33.7 4.6 38.4 C7.9 44.5 15.6 50.4 23.9 50.4 L33.1 33.8 C29.3 37.3 22.1 38.7 17.9 35.7 z" id="h" fill="#725C54" /><path d="M0.4 21.9 C2 23.7 7 22.6 10 21.2 C9.9 20.1 9.9 19 9.9 17.8 C10.1 6.6 20 4.3 17.6 0.8 C15.2 -2.7 5.9 7.2 4.7 9 C1.9 13.4 0.6 17.8 0.4 21.9 z" id="i" fill="#3D2B26" /><path d="M0.4 21.9 C0.6 17.8 1.9 13.4 4.7 9 C5.9 7.2 15.2 -2.7 17.6 0.8 C20 4.3 10.1 6.6 9.9 17.8 C9.9 19 9.9 20.1 10 21.2 C10.5 28 13.1 32.3 17.9 35.7 C22.1 38.7 29.3 37.3 33.1 33.8 L23.9 50.4 C15.6 50.4 7.9 44.5 4.6 38.4 C2.1 33.7 0.1 28 0.4 21.9 z M5.8 10.5 C3.3 14.5 2.1 18.5 1.9 22.2 C1.6 27.7 3.4 32.9 5.7 37.1 C8.7 42.6 15.7 48 23.2 48 L30.2 36.8 C26.8 40 20.8 39.5 17 36.8 C12.7 33.7 9.7 31.4 9.2 25.3 C9.1 24.3 8.6 19.6 8.6 18.6 C8.9 8.4 19.2 2.4 16.5 0.9 C14.9 -1.2 6.9 8.9 5.8 10.5 z" opacity="0.15" id="j" /></g><g transform="translate(134.6333, 273.8) scale(0.9503106) translate(-132.3, -273.8) translate(111.1, 76.99997) translate(14, 151)" id="k"><path d="M21.4 0.7 C15.4 0.7 10.5 1.3 7.1 4.6 C3.7 7.9 0 10.4 0.4 18.5 C0.8 26.6 3.2 33.9 10.9 36.8 C6.8 39 6.4 40.4 6.8 43.2 C7.1 45.9 6.5 46.6 14 45.9 C19 45.5 23.5 45.2 27.5 45.2 C29.2 42.4 29.8 38.9 29.3 34.7 C30.6 32.1 35 17.8 32.3 12 C29.6 6.2 27.4 0.7 21.4 0.7 z" id="l" fill="#513A33" /><path d="M21.4 0.7 C27.4 0.7 29.6 6.2 32.3 12 C35 17.8 30.6 32.1 29.3 34.7 C29.8 38.9 29.2 42.4 27.5 45.2 C23.5 45.2 19 45.5 14 45.9 C6.5 46.6 7.1 45.9 6.8 43.2 C6.4 40.4 6.8 39 10.9 36.8 C3.2 33.9 0.8 26.6 0.4 18.5 C0 10.4 3.7 7.9 7.1 4.6 C10.5 1.3 15.4 0.7 21.4 0.7 z M21.1 1.4 C15.5 1.4 11 1.9 7.8 5 C4.6 8 1.2 10.3 1.6 17.9 C2 25.4 6 34.1 13.2 36.8 C9.4 38.9 7.8 38.9 8.2 41.5 C8.4 44 7.2 43.9 14.2 43.3 C18.8 42.9 23 42.6 26.7 42.6 C28.3 40 28.9 36.8 28.4 32.9 C29.6 30.5 33.7 17.2 31.2 11.8 C28.7 6.5 26.6 1.4 21.1 1.4 z" opacity="0.15" id="m" /></g><g transform="translate(202.8667, 273.8) scale(0.9503106) translate(-205.2, -273.8) translate(97.80001, 77.39996) translate(98, 175.5) scale(-1, 1) translate(-98, -175.5) translate(81, 151)" id="n"><path d="M22.1 0.7 C16.1 0.7 11.2 1.3 7.8 4.6 C4.4 7.9 0.6 10.4 1 18.5 C1.4 26.6 3.8 33.9 11.5 36.8 C7.4 39 7 40.4 7.4 43.2 C7.8 46 7.1 46.6 14.6 45.9 C19.6 45.5 24.1 45.2 28.1 45.2 C29.8 42.4 30.4 38.9 29.9 34.7 C31.2 32.1 35.6 17.8 32.9 12 C30.2 6.2 28 0.7 22.1 0.7 z" id="o" fill="#513A33" /><path d="M22.1 0.7 C28 0.7 30.2 6.2 32.9 12 C35.6 17.8 31.2 32.1 29.9 34.7 C30.4 38.9 29.8 42.4 28.1 45.2 C24.1 45.2 19.6 45.5 14.6 45.9 C7.1 46.6 7.8 46 7.4 43.2 C7 40.4 7.4 39 11.5 36.8 C3.8 33.9 1.4 26.6 1 18.5 C0.6 10.4 4.4 7.9 7.8 4.6 C11.2 1.3 16.1 0.7 22.1 0.7 z M21.8 1.1 C16.2 1.1 11.6 1.7 8.4 4.8 C5.2 7.9 1.6 10.2 2 17.8 C2.4 25.4 6.9 33.7 14.1 36.5 C10.3 38.5 8 38.9 8.4 41.5 C8.8 44.1 7.7 44.2 14.8 43.5 C19.5 43.1 23.7 42.9 27.4 42.9 C29 40.2 29.6 36.9 29.1 33 C30.3 30.6 34.5 17.1 31.9 11.7 C29.4 6.3 27.3 1.1 21.8 1.1 z" opacity="0.15" id="p" /></g><g transform="translate(109.1, 122.6) translate(23, 85)" id="q"><path d="M61.9 14 C58.4 7.7 55.3 4.6 50.9 3.5 C49.4 3.2 36.5 0.9 36.5 0.9 C36.5 0.9 23.6 3.2 22.1 3.5 C17.7 4.5 14.6 7.7 11.1 14 C5.5 23.9 6.8 33.7 7.4 45.2 C7.6 49 10.7 52.4 12.1 55.6 C14.6 61.3 16.7 66.1 21.6 68.7 C26.1 71.1 30.8 71.1 36.4 71.1 C42 71.1 46.8 71.1 51.2 68.7 C56.2 66 58.2 61.3 60.7 55.6 C62.1 52.4 65.2 48.9 65.4 45.2 C66.3 33.6 67.5 23.8 61.9 14 z" id="r" fill="#C6A67D" /><path d="M61.9 14 C67.5 23.8 66.3 33.6 65.4 45.2 C65.2 48.9 62.1 52.4 60.7 55.6 C58.2 61.3 56.2 66 51.2 68.7 C46.8 71.1 42 71.1 36.4 71.1 C30.8 71.1 26.1 71.1 21.6 68.7 C16.7 66.1 14.6 61.3 12.1 55.6 C10.7 52.4 7.6 49 7.4 45.2 C6.8 33.7 5.5 23.9 11.1 14 C14.6 7.7 17.7 4.5 22.1 3.5 C23.6 3.2 36.5 0.9 36.5 0.9 C36.5 0.9 49.4 3.2 50.9 3.5 C55.3 4.6 58.4 7.7 61.9 14 z M61.1 13.5 C57.7 7.5 54.7 4.5 50.4 3.5 C49 3.2 36.5 1 36.5 1 C36.5 1 24 3.2 22.5 3.5 C18.2 4.5 15.2 7.5 11.8 13.5 C6.4 23 7.7 32.3 8.3 43.3 C8.5 46.9 11.5 50.2 12.9 53.2 C15.3 58.6 17.4 63.2 22.1 65.7 C26.5 68 31 68 36.5 68 C42 68 46.6 68 50.9 65.7 C55.8 63.1 57.7 58.6 60.1 53.2 C61.5 50.1 64.5 46.8 64.7 43.3 C65.4 32.2 66.6 22.9 61.1 13.5 z" opacity="0.15" id="s" /></g><g transform="translate(139.098, 214.73) scale(0.7510033, 0.6480753) translate(-129.3, -203.1) translate(89.90001, 110.2) translate(78.5, 145.5) scale(-1, 1) translate(-78.5, -145.5) translate(39, 92)" id="t"><path d="M68.1 2.7 C65.6 5.6 57.8 23.3 40.2 24.2 C21.5 24.9 13.3 5.5 10.6 0.9 C7 8.7 1.1 13.8 0.5 26.6 C-0.1 39.4 4.4 46.5 6.7 52.8 C8.4 57.4 10.7 64.5 12.6 73.4 C13.3 76.6 15 81.2 15 84.3 C15.3 96.3 17.5 91.7 13.2 94.2 C8.9 96.7 5.2 101.6 6.7 104.5 C8.2 107.4 29.2 104.1 30.2 102.9 C30.7 102.3 30.9 95.4 30.7 74 C30.6 70.2 29.5 64.3 29.2 57 C29.1 53.6 30 50.6 29.7 46.2 C33.7 48.7 35.2 49.7 38.2 49.6 C41 49.7 42.2 48 46.8 45.5 C46.8 49.8 47.8 53.2 47.9 56.9 C48 63.8 47.3 70.3 47.2 74 C46.9 94.5 47.2 102.3 48 103.5 C49.2 105.2 56.8 106.1 70.8 106 C72.5 103.2 72.5 100.8 70.8 98.8 C69.1 96.8 66.2 94.7 62.2 92.4 C63.3 83.7 63.9 81.2 65.2 75.5 C66.2 71 67.7 62.7 68.7 60.2 C72.3 51.4 78.4 40.6 78.5 28.7 C78.6 16.8 72.4 8 68.1 2.7 z" id="u" fill="#E8CCA2" /><path d="M68.1 2.7 C72.4 8 78.5 16.8 78.4 28.7 C78.3 40.6 72.2 51.4 68.6 60.2 C67.6 62.8 66 71 65.1 75.5 C63.9 81.2 63.2 83.7 62.1 92.4 C66.1 94.7 69 96.8 70.7 98.8 C72.4 100.8 72.4 103.2 70.7 106 C56.7 106.1 49.1 105.2 47.9 103.5 C47.1 102.3 46.8 94.5 47.1 74 C47.2 70.3 47.9 63.8 47.8 56.9 C47.7 53.1 46.7 49.8 46.7 45.5 C42.1 48 40.9 49.7 38.1 49.6 C35.1 49.7 33.6 48.7 29.6 46.2 C30 50.6 29 53.6 29.2 57 C29.5 64.3 30.6 70.2 30.7 74 C30.9 95.4 30.7 102.3 30.2 102.9 C29.2 104.1 8.2 107.4 6.7 104.5 C5.2 101.6 8.9 96.7 13.2 94.2 C17.5 91.7 15.3 96.3 15 84.3 C14.9 81.1 13.2 76.6 12.6 73.4 C10.7 64.5 8.4 57.5 6.7 52.8 C4.4 46.5 -0.1 39.4 0.5 26.6 C1.1 13.8 7 8.7 10.6 0.9 C13.3 5.5 21.5 24.9 40.2 24.2 C57.8 23.3 65.6 5.6 68.1 2.7 z M68.1 3.9 C66.9 6.2 63.6 12.3 57.5 17.9 C52.5 22.5 44.3 27.3 38.5 27.3 C34.8 27.5 26 22.6 22.4 19.5 C17.8 15.6 11.8 5.2 10.6 1.4 C7.1 8.9 2.7 15.8 2.1 28 C1.5 40.2 5.9 45.5 8.1 51.5 C9.7 55.9 12.8 63.9 14.6 72.4 C15.2 75.4 16.9 80.5 17 83.5 C17.3 94.9 18.7 92.8 14.6 95.2 C10.5 97.6 7.6 99.2 9 101.9 C10.4 104.6 27 101.6 28 100.4 C28.5 99.8 28.8 95.8 28.6 75.4 C28.5 71.7 27.6 64.9 27.3 57.9 C27.2 54.7 26.9 46.1 26.6 41.9 C30.4 44.3 35 48 37.9 47.9 C40.6 48 45.9 43.8 50.3 41.4 C50.3 45.5 50.1 52.2 50.1 55.8 C50.2 62.3 49.2 68.8 49.2 72.3 C48.9 91.8 49.3 99.6 50 100.8 C51.1 102.4 55.2 104 68.5 103.9 C70.1 101.2 70.8 100.5 69.2 98.6 C67.6 96.7 64.2 95 60.4 92.8 C61.5 84.5 62.1 79.7 63.3 74.3 C64.2 70 65.8 62 66.8 59.5 C70.2 51.1 76.5 41.1 76.6 29.8 C76.6 18.6 72.2 8.9 68.1 3.9 z" opacity="0.15" id="v" /></g></g><g transform="translate(168.5, 215.6) scale(0.8607069) translate(-168.5, -215.6)" id="w"><g transform="translate(108.8, 104.6) translate(11, 26)" id="x"><path d="M5.5 77 C0.1 65.8 -0.6 51.2 1 39.1 C3.2 27.2 8.5 25.2 15.8 17.9 C23.1 10.6 25.8 0.2 49.1 0.3 C72.3 0.4 73.5 8.3 79.9 14.4 C86.3 20.4 92.4 23.4 96.2 30.6 C100 37.8 101.2 59.8 96.2 71.2 C92 80.9 80.7 92.2 66.3 92.4 C54.5 93 51.9 93.8 40.2 93.8 C28.5 93.8 11.5 88.2 5.5 77 z" id="y" fill="#725C54" /><path d="M5.5 77 C0.1 65.8 -0.6 51.2 1 39.1 C3.2 27.2 8.5 25.2 15.8 17.9 C23.1 10.6 25.8 0.2 49.1 0.3 C72.3 0.4 73.5 8.3 79.9 14.4 C86.3 20.4 92.4 23.4 96.2 30.6 C100 37.8 101.2 59.8 96.2 71.2 C92 80.9 80.7 92.2 66.3 92.4 C54.5 93 51.9 93.8 40.2 93.8 C28.5 93.8 11.5 88.2 5.5 77 z M7.3 74.8 C13 85.6 29.3 90.9 40.6 90.9 C51.9 90.9 54.3 90.1 65.7 89.6 C79.5 89.4 90.4 78.6 94.4 69.2 C99.2 58.3 98 37.1 94.4 30.2 C90.8 23.3 84.9 20.4 78.7 14.6 C72.6 8.8 71.4 1.2 49.1 1.2 C26.7 1.1 24.1 11.1 17.1 18.1 C10.1 25.1 5 27 2.9 38.4 C1.4 50 2.1 64.1 7.3 74.8 z" opacity="0.15" id="z" /></g><g transform="translate(137.3, 150.8) scale(0.8) translate(-137.3, -150.8) translate(95.90001, 105.1) translate(16, 0)" id="a1"><g id="b1"><path d="M27.8 10.3 C24.4 3.6 20.9 -0.6 19.4 0.1 C16.2 1.6 11.7 10.8 8.9 17.1 C4.7 22.1 0.8 27.6 0.3 34.1 C1.2 33.3 2.1 32.4 3 31.6 C1.5 36.6 1.5 42.1 3.2 47.1 C3.5 46.3 3.8 45.5 4.2 44.7 C5.2 50.9 7.8 57.6 13.6 56.5 C22.4 54.8 36.6 44.1 38.7 35.7 C40.4 28.5 32.1 18.9 27.8 10.3 z" id="c1" fill="#725C54" /><path d="M27.8 10.3 C32.1 18.9 40.4 28.5 38.7 35.7 C36.6 44.1 22.4 54.8 13.6 56.5 C7.8 57.6 5.2 50.9 4.2 44.7 C3.8 45.5 3.5 46.3 3.2 47.1 C1.5 42.1 1.5 36.6 3 31.6 C2.1 32.4 1.2 33.3 0.3 34.1 C0.8 27.6 4.7 22.1 8.9 17.1 C11.7 10.8 16.2 1.6 19.4 0.1 C20.9 -0.6 24.4 3.6 27.8 10.3 z M26.9 10.9 C23.9 4.9 20.7 1.2 19.4 1.8 C16.6 3.1 12.5 11.3 10 17 C6.2 21.5 2.8 25 2.4 30.8 C3.2 30.1 4.1 29.7 4.9 29 C3.6 33.5 2.3 38.1 3.8 42.6 C4.1 41.9 5.4 40.9 5.8 40.2 C6.7 45.7 9 53.2 14.2 52.3 C22.1 50.8 34.8 41.2 36.6 33.7 C38.2 27.2 30.8 18.6 26.9 10.9 z" opacity="0.15" id="d1" /><path d="M25 34.7 C26.2 33.7 27.6 32.5 29 31.9 C25 31.5 20.8 32.4 17.3 34.5 C19.1 29.2 23.9 26.3 29.5 27 C29.5 26.9 29.5 26.9 29.4 26.8 C28.1 25.8 25.2 24.8 23.1 25.1 C24.3 22.1 24.6 20.1 25.8 17.1 C24.4 17.4 22.3 16.9 20.6 18.2 L19.7 15.6 C19.7 15.6 22.4 12.4 23.4 12.3 C21.9 9.8 20.5 8.2 19.5 8.3 C14.8 8.8 13.9 20 11.5 28.5 C10 33.6 9.2 44.3 11.5 48.5 C13.1 51.6 18.1 45.7 21.3 44.4 C21.3 44.4 26.6 40.2 30.6 40.3 C30.7 40.3 30.8 40.3 30.9 40.2 C29.5 37.8 27.5 35.9 25 34.7 z" id="e1" fill="#B58164" /></g></g><g transform="translate(201.4, 150.8) scale(0.8) translate(-201.4, -150.8) translate(110.2, 105.1) translate(97.5, 28.5) scale(-1, 1) translate(-97.5, -28.5) translate(78, 0)" id="f1"><path d="M0.3 34.1 C0.7 27.5 4.6 22.1 8.9 17.1 C11.7 10.8 16.2 1.6 19.4 0.1 C20.9 -0.6 24.4 3.7 27.8 10.3 C32.1 18.9 40.3 28.5 38.6 35.6 C36.2 46.2 22.4 55.5 13.5 56.4 C7.7 57 5.2 50.6 4.1 44.6 C3.7 45.4 3.4 46.2 3.1 47 C1.5 42 1.4 36.5 2.9 31.5 C2.1 32.4 1.2 33.3 0.3 34.1 z" id="g1" fill="#725C54" /><path d="M27.8 10.3 C32.1 18.9 40.4 28.5 38.7 35.7 C36.6 44.1 22.4 54.8 13.6 56.5 C7.8 57.6 5.2 50.9 4.2 44.7 C3.8 45.5 3.5 46.3 3.2 47.1 C1.5 42.1 1.5 36.6 3 31.6 C2.1 32.4 1.2 33.3 0.3 34.1 C0.8 27.6 4.7 22.1 8.9 17.1 C11.7 10.8 16.2 1.6 19.4 0.1 C20.9 -0.6 24.4 3.6 27.8 10.3 z M26.9 10.9 C23.9 4.9 20.7 1.2 19.4 1.8 C16.5 3.1 12.5 11.3 10 17 C6.2 21.5 2.8 25 2.4 30.8 C3.2 30.1 4.1 29.7 4.9 29 C3.6 33.5 2.3 38.1 3.8 42.6 C4.1 41.9 5.4 40.9 5.8 40.2 C6.7 45.7 9 53.2 14.2 52.3 C22.1 50.8 34.8 41.2 36.6 33.7 C38.2 27.2 30.8 18.6 26.9 10.9 z" opacity="0.15" id="h1" /><path d="M11.6 28.3 C14.1 19.8 14.9 8.6 19.6 8.1 C20.7 8 22.2 9.5 23.7 12 C22.3 12.9 19.9 15.4 19.9 15.4 L20.8 18 C22.4 16.7 24.5 17.2 26 16.9 C24.8 19.9 24.5 21.9 23.3 24.9 C25.5 24.5 28.7 25.8 29.9 26.8 C24.2 26.1 19.3 28.9 17.5 34.3 C21 32.2 25.1 31.3 29.2 31.7 C27.7 32.3 26.4 33.5 25.2 34.5 C27.5 35.6 29.4 37.4 30.8 39.5 C27.8 41.4 26 42.4 21.9 45.3 C18.1 48 13.4 51.4 11.8 48.3 C9.3 44.1 10.1 33.5 11.6 28.3 z" id="i1" fill="#B58164" /></g><g id="j1"><g transform="translate(111.2, 130.6) translate(20, 34)" id="k1"><g transform="translate(0, 11)" id="l1"><path d="M72.8 26.1 C76.1 26.8 75.1 26.5 78.7 28.4 C75.2 10.7 62.4 6 51.7 5.2 C48.7 2.4 44.6 0.6 39.5 0.6 C34.4 0.6 30.3 2.4 27.3 5.2 C16.6 6 3.7 10.7 0.3 28.4 C3.9 26.5 3 26.8 6.2 26.1 C3.1 28.8 1.5 32 3.9 39.7 C6.9 37.2 6.2 35.5 8.9 33.8 C6.3 37 7 42.1 8.5 46.6 C9.2 45.3 9.7 43.9 12 41.6 C11.5 44.8 13.1 47.3 14.5 49.7 C15.6 47.8 16.2 45.2 16.7 42.4 C18 43.3 19.4 44 20.9 44.7 C23.6 47.9 25.7 49.1 28.3 50 C28 48.8 28.1 48.2 28.1 47 C30 48.6 31.9 49.2 33.6 50.8 C33.8 49.4 33.8 49.2 33.9 47.8 C35.1 51.3 36.8 52 39.5 54.4 C42.3 52 43.9 51.2 45.2 47.8 C45.4 49.2 45.4 49.4 45.5 50.8 C47.2 49.1 49.1 48.6 50.8 47 C51 48.3 51.1 48.8 50.8 50 C53.4 49.1 55.5 47.8 58.2 44.7 C59.7 44 61.1 43.2 62.4 42.4 C62.9 45.2 63.5 47.9 64.6 49.7 C66 47.3 67.6 44.8 67.1 41.6 C69.4 43.9 69.9 45.3 70.6 46.6 C72.1 42.1 72.8 37 70.2 33.8 C72.9 35.5 72.2 37.2 75.2 39.7 C77.4 32.1 75.8 28.8 72.8 26.1 z" id="m1" fill="#FEFEFE" /><path d="M72.8 26.1 C76.1 26.8 75.1 26.5 78.7 28.4 C77.1 20.5 73.7 15.2 69.5 11.7 C71.3 14.7 72.5 17.2 73.3 22.4 C71.3 21.1 69.2 21 66.3 19.7 C68.5 23.7 68.9 28.8 67.1 33.1 C66.2 31.7 65.1 30.1 62.8 28.7 C63.3 34.5 62.3 36.5 61.5 37.5 C60.3 31.2 58.4 25.4 51.4 25.4 C46.7 27.4 42.5 27.4 39.5 23 C36.5 27.5 32.3 27.4 27.6 25.4 C20.7 25.4 18.7 31.2 17.5 37.5 C16.7 36.5 15.7 34.5 16.2 28.7 C13.9 30.1 12.8 31.6 11.9 33.1 C10.1 28.8 10.5 23.6 12.7 19.7 C9.8 21 7.8 21.1 5.7 22.4 C6.5 17.2 7.7 14.7 9.5 11.7 C5.2 15.2 1.8 20.5 0.3 28.4 C3.9 26.5 3 26.8 6.2 26.1 C3.1 28.8 1.5 32 3.9 39.7 C6.9 37.2 6.2 35.5 8.9 33.8 C6.3 37 7 42.2 8.5 46.6 C9.2 45.3 9.7 43.9 12 41.6 C11.5 44.8 13.1 47.3 14.5 49.7 C15.6 47.8 16.2 45.2 16.7 42.4 C18 43.3 19.4 44 20.9 44.7 C23.6 47.9 25.7 49.1 28.3 50 C28 48.8 28.1 48.2 28.1 47 C28.2 47 28.2 47 28.3 47 C30 48.6 31.9 49.2 33.6 50.8 C33.8 49.4 33.8 49.2 33.9 47.8 C35.1 51.3 36.8 52 39.5 54.4 C42.3 52 43.9 51.2 45.2 47.8 C45.4 49.2 45.4 49.4 45.5 50.8 C47.2 49.1 49.1 48.6 50.8 47 C50.9 47 50.9 47 51 47 C51 48.3 51.1 48.8 50.8 50 C53.4 49.1 55.5 47.8 58.2 44.7 C59.7 44 61.1 43.2 62.4 42.4 C62.9 45.2 63.5 47.9 64.6 49.7 C66 47.3 67.6 44.8 67.1 41.6 C69.4 43.9 69.9 45.3 70.6 46.6 C72.1 42.1 72.8 37 70.2 33.8 C72.9 35.5 72.2 37.2 75.2 39.7 C77.4 32.1 75.8 28.8 72.8 26.1 z" id="n1" fill="#EDEEEF" /><path d="M72.8 26.1 C75.8 28.8 77.4 32.1 75.2 39.7 C72.2 37.2 72.9 35.5 70.2 33.8 C72.8 37 72.1 42.1 70.6 46.6 C69.9 45.3 69.4 43.9 67.1 41.6 C67.6 44.8 66 47.3 64.6 49.7 C63.5 47.9 62.9 45.2 62.4 42.4 C61.1 43.2 59.7 44 58.2 44.7 C55.5 47.8 53.4 49.1 50.8 50 C51.1 48.8 51 48.3 51 47 C50.9 47 50.9 47 50.8 47 C49.1 48.6 47.2 49.1 45.5 50.8 C45.4 49.4 45.4 49.2 45.2 47.8 C43.9 51.2 42.3 52 39.5 54.4 C36.8 52 35.1 51.3 33.9 47.8 C33.8 49.2 33.8 49.4 33.6 50.8 C31.9 49.2 30 48.6 28.3 47 C28.2 47 28.2 47 28.1 47 C28.1 48.2 28 48.8 28.3 50 C25.7 49.1 23.6 47.9 20.9 44.7 C19.4 44 18 43.3 16.7 42.4 C16.2 45.2 15.6 47.8 14.5 49.7 C13.1 47.3 11.5 44.8 12 41.6 C9.7 43.9 9.2 45.3 8.5 46.6 C7 42.1 6.3 37 8.9 33.8 C6.2 35.5 6.9 37.2 3.9 39.7 C1.5 32 3.1 28.8 6.2 26.1 C3 26.8 3.9 26.5 0.3 28.4 C3.7 10.7 16.6 6 27.3 5.2 C30.3 2.4 34.4 0.6 39.5 0.6 C44.6 0.6 48.7 2.4 51.7 5.2 C62.4 6 75.2 10.7 78.7 28.4 C75.1 26.5 76.1 26.8 72.8 26.1 z M70.4 24.3 C73.5 25 73.5 24.1 76.9 25.9 C75.3 17.6 71 13.1 66.2 10.2 C61.4 7.4 55.9 6 50.9 5.6 C48.1 3 44.3 1.3 39.5 1.3 C34.7 1.3 30.9 3 28.1 5.6 C18 6.4 6 8.6 2.9 25.2 C6.3 23.4 6.4 25.3 9.4 24.7 C6.5 27.2 2.3 28.7 4.5 36 C6.4 34.4 8.6 33 11.3 31.6 C8.9 34.6 7.7 37.7 9.1 41.9 C9.8 40.7 11.4 40.4 13.6 38.3 C13.1 41.3 12.7 44.4 14.1 46.6 C15.1 44.8 15.7 42.2 16.2 39.5 C17.4 40.3 20.3 42.9 21.7 43.5 C24.2 46.5 24.9 47 27.3 47.9 C27 46.8 27.3 45.5 27.3 44.4 C27.4 44.4 31.6 46.8 33.2 48.3 C33.4 47 33.1 46.5 33.2 45.2 C34.3 48.5 37 49.4 39.6 51.7 C42.2 49.5 44.6 48.7 45.8 45.5 C46 46.8 46 47 46.1 48.3 C47.7 46.7 49.8 45.9 51.4 44.4 C51.8 44.4 52.3 45.4 53 47.3 C54.9 45.1 56.3 43.6 57.1 42.6 C58.5 41.9 61.8 40.8 63 40.1 C63.5 42.7 63.7 44.9 64.7 46.6 C66 44.4 66.7 41.9 66.2 38.9 C68.4 41.1 69.8 42.4 70.4 43.6 C71.3 40.8 70.9 36.7 69.2 31.4 C71.7 33 72 34.7 74.8 37 C76.9 29.7 73.2 26.9 70.4 24.3 z" opacity="0.15" id="o1" /></g></g><g transform="translate(109.6, 125.3) translate(51, 68)" id="p1"><g id="q1"><path d="M19.3 10.7 C18.9 10.3 18.2 10.4 17.8 10.8 C16.9 11.8 15.3 13 13.7 13.1 C12.8 13.1 11.9 12.7 11.1 11.9 L11.1 1.5 C11.1 0.9 10.6 0.4 10 0.4 C9.4 0.4 8.9 0.9 8.9 1.5 L8.9 11.9 C8.1 12.7 7.3 13.1 6.3 13.1 C4.7 13.1 3.1 11.9 2.2 10.8 C1.8 10.4 1.2 10.3 0.7 10.7 C0.3 11.1 0.2 11.7 0.6 12.2 C1.8 13.6 4 15.2 6.3 15.2 C7.5 15.2 8.7 14.8 9.8 13.9 C9.9 13.9 9.9 13.9 10 13.9 C10.1 13.9 10.1 13.9 10.2 13.9 C11.2 14.7 12.4 15.2 13.7 15.2 C16 15.2 18.2 13.6 19.4 12.2 C19.9 11.7 19.8 11.1 19.3 10.7 z" id="r1" fill="#282421" /></g></g><g transform="translate(103.7, 96.79996) translate(59, 84)" id="s1"><g id="t1"><path d="M14.8 1.5 C14 0 10.9 2 8 2 C5.1 2 2 0 1.2 1.5 C0.4 3 0.7 6.3 2.4 8.9 C3.6 10.7 8 10.9 8 10.9 C8 10.9 12.4 10.6 13.6 8.9 C15.3 6.3 15.6 3 14.8 1.5 z" id="u1" fill="#282421" /><path d="M9.3 3.5 C8.9 3.8 8.4 4.1 8.4 4.6 C8.4 5 8.8 5.3 9.1 5.4 C9.5 5.5 9.9 5.5 10.2 5.4 C11.1 5.3 12 5.2 12.6 4.7 C13.4 4 13.6 2.8 12.5 2.5 C11.6 2.2 10.1 3 9.3 3.5 z" id="v1" fill="#F5FAFC" /></g></g><g transform="translate(108.5, 124.7) translate(40, 35)" id="w1"><g id="x1"><path d="M17.3 3.9 C16.9 3.3 14.9 2 13.6 1.4 C10.9 0.2 8.6 1 6.3 1.9 C4.8 2.5 1.9 3.8 1.2 5.3 C0.4 6.9 0.8 8.9 1.7 10.4 C3.4 13.4 6.8 15.4 10.2 14.9 C11.7 14.7 14.8 12.4 16.6 9.5 C17.5 11 16.8 13.9 17.1 13.9 C17.5 13.9 21.4 8.8 17.3 3.9 z" id="y1" fill="#FFF" /><path d="M2.7 4.7 C4.3 2.4 10.9 -0.6 13 1.3 C17.7 5.4 12.9 11.7 9.1 11.9 C5.2 12.1 0.5 7.9 2.7 4.7 z" id="z1" fill="#282421" /><path d="M8.2 3.9 C6.9 3.5 6.3 3.7 5.7 4.2 C5.1 4.7 4.7 5.6 5 6.3 C5.5 7.3 7 7.1 7.9 6.6 C8.8 6 8.8 6 10.9 5.4 C10 4.6 9.4 4.3 8.2 3.9 z" id="a2" fill="#FEFEFE" /></g></g><g transform="translate(96.89999, 124.7) translate(74, 35)" id="b2"><g id="c2"><path d="M18.9 5.2 C18.2 3.7 15.3 2.4 13.8 1.8 C11.5 0.9 9.2 0.1 6.5 1.3 C5.2 1.9 3.9 2.7 2.8 3.8 C-1.3 8.8 2.6 13.8 2.9 13.8 C3.2 13.8 2.5 10.9 3.4 9.4 C5.1 12.2 8.3 14.5 9.8 14.8 C13.2 15.3 16.6 13.3 18.3 10.3 C19.3 8.8 19.7 6.9 18.9 5.2 z" id="d2" fill="#FFF" /><path d="M17.5 4.7 C15.9 2.4 9.3 -0.6 7.2 1.3 C2.5 5.4 7.3 11.7 11.1 11.9 C15 12.1 19.7 7.9 17.5 4.7 z" id="e2" fill="#282421" /><path d="M10.6 3.5 C9.3 3.1 8.7 3.3 8.1 3.8 C7.5 4.3 7.1 5.2 7.4 5.9 C7.9 6.9 9.4 6.7 10.3 6.2 C11.2 5.6 11.2 5.6 13.3 5 C12.4 4.2 11.9 3.9 10.6 3.5 z" id="f2" fill="#FEFEFE" /></g></g></g></g></g></g><defs><g transform="translate(17.09519, 0.800995) translate(-135.2952, -293.601)" id="g2" fill="#000"><path d="M118.2 302.7 C118.4 307.4 132.5 311.2 149.8 311.2 C167.1 311.2 181.2 307.4 181.4 302.7 C181.4 307.5 181.4 310.1 181.4 310.5 C181.4 315.3 167.3 319.1 149.8 319.1 C132.3 319.1 118.2 315.2 118.2 310.5 L118.2 302.7 L118.2 302.7 z" fill-opacity="0.4528" id="h2" fill="#593001" /><path d="M118.7 301.7 C118.9 306.4 133 310.2 150.3 310.2 C167.6 310.2 181.7 306.4 181.9 301.7 C181.9 306.5 181.9 309.1 181.9 309.5 C181.9 314.3 167.8 318.1 150.3 318.1 C132.8 318.1 118.7 314.2 118.7 309.5 L118.7 301.7 L118.7 301.7 z" id="i2" fill="#DA8113" /><linearGradient x1="46.0545" y1="-118.6926" x2="45.4656" y2="-118.6926" gradientUnits="userSpaceOnUse" gradientTransform="matrix(117.135, 0, 0, 28.4634, -5208.417, 3687.795)" id="j2"><stop offset="0%" stop-color="#D9952A" stop-opacity="1" /><stop offset="6.438854%" stop-color="#CA7519" stop-opacity="1" /><stop offset="30.54%" stop-color="#E3AD3A" stop-opacity="1" /><stop offset="51.05%" stop-color="#FFEC91" stop-opacity="1" /><stop offset="68.8%" stop-color="#E9BD44" stop-opacity="1" /><stop offset="86.24%" stop-color="#FFED6C" stop-opacity="1" /><stop offset="93.87%" stop-color="#F2D353" stop-opacity="1" /><stop offset="100%" stop-color="#F2B947" stop-opacity="1" /></linearGradient><path d="M118.2 301.6 C118.4 306.1 132.7 309.7 150.3 309.7 C167.9 309.7 182.2 306.1 182.4 301.6 C182.4 306.2 182.4 308.7 182.4 309 C182.4 313.5 168 317.2 150.3 317.2 C132.6 317.2 118.2 313.5 118.2 309 L118.2 301.6 L118.2 301.6 z" id="k2" style="fill:url(#j2)" /><linearGradient x1="45.4914" y1="-117.9547" x2="45.9407" y2="-117.5895" gradientUnits="userSpaceOnUse" gradientTransform="matrix(115.425, 0, 0, 29.925, -5125.077, 3826.124)" id="l2"><stop offset="0%" stop-color="#F4E072" stop-opacity="1" /><stop offset="100%" stop-color="#DB9427" stop-opacity="1" /></linearGradient><ellipse cx="150.3" cy="301.5" rx="31.6" ry="8.2" id="m2" style="fill:url(#l2)" /><linearGradient x1="45.4656" y1="-126.0065" x2="46.0545" y2="-126.0065" gradientUnits="userSpaceOnUse" gradientTransform="matrix(117.135, 0, 0, 18.6219, -5208.417, 2651.479)" id="n2"><stop offset="0%" stop-color="#D9952A" stop-opacity="1" /><stop offset="6.438854%" stop-color="#CA7519" stop-opacity="1" /><stop offset="30.54%" stop-color="#E3AD3A" stop-opacity="1" /><stop offset="51.05%" stop-color="#FFEC91" stop-opacity="1" /><stop offset="68.8%" stop-color="#E9BD44" stop-opacity="1" /><stop offset="86.24%" stop-color="#FFED6C" stop-opacity="1" /><stop offset="93.87%" stop-color="#F2D353" stop-opacity="1" /><stop offset="100%" stop-color="#F2B947" stop-opacity="1" /></linearGradient><path d="M119.2 299.9 C119 300.2 118.9 300.6 118.9 301 C118.9 305.5 132.9 309.2 150.3 309.2 C167.7 309.2 181.7 305.5 181.7 301 C181.7 300.6 181.6 300.3 181.4 299.9 C182 300.5 182.4 301.2 182.4 301.9 C182.4 306.4 168 310.1 150.3 310.1 C132.6 310.1 118.2 306.4 118.2 301.9 C118.2 301.3 118.6 300.6 119.2 299.9 z" id="o2" style="fill:url(#n2)" /><linearGradient x1="45.196" y1="-121.5895" x2="45.3746" y2="-120.6758" gradientUnits="userSpaceOnUse" gradientTransform="matrix(101.745, 0, 0, 23.94, -4458.332, 3199.41)" id="p2"><stop offset="0%" stop-color="#F8DD61" stop-opacity="1" /><stop offset="100%" stop-color="#EAA330" stop-opacity="1" /></linearGradient><ellipse cx="150.3" cy="300.8" rx="27.8" ry="6.6" id="q2" style="fill:url(#p2)" /><linearGradient x1="45.5694" y1="-134.267" x2="45.0221" y2="-134.267" gradientUnits="userSpaceOnUse" gradientTransform="matrix(101.745, 0, 0, 13.2525, -4458.332, 2077.223)" id="r2"><stop offset="0%" stop-color="#F4CA2F" stop-opacity="1" /><stop offset="51.38%" stop-color="#BF7737" stop-opacity="1" /><stop offset="100%" stop-color="#E4A929" stop-opacity="1" /></linearGradient><path d="M122.6 301.5 C122.5 301.3 122.4 301 122.4 300.8 C122.4 297.2 134.9 294.2 150.2 294.2 C165.5 294.2 178 297.1 178 300.8 C178 301 177.9 301.3 177.8 301.5 C176.3 298.2 164.5 295.6 150.1 295.6 C135.7 295.6 124.1 298.2 122.6 301.5 z" id="s2" style="fill:url(#r2)" /></g></defs><desc>KD95OFCAJDF,JpktgEK9XIsFOKbpHRXSqmIIDMOaA7hqLN0G4BZSQsQpjBDbcz+5rbQAdMuUsjAFEthmX56OsSUfsiNSlOWnEnxqP54EMGVa9ebkIyOZoO8naKF7wzF+FzbH+fvDWtf5</desc></svg>