<?xml version="1.0" encoding="utf-8"?><!DOCTYPE svg PUBLIC "-//W3C//DTD SVG 1.1//EN" "http://www.w3.org/Graphics/SVG/1.1/DTD/svg11.dtd"><svg x="0" y="0" width="340px" height="340px" viewBox="0, 0, 340, 340" preserveAspectRatio="xMidYMid" font-size="0" id="a" enable-background="new 0 0 340 340" xmlns="http://www.w3.org/2000/svg" xmlns:xlink="http://www.w3.org/1999/xlink" xmlns:xml="http://www.w3.org/XML/1998/namespace" version="1.1"><g id="b" fill="#000"><g id="c"><g transform="translate(0, 0) translate(0, 224)" id="d"><ellipse cx="168.6" cy="53.1" rx="57.8" ry="12.8" fill-opacity="0.25" id="e" /></g><g id="f"><g transform="translate(84.7, 88.19998) translate(32.5, 177.5) scale(-1, 1) translate(-32.5, -177.5) translate(0, 152)" id="g"><path d="M29.6 27.4 C51.4 29 52.4 37.4 52 41.3 C51.9 42.7 50.9 42.4 48.4 43.4 C46.1 44.4 45.7 45.2 43.7 45.6 C41.5 46 39.1 46 38.3 47.2 C37.5 48.4 34.2 51 37 50.7 C37.5 50.6 40.4 50.7 41.6 50.7 C42.8 50.7 45.7 48.5 46.2 48.5 C46.4 48.5 44 50.8 44.2 50.7 C45.2 50.5 48.9 47.9 49.9 47.7 C51.5 47.3 51 49.2 52.6 48.7 C53.9 48.2 57.3 45.3 58.4 44.7 C59.3 44.2 58.8 46.1 59.5 45.6 C60.2 45 62.1 41.1 62.5 40.4 C62.9 39.7 63.2 39.8 63.4 39.1 C63.6 38.3 63 35.1 63 34.3 C63 33.1 64.7 34.8 64.2 33.6 C63.8 32.7 62.7 29.4 62.1 28.5 C61.3 27.4 60.2 26 59 25 C58.3 24.4 60.7 25.7 62.1 26.6 C63.5 27.5 62 24 60.3 22.2 C59.2 21.1 56.3 19.1 55.2 18.9 C53.4 18.5 50.6 17.6 48 17.3 C46.6 17.1 44.6 17.4 44.4 17.3 C43.1 16.9 50 17 51.1 16.6 C51.7 16.4 50.5 15.9 49.2 15.4 C48.6 15.2 47 14.9 46.3 14.8 C45 14.7 42.4 14.3 39.8 14.4 C37.9 14.4 35.6 14.9 35.4 14.8 C33.8 14.4 40.2 13.9 38.5 13.5 C37.2 13.2 29.5 13.3 28.1 13 C21.3 12 16.4 15.5 10.1 17 C3.4 18.6 -3.8 23.7 3.9 27.4 C7.9 29.4 17.9 26.5 29.6 27.4 z" id="h" fill="#EFEFEF" /><path d="M26.9 29.4 C29.4 29.6 33.4 29.1 35.3 29.4 C35.7 29.5 38.9 30.1 40 30.7 C41.6 31.6 43.1 33.8 44.1 33.8 C45 33.8 43.5 30.7 44.1 31 C45.6 31.7 45.5 34 46.3 34.2 C47.1 34.5 47 32.8 48 34.2 C48.9 35.4 49.1 37.7 49.6 38 C50.5 38.5 50.5 35.7 51 36.3 C51.6 36.9 50.8 38.4 51 38.9 C51.6 40.2 51.9 39.6 51.7 40.9 C51.6 41.7 51.1 42.8 50.1 43.4 C50.2 43.4 50.6 43.1 50.6 43.1 C54.8 40 56 37.6 55 35.2 C54.4 33.8 56.2 33.7 55 32.2 C54.3 31.3 51.2 28.9 49.6 28.1 C48.4 27.5 51.3 27.4 49.6 26.7 C48.6 26.3 42.2 25.7 41.1 25.5 C39.5 25.1 42.2 24.7 40.2 24.3 C35.7 23.4 25.8 22.3 19.5 21 C15.1 20.8 11.3 21.5 8.1 23.2 C4.9 24.9 4 26.5 5.3 28.1 C5.3 28.4 13.3 28.3 14.8 29.1 C19.6 29.4 21.3 28.9 26.9 29.4 z" id="i" fill="#FFF" /><path d="M5.1 27.8 C4.7 27.7 4.3 27.6 3.9 27.4 C-3.8 23.7 3.4 18.6 10.1 17 C16.4 15.5 21.3 12 28.1 13 C29.5 13.3 37.2 13.2 38.5 13.5 C40.2 13.9 33.8 14.4 35.4 14.8 C35.6 14.9 37.9 14.4 39.8 14.4 C42.4 14.3 45 14.7 46.3 14.8 C47 14.9 48.6 15.2 49.2 15.4 C50.5 15.9 51.7 16.4 51.1 16.6 C50 17 43.1 16.9 44.4 17.3 C44.6 17.4 46.6 17.1 48 17.3 C50.6 17.6 53.4 18.5 55.2 18.9 C56.3 19.1 59.2 21.1 60.3 22.2 C62 24 63.5 27.5 62.1 26.6 C60.7 25.7 58.3 24.4 59 25 C60.2 26 61.3 27.4 62.1 28.5 C62.7 29.4 63.8 32.7 64.2 33.6 C64.7 34.8 63 33.1 63 34.3 C63 35.1 63.6 38.3 63.4 39.1 C63.2 39.8 62.9 39.7 62.5 40.4 C62.1 41.1 60.2 45 59.5 45.6 C58.8 46.1 59.3 44.2 58.4 44.7 C57.3 45.3 53.9 48.2 52.6 48.7 C51 49.2 51.5 47.3 49.9 47.7 C48.9 47.9 45.2 50.5 44.2 50.7 C44 50.8 46.4 48.5 46.2 48.5 C45.7 48.5 42.8 50.7 41.6 50.7 C40.4 50.7 37.5 50.6 37 50.7 C34.2 51 37.5 48.4 38.3 47.2 C39.1 46 41.5 46 43.7 45.6 C45.7 45.2 46.1 44.4 48.4 43.4 C49.6 42.9 50.5 42.7 51 42.5 C51.4 42 51.6 41.4 51.7 40.9 C51.9 39.6 51.6 40.2 51 38.9 C50.8 38.4 51.6 36.9 51 36.3 C50.5 35.7 50.5 38.5 49.6 38 C49.1 37.7 48.9 35.4 48 34.2 C47 32.8 47.1 34.5 46.3 34.2 C45.5 34 45.6 31.7 44.1 31 C43.5 30.7 45 33.8 44.1 33.8 C43.1 33.8 41.6 31.6 40 30.7 C38.9 30.1 35.7 29.5 35.3 29.4 C33.4 29.1 29.4 29.6 26.9 29.4 C21.3 28.9 19.6 29.4 14.8 29.1 C13.3 28.3 5.3 28.4 5.3 28.1 C5.2 28 5.2 27.9 5.1 27.8 z M10.2 26.9 C10.5 27.1 10.9 27.2 11.3 27.3 C11.3 27.4 11.4 27.4 11.5 27.5 C11.5 27.8 18.5 27.7 19.9 28.4 C24.1 28.7 25.6 28.2 30.5 28.7 C32.8 28.9 34.5 27.6 36.2 27.9 C36.6 28 39.3 29 40.2 29.6 C41.6 30.4 42.6 32.4 43.5 32.4 C44.3 32.4 42.6 29.3 43.2 29.6 C44.5 30.2 45.9 32.5 46.6 32.7 C47.3 32.9 48.3 31.7 49.2 32.9 C50 34 49.4 35.6 49.8 35.9 C50.6 36.3 50.9 33.9 51.3 34.4 C51.9 34.9 51.7 36.6 51.8 37.1 C52.4 38.2 52.6 37.7 52.5 38.8 C52.4 39.3 52.6 40.9 52.2 41.4 C51.7 41.6 51.2 43.1 50.1 43.5 C48.1 44.4 48.9 44.5 47.2 44.8 C44.9 46.1 40 46.7 39.3 47.8 C38.6 48.8 36.1 50.2 38.6 50 C39 49.9 42.1 48.4 43.2 48.4 C44.2 48.4 46.7 46.1 47.2 46.1 C47.3 46.1 47.9 47.6 48 47.5 C48.9 47.3 50 45 50.9 44.8 C52.3 44.5 51.8 46.2 53.3 45.7 C54.4 45.3 57.4 42.7 58.4 42.2 C59.2 41.8 59.7 42.9 60.3 42.5 C60.9 42 61.6 39 62 38.4 C62.4 37.8 62.2 37.7 62.4 37.1 C62.6 36.4 61.6 34.1 61.6 33.4 C61.6 32.3 63.2 34 62.8 32.9 C62.4 32.1 61.4 28.9 60.8 28.1 C60.1 27.2 58.8 25.3 57.7 24.4 C57.1 23.9 58.9 24 60.1 24.8 C61.3 25.6 60.4 23.8 58.9 22.2 C57.9 21.2 54.8 19.7 53.8 19.6 C52.2 19.2 46.2 18.4 43.9 18.1 C42.6 17.9 39.6 17.8 39.5 17.7 C38.3 17.4 41 17 41.9 16.6 C42.5 16.4 50 16.4 48.9 16 C48.3 15.8 46.4 15.5 45.8 15.4 C44.7 15.3 44.2 15.3 41.9 15.4 C40.3 15.4 33.1 15.1 32.9 15 C31.5 14.7 37.7 14.2 36.2 13.8 C35.1 13.6 30 14.1 28.8 13.8 C22.8 12.9 21.3 16.4 15.7 17.7 C9.8 19.1 3.4 23.6 10.2 26.9 z" opacity="0.15" id="j" /></g><g transform="translate(129.08, 273.9) scale(0.7392157) translate(-125.7, -273.9) translate(108.5, 104.5) translate(11, 124)" id="k"><path d="M5.5 31.6 C4 25 -4.5 8.1 4.9 2.8 C11.3 -0.8 29.6 0.5 37.7 7.3 C45.8 14.2 46.2 40.5 24.1 25 C20 22.1 30.1 37 24.8 45 C21.8 49.6 7.3 50.2 3.5 45.6 C-0.1 41.2 6.3 35.3 5.5 31.6 z" id="l" fill="#C8BBB5" /><path d="M5.4 33.3 C4.6 33.9 3.7 34.2 2.7 34.2 C4.1 32.7 4.8 30.6 4.6 28.6 C4.5 28.4 4.5 28.2 4.4 27.9 C8.2 26 22.2 17.3 25.8 14.2 C25.8 17.2 29.4 22.5 28.2 26.7 C26.7 31.5 30 36.9 24.8 44.9 C21.8 49.5 7.3 50.1 3.5 45.5 C0.4 41.8 4.6 37 5.4 33.3 z" id="m" fill="#EDEEEF" /><path d="M4.9 2.8 C11.3 -0.8 29.6 0.5 37.7 7.3 C45.3 13.8 46.1 37.3 28 27.4 C27.1 31.8 29.5 36.8 25.4 43.8 C25.2 44.2 25 44.6 24.8 44.9 C21.8 49.5 7.3 50.1 3.5 45.5 C2.9 44.8 2.6 44.1 2.5 43.3 C1.8 40 4.8 36.2 5.4 33.2 C4.6 33.8 3.7 34.1 2.7 34.1 C4.1 32.6 4.8 30.5 4.6 28.5 C4.5 28.3 4.5 28.1 4.4 27.8 C1.8 20.1 -3.1 7.3 4.9 2.8 z M5.5 3.2 C-1.6 7.3 3.9 19 6.2 26.2 C6.3 26.5 6.3 26.7 6.4 26.8 C6.6 28.6 5.9 31 4.6 32.4 C5.5 32.4 7.2 30.9 8 30.3 C7.4 33.1 3.9 37.3 4.5 40.4 C4.6 41.1 4.9 41.8 5.4 42.4 C8.8 46.6 21.7 46.1 24.4 41.8 C24.6 41.5 24.8 41.1 25 40.8 C28.6 34.3 25.9 29.2 26.7 25.2 C42.9 34.2 44.1 14.1 37.4 8.2 C30.2 2 11.2 -0.1 5.5 3.2 z" opacity="0.15" id="n" /></g><g transform="translate(211.32, 273.9) scale(0.7392157) translate(-214.7, -273.9) translate(112.6, 104.5) translate(86, 148) scale(-1, 1) translate(-86, -148) translate(64, 123)" id="o"><path d="M5.5 32.6 C4 26 -5.2 7.6 4.9 3.8 C30.4 -6.1 41.7 9.9 43.4 18.9 C45.8 31.2 30.5 28 24 26 C19.2 24.5 30 38 24.7 46 C21.7 50.6 7.2 51.2 3.4 46.6 C-0.1 42.2 6.3 36.3 5.5 32.6 z" id="p" fill="#C8BBB5" /><path d="M5.5 34.3 C4.7 34.9 3.8 35.2 2.8 35.2 C4.2 33.7 4.9 31.6 4.7 29.6 C4.6 29.4 4.6 29.2 4.5 28.9 C8.3 27 22.3 18.3 25.9 15.2 C25.9 18.2 25.3 21.7 24.1 25.9 C22.6 30.7 30.1 37.9 24.8 45.9 C21.8 50.5 7.3 51.1 3.5 46.5 C0.4 42.8 4.7 38 5.5 34.3 z" id="q" fill="#EDEEEF" /><path d="M4.9 3.8 C11.3 0.2 29.6 1.5 37.7 8.3 C45.3 14.8 46.1 38.3 28 28.4 C27.1 32.8 29.5 37.8 25.4 44.8 C25.2 45.2 25 45.6 24.8 45.9 C21.8 50.5 7.3 51.1 3.5 46.5 C2.9 45.8 2.6 45.1 2.5 44.3 C1.8 41 4.8 37.2 5.4 34.2 C4.6 34.8 3.7 35.1 2.7 35.1 C4.1 33.6 4.8 31.5 4.6 29.5 C4.5 29.3 4.5 29.1 4.4 28.8 C1.8 21.1 -3.1 8.3 4.9 3.8 z M5.5 4.2 C-1.6 8.3 3.9 20 6.2 27.2 C6.3 27.5 6.3 27.7 6.4 27.8 C6.6 29.6 5.9 32 4.6 33.4 C5.5 33.4 7.2 31.9 8 31.3 C7.4 34.1 3.9 38.3 4.5 41.4 C4.6 42.1 4.9 42.8 5.4 43.4 C8.8 47.6 21.7 47.1 24.4 42.8 C24.6 42.5 24.8 42.1 25 41.8 C28.6 35.3 25.9 30.2 26.7 26.2 C42.9 35.2 44.1 15.1 37.4 9.2 C30.2 3 11.2 0.9 5.5 4.2 z" opacity="0.15" id="r" /></g><g transform="translate(105.2, 117.8) translate(21, 73)" id="s"><path d="M10.5 29 C2.2 36.2 3.6 47.2 4 51.8 C4.7 60 6.7 69.2 8.3 74.5 C9.9 79.9 11.9 86.2 19.8 86.7 C27.8 87.2 59 87.2 66.6 86.1 C74.2 84.9 75 84 77.5 78 C81 69.8 88.1 42.5 80.2 33.2 C78.3 31 77 29.6 75.1 28.2 C70.8 25.2 65.8 23.2 62.9 20.8 C60.2 18.6 55.6 14.7 54.8 14 C53 12.4 49.5 11.4 43.9 11.5 C40.1 11.6 36.6 13.5 35.1 14.5 C33.6 15.5 32.2 17.8 26.6 20.7 C21.7 23.6 14.9 25.5 10.5 29 z" id="t" fill="#E4E3E1" /><path d="M68.1 85.4 C56.4 86.5 47.8 87 42.1 87 C35.6 87 22 86.9 15.8 85.4 C13.5 84.8 12.8 82.9 12.9 82.3 C13.1 80.9 14.4 79.5 16.9 78.3 L26.7 74.4 L26.7 74.6 C32.5 72.5 37.4 71.5 41.3 71.5 C47.1 71.5 54.2 70.8 55.5 71.4 L66.8 74.6 C70.6 76 71.7 77.7 72.3 78.3 C73.4 79.3 74 79.4 74 81.4 C74 83.4 73 83.7 71.8 84.5 C71 84.8 69.8 85.2 68.1 85.4 z" id="u" fill="#C8BBB5" /><path d="M10.5 29 C14.9 25.5 21.7 23.6 26.6 20.7 C32.2 17.8 33.6 15.5 35.1 14.5 C36.6 13.5 40.1 11.6 43.9 11.5 C49.5 11.4 53 12.4 54.8 14 C55.6 14.7 60.2 18.6 62.9 20.8 C65.8 23.2 70.8 25.2 75.1 28.2 C77 29.6 78.3 31 80.2 33.2 C88.1 42.5 81 69.8 77.5 78 C75 84 74.2 84.9 66.6 86.1 C59 87.2 27.8 87.2 19.8 86.7 C11.9 86.2 9.9 79.9 8.3 74.5 C6.7 69.2 4.7 60 4 51.8 C3.6 47.2 2.2 36.2 10.5 29 z M12 28.9 C4.1 35.8 5.4 46.2 5.8 50.6 C6.5 58.4 8.4 67.2 9.9 72.2 C11.4 77.3 13.3 83.4 20.9 83.8 C28.5 84.3 58.3 84.3 65.5 83.2 C72.7 82.1 73.5 81.2 75.9 75.5 C79.2 67.7 86 41.7 78.5 32.8 C76.7 30.7 75.4 29.4 73.6 28 C69.5 25.1 64.7 23.2 62 20.9 C59.4 18.8 55 15.1 54.3 14.4 C52.6 12.9 49.2 11.9 43.9 12 C40.3 12.1 36.9 13.9 35.5 14.9 C34.1 15.9 32.7 18 27.4 20.8 C22.7 23.8 16.2 25.6 12 28.9 z" opacity="0.15" id="v" /><path d="M41 46.4 C51.1 48.7 74.9 44.4 76 27.8 C69.6 20.2 62.8 20.2 60.1 15 C57.5 9.8 57 7.3 55.6 2.9 C54.8 0.1 35.4 -1.1 31.8 1.3 C29.7 1.5 28.2 7.5 24.6 15 C22.1 20.9 20 18.3 11 28.6 C12 43.4 31.4 46 41 46.4 z" id="w" fill="#C8BBB5" /></g><g fill-rule="evenOdd" transform="translate(131.8615, 222.52) scale(0.9484615, 0.5938895) translate(-129.8, -221.3) translate(104.2, 130.8) translate(65.5, 141.5) scale(-1, 1) translate(-65.5, -141.5) translate(25, 90)" id="x"><path d="M11.6 59.6 C8.7 45.7 0.4 49.4 0.4 27.5 C0.4 14.8 3.7 10 8 0.5 C19 12.8 30.8 15.8 40.4 17.2 C50 15.8 61.9 12.9 72.8 0.5 C77.1 10 80.4 14.8 80.4 27.5 C80.4 49.4 72.1 45.7 69.2 59.6 C68.4 63.3 64.3 74.3 60.3 74.6 C57.1 74.8 53.9 65.5 53.9 61 C53.9 55.5 53.7 50.8 53.3 47.7 C52.5 41.2 48.3 39.3 40.2 35.5 C32.2 39.3 28 41.2 27.1 47.7 C26.7 51 26.5 56.1 26.5 62 C26.5 67.2 22.2 75.8 18.3 74.5 C15.3 73.4 12.3 62.8 11.6 59.6 z" id="y" fill="#FFF" /><path d="M6.7 100.5 C6.9 96.5 7.2 93.2 12.1 90.1 C13.4 82 13 68.4 11.8 61.1 C13.9 65.1 17.4 71.8 19.7 71.3 C21.6 70.9 25.3 64.7 26.8 60.9 C26.8 71 27.2 83.3 27.6 91.4 C30.6 93.8 30.9 99.1 30.6 100.2 C29 103.6 8.7 102.1 6.7 100.5 z" id="z" fill="#E4E3E1" /><path d="M74.3 100.5 C74.1 96.5 73.8 93.2 68.9 90.1 C67.6 82 68 68.4 69.2 61.1 C67.1 65.1 63.6 71.8 61.3 71.3 C59.4 70.9 55.7 64.7 54.2 60.9 C54.2 71 53.8 83.3 53.4 91.4 C50.4 93.8 50.1 99.1 50.4 100.2 C52 103.6 72.3 102.1 74.3 100.5 z" id="a1" fill="#E4E3E1" /><path d="M15.2 26.8 C16 25.9 17.5 26.2 18.6 26.5 C21.1 27.2 23.6 27.4 26.2 27.3 C31 26.2 36.7 25.3 40.4 25.3 C44.1 25.3 49.8 26.2 54.6 27.3 C57.2 27.4 59.7 27.2 62.2 26.5 C63.4 26.2 64.9 25.8 65.6 26.8 C66.1 27.4 66.1 28.2 66 29 C65.9 29.8 65.7 30.6 65.4 31.4 C64.9 32.6 64.3 33.8 63.5 34.9 C60.6 41.8 60.6 51.7 56.9 52.4 C52.5 53.2 53.4 46.5 52.6 44.3 C51.3 41 47.3 38.4 40.5 37.6 C33.7 38.4 29.7 41 28.4 44.3 C27.5 46.5 28.5 53.2 24.1 52.4 C20.4 51.7 20.4 41.8 17.5 34.9 C16.7 33.9 16 32.7 15.6 31.4 C15.3 30.6 15.1 29.8 15 29 C14.8 28.3 14.8 27.4 15.2 26.8 z" id="b1" fill="#E4E3E1" /><path d="M53.5 50 C53.1 48.6 53 46.9 52.9 45.6 C52.2 43.4 51.1 41.8 49.3 40.5 C47.2 39.1 44.3 38 40.5 37.6 C33.7 38.4 29.7 41 28.4 44.3 C27.8 45.9 28.1 49.6 26.8 51.5 C26.6 54.3 26.5 57.8 26.5 61.6 C26.6 61.4 26.7 61.1 26.8 60.9 C26.8 71 27.2 83.3 27.6 91.4 C30.6 93.8 30.9 99.1 30.6 100.2 C29 103.6 8.7 102.1 6.7 100.5 C6.9 96.5 7.2 93.2 12.1 90.1 C13.4 82 13 68.4 11.8 61.1 C11.9 61.3 12 61.5 12.1 61.7 C11.9 60.9 11.7 60.1 11.6 59.6 C8.7 45.7 0.4 49.4 0.4 27.5 C0.4 14.8 3.7 10 8 0.5 C19 12.8 30.8 15.8 40.4 17.2 C50 15.8 61.9 12.9 72.8 0.5 C77.1 10 80.4 14.8 80.4 27.5 C80.4 49.4 72.1 45.7 69.2 59.6 C69 60.4 68.7 61.6 68.2 63 C68.6 62.3 68.9 61.7 69.2 61.1 C68 68.4 67.6 82 68.9 90.1 C73.8 93.2 74.1 96.5 74.3 100.5 C72.3 102.1 52 103.6 50.4 100.2 C50.1 99.1 50.4 93.8 53.4 91.4 C53.8 84.1 54.1 73.3 54.2 63.8 C54 62.8 53.9 61.8 53.9 61 C53.9 56.7 53.8 52.9 53.5 50 z M53.8 45.9 C54 46.7 54.1 48.4 54.3 50.9 C54.6 53.7 54.8 56.5 54.8 60.5 C54.8 61.2 55 64.5 55.1 65.5 C55.1 74.4 55.1 84.9 54.8 91.7 C52 94 51.5 96.3 51.8 97.4 C53.3 100.5 70.3 98.9 72.1 97.4 C71.9 93.6 72.6 94 68 91.1 C66.8 83.5 66.2 67.3 67.4 60.5 C67.2 60.7 68 57 70.4 52.3 C72 49.4 75.2 46.7 76.5 42 C77.5 38.3 78.6 33.1 78.2 28.7 C77.3 16.9 75.4 12.6 71.4 3.8 C61.2 15.4 49.4 19.4 40.4 20.7 C31.4 19.4 19.2 15.3 8.9 3.8 C4.8 12.6 3 17.1 3 29 C3 49.5 10.7 46.1 13.4 59.1 C13.5 59.6 13.7 60.3 13.9 61.1 C13.8 60.9 13.7 60.7 13.6 60.5 C14.8 67.3 14.8 83 13.6 90.6 C9 93.5 9 93.6 8.9 97.4 C10.7 98.9 27.6 101.6 29.1 98.4 C29.3 97.4 29.3 94 26.5 91.7 C26.2 84.2 25.8 61.6 25.7 61.8 C25.7 58.2 26.1 53.3 26.5 50.9 C27 48.6 26.7 44.9 27.3 43.4 C28.6 40.3 34 37.2 40.4 36.4 C44 36.9 48.7 38.9 50.7 40.2 C52.3 41.5 53.2 43.9 53.8 45.9 z" opacity="0.15" id="c1" /></g></g><g id="d1"><g transform="translate(169.7, 218) scale(0.9, 1) translate(-169.7, -218) translate(104.4, 103.6) translate(3, 0)" id="e1"><g id="f1"><path d="M11.9 56.5 C7.4 51.8 1.1 33.7 0.8 24.4 C0.5 15.1 3.9 2.8 7.6 0.9 C12.2 -0.6 20.2 6.9 27.1 16.4 C34 25.8 37.5 28.4 38.8 30.9 C40.1 33.4 40 35.2 37.1 39 C36.1 40.3 34.3 41.7 32.1 44.5 C30.6 46.4 27.9 52.2 24.6 55.7 C20.7 59.9 14.7 59.5 11.9 56.5 z" id="g1" fill="#FFF" /><path d="M11.9 56.5 C7.4 51.8 1.1 33.7 0.8 24.4 C0.5 15.1 3.9 2.8 7.6 0.9 C12.2 -0.6 20.2 6.9 27.1 16.4 C34 25.8 37.5 28.4 38.8 30.9 C40.1 33.4 40 35.2 37.1 39 C36.1 40.3 34.3 41.7 32.1 44.5 C30.6 46.4 27.9 52.2 24.6 55.7 C20.7 59.9 14.7 59.5 11.9 56.5 z M12.5 52.6 C15.1 55.3 20.6 55.7 24.3 51.9 C27.4 48.7 29.9 43.4 31.2 41.7 C33.2 39.2 34.9 37.9 35.8 36.7 C38.5 33.2 37 32 35.8 29.7 C34.6 27.4 31.7 25 25.3 16.5 C18.9 7.8 12.8 0.7 8.5 2 C5.1 3.8 2 14.9 2.2 23.4 C2.4 31.9 8.3 48.3 12.5 52.6 z" opacity="0.15" id="h1" /><path d="M12 44.1 C9.7 39.8 6.2 33.1 5.6 28.8 C5 24.6 5.3 20.2 5.6 17.4 C5.9 14.5 6.9 8.2 9.3 5.6 C12.4 2.8 18.2 14 22.4 19.8 C25.2 23.7 28.3 27.9 31.5 32.4 C32 36.4 31.4 39.3 29.7 40.9 C27.1 43.3 25.6 49.3 22.4 50.6 C19.3 52 14.4 48.4 12 44.1 z" id="i1" fill="#FFB8B3" /><path d="M24 35.1 C21.5 34.1 16.2 28.2 16.2 32.3 C16.2 34 16.2 37 18.5 41.9 C19.4 43.8 21.2 46.4 24 49.7 C25.2 48.4 26 47.1 26.5 45.9 C26.8 45.2 27.4 43.9 28.6 42.2 C29.1 41.5 30.1 40.9 30.7 39.8 C31 39.2 31.4 38 31.7 36.2 C28.2 36.2 25.7 35.8 24 35.1 z" fill-opacity="0.1459" id="j1" fill="#010101" /></g></g><g transform="translate(169.7, 218) scale(0.9, 1) translate(-169.7, -218) translate(116, 99.59998) translate(96, 28.5) scale(-1, 1) translate(-96, -28.5) translate(76, 0)" id="k1"><g id="l1"><path d="M10.8 53.5 C6.6 48.1 1.1 33.7 0.8 24.4 C0.5 15.1 3.9 2.8 7.6 0.9 C12.2 -0.6 20.2 6.9 27.1 16.4 C34 25.8 37.5 28.4 38.8 30.9 C40.1 33.4 40 35.2 37.1 39 C36.1 40.3 34.3 41.7 32.1 44.5 C30.6 46.4 28.1 49.2 26.8 51 C22.7 56.9 14.7 58.6 10.8 53.5 z" id="m1" fill="#FFF" /><path d="M10.8 53.5 C6.6 48.1 1.1 33.7 0.8 24.4 C0.5 15.1 3.9 2.8 7.6 0.9 C12.2 -0.6 20.2 6.9 27.1 16.4 C34 25.8 37.5 28.4 38.8 30.9 C40.1 33.4 40 35.2 37.1 39 C36.1 40.3 34.3 41.7 32.1 44.5 C30.6 46.4 28.1 49.2 26.8 51 C22.7 56.9 14.7 58.6 10.8 53.5 z M11.1 50.6 C14.6 55.3 21.8 53.7 25.5 48.3 C26.7 46.6 28.9 44 30.3 42.3 C32.3 39.7 33.9 38.4 34.8 37.2 C37.4 33.7 37.5 32 36.3 29.7 C35.1 27.4 32 25 25.8 16.3 C19.6 7.5 12.4 0.6 8.3 2 C5 3.7 1.9 15.1 2.2 23.7 C2.5 32.3 7.4 45.6 11.1 50.6 z" opacity="0.15" id="n1" /><path d="M12 44.1 C9.7 39.8 6.2 33.1 5.6 28.8 C5 24.6 5.3 20.2 5.6 17.4 C5.9 14.5 6.9 8.2 9.3 5.6 C12.4 2.8 18.2 14 22.4 19.8 C25.2 23.7 28.3 27.9 31.5 32.4 C32 36.4 31.4 39.3 29.7 40.9 C27.1 43.3 25.6 49.3 22.4 50.6 C19.3 52 14.4 48.4 12 44.1 z" id="o1" fill="#FFB8B3" /><path d="M24 35.1 C21.5 34.1 16.2 28.2 16.2 32.3 C16.2 34 16.2 37 18.5 41.9 C19.4 43.8 21.2 46.4 24 49.7 C25.2 48.4 26 47.1 26.5 45.9 C26.8 45.2 27.4 43.9 28.6 42.2 C29.1 41.5 30.1 40.9 30.7 39.8 C31 39.2 31.4 38 31.7 36.2 C28.2 36.2 25.7 35.8 24 35.1 z" fill-opacity="0.1459" id="p1" fill="#010101" /></g></g><g transform="translate(169.7, 218) scale(0.9, 1) translate(-169.7, -218) translate(105.2, 117.8) translate(11, 4)" id="q1"><path d="M13.1 100.8 C26 110.4 41.7 108.9 54.5 108.5 C69.5 108.1 82.4 109.3 95.6 99.6 C120.5 81.3 107.4 67 105.9 38.5 C104.9 19.5 91.6 8.7 65.8 6 L65.8 0.4 L62.2 6 L59.8 0.4 L59.8 3.7 L51.9 0.4 L53.3 6 C25.5 5.4 10.2 16.9 7.6 40.5 C4.7 66.1 -8.7 84.7 13.1 100.8 z" id="r1" fill="#C8BBB5" /><path d="M13.1 100.8 C-8.7 84.7 4.7 66.1 7.6 40.5 C10.2 16.9 25.5 5.4 53.3 6 L51.9 0.4 L59.8 3.7 L59.8 0.4 L62.2 6 L65.9 0.4 L65.9 6.1 C91.7 8.8 105 19.6 106 38.6 C107.5 67.1 120.6 81.4 95.7 99.7 C82.5 109.4 69.6 108.2 54.6 108.6 C41.7 109 26 110.4 13.1 100.8 z M15.3 97.3 C27.5 106.5 42.4 105.1 54.6 104.7 C68.8 104.3 81.1 105.5 93.6 96.2 C117.2 78.7 104.8 65 103.4 37.8 C102.5 19.6 89.9 9.6 65.4 7 L65.5 2.1 L62.2 7.6 L60.2 2.3 L60.5 5.1 L52.4 1.3 L54.3 7 C28 6.4 12.6 17 10.1 39.6 C7.3 64 -5.3 81.9 15.3 97.3 z" opacity="0.15" id="s1" /></g><g transform="translate(171.7, 185) scale(1.3, 1.15) translate(-171.7, -189)" id="t1"><g transform="translate(98.7, 118.9) translate(55, 59)" id="u1"><g transform="translate(0, 4)" id="v1"><g opacity="0.15" transform="translate(0, 1)" id="w1"><path d="M18.3 38.8 C14.7 42.1 10.7 42.8 6.5 40.8 C0.1 37.8 -0.1 31.7 0.7 27.2 C1.4 23.5 6.2 19.9 8.8 14.6 C10.9 10 11.4 8.6 12.8 4.7 C14.2 0.8 19.4 -1.6 22.8 4.1 C24.5 7 25.2 9.9 27.1 13.8 C28.8 17.5 33.6 21.5 34.5 23.9 C36.4 28.8 35.2 35.7 32.7 38.7 C31.8 39.8 29 41.6 26 41.6 C23.2 41.7 20.6 40.7 18.3 38.8 z" stroke="#000000" stroke-width="2" opacity="0.15" id="x1" /></g><path d="M18.3 38.8 C14.7 42.1 10.7 42.8 6.5 40.8 C0.1 37.8 0.8 31.9 1.6 27.4 C2 24.9 5.7 19.8 8.3 14.5 C10.4 9.9 11.6 5 12.4 3.7 C14.3 0.8 20.1 -2 23.5 3.7 C25.2 6.6 26.2 10.4 28.1 14.3 C29.8 18 32.9 21.4 33.8 23.8 C35.7 28.7 35.2 35.7 32.7 38.7 C31.8 39.8 29 41.6 26 41.6 C23.2 41.7 20.6 40.7 18.3 38.8 z" id="y1" fill="#DDD5CD" /></g></g><g transform="translate(171.7, 217.5) scale(0.9) translate(-171.7, -217.5) translate(93.3, 134.9) translate(65, 74)" id="z1"><path d="M4.2 17 C7.4 16.4 9.1 15 10.5 13.9 C11.4 13.2 12.4 12.3 13.4 11.1 C14.7 12.7 15.6 13.7 16.2 14.1 C17 14.8 19.4 16.3 20.9 16.9 C22.4 17.5 26.3 17.8 26.3 17.2 C26.3 16.6 21.8 15.9 20.2 14.7 C18.6 13.5 17 12.5 15.9 11 C14.9 9.6 15.3 8.6 15.2 7 C15.1 5 15.4 2.8 15.5 1.3 C15.6 -0.7 12.3 -0.1 12.3 1.3 C12.3 2.7 12.3 4.8 12.3 6.6 C12.3 8.4 11.6 10.6 10.2 11.8 C8.8 13 6.9 14.5 4.8 15.3 C3.5 15.8 0.8 16.4 0.9 17 C0.8 17.4 2.9 17.3 4.2 17 z" id="a2" fill="#282421" /></g><g transform="translate(104.6, 135.6) translate(56, 65)" id="b2"><g id="c2"><path d="M20.3 1.6 C18.3 -0.6 14.7 0.3 11.1 0.3 C7.5 0.3 3.9 -0.6 1.9 1.6 C-0.1 3.8 -0.1 7.6 1.9 9.8 C3.3 11.3 4.7 12.2 6.6 13.2 C8.2 14.1 9.3 16.2 11 16.4 C12.8 16.2 13.8 14 15.4 13.2 C17.4 12.2 18.8 11.3 20.1 9.8 C22.3 7.6 22.3 3.9 20.3 1.6 z" id="d2" fill="#282523" /><path d="M16.8 3.2 C16.6 2.6 15.3 2.5 14.4 2.3 C12.8 2 10.5 2.2 7.8 2.2 C7.1 2.2 6.4 2.2 5.7 2.5 C5 2.8 4.6 3.5 4.7 4.2 C4.9 5.4 6.4 5.6 7.6 5.6 C9.5 5.6 11.5 5.6 13.4 5.5 C14.2 5.5 15 5.5 15.8 5.1 C16.6 4.7 17.1 4 16.8 3.2 z" id="e2" fill="#FEFEFE" /></g></g><g transform="translate(90.7, 146.9) translate(55, 18)" id="f2"><g id="g2"><path d="M1.8 10.9 C4.2 6.6 6.4 6 7.9 4.5 C10.3 2 13.9 0.3 14.6 0.8 C15.3 1.3 20.6 9.2 21.3 10.1 C22.5 11.8 22.5 14.4 21.3 17.7 C21 18.5 19.9 19.4 17.9 20.4 C15.3 21.1 12.7 21.4 10 21.3 C8.7 21.2 5.6 20.7 4.5 21 C2.1 21.6 2.1 23.1 1.5 21.9 C0.5 20.2 -0.8 15.7 1.8 10.9 z" id="h2" fill="#D3C6C1" /><path d="M17.4 18.2 C18.6 16.3 17.8 14 17.1 12.5 C16.3 10.7 14.6 9.9 13.7 9.5 C11.2 8.4 9.2 8.8 7.3 10.4 C5.4 12 3.8 15 3.8 16.6 C3.8 18.2 7.9 19.8 11 19.8 C14.2 19.6 16.3 20.1 17.4 18.2 z" id="i2" /><path d="M13.1 12.7 C13.1 11.5 12.1 10.5 10.9 10.5 C9.8 10.5 8.8 11.5 8.8 12.8 C8.8 14.1 9.8 15 11 15 C11 14.9 11 14.9 11 14.8 C10.8 14.3 10.9 13.8 11.4 13.2 C12 12.7 12.5 12.6 13.1 12.7 z" id="j2" fill="#FFFFFE" /></g></g><g transform="translate(86.7, 146.9) translate(89, 18)" id="k2"><path d="M20.5 10.9 C18.1 6.5 15.9 6 14.4 4.5 C12 2 8.4 0.3 7.7 0.8 C7 1.3 2.4 8.2 1.3 10 C-0.2 12.3 0.7 16.7 3 19.2 C5.3 21.7 8.2 21.5 12.3 21.2 C13.6 21.1 16.7 20.6 17.8 20.9 C20.2 21.5 20.2 23 20.8 21.8 C21.7 20.2 23 15.7 20.5 10.9 z" id="l2" fill="#D3C6C1" /><g transform="translate(5, 9)" id="m2"><path d="M1.1 8.8 C0 6.9 0.9 4.7 1.6 3.3 C2.4 1.7 4.2 0.9 5.1 0.6 C7.6 -0.3 9.6 0.2 11.4 1.8 C13.2 3.4 14.7 6.4 14.5 7.9 C14.3 9.4 10.3 10.7 7.3 10.6 C4.2 10.3 2.2 10.6 1.1 8.8 z" id="n2" /><path d="M8.7 4 C8.7 2.8 7.7 1.9 6.5 1.9 C5.4 1.9 4.4 2.9 4.4 4.1 C4.4 5.3 5.4 6.3 6.6 6.3 C6.6 6.2 6.6 6.2 6.6 6.1 C6.4 5.6 6.5 5.1 7 4.6 C7.6 4 8.1 3.9 8.7 4 z" id="o2" fill="#FFFFFE" /></g></g></g></g></g></g><defs><g transform="translate(17.09519, 0.800995) translate(-135.2952, -293.601)" id="p2" fill="#000"><path d="M118.2 302.7 C118.4 307.4 132.5 311.2 149.8 311.2 C167.1 311.2 181.2 307.4 181.4 302.7 C181.4 307.5 181.4 310.1 181.4 310.5 C181.4 315.3 167.3 319.1 149.8 319.1 C132.3 319.1 118.2 315.2 118.2 310.5 L118.2 302.7 L118.2 302.7 z" fill-opacity="0.4528" id="q2" fill="#593001" /><path d="M118.7 301.7 C118.9 306.4 133 310.2 150.3 310.2 C167.6 310.2 181.7 306.4 181.9 301.7 C181.9 306.5 181.9 309.1 181.9 309.5 C181.9 314.3 167.8 318.1 150.3 318.1 C132.8 318.1 118.7 314.2 118.7 309.5 L118.7 301.7 L118.7 301.7 z" id="r2" fill="#DA8113" /><linearGradient x1="46.0545" y1="-118.6926" x2="45.4656" y2="-118.6926" gradientUnits="userSpaceOnUse" gradientTransform="matrix(117.135, 0, 0, 28.4634, -5208.417, 3687.795)" id="s2"><stop offset="0%" stop-color="#D9952A" stop-opacity="1" /><stop offset="6.438854%" stop-color="#CA7519" stop-opacity="1" /><stop offset="30.54%" stop-color="#E3AD3A" stop-opacity="1" /><stop offset="51.05%" stop-color="#FFEC91" stop-opacity="1" /><stop offset="68.8%" stop-color="#E9BD44" stop-opacity="1" /><stop offset="86.24%" stop-color="#FFED6C" stop-opacity="1" /><stop offset="93.87%" stop-color="#F2D353" stop-opacity="1" /><stop offset="100%" stop-color="#F2B947" stop-opacity="1" /></linearGradient><path d="M118.2 301.6 C118.4 306.1 132.7 309.7 150.3 309.7 C167.9 309.7 182.2 306.1 182.4 301.6 C182.4 306.2 182.4 308.7 182.4 309 C182.4 313.5 168 317.2 150.3 317.2 C132.6 317.2 118.2 313.5 118.2 309 L118.2 301.6 L118.2 301.6 z" id="t2" style="fill:url(#s2)" /><linearGradient x1="45.4914" y1="-117.9547" x2="45.9407" y2="-117.5895" gradientUnits="userSpaceOnUse" gradientTransform="matrix(115.425, 0, 0, 29.925, -5125.077, 3826.124)" id="u2"><stop offset="0%" stop-color="#F4E072" stop-opacity="1" /><stop offset="100%" stop-color="#DB9427" stop-opacity="1" /></linearGradient><ellipse cx="150.3" cy="301.5" rx="31.6" ry="8.2" id="v2" style="fill:url(#u2)" /><linearGradient x1="45.4656" y1="-126.0065" x2="46.0545" y2="-126.0065" gradientUnits="userSpaceOnUse" gradientTransform="matrix(117.135, 0, 0, 18.6219, -5208.417, 2651.479)" id="w2"><stop offset="0%" stop-color="#D9952A" stop-opacity="1" /><stop offset="6.438854%" stop-color="#CA7519" stop-opacity="1" /><stop offset="30.54%" stop-color="#E3AD3A" stop-opacity="1" /><stop offset="51.05%" stop-color="#FFEC91" stop-opacity="1" /><stop offset="68.8%" stop-color="#E9BD44" stop-opacity="1" /><stop offset="86.24%" stop-color="#FFED6C" stop-opacity="1" /><stop offset="93.87%" stop-color="#F2D353" stop-opacity="1" /><stop offset="100%" stop-color="#F2B947" stop-opacity="1" /></linearGradient><path d="M119.2 299.9 C119 300.2 118.9 300.6 118.9 301 C118.9 305.5 132.9 309.2 150.3 309.2 C167.7 309.2 181.7 305.5 181.7 301 C181.7 300.6 181.6 300.3 181.4 299.9 C182 300.5 182.4 301.2 182.4 301.9 C182.4 306.4 168 310.1 150.3 310.1 C132.6 310.1 118.2 306.4 118.2 301.9 C118.2 301.3 118.6 300.6 119.2 299.9 z" id="x2" style="fill:url(#w2)" /><linearGradient x1="45.196" y1="-121.5895" x2="45.3746" y2="-120.6758" gradientUnits="userSpaceOnUse" gradientTransform="matrix(101.745, 0, 0, 23.94, -4458.332, 3199.41)" id="y2"><stop offset="0%" stop-color="#F8DD61" stop-opacity="1" /><stop offset="100%" stop-color="#EAA330" stop-opacity="1" /></linearGradient><ellipse cx="150.3" cy="300.8" rx="27.8" ry="6.6" id="z2" style="fill:url(#y2)" /><linearGradient x1="45.5694" y1="-134.267" x2="45.0221" y2="-134.267" gradientUnits="userSpaceOnUse" gradientTransform="matrix(101.745, 0, 0, 13.2525, -4458.332, 2077.223)" id="a3"><stop offset="0%" stop-color="#F4CA2F" stop-opacity="1" /><stop offset="51.38%" stop-color="#BF7737" stop-opacity="1" /><stop offset="100%" stop-color="#E4A929" stop-opacity="1" /></linearGradient><path d="M122.6 301.5 C122.5 301.3 122.4 301 122.4 300.8 C122.4 297.2 134.9 294.2 150.2 294.2 C165.5 294.2 178 297.1 178 300.8 C178 301 177.9 301.3 177.8 301.5 C176.3 298.2 164.5 295.6 150.1 295.6 C135.7 295.6 124.1 298.2 122.6 301.5 z" id="b3" style="fill:url(#a3)" /></g></defs><desc>28CH2OI5D8I,Xb9mY214N2gww06sUtQ39ANBgiCTv9PGVslXECU5o9Y0o3qF4Uqs4aIscQC8PhcV10WVP53slVc9yg5YGs3rhn+0c4HUANpB4tu1RgzM6chtI19Sdq4wAoFkIw1k1vdf+KbNJm3RYC2IhSoobLzuLcn+6lLtbmszuLA80M61bvs=</desc></svg>