<?xml version="1.0" encoding="utf-8"?><!DOCTYPE svg PUBLIC "-//W3C//DTD SVG 1.1//EN" "http://www.w3.org/Graphics/SVG/1.1/DTD/svg11.dtd"><svg x="0" y="0" width="340px" height="340px" viewBox="0, 0, 340, 340" preserveAspectRatio="xMidYMid" font-size="0" id="a" enable-background="new 0 0 340 340" xmlns="http://www.w3.org/2000/svg" xmlns:xlink="http://www.w3.org/1999/xlink" xmlns:xml="http://www.w3.org/XML/1998/namespace" version="1.1"><g id="b" fill="#000"><g transform="translate(210.1952, 245.501)" id="c"><ellipse cx="32.5" cy="17.5" rx="37.3" ry="13.2" opacity="0.15" id="d" /><use xlink:href="#e" x="0.86" y="0" /><use xlink:href="#e" x="-1.89" y="-10.7" /></g><g transform="translate(64.99519, 245.001)" id="f"><ellipse cx="32.5" cy="17.5" rx="37.3" ry="13.2" opacity="0.15" id="g" /><use xlink:href="#e" x="0.97" y="0" /><use xlink:href="#e" x="-0.73" y="-10.7" /></g></g><g id="h" fill="#000"><g id="i"><g transform="translate(0, 0) translate(0, 224)" id="j"><ellipse cx="168.6" cy="53.1" rx="57.8" ry="12.8" fill-opacity="0.25" id="k" /></g><g id="l"><g transform="translate(87.89999, 88.09998) translate(32.5, 177.5) scale(-1, 1) translate(-32.5, -177.5) translate(0, 152)" id="m"><path d="M29.6 27.4 C51.4 29 52.4 37.4 52 41.3 C51.9 42.7 50.9 42.4 48.4 43.4 C46.1 44.4 45.7 45.2 43.7 45.6 C41.5 46 39.1 46 38.3 47.2 C37.5 48.4 34.2 51 37 50.7 C37.5 50.6 40.4 50.7 41.6 50.7 C42.8 50.7 45.7 48.5 46.2 48.5 C46.4 48.5 44 50.8 44.2 50.7 C45.2 50.5 48.9 47.9 49.9 47.7 C51.5 47.3 51 49.2 52.6 48.7 C53.9 48.2 57.3 45.3 58.4 44.7 C59.3 44.2 58.8 46.1 59.5 45.6 C60.2 45 62.1 41.1 62.5 40.4 C62.9 39.7 63.2 39.8 63.4 39.1 C63.6 38.3 63 35.1 63 34.3 C63 33.1 64.7 34.8 64.2 33.6 C63.8 32.7 62.7 29.4 62.1 28.5 C61.3 27.4 60.2 26 59 25 C58.3 24.4 60.7 25.7 62.1 26.6 C63.5 27.5 62 24 60.3 22.2 C59.2 21.1 56.3 19.1 55.2 18.9 C53.4 18.5 50.6 17.6 48 17.3 C46.6 17.1 44.6 17.4 44.4 17.3 C43.1 16.9 50 17 51.1 16.6 C51.7 16.4 50.5 15.9 49.2 15.4 C48.6 15.2 47 14.9 46.3 14.8 C45 14.7 42.4 14.3 39.8 14.4 C37.9 14.4 35.6 14.9 35.4 14.8 C33.8 14.4 40.2 13.9 38.5 13.5 C37.2 13.2 29.5 13.3 28.1 13 C21.3 12 16.4 15.5 10.1 17 C3.4 18.6 -3.8 23.7 3.9 27.4 C7.9 29.4 17.9 26.5 29.6 27.4 z" id="n" fill="#7B4C3A" /><path d="M26.9 29.4 C29.4 29.6 33.4 29.1 35.3 29.4 C35.7 29.5 38.9 30.1 40 30.7 C41.6 31.6 43.1 33.8 44.1 33.8 C45 33.8 43.5 30.7 44.1 31 C45.6 31.7 45.5 34 46.3 34.2 C47.1 34.5 47 32.8 48 34.2 C48.9 35.4 49.1 37.7 49.6 38 C50.5 38.5 50.5 35.7 51 36.3 C51.6 36.9 50.8 38.4 51 38.9 C51.6 40.2 51.9 39.6 51.7 40.9 C51.6 41.7 51.1 42.8 50.1 43.4 C50.2 43.4 50.6 43.1 50.6 43.1 C54.8 40 56 37.6 55 35.2 C54.4 33.8 56.2 33.7 55 32.2 C54.3 31.3 51.2 28.9 49.6 28.1 C48.4 27.5 51.3 27.4 49.6 26.7 C48.6 26.3 42.2 25.7 41.1 25.5 C39.5 25.1 42.2 24.7 40.2 24.3 C35.7 23.4 25.8 22.3 19.5 21 C15.1 20.8 11.3 21.5 8.1 23.2 C4.9 24.9 4 26.5 5.3 28.1 C5.3 28.4 13.3 28.3 14.8 29.1 C19.6 29.4 21.3 28.9 26.9 29.4 z" id="o" fill="#342520" /><path d="M5.1 27.8 C4.7 27.7 4.3 27.6 3.9 27.4 C-3.8 23.7 3.4 18.6 10.1 17 C16.4 15.5 21.3 12 28.1 13 C29.5 13.3 37.2 13.2 38.5 13.5 C40.2 13.9 33.8 14.4 35.4 14.8 C35.6 14.9 37.9 14.4 39.8 14.4 C42.4 14.3 45 14.7 46.3 14.8 C47 14.9 48.6 15.2 49.2 15.4 C50.5 15.9 51.7 16.4 51.1 16.6 C50 17 43.1 16.9 44.4 17.3 C44.6 17.4 46.6 17.1 48 17.3 C50.6 17.6 53.4 18.5 55.2 18.9 C56.3 19.1 59.2 21.1 60.3 22.2 C62 24 63.5 27.5 62.1 26.6 C60.7 25.7 58.3 24.4 59 25 C60.2 26 61.3 27.4 62.1 28.5 C62.7 29.4 63.8 32.7 64.2 33.6 C64.7 34.8 63 33.1 63 34.3 C63 35.1 63.6 38.3 63.4 39.1 C63.2 39.8 62.9 39.7 62.5 40.4 C62.1 41.1 60.2 45 59.5 45.6 C58.8 46.1 59.3 44.2 58.4 44.7 C57.3 45.3 53.9 48.2 52.6 48.7 C51 49.2 51.5 47.3 49.9 47.7 C48.9 47.9 45.2 50.5 44.2 50.7 C44 50.8 46.4 48.5 46.2 48.5 C45.7 48.5 42.8 50.7 41.6 50.7 C40.4 50.7 37.5 50.6 37 50.7 C34.2 51 37.5 48.4 38.3 47.2 C39.1 46 41.5 46 43.7 45.6 C45.7 45.2 46.1 44.4 48.4 43.4 C49.6 42.9 50.5 42.7 51 42.5 C51.4 42 51.6 41.4 51.7 40.9 C51.9 39.6 51.6 40.2 51 38.9 C50.8 38.4 51.6 36.9 51 36.3 C50.5 35.7 50.5 38.5 49.6 38 C49.1 37.7 48.9 35.4 48 34.2 C47 32.8 47.1 34.5 46.3 34.2 C45.5 34 45.6 31.7 44.1 31 C43.5 30.7 45 33.8 44.1 33.8 C43.1 33.8 41.6 31.6 40 30.7 C38.9 30.1 35.7 29.5 35.3 29.4 C33.4 29.1 29.4 29.6 26.9 29.4 C21.3 28.9 19.6 29.4 14.8 29.1 C13.3 28.3 5.3 28.4 5.3 28.1 C5.2 28 5.2 27.9 5.1 27.8 z M10.2 26.9 C10.5 27.1 10.9 27.2 11.3 27.3 C11.3 27.4 11.4 27.4 11.5 27.5 C11.5 27.8 18.5 27.7 19.9 28.4 C24.1 28.7 25.6 28.2 30.5 28.7 C32.8 28.9 34.5 27.6 36.2 27.9 C36.6 28 39.3 29 40.2 29.6 C41.6 30.4 42.6 32.4 43.5 32.4 C44.3 32.4 42.6 29.3 43.2 29.6 C44.5 30.2 45.9 32.5 46.6 32.7 C47.3 32.9 48.3 31.7 49.2 32.9 C50 34 49.4 35.6 49.8 35.9 C50.6 36.3 50.9 33.9 51.3 34.4 C51.9 34.9 51.7 36.6 51.8 37.1 C52.4 38.2 52.6 37.7 52.5 38.8 C52.4 39.3 52.6 40.9 52.2 41.4 C51.7 41.6 51.2 43.1 50.1 43.5 C48.1 44.4 48.9 44.5 47.2 44.8 C44.9 46.1 40 46.7 39.3 47.8 C38.6 48.8 36.1 50.2 38.6 50 C39 49.9 42.1 48.4 43.2 48.4 C44.2 48.4 46.7 46.1 47.2 46.1 C47.3 46.1 47.9 47.6 48 47.5 C48.9 47.3 50 45 50.9 44.8 C52.3 44.5 51.8 46.2 53.3 45.7 C54.4 45.3 57.4 42.7 58.4 42.2 C59.2 41.8 59.7 42.9 60.3 42.5 C60.9 42 61.6 39 62 38.4 C62.4 37.8 62.2 37.7 62.4 37.1 C62.6 36.4 61.6 34.1 61.6 33.4 C61.6 32.3 63.2 34 62.8 32.9 C62.4 32.1 61.4 28.9 60.8 28.1 C60.1 27.2 58.8 25.3 57.7 24.4 C57.1 23.9 58.9 24 60.1 24.8 C61.3 25.6 60.4 23.8 58.9 22.2 C57.9 21.2 54.8 19.7 53.8 19.6 C52.2 19.2 46.2 18.4 43.9 18.1 C42.6 17.9 39.6 17.8 39.5 17.7 C38.3 17.4 41 17 41.9 16.6 C42.5 16.4 50 16.4 48.9 16 C48.3 15.8 46.4 15.5 45.8 15.4 C44.7 15.3 44.2 15.3 41.9 15.4 C40.3 15.4 33.1 15.1 32.9 15 C31.5 14.7 37.7 14.2 36.2 13.8 C35.1 13.6 30 14.1 28.8 13.8 C22.8 12.9 21.3 16.4 15.7 17.7 C9.8 19.1 3.4 23.6 10.2 26.9 z" opacity="0.15" id="p" /></g><g transform="translate(132.2867, 276.5) scale(0.9169675) translate(-129.9, -276.5) translate(104.4, 91.29997) translate(17, 134)" id="q"><path d="M3.2 22.3 C1.8 20.2 0.9 17.9 0.7 15.3 C0.2 8.8 5.5 2.5 11.9 1.2 C18.3 -0.1 25.2 2.9 29.1 8.2 C32.2 12.3 32.5 17.4 32.6 22.6 C32.6 24 5.5 25.8 3.2 22.3 z" id="r" fill="#B09082" /><path d="M12.6 31.2 C9 28.7 5.3 25.7 3 22 C4.3 21.1 5.9 20.5 7.6 20.1 C15.5 18 28 20.5 32.5 22.2 C32.5 23.8 32.6 25.4 32.6 26.9 C32.7 29.8 36 37.8 36 37.8 C34.6 41.9 31.1 44.9 27.7 47.7 C27.3 48 26.9 48.3 26.5 48.7 C23.3 51.4 24.3 54.8 19.2 54.5 C15 54.3 9.2 55.3 5.3 53.7 C2 49.3 5.1 40.6 11.7 40.2 C16.6 39.9 19.1 39.2 18 36.8 C16.9 34.4 14.8 32.7 12.6 31.2 z" id="s" fill="#7B4C3A" /><path d="M3 22 C1.7 20 0.9 17.8 0.7 15.3 C0.2 8.8 5.5 2.5 11.9 1.2 C18.3 -0.1 25.2 2.9 29.1 8.2 C32.2 12.3 32.5 17.4 32.6 22.6 C32.6 22.6 32.6 22.7 32.5 22.7 C32.5 24.1 32.6 25.5 32.6 26.9 C32.7 29.8 36 37.8 36 37.8 C34.6 41.9 31.1 44.9 27.7 47.7 C27.3 48 26.9 48.3 26.5 48.7 C23.3 51.4 24.3 54.8 19.2 54.5 C15 54.3 9.2 55.3 5.3 53.7 C2 49.3 5.1 40.6 11.7 40.2 C16.6 39.9 19.1 39.2 18 36.8 C16.9 34.4 14.8 32.7 12.6 31.2 C9 28.7 5.3 25.7 3 22 L3 22 z M1.7 15 C1.9 17.3 2.7 19.4 3.9 21.3 C6.1 24.8 9.6 27.6 12.9 30 C15 31.4 18.1 34 19.1 36.2 C20.1 38.4 18.8 41 14.2 41.3 C8 41.7 3.9 46.6 7 50.8 C10.7 52.3 15.2 51.8 19.1 52 C24 52.2 23 49 26 46.5 C26.4 46.1 26.8 45.8 27.1 45.6 C30.3 43 32 41 33.3 37.1 C33.3 37.1 31.8 28.7 31.7 26 C31.7 24.7 31.6 23.4 31.6 22.1 C31.7 22.1 31.7 22 31.7 22 C31.6 17.1 31.3 12.3 28.4 8.4 C24.7 3.4 18.2 0.6 12.2 1.8 C6.2 3 1.2 8.9 1.7 15 z" opacity="0.15" id="t" /></g><g transform="translate(201.7133, 276.5) scale(0.9169675) translate(-204.1, -276.5) translate(98.09999, 91.29997) translate(83, 134)" id="u"><path d="M25.6 26.1 C30.2 22 32.1 22.1 32.6 15.3 C33.1 8.8 27.8 2.5 21.4 1.2 C15 -0.2 8.1 2.9 4.2 8.2 C0.3 13.5 0.2 20.6 1.3 26.8 C1.7 29.6 23.6 27.9 25.6 26.1 z" id="v" fill="#B09082" /><path d="M20.6 31.2 C24.2 28.7 27.9 25.7 30.2 22 C28.9 21.1 27.3 20.5 25.6 20.1 C17.7 18 5.2 20.5 0.7 22.2 C0.7 23.8 2.1 45 5.4 47.7 C5.8 48 6.2 48.3 6.6 48.7 C9.8 51.4 8.8 54.8 13.9 54.5 C18.1 54.3 23.9 55.3 27.8 53.7 C31.1 49.3 28 40.6 21.4 40.2 C16.5 39.9 14 39.2 15.1 36.8 C16.2 34.4 18.5 32.7 20.6 31.2 z" id="w" fill="#7B4C3A" /><path d="M0.7 22.2 C0.4 17.3 1.2 12.2 4.2 8.2 C8.1 2.9 15 -0.2 21.4 1.2 C27.8 2.5 33.1 8.8 32.6 15.3 C32.3 19.4 31.5 21 29.9 22.5 C27.6 26 24.1 28.8 20.6 31.2 C18.5 32.7 16.2 34.4 15.1 36.8 C14 39.2 16.5 39.9 21.4 40.2 C28 40.6 31.1 49.3 27.8 53.7 C23.9 55.3 18.1 54.3 13.9 54.5 C8.8 54.8 9.8 51.4 6.6 48.7 C6.2 48.3 5.8 48 5.4 47.7 C2.1 45 0.7 23.8 0.7 22.2 C0.7 22.2 0.7 22.2 0.7 22.2 z M4.8 8.2 C2 12 1.3 16.8 1.5 21.5 C1.5 23 3.4 42.5 6.5 45.1 C6.9 45.4 7.5 46.6 7.9 47 C10.9 49.6 9.2 52.5 14 52.2 C18 52 23.5 53 27.2 51.4 C30.3 47.2 26.2 42 19.9 41.6 C15.3 41.3 12.6 39.3 13.6 37 C14.6 34.7 18.3 31.5 20.3 30.1 C23.5 27.8 26.9 25.2 29.1 21.9 C30.6 20.5 31.4 18.9 31.7 15 C32.2 8.8 27.1 2.9 21.1 1.6 C15.1 0.2 8.5 3.2 4.8 8.2 z" opacity="0.15" id="x" /></g><g transform="translate(107.7, 108.5) translate(22, 32)" id="y"><path d="M61.9 68.1 C53.3 52.7 58.4 25 58.2 11.6 C58 -1.6 44.3 0.3 39.1 0.3 C33.9 0.3 20.2 -1.7 20 11.6 C19.8 25 24.9 52.7 16.3 68.1 C7.8 83.3 3.9 87 9.4 105.4 C21.2 129.9 14.9 138.1 39.1 138.1 C63.3 138.1 57 129.9 68.8 105.4 C74.3 87 70.4 83.3 61.9 68.1 z" id="z" fill="#D8C6BA" /><path d="M61.9 68.1 C70.4 83.3 74.3 87 68.8 105.4 C57 129.9 63.3 138.1 39.1 138.1 C14.9 138.1 21.2 129.9 9.4 105.4 C3.9 87 7.8 83.3 16.3 68.1 C24.9 52.7 19.8 25 20 11.6 C20.2 -1.7 33.9 0.3 39.1 0.3 C44.3 0.3 58 -1.6 58.2 11.6 C58.4 25 53.3 52.7 61.9 68.1 z M59.5 65.9 C53 52.8 56.9 23.9 56.7 10.7 C56.5 -2.2 44.1 2.9 39 2.9 C33.9 2.9 21.9 -1.9 21.7 11.1 C21.5 24.2 26.7 51.8 18.3 66.9 C10 81.9 6.1 85.5 11.5 103.5 C23.1 127.5 15.4 134.7 39.1 134.7 C62.8 134.7 55.7 126.6 67.3 102.6 C72.6 84.6 65.9 79.1 59.5 65.9 z" opacity="0.15" id="a1" /></g><g fill-rule="evenOdd" transform="translate(143.4662, 208.25) scale(0.6367535, 0.7082552) translate(-128.9, -180.2) translate(106.5, 89.19997) translate(62.5, 144.5) scale(-1, 1) translate(-62.5, -144.5) translate(22, 91)" id="b1"><path d="M52 28.8 C53.2 26.7 53.4 15.1 56.8 12.2 C60.4 8.7 63.5 4 65.3 0 C65.9 2.4 67.8 8.5 69 11.2 C69.1 11.5 69.2 11.7 69.4 12 C73.3 19.9 80.6 22.6 80.6 34.9 C80.6 56.8 72.3 51 69.4 67 C68.9 69.6 68.6 72.3 68.3 75 C67.4 83.8 54.2 85.7 54.2 74.4 C54.2 68.1 54.4 62 54.9 55.8 C54 50.1 51 50.2 49.4 45 C47.4 39.1 48.7 34.5 52 28.8 z" id="c1" fill="#FAF4E8" /><path d="M11.7 12 C11.8 11.7 11.9 11.5 12.1 11.2 C13.3 8.6 15.1 2.5 15.8 0 C17.6 3.9 20.7 8.7 24.3 12.2 C28.7 15.8 27.9 26.6 29.1 28.8 C32.4 34.5 33.7 39.1 31.8 45.1 C30.2 50.3 27.1 50.3 26.3 55.9 C26.7 62.1 27 68.2 27 74.5 C27 85.8 13.7 81.6 12.8 73.7 C12.6 71.9 12.3 69.7 11.8 67 C8.9 51 0.6 56.8 0.6 34.9 C0.4 22.7 7.8 19.9 11.7 12 z" id="d1" fill="#FAF4E8" /><path d="M54.1 75.7 C60 75.4 66.4 72.4 68.7 70.8 C67.4 80.3 67.6 90.2 67.1 96.7 C69.9 95 75.9 97.8 72.1 104.6 C70.1 106.2 66.9 106.5 64.1 106.5 C61.3 106.5 58.5 106.1 56 105 L56.1 104.9 C55.3 104.5 54.7 103.9 54.3 103.3 C51.8 99.6 54 89.5 54.1 75.7 z" id="e1" fill="#7B4C3A" /><path d="M68.1 76.1 C67.5 83.8 67.5 91.4 67.1 96.7 C69.9 95 75.9 97.8 72.1 104.6 C70.1 106.2 66.9 106.5 64.1 106.5 C61.3 106.5 58.5 106.1 56 105 L56.1 104.9 C55.3 104.5 54.7 103.9 54.3 103.3 C51.8 99.6 54 89.5 54.1 75.7 C54.2 75.7 54.2 75.7 54.3 75.7 C54.2 75.3 54.2 74.9 54.2 74.4 C54.2 68.1 54.4 62 54.9 55.8 C54 50.1 51 50.2 49.4 45 C47.4 39.1 48.7 34.5 52 28.8 C53.2 26.7 53.4 15.1 56.8 12.2 C60.4 8.7 63.5 4 65.3 0 C65.9 2.4 67.8 8.5 69 11.2 C69.1 11.5 69.2 11.7 69.4 12 C73.3 19.9 80.6 22.6 80.6 34.9 C80.6 56.8 72.3 51 69.4 67 C68.9 69.6 68.6 72.3 68.3 75 C68.3 75.4 68.2 75.7 68.1 76.1 z M66.1 97.8 C66.5 92.7 65.3 87.3 66 76 C66.7 64.7 67.6 66.5 68.1 64 C70.9 48.8 78.5 56.1 78.5 35.3 C78.5 23.5 72.9 20.5 69.2 13 C69 12.7 68.9 12.5 68.8 12.2 C67.6 9.7 65.8 3.8 65.3 1.6 C63.5 5.4 60.6 9.8 57.2 13.2 C53.9 15.9 54.4 27 53.3 29 C50.1 34.4 49.2 37.8 51.1 43.4 C51.7 45.1 56.2 49.2 56.4 55 C56.5 58.8 56.1 74.6 55.6 74 C55.5 87.1 52.4 96.4 54.8 99.9 C55.2 100.5 55.7 101 56.5 101.4 L56.4 101.5 C58.8 102.6 61.5 102.9 64.1 102.9 C66.8 102.9 69.5 103.6 71.4 102.1 C73 99.1 68.8 96.1 66.1 97.8 z" opacity="0.3" id="f1" /><path d="M13.8 96.7 C13.3 90.2 13.5 80.3 12.2 70.8 C14.5 72.4 21 75.4 26.8 75.7 C26.9 89.5 29.2 99.6 26.6 103.4 C26.2 104.1 25.5 104.6 24.8 105 L24.9 105.1 C22.4 106.2 19.5 106.6 16.8 106.6 C14.1 106.6 10.8 106.3 8.8 104.7 C5 97.8 11 95 13.8 96.7 z" id="g1" fill="#7B4C3A" /><path d="M26.8 76.7 C27 90 29.1 99.7 26.6 103.4 C26.2 104.1 25.5 104.6 24.8 105 L24.9 105.1 C22.4 106.2 19.5 106.6 16.8 106.6 C14.1 106.6 10.8 106.3 8.8 104.7 C5 97.8 11 95 13.8 96.7 C13.3 90.2 13.5 80.3 12.2 70.8 C12.3 70.9 12.4 70.9 12.5 71 C12.3 69.8 12.1 68.5 11.8 67 C8.9 51 0.6 56.8 0.6 34.9 C0.4 22.7 7.8 19.9 11.7 12 C11.8 11.7 11.9 11.5 12.1 11.2 C13.3 8.6 15.1 2.5 15.8 0 C17.6 3.9 20.7 8.7 24.3 12.2 C28.7 15.8 27.9 26.6 29.1 28.8 C32.4 34.5 33.7 39.1 31.8 45.1 C30.2 50.3 27.1 50.3 26.3 55.9 C26.7 62.1 27 68.2 27 74.5 C27 75.3 26.9 76 26.8 76.7 z M25.4 75.8 C24.7 66.6 24.3 60 24 56 C24.8 50.6 28.6 49.5 30.1 44.5 C32 38.7 31.8 34.3 28.6 28.8 C27.5 26.7 28.2 16.3 24 12.8 C20.5 9.4 17.6 4.8 15.8 1 C15.2 3.4 13.4 9.3 12.3 11.8 C12.1 12.1 12 12.3 11.9 12.6 C8.1 20.2 1.8 22.8 2 34.6 C2 55.8 10.9 52.3 13.3 63 C15.6 73.8 14.9 90.6 14.8 97.6 C12.1 96 7.8 98.3 9.1 102.2 C11 103.7 14.2 104 16.8 104 C17.9 104 20.8 103.8 22.5 103.3 C24.9 102.5 23.4 102.8 25 101.5 C27.4 97.9 25.6 88.6 25.4 75.8 z" opacity="0.3" id="h1" /></g></g><g transform="translate(168.9, 190.8) scale(0.9379653) translate(-168.9, -190.8)" id="i1"><g transform="translate(101.9, 84.09996) translate(23, 25)" id="j1"><g id="k1"><g id="l1"><path d="M87.2 74.6 C85.9 71 84.6 66.6 82.2 61.8 C83.8 62.4 85.3 63 86.1 64.5 C84.9 58.9 83.6 52.1 80.2 47.3 C80.2 46.9 80.2 46.5 80.2 46.1 C80 31.9 77.9 25.5 76.4 19.1 C74 9 65.6 3.7 57.8 1.1 C52.1 -0.8 46.6 1.3 43.9 1.3 C41.2 1.3 35.7 -0.8 30 1.1 C22.1 3.8 13.7 9 11.4 19.1 C9.9 25.5 7.8 31.9 7.6 46.1 C7.6 46.5 7.6 46.9 7.6 47.3 C4.2 52 2.9 58.9 1.7 64.5 C2.5 63 4 62.4 5.6 61.8 C3.3 66.6 1.9 71.1 0.6 74.6 C2.1 72.7 6 72.5 7.5 70.5 C6.5 74.9 5.8 87.6 12.8 92.5 C13.7 88.4 15.2 84.6 17.2 81.1 C17.5 82.6 18.1 84.3 18.9 86.1 C19.9 80.8 20.9 78.7 22.5 77.6 C21.8 84 20.9 88 23.7 89.6 C23.6 86.7 26 83.3 28.4 80.2 C32.3 83 36.8 84 43.9 84 C51.1 83.9 55.5 83 59.4 80.2 C61.8 83.4 64.2 86.8 64.1 89.6 C66.8 88 66 84 65.3 77.6 C66.9 78.8 67.9 80.8 68.9 86.1 C69.7 84.3 70.2 82.6 70.6 81.1 C72.6 84.6 74.2 88.5 75 92.5 C82 87.5 81.2 74.9 80.3 70.5 C81.8 72.4 85.6 72.7 87.2 74.6 z" id="m1" fill="#7B4C3A" /><path d="M87.2 74.6 C85.6 72.7 81.8 72.4 80.3 70.5 C81.2 74.9 82 87.5 75 92.5 C74.2 88.5 72.6 84.6 70.6 81.1 C70.2 82.6 69.7 84.3 68.9 86.1 C67.9 80.8 66.9 78.8 65.3 77.6 C66 84 66.8 88 64.1 89.6 C64.2 86.8 61.8 83.4 59.4 80.2 C55.5 83 51.1 83.9 43.9 84 C36.8 84 32.3 83 28.4 80.2 C26 83.3 23.6 86.7 23.7 89.6 C20.9 88 21.8 84 22.5 77.6 C20.9 78.7 19.9 80.8 18.9 86.1 C18.1 84.3 17.5 82.6 17.2 81.1 C15.2 84.6 13.7 88.4 12.8 92.5 C5.8 87.6 6.5 74.9 7.5 70.5 C6 72.5 2.1 72.7 0.6 74.6 C1.9 71.1 3.3 66.6 5.6 61.8 C4 62.4 2.5 63 1.7 64.5 C2.9 58.9 4.2 52 7.6 47.3 C7.6 46.9 7.6 46.5 7.6 46.1 C7.8 31.9 9.9 25.5 11.4 19.1 C13.7 9 22.1 3.8 30 1.1 C35.7 -0.8 41.2 1.3 43.9 1.3 C46.6 1.3 52.1 -0.8 57.8 1.1 C65.6 3.7 74 9 76.4 19.1 C77.9 25.5 80 31.9 80.2 46.1 C80.2 46.5 80.2 46.9 80.2 47.3 C83.6 52.1 84.9 58.9 86.1 64.5 C85.3 63 83.8 62.4 82.2 61.8 C84.6 66.6 85.9 71 87.2 74.6 z M84.1 70.6 C82.8 67.2 81.6 63.1 79.4 58.7 C80.9 59.2 82.3 59.8 83 61.2 C81.9 56 80.7 49.7 77.6 45.2 C77.6 44.9 77.6 44.5 77.6 44.1 C77.4 31 75.4 25 74 19.1 C71.8 9.7 64 4.8 56.8 2.4 C51.5 0.6 46.4 2.1 43.9 2.1 C41.4 2.1 36.3 0.6 31 2.4 C23.7 4.9 15.9 9.7 13.8 19.1 C12.4 25 10.4 31 10.2 44.1 C10.2 44.5 10.2 44.9 10.2 45.2 C7.1 49.6 5.9 56 4.8 61.2 C5.5 59.8 6.9 59.2 8.4 58.7 C6.2 63.1 5 67.3 3.7 70.6 C5.1 68.8 8.8 68.6 10.1 66.7 C9.2 70.8 6 82.6 12.5 87.2 C13.3 83.3 15.9 79.8 17.7 76.6 C18 78 18.4 79 19.1 80.7 C20.1 75.8 22.6 74.4 24.1 73.3 C23.4 79.3 22.4 82 24.2 83.6 C24.8 81.2 27.3 78.6 29.5 75.7 C33.1 78.3 37.3 80 43.9 80 C50.6 79.9 54.7 78.3 58.3 75.7 C60.5 78.7 63.8 81 63.7 83.6 C66.2 82.1 64.4 79.3 63.7 73.3 C65.2 74.4 67.7 75.1 68.7 80 C69.4 78.3 71.8 78 72.2 76.6 C74 79.8 74.7 83.4 75.4 87.2 C81.9 82.5 78.5 70.8 77.7 66.7 C79 68.5 82.6 68.8 84.1 70.6 z" opacity="0.15" id="n1" /></g></g></g><g transform="translate(150.4, 117.8) rotate(30, 0, 0) scale(0.6, 0.7) translate(-150.4, -124.8) translate(116.5, 102.1) translate(0, 10)" id="o1"><path d="M34.2 17.4 C32.8 24.5 33.1 32 35.2 39 C35.9 41.5 36.9 44 37.3 46.6 C38.1 52.1 38.1 63 36.3 67.9 C34.1 73.8 24 75.8 20.3 72.4 C15.9 68.4 14.1 57.3 11 52.3 C6.8 45.5 2.5 38.6 1.2 30.7 C0.3 25.3 1 19.3 4.6 15.2 C7.8 11.5 12.7 9.8 17.4 8.3 C20.3 7.4 37.8 -1 39.6 0.8 C40.6 1.7 34.6 15.3 34.2 17.2 C34.2 17.3 34.2 17.4 34.2 17.4 z" id="p1" fill="#342520" /><path d="M34.2 17.4 C32.8 24.5 33.1 32 35.2 39 C35.9 41.5 36.9 44 37.3 46.6 C38.1 52.1 38.1 63 36.3 67.9 C34.1 73.8 24 75.8 20.3 72.4 C15.9 68.4 14.1 57.3 11 52.3 C6.8 45.5 2.5 38.6 1.2 30.7 C0.3 25.3 1 19.3 4.6 15.2 C7.8 11.5 12.7 9.8 17.4 8.3 C20.3 7.4 37.8 -1 39.6 0.8 C40.6 1.7 34.6 15.3 34.2 17.2 C34.2 17.3 34.2 17.4 34.2 17.4 z M33.1 36.9 C31.3 30.5 31 23.6 32.2 17 C32.5 15.3 37.7 2.9 36.8 2 C35.3 0.4 20.3 8 17.8 8.8 C13.8 10.2 9.6 11.7 6.8 15.1 C3.7 18.8 3.1 24.3 3.9 29.2 C5 36.5 8.7 42.8 12.3 49 C15 53.6 16.5 63.7 20.3 67.3 C23.5 70.4 32.1 68.6 34 63.2 C35.5 58.7 35.5 48.8 34.9 43.8 C34.5 41.4 33.7 39.1 33.1 36.9 z" opacity="0.15" id="q1" /></g><g transform="translate(187.5, 117.8) rotate(-30, 0, 0) scale(0.6, 0.7) translate(-187.5, -124.8) translate(87.29999, 102.1) translate(114, 47.5) scale(-1, 1) translate(-114, -47.5) translate(94, 10)" id="r1"><path d="M34 17.4 C32.6 24.5 32.9 32 35 39 C35.7 41.5 36.7 44 37.1 46.6 C37.9 52.1 37.9 63 36.1 67.9 C33.9 73.8 23.8 75.8 20.1 72.4 C15.7 68.4 13.9 57.3 10.8 52.3 C6.6 45.5 2.3 38.6 1 30.7 C0.1 25.3 0.8 19.3 4.4 15.2 C7.6 11.5 12.5 9.8 17.2 8.3 C20.1 7.4 37.6 -1 39.4 0.8 C40.4 1.7 34.4 15.3 34 17.2 C34 17.3 34 17.4 34 17.4 z" id="s1" fill="#342520" /><path d="M34 17.4 C32.6 24.5 32.9 32 35 39 C35.7 41.5 36.7 44 37.1 46.6 C37.9 52.1 37.9 63 36.1 67.9 C33.9 73.8 23.8 75.8 20.1 72.4 C15.7 68.4 13.9 57.3 10.8 52.3 C6.6 45.5 2.3 38.6 1 30.7 C0.1 25.3 0.8 19.3 4.4 15.2 C7.6 11.5 12.5 9.8 17.2 8.3 C20.1 7.4 37.6 -1 39.4 0.8 C40.4 1.7 34.4 15.3 34 17.2 C34 17.3 34 17.4 34 17.4 z M32.8 17.1 C32.8 17.1 32.8 17 32.8 16.9 C33.2 15.2 38.6 2.8 37.7 1.9 C36.1 0.3 20.1 7.9 17.4 8.7 C13.1 10.1 8.6 11.6 5.7 15 C2.4 18.7 1.8 24.2 2.6 29.1 C3.8 36.3 7.7 42.6 11.5 48.8 C14.3 53.4 16 63.5 20 67.1 C23.4 70.2 32.6 68.4 34.6 63 C36.2 58.5 36.2 48.6 35.5 43.6 C35.1 41.2 34.2 38.9 33.6 36.7 C31.8 30.5 31.5 23.6 32.8 17.1 z" opacity="0.15" id="t1" /></g><g id="u1"><g transform="translate(106.2, 98.69996) translate(35, 23)" id="v1"><g id="w1"><path d="M37.5 66.1 C35.6 63 34.6 61.1 27.5 61.1 C20.4 61.1 20.5 63 18.5 66.1 C17.8 67.2 15.4 69 14.6 70.5 C19.1 72.1 21.5 73.3 27.3 73.2 C32.7 73.1 36.4 72 41.2 70.1 C40.1 68.4 38.1 67.1 37.5 66.1 z" id="x1" fill="#FAF4E7" /><path d="M50.6 46 C45.1 33.7 39 30 27.5 30 C16 30 9.9 33.8 4.4 46 C0.2 55.4 -0.9 65.6 0.8 68.7 C4 74.4 13 76.5 15.7 71.9 C16.6 70.4 17.2 68.7 17.7 67.1 C18.1 66.7 18.4 66.3 18.5 66.1 C20.4 63 20.4 61.1 27.5 61.1 C33.2 61.1 34.9 62.3 36.4 64.4 C37.3 66.8 37.9 69.5 39.3 71.9 C42 76.5 50.9 74.4 54.2 68.7 C55.9 65.6 54.8 55.4 50.6 46 z" id="y1" fill="#FFF" /><path d="M15.4 26.9 C20.4 24.7 22.2 21.1 24.1 16.1 C24.7 19.5 25.4 23.5 24.7 25.3 C22.9 29.9 18.8 29.5 16 31.5 C13.3 33.5 11.4 36.2 9.8 39.2 C9.7 38.7 8.8 39 8.3 39.6 C7.9 34.7 10.9 28.9 15.4 26.9 z" id="z1" fill="#FFF" /><path d="M39.6 26.9 C34.6 24.7 32.8 21.1 30.9 16.1 C30.3 19.5 29.6 23.5 30.3 25.3 C32.1 29.9 36.2 29.5 39 31.5 C41.7 33.5 43.6 36.2 45.2 39.2 C45.3 38.7 46.2 39 46.7 39.6 C47.1 34.7 44.1 28.9 39.6 26.9 z" id="a2" fill="#FFF" /><path d="M38 30 C34.3 27.5 31.9 27.9 30.9 25 C30.1 22.7 31.4 10.7 31.5 8.9 C32.3 0 27.5 0.5 27.5 0.5 C27.5 0.5 22.7 0 23.5 8.9 C23.7 10.7 24.9 22.8 24.1 25 C23.1 27.9 20.7 27.4 17 30 C13.8 32.2 10.7 34.8 9.6 37.9 C12.1 36.9 13.1 35.2 16.4 33.5 C19.3 32 21.6 30.6 27.6 30.6 C33.6 30.6 35.9 32 38.8 33.5 C42.1 35.2 43.1 36.9 45.6 37.9 C44.4 34.8 41.3 32.2 38 30 z" id="b2" fill="#FAF4E7" /><path d="M15.4 26.9 C20.4 24.7 22.2 21.1 24.1 16.1 C24.1 16.2 24.1 16.3 24.1 16.4 C23.9 13 23.6 9.8 23.5 8.9 C22.7 0 27.5 0.5 27.5 0.5 C27.5 0.5 32.3 0 31.5 8.9 C31.5 9.7 31.1 12.8 30.9 16.1 C32.8 21.1 34.6 24.7 39.6 26.9 C43.9 28.8 46.8 34.2 46.7 38.9 C48.1 40.9 49.4 43.2 50.6 46 C54.8 55.4 55.9 65.6 54.2 68.7 C50.9 74.4 42 76.5 39.3 71.9 C39.1 71.6 39 71.3 38.8 71 C35.1 72.3 31.8 73.1 27.3 73.2 C22.2 73.3 19.7 72.4 16.2 71.1 C16 71.3 15.9 71.6 15.7 71.9 C13 76.5 4 74.4 0.8 68.7 C-0.9 65.6 0.2 55.4 4.4 46 C5.6 43.2 6.9 40.9 8.3 39 C8.2 34.2 11.1 28.8 15.4 26.9 z M16 27.3 C12 29.1 9.2 34.3 9.3 38.9 C8 40.8 6.8 43 5.6 45.7 C1.7 54.8 0.6 64.6 2.2 67.6 C5.3 73.1 13.8 75.1 16.3 70.7 C16.5 70.4 16.7 70.1 16.8 69.8 C20.2 71.1 22.5 72 27.3 71.9 C31.5 71.8 34.7 71.1 38.2 69.8 C38.4 70.1 38.5 70.4 38.7 70.7 C41.2 75.1 49.6 73.1 52.8 67.6 C54.4 64.6 53.3 54.8 49.4 45.7 C48.2 43 47 40.8 45.7 38.9 C45.8 34.3 43 29.1 39 27.3 C34.2 25.2 32.1 21.4 30.3 16.6 C30.5 13.4 31.1 10.4 31.1 9.6 C31.9 1 27.4 1.1 27.4 1.1 C27.4 1.1 23.2 0.9 24 9.4 C24.1 10.3 24.5 12.7 24.7 16 C24.7 15.9 24 17.8 23.9 17.8 C22.1 22.6 20.8 25.2 16 27.3 z" opacity="0.15" id="c2" /><g transform="translate(8, 44)" id="d2" fill="#282421"><path d="M10.1 5.3 C9.4 4.9 8.4 5.5 8.3 6.4 C8.3 7.2 9.3 7.9 10 7.5 C10.7 7.1 10.9 6 10.2 5.5" id="e2" /><path d="M5.6 0.9 C4.9 0.5 3.9 1.1 3.8 2 C3.8 2.8 4.8 3.5 5.5 3.1 C6.2 2.7 6.4 1.6 5.7 1.1" id="f2" /><path d="M2.7 7.5 C2 7.1 1 7.7 0.9 8.6 C0.9 9.4 1.9 10.1 2.6 9.7 C3.3 9.3 3.5 8.2 2.8 7.7" id="g2" /><path d="M28.9 5.3 C29.6 4.9 30.6 5.5 30.7 6.4 C30.7 7.2 29.7 7.9 29 7.5 C28.3 7.1 28.1 6 28.8 5.5" id="h2" /><path d="M33.4 0.9 C34.1 0.5 35.1 1.1 35.2 2 C35.2 2.8 34.2 3.5 33.5 3.1 C32.8 2.7 32.6 1.6 33.3 1.1" id="i2" /><path d="M36.3 7.5 C37 7.1 38 7.7 38.1 8.6 C38.1 9.4 37.1 10.1 36.4 9.7 C35.7 9.3 35.5 8.2 36.2 7.7" id="j2" /></g></g></g><g transform="translate(168.7, 176.0999) scale(1) translate(-168.7, -179.0999) translate(107.6, 98.69997) translate(51, 68)" id="k2"><g id="l2"><path d="M19.3 10.7 C18.9 10.3 18.2 10.4 17.8 10.8 C16.9 11.8 15.3 13 13.7 13.1 C12.8 13.1 11.9 12.7 11.1 11.9 L11.1 1.5 C11.1 0.9 10.6 0.4 10 0.4 C9.4 0.4 8.9 0.9 8.9 1.5 L8.9 11.9 C8.1 12.7 7.3 13.1 6.3 13.1 C4.7 13.1 3.1 11.9 2.2 10.8 C1.8 10.4 1.2 10.3 0.7 10.7 C0.3 11.1 0.2 11.7 0.6 12.2 C1.8 13.6 4 15.2 6.3 15.2 C7.5 15.2 8.7 14.8 9.8 13.9 C9.9 13.9 9.9 13.9 10 13.9 C10.1 13.9 10.1 13.9 10.2 13.9 C11.2 14.7 12.4 15.2 13.7 15.2 C16 15.2 18.2 13.6 19.4 12.2 C19.9 11.7 19.8 11.1 19.3 10.7 z" id="m2" fill="#282421" /></g></g><g transform="translate(101.6, 87.29996) translate(56, 65)" id="n2"><g id="o2"><path d="M20.3 1.6 C18.3 -0.6 14.7 0.3 11.1 0.3 C7.5 0.3 3.9 -0.6 1.9 1.6 C-0.1 3.8 -0.1 7.6 1.9 9.8 C3.3 11.3 4.7 12.2 6.6 13.2 C8.2 14.1 9.3 16.2 11 16.4 C12.8 16.2 13.8 14 15.4 13.2 C17.4 12.2 18.8 11.3 20.1 9.8 C22.3 7.6 22.3 3.9 20.3 1.6 z" id="p2" fill="#282523" /><path d="M16.8 3.2 C16.6 2.6 15.3 2.5 14.4 2.3 C12.8 2 10.5 2.2 7.8 2.2 C7.1 2.2 6.4 2.2 5.7 2.5 C5 2.8 4.6 3.5 4.7 4.2 C4.9 5.4 6.4 5.6 7.6 5.6 C9.5 5.6 11.5 5.6 13.4 5.5 C14.2 5.5 15 5.5 15.8 5.1 C16.6 4.7 17.1 4 16.8 3.2 z" id="q2" fill="#FEFEFE" /></g></g><g transform="translate(148.6, 142.3999) scale(0.7) translate(-148.6, -142.3999) translate(99.69998, 94.59995) translate(32, 17)" id="r2"><g id="s2"><path d="M16 8.1 C16.9 10.9 17.1 10.4 19.3 10.1 C20.1 10 21.3 8.5 22.6 7.4 C23.3 6.8 24.5 6 26.2 4.8 C26.2 2.2 25.8 0.9 25 1 C20.3 1.6 15.5 6.6 16 8.1 z" id="t2" fill="#353535" /><g transform="translate(0, 14)" id="u2"><path d="M5.2 12.9 C2.3 21.5 0.7 32.8 0.7 35.5 C0.7 38.2 1.9 39.3 3.6 39.7 C5.3 40.1 9.7 38.3 15.4 35.5 C21.1 32.7 25.5 30.9 26.9 26.4 C28.3 21.8 26.9 7.2 26.9 5.4 C26.9 3.5 23.5 0.5 20 0.6 C16.5 0.6 8.1 4.3 5.2 12.9 z" id="v2" fill="#342520" /><path d="M17.2 31.3 C25.2 27.8 23.7 25.9 23.7 19.4 C23.7 12.9 23.6 6 20 6 C16.4 6 10.8 12.8 10.8 19.4 C10.7 26 9.1 34.8 17.2 31.3 z" id="w2" fill="#353535" /><path d="M18.3 12.7 C19 15.5 18.7 20.5 17 21.7 C16.6 22 15.4 22.5 15.1 21.7 C14.2 19.7 14.6 14.6 15.1 12.7 C15.2 12.3 15.8 11.7 16.5 11.6 C17.5 11.4 18.1 11.5 18.3 12.7 z" id="x2" fill="#FFF" /><ellipse cx="15.7" cy="24.9" rx="1" ry="1.5" id="y2" fill="#FFF" /></g></g></g><g transform="translate(188.8, 142.3999) scale(0.7) translate(-188.8, -142.3999) translate(102.7, 94.19995) translate(74, 17)" id="z2"><path d="M12.1 8.1 C11.2 10.9 11 10.4 8.8 10.1 C8 10 6.8 8.5 5.5 7.4 C4.8 6.8 3.6 6 1.9 4.8 C1.9 2.2 2.3 0.9 3.1 1 C7.7 1.6 12.6 6.6 12.1 8.1 z" id="a3" fill="#353535" /><path d="M22.8 26.9 C25.7 35.5 27.3 46.8 27.3 49.5 C27.3 52.2 26.1 53.3 24.4 53.7 C22.7 54.1 18.3 52.3 12.6 49.5 C6.8 46.7 2.5 44.9 1.1 40.4 C-0.3 35.8 1.1 21.2 1.1 19.4 C1.1 17.6 4.5 14.6 8 14.7 C11.6 14.6 19.9 18.3 22.8 26.9 z" id="b3" fill="#342520" /><path d="M10.9 45.3 C2.9 41.8 4.4 39.9 4.4 33.4 C4.4 26.9 4.5 20 8.1 20 C11.7 20 17.3 26.8 17.3 33.4 C17.3 40 18.9 48.8 10.9 45.3 z" id="c3" fill="#353535" /><path d="M7.7 25.7 C7 28.5 6.8 33.5 7.4 34.9 C7.7 35.7 9.8 36.3 10.1 35.5 C11 33.5 11.3 28.5 10.7 26.6 C10.6 26.2 10.1 24.7 9.4 24.6 C8.5 24.4 7.9 24.5 7.7 25.7 z" id="d3" fill="#FFF" /><ellipse cx="8.4" cy="38.9" rx="1" ry="1.5" id="e3" fill="#FFF" /></g></g></g></g><g transform="translate(39.29518, 265.301)" id="f3"><ellipse cx="32.5" cy="17.5" rx="37.3" ry="13.2" opacity="0.15" id="g3" /><use xlink:href="#e" x="1.51" y="0" /></g><g transform="translate(235.8952, 266.9009)" id="h3"><ellipse cx="32.5" cy="17.5" rx="37.3" ry="13.2" fill-opacity="0.15" id="i3" /><use xlink:href="#e" x="0.08" y="0" /></g></g><defs><g transform="translate(17.09519, 0.800995) translate(-135.2952, -293.601)" id="e" fill="#000"><path d="M118.2 302.7 C118.4 307.4 132.5 311.2 149.8 311.2 C167.1 311.2 181.2 307.4 181.4 302.7 C181.4 307.5 181.4 310.1 181.4 310.5 C181.4 315.3 167.3 319.1 149.8 319.1 C132.3 319.1 118.2 315.2 118.2 310.5 L118.2 302.7 L118.2 302.7 z" fill-opacity="0.4528" id="j3" fill="#593001" /><path d="M118.7 301.7 C118.9 306.4 133 310.2 150.3 310.2 C167.6 310.2 181.7 306.4 181.9 301.7 C181.9 306.5 181.9 309.1 181.9 309.5 C181.9 314.3 167.8 318.1 150.3 318.1 C132.8 318.1 118.7 314.2 118.7 309.5 L118.7 301.7 L118.7 301.7 z" id="k3" fill="#DA8113" /><linearGradient x1="46.0545" y1="-118.6926" x2="45.4656" y2="-118.6926" gradientUnits="userSpaceOnUse" gradientTransform="matrix(117.135, 0, 0, 28.4634, -5208.417, 3687.795)" id="l3"><stop offset="0%" stop-color="#D9952A" stop-opacity="1" /><stop offset="6.438854%" stop-color="#CA7519" stop-opacity="1" /><stop offset="30.54%" stop-color="#E3AD3A" stop-opacity="1" /><stop offset="51.05%" stop-color="#FFEC91" stop-opacity="1" /><stop offset="68.8%" stop-color="#E9BD44" stop-opacity="1" /><stop offset="86.24%" stop-color="#FFED6C" stop-opacity="1" /><stop offset="93.87%" stop-color="#F2D353" stop-opacity="1" /><stop offset="100%" stop-color="#F2B947" stop-opacity="1" /></linearGradient><path d="M118.2 301.6 C118.4 306.1 132.7 309.7 150.3 309.7 C167.9 309.7 182.2 306.1 182.4 301.6 C182.4 306.2 182.4 308.7 182.4 309 C182.4 313.5 168 317.2 150.3 317.2 C132.6 317.2 118.2 313.5 118.2 309 L118.2 301.6 L118.2 301.6 z" id="m3" style="fill:url(#l3)" /><linearGradient x1="45.4914" y1="-117.9547" x2="45.9407" y2="-117.5895" gradientUnits="userSpaceOnUse" gradientTransform="matrix(115.425, 0, 0, 29.925, -5125.077, 3826.124)" id="n3"><stop offset="0%" stop-color="#F4E072" stop-opacity="1" /><stop offset="100%" stop-color="#DB9427" stop-opacity="1" /></linearGradient><ellipse cx="150.3" cy="301.5" rx="31.6" ry="8.2" id="o3" style="fill:url(#n3)" /><linearGradient x1="45.4656" y1="-126.0065" x2="46.0545" y2="-126.0065" gradientUnits="userSpaceOnUse" gradientTransform="matrix(117.135, 0, 0, 18.6219, -5208.417, 2651.479)" id="p3"><stop offset="0%" stop-color="#D9952A" stop-opacity="1" /><stop offset="6.438854%" stop-color="#CA7519" stop-opacity="1" /><stop offset="30.54%" stop-color="#E3AD3A" stop-opacity="1" /><stop offset="51.05%" stop-color="#FFEC91" stop-opacity="1" /><stop offset="68.8%" stop-color="#E9BD44" stop-opacity="1" /><stop offset="86.24%" stop-color="#FFED6C" stop-opacity="1" /><stop offset="93.87%" stop-color="#F2D353" stop-opacity="1" /><stop offset="100%" stop-color="#F2B947" stop-opacity="1" /></linearGradient><path d="M119.2 299.9 C119 300.2 118.9 300.6 118.9 301 C118.9 305.5 132.9 309.2 150.3 309.2 C167.7 309.2 181.7 305.5 181.7 301 C181.7 300.6 181.6 300.3 181.4 299.9 C182 300.5 182.4 301.2 182.4 301.9 C182.4 306.4 168 310.1 150.3 310.1 C132.6 310.1 118.2 306.4 118.2 301.9 C118.2 301.3 118.6 300.6 119.2 299.9 z" id="q3" style="fill:url(#p3)" /><linearGradient x1="45.196" y1="-121.5895" x2="45.3746" y2="-120.6758" gradientUnits="userSpaceOnUse" gradientTransform="matrix(101.745, 0, 0, 23.94, -4458.332, 3199.41)" id="r3"><stop offset="0%" stop-color="#F8DD61" stop-opacity="1" /><stop offset="100%" stop-color="#EAA330" stop-opacity="1" /></linearGradient><ellipse cx="150.3" cy="300.8" rx="27.8" ry="6.6" id="s3" style="fill:url(#r3)" /><linearGradient x1="45.5694" y1="-134.267" x2="45.0221" y2="-134.267" gradientUnits="userSpaceOnUse" gradientTransform="matrix(101.745, 0, 0, 13.2525, -4458.332, 2077.223)" id="t3"><stop offset="0%" stop-color="#F4CA2F" stop-opacity="1" /><stop offset="51.38%" stop-color="#BF7737" stop-opacity="1" /><stop offset="100%" stop-color="#E4A929" stop-opacity="1" /></linearGradient><path d="M122.6 301.5 C122.5 301.3 122.4 301 122.4 300.8 C122.4 297.2 134.9 294.2 150.2 294.2 C165.5 294.2 178 297.1 178 300.8 C178 301 177.9 301.3 177.8 301.5 C176.3 298.2 164.5 295.6 150.1 295.6 C135.7 295.6 124.1 298.2 122.6 301.5 z" id="u3" style="fill:url(#t3)" /></g></defs><desc>A8DGJDGAD2B,/UOuCJAm+97AybhST7wVbiiJJYr7Zlbl84MI4xmojElIq/WBX+VKgAZg81SMowGIWez9i8V1FcrPjWe4gGxxjK2KY25Ww0n2uRiY70GxUAilC/CqDn0uu6aht8Nmvq/n4oFB3BaPv6s9H3YwbuFlOAZUxCgBNEfZ5iUmfK9I0xvpxP+itsvZDIHXNNQ4/HTh</desc></svg>