<?xml version="1.0" encoding="utf-8"?><!DOCTYPE svg PUBLIC "-//W3C//DTD SVG 1.1//EN" "http://www.w3.org/Graphics/SVG/1.1/DTD/svg11.dtd"><svg x="0" y="0" width="340px" height="340px" viewBox="0, 0, 340, 340" preserveAspectRatio="xMidYMid" font-size="0" id="a" enable-background="new 0 0 340 340" xmlns="http://www.w3.org/2000/svg" xmlns:xlink="http://www.w3.org/1999/xlink" xmlns:xml="http://www.w3.org/XML/1998/namespace" version="1.1"><g id="b" fill="#000"><g id="c"><g transform="translate(0, 0) translate(0, 224)" id="d"><ellipse cx="168.6" cy="53.1" rx="57.8" ry="12.8" fill-opacity="0.25" id="e" /></g><g id="f"><g transform="translate(103.8, 99.19998) translate(20.5, 139.5) scale(-1, 1) translate(-20.5, -139.5) translate(0, 122)" id="g"><g id="h"><path d="M28.3 1.5 C38.6 0.6 40.4 9.4 40.6 11.6 C39.9 11.2 39.2 10.8 38.5 10.4 C39.3 12.6 39.7 15.1 39.7 17.8 C38.6 16.4 36.7 14.8 34.9 13.9 C35.7 15.2 36.5 16.5 37.4 17 C35.4 17.6 34.6 18.2 31 17.7 C28.6 17.4 27.5 17.8 24.4 18.3 C23.8 18.4 19.5 10.8 21.8 5.7 C23.2 3.5 27.3 1.5 28.3 1.5 z" id="i" fill="#CE734A" /><path d="M6 15 C9.4 15.8 13.3 15.1 15.9 12.7 C16.5 12.2 17 11.5 17.6 10.9 C19.7 7.6 21.8 4.2 23.8 0.9 C23.8 1.7 23.7 2.5 23.6 3.2 C25 2.2 26.5 1.5 28.3 1.3 C25.8 4 23.8 7.1 22.4 10.5 C22.8 10.5 23.3 10.4 23.8 10.3 C24.8 10 26.6 9.5 27.4 8.4 C27.4 10.5 26.9 11.4 26.2 12.1 C28.3 11.9 30.4 12.2 32.4 13 C29.6 13.4 27.8 16.2 25.4 17.6 C25.5 17.6 28.8 17 30.9 17.9 C31 18.1 31.1 18.4 31.2 18.6 C32.2 21 32.3 23.7 31.5 26.1 C30.7 24.4 29.5 22.8 28.1 21.5 C28.6 25.5 27.5 29.7 25.6 32.8 C25.4 29.1 25.6 25.3 21.5 23.8 C23.2 26.6 21.3 31.3 20.7 34.1 C20.5 31.6 20.2 29.1 19.1 26.8 C16.2 20.4 14.9 21 9.6 21.6 C6.3 21.9 1.1 21 1 18.4 C0.9 15.8 4.2 14.6 6 15 z" id="j" fill="#32363A" /><path d="M30 17.6 C30.3 17.7 30.6 17.8 30.9 17.9 C31 18.1 31.1 18.4 31.2 18.6 C32.2 21 32.3 23.7 31.5 26.1 C30.7 24.4 29.5 22.8 28.1 21.5 C28.6 25.5 27.5 29.7 25.6 32.8 C25.4 29.1 25.6 25.3 21.5 23.8 C23.2 26.6 21.3 31.3 20.7 34.1 C20.5 31.6 20.2 29.1 19.1 26.8 C16.2 20.4 14.9 21 9.6 21.6 C6.3 21.9 1.1 21 1 18.4 C0.9 15.8 4.2 14.6 6 15 C9.4 15.8 13.3 15.1 15.9 12.7 C16.5 12.2 17 11.5 17.6 10.9 C19.7 7.6 21.8 4.2 23.8 0.9 C23.8 1.7 23.7 2.5 23.6 3.2 C25 2.2 26.5 1.5 28.3 1.3 C28.2 1.4 28.2 1.4 28.1 1.5 C28.2 1.5 28.2 1.5 28.3 1.5 C38.6 0.6 40.4 9.4 40.6 11.6 L38.5 10.4 C39.3 12.6 39.7 15.1 39.7 17.8 C38.6 16.4 36.7 14.8 34.9 13.9 C35.7 15.2 36.5 16.5 37.4 17 C35.4 17.6 34.6 18.2 31 17.7 C30.6 17.7 30.3 17.6 30 17.6 z M29.8 16.1 C29.5 16 33.3 16.9 35.1 16.4 C34.3 15.9 34.1 13.3 33.3 12.1 C35 12.9 37.9 14.3 38.9 15.6 C38.9 13.2 38.2 10.6 37.5 8.7 L39.8 10 C39.7 8.1 37 1.6 27.7 2.4 C27.6 2.4 28.5 2 28.4 2 C28.5 1.9 28.5 1.9 28.6 1.8 C27 2 24.4 4.3 23.2 5.2 C23.2 4.6 23.2 3.4 23.2 2.7 C21.3 5.6 20.8 7.4 18.9 10.3 C18.4 10.9 17.9 11.5 17.4 11.9 C15 14.1 11 16.9 7.9 16.2 C6.2 15.8 2.7 15.8 2.8 18.1 C2.9 20.4 8.7 20.1 11.6 19.8 C16.5 19.3 16.6 18.2 19.2 23.9 C20.2 25.9 20.7 26.4 20.8 28.6 C21.4 26.1 21.2 24.2 19.7 21.7 C23.4 23 25.9 24.9 26.1 28.2 C27.8 25.5 26.9 22.7 26.5 19.2 C27.8 20.3 30.3 21.7 31.1 23.2 C31.8 21.1 30 19.5 29.1 17.3 C29 17.2 29.8 16.3 29.8 16.1 z" opacity="0.15" id="k" /></g></g><g transform="translate(116.3, 272.3) scale(1.355109) translate(-116.3, -272.3) translate(102.9, 99.89996) translate(6, 119)" id="l"><path d="M13.6 44.9 C13.6 44.8 13.6 44.7 13.7 44.6 L13.8 44.7 C19.6 37.5 9.4 37.9 3.9 31.7 C1 24.9 -1.7 19.5 4.1 11.4 C8.9 4.8 20.2 -1.7 29.3 0.5 C41.5 11.5 37 28.6 34.1 35.5 C32.2 40.1 33.5 45.8 32.3 50.4 C32 51.5 26.8 55.2 23.3 54.2 C19.7 53.2 8.9 46.6 13.6 44.9 z" id="m" fill="#CE734A" /><path d="M2.3 54.9 C-0.1 45.7 8.9 46.6 13.7 45 C13.7 44.9 13.7 44.8 13.8 44.7 L13.9 44.8 C17.6 50.3 25.9 52.2 32.5 50.2 C32.2 51.4 31.2 53.3 30.3 54.3 C27.2 58 15.3 57.2 13.1 57.1 C8.7 56.9 2.8 56.9 2.3 54.9 z" id="n" fill="#E0DBD8" /><path d="M28.1 37.6 C16.6 40.3 10.7 29.9 9.1 26 C7.3 21.4 5.8 17.9 10.7 13.2 C14 10.1 29.2 17.6 36.2 28.6 C35.9 31.3 34.4 35.6 33.7 36.5 C32.2 36.4 30.4 37 28.1 37.6 z" id="o" fill="#E0DBD8" /><path d="M33.8 36.4 C32.4 40.8 33.4 46 32.3 50.2 C32.4 50.2 32.4 50.2 32.5 50.2 C32.2 51.4 31.2 53.3 30.3 54.3 C27.2 58 15.3 57.2 13.1 57.1 C8.7 56.9 2.8 56.9 2.3 54.9 C0 46.1 8 46.5 13 45.2 C13.1 45.1 13.3 45 13.6 44.9 C13.6 44.8 13.6 44.7 13.7 44.6 L13.8 44.7 C19.6 37.5 9.4 37.9 3.9 31.7 C1 24.9 -1.7 19.5 4.1 11.4 C8.9 4.8 20.2 -1.7 29.3 0.5 C38.9 9.1 38.2 21.5 36 29.8 C35.5 32.3 34.4 35.5 33.8 36.4 z M31 47.3 C31.6 44.7 31.7 39.2 33 35 C33.6 34.1 34.7 31.1 35.1 28.7 C37.2 20.9 37.8 9.1 28.8 0.9 C20.1 -1.1 9.4 5 4.9 11.3 C-0.6 19 1.9 24.1 4.7 30.5 C9.9 36.4 13.3 34.3 16.5 38.9 C19.6 43.6 12.3 46.4 12.1 46.5 C7.4 47.7 3.2 48.1 3.2 52.6 C3.6 54.4 9.2 54.4 13.4 54.6 C15.5 54.7 25.8 55.5 28.8 52 C29.6 51 30.4 49.8 31 47.3 z" opacity="0.15" id="p" /></g><g transform="translate(221.3, 272.3) scale(1.355109) translate(-221.3, -272.3) translate(116.9, 99.89996) translate(93, 148) scale(-1, 1) translate(-93, -148) translate(74, 119)" id="q"><path d="M13.6 44.9 C13.6 44.8 13.6 44.7 13.7 44.6 L13.8 44.7 C19.6 37.5 9.4 37.9 3.9 31.7 C1 24.9 -1.7 19.5 4.1 11.4 C9 4.8 20.3 -1.7 29.4 0.5 C41.6 11.5 37.1 28.6 34.2 35.5 C32.3 40.1 33.6 45.8 32.4 50.4 C32.1 51.5 26.9 55.2 23.4 54.2 C19.8 53.2 8.9 46.6 13.6 44.9 z" id="r" fill="#CE734A" /><path d="M2.3 54.9 C-0.1 45.7 8.9 46.6 13.7 45 C13.7 44.9 13.7 44.8 13.8 44.7 L13.9 44.8 C17.6 50.3 25.9 52.2 32.5 50.2 C32.2 51.4 31.2 53.3 30.3 54.3 C27.2 58 15.3 57.2 13.1 57.1 C8.7 56.9 2.8 56.9 2.3 54.9 z" id="s" fill="#E0DBD8" /><path d="M28.1 37.6 C16.6 40.3 10.7 29.9 9.1 26 C7.3 21.4 5.8 17.9 10.7 13.2 C14 10.1 29.2 17.6 36.2 28.6 C35.9 31.3 34.4 35.6 33.7 36.5 C32.3 36.4 30.6 37 28.1 37.6 z" id="t" fill="#E0DBD8" /><path d="M34 36 C32.4 40.4 33.5 45.8 32.4 50.2 C32.5 50.2 32.5 50.2 32.5 50.2 C32.2 51.4 31.2 53.3 30.3 54.3 C27.2 58 15.3 57.2 13.1 57.1 C8.7 56.9 2.8 56.9 2.3 54.9 C0 46.1 8 46.5 13 45.2 C13.1 45.1 13.3 45 13.6 44.9 C13.6 44.8 13.6 44.7 13.7 44.6 L13.8 44.7 C19.6 37.5 9.4 37.9 3.9 31.7 C1 24.9 -1.7 19.5 4.1 11.4 C9 4.8 20.3 -1.7 29.4 0.5 C39.9 10 38 23.9 35.5 32 C35 33.6 34.5 35.1 34 36 z M30.9 47.4 C31.9 43.2 31.7 38.8 33.3 34.6 C33.7 33.8 34.2 32.4 34.6 30.9 C37.1 23.2 38.8 9.9 28.9 0.9 C20.2 -1.1 9.5 5 4.9 11.3 C-0.6 19 1.9 24.1 4.7 30.5 C9.9 36.4 12.7 34.1 15.9 38.9 C19.1 43.7 12.5 46.2 12.3 46.3 C7.6 47.6 2 48.1 3.2 52.6 C3.6 54.4 9.2 54.4 13.4 54.6 C15.5 54.7 25.9 56.1 28.9 52.6 C29.7 51.6 30.9 47.4 30.9 47.4 z" opacity="0.15" id="u" /></g><g transform="translate(86.90001, 76.79997) translate(29, 49)" id="v"><path d="M88.8 24.6 C92.3 31.7 95.8 53 97.8 59.4 C99.8 65.8 98.9 80.9 99 89.1 C99.1 97.3 87.5 146.2 83.3 150.5 C81.7 152.2 75.1 153.6 64.6 153.6 C60.8 153.6 55.4 151.6 52.3 151.6 C48.8 151.6 43.2 153.7 39.8 153.6 C30.1 153.2 24.2 152.1 22.8 150.5 C19.1 146.2 6.9 103 6.5 91.8 C6.1 80.6 3.2 69.8 7.6 59.4 C10.8 52.4 13.5 40.8 16 24.6 C17.2 17.2 38.4 0.2 52.3 0.2 C73.1 0.2 85.3 17.5 88.8 24.6 z" id="w" fill="#DD7E4E" /><g transform="translate(5, 0)" id="x"><path d="M83.8 24.6 C87.3 31.7 90.8 53 92.8 59.4 C94.8 65.8 93.9 80.9 94 89.1 C94.1 97.3 82.5 146.2 78.3 150.5 C76.7 152.2 70.1 153.6 59.6 153.6 C55.8 153.6 50.4 151.6 47.3 151.6 C43.8 151.6 38.2 153.7 34.8 153.6 C25.1 153.2 19.2 152.1 17.8 150.5 C14.1 146.2 1.9 103 1.5 91.8 C1.1 80.6 -1.8 69.8 2.6 59.4 C5.8 52.4 8.5 40.8 11 24.6 C12.2 17.2 33.4 0.2 47.3 0.2 C68.1 0.2 80.3 17.5 83.8 24.6 z M83 24.8 C79.6 17.8 67.6 0.9 47.3 0.9 C33.7 0.9 13 17.5 11.8 24.8 C9.4 40.6 6.7 52 3.6 58.8 C-0.7 69 2.1 79.5 2.5 90.4 C2.9 101.3 14.8 143.6 18.5 147.8 C19.9 149.4 25.6 150.4 35.1 150.8 C38.4 150.9 43.9 148.8 47.3 148.8 C50.3 148.8 55.6 150.8 59.3 150.8 C69.6 150.8 76 149.4 77.6 147.8 C81.7 143.6 93 95.8 92.9 87.8 C92.8 79.8 93.7 65 91.8 58.8 C89.8 52.5 86.4 31.7 83 24.8 z" fill-opacity="0.2" id="y" /></g></g><g transform="translate(116.17, 164.84) scale(1.2, 1.11968) translate(-124.9, -179.5999) translate(109.6, 96.79996) translate(59, 136) scale(-1, 1) translate(-59, -136) translate(16, 84)" id="z"><path d="M10.2 21.5 C10.3 21.2 21.2 -0.7 27.1 1.2 C31.4 2.6 35.1 7.2 36.8 10.5 C38.5 13.8 43 34.1 39.9 40.8 C37.7 45.5 33.3 46.5 28.3 45.3 C28 49 27.7 51.8 27.2 53.1 C26.2 62.6 31 81.3 32.2 92 C31.5 105 22.7 103.5 16.9 102.2 C13.4 101.4 10.8 99 12.4 94.9 C12.9 93.6 13.6 92.2 14.2 90.8 C14.7 84.8 13.6 79.1 12.3 72.9 C11.1 67.4 10.2 21.5 10.2 21.5 z" id="a1" fill="#FEFEFE" /><path d="M75.8 21.5 C75.7 21.2 64.8 -0.7 58.9 1.2 C54.6 2.6 50.9 7.2 49.2 10.5 C47.5 13.8 43 34.1 46.1 40.8 C48.3 45.5 52.7 46.5 57.7 45.3 C58 49 58.3 51.8 58.8 53.1 C59.8 62.6 55 81.3 53.8 92 C54.5 105 63.3 103.5 69.1 102.2 C72.6 101.4 75.2 99 73.6 94.9 C73.1 93.6 72.4 92.2 71.8 90.8 C71.3 84.8 72.4 79.1 73.7 72.9 C75.1 67.4 75.8 21.5 75.8 21.5 z" id="b1" fill="#FEFEFE" /><path d="M9.6 11.2 C11.4 8 16.2 2.9 17.2 1.8 C20.5 -0.8 30.2 -1.2 32 8.4 C32.8 11.9 30.3 16.7 28.9 18.7 C28.4 19.4 28.1 19.9 28 20.3 C27.9 21 28.5 22.6 29.1 24.8 C29.9 27.7 30.6 31.5 29.2 34.9 C28.9 35.5 28.6 36.1 28.2 36.7 C25.6 40.3 21.2 37.3 17.7 39.2 C17.7 39.4 17.6 39.6 17.6 39.7 C15.8 49.4 23.5 59.2 21.3 70.8 C20.7 74.1 16.9 76.3 12.6 74.8 C11.3 68.6 9.5 62.1 8.7 54.5 C3.3 48.8 -0.6 44.9 1.1 28.6 C2.1 19.3 5.8 14.9 9.6 11.2 z" id="c1" fill="#F5A376" /><path d="M26.9 1.1 C27 1.2 27 1.2 27.1 1.2 C31.4 2.6 35.1 7.2 36.8 10.5 C38.5 13.8 43 34.1 39.9 40.8 C37.7 45.5 33.3 46.5 28.3 45.3 C28 49 27.7 51.8 27.2 53.1 C26.2 62.6 31 81.3 32.2 92 C31.5 105 22.7 103.5 16.9 102.2 C13.4 101.4 10.8 99 12.4 94.9 C12.9 93.6 13.6 92.2 14.2 90.8 C14.6 85.4 13.8 80.3 12.7 74.8 C12.7 74.8 12.6 74.8 12.6 74.8 C11.3 68.6 9.5 62.1 8.7 54.5 C3.3 48.8 -0.6 44.9 1.1 28.6 C2.1 19.3 5.8 14.9 9.6 11.2 C11.4 8 16.2 2.9 17.2 1.8 C19.2 0.3 23.4 -0.5 26.9 1.1 z M26.7 2.1 C26.7 2.1 26.6 2.1 26.5 2 C23.2 0.5 19.3 1.2 17.4 2.7 C16.5 3.7 11.9 8.6 10.2 11.6 C6.7 15.1 3.2 19.3 2.2 28.2 C0.6 43.7 5.5 48.5 10.6 54 C11.4 61.2 11.8 66.2 13.2 72.2 C14.2 77.4 14.9 82 15.5 86 C15.5 88.3 15.8 90.3 15.3 91.5 C13.8 95.4 13.8 97.4 17.1 98.2 C22.6 99.4 29.7 101.8 30.4 89.4 C29.3 79.2 24.9 61.1 25.8 52 C26.3 50.8 27 47.1 27.3 43.6 C32 44.7 36.7 44.3 38.8 39.8 C41.7 33.4 37.5 14.1 35.9 10.9 C34.3 7.8 30.8 3.4 26.7 2.1 z" opacity="0.15" id="d1" /><path d="M76.6 11.2 C74.8 8 69.9 2.9 68.9 1.8 C65.6 -0.8 55.9 -1.2 54.1 8.4 C53.3 11.9 55.8 16.7 57.2 18.7 C57.7 19.4 58 19.9 58.1 20.3 C58.2 21 57.6 22.6 57 24.8 C56.2 27.7 55.5 31.5 56.9 34.9 C57.2 35.5 57.5 36.1 57.9 36.7 C60.5 40.3 64.9 37.3 68.4 39.2 C68.4 39.4 68.5 39.6 68.5 39.7 C70.3 49.4 62.6 59.2 64.8 70.8 C65.4 74.1 69.2 76.3 73.5 74.8 C74.8 68.6 76.6 62.1 77.4 54.5 C82.8 48.8 86.7 44.9 85 28.6 C83.9 19.3 80.2 14.9 76.6 11.2 z" id="e1" fill="#F5A376" /><path d="M73.3 74.9 C72.2 80.3 71.4 85.4 71.8 90.8 C72.4 92.2 73.1 93.6 73.6 94.9 C75.2 99 72.6 101.4 69.1 102.2 C63.3 103.5 54.5 105 53.8 92 C55 81.3 59.8 62.6 58.8 53.1 C58.3 51.8 58 49 57.7 45.3 C52.7 46.5 48.3 45.5 46.1 40.8 C43 34.1 47.5 13.8 49.2 10.5 C50.9 7.2 54.6 2.6 58.9 1.2 C59 1.2 59.2 1.1 59.3 1.1 C62.8 -0.5 66.9 0.3 68.9 1.8 C69.9 2.9 74.8 8 76.6 11.2 C80.2 14.9 83.9 19.3 85 28.6 C86.7 44.9 82.8 48.8 77.4 54.5 C76.6 62.1 74.8 68.6 73.5 74.8 C73.4 74.8 73.4 74.8 73.3 74.9 z M72.6 73.1 C74.4 64.5 75.5 57.8 76 53 C81.2 47.6 85 42.8 83.4 27.3 C82.3 18.5 79.5 14.6 76 11.1 C74.3 8 68.8 3.6 67.8 2.6 C66 1.1 62.9 1 59.6 2.6 C59.4 2.6 59.3 2.6 59.2 2.7 C55.1 4 51.6 8.4 50 11.5 C48.4 14.6 44.9 33.2 47.8 39.5 C49.9 44 54 44.4 58.7 43.2 C59 46.7 59.8 51.8 60.2 53 C61.2 62.1 57 78.6 55.8 88.8 C56.5 101.2 63.4 100 68.9 98.7 C72.2 98 72.8 96.4 71.3 92.5 C70.8 91.3 70.5 90.1 70.5 88.1 C70.1 83 71.5 78.3 72.6 73.1 z" opacity="0.15" id="f1" /></g></g><g transform="translate(169.6, 177.3) scale(0.9407486) translate(-169.6, -177.3)" id="g1"><g transform="translate(109.9, 66.29997) translate(11, 26)" id="h1"><path d="M5.5 77 C0.1 65.8 -0.6 51.2 1 39.1 C3.2 27.2 8.5 25.2 15.8 17.9 C23.1 10.6 25.8 0.2 49.1 0.3 C72.3 0.4 73.5 8.3 79.9 14.4 C86.3 20.4 92.4 23.4 96.2 30.6 C100 37.8 101.2 59.8 96.2 71.2 C92 80.9 80.7 92.2 66.3 92.4 C54.5 93 51.9 93.8 40.2 93.8 C28.5 93.8 11.5 88.2 5.5 77 z" id="i1" fill="#ED8B52" /><path d="M5.5 77 C0.1 65.8 -0.6 51.2 1 39.1 C3.2 27.2 8.5 25.2 15.8 17.9 C23.1 10.6 25.8 0.2 49.1 0.3 C72.3 0.4 73.5 8.3 79.9 14.4 C86.3 20.4 92.4 23.4 96.2 30.6 C100 37.8 101.2 59.8 96.2 71.2 C92 80.9 80.7 92.2 66.3 92.4 C54.5 93 51.9 93.8 40.2 93.8 C28.5 93.8 11.5 88.2 5.5 77 z M7.3 74.8 C13 85.6 29.3 90.9 40.6 90.9 C51.9 90.9 54.3 90.1 65.7 89.6 C79.5 89.4 90.4 78.6 94.4 69.2 C99.2 58.3 98 37.1 94.4 30.2 C90.8 23.3 84.9 20.4 78.7 14.6 C72.6 8.8 71.4 1.2 49.1 1.2 C26.7 1.1 24.1 11.1 17.1 18.1 C10.1 25.1 5 27 2.9 38.4 C1.4 50 2.1 64.1 7.3 74.8 z" opacity="0.15" id="j1" /></g><g transform="translate(110.6, 83.49997) translate(3, 2)" id="k1"><path d="M33.9 21.7 C35.1 19.6 35.4 14.7 32.2 12.1 C29.1 9.6 18.9 1.4 16 0.8 C13.1 0.2 11.9 0 9.8 0.8 C8 1.5 6.7 3.9 6.3 4.9 C5.4 7 1.1 13.6 1.1 21.6 C1.1 29.6 0.5 36.5 1.1 39.7 C1.7 42.8 3.2 42.8 4.7 42.8 C5.5 42.8 11.7 35.5 18.8 30.6 C26 25.6 32.8 23.8 33.9 21.7 z" id="l1" fill="#CE734A" /><path d="M33.9 21.7 C32.8 23.8 26 25.6 18.8 30.6 C11.7 35.5 5.5 42.8 4.7 42.8 C3.2 42.8 1.7 42.8 1.1 39.7 C0.5 36.5 1.1 29.6 1.1 21.6 C1.1 13.6 5.4 7 6.3 4.9 C6.7 3.9 8 1.5 9.8 0.8 C11.9 0 13.1 0.2 16 0.8 C18.9 1.4 29.1 9.6 32.2 12.1 C35.4 14.7 35.1 19.6 33.9 21.7 z M32.1 20.3 C33.2 18.4 33.4 14.1 30.6 11.8 C27.9 9.6 18.9 2.3 16.3 1.8 C13.7 1.3 12.7 1.1 10.8 1.8 C9.2 2.4 8.1 4.5 7.7 5.4 C6.9 7.3 3.1 13.1 3.1 20.2 C3.1 27.3 2.6 33.4 3.1 36.3 C3.7 39 5 39 6.3 39 C7 39 12.5 32.5 18.7 28.2 C25.1 23.7 31.1 22.1 32.1 20.3 z" opacity="0.15" id="m1" /></g><g transform="translate(99.3, 86.69997) translate(110, 21.5) scale(-1, 1) translate(-110, -21.5) translate(92, 0)" id="n1"><path d="M33.6 22.2 C34.4 20.7 35.3 19.4 35.3 18.1 C35.5 15.9 34.2 13.7 32.2 12.1 C29 9.6 20.6 2.3 15.9 0.8 C14.9 0.5 12.5 0.3 10.8 0.8 C8.4 1.6 6.8 3.7 6.2 4.9 C5.3 7 2.3 12.3 1 21.7 C-0.3 31 0.4 36.6 1 39.7 C1.6 42.8 3.1 42.8 4.6 42.8 C5.4 42.8 12.2 36.3 19.6 31.3 C26.6 26.5 32.8 23.6 33.6 22.2 z" id="o1" fill="#CE734A" /><path d="M33.6 22.2 C32.8 23.6 26.6 26.5 19.6 31.3 C12.2 36.3 5.4 42.8 4.6 42.8 C3.1 42.8 1.6 42.8 1 39.7 C0.4 36.6 -0.3 31 1 21.7 C2.3 12.3 5.3 7 6.2 4.9 C6.8 3.7 8.4 1.6 10.8 0.8 C12.5 0.3 14.9 0.5 15.9 0.8 C20.6 2.3 29 9.6 32.2 12.1 C34.2 13.7 35.5 15.9 35.3 18.1 C35.3 19.4 34.4 20.7 33.6 22.2 z M31.9 20.5 C32.6 19.2 33.4 18 33.4 16.9 C33.6 15 32.4 13 30.6 11.6 C27.7 9.4 20.2 3 16 1.7 C15.1 1.4 13 1.3 11.4 1.7 C9.4 2.5 8 4.3 7.4 5.4 C6.6 7.2 3.9 11.9 2.8 20.1 C1.6 28.2 2.3 33.2 2.8 35.9 C3.3 38.6 4.7 38.6 6 38.6 C6.7 38.6 12.8 32.9 19.4 28.5 C25.7 24.3 31.2 21.7 31.9 20.5 z" opacity="0.15" id="p1" /></g><g transform="translate(171.6, 148.0999) scale(1.1) translate(-171.6, -148.0999)" id="q1"><g transform="translate(104.6, 68.69996) translate(51, 30)" id="r1"><g id="s1"><path d="M30.4 60.8 C26.6 54.2 23.9 51.2 20.9 43.5 C19 34.9 16.9 19.5 18.5 15 C20.3 9.9 23.1 3.4 21.3 1.4 C19.3 -0.9 15.9 0.6 15.9 0.6 C15.9 0.6 12.5 -0.9 10.5 1.4 C8.7 3.4 11.6 9.9 13.3 15 C14.9 19.6 12.9 34.9 10.9 43.5 C7.9 51.2 5.3 54.3 1.4 60.8 C-0.9 64.8 -0.8 75.4 6.3 78 C9.1 79 14.5 79.3 15.9 79.3 C17.2 79.3 22.6 79 25.5 78 C32.6 75.4 32.8 64.8 30.4 60.8 z" id="t1" fill="#FFF" /><path d="M30.4 60.8 C32.8 64.8 32.6 75.4 25.5 78 C22.6 79 17.2 79.3 15.9 79.3 C14.5 79.3 9.1 79 6.3 78 C-0.8 75.4 -0.9 64.8 1.4 60.8 C5.3 54.3 7.9 51.2 10.9 43.5 C12.9 34.9 14.9 19.6 13.3 15 C11.6 9.9 8.7 3.4 10.5 1.4 C12.5 -0.9 15.9 0.6 15.9 0.6 C15.9 0.6 19.3 -0.9 21.3 1.4 C23.1 3.4 20.3 9.9 18.5 15 C16.9 19.5 19 34.9 20.9 43.5 C23.9 51.2 26.6 54.2 30.4 60.8 z M27.6 59.1 C23.9 52.8 22.5 49.6 19.7 42.3 C17.9 34.1 16.8 17.6 18.3 13.3 C20 8.5 22.2 3.9 20.4 2 C18.5 -0.2 15.9 1.5 15.9 1.5 C15.9 1.5 13.3 0.1 11.4 2.3 C9.7 4.2 12.3 9.1 13.9 13.9 C15.4 18.3 14.3 34.1 12.4 42.3 C9.5 49.6 7.5 53.2 3.8 59.4 C1.6 63.2 0 72.7 6.8 75.1 C9.4 76.1 14.6 76.4 15.9 76.4 C17.1 76.4 22.3 76.1 25 75.1 C31.8 72.7 29.8 62.9 27.6 59.1 z" opacity="0.15" id="u1" /></g></g><g transform="translate(111.3, 70.79996) translate(39, 80)" id="v1"><path d="M0.8 2.5 C0.9 3.5 1.7 5.7 2.3 7 C3.9 10.9 6.6 13.2 7.4 13.8 C11 16.7 14.3 16.6 21.5 16.6 C30.5 16.7 31.2 15.6 35.8 13.1 C41.7 9.9 42.9 1.6 42.9 0.8 C42.8 0 41.9 0 41.8 0.5 C41.6 1.1 41.7 2.5 41.5 3.1 C41.1 5 40.6 6 39.9 6.7 C38.1 8.6 35 10.2 32.4 10.3 C28.3 10.4 25.9 7.6 23.6 4.2 C23.3 3.7 22.6 3.4 21.4 3.1 C20.3 3.4 19.6 3.8 19.2 4.2 C16 7.9 13.7 10.6 11 10.6 C8.1 10.6 5.1 9 3.8 6.5 C3.2 5.2 2.5 3.9 1.9 1.6 C1.9 1.1 0.7 1.4 0.8 2.5 z" fill-opacity="0.1" id="w1" fill="#010101" /><g transform="translate(5, 7)" id="x1"><path d="M0.6 5.8 C5.2 7.6 9 7.6 11.9 5.8 C13.9 4.6 15.2 3.4 15.7 2.2 C15.9 1.8 16.1 1.5 16.3 1.2 C16.8 2.5 18.2 4 20.5 5.8 C22.8 7.6 26.5 7.6 31.6 5.8 C26.6 12.8 21.3 16.3 15.8 16.3 C10.3 16.3 5.3 12.8 0.6 5.8 z" id="y1" fill="#424242" /><path d="M8.8 13.5 L8.8 6.9 C10.6 6.3 11.7 5.9 12.2 5.6 C13.3 4.9 14.7 3.2 16.2 0.6 C18 3.2 19.7 4.9 21 5.8 C21.5 6.1 22.4 6.5 23.9 7 L23.9 13.5 C27.1 22.1 24.6 26.2 16.4 26 C8.4 25.7 5.8 21.6 8.8 13.5 z" id="z1" fill="#FFB8B3" /></g></g><g transform="translate(171.6, 158.5999) scale(0.75) translate(-171.6, -158.5999) translate(106.1, 107.1) translate(56, 46)" id="a2"><g id="b2"><path d="M16.1 2.4 C15.2 0.6 12.9 0.2 9.5 0.2 C6.1 0.2 3.8 0.6 2.9 2.4 C2 4.2 -1.3 9.4 2.6 10 C6.4 10.6 7.8 10.6 9.5 10.6 C11.2 10.6 12.6 10.6 16.4 10 C20.3 9.5 17 4.2 16.1 2.4 z" id="c2" fill="#282421" /><path d="M3.4 5.3 C3.4 3.9 5.2 1.7 6.1 1.5 C7.2 1.3 12.5 1.3 13.8 1.9 C15 2.5 15 4.3 15 5 C13.8 4.3 11.7 3 9.4 3.1 C7.2 3.3 5 4.2 3.4 5.3 z" id="d2" fill="#FFF" /></g></g><g transform="translate(117.6, 88.59996) translate(31, 38)" id="e2"><g id="f2"><path d="M16.2 9 C14.2 11.9 10.5 13.5 7.1 12.8 C3.7 12.1 0.8 9.3 0 5.9 C1.5 3.8 3.6 2.1 6 1.2 C8.4 0.4 11.2 0.5 13.4 1.8 C15.6 3.1 17.1 5.7 16.9 8.2" id="g2" fill="#EAA9A7" /><path d="M11.4 2.2 C8.8 0.5 4.2 3.4 1.5 6.3 C1.3 6.7 2.8 9.2 5.1 10.4 C7 11.4 9.2 11.4 10.8 10.6 C12.3 9.9 13.9 8.8 14.7 7 C14.8 5 12.9 3.2 11.4 2.2 z" id="h2" fill="#282421" /><path d="M9.1 2.8 C8.3 2.6 7.4 2.8 6.6 3.2 C6.6 3.2 4.7 4.6 5.1 5.4 C5.5 6.2 6.8 5.9 8.2 5.2 C9.6 4.5 9.9 3.6 9.8 3.4 C9.8 3 9.4 2.9 9.1 2.8 z" id="i2" fill="#F4F3F2" /></g></g><g transform="translate(107.6, 88.59996) translate(70, 38)" id="j2"><g id="k2"><path d="M0.8 9 C2.8 11.9 6.5 13.5 9.9 12.8 C13.3 12.1 16.2 9.3 17 5.9 C15.5 3.8 13.4 2.1 11 1.2 C8.6 0.4 5.8 0.5 3.6 1.8 C1.4 3.1 -0.1 5.7 0.1 8.2" id="l2" fill="#EAA9A7" /><path d="M5.4 2.2 C8 0.5 12.6 3.4 15.3 6.3 C15.5 6.7 14 9.2 11.7 10.4 C9.8 11.4 7.6 11.4 6 10.6 C4.5 9.9 2.9 8.8 2.1 7 C2.2 5 3.9 3.2 5.4 2.2 z" id="m2" fill="#282421" /><path d="M8.3 2.8 C7.5 2.6 6.6 2.8 5.8 3.2 C5.8 3.2 3.9 4.6 4.3 5.4 C4.7 6.2 6 5.9 7.4 5.2 C8.7 4.5 9.1 3.6 9 3.4 C8.9 3 8.6 2.9 8.3 2.8 z" id="n2" fill="#F4F3F2" /></g></g></g></g></g></g><defs><g transform="translate(17.09519, 0.800995) translate(-135.2952, -293.601)" id="o2" fill="#000"><path d="M118.2 302.7 C118.4 307.4 132.5 311.2 149.8 311.2 C167.1 311.2 181.2 307.4 181.4 302.7 C181.4 307.5 181.4 310.1 181.4 310.5 C181.4 315.3 167.3 319.1 149.8 319.1 C132.3 319.1 118.2 315.2 118.2 310.5 L118.2 302.7 L118.2 302.7 z" fill-opacity="0.4528" id="p2" fill="#593001" /><path d="M118.7 301.7 C118.9 306.4 133 310.2 150.3 310.2 C167.6 310.2 181.7 306.4 181.9 301.7 C181.9 306.5 181.9 309.1 181.9 309.5 C181.9 314.3 167.8 318.1 150.3 318.1 C132.8 318.1 118.7 314.2 118.7 309.5 L118.7 301.7 L118.7 301.7 z" id="q2" fill="#DA8113" /><linearGradient x1="46.0545" y1="-118.6926" x2="45.4656" y2="-118.6926" gradientUnits="userSpaceOnUse" gradientTransform="matrix(117.135, 0, 0, 28.4634, -5208.417, 3687.795)" id="r2"><stop offset="0%" stop-color="#D9952A" stop-opacity="1" /><stop offset="6.438854%" stop-color="#CA7519" stop-opacity="1" /><stop offset="30.54%" stop-color="#E3AD3A" stop-opacity="1" /><stop offset="51.05%" stop-color="#FFEC91" stop-opacity="1" /><stop offset="68.8%" stop-color="#E9BD44" stop-opacity="1" /><stop offset="86.24%" stop-color="#FFED6C" stop-opacity="1" /><stop offset="93.87%" stop-color="#F2D353" stop-opacity="1" /><stop offset="100%" stop-color="#F2B947" stop-opacity="1" /></linearGradient><path d="M118.2 301.6 C118.4 306.1 132.7 309.7 150.3 309.7 C167.9 309.7 182.2 306.1 182.4 301.6 C182.4 306.2 182.4 308.7 182.4 309 C182.4 313.5 168 317.2 150.3 317.2 C132.6 317.2 118.2 313.5 118.2 309 L118.2 301.6 L118.2 301.6 z" id="s2" style="fill:url(#r2)" /><linearGradient x1="45.4914" y1="-117.9547" x2="45.9407" y2="-117.5895" gradientUnits="userSpaceOnUse" gradientTransform="matrix(115.425, 0, 0, 29.925, -5125.077, 3826.124)" id="t2"><stop offset="0%" stop-color="#F4E072" stop-opacity="1" /><stop offset="100%" stop-color="#DB9427" stop-opacity="1" /></linearGradient><ellipse cx="150.3" cy="301.5" rx="31.6" ry="8.2" id="u2" style="fill:url(#t2)" /><linearGradient x1="45.4656" y1="-126.0065" x2="46.0545" y2="-126.0065" gradientUnits="userSpaceOnUse" gradientTransform="matrix(117.135, 0, 0, 18.6219, -5208.417, 2651.479)" id="v2"><stop offset="0%" stop-color="#D9952A" stop-opacity="1" /><stop offset="6.438854%" stop-color="#CA7519" stop-opacity="1" /><stop offset="30.54%" stop-color="#E3AD3A" stop-opacity="1" /><stop offset="51.05%" stop-color="#FFEC91" stop-opacity="1" /><stop offset="68.8%" stop-color="#E9BD44" stop-opacity="1" /><stop offset="86.24%" stop-color="#FFED6C" stop-opacity="1" /><stop offset="93.87%" stop-color="#F2D353" stop-opacity="1" /><stop offset="100%" stop-color="#F2B947" stop-opacity="1" /></linearGradient><path d="M119.2 299.9 C119 300.2 118.9 300.6 118.9 301 C118.9 305.5 132.9 309.2 150.3 309.2 C167.7 309.2 181.7 305.5 181.7 301 C181.7 300.6 181.6 300.3 181.4 299.9 C182 300.5 182.4 301.2 182.4 301.9 C182.4 306.4 168 310.1 150.3 310.1 C132.6 310.1 118.2 306.4 118.2 301.9 C118.2 301.3 118.6 300.6 119.2 299.9 z" id="w2" style="fill:url(#v2)" /><linearGradient x1="45.196" y1="-121.5895" x2="45.3746" y2="-120.6758" gradientUnits="userSpaceOnUse" gradientTransform="matrix(101.745, 0, 0, 23.94, -4458.332, 3199.41)" id="x2"><stop offset="0%" stop-color="#F8DD61" stop-opacity="1" /><stop offset="100%" stop-color="#EAA330" stop-opacity="1" /></linearGradient><ellipse cx="150.3" cy="300.8" rx="27.8" ry="6.6" id="y2" style="fill:url(#x2)" /><linearGradient x1="45.5694" y1="-134.267" x2="45.0221" y2="-134.267" gradientUnits="userSpaceOnUse" gradientTransform="matrix(101.745, 0, 0, 13.2525, -4458.332, 2077.223)" id="z2"><stop offset="0%" stop-color="#F4CA2F" stop-opacity="1" /><stop offset="51.38%" stop-color="#BF7737" stop-opacity="1" /><stop offset="100%" stop-color="#E4A929" stop-opacity="1" /></linearGradient><path d="M122.6 301.5 C122.5 301.3 122.4 301 122.4 300.8 C122.4 297.2 134.9 294.2 150.2 294.2 C165.5 294.2 178 297.1 178 300.8 C178 301 177.9 301.3 177.8 301.5 C176.3 298.2 164.5 295.6 150.1 295.6 C135.7 295.6 124.1 298.2 122.6 301.5 z" id="a3" style="fill:url(#z2)" /></g></defs><desc>BJNNO2JOHNO,kKnTzjDvVB2tIIsxqnbGPAbSoPZwDdssQ13gQFqbwp6kuu7VmNLg/DLN83Zz0iKS2X44uH6BTgVe1qp9xbsHJA3lCAMRIkRO2k07p8uwOqE=</desc></svg>