<?xml version="1.0" encoding="utf-8"?><!DOCTYPE svg PUBLIC "-//W3C//DTD SVG 1.1//EN" "http://www.w3.org/Graphics/SVG/1.1/DTD/svg11.dtd"><svg x="0" y="0" width="340px" height="340px" viewBox="0, 0, 340, 340" preserveAspectRatio="xMidYMid" font-size="0" id="a" enable-background="new 0 0 340 340" xmlns="http://www.w3.org/2000/svg" xmlns:xlink="http://www.w3.org/1999/xlink" xmlns:xml="http://www.w3.org/XML/1998/namespace" version="1.1"><g id="b" fill="#000"><g id="c"><g transform="translate(0, 0) translate(0, 224)" id="d"><ellipse cx="168.6" cy="53.1" rx="57.8" ry="12.8" fill-opacity="0.25" id="e" /></g><g id="f"><g transform="translate(90.8, 85.19998) translate(32, 179.5) scale(-1, 1) translate(-32, -179.5) translate(0, 153)" id="g"><g transform="translate(0, 17)" id="h"><path d="M30.7 15 C52.5 16.6 52.4 22.4 52 26.3 C51.6 30.2 36 32.3 37.8 33.7 C39.6 35.1 58.8 32.5 62.5 26.3 C66.2 20.1 62.3 11.8 50.5 7.5 C38.7 3.2 23 -1.1 10.1 2 C3.4 3.6 -3.8 8.7 3.9 12.4 C7.9 14.4 19 14.1 30.7 15 z" id="i" fill="#74401C" /><path d="M30.7 15 C52.5 16.6 52.4 22.4 52 26.3 C51.9 27.1 51.2 27.8 50.2 28.4 C50.3 28.4 50.4 28.5 50.4 28.5 C54.6 25.4 56.1 22.6 55.1 20.2 C53.6 16.6 48.8 12.3 41.2 10.5 C36.1 9.3 28.7 7.9 19.6 6 L12.4 6.8 L12.4 12.3 C12.4 12.6 13.5 13.3 15 14.1 C19.6 14.4 25.1 14.5 30.7 15 z" id="j" fill="#9B5526" /><path d="M30.7 15 C19 14.1 7.9 14.4 3.9 12.4 C-3.8 8.7 3.4 3.6 10.1 2 C23 -1.1 38.7 3.2 50.5 7.5 C62.3 11.8 66.2 20.1 62.5 26.3 C58.8 32.5 39.6 35.1 37.8 33.7 C36 32.3 51.6 30.2 52 26.3 C52.4 22.4 52.5 16.6 30.7 15 z M33.4 13.3 C53.2 14.8 53.4 21.9 53 25.5 C52.8 27 51.1 28.7 48.2 29.9 C44.3 31.5 39.1 32.3 40.1 33.1 C41.7 34.3 59 30.6 62 25.2 C65 19.8 60.9 12.4 50.9 8.8 C40.9 5.2 24 0.1 14.4 2.2 C8.2 3.6 1.8 8.3 8.7 11.7 C12.4 13.5 22.8 12.4 33.4 13.3 z" opacity="0.15" id="k" /></g></g><g transform="translate(116.3, 272.3) scale(1.762527) translate(-116.3, -272.3) translate(93.10001, 121.1) translate(14, 108)" id="l"><path d="M2.1 21.4 C2.2 21.2 2.3 21 2.4 20.8 C2.5 20.1 2.5 19.4 2.7 18.7 C2.7 18.6 2.7 18.6 2.6 18.5 C2.2 19.4 1.3 20 0.4 20.2 C2 16.9 3.6 13.7 5.3 10.4 C4.7 10.5 4.1 10.6 3.5 10.7 C4.2 10.6 5.4 7.8 6.7 6.5 C6 5.9 5.5 5 5.4 4.1 C5.3 2.6 6.3 1.1 7.7 0.6 C7.4 1.6 7.8 2.8 8.7 3.4 C9.1 3.7 9.6 3.8 10.1 3.7 C10.7 3.2 11.2 2.9 11.8 2.7 C14.3 1.9 17.2 2.2 20 3.1 C22.8 4 23.9 33 24 41.7 C24 45.6 12.3 42.2 11.6 36.1 C9.7 33.5 7.4 32.4 5.6 30.6 C5.6 30.6 5.5 30.6 5.5 30.5 C3.9 29.7 2.7 28.2 2.2 26.5 C1.2 26.2 0.8 25 1 24.1 C1 23.1 1.6 22.2 2.1 21.4 z" id="m" fill="#EFE9E6" /><path d="M7.5 19 C8.9 15.6 10.4 13 13.3 10.8 C13.3 10.8 10.8 10.6 9.6 11.2 C10.2 9.8 12.7 7.1 15.3 5.3 C14.8 4.9 14.1 4.5 13.4 4.3 C15.4 2.8 18.2 2.6 20.6 3.5 C20.7 3.5 23.7 2.9 23.8 2.9 C26.3 3.3 34.3 4.7 35.8 6.4 C39.7 10.9 41.1 18.5 39.2 23.8 C36.9 30.5 23.8 27.2 23.7 41.6 L23.7 41.7 C22.9 41 22.2 40.5 21.9 40.4 C18.6 39.4 15 36.3 14.1 32.2 C13.8 30.9 14.1 29.7 13.6 29.8 C13.1 29.8 12.9 30.9 12.4 32.6 C12.5 31.8 11.5 28.7 10.6 28.7 C11 27.9 10.8 26.9 10.4 26.1 C10 25.3 9.4 24.6 9.1 23.8 C8.3 22 8.8 19.7 10.1 18.3 C9.4 18.5 8.5 18.8 7.5 19 z" id="n" fill="#9B5526" /><path d="M11.5 36.1 L11.4 36 C15.3 36.5 19.1 37.8 22.4 39.9 C22.9 40.2 23.4 40.6 23.9 41 C23.9 41.2 23.9 41.4 23.9 41.7 C23.9 45.6 19.8 45.9 15.9 46.2 C12 46.5 7.2 46.2 6.8 41.2 C6.5 37.9 8.5 37.8 11.5 36.1 z" id="o" fill="#CECAC2" /><path d="M11.5 36 C9.6 33.5 7.3 32.4 5.6 30.6 C5.6 30.6 5.5 30.6 5.5 30.5 C3.9 29.7 2.7 28.2 2.2 26.5 C1.2 26.2 0.8 25 1 24.1 C1 23.1 1.6 22.2 2.1 21.4 L2.4 20.8 C2.5 20.1 2.5 19.4 2.7 18.7 C2.7 18.6 2.7 18.6 2.6 18.5 C2.2 19.4 1.3 20 0.4 20.2 C2 16.9 3.6 13.7 5.3 10.4 L3.5 10.7 C4.2 10.6 5.4 7.8 6.7 6.5 C6 5.9 5.5 5 5.4 4.1 C5.3 2.6 6.3 1.1 7.7 0.6 C7.4 1.6 7.8 2.8 8.7 3.4 C9.1 3.7 9.6 3.8 10.1 3.7 C10.7 3.2 11.2 2.9 11.8 2.7 C14.3 1.9 17.2 2.2 20 3.1 C20.1 3.1 20.3 3.3 20.4 3.4 C20.5 3.4 20.5 3.4 20.6 3.5 C20.7 3.5 23.7 2.9 23.8 2.9 C26.3 3.3 34.3 4.7 35.8 6.4 C39.7 10.9 41.1 18.5 39.2 23.8 C37.1 30 25.7 27.6 23.9 38.6 C23.9 39.8 23.9 40.9 24 41.7 C24 42 23.9 42.2 23.9 42.4 C23.4 45.7 19.6 45.9 15.9 46.2 C12 46.5 7.2 46.2 6.8 41.2 C6.5 37.9 8.5 37.8 11.5 36 L11.4 36 C11.4 36 11.5 36 11.5 36 z M6.2 29.4 C7.6 30.5 9.5 32.3 12.1 34.6 L13 36.4 C10.2 38 7.7 37.3 8 40.3 C8.4 44.9 12.6 43.7 16.2 43.4 C19.6 43.1 22.1 43.3 22.5 40.3 C22.6 40.1 22.9 38.6 22.9 38.4 C22.9 37.6 23.6 36.4 23.5 35.3 C25.2 25.2 36.1 29.2 38 23.5 C39.8 18.6 38.6 11.8 35 7.6 C33.6 6 26 4.2 23.7 3.9 C23.6 3.9 20.6 4 20.5 4 C20.4 4 20.4 4 20.3 3.9 C20.2 3.7 20.1 3.6 19.9 3.6 C17.3 2.8 14.6 2.5 12.3 3.2 C11.7 3.4 11.3 3.7 10.7 4.1 C10.2 4.2 9.3 4.8 9 4.5 C8.3 4.1 6.8 2.9 7.1 2 C5.9 3.2 6.1 3.4 6.2 4.8 C6.3 5.6 7.1 5.9 7.8 6.4 C6.5 7.6 6 9.5 5.4 9.6 L7 9.7 C6.2 11.2 5.3 12.3 4.6 13.7 C3.8 15.1 3.2 16.7 2.4 18.3 C3.2 18.1 3.6 17.8 4 17 C4 17 3.7 18.5 3.7 18.6 C3.5 19.2 3.6 19.8 3.5 20.4 L3 21.6 C2.5 22.3 2.4 22.1 2.4 23 C2.2 23.8 2.6 25.6 3.5 25.9 C3.7 26.6 4.5 28.1 6.2 29.4 z" opacity="0.15" id="p" /></g><g transform="translate(221.3, 272.3) scale(1.762527) translate(-221.3, -272.3) translate(125.2, 121.1) translate(84, 131.5) scale(-1, 1) translate(-84, -131.5) translate(63, 108)" id="q"><g id="r"><path d="M1.7 20.8 C1.8 20.6 1.9 20.4 2 20.2 C2.1 19.5 2.1 18.8 2.3 18.1 C2.3 18 2.3 18 2.2 17.9 C1.8 18.8 0.9 19.4 0 19.6 C1.6 16.3 3.2 13.1 4.9 9.8 C4.3 9.9 3.7 10 3.1 10.1 C3.8 10 5 7.2 6.3 5.9 C5.6 5.3 5.1 4.4 5 3.5 C4.9 2 5.9 0.5 7.3 0 C7 1 7.4 2.2 8.3 2.8 C8.7 3.1 9.2 3.2 9.7 3.1 C10.3 2.6 10.8 2.3 11.4 2.1 C13.9 1.3 16.8 1.6 19.6 2.5 C22.4 3.4 23.5 32.4 23.6 41.1 C23.6 45 11.9 41.6 11.2 35.5 C9.3 32.9 7 31.8 5.2 30 C5.2 30 5.1 30 5.1 29.9 C3.5 29.1 2.3 27.6 1.8 25.9 C0.8 25.6 0.4 24.4 0.6 23.5 C0.6 22.5 1.2 21.6 1.7 20.8 z" id="s" fill="#EFE9E6" /></g><path d="M11.5 36.1 L11.4 36 C15.3 36.5 19.1 37.8 22.4 39.9 C22.9 40.2 23.4 40.6 23.9 41 C23.9 41.2 23.9 41.4 23.9 41.7 C23.9 45.6 19.8 45.9 15.9 46.2 C12 46.5 7.2 46.2 6.8 41.2 C6.5 37.9 8.5 37.8 11.5 36.1 z" id="t" fill="#CECAC2" /><path d="M8 19 C9.4 15.6 10.9 13 13.8 10.8 C13.8 10.8 11.3 10.6 10.1 11.2 C10.7 9.8 13.2 7.1 15.8 5.3 C15.3 4.9 14.6 4.5 13.9 4.3 C15.9 2.8 18.7 2.6 21.1 3.5 C21.2 3.5 21.3 3.5 21.4 3.5 C23.7 4.4 31.8 5.7 33.9 6.6 C40.4 9.4 43.3 18.7 40.8 23.9 C37.3 31.1 24.6 26.2 24.3 41.7 L24.3 41.8 C23.5 41.1 22.8 40.6 22.5 40.5 C19.2 39.5 15.6 36.4 14.7 32.3 C14.4 31 14.7 29.8 14.2 29.9 C13.7 29.9 13.5 31 13 32.7 C13.1 31.9 12.1 28.8 11.2 28.8 C11.6 28 11.4 27 11 26.2 C10.6 25.4 10 24.7 9.7 23.9 C8.9 22.1 9.4 19.8 10.7 18.4 C9.9 18.5 9 18.8 8 19 z" id="u" fill="#9B5526" /><path d="M20.3 3.3 C20.6 3.4 20.9 3.5 21.1 3.6 L21.4 3.6 C23.7 4.5 31.8 5.8 33.9 6.7 C40.4 9.5 43.3 18.8 40.8 24 C37.3 31.2 24.6 26.3 24.3 41.8 L24.3 41.9 C24.2 41.8 24 41.7 23.9 41.6 L23.9 41.8 C23.9 45.7 19.8 46 15.9 46.3 C12 46.6 7.2 46.3 6.8 41.3 C6.5 38.1 8.4 37.9 11.3 36.3 C11.2 36.1 11.2 35.8 11.2 35.6 C9.3 33 7 31.9 5.2 30.1 C5.2 30.1 5.1 30.1 5.1 30 C3.5 29.2 2.3 27.7 1.8 26 C0.8 25.7 0.4 24.5 0.6 23.6 C0.6 22.6 1.2 21.7 1.7 20.9 L2 20.2 C2.1 19.5 2.1 18.8 2.3 18.1 C2.3 18 2.3 18 2.2 17.9 C1.8 18.8 0.9 19.4 0 19.6 C1.6 16.3 3.2 13.1 4.9 9.8 L3.1 10.1 C3.8 10 5 7.2 6.3 5.9 C5.6 5.3 5.1 4.4 5 3.5 C4.9 2 5.9 0.5 7.3 0 C7 1 7.4 2.2 8.3 2.8 C8.7 3.1 9.2 3.2 9.7 3.1 C10.3 2.6 10.8 2.3 11.4 2.1 C13.9 1.3 16.8 1.6 19.6 2.5 C19.8 2.6 20.1 2.8 20.3 3.3 z M21.1 4.2 C20.8 4.1 20.6 4 20.3 4 C20.1 3.6 19.9 3.4 19.7 3.3 C17.1 2.5 14.5 2.2 12.2 2.9 C11.7 3.1 11.2 3.4 10.6 3.8 C10.1 3.9 9.2 4.1 8.8 3.8 C8.1 3.3 6.3 2.2 6.6 1.3 C5.6 2.4 6.1 2.9 6.2 4.3 C6.3 5.1 7.2 5.6 7.9 6.2 C6.6 7.3 5.7 9 5.1 9.1 L6.7 9.5 C5.1 12.5 3.5 13.9 2.1 16.9 C2.9 16.7 3.5 17.3 3.9 16.5 C4 16.6 3.6 17.4 3.6 17.5 C3.4 18.1 3.8 18.8 3.7 19.5 L3.4 20 C2.9 20.7 2.1 22 2.1 22.9 C1.9 23.7 2.6 24.4 3.5 24.7 C4 26.3 5.1 27.6 6.5 28.4 C6.5 28.5 6.6 28.5 6.6 28.5 C8.2 30.1 9.9 31.7 11.7 34.1 C12.2 35.1 12.6 36 12.6 36.2 C9.9 37.7 8 37.3 8.2 40.3 C8.6 44.9 12.6 44.3 16.1 44 C18.5 43.8 20.7 42.9 22.8 41.3 C23.7 38.8 24.9 32.6 26.4 31.4 C30.2 28.3 36.8 27.7 39 23 C41.3 18.2 38.6 9.8 32.7 7.2 C30.8 6.4 23.4 5.2 21.3 4.4 L21.1 4.4 z" opacity="0.15" id="v" /></g><g transform="translate(86.90001, 76.79997) translate(29, 49)" id="w"><path d="M88.8 24.6 C92.3 31.7 95.8 53 97.8 59.4 C99.8 65.8 98.9 80.9 99 89.1 C99.1 97.3 87.5 146.2 83.3 150.5 C81.7 152.2 75.1 153.6 64.6 153.6 C60.8 153.6 55.4 151.6 52.3 151.6 C48.8 151.6 43.2 153.7 39.8 153.6 C30.1 153.2 24.2 152.1 22.8 150.5 C19.1 146.2 6.9 103 6.5 91.8 C6.1 80.6 3.2 69.8 7.6 59.4 C10.8 52.4 13.5 40.8 16 24.6 C17.2 17.2 38.4 0.2 52.3 0.2 C73.1 0.2 85.3 17.5 88.8 24.6 z" id="x" fill="#EFE9E6" /><g transform="translate(5, 0)" id="y"><path d="M83.8 24.6 C87.3 31.7 90.8 53 92.8 59.4 C94.8 65.8 93.9 80.9 94 89.1 C94.1 97.3 82.5 146.2 78.3 150.5 C76.7 152.2 70.1 153.6 59.6 153.6 C55.8 153.6 50.4 151.6 47.3 151.6 C43.8 151.6 38.2 153.7 34.8 153.6 C25.1 153.2 19.2 152.1 17.8 150.5 C14.1 146.2 1.9 103 1.5 91.8 C1.1 80.6 -1.8 69.8 2.6 59.4 C5.8 52.4 8.5 40.8 11 24.6 C12.2 17.2 33.4 0.2 47.3 0.2 C68.1 0.2 80.3 17.5 83.8 24.6 z M83 24.8 C79.6 17.8 67.6 0.9 47.3 0.9 C33.7 0.9 13 17.5 11.8 24.8 C9.4 40.6 6.7 52 3.6 58.8 C-0.7 69 2.1 79.5 2.5 90.4 C2.9 101.3 14.8 143.6 18.5 147.8 C19.9 149.4 25.6 150.4 35.1 150.8 C38.4 150.9 43.9 148.8 47.3 148.8 C50.3 148.8 55.6 150.8 59.3 150.8 C69.6 150.8 76 149.4 77.6 147.8 C81.7 143.6 93 95.8 92.9 87.8 C92.8 79.8 93.7 65 91.8 58.8 C89.8 52.5 86.4 31.7 83 24.8 z" fill-opacity="0.2" id="z" /></g></g><g transform="translate(123.3975, 175.65) scale(1.15, 1.015023) translate(-129.3, -177.7) translate(89.90001, 84.79997) translate(78.5, 145.5) scale(-1, 1) translate(-78.5, -145.5) translate(39, 92)" id="a1"><path d="M68.1 2.7 C65.6 5.6 57.8 23.3 40.2 24.2 C21.5 24.9 13.3 5.5 10.6 0.9 C7 8.7 1.1 13.8 0.5 26.6 C-0.1 39.4 4.4 46.5 6.7 52.8 C8.4 57.4 10.7 64.5 12.6 73.4 C13.3 76.6 15 81.2 15 84.3 C15.3 96.3 17.5 91.7 13.2 94.2 C8.9 96.7 5.2 101.6 6.7 104.5 C8.2 107.4 29.2 104.1 30.2 102.9 C30.7 102.3 30.9 95.4 30.7 74 C30.6 70.2 29.5 64.3 29.2 57 C29.1 53.6 30 50.6 29.7 46.2 C33.7 48.7 35.2 49.7 38.2 49.6 C41 49.7 42.2 48 46.8 45.5 C46.8 49.8 47.8 53.2 47.9 56.9 C48 63.8 47.3 70.3 47.2 74 C46.9 94.5 47.2 102.3 48 103.5 C49.2 105.2 56.8 106.1 70.8 106 C72.5 103.2 72.5 100.8 70.8 98.8 C69.1 96.8 66.2 94.7 62.2 92.4 C63.3 83.7 63.9 81.2 65.2 75.5 C66.2 71 67.7 62.7 68.7 60.2 C72.3 51.4 78.4 40.6 78.5 28.7 C78.6 16.8 72.4 8 68.1 2.7 z" id="b1" fill="#B76930" /><path d="M68.1 2.7 C72.4 8 78.5 16.8 78.4 28.7 C78.3 40.6 72.2 51.4 68.6 60.2 C67.6 62.8 66 71 65.1 75.5 C63.9 81.2 63.2 83.7 62.1 92.4 C66.1 94.7 69 96.8 70.7 98.8 C72.4 100.8 72.4 103.2 70.7 106 C56.7 106.1 49.1 105.2 47.9 103.5 C47.1 102.3 46.8 94.5 47.1 74 C47.2 70.3 47.9 63.8 47.8 56.9 C47.7 53.1 46.7 49.8 46.7 45.5 C42.1 48 40.9 49.7 38.1 49.6 C35.1 49.7 33.6 48.7 29.6 46.2 C30 50.6 29 53.6 29.2 57 C29.5 64.3 30.6 70.2 30.7 74 C30.9 95.4 30.7 102.3 30.2 102.9 C29.2 104.1 8.2 107.4 6.7 104.5 C5.2 101.6 8.9 96.7 13.2 94.2 C17.5 91.7 15.3 96.3 15 84.3 C14.9 81.1 13.2 76.6 12.6 73.4 C10.7 64.5 8.4 57.5 6.7 52.8 C4.4 46.5 -0.1 39.4 0.5 26.6 C1.1 13.8 7 8.7 10.6 0.9 C13.3 5.5 21.5 24.9 40.2 24.2 C57.8 23.3 65.6 5.6 68.1 2.7 z M68.1 3.9 C66.9 6.2 63.6 12.3 57.5 17.9 C52.5 22.5 44.3 27.3 38.5 27.3 C34.8 27.5 26 22.6 22.4 19.5 C17.8 15.6 11.8 5.2 10.6 1.4 C7.1 8.9 2.7 15.8 2.1 28 C1.5 40.2 5.9 45.5 8.1 51.5 C9.7 55.9 12.8 63.9 14.6 72.4 C15.2 75.4 16.9 80.5 17 83.5 C17.3 94.9 18.7 92.8 14.6 95.2 C10.5 97.6 7.6 99.2 9 101.9 C10.4 104.6 27 101.6 28 100.4 C28.5 99.8 28.8 95.8 28.6 75.4 C28.5 71.7 27.6 64.9 27.3 57.9 C27.2 54.7 26.9 46.1 26.6 41.9 C30.4 44.3 35 48 37.9 47.9 C40.6 48 45.9 43.8 50.3 41.4 C50.3 45.5 50.1 52.2 50.1 55.8 C50.2 62.3 49.2 68.8 49.2 72.3 C48.9 91.8 49.3 99.6 50 100.8 C51.1 102.4 55.2 104 68.5 103.9 C70.1 101.2 70.8 100.5 69.2 98.6 C67.6 96.7 64.2 95 60.4 92.8 C61.5 84.5 62.1 79.7 63.3 74.3 C64.2 70 65.8 62 66.8 59.5 C70.2 51.1 76.5 41.1 76.6 29.8 C76.6 18.6 72.2 8.9 68.1 3.9 z" opacity="0.15" id="c1" /></g></g><g id="d1"><g transform="translate(102.5, 82.59998) translate(25, 0)" id="e1"><path d="M83.3 38.3 C82.7 12.3 65.3 8.5 60.7 6 C55.5 3.1 48.3 0.1 42.1 0.1 C35.9 0.1 28.7 3.2 23.5 6 C18.9 8.6 1.6 12.3 0.9 38.3 C0.3 62.7 17 66.8 17.2 78.3 C17.5 96.2 28 97 42 97 C56 97 66.5 96.1 66.8 78.3 C67.1 66.8 83.9 62.6 83.3 38.3 z" id="f1" fill="#B76930" /><path d="M83.3 38.3 C83.9 62.6 67.1 66.8 66.8 78.3 C66.5 96.1 56 97 42 97 C28 97 17.5 96.2 17.2 78.3 C17 66.8 0.3 62.7 0.9 38.3 C1.6 12.3 18.9 8.6 23.5 6 C28.7 3.2 35.9 0.1 42.1 0.1 C48.3 0.1 55.5 3.1 60.7 6 C65.3 8.5 82.7 12.3 83.3 38.3 z M80.6 37.2 C80.1 12.6 63.8 9 59.5 6.6 C54.6 3.8 47.9 1 42.1 1 C36.3 1 29.6 3.9 24.7 6.6 C20.4 9.1 4.2 12.6 3.6 37.2 C3 60.4 18.6 64.2 18.8 75.1 C19.1 92.1 28.9 92.8 42 92.8 C55.1 92.8 64.9 92 65.2 75.1 C65.5 64.2 81.2 60.3 80.6 37.2 z" opacity="0.15" id="g1" /></g><g transform="translate(136.4, 105.3) rotate(17, 0, 0) scale(1) translate(-136.4, -105.3) translate(84.59999, 86.09998) translate(23, 6)" id="h1"><path d="M31.8 0 C25.5 1.5 19.2 7.2 16.6 10.2 C14 13.2 6 16.4 4.2 19.6 C2.4 22.8 4 24.1 1.9 29.6 C1.2 31.4 0.9 34.8 1 39.7 C1.4 39.3 2.1 38.9 2.9 38.3 C4.7 37.1 3.5 38.4 2.9 42.2 C2.9 44.3 3.4 47 4.3 48.4 C5.2 49.9 5 47.2 7 47.2 C7.5 47.2 7.2 48.2 7 49.2 C6.6 50.9 6.5 53.4 7 52.7 C8.8 50.1 9.7 50.4 9.9 53.7 C14.9 56.6 17.6 59.1 17.9 61.3 C18.2 63.3 18 64.9 17.2 67.4 C17 68.1 17.1 70.9 18.5 70.6 C19.8 70.4 21.7 68.5 23.2 67.4 C26.4 65.1 32.2 62 30.8 53.8 C29.4 45.6 25.8 42.5 26 32.5 C26.2 22.5 24.9 12.4 28.8 6.6 C31 3.4 33.9 2.6 35.3 1.4 C36.7 0.2 33.1 0.2 31.8 0 z" id="i1" fill="#9B5526" /><path d="M31.8 0 C33.1 0.2 36.7 0.2 35.3 1.4 C33.9 2.6 31 3.4 28.8 6.6 C24.9 12.4 26.2 22.5 26 32.5 C25.8 42.5 29.4 45.6 30.8 53.8 C32.2 62 26.4 65.1 23.2 67.4 C21.7 68.5 19.8 70.4 18.5 70.6 C17.1 70.9 17 68.1 17.2 67.4 C18 64.9 18.2 63.3 17.9 61.3 C17.6 59.1 14.9 56.6 9.9 53.7 C9.7 50.4 8.8 50.1 7 52.7 C6.5 53.4 6.6 50.9 7 49.2 C7.2 48.2 7.5 47.2 7 47.2 C5 47.2 5.2 49.9 4.3 48.4 C3.4 47 2.9 44.3 2.9 42.2 C3.5 38.4 4.7 37.1 2.9 38.3 C2.1 38.9 1.4 39.3 1 39.7 C0.9 34.8 1.2 31.4 1.9 29.6 C4 24.1 2.4 22.8 4.2 19.6 C6 16.4 14 13.2 16.6 10.2 C19.2 7.2 25.5 1.5 31.8 0 z M29.5 1.9 C23.9 3.2 19.1 9.5 16.8 12.1 C14.4 14.7 7.3 17.4 5.7 20.1 C4.1 22.9 5.5 24 3.6 28.7 C3 30.2 2.2 31.7 2.3 35.9 C2.7 35.6 4.6 35.9 5.3 35.4 C6.8 34.4 5.3 39.6 5.2 39.7 C5.2 41.5 5 43.5 5.8 44.7 C6.6 46 6.4 43.7 8.2 43.7 C8.6 43.7 8.4 44.6 8.2 45.4 C7.8 46.9 8.6 49.2 9.1 48.6 C10.7 46.4 11.8 46.5 12 49.3 C16.5 51.8 18.2 54 18.5 55.9 C18.7 57.6 20.1 59.4 19.3 61.5 C19.2 62.1 20.2 65.3 21.4 65 C22.6 64.8 23.9 61.9 25.2 60.9 C28.1 59 28.3 55.6 27.1 48.6 C25.8 41.6 24.4 39.7 24.6 31.2 C24.7 22.6 22.9 12.5 26.4 7.5 C28.4 4.8 30.9 3 32.1 1.9 C33.4 0.9 30.7 2.1 29.5 1.9 z" opacity="0.15" id="j1" /></g><g transform="translate(202.7, 105.3) rotate(-17, 0, 0) scale(1) translate(-202.7, -105.3) translate(90.1, 86.59998) translate(97, 5)" id="k1"><path d="M16.5 8.8 C18.6 12.4 18.7 28 18.7 33.7 C18.7 39.4 17.7 40.1 15.7 46.5 C13.7 52.9 14.6 59.7 18.7 64.2 C24.1 68.8 27.7 71.4 29.1 71.2 C30.5 71 28.8 68.9 27.8 65.5 C27.1 63.2 26.6 62.2 28.5 59.6 C28.7 59.3 29.9 61.3 29.9 60.3 C29.9 59.4 32.6 57 34.4 55.1 C35.3 54.1 35.9 52.9 35.9 52.9 C36.4 53 37 54.2 37.6 56.4 C39.3 51.7 40.4 48.6 40.9 47 C41.4 45.6 41.9 47.4 42.4 48.1 C42.9 48.8 42.3 42.3 42.4 41.7 C42.9 37.9 43.6 35.7 42.9 32.7 C42.6 31.3 41.8 29.5 40.8 27.4 C40.7 27.1 40.2 26.4 42.5 27.4 C43.5 27.9 40.2 22.5 39.1 20.8 C37.5 18.4 33.1 16 31.7 14.8 C27.8 11.6 18.5 1.4 13.5 0.1 C10.9 0.2 8.7 -0.1 9.7 1.6 C10.8 3.6 14.9 6 16.5 8.8 z" id="l1" fill="#9B5526" /><path d="M16.5 8.8 C14.9 6 10.8 3.6 9.7 1.6 C8.7 -0.1 10.9 0.2 13.5 0.1 C18.5 1.4 27.8 11.6 31.7 14.8 C33.1 16 37.5 18.4 39.1 20.8 C40.2 22.5 43.5 27.9 42.5 27.4 C40.2 26.4 40.7 27.1 40.8 27.4 C41.8 29.5 42.6 31.3 42.9 32.7 C43.6 35.7 42.9 37.9 42.4 41.7 C42.3 42.3 42.9 48.8 42.4 48.1 C41.9 47.4 41.4 45.6 40.9 47 C40.4 48.6 39.3 51.7 37.6 56.4 C37 54.2 36.4 53 35.9 52.9 C35.9 52.9 35.3 54.1 34.4 55.1 C32.6 57 29.9 59.4 29.9 60.3 C29.9 61.3 28.7 59.3 28.5 59.6 C26.6 62.2 27.1 63.2 27.8 65.5 C28.8 68.9 30.5 71 29.1 71.2 C27.7 71.4 24.1 68.8 18.7 64.2 C14.6 59.7 13.7 52.9 15.7 46.5 C17.7 40.1 18.7 39.4 18.7 33.7 C18.7 28 18.6 12.4 16.5 8.8 z M18 10.2 C19.1 13.5 19.7 27 19.7 31.9 C19.7 36.9 19.7 38.1 18 43.7 C16.2 49.3 14.6 55.8 18.2 59.8 C22.9 63.8 24.4 66.1 25.6 66 C26.2 65.1 26.3 64.2 25.4 61.2 C24.8 59.2 26.5 58 28.2 55.7 C28.3 55.4 29.8 57 29.8 56.1 C29.8 55.4 31.8 52.3 33.4 50.7 C34.2 49.8 34.7 48.7 34.7 48.7 C35.1 48.8 37.4 49.4 37.9 51.4 C39.4 47.3 38.6 45 39.1 43.6 C39.5 42.4 40.7 43.6 41.2 44.2 C41.6 44.9 41.5 38.3 41.6 37.8 C42 34.5 41.4 33.7 40.8 31.1 C40.6 29.8 39.9 28.3 39 26.4 C38.9 26.2 38.8 24.5 40.9 25.4 C41.7 25.8 38.5 22.1 37.5 20.7 C36.1 18.6 32.3 16.5 31 15.4 C27.6 12.6 19.5 3.1 15.1 2 C13.1 0.9 11.3 1 12.2 2.5 C13.2 4.3 16.9 6.9 18 10.2 z" opacity="0.15" id="m1" /></g><g transform="translate(169.8, 141.2) scale(0.8, 1) translate(-169.8, -141.2)" id="n1"><g transform="translate(103.4, 72.29997) translate(21, 46)" id="o1"><g transform="translate(0, 18)" id="p1"><path d="M10.2 45.1 C-3.3 37.9 0.5 36.4 0.5 32.5 C0.5 28.6 4.2 16.6 12.2 12 C20.1 7.3 38.5 0.7 39.6 0.3 C40.7 -0.1 57.5 -0.5 60 2 C62.6 4.4 71.8 6.8 77.1 11.7 C82.4 16.7 87 25.3 87.4 26.6 C87.8 27.9 88.3 32.6 85.5 37.2 C82.7 41.9 84.1 41.9 76.2 45.2 C66 49.6 23.7 52.3 10.2 45.1 z" id="q1" fill="#806456" /><path d="M10.2 45.1 C-3.3 37.9 0.5 36.4 0.5 32.5 C0.5 28.6 4.2 16.6 12.2 12 C20.1 7.3 38.5 0.7 39.6 0.3 C40.7 -0.1 57.5 -0.5 60 2 C62.6 4.4 71.8 6.8 77.1 11.7 C82.4 16.7 87 25.3 87.4 26.6 C87.8 27.9 88.3 32.6 85.5 37.2 C82.7 41.9 84.1 41.9 76.2 45.2 C66 49.6 23.7 52.3 10.2 45.1 z M12.9 42.5 C25.3 49.1 64.2 46.6 73.6 42.6 C80.9 39.6 79.6 39.6 82.1 35.2 C84.7 31 84.2 26.7 83.8 25.5 C83.4 24.3 79.2 16.4 74.3 11.8 C69.5 7.3 61.1 5 58.7 2.8 C56.4 0.5 41 0.9 39.9 1.3 C38.9 1.6 22 7.7 14.8 12 C7.4 16.3 4 27.3 4 30.9 C4 34.5 0.5 35.8 12.9 42.5 z" opacity="0.15" id="r1" /><path d="M31 18.5 C32.1 18.5 32.6 19.5 32.6 21.4 L27.8 21.4 L27.8 19.9 C28.9 18.9 30 18.5 31 18.5 z" id="s1" fill="#52403A" /><path d="M15 25.1 C16.1 25.1 16.6 26.1 16.6 28 L11.8 28 L11.8 26.5 C12.9 25.6 14 25.1 15 25.1 z" id="t1" fill="#52403A" /><path d="M30.8 28.1 C31.9 28.1 32.4 29.1 32.4 31 L27.6 31 L27.6 29.5 C28.7 28.6 29.8 28.1 30.8 28.1 z" id="u1" fill="#52403A" /><path d="M59.6 19.2 C60.7 19.2 61.2 20.2 61.2 22.1 L56.4 22.1 L56.4 20.6 C57.5 19.7 58.6 19.2 59.6 19.2 z" id="v1" fill="#52403A" /><path d="M59.6 29.1 C60.7 29.1 61.2 30.1 61.2 32 L56.4 32 L56.4 30.5 C57.5 29.6 58.6 29.1 59.6 29.1 z" id="w1" fill="#52403A" /><path d="M71.5 25.1 C72.6 25.1 73.1 26.1 73.1 28 L68.3 28 L68.3 26.5 C69.4 25.6 70.5 25.1 71.5 25.1 z" id="x1" fill="#52403A" /></g></g><g transform="translate(90.60001, 88.29996) translate(65, 74)" id="y1"><path d="M4.2 17 C7.4 16.4 9.1 15 10.5 13.9 C11.4 13.2 12.4 12.3 13.4 11.1 C14.7 12.7 15.6 13.7 16.2 14.1 C17 14.8 19.4 16.3 20.9 16.9 C22.4 17.5 26.3 17.8 26.3 17.2 C26.3 16.6 21.8 15.9 20.2 14.7 C18.6 13.5 17 12.5 15.9 11 C14.9 9.6 15.3 8.6 15.2 7 C15.1 5 15.4 2.8 15.5 1.3 C15.6 -0.7 12.3 -0.1 12.3 1.3 C12.3 2.7 12.3 4.8 12.3 6.6 C12.3 8.4 11.6 10.6 10.2 11.8 C8.8 13 6.9 14.5 4.8 15.3 C3.5 15.8 0.8 16.4 0.9 17 C0.8 17.4 2.9 17.3 4.2 17 z" id="z1" fill="#282421" /></g><g transform="translate(110.4, 67.19997) translate(51, 63)" id="a2"><g id="b2"><path d="M8.5 0.8 C3 0.8 0.1 2.6 0.1 6.3 C0.1 9.3 1 9.5 2.6 11.1 C4.1 12.7 4.4 14.2 8.6 14.2 C12.8 14.2 13.1 12.7 14.6 11.1 C16.1 9.5 17.1 9.3 17.1 6.3 C16.9 2.6 14 0.8 8.5 0.8 z" id="c2" fill="#302622" /><path d="M12.1 4.4 C11.4 4.3 9.4 4.4 8.5 4.9 C7.6 4.4 5.7 4.2 4.9 4.4 C3.6 4.6 2.8 6.9 3 6.9 C3.2 7 4.9 5.8 5.7 6.1 C6.9 6.5 8 7.7 8.4 8.6 C8.8 7.8 9.9 6.5 11.1 6.1 C12 5.8 13.6 7 13.8 6.9 C14.2 6.9 13.3 4.6 12.1 4.4 z" id="d2" fill="#F7F7F7" /></g></g><g transform="translate(95.79999, 60.39997) translate(45, 45)" id="e2"><path d="M-0.7 21.6 C0.6 15.5 4.2 10.3 6.1 8.6 C7.4 7.5 10.9 6.6 13.8 5.6 C14.5 5.3 10.6 5.7 10.1 4.6 C9.3 2.8 11.3 1.8 12.3 1 C13.1 0.4 14.3 -0.2 16.4 -0.2 C18.5 -0.2 19.6 0.1 20.3 2 C21 3.9 18.5 7.9 18.5 10.2 C18.5 12.5 18.5 19 18.5 20.4 C18.5 21.8 15.7 31.3 13.8 33.1 C11.9 34.9 12.1 21.6 7 21.6 C1.9 21.6 -2 27.7 -0.7 21.6 z" id="f2" fill="#ABAFB2" /><g transform="translate(6, 10)" id="g2"><ellipse cx="5.3" cy="4.9" rx="5.6" ry="5.5" id="h2" /><path d="M7.6 4.4 C7.8 3.4 7.1 2.4 6.1 2.3 C5.1 2.2 4.2 2.7 4 3.7 C3.8 4.7 4.5 5.7 5.5 5.8 C5.6 5.8 5.6 5.8 5.7 5.8 C5.7 5.6 5.7 5.5 5.7 5.3 C5.8 4.6 6.5 4.1 7.2 4.3 C7.3 4.3 7.5 4.4 7.6 4.4 C7.6 4.5 7.6 4.4 7.6 4.4 z" id="i2" fill="#FFFFFE" /><circle cx="5" cy="5.7" r="1" id="j2" fill="#FFFFFE" /></g></g><g transform="translate(102.9, 60.79997) translate(78, 46)" id="k2"><path d="M21.1 20.6 C19.8 14.5 16.2 9.3 14.3 7.6 C13 6.5 9.5 5.6 6.6 4.6 C6 4.3 9 4.5 9.5 3.4 C10.5 1.7 8.5 0.1 6.8 -0.5 C5.1 -1.1 0.9 -2.1 0 1.3 C-0.9 4.7 2 6.9 2 9.2 C2 11.5 2 18 2 19.4 C2 20.8 4.8 30.3 6.7 32.1 C8.6 33.9 8.3 20.8 13.5 20.8 C18.7 20.8 22.4 26.7 21.1 20.6 z" id="l2" fill="#ABAFB2" /><g transform="translate(4, 9)" id="m2"><ellipse cx="5.2" cy="4.9" rx="5.6" ry="5.5" id="n2" /><path d="M7.5 4.4 C7.7 3.4 7 2.4 6 2.3 C5 2.1 4.1 2.8 3.9 3.8 C3.7 4.8 4.4 5.8 5.4 5.9 C5.5 5.9 5.5 5.9 5.6 5.9 C5.6 5.7 5.6 5.6 5.6 5.4 C5.7 4.7 6.4 4.2 7.1 4.4 C7.2 4.4 7.4 4.5 7.5 4.4 C7.5 4.5 7.5 4.4 7.5 4.4 z" id="o2" fill="#FFFFFE" /><circle cx="4.9" cy="5.7" r="1" id="p2" fill="#FFF" /></g></g></g></g></g></g><defs><g transform="translate(17.09519, 0.800995) translate(-135.2952, -293.601)" id="q2" fill="#000"><path d="M118.2 302.7 C118.4 307.4 132.5 311.2 149.8 311.2 C167.1 311.2 181.2 307.4 181.4 302.7 C181.4 307.5 181.4 310.1 181.4 310.5 C181.4 315.3 167.3 319.1 149.8 319.1 C132.3 319.1 118.2 315.2 118.2 310.5 L118.2 302.7 L118.2 302.7 z" fill-opacity="0.4528" id="r2" fill="#593001" /><path d="M118.7 301.7 C118.9 306.4 133 310.2 150.3 310.2 C167.6 310.2 181.7 306.4 181.9 301.7 C181.9 306.5 181.9 309.1 181.9 309.5 C181.9 314.3 167.8 318.1 150.3 318.1 C132.8 318.1 118.7 314.2 118.7 309.5 L118.7 301.7 L118.7 301.7 z" id="s2" fill="#DA8113" /><linearGradient x1="46.0545" y1="-118.6926" x2="45.4656" y2="-118.6926" gradientUnits="userSpaceOnUse" gradientTransform="matrix(117.135, 0, 0, 28.4634, -5208.417, 3687.795)" id="t2"><stop offset="0%" stop-color="#D9952A" stop-opacity="1" /><stop offset="6.438854%" stop-color="#CA7519" stop-opacity="1" /><stop offset="30.54%" stop-color="#E3AD3A" stop-opacity="1" /><stop offset="51.05%" stop-color="#FFEC91" stop-opacity="1" /><stop offset="68.8%" stop-color="#E9BD44" stop-opacity="1" /><stop offset="86.24%" stop-color="#FFED6C" stop-opacity="1" /><stop offset="93.87%" stop-color="#F2D353" stop-opacity="1" /><stop offset="100%" stop-color="#F2B947" stop-opacity="1" /></linearGradient><path d="M118.2 301.6 C118.4 306.1 132.7 309.7 150.3 309.7 C167.9 309.7 182.2 306.1 182.4 301.6 C182.4 306.2 182.4 308.7 182.4 309 C182.4 313.5 168 317.2 150.3 317.2 C132.6 317.2 118.2 313.5 118.2 309 L118.2 301.6 L118.2 301.6 z" id="u2" style="fill:url(#t2)" /><linearGradient x1="45.4914" y1="-117.9547" x2="45.9407" y2="-117.5895" gradientUnits="userSpaceOnUse" gradientTransform="matrix(115.425, 0, 0, 29.925, -5125.077, 3826.124)" id="v2"><stop offset="0%" stop-color="#F4E072" stop-opacity="1" /><stop offset="100%" stop-color="#DB9427" stop-opacity="1" /></linearGradient><ellipse cx="150.3" cy="301.5" rx="31.6" ry="8.2" id="w2" style="fill:url(#v2)" /><linearGradient x1="45.4656" y1="-126.0065" x2="46.0545" y2="-126.0065" gradientUnits="userSpaceOnUse" gradientTransform="matrix(117.135, 0, 0, 18.6219, -5208.417, 2651.479)" id="x2"><stop offset="0%" stop-color="#D9952A" stop-opacity="1" /><stop offset="6.438854%" stop-color="#CA7519" stop-opacity="1" /><stop offset="30.54%" stop-color="#E3AD3A" stop-opacity="1" /><stop offset="51.05%" stop-color="#FFEC91" stop-opacity="1" /><stop offset="68.8%" stop-color="#E9BD44" stop-opacity="1" /><stop offset="86.24%" stop-color="#FFED6C" stop-opacity="1" /><stop offset="93.87%" stop-color="#F2D353" stop-opacity="1" /><stop offset="100%" stop-color="#F2B947" stop-opacity="1" /></linearGradient><path d="M119.2 299.9 C119 300.2 118.9 300.6 118.9 301 C118.9 305.5 132.9 309.2 150.3 309.2 C167.7 309.2 181.7 305.5 181.7 301 C181.7 300.6 181.6 300.3 181.4 299.9 C182 300.5 182.4 301.2 182.4 301.9 C182.4 306.4 168 310.1 150.3 310.1 C132.6 310.1 118.2 306.4 118.2 301.9 C118.2 301.3 118.6 300.6 119.2 299.9 z" id="y2" style="fill:url(#x2)" /><linearGradient x1="45.196" y1="-121.5895" x2="45.3746" y2="-120.6758" gradientUnits="userSpaceOnUse" gradientTransform="matrix(101.745, 0, 0, 23.94, -4458.332, 3199.41)" id="z2"><stop offset="0%" stop-color="#F8DD61" stop-opacity="1" /><stop offset="100%" stop-color="#EAA330" stop-opacity="1" /></linearGradient><ellipse cx="150.3" cy="300.8" rx="27.8" ry="6.6" id="a3" style="fill:url(#z2)" /><linearGradient x1="45.5694" y1="-134.267" x2="45.0221" y2="-134.267" gradientUnits="userSpaceOnUse" gradientTransform="matrix(101.745, 0, 0, 13.2525, -4458.332, 2077.223)" id="b3"><stop offset="0%" stop-color="#F4CA2F" stop-opacity="1" /><stop offset="51.38%" stop-color="#BF7737" stop-opacity="1" /><stop offset="100%" stop-color="#E4A929" stop-opacity="1" /></linearGradient><path d="M122.6 301.5 C122.5 301.3 122.4 301 122.4 300.8 C122.4 297.2 134.9 294.2 150.2 294.2 C165.5 294.2 178 297.1 178 300.8 C178 301 177.9 301.3 177.8 301.5 C176.3 298.2 164.5 295.6 150.1 295.6 C135.7 295.6 124.1 298.2 122.6 301.5 z" id="c3" style="fill:url(#b3)" /></g></defs><desc>B5K5D825K7G,vuZAAZn3Ob0KYqHotYPl7IPMmXXi5fa4605bhcjFVyNaQKvcB2Mng6Q3J7qJvlcquYCrjje3NMnXAZIr/k5j9osn6oG/67emlaQojGCOlNo=</desc></svg>