<?xml version="1.0" encoding="utf-8"?><!DOCTYPE svg PUBLIC "-//W3C//DTD SVG 1.1//EN" "http://www.w3.org/Graphics/SVG/1.1/DTD/svg11.dtd"><svg x="0" y="0" width="340px" height="340px" viewBox="0, 0, 340, 340" preserveAspectRatio="xMidYMid" font-size="0" id="a" enable-background="new 0 0 340 340" xmlns="http://www.w3.org/2000/svg" xmlns:xlink="http://www.w3.org/1999/xlink" xmlns:xml="http://www.w3.org/XML/1998/namespace" version="1.1"><g id="b" fill="#000"><g id="c"><g transform="translate(0, 0) translate(0, 224)" id="d"><ellipse cx="168.6" cy="53.1" rx="57.8" ry="12.8" fill-opacity="0.25" id="e" /></g><g id="f"><g transform="translate(110.9, 107.2) translate(22, 133)" id="g" /><g transform="translate(128.1867, 274) scale(0.6805053) translate(-125.8, -274) translate(100.3, 88.79997) translate(17, 134)" id="h"><path d="M3.2 22.3 C1.8 20.2 0.9 17.9 0.7 15.3 C0.2 8.8 5.5 2.5 11.9 1.2 C18.3 -0.1 25.2 2.9 29.1 8.2 C32.2 12.3 32.5 17.4 32.6 22.6 C32.6 24 5.5 25.8 3.2 22.3 z" id="i" fill="#CE734A" /><path d="M12.6 31.2 C9 28.7 5.3 25.7 3 22 C4.3 21.1 5.9 20.5 7.6 20.1 C15.5 18 28 20.5 32.5 22.2 C32.5 23.8 32.6 25.4 32.6 26.9 C32.7 29.8 36 37.8 36 37.8 C34.6 41.9 31.1 44.9 27.7 47.7 C27.3 48 26.9 48.3 26.5 48.7 C23.3 51.4 24.3 54.8 19.2 54.5 C15 54.3 9.2 55.3 5.3 53.7 C2 49.3 5.1 40.6 11.7 40.2 C16.6 39.9 19.1 39.2 18 36.8 C16.9 34.4 14.8 32.7 12.6 31.2 z" id="j" fill="#E0DBD8" /><path d="M3 22 C1.7 20 0.9 17.8 0.7 15.3 C0.2 8.8 5.5 2.5 11.9 1.2 C18.3 -0.1 25.2 2.9 29.1 8.2 C32.2 12.3 32.5 17.4 32.6 22.6 C32.6 22.6 32.6 22.7 32.5 22.7 C32.5 24.1 32.6 25.5 32.6 26.9 C32.7 29.8 36 37.8 36 37.8 C34.6 41.9 31.1 44.9 27.7 47.7 C27.3 48 26.9 48.3 26.5 48.7 C23.3 51.4 24.3 54.8 19.2 54.5 C15 54.3 9.2 55.3 5.3 53.7 C2 49.3 5.1 40.6 11.7 40.2 C16.6 39.9 19.1 39.2 18 36.8 C16.9 34.4 14.8 32.7 12.6 31.2 C9 28.7 5.3 25.7 3 22 L3 22 z M1.7 15 C1.9 17.3 2.7 19.4 3.9 21.3 C6.1 24.8 9.6 27.6 12.9 30 C15 31.4 18.1 34 19.1 36.2 C20.1 38.4 18.8 41 14.2 41.3 C8 41.7 3.9 46.6 7 50.8 C10.7 52.3 15.2 51.8 19.1 52 C24 52.2 23 49 26 46.5 C26.4 46.1 26.8 45.8 27.1 45.6 C30.3 43 32 41 33.3 37.1 C33.3 37.1 31.8 28.7 31.7 26 C31.7 24.7 31.6 23.4 31.6 22.1 C31.7 22.1 31.7 22 31.7 22 C31.6 17.1 31.3 12.3 28.4 8.4 C24.7 3.4 18.2 0.6 12.2 1.8 C6.2 3 1.2 8.9 1.7 15 z" opacity="0.15" id="k" /></g><g transform="translate(209.2133, 274) scale(0.6805053) translate(-211.6, -274) translate(105.6, 88.79997) translate(83, 134)" id="l"><path d="M25.6 26.1 C30.2 22 32.1 22.1 32.6 15.3 C33.1 8.8 27.8 2.5 21.4 1.2 C15 -0.2 8.1 2.9 4.2 8.2 C0.3 13.5 0.2 20.6 1.3 26.8 C1.7 29.6 23.6 27.9 25.6 26.1 z" id="m" fill="#CE734A" /><path d="M20.6 31.2 C24.2 28.7 27.9 25.7 30.2 22 C28.9 21.1 27.3 20.5 25.6 20.1 C17.7 18 5.2 20.5 0.7 22.2 C0.7 23.8 2.1 45 5.4 47.7 C5.8 48 6.2 48.3 6.6 48.7 C9.8 51.4 8.8 54.8 13.9 54.5 C18.1 54.3 23.9 55.3 27.8 53.7 C31.1 49.3 28 40.6 21.4 40.2 C16.5 39.9 14 39.2 15.1 36.8 C16.2 34.4 18.5 32.7 20.6 31.2 z" id="n" fill="#E0DBD8" /><path d="M0.7 22.2 C0.4 17.3 1.2 12.2 4.2 8.2 C8.1 2.9 15 -0.2 21.4 1.2 C27.8 2.5 33.1 8.8 32.6 15.3 C32.3 19.4 31.5 21 29.9 22.5 C27.6 26 24.1 28.8 20.6 31.2 C18.5 32.7 16.2 34.4 15.1 36.8 C14 39.2 16.5 39.9 21.4 40.2 C28 40.6 31.1 49.3 27.8 53.7 C23.9 55.3 18.1 54.3 13.9 54.5 C8.8 54.8 9.8 51.4 6.6 48.7 C6.2 48.3 5.8 48 5.4 47.7 C2.1 45 0.7 23.8 0.7 22.2 C0.7 22.2 0.7 22.2 0.7 22.2 z M4.8 8.2 C2 12 1.3 16.8 1.5 21.5 C1.5 23 3.4 42.5 6.5 45.1 C6.9 45.4 7.5 46.6 7.9 47 C10.9 49.6 9.2 52.5 14 52.2 C18 52 23.5 53 27.2 51.4 C30.3 47.2 26.2 42 19.9 41.6 C15.3 41.3 12.6 39.3 13.6 37 C14.6 34.7 18.3 31.5 20.3 30.1 C23.5 27.8 26.9 25.2 29.1 21.9 C30.6 20.5 31.4 18.9 31.7 15 C32.2 8.8 27.1 2.9 21.1 1.6 C15.1 0.2 8.5 3.2 4.8 8.2 z" opacity="0.15" id="o" /></g><g transform="translate(105.2, 117.8) translate(21, 73)" id="p"><path d="M10.5 29 C2.2 36.2 3.6 47.2 4 51.8 C4.7 60 6.7 69.2 8.3 74.5 C9.9 79.9 11.9 86.2 19.8 86.7 C27.8 87.2 59 87.2 66.6 86.1 C74.2 84.9 75 84 77.5 78 C81 69.8 88.1 42.5 80.2 33.2 C78.3 31 77 29.6 75.1 28.2 C70.8 25.2 65.8 23.2 62.9 20.8 C60.2 18.6 55.6 14.7 54.8 14 C53 12.4 49.5 11.4 43.9 11.5 C40.1 11.6 36.6 13.5 35.1 14.5 C33.6 15.5 32.2 17.8 26.6 20.7 C21.7 23.6 14.9 25.5 10.5 29 z" id="q" fill="#DD7E4E" /><path d="M68.1 85.4 C56.4 86.5 47.8 87 42.1 87 C35.6 87 22 86.9 15.8 85.4 C13.5 84.8 12.8 82.9 12.9 82.3 C13.1 80.9 14.4 79.5 16.9 78.3 L26.7 74.4 L26.7 74.6 C32.5 72.5 37.4 71.5 41.3 71.5 C47.1 71.5 54.2 70.8 55.5 71.4 L66.8 74.6 C70.6 76 71.7 77.7 72.3 78.3 C73.4 79.3 74 79.4 74 81.4 C74 83.4 73 83.7 71.8 84.5 C71 84.8 69.8 85.2 68.1 85.4 z" id="r" fill="#ED8B52" /><path d="M10.5 29 C14.9 25.5 21.7 23.6 26.6 20.7 C32.2 17.8 33.6 15.5 35.1 14.5 C36.6 13.5 40.1 11.6 43.9 11.5 C49.5 11.4 53 12.4 54.8 14 C55.6 14.7 60.2 18.6 62.9 20.8 C65.8 23.2 70.8 25.2 75.1 28.2 C77 29.6 78.3 31 80.2 33.2 C88.1 42.5 81 69.8 77.5 78 C75 84 74.2 84.9 66.6 86.1 C59 87.2 27.8 87.2 19.8 86.7 C11.9 86.2 9.9 79.9 8.3 74.5 C6.7 69.2 4.7 60 4 51.8 C3.6 47.2 2.2 36.2 10.5 29 z M12 28.9 C4.1 35.8 5.4 46.2 5.8 50.6 C6.5 58.4 8.4 67.2 9.9 72.2 C11.4 77.3 13.3 83.4 20.9 83.8 C28.5 84.3 58.3 84.3 65.5 83.2 C72.7 82.1 73.5 81.2 75.9 75.5 C79.2 67.7 86 41.7 78.5 32.8 C76.7 30.7 75.4 29.4 73.6 28 C69.5 25.1 64.7 23.2 62 20.9 C59.4 18.8 55 15.1 54.3 14.4 C52.6 12.9 49.2 11.9 43.9 12 C40.3 12.1 36.9 13.9 35.5 14.9 C34.1 15.9 32.7 18 27.4 20.8 C22.7 23.8 16.2 25.6 12 28.9 z" opacity="0.15" id="s" /><path d="M41 46.4 C51.1 48.7 74.9 44.4 76 27.8 C69.6 20.2 62.8 20.2 60.1 15 C57.5 9.8 57 7.3 55.6 2.9 C54.8 0.1 35.4 -1.1 31.8 1.3 C29.7 1.5 28.2 7.5 24.6 15 C22.1 20.9 20 18.3 11 28.6 C12 43.4 31.4 46 41 46.4 z" id="t" fill="#ED8B52" /></g><g transform="translate(105.2, 117.8) translate(36, 120)" id="u"><path d="M2.2 7 L5.9 20.3 L5.9 26.3 C6.1 31.5 6.1 35 5.9 36.7 C5.7 38.4 3.1 38.6 2.2 39.5 C1.6 40.2 0.5 43.2 0.5 44.9 C0.5 47.5 9.2 46.7 10.6 46.8 C15.1 47.2 17.6 45.1 17.7 44.4 C17.8 43.7 16.2 39.5 18.4 28.3 C18.9 25.8 21.4 18.4 22.1 15.8 C24.1 9 21.5 3.2 16.4 2.3 C13.3 0.5 9.9 0.9 5.7 0.9 C1.7 0.8 9.2 6.8 2.2 7 z" id="v" fill="#F5A376" /><path d="M4.1 0.7 C-1.9 0.9 1.8 10.5 4.1 17.4 C7.5 28 5.6 38.2 6.8 40.3 C8 42.4 13.8 37 13.8 33.8 C13.8 30.5 12.4 25.1 12.7 19.1 C13 13.9 16 10.3 13.8 5.3 C12.2 1.8 6.6 0.6 4.1 0.7 z" id="w" fill="#FEFEFE" /><path d="M16.4 2.3 C21.5 3.2 24.1 9 22.1 15.8 C21.4 18.4 18.9 25.8 18.4 28.3 C16.2 39.5 17.8 43.7 17.7 44.4 C17.6 45.1 15.1 47.2 10.6 46.8 C9.2 46.7 0.5 47.5 0.5 44.9 C0.5 43.2 1.6 40.2 2.2 39.5 C3.1 38.6 5.7 38.4 5.9 36.7 C6.1 35 6.1 31.5 5.9 26.3 L5.9 26.1 C5.6 23.3 5.1 20.4 4.1 17.4 C1.8 10.5 -1.9 0.9 4.1 0.7 C4.7 0.7 5.6 0.7 6.5 0.9 C10.3 0.9 13.5 0.6 16.4 2.3 z M16.1 3.8 C13.4 2.2 10.5 2.5 6.9 2.5 C6 2.4 5.2 2.3 4.6 2.4 C-0.9 2.5 2.8 10.9 5 17.3 C5.9 20.1 6.5 21.6 6.7 26.4 C6.9 31.2 6.5 36 6.3 37.6 C6.1 39.2 3.9 39.2 3.1 40.1 C2.5 40.7 1.7 41.4 1.7 43 C1.7 45.4 9.4 45.1 10.7 45.2 C14.9 45.6 16 43.3 16.1 42.6 C16.2 42 14.7 38.7 16.8 28.3 C17.3 26 20.8 18.8 21.4 16.4 C23.2 10.1 20.8 4.7 16.1 3.8 z" opacity="0.15" id="x" /><path d="M53.8 7 L50.1 20.3 L50.1 26.3 C49.9 31.5 49.9 35 50.1 36.7 C50.3 38.4 52.9 38.6 53.8 39.5 C54.4 40.2 55.5 43.2 55.5 44.9 C55.5 47.5 46.8 46.7 45.4 46.8 C40.9 47.2 38.4 45.1 38.3 44.4 C38.2 43.7 39.8 39.5 37.6 28.3 C37.1 25.8 34.6 18.4 33.9 15.8 C32.4 9.7 35.5 4.6 39.6 2.3 C42.7 0.5 46.1 0.9 50.3 0.9 C54.3 0.8 46.8 6.8 53.8 7 z" id="y" fill="#F5A376" /><path d="M51.9 0.7 C57.9 0.9 54.2 10.5 51.9 17.4 C48.5 28 50.4 35.7 50.4 38 C50.4 40.3 42.2 36.1 42.2 32.9 C42.2 29.6 43.6 25.1 43.3 19.1 C43 13.9 40 10.3 42.2 5.3 C43.8 1.8 49.4 0.6 51.9 0.7 z" id="z" fill="#FEFEFE" /><path d="M50.1 25.9 L50.1 26.3 C50 28.9 49.9 31.1 50 32.8 C50.1 34.8 50.3 36.4 50.4 37.4 C51.1 38.5 53.1 38.7 53.8 39.5 C54.4 40.2 55.5 43.2 55.5 44.9 C55.5 47.5 46.8 46.7 45.4 46.8 C40.9 47.2 38.4 45.1 38.3 44.4 C38.2 43.7 39.8 39.5 37.6 28.3 C37.1 25.8 34.6 18.4 33.9 15.8 C32.4 9.7 35.5 4.6 39.6 2.3 C42.5 0.6 45.7 0.9 49.5 0.9 C50.4 0.7 51.3 0.7 51.9 0.7 C57.9 0.9 54.2 10.5 51.9 17.4 C50.9 20.5 50.4 23.3 50.1 25.9 z M48.9 32 C48.9 30.9 49 28.9 49.2 25.8 C49.5 23.4 50.6 19.3 51.6 16.4 C53.7 10 57.1 2.4 51.5 2.2 C50.9 2.2 50.1 2.2 49.3 2.4 C45.7 2.4 42.8 2.1 40.1 3.7 C36.3 5.8 33.4 10.6 34.8 16.3 C35.5 18.7 38.9 26.1 39.4 28.4 C41.4 38.8 39.3 42.5 39.4 43.1 C39.5 43.7 41.3 45.5 45.5 45.1 C46.8 45 54.9 45.8 54.9 43.3 C54.9 41.7 53.8 40.5 53.3 39.8 C52.6 39.1 50.3 38.7 49.6 37.7 C49.3 36.9 49 33.9 48.9 32 z" opacity="0.15" id="a1" /></g></g><g id="b1"><g transform="translate(126.8, 140.7) scale(0.7) translate(-126.8, -140.7) translate(93, 97.19997) translate(23, 28.5) scale(-1, 1) translate(-23, -28.5)" id="c1"><path d="M1.3 33.1 C2.5 30.5 4.5 29.5 7.2 30 C11.2 21.6 15.5 15.1 20.1 10.6 C27 3.8 34.3 0.3 37.6 1.1 C40.9 1.9 46.4 7.5 45.9 13.8 C45.4 20.1 40 42.4 37.6 46.6 C35.2 50.8 35.1 54.9 27.6 55.8 C20.1 56.7 20.4 58.1 15.9 55.2 C11.4 52.3 11.7 47.3 9.5 44.3 C3.4 35.9 -0.2 36.7 1.3 33.1 z" id="d1" fill="#232733" /><path d="M1.3 33.1 C2.5 30.5 4.5 29.5 7.2 30 C11.2 21.6 15.5 15.1 20.1 10.6 C27 3.8 34.3 0.3 37.6 1.1 C40.9 1.9 46.4 7.5 45.9 13.8 C45.4 20.1 40 42.4 37.6 46.6 C35.2 50.8 35.1 54.9 27.6 55.8 C20.1 56.7 20.4 58.1 15.9 55.2 C11.4 52.3 11.7 47.3 9.5 44.3 C3.4 35.9 -0.2 36.7 1.3 33.1 z M3.2 33 C1.8 36.4 4.5 34.5 10.3 42.5 C12.3 45.3 12 50 16.3 52.8 C20.6 55.5 21.7 55.7 27.1 53.6 C32.5 51.4 34 48.7 36.2 44.8 C38.5 40.9 44.2 19.6 44.7 13.6 C45.2 7.7 40 2.4 36.8 1.6 C33.7 0.8 27.5 4.8 20.9 11.2 C16.6 15.5 12 23.5 8.2 31.4 C5.7 30.9 4.4 30.5 3.2 33 z" opacity="0.15" id="e1" /><path d="M18.6 41.7 C16.6 37.7 13.6 34.5 19.9 23.1 C23.6 17.7 25.4 12.4 30.3 9.4 C35.2 6.4 40.4 6.1 41.5 9.4 C42.6 12.7 42 26.3 38 37.1 C37.1 39.4 34 45.7 32.8 46.9 C30.9 48.9 25.5 51.8 23 50 C20.9 48.4 20.6 45.7 18.6 41.7 z" id="f1" fill="#FFB8B3" /></g><g transform="translate(212.8, 139.7) scale(0.7) translate(-212.8, -139.7) translate(119.2, 97.19997) translate(105, 29) scale(-1, 1) translate(-105, -29) translate(81, 0)" id="g1"><g transform="translate(24, 29) scale(-1, 1) translate(-24, -29)" id="h1"><path d="M1.3 32.6 C2.6 30 4.6 29 7.4 29.5 C11.5 20.9 15.9 14.4 20.6 9.8 C27.7 2.9 35.1 -0.6 38.5 0.1 C41.9 0.8 47.4 6.7 47 13.1 C46.5 19.5 41 42.2 38.5 46.5 C36 50.9 35.9 55 28.3 55.9 C20.6 56.8 21 58.2 16.3 55.3 C11.7 52.4 12 47.3 9.7 44.2 C3.4 35.5 -0.2 36.3 1.3 32.6 z" id="i1" fill="#1D202A" /><path d="M1.3 32.6 C2.6 30 4.6 29 7.4 29.5 C11.5 20.9 15.9 14.4 20.6 9.8 C27.7 2.9 35.1 -0.6 38.5 0.1 C41.9 0.8 47.4 6.7 47 13.1 C46.5 19.5 41 42.2 38.5 46.5 C36 50.9 35.9 55 28.3 55.9 C20.6 56.8 21 58.2 16.3 55.3 C11.7 52.4 12 47.3 9.7 44.2 C3.4 35.5 -0.2 36.3 1.3 32.6 z M2.9 32 C1.5 35.5 4.5 34.1 10.4 42.4 C12.6 45.3 13.4 50.3 17.7 53 C22.2 55.8 20.8 54.3 28.1 53.5 C35.3 52.6 35.4 48.7 37.7 44.6 C40.1 40.5 45.3 19 45.8 12.9 C46.2 6.8 41 1.3 37.7 0.6 C34.5 -0.1 28 3.9 21.3 10.5 C16.8 14.8 12.1 22.1 8.3 30.2 C5.6 29.7 4.2 29.5 2.9 32 z" opacity="0.15" id="j1" /><path d="M19 41.7 C16.9 38.3 13.6 34.9 19.9 22.9 C23.6 17.3 25.4 11.7 30.3 8.5 C35.2 5.3 40.4 5 41.5 8.5 C42.6 12 42 26.2 38 37.5 C37.1 39.9 34 46.5 32.8 47.8 C30.9 49.9 25.3 53.7 22.9 51.5 C21.5 50.1 20.4 44 19 41.7 z" id="k1" fill="#FFB8B3" /></g></g><g transform="translate(87, 117.5) translate(38, 0)" id="l1"><g id="m1"><path d="M67 2.2 C73.4 3.6 81.6 6.5 84.5 10.5 C87.4 14.5 90.2 22.1 89.1 36.2 C88 50.3 87.7 63.3 84.9 70.8 C82.1 78.3 75 87 64.4 90.8 C57.6 93.3 51.2 94.5 45.2 94.6 C44.9 94.6 44.8 94.6 44.7 94.6 C38.7 94.5 32.3 93.2 25.5 90.8 C15 87 7.8 78.2 5 70.7 C2.2 63.2 2 50.4 0.9 36.3 C-0.2 22.2 2.6 14.7 5.5 10.6 C8.4 6.5 16.6 3.6 23 2.3 C27.2 1.4 34.4 0.8 44.7 0.5 C55.5 0.7 62.8 1.3 67 2.2 z" id="n1" fill="#ED8B52" /><path d="M72.4 85.7 C70 87.7 67.2 89.4 63.9 90.6 C57.1 93.1 50.7 94.3 44.7 94.4 C44.6 94.4 44.5 94.4 44.5 94.4 C44.4 94.4 44.3 94.4 44.3 94.4 C38.3 94.3 31.9 93 25.1 90.6 C21.8 89.4 19.1 87.8 16.7 85.9 C13.9 74 13 66.5 13.9 63.2 C15.3 57.8 17.2 56.8 11.8 50.9 C6.4 45 12 38 19.6 33.1 C24.6 29.8 27.9 28.7 29.3 29.6 C26.3 28.2 24.3 28.9 22.8 29.2 C20.5 29.7 22.5 24.9 27.2 23.7 C31.9 22.5 36 23.2 38.1 25.2 C40.2 27.2 41.4 28.8 43.6 28.7 C43.7 28.7 43.9 28.7 44 28.7 C43.7 28.7 43.9 28.7 44.5 28.7 C45.1 28.7 45.3 28.7 45 28.7 C45.1 28.7 45.2 28.7 45.4 28.7 C47.6 28.8 48.9 27.4 51.1 25.4 C53.2 23.4 57.4 22 61.9 23.7 C66.4 25.4 68.8 30 66.5 29.5 C65 29.2 62.8 28.1 59.8 29.5 C61.2 28.6 64.5 29.7 69.5 33 C77 38 82.7 45.1 77.3 51 C71.8 56.9 73.7 57.8 75.2 63.3 C75.9 66.4 75 73.9 72.4 85.7 z" id="o1" fill="#DD7E4E" /><path d="M56.9 1 C57.3 1.3 53.2 1.7 52.8 7 C52.6 8.7 55.1 17.3 55.5 19.4 C56.7 24.8 55.9 24.4 54.6 27.2 C50.2 36.4 49 41.7 51.9 46.6 C53.8 49.8 57.2 53.4 62 57.4 C64.9 60.2 66.8 62.7 67.6 64.8 C69.5 69.9 72.6 79 67.6 86.6 C62.6 94.2 58.2 102.4 44.8 102.4 C31.4 102.4 23.8 94.2 20.3 84.8 C16.8 75.4 19 72.6 21.7 67.1 C23.4 63.6 24.8 60.8 28.6 57.5 C32.4 54.2 35.9 50 37.8 46.7 C40.6 41.8 39.4 36.5 35.1 27.3 C33.7 24.5 33 24.9 34.2 19.5 C34.8 16.9 37 12.2 37 7.1 C37 2 32.6 1.2 32.9 1 C33.8 0.9 37.8 0.5 44.8 0.5 C51.8 0.5 55.9 0.9 56.9 1 z" id="p1" fill="#CE734A" /><path d="M67 2.2 C73.4 3.6 81.6 6.5 84.5 10.5 C87.4 14.5 90.2 22.1 89.1 36.2 C88 50.3 87.7 63.3 84.9 70.8 C82.1 78.3 75 87 64.4 90.8 C57.6 93.3 51.2 94.5 45.2 94.6 C44.9 94.6 44.8 94.6 44.7 94.6 C38.7 94.5 32.3 93.2 25.5 90.8 C15 87 7.8 78.2 5 70.7 C2.2 63.2 2 50.4 0.9 36.3 C-0.2 22.2 2.6 14.7 5.5 10.6 C8.4 6.5 16.6 3.6 23 2.3 C27.2 1.4 34.4 0.8 44.7 0.5 C55.5 0.7 62.8 1.3 67 2.2 z M66.4 2.4 C62.3 1.5 55.2 0.9 44.7 0.7 C34.7 1 27.7 1.6 23.6 2.5 C17.4 3.8 9.4 6.6 6.6 10.6 C3.8 14.6 1 21.9 2.1 35.6 C3.2 49.3 3.4 61.8 6.1 69.1 C8.8 76.4 15.8 85 26 88.7 C32.6 91 38.8 92.3 44.7 92.4 C44.8 92.4 44.9 92.4 45.2 92.4 C51 92.3 57.3 91.1 63.9 88.7 C74.2 85 81.1 76.5 83.9 69.2 C86.7 61.9 86.9 49.2 88 35.5 C89.1 21.8 86.3 14.4 83.5 10.5 C80.7 6.6 72.6 3.8 66.4 2.4 z" fill-opacity="0.3" id="q1" /></g></g><g transform="translate(169.7, 185) scale(1) translate(-169.7, -180)" id="r1"><g transform="translate(108.1, 99.89997) translate(22, 30)" id="s1"><g id="t1"><path d="M76.7 63.3 C75.1 55.9 72.5 52.3 66.1 47.7 C58.4 42.2 52.2 40.3 47.5 33.1 C46 30.8 44.9 28.2 43.9 20.7 C43.3 16.2 42.8 12.9 42.4 9.2 C42 5.5 41.1 0.8 37.7 0.7 C34.3 0.6 33.6 4.7 33.5 9.9 C33.4 15.2 33 16.9 32.3 22.2 C31.2 29.7 29.2 32.1 27.7 34.5 C23 41.8 17.4 43 9.9 49 C2.7 54.8 1.9 56.9 1 66.1 C1 66 1 66 1 65.9 C-0.2 70.9 3.1 77 3.1 77.1 C9.7 87.7 16.4 91.1 27.6 91.1 C32.7 91.1 38 91.1 50.2 91.1 C60.4 91 73.7 80.8 76 74.2 C76.2 73.7 76.3 73.2 76.5 72.8 C77.2 70.9 77.6 69 77.4 67.2 C77.4 65.8 77.1 64.6 76.7 63.3 z" id="u1" fill="#FFF" /><path d="M76 74.2 C73.7 80.8 60.4 91 50.2 91.1 C38.4 91.1 33 91.1 27.6 91.1 C16.4 91.1 9.7 87.7 3.1 77.1 C3.1 77 -0.2 70.9 1 65.9 C1.9 71 6.8 77.1 12 81.4 C16.7 85.3 27.9 87.3 39.4 87.6 C50.9 87.9 64.7 82.4 70.4 76.3 C73 73.5 76 65.7 76.3 61.9 C77.3 65.5 78.3 67.5 76 74.2 z" fill-opacity="0.1" id="v1" fill="#010101" /><path d="M76.7 63.3 C77.1 64.6 77.4 65.8 77.4 67.2 C77.6 69 77.2 70.9 76.5 72.8 C76.3 73.2 76.2 73.7 76 74.2 C73.7 80.8 60.4 91 50.2 91.1 L27.6 91.1 C16.4 91.1 9.7 87.7 3.1 77.1 C3.1 77.1 2.3 75.5 1.6 73.3 C0.9 71.1 0.4 68.4 1 65.9 C1 65.9 1 65.9 1 66 C1.9 56.9 2.7 54.8 9.9 49 C17.4 43 23 41.8 27.7 34.5 C29.2 32.1 31.2 29.7 32.3 22.2 C33 16.9 33.4 15.2 33.5 9.9 C33.6 4.7 34.3 0.6 37.7 0.7 C41.1 0.8 42 5.5 42.4 9.2 C42.8 12.9 43.3 16.2 43.9 20.7 C44.9 28.2 46 30.8 47.5 33.1 C52.2 40.3 58.4 42.2 66.1 47.7 C72.5 52.3 75.1 55.9 76.7 63.3 L76.7 63.3 z M74.7 66.3 C74.7 65 74.4 63.9 74 62.6 C72.5 55.7 70.1 52.3 64.2 48 C57 42.8 51.3 41.1 46.9 34.3 C45.5 32.1 44.5 29.7 43.6 22.7 C43 18.5 42.6 15.4 42.2 11.9 C41.8 8.4 40.9 1.8 37.7 1.7 C34.5 1.6 33.9 7.6 33.9 12.5 C33.8 17.5 33.4 19.1 32.8 24 C31.8 31 29.9 33.3 28.5 35.5 C24.1 42.3 18.9 43.5 12 49.1 C5.3 54.5 4.6 56.5 3.7 64.9 C3.1 67.2 3.6 69.8 4.3 71.9 C4.9 73.9 5.7 75.4 5.7 75.4 C11.8 85.3 18.1 88.5 28.5 88.5 L49.5 88.5 C59 88.4 71.3 78.8 73.5 72.7 C73.7 72.2 73.8 71.8 74 71.4 C74.5 69.8 74.9 68 74.7 66.3 z" fill-opacity="0.1" id="w1" fill="#010101" /></g></g><g transform="translate(108.4, 102.3) translate(39, 80)" id="x1"><path d="M0.8 2.5 C0.9 3.5 1.7 5.7 2.3 7 C3.9 10.9 6.6 13.2 7.4 13.8 C11 16.7 14.3 16.6 21.5 16.6 C30.5 16.7 31.2 15.6 35.8 13.1 C41.7 9.9 42.9 1.6 42.9 0.8 C42.8 0 41.9 0 41.8 0.5 C41.6 1.1 41.7 2.5 41.5 3.1 C41.1 5 40.6 6 39.9 6.7 C38.1 8.6 35 10.2 32.4 10.3 C28.3 10.4 25.9 7.6 23.6 4.2 C23.3 3.7 22.6 3.4 21.4 3.1 C20.3 3.4 19.6 3.8 19.2 4.2 C16 7.9 13.7 10.6 11 10.6 C8.1 10.6 5.1 9 3.8 6.5 C3.2 5.2 2.5 3.9 1.9 1.6 C1.9 1.1 0.7 1.4 0.8 2.5 z" fill-opacity="0.1" id="y1" fill="#010101" /><g transform="translate(5, 7)" id="z1"><path d="M0.6 5.8 C5.2 7.6 9 7.6 11.9 5.8 C13.9 4.6 15.2 3.4 15.7 2.2 C15.9 1.8 16.1 1.5 16.3 1.2 C16.8 2.5 18.2 4 20.5 5.8 C22.8 7.6 26.5 7.6 31.6 5.8 C26.6 12.8 21.3 16.3 15.8 16.3 C10.3 16.3 5.3 12.8 0.6 5.8 z" id="a2" fill="#424242" /><path d="M8.8 13.5 L8.8 6.9 C10.6 6.3 11.7 5.9 12.2 5.6 C13.3 4.9 14.7 3.2 16.2 0.6 C18 3.2 19.7 4.9 21 5.8 C21.5 6.1 22.4 6.5 23.9 7 L23.9 13.5 C27.1 22.1 24.6 26.2 16.4 26 C8.4 25.7 5.8 21.6 8.8 13.5 z" id="b2" fill="#FFB8B3" /></g></g><g transform="translate(169.8, 178.5) scale(1.2) translate(-169.8, -178.5) translate(108.7, 110.1) translate(52, 61)" id="c2"><g id="d2"><path d="M9.1 0 C-3.4 0 0.1 11.7 9.1 14.7 C18.1 11.8 21.6 0 9.1 0 z" id="e2" fill="#282421" /><path d="M10.1 0.9 C7.2 1 4.1 1.6 4.1 2.7 C4.1 3.7 11.7 4.8 14.2 2.8 C15.3 2 12.5 0.8 10.1 0.9 z" id="f2" fill="#FEFEFE" /></g></g><g transform="translate(148.2, 159.9) scale(1.1) translate(-150.2, -159.9) translate(107.8, 116.2) translate(28, 31)" id="g2"><g id="h2"><path d="M27.4 14.8 C22.7 14.2 24.5 5.1 19.1 1.5 C15.1 -1.3 8.2 2.3 5.5 4.5 C1.9 7.3 -0.5 10.3 0.1 14.8 C0.7 19.3 4 23.4 8.3 24.9 C11.9 26.1 15.9 25.6 19.5 24.1 C22 23 30.4 15.1 27.4 14.8 z" id="i2" fill="#CE734A" /><path d="M5.1 12.4 C5.1 10.8 7.5 10 9.7 8.3 C10.5 7.7 12 6.6 13.8 6.6 C16.3 6.6 18.1 8.3 19.3 10.3 C20.6 12.5 22.2 14.7 21.7 15.7 C21.2 16.9 18.6 17.2 16 18.1 C14.8 18.5 11.4 18.4 9.5 16.8 C7.5 15 5.1 13.3 5.1 12.4 z" id="j2" fill="#F5A376" /><path d="M18.6 10.5 C18.4 10.1 18.2 9.8 17.9 9.5 C17.1 8.6 15.9 8.1 14.6 8.1 C13.9 8.1 13.3 8.3 12.7 8.5 C12.6 8.5 12.6 8.6 12.5 8.6 C12.3 8.7 12.1 8.8 11.9 8.9 C10.1 9.9 8.2 10.7 7.9 12.1 C7.7 13.1 9.8 14.7 11.6 16.1 C11.8 16.2 11.9 16.4 12.1 16.5 C12.1 16.5 12.2 16.5 12.2 16.6 C12.9 17 13.7 17.2 14.5 17.2 C14.7 17.2 14.9 17.2 15.1 17.1 L15.2 17.1 C15.5 17.1 15.7 17 16 16.9 C17.9 16.5 20.2 16.2 20.6 15 C21.1 14.2 19.9 12.3 18.6 10.5 z" id="k2" fill="#282421" /><path d="M11.5 12.4 C12 12.8 12.7 12.5 13.3 12.2 C14.5 11.6 17.1 10.9 17 10.4 C16.9 9.9 15.4 9.5 15.2 9.4 C14.5 9.2 13.5 9.2 12.9 9.5 C12.1 10 10.4 11.5 11.5 12.4 z" id="l2" fill="#FFFAF8" /></g></g><g transform="translate(189.7, 159.9) scale(1.1) translate(-187.7, -159.9) translate(105.1, 116.2) translate(68, 31)" id="m2"><g id="n2"><path d="M1.6 14.8 C6.3 14.2 5.3 5.1 10.6 1.5 C14.6 -1.3 20.8 2.3 23.5 4.5 C27.1 7.3 29.5 10.3 28.9 14.8 C28.3 19.3 25 23.4 20.7 24.9 C17.1 26.1 13.1 25.6 9.5 24.1 C6.9 23 -1.4 15.1 1.6 14.8 z" id="o2" fill="#CE734A" /><path d="M23.9 12.4 C23.9 10.8 21.5 10 19.3 8.3 C18.5 7.7 17 6.6 15.2 6.6 C12.7 6.6 10.9 8.3 9.7 10.3 C8.4 12.5 6.8 14.7 7.3 15.7 C7.8 16.9 10.4 17.2 13 18.1 C14.2 18.5 17.6 18.4 19.5 16.8 C21.5 15 23.9 13.3 23.9 12.4 z" id="p2" fill="#F5A376" /><path d="M17.1 9 C16.9 8.9 16.7 8.8 16.5 8.7 C16.4 8.7 16.4 8.6 16.3 8.6 C15.7 8.3 15.1 8.2 14.4 8.2 C13.1 8.2 12 8.7 11.1 9.6 C10.8 9.9 10.5 10.3 10.3 10.7 C9.1 12.4 7.8 14.4 8.2 15.3 C8.7 16.5 10.9 16.8 12.8 17.2 C13.1 17.3 13.3 17.4 13.6 17.4 L13.7 17.4 C13.9 17.4 14.1 17.4 14.3 17.4 C15.2 17.4 15.9 17.2 16.6 16.7 C16.6 16.7 16.7 16.7 16.7 16.6 C16.9 16.5 17.1 16.3 17.2 16.2 C19.1 14.8 21.1 13.2 20.9 12.2 C20.8 10.8 18.9 10.1 17.1 9 z" id="q2" fill="#282421" /><path d="M11.1 12 C11.6 12.4 12.3 12.1 12.9 11.8 C14.1 11.2 16.7 10.5 16.6 10 C16.5 9.5 15 9.1 14.8 9 C14.1 8.8 13.1 8.8 12.5 9.1 C11.6 9.5 9.9 11.1 11.1 12 z" id="r2" fill="#FFFAF8" /></g></g></g></g></g></g><defs><g transform="translate(17.09519, 0.800995) translate(-135.2952, -293.601)" id="s2" fill="#000"><path d="M118.2 302.7 C118.4 307.4 132.5 311.2 149.8 311.2 C167.1 311.2 181.2 307.4 181.4 302.7 C181.4 307.5 181.4 310.1 181.4 310.5 C181.4 315.3 167.3 319.1 149.8 319.1 C132.3 319.1 118.2 315.2 118.2 310.5 L118.2 302.7 L118.2 302.7 z" fill-opacity="0.4528" id="t2" fill="#593001" /><path d="M118.7 301.7 C118.9 306.4 133 310.2 150.3 310.2 C167.6 310.2 181.7 306.4 181.9 301.7 C181.9 306.5 181.9 309.1 181.9 309.5 C181.9 314.3 167.8 318.1 150.3 318.1 C132.8 318.1 118.7 314.2 118.7 309.5 L118.7 301.7 L118.7 301.7 z" id="u2" fill="#DA8113" /><linearGradient x1="46.0545" y1="-118.6926" x2="45.4656" y2="-118.6926" gradientUnits="userSpaceOnUse" gradientTransform="matrix(117.135, 0, 0, 28.4634, -5208.417, 3687.795)" id="v2"><stop offset="0%" stop-color="#D9952A" stop-opacity="1" /><stop offset="6.438854%" stop-color="#CA7519" stop-opacity="1" /><stop offset="30.54%" stop-color="#E3AD3A" stop-opacity="1" /><stop offset="51.05%" stop-color="#FFEC91" stop-opacity="1" /><stop offset="68.8%" stop-color="#E9BD44" stop-opacity="1" /><stop offset="86.24%" stop-color="#FFED6C" stop-opacity="1" /><stop offset="93.87%" stop-color="#F2D353" stop-opacity="1" /><stop offset="100%" stop-color="#F2B947" stop-opacity="1" /></linearGradient><path d="M118.2 301.6 C118.4 306.1 132.7 309.7 150.3 309.7 C167.9 309.7 182.2 306.1 182.4 301.6 C182.4 306.2 182.4 308.7 182.4 309 C182.4 313.5 168 317.2 150.3 317.2 C132.6 317.2 118.2 313.5 118.2 309 L118.2 301.6 L118.2 301.6 z" id="w2" style="fill:url(#v2)" /><linearGradient x1="45.4914" y1="-117.9547" x2="45.9407" y2="-117.5895" gradientUnits="userSpaceOnUse" gradientTransform="matrix(115.425, 0, 0, 29.925, -5125.077, 3826.124)" id="x2"><stop offset="0%" stop-color="#F4E072" stop-opacity="1" /><stop offset="100%" stop-color="#DB9427" stop-opacity="1" /></linearGradient><ellipse cx="150.3" cy="301.5" rx="31.6" ry="8.2" id="y2" style="fill:url(#x2)" /><linearGradient x1="45.4656" y1="-126.0065" x2="46.0545" y2="-126.0065" gradientUnits="userSpaceOnUse" gradientTransform="matrix(117.135, 0, 0, 18.6219, -5208.417, 2651.479)" id="z2"><stop offset="0%" stop-color="#D9952A" stop-opacity="1" /><stop offset="6.438854%" stop-color="#CA7519" stop-opacity="1" /><stop offset="30.54%" stop-color="#E3AD3A" stop-opacity="1" /><stop offset="51.05%" stop-color="#FFEC91" stop-opacity="1" /><stop offset="68.8%" stop-color="#E9BD44" stop-opacity="1" /><stop offset="86.24%" stop-color="#FFED6C" stop-opacity="1" /><stop offset="93.87%" stop-color="#F2D353" stop-opacity="1" /><stop offset="100%" stop-color="#F2B947" stop-opacity="1" /></linearGradient><path d="M119.2 299.9 C119 300.2 118.9 300.6 118.9 301 C118.9 305.5 132.9 309.2 150.3 309.2 C167.7 309.2 181.7 305.5 181.7 301 C181.7 300.6 181.6 300.3 181.4 299.9 C182 300.5 182.4 301.2 182.4 301.9 C182.4 306.4 168 310.1 150.3 310.1 C132.6 310.1 118.2 306.4 118.2 301.9 C118.2 301.3 118.6 300.6 119.2 299.9 z" id="a3" style="fill:url(#z2)" /><linearGradient x1="45.196" y1="-121.5895" x2="45.3746" y2="-120.6758" gradientUnits="userSpaceOnUse" gradientTransform="matrix(101.745, 0, 0, 23.94, -4458.332, 3199.41)" id="b3"><stop offset="0%" stop-color="#F8DD61" stop-opacity="1" /><stop offset="100%" stop-color="#EAA330" stop-opacity="1" /></linearGradient><ellipse cx="150.3" cy="300.8" rx="27.8" ry="6.6" id="c3" style="fill:url(#b3)" /><linearGradient x1="45.5694" y1="-134.267" x2="45.0221" y2="-134.267" gradientUnits="userSpaceOnUse" gradientTransform="matrix(101.745, 0, 0, 13.2525, -4458.332, 2077.223)" id="d3"><stop offset="0%" stop-color="#F4CA2F" stop-opacity="1" /><stop offset="51.38%" stop-color="#BF7737" stop-opacity="1" /><stop offset="100%" stop-color="#E4A929" stop-opacity="1" /></linearGradient><path d="M122.6 301.5 C122.5 301.3 122.4 301 122.4 300.8 C122.4 297.2 134.9 294.2 150.2 294.2 C165.5 294.2 178 297.1 178 300.8 C178 301 177.9 301.3 177.8 301.5 C176.3 298.2 164.5 295.6 150.1 295.6 C135.7 295.6 124.1 298.2 122.6 301.5 z" id="e3" style="fill:url(#d3)" /></g></defs><desc>2OD2B9OOAGO,Re+0qdfaF4R+5KNqMq6NmVMJGhTHHz0rrUQvWHfo+7EDmY0iDP3NYkpAmOjVnIsEseuedvRxMjCHfVl1ZZ+w+NtFPMxYiR1BOvYU+xqoqkI=</desc></svg>