<?xml version="1.0" encoding="utf-8"?><!DOCTYPE svg PUBLIC "-//W3C//DTD SVG 1.1//EN" "http://www.w3.org/Graphics/SVG/1.1/DTD/svg11.dtd"><svg x="0" y="0" width="340px" height="340px" viewBox="0, 0, 340, 340" preserveAspectRatio="xMidYMid" font-size="0" id="a" enable-background="new 0 0 340 340" xmlns="http://www.w3.org/2000/svg" xmlns:xlink="http://www.w3.org/1999/xlink" xmlns:xml="http://www.w3.org/XML/1998/namespace" version="1.1"><g id="b" fill="#000"><g id="c"><g transform="translate(0, 0) translate(0, 224)" id="d"><ellipse cx="168.6" cy="53.1" rx="57.8" ry="12.8" fill-opacity="0.25" id="e" /></g><g id="f"><g transform="translate(133.4, 240.9) scale(0.75) translate(-133.4, -240.9) translate(84.89999, 78.59998) translate(0, 161)" id="g"><path d="M0.4 6.2 C0.3 6.5 -0.6 7.7 0.7 12 C1.5 14.9 3.1 16.7 5.8 19.5 C9.2 23.1 11.9 25.4 15 26.2 C18.1 26.9 25.8 27.2 29.5 28.1 C33.5 29.1 38.9 32.7 41.2 34 C46 36.8 58.3 35.8 61.1 30.3 C62.5 27.5 64.6 23.5 64.1 19.5 C63.5 15.4 60.2 11.4 57.5 12 C52 13.2 48.6 13.1 43.4 13.8 C38.1 14.5 35.9 10.9 29.4 10.9 C26.4 10.9 22.2 10.1 16.3 10.9 C13.7 11.2 8.7 9.6 6.8 8.3 C5.9 7.7 3.6 5.9 2.7 5.5 C1.5 5 0.9 5.2 0.4 6.2 z" id="h" fill="#293C49" /><g transform="translate(0, 5)" id="i"><path d="M37.6 7.9 C34.9 7.5 32.7 6.1 28.6 6.5 C26.1 6.8 22.4 6.5 17.5 7.7 C15.3 8.2 11 7.3 9.2 6.3 C8.4 5.9 6.3 4.6 5.5 4.3 C4.4 4 4 4.2 3.6 5.1 C3.6 5.4 2.9 6.5 4.4 10 C5.3 12.4 6.8 13.8 9.4 15.9 C12.6 18.6 15.1 20.3 17.8 20.8 C20.5 21.1 27 20.7 30.2 21.1 C33.7 21.6 38.6 24.2 40.6 25.1 C44.9 27 55.2 25.1 57.1 20.2 C58 17.7 59.5 14.1 58.7 10.8 C58.4 9.5 57.7 8.2 56.9 7.2 C57.1 7.2 57.3 7.1 57.5 7.1 C60.2 6.5 63.5 10.5 64.1 14.6 C64.6 18.6 62.5 22.6 61.1 25.4 C58.3 30.8 46 31.8 41.2 29 C38.9 27.7 33.5 24.1 29.5 23.1 C25.8 22.2 18.1 21.9 15 21.2 C11.9 20.4 9.2 18.1 5.8 14.5 C3.1 11.7 1.5 9.9 0.7 7 C-0.6 2.7 0.3 1.5 0.4 1.2 C0.9 0.2 1.5 0 2.7 0.5 C3.6 0.9 5.9 2.7 6.8 3.3 C8.7 4.6 13.7 6.2 16.3 5.9 C22.2 5.1 26.4 5.9 29.4 5.9 C33 5.9 35.3 7 37.6 7.9 z" fill-opacity="0.3" id="j" /></g></g><g transform="translate(126.1867, 273.2) scale(0.7075812) translate(-123.8, -273.2) translate(98.3, 87.99995) translate(17, 134)" id="k"><path d="M3.2 22.3 C1.8 20.2 0.9 17.9 0.7 15.3 C0.2 8.8 5.5 2.5 11.9 1.2 C18.3 -0.1 25.2 2.9 29.1 8.2 C32.2 12.3 32.5 17.4 32.6 22.6 C32.6 24 5.5 25.8 3.2 22.3 z" id="l" fill="#293C49" /><path d="M12.6 31.2 C9 28.7 5.3 25.7 3 22 C4.3 21.1 5.9 20.5 7.6 20.1 C15.5 18 28 20.5 32.5 22.2 C32.5 23.8 32.6 25.4 32.6 26.9 C32.7 29.8 36 37.8 36 37.8 C34.6 41.9 31.1 44.9 27.7 47.7 C27.3 48 26.9 48.3 26.5 48.7 C23.3 51.4 24.3 54.8 19.2 54.5 C15 54.3 9.2 55.3 5.3 53.7 C2 49.3 5.1 40.6 11.7 40.2 C16.6 39.9 19.1 39.2 18 36.8 C16.9 34.4 14.8 32.7 12.6 31.2 z" id="m" fill="#C9C9C9" /><path d="M3 22 C1.7 20 0.9 17.8 0.7 15.3 C0.2 8.8 5.5 2.5 11.9 1.2 C18.3 -0.1 25.2 2.9 29.1 8.2 C32.2 12.3 32.5 17.4 32.6 22.6 C32.6 22.6 32.6 22.7 32.5 22.7 C32.5 24.1 32.6 25.5 32.6 26.9 C32.7 29.8 36 37.8 36 37.8 C34.6 41.9 31.1 44.9 27.7 47.7 C27.3 48 26.9 48.3 26.5 48.7 C23.3 51.4 24.3 54.8 19.2 54.5 C15 54.3 9.2 55.3 5.3 53.7 C2 49.3 5.1 40.6 11.7 40.2 C16.6 39.9 19.1 39.2 18 36.8 C16.9 34.4 14.8 32.7 12.6 31.2 C9 28.7 5.3 25.7 3 22 L3 22 z M1.7 15 C1.9 17.3 2.7 19.4 3.9 21.3 C6.1 24.8 9.6 27.6 12.9 30 C15 31.4 18.1 34 19.1 36.2 C20.1 38.4 18.8 41 14.2 41.3 C8 41.7 3.9 46.6 7 50.8 C10.7 52.3 15.2 51.8 19.1 52 C24 52.2 23 49 26 46.5 C26.4 46.1 26.8 45.8 27.1 45.6 C30.3 43 32 41 33.3 37.1 C33.3 37.1 31.8 28.7 31.7 26 C31.7 24.7 31.6 23.4 31.6 22.1 C31.7 22.1 31.7 22 31.7 22 C31.6 17.1 31.3 12.3 28.4 8.4 C24.7 3.4 18.2 0.6 12.2 1.8 C6.2 3 1.2 8.9 1.7 15 z" opacity="0.15" id="n" /></g><g transform="translate(212.2133, 273.2) scale(0.7075812) translate(-214.6, -273.2) translate(108.6, 87.99995) translate(83, 134)" id="o"><path d="M25.6 26.1 C30.2 22 32.1 22.1 32.6 15.3 C33.1 8.8 27.8 2.5 21.4 1.2 C15 -0.2 8.1 2.9 4.2 8.2 C0.3 13.5 0.2 20.6 1.3 26.8 C1.7 29.6 23.6 27.9 25.6 26.1 z" id="p" fill="#293C49" /><path d="M20.6 31.2 C24.2 28.7 27.9 25.7 30.2 22 C28.9 21.1 27.3 20.5 25.6 20.1 C17.7 18 5.2 20.5 0.7 22.2 C0.7 23.8 2.1 45 5.4 47.7 C5.8 48 6.2 48.3 6.6 48.7 C9.8 51.4 8.8 54.8 13.9 54.5 C18.1 54.3 23.9 55.3 27.8 53.7 C31.1 49.3 28 40.6 21.4 40.2 C16.5 39.9 14 39.2 15.1 36.8 C16.2 34.4 18.5 32.7 20.6 31.2 z" id="q" fill="#C9C9C9" /><path d="M0.7 22.2 C0.4 17.3 1.2 12.2 4.2 8.2 C8.1 2.9 15 -0.2 21.4 1.2 C27.8 2.5 33.1 8.8 32.6 15.3 C32.3 19.4 31.5 21 29.9 22.5 C27.6 26 24.1 28.8 20.6 31.2 C18.5 32.7 16.2 34.4 15.1 36.8 C14 39.2 16.5 39.9 21.4 40.2 C28 40.6 31.1 49.3 27.8 53.7 C23.9 55.3 18.1 54.3 13.9 54.5 C8.8 54.8 9.8 51.4 6.6 48.7 C6.2 48.3 5.8 48 5.4 47.7 C2.1 45 0.7 23.8 0.7 22.2 C0.7 22.2 0.7 22.2 0.7 22.2 z M4.8 8.2 C2 12 1.3 16.8 1.5 21.5 C1.5 23 3.4 42.5 6.5 45.1 C6.9 45.4 7.5 46.6 7.9 47 C10.9 49.6 9.2 52.5 14 52.2 C18 52 23.5 53 27.2 51.4 C30.3 47.2 26.2 42 19.9 41.6 C15.3 41.3 12.6 39.3 13.6 37 C14.6 34.7 18.3 31.5 20.3 30.1 C23.5 27.8 26.9 25.2 29.1 21.9 C30.6 20.5 31.4 18.9 31.7 15 C32.2 8.8 27.1 2.9 21.1 1.6 C15.1 0.2 8.5 3.2 4.8 8.2 z" opacity="0.15" id="r" /></g><g transform="translate(110.1, 106.6) translate(14, 81)" id="s"><path d="M9.9 30.9 C4.8 38.8 -1.2 50.8 6 63.6 C8.7 68.5 11 75 12.2 79.1 C13.7 84.5 18.4 88.5 24 89.2 C30.5 90 37.9 90.4 45.9 90.4 C54.4 90.4 62.1 90 69.2 89.1 C74.9 88.4 79.6 84.3 81 78.8 C82.4 73.6 83.9 67.3 86.2 63.7 C91.5 55.6 87.6 38 79 29.5 C76.9 27.5 73.7 26.7 70.3 24.6 C63.2 20.4 62.4 0.2 43.1 0.8 C26.9 0.6 25.8 21.5 20.7 24.7 C16 27.6 11.8 27.9 9.9 30.9 z" id="t" fill="#293C49" /><path d="M9.9 30.9 C11.8 27.9 16 27.6 20.7 24.7 C25.8 21.5 26.9 0.6 43.1 0.8 C62.4 0.2 63.2 20.4 70.3 24.6 C73.7 26.7 76.9 27.5 79 29.5 C87.6 38 91.5 55.6 86.2 63.7 C83.9 67.3 82.4 73.6 81 78.8 C79.6 84.3 74.9 88.4 69.2 89.1 C62.1 90 54.4 90.4 45.9 90.4 C37.9 90.4 30.5 90 24 89.2 C18.4 88.5 13.7 84.5 12.2 79.1 C11 75 8.7 68.5 6 63.6 C-1.2 50.8 4.8 38.8 9.9 30.9 z M11.6 30.6 C6.7 38.1 1 49.6 7.9 61.8 C10.5 66.5 12.7 72.7 13.8 76.6 C15.2 81.7 19.7 85.6 25 86.2 C31.2 87 38.2 87.3 45.9 87.3 C54 87.3 61.3 86.9 68.1 86.1 C73.5 85.4 78 81.5 79.3 76.3 C80.6 71.3 82.1 65.3 84.3 61.9 C89.4 54.2 85.6 37.4 77.4 29.3 C75.4 27.4 72.3 26.6 69.1 24.6 C62.3 20.6 61.6 1.3 43.2 1.9 C27.8 1.7 26.7 21.6 21.9 24.7 C17.4 27.4 13.4 27.7 11.6 30.6 z" opacity="0.15" id="u" /></g><g transform="translate(125.7338, 214.8) scale(1.001504, 0.7227464) translate(-125.8, -217.5999) translate(96.8, 109.3) translate(73, 157) scale(-1, 1) translate(-73, -157) translate(29, 109)" id="v"><g id="w"><g id="x"><g opacity="0.21" transform="translate(10, 82)" id="y"><path d="M1.6 5.5 C2.8 3.7 3.6 1.5 6.5 1.3 C9.4 1.1 11.2 -0.3 14.5 0.2 C17.8 0.7 22 2.4 22 5.5 C22 8.6 22.4 9.6 22 9.8 C19.2 11.2 15.8 11.2 11.7 11.8 C8.3 12.3 1.9 12.1 0.7 11 C0.4 10.1 0.4 7.3 1.6 5.5 z" stroke="#000000" stroke-width="3" opacity="0.21" id="z" /></g><path d="M11.6 86.5 C12.8 84.7 13.6 82.5 16.5 82.3 C19.4 82.1 21.2 80.7 24.5 81.2 C27.8 81.7 32 83.4 32 86.5 C32 89.6 30.9 90.9 30.5 91.1 C27.7 92.5 25.8 92.2 21.7 92.8 C18.3 93.3 13.5 93.9 12.3 92.8 C11.1 91.9 10.4 88.3 11.6 86.5 z" id="a1" fill="#DDD5CD" /><g opacity="0.2" transform="translate(0, 1)" id="b1"><path d="M10.3 6.6 C10.5 6.4 10.8 6.1 11 6 C11.1 6 11.1 5.9 11.2 5.9 C11.1 6.6 11.2 7.4 11.5 8.2 C11.5 8.3 13.1 9.1 13.9 9.6 C14 10.2 14.1 10.9 14.3 11.5 C14.4 11.8 14.5 12.1 14.7 12.4 C14.8 12.5 15.4 12.7 15.9 12.9 C16.4 13.8 17.1 14.6 18.2 15.2 C18.6 15.4 19.1 15.6 19.4 15.8 C19.6 16.1 20 16.8 20.2 17.1 C21.1 17.6 21.8 17.7 22.3 18.2 C22.9 18.3 23.8 18.6 24.2 18.7 C26.3 20.7 23.8 21.3 25.5 26.3 C25.9 27.5 27.3 30.9 27.9 31.9 C29.1 33.9 33.1 33.9 33.9 36.1 C34.3 37.3 33.8 39.7 34.5 40.5 C35.2 41.3 36.9 42.4 37.2 44.6 C37.3 45.3 34.6 45.8 34.8 47.1 C35 48.4 37.7 50.7 37.8 51.4 C38.3 53.6 34.7 51.4 34.8 53 C34.9 53.8 41.1 59.3 41.5 61.1 C41.6 61.6 40.5 62.4 40 62.2 C39.9 62.6 39.1 62.2 38.4 61.9 C39.1 63.5 39.7 63.4 40 64.3 C40.9 66.7 41.5 66.4 41.8 68.1 C41.9 69 39.4 69.6 39.4 70.3 C39.4 71.1 40.5 73.8 40.5 74.9 C40.2 75.9 38.1 73.7 37.9 74.6 C37.3 77.4 37.2 80.1 36.2 81.5 C35.5 82.5 34.8 84.1 34.1 84.5 C33.5 85.9 27.4 81.8 25.3 81.5 C23.3 81.2 21.3 81.5 19.5 81.5 C18.1 81.5 15.3 83.9 13.2 84.5 C12.9 84.6 12.5 82.9 12.4 82.8 C11.3 81.9 9.8 80.8 7.2 75.3 C4.6 69.8 4.9 67.4 4.6 63.3 C4.3 59.2 1.4 52.8 0.7 47.1 C0 41.4 1.9 30.9 1.9 27.1 C1.9 23.3 3.2 20.6 2.1 15.2 C1.8 13.8 1.1 12.4 1.3 11.5 C2 8.6 5.4 2.1 8 1.2 C12.5 -0.5 10 3 10.3 6.6 z" stroke="#000000" stroke-width="3" opacity="0.2" id="c1" /></g><path d="M8 1.2 C5.4 2.1 1.4 9.5 0.7 12.4 C0.5 13.3 1 14.4 1.3 15.8 C2.4 21.2 1.3 23.5 1.3 27.3 C1.3 31.1 0 41.4 0.7 47.1 C1.4 52.8 4.2 59.2 4.5 63.3 C4.8 67.4 5.4 69.3 8 74.8 C10.6 80.3 11.2 81.9 12.3 82.8 C12.4 82.9 12.9 84.1 13.2 84 C15.3 83.4 17.9 82.3 19.3 82.3 C21.1 82.3 24 82 26 82.3 C28.1 82.6 30.9 85.1 32.2 84.5 C33 84.1 34.6 82.5 35.2 81.5 C36.2 80 36.4 78.7 37 76 C37.2 75.1 37.9 75.7 38.4 74.8 C39 73.7 38.4 71.2 38.4 70.3 C38.4 69.6 40.1 69.5 40 68.6 C39.8 67 40.9 67.5 40 65.1 C39.6 64.1 38.1 63.4 37.5 62 C37 60.9 40.3 63.2 40 62 C39.5 60.2 35.5 55.1 35.3 54.2 C34.9 52.7 37.1 54.7 37.1 53.2 C37 51.5 35.8 50.5 35.3 48.3 C35 47 36.3 46.3 36.1 44.9 C35.7 42.7 34.4 41.4 33.7 40.5 C33 39.7 33.3 37.4 32.8 36.2 C32 34 28.7 33.9 27.5 31.9 C26.9 30.9 25.8 27.4 25.4 26.2 C23.8 21.2 25.1 20.6 22.9 18.6 C21.8 17.6 20.3 16.7 17.3 15.3 C14.8 14.1 14.6 11.5 13.5 10 C13.4 9.8 10.6 8.4 10.6 8.2 C9.1 4.1 13.1 -0.7 8 1.2 z" id="d1" fill="#4B5966" /><path d="M8 1.2 C5.4 2.1 1.4 9.5 0.7 12.4 C0.5 13.3 1 14.4 1.3 15.8 C2.4 21.2 1.3 23.5 1.3 27.3 C1.3 31.1 0 41.4 0.7 47.1 C1.4 52.8 4.2 59.2 4.5 63.3 C4.8 67.4 5.4 69.3 8 74.8 C10.6 80.3 11.2 81.9 12.3 82.8 C12.4 82.9 12.9 84.1 13.2 84 C15.3 83.4 17.9 82.3 19.3 82.3 C21.1 82.3 24 82 26 82.3 C28.1 82.6 30.9 85.1 32.2 84.5 C33 84.1 34.6 82.5 35.2 81.5 C36.2 80 36.4 78.7 37 76 C37.2 75.1 37.9 75.7 38.4 74.8 C39 73.7 38.4 71.2 38.4 70.3 C38.4 69.6 40.1 69.5 40 68.6 C39.8 67 40.9 67.5 40 65.1 C39.6 64.1 38.1 63.4 37.5 62 C37 60.9 40.3 63.2 40 62 C39.5 60.2 35.5 55.1 35.3 54.2 C34.9 52.7 37.1 54.7 37.1 53.2 C37 51.5 35.8 50.5 35.3 48.3 C35 47 36.3 46.3 36.1 44.9 C35.7 42.7 34.4 41.4 33.7 40.5 C33 39.7 33.3 37.4 32.8 36.2 C32 34 28.7 33.9 27.5 31.9 C26.9 30.9 25.8 27.4 25.4 26.2 C23.8 21.2 25.1 20.6 22.9 18.6 C21.8 17.6 20.3 16.7 17.3 15.3 C14.8 14.1 14.6 11.5 13.5 10 C13.4 9.8 10.6 8.4 10.6 8.2 C9.1 4.1 13.1 -0.7 8 1.2 z" id="e1" fill="#EDEEEF" /><path d="M11.5 8.2 C11.5 8.3 13.1 9.1 13.9 9.6 C14 10.5 14.2 11.5 14.7 12.4 C14.7 12.5 15.3 12.7 15.9 12.9 C16.4 13.8 17.1 14.6 18.2 15.2 C18.6 15.4 19.1 15.6 19.4 15.8 C20.1 16.8 21 17.7 22.5 18.2 C23 18.3 23.4 18.5 23.8 18.6 C25.9 20.6 24.6 21.2 26.3 26.2 C26.7 27.4 27.8 30.9 28.4 31.9 C29.6 33.9 32.9 34 33.7 36.2 C34.1 37.4 33.9 39.7 34.6 40.5 C35.3 41.3 36.7 42.7 37 44.9 C37.2 46.3 35.9 47 36.2 48.3 C36.7 50.5 37.9 51.6 38 53.2 C38.1 54.8 35.8 52.7 36.2 54.2 C36.5 55.1 40.5 60.2 40.9 62 C41.2 63.2 37.9 60.9 38.4 62 C39.1 63.5 40.6 64.2 40.9 65.1 C41.8 67.5 40.7 66.9 40.9 68.6 C41 69.5 39.3 69.6 39.3 70.3 C39.3 71.1 39.9 73.7 39.3 74.8 C38.8 75.7 38.1 75.1 37.9 76 C37.3 78.8 37.1 80.1 36.1 81.5 C35.4 82.5 33.8 84.1 33.1 84.5 C31.8 85.1 29 82.6 26.9 82.3 C26.7 82.3 26.5 82.3 26.3 82.2 C25.6 81.2 24.8 80 23.7 78.5 C22.5 76.8 21.9 75.4 20.9 74 C20 72.7 18.6 71.3 18.3 70.4 C17.8 69.3 18.7 69.2 18.3 67.8 C18.2 67.6 17.2 66.4 17.1 65.9 C16.9 64.7 17.6 63.9 17.1 63.1 C16.2 61.6 14.7 61.8 13.8 60.1 C12.9 58.4 12.9 56.7 12.2 55.1 C11.7 53.9 12.1 53.6 11.7 52.5 C11.5 51.3 11.5 49 11 47 C10.7 45.8 9.7 44.9 9.6 43.8 C9.4 42.2 10.3 41.9 9.9 40.5 C9.5 38.9 8.6 38.1 8.2 37.1 C7.6 35.7 9.2 33.9 9 32.9 C8.8 31.7 8.2 30 8.2 28.9 C8.1 26.6 8.4 25.1 7 21.6 C6.5 20.2 5.7 19.2 5.8 18.3 C5.9 15.3 8.6 7.4 11 6 C11.1 6 11.1 5.9 11.2 5.9 C11.1 6.6 11.2 7.4 11.5 8.2 z" id="f1" fill="#4B5966" /></g><g transform="translate(46, 1)" id="g1"><g opacity="0.2" transform="translate(9, 81)" id="h1"><path d="M20.8 7 C19.6 5.2 19.5 2.3 16.6 2 C13.7 1.8 10.9 0.4 7.6 0.9 C5.7 1.2 2.7 0.9 1.2 2 C0 2.8 0.1 4.9 0.1 6.2 C0.1 9.3 0.2 9.4 0.5 9.9 C1.7 11.8 5.9 11.7 10 12.2 C13.4 12.7 20.3 12.5 21.8 11.6 C22.2 11.3 21.9 8.9 20.8 7 z" stroke="#000000" stroke-width="3" opacity="0.2" id="i1" /></g><path d="M29.8 87 C28.6 85.2 28.5 82.3 25.6 82 C22.7 81.8 19.9 80.4 16.6 80.9 C14.7 81.2 11.7 80.9 10.2 82 C9 82.8 9.1 84.9 9.1 86.2 C9.1 89.3 10.7 90.8 11.1 91 C13.9 92.4 15.3 92 19.4 92.5 C22.8 93 27.1 92.8 29 92.1 C30.6 91.5 30.9 88.9 29.8 87 z" id="j1" fill="#DDD5CD" /><g opacity="0.2" transform="translate(0, 1)" id="k1"><path d="M38.1 9.5 C38 10.4 40 11.7 39.7 13.1 C39.3 15 40.8 16.1 40.9 17.5 C41.1 19.1 40.4 20.4 40.4 21.8 C40.4 22.9 41.8 25.6 41.8 26.9 C41.8 28.2 40.9 28.4 40.9 30.3 C40.9 31.5 41.7 33.3 41.8 34.8 C41.9 36.2 40.6 36.6 40.3 37.7 C39.8 39.3 41.8 41.7 41.8 43.2 C41.8 44.4 38.2 40.4 38.2 41.5 C38.3 43.8 40.5 45.4 40.3 47.1 C40.3 47.3 38.2 47.2 38.2 47.9 C38.1 49.4 40.6 50.5 40.3 51.6 C39.9 53.1 39.4 52.5 39.1 54 C38.8 55.8 39.1 56.5 38.7 57.8 C38.4 58.7 37.4 56 37.2 56.8 C36.7 58.8 38.2 60.4 38.2 61.3 C38.2 63.5 36.3 63 36.2 64.3 C36 66.6 37 66.1 36.2 68.2 C35.8 69.1 33.6 70 33.2 71.2 C32.9 72.3 33.7 74.7 33.2 75.9 C32.7 76.9 31.2 74.8 30.9 75.9 C30.7 76.9 32.6 81.8 32.4 82.4 C32 83.4 28.2 82.4 27.5 83 C26.5 83.9 22 81 18.7 81 C15.4 81 12.8 82.7 11.1 83 C9.5 83.3 7 83.1 5.8 82.1 C5.7 81.9 5.3 80.7 5.2 80.5 C4.7 79.7 5.7 75.9 5.2 74.3 C5.1 73.9 4 74.6 3.8 74.4 C3.7 74.3 3.5 74.2 3.4 74 C3.1 73.7 2.9 73.4 2.9 72.6 C2.8 71.3 5.5 62.3 5.4 61.7 C4.6 66.6 3.2 69 1.2 69 C0.6 69 0.9 67.1 1.1 64.8 C1.2 63.2 3.8 58.6 3.7 57.3 C3.7 57.1 1.8 57.9 1.6 57.6 C1.5 57.5 1 57 1 56.7 C1.2 55.5 3.1 54.2 3.5 53.1 C3.2 52.9 2.3 53.1 2.2 52.8 C2.1 52.7 2 52.6 2.1 52.3 C2.6 51.1 5.5 48 5.7 47 C5.9 45.7 4.2 45.6 4.5 44.5 C4.9 43 6.5 42.7 6.8 41.4 C7.2 39.3 5.7 38 7.6 35.8 C10.6 33.3 13.9 29.1 15.6 23.9 C17.2 18.8 17.6 16.4 19.7 14.3 C21.1 13 21.9 11.3 25.3 9.3 C27.3 8.2 27.8 6.7 28.3 5.2 C29.7 1 30.8 -1.3 33.5 1.6 C34.2 2.5 35 3.2 35.6 4 C37.2 6 38.3 7.7 38.1 9.5 z" stroke="#000000" stroke-width="3" opacity="0.2" id="l1" /></g><path d="M33.6 1.8 C36.1 4.5 38.4 6.9 38.1 9.5 C38 10.4 40.6 11.7 40.3 13.1 C39.9 15 41.7 16.2 41.8 17.6 C42 19.2 40.9 20.3 40.9 21.7 C40.9 22.8 41.8 25.6 41.8 26.9 C41.8 28.2 40.9 28.4 40.9 30.3 C40.9 31.5 41.7 33.3 41.8 34.8 C41.9 36.2 40.6 36.6 40.3 37.7 C39.8 39.3 40.9 41.4 40.9 42.9 C40.9 44.1 38.6 41.3 38.6 42.4 C38.7 44.7 39.9 46.2 39.7 47.9 C39.7 48.1 38.2 47.2 38.2 47.9 C38.1 49.4 40.7 50.6 40.4 51.7 C40 53.2 39.4 52.5 39.1 54 C38.8 55.8 39.1 56.5 38.7 57.8 C38.4 58.7 37.4 56 37.2 56.8 C36.7 58.8 38.2 60.4 38.2 61.3 C38.2 63.5 36.3 63 36.2 64.3 C36 66.6 37 66.1 36.2 68.2 C35.8 69.1 33.6 70 33.2 71.2 C32.9 72.3 33.7 74.7 33.2 75.9 C32.7 76.9 31.2 74.8 30.9 75.9 C30.7 76.9 31.6 80.9 31.4 81.5 C30.4 83.6 28.2 82.4 27.5 83 C26.5 83.9 22.4 82 19.1 82 C15.8 82 12.8 82.7 11.1 83 C9.4 83.3 7 83.2 5.3 80.6 C4.8 79.8 4.9 76.9 4.4 75.3 C4 74.1 3 74.3 3 72.8 C2.9 71.5 3.9 69.1 3.7 68.2 C3.5 67 1.6 70.5 1.6 69.4 C1.6 68.1 1.4 66.1 1.6 63.8 C1.7 62.2 3 59.8 2.9 58.5 C2.9 57.4 1.4 58.4 1.6 57.2 C1.8 56 3.3 54.4 3.7 53.3 C3.9 52.7 1.9 53.5 2.3 52.5 C2.8 51.3 5.7 48.2 5.9 47.2 C6.1 45.9 5 45.5 5.3 44.4 C5.7 42.9 6.7 42.9 7 41.6 C7.4 39.5 6.5 38.2 7.4 37 C9.9 33.9 12.9 32.1 14.6 26.9 C16.2 21.8 17 16.9 19.1 14.8 C20.5 13.5 22.1 11.5 25.5 9.5 C27.5 8.4 28 6.9 28.5 5.4 C29.8 1.2 30.8 -1.1 33.6 1.8 z" id="m1" fill="#4B5966" /><path d="M33.6 1.8 C36.1 4.5 38.4 6.9 38.1 9.5 C38 10.4 40.6 11.7 40.3 13.1 C39.9 15 41.7 16.2 41.8 17.6 C42 19.2 40.9 20.3 40.9 21.7 C40.9 22.8 41.8 25.6 41.8 26.9 C41.8 28.2 40.9 28.4 40.9 30.3 C40.9 31.5 41.7 33.3 41.8 34.8 C41.9 36.2 40.6 36.6 40.3 37.7 C39.8 39.3 40.9 41.4 40.9 42.9 C40.9 44.1 38.6 41.3 38.6 42.4 C38.7 44.7 39.9 46.2 39.7 47.9 C39.7 48.1 38.2 47.2 38.2 47.9 C38.1 49.4 40.7 50.6 40.4 51.7 C40 53.2 39.4 52.5 39.1 54 C38.8 55.8 39.1 56.5 38.7 57.8 C38.4 58.7 37.4 56 37.2 56.8 C36.7 58.8 38.2 60.4 38.2 61.3 C38.2 63.5 36.3 63 36.2 64.3 C36 66.6 37 66.1 36.2 68.2 C35.8 69.1 33.6 70 33.2 71.2 C32.9 72.3 33.7 74.7 33.2 75.9 C32.7 76.9 31.2 74.8 30.9 75.9 C30.7 76.9 31.6 80.9 31.4 81.5 C30.4 83.6 28.2 82.4 27.5 83 C26.5 83.9 22.4 82 19.1 82 C15.8 82 12.8 82.7 11.1 83 C9.4 83.3 7 83.2 5.3 80.6 C4.8 79.8 4.9 76.9 4.4 75.3 C4 74.1 3 74.3 3 72.8 C2.9 71.5 3.9 69.1 3.7 68.2 C3.5 67 1.6 70.5 1.6 69.4 C1.6 68.1 1.4 66.1 1.6 63.8 C1.7 62.2 3 59.8 2.9 58.5 C2.9 57.4 1.4 58.4 1.6 57.2 C1.8 56 3.3 54.4 3.7 53.3 C3.9 52.7 1.9 53.5 2.3 52.5 C2.8 51.3 5.7 48.2 5.9 47.2 C6.1 45.9 5 45.5 5.3 44.4 C5.7 42.9 6.7 42.9 7 41.6 C7.4 39.5 6.5 38.2 7.4 37 C9.9 33.9 12.9 32.1 14.6 26.9 C16.2 21.8 17 16.9 19.1 14.8 C20.5 13.5 22.1 11.5 25.5 9.5 C27.5 8.4 28 6.9 28.5 5.4 C29.8 1.2 30.8 -1.1 33.6 1.8 z" id="n1" fill="#EDEEEF" /><path d="M35.7 4.1 C36.3 5.4 36.6 6.6 36.3 7.8 C36.1 8.7 37 10.1 36.5 11.5 C35.9 13.3 36.9 14.8 36.9 16.3 C36.9 17.9 36 20.1 35.7 21.5 C35.5 22.6 35.9 24.5 35.7 25.8 C35.5 27.1 35.2 27.3 34.9 29.1 C34.7 30.3 35.7 33.1 35.7 34.5 C35.7 35.9 35.1 39.6 34.9 41.1 C34.7 42.3 33.5 44.2 33.1 45.9 C33 46.1 32.1 50.5 31.7 51.9 C31.2 53.7 29.7 53.8 29.5 54.5 C28.8 56.4 27.8 60.6 27.6 61.8 C27.1 64.1 27.4 61.3 26.3 63.3 C25.8 64.2 24.3 67.1 23.8 68.2 C23.3 69.2 22.9 69.7 22.2 70.8 C21.6 71.8 21.3 71.5 21 72.6 C20.7 73.6 20 76.7 19.7 77.2 C18.5 79.2 17.5 78.7 16.7 79.2 C16 79.7 12 81.6 8.3 82.8 C7.2 82.5 6.1 81.8 5.2 80.5 C4.7 79.7 4.8 76.8 4.3 75.2 C3.9 74 2.9 74.2 2.9 72.7 C2.8 71.4 3.8 69 3.6 68.1 C3.4 66.9 1.5 70.4 1.5 69.3 C1.5 68 1.3 66 1.5 63.7 C1.6 62.1 2.9 59.7 2.8 58.4 C2.8 57.3 1.3 58.3 1.5 57.1 C1.7 55.9 3.2 54.3 3.6 53.2 C3.8 52.6 1.8 53.4 2.2 52.4 C2.7 51.2 5.6 48.1 5.8 47.1 C6 45.8 4.9 45.4 5.2 44.3 C5.6 42.8 6.6 42.8 6.9 41.5 C7.3 39.4 6.4 38.1 7.3 36.9 C9.8 33.8 12.8 32 14.5 26.8 C16.1 21.7 16.9 16.8 19 14.7 C20.4 13.4 22 11.4 25.4 9.4 C27.4 8.3 27.9 6.8 28.4 5.3 C29.8 1.1 30.9 -1.2 33.6 1.7 C34.3 2.6 35.1 3.3 35.7 4.1 z" id="o1" fill="#4B5966" /></g></g></g></g><g transform="translate(169.8, 217.3) scale(0.9828326) translate(-169.8, -217.3)" id="p1"><g transform="translate(91.8, 129.6) translate(37, 0)" id="q1"><path d="M39.5 0.5 C71.6 1 81 11.5 80.7 29.8 C80.4 48 79.9 54.8 75.6 61.2 C71.3 67.7 69.9 71.1 66.9 81.2 C63.9 91.3 54.7 90.8 41.1 91.1 C27.5 91.5 15.5 87 14.4 80 C13.3 73 9.6 67.3 4.7 60.5 C-0.2 53.7 0.4 34.9 0.3 24.2 C0.2 13.4 7.5 0 39.5 0.5 z" id="r1" fill="#4B5966" /><path d="M28.3 90.7 C31.6 92.4 34.5 93.3 36.9 93.4 C40.6 93.6 48.1 93.4 51 92.1 C53 91.2 54.4 90.8 55.2 90.8 C51.5 87.9 49 86.4 47.7 86.2 C45.8 86 40.4 83.9 38.7 85.1 C36.9 86.3 32.9 87 32 87.8 C31.3 88.3 30.2 89.2 28.3 90.7 z" id="s1" fill="#332920" /><path d="M54.7 90.5 C54.8 90.6 54.9 90.7 55.1 90.8 C54.3 90.8 52.9 91.2 50.9 92.1 C48 93.4 40.5 93.6 36.8 93.4 C34.4 93.3 31.5 92.4 28.2 90.7 C28.5 90.5 28.7 90.3 29 90.1 C21 88.4 15.2 84.8 14.5 80.1 C13.4 73.1 9.7 67.4 4.8 60.6 C-0.1 53.8 0.5 34.9 0.4 24.2 C0.3 13.5 7.5 0 39.5 0.5 C71.6 1 81 11.5 80.7 29.8 C80.4 48 79.9 54.8 75.6 61.2 C71.3 67.7 69.9 71.1 66.9 81.2 C65.1 87.4 60.9 89.7 54.7 90.5 z M54 87.2 C59.9 86.4 63.8 84.2 65.6 78.4 C68.5 68.9 69.8 65.6 73.9 59.4 C78 53.2 78.5 46.8 78.8 29.5 C79 12 70.1 2 39.5 1.6 C9.1 1.1 2.2 13.8 2.3 24.1 C2.4 34.3 1.7 52.3 6.4 58.7 C11.1 65.1 14.7 70.6 15.6 77.3 C16.3 81.9 21.9 85.3 29.4 86.8 C29.2 87 28.9 87.2 28.7 87.4 C31.8 89 34.6 89.9 36.9 90 C40.4 90.2 47.6 90 50.3 88.8 C52.2 87.9 53.5 87.6 54.3 87.6 C54.2 87.4 54.1 87.3 54 87.2 z" opacity="0.15" id="t1" /></g><g transform="translate(93.6, 111.5) translate(21, 2)" id="u1"><g transform="translate(18.02073, 23.28844) scale(-1, 1) rotate(-6, 0, 0) translate(-18.02073, -23.28844) translate(2.520727, 1.788439)" id="v1"><path d="M1.7 25.8 C-1.9 23.8 -2.7 23.7 -1.4 20.5 C-0.1 17.3 2.4 17.8 5 15.3 C7.6 12.8 13.5 8.6 17.4 6.7 C21.3 4.8 23.7 2.5 25.7 4.7 C27.7 6.9 29.1 12.8 28 18.9 C26.9 25 23.5 30.4 23.1 33.3 C22.7 36.2 21.9 40.6 20.2 42.9 C19.7 43.6 18.2 45.3 17.3 45.8 C15.4 46.7 14 44.9 12.6 41.3 C12.3 40.4 10.5 34.3 8.6 32.4 C6.3 29.9 5.4 27.8 1.7 25.8 z" id="w1" fill="#293C49" /><path d="M1.7 25.8 C-1.9 23.8 -2.7 23.7 -1.4 20.5 C-0.1 17.3 2.4 17.8 5 15.3 C7.6 12.8 13.5 8.6 17.4 6.7 C21.3 4.8 23.7 2.5 25.7 4.7 C27.7 6.9 29.1 12.8 28 18.9 C26.9 25 23.5 30.4 23.1 33.3 C22.7 36.2 21.9 40.6 20.2 42.9 C19.7 43.6 18.2 45.3 17.3 45.8 C15.4 46.7 14 44.9 12.6 41.3 C12.3 40.4 10.5 34.3 8.6 32.4 C6.3 29.9 5.4 27.8 1.7 25.8 z M3.9 24.6 C7.2 26.4 8 28.3 10 30.5 C11.7 32.2 13.3 37.7 13.6 38.5 C14.8 41.7 16.1 43.4 17.8 42.5 C18.6 42.1 19.9 40.5 20.4 39.9 C21.9 37.8 22.6 33.9 23 31.3 C23.4 28.7 26.4 23.8 27.4 18.3 C28.4 12.8 27.1 7.5 25.4 5.5 C23.6 3.5 21.5 5.6 18 7.3 C14.5 9 9.3 12.8 6.9 15 C4.5 17.2 2.4 16.8 1.2 19.7 C0 22.6 0.7 22.8 3.9 24.6 z" opacity="0.15" id="x1" /><path d="M5.7 24.6 C3.7 23.6 2.3 23 3.3 20.4 C3.9 18.9 7.5 16.8 10.9 14.2 C13.3 12.3 16.2 10.3 18 9.3 C20.6 7.8 21.8 6.3 23.5 7.6 C25.1 8.9 26.5 14.5 25.7 19.2 C24.9 24 20 35.8 18.7 37.6 C17.4 39.4 16.1 42.4 14.5 38.2 C12.9 34 12.6 31.4 10.9 29.6 C9.2 27.8 7.7 25.6 5.7 24.6 z" id="y1" fill="#4B5966" /><path d="M8.2 26.4 C8.3 25.4 9.1 23.7 9.3 23.3 C9.6 22.7 12.3 21.1 14.6 19.7 C15.6 19 18.6 17.4 18.6 17.4 C20.2 16.5 20.1 19.9 18.6 22.6 C17.7 24.2 15.1 29.9 13.3 31.6 C12.7 32.2 12.2 31.1 11 29.5 C9.9 28.1 8.1 26.8 8.2 26.4 z" opacity="0.5" id="z1" fill="#293C49" /></g></g><g transform="translate(98.59998, 110.5) translate(100.9, 24.5) scale(-1, 1) translate(-100.9, -24.5) translate(82.40002, 0)" id="a2"><g transform="translate(18.19189, 24.4854) scale(-1, 1) rotate(-7, 0, 0) translate(-18.19189, -24.4854) translate(2.691893, 2.485396)" id="b2"><path d="M5.4 26.9 C1.8 24.9 1 24.8 2.3 21.6 C3.6 18.4 6.1 18.9 8.7 16.4 C11.3 13.9 17.2 9.7 21.1 7.8 C25 5.9 27.4 3.6 29.4 5.8 C31.4 8 32.8 14 31.7 20.1 C30.7 26.2 27.1 31.6 26.8 34.5 C26.4 37.4 25.6 41.8 23.9 44.1 C23.4 44.8 21.9 46.5 21 47 C19.1 47.9 18.5 47.3 17.1 43.7 C16.8 42.8 17 42 16.7 41.2 C15.3 37.5 14.2 35.4 12.3 33.5 C9.9 31.1 9 29 5.4 26.9 z" id="c2" fill="#293C49" /><path d="M5.4 26.9 C1.8 24.9 1 24.8 2.3 21.6 C3.6 18.4 6.1 18.9 8.7 16.4 C11.3 13.9 17.2 9.7 21.1 7.8 C25 5.9 27.4 3.6 29.4 5.8 C31.4 8 32.8 14 31.7 20.1 C30.7 26.2 27.1 31.6 26.8 34.5 C26.4 37.4 25.6 41.8 23.9 44.1 C23.4 44.8 21.9 46.5 21 47 C19.1 47.9 18.5 47.3 17.1 43.7 C16.8 42.8 17 42 16.7 41.2 C15.3 37.5 14.2 35.4 12.3 33.5 C9.9 31.1 9 29 5.4 26.9 z M7.1 25.9 C10.4 27.8 11.2 29.8 13.4 32 C15.1 33.8 16.2 35.7 17.4 39.1 C17.7 39.8 17.5 40.6 17.8 41.4 C19.1 44.7 19.6 45.3 21.4 44.4 C22.2 43.9 23.6 42.4 24.1 41.7 C25.7 39.6 26.4 35.5 26.8 32.8 C27.1 30.1 30.4 25.1 31.3 19.5 C32.3 13.9 31 8.3 29.2 6.3 C27.4 4.3 25.2 6.4 21.6 8.1 C18 9.8 12.6 13.7 10.2 16 C7.8 18.3 5.5 17.8 4.3 20.8 C3.1 23.8 3.8 24.1 7.1 25.9 z" opacity="0.15" id="d2" /><path d="M9.4 25.7 C7.4 24.7 6 24.1 7 21.5 C7.6 20 11.2 17.9 14.6 15.3 C17 13.4 19.9 11.4 21.7 10.4 C24.3 8.9 25.5 7.4 27.2 8.7 C28.8 10 30.2 15.6 29.4 20.3 C28.6 25.1 23.7 36.9 22.4 38.7 C21.1 40.5 19.8 43.5 18.2 39.3 C16.6 35.1 16.3 32.5 14.6 30.7 C12.9 29 11.4 26.8 9.4 25.7 z" id="e2" fill="#4B5966" /><path d="M11.5 26.9 C11.6 25.9 12.8 24.9 13 24.5 C13.3 23.9 16 22.3 18.3 20.9 C19.3 20.2 22.3 18.6 22.3 18.6 C23.9 17.7 23.8 21.1 22.3 23.8 C21.4 25.4 18.8 31.1 17 32.8 C15.8 33.9 14.9 30.4 14.4 30.5 C13.3 28.9 11.4 27.8 11.5 26.9 z" opacity="0.5" id="f2" fill="#293C49" /></g></g><g id="g2"><g transform="translate(107.4, 122.9) translate(35, 23)" id="h2"><g id="i2"><path d="M37.5 66.1 C35.6 63 34.6 61.1 27.5 61.1 C20.4 61.1 20.5 63 18.5 66.1 C17.8 67.2 15.4 69 14.6 70.5 C19.1 72.1 21.5 73.3 27.3 73.2 C32.7 73.1 36.4 72 41.2 70.1 C40.1 68.4 38.1 67.1 37.5 66.1 z" id="j2" fill="#EDEEEE" /><path d="M50.6 46 C45.1 33.7 39 30 27.5 30 C16 30 9.9 33.8 4.4 46 C0.2 55.4 -0.9 65.6 0.8 68.7 C4 74.4 13 76.5 15.7 71.9 C16.6 70.4 17.2 68.7 17.7 67.1 C18.1 66.7 18.4 66.3 18.5 66.1 C20.4 63 20.4 61.1 27.5 61.1 C33.2 61.1 34.9 62.3 36.4 64.4 C37.3 66.8 37.9 69.5 39.3 71.9 C42 76.5 50.9 74.4 54.2 68.7 C55.9 65.6 54.8 55.4 50.6 46 z" id="k2" fill="#C9C9C9" /><path d="M15.4 26.9 C20.4 24.7 22.2 21.1 24.1 16.1 C24.7 19.5 25.4 23.5 24.7 25.3 C22.9 29.9 18.8 29.5 16 31.5 C13.3 33.5 11.4 36.2 9.8 39.2 C9.7 38.7 8.8 39 8.3 39.6 C7.9 34.7 10.9 28.9 15.4 26.9 z" id="l2" fill="#C9C9C9" /><path d="M39.6 26.9 C34.6 24.7 32.8 21.1 30.9 16.1 C30.3 19.5 29.6 23.5 30.3 25.3 C32.1 29.9 36.2 29.5 39 31.5 C41.7 33.5 43.6 36.2 45.2 39.2 C45.3 38.7 46.2 39 46.7 39.6 C47.1 34.7 44.1 28.9 39.6 26.9 z" id="m2" fill="#C9C9C9" /><path d="M38 30 C34.3 27.5 31.9 27.9 30.9 25 C30.1 22.7 31.4 10.7 31.5 8.9 C32.3 0 27.5 0.5 27.5 0.5 C27.5 0.5 22.7 0 23.5 8.9 C23.7 10.7 24.9 22.8 24.1 25 C23.1 27.9 20.7 27.4 17 30 C13.8 32.2 10.7 34.8 9.6 37.9 C12.1 36.9 13.1 35.2 16.4 33.5 C19.3 32 21.6 30.6 27.6 30.6 C33.6 30.6 35.9 32 38.8 33.5 C42.1 35.2 43.1 36.9 45.6 37.9 C44.4 34.8 41.3 32.2 38 30 z" id="n2" fill="#EDEEEE" /><path d="M15.4 26.9 C20.4 24.7 22.2 21.1 24.1 16.1 C24.1 16.2 24.1 16.3 24.1 16.4 C23.9 13 23.6 9.8 23.5 8.9 C22.7 0 27.5 0.5 27.5 0.5 C27.5 0.5 32.3 0 31.5 8.9 C31.5 9.7 31.1 12.8 30.9 16.1 C32.8 21.1 34.6 24.7 39.6 26.9 C43.9 28.8 46.8 34.2 46.7 38.9 C48.1 40.9 49.4 43.2 50.6 46 C54.8 55.4 55.9 65.6 54.2 68.7 C50.9 74.4 42 76.5 39.3 71.9 C39.1 71.6 39 71.3 38.8 71 C35.1 72.3 31.8 73.1 27.3 73.2 C22.2 73.3 19.7 72.4 16.2 71.1 C16 71.3 15.9 71.6 15.7 71.9 C13 76.5 4 74.4 0.8 68.7 C-0.9 65.6 0.2 55.4 4.4 46 C5.6 43.2 6.9 40.9 8.3 39 C8.2 34.2 11.1 28.8 15.4 26.9 z M16 27.3 C12 29.1 9.2 34.3 9.3 38.9 C8 40.8 6.8 43 5.6 45.7 C1.7 54.8 0.6 64.6 2.2 67.6 C5.3 73.1 13.8 75.1 16.3 70.7 C16.5 70.4 16.7 70.1 16.8 69.8 C20.2 71.1 22.5 72 27.3 71.9 C31.5 71.8 34.7 71.1 38.2 69.8 C38.4 70.1 38.5 70.4 38.7 70.7 C41.2 75.1 49.6 73.1 52.8 67.6 C54.4 64.6 53.3 54.8 49.4 45.7 C48.2 43 47 40.8 45.7 38.9 C45.8 34.3 43 29.1 39 27.3 C34.2 25.2 32.1 21.4 30.3 16.6 C30.5 13.4 31.1 10.4 31.1 9.6 C31.9 1 27.4 1.1 27.4 1.1 C27.4 1.1 23.2 0.9 24 9.4 C24.1 10.3 24.5 12.7 24.7 16 C24.7 15.9 24 17.8 23.9 17.8 C22.1 22.6 20.8 25.2 16 27.3 z" opacity="0.15" id="o2" /><g transform="translate(8, 44)" id="p2" fill="#282421"><path d="M10.1 5.3 C9.4 4.9 8.4 5.5 8.3 6.4 C8.3 7.2 9.3 7.9 10 7.5 C10.7 7.1 10.9 6 10.2 5.5" id="q2" /><path d="M5.6 0.9 C4.9 0.5 3.9 1.1 3.8 2 C3.8 2.8 4.8 3.5 5.5 3.1 C6.2 2.7 6.4 1.6 5.7 1.1" id="r2" /><path d="M2.7 7.5 C2 7.1 1 7.7 0.9 8.6 C0.9 9.4 1.9 10.1 2.6 9.7 C3.3 9.3 3.5 8.2 2.8 7.7" id="s2" /><path d="M28.9 5.3 C29.6 4.9 30.6 5.5 30.7 6.4 C30.7 7.2 29.7 7.9 29 7.5 C28.3 7.1 28.1 6 28.8 5.5" id="t2" /><path d="M33.4 0.9 C34.1 0.5 35.1 1.1 35.2 2 C35.2 2.8 34.2 3.5 33.5 3.1 C32.8 2.7 32.6 1.6 33.3 1.1" id="u2" /><path d="M36.3 7.5 C37 7.1 38 7.7 38.1 8.6 C38.1 9.4 37.1 10.1 36.4 9.7 C35.7 9.3 35.5 8.2 36.2 7.7" id="v2" /></g></g></g><g transform="translate(169.9, 203.3) scale(2) translate(-169.9, -203.3) translate(102.9, 117.5) translate(58, 77)" id="w2"><g id="x2"><path d="M9.1 8.1 C9.1 8.1 5.5 10.3 3.5 11.1 C4.6 12 6.9 13.1 9.1 13.1 C11.3 13.1 13.5 12 14.7 11.1 C12.7 10.2 9.1 8.1 9.1 8.1 z" id="y2" fill="#CE5253" /><path d="M18.5 13.8 C18.5 13.8 18.4 13.7 18.2 13.4 C18 13.2 17.7 12.8 17.4 12.5 C16.7 11.7 15.7 10.8 14.5 10 C13.4 9.2 12.1 8.4 11.1 8 C10.8 7.9 10.6 7.8 10.4 7.7 C10.3 7.7 10.2 7.7 10.1 7.6 L10.1 1.9 C10.1 1.3 9.7 0.9 9.1 0.9 C8.5 0.9 8.1 1.3 8.1 1.9 L8.1 7.6 C8 7.6 7.9 7.7 7.9 7.7 C7.7 7.8 7.4 7.9 7.2 8 C6.2 8.5 5 9.2 4 10 C2.9 10.8 2 11.8 1.4 12.6 C1.1 13 0.8 13.3 0.7 13.5 C0.5 13.7 0.4 13.9 0.4 13.9 C0.3 14.1 0.3 14.4 0.4 14.6 C0.6 14.8 0.9 14.8 1.1 14.6 C1.1 14.6 1.2 14.5 1.4 14.3 C1.6 14.1 1.9 13.9 2.3 13.6 C3 13 4 12.3 5.1 11.7 C6.2 11.1 7.3 10.7 8.1 10.5 C8.3 10.5 8.5 10.4 8.6 10.4 C8.6 10.4 8.6 10.4 8.7 10.4 C8.8 10.5 9 10.5 9.2 10.5 C9.4 10.5 9.5 10.4 9.7 10.4 L9.8 10.4 C10 10.4 10.2 10.5 10.4 10.5 C11.3 10.7 12.5 11.1 13.6 11.7 C14.8 12.3 15.8 13 16.6 13.5 C17 13.8 17.3 14 17.5 14.2 C17.7 14.4 17.9 14.5 17.9 14.5 C18.1 14.7 18.4 14.7 18.6 14.5 C18.7 14.3 18.7 14 18.5 13.8 z" id="z2" fill="#282523" /></g></g><g transform="translate(108.3, 110.6) translate(50, 68)" id="a3"><g id="b3"><path d="M10.5 0.5 C14.7 0.5 20.6 1.4 20.7 4.9 C20.8 8.4 20.2 12.6 16 15 C11.8 17.4 7.7 17 4.1 14 C0.9 10.3 0.6 8.5 0.6 5 C0.6 1.5 6.1 0.5 10.5 0.5 z" id="c3" fill="#424242" /><path d="M4.6 2.8 C4.6 4 8.1 4.4 10.6 4.5 C13.1 4.6 15.3 4.3 16.7 3.7 C18.1 3.2 18.6 1.5 13 1.5 C7.5 1.5 4.6 1.6 4.6 2.8 z" id="d3" fill="#FFF" /></g></g><g transform="translate(149.8, 166.5999) scale(1.2) translate(-149.8, -166.5999) translate(104, 131.2) translate(28, 21)" id="e3"><g id="f3"><path d="M6.7 17.4 C6.7 13.9 13.4 9.9 16.6 8.5 C19.8 7.1 25.4 8 26.2 9.7 C27 11.5 27 15.4 25.6 17.9 C24.6 19.6 20.1 23.8 16.6 25.6 C11 28.4 6.6 24.1 6.7 17.4 z" id="g3" fill="#293C49" /><ellipse cx="19" cy="14.4" rx="5.3" ry="4.4" id="h3" fill="#EDEEEF" /><ellipse cx="19.6" cy="14.4" rx="4.2" ry="3.5" id="i3" fill="#282421" /><path d="M7.8 11.9 C5.5 11.7 3.2 11.5 0.9 11.4 C1.5 9.3 3 7.5 4.9 6.6 C6.8 5.7 9.1 5.7 11 6.7 C9.1 5.2 7.2 3.8 5.2 2.3 C9.6 0.6 14.1 0.2 17.7 3.5 C16.9 1.9 16.9 1.9 16.1 0.4 C20 0.9 25.7 4.9 26.4 11.2 C22.8 8.6 18.8 8.9 15 10.3 C11.2 11.7 7.7 14.8 5.9 18.6 C5.7 17 6.3 12.6 7.8 11.9 z" id="j3" fill="#EDEEEF" /><path d="M7.8 11.9 C5.5 11.7 3.2 11.5 0.9 11.4 C1.5 9.3 3 7.5 4.9 6.6 C6.8 5.7 9.1 5.7 11 6.7 C9.1 5.2 7.2 3.8 5.2 2.3 C9.6 0.6 14.1 0.2 17.7 3.5 C16.9 1.9 16.9 1.9 16.1 0.4 C20 0.9 25.7 4.9 26.4 11.2 C22.8 8.6 18.8 8.9 15 10.3 C11.2 11.7 7.7 14.8 5.9 18.6 C5.7 17 6.3 12.6 7.8 11.9 z M9.4 11.4 C8.2 12 6.8 13.7 7 15.1 C8.9 12.7 10.8 10.2 14.1 9 C17.4 7.8 21.3 6.4 24.4 8.7 C23.8 3.3 20.2 2.4 17.1 1.5 C17.8 2.8 18 3.4 18.7 4.8 C15.6 2 10.3 1 6.5 2.5 C8.2 3.8 11.2 6.1 12.4 7.7 C10.4 7.1 10 6.6 7.6 6.6 C5.2 6.6 2.6 8.6 2.1 10.4 C4 10.5 7.5 11.2 9.4 11.4 z" opacity="0.15" id="k3" /><ellipse cx="18.6" cy="12.6" rx="1.2" ry="1.1" id="l3" fill="#FFF" /></g></g><g transform="translate(190, 166.5999) scale(1.2) translate(-190, -166.5999) translate(118.6, 131.2) translate(64, 21)" id="m3"><g id="n3"><path d="M20.3 17.4 C20.3 13.9 13.6 9.9 10.4 8.5 C7.2 7.1 1.6 8 0.8 9.7 C0 11.5 0 15.4 1.4 17.9 C2.4 19.6 6.9 23.8 10.4 25.6 C16 28.4 20.4 24.1 20.3 17.4 z" id="o3" fill="#293C49" /><ellipse cx="8" cy="14.4" rx="5.3" ry="4.4" id="p3" fill="#EDEEEF" /><ellipse cx="7.4" cy="14.4" rx="4.2" ry="3.5" id="q3" fill="#282421" /><path d="M19.2 11.9 C21.5 11.7 23.8 11.5 26.1 11.4 C25.5 9.3 24 7.5 22.1 6.6 C20.2 5.7 17.9 5.7 16 6.7 C17.9 5.2 19.8 3.8 21.8 2.3 C17.4 0.6 12.9 0.2 9.3 3.5 C10.1 1.9 10.1 1.9 10.9 0.4 C7 0.9 1.3 4.9 0.6 11.2 C4.2 8.6 8.2 8.9 12 10.3 C15.8 11.7 19.3 14.8 21.1 18.6 C21.3 17 20.7 12.6 19.2 11.9 z" id="r3" fill="#EDEEEF" /><path d="M19.2 11.9 C21.5 11.7 23.8 11.5 26.1 11.4 C25.5 9.3 24 7.5 22.1 6.6 C20.2 5.7 17.9 5.7 16 6.7 C17.9 5.2 19.8 3.8 21.8 2.3 C17.4 0.6 12.9 0.2 9.3 3.5 C10.1 1.9 10.1 1.9 10.9 0.4 C7 0.9 1.3 4.9 0.6 11.2 C4.2 8.6 8.2 8.9 12 10.3 C15.8 11.7 19.3 14.8 21.1 18.6 C21.3 17 20.7 12.6 19.2 11.9 z M17.6 11.4 C18.9 12 20.2 13.8 20.1 15.1 C18.2 12.7 16.3 10.2 13 9 C9.7 7.8 5.7 6.4 2.6 8.6 C3.2 3.2 6.8 2.3 10 1.4 C9.3 2.7 9.1 3.3 8.4 4.6 C11.5 1.8 16.8 0.8 20.6 2.3 C18.9 3.6 15.9 5.9 14.7 7.5 C16.6 7.1 17 6.6 19.4 6.6 C21.8 6.6 24.4 8.6 24.9 10.4 C23 10.5 19.5 11.2 17.6 11.4 z" opacity="0.15" id="s3" /><ellipse cx="6.4" cy="12.6" rx="1.2" ry="1.1" id="t3" fill="#FFF" /></g></g></g></g></g></g><defs><g transform="translate(17.09519, 0.800995) translate(-135.2952, -293.601)" id="u3" fill="#000"><path d="M118.2 302.7 C118.4 307.4 132.5 311.2 149.8 311.2 C167.1 311.2 181.2 307.4 181.4 302.7 C181.4 307.5 181.4 310.1 181.4 310.5 C181.4 315.3 167.3 319.1 149.8 319.1 C132.3 319.1 118.2 315.2 118.2 310.5 L118.2 302.7 L118.2 302.7 z" fill-opacity="0.4528" id="v3" fill="#593001" /><path d="M118.7 301.7 C118.9 306.4 133 310.2 150.3 310.2 C167.6 310.2 181.7 306.4 181.9 301.7 C181.9 306.5 181.9 309.1 181.9 309.5 C181.9 314.3 167.8 318.1 150.3 318.1 C132.8 318.1 118.7 314.2 118.7 309.5 L118.7 301.7 L118.7 301.7 z" id="w3" fill="#DA8113" /><linearGradient x1="46.0545" y1="-118.6926" x2="45.4656" y2="-118.6926" gradientUnits="userSpaceOnUse" gradientTransform="matrix(117.135, 0, 0, 28.4634, -5208.417, 3687.795)" id="x3"><stop offset="0%" stop-color="#D9952A" stop-opacity="1" /><stop offset="6.438854%" stop-color="#CA7519" stop-opacity="1" /><stop offset="30.54%" stop-color="#E3AD3A" stop-opacity="1" /><stop offset="51.05%" stop-color="#FFEC91" stop-opacity="1" /><stop offset="68.8%" stop-color="#E9BD44" stop-opacity="1" /><stop offset="86.24%" stop-color="#FFED6C" stop-opacity="1" /><stop offset="93.87%" stop-color="#F2D353" stop-opacity="1" /><stop offset="100%" stop-color="#F2B947" stop-opacity="1" /></linearGradient><path d="M118.2 301.6 C118.4 306.1 132.7 309.7 150.3 309.7 C167.9 309.7 182.2 306.1 182.4 301.6 C182.4 306.2 182.4 308.7 182.4 309 C182.4 313.5 168 317.2 150.3 317.2 C132.6 317.2 118.2 313.5 118.2 309 L118.2 301.6 L118.2 301.6 z" id="y3" style="fill:url(#x3)" /><linearGradient x1="45.4914" y1="-117.9547" x2="45.9407" y2="-117.5895" gradientUnits="userSpaceOnUse" gradientTransform="matrix(115.425, 0, 0, 29.925, -5125.077, 3826.124)" id="z3"><stop offset="0%" stop-color="#F4E072" stop-opacity="1" /><stop offset="100%" stop-color="#DB9427" stop-opacity="1" /></linearGradient><ellipse cx="150.3" cy="301.5" rx="31.6" ry="8.2" id="a4" style="fill:url(#z3)" /><linearGradient x1="45.4656" y1="-126.0065" x2="46.0545" y2="-126.0065" gradientUnits="userSpaceOnUse" gradientTransform="matrix(117.135, 0, 0, 18.6219, -5208.417, 2651.479)" id="b4"><stop offset="0%" stop-color="#D9952A" stop-opacity="1" /><stop offset="6.438854%" stop-color="#CA7519" stop-opacity="1" /><stop offset="30.54%" stop-color="#E3AD3A" stop-opacity="1" /><stop offset="51.05%" stop-color="#FFEC91" stop-opacity="1" /><stop offset="68.8%" stop-color="#E9BD44" stop-opacity="1" /><stop offset="86.24%" stop-color="#FFED6C" stop-opacity="1" /><stop offset="93.87%" stop-color="#F2D353" stop-opacity="1" /><stop offset="100%" stop-color="#F2B947" stop-opacity="1" /></linearGradient><path d="M119.2 299.9 C119 300.2 118.9 300.6 118.9 301 C118.9 305.5 132.9 309.2 150.3 309.2 C167.7 309.2 181.7 305.5 181.7 301 C181.7 300.6 181.6 300.3 181.4 299.9 C182 300.5 182.4 301.2 182.4 301.9 C182.4 306.4 168 310.1 150.3 310.1 C132.6 310.1 118.2 306.4 118.2 301.9 C118.2 301.3 118.6 300.6 119.2 299.9 z" id="c4" style="fill:url(#b4)" /><linearGradient x1="45.196" y1="-121.5895" x2="45.3746" y2="-120.6758" gradientUnits="userSpaceOnUse" gradientTransform="matrix(101.745, 0, 0, 23.94, -4458.332, 3199.41)" id="d4"><stop offset="0%" stop-color="#F8DD61" stop-opacity="1" /><stop offset="100%" stop-color="#EAA330" stop-opacity="1" /></linearGradient><ellipse cx="150.3" cy="300.8" rx="27.8" ry="6.6" id="e4" style="fill:url(#d4)" /><linearGradient x1="45.5694" y1="-134.267" x2="45.0221" y2="-134.267" gradientUnits="userSpaceOnUse" gradientTransform="matrix(101.745, 0, 0, 13.2525, -4458.332, 2077.223)" id="f4"><stop offset="0%" stop-color="#F4CA2F" stop-opacity="1" /><stop offset="51.38%" stop-color="#BF7737" stop-opacity="1" /><stop offset="100%" stop-color="#E4A929" stop-opacity="1" /></linearGradient><path d="M122.6 301.5 C122.5 301.3 122.4 301 122.4 300.8 C122.4 297.2 134.9 294.2 150.2 294.2 C165.5 294.2 178 297.1 178 300.8 C178 301 177.9 301.3 177.8 301.5 C176.3 298.2 164.5 295.6 150.1 295.6 C135.7 295.6 124.1 298.2 122.6 301.5 z" id="g4" style="fill:url(#f4)" /></g></defs><desc>OBDI6EGDOCC,9EaWWGSf9mhQodhF28JVAsgiv7tJYLzRwgQON7msusxE33tqXnjYSzLVMOole7FC1Z/F1VFuW1CZHrhPJ+wUsQ==</desc></svg>