<?xml version="1.0" encoding="utf-8"?><!DOCTYPE svg PUBLIC "-//W3C//DTD SVG 1.1//EN" "http://www.w3.org/Graphics/SVG/1.1/DTD/svg11.dtd"><svg x="0" y="0" width="340px" height="340px" viewBox="0, 0, 340, 340" preserveAspectRatio="xMidYMid" font-size="0" id="a" enable-background="new 0 0 340 340" xmlns="http://www.w3.org/2000/svg" xmlns:xlink="http://www.w3.org/1999/xlink" xmlns:xml="http://www.w3.org/XML/1998/namespace" version="1.1"><g id="b" fill="#000"><g id="c"><g transform="translate(0, 0) translate(0, 224)" id="d"><ellipse cx="168.6" cy="53.1" rx="57.8" ry="12.8" fill-opacity="0.25" id="e" /></g><g id="f"><g transform="translate(104.4, 106.3) translate(29.5, 119) scale(-1, 1) translate(-29.5, -119) translate(14, 94)" id="g"><g id="h"><path d="M24.2 36 C32.3 26.9 31.1 10.9 25.6 0.7 C24.4 14 20.9 23.8 15.4 29.2 C7 36.4 -1.8 43.5 1.8 47.8 C5.8 52.6 16.2 43.7 24.2 36 z" id="i" fill="#232733" /><path d="M24.2 36 C16.2 43.7 5.8 52.6 1.8 47.8 C-1.8 43.5 7 36.4 15.4 29.2 C20.9 23.8 24.4 14 25.6 0.7 C31.1 10.9 32.3 26.9 24.2 36 z M22 36 C29.3 27.8 31.1 13 26.2 3.9 C25.1 15.8 20.3 25.3 15.4 30.2 C7.9 36.6 1 41.6 4.2 45.4 C7.8 49.7 14.9 42.9 22 36 z" opacity="0.15" id="j" /></g></g><g transform="translate(122.5, 274.9) scale(1.209386) translate(-122.5, -274.9) translate(97.00001, 89.69997) translate(17, 134)" id="k"><path d="M3.2 22.3 C1.8 20.2 0.9 17.9 0.7 15.3 C0.2 8.8 5.5 2.5 11.9 1.2 C18.3 -0.1 25.2 2.9 29.1 8.2 C32.2 12.3 32.5 17.4 32.6 22.6 C32.6 24 5.5 25.8 3.2 22.3 z" id="l" fill="#171B24" /><path d="M12.6 31.2 C9 28.7 5.3 25.7 3 22 C4.3 21.1 5.9 20.5 7.6 20.1 C15.5 18 28 20.5 32.5 22.2 C32.5 23.8 32.6 25.4 32.6 26.9 C32.7 29.8 36 37.8 36 37.8 C34.6 41.9 31.1 44.9 27.7 47.7 C27.3 48 26.9 48.3 26.5 48.7 C23.3 51.4 24.3 54.8 19.2 54.5 C15 54.3 9.2 55.3 5.3 53.7 C2 49.3 5.1 40.6 11.7 40.2 C16.6 39.9 19.1 39.2 18 36.8 C16.9 34.4 14.8 32.7 12.6 31.2 z" id="m" fill="#0E1116" /><path d="M3 22 C1.7 20 0.9 17.8 0.7 15.3 C0.2 8.8 5.5 2.5 11.9 1.2 C18.3 -0.1 25.2 2.9 29.1 8.2 C32.2 12.3 32.5 17.4 32.6 22.6 C32.6 22.6 32.6 22.7 32.5 22.7 C32.5 24.1 32.6 25.5 32.6 26.9 C32.7 29.8 36 37.8 36 37.8 C34.6 41.9 31.1 44.9 27.7 47.7 C27.3 48 26.9 48.3 26.5 48.7 C23.3 51.4 24.3 54.8 19.2 54.5 C15 54.3 9.2 55.3 5.3 53.7 C2 49.3 5.1 40.6 11.7 40.2 C16.6 39.9 19.1 39.2 18 36.8 C16.9 34.4 14.8 32.7 12.6 31.2 C9 28.7 5.3 25.7 3 22 L3 22 z M1.7 15 C1.9 17.3 2.7 19.4 3.9 21.3 C6.1 24.8 9.6 27.6 12.9 30 C15 31.4 18.1 34 19.1 36.2 C20.1 38.4 18.8 41 14.2 41.3 C8 41.7 3.9 46.6 7 50.8 C10.7 52.3 15.2 51.8 19.1 52 C24 52.2 23 49 26 46.5 C26.4 46.1 26.8 45.8 27.1 45.6 C30.3 43 32 41 33.3 37.1 C33.3 37.1 31.8 28.7 31.7 26 C31.7 24.7 31.6 23.4 31.6 22.1 C31.7 22.1 31.7 22 31.7 22 C31.6 17.1 31.3 12.3 28.4 8.4 C24.7 3.4 18.2 0.6 12.2 1.8 C6.2 3 1.2 8.9 1.7 15 z" opacity="0.15" id="n" /></g><g transform="translate(210.8, 274.9) scale(1.209386) translate(-210.8, -274.9) translate(104.8, 89.69997) translate(83, 134)" id="o"><path d="M25.6 26.1 C30.2 22 32.1 22.1 32.6 15.3 C33.1 8.8 27.8 2.5 21.4 1.2 C15 -0.2 8.1 2.9 4.2 8.2 C0.3 13.5 0.2 20.6 1.3 26.8 C1.7 29.6 23.6 27.9 25.6 26.1 z" id="p" fill="#171B24" /><path d="M20.6 31.2 C24.2 28.7 27.9 25.7 30.2 22 C28.9 21.1 27.3 20.5 25.6 20.1 C17.7 18 5.2 20.5 0.7 22.2 C0.7 23.8 2.1 45 5.4 47.7 C5.8 48 6.2 48.3 6.6 48.7 C9.8 51.4 8.8 54.8 13.9 54.5 C18.1 54.3 23.9 55.3 27.8 53.7 C31.1 49.3 28 40.6 21.4 40.2 C16.5 39.9 14 39.2 15.1 36.8 C16.2 34.4 18.5 32.7 20.6 31.2 z" id="q" fill="#0E1116" /><path d="M0.7 22.2 C0.4 17.3 1.2 12.2 4.2 8.2 C8.1 2.9 15 -0.2 21.4 1.2 C27.8 2.5 33.1 8.8 32.6 15.3 C32.3 19.4 31.5 21 29.9 22.5 C27.6 26 24.1 28.8 20.6 31.2 C18.5 32.7 16.2 34.4 15.1 36.8 C14 39.2 16.5 39.9 21.4 40.2 C28 40.6 31.1 49.3 27.8 53.7 C23.9 55.3 18.1 54.3 13.9 54.5 C8.8 54.8 9.8 51.4 6.6 48.7 C6.2 48.3 5.8 48 5.4 47.7 C2.1 45 0.7 23.8 0.7 22.2 C0.7 22.2 0.7 22.2 0.7 22.2 z M4.8 8.2 C2 12 1.3 16.8 1.5 21.5 C1.5 23 3.4 42.5 6.5 45.1 C6.9 45.4 7.5 46.6 7.9 47 C10.9 49.6 9.2 52.5 14 52.2 C18 52 23.5 53 27.2 51.4 C30.3 47.2 26.2 42 19.9 41.6 C15.3 41.3 12.6 39.3 13.6 37 C14.6 34.7 18.3 31.5 20.3 30.1 C23.5 27.8 26.9 25.2 29.1 21.9 C30.6 20.5 31.4 18.9 31.7 15 C32.2 8.8 27.1 2.9 21.1 1.6 C15.1 0.2 8.5 3.2 4.8 8.2 z" opacity="0.15" id="r" /></g><g transform="translate(91.30001, 75.89998) translate(31, 73)" id="s"><path d="M22.9 13.8 C30.8 10 27.6 0.4 45.8 0.4 C64 0.4 60.8 10.8 68.8 13.3 C77.6 16.1 79.3 26.3 81.2 30.8 C97 63.7 72.1 126.8 68.8 129.6 C65.9 131.5 60.5 132 58.5 132 C55.3 132 52.8 131.1 51.6 131 C48.9 130.8 47.7 129.6 46 129.6 C44.1 129.6 41.9 130.8 38.4 131 C36.8 131.1 33.1 132 28.8 132 C26.9 132 23.5 130.5 20.9 127.6 C18.7 124.7 0.2 64.8 8.3 34.4 C9.4 30.9 13 18.6 22.9 13.8 z" id="t" fill="#665F57" /><path d="M22.9 13.8 C30.8 10 27.6 0.4 45.8 0.4 C64 0.4 60.8 10.8 68.8 13.3 C77.6 16.1 79.3 26.3 81.2 30.8 C97 63.7 72.1 126.8 68.8 129.6 C65.9 131.5 60.5 132 58.5 132 C55.3 132 52.8 131.1 51.6 131 C48.9 130.8 47.7 129.6 46 129.6 C44.1 129.6 41.9 130.8 38.4 131 C36.8 131.1 33.1 132 28.8 132 C26.9 132 23.5 130.5 20.9 127.6 C18.7 124.7 0.2 64.8 8.3 34.4 C9.4 30.9 13 18.6 22.9 13.8 z M23.7 14.6 C14.1 19.2 10.7 31.1 9.6 34.5 C1.8 63.8 19.6 121.6 21.8 124.4 C24.3 127.2 27.6 128.6 29.4 128.6 C33.5 128.6 37.1 127.7 38.7 127.6 C42.1 127.4 44.2 126.2 46 126.2 C47.6 126.2 48.8 127.4 51.4 127.6 C52.6 127.7 55 128.6 58.1 128.6 C60 128.6 65.2 128.1 68 126.3 C71.2 123.6 95.2 62.7 80 31 C78.2 26.7 76.5 16.8 68 14.1 C60.3 11.7 63.4 1.7 45.8 1.7 C28.2 1.7 31.3 11 23.7 14.6 z" opacity="0.15" id="u" /></g><g transform="translate(124.89, 181.622) scale(1.1, 1.016199) translate(-128.9, -185.2) translate(-286, 63.49998) translate(31, 116)" id="v"><path d="M440.7 20.9 C437.4 27 435.6 30.6 435.4 31.9 C434.9 33.7 434.1 60.9 434.6 71.5 C435.1 82.1 433.5 90 435 93.6 C436.5 97.2 433.3 102.1 437.6 103.8 C441.9 105.5 455.8 106.2 460 105.5 C464.1 104.8 462.3 98.7 461.6 96.7 C460.9 94.8 452.9 96 452.2 91.1 C451.5 86.1 454 75.1 456.7 66.9 C458.5 61.5 459.7 55.4 460.4 48.8 L452.6 16.6 L440.7 20.9 z" id="w" fill="#464854" /><path d="M435 35.9 C435.7 29.7 436.4 25.7 437.3 24.1 C440.6 17.9 445.3 14 446.6 12.5 C449.5 9.5 455.1 6.3 455.9 6 C456.7 5.7 461.5 16.2 462.4 21.9 C463.3 27.6 463.4 43.4 461.5 51.1 C460.2 56.5 459 60.4 457.7 63.6 C456.5 66.7 454.9 70.4 454.3 70.9 C453.8 71.3 453.7 67.4 453.3 68.2 C452 70.2 450.6 71.6 449 72.5 C451.4 67.5 452.9 62.9 453.6 58.7 C454.3 54.6 454.4 48.2 453.9 39.6 C453.3 32.4 452.1 28.3 450.2 27.3 C449 26.7 445.1 27.5 441 30.2 C439.7 31.2 437.7 33 435 35.9 z" id="x" fill="#F2E5D3" /><path d="M457.7 63.6 C457.4 64.7 457.1 65.8 456.7 66.9 C454 75.1 451.5 86.1 452.2 91.1 C452.9 96 460.9 94.8 461.6 96.7 C462.3 98.7 464.1 104.8 460 105.5 C455.8 106.2 441.9 105.5 437.6 103.8 C433.3 102.1 436.5 97.2 435 93.6 C433.5 90 435.1 82.1 434.6 71.5 C434.2 63.1 434.6 44.1 435.1 35.8 C435.1 35.8 435.1 35.9 435 35.9 C435 35.5 435.1 35.1 435.1 34.8 C435.2 33.3 435.3 32.2 435.4 31.9 C435.4 31.7 435.5 31.5 435.6 31.1 C436.1 27.6 436.7 25.2 437.3 24.1 C440.6 17.9 445.3 14 446.6 12.5 C449.5 9.5 455.1 6.3 455.9 6 C456.7 5.7 461.5 16.2 462.4 21.9 C463.3 27.6 463.4 43.4 461.5 51.1 C460.2 56.5 459 60.4 457.7 63.6 z M455.9 65.1 C456.2 64.1 456.5 63 456.8 62 C458 59 459.1 55.3 460.3 50.3 C462 43 461.9 28.1 461.1 22.9 C460.3 17.7 455.9 7.6 455.2 7.9 C454.5 8.2 449.3 11.2 446.7 14 C445.5 15.4 441.2 19.1 438.2 24.9 C437.6 26 437.1 28.2 436.7 31.5 C436.6 31.8 436.5 32 436.5 32.2 C436.4 32.5 436.3 33.5 436.3 34.9 C436.3 35.2 436.2 35.6 436.2 35.9 C435.8 43.7 436.3 61.6 436.7 69.6 C437.2 79.6 434.8 86.8 436.2 90.2 C437.6 93.6 434.6 98.2 438.6 99.8 C442.6 101.4 454.7 102.9 458.5 102.2 C462.2 101.5 461 99.6 460.4 97.7 C459.8 95.9 451.1 97.1 450.5 92.5 C449.7 87.8 453.4 72.8 455.9 65.1 z" opacity="0.15" id="y" /><path d="M406.6 20.9 C409.9 27 411.7 30.6 411.9 31.9 C412.4 33.7 413.2 60.9 412.7 71.5 C412.2 82.1 413.8 90 412.3 93.6 C411.4 95.8 412.8 102.1 411.3 103.6 C408.2 105.8 391.5 105.5 387.8 105.8 C384.1 106.1 384 101.2 384.7 99.3 C385.1 98.2 385.8 97 388.4 95.3 C390.4 94 394.4 94.4 394.8 92.2 C395.5 87.2 393.4 75.1 390.7 66.9 C388.9 61.5 387.7 55.4 387 48.8 L394.7 16.6 L406.6 20.9 z" id="z" fill="#464854" /><path d="M412.3 35.8 C411.6 29.6 410.9 25.6 410 24 C406.7 17.9 402 14 400.7 12.5 C397.8 9.5 392.2 6.3 391.4 6 C390.6 5.7 385.8 16.2 384.9 21.9 C384 27.6 383.9 43.4 385.8 51.1 C387.1 56.5 388.3 60.4 389.6 63.6 C390.8 66.7 392.4 70.4 393 70.9 C393.5 71.3 393.6 67.4 394 68.2 C395.3 70.2 396.7 72.3 398.3 74.4 C395.9 68.1 394.4 62.9 393.7 58.7 C393 54.6 392.9 48.2 393.4 39.6 C394 32.4 395.2 28.3 397.1 27.3 C398.3 26.7 402.2 27.5 406.3 30.2 C407.6 31.1 409.6 33 412.3 35.8 z" id="a1" fill="#F2E5D3" /><path d="M411.7 31.2 C411.8 31.5 411.8 31.7 411.9 31.9 C412 32.2 412.1 33.1 412.2 34.6 C412.2 35 412.3 35.4 412.3 35.8 L412.2 35.7 C412.6 44 413.1 63 412.7 71.5 C412.2 82.1 413.8 90 412.3 93.6 C411.4 95.8 412.8 102.1 411.3 103.6 C408.2 105.8 391.5 105.5 387.8 105.8 C384.1 106.1 384 101.2 384.7 99.3 C385.1 98.2 385.8 97 388.4 95.3 C390.4 94 394.4 94.4 394.8 92.2 C395.5 87.2 393.4 75.1 390.7 66.9 C390.4 66.1 390.2 65.3 390 64.5 C389.9 64.2 389.8 63.9 389.6 63.6 C388.3 60.4 387.1 56.5 385.8 51.1 C383.9 43.3 384 27.5 384.9 21.9 C385.8 16.2 390.6 5.7 391.4 6 C392.2 6.3 397.8 9.5 400.7 12.5 C402 14 406.7 17.9 410 24 C410.7 25.2 411.2 27.6 411.7 31.2 z M410.3 31.1 C409.8 27.7 409.3 25.4 408.7 24.3 C405.7 18.6 401.5 14.9 400.3 13.5 C397.7 10.7 392.6 7.7 391.9 7.4 C391.2 7.1 386.9 17 386 22.3 C385.1 27.6 385.2 42.6 386.9 49.8 C388.1 54.9 391.7 65 391.9 65.7 C394.3 73.4 396.8 89.1 396.2 93.7 C395.8 95.8 393 94.5 390.6 95.5 C388.2 96.5 387.2 97.9 386.9 98.9 C386.3 100.7 385.9 102.5 389.2 102.2 C392.5 101.9 406.8 102.5 409.6 100.4 C411 99 409.9 91.6 410.7 89.5 C412.1 86.1 410.6 78.7 411.1 68.8 C411.5 60.8 411.1 43 410.7 35.3 C410.7 34.9 410.6 34.5 410.6 34.1 C410.5 32.8 410.4 31.9 410.4 31.6 C410.4 31.6 410.3 31.4 410.3 31.1 z" opacity="0.15" id="b1" /></g></g><g transform="translate(168.3, 188) scale(0.7909875) translate(-168.3, -188)" id="c1"><g transform="translate(103.8, 87.79997) translate(11, 4)" id="d1"><path d="M13.1 100.8 C26 110.4 41.7 108.9 54.5 108.5 C69.5 108.1 82.4 109.3 95.6 99.6 C120.5 81.3 107.4 67 105.9 38.5 C104.9 19.5 91.6 8.7 65.8 6 L65.8 0.4 L62.2 6 L59.8 0.4 L59.8 3.7 L51.9 0.4 L53.3 6 C25.5 5.4 10.2 16.9 7.6 40.5 C4.7 66.1 -8.7 84.7 13.1 100.8 z" id="e1" fill="#464854" /><path d="M13.1 100.8 C-8.7 84.7 4.7 66.1 7.6 40.5 C10.2 16.9 25.5 5.4 53.3 6 L51.9 0.4 L59.8 3.7 L59.8 0.4 L62.2 6 L65.9 0.4 L65.9 6.1 C91.7 8.8 105 19.6 106 38.6 C107.5 67.1 120.6 81.4 95.7 99.7 C82.5 109.4 69.6 108.2 54.6 108.6 C41.7 109 26 110.4 13.1 100.8 z M15.3 97.3 C27.5 106.5 42.4 105.1 54.6 104.7 C68.8 104.3 81.1 105.5 93.6 96.2 C117.2 78.7 104.8 65 103.4 37.8 C102.5 19.6 89.9 9.6 65.4 7 L65.5 2.1 L62.2 7.6 L60.2 2.3 L60.5 5.1 L52.4 1.3 L54.3 7 C28 6.4 12.6 17 10.1 39.6 C7.3 64 -5.3 81.9 15.3 97.3 z" opacity="0.15" id="f1" /></g><g transform="translate(131.5, 114.8) rotate(20, 0, 0) scale(0.8) translate(-131.5, -119.8) translate(97.6, 97.09998) translate(0, 10)" id="g1"><path d="M34.2 17.4 C32.8 24.5 33.1 32 35.2 39 C35.9 41.5 36.9 44 37.3 46.6 C38.1 52.1 38.1 63 36.3 67.9 C34.1 73.8 24 75.8 20.3 72.4 C15.9 68.4 14.1 57.3 11 52.3 C6.8 45.5 2.5 38.6 1.2 30.7 C0.3 25.3 1 19.3 4.6 15.2 C7.8 11.5 12.7 9.8 17.4 8.3 C20.3 7.4 37.8 -1 39.6 0.8 C40.6 1.7 34.6 15.3 34.2 17.2 C34.2 17.3 34.2 17.4 34.2 17.4 z" id="h1" fill="#171B24" /><path d="M34.2 17.4 C32.8 24.5 33.1 32 35.2 39 C35.9 41.5 36.9 44 37.3 46.6 C38.1 52.1 38.1 63 36.3 67.9 C34.1 73.8 24 75.8 20.3 72.4 C15.9 68.4 14.1 57.3 11 52.3 C6.8 45.5 2.5 38.6 1.2 30.7 C0.3 25.3 1 19.3 4.6 15.2 C7.8 11.5 12.7 9.8 17.4 8.3 C20.3 7.4 37.8 -1 39.6 0.8 C40.6 1.7 34.6 15.3 34.2 17.2 C34.2 17.3 34.2 17.4 34.2 17.4 z M33.1 36.9 C31.3 30.5 31 23.6 32.2 17 C32.5 15.3 37.7 2.9 36.8 2 C35.3 0.4 20.3 8 17.8 8.8 C13.8 10.2 9.6 11.7 6.8 15.1 C3.7 18.8 3.1 24.3 3.9 29.2 C5 36.5 8.7 42.8 12.3 49 C15 53.6 16.5 63.7 20.3 67.3 C23.5 70.4 32.1 68.6 34 63.2 C35.5 58.7 35.5 48.8 34.9 43.8 C34.5 41.4 33.7 39.1 33.1 36.9 z" opacity="0.15" id="i1" /></g><g transform="translate(207.2, 110.8) rotate(-20, 0, 0) scale(0.8) translate(-207.2, -115.8) translate(107, 93.09998) translate(114, 47.5) scale(-1, 1) translate(-114, -47.5) translate(94, 10)" id="j1"><path d="M34 17.4 C32.6 24.5 32.9 32 35 39 C35.7 41.5 36.7 44 37.1 46.6 C37.9 52.1 37.9 63 36.1 67.9 C33.9 73.8 23.8 75.8 20.1 72.4 C15.7 68.4 13.9 57.3 10.8 52.3 C6.6 45.5 2.3 38.6 1 30.7 C0.1 25.3 0.8 19.3 4.4 15.2 C7.6 11.5 12.5 9.8 17.2 8.3 C20.1 7.4 37.6 -1 39.4 0.8 C40.4 1.7 34.4 15.3 34 17.2 C34 17.3 34 17.4 34 17.4 z" id="k1" fill="#171B24" /><path d="M34 17.4 C32.6 24.5 32.9 32 35 39 C35.7 41.5 36.7 44 37.1 46.6 C37.9 52.1 37.9 63 36.1 67.9 C33.9 73.8 23.8 75.8 20.1 72.4 C15.7 68.4 13.9 57.3 10.8 52.3 C6.6 45.5 2.3 38.6 1 30.7 C0.1 25.3 0.8 19.3 4.4 15.2 C7.6 11.5 12.5 9.8 17.2 8.3 C20.1 7.4 37.6 -1 39.4 0.8 C40.4 1.7 34.4 15.3 34 17.2 C34 17.3 34 17.4 34 17.4 z M32.8 17.1 C32.8 17.1 32.8 17 32.8 16.9 C33.2 15.2 38.6 2.8 37.7 1.9 C36.1 0.3 20.1 7.9 17.4 8.7 C13.1 10.1 8.6 11.6 5.7 15 C2.4 18.7 1.8 24.2 2.6 29.1 C3.8 36.3 7.7 42.6 11.5 48.8 C14.3 53.4 16 63.5 20 67.1 C23.4 70.2 32.6 68.4 34.6 63 C36.2 58.5 36.2 48.6 35.5 43.6 C35.1 41.2 34.2 38.9 33.6 36.7 C31.8 30.5 31.5 23.6 32.8 17.1 z" opacity="0.15" id="l1" /></g><g transform="translate(170.3, 159) scale(1.1, 1) translate(-170.3, -159)" id="m1"><g transform="translate(87.60001, 96.09998) translate(53, 43)" id="n1"><g transform="translate(0, 9)" id="o1"><path d="M29.8 1 C33.9 0.7 37.3 1 40 1.8 C44.1 3.1 47.1 4.3 48.6 6 C50.1 7.7 52.5 11.7 53.9 15 C55.3 18.4 56 20.1 56.1 22.7 C56.2 25.3 55.9 29.5 57.7 34.6 C59.6 39.7 60 45.1 56.1 49.2 C52.2 53.3 52.5 53.8 48.6 53.6 C44.7 53.4 41.7 51.5 40 48.5 C38.3 45.5 35.1 41.9 31.5 41.5 C31.1 41.5 30.8 41.4 30.5 41.4 C30.4 41.4 30.3 41.5 30.1 41.5 L30.1 41.4 C30 41.4 29.9 41.4 29.8 41.4 C29.7 41.4 29.6 41.4 29.5 41.4 L29.5 41.5 C29.3 41.5 29.2 41.4 29.1 41.4 C28.8 41.4 28.5 41.5 28.1 41.5 C24.5 41.9 21.3 45.5 19.6 48.5 C17.9 51.5 14.9 53.4 11 53.6 C7.1 53.8 7.4 53.3 3.5 49.2 C-0.4 45.1 0 39.8 1.9 34.7 C3.8 29.6 3.5 25.4 3.5 22.8 C3.5 20.2 4.4 18.5 5.7 15.1 C7 11.7 9.6 7.7 11 6 C12.4 4.3 15.4 3.1 19.6 1.8 C22.3 1 25.7 0.7 29.8 1 z" id="p1" fill="#FAF4E8" /><path d="M43.8 52.4 C42.2 51.5 40.9 50.2 40 48.6 C38.3 45.6 35.1 42 31.5 41.6 C31.1 41.6 30.8 41.5 30.5 41.5 C30.4 41.5 30.3 41.6 30.1 41.6 L30.1 41.5 C30 41.5 29.9 41.5 29.8 41.5 C29.7 41.5 29.6 41.5 29.5 41.5 L29.5 41.6 C29.3 41.6 29.2 41.5 29.1 41.5 C28.8 41.5 28.5 41.6 28.1 41.6 C24.5 42 21.3 45.6 19.6 48.6 C19 49.7 18.2 50.7 17.2 51.4 C18.5 46.6 22 41.2 22 36.3 C22 28.9 16 20.6 17.8 15.3 C19.6 10 26.6 9.5 30.4 9.5 C34.2 9.5 38.9 9.5 41.2 14 C43.5 18.5 38.1 27.5 38.3 36.3 C38.3 42.2 42.8 47.6 43.8 52.4 z" id="q1" fill="#D8C6BA" /><path d="M19.7 48.4 C24.1 50.1 26.4 50.2 29.5 50.2 C36 50.2 39.7 48.2 39.7 48.2 C39.7 48.2 37.2 40.5 29.3 40.6 C21.5 40.6 19.7 48.4 19.7 48.4 z" id="r1" fill="#FFF" /><path d="M29.8 1 C33.9 0.7 37.3 1 40 1.8 C44.1 3.1 47.1 4.3 48.6 6 C50.1 7.7 52.5 11.7 53.9 15 C55.3 18.4 56 20.1 56.1 22.7 C56.2 25.3 55.9 29.5 57.7 34.6 C59.6 39.7 60 45.1 56.1 49.2 C52.2 53.3 52.5 53.8 48.6 53.6 C44.7 53.4 41.7 51.5 40 48.5 C37.3 49.2 35.1 50.3 29.8 50.3 C24.5 50.3 22.2 49.5 19.6 48.5 C17.4 51.8 14.9 53.4 11 53.6 C7.1 53.8 7.4 53.3 3.5 49.2 C-0.4 45.1 0 39.8 1.9 34.7 C3.8 29.6 3.5 25.4 3.5 22.8 C3.5 20.2 4.4 18.5 5.7 15.1 C7 11.7 9.6 7.7 11 6 C12.4 4.3 15.4 3.1 19.6 1.8 C22.3 1 25.7 0.7 29.8 1 z M29.8 1 C26 0.7 22.9 1 20.4 1.7 C16.5 2.9 13.8 4 12.5 5.6 C11.2 7.2 8.8 10.9 7.6 14 C6.4 17.1 5.6 18.7 5.6 21.1 C5.6 23.5 5.9 27.4 4.1 32.1 C2.3 36.8 2 41.7 5.6 45.5 C9.2 49.3 8.9 49.7 12.5 49.6 C16.1 49.5 18.9 47.7 20.4 44.9 C21.9 42.1 20.4 48.3 29 48.3 C39.2 48.3 37.6 42.2 39.2 44.9 C40.8 47.7 43.5 49.4 47.1 49.6 C50.7 49.8 50.4 49.3 54 45.5 C57.6 41.7 57.2 36.7 55.5 32 C53.8 27.3 54.1 23.4 54 21 C53.9 18.6 53.3 17 52 13.9 C50.7 10.9 48.5 7.2 47.1 5.6 C45.8 4.1 43 3 39.2 1.8 C36.7 1 33.6 0.8 29.8 1 z" fill-opacity="0.4" id="s1" /></g></g><g transform="translate(170.2999, 187.1) scale(1.5) translate(-170.2999, -187.1) translate(-285, 66.19998) translate(64, 110)" id="t1"><path d="M391.8 5.8 C391 5.7 390.6 5.8 390.4 6.1 C390.3 6.3 390.7 7.4 390.3 8.6 C390.2 8.9 389.9 9.3 389.4 9.8 C388.7 10 388.2 10.1 387.8 10.1 C387.2 10.1 385.6 9.5 384.5 9.5 C383.8 9.4 383.5 9.7 383.6 10.3 L384.8 11.1 C386.2 11.7 387.2 12 387.8 12.2 C389.3 12.5 390.4 12.5 391.1 12.4 C391.6 12.4 392.6 12.5 394.1 12.2 C394.8 12.1 396 11.8 397.7 11.3 C398.4 10.7 398.5 10.3 398 10.1 C397.2 9.8 395.8 10.1 394.8 10.1 C394.1 10.1 393.4 10.1 392.6 10.1 C392.2 9.4 391.9 8.8 391.8 8.5 C391.7 8.2 391.7 7.3 391.8 5.8 z" id="u1" fill="#1F2123" /></g><g transform="translate(170.3, 167.5) scale(1.2) translate(-170.3, -170.5) translate(103.2, 97.19997) translate(56, 65)" id="v1"><g id="w1"><path d="M20.3 1.6 C18.3 -0.6 14.7 0.3 11.1 0.3 C7.5 0.3 3.9 -0.6 1.9 1.6 C-0.1 3.8 -0.1 7.6 1.9 9.8 C3.3 11.3 4.7 12.2 6.6 13.2 C8.2 14.1 9.3 16.2 11 16.4 C12.8 16.2 13.8 14 15.4 13.2 C17.4 12.2 18.8 11.3 20.1 9.8 C22.3 7.6 22.3 3.9 20.3 1.6 z" id="x1" fill="#282523" /><path d="M16.8 3.2 C16.6 2.6 15.3 2.5 14.4 2.3 C12.8 2 10.5 2.2 7.8 2.2 C7.1 2.2 6.4 2.2 5.7 2.5 C5 2.8 4.6 3.5 4.7 4.2 C4.9 5.4 6.4 5.6 7.6 5.6 C9.5 5.6 11.5 5.6 13.4 5.5 C14.2 5.5 15 5.5 15.8 5.1 C16.6 4.7 17.1 4 16.8 3.2 z" id="y1" fill="#FEFEFE" /></g></g><g transform="translate(102.6, 99.69997) translate(40, 35)" id="z1"><g id="a2"><path d="M17.3 3.9 C16.9 3.3 14.9 2 13.6 1.4 C10.9 0.2 8.6 1 6.3 1.9 C4.8 2.5 1.9 3.8 1.2 5.3 C0.4 6.9 0.8 8.9 1.7 10.4 C3.4 13.4 6.8 15.4 10.2 14.9 C11.7 14.7 14.8 12.4 16.6 9.5 C17.5 11 16.8 13.9 17.1 13.9 C17.5 13.9 21.4 8.8 17.3 3.9 z" id="b2" fill="#FFF" /><path d="M2.7 4.7 C4.3 2.4 10.9 -0.6 13 1.3 C17.7 5.4 12.9 11.7 9.1 11.9 C5.2 12.1 0.5 7.9 2.7 4.7 z" id="c2" fill="#282421" /><path d="M8.2 3.9 C6.9 3.5 6.3 3.7 5.7 4.2 C5.1 4.7 4.7 5.6 5 6.3 C5.5 7.3 7 7.1 7.9 6.6 C8.8 6 8.8 6 10.9 5.4 C10 4.6 9.4 4.3 8.2 3.9 z" id="d2" fill="#FEFEFE" /></g></g><g transform="translate(100.5, 99.69997) translate(74, 35)" id="e2"><g id="f2"><path d="M18.9 5.2 C18.2 3.7 15.3 2.4 13.8 1.8 C11.5 0.9 9.2 0.1 6.5 1.3 C5.2 1.9 3.9 2.7 2.8 3.8 C-1.3 8.8 2.6 13.8 2.9 13.8 C3.2 13.8 2.5 10.9 3.4 9.4 C5.1 12.2 8.3 14.5 9.8 14.8 C13.2 15.3 16.6 13.3 18.3 10.3 C19.3 8.8 19.7 6.9 18.9 5.2 z" id="g2" fill="#FFF" /><path d="M17.5 4.7 C15.9 2.4 9.3 -0.6 7.2 1.3 C2.5 5.4 7.3 11.7 11.1 11.9 C15 12.1 19.7 7.9 17.5 4.7 z" id="h2" fill="#282421" /><path d="M10.6 3.5 C9.3 3.1 8.7 3.3 8.1 3.8 C7.5 4.3 7.1 5.2 7.4 5.9 C7.9 6.9 9.4 6.7 10.3 6.2 C11.2 5.6 11.2 5.6 13.3 5 C12.4 4.2 11.9 3.9 10.6 3.5 z" id="i2" fill="#FEFEFE" /></g></g></g></g></g></g><defs><g transform="translate(17.09519, 0.800995) translate(-135.2952, -293.601)" id="j2" fill="#000"><path d="M118.2 302.7 C118.4 307.4 132.5 311.2 149.8 311.2 C167.1 311.2 181.2 307.4 181.4 302.7 C181.4 307.5 181.4 310.1 181.4 310.5 C181.4 315.3 167.3 319.1 149.8 319.1 C132.3 319.1 118.2 315.2 118.2 310.5 L118.2 302.7 L118.2 302.7 z" fill-opacity="0.4528" id="k2" fill="#593001" /><path d="M118.7 301.7 C118.9 306.4 133 310.2 150.3 310.2 C167.6 310.2 181.7 306.4 181.9 301.7 C181.9 306.5 181.9 309.1 181.9 309.5 C181.9 314.3 167.8 318.1 150.3 318.1 C132.8 318.1 118.7 314.2 118.7 309.5 L118.7 301.7 L118.7 301.7 z" id="l2" fill="#DA8113" /><linearGradient x1="46.0545" y1="-118.6926" x2="45.4656" y2="-118.6926" gradientUnits="userSpaceOnUse" gradientTransform="matrix(117.135, 0, 0, 28.4634, -5208.417, 3687.795)" id="m2"><stop offset="0%" stop-color="#D9952A" stop-opacity="1" /><stop offset="6.438854%" stop-color="#CA7519" stop-opacity="1" /><stop offset="30.54%" stop-color="#E3AD3A" stop-opacity="1" /><stop offset="51.05%" stop-color="#FFEC91" stop-opacity="1" /><stop offset="68.8%" stop-color="#E9BD44" stop-opacity="1" /><stop offset="86.24%" stop-color="#FFED6C" stop-opacity="1" /><stop offset="93.87%" stop-color="#F2D353" stop-opacity="1" /><stop offset="100%" stop-color="#F2B947" stop-opacity="1" /></linearGradient><path d="M118.2 301.6 C118.4 306.1 132.7 309.7 150.3 309.7 C167.9 309.7 182.2 306.1 182.4 301.6 C182.4 306.2 182.4 308.7 182.4 309 C182.4 313.5 168 317.2 150.3 317.2 C132.6 317.2 118.2 313.5 118.2 309 L118.2 301.6 L118.2 301.6 z" id="n2" style="fill:url(#m2)" /><linearGradient x1="45.4914" y1="-117.9547" x2="45.9407" y2="-117.5895" gradientUnits="userSpaceOnUse" gradientTransform="matrix(115.425, 0, 0, 29.925, -5125.077, 3826.124)" id="o2"><stop offset="0%" stop-color="#F4E072" stop-opacity="1" /><stop offset="100%" stop-color="#DB9427" stop-opacity="1" /></linearGradient><ellipse cx="150.3" cy="301.5" rx="31.6" ry="8.2" id="p2" style="fill:url(#o2)" /><linearGradient x1="45.4656" y1="-126.0065" x2="46.0545" y2="-126.0065" gradientUnits="userSpaceOnUse" gradientTransform="matrix(117.135, 0, 0, 18.6219, -5208.417, 2651.479)" id="q2"><stop offset="0%" stop-color="#D9952A" stop-opacity="1" /><stop offset="6.438854%" stop-color="#CA7519" stop-opacity="1" /><stop offset="30.54%" stop-color="#E3AD3A" stop-opacity="1" /><stop offset="51.05%" stop-color="#FFEC91" stop-opacity="1" /><stop offset="68.8%" stop-color="#E9BD44" stop-opacity="1" /><stop offset="86.24%" stop-color="#FFED6C" stop-opacity="1" /><stop offset="93.87%" stop-color="#F2D353" stop-opacity="1" /><stop offset="100%" stop-color="#F2B947" stop-opacity="1" /></linearGradient><path d="M119.2 299.9 C119 300.2 118.9 300.6 118.9 301 C118.9 305.5 132.9 309.2 150.3 309.2 C167.7 309.2 181.7 305.5 181.7 301 C181.7 300.6 181.6 300.3 181.4 299.9 C182 300.5 182.4 301.2 182.4 301.9 C182.4 306.4 168 310.1 150.3 310.1 C132.6 310.1 118.2 306.4 118.2 301.9 C118.2 301.3 118.6 300.6 119.2 299.9 z" id="r2" style="fill:url(#q2)" /><linearGradient x1="45.196" y1="-121.5895" x2="45.3746" y2="-120.6758" gradientUnits="userSpaceOnUse" gradientTransform="matrix(101.745, 0, 0, 23.94, -4458.332, 3199.41)" id="s2"><stop offset="0%" stop-color="#F8DD61" stop-opacity="1" /><stop offset="100%" stop-color="#EAA330" stop-opacity="1" /></linearGradient><ellipse cx="150.3" cy="300.8" rx="27.8" ry="6.6" id="t2" style="fill:url(#s2)" /><linearGradient x1="45.5694" y1="-134.267" x2="45.0221" y2="-134.267" gradientUnits="userSpaceOnUse" gradientTransform="matrix(101.745, 0, 0, 13.2525, -4458.332, 2077.223)" id="u2"><stop offset="0%" stop-color="#F4CA2F" stop-opacity="1" /><stop offset="51.38%" stop-color="#BF7737" stop-opacity="1" /><stop offset="100%" stop-color="#E4A929" stop-opacity="1" /></linearGradient><path d="M122.6 301.5 C122.5 301.3 122.4 301 122.4 300.8 C122.4 297.2 134.9 294.2 150.2 294.2 C165.5 294.2 178 297.1 178 300.8 C178 301 177.9 301.3 177.8 301.5 C176.3 298.2 164.5 295.6 150.1 295.6 C135.7 295.6 124.1 298.2 122.6 301.5 z" id="v2" style="fill:url(#u2)" /></g></defs><desc>LAD42DB4DD9,h5kqu6jo3s986Fl735LgPMSIrALN2FW5wjqXi8t3C4Ky0H2zy4/Ue9xIqJfbnxeeAGrzk5NK+Au7b9kKFE7SKEIIcYbyMUzPIufs9Kch6+e8nxBIV+sxg1nLzi58uX6B</desc></svg>