<?xml version="1.0" encoding="utf-8"?><!DOCTYPE svg PUBLIC "-//W3C//DTD SVG 1.1//EN" "http://www.w3.org/Graphics/SVG/1.1/DTD/svg11.dtd"><svg x="0" y="0" width="340px" height="340px" viewBox="0, 0, 340, 340" preserveAspectRatio="xMidYMid" font-size="0" id="a" enable-background="new 0 0 340 340" xmlns="http://www.w3.org/2000/svg" xmlns:xlink="http://www.w3.org/1999/xlink" xmlns:xml="http://www.w3.org/XML/1998/namespace" version="1.1"><g id="b" fill="#000"><g id="c"><g transform="translate(0, 0) translate(0, 224)" id="d"><ellipse cx="168.6" cy="53.1" rx="57.8" ry="12.8" fill-opacity="0.25" id="e" /></g><g id="f"><g transform="translate(96.8, 80.19998) translate(20, 164) scale(-1, 1) translate(-20, -164) translate(0, 145)" id="g"><g opacity="0.15" id="h"><path d="M25.1 5.8 C22.1 1.3 15 -3.7 13.7 5.8 C6.2 0.1 3.3 6.1 6.2 10.4 C0.3 13.4 -2 14.4 2.1 17.2 C1.4 21.2 -1.4 28.5 6.2 26.7 C5.7 33.2 9.3 33.2 13.7 33.2 C14.4 39.4 27.4 39.7 24.5 31.9 C29.6 32.2 32.1 33.8 32.8 31.9 C33.5 30 30 27.2 28 24.7 C35.2 25.8 42.7 22.7 37.8 18.5 C34.5 15.7 32.8 15 32.7 16.4 C35.8 14.6 38.8 13 38.8 10.3 C38.8 8.4 33.7 7.6 29.9 10.3 C31.5 6.4 28.1 -2.1 25.1 5.8 z" stroke="#000000" stroke-width="3" opacity="0.15" id="i" /></g><path d="M24.6 4.8 C21.6 -1 15.9 -2.2 13.7 4.8 C6.2 -0.9 3.3 5.1 6.2 9.4 C0.3 12.4 -2 13.4 2.1 16.2 C1.4 20.2 -1.4 27.5 6.2 25.7 C5.7 32.2 9.3 32.2 13.7 32.2 C14.4 38.4 27 38.7 25.1 32.2 C35.2 32.8 34 30.6 30 25.7 C37.2 26.8 42.1 21.4 37.2 17.2 L33.7 16.2 C36.8 14.4 38.3 12.1 38.3 9.4 C38.3 7.5 33.9 6.7 30.1 9.4 C31.5 5.4 29.5 -0.9 24.6 4.8 z" id="j" fill="#D8D8D8" /></g><g transform="translate(127.5, 273.3) scale(1) translate(-127.5, -273.3) translate(90.90001, 84.79997) translate(29, 123)" id="k"><g transform="translate(22.5, 34.5) scale(-1, 1) translate(-22.5, -34.5)" id="l"><path d="M0.5 21.2 C0.5 5.6 29.7 -5.2 40.3 4.4 C49.4 12.7 41.6 31.9 40.3 33.7 C39.4 34.9 36.1 41.1 30.4 52.5 C37.7 55.2 41.3 58.4 41.3 62.1 C41.3 63.8 41.3 66.1 39.6 67.4 C38.3 68.4 19.6 68.3 15.4 67.4 C11.2 66.5 0.3 66.2 0.5 57.8 C0.7 48.8 0.5 29.2 0.5 21.2 z" id="m" fill="#32363A" /><path d="M0.5 21.2 C0.5 5.6 29.7 -5.2 40.3 4.4 C49.4 12.7 41.6 31.9 40.3 33.7 C39.4 34.9 36.1 41.1 30.4 52.5 C37.7 55.2 41.3 58.4 41.3 62.1 C41.3 63.8 41.3 66.1 39.6 67.4 C38.3 68.4 19.6 68.3 15.4 67.4 C11.2 66.5 0.3 66.2 0.5 57.8 C0.7 48.8 0.5 29.2 0.5 21.2 z M2 21.6 C2 25.7 2.6 32.8 2.5 39.9 C2.4 45.8 1.6 51.8 1.6 55.7 C1.4 63.7 11.3 64.4 15.3 65.3 C19.3 66.2 36.4 66.9 37.7 65.9 C39.3 64.7 39.3 63 39.3 61.4 C39.3 57.9 34.4 55.6 27.4 53 C32.8 42.1 37.7 34 38.5 32.9 C40.9 28.4 47 12.6 38.4 4.6 C28.3 -4.5 2 6.8 2 21.6 z" opacity="0.15" id="n" /></g></g><g transform="translate(212.4, 273.3) scale(1) translate(-212.4, -273.3) translate(90.90001, 84.79997) translate(107, 157.5) scale(-1, 1) translate(-107, -157.5) translate(85, 123)" id="o"><g id="p"><path d="M42.8 20.7 C42.8 5.1 15.8 -5.2 5.2 4.4 C-3.9 12.7 3.9 31.9 5.2 33.7 C6.1 34.9 9.4 41.1 15.1 52.5 C7.8 55.2 4.2 58.4 4.2 62.1 C4.2 63.8 4.2 66.1 5.9 67.4 C7.2 68.4 24.3 69 30.1 67.4 C30.3 67.3 33.1 66.7 34 66.4 C37.5 65.2 42.4 63.3 42.7 59.9 C44.2 44.3 42.8 29.9 42.8 20.7 z" id="q" fill="#32363A" /><path d="M42.8 20.7 C42.8 29.9 44.2 44.3 42.7 59.9 C42.4 63.3 37.5 65.2 34 66.4 C33.1 66.7 30.3 67.3 30.1 67.4 C24.2 69 7.2 68.4 5.9 67.4 C4.2 66.1 4.2 63.8 4.2 62.1 C4.2 58.4 7.8 55.2 15.1 52.5 C9.4 41.1 6.1 34.9 5.2 33.7 C3.9 31.9 -3.9 12.7 5.2 4.4 C15.8 -5.2 42.8 5.1 42.8 20.7 z M41.8 20.4 C41.8 5.6 16.2 -4.4 6.1 4.8 C-2.5 12.6 6 30.7 7.3 32.4 C8.2 33.5 12.3 42.3 17.7 53.2 C10.8 55.8 5.6 58.3 5.6 61.8 C5.6 63.4 5.7 64.3 7.4 65.6 C8.6 66.5 24.1 67 29.7 65.5 C29.9 65.4 34.8 64.5 35.7 64.2 C39 63.1 41.6 60.9 41.9 57.7 C43.1 42.8 41.8 29.1 41.8 20.4 z" opacity="0.15" id="r" /></g></g><g transform="translate(90.90001, 84.79997) translate(37, 51)" id="s"><g transform="translate(3, 0)" id="t"><path d="M61.7 20.1 C61.7 36.4 64.4 34.7 66.1 39.3 C67.8 43.9 74.7 53 76 65.8 C77.3 78.6 76.6 92.6 72.6 104.3 C68.6 116 71.5 137.3 61.8 140 C61.5 140.1 29.8 143.1 18 140 C5.8 136.8 11.8 123.7 6.4 106.4 C1 89.1 0.1 80.3 0.4 65.8 C0.7 51.3 10.7 44.1 12.5 39.2 C14.3 34.3 16.6 32.5 16.6 20 C16.6 7.5 24.6 0.5 42.2 1 C47.5 1.2 61.7 3.7 61.7 20.1 z" id="u" fill="#32363A" /><path d="M61.7 20.1 C61.7 36.4 64.4 34.7 66.1 39.3 C67.8 43.9 74.7 53 76 65.8 C77.3 78.6 76.6 92.6 72.6 104.3 C68.6 116 71.5 137.3 61.8 140 C61.5 140.1 29.8 143.1 18 140 C5.8 136.8 11.8 123.7 6.4 106.4 C1 89.1 0.1 80.3 0.4 65.8 C0.7 51.3 10.7 44.1 12.5 39.2 C14.3 34.3 16.6 32.5 16.6 20 C16.6 7.5 24.6 0.5 42.2 1 C47.5 1.2 61.7 3.7 61.7 20.1 z M61.2 20.2 C61.2 4.2 47.3 1.7 42.1 1.5 C24.9 1 17.1 7.9 17.1 20.1 C17.1 32.3 14.8 34.1 13.1 38.9 C11.4 43.7 1.5 50.7 1.2 64.9 C0.9 79.1 2.8 88.3 8.1 105.2 C13.4 122.1 6.5 134.3 18.4 137.5 C29.9 140.5 61 137.6 61.3 137.5 C70.8 134.9 67 114.3 70.9 102.9 C74.8 91.5 76.5 77.5 75.2 64.9 C73.9 52.4 67.2 43.5 65.5 39 C63.8 34.5 61.2 36.1 61.2 20.2 z" opacity="0.15" id="v" /></g></g><g transform="translate(90.90001, 84.79997) translate(78.5, 145.5) scale(-1, 1) translate(-78.5, -145.5) translate(39, 92)" id="w"><path d="M68.1 2.7 C65.6 5.6 57.8 23.3 40.2 24.2 C21.5 24.9 13.3 5.5 10.6 0.9 C7 8.7 1.1 13.8 0.5 26.6 C-0.1 39.4 4.4 46.5 6.7 52.8 C8.4 57.4 10.7 64.5 12.6 73.4 C13.3 76.6 15 81.2 15 84.3 C15.3 96.3 17.5 91.7 13.2 94.2 C8.9 96.7 5.2 101.6 6.7 104.5 C8.2 107.4 29.2 104.1 30.2 102.9 C30.7 102.3 30.9 95.4 30.7 74 C30.6 70.2 29.5 64.3 29.2 57 C29.1 53.6 30 50.6 29.7 46.2 C33.7 48.7 35.2 49.7 38.2 49.6 C41 49.7 42.2 48 46.8 45.5 C46.8 49.8 47.8 53.2 47.9 56.9 C48 63.8 47.3 70.3 47.2 74 C46.9 94.5 47.2 102.3 48 103.5 C49.2 105.2 56.8 106.1 70.8 106 C72.5 103.2 72.5 100.8 70.8 98.8 C69.1 96.8 66.2 94.7 62.2 92.4 C63.3 83.7 63.9 81.2 65.2 75.5 C66.2 71 67.7 62.7 68.7 60.2 C72.3 51.4 78.4 40.6 78.5 28.7 C78.6 16.8 72.4 8 68.1 2.7 z" id="x" fill="#FEFEFE" /><path d="M68.1 2.7 C72.4 8 78.5 16.8 78.4 28.7 C78.3 40.6 72.2 51.4 68.6 60.2 C67.6 62.8 66 71 65.1 75.5 C63.9 81.2 63.2 83.7 62.1 92.4 C66.1 94.7 69 96.8 70.7 98.8 C72.4 100.8 72.4 103.2 70.7 106 C56.7 106.1 49.1 105.2 47.9 103.5 C47.1 102.3 46.8 94.5 47.1 74 C47.2 70.3 47.9 63.8 47.8 56.9 C47.7 53.1 46.7 49.8 46.7 45.5 C42.1 48 40.9 49.7 38.1 49.6 C35.1 49.7 33.6 48.7 29.6 46.2 C30 50.6 29 53.6 29.2 57 C29.5 64.3 30.6 70.2 30.7 74 C30.9 95.4 30.7 102.3 30.2 102.9 C29.2 104.1 8.2 107.4 6.7 104.5 C5.2 101.6 8.9 96.7 13.2 94.2 C17.5 91.7 15.3 96.3 15 84.3 C14.9 81.1 13.2 76.6 12.6 73.4 C10.7 64.5 8.4 57.5 6.7 52.8 C4.4 46.5 -0.1 39.4 0.5 26.6 C1.1 13.8 7 8.7 10.6 0.9 C13.3 5.5 21.5 24.9 40.2 24.2 C57.8 23.3 65.6 5.6 68.1 2.7 z M68.1 3.9 C66.9 6.2 63.6 12.3 57.5 17.9 C52.5 22.5 44.3 27.3 38.5 27.3 C34.8 27.5 26 22.6 22.4 19.5 C17.8 15.6 11.8 5.2 10.6 1.4 C7.1 8.9 2.7 15.8 2.1 28 C1.5 40.2 5.9 45.5 8.1 51.5 C9.7 55.9 12.8 63.9 14.6 72.4 C15.2 75.4 16.9 80.5 17 83.5 C17.3 94.9 18.7 92.8 14.6 95.2 C10.5 97.6 7.6 99.2 9 101.9 C10.4 104.6 27 101.6 28 100.4 C28.5 99.8 28.8 95.8 28.6 75.4 C28.5 71.7 27.6 64.9 27.3 57.9 C27.2 54.7 26.9 46.1 26.6 41.9 C30.4 44.3 35 48 37.9 47.9 C40.6 48 45.9 43.8 50.3 41.4 C50.3 45.5 50.1 52.2 50.1 55.8 C50.2 62.3 49.2 68.8 49.2 72.3 C48.9 91.8 49.3 99.6 50 100.8 C51.1 102.4 55.2 104 68.5 103.9 C70.1 101.2 70.8 100.5 69.2 98.6 C67.6 96.7 64.2 95 60.4 92.8 C61.5 84.5 62.1 79.7 63.3 74.3 C64.2 70 65.8 62 66.8 59.5 C70.2 51.1 76.5 41.1 76.6 29.8 C76.6 18.6 72.2 8.9 68.1 3.9 z" opacity="0.15" id="y" /></g></g><g id="z"><g transform="translate(140.7, 108) scale(0.8) translate(-140.7, -121) translate(93.1, 79.89997) translate(23, 0)" id="a1"><g transform="translate(18.79612, 27.5) scale(-1, 1) translate(-18.79612, -27.5) translate(0.796117, 0)" id="b1"><path d="M6.1 38.9 C10.1 42.5 15.4 46.7 17.9 49.8 C20.7 53.3 26 54.1 28.3 51.3 C30.6 48.5 32.3 48.1 32.7 42.7 C33.1 37.3 36.2 20.2 36 15.4 C35.8 10.6 34.5 0.6 32.8 0.1 C31.1 -0.4 26.4 0.6 25.4 1.5 C24.4 2.4 2.2 26.3 1.3 28.2 C0.3 30.1 2.1 35.2 6.1 38.9 z" id="c1" fill="#474B4F" /><path d="M6.1 38.9 C2.1 35.2 0.3 30.1 1.3 28.2 C2.2 26.3 24.4 2.4 25.4 1.5 C26.4 0.6 31.1 -0.4 32.8 0.1 C34.5 0.6 35.7 10.6 35.9 15.3 C36.1 20 33 37.3 32.6 42.7 C32.2 48.1 30.5 48.5 28.2 51.3 C25.9 54.1 20.6 53.3 17.8 49.8 C15.4 46.7 10.1 42.5 6.1 38.9 z M7.7 37.7 C11.4 41.1 16.3 45.1 18.6 48 C21.2 51.3 26.1 52.1 28.2 49.4 C30.3 46.7 31.9 46.4 32.3 41.3 C32.7 36.2 35.5 20.1 35.4 15.6 C35.3 11.1 33.9 1.6 32.4 1.1 C30.8 0.6 26.5 1.6 25.6 2.4 C24.7 3.2 4.1 25.8 3.3 27.6 C2.3 29.4 4 34.2 7.7 37.7 z" opacity="0.15" id="d1" /><path d="M8.1 28.2 C7.5 24.8 23.1 7.3 24.9 5.4 C26.7 3.5 28.4 3 30.8 2.9 C33.2 2.8 34.6 13 33.6 18.7 C32.6 24.4 30.3 45.7 27.5 46.9 C24.7 48.1 23.9 45.6 16.5 36.4 C13.2 32.2 8.8 31.5 8.1 28.2 z" id="e1" fill="#D8D8D8" /><path d="M12.2 34 C17.3 30.7 20.4 27.8 21.5 25.3 C22.1 24 23.6 27.6 23.7 32.2 C23.8 34.2 22.7 37.6 20.4 42.4 L12.2 34 z" id="f1" fill="#474B4F" /></g></g><g transform="translate(198.7, 108) scale(0.8) translate(-198.7, -121) translate(103.8, 79.89997) translate(102.4, 27) scale(-1, 1) translate(-102.4, -27) translate(83.40002, 0)" id="g1"><g transform="translate(18.70388, 27) scale(-1, 1) translate(-18.70388, -27) translate(0.203883, 0)" id="h1"><path d="M4.4 39.1 C8.4 42.7 13.1 47.2 16.8 49.8 C20.4 52.4 24.9 54.1 27.2 51.3 C29.5 48.5 31.2 48.1 31.6 42.7 C32 37.3 35.1 20.2 34.9 15.4 C34.7 10.6 33.4 0.6 31.7 0.1 C30 -0.4 25.3 0.6 24.3 1.5 C23.3 2.4 1.1 26.3 0.2 28.2 C-0.8 30.1 0.4 35.4 4.4 39.1 z" id="i1" fill="#474B4F" /><path d="M4.4 39.1 C0.4 35.4 -0.8 30.1 0.2 28.2 C1.1 26.3 23.3 2.4 24.3 1.5 C25.3 0.6 30 -0.4 31.7 0.1 C33.4 0.6 34.6 10.6 34.8 15.3 C35 20 31.9 37.2 31.5 42.6 C31.1 48 29.4 48.4 27.1 51.2 C24.8 54 20.3 52.3 16.7 49.7 C13 47.2 8.4 42.7 4.4 39.1 z M6.1 37.9 C9.8 41.3 14.1 45.5 17.5 48 C20.8 50.5 25 52.1 27.1 49.4 C29.2 46.7 30.8 46.4 31.2 41.3 C31.6 36.2 34.4 20.1 34.2 15.6 C33.9 11 32.8 1.6 31.3 1.1 C29.7 0.6 25.4 1.6 24.5 2.4 C23.5 3.3 3 25.8 2.2 27.6 C1.3 29.4 2.4 34.4 6.1 37.9 z" opacity="0.15" id="j1" /><path d="M7 28.2 C6.4 24.8 22 7.3 23.8 5.4 C25.6 3.5 27.3 3 29.7 2.9 C32.1 2.8 33.5 13 32.5 18.7 C31.5 24.4 29.2 45.7 26.4 46.9 C23.6 48.1 22.8 45.6 15.4 36.4 C12 32.2 7.7 31.5 7 28.2 z" id="k1" fill="#D8D8D8" /><path d="M11 34 C16.1 30.7 19.2 27.8 20.3 25.3 C20.9 24 22.4 27.6 22.5 32.2 C22.6 34.2 21.5 37.6 19.2 42.4 L11 34 z" id="l1" fill="#474B4F" /></g></g><g transform="translate(96.60001, 79.89997) translate(28, 0)" id="m1"><g id="n1"><g opacity="0.4" transform="translate(11, 12)" id="o1"><path d="M0 27.6 C0 38.8 2 46.5 7.2 51.6 C12.4 56.7 15.8 64.8 15.7 71.6 C15.6 78.4 15.2 85 17.9 89 C20.6 93 23.1 95.2 26.9 97 C28.6 97.8 31.4 96.2 34.5 96.2 C36.4 96.2 39.2 97.6 41.1 97.1 C46.1 95.8 49 90.1 50.2 88 C51.4 85.9 52.3 76.7 52.4 71.6 C52.5 66.5 55.4 57.5 57.9 54.2 C60.4 50.9 70 43.6 70 30.2 C70 16.8 58.1 0 33.8 0.3 C9.5 0.6 0 16.4 0 27.6 z" stroke="#000000" stroke-width="2.5" opacity="0.4" id="p1" /></g><g transform="translate(11, 11)" id="q1"><path d="M0 27.6 C0 38.8 1.4 48 6.6 53.1 C11.8 58.2 15.8 64.8 15.7 71.6 C15.6 78.4 15.9 85.2 18.6 89.2 C21.3 93.2 23.1 95.2 26.9 97 C28.6 97.8 31 97.2 34.1 97.2 C36 97.2 39.2 97.6 41.1 97.1 C46.1 95.8 48.3 90.6 49.5 88.5 C50.7 86.4 52.3 76.7 52.4 71.6 C52.5 66.5 56 58.5 58.5 55.2 C61 51.9 70 43.6 70 30.2 C70 16.8 58.1 0 33.8 0.3 C9.5 0.6 0 16.4 0 27.6 z" id="r1" fill="#474B4F" /></g><g id="s1"><g opacity="0.15" transform="translate(0, 1)" id="t1"><path d="M13.2 15 C13.3 15 13.4 14.9 13.4 14.9 C13.7 14.3 13.6 13 13.9 12.2 C14.1 11.5 14.8 11.6 15.5 11.9 C15.6 11.8 15.6 11.7 15.7 11.5 C16.3 10.5 16.4 10.9 17.1 11 C17 10.4 16.4 10.6 16.9 9.4 C17.1 8.7 17.6 8.5 18.1 8.4 C18.3 7.5 19.7 8.3 20.6 8.4 C21.3 6.5 20.1 7.5 20.6 6 C21.1 4.5 22.6 5.4 24.1 5.7 C25.8 6 26 3.9 26.8 3.4 C27.6 2.9 28.2 4.3 29.5 4 C30.8 3.7 29.2 2.3 30 2.4 C30.6 1.8 33.2 3.5 32.5 2.8 C31.8 2.1 33 1.1 34 1.1 C35 1.1 35.7 2.4 36.7 2.3 C37.7 2.2 37.2 1.3 38.4 0.8 C39.5 0.2 40.6 3.2 41.4 0.5 C42.6 0.3 44.1 0.7 45.7 1.3 C46.3 1.5 47.5 2.5 47.8 2.6 C48.9 2.8 49.1 0.3 50.9 0.8 C52.7 1.3 52.5 3.6 53.9 3.9 C55.3 4.2 56.5 2 57.3 2.3 C58.1 2.6 56.8 4.5 58 5 C59.2 5.5 60.7 4.1 62 4.3 C63.4 4.5 62.5 5.7 62.7 6.4 C64.3 5.8 64.4 5.5 65.4 4 C67.5 6.5 66.3 8 66.4 8.7 C67.5 8.5 67.7 7.4 68.7 7.3 C68.8 7.2 68.8 7.1 68.9 7 C69 7.1 69 7.2 69.1 7.3 C69.3 7.3 69.6 7.4 69.9 7.5 C72 8.4 70.9 10.8 71.3 11.5 C71.9 10.9 72.5 10.3 74.1 11 C75.8 11.7 75.7 13.3 75.7 14.4 C76.2 14.2 77.3 13.5 77.7 14.4 C77.9 14.8 77.8 15.3 77.7 15.8 C78.2 15.7 78.6 15.6 78.8 15.8 C80.2 16.7 80.3 18.5 80.6 19 C80.9 19.5 82.7 17.7 83.3 19 C83.9 20.3 82.3 22.8 82.3 22.8 C83.5 22.9 85.2 23.2 86.2 24.8 C87.7 27.1 85.9 28.5 85.2 29.3 C84.5 30 83.3 30.5 83.3 30.5 C84.3 31.3 86.6 33.4 86.8 34.1 C87 35.2 86.3 36.9 84.6 36.9 C86.4 38.5 87.3 37.7 87.3 40.2 C87.3 41.8 87 42.8 86.2 43.1 C87.3 45.5 85.1 46.2 82.3 47.7 C84.4 48.2 86.8 48.8 84 50.6 C81.2 52.4 82.8 50.6 82.8 51.3 C82.8 52 86.9 52.2 84 53 C81.1 53.8 79.5 51.9 77.7 52 C75.9 52.1 78.2 54.8 78.2 54.8 C79.6 55 82 55.8 79.3 55.5 C76.6 55.2 77 57 76.6 57.1 C77.3 58 79.7 58.8 78 59.4 C76.3 60.1 73.4 58 70.7 57.4 C68 56.8 69.3 58.1 69.3 58.1 C70.8 59.3 70.9 60.8 69.9 60.8 C68.4 60.9 65.5 60.2 64.6 59.3 C63.7 58.4 60.3 52.5 57.9 52.1 C55.5 51.7 55 56.8 53.9 57 C53.2 57.1 52.6 56.3 52.2 54.6 C52 56.2 51.7 56.5 50.9 56.5 C49.7 56.5 49.9 55.7 48.6 55.3 C47.3 54.9 48.8 58.3 46.9 58.1 C44.1 58.1 44.8 55.8 43.4 53.9 C41.7 52.5 40.7 55.7 40.6 57.1 C40.5 58.5 38.9 56.6 38.2 54.8 C37.6 53.1 37 55 35.3 56.7 C33.6 58.4 35 53.9 34.7 52.9 C34.4 51.9 34 54.2 32.9 55.6 C31.7 57 30.6 54.6 28.6 54.6 C26.6 54.6 27.9 52.4 26.2 53.1 C25 53.5 23.4 55 21.3 57 C19.2 59 17.8 61.5 16.2 62.3 C13.8 63.7 10.9 63.7 9.7 63.4 C7.8 62.9 6.7 61.4 5.9 60 L8.9 60 C7.2 58.9 5.3 57.4 3.8 55.7 C3.4 55.3 1.5 54.1 1.5 53.2 C1.5 51.8 4.6 52.9 4.4 50.9 C4.3 48.9 1.8 47.7 3 47 C4.2 46.3 0.4 41.6 0.4 39.7 C1.9 40 3.6 39.7 3.5 39.4 C2 37.5 1.2 36 0.8 34.5 C0.5 33 2.4 33.7 3.6 33 C2.9 32.3 1.9 30.3 2.8 29 C3.7 27.7 5.5 27.8 6.4 27.4 C5.7 26.6 5.4 25.4 5.6 23.8 C5.9 21.4 7 20 8.9 19.5 C10.8 18.9 10.2 19 10.2 18.8 C10.2 18.7 10.4 17.2 11.1 16 C11.7 15 11.9 15.3 12.5 15.4 C12.7 15.2 12.9 15.1 13.2 15 z" stroke="#000000" stroke-width="3" opacity="0.15" id="u1" /></g><path d="M21 57.7 C18.9 59.7 17.8 60.8 16.2 61.6 C13.8 63 11.2 63 10 62.7 C8.1 62.2 6.7 61.2 5.9 59.8 C7.7 59.8 8.7 59.8 8.9 59.8 C7.2 58.7 5.3 57.2 3.8 55.5 C3.4 55.1 2.7 54.1 2.7 53.2 C2.7 51.8 4.6 52.7 4.4 50.7 C4.3 48.7 1.5 47.4 2.7 46.7 C3.9 46 1.5 41.1 1.5 39.2 C3 39.5 3.7 39.5 3.6 39.2 C2 37.5 1.3 36.3 1.5 35.4 C1.7 34.5 2.4 33.7 3.6 33 C2.9 32.3 2.9 31.3 3.8 30 C4.7 28.7 5.5 27.8 6.4 27.4 C5.7 26.6 5.4 25.4 5.6 23.8 C5.9 21.4 6.2 20.4 8.1 19.9 C10 19.3 9.7 19.3 9.7 19.1 C9.7 19 10.4 17.1 11.1 15.9 C11.8 14.7 11.9 15.3 12.9 15.3 C13.9 15.3 13.5 13.3 13.9 12.2 C14.2 11.1 15.8 12.1 16.9 12.2 C17.7 10 16.3 11.1 16.9 9.4 C17.5 7.7 19.2 8.6 21 9 C22.8 9.4 22.9 7 23.9 6.4 C24.9 5.8 25.5 7.4 27.1 7.1 C28.7 6.8 26.8 5.1 27.7 5.3 C28.4 4.6 31.5 6.6 30.7 5.8 C29.9 5 31.3 3.9 32.5 3.9 C33.7 3.9 34.4 5.4 35.7 5.3 C36.9 5.2 36.3 4.2 37.6 3.5 C38.9 2.8 40.2 6.3 41.1 3.1 C42.5 2.9 44.3 3.3 46.1 4.1 C46.8 4.4 48.2 5.5 48.5 5.6 C49.8 5.8 50 2.9 52.1 3.6 C54.2 4.3 54 6.7 55.6 7 C57.2 7.3 58.6 4.8 59.6 5.2 C60.6 5.6 58.8 7.6 60.2 8.2 C61.6 8.8 63.3 7.1 64.9 7.3 C66.5 7.5 65.5 8.9 65.8 9.8 C67.6 9.1 67.8 8.8 68.9 7 C71.3 10 70 11.6 70 12.4 C71.6 12.1 71.5 9.9 74.1 11 C76.7 12.1 75.2 15.1 75.9 15.8 C76.6 16.5 78.2 15.4 78.8 15.8 C80.2 16.7 80.3 18.5 80.6 19 C80.9 19.5 82.7 17.7 83.3 19 C83.9 20.3 82.3 22.8 82.3 22.8 C83.5 22.9 84.6 23.7 85.6 25.3 C87.1 27.6 86.7 29.7 86 30.5 C85.3 31.2 85 31.8 85 31.8 C86 32.6 86.6 33.4 86.8 34.1 C87 35.2 86.3 36.9 84.6 36.9 C86.4 38.5 87.3 37.7 87.3 40.2 C87.3 41.8 87 42.8 86.2 43.1 C87.3 45.5 86.5 47.4 83.7 48.9 C85.8 49.4 85.1 49.7 84 50.6 C82.9 51.5 82.8 50.6 82.8 51.3 C82.8 52 84.6 52.1 84 53 C83.4 53.9 81.8 54.3 80 54.4 C78.2 54.5 78.2 54.8 78.2 54.8 C79.6 55 80.1 55.6 79.7 56.4 C79.1 57.6 77 57 76.6 57.1 C77.3 58 79.1 58.4 77.4 59 C75.7 59.7 74.3 59.6 71.6 59 C68.9 58.4 69.3 58.1 69.3 58.1 C70.8 59.3 71 60 70 60 C68.5 60.1 65.8 59.2 64.9 58.3 C64 57.4 60.4 54.3 58 53.9 C55.6 53.5 55 56.7 53.9 56.9 C53.2 57 52.6 56.2 52.2 54.5 C52 56.1 51.5 56.9 50.7 56.9 C49.5 56.9 49.9 55.6 48.6 55.2 C47.3 54.8 50.5 57.6 47.7 57.6 C44.9 57.6 46 55.1 43.3 54.9 C40.7 54.7 40.7 55.6 40.6 57 C40.5 58.4 38.6 58.3 37.9 56.5 C37.3 54.8 38.2 54.8 36.5 56.5 C34.8 58.2 34.9 56.5 34.6 55.5 C34.3 54.5 34 54.1 32.9 55.5 C31.7 56.9 30.6 54.5 28.6 54.5 C26.6 54.5 26.6 54.5 24.9 55.2 C23.7 55.6 23.1 55.7 21 57.7 z" id="v1" fill="#32363A" /><path d="M8.6 26.9 C8.8 26.7 9.1 26.5 9.4 26.3 C8.8 25.7 8.8 24.8 9.6 23.7 C10.4 22.6 11.1 21.8 11.8 21.5 C11.2 20.8 10.9 19.7 11.1 18.4 C11.3 16.3 11.6 15.5 13.2 15 C14.8 14.5 14.5 14.5 14.5 14.3 C14.5 14.2 15.1 12.6 15.7 11.5 C16.3 10.4 16.4 11 17.3 11 C18.2 11 17.9 9.3 18.1 8.4 C18.3 7.5 19.7 8.3 20.6 8.4 C21.3 6.5 20.1 7.5 20.6 6 C21.1 4.5 22.6 5.4 24.1 5.7 C25.8 6 26 3.9 26.8 3.4 C27.6 2.9 28.2 4.3 29.5 4 C30.8 3.7 29.2 2.3 30 2.4 C30.6 1.8 33.2 3.5 32.5 2.8 C31.8 2.1 33 1.1 34 1.1 C35 1.1 35.7 2.4 36.7 2.3 C37.7 2.2 37.2 1.3 38.4 0.8 C39.5 0.2 40.6 3.2 41.4 0.5 C42.6 0.3 44.1 0.7 45.7 1.3 C46.3 1.5 47.5 2.5 47.8 2.6 C48.9 2.8 49.1 0.3 50.9 0.8 C52.7 1.3 52.5 3.6 53.9 3.9 C55.3 4.2 56.5 2 57.3 2.3 C58.1 2.6 56.8 4.5 58 5 C59.2 5.5 60.7 4.1 62 4.3 C63.4 4.5 62.5 5.7 62.7 6.4 C64.3 5.8 64.4 5.5 65.4 4 C67.5 6.5 66.3 8 66.4 8.7 C67.8 8.5 67.7 6.6 69.9 7.5 C72.1 8.4 70.8 11 71.4 11.6 C72 12.2 73.4 11.3 73.9 11.6 C75.1 12.4 75.2 14 75.4 14.4 C75.6 14.8 77.2 13.3 77.7 14.4 C78.2 15.5 76.9 17.6 76.9 17.6 C78 17.7 78.9 18.4 79.8 19.8 C80 20.1 80.1 20.4 80.2 20.6 C79.9 20.8 79.5 21 79 21 C79.7 21.6 80.3 21.8 80.7 22.1 C80.8 23 80.5 23.8 80.2 24.1 C79.6 24.7 79.4 25.2 79.4 25.2 C79.9 25.6 80.2 25.9 80.5 26.3 C80.8 26.9 80.9 27.5 80.9 28.1 C80.7 28.9 80.1 29.7 79.1 29.6 C79.4 29.9 79.7 30 79.9 30.2 C79.5 30.6 79 31 78.3 31.3 C80.1 31.7 79.5 32 78.5 32.7 C77.6 33.5 77.5 32.7 77.5 33.3 C77.5 33.9 79.1 34 78.5 34.8 C78 35.6 76.6 35.9 75 36 C73.4 36.1 73.4 36.3 73.4 36.3 C74.6 36.5 75.1 37 74.7 37.7 C74.2 38.8 71.7 36.7 71.4 36.9 C72 37.7 72.9 37.6 71.4 38.1 C69.9 38.7 70.2 38.8 67.9 38.3 C65.6 37.8 65.4 37.7 65.4 37.7 C65.4 39.2 65 39.9 64.1 40 C62.9 40.1 61 38.9 60.2 38.2 C59.4 37.5 58.1 38.6 56.1 38.2 C54.1 37.8 55 38.9 54 39 C53.4 39.1 52.8 39.1 52.4 39 C52.2 39.7 51.7 40 51 40 C50 40 50.3 39.3 49.2 39 C48.1 38.7 50.3 40 47.9 40 C45.5 40 46.6 38.5 44.4 38.3 C42.1 38.1 42.5 37.8 42.4 38.9 C42.3 40.1 40.1 40.4 39.6 38.9 C39.1 37.4 39.1 36.2 37.7 37.7 C36.2 39.2 37.1 39.8 36.9 38.9 C36.7 38.1 35.7 37.7 34.7 38.9 C33.7 40.1 32.9 39.9 31.2 39.9 C29.5 39.9 29.2 37.7 27.8 38.2 C26.7 38.7 26.2 37.1 24.4 38.8 C22.6 40.5 22.2 40 20.9 40.7 C18.8 41.8 19.4 41.6 18.4 41.4 C18.1 41.3 16.8 40.9 16.6 40.7 C15.8 40.4 15.6 40.1 16 39.8 C16.2 38.3 16.4 37.5 16.6 37.5 C15.1 36.5 11.1 38.3 9.8 36.9 C9.5 36.5 8.9 35.7 8.9 34.9 C8.9 33.7 10.5 34.5 10.4 32.8 C10.3 31 7.9 30 8.9 29.4 C9.2 29.2 8.9 28.1 8.6 26.9 z" id="w1" fill="#232628" /></g></g></g><g id="x1"><g transform="translate(102.3, 90.99997) translate(42, 3)" id="y1"><path d="M49.9 76.8 C49.7 75.5 49.3 74.2 48.8 72.8 C47.8 70.2 46 67.8 43.8 65.3 C43 63.2 42.2 60.6 40.1 56.4 C38.2 52.7 32.7 53.1 30.1 47.3 C28.8 42 28.2 36.5 28.4 31.1 C28.4 30.4 28.5 29.6 28.4 28.9 C28.6 18.6 28.7 14.3 34.2 10 C36.3 8.4 39.1 8.4 39.2 6.8 C39.5 2.4 30.6 0.9 25.1 0.7 C19.5 0.9 10.6 2.4 11 6.8 C11.1 8.4 13.9 8.4 16 10 C21.5 14.3 21.6 18.6 21.8 28.9 C21.8 29.6 21.8 30.4 21.8 31.1 C22 36.6 21.4 42 20.1 47.3 C17.5 53.1 12.1 52.7 10.1 56.4 C8 60.6 7.1 63.2 6.4 65.3 C4.2 67.8 2.3 70.1 1.4 72.8 C0.9 74.2 0.5 75.5 0.3 76.8 C1.2 93.2 11.8 94.6 25.1 94 C38.3 94.6 48.9 93.2 49.9 76.8 z" id="z1" fill="#FEFEFE" /><path d="M49.9 76.8 C48.9 93.2 38.3 94.6 25.1 94 C11.8 94.6 1.2 93.2 0.3 76.8 C0.5 75.5 0.9 74.2 1.4 72.8 C2.3 70.1 4.2 67.8 6.4 65.3 C7.1 63.2 8 60.6 10.1 56.4 C12.1 52.7 17.5 53.1 20.1 47.3 C21.4 42 22 36.6 21.8 31.1 C21.8 30.4 21.8 29.6 21.8 28.9 C21.6 18.6 21.5 14.3 16 10 C13.9 8.4 11.1 8.4 11 6.8 C10.6 2.4 19.5 0.9 25.1 0.7 C30.6 0.9 39.5 2.4 39.2 6.8 C39.1 8.4 36.3 8.4 34.2 10 C28.7 14.3 28.6 18.6 28.4 28.9 C28.5 29.6 28.4 30.4 28.4 31.1 C28.2 36.5 28.8 42 30.1 47.3 C32.7 53.1 38.2 52.7 40.1 56.4 C42.2 60.6 43 63.2 43.8 65.3 C46 67.8 47.8 70.2 48.8 72.8 C49.3 74.2 49.7 75.5 49.9 76.8 z M47.2 71.2 C46.2 68.7 44.3 66.5 42.2 64.1 C41.4 62.1 40.9 60.6 38.9 56.6 C37.1 53.1 31.3 52.6 28.8 47.1 C27.6 42 27.8 29.4 27.7 29 C27.9 19.2 28 14 33.3 9.9 C35.3 8.4 38.3 7.9 38.4 6.4 C38.9 3.2 30.4 1.2 25.2 1 C19.9 1.2 11.8 2.2 12.2 6.4 C12.4 8 15 8.5 17 10.1 C22.2 14.2 22 19.2 22.2 29 C22.2 29.7 22.5 43.6 20.6 47.9 C18.1 53.4 13.1 52.7 11.2 56.2 C9.2 60.2 8.3 62.2 7.6 64.2 C8.3 66.2 3.9 68.8 3 71.3 C2.5 72.6 2 73.6 1.8 74.8 C2.7 90.4 12.4 91.5 25.1 90.9 C37.7 91.5 47.7 91.5 48.7 75.9 C48.5 74.6 47.7 72.6 47.2 71.2 z" opacity="0.15" id="a2" /></g><g transform="translate(169.3, 179.8) scale(0.7) translate(-169.3, -176.8) translate(103.8, 103) translate(38, 64)" id="b2"><g id="c2"><path d="M40.7 9.3 C36.3 7.2 33.8 11.5 29 11.5 C28.5 11.5 26.5 11.5 26 11.5 C21.2 11.6 18.7 7.3 14.3 9.3 C9.4 11.6 -0.1 5.3 0.5 6.2 C0.9 11.3 6.5 16.8 9.4 16.6 C10.4 16.5 14.1 16.3 15 16 C18.8 14.7 23.5 20.9 27.6 20.9 C31.7 20.9 36.3 14.7 40.1 16 C41 16.3 44.7 16.5 45.7 16.6 C48.5 16.8 54.2 11.3 54.6 6.2 C55.1 5.3 45.6 11.6 40.7 9.3 z" id="d2" fill="#965622" /><path d="M51.4 3.1 C50.2 3.8 48.8 6.6 46.8 7.6 C45.9 8.1 43.9 8.4 42.3 8 C41.3 7.4 40.1 6.6 38.6 5.6 C35.3 3.3 31.6 0.7 27.5 0.7 C23.4 0.7 19.7 3.3 16.4 5.6 C14.9 6.6 13.8 7.4 12.7 8 C11 8.4 9 8.1 8.1 7.7 C6.2 6.7 4.8 3.9 3.5 3.2 C2.4 2.5 0.2 3.8 0.2 5.3 C0 10.6 8.1 12.8 10.9 11.9 C12 11.7 13.1 11.3 14.3 10.7 C16.5 12 19.9 15.9 27.5 16.2 C35.1 16.5 38.5 12 40.7 10.7 C41.8 11.3 42.9 11.8 44 11.9 C46.8 12.8 54.9 10.6 54.7 5.3 C54.7 3.7 52.5 2.4 51.4 3.1 z" id="e2" fill="#282421" /><path d="M36.4 8.8 C36.2 7.9 35.1 7.4 34.2 7.2 C32 6.5 29.7 5.8 27.5 5.9 C25.2 5.8 23 6.5 20.8 7.2 C19.9 7.5 18.9 7.9 18.6 8.8 C18.4 9.7 18 11.8 18.7 12.4 C20.3 13.7 19.2 18.9 27.5 18.9 C35.8 18.9 34.6 13.8 36.2 12.4 C37 11.7 36.6 9.7 36.4 8.8 z" id="f2" fill="#CE5253" /></g></g><g transform="translate(106.9, 102.4) translate(51, 56)" id="g2"><g id="h2"><path d="M21.7 7 C20.6 1.1 14.2 0.3 11.5 0.3 C8.8 0.3 2.4 1.1 1.3 7 C0.5 11.1 1.3 11.5 1.3 11.5 L11.5 11.5 L21.7 11.5 C21.7 11.5 22.4 11.2 21.7 7 z" id="i2" fill="#282421" /><path d="M18.3 4.3 C18.4 3.8 17.8 3.1 17.5 2.8 C17 2.4 15.4 1.2 11.5 1.1 C7.6 1 6 2.3 5.5 2.8 C5.2 3.1 4.6 3.9 4.7 4.3 C6.2 3.5 9.8 2.8 11.5 6.6 C12.9 3.1 16.8 3.4 18.3 4.3 z" id="j2" fill="#FEFEFE" /></g></g><g transform="translate(93.3, 71.39996) translate(53, 56)" id="k2"><g id="l2"><path d="M11 8.3 C11 7.7 11 4.9 9.8 3 C8.6 1.1 7.4 0.6 5.8 0.2 C4.2 -0.2 2.3 0 1.3 0.9 C0.3 1.8 0 4 0 5.5 C0 7 0.8 8.8 2.8 9.4 C4.1 9.8 6 9.8 8.6 9.4 C10.2 9.1 11 8.8 11 8.3 z" id="m2" /><path d="M5 4.4 C5.6 4.4 6.4 3.6 6.4 3 C6.4 2.4 5.6 2 5 2 C4.4 2 4 2.4 4 3 C4 3.6 4.4 4.4 5 4.4 z" id="n2" fill="#FFFFFE" /></g></g><g transform="translate(99.3, 71.39996) translate(82, 56)" id="o2"><g id="p2"><path d="M0 8.3 C0 7.7 0 4.9 1.2 3 C2.4 1.1 3.6 0.6 5.2 0.2 C6.8 -0.2 8.7 0 9.7 0.9 C10.7 1.8 11 4 11 5.5 C11 7 10.2 8.8 8.2 9.3 C6.9 9.7 5 9.7 2.4 9.3 C0.8 9.1 0 8.8 0 8.3 z" id="q2" /><path d="M6 4.4 C6.6 4.4 7.4 3.6 7.4 3 C7.4 2.4 6.6 2 6 2 C5.4 2 5 2.4 5 3 C5 3.6 5.4 4.4 6 4.4 z" id="r2" fill="#FFFFFE" /></g></g></g></g></g><g id="s2"><g transform="matrix(1, 0, 0, 1, 0, -0.02005005)"><g transform="translate(138.5468, 195.1751) scale(0.9651899, 0.9770258)"><g transform="translate(191, 2378) translate(-2405.6, -2974)" id="t2"><g transform="translate(14, 5)" id="u2"><path d="M2264.1 591.4 C2262.1 591.4 2260.7 593.4 2259.3 594.6 C2257.4 595.9 2255.3 597.1 2253.3 598.1 C2248.5 600.6 2243.4 602.8 2238.1 604.2 C2237.2 604.4 2236 604.4 2235.3 604.9 C2234.5 605.5 2234.1 606.6 2234 607.4 C2233.8 608.3 2232.7 611.6 2234.6 611.6 C2239.4 611.5 2244.1 609.8 2248.5 608.1 C2253.3 606.1 2258.2 603.9 2262.6 600.9 C2264.1 599.8 2265.7 598.8 2267 597.4 C2268.6 595.2 2267.3 591.4 2264.1 591.4 z" id="v2" fill="#935B09" /><path d="M2233.2 611.1 C2232.6 611.1 2232.3 607.2 2232.3 606.7 C2232.4 605.2 2234.5 605.6 2235.7 605.4 C2240.3 604.6 2244.8 602.8 2248.9 600.9 C2252.9 599.1 2257 597.1 2260.6 594.4 C2262.1 593.2 2263.4 591 2265.6 592.4 C2268 594.1 2266.4 596.4 2264.8 597.7 C2260.6 601.5 2255 604.1 2249.8 606.3 C2244.6 608.7 2238.8 611.1 2233.2 611.1 z" id="w2" fill="#F3D240" /><path d="M2248 602.6 C2247.5 602 2246.6 602 2246 602.4 C2245.4 603 2246 604.5 2246 605.2 C2246.2 604.6 2246.6 603.9 2247.2 603.5 C2247.4 603.3 2247.8 603.3 2248 603.3 C2248.1 603.3 2248.1 603 2248 602.6 z" id="x2" fill="#FEF91F" /><path d="M2245.1 604.3 C2244.9 603.6 2243.8 603.5 2243.1 603.9 C2242.4 604.4 2242.9 605.9 2242.7 606.6 C2243.1 606 2243.4 605.4 2244 605.1 C2244.7 604.7 2245 605.2 2245.1 604.3 z" id="y2" fill="#FEF91F" /><path d="M2242.2 605.2 C2242 604.5 2240.9 604.4 2240.2 604.8 C2239.5 605.3 2240 606.8 2239.8 607.5 C2240.2 606.9 2240.5 606.3 2241.1 606 C2241.8 605.8 2242.1 606.2 2242.2 605.2 z" id="z2" fill="#FEF91F" /><path d="M2256.7 598.5 C2256.2 597.8 2255.2 598.1 2254.7 598.6 C2254 599.3 2254.6 600.7 2254.6 601.7 C2254.8 601.1 2255.2 600.4 2255.8 599.9 C2256 599.7 2256.4 599.4 2256.7 599.5 C2256.9 599.1 2256.9 598.7 2256.7 598.5 z" id="a3" fill="#FEF91F" /><path d="M2259.2 596.6 C2258.7 595.9 2257.8 596.5 2257.4 597.1 C2256.8 597.9 2257.4 599.2 2257.4 600.2 C2257.6 599.5 2258.3 597.6 2259.4 597.8 C2259.4 597.3 2259.4 597 2259.2 596.6 z" id="b3" fill="#FEF91F" /><path d="M2261.8 595.1 C2261.3 594.4 2260.4 595 2260 595.6 C2259.4 596.4 2260 597.7 2260 598.7 C2260.2 598 2260.9 596.1 2262 596.3 C2262 595.8 2261.9 595.4 2261.8 595.1 z" id="c3" fill="#FEF91F" /><path d="M2264.5 592.8 C2264 592.1 2263.1 592.7 2262.7 593.3 C2262.1 594.1 2262.7 595.4 2262.7 596.4 C2262.9 595.7 2263.6 593.8 2264.7 594 C2264.7 593.5 2264.6 593.2 2264.5 592.8 z" id="d3" fill="#FEF91F" /><path d="M2254.1 599.8 C2253.6 599.1 2252.6 599.4 2252.1 599.9 C2251.4 600.6 2252 602 2252 603 C2252.2 602.4 2252.7 601.6 2253.4 601.3 C2253.9 601.1 2254 601.5 2254 600.8 C2254.1 600.5 2254.1 600.1 2254.1 599.8 z" id="e3" fill="#FEF91F" /><path d="M2250.9 601.6 C2250.4 601 2249.5 601 2248.9 601.4 C2248.3 602 2248.9 603.5 2248.9 604.2 C2249.1 603.6 2249.5 602.9 2250.1 602.5 C2250.3 602.3 2250.7 602.3 2250.9 602.3 C2251 602.3 2251 601.9 2250.9 601.6 z" id="f3" fill="#FEF91F" /><path d="M2266.6 594.4 C2266.5 593.8 2266.2 593.5 2265.9 593.1 C2263.5 596.2 2260.2 598.5 2257.1 600.5 C2253.8 602.5 2250.4 604.3 2246.7 605.6 C2243.5 606.8 2240.3 607.7 2237 608.7 C2235.9 609.1 2234.9 609.3 2233.9 609.6 C2233 610.1 2233 610.5 2234 610.8 C2239 610 2243.8 608.4 2248.5 606.7 C2252.2 605.3 2255.7 603.5 2259 601.5 C2262 599.7 2265.1 597.5 2266.6 594.4 C2266.6 593.9 2264.5 598.5 2266.6 594.4 z" id="g3" fill="#543103" /><path d="M2237.8 610.5 C2238.4 610.4 2239.1 610.4 2239.5 609.8 C2239.9 609.2 2240.1 608.5 2240.1 607.8 C2240.2 607.4 2240.3 604.4 2239.9 604.4 C2239.7 604.5 2239 604.6 2239 604.8 C2239.2 605.4 2239.2 606.1 2239.2 606.8 C2239.2 607.5 2239 608.1 2238.7 608.8 C2238.3 609.5 2237.9 610 2237.8 610.5 z" id="h3" fill="#935B09" /><path d="M2242.8 603.6 C2242.2 603.8 2241.9 603.8 2241.9 604.4 C2242 605.1 2242.1 605.8 2242 606.5 C2241.9 607.2 2241.8 607.9 2241.4 608.5 C2241.2 609 2240.7 609.4 2240.7 609.9 C2241.2 609.8 2241.6 609.7 2242.1 609.4 C2242.5 608.8 2242.7 608.1 2242.8 607.4 C2243.1 606.2 2243 604.7 2242.8 603.6 C2242.4 603.7 2243.3 605.4 2242.8 603.6 z" id="i3" fill="#935B09" /><path d="M2245.5 602.5 C2245.1 602.6 2244.9 602.7 2244.6 602.9 C2245.1 603.8 2245.2 605 2245 606.1 C2244.9 606.6 2244.1 608.5 2244.3 608.7 C2244.9 608.5 2245.5 608.5 2245.7 607.9 C2245.9 607.3 2246.1 606.8 2246.1 606.2 C2246.2 605 2246 603.7 2245.5 602.5 C2245.1 602.6 2246.2 604.4 2245.5 602.5 z" id="j3" fill="#935B09" /><path d="M2247.6 607.5 C2248.2 607.3 2248.9 607.3 2249 606.6 C2249.2 606 2249.2 605.4 2249.2 604.8 C2249.2 603.5 2249 602.4 2248.6 601.3 C2248 601.5 2247.5 601.5 2247.7 602.2 C2247.9 602.8 2247.9 603.4 2247.9 603.9 C2248.3 605 2248.1 606.3 2247.6 607.5 C2248 607.2 2248.3 605.7 2247.6 607.5 z" id="k3" fill="#935B09" /><path d="M2250.8 606.2 C2251.4 606 2252.1 606 2252.1 605.3 C2252.2 604.7 2252.3 604.2 2252.3 603.6 C2252.3 602.3 2252.1 601.1 2251.5 599.9 C2250.9 600.1 2250.4 600.1 2250.7 600.8 C2250.9 601.4 2251.1 601.9 2251.2 602.5 C2251.3 603.7 2251.2 605 2250.8 606.2 C2251.2 605.9 2251.4 604.4 2250.8 606.2 z" id="l3" fill="#935B09" /><path d="M2254.5 598.4 C2253.9 598.8 2253.4 598.6 2253.7 599.3 C2253.9 599.9 2254.1 600.6 2254.2 601.3 C2254.3 602.6 2253.7 603.7 2253.7 604.8 C2254.2 604.6 2254.6 604.4 2255 604.2 C2255.2 603.5 2255.2 602.8 2255.4 602.1 C2255.2 600.8 2255 599.6 2254.5 598.4 C2254.2 598.6 2255.3 600.3 2254.5 598.4 z" id="m3" fill="#935B09" /><path d="M2258 602.5 C2258.2 601.6 2258.1 600.5 2257.9 599.4 C2257.7 598.6 2257 597.5 2257 596.8 C2256.8 597 2256.4 597.2 2256.1 597.4 C2257 599.1 2257.3 601.2 2256.8 603.1 C2257.3 603 2257.6 602.7 2258 602.5 C2258.3 600.6 2257.6 602.7 2258 602.5 z" id="n3" fill="#935B09" /><path d="M2259.6 601.6 C2260 601.4 2260.4 601.1 2260.8 600.9 C2260.9 600.2 2260.9 599.6 2260.7 598.9 C2260.5 597.6 2260.1 596.5 2259.4 595.5 C2258.9 595.9 2258.5 596 2258.7 596.4 C2258.9 596.9 2259.3 597.3 2259.4 597.9 C2259.8 599.1 2259.9 600.4 2259.6 601.6 C2259.6 601.4 2259.6 601.4 2259.6 601.6 C2260.1 601.3 2259.6 601.6 2259.6 601.6 z" id="o3" fill="#935B09" /><path d="M2263.6 598.8 C2263.6 596.9 2262.9 594.9 2261.6 593.5 C2261.4 593.7 2261 594.1 2260.8 594.2 C2262.1 595.7 2262.6 597.7 2262.5 599.5 C2263.1 599.3 2263.4 599.1 2263.6 598.8 C2263.6 597 2263.4 599.1 2263.6 598.8 z" id="p3" fill="#935B09" /><path d="M2265.1 597.7 C2266 596.9 2266.4 596.5 2266 595.3 C2265.8 594.6 2265.6 593.9 2265.3 593.2 C2264.9 592.4 2264.5 592.1 2263.5 592.3 C2264.7 593.9 2265.2 595.8 2265.1 597.7 C2265.5 597.3 2265.2 595.8 2265.1 597.7 z" id="q3" fill="#935B09" /><path d="M2205.1 591.4 C2207.1 591.4 2208.5 593.4 2209.9 594.6 C2211.8 595.9 2213.9 597.1 2215.9 598.1 C2220.7 600.6 2225.8 602.8 2231.1 604.2 C2232 604.4 2233.2 604.4 2233.9 604.9 C2234.7 605.5 2235.1 606.6 2235.2 607.4 C2235.4 608.3 2236.5 611.6 2234.6 611.6 C2229.8 611.5 2225.1 609.8 2220.7 608.1 C2215.9 606.1 2211 603.9 2206.6 600.9 C2205.1 599.8 2203.5 598.8 2202.2 597.4 C2200.6 595.2 2201.9 591.4 2205.1 591.4 z" id="r3" fill="#935B09" /><path d="M2235.9 611.1 C2236.5 611.1 2236.8 607.2 2236.8 606.7 C2236.7 605.2 2234.6 605.6 2233.4 605.4 C2228.8 604.6 2224.3 602.8 2220.2 600.9 C2216.2 599.1 2212.1 597.1 2208.5 594.4 C2207 593.2 2205.7 591 2203.5 592.4 C2201.1 594.1 2202.7 596.4 2204.3 597.7 C2208.5 601.5 2214.1 604.1 2219.3 606.3 C2224.6 608.7 2230.3 611.1 2235.9 611.1 z" id="s3" fill="#F3D240" /><path d="M2221.1 602.6 C2221.6 602 2222.5 602 2223.1 602.4 C2223.7 603 2223.1 604.5 2223.1 605.2 C2222.9 604.6 2222.5 603.9 2221.9 603.5 C2221.7 603.3 2221.3 603.3 2221.1 603.3 C2221 603.3 2221 603 2221.1 602.6 z" id="t3" fill="#FEF91F" /><path d="M2224 604.3 C2224.2 603.6 2225.3 603.5 2226 603.9 C2226.7 604.4 2226.2 605.9 2226.4 606.6 C2226 606 2225.7 605.4 2225.1 605.1 C2224.4 604.7 2224.2 605.2 2224 604.3 z" id="u3" fill="#FEF91F" /><path d="M2227 605.2 C2227.2 604.5 2228.3 604.4 2229 604.8 C2229.7 605.3 2229.2 606.8 2229.4 607.5 C2229 606.9 2228.7 606.3 2228.1 606 C2227.3 605.8 2227.1 606.2 2227 605.2 z" id="v3" fill="#FEF91F" /><path d="M2212.5 598.5 C2213 597.8 2214 598.1 2214.5 598.6 C2215.2 599.3 2214.6 600.7 2214.6 601.7 C2214.4 601.1 2214 600.4 2213.4 599.9 C2213.2 599.7 2212.8 599.4 2212.5 599.5 C2212.2 599.1 2212.2 598.7 2212.5 598.5 z" id="w3" fill="#FEF91F" /><path d="M2209.9 596.6 C2210.4 595.9 2211.3 596.5 2211.7 597.1 C2212.3 597.9 2211.7 599.2 2211.7 600.2 C2211.5 599.5 2210.8 597.6 2209.7 597.8 C2209.7 597.3 2209.8 597 2209.9 596.6 z" id="x3" fill="#FEF91F" /><path d="M2207.4 595.1 C2207.9 594.4 2208.8 595 2209.2 595.6 C2209.8 596.4 2209.2 597.7 2209.2 598.7 C2209 598 2208.3 596.1 2207.2 596.3 C2207.1 595.8 2207.2 595.4 2207.4 595.1 z" id="y3" fill="#FEF91F" /><path d="M2204.7 592.8 C2205.2 592.1 2206.1 592.7 2206.5 593.3 C2207.1 594.1 2206.5 595.4 2206.5 596.4 C2206.3 595.7 2205.6 593.8 2204.5 594 C2204.5 593.5 2204.6 593.2 2204.7 592.8 z" id="z3" fill="#FEF91F" /><path d="M2215.1 599.8 C2215.6 599.1 2216.6 599.4 2217.1 599.9 C2217.8 600.6 2217.2 602 2217.2 603 C2217 602.4 2216.5 601.6 2215.8 601.3 C2215.3 601.1 2215.2 601.5 2215.2 600.8 C2215.1 600.5 2215.1 600.1 2215.1 599.8 z" id="a4" fill="#FEF91F" /><path d="M2218.1 601.6 C2218.6 601 2219.5 601 2220.1 601.4 C2220.7 602 2220.1 603.5 2220.1 604.2 C2219.9 603.6 2219.5 602.9 2218.9 602.5 C2218.7 602.3 2218.3 602.3 2218.1 602.3 C2218.1 602.3 2218.1 601.9 2218.1 601.6 z" id="b4" fill="#FEF91F" /><path d="M2202.5 594.4 C2202.6 593.8 2202.9 593.5 2203.2 593.1 C2205.6 596.2 2208.9 598.5 2212 600.5 C2215.3 602.5 2218.7 604.3 2222.4 605.6 C2225.6 606.8 2228.8 607.7 2232.1 608.7 C2233.2 609.1 2234.2 609.3 2235.2 609.6 C2236.1 610.1 2236.1 610.5 2235.1 610.8 C2230.1 610 2225.3 608.4 2220.6 606.7 C2216.9 605.3 2213.4 603.5 2210.1 601.5 C2207.1 599.7 2204.1 597.5 2202.5 594.4 C2202.6 593.9 2204.6 598.5 2202.5 594.4 z" id="c4" fill="#543103" /><path d="M2231.3 610.5 C2230.7 610.4 2230 610.4 2229.6 609.8 C2229.2 609.2 2229 608.5 2229 607.8 C2228.9 607.4 2228.8 604.4 2229.2 604.4 C2229.4 604.5 2230.1 604.6 2230.1 604.8 C2229.9 605.4 2229.9 606.1 2229.9 606.8 C2229.9 607.5 2230.1 608.1 2230.4 608.8 C2230.7 609.5 2231.2 610 2231.3 610.5 z" id="d4" fill="#935B09" /><path d="M2226.4 603.6 C2227 603.8 2227.3 603.8 2227.3 604.4 C2227.2 605.1 2227.1 605.8 2227.2 606.5 C2227.3 607.2 2227.4 607.9 2227.8 608.5 C2228 609 2228.5 609.4 2228.5 609.9 C2228 609.8 2227.6 609.7 2227.1 609.4 C2226.7 608.8 2226.5 608.1 2226.4 607.4 C2226 606.2 2226 604.7 2226.4 603.6 C2226.7 603.7 2225.9 605.4 2226.4 603.6 z" id="e4" fill="#935B09" /><path d="M2223.6 602.5 C2224 602.6 2224.2 602.7 2224.5 602.9 C2224 603.8 2223.9 605 2224.1 606.1 C2224.2 606.6 2225 608.5 2224.8 608.7 C2224.2 608.5 2223.6 608.5 2223.4 607.9 C2223.2 607.3 2223 606.8 2223 606.2 C2223 605 2223.2 603.7 2223.6 602.5 C2223.9 602.6 2222.9 604.4 2223.6 602.5 z" id="f4" fill="#935B09" /><path d="M2221.6 607.5 C2221 607.3 2220.3 607.3 2220.2 606.6 C2220 606 2220 605.4 2220 604.8 C2220 603.5 2220.2 602.4 2220.6 601.3 C2221.2 601.5 2221.7 601.5 2221.5 602.2 C2221.3 602.8 2221.3 603.4 2221.3 603.9 C2220.9 605 2221 606.3 2221.6 607.5 C2221.1 607.2 2220.7 605.7 2221.6 607.5 z" id="g4" fill="#935B09" /><path d="M2218.4 606.2 C2217.8 606 2217.1 606 2217.1 605.3 C2217 604.7 2216.9 604.2 2216.9 603.6 C2216.9 602.3 2217.1 601.1 2217.7 599.9 C2218.3 600.1 2218.8 600.1 2218.5 600.8 C2218.3 601.4 2218.1 601.9 2218 602.5 C2217.8 603.7 2217.9 605 2218.4 606.2 C2217.9 605.9 2217.8 604.4 2218.4 606.2 z" id="h4" fill="#935B09" /><path d="M2214.6 598.4 C2215.2 598.8 2215.7 598.6 2215.4 599.3 C2215.2 599.9 2215 600.6 2214.9 601.3 C2214.8 602.6 2215.4 603.7 2215.4 604.8 C2214.9 604.6 2214.5 604.4 2214.1 604.2 C2213.9 603.5 2213.9 602.8 2213.7 602.1 C2213.9 600.8 2214.1 599.6 2214.6 598.4 C2215 598.6 2213.9 600.3 2214.6 598.4 z" id="i4" fill="#935B09" /><path d="M2211.1 602.5 C2210.9 601.6 2211 600.5 2211.2 599.4 C2211.4 598.6 2212.1 597.5 2212.1 596.8 C2212.3 597 2212.7 597.2 2213 597.4 C2212.1 599.1 2211.8 601.2 2212.3 603.1 C2211.9 603 2211.4 602.7 2211.1 602.5 C2210.8 600.6 2211.4 602.7 2211.1 602.5 z" id="j4" fill="#935B09" /><path d="M2209.5 601.6 C2209.1 601.4 2208.7 601.1 2208.3 600.9 C2208.2 600.2 2208.2 599.6 2208.4 598.9 C2208.6 597.6 2209 596.5 2209.7 595.5 C2210.2 595.9 2210.6 596 2210.4 596.4 C2210.2 596.9 2209.8 597.3 2209.7 597.9 C2209.3 599.1 2209.2 600.4 2209.5 601.6 C2209.5 601.4 2209.5 601.4 2209.5 601.6 C2209.1 601.3 2209.5 601.6 2209.5 601.6 z" id="k4" fill="#935B09" /><path d="M2205.5 598.8 C2205.5 596.9 2206.2 594.9 2207.5 593.5 C2207.7 593.7 2208.1 594.1 2208.3 594.2 C2207 595.7 2206.5 597.7 2206.6 599.5 C2206.1 599.3 2205.8 599.1 2205.5 598.8 C2205.5 597 2205.8 599.1 2205.5 598.8 z" id="l4" fill="#935B09" /><path d="M2204.1 597.7 C2203.2 596.9 2202.8 596.5 2203.2 595.3 C2203.4 594.6 2203.6 593.9 2203.9 593.2 C2204.3 592.4 2204.7 592.1 2205.7 592.3 C2204.5 593.9 2203.9 595.8 2204.1 597.7 C2203.6 597.3 2203.9 595.8 2204.1 597.7 z" id="m4" fill="#935B09" /><path d="M2234.8 612.6 C2232.6 612.6 2232.7 616 2234.8 616 C2237 615.9 2237 612.6 2234.8 612.6 z M2234.8 618.8 C2232.4 618.8 2230.3 616.8 2230.3 614.3 C2230.3 611.8 2232.3 609.8 2234.8 609.8 C2237.2 609.8 2239.3 611.8 2239.3 614.3 C2239.3 616.8 2237.2 618.8 2234.8 618.8 z" id="n4" fill="#F4D440" /><path d="M2234.8 613 C2233.1 613 2233.1 615.5 2234.8 615.5 C2236.4 615.5 2236.4 613 2234.8 613 z M2234.8 616.4 C2232.1 616.4 2232.1 612.2 2234.8 612.2 C2237.6 612.2 2237.6 616.4 2234.8 616.4 z M2234.8 610.4 C2229.7 610.4 2229.7 618.2 2234.8 618.2 C2239.9 618.2 2239.8 610.4 2234.8 610.4 z M2234.8 619 C2232.1 619 2230 616.9 2230 614.2 C2230 611.5 2232.1 609.4 2234.8 609.4 C2237.5 609.4 2239.6 611.5 2239.6 614.2 C2239.6 616.9 2237.5 619 2234.8 619 z" id="o4" fill="#935B09" /><path d="M2234.8 611.2 C2236.7 611.2 2238.2 612.4 2238.2 614.4 C2238.2 616.1 2236.5 618.1 2234.7 617.5 C2236.1 617.3 2237.2 615.8 2237.2 614.4 C2237.2 613.7 2237 613 2236.4 612.4 C2235.9 611.9 2235.2 611.8 2234.8 611.2 z" id="p4" fill="#FFF" /><path d="M2234.8 617.8 C2232.6 617.8 2230.6 616.3 2230.8 613.9 C2231 611.9 2232.8 610.7 2234.8 610.7 C2233.1 610.9 2231.7 612.6 2231.7 614.1 C2231.7 615 2232.1 616 2232.8 616.6 C2233.5 617.2 2234.2 617.4 2234.8 617.8 z" id="q4" fill="#543103" /><path d="M2237.2 605.4 C2237.2 604.8 2236.5 605.3 2236.3 605.3 C2236.3 605.9 2236.4 606.5 2236.3 607 C2236.2 607.7 2235.9 608.5 2235.6 609.1 C2235.4 609.6 2234.3 610.4 2234.7 610.9 C2235.3 610.9 2235.8 610.9 2236.1 610.5 C2236.5 609.9 2236.7 609.4 2237 608.8 C2237.2 607.9 2237.4 606.6 2237.2 605.4 C2237.2 605.4 2237.5 607.5 2237.2 605.4 z" id="r4" fill="#636363" /><path d="M2235 614.3 C2233.2 614.4 2233 612.9 2232.6 611.5 C2232.4 610.1 2232 608.6 2231.7 607.1 C2231.5 605.9 2231.2 604.7 2231 603.7 C2230.5 601.6 2232.8 600.9 2234.4 600.9 C2236.2 600.9 2238.4 600.8 2238.8 603 C2239 603.9 2238.4 605.2 2238.2 606.2 C2237.8 607.9 2237.6 609.3 2237.3 610.9 C2236.9 612.2 2236.7 614.3 2235 614.3 z" id="s4" fill="#F4D440" /><path d="M2236.1 600.8 C2234.1 600.8 2230.8 600.6 2230.9 603.5 C2232.1 603.3 2233.3 603.1 2234.4 603.3 C2235.7 603.5 2236.8 604 2238.1 603.9 C2238.8 603.8 2238.6 602.6 2238.3 602.1 C2237.9 601.4 2237 600.8 2236.1 600.8 z" id="t4" fill="#FFF922" /><path d="M2233.9 603.4 C2233.5 603.4 2230.8 603.6 2231 604 C2231.1 604.6 2231.2 605.2 2231.4 605.7 C2231.5 606.3 2231.6 606.8 2231.8 607.2 C2231.9 607.4 2234.6 607.1 2235 607.1 C2235.9 607 2238.1 606.7 2238.3 605.6 C2238.7 603.7 2235.2 603.4 2233.9 603.4 z" id="u4" fill="#FFF922" /><path d="M2231 603.3 C2231 604 2231.2 604.6 2231.4 605.3 C2232.2 605.1 2237.2 603.3 2237.3 604.8 C2237.5 606.5 2236 606.7 2234.6 607 C2235.5 607.2 2237.8 607.5 2238 606.4 C2238.2 605.5 2238.4 604.5 2238.6 603.6 C2238.8 603 2238.4 602.9 2237.9 602.8 C2237.2 602.6 2236.4 602.6 2235.7 602.6 C2234.1 602.6 2232.4 602.7 2231 603.3 C2231 603.4 2232.9 602.6 2231 603.3 z" id="v4" fill="#935B09" /><path d="M2235.5 612.8 C2234.6 613 2233.7 612.9 2232.9 612.6 C2233.4 613.8 2233.5 615 2234.9 615 C2236.2 615 2236.6 613.6 2236.8 612.6 C2236.3 612.6 2235.9 612.6 2235.5 612.8 z" id="w4" fill="#935B09" /><path d="M2236.1 600 C2234.4 600 2232.6 599.8 2231.3 600.9 C2230 602 2230 603.6 2230.4 605.1 C2230.8 606.8 2231.1 608.5 2231.6 610.3 C2231.8 611.6 2232.1 613.5 2233 614.4 C2233.7 615.1 2234.8 615.3 2235.7 615 C2237 614.5 2237.5 613.3 2237.7 612.1 C2237.9 610.8 2238.3 609.6 2238.5 608.3 C2238.9 606.9 2239.1 605.4 2239.4 603.9 C2239.7 602.1 2238.1 600 2236.1 600 z M2236.1 600.8 C2240.2 600.8 2238.1 606.3 2237.6 608.5 C2237.4 609.7 2237.1 610.9 2236.9 611.9 C2236.7 612.8 2236.5 613.8 2235.6 614.1 C2234.7 614.5 2233.7 614.1 2233.2 613.3 C2232.6 612.4 2232.6 610.8 2232.3 609.9 C2231.9 608.2 2231.6 606.7 2231.4 605.1 C2231.2 603.8 2230.8 602.7 2231.6 601.7 C2232.8 600.5 2234.6 600.8 2236.1 600.8 z" id="x4" fill="#935B09" /></g><g transform="translate(31, 24)" id="y4"><path d="M2206.6 607 C2209 605.1 2211.9 602.6 2214.6 601.1 C2215 601 2217.1 599.6 2217.5 599.7 C2218.1 599.8 2218.7 600.4 2219.2 600.8 C2220.6 601.7 2222 602.6 2223.3 603.6 C2224.4 604.4 2225.5 605.3 2226.5 606.2 C2226.7 606.4 2227.4 606.9 2227.4 607.1 C2227.2 618.4 2227.5 651.8 2227.4 652 C2225.4 654.1 2222 656.6 2219.5 658.4 C2218.9 658.9 2218.3 659.2 2217.6 659.7 C2217.5 659.7 2217.1 660.1 2217 660.1 C2214.8 659 2212.6 656.9 2210.8 655.5 C2209.5 654.4 2207.5 653.5 2206.4 652.2 L2206.6 607 z" id="z4" fill="#002A6A" /><path d="M2217.5 600.4 C2215 601.9 2208.2 606.8 2207.8 607.5 C2207.2 608.6 2207.4 610.3 2207.4 611.4 C2207.4 613.9 2207.3 616.2 2207.4 618.7 C2207.9 625.4 2207.3 651.4 2207.4 651.5 C2209.4 653.5 2211.6 654.9 2214.1 656.5 C2214.8 657 2215.9 658.2 2216.7 658.3 C2216.9 658.3 2217.6 657.6 2217.9 657.5 C2219.2 656.7 2220.5 656.1 2221.8 655.4 C2223.1 654.7 2226.2 652.2 2226.3 652 C2226.9 648.2 2226.5 636.2 2226.5 631.6 C2226.4 623.5 2226.3 615.7 2226.4 607.5" id="a5" fill="#67C5FF" /><path d="M2217.6 658.6 C2217.2 657.3 2214.5 653.8 2213.8 652 C2213.7 651.6 2209.8 650.6 2207.6 651.4 L2217.6 658.6 z" id="b5" fill="#2462C1" /><path d="M2217.8 600.5 C2217.4 601.8 2213.9 607.3 2213.3 609 C2213.2 609.4 2210.1 608.3 2207.9 607.3 L2217.8 600.5 z" id="c5" fill="#92D5FD" /><path d="M2217.8 658.4 C2218.4 656.3 2221.1 652 2221.2 652 C2223.9 651.3 2224.1 651.4 2226.9 651.2 L2223.6 654.4 L2217.8 658.4 z" id="d5" fill="#41A9FF" /><path d="M2217.4 658.7 C2216 655.5 2215 655 2213.9 651.7 C2213.8 651.5 2219.6 651.6 2221.3 651.7 L2217.4 658.7 z" id="e5" fill="#3877DB" /><path d="M2217.9 600.7 C2218.5 602.8 2219 604.8 2219.6 606.9 C2219.6 607 2220.1 608.8 2220.2 608.8 C2223 608.7 2224.1 607.6 2226.9 607" id="f5" fill="#043F9D" /><path d="M2217.5 600.4 C2216.1 603.5 2214.6 605.9 2213.4 609 C2213.3 609.2 2214 609 2214.3 609 C2214.9 609 2215.5 609 2216.2 609 C2218 609 2219.6 609.1 2221.4 609 L2217.5 600.4 z" id="g5" fill="#4A8FFD" /><polygon points="2213.6,608.6 2213.6,652.2 2221.1,652.2 2221.1,608.5" id="h5" fill="#5A9BFF" /><polygon points="2226.6,607 2226.6,651.1 2221.2,652.1 2221.2,608.6" id="i5" fill="#1A5EC7" /><polygon points="2207.9,607.3 2207.9,651.4 2213.6,652.4 2213.3,609" id="j5" fill="#8FC7FF" /><polygon points="2217.4,600.4 2212.7,608.7 2214,609" id="k5" fill="#FFF" /><polygon points="2217.6,600.4 2220.6,608.7 2221.8,608.4" id="l5" fill="#FFF" /><polygon points="2226.8,607 2221.1,608 2221.3,608.8" id="m5" fill="#FFF" /><polygon points="2207.9,607.1 2213.9,608.3 2213.8,609.3" id="n5" fill="#FFF" /><polygon points="2221.3,609 2213.8,609.3 2213.9,608.1 2221.3,608" id="o5" fill="#FFF" /><polygon points="2217.5,658.7 2221.9,652.1 2220.5,652.2" id="p5" fill="#FFF" /><polygon points="2214.8,652.4 2213.5,652.2 2217.5,659" id="q5" fill="#FFF" /><polygon points="2207.9,651.4 2213.6,651.9 2214.3,652.8" id="r5" fill="#FFF" /><polygon points="2226.6,651.3 2221.1,651.5 2221.2,652.5" id="s5" fill="#FFF" /><polygon points="2213.8,651.9 2221.2,651.6 2220.8,652.7 2214.6,652.9" id="t5" fill="#FFF" /><polyline points="2214.2,608.7 2214.3,652.4 2213.5,652.2 2213.3,608.6 2220.8,608.6" id="u5" fill="#FFF" /><polyline points="2220.6,608.5 2220.5,651.8 2221.7,651.8 2221.4,608.6" id="v5" fill="#9AD9FF" /><path d="M2217.3 617 C2217.9 617 2219.3 616.8 2219.9 617.1 C2220.3 617.3 2220.1 619.1 2220.1 619.5 C2220.1 622 2219.7 624.6 2219.9 627 C2219.9 628.2 2219.9 629.2 2220 630.4 C2220 630.8 2220 631.1 2220 631.6 C2220 631.8 2220 632.4 2220 632.2 C2219.6 628.8 2219.5 625.2 2219.2 621.8 C2219.1 620.9 2219.1 620 2219 619.1 C2219 619 2219 618.3 2218.9 618.2 C2218 617.5 2215.7 617.3 2214.4 617" id="w5" fill="#FFF" /><path d="M2220.6 655.2 C2221 654.5 2221.4 653.7 2222 653.1 C2222.2 652.9 2223.7 652.9 2224 652.7" id="x5" fill="#FFF" /><path d="M2211.5 607.3 L2215.2 603.6 C2214.4 605 2213.5 606.3 2212.8 607.7" id="y5" fill="#FFF" /><polygon points="2208.3,616 2208.2,628.8 2209.5,616.5" id="z5" fill="#FFF" /><path d="M2221.5 637.6 C2221.3 639 2221 640.5 2220.8 642 C2220.6 643.5 2220.2 645.2 2220.2 646.8 C2220.2 647.2 2220.2 647.5 2220.3 647.9 L2220.4 648.4 C2221.8 647.8 2222.3 645.7 2222.4 644.5 C2222.5 642.5 2222 640.6 2221.7 638.6 C2221.5 636.6 2221.3 639.2 2221.3 637.2" id="a6" fill="#FFF" /><polygon points="2221.3,646.1 2225.5,647.6 2221.7,645.4 2225.8,643.2 2221.4,644.9 2217.6,643.4 2220.8,645 2218.1,647.4 2220.8,645.9 2220.7,650.9" id="b6" fill="#FFF" /><polyline points="2221.3,645.4 2217.8,644.9 2221.2,645 2224.5,645.4 2221.7,645.5 2223.7,642.4" id="c6" fill="#FFF" /><path d="M2215.2 594.8 C2215.1 595.2 2218.6 595.2 2218.7 595.5 C2218.8 596.1 2219.6 596.8 2215.6 597.3 C2213.4 597.5 2211.2 598.6 2209.8 600 C2208.7 601.1 2208.3 602.2 2207.8 603.5 C2207 606.1 2206.5 608.8 2206.7 611.5 L2224.5 612.6 L2204.1 613.8 C2204.1 613.1 2204.1 611.3 2204.1 610.6 C2204 608 2204.2 606.1 2204.7 603.6 C2204.9 602.2 2205.3 600.7 2206.2 599.4 C2207 598.2 2208.2 597 2209.6 596.3 C2211.1 595.5 2212.9 595.1 2214.7 594.9 C2214.7 594.8 2215.2 594.8 2215.2 594.8 z M2222 594.8 C2222.8 595 2223.7 595.3 2224.4 595.6 C2225.8 596.3 2226.9 597.4 2227.8 598.5 C2230 601.4 2230.2 604.6 2229.9 608 C2229.8 609.4 2229.5 612.5 2229.4 613.8 L2226.7 615.2 C2227.1 612.1 2227.3 606.1 2226.2 603.3 C2225.5 601.5 2224.1 599.3 2222.3 598.2 C2221.9 598 2221.6 597.8 2221.1 597.6 C2221.3 597.5 2221.5 597.1 2221.6 596.9 C2222 596.5 2222.1 595.6 2222 594.8 z" id="d6" fill="#935B09" /><path d="M2206.3 608.4 C2208.2 608.8 2210.1 609.3 2212 609.8 C2212.6 609.9 2213.2 610.3 2213.7 610.3 C2215.2 610.4 2216.8 610.3 2218.3 610.4 C2219.2 610.4 2220.5 610.6 2221.5 610.4 C2222.1 610.3 2222.7 609.9 2223.3 609.8 C2224.5 609.4 2226.1 608.9 2227.3 608.6 C2227.8 608.5 2227.7 608.8 2228.1 608.7 L2228.5 608.6 C2229.7 609.7 2229.3 611.7 2229.1 613.1 C2229.1 613.3 2229 614.3 2228.7 614.4 C2227.6 615.2 2226 615.6 2224.6 615.9 C2221.1 617 2215.9 617 2213.3 616.7 C2212 616.6 2211.1 616.1 2209.8 615.8 C2208.3 615.4 2206.9 615 2205.4 614.5 C2205.3 614.5 2204.2 614.1 2204.2 614 C2204.1 613.5 2204.4 612.8 2204.6 612.5 C2204.8 611.3 2205 610.1 2205.3 609.1" id="e6" fill="#935B09" /><polygon points="2205.9,608.7 2213.6,610.9 2221.3,610.9 2227.8,608.8 2227.8,613.9 2221.1,615.9 2213.5,616.2 2205.7,613.9" id="f6" fill="#F4D440" /><path d="M2221.2 610.9 L2227.8 608.8 L2227.9 613.9 L2221.2 616 C2221.1 615.9 2221.1 612.6 2221.2 610.9 z" id="g6" fill="#A06E26" /><path d="M2213.6 616.2 L2205.8 614 L2205.9 608.8 L2213.7 610.8 L2213.8 610.8 C2213.6 612 2213.6 615.6 2213.6 616.2 z" id="h6" fill="#FEF91F" /><path d="M2222.1 595.6 C2222.6 595.7 2223 595.8 2223.5 596.1 C2225.3 596.9 2226.8 598.6 2227.7 600.1 C2229.1 602.2 2228.8 604.2 2228.9 606.6 C2228.9 608.6 2229 611.1 2228.7 613.1 L2227.8 613.7 C2228 611.8 2227.8 609.1 2227.8 607.2 C2227.8 605 2227.7 602.8 2226.4 600.8 C2225.7 599.7 2224.6 598.6 2223.6 598 C2223 597.6 2222.3 597.4 2221.6 597.2 C2221.9 596.7 2222 596.1 2222.1 595.6 z M2214.6 595.3 C2215 595.3 2215.3 595.2 2215.4 595.3 C2216 596.2 2216.9 596.1 2217.1 596.5 C2213.2 596.7 2209.9 598.3 2208.4 599.9 C2206.2 602.4 2206.2 605.3 2206.2 608.4 C2206.2 610.2 2206.2 612.1 2206.1 613.8 L2205.2 613.7 C2205.1 611.7 2205 608.6 2205.1 606.5 C2205.3 603.3 2205.8 601 2208.3 598.4 C2209.6 596.6 2212 595.6 2214.6 595.3 z" id="i6" fill="#F4D440" /><path d="M2227.2 608 C2227.2 608.9 2227.2 609.8 2227.2 610.7 C2227.2 611.2 2227.1 611.8 2227.1 612.2 C2227.1 612.7 2226.7 613.7 2227 614.2 C2227 614.2 2227.2 614.1 2227.4 614.1 C2227.6 614 2228 613.7 2228 613.5 C2228 611.7 2228 610.3 2228 608.5" id="j6" fill="#935B09" /><path d="M2206.3 608.4 C2206.3 609.2 2206.3 610.2 2206.3 611 C2206.3 611.5 2206.3 611.9 2206.2 612.4 C2206.2 612.9 2206.2 613.3 2206.2 613.9 C2206.2 613.9 2206.3 614.4 2206.2 614.4 L2206.1 614.3 C2206 614.2 2205.9 614.2 2205.9 614.1 C2205.8 613.6 2205.9 612.8 2206 612.2 C2206.2 610.9 2205.6 609.3 2206.4 608.1" id="k6" fill="#935B09" /><path d="M2215.1 595.4 C2215.1 595.5 2215.3 595.8 2215.5 595.8 C2215.9 596 2216.2 596 2216.3 596.3 C2215.2 596.4 2213.1 596.8 2212.2 597.1 C2211.4 597.5 2210.2 597.9 2209.6 598.5 C2207.1 600.6 2206.4 603.7 2206.1 606.6 C2205.9 608.8 2205.7 611.1 2205.7 613.3 L2205.2 610.5 C2205.1 606 2205.4 600.2 2209.9 597.4 C2211.2 596.5 2213.2 595.8 2215.1 595.4 z" id="l6" fill="#FEF91F" /><path d="M2213.6 611 C2213.5 612.3 2212.4 613.5 2212.9 614.9 C2212.9 615 2213.4 616.1 2213.4 616.1 C2213.6 616 2214 615.4 2214.1 615.3 C2214.9 614 2214.1 612.4 2214 611.1" id="m6" fill="#FFF" /><path d="M2221.2 611 C2220.8 612.3 2220.5 613.5 2220.5 614.8 C2220.5 615 2220.4 615.9 2220.9 615.9 L2221.1 615.9 C2221.5 615.5 2221.6 615 2221.6 614.5 C2221.7 613.3 2221.4 612 2221.4 610.8" id="n6" fill="#FEF91F" /><path d="M2212 596.1 C2211.3 596.5 2210.3 596.8 2209.8 597.4 C2209.2 598 2210 598.3 2210.6 598.1 C2211.3 597.9 2211.8 597.4 2212.4 597 C2213.5 596.3 2213.8 596.2 2214.5 595.5 L2213.2 595.7 L2212 596.1 z" id="o6" fill="#FFF" /><path d="M2206.4 613.7 C2206.3 612.8 2206.4 611.8 2206.5 610.9 L2206.5 609.6 C2206.5 609.6 2206.4 609.5 2206.5 609.5 C2207.6 609.6 2208.7 609.9 2209.8 610.2 C2209.8 610.2 2209.7 610.2 2209.6 610.2 C2209.5 610.2 2209.4 610.2 2209.2 610.2 C2208.8 610.2 2208.4 610.4 2208 610.6 C2207.1 611.2 2206.5 612.3 2206.3 613.2" id="p6" fill="#FFF" /></g></g></g></g></g></g><defs><g transform="translate(17.09519, 0.800995) translate(-135.2952, -293.601)" id="q6" fill="#000"><path d="M118.2 302.7 C118.4 307.4 132.5 311.2 149.8 311.2 C167.1 311.2 181.2 307.4 181.4 302.7 C181.4 307.5 181.4 310.1 181.4 310.5 C181.4 315.3 167.3 319.1 149.8 319.1 C132.3 319.1 118.2 315.2 118.2 310.5 L118.2 302.7 L118.2 302.7 z" fill-opacity="0.4528" id="r6" fill="#593001" /><path d="M118.7 301.7 C118.9 306.4 133 310.2 150.3 310.2 C167.6 310.2 181.7 306.4 181.9 301.7 C181.9 306.5 181.9 309.1 181.9 309.5 C181.9 314.3 167.8 318.1 150.3 318.1 C132.8 318.1 118.7 314.2 118.7 309.5 L118.7 301.7 L118.7 301.7 z" id="s6" fill="#DA8113" /><linearGradient x1="46.0545" y1="-118.6926" x2="45.4656" y2="-118.6926" gradientUnits="userSpaceOnUse" gradientTransform="matrix(117.135, 0, 0, 28.4634, -5208.417, 3687.795)" id="t6"><stop offset="0%" stop-color="#D9952A" stop-opacity="1" /><stop offset="6.438854%" stop-color="#CA7519" stop-opacity="1" /><stop offset="30.54%" stop-color="#E3AD3A" stop-opacity="1" /><stop offset="51.05%" stop-color="#FFEC91" stop-opacity="1" /><stop offset="68.8%" stop-color="#E9BD44" stop-opacity="1" /><stop offset="86.24%" stop-color="#FFED6C" stop-opacity="1" /><stop offset="93.87%" stop-color="#F2D353" stop-opacity="1" /><stop offset="100%" stop-color="#F2B947" stop-opacity="1" /></linearGradient><path d="M118.2 301.6 C118.4 306.1 132.7 309.7 150.3 309.7 C167.9 309.7 182.2 306.1 182.4 301.6 C182.4 306.2 182.4 308.7 182.4 309 C182.4 313.5 168 317.2 150.3 317.2 C132.6 317.2 118.2 313.5 118.2 309 L118.2 301.6 L118.2 301.6 z" id="u6" style="fill:url(#t6)" /><linearGradient x1="45.4914" y1="-117.9547" x2="45.9407" y2="-117.5895" gradientUnits="userSpaceOnUse" gradientTransform="matrix(115.425, 0, 0, 29.925, -5125.077, 3826.124)" id="v6"><stop offset="0%" stop-color="#F4E072" stop-opacity="1" /><stop offset="100%" stop-color="#DB9427" stop-opacity="1" /></linearGradient><ellipse cx="150.3" cy="301.5" rx="31.6" ry="8.2" id="w6" style="fill:url(#v6)" /><linearGradient x1="45.4656" y1="-126.0065" x2="46.0545" y2="-126.0065" gradientUnits="userSpaceOnUse" gradientTransform="matrix(117.135, 0, 0, 18.6219, -5208.417, 2651.479)" id="x6"><stop offset="0%" stop-color="#D9952A" stop-opacity="1" /><stop offset="6.438854%" stop-color="#CA7519" stop-opacity="1" /><stop offset="30.54%" stop-color="#E3AD3A" stop-opacity="1" /><stop offset="51.05%" stop-color="#FFEC91" stop-opacity="1" /><stop offset="68.8%" stop-color="#E9BD44" stop-opacity="1" /><stop offset="86.24%" stop-color="#FFED6C" stop-opacity="1" /><stop offset="93.87%" stop-color="#F2D353" stop-opacity="1" /><stop offset="100%" stop-color="#F2B947" stop-opacity="1" /></linearGradient><path d="M119.2 299.9 C119 300.2 118.9 300.6 118.9 301 C118.9 305.5 132.9 309.2 150.3 309.2 C167.7 309.2 181.7 305.5 181.7 301 C181.7 300.6 181.6 300.3 181.4 299.9 C182 300.5 182.4 301.2 182.4 301.9 C182.4 306.4 168 310.1 150.3 310.1 C132.6 310.1 118.2 306.4 118.2 301.9 C118.2 301.3 118.6 300.6 119.2 299.9 z" id="y6" style="fill:url(#x6)" /><linearGradient x1="45.196" y1="-121.5895" x2="45.3746" y2="-120.6758" gradientUnits="userSpaceOnUse" gradientTransform="matrix(101.745, 0, 0, 23.94, -4458.332, 3199.41)" id="z6"><stop offset="0%" stop-color="#F8DD61" stop-opacity="1" /><stop offset="100%" stop-color="#EAA330" stop-opacity="1" /></linearGradient><ellipse cx="150.3" cy="300.8" rx="27.8" ry="6.6" id="a7" style="fill:url(#z6)" /><linearGradient x1="45.5694" y1="-134.267" x2="45.0221" y2="-134.267" gradientUnits="userSpaceOnUse" gradientTransform="matrix(101.745, 0, 0, 13.2525, -4458.332, 2077.223)" id="b7"><stop offset="0%" stop-color="#F4CA2F" stop-opacity="1" /><stop offset="51.38%" stop-color="#BF7737" stop-opacity="1" /><stop offset="100%" stop-color="#E4A929" stop-opacity="1" /></linearGradient><path d="M122.6 301.5 C122.5 301.3 122.4 301 122.4 300.8 C122.4 297.2 134.9 294.2 150.2 294.2 C165.5 294.2 178 297.1 178 300.8 C178 301 177.9 301.3 177.8 301.5 C176.3 298.2 164.5 295.6 150.1 295.6 C135.7 295.6 124.1 298.2 122.6 301.5 z" id="c7" style="fill:url(#b7)" /></g></defs><desc>5I55I7DHGIJ,TVUJbeYZgsDBSTOj5z+sI82a0QMW/N3Ty54/gWrFmHPeClV3mUGG3k8iY55isocqEMJjAg8lxAQP5U/0As/zAoYFE/Fsatt1Ls97Qs4rs2sWmbjFnQhFUz6XjyNHcpJ5l3JozE5rldKId9yfSSCKR46JiWtw0D6SxRNSdgxMuYs+I0slb0w6J99nqyxv4714DwHwQnA4JuWiuOWkS3M7jUJv4P2ynUIRz+IdRZqr0lw=</desc></svg>