<?xml version="1.0" encoding="utf-8"?><!DOCTYPE svg PUBLIC "-//W3C//DTD SVG 1.1//EN" "http://www.w3.org/Graphics/SVG/1.1/DTD/svg11.dtd"><svg x="0" y="0" width="340px" height="340px" viewBox="0, 0, 340, 340" preserveAspectRatio="xMidYMid" font-size="0" id="a" enable-background="new 0 0 340 340" xmlns="http://www.w3.org/2000/svg" xmlns:xlink="http://www.w3.org/1999/xlink" xmlns:xml="http://www.w3.org/XML/1998/namespace" version="1.1"><g id="b" fill="#000"><g id="c"><g transform="translate(0, 0) translate(0, 224)" id="d"><ellipse cx="168.6" cy="53.1" rx="57.8" ry="12.8" fill-opacity="0.25" id="e" /></g><g id="f"><g transform="translate(96.80002, 79.89998) translate(20, 164) scale(-1, 1) translate(-20, -164) translate(0, 145)" id="g"><g opacity="0.15" id="h"><path d="M25.1 5.8 C22.1 1.3 15 -3.7 13.7 5.8 C6.2 0.1 3.3 6.1 6.2 10.4 C0.3 13.4 -2 14.4 2.1 17.2 C1.4 21.2 -1.4 28.5 6.2 26.7 C5.7 33.2 9.3 33.2 13.7 33.2 C14.4 39.4 27.4 39.7 24.5 31.9 C29.6 32.2 32.1 33.8 32.8 31.9 C33.5 30 30 27.2 28 24.7 C35.2 25.8 42.7 22.7 37.8 18.5 C34.5 15.7 32.8 15 32.7 16.4 C35.8 14.6 38.8 13 38.8 10.3 C38.8 8.4 33.7 7.6 29.9 10.3 C31.5 6.4 28.1 -2.1 25.1 5.8 z" stroke="#000000" stroke-width="3" opacity="0.15" id="i" /></g><path d="M24.6 4.8 C21.6 -1 15.9 -2.2 13.7 4.8 C6.2 -0.9 3.3 5.1 6.2 9.4 C0.3 12.4 -2 13.4 2.1 16.2 C1.4 20.2 -1.4 27.5 6.2 25.7 C5.7 32.2 9.3 32.2 13.7 32.2 C14.4 38.4 27 38.7 25.1 32.2 C35.2 32.8 34 30.6 30 25.7 C37.2 26.8 42.1 21.4 37.2 17.2 L33.7 16.2 C36.8 14.4 38.3 12.1 38.3 9.4 C38.3 7.5 33.9 6.7 30.1 9.4 C31.5 5.4 29.5 -0.9 24.6 4.8 z" id="j" fill="#D8D8D8" /></g><g transform="translate(123.6, 274.8) scale(1) translate(-123.6, -274.8) translate(-285.9, 63.59998) translate(20, 150)" id="k"><path d="M418 16.4 C418 16.4 415.5 9 413.5 8.1 C411.5 7.2 409.1 5.1 402.7 6.1 C396.3 7.1 391.2 9.7 388.3 13.1 C385.4 16.4 382.6 26.3 385.4 31.7 C387.3 35.3 390.5 40 395.1 45.6 C389.5 45.6 386.3 46.1 385.4 47 C384.1 48.4 382.7 53.9 384.1 57 C385.4 60 387.5 64.2 393.6 63.9 C399.7 63.7 414.1 60.2 416.6 59.1 C419.1 58 417.8 40.7 417.8 39.4 C417.7 13 418 16.4 418 16.4 z" id="l" fill="#32363A" /><path d="M418 16.4 C418 16.4 417.7 12.9 417.8 39.4 C417.8 40.7 419.1 58 416.6 59.1 C414.1 60.2 399.7 63.7 393.6 63.9 C387.5 64.2 385.4 60 384.1 57 C382.7 53.9 384.1 48.4 385.4 47 C386.3 46.1 389.5 45.6 395.1 45.6 C390.5 40 387.3 35.3 385.4 31.7 C382.6 26.3 385.4 16.4 388.3 13.1 C391.2 9.7 396.3 7.1 402.7 6.1 C409.1 5.1 411.5 7.2 413.5 8.1 C415.5 9.1 418 16.4 418 16.4 z M416.7 16.6 C416.7 16.6 414.4 9.8 412.5 8.9 C410.6 8 408.4 6.1 402.5 7.1 C396.6 8.1 391.9 10.4 389.3 13.6 C386.6 16.6 384 25.8 386.6 30.8 C388.4 34.1 393.9 41.7 398.2 46.8 C393 46.8 387.9 47.2 387.1 48 C385.9 49.3 384.1 51.2 385.4 54.1 C386.6 56.9 388.5 60.7 394.2 60.5 C399.8 60.3 413.1 57.1 415.4 56.1 C417.7 55.1 416.5 39.1 416.5 37.9 C416.4 13.5 416.7 16.6 416.7 16.6 z" opacity="0.15" id="m" /></g><g transform="translate(215, 274.8) scale(1) translate(-215, -274.8) translate(-285.9, 63.59998) translate(106.5, 179.5) scale(-1, 1) translate(-106.5, -179.5) translate(89, 150)" id="n"><path d="M-348.6 16.4 C-348.6 16.4 -351.1 9 -353.1 8.1 C-355.1 7.2 -357.5 5.1 -363.9 6.1 C-370.3 7.1 -375.4 9.7 -378.3 13.1 C-381.2 16.4 -384 26.3 -381.2 31.7 C-379.3 35.3 -376.1 40 -371.5 45.6 C-377.1 45.6 -380.3 46.1 -381.2 47 C-382.5 48.4 -383.9 53.9 -382.5 57 C-381.2 60 -379.1 64.2 -373 63.9 C-366.9 63.7 -352.5 60.2 -350 59.1 C-347.5 58 -348.8 40.6 -348.8 39.3 C-348.8 13 -348.6 16.4 -348.6 16.4 z" id="o" fill="#32363A" /><path d="M-348.6 16.4 C-348.6 16.4 -348.8 12.9 -348.8 39.3 C-348.8 40.6 -347.5 58 -350 59.1 C-352.5 60.2 -366.9 63.7 -373 63.9 C-379.1 64.2 -381.2 60 -382.5 57 C-383.9 53.9 -382.5 48.4 -381.2 47 C-380.3 46.1 -377.1 45.6 -371.5 45.6 C-376.1 40 -379.3 35.3 -381.2 31.7 C-384 26.3 -381.2 16.4 -378.3 13.1 C-375.4 9.7 -370.3 7.1 -363.9 6.1 C-357.5 5.1 -355.1 7.2 -353.1 8.1 C-351.1 9.1 -348.6 16.4 -348.6 16.4 z M-350 16.5 C-350 16.5 -352.3 9.7 -354.1 8.9 C-355.9 8.1 -358.1 6.1 -364 7.1 C-369.9 8.1 -374.6 10.3 -377.3 13.5 C-380 16.5 -382.5 25.6 -380 30.6 C-378.2 33.9 -373.6 41.1 -369.3 46.3 C-374.4 46.3 -379 47.1 -379.8 48 C-381 49.3 -382.4 51 -381.1 53.9 C-379.9 56.7 -378 60.5 -372.4 60.2 C-366.8 60 -353.5 56.8 -351.2 55.8 C-348.9 54.8 -350.1 38.8 -350.1 37.6 C-350.2 13.4 -350 16.5 -350 16.5 z" opacity="0.15" id="p" /></g><g transform="translate(-285.9, 63.59998) translate(26, 89)" id="q"><path d="M397 32.1 C391 38.3 389.6 53.9 391.7 73.6 C393.8 93.4 398.5 110.6 404.4 118.6 C410.3 126.6 419.1 128.3 429.1 128.3 C439.1 128.3 444.7 128.5 451.9 120.5 C459 112.6 463.7 84.2 465.1 74.4 C466.5 64.7 469.4 41 460.1 32.9 C455.5 28.8 444.8 7 431.3 6.5 C417.8 6 403 26 397 32.1 z" id="r" fill="#32363A" /><path d="M397 32.1 C391 38.3 389.6 53.9 391.7 73.6 C392.6 81.9 396.1 90.6 397.8 97.5 C400.1 107.1 401 114.1 404.4 118.7 C410.3 126.7 419.1 128.4 429.1 128.4 C439.1 128.4 444.7 128.6 451.9 120.6 C459 112.7 463.7 84.3 465.1 74.5 C466.5 64.8 469.4 41.1 460.1 33 C455.5 28.9 444.8 7.3 431.3 6.8 C417.8 6.2 403 26 397 32.1 z" id="s" fill="#32363A" /><path d="M397 32.1 C403 26 417.8 6.2 431.1 6.6 C444.7 7.1 455.4 28.8 459.9 32.8 C469.2 40.9 466.3 64.6 464.9 74.3 C463.5 84.1 458.8 112.5 451.7 120.4 C444.5 128.4 438.9 128.2 428.9 128.2 C418.9 128.2 410.1 126.5 404.2 118.5 C398.3 110.5 393.6 93.2 391.5 73.5 C389.6 53.9 391 38.3 397 32.1 z M398.3 32.4 C392.5 38.4 391.2 53.3 393.2 72.3 C395.2 91.4 399.7 107.8 405.4 115.5 C411.1 123.2 419.5 124.8 429.1 124.8 C438.7 124.8 444.1 125 451 117.3 C457.8 109.7 462.3 82.4 463.7 73 C465 63.7 467.8 40.9 458.9 33.1 C454.3 29.2 444.1 8.5 431 8 C418.2 7.5 404 26.5 398.3 32.4 z" opacity="0.15" id="t" /></g><g transform="translate(127.4325, 183.25) scale(1.05, 0.943662) translate(-129.4, -177.3) translate(90.00002, 84.39998) translate(78.5, 145.5) scale(-1, 1) translate(-78.5, -145.5) translate(39, 92)" id="u"><path d="M68.1 2.7 C65.6 5.6 57.8 23.3 40.2 24.2 C21.5 24.9 13.3 5.5 10.6 0.9 C7 8.7 1.1 13.8 0.5 26.6 C-0.1 39.4 4.4 46.5 6.7 52.8 C8.4 57.4 10.7 64.5 12.6 73.4 C13.3 76.6 15 81.2 15 84.3 C15.3 96.3 17.5 91.7 13.2 94.2 C8.9 96.7 5.2 101.6 6.7 104.5 C8.2 107.4 29.2 104.1 30.2 102.9 C30.7 102.3 30.9 95.4 30.7 74 C30.6 70.2 29.5 64.3 29.2 57 C29.1 53.6 30 50.6 29.7 46.2 C33.7 48.7 35.2 49.7 38.2 49.6 C41 49.7 42.2 48 46.8 45.5 C46.8 49.8 47.8 53.2 47.9 56.9 C48 63.8 47.3 70.3 47.2 74 C46.9 94.5 47.2 102.3 48 103.5 C49.2 105.2 56.8 106.1 70.8 106 C72.5 103.2 72.5 100.8 70.8 98.8 C69.1 96.8 66.2 94.7 62.2 92.4 C63.3 83.7 63.9 81.2 65.2 75.5 C66.2 71 67.7 62.7 68.7 60.2 C72.3 51.4 78.4 40.6 78.5 28.7 C78.6 16.8 72.4 8 68.1 2.7 z" id="v" fill="#FEFEFE" /><path d="M68.1 2.7 C72.4 8 78.5 16.8 78.4 28.7 C78.3 40.6 72.2 51.4 68.6 60.2 C67.6 62.8 66 71 65.1 75.5 C63.9 81.2 63.2 83.7 62.1 92.4 C66.1 94.7 69 96.8 70.7 98.8 C72.4 100.8 72.4 103.2 70.7 106 C56.7 106.1 49.1 105.2 47.9 103.5 C47.1 102.3 46.8 94.5 47.1 74 C47.2 70.3 47.9 63.8 47.8 56.9 C47.7 53.1 46.7 49.8 46.7 45.5 C42.1 48 40.9 49.7 38.1 49.6 C35.1 49.7 33.6 48.7 29.6 46.2 C30 50.6 29 53.6 29.2 57 C29.5 64.3 30.6 70.2 30.7 74 C30.9 95.4 30.7 102.3 30.2 102.9 C29.2 104.1 8.2 107.4 6.7 104.5 C5.2 101.6 8.9 96.7 13.2 94.2 C17.5 91.7 15.3 96.3 15 84.3 C14.9 81.1 13.2 76.6 12.6 73.4 C10.7 64.5 8.4 57.5 6.7 52.8 C4.4 46.5 -0.1 39.4 0.5 26.6 C1.1 13.8 7 8.7 10.6 0.9 C13.3 5.5 21.5 24.9 40.2 24.2 C57.8 23.3 65.6 5.6 68.1 2.7 z M68.1 3.9 C66.9 6.2 63.6 12.3 57.5 17.9 C52.5 22.5 44.3 27.3 38.5 27.3 C34.8 27.5 26 22.6 22.4 19.5 C17.8 15.6 11.8 5.2 10.6 1.4 C7.1 8.9 2.7 15.8 2.1 28 C1.5 40.2 5.9 45.5 8.1 51.5 C9.7 55.9 12.8 63.9 14.6 72.4 C15.2 75.4 16.9 80.5 17 83.5 C17.3 94.9 18.7 92.8 14.6 95.2 C10.5 97.6 7.6 99.2 9 101.9 C10.4 104.6 27 101.6 28 100.4 C28.5 99.8 28.8 95.8 28.6 75.4 C28.5 71.7 27.6 64.9 27.3 57.9 C27.2 54.7 26.9 46.1 26.6 41.9 C30.4 44.3 35 48 37.9 47.9 C40.6 48 45.9 43.8 50.3 41.4 C50.3 45.5 50.1 52.2 50.1 55.8 C50.2 62.3 49.2 68.8 49.2 72.3 C48.9 91.8 49.3 99.6 50 100.8 C51.1 102.4 55.2 104 68.5 103.9 C70.1 101.2 70.8 100.5 69.2 98.6 C67.6 96.7 64.2 95 60.4 92.8 C61.5 84.5 62.1 79.7 63.3 74.3 C64.2 70 65.8 62 66.8 59.5 C70.2 51.1 76.5 41.1 76.6 29.8 C76.6 18.6 72.2 8.9 68.1 3.9 z" opacity="0.15" id="w" /></g></g><g id="x"><g transform="translate(147.8, 114) rotate(19, 0, 0) scale(0.7) translate(-147.8, -114) translate(100.2, 72.89996) translate(23, 0)" id="y"><g transform="translate(18.79612, 27.5) scale(-1, 1) translate(-18.79612, -27.5) translate(0.796117, 0)" id="z"><path d="M6.1 38.9 C10.1 42.5 15.4 46.7 17.9 49.8 C20.7 53.3 26 54.1 28.3 51.3 C30.6 48.5 32.3 48.1 32.7 42.7 C33.1 37.3 36.2 20.2 36 15.4 C35.8 10.6 34.5 0.6 32.8 0.1 C31.1 -0.4 26.4 0.6 25.4 1.5 C24.4 2.4 2.2 26.3 1.3 28.2 C0.3 30.1 2.1 35.2 6.1 38.9 z" id="a1" fill="#474B4F" /><path d="M6.1 38.9 C2.1 35.2 0.3 30.1 1.3 28.2 C2.2 26.3 24.4 2.4 25.4 1.5 C26.4 0.6 31.1 -0.4 32.8 0.1 C34.5 0.6 35.7 10.6 35.9 15.3 C36.1 20 33 37.3 32.6 42.7 C32.2 48.1 30.5 48.5 28.2 51.3 C25.9 54.1 20.6 53.3 17.8 49.8 C15.4 46.7 10.1 42.5 6.1 38.9 z M7.7 37.7 C11.4 41.1 16.3 45.1 18.6 48 C21.2 51.3 26.1 52.1 28.2 49.4 C30.3 46.7 31.9 46.4 32.3 41.3 C32.7 36.2 35.5 20.1 35.4 15.6 C35.3 11.1 33.9 1.6 32.4 1.1 C30.8 0.6 26.5 1.6 25.6 2.4 C24.7 3.2 4.1 25.8 3.3 27.6 C2.3 29.4 4 34.2 7.7 37.7 z" opacity="0.15" id="b1" /><path d="M8.1 28.2 C7.5 24.8 23.1 7.3 24.9 5.4 C26.7 3.5 28.4 3 30.8 2.9 C33.2 2.8 34.6 13 33.6 18.7 C32.6 24.4 30.3 45.7 27.5 46.9 C24.7 48.1 23.9 45.6 16.5 36.4 C13.2 32.2 8.8 31.5 8.1 28.2 z" id="c1" fill="#D8D8D8" /><path d="M12.2 34 C17.3 30.7 20.4 27.8 21.5 25.3 C22.1 24 23.6 27.6 23.7 32.2 C23.8 34.2 22.7 37.6 20.4 42.4 L12.2 34 z" id="d1" fill="#474B4F" /></g></g><g transform="translate(191.6, 114) rotate(-19, 0, 0) scale(0.7) translate(-191.6, -114) translate(96.69998, 72.89996) translate(102.4, 27) scale(-1, 1) translate(-102.4, -27) translate(83.40002, 0)" id="e1"><g transform="translate(18.70388, 27) scale(-1, 1) translate(-18.70388, -27) translate(0.203883, 0)" id="f1"><path d="M4.4 39.1 C8.4 42.7 13.1 47.2 16.8 49.8 C20.4 52.4 24.9 54.1 27.2 51.3 C29.5 48.5 31.2 48.1 31.6 42.7 C32 37.3 35.1 20.2 34.9 15.4 C34.7 10.6 33.4 0.6 31.7 0.1 C30 -0.4 25.3 0.6 24.3 1.5 C23.3 2.4 1.1 26.3 0.2 28.2 C-0.8 30.1 0.4 35.4 4.4 39.1 z" id="g1" fill="#474B4F" /><path d="M4.4 39.1 C0.4 35.4 -0.8 30.1 0.2 28.2 C1.1 26.3 23.3 2.4 24.3 1.5 C25.3 0.6 30 -0.4 31.7 0.1 C33.4 0.6 34.6 10.6 34.8 15.3 C35 20 31.9 37.2 31.5 42.6 C31.1 48 29.4 48.4 27.1 51.2 C24.8 54 20.3 52.3 16.7 49.7 C13 47.2 8.4 42.7 4.4 39.1 z M6.1 37.9 C9.8 41.3 14.1 45.5 17.5 48 C20.8 50.5 25 52.1 27.1 49.4 C29.2 46.7 30.8 46.4 31.2 41.3 C31.6 36.2 34.4 20.1 34.2 15.6 C33.9 11 32.8 1.6 31.3 1.1 C29.7 0.6 25.4 1.6 24.5 2.4 C23.5 3.3 3 25.8 2.2 27.6 C1.3 29.4 2.4 34.4 6.1 37.9 z" opacity="0.15" id="h1" /><path d="M7 28.2 C6.4 24.8 22 7.3 23.8 5.4 C25.6 3.5 27.3 3 29.7 2.9 C32.1 2.8 33.5 13 32.5 18.7 C31.5 24.4 29.2 45.7 26.4 46.9 C23.6 48.1 22.8 45.6 15.4 36.4 C12 32.2 7.7 31.5 7 28.2 z" id="i1" fill="#D8D8D8" /><path d="M11 34 C16.1 30.7 19.2 27.8 20.3 25.3 C20.9 24 22.4 27.6 22.5 32.2 C22.6 34.2 21.5 37.6 19.2 42.4 L11 34 z" id="j1" fill="#474B4F" /></g></g><g transform="translate(110.8, 92.69997) translate(20, 9)" id="k1"><path d="M74.7 44.7 C74.7 30.9 75.3 23.9 72.1 17.8 C67.3 8.7 61.8 4.3 55.8 2.2 C49.8 0 42.4 1.2 39.1 1.2 C35.8 1.2 28.4 0.1 22.4 2.2 C16.4 4.4 10.9 8.8 6.1 17.8 C2.9 23.9 3.5 30.9 3.5 44.7 C-0.3 52.8 -0.7 59.7 2.5 66.7 C9.1 80.8 24.2 87.8 39.1 87.9 C54 87.8 69.2 80.8 75.7 66.7 C78.9 59.7 78.4 52.8 74.7 44.7 z" id="l1" fill="#474B4F" /><path d="M2.9 45.5 C5.3 47 8.4 48.4 9.6 48.5 C21.9 50 30.5 47.9 33.8 37.4 C35.8 30.7 31.9 20.5 34.6 10.7 C35.2 8.6 35.2 3.9 33.4 1 C30 0.9 25.9 1 22.2 2.3 C16.2 4.5 10.7 8.9 5.9 17.9 C2.8 24 3.3 31 3.3 44.8 C3.2 45 3.1 45.2 2.9 45.5 z" id="m1" fill="#32363A" /><path d="M3.1 45.6 C3 45.6 3 45.5 2.9 45.5 C3.1 45.2 3.2 45 3.3 44.8 C3.3 31 2.8 24 5.9 17.9 C10 10.2 14.6 5.9 19.6 3.4 C20.5 2.9 21.5 2.5 22.4 2.2 C28.4 0.1 35.8 1.2 39.1 1.2 C42.4 1.2 49.8 0 55.8 2.2 C61.8 4.3 67.3 8.7 72.1 17.8 C75.3 23.9 74.7 30.9 74.7 44.7 C78.4 52.8 78.9 59.7 75.7 66.7 C69.2 80.8 54 87.8 39.1 87.9 C24.2 87.8 9.1 80.8 2.5 66.7 C-0.6 60 -0.3 53.3 3.1 45.6 z M5.6 43.7 C5.6 43.8 3 48.1 2.3 51.4 C1.2 56 1.6 61.4 3.4 65.2 C9.8 78.8 24.6 85.5 39.1 85.6 C53.6 85.5 68.5 78.8 74.8 65.2 C77.9 58.5 76.8 51.9 73.2 44.1 C73.2 30.8 74.4 24 71.3 18.1 C66.6 9.3 61.2 5.1 55.4 3.1 C49.5 1 42.3 2.1 39.1 2.1 C35.9 2.1 28.7 1.1 22.8 3.1 C21.9 3.4 21 3.8 20.1 4.2 C15.2 6.6 10.7 10.8 6.7 18.2 C3.7 24.1 5.6 30.4 5.6 43.7 z" opacity="0.15" id="n1" /></g><g id="o1"><g transform="translate(96.70002, 55.09997) translate(49, 49)" id="p1"><path d="M4.9 47.3 C3.6 44.4 4 38.4 6.2 35.6 C7.4 34.1 9.4 31.1 12.6 29.9 C15.5 28.7 19.3 29.2 23.6 29.2 C27.7 29.2 29.8 28.7 32.4 29.6 C35.4 30.7 38.4 33.2 39.9 35.6 C42.6 39.9 42.1 45.1 40.5 47.3 C39.8 48.3 37.6 51.5 35.2 51.8 C32.2 52.2 28.5 50.1 24.2 50.1 C20.6 50.1 16.7 51.9 13.2 51.8 C9 51.6 5.6 48.9 4.9 47.3 z" id="q1" fill="#FEFEFE" /><path d="M14.9 29.3 C14.4 29.4 13.9 29.5 13.5 29.7 C10.6 30.9 8.7 33.6 7.6 35 C5.5 37.6 5.2 43.1 6.4 45.8 C7 47.3 10.2 49.8 14 49.9 C17.2 50 20.9 48.4 24.1 48.4 C28.1 48.4 31.5 50.3 34.3 49.9 C36.5 49.6 38.5 46.7 39.1 45.8 C40.5 43.7 41 39 38.5 35 C37.2 32.9 34.4 30.5 31.6 29.5 C31.3 29.4 30.9 29.3 30.6 29.2 C31.2 29.3 31.8 29.4 32.4 29.6 C35.4 30.7 38.4 33.2 39.9 35.6 C42.6 39.9 42.1 45.1 40.5 47.3 C39.8 48.3 37.6 51.5 35.2 51.8 C32.2 52.2 28.5 50.1 24.2 50.1 C20.6 50.1 16.7 51.9 13.2 51.8 C9 51.7 5.6 48.9 4.9 47.3 C3.6 44.4 4 38.4 6.2 35.6 C7.4 34.1 9.4 31.1 12.6 29.9 C13.3 29.6 14.1 29.4 14.9 29.3 z" opacity="0.15" id="r1" /><g opacity="0.4" transform="translate(6, 34)" id="s1"><circle cx="29.5" cy="11.5" r="1" opacity="0.4" id="t1" /><circle cx="24.5" cy="12.5" r="1" opacity="0.4" id="u1" /><circle cx="5.5" cy="11.5" r="1" opacity="0.4" id="v1" /><circle cx="10.5" cy="11.5" r="1" opacity="0.4" id="w1" /><circle cx="4.5" cy="4.5" r="1" opacity="0.4" id="x1" /><circle cx="32.5" cy="7.5" r="1" opacity="0.4" id="y1" /><circle cx="27.5" cy="8.5" r="1" opacity="0.4" id="z1" /><circle cx="6.5" cy="7.5" r="1" opacity="0.4" id="a2" /><circle cx="2.5" cy="8.5" r="1" opacity="0.4" id="b2" /><circle cx="30.5" cy="4.5" r="1" opacity="0.4" id="c2" /></g><path d="M16.9 41.4 C18.5 43.3 19.1 45.2 18.8 47.1 C18.5 49 17.2 50.4 15.1 51.4 C16.4 51.1 17.3 50.8 17.9 50.7 C19 50.4 19.9 50 20.8 49.9 C21.7 49.7 22.6 49.7 23.3 49.7 C24.2 49.7 25 49.8 26.1 50 C26.7 50.1 27.3 50.4 28.4 50.7 C28.9 50.8 29.8 51 31 51.3 C28.9 50.1 27.7 48.7 27.5 47.2 C27.3 45.7 27.9 43.8 29.4 41.4 C26.7 42.9 24.7 43.7 23.4 43.7 C22.1 43.7 19.8 42.9 16.9 41.4 z" opacity="0.15" id="d2" /></g><g transform="translate(91.40001, 72.59997) translate(65, 74)" id="e2"><path d="M4.2 17 C7.4 16.4 9.1 15 10.5 13.9 C11.4 13.2 12.4 12.3 13.4 11.1 C14.7 12.7 15.6 13.7 16.2 14.1 C17 14.8 19.4 16.3 20.9 16.9 C22.4 17.5 26.3 17.8 26.3 17.2 C26.3 16.6 21.8 15.9 20.2 14.7 C18.6 13.5 17 12.5 15.9 11 C14.9 9.6 15.3 8.6 15.2 7 C15.1 5 15.4 2.8 15.5 1.3 C15.6 -0.7 12.3 -0.1 12.3 1.3 C12.3 2.7 12.3 4.8 12.3 6.6 C12.3 8.4 11.6 10.6 10.2 11.8 C8.8 13 6.9 14.5 4.8 15.3 C3.5 15.8 0.8 16.4 0.9 17 C0.8 17.4 2.9 17.3 4.2 17 z" id="f2" fill="#282421" /></g><g transform="translate(169.8, 142.2) scale(0.8) translate(-169.8, -142.2) translate(103.4, 76.19997) translate(56, 60)" id="g2"><g id="h2"><path d="M0.9 8.2 C2.5 12.2 3.6 15.3 5.8 16 C8 16.7 12.1 16.7 13.8 15.9 C15.5 15.2 20.4 8.5 20.8 6.1 C21.1 3.7 19.1 2.6 17.2 1.5 C15.4 0.3 9.6 0.3 7.1 0.3 C4.6 0.3 -0.7 4.1 0.9 8.2 z" id="i2" fill="#353535" /><path d="M13.5 3.2 C13.5 5.7 14.3 8 15.3 7.8 C16 7.7 16.8 6.9 17.7 5.5 C14.9 2.3 13.5 1.6 13.5 3.2 z" id="j2" fill="#FFF3F3" /></g></g><g transform="translate(111.1, 57.99996) translate(30, 41)" id="k2"><g id="l2"><ellipse cx="11.1" cy="20" rx="10.5" ry="10" id="m2" fill="#FEFEFE" /><circle cx="12.1" cy="19" r="6.5" id="n2" fill="#424242" /><circle cx="10.1" cy="17" r="2.5" id="o2" fill="#FFF" /><circle cx="14.6" cy="20.5" r="1" id="p2" fill="#FFF" /><path d="M6.5 4.2 C4.5 6.7 6.1 10 8.5 9.3 C10.9 8.5 16 7.2 16.9 5.7 C17.8 4.2 17.1 -0.1 14.2 0.6 C11.3 1.3 8.5 1.8 6.5 4.2 z" id="q2" fill="#D8D8D8" /></g></g><g transform="translate(104.8, 57.99996) translate(69, 41)" id="r2"><g id="s2"><ellipse cx="11.1" cy="20" rx="10.5" ry="10" id="t2" fill="#FEFEFE" /><circle cx="10.2" cy="19" r="6.5" id="u2" fill="#424242" /><circle cx="8.2" cy="17" r="2.5" id="v2" fill="#FFF" /><circle cx="12.7" cy="20.5" r="1" id="w2" fill="#FFF" /><path d="M15.5 4.2 C17.5 6.7 15.9 10 13.5 9.3 C11.1 8.5 6 7.2 5.1 5.7 C4.2 4.2 4.9 -0.1 7.8 0.6 C10.7 1.3 13.5 1.8 15.5 4.2 z" id="x2" fill="#D8D8D8" /></g></g></g></g></g></g><defs><g transform="translate(17.09519, 0.800995) translate(-135.2952, -293.601)" id="y2" fill="#000"><path d="M118.2 302.7 C118.4 307.4 132.5 311.2 149.8 311.2 C167.1 311.2 181.2 307.4 181.4 302.7 C181.4 307.5 181.4 310.1 181.4 310.5 C181.4 315.3 167.3 319.1 149.8 319.1 C132.3 319.1 118.2 315.2 118.2 310.5 L118.2 302.7 L118.2 302.7 z" fill-opacity="0.4528" id="z2" fill="#593001" /><path d="M118.7 301.7 C118.9 306.4 133 310.2 150.3 310.2 C167.6 310.2 181.7 306.4 181.9 301.7 C181.9 306.5 181.9 309.1 181.9 309.5 C181.9 314.3 167.8 318.1 150.3 318.1 C132.8 318.1 118.7 314.2 118.7 309.5 L118.7 301.7 L118.7 301.7 z" id="a3" fill="#DA8113" /><linearGradient x1="46.0545" y1="-118.6926" x2="45.4656" y2="-118.6926" gradientUnits="userSpaceOnUse" gradientTransform="matrix(117.135, 0, 0, 28.4634, -5208.417, 3687.795)" id="b3"><stop offset="0%" stop-color="#D9952A" stop-opacity="1" /><stop offset="6.438854%" stop-color="#CA7519" stop-opacity="1" /><stop offset="30.54%" stop-color="#E3AD3A" stop-opacity="1" /><stop offset="51.05%" stop-color="#FFEC91" stop-opacity="1" /><stop offset="68.8%" stop-color="#E9BD44" stop-opacity="1" /><stop offset="86.24%" stop-color="#FFED6C" stop-opacity="1" /><stop offset="93.87%" stop-color="#F2D353" stop-opacity="1" /><stop offset="100%" stop-color="#F2B947" stop-opacity="1" /></linearGradient><path d="M118.2 301.6 C118.4 306.1 132.7 309.7 150.3 309.7 C167.9 309.7 182.2 306.1 182.4 301.6 C182.4 306.2 182.4 308.7 182.4 309 C182.4 313.5 168 317.2 150.3 317.2 C132.6 317.2 118.2 313.5 118.2 309 L118.2 301.6 L118.2 301.6 z" id="c3" style="fill:url(#b3)" /><linearGradient x1="45.4914" y1="-117.9547" x2="45.9407" y2="-117.5895" gradientUnits="userSpaceOnUse" gradientTransform="matrix(115.425, 0, 0, 29.925, -5125.077, 3826.124)" id="d3"><stop offset="0%" stop-color="#F4E072" stop-opacity="1" /><stop offset="100%" stop-color="#DB9427" stop-opacity="1" /></linearGradient><ellipse cx="150.3" cy="301.5" rx="31.6" ry="8.2" id="e3" style="fill:url(#d3)" /><linearGradient x1="45.4656" y1="-126.0065" x2="46.0545" y2="-126.0065" gradientUnits="userSpaceOnUse" gradientTransform="matrix(117.135, 0, 0, 18.6219, -5208.417, 2651.479)" id="f3"><stop offset="0%" stop-color="#D9952A" stop-opacity="1" /><stop offset="6.438854%" stop-color="#CA7519" stop-opacity="1" /><stop offset="30.54%" stop-color="#E3AD3A" stop-opacity="1" /><stop offset="51.05%" stop-color="#FFEC91" stop-opacity="1" /><stop offset="68.8%" stop-color="#E9BD44" stop-opacity="1" /><stop offset="86.24%" stop-color="#FFED6C" stop-opacity="1" /><stop offset="93.87%" stop-color="#F2D353" stop-opacity="1" /><stop offset="100%" stop-color="#F2B947" stop-opacity="1" /></linearGradient><path d="M119.2 299.9 C119 300.2 118.9 300.6 118.9 301 C118.9 305.5 132.9 309.2 150.3 309.2 C167.7 309.2 181.7 305.5 181.7 301 C181.7 300.6 181.6 300.3 181.4 299.9 C182 300.5 182.4 301.2 182.4 301.9 C182.4 306.4 168 310.1 150.3 310.1 C132.6 310.1 118.2 306.4 118.2 301.9 C118.2 301.3 118.6 300.6 119.2 299.9 z" id="g3" style="fill:url(#f3)" /><linearGradient x1="45.196" y1="-121.5895" x2="45.3746" y2="-120.6758" gradientUnits="userSpaceOnUse" gradientTransform="matrix(101.745, 0, 0, 23.94, -4458.332, 3199.41)" id="h3"><stop offset="0%" stop-color="#F8DD61" stop-opacity="1" /><stop offset="100%" stop-color="#EAA330" stop-opacity="1" /></linearGradient><ellipse cx="150.3" cy="300.8" rx="27.8" ry="6.6" id="i3" style="fill:url(#h3)" /><linearGradient x1="45.5694" y1="-134.267" x2="45.0221" y2="-134.267" gradientUnits="userSpaceOnUse" gradientTransform="matrix(101.745, 0, 0, 13.2525, -4458.332, 2077.223)" id="j3"><stop offset="0%" stop-color="#F4CA2F" stop-opacity="1" /><stop offset="51.38%" stop-color="#BF7737" stop-opacity="1" /><stop offset="100%" stop-color="#E4A929" stop-opacity="1" /></linearGradient><path d="M122.6 301.5 C122.5 301.3 122.4 301 122.4 300.8 C122.4 297.2 134.9 294.2 150.2 294.2 C165.5 294.2 178 297.1 178 300.8 C178 301 177.9 301.3 177.8 301.5 C176.3 298.2 164.5 295.6 150.1 295.6 C135.7 295.6 124.1 298.2 122.6 301.5 z" id="k3" style="fill:url(#j3)" /></g></defs><desc>4I45N7E52OJ,FbsCkMxedKf03wRzdN1TpixWlEr2J/fozM9mdfLSzKIQWIoIy4z07bQbJbTaf7o2TDLl+saY9B+wKqkQy1ae7ZgabojSB+5TUASAN7HU8hI=</desc></svg>