<?xml version="1.0" encoding="utf-8"?><!DOCTYPE svg PUBLIC "-//W3C//DTD SVG 1.1//EN" "http://www.w3.org/Graphics/SVG/1.1/DTD/svg11.dtd"><svg x="0" y="0" width="340px" height="340px" viewBox="0, 0, 340, 340" preserveAspectRatio="xMidYMid" font-size="0" id="a" enable-background="new 0 0 340 340" xmlns="http://www.w3.org/2000/svg" xmlns:xlink="http://www.w3.org/1999/xlink" xmlns:xml="http://www.w3.org/XML/1998/namespace" version="1.1"><g id="b" fill="#000"><g id="c"><g transform="translate(0, 0) translate(0, 224)" id="d"><ellipse cx="168.6" cy="53.1" rx="57.8" ry="12.8" fill-opacity="0.25" id="e" /></g><g id="f"><g transform="translate(86, 86.29999) translate(32.5, 177.5) scale(-1, 1) translate(-32.5, -177.5) translate(0, 152)" id="g"><path d="M29.6 27.4 C51.4 29 52.4 37.4 52 41.3 C51.9 42.7 50.9 42.4 48.4 43.4 C46.1 44.4 45.7 45.2 43.7 45.6 C41.5 46 39.1 46 38.3 47.2 C37.5 48.4 34.2 51 37 50.7 C37.5 50.6 40.4 50.7 41.6 50.7 C42.8 50.7 45.7 48.5 46.2 48.5 C46.4 48.5 44 50.8 44.2 50.7 C45.2 50.5 48.9 47.9 49.9 47.7 C51.5 47.3 51 49.2 52.6 48.7 C53.9 48.2 57.3 45.3 58.4 44.7 C59.3 44.2 58.8 46.1 59.5 45.6 C60.2 45 62.1 41.1 62.5 40.4 C62.9 39.7 63.2 39.8 63.4 39.1 C63.6 38.3 63 35.1 63 34.3 C63 33.1 64.7 34.8 64.2 33.6 C63.8 32.7 62.7 29.4 62.1 28.5 C61.3 27.4 60.2 26 59 25 C58.3 24.4 60.7 25.7 62.1 26.6 C63.5 27.5 62 24 60.3 22.2 C59.2 21.1 56.3 19.1 55.2 18.9 C53.4 18.5 50.6 17.6 48 17.3 C46.6 17.1 44.6 17.4 44.4 17.3 C43.1 16.9 50 17 51.1 16.6 C51.7 16.4 50.5 15.9 49.2 15.4 C48.6 15.2 47 14.9 46.3 14.8 C45 14.7 42.4 14.3 39.8 14.4 C37.9 14.4 35.6 14.9 35.4 14.8 C33.8 14.4 40.2 13.9 38.5 13.5 C37.2 13.2 29.5 13.3 28.1 13 C21.3 12 16.4 15.5 10.1 17 C3.4 18.6 -3.8 23.7 3.9 27.4 C7.9 29.4 17.9 26.5 29.6 27.4 z" id="h" fill="#776F64" /><path d="M26.9 29.4 C29.4 29.6 33.4 29.1 35.3 29.4 C35.7 29.5 38.9 30.1 40 30.7 C41.6 31.6 43.1 33.8 44.1 33.8 C45 33.8 43.5 30.7 44.1 31 C45.6 31.7 45.5 34 46.3 34.2 C47.1 34.5 47 32.8 48 34.2 C48.9 35.4 49.1 37.7 49.6 38 C50.5 38.5 50.5 35.7 51 36.3 C51.6 36.9 50.8 38.4 51 38.9 C51.6 40.2 51.9 39.6 51.7 40.9 C51.6 41.7 51.1 42.8 50.1 43.4 C50.2 43.4 50.6 43.1 50.6 43.1 C54.8 40 56 37.6 55 35.2 C54.4 33.8 56.2 33.7 55 32.2 C54.3 31.3 51.2 28.9 49.6 28.1 C48.4 27.5 51.3 27.4 49.6 26.7 C48.6 26.3 42.2 25.7 41.1 25.5 C39.5 25.1 42.2 24.7 40.2 24.3 C35.7 23.4 25.8 22.3 19.5 21 C15.1 20.8 11.3 21.5 8.1 23.2 C4.9 24.9 4 26.5 5.3 28.1 C5.3 28.4 13.3 28.3 14.8 29.1 C19.6 29.4 21.3 28.9 26.9 29.4 z" id="i" fill="#665F57" /><path d="M5.1 27.8 C4.7 27.7 4.3 27.6 3.9 27.4 C-3.8 23.7 3.4 18.6 10.1 17 C16.4 15.5 21.3 12 28.1 13 C29.5 13.3 37.2 13.2 38.5 13.5 C40.2 13.9 33.8 14.4 35.4 14.8 C35.6 14.9 37.9 14.4 39.8 14.4 C42.4 14.3 45 14.7 46.3 14.8 C47 14.9 48.6 15.2 49.2 15.4 C50.5 15.9 51.7 16.4 51.1 16.6 C50 17 43.1 16.9 44.4 17.3 C44.6 17.4 46.6 17.1 48 17.3 C50.6 17.6 53.4 18.5 55.2 18.9 C56.3 19.1 59.2 21.1 60.3 22.2 C62 24 63.5 27.5 62.1 26.6 C60.7 25.7 58.3 24.4 59 25 C60.2 26 61.3 27.4 62.1 28.5 C62.7 29.4 63.8 32.7 64.2 33.6 C64.7 34.8 63 33.1 63 34.3 C63 35.1 63.6 38.3 63.4 39.1 C63.2 39.8 62.9 39.7 62.5 40.4 C62.1 41.1 60.2 45 59.5 45.6 C58.8 46.1 59.3 44.2 58.4 44.7 C57.3 45.3 53.9 48.2 52.6 48.7 C51 49.2 51.5 47.3 49.9 47.7 C48.9 47.9 45.2 50.5 44.2 50.7 C44 50.8 46.4 48.5 46.2 48.5 C45.7 48.5 42.8 50.7 41.6 50.7 C40.4 50.7 37.5 50.6 37 50.7 C34.2 51 37.5 48.4 38.3 47.2 C39.1 46 41.5 46 43.7 45.6 C45.7 45.2 46.1 44.4 48.4 43.4 C49.6 42.9 50.5 42.7 51 42.5 C51.4 42 51.6 41.4 51.7 40.9 C51.9 39.6 51.6 40.2 51 38.9 C50.8 38.4 51.6 36.9 51 36.3 C50.5 35.7 50.5 38.5 49.6 38 C49.1 37.7 48.9 35.4 48 34.2 C47 32.8 47.1 34.5 46.3 34.2 C45.5 34 45.6 31.7 44.1 31 C43.5 30.7 45 33.8 44.1 33.8 C43.1 33.8 41.6 31.6 40 30.7 C38.9 30.1 35.7 29.5 35.3 29.4 C33.4 29.1 29.4 29.6 26.9 29.4 C21.3 28.9 19.6 29.4 14.8 29.1 C13.3 28.3 5.3 28.4 5.3 28.1 C5.2 28 5.2 27.9 5.1 27.8 z M10.2 26.9 C10.5 27.1 10.9 27.2 11.3 27.3 C11.3 27.4 11.4 27.4 11.5 27.5 C11.5 27.8 18.5 27.7 19.9 28.4 C24.1 28.7 25.6 28.2 30.5 28.7 C32.8 28.9 34.5 27.6 36.2 27.9 C36.6 28 39.3 29 40.2 29.6 C41.6 30.4 42.6 32.4 43.5 32.4 C44.3 32.4 42.6 29.3 43.2 29.6 C44.5 30.2 45.9 32.5 46.6 32.7 C47.3 32.9 48.3 31.7 49.2 32.9 C50 34 49.4 35.6 49.8 35.9 C50.6 36.3 50.9 33.9 51.3 34.4 C51.9 34.9 51.7 36.6 51.8 37.1 C52.4 38.2 52.6 37.7 52.5 38.8 C52.4 39.3 52.6 40.9 52.2 41.4 C51.7 41.6 51.2 43.1 50.1 43.5 C48.1 44.4 48.9 44.5 47.2 44.8 C44.9 46.1 40 46.7 39.3 47.8 C38.6 48.8 36.1 50.2 38.6 50 C39 49.9 42.1 48.4 43.2 48.4 C44.2 48.4 46.7 46.1 47.2 46.1 C47.3 46.1 47.9 47.6 48 47.5 C48.9 47.3 50 45 50.9 44.8 C52.3 44.5 51.8 46.2 53.3 45.7 C54.4 45.3 57.4 42.7 58.4 42.2 C59.2 41.8 59.7 42.9 60.3 42.5 C60.9 42 61.6 39 62 38.4 C62.4 37.8 62.2 37.7 62.4 37.1 C62.6 36.4 61.6 34.1 61.6 33.4 C61.6 32.3 63.2 34 62.8 32.9 C62.4 32.1 61.4 28.9 60.8 28.1 C60.1 27.2 58.8 25.3 57.7 24.4 C57.1 23.9 58.9 24 60.1 24.8 C61.3 25.6 60.4 23.8 58.9 22.2 C57.9 21.2 54.8 19.7 53.8 19.6 C52.2 19.2 46.2 18.4 43.9 18.1 C42.6 17.9 39.6 17.8 39.5 17.7 C38.3 17.4 41 17 41.9 16.6 C42.5 16.4 50 16.4 48.9 16 C48.3 15.8 46.4 15.5 45.8 15.4 C44.7 15.3 44.2 15.3 41.9 15.4 C40.3 15.4 33.1 15.1 32.9 15 C31.5 14.7 37.7 14.2 36.2 13.8 C35.1 13.6 30 14.1 28.8 13.8 C22.8 12.9 21.3 16.4 15.7 17.7 C9.8 19.1 3.4 23.6 10.2 26.9 z" opacity="0.15" id="j" /></g><g transform="translate(121.7, 275.3) scale(1.490683) translate(-121.7, -275.3) translate(100.5, 78.49997) translate(14, 151)" id="k"><path d="M21.4 0.7 C15.4 0.7 10.5 1.3 7.1 4.6 C3.7 7.9 0 10.4 0.4 18.5 C0.8 26.6 3.2 33.9 10.9 36.8 C6.8 39 6.4 40.4 6.8 43.2 C7.1 45.9 6.5 46.6 14 45.9 C19 45.5 23.5 45.2 27.5 45.2 C29.2 42.4 29.8 38.9 29.3 34.7 C30.6 32.1 35 17.8 32.3 12 C29.6 6.2 27.4 0.7 21.4 0.7 z" id="l" fill="#665F57" /><path d="M21.4 0.7 C27.4 0.7 29.6 6.2 32.3 12 C35 17.8 30.6 32.1 29.3 34.7 C29.8 38.9 29.2 42.4 27.5 45.2 C23.5 45.2 19 45.5 14 45.9 C6.5 46.6 7.1 45.9 6.8 43.2 C6.4 40.4 6.8 39 10.9 36.8 C3.2 33.9 0.8 26.6 0.4 18.5 C0 10.4 3.7 7.9 7.1 4.6 C10.5 1.3 15.4 0.7 21.4 0.7 z M21.1 1.4 C15.5 1.4 11 1.9 7.8 5 C4.6 8 1.2 10.3 1.6 17.9 C2 25.4 6 34.1 13.2 36.8 C9.4 38.9 7.8 38.9 8.2 41.5 C8.4 44 7.2 43.9 14.2 43.3 C18.8 42.9 23 42.6 26.7 42.6 C28.3 40 28.9 36.8 28.4 32.9 C29.6 30.5 33.7 17.2 31.2 11.8 C28.7 6.5 26.6 1.4 21.1 1.4 z" opacity="0.15" id="m" /></g><g transform="translate(218.3, 275.3) scale(1.490683) translate(-218.3, -275.3) translate(110.9, 78.89996) translate(98, 175.5) scale(-1, 1) translate(-98, -175.5) translate(81, 151)" id="n"><path d="M22.1 0.7 C16.1 0.7 11.2 1.3 7.8 4.6 C4.4 7.9 0.6 10.4 1 18.5 C1.4 26.6 3.8 33.9 11.5 36.8 C7.4 39 7 40.4 7.4 43.2 C7.8 46 7.1 46.6 14.6 45.9 C19.6 45.5 24.1 45.2 28.1 45.2 C29.8 42.4 30.4 38.9 29.9 34.7 C31.2 32.1 35.6 17.8 32.9 12 C30.2 6.2 28 0.7 22.1 0.7 z" id="o" fill="#665F57" /><path d="M22.1 0.7 C28 0.7 30.2 6.2 32.9 12 C35.6 17.8 31.2 32.1 29.9 34.7 C30.4 38.9 29.8 42.4 28.1 45.2 C24.1 45.2 19.6 45.5 14.6 45.9 C7.1 46.6 7.8 46 7.4 43.2 C7 40.4 7.4 39 11.5 36.8 C3.8 33.9 1.4 26.6 1 18.5 C0.6 10.4 4.4 7.9 7.8 4.6 C11.2 1.3 16.1 0.7 22.1 0.7 z M21.8 1.1 C16.2 1.1 11.6 1.7 8.4 4.8 C5.2 7.9 1.6 10.2 2 17.8 C2.4 25.4 6.9 33.7 14.1 36.5 C10.3 38.5 8 38.9 8.4 41.5 C8.8 44.1 7.7 44.2 14.8 43.5 C19.5 43.1 23.7 42.9 27.4 42.9 C29 40.2 29.6 36.9 29.1 33 C30.3 30.6 34.5 17.1 31.9 11.7 C29.4 6.3 27.3 1.1 21.8 1.1 z" opacity="0.15" id="p" /></g><g transform="translate(98.00001, 60.59998) translate(25, 71)" id="q"><g id="r"><path d="M69.5 24.8 C69.5 41 72.2 39.3 73.9 43.9 C75.6 48.5 82.5 57.5 83.8 70.3 C85.1 83.1 84.4 97 80.4 108.7 C76.4 120.4 79.3 141.6 69.6 144.3 C69.3 144.4 37.7 147.4 26 144.3 C13.8 141.1 19.8 128.1 14.4 110.8 C9 93.5 8.1 84.8 8.4 70.4 C8.7 56 18.7 48.8 20.5 43.9 C22.3 39 24.6 37.2 24.6 24.8 C24.6 12.4 32.6 5.4 50.1 5.9 C55.4 5.9 69.5 8.4 69.5 24.8 z" id="s" fill="#453D37" /><g id="t"><path d="M8.7 40.5 C8.6 41.2 8.6 42.1 8.7 43.4 C8.9 47.3 7 51.1 5.3 55.1 C2.8 61.3 -0.1 70.5 -0.5 75.6 C-1.7 88.9 2 96.6 7.7 113.6 C13.4 130.6 13.9 141.5 16.6 144 C19.3 146.5 37.2 147 46.6 147.3 C56 147.6 76.8 145.7 78.6 144 C80.4 142.3 83.4 124.7 86.4 117.4 C89.4 110.1 93.5 86.6 93.8 78 C94.1 68.2 90.7 59.4 87.8 54.9 C86.1 52.3 81.6 45.5 84 40 C84.2 38.6 59.2 38.8 8.7 40.5 z" id="u" fill="#776F64" /><path d="M9.3 30.9 C7.8 37.9 9.4 42.3 7.8 47.1 C9.2 48.8 16.3 61 21.5 66.4 C26.2 71.1 33 77.2 37.6 80.6 C42.2 84 44.6 86.3 46.9 86.4 C49.2 86.5 56.7 80.6 59.8 78.4 C62.8 76.1 69.6 70.5 75.4 62.4 C80.6 55.2 83.7 49.8 84.4 48.9 C85.9 46.9 84.6 45.8 84.5 37 C84.4 29.2 61.8 29.3 51.2 29.5 C40.6 29.7 12.2 25.2 9.3 30.9 z" id="v" fill="#665F57" /><path d="M11.6 21.9 C10.3 23.4 9.6 28.3 10.3 33.6 C11 38.9 18.6 50.6 25.6 58.1 C32.6 65.6 44.2 74.4 47.4 74.5 C49.9 74.6 60.4 67.3 68.8 59.7 C77.2 52.1 81.8 36.2 82.3 32.4 C83.1 27.2 82.5 22.7 80.9 21.2 C77.9 18.5 76.2 -0.6 46.5 -0.6 C17.2 -0.6 14.2 18.9 11.6 21.9 z" id="w" fill="#776F64" /></g><path d="M10 30 C9.9 26.2 10.6 22.9 11.6 21.8 C14.2 18.8 17.3 -0.7 46.7 -0.7 C76.3 -0.6 78 18.5 81 21.2 C82.6 22.7 83.2 27.2 82.4 32.4 C82.4 32.7 82.3 33.1 82.2 33.5 C83.6 34.5 84.5 35.7 84.5 37.2 C84.6 45.9 85.9 47.1 84.5 49 C85.5 51.5 86.9 53.7 87.7 54.9 C90.6 59.4 94 68.2 93.7 78 C93.4 86.7 89.3 110.2 86.3 117.4 C83.3 124.6 80.3 142.3 78.5 144 C76.7 145.7 55.9 147.6 46.5 147.3 C37.1 147 19.2 146.5 16.5 144 C13.8 141.5 13.3 130.6 7.6 113.6 C1.9 96.6 -1.8 89 -0.6 75.6 C-0.2 70.5 2.7 61.3 5.2 55.1 C6.3 52.6 7.4 50.1 8.1 47.7 C7.9 47.5 7.8 47.3 7.7 47.2 C9.3 42.3 7.7 37.9 9.2 31 C9.5 30.6 9.7 30.3 10 30 z M11.4 30.6 C11.1 30.9 10.9 31.1 10.7 31.5 C9.3 38.2 10.8 42.5 9.3 47.1 C9.4 47.2 9.5 47.4 9.7 47.6 C9.1 50 8 52.4 6.9 54.8 C4.5 60.8 1.7 69.6 1.3 74.6 C0.1 87.3 3.6 94.7 9.1 111 C14.6 127.3 15.1 137.9 17.7 140.3 C20.3 142.7 37.5 143.2 46.6 143.5 C55.7 143.8 75.7 142 77.4 140.3 C79.1 138.7 82 121.7 84.9 114.7 C87.8 107.7 91.7 85 92 76.6 C92.3 67.2 89 58.7 86.2 54.3 C85.4 53.1 84.1 51.1 83.1 48.6 C84.5 46.7 83.2 45.6 83.1 37.2 C83.1 35.8 82.3 34.6 80.9 33.7 C81 33.3 81.1 32.9 81.1 32.6 C81.9 27.6 81.3 23.3 79.8 21.8 C76.9 19.3 75.3 0.9 46.7 0.9 C18.4 0.9 15.4 19.7 12.9 22.6 C11.9 23.9 11.3 27 11.4 30.6 z" opacity="0.15" id="x" /></g></g><g transform="translate(122.8025, 154.625) scale(1.15, 1.310914) translate(-128.9, -156.9) translate(109.9, 77.29997)" id="y"><path d="M27.3 124.6 C24.3 138.7 29.4 139.8 32.1 151.3 C33.9 158.9 35.4 165.1 36.8 169.9 L48.9 167.7 C48.9 157.8 49.6 152 51 150.1 C53.2 147.3 55.7 147.2 56.8 143.3 C57.5 140.7 56.8 133.5 54.9 127.7 C53.8 124.1 47.6 121.9 45.2 120.8 C40 118.4 35.5 118.8 31.3 114.2 C29.9 112.5 28.1 121.7 27.3 124.6 z" id="z" fill="#9B8C78" /><path d="M48.9 158.7 C48.9 161.5 50.4 172.2 48.9 174.2 C47.4 176.2 45.2 177.1 43.2 177.4 C41.2 177.7 34.7 177.3 32.5 177.7 C30.2 178.1 27 174.6 27 172.7 C27 170.8 27.3 165.9 30.4 164.7 C33.5 163.5 26 164.6 35.5 163.3 C36.2 163.2 35.2 157.5 36.1 158.1 C36.6 158.4 39.3 165.3 39.6 164.7 C40.4 163.1 39.8 156.9 40.6 156.7 C41.9 156.4 43.7 161.4 45.5 162.2 C49.6 164 48.9 153.7 48.9 158.7 z" id="a1" fill="#F2E5D3" /><path d="M92 124.6 C95 138.7 89.9 139.8 87.2 151.3 C85.4 158.9 83.9 165.1 82.5 169.9 L70.4 167.7 C70.4 157.8 69.7 152 68.3 150.1 C66.1 147.3 64.5 147.9 63.5 144 C62.8 141.5 62.5 134.7 65 128.4 C66.4 124.9 71.3 122.5 73.8 121.3 C76.5 120.1 80.2 119.9 83.2 118 C85.9 116.3 87.4 111.8 88.9 115.4 C89.7 118.2 90.9 122 92 124.6 z" id="b1" fill="#9B8C78" /><path d="M70.4 158.7 C70.4 161.5 68.9 172.2 70.4 174.2 C71.9 176.2 74.1 177.1 76.1 177.4 C78.1 177.7 84.6 177.3 86.8 177.7 C89.1 178.1 92.3 174.6 92.3 172.7 C92.3 170.8 92 165.9 88.9 164.7 C85.8 163.5 93.3 164.6 83.8 163.3 C83.1 163.2 84.1 157.5 83.2 158.1 C82.7 158.4 80 165.3 79.7 164.7 C78.9 163.1 79.5 156.9 78.7 156.7 C77.4 156.4 75.6 161.4 73.8 162.2 C69.7 164 70.4 153.7 70.4 158.7 z" id="c1" fill="#F2E5D3" /><path d="M31.6 114.5 C30.3 113.7 28.7 121.9 28 124.6 C25.1 138 30 139.1 32.6 150 C33.6 154.3 35.6 160.4 36.4 163.8 C28 164.9 34.3 164.4 31.4 165.5 C28.4 166.6 27.9 168.6 27.9 170.4 C27.9 172.2 30.7 175.5 32.9 175.1 C35 174.7 41.2 175.1 43.1 174.8 C45 174.5 46.4 174 47.8 172.1 C48.6 171.1 48.6 166.8 47.8 159.3 C48.1 153.7 49.5 150.2 50.5 148.8 C52.6 146.1 55 146 56 142.3 C56.7 139.8 56 133 54.2 127.4 C53.2 124 47.2 121.9 45 120.8 C40.1 118.6 35.9 118.9 32 114.8 C36 118.6 40.3 118.4 45.2 120.7 C47.6 121.8 53.8 124 54.9 127.6 C56.8 133.4 57.5 140.6 56.8 143.2 C55.7 147.1 53.2 147.2 51 150 C50 151.4 49.3 155 49 160.9 C49.3 165.1 50.1 172.4 48.9 174.1 C47.4 176.1 45.2 177 43.2 177.3 C41.2 177.6 34.7 177.2 32.5 177.6 C30.2 178 27 174.5 27 172.6 C27 170.7 27.3 165.8 30.4 164.6 C33.4 163.4 26.3 164.5 35 163.3 C34.1 159.8 33.1 155.8 32.1 151.2 C29.4 139.7 24.3 138.6 27.3 124.5 C28.1 121.6 29.9 112.4 31.3 114.1 C31.4 114.3 31.5 114.4 31.6 114.5 z" opacity="0.15" id="d1" /><path d="M85 116.4 C84.4 117.1 83.7 117.8 82.9 118.3 C80 120.1 76.5 120.3 73.9 121.4 C71.5 122.5 66.8 124.8 65.5 128.2 C63.1 134.2 63.4 140.7 64.1 143.1 C65.1 146.8 66.6 146.2 68.7 148.9 C69.7 150.3 70.9 154.3 71.1 160 C70.8 164 69.9 170.7 71.1 172.2 C72.5 174.1 74.2 174.6 76.1 174.9 C78 175.2 84.2 174.8 86.3 175.2 C88.5 175.6 91.3 172.3 91.3 170.5 C91.3 168.7 91.3 167.3 88.3 166.2 C85.4 165.1 91.2 165.8 82.9 164.6 L83.9 161.6 C84.8 158.2 85.7 154.4 86.7 150.1 C89.3 139.1 94.1 138.1 91.3 124.6 C90.3 122.1 89.1 118.5 88.3 115.8 C87.5 113.9 86.7 114.4 85.7 115.5 C87 114.1 87.9 113.1 88.8 115.4 C89.6 118.2 90.8 122 91.9 124.6 C94.9 138.7 89.8 139.8 87.1 151.3 C86 155.8 85.1 159.8 84.2 163.4 C93 164.6 85.8 163.6 88.8 164.7 C91.9 165.9 92.2 170.8 92.2 172.7 C92.2 174.6 89 178.1 86.7 177.7 C84.5 177.3 78 177.7 76 177.4 C74 177.1 71.8 176.2 70.3 174.2 C69.1 172.6 69.8 165.3 70.2 161 C69.9 155.1 69.3 151.5 68.2 150.1 C66 147.3 64.4 147.9 63.4 144 C62.7 141.5 62.4 134.7 64.9 128.4 C66.3 124.9 71.2 122.5 73.7 121.3 C76.4 120.1 80.1 119.9 83.1 118 C83.9 117.6 84.5 117 85 116.4 z" opacity="0.15" id="e1" /><path d="M20.3 98.1 C19 103.8 20.5 106.5 21.1 110 C21.5 112.3 22.5 115.5 24 119.6 L25.6 115.8 C26.7 120.6 27.9 123.8 29.1 125.5 C30.3 127.2 32 129.5 34 132.3 L34.7 127.7 C35.9 129.5 37.6 131.8 40 134.7 C42.4 137.5 43.2 138.9 42.6 138.9 L44.7 134.7 C46.3 137.4 47.8 139.5 49.3 140.8 C50.8 142.2 52.9 144 55.7 146.2 L55.7 141.7 C58 144.7 59.6 146.2 60.6 146.2 C61.6 146.2 63.3 144.7 65.9 141.7 L65.9 146.2 C72.8 141.3 76.5 137.9 76.9 136.1 C78.7 137.4 79.6 138.3 79.6 138.9 C81.2 137.4 82.4 135.6 83 133.6 C83.7 131.6 84.7 129.1 86 126.2 L87.7 129.4 C92 124.1 94.7 119.9 95.8 116.7 C97.5 112 100.3 100.3 97.5 92.3 C95.6 87.1 90.2 83.1 81.3 80.5 C67.3 80.5 59.4 80.5 57.5 80.5 C54.7 80.5 41.3 79.7 40 80.5 C39.3 80.9 33.2 80.3 26.5 86.3 C24 88.7 21.6 92.4 20.3 98.1 z" id="f1" fill="#FEFEFF" /><path d="M20.3 98.1 C19 103.8 20.5 106.5 21.1 110 C21.3 112.5 22.4 115.6 24 119.6 L25.6 115.8 C26.7 120.6 27.9 123.8 29.1 125.5 C30.3 127.2 32 129.5 34 132.3 L34.7 127.7 C35.9 129.5 37.6 131.8 40 134.7 C42.4 137.5 43.2 138.9 42.6 138.9 L44.7 134.7 C46.3 137.4 47.8 139.5 49.3 140.8 C50.8 142.2 52.9 144 55.7 146.2 L55.7 141.7 C58 144.7 59.6 146.2 60.6 146.2 C61.6 146.2 63.3 144.7 65.9 141.7 L65.9 146.2 C72.8 141.3 76.5 137.9 76.9 136.1 C78.7 137.4 79.6 138.3 79.6 138.9 C81.2 137.4 82.4 135.6 83 133.6 C83.7 131.6 84.7 129.1 86 126.2 L87.7 129.4 C92 124.1 94.7 119.9 95.8 116.7 C97.5 112 100.3 100.3 97.5 92.3 C95.6 87.1 90.2 83.1 81.3 80.5 C67.3 80.5 59.4 80.5 57.5 80.5 C54.7 80.5 41.3 79.7 40 80.5 C39.3 80.9 33.2 80.3 26.5 86.3 C24 88.7 21.6 92.4 20.3 98.1 z" fill-opacity="0.09629755" id="g1" fill="#010101" /><path d="M98.5 97 C98 102.2 96.7 107 95.8 109.7 C94.7 112.9 92 117.1 87.7 122.4 L86 119.2 C84.7 122.1 83.7 124.6 83 126.6 C82.4 128.6 80.4 125.1 78.8 126.6 C78.8 126 75.9 133.2 75.5 135 C75.1 136.8 72 134.7 70.4 129.8 L67.5 137.4 C64.9 140.4 62.5 133.8 61.5 133.8 C60.9 133.8 60.2 140.7 58.4 139.2 C57.2 138.2 54.2 134.4 53.3 133.2 L52.2 136.7 C49.4 134.5 48.5 129.9 46.9 127.2 L42.1 132.5 C42.6 132.5 39 127.9 38.4 127.2 C36 124.3 36 122.5 34.8 120.7 L34.1 125.3 C32.1 122.5 30.4 120.2 29.2 118.5 C28 116.8 26.8 113.6 25.7 108.8 L24.1 112.6 C22.6 108.5 21.6 105.3 21.2 103 C21 101.5 20.5 100.2 20.3 98.8 C20.3 98.6 20.4 98.3 20.4 98.1 C21.7 92.4 24.1 88.7 26.6 86.3 C33.3 80.3 39.4 80.9 40.1 80.5 C41.4 79.7 54.8 80.5 57.6 80.5 L81.3 80.5 C90.2 83.1 95.6 87.1 97.5 92.3 C98 93.8 98.3 95.4 98.5 97 z" id="h1" fill="#FEFEFF" /><path d="M20.4 97.7 C21.7 92.1 24.1 88.4 26.6 86.1 C33.3 80.2 39.4 80.8 40.1 80.4 C41.4 79.6 54.8 80.4 57.6 80.4 L81.3 80.4 C90.2 83 95.6 86.9 97.5 92 C98 93.5 98.3 95.1 98.5 96.6 C98.5 96.8 98.5 96.9 98.5 97.1 C99.5 104.5 97.3 113.2 95.8 117.1 C94.7 120.3 92 124.4 87.7 129.6 L86 126.4 C84.7 129.3 83.7 131.7 83 133.7 C82.4 135.7 81.2 137.5 79.6 138.9 C79.6 138.3 78.7 137.4 76.9 136.1 C76.5 137.9 72.8 141.2 65.9 146.1 L65.9 141.7 C63.3 144.7 61.6 146.1 60.6 146.1 C59.6 146.1 58 144.6 55.7 141.7 L55.7 146.1 C52.9 143.9 50.8 142.2 49.3 140.8 C47.8 139.5 46.3 137.4 44.7 134.8 L42.6 138.9 C43.2 138.9 42.4 137.5 40 134.8 C37.6 131.9 35.9 129.7 34.7 127.9 L34 132.4 C32 129.6 30.3 127.4 29.1 125.7 C27.9 124 26.7 120.9 25.6 116.1 L24 119.9 C22.4 116 21.3 112.9 21.1 110.4 C20.5 106.9 19 104.3 20.3 98.7 C20.3 98.2 20.4 97.9 20.4 97.7 z M28.6 86.7 C26.3 88.9 23.9 92.3 22.7 96.6 C21.3 101.9 21.5 105.8 22.1 109 C22.3 111.3 22.8 111.1 24.3 114.8 L25.5 113.8 C26.5 118.3 29.8 122.4 30.9 123.9 C32 125.5 31.5 125.1 33.4 127.7 L35.5 124.8 C36.6 126.5 38.9 129.7 41.1 132.4 C43.4 135 43.7 134.7 43.2 134.7 L45.3 131.8 C46.8 134.3 48.4 136.9 49.8 138.1 C51.2 139.4 52 140.5 54.6 142.5 L54.8 138.6 C57 141.4 59.5 143.1 60.4 143.1 C61.3 143.1 64.5 141.9 66.9 139.1 L66.9 142.6 C73.4 138.1 77.1 135.1 77.4 133.4 C79.1 134.6 79.8 135.7 79.8 136.3 C81.3 134.9 80.8 133.2 81.4 131.4 C82.1 129.5 84.1 126 85.3 123.3 L86.7 125.9 C90.7 121 92.4 118.7 93.5 115.7 C94.8 112.1 96.9 103.9 96 96.9 C96 96.8 96 96.6 96 96.5 C95.8 95 95.5 93.5 95.1 92.1 C93.3 87.3 88.2 83.6 79.9 81.2 L57.7 81.2 C55.1 81.2 42.5 80.5 41.3 81.2 C40.6 81.7 34.9 81.1 28.6 86.7 z" fill-opacity="0.09629755" id="i1" fill="#010101" /></g></g><g transform="translate(169.6, 177.7) scale(0.9642414) translate(-169.6, -177.7)" id="j1"><g transform="translate(195.9, 104.8) rotate(-20, 0, 0) scale(1) translate(-195.9, -104.8) translate(92, 3) translate(88.30001, 85.09996)" id="k1"><path d="M4.4 2.9 C7.1 -0.3 14.5 1.5 21.1 6.9 L25.4 10.5 C31.9 15.9 35 22.9 32.4 26.1 L32.4 26.1 C29.7 29.3 22.3 27.5 15.7 22.1 L11.4 18.5 C8.2 15.8 1.5 11.1 0.7 9.8 C-1.2 7.3 3 4.5 4.4 2.9 L4.4 2.9 z" id="l1" fill="#F2E5D3" /></g><g transform="translate(143.3, 104.8) rotate(20, 0, 0) scale(1) translate(-143.3, -104.8) translate(16, 3) translate(96.40001, 84.89996)" id="m1"><path d="M46.6 3.4 C43.9 0.2 36.5 2 29.9 7.4 L25.6 11 C19.1 16.4 16 23.4 18.6 26.6 L18.6 26.6 C21.3 29.8 28.7 28 35.3 22.6 L39.6 19 C42.8 16.3 49.5 11.6 50.3 10.3 C52.1 7.8 47.9 5 46.6 3.4 L46.6 3.4 z" id="n1" fill="#F2E5D3" /></g><g transform="translate(107.1, 84.49997) translate(23, 5)" id="o1"><g id="p1"><g id="q1"><path d="M71.9 15 C69.6 10.8 64.7 4.9 57.9 4.1 C51 3.3 45.8 0.3 39.5 0.3 C33.2 0.3 28 3.3 21.1 4.1 C14.3 4.9 9.4 10.8 7.1 15 C1.7 24.7 -0.9 28.2 0.8 44.6 C2.6 61 1.7 66.5 7.1 72.9 C17.7 85.5 25.5 94.3 39.5 94.4 C53.5 94.3 61.8 86 71.9 72.9 C76.3 67.2 76.4 61 78.2 44.6 C80 28.2 77.3 24.7 71.9 15 z" id="r1" fill="#F2E5D3" /><path d="M71.9 15 C77.3 24.7 80 28.2 78.2 44.6 C76.4 61 76.3 67.2 71.9 72.9 C61.8 86 53.5 94.3 39.5 94.4 C25.5 94.3 17.7 85.5 7.1 72.9 C1.7 66.5 2.6 61 0.8 44.6 C-0.9 28.2 1.7 24.7 7.1 15 C9.4 10.8 14.3 4.9 21.1 4.1 C28 3.3 33.2 0.3 39.5 0.3 C45.8 0.3 51 3.3 57.9 4.1 C64.7 4.9 69.6 10.8 71.9 15 z M71.2 14.7 C68.9 10.6 64.1 4.8 57.5 4.1 C50.7 3.3 45.7 0.4 39.5 0.4 C33.3 0.4 28.3 3.3 21.5 4.1 C14.9 4.8 10.1 10.6 7.8 14.7 C2.5 24.2 0 27.6 1.7 43.7 C3.4 59.7 2.5 65.1 7.8 71.3 C18.2 83.6 25.8 92.2 39.5 92.3 C53.2 92.2 61.3 84.1 71.2 71.3 C75.5 65.8 75.6 59.7 77.3 43.7 C79.1 27.6 76.5 24.2 71.2 14.7 z" opacity="0.15" id="s1" /></g></g></g><g transform="translate(143.3, 104.8) rotate(20, 0, 0) scale(1) translate(-143.3, -104.8) translate(96.40001, 84.89996) translate(16, 3)" id="t1"><path d="M38.7 4.6 C35.6 5.9 33 6.7 31.4 8.3 C29.8 9.9 25.3 17.6 25.1 21.4 C24.9 25.2 27.2 38.1 25.3 47.4 C23.4 56.7 23.8 63.8 20.5 62.6 C17.2 61.5 18.8 58.1 13.8 51.7 C8.8 45.3 0.8 34.8 0.1 31 C-0.6 27.2 7.4 20.2 13.8 15.5 C20.2 10.8 26.9 0.6 32 0.2 C37.1 -0.2 41.6 1.6 42.3 1.8 C43 2 41.7 3.3 38.7 4.6 z" id="u1" fill="#776F64" /><path d="M38.7 4.6 C35.6 5.9 33 6.7 31.4 8.3 C29.8 9.9 25.3 17.6 25.1 21.4 C24.9 25.2 27.2 38.1 25.3 47.4 C23.4 56.7 23.8 63.8 20.5 62.6 C17.2 61.5 18.8 58.1 13.8 51.7 C8.8 45.3 0.8 34.8 0.1 31 C-0.6 27.2 7.4 20.2 13.8 15.5 C20.2 10.8 26.9 0.6 32 0.2 C37.1 -0.2 41.6 1.6 42.3 1.8 C43 2 41.7 3.3 38.7 4.6 z M37.6 4.3 C40.4 3.1 41.6 1.9 41 1.7 C40.4 1.5 37 0.2 32.3 0.6 C27.6 1 20.3 11.3 14.3 15.7 C8.3 20.1 1.2 26 1.8 29.6 C2.4 33.2 9.6 42.5 14.3 48.5 C19 54.5 17.1 56.6 20.2 57.6 C22.2 58.1 21.7 53.2 23.5 44.4 C25.3 35.6 23.8 24.4 24 20.8 C24.2 17.2 29.3 9.2 30.8 7.7 C32.3 6.2 34.7 5.5 37.6 4.3 z" opacity="0.15" id="v1" /></g><g transform="translate(195.9, 104.8) rotate(-20, 0, 0) scale(1) translate(-195.9, -104.8) translate(88.30001, 85.09996) translate(92, 3)" id="w1"><path d="M8.7 4.4 C12.6 6.2 15 6.5 16.6 8.1 C18.2 9.7 22.7 17.6 22.9 21.4 C23.1 25.2 20.8 38.1 22.7 47.4 C24.6 56.7 24.2 63.8 27.5 62.6 C30.8 61.5 29.2 58.1 34.2 51.7 C39.2 45.3 47.1 34.8 47.9 31 C48.7 27.2 42.1 21.4 35.2 15.9 C28.3 10.4 21.1 0.6 15.9 0.2 C12.5 0 9.1 0.5 5.6 1.8 C5.1 2.4 6.1 3.2 8.7 4.4 z" id="x1" fill="#776F64" /><path d="M8.7 4.4 C6.1 3.2 5.1 2.4 5.6 1.8 C9.1 0.5 12.5 0 15.9 0.2 C21.1 0.6 28.3 10.4 35.2 15.9 C42.1 21.4 48.7 27.2 47.9 31 C47.1 34.8 39.2 45.3 34.2 51.7 C29.2 58.1 30.8 61.5 27.5 62.6 C24.2 63.8 24.6 56.7 22.7 47.4 C20.8 38.1 23.1 25.2 22.9 21.4 C22.7 17.6 18.2 9.7 16.6 8.1 C15 6.5 12.6 6.2 8.7 4.4 z M10.3 4.7 C14 6.4 15.7 6.1 17.2 7.6 C18.7 9.1 23.9 17.7 24.1 21.3 C24.3 24.9 22.7 37 24.4 45.8 C26.1 54.6 25 59 28.1 57.9 C31.2 56.9 29.2 54.5 33.9 48.5 C38.6 42.5 45.7 34.1 46.4 30.5 C47.1 26.9 41.3 21.7 34.8 16.5 C28.3 11.3 21.1 1.2 16.2 0.8 C13 0.7 9.6 0.9 6.3 2.1 C5.9 2.7 7.9 3.6 10.3 4.7 z" opacity="0.15" id="y1" /></g><g id="z1"><g transform="translate(110.1, 81.59996) translate(22, 6)" id="a2"><g id="b2"><path d="M49.6 73.8 C41.1 70.5 33.9 70.5 25.4 73.8 C18.3 76.6 24.1 90.9 24 91 C23.3 92.5 23.8 93.2 24 94.2 C24.3 93.9 25.1 94.2 25.8 94.1 C26.4 93.9 27 93.2 27 93.2 C28.2 95 29.2 95.5 30.9 94.2 C31.1 94 33.9 91.7 34.1 92.5 C34.3 93.6 34.5 94.6 34.6 95.7 C35.2 94.8 35.8 93.8 36.4 92.9 C36.7 93.4 37.1 93.9 37.4 94.4 C37.7 93.9 38.1 93.4 38.4 92.9 C39 93.8 39.6 94.8 40.2 95.7 C40.4 94.6 40.6 93.6 40.7 92.5 C40.8 91.7 43.6 94 43.9 94.2 C45.6 95.4 46.6 94.9 47.8 93.2 C47.8 93.2 48.4 93.9 49 94.1 C49.7 94.3 50.5 93.9 50.8 94.2 C51 93.2 51.5 92.5 50.8 91 C50.9 90.9 56.7 76.6 49.6 73.8 z" id="c2" fill="#FFF" /><path d="M50.4 74.2 C50.2 74.1 49.9 74 49.6 73.9 C41.1 70.6 37.6 72.7 37.5 72.7 C37.5 72.7 33.9 70.6 25.4 73.9 C25.1 74 24.9 74.1 24.6 74.2 C18.3 77.3 15.7 87.2 14.1 88 C14.1 88.1 14.1 88.2 14.2 88.3 L15.3 89.4 C16 91.2 19 91.5 20.1 89.9 C20.3 90.6 20.9 92.8 21 93.5 C22.1 93.2 24 91.2 24 91.2 C24.4 90.7 24 88.6 24.4 88.3 C24.8 89.8 26.2 91.6 26.8 91.5 C27.4 91.4 27.5 90.7 28.2 89.2 C29.3 86.6 30.3 85 32.4 83.1 C34 83.6 35.7 83.9 37.4 83.9 C39.1 83.9 40.8 83.6 42.4 83.1 C44.6 85 45.5 86.7 46.6 89.2 C47.3 90.8 47.4 91.4 48 91.5 C48.6 91.6 50.1 89.8 50.4 88.3 C50.8 88.6 50.5 90.8 50.8 91.2 C50.8 91.2 52.7 93.2 53.8 93.5 C54 92.8 54.6 90.6 54.7 89.9 C55.8 91.6 58.8 91.3 59.5 89.4 L60.6 88.3 C60.6 88.2 60.6 88.1 60.7 88 C59.3 87.1 56.7 77.3 50.4 74.2 z" id="d2" fill="#FFF6E9" /><path d="M74.5 76 C72.1 62 63.5 60.2 61.5 59.3 C62.2 57.8 62.2 56 61.1 54.9 C60.6 56.9 58.2 57.5 56.4 57.7 C53.9 58 51.4 57.4 49 56.8 C49.4 56.4 50 56 50.5 55.5 C48.5 54.7 45.2 53.3 43.4 55.2 C44.5 54.1 46.6 53.1 45.9 51.2 C44.5 52.4 41.9 52.1 40.5 53.2 C41.4 51.2 42.3 49.3 43.1 47.3 C42.4 47.5 41.9 47.8 41.4 48.1 C41.7 47.7 42.4 46.8 42 46.3 C41.6 45.9 40.9 46.2 40.6 46.4 C41.3 44.3 41.6 42.8 42.5 40.5 C41.7 41.3 40.8 42 40 42.8 C43.7 35.6 46.1 31.2 56 27.9 C58.1 27.5 60.3 27.5 62.4 27.7 C62.3 27.2 62 26.7 61.7 26.3 C61.8 26.3 61.9 26.2 62 26.2 C61.4 26.2 60.8 25.4 60.2 25.1 C59.6 24.8 58.9 24.6 58.2 24.6 C59.9 24.3 61.7 24.1 63.4 23.8 C62.4 23 61.4 22.2 60.4 21.4 C61.1 21.3 61.8 21.2 62.5 21.1 C61.6 20.5 61.4 20.9 60.6 20.2 C61.5 20.1 62.1 18.7 63 18.6 C62.7 17.9 61.1 17.3 60.8 16.6 C62.5 16.5 62.2 14.2 62.5 12.9 C61.6 12 60.3 11.3 59 11 C59.7 9.9 60.7 9 61.9 8.6 C59.8 7.9 57.7 7.1 55.5 6.5 C55.6 6.1 55.8 5.8 56.1 5.5 C54.8 5.5 53.5 5.8 52.2 5.9 C52.9 5 53.4 4.3 53.4 4.3 C53 4.3 52.6 4.3 52.1 4.2 C52 4.2 51 4 51 4 C50 4.4 49 4.8 48.1 5.4 C49 3.9 49.9 2.3 50.7 0.8 C46.5 2.8 42.9 5.9 40.1 9.5 C39.2 6.5 37.6 4.6 36.9 0.9 C35.1 3.3 34.2 6.3 34.4 9.3 C31.6 5.7 28.1 2.8 24 0.8 C24.9 2.3 25.8 3.9 26.6 5.4 C25.7 4.8 24.7 4.4 23.7 4 C23.7 4 22.7 4.2 22.6 4.2 C22.2 4.2 21.8 4.3 21.3 4.3 C21.3 4.3 21.8 4.9 22.5 5.9 C21.2 5.8 19.9 5.5 18.6 5.5 C18.9 5.8 19.1 6.1 19.2 6.5 C17 7.1 14.9 8 12.8 8.6 C14.1 9 15.1 9.9 15.7 11 C14.4 11.3 13.2 11.9 12.2 12.9 C12.4 14.2 12.2 16.5 13.9 16.6 C13.6 17.3 12 17.9 11.7 18.6 C12.6 18.7 13.2 20.1 14.1 20.2 C13.2 20.8 13 20.4 12.2 21.1 C12.9 21.2 13.6 21.3 14.3 21.4 C13.3 22.2 12.3 23 11.3 23.8 C13 24.1 14.8 24.3 16.5 24.6 C15.8 24.6 15.1 24.8 14.5 25.1 C13.9 25.4 13.4 26.2 12.7 26.2 C12.8 26.2 12.9 26.3 13 26.3 C12.7 26.7 12.4 27.2 12.3 27.7 C14.4 27.5 16.6 27.5 18.7 27.9 C28.6 31.2 31 35.6 34.7 42.8 C33.9 42 33 41.3 32.2 40.5 C33.1 42.8 33.4 44.3 34.1 46.4 C33.7 46.2 33 45.9 32.7 46.3 C32.3 46.9 33 47.7 33.3 48.1 C32.8 47.8 32.3 47.6 31.6 47.3 C32.5 49.3 33.4 51.2 34.2 53.2 C32.8 52 30.2 52.3 28.8 51.2 C28.1 53.1 30.2 54.1 31.3 55.2 C29.5 53.3 26.2 54.7 24.2 55.5 C24.8 56.1 25.3 56.4 25.7 56.8 C23.3 57.4 20.8 58 18.3 57.7 C16.5 57.5 14.1 56.9 13.6 54.9 C12.4 56 12.5 57.9 13.2 59.3 C11.2 60.1 1.9 62.9 0.2 76 C0.3 75 1.8 74.8 2.6 74.2 C2 76.3 1.5 78.7 1.1 81.4 C2.1 81 3.1 80.7 4.1 80.4 C4.4 83.1 5.3 85.7 6.6 87.8 C6.8 87.2 7 86.7 7.1 86.2 C7.1 87.4 8.3 90.3 10 89.3 C10.2 90 10.7 91.3 11.4 91.7 C12.1 92 13.3 91.7 14 91.8 C14.3 90.7 15 89.6 15.9 88.7 C16 89.9 16 91.1 16.1 92.4 C18.1 92 19.9 90.5 20.7 88.6 C21.2 89.4 21.7 90.1 22.2 90.9 C22.8 88.6 23.4 86.2 23.9 83.9 C24.5 85.9 25.1 87.8 25.7 89.8 C25.9 87.9 25.8 85.9 26.3 84.1 C26.9 82.1 28.3 81.2 30.1 80.5 C33.4 79.1 36.7 76.1 37.1 72.3 C37.5 76.1 40.8 79.1 44.1 80.5 C45.9 81.2 47.2 82.1 47.8 84 C48.4 85.9 48.3 87.9 48.5 89.8 C49.1 87.8 49.7 85.9 50.3 83.9 C50.9 86.2 51.5 88.6 52 90.9 C52.5 90.1 53 89.4 53.5 88.6 C54.3 90.5 56.1 91.9 58.1 92.4 C58.2 91.2 58.2 90 58.3 88.7 C59.2 89.6 59.9 90.6 60.2 91.8 C60.9 91.7 62.1 92 62.8 91.7 C63.5 91.4 64 90 64.2 89.3 C65.9 90.3 67.1 87.5 67.1 86.2 C67.2 86.7 67.4 87.2 67.6 87.8 C68.9 85.7 69.8 83.2 70.1 80.4 C71.1 80.7 72.2 81 73.1 81.4 C72.7 78.7 72.2 76.3 71.6 74.2 C72.8 74.8 73.6 75.4 74.5 76 z" id="e2" fill="#FFF" /><path d="M43.1 26.7 C42.5 27 41.8 27.1 41.3 27.7 C42.4 26.4 44.6 24.2 44.5 23.9 C44.4 23.6 40.4 24.9 40.2 24.3 C40 23.5 43.2 20.5 43.7 19.8 C42.8 20 41.9 20.3 41 20.4 C41.3 18.9 43.7 18.3 44.8 17.3 C45.7 16.4 46.6 14.5 47.5 13.6 C45.5 14.1 43.4 14.5 41.4 15 C41.8 14.6 42.1 14.3 42.5 13.9 C42 13.8 41.6 13.8 41.1 13.7 C41.6 12.7 42.1 11.6 42.6 10.6 C42.6 10.7 40.7 11.1 40.5 11.2 C40.2 11.4 39.9 11.6 39.7 11.8 C39.5 11.4 39.3 11.1 39.1 10.7 C38.3 9.2 37.4 7.7 36.6 6.3 C36 8 35.4 9.7 34.8 11.4 L34.7 11.3 C34.5 11.2 32.6 10.8 32.6 10.7 C33.1 11.7 33.6 12.8 34.1 13.8 C33.6 13.9 33.2 13.9 32.7 14 C33.1 14.4 33.4 14.7 33.8 15.1 C31.8 14.6 29.7 14.2 27.7 13.7 C28.6 14.6 29.5 16.5 30.4 17.4 C31.5 18.5 33.9 19.1 34.2 20.5 C33.3 20.4 32.4 20.1 31.5 19.9 C32 20.5 35.3 23.6 35 24.4 C34.8 25.1 30.9 23.7 30.7 24 C30.5 24.3 32.8 26.6 33.9 27.8 C33.4 27.2 32.7 27 32.1 26.8 C31.2 26.4 29.6 27.9 30.6 29.2 C31.6 30.4 33.5 30.4 34.5 31.6 C33.6 31.9 32.8 32.6 33.9 33.4 C34.9 34.2 35.2 34.3 36 34.8 C36.2 35 36.2 35.3 36 35.5 C35.9 35.5 35.9 35.6 35.9 35.7 L37.8 39.3 L39.7 35.7 C39.7 35.6 39.7 35.6 39.6 35.5 C39.4 35.3 39.4 35 39.6 34.8 C40.4 34.2 40.6 34.2 41.7 33.4 C42.8 32.5 42 31.9 41.1 31.6 C42.1 30.5 44 30.5 45 29.2 C45.6 27.8 44 26.3 43.1 26.7 z" id="f2" fill="#FFF6E9" /><path d="M14 91.8 C13.3 91.7 12.1 92 11.4 91.7 C10.7 91.3 10.2 90 10 89.3 C8.3 90.3 7.1 87.4 7.1 86.2 C7 86.7 6.8 87.2 6.6 87.8 C5.3 85.7 4.4 83.1 4.1 80.4 C3.1 80.7 2.1 81 1.1 81.4 C1.5 78.7 2 76.3 2.6 74.2 C1.8 74.8 0.3 75 0.2 76 C1.9 62.9 11.2 60.1 13.2 59.3 C12.5 57.9 12.4 56 13.6 54.9 C14.1 56.9 16.5 57.5 18.3 57.7 C20.8 58 23.3 57.4 25.7 56.8 C25.3 56.4 24.8 56.1 24.2 55.5 C26.2 54.7 29.5 53.3 31.3 55.2 C30.2 54.1 28.1 53.1 28.8 51.2 C30.2 52.3 32.8 52 34.2 53.2 C33.4 51.2 32.5 49.3 31.6 47.3 C32.3 47.6 32.8 47.8 33.3 48.1 C33 47.7 32.3 46.9 32.7 46.3 C33 45.9 33.7 46.2 34.1 46.4 C33.4 44.3 33.1 42.8 32.2 40.5 C33 41.3 33.9 42 34.7 42.8 C31 35.6 28.6 31.2 18.7 27.9 C16.6 27.5 14.4 27.5 12.3 27.7 C12.4 27.2 12.7 26.7 13 26.3 C12.9 26.3 12.8 26.2 12.7 26.2 C13.4 26.2 13.9 25.4 14.5 25.1 C15.1 24.8 15.8 24.6 16.5 24.6 C14.8 24.3 13 24.1 11.3 23.8 L14.3 21.4 L12.2 21.1 C13 20.4 13.2 20.8 14.1 20.2 C13.2 20.1 12.6 18.7 11.7 18.6 C12 17.9 13.6 17.3 13.9 16.6 C12.2 16.5 12.4 14.2 12.2 12.9 C13.2 11.9 14.4 11.3 15.7 11 C15.1 9.9 14.1 9 12.8 8.6 C14.9 8 17 7.1 19.2 6.5 C19.1 6.1 18.9 5.8 18.6 5.5 C19.9 5.5 21.2 5.8 22.5 5.9 C21.8 4.9 21.3 4.3 21.3 4.3 C21.8 4.3 22.2 4.2 22.6 4.2 C22.7 4.2 23.7 4 23.7 4 C24.7 4.4 25.7 4.8 26.6 5.4 C25.8 3.9 24.9 2.3 24 0.8 C28.1 2.8 31.6 5.7 34.4 9.3 C34.2 6.3 35.1 3.3 36.9 0.9 C37.6 4.6 39.2 6.5 40.1 9.5 C42.9 5.9 46.5 2.8 50.7 0.8 C49.9 2.3 49 3.9 48.1 5.4 C49 4.8 50 4.4 51 4 C51 4 52 4.2 52.1 4.2 C52.6 4.3 53 4.3 53.4 4.3 C53.4 4.3 52.9 5 52.2 5.9 C53.5 5.8 54.8 5.5 56.1 5.5 C55.8 5.8 55.6 6.1 55.5 6.5 C57.7 7.1 59.8 7.9 61.9 8.6 C60.7 9 59.7 9.9 59 11 C60.3 11.3 61.6 12 62.5 12.9 C62.2 14.2 62.5 16.5 60.8 16.6 C61.1 17.3 62.7 17.9 63 18.6 C62.1 18.7 61.5 20.1 60.6 20.2 C61.4 20.9 61.6 20.5 62.5 21.1 L60.4 21.4 L63.4 23.8 C61.7 24.1 59.9 24.3 58.2 24.6 C58.9 24.6 59.6 24.8 60.2 25.1 C60.8 25.4 61.4 26.2 62 26.2 C61.9 26.2 61.8 26.3 61.7 26.3 C62 26.7 62.3 27.2 62.4 27.7 C60.3 27.5 58.1 27.5 56 27.9 C46.1 31.2 43.7 35.6 40 42.8 C40.8 42 41.7 41.3 42.5 40.5 C41.6 42.8 41.3 44.3 40.6 46.4 C40.9 46.2 41.6 45.9 42 46.3 C42.4 46.8 41.7 47.7 41.4 48.1 C41.9 47.8 42.4 47.5 43.1 47.3 C42.3 49.3 41.4 51.2 40.5 53.2 C41.9 52.1 44.5 52.4 45.9 51.2 C46.6 53.1 44.5 54.1 43.4 55.2 C45.2 53.3 48.5 54.7 50.5 55.5 C50 56 49.4 56.4 49 56.8 C51.4 57.4 53.9 58 56.4 57.7 C58.2 57.5 60.6 56.9 61.1 54.9 C62.2 56 62.2 57.8 61.5 59.3 C63.5 60.2 72.1 62 74.5 76 C73.6 75.4 72.8 74.8 71.6 74.2 C72.2 76.3 72.7 78.7 73.1 81.4 C72.2 81 71.1 80.7 70.1 80.4 C69.8 83.2 68.9 85.7 67.6 87.8 C67.4 87.2 67.2 86.7 67.1 86.2 C67.1 87.5 65.9 90.3 64.2 89.3 C64 90 63.5 91.4 62.8 91.7 C62.1 92 60.9 91.7 60.2 91.8 C60 91.1 59.7 90.4 59.3 89.8 C59 90.2 58.7 90.5 58.2 90.7 C58.2 91.3 58.2 91.8 58.1 92.4 C56.8 92.1 55.5 91.3 54.6 90.3 C54.4 91.2 54 92.9 53.8 93.5 C52.9 93.3 51.4 91.8 50.9 91.4 C51.4 92.7 50.9 93.3 50.8 94.2 C50.5 93.9 49.7 94.3 49 94.1 C48.4 93.9 47.8 93.2 47.8 93.2 C46.6 94.9 45.6 95.4 43.9 94.2 C43.6 94 40.8 91.7 40.7 92.5 C40.6 93.6 40.4 94.6 40.2 95.7 C39.6 94.8 39 93.8 38.4 92.9 C38.1 93.4 37.7 93.9 37.4 94.4 C37.1 93.9 36.7 93.4 36.4 92.9 C35.8 93.8 35.2 94.8 34.6 95.7 C34.5 94.6 34.3 93.6 34.1 92.5 C33.9 91.7 31.1 94 30.9 94.2 C29.2 95.5 28.2 95 27 93.2 C27 93.2 26.4 93.9 25.8 94.1 C25.1 94.2 24.3 93.9 24 94.2 C23.8 93.3 23.4 92.6 23.9 91.4 C23.4 91.9 22 93.3 21 93.5 C20.9 92.8 20.3 90.6 20.1 89.9 C19.9 90.2 19.7 90.4 19.4 90.5 C18.5 91.4 17.3 92.1 16.1 92.4 C16 91.7 16 91 16 90.3 C15.7 90.1 15.5 89.8 15.3 89.4 C14.7 90.1 14.2 91 14 91.8 z M14.8 88.3 C15 87.5 15.5 86.7 16.1 86 C16.2 86.4 16.5 86.6 16.8 86.9 C16.8 87.5 16.9 88.2 16.9 88.9 C18.1 88.7 19.2 88 20.1 87.1 C20.4 86.9 20.6 86.7 20.8 86.5 C21 87.2 21.6 89.2 21.7 89.9 C22.6 89.7 24.1 88.7 24.6 88.3 C24.1 89.5 24.4 89.7 24.6 90.6 C24.9 90.3 25.7 90.6 26.3 90.5 C26.9 90.3 28.1 89.7 28.1 89.7 C29.3 91.4 29.6 91.9 31.2 90.6 C31.4 90.4 33.2 88.2 33.4 89 C33.6 90 34.9 90.7 35 91.8 C35.6 91 35.3 90.5 35.9 89.7 C36.2 90.2 37.2 90.4 37.5 90.8 C37.8 90.3 38.4 89.7 38.7 89.3 C39.3 90.1 39 91 39.6 91.8 C39.8 90.8 41.6 90.1 41.7 89 C41.8 88.2 43.5 90.4 43.8 90.6 C45.4 91.7 45.8 91.5 47 89.9 C47 89.9 48.2 90.3 48.7 90.5 C49.4 90.7 50.1 90.3 50.4 90.6 C50.6 89.7 51 89.1 50.5 87.9 C51 88.3 52.4 89.7 53.3 89.9 C53.5 89.3 53.9 87.8 54.1 86.9 C55 87.9 56.2 88.5 57.5 88.9 C57.5 88.4 57.6 87.9 57.6 87.3 C58 87.1 58.4 86.8 58.6 86.4 C59 87 59.3 87.6 59.5 88.2 C60.2 88.1 61.3 88.4 62 88.1 C62.7 87.8 63.2 86.5 63.4 85.8 C65 86.7 66.2 84.1 66.2 82.9 C66.3 83.4 66.5 83.8 66.7 84.4 C68 82.4 68.8 80.1 69.1 77.4 C70.1 77.7 71.1 78 72 78.3 C71.6 75.8 70.6 73.8 70 71.9 C71.2 72.5 71.8 72.7 72.6 73.2 C69 61.3 62.8 60.6 60.9 59.8 C61.6 58.4 62 56.8 60.9 55.8 C60.4 57.7 57.1 58.5 55.4 58.7 C53 59 50.3 58.2 48 57.6 C48.4 57.2 48.4 56.2 48.9 55.7 C47 54.9 44.8 55.3 42.9 55.3 C43.7 54 44.8 53.7 45.2 51.9 C43.8 53 41.1 53.2 39.8 54.2 C40.7 52.3 41.1 50.5 41.9 48.6 C41.2 48.8 41 48.3 40.5 48.6 C40.8 48.2 42 47.5 41.6 47 C41.2 46.6 40.3 46.8 40 47 C40.7 45 40.7 44.3 41.6 42.1 C40.8 42.9 40.1 42.8 39.3 43.6 C42.1 37.7 44.5 30.6 54.1 27.5 C56.1 27.1 58.5 26.7 60.5 26.9 C60.4 26.4 61.2 26.9 60.9 26.5 C60.3 26.5 60 25.7 59.5 25.4 C58.9 25.1 57.1 24.7 56.4 24.7 C57.6 24.1 60 23.5 61.7 23.2 L59.2 21.6 L60.9 21 C60 20.4 60.4 20.7 59.6 20.1 C60.5 20 60.9 18.8 61.8 18.7 C61.5 18 60.1 16.9 59.8 16.3 C61.4 16.2 61.4 14.6 61.7 13.4 C60.8 12.6 58.8 11.9 57.6 11.6 C58.3 10.6 58.6 9.4 59.7 9 C57.7 8.3 56.2 8.5 54.1 7.9 C54.2 7.5 54.7 7.1 55 6.8 C53.7 6.8 52.4 7.2 51.1 7.3 C51.4 6.9 52.2 5.5 51.8 5.1 C51.3 4.6 50.2 5.1 50.2 5.1 C49.2 5.5 47.8 6.2 46.9 6.8 C47.8 5.4 48.1 3.9 48.9 2.5 C44.8 4.4 42.7 7.3 40 10.7 C39.1 7.9 37.6 6.1 36.9 2.6 C35.2 4.9 34.7 8.3 34.9 11.1 C32.2 7.7 29.4 4.2 25.5 2.3 C26.4 3.7 26.7 5.2 27.5 6.6 C26.6 6 25.4 5.7 24.5 5.3 C24.5 5.3 23.8 5 23.7 5 C23.3 5 22.9 4.7 22.4 4.7 C22.4 4.7 23 5.8 23.7 6.8 C22.4 6.7 21.1 6.3 19.8 6.3 C20.1 6.6 20 7.3 20.1 7.7 C18 8.3 16.4 7.9 14.4 8.5 C15.7 8.9 16.1 10.5 16.7 11.5 C15.4 11.8 14 12.9 13 13.9 C13.2 15.1 13.4 16.4 15 16.5 C14.7 17.2 13 17.9 12.7 18.6 C13.6 18.7 14.3 20 15.2 20.1 C14.3 20.7 14.3 20.4 13.6 21 L15.5 21.3 L12.8 23.2 C14.4 23.5 16.1 24.3 17.7 24.6 C17 24.6 15.7 25.1 15.2 25.4 C14.6 25.7 14.1 26.4 13.8 26.5 C13.5 26.9 13.4 26.7 13.3 27.2 C15.3 27 18.6 27.4 20.7 27.8 C30.3 30.9 32.3 37.3 35.8 44.1 C35 43.3 34.1 42.9 33.3 42.1 C34.2 44.3 33.9 45 34.6 47 C34.2 46.8 33.6 46.6 33.3 47 C32.9 47.6 34.3 49.1 34.6 49.4 C34.1 49.1 33.5 48.8 32.8 48.5 C33.7 50.4 34.1 52.2 34.9 54.1 C33.5 53 31.3 52.8 29.9 51.8 C29.9 53.7 31.3 54.2 32.3 55.2 C30.7 55.2 28.1 55.2 26.1 55.6 C26.7 56.2 26.5 56.3 26.9 56.7 C24.6 57.3 22.4 58.6 19.9 58.3 C18.2 58.1 14.5 57.9 14 56 C12.8 57 13 58.3 13.7 59.6 C11.8 60.4 3.7 62.1 1.3 73.3 C1.4 72.4 2.8 72.2 3.6 71.6 C3 73.6 2.5 75.8 2.2 78.4 C3.2 78 4.1 77.7 5.1 77.5 C5.4 80 6.3 82.5 7.5 84.5 C7.8 84 8 83.5 8.1 83 C8.1 84.1 9.3 86.9 10.9 85.9 C11.1 86.6 11.6 87.8 12.3 88.2 C13 88.5 14.1 88.2 14.8 88.3 z" opacity="0.15" id="g2" /></g></g><g fill-rule="evenOdd" transform="translate(169.4, 167.1999) scale(0.76) translate(-169.4, -167.1999) translate(86.3, 89.09995) translate(65, 60)" id="h2"><g transform="translate(0.410034, 0.940678)" id="i2"><path d="M0.3 16.6 C1.8 18.6 3.2 19.7 4.4 20 C5.6 20.3 6.9 20.3 8.3 20 C10.7 23.4 12.9 25.3 14.9 25.6 C17.8 26.1 18.5 26.1 22.2 25.5 C23 25.4 23.6 25.3 25.3 23.6 C25.8 23.1 26.3 22.2 27 20.7 C28.6 20.8 29.9 20.7 30.8 20.3 C32.2 19.7 33.5 19.3 34.9 17.4 C35.8 16.1 34.6 17 32.6 17.1 C31.4 17.2 29.8 16.5 28.7 16.3 C26.8 16 23.7 13.7 19.3 9.6 C19 7.7 18.8 6.5 18.8 5.9 C18.8 4.1 19.4 3.3 19.3 2.7 C19.1 1.5 18 0.9 17.7 0.9 C17.4 0.9 16.4 1.3 16.2 2.3 C16.1 2.9 16.5 4.1 16.4 6 C16.4 6.7 16.1 7.9 15.6 9.6 C14 11.6 12.4 13.1 11 14.2 C10.4 14.6 8.8 15.8 7.4 16.4 C6.8 16.7 5.1 17.2 3.9 17.2 C3.4 17.2 2.1 17 0.3 16.6 z" id="j2" /><path d="M10 17.7 C9.9 21.3 12.1 23.9 15.3 24.7 C17.6 25.3 19.2 25.3 21.2 24.7 C24 24.7 25.6 20.9 25.7 17.7 C25.1 17.3 24.1 16.5 23.2 15.7 C22.9 15.5 21.4 14.1 20.7 13.5 C19.7 13.8 18.2 14 17.6 14 C15.9 14 16.3 13.9 14.8 13.6 C14.3 14.1 13.1 15.6 12.6 16 C11.6 16.8 10.8 17.2 10 17.7 z" id="k2" fill="#FFB8B3" /></g></g><g transform="translate(169.6, 152.0999) scale(0.8) translate(-169.6, -152.0999) translate(90.90001, 84.09996) translate(68, 59)" id="l2"><g id="m2"><path d="M11.1 0.8 C15.4 0.8 16.5 1.2 19.7 3.5 C22.9 5.8 21.6 9.8 20.2 12.2 C19.7 13 18.6 13.6 17.6 14.9 C16.8 15.9 16.1 17.7 15.2 18.3 C13.9 19.2 12.7 19.6 10.9 19.5 C9.1 19.5 7.6 19 6.4 18.3 C4.4 17.1 3.9 15.5 3.1 14 C2.6 13.1 1.1 11.7 0.7 10.5 C0 8.5 -0.3 6.3 0.9 4.4 C2.9 1.4 6.7 0.8 11.1 0.8 z" id="n2" fill="#282421" /><path d="M3.2 4.8 C3.2 5.2 5.1 4.3 7.3 3.9 C8.3 3.7 9.4 3.6 10.9 3.6 C12.4 3.6 14.7 4.6 14.3 5.2 C13.7 6.1 14.1 7.5 15.7 7.9 C16.4 8 17 8 17.9 7.7 C18.8 7.3 19 6.7 19.1 6.1 C19.2 5.5 19.2 4.7 17.9 4 C17.6 3.8 16.2 2.8 14.4 2.6 C12.2 2.4 10.4 2.4 8.8 2.6 C7.2 2.8 6 3 5.1 3.4 C3.8 4 3.2 4.6 3.2 4.8 z" id="o2" fill="#FFF" /></g></g><g transform="translate(95.10001, 75.09996) translate(53, 56)" id="p2"><g id="q2"><path d="M11 8.3 C11 7.7 11 4.9 9.8 3 C8.6 1.1 7.4 0.6 5.8 0.2 C4.2 -0.2 2.3 0 1.3 0.9 C0.3 1.8 0 4 0 5.5 C0 7 0.8 8.8 2.8 9.4 C4.1 9.8 6 9.8 8.6 9.4 C10.2 9.1 11 8.8 11 8.3 z" id="r2" /><path d="M5 4.4 C5.6 4.4 6.4 3.6 6.4 3 C6.4 2.4 5.6 2 5 2 C4.4 2 4 2.4 4 3 C4 3.6 4.4 4.4 5 4.4 z" id="s2" fill="#FFFFFE" /></g></g><g transform="translate(97.90001, 75.09996) translate(82, 56)" id="t2"><g id="u2"><path d="M0 8.3 C0 7.7 0 4.9 1.2 3 C2.4 1.1 3.6 0.6 5.2 0.2 C6.8 -0.2 8.7 0 9.7 0.9 C10.7 1.8 11 4 11 5.5 C11 7 10.2 8.8 8.2 9.3 C6.9 9.7 5 9.7 2.4 9.3 C0.8 9.1 0 8.8 0 8.3 z" id="v2" /><path d="M6 4.4 C6.6 4.4 7.4 3.6 7.4 3 C7.4 2.4 6.6 2 6 2 C5.4 2 5 2.4 5 3 C5 3.6 5.4 4.4 6 4.4 z" id="w2" fill="#FFFFFE" /></g></g></g></g></g></g><defs><g transform="translate(17.09519, 0.800995) translate(-135.2952, -293.601)" id="x2" fill="#000"><path d="M118.2 302.7 C118.4 307.4 132.5 311.2 149.8 311.2 C167.1 311.2 181.2 307.4 181.4 302.7 C181.4 307.5 181.4 310.1 181.4 310.5 C181.4 315.3 167.3 319.1 149.8 319.1 C132.3 319.1 118.2 315.2 118.2 310.5 L118.2 302.7 L118.2 302.7 z" fill-opacity="0.4528" id="y2" fill="#593001" /><path d="M118.7 301.7 C118.9 306.4 133 310.2 150.3 310.2 C167.6 310.2 181.7 306.4 181.9 301.7 C181.9 306.5 181.9 309.1 181.9 309.5 C181.9 314.3 167.8 318.1 150.3 318.1 C132.8 318.1 118.7 314.2 118.7 309.5 L118.7 301.7 L118.7 301.7 z" id="z2" fill="#DA8113" /><linearGradient x1="46.0545" y1="-118.6926" x2="45.4656" y2="-118.6926" gradientUnits="userSpaceOnUse" gradientTransform="matrix(117.135, 0, 0, 28.4634, -5208.417, 3687.795)" id="a3"><stop offset="0%" stop-color="#D9952A" stop-opacity="1" /><stop offset="6.438854%" stop-color="#CA7519" stop-opacity="1" /><stop offset="30.54%" stop-color="#E3AD3A" stop-opacity="1" /><stop offset="51.05%" stop-color="#FFEC91" stop-opacity="1" /><stop offset="68.8%" stop-color="#E9BD44" stop-opacity="1" /><stop offset="86.24%" stop-color="#FFED6C" stop-opacity="1" /><stop offset="93.87%" stop-color="#F2D353" stop-opacity="1" /><stop offset="100%" stop-color="#F2B947" stop-opacity="1" /></linearGradient><path d="M118.2 301.6 C118.4 306.1 132.7 309.7 150.3 309.7 C167.9 309.7 182.2 306.1 182.4 301.6 C182.4 306.2 182.4 308.7 182.4 309 C182.4 313.5 168 317.2 150.3 317.2 C132.6 317.2 118.2 313.5 118.2 309 L118.2 301.6 L118.2 301.6 z" id="b3" style="fill:url(#a3)" /><linearGradient x1="45.4914" y1="-117.9547" x2="45.9407" y2="-117.5895" gradientUnits="userSpaceOnUse" gradientTransform="matrix(115.425, 0, 0, 29.925, -5125.077, 3826.124)" id="c3"><stop offset="0%" stop-color="#F4E072" stop-opacity="1" /><stop offset="100%" stop-color="#DB9427" stop-opacity="1" /></linearGradient><ellipse cx="150.3" cy="301.5" rx="31.6" ry="8.2" id="d3" style="fill:url(#c3)" /><linearGradient x1="45.4656" y1="-126.0065" x2="46.0545" y2="-126.0065" gradientUnits="userSpaceOnUse" gradientTransform="matrix(117.135, 0, 0, 18.6219, -5208.417, 2651.479)" id="e3"><stop offset="0%" stop-color="#D9952A" stop-opacity="1" /><stop offset="6.438854%" stop-color="#CA7519" stop-opacity="1" /><stop offset="30.54%" stop-color="#E3AD3A" stop-opacity="1" /><stop offset="51.05%" stop-color="#FFEC91" stop-opacity="1" /><stop offset="68.8%" stop-color="#E9BD44" stop-opacity="1" /><stop offset="86.24%" stop-color="#FFED6C" stop-opacity="1" /><stop offset="93.87%" stop-color="#F2D353" stop-opacity="1" /><stop offset="100%" stop-color="#F2B947" stop-opacity="1" /></linearGradient><path d="M119.2 299.9 C119 300.2 118.9 300.6 118.9 301 C118.9 305.5 132.9 309.2 150.3 309.2 C167.7 309.2 181.7 305.5 181.7 301 C181.7 300.6 181.6 300.3 181.4 299.9 C182 300.5 182.4 301.2 182.4 301.9 C182.4 306.4 168 310.1 150.3 310.1 C132.6 310.1 118.2 306.4 118.2 301.9 C118.2 301.3 118.6 300.6 119.2 299.9 z" id="f3" style="fill:url(#e3)" /><linearGradient x1="45.196" y1="-121.5895" x2="45.3746" y2="-120.6758" gradientUnits="userSpaceOnUse" gradientTransform="matrix(101.745, 0, 0, 23.94, -4458.332, 3199.41)" id="g3"><stop offset="0%" stop-color="#F8DD61" stop-opacity="1" /><stop offset="100%" stop-color="#EAA330" stop-opacity="1" /></linearGradient><ellipse cx="150.3" cy="300.8" rx="27.8" ry="6.6" id="h3" style="fill:url(#g3)" /><linearGradient x1="45.5694" y1="-134.267" x2="45.0221" y2="-134.267" gradientUnits="userSpaceOnUse" gradientTransform="matrix(101.745, 0, 0, 13.2525, -4458.332, 2077.223)" id="i3"><stop offset="0%" stop-color="#F4CA2F" stop-opacity="1" /><stop offset="51.38%" stop-color="#BF7737" stop-opacity="1" /><stop offset="100%" stop-color="#E4A929" stop-opacity="1" /></linearGradient><path d="M122.6 301.5 C122.5 301.3 122.4 301 122.4 300.8 C122.4 297.2 134.9 294.2 150.2 294.2 C165.5 294.2 178 297.1 178 300.8 C178 301 177.9 301.3 177.8 301.5 C176.3 298.2 164.5 295.6 150.1 295.6 C135.7 295.6 124.1 298.2 122.6 301.5 z" id="j3" style="fill:url(#i3)" /></g></defs><desc>789OG5K85IL,s6kbX7Q6eTizE+JTxfTsfYKT/5fhM6dwijooQDciMhCzMl1wKDMVOEltQZZ+wZw0XY1ljStw8zhc0ELoSPD/5Q==</desc></svg>