<?xml version="1.0" encoding="utf-8"?><!DOCTYPE svg PUBLIC "-//W3C//DTD SVG 1.1//EN" "http://www.w3.org/Graphics/SVG/1.1/DTD/svg11.dtd"><svg x="0" y="0" width="340px" height="340px" viewBox="0, 0, 340, 340" preserveAspectRatio="xMidYMid" font-size="0" id="a" enable-background="new 0 0 340 340" xmlns="http://www.w3.org/2000/svg" xmlns:xlink="http://www.w3.org/1999/xlink" xmlns:xml="http://www.w3.org/XML/1998/namespace" version="1.1"><g id="b" fill="#000"><g id="c"><g transform="translate(0, 0) translate(0, 224)" id="d"><ellipse cx="168.6" cy="53.1" rx="57.8" ry="12.8" fill-opacity="0.25" id="e" /></g><g id="f"><g transform="translate(110.3, 119.9) translate(21.5, 106.5) scale(-1, 1) translate(-21.5, -106.5) translate(2, 90)" id="g"><g id="h"><path d="M24.9 18.9 C25.5 17.7 25.7 16.6 25.7 15.6 C25.3 16.7 24.6 17.7 23.6 18.4 C24.5 16.6 24.1 14.3 22.7 12.9 C22.5 16.6 20.1 20 19.4 21.4 C18.7 19.5 18 17.6 17.3 15.7 C17.1 17 16.8 18.2 16.6 19.5 C16.3 17.3 16.1 15.1 16.4 12.9 C16.2 13 16 13.2 15.8 13.3 C16.1 9.5 20 5.8 23.5 5.2 C26.7 4.6 31.5 5.6 33.6 8.8 C36.3 13 37.3 22.3 32.1 25.1 C30.4 26 27.3 27.7 26.4 28 C25.5 28.3 23.7 31 23.5 32.5 C22.5 31.6 22.3 30.2 21.1 29.3 C19.3 29.4 16.5 31.7 10 32 C-1.8 32.4 -1.1 25.2 1.9 24.1 C5.4 22.8 12.4 23.9 14.8 24.2 C19.1 24.6 22.9 23.2 24.9 18.9 z" id="i" fill="#FDA75C" /><path d="M15.9 13.9 C16.2 10.1 18.5 3.8 26 3.3 C27 3.2 28.1 3.3 29.2 3.6 C28.2 2.4 26.3 2 25 2.9 C25.9 0.7 28.8 -0.4 31 0.5 C32.6 1.2 35.2 3.1 35 5.8 C36.7 7 38.1 9.2 38.6 11.3 C38.1 11.2 37.7 11 37.2 10.9 C38.6 13.1 39.3 17.4 37.8 20.1 C37.5 19.9 37.3 19.7 37 19.5 C36.8 20.1 35.7 22.4 35.4 22.9 C34.8 25.3 33.5 27.5 31.7 29 C31.9 28.5 32 27.9 31.9 27.3 C31.9 27 31.8 26.6 31.6 26.3 C29.7 26.7 29.4 28.6 28.7 29.5 C28.7 28.9 28.1 28.1 26.5 28.4 C26.9 25.5 30.5 24.9 30.7 23.5 C30.9 24 31.4 24.3 31.9 24.6 C32.2 23.4 32.8 22.4 32.7 20.7 L34.2 21.3 C34.2 19.7 33.3 18.1 31.9 17.2 C32.8 17 33.7 16.8 34.6 16.7 C32.9 15.2 31.2 13.8 29.5 12.3 C30.5 12 31.4 11.8 32.4 11.5 C29.1 9.2 24.1 10 22 11.3 C22 10.2 22.6 8.1 23.3 7.8 C18.6 8.9 16.1 13.7 15.9 13.9 z" id="j" fill="#AA602E" /><path d="M3 23.8 C3.3 23.2 3.8 22.7 4.4 22.4 C6.5 21.6 10.2 22.9 13.2 24 C13.8 24.1 14.4 24.2 14.8 24.2 C19.1 24.6 22.9 23.2 24.9 18.9 C25.5 17.7 25.7 16.6 25.7 15.6 C25.3 16.7 24.6 17.7 23.6 18.4 C24.5 16.6 24.1 14.3 22.7 12.9 C22.5 16.6 20.1 20 19.4 21.4 L17.3 15.7 C17.1 17 16.8 18.2 16.6 19.5 C16.3 17.4 16.1 15.4 16.4 13.3 C16.2 13.7 16 13.9 16 13.9 C16 13.7 16 13.4 16.1 13.1 C16 13.2 16 13.2 15.9 13.2 C16 12.2 16.3 11.2 16.8 10.3 C18 7 20.7 3.6 26.1 3.2 C27.1 3.1 28.2 3.2 29.3 3.5 C28.3 2.3 26.4 1.9 25.1 2.8 C26 0.6 28.9 -0.5 31.1 0.4 C32.7 1.1 35.3 3 35.1 5.7 C36.8 6.9 38.2 9.1 38.7 11.2 C38.2 11.1 37.8 10.9 37.3 10.8 C38.7 13 39.4 17.3 37.9 20 C37.6 19.8 37.4 19.6 37.1 19.4 C36.9 20 35.8 22.3 35.5 22.8 C34.9 25.2 33.6 27.4 31.8 28.9 C32 28.4 32.1 27.8 32 27.2 C32 26.9 31.9 26.5 31.7 26.2 C29.8 26.6 29.5 28.5 28.8 29.4 C28.8 28.8 28.2 28 26.6 28.3 C26.6 28.1 26.7 27.9 26.7 27.8 C26.6 27.8 26.5 27.9 26.5 27.9 C25.6 28.2 23.8 30.9 23.6 32.4 C22.6 31.5 22.4 30.1 21.2 29.2 C19.4 29.3 16.6 31.6 10.1 31.9 C-1.7 32.3 -1 25.1 2 24 C2.2 23.9 2.6 23.8 3 23.8 z M3 23.8 C2 26 3.4 29.9 11.8 29.6 C17.7 29.3 20.3 27.2 21.9 27.1 C23 27.9 22.4 29.5 23.4 30.3 C23.6 28.9 26 26.1 26.8 25.9 C26.9 25.9 26.9 25.9 27 25.8 C27 26 26.9 26.1 26.9 26.3 C28.4 26 28.9 26.8 28.9 27.3 C29.5 26.5 29.8 24.5 31.6 24.1 C31.7 24.2 32.2 24.1 32.4 24.6 C32.7 25.3 32.7 25.8 32.6 26.1 C34.2 24.7 34.6 23.5 35.1 21.3 C35.4 20.8 36.4 18.7 36.6 18.2 C36.9 18.4 37.1 18.6 37.3 18.7 C38.7 16.2 38 12.3 36.8 10.3 C37.3 10.4 37.6 10.6 38.1 10.7 C37.6 8.8 36.4 6.8 34.8 5.7 C35 3.2 32.7 2 31.7 1.2 C29.7 0.4 27.8 0.5 26.4 2 C27.8 1.7 29.5 3 30.4 4.1 C29.4 3.8 27.4 3.6 26.5 3.7 C21.5 4 18.8 7.2 17.8 9.1 C17.3 9.9 16.5 12.6 16.5 12.8 C16.5 12.8 17.1 13 17.3 12.7 C16.9 13.9 16.8 15.1 16.9 16.4 C17.1 15.2 17.3 15.1 17.8 14.4 L19.5 19.8 C20.1 18.5 22.4 15.4 22.6 12 C23.9 13.3 25.2 15.6 24.4 17.2 C25.3 16.6 25.7 15.2 26.1 14.2 C26.3 15.2 26.5 18 25.9 19.1 C24.1 23 21.2 25.5 17.3 25.2 C16.5 25.1 15.1 24.6 13.4 24 C10.5 23.6 6 23.1 3 23.8 z" opacity="0.15" id="k" /></g></g><g transform="translate(124.0067, 273.3) scale(0.9916667) translate(-120.5, -273.3) translate(96.8, 58.59996) translate(15, 148)" id="l"><g id="m"><path d="M7.5 67.2 C7.3 61.1 10.4 57.2 16.8 55.3 C9.2 42.9 0.5 25.2 0.1 19.1 C-0.5 9 3.8 3.3 7.7 0.8 C10.3 -0.9 22 -1.6 27.5 0.1 C33.1 1.6 35.6 7.3 37.4 8.7 C42.7 12.6 47.5 20.2 49.1 25.6 C52.1 35.9 50.3 51.1 49.5 64.3 C44.4 65.8 27.6 69.8 23.9 70.1 C20.7 70.4 16.2 70.4 10.6 70.2 C8.8 70.1 7.5 68.8 7.5 67.2 z" id="n" fill="#AA602E" /><path d="M10.4 44.1 C5 33.9 0.4 23.5 0.1 19.1 C-0.5 9 3.8 3.3 7.7 0.8 C8 0.5 8.5 0.3 8.9 0.1 C8.6 1.4 8.2 2.8 7.7 4.4 C4.1 16.1 12.3 23.6 12.7 28.2 C13.3 35.2 12.2 41.2 10.4 44.1 z" id="o" fill="#7F4924" /><path d="M7.5 67.2 C7.3 61.1 10.4 57.2 16.8 55.3 C9.2 42.9 0.5 25.2 0.1 19.1 C-0.5 9 3.8 3.3 7.7 0.8 C10.3 -0.9 22 -1.6 27.5 0.1 C33.1 1.6 35.6 7.3 37.4 8.7 C42.7 12.6 47.5 20.2 49.1 25.6 C52.1 35.9 50.3 51.1 49.5 64.3 C44.4 65.8 27.6 69.8 23.9 70.1 C20.7 70.4 16.2 70.4 10.6 70.2 C8.8 70.1 7.5 68.8 7.5 67.2 z M9.3 65.4 C9.3 66.9 9.8 68 11.4 68 C16.9 68.2 21.2 68.2 24.2 67.9 C27.7 67.6 42.8 64 47.7 62.6 C48.5 50 51.2 35.2 48.4 25.3 C46.9 20 42.3 12.8 37.2 9.1 C35.5 7.8 33.1 2.3 27.7 0.9 C22.3 -0.7 11.2 -0.1 8.7 1.6 C5 4.1 0.8 9.5 1.4 19.2 C1.8 25 11.4 44.2 18.6 56.2 C12.7 57.9 9.1 59.6 9.3 65.4 z" opacity="0.15" id="p" /></g></g><g transform="translate(213.8933, 273.3) scale(0.9916667) translate(-217.4, -273.3) translate(97.10001, 58.59996) translate(105.5, 184.5) scale(-1, 1) translate(-105.5, -184.5) translate(80, 148)" id="q"><g id="r"><path d="M9.7 67.2 C9.5 61.1 12.6 57.2 19 55.3 C11.4 42.9 2.7 25.2 2.3 19.1 C1.7 9 6 3.3 9.9 0.8 C12.4 -0.9 22 -1.6 27.6 0.1 C33.8 1.8 39.5 5.7 43.8 9.6 C46.8 12.2 48.4 18 50 23.4 C53 33.7 50.8 52.1 50 65.2 C44.9 66.7 29.7 69.7 26 70 C22.8 70.3 18.3 70.3 12.7 70.1 C11 70.1 9.7 68.8 9.7 67.2 z" id="s" fill="#AA602E" /><path d="M12.5 44.1 C7.1 33.9 2.5 23.5 2.2 19.1 C1.7 9 6 3.3 9.9 0.8 C10.2 0.5 10.7 0.3 11.1 0.1 C10.8 1.4 10.4 2.8 9.9 4.4 C6.3 16.1 14.5 23.6 14.9 28.2 C15.4 35.2 14.3 41.2 12.5 44.1 z" id="t" fill="#7F4924" /><path d="M9.7 67.2 C9.5 61.1 12.6 57.2 19 55.3 C11.4 42.9 2.7 25.2 2.3 19.1 C1.7 9 6 3.3 9.9 0.8 C12.4 -0.9 22 -1.6 27.6 0.1 C33.8 1.8 39.5 5.7 43.8 9.6 C46.8 12.2 48.4 18 50 23.4 C53 33.7 50.8 52.1 50 65.2 C44.9 66.7 29.7 69.7 26 70 C22.8 70.3 18.3 70.3 12.7 70.1 C11 70.1 9.7 68.8 9.7 67.2 z M12.4 64.8 C12.4 66.3 11.6 67.6 13.2 67.6 C18.7 67.8 23 67.8 26 67.5 C29.5 67.2 42.9 64.4 47.8 63 C48.6 50.3 51.8 32.6 49 22.8 C47.5 17.5 45.9 12 43.1 9.6 C38.9 5.9 33.4 2.2 27.6 0.5 C22.2 -1.1 13.1 -0.4 10.6 1.2 C6.9 3.6 2.7 9.2 3.3 18.7 C3.7 24.5 14.2 43.6 21.4 55.6 C15.3 57.3 12.2 59 12.4 64.8 z" opacity="0.15" id="u" /></g></g><g transform="translate(85.90001, 85.79997) translate(35, 41)" id="v"><path d="M14.8 19.9 C11.3 33.7 12.9 36.6 9.3 47.7 C5.7 58.8 1.3 70.5 3.2 87.6 C4.6 100.8 11.8 132.8 17.6 146.9 C19.3 151.1 22.5 152.3 23.4 152.6 C27.2 154.2 66.3 154.3 72.2 152.6 C73.3 152.3 76.3 151.4 77.8 148.1 C84.6 134.1 92.8 97 94.1 87.6 C96.2 75.3 92.7 55.1 88.5 47.9 C82.5 37.5 82.5 23 81.3 20.8 C79.3 16.1 75.6 10.6 66.6 4.4 C63.9 2.5 51.7 0.7 49.1 0.8 C45.4 0.9 37.4 2 34.5 4.5 C28.5 9.6 16.7 12.5 14.8 19.9 z" id="w" fill="#D07331" /><path d="M14.8 19.9 C16.7 12.5 28.5 9.6 34.5 4.5 C37.4 2 45.4 0.9 49.1 0.8 C51.7 0.7 63.9 2.5 66.6 4.4 C75.6 10.6 79.3 16.1 81.3 20.8 C82.5 23 82.5 37.5 88.5 47.9 C92.7 55.1 96.2 75.3 94.1 87.6 C92.8 97 84.6 134.1 77.8 148.1 C76.3 151.4 73.3 152.3 72.2 152.6 C66.3 154.3 27.2 154.2 23.4 152.6 C22.5 152.3 19.3 151.1 17.6 146.9 C11.8 132.8 4.6 100.8 3.2 87.6 C1.3 70.5 5.7 58.8 9.3 47.7 C12.9 36.6 11.3 33.7 14.8 19.9 z M16.2 20.2 C12.8 33.5 14.4 36.3 10.9 46.9 C7.4 57.6 3.2 68.8 5 85.2 C6.4 97.8 13.3 128.6 18.9 142.1 C20.5 146.1 23.6 147.3 24.4 147.5 C28.1 149.1 65.6 149.2 71.2 147.5 C72.3 147.3 75.2 146.4 76.6 143.2 C83.1 129.8 91 94.2 92.3 85.2 C94.3 73.4 90.9 54 86.9 47.1 C81.1 37.1 81.1 23.2 80 21.1 C78.1 16.6 74.5 11.3 65.9 5.4 C63.3 3.5 51.6 1.8 49.1 1.9 C45.5 2 37.9 3.1 35.1 5.5 C29.3 10.3 18 13.1 16.2 20.2 z" opacity="0.15" id="x" /></g><g fill-rule="evenOdd" transform="translate(129.5, 177.64) scale(1, 0.9954033) translate(-129.5, -177.7) translate(107.1, 86.69997) translate(62.5, 144.5) scale(-1, 1) translate(-62.5, -144.5) translate(22, 91)" id="y"><path d="M52 28.8 C53.2 26.7 53.4 15.1 56.8 12.2 C60.4 8.7 63.5 4 65.3 0 C65.9 2.4 67.8 8.5 69 11.2 C69.1 11.5 69.2 11.7 69.4 12 C73.3 19.9 80.6 22.6 80.6 34.9 C80.6 56.8 72.3 51 69.4 67 C68.9 69.6 68.6 72.3 68.3 75 C67.4 83.8 54.2 85.7 54.2 74.4 C54.2 68.1 54.4 62 54.9 55.8 C54 50.1 51 50.2 49.4 45 C47.4 39.1 48.7 34.5 52 28.8 z" id="z" fill="#FDA75C" /><path d="M11.7 12 C11.8 11.7 11.9 11.5 12.1 11.2 C13.3 8.6 15.1 2.5 15.8 0 C17.6 3.9 20.7 8.7 24.3 12.2 C28.7 15.8 27.9 26.6 29.1 28.8 C32.4 34.5 33.7 39.1 31.8 45.1 C30.2 50.3 27.1 50.3 26.3 55.9 C26.7 62.1 27 68.2 27 74.5 C27 85.8 13.7 81.6 12.8 73.7 C12.6 71.9 12.3 69.7 11.8 67 C8.9 51 0.6 56.8 0.6 34.9 C0.4 22.7 7.8 19.9 11.7 12 z" id="a1" fill="#FDA75C" /><path d="M54.1 75.7 C60 75.4 66.4 72.4 68.7 70.8 C67.4 80.3 67.6 90.2 67.1 96.7 C69.9 95 75.9 97.8 72.1 104.6 C70.1 106.2 66.9 106.5 64.1 106.5 C61.3 106.5 58.5 106.1 56 105 L56.1 104.9 C55.3 104.5 54.7 103.9 54.3 103.3 C51.8 99.6 54 89.5 54.1 75.7 z" id="b1" fill="#FFF" /><path d="M68.1 76.1 C67.5 83.8 67.5 91.4 67.1 96.7 C69.9 95 75.9 97.8 72.1 104.6 C70.1 106.2 66.9 106.5 64.1 106.5 C61.3 106.5 58.5 106.1 56 105 L56.1 104.9 C55.3 104.5 54.7 103.9 54.3 103.3 C51.8 99.6 54 89.5 54.1 75.7 C54.2 75.7 54.2 75.7 54.3 75.7 C54.2 75.3 54.2 74.9 54.2 74.4 C54.2 68.1 54.4 62 54.9 55.8 C54 50.1 51 50.2 49.4 45 C47.4 39.1 48.7 34.5 52 28.8 C53.2 26.7 53.4 15.1 56.8 12.2 C60.4 8.7 63.5 4 65.3 0 C65.9 2.4 67.8 8.5 69 11.2 C69.1 11.5 69.2 11.7 69.4 12 C73.3 19.9 80.6 22.6 80.6 34.9 C80.6 56.8 72.3 51 69.4 67 C68.9 69.6 68.6 72.3 68.3 75 C68.3 75.4 68.2 75.7 68.1 76.1 z M66.1 97.8 C66.5 92.7 65.3 87.3 66 76 C66.7 64.7 67.6 66.5 68.1 64 C70.9 48.8 78.5 56.1 78.5 35.3 C78.5 23.5 72.9 20.5 69.2 13 C69 12.7 68.9 12.5 68.8 12.2 C67.6 9.7 65.8 3.8 65.3 1.6 C63.5 5.4 60.6 9.8 57.2 13.2 C53.9 15.9 54.4 27 53.3 29 C50.1 34.4 49.2 37.8 51.1 43.4 C51.7 45.1 56.2 49.2 56.4 55 C56.5 58.8 56.1 74.6 55.6 74 C55.5 87.1 52.4 96.4 54.8 99.9 C55.2 100.5 55.7 101 56.5 101.4 L56.4 101.5 C58.8 102.6 61.5 102.9 64.1 102.9 C66.8 102.9 69.5 103.6 71.4 102.1 C73 99.1 68.8 96.1 66.1 97.8 z" opacity="0.3" id="c1" /><path d="M13.8 96.7 C13.3 90.2 13.5 80.3 12.2 70.8 C14.5 72.4 21 75.4 26.8 75.7 C26.9 89.5 29.2 99.6 26.6 103.4 C26.2 104.1 25.5 104.6 24.8 105 L24.9 105.1 C22.4 106.2 19.5 106.6 16.8 106.6 C14.1 106.6 10.8 106.3 8.8 104.7 C5 97.8 11 95 13.8 96.7 z" id="d1" fill="#FFF" /><path d="M26.8 76.7 C27 90 29.1 99.7 26.6 103.4 C26.2 104.1 25.5 104.6 24.8 105 L24.9 105.1 C22.4 106.2 19.5 106.6 16.8 106.6 C14.1 106.6 10.8 106.3 8.8 104.7 C5 97.8 11 95 13.8 96.7 C13.3 90.2 13.5 80.3 12.2 70.8 C12.3 70.9 12.4 70.9 12.5 71 C12.3 69.8 12.1 68.5 11.8 67 C8.9 51 0.6 56.8 0.6 34.9 C0.4 22.7 7.8 19.9 11.7 12 C11.8 11.7 11.9 11.5 12.1 11.2 C13.3 8.6 15.1 2.5 15.8 0 C17.6 3.9 20.7 8.7 24.3 12.2 C28.7 15.8 27.9 26.6 29.1 28.8 C32.4 34.5 33.7 39.1 31.8 45.1 C30.2 50.3 27.1 50.3 26.3 55.9 C26.7 62.1 27 68.2 27 74.5 C27 75.3 26.9 76 26.8 76.7 z M25.4 75.8 C24.7 66.6 24.3 60 24 56 C24.8 50.6 28.6 49.5 30.1 44.5 C32 38.7 31.8 34.3 28.6 28.8 C27.5 26.7 28.2 16.3 24 12.8 C20.5 9.4 17.6 4.8 15.8 1 C15.2 3.4 13.4 9.3 12.3 11.8 C12.1 12.1 12 12.3 11.9 12.6 C8.1 20.2 1.8 22.8 2 34.6 C2 55.8 10.9 52.3 13.3 63 C15.6 73.8 14.9 90.6 14.8 97.6 C12.1 96 7.8 98.3 9.1 102.2 C11 103.7 14.2 104 16.8 104 C17.9 104 20.8 103.8 22.5 103.3 C24.9 102.5 23.4 102.8 25 101.5 C27.4 97.9 25.6 88.6 25.4 75.8 z" opacity="0.3" id="e1" /></g></g><g transform="translate(169.6, 177.3) scale(0.9107344) translate(-169.6, -177.3)" id="f1"><g transform="translate(103.5, 64.19997) translate(19, 30)" id="g1"><path d="M89.8 37.3 C91.3 38.6 92.8 39.9 94.3 41.2 C93.1 30.1 89.9 20.2 82 12.2 C73.1 1.4 58.2 0.7 47.4 0.7 C37.1 0.7 23.1 1.3 14.1 10.7 C4.2 19.9 1.7 29.4 0.4 41.2 C1.9 39.9 3.4 38.6 4.9 37.3 C4.9 38 4.9 38.7 4.9 39.4 C0.9 46.4 0.4 54.5 0.4 54.5 C0.4 54.5 2.1 58.7 3.5 59.6 C4 59.9 4.7 59.3 4.9 58.7 C4.1 62.1 3.5 63.4 6.8 71 C7.9 69.5 8.3 69.1 9 67.9 C10.7 74.9 10.6 72.8 12.4 79.8 C12.8 77.9 13.6 77.4 14.3 76.8 C15.8 78.6 17.4 80.2 19.3 81.5 C20.8 83.8 22.8 85.8 25.4 88.3 C26.8 88.2 28.1 88.1 29.4 87.9 C28.8 87.2 28.3 86.5 27.7 85.7 C28.1 85.8 28.6 86 29 86.1 C32.4 88.1 36.3 89.3 40.3 89.3 C40.1 88.9 39.9 88.4 39.7 88 C42.1 88.2 44.6 88.3 47.3 88.3 C50 88.3 52.5 88.2 54.9 88 C54.7 88.4 54.5 88.9 54.3 89.3 C58.2 89.2 62.1 88.1 65.5 86.1 C66 86 66.4 85.8 66.9 85.7 C66.3 86.4 65.8 87.1 65.2 87.9 C66.5 88.1 67.8 88.2 69.1 88.4 C71.8 85.9 73.7 83.8 75.3 81.6 C76.3 80.9 77.2 80.1 78 79.3 C78.6 78.7 79.2 78.1 79.8 77.4 C80.5 78.4 81.2 79 82.2 79.8 C83.9 72.8 83.8 74.9 85.6 67.9 C86.3 69.1 86.7 69.6 87.8 71 C91.1 63.4 90.5 62.1 89.7 58.7 C90 59.2 90.7 59.9 91.1 59.6 C92.5 58.7 94.2 54.5 94.2 54.5 C94.2 54.5 93.2 45.9 89.7 39.4 C89.8 38.7 89.8 37.9 89.8 37.3 z" id="h1" fill="#FDA75C" /><path d="M89.8 37.3 C89.8 37.9 89.8 38.7 89.7 39.4 C93.2 45.9 94.2 54.5 94.2 54.5 C94.2 54.5 92.5 58.7 91.1 59.6 C90.7 59.9 90 59.2 89.7 58.7 C90.5 62.1 91.1 63.4 87.8 71 C86.7 69.6 86.3 69.1 85.6 67.9 C83.8 74.9 83.9 72.8 82.2 79.8 C81.2 79 80.5 78.4 79.8 77.4 C79.2 78.1 78.6 78.7 78 79.3 C77.2 80.1 76.3 80.9 75.3 81.6 C73.7 83.8 71.8 85.9 69.2 88.3 L69.1 88.4 C67.8 88.2 66.5 88.1 65.2 87.9 C65.8 87.1 66.3 86.4 66.9 85.7 C66.4 85.8 66 86 65.5 86.1 C62.1 88.1 58.2 89.2 54.3 89.3 C54.5 88.9 54.7 88.4 54.9 88 C52.5 88.2 50 88.3 47.3 88.3 C44.6 88.3 42.1 88.2 39.7 88 C39.9 88.4 40.1 88.9 40.3 89.3 C36.3 89.3 32.4 88.1 29 86.1 C28.6 86 28.1 85.8 27.7 85.7 C28.3 86.5 28.8 87.2 29.4 87.9 C28.1 88.1 26.8 88.2 25.5 88.4 L25.4 88.3 C22.8 85.8 20.8 83.8 19.3 81.5 C17.4 80.2 15.8 78.6 14.3 76.8 C13.6 77.4 12.8 77.9 12.4 79.8 C10.6 72.8 10.7 74.9 9 67.9 C8.3 69.1 7.9 69.5 6.8 71 C3.5 63.4 4.1 62.1 4.9 58.7 C4.7 59.3 4 59.9 3.5 59.6 C2.1 58.7 0.4 54.5 0.4 54.5 C0.4 54.5 0.9 46.4 4.9 39.4 C4.9 38.7 4.9 38 4.9 37.3 C3.4 38.6 1.9 39.9 0.4 41.2 C1.7 29.4 4.2 19.9 14.1 10.7 C23.1 1.3 37.1 0.7 47.4 0.7 C58.2 0.7 73.1 1.4 82 12.2 C89.9 20.2 93.1 30.1 94.3 41.2 C92.8 39.9 91.3 38.6 89.8 37.3 z M88.1 34.2 C89.5 35.4 91 35.8 92.4 37 C91.2 26.6 88.3 19.7 80.7 12.1 C72.1 2 57.8 1.4 47.4 1.4 C37.5 1.4 24 2 15.3 10.8 C5.8 19.5 3.4 26.7 2.1 37.8 C3.5 36.6 5 35.5 6.4 34.2 C6.4 34.9 6.4 37.1 6.4 37.8 C2.6 44.3 2.1 52 2.1 52 C2.1 52 3.3 55.1 4.7 56 C5.2 56.3 6.3 56.6 6.4 56 C5.6 59.2 4.8 59.4 8 66.5 C9.1 65.1 9.7 65.8 10.4 64.6 C12 71.2 11.6 68.7 13.3 75.3 C13.7 73.5 14.8 73.5 15.5 72.9 C16.9 74.6 18.5 76.1 20.3 77.3 C21.7 79.5 21.7 81 24.2 83.3 C25.5 83.2 26.7 83.9 27.9 83.7 C27.3 83 28.9 82 28.4 81.3 C28.8 81.4 29.3 81.6 29.7 81.7 C33 83.6 32.8 84.7 36.6 84.7 C36.4 84.3 34.7 82.9 40 83.5 C42.3 83.7 44.7 83.8 47.3 83.8 C49.9 83.8 55.2 83.1 57.5 82.9 C57.3 83.3 57 84.4 56.8 84.7 C60.6 84.6 61.6 83.6 64.8 81.7 C65.3 81.6 67.7 80.9 68.2 80.8 C67.6 81.5 66.7 83 66.2 83.8 C67.5 84 69.1 83.2 70.3 83.4 C72.9 81 72.7 79.5 74.3 77.5 C75.3 76.8 77.5 76.1 78.2 75.3 C78.8 74.7 79.5 73.1 80 72.5 C80.7 73.4 80.8 74.6 81.8 75.3 C83.4 68.7 83.3 69 85.1 62.4 C85.8 63.5 86.4 65.5 87.4 66.8 C90.6 59.7 88.9 59.1 88.1 55.9 C88.4 56.4 90 57.1 90.4 56.9 C91.7 56.1 92.4 52 92.4 52 C92.4 52 90.7 45.3 87.4 39.1 C87.5 38.4 88.1 34.8 88.1 34.2 z" opacity="0.15" id="i1" /></g><g transform="translate(108.7, 89.59998)" id="j1"><g id="k1"><path d="M43.8 4.7 C43.8 4.7 46 6.8 47.8 8.8 C51.2 12.7 49.4 16.5 45.6 18.1 C43.1 19.2 40.1 20.6 38 22.9 C35.6 25.5 33 28 31.3 30.2 C29.5 32.5 27.2 34.1 25 33.6 C19.8 32.4 15.4 21.2 17.5 17.2 C20.9 10.8 43.8 4.7 43.8 4.7 z" id="l1" fill="#AA602E" /><path d="M18.4 16 C18.4 15.8 18.5 15.5 18.6 15.3 C21 10.9 32.4 7.6 38.3 6.3 C41.5 5.3 43.8 4.7 43.8 4.7 C43.8 4.7 46 6.8 47.8 8.8 C51.2 12.7 49.4 16.5 45.6 18.1 C43.1 19.2 40.1 20.6 38 22.9 C35.6 25.5 33 28 31.3 30.2 C29.5 32.5 27.2 34.1 25 33.6 C19.8 32.4 15.4 21.2 17.5 17.2 C17.7 16.8 18 16.4 18.4 16 z M18.4 16 C17.1 20.2 20.7 29.6 25.3 30.7 C27.4 31.2 29.2 30.1 30.9 27.9 C32.5 25.9 35.2 23.7 37.4 21.3 C39.4 19.1 43.2 17.6 45.5 16.6 C49 15.1 49 11.9 45.8 8.3 C44.1 6.4 42.9 5.7 41.8 5.7 C41.6 5.7 40.2 5.9 38.3 6.3 C32 8.4 21.9 12.1 18.4 16 z" opacity="0.2" id="m1" /><path d="M45.2 6 C36.5 -2.4 38.1 3.6 23.1 0.9 C8.1 -1.8 -4.2 15.2 2 35.3 C7.5 53.2 8 60.6 11.3 60.6 C17 60.6 19.2 40 27.1 24.3 C33 12.9 45.2 6 45.2 6 z" id="n1" fill="#FDA75C" /><path d="M45.2 6 C45.2 6 33 12.9 27.1 24.3 C19.2 40 17 60.6 11.3 60.6 C8 60.6 7.5 53.2 2 35.3 C-4.2 15.2 8.1 -1.8 23.1 0.9 C38.1 3.6 36.5 -2.4 45.2 6 z M43 6 C35 -1.7 36.4 3.8 22.6 1.3 C8.7 -1.2 -1.9 14.5 3.9 33.1 C9 49.7 9.1 55.4 12.1 55.4 C17.4 55.4 17.9 38 25.3 23.5 C30.7 13 43 6 43 6 z" opacity="0.15" id="o1" /></g></g><g transform="translate(105.9, 89.59998) translate(100, 30.5) scale(-1, 1) translate(-100, -30.5) translate(75, 0)" id="p1"><g id="q1"><path d="M43.8 4.7 C43.8 4.7 46 6.8 47.8 8.8 C51.2 12.7 49.4 16.5 45.6 18.1 C43.1 19.2 40.1 20.6 38 22.9 C35.6 25.5 33 28 31.3 30.2 C29.5 32.5 27.2 34.1 25 33.6 C19.8 32.4 18.1 20.4 20.4 16.7 C23.9 11.1 43.8 4.7 43.8 4.7 z" id="r1" fill="#AA602E" /><path d="M24.7 13 C30.9 8.8 43.1 4.9 43.1 4.9 C43.1 4.9 43.1 4.9 43.1 4.9 C43.6 4.8 43.8 4.7 43.8 4.7 C43.8 4.7 46 6.8 47.8 8.8 C51.2 12.7 49.4 16.5 45.6 18.1 C43.1 19.2 40.1 20.6 38 22.9 C35.6 25.5 33 28 31.3 30.2 C29.5 32.5 27.2 34.1 25 33.6 C19.8 32.4 18.1 20.4 20.4 16.7 C21.2 15.5 22.7 14.2 24.7 13 z M24.7 13 C23.2 14 22.1 14.9 21.5 15.9 C19.4 19.3 21 30.4 25.8 31.5 C27.8 31.9 29.9 30.4 31.6 28.3 C33.1 26.3 35.5 24 37.7 21.6 C39.7 19.5 42.4 18.2 44.7 17.2 C48.2 15.7 49.9 12.2 46.7 8.6 C45.3 7 43.5 5.3 43.1 4.9 C40.5 5.8 30.7 9.2 24.7 13 z" opacity="0.2" id="s1" /><path d="M45.2 6 C36.5 -2.4 38.1 3.6 23.1 0.9 C8.1 -1.8 -4.2 15.2 2 35.3 C7.5 53.2 8 60.6 11.3 60.6 C17 60.6 19.2 40 27.1 24.3 C33 12.9 45.2 6 45.2 6 z" id="t1" fill="#FDA75C" /><path d="M45.2 6 C45.2 6 33 12.9 27.1 24.3 C19.2 40 17 60.6 11.3 60.6 C8 60.6 7.5 53.2 2 35.3 C-4.2 15.2 8.1 -1.8 23.1 0.9 C38.1 3.6 36.5 -2.4 45.2 6 z M43.6 5.8 C37.3 -0.8 36.7 4 22.9 1.5 C9 -1 -1.7 15.6 4 34.3 C9.1 50.9 8.3 56.1 11.4 56.1 C16.6 56.1 15.6 40.4 26.3 23.3 C31.7 12.7 43.6 5.8 43.6 5.8 z" opacity="0.15" id="u1" /></g></g><g id="v1"><g transform="translate(108.9, 97.09996) translate(39, 34)" id="w1"><path d="M43.8 25.9 C34.9 27 32.1 15 29.6 9.5 L28.8 25.7 C28.5 29.8 24.5 32.1 21.1 31.9 C17.7 32.1 14.9 28.9 14.9 25.7 C14.9 23.6 14.8 18.2 14.5 9.5 C12.1 15 9.2 26.8 0.3 25.7 L1.2 29.7 C1.6 32 2 34.8 2.4 38.3 C3.5 48.9 9.9 52 22.1 52 C34.4 51.9 40.8 48.9 41.8 38.3 C42.2 34.8 42.6 32 43 29.7 L43.8 25.9 z" id="x1" fill="#FFF" /><path d="M43.8 25.9 L43 29.7 C42.6 32 42.2 34.8 41.8 38.3 C40.8 48.9 34.4 51.9 22.1 52 C9.9 52 3.5 48.9 2.4 38.3 C2 34.8 1.6 32 1.2 29.7 L0.3 25.7 C9.2 26.8 12.1 15 14.5 9.5 C14.8 18.2 14.9 23.6 14.9 25.7 C14.9 28.9 17.7 32.1 21.1 31.9 C24.5 32.1 28.5 29.8 28.8 25.7 L29.6 9.5 C32.1 15 34.9 27 43.8 25.9 z M42.8 26.7 C34.6 27.7 32.5 17.4 30.2 12.2 L29.6 27.3 C29.3 31.1 25.2 33.1 22.1 32.9 C19 33.1 14.3 29.4 14.3 26.4 C14.3 24.4 14.1 19.9 14.1 11.8 C11.9 16.9 10.3 27.5 2.1 26.5 L3 30.5 C3.4 32.7 3.7 33.9 4 37.1 C5 47.1 10.9 50 22.1 50 C33.4 49.9 39.3 47.1 40.2 37.2 C40.6 33.9 41.1 32.3 41.5 30.1 L42.8 26.7 z" opacity="0.15" id="y1" /></g><g transform="translate(170, 174.5) scale(0.7) translate(-170, -174.5) translate(104.4, 78.89996) translate(51, 88) translate(0, -2.999969)" id="z1"><g id="a2"><path d="M13 1.7 C13.1 7.2 12.5 10.3 11.3 11.3 C10.1 12.3 6.8 14.1 1.6 16.8 C0.6 17.5 0.4 18.3 1 19 C1.5 19.6 2.5 19.6 3.9 19 L14.4 13.3 C19.8 16.9 23 18.7 24.2 18.7 C24.8 18.7 26.2 18.7 26.4 18.3 C29.1 17.2 17.7 12.7 17.3 11.3 C17 10.3 16.5 7.1 15.7 1.8 C15.3 1.2 14.8 0.8 14.2 0.6 C13.7 0.5 13.3 0.8 13 1.7 z" id="b2" fill="#353535" /></g></g><g transform="translate(170, 161.4999) scale(0.8) translate(-170, -165.4999) translate(110.5, 94.99995) translate(51, 63)" id="c2"><g id="d2"><path d="M8.5 0.8 C3 0.8 0.1 2.6 0.1 6.3 C0.1 9.3 1 9.5 2.6 11.1 C4.1 12.7 4.4 14.2 8.6 14.2 C12.8 14.2 13.1 12.7 14.6 11.1 C16.1 9.5 17.1 9.3 17.1 6.3 C16.9 2.6 14 0.8 8.5 0.8 z" id="e2" fill="#302622" /><path d="M12.1 4.4 C11.4 4.3 9.4 4.4 8.5 4.9 C7.6 4.4 5.7 4.2 4.9 4.4 C3.6 4.6 2.8 6.9 3 6.9 C3.2 7 4.9 5.8 5.7 6.1 C6.9 6.5 8 7.7 8.4 8.6 C8.8 7.8 9.9 6.5 11.1 6.1 C12 5.8 13.6 7 13.8 6.9 C14.2 6.9 13.3 4.6 12.1 4.4 z" id="f2" fill="#F7F7F7" /></g></g><g transform="translate(103.8, 58.29996)" id="g2"><g transform="translate(18, 29)" id="h2"><path d="M23.6 41.6 C25.6 38.1 29.7 36 33.7 36.5 C37.7 37 41.2 39.9 42.3 43.8 C43.4 47.6 42.9 51.8 39.2 53.1 C35.8 54.4 27.9 54.9 24.5 52.9 C21 50.8 21.6 45.1 23.6 41.6 z" id="i2" fill="#FBD291" /><path d="M9 21.2 C15.5 14.3 18.6 13 26.7 11.8 C24 10.9 25 9.4 20.1 8.3 C23.4 5.7 26.9 7 31.1 7.1 C33.9 7.2 36.3 7 38.8 8.5 C38.9 5.8 38.7 3.1 38.3 0.5 C44.7 5.4 47.5 16 47.5 24.1 C47.5 37.4 43 52.3 41.7 50.8 C38.4 44.3 34.3 37.9 29.3 36.9 C27.4 36.5 24.3 37.6 22.7 38.8 C16.9 43.3 14.1 50.6 14.7 57.5 C13.6 57.7 12.6 57.9 11.5 58.1 C10.6 54.2 10.7 50.7 11.5 46.8 C8.3 49.2 6 52.7 4.9 56.5 C3.8 51 4.9 45 7.9 40.2 C4.4 40.8 2.5 44 1.3 47 C-0.3 40.3 3.7 26.9 9 21.2 z" id="j2" fill="#FBD291" /><path d="M22.8 38.9 C17.5 42.1 14.2 50.7 14.8 57.6 C13.7 57.8 12.7 58 11.6 58.2 C10.7 54.3 10.8 50.8 11.6 46.9 C8.4 49.3 6.1 52.8 5 56.6 C3.8 51.1 4.9 45.1 7.9 40.3 C4.4 40.9 2.5 44.1 1.3 47.1 C-0.3 40.3 3.7 26.9 9 21.2 C15.5 14.3 18.6 13 26.7 11.8 C24 10.9 25 9.4 20.1 8.3 C23.4 5.7 26.9 7 31.1 7.1 C33.9 7.2 36.3 7 38.8 8.5 C38.9 5.8 38.7 3.1 38.3 0.5 C44.7 5.4 47.5 16 47.5 24.1 C47.5 30.5 46.6 36.5 45.6 41.1 C44.6 46 43.6 49.4 41.1 52 C40.6 52.4 40 52.8 39.2 53.1 C35.8 54.4 27.9 54.9 24.5 52.9 C21 50.8 21.6 45.1 23.6 41.6 C24.9 39.3 27.1 37.6 29.6 36.9 C26.9 37.1 24.3 38 22.8 38.9 z M29.3 35.4 L34 36.3 C31.7 37 26.9 38.5 25.6 40.7 C23.7 44 21.9 48.7 25.2 50.7 C28.4 52.6 35.1 51.9 38.3 50.7 C39 50.4 39.6 50.1 40.1 49.7 C44.6 44.9 46.1 36 46.1 23.5 C46.1 15.9 45.3 7.3 39.3 2.7 C39.7 5.1 39.4 7.9 39.3 10.5 C37 9.1 34.7 8.5 32 8.4 C28.1 8.3 25.3 5.9 22.2 8.3 C26.8 9.3 26.4 11.4 28.9 12.2 C21.3 13.3 17.4 14.3 11.3 20.8 C6.4 26 0.8 35.9 2.3 42.3 C3.4 39.5 6.9 38.8 10.2 38.2 C7.4 42.7 4.5 46.9 5.6 52 C6.6 48.4 9.4 47.1 12.4 44.8 C11.6 48.5 11.6 51.8 12.4 55.4 C13.4 55.2 13.1 55.1 14.1 54.9 C13.5 48.4 18 40.3 22.9 37.3 C24.3 36.4 26.7 35.7 29.3 35.4 z" opacity="0.15" id="k2" /><circle cx="32.5" cy="45.2" r="6.7" id="l2" fill="#282421" /><path d="M33.4 47 C34.4 47 35.2 46.2 35.2 45.2 C35.2 44.2 34.4 43.4 33.4 43.4 C32.4 43.4 31.6 44.2 31.6 45.2 C31.6 46.2 32.4 47 33.4 47 z" id="m2" fill="#FFF" /><path d="M29.4 40.7 C30.6 40 33.1 39 33.4 40 C33.7 41.2 31.9 40.9 30.7 41.9 C29.4 43 29 43.4 28.3 44.2 C27.7 44.8 27.3 42 29.4 40.7 z" id="n2" fill="#FFF" /></g></g><g transform="translate(103.2, 58.29996) translate(67, 29)" id="o2"><g id="p2"><path d="M24.4 41.6 C22.4 38.1 18.3 36 14.3 36.5 C10.3 37 6.8 39.9 5.7 43.8 C4.6 47.6 5.1 51.8 8.8 53.1 C12.2 54.4 20.1 54.9 23.5 52.9 C27 50.8 26.4 45.1 24.4 41.6 z" id="q2" fill="#FBD291" /><circle cx="15.5" cy="45.2" r="6.7" id="r2" fill="#282421" /><path d="M14.6 47 C13.6 47 12.8 46.2 12.8 45.2 C12.8 44.2 13.6 43.4 14.6 43.4 C15.6 43.4 16.4 44.2 16.4 45.2 C16.4 46.2 15.6 47 14.6 47 z" id="s2" fill="#FFF" /><path d="M18.6 40.7 C17.4 40 14.9 39 14.6 40 C14.3 41.2 16.1 40.9 17.3 41.9 C18.6 43 19 43.4 19.7 44.2 C20.3 44.8 20.7 42 18.6 40.7 z" id="t2" fill="#FFF" /><path d="M38.9 21.2 C32.4 14.3 29.3 13 21.2 11.8 C23.9 10.9 22.9 9.4 27.8 8.3 C24.5 5.7 21 7 16.8 7.1 C14 7.2 11.6 7 9.1 8.5 C9 5.8 9.2 3.1 9.6 0.5 C3.2 5.4 0.4 16 0.4 24.1 C0.4 37.4 3.8 46.9 5.7 50.1 C5.8 34.3 19.9 35.7 25.1 38.8 C30.3 41.9 33.7 50.6 33.1 57.5 C34.2 57.7 35.2 57.9 36.3 58.1 C37.2 54.2 37.1 50.7 36.3 46.8 C39.5 49.2 41.8 52.7 42.9 56.5 C44.1 51 43 45 40 40.2 C43.5 40.8 45.4 44 46.6 47 C48.1 40.3 44.2 26.9 38.9 21.2 z" id="u2" fill="#FBD291" /><path d="M25.1 38.9 C30.4 42.1 33.7 50.7 33.1 57.6 C34.2 57.8 35.2 58 36.3 58.2 C37.2 54.3 37.1 50.8 36.3 46.9 C39.5 49.3 41.8 52.8 42.9 56.6 C44.1 51.1 43 45.1 40 40.3 C43.5 40.9 45.4 44.1 46.6 47.1 C48.2 40.3 44.2 26.9 38.9 21.2 C32.4 14.3 29.3 13 21.2 11.8 C23.9 10.9 22.9 9.4 27.8 8.3 C24.5 5.7 21 7 16.8 7.1 C14 7.2 11.6 7 9.1 8.5 C9 5.8 9.2 3.1 9.6 0.5 C3.2 5.4 0.4 16 0.4 24.1 C0.4 31.8 1.6 38.6 3 43.6 C4 47.3 5.5 50.3 6.8 52 C7.3 52.4 7.9 52.8 8.7 53.1 C12.1 54.4 20 54.9 23.4 52.9 C26.9 50.8 26.3 45.1 24.3 41.6 C23 39.3 20.8 37.6 18.3 36.9 C21.1 37.1 23.6 38 25.1 38.9 z M18.7 35.4 L14 36.3 C16.3 37 21.1 38.5 22.4 40.7 C24.3 44 26.1 48.7 22.8 50.7 C19.6 52.6 12.9 51.9 9.7 50.7 C9 50.4 8.4 50.1 7.9 49.7 C3.4 44.9 1.9 36 1.9 23.5 C1.9 15.9 2.7 7.3 8.7 2.7 C8.3 5.1 8.6 7.9 8.7 10.5 C11 9.1 13.3 8.5 16 8.4 C19.9 8.3 22.7 5.9 25.8 8.3 C21.2 9.3 21.6 11.4 19.1 12.2 C26.7 13.3 30.6 14.3 36.7 20.8 C41.7 26.2 47.3 36.1 45.8 42.5 C44.7 39.7 41.2 39 37.9 38.4 C40.7 42.9 43.6 47 42.5 52.2 C41.5 48.6 38.7 47.3 35.7 45 C36.5 48.7 36.5 52 35.7 55.6 C34.7 55.4 35 55.3 34 55.1 C34.6 48.6 30.1 40.5 25.2 37.5 C23.6 36.4 21.2 35.7 18.7 35.4 z" opacity="0.15" id="v2" /></g></g></g></g></g></g><defs><g transform="translate(17.09519, 0.800995) translate(-135.2952, -293.601)" id="w2" fill="#000"><path d="M118.2 302.7 C118.4 307.4 132.5 311.2 149.8 311.2 C167.1 311.2 181.2 307.4 181.4 302.7 C181.4 307.5 181.4 310.1 181.4 310.5 C181.4 315.3 167.3 319.1 149.8 319.1 C132.3 319.1 118.2 315.2 118.2 310.5 L118.2 302.7 L118.2 302.7 z" fill-opacity="0.4528" id="x2" fill="#593001" /><path d="M118.7 301.7 C118.9 306.4 133 310.2 150.3 310.2 C167.6 310.2 181.7 306.4 181.9 301.7 C181.9 306.5 181.9 309.1 181.9 309.5 C181.9 314.3 167.8 318.1 150.3 318.1 C132.8 318.1 118.7 314.2 118.7 309.5 L118.7 301.7 L118.7 301.7 z" id="y2" fill="#DA8113" /><linearGradient x1="46.0545" y1="-118.6926" x2="45.4656" y2="-118.6926" gradientUnits="userSpaceOnUse" gradientTransform="matrix(117.135, 0, 0, 28.4634, -5208.417, 3687.795)" id="z2"><stop offset="0%" stop-color="#D9952A" stop-opacity="1" /><stop offset="6.438854%" stop-color="#CA7519" stop-opacity="1" /><stop offset="30.54%" stop-color="#E3AD3A" stop-opacity="1" /><stop offset="51.05%" stop-color="#FFEC91" stop-opacity="1" /><stop offset="68.8%" stop-color="#E9BD44" stop-opacity="1" /><stop offset="86.24%" stop-color="#FFED6C" stop-opacity="1" /><stop offset="93.87%" stop-color="#F2D353" stop-opacity="1" /><stop offset="100%" stop-color="#F2B947" stop-opacity="1" /></linearGradient><path d="M118.2 301.6 C118.4 306.1 132.7 309.7 150.3 309.7 C167.9 309.7 182.2 306.1 182.4 301.6 C182.4 306.2 182.4 308.7 182.4 309 C182.4 313.5 168 317.2 150.3 317.2 C132.6 317.2 118.2 313.5 118.2 309 L118.2 301.6 L118.2 301.6 z" id="a3" style="fill:url(#z2)" /><linearGradient x1="45.4914" y1="-117.9547" x2="45.9407" y2="-117.5895" gradientUnits="userSpaceOnUse" gradientTransform="matrix(115.425, 0, 0, 29.925, -5125.077, 3826.124)" id="b3"><stop offset="0%" stop-color="#F4E072" stop-opacity="1" /><stop offset="100%" stop-color="#DB9427" stop-opacity="1" /></linearGradient><ellipse cx="150.3" cy="301.5" rx="31.6" ry="8.2" id="c3" style="fill:url(#b3)" /><linearGradient x1="45.4656" y1="-126.0065" x2="46.0545" y2="-126.0065" gradientUnits="userSpaceOnUse" gradientTransform="matrix(117.135, 0, 0, 18.6219, -5208.417, 2651.479)" id="d3"><stop offset="0%" stop-color="#D9952A" stop-opacity="1" /><stop offset="6.438854%" stop-color="#CA7519" stop-opacity="1" /><stop offset="30.54%" stop-color="#E3AD3A" stop-opacity="1" /><stop offset="51.05%" stop-color="#FFEC91" stop-opacity="1" /><stop offset="68.8%" stop-color="#E9BD44" stop-opacity="1" /><stop offset="86.24%" stop-color="#FFED6C" stop-opacity="1" /><stop offset="93.87%" stop-color="#F2D353" stop-opacity="1" /><stop offset="100%" stop-color="#F2B947" stop-opacity="1" /></linearGradient><path d="M119.2 299.9 C119 300.2 118.9 300.6 118.9 301 C118.9 305.5 132.9 309.2 150.3 309.2 C167.7 309.2 181.7 305.5 181.7 301 C181.7 300.6 181.6 300.3 181.4 299.9 C182 300.5 182.4 301.2 182.4 301.9 C182.4 306.4 168 310.1 150.3 310.1 C132.6 310.1 118.2 306.4 118.2 301.9 C118.2 301.3 118.6 300.6 119.2 299.9 z" id="e3" style="fill:url(#d3)" /><linearGradient x1="45.196" y1="-121.5895" x2="45.3746" y2="-120.6758" gradientUnits="userSpaceOnUse" gradientTransform="matrix(101.745, 0, 0, 23.94, -4458.332, 3199.41)" id="f3"><stop offset="0%" stop-color="#F8DD61" stop-opacity="1" /><stop offset="100%" stop-color="#EAA330" stop-opacity="1" /></linearGradient><ellipse cx="150.3" cy="300.8" rx="27.8" ry="6.6" id="g3" style="fill:url(#f3)" /><linearGradient x1="45.5694" y1="-134.267" x2="45.0221" y2="-134.267" gradientUnits="userSpaceOnUse" gradientTransform="matrix(101.745, 0, 0, 13.2525, -4458.332, 2077.223)" id="h3"><stop offset="0%" stop-color="#F4CA2F" stop-opacity="1" /><stop offset="51.38%" stop-color="#BF7737" stop-opacity="1" /><stop offset="100%" stop-color="#E4A929" stop-opacity="1" /></linearGradient><path d="M122.6 301.5 C122.5 301.3 122.4 301 122.4 300.8 C122.4 297.2 134.9 294.2 150.2 294.2 C165.5 294.2 178 297.1 178 300.8 C178 301 177.9 301.3 177.8 301.5 C176.3 298.2 164.5 295.6 150.1 295.6 C135.7 295.6 124.1 298.2 122.6 301.5 z" id="i3" style="fill:url(#h3)" /></g></defs><desc>8K7GFGA2KF8,yk73k6Ud4rKemOxRCpaf/HblTvxitf7XHzZTn88FCKqLwij2qKG6h/B+PpggzJRuFaW6baecg3D6hjAdnfFb8mp0AuUF1w7LyPx7h5NQZKM7j0317NsiXc7ZobsijkcI</desc></svg>