<?xml version="1.0" encoding="utf-8"?><!DOCTYPE svg PUBLIC "-//W3C//DTD SVG 1.1//EN" "http://www.w3.org/Graphics/SVG/1.1/DTD/svg11.dtd"><svg x="0" y="0" width="340px" height="340px" viewBox="0, 0, 340, 340" preserveAspectRatio="xMidYMid" font-size="0" id="a" enable-background="new 0 0 340 340" xmlns="http://www.w3.org/2000/svg" xmlns:xlink="http://www.w3.org/1999/xlink" xmlns:xml="http://www.w3.org/XML/1998/namespace" version="1.1"><g id="b" fill="#000"><g id="c"><g transform="translate(0, 0) translate(0, 224)" id="d"><ellipse cx="168.6" cy="53.1" rx="57.8" ry="12.8" fill-opacity="0.25" id="e" /></g><g id="f"><g transform="translate(105.8, 106.8) translate(29.5, 119) scale(-1, 1) translate(-29.5, -119) translate(14, 94)" id="g"><g id="h"><path d="M24.2 36 C32.3 26.9 31.1 10.9 25.6 0.7 C24.4 14 20.9 23.8 15.4 29.2 C7 36.4 -1.8 43.5 1.8 47.8 C5.8 52.6 16.2 43.7 24.2 36 z" id="i" fill="#F4DFA9" /><path d="M24.2 36 C16.2 43.7 5.8 52.6 1.8 47.8 C-1.8 43.5 7 36.4 15.4 29.2 C20.9 23.8 24.4 14 25.6 0.7 C31.1 10.9 32.3 26.9 24.2 36 z M22 36 C29.3 27.8 31.1 13 26.2 3.9 C25.1 15.8 20.3 25.3 15.4 30.2 C7.9 36.6 1 41.6 4.2 45.4 C7.8 49.7 14.9 42.9 22 36 z" opacity="0.15" id="j" /></g></g><g transform="translate(127.7, 273.3) scale(1) translate(-127.7, -273.3) translate(91.49998, 85.89996) translate(29, 124)" id="k"><g transform="translate(24, 34) scale(-1, 1) translate(-24, -34)" id="l"><path d="M1 25.2 C1 9.7 33.1 -7.2 43.6 2.4 C52.6 10.7 44.9 29.8 43.6 31.6 C42.7 32.8 39.4 39.1 33.8 50.4 C41.1 53.1 44.6 56.3 44.6 60 C44.6 61.7 44.6 64 42.9 65.3 C41.6 66.3 15.5 67.3 14.1 64.5 C15.9 40.5 1 40.8 1 25.2 z" id="m" fill="#C08A3F" /><path d="M1 25.2 C1 9.7 33.1 -7.2 43.6 2.4 C52.6 10.7 44.9 29.8 43.6 31.6 C42.7 32.8 39.4 39.1 33.8 50.4 C41.1 53.1 44.6 56.3 44.6 60 C44.6 61.7 44.6 64 42.9 65.3 C41.6 66.3 15.5 67.3 14.1 64.5 C15.9 40.5 1 40.8 1 25.2 z M2.3 24.6 C2.3 39.3 17.6 39 15.9 61.7 C17.2 64.3 40.8 63.5 41.9 62.5 C43.5 61.3 42.6 60.9 42.6 59.3 C42.6 55.7 38.2 53.9 31.4 51.3 C36.8 40.6 42.5 31.5 43.7 28.5 C45 25.3 51.2 10.8 42.6 2.9 C32.6 -6 2.3 10 2.3 24.6 z" opacity="0.15" id="n" /></g></g><g transform="translate(212.2, 273.3) scale(1) translate(-212.2, -273.3) translate(91.49999, 85.89996) translate(104, 157.5) scale(-1, 1) translate(-104, -157.5) translate(79, 123)" id="o"><g id="p"><path d="M50.1 26.5 C50.1 11 24.7 -9.5 6.1 3.3 C-2.9 11.6 4.8 30.7 6.1 32.5 C7 33.7 10.3 40 15.9 51.3 C8.7 54.1 5.1 57.3 5.1 61 C5.1 62.7 5.1 65 6.8 66.3 C8.1 67.3 32.6 67.7 34 64.9 C37.5 37.2 50.1 42.1 50.1 26.5 z" id="q" fill="#C08A3F" /><path d="M50.1 26.5 C50.1 42.1 37.5 37.1 34 64.9 C32.6 67.7 8.1 67.3 6.8 66.3 C5.1 65 5.1 62.7 5.1 61 C5.1 57.2 8.7 54 15.9 51.4 C10.3 40 7 33.8 6.1 32.6 C4.8 30.8 -2.9 11.7 6.1 3.4 C24.7 -9.5 50.1 11 50.1 26.5 z M48.5 25.9 C48.5 11.4 24.4 -8.6 7 3.4 C-1.4 11.3 4.3 25.2 6.1 29.3 C7.9 33.4 13 41.2 18.4 51.9 C11.6 54.4 7.1 57.4 7.1 59.4 C7.1 61 6.6 62 8.1 63.2 C9.3 64.2 30.8 64.6 32.1 62 C35.3 36 48.5 40.5 48.5 25.9 z" opacity="0.15" id="r" /></g></g><g transform="translate(91.50001, 85.89998) translate(37, 51)" id="s"><g transform="translate(3, 0)" id="t"><path d="M61 19.7 C61 35.9 63.7 34.2 65.4 38.8 C67.1 43.4 74 52.4 75.2 65.1 C76.4 77.8 75.8 91.7 71.8 103.4 C67.8 115.1 70.7 136.2 61.1 138.9 C60.8 139 29.3 142 17.6 138.9 C5.5 135.7 11.4 122.7 6.1 105.5 C0.8 88.3 -0.2 79.6 0.1 65.1 C0.4 50.6 10.3 43.5 12.1 38.7 C13.9 33.9 16.2 32 16.2 19.6 C16.2 7.2 24.2 0.2 41.6 0.7 C46.8 0.9 61 3.4 61 19.7 z" id="u" fill="#F4DFA9" /><path d="M61 19.7 C61 35.9 63.7 34.2 65.4 38.8 C67.1 43.4 74 52.4 75.2 65.1 C76.4 77.8 75.8 91.7 71.8 103.4 C67.8 115.1 70.7 136.2 61.1 138.9 C60.8 139 29.3 142 17.6 138.9 C5.5 135.7 11.4 122.7 6.1 105.5 C0.8 88.3 -0.2 79.6 0.1 65.1 C0.4 50.6 10.3 43.5 12.1 38.7 C13.9 33.9 16.2 32 16.2 19.6 C16.2 7.2 24.2 0.2 41.6 0.7 C46.8 0.9 61 3.4 61 19.7 z M60.2 20.5 C60.2 4.8 46.6 2.4 41.5 2.2 C24.6 1.7 16.9 8.5 16.9 20.4 C16.9 32.3 14.7 34.1 12.9 38.8 C11.2 43.5 1.7 50.4 1.4 64.3 C1.1 78.2 2 86.7 7.2 103.2 C12.4 119.7 6.6 132.4 18.2 135.4 C29.5 138.4 59.9 135.5 60.2 135.4 C69.5 132.8 66.8 112.4 70.5 101.2 C74.4 90 75 76.6 73.8 64.3 C72.6 52 65.9 43.3 64.4 38.9 C62.8 34.5 60.2 36.1 60.2 20.5 z" opacity="0.15" id="v" /></g></g><g transform="translate(131.5243, 186.414) scale(0.794039, 0.9422653) translate(-121.7, -186.8) translate(97.99999, 60.79997) translate(24, 127)" id="w"><path d="M6.1 0.2 C11.1 5.7 15.3 10.1 18.8 13.2 C26.2 19.7 34 23.4 34.2 23.5 C39.7 27 43.3 27.1 48.3 27.1 C53.3 27.1 61.1 25.3 64.4 23.5 C66 22.6 72.5 19.8 80.3 12 C83.2 9.2 86 4.8 88.8 -1 C90.9 1.7 92.5 5.5 93.6 10.3 C94.4 14.1 91.9 19.6 92.1 24.6 C90.9 36.8 87.7 37.7 83.8 47 C82.9 49.2 84.6 50.8 83.6 53.8 C80.2 63.3 76.6 75.4 76 82 C75.8 84.4 77.6 84.2 80.5 87.3 C83.4 90.4 86.7 99 82.8 100.9 C74 102.3 63.9 97.7 61.3 96.3 C59.6 95.4 59.3 78 59.6 61.4 C59.7 51.6 60.3 42 59.6 39.7 C57.5 41.8 51.1 46.2 48.5 46 C45.9 45.8 43.6 42.3 37.8 38.9 C37.4 41.1 38.8 52.2 39 61.3 C39.4 78 39 96.2 37.8 97.4 C36.1 99.4 18.9 101.8 14.7 100.8 C10.5 99.8 12.7 93.7 13.5 92 C15.4 87.8 21 85 20.9 83.5 C20.2 71.3 17.3 63 14.7 56.5 C13.7 54.1 14.3 49.9 13.5 47.9 C8.1 34.4 6.9 36.4 4.9 31.7 C3.2 27.8 1 25.4 2 21.1 C3 16.8 1.4 11 2.1 9.3 C3 6.9 4.3 3.8 6.1 0.2 z" id="x" fill="#F0B756" /><path d="M93.6 10.2 C94.4 14 94.9 18.4 95.1 23.4 C93.9 35.6 92.9 33.6 89 43 C88.1 45.1 83.9 52.6 82.8 55.2 C81 57.3 80.8 59.3 78.9 59.4 C76.2 59.6 76.9 55.9 80.9 46.4 C83.6 39.8 84.8 35.9 86.7 26.5 C87.9 20.2 91.4 13.1 93.6 10.2 z" id="y" fill="#FCF6CA" /><path d="M14.6 56.5 C13.6 54.1 12.7 51.9 11.9 49.9 C6.6 36.4 0.8 32.6 0.3 25.4 C-0.3 19.9 0.1 17.8 0.8 13.5 C1 12.4 1.4 11 2.1 9.3 C4.8 12.1 10 19.9 11.3 26.4 C13.2 35.8 14.4 39.7 17.1 46.3 C21 55.8 21.8 59.4 19.1 59.3 C17.4 59.2 16.1 58.2 14.6 56.5 z" id="z" fill="#FCF6CA" /><path d="M6.1 0.2 C11.1 5.7 15.3 10.1 18.8 13.2 C26.2 19.7 34 23.4 34.2 23.5 C39.7 27 43.3 27.1 48.3 27.1 C53.3 27.1 61.1 25.3 64.4 23.5 C66 22.6 72.5 19.8 80.3 12 C83.2 9.2 86 4.8 88.8 -1 C90.9 1.7 92.5 5.5 93.6 10.3 C94.4 14.1 94.9 18.5 95.1 23.5 C93.9 35.6 92.9 33.6 89 43 C88.3 44.7 85.5 49.8 83.8 53.1 C83.8 53.3 83.7 53.5 83.6 53.8 C80.2 63.3 76.6 75.4 76 82 C75.8 84.4 77.6 84.2 80.5 87.3 C83.4 90.4 86.7 99 82.8 100.9 C74 102.3 63.9 97.7 61.3 96.3 C59.6 95.4 59.3 78 59.6 61.4 C59.7 51.6 60.3 42 59.6 39.7 C57.5 41.8 51.1 46.2 48.5 46 C45.9 45.8 43.6 42.3 37.8 38.9 C37.4 41.1 38.8 52.2 39 61.3 C39.4 78 39 96.2 37.8 97.4 C36.1 99.4 18.9 101.8 14.7 100.8 C10.5 99.8 12.7 93.7 13.5 92 C15.4 87.8 21 85 20.9 83.5 C20.2 71.5 17.4 63.3 14.9 56.9 C14.8 56.8 14.7 56.6 14.5 56.5 C13.5 54.1 12.6 51.9 11.8 49.9 C6.6 36.4 0.8 32.6 0.3 25.4 C-0.3 19.9 0.1 17.8 0.8 13.5 C1 12.4 1.4 11 2.1 9.3 C3 6.9 4.3 3.8 6.1 0.2 z M8.6 4.8 C6.9 8.1 6.3 10.2 5.5 12.4 C4.9 14 4.5 15.3 4.3 16.4 C3.7 20.4 3.3 22.3 3.8 27.4 C4.3 34 9.6 37.5 14.5 50.1 C15.2 52 16.1 54 17 56.2 C17.1 56.3 17.2 56.4 17.3 56.6 C19.7 62.6 22.2 73.6 22.8 84.7 C22.9 86.1 17.6 87 15.9 90.9 C15.2 92.5 13.2 96.4 17.1 97.3 C21 98.2 34.2 96.4 35.8 94.5 C36.9 93.4 37.5 74.5 37.2 58.9 C37 50.5 34 37.5 34.4 35.5 C39.8 38.6 46.5 44.9 48.8 45 C51.1 45.1 60.4 37 62.3 35.1 C62.9 37.2 61.2 52.7 61.1 61.8 C60.8 77.1 61 93.5 62.6 94.3 C65 95.6 72 98.6 80.1 97.3 C83.7 95.4 79.9 90.2 77.2 87.4 C74.5 84.6 74.1 84.9 74.3 82.6 C74.9 76.5 77.7 62.4 80.8 53.6 C80.9 53.4 80.9 53.2 81 53 C82.5 49.9 85.2 45.2 85.8 43.6 C89.4 34.9 90.3 36.7 91.4 25.6 C91.2 20.9 90.8 16.8 90 13.3 C89 8.9 89.4 6.5 87.5 4 C84.9 9.5 80.4 13.4 77.8 16 C70.5 23.2 64.6 24.7 63.1 25.5 C60 27.2 52.9 30.9 48.3 30.9 C43.7 30.9 40.2 28.7 35.2 25.5 C35 25.4 27.3 22 20.5 16 C17.2 13.1 13.2 9.8 8.6 4.8 z" opacity="0.15" id="a1" /></g></g><g transform="translate(169.6, 173.6) scale(0.9050846) translate(-169.6, -173.6)" id="b1"><g transform="translate(96.49999, 67.49998) translate(23, 22)" id="c1"><g id="d1"><path d="M8.2 28.4 C11 21.7 15.7 17.3 19.3 12.7 C22.9 8.1 31.7 5.6 37.3 4.5 C41.1 3.8 45.5 4.2 50.5 5.5 C52.6 4.5 55.6 4.2 59.5 4.5 C66.7 4.5 74.5 9 78.8 11.8 C83 14.6 91 25 93 28.4 C95 31.8 96.7 39.1 97.3 42.7 C97.9 46.3 97.3 55.3 94.7 60.3 C92.1 65.3 82.5 78 79.9 80.3 C76.4 83.4 71.5 86.4 67.9 88.5 C62.3 91.8 46 95 35.4 89.9 C31.5 88 25.1 85.8 20.9 82.2 C13.5 75.9 8.9 67.7 7 65.7 C4 62.7 1.8 55.5 2.5 50.3 C3.2 45.1 5.4 35.1 8.2 28.4 z" id="e1" fill="#F0B756" /><path d="M88.9 69.3 C87.1 71.9 85.2 74.6 83.6 76.7 C82.3 78.2 81.1 79.5 80.2 80.5 C79.9 80.8 79.6 81.2 79.2 81.6 C75.8 84.3 71.3 86.7 68.2 88.6 C62.6 91.8 46 95 35.4 89.9 C31.8 88.2 26.1 86.1 21.9 83 C21 82.2 20 81.4 19 80.5 C18.5 80 18 79.5 17.5 79 L14.9 76.1 C13 73.9 11.4 71.7 10.1 69.9 C9.3 68 8.6 65.7 8.1 63.2 C7.1 58 7.9 53.8 10.3 49.9 C11.7 47.6 14.6 45.6 18.9 43.8 C18.6 47.5 18.6 49.9 18.8 50.8 C20.2 56.9 23.9 61.2 30.3 59.2 C32.2 58.6 34.7 51 48.6 51 C62.5 51 62.5 57.9 68.7 59.7 C74.9 61.5 78.8 56.3 80.6 51.3 C82.4 46.3 80.5 43.1 80.1 42.6 C79.7 42.1 86.2 44 89.2 49 C92.2 54 92.5 57.7 90.4 64.5 C89.9 66.5 89.3 68.1 88.9 69.3 z" id="f1" fill="#FCF6CA" /><path d="M8.2 28.4 C11 21.7 15.7 17.3 19.3 12.7 C22.9 8.1 31.7 5.6 37.3 4.5 C41.1 3.8 45.5 4.2 50.5 5.5 C52.6 4.5 55.6 4.2 59.5 4.5 C66.7 4.5 74.5 9 78.8 11.8 C83 14.6 91 25 93 28.4 C95 31.8 96.7 39.1 97.3 42.7 C97.9 46.3 97.3 55.3 94.7 60.3 C92.1 65.3 82.5 78 79.9 80.3 C76.4 83.4 71.5 86.4 67.9 88.5 C62.3 91.8 46 95 35.4 89.9 C31.5 88 25.1 85.8 20.9 82.2 C13.5 75.9 8.9 67.7 7 65.7 C4 62.7 1.8 55.5 2.5 50.3 C3.2 45.1 5.4 35.1 8.2 28.4 z M10.1 28.4 C7.4 34.9 5.3 44.5 4.6 49.5 C3.9 54.5 6 61.4 8.9 64.3 C10.7 66.2 15.2 74.1 22.2 80.1 C26.2 83.6 32.3 85.8 36.1 87.5 C46.3 92.4 61.9 89.3 67.2 86.1 C70.6 84.1 75.3 81.2 78.7 78.2 C81.2 76 90.4 63.7 92.9 58.9 C95.4 54.1 96 45.4 95.4 42 C94.8 38.5 93.2 31.5 91.2 28.3 C89.2 25.1 81.6 15.1 77.6 12.4 C73.6 9.7 66.1 5.4 59.2 5.4 C55.5 5.1 52.6 5.5 50.6 6.4 C45.8 5.1 41.6 4.7 37.9 5.4 C32.5 6.4 24.1 8.8 20.7 13.3 C17.3 17.8 12.8 21.9 10.1 28.4 z" opacity="0.15" id="g1" /><path d="M32.7 10.5 C38.2 13.7 42.7 17.2 45.6 23.9 C48.5 30.6 47.2 33.2 49.4 33.2 C51.6 33.2 51.1 28.5 53.1 23.9 C55.1 19.3 60.7 14.2 66.5 10.5 C67.2 10 63.6 8.3 60.1 8.4 C56.9 8.6 52.2 10.5 50 10.5 C48 10.5 45 8.8 40.7 8.4 C34.9 7.9 29.5 8.7 32.7 10.5 z" id="h1" fill="#C08A3F" /></g></g><g transform="translate(96.49999, 67.49997) translate(21, 2)" id="i1"><g transform="translate(18.02073, 23.28844) scale(-1, 1) rotate(-6, 0, 0) translate(-18.02073, -23.28844) translate(2.520727, 1.788439)" id="j1"><path d="M1.7 25.8 C-1.9 23.8 -2.7 23.7 -1.4 20.5 C-0.1 17.3 2.4 17.8 5 15.3 C7.6 12.8 13.5 8.6 17.4 6.7 C21.3 4.8 23.7 2.5 25.7 4.7 C27.7 6.9 29.1 12.8 28 18.9 C26.9 25 23.5 30.4 23.1 33.3 C22.7 36.2 21.9 40.6 20.2 42.9 C19.7 43.6 18.2 45.3 17.3 45.8 C15.4 46.7 14 44.9 12.6 41.3 C12.3 40.4 10.5 34.3 8.6 32.4 C6.3 29.9 5.4 27.8 1.7 25.8 z" id="k1" fill="#C08A3F" /><path d="M1.7 25.8 C-1.9 23.8 -2.7 23.7 -1.4 20.5 C-0.1 17.3 2.4 17.8 5 15.3 C7.6 12.8 13.5 8.6 17.4 6.7 C21.3 4.8 23.7 2.5 25.7 4.7 C27.7 6.9 29.1 12.8 28 18.9 C26.9 25 23.5 30.4 23.1 33.3 C22.7 36.2 21.9 40.6 20.2 42.9 C19.7 43.6 18.2 45.3 17.3 45.8 C15.4 46.7 14 44.9 12.6 41.3 C12.3 40.4 10.5 34.3 8.6 32.4 C6.3 29.9 5.4 27.8 1.7 25.8 z M3.9 24.6 C7.2 26.4 8 28.3 10 30.5 C11.7 32.2 13.3 37.7 13.6 38.5 C14.8 41.7 16.1 43.4 17.8 42.5 C18.6 42.1 19.9 40.5 20.4 39.9 C21.9 37.8 22.6 33.9 23 31.3 C23.4 28.7 26.4 23.8 27.4 18.3 C28.4 12.8 27.1 7.5 25.4 5.5 C23.6 3.5 21.5 5.6 18 7.3 C14.5 9 9.3 12.8 6.9 15 C4.5 17.2 2.4 16.8 1.2 19.7 C0 22.6 0.7 22.8 3.9 24.6 z" opacity="0.15" id="l1" /><path d="M5.7 24.6 C3.7 23.6 2.3 23 3.3 20.4 C3.9 18.9 7.5 16.8 10.9 14.2 C13.3 12.3 16.2 10.3 18 9.3 C20.6 7.8 21.8 6.3 23.5 7.6 C25.1 8.9 26.5 14.5 25.7 19.2 C24.9 24 20 35.8 18.7 37.6 C17.4 39.4 16.1 42.4 14.5 38.2 C12.9 34 12.6 31.4 10.9 29.6 C9.2 27.8 7.7 25.6 5.7 24.6 z" id="m1" fill="#FCF6CA" /><path d="M8.2 26.4 C8.3 25.4 9.1 23.7 9.3 23.3 C9.6 22.7 12.3 21.1 14.6 19.7 C15.6 19 18.6 17.4 18.6 17.4 C20.2 16.5 20.1 19.9 18.6 22.6 C17.7 24.2 15.1 29.9 13.3 31.6 C12.7 32.2 12.2 31.1 11 29.5 C9.9 28.1 8.1 26.8 8.2 26.4 z" opacity="0.5" id="n1" fill="#C08A3F" /></g></g><g transform="translate(96.49996, 67.49997) translate(100.9, 24.5) scale(-1, 1) translate(-100.9, -24.5) translate(82.40002, 0)" id="o1"><g transform="translate(18.19189, 24.4854) scale(-1, 1) rotate(-7, 0, 0) translate(-18.19189, -24.4854) translate(2.691893, 2.485396)" id="p1"><path d="M5.4 26.9 C1.8 24.9 1 24.8 2.3 21.6 C3.6 18.4 6.1 18.9 8.7 16.4 C11.3 13.9 17.2 9.7 21.1 7.8 C25 5.9 27.4 3.6 29.4 5.8 C31.4 8 32.8 14 31.7 20.1 C30.7 26.2 27.1 31.6 26.8 34.5 C26.4 37.4 25.6 41.8 23.9 44.1 C23.4 44.8 21.9 46.5 21 47 C19.1 47.9 18.5 47.3 17.1 43.7 C16.8 42.8 17 42 16.7 41.2 C15.3 37.5 14.2 35.4 12.3 33.5 C9.9 31.1 9 29 5.4 26.9 z" id="q1" fill="#C08A3F" /><path d="M5.4 26.9 C1.8 24.9 1 24.8 2.3 21.6 C3.6 18.4 6.1 18.9 8.7 16.4 C11.3 13.9 17.2 9.7 21.1 7.8 C25 5.9 27.4 3.6 29.4 5.8 C31.4 8 32.8 14 31.7 20.1 C30.7 26.2 27.1 31.6 26.8 34.5 C26.4 37.4 25.6 41.8 23.9 44.1 C23.4 44.8 21.9 46.5 21 47 C19.1 47.9 18.5 47.3 17.1 43.7 C16.8 42.8 17 42 16.7 41.2 C15.3 37.5 14.2 35.4 12.3 33.5 C9.9 31.1 9 29 5.4 26.9 z M7.1 25.9 C10.4 27.8 11.2 29.8 13.4 32 C15.1 33.8 16.2 35.7 17.4 39.1 C17.7 39.8 17.5 40.6 17.8 41.4 C19.1 44.7 19.6 45.3 21.4 44.4 C22.2 43.9 23.6 42.4 24.1 41.7 C25.7 39.6 26.4 35.5 26.8 32.8 C27.1 30.1 30.4 25.1 31.3 19.5 C32.3 13.9 31 8.3 29.2 6.3 C27.4 4.3 25.2 6.4 21.6 8.1 C18 9.8 12.6 13.7 10.2 16 C7.8 18.3 5.5 17.8 4.3 20.8 C3.1 23.8 3.8 24.1 7.1 25.9 z" opacity="0.15" id="r1" /><path d="M9.4 25.7 C7.4 24.7 6 24.1 7 21.5 C7.6 20 11.2 17.9 14.6 15.3 C17 13.4 19.9 11.4 21.7 10.4 C24.3 8.9 25.5 7.4 27.2 8.7 C28.8 10 30.2 15.6 29.4 20.3 C28.6 25.1 23.7 36.9 22.4 38.7 C21.1 40.5 19.8 43.5 18.2 39.3 C16.6 35.1 16.3 32.5 14.6 30.7 C12.9 29 11.4 26.8 9.4 25.7 z" id="s1" fill="#FCF6CA" /><path d="M11.5 26.9 C11.6 25.9 12.8 24.9 13 24.5 C13.3 23.9 16 22.3 18.3 20.9 C19.3 20.2 22.3 18.6 22.3 18.6 C23.9 17.7 23.8 21.1 22.3 23.8 C21.4 25.4 18.8 31.1 17 32.8 C15.8 33.9 14.9 30.4 14.4 30.5 C13.3 28.9 11.4 27.8 11.5 26.9 z" opacity="0.5" id="t1" fill="#C08A3F" /></g></g><g id="u1"><g transform="translate(97.99999, 78.99998) translate(48, 59)" id="v1"><path d="M20.8 18.1 C16.8 24.1 17.8 22 13.5 24.4 C9.2 26.8 2.1 27.7 0.4 31.4 C-1.3 35.1 -0.8 38.9 -0.2 43.6 C0.4 48.3 4.8 56.1 9 56.4 C9.9 56.5 11.9 55.1 15.8 52.2 C17 51.3 19.5 50.4 23.3 49.4 C26.8 50.3 29.3 51.3 30.7 52.2 C34.2 54.6 36.6 56 39 56 C45.5 56 47.7 47.7 48.1 43.7 C48.5 39.4 49.5 33.8 46.7 30.4 C45 28.2 38.1 26.2 34.8 24.4 C31.5 22.7 28.9 22.4 26.5 17 C24.1 11.6 24.8 12.2 20.8 18.1 z" id="w1" fill="#FFF" /><path d="M20.8 18.1 C24.8 12.1 24 11.6 26.4 17 C28.8 22.4 31.4 22.7 34.7 24.4 C38 26.2 44.9 28.2 46.6 30.4 C49.4 33.9 48.4 39.5 48 43.7 C47.6 47.7 45.4 56 38.9 56 C36.5 56 34.1 54.6 30.6 52.2 C29.2 51.3 26.7 50.3 23.2 49.4 C19.4 50.4 16.9 51.3 15.7 52.2 C11.8 55.1 9.8 56.5 8.9 56.4 C4.7 56.1 0.4 48.2 -0.2 43.5 C-0.8 38.8 -1.3 35 0.4 31.3 C2.1 27.6 9.2 26.7 13.5 24.3 C17.8 21.9 16.9 24.1 20.8 18.1 z M21 18.9 C17.2 24.3 18.2 22.4 14.1 24.6 C10 26.8 3.3 27.6 1.7 30.9 C0.1 34.2 0.6 37.7 1.2 42 C1.8 46.3 5.8 53.4 9.7 53.7 C10.5 53.8 12.4 52.5 16.1 49.9 C17.2 49.1 19.6 48.3 23.2 47.4 C26.5 48.2 28.9 49.1 30.2 49.9 C33.5 52.1 35.8 53.3 38 53.3 C44.1 53.3 46.2 45.8 46.6 42.1 C47 38.2 47.9 33.1 45.3 29.9 C43.7 27.9 37.2 26.1 34.1 24.5 C31 23 28.5 22.7 26.3 17.8 C24.1 12.9 24.7 13.5 21 18.9 z" opacity="0.15" id="x1" /></g><g transform="translate(110.3, 108.7) translate(39, 69) translate(0, -1.399994)" id="y1"><g id="z1" fill="#282421"><path d="M39.8 15.5 C39.5 14.9 38.9 15.2 38.5 15.4 C37.7 15.8 36.8 16.2 35.9 16.4 C33.7 16.8 31.7 15.7 30 14.3 C28.2 12.9 26.7 11.2 25 9.7 C24.3 9.1 23.5 8.5 22.7 8 C22.3 7.8 20.8 7.3 20.6 7 C20.5 6.8 20.8 6.2 20.8 6 C20.9 5.4 21.1 4.8 21.2 4.1 C21.4 3.2 21.9 1.9 21.2 1.1 C20 -0.2 18.4 1.2 18.6 2.6 C18.8 3.6 19.1 4.6 19.3 5.6 C19.4 5.8 19.7 6.5 19.6 6.8 C19.5 7.2 18.4 7.4 18 7.6 C16.2 8.6 14.7 10 13.2 11.4 C10.2 14.3 6.6 17.7 2.2 15.4 C1.7 15.2 1 14.6 0.5 15 C-0.3 15.6 0.6 16.2 1.1 16.5 C2.8 17.6 4.8 18.2 6.8 17.9 C11.1 17.2 14.1 13.4 17.5 11.1 C18.2 10.7 19.2 9.9 20.1 9.9 C21 9.9 22.1 10.8 22.8 11.3 C24.7 12.6 26.4 14.3 28.4 15.6 C30.3 17 32.6 18.1 35 17.9 C35.8 18.1 40.6 16.9 39.8 15.5 z" id="a2" /></g></g><g transform="translate(96.49998, 82.99996) translate(61, 60)" id="b2"><path d="M3.4 29.3 C5.1 31.6 6.8 32.9 11.9 32.9 C17 32.9 20.1 30.4 20.6 27.9 C21.1 25.4 20.5 20.8 16.3 19.7 C12.1 18.6 7.1 18.8 5.4 20.8 C4.7 21.6 3.5 22.7 2.9 24.1 C2.1 26.1 2.5 28 3.4 29.3 z" id="c2" /><path d="M8.2 20.6 C5.8 21.6 4.3 23 6.5 22.4 C7.9 22 9.3 21.7 10.8 21.8 C11.6 21.9 13.3 22 14.7 22.3 C16.1 23.4 18 24 18.6 23.5 C19.2 23 18.6 21.2 16.3 20.5 C14 19.8 10.7 19.6 8.2 20.6 z" id="d2" fill="#FFF" /></g><g transform="translate(-284.6, 60.29997) translate(43, 64)" id="e2"><path d="M402.1 16.9 C403.3 14.6 402.9 13.9 402.9 12.1 C402.9 10.3 402.7 8.4 400.1 7 C396.5 5.3 392.3 5.2 389.8 6.5 C386.4 8.3 383.6 10 384.3 11.5 C385.1 13.2 388 17.1 389.4 17.9 C392.1 19.5 396.1 20.2 398.2 19.7 C399.8 19.3 401.2 18.7 402.1 16.9 z" id="f2" fill="#CAC3C0" /><path d="M401.2 18.1 C402 17.4 401.6 14.8 401.2 13.6 C400.7 12.5 399.2 10.9 397 10.3 C394.1 9.6 393.6 9.7 391.1 10 C389.8 10.1 388.6 9.9 388.2 10.6 C387.6 11.3 387.5 12.5 387.9 13.6 C388.3 14.7 388.4 15.3 389.1 16.1 C389.8 17 390.7 17.7 391.3 18.1 C393.5 19.3 396.8 19.9 398.5 19.5 C399.7 19.2 400.4 18.8 401.2 18.1 z" id="g2" fill="#1F2123" /><path d="M396 16.2 C394.9 16.2 393.9 15.3 393.9 14.2 C393.8 13.1 394 12.5 395 12.7 C395.9 12.8 396.6 12.9 396.9 13.1 C397.8 13.5 397.8 13.2 397.9 14.1 C398 14.5 397.9 14.8 397.8 15 C397.5 15 397 14.7 396.3 14.4 C396.5 15.2 396.6 15.7 396.7 16.1 C396.3 16.3 396.4 16.2 396 16.2 z" id="h2" fill="#FFF" /></g><g transform="translate(-288.4, 60.29997) translate(82, 64)" id="i2"><path d="M384.3 16.9 C383.1 14.6 383.5 13.9 383.5 12.1 C383.5 10.3 383.7 8.4 386.3 7 C389 5.6 392.8 5.6 396.6 6.5 C400.4 7.4 402.8 10 402.1 11.5 C401.3 13.2 398.4 17.1 397 17.9 C394.3 19.5 390.3 20.2 388.2 19.7 C386.6 19.3 385.2 18.7 384.3 16.9 z" id="j2" fill="#CAC3C0" /><path d="M385.2 18.1 C384.4 17.4 384.8 14.8 385.2 13.6 C385.7 12.5 387.2 10.9 389.4 10.3 C392.3 9.6 392.8 9.7 395.3 10 C396.6 10.1 397.8 9.9 398.2 10.6 C398.8 11.3 398.9 12.5 398.5 13.6 C398.1 14.7 398 15.3 397.3 16.1 C396.6 17 395.7 17.7 395.1 18.1 C392.9 19.3 389.6 19.9 387.9 19.5 C386.7 19.2 386 18.8 385.2 18.1 z" id="k2" fill="#1F2123" /><path d="M390.4 16.2 C391.5 16.2 392.5 15.3 392.5 14.2 C392.6 13.1 392.4 12.5 391.4 12.7 C390.5 12.8 389.8 12.9 389.5 13.1 C388.6 13.5 388.6 13.2 388.5 14.1 C388.4 14.5 388.5 14.8 388.6 15 C388.9 15 389.4 14.7 390.1 14.4 C389.9 15.2 389.8 15.7 389.7 16.1 C390.1 16.3 390 16.2 390.4 16.2 z" id="l2" fill="#FFF" /></g></g></g></g></g><defs><g transform="translate(17.09519, 0.800995) translate(-135.2952, -293.601)" id="m2" fill="#000"><path d="M118.2 302.7 C118.4 307.4 132.5 311.2 149.8 311.2 C167.1 311.2 181.2 307.4 181.4 302.7 C181.4 307.5 181.4 310.1 181.4 310.5 C181.4 315.3 167.3 319.1 149.8 319.1 C132.3 319.1 118.2 315.2 118.2 310.5 L118.2 302.7 L118.2 302.7 z" fill-opacity="0.4528" id="n2" fill="#593001" /><path d="M118.7 301.7 C118.9 306.4 133 310.2 150.3 310.2 C167.6 310.2 181.7 306.4 181.9 301.7 C181.9 306.5 181.9 309.1 181.9 309.5 C181.9 314.3 167.8 318.1 150.3 318.1 C132.8 318.1 118.7 314.2 118.7 309.5 L118.7 301.7 L118.7 301.7 z" id="o2" fill="#DA8113" /><linearGradient x1="46.0545" y1="-118.6926" x2="45.4656" y2="-118.6926" gradientUnits="userSpaceOnUse" gradientTransform="matrix(117.135, 0, 0, 28.4634, -5208.417, 3687.795)" id="p2"><stop offset="0%" stop-color="#D9952A" stop-opacity="1" /><stop offset="6.438854%" stop-color="#CA7519" stop-opacity="1" /><stop offset="30.54%" stop-color="#E3AD3A" stop-opacity="1" /><stop offset="51.05%" stop-color="#FFEC91" stop-opacity="1" /><stop offset="68.8%" stop-color="#E9BD44" stop-opacity="1" /><stop offset="86.24%" stop-color="#FFED6C" stop-opacity="1" /><stop offset="93.87%" stop-color="#F2D353" stop-opacity="1" /><stop offset="100%" stop-color="#F2B947" stop-opacity="1" /></linearGradient><path d="M118.2 301.6 C118.4 306.1 132.7 309.7 150.3 309.7 C167.9 309.7 182.2 306.1 182.4 301.6 C182.4 306.2 182.4 308.7 182.4 309 C182.4 313.5 168 317.2 150.3 317.2 C132.6 317.2 118.2 313.5 118.2 309 L118.2 301.6 L118.2 301.6 z" id="q2" style="fill:url(#p2)" /><linearGradient x1="45.4914" y1="-117.9547" x2="45.9407" y2="-117.5895" gradientUnits="userSpaceOnUse" gradientTransform="matrix(115.425, 0, 0, 29.925, -5125.077, 3826.124)" id="r2"><stop offset="0%" stop-color="#F4E072" stop-opacity="1" /><stop offset="100%" stop-color="#DB9427" stop-opacity="1" /></linearGradient><ellipse cx="150.3" cy="301.5" rx="31.6" ry="8.2" id="s2" style="fill:url(#r2)" /><linearGradient x1="45.4656" y1="-126.0065" x2="46.0545" y2="-126.0065" gradientUnits="userSpaceOnUse" gradientTransform="matrix(117.135, 0, 0, 18.6219, -5208.417, 2651.479)" id="t2"><stop offset="0%" stop-color="#D9952A" stop-opacity="1" /><stop offset="6.438854%" stop-color="#CA7519" stop-opacity="1" /><stop offset="30.54%" stop-color="#E3AD3A" stop-opacity="1" /><stop offset="51.05%" stop-color="#FFEC91" stop-opacity="1" /><stop offset="68.8%" stop-color="#E9BD44" stop-opacity="1" /><stop offset="86.24%" stop-color="#FFED6C" stop-opacity="1" /><stop offset="93.87%" stop-color="#F2D353" stop-opacity="1" /><stop offset="100%" stop-color="#F2B947" stop-opacity="1" /></linearGradient><path d="M119.2 299.9 C119 300.2 118.9 300.6 118.9 301 C118.9 305.5 132.9 309.2 150.3 309.2 C167.7 309.2 181.7 305.5 181.7 301 C181.7 300.6 181.6 300.3 181.4 299.9 C182 300.5 182.4 301.2 182.4 301.9 C182.4 306.4 168 310.1 150.3 310.1 C132.6 310.1 118.2 306.4 118.2 301.9 C118.2 301.3 118.6 300.6 119.2 299.9 z" id="u2" style="fill:url(#t2)" /><linearGradient x1="45.196" y1="-121.5895" x2="45.3746" y2="-120.6758" gradientUnits="userSpaceOnUse" gradientTransform="matrix(101.745, 0, 0, 23.94, -4458.332, 3199.41)" id="v2"><stop offset="0%" stop-color="#F8DD61" stop-opacity="1" /><stop offset="100%" stop-color="#EAA330" stop-opacity="1" /></linearGradient><ellipse cx="150.3" cy="300.8" rx="27.8" ry="6.6" id="w2" style="fill:url(#v2)" /><linearGradient x1="45.5694" y1="-134.267" x2="45.0221" y2="-134.267" gradientUnits="userSpaceOnUse" gradientTransform="matrix(101.745, 0, 0, 13.2525, -4458.332, 2077.223)" id="x2"><stop offset="0%" stop-color="#F4CA2F" stop-opacity="1" /><stop offset="51.38%" stop-color="#BF7737" stop-opacity="1" /><stop offset="100%" stop-color="#E4A929" stop-opacity="1" /></linearGradient><path d="M122.6 301.5 C122.5 301.3 122.4 301 122.4 300.8 C122.4 297.2 134.9 294.2 150.2 294.2 C165.5 294.2 178 297.1 178 300.8 C178 301 177.9 301.3 177.8 301.5 C176.3 298.2 164.5 295.6 150.1 295.6 C135.7 295.6 124.1 298.2 122.6 301.5 z" id="y2" style="fill:url(#x2)" /></g></defs><desc>6A67EE7NE4E,MyOo59pqUZ20HU29ZiccTolJzJXBJZ55lGyh4zMfzMh4CvkAHpOHGWR0UrQgeNM64ewJ3WL+ozu+AihuDcHu0EOJZM+gRoD+JgSyKNLBa6c=</desc></svg>