<?xml version="1.0" encoding="utf-8"?><!DOCTYPE svg PUBLIC "-//W3C//DTD SVG 1.1//EN" "http://www.w3.org/Graphics/SVG/1.1/DTD/svg11.dtd"><svg x="0" y="0" width="340px" height="340px" viewBox="0, 0, 340, 340" preserveAspectRatio="xMidYMid" font-size="0" id="a" enable-background="new 0 0 340 340" xmlns="http://www.w3.org/2000/svg" xmlns:xlink="http://www.w3.org/1999/xlink" xmlns:xml="http://www.w3.org/XML/1998/namespace" version="1.1"><g id="b" fill="#000"><g id="c"><g transform="translate(0, 0) translate(0, 224)" id="d"><ellipse cx="168.6" cy="53.1" rx="57.8" ry="12.8" fill-opacity="0.25" id="e" /></g><g id="f"><g transform="translate(103.8, 99.19998) translate(20.5, 139.5) scale(-1, 1) translate(-20.5, -139.5) translate(0, 122)" id="g"><g id="h"><path d="M28.3 1.5 C38.6 0.6 40.4 9.4 40.6 11.6 C39.9 11.2 39.2 10.8 38.5 10.4 C39.3 12.6 39.7 15.1 39.7 17.8 C38.6 16.4 36.7 14.8 34.9 13.9 C35.7 15.2 36.5 16.5 37.4 17 C35.4 17.6 34.6 18.2 31 17.7 C28.6 17.4 27.5 17.8 24.4 18.3 C23.8 18.4 19.5 10.8 21.8 5.7 C23.2 3.5 27.3 1.5 28.3 1.5 z" id="i" fill="#965622" /><path d="M6 15 C9.4 15.8 13.3 15.1 15.9 12.7 C16.5 12.2 17 11.5 17.6 10.9 C19.7 7.6 21.8 4.2 23.8 0.9 C23.8 1.7 23.7 2.5 23.6 3.2 C25 2.2 26.5 1.5 28.3 1.3 C25.8 4 23.8 7.1 22.4 10.5 C22.8 10.5 23.3 10.4 23.8 10.3 C24.8 10 26.6 9.5 27.4 8.4 C27.4 10.5 26.9 11.4 26.2 12.1 C28.3 11.9 30.4 12.2 32.4 13 C29.6 13.4 27.8 16.2 25.4 17.6 C25.5 17.6 28.8 17 30.9 17.9 C31 18.1 31.1 18.4 31.2 18.6 C32.2 21 32.3 23.7 31.5 26.1 C30.7 24.4 29.5 22.8 28.1 21.5 C28.6 25.5 27.5 29.7 25.6 32.8 C25.4 29.1 25.6 25.3 21.5 23.8 C23.2 26.6 21.3 31.3 20.7 34.1 C20.5 31.6 20.2 29.1 19.1 26.8 C16.2 20.4 14.9 21 9.6 21.6 C6.3 21.9 1.1 21 1 18.4 C0.9 15.8 4.2 14.6 6 15 z" id="j" fill="#32363A" /><path d="M30 17.6 C30.3 17.7 30.6 17.8 30.9 17.9 C31 18.1 31.1 18.4 31.2 18.6 C32.2 21 32.3 23.7 31.5 26.1 C30.7 24.4 29.5 22.8 28.1 21.5 C28.6 25.5 27.5 29.7 25.6 32.8 C25.4 29.1 25.6 25.3 21.5 23.8 C23.2 26.6 21.3 31.3 20.7 34.1 C20.5 31.6 20.2 29.1 19.1 26.8 C16.2 20.4 14.9 21 9.6 21.6 C6.3 21.9 1.1 21 1 18.4 C0.9 15.8 4.2 14.6 6 15 C9.4 15.8 13.3 15.1 15.9 12.7 C16.5 12.2 17 11.5 17.6 10.9 C19.7 7.6 21.8 4.2 23.8 0.9 C23.8 1.7 23.7 2.5 23.6 3.2 C25 2.2 26.5 1.5 28.3 1.3 C28.2 1.4 28.2 1.4 28.1 1.5 C28.2 1.5 28.2 1.5 28.3 1.5 C38.6 0.6 40.4 9.4 40.6 11.6 L38.5 10.4 C39.3 12.6 39.7 15.1 39.7 17.8 C38.6 16.4 36.7 14.8 34.9 13.9 C35.7 15.2 36.5 16.5 37.4 17 C35.4 17.6 34.6 18.2 31 17.7 C30.6 17.7 30.3 17.6 30 17.6 z M29.8 16.1 C29.5 16 33.3 16.9 35.1 16.4 C34.3 15.9 34.1 13.3 33.3 12.1 C35 12.9 37.9 14.3 38.9 15.6 C38.9 13.2 38.2 10.6 37.5 8.7 L39.8 10 C39.7 8.1 37 1.6 27.7 2.4 C27.6 2.4 28.5 2 28.4 2 C28.5 1.9 28.5 1.9 28.6 1.8 C27 2 24.4 4.3 23.2 5.2 C23.2 4.6 23.2 3.4 23.2 2.7 C21.3 5.6 20.8 7.4 18.9 10.3 C18.4 10.9 17.9 11.5 17.4 11.9 C15 14.1 11 16.9 7.9 16.2 C6.2 15.8 2.7 15.8 2.8 18.1 C2.9 20.4 8.7 20.1 11.6 19.8 C16.5 19.3 16.6 18.2 19.2 23.9 C20.2 25.9 20.7 26.4 20.8 28.6 C21.4 26.1 21.2 24.2 19.7 21.7 C23.4 23 25.9 24.9 26.1 28.2 C27.8 25.5 26.9 22.7 26.5 19.2 C27.8 20.3 30.3 21.7 31.1 23.2 C31.8 21.1 30 19.5 29.1 17.3 C29 17.2 29.8 16.3 29.8 16.1 z" opacity="0.15" id="k" /></g></g><g transform="translate(123.94, 273.3) scale(0.9583894) translate(-120.5, -273.3) translate(84.3, 85.89996) translate(29, 124)" id="l"><g transform="translate(24, 34) scale(-1, 1) translate(-24, -34)" id="m"><path d="M1 25.2 C1 9.7 33.1 -7.2 43.6 2.4 C52.6 10.7 44.9 29.8 43.6 31.6 C42.7 32.8 39.4 39.1 33.8 50.4 C41.1 53.1 44.6 56.3 44.6 60 C44.6 61.7 44.6 64 42.9 65.3 C41.6 66.3 15.5 67.3 14.1 64.5 C15.9 40.5 1 40.8 1 25.2 z" id="n" fill="#1F2122" /><path d="M1 25.2 C1 9.7 33.1 -7.2 43.6 2.4 C52.6 10.7 44.9 29.8 43.6 31.6 C42.7 32.8 39.4 39.1 33.8 50.4 C41.1 53.1 44.6 56.3 44.6 60 C44.6 61.7 44.6 64 42.9 65.3 C41.6 66.3 15.5 67.3 14.1 64.5 C15.9 40.5 1 40.8 1 25.2 z M2.3 24.6 C2.3 39.3 17.6 39 15.9 61.7 C17.2 64.3 40.8 63.5 41.9 62.5 C43.5 61.3 42.6 60.9 42.6 59.3 C42.6 55.7 38.2 53.9 31.4 51.3 C36.8 40.6 42.5 31.5 43.7 28.5 C45 25.3 51.2 10.8 42.6 2.9 C32.6 -6 2.3 10 2.3 24.6 z" opacity="0.15" id="o" /></g></g><g transform="translate(213.96, 273.3) scale(0.9583894) translate(-217.4, -273.3) translate(96.7, 85.89996) translate(104, 157.5) scale(-1, 1) translate(-104, -157.5) translate(79, 123)" id="p"><g id="q"><path d="M50.1 26.5 C50.1 11 24.7 -9.5 6.1 3.3 C-2.9 11.6 4.8 30.7 6.1 32.5 C7 33.7 10.3 40 15.9 51.3 C8.7 54.1 5.1 57.3 5.1 61 C5.1 62.7 5.1 65 6.8 66.3 C8.1 67.3 32.6 67.7 34 64.9 C37.5 37.2 50.1 42.1 50.1 26.5 z" id="r" fill="#1F2122" /><path d="M50.1 26.5 C50.1 42.1 37.5 37.1 34 64.9 C32.6 67.7 8.1 67.3 6.8 66.3 C5.1 65 5.1 62.7 5.1 61 C5.1 57.2 8.7 54 15.9 51.4 C10.3 40 7 33.8 6.1 32.6 C4.8 30.8 -2.9 11.7 6.1 3.4 C24.7 -9.5 50.1 11 50.1 26.5 z M48.5 25.9 C48.5 11.4 24.4 -8.6 7 3.4 C-1.4 11.3 4.3 25.2 6.1 29.3 C7.9 33.4 13 41.2 18.4 51.9 C11.6 54.4 7.1 57.4 7.1 59.4 C7.1 61 6.6 62 8.1 63.2 C9.3 64.2 30.8 64.6 32.1 62 C35.3 36 48.5 40.5 48.5 25.9 z" opacity="0.15" id="s" /></g></g><g transform="translate(85.90001, 85.79997) translate(35, 41)" id="t"><path d="M14.8 19.9 C11.3 33.7 12.9 36.6 9.3 47.7 C5.7 58.8 1.3 70.5 3.2 87.6 C4.6 100.8 11.8 132.8 17.6 146.9 C19.3 151.1 22.5 152.3 23.4 152.6 C27.2 154.2 66.3 154.3 72.2 152.6 C73.3 152.3 76.3 151.4 77.8 148.1 C84.6 134.1 92.8 97 94.1 87.6 C96.2 75.3 92.7 55.1 88.5 47.9 C82.5 37.5 82.5 23 81.3 20.8 C79.3 16.1 75.6 10.6 66.6 4.4 C63.9 2.5 51.7 0.7 49.1 0.8 C45.4 0.9 37.4 2 34.5 4.5 C28.5 9.6 16.7 12.5 14.8 19.9 z" id="u" fill="#2C2F31" /><path d="M14.8 19.9 C16.7 12.5 28.5 9.6 34.5 4.5 C37.4 2 45.4 0.9 49.1 0.8 C51.7 0.7 63.9 2.5 66.6 4.4 C75.6 10.6 79.3 16.1 81.3 20.8 C82.5 23 82.5 37.5 88.5 47.9 C92.7 55.1 96.2 75.3 94.1 87.6 C92.8 97 84.6 134.1 77.8 148.1 C76.3 151.4 73.3 152.3 72.2 152.6 C66.3 154.3 27.2 154.2 23.4 152.6 C22.5 152.3 19.3 151.1 17.6 146.9 C11.8 132.8 4.6 100.8 3.2 87.6 C1.3 70.5 5.7 58.8 9.3 47.7 C12.9 36.6 11.3 33.7 14.8 19.9 z M16.2 20.2 C12.8 33.5 14.4 36.3 10.9 46.9 C7.4 57.6 3.2 68.8 5 85.2 C6.4 97.8 13.3 128.6 18.9 142.1 C20.5 146.1 23.6 147.3 24.4 147.5 C28.1 149.1 65.6 149.2 71.2 147.5 C72.3 147.3 75.2 146.4 76.6 143.2 C83.1 129.8 91 94.2 92.3 85.2 C94.3 73.4 90.9 54 86.9 47.1 C81.1 37.1 81.1 23.2 80 21.1 C78.1 16.6 74.5 11.3 65.9 5.4 C63.3 3.5 51.6 1.8 49.1 1.9 C45.5 2 37.9 3.1 35.1 5.5 C29.3 10.3 18 13.1 16.2 20.2 z" opacity="0.15" id="v" /></g><g fill-rule="evenOdd" transform="translate(125.7, 165.85) scale(1.1, 1.14355) translate(-129.7, -191.4) translate(104.1, 100.9) translate(65.5, 141.5) scale(-1, 1) translate(-65.5, -141.5) translate(25, 90)" id="w"><path d="M11.6 59.6 C8.7 45.7 0.4 49.4 0.4 27.5 C0.4 14.8 3.7 10 8 0.5 C19 12.8 30.8 15.8 40.4 17.2 C50 15.8 61.9 12.9 72.8 0.5 C77.1 10 80.4 14.8 80.4 27.5 C80.4 49.4 72.1 45.7 69.2 59.6 C68.4 63.3 64.3 74.3 60.3 74.6 C57.1 74.8 53.9 65.5 53.9 61 C53.9 55.5 53.7 50.8 53.3 47.7 C52.5 41.2 48.3 39.3 40.2 35.5 C32.2 39.3 28 41.2 27.1 47.7 C26.7 51 26.5 56.1 26.5 62 C26.5 67.2 22.2 75.8 18.3 74.5 C15.3 73.4 12.3 62.8 11.6 59.6 z" id="x" fill="#46494D" /><path d="M6.7 100.5 C6.9 96.5 7.2 93.2 12.1 90.1 C13.4 82 13 68.4 11.8 61.1 C13.9 65.1 17.4 71.8 19.7 71.3 C21.6 70.9 25.3 64.7 26.8 60.9 C26.8 71 27.2 83.3 27.6 91.4 C30.6 93.8 30.9 99.1 30.6 100.2 C29 103.6 8.7 102.1 6.7 100.5 z" id="y" fill="#B76930" /><path d="M74.3 100.5 C74.1 96.5 73.8 93.2 68.9 90.1 C67.6 82 68 68.4 69.2 61.1 C67.1 65.1 63.6 71.8 61.3 71.3 C59.4 70.9 55.7 64.7 54.2 60.9 C54.2 71 53.8 83.3 53.4 91.4 C50.4 93.8 50.1 99.1 50.4 100.2 C52 103.6 72.3 102.1 74.3 100.5 z" id="z" fill="#B76930" /><path d="M15.2 26.8 C16 25.9 17.5 26.2 18.6 26.5 C21.1 27.2 23.6 27.4 26.2 27.3 C31 26.2 36.7 25.3 40.4 25.3 C44.1 25.3 49.8 26.2 54.6 27.3 C57.2 27.4 59.7 27.2 62.2 26.5 C63.4 26.2 64.9 25.8 65.6 26.8 C66.1 27.4 66.1 28.2 66 29 C65.9 29.8 65.7 30.6 65.4 31.4 C64.9 32.6 64.3 33.8 63.5 34.9 C60.6 41.8 60.6 51.7 56.9 52.4 C52.5 53.2 53.4 46.5 52.6 44.3 C51.3 41 47.3 38.4 40.5 37.6 C33.7 38.4 29.7 41 28.4 44.3 C27.5 46.5 28.5 53.2 24.1 52.4 C20.4 51.7 20.4 41.8 17.5 34.9 C16.7 33.9 16 32.7 15.6 31.4 C15.3 30.6 15.1 29.8 15 29 C14.8 28.3 14.8 27.4 15.2 26.8 z" id="a1" fill="#B76930" /><path d="M53.5 50 C53.1 48.6 53 46.9 52.9 45.6 C52.2 43.4 51.1 41.8 49.3 40.5 C47.2 39.1 44.3 38 40.5 37.6 C33.7 38.4 29.7 41 28.4 44.3 C27.8 45.9 28.1 49.6 26.8 51.5 C26.6 54.3 26.5 57.8 26.5 61.6 C26.6 61.4 26.7 61.1 26.8 60.9 C26.8 71 27.2 83.3 27.6 91.4 C30.6 93.8 30.9 99.1 30.6 100.2 C29 103.6 8.7 102.1 6.7 100.5 C6.9 96.5 7.2 93.2 12.1 90.1 C13.4 82 13 68.4 11.8 61.1 C11.9 61.3 12 61.5 12.1 61.7 C11.9 60.9 11.7 60.1 11.6 59.6 C8.7 45.7 0.4 49.4 0.4 27.5 C0.4 14.8 3.7 10 8 0.5 C19 12.8 30.8 15.8 40.4 17.2 C50 15.8 61.9 12.9 72.8 0.5 C77.1 10 80.4 14.8 80.4 27.5 C80.4 49.4 72.1 45.7 69.2 59.6 C69 60.4 68.7 61.6 68.2 63 C68.6 62.3 68.9 61.7 69.2 61.1 C68 68.4 67.6 82 68.9 90.1 C73.8 93.2 74.1 96.5 74.3 100.5 C72.3 102.1 52 103.6 50.4 100.2 C50.1 99.1 50.4 93.8 53.4 91.4 C53.8 84.1 54.1 73.3 54.2 63.8 C54 62.8 53.9 61.8 53.9 61 C53.9 56.7 53.8 52.9 53.5 50 z M53.8 45.9 C54 46.7 54.1 48.4 54.3 50.9 C54.6 53.7 54.8 56.5 54.8 60.5 C54.8 61.2 55 64.5 55.1 65.5 C55.1 74.4 55.1 84.9 54.8 91.7 C52 94 51.5 96.3 51.8 97.4 C53.3 100.5 70.3 98.9 72.1 97.4 C71.9 93.6 72.6 94 68 91.1 C66.8 83.5 66.2 67.3 67.4 60.5 C67.2 60.7 68 57 70.4 52.3 C72 49.4 75.2 46.7 76.5 42 C77.5 38.3 78.6 33.1 78.2 28.7 C77.3 16.9 75.4 12.6 71.4 3.8 C61.2 15.4 49.4 19.4 40.4 20.7 C31.4 19.4 19.2 15.3 8.9 3.8 C4.8 12.6 3 17.1 3 29 C3 49.5 10.7 46.1 13.4 59.1 C13.5 59.6 13.7 60.3 13.9 61.1 C13.8 60.9 13.7 60.7 13.6 60.5 C14.8 67.3 14.8 83 13.6 90.6 C9 93.5 9 93.6 8.9 97.4 C10.7 98.9 27.6 101.6 29.1 98.4 C29.3 97.4 29.3 94 26.5 91.7 C26.2 84.2 25.8 61.6 25.7 61.8 C25.7 58.2 26.1 53.3 26.5 50.9 C27 48.6 26.7 44.9 27.3 43.4 C28.6 40.3 34 37.2 40.4 36.4 C44 36.9 48.7 38.9 50.7 40.2 C52.3 41.5 53.2 43.9 53.8 45.9 z" opacity="0.15" id="b1" /></g></g><g transform="translate(169.6, 177.3) scale(0.9699159) translate(-169.6, -177.3)" id="c1"><g transform="translate(111, 63.59997) translate(3, 0)" id="d1"><g id="e1"><path d="M11.9 56.5 C7.4 51.8 1.1 33.7 0.8 24.4 C0.5 15.1 3.9 2.8 7.6 0.9 C12.2 -0.6 20.2 6.9 27.1 16.4 C34 25.8 37.5 28.4 38.8 30.9 C40.1 33.4 40 35.2 37.1 39 C36.1 40.3 34.3 41.7 32.1 44.5 C30.6 46.4 27.9 52.2 24.6 55.7 C20.7 59.9 14.7 59.5 11.9 56.5 z" id="f1" fill="#2C2F31" /><path d="M11.9 56.5 C7.4 51.8 1.1 33.7 0.8 24.4 C0.5 15.1 3.9 2.8 7.6 0.9 C12.2 -0.6 20.2 6.9 27.1 16.4 C34 25.8 37.5 28.4 38.8 30.9 C40.1 33.4 40 35.2 37.1 39 C36.1 40.3 34.3 41.7 32.1 44.5 C30.6 46.4 27.9 52.2 24.6 55.7 C20.7 59.9 14.7 59.5 11.9 56.5 z M12.5 52.6 C15.1 55.3 20.6 55.7 24.3 51.9 C27.4 48.7 29.9 43.4 31.2 41.7 C33.2 39.2 34.9 37.9 35.8 36.7 C38.5 33.2 37 32 35.8 29.7 C34.6 27.4 31.7 25 25.3 16.5 C18.9 7.8 12.8 0.7 8.5 2 C5.1 3.8 2 14.9 2.2 23.4 C2.4 31.9 8.3 48.3 12.5 52.6 z" opacity="0.15" id="g1" /><path d="M12 44.1 C9.7 39.8 6.2 33.1 5.6 28.8 C5 24.6 5.3 20.2 5.6 17.4 C5.9 14.5 6.9 8.2 9.3 5.6 C12.4 2.8 18.2 14 22.4 19.8 C25.2 23.7 28.3 27.9 31.5 32.4 C32 36.4 31.4 39.3 29.7 40.9 C27.1 43.3 25.6 49.3 22.4 50.6 C19.3 52 14.4 48.4 12 44.1 z" id="h1" fill="#FFB8B3" /><path d="M24 35.1 C21.5 34.1 16.2 28.2 16.2 32.3 C16.2 34 16.2 37 18.5 41.9 C19.4 43.8 21.2 46.4 24 49.7 C25.2 48.4 26 47.1 26.5 45.9 C26.8 45.2 27.4 43.9 28.6 42.2 C29.1 41.5 30.1 40.9 30.7 39.8 C31 39.2 31.4 38 31.7 36.2 C28.2 36.2 25.7 35.8 24 35.1 z" fill-opacity="0.1459" id="i1" fill="#010101" /></g></g><g transform="translate(105.2, 62.59997) translate(96, 28.5) scale(-1, 1) translate(-96, -28.5) translate(76, 0)" id="j1"><g id="k1"><path d="M10.8 53.5 C6.6 48.1 1.1 33.7 0.8 24.4 C0.5 15.1 3.9 2.8 7.6 0.9 C12.2 -0.6 20.2 6.9 27.1 16.4 C34 25.8 37.5 28.4 38.8 30.9 C40.1 33.4 40 35.2 37.1 39 C36.1 40.3 34.3 41.7 32.1 44.5 C30.6 46.4 28.1 49.2 26.8 51 C22.7 56.9 14.7 58.6 10.8 53.5 z" id="l1" fill="#2C2F31" /><path d="M10.8 53.5 C6.6 48.1 1.1 33.7 0.8 24.4 C0.5 15.1 3.9 2.8 7.6 0.9 C12.2 -0.6 20.2 6.9 27.1 16.4 C34 25.8 37.5 28.4 38.8 30.9 C40.1 33.4 40 35.2 37.1 39 C36.1 40.3 34.3 41.7 32.1 44.5 C30.6 46.4 28.1 49.2 26.8 51 C22.7 56.9 14.7 58.6 10.8 53.5 z M11.1 50.6 C14.6 55.3 21.8 53.7 25.5 48.3 C26.7 46.6 28.9 44 30.3 42.3 C32.3 39.7 33.9 38.4 34.8 37.2 C37.4 33.7 37.5 32 36.3 29.7 C35.1 27.4 32 25 25.8 16.3 C19.6 7.5 12.4 0.6 8.3 2 C5 3.7 1.9 15.1 2.2 23.7 C2.5 32.3 7.4 45.6 11.1 50.6 z" opacity="0.15" id="m1" /><path d="M12 44.1 C9.7 39.8 6.2 33.1 5.6 28.8 C5 24.6 5.3 20.2 5.6 17.4 C5.9 14.5 6.9 8.2 9.3 5.6 C12.4 2.8 18.2 14 22.4 19.8 C25.2 23.7 28.3 27.9 31.5 32.4 C32 36.4 31.4 39.3 29.7 40.9 C27.1 43.3 25.6 49.3 22.4 50.6 C19.3 52 14.4 48.4 12 44.1 z" id="n1" fill="#FFB8B3" /><path d="M24 35.1 C21.5 34.1 16.2 28.2 16.2 32.3 C16.2 34 16.2 37 18.5 41.9 C19.4 43.8 21.2 46.4 24 49.7 C25.2 48.4 26 47.1 26.5 45.9 C26.8 45.2 27.4 43.9 28.6 42.2 C29.1 41.5 30.1 40.9 30.7 39.8 C31 39.2 31.4 38 31.7 36.2 C28.2 36.2 25.7 35.8 24 35.1 z" fill-opacity="0.1459" id="o1" fill="#010101" /></g></g><g transform="translate(-286.1, 53.09998) translate(18, 27)" id="p1"><g id="q1"><path d="M395.9 33 C395.5 43 395.1 49.9 394.5 53.9 C392.6 68.8 389.8 77.4 388.2 79.4 C386 82.2 384.5 84.4 383.6 85.8 L390.6 84.8 L388.2 91.5 L393 88 C405.9 96.6 414.5 102 419 104.2 C424.2 106.7 430 107.6 432.1 107.8 C436.9 108.3 440.6 108.3 443.1 107.8 C454.1 104.1 461.6 101.1 465.8 99 C470 96.8 474.9 92.8 480.4 87 L486.6 88 L485.3 83.4 C484 80.4 483.4 78.7 483.6 78.2 C483.7 77.7 486.1 77.7 490.8 78.2 L483.6 67.4 C481.3 59.8 480 54.4 479.7 51.2 C479.4 48 479.2 42.6 478.9 35 C478.1 31.4 476.5 29 474.3 27.9 C472 26.7 470.5 28.1 469.8 31.9 L474.3 80.3 L449.4 98.8 L431.4 98.8 C415.7 92.4 407.4 89.2 406.5 89.2 C405.6 89.2 403.5 85.1 400 76.9 L405 27.8 C402.5 26.5 400.8 26.2 399.7 26.8 C398.6 27.6 397.3 29.6 395.9 33 z" id="r1" fill="#965622" /><path d="M425.8 7.7 L398.5 28.5 C399.7 37.8 399.7 47 398.5 56.1 C397.3 65.3 395.9 72.4 394.3 77.4 L392.5 80.6 L397.1 78.7 L394.4 82.3 L398.6 82.3 C407.9 91.9 413.9 97.4 416.6 98.8 C420.6 100.9 425.4 104.7 431.2 106 C437 107.3 444.5 107.4 457.8 98.8 C466.7 93.1 473.3 86.6 477.5 79.4 L481.9 82.3 L479.2 72.9 L483.8 75.9 L479.2 68.3 C478 60.9 477.4 55.9 477.2 53.3 C476.6 42.9 476.2 38.6 476.2 36.4 C476.2 33.5 467.9 23.9 451.2 7.9 L425.8 7.9 L425.8 7.7 z" id="s1" fill="#46494D" /><path d="M477 36.3 C477 30.4 478.2 31.3 473.5 26.1 C466.5 18.5 452.3 8.8 451.1 7.7 C449 5.8 427.2 6.4 425.6 7.1 C423.9 7.9 398.9 25.7 397.9 28.7 C396.9 31.7 399.5 43.2 398.9 50.5 C400.9 50.9 403 51.1 404.9 49.8 C406.8 48.5 409 44.9 411 45.8 C413.9 47.1 413.8 66.8 422.1 68.1 C425.2 68.6 432.7 56.3 437.5 56.2 C441 56 448.4 68.7 451 68 C461 65.2 465.3 45.6 468.4 48.3 C471.9 51.3 473.4 52 476.5 48.3 C477 47.8 477 42.1 477 36.3 z" id="t1" fill="#965622" /><path d="M405.7 49.1 C405.8 50.4 416.2 71.4 418.3 80.1 C420.4 88.8 420 101.4 436.2 100.8 C452.4 100.2 453 99.1 456.8 80.1 C460.6 61.1 468.6 50.2 468.5 48.7 C468.4 47.2 467 46.4 463.2 42.7 C459.5 39.1 456.4 31.4 450.2 31.3 C445.7 31 436.5 40.9 447.9 54.4 C448.6 55.1 454 65.1 452.2 65.9 C450.4 65.9 448.9 63.2 446.5 60.8 C445.3 59.6 442.6 58.1 441.6 56.7 C438.4 52.1 439.4 26.8 438 26.8 C436.5 26.7 435.1 52.6 433.7 56.7 C433 58.9 431.1 59.2 429.4 60.8 C426.8 63.2 424.2 66.2 423 65.9 C421.5 65.7 423.9 57.6 426.6 55.7 C434.5 48.9 431.5 31.4 426.6 31.4 C421 29.9 417.4 36.5 414.1 40.2 C410.7 43.9 405.5 47.8 405.7 49.1 z" id="u1" fill="#46494D" /><path d="M397.6 29.4 C397.6 29.1 397.7 28.9 397.8 28.7 C398.8 25.7 423.8 7.9 425.5 7.1 C427.2 6.4 449 5.8 451 7.7 C452.2 8.8 466.4 18.5 473.4 26.1 C475.2 28.1 476.1 29.2 476.6 30.1 C477.6 31.4 478.3 33.1 478.8 35.2 C479.1 42.8 479.3 48.2 479.6 51.4 C479.9 54.6 481.2 60 483.5 67.6 L490.7 78.4 C486 77.9 483.6 77.9 483.5 78.4 C483.3 78.9 483.9 80.6 485.2 83.6 L486.5 88.2 L480.3 87.2 C474.8 93 469.9 97 465.7 99.2 C461.5 101.3 454 104.3 443 108 C440.5 108.5 436.8 108.5 432 108 C429.9 107.8 424.1 106.9 418.9 104.4 C414.3 102.2 405.7 96.8 392.9 88.2 L388.1 91.5 L390.5 84.8 L383.5 85.8 C384.4 84.4 385.9 82.2 388.1 79.4 C389.7 77.4 392.5 68.8 394.4 53.9 C395 49.9 395.4 43 395.8 33 C396.5 31.5 397.1 30.3 397.6 29.4 z M399.8 28.6 C399.7 28.8 399.7 29 399.7 29.3 C399.2 30.2 398.6 31.3 398 32.7 C397.6 42.2 397.2 48.7 396.7 52.5 C394.9 66.6 393.5 74.7 392 76.6 C389.9 79.3 387.7 82.4 386.9 83.7 L393 81.8 L390.7 88.2 L396.1 86.4 C408.3 94.6 415.7 98.4 420.1 100.4 C425 102.8 430.5 103.6 432.5 103.8 C437.1 104.3 440.6 104.3 442.9 103.8 C453.3 100.3 460.5 97.4 464.4 95.4 C468.4 93.3 473 89.5 478.3 84 L484.2 84.9 L483 80.5 C481.8 77.7 481.1 77 481.3 76.6 C481.4 76.1 482.5 75.5 486.9 76 L481.3 65.3 C479.1 58.1 477.9 53 477.6 49.9 C477.3 46.9 477.1 41.7 476.8 34.5 C476.4 32.5 475.6 30.9 474.7 29.7 C474.3 28.8 473.4 27.8 471.7 25.9 C465.1 18.9 451.6 9.7 450.5 8.6 C448.5 6.8 427.8 7.4 426.2 8 C424.6 8.8 400.8 25.7 399.8 28.6 z" opacity="0.15" id="v1" /></g></g><g id="w1"><g transform="translate(98.00001, 66.59997) translate(48, 59)" id="x1"><path d="M20.8 18.1 C16.8 24.1 17.8 22 13.5 24.4 C9.2 26.8 2.1 27.7 0.4 31.4 C-1.3 35.1 -0.8 38.9 -0.2 43.6 C0.4 48.3 4.8 56.1 9 56.4 C9.9 56.5 11.9 55.1 15.8 52.2 C17 51.3 19.5 50.4 23.3 49.4 C26.8 50.3 29.3 51.3 30.7 52.2 C34.2 54.6 36.6 56 39 56 C45.5 56 47.7 47.7 48.1 43.7 C48.5 39.4 49.5 33.8 46.7 30.4 C45 28.2 38.1 26.2 34.8 24.4 C31.5 22.7 28.9 22.4 26.5 17 C24.1 11.6 24.8 12.2 20.8 18.1 z" id="y1" fill="#B76930" /><path d="M20.8 18.1 C24.8 12.1 24 11.6 26.4 17 C28.8 22.4 31.4 22.7 34.7 24.4 C38 26.2 44.9 28.2 46.6 30.4 C49.4 33.9 48.4 39.5 48 43.7 C47.6 47.7 45.4 56 38.9 56 C36.5 56 34.1 54.6 30.6 52.2 C29.2 51.3 26.7 50.3 23.2 49.4 C19.4 50.4 16.9 51.3 15.7 52.2 C11.8 55.1 9.8 56.5 8.9 56.4 C4.7 56.1 0.4 48.2 -0.2 43.5 C-0.8 38.8 -1.3 35 0.4 31.3 C2.1 27.6 9.2 26.7 13.5 24.3 C17.8 21.9 16.9 24.1 20.8 18.1 z M21 18.9 C17.2 24.3 18.2 22.4 14.1 24.6 C10 26.8 3.3 27.6 1.7 30.9 C0.1 34.2 0.6 37.7 1.2 42 C1.8 46.3 5.8 53.4 9.7 53.7 C10.5 53.8 12.4 52.5 16.1 49.9 C17.2 49.1 19.6 48.3 23.2 47.4 C26.5 48.2 28.9 49.1 30.2 49.9 C33.5 52.1 35.8 53.3 38 53.3 C44.1 53.3 46.2 45.8 46.6 42.1 C47 38.2 47.9 33.1 45.3 29.9 C43.7 27.9 37.2 26.1 34.1 24.5 C31 23 28.5 22.7 26.3 17.8 C24.1 12.9 24.7 13.5 21 18.9 z" opacity="0.15" id="z1" /></g><g transform="translate(108.9, 75.79996) translate(39, 80)" id="a2"><path d="M0.8 2.5 C0.9 3.5 1.7 5.7 2.3 7 C3.9 10.9 6.6 13.2 7.4 13.8 C11 16.7 14.3 16.6 21.5 16.6 C30.5 16.7 31.2 15.6 35.8 13.1 C41.7 9.9 42.9 1.6 42.9 0.8 C42.8 0 41.9 0 41.8 0.5 C41.6 1.1 41.7 2.5 41.5 3.1 C41.1 5 40.6 6 39.9 6.7 C38.1 8.6 35 10.2 32.4 10.3 C28.3 10.4 25.9 7.6 23.6 4.2 C23.3 3.7 22.6 3.4 21.4 3.1 C20.3 3.4 19.6 3.8 19.2 4.2 C16 7.9 13.7 10.6 11 10.6 C8.1 10.6 5.1 9 3.8 6.5 C3.2 5.2 2.5 3.9 1.9 1.6 C1.9 1.1 0.7 1.4 0.8 2.5 z" fill-opacity="0.1" id="b2" fill="#010101" /><g transform="translate(5, 7)" id="c2"><path d="M0.6 5.8 C5.2 7.6 9 7.6 11.9 5.8 C13.9 4.6 15.2 3.4 15.7 2.2 C15.9 1.8 16.1 1.5 16.3 1.2 C16.8 2.5 18.2 4 20.5 5.8 C22.8 7.6 26.5 7.6 31.6 5.8 C26.6 12.8 21.3 16.3 15.8 16.3 C10.3 16.3 5.3 12.8 0.6 5.8 z" id="d2" fill="#424242" /><path d="M8.8 13.5 L8.8 6.9 C10.6 6.3 11.7 5.9 12.2 5.6 C13.3 4.9 14.7 3.2 16.2 0.6 C18 3.2 19.7 4.9 21 5.8 C21.5 6.1 22.4 6.5 23.9 7 L23.9 13.5 C27.1 22.1 24.6 26.2 16.4 26 C8.4 25.7 5.8 21.6 8.8 13.5 z" id="e2" fill="#FFB8B3" /></g></g><g transform="translate(110.6, 94.59997) translate(48, 55)" id="f2"><g id="g2"><path d="M20.4 3.1 C18.3 0 13.2 0.9 11 0.8 C8.8 0.9 3.7 0 1.6 3.1 C-0.3 5.9 1.2 11.4 3.7 12.1 C5.6 12.6 6.2 15.5 11 15.4 C15.9 15.5 16.5 12.6 18.3 12.1 C20.8 11.5 22.3 5.9 20.4 3.1 z" id="h2" fill="#282421" /><path d="M15.2 4.6 C14.1 4.3 12.9 4.7 12.1 5.5 L11 6.7 L10 5.5 C9.2 4.6 8 4.2 6.9 4.5 C6 4.8 4.7 5.8 4.9 6.9 C5.8 6.2 6.9 5.7 8 6.1 C9 6.4 9.7 7.4 9.9 8.4 L9.9 9.6 L11 9.6 L12.2 9.6 L12.2 8.4 C12.4 7.4 13.1 6.4 14.1 6.1 C15.2 5.7 16.4 6.2 17.2 6.9 C17.4 6 16.1 4.9 15.2 4.6 z" id="i2" fill="#FEFEFE" /></g></g><g transform="translate(89, 93.39996) translate(55, 18)" id="j2"><g id="k2"><path d="M1.8 10.9 C4.2 6.6 6.4 6 7.9 4.5 C10.3 2 13.9 0.3 14.6 0.8 C15.3 1.3 20.6 9.2 21.3 10.1 C22.5 11.8 22.5 14.4 21.3 17.7 C21 18.5 19.9 19.4 17.9 20.4 C15.3 21.1 12.7 21.4 10 21.3 C8.7 21.2 5.6 20.7 4.5 21 C2.1 21.6 2.1 23.1 1.5 21.9 C0.5 20.2 -0.8 15.7 1.8 10.9 z" id="l2" fill="#2C2F31" /><path d="M17.4 18.2 C18.6 16.3 17.8 14 17.1 12.5 C16.3 10.7 14.6 9.9 13.7 9.5 C11.2 8.4 9.2 8.8 7.3 10.4 C5.4 12 3.8 15 3.8 16.6 C3.8 18.2 7.9 19.8 11 19.8 C14.2 19.6 16.3 20.1 17.4 18.2 z" id="m2" /><path d="M13.1 12.7 C13.1 11.5 12.1 10.5 10.9 10.5 C9.8 10.5 8.8 11.5 8.8 12.8 C8.8 14.1 9.8 15 11 15 C11 14.9 11 14.9 11 14.8 C10.8 14.3 10.9 13.8 11.4 13.2 C12 12.7 12.5 12.6 13.1 12.7 z" id="n2" fill="#FFFFFE" /></g></g><g transform="translate(83.8, 93.39996) translate(89, 18)" id="o2"><path d="M20.5 10.9 C18.1 6.5 15.9 6 14.4 4.5 C12 2 8.4 0.3 7.7 0.8 C7 1.3 2.4 8.2 1.3 10 C-0.2 12.3 0.7 16.7 3 19.2 C5.3 21.7 8.2 21.5 12.3 21.2 C13.6 21.1 16.7 20.6 17.8 20.9 C20.2 21.5 20.2 23 20.8 21.8 C21.7 20.2 23 15.7 20.5 10.9 z" id="p2" fill="#2C2F31" /><g transform="translate(5, 9)" id="q2"><path d="M1.1 8.8 C0 6.9 0.9 4.7 1.6 3.3 C2.4 1.7 4.2 0.9 5.1 0.6 C7.6 -0.3 9.6 0.2 11.4 1.8 C13.2 3.4 14.7 6.4 14.5 7.9 C14.3 9.4 10.3 10.7 7.3 10.6 C4.2 10.3 2.2 10.6 1.1 8.8 z" id="r2" /><path d="M8.7 4 C8.7 2.8 7.7 1.9 6.5 1.9 C5.4 1.9 4.4 2.9 4.4 4.1 C4.4 5.3 5.4 6.3 6.6 6.3 C6.6 6.2 6.6 6.2 6.6 6.1 C6.4 5.6 6.5 5.1 7 4.6 C7.6 4 8.1 3.9 8.7 4 z" id="s2" fill="#FFFFFE" /></g></g></g></g></g></g><defs><g transform="translate(17.09519, 0.800995) translate(-135.2952, -293.601)" id="t2" fill="#000"><path d="M118.2 302.7 C118.4 307.4 132.5 311.2 149.8 311.2 C167.1 311.2 181.2 307.4 181.4 302.7 C181.4 307.5 181.4 310.1 181.4 310.5 C181.4 315.3 167.3 319.1 149.8 319.1 C132.3 319.1 118.2 315.2 118.2 310.5 L118.2 302.7 L118.2 302.7 z" fill-opacity="0.4528" id="u2" fill="#593001" /><path d="M118.7 301.7 C118.9 306.4 133 310.2 150.3 310.2 C167.6 310.2 181.7 306.4 181.9 301.7 C181.9 306.5 181.9 309.1 181.9 309.5 C181.9 314.3 167.8 318.1 150.3 318.1 C132.8 318.1 118.7 314.2 118.7 309.5 L118.7 301.7 L118.7 301.7 z" id="v2" fill="#DA8113" /><linearGradient x1="46.0545" y1="-118.6926" x2="45.4656" y2="-118.6926" gradientUnits="userSpaceOnUse" gradientTransform="matrix(117.135, 0, 0, 28.4634, -5208.417, 3687.795)" id="w2"><stop offset="0%" stop-color="#D9952A" stop-opacity="1" /><stop offset="6.438854%" stop-color="#CA7519" stop-opacity="1" /><stop offset="30.54%" stop-color="#E3AD3A" stop-opacity="1" /><stop offset="51.05%" stop-color="#FFEC91" stop-opacity="1" /><stop offset="68.8%" stop-color="#E9BD44" stop-opacity="1" /><stop offset="86.24%" stop-color="#FFED6C" stop-opacity="1" /><stop offset="93.87%" stop-color="#F2D353" stop-opacity="1" /><stop offset="100%" stop-color="#F2B947" stop-opacity="1" /></linearGradient><path d="M118.2 301.6 C118.4 306.1 132.7 309.7 150.3 309.7 C167.9 309.7 182.2 306.1 182.4 301.6 C182.4 306.2 182.4 308.7 182.4 309 C182.4 313.5 168 317.2 150.3 317.2 C132.6 317.2 118.2 313.5 118.2 309 L118.2 301.6 L118.2 301.6 z" id="x2" style="fill:url(#w2)" /><linearGradient x1="45.4914" y1="-117.9547" x2="45.9407" y2="-117.5895" gradientUnits="userSpaceOnUse" gradientTransform="matrix(115.425, 0, 0, 29.925, -5125.077, 3826.124)" id="y2"><stop offset="0%" stop-color="#F4E072" stop-opacity="1" /><stop offset="100%" stop-color="#DB9427" stop-opacity="1" /></linearGradient><ellipse cx="150.3" cy="301.5" rx="31.6" ry="8.2" id="z2" style="fill:url(#y2)" /><linearGradient x1="45.4656" y1="-126.0065" x2="46.0545" y2="-126.0065" gradientUnits="userSpaceOnUse" gradientTransform="matrix(117.135, 0, 0, 18.6219, -5208.417, 2651.479)" id="a3"><stop offset="0%" stop-color="#D9952A" stop-opacity="1" /><stop offset="6.438854%" stop-color="#CA7519" stop-opacity="1" /><stop offset="30.54%" stop-color="#E3AD3A" stop-opacity="1" /><stop offset="51.05%" stop-color="#FFEC91" stop-opacity="1" /><stop offset="68.8%" stop-color="#E9BD44" stop-opacity="1" /><stop offset="86.24%" stop-color="#FFED6C" stop-opacity="1" /><stop offset="93.87%" stop-color="#F2D353" stop-opacity="1" /><stop offset="100%" stop-color="#F2B947" stop-opacity="1" /></linearGradient><path d="M119.2 299.9 C119 300.2 118.9 300.6 118.9 301 C118.9 305.5 132.9 309.2 150.3 309.2 C167.7 309.2 181.7 305.5 181.7 301 C181.7 300.6 181.6 300.3 181.4 299.9 C182 300.5 182.4 301.2 182.4 301.9 C182.4 306.4 168 310.1 150.3 310.1 C132.6 310.1 118.2 306.4 118.2 301.9 C118.2 301.3 118.6 300.6 119.2 299.9 z" id="b3" style="fill:url(#a3)" /><linearGradient x1="45.196" y1="-121.5895" x2="45.3746" y2="-120.6758" gradientUnits="userSpaceOnUse" gradientTransform="matrix(101.745, 0, 0, 23.94, -4458.332, 3199.41)" id="c3"><stop offset="0%" stop-color="#F8DD61" stop-opacity="1" /><stop offset="100%" stop-color="#EAA330" stop-opacity="1" /></linearGradient><ellipse cx="150.3" cy="300.8" rx="27.8" ry="6.6" id="d3" style="fill:url(#c3)" /><linearGradient x1="45.5694" y1="-134.267" x2="45.0221" y2="-134.267" gradientUnits="userSpaceOnUse" gradientTransform="matrix(101.745, 0, 0, 13.2525, -4458.332, 2077.223)" id="e3"><stop offset="0%" stop-color="#F4CA2F" stop-opacity="1" /><stop offset="51.38%" stop-color="#BF7737" stop-opacity="1" /><stop offset="100%" stop-color="#E4A929" stop-opacity="1" /></linearGradient><path d="M122.6 301.5 C122.5 301.3 122.4 301 122.4 300.8 C122.4 297.2 134.9 294.2 150.2 294.2 C165.5 294.2 178 297.1 178 300.8 C178 301 177.9 301.3 177.8 301.5 C176.3 298.2 164.5 295.6 150.1 295.6 C135.7 295.6 124.1 298.2 122.6 301.5 z" id="f3" style="fill:url(#e3)" /></g></defs><desc>8J6H4O7ON8H,tz4RgopqD1sflO1KqxCQg+n6CkffZuURvCT5j6vMnzqAec7uaKzk7N82OlDbAVfoUibOdj6IwApAQA+PQoaamQ==</desc></svg>