<?xml version="1.0" encoding="utf-8"?><!DOCTYPE svg PUBLIC "-//W3C//DTD SVG 1.1//EN" "http://www.w3.org/Graphics/SVG/1.1/DTD/svg11.dtd"><svg x="0" y="0" width="340px" height="340px" viewBox="0, 0, 340, 340" preserveAspectRatio="xMidYMid" font-size="0" id="a" enable-background="new 0 0 340 340" xmlns="http://www.w3.org/2000/svg" xmlns:xlink="http://www.w3.org/1999/xlink" xmlns:xml="http://www.w3.org/XML/1998/namespace" version="1.1"><g id="b" fill="#000"><g id="c"><g transform="translate(0, 0) translate(0, 224)" id="d"><ellipse cx="168.6" cy="53.1" rx="57.8" ry="12.8" fill-opacity="0.25" id="e" /></g><g id="f"><g transform="translate(106.3, 115.5) translate(0, 122)" id="g"><g id="h"><path d="M37.2 31.3 C12.9 30.6 2.2 26.6 0.8 19.3 C0 15.1 -0.4 9.5 0.8 6.5 C2.8 1.8 7.8 0.9 9.2 0.7 C11.4 0.3 13.8 1.1 16.3 3.1 C16.9 3.7 17.2 4.6 17.3 5.9 C17.3 7.7 18.4 8.8 15.8 9.1 C13.3 9.5 11.8 7.1 10.3 7.3 C8.8 7.5 8.3 9.9 8.3 10.8 C8.3 11.7 7.9 13.8 10.8 15.2 C12.8 16.1 26.9 18.4 37.1 19.7 L37.2 31.3 z" id="i" fill="#4B5966" /><path d="M8.7 1.6 C10.1 1 12.4 0.6 16.3 2.9 C17.6 3.8 18.2 5.1 18.2 6.7 C18.2 7.6 17.8 10 15.4 9.8 C13 9.6 11.8 7.5 10.3 7.8 C9.3 8 8.6 9 8.3 11 C8.3 13 9.3 14.4 11.2 15.2 C13.1 16 25.3 18.6 35.6 19.6 C36.9 23.3 35.1 25.6 34.4 25.6 C32.9 25.6 15.5 23.4 9.9 20.2 C4.2 17 4.5 15.8 3.7 10.4 C2.9 4.8 7.8 2 8.7 1.6 z" id="j" fill="#293C49" /><path d="M15.2 2.3 C15.5 2.5 15.9 2.7 16.3 2.9 C17.6 3.8 18.2 5.1 18.2 6.7 C18.2 7.6 17.8 10 15.4 9.8 C13 9.6 11.8 7.5 10.3 7.8 C9.3 8 8.6 9 8.3 11 C8.3 13 9.3 14.4 11.2 15.2 C11.8 15.4 13.2 15.8 15.2 16.3 C20.6 17.4 29.9 18.8 37.1 19.7 L37.2 31.3 C12.9 30.6 2.2 26.6 0.8 19.3 C0 15.1 -0.4 9.5 0.8 6.5 C2.8 1.8 7.8 0.9 9.2 0.7 C11.1 0.4 13.1 0.9 15.2 2.3 z M17.7 5.9 C17.7 4.9 17 4 15.7 3.1 C13.7 1.8 11.7 0.5 10 0.8 C8.6 1.1 4 1.9 2.2 6.2 C1.1 9 1.5 14.2 2.2 18 C3.5 24.7 13.4 28.4 35.8 29.1 L35.8 20.7 C29.1 19.8 21.3 18.7 16.3 17.7 C14.5 17.3 10.8 16.1 10.3 15.9 C8.5 15.2 7.8 14.2 7.8 10.8 C8 9 9.1 7.1 10.6 7.1 C12 7.1 13.4 9.1 15.6 9.3 C17.8 9.5 17.7 6.8 17.7 5.9 z" opacity="0.15" id="k" /></g></g><g transform="translate(126.98, 274.8) scale(0.8850746) translate(-123.6, -274.8) translate(92.50002, 75.89996) translate(20, 136)" id="l"><path d="M50.8 23.7 C50.8 21.1 45 17.3 43.1 14.9 C40.9 12.1 42.4 10.8 38.7 8.5 C29 2.5 15.7 -0.9 9.6 1.7 C8.4 2.3 7.1 3.1 6 4.1 C3.5 6.3 1.1 11.7 0.7 14.8 C0.5 16.3 3.5 12 3.5 13.6 C3.6 15.4 1.8 22.9 2.2 24.5 C2.4 25.7 3.2 23.4 3.5 24.5 C3.6 24.7 4.3 23.4 4.4 23.7 C4.8 25.4 4.3 27.8 4.7 30.7 C5.1 33.6 5.7 35.6 6 36 C6.4 36.6 6.3 34.6 7.6 34.5 C7.8 34.8 7.5 35.5 7.6 36.5 C7.9 38.7 8.4 41.2 8.8 41.9 C9.2 42.6 12.2 48.4 12.6 49.1 C13.3 50.4 13.3 45.9 14.1 47.3 C14.8 48.6 14.1 50 14.8 51.5 C10.6 53 6.5 53.6 4.7 55.8 C3.1 57.9 3.2 60.6 3.2 62.2 C3.2 63.9 3.3 63.2 4.4 64.1 C4.6 64.2 4.3 64.1 5.5 64.1 C6.1 64.1 5.7 65 6.6 65 C7.9 65 6.9 65.7 8.6 65.6 C9.4 65.6 14 65.6 14.9 65.6 C25 65.1 40.5 63.5 41.4 61.8 C43.3 56.8 37.8 55 43.4 46.5 C44.6 44.6 44.8 37.3 46.2 39.7 C47.6 42.1 46.3 35.3 47.3 33.8 C48.2 32.6 50.6 34 51 32.1 C51.2 30.7 50.8 25.4 50.8 23.7 z" id="m" fill="#293C49" /><path d="M50.8 23.7 C50.8 25.4 51.2 30.7 51 32.1 C50.6 34 48.2 32.6 47.3 33.8 C46.3 35.3 47.6 42.1 46.2 39.7 C44.8 37.3 44.6 44.6 43.4 46.5 C37.8 55 43.3 56.8 41.4 61.8 C40.5 63.5 25 65.1 14.9 65.6 C14 65.6 9.4 65.6 8.6 65.6 C6.9 65.7 7.9 65 6.6 65 C5.7 65 6.1 64.1 5.5 64.1 C4.3 64.1 4.6 64.2 4.4 64.1 C3.3 63.2 3.2 63.9 3.2 62.2 C3.2 60.6 3.1 57.9 4.7 55.8 C6.5 53.6 10.6 53 14.8 51.5 C14.1 50 14.8 48.6 14.1 47.3 C13.3 45.9 13.3 50.4 12.6 49.1 C12.2 48.4 9.2 42.6 8.8 41.9 C8.4 41.2 7.9 38.7 7.6 36.5 C7.5 35.5 7.8 34.8 7.6 34.5 C6.3 34.6 6.4 36.6 6 36 C5.7 35.6 5.1 33.6 4.7 30.7 C4.3 27.8 4.8 25.4 4.4 23.7 C4.3 23.4 3.6 24.7 3.5 24.5 C3.2 23.4 2.4 25.7 2.2 24.5 C1.8 22.9 3.6 15.4 3.5 13.6 C3.5 12 0.5 16.3 0.7 14.8 C1.1 11.7 3.5 6.3 6 4.1 C7.1 3.1 8.4 2.3 9.6 1.7 C15.7 -0.9 29 2.5 38.7 8.5 C42.4 10.8 40.9 12.1 43.1 14.9 C45 17.3 50.8 21.1 50.8 23.7 z M49.2 23.3 C49.2 20.9 43.8 17.3 42 15.1 C39.9 12.5 41.3 11.3 37.9 9.1 C28.8 3.5 20.3 1.2 13.6 1.7 C12.2 1.7 8.3 2.7 7.3 3.6 C5 5.7 2.3 9.4 2 12.3 C1.8 13.7 4.7 10.5 4.7 11.9 C4.8 13.6 2.4 20.8 2.7 22.2 C2.9 23.3 4.7 21 4.9 22 C5 22.2 5.3 25.7 5.6 28.4 C5.9 31.1 6 33.3 6.3 33.7 C6.7 34.3 7.5 31.2 8.7 31.1 C8.9 31.4 8.6 34.3 8.7 35.2 C9 37.3 9.4 39.6 9.8 40.3 C10.2 41 12.2 45.4 12.5 46.1 C13.2 47.3 13.5 42.6 14.2 43.9 C14.9 45.1 16 51.2 16.6 52.7 C12.7 54.1 8.3 54.2 6.7 56.2 C5.2 58.2 4.5 57.8 4.5 59.3 C4.5 60.9 4.6 60.2 5.6 61.1 C5.8 61.2 5.5 61.1 6.6 61.1 C7.2 61.1 6.8 61.9 7.6 61.9 C8.8 61.9 7.9 62.6 9.5 62.5 C10.2 62.5 14.6 62.5 15.4 62.5 C24.8 62 39.3 60.5 40.2 58.9 C42 54.2 36.8 52.5 42.1 44.6 C43.2 42.8 43.4 36 44.7 38.2 C46 40.4 44.8 34.1 45.7 32.7 C46.5 31.6 48.8 32.9 49.2 31.1 C49.6 29.9 49.2 24.9 49.2 23.3 z" opacity="0.15" id="n" /></g><g transform="translate(211.62, 274.8) scale(0.8850746) translate(-215, -274.8) translate(92.39999, 75.89996) translate(107.5, 169) scale(-1, 1) translate(-107.5, -169) translate(82, 136)" id="o"><path d="M50.2 23.7 C50.2 21.1 44.4 17.3 42.5 14.9 C40.3 12.1 41.8 10.8 38.1 8.5 C28.3 2.5 15 -0.8 8.9 1.8 C7.7 2.4 6.4 3.2 5.3 4.2 C3.9 5.4 1 8.7 0.3 10.3 C-0.3 11.6 2.9 9.8 2.7 11.2 C2.6 11.8 0.5 13.5 1.1 19.9 C1.4 23.1 2.5 26.1 2.7 26.7 C2.8 26.9 3.5 23.4 3.6 23.7 C4 25.4 3.5 30.2 3.9 31.3 C3.9 33.3 4.6 35.1 5.7 38.3 C6.1 38.9 8.2 36 9.5 36 C9.7 36.4 9.1 37.3 8.9 38.3 C8.7 39.5 8.9 41 8.9 42.4 C8.9 44.4 11.4 48.5 11.8 49.1 C12.5 50.4 12.5 45.9 13.3 47.3 C14 48.6 13.3 50 14 51.5 C9.8 53 5.7 53.6 3.9 55.8 C2.3 57.9 2.4 60.6 2.4 62.2 C2.4 63.9 2.5 63.2 3.6 64.1 C3.8 64.2 3.5 64.1 4.7 64.1 C5.3 64.1 4.9 65 5.8 65 C7.1 65 6.1 65.7 7.8 65.6 C8.6 65.6 13.2 65.6 14.1 65.6 C24.2 65.1 39.7 63.5 40.6 61.8 C42.5 56.8 37 55 42.6 46.5 C43.8 44.6 44 37.3 45.4 39.7 C46.8 42.1 45.5 35.3 46.5 33.8 C47.4 32.6 49.8 34 50.2 32.1 C50.5 30.7 50.2 25.4 50.2 23.7 z" id="p" fill="#293C49" /><path d="M50.2 23.7 C50.2 25.4 50.5 30.7 50.2 32.1 C49.8 34 47.4 32.6 46.5 33.8 C45.5 35.3 46.8 42.1 45.4 39.7 C44 37.3 43.8 44.6 42.6 46.5 C37 55 42.5 56.8 40.6 61.8 C39.7 63.5 24.2 65.1 14.1 65.6 C13.2 65.6 8.6 65.6 7.8 65.6 C6.1 65.7 7.1 65 5.8 65 C4.9 65 5.3 64.1 4.7 64.1 C3.5 64.1 3.8 64.2 3.6 64.1 C2.5 63.2 2.4 63.9 2.4 62.2 C2.4 60.6 2.3 57.9 3.9 55.8 C5.7 53.6 9.8 53 14 51.5 C13.3 50 14 48.6 13.3 47.3 C12.5 45.9 12.5 50.4 11.8 49.1 C11.4 48.5 8.9 44.4 8.9 42.4 C8.9 41 8.7 39.5 8.9 38.3 C9.1 37.3 9.7 36.4 9.5 36 C8.2 36 6.1 38.9 5.7 38.3 C4.6 35.1 3.9 33.3 3.9 31.3 C3.5 30.2 4 25.4 3.6 23.7 C3.5 23.4 2.8 26.9 2.7 26.7 C2.5 26.1 1.4 23.1 1.1 19.9 C0.5 13.5 2.6 11.8 2.7 11.2 C2.9 9.8 -0.3 11.6 0.3 10.3 C1 8.7 3.9 5.4 5.3 4.2 C6.4 3.2 7.7 2.4 8.9 1.8 C15 -0.8 28.3 2.5 38.1 8.5 C41.8 10.8 40.3 12.1 42.5 14.9 C44.4 17.3 50.2 21.1 50.2 23.7 z M48.6 23.3 C48.6 20.9 43.2 17.3 41.4 15.1 C39.3 12.5 40.7 11.3 37.3 9.1 C28.1 3.5 16.3 -0.4 10.5 2.1 C9.4 2.6 7.8 3.3 6.8 4.3 C5.5 5.4 2.3 7.8 1.7 9.3 C1.1 10.5 4.4 8 4.2 9.3 C4.1 9.9 1.3 11.3 1.8 17.3 C2.1 20.3 2.3 23.6 2.5 24.1 C2.6 24.3 4.9 21 4.9 21.3 C5.3 22.9 4.5 29.9 4.9 31 C4.9 32.9 5.5 32.8 6.6 35.8 C6.9 36.3 8.3 34.2 9.6 33.8 C9.8 33.7 10.2 36.1 10 37 C9.8 38.1 10 39.5 10 40.8 C10 42.7 11.6 45.8 12 46.3 C12.7 47.5 13.4 44.1 14.2 45.4 C14.9 46.6 15.2 51.3 15.9 52.7 C12 54.1 7.6 54 5.9 56.1 C4.4 58.1 4 57.9 4 59.4 C4 61 4.1 60.3 5.1 61.2 C5.3 61.3 5 61.2 6.1 61.2 C6.7 61.2 6.3 62 7.1 62 C8.3 62 7.4 62.7 9 62.6 C9.7 62.6 14.1 62.6 14.9 62.6 C24.4 62.1 38.9 60.6 39.7 59 C41.5 54.3 36.3 52.6 41.6 44.7 C42.7 42.9 42.9 36.1 44.2 38.3 C45.5 40.5 44.3 34.2 45.2 32.8 C46 31.7 48.3 33 48.7 31.2 C48.9 29.9 48.6 24.9 48.6 23.3 z" opacity="0.15" id="q" /></g><g transform="translate(-285.9, 63.59998) translate(26, 89)" id="r"><path d="M397 32.1 C391 38.3 389.6 53.9 391.7 73.6 C393.8 93.4 398.5 110.6 404.4 118.6 C410.3 126.6 419.1 128.3 429.1 128.3 C439.1 128.3 444.7 128.5 451.9 120.5 C459 112.6 463.7 84.2 465.1 74.4 C466.5 64.7 469.4 41 460.1 32.9 C455.5 28.8 444.8 7 431.3 6.5 C417.8 6 403 26 397 32.1 z" id="s" fill="#293C49" /><path d="M397 32.1 C391 38.3 389.6 53.9 391.7 73.6 C392.6 81.9 396.1 90.6 397.8 97.5 C400.1 107.1 401 114.1 404.4 118.7 C410.3 126.7 419.1 128.4 429.1 128.4 C439.1 128.4 444.7 128.6 451.9 120.6 C459 112.7 463.7 84.3 465.1 74.5 C466.5 64.8 469.4 41.1 460.1 33 C455.5 28.9 444.8 7.3 431.3 6.8 C417.8 6.2 403 26 397 32.1 z" id="t" fill="#293C49" /><path d="M397 32.1 C403 26 417.8 6.2 431.1 6.6 C444.7 7.1 455.4 28.8 459.9 32.8 C469.2 40.9 466.3 64.6 464.9 74.3 C463.5 84.1 458.8 112.5 451.7 120.4 C444.5 128.4 438.9 128.2 428.9 128.2 C418.9 128.2 410.1 126.5 404.2 118.5 C398.3 110.5 393.6 93.2 391.5 73.5 C389.6 53.9 391 38.3 397 32.1 z M398.3 32.4 C392.5 38.4 391.2 53.3 393.2 72.3 C395.2 91.4 399.7 107.8 405.4 115.5 C411.1 123.2 419.5 124.8 429.1 124.8 C438.7 124.8 444.1 125 451 117.3 C457.8 109.7 462.3 82.4 463.7 73 C465 63.7 467.8 40.9 458.9 33.1 C454.3 29.2 444.1 8.5 431 8 C418.2 7.5 404 26.5 398.3 32.4 z" opacity="0.15" id="u" /></g><g transform="translate(127.4325, 183.25) scale(1.05, 0.943662) translate(-129.4, -177.3) translate(90.00002, 84.39998) translate(78.5, 145.5) scale(-1, 1) translate(-78.5, -145.5) translate(39, 92)" id="v"><path d="M68.1 2.7 C65.6 5.6 57.8 23.3 40.2 24.2 C21.5 24.9 13.3 5.5 10.6 0.9 C7 8.7 1.1 13.8 0.5 26.6 C-0.1 39.4 4.4 46.5 6.7 52.8 C8.4 57.4 10.7 64.5 12.6 73.4 C13.3 76.6 15 81.2 15 84.3 C15.3 96.3 17.5 91.7 13.2 94.2 C8.9 96.7 5.2 101.6 6.7 104.5 C8.2 107.4 29.2 104.1 30.2 102.9 C30.7 102.3 30.9 95.4 30.7 74 C30.6 70.2 29.5 64.3 29.2 57 C29.1 53.6 30 50.6 29.7 46.2 C33.7 48.7 35.2 49.7 38.2 49.6 C41 49.7 42.2 48 46.8 45.5 C46.8 49.8 47.8 53.2 47.9 56.9 C48 63.8 47.3 70.3 47.2 74 C46.9 94.5 47.2 102.3 48 103.5 C49.2 105.2 56.8 106.1 70.8 106 C72.5 103.2 72.5 100.8 70.8 98.8 C69.1 96.8 66.2 94.7 62.2 92.4 C63.3 83.7 63.9 81.2 65.2 75.5 C66.2 71 67.7 62.7 68.7 60.2 C72.3 51.4 78.4 40.6 78.5 28.7 C78.6 16.8 72.4 8 68.1 2.7 z" id="w" fill="#4B5966" /><path d="M68.1 2.7 C72.4 8 78.5 16.8 78.4 28.7 C78.3 40.6 72.2 51.4 68.6 60.2 C67.6 62.8 66 71 65.1 75.5 C63.9 81.2 63.2 83.7 62.1 92.4 C66.1 94.7 69 96.8 70.7 98.8 C72.4 100.8 72.4 103.2 70.7 106 C56.7 106.1 49.1 105.2 47.9 103.5 C47.1 102.3 46.8 94.5 47.1 74 C47.2 70.3 47.9 63.8 47.8 56.9 C47.7 53.1 46.7 49.8 46.7 45.5 C42.1 48 40.9 49.7 38.1 49.6 C35.1 49.7 33.6 48.7 29.6 46.2 C30 50.6 29 53.6 29.2 57 C29.5 64.3 30.6 70.2 30.7 74 C30.9 95.4 30.7 102.3 30.2 102.9 C29.2 104.1 8.2 107.4 6.7 104.5 C5.2 101.6 8.9 96.7 13.2 94.2 C17.5 91.7 15.3 96.3 15 84.3 C14.9 81.1 13.2 76.6 12.6 73.4 C10.7 64.5 8.4 57.5 6.7 52.8 C4.4 46.5 -0.1 39.4 0.5 26.6 C1.1 13.8 7 8.7 10.6 0.9 C13.3 5.5 21.5 24.9 40.2 24.2 C57.8 23.3 65.6 5.6 68.1 2.7 z M68.1 3.9 C66.9 6.2 63.6 12.3 57.5 17.9 C52.5 22.5 44.3 27.3 38.5 27.3 C34.8 27.5 26 22.6 22.4 19.5 C17.8 15.6 11.8 5.2 10.6 1.4 C7.1 8.9 2.7 15.8 2.1 28 C1.5 40.2 5.9 45.5 8.1 51.5 C9.7 55.9 12.8 63.9 14.6 72.4 C15.2 75.4 16.9 80.5 17 83.5 C17.3 94.9 18.7 92.8 14.6 95.2 C10.5 97.6 7.6 99.2 9 101.9 C10.4 104.6 27 101.6 28 100.4 C28.5 99.8 28.8 95.8 28.6 75.4 C28.5 71.7 27.6 64.9 27.3 57.9 C27.2 54.7 26.9 46.1 26.6 41.9 C30.4 44.3 35 48 37.9 47.9 C40.6 48 45.9 43.8 50.3 41.4 C50.3 45.5 50.1 52.2 50.1 55.8 C50.2 62.3 49.2 68.8 49.2 72.3 C48.9 91.8 49.3 99.6 50 100.8 C51.1 102.4 55.2 104 68.5 103.9 C70.1 101.2 70.8 100.5 69.2 98.6 C67.6 96.7 64.2 95 60.4 92.8 C61.5 84.5 62.1 79.7 63.3 74.3 C64.2 70 65.8 62 66.8 59.5 C70.2 51.1 76.5 41.1 76.6 29.8 C76.6 18.6 72.2 8.9 68.1 3.9 z" opacity="0.15" id="x" /></g></g><g id="y"><g transform="translate(92, 3) translate(91.30003, 94.49997)" id="z"><path d="M4.4 2.9 C7.1 -0.3 14.5 1.5 21.1 6.9 L25.4 10.5 C31.9 15.9 35 22.9 32.4 26.1 L32.4 26.1 C29.7 29.3 22.3 27.5 15.7 22.1 L11.4 18.5 C8.2 15.8 1.5 11.1 0.7 9.8 C-1.2 7.3 3 4.5 4.4 2.9 L4.4 2.9 z" id="a1" fill="#4B5966" /></g><g transform="translate(16, 3) translate(91.00002, 95.29996)" id="b1"><path d="M46.6 3.4 C43.9 0.2 36.5 2 29.9 7.4 L25.6 11 C19.1 16.4 16 23.4 18.6 26.6 L18.6 26.6 C21.3 29.8 28.7 28 35.3 22.6 L39.6 19 C42.8 16.3 49.5 11.6 50.3 10.3 C52.1 7.8 47.9 5 46.6 3.4 L46.6 3.4 z" id="c1" fill="#4B5966" /></g><g transform="translate(91.10002, 94.99997) translate(37, 0)" id="d1"><g id="e1"><path d="M40.1 0.5 C72.4 1 81.8 11.6 81.5 30 C81.2 48.3 80.7 55.1 76.4 61.6 C72.1 68.1 70.7 71.6 67.7 81.7 C64.7 91.8 55.4 91.4 41.7 91.7 C28 92 16 87.5 14.9 80.5 C13.8 73.5 10.1 67.7 5.1 60.9 C0.1 54.1 0.8 35.1 0.7 24.3 C0.6 13.5 7.9 0 40.1 0.5 z" id="f1" fill="#4B5966" /><g transform="translate(28.16216, 84.51376)" id="g1"><path d="M0.6 6.7 C3.9 8.4 6.8 9.3 9.2 9.4 C12.9 9.6 20.5 9.4 23.4 8.1 C25.4 7.2 26.8 6.8 27.6 6.8 C23.9 3.9 21.4 2.4 20.1 2.2 C18.2 2 12.8 -0.1 11 1.1 C9.2 2.3 5.2 3 4.3 3.8 C3.7 4.3 2.5 5.2 0.6 6.7 z" id="h1" fill="#1D2B33" /></g><path d="M55.4 91 C55.5 91.1 55.6 91.2 55.8 91.3 C55 91.3 53.6 91.7 51.6 92.6 C48.7 93.9 41.1 94.1 37.4 93.9 C35 93.8 32.1 92.9 28.8 91.2 C29.1 91 29.3 90.8 29.6 90.6 C21.6 88.9 15.7 85.3 15 80.5 C13.9 73.5 10.2 67.7 5.2 60.9 C0.2 54.1 0.9 35.1 0.8 24.3 C0.7 13.5 7.9 0 40.1 0.5 C72.4 1 81.8 11.6 81.5 30 C81.2 48.3 80.7 55.1 76.4 61.6 C72.1 68.1 70.7 71.6 67.7 81.7 C65.8 87.9 61.6 90.2 55.4 91 z M55 88.8 C61 88 65.2 85.8 67 79.7 C69.9 69.9 71.3 66.5 75.5 60.2 C79.7 53.9 80.2 47.3 80.5 29.5 C80.8 11.6 71.7 1.3 40.3 0.8 C8.8 0.3 1.7 13.4 1.8 23.9 C1.9 34.4 1.2 52.9 6.1 59.5 C11 66.1 14.6 71.7 15.6 78.6 C16.3 83.3 22 86.8 29.8 88.4 C29.6 88.6 29.3 88.8 29.1 89 C32.3 90.7 35.1 91.5 37.5 91.6 C41.1 91.8 48.5 91.6 51.3 90.3 C53.2 89.4 54.6 89 55.4 89 C55.2 89 55.1 88.9 55 88.8 z" opacity="0.15" id="i1" /></g></g><g transform="translate(91.00002, 95.29996) translate(16, 3)" id="j1"><path d="M38.7 4.6 C35.6 5.9 33 6.7 31.4 8.3 C29.8 9.9 25.3 17.6 25.1 21.4 C24.9 25.2 27.2 38.1 25.3 47.4 C23.4 56.7 23.8 63.8 20.5 62.6 C17.2 61.5 18.8 58.1 13.8 51.7 C8.8 45.3 0.8 34.8 0.1 31 C-0.6 27.2 7.4 20.2 13.8 15.5 C20.2 10.8 26.9 0.6 32 0.2 C37.1 -0.2 41.6 1.6 42.3 1.8 C43 2 41.7 3.3 38.7 4.6 z" id="k1" fill="#293C49" /><path d="M38.7 4.6 C35.6 5.9 33 6.7 31.4 8.3 C29.8 9.9 25.3 17.6 25.1 21.4 C24.9 25.2 27.2 38.1 25.3 47.4 C23.4 56.7 23.8 63.8 20.5 62.6 C17.2 61.5 18.8 58.1 13.8 51.7 C8.8 45.3 0.8 34.8 0.1 31 C-0.6 27.2 7.4 20.2 13.8 15.5 C20.2 10.8 26.9 0.6 32 0.2 C37.1 -0.2 41.6 1.6 42.3 1.8 C43 2 41.7 3.3 38.7 4.6 z M37.6 4.3 C40.4 3.1 41.6 1.9 41 1.7 C40.4 1.5 37 0.2 32.3 0.6 C27.6 1 20.3 11.3 14.3 15.7 C8.3 20.1 1.2 26 1.8 29.6 C2.4 33.2 9.6 42.5 14.3 48.5 C19 54.5 17.1 56.6 20.2 57.6 C22.2 58.1 21.7 53.2 23.5 44.4 C25.3 35.6 23.8 24.4 24 20.8 C24.2 17.2 29.3 9.2 30.8 7.7 C32.3 6.2 34.7 5.5 37.6 4.3 z" opacity="0.15" id="l1" /></g><g transform="translate(91.30003, 94.49997) translate(92, 3)" id="m1"><path d="M8.7 4.4 C12.6 6.2 15 6.5 16.6 8.1 C18.2 9.7 22.7 17.6 22.9 21.4 C23.1 25.2 20.8 38.1 22.7 47.4 C24.6 56.7 24.2 63.8 27.5 62.6 C30.8 61.5 29.2 58.1 34.2 51.7 C39.2 45.3 47.1 34.8 47.9 31 C48.7 27.2 42.1 21.4 35.2 15.9 C28.3 10.4 21.1 0.6 15.9 0.2 C12.5 0 9.1 0.5 5.6 1.8 C5.1 2.4 6.1 3.2 8.7 4.4 z" id="n1" fill="#293C49" /><path d="M8.7 4.4 C6.1 3.2 5.1 2.4 5.6 1.8 C9.1 0.5 12.5 0 15.9 0.2 C21.1 0.6 28.3 10.4 35.2 15.9 C42.1 21.4 48.7 27.2 47.9 31 C47.1 34.8 39.2 45.3 34.2 51.7 C29.2 58.1 30.8 61.5 27.5 62.6 C24.2 63.8 24.6 56.7 22.7 47.4 C20.8 38.1 23.1 25.2 22.9 21.4 C22.7 17.6 18.2 9.7 16.6 8.1 C15 6.5 12.6 6.2 8.7 4.4 z M10.3 4.7 C14 6.4 15.7 6.1 17.2 7.6 C18.7 9.1 23.9 17.7 24.1 21.3 C24.3 24.9 22.7 37 24.4 45.8 C26.1 54.6 25 59 28.1 57.9 C31.2 56.9 29.2 54.5 33.9 48.5 C38.6 42.5 45.7 34.1 46.4 30.5 C47.1 26.9 41.3 21.7 34.8 16.5 C28.3 11.3 21.1 1.2 16.2 0.8 C13 0.7 9.6 0.9 6.3 2.1 C5.9 2.7 7.9 3.6 10.3 4.7 z" opacity="0.15" id="o1" /></g><g id="p1"><g transform="translate(110.5, 93.69997) translate(20, 34)" id="q1"><g transform="translate(0, 11)" id="r1"><path d="M72.8 26.1 C76.1 26.8 75.1 26.5 78.7 28.4 C75.2 10.7 62.4 6 51.7 5.2 C48.7 2.4 44.6 0.6 39.5 0.6 C34.4 0.6 30.3 2.4 27.3 5.2 C16.6 6 3.7 10.7 0.3 28.4 C3.9 26.5 3 26.8 6.2 26.1 C3.1 28.8 1.5 32 3.9 39.7 C6.9 37.2 6.2 35.5 8.9 33.8 C6.3 37 7 42.1 8.5 46.6 C9.2 45.3 9.7 43.9 12 41.6 C11.5 44.8 13.1 47.3 14.5 49.7 C15.6 47.8 16.2 45.2 16.7 42.4 C18 43.3 19.4 44 20.9 44.7 C23.6 47.9 25.7 49.1 28.3 50 C28 48.8 28.1 48.2 28.1 47 C30 48.6 31.9 49.2 33.6 50.8 C33.8 49.4 33.8 49.2 33.9 47.8 C35.1 51.3 36.8 52 39.5 54.4 C42.3 52 43.9 51.2 45.2 47.8 C45.4 49.2 45.4 49.4 45.5 50.8 C47.2 49.1 49.1 48.6 50.8 47 C51 48.3 51.1 48.8 50.8 50 C53.4 49.1 55.5 47.8 58.2 44.7 C59.7 44 61.1 43.2 62.4 42.4 C62.9 45.2 63.5 47.9 64.6 49.7 C66 47.3 67.6 44.8 67.1 41.6 C69.4 43.9 69.9 45.3 70.6 46.6 C72.1 42.1 72.8 37 70.2 33.8 C72.9 35.5 72.2 37.2 75.2 39.7 C77.4 32.1 75.8 28.8 72.8 26.1 z" id="s1" fill="#FEFEFE" /><path d="M72.8 26.1 C76.1 26.8 75.1 26.5 78.7 28.4 C77.1 20.5 73.7 15.2 69.5 11.7 C71.3 14.7 72.5 17.2 73.3 22.4 C71.3 21.1 69.2 21 66.3 19.7 C68.5 23.7 68.9 28.8 67.1 33.1 C66.2 31.7 65.1 30.1 62.8 28.7 C63.3 34.5 62.3 36.5 61.5 37.5 C60.3 31.2 58.4 25.4 51.4 25.4 C46.7 27.4 42.5 27.4 39.5 23 C36.5 27.5 32.3 27.4 27.6 25.4 C20.7 25.4 18.7 31.2 17.5 37.5 C16.7 36.5 15.7 34.5 16.2 28.7 C13.9 30.1 12.8 31.6 11.9 33.1 C10.1 28.8 10.5 23.6 12.7 19.7 C9.8 21 7.8 21.1 5.7 22.4 C6.5 17.2 7.7 14.7 9.5 11.7 C5.2 15.2 1.8 20.5 0.3 28.4 C3.9 26.5 3 26.8 6.2 26.1 C3.1 28.8 1.5 32 3.9 39.7 C6.9 37.2 6.2 35.5 8.9 33.8 C6.3 37 7 42.2 8.5 46.6 C9.2 45.3 9.7 43.9 12 41.6 C11.5 44.8 13.1 47.3 14.5 49.7 C15.6 47.8 16.2 45.2 16.7 42.4 C18 43.3 19.4 44 20.9 44.7 C23.6 47.9 25.7 49.1 28.3 50 C28 48.8 28.1 48.2 28.1 47 C28.2 47 28.2 47 28.3 47 C30 48.6 31.9 49.2 33.6 50.8 C33.8 49.4 33.8 49.2 33.9 47.8 C35.1 51.3 36.8 52 39.5 54.4 C42.3 52 43.9 51.2 45.2 47.8 C45.4 49.2 45.4 49.4 45.5 50.8 C47.2 49.1 49.1 48.6 50.8 47 C50.9 47 50.9 47 51 47 C51 48.3 51.1 48.8 50.8 50 C53.4 49.1 55.5 47.8 58.2 44.7 C59.7 44 61.1 43.2 62.4 42.4 C62.9 45.2 63.5 47.9 64.6 49.7 C66 47.3 67.6 44.8 67.1 41.6 C69.4 43.9 69.9 45.3 70.6 46.6 C72.1 42.1 72.8 37 70.2 33.8 C72.9 35.5 72.2 37.2 75.2 39.7 C77.4 32.1 75.8 28.8 72.8 26.1 z" id="t1" fill="#EDEEEF" /><path d="M72.8 26.1 C75.8 28.8 77.4 32.1 75.2 39.7 C72.2 37.2 72.9 35.5 70.2 33.8 C72.8 37 72.1 42.1 70.6 46.6 C69.9 45.3 69.4 43.9 67.1 41.6 C67.6 44.8 66 47.3 64.6 49.7 C63.5 47.9 62.9 45.2 62.4 42.4 C61.1 43.2 59.7 44 58.2 44.7 C55.5 47.8 53.4 49.1 50.8 50 C51.1 48.8 51 48.3 51 47 C50.9 47 50.9 47 50.8 47 C49.1 48.6 47.2 49.1 45.5 50.8 C45.4 49.4 45.4 49.2 45.2 47.8 C43.9 51.2 42.3 52 39.5 54.4 C36.8 52 35.1 51.3 33.9 47.8 C33.8 49.2 33.8 49.4 33.6 50.8 C31.9 49.2 30 48.6 28.3 47 C28.2 47 28.2 47 28.1 47 C28.1 48.2 28 48.8 28.3 50 C25.7 49.1 23.6 47.9 20.9 44.7 C19.4 44 18 43.3 16.7 42.4 C16.2 45.2 15.6 47.8 14.5 49.7 C13.1 47.3 11.5 44.8 12 41.6 C9.7 43.9 9.2 45.3 8.5 46.6 C7 42.1 6.3 37 8.9 33.8 C6.2 35.5 6.9 37.2 3.9 39.7 C1.5 32 3.1 28.8 6.2 26.1 C3 26.8 3.9 26.5 0.3 28.4 C3.7 10.7 16.6 6 27.3 5.2 C30.3 2.4 34.4 0.6 39.5 0.6 C44.6 0.6 48.7 2.4 51.7 5.2 C62.4 6 75.2 10.7 78.7 28.4 C75.1 26.5 76.1 26.8 72.8 26.1 z M70.4 24.3 C73.5 25 73.5 24.1 76.9 25.9 C75.3 17.6 71 13.1 66.2 10.2 C61.4 7.4 55.9 6 50.9 5.6 C48.1 3 44.3 1.3 39.5 1.3 C34.7 1.3 30.9 3 28.1 5.6 C18 6.4 6 8.6 2.9 25.2 C6.3 23.4 6.4 25.3 9.4 24.7 C6.5 27.2 2.3 28.7 4.5 36 C6.4 34.4 8.6 33 11.3 31.6 C8.9 34.6 7.7 37.7 9.1 41.9 C9.8 40.7 11.4 40.4 13.6 38.3 C13.1 41.3 12.7 44.4 14.1 46.6 C15.1 44.8 15.7 42.2 16.2 39.5 C17.4 40.3 20.3 42.9 21.7 43.5 C24.2 46.5 24.9 47 27.3 47.9 C27 46.8 27.3 45.5 27.3 44.4 C27.4 44.4 31.6 46.8 33.2 48.3 C33.4 47 33.1 46.5 33.2 45.2 C34.3 48.5 37 49.4 39.6 51.7 C42.2 49.5 44.6 48.7 45.8 45.5 C46 46.8 46 47 46.1 48.3 C47.7 46.7 49.8 45.9 51.4 44.4 C51.8 44.4 52.3 45.4 53 47.3 C54.9 45.1 56.3 43.6 57.1 42.6 C58.5 41.9 61.8 40.8 63 40.1 C63.5 42.7 63.7 44.9 64.7 46.6 C66 44.4 66.7 41.9 66.2 38.9 C68.4 41.1 69.8 42.4 70.4 43.6 C71.3 40.8 70.9 36.7 69.2 31.4 C71.7 33 72 34.7 74.8 37 C76.9 29.7 73.2 26.9 70.4 24.3 z" opacity="0.15" id="u1" /></g></g><g transform="translate(109.6, 69.79996) translate(39, 80)" id="v1"><path d="M0.8 2.5 C0.9 3.5 1.7 5.7 2.3 7 C3.9 10.9 6.6 13.2 7.4 13.8 C11 16.7 14.3 16.6 21.5 16.6 C30.5 16.7 31.2 15.6 35.8 13.1 C41.7 9.9 42.9 1.6 42.9 0.8 C42.8 0 41.9 0 41.8 0.5 C41.6 1.1 41.7 2.5 41.5 3.1 C41.1 5 40.6 6 39.9 6.7 C38.1 8.6 35 10.2 32.4 10.3 C28.3 10.4 25.9 7.6 23.6 4.2 C23.3 3.7 22.6 3.4 21.4 3.1 C20.3 3.4 19.6 3.8 19.2 4.2 C16 7.9 13.7 10.6 11 10.6 C8.1 10.6 5.1 9 3.8 6.5 C3.2 5.2 2.5 3.9 1.9 1.6 C1.9 1.1 0.7 1.4 0.8 2.5 z" fill-opacity="0.1" id="w1" fill="#010101" /><g transform="translate(5, 7)" id="x1"><path d="M0.6 5.8 C5.2 7.6 9 7.6 11.9 5.8 C13.9 4.6 15.2 3.4 15.7 2.2 C15.9 1.8 16.1 1.5 16.3 1.2 C16.8 2.5 18.2 4 20.5 5.8 C22.8 7.6 26.5 7.6 31.6 5.8 C26.6 12.8 21.3 16.3 15.8 16.3 C10.3 16.3 5.3 12.8 0.6 5.8 z" id="y1" fill="#424242" /><path d="M8.8 13.5 L8.8 6.9 C10.6 6.3 11.7 5.9 12.2 5.6 C13.3 4.9 14.7 3.2 16.2 0.6 C18 3.2 19.7 4.9 21 5.8 C21.5 6.1 22.4 6.5 23.9 7 L23.9 13.5 C27.1 22.1 24.6 26.2 16.4 26 C8.4 25.7 5.8 21.6 8.8 13.5 z" id="z1" fill="#FFB8B3" /></g></g><g transform="translate(111, 86.69996) translate(48, 55)" id="a2"><g id="b2"><path d="M20.4 3.1 C18.3 0 13.2 0.9 11 0.8 C8.8 0.9 3.7 0 1.6 3.1 C-0.3 5.9 1.2 11.4 3.7 12.1 C5.6 12.6 6.2 15.5 11 15.4 C15.9 15.5 16.5 12.6 18.3 12.1 C20.8 11.5 22.3 5.9 20.4 3.1 z" id="c2" fill="#282421" /><path d="M15.2 4.6 C14.1 4.3 12.9 4.7 12.1 5.5 L11 6.7 L10 5.5 C9.2 4.6 8 4.2 6.9 4.5 C6 4.8 4.7 5.8 4.9 6.9 C5.8 6.2 6.9 5.7 8 6.1 C9 6.4 9.7 7.4 9.9 8.4 L9.9 9.6 L11 9.6 L12.2 9.6 L12.2 8.4 C12.4 7.4 13.1 6.4 14.1 6.1 C15.2 5.7 16.4 6.2 17.2 6.9 C17.4 6 16.1 4.9 15.2 4.6 z" id="d2" fill="#FEFEFE" /></g></g><g transform="translate(114.2, 69.09996) translate(30, 41)" id="e2"><g transform="translate(3, 0)" id="f2"><circle cx="8" cy="19.2" r="7.7" id="g2" fill="#FFF" /><circle cx="8" cy="19.2" r="5.8" id="h2" fill="#555452" /><circle cx="6" cy="17.2" r="2.5" id="i2" fill="#FFF" /><circle cx="10.5" cy="20.7" r="1" id="j2" fill="#FFF" /><path d="M3.4 4.4 C1.4 6.9 3 10.2 5.4 9.5 C7.8 8.7 12.9 7.4 13.8 5.9 C14.7 4.4 14 0.1 11.1 0.8 C8.2 1.5 5.4 2 3.4 4.4 z" id="k2" fill="#FFF" /></g></g><g transform="translate(102.3, 69.09996) translate(69, 41)" id="l2"><g transform="translate(2, 0)" id="m2"><circle cx="8.2" cy="19.1" r="7.7" id="n2" fill="#FFF" /><circle cx="8.2" cy="19.1" r="5.8" id="o2" fill="#424242" /><circle cx="6.2" cy="17.1" r="2.5" id="p2" fill="#FFF" /><circle cx="10.7" cy="20.6" r="1" id="q2" fill="#FFF" /><path d="M13.5 4.3 C15.5 6.8 13.9 10.1 11.5 9.4 C9.1 8.6 4 7.3 3.1 5.8 C2.2 4.3 2.9 0 5.8 0.7 C8.7 1.4 11.5 1.9 13.5 4.3 z" id="r2" fill="#FFF" /></g></g></g></g></g></g><defs><g transform="translate(17.09519, 0.800995) translate(-135.2952, -293.601)" id="s2" fill="#000"><path d="M118.2 302.7 C118.4 307.4 132.5 311.2 149.8 311.2 C167.1 311.2 181.2 307.4 181.4 302.7 C181.4 307.5 181.4 310.1 181.4 310.5 C181.4 315.3 167.3 319.1 149.8 319.1 C132.3 319.1 118.2 315.2 118.2 310.5 L118.2 302.7 L118.2 302.7 z" fill-opacity="0.4528" id="t2" fill="#593001" /><path d="M118.7 301.7 C118.9 306.4 133 310.2 150.3 310.2 C167.6 310.2 181.7 306.4 181.9 301.7 C181.9 306.5 181.9 309.1 181.9 309.5 C181.9 314.3 167.8 318.1 150.3 318.1 C132.8 318.1 118.7 314.2 118.7 309.5 L118.7 301.7 L118.7 301.7 z" id="u2" fill="#DA8113" /><linearGradient x1="46.0545" y1="-118.6926" x2="45.4656" y2="-118.6926" gradientUnits="userSpaceOnUse" gradientTransform="matrix(117.135, 0, 0, 28.4634, -5208.417, 3687.795)" id="v2"><stop offset="0%" stop-color="#D9952A" stop-opacity="1" /><stop offset="6.438854%" stop-color="#CA7519" stop-opacity="1" /><stop offset="30.54%" stop-color="#E3AD3A" stop-opacity="1" /><stop offset="51.05%" stop-color="#FFEC91" stop-opacity="1" /><stop offset="68.8%" stop-color="#E9BD44" stop-opacity="1" /><stop offset="86.24%" stop-color="#FFED6C" stop-opacity="1" /><stop offset="93.87%" stop-color="#F2D353" stop-opacity="1" /><stop offset="100%" stop-color="#F2B947" stop-opacity="1" /></linearGradient><path d="M118.2 301.6 C118.4 306.1 132.7 309.7 150.3 309.7 C167.9 309.7 182.2 306.1 182.4 301.6 C182.4 306.2 182.4 308.7 182.4 309 C182.4 313.5 168 317.2 150.3 317.2 C132.6 317.2 118.2 313.5 118.2 309 L118.2 301.6 L118.2 301.6 z" id="w2" style="fill:url(#v2)" /><linearGradient x1="45.4914" y1="-117.9547" x2="45.9407" y2="-117.5895" gradientUnits="userSpaceOnUse" gradientTransform="matrix(115.425, 0, 0, 29.925, -5125.077, 3826.124)" id="x2"><stop offset="0%" stop-color="#F4E072" stop-opacity="1" /><stop offset="100%" stop-color="#DB9427" stop-opacity="1" /></linearGradient><ellipse cx="150.3" cy="301.5" rx="31.6" ry="8.2" id="y2" style="fill:url(#x2)" /><linearGradient x1="45.4656" y1="-126.0065" x2="46.0545" y2="-126.0065" gradientUnits="userSpaceOnUse" gradientTransform="matrix(117.135, 0, 0, 18.6219, -5208.417, 2651.479)" id="z2"><stop offset="0%" stop-color="#D9952A" stop-opacity="1" /><stop offset="6.438854%" stop-color="#CA7519" stop-opacity="1" /><stop offset="30.54%" stop-color="#E3AD3A" stop-opacity="1" /><stop offset="51.05%" stop-color="#FFEC91" stop-opacity="1" /><stop offset="68.8%" stop-color="#E9BD44" stop-opacity="1" /><stop offset="86.24%" stop-color="#FFED6C" stop-opacity="1" /><stop offset="93.87%" stop-color="#F2D353" stop-opacity="1" /><stop offset="100%" stop-color="#F2B947" stop-opacity="1" /></linearGradient><path d="M119.2 299.9 C119 300.2 118.9 300.6 118.9 301 C118.9 305.5 132.9 309.2 150.3 309.2 C167.7 309.2 181.7 305.5 181.7 301 C181.7 300.6 181.6 300.3 181.4 299.9 C182 300.5 182.4 301.2 182.4 301.9 C182.4 306.4 168 310.1 150.3 310.1 C132.6 310.1 118.2 306.4 118.2 301.9 C118.2 301.3 118.6 300.6 119.2 299.9 z" id="a3" style="fill:url(#z2)" /><linearGradient x1="45.196" y1="-121.5895" x2="45.3746" y2="-120.6758" gradientUnits="userSpaceOnUse" gradientTransform="matrix(101.745, 0, 0, 23.94, -4458.332, 3199.41)" id="b3"><stop offset="0%" stop-color="#F8DD61" stop-opacity="1" /><stop offset="100%" stop-color="#EAA330" stop-opacity="1" /></linearGradient><ellipse cx="150.3" cy="300.8" rx="27.8" ry="6.6" id="c3" style="fill:url(#b3)" /><linearGradient x1="45.5694" y1="-134.267" x2="45.0221" y2="-134.267" gradientUnits="userSpaceOnUse" gradientTransform="matrix(101.745, 0, 0, 13.2525, -4458.332, 2077.223)" id="d3"><stop offset="0%" stop-color="#F4CA2F" stop-opacity="1" /><stop offset="51.38%" stop-color="#BF7737" stop-opacity="1" /><stop offset="100%" stop-color="#E4A929" stop-opacity="1" /></linearGradient><path d="M122.6 301.5 C122.5 301.3 122.4 301 122.4 300.8 C122.4 297.2 134.9 294.2 150.2 294.2 C165.5 294.2 178 297.1 178 300.8 C178 301 177.9 301.3 177.8 301.5 C176.3 298.2 164.5 295.6 150.1 295.6 C135.7 295.6 124.1 298.2 122.6 301.5 z" id="e3" style="fill:url(#d3)" /></g></defs><desc>42L555CONOC,CVAZg5+jXDvKUg3VR724tOE6HJsAQO8u7blCkKxgLTF7OOXmzdWRpQ9vFyvMKTKT3TzMQBlyxaWBkx4qC1d2MXitGObDxzzUKl0z53kE/fjAAYeFVMjtxWHIT2ugXnLxjILr1MZubgbFPErSvZg3pOXz9RSh1Z2CYPMC9roZR5Fyl94IDew1n9uzq32a6C53</desc></svg>