<?xml version="1.0" encoding="utf-8"?><!DOCTYPE svg PUBLIC "-//W3C//DTD SVG 1.1//EN" "http://www.w3.org/Graphics/SVG/1.1/DTD/svg11.dtd"><svg x="0" y="0" width="340px" height="340px" viewBox="0, 0, 340, 340" preserveAspectRatio="xMidYMid" font-size="0" id="a" enable-background="new 0 0 340 340" xmlns="http://www.w3.org/2000/svg" xmlns:xlink="http://www.w3.org/1999/xlink" xmlns:xml="http://www.w3.org/XML/1998/namespace" version="1.1"><g id="b" fill="#000"><g id="c"><g transform="translate(0, 0) translate(0, 224)" id="d"><ellipse cx="168.6" cy="53.1" rx="57.8" ry="12.8" fill-opacity="0.25" id="e" /></g><g id="f"><g transform="translate(105.9, 95.59998) translate(0, 107)" id="g"><path d="M40.6 27.9 C34 31.5 24.6 28.4 21.5 21.6 C18.3 14.8 22.1 5.6 29.1 2.9 C26.8 1.1 24 0.4 21.1 0.5 C14.8 0.4 8.4 3.4 4.6 8.5 C0.4 14.2 -0.4 22.4 2.6 28.8 C5 25 5 25 7.5 21.2 C3.5 28.9 6.9 30.6 12.1 37.6 C12.7 35.3 13.2 33.9 14.9 32.7 C14.9 34.9 14.9 36.4 15.5 38.3 C16.2 40.7 16.7 41.1 17.2 42.4 C18.3 42.5 19.3 42.1 20.1 41.4 L19.9 44.6 C20.7 44.8 23.2 44.2 24 44.4 C29.1 44.6 37.1 44.8 40.7 39.1 C44.6 33.4 40.6 27.9 40.6 27.9 z" id="h" fill="#EFE9E6" /><path d="M40.6 27.9 C40.6 27.9 44.6 33.4 40.7 39.1 C37.1 44.8 29.1 44.6 24 44.4 C23.2 44.2 20.7 44.8 19.9 44.6 L20.1 41.4 C19.3 42.1 18.3 42.5 17.2 42.4 C16.7 41.1 16.2 40.7 15.5 38.3 C14.9 36.4 14.9 34.9 14.9 32.7 C13.2 33.9 12.7 35.3 12.1 37.6 C6.7 30.2 3.4 28.6 7.5 21.2 C5 25 5 25 2.6 28.8 C-0.4 22.4 0.4 14.2 4.6 8.5 C8.4 3.4 14.8 0.4 21.1 0.5 C24 0.4 26.8 1.1 29.1 2.9 C22.1 5.6 18.3 14.8 21.5 21.6 C24.6 28.4 34 31.5 40.6 27.9 z M40.3 29.6 C34.4 32.8 23.7 28 20.9 21.9 C18.1 15.8 20.5 4.9 26.7 2.5 C24.6 0.9 22 1.4 19.4 1.5 C13.7 1.4 9.9 3.6 6.4 8.2 C2.7 13.4 1 18.7 3.6 24.5 C5.8 21.1 6.3 21.6 8.6 18.2 C7.6 23.9 7.9 29.4 11.5 33.8 C12 31.7 13.9 31.5 15.5 30.4 C15.5 32.4 15.8 34.4 16.4 36.1 C17.2 39.1 20.7 40.1 21.4 39.5 L21.6 42.5 C22.3 42.7 25.9 42.3 26.7 42.5 C31.3 42.7 37.2 42.7 40.4 37.5 C41.8 34.9 40.6 31.9 40.3 29.6 z" opacity="0.16" id="i" /></g><g transform="translate(123.6, 274.8) scale(1.227743) translate(-123.6, -274.8) translate(102.4, 77.99997) translate(14, 151)" id="j"><path d="M21.4 0.7 C15.4 0.7 10.5 1.3 7.1 4.6 C3.7 7.9 0 10.4 0.4 18.5 C0.8 26.6 3.2 33.9 10.9 36.8 C6.8 39 6.4 40.4 6.8 43.2 C7.1 45.9 6.5 46.6 14 45.9 C19 45.5 23.5 45.2 27.5 45.2 C29.2 42.4 29.8 38.9 29.3 34.7 C30.6 32.1 35 17.8 32.3 12 C29.6 6.2 27.4 0.7 21.4 0.7 z" id="k" fill="#CAC3C0" /><path d="M21.4 0.7 C27.4 0.7 29.6 6.2 32.3 12 C35 17.8 30.6 32.1 29.3 34.7 C29.8 38.9 29.2 42.4 27.5 45.2 C23.5 45.2 19 45.5 14 45.9 C6.5 46.6 7.1 45.9 6.8 43.2 C6.4 40.4 6.8 39 10.9 36.8 C3.2 33.9 0.8 26.6 0.4 18.5 C0 10.4 3.7 7.9 7.1 4.6 C10.5 1.3 15.4 0.7 21.4 0.7 z M21.1 1.4 C15.5 1.4 11 1.9 7.8 5 C4.6 8 1.2 10.3 1.6 17.9 C2 25.4 6 34.1 13.2 36.8 C9.4 38.9 7.8 38.9 8.2 41.5 C8.4 44 7.2 43.9 14.2 43.3 C18.8 42.9 23 42.6 26.7 42.6 C28.3 40 28.9 36.8 28.4 32.9 C29.6 30.5 33.7 17.2 31.2 11.8 C28.7 6.5 26.6 1.4 21.1 1.4 z" opacity="0.15" id="l" /></g><g transform="translate(215, 274.8) scale(1.227743) translate(-215, -274.8) translate(107.6, 78.39996) translate(98, 175.5) scale(-1, 1) translate(-98, -175.5) translate(81, 151)" id="m"><path d="M22.1 0.7 C16.1 0.7 11.2 1.3 7.8 4.6 C4.4 7.9 0.6 10.4 1 18.5 C1.4 26.6 3.8 33.9 11.5 36.8 C7.4 39 7 40.4 7.4 43.2 C7.8 46 7.1 46.6 14.6 45.9 C19.6 45.5 24.1 45.2 28.1 45.2 C29.8 42.4 30.4 38.9 29.9 34.7 C31.2 32.1 35.6 17.8 32.9 12 C30.2 6.2 28 0.7 22.1 0.7 z" id="n" fill="#CAC3C0" /><path d="M22.1 0.7 C28 0.7 30.2 6.2 32.9 12 C35.6 17.8 31.2 32.1 29.9 34.7 C30.4 38.9 29.8 42.4 28.1 45.2 C24.1 45.2 19.6 45.5 14.6 45.9 C7.1 46.6 7.8 46 7.4 43.2 C7 40.4 7.4 39 11.5 36.8 C3.8 33.9 1.4 26.6 1 18.5 C0.6 10.4 4.4 7.9 7.8 4.6 C11.2 1.3 16.1 0.7 22.1 0.7 z M21.8 1.1 C16.2 1.1 11.6 1.7 8.4 4.8 C5.2 7.9 1.6 10.2 2 17.8 C2.4 25.4 6.9 33.7 14.1 36.5 C10.3 38.5 8 38.9 8.4 41.5 C8.8 44.1 7.7 44.2 14.8 43.5 C19.5 43.1 23.7 42.9 27.4 42.9 C29 40.2 29.6 36.9 29.1 33 C30.3 30.6 34.5 17.1 31.9 11.7 C29.4 6.3 27.3 1.1 21.8 1.1 z" opacity="0.15" id="o" /></g><g transform="translate(-285.9, 63.59998) translate(26, 89)" id="p"><path d="M397 32.1 C391 38.3 389.6 53.9 391.7 73.6 C393.8 93.4 398.5 110.6 404.4 118.6 C410.3 126.6 419.1 128.3 429.1 128.3 C439.1 128.3 444.7 128.5 451.9 120.5 C459 112.6 463.7 84.2 465.1 74.4 C466.5 64.7 469.4 41 460.1 32.9 C455.5 28.8 444.8 7 431.3 6.5 C417.8 6 403 26 397 32.1 z" id="q" fill="#CAC3C0" /><path d="M397 32.1 C391 38.3 389.6 53.9 391.7 73.6 C392.6 81.9 396.1 90.6 397.8 97.5 C400.1 107.1 401 114.1 404.4 118.7 C410.3 126.7 419.1 128.4 429.1 128.4 C439.1 128.4 444.7 128.6 451.9 120.6 C459 112.7 463.7 84.3 465.1 74.5 C466.5 64.8 469.4 41.1 460.1 33 C455.5 28.9 444.8 7.3 431.3 6.8 C417.8 6.2 403 26 397 32.1 z" id="r" fill="#CAC3C0" /><path d="M397 32.1 C403 26 417.8 6.2 431.1 6.6 C444.7 7.1 455.4 28.8 459.9 32.8 C469.2 40.9 466.3 64.6 464.9 74.3 C463.5 84.1 458.8 112.5 451.7 120.4 C444.5 128.4 438.9 128.2 428.9 128.2 C418.9 128.2 410.1 126.5 404.2 118.5 C398.3 110.5 393.6 93.2 391.5 73.5 C389.6 53.9 391 38.3 397 32.1 z M398.3 32.4 C392.5 38.4 391.2 53.3 393.2 72.3 C395.2 91.4 399.7 107.8 405.4 115.5 C411.1 123.2 419.5 124.8 429.1 124.8 C438.7 124.8 444.1 125 451 117.3 C457.8 109.7 462.3 82.4 463.7 73 C465 63.7 467.8 40.9 458.9 33.1 C454.3 29.2 444.1 8.5 431 8 C418.2 7.5 404 26.5 398.3 32.4 z" opacity="0.15" id="s" /></g><g fill-rule="evenOdd" transform="translate(134.214, 198.325) scale(0.86, 0.8013602) translate(-128.6, -177.3) translate(106.2, 86.29997) translate(62.5, 144.5) scale(-1, 1) translate(-62.5, -144.5) translate(22, 91)" id="t"><path d="M52 28.8 C53.2 26.7 53.4 15.1 56.8 12.2 C60.4 8.7 63.5 4 65.3 0 C65.9 2.4 67.8 8.5 69 11.2 C69.1 11.5 69.2 11.7 69.4 12 C73.3 19.9 80.6 22.6 80.6 34.9 C80.6 56.8 72.3 51 69.4 67 C68.9 69.6 68.6 72.3 68.3 75 C67.4 83.8 54.2 85.7 54.2 74.4 C54.2 68.1 54.4 62 54.9 55.8 C54 50.1 51 50.2 49.4 45 C47.4 39.1 48.7 34.5 52 28.8 z" id="u" fill="#FEFEFE" /><path d="M11.7 12 C11.8 11.7 11.9 11.5 12.1 11.2 C13.3 8.6 15.1 2.5 15.8 0 C17.6 3.9 20.7 8.7 24.3 12.2 C28.7 15.8 27.9 26.6 29.1 28.8 C32.4 34.5 33.7 39.1 31.8 45.1 C30.2 50.3 27.1 50.3 26.3 55.9 C26.7 62.1 27 68.2 27 74.5 C27 85.8 13.7 81.6 12.8 73.7 C12.6 71.9 12.3 69.7 11.8 67 C8.9 51 0.6 56.8 0.6 34.9 C0.4 22.7 7.8 19.9 11.7 12 z" id="v" fill="#FEFEFE" /><path d="M54.1 75.7 C60 75.4 66.4 72.4 68.7 70.8 C67.4 80.3 67.6 90.2 67.1 96.7 C69.9 95 75.9 97.8 72.1 104.6 C70.1 106.2 66.9 106.5 64.1 106.5 C61.3 106.5 58.5 106.1 56 105 L56.1 104.9 C55.3 104.5 54.7 103.9 54.3 103.3 C51.8 99.6 54 89.5 54.1 75.7 z" id="w" fill="#46494D" /><path d="M68.1 76.1 C67.5 83.8 67.5 91.4 67.1 96.7 C69.9 95 75.9 97.8 72.1 104.6 C70.1 106.2 66.9 106.5 64.1 106.5 C61.3 106.5 58.5 106.1 56 105 L56.1 104.9 C55.3 104.5 54.7 103.9 54.3 103.3 C51.8 99.6 54 89.5 54.1 75.7 C54.2 75.7 54.2 75.7 54.3 75.7 C54.2 75.3 54.2 74.9 54.2 74.4 C54.2 68.1 54.4 62 54.9 55.8 C54 50.1 51 50.2 49.4 45 C47.4 39.1 48.7 34.5 52 28.8 C53.2 26.7 53.4 15.1 56.8 12.2 C60.4 8.7 63.5 4 65.3 0 C65.9 2.4 67.8 8.5 69 11.2 C69.1 11.5 69.2 11.7 69.4 12 C73.3 19.9 80.6 22.6 80.6 34.9 C80.6 56.8 72.3 51 69.4 67 C68.9 69.6 68.6 72.3 68.3 75 C68.3 75.4 68.2 75.7 68.1 76.1 z M66.1 97.8 C66.5 92.7 65.3 87.3 66 76 C66.7 64.7 67.6 66.5 68.1 64 C70.9 48.8 78.5 56.1 78.5 35.3 C78.5 23.5 72.9 20.5 69.2 13 C69 12.7 68.9 12.5 68.8 12.2 C67.6 9.7 65.8 3.8 65.3 1.6 C63.5 5.4 60.6 9.8 57.2 13.2 C53.9 15.9 54.4 27 53.3 29 C50.1 34.4 49.2 37.8 51.1 43.4 C51.7 45.1 56.2 49.2 56.4 55 C56.5 58.8 56.1 74.6 55.6 74 C55.5 87.1 52.4 96.4 54.8 99.9 C55.2 100.5 55.7 101 56.5 101.4 L56.4 101.5 C58.8 102.6 61.5 102.9 64.1 102.9 C66.8 102.9 69.5 103.6 71.4 102.1 C73 99.1 68.8 96.1 66.1 97.8 z" opacity="0.3" id="x" /><path d="M13.8 96.7 C13.3 90.2 13.5 80.3 12.2 70.8 C14.5 72.4 21 75.4 26.8 75.7 C26.9 89.5 29.2 99.6 26.6 103.4 C26.2 104.1 25.5 104.6 24.8 105 L24.9 105.1 C22.4 106.2 19.5 106.6 16.8 106.6 C14.1 106.6 10.8 106.3 8.8 104.7 C5 97.8 11 95 13.8 96.7 z" id="y" fill="#46494D" /><path d="M26.8 76.7 C27 90 29.1 99.7 26.6 103.4 C26.2 104.1 25.5 104.6 24.8 105 L24.9 105.1 C22.4 106.2 19.5 106.6 16.8 106.6 C14.1 106.6 10.8 106.3 8.8 104.7 C5 97.8 11 95 13.8 96.7 C13.3 90.2 13.5 80.3 12.2 70.8 C12.3 70.9 12.4 70.9 12.5 71 C12.3 69.8 12.1 68.5 11.8 67 C8.9 51 0.6 56.8 0.6 34.9 C0.4 22.7 7.8 19.9 11.7 12 C11.8 11.7 11.9 11.5 12.1 11.2 C13.3 8.6 15.1 2.5 15.8 0 C17.6 3.9 20.7 8.7 24.3 12.2 C28.7 15.8 27.9 26.6 29.1 28.8 C32.4 34.5 33.7 39.1 31.8 45.1 C30.2 50.3 27.1 50.3 26.3 55.9 C26.7 62.1 27 68.2 27 74.5 C27 75.3 26.9 76 26.8 76.7 z M25.4 75.8 C24.7 66.6 24.3 60 24 56 C24.8 50.6 28.6 49.5 30.1 44.5 C32 38.7 31.8 34.3 28.6 28.8 C27.5 26.7 28.2 16.3 24 12.8 C20.5 9.4 17.6 4.8 15.8 1 C15.2 3.4 13.4 9.3 12.3 11.8 C12.1 12.1 12 12.3 11.9 12.6 C8.1 20.2 1.8 22.8 2 34.6 C2 55.8 10.9 52.3 13.3 63 C15.6 73.8 14.9 90.6 14.8 97.6 C12.1 96 7.8 98.3 9.1 102.2 C11 103.7 14.2 104 16.8 104 C17.9 104 20.8 103.8 22.5 103.3 C24.9 102.5 23.4 102.8 25 101.5 C27.4 97.9 25.6 88.6 25.4 75.8 z" opacity="0.3" id="z" /></g></g><g id="a1"><g transform="translate(86.10002, 95.99997) translate(44, 0)" id="b1"><path d="M45.1 1.4 C55.8 2.8 63.2 5.8 66.5 8.6 C69.8 11.4 74.2 15 76.3 20.8 C78.4 26.6 79.7 33.1 78.8 39.4 C78.2 43 76.1 49.2 74.9 52 C72.5 57.5 70.1 60 69 63.4 C67.8 67 66.4 72 65.1 77.1 C63.8 82.2 59.8 86.5 57.1 88.8 C54.8 90.7 50.1 90.1 49.3 90.8 C46.3 93.7 45.4 95 39 94.9 C32.6 94.9 29.6 91.2 29 90.8 C28.3 90.2 25.3 91.1 22.3 88.9 C19.2 86.6 15 84.1 12.5 77.3 C10 70.5 9.4 67.2 8.9 63.3 C8.1 57 2.9 49.8 1.9 46.5 C0.9 43.2 -1.9 29.5 2.2 20.7 C6.3 11.9 7.2 10.3 14.1 6.6 C18 4.6 25.3 1.9 30.3 1.4 C34.1 1 40.8 0.8 45.1 1.4 z" id="c1" fill="#EFE9E6" /><path d="M18.7 4.7 C20.9 4.5 22.8 4.3 24.3 4.2 C27.3 3.9 31.9 3.1 33.3 3.8 C36.7 5.8 37.9 6.8 39.9 6.9 C41.9 7.1 44.8 3.8 47 3.8 C48 3.8 51.4 4.2 54.6 4.3 C55.5 4.3 56.6 4.3 58 4.1 C50.9 1.9 44.7 0.8 39.5 0.8 C36.4 0.8 31.9 1.1 27.6 2 C25.5 2.4 22.6 3.3 18.7 4.7 z" id="d1" fill="#D07331" /><path d="M57 4.6 C57.1 4.6 57.2 4.6 57.4 4.6 C50.5 2.5 44.5 1.4 39.5 1.4 C37.7 1.4 35.3 1.5 32.8 1.8 C32 1.8 31.3 1.9 30.6 2 C25.8 2.5 18.7 5 15 7 C8.3 10.5 7.4 12 3.5 20.5 C-0.5 28.9 2.2 42 3.2 45.2 C4.1 48.3 9.2 55.2 9.9 61.2 C10.4 65 11 68.1 13.4 74.7 C15.8 81.2 19.9 83.6 22.9 85.8 C25.8 87.9 28.7 87 29.4 87.6 C29.9 88 32.8 91.5 39 91.5 C45.2 91.6 46.1 90.4 49 87.6 C49.7 86.9 54.3 87.5 56.5 85.7 C59.1 83.5 63 79.3 64.2 74.5 C65.5 69.6 66.8 64.8 68 61.3 C69.1 58.1 71.4 55.7 73.7 50.4 C74.9 47.7 76.9 41.8 77.5 38.4 C78.3 32.3 77.1 26.1 75.1 20.6 C73 15 68.8 11.5 65.6 8.9 C63.9 7.4 61 5.9 57 4.6 z M57.6 4.1 C61.7 5.5 64.7 7.1 66.5 8.6 C69.8 11.4 74.2 15 76.3 20.8 C78.4 26.6 79.7 33.1 78.8 39.4 C78.2 43 76.1 49.2 74.9 52 C72.5 57.5 70.1 60 69 63.4 C67.8 67 66.4 72 65.1 77.1 C63.8 82.2 59.8 86.5 57.1 88.8 C54.8 90.7 50.1 90.1 49.3 90.8 C46.3 93.7 45.4 95 39 94.9 C32.6 94.9 29.6 91.2 29 90.8 C28.3 90.2 25.3 91.1 22.3 88.9 C19.2 86.6 15 84.1 12.5 77.3 C10 70.5 9.4 67.2 8.9 63.3 C8.1 57 2.9 49.8 1.9 46.5 C0.9 43.2 -1.9 29.5 2.2 20.7 C6.3 11.9 7.2 10.3 14.1 6.6 C18 4.6 25.3 1.9 30.3 1.4 C31 1.3 31.7 1.3 32.6 1.2 C35.2 0.9 37.6 0.8 39.5 0.8 C44.7 0.8 50.9 1.9 58 4.1 C57.9 4.1 57.7 4.1 57.6 4.1 z" opacity="0.45" id="e1" /></g><g transform="translate(137.9, 115.2) scale(0.7) translate(-137.9, -115.2) translate(101.7, 94.89996)" id="f1"><g id="g1"><path d="M43.8 4.7 C43.8 4.7 46 6.8 47.8 8.8 C51.2 12.7 49.4 16.5 45.6 18.1 C43.1 19.2 40.1 20.6 38 22.9 C35.6 25.5 33 28 31.3 30.2 C29.5 32.5 27.2 34.1 25 33.6 C19.8 32.4 15.4 21.2 17.5 17.2 C20.9 10.8 43.8 4.7 43.8 4.7 z" id="h1" fill="#46494D" /><path d="M18.4 16 C18.4 15.8 18.5 15.5 18.6 15.3 C21 10.9 32.4 7.6 38.3 6.3 C41.5 5.3 43.8 4.7 43.8 4.7 C43.8 4.7 46 6.8 47.8 8.8 C51.2 12.7 49.4 16.5 45.6 18.1 C43.1 19.2 40.1 20.6 38 22.9 C35.6 25.5 33 28 31.3 30.2 C29.5 32.5 27.2 34.1 25 33.6 C19.8 32.4 15.4 21.2 17.5 17.2 C17.7 16.8 18 16.4 18.4 16 z M18.4 16 C17.1 20.2 20.7 29.6 25.3 30.7 C27.4 31.2 29.2 30.1 30.9 27.9 C32.5 25.9 35.2 23.7 37.4 21.3 C39.4 19.1 43.2 17.6 45.5 16.6 C49 15.1 49 11.9 45.8 8.3 C44.1 6.4 42.9 5.7 41.8 5.7 C41.6 5.7 40.2 5.9 38.3 6.3 C32 8.4 21.9 12.1 18.4 16 z" opacity="0.2" id="i1" /><path d="M45.2 6 C36.5 -2.4 38.1 3.6 23.1 0.9 C8.1 -1.8 -4.2 15.2 2 35.3 C7.5 53.2 8 60.6 11.3 60.6 C17 60.6 19.2 40 27.1 24.3 C33 12.9 45.2 6 45.2 6 z" id="j1" fill="#EFE9E6" /><path d="M45.2 6 C45.2 6 33 12.9 27.1 24.3 C19.2 40 17 60.6 11.3 60.6 C8 60.6 7.5 53.2 2 35.3 C-4.2 15.2 8.1 -1.8 23.1 0.9 C38.1 3.6 36.5 -2.4 45.2 6 z M43 6 C35 -1.7 36.4 3.8 22.6 1.3 C8.7 -1.2 -1.9 14.5 3.9 33.1 C9 49.7 9.1 55.4 12.1 55.4 C17.4 55.4 17.9 38 25.3 23.5 C30.7 13 43 6 43 6 z" opacity="0.15" id="k1" /></g></g><g transform="translate(198.7, 114.7) scale(0.7) translate(-198.7, -114.7) translate(109.9, 94.39996) translate(100, 30.5) scale(-1, 1) translate(-100, -30.5) translate(75, 0)" id="l1"><g id="m1"><path d="M43.8 4.7 C43.8 4.7 46 6.8 47.8 8.8 C51.2 12.7 49.4 16.5 45.6 18.1 C43.1 19.2 40.1 20.6 38 22.9 C35.6 25.5 33 28 31.3 30.2 C29.5 32.5 27.2 34.1 25 33.6 C19.8 32.4 18.1 20.4 20.4 16.7 C23.9 11.1 43.8 4.7 43.8 4.7 z" id="n1" fill="#46494D" /><path d="M24.7 13 C30.9 8.8 43.1 4.9 43.1 4.9 C43.1 4.9 43.1 4.9 43.1 4.9 C43.6 4.8 43.8 4.7 43.8 4.7 C43.8 4.7 46 6.8 47.8 8.8 C51.2 12.7 49.4 16.5 45.6 18.1 C43.1 19.2 40.1 20.6 38 22.9 C35.6 25.5 33 28 31.3 30.2 C29.5 32.5 27.2 34.1 25 33.6 C19.8 32.4 18.1 20.4 20.4 16.7 C21.2 15.5 22.7 14.2 24.7 13 z M24.7 13 C23.2 14 22.1 14.9 21.5 15.9 C19.4 19.3 21 30.4 25.8 31.5 C27.8 31.9 29.9 30.4 31.6 28.3 C33.1 26.3 35.5 24 37.7 21.6 C39.7 19.5 42.4 18.2 44.7 17.2 C48.2 15.7 49.9 12.2 46.7 8.6 C45.3 7 43.5 5.3 43.1 4.9 C40.5 5.8 30.7 9.2 24.7 13 z" opacity="0.2" id="o1" /><path d="M45.2 6 C36.5 -2.4 38.1 3.6 23.1 0.9 C8.1 -1.8 -4.2 15.2 2 35.3 C7.5 53.2 8 60.6 11.3 60.6 C17 60.6 19.2 40 27.1 24.3 C33 12.9 45.2 6 45.2 6 z" id="p1" fill="#EFE9E6" /><path d="M45.2 6 C45.2 6 33 12.9 27.1 24.3 C19.2 40 17 60.6 11.3 60.6 C8 60.6 7.5 53.2 2 35.3 C-4.2 15.2 8.1 -1.8 23.1 0.9 C38.1 3.6 36.5 -2.4 45.2 6 z M43.6 5.8 C37.3 -0.8 36.7 4 22.9 1.5 C9 -1 -1.7 15.6 4 34.3 C9.1 50.9 8.3 56.1 11.4 56.1 C16.6 56.1 15.6 40.4 26.3 23.3 C31.7 12.7 43.6 5.8 43.6 5.8 z" opacity="0.15" id="q1" /></g></g><g id="r1"><g transform="translate(-285.9, 56.79996) translate(40, 47)" id="s1"><path d="M383.8 30.1 C384.8 31.9 394.2 51.5 396.3 60.1 C398.4 68.9 398 81.4 414.2 80.8 C430.4 80.2 431 79.1 434.8 60.1 C438.6 41.1 446.4 32.5 446.8 30 C447.3 27.5 445 26.3 441.3 22.6 C437.6 19 434.5 11.3 428.3 11.2 C423.8 10.9 414.6 20.8 426 34.3 C426.7 35 432.1 45 430.3 45.8 C428.5 45.8 427 43.1 424.6 40.7 C423.4 39.5 420.7 38 419.7 36.6 C418.7 34.7 417.8 28.5 417.4 22.4 C416.9 14.4 417.1 6.3 415.7 6.4 C413.2 6.4 413.2 32.4 411.8 36.6 C411.1 38.8 409.2 39.1 407.5 40.7 C404.9 43.1 402.3 46.1 401.1 45.8 C399.6 45.6 402 37.5 404.7 35.6 C412.6 28.8 409.6 11.3 404.7 11.3 C396.8 11.3 395.5 16.4 392.2 20.1 C388.9 24 382.7 28.2 383.8 30.1 z" id="t1" fill="#FFF" /><path d="M383.8 30.1 C382.7 28.2 388.9 24 392.2 20.2 C395.5 16.5 396.8 11.4 404.7 11.4 C409.6 11.4 412.6 28.9 404.7 35.7 C402 37.6 399.6 45.7 401.1 45.9 C402.3 46.2 404.9 43.2 407.5 40.8 C409.2 39.2 411.1 38.9 411.8 36.7 C413.2 32.5 413.2 6.5 415.7 6.5 C417.1 6.4 416.9 14.5 417.4 22.5 C417.8 28.6 418.7 34.8 419.7 36.7 C420.7 38.1 423.4 39.6 424.6 40.8 C427 43.2 428.5 45.9 430.3 45.9 C432.1 45.1 426.7 35.1 426 34.4 C414.6 20.9 423.8 11 428.3 11.3 C434.5 11.4 437.6 19.1 441.3 22.7 C445 26.4 447.3 27.6 446.8 30.1 C446.4 32.6 438.6 41.3 434.8 60.2 C431 79.2 430.4 80.3 414.2 80.9 C398 81.5 398.4 69 396.3 60.2 C394.2 51.5 384.8 31.9 383.8 30.1 z M385.5 29.8 C386.5 31.5 395.4 50.1 397.3 58.2 C399.3 66.5 398.9 78.3 414.2 77.8 C429.5 77.2 430.1 76.2 433.7 58.2 C437.3 40.2 444.7 32.1 445 29.8 C445.5 27.4 443.3 26.3 439.8 22.8 C436.4 19.4 434.3 11.5 428.5 11.4 C424.2 11.1 415.5 20.8 426.2 33.5 C426.9 34.2 433.6 45.4 430.8 47.3 C429.1 47.3 425.4 43 423.1 40.7 C422 39.6 419.7 37.6 418.7 36.3 C417.8 34.5 417 28.3 416.6 22.5 C416.1 14.9 416.9 7.4 415.6 7.5 C413.2 7.5 414.1 32.5 412.7 36.4 C412 38.5 410.2 39.7 408.6 41.2 C406.1 43.5 400.6 47.8 399.5 47.5 C398.1 47.3 401.6 36.7 404.2 34.9 C411.7 28.5 407.7 12 404.6 12.1 C397.1 12.1 396.6 16.9 393.4 20.4 C390.4 24.1 384.5 28.1 385.5 29.8 z" opacity="0.15" id="u1" /></g><g transform="translate(92.39999, 71.19997) translate(61, 96)" id="v1"><g transform="translate(0.600098, 0)" id="w1"><path d="M0.1 2.5 C1.5 5.1 2.5 6.8 3 7.7 C3.8 9.2 4 9.8 5 11.7 C6 13.6 8.2 16 9.4 16.1 C10.4 16.1 12.9 16.6 15.3 16.6 C17.3 16.6 19.4 16.3 20.2 16.3 C21.1 16.3 23.1 15.8 24.3 15 C25 14.5 26.4 11.5 27.1 10.6 C27.2 10.4 28.2 8.4 30 4.5 C28.5 6.1 27.5 7.3 27 8 C25.4 10.2 24.6 11.8 23.9 11.8 C22.3 11.8 12.7 12.1 9.9 12.1 C8.6 12.1 6.9 10.1 4.3 7.2 C3.4 6.3 2 4.8 0.1 2.5 z" id="x1" fill="#665F57" /><g id="y1"><path d="M3.6 7.2 C4.1 8.2 6.6 11.9 7.8 13.1 C8.7 14 9.6 14.3 10.9 14.3 C13.4 14.3 18.4 14.6 20.8 14.3 C21.8 14.2 22.8 14.4 23.8 13.5 C25.1 12.3 26.5 9.6 27.3 8.3 C28.2 6.7 30.3 4.6 31 2.5 C30.5 1.5 30.6 0 29.5 0.1 C28.1 1.1 25.7 3.8 23.6 4.5 C21.8 5.1 18.4 5.9 15.5 5.8 C12.3 5.7 9.6 4.8 7.8 4.4 C5.7 3.9 3.4 1.1 1.7 0 C0.7 0.3 0.2 1.8 0 2.4 C0.9 4.3 3 6 3.6 7.2 z" id="z1" /><g transform="translate(3.576923, 1.4)" id="a2"><path d="M0.9 0.4 C1.3 2.6 1.7 4.3 2.3 5.6 C2.7 6.4 3.2 7.6 4 8.8 C4.2 9.2 4.8 9.7 5.8 10.3 C5.1 8.3 4.7 6.9 4.6 6 C4.5 4.5 5.1 3.5 4.9 3.1 C4.7 2.7 3.8 2.7 3 2.1 C2.4 1.8 1.7 1.2 0.9 0.4 z" id="b2" fill="#FFF" /><path d="M7.7 10.9 C7.6 10.6 7.5 10.2 7.5 9.8 C7.5 9.4 7.6 8.9 7.7 8.3 C8.4 8.8 8.9 9.2 9.3 9.5 C9.6 9.8 10.1 10.4 10.6 11.1 C10.1 11.1 9.6 11.1 9.1 11.1 C8.5 11.1 8 11 7.7 10.9 z" id="c2" fill="#FFF" /><path d="M14.6 11.1 C15 11.2 15.5 11.2 16.1 11.1 C16.7 11 17 10.9 17 10.7 C17.1 10.3 17.2 10 17.2 9.8 C17.2 9.6 17.2 9.2 17.2 8.5 C16.4 9 15.8 9.4 15.5 9.7 C15.2 10 14.9 10.5 14.6 11.1 z" id="d2" fill="#FFF" /><path d="M18.7 10.2 C19.1 8.4 19.4 7.2 19.5 6.5 C19.6 5.7 19.7 4.2 19.7 3.8 C19.7 3 20 2.6 20.5 2.6 L23.3 0.5 C22.9 2.8 22.4 4.6 21.9 6 C21.4 7.4 20.3 8.8 18.7 10.2 z" id="e2" fill="#FFF" /><path d="M5.6 3.2 C6.3 3.4 6.7 3.5 7 3.5 C7.3 3.6 7.7 3.6 8.2 3.8 C8 4.4 7.9 4.9 7.8 5.3 C7.7 5.7 7.8 6.3 7.8 7.1 C7.4 6.9 7.1 6.7 6.9 6.5 C6.5 6.1 6.2 5.3 6.1 5.1 C5.9 4.7 5.7 4.1 5.6 3.2 z" id="f2" fill="#FFF" /><path d="M8.9 3.8 C9.5 4 10 4.1 10.3 4.1 C10.6 4.1 11 4.1 11.5 4.2 C11.3 4.9 11.2 5.4 11 5.8 C10.9 6.2 10.7 6.7 10.6 7.3 C9.9 6.5 9.5 6 9.4 5.7 C9.2 5.4 9.1 4.8 8.9 3.8 z" id="g2" fill="#FFF" /><path d="M13 4.2 C12.9 4.8 12.9 5.2 13 5.6 C13.1 6 13.2 6.6 13.4 7.3 C14 6.6 14.4 6.1 14.7 5.8 C15 5.4 15.3 4.8 15.5 3.9 C15 4 14.6 4.1 14.3 4.2 C14 4.3 13.6 4.2 13 4.2 z" id="h2" fill="#FFF" /><path d="M16.4 3.8 C16.5 4.4 16.5 4.9 16.4 5.3 C16.3 5.6 16.2 6.3 16 7.1 C16.5 6.9 16.9 6.7 17.1 6.5 C17.6 6.1 18.1 5.5 18.3 5.3 C18.7 4.9 19 4.2 19.3 3.2 C18.7 3.4 18.2 3.5 17.9 3.6 C17.6 3.6 17.1 3.7 16.4 3.8 z" id="i2" fill="#FFF" /></g></g></g></g><g transform="translate(169.8, 158.8) scale(1) translate(-169.8, -163.8) translate(102.7, 90.49996) translate(56, 65)" id="j2"><g id="k2"><path d="M20.3 1.6 C18.3 -0.6 14.7 0.3 11.1 0.3 C7.5 0.3 3.9 -0.6 1.9 1.6 C-0.1 3.8 -0.1 7.6 1.9 9.8 C3.3 11.3 4.7 12.2 6.6 13.2 C8.2 14.1 9.3 16.2 11 16.4 C12.8 16.2 13.8 14 15.4 13.2 C17.4 12.2 18.8 11.3 20.1 9.8 C22.3 7.6 22.3 3.9 20.3 1.6 z" id="l2" fill="#282523" /><path d="M16.8 3.2 C16.6 2.6 15.3 2.5 14.4 2.3 C12.8 2 10.5 2.2 7.8 2.2 C7.1 2.2 6.4 2.2 5.7 2.5 C5 2.8 4.6 3.5 4.7 4.2 C4.9 5.4 6.4 5.6 7.6 5.6 C9.5 5.6 11.5 5.6 13.4 5.5 C14.2 5.5 15 5.5 15.8 5.1 C16.6 4.7 17.1 4 16.8 3.2 z" id="m2" fill="#FEFEFE" /></g></g><g transform="translate(-285.9, 56.79996) translate(43, 64)" id="n2"><path d="M402.1 16.9 C403.3 14.6 402.9 13.9 402.9 12.1 C402.9 10.3 402.7 8.4 400.1 7 C396.5 5.3 392.3 5.2 389.8 6.5 C386.4 8.3 383.6 10 384.3 11.5 C385.1 13.2 388 17.1 389.4 17.9 C392.1 19.5 396.1 20.2 398.2 19.7 C399.8 19.3 401.2 18.7 402.1 16.9 z" id="o2" fill="#CAC3C0" /><path d="M401.2 18.1 C402 17.4 401.6 14.8 401.2 13.6 C400.7 12.5 399.2 10.9 397 10.3 C394.1 9.6 393.6 9.7 391.1 10 C389.8 10.1 388.6 9.9 388.2 10.6 C387.6 11.3 387.5 12.5 387.9 13.6 C388.3 14.7 388.4 15.3 389.1 16.1 C389.8 17 390.7 17.7 391.3 18.1 C393.5 19.3 396.8 19.9 398.5 19.5 C399.7 19.2 400.4 18.8 401.2 18.1 z" id="p2" fill="#1F2123" /><path d="M396 16.2 C394.9 16.2 393.9 15.3 393.9 14.2 C393.8 13.1 394 12.5 395 12.7 C395.9 12.8 396.6 12.9 396.9 13.1 C397.8 13.5 397.8 13.2 397.9 14.1 C398 14.5 397.9 14.8 397.8 15 C397.5 15 397 14.7 396.3 14.4 C396.5 15.2 396.6 15.7 396.7 16.1 C396.3 16.3 396.4 16.2 396 16.2 z" id="q2" fill="#FFF" /></g><g transform="translate(-285.9, 56.89996) translate(82, 64)" id="r2"><path d="M384.3 16.9 C383.1 14.6 383.5 13.9 383.5 12.1 C383.5 10.3 383.7 8.4 386.3 7 C389 5.6 392.8 5.6 396.6 6.5 C400.4 7.4 402.8 10 402.1 11.5 C401.3 13.2 398.4 17.1 397 17.9 C394.3 19.5 390.3 20.2 388.2 19.7 C386.6 19.3 385.2 18.7 384.3 16.9 z" id="s2" fill="#CAC3C0" /><path d="M385.2 18.1 C384.4 17.4 384.8 14.8 385.2 13.6 C385.7 12.5 387.2 10.9 389.4 10.3 C392.3 9.6 392.8 9.7 395.3 10 C396.6 10.1 397.8 9.9 398.2 10.6 C398.8 11.3 398.9 12.5 398.5 13.6 C398.1 14.7 398 15.3 397.3 16.1 C396.6 17 395.7 17.7 395.1 18.1 C392.9 19.3 389.6 19.9 387.9 19.5 C386.7 19.2 386 18.8 385.2 18.1 z" id="t2" fill="#1F2123" /><path d="M390.4 16.2 C391.5 16.2 392.5 15.3 392.5 14.2 C392.6 13.1 392.4 12.5 391.4 12.7 C390.5 12.8 389.8 12.9 389.5 13.1 C388.6 13.5 388.6 13.2 388.5 14.1 C388.4 14.5 388.5 14.8 388.6 15 C388.9 15 389.4 14.7 390.1 14.4 C389.9 15.2 389.8 15.7 389.7 16.1 C390.1 16.3 390 16.2 390.4 16.2 z" id="u2" fill="#FFF" /></g></g></g></g></g><defs><g transform="translate(17.09519, 0.800995) translate(-135.2952, -293.601)" id="v2" fill="#000"><path d="M118.2 302.7 C118.4 307.4 132.5 311.2 149.8 311.2 C167.1 311.2 181.2 307.4 181.4 302.7 C181.4 307.5 181.4 310.1 181.4 310.5 C181.4 315.3 167.3 319.1 149.8 319.1 C132.3 319.1 118.2 315.2 118.2 310.5 L118.2 302.7 L118.2 302.7 z" fill-opacity="0.4528" id="w2" fill="#593001" /><path d="M118.7 301.7 C118.9 306.4 133 310.2 150.3 310.2 C167.6 310.2 181.7 306.4 181.9 301.7 C181.9 306.5 181.9 309.1 181.9 309.5 C181.9 314.3 167.8 318.1 150.3 318.1 C132.8 318.1 118.7 314.2 118.7 309.5 L118.7 301.7 L118.7 301.7 z" id="x2" fill="#DA8113" /><linearGradient x1="46.0545" y1="-118.6926" x2="45.4656" y2="-118.6926" gradientUnits="userSpaceOnUse" gradientTransform="matrix(117.135, 0, 0, 28.4634, -5208.417, 3687.795)" id="y2"><stop offset="0%" stop-color="#D9952A" stop-opacity="1" /><stop offset="6.438854%" stop-color="#CA7519" stop-opacity="1" /><stop offset="30.54%" stop-color="#E3AD3A" stop-opacity="1" /><stop offset="51.05%" stop-color="#FFEC91" stop-opacity="1" /><stop offset="68.8%" stop-color="#E9BD44" stop-opacity="1" /><stop offset="86.24%" stop-color="#FFED6C" stop-opacity="1" /><stop offset="93.87%" stop-color="#F2D353" stop-opacity="1" /><stop offset="100%" stop-color="#F2B947" stop-opacity="1" /></linearGradient><path d="M118.2 301.6 C118.4 306.1 132.7 309.7 150.3 309.7 C167.9 309.7 182.2 306.1 182.4 301.6 C182.4 306.2 182.4 308.7 182.4 309 C182.4 313.5 168 317.2 150.3 317.2 C132.6 317.2 118.2 313.5 118.2 309 L118.2 301.6 L118.2 301.6 z" id="z2" style="fill:url(#y2)" /><linearGradient x1="45.4914" y1="-117.9547" x2="45.9407" y2="-117.5895" gradientUnits="userSpaceOnUse" gradientTransform="matrix(115.425, 0, 0, 29.925, -5125.077, 3826.124)" id="a3"><stop offset="0%" stop-color="#F4E072" stop-opacity="1" /><stop offset="100%" stop-color="#DB9427" stop-opacity="1" /></linearGradient><ellipse cx="150.3" cy="301.5" rx="31.6" ry="8.2" id="b3" style="fill:url(#a3)" /><linearGradient x1="45.4656" y1="-126.0065" x2="46.0545" y2="-126.0065" gradientUnits="userSpaceOnUse" gradientTransform="matrix(117.135, 0, 0, 18.6219, -5208.417, 2651.479)" id="c3"><stop offset="0%" stop-color="#D9952A" stop-opacity="1" /><stop offset="6.438854%" stop-color="#CA7519" stop-opacity="1" /><stop offset="30.54%" stop-color="#E3AD3A" stop-opacity="1" /><stop offset="51.05%" stop-color="#FFEC91" stop-opacity="1" /><stop offset="68.8%" stop-color="#E9BD44" stop-opacity="1" /><stop offset="86.24%" stop-color="#FFED6C" stop-opacity="1" /><stop offset="93.87%" stop-color="#F2D353" stop-opacity="1" /><stop offset="100%" stop-color="#F2B947" stop-opacity="1" /></linearGradient><path d="M119.2 299.9 C119 300.2 118.9 300.6 118.9 301 C118.9 305.5 132.9 309.2 150.3 309.2 C167.7 309.2 181.7 305.5 181.7 301 C181.7 300.6 181.6 300.3 181.4 299.9 C182 300.5 182.4 301.2 182.4 301.9 C182.4 306.4 168 310.1 150.3 310.1 C132.6 310.1 118.2 306.4 118.2 301.9 C118.2 301.3 118.6 300.6 119.2 299.9 z" id="d3" style="fill:url(#c3)" /><linearGradient x1="45.196" y1="-121.5895" x2="45.3746" y2="-120.6758" gradientUnits="userSpaceOnUse" gradientTransform="matrix(101.745, 0, 0, 23.94, -4458.332, 3199.41)" id="e3"><stop offset="0%" stop-color="#F8DD61" stop-opacity="1" /><stop offset="100%" stop-color="#EAA330" stop-opacity="1" /></linearGradient><ellipse cx="150.3" cy="300.8" rx="27.8" ry="6.6" id="f3" style="fill:url(#e3)" /><linearGradient x1="45.5694" y1="-134.267" x2="45.0221" y2="-134.267" gradientUnits="userSpaceOnUse" gradientTransform="matrix(101.745, 0, 0, 13.2525, -4458.332, 2077.223)" id="g3"><stop offset="0%" stop-color="#F4CA2F" stop-opacity="1" /><stop offset="51.38%" stop-color="#BF7737" stop-opacity="1" /><stop offset="100%" stop-color="#E4A929" stop-opacity="1" /></linearGradient><path d="M122.6 301.5 C122.5 301.3 122.4 301 122.4 300.8 C122.4 297.2 134.9 294.2 150.2 294.2 C165.5 294.2 178 297.1 178 300.8 C178 301 177.9 301.3 177.8 301.5 C176.3 298.2 164.5 295.6 150.1 295.6 C135.7 295.6 124.1 298.2 122.6 301.5 z" id="h3" style="fill:url(#g3)" /></g></defs><desc>4F9G8G4LD44,M9WAaMTUJPm+h6nnnwrG5zLVPMvz3gjlBy2x+osRdWhKY/ekoo8TVx2wYfGd2yPgRa+4G9hgNdVX/7L9Skarp8HK93Zb9hf4eEru06Vgla3zNgjSkRppxum9exg9esC4HnJ8Xg4WzWDuTQ9qz18b4g==</desc></svg>