<?xml version="1.0" encoding="utf-8"?><!DOCTYPE svg PUBLIC "-//W3C//DTD SVG 1.1//EN" "http://www.w3.org/Graphics/SVG/1.1/DTD/svg11.dtd"><svg x="0" y="0" width="340px" height="340px" viewBox="0, 0, 340, 340" preserveAspectRatio="xMidYMid" font-size="0" id="a" enable-background="new 0 0 340 340" xmlns="http://www.w3.org/2000/svg" xmlns:xlink="http://www.w3.org/1999/xlink" xmlns:xml="http://www.w3.org/XML/1998/namespace" version="1.1"><g id="b" fill="#000"><g id="c"><g transform="translate(0, 0) translate(0, 224)" id="d"><ellipse cx="168.6" cy="53.1" rx="57.8" ry="12.8" fill-opacity="0.25" id="e" /></g><g id="f"><g transform="translate(113.1, 101.5) translate(16.5, 128.5) scale(-1, 1) translate(-16.5, -128.5) translate(6, 115)" id="g"><g id="h" fill="#D8D8D8"><path d="M15.1 3.5 C17 0.9 18.1 -0.5 19.6 0.1 C21 0.7 21 2.3 20.4 4.9 C18.8 11.3 13.3 23 7.5 26 C3.3 28.2 -1.9 24.1 0.7 21.3 C5.9 15.6 10.5 9.7 15.1 3.5 z" id="i" /></g></g><g transform="translate(121.7, 275.3) scale(1.144674) translate(-121.7, -275.3) translate(101.5, 89.29997) translate(9, 128)" id="j"><g id="k" fill="#32363A"><path d="M30.2 2.4 C36.6 5.6 41.6 13 41.6 20.3 C41.5 28.8 35.3 31.8 32.4 38.7 C29.9 44.7 31.1 48.9 26.6 53.5 C22.4 57.8 15.9 57.3 14.2 49.9 C15.1 34.4 5.7 33.7 2.5 25.9 C0.1 20 -1 12.1 5.9 6 C11.6 0.8 23.3 -1.1 30.2 2.4 z" id="l" /></g><path d="M14.1 49.8 C24.6 48.5 26.3 42.9 31.7 40.9 C31 46.6 35 53.5 31 57.5 C26.8 61.8 16.6 61 10.3 60.1 C3.7 59 8.1 46.7 14.1 49.8 z" id="m" fill="#D8D8D8" /><path d="M31.6 40.9 C31.6 40.9 31.7 40.9 31.7 40.9 C31 46.6 35 53.5 31 57.5 C26.8 61.8 16.6 61 10.3 60.1 C3.7 59 8.1 46.7 14.1 49.8 C14.1 49.8 14.2 49.8 14.2 49.8 C15.1 34.4 5.7 33.7 2.5 25.9 C0.1 20 -1 12.1 5.9 6 C11.6 0.8 23.3 -1.1 30.2 2.4 C36.6 5.6 41.6 13 41.6 20.3 C41.5 28.8 35.3 31.8 32.4 38.7 C32.1 39.5 31.8 40.2 31.6 40.9 z M29.7 55.6 C33.5 51.8 30.4 44.7 31 39.4 C31.2 38.7 31.5 38 31.8 37.3 C34.5 30.7 40.4 27.9 40.5 19.9 C40.5 13 35.7 6 29.7 3 C23.2 -0.3 12.1 1.5 6.8 6.4 C0.2 12.1 1.3 19.6 3.5 25.2 C6.6 32.5 16.4 33.5 15.6 48 C15.6 48 14.6 51.5 14.6 51.5 C8.9 48.6 5.5 57.2 11.8 58.3 C17.7 59.1 25.7 59.7 29.7 55.6 z" opacity="0.3" id="n" /></g><g transform="translate(218.3, 275.3) scale(1.144674) translate(-218.3, -275.3) translate(113.2, 89.29997) translate(95, 158.5) scale(-1, 1) translate(-95, -158.5) translate(74, 128)" id="o"><g id="p" fill="#32363A"><path d="M30.2 2.4 C36.6 5.6 41.6 13 41.6 20.3 C41.5 28.8 35.3 31.8 32.4 38.7 C29.9 44.7 30.4 49.7 25.9 54.3 C21.7 58.6 12.6 54.5 14.2 49.8 C15.1 34.3 5.7 33.6 2.5 25.8 C0.1 19.9 -1 12 5.9 5.9 C11.6 0.8 23.3 -1.1 30.2 2.4 z" id="q" /></g><path d="M14.1 49.8 C24.6 48.5 26.3 42.9 31.7 40.9 C31 46.6 35 53.5 31 57.5 C26.8 61.8 16.6 61 10.3 60.1 C3.7 59 8.1 46.7 14.1 49.8 z" id="r" fill="#D8D8D8" /><path d="M31.6 40.9 C31.6 40.9 31.7 40.9 31.7 40.9 C31 46.6 35 53.5 31 57.5 C26.8 61.8 16.6 61 10.3 60.1 C3.7 59 8.1 46.7 14.1 49.8 C14.1 49.8 14.2 49.8 14.2 49.8 C15.1 34.3 5.7 33.6 2.5 25.8 C0.1 19.9 -1 12 5.9 5.9 C11.6 0.8 23.3 -1.1 30.2 2.4 C36.6 5.6 41.6 13 41.6 20.3 C41.5 28.8 35.3 31.8 32.4 38.7 C32.1 39.5 31.8 40.2 31.6 40.9 z M30.5 40 C32.6 32.4 39.9 27.9 40 19.7 C40 12.7 35.4 5.6 29.5 2.5 C23.2 -0.8 12.5 1 7.3 5.9 C0.9 11.7 2 19.3 4.2 25 C5.9 29.5 11.2 33.1 13.9 38.1 C15.6 41.4 15.4 45.1 15 51 C9.5 48 5.3 56.9 11.3 57.9 C17.1 58.8 26.4 59.6 30.3 55.4 C33.9 51.6 28.4 47.6 30.5 40 z" opacity="0.3" id="s" /></g><g transform="translate(98.00001, 60.59998) translate(25, 71)" id="t"><g id="u"><path d="M69.5 24.8 C69.5 41 72.2 39.3 73.9 43.9 C75.6 48.5 82.5 57.5 83.8 70.3 C85.1 83.1 84.4 97 80.4 108.7 C76.4 120.4 79.3 141.6 69.6 144.3 C69.3 144.4 37.7 147.4 26 144.3 C13.8 141.1 19.8 128.1 14.4 110.8 C9 93.5 8.1 84.8 8.4 70.4 C8.7 56 18.7 48.8 20.5 43.9 C22.3 39 24.6 37.2 24.6 24.8 C24.6 12.4 32.6 5.4 50.1 5.9 C55.4 5.9 69.5 8.4 69.5 24.8 z" id="v" fill="#453D37" /><g id="w"><path d="M8.7 40.5 C8.6 41.2 8.6 42.1 8.7 43.4 C8.9 47.3 7 51.1 5.3 55.1 C2.8 61.3 -0.1 70.5 -0.5 75.6 C-1.7 88.9 2 96.6 7.7 113.6 C13.4 130.6 13.9 141.5 16.6 144 C19.3 146.5 37.2 147 46.6 147.3 C56 147.6 76.8 145.7 78.6 144 C80.4 142.3 83.4 124.7 86.4 117.4 C89.4 110.1 93.5 86.6 93.8 78 C94.1 68.2 90.7 59.4 87.8 54.9 C86.1 52.3 81.6 45.5 84 40 C84.2 38.6 59.2 38.8 8.7 40.5 z" id="x" fill="#32363A" /><path d="M9.3 30.9 C7.8 37.9 9.4 42.3 7.8 47.1 C9.2 48.8 16.3 61 21.5 66.4 C26.2 71.1 33 77.2 37.6 80.6 C42.2 84 44.6 86.3 46.9 86.4 C49.2 86.5 56.7 80.6 59.8 78.4 C62.8 76.1 69.6 70.5 75.4 62.4 C80.6 55.2 83.7 49.8 84.4 48.9 C85.9 46.9 84.6 45.8 84.5 37 C84.4 29.2 61.8 29.3 51.2 29.5 C40.6 29.7 12.2 25.2 9.3 30.9 z" id="y" fill="#D8D8D8" /><path d="M11.6 21.9 C10.3 23.4 9.6 28.3 10.3 33.6 C11 38.9 18.6 50.6 25.6 58.1 C32.6 65.6 44.2 74.4 47.4 74.5 C49.9 74.6 60.4 67.3 68.8 59.7 C77.2 52.1 81.8 36.2 82.3 32.4 C83.1 27.2 82.5 22.7 80.9 21.2 C77.9 18.5 76.2 -0.6 46.5 -0.6 C17.2 -0.6 14.2 18.9 11.6 21.9 z" id="z" fill="#32363A" /></g><path d="M10 30 C9.9 26.2 10.6 22.9 11.6 21.8 C14.2 18.8 17.3 -0.7 46.7 -0.7 C76.3 -0.6 78 18.5 81 21.2 C82.6 22.7 83.2 27.2 82.4 32.4 C82.4 32.7 82.3 33.1 82.2 33.5 C83.6 34.5 84.5 35.7 84.5 37.2 C84.6 45.9 85.9 47.1 84.5 49 C85.5 51.5 86.9 53.7 87.7 54.9 C90.6 59.4 94 68.2 93.7 78 C93.4 86.7 89.3 110.2 86.3 117.4 C83.3 124.6 80.3 142.3 78.5 144 C76.7 145.7 55.9 147.6 46.5 147.3 C37.1 147 19.2 146.5 16.5 144 C13.8 141.5 13.3 130.6 7.6 113.6 C1.9 96.6 -1.8 89 -0.6 75.6 C-0.2 70.5 2.7 61.3 5.2 55.1 C6.3 52.6 7.4 50.1 8.1 47.7 C7.9 47.5 7.8 47.3 7.7 47.2 C9.3 42.3 7.7 37.9 9.2 31 C9.5 30.6 9.7 30.3 10 30 z M11.4 30.6 C11.1 30.9 10.9 31.1 10.7 31.5 C9.3 38.2 10.8 42.5 9.3 47.1 C9.4 47.2 9.5 47.4 9.7 47.6 C9.1 50 8 52.4 6.9 54.8 C4.5 60.8 1.7 69.6 1.3 74.6 C0.1 87.3 3.6 94.7 9.1 111 C14.6 127.3 15.1 137.9 17.7 140.3 C20.3 142.7 37.5 143.2 46.6 143.5 C55.7 143.8 75.7 142 77.4 140.3 C79.1 138.7 82 121.7 84.9 114.7 C87.8 107.7 91.7 85 92 76.6 C92.3 67.2 89 58.7 86.2 54.3 C85.4 53.1 84.1 51.1 83.1 48.6 C84.5 46.7 83.2 45.6 83.1 37.2 C83.1 35.8 82.3 34.6 80.9 33.7 C81 33.3 81.1 32.9 81.1 32.6 C81.9 27.6 81.3 23.3 79.8 21.8 C76.9 19.3 75.3 0.9 46.7 0.9 C18.4 0.9 15.4 19.7 12.9 22.6 C11.9 23.9 11.3 27 11.4 30.6 z" opacity="0.15" id="a1" /></g></g><g transform="translate(122.79, 177.351) scale(1.2, 1.005662) translate(-130.6, -178.1) translate(91.50001, 85.69997) translate(39, 92)" id="b1"><path d="M10.5 2.2 C12.9 5 20.7 22.6 38.2 23.5 C56.8 24.2 64.9 4.9 67.6 0.4 C71.2 8.2 77 13.2 77.6 26 C78.2 38.8 73.7 45.8 71.4 52 C69.1 58.3 63.4 71.4 63.1 83.3 C62.8 95.2 60.6 90.7 64.9 93.1 C69.2 95.6 72.9 100.5 71.4 103.3 C69.9 106.2 51 103.5 50 102.3 C49.5 101.7 48.8 94.2 49 73 C49.1 67.4 49.6 57.6 50.6 43.7 C46.6 46.2 43.1 47.4 40.2 47.3 C37.4 47.4 33.6 46.2 29.1 43.7 C30.5 57.6 31.2 67.4 31.3 73 C31.6 93.4 31.3 101.1 30.5 102.3 C29.3 104 21.8 104.9 7.8 104.8 C6.1 102 6.1 99.6 7.8 97.6 C9.5 95.6 12.4 93.5 16.4 91.2 C14.4 75.7 12.2 65 9.9 59.2 C6.4 50.6 0.3 39.8 0.2 28 C0.1 16.2 6.2 7.4 10.5 2.2 z" id="c1" fill="#FEFEFE" /><path d="M10.5 2.2 C12.9 5 20.7 22.6 38.2 23.5 C56.8 24.2 64.9 4.9 67.6 0.4 C71.2 8.2 77 13.2 77.6 26 C78.2 38.8 73.7 45.8 71.4 52 C69.1 58.3 63.4 71.4 63.1 83.3 C62.8 95.2 60.6 90.7 64.9 93.1 C69.2 95.6 72.9 100.5 71.4 103.3 C69.9 106.2 51 103.5 50 102.3 C49.5 101.7 48.8 94.2 49 73 C49.1 67.4 49.6 57.6 50.6 43.7 C46.6 46.2 43.1 47.4 40.2 47.3 C37.4 47.4 33.6 46.2 29.1 43.7 C30.5 57.6 31.2 67.4 31.3 73 C31.6 93.4 31.3 101.1 30.5 102.3 C29.3 104 21.8 104.9 7.8 104.8 C6.1 102 6.1 99.6 7.8 97.6 C9.5 95.6 12.4 93.5 16.4 91.2 C14.4 75.7 12.2 65 9.9 59.2 C6.4 50.6 0.3 39.8 0.2 28 C0.1 16.2 6.2 7.4 10.5 2.2 z M10 3.3 C5.9 8.4 2.7 17 2.8 28.3 C2.9 39.5 8.6 50 12 58.3 C14.1 63.8 16.5 77.4 18.3 92.3 C14.6 94.5 12 94.8 10.5 96.7 C9 98.6 8.9 100.3 10.5 103 C23.5 103.1 28.2 101.8 29.3 100.1 C30 99 30.2 91.3 29.9 71.7 C29.8 66.2 26.9 52.4 25.6 39.1 C29.9 41.5 36.2 46.9 40 46.6 C44.9 46.6 50.9 41.5 54.7 39.1 C53.8 52.4 50.8 66.2 50.8 71.5 C50.6 91.9 50.8 100 51.3 100.6 C52.2 101.7 68.3 105.3 69.7 101.5 C70.6 98.6 68.1 96.6 64.3 94.4 C60.3 92 61.5 92.7 61.8 81.3 C62.1 69.9 67.4 57.3 69.5 51.4 C71.6 45.5 75.8 38.7 75.3 26.4 C74.8 14.1 70.8 9.3 67.5 1.9 C65 6.2 56.4 26.4 39 25.7 C22.7 24.9 12.2 6.1 10 3.3 z" opacity="0.15" id="d1" /></g></g><g transform="translate(169.6, 177.7) scale(0.9642414) translate(-169.6, -177.7)" id="e1"><g transform="translate(107.1, 84.49997) translate(23, 5)" id="f1"><g id="g1"><g id="h1"><path d="M71.9 15 C69.6 10.8 64.7 4.9 57.9 4.1 C51 3.3 45.8 0.3 39.5 0.3 C33.2 0.3 28 3.3 21.1 4.1 C14.3 4.9 9.4 10.8 7.1 15 C1.7 24.7 -0.9 28.2 0.8 44.6 C2.6 61 1.7 66.5 7.1 72.9 C17.7 85.5 25.5 94.3 39.5 94.4 C53.5 94.3 61.8 86 71.9 72.9 C76.3 67.2 76.4 61 78.2 44.6 C80 28.2 77.3 24.7 71.9 15 z" id="i1" fill="#474B4F" /><path d="M71.9 15 C77.3 24.7 80 28.2 78.2 44.6 C76.4 61 76.3 67.2 71.9 72.9 C61.8 86 53.5 94.3 39.5 94.4 C25.5 94.3 17.7 85.5 7.1 72.9 C1.7 66.5 2.6 61 0.8 44.6 C-0.9 28.2 1.7 24.7 7.1 15 C9.4 10.8 14.3 4.9 21.1 4.1 C28 3.3 33.2 0.3 39.5 0.3 C45.8 0.3 51 3.3 57.9 4.1 C64.7 4.9 69.6 10.8 71.9 15 z M71.2 14.7 C68.9 10.6 64.1 4.8 57.5 4.1 C50.7 3.3 45.7 0.4 39.5 0.4 C33.3 0.4 28.3 3.3 21.5 4.1 C14.9 4.8 10.1 10.6 7.8 14.7 C2.5 24.2 0 27.6 1.7 43.7 C3.4 59.7 2.5 65.1 7.8 71.3 C18.2 83.6 25.8 92.2 39.5 92.3 C53.2 92.2 61.3 84.1 71.2 71.3 C75.5 65.8 75.6 59.7 77.3 43.7 C79.1 27.6 76.5 24.2 71.2 14.7 z" opacity="0.15" id="j1" /></g></g></g><g transform="translate(105, 91.49996) translate(8, 1)" id="k1"><path d="M14.6 40.1 C13.1 40.1 13.5 37.4 12.3 34.7 C10.1 29.8 6.5 23.1 3.8 19.6 C1.7 17 -0.4 13.7 0.6 10.5 C1.7 7.1 5.8 5.9 9.3 5.1 C15.1 3.9 21 2.7 26.8 1.5 C28.1 1.2 34.4 -0.3 35.3 0.9 C35.7 2 31.5 4.8 30.4 6 C28.1 8.6 26.4 12.2 24.8 15.2 C21.4 22 18.7 40.1 14.6 40.1 z" id="l1" fill="#474B4F" /><path d="M3.3 7.3 C2.7 7.8 2.2 8.5 1.9 9.2 C0.9 12 2.8 15 4.7 17.3 C7.2 20.4 10.5 26.3 12.5 30.6 C13.6 33 13.2 35.4 14.6 35.4 C18.4 35.5 21.2 19.7 24.5 13.8 C26.1 11.2 27.7 8 29.9 5.8 C31 4.8 35 2.4 34.6 1.4 C33.8 0.3 27.9 1.6 26.6 1.8 C23.9 2.3 21.2 2.8 18.4 3.2 C21.2 2.7 24 2.1 26.8 1.5 C28.1 1.2 34.4 -0.3 35.3 0.9 C35.7 2 31.5 4.8 30.4 6 C28.1 8.6 26.4 12.2 24.8 15.2 C21.4 22 18.7 40.1 14.6 40.1 C13.1 40.1 13.5 37.4 12.3 34.7 C10.1 29.8 6.5 23.1 3.8 19.6 C1.7 17 -0.4 13.7 0.6 10.5 C1.1 9.1 2 8 3.3 7.3 z" opacity="0.15" id="m1" /></g><g transform="translate(102.7, 91.49996) translate(87, 1)" id="n1"><path d="M21.4 40.1 C22.9 40.1 22.5 37.4 23.7 34.7 C25.9 29.8 29.5 23.1 32.2 19.6 C34.3 17 36.4 13.7 35.4 10.5 C34.3 7.1 30.2 5.9 26.7 5.1 C20.9 3.9 15 2.7 9.2 1.5 C7.9 1.2 1.6 -0.3 0.7 0.9 C0.3 2 4.5 4.8 5.6 6 C7.9 8.6 9.6 12.2 11.2 15.2 C14.6 22 17.3 40.1 21.4 40.1 z" id="o1" fill="#474B4F" /><path d="M21.4 40.1 C17.3 40.1 14.6 22 11.2 15.2 C9.6 12.2 7.9 8.6 5.6 6 C4.5 4.8 0.3 2 0.7 0.9 C1.6 -0.3 7.9 1.2 9.2 1.5 C15 2.7 20.9 3.9 26.7 5.1 C30.2 5.9 34.3 7.1 35.4 10.5 C36.4 13.7 34.3 17 32.2 19.6 C29.5 23.1 25.9 29.8 23.7 34.7 C22.5 37.4 22.9 40.1 21.4 40.1 z M21.1 34.4 C22.5 34.4 22.1 32.2 23.2 29.9 C25.2 25.8 28.5 20.2 30.9 17.3 C32.9 15.1 34.8 12.3 33.9 9.6 C32.9 6.8 29.1 5.8 25.9 5.1 C20.7 4.1 15.3 3.1 10 2.1 C8.8 1.9 3.1 0.6 2.3 1.6 C1.9 2.5 5.7 4.9 6.7 5.9 C8.8 8.1 10.4 11.1 11.8 13.6 C14.9 19.3 17.4 34.4 21.1 34.4 z" opacity="0.15" id="p1" /></g><g id="q1"><g transform="translate(104.1, 92.79996) translate(32, 35)" id="r1"><g transform="translate(0, 8)" id="s1"><path d="M64 23.9 C61.8 21.3 58.3 20.9 55.7 19 C52.7 16.8 52.1 14 50.4 10.8 C46.5 3.6 41 0.8 33.5 0.7 C26.9 0.7 21.5 2.7 17.6 9 C16 11.6 15.2 15.2 13.1 17.5 C11 19.8 7.8 20.1 5.4 21.8 C1.5 24.6 -1.2 31.1 0.6 36 C2 39.8 8.4 42.3 12.3 43.7 C24.5 48.1 40.4 48 52.7 44.3 C56.1 43.3 59.5 41.8 62.5 39.8 C65.7 37.6 66.6 36.4 66.6 32.6 C66.5 29.7 66 26.2 64 23.9 z" id="t1" fill="#FEFEFE" /><path d="M64 23.9 C66 26.2 66.5 29.7 66.6 32.6 C66.6 36.4 65.7 37.6 62.5 39.8 C59.5 41.8 56.1 43.3 52.7 44.3 C40.4 48 24.5 48.1 12.3 43.7 C8.4 42.3 2 39.8 0.6 36 C-1.2 31.1 1.5 24.6 5.4 21.8 C7.8 20.1 11 19.8 13.1 17.5 C15.2 15.2 16 11.6 17.6 9 C21.5 2.7 26.9 0.7 33.5 0.7 C41 0.8 46.5 3.6 50.4 10.8 C52.1 14 52.7 16.8 55.7 19 C58.3 20.9 61.8 21.3 64 23.9 z M61.8 23.5 C59.8 21 56.5 20.7 54.1 18.9 C51.3 16.8 50.8 14.2 49.2 11.3 C45.6 4.6 40.5 1.9 33.5 1.9 C27.4 1.9 22.3 3.7 18.7 9.6 C17.2 12 16.5 15.4 14.5 17.5 C12.6 19.6 9.6 19.9 7.4 21.5 C3.7 24.1 1.2 30.2 2.9 34.7 C4.2 38.3 10.2 40.6 13.8 41.9 C25.1 46 39.9 45.9 51.3 42.4 C54.5 41.5 57.7 40.1 60.4 38.3 C63.4 36.2 64.3 35.1 64.3 31.6 C64.2 28.9 63.7 25.6 61.8 23.5 z" opacity="0.15" id="u1" /><g transform="translate(19, 14)" id="v1" fill="#282421"><path d="M7 2.2 C6.3 1.8 5.3 2.4 5.2 3.3 C5.2 4.1 6.8 4.9 7.6 4.5 C8.3 4.1 7.8 2.9 7.2 2.4" id="w1" /><path d="M2.1 0.7 C1.4 0.3 0.4 0.9 0.3 1.8 C0.3 2.6 1.3 3.7 2.1 3.3 C2.9 2.9 2.9 1.3 2.3 0.8" id="x1" /><path d="M2.1 7.4 C1.4 7 0.4 7.6 0.3 8.5 C0.3 9.3 1.4 10.2 2.1 9.9 C2.8 9.5 2.9 8.1 2.2 7.6" id="y1" /><path d="M22 2.2 C22.7 1.8 23.7 2.4 23.8 3.3 C23.8 4.1 22.2 4.9 21.4 4.5 C20.7 4.1 21.2 2.9 21.8 2.4" id="z1" /><path d="M26.9 0.7 C27.6 0.3 28.6 0.9 28.7 1.8 C28.7 2.6 27.7 3.7 26.9 3.3 C26.2 2.9 26.1 1.3 26.7 0.8" id="a2" /><path d="M26.9 7.4 C27.6 7 28.6 7.6 28.7 8.5 C28.7 9.3 27.6 10.2 26.9 9.9 C26.2 9.5 26.1 8.1 26.8 7.6" id="b2" /></g></g></g><g transform="translate(169.6, 166.5999) scale(1.6) translate(-169.6, -166.5999) translate(102.8, 59.49996) translate(56, 101)" id="c2"><g id="d2"><path d="M16 5.1 L10.5 5.3 L5 5.1 C4.6 7.1 3.7 13.5 10.5 13.5 C17.3 13.5 16.3 7.1 16 5.1 z" id="e2" fill="#EF918F" /><path d="M20.7 3.6 C20.4 3.1 19.8 2.9 19.4 3.2 L19.3 3.2 C19.3 3.2 19.1 3.3 18.7 3.5 C18.5 3.6 18.3 3.7 18 3.8 C17.7 3.9 17.4 3.9 17 4 C16.3 4.1 15.4 4.1 14.3 4.1 C13.8 4.1 13.2 4 12.7 4 C12.3 4 11.8 4 11.4 3.9 L11.6 1.7 L11.6 1.6 C11.6 1 11.1 0.6 10.5 0.7 C9.9 0.7 9.5 1.2 9.6 1.8 L9.8 4.1 C9 4.1 8.2 4.1 7.5 4.2 C6.5 4.2 5.5 4.2 4.8 4.1 C4.1 4 3.5 3.8 3.1 3.7 C2.9 3.7 2.7 3.5 2.6 3.5 C2.5 3.4 2.4 3.4 2.4 3.4 C2 3.2 1.5 3.3 1.2 3.6 C0.8 4 0.8 4.6 1.2 5 C1.2 5 1.3 5.1 1.3 5.2 C1.4 5.3 1.5 5.4 1.8 5.7 C2.3 6.1 3.1 6.6 4.1 6.9 C5.1 7.2 6.2 7.4 7.4 7.4 C8.6 7.5 9.7 7.4 10.8 7.5 C11.4 7.5 11.9 7.5 12.5 7.5 C13.1 7.5 13.7 7.5 14.3 7.5 C14.9 7.5 15.5 7.4 16 7.3 C16.6 7.2 17.1 7.1 17.6 6.9 C18.6 6.6 19.3 6.1 19.8 5.7 C20 5.5 20.2 5.3 20.3 5.2 C20.4 5.1 20.5 5 20.5 5 C20.8 4.5 20.9 4 20.7 3.6 z" id="f2" fill="#332320" /></g></g><g transform="translate(110.1, 73.79996) translate(51, 63)" id="g2"><g id="h2"><path d="M8.5 0.8 C3 0.8 0.1 2.6 0.1 6.3 C0.1 9.3 1 9.5 2.6 11.1 C4.1 12.7 4.4 14.2 8.6 14.2 C12.8 14.2 13.1 12.7 14.6 11.1 C16.1 9.5 17.1 9.3 17.1 6.3 C16.9 2.6 14 0.8 8.5 0.8 z" id="i2" fill="#302622" /><path d="M12.1 4.4 C11.4 4.3 9.4 4.4 8.5 4.9 C7.6 4.4 5.7 4.2 4.9 4.4 C3.6 4.6 2.8 6.9 3 6.9 C3.2 7 4.9 5.8 5.7 6.1 C6.9 6.5 8 7.7 8.4 8.6 C8.8 7.8 9.9 6.5 11.1 6.1 C12 5.8 13.6 7 13.8 6.9 C14.2 6.9 13.3 4.6 12.1 4.4 z" id="j2" fill="#F7F7F7" /></g></g><g transform="translate(92.5, 68.59996) translate(53, 56)" id="k2"><g id="l2"><path d="M11 8.3 C11 7.7 11 4.9 9.8 3 C8.6 1.1 7.4 0.6 5.8 0.2 C4.2 -0.2 2.3 0 1.3 0.9 C0.3 1.8 0 4 0 5.5 C0 7 0.8 8.8 2.8 9.4 C4.1 9.8 6 9.8 8.6 9.4 C10.2 9.1 11 8.8 11 8.3 z" id="m2" /><path d="M5 4.4 C5.6 4.4 6.4 3.6 6.4 3 C6.4 2.4 5.6 2 5 2 C4.4 2 4 2.4 4 3 C4 3.6 4.4 4.4 5 4.4 z" id="n2" fill="#FFFFFE" /></g></g><g transform="translate(100.5, 68.59996) translate(82, 56)" id="o2"><g id="p2"><path d="M0 8.3 C0 7.7 0 4.9 1.2 3 C2.4 1.1 3.6 0.6 5.2 0.2 C6.8 -0.2 8.7 0 9.7 0.9 C10.7 1.8 11 4 11 5.5 C11 7 10.2 8.8 8.2 9.3 C6.9 9.7 5 9.7 2.4 9.3 C0.8 9.1 0 8.8 0 8.3 z" id="q2" /><path d="M6 4.4 C6.6 4.4 7.4 3.6 7.4 3 C7.4 2.4 6.6 2 6 2 C5.4 2 5 2.4 5 3 C5 3.6 5.4 4.4 6 4.4 z" id="r2" fill="#FFFFFE" /></g></g></g></g></g></g><defs><g transform="translate(17.09519, 0.800995) translate(-135.2952, -293.601)" id="s2" fill="#000"><path d="M118.2 302.7 C118.4 307.4 132.5 311.2 149.8 311.2 C167.1 311.2 181.2 307.4 181.4 302.7 C181.4 307.5 181.4 310.1 181.4 310.5 C181.4 315.3 167.3 319.1 149.8 319.1 C132.3 319.1 118.2 315.2 118.2 310.5 L118.2 302.7 L118.2 302.7 z" fill-opacity="0.4528" id="t2" fill="#593001" /><path d="M118.7 301.7 C118.9 306.4 133 310.2 150.3 310.2 C167.6 310.2 181.7 306.4 181.9 301.7 C181.9 306.5 181.9 309.1 181.9 309.5 C181.9 314.3 167.8 318.1 150.3 318.1 C132.8 318.1 118.7 314.2 118.7 309.5 L118.7 301.7 L118.7 301.7 z" id="u2" fill="#DA8113" /><linearGradient x1="46.0545" y1="-118.6926" x2="45.4656" y2="-118.6926" gradientUnits="userSpaceOnUse" gradientTransform="matrix(117.135, 0, 0, 28.4634, -5208.417, 3687.795)" id="v2"><stop offset="0%" stop-color="#D9952A" stop-opacity="1" /><stop offset="6.438854%" stop-color="#CA7519" stop-opacity="1" /><stop offset="30.54%" stop-color="#E3AD3A" stop-opacity="1" /><stop offset="51.05%" stop-color="#FFEC91" stop-opacity="1" /><stop offset="68.8%" stop-color="#E9BD44" stop-opacity="1" /><stop offset="86.24%" stop-color="#FFED6C" stop-opacity="1" /><stop offset="93.87%" stop-color="#F2D353" stop-opacity="1" /><stop offset="100%" stop-color="#F2B947" stop-opacity="1" /></linearGradient><path d="M118.2 301.6 C118.4 306.1 132.7 309.7 150.3 309.7 C167.9 309.7 182.2 306.1 182.4 301.6 C182.4 306.2 182.4 308.7 182.4 309 C182.4 313.5 168 317.2 150.3 317.2 C132.6 317.2 118.2 313.5 118.2 309 L118.2 301.6 L118.2 301.6 z" id="w2" style="fill:url(#v2)" /><linearGradient x1="45.4914" y1="-117.9547" x2="45.9407" y2="-117.5895" gradientUnits="userSpaceOnUse" gradientTransform="matrix(115.425, 0, 0, 29.925, -5125.077, 3826.124)" id="x2"><stop offset="0%" stop-color="#F4E072" stop-opacity="1" /><stop offset="100%" stop-color="#DB9427" stop-opacity="1" /></linearGradient><ellipse cx="150.3" cy="301.5" rx="31.6" ry="8.2" id="y2" style="fill:url(#x2)" /><linearGradient x1="45.4656" y1="-126.0065" x2="46.0545" y2="-126.0065" gradientUnits="userSpaceOnUse" gradientTransform="matrix(117.135, 0, 0, 18.6219, -5208.417, 2651.479)" id="z2"><stop offset="0%" stop-color="#D9952A" stop-opacity="1" /><stop offset="6.438854%" stop-color="#CA7519" stop-opacity="1" /><stop offset="30.54%" stop-color="#E3AD3A" stop-opacity="1" /><stop offset="51.05%" stop-color="#FFEC91" stop-opacity="1" /><stop offset="68.8%" stop-color="#E9BD44" stop-opacity="1" /><stop offset="86.24%" stop-color="#FFED6C" stop-opacity="1" /><stop offset="93.87%" stop-color="#F2D353" stop-opacity="1" /><stop offset="100%" stop-color="#F2B947" stop-opacity="1" /></linearGradient><path d="M119.2 299.9 C119 300.2 118.9 300.6 118.9 301 C118.9 305.5 132.9 309.2 150.3 309.2 C167.7 309.2 181.7 305.5 181.7 301 C181.7 300.6 181.6 300.3 181.4 299.9 C182 300.5 182.4 301.2 182.4 301.9 C182.4 306.4 168 310.1 150.3 310.1 C132.6 310.1 118.2 306.4 118.2 301.9 C118.2 301.3 118.6 300.6 119.2 299.9 z" id="a3" style="fill:url(#z2)" /><linearGradient x1="45.196" y1="-121.5895" x2="45.3746" y2="-120.6758" gradientUnits="userSpaceOnUse" gradientTransform="matrix(101.745, 0, 0, 23.94, -4458.332, 3199.41)" id="b3"><stop offset="0%" stop-color="#F8DD61" stop-opacity="1" /><stop offset="100%" stop-color="#EAA330" stop-opacity="1" /></linearGradient><ellipse cx="150.3" cy="300.8" rx="27.8" ry="6.6" id="c3" style="fill:url(#b3)" /><linearGradient x1="45.5694" y1="-134.267" x2="45.0221" y2="-134.267" gradientUnits="userSpaceOnUse" gradientTransform="matrix(101.745, 0, 0, 13.2525, -4458.332, 2077.223)" id="d3"><stop offset="0%" stop-color="#F4CA2F" stop-opacity="1" /><stop offset="51.38%" stop-color="#BF7737" stop-opacity="1" /><stop offset="100%" stop-color="#E4A929" stop-opacity="1" /></linearGradient><path d="M122.6 301.5 C122.5 301.3 122.4 301 122.4 300.8 C122.4 297.2 134.9 294.2 150.2 294.2 C165.5 294.2 178 297.1 178 300.8 C178 301 177.9 301.3 177.8 301.5 C176.3 298.2 164.5 295.6 150.1 295.6 C135.7 295.6 124.1 298.2 122.6 301.5 z" id="e3" style="fill:url(#d3)" /></g></defs><desc>7GG6GHHFKIJ,1sl2CWB0FfgEQLBiMiSAfOFGMm2+ma1o3v5m9sXHLmqZCsNGzCGQmAkh8VQYdyuLdEMvasRzYR8AOKSgn6Da4A==</desc></svg>