<?xml version="1.0" encoding="utf-8"?><!DOCTYPE svg PUBLIC "-//W3C//DTD SVG 1.1//EN" "http://www.w3.org/Graphics/SVG/1.1/DTD/svg11.dtd"><svg x="0" y="0" width="340px" height="340px" viewBox="0, 0, 340, 340" preserveAspectRatio="xMidYMid" font-size="0" id="a" enable-background="new 0 0 340 340" xmlns="http://www.w3.org/2000/svg" xmlns:xlink="http://www.w3.org/1999/xlink" xmlns:xml="http://www.w3.org/XML/1998/namespace" version="1.1"><g id="b" fill="#000"><g id="c"><g transform="translate(0, 0) translate(0, 224)" id="d"><ellipse cx="168.6" cy="53.1" rx="57.8" ry="12.8" fill-opacity="0.25" id="e" /></g><g id="f"><g transform="translate(101.6, 90.89999) translate(28, 148) scale(-1, 1) translate(-28, -148) translate(0, 127)" id="g"><path d="M52.1 4.6 C47.4 19.1 42.1 27 36.2 28.3 C27.3 30.2 18 29.7 13.9 24.6 C11.2 14.5 14 14.7 15.4 11.9 C16.8 9.1 16.1 4.5 9.2 4.5 C4.6 4.5 1.4 7.4 -0.2 13.3 C-1 16.7 -1.4 19.7 -1.2 22.3 C-1 26.2 0.8 36.4 8.6 40.9 C16.4 45.4 28.6 48.2 43.3 38.5 C53.1 32 56 20.7 52.1 4.6 z" id="h" fill="#725C54" /><path d="M52.1 4.6 C56 20.7 53.1 32 43.3 38.5 C28.6 48.2 16.4 45.4 8.6 40.9 C0.8 36.4 -1 26.2 -1.2 22.3 C-1.4 19.7 -1 16.7 -0.2 13.3 C1.4 7.4 4.6 4.5 9.2 4.5 C16.1 4.5 16.8 9.1 15.4 11.9 C14 14.7 11.2 14.5 13.9 24.6 C18 29.7 27.3 30.2 36.2 28.3 C42.1 27 47.4 19.1 52.1 4.6 z M51.6 9.5 C47.1 21.3 41 28.4 35.3 29.4 C26.7 30.9 18.3 30.2 14.4 26.1 C10.5 22 11.2 17.1 12.6 14.8 C14 12.5 15.5 6.3 8.8 6.3 C4.4 6.3 2.5 8.3 1 13.1 C0.2 15.9 0.3 21.1 0.5 23.2 C0.7 26.4 1.8 35.6 9.3 39.2 C16.8 42.9 25.1 46.4 39.2 38.5 C48.6 33.1 55.4 22.6 51.6 9.5 z" opacity="0.15" id="i" /></g><g transform="translate(122.4, 274.8) scale(1.065183) translate(-122.4, -274.8) translate(102.2, 88.79997) translate(9, 128)" id="j"><g id="k" fill="#513A33"><path d="M30.2 2.4 C36.6 5.6 41.6 13 41.6 20.3 C41.5 28.8 35.3 31.8 32.4 38.7 C29.9 44.7 31.1 48.9 26.6 53.5 C22.4 57.8 15.9 57.3 14.2 49.9 C15.1 34.4 5.7 33.7 2.5 25.9 C0.1 20 -1 12.1 5.9 6 C11.6 0.8 23.3 -1.1 30.2 2.4 z" id="l" /></g><path d="M14.1 49.8 C24.6 48.5 26.3 42.9 31.7 40.9 C31 46.6 35 53.5 31 57.5 C26.8 61.8 16.6 61 10.3 60.1 C3.7 59 8.1 46.7 14.1 49.8 z" id="m" fill="#C6A67D" /><path d="M31.6 40.9 C31.6 40.9 31.7 40.9 31.7 40.9 C31 46.6 35 53.5 31 57.5 C26.8 61.8 16.6 61 10.3 60.1 C3.7 59 8.1 46.7 14.1 49.8 C14.1 49.8 14.2 49.8 14.2 49.8 C15.1 34.4 5.7 33.7 2.5 25.9 C0.1 20 -1 12.1 5.9 6 C11.6 0.8 23.3 -1.1 30.2 2.4 C36.6 5.6 41.6 13 41.6 20.3 C41.5 28.8 35.3 31.8 32.4 38.7 C32.1 39.5 31.8 40.2 31.6 40.9 z M29.7 55.6 C33.5 51.8 30.4 44.7 31 39.4 C31.2 38.7 31.5 38 31.8 37.3 C34.5 30.7 40.4 27.9 40.5 19.9 C40.5 13 35.7 6 29.7 3 C23.2 -0.3 12.1 1.5 6.8 6.4 C0.2 12.1 1.3 19.6 3.5 25.2 C6.6 32.5 16.4 33.5 15.6 48 C15.6 48 14.6 51.5 14.6 51.5 C8.9 48.6 5.5 57.2 11.8 58.3 C17.7 59.1 25.7 59.7 29.7 55.6 z" opacity="0.3" id="n" /></g><g transform="translate(213.9, 274.8) scale(1.065183) translate(-213.9, -274.8) translate(108.8, 88.79997) translate(95, 158.5) scale(-1, 1) translate(-95, -158.5) translate(74, 128)" id="o"><g id="p" fill="#513A33"><path d="M30.2 2.4 C36.6 5.6 41.6 13 41.6 20.3 C41.5 28.8 35.3 31.8 32.4 38.7 C29.9 44.7 30.4 49.7 25.9 54.3 C21.7 58.6 12.6 54.5 14.2 49.8 C15.1 34.3 5.7 33.6 2.5 25.8 C0.1 19.9 -1 12 5.9 5.9 C11.6 0.8 23.3 -1.1 30.2 2.4 z" id="q" /></g><path d="M14.1 49.8 C24.6 48.5 26.3 42.9 31.7 40.9 C31 46.6 35 53.5 31 57.5 C26.8 61.8 16.6 61 10.3 60.1 C3.7 59 8.1 46.7 14.1 49.8 z" id="r" fill="#C6A67D" /><path d="M31.6 40.9 C31.6 40.9 31.7 40.9 31.7 40.9 C31 46.6 35 53.5 31 57.5 C26.8 61.8 16.6 61 10.3 60.1 C3.7 59 8.1 46.7 14.1 49.8 C14.1 49.8 14.2 49.8 14.2 49.8 C15.1 34.3 5.7 33.6 2.5 25.8 C0.1 19.9 -1 12 5.9 5.9 C11.6 0.8 23.3 -1.1 30.2 2.4 C36.6 5.6 41.6 13 41.6 20.3 C41.5 28.8 35.3 31.8 32.4 38.7 C32.1 39.5 31.8 40.2 31.6 40.9 z M30.5 40 C32.6 32.4 39.9 27.9 40 19.7 C40 12.7 35.4 5.6 29.5 2.5 C23.2 -0.8 12.5 1 7.3 5.9 C0.9 11.7 2 19.3 4.2 25 C5.9 29.5 11.2 33.1 13.9 38.1 C15.6 41.4 15.4 45.1 15 51 C9.5 48 5.3 56.9 11.3 57.9 C17.1 58.8 26.4 59.6 30.3 55.4 C33.9 51.6 28.4 47.6 30.5 40 z" opacity="0.3" id="s" /></g><g transform="translate(91.30001, 75.89998) translate(31, 73)" id="t"><path d="M22.9 13.8 C30.8 10 27.6 0.4 45.8 0.4 C64 0.4 60.8 10.8 68.8 13.3 C77.6 16.1 79.3 26.3 81.2 30.8 C97 63.7 72.1 126.8 68.8 129.6 C65.9 131.5 60.5 132 58.5 132 C55.3 132 52.8 131.1 51.6 131 C48.9 130.8 47.7 129.6 46 129.6 C44.1 129.6 41.9 130.8 38.4 131 C36.8 131.1 33.1 132 28.8 132 C26.9 132 23.5 130.5 20.9 127.6 C18.7 124.7 0.2 64.8 8.3 34.4 C9.4 30.9 13 18.6 22.9 13.8 z" id="u" fill="#725C54" /><path d="M22.9 13.8 C30.8 10 27.6 0.4 45.8 0.4 C64 0.4 60.8 10.8 68.8 13.3 C77.6 16.1 79.3 26.3 81.2 30.8 C97 63.7 72.1 126.8 68.8 129.6 C65.9 131.5 60.5 132 58.5 132 C55.3 132 52.8 131.1 51.6 131 C48.9 130.8 47.7 129.6 46 129.6 C44.1 129.6 41.9 130.8 38.4 131 C36.8 131.1 33.1 132 28.8 132 C26.9 132 23.5 130.5 20.9 127.6 C18.7 124.7 0.2 64.8 8.3 34.4 C9.4 30.9 13 18.6 22.9 13.8 z M23.7 14.6 C14.1 19.2 10.7 31.1 9.6 34.5 C1.8 63.8 19.6 121.6 21.8 124.4 C24.3 127.2 27.6 128.6 29.4 128.6 C33.5 128.6 37.1 127.7 38.7 127.6 C42.1 127.4 44.2 126.2 46 126.2 C47.6 126.2 48.8 127.4 51.4 127.6 C52.6 127.7 55 128.6 58.1 128.6 C60 128.6 65.2 128.1 68 126.3 C71.2 123.6 95.2 62.7 80 31 C78.2 26.7 76.5 16.8 68 14.1 C60.3 11.7 63.4 1.7 45.8 1.7 C28.2 1.7 31.3 11 23.7 14.6 z" opacity="0.15" id="v" /></g><g transform="translate(129.23, 205.19) scale(1.3, 1.667941) translate(-138.2, -207.8) translate(104.1, 87.39998) translate(36, 120)" id="w"><path d="M2.2 7 L5.9 20.3 L5.9 26.3 C6.1 31.5 6.1 35 5.9 36.7 C5.7 38.4 3.1 38.6 2.2 39.5 C1.6 40.2 0.5 43.2 0.5 44.9 C0.5 47.5 9.2 46.7 10.6 46.8 C15.1 47.2 17.6 45.1 17.7 44.4 C17.8 43.7 16.2 39.5 18.4 28.3 C18.9 25.8 21.4 18.4 22.1 15.8 C24.1 9 21.5 3.2 16.4 2.3 C13.3 0.5 9.9 0.9 5.7 0.9 C1.7 0.8 9.2 6.8 2.2 7 z" id="x" fill="#E8CCA2" /><path d="M4.1 0.7 C-1.9 0.9 1.8 10.5 4.1 17.4 C7.5 28 5.6 38.2 6.8 40.3 C8 42.4 13.8 37 13.8 33.8 C13.8 30.5 12.4 25.1 12.7 19.1 C13 13.9 16 10.3 13.8 5.3 C12.2 1.8 6.6 0.6 4.1 0.7 z" id="y" fill="#725C54" /><path d="M16.4 2.3 C21.5 3.2 24.1 9 22.1 15.8 C21.4 18.4 18.9 25.8 18.4 28.3 C16.2 39.5 17.8 43.7 17.7 44.4 C17.6 45.1 15.1 47.2 10.6 46.8 C9.2 46.7 0.5 47.5 0.5 44.9 C0.5 43.2 1.6 40.2 2.2 39.5 C3.1 38.6 5.7 38.4 5.9 36.7 C6.1 35 6.1 31.5 5.9 26.3 L5.9 26.1 C5.6 23.3 5.1 20.4 4.1 17.4 C1.8 10.5 -1.9 0.9 4.1 0.7 C4.7 0.7 5.6 0.7 6.5 0.9 C10.3 0.9 13.5 0.6 16.4 2.3 z M16.1 3.8 C13.4 2.2 10.5 2.5 6.9 2.5 C6 2.4 5.2 2.3 4.6 2.4 C-0.9 2.5 2.8 10.9 5 17.3 C5.9 20.1 6.5 21.6 6.7 26.4 C6.9 31.2 6.5 36 6.3 37.6 C6.1 39.2 3.9 39.2 3.1 40.1 C2.5 40.7 1.7 41.4 1.7 43 C1.7 45.4 9.4 45.1 10.7 45.2 C14.9 45.6 16 43.3 16.1 42.6 C16.2 42 14.7 38.7 16.8 28.3 C17.3 26 20.8 18.8 21.4 16.4 C23.2 10.1 20.8 4.7 16.1 3.8 z" opacity="0.15" id="z" /><path d="M53.8 7 L50.1 20.3 L50.1 26.3 C49.9 31.5 49.9 35 50.1 36.7 C50.3 38.4 52.9 38.6 53.8 39.5 C54.4 40.2 55.5 43.2 55.5 44.9 C55.5 47.5 46.8 46.7 45.4 46.8 C40.9 47.2 38.4 45.1 38.3 44.4 C38.2 43.7 39.8 39.5 37.6 28.3 C37.1 25.8 34.6 18.4 33.9 15.8 C32.4 9.7 35.5 4.6 39.6 2.3 C42.7 0.5 46.1 0.9 50.3 0.9 C54.3 0.8 46.8 6.8 53.8 7 z" id="a1" fill="#E8CCA2" /><path d="M51.9 0.7 C57.9 0.9 54.2 10.5 51.9 17.4 C48.5 28 50.4 35.7 50.4 38 C50.4 40.3 42.2 36.1 42.2 32.9 C42.2 29.6 43.6 25.1 43.3 19.1 C43 13.9 40 10.3 42.2 5.3 C43.8 1.8 49.4 0.6 51.9 0.7 z" id="b1" fill="#725C54" /><path d="M50.1 25.9 L50.1 26.3 C50 28.9 49.9 31.1 50 32.8 C50.1 34.8 50.3 36.4 50.4 37.4 C51.1 38.5 53.1 38.7 53.8 39.5 C54.4 40.2 55.5 43.2 55.5 44.9 C55.5 47.5 46.8 46.7 45.4 46.8 C40.9 47.2 38.4 45.1 38.3 44.4 C38.2 43.7 39.8 39.5 37.6 28.3 C37.1 25.8 34.6 18.4 33.9 15.8 C32.4 9.7 35.5 4.6 39.6 2.3 C42.5 0.6 45.7 0.9 49.5 0.9 C50.4 0.7 51.3 0.7 51.9 0.7 C57.9 0.9 54.2 10.5 51.9 17.4 C50.9 20.5 50.4 23.3 50.1 25.9 z M48.9 32 C48.9 30.9 49 28.9 49.2 25.8 C49.5 23.4 50.6 19.3 51.6 16.4 C53.7 10 57.1 2.4 51.5 2.2 C50.9 2.2 50.1 2.2 49.3 2.4 C45.7 2.4 42.8 2.1 40.1 3.7 C36.3 5.8 33.4 10.6 34.8 16.3 C35.5 18.7 38.9 26.1 39.4 28.4 C41.4 38.8 39.3 42.5 39.4 43.1 C39.5 43.7 41.3 45.5 45.5 45.1 C46.8 45 54.9 45.8 54.9 43.3 C54.9 41.7 53.8 40.5 53.3 39.8 C52.6 39.1 50.3 38.7 49.6 37.7 C49.3 36.9 49 33.9 48.9 32 z" opacity="0.15" id="c1" /></g></g><g transform="translate(168.3, 188) scale(0.8804696) translate(-168.3, -188)" id="d1"><g transform="translate(92, 3) translate(89.80001, 94.99997)" id="e1"><path d="M4.4 2.9 C7.1 -0.3 14.5 1.5 21.1 6.9 L25.4 10.5 C31.9 15.9 35 22.9 32.4 26.1 L32.4 26.1 C29.7 29.3 22.3 27.5 15.7 22.1 L11.4 18.5 C8.2 15.8 1.5 11.1 0.7 9.8 C-1.2 7.3 3 4.5 4.4 2.9 L4.4 2.9 z" id="f1" fill="#B58164" /></g><g transform="translate(16, 3) translate(89.5, 95.79996)" id="g1"><path d="M46.6 3.4 C43.9 0.2 36.5 2 29.9 7.4 L25.6 11 C19.1 16.4 16 23.4 18.6 26.6 L18.6 26.6 C21.3 29.8 28.7 28 35.3 22.6 L39.6 19 C42.8 16.3 49.5 11.6 50.3 10.3 C52.1 7.8 47.9 5 46.6 3.4 L46.6 3.4 z" id="h1" fill="#B58164" /></g><g transform="translate(89.60001, 95.49997) translate(37, 0)" id="i1"><g id="j1"><path d="M40.1 0.5 C72.4 1 81.8 11.6 81.5 30 C81.2 48.3 80.7 55.1 76.4 61.6 C72.1 68.1 70.7 71.6 67.7 81.7 C64.7 91.8 55.4 91.4 41.7 91.7 C28 92 16 87.5 14.9 80.5 C13.8 73.5 10.1 67.7 5.1 60.9 C0.1 54.1 0.8 35.1 0.7 24.3 C0.6 13.5 7.9 0 40.1 0.5 z" id="k1" fill="#725C54" /><g transform="translate(28.16216, 84.51376)" id="l1"><path d="M0.6 6.7 C3.9 8.4 6.8 9.3 9.2 9.4 C12.9 9.6 20.5 9.4 23.4 8.1 C25.4 7.2 26.8 6.8 27.6 6.8 C23.9 3.9 21.4 2.4 20.1 2.2 C18.2 2 12.8 -0.1 11 1.1 C9.2 2.3 5.2 3 4.3 3.8 C3.7 4.3 2.5 5.2 0.6 6.7 z" id="m1" fill="#3D2B26" /></g><path d="M55.4 91 C55.5 91.1 55.6 91.2 55.8 91.3 C55 91.3 53.6 91.7 51.6 92.6 C48.7 93.9 41.1 94.1 37.4 93.9 C35 93.8 32.1 92.9 28.8 91.2 C29.1 91 29.3 90.8 29.6 90.6 C21.6 88.9 15.7 85.3 15 80.5 C13.9 73.5 10.2 67.7 5.2 60.9 C0.2 54.1 0.9 35.1 0.8 24.3 C0.7 13.5 7.9 0 40.1 0.5 C72.4 1 81.8 11.6 81.5 30 C81.2 48.3 80.7 55.1 76.4 61.6 C72.1 68.1 70.7 71.6 67.7 81.7 C65.8 87.9 61.6 90.2 55.4 91 z M55 88.8 C61 88 65.2 85.8 67 79.7 C69.9 69.9 71.3 66.5 75.5 60.2 C79.7 53.9 80.2 47.3 80.5 29.5 C80.8 11.6 71.7 1.3 40.3 0.8 C8.8 0.3 1.7 13.4 1.8 23.9 C1.9 34.4 1.2 52.9 6.1 59.5 C11 66.1 14.6 71.7 15.6 78.6 C16.3 83.3 22 86.8 29.8 88.4 C29.6 88.6 29.3 88.8 29.1 89 C32.3 90.7 35.1 91.5 37.5 91.6 C41.1 91.8 48.5 91.6 51.3 90.3 C53.2 89.4 54.6 89 55.4 89 C55.2 89 55.1 88.9 55 88.8 z" opacity="0.15" id="n1" /></g></g><g transform="translate(89.5, 95.79996) translate(16, 3)" id="o1"><path d="M38.7 4.6 C35.6 5.9 33 6.7 31.4 8.3 C29.8 9.9 25.3 17.6 25.1 21.4 C24.9 25.2 27.2 38.1 25.3 47.4 C23.4 56.7 23.8 63.8 20.5 62.6 C17.2 61.5 18.8 58.1 13.8 51.7 C8.8 45.3 0.8 34.8 0.1 31 C-0.6 27.2 7.4 20.2 13.8 15.5 C20.2 10.8 26.9 0.6 32 0.2 C37.1 -0.2 41.6 1.6 42.3 1.8 C43 2 41.7 3.3 38.7 4.6 z" id="p1" fill="#725C54" /><path d="M38.7 4.6 C35.6 5.9 33 6.7 31.4 8.3 C29.8 9.9 25.3 17.6 25.1 21.4 C24.9 25.2 27.2 38.1 25.3 47.4 C23.4 56.7 23.8 63.8 20.5 62.6 C17.2 61.5 18.8 58.1 13.8 51.7 C8.8 45.3 0.8 34.8 0.1 31 C-0.6 27.2 7.4 20.2 13.8 15.5 C20.2 10.8 26.9 0.6 32 0.2 C37.1 -0.2 41.6 1.6 42.3 1.8 C43 2 41.7 3.3 38.7 4.6 z M37.6 4.3 C40.4 3.1 41.6 1.9 41 1.7 C40.4 1.5 37 0.2 32.3 0.6 C27.6 1 20.3 11.3 14.3 15.7 C8.3 20.1 1.2 26 1.8 29.6 C2.4 33.2 9.6 42.5 14.3 48.5 C19 54.5 17.1 56.6 20.2 57.6 C22.2 58.1 21.7 53.2 23.5 44.4 C25.3 35.6 23.8 24.4 24 20.8 C24.2 17.2 29.3 9.2 30.8 7.7 C32.3 6.2 34.7 5.5 37.6 4.3 z" opacity="0.15" id="q1" /></g><g transform="translate(89.80001, 94.99997) translate(92, 3)" id="r1"><path d="M8.7 4.4 C12.6 6.2 15 6.5 16.6 8.1 C18.2 9.7 22.7 17.6 22.9 21.4 C23.1 25.2 20.8 38.1 22.7 47.4 C24.6 56.7 24.2 63.8 27.5 62.6 C30.8 61.5 29.2 58.1 34.2 51.7 C39.2 45.3 47.1 34.8 47.9 31 C48.7 27.2 42.1 21.4 35.2 15.9 C28.3 10.4 21.1 0.6 15.9 0.2 C12.5 0 9.1 0.5 5.6 1.8 C5.1 2.4 6.1 3.2 8.7 4.4 z" id="s1" fill="#725C54" /><path d="M8.7 4.4 C6.1 3.2 5.1 2.4 5.6 1.8 C9.1 0.5 12.5 0 15.9 0.2 C21.1 0.6 28.3 10.4 35.2 15.9 C42.1 21.4 48.7 27.2 47.9 31 C47.1 34.8 39.2 45.3 34.2 51.7 C29.2 58.1 30.8 61.5 27.5 62.6 C24.2 63.8 24.6 56.7 22.7 47.4 C20.8 38.1 23.1 25.2 22.9 21.4 C22.7 17.6 18.2 9.7 16.6 8.1 C15 6.5 12.6 6.2 8.7 4.4 z M10.3 4.7 C14 6.4 15.7 6.1 17.2 7.6 C18.7 9.1 23.9 17.7 24.1 21.3 C24.3 24.9 22.7 37 24.4 45.8 C26.1 54.6 25 59 28.1 57.9 C31.2 56.9 29.2 54.5 33.9 48.5 C38.6 42.5 45.7 34.1 46.4 30.5 C47.1 26.9 41.3 21.7 34.8 16.5 C28.3 11.3 21.1 1.2 16.2 0.8 C13 0.7 9.6 0.9 6.3 2.1 C5.9 2.7 7.9 3.6 10.3 4.7 z" opacity="0.15" id="t1" /></g><g id="u1"><g transform="translate(101.3, 70.59997) translate(51, 30)" id="v1"><g id="w1"><path d="M30.4 60.8 C26.6 54.2 23.9 51.2 20.9 43.5 C19 34.9 16.9 19.5 18.5 15 C20.3 9.9 23.1 3.4 21.3 1.4 C19.3 -0.9 15.9 0.6 15.9 0.6 C15.9 0.6 12.5 -0.9 10.5 1.4 C8.7 3.4 11.6 9.9 13.3 15 C14.9 19.6 12.9 34.9 10.9 43.5 C7.9 51.2 5.3 54.3 1.4 60.8 C-0.9 64.8 -0.8 75.4 6.3 78 C9.1 79 14.5 79.3 15.9 79.3 C17.2 79.3 22.6 79 25.5 78 C32.6 75.4 32.8 64.8 30.4 60.8 z" id="x1" fill="#E8CCA2" /><path d="M30.4 60.8 C32.8 64.8 32.6 75.4 25.5 78 C22.6 79 17.2 79.3 15.9 79.3 C14.5 79.3 9.1 79 6.3 78 C-0.8 75.4 -0.9 64.8 1.4 60.8 C5.3 54.3 7.9 51.2 10.9 43.5 C12.9 34.9 14.9 19.6 13.3 15 C11.6 9.9 8.7 3.4 10.5 1.4 C12.5 -0.9 15.9 0.6 15.9 0.6 C15.9 0.6 19.3 -0.9 21.3 1.4 C23.1 3.4 20.3 9.9 18.5 15 C16.9 19.5 19 34.9 20.9 43.5 C23.9 51.2 26.6 54.2 30.4 60.8 z M27.6 59.1 C23.9 52.8 22.5 49.6 19.7 42.3 C17.9 34.1 16.8 17.6 18.3 13.3 C20 8.5 22.2 3.9 20.4 2 C18.5 -0.2 15.9 1.5 15.9 1.5 C15.9 1.5 13.3 0.1 11.4 2.3 C9.7 4.2 12.3 9.1 13.9 13.9 C15.4 18.3 14.3 34.1 12.4 42.3 C9.5 49.6 7.5 53.2 3.8 59.4 C1.6 63.2 0 72.7 6.8 75.1 C9.4 76.1 14.6 76.4 15.9 76.4 C17.1 76.4 22.3 76.1 25 75.1 C31.8 72.7 29.8 62.9 27.6 59.1 z" opacity="0.15" id="y1" /></g></g><g transform="translate(168.4, 168.7) scale(0.8) translate(-168.4, -171.7) translate(90.6, 89.59997) translate(65, 74)" id="z1"><path d="M3.6 16.5 C6.8 15.9 8.5 14.5 9.9 13.4 C10.8 12.7 11.8 11.8 12.8 10.6 C14.1 12.2 15 13.2 15.6 13.6 C16.4 14.3 18.8 15.8 20.3 16.4 C21.8 17 25.7 17.3 25.7 16.7 C25.7 16.1 21.2 15.4 19.6 14.2 C18 13 16.4 12 15.3 10.5 C14.3 9.1 14.7 8.1 14.6 6.5 C14.5 4.5 14.8 2.3 14.9 0.8 C15 -1.2 11.7 -0.6 11.7 0.8 C11.7 2.2 11.7 4.3 11.7 6.1 C11.7 7.9 11 10.1 9.6 11.3 C8.2 12.5 6.3 14 4.2 14.8 C2.9 15.3 0.2 15.9 0.3 16.5 C0.3 16.9 2.4 16.8 3.6 16.5 z" id="a2" fill="#282421" /></g><g transform="translate(168.3, 160.5) scale(0.75) translate(-168.3, -160.5) translate(109.3, 97.39997) translate(48, 55)" id="b2"><g id="c2"><path d="M20.4 3.1 C18.3 0 13.2 0.9 11 0.8 C8.8 0.9 3.7 0 1.6 3.1 C-0.3 5.9 1.2 11.4 3.7 12.1 C5.6 12.6 6.2 15.5 11 15.4 C15.9 15.5 16.5 12.6 18.3 12.1 C20.8 11.5 22.3 5.9 20.4 3.1 z" id="d2" fill="#282421" /><path d="M15.2 4.6 C14.1 4.3 12.9 4.7 12.1 5.5 L11 6.7 L10 5.5 C9.2 4.6 8 4.2 6.9 4.5 C6 4.8 4.7 5.8 4.9 6.9 C5.8 6.2 6.9 5.7 8 6.1 C9 6.4 9.7 7.4 9.9 8.4 L9.9 9.6 L11 9.6 L12.2 9.6 L12.2 8.4 C12.4 7.4 13.1 6.4 14.1 6.1 C15.2 5.7 16.4 6.2 17.2 6.9 C17.4 6 16.1 4.9 15.2 4.6 z" id="e2" fill="#FEFEFE" /></g></g><g transform="translate(107.7, 99.49997) translate(28, 21)" id="f2"><g id="g2"><path d="M6.7 17.4 C6.7 13.9 13.4 9.9 16.6 8.5 C19.8 7.1 25.4 8 26.2 9.7 C27 11.5 27 15.4 25.6 17.9 C24.6 19.6 20.1 23.8 16.6 25.6 C11 28.4 6.6 24.1 6.7 17.4 z" id="h2" fill="#293C49" /><ellipse cx="19" cy="14.4" rx="5.3" ry="4.4" id="i2" fill="#B58164" /><ellipse cx="19.6" cy="14.4" rx="4.2" ry="3.5" id="j2" fill="#282421" /><path d="M7.8 11.9 C5.5 11.7 3.2 11.5 0.9 11.4 C1.5 9.3 3 7.5 4.9 6.6 C6.8 5.7 9.1 5.7 11 6.7 C9.1 5.2 7.2 3.8 5.2 2.3 C9.6 0.6 14.1 0.2 17.7 3.5 C16.9 1.9 16.9 1.9 16.1 0.4 C20 0.9 25.7 4.9 26.4 11.2 C22.8 8.6 18.8 8.9 15 10.3 C11.2 11.7 7.7 14.8 5.9 18.6 C5.7 17 6.3 12.6 7.8 11.9 z" id="k2" fill="#B58164" /><path d="M7.8 11.9 C5.5 11.7 3.2 11.5 0.9 11.4 C1.5 9.3 3 7.5 4.9 6.6 C6.8 5.7 9.1 5.7 11 6.7 C9.1 5.2 7.2 3.8 5.2 2.3 C9.6 0.6 14.1 0.2 17.7 3.5 C16.9 1.9 16.9 1.9 16.1 0.4 C20 0.9 25.7 4.9 26.4 11.2 C22.8 8.6 18.8 8.9 15 10.3 C11.2 11.7 7.7 14.8 5.9 18.6 C5.7 17 6.3 12.6 7.8 11.9 z M9.4 11.4 C8.2 12 6.8 13.7 7 15.1 C8.9 12.7 10.8 10.2 14.1 9 C17.4 7.8 21.3 6.4 24.4 8.7 C23.8 3.3 20.2 2.4 17.1 1.5 C17.8 2.8 18 3.4 18.7 4.8 C15.6 2 10.3 1 6.5 2.5 C8.2 3.8 11.2 6.1 12.4 7.7 C10.4 7.1 10 6.6 7.6 6.6 C5.2 6.6 2.6 8.6 2.1 10.4 C4 10.5 7.5 11.2 9.4 11.4 z" opacity="0.15" id="l2" /><ellipse cx="18.6" cy="12.6" rx="1.2" ry="1.1" id="m2" fill="#FFF" /></g></g><g transform="translate(111.7, 99.49997) translate(64, 21)" id="n2"><g id="o2"><path d="M20.3 17.4 C20.3 13.9 13.6 9.9 10.4 8.5 C7.2 7.1 1.6 8 0.8 9.7 C0 11.5 0 15.4 1.4 17.9 C2.4 19.6 6.9 23.8 10.4 25.6 C16 28.4 20.4 24.1 20.3 17.4 z" id="p2" fill="#293C49" /><ellipse cx="8" cy="14.4" rx="5.3" ry="4.4" id="q2" fill="#B58164" /><ellipse cx="7.4" cy="14.4" rx="4.2" ry="3.5" id="r2" fill="#282421" /><path d="M19.2 11.9 C21.5 11.7 23.8 11.5 26.1 11.4 C25.5 9.3 24 7.5 22.1 6.6 C20.2 5.7 17.9 5.7 16 6.7 C17.9 5.2 19.8 3.8 21.8 2.3 C17.4 0.6 12.9 0.2 9.3 3.5 C10.1 1.9 10.1 1.9 10.9 0.4 C7 0.9 1.3 4.9 0.6 11.2 C4.2 8.6 8.2 8.9 12 10.3 C15.8 11.7 19.3 14.8 21.1 18.6 C21.3 17 20.7 12.6 19.2 11.9 z" id="s2" fill="#B58164" /><path d="M19.2 11.9 C21.5 11.7 23.8 11.5 26.1 11.4 C25.5 9.3 24 7.5 22.1 6.6 C20.2 5.7 17.9 5.7 16 6.7 C17.9 5.2 19.8 3.8 21.8 2.3 C17.4 0.6 12.9 0.2 9.3 3.5 C10.1 1.9 10.1 1.9 10.9 0.4 C7 0.9 1.3 4.9 0.6 11.2 C4.2 8.6 8.2 8.9 12 10.3 C15.8 11.7 19.3 14.8 21.1 18.6 C21.3 17 20.7 12.6 19.2 11.9 z M17.6 11.4 C18.9 12 20.2 13.8 20.1 15.1 C18.2 12.7 16.3 10.2 13 9 C9.7 7.8 5.7 6.4 2.6 8.6 C3.2 3.2 6.8 2.3 10 1.4 C9.3 2.7 9.1 3.3 8.4 4.6 C11.5 1.8 16.8 0.8 20.6 2.3 C18.9 3.6 15.9 5.9 14.7 7.5 C16.6 7.1 17 6.6 19.4 6.6 C21.8 6.6 24.4 8.6 24.9 10.4 C23 10.5 19.5 11.2 17.6 11.4 z" opacity="0.15" id="t2" /><ellipse cx="6.4" cy="12.6" rx="1.2" ry="1.1" id="u2" fill="#FFF" /></g></g></g></g></g></g><defs><g transform="translate(17.09519, 0.800995) translate(-135.2952, -293.601)" id="v2" fill="#000"><path d="M118.2 302.7 C118.4 307.4 132.5 311.2 149.8 311.2 C167.1 311.2 181.2 307.4 181.4 302.7 C181.4 307.5 181.4 310.1 181.4 310.5 C181.4 315.3 167.3 319.1 149.8 319.1 C132.3 319.1 118.2 315.2 118.2 310.5 L118.2 302.7 L118.2 302.7 z" fill-opacity="0.4528" id="w2" fill="#593001" /><path d="M118.7 301.7 C118.9 306.4 133 310.2 150.3 310.2 C167.6 310.2 181.7 306.4 181.9 301.7 C181.9 306.5 181.9 309.1 181.9 309.5 C181.9 314.3 167.8 318.1 150.3 318.1 C132.8 318.1 118.7 314.2 118.7 309.5 L118.7 301.7 L118.7 301.7 z" id="x2" fill="#DA8113" /><linearGradient x1="46.0545" y1="-118.6926" x2="45.4656" y2="-118.6926" gradientUnits="userSpaceOnUse" gradientTransform="matrix(117.135, 0, 0, 28.4634, -5208.417, 3687.795)" id="y2"><stop offset="0%" stop-color="#D9952A" stop-opacity="1" /><stop offset="6.438854%" stop-color="#CA7519" stop-opacity="1" /><stop offset="30.54%" stop-color="#E3AD3A" stop-opacity="1" /><stop offset="51.05%" stop-color="#FFEC91" stop-opacity="1" /><stop offset="68.8%" stop-color="#E9BD44" stop-opacity="1" /><stop offset="86.24%" stop-color="#FFED6C" stop-opacity="1" /><stop offset="93.87%" stop-color="#F2D353" stop-opacity="1" /><stop offset="100%" stop-color="#F2B947" stop-opacity="1" /></linearGradient><path d="M118.2 301.6 C118.4 306.1 132.7 309.7 150.3 309.7 C167.9 309.7 182.2 306.1 182.4 301.6 C182.4 306.2 182.4 308.7 182.4 309 C182.4 313.5 168 317.2 150.3 317.2 C132.6 317.2 118.2 313.5 118.2 309 L118.2 301.6 L118.2 301.6 z" id="z2" style="fill:url(#y2)" /><linearGradient x1="45.4914" y1="-117.9547" x2="45.9407" y2="-117.5895" gradientUnits="userSpaceOnUse" gradientTransform="matrix(115.425, 0, 0, 29.925, -5125.077, 3826.124)" id="a3"><stop offset="0%" stop-color="#F4E072" stop-opacity="1" /><stop offset="100%" stop-color="#DB9427" stop-opacity="1" /></linearGradient><ellipse cx="150.3" cy="301.5" rx="31.6" ry="8.2" id="b3" style="fill:url(#a3)" /><linearGradient x1="45.4656" y1="-126.0065" x2="46.0545" y2="-126.0065" gradientUnits="userSpaceOnUse" gradientTransform="matrix(117.135, 0, 0, 18.6219, -5208.417, 2651.479)" id="c3"><stop offset="0%" stop-color="#D9952A" stop-opacity="1" /><stop offset="6.438854%" stop-color="#CA7519" stop-opacity="1" /><stop offset="30.54%" stop-color="#E3AD3A" stop-opacity="1" /><stop offset="51.05%" stop-color="#FFEC91" stop-opacity="1" /><stop offset="68.8%" stop-color="#E9BD44" stop-opacity="1" /><stop offset="86.24%" stop-color="#FFED6C" stop-opacity="1" /><stop offset="93.87%" stop-color="#F2D353" stop-opacity="1" /><stop offset="100%" stop-color="#F2B947" stop-opacity="1" /></linearGradient><path d="M119.2 299.9 C119 300.2 118.9 300.6 118.9 301 C118.9 305.5 132.9 309.2 150.3 309.2 C167.7 309.2 181.7 305.5 181.7 301 C181.7 300.6 181.6 300.3 181.4 299.9 C182 300.5 182.4 301.2 182.4 301.9 C182.4 306.4 168 310.1 150.3 310.1 C132.6 310.1 118.2 306.4 118.2 301.9 C118.2 301.3 118.6 300.6 119.2 299.9 z" id="d3" style="fill:url(#c3)" /><linearGradient x1="45.196" y1="-121.5895" x2="45.3746" y2="-120.6758" gradientUnits="userSpaceOnUse" gradientTransform="matrix(101.745, 0, 0, 23.94, -4458.332, 3199.41)" id="e3"><stop offset="0%" stop-color="#F8DD61" stop-opacity="1" /><stop offset="100%" stop-color="#EAA330" stop-opacity="1" /></linearGradient><ellipse cx="150.3" cy="300.8" rx="27.8" ry="6.6" id="f3" style="fill:url(#e3)" /><linearGradient x1="45.5694" y1="-134.267" x2="45.0221" y2="-134.267" gradientUnits="userSpaceOnUse" gradientTransform="matrix(101.745, 0, 0, 13.2525, -4458.332, 2077.223)" id="g3"><stop offset="0%" stop-color="#F4CA2F" stop-opacity="1" /><stop offset="51.38%" stop-color="#BF7737" stop-opacity="1" /><stop offset="100%" stop-color="#E4A929" stop-opacity="1" /></linearGradient><path d="M122.6 301.5 C122.5 301.3 122.4 301 122.4 300.8 C122.4 297.2 134.9 294.2 150.2 294.2 C165.5 294.2 178 297.1 178 300.8 C178 301 177.9 301.3 177.8 301.5 C176.3 298.2 164.5 295.6 150.1 295.6 C135.7 295.6 124.1 298.2 122.6 301.5 z" id="h3" style="fill:url(#g3)" /></g></defs><desc>LEG255J6NCF,5h7BdoWmeQA3JpJABcmSNsNmS8ehOouKWhNEirI5kRsBT1hGZNZeXTcaJTQ9USEitAVz5kXh39Blbmf0pDj+PQ==</desc></svg>