<?xml version="1.0" encoding="utf-8"?><!DOCTYPE svg PUBLIC "-//W3C//DTD SVG 1.1//EN" "http://www.w3.org/Graphics/SVG/1.1/DTD/svg11.dtd"><svg x="0" y="0" width="340px" height="340px" viewBox="0, 0, 340, 340" preserveAspectRatio="xMidYMid" font-size="0" id="a" enable-background="new 0 0 340 340" xmlns="http://www.w3.org/2000/svg" xmlns:xlink="http://www.w3.org/1999/xlink" xmlns:xml="http://www.w3.org/XML/1998/namespace" version="1.1"><g id="b" fill="#000"><g id="c"><g transform="translate(0, 0) translate(0, 224)" id="d"><ellipse cx="168.6" cy="53.1" rx="57.8" ry="12.8" fill-opacity="0.25" id="e" /></g><g id="f"><g transform="translate(105.1, 118.5) translate(0, 122)" id="g"><g id="h"><path d="M37.2 31.3 C12.9 30.6 2.2 26.6 0.8 19.3 C0 15.1 -0.4 9.5 0.8 6.5 C2.8 1.8 7.8 0.9 9.2 0.7 C11.4 0.3 13.8 1.1 16.3 3.1 C16.9 3.7 17.2 4.6 17.3 5.9 C17.3 7.7 18.4 8.8 15.8 9.1 C13.3 9.5 11.8 7.1 10.3 7.3 C8.8 7.5 8.3 9.9 8.3 10.8 C8.3 11.7 7.9 13.8 10.8 15.2 C12.8 16.1 26.9 18.4 37.1 19.7 L37.2 31.3 z" id="i" fill="#424753" /><path d="M8.7 1.6 C10.1 1 12.4 0.6 16.3 2.9 C17.6 3.8 18.2 5.1 18.2 6.7 C18.2 7.6 17.8 10 15.4 9.8 C13 9.6 11.8 7.5 10.3 7.8 C9.3 8 8.6 9 8.3 11 C8.3 13 9.3 14.4 11.2 15.2 C13.1 16 25.3 18.6 35.6 19.6 C36.9 23.3 35.1 25.6 34.4 25.6 C32.9 25.6 15.5 23.4 9.9 20.2 C4.2 17 4.5 15.8 3.7 10.4 C2.9 4.8 7.8 2 8.7 1.6 z" id="j" fill="#1A2230" /><path d="M15.2 2.3 C15.5 2.5 15.9 2.7 16.3 2.9 C17.6 3.8 18.2 5.1 18.2 6.7 C18.2 7.6 17.8 10 15.4 9.8 C13 9.6 11.8 7.5 10.3 7.8 C9.3 8 8.6 9 8.3 11 C8.3 13 9.3 14.4 11.2 15.2 C11.8 15.4 13.2 15.8 15.2 16.3 C20.6 17.4 29.9 18.8 37.1 19.7 L37.2 31.3 C12.9 30.6 2.2 26.6 0.8 19.3 C0 15.1 -0.4 9.5 0.8 6.5 C2.8 1.8 7.8 0.9 9.2 0.7 C11.1 0.4 13.1 0.9 15.2 2.3 z M17.7 5.9 C17.7 4.9 17 4 15.7 3.1 C13.7 1.8 11.7 0.5 10 0.8 C8.6 1.1 4 1.9 2.2 6.2 C1.1 9 1.5 14.2 2.2 18 C3.5 24.7 13.4 28.4 35.8 29.1 L35.8 20.7 C29.1 19.8 21.3 18.7 16.3 17.7 C14.5 17.3 10.8 16.1 10.3 15.9 C8.5 15.2 7.8 14.2 7.8 10.8 C8 9 9.1 7.1 10.6 7.1 C12 7.1 13.4 9.1 15.6 9.3 C17.8 9.5 17.7 6.8 17.7 5.9 z" opacity="0.15" id="k" /></g></g><g transform="translate(132.3, 273.8) scale(1.217507) translate(-132.3, -273.8) translate(111.8, 117.7) translate(18, 125)" id="l"><g transform="translate(14.5, 17) scale(-1, 1) translate(-14.5, -17)" id="m"><path d="M10.9 1.8 C11.6 2 21.5 -3.4 26.2 6.5 C26.9 11.9 19.6 25 20.5 26 C23.5 28.8 27.3 28.1 27.6 28.6 C27.9 29.1 26.7 30.5 24.1 32.5 C10.3 32.5 3.3 32.5 2.9 32.5 C-3.5 27 2.2 4.4 10.9 1.8 z" id="n" fill="#1A2230" /><path d="M21.7 23.2 C24.6 25.3 26.6 23.6 27.8 26.8 C29.1 29.9 26.4 30.9 25.7 32.5 C25 34.1 3.3 32.5 3 32.5 C2.8 32.5 3.2 29.3 4 25.1 C7.3 23.9 10.9 21.6 13.4 20.6 C14.6 20.1 14.8 18.3 18.3 18.5 C20.5 18.5 21.7 20.1 21.7 23.2 z" id="o" fill="#905333" /><path d="M21.6 22 C21.6 22.4 21.7 22.8 21.7 23.2 C24.6 25.3 26.6 23.6 27.8 26.8 C29.1 29.9 26.4 30.9 25.7 32.5 C25 34.1 3.3 32.5 3 32.5 L2.9 32.5 C-3.5 27 2.2 4.4 10.9 1.8 C11.6 2 21.5 -3.4 26.2 6.5 C26.7 10.2 23.5 17.4 21.6 22 z M20.4 23.6 C20.4 23.2 21.1 20.9 21.1 20.6 C22.8 16.4 25.8 9.7 25.3 6.3 C21 -2.8 11.8 2.1 11.2 2 C3.2 4.4 -2.1 25.3 3.8 30.4 L3.9 30.4 C4.2 30.4 24.1 31.3 24.9 30.4 C25.6 29.5 26.8 28.4 26.1 26.9 C24.9 23.8 23 25.6 20.4 23.6 z" opacity="0.15" id="p" /></g></g><g transform="translate(205.2, 273.7999) scale(1.217507) translate(-205.2, -273.7999) translate(95.70001, 117.7) translate(96.5, 142) scale(-1, 1) translate(-96.5, -142) translate(81, 125)" id="q"><g transform="translate(15.5, 17) scale(-1, 1) translate(-15.5, -17)" id="r"><path d="M13 1.8 C13.7 2 23.6 -3.4 28.3 6.5 C29 11.9 21.6 25 22.6 26 C25.6 28.8 29.4 28.1 29.7 28.6 C30 29.1 28.8 30.5 26.2 32.5 C12.4 32.5 5.4 32.5 5 32.5 C-0.9 31.6 -3.3 5.3 13 1.8 z" id="s" fill="#1A2230" /><path d="M23.7 23.2 C26.6 25.3 28.6 23.6 29.8 26.8 C31.1 29.9 28.4 30.9 27.7 32.5 C27 34.1 5.3 32.5 5 32.5 C4.8 32.5 5.2 29.3 6 25.1 C9.3 23.9 12.9 21.6 15.4 20.6 C16.6 20.1 16.8 18.3 20.3 18.5 C22.5 18.5 23.7 20.1 23.7 23.2 z" id="t" fill="#905333" /><path d="M23.7 23.2 C26.6 25.3 28.6 23.6 29.8 26.8 C31.1 29.9 28.4 30.9 27.7 32.5 C27 34.1 5.3 32.5 5 32.5 C-0.9 31.6 -3.3 5.3 13 1.8 C13.7 2 23.6 -3.4 28.3 6.5 C28.8 10.2 25.5 17.5 23.6 22.1 C23.7 22.4 23.7 22.8 23.7 23.2 z M21.6 23 C21.6 22.6 23.1 21 23.1 20.7 C24.8 16.5 27.9 9.6 27.4 6.2 C23 -3 13.7 2.5 13.1 2.4 C-2.1 5.6 0.2 29.6 5.7 30.4 C6 30.4 26 31.4 26.8 30.4 C27.6 29.4 29 28.5 28.4 26.4 C28.4 25.1 24.3 25 21.6 23 z" opacity="0.15" id="u" /></g></g><g transform="translate(109.1, 122.6) translate(23, 85)" id="v"><path d="M61.9 14 C58.4 7.7 55.3 4.6 50.9 3.5 C49.4 3.2 36.5 0.9 36.5 0.9 C36.5 0.9 23.6 3.2 22.1 3.5 C17.7 4.5 14.6 7.7 11.1 14 C5.5 23.9 6.8 33.7 7.4 45.2 C7.6 49 10.7 52.4 12.1 55.6 C14.6 61.3 16.7 66.1 21.6 68.7 C26.1 71.1 30.8 71.1 36.4 71.1 C42 71.1 46.8 71.1 51.2 68.7 C56.2 66 58.2 61.3 60.7 55.6 C62.1 52.4 65.2 48.9 65.4 45.2 C66.3 33.6 67.5 23.8 61.9 14 z" id="w" fill="#1A2230" /><path d="M61.9 14 C67.5 23.8 66.3 33.6 65.4 45.2 C65.2 48.9 62.1 52.4 60.7 55.6 C58.2 61.3 56.2 66 51.2 68.7 C46.8 71.1 42 71.1 36.4 71.1 C30.8 71.1 26.1 71.1 21.6 68.7 C16.7 66.1 14.6 61.3 12.1 55.6 C10.7 52.4 7.6 49 7.4 45.2 C6.8 33.7 5.5 23.9 11.1 14 C14.6 7.7 17.7 4.5 22.1 3.5 C23.6 3.2 36.5 0.9 36.5 0.9 C36.5 0.9 49.4 3.2 50.9 3.5 C55.3 4.6 58.4 7.7 61.9 14 z M61.1 13.5 C57.7 7.5 54.7 4.5 50.4 3.5 C49 3.2 36.5 1 36.5 1 C36.5 1 24 3.2 22.5 3.5 C18.2 4.5 15.2 7.5 11.8 13.5 C6.4 23 7.7 32.3 8.3 43.3 C8.5 46.9 11.5 50.2 12.9 53.2 C15.3 58.6 17.4 63.2 22.1 65.7 C26.5 68 31 68 36.5 68 C42 68 46.6 68 50.9 65.7 C55.8 63.1 57.7 58.6 60.1 53.2 C61.5 50.1 64.5 46.8 64.7 43.3 C65.4 32.2 66.6 22.9 61.1 13.5 z" opacity="0.15" id="x" /></g><g transform="translate(142.9883, 214.73) scale(0.5327401, 0.6681512) translate(-120.7, -211.8) translate(97.00001, 85.79997) translate(24, 127)" id="y"><path d="M6.1 0.2 C11.1 5.7 15.3 10.1 18.8 13.2 C26.2 19.7 34 23.4 34.2 23.5 C39.7 27 43.3 27.1 48.3 27.1 C53.3 27.1 61.1 25.3 64.4 23.5 C66 22.6 72.5 19.8 80.3 12 C83.2 9.2 86 4.8 88.8 -1 C90.9 1.7 92.5 5.5 93.6 10.3 C94.4 14.1 91.9 19.6 92.1 24.6 C90.9 36.8 87.7 37.7 83.8 47 C82.9 49.2 84.6 50.8 83.6 53.8 C80.2 63.3 76.6 75.4 76 82 C75.8 84.4 77.6 84.2 80.5 87.3 C83.4 90.4 86.7 99 82.8 100.9 C74 102.3 63.9 97.7 61.3 96.3 C59.6 95.4 59.3 78 59.6 61.4 C59.7 51.6 60.3 42 59.6 39.7 C57.5 41.8 51.1 46.2 48.5 46 C45.9 45.8 43.6 42.3 37.8 38.9 C37.4 41.1 38.8 52.2 39 61.3 C39.4 78 39 96.2 37.8 97.4 C36.1 99.4 18.9 101.8 14.7 100.8 C10.5 99.8 12.7 93.7 13.5 92 C15.4 87.8 21 85 20.9 83.5 C20.2 71.3 17.3 63 14.7 56.5 C13.7 54.1 14.3 49.9 13.5 47.9 C8.1 34.4 6.9 36.4 4.9 31.7 C3.2 27.8 1 25.4 2 21.1 C3 16.8 1.4 11 2.1 9.3 C3 6.9 4.3 3.8 6.1 0.2 z" id="z" fill="#424753" /><path d="M93.6 10.2 C94.4 14 94.9 18.4 95.1 23.4 C93.9 35.6 92.9 33.6 89 43 C88.1 45.1 83.9 52.6 82.8 55.2 C81 57.3 80.8 59.3 78.9 59.4 C76.2 59.6 76.9 55.9 80.9 46.4 C83.6 39.8 84.8 35.9 86.7 26.5 C87.9 20.2 91.4 13.1 93.6 10.2 z" id="a1" fill="#B46734" /><path d="M14.6 56.5 C13.6 54.1 12.7 51.9 11.9 49.9 C6.6 36.4 0.8 32.6 0.3 25.4 C-0.3 19.9 0.1 17.8 0.8 13.5 C1 12.4 1.4 11 2.1 9.3 C4.8 12.1 10 19.9 11.3 26.4 C13.2 35.8 14.4 39.7 17.1 46.3 C21 55.8 21.8 59.4 19.1 59.3 C17.4 59.2 16.1 58.2 14.6 56.5 z" id="b1" fill="#B46734" /><path d="M6.1 0.2 C11.1 5.7 15.3 10.1 18.8 13.2 C26.2 19.7 34 23.4 34.2 23.5 C39.7 27 43.3 27.1 48.3 27.1 C53.3 27.1 61.1 25.3 64.4 23.5 C66 22.6 72.5 19.8 80.3 12 C83.2 9.2 86 4.8 88.8 -1 C90.9 1.7 92.5 5.5 93.6 10.3 C94.4 14.1 94.9 18.5 95.1 23.5 C93.9 35.6 92.9 33.6 89 43 C88.3 44.7 85.5 49.8 83.8 53.1 C83.8 53.3 83.7 53.5 83.6 53.8 C80.2 63.3 76.6 75.4 76 82 C75.8 84.4 77.6 84.2 80.5 87.3 C83.4 90.4 86.7 99 82.8 100.9 C74 102.3 63.9 97.7 61.3 96.3 C59.6 95.4 59.3 78 59.6 61.4 C59.7 51.6 60.3 42 59.6 39.7 C57.5 41.8 51.1 46.2 48.5 46 C45.9 45.8 43.6 42.3 37.8 38.9 C37.4 41.1 38.8 52.2 39 61.3 C39.4 78 39 96.2 37.8 97.4 C36.1 99.4 18.9 101.8 14.7 100.8 C10.5 99.8 12.7 93.7 13.5 92 C15.4 87.8 21 85 20.9 83.5 C20.2 71.5 17.4 63.3 14.9 56.9 C14.8 56.8 14.7 56.6 14.5 56.5 C13.5 54.1 12.6 51.9 11.8 49.9 C6.6 36.4 0.8 32.6 0.3 25.4 C-0.3 19.9 0.1 17.8 0.8 13.5 C1 12.4 1.4 11 2.1 9.3 C3 6.9 4.3 3.8 6.1 0.2 z M8.6 4.8 C6.9 8.1 6.3 10.2 5.5 12.4 C4.9 14 4.5 15.3 4.3 16.4 C3.7 20.4 3.3 22.3 3.8 27.4 C4.3 34 9.6 37.5 14.5 50.1 C15.2 52 16.1 54 17 56.2 C17.1 56.3 17.2 56.4 17.3 56.6 C19.7 62.6 22.2 73.6 22.8 84.7 C22.9 86.1 17.6 87 15.9 90.9 C15.2 92.5 13.2 96.4 17.1 97.3 C21 98.2 34.2 96.4 35.8 94.5 C36.9 93.4 37.5 74.5 37.2 58.9 C37 50.5 34 37.5 34.4 35.5 C39.8 38.6 46.5 44.9 48.8 45 C51.1 45.1 60.4 37 62.3 35.1 C62.9 37.2 61.2 52.7 61.1 61.8 C60.8 77.1 61 93.5 62.6 94.3 C65 95.6 72 98.6 80.1 97.3 C83.7 95.4 79.9 90.2 77.2 87.4 C74.5 84.6 74.1 84.9 74.3 82.6 C74.9 76.5 77.7 62.4 80.8 53.6 C80.9 53.4 80.9 53.2 81 53 C82.5 49.9 85.2 45.2 85.8 43.6 C89.4 34.9 90.3 36.7 91.4 25.6 C91.2 20.9 90.8 16.8 90 13.3 C89 8.9 89.4 6.5 87.5 4 C84.9 9.5 80.4 13.4 77.8 16 C70.5 23.2 64.6 24.7 63.1 25.5 C60 27.2 52.9 30.9 48.3 30.9 C43.7 30.9 40.2 28.7 35.2 25.5 C35 25.4 27.3 22 20.5 16 C17.2 13.1 13.2 9.8 8.6 4.8 z" opacity="0.15" id="c1" /></g></g><g id="d1"><g transform="translate(90.5, 127.9) translate(37, 0)" id="e1"><path d="M39.5 0.5 C71.6 1 81 11.5 80.7 29.8 C80.4 48 79.9 54.8 75.6 61.2 C71.3 67.7 69.9 71.1 66.9 81.2 C63.9 91.3 54.7 90.8 41.1 91.1 C27.5 91.5 15.5 87 14.4 80 C13.3 73 9.6 67.3 4.7 60.5 C-0.2 53.7 0.4 34.9 0.3 24.2 C0.2 13.4 7.5 0 39.5 0.5 z" id="f1" fill="#424753" /><path d="M28.3 90.7 C31.6 92.4 34.5 93.3 36.9 93.4 C40.6 93.6 48.1 93.4 51 92.1 C53 91.2 54.4 90.8 55.2 90.8 C51.5 87.9 49 86.4 47.7 86.2 C45.8 86 40.4 83.9 38.7 85.1 C36.9 86.3 32.9 87 32 87.8 C31.3 88.3 30.2 89.2 28.3 90.7 z" id="g1" fill="#332920" /><path d="M54.7 90.5 C54.8 90.6 54.9 90.7 55.1 90.8 C54.3 90.8 52.9 91.2 50.9 92.1 C48 93.4 40.5 93.6 36.8 93.4 C34.4 93.3 31.5 92.4 28.2 90.7 C28.5 90.5 28.7 90.3 29 90.1 C21 88.4 15.2 84.8 14.5 80.1 C13.4 73.1 9.7 67.4 4.8 60.6 C-0.1 53.8 0.5 34.9 0.4 24.2 C0.3 13.5 7.5 0 39.5 0.5 C71.6 1 81 11.5 80.7 29.8 C80.4 48 79.9 54.8 75.6 61.2 C71.3 67.7 69.9 71.1 66.9 81.2 C65.1 87.4 60.9 89.7 54.7 90.5 z M54 87.2 C59.9 86.4 63.8 84.2 65.6 78.4 C68.5 68.9 69.8 65.6 73.9 59.4 C78 53.2 78.5 46.8 78.8 29.5 C79 12 70.1 2 39.5 1.6 C9.1 1.1 2.2 13.8 2.3 24.1 C2.4 34.3 1.7 52.3 6.4 58.7 C11.1 65.1 14.7 70.6 15.6 77.3 C16.3 81.9 21.9 85.3 29.4 86.8 C29.2 87 28.9 87.2 28.7 87.4 C31.8 89 34.6 89.9 36.9 90 C40.4 90.2 47.6 90 50.3 88.8 C52.2 87.9 53.5 87.6 54.3 87.6 C54.2 87.4 54.1 87.3 54 87.2 z" opacity="0.15" id="h1" /></g><g transform="translate(100.7, 127.7)" id="i1"><g id="j1"><path d="M43.8 4.7 C43.8 4.7 46 6.8 47.8 8.8 C51.2 12.7 49.4 16.5 45.6 18.1 C43.1 19.2 40.1 20.6 38 22.9 C35.6 25.5 33 28 31.3 30.2 C29.5 32.5 27.2 34.1 25 33.6 C19.8 32.4 15.4 21.2 17.5 17.2 C20.9 10.8 43.8 4.7 43.8 4.7 z" id="k1" fill="#1A2230" /><path d="M18.4 16 C18.4 15.8 18.5 15.5 18.6 15.3 C21 10.9 32.4 7.6 38.3 6.3 C41.5 5.3 43.8 4.7 43.8 4.7 C43.8 4.7 46 6.8 47.8 8.8 C51.2 12.7 49.4 16.5 45.6 18.1 C43.1 19.2 40.1 20.6 38 22.9 C35.6 25.5 33 28 31.3 30.2 C29.5 32.5 27.2 34.1 25 33.6 C19.8 32.4 15.4 21.2 17.5 17.2 C17.7 16.8 18 16.4 18.4 16 z M18.4 16 C17.1 20.2 20.7 29.6 25.3 30.7 C27.4 31.2 29.2 30.1 30.9 27.9 C32.5 25.9 35.2 23.7 37.4 21.3 C39.4 19.1 43.2 17.6 45.5 16.6 C49 15.1 49 11.9 45.8 8.3 C44.1 6.4 42.9 5.7 41.8 5.7 C41.6 5.7 40.2 5.9 38.3 6.3 C32 8.4 21.9 12.1 18.4 16 z" opacity="0.2" id="l1" /><path d="M45.2 6 C36.5 -2.4 38.1 3.6 23.1 0.9 C8.1 -1.8 -4.2 15.2 2 35.3 C7.5 53.2 8 60.6 11.3 60.6 C17 60.6 19.2 40 27.1 24.3 C33 12.9 45.2 6 45.2 6 z" id="m1" fill="#424753" /><path d="M45.2 6 C45.2 6 33 12.9 27.1 24.3 C19.2 40 17 60.6 11.3 60.6 C8 60.6 7.5 53.2 2 35.3 C-4.2 15.2 8.1 -1.8 23.1 0.9 C38.1 3.6 36.5 -2.4 45.2 6 z M43 6 C35 -1.7 36.4 3.8 22.6 1.3 C8.7 -1.2 -1.9 14.5 3.9 33.1 C9 49.7 9.1 55.4 12.1 55.4 C17.4 55.4 17.9 38 25.3 23.5 C30.7 13 43 6 43 6 z" opacity="0.15" id="n1" /></g></g><g transform="translate(108.7, 126.7) translate(100, 30.5) scale(-1, 1) translate(-100, -30.5) translate(75, 0)" id="o1"><g id="p1"><path d="M43.8 4.7 C43.8 4.7 46 6.8 47.8 8.8 C51.2 12.7 49.4 16.5 45.6 18.1 C43.1 19.2 40.1 20.6 38 22.9 C35.6 25.5 33 28 31.3 30.2 C29.5 32.5 27.2 34.1 25 33.6 C19.8 32.4 18.1 20.4 20.4 16.7 C23.9 11.1 43.8 4.7 43.8 4.7 z" id="q1" fill="#1A2230" /><path d="M24.7 13 C30.9 8.8 43.1 4.9 43.1 4.9 C43.1 4.9 43.1 4.9 43.1 4.9 C43.6 4.8 43.8 4.7 43.8 4.7 C43.8 4.7 46 6.8 47.8 8.8 C51.2 12.7 49.4 16.5 45.6 18.1 C43.1 19.2 40.1 20.6 38 22.9 C35.6 25.5 33 28 31.3 30.2 C29.5 32.5 27.2 34.1 25 33.6 C19.8 32.4 18.1 20.4 20.4 16.7 C21.2 15.5 22.7 14.2 24.7 13 z M24.7 13 C23.2 14 22.1 14.9 21.5 15.9 C19.4 19.3 21 30.4 25.8 31.5 C27.8 31.9 29.9 30.4 31.6 28.3 C33.1 26.3 35.5 24 37.7 21.6 C39.7 19.5 42.4 18.2 44.7 17.2 C48.2 15.7 49.9 12.2 46.7 8.6 C45.3 7 43.5 5.3 43.1 4.9 C40.5 5.8 30.7 9.2 24.7 13 z" opacity="0.2" id="r1" /><path d="M45.2 6 C36.5 -2.4 38.1 3.6 23.1 0.9 C8.1 -1.8 -4.2 15.2 2 35.3 C7.5 53.2 8 60.6 11.3 60.6 C17 60.6 19.2 40 27.1 24.3 C33 12.9 45.2 6 45.2 6 z" id="s1" fill="#424753" /><path d="M45.2 6 C45.2 6 33 12.9 27.1 24.3 C19.2 40 17 60.6 11.3 60.6 C8 60.6 7.5 53.2 2 35.3 C-4.2 15.2 8.1 -1.8 23.1 0.9 C38.1 3.6 36.5 -2.4 45.2 6 z M43.6 5.8 C37.3 -0.8 36.7 4 22.9 1.5 C9 -1 -1.7 15.6 4 34.3 C9.1 50.9 8.3 56.1 11.4 56.1 C16.6 56.1 15.6 40.4 26.3 23.3 C31.7 12.7 43.6 5.8 43.6 5.8 z" opacity="0.15" id="t1" /></g></g><g id="u1"><g transform="translate(84.89999, 128.2) translate(60, 9)" id="v1"><path d="M18.5 16.6 C20.1 14.3 15.6 1.5 14.3 0.3 C13.6 -0.3 15.8 -0.1 19.9 3.9 C20.6 4.6 21.7 6.3 23.1 8.9 C24.8 6.3 26.1 4.6 27 3.9 C32.4 -0.3 33.9 -0.3 32.5 1.3 C31.1 3 28.9 7.4 28 10.9 C27.3 13.8 27.8 16 28 16.5 C28.6 17.7 31.1 26.7 32.5 30.8 C33.9 34.9 37.8 41.3 39.3 44.7 C42.1 51 46.1 55.5 46.8 58.4 C47.2 61.7 45.4 68 44.8 69.9 C44.2 72.1 42.4 73.2 40.5 74.1 C37 75.7 34.4 76.6 30 77.7 C27.8 78.2 26.8 78.1 23.3 78 C20.7 77.9 18.4 77.7 15.4 76.8 C13 76.1 10 75.5 7.7 74.7 C4.2 73.5 2.2 70.5 2 69.5 C1.2 66.1 0 61.8 0.5 58.6 C1 55.5 5.2 51.5 7.6 44.6 C8.8 41.1 11.6 36.8 13 33.5 C15.7 26.7 17 18.9 18.5 16.6 z" id="w1" fill="#B46734" /><path d="M18.5 16.6 C20.1 14.3 15.6 1.5 14.3 0.3 C13.6 -0.3 15.8 -0.1 19.9 3.9 C20.6 4.6 21.7 6.3 23.1 8.9 C24.8 6.3 26.1 4.6 27 3.9 C32.4 -0.3 33.9 -0.3 32.5 1.3 C31.1 3 28.9 7.4 28 10.9 C27.3 13.8 27.8 16 28 16.5 C28.6 17.7 31.1 26.7 32.5 30.8 C33.9 34.9 37.8 41.3 39.3 44.7 C42.1 51 46.1 55.5 46.8 58.4 C47.2 61.7 45.4 68 44.8 69.9 C44.2 72.1 42.4 73.2 40.5 74.1 C37 75.7 34.4 76.6 30 77.7 C27.8 78.2 26.8 78.1 23.3 78 C20.7 77.9 18.4 77.7 15.4 76.8 C13 76.1 10 75.5 7.7 74.7 C4.2 73.5 2.2 70.5 2 69.5 C1.2 66.1 0 61.8 0.5 58.6 C1 55.5 5.2 51.5 7.6 44.6 C8.8 41.1 11.6 36.8 13 33.5 C15.7 26.7 17 18.9 18.5 16.6 z M18.8 17 C17.4 19.2 16.9 26.5 14.4 32.8 C13.1 35.9 10.2 40.8 9 44.1 C6.8 50.6 3 54.5 2.5 57.4 C2.1 60.4 2.6 63.4 3.4 66.6 C3.6 67.5 5.4 70.3 8.7 71.4 C10.9 72.2 13.7 72.7 15.9 73.4 C18.7 74.2 20.9 74.4 23.3 74.5 C26.6 74.6 27.5 74.7 29.6 74.2 C33.7 73.2 36.2 72.4 39.4 70.9 C41.2 70 42.9 69 43.5 66.9 C44 65.2 45.3 60.4 45 57.3 C44.3 54.5 40.4 49.9 37.7 44 C36.3 40.8 33.2 34.2 31.9 30.3 C30.6 26.5 28.2 18.6 27.6 17.4 C27.5 17 26.9 14.6 27.2 12.2 C28.1 8.9 29.9 3.8 31.2 2.2 C32.5 0.7 31.6 1.1 26.6 5.1 C25.7 5.7 24.7 7.4 23.1 9.8 C21.8 7.4 20.8 5.8 20.1 5.1 C16.3 1.4 15.2 1.1 15.8 1.7 C17 2.8 20.3 14.9 18.8 17 z" opacity="0.15" id="x1" /></g><g transform="translate(168, 200.3) scale(0.8) translate(-168, -206.3) translate(109, 127.8) translate(39, 69)" id="y1"><g id="z1" fill="#282421"><path d="M39.8 15.5 C39.5 14.9 38.9 15.2 38.5 15.4 C37.7 15.8 36.8 16.2 35.9 16.4 C33.7 16.8 31.7 15.7 30 14.3 C28.2 12.9 26.7 11.2 25 9.7 C24.3 9.1 23.5 8.5 22.7 8 C22.3 7.8 20.8 7.3 20.6 7 C20.5 6.8 20.8 6.2 20.8 6 C20.9 5.4 21.1 4.8 21.2 4.1 C21.4 3.2 21.9 1.9 21.2 1.1 C20 -0.2 18.4 1.2 18.6 2.6 C18.8 3.6 19.1 4.6 19.3 5.6 C19.4 5.8 19.7 6.5 19.6 6.8 C19.5 7.2 18.4 7.4 18 7.6 C16.2 8.6 14.7 10 13.2 11.4 C10.2 14.3 6.6 17.7 2.2 15.4 C1.7 15.2 1 14.6 0.5 15 C-0.3 15.6 0.6 16.2 1.1 16.5 C2.8 17.6 4.8 18.2 6.8 17.9 C11.1 17.2 14.1 13.4 17.5 11.1 C18.2 10.7 19.2 9.9 20.1 9.9 C21 9.9 22.1 10.8 22.8 11.3 C24.7 12.6 26.4 14.3 28.4 15.6 C30.3 17 32.6 18.1 35 17.9 C35.8 18.1 40.6 16.9 39.8 15.5 z" id="a2" /></g></g><g transform="translate(101.5, 124) translate(56, 60)" id="b2"><g id="c2"><path d="M0.9 8.2 C2.5 12.2 3.6 15.3 5.8 16 C8 16.7 12.1 16.7 13.8 15.9 C15.5 15.2 20.4 8.5 20.8 6.1 C21.1 3.7 19.1 2.6 17.2 1.5 C15.4 0.3 9.6 0.3 7.1 0.3 C4.6 0.3 -0.7 4.1 0.9 8.2 z" id="d2" fill="#353535" /><path d="M13.5 3.2 C13.5 5.7 14.3 8 15.3 7.8 C16 7.7 16.8 6.9 17.7 5.5 C14.9 2.3 13.5 1.6 13.5 3.2 z" id="e2" fill="#FFF3F3" /></g></g><g transform="translate(84.89999, 128.2) translate(55, 18)" id="f2"><g id="g2"><path d="M1.8 10.9 C4.2 6.6 6.4 6 7.9 4.5 C10.3 2 13.9 0.3 14.6 0.8 C15.3 1.3 20.6 9.2 21.3 10.1 C22.5 11.8 22.5 14.4 21.3 17.7 C21 18.5 19.9 19.4 17.9 20.4 C15.3 21.1 12.7 21.4 10 21.3 C8.7 21.2 5.6 20.7 4.5 21 C2.1 21.6 2.1 23.1 1.5 21.9 C0.5 20.2 -0.8 15.7 1.8 10.9 z" id="h2" fill="#905333" /><path d="M17.4 18.2 C18.6 16.3 17.8 14 17.1 12.5 C16.3 10.7 14.6 9.9 13.7 9.5 C11.2 8.4 9.2 8.8 7.3 10.4 C5.4 12 3.8 15 3.8 16.6 C3.8 18.2 7.9 19.8 11 19.8 C14.2 19.6 16.3 20.1 17.4 18.2 z" id="i2" /><path d="M13.1 12.7 C13.1 11.5 12.1 10.5 10.9 10.5 C9.8 10.5 8.8 11.5 8.8 12.8 C8.8 14.1 9.8 15 11 15 C11 14.9 11 14.9 11 14.8 C10.8 14.3 10.9 13.8 11.4 13.2 C12 12.7 12.5 12.6 13.1 12.7 z" id="j2" fill="#FFFFFE" /></g></g><g transform="translate(84.79999, 128.2) translate(89, 18)" id="k2"><path d="M20.5 10.9 C18.1 6.5 15.9 6 14.4 4.5 C12 2 8.4 0.3 7.7 0.8 C7 1.3 2.4 8.2 1.3 10 C-0.2 12.3 0.7 16.7 3 19.2 C5.3 21.7 8.2 21.5 12.3 21.2 C13.6 21.1 16.7 20.6 17.8 20.9 C20.2 21.5 20.2 23 20.8 21.8 C21.7 20.2 23 15.7 20.5 10.9 z" id="l2" fill="#905333" /><g transform="translate(5, 9)" id="m2"><path d="M1.1 8.8 C0 6.9 0.9 4.7 1.6 3.3 C2.4 1.7 4.2 0.9 5.1 0.6 C7.6 -0.3 9.6 0.2 11.4 1.8 C13.2 3.4 14.7 6.4 14.5 7.9 C14.3 9.4 10.3 10.7 7.3 10.6 C4.2 10.3 2.2 10.6 1.1 8.8 z" id="n2" /><path d="M8.7 4 C8.7 2.8 7.7 1.9 6.5 1.9 C5.4 1.9 4.4 2.9 4.4 4.1 C4.4 5.3 5.4 6.3 6.6 6.3 C6.6 6.2 6.6 6.2 6.6 6.1 C6.4 5.6 6.5 5.1 7 4.6 C7.6 4 8.1 3.9 8.7 4 z" id="o2" fill="#FFFFFE" /></g></g></g></g></g></g><defs><g transform="translate(17.09519, 0.800995) translate(-135.2952, -293.601)" id="p2" fill="#000"><path d="M118.2 302.7 C118.4 307.4 132.5 311.2 149.8 311.2 C167.1 311.2 181.2 307.4 181.4 302.7 C181.4 307.5 181.4 310.1 181.4 310.5 C181.4 315.3 167.3 319.1 149.8 319.1 C132.3 319.1 118.2 315.2 118.2 310.5 L118.2 302.7 L118.2 302.7 z" fill-opacity="0.4528" id="q2" fill="#593001" /><path d="M118.7 301.7 C118.9 306.4 133 310.2 150.3 310.2 C167.6 310.2 181.7 306.4 181.9 301.7 C181.9 306.5 181.9 309.1 181.9 309.5 C181.9 314.3 167.8 318.1 150.3 318.1 C132.8 318.1 118.7 314.2 118.7 309.5 L118.7 301.7 L118.7 301.7 z" id="r2" fill="#DA8113" /><linearGradient x1="46.0545" y1="-118.6926" x2="45.4656" y2="-118.6926" gradientUnits="userSpaceOnUse" gradientTransform="matrix(117.135, 0, 0, 28.4634, -5208.417, 3687.795)" id="s2"><stop offset="0%" stop-color="#D9952A" stop-opacity="1" /><stop offset="6.438854%" stop-color="#CA7519" stop-opacity="1" /><stop offset="30.54%" stop-color="#E3AD3A" stop-opacity="1" /><stop offset="51.05%" stop-color="#FFEC91" stop-opacity="1" /><stop offset="68.8%" stop-color="#E9BD44" stop-opacity="1" /><stop offset="86.24%" stop-color="#FFED6C" stop-opacity="1" /><stop offset="93.87%" stop-color="#F2D353" stop-opacity="1" /><stop offset="100%" stop-color="#F2B947" stop-opacity="1" /></linearGradient><path d="M118.2 301.6 C118.4 306.1 132.7 309.7 150.3 309.7 C167.9 309.7 182.2 306.1 182.4 301.6 C182.4 306.2 182.4 308.7 182.4 309 C182.4 313.5 168 317.2 150.3 317.2 C132.6 317.2 118.2 313.5 118.2 309 L118.2 301.6 L118.2 301.6 z" id="t2" style="fill:url(#s2)" /><linearGradient x1="45.4914" y1="-117.9547" x2="45.9407" y2="-117.5895" gradientUnits="userSpaceOnUse" gradientTransform="matrix(115.425, 0, 0, 29.925, -5125.077, 3826.124)" id="u2"><stop offset="0%" stop-color="#F4E072" stop-opacity="1" /><stop offset="100%" stop-color="#DB9427" stop-opacity="1" /></linearGradient><ellipse cx="150.3" cy="301.5" rx="31.6" ry="8.2" id="v2" style="fill:url(#u2)" /><linearGradient x1="45.4656" y1="-126.0065" x2="46.0545" y2="-126.0065" gradientUnits="userSpaceOnUse" gradientTransform="matrix(117.135, 0, 0, 18.6219, -5208.417, 2651.479)" id="w2"><stop offset="0%" stop-color="#D9952A" stop-opacity="1" /><stop offset="6.438854%" stop-color="#CA7519" stop-opacity="1" /><stop offset="30.54%" stop-color="#E3AD3A" stop-opacity="1" /><stop offset="51.05%" stop-color="#FFEC91" stop-opacity="1" /><stop offset="68.8%" stop-color="#E9BD44" stop-opacity="1" /><stop offset="86.24%" stop-color="#FFED6C" stop-opacity="1" /><stop offset="93.87%" stop-color="#F2D353" stop-opacity="1" /><stop offset="100%" stop-color="#F2B947" stop-opacity="1" /></linearGradient><path d="M119.2 299.9 C119 300.2 118.9 300.6 118.9 301 C118.9 305.5 132.9 309.2 150.3 309.2 C167.7 309.2 181.7 305.5 181.7 301 C181.7 300.6 181.6 300.3 181.4 299.9 C182 300.5 182.4 301.2 182.4 301.9 C182.4 306.4 168 310.1 150.3 310.1 C132.6 310.1 118.2 306.4 118.2 301.9 C118.2 301.3 118.6 300.6 119.2 299.9 z" id="x2" style="fill:url(#w2)" /><linearGradient x1="45.196" y1="-121.5895" x2="45.3746" y2="-120.6758" gradientUnits="userSpaceOnUse" gradientTransform="matrix(101.745, 0, 0, 23.94, -4458.332, 3199.41)" id="y2"><stop offset="0%" stop-color="#F8DD61" stop-opacity="1" /><stop offset="100%" stop-color="#EAA330" stop-opacity="1" /></linearGradient><ellipse cx="150.3" cy="300.8" rx="27.8" ry="6.6" id="z2" style="fill:url(#y2)" /><linearGradient x1="45.5694" y1="-134.267" x2="45.0221" y2="-134.267" gradientUnits="userSpaceOnUse" gradientTransform="matrix(101.745, 0, 0, 13.2525, -4458.332, 2077.223)" id="a3"><stop offset="0%" stop-color="#F4CA2F" stop-opacity="1" /><stop offset="51.38%" stop-color="#BF7737" stop-opacity="1" /><stop offset="100%" stop-color="#E4A929" stop-opacity="1" /></linearGradient><path d="M122.6 301.5 C122.5 301.3 122.4 301 122.4 300.8 C122.4 297.2 134.9 294.2 150.2 294.2 C165.5 294.2 178 297.1 178 300.8 C178 301 177.9 301.3 177.8 301.5 C176.3 298.2 164.5 295.6 150.1 295.6 C135.7 295.6 124.1 298.2 122.6 301.5 z" id="b3" style="fill:url(#a3)" /></g></defs><desc>K2276G8N28A,pYlEYrLdCjcWy4gWAsQh2dqAxt9giYcIG++aXoT8a4fMrZ9FSW1gIZ1yKGy4im6FTdu/N7hzyFzUxIjuWnWM2WeNrette5LzxYDI79d1pNefBkTAAfHp73ccA8q+0GA3</desc></svg>