<?xml version="1.0" encoding="utf-8"?><!DOCTYPE svg PUBLIC "-//W3C//DTD SVG 1.1//EN" "http://www.w3.org/Graphics/SVG/1.1/DTD/svg11.dtd"><svg x="0" y="0" width="340px" height="340px" viewBox="0, 0, 340, 340" preserveAspectRatio="xMidYMid" font-size="0" id="a" enable-background="new 0 0 340 340" xmlns="http://www.w3.org/2000/svg" xmlns:xlink="http://www.w3.org/1999/xlink" xmlns:xml="http://www.w3.org/XML/1998/namespace" version="1.1"><g id="b" fill="#000"><g id="c"><g transform="translate(0, 0) translate(0, 224)" id="d"><ellipse cx="168.6" cy="53.1" rx="57.8" ry="12.8" fill-opacity="0.25" id="e" /></g><g id="f"><g transform="translate(94.1, 65.49998) translate(33.5, 179) scale(-1, 1) translate(-33.5, -179) translate(0, 154)" id="g"><path d="M41.5 31.4 C45.2 30.1 47.9 28.5 48.7 27.6 C49.1 27.1 51.6 21.8 52.3 21.3 C52.9 20.9 52.9 24.2 53.4 23.8 C54.9 22.4 54.8 22.1 55.2 20.7 C56.1 17.4 57.2 16.6 58.5 11.1 L59.9 15.5 C63.3 7.9 61.4 0.7 63.5 -1.5 C65.6 -3.7 75.2 32.7 50.3 43.4 C48.1 44.4 37.3 47.3 35.4 47.6 C23.7 49.1 1.5 47 1.5 47 L1.5 34.8 C1.3 34.8 27.9 36.1 41.5 31.4 z" id="h" fill="#776F64" /><path d="M41.5 31.4 C45.2 30.1 47.9 28.5 48.7 27.6 C49.1 27.1 51.6 21.8 52.3 21.3 C52.9 20.9 52.9 24.2 53.4 23.8 C54.9 22.4 54.8 22.1 55.2 20.7 C56.1 17.4 57.2 16.6 58.5 11.1 L59.9 15.5 C63.3 7.9 61.4 0.7 63.5 -1.5 C65.6 -3.7 75.2 32.7 50.3 43.4 C48.1 44.4 37.3 47.3 35.4 47.6 C23.7 49.1 1.5 47 1.5 47 L1.5 34.8 C1.3 34.8 27.9 36.1 41.5 31.4 z" id="i" fill="#776F64" /><path d="M41.5 31.4 C45.2 30.1 47.9 28.5 48.7 27.6 C49.1 27.1 51.6 21.8 52.3 21.3 C52.9 20.9 52.9 24.2 53.4 23.8 C54.9 22.4 54.8 22.1 55.2 20.7 C56.1 17.4 57.2 16.6 58.5 11.1 L59.9 15.5 C63.3 7.9 61.4 0.7 63.5 -1.5 C65.6 -3.7 75.2 32.7 50.3 43.4 C48.1 44.4 37.3 47.3 35.4 47.6 C23.7 49.1 1.5 47 1.5 47 L1.5 34.8 C1.3 34.8 27.9 36.1 41.5 31.4 z M42.1 32.1 C29.3 36.2 4 36 4 36 L4.3 45.8 C4.3 45.8 24.5 47.1 35.5 45.8 C37.4 45.5 48.1 42.8 50 41.9 C70.6 33.2 65.8 1.7 63.8 3.7 C61.8 5.6 62.4 11.8 59.2 18.3 L57.9 14.5 C56.7 19.3 56.3 19.9 55.4 22.8 C55 24 54.5 24.3 53.1 25.6 C52.6 25.9 52.6 23.1 52.1 23.4 C51.4 23.8 49.1 28.4 48.7 28.9 C48.1 29.6 45.5 31 42.1 32.1 z" opacity="0.15" id="j" /></g><g transform="translate(131.38, 276.6) scale(0.8268657) translate(-128, -276.6) translate(96.90001, 77.69998) translate(20, 136)" id="k"><path d="M50.8 23.7 C50.8 21.1 45 17.3 43.1 14.9 C40.9 12.1 42.4 10.8 38.7 8.5 C29 2.5 15.7 -0.9 9.6 1.7 C8.4 2.3 7.1 3.1 6 4.1 C3.5 6.3 1.1 11.7 0.7 14.8 C0.5 16.3 3.5 12 3.5 13.6 C3.6 15.4 1.8 22.9 2.2 24.5 C2.4 25.7 3.2 23.4 3.5 24.5 C3.6 24.7 4.3 23.4 4.4 23.7 C4.8 25.4 4.3 27.8 4.7 30.7 C5.1 33.6 5.7 35.6 6 36 C6.4 36.6 6.3 34.6 7.6 34.5 C7.8 34.8 7.5 35.5 7.6 36.5 C7.9 38.7 8.4 41.2 8.8 41.9 C9.2 42.6 12.2 48.4 12.6 49.1 C13.3 50.4 13.3 45.9 14.1 47.3 C14.8 48.6 14.1 50 14.8 51.5 C10.6 53 6.5 53.6 4.7 55.8 C3.1 57.9 3.2 60.6 3.2 62.2 C3.2 63.9 3.3 63.2 4.4 64.1 C4.6 64.2 4.3 64.1 5.5 64.1 C6.1 64.1 5.7 65 6.6 65 C7.9 65 6.9 65.7 8.6 65.6 C9.4 65.6 14 65.6 14.9 65.6 C25 65.1 40.5 63.5 41.4 61.8 C43.3 56.8 37.8 55 43.4 46.5 C44.6 44.6 44.8 37.3 46.2 39.7 C47.6 42.1 46.3 35.3 47.3 33.8 C48.2 32.6 50.6 34 51 32.1 C51.2 30.7 50.8 25.4 50.8 23.7 z" id="l" fill="#665F57" /><path d="M50.8 23.7 C50.8 25.4 51.2 30.7 51 32.1 C50.6 34 48.2 32.6 47.3 33.8 C46.3 35.3 47.6 42.1 46.2 39.7 C44.8 37.3 44.6 44.6 43.4 46.5 C37.8 55 43.3 56.8 41.4 61.8 C40.5 63.5 25 65.1 14.9 65.6 C14 65.6 9.4 65.6 8.6 65.6 C6.9 65.7 7.9 65 6.6 65 C5.7 65 6.1 64.1 5.5 64.1 C4.3 64.1 4.6 64.2 4.4 64.1 C3.3 63.2 3.2 63.9 3.2 62.2 C3.2 60.6 3.1 57.9 4.7 55.8 C6.5 53.6 10.6 53 14.8 51.5 C14.1 50 14.8 48.6 14.1 47.3 C13.3 45.9 13.3 50.4 12.6 49.1 C12.2 48.4 9.2 42.6 8.8 41.9 C8.4 41.2 7.9 38.7 7.6 36.5 C7.5 35.5 7.8 34.8 7.6 34.5 C6.3 34.6 6.4 36.6 6 36 C5.7 35.6 5.1 33.6 4.7 30.7 C4.3 27.8 4.8 25.4 4.4 23.7 C4.3 23.4 3.6 24.7 3.5 24.5 C3.2 23.4 2.4 25.7 2.2 24.5 C1.8 22.9 3.6 15.4 3.5 13.6 C3.5 12 0.5 16.3 0.7 14.8 C1.1 11.7 3.5 6.3 6 4.1 C7.1 3.1 8.4 2.3 9.6 1.7 C15.7 -0.9 29 2.5 38.7 8.5 C42.4 10.8 40.9 12.1 43.1 14.9 C45 17.3 50.8 21.1 50.8 23.7 z M49.2 23.3 C49.2 20.9 43.8 17.3 42 15.1 C39.9 12.5 41.3 11.3 37.9 9.1 C28.8 3.5 20.3 1.2 13.6 1.7 C12.2 1.7 8.3 2.7 7.3 3.6 C5 5.7 2.3 9.4 2 12.3 C1.8 13.7 4.7 10.5 4.7 11.9 C4.8 13.6 2.4 20.8 2.7 22.2 C2.9 23.3 4.7 21 4.9 22 C5 22.2 5.3 25.7 5.6 28.4 C5.9 31.1 6 33.3 6.3 33.7 C6.7 34.3 7.5 31.2 8.7 31.1 C8.9 31.4 8.6 34.3 8.7 35.2 C9 37.3 9.4 39.6 9.8 40.3 C10.2 41 12.2 45.4 12.5 46.1 C13.2 47.3 13.5 42.6 14.2 43.9 C14.9 45.1 16 51.2 16.6 52.7 C12.7 54.1 8.3 54.2 6.7 56.2 C5.2 58.2 4.5 57.8 4.5 59.3 C4.5 60.9 4.6 60.2 5.6 61.1 C5.8 61.2 5.5 61.1 6.6 61.1 C7.2 61.1 6.8 61.9 7.6 61.9 C8.8 61.9 7.9 62.6 9.5 62.5 C10.2 62.5 14.6 62.5 15.4 62.5 C24.8 62 39.3 60.5 40.2 58.9 C42 54.2 36.8 52.5 42.1 44.6 C43.2 42.8 43.4 36 44.7 38.2 C46 40.4 44.8 34.1 45.7 32.7 C46.5 31.6 48.8 32.9 49.2 31.1 C49.6 29.9 49.2 24.9 49.2 23.3 z" opacity="0.15" id="m" /></g><g transform="translate(208.32, 276.6) scale(0.8268657) translate(-211.7, -276.6) translate(89.10001, 77.69998) translate(107.5, 169) scale(-1, 1) translate(-107.5, -169) translate(82, 136)" id="n"><path d="M50.2 23.7 C50.2 21.1 44.4 17.3 42.5 14.9 C40.3 12.1 41.8 10.8 38.1 8.5 C28.3 2.5 15 -0.8 8.9 1.8 C7.7 2.4 6.4 3.2 5.3 4.2 C3.9 5.4 1 8.7 0.3 10.3 C-0.3 11.6 2.9 9.8 2.7 11.2 C2.6 11.8 0.5 13.5 1.1 19.9 C1.4 23.1 2.5 26.1 2.7 26.7 C2.8 26.9 3.5 23.4 3.6 23.7 C4 25.4 3.5 30.2 3.9 31.3 C3.9 33.3 4.6 35.1 5.7 38.3 C6.1 38.9 8.2 36 9.5 36 C9.7 36.4 9.1 37.3 8.9 38.3 C8.7 39.5 8.9 41 8.9 42.4 C8.9 44.4 11.4 48.5 11.8 49.1 C12.5 50.4 12.5 45.9 13.3 47.3 C14 48.6 13.3 50 14 51.5 C9.8 53 5.7 53.6 3.9 55.8 C2.3 57.9 2.4 60.6 2.4 62.2 C2.4 63.9 2.5 63.2 3.6 64.1 C3.8 64.2 3.5 64.1 4.7 64.1 C5.3 64.1 4.9 65 5.8 65 C7.1 65 6.1 65.7 7.8 65.6 C8.6 65.6 13.2 65.6 14.1 65.6 C24.2 65.1 39.7 63.5 40.6 61.8 C42.5 56.8 37 55 42.6 46.5 C43.8 44.6 44 37.3 45.4 39.7 C46.8 42.1 45.5 35.3 46.5 33.8 C47.4 32.6 49.8 34 50.2 32.1 C50.5 30.7 50.2 25.4 50.2 23.7 z" id="o" fill="#665F57" /><path d="M50.2 23.7 C50.2 25.4 50.5 30.7 50.2 32.1 C49.8 34 47.4 32.6 46.5 33.8 C45.5 35.3 46.8 42.1 45.4 39.7 C44 37.3 43.8 44.6 42.6 46.5 C37 55 42.5 56.8 40.6 61.8 C39.7 63.5 24.2 65.1 14.1 65.6 C13.2 65.6 8.6 65.6 7.8 65.6 C6.1 65.7 7.1 65 5.8 65 C4.9 65 5.3 64.1 4.7 64.1 C3.5 64.1 3.8 64.2 3.6 64.1 C2.5 63.2 2.4 63.9 2.4 62.2 C2.4 60.6 2.3 57.9 3.9 55.8 C5.7 53.6 9.8 53 14 51.5 C13.3 50 14 48.6 13.3 47.3 C12.5 45.9 12.5 50.4 11.8 49.1 C11.4 48.5 8.9 44.4 8.9 42.4 C8.9 41 8.7 39.5 8.9 38.3 C9.1 37.3 9.7 36.4 9.5 36 C8.2 36 6.1 38.9 5.7 38.3 C4.6 35.1 3.9 33.3 3.9 31.3 C3.5 30.2 4 25.4 3.6 23.7 C3.5 23.4 2.8 26.9 2.7 26.7 C2.5 26.1 1.4 23.1 1.1 19.9 C0.5 13.5 2.6 11.8 2.7 11.2 C2.9 9.8 -0.3 11.6 0.3 10.3 C1 8.7 3.9 5.4 5.3 4.2 C6.4 3.2 7.7 2.4 8.9 1.8 C15 -0.8 28.3 2.5 38.1 8.5 C41.8 10.8 40.3 12.1 42.5 14.9 C44.4 17.3 50.2 21.1 50.2 23.7 z M48.6 23.3 C48.6 20.9 43.2 17.3 41.4 15.1 C39.3 12.5 40.7 11.3 37.3 9.1 C28.1 3.5 16.3 -0.4 10.5 2.1 C9.4 2.6 7.8 3.3 6.8 4.3 C5.5 5.4 2.3 7.8 1.7 9.3 C1.1 10.5 4.4 8 4.2 9.3 C4.1 9.9 1.3 11.3 1.8 17.3 C2.1 20.3 2.3 23.6 2.5 24.1 C2.6 24.3 4.9 21 4.9 21.3 C5.3 22.9 4.5 29.9 4.9 31 C4.9 32.9 5.5 32.8 6.6 35.8 C6.9 36.3 8.3 34.2 9.6 33.8 C9.8 33.7 10.2 36.1 10 37 C9.8 38.1 10 39.5 10 40.8 C10 42.7 11.6 45.8 12 46.3 C12.7 47.5 13.4 44.1 14.2 45.4 C14.9 46.6 15.2 51.3 15.9 52.7 C12 54.1 7.6 54 5.9 56.1 C4.4 58.1 4 57.9 4 59.4 C4 61 4.1 60.3 5.1 61.2 C5.3 61.3 5 61.2 6.1 61.2 C6.7 61.2 6.3 62 7.1 62 C8.3 62 7.4 62.7 9 62.6 C9.7 62.6 14.1 62.6 14.9 62.6 C24.4 62.1 38.9 60.6 39.7 59 C41.5 54.3 36.3 52.6 41.6 44.7 C42.7 42.9 42.9 36.1 44.2 38.3 C45.5 40.5 44.3 34.2 45.2 32.8 C46 31.7 48.3 33 48.7 31.2 C48.9 29.9 48.6 24.9 48.6 23.3 z" opacity="0.15" id="p" /></g><g transform="translate(102.6, 91.49998) translate(26, 69)" id="q"><path d="M76.6 41.7 C69 21.4 55 1.6 40.6 0.4 C26.2 1.7 12.2 21.4 4.6 41.7 C-0.4 55.2 4.3 71.1 8 84.1 C11 94.7 13.7 112.3 27.1 116.3 C30.7 117.6 35.1 118 40.6 118 C46.1 118 50.5 117.6 54.1 116.3 C67.4 112.3 70.2 94.7 73.2 84.1 C76.9 71 81.7 55.1 76.6 41.7 z" id="r" fill="#665F57" /><path d="M76.6 41.7 C69 21.4 55 1.6 40.6 0.4 C26.2 1.7 12.2 21.4 4.6 41.7 C2.1 48.3 2 55.6 3 62.8 C10 70.9 23.1 75.4 40 75.4 C55.9 75.4 71.2 70.9 78.2 62.8 C79.2 55.5 79.1 48.3 76.6 41.7 z" id="s" fill="#776F64" /><path d="M2.9 62.3 C2 55.3 2.1 48.1 4.6 41.7 C12.2 21.4 26.2 1.7 40.6 0.4 C55 1.6 69 21.4 76.6 41.7 C81.7 55.1 76.9 71 73.2 84.1 C70.2 94.7 67.4 112.3 54.1 116.3 C50.5 117.6 46.1 118 40.6 118 C35.1 118 30.7 117.6 27.1 116.3 C13.7 112.3 11 94.7 8 84.1 C6.1 77.4 3.9 69.9 2.9 62.3 z M4.4 61.2 C5.3 68.5 7.4 75.7 9.3 82.1 C12.2 92.3 14.8 109.2 27.7 113 C31.2 114.2 35.4 114.6 40.7 114.6 C46 114.6 50.2 114.2 53.7 113 C66.5 109.2 69.2 92.2 72.1 82.1 C75.7 69.5 80.3 54.2 75.4 41.4 C67.9 21.9 54.4 2.9 40.6 1.7 C26.8 2.9 13.3 21.9 6 41.4 C3.7 47.6 3.5 54.4 4.4 61.2 z" opacity="0.15" id="t" /></g><g transform="translate(130.4832, 201.206) scale(0.7918854, 0.7635894) translate(-120.4, -187.9) translate(87.4, 86.29999) translate(33, 103)" id="u"><g id="v"><path d="M48.8 34 C46.6 34 38.7 32 37.5 31.2 C33.2 28.2 31.8 27.2 27.1 23 C25.9 21.9 24.3 16.5 22.7 14.9 C17.2 9.4 9.6 -1.4 5.4 0.3 C5 0.5 4.3 2.6 3.8 3.9 C1.9 8.4 1.4 11.6 0.7 18 C0 24.4 1.5 39.1 2.2 43.1 C3.6 50.8 5.5 55.4 7.4 65.5 C9.3 75.6 10.8 87.1 9.2 89 C8.5 89.9 2.7 94.1 1.4 97.9 C1.1 98.8 1.4 103 2.6 104.9 C3.7 106.7 12 106.1 14.5 106.1 C19.4 106.1 28.6 105.2 30.9 103.9 C33.2 102.6 34.8 98.1 34.7 94.5 C34.6 90.9 32.3 75.9 32.9 59.9 C33 51.7 31.9 44 34 41.4 C34.5 40.8 36.1 42.5 37.6 43.7 C39.5 45.3 41.4 46.7 43.1 47.7 C46 49.4 47.8 50.4 48 50.4 C48.5 50.4 49.3 50.2 50.2 49.8 C51.5 49.3 53.2 48.9 54.5 48 C55.8 47.2 57.8 45.9 58.5 45.5 C60.8 43.9 63.1 41.5 64 42.4 C66.6 45 64.8 50.8 65.1 59.8 C65.7 75.7 63.5 90.8 63.3 94.4 C63.1 98 64.7 102.5 67.1 103.8 C69.5 105.1 78.6 106 83.5 106 C85.9 106 94.2 106.6 95.4 104.8 C96.5 102.9 96.9 98.8 96.6 97.8 C95.2 94 89.5 89.8 88.8 88.9 C87.2 87 88.8 72.3 90.7 62.2 C92.6 52.1 93.9 48.1 95.3 40.4 C96 36.4 96.9 24.8 96.9 18.8 C96.7 12.8 95.1 5.6 93.5 2.6 C92.9 0.9 93.1 -0.6 91.8 0.3 C89.4 2 84.5 7.4 82 10.8 C80.1 13.4 77.3 14.7 74.4 18 C72.3 20.3 70.4 25.9 68.5 27.6 C63.9 31.6 51 34 48.8 34 z" id="w" fill="#9B8C78" /><path d="M5.4 0.1 C5 0.3 4.3 2.4 3.8 3.7 C1.9 8.2 1.4 11.4 0.7 17.8 C0 24.2 1.4 38.9 2.1 43 C2.1 43.1 2.1 43.2 2.2 43.3 C2.6 43.2 4.1 45 5.4 45.1 C7.1 45.3 8.5 43.7 8.7 41.5 C8.8 39.1 6.9 35.4 6.9 31.3 C6.8 24.8 8.8 17.5 10.6 14 C12.9 9.7 10.5 4.6 8.7 1.2 C7.4 0.2 6.3 -0.2 5.4 0.1 z" id="x" fill="#F2E5D3" /><path d="M95.3 40.4 C96 36.4 96.9 24.8 96.9 18.8 C96.7 12.8 95.1 5.6 93.5 2.6 C92.9 0.9 93.1 -0.6 91.8 0.3 C91 0.8 90.1 1.8 89.1 3 C87.5 6.3 86.1 10.5 88 14.2 C89.8 17.6 89.9 27.7 89.1 34.9 C88.6 39.3 87.4 41.4 87.5 43.7 C87.9 50 93.5 46.7 94.1 46.3 C94.1 45.9 95.2 40.8 95.3 40.4 z" id="y" fill="#F2E5D3" /><g id="z"><path d="M48.8 34 C51 34 63.9 31.6 68.5 27.6 C70.4 25.9 72.3 20.3 74.4 18 C77.3 14.7 80.1 13.4 82 10.8 C84.5 7.4 89.4 2 91.8 0.3 C93.1 -0.6 92.9 0.9 93.5 2.6 C95.1 5.6 96.7 12.8 96.9 18.8 C96.9 24.8 96 36.4 95.3 40.4 C93.9 48.1 92.6 52.1 90.7 62.2 C88.8 72.3 87.2 87 88.8 88.9 C89.5 89.8 95.2 94 96.6 97.8 C96.9 98.8 96.5 102.9 95.4 104.8 C94.2 106.6 85.9 106 83.5 106 C78.6 106 69.5 105.1 67.1 103.8 C64.7 102.5 63.1 98 63.3 94.4 C63.5 90.8 65.7 75.7 65.1 59.8 C64.8 50.8 66.6 45 64 42.4 C63.1 41.5 60.8 43.9 58.5 45.5 C57.8 45.9 55.8 47.2 54.5 48 C53.2 48.9 51.5 49.3 50.2 49.8 C49.3 50.2 48.5 50.4 48 50.4 C47.8 50.4 46 49.4 43.1 47.7 C41.4 46.7 39.5 45.3 37.6 43.7 C36.1 42.5 34.5 40.8 34 41.4 C31.9 44 33 51.7 32.9 59.9 C32.3 75.9 34.6 90.9 34.7 94.5 C34.8 98.1 33.2 102.6 30.9 103.9 C28.6 105.2 19.4 106.1 14.5 106.1 C12 106.1 3.7 106.7 2.6 104.9 C1.4 103 1.1 98.8 1.4 97.9 C2.7 94.1 8.5 89.9 9.2 89 C10.8 87.1 9.3 75.6 7.4 65.5 C5.5 55.4 3.6 50.8 2.2 43.1 C1.5 39.1 0 24.4 0.7 18 C1.4 11.6 1.9 8.4 3.8 3.9 C4.3 2.6 5 0.5 5.4 0.3 C9.6 -1.4 17.2 9.4 22.7 14.9 C24.3 16.5 25.9 21.9 27.1 23 C31.8 27.2 33.2 28.2 37.5 31.2 C38.7 32 46.6 34 48.8 34 z M48.8 36 C46.7 36 39.3 33.2 38.1 32.5 C34 29.7 30.6 28.5 26.1 24.5 C25 23.5 22.3 17.6 20.8 16.1 C15.6 10.9 11.8 1.7 7.8 3.3 C7.4 3.5 6.8 5.5 6.3 6.7 C4.5 10.9 4.1 13.9 3.4 20 C2.7 26.1 4.2 39.9 4.8 43.7 C6.1 51 7.9 55.3 9.7 64.8 C11.5 74.3 13.5 86.4 11.9 88.2 C11.9 90.1 4.5 94.9 3.9 96.6 C3.6 97.4 3.9 100.3 5.1 102.1 C6.1 103.8 14 103.2 16.3 103.2 C20.9 103.2 27.9 102.3 30 101 C32.1 99.7 32.8 94.2 32.7 90.8 C32.6 87.4 29.4 71.9 30 56.8 C30.1 49.1 30 39.8 32 37.4 C32.5 36.8 37.5 42 39 43.2 C40.8 44.7 47.9 48.3 48.7 47.9 C49.9 47.4 53.2 46.3 54.4 45.5 C55.6 44.7 59.7 41.6 60.4 41.3 C62.6 39.8 65.1 38.1 66.5 38.1 C68 40.2 67 51 67.3 59.5 C67.9 74.5 64.8 88.8 64.6 92.2 C64.4 95.6 65 99.9 67.3 101.1 C69.6 102.3 76.8 103.2 81.5 103.2 C83.8 103.2 91.5 104.9 92.6 103.2 C93.6 101.4 94.4 98.7 94.1 97.8 C92.8 94.2 87.8 91.8 87.2 90.9 C85.7 89.1 86.5 71.4 88.3 61.9 C90.1 52.4 91.3 48.6 92.6 41.3 C93.3 37.5 94.1 26.6 94.1 20.9 C94 15.1 92.5 8.3 91 5.4 C90.4 3.8 90.6 2.4 89.4 3.2 C87.1 4.8 83.9 10.2 81.6 13.4 C79.8 15.9 76.9 17.5 74.1 20.6 C72.1 22.8 71.2 27.1 69.4 28.7 C65 32.6 50.9 36 48.8 36 z" fill-opacity="0.3" id="a1" /></g></g></g></g><g transform="translate(169.7, 184.7) scale(0.9107345) translate(-169.7, -184.7)" id="b1"><g transform="translate(96.6, 78.59998) translate(23, 22)" id="c1"><g id="d1"><path d="M8.2 28.4 C11 21.7 15.7 17.3 19.3 12.7 C22.9 8.1 31.7 5.6 37.3 4.5 C41.1 3.8 45.5 4.2 50.5 5.5 C52.6 4.5 55.6 4.2 59.5 4.5 C66.7 4.5 74.5 9 78.8 11.8 C83 14.6 91 25 93 28.4 C95 31.8 96.7 39.1 97.3 42.7 C97.9 46.3 97.3 55.3 94.7 60.3 C92.1 65.3 82.5 78 79.9 80.3 C76.4 83.4 71.5 86.4 67.9 88.5 C62.3 91.8 46 95 35.4 89.9 C31.5 88 25.1 85.8 20.9 82.2 C13.5 75.9 8.9 67.7 7 65.7 C4 62.7 1.8 55.5 2.5 50.3 C3.2 45.1 5.4 35.1 8.2 28.4 z" id="e1" fill="#9B8C78" /><path d="M88.9 69.3 C87.1 71.9 85.2 74.6 83.6 76.7 C82.3 78.2 81.1 79.5 80.2 80.5 C79.9 80.8 79.6 81.2 79.2 81.6 C75.8 84.3 71.3 86.7 68.2 88.6 C62.6 91.8 46 95 35.4 89.9 C31.8 88.2 26.1 86.1 21.9 83 C21 82.2 20 81.4 19 80.5 C18.5 80 18 79.5 17.5 79 L14.9 76.1 C13 73.9 11.4 71.7 10.1 69.9 C9.3 68 8.6 65.7 8.1 63.2 C7.1 58 7.9 53.8 10.3 49.9 C11.7 47.6 14.6 45.6 18.9 43.8 C18.6 47.5 18.6 49.9 18.8 50.8 C20.2 56.9 23.9 61.2 30.3 59.2 C32.2 58.6 34.7 51 48.6 51 C62.5 51 62.5 57.9 68.7 59.7 C74.9 61.5 78.8 56.3 80.6 51.3 C82.4 46.3 80.5 43.1 80.1 42.6 C79.7 42.1 86.2 44 89.2 49 C92.2 54 92.5 57.7 90.4 64.5 C89.9 66.5 89.3 68.1 88.9 69.3 z" id="f1" fill="#F2E5D3" /><path d="M8.2 28.4 C11 21.7 15.7 17.3 19.3 12.7 C22.9 8.1 31.7 5.6 37.3 4.5 C41.1 3.8 45.5 4.2 50.5 5.5 C52.6 4.5 55.6 4.2 59.5 4.5 C66.7 4.5 74.5 9 78.8 11.8 C83 14.6 91 25 93 28.4 C95 31.8 96.7 39.1 97.3 42.7 C97.9 46.3 97.3 55.3 94.7 60.3 C92.1 65.3 82.5 78 79.9 80.3 C76.4 83.4 71.5 86.4 67.9 88.5 C62.3 91.8 46 95 35.4 89.9 C31.5 88 25.1 85.8 20.9 82.2 C13.5 75.9 8.9 67.7 7 65.7 C4 62.7 1.8 55.5 2.5 50.3 C3.2 45.1 5.4 35.1 8.2 28.4 z M10.1 28.4 C7.4 34.9 5.3 44.5 4.6 49.5 C3.9 54.5 6 61.4 8.9 64.3 C10.7 66.2 15.2 74.1 22.2 80.1 C26.2 83.6 32.3 85.8 36.1 87.5 C46.3 92.4 61.9 89.3 67.2 86.1 C70.6 84.1 75.3 81.2 78.7 78.2 C81.2 76 90.4 63.7 92.9 58.9 C95.4 54.1 96 45.4 95.4 42 C94.8 38.5 93.2 31.5 91.2 28.3 C89.2 25.1 81.6 15.1 77.6 12.4 C73.6 9.7 66.1 5.4 59.2 5.4 C55.5 5.1 52.6 5.5 50.6 6.4 C45.8 5.1 41.6 4.7 37.9 5.4 C32.5 6.4 24.1 8.8 20.7 13.3 C17.3 17.8 12.8 21.9 10.1 28.4 z" opacity="0.15" id="g1" /><path d="M32.7 10.5 C38.2 13.7 42.7 17.2 45.6 23.9 C48.5 30.6 47.2 33.2 49.4 33.2 C51.6 33.2 51.1 28.5 53.1 23.9 C55.1 19.3 60.7 14.2 66.5 10.5 C67.2 10 63.6 8.3 60.1 8.4 C56.9 8.6 52.2 10.5 50 10.5 C48 10.5 45 8.8 40.7 8.4 C34.9 7.9 29.5 8.7 32.7 10.5 z" id="h1" fill="#776F64" /></g></g><g transform="translate(141.2, 116.8) rotate(-8, 0, 0) scale(1) translate(-141.2, -116.8) translate(113.4, 87.79998) translate(3, 2)" id="i1"><path d="M33.9 21.7 C35.1 19.6 35.4 14.7 32.2 12.1 C29.1 9.6 18.9 1.4 16 0.8 C13.1 0.2 11.9 0 9.8 0.8 C8 1.5 6.7 3.9 6.3 4.9 C5.4 7 1.1 13.6 1.1 21.6 C1.1 29.6 0.5 36.5 1.1 39.7 C1.7 42.8 3.2 42.8 4.7 42.8 C5.5 42.8 11.7 35.5 18.8 30.6 C26 25.6 32.8 23.8 33.9 21.7 z" id="j1" fill="#776F64" /><path d="M33.9 21.7 C32.8 23.8 26 25.6 18.8 30.6 C11.7 35.5 5.5 42.8 4.7 42.8 C3.2 42.8 1.7 42.8 1.1 39.7 C0.5 36.5 1.1 29.6 1.1 21.6 C1.1 13.6 5.4 7 6.3 4.9 C6.7 3.9 8 1.5 9.8 0.8 C11.9 0 13.1 0.2 16 0.8 C18.9 1.4 29.1 9.6 32.2 12.1 C35.4 14.7 35.1 19.6 33.9 21.7 z M32.1 20.3 C33.2 18.4 33.4 14.1 30.6 11.8 C27.9 9.6 18.9 2.3 16.3 1.8 C13.7 1.3 12.7 1.1 10.8 1.8 C9.2 2.4 8.1 4.5 7.7 5.4 C6.9 7.3 3.1 13.1 3.1 20.2 C3.1 27.3 2.6 33.4 3.1 36.3 C3.7 39 5 39 6.3 39 C7 39 12.5 32.5 18.7 28.2 C25.1 23.7 31.1 22.1 32.1 20.3 z" opacity="0.15" id="k1" /></g><g transform="translate(196.8, 116.8) rotate(8, 0, 0) scale(1) translate(-196.8, -116.8) translate(93.59999, 90.99998) translate(110, 21.5) scale(-1, 1) translate(-110, -21.5) translate(92, 0)" id="l1"><path d="M33.6 22.2 C34.4 20.7 35.3 19.4 35.3 18.1 C35.5 15.9 34.2 13.7 32.2 12.1 C29 9.6 20.6 2.3 15.9 0.8 C14.9 0.5 12.5 0.3 10.8 0.8 C8.4 1.6 6.8 3.7 6.2 4.9 C5.3 7 2.3 12.3 1 21.7 C-0.3 31 0.4 36.6 1 39.7 C1.6 42.8 3.1 42.8 4.6 42.8 C5.4 42.8 12.2 36.3 19.6 31.3 C26.6 26.5 32.8 23.6 33.6 22.2 z" id="m1" fill="#776F64" /><path d="M33.6 22.2 C32.8 23.6 26.6 26.5 19.6 31.3 C12.2 36.3 5.4 42.8 4.6 42.8 C3.1 42.8 1.6 42.8 1 39.7 C0.4 36.6 -0.3 31 1 21.7 C2.3 12.3 5.3 7 6.2 4.9 C6.8 3.7 8.4 1.6 10.8 0.8 C12.5 0.3 14.9 0.5 15.9 0.8 C20.6 2.3 29 9.6 32.2 12.1 C34.2 13.7 35.5 15.9 35.3 18.1 C35.3 19.4 34.4 20.7 33.6 22.2 z M31.9 20.5 C32.6 19.2 33.4 18 33.4 16.9 C33.6 15 32.4 13 30.6 11.6 C27.7 9.4 20.2 3 16 1.7 C15.1 1.4 13 1.3 11.4 1.7 C9.4 2.5 8 4.3 7.4 5.4 C6.6 7.2 3.9 11.9 2.8 20.1 C1.6 28.2 2.3 33.2 2.8 35.9 C3.3 38.6 4.7 38.6 6 38.6 C6.7 38.6 12.8 32.9 19.4 28.5 C25.7 24.3 31.2 21.7 31.9 20.5 z" opacity="0.15" id="n1" /></g><g id="o1"><g transform="translate(92.6, 88.59998) translate(58, 69)" id="p1"><g transform="translate(0.270427, 0.292308)" id="q1"><path d="M3.7 28.7 C4.6 29.8 7 30.1 9.2 30.8 C12.2 31.7 15.4 32.7 18.9 32.5 C19 32.5 23.5 32 25 31.9 C29.3 31.4 32.9 31.1 34.5 28.7 C35.1 27.5 36.1 23.3 35.9 21.1 C35.8 19.9 34.2 18.2 33.3 17 C34.5 17.2 35.1 17.1 37 18.3 C36.5 17.1 34.6 14.3 33.6 13.5 C31.5 11.8 29.4 10.7 28.1 9.7 C29.3 9.6 29.8 9.9 31.4 10.2 C30.3 8.9 27.3 6.3 25.8 5.9 C27.1 5.7 27.1 5.7 28.1 5.9 C27 4.4 21.7 1.4 21.1 0.8 C21 0.7 21.1 1.7 22.1 3 C22.9 4 24.5 5 25.3 6.4 C24 5.8 22.7 5.4 21.5 5.2 C24.7 8.1 26.6 10 27.3 11 C25.8 10.5 23.7 9.7 21.8 9.7 C24.5 11 30.1 17 30 17 C28.9 16.3 27.7 15.1 25.8 14.4 C23.6 13.5 20.7 13 18.3 13 C17.5 13 14.9 13.2 13.5 13.5 C10.7 14 8.9 15 8.2 15.5 C9.6 13.7 13.4 10.8 15.8 9.5 C13.8 9.1 11.7 10.2 10.1 11.2 C11.5 9.8 14.7 6.6 16.3 5.1 C15.2 5.3 14.2 5.6 12.6 6.1 C14.6 3.9 16.5 2.3 16.6 2.1 C16.7 1.9 16.9 1.7 17.1 0.6 C15.4 1.9 9.5 5.7 7.5 7.9 C9.5 7.7 9.8 7.5 11 7.6 C9.9 8 7.4 9.8 6.5 10.5 C7.8 10.6 7.8 10.7 8.4 11.1 C7.4 11.4 5.6 12.3 3.6 14 C2.2 15.2 1.2 17.6 0.9 18.2 C2.8 17.5 3 17.2 4.1 16.7 C3.8 17.4 2.5 18.4 2.4 19.6 C2.1 21.4 3 27.8 3.7 28.7 z" id="r1" fill="#FFF6E9" /><path d="M3.7 28.7 C3 27.8 2.1 21.4 2.4 19.6 C2.5 18.4 3.8 17.4 4.1 16.7 C3 17.2 2.8 17.5 0.9 18.2 C1.2 17.6 2.2 15.2 3.6 14 C5.6 12.3 7.4 11.4 8.4 11.1 C7.8 10.7 7.8 10.6 6.5 10.5 C7.4 9.8 9.9 8 11 7.6 C9.8 7.5 9.5 7.7 7.5 7.9 C9.5 5.7 15.4 1.9 17.1 0.6 C16.9 1.7 16.7 1.9 16.6 2.1 C16.5 2.3 14.6 3.9 12.6 6.1 C14.2 5.6 15.2 5.3 16.3 5.1 C14.7 6.6 11.5 9.8 10.1 11.2 C11.7 10.2 13.8 9.1 15.8 9.5 C13.4 10.8 9.6 13.7 8.2 15.5 C8.9 15 10.7 14 13.5 13.5 C14.9 13.2 17.5 13 18.3 13 C20.7 13 23.6 13.5 25.8 14.4 C27.7 15.1 28.9 16.3 30 17 C30.1 17 24.5 11 21.8 9.7 C23.7 9.7 25.8 10.5 27.3 11 C26.6 10 24.7 8.1 21.5 5.2 C22.7 5.4 24 5.8 25.3 6.4 C24.5 5 22.9 4 22.1 3 C21.1 1.7 21 0.7 21.1 0.8 C21.7 1.4 27 4.4 28.1 5.9 C27.1 5.7 27.1 5.7 25.8 5.9 C27.3 6.3 30.3 8.9 31.4 10.2 C29.8 9.9 29.3 9.6 28.1 9.7 C29.4 10.7 31.5 11.8 33.6 13.5 C34.6 14.3 36.5 17.1 37 18.3 C35.1 17.1 34.5 17.2 33.3 17 C34.2 18.2 35.8 19.9 35.9 21.1 C36.1 23.3 35.1 27.5 34.5 28.7 C32.9 31.1 29.3 31.4 25 31.9 C23.5 32 19 32.5 18.9 32.5 C15.4 32.7 12.2 31.7 9.2 30.8 C7 30.1 4.6 29.8 3.7 28.7 z M5.3 27.4 C6.1 28.4 8.2 28.7 10.2 29.3 C12.9 30.1 15.7 31 18.9 30.8 C19 30.8 23 30.4 24.4 30.3 C28.2 29.9 31.5 29.6 32.9 27.4 C33.4 26.3 35 23.6 34.9 21.7 C34.8 20.6 33.1 17.7 32.3 16.6 C33.1 16.5 34.2 16.2 35.9 17.2 C35.5 16.1 33.5 14.3 32.6 13.6 C30.7 12.1 28.3 10.1 27.1 9.2 C28.2 9.1 28.8 9.2 30.2 9.5 C29.7 8.9 28.7 8.2 27.6 7.5 C26.5 6.7 25.7 6.6 25.5 5.8 C26.1 5.5 26.6 5.2 27.1 5.3 C26.1 4 22.3 2.2 21.7 1.7 C21.6 1.6 23.1 2.8 24 3.9 C24.7 4.7 25.3 6.6 26.1 7.1 C24.9 6.6 23.7 5.7 22.6 5.6 C25.5 8.2 27.4 10.5 28 11.4 C26.7 11 24.8 10.1 23.1 10.1 C24 10.6 26 11.8 27.4 13.3 C29.6 15.5 31.3 18 31.3 18 C30.3 17.4 26.7 15.1 25 14.5 C23 13.7 20.4 13.2 18.3 13.2 C17.6 13.2 15.3 13.4 14 13.6 C11.5 14 8.1 16.1 7 16.3 C8 14 11.8 10.9 13.9 9.8 C12.1 9.4 10.7 10.6 9.3 11.5 C10.6 10.2 13.8 6.8 15.2 5.4 C14.2 5.6 13.1 5.7 11.7 6.2 C13.5 4.2 14.2 3.7 14.3 3.5 C14.4 3.3 16.2 2.2 16.4 1.3 C14.9 2.5 10.7 5 8.9 7 C10.7 6.8 10.9 6.9 12 7 C11 7.4 8.8 9.2 8 9.8 C9.2 9.9 9 10.3 9.5 10.6 C8.6 10.9 7.2 11.8 5.4 13.3 C4.1 14.4 2.9 16.2 2.6 16.7 C4.3 16.1 4.4 15.8 5.4 15.4 C5.1 16 4.1 18.4 4 19.5 C3.7 21.3 4.7 26.6 5.3 27.4 z" opacity="0.15" id="s1" /></g></g><g fill-rule="evenOdd" transform="translate(86.49999, 117) translate(65, 60) translate(0, -7.340668)" id="t1"><g transform="translate(0.410034, 0.940678)" id="u1"><path d="M0.3 16.6 C1.8 18.6 3.2 19.7 4.4 20 C5.6 20.3 6.9 20.3 8.3 20 C10.7 23.4 12.9 25.3 14.9 25.6 C17.8 26.1 18.5 26.1 22.2 25.5 C23 25.4 23.6 25.3 25.3 23.6 C25.8 23.1 26.3 22.2 27 20.7 C28.6 20.8 29.9 20.7 30.8 20.3 C32.2 19.7 33.5 19.3 34.9 17.4 C35.8 16.1 34.6 17 32.6 17.1 C31.4 17.2 29.8 16.5 28.7 16.3 C26.8 16 23.7 13.7 19.3 9.6 C19 7.7 18.8 6.5 18.8 5.9 C18.8 4.1 19.4 3.3 19.3 2.7 C19.1 1.5 18 0.9 17.7 0.9 C17.4 0.9 16.4 1.3 16.2 2.3 C16.1 2.9 16.5 4.1 16.4 6 C16.4 6.7 16.1 7.9 15.6 9.6 C14 11.6 12.4 13.1 11 14.2 C10.4 14.6 8.8 15.8 7.4 16.4 C6.8 16.7 5.1 17.2 3.9 17.2 C3.4 17.2 2.1 17 0.3 16.6 z" id="v1" /><path d="M10 17.7 C9.9 21.3 12.1 23.9 15.3 24.7 C17.6 25.3 19.2 25.3 21.2 24.7 C24 24.7 25.6 20.9 25.7 17.7 C25.1 17.3 24.1 16.5 23.2 15.7 C22.9 15.5 21.4 14.1 20.7 13.5 C19.7 13.8 18.2 14 17.6 14 C15.9 14 16.3 13.9 14.8 13.6 C14.3 14.1 13.1 15.6 12.6 16 C11.6 16.8 10.8 17.2 10 17.7 z" id="w1" fill="#FFB8B3" /></g></g><g transform="translate(169.7, 178.7) scale(0.8) translate(-169.7, -178.7) translate(103.2, 83.99997) translate(57, 86)" id="x1"><g id="y1"><path d="M9.5 0.7 C3.4 0.7 0.3 2.6 0.2 6.7 C0.1 13.3 4.8 15.1 9.5 16.6 C14.1 15 18.9 13.2 18.8 6.7 C18.7 2.7 15.6 0.7 9.5 0.7 z" id="z1" fill="#332320" /><path d="M10.4 2.1 C8.3 2 6.2 2.3 4.3 2.9 C3.6 3.1 2.5 3.6 2.7 4.4 C3 5.8 11.1 4.3 13.8 3.7 C14 3.6 14.3 3.6 14.4 3.4 C15.5 2.5 10.9 2.1 10.4 2.1 z" id="a2" fill="#FFF" /></g></g><g transform="translate(113.6, 98.69997) translate(30, 41)" id="b2"><g id="c2"><ellipse cx="11.1" cy="20" rx="10.5" ry="10" id="d2" fill="#FFF" /><circle cx="12.1" cy="19" r="6.5" id="e2" fill="#424242" /><circle cx="10.1" cy="17" r="2.5" id="f2" fill="#FFF" /><circle cx="14.6" cy="20.5" r="1" id="g2" fill="#FFF" /><path d="M6.5 4.2 C4.5 6.7 6.1 10 8.5 9.3 C10.9 8.5 16 7.2 16.9 5.7 C17.8 4.2 17.1 -0.1 14.2 0.6 C11.3 1.3 8.5 1.8 6.5 4.2 z" id="h2" fill="#9B8C78" /></g></g><g transform="translate(105.1, 98.69997) translate(69, 41)" id="i2"><g id="j2"><ellipse cx="11.1" cy="20" rx="10.5" ry="10" id="k2" fill="#FFF" /><circle cx="10.2" cy="19" r="6.5" id="l2" fill="#424242" /><circle cx="8.2" cy="17" r="2.5" id="m2" fill="#FFF" /><circle cx="12.7" cy="20.5" r="1" id="n2" fill="#FFF" /><path d="M15.5 4.2 C17.5 6.7 15.9 10 13.5 9.3 C11.1 8.5 6 7.2 5.1 5.7 C4.2 4.2 4.9 -0.1 7.8 0.6 C10.7 1.3 13.5 1.8 15.5 4.2 z" id="o2" fill="#9B8C78" /></g></g></g></g></g><g id="p2"><g transform="matrix(1.400677, 0, 0, 1.400677, -68.94728, -46.8658)"><g transform="translate(123.5794, 88.91795) scale(1.002012, 0.9946183)"><g transform="translate(45, 309) translate(-2218.8, -364.7)" id="q2"><g id="r2"><path d="M2264.9 81 C2261.4 78.3 2257.1 78.6 2254.1 81.8 C2252.6 83.5 2251.2 85.2 2249.6 87 C2248.9 87.8 2248.5 88.9 2247.8 87.6 C2247.1 86.4 2246.5 85.2 2246 83.9 C2243.9 79.4 2242.3 74.7 2240.5 70.2 C2238.8 66.3 2237.2 62.2 2234.1 59.2 C2230.8 55.9 2226.7 57.4 2222.7 57.7 C2219 57.9 2214.4 55.7 2211.3 58.3 C2208.1 60.9 2206.2 64.9 2204.7 68.6 C2202.7 73.2 2201.2 78 2199 82.6 C2198.2 84.5 2197.3 86.8 2195.9 88.1 C2194.2 86.2 2192.7 84.2 2191.1 82.3 C2188.3 79.1 2184.4 77.7 2180.5 80.1 C2173.8 84.1 2173.8 94.7 2179.7 99.4 C2184.4 103.1 2191.4 103.9 2197 102.5 C2197.5 102.4 2197.9 102.3 2198.5 102 C2199.2 101.8 2199.3 102 2200 102.5 C2201.3 103.6 2202.7 104.5 2204.1 105.4 C2207.3 107.4 2210.7 108.7 2214.4 109.5 C2221.7 111 2230 110.4 2236.8 107.3 C2239.5 106 2242 104.4 2244.2 102.6 C2244.7 102.2 2244.9 101.8 2245.5 102 C2246 102.2 2246.4 102.4 2246.9 102.5 C2248 102.7 2249.1 103 2250.2 103.1 C2255.6 103.6 2261.8 102.4 2265.8 98.5 C2270.5 94 2270.1 85.1 2264.9 81 C2261.8 78.6 2268.1 83.5 2264.9 81 z" id="s2" fill="#DBD8C8" /><path d="M2236.9 72.9 C2235.5 68.7 2233.4 63.4 2228.6 61.8 C2223.4 60.1 2217.9 63.1 2214.1 66.4 C2210.9 69.1 2208.2 72.3 2206 75.7 C2205.5 76.4 2201.8 81.2 2203.1 82.3 C2204.8 80.4 2206.5 78.5 2208.2 76.8 C2211 73.9 2214.2 69.8 2218.1 68.3 C2223.6 66.1 2228.5 69.1 2231.8 73.4 C2234.9 77.5 2238.2 83.4 2244.1 83.7 C2240.1 81.6 2238.3 77 2236.9 72.9 z" id="t2" fill="#302923" /><path d="M2210.3 77.3 C2208.1 80.2 2206.2 84.5 2201.9 84.7 C2203.6 86.1 2206.1 89.4 2208.4 87.1 C2209.9 85.4 2209.8 82.5 2210.5 80.4 C2211.4 77.8 2212.9 75.6 2214.6 73.6 C2212.9 74.3 2211.5 75.8 2210.3 77.3 z" id="u2" fill="#302923" /><path d="M2205.9 86.2 C2209.9 86.6 2213.6 84.4 2217.6 84.5 C2220.7 84.6 2224.8 87 2223.8 90.6" id="v2" fill="#302923" /><path d="M2235 83.2 C2231.9 79.3 2227.7 75.1 2222.4 74.7 C2220 74.5 2217.2 75.2 2215.8 77.3 C2215 78.6 2215.1 80.2 2214.5 81.5 C2218.3 78.3 2223.8 80.6 2227.4 82.9 C2231.5 85.6 2235.8 89.9 2241.2 89.1 C2238.7 87.7 2236.8 85.5 2235 83.2 z" id="w2" fill="#302923" /><path d="M2245.3 101.9 C2250.6 104.5 2258.7 103.4 2263.6 100.4 C2267.3 98 2269.1 94.3 2268.8 90 C2268.6 86.3 2266.1 83.5 2262.4 82.8 C2253.6 80.9 2252 95.1 2245.1 102.4 C2245.2 102 2245.3 102 2245.3 101.9 C2249.6 104 2245.3 102 2245.3 101.9 z" id="x2" fill="#A09C8D" /><path d="M2199.6 101.9 C2194.3 104.5 2186.2 103.4 2181.3 100.4 C2177.6 98 2175.8 94.3 2176.1 90 C2176.3 86.3 2178.8 83.5 2182.5 82.8 C2191.3 80.9 2192.9 95.1 2199.8 102.4 C2199.8 102 2199.7 102 2199.6 101.9 C2195.3 104 2199.7 102 2199.6 101.9 z" id="y2" fill="#A09C8D" /><path d="M2222.4 93.4 C2213.6 94.5 2204.7 94.2 2196.8 90.1 C2201.3 100.2 2211.5 106.3 2222.4 107 C2233.2 106.3 2243.5 100.2 2248 90.1 C2240.1 94.2 2231.4 94.4 2222.4 93.4 C2213.6 94.4 2231.4 94.4 2222.4 93.4 z" id="z2" fill="#A09C8D" /><path d="M2238.1 95 C2233.6 95.1 2229.1 96.1 2224.9 97.9 C2222.9 98.8 2220.9 99.9 2219 101.2 C2217.1 102.5 2215.5 104.1 2213.5 105.2 C2216.3 106.1 2220.1 104.7 2222.8 103.9 C2226.2 102.8 2229.4 101.5 2232.9 100.7 C2234.4 100.3 2236.1 100.1 2237.6 100 C2238.4 100 2239.1 100 2240 100.1 C2240.9 100.2 2241.5 99.4 2242.2 98.7 C2242.7 98.2 2243.1 97.6 2243.6 97.2 C2244.2 96.5 2243.2 96.1 2242.5 95.8 C2241.3 95.1 2239.6 95 2238.1 95 C2230.9 95.1 2240 95 2238.1 95 z" id="a3" fill="#302923" /><path d="M2203.9 97.2 C2202.8 97 2201.7 96.6 2200.6 96.3 C2201.4 97.2 2202.3 98.2 2203.2 99.1 C2203.8 99.7 2204.1 100.2 2205 100.2 C2205.7 100.2 2206.4 100.1 2207.2 100 C2209.9 99.5 2212.6 98.6 2214.9 96.9 C2211.4 98 2207.6 98 2203.9 97.2 C2202.9 96.9 2207.6 98 2203.9 97.2 z" id="b3" fill="#302923" /><path d="M2209.9 67.6 C2214.3 64.5 2218.5 61.4 2222.9 58.3 C2221.6 58.3 2220.2 58.1 2218.9 57.9 C2217.6 57.7 2216.1 59.3 2215.1 60.3 C2212.9 62.3 2211.1 64.7 2209.9 67.6 C2214.3 64.5 2211.6 63.4 2209.9 67.6 z" id="c3" fill="#302923" /><path d="M2246.8 102.3 C2252.9 99.5 2254.1 89.4 2261.4 88.7 C2258.2 91.2 2260 95.9 2258.6 99.1 C2257.5 102.3 2253.9 104.2 2250.7 103.6" id="d3" fill="#302923" /><path d="M2268.8 89.8 C2268.7 87.4 2267.7 85.7 2266.2 84.4 C2264.3 86.6 2262.9 89.2 2261.7 91.9 C2261 93.7 2259.5 97.3 2261.5 98.9 C2263.3 95.5 2265.8 92.4 2268.8 89.8 C2268.6 87.5 2265.8 92.4 2268.8 89.8 z" id="e3" fill="#302923" /><path d="M2249.2 96.3 C2253.2 92.1 2257.1 87.8 2261.1 83.6 C2259.7 83.6 2258.2 84 2256.9 84.7 C2255.4 85.4 2254.7 86.6 2253.7 88 C2252 90.6 2250.8 93.6 2249.2 96.3 C2253.2 92.1 2251.4 92.4 2249.2 96.3 z" id="f3" fill="#302923" /><path d="M2198.1 102.3 C2192 99.5 2190.8 89.4 2183.5 88.7 C2186.7 91.2 2184.9 95.9 2186.3 99.1 C2187.4 102.3 2191 104.2 2194.2 103.6" id="g3" fill="#302923" /><path d="M2176.3 89.8 C2176.4 87.4 2177.4 85.7 2178.9 84.4 C2180.8 86.6 2182.2 89.2 2183.4 91.9 C2184.1 93.7 2185.6 97.3 2183.6 98.9 C2181.8 95.5 2179.3 92.4 2176.3 89.8 C2176.5 87.5 2179.3 92.4 2176.3 89.8 z" id="h3" fill="#302923" /><path d="M2195.9 96.3 C2191.9 92.1 2188 87.8 2184 83.6 C2185.4 83.6 2186.9 84 2188.2 84.7 C2189.6 85.4 2190.3 86.4 2191 87.6 C2192.8 90.3 2194.3 93.5 2195.9 96.3 C2191.9 92.1 2193.7 92.4 2195.9 96.3 z" id="i3" fill="#302923" /><path d="M2229.3 57.5 C2233 57.5 2235.2 60.2 2237 63.2 C2239 66.5 2240.4 70 2241.7 73.6 C2243.2 77.5 2244.6 81.4 2246.4 85 C2246.8 85.8 2247.2 86.8 2247.7 87.6 C2247.9 88.1 2248.1 88.3 2248.4 88.5 C2249 88.9 2249.2 88 2249.6 87.7 C2251.1 85.8 2252.7 83.9 2254.2 82.2 C2259.5 76.3 2267.5 80.9 2268.7 87.7 C2269.4 91.8 2268.3 96.3 2265 99 C2262.1 101.5 2258.2 102.5 2254.4 102.9 C2252.4 103 2250.3 102.9 2248.3 102.5 C2247.5 102.4 2246.6 102.1 2245.8 101.8 C2245.2 101.6 2243.9 102.9 2243.3 103.3 C2240.4 105.5 2237.2 107.3 2233.6 108.5 C2225.8 111.1 2216.4 110.7 2208.8 107.6 C2205.4 106.2 2202.4 104.1 2199.6 101.7 C2196.1 103.4 2191.5 103.4 2187.7 102.5 C2183.9 101.8 2180.3 100 2178 97 C2175.6 93.9 2175.5 88.7 2177.1 85.3 C2179.3 79.9 2186.2 77.2 2190.7 81.8 C2191.9 83.1 2192.9 84.4 2194 85.8 C2194.7 86.6 2195.3 87.5 2196 88.2 C2196.8 89.1 2197.2 87.8 2197.7 87.1 C2199.4 83.9 2200.8 80.5 2202.1 77.2 C2204.3 71.4 2206.2 64.7 2210.5 60 C2211.2 59.2 2212.2 58.1 2213.3 57.8 C2215.1 57.2 2217.3 57.6 2219.1 57.8 C2220.6 58 2222.2 58.4 2223.7 58.2 C2225.5 57.9 2227.4 57.5 2229.3 57.5 z M2229.3 56.4 L2229.3 57.6 C2229.3 57.2 2229.3 56.7 2229.3 56.4 C2227.2 56.4 2225.1 57 2222.9 57.1 C2220.9 57.2 2218.9 56.6 2216.9 56.4 C2212.7 56.2 2210.1 58.2 2207.8 61.5 C2202.6 69.3 2200.8 78.8 2196.5 87 C2193.8 83.7 2191 79 2186.4 78.4 C2182.2 77.8 2178.1 80.6 2176.3 84.4 C2175.4 86.3 2175 88.4 2175 90.5 C2175 91.3 2175.6 96.9 2176.4 96.9 C2178.3 100 2181.4 102 2184.8 103.1 C2187.4 103.9 2190.2 104.3 2192.9 104.2 C2195 104.2 2197.3 104 2199.4 103.1 C2200.7 104.2 2202 105.2 2203.4 106 C2210.4 110.6 2218.8 112 2227.1 111.2 C2233.9 110.5 2240.1 107.7 2245.3 103.3 C2245.8 102.8 2246.8 103.4 2247.4 103.7 C2248.5 103.9 2249.6 104.1 2250.8 104.2 C2252.2 104.3 2253.6 104.3 2254.9 104.2 C2257.7 104 2260.6 103.3 2263 102 C2266.1 100.3 2268.4 97.9 2269.4 94.6 C2270.6 90.5 2270.1 86.2 2267.6 82.7 C2265.4 79.5 2261.4 77.6 2257.6 78.7 C2253.2 79.9 2251.5 84.2 2248.5 87.2 C2245.2 81.1 2243.3 74.5 2240.5 68.1 C2238.3 63.2 2235.3 56.4 2229.3 56.4 z" id="j3" fill="#9B998E" /></g><path d="M2244.7 81.6 C2238.9 84.5 2232 85.8 2225.6 86 C2221.4 86.1 2217.1 85.8 2213 85.2 C2208.6 84.6 2204.2 83.7 2200.4 81.4 C2200.3 81.6 2199.5 83.2 2199.6 83.2 C2200 83.4 2200.4 83.6 2200.8 83.8 C2202.7 84.7 2204.6 85.7 2206.3 86.6 C2210.9 89 2215.5 91.3 2220.2 93.3 C2221 93.7 2222.1 94.2 2223 94 C2224.7 93.4 2226.3 92.6 2228 91.8 C2232.7 89.4 2237.3 87 2242 84.6 C2243.2 84 2244.2 83.4 2245.4 82.7 C2245.2 82.3 2245 81.9 2244.7 81.6 z" id="k3" fill="#A09C8D" /><path d="M2245.1 82.4 C2240.9 84.9 2235.6 85.8 2230.7 86.4 C2226.5 86.9 2222.2 87.1 2218 86.8 C2213 86.4 2208 85.7 2203.3 84 C2202.2 83.6 2201.3 83.2 2200.4 82.6 C2199.6 82.1 2198.4 84.4 2198 85 C2197.1 86.4 2196.3 87.8 2195.6 89.4 C2203.4 94.2 2213.8 95.3 2222.7 95.3 C2231.7 95.3 2242 94.2 2249.8 89.4 C2249.7 89.4 2247.2 84.4 2245.1 82.4 C2239.1 86 2247.2 84.4 2245.1 82.4 z" id="l3" fill="#302923" /><g transform="translate(37, 26)" id="m3"><path d="M2184.7 66.1 L2182.8 64.3 C2183.4 64.2 2184.9 64.2 2185.4 63.8 C2185.9 63.4 2186.2 62 2186.5 61.4 C2186.7 62 2187.2 63.4 2187.7 63.8 C2188.2 64.2 2189.7 64 2190.3 64 C2189.8 64.5 2188.8 65.3 2188.5 65.9 C2188.2 66.5 2188.9 67.8 2189 68.5 C2188.4 68.3 2187.2 67.3 2186.6 67.3 C2186 67.3 2184.9 68.2 2184.4 68.6 L2184.7 66.1 z" id="n3" fill="#BCBCBB" /><path d="M2186.5 62.2 C2186.7 62.7 2187.1 63.9 2187.4 64.1 C2187.8 64.3 2189.1 64.3 2189.5 64.3 C2189.1 64.7 2188.1 65.4 2188 65.8 C2187.9 66.3 2188.4 67.5 2188.5 67.9 C2188 67.7 2187.1 67 2186.6 67 C2186.1 67 2185.2 67.8 2184.7 68.1 C2184.8 67.6 2185.2 66.4 2185.1 66 C2185 65.6 2183.9 64.9 2183.6 64.6 C2184.1 64.5 2185.4 64.6 2185.7 64.2 C2186 63.8 2186.3 62.7 2186.5 62.2 z M2186.5 60.8 C2186.3 61.5 2185.8 63 2185.2 63.5 C2184.6 63.9 2183 64 2182.3 64.1 C2182.8 64.6 2184.3 65.6 2184.4 66.2 C2184.6 66.9 2184.2 68.4 2184 69.3 C2184.7 68.9 2186 67.8 2186.7 67.8 C2187.3 67.8 2188.8 68.9 2189.4 69.2 C2189.3 68.5 2188.6 66.8 2188.8 66.3 C2189 65.8 2190.5 64.6 2190.9 64.2 C2190.2 64.1 2188.4 64.2 2187.8 63.8 C2187.3 63.4 2186.7 61.4 2186.5 60.8 z" id="o3" fill="#70706E" /><path d="M2183.4 64.4 L2186.5 65.6 L2186.5 62.2 C2186.1 62.7 2185.9 63.5 2185.4 63.9 C2185 64.2 2184 64.3 2183.4 64.4 z" id="p3" fill="#FFF" /></g><g transform="translate(48, 25)" id="q3"><path d="M2186.7 66.3 L2184.5 64.9 C2185.1 64.7 2186.6 64.5 2187 64.1 C2187.5 63.6 2187.5 62.1 2187.6 61.5 C2188.2 62.2 2188.7 62.9 2189.3 63.6 C2189.5 63.8 2191.5 63.5 2191.9 63.4 C2191.4 64.1 2191 64.8 2190.5 65.6 C2190.3 66 2191.3 67.6 2191.4 68 C2190.8 67.9 2189.5 67.2 2188.9 67.3 C2188.3 67.4 2187.4 68.6 2186.9 69 L2186.7 66.3 z" id="r3" fill="#BCBCBB" /><path d="M2187.6 62.1 C2188 62.5 2188.4 63.5 2188.9 63.8 C2189.4 64.1 2190.6 63.7 2191 63.7 C2190.8 64.2 2189.8 65 2189.8 65.5 C2189.8 66 2190.4 67 2190.6 67.5 C2189.9 67.3 2189.2 67.1 2188.5 66.9 C2188.1 66.8 2187.1 68.1 2186.8 68.3 C2186.8 67.8 2186.9 66.6 2186.7 66.2 C2186.5 65.7 2185.3 65.4 2184.8 65 C2185.3 64.9 2186.5 64.6 2186.8 64.3 C2187.3 63.9 2187.4 62.7 2187.6 62.1 z M2187.4 60.8 C2187.3 61.5 2187.2 63.3 2186.7 63.7 C2186.2 64.2 2184.5 64.5 2183.8 64.8 C2184.4 65.2 2186 65.7 2186.4 66.3 C2186.8 66.9 2186.5 68.7 2186.5 69.4 C2187.1 68.9 2188.3 67.6 2188.9 67.5 C2189.6 67.4 2191.1 68.1 2191.8 68.3 C2191.4 67.6 2190.6 66.2 2190.6 65.5 C2190.6 64.9 2192 63.5 2192.4 63 C2191.7 63.1 2189.9 63.5 2189.3 63.2 C2188.6 63 2187.8 61.4 2187.4 60.8 z" id="s3" fill="#70706E" /><path d="M2185.2 65 L2188.5 65.6 L2187.7 62.2 C2187.6 62.7 2187.6 64 2187.2 64.3 C2186.8 64.6 2185.6 64.8 2185.2 65 z" id="t3" fill="#FFF" /></g><g transform="translate(25, 25)" id="u3"><path d="M2183.1 67.3 L2180.6 68.1 C2180.8 67.5 2181.5 66.2 2181.4 65.6 C2181.3 65 2180.3 64.1 2180 63.5 C2180.6 63.5 2182 63.9 2182.6 63.6 C2183.2 63.4 2183.8 61.9 2184.1 61.5 C2184.2 62.1 2184.3 63.5 2184.8 64 C2185.3 64.5 2186.7 64.6 2187.3 64.8 C2186.7 65.2 2185.5 65.7 2185.2 66.3 C2184.8 66.9 2185.1 68.2 2185.1 68.9 L2183.1 67.3 z" id="v3" fill="#BCBCBB" /><path d="M2184 62.3 C2184.2 63 2184.4 63.7 2184.6 64.4 C2184.7 64.8 2186.3 65 2186.6 65.1 C2186.1 65.3 2185.1 65.8 2184.8 66.3 C2184.5 66.8 2184.8 68 2184.8 68.4 C2184.4 68 2183.6 67.2 2183.1 67.1 C2182.6 67 2181.6 67.7 2181.1 67.8 C2181.2 67.3 2181.9 66.3 2181.8 65.8 C2181.7 65.3 2180.9 64.5 2180.5 64 C2181 64 2182.2 64.4 2182.6 64.1 C2183.2 63.9 2183.6 62.7 2184 62.3 z M2184.2 60.8 C2183.8 61.4 2183 63 2182.4 63.3 C2181.8 63.5 2180 63.2 2179.3 63.2 C2179.8 63.8 2181 65 2181.1 65.7 C2181.2 66.4 2180.4 67.9 2180.2 68.6 C2180.9 68.4 2182.6 67.5 2183.1 67.7 C2183.7 67.8 2184.9 69.2 2185.5 69.6 C2185.5 68.9 2185.1 67.1 2185.5 66.5 C2185.9 65.9 2187.4 65.2 2188 64.7 C2187.3 64.5 2185.5 64.2 2185.1 63.8 C2184.6 63.3 2184.5 61.5 2184.2 60.8 z" id="w3" fill="#70706E" /><path d="M2180.6 63.9 L2183.4 65.7 L2184 62.3 C2183.6 62.8 2183.2 63.7 2182.7 64 C2182.2 64.1 2181.2 63.9 2180.6 63.9 z" id="x3" fill="#FFF" /></g><path d="M2250.6 86.4 C2249.4 87.8 2248.8 89.1 2247.5 91.4 C2248.3 91.9 2250.6 91.2 2250.6 90.1 C2250.6 88.9 2250.6 87.6 2250.6 86.4 z" id="y3" fill="#DBD8C8" /><path d="M2194.5 86.7 C2195.9 88.4 2196.5 89.8 2197.6 91.7 C2196.7 92.4 2195.5 92.3 2194.5 91.7 C2194.3 91.6 2194.1 90.3 2194 89.9 C2193.8 88.7 2194.3 87.8 2194.5 86.7 z" id="z3" fill="#DBD8C8" /></g></g></g><g transform="matrix(0.8513334, 0, 0, 0.8513334, 25.43549, 34.1181)"><g transform="translate(132.5929, 186.631) scale(0.8942601, 0.9119344)"><g transform="translate(343, 2217) translate(-2566.7, -2782)" id="a4"><g transform="translate(19, 37)" id="b4"><path d="M2248 622.3 C2231.4 622.3 2217.9 608.9 2217.9 592.2 C2217.9 575.5 2231.3 562.1 2248 562.1 C2264.6 562.1 2278.1 575.5 2278.1 592.2 C2278.1 608.9 2264.6 622.3 2248 622.3 z" id="c4" fill="#2C334D" /><path d="M2248 621.4 C2232 621.4 2219 608.4 2219 592.4 C2219 576.4 2232 563.4 2248 563.4 C2264 563.4 2277 576.4 2277 592.4 C2277 608.3 2264 621.4 2248 621.4 z" id="d4" fill="#272727" /><path d="M2242.8 608.8 C2258.8 608.8 2271.3 604.9 2271.3 588.9 C2271.3 586.3 2259.5 579.5 2259.2 577.2 C2258.6 574.1 2270.6 575 2269 572.7 C2264.9 567.3 2257.8 563.3 2247.9 563.3 C2231.9 563.3 2218.9 576.3 2218.9 592.3 C2218.9 601.6 2223.7 610.2 2229.3 614.1 C2232.6 616.4 2236.1 608.8 2242.8 608.8 z" id="e4" fill="#F2F2F2" /><g transform="translate(0, 1)" id="f4"><g id="g4"><g id="h4"><g id="i4"><path d="M2219.1 594.7 C2223 593 2227.4 591.8 2230.2 589.6 C2233 587.6 2235 584.9 2237 582.1 C2241.4 576.2 2246.2 567.6 2252.6 562.6 C2260 563.7 2265.6 567.2 2269 571.7 C2270.7 573.9 2258.6 573.1 2259.2 576.2 C2259.3 577 2261.1 578.6 2263.3 580.3 C2260.9 580.3 2258.7 579.5 2256.9 577.5 C2255.6 576.1 2254.7 574.9 2254.3 573 C2253.8 570.6 2253.9 568.8 2254.4 566.5 L2258.2 598 C2256.2 600.9 2254 604.2 2251.6 607.3 C2248.9 607.7 2245.8 607.8 2242.8 607.8 C2236.1 607.8 2232.5 615.5 2229.2 613.1 C2224.4 609.7 2220.1 602.6 2219.1 594.7 z" id="j4" fill="#B0BDBF" /></g></g></g><g transform="translate(26, 0)" id="k4"><g id="l4"><g id="m4"><path d="M2226.8 562.6 C2227.7 562.7 2228.6 563 2229.5 563.2 L2229.5 563.3 C2228.2 564.7 2226.9 566.5 2225.1 567.4 C2224.9 567.6 2224.5 567.8 2224.2 567.9 C2221.4 568.7 2223.3 566.2 2224.2 565.2 C2224.8 564.6 2225.3 564 2225.9 563.4 C2226.3 563.2 2226.5 562.9 2226.8 562.6 z" id="n4" /></g></g></g><g id="o4"><g id="p4"><path d="M2242.8 607.8 C2258.8 607.8 2271.3 603.9 2271.3 587.9 C2271.3 585.3 2259.5 578.5 2259.2 576.2 C2258.6 573.1 2270.6 574 2269 571.7 C2264.9 566.3 2257.8 562.3 2247.9 562.3 C2231.9 562.3 2218.9 575.3 2218.9 591.3 C2218.9 600.6 2223.7 609.2 2229.3 613.1 C2232.6 615.4 2236.1 607.8 2242.8 607.8 z" id="q4" fill="none" /></g><g id="r4"><path d="M2219.4 596.3 C2219.3 595.6 2219.2 595 2219.2 594.3 C2221 593.2 2222.4 592.3 2224.2 590.8 L2223.4 592.2 C2222.3 593.6 2220.9 595.3 2219.4 596.3 z" id="s4" /></g></g></g><path d="M2248 619.4 C2233 619.4 2221 607.3 2221 592.4 C2221 577.5 2233.1 565.4 2248 565.4 C2262.9 565.4 2275 577.5 2275 592.4 C2275 607.2 2262.9 619.4 2248 619.4 z" id="t4" fill="#636363" /><path d="M2228.9 575.6 C2227.4 576.9 2226 578.9 2225.1 580.8 C2224.5 582.2 2225.7 583.2 2226.9 582.2 C2228.6 580.8 2228.4 578.5 2229.7 577 C2230.1 576.6 2231.2 575.6 2231.1 575.1 C2231 574.5 2229.7 574.7 2229.3 575" id="u4" fill="#FFF" /><path d="M2267 573.2 C2272 578.2 2275 584.9 2275 592.4 C2275 607.4 2262.9 619.4 2248 619.4 C2241.8 619.4 2236 617.3 2231.4 613.7 C2232.3 612.2 2232.9 610.3 2233.2 608.6 C2234.1 603.5 2233.7 598.2 2234.7 593.2 C2235.6 589 2237.9 585.1 2240.6 581.8 C2242.3 579.9 2243.9 578 2245.9 576.6 C2252.3 572.4 2259.2 575.7 2265.9 573.5 C2266.4 573.3 2266.8 573.3 2267 573.2 z" id="v4" fill="#505050" /><path d="M2270.1 576.7 C2270.9 577.9 2271.6 579.1 2272.3 580.4 C2271.4 580.6 2270.2 580.5 2269.4 580.4 C2265.5 579.8 2262.1 577.8 2258.1 577.9 L2256.1 577 C2259.8 576.2 2263.4 577.8 2267.1 577.5 C2267.9 577.3 2269 577.1 2270.1 576.7 z M2233.4 615 C2233.9 613.6 2234.1 612.2 2234.3 610.8 C2234.5 609 2234.5 607.1 2234.5 605.3 C2234.4 605.2 2234.4 604.9 2234.3 604.8 L2234.5 604.6 C2234.5 604.8 2234.5 605.1 2234.5 605.3 C2235.8 607.9 2237.1 611.9 2236.4 614.8 C2236.3 615.4 2236 615.9 2235.8 616.5 C2235 616.1 2234.2 615.6 2233.4 615 z" id="w4" fill="#636363" /><path d="M2248 612.2 C2237 612.2 2228.1 603.2 2228.1 592.3 C2228.1 581.4 2237.1 572.4 2248 572.4 C2259 572.4 2267.9 581.4 2267.9 592.3 C2267.8 603.2 2259 612.2 2248 612.2 z" id="x4" fill="#E1EAF4" /><path d="M2242.2 575.4 L2242.3 575 C2242.3 575.2 2242.3 575.3 2242.2 575.4 z M2242.2 575.4 C2242.3 575.4 2242.4 575.4 2242.6 575.4 C2243.8 575.4 2242.4 577.5 2242.1 576.3 C2242.1 576.2 2242.1 575.9 2242.1 575.8 C2242.2 575.6 2242.2 575.5 2242.2 575.4 z M2241.2 580 C2241.2 580.4 2242.4 581.7 2243.1 580.4 C2243.6 579.7 2243.2 578.9 2242.5 578.6 C2242 578.5 2241.1 578.9 2241.2 580 z M2254.3 579.9 C2252.1 580.6 2253.4 583.9 2255.5 583.3 C2258.1 582.5 2256.7 579.1 2254.2 579.6 L2254.3 579.9 z M2239.6 578.8 C2237.6 576.2 2239.5 573 2242.8 573.4 C2244.5 573.6 2245.6 575.1 2246.2 576.5 C2246.4 577 2246.3 577.7 2246.7 578.2 C2246.8 578.3 2246.9 578 2247.1 578 C2247.3 577.9 2247.6 577.8 2247.9 577.6 C2248.7 577.5 2249.6 577.8 2250.1 578.3 C2250.9 579 2251.2 580.2 2251 581.2 C2250.5 583.8 2247.7 584.1 2245.6 583.6 C2245.4 583.5 2245.4 584.1 2245.1 584.3 C2244.7 584.7 2244.2 584.9 2243.7 584.9 C2242.3 585 2241.5 584.1 2240.3 583.5 C2240.1 583.4 2239.9 583.7 2239.7 583.9 C2239.2 584 2238.8 583.9 2238.3 583.8 C2236.9 583.1 2236.9 580.9 2237.9 579.9 C2238.5 579.3 2239 578.9 2239.6 578.8 z M2261.1 585.2 C2260.7 585.7 2261.2 586.9 2261.8 586.3 C2262.2 585.9 2261.9 585 2261.3 585.1 L2261.1 585.2 z M2257.6 587 C2256.7 588.3 2258.3 589.2 2259.3 588.1 C2260 587.2 2258.6 585.9 2257.6 586.7 L2257.6 587 z M2261.1 588.4 C2259.3 589.8 2261.5 592.6 2263.1 591.5 C2264.8 590.4 2263.2 587.1 2261.3 588.3 L2261.1 588.4 z M2243.3 587.9 C2242.9 588 2242.6 588.1 2242.2 588.4 C2239.8 589.9 2242.4 592.4 2244.6 591.8 C2245.4 591.6 2246.4 590.7 2246.5 589.8 C2246.6 588.4 2245.6 587 2244.1 587.4 L2243.3 587.9 z M2251 588.5 C2250.4 588.6 2249.8 588.7 2249.5 589.3 C2248.4 591 2250.8 592.7 2252.3 592.2 C2255.2 591.4 2253.2 587.5 2250.5 588.2 L2251 588.5 z M2233.3 590.5 C2232.6 590.9 2231.6 591.2 2231.4 592.2 C2231 593.4 2232.7 594.7 2233.8 594.2 C2236.2 593.4 2235.1 590.5 2233 590.8 L2233.3 590.5 z M2263.3 584.7 C2262.8 584.6 2262.4 584.5 2261.9 584.5 C2261.7 584.5 2261.3 585 2261.2 584.7 C2260.7 583.4 2260.1 580.9 2258.1 581.9 C2257.3 582.4 2256.8 583.1 2256.8 584.1 C2256.8 584.5 2256.9 584.7 2257 585 C2257.1 585.1 2257.5 585.4 2257.2 585.5 C2256.1 586 2255 586.1 2254.8 587.6 C2254.8 588.3 2255.2 589 2255.6 589.5 C2255.7 589.6 2256 589.9 2256.2 590 C2256.3 590 2256.6 590 2256.6 590.1 C2256.4 590.5 2255.9 590.7 2255.7 591 C2254.9 592.4 2255.3 594.2 2256.9 594.8 C2257.5 595 2258.1 594.9 2258.7 594.6 C2258.8 594.6 2259.4 594 2259.4 594 C2261.3 594.4 2262 596.7 2264 595.2 C2266.5 593.4 2266.8 590.4 2265.9 587.7 C2265.5 586.6 2264.7 585.3 2263.3 584.7 z M2236.1 596.7 C2237.2 596.1 2238.5 596.9 2238.8 598 C2239.3 599.2 2238.7 600.7 2237.5 601.2 C2236 602 2233.8 600.4 2234.2 598.7 C2234.4 597.6 2234.4 597 2235.3 596.7 L2236.1 596.7 z M2237.9 605.1 C2237.3 605.2 2236 605.6 2235.8 606.2 C2235.1 607.4 2236.3 609 2237.6 609 C2239.3 609 2240.3 605.8 2238.5 605.1 C2238.5 605.1 2237.9 605.1 2237.9 605.1 z" id="y4" fill="#C9CECC" /><path d="M2254.6 590.3 L2254.2 588.1 L2253 587.4 C2253.2 590.4 2254.6 590.3 2254.6 590.3 z M2247.5 618.4 C2247 617.1 2246.8 616.7 2246.4 615.3 L2245.9 616.7 C2244.6 614.3 2245.2 609.7 2245.4 608.8 C2245.3 607.5 2245.2 606.3 2245.2 604.8 C2245 600.1 2242.3 593.4 2240.8 591.9 C2239.4 590.5 2240.8 587.2 2240.8 587.2 C2240.8 587.2 2243.2 589.8 2243.7 589.1 C2244.2 588.3 2242.2 586.9 2242.9 583.4 C2243.6 579.9 2247.5 578.9 2247.5 578.9 L2251.9 584.7 C2252.6 585.6 2253.6 586.2 2254.7 586.5 C2258.4 587.2 2260.6 591.9 2261.1 593.3 C2261.1 593.3 2265.1 595.4 2268.6 597.7 C2269 597.9 2268.2 600.3 2265.3 600.3 C2265.3 600.3 2262.1 600.9 2261.1 600.3 C2262.6 602 2263 600.9 2264.5 601.1 C2265.6 602.5 2266.9 603.9 2268.6 605.5 C2268.8 605.6 2269.1 605.9 2269.2 606 C2269.2 606 2269.6 606.1 2270.7 606.8 C2265.7 614.2 2257.8 618.5 2248.3 618.5 C2248.2 618.4 2247.7 618.4 2247.5 618.4 z" id="z4" fill="#FFF" /><path d="M2254 591 L2253.6 588.9 L2252.4 588.2 C2252.6 591.1 2254 591 2254 591 z M2247.4 619.4 C2246.9 618.2 2246.5 616.9 2246.1 615.5 L2245.6 616.8 C2244.4 614.4 2244.9 610 2245.1 609 C2245 607.8 2244.9 606.5 2244.9 605.1 C2244.7 600.5 2242.1 594 2240.7 592.6 C2239.3 591.2 2240.7 588 2240.7 588 C2240.7 588 2244.1 590.8 2244.6 590.1 C2245.1 589.3 2242.8 586.9 2243.5 583.6 C2244.2 580.2 2247.2 579.9 2247.2 579.9 L2251.4 585.6 C2252.1 586.5 2253.1 587.1 2254.1 587.4 C2257.6 588.1 2259.8 592.7 2260.3 594 C2260.3 594 2263.2 596.4 2266.7 598.5 C2267.1 598.7 2265.5 600.2 2262.6 600.2 C2262.6 600.2 2259.8 599.8 2258.6 599.3 C2260.1 601 2262 601.4 2263.6 601.7 C2264.7 603 2266 604.4 2267.6 605.9 C2267.8 606 2268 606.3 2268.2 606.4 C2268.2 606.4 2269 606.9 2270.3 607.6 C2265.5 614.8 2257.2 619.5 2247.9 619.5 C2247.8 619.4 2247.7 619.4 2247.4 619.4 z" id="a5" fill="#272727" /></g><g transform="translate(8, 8)" id="b5"><path d="M2219.9 564.8 C2219.9 564.8 2240.1 582.8 2252 585.1 C2264 587.3 2264 580.4 2264 580.4 L2252 580.4 L2230.1 564.8 L2220 558.7 C2219.9 558.7 2219.9 564.8 2219.9 564.8 z" id="c5" fill="#3A3E4E" /><path d="M2253.6 584.6 C2255.1 585.1 2256.7 584.6 2256.9 583.7 C2257.6 581.7 2254.1 580.6 2252.8 580.9 C2250 581.4 2251.8 584.1 2253.6 584.6 C2255.1 585.1 2252.8 584.4 2253.6 584.6 z M2254.8 587.1 C2252.2 587.1 2249.4 585.6 2249 582.7 C2248.6 579.9 2251.4 578.1 2254 578.3 C2256.4 578.4 2259 580.2 2259.3 582.7 C2259.6 585.3 2257.1 587.1 2254.8 587.1 z" id="d5" fill="#C3C2C0" /><path d="M2253.3 585.1 C2255.2 585.7 2257 585.1 2257.4 583.7 C2258.1 581.3 2254.7 579.8 2252.8 580 C2249.5 580.5 2250.6 584.4 2253.3 585.1 C2255.2 585.7 2252.4 584.8 2253.3 585.1 z M2254.8 586.5 C2252.6 586.5 2249.7 585 2249.6 582.4 C2249.5 580.2 2251.7 579 2253.7 579 C2255.7 579.1 2257.9 580.3 2258.5 582.3 C2259.4 584.8 2257 586.5 2254.8 586.5 z" id="e5" fill="#F2F3F4" /><path d="M2241 579.4 C2242.5 580.6 2244.5 580.6 2245.2 579.4 C2246.9 577 2243.4 574.4 2241.3 574.4 C2238.1 574.5 2239.2 578.2 2241 579.4 C2242.5 580.6 2240.1 578.8 2241 579.4 z M2243.3 581.4 C2240.9 581.4 2238.6 579.5 2238.1 577.2 C2237.6 574.6 2240 573.2 2242.2 573.5 C2244.2 573.9 2246.2 575.6 2246.6 577.7 C2247.1 579.9 2245.4 581.4 2243.3 581.4 z" id="f5" fill="#F2F3F4" /><path d="M2241.8 579.3 L2243.2 579.2" stroke="#C3C2C0" stroke-linecap="round" stroke-linejoin="round" id="g5" fill="none" /><path d="M2245.9 579.2 C2246.8 576.8 2243.5 574.5 2241.4 574.8 C2240 575 2239.3 576.3 2239.7 577.7 C2240.1 578.9 2241.1 579.6 2242.2 580.1 C2242.2 579.2 2241 578.8 2240.5 577.9 C2239.8 576.8 2240.3 575.4 2241.7 575.4 C2243.1 575.4 2244.4 576.1 2245.1 577.4 C2245.6 577.9 2245.4 578.9 2245.9 579.2 C2246.4 578 2245.7 579.1 2245.9 579.2 z" id="h5" fill="#C3C2C0" /><path d="M2245.1 574 C2242.7 572.6 2238.9 572.6 2238 575.8 C2237.2 579 2240.2 581.9 2243.2 582.3 C2242.8 582.3 2242.7 582.2 2242.6 581.8 C2242.4 581.2 2242.2 581.4 2241.8 581.2 C2240.9 580.7 2239.9 579.9 2239.3 579 C2238 577.1 2238.6 574.3 2241 573.7 C2243 573.2 2245.1 574.2 2246.4 575.8 C2247 576.6 2247.5 577.6 2247.5 578.6 C2247.5 579 2247.4 579.4 2247.3 579.8 C2247.2 580 2247.1 580.4 2246.7 580.5 C2246.7 580.7 2246.7 581 2246.7 581.2 C2249 578.8 2247.6 575.6 2245.1 574 C2243.9 573.3 2246.2 574.7 2245.1 574 z" id="i5" fill="#C3C2C0" /><path d="M2242.1 580.1 C2240.9 579.5 2239.7 578.7 2239.5 577.3 C2239.3 575.6 2240.7 574.7 2242.2 574.9 C2243.6 575 2244.9 576 2245.5 577.1 C2245.7 577.6 2245.9 578 2245.9 578.5 C2245.9 579.3 2246.1 579.6 2246.4 580.4 C2249.3 577.5 2244.6 573.3 2241.6 573.6 C2239.7 573.7 2238.2 575 2238.4 577 C2238.6 579.1 2240.3 580.9 2242.4 581.5 C2242.3 580.9 2242.1 580.5 2242.1 580.1 C2241.9 580 2242.1 580.5 2242.1 580.1 z" id="j5" fill="#F2F3F4" /><path d="M2246.4 580.5 C2246.3 579.9 2245.9 579 2245.3 578.7 C2245.1 579.5 2244.9 580.4 2245.4 581.2 C2245.9 581.9 2246.7 581.2 2246.4 580.5 C2246.3 580 2246.5 580.7 2246.4 580.5 z" id="k5" fill="#555556" /><path d="M2242.1 580.1 C2242.1 581.2 2242.3 582.2 2243.4 582.2 C2242.9 581.5 2242.9 580.7 2243 579.8 C2242.6 579.8 2242.4 579.6 2242.1 579.6 C2242.1 579.6 2242.1 579.9 2242.1 580.1 z" id="l5" fill="#555556" /><path d="M2247.5 582.7 L2248.9 582.3" stroke="#C3C2C0" stroke-linecap="round" stroke-linejoin="round" id="m5" fill="none" /><path d="M2251.6 581.9 C2252.3 579.2 2247.9 577.7 2245.9 578.7 C2245 579.2 2244.6 580.2 2245 581.3 C2245.6 582.7 2246.8 583 2248.1 583.5 C2248.1 582.6 2246.6 582.4 2246 581.7 C2245.3 580.8 2245.3 579 2246.8 579 C2248.5 579 2251 579.6 2251 581.7 C2251.2 581.5 2251.5 581.7 2251.6 581.9 C2251.7 581.4 2251.3 581.7 2251.6 581.9 z" id="n5" fill="#C3C2C0" /><path d="M2248.5 584.7 C2244.8 584.7 2241.2 579.2 2245.8 577.4 C2247.7 576.7 2249.8 577.3 2251.2 578.6 C2251.9 579.3 2252.5 580.1 2252.7 581.2 C2252.7 581.7 2252.7 582.3 2252.5 582.7 C2252.5 582.8 2252.4 583.1 2252.3 583.2 C2252.4 583.4 2252.5 583.6 2252.5 583.8 C2254.2 582.1 2252.7 579.3 2251.2 578 C2249.5 576.6 2246.8 576.1 2244.8 577.2 C2239.7 579.8 2244.8 586 2249.2 585.5 C2248.6 585.3 2248.8 585.2 2248.5 584.7 C2247.9 584.7 2248.6 585 2248.5 584.7 z" id="o5" fill="#C3C2C0" /><path d="M2252.2 579.5 C2250.7 577 2246.2 575.8 2244.2 578.4 C2242.1 581.2 2245.7 584.5 2248.6 584.5 C2248.5 584.3 2248.4 584 2248.2 583.7 C2248.1 583.1 2247.8 583.3 2247.4 583.1 C2246.7 582.9 2246 582.4 2245.5 581.7 C2244.7 580.6 2244.8 579.1 2246.1 578.5 C2247.5 577.8 2249.3 578.1 2250.5 579.1 C2251.1 579.6 2251.6 580.2 2251.7 580.9 C2251.8 581.1 2251.8 581.5 2251.7 581.7 C2252.1 582.1 2252.3 582.4 2252.5 582.9 C2253.2 582.1 2252.6 580.4 2252.2 579.5 C2251.6 578.6 2252.8 580.6 2252.2 579.5 z" id="p5" fill="#F2F3F4" /><path d="M2252.6 583.7 C2252.4 582.6 2251.8 582.2 2251.1 581.5 C2251.1 581.9 2251.8 584.5 2252.6 583.7 z" id="q5" fill="#555556" /><path d="M2248 583.4 C2248.2 584 2248.4 584.7 2248.8 585.2 C2249.3 585.2 2249.6 585.1 2250.1 585.1 C2249.5 584.5 2249 583.7 2248.9 582.9 C2248.8 582.8 2248 582.9 2247.7 582.8 C2247.9 583.1 2248 583.3 2248 583.4 C2248.2 583.8 2248 583.3 2248 583.4 z" id="r5" fill="#555556" /><path d="M2236.3 575.9 L2238 575.9" stroke="#C3C2C0" stroke-linecap="round" stroke-linejoin="round" id="s5" fill="none" /><path d="M2239.6 570.7 C2237.2 569.3 2233.4 569.3 2232.5 572.5 C2231.7 575.7 2234.7 578.6 2237.7 579 C2237.3 579 2237.2 578.9 2237.1 578.5 C2236.9 578 2236.7 578.1 2236.3 577.9 C2235.4 577.4 2234.4 576.6 2233.8 575.8 C2232.7 574.1 2232.7 571.8 2234.6 570.7 C2236.5 569.8 2238.7 570.6 2240.1 571.9 C2240.9 572.7 2241.6 573.7 2241.8 575 C2241.8 575.5 2241.8 576.1 2241.6 576.5 C2241.2 577.3 2241.1 577.2 2241.1 578 C2243.3 575.6 2242 572.2 2239.6 570.7 z" id="t5" fill="#C3C2C0" /><path d="M2240.4 575.9 C2241.7 573.3 2237.5 570.9 2235.4 571.7 C2232.3 572.8 2235 576.1 2236.7 576.9 C2236.7 576 2235.5 575.6 2235 574.7 C2234.2 573.4 2234.8 572.6 2236.1 572.2 C2237.2 572.2 2238.3 572.6 2239 573.4 C2239.8 574.1 2239.8 575.3 2240.4 575.9 C2240.6 575.4 2240.3 575.8 2240.4 575.9 z" id="u5" fill="#C3C2C0" /><path d="M2236.6 576.8 C2235.5 576.2 2234.5 575.5 2234.1 574.3 C2233.6 573 2234.3 571.8 2235.8 571.6 C2237.3 571.4 2238.7 572.1 2239.6 573.1 C2240.1 573.6 2240.4 574.2 2240.4 574.9 C2240.4 575.3 2240.4 575.6 2240.3 576 C2240.5 576.4 2240.8 576.8 2240.9 577.3 C2244.7 573.5 2236.2 567.5 2233.4 571.9 C2231.9 574.5 2234.5 577.7 2236.9 578.3 C2236.7 577.6 2236.6 577.2 2236.6 576.8 C2236.4 576.7 2236.6 577.2 2236.6 576.8 z" id="v5" fill="#F2F3F4" /><path d="M2236.6 576.8 C2236.6 578 2237 579.2 2238.3 578.9 C2237.9 578.3 2238.1 576.8 2237.7 576.5 C2237.3 576.5 2237 576.3 2236.6 576.3 C2236.6 576.3 2236.6 576.6 2236.6 576.8 z" id="w5" fill="#555556" /><path d="M2241 577.2 C2240.9 576.8 2240.5 575.5 2240.1 575.5 C2240.1 576.4 2240.1 577.4 2240.8 578.1 C2241.3 577.5 2241 577.8 2241 577.2 C2240.9 576.7 2241 577.4 2241 577.2 z" id="x5" fill="#555556" /><path d="M2230.8 572.2 L2232.5 572.2" stroke="#C3C2C0" stroke-linecap="round" stroke-linejoin="round" id="y5" fill="none" /><path d="M2234.2 567 C2231.8 565.6 2228 565.6 2227.1 568.8 C2226.2 572 2229.3 574.9 2232.3 575.3 C2231.9 575.3 2231.8 575.2 2231.7 574.8 C2231.5 574.2 2231.3 574.4 2230.9 574.2 C2230.1 573.8 2229.2 573.1 2228.7 572.4 C2227.4 570.6 2227.3 567.9 2229.5 566.9 C2231.4 566 2233.9 566.9 2235.3 568.3 C2236 569 2236.5 570 2236.6 571 C2236.6 571.5 2236.6 572.1 2236.4 572.5 C2236 573.3 2235.9 573.2 2235.9 574 C2238 571.9 2236.7 568.7 2234.2 567 C2233.1 566.3 2235.3 567.7 2234.2 567 z" id="z5" fill="#C3C2C0" /><path d="M2235 572.2 C2236.2 570 2232.6 567.7 2230.8 567.8 C2229.5 568 2228.6 568.7 2228.8 570.3 C2229 571.9 2230.2 572.5 2231.4 573.1 C2231.4 572.2 2230.2 571.8 2229.7 570.9 C2229 569.8 2229.5 568.4 2230.9 568.4 C2232.3 568.4 2233.6 569.1 2234.3 570.4 C2234.4 570.6 2234.7 571 2234.7 571.3 C2234.6 572 2234.7 571.7 2235 572.2 C2235.2 571.7 2234.8 572 2235 572.2 z" id="a6" fill="#C3C2C0" /><path d="M2231.3 573.2 C2230.1 572.6 2228.9 571.8 2228.7 570.4 C2228.5 569 2229.5 567.9 2230.8 567.9 C2232.1 567.9 2233.4 568.5 2234.2 569.4 C2234.7 569.9 2235 570.5 2235 571.2 C2235 571.6 2235 571.9 2234.9 572.3 C2235.1 572.7 2235.4 573.1 2235.5 573.6 C2238.7 570.4 2233.3 566.2 2230.1 566.9 C2228.2 567.3 2227.3 569 2227.6 570.9 C2228 572.8 2229.7 574.3 2231.5 574.8 C2231.4 574 2231.3 573.5 2231.3 573.2 C2231.1 573 2231.3 573.5 2231.3 573.2 z" id="b6" fill="#F2F3F4" /><path d="M2235.5 573.5 C2235.4 572.9 2235 572 2234.4 571.7 C2234.2 572.9 2234.2 573.6 2234.8 574.6 C2235.2 574.3 2235.9 574.2 2235.5 573.5 C2235.4 573 2235.7 573.8 2235.5 573.5 z" id="c6" fill="#555556" /><path d="M2231.3 573.2 C2231.3 574.4 2231.5 575.3 2232.7 575.3 C2232.2 574.6 2232.2 573.8 2232.3 572.9 C2231.9 572.9 2231.6 572.7 2231.2 572.7 C2231.3 572.7 2231.2 572.9 2231.3 573.2 C2231.3 573.6 2231.2 572.9 2231.3 573.2 z" id="d6" fill="#555556" /><path d="M2225.5 568 L2227.4 568.1" stroke="#C3C2C0" stroke-linecap="round" stroke-linejoin="round" id="e6" fill="none" /><path d="M2226.7 568.6 C2226.8 568.6 2226.8 568.6 2226.9 568.7 C2226.8 568.6 2226.7 568.6 2226.7 568.6 z" id="f6" fill="#C3C2C0" /><path d="M2229.2 563 C2227 561.3 2223.2 561.2 2222 564.3 C2220.7 567.5 2223.8 570.3 2226.6 571.1 C2226.2 571.1 2226.1 571 2226 570.6 C2225.9 570 2225.2 569.9 2224.7 569.7 C2223.8 569.1 2222.9 568.2 2222.5 567.1 C2221.4 564.9 2223.1 562.5 2225.6 562.5 C2227.6 562.5 2229.4 563.7 2230.3 565.3 C2230.7 566 2230.9 567 2230.9 567.8 C2230.9 568.2 2230.8 568.6 2230.5 569 C2230.1 569.7 2230 569.6 2230 570.4 C2232.1 568.3 2231.8 564.8 2229.2 563 C2228.1 562.2 2230.2 563.7 2229.2 563 z" id="g6" fill="#C3C2C0" /><path d="M2229.5 568.2 C2230.7 566 2227.6 563.5 2225.6 563.5 C2224.4 563.5 2223.5 564.2 2223.5 565.4 C2223.4 566.9 2224.6 568.1 2225.9 568.8 C2225.9 568.2 2226 568.3 2225.7 568 C2225.1 567.5 2224.5 566.9 2224.4 566.1 C2224 564.9 2224.8 564.1 2225.9 564.1 C2227.2 564.1 2228.6 565 2229.1 566.2 C2229.3 566.9 2229.2 567.6 2229.5 568.2 C2230.1 567.1 2229.4 568 2229.5 568.2 z" id="h6" fill="#C3C2C0" /><path d="M2225.8 568.8 C2224.7 568.2 2223.9 567.5 2223.6 566.3 C2223.1 564.9 2224.1 563.5 2225.6 563.5 C2227.1 563.5 2228.7 564.6 2229.4 566 C2229.6 566.5 2229.8 567.1 2229.8 567.7 C2229.8 567.9 2229.7 568.2 2229.6 568.4 C2229.8 568.8 2230 569.2 2230.1 569.7 C2233 566.8 2229 562.5 2225.7 562.5 C2223.7 562.5 2222 564.2 2222.4 566.3 C2222.8 568.2 2224.4 569.7 2226.1 570.3 C2225.8 569.7 2225.8 569.3 2225.8 568.8 C2225.5 568.7 2225.8 569.3 2225.8 568.8 z" id="i6" fill="#F2F3F4" /><path d="M2230 569.5 C2229.9 568.9 2229.6 568.2 2229.2 567.7 C2229 568.5 2229 569.4 2229.2 570.2 C2229.5 571.3 2230.4 570.2 2230 569.5 C2229.9 569 2230.1 569.7 2230 569.5 z" id="j6" fill="#555556" /><path d="M2225.8 568.8 C2225.8 570 2225.8 571.2 2227.2 571.2 C2227.1 570.4 2227 569.7 2227.2 568.8 C2226.8 568.8 2226.1 568.6 2225.9 568.3 C2225.8 568.3 2225.8 568.6 2225.8 568.8 z" id="k6" fill="#555556" /><path d="M2221 564 L2221.9 564.1" stroke="#C3C2C0" stroke-linecap="round" stroke-linejoin="round" id="l6" fill="none" /><path d="M2224 560.8 C2222.9 559.7 2220.9 559 2219.8 560.2 C2218.5 561.5 2219.8 564.2 2221.2 564.9 C2221.2 564.7 2221.6 564.1 2221 564.1 C2220.5 563.6 2220.2 563.2 2219.9 562.6 C2219.4 561.3 2220.3 560.2 2221.6 560.2 C2222.7 560.2 2223.6 561 2224.2 561.9 C2224.9 562.8 2224.6 563.8 2225 564.7 C2225.8 563.6 2225.3 562 2224 560.8 C2223.2 560 2225.3 562 2224 560.8 z" id="m6" fill="#C3C2C0" /><path d="M2225.3 559.5 C2223.3 557.5 2219.5 557 2218 559.9 C2216.5 562.7 2219.1 566.4 2221.9 567.2 C2221.5 567.2 2221.4 567.1 2221.4 566.7 C2221.3 566.1 2220.8 566.1 2220.3 565.8 C2219.4 565.1 2218.5 564.1 2218.3 563 C2217.8 560.9 2218.9 558.8 2221.2 558.6 C2223.2 558.5 2225.2 559.9 2226.2 561.7 C2226.7 562.6 2226.9 563.6 2226.6 564.6 C2226.2 565.5 2225.4 565.9 2225.4 567 C2228.4 565.5 2227.3 561.3 2225.3 559.5 C2224.3 558.5 2226.2 560.3 2225.3 559.5 z" id="n6" fill="#C3C2C0" /><path d="M2221.2 564.9 C2218.7 563.6 2218.5 558.9 2222 559.7 C2223.4 560.1 2224.6 561.1 2225.1 562.4 C2225.3 562.9 2225.5 563.5 2225.3 564.1 C2225.2 564.9 2225.2 565.4 2225.4 566.2 C2228.2 563.4 2225.3 558.5 2221.6 558.4 C2219.8 558.4 2218.3 559.6 2218.2 561.3 C2218 563.4 2219.5 565.3 2221.3 566.1 C2221.2 565.7 2221.2 565.3 2221.2 564.9 C2220.9 564.8 2221.2 565.3 2221.2 564.9 z" id="o6" fill="#F2F3F4" /><path d="M2225.4 566.1 C2225.4 565.3 2225 564.8 2224.7 564.1 C2224.7 564.7 2224 565 2224.1 565.9 C2224.3 567.1 2225.4 567.7 2225.4 566.1 z" id="p6" fill="#555556" /><path d="M2221.2 564.9 C2221.1 565.4 2221.1 566.2 2221.3 566.7 C2221.4 567.3 2221.7 566.9 2222 567.3 C2221.8 566.7 2221.8 566 2221.8 565.3 C2221.9 564.5 2221.9 564.8 2221.4 564.4 C2221.3 564.6 2221.2 564.7 2221.2 564.9 C2221 565.4 2221.3 564.7 2221.2 564.9 z" id="q6" fill="#555556" /><path d="M2221.4 557.2 C2218.6 557.2 2216.6 559.7 2217 562.5 C2217.4 564.5 2219.4 567.6 2221.6 567.6 C2222.4 569.5 2224 570.8 2225.8 571.4 C2226 571.4 2226.3 571.5 2226.5 571.5 C2226.7 571.5 2227.6 573.2 2227.8 573.4 C2228.6 574.3 2230.3 575.6 2231.7 575.6 C2232.4 575.6 2232.4 576.1 2232.8 576.5 C2233.4 577.3 2234.2 578 2235 578.5 C2235.8 579 2237.7 579.1 2238.1 579.7 C2239 581.1 2240.7 582.1 2242.3 582.5 C2243.2 582.7 2243.1 583 2244 583.8 C2245.3 585 2247.2 585.8 2249 585.8 C2249.4 585.8 2249.7 585.8 2250.1 585.7 C2250.6 586.2 2251.2 586.5 2251.8 586.9 C2253.1 587.5 2254.4 587.8 2255.8 587.6 C2258.3 587.2 2260.3 585.1 2259.8 582.5 C2259.3 579.8 2256.6 578 2254.1 577.8 C2253.5 577.8 2252.9 577.8 2252.3 577.9 C2251.7 577.3 2251.1 577 2250.4 576.6 C2249.7 576.2 2249 576.1 2248.3 576 C2247.5 575.9 2247.4 575.4 2246.9 574.7 C2246 573.5 2244.8 572.8 2243.4 572.5 C2242.5 572.3 2242.3 572.3 2241.7 571.6 C2241.3 571.1 2240.9 570.7 2240.4 570.3 C2239.5 569.7 2237.3 569.4 2236.9 568.5 C2236.2 567.3 2235 566.4 2233.7 565.9 C2233 565.7 2232.2 565.8 2231.8 565.1 C2231.6 564.5 2231.2 564 2230.9 563.4 C2230.1 562.3 2228.9 561.6 2227.6 561.3 C2226.6 558.9 2224 557.2 2221.4 557.2 z M2221.9 566.6 C2221.9 566.9 2221.9 566.3 2221.9 566.6 C2221.9 566.5 2221.8 566.2 2221.8 566 C2221.8 566.2 2221.8 566.3 2221.9 566.6 C2221.9 566.7 2221.8 566.4 2221.9 566.6 z M2221.4 557.8 C2223.5 557.8 2225.4 559.2 2226.5 561 C2226.9 561.6 2226.7 561.8 2227.4 562.1 C2228.1 562.3 2228.7 562.6 2229.3 563 C2230.4 563.8 2231.2 564.9 2231.5 566.1 C2233.6 566.3 2235.4 567.4 2236.5 569.3 C2237 570 2238.5 570 2239.3 570.5 C2240.2 571 2241.2 571.8 2241.8 572.7 C2242.3 573.4 2243 573.1 2243.8 573.3 C2245 573.7 2246 574.4 2246.9 575.3 C2247.6 576.1 2247.4 576.5 2248.4 576.5 C2249.7 576.6 2250.8 577 2251.8 577.8 C2252.3 578.3 2252.3 578.5 2253 578.4 C2253.5 578.3 2254.1 578.3 2254.5 578.3 C2255.7 578.4 2256.9 578.8 2257.8 579.6 C2259.5 581 2260.3 583.4 2258.9 585.3 C2257.6 587 2255.5 587.2 2253.6 586.8 C2252.5 586.7 2251.6 586.1 2250.8 585.4 C2250.2 584.9 2249.9 585.2 2249.1 585.2 C2246.4 585.2 2244.1 583.9 2243.3 581.3 C2243.4 581.7 2243.4 581.9 2243.7 582.1 C2243.5 582.1 2243.1 582.2 2242.9 582 C2241.1 581.6 2238.2 579.9 2238.2 577.8 C2238.3 578.4 2238.4 578.6 2238.6 579 C2238.4 579 2237.7 579.1 2237.4 578.9 C2236.1 578.7 2234.9 578 2234.1 577 C2233.6 576.5 2233.3 575.9 2232.9 575.3 C2232.7 575.3 2232.2 575.4 2232 575.2 C2230.1 574.8 2227.3 573.1 2227.3 570.8 C2227.3 570.9 2227.3 570.9 2227.3 571 C2226.9 571 2226.6 570.8 2226.2 570.8 C2224.3 570.2 2222.4 568.7 2222.1 566.7 C2222.1 566.8 2222.2 566.9 2222.2 567.1 C2222 567.1 2221.7 566.9 2221.5 566.9 C2217.3 565.3 2215.7 557.8 2221.4 557.8 z" id="r6" fill="#3A3E4B" /><path d="M2297.7 564.8 C2297.7 564.8 2277.5 582.8 2265.6 585.1 C2253.6 587.3 2253.6 580.4 2253.6 580.4 L2265.6 580.4 L2287.5 564.8 L2297.6 558.7 L2297.6 564.8 z" id="s6" fill="#3A3E4E" /><path d="M2264 584.6 C2262.5 585.1 2260.9 584.6 2260.7 583.7 C2260 581.7 2263.5 580.6 2264.8 580.9 C2267.5 581.4 2265.7 584.1 2264 584.6 C2262.4 585.1 2264.8 584.4 2264 584.6 z M2262.8 587.1 C2265.4 587.1 2268.2 585.6 2268.6 582.7 C2269 579.9 2266.2 578.1 2263.6 578.3 C2261.2 578.4 2258.6 580.2 2258.3 582.7 C2257.9 585.3 2260.4 587.1 2262.8 587.1 z" id="t6" fill="#C3C2C0" /><path d="M2264.2 585.1 C2262.3 585.7 2260.5 585.1 2260.1 583.7 C2259.4 581.3 2262.8 579.8 2264.7 580 C2268.1 580.5 2266.9 584.4 2264.2 585.1 C2262.3 585.7 2265.1 584.8 2264.2 585.1 z M2262.8 586.5 C2265 586.5 2267.9 585 2268 582.4 C2268.1 580.2 2265.9 579 2263.9 579 C2261.9 579.1 2259.7 580.3 2259.1 582.3 C2258.2 584.8 2260.5 586.5 2262.8 586.5 z" id="u6" fill="#F2F3F4" /><path d="M2276.6 579.4 C2275.1 580.6 2273.1 580.6 2272.4 579.4 C2270.7 577 2274.2 574.4 2276.3 574.4 C2279.4 574.5 2278.3 578.2 2276.6 579.4 C2275 580.6 2277.4 578.8 2276.6 579.4 z M2274.2 581.4 C2276.6 581.4 2278.9 579.5 2279.4 577.2 C2279.9 574.6 2277.5 573.2 2275.3 573.5 C2273.3 573.9 2271.3 575.6 2270.9 577.7 C2270.4 579.9 2272.1 581.4 2274.2 581.4 z" id="v6" fill="#F2F3F4" /><path d="M2275.7 579.3 L2274.3 579.2" stroke="#C3C2C0" stroke-linecap="round" stroke-linejoin="round" id="w6" fill="none" /><path d="M2271.6 579.2 C2270.7 576.8 2274 574.5 2276.1 574.8 C2277.5 575 2278.2 576.3 2277.8 577.7 C2277.4 578.9 2276.4 579.6 2275.3 580.1 C2275.3 579.2 2276.5 578.8 2277 577.9 C2277.7 576.8 2277.2 575.4 2275.8 575.4 C2274.4 575.4 2273.1 576.1 2272.4 577.4 C2272 577.9 2272.1 578.9 2271.6 579.2 C2271.2 578 2271.9 579.1 2271.6 579.2 z" id="x6" fill="#C3C2C0" /><path d="M2272.4 574 C2274.8 572.6 2278.6 572.6 2279.5 575.8 C2280.3 579 2277.3 581.9 2274.3 582.3 C2274.7 582.3 2274.8 582.2 2274.9 581.8 C2275.1 581.2 2275.3 581.4 2275.7 581.2 C2276.6 580.7 2277.6 579.9 2278.2 579 C2279.5 577.1 2278.9 574.3 2276.5 573.7 C2274.5 573.2 2272.4 574.2 2271.1 575.8 C2270.5 576.6 2270 577.6 2270 578.6 C2270 579 2270.1 579.4 2270.2 579.8 C2270.3 580 2270.4 580.4 2270.8 580.5 C2270.8 580.7 2270.8 581 2270.8 581.2 C2268.6 578.8 2270 575.6 2272.4 574 C2273.6 573.3 2271.4 574.7 2272.4 574 z" id="y6" fill="#C3C2C0" /><path d="M2275.4 580.1 C2276.6 579.5 2277.8 578.7 2278 577.3 C2278.2 575.6 2276.8 574.7 2275.3 574.9 C2273.9 575 2272.6 576 2272 577.1 C2271.8 577.6 2271.6 578 2271.6 578.5 C2271.6 579.3 2271.4 579.6 2271.1 580.4 C2268.2 577.5 2272.9 573.3 2275.9 573.6 C2277.8 573.7 2279.3 575 2279.1 577 C2278.9 579.1 2277.2 580.9 2275.1 581.5 C2275.3 580.9 2275.4 580.5 2275.4 580.1 C2275.6 580 2275.4 580.5 2275.4 580.1 z" id="z6" fill="#F2F3F4" /><path d="M2271.2 580.5 C2271.3 579.9 2271.7 579 2272.3 578.7 C2272.5 579.5 2272.7 580.4 2272.2 581.2 C2271.6 581.9 2270.8 581.2 2271.2 580.5 C2271.3 580 2271 580.7 2271.2 580.5 z" id="a7" fill="#555556" /><path d="M2275.4 580.1 C2275.4 581.2 2275.2 582.2 2274.1 582.2 C2274.6 581.5 2274.6 580.7 2274.5 579.8 C2274.9 579.8 2275.1 579.6 2275.4 579.6 C2275.4 579.6 2275.4 579.9 2275.4 580.1 z" id="b7" fill="#555556" /><path d="M2270.1 582.7 L2268.7 582.3" stroke="#C3C2C0" stroke-linecap="round" stroke-linejoin="round" id="c7" fill="none" /><path d="M2266 581.9 C2265.3 579.2 2269.7 577.7 2271.7 578.7 C2272.6 579.2 2273 580.2 2272.6 581.3 C2272 582.7 2270.8 583 2269.5 583.5 C2269.5 582.6 2271 582.4 2271.6 581.7 C2272.3 580.8 2272.3 579 2270.8 579 C2269.1 579 2266.6 579.6 2266.6 581.7 C2266.3 581.5 2266.1 581.7 2266 581.9 C2265.8 581.4 2266.2 581.7 2266 581.9 z" id="d7" fill="#C3C2C0" /><path d="M2269 584.7 C2272.7 584.7 2276.3 579.2 2271.7 577.4 C2269.8 576.7 2267.7 577.3 2266.3 578.6 C2265.6 579.3 2265 580.1 2264.8 581.2 C2264.8 581.7 2264.8 582.3 2265 582.7 C2265 582.8 2265.1 583.1 2265.2 583.2 C2265.1 583.4 2265 583.6 2265 583.8 C2263.3 582.1 2264.8 579.3 2266.3 578 C2268 576.6 2270.7 576.1 2272.7 577.2 C2277.8 579.8 2272.7 586 2268.3 585.5 C2268.9 585.3 2268.8 585.2 2269 584.7 C2269.6 584.7 2268.9 585 2269 584.7 z" id="e7" fill="#C3C2C0" /><path d="M2265.4 579.5 C2266.9 577 2271.4 575.8 2273.4 578.4 C2275.5 581.2 2271.9 584.5 2269 584.5 C2269.1 584.3 2269.2 584 2269.4 583.7 C2269.5 583.1 2269.8 583.3 2270.2 583.1 C2270.9 582.9 2271.6 582.4 2272.1 581.7 C2272.9 580.6 2272.8 579.1 2271.5 578.5 C2270.1 577.8 2268.3 578.1 2267.1 579.1 C2266.5 579.6 2266 580.2 2265.9 580.9 C2265.8 581.1 2265.8 581.5 2265.9 581.7 C2265.5 582.1 2265.3 582.4 2265.1 582.9 C2264.3 582.1 2264.9 580.4 2265.4 579.5 C2266 578.6 2264.8 580.6 2265.4 579.5 z" id="f7" fill="#F2F3F4" /><path d="M2264.9 583.7 C2265.1 582.6 2265.7 582.2 2266.4 581.5 C2266.4 581.9 2265.7 584.5 2264.9 583.7 z" id="g7" fill="#555556" /><path d="M2269.5 583.4 C2269.3 584 2269.1 584.7 2268.7 585.2 C2268.2 585.2 2267.9 585.1 2267.4 585.1 C2268 584.5 2268.5 583.7 2268.6 582.9 C2268.7 582.8 2269.5 582.9 2269.8 582.8 C2269.6 583.1 2269.5 583.3 2269.5 583.4 C2269.4 583.8 2269.5 583.3 2269.5 583.4 z" id="h7" fill="#555556" /><path d="M2281.3 575.9 L2279.6 575.9" stroke="#C3C2C0" stroke-linecap="round" stroke-linejoin="round" id="i7" fill="none" /><path d="M2278 570.7 C2280.4 569.3 2284.2 569.3 2285.1 572.5 C2285.9 575.7 2282.9 578.6 2279.9 579 C2280.3 579 2280.4 578.9 2280.5 578.5 C2280.7 578 2280.9 578.1 2281.3 577.9 C2282.2 577.4 2283.2 576.6 2283.8 575.8 C2284.9 574.1 2284.9 571.8 2283 570.7 C2281.1 569.8 2278.9 570.6 2277.5 571.9 C2276.7 572.7 2276 573.7 2275.8 575 C2275.8 575.5 2275.8 576.1 2276 576.5 C2276.4 577.3 2276.5 577.2 2276.5 578 C2274.2 575.6 2275.5 572.2 2278 570.7 z" id="j7" fill="#C3C2C0" /><path d="M2277.2 575.9 C2275.9 573.3 2280.1 570.9 2282.2 571.7 C2285.3 572.8 2282.6 576.1 2280.9 576.9 C2280.9 576 2282.1 575.6 2282.6 574.7 C2283.4 573.4 2282.8 572.6 2281.5 572.2 C2280.4 572.2 2279.3 572.6 2278.6 573.4 C2277.8 574.1 2277.8 575.3 2277.2 575.9 C2276.9 575.4 2277.3 575.8 2277.2 575.9 z" id="k7" fill="#C3C2C0" /><path d="M2280.9 576.8 C2282 576.2 2283 575.5 2283.4 574.3 C2283.9 573 2283.2 571.8 2281.7 571.6 C2280.2 571.4 2278.8 572.1 2277.9 573.1 C2277.4 573.6 2277.1 574.2 2277.1 574.9 C2277.1 575.3 2277.1 575.6 2277.2 576 C2277 576.4 2276.7 576.8 2276.6 577.3 C2272.8 573.5 2281.3 567.5 2284.1 571.9 C2285.6 574.5 2283 577.7 2280.6 578.3 C2280.8 577.6 2280.9 577.2 2280.9 576.8 C2281.2 576.7 2280.9 577.2 2280.9 576.8 z" id="l7" fill="#F2F3F4" /><path d="M2280.9 576.8 C2280.9 578 2280.5 579.2 2279.2 578.9 C2279.6 578.3 2279.4 576.8 2279.8 576.5 C2280.2 576.5 2280.5 576.3 2280.9 576.3 C2280.9 576.3 2280.9 576.6 2280.9 576.8 z" id="m7" fill="#555556" /><path d="M2276.6 577.2 C2276.7 576.8 2277.1 575.5 2277.5 575.5 C2277.5 576.4 2277.5 577.4 2276.8 578.1 C2276.2 577.5 2276.6 577.8 2276.6 577.2 C2276.7 576.7 2276.6 577.4 2276.6 577.2 z" id="n7" fill="#555556" /><path d="M2286.7 572.2 L2285 572.2" stroke="#C3C2C0" stroke-linecap="round" stroke-linejoin="round" id="o7" fill="none" /><path d="M2283.3 567 C2285.7 565.6 2289.5 565.6 2290.4 568.8 C2291.3 572 2288.2 574.9 2285.2 575.3 C2285.6 575.3 2285.7 575.2 2285.8 574.8 C2286 574.2 2286.2 574.4 2286.6 574.2 C2287.4 573.8 2288.3 573.1 2288.8 572.4 C2290.1 570.6 2290.2 567.9 2288 566.9 C2286.1 566 2283.6 566.9 2282.2 568.3 C2281.5 569 2281 570 2280.9 571 C2280.9 571.5 2280.9 572.1 2281.1 572.5 C2281.5 573.3 2281.6 573.2 2281.6 574 C2279.5 571.9 2280.8 568.7 2283.3 567 C2284.5 566.3 2282.2 567.7 2283.3 567 z" id="p7" fill="#C3C2C0" /><path d="M2282.6 572.2 C2281.4 570 2285 567.7 2286.8 567.8 C2288.1 568 2289 568.7 2288.8 570.3 C2288.6 571.8 2287.4 572.5 2286.2 573.1 C2286.2 572.2 2287.4 571.8 2287.9 570.9 C2288.6 569.8 2288.1 568.4 2286.7 568.4 C2285.3 568.4 2284 569.1 2283.3 570.4 C2283.2 570.6 2282.9 571 2282.9 571.3 C2282.9 572 2282.8 571.7 2282.6 572.2 C2282.4 571.7 2282.7 572 2282.6 572.2 z" id="q7" fill="#C3C2C0" /><path d="M2286.2 573.2 C2287.4 572.6 2288.6 571.8 2288.8 570.4 C2289 569 2288 567.9 2286.7 567.9 C2285.4 567.9 2284.1 568.5 2283.3 569.4 C2282.8 569.9 2282.5 570.5 2282.5 571.2 C2282.5 571.6 2282.5 571.9 2282.6 572.3 C2282.4 572.7 2282.1 573.1 2282 573.6 C2278.8 570.4 2284.2 566.2 2287.4 566.9 C2289.3 567.3 2290.2 569 2289.9 570.9 C2289.5 572.8 2287.8 574.3 2286 574.8 C2286.1 574 2286.2 573.5 2286.2 573.2 C2286.5 573 2286.2 573.5 2286.2 573.2 z" id="r7" fill="#F2F3F4" /><path d="M2282 573.5 C2282.1 572.9 2282.5 572 2283.1 571.7 C2283.3 572.9 2283.3 573.6 2282.7 574.6 C2282.4 574.3 2281.6 574.2 2282 573.5 C2282.1 573 2281.9 573.8 2282 573.5 z" id="s7" fill="#555556" /><path d="M2286.2 573.2 C2286.2 574.4 2286 575.3 2284.8 575.3 C2285.3 574.6 2285.3 573.8 2285.2 572.9 C2285.6 572.9 2285.9 572.7 2286.3 572.7 C2286.2 572.7 2286.4 572.9 2286.2 573.2 C2286.2 573.6 2286.4 572.9 2286.2 573.2 z" id="t7" fill="#555556" /><path d="M2292 568 L2290.1 568.1" stroke="#C3C2C0" stroke-linecap="round" stroke-linejoin="round" id="u7" fill="none" /><path d="M2290.8 568.6 C2290.7 568.6 2290.7 568.6 2290.6 568.7 C2290.7 568.6 2290.8 568.6 2290.8 568.6 z" id="v7" fill="#C3C2C0" /><path d="M2288.4 563 C2290.6 561.3 2294.4 561.2 2295.6 564.3 C2296.9 567.5 2293.8 570.3 2291 571.1 C2291.4 571.1 2291.5 571 2291.6 570.6 C2291.7 570 2292.4 569.9 2292.9 569.7 C2293.8 569.1 2294.7 568.2 2295.1 567.1 C2296.2 564.9 2294.5 562.5 2292 562.5 C2290 562.5 2288.2 563.7 2287.3 565.3 C2286.9 566 2286.7 567 2286.7 567.8 C2286.7 568.2 2286.8 568.6 2287.1 569 C2287.5 569.7 2287.6 569.6 2287.6 570.4 C2285.4 568.3 2285.8 564.8 2288.4 563 C2289.4 562.2 2287.3 563.7 2288.4 563 z" id="w7" fill="#C3C2C0" /><path d="M2288 568.2 C2286.8 566 2289.9 563.5 2291.9 563.5 C2293.1 563.5 2294 564.2 2294 565.4 C2294.1 566.9 2292.9 568.1 2291.6 568.8 C2291.6 568.2 2291.5 568.3 2291.8 568 C2292.4 567.5 2293 566.9 2293.1 566.1 C2293.5 564.9 2292.7 564.1 2291.6 564.1 C2290.3 564.1 2288.9 565 2288.4 566.2 C2288.2 566.9 2288.4 567.6 2288 568.2 C2287.4 567.1 2288.1 568 2288 568.2 z" id="x7" fill="#C3C2C0" /><path d="M2291.8 568.8 C2292.9 568.2 2293.7 567.5 2294 566.3 C2294.5 564.9 2293.5 563.5 2292 563.5 C2290.5 563.5 2288.9 564.6 2288.2 566 C2288 566.5 2287.8 567.1 2287.8 567.7 C2287.8 567.9 2287.9 568.2 2288 568.4 C2287.8 568.8 2287.6 569.2 2287.5 569.7 C2284.6 566.8 2288.6 562.5 2291.9 562.5 C2293.9 562.5 2295.6 564.2 2295.2 566.3 C2294.8 568.2 2293.2 569.7 2291.5 570.3 C2291.8 569.7 2291.8 569.3 2291.8 568.8 C2292 568.7 2291.8 569.3 2291.8 568.8 z" id="y7" fill="#F2F3F4" /><path d="M2287.5 569.5 C2287.6 568.9 2287.9 568.2 2288.3 567.7 C2288.5 568.5 2288.5 569.4 2288.3 570.2 C2288 571.3 2287.2 570.2 2287.5 569.5 C2287.7 569 2287.4 569.7 2287.5 569.5 z" id="z7" fill="#555556" /><path d="M2291.8 568.8 C2291.8 570 2291.8 571.2 2290.4 571.2 C2290.5 570.4 2290.6 569.7 2290.4 568.8 C2290.8 568.8 2291.5 568.6 2291.7 568.3 C2291.8 568.3 2291.8 568.6 2291.8 568.8 z" id="a8" fill="#555556" /><path d="M2296.5 564 L2295.6 564.1" stroke="#C3C2C0" stroke-linecap="round" stroke-linejoin="round" id="b8" fill="none" /><path d="M2293.6 560.8 C2294.7 559.7 2296.7 559 2297.8 560.2 C2299.1 561.5 2297.8 564.2 2296.4 564.9 C2296.4 564.7 2296 564.1 2296.6 564.1 C2297.1 563.6 2297.4 563.2 2297.7 562.6 C2298.2 561.3 2297.3 560.2 2296 560.2 C2294.9 560.2 2294 561 2293.4 561.9 C2292.7 562.8 2293 563.8 2292.6 564.7 C2291.8 563.6 2292.3 562 2293.6 560.8 C2294.4 560 2292.3 562 2293.6 560.8 z" id="c8" fill="#C3C2C0" /><path d="M2292.3 559.5 C2294.3 557.5 2298.1 557 2299.6 559.9 C2301.1 562.7 2298.5 566.4 2295.7 567.2 C2296.1 567.2 2296.2 567.1 2296.2 566.7 C2296.3 566.1 2296.8 566.1 2297.3 565.8 C2298.2 565.1 2299.1 564.1 2299.3 563 C2299.8 560.9 2298.7 558.8 2296.4 558.6 C2294.4 558.5 2292.4 559.9 2291.4 561.7 C2290.9 562.6 2290.7 563.6 2291 564.6 C2291.4 565.5 2292.2 565.9 2292.2 567 C2289.2 565.5 2290.3 561.3 2292.3 559.5 C2293.2 558.5 2291.3 560.3 2292.3 559.5 z" id="d8" fill="#C3C2C0" /><path d="M2296.4 564.9 C2298.9 563.6 2299.1 558.9 2295.6 559.7 C2294.2 560.1 2293 561.1 2292.5 562.4 C2292.3 562.9 2292.1 563.5 2292.3 564.1 C2292.4 564.9 2292.4 565.4 2292.2 566.2 C2289.4 563.4 2292.3 558.5 2296 558.4 C2297.8 558.4 2299.3 559.6 2299.4 561.3 C2299.6 563.4 2298.1 565.3 2296.3 566.1 C2296.4 565.7 2296.4 565.3 2296.4 564.9 C2296.6 564.8 2296.4 565.3 2296.4 564.9 z" id="e8" fill="#F2F3F4" /><path d="M2292.1 566.1 C2292.1 565.3 2292.5 564.8 2292.8 564.1 C2292.8 564.7 2293.5 565 2293.4 565.9 C2293.2 567.1 2292.1 567.7 2292.1 566.1 z" id="f8" fill="#555556" /><path d="M2296.4 564.9 C2296.5 565.4 2296.5 566.2 2296.3 566.7 C2296.2 567.3 2295.9 566.9 2295.6 567.3 C2295.8 566.7 2295.8 566 2295.8 565.3 C2295.7 564.5 2295.7 564.8 2296.2 564.4 C2296.3 564.6 2296.4 564.7 2296.4 564.9 C2296.5 565.4 2296.3 564.7 2296.4 564.9 z" id="g8" fill="#555556" /><path d="M2296.1 557.2 C2298.9 557.2 2300.9 559.7 2300.5 562.5 C2300.1 564.5 2298.1 567.6 2295.9 567.6 C2295.1 569.5 2293.5 570.8 2291.7 571.4 C2291.5 571.4 2291.2 571.5 2291 571.5 C2290.8 571.5 2289.9 573.2 2289.7 573.4 C2288.9 574.3 2287.2 575.6 2285.8 575.6 C2285.1 575.6 2285.1 576.1 2284.7 576.5 C2284.1 577.3 2283.3 578 2282.5 578.5 C2281.7 579 2279.8 579.1 2279.4 579.7 C2278.5 581.1 2276.8 582.1 2275.2 582.5 C2274.3 582.7 2274.4 583 2273.5 583.8 C2272.2 585 2270.3 585.8 2268.5 585.8 C2268.1 585.8 2267.8 585.8 2267.4 585.7 C2266.9 586.2 2266.3 586.5 2265.7 586.9 C2264.4 587.5 2263.1 587.8 2261.7 587.6 C2259.2 587.2 2257.2 585.1 2257.7 582.5 C2258.2 579.8 2260.9 578 2263.4 577.8 C2264 577.8 2264.6 577.8 2265.2 577.9 C2265.8 577.3 2266.4 577 2267.1 576.6 C2267.8 576.2 2268.5 576.1 2269.2 576 C2270 575.9 2270.1 575.4 2270.6 574.7 C2271.5 573.5 2272.7 572.8 2274.1 572.5 C2275 572.3 2275.2 572.3 2275.8 571.6 C2276.2 571.1 2276.6 570.7 2277.1 570.3 C2278 569.7 2280.2 569.4 2280.6 568.5 C2281.3 567.3 2282.5 566.4 2283.8 565.9 C2284.5 565.7 2285.3 565.8 2285.7 565.1 C2285.9 564.5 2286.3 564 2286.6 563.4 C2287.4 562.3 2288.6 561.6 2289.9 561.3 C2291 558.9 2293.6 557.2 2296.1 557.2 z M2295.7 566.6 C2295.7 566.9 2295.7 566.3 2295.7 566.6 C2295.7 566.5 2295.8 566.2 2295.8 566 C2295.8 566.2 2295.8 566.3 2295.7 566.6 C2295.7 566.7 2295.8 566.4 2295.7 566.6 z M2296.1 557.8 C2294 557.8 2292.1 559.2 2291 561 C2290.6 561.6 2290.8 561.8 2290.1 562.1 C2289.4 562.3 2288.8 562.6 2288.2 563 C2287.1 563.8 2286.3 564.9 2286 566.1 C2283.9 566.3 2282.1 567.4 2281 569.3 C2280.5 570 2279 570 2278.2 570.5 C2277.3 571 2276.3 571.8 2275.7 572.7 C2275.2 573.4 2274.5 573.1 2273.7 573.3 C2272.5 573.7 2271.5 574.4 2270.6 575.3 C2269.9 576.1 2270.1 576.5 2269.1 576.5 C2267.8 576.6 2266.7 577 2265.7 577.8 C2265.2 578.3 2265.2 578.5 2264.5 578.4 C2264 578.3 2263.4 578.3 2263 578.3 C2261.8 578.4 2260.6 578.8 2259.7 579.6 C2258 581 2257.2 583.4 2258.6 585.3 C2259.9 587 2262 587.2 2263.9 586.8 C2265 586.7 2265.9 586.1 2266.7 585.4 C2267.3 584.9 2267.6 585.2 2268.4 585.2 C2271.1 585.2 2273.4 583.9 2274.2 581.3 C2274.1 581.7 2274.1 581.9 2273.8 582.1 C2274 582.1 2274.4 582.2 2274.6 582 C2276.4 581.6 2279.3 579.9 2279.3 577.8 C2279.2 578.4 2279.1 578.6 2278.9 579 C2279.1 579 2279.8 579.1 2280.1 578.9 C2281.4 578.7 2282.6 578 2283.4 577 C2283.9 576.5 2284.2 575.9 2284.6 575.3 C2284.8 575.3 2285.2 575.2 2285.5 575.2 C2288.6 574.7 2292 572.8 2290.2 570.8 C2290.1 570.7 2290.2 570.9 2290.2 571 C2290.6 571 2290.9 570.8 2291.3 570.8 C2293.2 570.2 2295.1 568.7 2295.4 566.7 C2295.4 566.8 2295.3 566.9 2295.3 567.1 C2295.5 567.1 2295.8 566.9 2296 566.9 C2300.3 565.3 2301.8 557.8 2296.1 557.8 z" id="h8" fill="#3A3E4B" /><path d="M2259.4 595.4 C2256.5 595.4 2256.2 593.9 2255.5 591.9 C2254.9 589.7 2254.1 587.3 2253.5 585.2 C2252.9 583.4 2252.4 581.7 2251.8 579.8 C2250.9 576.9 2254.5 576.1 2257.2 576.1 C2259.9 576.1 2263.9 575.6 2265 578.2 C2265.6 579.7 2264.5 581.7 2264.1 583.2 C2263.3 585.6 2262.6 588.2 2261.7 590.5 C2261.5 591.9 2261.1 595.4 2259.4 595.4 z" id="i8" fill="#3A3E4B" /><path d="M2259 594.5 C2256.8 594.5 2256.5 593.1 2256.1 591.2 C2255.6 589.1 2255 587 2254.6 585 C2254.1 583.3 2253.8 581.7 2253.3 579.9 C2252.6 577.2 2255.4 576.5 2257.4 576.5 C2259.5 576.5 2262.6 576 2263.4 578.5 C2263.9 579.9 2263 581.8 2262.7 583.1 C2262.1 585.3 2261.5 587.7 2260.9 589.9 C2260.7 591.2 2260.4 594.5 2259 594.5 z" id="j8" fill="#808E8C" /><path d="M2259.7 590.4 C2260.9 590.9 2262.1 582.1 2261.8 581.2 C2261 578 2257 578.6 2255.9 581.2 C2255.5 582 2255.7 582.9 2255.5 583.7 C2255 585.6 2256.3 584.9 2257.6 585.6 C2258.5 586.2 2259.1 587.3 2259.3 588.3 C2259.4 588.5 2259.4 590.3 2259.7 590.4 C2260.7 590.7 2259.2 590.1 2259.7 590.4 z" id="k8" fill="#B0BDBF" /><path d="M2257.9 592.9 C2257.4 592.8 2257 591.4 2256.8 591 C2256.3 589.6 2255.9 588.2 2255.5 586.9 C2255.1 585.4 2254.8 583.8 2254.6 582.3 C2254.5 581.2 2254.1 579.7 2254.7 578.8 C2255.9 576.8 2261.5 576.9 2262.6 579 C2263.1 580.1 2262.2 584 2260.8 582.3 C2259.7 581.1 2257.3 580.2 2256.6 582.2 C2256.1 583.9 2258.9 593 2257.9 592.9 C2257 592.6 2258.9 593 2257.9 592.9 z" id="l8" fill="#FFF" /></g></g></g></g></g></g><defs><g transform="translate(17.09519, 0.800995) translate(-135.2952, -293.601)" id="m8" fill="#000"><path d="M118.2 302.7 C118.4 307.4 132.5 311.2 149.8 311.2 C167.1 311.2 181.2 307.4 181.4 302.7 C181.4 307.5 181.4 310.1 181.4 310.5 C181.4 315.3 167.3 319.1 149.8 319.1 C132.3 319.1 118.2 315.2 118.2 310.5 L118.2 302.7 L118.2 302.7 z" fill-opacity="0.4528" id="n8" fill="#593001" /><path d="M118.7 301.7 C118.9 306.4 133 310.2 150.3 310.2 C167.6 310.2 181.7 306.4 181.9 301.7 C181.9 306.5 181.9 309.1 181.9 309.5 C181.9 314.3 167.8 318.1 150.3 318.1 C132.8 318.1 118.7 314.2 118.7 309.5 L118.7 301.7 L118.7 301.7 z" id="o8" fill="#DA8113" /><linearGradient x1="46.0545" y1="-118.6926" x2="45.4656" y2="-118.6926" gradientUnits="userSpaceOnUse" gradientTransform="matrix(117.135, 0, 0, 28.4634, -5208.417, 3687.795)" id="p8"><stop offset="0%" stop-color="#D9952A" stop-opacity="1" /><stop offset="6.438854%" stop-color="#CA7519" stop-opacity="1" /><stop offset="30.54%" stop-color="#E3AD3A" stop-opacity="1" /><stop offset="51.05%" stop-color="#FFEC91" stop-opacity="1" /><stop offset="68.8%" stop-color="#E9BD44" stop-opacity="1" /><stop offset="86.24%" stop-color="#FFED6C" stop-opacity="1" /><stop offset="93.87%" stop-color="#F2D353" stop-opacity="1" /><stop offset="100%" stop-color="#F2B947" stop-opacity="1" /></linearGradient><path d="M118.2 301.6 C118.4 306.1 132.7 309.7 150.3 309.7 C167.9 309.7 182.2 306.1 182.4 301.6 C182.4 306.2 182.4 308.7 182.4 309 C182.4 313.5 168 317.2 150.3 317.2 C132.6 317.2 118.2 313.5 118.2 309 L118.2 301.6 L118.2 301.6 z" id="q8" style="fill:url(#p8)" /><linearGradient x1="45.4914" y1="-117.9547" x2="45.9407" y2="-117.5895" gradientUnits="userSpaceOnUse" gradientTransform="matrix(115.425, 0, 0, 29.925, -5125.077, 3826.124)" id="r8"><stop offset="0%" stop-color="#F4E072" stop-opacity="1" /><stop offset="100%" stop-color="#DB9427" stop-opacity="1" /></linearGradient><ellipse cx="150.3" cy="301.5" rx="31.6" ry="8.2" id="s8" style="fill:url(#r8)" /><linearGradient x1="45.4656" y1="-126.0065" x2="46.0545" y2="-126.0065" gradientUnits="userSpaceOnUse" gradientTransform="matrix(117.135, 0, 0, 18.6219, -5208.417, 2651.479)" id="t8"><stop offset="0%" stop-color="#D9952A" stop-opacity="1" /><stop offset="6.438854%" stop-color="#CA7519" stop-opacity="1" /><stop offset="30.54%" stop-color="#E3AD3A" stop-opacity="1" /><stop offset="51.05%" stop-color="#FFEC91" stop-opacity="1" /><stop offset="68.8%" stop-color="#E9BD44" stop-opacity="1" /><stop offset="86.24%" stop-color="#FFED6C" stop-opacity="1" /><stop offset="93.87%" stop-color="#F2D353" stop-opacity="1" /><stop offset="100%" stop-color="#F2B947" stop-opacity="1" /></linearGradient><path d="M119.2 299.9 C119 300.2 118.9 300.6 118.9 301 C118.9 305.5 132.9 309.2 150.3 309.2 C167.7 309.2 181.7 305.5 181.7 301 C181.7 300.6 181.6 300.3 181.4 299.9 C182 300.5 182.4 301.2 182.4 301.9 C182.4 306.4 168 310.1 150.3 310.1 C132.6 310.1 118.2 306.4 118.2 301.9 C118.2 301.3 118.6 300.6 119.2 299.9 z" id="u8" style="fill:url(#t8)" /><linearGradient x1="45.196" y1="-121.5895" x2="45.3746" y2="-120.6758" gradientUnits="userSpaceOnUse" gradientTransform="matrix(101.745, 0, 0, 23.94, -4458.332, 3199.41)" id="v8"><stop offset="0%" stop-color="#F8DD61" stop-opacity="1" /><stop offset="100%" stop-color="#EAA330" stop-opacity="1" /></linearGradient><ellipse cx="150.3" cy="300.8" rx="27.8" ry="6.6" id="w8" style="fill:url(#v8)" /><linearGradient x1="45.5694" y1="-134.267" x2="45.0221" y2="-134.267" gradientUnits="userSpaceOnUse" gradientTransform="matrix(101.745, 0, 0, 13.2525, -4458.332, 2077.223)" id="x8"><stop offset="0%" stop-color="#F4CA2F" stop-opacity="1" /><stop offset="51.38%" stop-color="#BF7737" stop-opacity="1" /><stop offset="100%" stop-color="#E4A929" stop-opacity="1" /></linearGradient><path d="M122.6 301.5 C122.5 301.3 122.4 301 122.4 300.8 C122.4 297.2 134.9 294.2 150.2 294.2 C165.5 294.2 178 297.1 178 300.8 C178 301 177.9 301.3 177.8 301.5 C176.3 298.2 164.5 295.6 150.1 295.6 C135.7 295.6 124.1 298.2 122.6 301.5 z" id="y8" style="fill:url(#x8)" /></g></defs><desc>D7LBE2L8FOL,fCwE2QzsHXbbBX/4FfVa7qZ85WE80WZ6mKLNZ6oy3ff30sqZl5rxq7TahCN0eQqy1GDFoGAjKEk7v6u7v5zr/S2E36IQRHIx93HvF0p1dcviJFVYrCSDWpZ3XvnjSQTUyarjSK2UVBMrS7jXn6WFE/KsVBqW39eh0SD+HkyWAWAhKGNCCp+hD7itawExaVoTrg3ajfJ0DuWeJWmg9nnO2zIlHF5/w7bd1Qr22H/ukikFYmzHtinEbT4lztd+S5h3</desc></svg>