<?xml version="1.0" encoding="utf-8"?><!DOCTYPE svg PUBLIC "-//W3C//DTD SVG 1.1//EN" "http://www.w3.org/Graphics/SVG/1.1/DTD/svg11.dtd"><svg x="0" y="0" width="340px" height="340px" viewBox="0, 0, 340, 340" preserveAspectRatio="xMidYMid" font-size="0" id="a" enable-background="new 0 0 340 340" xmlns="http://www.w3.org/2000/svg" xmlns:xlink="http://www.w3.org/1999/xlink" xmlns:xml="http://www.w3.org/XML/1998/namespace" version="1.1"><g id="b" fill="#000"><g id="c"><g transform="translate(0, 0) translate(0, 224)" id="d"><ellipse cx="168.6" cy="53.1" rx="57.8" ry="12.8" fill-opacity="0.25" id="e" /></g><g id="f"><g transform="translate(106.3, 115.8) translate(0, 122)" id="g"><g id="h"><path d="M37.2 31.3 C12.9 30.6 2.2 26.6 0.8 19.3 C0 15.1 -0.4 9.5 0.8 6.5 C2.8 1.8 7.8 0.9 9.2 0.7 C11.4 0.3 13.8 1.1 16.3 3.1 C16.9 3.7 17.2 4.6 17.3 5.9 C17.3 7.7 18.4 8.8 15.8 9.1 C13.3 9.5 11.8 7.1 10.3 7.3 C8.8 7.5 8.3 9.9 8.3 10.8 C8.3 11.7 7.9 13.8 10.8 15.2 C12.8 16.1 26.9 18.4 37.1 19.7 L37.2 31.3 z" id="i" fill="#BD8B6A" /><path d="M8.7 1.6 C10.1 1 12.4 0.6 16.3 2.9 C17.6 3.8 18.2 5.1 18.2 6.7 C18.2 7.6 17.8 10 15.4 9.8 C13 9.6 11.8 7.5 10.3 7.8 C9.3 8 8.6 9 8.3 11 C8.3 13 9.3 14.4 11.2 15.2 C13.1 16 25.3 18.6 35.6 19.6 C36.9 23.3 35.1 25.6 34.4 25.6 C32.9 25.6 15.5 23.4 9.9 20.2 C4.2 17 4.5 15.8 3.7 10.4 C2.9 4.8 7.8 2 8.7 1.6 z" id="j" fill="#D8B285" /><path d="M15.2 2.3 C15.5 2.5 15.9 2.7 16.3 2.9 C17.6 3.8 18.2 5.1 18.2 6.7 C18.2 7.6 17.8 10 15.4 9.8 C13 9.6 11.8 7.5 10.3 7.8 C9.3 8 8.6 9 8.3 11 C8.3 13 9.3 14.4 11.2 15.2 C11.8 15.4 13.2 15.8 15.2 16.3 C20.6 17.4 29.9 18.8 37.1 19.7 L37.2 31.3 C12.9 30.6 2.2 26.6 0.8 19.3 C0 15.1 -0.4 9.5 0.8 6.5 C2.8 1.8 7.8 0.9 9.2 0.7 C11.1 0.4 13.1 0.9 15.2 2.3 z M17.7 5.9 C17.7 4.9 17 4 15.7 3.1 C13.7 1.8 11.7 0.5 10 0.8 C8.6 1.1 4 1.9 2.2 6.2 C1.1 9 1.5 14.2 2.2 18 C3.5 24.7 13.4 28.4 35.8 29.1 L35.8 20.7 C29.1 19.8 21.3 18.7 16.3 17.7 C14.5 17.3 10.8 16.1 10.3 15.9 C8.5 15.2 7.8 14.2 7.8 10.8 C8 9 9.1 7.1 10.6 7.1 C12 7.1 13.4 9.1 15.6 9.3 C17.8 9.5 17.7 6.8 17.7 5.9 z" opacity="0.15" id="k" /></g></g><g transform="translate(116.3, 272.3) scale(2.145889) translate(-116.3, -272.3) translate(95.80001, 116.2) translate(18, 125)" id="l"><g transform="translate(14.5, 17) scale(-1, 1) translate(-14.5, -17)" id="m"><path d="M10.9 1.8 C11.6 2 21.5 -3.4 26.2 6.5 C26.9 11.9 19.6 25 20.5 26 C23.5 28.8 27.3 28.1 27.6 28.6 C27.9 29.1 26.7 30.5 24.1 32.5 C10.3 32.5 3.3 32.5 2.9 32.5 C-3.5 27 2.2 4.4 10.9 1.8 z" id="n" fill="#BD8B6A" /><path d="M21.7 23.2 C24.6 25.3 26.6 23.6 27.8 26.8 C29.1 29.9 26.4 30.9 25.7 32.5 C25 34.1 3.3 32.5 3 32.5 C2.8 32.5 3.2 29.3 4 25.1 C7.3 23.9 10.9 21.6 13.4 20.6 C14.6 20.1 14.8 18.3 18.3 18.5 C20.5 18.5 21.7 20.1 21.7 23.2 z" id="o" fill="#806458" /><path d="M21.6 22 C21.6 22.4 21.7 22.8 21.7 23.2 C24.6 25.3 26.6 23.6 27.8 26.8 C29.1 29.9 26.4 30.9 25.7 32.5 C25 34.1 3.3 32.5 3 32.5 L2.9 32.5 C-3.5 27 2.2 4.4 10.9 1.8 C11.6 2 21.5 -3.4 26.2 6.5 C26.7 10.2 23.5 17.4 21.6 22 z M20.4 23.6 C20.4 23.2 21.1 20.9 21.1 20.6 C22.8 16.4 25.8 9.7 25.3 6.3 C21 -2.8 11.8 2.1 11.2 2 C3.2 4.4 -2.1 25.3 3.8 30.4 L3.9 30.4 C4.2 30.4 24.1 31.3 24.9 30.4 C25.6 29.5 26.8 28.4 26.1 26.9 C24.9 23.8 23 25.6 20.4 23.6 z" opacity="0.15" id="p" /></g></g><g transform="translate(221.3, 272.2999) scale(2.145889) translate(-221.3, -272.2999) translate(111.8, 116.2) translate(96.5, 142) scale(-1, 1) translate(-96.5, -142) translate(81, 125)" id="q"><g transform="translate(15.5, 17) scale(-1, 1) translate(-15.5, -17)" id="r"><path d="M13 1.8 C13.7 2 23.6 -3.4 28.3 6.5 C29 11.9 21.6 25 22.6 26 C25.6 28.8 29.4 28.1 29.7 28.6 C30 29.1 28.8 30.5 26.2 32.5 C12.4 32.5 5.4 32.5 5 32.5 C-0.9 31.6 -3.3 5.3 13 1.8 z" id="s" fill="#BD8B6A" /><path d="M23.7 23.2 C26.6 25.3 28.6 23.6 29.8 26.8 C31.1 29.9 28.4 30.9 27.7 32.5 C27 34.1 5.3 32.5 5 32.5 C4.8 32.5 5.2 29.3 6 25.1 C9.3 23.9 12.9 21.6 15.4 20.6 C16.6 20.1 16.8 18.3 20.3 18.5 C22.5 18.5 23.7 20.1 23.7 23.2 z" id="t" fill="#806458" /><path d="M23.7 23.2 C26.6 25.3 28.6 23.6 29.8 26.8 C31.1 29.9 28.4 30.9 27.7 32.5 C27 34.1 5.3 32.5 5 32.5 C-0.9 31.6 -3.3 5.3 13 1.8 C13.7 2 23.6 -3.4 28.3 6.5 C28.8 10.2 25.5 17.5 23.6 22.1 C23.7 22.4 23.7 22.8 23.7 23.2 z M21.6 23 C21.6 22.6 23.1 21 23.1 20.7 C24.8 16.5 27.9 9.6 27.4 6.2 C23 -3 13.7 2.5 13.1 2.4 C-2.1 5.6 0.2 29.6 5.7 30.4 C6 30.4 26 31.4 26.8 30.4 C27.6 29.4 29 28.5 28.4 26.4 C28.4 25.1 24.3 25 21.6 23 z" opacity="0.15" id="u" /></g></g><g transform="translate(86.90001, 76.79997) translate(29, 49)" id="v"><path d="M88.8 24.6 C92.3 31.7 95.8 53 97.8 59.4 C99.8 65.8 98.9 80.9 99 89.1 C99.1 97.3 87.5 146.2 83.3 150.5 C81.7 152.2 75.1 153.6 64.6 153.6 C60.8 153.6 55.4 151.6 52.3 151.6 C48.8 151.6 43.2 153.7 39.8 153.6 C30.1 153.2 24.2 152.1 22.8 150.5 C19.1 146.2 6.9 103 6.5 91.8 C6.1 80.6 3.2 69.8 7.6 59.4 C10.8 52.4 13.5 40.8 16 24.6 C17.2 17.2 38.4 0.2 52.3 0.2 C73.1 0.2 85.3 17.5 88.8 24.6 z" id="w" fill="#D8B285" /><g transform="translate(5, 0)" id="x"><path d="M83.8 24.6 C87.3 31.7 90.8 53 92.8 59.4 C94.8 65.8 93.9 80.9 94 89.1 C94.1 97.3 82.5 146.2 78.3 150.5 C76.7 152.2 70.1 153.6 59.6 153.6 C55.8 153.6 50.4 151.6 47.3 151.6 C43.8 151.6 38.2 153.7 34.8 153.6 C25.1 153.2 19.2 152.1 17.8 150.5 C14.1 146.2 1.9 103 1.5 91.8 C1.1 80.6 -1.8 69.8 2.6 59.4 C5.8 52.4 8.5 40.8 11 24.6 C12.2 17.2 33.4 0.2 47.3 0.2 C68.1 0.2 80.3 17.5 83.8 24.6 z M83 24.8 C79.6 17.8 67.6 0.9 47.3 0.9 C33.7 0.9 13 17.5 11.8 24.8 C9.4 40.6 6.7 52 3.6 58.8 C-0.7 69 2.1 79.5 2.5 90.4 C2.9 101.3 14.8 143.6 18.5 147.8 C19.9 149.4 25.6 150.4 35.1 150.8 C38.4 150.9 43.9 148.8 47.3 148.8 C50.3 148.8 55.6 150.8 59.3 150.8 C69.6 150.8 76 149.4 77.6 147.8 C81.7 143.6 93 95.8 92.9 87.8 C92.8 79.8 93.7 65 91.8 58.8 C89.8 52.5 86.4 31.7 83 24.8 z" fill-opacity="0.2" id="y" /></g></g><g transform="translate(86.80001, 76.79997) translate(33, 103)" id="z"><g id="a1"><path d="M48.8 34 C46.6 34 38.7 32 37.5 31.2 C33.2 28.2 31.8 27.2 27.1 23 C25.9 21.9 24.3 16.5 22.7 14.9 C17.2 9.4 9.6 -1.4 5.4 0.3 C5 0.5 4.3 2.6 3.8 3.9 C1.9 8.4 1.4 11.6 0.7 18 C0 24.4 1.5 39.1 2.2 43.1 C3.6 50.8 5.5 55.4 7.4 65.5 C9.3 75.6 10.8 87.1 9.2 89 C8.5 89.9 2.7 94.1 1.4 97.9 C1.1 98.8 1.4 103 2.6 104.9 C3.7 106.7 12 106.1 14.5 106.1 C19.4 106.1 28.6 105.2 30.9 103.9 C33.2 102.6 34.8 98.1 34.7 94.5 C34.6 90.9 32.3 75.9 32.9 59.9 C33 51.7 31.9 44 34 41.4 C34.5 40.8 36.1 42.5 37.6 43.7 C39.5 45.3 41.4 46.7 43.1 47.7 C46 49.4 47.8 50.4 48 50.4 C48.5 50.4 49.3 50.2 50.2 49.8 C51.5 49.3 53.2 48.9 54.5 48 C55.8 47.2 57.8 45.9 58.5 45.5 C60.8 43.9 63.1 41.5 64 42.4 C66.6 45 64.8 50.8 65.1 59.8 C65.7 75.7 63.5 90.8 63.3 94.4 C63.1 98 64.7 102.5 67.1 103.8 C69.5 105.1 78.6 106 83.5 106 C85.9 106 94.2 106.6 95.4 104.8 C96.5 102.9 96.9 98.8 96.6 97.8 C95.2 94 89.5 89.8 88.8 88.9 C87.2 87 88.8 72.3 90.7 62.2 C92.6 52.1 93.9 48.1 95.3 40.4 C96 36.4 96.9 24.8 96.9 18.8 C96.7 12.8 95.1 5.6 93.5 2.6 C92.9 0.9 93.1 -0.6 91.8 0.3 C89.4 2 84.5 7.4 82 10.8 C80.1 13.4 77.3 14.7 74.4 18 C72.3 20.3 70.4 25.9 68.5 27.6 C63.9 31.6 51 34 48.8 34 z" id="b1" fill="#BD8B6A" /><path d="M5.4 0.1 C5 0.3 4.3 2.4 3.8 3.7 C1.9 8.2 1.4 11.4 0.7 17.8 C0 24.2 1.4 38.9 2.1 43 C2.1 43.1 2.1 43.2 2.2 43.3 C2.6 43.2 4.1 45 5.4 45.1 C7.1 45.3 8.5 43.7 8.7 41.5 C8.8 39.1 6.9 35.4 6.9 31.3 C6.8 24.8 8.8 17.5 10.6 14 C12.9 9.7 10.5 4.6 8.7 1.2 C7.4 0.2 6.3 -0.2 5.4 0.1 z" id="c1" fill="#F0C497" /><path d="M95.3 40.4 C96 36.4 96.9 24.8 96.9 18.8 C96.7 12.8 95.1 5.6 93.5 2.6 C92.9 0.9 93.1 -0.6 91.8 0.3 C91 0.8 90.1 1.8 89.1 3 C87.5 6.3 86.1 10.5 88 14.2 C89.8 17.6 89.9 27.7 89.1 34.9 C88.6 39.3 87.4 41.4 87.5 43.7 C87.9 50 93.5 46.7 94.1 46.3 C94.1 45.9 95.2 40.8 95.3 40.4 z" id="d1" fill="#F0C497" /><g id="e1"><path d="M48.8 34 C51 34 63.9 31.6 68.5 27.6 C70.4 25.9 72.3 20.3 74.4 18 C77.3 14.7 80.1 13.4 82 10.8 C84.5 7.4 89.4 2 91.8 0.3 C93.1 -0.6 92.9 0.9 93.5 2.6 C95.1 5.6 96.7 12.8 96.9 18.8 C96.9 24.8 96 36.4 95.3 40.4 C93.9 48.1 92.6 52.1 90.7 62.2 C88.8 72.3 87.2 87 88.8 88.9 C89.5 89.8 95.2 94 96.6 97.8 C96.9 98.8 96.5 102.9 95.4 104.8 C94.2 106.6 85.9 106 83.5 106 C78.6 106 69.5 105.1 67.1 103.8 C64.7 102.5 63.1 98 63.3 94.4 C63.5 90.8 65.7 75.7 65.1 59.8 C64.8 50.8 66.6 45 64 42.4 C63.1 41.5 60.8 43.9 58.5 45.5 C57.8 45.9 55.8 47.2 54.5 48 C53.2 48.9 51.5 49.3 50.2 49.8 C49.3 50.2 48.5 50.4 48 50.4 C47.8 50.4 46 49.4 43.1 47.7 C41.4 46.7 39.5 45.3 37.6 43.7 C36.1 42.5 34.5 40.8 34 41.4 C31.9 44 33 51.7 32.9 59.9 C32.3 75.9 34.6 90.9 34.7 94.5 C34.8 98.1 33.2 102.6 30.9 103.9 C28.6 105.2 19.4 106.1 14.5 106.1 C12 106.1 3.7 106.7 2.6 104.9 C1.4 103 1.1 98.8 1.4 97.9 C2.7 94.1 8.5 89.9 9.2 89 C10.8 87.1 9.3 75.6 7.4 65.5 C5.5 55.4 3.6 50.8 2.2 43.1 C1.5 39.1 0 24.4 0.7 18 C1.4 11.6 1.9 8.4 3.8 3.9 C4.3 2.6 5 0.5 5.4 0.3 C9.6 -1.4 17.2 9.4 22.7 14.9 C24.3 16.5 25.9 21.9 27.1 23 C31.8 27.2 33.2 28.2 37.5 31.2 C38.7 32 46.6 34 48.8 34 z M48.8 36 C46.7 36 39.3 33.2 38.1 32.5 C34 29.7 30.6 28.5 26.1 24.5 C25 23.5 22.3 17.6 20.8 16.1 C15.6 10.9 11.8 1.7 7.8 3.3 C7.4 3.5 6.8 5.5 6.3 6.7 C4.5 10.9 4.1 13.9 3.4 20 C2.7 26.1 4.2 39.9 4.8 43.7 C6.1 51 7.9 55.3 9.7 64.8 C11.5 74.3 13.5 86.4 11.9 88.2 C11.9 90.1 4.5 94.9 3.9 96.6 C3.6 97.4 3.9 100.3 5.1 102.1 C6.1 103.8 14 103.2 16.3 103.2 C20.9 103.2 27.9 102.3 30 101 C32.1 99.7 32.8 94.2 32.7 90.8 C32.6 87.4 29.4 71.9 30 56.8 C30.1 49.1 30 39.8 32 37.4 C32.5 36.8 37.5 42 39 43.2 C40.8 44.7 47.9 48.3 48.7 47.9 C49.9 47.4 53.2 46.3 54.4 45.5 C55.6 44.7 59.7 41.6 60.4 41.3 C62.6 39.8 65.1 38.1 66.5 38.1 C68 40.2 67 51 67.3 59.5 C67.9 74.5 64.8 88.8 64.6 92.2 C64.4 95.6 65 99.9 67.3 101.1 C69.6 102.3 76.8 103.2 81.5 103.2 C83.8 103.2 91.5 104.9 92.6 103.2 C93.6 101.4 94.4 98.7 94.1 97.8 C92.8 94.2 87.8 91.8 87.2 90.9 C85.7 89.1 86.5 71.4 88.3 61.9 C90.1 52.4 91.3 48.6 92.6 41.3 C93.3 37.5 94.1 26.6 94.1 20.9 C94 15.1 92.5 8.3 91 5.4 C90.4 3.8 90.6 2.4 89.4 3.2 C87.1 4.8 83.9 10.2 81.6 13.4 C79.8 15.9 76.9 17.5 74.1 20.6 C72.1 22.8 71.2 27.1 69.4 28.7 C65 32.6 50.9 36 48.8 36 z" fill-opacity="0.3" id="f1" /></g></g></g></g><g id="g1"><g transform="translate(147.6, 103.8) scale(0.8) translate(-147.6, -103.8) translate(-278.1, 47.39996) translate(26, 0)" id="h1"><g transform="translate(0.775704, 0)" id="i1"><path d="M383.5 49.2 C383.4 40.7 383.4 33.7 385.1 25.4 C386.8 17.1 393.9 9 395.1 7.3 C396.3 5.6 399 5.5 400 7.3 C400.5 8.3 401.7 10.6 403.4 14.4 C404.8 17.5 406.2 22 406.9 23.5 C410.4 31.4 413.3 35.7 414.2 40 C414.1 46.4 409 50.5 399.9 60.6 C398.3 62.5 395.1 63.8 391.5 63.2 C387.9 62.6 383.6 57.7 383.5 49.2 z" id="j1" fill="#806458" /><path d="M383.5 49.2 C383.4 40.7 383.4 33.7 385.1 25.4 C386.8 17.1 393.9 9 395.1 7.3 C396.3 5.6 399 5.5 400 7.3 C400.5 8.3 401.7 10.6 403.4 14.4 C404.8 17.5 406.2 22 406.9 23.5 C410.4 31.4 413.3 35.7 414.2 40 C414.1 46.4 409 50.5 399.9 60.6 C398.3 62.5 395.1 63.8 391.5 63.2 C387.9 62.6 383.6 57.7 383.5 49.2 z M385.6 46.7 C385.7 54.4 389.3 58.9 392.4 59.4 C395.4 59.9 398.1 58.8 399.5 57 C407.2 47.8 411.5 44.1 411.6 38.3 C410.8 34.4 408.4 30.5 405.4 23.3 C404.8 21.9 403.6 17.9 402.4 15 C401 11.5 400 9.5 399.5 8.6 C398.7 7 396.4 7.1 395.4 8.6 C394.4 10.1 388.4 17.6 386.9 25.1 C385.4 32.6 385.5 39 385.6 46.7 z" opacity="0.15" id="k1" /><path d="M389.4 55.7 C386 50.7 386.8 36.3 388 27.6 C389.1 18.8 394.3 14.6 395.6 13.2 C396.8 12.4 397.6 13.8 399.3 18 C400.2 20.3 401.4 25 402.7 27.6 C406.5 34.8 409.5 38.3 409.3 41.9 C409.1 46.8 405.3 47.1 401.3 53.4 C398.6 57.6 392.8 60.7 389.4 55.7 z" id="l1" fill="#BD8B6A" /></g></g><g transform="translate(191.4, 103.8) scale(0.8) translate(-191.4, -103.8) translate(-292.3, 48.59996) translate(101, 29) scale(-1, 1) translate(-101, -29) translate(85, 0)" id="m1"><g transform="translate(0.224296, 0)" id="n1"><path d="M-383.2 49.2 C-383.3 40.7 -383.3 33.7 -381.6 25.4 C-379.9 17.1 -372.8 9 -371.6 7.3 C-370.4 5.6 -367.7 5.5 -366.7 7.3 C-366.2 8.3 -365 10.6 -363.3 14.4 C-361.9 17.5 -360.5 22 -359.8 23.5 C-356.3 31.4 -353.4 35.7 -352.5 40 C-352.6 46.4 -357.7 50.5 -366.8 60.6 C-368.4 62.5 -371.6 63.8 -375.2 63.2 C-378.8 62.6 -383.1 57.7 -383.2 49.2 z" id="o1" fill="#806458" /><path d="M-383.2 49.2 C-383.3 40.7 -383.3 33.7 -381.6 25.4 C-379.9 17.1 -372.8 9 -371.6 7.3 C-370.4 5.6 -367.7 5.5 -366.7 7.3 C-366.2 8.3 -365 10.6 -363.3 14.4 C-361.9 17.5 -360.5 22 -359.8 23.5 C-356.3 31.4 -353.4 35.7 -352.5 40 C-352.6 46.4 -357.7 50.5 -366.8 60.6 C-368.4 62.5 -371.6 63.8 -375.2 63.2 C-378.8 62.6 -383.1 57.7 -383.2 49.2 z M-381.9 47 C-381.8 54.8 -378 59.2 -374.8 59.8 C-371.6 60.4 -368.8 59.2 -367.3 57.4 C-359.2 48.2 -354.7 44.4 -354.6 38.6 C-355.4 34.7 -358 30.7 -361.1 23.5 C-361.7 22.1 -363 18 -364.2 15.2 C-365.7 11.7 -366.8 9.6 -367.2 8.7 C-368.1 7.1 -370.5 7.1 -371.6 8.7 C-372.7 10.3 -379 17.6 -380.5 25.2 C-382 32.8 -382 39.2 -381.9 47 z" opacity="0.15" id="p1" /><path d="M-377.3 55.7 C-380.7 50.7 -379.9 36.3 -378.7 27.6 C-377.6 18.8 -372.4 14.6 -371.1 13.2 C-369.9 12.4 -369.1 13.8 -367.4 18 C-366.5 20.3 -365.3 25 -364 27.6 C-360.2 34.8 -357.2 38.3 -357.4 41.9 C-357.6 46.8 -361.4 47.1 -365.4 53.4 C-368.1 57.6 -373.9 60.7 -377.3 55.7 z" id="q1" fill="#BD8B6A" /></g></g><g transform="translate(110.6, 82.49997) translate(20, 9)" id="r1"><path d="M74.7 44.7 C74.7 30.9 75.3 23.9 72.1 17.8 C67.3 8.7 61.8 4.3 55.8 2.2 C49.8 0 42.4 1.2 39.1 1.2 C35.8 1.2 28.4 0.1 22.4 2.2 C16.4 4.4 10.9 8.8 6.1 17.8 C2.9 23.9 3.5 30.9 3.5 44.7 C-0.3 52.8 -0.7 59.7 2.5 66.7 C9.1 80.8 24.2 87.8 39.1 87.9 C54 87.8 69.2 80.8 75.7 66.7 C78.9 59.7 78.4 52.8 74.7 44.7 z" id="s1" fill="#D8B285" /><path d="M2.9 45.5 C5.3 47 8.4 48.4 9.6 48.5 C21.9 50 30.5 47.9 33.8 37.4 C35.8 30.7 31.9 20.5 34.6 10.7 C35.2 8.6 35.2 3.9 33.4 1 C30 0.9 25.9 1 22.2 2.3 C16.2 4.5 10.7 8.9 5.9 17.9 C2.8 24 3.3 31 3.3 44.8 C3.2 45 3.1 45.2 2.9 45.5 z" id="t1" fill="#BD8B6A" /><path d="M3.1 45.6 C3 45.6 3 45.5 2.9 45.5 C3.1 45.2 3.2 45 3.3 44.8 C3.3 31 2.8 24 5.9 17.9 C10 10.2 14.6 5.9 19.6 3.4 C20.5 2.9 21.5 2.5 22.4 2.2 C28.4 0.1 35.8 1.2 39.1 1.2 C42.4 1.2 49.8 0 55.8 2.2 C61.8 4.3 67.3 8.7 72.1 17.8 C75.3 23.9 74.7 30.9 74.7 44.7 C78.4 52.8 78.9 59.7 75.7 66.7 C69.2 80.8 54 87.8 39.1 87.9 C24.2 87.8 9.1 80.8 2.5 66.7 C-0.6 60 -0.3 53.3 3.1 45.6 z M5.6 43.7 C5.6 43.8 3 48.1 2.3 51.4 C1.2 56 1.6 61.4 3.4 65.2 C9.8 78.8 24.6 85.5 39.1 85.6 C53.6 85.5 68.5 78.8 74.8 65.2 C77.9 58.5 76.8 51.9 73.2 44.1 C73.2 30.8 74.4 24 71.3 18.1 C66.6 9.3 61.2 5.1 55.4 3.1 C49.5 1 42.3 2.1 39.1 2.1 C35.9 2.1 28.7 1.1 22.8 3.1 C21.9 3.4 21 3.8 20.1 4.2 C15.2 6.6 10.7 10.8 6.7 18.2 C3.7 24.1 5.6 30.4 5.6 43.7 z" opacity="0.15" id="u1" /></g><g transform="translate(169.6, 136) scale(1.1) translate(-169.6, -136)" id="v1"><g transform="translate(92.50001, 54.89997) translate(58, 69)" id="w1"><g transform="translate(0.270427, 0.292308)" id="x1"><path d="M3.7 28.7 C4.6 29.8 7 30.1 9.2 30.8 C12.2 31.7 15.4 32.7 18.9 32.5 C19 32.5 23.5 32 25 31.9 C29.3 31.4 32.9 31.1 34.5 28.7 C35.1 27.5 36.1 23.3 35.9 21.1 C35.8 19.9 34.2 18.2 33.3 17 C34.5 17.2 35.1 17.1 37 18.3 C36.5 17.1 34.6 14.3 33.6 13.5 C31.5 11.8 29.4 10.7 28.1 9.7 C29.3 9.6 29.8 9.9 31.4 10.2 C30.3 8.9 27.3 6.3 25.8 5.9 C27.1 5.7 27.1 5.7 28.1 5.9 C27 4.4 21.7 1.4 21.1 0.8 C21 0.7 21.1 1.7 22.1 3 C22.9 4 24.5 5 25.3 6.4 C24 5.8 22.7 5.4 21.5 5.2 C24.7 8.1 26.6 10 27.3 11 C25.8 10.5 23.7 9.7 21.8 9.7 C24.5 11 30.1 17 30 17 C28.9 16.3 27.7 15.1 25.8 14.4 C23.6 13.5 20.7 13 18.3 13 C17.5 13 14.9 13.2 13.5 13.5 C10.7 14 8.9 15 8.2 15.5 C9.6 13.7 13.4 10.8 15.8 9.5 C13.8 9.1 11.7 10.2 10.1 11.2 C11.5 9.8 14.7 6.6 16.3 5.1 C15.2 5.3 14.2 5.6 12.6 6.1 C14.6 3.9 16.5 2.3 16.6 2.1 C16.7 1.9 16.9 1.7 17.1 0.6 C15.4 1.9 9.5 5.7 7.5 7.9 C9.5 7.7 9.8 7.5 11 7.6 C9.9 8 7.4 9.8 6.5 10.5 C7.8 10.6 7.8 10.7 8.4 11.1 C7.4 11.4 5.6 12.3 3.6 14 C2.2 15.2 1.2 17.6 0.9 18.2 C2.8 17.5 3 17.2 4.1 16.7 C3.8 17.4 2.5 18.4 2.4 19.6 C2.1 21.4 3 27.8 3.7 28.7 z" id="y1" fill="#806457" /><path d="M3.7 28.7 C3 27.8 2.1 21.4 2.4 19.6 C2.5 18.4 3.8 17.4 4.1 16.7 C3 17.2 2.8 17.5 0.9 18.2 C1.2 17.6 2.2 15.2 3.6 14 C5.6 12.3 7.4 11.4 8.4 11.1 C7.8 10.7 7.8 10.6 6.5 10.5 C7.4 9.8 9.9 8 11 7.6 C9.8 7.5 9.5 7.7 7.5 7.9 C9.5 5.7 15.4 1.9 17.1 0.6 C16.9 1.7 16.7 1.9 16.6 2.1 C16.5 2.3 14.6 3.9 12.6 6.1 C14.2 5.6 15.2 5.3 16.3 5.1 C14.7 6.6 11.5 9.8 10.1 11.2 C11.7 10.2 13.8 9.1 15.8 9.5 C13.4 10.8 9.6 13.7 8.2 15.5 C8.9 15 10.7 14 13.5 13.5 C14.9 13.2 17.5 13 18.3 13 C20.7 13 23.6 13.5 25.8 14.4 C27.7 15.1 28.9 16.3 30 17 C30.1 17 24.5 11 21.8 9.7 C23.7 9.7 25.8 10.5 27.3 11 C26.6 10 24.7 8.1 21.5 5.2 C22.7 5.4 24 5.8 25.3 6.4 C24.5 5 22.9 4 22.1 3 C21.1 1.7 21 0.7 21.1 0.8 C21.7 1.4 27 4.4 28.1 5.9 C27.1 5.7 27.1 5.7 25.8 5.9 C27.3 6.3 30.3 8.9 31.4 10.2 C29.8 9.9 29.3 9.6 28.1 9.7 C29.4 10.7 31.5 11.8 33.6 13.5 C34.6 14.3 36.5 17.1 37 18.3 C35.1 17.1 34.5 17.2 33.3 17 C34.2 18.2 35.8 19.9 35.9 21.1 C36.1 23.3 35.1 27.5 34.5 28.7 C32.9 31.1 29.3 31.4 25 31.9 C23.5 32 19 32.5 18.9 32.5 C15.4 32.7 12.2 31.7 9.2 30.8 C7 30.1 4.6 29.8 3.7 28.7 z M5.3 27.4 C6.1 28.4 8.2 28.7 10.2 29.3 C12.9 30.1 15.7 31 18.9 30.8 C19 30.8 23 30.4 24.4 30.3 C28.2 29.9 31.5 29.6 32.9 27.4 C33.4 26.3 35 23.6 34.9 21.7 C34.8 20.6 33.1 17.7 32.3 16.6 C33.1 16.5 34.2 16.2 35.9 17.2 C35.5 16.1 33.5 14.3 32.6 13.6 C30.7 12.1 28.3 10.1 27.1 9.2 C28.2 9.1 28.8 9.2 30.2 9.5 C29.7 8.9 28.7 8.2 27.6 7.5 C26.5 6.7 25.7 6.6 25.5 5.8 C26.1 5.5 26.6 5.2 27.1 5.3 C26.1 4 22.3 2.2 21.7 1.7 C21.6 1.6 23.1 2.8 24 3.9 C24.7 4.7 25.3 6.6 26.1 7.1 C24.9 6.6 23.7 5.7 22.6 5.6 C25.5 8.2 27.4 10.5 28 11.4 C26.7 11 24.8 10.1 23.1 10.1 C24 10.6 26 11.8 27.4 13.3 C29.6 15.5 31.3 18 31.3 18 C30.3 17.4 26.7 15.1 25 14.5 C23 13.7 20.4 13.2 18.3 13.2 C17.6 13.2 15.3 13.4 14 13.6 C11.5 14 8.1 16.1 7 16.3 C8 14 11.8 10.9 13.9 9.8 C12.1 9.4 10.7 10.6 9.3 11.5 C10.6 10.2 13.8 6.8 15.2 5.4 C14.2 5.6 13.1 5.7 11.7 6.2 C13.5 4.2 14.2 3.7 14.3 3.5 C14.4 3.3 16.2 2.2 16.4 1.3 C14.9 2.5 10.7 5 8.9 7 C10.7 6.8 10.9 6.9 12 7 C11 7.4 8.8 9.2 8 9.8 C9.2 9.9 9 10.3 9.5 10.6 C8.6 10.9 7.2 11.8 5.4 13.3 C4.1 14.4 2.9 16.2 2.6 16.7 C4.3 16.1 4.4 15.8 5.4 15.4 C5.1 16 4.1 18.4 4 19.5 C3.7 21.3 4.7 26.6 5.3 27.4 z" opacity="0.15" id="z1" /></g></g><g transform="translate(169.5, 158.4) scale(0.9) translate(-169.5, -161.4) translate(91.7, 79.29996) translate(65, 74)" id="a2"><path d="M3.6 16.5 C6.8 15.9 8.5 14.5 9.9 13.4 C10.8 12.7 11.8 11.8 12.8 10.6 C14.1 12.2 15 13.2 15.6 13.6 C16.4 14.3 18.8 15.8 20.3 16.4 C21.8 17 25.7 17.3 25.7 16.7 C25.7 16.1 21.2 15.4 19.6 14.2 C18 13 16.4 12 15.3 10.5 C14.3 9.1 14.7 8.1 14.6 6.5 C14.5 4.5 14.8 2.3 14.9 0.8 C15 -1.2 11.7 -0.6 11.7 0.8 C11.7 2.2 11.7 4.3 11.7 6.1 C11.7 7.9 11 10.1 9.6 11.3 C8.2 12.5 6.3 14 4.2 14.8 C2.9 15.3 0.2 15.9 0.3 16.5 C0.3 16.9 2.4 16.8 3.6 16.5 z" id="b2" fill="#282421" /></g><g transform="translate(169.6, 145) scale(0.8) translate(-169.6, -145) translate(86.59999, 83.19997) translate(71, 50)" id="c2"><g id="d2"><path d="M11.7 0.2 C15.7 0.2 21.4 1.3 22.6 4.5 C23.8 7.8 22.3 11.1 19.9 13.8 C17.5 16.5 17 18.4 12 18.4 C7 18.4 6.6 17.5 4.1 13.9 C1.6 10.3 0.1 7.6 1.5 4.5 C2.9 1.4 7.7 0.2 11.7 0.2 z" id="e2" /><path d="M12.5 5 C16.3 7.4 19 4.3 19 3.5 C19 2.7 16.1 2 12.5 2 C8.9 2 6 2.7 6 3.5 C6 4.3 8.7 2.6 12.5 5 z" id="f2" fill="#FFF" /></g></g><g transform="translate(103.4, 60.69997) translate(44, 47)" id="g2"><g id="h2"><path d="M13 12.1 C10.4 11.1 7.2 11.3 4.8 12.7 C3.7 13.3 1.5 14.8 0.7 15.8 C-0.6 17.3 0.1 19.9 1.3 21.5 C2.5 23.1 4.3 24.2 6.3 24.5 C8.3 24.8 10.3 24.5 12.2 23.7 C14.5 22.8 16.7 21.1 17.2 18.6 C17.7 15.9 15.6 13.1 13 12.1 z" id="i2" fill="#474B4F" /><path d="M14.5 17.3 C14.2 16 13.5 13 10.2 13 C6.9 13 3.3 16.7 2 17.7 C2.7 19.6 5.4 21.2 7.8 21.5 C11.2 21.9 13.5 20.7 14.5 17.3 z" id="j2" fill="#282421" /><path d="M9.3 5.1 C8.7 4.7 8.1 4.2 7.9 3.5 C7.8 2.9 8.1 2.2 8.6 1.8 C10.3 0.1 12.2 0.2 13.1 0.1 C16.2 -0.1 16.9 2.6 16.4 5.2 C15.5 10.3 12.1 7 9.3 5.1 z" id="k2" fill="#81665B" /><path d="M9.8 14.4 C9.4 14.3 7.5 14.9 7 15.2 C6.5 15.6 6.2 16.2 6.5 16.8 C6.7 17.3 7.3 17.5 7.9 17.4 C8.4 17.3 8.9 17.1 9.4 16.8 C10 16.4 10.8 15.9 10.7 15.2 C10.5 14.8 10.2 14.5 9.8 14.4 z" id="l2" fill="#F5FAFC" /></g></g><g transform="translate(102.8, 60.69997) translate(72, 47)" id="m2"><g id="n2"><path d="M5 12.1 C7.6 11.1 10.8 11.3 13.2 12.7 C14.3 13.3 16.5 14.8 17.3 15.8 C18.6 17.3 17.9 19.9 16.7 21.5 C15.5 23.1 13.7 24.2 11.7 24.5 C9.7 24.8 7.7 24.5 5.8 23.7 C3.5 22.8 1.3 21.1 0.8 18.6 C0.3 15.9 2.4 13.1 5 12.1 z" id="o2" fill="#474B4F" /><path d="M3.5 17.3 C3.8 16 4.5 13 7.8 13 C11.1 13 14.7 16.7 16 17.7 C15.3 19.6 12.6 21.2 10.2 21.5 C6.8 21.9 4.5 20.7 3.5 17.3 z" id="p2" fill="#282421" /><path d="M10.4 15.2 C10.1 14.9 8.4 14.3 7.8 14.3 C7.2 14.3 6.6 14.6 6.5 15.2 C6.4 15.7 6.7 16.2 7.2 16.4 C7.6 16.7 8.1 16.7 8.6 16.8 C9.3 16.9 10.1 16.9 10.5 16.3 C10.7 15.9 10.7 15.5 10.4 15.2 z" id="q2" fill="#F5FAFC" /><path d="M8.7 5.1 C9.3 4.7 9.9 4.2 10.1 3.5 C10.2 2.9 9.9 2.2 9.4 1.8 C7.7 0.1 5.8 0.2 4.9 0.1 C1.8 -0.1 1.1 2.6 1.6 5.2 C2.5 10.3 5.9 7 8.7 5.1 z" id="r2" fill="#81665B" /></g></g></g></g></g></g><defs><g transform="translate(17.09519, 0.800995) translate(-135.2952, -293.601)" id="s2" fill="#000"><path d="M118.2 302.7 C118.4 307.4 132.5 311.2 149.8 311.2 C167.1 311.2 181.2 307.4 181.4 302.7 C181.4 307.5 181.4 310.1 181.4 310.5 C181.4 315.3 167.3 319.1 149.8 319.1 C132.3 319.1 118.2 315.2 118.2 310.5 L118.2 302.7 L118.2 302.7 z" fill-opacity="0.4528" id="t2" fill="#593001" /><path d="M118.7 301.7 C118.9 306.4 133 310.2 150.3 310.2 C167.6 310.2 181.7 306.4 181.9 301.7 C181.9 306.5 181.9 309.1 181.9 309.5 C181.9 314.3 167.8 318.1 150.3 318.1 C132.8 318.1 118.7 314.2 118.7 309.5 L118.7 301.7 L118.7 301.7 z" id="u2" fill="#DA8113" /><linearGradient x1="46.0545" y1="-118.6926" x2="45.4656" y2="-118.6926" gradientUnits="userSpaceOnUse" gradientTransform="matrix(117.135, 0, 0, 28.4634, -5208.417, 3687.795)" id="v2"><stop offset="0%" stop-color="#D9952A" stop-opacity="1" /><stop offset="6.438854%" stop-color="#CA7519" stop-opacity="1" /><stop offset="30.54%" stop-color="#E3AD3A" stop-opacity="1" /><stop offset="51.05%" stop-color="#FFEC91" stop-opacity="1" /><stop offset="68.8%" stop-color="#E9BD44" stop-opacity="1" /><stop offset="86.24%" stop-color="#FFED6C" stop-opacity="1" /><stop offset="93.87%" stop-color="#F2D353" stop-opacity="1" /><stop offset="100%" stop-color="#F2B947" stop-opacity="1" /></linearGradient><path d="M118.2 301.6 C118.4 306.1 132.7 309.7 150.3 309.7 C167.9 309.7 182.2 306.1 182.4 301.6 C182.4 306.2 182.4 308.7 182.4 309 C182.4 313.5 168 317.2 150.3 317.2 C132.6 317.2 118.2 313.5 118.2 309 L118.2 301.6 L118.2 301.6 z" id="w2" style="fill:url(#v2)" /><linearGradient x1="45.4914" y1="-117.9547" x2="45.9407" y2="-117.5895" gradientUnits="userSpaceOnUse" gradientTransform="matrix(115.425, 0, 0, 29.925, -5125.077, 3826.124)" id="x2"><stop offset="0%" stop-color="#F4E072" stop-opacity="1" /><stop offset="100%" stop-color="#DB9427" stop-opacity="1" /></linearGradient><ellipse cx="150.3" cy="301.5" rx="31.6" ry="8.2" id="y2" style="fill:url(#x2)" /><linearGradient x1="45.4656" y1="-126.0065" x2="46.0545" y2="-126.0065" gradientUnits="userSpaceOnUse" gradientTransform="matrix(117.135, 0, 0, 18.6219, -5208.417, 2651.479)" id="z2"><stop offset="0%" stop-color="#D9952A" stop-opacity="1" /><stop offset="6.438854%" stop-color="#CA7519" stop-opacity="1" /><stop offset="30.54%" stop-color="#E3AD3A" stop-opacity="1" /><stop offset="51.05%" stop-color="#FFEC91" stop-opacity="1" /><stop offset="68.8%" stop-color="#E9BD44" stop-opacity="1" /><stop offset="86.24%" stop-color="#FFED6C" stop-opacity="1" /><stop offset="93.87%" stop-color="#F2D353" stop-opacity="1" /><stop offset="100%" stop-color="#F2B947" stop-opacity="1" /></linearGradient><path d="M119.2 299.9 C119 300.2 118.9 300.6 118.9 301 C118.9 305.5 132.9 309.2 150.3 309.2 C167.7 309.2 181.7 305.5 181.7 301 C181.7 300.6 181.6 300.3 181.4 299.9 C182 300.5 182.4 301.2 182.4 301.9 C182.4 306.4 168 310.1 150.3 310.1 C132.6 310.1 118.2 306.4 118.2 301.9 C118.2 301.3 118.6 300.6 119.2 299.9 z" id="a3" style="fill:url(#z2)" /><linearGradient x1="45.196" y1="-121.5895" x2="45.3746" y2="-120.6758" gradientUnits="userSpaceOnUse" gradientTransform="matrix(101.745, 0, 0, 23.94, -4458.332, 3199.41)" id="b3"><stop offset="0%" stop-color="#F8DD61" stop-opacity="1" /><stop offset="100%" stop-color="#EAA330" stop-opacity="1" /></linearGradient><ellipse cx="150.3" cy="300.8" rx="27.8" ry="6.6" id="c3" style="fill:url(#b3)" /><linearGradient x1="45.5694" y1="-134.267" x2="45.0221" y2="-134.267" gradientUnits="userSpaceOnUse" gradientTransform="matrix(101.745, 0, 0, 13.2525, -4458.332, 2077.223)" id="d3"><stop offset="0%" stop-color="#F4CA2F" stop-opacity="1" /><stop offset="51.38%" stop-color="#BF7737" stop-opacity="1" /><stop offset="100%" stop-color="#E4A929" stop-opacity="1" /></linearGradient><path d="M122.6 301.5 C122.5 301.3 122.4 301 122.4 300.8 C122.4 297.2 134.9 294.2 150.2 294.2 C165.5 294.2 178 297.1 178 300.8 C178 301 177.9 301.3 177.8 301.5 C176.3 298.2 164.5 295.6 150.1 295.6 C135.7 295.6 124.1 298.2 122.6 301.5 z" id="e3" style="fill:url(#d3)" /></g></defs><desc>B22BN4L68J2,OV5A0hw1dtAUa4uGmB892C1eY4Y5urNdntaVqMquhAlFW3EXO0tTy1osKUjoaiY7q4I7f8yE74x3JaNfRPi7aw2qBrRBVg+6w5/zKHSjSPAoMUclEJ6olwl/8fsE3REn</desc></svg>