<?xml version="1.0" encoding="utf-8"?><!DOCTYPE svg PUBLIC "-//W3C//DTD SVG 1.1//EN" "http://www.w3.org/Graphics/SVG/1.1/DTD/svg11.dtd"><svg x="0" y="0" width="340px" height="340px" viewBox="0, 0, 340, 340" preserveAspectRatio="xMidYMid" font-size="0" id="a" enable-background="new 0 0 340 340" xmlns="http://www.w3.org/2000/svg" xmlns:xlink="http://www.w3.org/1999/xlink" xmlns:xml="http://www.w3.org/XML/1998/namespace" version="1.1"><g id="b" fill="#000"><g id="c"><g transform="translate(0, 0) translate(0, 224)" id="d"><ellipse cx="168.6" cy="53.1" rx="57.8" ry="12.8" fill-opacity="0.25" id="e" /></g><g id="f"><g transform="translate(112.9, 101.4) translate(16.5, 128.5) scale(-1, 1) translate(-16.5, -128.5) translate(6, 115)" id="g"><g id="h" fill="#342520"><path d="M15.1 3.5 C17 0.9 18.1 -0.5 19.6 0.1 C21 0.7 21 2.3 20.4 4.9 C18.8 11.3 13.3 23 7.5 26 C3.3 28.2 -1.9 24.1 0.7 21.3 C5.9 15.6 10.5 9.7 15.1 3.5 z" id="i" /></g></g><g transform="translate(127.5, 273.3) scale(1.454724) translate(-127.5, -273.3) translate(105.4, 105.4) translate(19, 122)" id="j"><path d="M10.2 35.9 C7.6 30.9 3.1 24.7 2.4 19.1 C2 15.7 2.2 11.1 3.8 8.1 C5.7 4.4 16.5 -0.9 23.4 1.2 C30.3 3.2 32.3 18.7 26 30.3 C23 35.9 24.7 39.9 24.7 43 C24.7 45.8 22.5 47.5 20.2 48.1 C15.2 49.3 8.9 49.1 6.6 48.4 C6.3 48.3 6 48.2 5.7 48.1 C2.5 46.6 9.8 35.9 10.2 35.9 z" id="k" fill="#B09082" /><path d="M5.5 38.2 C7.8 36.8 9.4 35.3 10.1 35.4 C10.9 38.5 20.1 38.3 24.3 37 C24.3 39.4 25 40.1 25 41.8 C25 44.6 26.3 44.9 23.2 46.9 C20.3 48.8 10.5 49.6 7.9 49.5 C5.3 49.4 1.9 49.9 1.1 48.1 C0.5 46.7 0.3 44.2 0.9 42.8 C1.8 40.5 3.1 39.5 5.5 38.2 z" id="l" fill="#7B4C3A" /><path d="M9.9 35.4 C7.3 30.5 3 24.5 2.4 19.1 C2 15.7 2.2 11.1 3.8 8.1 C5.7 4.4 16.5 -0.9 23.4 1.2 C30.3 3.2 32.3 18.7 26 30.3 C24.6 32.9 24.2 35.1 24.2 37 C24.2 37 24.3 37 24.3 37 C24.3 39.4 25 40.1 25 41.8 C25 44.6 26.3 44.9 23.2 46.9 C22.7 47.2 22 47.5 21.1 47.8 C20.8 47.9 20.5 48 20.2 48.1 C19.6 48.2 19 48.4 18.4 48.5 C14.5 49.3 9.6 49.6 7.9 49.5 C5.3 49.4 1.9 49.9 1.1 48.1 C0.5 46.7 0.3 44.2 0.9 42.8 C1.8 40.5 3.1 39.5 5.5 38.2 C7.6 36.9 9.2 35.5 9.9 35.4 z M2.9 18.4 C3.3 21.7 6.6 27.6 12.8 35.9 C12.1 36 9.6 36.9 7.7 38.1 C5.5 39.3 3.2 40.3 2.4 42.4 C1.9 43.7 1.9 44.4 2.4 45.7 C3.1 47.4 6.2 46.9 8.6 47 C10.2 47.1 14.6 46.8 18.2 46 C18.8 45.9 19.3 45.8 19.8 45.7 C20.1 45.6 20.4 45.5 20.6 45.4 C21.4 45.2 22 44.9 22.5 44.6 C25.3 42.7 22.7 38.1 22.7 35.9 C22.7 35.9 23.8 31.6 25.1 29.2 C30.8 18.5 29 4.2 22.7 2.3 C16.4 0.4 6.2 4.8 4.4 8.2 C3 11 2.5 15.2 2.9 18.4 z" opacity="0.15" id="m" /></g><g transform="translate(212.4, 273.3) scale(1.454724) translate(-212.4, -273.3) translate(112.9, 105.4) translate(88, 147) scale(-1, 1) translate(-88, -147) translate(73, 122)" id="n"><path d="M10.2 35.9 C7.6 30.9 3.1 24.7 2.4 19.1 C2 15.7 2.2 11.1 3.8 8.1 C5.7 4.4 16.5 -0.9 23.4 1.2 C30.3 3.2 32.3 18.7 26 30.3 C23 35.9 24.7 39.9 24.7 43 C24.7 45.8 22.2 47 19.9 47.6 C14.9 48.8 8.9 49.1 6.6 48.4 C6.3 48.3 6 48.2 5.7 48.1 C2.5 46.6 9.8 35.9 10.2 35.9 z" id="o" fill="#B09082" /><path d="M5.5 38.2 C7.8 36.8 9.4 35.3 10.1 35.4 C10.9 38.5 20.1 38.3 24.3 37 C24.3 39.4 24.8 39.6 24.8 41.3 C24.8 44.1 26.3 44.7 23.3 46.6 C20.4 48.5 10.5 49.5 8 49.4 C5.5 49.3 2 49.8 1.2 48 C0.6 46.6 0.4 44.1 1 42.7 C1.8 40.5 3.1 39.5 5.5 38.2 z" id="p" fill="#7B4C3A" /><path d="M9.9 35.4 C7.3 30.5 3 24.5 2.4 19.1 C2 15.7 2.2 11.1 3.8 8.1 C5.7 4.4 16.5 -0.9 23.4 1.2 C30.3 3.2 32.3 18.7 26 30.3 C24.6 32.9 24.2 35.1 24.2 37 C24.2 37 24.3 37 24.3 37 C24.3 39.4 24.8 39.6 24.8 41.3 C24.8 44.1 26.3 44.7 23.3 46.6 C20.4 48.5 10.5 49.5 8 49.4 C5.5 49.3 2 49.8 1.2 48 C0.6 46.6 0.4 44.1 1 42.7 C1.8 40.5 3.1 39.5 5.5 38.2 C7.6 36.9 9.2 35.5 9.9 35.4 z M2.9 18 C3.3 21.4 6.3 27.4 11.9 36.1 C11.2 36.2 8.8 37.3 6.9 38.5 C4.7 39.7 2.9 40 2.2 42.1 C1.6 43.4 1.9 44.4 2.4 45.7 C3.1 47.4 6.4 46.9 8.6 47 C10.9 47.1 19.2 46.5 21.8 44.7 C23.4 43.7 22.6 39.9 22.9 36 C23.1 33.1 24.5 30 25.1 29 C30.9 18.1 29.1 3.6 22.7 1.7 C16.4 -0.3 6.4 4.3 4.7 7.8 C3.2 10.7 2.5 14.8 2.9 18 z" opacity="0.15" id="q" /></g><g transform="translate(90.90001, 84.79997) translate(37, 51)" id="r"><g transform="translate(3, 0)" id="s"><path d="M61.7 20.1 C61.7 36.4 64.4 34.7 66.1 39.3 C67.8 43.9 74.7 53 76 65.8 C77.3 78.6 76.6 92.6 72.6 104.3 C68.6 116 71.5 137.3 61.8 140 C61.5 140.1 29.8 143.1 18 140 C5.8 136.8 11.8 123.7 6.4 106.4 C1 89.1 0.1 80.3 0.4 65.8 C0.7 51.3 10.7 44.1 12.5 39.2 C14.3 34.3 16.6 32.5 16.6 20 C16.6 7.5 24.6 0.5 42.2 1 C47.5 1.2 61.7 3.7 61.7 20.1 z" id="t" fill="#D8C6BA" /><path d="M61.7 20.1 C61.7 36.4 64.4 34.7 66.1 39.3 C67.8 43.9 74.7 53 76 65.8 C77.3 78.6 76.6 92.6 72.6 104.3 C68.6 116 71.5 137.3 61.8 140 C61.5 140.1 29.8 143.1 18 140 C5.8 136.8 11.8 123.7 6.4 106.4 C1 89.1 0.1 80.3 0.4 65.8 C0.7 51.3 10.7 44.1 12.5 39.2 C14.3 34.3 16.6 32.5 16.6 20 C16.6 7.5 24.6 0.5 42.2 1 C47.5 1.2 61.7 3.7 61.7 20.1 z M61.2 20.2 C61.2 4.2 47.3 1.7 42.1 1.5 C24.9 1 17.1 7.9 17.1 20.1 C17.1 32.3 14.8 34.1 13.1 38.9 C11.4 43.7 1.5 50.7 1.2 64.9 C0.9 79.1 2.8 88.3 8.1 105.2 C13.4 122.1 6.5 134.3 18.4 137.5 C29.9 140.5 61 137.6 61.3 137.5 C70.8 134.9 67 114.3 70.9 102.9 C74.8 91.5 76.5 77.5 75.2 64.9 C73.9 52.4 67.2 43.5 65.5 39 C63.8 34.5 61.2 36.1 61.2 20.2 z" opacity="0.15" id="u" /></g></g><g transform="translate(136.21, 209.2) scale(1.1, 1.582803) translate(-139.2, -208.3) translate(105.1, 87.89996) translate(36, 120)" id="v"><path d="M2.2 7 L5.9 20.3 L5.9 26.3 C6.1 31.5 6.1 35 5.9 36.7 C5.7 38.4 3.1 38.6 2.2 39.5 C1.6 40.2 0.5 43.2 0.5 44.9 C0.5 47.5 9.2 46.7 10.6 46.8 C15.1 47.2 17.6 45.1 17.7 44.4 C17.8 43.7 16.2 39.5 18.4 28.3 C18.9 25.8 21.4 18.4 22.1 15.8 C24.1 9 21.5 3.2 16.4 2.3 C13.3 0.5 9.9 0.9 5.7 0.9 C1.7 0.8 9.2 6.8 2.2 7 z" id="w" fill="#FAF4E8" /><path d="M4.1 0.7 C-1.9 0.9 1.8 10.5 4.1 17.4 C7.5 28 5.6 38.2 6.8 40.3 C8 42.4 13.8 37 13.8 33.8 C13.8 30.5 12.4 25.1 12.7 19.1 C13 13.9 16 10.3 13.8 5.3 C12.2 1.8 6.6 0.6 4.1 0.7 z" id="x" fill="#7B4C3A" /><path d="M16.4 2.3 C21.5 3.2 24.1 9 22.1 15.8 C21.4 18.4 18.9 25.8 18.4 28.3 C16.2 39.5 17.8 43.7 17.7 44.4 C17.6 45.1 15.1 47.2 10.6 46.8 C9.2 46.7 0.5 47.5 0.5 44.9 C0.5 43.2 1.6 40.2 2.2 39.5 C3.1 38.6 5.7 38.4 5.9 36.7 C6.1 35 6.1 31.5 5.9 26.3 L5.9 26.1 C5.6 23.3 5.1 20.4 4.1 17.4 C1.8 10.5 -1.9 0.9 4.1 0.7 C4.7 0.7 5.6 0.7 6.5 0.9 C10.3 0.9 13.5 0.6 16.4 2.3 z M16.1 3.8 C13.4 2.2 10.5 2.5 6.9 2.5 C6 2.4 5.2 2.3 4.6 2.4 C-0.9 2.5 2.8 10.9 5 17.3 C5.9 20.1 6.5 21.6 6.7 26.4 C6.9 31.2 6.5 36 6.3 37.6 C6.1 39.2 3.9 39.2 3.1 40.1 C2.5 40.7 1.7 41.4 1.7 43 C1.7 45.4 9.4 45.1 10.7 45.2 C14.9 45.6 16 43.3 16.1 42.6 C16.2 42 14.7 38.7 16.8 28.3 C17.3 26 20.8 18.8 21.4 16.4 C23.2 10.1 20.8 4.7 16.1 3.8 z" opacity="0.15" id="y" /><path d="M53.8 7 L50.1 20.3 L50.1 26.3 C49.9 31.5 49.9 35 50.1 36.7 C50.3 38.4 52.9 38.6 53.8 39.5 C54.4 40.2 55.5 43.2 55.5 44.9 C55.5 47.5 46.8 46.7 45.4 46.8 C40.9 47.2 38.4 45.1 38.3 44.4 C38.2 43.7 39.8 39.5 37.6 28.3 C37.1 25.8 34.6 18.4 33.9 15.8 C32.4 9.7 35.5 4.6 39.6 2.3 C42.7 0.5 46.1 0.9 50.3 0.9 C54.3 0.8 46.8 6.8 53.8 7 z" id="z" fill="#FAF4E8" /><path d="M51.9 0.7 C57.9 0.9 54.2 10.5 51.9 17.4 C48.5 28 50.4 35.7 50.4 38 C50.4 40.3 42.2 36.1 42.2 32.9 C42.2 29.6 43.6 25.1 43.3 19.1 C43 13.9 40 10.3 42.2 5.3 C43.8 1.8 49.4 0.6 51.9 0.7 z" id="a1" fill="#7B4C3A" /><path d="M50.1 25.9 L50.1 26.3 C50 28.9 49.9 31.1 50 32.8 C50.1 34.8 50.3 36.4 50.4 37.4 C51.1 38.5 53.1 38.7 53.8 39.5 C54.4 40.2 55.5 43.2 55.5 44.9 C55.5 47.5 46.8 46.7 45.4 46.8 C40.9 47.2 38.4 45.1 38.3 44.4 C38.2 43.7 39.8 39.5 37.6 28.3 C37.1 25.8 34.6 18.4 33.9 15.8 C32.4 9.7 35.5 4.6 39.6 2.3 C42.5 0.6 45.7 0.9 49.5 0.9 C50.4 0.7 51.3 0.7 51.9 0.7 C57.9 0.9 54.2 10.5 51.9 17.4 C50.9 20.5 50.4 23.3 50.1 25.9 z M48.9 32 C48.9 30.9 49 28.9 49.2 25.8 C49.5 23.4 50.6 19.3 51.6 16.4 C53.7 10 57.1 2.4 51.5 2.2 C50.9 2.2 50.1 2.2 49.3 2.4 C45.7 2.4 42.8 2.1 40.1 3.7 C36.3 5.8 33.4 10.6 34.8 16.3 C35.5 18.7 38.9 26.1 39.4 28.4 C41.4 38.8 39.3 42.5 39.4 43.1 C39.5 43.7 41.3 45.5 45.5 45.1 C46.8 45 54.9 45.8 54.9 43.3 C54.9 41.7 53.8 40.5 53.3 39.8 C52.6 39.1 50.3 38.7 49.6 37.7 C49.3 36.9 49 33.9 48.9 32 z" opacity="0.15" id="b1" /></g></g><g transform="translate(169.6, 188) scale(0.9999998) translate(-169.6, -188)" id="c1"><g transform="translate(104.1, 101.3) translate(25, 0)" id="d1"><path d="M79.4 51 C77.8 37 79 20.9 75.8 15.2 C73.5 11 65.6 1.5 58.8 0.7 C51.9 -0.1 46.6 1.1 40.3 1.1 C34 1.1 28.8 -0.1 21.9 0.7 C15.1 1.5 7.3 11 4.9 15.2 C1.7 20.9 3 37 1.3 51 C0.1 61.5 0 70 2.4 73.7 C11.3 87.6 26.3 89.7 40.3 89.8 C54.3 89.7 69.2 87.6 78.1 73.7 C80.7 70 80.7 61.5 79.4 51 z" id="e1" fill="#7B4C3A" /><path d="M79.4 67.2 C78 66 75.4 69.2 72.6 70 C70 71.2 60.8 76.4 54 76.8 C47.7 77.2 36.2 77.4 27.4 76.3 C16.6 74.9 9.1 70.2 8.2 69.9 C5.4 69.2 2.8 66 1.4 67.1 C1.3 67.2 1.2 67.3 1.1 67.5 C1.2 70.1 1.6 72.3 2.5 73.7 C6.1 79.3 10.4 83.8 15.8 85.4 C17.9 86 23.7 88.9 32.2 89.8 C39.3 90.6 44.3 90.1 50.5 89.3 C53.1 88.9 60.7 87.5 65 85.5 C69.6 83.3 74.7 79.4 78.3 73.8 C79.2 72.4 79.6 70.3 79.7 67.6 C79.7 67.4 79.5 67.3 79.4 67.2 z" id="f1" fill="#342520" /><path d="M79.4 51 C80.7 61.5 80.7 70 78.1 73.7 C69.2 87.6 54.3 89.7 40.3 89.8 C26.3 89.7 11.3 87.6 2.4 73.7 C0 70 0.1 61.5 1.3 51 C3 37 1.7 20.9 4.9 15.2 C7.3 11 15.1 1.5 21.9 0.7 C28.8 -0.1 34 1.1 40.3 1.1 C46.6 1.1 51.9 -0.1 58.8 0.7 C65.6 1.5 73.5 11 75.8 15.2 C79 20.9 77.8 37 79.4 51 z M77.8 49.8 C76.3 36.3 77.5 20.9 74.4 15.4 C72.2 11.4 64.6 2.2 58.1 1.5 C51.4 0.7 46.4 1.9 40.3 1.9 C34.3 1.9 29.3 0.7 22.6 1.5 C16.1 2.2 8.6 11.4 6.3 15.4 C3.2 20.9 4.5 36.3 2.9 49.8 C1.7 59.8 1.6 68 3.9 71.6 C12.5 84.9 26.9 86.9 40.3 87 C53.7 86.9 68 84.9 76.6 71.6 C79.1 68 79.1 59.8 77.8 49.8 z" opacity="0.15" id="g1" /></g><g transform="translate(97.8, 76.39996) translate(21, 2)" id="h1"><g transform="translate(18.02073, 23.28844) scale(-1, 1) rotate(-6, 0, 0) translate(-18.02073, -23.28844) translate(2.520727, 1.788439)" id="i1"><path d="M1.7 25.8 C-1.9 23.8 -2.7 23.7 -1.4 20.5 C-0.1 17.3 2.4 17.8 5 15.3 C7.6 12.8 13.5 8.6 17.4 6.7 C21.3 4.8 23.7 2.5 25.7 4.7 C27.7 6.9 29.1 12.8 28 18.9 C26.9 25 23.5 30.4 23.1 33.3 C22.7 36.2 21.9 40.6 20.2 42.9 C19.7 43.6 18.2 45.3 17.3 45.8 C15.4 46.7 14 44.9 12.6 41.3 C12.3 40.4 10.5 34.3 8.6 32.4 C6.3 29.9 5.4 27.8 1.7 25.8 z" id="j1" fill="#342520" /><path d="M1.7 25.8 C-1.9 23.8 -2.7 23.7 -1.4 20.5 C-0.1 17.3 2.4 17.8 5 15.3 C7.6 12.8 13.5 8.6 17.4 6.7 C21.3 4.8 23.7 2.5 25.7 4.7 C27.7 6.9 29.1 12.8 28 18.9 C26.9 25 23.5 30.4 23.1 33.3 C22.7 36.2 21.9 40.6 20.2 42.9 C19.7 43.6 18.2 45.3 17.3 45.8 C15.4 46.7 14 44.9 12.6 41.3 C12.3 40.4 10.5 34.3 8.6 32.4 C6.3 29.9 5.4 27.8 1.7 25.8 z M3.9 24.6 C7.2 26.4 8 28.3 10 30.5 C11.7 32.2 13.3 37.7 13.6 38.5 C14.8 41.7 16.1 43.4 17.8 42.5 C18.6 42.1 19.9 40.5 20.4 39.9 C21.9 37.8 22.6 33.9 23 31.3 C23.4 28.7 26.4 23.8 27.4 18.3 C28.4 12.8 27.1 7.5 25.4 5.5 C23.6 3.5 21.5 5.6 18 7.3 C14.5 9 9.3 12.8 6.9 15 C4.5 17.2 2.4 16.8 1.2 19.7 C0 22.6 0.7 22.8 3.9 24.6 z" opacity="0.15" id="k1" /><path d="M5.7 24.6 C3.7 23.6 2.3 23 3.3 20.4 C3.9 18.9 7.5 16.8 10.9 14.2 C13.3 12.3 16.2 10.3 18 9.3 C20.6 7.8 21.8 6.3 23.5 7.6 C25.1 8.9 26.5 14.5 25.7 19.2 C24.9 24 20 35.8 18.7 37.6 C17.4 39.4 16.1 42.4 14.5 38.2 C12.9 34 12.6 31.4 10.9 29.6 C9.2 27.8 7.7 25.6 5.7 24.6 z" id="l1" fill="#7B4C3A" /><path d="M8.2 26.4 C8.3 25.4 9.1 23.7 9.3 23.3 C9.6 22.7 12.3 21.1 14.6 19.7 C15.6 19 18.6 17.4 18.6 17.4 C20.2 16.5 20.1 19.9 18.6 22.6 C17.7 24.2 15.1 29.9 13.3 31.6 C12.7 32.2 12.2 31.1 11 29.5 C9.9 28.1 8.1 26.8 8.2 26.4 z" opacity="0.5" id="m1" fill="#342520" /></g></g><g transform="translate(97.09998, 76.39996) translate(100.9, 24.5) scale(-1, 1) translate(-100.9, -24.5) translate(82.40002, 0)" id="n1"><g transform="translate(18.19189, 24.4854) scale(-1, 1) rotate(-7, 0, 0) translate(-18.19189, -24.4854) translate(2.691893, 2.485396)" id="o1"><path d="M5.4 26.9 C1.8 24.9 1 24.8 2.3 21.6 C3.6 18.4 6.1 18.9 8.7 16.4 C11.3 13.9 17.2 9.7 21.1 7.8 C25 5.9 27.4 3.6 29.4 5.8 C31.4 8 32.8 14 31.7 20.1 C30.7 26.2 27.1 31.6 26.8 34.5 C26.4 37.4 25.6 41.8 23.9 44.1 C23.4 44.8 21.9 46.5 21 47 C19.1 47.9 18.5 47.3 17.1 43.7 C16.8 42.8 17 42 16.7 41.2 C15.3 37.5 14.2 35.4 12.3 33.5 C9.9 31.1 9 29 5.4 26.9 z" id="p1" fill="#342520" /><path d="M5.4 26.9 C1.8 24.9 1 24.8 2.3 21.6 C3.6 18.4 6.1 18.9 8.7 16.4 C11.3 13.9 17.2 9.7 21.1 7.8 C25 5.9 27.4 3.6 29.4 5.8 C31.4 8 32.8 14 31.7 20.1 C30.7 26.2 27.1 31.6 26.8 34.5 C26.4 37.4 25.6 41.8 23.9 44.1 C23.4 44.8 21.9 46.5 21 47 C19.1 47.9 18.5 47.3 17.1 43.7 C16.8 42.8 17 42 16.7 41.2 C15.3 37.5 14.2 35.4 12.3 33.5 C9.9 31.1 9 29 5.4 26.9 z M7.1 25.9 C10.4 27.8 11.2 29.8 13.4 32 C15.1 33.8 16.2 35.7 17.4 39.1 C17.7 39.8 17.5 40.6 17.8 41.4 C19.1 44.7 19.6 45.3 21.4 44.4 C22.2 43.9 23.6 42.4 24.1 41.7 C25.7 39.6 26.4 35.5 26.8 32.8 C27.1 30.1 30.4 25.1 31.3 19.5 C32.3 13.9 31 8.3 29.2 6.3 C27.4 4.3 25.2 6.4 21.6 8.1 C18 9.8 12.6 13.7 10.2 16 C7.8 18.3 5.5 17.8 4.3 20.8 C3.1 23.8 3.8 24.1 7.1 25.9 z" opacity="0.15" id="q1" /><path d="M9.4 25.7 C7.4 24.7 6 24.1 7 21.5 C7.6 20 11.2 17.9 14.6 15.3 C17 13.4 19.9 11.4 21.7 10.4 C24.3 8.9 25.5 7.4 27.2 8.7 C28.8 10 30.2 15.6 29.4 20.3 C28.6 25.1 23.7 36.9 22.4 38.7 C21.1 40.5 19.8 43.5 18.2 39.3 C16.6 35.1 16.3 32.5 14.6 30.7 C12.9 29 11.4 26.8 9.4 25.7 z" id="r1" fill="#7B4C3A" /><path d="M11.5 26.9 C11.6 25.9 12.8 24.9 13 24.5 C13.3 23.9 16 22.3 18.3 20.9 C19.3 20.2 22.3 18.6 22.3 18.6 C23.9 17.7 23.8 21.1 22.3 23.8 C21.4 25.4 18.8 31.1 17 32.8 C15.8 33.9 14.9 30.4 14.4 30.5 C13.3 28.9 11.4 27.8 11.5 26.9 z" opacity="0.5" id="s1" fill="#342520" /></g></g><g id="t1"><g transform="translate(103, 90.59998) translate(21, 46)" id="u1"><g transform="translate(0, 18)" id="v1"><path d="M10.2 45.1 C-3.3 37.9 0.5 36.4 0.5 32.5 C0.5 28.6 4.2 16.6 12.2 12 C20.1 7.3 38.5 0.7 39.6 0.3 C40.7 -0.1 57.5 -0.5 60 2 C62.6 4.4 71.8 6.8 77.1 11.7 C82.4 16.7 87 25.3 87.4 26.6 C87.8 27.9 88.3 32.6 85.5 37.2 C82.7 41.9 84.1 41.9 76.2 45.2 C66 49.6 23.7 52.3 10.2 45.1 z" id="w1" fill="#806456" /><path d="M10.2 45.1 C-3.3 37.9 0.5 36.4 0.5 32.5 C0.5 28.6 4.2 16.6 12.2 12 C20.1 7.3 38.5 0.7 39.6 0.3 C40.7 -0.1 57.5 -0.5 60 2 C62.6 4.4 71.8 6.8 77.1 11.7 C82.4 16.7 87 25.3 87.4 26.6 C87.8 27.9 88.3 32.6 85.5 37.2 C82.7 41.9 84.1 41.9 76.2 45.2 C66 49.6 23.7 52.3 10.2 45.1 z M12.9 42.5 C25.3 49.1 64.2 46.6 73.6 42.6 C80.9 39.6 79.6 39.6 82.1 35.2 C84.7 31 84.2 26.7 83.8 25.5 C83.4 24.3 79.2 16.4 74.3 11.8 C69.5 7.3 61.1 5 58.7 2.8 C56.4 0.5 41 0.9 39.9 1.3 C38.9 1.6 22 7.7 14.8 12 C7.4 16.3 4 27.3 4 30.9 C4 34.5 0.5 35.8 12.9 42.5 z" opacity="0.15" id="x1" /><path d="M31 18.5 C32.1 18.5 32.6 19.5 32.6 21.4 L27.8 21.4 L27.8 19.9 C28.9 18.9 30 18.5 31 18.5 z" id="y1" fill="#52403A" /><path d="M15 25.1 C16.1 25.1 16.6 26.1 16.6 28 L11.8 28 L11.8 26.5 C12.9 25.6 14 25.1 15 25.1 z" id="z1" fill="#52403A" /><path d="M30.8 28.1 C31.9 28.1 32.4 29.1 32.4 31 L27.6 31 L27.6 29.5 C28.7 28.6 29.8 28.1 30.8 28.1 z" id="a2" fill="#52403A" /><path d="M59.6 19.2 C60.7 19.2 61.2 20.2 61.2 22.1 L56.4 22.1 L56.4 20.6 C57.5 19.7 58.6 19.2 59.6 19.2 z" id="b2" fill="#52403A" /><path d="M59.6 29.1 C60.7 29.1 61.2 30.1 61.2 32 L56.4 32 L56.4 30.5 C57.5 29.6 58.6 29.1 59.6 29.1 z" id="c2" fill="#52403A" /><path d="M71.5 25.1 C72.6 25.1 73.1 26.1 73.1 28 L68.3 28 L68.3 26.5 C69.4 25.6 70.5 25.1 71.5 25.1 z" id="d2" fill="#52403A" /></g></g><g transform="translate(168.6, 189.2) scale(1.7) translate(-168.6, -189.2) translate(109.3, 103.6) translate(55, 75)" id="e2"><g id="f2"><path d="M8.3 9.3 C6.7 8.2 5.3 6.6 4.7 4.7 C4.5 4.6 4.4 4.6 4.4 4.6 C4.4 4.6 4.3 4.6 4.1 4.7 C3.6 6.6 1.8 8.2 0.2 9.3 C1.7 9.9 4.4 10 4.4 10 C4.4 10 6.8 10 8.3 9.3 z" id="g2" fill="#CE5253" /><path d="M0.3 9.3 C0.3 9.3 0.5 9.3 0.7 9.4 C0.9 9.4 1.3 9.5 1.7 9.6 C2.5 9.7 3.4 9.9 4.3 9.9 C4.5 9.9 4.7 9.9 5 9.9 C5.2 9.9 5.4 9.9 5.6 9.8 C5.8 9.8 6 9.7 6.2 9.7 C6.4 9.7 6.6 9.6 6.8 9.6 C7.2 9.5 7.5 9.4 7.8 9.4 C8.1 9.3 8.2 9.3 8.2 9.3 C8.2 9.3 8.2 9.4 8 9.7 C7.9 9.9 7.7 10.3 7.4 10.6 C7.1 10.9 6.6 11.3 6.1 11.5 C5.5 11.7 4.9 11.9 4.2 11.8 C2.9 11.8 1.7 11.1 1.1 10.5 C0.8 10.2 0.5 9.9 0.4 9.6 C0.4 9.5 0.3 9.3 0.3 9.3 z" id="h2" fill="#282421" /><path d="M4.5 6.6 C3.9 6.6 3.5 6.2 3.5 5.6 L3.5 1.7 C3.5 1.1 3.9 0.7 4.5 0.7 C5.1 0.7 5.5 1.1 5.5 1.7 L5.5 5.6 C5.5 6.2 5.1 6.6 4.5 6.6 z" id="i2" fill="#282421" /></g></g><g transform="translate(169.5, 156) scale(0.7) translate(-169.5, -156) translate(86.79999, 79.99997) translate(70, 60)" id="j2"><g id="k2"><path d="M0.7 4.3 C1.1 1.6 6.7 0 8.1 0 C9.5 0 15.7 0 17.5 0 C19.3 0 22 1.3 23.3 2.5 C24.6 3.7 25.4 6.3 25 8.4 C24.5 10.5 21.3 18.8 17.3 19.2 C13.3 19.6 11.1 19.5 9 19 C6.9 18.5 0.7 13.4 0.7 8.4 C0.6 6.7 0.5 5.7 0.7 4.3 z" id="l2" /><path d="M14 3 C15.3 3 16.6 3.9 17.6 4 C19.1 4.2 20.1 3.2 20.1 2.5 C20.1 1.4 17.3 1 14 1 C10.7 1 6 1.1 6 2.2 C6 3.3 10.7 3 14 3 z" id="m2" fill="#FFF" /></g></g><g transform="translate(151.9, 138.4) scale(1.2, 1.3) translate(-151.9, -138.4) translate(95.39998, 75.49997) translate(41, 42)" id="n2"><path d="M6.1 10.9 C6.7 10.4 7.5 10.8 8.5 12.2 C10 14.3 10.8 18 13.2 19.3 C15.6 20.6 18.9 19.9 20.4 19.3 C21.9 18.7 24.8 14.6 23.7 10.9 C23 8.4 21.3 6.3 18.6 4.5 L19.5 6.7 L15.5 6.1 L16.3 7.4 C12.9 7.8 10.6 8.2 9.4 8.5 C8.3 9 7.2 9.8 6.1 10.9 z" id="o2" fill="#FFF" /><g transform="translate(0, 10)" id="p2"><path d="M21.9 14.6 C21 11.9 19.7 8.3 17.5 6.4 C15.3 4.5 10.7 3.9 9 4.5 C7.7 5 6.1 7.4 4.6 8.5 C4.2 8.9 3.1 8.7 3 9 C2.3 10.8 6.8 15.2 8.3 16 C11.2 17.5 16.3 17.8 20.2 17.1 C21.7 17 21.5 15.8 21.9 14.6 z" id="q2" fill="#342520" /><g transform="translate(11.16316, 7.522936) scale(-1, 1) translate(-11.16316, -7.522936) translate(3.163158, 3.022936)" id="r2"><path d="M-1.1 8.4 C0.1 6.4 2.1 4.5 4.4 4.2 C6.7 3.9 8.9 4 10.7 5.4 C12.5 6.8 12.5 7.5 13.3 8.1 C14 8.8 12.5 10.5 9.7 11.4 C6.9 12.3 4.5 13 1.9 12.5 C-0.8 12.1 -1.2 11.9 -1.6 11.4 C-2 10.9 -2.4 10.5 -1.1 8.4 z" id="s2" fill="#FBFBFB" /><g id="t2"><path d="M5.2 4.1 C6.3 5 7 6.4 7 8 C7 10.1 5.7 12 3.8 12.8 C3.2 12.8 2.6 12.8 2 12.6 C-0.7 12.2 -1.1 12 -1.5 11.5 C-1.9 11 -2.3 10.6 -1.1 8.5 C0.1 6.4 2 4.5 4.4 4.2 C4.6 4.2 4.9 4.1 5.2 4.1 z" id="u2" /></g></g><path d="M11.8 11.3 C12.8 12.4 15.1 10.8 15.1 9.9 C15.1 9 14.1 8.2 12.8 8.2 C11.5 8.2 10.5 9 10.5 9.9 C10.5 10.8 10.9 10.2 11.8 11.3 z" id="v2" fill="#FFFEFE" /></g></g><g transform="translate(189.1, 138.8) scale(1.2, 1.3) translate(-189.1, -138.8) translate(101.4, 75.89998) translate(76, 42)" id="w2"><g transform="translate(0.878947, 0.022936)" id="x2"><path d="M20.1 10.9 C19.5 10.4 18.7 10.8 17.7 12.2 C16.2 14.3 15.4 18 13 19.3 C10.6 20.6 7.3 19.9 5.8 19.3 C4.3 18.7 1.4 14.6 2.5 10.9 C3.2 8.4 4.9 6.3 7.6 4.5 L6.6 6.7 L10.6 6.1 L9.9 7.4 C13.3 7.8 15.6 8.2 16.8 8.5 C17.9 9 19 9.8 20.1 10.9 z" id="y2" fill="#FFF" /><path d="M5.3 21.7 C6.2 19 7.5 17.3 9.7 15.4 C11.9 13.5 16.2 13.3 17.9 13.9 C19.1 14.3 21.1 16.4 22.7 17.4 C23.4 17.8 24.1 17.5 24.3 18.1 C25 19.9 21.7 24.1 20.2 24.9 C19.8 25.1 16.7 25.9 14.9 26.4 C12.7 26.9 10.6 26.4 8.3 26.4 C6.9 26.4 5.7 26.3 4.9 25.8 C4.2 25.2 4.8 22.9 5.3 21.7 z" id="z2" fill="#342520" /><g transform="translate(4, 12)" id="a3"><path d="M3.4 9 C4.7 7 6.2 5.4 8.5 5.1 C10.8 4.8 12.7 5.1 14.2 6 C15.7 6.9 16.5 7.9 17.4 9 C18.3 10.1 16.7 11.3 13.8 12.3 C10.9 13.2 9.1 13.5 6.5 13.5 C3.9 13.5 2.6 13 2.2 12.3 C1.9 11.6 2.1 11.1 3.4 9 z" id="b3" fill="#FBFBFB" /><path d="M10 4.9 C11.6 4.9 13 5.3 14.1 5.9 C15.7 6.8 16.4 7.8 17.3 8.9 C18.2 10 16.7 11.3 13.7 12.3 C12.4 12.7 11.3 13 10.1 13.2 C9 12.4 8 10.8 8 8.9 C8 7.3 8.8 5.8 10 4.9 z" id="c3" /></g><path d="M11.7 21.5 C12.7 22.7 15 20.9 15 19.9 C15 18.9 13.9 18 12.5 18 C11.1 18 10 18.8 10 19.9 C10 21 10.6 20.4 11.7 21.5 z" id="d3" fill="#FFFEFE" /></g></g></g></g></g></g><defs><g transform="translate(17.09519, 0.800995) translate(-135.2952, -293.601)" id="e3" fill="#000"><path d="M118.2 302.7 C118.4 307.4 132.5 311.2 149.8 311.2 C167.1 311.2 181.2 307.4 181.4 302.7 C181.4 307.5 181.4 310.1 181.4 310.5 C181.4 315.3 167.3 319.1 149.8 319.1 C132.3 319.1 118.2 315.2 118.2 310.5 L118.2 302.7 L118.2 302.7 z" fill-opacity="0.4528" id="f3" fill="#593001" /><path d="M118.7 301.7 C118.9 306.4 133 310.2 150.3 310.2 C167.6 310.2 181.7 306.4 181.9 301.7 C181.9 306.5 181.9 309.1 181.9 309.5 C181.9 314.3 167.8 318.1 150.3 318.1 C132.8 318.1 118.7 314.2 118.7 309.5 L118.7 301.7 L118.7 301.7 z" id="g3" fill="#DA8113" /><linearGradient x1="46.0545" y1="-118.6926" x2="45.4656" y2="-118.6926" gradientUnits="userSpaceOnUse" gradientTransform="matrix(117.135, 0, 0, 28.4634, -5208.417, 3687.795)" id="h3"><stop offset="0%" stop-color="#D9952A" stop-opacity="1" /><stop offset="6.438854%" stop-color="#CA7519" stop-opacity="1" /><stop offset="30.54%" stop-color="#E3AD3A" stop-opacity="1" /><stop offset="51.05%" stop-color="#FFEC91" stop-opacity="1" /><stop offset="68.8%" stop-color="#E9BD44" stop-opacity="1" /><stop offset="86.24%" stop-color="#FFED6C" stop-opacity="1" /><stop offset="93.87%" stop-color="#F2D353" stop-opacity="1" /><stop offset="100%" stop-color="#F2B947" stop-opacity="1" /></linearGradient><path d="M118.2 301.6 C118.4 306.1 132.7 309.7 150.3 309.7 C167.9 309.7 182.2 306.1 182.4 301.6 C182.4 306.2 182.4 308.7 182.4 309 C182.4 313.5 168 317.2 150.3 317.2 C132.6 317.2 118.2 313.5 118.2 309 L118.2 301.6 L118.2 301.6 z" id="i3" style="fill:url(#h3)" /><linearGradient x1="45.4914" y1="-117.9547" x2="45.9407" y2="-117.5895" gradientUnits="userSpaceOnUse" gradientTransform="matrix(115.425, 0, 0, 29.925, -5125.077, 3826.124)" id="j3"><stop offset="0%" stop-color="#F4E072" stop-opacity="1" /><stop offset="100%" stop-color="#DB9427" stop-opacity="1" /></linearGradient><ellipse cx="150.3" cy="301.5" rx="31.6" ry="8.2" id="k3" style="fill:url(#j3)" /><linearGradient x1="45.4656" y1="-126.0065" x2="46.0545" y2="-126.0065" gradientUnits="userSpaceOnUse" gradientTransform="matrix(117.135, 0, 0, 18.6219, -5208.417, 2651.479)" id="l3"><stop offset="0%" stop-color="#D9952A" stop-opacity="1" /><stop offset="6.438854%" stop-color="#CA7519" stop-opacity="1" /><stop offset="30.54%" stop-color="#E3AD3A" stop-opacity="1" /><stop offset="51.05%" stop-color="#FFEC91" stop-opacity="1" /><stop offset="68.8%" stop-color="#E9BD44" stop-opacity="1" /><stop offset="86.24%" stop-color="#FFED6C" stop-opacity="1" /><stop offset="93.87%" stop-color="#F2D353" stop-opacity="1" /><stop offset="100%" stop-color="#F2B947" stop-opacity="1" /></linearGradient><path d="M119.2 299.9 C119 300.2 118.9 300.6 118.9 301 C118.9 305.5 132.9 309.2 150.3 309.2 C167.7 309.2 181.7 305.5 181.7 301 C181.7 300.6 181.6 300.3 181.4 299.9 C182 300.5 182.4 301.2 182.4 301.9 C182.4 306.4 168 310.1 150.3 310.1 C132.6 310.1 118.2 306.4 118.2 301.9 C118.2 301.3 118.6 300.6 119.2 299.9 z" id="m3" style="fill:url(#l3)" /><linearGradient x1="45.196" y1="-121.5895" x2="45.3746" y2="-120.6758" gradientUnits="userSpaceOnUse" gradientTransform="matrix(101.745, 0, 0, 23.94, -4458.332, 3199.41)" id="n3"><stop offset="0%" stop-color="#F8DD61" stop-opacity="1" /><stop offset="100%" stop-color="#EAA330" stop-opacity="1" /></linearGradient><ellipse cx="150.3" cy="300.8" rx="27.8" ry="6.6" id="o3" style="fill:url(#n3)" /><linearGradient x1="45.5694" y1="-134.267" x2="45.0221" y2="-134.267" gradientUnits="userSpaceOnUse" gradientTransform="matrix(101.745, 0, 0, 13.2525, -4458.332, 2077.223)" id="p3"><stop offset="0%" stop-color="#F4CA2F" stop-opacity="1" /><stop offset="51.38%" stop-color="#BF7737" stop-opacity="1" /><stop offset="100%" stop-color="#E4A929" stop-opacity="1" /></linearGradient><path d="M122.6 301.5 C122.5 301.3 122.4 301 122.4 300.8 C122.4 297.2 134.9 294.2 150.2 294.2 C165.5 294.2 178 297.1 178 300.8 C178 301 177.9 301.3 177.8 301.5 C176.3 298.2 164.5 295.6 150.1 295.6 C135.7 295.6 124.1 298.2 122.6 301.5 z" id="q3" style="fill:url(#p3)" /></g></defs><desc>5GA2HE2KBEB,GsyKePVoFbSFOcAckthpd50Yju27OpllS25odauYt+cqWhDvwdXgWkDGH4G/6u2pWJ8wT8TuWUBi2Ch981fMRAba2QTtpHq5/C2uhNuIiEo=</desc></svg>