<?xml version="1.0" encoding="utf-8"?><!DOCTYPE svg PUBLIC "-//W3C//DTD SVG 1.1//EN" "http://www.w3.org/Graphics/SVG/1.1/DTD/svg11.dtd"><svg x="0" y="0" width="340px" height="340px" viewBox="0, 0, 340, 340" preserveAspectRatio="xMidYMid" font-size="0" id="a" enable-background="new 0 0 340 340" xmlns="http://www.w3.org/2000/svg" xmlns:xlink="http://www.w3.org/1999/xlink" xmlns:xml="http://www.w3.org/XML/1998/namespace" version="1.1"><g id="b" fill="#000"><g id="c"><g transform="translate(0, 0) translate(0, 224)" id="d"><ellipse cx="168.6" cy="53.1" rx="57.8" ry="12.8" fill-opacity="0.25" id="e" /></g><g id="f"><g transform="translate(-285.9, 64.29997) translate(25.5, 156.5) scale(-1, 1) translate(-25.5, -156.5) translate(0, 130)" id="g"><g transform="translate(25.5, 26.5) scale(-1, 1) translate(-25.5, -26.5)" id="h"><path d="M428.3 48.7 C419.3 55.3 412.6 58.4 408.1 58 C401.4 57.4 391.1 53 387.3 45.9 C383.6 38.7 383.3 27.3 384.9 22.4 C386.5 17.4 390.2 9.9 396.1 7.1 C402 4.3 407.1 6 409.7 7.9 C412.3 9.8 415.3 14.8 414.1 19.2 C413.3 22.2 412.7 23.8 412.2 24.2 C412 21.9 410.9 20.9 408.8 21.3 C405.6 21.9 400.6 27.2 401.5 30.9 C402.4 34.5 405.6 38.2 408.8 38.5 C412 38.8 417 35.6 418.7 34.2 C419.8 33.3 421.8 31 424.8 27.3 C430.1 24.3 433 26.2 433.5 33.1 C434.1 40 432.3 45.2 428.3 48.7 z" id="i" fill="#DD7E4E" /><path d="M412.5 23.9 C412.4 24.1 412.3 24.2 412.2 24.3 C411.6 22.7 410.3 22.1 408.2 22.5 C405 23.1 401.7 27.2 402.5 30.8 C403.4 34.4 405 36.5 408.2 36.8 C411.4 37.1 415.2 34.5 416.8 33.2 C417.9 32.3 420.6 30 425 26.3 C430 24.1 432.8 26.3 433.4 32.6 C430.3 35.5 416.5 45.4 415.2 45.9 C413.8 46.4 409.3 48.1 404.5 48 C399.7 47.9 395.3 43.8 393.8 41.3 C392.2 38.9 391 35 391 30.8 C391 26.6 392.7 20.6 395.1 17.9 C397.5 15.3 399.2 13.9 402.5 13.9 C404.7 13.9 407.4 14.3 410.2 17.2 C411.2 18.2 411.8 20.4 412.5 23.9 z" id="j" fill="#CE734A" /><path d="M412.2 24.3 C411.6 22.7 410.3 22.1 408.2 22.5 C405 23.1 401.7 27.2 402.5 30.8 C403.4 34.4 405 36.5 408.2 36.8 C411.4 37.1 415.2 34.5 416.8 33.2 C417.9 32.3 420.6 30 425 26.3 C428.7 24.7 431.1 25.4 432.4 28.4 C433 29.6 433.3 31.2 433.5 33.2 C434.1 40.1 432.3 45.3 428.3 48.8 C419.3 55.4 412.6 58.5 408.1 58.1 C401.4 57.5 391.1 53.1 387.3 46 C383.6 38.8 383.3 27.4 384.9 22.5 C386.5 17.5 390.2 10 396.1 7.2 C402 4.4 407.1 6.1 409.7 8 C412.3 9.9 415.3 14.9 414.1 19.3 C413.3 22.3 412.7 23.9 412.2 24.3 z M408.3 21.3 C410.2 20.9 411.4 21.5 411.9 22.9 C412.4 22.5 412.9 21.1 413.6 18.3 C414.7 14.4 411.7 10.4 409.4 8.6 C407.1 6.8 402.6 4.9 397.2 7.4 C391.8 9.9 388.5 16.8 387 21.3 C385.5 25.8 385.8 36.1 389.2 42.7 C392.7 49.2 402 53.2 408.1 53.7 C412.2 54.1 418.3 51.2 426.5 45.2 C430.1 42 432.1 37.5 431.6 31.2 C431.5 29.4 431.2 29.3 430.7 28.3 C429.5 25.6 428.1 26.8 424.8 28.3 C420.8 31.7 416.2 35 415.2 35.8 C413.7 37 409.2 37.9 406.3 37.6 C403.4 37.3 401.9 34.4 401.5 29.4 C401.5 26 405.3 21.9 408.3 21.3 z" opacity="0.15" id="k" /></g></g><g transform="translate(127.5, 273.3) scale(1) translate(-127.5, -273.3) translate(90.90001, 84.79997) translate(29, 123)" id="l"><g transform="translate(22.5, 34.5) scale(-1, 1) translate(-22.5, -34.5)" id="m"><path d="M0.5 21.2 C0.5 5.6 29.7 -5.2 40.3 4.4 C49.4 12.7 41.6 31.9 40.3 33.7 C39.4 34.9 36.1 41.1 30.4 52.5 C37.7 55.2 41.3 58.4 41.3 62.1 C41.3 63.8 41.3 66.1 39.6 67.4 C38.3 68.4 19.6 68.3 15.4 67.4 C11.2 66.5 0.3 66.2 0.5 57.8 C0.7 48.8 0.5 29.2 0.5 21.2 z" id="n" fill="#CE734A" /><path d="M0.5 21.2 C0.5 5.6 29.7 -5.2 40.3 4.4 C49.4 12.7 41.6 31.9 40.3 33.7 C39.4 34.9 36.1 41.1 30.4 52.5 C37.7 55.2 41.3 58.4 41.3 62.1 C41.3 63.8 41.3 66.1 39.6 67.4 C38.3 68.4 19.6 68.3 15.4 67.4 C11.2 66.5 0.3 66.2 0.5 57.8 C0.7 48.8 0.5 29.2 0.5 21.2 z M2 21.6 C2 25.7 2.6 32.8 2.5 39.9 C2.4 45.8 1.6 51.8 1.6 55.7 C1.4 63.7 11.3 64.4 15.3 65.3 C19.3 66.2 36.4 66.9 37.7 65.9 C39.3 64.7 39.3 63 39.3 61.4 C39.3 57.9 34.4 55.6 27.4 53 C32.8 42.1 37.7 34 38.5 32.9 C40.9 28.4 47 12.6 38.4 4.6 C28.3 -4.5 2 6.8 2 21.6 z" opacity="0.15" id="o" /></g></g><g transform="translate(212.4, 273.3) scale(1) translate(-212.4, -273.3) translate(90.90001, 84.79997) translate(107, 157.5) scale(-1, 1) translate(-107, -157.5) translate(85, 123)" id="p"><g id="q"><path d="M42.8 20.7 C42.8 5.1 15.8 -5.2 5.2 4.4 C-3.9 12.7 3.9 31.9 5.2 33.7 C6.1 34.9 9.4 41.1 15.1 52.5 C7.8 55.2 4.2 58.4 4.2 62.1 C4.2 63.8 4.2 66.1 5.9 67.4 C7.2 68.4 24.3 69 30.1 67.4 C30.3 67.3 33.1 66.7 34 66.4 C37.5 65.2 42.4 63.3 42.7 59.9 C44.2 44.3 42.8 29.9 42.8 20.7 z" id="r" fill="#CE734A" /><path d="M42.8 20.7 C42.8 29.9 44.2 44.3 42.7 59.9 C42.4 63.3 37.5 65.2 34 66.4 C33.1 66.7 30.3 67.3 30.1 67.4 C24.2 69 7.2 68.4 5.9 67.4 C4.2 66.1 4.2 63.8 4.2 62.1 C4.2 58.4 7.8 55.2 15.1 52.5 C9.4 41.1 6.1 34.9 5.2 33.7 C3.9 31.9 -3.9 12.7 5.2 4.4 C15.8 -5.2 42.8 5.1 42.8 20.7 z M41.8 20.4 C41.8 5.6 16.2 -4.4 6.1 4.8 C-2.5 12.6 6 30.7 7.3 32.4 C8.2 33.5 12.3 42.3 17.7 53.2 C10.8 55.8 5.6 58.3 5.6 61.8 C5.6 63.4 5.7 64.3 7.4 65.6 C8.6 66.5 24.1 67 29.7 65.5 C29.9 65.4 34.8 64.5 35.7 64.2 C39 63.1 41.6 60.9 41.9 57.7 C43.1 42.8 41.8 29.1 41.8 20.4 z" opacity="0.15" id="s" /></g></g><g transform="translate(90.90001, 84.79997) translate(37, 51)" id="t"><g transform="translate(3, 0)" id="u"><path d="M61.7 20.1 C61.7 36.4 64.4 34.7 66.1 39.3 C67.8 43.9 74.7 53 76 65.8 C77.3 78.6 76.6 92.6 72.6 104.3 C68.6 116 71.5 137.3 61.8 140 C61.5 140.1 29.8 143.1 18 140 C5.8 136.8 11.8 123.7 6.4 106.4 C1 89.1 0.1 80.3 0.4 65.8 C0.7 51.3 10.7 44.1 12.5 39.2 C14.3 34.3 16.6 32.5 16.6 20 C16.6 7.5 24.6 0.5 42.2 1 C47.5 1.2 61.7 3.7 61.7 20.1 z" id="v" fill="#DD7E4E" /><path d="M61.7 20.1 C61.7 36.4 64.4 34.7 66.1 39.3 C67.8 43.9 74.7 53 76 65.8 C77.3 78.6 76.6 92.6 72.6 104.3 C68.6 116 71.5 137.3 61.8 140 C61.5 140.1 29.8 143.1 18 140 C5.8 136.8 11.8 123.7 6.4 106.4 C1 89.1 0.1 80.3 0.4 65.8 C0.7 51.3 10.7 44.1 12.5 39.2 C14.3 34.3 16.6 32.5 16.6 20 C16.6 7.5 24.6 0.5 42.2 1 C47.5 1.2 61.7 3.7 61.7 20.1 z M61.2 20.2 C61.2 4.2 47.3 1.7 42.1 1.5 C24.9 1 17.1 7.9 17.1 20.1 C17.1 32.3 14.8 34.1 13.1 38.9 C11.4 43.7 1.5 50.7 1.2 64.9 C0.9 79.1 2.8 88.3 8.1 105.2 C13.4 122.1 6.5 134.3 18.4 137.5 C29.9 140.5 61 137.6 61.3 137.5 C70.8 134.9 67 114.3 70.9 102.9 C74.8 91.5 76.5 77.5 75.2 64.9 C73.9 52.4 67.2 43.5 65.5 39 C63.8 34.5 61.2 36.1 61.2 20.2 z" opacity="0.15" id="w" /></g></g><g transform="translate(128.7172, 182.575) scale(1.160986, 1.078625) translate(-134.4, -183.6) translate(103, 81.99997) translate(31, 101)" id="x"><path d="M60.2 78.6 C60.9 58.3 69.1 43.8 69.1 23.9 C69.1 15.9 64.6 12.9 58.8 11.2 C53.9 9.7 51.4 8.5 47.9 6.3 C46.2 3.3 44.1 0.7 35.6 0.6 C27 0.7 25 3.3 23.3 6.3 C19.8 8.5 18.3 11 13.4 12.4 C7.6 14.1 1.7 25.4 3.3 33.2 C6.2 46.5 8.2 58 8.2 58 C8.2 58 11 71 10.9 78.7 C6 82 4.8 84.9 4.8 90 C5.1 91.8 24.2 94.4 26.4 90.6 C29.8 84.7 27.2 77.4 27.2 73.3 C27.2 67.2 27.4 58.2 27.5 48.5 C29.6 50.1 32.1 51.2 35.6 51.2 C39.1 51.2 41.6 50.1 43.7 48.5 C43.8 58.2 44 67.3 44 73.3 C44 77.4 41.4 84.8 44.8 90.6 C47 94.4 66.1 91.9 66.4 90 C66.3 84.8 65.1 81.8 60.2 78.6 z" id="y" fill="#FFF" /><path d="M12.3 9.7 C17.2 8.2 19.8 8.5 23.3 6.2 C23.5 6.3 26.7 8.5 24.4 14.6 C23.1 18 18.8 19.2 16.1 21.5 C11.2 25.7 11.3 33.7 10.6 40.2 C9.9 46.6 14.8 54.9 10.8 57.7 C9.9 58.4 9 58.5 8.1 57.9 C5 46.5 0.5 36.1 0.4 23.4 C0.5 15.4 6.6 11.4 12.3 9.7 z" id="z" fill="#FEFEFE" /><path d="M58.9 9.4 C53.9 7.9 51.3 8.2 47.6 5.8 C47.4 5.9 44.1 8.1 46.5 14.3 C47.8 17.7 52.2 18.9 55 21.3 C60 25.5 59.9 33.7 60.6 40.1 C61.3 46.6 56.3 55 60.4 57.8 C61.3 58.5 62.2 58.7 63.1 58 C66.3 46.5 70.9 36 70.9 23.2 C71 15.2 64.8 11.2 58.9 9.4 z" id="a1" fill="#FEFEFE" /><path d="M63.9 55.3 C62.1 62.6 60.5 70.1 60.2 78.6 C65.1 81.8 66.3 84.8 66.4 90 C66.1 91.9 47 94.4 44.8 90.6 C41.4 84.8 44 77.4 44 73.3 C44 67.3 43.8 58.2 43.7 48.5 C41.6 50.1 39.1 51.2 35.6 51.2 C32.1 51.2 29.6 50.1 27.5 48.5 C27.4 58.2 27.2 67.2 27.2 73.3 C27.2 77.4 29.8 84.7 26.4 90.6 C24.2 94.4 5.1 91.8 4.8 90 C4.8 84.9 6 82 10.9 78.7 C11 71 8.2 58 8.2 58 C8.2 58 8.2 58 8.2 58 C8.2 58 8.1 58 8.1 57.9 C5 46.5 0.5 36.1 0.4 23.4 C0.5 15.4 6.6 11.4 12.3 9.7 C17.2 8.2 19.8 8.5 23.3 6.2 C23.3 6.2 23.3 6.2 23.3 6.2 C25 3.2 27 0.7 35.6 0.6 C43.6 0.7 46 3 47.6 5.8 C51.3 8.2 53.9 7.9 58.9 9.4 C64.8 11.2 71 15.2 70.9 23.2 C70.9 35 67 44.8 63.9 55.3 z M59.1 79.2 C59.4 71.1 60.9 60.9 62.6 53.9 C65.6 43.9 69.3 34.6 69.3 23.3 C69.4 15.7 63.5 11.9 57.9 10.2 C53 8.8 50.6 9 47 6.8 C45.5 4.1 43 1.6 35.3 1.5 C27.2 1.6 25.5 4.3 23.9 7.2 C20.6 9.4 18.1 9.1 13.4 10.5 C8 12.1 2.2 15.9 2.1 23.5 C2.2 35.6 6.5 45.5 9.5 56.4 C9.5 56.4 12.9 71.8 12.8 79.1 C8.1 82.2 6.9 82.3 6.9 87.1 C7.2 88.8 23.1 91.2 25.2 87.6 C28.4 82 25.4 74.7 25.4 70.8 C25.4 65 25 53.1 25.1 43.9 C27.1 45.4 32.2 49.9 35.6 49.9 C38.9 49.9 43.8 46.1 45.8 44.6 C45.9 53.8 45.8 66.5 45.8 72.2 C45.8 76.1 42.1 81.9 45.3 87.4 C47 90.3 63.8 88.3 63.8 87.9 C63.8 83.1 63.7 82.2 59.1 79.2 z" opacity="0.15" id="b1" /></g></g><g id="c1"><g transform="translate(92, 3) translate(91.10001, 94.99997)" id="d1"><path d="M4.4 2.9 C7.1 -0.3 14.5 1.5 21.1 6.9 L25.4 10.5 C31.9 15.9 35 22.9 32.4 26.1 L32.4 26.1 C29.7 29.3 22.3 27.5 15.7 22.1 L11.4 18.5 C8.2 15.8 1.5 11.1 0.7 9.8 C-1.2 7.3 3 4.5 4.4 2.9 L4.4 2.9 z" id="e1" fill="#DD7E4E" /></g><g transform="translate(16, 3) translate(90.8, 95.79996)" id="f1"><path d="M46.6 3.4 C43.9 0.2 36.5 2 29.9 7.4 L25.6 11 C19.1 16.4 16 23.4 18.6 26.6 L18.6 26.6 C21.3 29.8 28.7 28 35.3 22.6 L39.6 19 C42.8 16.3 49.5 11.6 50.3 10.3 C52.1 7.8 47.9 5 46.6 3.4 L46.6 3.4 z" id="g1" fill="#DD7E4E" /></g><g transform="translate(90.90001, 95.49997) translate(37, 0)" id="h1"><g id="i1"><path d="M40.1 0.5 C72.4 1 81.8 11.6 81.5 30 C81.2 48.3 80.7 55.1 76.4 61.6 C72.1 68.1 70.7 71.6 67.7 81.7 C64.7 91.8 55.4 91.4 41.7 91.7 C28 92 16 87.5 14.9 80.5 C13.8 73.5 10.1 67.7 5.1 60.9 C0.1 54.1 0.8 35.1 0.7 24.3 C0.6 13.5 7.9 0 40.1 0.5 z" id="j1" fill="#ED8B52" /><g transform="translate(28.16216, 84.51376)" id="k1"><path d="M0.6 6.7 C3.9 8.4 6.8 9.3 9.2 9.4 C12.9 9.6 20.5 9.4 23.4 8.1 C25.4 7.2 26.8 6.8 27.6 6.8 C23.9 3.9 21.4 2.4 20.1 2.2 C18.2 2 12.8 -0.1 11 1.1 C9.2 2.3 5.2 3 4.3 3.8 C3.7 4.3 2.5 5.2 0.6 6.7 z" id="l1" fill="#CE734A" /></g><path d="M55.4 91 C55.5 91.1 55.6 91.2 55.8 91.3 C55 91.3 53.6 91.7 51.6 92.6 C48.7 93.9 41.1 94.1 37.4 93.9 C35 93.8 32.1 92.9 28.8 91.2 C29.1 91 29.3 90.8 29.6 90.6 C21.6 88.9 15.7 85.3 15 80.5 C13.9 73.5 10.2 67.7 5.2 60.9 C0.2 54.1 0.9 35.1 0.8 24.3 C0.7 13.5 7.9 0 40.1 0.5 C72.4 1 81.8 11.6 81.5 30 C81.2 48.3 80.7 55.1 76.4 61.6 C72.1 68.1 70.7 71.6 67.7 81.7 C65.8 87.9 61.6 90.2 55.4 91 z M55 88.8 C61 88 65.2 85.8 67 79.7 C69.9 69.9 71.3 66.5 75.5 60.2 C79.7 53.9 80.2 47.3 80.5 29.5 C80.8 11.6 71.7 1.3 40.3 0.8 C8.8 0.3 1.7 13.4 1.8 23.9 C1.9 34.4 1.2 52.9 6.1 59.5 C11 66.1 14.6 71.7 15.6 78.6 C16.3 83.3 22 86.8 29.8 88.4 C29.6 88.6 29.3 88.8 29.1 89 C32.3 90.7 35.1 91.5 37.5 91.6 C41.1 91.8 48.5 91.6 51.3 90.3 C53.2 89.4 54.6 89 55.4 89 C55.2 89 55.1 88.9 55 88.8 z" opacity="0.15" id="m1" /></g></g><g transform="translate(90.8, 95.79996) translate(16, 3)" id="n1"><path d="M38.7 4.6 C35.6 5.9 33 6.7 31.4 8.3 C29.8 9.9 25.3 17.6 25.1 21.4 C24.9 25.2 27.2 38.1 25.3 47.4 C23.4 56.7 23.8 63.8 20.5 62.6 C17.2 61.5 18.8 58.1 13.8 51.7 C8.8 45.3 0.8 34.8 0.1 31 C-0.6 27.2 7.4 20.2 13.8 15.5 C20.2 10.8 26.9 0.6 32 0.2 C37.1 -0.2 41.6 1.6 42.3 1.8 C43 2 41.7 3.3 38.7 4.6 z" id="o1" fill="#CE734A" /><path d="M38.7 4.6 C35.6 5.9 33 6.7 31.4 8.3 C29.8 9.9 25.3 17.6 25.1 21.4 C24.9 25.2 27.2 38.1 25.3 47.4 C23.4 56.7 23.8 63.8 20.5 62.6 C17.2 61.5 18.8 58.1 13.8 51.7 C8.8 45.3 0.8 34.8 0.1 31 C-0.6 27.2 7.4 20.2 13.8 15.5 C20.2 10.8 26.9 0.6 32 0.2 C37.1 -0.2 41.6 1.6 42.3 1.8 C43 2 41.7 3.3 38.7 4.6 z M37.6 4.3 C40.4 3.1 41.6 1.9 41 1.7 C40.4 1.5 37 0.2 32.3 0.6 C27.6 1 20.3 11.3 14.3 15.7 C8.3 20.1 1.2 26 1.8 29.6 C2.4 33.2 9.6 42.5 14.3 48.5 C19 54.5 17.1 56.6 20.2 57.6 C22.2 58.1 21.7 53.2 23.5 44.4 C25.3 35.6 23.8 24.4 24 20.8 C24.2 17.2 29.3 9.2 30.8 7.7 C32.3 6.2 34.7 5.5 37.6 4.3 z" opacity="0.15" id="p1" /></g><g transform="translate(91.10001, 94.99997) translate(92, 3)" id="q1"><path d="M8.7 4.4 C12.6 6.2 15 6.5 16.6 8.1 C18.2 9.7 22.7 17.6 22.9 21.4 C23.1 25.2 20.8 38.1 22.7 47.4 C24.6 56.7 24.2 63.8 27.5 62.6 C30.8 61.5 29.2 58.1 34.2 51.7 C39.2 45.3 47.1 34.8 47.9 31 C48.7 27.2 42.1 21.4 35.2 15.9 C28.3 10.4 21.1 0.6 15.9 0.2 C12.5 0 9.1 0.5 5.6 1.8 C5.1 2.4 6.1 3.2 8.7 4.4 z" id="r1" fill="#CE734A" /><path d="M8.7 4.4 C6.1 3.2 5.1 2.4 5.6 1.8 C9.1 0.5 12.5 0 15.9 0.2 C21.1 0.6 28.3 10.4 35.2 15.9 C42.1 21.4 48.7 27.2 47.9 31 C47.1 34.8 39.2 45.3 34.2 51.7 C29.2 58.1 30.8 61.5 27.5 62.6 C24.2 63.8 24.6 56.7 22.7 47.4 C20.8 38.1 23.1 25.2 22.9 21.4 C22.7 17.6 18.2 9.7 16.6 8.1 C15 6.5 12.6 6.2 8.7 4.4 z M10.3 4.7 C14 6.4 15.7 6.1 17.2 7.6 C18.7 9.1 23.9 17.7 24.1 21.3 C24.3 24.9 22.7 37 24.4 45.8 C26.1 54.6 25 59 28.1 57.9 C31.2 56.9 29.2 54.5 33.9 48.5 C38.6 42.5 45.7 34.1 46.4 30.5 C47.1 26.9 41.3 21.7 34.8 16.5 C28.3 11.3 21.1 1.2 16.2 0.8 C13 0.7 9.6 0.9 6.3 2.1 C5.9 2.7 7.9 3.6 10.3 4.7 z" opacity="0.15" id="s1" /></g><g transform="translate(169.6, 148) scale(1.1) translate(-169.6, -150)" id="t1"><g transform="translate(96.50001, 58.89997) translate(49, 49)" id="u1"><path d="M4.9 47.3 C3.6 44.4 4 38.4 6.2 35.6 C7.4 34.1 9.4 31.1 12.6 29.9 C15.5 28.7 19.3 29.2 23.6 29.2 C27.7 29.2 29.8 28.7 32.4 29.6 C35.4 30.7 38.4 33.2 39.9 35.6 C42.6 39.9 42.1 45.1 40.5 47.3 C39.8 48.3 37.6 51.5 35.2 51.8 C32.2 52.2 28.5 50.1 24.2 50.1 C20.6 50.1 16.7 51.9 13.2 51.8 C9 51.6 5.6 48.9 4.9 47.3 z" id="v1" fill="#FFF" /><path d="M14.9 29.3 C14.4 29.4 13.9 29.5 13.5 29.7 C10.6 30.9 8.7 33.6 7.6 35 C5.5 37.6 5.2 43.1 6.4 45.8 C7 47.3 10.2 49.8 14 49.9 C17.2 50 20.9 48.4 24.1 48.4 C28.1 48.4 31.5 50.3 34.3 49.9 C36.5 49.6 38.5 46.7 39.1 45.8 C40.5 43.7 41 39 38.5 35 C37.2 32.9 34.4 30.5 31.6 29.5 C31.3 29.4 30.9 29.3 30.6 29.2 C31.2 29.3 31.8 29.4 32.4 29.6 C35.4 30.7 38.4 33.2 39.9 35.6 C42.6 39.9 42.1 45.1 40.5 47.3 C39.8 48.3 37.6 51.5 35.2 51.8 C32.2 52.2 28.5 50.1 24.2 50.1 C20.6 50.1 16.7 51.9 13.2 51.8 C9 51.7 5.6 48.9 4.9 47.3 C3.6 44.4 4 38.4 6.2 35.6 C7.4 34.1 9.4 31.1 12.6 29.9 C13.3 29.6 14.1 29.4 14.9 29.3 z" opacity="0.15" id="w1" /><g opacity="0.4" transform="translate(6, 34)" id="x1"><circle cx="29.5" cy="11.5" r="1" opacity="0.4" id="y1" /><circle cx="24.5" cy="12.5" r="1" opacity="0.4" id="z1" /><circle cx="5.5" cy="11.5" r="1" opacity="0.4" id="a2" /><circle cx="10.5" cy="11.5" r="1" opacity="0.4" id="b2" /><circle cx="4.5" cy="4.5" r="1" opacity="0.4" id="c2" /><circle cx="32.5" cy="7.5" r="1" opacity="0.4" id="d2" /><circle cx="27.5" cy="8.5" r="1" opacity="0.4" id="e2" /><circle cx="6.5" cy="7.5" r="1" opacity="0.4" id="f2" /><circle cx="2.5" cy="8.5" r="1" opacity="0.4" id="g2" /><circle cx="30.5" cy="4.5" r="1" opacity="0.4" id="h2" /></g><path d="M16.9 41.4 C18.5 43.3 19.1 45.2 18.8 47.1 C18.5 49 17.2 50.4 15.1 51.4 C16.4 51.1 17.3 50.8 17.9 50.7 C19 50.4 19.9 50 20.8 49.9 C21.7 49.7 22.6 49.7 23.3 49.7 C24.2 49.7 25 49.8 26.1 50 C26.7 50.1 27.3 50.4 28.4 50.7 C28.9 50.8 29.8 51 31 51.3 C28.9 50.1 27.7 48.7 27.5 47.2 C27.3 45.7 27.9 43.8 29.4 41.4 C26.7 42.9 24.7 43.7 23.4 43.7 C22.1 43.7 19.8 42.9 16.9 41.4 z" opacity="0.15" id="i2" /></g><g transform="translate(91.2, 76.39997) translate(65, 74)" id="j2"><path d="M4.2 17 C7.4 16.4 9.1 15 10.5 13.9 C11.4 13.2 12.4 12.3 13.4 11.1 C14.7 12.7 15.6 13.7 16.2 14.1 C17 14.8 19.4 16.3 20.9 16.9 C22.4 17.5 26.3 17.8 26.3 17.2 C26.3 16.6 21.8 15.9 20.2 14.7 C18.6 13.5 17 12.5 15.9 11 C14.9 9.6 15.3 8.6 15.2 7 C15.1 5 15.4 2.8 15.5 1.3 C15.6 -0.7 12.3 -0.1 12.3 1.3 C12.3 2.7 12.3 4.8 12.3 6.6 C12.3 8.4 11.6 10.6 10.2 11.8 C8.8 13 6.9 14.5 4.8 15.3 C3.5 15.8 0.8 16.4 0.9 17 C0.8 17.4 2.9 17.3 4.2 17 z" id="k2" fill="#282421" /></g><g transform="translate(104.1, 94.49997) translate(56, 46)" id="l2"><g id="m2"><path d="M16.1 2.4 C15.2 0.6 12.9 0.2 9.5 0.2 C6.1 0.2 3.8 0.6 2.9 2.4 C2 4.2 -1.3 9.4 2.6 10 C6.4 10.6 7.8 10.6 9.5 10.6 C11.2 10.6 12.6 10.6 16.4 10 C20.3 9.5 17 4.2 16.1 2.4 z" id="n2" fill="#282421" /><path d="M3.4 5.3 C3.4 3.9 5.2 1.7 6.1 1.5 C7.2 1.3 12.5 1.3 13.8 1.9 C15 2.5 15 4.3 15 5 C13.8 4.3 11.7 3 9.4 3.1 C7.2 3.3 5 4.2 3.4 5.3 z" id="o2" fill="#FFF" /></g></g><g transform="translate(89.5, 76.89996) translate(54, 35)" id="p2"><g id="q2"><path d="M4.7 6.8 C3.5 9 0.2 13.2 0.9 15.7 C1.2 16.6 2.2 17.5 3.7 17.7 C4.3 17.8 6.2 18.4 6.4 18.4 C7.8 18.4 8.8 18.1 9.8 17.5 C10.9 16.9 11.5 15.2 12.2 14.4 C13.2 13.3 13.9 12.5 14.1 11.8 C14.8 10.1 15.3 8.9 15.3 5.6 C15.4 -0.7 6.3 3.9 4.7 6.8 z" id="r2" fill="#CE734A" /><path d="M3.9 7.4 C5.7 5 7 3.9 8.7 2.1 C10.4 0.3 12.5 0.1 13.9 1.7 C15.3 3.3 15.8 4.2 15.8 5.9 C15.8 7.6 16.2 9 13.9 11.3 C11.6 13.6 6.9 15.1 5.3 13.6 C3.7 12.1 2.1 9.8 3.9 7.4 z" id="s2" /><path d="M11.2 8.1 C12.5 8.1 13.6 7 13.6 5.7 C13.6 4.4 13 3.7 11.7 3.7 C10.4 3.7 9.1 5.5 9.1 6.9 C9.1 8.3 9.9 8.1 11.2 8.1 z" id="t2" fill="#FFF" /><path d="M8.9 10.3 C9.3 10.3 9.1 9.3 9.1 8.8 C9.1 8.3 8.9 8.1 8.5 8.1 C8 8.1 7.6 8.8 7.6 9.2 C7.6 9.7 8.5 10.3 8.9 10.3 z" id="u2" fill="#FFF" /></g></g><g transform="translate(85.5, 76.89996) translate(94, 35)" id="v2"><g id="w2"><path d="M12.1 6.4 C13.3 8.6 16.6 11.7 15.7 14.6 C15.3 15.9 12.2 17.7 11.4 17.8 C7.5 18.6 7.1 17.7 5.7 16.8 C4.4 16 2.8 13 2.2 11.5 C1.5 9.9 1 8.7 1 5.4 C1 -0.9 10.5 3.5 12.1 6.4 z" id="x2" fill="#CE734A" /><path d="M12.3 5.9 C10.4 3.7 8.9 2.8 7.3 1.2 C5.7 -0.4 3.6 0.1 2.2 1.7 C0.8 3.3 0.3 4.1 0.3 5.9 C0.3 7.7 -0.1 9 2.2 11.3 C4.5 13.6 9.2 15.1 10.8 13.6 C12.4 12.1 14.2 8.1 12.3 5.9 z" id="y2" /><path d="M6.3 8.1 C5 8.1 3.9 7 3.9 5.7 C3.9 4.4 4.5 3.7 5.8 3.7 C7.1 3.7 8.3 5.6 8.3 6.9 C8.3 8.2 7.6 8.1 6.3 8.1 z" id="z2" fill="#FFF" /><path d="M9.1 8.7 C9.1 8.3 8.9 8.1 8.5 8.1 C8.1 8.1 7.7 8.7 7.7 9.1 C7.7 9.4 8.6 9.7 9 9.6 C9.2 9.4 9.1 8.9 9.1 8.7 z" id="a3" fill="#FFF" /></g></g></g></g></g></g><defs><g transform="translate(17.09519, 0.800995) translate(-135.2952, -293.601)" id="b3" fill="#000"><path d="M118.2 302.7 C118.4 307.4 132.5 311.2 149.8 311.2 C167.1 311.2 181.2 307.4 181.4 302.7 C181.4 307.5 181.4 310.1 181.4 310.5 C181.4 315.3 167.3 319.1 149.8 319.1 C132.3 319.1 118.2 315.2 118.2 310.5 L118.2 302.7 L118.2 302.7 z" fill-opacity="0.4528" id="c3" fill="#593001" /><path d="M118.7 301.7 C118.9 306.4 133 310.2 150.3 310.2 C167.6 310.2 181.7 306.4 181.9 301.7 C181.9 306.5 181.9 309.1 181.9 309.5 C181.9 314.3 167.8 318.1 150.3 318.1 C132.8 318.1 118.7 314.2 118.7 309.5 L118.7 301.7 L118.7 301.7 z" id="d3" fill="#DA8113" /><linearGradient x1="46.0545" y1="-118.6926" x2="45.4656" y2="-118.6926" gradientUnits="userSpaceOnUse" gradientTransform="matrix(117.135, 0, 0, 28.4634, -5208.417, 3687.795)" id="e3"><stop offset="0%" stop-color="#D9952A" stop-opacity="1" /><stop offset="6.438854%" stop-color="#CA7519" stop-opacity="1" /><stop offset="30.54%" stop-color="#E3AD3A" stop-opacity="1" /><stop offset="51.05%" stop-color="#FFEC91" stop-opacity="1" /><stop offset="68.8%" stop-color="#E9BD44" stop-opacity="1" /><stop offset="86.24%" stop-color="#FFED6C" stop-opacity="1" /><stop offset="93.87%" stop-color="#F2D353" stop-opacity="1" /><stop offset="100%" stop-color="#F2B947" stop-opacity="1" /></linearGradient><path d="M118.2 301.6 C118.4 306.1 132.7 309.7 150.3 309.7 C167.9 309.7 182.2 306.1 182.4 301.6 C182.4 306.2 182.4 308.7 182.4 309 C182.4 313.5 168 317.2 150.3 317.2 C132.6 317.2 118.2 313.5 118.2 309 L118.2 301.6 L118.2 301.6 z" id="f3" style="fill:url(#e3)" /><linearGradient x1="45.4914" y1="-117.9547" x2="45.9407" y2="-117.5895" gradientUnits="userSpaceOnUse" gradientTransform="matrix(115.425, 0, 0, 29.925, -5125.077, 3826.124)" id="g3"><stop offset="0%" stop-color="#F4E072" stop-opacity="1" /><stop offset="100%" stop-color="#DB9427" stop-opacity="1" /></linearGradient><ellipse cx="150.3" cy="301.5" rx="31.6" ry="8.2" id="h3" style="fill:url(#g3)" /><linearGradient x1="45.4656" y1="-126.0065" x2="46.0545" y2="-126.0065" gradientUnits="userSpaceOnUse" gradientTransform="matrix(117.135, 0, 0, 18.6219, -5208.417, 2651.479)" id="i3"><stop offset="0%" stop-color="#D9952A" stop-opacity="1" /><stop offset="6.438854%" stop-color="#CA7519" stop-opacity="1" /><stop offset="30.54%" stop-color="#E3AD3A" stop-opacity="1" /><stop offset="51.05%" stop-color="#FFEC91" stop-opacity="1" /><stop offset="68.8%" stop-color="#E9BD44" stop-opacity="1" /><stop offset="86.24%" stop-color="#FFED6C" stop-opacity="1" /><stop offset="93.87%" stop-color="#F2D353" stop-opacity="1" /><stop offset="100%" stop-color="#F2B947" stop-opacity="1" /></linearGradient><path d="M119.2 299.9 C119 300.2 118.9 300.6 118.9 301 C118.9 305.5 132.9 309.2 150.3 309.2 C167.7 309.2 181.7 305.5 181.7 301 C181.7 300.6 181.6 300.3 181.4 299.9 C182 300.5 182.4 301.2 182.4 301.9 C182.4 306.4 168 310.1 150.3 310.1 C132.6 310.1 118.2 306.4 118.2 301.9 C118.2 301.3 118.6 300.6 119.2 299.9 z" id="j3" style="fill:url(#i3)" /><linearGradient x1="45.196" y1="-121.5895" x2="45.3746" y2="-120.6758" gradientUnits="userSpaceOnUse" gradientTransform="matrix(101.745, 0, 0, 23.94, -4458.332, 3199.41)" id="k3"><stop offset="0%" stop-color="#F8DD61" stop-opacity="1" /><stop offset="100%" stop-color="#EAA330" stop-opacity="1" /></linearGradient><ellipse cx="150.3" cy="300.8" rx="27.8" ry="6.6" id="l3" style="fill:url(#k3)" /><linearGradient x1="45.5694" y1="-134.267" x2="45.0221" y2="-134.267" gradientUnits="userSpaceOnUse" gradientTransform="matrix(101.745, 0, 0, 13.2525, -4458.332, 2077.223)" id="m3"><stop offset="0%" stop-color="#F4CA2F" stop-opacity="1" /><stop offset="51.38%" stop-color="#BF7737" stop-opacity="1" /><stop offset="100%" stop-color="#E4A929" stop-opacity="1" /></linearGradient><path d="M122.6 301.5 C122.5 301.3 122.4 301 122.4 300.8 C122.4 297.2 134.9 294.2 150.2 294.2 C165.5 294.2 178 297.1 178 300.8 C178 301 177.9 301.3 177.8 301.5 C176.3 298.2 164.5 295.6 150.1 295.6 C135.7 295.6 124.1 298.2 122.6 301.5 z" id="n3" style="fill:url(#m3)" /></g></defs><desc>545D55E5HBO,yNQhJ+UiYuJel4Bw5CCkFV/3BGoUeyDjQmota8f0T+hD1Vx9XpLyLNvthHJPi7KXg5ODsH7Md0Rn8wYvpMm58A==</desc></svg>