<?xml version="1.0" encoding="utf-8"?><!DOCTYPE svg PUBLIC "-//W3C//DTD SVG 1.1//EN" "http://www.w3.org/Graphics/SVG/1.1/DTD/svg11.dtd"><svg x="0" y="0" width="340px" height="340px" viewBox="0, 0, 340, 340" preserveAspectRatio="xMidYMid" font-size="0" id="a" enable-background="new 0 0 340 340" xmlns="http://www.w3.org/2000/svg" xmlns:xlink="http://www.w3.org/1999/xlink" xmlns:xml="http://www.w3.org/XML/1998/namespace" version="1.1"><g id="b" fill="#000"><g id="c"><g transform="translate(0, 0) translate(0, 224)" id="d"><ellipse cx="168.6" cy="53.1" rx="57.8" ry="12.8" fill-opacity="0.25" id="e" /></g><g id="f"><g transform="translate(134.2, 241.5) scale(0.75) translate(-134.2, -241.5) translate(85.7, 79.19998) translate(0, 161)" id="g"><path d="M0.4 6.2 C0.3 6.5 -0.6 7.7 0.7 12 C1.5 14.9 3.1 16.7 5.8 19.5 C9.2 23.1 11.9 25.4 15 26.2 C18.1 26.9 25.8 27.2 29.5 28.1 C33.5 29.1 38.9 32.7 41.2 34 C46 36.8 58.3 35.8 61.1 30.3 C62.5 27.5 64.6 23.5 64.1 19.5 C63.5 15.4 60.2 11.4 57.5 12 C52 13.2 48.6 13.1 43.4 13.8 C38.1 14.5 35.9 10.9 29.4 10.9 C26.4 10.9 22.2 10.1 16.3 10.9 C13.7 11.2 8.7 9.6 6.8 8.3 C5.9 7.7 3.6 5.9 2.7 5.5 C1.5 5 0.9 5.2 0.4 6.2 z" id="h" fill="#66493D" /><g transform="translate(0, 5)" id="i"><path d="M37.6 7.9 C34.9 7.5 32.7 6.1 28.6 6.5 C26.1 6.8 22.4 6.5 17.5 7.7 C15.3 8.2 11 7.3 9.2 6.3 C8.4 5.9 6.3 4.6 5.5 4.3 C4.4 4 4 4.2 3.6 5.1 C3.6 5.4 2.9 6.5 4.4 10 C5.3 12.4 6.8 13.8 9.4 15.9 C12.6 18.6 15.1 20.3 17.8 20.8 C20.5 21.1 27 20.7 30.2 21.1 C33.7 21.6 38.6 24.2 40.6 25.1 C44.9 27 55.2 25.1 57.1 20.2 C58 17.7 59.5 14.1 58.7 10.8 C58.4 9.5 57.7 8.2 56.9 7.2 C57.1 7.2 57.3 7.1 57.5 7.1 C60.2 6.5 63.5 10.5 64.1 14.6 C64.6 18.6 62.5 22.6 61.1 25.4 C58.3 30.8 46 31.8 41.2 29 C38.9 27.7 33.5 24.1 29.5 23.1 C25.8 22.2 18.1 21.9 15 21.2 C11.9 20.4 9.2 18.1 5.8 14.5 C3.1 11.7 1.5 9.9 0.7 7 C-0.6 2.7 0.3 1.5 0.4 1.2 C0.9 0.2 1.5 0 2.7 0.5 C3.6 0.9 5.9 2.7 6.8 3.3 C8.7 4.6 13.7 6.2 16.3 5.9 C22.2 5.1 26.4 5.9 29.4 5.9 C33 5.9 35.3 7 37.6 7.9 z" fill-opacity="0.3" id="j" /></g></g><g transform="translate(128.88, 273.9) scale(0.6180328) translate(-125.7, -273.9) translate(105.5, 96.49997) translate(12, 123)" id="k"><path d="M14 38.2 C12.5 33.4 7.1 32.2 3.1 27.7 C-2 21.9 -0.8 7.2 7.5 2.9 C14.4 -0.7 26.3 -1.7 33.5 4.7 C45.7 15.7 37.5 29.3 34.6 36.2 C32 42.3 15 41.8 14 38.2 z" id="l" fill="#2C2F31" /><path d="M14.1 45.6 C14.8 42 14.5 39.5 13.7 37.6 C17.2 39.4 22 38.9 25.5 36.9 C29.8 34.5 36.9 28.7 37.3 29.9 C36.3 32.3 35.2 34.5 34.5 36.2 C32 42.2 35.1 50.4 30.5 55 C26.3 59.3 11.8 57.6 5.5 56.7 C4.2 52.1 6.2 48.4 14.1 45.6 z" id="m" fill="#E8E5E3" /><path d="M13.8 37.7 C12.1 33.3 6.9 32 3.1 27.7 C-2 21.9 -0.8 7.2 7.5 2.9 C14.4 -0.7 26.3 -1.7 33.5 4.7 C45.7 15.7 37.5 29.3 34.6 36.2 C34.5 36.4 34.4 36.6 34.3 36.9 C32.2 42.8 34.9 50.6 30.5 55 C26.3 59.3 11.8 57.6 5.5 56.7 C4.2 52.1 6.2 48.4 14.1 45.6 C14.8 42 14.5 39.5 13.7 37.6 C13.7 37.6 13.8 37.6 13.8 37.7 z M3.9 26.8 C7.6 30.9 12.2 34.6 14 36.2 C14.8 38 15.9 42.7 15.2 46.1 C7.7 48.8 6.2 50.5 6.2 54.3 C12.2 55.2 26 56.8 30 52.7 C34.2 48.5 31.6 41.1 33.5 35.5 C33.7 35.3 33.8 35.1 33.9 34.8 C36.6 28.3 44.4 15.4 32.8 4.9 C26 -1.2 14.7 -0.2 8.1 3.2 C0.2 7.3 -0.9 21.3 3.9 26.8 z" opacity="0.15" id="n" /></g><g transform="translate(211.52, 273.9) scale(0.6180328) translate(-214.7, -273.9) translate(103.6, 96.49997) translate(99, 152) scale(-1, 1) translate(-99, -152) translate(79, 123)" id="o"><path d="M14 38.2 C12.5 33.4 7.1 32.2 3.1 27.7 C-2 21.9 -0.8 7.2 7.5 2.9 C14.4 -0.7 26.3 -1.7 33.5 4.7 C45.7 15.7 37.5 29.3 34.6 36.2 C32 42.3 15 41.8 14 38.2 z" id="p" fill="#2C2F31" /><path d="M14.1 45.6 C14.8 42 14.5 39.5 13.7 37.6 C17.2 39.4 22 38.9 25.5 36.9 C29.8 34.5 36.9 28.7 37.3 29.9 C36.3 32.3 35.2 34.5 34.5 36.2 C32 42.2 35.1 50.4 30.5 55 C26.3 59.3 11.8 57.6 5.5 56.7 C4.2 52.1 6.2 48.4 14.1 45.6 z" id="q" fill="#E8E5E3" /><path d="M13.8 37.7 C12.1 33.3 6.9 32 3.1 27.7 C-2 21.9 -0.8 7.2 7.5 2.9 C14.4 -0.7 26.3 -1.7 33.5 4.7 C45.7 15.7 37.5 29.3 34.6 36.2 C34.5 36.4 34.4 36.6 34.3 36.9 C32.2 42.8 34.9 50.6 30.5 55 C26.3 59.3 11.8 57.6 5.5 56.7 C4.2 52.1 6.2 48.4 14.1 45.6 C14.8 42 14.5 39.5 13.7 37.6 C13.7 37.6 13.8 37.6 13.8 37.7 z M3.9 26.8 C7.6 30.9 12.5 32.1 14 36.2 C14.8 38 16.6 42.3 16 45.7 C8.5 48.3 6.3 50 7.5 54.4 C13.5 55.2 25.2 56.8 29.2 52.8 C33.4 48.5 31.6 41.1 33.6 35.5 C33.7 35.3 33.8 35.1 33.9 34.8 C36.6 28.3 44.4 15.3 32.8 4.9 C26 -1.2 14.7 -0.3 8.1 3.2 C0.2 7.3 -0.9 21.2 3.9 26.8 z" opacity="0.15" id="r" /></g><g transform="translate(105.2, 117.8) translate(21, 73)" id="s"><path d="M10.5 29 C2.2 36.2 3.6 47.2 4 51.8 C4.7 60 6.7 69.2 8.3 74.5 C9.9 79.9 11.9 86.2 19.8 86.7 C27.8 87.2 59 87.2 66.6 86.1 C74.2 84.9 75 84 77.5 78 C81 69.8 88.1 42.5 80.2 33.2 C78.3 31 77 29.6 75.1 28.2 C70.8 25.2 65.8 23.2 62.9 20.8 C60.2 18.6 55.6 14.7 54.8 14 C53 12.4 49.5 11.4 43.9 11.5 C40.1 11.6 36.6 13.5 35.1 14.5 C33.6 15.5 32.2 17.8 26.6 20.7 C21.7 23.6 14.9 25.5 10.5 29 z" id="t" fill="#EBB67F" /><path d="M68.1 85.4 C56.4 86.5 47.8 87 42.1 87 C35.6 87 22 86.9 15.8 85.4 C13.5 84.8 12.8 82.9 12.9 82.3 C13.1 80.9 14.4 79.5 16.9 78.3 L26.7 74.4 L26.7 74.6 C32.5 72.5 37.4 71.5 41.3 71.5 C47.1 71.5 54.2 70.8 55.5 71.4 L66.8 74.6 C70.6 76 71.7 77.7 72.3 78.3 C73.4 79.3 74 79.4 74 81.4 C74 83.4 73 83.7 71.8 84.5 C71 84.8 69.8 85.2 68.1 85.4 z" id="u" fill="#E8E5E3" /><path d="M10.5 29 C14.9 25.5 21.7 23.6 26.6 20.7 C32.2 17.8 33.6 15.5 35.1 14.5 C36.6 13.5 40.1 11.6 43.9 11.5 C49.5 11.4 53 12.4 54.8 14 C55.6 14.7 60.2 18.6 62.9 20.8 C65.8 23.2 70.8 25.2 75.1 28.2 C77 29.6 78.3 31 80.2 33.2 C88.1 42.5 81 69.8 77.5 78 C75 84 74.2 84.9 66.6 86.1 C59 87.2 27.8 87.2 19.8 86.7 C11.9 86.2 9.9 79.9 8.3 74.5 C6.7 69.2 4.7 60 4 51.8 C3.6 47.2 2.2 36.2 10.5 29 z M12 28.9 C4.1 35.8 5.4 46.2 5.8 50.6 C6.5 58.4 8.4 67.2 9.9 72.2 C11.4 77.3 13.3 83.4 20.9 83.8 C28.5 84.3 58.3 84.3 65.5 83.2 C72.7 82.1 73.5 81.2 75.9 75.5 C79.2 67.7 86 41.7 78.5 32.8 C76.7 30.7 75.4 29.4 73.6 28 C69.5 25.1 64.7 23.2 62 20.9 C59.4 18.8 55 15.1 54.3 14.4 C52.6 12.9 49.2 11.9 43.9 12 C40.3 12.1 36.9 13.9 35.5 14.9 C34.1 15.9 32.7 18 27.4 20.8 C22.7 23.8 16.2 25.6 12 28.9 z" opacity="0.15" id="v" /><path d="M41 46.4 C51.1 48.7 74.9 44.4 76 27.8 C69.6 20.2 62.8 20.2 60.1 15 C57.5 9.8 57 7.3 55.6 2.9 C54.8 0.1 35.4 -1.1 31.8 1.3 C29.7 1.5 28.2 7.5 24.6 15 C22.1 20.9 20 18.3 11 28.6 C12 43.4 31.4 46 41 46.4 z" id="w" fill="#E8E5E3" /></g><g transform="translate(132.9, 227.23) scale(1, 0.6626023) translate(-132.9, -224) translate(110.4, 129.2) translate(23, 94)" id="x"><path d="M70.7 75 C68 69.2 71.4 37.6 70.5 27.2 C69.6 17.2 64.6 6.9 59.8 0.9 C57.1 2.4 54.1 3.4 51.2 4.2 C44.9 7.8 41.1 11.5 36.6 16.8 C32 11.4 28.5 8.1 22.8 4.4 C23.1 4.5 16.6 2.6 13.3 0.8 C8.5 6.8 3.6 17.1 2.6 27.1 C1.7 37.5 5.1 69.1 2.4 74.9 C-0.3 80.6 3.2 83.9 7.8 84.9 C10.1 85.4 19.5 85.8 23.1 84.2 C29 81.7 26.2 73.6 25.5 71.3 C23.9 65.5 23.7 49.2 25.7 37.1 C27.1 39 28.7 40.2 31.5 41.6 C31.6 39.8 32.2 38.5 32.1 37.2 C32.2 37.3 32.4 37.5 32.5 37.6 C33.4 39.5 34.8 43.1 36.5 43.8 L36.5 43.7 L36.5 43.8 C38.1 43.2 39.6 39.6 40.5 37.6 C40.6 37.5 40.8 37.3 40.9 37.2 C40.8 38.5 41.4 39.8 41.5 41.6 C44.3 40.2 45.9 38.9 47.3 37.1 C49.3 49.3 49.1 65.5 47.5 71.3 C46.8 73.6 44 81.7 49.9 84.2 C53.5 85.7 62.9 85.4 65.2 84.9 C69.8 84 73.4 80.7 70.7 75 z" id="y" fill="#F9F9F9" /><path d="M24.4 63.5 C25.1 64.2 25.8 64.7 26.7 64.9 C25.8 60.6 25.7 57.1 24.2 54.7 C24.2 52.8 24.3 50.9 24.4 49 L16 42.8 C14.8 41.8 13.1 41.6 11.8 42.5 L3.2 47.9 C3.1 48.2 3 48.6 2.9 48.9 C3 50.7 3 52.5 3.1 54.3 C2.6 57.1 2.4 60 2.5 62.9 C2.8 62.4 3.1 62 3.3 61.5 C3.3 61.7 3.3 61.8 3.3 62 C2.8 65.6 1.7 68.2 0.6 71.8 C1.3 71.6 2.2 71.1 3.1 70.6 C2.9 72.6 2.7 74.2 2.2 75.2 C-0.5 80.9 3 84.2 7.6 85.2 C9.9 85.7 19.3 86.1 22.9 84.5 C28.8 82 26 73.9 25.3 71.6 C25 69.7 24.6 66.8 24.4 63.5 z" id="z" fill="#66493D" /><path d="M69.8 70.5 C70.6 71.1 71.5 71.5 72.3 71.7 C71.2 68.1 70.1 65.5 69.6 61.9 C69.6 61.7 69.6 61.6 69.6 61.4 C69.9 61.9 70.1 62.4 70.4 62.8 C70.5 59.9 70.3 57 69.8 54.2 C69.9 52.4 69.9 50.6 70 48.8 C69.9 48.5 69.8 48.1 69.7 47.8 L61.1 42.4 C59.8 41.6 58.1 41.7 56.9 42.7 L48.5 48.9 C48.6 50.8 48.7 52.7 48.7 54.6 C47.2 57 47.1 60.5 46.2 64.8 C47.1 64.6 47.8 64.1 48.5 63.4 C48.3 66.8 47.9 69.6 47.4 71.4 C46.7 73.7 43.9 81.8 49.8 84.3 C53.4 85.8 62.8 85.5 65.1 85 C69.7 84 73.2 80.7 70.5 75 C70.3 74.1 70 72.5 69.8 70.5 z" id="a1" fill="#66493D" /><path d="M55.2 20.1 C51.5 16.3 43.4 19.8 36.5 27.7 L36.5 27.8 L36.5 27.7 C29.6 19.8 21.5 16.3 17.8 20.1 C12.5 25.5 21.9 38.9 23.9 39.1 C23.6 38.3 24.7 36.2 23.8 34.4 C25.9 38 27.4 39.8 31.5 41.8 C31.6 39.8 32.3 38.3 32.1 36.9 C33 38.2 34.6 43.2 36.6 43.9 L36.6 43.8 L36.6 43.9 C38.6 43.2 40.2 38.1 41.1 36.9 C40.8 38.3 41.6 39.8 41.7 41.8 C45.8 39.8 47.2 38 49.4 34.4 C48.5 36.2 49.6 38.3 49.3 39.1 C51.2 38.9 60.5 25.5 55.2 20.1 z" id="b1" fill="#66493D" /><path d="M47.4 37.4 C46 39.2 44.5 40.4 41.7 41.8 C41.7 41.7 41.7 41.6 41.7 41.5 C41.6 41.5 41.6 41.6 41.5 41.6 C41.4 39.8 40.8 38.5 40.9 37.2 C40 38.8 38.5 43.2 36.6 43.9 L36.6 43.8 L36.6 43.9 C35.9 43.7 35.3 42.9 34.7 42 C33.8 40.6 33.1 38.8 32.5 37.7 C32.5 37.7 32.5 37.6 32.5 37.6 L32.1 37.2 C32.2 38.5 31.6 39.9 31.5 41.8 C28.7 40.4 27.1 39.1 25.7 37.3 C24.8 42.8 24.4 49 24.3 54.8 C25.7 57.2 25.9 60.7 26.7 64.9 C25.8 64.7 25.1 64.2 24.5 63.6 C24.7 66.9 25.1 69.6 25.5 71.3 C26.1 73.2 28 78.9 25.6 82.3 C25 83.2 24.2 84 22.9 84.5 C19.3 86.1 9.9 85.7 7.6 85.2 C3 84.2 -0.5 80.9 2.2 75.2 C2.7 74.2 2.9 72.6 3.1 70.6 C2.2 71.1 1.3 71.6 0.6 71.8 C1.7 68.2 2.8 65.6 3.3 62 L3.3 61.5 C3.1 62 2.8 62.4 2.5 62.9 C2.4 60 2.6 57.1 3.1 54.3 C3 52.5 3 50.7 2.9 48.9 C2.9 48.8 3 48.7 3 48.6 C2.6 40 2.2 31.6 2.6 27.1 C3.6 17.1 8.5 6.8 13.3 0.8 C16.6 2.6 23.1 4.5 22.8 4.4 C28.5 8.1 32 11.4 36.6 16.8 C41.1 11.5 44.9 7.8 51.2 4.2 C54.1 3.4 57.1 2.4 59.8 0.9 C64.6 6.9 69.6 17.2 70.5 27.2 C71 32.7 70.2 44.1 69.9 54.5 C70.4 57.2 70.5 60 70.4 62.8 C70.1 62.4 69.9 62 69.7 61.5 C69.7 61.7 69.7 62 69.7 62.2 C70.2 65.6 71.3 68.2 72.4 71.7 C71.6 71.5 70.7 71.1 69.9 70.5 C70.1 72.5 70.3 74.1 70.8 75 C73 79.6 71.1 82.6 67.8 84.1 C67 84.5 66.1 84.8 65.2 85 C62.9 85.5 53.5 85.8 49.9 84.3 C44 81.8 46.8 73.7 47.5 71.4 C48 69.6 48.4 66.8 48.6 63.4 C47.9 64.1 47.2 64.6 46.3 64.8 C47.2 60.5 47.3 57 48.8 54.6 C48.8 52.7 48.7 50.8 48.6 48.9 L48.6 48.9 C48.3 45 47.9 41 47.4 37.4 z M50.1 32.5 L48.6 36.7 C49 38.9 49.1 41.6 49.1 44.6 C49.2 46.4 50.1 49.9 50.1 51.7 C49.5 55.7 48.6 58.1 47.8 62.1 C48.6 61.9 49.5 61.4 50.1 60.8 C49.9 64 49.5 68 49.1 69.6 C48.5 71.7 46.3 78.2 51.8 80.5 C55.1 81.9 63.6 81.5 65.7 81.1 C69.7 80.5 70.2 75.9 68.2 71.6 C67.8 70.8 67.6 68.5 67.4 66.6 C68.1 67.1 69.1 68 69.9 68.2 C68.9 65 67.7 63 67.3 59.8 C67.3 59.6 67.5 58.1 67.5 57.9 C67.7 58.3 68.6 58.8 68.9 59.1 C69 56.5 68.5 54.4 68.1 51.9 C68.5 42.3 68.5 32.4 68.1 27.3 C67.3 18 64.3 7.5 59.8 2 C57.3 3.4 52.9 5.3 50.2 6 C44.4 9.3 40.8 15.9 36.6 20.8 C32.3 15.8 29.1 9.6 23.9 6.1 C24.2 6.2 16.8 3.6 13.7 1.9 C9.3 7.5 5.6 17.1 4.7 26.4 C4.2 30.7 4.9 50 5 51.6 C4.5 54.2 4 56.1 4.1 58.8 C4.3 58.5 5 58.1 6.3 57.6 C5.8 60.9 4.3 65.3 3.3 68.7 C3.9 68.5 5 68.7 5.8 68.2 C5.6 70.1 5.5 71.9 5.1 72.8 C2.6 78.1 5.6 80.1 9.8 81.1 C11.9 81.6 18.1 81.9 19.8 81.9 C21.5 81.9 23.8 79.9 24.4 79 C26.7 75.8 24.5 71.2 24 69.5 C23.6 67.9 23.6 65 23.4 62 C24 62.6 24.8 62.3 25.6 62.5 C24.8 58.6 24.8 56.5 23.4 54.2 C23.5 48.8 23.6 39.5 24.4 34.4 C25.7 36.1 28.1 38.5 30.7 39.8 C30.8 38.1 31.5 35.6 31.4 34.4 C33.4 37.5 34.7 39.4 35.2 40.3 C35.6 40.9 36.2 41.2 37.2 41.5 C39.7 37.8 41.2 35.5 41.8 34.5 C41.7 35.7 42.7 39.8 42.7 39.9 C45.2 38.6 48.8 34.1 50.1 32.5 z" opacity="0.15" id="c1" /></g></g><g id="d1"><g transform="translate(98.1, 100.9) translate(30, 28)" id="e1"><g id="f1"><path d="M25.3 87.5 C28.4 87.8 32.5 88 35 86.7 C37.7 85.3 39.2 83.9 41.4 81.5 C43.9 85 46 86.1 49.2 87.5 C52.2 88.9 56.2 87.9 58.7 87.2 C61.2 86.4 66.9 83.2 67.5 79.5 C68.2 75.3 68.7 70.2 66.8 63.2 C65.2 57.1 57.5 53.8 53.8 49.9 C51.1 47 47.5 36.3 47.2 34.6 C46.4 31.2 46.5 27.6 47.7 20.5 C48.9 12.9 53.8 10.5 53.8 8 C53.8 5.6 48.7 10 42.5 10.1 C36.4 10.2 29.7 4.7 29.7 8 C29.7 11.4 34.7 13.8 35.7 19.5 C36.7 25.2 36.7 28.1 35.7 34 C35.1 37.5 31.6 47.8 28.3 50.4 C22.6 54.9 15.7 59.4 15.1 65.9 C14.5 72.6 13.8 76.4 15.7 80.1 C18 84.9 22.2 87.1 25.3 87.5 z" id="g1" fill="#594F46" /><path d="M41.4 1.3 C51.8 1.3 50.7 0.2 54.1 -0.5 C57.5 -1.2 67.3 8.9 71.2 13.2 C75.1 17.5 77.7 25 79.9 29.5 C82.1 34 80.7 43 82.4 52.4 C83.4 58.1 85.2 62.5 83.8 68.2 C82.9 72 80.7 77.3 76 81.2 C60.7 93.6 47.9 95.2 41.4 95.5 C35 95.8 18.6 90.1 8.1 81.4 C3.1 77.2 0.5 72.5 -0.2 68.4 C-1 64 0.4 60.1 1.4 52.6 C3.3 38.1 3.2 39.6 3.1 31.6 C2.7 23 22.7 0.8 26.8 -0.6 C30.9 -2 31.2 1.3 41.4 1.3 z" id="h1" fill="#EBB67F" /><path d="M47.4 5.1 C50.5 4.7 53.8 1.9 54.4 1.9 C55.9 1.9 68.9 12.7 71.3 16.5 C73.7 20.5 78.7 27.9 79.1 28.3 C79.1 28.3 79.2 28.3 79.3 28.3 C77.2 23.6 74.7 17.1 71.1 13.2 C67.3 8.8 57.6 -1.3 54.2 -0.6 C50.8 0.1 51.8 1.2 41.5 1.2 C31.2 1.2 30.9 -1.9 26.8 -0.6 C23.6 0.4 10.8 14.1 5.5 24.1 C7.7 21.8 12.7 15.9 17.5 11 C22.1 6.4 26.7 2.4 27.5 2.1 C29.3 1.4 31.5 4.9 37 5.2 C38.1 8 41.1 14.7 41 15.6 C40.8 17.7 41.6 23.6 41 25.6 C39 32.5 34.7 34.5 31.4 37 C26 35.6 22 32.8 18.6 34.9 C15.2 36.9 13.1 40.3 15.3 44.3 C16.5 48.1 20.5 51.3 20.4 56.2 C19.5 58.2 14.5 61.8 10.1 63.6 C11.4 65.7 12.5 67.1 13.4 67.9 C15.4 69.6 19.6 76 20.4 78.7 C21.5 82.6 22.7 85.8 26.6 88.9 C29.7 89.7 34.9 89.8 42.1 89.1 C49.4 89.8 54.6 89.7 57.6 88.9 C64.3 85.2 62.4 84.8 63.5 80.9 C64.3 78.2 68.8 69.6 70.8 67.9 C71.7 67.1 72.8 65.7 74.1 63.6 C69.7 61.8 65.5 59 64.6 57 C63.7 55 64.3 54.6 65.6 50.8 C70.3 45.2 71.4 37.2 65.6 35.1 C59.8 33 58.2 35.8 52.8 37.2 C49.5 34.7 45.1 32.7 43.2 25.8 C42.6 23.8 43.4 17.9 43.2 15.8 C43.1 14.9 46.1 8 47.2 5.2 C47.2 5.2 47.3 5.1 47.4 5.1 z" id="i1" fill="#AA6F4F" /><path d="M41.4 1.3 C51.8 1.3 50.7 0.2 54.1 -0.5 C57.5 -1.2 67.3 8.9 71.2 13.2 C75.1 17.5 77.7 25 79.9 29.5 C82.1 34 80.7 43 82.4 52.4 C83.4 58.1 85.2 62.5 83.8 68.2 C82.9 72 80.7 77.3 76 81.2 C60.7 93.6 47.9 95.2 41.4 95.5 C35 95.8 18.6 90.1 8.1 81.4 C3.1 77.2 0.5 72.5 -0.2 68.4 C-1 64 0.4 60.1 1.4 52.6 C3.3 38.1 3.2 39.6 3.1 31.6 C2.7 23 22.7 0.8 26.8 -0.6 C30.9 -2 31.2 1.3 41.4 1.3 z M41.4 2.1 C31.5 2.1 31.2 -1.1 27.4 0.3 C23.6 1.7 4.3 23 4.7 31.1 C4.8 38.9 4.9 37.3 3.1 51.3 C2.1 58.6 0.8 62.3 1.6 66.5 C2.3 70.4 4.8 75 9.6 79 C19.6 87.4 35.4 92.8 41.5 92.5 C47.7 92.2 59.9 90.7 74.7 79 C79.2 75.3 81.3 70.2 82.2 66.5 C83.5 60.9 81.8 56.7 80.9 51.3 C79.3 42.3 80.6 33.7 78.5 29.3 C76.4 24.9 73.8 17.9 70 13.7 C66.2 9.5 56.9 -0.3 53.6 0.4 C50.3 1.1 51.4 2.1 41.4 2.1 z" opacity="0.15" id="j1" /></g></g><g transform="translate(101.1, 103.8) translate(21, 2)" id="k1"><g transform="translate(18.02073, 23.28844) scale(-1, 1) rotate(-6, 0, 0) translate(-18.02073, -23.28844) translate(2.520727, 1.788439)" id="l1"><path d="M1.7 25.8 C-1.9 23.8 -2.7 23.7 -1.4 20.5 C-0.1 17.3 2.4 17.8 5 15.3 C7.6 12.8 13.5 8.6 17.4 6.7 C21.3 4.8 23.7 2.5 25.7 4.7 C27.7 6.9 29.1 12.8 28 18.9 C26.9 25 23.5 30.4 23.1 33.3 C22.7 36.2 21.9 40.6 20.2 42.9 C19.7 43.6 18.2 45.3 17.3 45.8 C15.4 46.7 14 44.9 12.6 41.3 C12.3 40.4 10.5 34.3 8.6 32.4 C6.3 29.9 5.4 27.8 1.7 25.8 z" id="m1" fill="#66493D" /><path d="M1.7 25.8 C-1.9 23.8 -2.7 23.7 -1.4 20.5 C-0.1 17.3 2.4 17.8 5 15.3 C7.6 12.8 13.5 8.6 17.4 6.7 C21.3 4.8 23.7 2.5 25.7 4.7 C27.7 6.9 29.1 12.8 28 18.9 C26.9 25 23.5 30.4 23.1 33.3 C22.7 36.2 21.9 40.6 20.2 42.9 C19.7 43.6 18.2 45.3 17.3 45.8 C15.4 46.7 14 44.9 12.6 41.3 C12.3 40.4 10.5 34.3 8.6 32.4 C6.3 29.9 5.4 27.8 1.7 25.8 z M3.9 24.6 C7.2 26.4 8 28.3 10 30.5 C11.7 32.2 13.3 37.7 13.6 38.5 C14.8 41.7 16.1 43.4 17.8 42.5 C18.6 42.1 19.9 40.5 20.4 39.9 C21.9 37.8 22.6 33.9 23 31.3 C23.4 28.7 26.4 23.8 27.4 18.3 C28.4 12.8 27.1 7.5 25.4 5.5 C23.6 3.5 21.5 5.6 18 7.3 C14.5 9 9.3 12.8 6.9 15 C4.5 17.2 2.4 16.8 1.2 19.7 C0 22.6 0.7 22.8 3.9 24.6 z" opacity="0.15" id="n1" /><path d="M5.7 24.6 C3.7 23.6 2.3 23 3.3 20.4 C3.9 18.9 7.5 16.8 10.9 14.2 C13.3 12.3 16.2 10.3 18 9.3 C20.6 7.8 21.8 6.3 23.5 7.6 C25.1 8.9 26.5 14.5 25.7 19.2 C24.9 24 20 35.8 18.7 37.6 C17.4 39.4 16.1 42.4 14.5 38.2 C12.9 34 12.6 31.4 10.9 29.6 C9.2 27.8 7.7 25.6 5.7 24.6 z" id="o1" fill="#AA6F4F" /><path d="M8.2 26.4 C8.3 25.4 9.1 23.7 9.3 23.3 C9.6 22.7 12.3 21.1 14.6 19.7 C15.6 19 18.6 17.4 18.6 17.4 C20.2 16.5 20.1 19.9 18.6 22.6 C17.7 24.2 15.1 29.9 13.3 31.6 C12.7 32.2 12.2 31.1 11 29.5 C9.9 28.1 8.1 26.8 8.2 26.4 z" opacity="0.5" id="p1" fill="#66493D" /></g></g><g transform="translate(92.79996, 103.8) translate(100.9, 24.5) scale(-1, 1) translate(-100.9, -24.5) translate(82.40002, 0)" id="q1"><g transform="translate(18.19189, 24.4854) scale(-1, 1) rotate(-7, 0, 0) translate(-18.19189, -24.4854) translate(2.691893, 2.485396)" id="r1"><path d="M5.4 26.9 C1.8 24.9 1 24.8 2.3 21.6 C3.6 18.4 6.1 18.9 8.7 16.4 C11.3 13.9 17.2 9.7 21.1 7.8 C25 5.9 27.4 3.6 29.4 5.8 C31.4 8 32.8 14 31.7 20.1 C30.7 26.2 27.1 31.6 26.8 34.5 C26.4 37.4 25.6 41.8 23.9 44.1 C23.4 44.8 21.9 46.5 21 47 C19.1 47.9 18.5 47.3 17.1 43.7 C16.8 42.8 17 42 16.7 41.2 C15.3 37.5 14.2 35.4 12.3 33.5 C9.9 31.1 9 29 5.4 26.9 z" id="s1" fill="#66493D" /><path d="M5.4 26.9 C1.8 24.9 1 24.8 2.3 21.6 C3.6 18.4 6.1 18.9 8.7 16.4 C11.3 13.9 17.2 9.7 21.1 7.8 C25 5.9 27.4 3.6 29.4 5.8 C31.4 8 32.8 14 31.7 20.1 C30.7 26.2 27.1 31.6 26.8 34.5 C26.4 37.4 25.6 41.8 23.9 44.1 C23.4 44.8 21.9 46.5 21 47 C19.1 47.9 18.5 47.3 17.1 43.7 C16.8 42.8 17 42 16.7 41.2 C15.3 37.5 14.2 35.4 12.3 33.5 C9.9 31.1 9 29 5.4 26.9 z M7.1 25.9 C10.4 27.8 11.2 29.8 13.4 32 C15.1 33.8 16.2 35.7 17.4 39.1 C17.7 39.8 17.5 40.6 17.8 41.4 C19.1 44.7 19.6 45.3 21.4 44.4 C22.2 43.9 23.6 42.4 24.1 41.7 C25.7 39.6 26.4 35.5 26.8 32.8 C27.1 30.1 30.4 25.1 31.3 19.5 C32.3 13.9 31 8.3 29.2 6.3 C27.4 4.3 25.2 6.4 21.6 8.1 C18 9.8 12.6 13.7 10.2 16 C7.8 18.3 5.5 17.8 4.3 20.8 C3.1 23.8 3.8 24.1 7.1 25.9 z" opacity="0.15" id="t1" /><path d="M9.4 25.7 C7.4 24.7 6 24.1 7 21.5 C7.6 20 11.2 17.9 14.6 15.3 C17 13.4 19.9 11.4 21.7 10.4 C24.3 8.9 25.5 7.4 27.2 8.7 C28.8 10 30.2 15.6 29.4 20.3 C28.6 25.1 23.7 36.9 22.4 38.7 C21.1 40.5 19.8 43.5 18.2 39.3 C16.6 35.1 16.3 32.5 14.6 30.7 C12.9 29 11.4 26.8 9.4 25.7 z" id="u1" fill="#AA6F4F" /><path d="M11.5 26.9 C11.6 25.9 12.8 24.9 13 24.5 C13.3 23.9 16 22.3 18.3 20.9 C19.3 20.2 22.3 18.6 22.3 18.6 C23.9 17.7 23.8 21.1 22.3 23.8 C21.4 25.4 18.8 31.1 17 32.8 C15.8 33.9 14.9 30.4 14.4 30.5 C13.3 28.9 11.4 27.8 11.5 26.9 z" opacity="0.5" id="v1" fill="#66493D" /></g></g><g id="w1"><g transform="translate(98.09998, 100.5) translate(48, 59)" id="x1"><path d="M20.8 18.1 C16.8 24.1 17.8 22 13.5 24.4 C9.2 26.8 2.1 27.7 0.4 31.4 C-1.3 35.1 -0.8 38.9 -0.2 43.6 C0.4 48.3 4.8 56.1 9 56.4 C9.9 56.5 11.9 55.1 15.8 52.2 C17 51.3 19.5 50.4 23.3 49.4 C26.8 50.3 29.3 51.3 30.7 52.2 C34.2 54.6 36.6 56 39 56 C45.5 56 47.7 47.7 48.1 43.7 C48.5 39.4 49.5 33.8 46.7 30.4 C45 28.2 38.1 26.2 34.8 24.4 C31.5 22.7 28.9 22.4 26.5 17 C24.1 11.6 24.8 12.2 20.8 18.1 z" id="y1" fill="#F9F9F9" /><path d="M20.8 18.1 C24.8 12.1 24 11.6 26.4 17 C28.8 22.4 31.4 22.7 34.7 24.4 C38 26.2 44.9 28.2 46.6 30.4 C49.4 33.9 48.4 39.5 48 43.7 C47.6 47.7 45.4 56 38.9 56 C36.5 56 34.1 54.6 30.6 52.2 C29.2 51.3 26.7 50.3 23.2 49.4 C19.4 50.4 16.9 51.3 15.7 52.2 C11.8 55.1 9.8 56.5 8.9 56.4 C4.7 56.1 0.4 48.2 -0.2 43.5 C-0.8 38.8 -1.3 35 0.4 31.3 C2.1 27.6 9.2 26.7 13.5 24.3 C17.8 21.9 16.9 24.1 20.8 18.1 z M21 18.9 C17.2 24.3 18.2 22.4 14.1 24.6 C10 26.8 3.3 27.6 1.7 30.9 C0.1 34.2 0.6 37.7 1.2 42 C1.8 46.3 5.8 53.4 9.7 53.7 C10.5 53.8 12.4 52.5 16.1 49.9 C17.2 49.1 19.6 48.3 23.2 47.4 C26.5 48.2 28.9 49.1 30.2 49.9 C33.5 52.1 35.8 53.3 38 53.3 C44.1 53.3 46.2 45.8 46.6 42.1 C47 38.2 47.9 33.1 45.3 29.9 C43.7 27.9 37.2 26.1 34.1 24.5 C31 23 28.5 22.7 26.3 17.8 C24.1 12.9 24.7 13.5 21 18.9 z" opacity="0.15" id="z1" /></g><g transform="translate(169.4, 204.7) scale(1) translate(-169.4, -208.7) translate(96.39996, 110.1) translate(63, 97)" id="a2"><g transform="translate(0, 1)" id="b2"><path d="M0.7 6.7 C1.9 6.8 2.7 6.9 3.3 6.8 C5 6.7 6.5 6.2 7.2 5.8 C8.1 5.3 8.8 4.8 9.5 4.3 C9.7 4.1 9.5 0.3 10 0.3 C10.5 0.3 10.4 4.1 10.5 4.2 C11.2 4.9 12 5.4 12.8 5.8 C13.5 6 14.3 6.5 16.1 6.7 C16.7 6.8 17.9 6.7 19.7 6.6 C16.3 7.4 14 7.9 12.8 8 C11.1 8.2 8.3 8 7.2 8 C5.2 8.1 3 7.6 0.7 6.7 z" id="c2" /></g></g><g transform="translate(90.99997, 123.5999) translate(68, 59)" id="d2"><g id="e2"><path d="M11.1 0.8 C15.4 0.8 16.5 1.2 19.7 3.5 C22.9 5.8 21.6 9.8 20.2 12.2 C19.7 13 18.6 13.6 17.6 14.9 C16.8 15.9 16.1 17.7 15.2 18.3 C13.9 19.2 12.7 19.6 10.9 19.5 C9.1 19.5 7.6 19 6.4 18.3 C4.4 17.1 3.9 15.5 3.1 14 C2.6 13.1 1.1 11.7 0.7 10.5 C0 8.5 -0.3 6.3 0.9 4.4 C2.9 1.4 6.7 0.8 11.1 0.8 z" id="f2" fill="#282421" /><path d="M3.2 4.8 C3.2 5.2 5.1 4.3 7.3 3.9 C8.3 3.7 9.4 3.6 10.9 3.6 C12.4 3.6 14.7 4.6 14.3 5.2 C13.7 6.1 14.1 7.5 15.7 7.9 C16.4 8 17 8 17.9 7.7 C18.8 7.3 19 6.7 19.1 6.1 C19.2 5.5 19.2 4.7 17.9 4 C17.6 3.8 16.2 2.8 14.4 2.6 C12.2 2.4 10.4 2.4 8.8 2.6 C7.2 2.8 6 3 5.1 3.4 C3.8 4 3.2 4.6 3.2 4.8 z" id="g2" fill="#FFF" /></g></g><g transform="translate(98.09998, 100.5) translate(45, 45)" id="h2"><path d="M-0.7 21.6 C0.6 15.5 4.2 10.3 6.1 8.6 C7.4 7.5 10.9 6.6 13.8 5.6 C14.5 5.3 10.6 5.7 10.1 4.6 C9.3 2.8 11.3 1.8 12.3 1 C13.1 0.4 14.3 -0.2 16.4 -0.2 C18.5 -0.2 19.6 0.1 20.3 2 C21 3.9 18.5 7.9 18.5 10.2 C18.5 12.5 18.5 19 18.5 20.4 C18.5 21.8 15.7 31.3 13.8 33.1 C11.9 34.9 12.1 21.6 7 21.6 C1.9 21.6 -2 27.7 -0.7 21.6 z" id="i2" fill="#AA6F4F" /><g transform="translate(6, 10)" id="j2"><ellipse cx="5.3" cy="4.9" rx="5.6" ry="5.5" id="k2" /><path d="M7.6 4.4 C7.8 3.4 7.1 2.4 6.1 2.3 C5.1 2.2 4.2 2.7 4 3.7 C3.8 4.7 4.5 5.7 5.5 5.8 C5.6 5.8 5.6 5.8 5.7 5.8 C5.7 5.6 5.7 5.5 5.7 5.3 C5.8 4.6 6.5 4.1 7.2 4.3 C7.3 4.3 7.5 4.4 7.6 4.4 C7.6 4.5 7.6 4.4 7.6 4.4 z" id="l2" fill="#FFFFFE" /><circle cx="5" cy="5.7" r="1" id="m2" fill="#FFFFFE" /></g></g><g transform="translate(97.99998, 100.5) translate(78, 46)" id="n2"><path d="M21.1 20.6 C19.8 14.5 16.2 9.3 14.3 7.6 C13 6.5 9.5 5.6 6.6 4.6 C6 4.3 9 4.5 9.5 3.4 C10.5 1.7 8.5 0.1 6.8 -0.5 C5.1 -1.1 0.9 -2.1 0 1.3 C-0.9 4.7 2 6.9 2 9.2 C2 11.5 2 18 2 19.4 C2 20.8 4.8 30.3 6.7 32.1 C8.6 33.9 8.3 20.8 13.5 20.8 C18.7 20.8 22.4 26.7 21.1 20.6 z" id="o2" fill="#AA6F4F" /><g transform="translate(4, 9)" id="p2"><ellipse cx="5.2" cy="4.9" rx="5.6" ry="5.5" id="q2" /><path d="M7.5 4.4 C7.7 3.4 7 2.4 6 2.3 C5 2.1 4.1 2.8 3.9 3.8 C3.7 4.8 4.4 5.8 5.4 5.9 C5.5 5.9 5.5 5.9 5.6 5.9 C5.6 5.7 5.6 5.6 5.6 5.4 C5.7 4.7 6.4 4.2 7.1 4.4 C7.2 4.4 7.4 4.5 7.5 4.4 C7.5 4.5 7.5 4.4 7.5 4.4 z" id="r2" fill="#FFFFFE" /><circle cx="4.9" cy="5.7" r="1" id="s2" fill="#FFF" /></g></g></g></g></g></g><defs><g transform="translate(17.09519, 0.800995) translate(-135.2952, -293.601)" id="t2" fill="#000"><path d="M118.2 302.7 C118.4 307.4 132.5 311.2 149.8 311.2 C167.1 311.2 181.2 307.4 181.4 302.7 C181.4 307.5 181.4 310.1 181.4 310.5 C181.4 315.3 167.3 319.1 149.8 319.1 C132.3 319.1 118.2 315.2 118.2 310.5 L118.2 302.7 L118.2 302.7 z" fill-opacity="0.4528" id="u2" fill="#593001" /><path d="M118.7 301.7 C118.9 306.4 133 310.2 150.3 310.2 C167.6 310.2 181.7 306.4 181.9 301.7 C181.9 306.5 181.9 309.1 181.9 309.5 C181.9 314.3 167.8 318.1 150.3 318.1 C132.8 318.1 118.7 314.2 118.7 309.5 L118.7 301.7 L118.7 301.7 z" id="v2" fill="#DA8113" /><linearGradient x1="46.0545" y1="-118.6926" x2="45.4656" y2="-118.6926" gradientUnits="userSpaceOnUse" gradientTransform="matrix(117.135, 0, 0, 28.4634, -5208.417, 3687.795)" id="w2"><stop offset="0%" stop-color="#D9952A" stop-opacity="1" /><stop offset="6.438854%" stop-color="#CA7519" stop-opacity="1" /><stop offset="30.54%" stop-color="#E3AD3A" stop-opacity="1" /><stop offset="51.05%" stop-color="#FFEC91" stop-opacity="1" /><stop offset="68.8%" stop-color="#E9BD44" stop-opacity="1" /><stop offset="86.24%" stop-color="#FFED6C" stop-opacity="1" /><stop offset="93.87%" stop-color="#F2D353" stop-opacity="1" /><stop offset="100%" stop-color="#F2B947" stop-opacity="1" /></linearGradient><path d="M118.2 301.6 C118.4 306.1 132.7 309.7 150.3 309.7 C167.9 309.7 182.2 306.1 182.4 301.6 C182.4 306.2 182.4 308.7 182.4 309 C182.4 313.5 168 317.2 150.3 317.2 C132.6 317.2 118.2 313.5 118.2 309 L118.2 301.6 L118.2 301.6 z" id="x2" style="fill:url(#w2)" /><linearGradient x1="45.4914" y1="-117.9547" x2="45.9407" y2="-117.5895" gradientUnits="userSpaceOnUse" gradientTransform="matrix(115.425, 0, 0, 29.925, -5125.077, 3826.124)" id="y2"><stop offset="0%" stop-color="#F4E072" stop-opacity="1" /><stop offset="100%" stop-color="#DB9427" stop-opacity="1" /></linearGradient><ellipse cx="150.3" cy="301.5" rx="31.6" ry="8.2" id="z2" style="fill:url(#y2)" /><linearGradient x1="45.4656" y1="-126.0065" x2="46.0545" y2="-126.0065" gradientUnits="userSpaceOnUse" gradientTransform="matrix(117.135, 0, 0, 18.6219, -5208.417, 2651.479)" id="a3"><stop offset="0%" stop-color="#D9952A" stop-opacity="1" /><stop offset="6.438854%" stop-color="#CA7519" stop-opacity="1" /><stop offset="30.54%" stop-color="#E3AD3A" stop-opacity="1" /><stop offset="51.05%" stop-color="#FFEC91" stop-opacity="1" /><stop offset="68.8%" stop-color="#E9BD44" stop-opacity="1" /><stop offset="86.24%" stop-color="#FFED6C" stop-opacity="1" /><stop offset="93.87%" stop-color="#F2D353" stop-opacity="1" /><stop offset="100%" stop-color="#F2B947" stop-opacity="1" /></linearGradient><path d="M119.2 299.9 C119 300.2 118.9 300.6 118.9 301 C118.9 305.5 132.9 309.2 150.3 309.2 C167.7 309.2 181.7 305.5 181.7 301 C181.7 300.6 181.6 300.3 181.4 299.9 C182 300.5 182.4 301.2 182.4 301.9 C182.4 306.4 168 310.1 150.3 310.1 C132.6 310.1 118.2 306.4 118.2 301.9 C118.2 301.3 118.6 300.6 119.2 299.9 z" id="b3" style="fill:url(#a3)" /><linearGradient x1="45.196" y1="-121.5895" x2="45.3746" y2="-120.6758" gradientUnits="userSpaceOnUse" gradientTransform="matrix(101.745, 0, 0, 23.94, -4458.332, 3199.41)" id="c3"><stop offset="0%" stop-color="#F8DD61" stop-opacity="1" /><stop offset="100%" stop-color="#EAA330" stop-opacity="1" /></linearGradient><ellipse cx="150.3" cy="300.8" rx="27.8" ry="6.6" id="d3" style="fill:url(#c3)" /><linearGradient x1="45.5694" y1="-134.267" x2="45.0221" y2="-134.267" gradientUnits="userSpaceOnUse" gradientTransform="matrix(101.745, 0, 0, 13.2525, -4458.332, 2077.223)" id="e3"><stop offset="0%" stop-color="#F4CA2F" stop-opacity="1" /><stop offset="51.38%" stop-color="#BF7737" stop-opacity="1" /><stop offset="100%" stop-color="#E4A929" stop-opacity="1" /></linearGradient><path d="M122.6 301.5 C122.5 301.3 122.4 301 122.4 300.8 C122.4 297.2 134.9 294.2 150.2 294.2 C165.5 294.2 178 297.1 178 300.8 C178 301 177.9 301.3 177.8 301.5 C176.3 298.2 164.5 295.6 150.1 295.6 C135.7 295.6 124.1 298.2 122.6 301.5 z" id="f3" style="fill:url(#e3)" /></g></defs><desc>2BHC7E7I57D,iGzOP3lp0mGK4non9NaQJZegm73PoWv2u3sHBCRJCyfAjZKvXh0wzyZQ0XQ1E6IjGWgHHWDHnvZtHwzDugWYBg==</desc></svg>