<?xml version="1.0" encoding="utf-8"?><!DOCTYPE svg PUBLIC "-//W3C//DTD SVG 1.1//EN" "http://www.w3.org/Graphics/SVG/1.1/DTD/svg11.dtd"><svg x="0" y="0" width="340px" height="340px" viewBox="0, 0, 340, 340" preserveAspectRatio="xMidYMid" font-size="0" id="a" enable-background="new 0 0 340 340" xmlns="http://www.w3.org/2000/svg" xmlns:xlink="http://www.w3.org/1999/xlink" xmlns:xml="http://www.w3.org/XML/1998/namespace" version="1.1"><g id="b" fill="#000"><g id="c"><g transform="translate(0, 0) translate(0, 224)" id="d"><ellipse cx="168.6" cy="53.1" rx="57.8" ry="12.8" fill-opacity="0.25" id="e" /></g><g id="f"><g transform="translate(97.8, 99.19998) translate(20.5, 139.5) scale(-1, 1) translate(-20.5, -139.5) translate(0, 122)" id="g"><g id="h"><path d="M28.3 1.5 C38.6 0.6 40.4 9.4 40.6 11.6 C39.9 11.2 39.2 10.8 38.5 10.4 C39.3 12.6 39.7 15.1 39.7 17.8 C38.6 16.4 36.7 14.8 34.9 13.9 C35.7 15.2 36.5 16.5 37.4 17 C35.4 17.6 34.6 18.2 31 17.7 C28.6 17.4 27.5 17.8 24.4 18.3 C23.8 18.4 19.5 10.8 21.8 5.7 C23.2 3.5 27.3 1.5 28.3 1.5 z" id="i" fill="#E2DED5" /><path d="M6 15 C9.4 15.8 13.3 15.1 15.9 12.7 C16.5 12.2 17 11.5 17.6 10.9 C19.7 7.6 21.8 4.2 23.8 0.9 C23.8 1.7 23.7 2.5 23.6 3.2 C25 2.2 26.5 1.5 28.3 1.3 C25.8 4 23.8 7.1 22.4 10.5 C22.8 10.5 23.3 10.4 23.8 10.3 C24.8 10 26.6 9.5 27.4 8.4 C27.4 10.5 26.9 11.4 26.2 12.1 C28.3 11.9 30.4 12.2 32.4 13 C29.6 13.4 27.8 16.2 25.4 17.6 C25.5 17.6 28.8 17 30.9 17.9 C31 18.1 31.1 18.4 31.2 18.6 C32.2 21 32.3 23.7 31.5 26.1 C30.7 24.4 29.5 22.8 28.1 21.5 C28.6 25.5 27.5 29.7 25.6 32.8 C25.4 29.1 25.6 25.3 21.5 23.8 C23.2 26.6 21.3 31.3 20.7 34.1 C20.5 31.6 20.2 29.1 19.1 26.8 C16.2 20.4 14.9 21 9.6 21.6 C6.3 21.9 1.1 21 1 18.4 C0.9 15.8 4.2 14.6 6 15 z" id="j" fill="#32363A" /><path d="M30 17.6 C30.3 17.7 30.6 17.8 30.9 17.9 C31 18.1 31.1 18.4 31.2 18.6 C32.2 21 32.3 23.7 31.5 26.1 C30.7 24.4 29.5 22.8 28.1 21.5 C28.6 25.5 27.5 29.7 25.6 32.8 C25.4 29.1 25.6 25.3 21.5 23.8 C23.2 26.6 21.3 31.3 20.7 34.1 C20.5 31.6 20.2 29.1 19.1 26.8 C16.2 20.4 14.9 21 9.6 21.6 C6.3 21.9 1.1 21 1 18.4 C0.9 15.8 4.2 14.6 6 15 C9.4 15.8 13.3 15.1 15.9 12.7 C16.5 12.2 17 11.5 17.6 10.9 C19.7 7.6 21.8 4.2 23.8 0.9 C23.8 1.7 23.7 2.5 23.6 3.2 C25 2.2 26.5 1.5 28.3 1.3 C28.2 1.4 28.2 1.4 28.1 1.5 C28.2 1.5 28.2 1.5 28.3 1.5 C38.6 0.6 40.4 9.4 40.6 11.6 L38.5 10.4 C39.3 12.6 39.7 15.1 39.7 17.8 C38.6 16.4 36.7 14.8 34.9 13.9 C35.7 15.2 36.5 16.5 37.4 17 C35.4 17.6 34.6 18.2 31 17.7 C30.6 17.7 30.3 17.6 30 17.6 z M29.8 16.1 C29.5 16 33.3 16.9 35.1 16.4 C34.3 15.9 34.1 13.3 33.3 12.1 C35 12.9 37.9 14.3 38.9 15.6 C38.9 13.2 38.2 10.6 37.5 8.7 L39.8 10 C39.7 8.1 37 1.6 27.7 2.4 C27.6 2.4 28.5 2 28.4 2 C28.5 1.9 28.5 1.9 28.6 1.8 C27 2 24.4 4.3 23.2 5.2 C23.2 4.6 23.2 3.4 23.2 2.7 C21.3 5.6 20.8 7.4 18.9 10.3 C18.4 10.9 17.9 11.5 17.4 11.9 C15 14.1 11 16.9 7.9 16.2 C6.2 15.8 2.7 15.8 2.8 18.1 C2.9 20.4 8.7 20.1 11.6 19.8 C16.5 19.3 16.6 18.2 19.2 23.9 C20.2 25.9 20.7 26.4 20.8 28.6 C21.4 26.1 21.2 24.2 19.7 21.7 C23.4 23 25.9 24.9 26.1 28.2 C27.8 25.5 26.9 22.7 26.5 19.2 C27.8 20.3 30.3 21.7 31.1 23.2 C31.8 21.1 30 19.5 29.1 17.3 C29 17.2 29.8 16.3 29.8 16.1 z" opacity="0.15" id="k" /></g></g><g transform="translate(127.58, 273.6799) scale(1.035183) translate(-127.58, -273.6799) translate(128.7, 274.8) scale(0.7) translate(-124.7, -274.8) translate(86.50001, 84.69997) translate(29, 123)" id="l"><g transform="translate(22.5, 34.5) scale(-1, 1) translate(-22.5, -34.5)" id="m"><path d="M0.5 21.2 C0.5 5.6 29.7 -5.2 40.3 4.4 C49.4 12.7 41.6 31.9 40.3 33.7 C39.4 34.9 36.1 41.1 30.4 52.5 C37.7 55.2 41.3 58.4 41.3 62.1 C41.3 63.8 41.3 66.1 39.6 67.4 C38.3 68.4 19.6 68.3 15.4 67.4 C11.2 66.5 0.3 66.2 0.5 57.8 C0.7 48.8 0.5 29.2 0.5 21.2 z" id="n" fill="#51403C" /><path d="M0.5 21.2 C0.5 5.6 29.7 -5.2 40.3 4.4 C49.4 12.7 41.6 31.9 40.3 33.7 C39.4 34.9 36.1 41.1 30.4 52.5 C37.7 55.2 41.3 58.4 41.3 62.1 C41.3 63.8 41.3 66.1 39.6 67.4 C38.3 68.4 19.6 68.3 15.4 67.4 C11.2 66.5 0.3 66.2 0.5 57.8 C0.7 48.8 0.5 29.2 0.5 21.2 z M2 21.6 C2 25.7 2.6 32.8 2.5 39.9 C2.4 45.8 1.6 51.8 1.6 55.7 C1.4 63.7 11.3 64.4 15.3 65.3 C19.3 66.2 36.4 66.9 37.7 65.9 C39.3 64.7 39.3 63 39.3 61.4 C39.3 57.9 34.4 55.6 27.4 53 C32.8 42.1 37.7 34 38.5 32.9 C40.9 28.4 47 12.6 38.4 4.6 C28.3 -4.5 2 6.8 2 21.6 z" opacity="0.15" id="o" /></g></g><g transform="translate(210.92, 273.7799) scale(1.035183) translate(-210.92, -273.7799) translate(209.8, 274.9) scale(0.7) translate(-213.8, -274.9) translate(93.90001, 84.79997) translate(107, 157.5) scale(-1, 1) translate(-107, -157.5) translate(85, 123)" id="p"><g id="q"><path d="M42.8 20.7 C42.8 5.1 15.8 -5.2 5.2 4.4 C-3.9 12.7 3.9 31.9 5.2 33.7 C6.1 34.9 9.4 41.1 15.1 52.5 C7.8 55.2 4.2 58.4 4.2 62.1 C4.2 63.8 4.2 66.1 5.9 67.4 C7.2 68.4 24.3 69 30.1 67.4 C30.3 67.3 33.1 66.7 34 66.4 C37.5 65.2 42.4 63.3 42.7 59.9 C44.2 44.3 42.8 29.9 42.8 20.7 z" id="r" fill="#51403C" /><path d="M42.8 20.7 C42.8 29.9 44.2 44.3 42.7 59.9 C42.4 63.3 37.5 65.2 34 66.4 C33.1 66.7 30.3 67.3 30.1 67.4 C24.2 69 7.2 68.4 5.9 67.4 C4.2 66.1 4.2 63.8 4.2 62.1 C4.2 58.4 7.8 55.2 15.1 52.5 C9.4 41.1 6.1 34.9 5.2 33.7 C3.9 31.9 -3.9 12.7 5.2 4.4 C15.8 -5.2 42.8 5.1 42.8 20.7 z M41.8 20.4 C41.8 5.6 16.2 -4.4 6.1 4.8 C-2.5 12.6 6 30.7 7.3 32.4 C8.2 33.5 12.3 42.3 17.7 53.2 C10.8 55.8 5.6 58.3 5.6 61.8 C5.6 63.4 5.7 64.3 7.4 65.6 C8.6 66.5 24.1 67 29.7 65.5 C29.9 65.4 34.8 64.5 35.7 64.2 C39 63.1 41.6 60.9 41.9 57.7 C43.1 42.8 41.8 29.1 41.8 20.4 z" opacity="0.15" id="s" /></g></g><g transform="translate(96.90001, 90.79997) translate(24, 65)" id="t"><g transform="translate(4, 0)" id="u"><path d="M71 19.7 C73.2 28.5 78.4 30.1 83 37.6 C89.4 45.5 87.3 61.5 83.3 73 C82 76.7 78.7 86.3 76.6 97.4 C74.6 108.4 76.2 117.3 72.2 120.7 C70.8 122.2 64.9 123.5 55.5 123.5 C52.1 123.5 51 122.5 44.7 122.5 C38.4 122.5 36.3 123.6 33.3 123.5 C24.6 123.1 21 123.2 18.1 120.7 C13.8 116.2 15.5 106.2 12.9 95.6 C10.6 86.1 6.5 78.3 5.5 74 C3.5 64.9 0.2 50.2 6.3 39.2 C9.2 32.9 15.3 26.1 16.9 17.6 C18.6 8.1 34.9 5 43.7 4.4 C55 3.6 68.6 10.1 71 19.7 z" id="v" fill="#E2DED5" /><path d="M84.2 39.3 C71.9 51.2 58.6 57.1 44.5 57.1 C30.5 57.1 17.9 51 6.6 38.7 C9.6 32.5 15.4 25.9 17 17.6 C18.6 8.1 34.9 5 43.7 4.4 C55 3.6 68.6 10.1 71 19.7 C73.2 28.5 78.4 30.1 83 37.6 C83.4 38.1 83.8 38.7 84.2 39.3 z" id="w" fill="#C6C6C6" /><path d="M71 19.7 C73.2 28.5 78.4 30.1 83 37.6 C89.4 45.5 87.3 61.5 83.3 73 C82 76.7 78.7 86.3 76.6 97.4 C74.6 108.4 76.2 117.3 72.2 120.7 C70.8 122.2 64.9 123.5 55.5 123.5 C52.1 123.5 51 122.5 44.7 122.5 C38.4 122.5 36.3 123.6 33.3 123.5 C24.6 123.1 21 123.2 18.1 120.7 C13.8 116.2 15.5 106.2 12.9 95.6 C10.6 86.1 6.5 78.3 5.5 74 C3.5 64.9 0.2 50.2 6.3 39.2 C9.2 32.9 15.3 26.1 16.9 17.6 C18.6 8.1 34.9 5 43.7 4.4 C55 3.6 68.6 10.1 71 19.7 z M69.6 20.3 C67.4 11 54.5 4.8 43.8 5.5 C35.4 6.1 20 9.1 18.4 18.3 C16.9 26.5 11.1 33 8.4 39.1 C2.6 49.7 5.7 63.8 7.6 72.6 C8.5 76.7 12.4 84.3 14.6 93.4 C17.1 103.6 15.5 113.3 19.5 117.6 C22.2 120 25.7 119.9 33.9 120.3 C36.7 120.4 38.7 119.3 44.7 119.3 C50.7 119.3 51.7 120.3 54.9 120.3 C63.8 120.3 69.4 119 70.7 117.6 C74.5 114.3 73 105.7 74.9 95.1 C76.9 84.4 80 75.1 81.2 71.6 C85 60.5 87 45.1 80.9 37.5 C76.6 30.3 71.7 28.8 69.6 20.3 z" opacity="0.15" id="x" /></g></g><g transform="translate(125.9, 178.85) scale(1, 0.9877591) translate(-125.9, -184.5999) translate(110.6, 101.8) translate(59, 136) scale(-1, 1) translate(-59, -136) translate(16, 84)" id="y"><path d="M10.2 21.5 C10.3 21.2 21.2 -0.7 27.1 1.2 C31.4 2.6 35.1 7.2 36.8 10.5 C38.5 13.8 43 34.1 39.9 40.8 C37.7 45.5 33.3 46.5 28.3 45.3 C28 49 27.7 51.8 27.2 53.1 C26.2 62.6 31 81.3 32.2 92 C31.5 105 22.7 103.5 16.9 102.2 C13.4 101.4 10.8 99 12.4 94.9 C12.9 93.6 13.6 92.2 14.2 90.8 C14.7 84.8 13.6 79.1 12.3 72.9 C11.1 67.4 10.2 21.5 10.2 21.5 z" id="z" fill="#FEFEFE" /><path d="M75.8 21.5 C75.7 21.2 64.8 -0.7 58.9 1.2 C54.6 2.6 50.9 7.2 49.2 10.5 C47.5 13.8 43 34.1 46.1 40.8 C48.3 45.5 52.7 46.5 57.7 45.3 C58 49 58.3 51.8 58.8 53.1 C59.8 62.6 55 81.3 53.8 92 C54.5 105 63.3 103.5 69.1 102.2 C72.6 101.4 75.2 99 73.6 94.9 C73.1 93.6 72.4 92.2 71.8 90.8 C71.3 84.8 72.4 79.1 73.7 72.9 C75.1 67.4 75.8 21.5 75.8 21.5 z" id="a1" fill="#FEFEFE" /><path d="M9.6 11.2 C11.4 8 16.2 2.9 17.2 1.8 C20.5 -0.8 30.2 -1.2 32 8.4 C32.8 11.9 30.3 16.7 28.9 18.7 C28.4 19.4 28.1 19.9 28 20.3 C27.9 21 28.5 22.6 29.1 24.8 C29.9 27.7 30.6 31.5 29.2 34.9 C28.9 35.5 28.6 36.1 28.2 36.7 C25.6 40.3 21.2 37.3 17.7 39.2 C17.7 39.4 17.6 39.6 17.6 39.7 C15.8 49.4 23.5 59.2 21.3 70.8 C20.7 74.1 16.9 76.3 12.6 74.8 C11.3 68.6 9.5 62.1 8.7 54.5 C3.3 48.8 -0.6 44.9 1.1 28.6 C2.1 19.3 5.8 14.9 9.6 11.2 z" id="b1" fill="#7F6458" /><path d="M26.9 1.1 C27 1.2 27 1.2 27.1 1.2 C31.4 2.6 35.1 7.2 36.8 10.5 C38.5 13.8 43 34.1 39.9 40.8 C37.7 45.5 33.3 46.5 28.3 45.3 C28 49 27.7 51.8 27.2 53.1 C26.2 62.6 31 81.3 32.2 92 C31.5 105 22.7 103.5 16.9 102.2 C13.4 101.4 10.8 99 12.4 94.9 C12.9 93.6 13.6 92.2 14.2 90.8 C14.6 85.4 13.8 80.3 12.7 74.8 C12.7 74.8 12.6 74.8 12.6 74.8 C11.3 68.6 9.5 62.1 8.7 54.5 C3.3 48.8 -0.6 44.9 1.1 28.6 C2.1 19.3 5.8 14.9 9.6 11.2 C11.4 8 16.2 2.9 17.2 1.8 C19.2 0.3 23.4 -0.5 26.9 1.1 z M26.7 2.1 C26.7 2.1 26.6 2.1 26.5 2 C23.2 0.5 19.3 1.2 17.4 2.7 C16.5 3.7 11.9 8.6 10.2 11.6 C6.7 15.1 3.2 19.3 2.2 28.2 C0.6 43.7 5.5 48.5 10.6 54 C11.4 61.2 11.8 66.2 13.2 72.2 C14.2 77.4 14.9 82 15.5 86 C15.5 88.3 15.8 90.3 15.3 91.5 C13.8 95.4 13.8 97.4 17.1 98.2 C22.6 99.4 29.7 101.8 30.4 89.4 C29.3 79.2 24.9 61.1 25.8 52 C26.3 50.8 27 47.1 27.3 43.6 C32 44.7 36.7 44.3 38.8 39.8 C41.7 33.4 37.5 14.1 35.9 10.9 C34.3 7.8 30.8 3.4 26.7 2.1 z" opacity="0.15" id="c1" /><path d="M76.6 11.2 C74.8 8 69.9 2.9 68.9 1.8 C65.6 -0.8 55.9 -1.2 54.1 8.4 C53.3 11.9 55.8 16.7 57.2 18.7 C57.7 19.4 58 19.9 58.1 20.3 C58.2 21 57.6 22.6 57 24.8 C56.2 27.7 55.5 31.5 56.9 34.9 C57.2 35.5 57.5 36.1 57.9 36.7 C60.5 40.3 64.9 37.3 68.4 39.2 C68.4 39.4 68.5 39.6 68.5 39.7 C70.3 49.4 62.6 59.2 64.8 70.8 C65.4 74.1 69.2 76.3 73.5 74.8 C74.8 68.6 76.6 62.1 77.4 54.5 C82.8 48.8 86.7 44.9 85 28.6 C83.9 19.3 80.2 14.9 76.6 11.2 z" id="d1" fill="#7F6458" /><path d="M73.3 74.9 C72.2 80.3 71.4 85.4 71.8 90.8 C72.4 92.2 73.1 93.6 73.6 94.9 C75.2 99 72.6 101.4 69.1 102.2 C63.3 103.5 54.5 105 53.8 92 C55 81.3 59.8 62.6 58.8 53.1 C58.3 51.8 58 49 57.7 45.3 C52.7 46.5 48.3 45.5 46.1 40.8 C43 34.1 47.5 13.8 49.2 10.5 C50.9 7.2 54.6 2.6 58.9 1.2 C59 1.2 59.2 1.1 59.3 1.1 C62.8 -0.5 66.9 0.3 68.9 1.8 C69.9 2.9 74.8 8 76.6 11.2 C80.2 14.9 83.9 19.3 85 28.6 C86.7 44.9 82.8 48.8 77.4 54.5 C76.6 62.1 74.8 68.6 73.5 74.8 C73.4 74.8 73.4 74.8 73.3 74.9 z M72.6 73.1 C74.4 64.5 75.5 57.8 76 53 C81.2 47.6 85 42.8 83.4 27.3 C82.3 18.5 79.5 14.6 76 11.1 C74.3 8 68.8 3.6 67.8 2.6 C66 1.1 62.9 1 59.6 2.6 C59.4 2.6 59.3 2.6 59.2 2.7 C55.1 4 51.6 8.4 50 11.5 C48.4 14.6 44.9 33.2 47.8 39.5 C49.9 44 54 44.4 58.7 43.2 C59 46.7 59.8 51.8 60.2 53 C61.2 62.1 57 78.6 55.8 88.8 C56.5 101.2 63.4 100 68.9 98.7 C72.2 98 72.8 96.4 71.3 92.5 C70.8 91.3 70.5 90.1 70.5 88.1 C70.1 83 71.5 78.3 72.6 73.1 z" opacity="0.15" id="e1" /></g></g><g transform="translate(170, 196.9) scale(0.9281116) translate(-170, -196.9)" id="f1"><g transform="translate(92, 109.2) translate(37, 0)" id="g1"><path d="M39.5 0.5 C71.6 1 81 11.5 80.7 29.8 C80.4 48 79.9 54.8 75.6 61.2 C71.3 67.7 69.9 71.1 66.9 81.2 C63.9 91.3 54.7 90.8 41.1 91.1 C27.5 91.5 15.5 87 14.4 80 C13.3 73 9.6 67.3 4.7 60.5 C-0.2 53.7 0.4 34.9 0.3 24.2 C0.2 13.4 7.5 0 39.5 0.5 z" id="h1" fill="#FEFEFE" /><path d="M28.3 90.7 C31.6 92.4 34.5 93.3 36.9 93.4 C40.6 93.6 48.1 93.4 51 92.1 C53 91.2 54.4 90.8 55.2 90.8 C51.5 87.9 49 86.4 47.7 86.2 C45.8 86 40.4 83.9 38.7 85.1 C36.9 86.3 32.9 87 32 87.8 C31.3 88.3 30.2 89.2 28.3 90.7 z" id="i1" fill="#332920" /><path d="M54.7 90.5 C54.8 90.6 54.9 90.7 55.1 90.8 C54.3 90.8 52.9 91.2 50.9 92.1 C48 93.4 40.5 93.6 36.8 93.4 C34.4 93.3 31.5 92.4 28.2 90.7 C28.5 90.5 28.7 90.3 29 90.1 C21 88.4 15.2 84.8 14.5 80.1 C13.4 73.1 9.7 67.4 4.8 60.6 C-0.1 53.8 0.5 34.9 0.4 24.2 C0.3 13.5 7.5 0 39.5 0.5 C71.6 1 81 11.5 80.7 29.8 C80.4 48 79.9 54.8 75.6 61.2 C71.3 67.7 69.9 71.1 66.9 81.2 C65.1 87.4 60.9 89.7 54.7 90.5 z M54 87.2 C59.9 86.4 63.8 84.2 65.6 78.4 C68.5 68.9 69.8 65.6 73.9 59.4 C78 53.2 78.5 46.8 78.8 29.5 C79 12 70.1 2 39.5 1.6 C9.1 1.1 2.2 13.8 2.3 24.1 C2.4 34.3 1.7 52.3 6.4 58.7 C11.1 65.1 14.7 70.6 15.6 77.3 C16.3 81.9 21.9 85.3 29.4 86.8 C29.2 87 28.9 87.2 28.7 87.4 C31.8 89 34.6 89.9 36.9 90 C40.4 90.2 47.6 90 50.3 88.8 C52.2 87.9 53.5 87.6 54.3 87.6 C54.2 87.4 54.1 87.3 54 87.2 z" opacity="0.15" id="j1" /></g><g transform="translate(93.8, 91.09996) translate(21, 2)" id="k1"><g transform="translate(18.02073, 23.28844) scale(-1, 1) rotate(-6, 0, 0) translate(-18.02073, -23.28844) translate(2.520727, 1.788439)" id="l1"><path d="M1.7 25.8 C-1.9 23.8 -2.7 23.7 -1.4 20.5 C-0.1 17.3 2.4 17.8 5 15.3 C7.6 12.8 13.5 8.6 17.4 6.7 C21.3 4.8 23.7 2.5 25.7 4.7 C27.7 6.9 29.1 12.8 28 18.9 C26.9 25 23.5 30.4 23.1 33.3 C22.7 36.2 21.9 40.6 20.2 42.9 C19.7 43.6 18.2 45.3 17.3 45.8 C15.4 46.7 14 44.9 12.6 41.3 C12.3 40.4 10.5 34.3 8.6 32.4 C6.3 29.9 5.4 27.8 1.7 25.8 z" id="m1" fill="#51403C" /><path d="M1.7 25.8 C-1.9 23.8 -2.7 23.7 -1.4 20.5 C-0.1 17.3 2.4 17.8 5 15.3 C7.6 12.8 13.5 8.6 17.4 6.7 C21.3 4.8 23.7 2.5 25.7 4.7 C27.7 6.9 29.1 12.8 28 18.9 C26.9 25 23.5 30.4 23.1 33.3 C22.7 36.2 21.9 40.6 20.2 42.9 C19.7 43.6 18.2 45.3 17.3 45.8 C15.4 46.7 14 44.9 12.6 41.3 C12.3 40.4 10.5 34.3 8.6 32.4 C6.3 29.9 5.4 27.8 1.7 25.8 z M3.9 24.6 C7.2 26.4 8 28.3 10 30.5 C11.7 32.2 13.3 37.7 13.6 38.5 C14.8 41.7 16.1 43.4 17.8 42.5 C18.6 42.1 19.9 40.5 20.4 39.9 C21.9 37.8 22.6 33.9 23 31.3 C23.4 28.7 26.4 23.8 27.4 18.3 C28.4 12.8 27.1 7.5 25.4 5.5 C23.6 3.5 21.5 5.6 18 7.3 C14.5 9 9.3 12.8 6.9 15 C4.5 17.2 2.4 16.8 1.2 19.7 C0 22.6 0.7 22.8 3.9 24.6 z" opacity="0.15" id="n1" /><path d="M5.7 24.6 C3.7 23.6 2.3 23 3.3 20.4 C3.9 18.9 7.5 16.8 10.9 14.2 C13.3 12.3 16.2 10.3 18 9.3 C20.6 7.8 21.8 6.3 23.5 7.6 C25.1 8.9 26.5 14.5 25.7 19.2 C24.9 24 20 35.8 18.7 37.6 C17.4 39.4 16.1 42.4 14.5 38.2 C12.9 34 12.6 31.4 10.9 29.6 C9.2 27.8 7.7 25.6 5.7 24.6 z" id="o1" fill="#7F6458" /><path d="M8.2 26.4 C8.3 25.4 9.1 23.7 9.3 23.3 C9.6 22.7 12.3 21.1 14.6 19.7 C15.6 19 18.6 17.4 18.6 17.4 C20.2 16.5 20.1 19.9 18.6 22.6 C17.7 24.2 15.1 29.9 13.3 31.6 C12.7 32.2 12.2 31.1 11 29.5 C9.9 28.1 8.1 26.8 8.2 26.4 z" opacity="0.5" id="p1" fill="#51403C" /></g></g><g transform="translate(98.79998, 90.09996) translate(100.9, 24.5) scale(-1, 1) translate(-100.9, -24.5) translate(82.40002, 0)" id="q1"><g transform="translate(18.19189, 24.4854) scale(-1, 1) rotate(-7, 0, 0) translate(-18.19189, -24.4854) translate(2.691893, 2.485396)" id="r1"><path d="M5.4 26.9 C1.8 24.9 1 24.8 2.3 21.6 C3.6 18.4 6.1 18.9 8.7 16.4 C11.3 13.9 17.2 9.7 21.1 7.8 C25 5.9 27.4 3.6 29.4 5.8 C31.4 8 32.8 14 31.7 20.1 C30.7 26.2 27.1 31.6 26.8 34.5 C26.4 37.4 25.6 41.8 23.9 44.1 C23.4 44.8 21.9 46.5 21 47 C19.1 47.9 18.5 47.3 17.1 43.7 C16.8 42.8 17 42 16.7 41.2 C15.3 37.5 14.2 35.4 12.3 33.5 C9.9 31.1 9 29 5.4 26.9 z" id="s1" fill="#51403C" /><path d="M5.4 26.9 C1.8 24.9 1 24.8 2.3 21.6 C3.6 18.4 6.1 18.9 8.7 16.4 C11.3 13.9 17.2 9.7 21.1 7.8 C25 5.9 27.4 3.6 29.4 5.8 C31.4 8 32.8 14 31.7 20.1 C30.7 26.2 27.1 31.6 26.8 34.5 C26.4 37.4 25.6 41.8 23.9 44.1 C23.4 44.8 21.9 46.5 21 47 C19.1 47.9 18.5 47.3 17.1 43.7 C16.8 42.8 17 42 16.7 41.2 C15.3 37.5 14.2 35.4 12.3 33.5 C9.9 31.1 9 29 5.4 26.9 z M7.1 25.9 C10.4 27.8 11.2 29.8 13.4 32 C15.1 33.8 16.2 35.7 17.4 39.1 C17.7 39.8 17.5 40.6 17.8 41.4 C19.1 44.7 19.6 45.3 21.4 44.4 C22.2 43.9 23.6 42.4 24.1 41.7 C25.7 39.6 26.4 35.5 26.8 32.8 C27.1 30.1 30.4 25.1 31.3 19.5 C32.3 13.9 31 8.3 29.2 6.3 C27.4 4.3 25.2 6.4 21.6 8.1 C18 9.8 12.6 13.7 10.2 16 C7.8 18.3 5.5 17.8 4.3 20.8 C3.1 23.8 3.8 24.1 7.1 25.9 z" opacity="0.15" id="t1" /><path d="M9.4 25.7 C7.4 24.7 6 24.1 7 21.5 C7.6 20 11.2 17.9 14.6 15.3 C17 13.4 19.9 11.4 21.7 10.4 C24.3 8.9 25.5 7.4 27.2 8.7 C28.8 10 30.2 15.6 29.4 20.3 C28.6 25.1 23.7 36.9 22.4 38.7 C21.1 40.5 19.8 43.5 18.2 39.3 C16.6 35.1 16.3 32.5 14.6 30.7 C12.9 29 11.4 26.8 9.4 25.7 z" id="u1" fill="#7F6458" /><path d="M11.5 26.9 C11.6 25.9 12.8 24.9 13 24.5 C13.3 23.9 16 22.3 18.3 20.9 C19.3 20.2 22.3 18.6 22.3 18.6 C23.9 17.7 23.8 21.1 22.3 23.8 C21.4 25.4 18.8 31.1 17 32.8 C15.8 33.9 14.9 30.4 14.4 30.5 C13.3 28.9 11.4 27.8 11.5 26.9 z" opacity="0.5" id="v1" fill="#51403C" /></g></g><g id="w1"><g transform="translate(91.99999, 108.8) translate(51, 9)" id="x1"><g id="y1"><path d="M10.8 81.4 C13.9 81.7 18 81.9 20.4 80.6 C23.1 79.2 24.6 77.8 26.8 75.4 C29.3 78.9 31.4 80 34.6 81.4 C37.6 82.8 41.6 81.8 44 81.1 C46.5 80.3 52.2 77.1 52.7 73.4 C53.4 69.2 53.9 64.2 52 57.1 C50.4 51 42.8 47.8 39.1 43.8 C36.4 40.9 32.8 30.2 32.5 28.5 C31.7 25.1 31.8 21.5 33 14.4 C34.2 6.8 39.1 4.5 39.1 2 C39.1 -0.4 34 4 27.9 4.1 C21.8 4.2 15.2 -1.3 15.2 2 C15.2 5.4 20.2 7.8 21.2 13.4 C22.2 19.1 22.2 22 21.2 27.9 C20.6 31.4 17.1 41.7 13.8 44.3 C8.1 48.8 1.3 53.2 0.6 59.8 C0 66.5 -0.7 70.2 1.2 74 C3.5 78.8 7.7 81 10.8 81.4 z" id="z1" fill="#E2DED5" /><path d="M10.8 81.4 C7.7 81 3.5 78.8 1.1 74 C-0.8 70.2 -0.1 66.4 0.5 59.8 C1.2 53.2 8.1 48.8 13.7 44.3 C17 41.7 20.5 31.4 21.1 27.9 C22.1 21.9 22.1 19.1 21.1 13.4 C20.1 7.7 15.1 5.3 15.1 2 C15.1 -1.3 21.8 4.2 27.8 4.1 C34 3.9 39.1 -0.4 39.1 1.9 C39.1 4.4 34.2 6.8 33 14.3 C31.8 21.5 31.7 25 32.5 28.4 C32.8 30.1 36.4 40.8 39.1 43.7 C42.8 47.7 50.4 51 52 57 C53.9 64.1 53.4 69.1 52.7 73.3 C52.1 77 46.4 80.2 44 81 C41.5 81.7 37.5 82.7 34.6 81.3 C31.4 79.9 29.3 78.8 26.8 75.3 C24.6 77.7 23.1 79.1 20.4 80.5 C17.9 81.9 13.9 81.7 10.8 81.4 z M11.6 78.4 C14.5 78.7 18.4 78.9 20.7 77.6 C21.9 77 23.5 75.5 24.5 73.2 C25.7 70.4 26.3 66.8 27.4 65.5 C28.5 67.1 28.6 70.4 29.5 72.9 C30.6 75.7 32.6 77.6 34.2 78.3 C37.1 79.6 40.9 78.7 43.1 78 C45.5 77.2 50.9 74.2 51.4 70.7 C52.1 66.7 52.3 63.8 50.5 57.1 C49 51.3 41.9 47.9 38.5 44.1 C35.9 41.3 31.9 29.8 31.6 28.1 C30.8 24.9 31.1 20.2 32.2 13.5 C33.3 6.3 37.6 5.2 37.6 2.8 C37.6 0.5 33.6 4.7 27.8 4.8 C22 4.9 16.7 -0.2 16.7 2.9 C16.7 6.1 21 7 21.9 12.3 C22.9 17.7 23 22.4 22 28.1 C21.4 31.4 17.8 42.5 14.6 45 C9.2 49.3 2.6 52.4 1.9 58.6 C1.3 65 0.5 67.6 2.3 71.2 C4.7 75.9 8.6 78 11.6 78.4 z" opacity="0.15" id="a2" /></g></g><g transform="translate(170.0999, 193.3) scale(1.6) translate(-170.0999, -191.3) translate(-285.2, 70.39996) translate(64, 110)" id="b2"><path d="M391.8 5.8 C391 5.7 390.6 5.8 390.4 6.1 C390.3 6.3 390.7 7.4 390.3 8.6 C390.2 8.9 389.9 9.3 389.4 9.8 C388.7 10 388.2 10.1 387.8 10.1 C387.2 10.1 385.6 9.5 384.5 9.5 C383.8 9.4 383.5 9.7 383.6 10.3 L384.8 11.1 C386.2 11.7 387.2 12 387.8 12.2 C389.3 12.5 390.4 12.5 391.1 12.4 C391.6 12.4 392.6 12.5 394.1 12.2 C394.8 12.1 396 11.8 397.7 11.3 C398.4 10.7 398.5 10.3 398 10.1 C397.2 9.8 395.8 10.1 394.8 10.1 C394.1 10.1 393.4 10.1 392.6 10.1 C392.2 9.4 391.9 8.8 391.8 8.5 C391.7 8.2 391.7 7.3 391.8 5.8 z" id="c2" fill="#1F2123" /></g><g transform="translate(170.1, 177.7999) scale(1.2) translate(-170.1, -174.7999) translate(96.99998, 87.69996) translate(61, 60)" id="d2"><path d="M3.4 29.3 C5.1 31.6 6.8 32.9 11.9 32.9 C17 32.9 20.1 30.4 20.6 27.9 C21.1 25.4 20.5 20.8 16.3 19.7 C12.1 18.6 7.1 18.8 5.4 20.8 C4.7 21.6 3.5 22.7 2.9 24.1 C2.1 26.1 2.5 28 3.4 29.3 z" id="e2" /><path d="M8.2 20.6 C5.8 21.6 4.3 23 6.5 22.4 C7.9 22 9.3 21.7 10.8 21.8 C11.6 21.9 13.3 22 14.7 22.3 C16.1 23.4 18 24 18.6 23.5 C19.2 23 18.6 21.2 16.3 20.5 C14 19.8 10.7 19.6 8.2 20.6 z" id="f2" fill="#FFF" /></g><g transform="translate(99.79999, 81.19996) translate(44, 47)" id="g2"><g id="h2"><path d="M13 12.1 C10.4 11.1 7.2 11.3 4.8 12.7 C3.7 13.3 1.5 14.8 0.7 15.8 C-0.6 17.3 0.1 19.9 1.3 21.5 C2.5 23.1 4.3 24.2 6.3 24.5 C8.3 24.8 10.3 24.5 12.2 23.7 C14.5 22.8 16.7 21.1 17.2 18.6 C17.7 15.9 15.6 13.1 13 12.1 z" id="i2" fill="#474B4F" /><path d="M14.5 17.3 C14.2 16 13.5 13 10.2 13 C6.9 13 3.3 16.7 2 17.7 C2.7 19.6 5.4 21.2 7.8 21.5 C11.2 21.9 13.5 20.7 14.5 17.3 z" id="j2" fill="#282421" /><path d="M9.3 5.1 C8.7 4.7 8.1 4.2 7.9 3.5 C7.8 2.9 8.1 2.2 8.6 1.8 C10.3 0.1 12.2 0.2 13.1 0.1 C16.2 -0.1 16.9 2.6 16.4 5.2 C15.5 10.3 12.1 7 9.3 5.1 z" id="k2" fill="#D1D1D1" /><path d="M9.8 14.4 C9.4 14.3 7.5 14.9 7 15.2 C6.5 15.6 6.2 16.2 6.5 16.8 C6.7 17.3 7.3 17.5 7.9 17.4 C8.4 17.3 8.9 17.1 9.4 16.8 C10 16.4 10.8 15.9 10.7 15.2 C10.5 14.8 10.2 14.5 9.8 14.4 z" id="l2" fill="#F5FAFC" /></g></g><g transform="translate(104.1, 81.19996) translate(72, 47)" id="m2"><g id="n2"><path d="M5 12.1 C7.6 11.1 10.8 11.3 13.2 12.7 C14.3 13.3 16.5 14.8 17.3 15.8 C18.6 17.3 17.9 19.9 16.7 21.5 C15.5 23.1 13.7 24.2 11.7 24.5 C9.7 24.8 7.7 24.5 5.8 23.7 C3.5 22.8 1.3 21.1 0.8 18.6 C0.3 15.9 2.4 13.1 5 12.1 z" id="o2" fill="#474B4F" /><path d="M3.5 17.3 C3.8 16 4.5 13 7.8 13 C11.1 13 14.7 16.7 16 17.7 C15.3 19.6 12.6 21.2 10.2 21.5 C6.8 21.9 4.5 20.7 3.5 17.3 z" id="p2" fill="#282421" /><path d="M10.4 15.2 C10.1 14.9 8.4 14.3 7.8 14.3 C7.2 14.3 6.6 14.6 6.5 15.2 C6.4 15.7 6.7 16.2 7.2 16.4 C7.6 16.7 8.1 16.7 8.6 16.8 C9.3 16.9 10.1 16.9 10.5 16.3 C10.7 15.9 10.7 15.5 10.4 15.2 z" id="q2" fill="#F5FAFC" /><path d="M8.7 5.1 C9.3 4.7 9.9 4.2 10.1 3.5 C10.2 2.9 9.9 2.2 9.4 1.8 C7.7 0.1 5.8 0.2 4.9 0.1 C1.8 -0.1 1.1 2.6 1.6 5.2 C2.5 10.3 5.9 7 8.7 5.1 z" id="r2" fill="#D1D1D1" /></g></g></g></g></g></g><defs><g transform="translate(17.09519, 0.800995) translate(-135.2952, -293.601)" id="s2" fill="#000"><path d="M118.2 302.7 C118.4 307.4 132.5 311.2 149.8 311.2 C167.1 311.2 181.2 307.4 181.4 302.7 C181.4 307.5 181.4 310.1 181.4 310.5 C181.4 315.3 167.3 319.1 149.8 319.1 C132.3 319.1 118.2 315.2 118.2 310.5 L118.2 302.7 L118.2 302.7 z" fill-opacity="0.4528" id="t2" fill="#593001" /><path d="M118.7 301.7 C118.9 306.4 133 310.2 150.3 310.2 C167.6 310.2 181.7 306.4 181.9 301.7 C181.9 306.5 181.9 309.1 181.9 309.5 C181.9 314.3 167.8 318.1 150.3 318.1 C132.8 318.1 118.7 314.2 118.7 309.5 L118.7 301.7 L118.7 301.7 z" id="u2" fill="#DA8113" /><linearGradient x1="46.0545" y1="-118.6926" x2="45.4656" y2="-118.6926" gradientUnits="userSpaceOnUse" gradientTransform="matrix(117.135, 0, 0, 28.4634, -5208.417, 3687.795)" id="v2"><stop offset="0%" stop-color="#D9952A" stop-opacity="1" /><stop offset="6.438854%" stop-color="#CA7519" stop-opacity="1" /><stop offset="30.54%" stop-color="#E3AD3A" stop-opacity="1" /><stop offset="51.05%" stop-color="#FFEC91" stop-opacity="1" /><stop offset="68.8%" stop-color="#E9BD44" stop-opacity="1" /><stop offset="86.24%" stop-color="#FFED6C" stop-opacity="1" /><stop offset="93.87%" stop-color="#F2D353" stop-opacity="1" /><stop offset="100%" stop-color="#F2B947" stop-opacity="1" /></linearGradient><path d="M118.2 301.6 C118.4 306.1 132.7 309.7 150.3 309.7 C167.9 309.7 182.2 306.1 182.4 301.6 C182.4 306.2 182.4 308.7 182.4 309 C182.4 313.5 168 317.2 150.3 317.2 C132.6 317.2 118.2 313.5 118.2 309 L118.2 301.6 L118.2 301.6 z" id="w2" style="fill:url(#v2)" /><linearGradient x1="45.4914" y1="-117.9547" x2="45.9407" y2="-117.5895" gradientUnits="userSpaceOnUse" gradientTransform="matrix(115.425, 0, 0, 29.925, -5125.077, 3826.124)" id="x2"><stop offset="0%" stop-color="#F4E072" stop-opacity="1" /><stop offset="100%" stop-color="#DB9427" stop-opacity="1" /></linearGradient><ellipse cx="150.3" cy="301.5" rx="31.6" ry="8.2" id="y2" style="fill:url(#x2)" /><linearGradient x1="45.4656" y1="-126.0065" x2="46.0545" y2="-126.0065" gradientUnits="userSpaceOnUse" gradientTransform="matrix(117.135, 0, 0, 18.6219, -5208.417, 2651.479)" id="z2"><stop offset="0%" stop-color="#D9952A" stop-opacity="1" /><stop offset="6.438854%" stop-color="#CA7519" stop-opacity="1" /><stop offset="30.54%" stop-color="#E3AD3A" stop-opacity="1" /><stop offset="51.05%" stop-color="#FFEC91" stop-opacity="1" /><stop offset="68.8%" stop-color="#E9BD44" stop-opacity="1" /><stop offset="86.24%" stop-color="#FFED6C" stop-opacity="1" /><stop offset="93.87%" stop-color="#F2D353" stop-opacity="1" /><stop offset="100%" stop-color="#F2B947" stop-opacity="1" /></linearGradient><path d="M119.2 299.9 C119 300.2 118.9 300.6 118.9 301 C118.9 305.5 132.9 309.2 150.3 309.2 C167.7 309.2 181.7 305.5 181.7 301 C181.7 300.6 181.6 300.3 181.4 299.9 C182 300.5 182.4 301.2 182.4 301.9 C182.4 306.4 168 310.1 150.3 310.1 C132.6 310.1 118.2 306.4 118.2 301.9 C118.2 301.3 118.6 300.6 119.2 299.9 z" id="a3" style="fill:url(#z2)" /><linearGradient x1="45.196" y1="-121.5895" x2="45.3746" y2="-120.6758" gradientUnits="userSpaceOnUse" gradientTransform="matrix(101.745, 0, 0, 23.94, -4458.332, 3199.41)" id="b3"><stop offset="0%" stop-color="#F8DD61" stop-opacity="1" /><stop offset="100%" stop-color="#EAA330" stop-opacity="1" /></linearGradient><ellipse cx="150.3" cy="300.8" rx="27.8" ry="6.6" id="c3" style="fill:url(#b3)" /><linearGradient x1="45.5694" y1="-134.267" x2="45.0221" y2="-134.267" gradientUnits="userSpaceOnUse" gradientTransform="matrix(101.745, 0, 0, 13.2525, -4458.332, 2077.223)" id="d3"><stop offset="0%" stop-color="#F4CA2F" stop-opacity="1" /><stop offset="51.38%" stop-color="#BF7737" stop-opacity="1" /><stop offset="100%" stop-color="#E4A929" stop-opacity="1" /></linearGradient><path d="M122.6 301.5 C122.5 301.3 122.4 301 122.4 300.8 C122.4 297.2 134.9 294.2 150.2 294.2 C165.5 294.2 178 297.1 178 300.8 C178 301 177.9 301.3 177.8 301.5 C176.3 298.2 164.5 295.6 150.1 295.6 C135.7 295.6 124.1 298.2 122.6 301.5 z" id="e3" style="fill:url(#d3)" /></g></defs><desc>EJ5N6E64EJN,naWf+Ray7WdIngodvVTLyTpidOFE34LsxaQPTOtI6Z93QWwS9DkhWysaw5j1zBHo7eF+z0alhy5a6KloIM0SHQ==</desc></svg>