<?xml version="1.0" encoding="utf-8"?><!DOCTYPE svg PUBLIC "-//W3C//DTD SVG 1.1//EN" "http://www.w3.org/Graphics/SVG/1.1/DTD/svg11.dtd"><svg x="0" y="0" width="340px" height="340px" viewBox="0, 0, 340, 340" preserveAspectRatio="xMidYMid" font-size="0" id="a" enable-background="new 0 0 340 340" xmlns="http://www.w3.org/2000/svg" xmlns:xlink="http://www.w3.org/1999/xlink" xmlns:xml="http://www.w3.org/XML/1998/namespace" version="1.1"><g id="b" fill="#000"><g transform="translate(210.1952, 245.501)" id="c"><ellipse cx="32.5" cy="17.5" rx="37.3" ry="13.2" opacity="0.15" id="d" /><use xlink:href="#e" x="0.86" y="0" /><use xlink:href="#e" x="-1.89" y="-10.7" /><use xlink:href="#e" x="1.2" y="-21.4" /><use xlink:href="#e" x="-1.35" y="-32.1" /><use xlink:href="#e" x="1.86" y="-42.8" /><use xlink:href="#e" x="-0.67" y="-53.5" /></g><g transform="translate(64.99519, 245.001)" id="f"><ellipse cx="32.5" cy="17.5" rx="37.3" ry="13.2" opacity="0.15" id="g" /><use xlink:href="#e" x="0.97" y="0" /><use xlink:href="#e" x="-0.73" y="-10.7" /><use xlink:href="#e" x="1.68" y="-21.4" /><use xlink:href="#e" x="-0.82" y="-32.1" /><use xlink:href="#e" x="1.85" y="-42.8" /></g></g><g id="h" fill="#000"><g id="i"><g transform="translate(0, 0) translate(0, 224)" id="j"><ellipse cx="168.6" cy="53.1" rx="57.8" ry="12.8" fill-opacity="0.25" id="k" /></g><g id="l"><g transform="translate(135.3, 239.5) scale(0.75) translate(-135.3, -239.5) translate(86.8, 77.19998) translate(0, 161)" id="m"><path d="M0.4 6.2 C0.3 6.5 -0.6 7.7 0.7 12 C1.5 14.9 3.1 16.7 5.8 19.5 C9.2 23.1 11.9 25.4 15 26.2 C18.1 26.9 25.8 27.2 29.5 28.1 C33.5 29.1 38.9 32.7 41.2 34 C46 36.8 58.3 35.8 61.1 30.3 C62.5 27.5 64.6 23.5 64.1 19.5 C63.5 15.4 60.2 11.4 57.5 12 C52 13.2 48.6 13.1 43.4 13.8 C38.1 14.5 35.9 10.9 29.4 10.9 C26.4 10.9 22.2 10.1 16.3 10.9 C13.7 11.2 8.7 9.6 6.8 8.3 C5.9 7.7 3.6 5.9 2.7 5.5 C1.5 5 0.9 5.2 0.4 6.2 z" id="n" fill="#FDA75C" /><g transform="translate(0, 5)" id="o"><path d="M37.6 7.9 C34.9 7.5 32.7 6.1 28.6 6.5 C26.1 6.8 22.4 6.5 17.5 7.7 C15.3 8.2 11 7.3 9.2 6.3 C8.4 5.9 6.3 4.6 5.5 4.3 C4.4 4 4 4.2 3.6 5.1 C3.6 5.4 2.9 6.5 4.4 10 C5.3 12.4 6.8 13.8 9.4 15.9 C12.6 18.6 15.1 20.3 17.8 20.8 C20.5 21.1 27 20.7 30.2 21.1 C33.7 21.6 38.6 24.2 40.6 25.1 C44.9 27 55.2 25.1 57.1 20.2 C58 17.7 59.5 14.1 58.7 10.8 C58.4 9.5 57.7 8.2 56.9 7.2 C57.1 7.2 57.3 7.1 57.5 7.1 C60.2 6.5 63.5 10.5 64.1 14.6 C64.6 18.6 62.5 22.6 61.1 25.4 C58.3 30.8 46 31.8 41.2 29 C38.9 27.7 33.5 24.1 29.5 23.1 C25.8 22.2 18.1 21.9 15 21.2 C11.9 20.4 9.2 18.1 5.8 14.5 C3.1 11.7 1.5 9.9 0.7 7 C-0.6 2.7 0.3 1.5 0.4 1.2 C0.9 0.2 1.5 0 2.7 0.5 C3.6 0.9 5.9 2.7 6.8 3.3 C8.7 4.6 13.7 6.2 16.3 5.9 C22.2 5.1 26.4 5.9 29.4 5.9 C33 5.9 35.3 7 37.6 7.9 z" fill-opacity="0.3" id="p" /></g></g><g transform="translate(120.5, 273.3) scale(1.204047) translate(-120.5, -273.3) translate(-289, 62.09998) translate(20, 150)" id="q"><path d="M418 16.4 C418 16.4 415.5 9 413.5 8.1 C411.5 7.2 409.1 5.1 402.7 6.1 C396.3 7.1 391.2 9.7 388.3 13.1 C385.4 16.4 382.6 26.3 385.4 31.7 C387.3 35.3 390.5 40 395.1 45.6 C389.5 45.6 386.3 46.1 385.4 47 C384.1 48.4 382.7 53.9 384.1 57 C385.4 60 387.5 64.2 393.6 63.9 C399.7 63.7 414.1 60.2 416.6 59.1 C419.1 58 417.8 40.7 417.8 39.4 C417.7 13 418 16.4 418 16.4 z" id="r" fill="#AA602E" /><path d="M418 16.4 C418 16.4 417.7 12.9 417.8 39.4 C417.8 40.7 419.1 58 416.6 59.1 C414.1 60.2 399.7 63.7 393.6 63.9 C387.5 64.2 385.4 60 384.1 57 C382.7 53.9 384.1 48.4 385.4 47 C386.3 46.1 389.5 45.6 395.1 45.6 C390.5 40 387.3 35.3 385.4 31.7 C382.6 26.3 385.4 16.4 388.3 13.1 C391.2 9.7 396.3 7.1 402.7 6.1 C409.1 5.1 411.5 7.2 413.5 8.1 C415.5 9.1 418 16.4 418 16.4 z M416.7 16.6 C416.7 16.6 414.4 9.8 412.5 8.9 C410.6 8 408.4 6.1 402.5 7.1 C396.6 8.1 391.9 10.4 389.3 13.6 C386.6 16.6 384 25.8 386.6 30.8 C388.4 34.1 393.9 41.7 398.2 46.8 C393 46.8 387.9 47.2 387.1 48 C385.9 49.3 384.1 51.2 385.4 54.1 C386.6 56.9 388.5 60.7 394.2 60.5 C399.8 60.3 413.1 57.1 415.4 56.1 C417.7 55.1 416.5 39.1 416.5 37.9 C416.4 13.5 416.7 16.6 416.7 16.6 z" opacity="0.15" id="s" /></g><g transform="translate(217.4, 273.3) scale(1.204047) translate(-217.4, -273.3) translate(-283.5, 62.09998) translate(106.5, 179.5) scale(-1, 1) translate(-106.5, -179.5) translate(89, 150)" id="t"><path d="M-348.6 16.4 C-348.6 16.4 -351.1 9 -353.1 8.1 C-355.1 7.2 -357.5 5.1 -363.9 6.1 C-370.3 7.1 -375.4 9.7 -378.3 13.1 C-381.2 16.4 -384 26.3 -381.2 31.7 C-379.3 35.3 -376.1 40 -371.5 45.6 C-377.1 45.6 -380.3 46.1 -381.2 47 C-382.5 48.4 -383.9 53.9 -382.5 57 C-381.2 60 -379.1 64.2 -373 63.9 C-366.9 63.7 -352.5 60.2 -350 59.1 C-347.5 58 -348.8 40.6 -348.8 39.3 C-348.8 13 -348.6 16.4 -348.6 16.4 z" id="u" fill="#AA602E" /><path d="M-348.6 16.4 C-348.6 16.4 -348.8 12.9 -348.8 39.3 C-348.8 40.6 -347.5 58 -350 59.1 C-352.5 60.2 -366.9 63.7 -373 63.9 C-379.1 64.2 -381.2 60 -382.5 57 C-383.9 53.9 -382.5 48.4 -381.2 47 C-380.3 46.1 -377.1 45.6 -371.5 45.6 C-376.1 40 -379.3 35.3 -381.2 31.7 C-384 26.3 -381.2 16.4 -378.3 13.1 C-375.4 9.7 -370.3 7.1 -363.9 6.1 C-357.5 5.1 -355.1 7.2 -353.1 8.1 C-351.1 9.1 -348.6 16.4 -348.6 16.4 z M-350 16.5 C-350 16.5 -352.3 9.7 -354.1 8.9 C-355.9 8.1 -358.1 6.1 -364 7.1 C-369.9 8.1 -374.6 10.3 -377.3 13.5 C-380 16.5 -382.5 25.6 -380 30.6 C-378.2 33.9 -373.6 41.1 -369.3 46.3 C-374.4 46.3 -379 47.1 -379.8 48 C-381 49.3 -382.4 51 -381.1 53.9 C-379.9 56.7 -378 60.5 -372.4 60.2 C-366.8 60 -353.5 56.8 -351.2 55.8 C-348.9 54.8 -350.1 38.8 -350.1 37.6 C-350.2 13.4 -350 16.5 -350 16.5 z" opacity="0.15" id="v" /></g><g transform="translate(85.90001, 85.79997) translate(35, 41)" id="w"><path d="M14.8 19.9 C11.3 33.7 12.9 36.6 9.3 47.7 C5.7 58.8 1.3 70.5 3.2 87.6 C4.6 100.8 11.8 132.8 17.6 146.9 C19.3 151.1 22.5 152.3 23.4 152.6 C27.2 154.2 66.3 154.3 72.2 152.6 C73.3 152.3 76.3 151.4 77.8 148.1 C84.6 134.1 92.8 97 94.1 87.6 C96.2 75.3 92.7 55.1 88.5 47.9 C82.5 37.5 82.5 23 81.3 20.8 C79.3 16.1 75.6 10.6 66.6 4.4 C63.9 2.5 51.7 0.7 49.1 0.8 C45.4 0.9 37.4 2 34.5 4.5 C28.5 9.6 16.7 12.5 14.8 19.9 z" id="x" fill="#D07331" /><path d="M14.8 19.9 C16.7 12.5 28.5 9.6 34.5 4.5 C37.4 2 45.4 0.9 49.1 0.8 C51.7 0.7 63.9 2.5 66.6 4.4 C75.6 10.6 79.3 16.1 81.3 20.8 C82.5 23 82.5 37.5 88.5 47.9 C92.7 55.1 96.2 75.3 94.1 87.6 C92.8 97 84.6 134.1 77.8 148.1 C76.3 151.4 73.3 152.3 72.2 152.6 C66.3 154.3 27.2 154.2 23.4 152.6 C22.5 152.3 19.3 151.1 17.6 146.9 C11.8 132.8 4.6 100.8 3.2 87.6 C1.3 70.5 5.7 58.8 9.3 47.7 C12.9 36.6 11.3 33.7 14.8 19.9 z M16.2 20.2 C12.8 33.5 14.4 36.3 10.9 46.9 C7.4 57.6 3.2 68.8 5 85.2 C6.4 97.8 13.3 128.6 18.9 142.1 C20.5 146.1 23.6 147.3 24.4 147.5 C28.1 149.1 65.6 149.2 71.2 147.5 C72.3 147.3 75.2 146.4 76.6 143.2 C83.1 129.8 91 94.2 92.3 85.2 C94.3 73.4 90.9 54 86.9 47.1 C81.1 37.1 81.1 23.2 80 21.1 C78.1 16.6 74.5 11.3 65.9 5.4 C63.3 3.5 51.6 1.8 49.1 1.9 C45.5 2 37.9 3.1 35.1 5.5 C29.3 10.3 18 13.1 16.2 20.2 z" opacity="0.15" id="y" /></g><g transform="translate(122.7124, 183.535) scale(0.9605283, 0.9270583) translate(-120.8, -178.4) translate(87.80001, 76.79997) translate(33, 103)" id="z"><g id="a1"><path d="M48.8 34 C46.6 34 38.7 32 37.5 31.2 C33.2 28.2 31.8 27.2 27.1 23 C25.9 21.9 24.3 16.5 22.7 14.9 C17.2 9.4 9.6 -1.4 5.4 0.3 C5 0.5 4.3 2.6 3.8 3.9 C1.9 8.4 1.4 11.6 0.7 18 C0 24.4 1.5 39.1 2.2 43.1 C3.6 50.8 5.5 55.4 7.4 65.5 C9.3 75.6 10.8 87.1 9.2 89 C8.5 89.9 2.7 94.1 1.4 97.9 C1.1 98.8 1.4 103 2.6 104.9 C3.7 106.7 12 106.1 14.5 106.1 C19.4 106.1 28.6 105.2 30.9 103.9 C33.2 102.6 34.8 98.1 34.7 94.5 C34.6 90.9 32.3 75.9 32.9 59.9 C33 51.7 31.9 44 34 41.4 C34.5 40.8 36.1 42.5 37.6 43.7 C39.5 45.3 41.4 46.7 43.1 47.7 C46 49.4 47.8 50.4 48 50.4 C48.5 50.4 49.3 50.2 50.2 49.8 C51.5 49.3 53.2 48.9 54.5 48 C55.8 47.2 57.8 45.9 58.5 45.5 C60.8 43.9 63.1 41.5 64 42.4 C66.6 45 64.8 50.8 65.1 59.8 C65.7 75.7 63.5 90.8 63.3 94.4 C63.1 98 64.7 102.5 67.1 103.8 C69.5 105.1 78.6 106 83.5 106 C85.9 106 94.2 106.6 95.4 104.8 C96.5 102.9 96.9 98.8 96.6 97.8 C95.2 94 89.5 89.8 88.8 88.9 C87.2 87 88.8 72.3 90.7 62.2 C92.6 52.1 93.9 48.1 95.3 40.4 C96 36.4 96.9 24.8 96.9 18.8 C96.7 12.8 95.1 5.6 93.5 2.6 C92.9 0.9 93.1 -0.6 91.8 0.3 C89.4 2 84.5 7.4 82 10.8 C80.1 13.4 77.3 14.7 74.4 18 C72.3 20.3 70.4 25.9 68.5 27.6 C63.9 31.6 51 34 48.8 34 z" id="b1" fill="#FDA75C" /><path d="M5.4 0.1 C5 0.3 4.3 2.4 3.8 3.7 C1.9 8.2 1.4 11.4 0.7 17.8 C0 24.2 1.4 38.9 2.1 43 C2.1 43.1 2.1 43.2 2.2 43.3 C2.6 43.2 4.1 45 5.4 45.1 C7.1 45.3 8.5 43.7 8.7 41.5 C8.8 39.1 6.9 35.4 6.9 31.3 C6.8 24.8 8.8 17.5 10.6 14 C12.9 9.7 10.5 4.6 8.7 1.2 C7.4 0.2 6.3 -0.2 5.4 0.1 z" id="c1" fill="#FFF" /><path d="M95.3 40.4 C96 36.4 96.9 24.8 96.9 18.8 C96.7 12.8 95.1 5.6 93.5 2.6 C92.9 0.9 93.1 -0.6 91.8 0.3 C91 0.8 90.1 1.8 89.1 3 C87.5 6.3 86.1 10.5 88 14.2 C89.8 17.6 89.9 27.7 89.1 34.9 C88.6 39.3 87.4 41.4 87.5 43.7 C87.9 50 93.5 46.7 94.1 46.3 C94.1 45.9 95.2 40.8 95.3 40.4 z" id="d1" fill="#FFF" /><g id="e1"><path d="M48.8 34 C51 34 63.9 31.6 68.5 27.6 C70.4 25.9 72.3 20.3 74.4 18 C77.3 14.7 80.1 13.4 82 10.8 C84.5 7.4 89.4 2 91.8 0.3 C93.1 -0.6 92.9 0.9 93.5 2.6 C95.1 5.6 96.7 12.8 96.9 18.8 C96.9 24.8 96 36.4 95.3 40.4 C93.9 48.1 92.6 52.1 90.7 62.2 C88.8 72.3 87.2 87 88.8 88.9 C89.5 89.8 95.2 94 96.6 97.8 C96.9 98.8 96.5 102.9 95.4 104.8 C94.2 106.6 85.9 106 83.5 106 C78.6 106 69.5 105.1 67.1 103.8 C64.7 102.5 63.1 98 63.3 94.4 C63.5 90.8 65.7 75.7 65.1 59.8 C64.8 50.8 66.6 45 64 42.4 C63.1 41.5 60.8 43.9 58.5 45.5 C57.8 45.9 55.8 47.2 54.5 48 C53.2 48.9 51.5 49.3 50.2 49.8 C49.3 50.2 48.5 50.4 48 50.4 C47.8 50.4 46 49.4 43.1 47.7 C41.4 46.7 39.5 45.3 37.6 43.7 C36.1 42.5 34.5 40.8 34 41.4 C31.9 44 33 51.7 32.9 59.9 C32.3 75.9 34.6 90.9 34.7 94.5 C34.8 98.1 33.2 102.6 30.9 103.9 C28.6 105.2 19.4 106.1 14.5 106.1 C12 106.1 3.7 106.7 2.6 104.9 C1.4 103 1.1 98.8 1.4 97.9 C2.7 94.1 8.5 89.9 9.2 89 C10.8 87.1 9.3 75.6 7.4 65.5 C5.5 55.4 3.6 50.8 2.2 43.1 C1.5 39.1 0 24.4 0.7 18 C1.4 11.6 1.9 8.4 3.8 3.9 C4.3 2.6 5 0.5 5.4 0.3 C9.6 -1.4 17.2 9.4 22.7 14.9 C24.3 16.5 25.9 21.9 27.1 23 C31.8 27.2 33.2 28.2 37.5 31.2 C38.7 32 46.6 34 48.8 34 z M48.8 36 C46.7 36 39.3 33.2 38.1 32.5 C34 29.7 30.6 28.5 26.1 24.5 C25 23.5 22.3 17.6 20.8 16.1 C15.6 10.9 11.8 1.7 7.8 3.3 C7.4 3.5 6.8 5.5 6.3 6.7 C4.5 10.9 4.1 13.9 3.4 20 C2.7 26.1 4.2 39.9 4.8 43.7 C6.1 51 7.9 55.3 9.7 64.8 C11.5 74.3 13.5 86.4 11.9 88.2 C11.9 90.1 4.5 94.9 3.9 96.6 C3.6 97.4 3.9 100.3 5.1 102.1 C6.1 103.8 14 103.2 16.3 103.2 C20.9 103.2 27.9 102.3 30 101 C32.1 99.7 32.8 94.2 32.7 90.8 C32.6 87.4 29.4 71.9 30 56.8 C30.1 49.1 30 39.8 32 37.4 C32.5 36.8 37.5 42 39 43.2 C40.8 44.7 47.9 48.3 48.7 47.9 C49.9 47.4 53.2 46.3 54.4 45.5 C55.6 44.7 59.7 41.6 60.4 41.3 C62.6 39.8 65.1 38.1 66.5 38.1 C68 40.2 67 51 67.3 59.5 C67.9 74.5 64.8 88.8 64.6 92.2 C64.4 95.6 65 99.9 67.3 101.1 C69.6 102.3 76.8 103.2 81.5 103.2 C83.8 103.2 91.5 104.9 92.6 103.2 C93.6 101.4 94.4 98.7 94.1 97.8 C92.8 94.2 87.8 91.8 87.2 90.9 C85.7 89.1 86.5 71.4 88.3 61.9 C90.1 52.4 91.3 48.6 92.6 41.3 C93.3 37.5 94.1 26.6 94.1 20.9 C94 15.1 92.5 8.3 91 5.4 C90.4 3.8 90.6 2.4 89.4 3.2 C87.1 4.8 83.9 10.2 81.6 13.4 C79.8 15.9 76.9 17.5 74.1 20.6 C72.1 22.8 71.2 27.1 69.4 28.7 C65 32.6 50.9 36 48.8 36 z" fill-opacity="0.3" id="f1" /></g></g></g></g><g transform="translate(169.6, 177.3) scale(0.9938346) translate(-169.6, -177.3)" id="g1"><g transform="translate(143.2999, 104.4) scale(0.8) translate(-143.2999, -104.4) translate(-282.4, 47.99997) translate(26, 0)" id="h1"><g transform="translate(0.775704, 0)" id="i1"><path d="M383.5 49.2 C383.4 40.7 383.4 33.7 385.1 25.4 C386.8 17.1 393.9 9 395.1 7.3 C396.3 5.6 399 5.5 400 7.3 C400.5 8.3 401.7 10.6 403.4 14.4 C404.8 17.5 406.2 22 406.9 23.5 C410.4 31.4 413.3 35.7 414.2 40 C414.1 46.4 409 50.5 399.9 60.6 C398.3 62.5 395.1 63.8 391.5 63.2 C387.9 62.6 383.6 57.7 383.5 49.2 z" id="j1" fill="#AA602E" /><path d="M383.5 49.2 C383.4 40.7 383.4 33.7 385.1 25.4 C386.8 17.1 393.9 9 395.1 7.3 C396.3 5.6 399 5.5 400 7.3 C400.5 8.3 401.7 10.6 403.4 14.4 C404.8 17.5 406.2 22 406.9 23.5 C410.4 31.4 413.3 35.7 414.2 40 C414.1 46.4 409 50.5 399.9 60.6 C398.3 62.5 395.1 63.8 391.5 63.2 C387.9 62.6 383.6 57.7 383.5 49.2 z M385.6 46.7 C385.7 54.4 389.3 58.9 392.4 59.4 C395.4 59.9 398.1 58.8 399.5 57 C407.2 47.8 411.5 44.1 411.6 38.3 C410.8 34.4 408.4 30.5 405.4 23.3 C404.8 21.9 403.6 17.9 402.4 15 C401 11.5 400 9.5 399.5 8.6 C398.7 7 396.4 7.1 395.4 8.6 C394.4 10.1 388.4 17.6 386.9 25.1 C385.4 32.6 385.5 39 385.6 46.7 z" opacity="0.15" id="k1" /><path d="M389.4 55.7 C386 50.7 386.8 36.3 388 27.6 C389.1 18.8 394.3 14.6 395.6 13.2 C396.8 12.4 397.6 13.8 399.3 18 C400.2 20.3 401.4 25 402.7 27.6 C406.5 34.8 409.5 38.3 409.3 41.9 C409.1 46.8 405.3 47.1 401.3 53.4 C398.6 57.6 392.8 60.7 389.4 55.7 z" id="l1" fill="#FDA75C" /></g></g><g transform="translate(195.9001, 104.4) scale(0.8) translate(-195.9001, -104.4) translate(-287.8, 49.19997) translate(101, 29) scale(-1, 1) translate(-101, -29) translate(85, 0)" id="m1"><g transform="translate(0.224296, 0)" id="n1"><path d="M-383.2 49.2 C-383.3 40.7 -383.3 33.7 -381.6 25.4 C-379.9 17.1 -372.8 9 -371.6 7.3 C-370.4 5.6 -367.7 5.5 -366.7 7.3 C-366.2 8.3 -365 10.6 -363.3 14.4 C-361.9 17.5 -360.5 22 -359.8 23.5 C-356.3 31.4 -353.4 35.7 -352.5 40 C-352.6 46.4 -357.7 50.5 -366.8 60.6 C-368.4 62.5 -371.6 63.8 -375.2 63.2 C-378.8 62.6 -383.1 57.7 -383.2 49.2 z" id="o1" fill="#AA602E" /><path d="M-383.2 49.2 C-383.3 40.7 -383.3 33.7 -381.6 25.4 C-379.9 17.1 -372.8 9 -371.6 7.3 C-370.4 5.6 -367.7 5.5 -366.7 7.3 C-366.2 8.3 -365 10.6 -363.3 14.4 C-361.9 17.5 -360.5 22 -359.8 23.5 C-356.3 31.4 -353.4 35.7 -352.5 40 C-352.6 46.4 -357.7 50.5 -366.8 60.6 C-368.4 62.5 -371.6 63.8 -375.2 63.2 C-378.8 62.6 -383.1 57.7 -383.2 49.2 z M-381.9 47 C-381.8 54.8 -378 59.2 -374.8 59.8 C-371.6 60.4 -368.8 59.2 -367.3 57.4 C-359.2 48.2 -354.7 44.4 -354.6 38.6 C-355.4 34.7 -358 30.7 -361.1 23.5 C-361.7 22.1 -363 18 -364.2 15.2 C-365.7 11.7 -366.8 9.6 -367.2 8.7 C-368.1 7.1 -370.5 7.1 -371.6 8.7 C-372.7 10.3 -379 17.6 -380.5 25.2 C-382 32.8 -382 39.2 -381.9 47 z" opacity="0.15" id="p1" /><path d="M-377.3 55.7 C-380.7 50.7 -379.9 36.3 -378.7 27.6 C-377.6 18.8 -372.4 14.6 -371.1 13.2 C-369.9 12.4 -369.1 13.8 -367.4 18 C-366.5 20.3 -365.3 25 -364 27.6 C-360.2 34.8 -357.2 38.3 -357.4 41.9 C-357.6 46.8 -361.4 47.1 -365.4 53.4 C-368.1 57.6 -373.9 60.7 -377.3 55.7 z" id="q1" fill="#FDA75C" /></g></g><g transform="translate(107.1, 84.09998) translate(23, 5)" id="r1"><g id="s1"><g id="t1"><path d="M71.9 15 C69.6 10.8 64.7 4.9 57.9 4.1 C51 3.3 45.8 0.3 39.5 0.3 C33.2 0.3 28 3.3 21.1 4.1 C14.3 4.9 9.4 10.8 7.1 15 C1.7 24.7 -0.9 28.2 0.8 44.6 C2.6 61 1.7 66.5 7.1 72.9 C17.7 85.5 25.5 94.3 39.5 94.4 C53.5 94.3 61.8 86 71.9 72.9 C76.3 67.2 76.4 61 78.2 44.6 C80 28.2 77.3 24.7 71.9 15 z" id="u1" fill="#FDA75C" /><path d="M71.9 15 C77.3 24.7 80 28.2 78.2 44.6 C76.4 61 76.3 67.2 71.9 72.9 C61.8 86 53.5 94.3 39.5 94.4 C25.5 94.3 17.7 85.5 7.1 72.9 C1.7 66.5 2.6 61 0.8 44.6 C-0.9 28.2 1.7 24.7 7.1 15 C9.4 10.8 14.3 4.9 21.1 4.1 C28 3.3 33.2 0.3 39.5 0.3 C45.8 0.3 51 3.3 57.9 4.1 C64.7 4.9 69.6 10.8 71.9 15 z M71.2 14.7 C68.9 10.6 64.1 4.8 57.5 4.1 C50.7 3.3 45.7 0.4 39.5 0.4 C33.3 0.4 28.3 3.3 21.5 4.1 C14.9 4.8 10.1 10.6 7.8 14.7 C2.5 24.2 0 27.6 1.7 43.7 C3.4 59.7 2.5 65.1 7.8 71.3 C18.2 83.6 25.8 92.2 39.5 92.3 C53.2 92.2 61.3 84.1 71.2 71.3 C75.5 65.8 75.6 59.7 77.3 43.7 C79.1 27.6 76.5 24.2 71.2 14.7 z" opacity="0.15" id="v1" /></g></g></g><g id="w1"><g transform="translate(108.5, 91.19997) translate(39, 34)" id="x1"><path d="M43.8 25.9 C34.9 27 32.1 15 29.6 9.5 L28.8 25.7 C28.5 29.8 24.5 32.1 21.1 31.9 C17.7 32.1 14.9 28.9 14.9 25.7 C14.9 23.6 14.8 18.2 14.5 9.5 C12.1 15 9.2 26.8 0.3 25.7 L1.2 29.7 C1.6 32 2 34.8 2.4 38.3 C3.5 48.9 9.9 52 22.1 52 C34.4 51.9 40.8 48.9 41.8 38.3 C42.2 34.8 42.6 32 43 29.7 L43.8 25.9 z" id="y1" fill="#FFF" /><path d="M43.8 25.9 L43 29.7 C42.6 32 42.2 34.8 41.8 38.3 C40.8 48.9 34.4 51.9 22.1 52 C9.9 52 3.5 48.9 2.4 38.3 C2 34.8 1.6 32 1.2 29.7 L0.3 25.7 C9.2 26.8 12.1 15 14.5 9.5 C14.8 18.2 14.9 23.6 14.9 25.7 C14.9 28.9 17.7 32.1 21.1 31.9 C24.5 32.1 28.5 29.8 28.8 25.7 L29.6 9.5 C32.1 15 34.9 27 43.8 25.9 z M42.8 26.7 C34.6 27.7 32.5 17.4 30.2 12.2 L29.6 27.3 C29.3 31.1 25.2 33.1 22.1 32.9 C19 33.1 14.3 29.4 14.3 26.4 C14.3 24.4 14.1 19.9 14.1 11.8 C11.9 16.9 10.3 27.5 2.1 26.5 L3 30.5 C3.4 32.7 3.7 33.9 4 37.1 C5 47.1 10.9 50 22.1 50 C33.4 49.9 39.3 47.1 40.2 37.2 C40.6 33.9 41.1 32.3 41.5 30.1 L42.8 26.7 z" opacity="0.15" id="z1" /></g><g transform="translate(169.6, 177.5999) scale(0.5) translate(-169.6, -171.5999) translate(104.1, 97.79996) translate(38, 64)" id="a2"><g id="b2"><path d="M40.7 9.3 C36.3 7.2 33.8 11.5 29 11.5 C28.5 11.5 26.5 11.5 26 11.5 C21.2 11.6 18.7 7.3 14.3 9.3 C9.4 11.6 -0.1 5.3 0.5 6.2 C0.9 11.3 6.5 16.8 9.4 16.6 C10.4 16.5 14.1 16.3 15 16 C18.8 14.7 23.5 20.9 27.6 20.9 C31.7 20.9 36.3 14.7 40.1 16 C41 16.3 44.7 16.5 45.7 16.6 C48.5 16.8 54.2 11.3 54.6 6.2 C55.1 5.3 45.6 11.6 40.7 9.3 z" id="c2" fill="#965622" /><path d="M51.4 3.1 C50.2 3.8 48.8 6.6 46.8 7.6 C45.9 8.1 43.9 8.4 42.3 8 C41.3 7.4 40.1 6.6 38.6 5.6 C35.3 3.3 31.6 0.7 27.5 0.7 C23.4 0.7 19.7 3.3 16.4 5.6 C14.9 6.6 13.8 7.4 12.7 8 C11 8.4 9 8.1 8.1 7.7 C6.2 6.7 4.8 3.9 3.5 3.2 C2.4 2.5 0.2 3.8 0.2 5.3 C0 10.6 8.1 12.8 10.9 11.9 C12 11.7 13.1 11.3 14.3 10.7 C16.5 12 19.9 15.9 27.5 16.2 C35.1 16.5 38.5 12 40.7 10.7 C41.8 11.3 42.9 11.8 44 11.9 C46.8 12.8 54.9 10.6 54.7 5.3 C54.7 3.7 52.5 2.4 51.4 3.1 z" id="d2" fill="#282421" /><path d="M36.4 8.8 C36.2 7.9 35.1 7.4 34.2 7.2 C32 6.5 29.7 5.8 27.5 5.9 C25.2 5.8 23 6.5 20.8 7.2 C19.9 7.5 18.9 7.9 18.6 8.8 C18.4 9.7 18 11.8 18.7 12.4 C20.3 13.7 19.2 18.9 27.5 18.9 C35.8 18.9 34.6 13.8 36.2 12.4 C37 11.7 36.6 9.7 36.4 8.8 z" id="e2" fill="#CE5253" /></g></g><g transform="translate(169.6, 155.5999) scale(0.8) translate(-169.6, -159.5999) translate(102.5, 86.29996) translate(56, 65)" id="f2"><g id="g2"><path d="M20.3 1.6 C18.3 -0.6 14.7 0.3 11.1 0.3 C7.5 0.3 3.9 -0.6 1.9 1.6 C-0.1 3.8 -0.1 7.6 1.9 9.8 C3.3 11.3 4.7 12.2 6.6 13.2 C8.2 14.1 9.3 16.2 11 16.4 C12.8 16.2 13.8 14 15.4 13.2 C17.4 12.2 18.8 11.3 20.1 9.8 C22.3 7.6 22.3 3.9 20.3 1.6 z" id="h2" fill="#282523" /><path d="M16.8 3.2 C16.6 2.6 15.3 2.5 14.4 2.3 C12.8 2 10.5 2.2 7.8 2.2 C7.1 2.2 6.4 2.2 5.7 2.5 C5 2.8 4.6 3.5 4.7 4.2 C4.9 5.4 6.4 5.6 7.6 5.6 C9.5 5.6 11.5 5.6 13.4 5.5 C14.2 5.5 15 5.5 15.8 5.1 C16.6 4.7 17.1 4 16.8 3.2 z" id="i2" fill="#FEFEFE" /></g></g><g transform="translate(153.9, 126.6) scale(0.86) translate(-153.9, -126.6) translate(88.39999, 93.69997) translate(55, 18)" id="j2"><g id="k2"><path d="M1.8 10.9 C4.2 6.6 6.4 6 7.9 4.5 C10.3 2 13.9 0.3 14.6 0.8 C15.3 1.3 20.6 9.2 21.3 10.1 C22.5 11.8 22.5 14.4 21.3 17.7 C21 18.5 19.9 19.4 17.9 20.4 C15.3 21.1 12.7 21.4 10 21.3 C8.7 21.2 5.6 20.7 4.5 21 C2.1 21.6 2.1 23.1 1.5 21.9 C0.5 20.2 -0.8 15.7 1.8 10.9 z" id="l2" fill="#FBD291" /><path d="M17.4 18.2 C18.6 16.3 17.8 14 17.1 12.5 C16.3 10.7 14.6 9.9 13.7 9.5 C11.2 8.4 9.2 8.8 7.3 10.4 C5.4 12 3.8 15 3.8 16.6 C3.8 18.2 7.9 19.8 11 19.8 C14.2 19.6 16.3 20.1 17.4 18.2 z" id="m2" /><path d="M13.1 12.7 C13.1 11.5 12.1 10.5 10.9 10.5 C9.8 10.5 8.8 11.5 8.8 12.8 C8.8 14.1 9.8 15 11 15 C11 14.9 11 14.9 11 14.8 C10.8 14.3 10.9 13.8 11.4 13.2 C12 12.7 12.5 12.6 13.1 12.7 z" id="n2" fill="#FFFFFE" /></g></g><g transform="translate(185.3, 126.6) scale(0.86) translate(-185.3, -126.6) translate(84.59999, 93.69997) translate(89, 18)" id="o2"><path d="M20.5 10.9 C18.1 6.5 15.9 6 14.4 4.5 C12 2 8.4 0.3 7.7 0.8 C7 1.3 2.4 8.2 1.3 10 C-0.2 12.3 0.7 16.7 3 19.2 C5.3 21.7 8.2 21.5 12.3 21.2 C13.6 21.1 16.7 20.6 17.8 20.9 C20.2 21.5 20.2 23 20.8 21.8 C21.7 20.2 23 15.7 20.5 10.9 z" id="p2" fill="#FBD291" /><g transform="translate(5, 9)" id="q2"><path d="M1.1 8.8 C0 6.9 0.9 4.7 1.6 3.3 C2.4 1.7 4.2 0.9 5.1 0.6 C7.6 -0.3 9.6 0.2 11.4 1.8 C13.2 3.4 14.7 6.4 14.5 7.9 C14.3 9.4 10.3 10.7 7.3 10.6 C4.2 10.3 2.2 10.6 1.1 8.8 z" id="r2" /><path d="M8.7 4 C8.7 2.8 7.7 1.9 6.5 1.9 C5.4 1.9 4.4 2.9 4.4 4.1 C4.4 5.3 5.4 6.3 6.6 6.3 C6.6 6.2 6.6 6.2 6.6 6.1 C6.4 5.6 6.5 5.1 7 4.6 C7.6 4 8.1 3.9 8.7 4 z" id="s2" fill="#FFFFFE" /></g></g></g></g></g><g id="t2"><g transform="matrix(1, 0, 0, 1, 0, -0.02005005)"><g transform="translate(163.511, 144.2611) scale(0.9508884, 0.971593)"><g transform="translate(129, 0) translate(-2327.8, -417.9)" id="u2"><g id="v2"><path d="M2201 457.6 C2201.9 456.5 2203.5 455.7 2204.8 455.2 C2205.6 455 2206 455.8 2206.7 455.4 C2208.8 454.5 2211.2 453.9 2213.5 453.4 C2217.7 452.6 2222.2 452.1 2226.5 453.2 C2230.3 454.1 2233.8 455.9 2237.1 458.2 C2240.5 460.4 2243.6 463.2 2246.6 465.9 C2251 469.8 2255.3 473.7 2259.6 477.6 C2261.1 479 2262.5 480.7 2264.1 482.1 C2266 483.8 2268.8 484.6 2270.3 481.9 C2271.2 480 2271.8 477.9 2272.8 476.1 C2273.6 473.7 2278.5 473 2280.3 472.6 C2284.4 471.7 2288.9 471.1 2293 472.2 C2294.9 472.7 2296.1 473.3 2297 474.9 C2299.6 479.7 2302.8 485.5 2302.2 491.1 C2300.9 503.7 2286.9 507.6 2276.1 506.4 C2269.6 505.7 2263.6 503.1 2258.4 499.2 C2255.3 497 2253.1 494 2250.9 490.9 C2244.5 482.6 2238.6 474 2232.4 465.7 C2228.7 460.9 2223.1 458 2216.8 458.3 C2214.8 458.4 2212.7 458.8 2210.8 459.2 C2209.6 459.6 2207.6 459.8 2206.8 460.7 C2206 461.8 2205.1 461.5 2203.9 461.2 C2203.1 461 2202.4 460.8 2201.5 460.8 C2201 460.8 2199.8 460.9 2199.5 460.6 C2199.1 460.6 2200.1 458.6 2201 457.6 z" stroke="#511A1A" stroke-width="2.8" id="w2" fill="#894725" /><path d="M2201 457.6 C2201.9 456.5 2203.5 455.7 2204.8 455.2 C2205.6 455 2206 455.8 2206.7 455.4 C2208.8 454.5 2211.2 453.9 2213.5 453.4 C2217.7 452.6 2222.2 452.1 2226.5 453.2 C2230.3 454.1 2233.8 455.9 2237.1 458.2 C2240.5 460.4 2243.6 463.2 2246.6 465.9 C2251 469.8 2255.3 473.7 2259.6 477.6 C2261.1 479 2262.5 480.7 2264.1 482.1 C2266 483.8 2268.8 484.6 2270.3 481.9 C2271.2 480 2271.8 477.9 2272.8 476.1 C2273.6 473.7 2278.5 473 2280.3 472.6 C2284.4 471.7 2288.9 471.1 2293 472.2 C2294.9 472.7 2296.1 473.3 2297 474.9 C2299.6 479.7 2302.8 485.5 2302.2 491.1 C2300.9 503.7 2286.9 507.6 2276.1 506.4 C2269.6 505.7 2263.6 503.1 2258.4 499.2 C2255.3 497 2253.1 494 2250.9 490.9 C2244.5 482.6 2238.6 474 2232.4 465.7 C2228.7 460.9 2223.1 458 2216.8 458.3 C2214.8 458.4 2212.7 458.8 2210.8 459.2 C2209.6 459.6 2207.6 459.8 2206.8 460.7 C2206 461.8 2205.1 461.5 2203.9 461.2 C2203.1 461 2202.4 460.8 2201.5 460.8 C2201 460.8 2199.8 460.9 2199.5 460.6 C2199.1 460.6 2200.1 458.6 2201 457.6 z" id="x2" fill="#894725" /><path d="M2209.1 459.7 C2209.7 458.4 2209 457 2207.9 456.2 C2207.4 455.8 2207.1 455.5 2206.4 455.7 C2206 455.8 2205.7 455.3 2205.3 455.3 C2204.4 455.2 2203.3 455.9 2202.6 456.4 C2201.4 457.1 2200.7 457.8 2200.1 459 C2199.9 459.5 2198.8 461 2199.9 461.1 C2201.3 461.2 2202.5 461.2 2203.9 461.6 C2204.6 461.7 2206 462.3 2206.6 461.6 C2207.2 460.4 2208 460.2 2209.1 459.7 C2209.9 458 2208.9 459.8 2209.1 459.7 z" id="y2" fill="#1E1C1B" /><path d="M2230.8 463.7 C2233.3 466.4 2235.4 469.8 2237.5 472.8 C2241 477.8 2244.6 482.7 2248.1 487.5 C2250.6 490.9 2253.1 494.7 2256.2 497.5 C2260.7 501.5 2266.5 504.5 2272.2 505.8 C2274.7 506.4 2277.3 506.6 2279.7 506.6 C2277.2 505.8 2275.9 502 2274.5 500.1 C2272.3 497 2269.2 495.7 2265.5 494.9 C2262.4 494.2 2259.4 494 2256.7 492.2 C2254 490.3 2252.2 487.4 2250.2 484.8 C2246.1 479.1 2241.9 473.4 2237.5 468.1 C2235.8 466.2 2234.2 464.2 2232.3 462.6 C2229.6 460.5 2225.8 459.5 2222.6 458.8 C2221.4 458.6 2220.2 458.3 2219.1 458.1 C2219.8 458.8 2220.8 458.7 2221.7 458.9 C2222.9 459.3 2224.2 459.6 2225.2 460.2 C2227.4 460.9 2229.3 462.1 2230.8 463.7 C2233.5 466.7 2228.3 461 2230.8 463.7 z" id="z2" fill="#65371E" /><path d="M2302.4 490.7 C2302.9 485.3 2299.7 479.4 2297.1 474.8 C2296.7 474.2 2296.5 473.6 2295.9 473.3 C2294.8 472.6 2294.5 472.4 2293.8 473.3 C2292.7 474.8 2291.6 476.4 2290.5 477.9 C2293.6 479.3 2295.1 484.5 2293.4 487.4 C2292.8 488.6 2291.7 489.2 2290.7 489.9 C2289.3 491 2288.3 492.4 2287.6 494 C2286.4 496.8 2286.3 499.3 2288.3 501.7 C2288.8 502.2 2289.5 502.8 2289.4 503.6 C2289.4 504.7 2288 505.5 2287.2 506.1 C2301.3 503.1 2302.2 492.2 2302.4 490.7 C2302.5 489.2 2302.2 492.2 2302.4 490.7 z" fill-opacity="0.54" id="a3" fill="#B46136" /><path d="M2212.3 456.5 C2211.9 456.9 2214.7 456.6 2214.9 456.6 C2217.3 456.4 2219.7 456.2 2222.1 456.6 C2226 457.3 2229.9 458.7 2233.3 460.7 C2241 465.4 2245.6 473.9 2251.7 480.2 C2254.6 483.3 2258.2 485.6 2262.2 486.9 C2263.6 487.4 2265.1 487.7 2266.7 487.8 C2267.3 487.9 2268.9 488.2 2269.4 487.7 C2269.6 487.5 2264.8 485.6 2264.3 485.5 C2261.7 484.4 2259.1 483.4 2257.2 481.4 C2251.1 475 2246.4 467.6 2239.9 461.7 C2236.4 458.4 2231.9 455.9 2227.2 454.7 C2224.1 454 2221.1 454.1 2218 454.7 C2216.3 454.9 2213.6 455.2 2212.3 456.5 z" fill-opacity="0.5" id="b3" fill="#D08B61" /><path d="M2294.5 476.6 C2296.7 477.8 2298.5 479.8 2299.7 482 C2300.6 483.9 2302.2 486.6 2302.2 488.8 C2301.6 485.9 2300.9 482.9 2300 480.1 C2299.2 477.7 2297.8 475.9 2296.6 473.7 L2294.5 476.6 z" fill-opacity="0.6" id="c3" fill="#FFBF9C" /><path d="M2272.8 475.9 C2272.3 477.2 2271.7 478.5 2271.3 479.8 C2270.7 481.2 2270.1 483.2 2268.4 483.7 C2268 483.8 2268.9 483.9 2268.9 483.9 C2269.7 484 2270.7 483.9 2271.5 483.8 C2273.4 483.4 2274.9 482.3 2276 480.6 C2276.1 480.4 2277.2 478.8 2276.9 478.6 C2276.4 478.2 2276.1 478 2275.6 477.7 C2274.5 477.2 2273.7 476.5 2272.8 475.9 z" id="d3" fill="#65371E" /><path d="M2284.7 479.7 C2291.3 478.9 2296.5 476.5 2296.3 474.3 C2296.2 472.8 2293.7 472.2 2292.5 471.9 C2289.7 471.3 2286.8 471.4 2284 471.8 C2281.2 472.2 2278.2 472.7 2275.6 473.9 C2274.4 474.5 2272.2 475.6 2272.4 477.2 C2272.7 479.3 2278.2 480.5 2284.7 479.7 C2291.3 478.8 2278.2 480.5 2284.7 479.7 z" id="e3" fill="#B46136" /><path d="M2285 477.9 C2286.4 477.8 2294 477 2293.7 474.4 C2293.5 471.8 2285.8 472.6 2284.4 472.7 C2283 472.8 2275.4 473.6 2275.7 476.2 C2275.8 477.3 2277.7 477.6 2278.5 477.7 C2280.7 478.2 2282.9 478.1 2285 477.9 C2290 477.3 2280 478.5 2285 477.9 z" id="f3" fill="#1E1C1B" /><path d="M2288.5 456.3 C2292.6 448.5 2294.5 435.1 2284.6 417.9 C2285.5 422.9 2286.5 427.8 2287.2 432.9 C2287.8 437.3 2288.5 441.9 2287.7 446.2 C2287 449.6 2284.8 452.7 2283.6 456.1 C2281.9 461.1 2282.2 466.1 2283.4 471.1 C2283.9 465.2 2286.3 460.6 2288.5 456.3 C2292.6 448.5 2286.3 460.6 2288.5 456.3 z" fill-opacity="0.3765" id="g3" fill="#A1A8BD" /></g></g></g></g><g transform="matrix(1, 0, 0, 1, 1.525879E-05, -0.02006531)"><g transform="translate(119.0947, 117.598) scale(1.077014, 1.127492)"><g transform="translate(472, 130) translate(-2721.9, -624.4)" id="h3"><path d="M2300.3 498.9 C2296.1 498.9 2294.5 496.3 2290.2 495.6 C2290.2 495.6 2294 511.8 2296.6 510.8 C2297.2 509.1 2297.9 504.9 2300.4 504.9 C2302.9 504.9 2303.6 509.1 2304.2 510.8 C2306.8 511.7 2310.6 495.6 2310.6 495.6 C2306.2 496.3 2304.6 498.9 2300.3 498.9 z" id="i3" fill="#F2F2F2" /><linearGradient x1="-8287.477" y1="423.7451" x2="-8287.477" y2="422.7451" gradientUnits="userSpaceOnUse" gradientTransform="matrix(41.2828, 0, 0, 30.6484, 344456.1, -12460.86)" id="j3"><stop offset="0%" stop-color="#AFAA4B" stop-opacity="1" /><stop offset="12%" stop-color="#B08E40" stop-opacity="1" /><stop offset="28%" stop-color="#B16C33" stop-opacity="1" /><stop offset="45%" stop-color="#B25229" stop-opacity="1" /><stop offset="62%" stop-color="#B34022" stop-opacity="1" /><stop offset="80%" stop-color="#B3351D" stop-opacity="1" /><stop offset="100%" stop-color="#B3311C" stop-opacity="1" /></linearGradient><path d="M2304.9 504.1 C2304.9 500.6 2306.4 498.6 2309.9 497.6 C2312.7 496.9 2315.6 496.2 2318.4 495.8 C2325.1 495 2333.4 494.7 2339.6 497.7 C2345.8 500.8 2346.8 507.5 2346 513.7 C2345.3 519 2343.3 523.6 2337.9 525 C2333.9 526.1 2329.4 525.9 2325.3 525.7 C2321.4 525.6 2316.9 525.1 2313.7 522.8 C2310.4 520.3 2309.1 516.2 2307.5 512.7 C2306.2 510 2304.9 507.3 2304.9 504.1 z" id="k3" style="fill:url(#j3)" /><linearGradient x1="-8287.477" y1="423.7451" x2="-8287.477" y2="422.7451" gradientUnits="userSpaceOnUse" gradientTransform="matrix(41.2828, 0, 0, 30.6484, 344405.7, -12460.86)" id="l3"><stop offset="0%" stop-color="#AFAA4B" stop-opacity="1" /><stop offset="12%" stop-color="#B08E40" stop-opacity="1" /><stop offset="28%" stop-color="#B16C33" stop-opacity="1" /><stop offset="45%" stop-color="#B25229" stop-opacity="1" /><stop offset="62%" stop-color="#B34022" stop-opacity="1" /><stop offset="80%" stop-color="#B3351D" stop-opacity="1" /><stop offset="100%" stop-color="#B3311C" stop-opacity="1" /></linearGradient><path d="M2295.8 504.1 C2295.8 500.6 2294.3 498.6 2290.8 497.6 C2288 496.9 2285.1 496.2 2282.3 495.8 C2275.6 495 2267.3 494.7 2261.1 497.7 C2254.9 500.8 2253.9 507.5 2254.7 513.7 C2255.4 519 2257.4 523.6 2262.8 525 C2266.8 526.1 2271.3 525.9 2275.4 525.7 C2279.3 525.6 2283.8 525.1 2287 522.8 C2290.3 520.3 2291.6 516.2 2293.2 512.7 C2294.5 510 2295.8 507.3 2295.8 504.1 z" id="m3" style="fill:url(#l3)" /><path d="M2328.2 527.8 C2320.5 527.8 2313.2 526 2308.6 519.5 C2304.4 513.6 2299.2 503 2306.5 497.2 C2308.3 495.8 2310.9 495.4 2313.1 495.1 C2317.2 494.6 2321.4 494.6 2325.5 494.6 C2332.7 494.6 2343.5 494.6 2347 502.5 C2348.8 506.4 2348.2 510.8 2347.2 514.8 C2346.5 517.7 2345.4 520.7 2343.5 523.1 C2339.8 527.4 2333.6 527.8 2328.2 527.8 z M2326.5 498.1 C2323.2 498.1 2319.9 498.1 2316.7 498.3 C2314.3 498.4 2310.8 498.4 2308.8 500 C2305.6 502.6 2306.2 506.7 2307.6 510.1 C2309.7 515.6 2313.3 521.3 2319.2 523.2 C2322.9 524.4 2327 524.5 2330.8 524.3 C2333.4 524.2 2336.2 523.9 2338.6 522.6 C2340.7 521.4 2342 519.4 2342.8 517.2 C2344 513.9 2344.9 509.8 2344.3 506.2 C2343.2 498.2 2332.8 498.1 2326.5 498.1 z" id="n3" fill="#F2F2F2" /><path d="M2348.3 508.1 C2347 508.1 2345.6 508 2345 506.6 C2344.8 505.9 2344.6 505.1 2344.3 504.4 C2344.2 503.9 2342.4 498.9 2343.5 498.9 C2345.3 499.3 2349.3 499.5 2350.2 501.1 C2350.8 502.2 2350.6 503.8 2350.6 504.9 C2350.6 506.3 2350.3 508.1 2348.3 508.1 z" id="o3" fill="#F2F2F2" /><path d="M2307.6 509.9 C2309.5 513.8 2311.4 517.9 2315 520.4 C2318.5 522.9 2323 523.5 2327.3 523.6 C2331 523.7 2335.8 523.8 2339 521.6 C2342.5 519.2 2343.6 514.6 2344.4 510.9 C2344.2 515.5 2343.2 520.6 2339 523.2 C2335.6 525.3 2331 525.6 2327 525.4 C2322.9 525.3 2318.6 524.5 2315.2 522.1 C2311 519.2 2309 514.5 2307.6 509.9 C2308.8 512.3 2308.7 513.3 2307.6 509.9 z" id="p3" fill="#6D6D6D" /><path d="M2272.5 527.8 C2267.2 527.8 2261.1 527.4 2257.4 523.2 C2255.4 521 2254.3 518 2253.6 515.2 C2252.7 511.2 2252.1 506.8 2253.6 502.9 C2256.8 494.9 2267.3 494.4 2274.6 494.5 C2278.8 494.5 2283 494.5 2287.2 495 C2289.4 495.2 2292 495.6 2294 497 C2301.7 502.3 2296.1 513.4 2292.2 519.2 C2287.6 525.9 2280.3 527.8 2272.5 527.8 z M2274.3 498.1 C2267.6 498.1 2257 498.5 2256.3 507.3 C2256.1 510.7 2256.9 514.7 2258.2 517.9 C2259.1 520 2260.6 521.9 2262.7 522.9 C2265.2 524.1 2268.1 524.2 2270.8 524.3 C2274.6 524.4 2278.6 524.3 2282.2 523 C2288 520.9 2291.5 514.9 2293.4 509.3 C2294.5 506.1 2294.8 502.5 2292 500.1 C2290.2 498.6 2287 498.6 2284.8 498.4 C2281.3 498.1 2277.8 498.1 2274.3 498.1 z" id="q3" fill="#F2F2F2" /><path d="M2252.4 508.1 C2253.7 508.1 2255.1 508 2255.7 506.6 C2255.9 505.9 2256.1 505.1 2256.4 504.4 C2256.5 503.9 2258.3 498.9 2257.2 498.9 C2255.4 499.3 2251.4 499.5 2250.5 501.1 C2249.9 502.2 2250.1 503.8 2250.1 504.9 C2250.1 506.3 2250.4 508.1 2252.4 508.1 z" id="r3" fill="#F2F2F2" /><path d="M2293.1 509.9 C2291.9 514.3 2290 518.7 2286.3 521.6 C2282.6 524.3 2278 525.3 2273.6 525.4 C2269.6 525.5 2264.5 525.4 2261.1 522.9 C2257.3 520.2 2256.6 515.2 2256.4 511 C2257.2 515.2 2258.5 520.1 2262.6 522.1 C2266 523.8 2270.5 523.9 2274.2 523.6 C2278.1 523.5 2282.1 522.7 2285.4 520.4 C2289.2 517.9 2291.1 513.8 2293.1 509.9 C2292.3 512.8 2291.6 512.8 2293.1 509.9 z" id="s3" fill="#6D6D6D" /><path d="M2349.2 502.3 C2349.1 500.6 2347.9 500.6 2346.6 500.6 C2344 500.6 2342.8 499.2 2340.8 497.9 C2337 495.4 2332.2 495.1 2327.8 495.1 C2323.3 495.1 2318.8 495.1 2314.5 495.7 C2312.4 495.9 2310.3 496.4 2308.4 497.2 C2306.6 497.9 2305.1 499 2303.3 499.7 C2301.6 500.3 2300.2 500.5 2298.5 500.1 C2296.6 499.5 2295.2 498.6 2293.5 497.7 C2289.5 495.8 2284.8 495.5 2280.4 495.3 C2275.9 495.2 2271.3 494.9 2266.8 495.7 C2264.7 496.1 2262.6 496.5 2260.8 497.6 C2258.7 498.8 2257.3 500.7 2254.7 500.8 C2253.3 500.8 2251.8 500.7 2251.6 502.5 C2251.6 503.4 2251.2 504.3 2251.2 505.2 C2251.2 506.3 2252 506.1 2252.9 506.3 C2254.6 506.5 2254.7 505.2 2255.6 504.2 C2256.8 502.7 2258.2 501.4 2259.8 500.2 C2263.6 497.5 2268.5 497.4 2273 497.4 C2278.1 497.4 2283.4 497.2 2288.3 497.9 C2287.4 497.8 2286.5 497.8 2286.3 497.8 C2289.8 498.2 2295.6 499.7 2296.8 503.7 C2298.9 501.7 2302 501.7 2304.1 503.7 C2305.2 499.6 2311.1 498.2 2314.6 497.8 C2314.4 497.8 2313.5 497.8 2312.6 497.9 C2317.1 497.2 2321.7 497.4 2326.3 497.4 C2330.3 497.3 2334.4 497.4 2338.2 498.7 C2341.3 499.8 2343.9 502.2 2345.7 504.8 C2345.9 505.2 2346.2 505.5 2346.4 505.9 C2346.6 506.8 2347.8 506.4 2348.4 506.4 C2350.3 505.7 2349.2 503.9 2349.2 502.3 C2349.1 500.4 2349.2 504.2 2349.2 502.3 z" id="t3" fill="#FFF" /></g></g></g><g transform="matrix(1, 0, 0, 1, 1.525879E-05, -0.02005768)"><g transform="translate(114.4713, 31.55555) scale(0.9441444, 0.9694317)"><g transform="translate(318, 840) translate(-2542.1, -989.8)" id="u3"><path d="M2241.7 155.8 C2241.6 155.7 2241.6 155.6 2241.6 155.4 C2241.7 154.6 2244 154.5 2244.4 154.3 C2246.9 153.9 2249.5 153.9 2252.1 153.9 C2260.7 153.9 2269.2 154.5 2277.8 155.2 C2288.1 156 2298.2 157.2 2308.3 158.7 C2315 159.8 2321.9 160.7 2328.5 162.7 C2329.6 163.1 2331.4 163.4 2332.2 164.4 C2333.3 165.9 2332.1 168.8 2331.7 170.3 C2329.8 176.7 2326.4 182.6 2324.2 188.7 C2322 194.8 2319.8 201.1 2318.3 207.3 C2317.8 209.4 2317.4 211.5 2317.4 213.7 C2317.4 215 2317.5 216.2 2317.5 217.5 C2318.7 217.5 2319.7 217.5 2320.9 217.5 C2323.1 217.5 2325.4 217.6 2327.6 217.9 C2330.3 218.1 2335.9 218.5 2336.6 222 C2337.4 226.1 2333.9 228.8 2330.7 230.7 C2324.1 234.5 2316 236 2308.4 237.1 C2299.3 238.4 2290 238.6 2280.8 238.2 C2271.5 237.8 2262.3 236.3 2253.4 233.8 C2249.3 232.6 2245.3 231.2 2241.4 229.4 C2237.5 227.6 2233.4 225.7 2230.2 222.9 C2227.3 220.3 2224.7 215.6 2227.6 211.9 C2228.9 210.4 2231.3 210.5 2233.1 210.5 C2237.1 210.5 2241.4 210.6 2245.4 211.3 C2246.1 206.1 2246.6 201 2246.7 195.9 C2246.8 189.7 2246.1 183.5 2245.3 177.4 C2244.6 172.6 2243.8 167.9 2242.8 163.1 C2242.6 161.6 2242.2 160.2 2242 158.6 C2241.2 157.4 2241.1 156.8 2241.7 155.8 C2241.6 155.6 2241.6 156 2241.7 155.8 z" id="v3" fill="#FF9A00" /><path d="M2240.9 155.6 C2240.9 153.7 2243.8 153.6 2245.3 153.5 C2249.4 153.1 2253.6 153.3 2257.6 153.4 C2267.3 153.6 2277.1 154.5 2286.7 155.5 C2296.5 156.6 2306.3 157.7 2315.9 159.4 C2320 160.1 2324.2 160.9 2328.2 162.1 C2330.1 162.7 2332.2 163.2 2332.8 165.2 C2333.2 166.4 2332.8 167.7 2332.6 168.7 C2332.1 170.7 2331.4 172.7 2330.7 174.7 C2329.5 177.8 2327.9 180.6 2326.6 183.5 C2324.1 189.5 2322 195.9 2320.2 202.1 C2319.4 204.8 2318.7 207.4 2318.2 210.2 C2318.1 211 2317.8 211.9 2317.8 212.7 C2317.8 213.3 2317.8 213.8 2317.8 214.4 C2317.8 215.2 2317.4 216.9 2318.3 216.9 C2322.3 216.9 2326.3 216.9 2330.2 217.6 C2332.2 218 2334.4 218.5 2335.9 220.1 C2339.2 224 2335 228.7 2331.8 230.7 C2325 235.2 2316 236.8 2308 237.9 C2298.7 239.2 2289.1 239.4 2279.7 239 C2269.9 238.5 2260.1 237 2250.8 234 C2246.7 232.7 2242.5 231.2 2238.5 229.3 C2234.7 227.5 2230.8 225.4 2227.9 222.3 C2225.7 219.8 2224.1 216.2 2225.7 212.9 C2226.8 210.5 2228.6 210 2231 209.8 C2234.5 209.6 2238.1 210 2241.6 210.3 C2242.2 210.3 2242.7 210.4 2243.3 210.4 C2244.1 210.5 2244.1 210.8 2244.2 209.8 C2244.3 208.6 2244.4 207.3 2244.6 206.1 C2244.8 203.9 2245.1 201.7 2245.2 199.5 C2245.7 191 2244.7 182.8 2243.3 174.4 C2243.4 173.8 2242.9 172.5 2242.8 171.8 C2242.4 169.8 2242.1 167.7 2241.7 165.7 C2241.3 163.6 2241 161.5 2240.8 159.3 C2240.5 158 2240.2 156.9 2240.9 155.6 C2240.9 155.5 2240.8 155.9 2240.9 155.6 z" stroke="#864500" stroke-width="1.3" id="w3" fill="none" /><path d="M2276.1 216.7 C2267 215.8 2258.2 213.9 2249.2 212.2 C2246 211.6 2242.8 211.3 2239.5 210.9 C2236 210.7 2231.8 210 2228.4 211 C2224.5 212.2 2225.6 217.8 2227.2 220.3 C2229.4 223.7 2233.2 225.8 2236.9 227.7 C2240.9 229.8 2245.2 231.5 2249.5 232.9 C2267.5 238.8 2287.5 239.7 2306.2 237.5 C2313.7 236.6 2321.6 235.1 2328.5 231.7 C2332.2 229.9 2336.5 227.1 2336 222.5 C2335.8 220.5 2334.2 219.4 2332.5 218.8 C2327.3 217.1 2321.3 217.5 2315.9 217.5 C2302.7 217.7 2289.3 218 2276.1 216.7 C2263.2 215.4 2289.2 218 2276.1 216.7 z" id="x3" fill="#FF9A00" /><path d="M2329.5 218.8 C2330.9 219.5 2332.6 219.6 2333.6 220.9 C2334.8 222.1 2334.7 223.6 2333.8 224.9 C2332.3 227.3 2329.3 229.1 2326.7 230.3 C2322.1 232.3 2316.9 233.2 2312 234.1 C2293 237.4 2273.8 237.3 2255.2 232.4 C2247.8 230.4 2239.5 228.2 2233.4 223.3 C2231.5 221.9 2229.9 220.2 2228.8 218.1 C2228.3 217.2 2228 216 2228 214.8 C2228 213.5 2229.2 211.1 2230.8 211.5 C2232.7 212 2235 211.6 2237 211.7 C2239.1 211.8 2241.2 211.9 2243.4 212.3 C2246.8 212.8 2250.1 213.5 2253.4 214.1 C2262.4 215.9 2271.3 217.4 2280.5 218.1 C2289.3 218.7 2298.3 218.7 2307.1 218.7 C2312.2 218.7 2317.2 218.5 2322.3 218.7 C2323.7 218.8 2325 218.9 2326.4 219.2 C2327.5 219.4 2328.5 219.1 2329.5 218.8 z" id="y3" fill="#FFF" /><linearGradient x1="-7823.239" y1="435.3407" x2="-7821.901" y2="435.8432" gradientUnits="userSpaceOnUse" gradientTransform="matrix(105.0691, 0, 0, 23.9656, 824219.6, -10212.67)" id="z3"><stop offset="0%" stop-color="#FFC800" stop-opacity="1" /><stop offset="100%" stop-color="#F76B1C" stop-opacity="1" /></linearGradient><path d="M2330.2 218.4 C2331.7 219.2 2333.7 220.8 2333.7 222.6 C2333.7 224.5 2332 226 2330.6 227.1 C2328.9 228.4 2327.1 229.3 2325.2 230 C2319.9 231.9 2314.1 232.7 2308.5 233.4 C2290 235.6 2271.6 234.3 2253.6 229.7 C2246.6 227.9 2239 225.8 2233.1 221.3 C2231.4 220.1 2230 218.6 2229.3 216.7 C2228.9 215.8 2228.6 214.6 2228.7 213.5 C2228.9 212 2230.8 211 2232.1 210.7 C2234 210.1 2236.8 210.7 2238.8 210.8 C2240.7 210.9 2242.7 211 2244.6 211.4 C2248.1 211.9 2251.6 212.6 2255 213.3 C2264 215 2272.9 216.5 2282 217.2 C2289.8 217.7 2297.6 217.7 2305.5 217.7 C2313.7 217.5 2322 217.2 2330.2 218.4 C2331.4 218.9 2327.8 218 2330.2 218.4 z" id="a4" style="fill:url(#z3)" /><path d="M2244.4 217.2 C2244.2 216.8 2244.3 216 2244.3 215.5 C2244.4 214.2 2244.5 212.9 2244.8 211.6 C2245.3 207.6 2245.7 203.7 2246 199.7 C2246.6 189.8 2245.2 180.2 2243.5 170.5 C2242.9 167.2 2242.3 163.9 2241.7 160.6 C2241.5 159.3 2240.6 156.8 2241.7 155.6 C2243.5 153.6 2248.1 154.4 2250.5 154.7 C2260.3 155.5 2270.2 156.2 2280 157.1 C2284.8 157.5 2289.7 157.8 2294.5 158.6 C2304.2 160.1 2313.8 161.7 2323.6 163.1 C2325.3 163.3 2331.4 163.6 2331.9 165.2 C2332.1 166.1 2331.8 167.4 2331.7 168.4 C2331.2 170.4 2330.6 172.4 2329.8 174.4 C2328.6 177.5 2327.1 180.3 2325.8 183.2 C2323.3 189.2 2321.3 195.3 2319.6 201.6 C2318.8 204.3 2318.1 207.1 2317.5 209.9 C2316.9 212.7 2317.1 215.6 2317.3 218.5 C2317.3 220 2318 224.5 2316 225.2 C2314.6 225.7 2313.1 225.9 2311.5 226.3 C2304.8 227.5 2297.8 227.8 2290.9 227.7 C2279.3 227.6 2267.6 226.5 2256.5 223 C2253.6 222.1 2250.6 220.9 2247.8 219.3 C2246.5 218.8 2245.2 218.1 2244.4 217.2 C2243.6 216.1 2245.4 218.2 2244.4 217.2 z" id="b4" fill="#262222" /><linearGradient x1="-7810.948" y1="404.693" x2="-7810.378" y2="406.2901" gradientUnits="userSpaceOnUse" gradientTransform="matrix(90.587, 0, 0, 52.7759, 709852.6, -21188.06)" id="c4"><stop offset="0%" stop-color="#FFC800" stop-opacity="1" /><stop offset="100%" stop-color="#F76B1C" stop-opacity="1" /></linearGradient><path d="M2246.1 196.5 C2246.5 186.8 2244.7 177.2 2243 167.7 C2242.5 164.8 2241.8 161.9 2241.5 159 C2241.3 157.1 2241 155.5 2243.4 154.8 C2246.1 154 2249.2 154.7 2251.9 154.8 C2256.7 155.2 2261.6 155.5 2266.3 156 C2274.1 156.6 2282 157.3 2289.8 157.9 C2291.9 158 2293.9 158.5 2296 158.8 C2301.1 159.6 2306 160.3 2311.1 161.2 C2315.7 161.9 2320.3 162.6 2324.9 163.3 C2326 163.4 2327 163.7 2328.2 163.8 C2330.1 164.2 2332.2 164 2332 166.5 C2331.3 173.8 2326.8 180.3 2324.2 187 C2322.7 191 2321.3 195 2320.1 199.1 C2319.7 200 2319.5 201 2319.3 202 C2319.1 202.9 2319.1 204.2 2318 204.5 C2315.3 205.1 2312.5 205.6 2309.6 205.9 C2287.8 209 2265.6 206.5 2246.1 196.5 z" id="d4" style="fill:url(#c4)" /><path d="M2303.2 163.1 C2313.5 163.6 2320.8 163.6 2325.1 163.1 C2320.6 166.5 2317.7 171.9 2315.2 176.9 C2313.2 180.8 2311.2 184.8 2309.8 189 C2305.4 201.5 2302.6 214.5 2303.3 227.8 C2301.5 227.8 2299.6 227.8 2297.9 227.8 C2299.2 221.6 2299.9 215.5 2299.7 209.2 C2299.7 208.3 2300.1 207.3 2299 207.3 C2298.1 207.3 2297.2 207.3 2296.3 207.4 C2294.9 207.4 2293.5 207.5 2292.1 207.5 C2294.3 197.4 2297.6 187.6 2301.3 177.9 C2302.5 174.8 2303.8 171.8 2305 168.8 C2305.4 168 2305.6 167.3 2305.9 166.4 C2306.2 164.5 2304.9 163.7 2303.2 163.1 C2313.5 163.5 2305.2 163.8 2303.2 163.1 z" fill-opacity="0.5804" id="e4" fill="#FFDE00" /><linearGradient x1="-7778.64" y1="396.9395" x2="-7777.782" y2="397.0659" gradientUnits="userSpaceOnUse" gradientTransform="matrix(65.8026, 0, 0, 76.6214, 514104.5, -30222.8)" id="f4"><stop offset="0%" stop-color="#FFF17A" stop-opacity="0.5691" /><stop offset="100%" stop-color="#FFFD00" stop-opacity="0.5691" /></linearGradient><path d="M2250.4 157.2 C2253.3 165.3 2255.5 173.8 2257.4 182.3 C2259.4 191.7 2261.5 201.3 2261.8 210.9 C2261.9 214 2261.8 217.3 2261.1 220.2 C2260.7 221.6 2260.5 223.6 2259 223.7 C2254.3 224.1 2249.7 224.5 2245 224.9 C2243.3 225 2241.8 225.1 2240.2 225.3 C2244.7 227.3 2249.3 229.1 2254 230.1 C2257.5 230.9 2261.2 231.5 2264.8 232 C2268.2 232.5 2271.6 232.9 2275.2 233.4 C2276.6 233.5 2278.6 234.1 2279.9 233.4 C2281.1 232.8 2282 231.9 2283 231 C2283.7 230.4 2284.5 229.7 2285.2 229.1 C2285.7 228.7 2286 228.3 2286.5 227.9 C2287.3 227.2 2287.4 226.8 2287.7 225.8 C2288.6 221.3 2289.7 216.7 2290.8 212.2 C2292.6 204.8 2294.7 197.6 2297 190.3 C2299.2 183.7 2301.6 177.2 2304 170.7 C2304.6 169.2 2305.2 167.5 2305.8 166 C2306 165.3 2306.3 164.7 2305.7 164.1 C2304 162.2 2300.5 161.7 2298.3 161.3 C2292.6 160.1 2286.9 159.5 2281.2 158.9 C2270.9 158.2 2260.7 157.6 2250.4 157.2 C2254 167.1 2288.3 159.1 2250.4 157.2 z" id="g4" style="fill:url(#f4)" /><path d="M2285.1 167.4 C2310.1 170 2329.8 168 2332 165.5 C2333.3 164.1 2323.6 162 2323 161.8 C2314.5 160 2305.8 158.9 2297.2 157.8 C2286.8 156.5 2276.5 155.6 2266.1 154.7 C2259 154.2 2251.8 153.5 2244.8 154.2 C2244 154.3 2241.4 154.3 2241.6 155.6 C2241.8 156.9 2243.7 157.7 2244.8 158.2 C2247.3 159.5 2250 160.4 2252.7 161.3 C2263.2 164.8 2274.2 166.2 2285.1 167.4 C2310.1 170 2260.1 164.8 2285.1 167.4 z" id="h4" fill="#FFF" /><path d="M2241.7 155.4 C2241.8 154.6 2244.1 154.5 2244.6 154.3 C2247.2 153.9 2249.8 153.9 2252.4 153.9 C2261.1 153.9 2269.7 154.5 2278.3 155.3 C2288.4 156.2 2298.7 157.3 2308.7 159 C2315.3 160.1 2322.1 161 2328.5 163 C2329.4 163.2 2331.4 163.7 2331.9 164.7 C2332.4 165.5 2330.2 165.8 2329.9 165.9 C2324 166.8 2317.8 166.4 2311.9 166.1 C2292.8 165.2 2273.6 163.3 2254.8 159.6 C2251.5 159 2248.3 158.3 2245.1 157.4 C2244.5 157.1 2241.6 156.3 2241.7 155.4 z" id="i4" fill="#FFEC00" /><g transform="translate(15, 3)" id="j4"><path d="M2232.8 153.1 C2232.1 153.3 2231.1 153.8 2230.3 153.5 C2229.9 153.4 2228.5 151.5 2228.4 151.6 C2228.2 151.7 2228.6 153.8 2228.4 154.3 C2228.3 154.8 2226.6 155.8 2226.7 156 C2226.9 156.4 2228.9 155.4 2229.4 155.6 C2229.8 155.7 2231.2 157.7 2231.2 157.7 C2231.4 157.6 2230.5 155.3 2231.1 154.6 C2231.5 154.2 2231.9 154 2232.4 153.7 C2232.6 153.6 2232.9 153.5 2233.1 153.2 C2233.1 153.2 2232.9 153.1 2232.8 153.1 C2232.1 153.3 2232.9 153 2232.8 153.1 z" id="k4" /><path d="M2232.8 153.1 C2232.1 153.3 2231.1 153.8 2230.3 153.5 C2229.9 153.4 2228.5 151.5 2228.4 151.6 C2228.2 151.7 2228.6 153.8 2228.4 154.3 C2228.3 154.8 2226.6 155.8 2226.7 156 C2226.9 156.4 2228.9 155.4 2229.4 155.6 C2229.8 155.7 2231.2 157.7 2231.2 157.7 C2231.4 157.6 2230.5 155.3 2231.1 154.6 C2231.5 154.2 2231.9 154 2232.4 153.7 C2232.6 153.6 2232.9 153.5 2233.1 153.2 C2233.1 153.2 2232.9 153.1 2232.8 153.1 C2232.1 153.3 2232.9 153 2232.8 153.1 z" id="l4" fill="#FFF" /></g><g transform="translate(79, 12)" id="m4"><path d="M2244.3 154.7 C2243.6 154.9 2242.6 155.4 2241.8 155.1 C2241.4 155 2240 153.1 2239.9 153.2 C2239.7 153.3 2240 155.2 2240 155.6 C2239.9 156.1 2238.1 157.7 2238.1 157.6 C2238.3 158 2240.3 157 2240.8 157.2 C2241.2 157.3 2242.6 159.3 2242.6 159.3 C2242.8 159.2 2241.9 156.9 2242.5 156.2 C2242.9 155.8 2243.3 155.6 2243.8 155.3 C2244 155.2 2244.3 155.1 2244.5 154.8 C2244.5 154.8 2244.4 154.7 2244.3 154.7 C2243.6 155 2244.4 154.6 2244.3 154.7 z" id="n4" /><path d="M2244.3 154.7 C2243.6 154.9 2242.6 155.4 2241.8 155.1 C2241.4 155 2240 153.1 2239.9 153.2 C2239.7 153.3 2240 155.2 2240 155.6 C2239.9 156.1 2238.1 157.7 2238.1 157.6 C2238.3 158 2240.3 157 2240.8 157.2 C2241.2 157.3 2242.6 159.3 2242.6 159.3 C2242.8 159.2 2241.9 156.9 2242.5 156.2 C2242.9 155.8 2243.3 155.6 2243.8 155.3 C2244 155.2 2244.3 155.1 2244.5 154.8 C2244.5 154.8 2244.4 154.7 2244.3 154.7 C2243.6 155 2244.4 154.6 2244.3 154.7 z" id="o4" fill="#FFF" /></g><g transform="translate(66, 44)" id="p4"><path d="M2242 160.4 C2241.3 160.6 2240.3 161.1 2239.5 160.8 C2239.1 160.7 2237.7 158.8 2237.6 158.9 C2237.4 159 2237.7 160.9 2237.7 161.3 C2237.6 161.8 2235.8 163.4 2235.8 163.3 C2236 163.7 2238 162.7 2238.5 162.9 C2238.9 163 2240.3 165 2240.3 165 C2240.5 164.9 2239.6 162.6 2240.2 161.9 C2240.6 161.5 2241 161.3 2241.5 161 C2241.7 160.9 2242 160.8 2242.2 160.5 C2242.2 160.6 2242.1 160.4 2242 160.4 C2241.3 160.7 2242.1 160.3 2242 160.4 z" id="q4" /><path d="M2242 160.4 C2241.3 160.6 2240.3 161.1 2239.5 160.8 C2239.1 160.7 2237.7 158.8 2237.6 158.9 C2237.4 159 2237.7 160.9 2237.7 161.3 C2237.6 161.8 2235.8 163.4 2235.8 163.3 C2236 163.7 2238 162.7 2238.5 162.9 C2238.9 163 2240.3 165 2240.3 165 C2240.5 164.9 2239.6 162.6 2240.2 161.9 C2240.6 161.5 2241 161.3 2241.5 161 C2241.7 160.9 2242 160.8 2242.2 160.5 C2242.2 160.6 2242.1 160.4 2242 160.4 C2241.3 160.7 2242.1 160.3 2242 160.4 z" id="r4" fill="#FFF" /></g><g transform="translate(45, 0)" id="s4"><path d="M2241.4 152.8 C2240.1 153 2238.6 153.9 2237.4 153.3 C2236.7 152.9 2236.3 152.2 2235.9 151.6 C2235.8 151.5 2234.8 149.8 2234.8 150.5 C2235.2 151.9 2235.6 153.6 2234.9 154.9 C2234.5 155.6 2233.8 156 2233.1 156.2 C2232.6 156.4 2231.6 157.3 2232.9 156.9 C2234.2 156.5 2235.8 155.5 2236.9 156.5 C2237.4 157 2237.7 157.7 2238.1 158.3 C2238.2 158.4 2239.2 160 2239.2 159.2 C2239 157.9 2237.7 156.3 2238.6 155 C2239 154.4 2239.7 154.1 2240.3 153.8 C2240.7 153.6 2241 153.4 2241.4 153.2 C2241.5 153.2 2241.5 152.7 2241.4 152.8 C2240.3 153 2241.5 152.7 2241.4 152.8 z" id="t4" /><path d="M2241.4 152.8 C2240.1 153 2238.6 153.9 2237.4 153.3 C2236.7 152.9 2236.3 152.2 2235.9 151.6 C2235.8 151.5 2234.8 149.8 2234.8 150.5 C2235.2 151.9 2235.6 153.6 2234.9 154.9 C2234.5 155.6 2233.8 156 2233.1 156.2 C2232.6 156.4 2231.6 157.3 2232.9 156.9 C2234.2 156.5 2235.8 155.5 2236.9 156.5 C2237.4 157 2237.7 157.7 2238.1 158.3 C2238.2 158.4 2239.2 160 2239.2 159.2 C2239 157.9 2237.7 156.3 2238.6 155 C2239 154.4 2239.7 154.1 2240.3 153.8 C2240.7 153.6 2241 153.4 2241.4 153.2 C2241.5 153.2 2241.5 152.7 2241.4 152.8 C2240.3 153 2241.5 152.7 2241.4 152.8 z" id="u4" fill="#FFF" /></g><g transform="translate(0, 50)" id="v4"><path d="M2231 160.2 C2230.3 161.4 2229.8 162.8 2228.8 163.7 C2228.2 164.2 2227.5 164.2 2226.9 163.9 C2226.4 163.8 2224.9 163 2224.5 163.2 C2224.1 163.4 2225.7 164.3 2225.8 164.3 C2226.4 164.8 2227.1 165.2 2227.6 165.8 C2228.1 166.5 2228.1 167.3 2228 168.2 C2228 168.4 2227.4 170.6 2228.1 170 C2228.7 168.8 2229 166.9 2230.3 166.5 C2230.9 166.1 2231.7 166.3 2232.3 166.4 C2232.7 166.5 2234.2 167.2 2234.5 167 C2235 166.8 2233.1 166.1 2233 166.1 C2232.3 165.7 2231.5 165.5 2231 164.9 C2230.4 164.3 2230.6 163.4 2230.8 162.7 C2230.9 162.3 2231.5 160.6 2231.4 160.3 C2231.2 160.1 2231.1 160.1 2231 160.2 C2230.4 161.3 2231.1 160 2231 160.2 z" id="w4" /><path d="M2231 160.2 C2230.3 161.4 2229.8 162.8 2228.8 163.7 C2228.2 164.2 2227.5 164.2 2226.9 163.9 C2226.4 163.8 2224.9 163 2224.5 163.2 C2224.1 163.4 2225.7 164.3 2225.8 164.3 C2226.4 164.8 2227.1 165.2 2227.6 165.8 C2228.1 166.5 2228.1 167.3 2228 168.2 C2228 168.4 2227.4 170.6 2228.1 170 C2228.7 168.8 2229 166.9 2230.3 166.5 C2230.9 166.1 2231.7 166.3 2232.3 166.4 C2232.7 166.5 2234.2 167.2 2234.5 167 C2235 166.8 2233.1 166.1 2233 166.1 C2232.3 165.7 2231.5 165.5 2231 164.9 C2230.4 164.3 2230.6 163.4 2230.8 162.7 C2230.9 162.3 2231.5 160.6 2231.4 160.3 C2231.2 160.1 2231.1 160.1 2231 160.2 C2230.4 161.3 2231.1 160 2231 160.2 z" id="x4" fill="#FFF" /></g></g></g></g></g><g transform="translate(39.29518, 265.301)" id="y4"><ellipse cx="32.5" cy="17.5" rx="37.3" ry="13.2" opacity="0.15" id="z4" /><use xlink:href="#e" x="1.51" y="0" /><use xlink:href="#e" x="0" y="-10.7" /><use xlink:href="#e" x="1.79" y="-21.4" /><use xlink:href="#e" x="-1.63" y="-32.1" /></g><g transform="translate(235.8952, 266.9009)" id="a5"><ellipse cx="32.5" cy="17.5" rx="37.3" ry="13.2" fill-opacity="0.15" id="b5" /><use xlink:href="#e" x="0.08" y="0" /><use xlink:href="#e" x="-1.38" y="-10.7" /><use xlink:href="#e" x="1.69" y="-21.4" /><use xlink:href="#e" x="-1.08" y="-32.1" /><use xlink:href="#e" x="0.53" y="-42.8" /></g><g transform="translate(201.5952, 286.701)" id="c5"><ellipse cx="32.5" cy="17.5" rx="37.3" ry="13.2" fill-opacity="0.15" id="d5" /><use xlink:href="#e" x="0.12" y="0" /><use xlink:href="#e" x="-0.5" y="-10.7" /></g><g transform="translate(70.39518, 285.5009)" id="e5"><ellipse cx="32.5" cy="17.5" rx="37.3" ry="13.2" opacity="0.15" id="f5" /><use xlink:href="#e" x="1.63" y="0" /><use xlink:href="#e" x="-0.52" y="-10.7" /></g><g transform="translate(135.2952, 293.601)" id="g5"><ellipse cx="32.5" cy="17.5" rx="37.3" ry="13.2" fill-opacity="0.15" id="h5" /><use xlink:href="#e" x="0.71" y="0" /><use xlink:href="#e" x="-0.9" y="-10.7" /></g></g><defs><g transform="translate(17.09519, 0.800995) translate(-135.2952, -293.601)" id="e" fill="#000"><path d="M118.2 302.7 C118.4 307.4 132.5 311.2 149.8 311.2 C167.1 311.2 181.2 307.4 181.4 302.7 C181.4 307.5 181.4 310.1 181.4 310.5 C181.4 315.3 167.3 319.1 149.8 319.1 C132.3 319.1 118.2 315.2 118.2 310.5 L118.2 302.7 L118.2 302.7 z" fill-opacity="0.4528" id="i5" fill="#593001" /><path d="M118.7 301.7 C118.9 306.4 133 310.2 150.3 310.2 C167.6 310.2 181.7 306.4 181.9 301.7 C181.9 306.5 181.9 309.1 181.9 309.5 C181.9 314.3 167.8 318.1 150.3 318.1 C132.8 318.1 118.7 314.2 118.7 309.5 L118.7 301.7 L118.7 301.7 z" id="j5" fill="#DA8113" /><linearGradient x1="46.0545" y1="-118.6926" x2="45.4656" y2="-118.6926" gradientUnits="userSpaceOnUse" gradientTransform="matrix(117.135, 0, 0, 28.4634, -5208.417, 3687.795)" id="k5"><stop offset="0%" stop-color="#D9952A" stop-opacity="1" /><stop offset="6.438854%" stop-color="#CA7519" stop-opacity="1" /><stop offset="30.54%" stop-color="#E3AD3A" stop-opacity="1" /><stop offset="51.05%" stop-color="#FFEC91" stop-opacity="1" /><stop offset="68.8%" stop-color="#E9BD44" stop-opacity="1" /><stop offset="86.24%" stop-color="#FFED6C" stop-opacity="1" /><stop offset="93.87%" stop-color="#F2D353" stop-opacity="1" /><stop offset="100%" stop-color="#F2B947" stop-opacity="1" /></linearGradient><path d="M118.2 301.6 C118.4 306.1 132.7 309.7 150.3 309.7 C167.9 309.7 182.2 306.1 182.4 301.6 C182.4 306.2 182.4 308.7 182.4 309 C182.4 313.5 168 317.2 150.3 317.2 C132.6 317.2 118.2 313.5 118.2 309 L118.2 301.6 L118.2 301.6 z" id="l5" style="fill:url(#k5)" /><linearGradient x1="45.4914" y1="-117.9547" x2="45.9407" y2="-117.5895" gradientUnits="userSpaceOnUse" gradientTransform="matrix(115.425, 0, 0, 29.925, -5125.077, 3826.124)" id="m5"><stop offset="0%" stop-color="#F4E072" stop-opacity="1" /><stop offset="100%" stop-color="#DB9427" stop-opacity="1" /></linearGradient><ellipse cx="150.3" cy="301.5" rx="31.6" ry="8.2" id="n5" style="fill:url(#m5)" /><linearGradient x1="45.4656" y1="-126.0065" x2="46.0545" y2="-126.0065" gradientUnits="userSpaceOnUse" gradientTransform="matrix(117.135, 0, 0, 18.6219, -5208.417, 2651.479)" id="o5"><stop offset="0%" stop-color="#D9952A" stop-opacity="1" /><stop offset="6.438854%" stop-color="#CA7519" stop-opacity="1" /><stop offset="30.54%" stop-color="#E3AD3A" stop-opacity="1" /><stop offset="51.05%" stop-color="#FFEC91" stop-opacity="1" /><stop offset="68.8%" stop-color="#E9BD44" stop-opacity="1" /><stop offset="86.24%" stop-color="#FFED6C" stop-opacity="1" /><stop offset="93.87%" stop-color="#F2D353" stop-opacity="1" /><stop offset="100%" stop-color="#F2B947" stop-opacity="1" /></linearGradient><path d="M119.2 299.9 C119 300.2 118.9 300.6 118.9 301 C118.9 305.5 132.9 309.2 150.3 309.2 C167.7 309.2 181.7 305.5 181.7 301 C181.7 300.6 181.6 300.3 181.4 299.9 C182 300.5 182.4 301.2 182.4 301.9 C182.4 306.4 168 310.1 150.3 310.1 C132.6 310.1 118.2 306.4 118.2 301.9 C118.2 301.3 118.6 300.6 119.2 299.9 z" id="p5" style="fill:url(#o5)" /><linearGradient x1="45.196" y1="-121.5895" x2="45.3746" y2="-120.6758" gradientUnits="userSpaceOnUse" gradientTransform="matrix(101.745, 0, 0, 23.94, -4458.332, 3199.41)" id="q5"><stop offset="0%" stop-color="#F8DD61" stop-opacity="1" /><stop offset="100%" stop-color="#EAA330" stop-opacity="1" /></linearGradient><ellipse cx="150.3" cy="300.8" rx="27.8" ry="6.6" id="r5" style="fill:url(#q5)" /><linearGradient x1="45.5694" y1="-134.267" x2="45.0221" y2="-134.267" gradientUnits="userSpaceOnUse" gradientTransform="matrix(101.745, 0, 0, 13.2525, -4458.332, 2077.223)" id="s5"><stop offset="0%" stop-color="#F4CA2F" stop-opacity="1" /><stop offset="51.38%" stop-color="#BF7737" stop-opacity="1" /><stop offset="100%" stop-color="#E4A929" stop-opacity="1" /></linearGradient><path d="M122.6 301.5 C122.5 301.3 122.4 301 122.4 300.8 C122.4 297.2 134.9 294.2 150.2 294.2 C165.5 294.2 178 297.1 178 300.8 C178 301 177.9 301.3 177.8 301.5 C176.3 298.2 164.5 295.6 150.1 295.6 C135.7 295.6 124.1 298.2 122.6 301.5 z" id="t5" style="fill:url(#s5)" /></g></defs><desc>8B4BG4AHD88,fZ2YOK//hmm5alHmJm3YL7zKmo15kiEzMgyVaNXiA+CACbhkrs5oGOd+i7TDmvBhbad+hrYUHZIUSRPI3ikUQBGXUh3RHsyhgr1tYtpcyIfSASEQmTfZphOP8OqfVkYqT7AHf7ElMHsa/TrnzxI2zMEmxLP/TF9Pj9MaPCK3apLqhCmXS798dtgZOCy66zo2JBjkmtmbLVvCh39s4JRqPA1hx4Ao9l4pbdzji8yRJVDxJ/CBvsf2gl1pDpjGvNBuF2TIEc8nKVCqtsHmEk74P+ihqJ1vXOg4lqp5X/AnZSTw3Ih1FXXXicYmVeRUykI9w3TZaz8gJqOT31vY0dPhIwlmA1nbWwbNVA3WXVf1jDk=</desc></svg>