<?xml version="1.0" encoding="utf-8"?><!DOCTYPE svg PUBLIC "-//W3C//DTD SVG 1.1//EN" "http://www.w3.org/Graphics/SVG/1.1/DTD/svg11.dtd"><svg x="0" y="0" width="340px" height="340px" viewBox="0, 0, 340, 340" preserveAspectRatio="xMidYMid" font-size="0" id="a" enable-background="new 0 0 340 340" xmlns="http://www.w3.org/2000/svg" xmlns:xlink="http://www.w3.org/1999/xlink" xmlns:xml="http://www.w3.org/XML/1998/namespace" version="1.1"><g id="b" fill="#000"><g id="c"><g transform="translate(0, 0) translate(0, 224)" id="d"><ellipse cx="168.6" cy="53.1" rx="57.8" ry="12.8" fill-opacity="0.25" id="e" /></g><g id="f"><g transform="translate(-285.9, 63.99997) translate(25.5, 156.5) scale(-1, 1) translate(-25.5, -156.5) translate(0, 130)" id="g"><g transform="translate(25.5, 26.5) scale(-1, 1) translate(-25.5, -26.5)" id="h"><path d="M428.3 48.7 C419.3 55.3 412.6 58.4 408.1 58 C401.4 57.4 391.1 53 387.3 45.9 C383.6 38.7 383.3 27.3 384.9 22.4 C386.5 17.4 390.2 9.9 396.1 7.1 C402 4.3 407.1 6 409.7 7.9 C412.3 9.8 415.3 14.8 414.1 19.2 C413.3 22.2 412.7 23.8 412.2 24.2 C412 21.9 410.9 20.9 408.8 21.3 C405.6 21.9 400.6 27.2 401.5 30.9 C402.4 34.5 405.6 38.2 408.8 38.5 C412 38.8 417 35.6 418.7 34.2 C419.8 33.3 421.8 31 424.8 27.3 C430.1 24.3 433 26.2 433.5 33.1 C434.1 40 432.3 45.2 428.3 48.7 z" id="i" fill="#EFE9E6" /><path d="M412.5 23.9 C412.4 24.1 412.3 24.2 412.2 24.3 C411.6 22.7 410.3 22.1 408.2 22.5 C405 23.1 401.7 27.2 402.5 30.8 C403.4 34.4 405 36.5 408.2 36.8 C411.4 37.1 415.2 34.5 416.8 33.2 C417.9 32.3 420.6 30 425 26.3 C430 24.1 432.8 26.3 433.4 32.6 C430.3 35.5 416.5 45.4 415.2 45.9 C413.8 46.4 409.3 48.1 404.5 48 C399.7 47.9 395.3 43.8 393.8 41.3 C392.2 38.9 391 35 391 30.8 C391 26.6 392.7 20.6 395.1 17.9 C397.5 15.3 399.2 13.9 402.5 13.9 C404.7 13.9 407.4 14.3 410.2 17.2 C411.2 18.2 411.8 20.4 412.5 23.9 z" id="j" fill="#2C2F32" /><path d="M412.2 24.3 C411.6 22.7 410.3 22.1 408.2 22.5 C405 23.1 401.7 27.2 402.5 30.8 C403.4 34.4 405 36.5 408.2 36.8 C411.4 37.1 415.2 34.5 416.8 33.2 C417.9 32.3 420.6 30 425 26.3 C428.7 24.7 431.1 25.4 432.4 28.4 C433 29.6 433.3 31.2 433.5 33.2 C434.1 40.1 432.3 45.3 428.3 48.8 C419.3 55.4 412.6 58.5 408.1 58.1 C401.4 57.5 391.1 53.1 387.3 46 C383.6 38.8 383.3 27.4 384.9 22.5 C386.5 17.5 390.2 10 396.1 7.2 C402 4.4 407.1 6.1 409.7 8 C412.3 9.9 415.3 14.9 414.1 19.3 C413.3 22.3 412.7 23.9 412.2 24.3 z M408.3 21.3 C410.2 20.9 411.4 21.5 411.9 22.9 C412.4 22.5 412.9 21.1 413.6 18.3 C414.7 14.4 411.7 10.4 409.4 8.6 C407.1 6.8 402.6 4.9 397.2 7.4 C391.8 9.9 388.5 16.8 387 21.3 C385.5 25.8 385.8 36.1 389.2 42.7 C392.7 49.2 402 53.2 408.1 53.7 C412.2 54.1 418.3 51.2 426.5 45.2 C430.1 42 432.1 37.5 431.6 31.2 C431.5 29.4 431.2 29.3 430.7 28.3 C429.5 25.6 428.1 26.8 424.8 28.3 C420.8 31.7 416.2 35 415.2 35.8 C413.7 37 409.2 37.9 406.3 37.6 C403.4 37.3 401.9 34.4 401.5 29.4 C401.5 26 405.3 21.9 408.3 21.3 z" opacity="0.15" id="k" /></g></g><g transform="translate(123.6, 274.8) scale(1) translate(-123.6, -274.8) translate(-285.9, 63.59998) translate(20, 150)" id="l"><path d="M418 16.4 C418 16.4 415.5 9 413.5 8.1 C411.5 7.2 409.1 5.1 402.7 6.1 C396.3 7.1 391.2 9.7 388.3 13.1 C385.4 16.4 382.6 26.3 385.4 31.7 C387.3 35.3 390.5 40 395.1 45.6 C389.5 45.6 386.3 46.1 385.4 47 C384.1 48.4 382.7 53.9 384.1 57 C385.4 60 387.5 64.2 393.6 63.9 C399.7 63.7 414.1 60.2 416.6 59.1 C419.1 58 417.8 40.7 417.8 39.4 C417.7 13 418 16.4 418 16.4 z" id="m" fill="#CAC3C0" /><path d="M418 16.4 C418 16.4 417.7 12.9 417.8 39.4 C417.8 40.7 419.1 58 416.6 59.1 C414.1 60.2 399.7 63.7 393.6 63.9 C387.5 64.2 385.4 60 384.1 57 C382.7 53.9 384.1 48.4 385.4 47 C386.3 46.1 389.5 45.6 395.1 45.6 C390.5 40 387.3 35.3 385.4 31.7 C382.6 26.3 385.4 16.4 388.3 13.1 C391.2 9.7 396.3 7.1 402.7 6.1 C409.1 5.1 411.5 7.2 413.5 8.1 C415.5 9.1 418 16.4 418 16.4 z M416.7 16.6 C416.7 16.6 414.4 9.8 412.5 8.9 C410.6 8 408.4 6.1 402.5 7.1 C396.6 8.1 391.9 10.4 389.3 13.6 C386.6 16.6 384 25.8 386.6 30.8 C388.4 34.1 393.9 41.7 398.2 46.8 C393 46.8 387.9 47.2 387.1 48 C385.9 49.3 384.1 51.2 385.4 54.1 C386.6 56.9 388.5 60.7 394.2 60.5 C399.8 60.3 413.1 57.1 415.4 56.1 C417.7 55.1 416.5 39.1 416.5 37.9 C416.4 13.5 416.7 16.6 416.7 16.6 z" opacity="0.15" id="n" /></g><g transform="translate(215, 274.8) scale(1) translate(-215, -274.8) translate(-285.9, 63.59998) translate(106.5, 179.5) scale(-1, 1) translate(-106.5, -179.5) translate(89, 150)" id="o"><path d="M-348.6 16.4 C-348.6 16.4 -351.1 9 -353.1 8.1 C-355.1 7.2 -357.5 5.1 -363.9 6.1 C-370.3 7.1 -375.4 9.7 -378.3 13.1 C-381.2 16.4 -384 26.3 -381.2 31.7 C-379.3 35.3 -376.1 40 -371.5 45.6 C-377.1 45.6 -380.3 46.1 -381.2 47 C-382.5 48.4 -383.9 53.9 -382.5 57 C-381.2 60 -379.1 64.2 -373 63.9 C-366.9 63.7 -352.5 60.2 -350 59.1 C-347.5 58 -348.8 40.6 -348.8 39.3 C-348.8 13 -348.6 16.4 -348.6 16.4 z" id="p" fill="#CAC3C0" /><path d="M-348.6 16.4 C-348.6 16.4 -348.8 12.9 -348.8 39.3 C-348.8 40.6 -347.5 58 -350 59.1 C-352.5 60.2 -366.9 63.7 -373 63.9 C-379.1 64.2 -381.2 60 -382.5 57 C-383.9 53.9 -382.5 48.4 -381.2 47 C-380.3 46.1 -377.1 45.6 -371.5 45.6 C-376.1 40 -379.3 35.3 -381.2 31.7 C-384 26.3 -381.2 16.4 -378.3 13.1 C-375.4 9.7 -370.3 7.1 -363.9 6.1 C-357.5 5.1 -355.1 7.2 -353.1 8.1 C-351.1 9.1 -348.6 16.4 -348.6 16.4 z M-350 16.5 C-350 16.5 -352.3 9.7 -354.1 8.9 C-355.9 8.1 -358.1 6.1 -364 7.1 C-369.9 8.1 -374.6 10.3 -377.3 13.5 C-380 16.5 -382.5 25.6 -380 30.6 C-378.2 33.9 -373.6 41.1 -369.3 46.3 C-374.4 46.3 -379 47.1 -379.8 48 C-381 49.3 -382.4 51 -381.1 53.9 C-379.9 56.7 -378 60.5 -372.4 60.2 C-366.8 60 -353.5 56.8 -351.2 55.8 C-348.9 54.8 -350.1 38.8 -350.1 37.6 C-350.2 13.4 -350 16.5 -350 16.5 z" opacity="0.15" id="q" /></g><g transform="translate(-285.9, 63.59998) translate(26, 89)" id="r"><path d="M397 32.1 C391 38.3 389.6 53.9 391.7 73.6 C393.8 93.4 398.5 110.6 404.4 118.6 C410.3 126.6 419.1 128.3 429.1 128.3 C439.1 128.3 444.7 128.5 451.9 120.5 C459 112.6 463.7 84.2 465.1 74.4 C466.5 64.7 469.4 41 460.1 32.9 C455.5 28.8 444.8 7 431.3 6.5 C417.8 6 403 26 397 32.1 z" id="s" fill="#CAC3C0" /><path d="M397 32.1 C391 38.3 389.6 53.9 391.7 73.6 C392.6 81.9 396.1 90.6 397.8 97.5 C400.1 107.1 401 114.1 404.4 118.7 C410.3 126.7 419.1 128.4 429.1 128.4 C439.1 128.4 444.7 128.6 451.9 120.6 C459 112.7 463.7 84.3 465.1 74.5 C466.5 64.8 469.4 41.1 460.1 33 C455.5 28.9 444.8 7.3 431.3 6.8 C417.8 6.2 403 26 397 32.1 z" id="t" fill="#CAC3C0" /><path d="M397 32.1 C403 26 417.8 6.2 431.1 6.6 C444.7 7.1 455.4 28.8 459.9 32.8 C469.2 40.9 466.3 64.6 464.9 74.3 C463.5 84.1 458.8 112.5 451.7 120.4 C444.5 128.4 438.9 128.2 428.9 128.2 C418.9 128.2 410.1 126.5 404.2 118.5 C398.3 110.5 393.6 93.2 391.5 73.5 C389.6 53.9 391 38.3 397 32.1 z M398.3 32.4 C392.5 38.4 391.2 53.3 393.2 72.3 C395.2 91.4 399.7 107.8 405.4 115.5 C411.1 123.2 419.5 124.8 429.1 124.8 C438.7 124.8 444.1 125 451 117.3 C457.8 109.7 462.3 82.4 463.7 73 C465 63.7 467.8 40.9 458.9 33.1 C454.3 29.2 444.1 8.5 431 8 C418.2 7.5 404 26.5 398.3 32.4 z" opacity="0.15" id="u" /></g><g transform="translate(-285.9, 63.59998) translate(31, 116)" id="v"><path d="M440.7 20.9 C437.4 27 435.6 30.6 435.4 31.9 C434.9 33.7 434.1 60.9 434.6 71.5 C435.1 82.1 433.5 90 435 93.6 C436.5 97.2 433.3 102.1 437.6 103.8 C441.9 105.5 455.8 106.2 460 105.5 C464.1 104.8 462.3 98.7 461.6 96.7 C460.9 94.8 452.9 96 452.2 91.1 C451.5 86.1 454 75.1 456.7 66.9 C458.5 61.5 459.7 55.4 460.4 48.8 L452.6 16.6 L440.7 20.9 z" id="w" fill="#FEFEFE" /><path d="M435 35.9 C435.7 29.7 436.4 25.7 437.3 24.1 C440.6 17.9 445.3 14 446.6 12.5 C449.5 9.5 455.1 6.3 455.9 6 C456.7 5.7 461.5 16.2 462.4 21.9 C463.3 27.6 463.4 43.4 461.5 51.1 C460.2 56.5 459 60.4 457.7 63.6 C456.5 66.7 454.9 70.4 454.3 70.9 C453.8 71.3 453.7 67.4 453.3 68.2 C452 70.2 450.6 71.6 449 72.5 C451.4 67.5 452.9 62.9 453.6 58.7 C454.3 54.6 454.4 48.2 453.9 39.6 C453.3 32.4 452.1 28.3 450.2 27.3 C449 26.7 445.1 27.5 441 30.2 C439.7 31.2 437.7 33 435 35.9 z" id="x" fill="#46494D" /><path d="M457.7 63.6 C457.4 64.7 457.1 65.8 456.7 66.9 C454 75.1 451.5 86.1 452.2 91.1 C452.9 96 460.9 94.8 461.6 96.7 C462.3 98.7 464.1 104.8 460 105.5 C455.8 106.2 441.9 105.5 437.6 103.8 C433.3 102.1 436.5 97.2 435 93.6 C433.5 90 435.1 82.1 434.6 71.5 C434.2 63.1 434.6 44.1 435.1 35.8 C435.1 35.8 435.1 35.9 435 35.9 C435 35.5 435.1 35.1 435.1 34.8 C435.2 33.3 435.3 32.2 435.4 31.9 C435.4 31.7 435.5 31.5 435.6 31.1 C436.1 27.6 436.7 25.2 437.3 24.1 C440.6 17.9 445.3 14 446.6 12.5 C449.5 9.5 455.1 6.3 455.9 6 C456.7 5.7 461.5 16.2 462.4 21.9 C463.3 27.6 463.4 43.4 461.5 51.1 C460.2 56.5 459 60.4 457.7 63.6 z M455.9 65.1 C456.2 64.1 456.5 63 456.8 62 C458 59 459.1 55.3 460.3 50.3 C462 43 461.9 28.1 461.1 22.9 C460.3 17.7 455.9 7.6 455.2 7.9 C454.5 8.2 449.3 11.2 446.7 14 C445.5 15.4 441.2 19.1 438.2 24.9 C437.6 26 437.1 28.2 436.7 31.5 C436.6 31.8 436.5 32 436.5 32.2 C436.4 32.5 436.3 33.5 436.3 34.9 C436.3 35.2 436.2 35.6 436.2 35.9 C435.8 43.7 436.3 61.6 436.7 69.6 C437.2 79.6 434.8 86.8 436.2 90.2 C437.6 93.6 434.6 98.2 438.6 99.8 C442.6 101.4 454.7 102.9 458.5 102.2 C462.2 101.5 461 99.6 460.4 97.7 C459.8 95.9 451.1 97.1 450.5 92.5 C449.7 87.8 453.4 72.8 455.9 65.1 z" opacity="0.15" id="y" /><path d="M406.6 20.9 C409.9 27 411.7 30.6 411.9 31.9 C412.4 33.7 413.2 60.9 412.7 71.5 C412.2 82.1 413.8 90 412.3 93.6 C411.4 95.8 412.8 102.1 411.3 103.6 C408.2 105.8 391.5 105.5 387.8 105.8 C384.1 106.1 384 101.2 384.7 99.3 C385.1 98.2 385.8 97 388.4 95.3 C390.4 94 394.4 94.4 394.8 92.2 C395.5 87.2 393.4 75.1 390.7 66.9 C388.9 61.5 387.7 55.4 387 48.8 L394.7 16.6 L406.6 20.9 z" id="z" fill="#FEFEFE" /><path d="M412.3 35.8 C411.6 29.6 410.9 25.6 410 24 C406.7 17.9 402 14 400.7 12.5 C397.8 9.5 392.2 6.3 391.4 6 C390.6 5.7 385.8 16.2 384.9 21.9 C384 27.6 383.9 43.4 385.8 51.1 C387.1 56.5 388.3 60.4 389.6 63.6 C390.8 66.7 392.4 70.4 393 70.9 C393.5 71.3 393.6 67.4 394 68.2 C395.3 70.2 396.7 72.3 398.3 74.4 C395.9 68.1 394.4 62.9 393.7 58.7 C393 54.6 392.9 48.2 393.4 39.6 C394 32.4 395.2 28.3 397.1 27.3 C398.3 26.7 402.2 27.5 406.3 30.2 C407.6 31.1 409.6 33 412.3 35.8 z" id="a1" fill="#46494D" /><path d="M411.7 31.2 C411.8 31.5 411.8 31.7 411.9 31.9 C412 32.2 412.1 33.1 412.2 34.6 C412.2 35 412.3 35.4 412.3 35.8 L412.2 35.7 C412.6 44 413.1 63 412.7 71.5 C412.2 82.1 413.8 90 412.3 93.6 C411.4 95.8 412.8 102.1 411.3 103.6 C408.2 105.8 391.5 105.5 387.8 105.8 C384.1 106.1 384 101.2 384.7 99.3 C385.1 98.2 385.8 97 388.4 95.3 C390.4 94 394.4 94.4 394.8 92.2 C395.5 87.2 393.4 75.1 390.7 66.9 C390.4 66.1 390.2 65.3 390 64.5 C389.9 64.2 389.8 63.9 389.6 63.6 C388.3 60.4 387.1 56.5 385.8 51.1 C383.9 43.3 384 27.5 384.9 21.9 C385.8 16.2 390.6 5.7 391.4 6 C392.2 6.3 397.8 9.5 400.7 12.5 C402 14 406.7 17.9 410 24 C410.7 25.2 411.2 27.6 411.7 31.2 z M410.3 31.1 C409.8 27.7 409.3 25.4 408.7 24.3 C405.7 18.6 401.5 14.9 400.3 13.5 C397.7 10.7 392.6 7.7 391.9 7.4 C391.2 7.1 386.9 17 386 22.3 C385.1 27.6 385.2 42.6 386.9 49.8 C388.1 54.9 391.7 65 391.9 65.7 C394.3 73.4 396.8 89.1 396.2 93.7 C395.8 95.8 393 94.5 390.6 95.5 C388.2 96.5 387.2 97.9 386.9 98.9 C386.3 100.7 385.9 102.5 389.2 102.2 C392.5 101.9 406.8 102.5 409.6 100.4 C411 99 409.9 91.6 410.7 89.5 C412.1 86.1 410.6 78.7 411.1 68.8 C411.5 60.8 411.1 43 410.7 35.3 C410.7 34.9 410.6 34.5 410.6 34.1 C410.5 32.8 410.4 31.9 410.4 31.6 C410.4 31.6 410.3 31.4 410.3 31.1 z" opacity="0.15" id="b1" /></g></g><g id="c1"><g transform="translate(-286, 63.59997) translate(26, 0)" id="d1"><g transform="translate(0.775704, 0)" id="e1"><path d="M383.5 49.2 C383.4 40.7 383.4 33.7 385.1 25.4 C386.8 17.1 393.9 9 395.1 7.3 C396.3 5.6 399 5.5 400 7.3 C400.5 8.3 401.7 10.6 403.4 14.4 C404.8 17.5 406.2 22 406.9 23.5 C410.4 31.4 413.3 35.7 414.2 40 C414.1 46.4 409 50.5 399.9 60.6 C398.3 62.5 395.1 63.8 391.5 63.2 C387.9 62.6 383.6 57.7 383.5 49.2 z" id="f1" fill="#46494D" /><path d="M383.5 49.2 C383.4 40.7 383.4 33.7 385.1 25.4 C386.8 17.1 393.9 9 395.1 7.3 C396.3 5.6 399 5.5 400 7.3 C400.5 8.3 401.7 10.6 403.4 14.4 C404.8 17.5 406.2 22 406.9 23.5 C410.4 31.4 413.3 35.7 414.2 40 C414.1 46.4 409 50.5 399.9 60.6 C398.3 62.5 395.1 63.8 391.5 63.2 C387.9 62.6 383.6 57.7 383.5 49.2 z M385.6 46.7 C385.7 54.4 389.3 58.9 392.4 59.4 C395.4 59.9 398.1 58.8 399.5 57 C407.2 47.8 411.5 44.1 411.6 38.3 C410.8 34.4 408.4 30.5 405.4 23.3 C404.8 21.9 403.6 17.9 402.4 15 C401 11.5 400 9.5 399.5 8.6 C398.7 7 396.4 7.1 395.4 8.6 C394.4 10.1 388.4 17.6 386.9 25.1 C385.4 32.6 385.5 39 385.6 46.7 z" opacity="0.15" id="g1" /><path d="M389.4 55.7 C386 50.7 386.8 36.3 388 27.6 C389.1 18.8 394.3 14.6 395.6 13.2 C396.8 12.4 397.6 13.8 399.3 18 C400.2 20.3 401.4 25 402.7 27.6 C406.5 34.8 409.5 38.3 409.3 41.9 C409.1 46.8 405.3 47.1 401.3 53.4 C398.6 57.6 392.8 60.7 389.4 55.7 z" id="h1" fill="#EFE9E6" /></g></g><g transform="translate(-285.7, 63.79997) translate(101, 29) scale(-1, 1) translate(-101, -29) translate(85, 0)" id="i1"><g transform="translate(0.224296, 0)" id="j1"><path d="M-383.2 49.2 C-383.3 40.7 -383.3 33.7 -381.6 25.4 C-379.9 17.1 -372.8 9 -371.6 7.3 C-370.4 5.6 -367.7 5.5 -366.7 7.3 C-366.2 8.3 -365 10.6 -363.3 14.4 C-361.9 17.5 -360.5 22 -359.8 23.5 C-356.3 31.4 -353.4 35.7 -352.5 40 C-352.6 46.4 -357.7 50.5 -366.8 60.6 C-368.4 62.5 -371.6 63.8 -375.2 63.2 C-378.8 62.6 -383.1 57.7 -383.2 49.2 z" id="k1" fill="#46494D" /><path d="M-383.2 49.2 C-383.3 40.7 -383.3 33.7 -381.6 25.4 C-379.9 17.1 -372.8 9 -371.6 7.3 C-370.4 5.6 -367.7 5.5 -366.7 7.3 C-366.2 8.3 -365 10.6 -363.3 14.4 C-361.9 17.5 -360.5 22 -359.8 23.5 C-356.3 31.4 -353.4 35.7 -352.5 40 C-352.6 46.4 -357.7 50.5 -366.8 60.6 C-368.4 62.5 -371.6 63.8 -375.2 63.2 C-378.8 62.6 -383.1 57.7 -383.2 49.2 z M-381.9 47 C-381.8 54.8 -378 59.2 -374.8 59.8 C-371.6 60.4 -368.8 59.2 -367.3 57.4 C-359.2 48.2 -354.7 44.4 -354.6 38.6 C-355.4 34.7 -358 30.7 -361.1 23.5 C-361.7 22.1 -363 18 -364.2 15.2 C-365.7 11.7 -366.8 9.6 -367.2 8.7 C-368.1 7.1 -370.5 7.1 -371.6 8.7 C-372.7 10.3 -379 17.6 -380.5 25.2 C-382 32.8 -382 39.2 -381.9 47 z" opacity="0.15" id="l1" /><path d="M-377.3 55.7 C-380.7 50.7 -379.9 36.3 -378.7 27.6 C-377.6 18.8 -372.4 14.6 -371.1 13.2 C-369.9 12.4 -369.1 13.8 -367.4 18 C-366.5 20.3 -365.3 25 -364 27.6 C-360.2 34.8 -357.2 38.3 -357.4 41.9 C-357.6 46.8 -361.4 47.1 -365.4 53.4 C-368.1 57.6 -373.9 60.7 -377.3 55.7 z" id="m1" fill="#EFE9E6" /></g></g><g transform="translate(-285.9, 63.29997) translate(18, 27)" id="n1"><g id="o1"><path d="M395.9 33 C395.5 43 395.1 49.9 394.5 53.9 C392.6 68.8 389.8 77.4 388.2 79.4 C386 82.2 384.5 84.4 383.6 85.8 L390.6 84.8 L388.2 91.5 L393 88 C405.9 96.6 414.5 102 419 104.2 C424.2 106.7 430 107.6 432.1 107.8 C436.9 108.3 440.6 108.3 443.1 107.8 C454.1 104.1 461.6 101.1 465.8 99 C470 96.8 474.9 92.8 480.4 87 L486.6 88 L485.3 83.4 C484 80.4 483.4 78.7 483.6 78.2 C483.7 77.7 486.1 77.7 490.8 78.2 L483.6 67.4 C481.3 59.8 480 54.4 479.7 51.2 C479.4 48 479.2 42.6 478.9 35 C478.1 31.4 476.5 29 474.3 27.9 C472 26.7 470.5 28.1 469.8 31.9 L474.3 80.3 L449.4 98.8 L431.4 98.8 C415.7 92.4 407.4 89.2 406.5 89.2 C405.6 89.2 403.5 85.1 400 76.9 L405 27.8 C402.5 26.5 400.8 26.2 399.7 26.8 C398.6 27.6 397.3 29.6 395.9 33 z" id="p1" fill="#46494D" /><path d="M425.8 7.7 L398.5 28.5 C399.7 37.8 399.7 47 398.5 56.1 C397.3 65.3 395.9 72.4 394.3 77.4 L392.5 80.6 L397.1 78.7 L394.4 82.3 L398.6 82.3 C407.9 91.9 413.9 97.4 416.6 98.8 C420.6 100.9 425.4 104.7 431.2 106 C437 107.3 444.5 107.4 457.8 98.8 C466.7 93.1 473.3 86.6 477.5 79.4 L481.9 82.3 L479.2 72.9 L483.8 75.9 L479.2 68.3 C478 60.9 477.4 55.9 477.2 53.3 C476.6 42.9 476.2 38.6 476.2 36.4 C476.2 33.5 467.9 23.9 451.2 7.9 L425.8 7.9 L425.8 7.7 z" id="q1" fill="#EFE9E6" /><path d="M477 36.3 C477 30.4 478.2 31.3 473.5 26.1 C466.5 18.5 452.3 8.8 451.1 7.7 C449 5.8 427.2 6.4 425.6 7.1 C423.9 7.9 398.9 25.7 397.9 28.7 C396.9 31.7 399.5 43.2 398.9 50.5 C400.9 50.9 403 51.1 404.9 49.8 C406.8 48.5 409 44.9 411 45.8 C413.9 47.1 413.8 66.8 422.1 68.1 C425.2 68.6 432.7 56.3 437.5 56.2 C441 56 448.4 68.7 451 68 C461 65.2 465.3 45.6 468.4 48.3 C471.9 51.3 473.4 52 476.5 48.3 C477 47.8 477 42.1 477 36.3 z" id="r1" fill="#46494D" /><path d="M405.7 49.1 C405.8 50.4 416.2 71.4 418.3 80.1 C420.4 88.8 420 101.4 436.2 100.8 C452.4 100.2 453 99.1 456.8 80.1 C460.6 61.1 468.6 50.2 468.5 48.7 C468.4 47.2 467 46.4 463.2 42.7 C459.5 39.1 456.4 31.4 450.2 31.3 C445.7 31 436.5 40.9 447.9 54.4 C448.6 55.1 454 65.1 452.2 65.9 C450.4 65.9 448.9 63.2 446.5 60.8 C445.3 59.6 442.6 58.1 441.6 56.7 C438.4 52.1 439.4 26.8 438 26.8 C436.5 26.7 435.1 52.6 433.7 56.7 C433 58.9 431.1 59.2 429.4 60.8 C426.8 63.2 424.2 66.2 423 65.9 C421.5 65.7 423.9 57.6 426.6 55.7 C434.5 48.9 431.5 31.4 426.6 31.4 C421 29.9 417.4 36.5 414.1 40.2 C410.7 43.9 405.5 47.8 405.7 49.1 z" id="s1" fill="#EFE9E6" /><path d="M397.6 29.4 C397.6 29.1 397.7 28.9 397.8 28.7 C398.8 25.7 423.8 7.9 425.5 7.1 C427.2 6.4 449 5.8 451 7.7 C452.2 8.8 466.4 18.5 473.4 26.1 C475.2 28.1 476.1 29.2 476.6 30.1 C477.6 31.4 478.3 33.1 478.8 35.2 C479.1 42.8 479.3 48.2 479.6 51.4 C479.9 54.6 481.2 60 483.5 67.6 L490.7 78.4 C486 77.9 483.6 77.9 483.5 78.4 C483.3 78.9 483.9 80.6 485.2 83.6 L486.5 88.2 L480.3 87.2 C474.8 93 469.9 97 465.7 99.2 C461.5 101.3 454 104.3 443 108 C440.5 108.5 436.8 108.5 432 108 C429.9 107.8 424.1 106.9 418.9 104.4 C414.3 102.2 405.7 96.8 392.9 88.2 L388.1 91.5 L390.5 84.8 L383.5 85.8 C384.4 84.4 385.9 82.2 388.1 79.4 C389.7 77.4 392.5 68.8 394.4 53.9 C395 49.9 395.4 43 395.8 33 C396.5 31.5 397.1 30.3 397.6 29.4 z M399.8 28.6 C399.7 28.8 399.7 29 399.7 29.3 C399.2 30.2 398.6 31.3 398 32.7 C397.6 42.2 397.2 48.7 396.7 52.5 C394.9 66.6 393.5 74.7 392 76.6 C389.9 79.3 387.7 82.4 386.9 83.7 L393 81.8 L390.7 88.2 L396.1 86.4 C408.3 94.6 415.7 98.4 420.1 100.4 C425 102.8 430.5 103.6 432.5 103.8 C437.1 104.3 440.6 104.3 442.9 103.8 C453.3 100.3 460.5 97.4 464.4 95.4 C468.4 93.3 473 89.5 478.3 84 L484.2 84.9 L483 80.5 C481.8 77.7 481.1 77 481.3 76.6 C481.4 76.1 482.5 75.5 486.9 76 L481.3 65.3 C479.1 58.1 477.9 53 477.6 49.9 C477.3 46.9 477.1 41.7 476.8 34.5 C476.4 32.5 475.6 30.9 474.7 29.7 C474.3 28.8 473.4 27.8 471.7 25.9 C465.1 18.9 451.6 9.7 450.5 8.6 C448.5 6.8 427.8 7.4 426.2 8 C424.6 8.8 400.8 25.7 399.8 28.6 z" opacity="0.15" id="t1" /></g></g><g id="u1"><g transform="translate(-285.9, 63.29996) translate(40, 47)" id="v1"><path d="M383.8 30.1 C384.8 31.9 394.2 51.5 396.3 60.1 C398.4 68.9 398 81.4 414.2 80.8 C430.4 80.2 431 79.1 434.8 60.1 C438.6 41.1 446.4 32.5 446.8 30 C447.3 27.5 445 26.3 441.3 22.6 C437.6 19 434.5 11.3 428.3 11.2 C423.8 10.9 414.6 20.8 426 34.3 C426.7 35 432.1 45 430.3 45.8 C428.5 45.8 427 43.1 424.6 40.7 C423.4 39.5 420.7 38 419.7 36.6 C418.7 34.7 417.8 28.5 417.4 22.4 C416.9 14.4 417.1 6.3 415.7 6.4 C413.2 6.4 413.2 32.4 411.8 36.6 C411.1 38.8 409.2 39.1 407.5 40.7 C404.9 43.1 402.3 46.1 401.1 45.8 C399.6 45.6 402 37.5 404.7 35.6 C412.6 28.8 409.6 11.3 404.7 11.3 C396.8 11.3 395.5 16.4 392.2 20.1 C388.9 24 382.7 28.2 383.8 30.1 z" id="w1" fill="#FFF" /><path d="M383.8 30.1 C382.7 28.2 388.9 24 392.2 20.2 C395.5 16.5 396.8 11.4 404.7 11.4 C409.6 11.4 412.6 28.9 404.7 35.7 C402 37.6 399.6 45.7 401.1 45.9 C402.3 46.2 404.9 43.2 407.5 40.8 C409.2 39.2 411.1 38.9 411.8 36.7 C413.2 32.5 413.2 6.5 415.7 6.5 C417.1 6.4 416.9 14.5 417.4 22.5 C417.8 28.6 418.7 34.8 419.7 36.7 C420.7 38.1 423.4 39.6 424.6 40.8 C427 43.2 428.5 45.9 430.3 45.9 C432.1 45.1 426.7 35.1 426 34.4 C414.6 20.9 423.8 11 428.3 11.3 C434.5 11.4 437.6 19.1 441.3 22.7 C445 26.4 447.3 27.6 446.8 30.1 C446.4 32.6 438.6 41.3 434.8 60.2 C431 79.2 430.4 80.3 414.2 80.9 C398 81.5 398.4 69 396.3 60.2 C394.2 51.5 384.8 31.9 383.8 30.1 z M385.5 29.8 C386.5 31.5 395.4 50.1 397.3 58.2 C399.3 66.5 398.9 78.3 414.2 77.8 C429.5 77.2 430.1 76.2 433.7 58.2 C437.3 40.2 444.7 32.1 445 29.8 C445.5 27.4 443.3 26.3 439.8 22.8 C436.4 19.4 434.3 11.5 428.5 11.4 C424.2 11.1 415.5 20.8 426.2 33.5 C426.9 34.2 433.6 45.4 430.8 47.3 C429.1 47.3 425.4 43 423.1 40.7 C422 39.6 419.7 37.6 418.7 36.3 C417.8 34.5 417 28.3 416.6 22.5 C416.1 14.9 416.9 7.4 415.6 7.5 C413.2 7.5 414.1 32.5 412.7 36.4 C412 38.5 410.2 39.7 408.6 41.2 C406.1 43.5 400.6 47.8 399.5 47.5 C398.1 47.3 401.6 36.7 404.2 34.9 C411.7 28.5 407.7 12 404.6 12.1 C397.1 12.1 396.6 16.9 393.4 20.4 C390.4 24.1 384.5 28.1 385.5 29.8 z" opacity="0.15" id="x1" /></g><g transform="translate(-285.9, 63.29997) translate(64, 110)" id="y1"><path d="M391.8 5.8 C391 5.7 390.6 5.8 390.4 6.1 C390.3 6.3 390.7 7.4 390.3 8.6 C390.2 8.9 389.9 9.3 389.4 9.8 C388.7 10 388.2 10.1 387.8 10.1 C387.2 10.1 385.6 9.5 384.5 9.5 C383.8 9.4 383.5 9.7 383.6 10.3 L384.8 11.1 C386.2 11.7 387.2 12 387.8 12.2 C389.3 12.5 390.4 12.5 391.1 12.4 C391.6 12.4 392.6 12.5 394.1 12.2 C394.8 12.1 396 11.8 397.7 11.3 C398.4 10.7 398.5 10.3 398 10.1 C397.2 9.8 395.8 10.1 394.8 10.1 C394.1 10.1 393.4 10.1 392.6 10.1 C392.2 9.4 391.9 8.8 391.8 8.5 C391.7 8.2 391.7 7.3 391.8 5.8 z" id="z1" fill="#1F2123" /></g><g transform="translate(-285.8, 63.69996) translate(61, 95)" id="a2"><g id="b2"><path d="M393.7 6.3 C398.5 6.3 401.8 6.4 403.6 8.7 C404.4 9.9 404.1 14.9 400.8 18.9 C399.8 20.1 397.6 21.3 394.2 22.5 C390.5 21.2 388.1 20 387 18.9 C383.8 15.4 383.5 11.1 383.6 9.8 C383.7 6.7 389 6.3 393.7 6.3 z" id="c2" fill="#1F2123" /><path d="M398.2 11.7 C400.1 11.7 400.5 16 400.5 14.9 C400.5 14.3 402.3 12 401.9 10.5 C401.5 9.3 399 8.9 398.2 8.9 C396.3 8.9 395 9.3 395 10.4 C395 11.5 396.3 11.7 398.2 11.7 z" id="d2" fill="#FFF" /></g></g><g transform="translate(-285.9, 63.29996) translate(43, 64)" id="e2"><path d="M402.1 16.9 C403.3 14.6 402.9 13.9 402.9 12.1 C402.9 10.3 402.7 8.4 400.1 7 C396.5 5.3 392.3 5.2 389.8 6.5 C386.4 8.3 383.6 10 384.3 11.5 C385.1 13.2 388 17.1 389.4 17.9 C392.1 19.5 396.1 20.2 398.2 19.7 C399.8 19.3 401.2 18.7 402.1 16.9 z" id="f2" fill="#CAC3C0" /><path d="M401.2 18.1 C402 17.4 401.6 14.8 401.2 13.6 C400.7 12.5 399.2 10.9 397 10.3 C394.1 9.6 393.6 9.7 391.1 10 C389.8 10.1 388.6 9.9 388.2 10.6 C387.6 11.3 387.5 12.5 387.9 13.6 C388.3 14.7 388.4 15.3 389.1 16.1 C389.8 17 390.7 17.7 391.3 18.1 C393.5 19.3 396.8 19.9 398.5 19.5 C399.7 19.2 400.4 18.8 401.2 18.1 z" id="g2" fill="#1F2123" /><path d="M396 16.2 C394.9 16.2 393.9 15.3 393.9 14.2 C393.8 13.1 394 12.5 395 12.7 C395.9 12.8 396.6 12.9 396.9 13.1 C397.8 13.5 397.8 13.2 397.9 14.1 C398 14.5 397.9 14.8 397.8 15 C397.5 15 397 14.7 396.3 14.4 C396.5 15.2 396.6 15.7 396.7 16.1 C396.3 16.3 396.4 16.2 396 16.2 z" id="h2" fill="#FFF" /></g><g transform="translate(-285.9, 63.39996) translate(82, 64)" id="i2"><path d="M384.3 16.9 C383.1 14.6 383.5 13.9 383.5 12.1 C383.5 10.3 383.7 8.4 386.3 7 C389 5.6 392.8 5.6 396.6 6.5 C400.4 7.4 402.8 10 402.1 11.5 C401.3 13.2 398.4 17.1 397 17.9 C394.3 19.5 390.3 20.2 388.2 19.7 C386.6 19.3 385.2 18.7 384.3 16.9 z" id="j2" fill="#CAC3C0" /><path d="M385.2 18.1 C384.4 17.4 384.8 14.8 385.2 13.6 C385.7 12.5 387.2 10.9 389.4 10.3 C392.3 9.6 392.8 9.7 395.3 10 C396.6 10.1 397.8 9.9 398.2 10.6 C398.8 11.3 398.9 12.5 398.5 13.6 C398.1 14.7 398 15.3 397.3 16.1 C396.6 17 395.7 17.7 395.1 18.1 C392.9 19.3 389.6 19.9 387.9 19.5 C386.7 19.2 386 18.8 385.2 18.1 z" id="k2" fill="#1F2123" /><path d="M390.4 16.2 C391.5 16.2 392.5 15.3 392.5 14.2 C392.6 13.1 392.4 12.5 391.4 12.7 C390.5 12.8 389.8 12.9 389.5 13.1 C388.6 13.5 388.6 13.2 388.5 14.1 C388.4 14.5 388.5 14.8 388.6 15 C388.9 15 389.4 14.7 390.1 14.4 C389.9 15.2 389.8 15.7 389.7 16.1 C390.1 16.3 390 16.2 390.4 16.2 z" id="l2" fill="#FFF" /></g></g></g></g></g><defs><g transform="translate(17.09519, 0.800995) translate(-135.2952, -293.601)" id="m2" fill="#000"><path d="M118.2 302.7 C118.4 307.4 132.5 311.2 149.8 311.2 C167.1 311.2 181.2 307.4 181.4 302.7 C181.4 307.5 181.4 310.1 181.4 310.5 C181.4 315.3 167.3 319.1 149.8 319.1 C132.3 319.1 118.2 315.2 118.2 310.5 L118.2 302.7 L118.2 302.7 z" fill-opacity="0.4528" id="n2" fill="#593001" /><path d="M118.7 301.7 C118.9 306.4 133 310.2 150.3 310.2 C167.6 310.2 181.7 306.4 181.9 301.7 C181.9 306.5 181.9 309.1 181.9 309.5 C181.9 314.3 167.8 318.1 150.3 318.1 C132.8 318.1 118.7 314.2 118.7 309.5 L118.7 301.7 L118.7 301.7 z" id="o2" fill="#DA8113" /><linearGradient x1="46.0545" y1="-118.6926" x2="45.4656" y2="-118.6926" gradientUnits="userSpaceOnUse" gradientTransform="matrix(117.135, 0, 0, 28.4634, -5208.417, 3687.795)" id="p2"><stop offset="0%" stop-color="#D9952A" stop-opacity="1" /><stop offset="6.438854%" stop-color="#CA7519" stop-opacity="1" /><stop offset="30.54%" stop-color="#E3AD3A" stop-opacity="1" /><stop offset="51.05%" stop-color="#FFEC91" stop-opacity="1" /><stop offset="68.8%" stop-color="#E9BD44" stop-opacity="1" /><stop offset="86.24%" stop-color="#FFED6C" stop-opacity="1" /><stop offset="93.87%" stop-color="#F2D353" stop-opacity="1" /><stop offset="100%" stop-color="#F2B947" stop-opacity="1" /></linearGradient><path d="M118.2 301.6 C118.4 306.1 132.7 309.7 150.3 309.7 C167.9 309.7 182.2 306.1 182.4 301.6 C182.4 306.2 182.4 308.7 182.4 309 C182.4 313.5 168 317.2 150.3 317.2 C132.6 317.2 118.2 313.5 118.2 309 L118.2 301.6 L118.2 301.6 z" id="q2" style="fill:url(#p2)" /><linearGradient x1="45.4914" y1="-117.9547" x2="45.9407" y2="-117.5895" gradientUnits="userSpaceOnUse" gradientTransform="matrix(115.425, 0, 0, 29.925, -5125.077, 3826.124)" id="r2"><stop offset="0%" stop-color="#F4E072" stop-opacity="1" /><stop offset="100%" stop-color="#DB9427" stop-opacity="1" /></linearGradient><ellipse cx="150.3" cy="301.5" rx="31.6" ry="8.2" id="s2" style="fill:url(#r2)" /><linearGradient x1="45.4656" y1="-126.0065" x2="46.0545" y2="-126.0065" gradientUnits="userSpaceOnUse" gradientTransform="matrix(117.135, 0, 0, 18.6219, -5208.417, 2651.479)" id="t2"><stop offset="0%" stop-color="#D9952A" stop-opacity="1" /><stop offset="6.438854%" stop-color="#CA7519" stop-opacity="1" /><stop offset="30.54%" stop-color="#E3AD3A" stop-opacity="1" /><stop offset="51.05%" stop-color="#FFEC91" stop-opacity="1" /><stop offset="68.8%" stop-color="#E9BD44" stop-opacity="1" /><stop offset="86.24%" stop-color="#FFED6C" stop-opacity="1" /><stop offset="93.87%" stop-color="#F2D353" stop-opacity="1" /><stop offset="100%" stop-color="#F2B947" stop-opacity="1" /></linearGradient><path d="M119.2 299.9 C119 300.2 118.9 300.6 118.9 301 C118.9 305.5 132.9 309.2 150.3 309.2 C167.7 309.2 181.7 305.5 181.7 301 C181.7 300.6 181.6 300.3 181.4 299.9 C182 300.5 182.4 301.2 182.4 301.9 C182.4 306.4 168 310.1 150.3 310.1 C132.6 310.1 118.2 306.4 118.2 301.9 C118.2 301.3 118.6 300.6 119.2 299.9 z" id="u2" style="fill:url(#t2)" /><linearGradient x1="45.196" y1="-121.5895" x2="45.3746" y2="-120.6758" gradientUnits="userSpaceOnUse" gradientTransform="matrix(101.745, 0, 0, 23.94, -4458.332, 3199.41)" id="v2"><stop offset="0%" stop-color="#F8DD61" stop-opacity="1" /><stop offset="100%" stop-color="#EAA330" stop-opacity="1" /></linearGradient><ellipse cx="150.3" cy="300.8" rx="27.8" ry="6.6" id="w2" style="fill:url(#v2)" /><linearGradient x1="45.5694" y1="-134.267" x2="45.0221" y2="-134.267" gradientUnits="userSpaceOnUse" gradientTransform="matrix(101.745, 0, 0, 13.2525, -4458.332, 2077.223)" id="x2"><stop offset="0%" stop-color="#F4CA2F" stop-opacity="1" /><stop offset="51.38%" stop-color="#BF7737" stop-opacity="1" /><stop offset="100%" stop-color="#E4A929" stop-opacity="1" /></linearGradient><path d="M122.6 301.5 C122.5 301.3 122.4 301 122.4 300.8 C122.4 297.2 134.9 294.2 150.2 294.2 C165.5 294.2 178 297.1 178 300.8 C178 301 177.9 301.3 177.8 301.5 C176.3 298.2 164.5 295.6 150.1 295.6 C135.7 295.6 124.1 298.2 122.6 301.5 z" id="y2" style="fill:url(#x2)" /></g></defs><desc>44444444444,5voVa5LhvCObrJAbgybt2pgvnb0V6O7p/FBvVlrY5b2KgKzhTcXm3tj6vS88ux8SmsNK+/a1702Cqd2A2Q6Sc6RKOd88nVOAEJixkjP05Y4QUPm4VlvUmNGqX9Fy6PIR</desc></svg>